<svg width="28" height="28" viewBox="0 0 28 28" fill="none" xmlns="http://www.w3.org/2000/svg">
    <path d="M13.501 25C19.8523 25 25.001 19.8513 25.001 13.5C25.001 7.14873 19.8523 2 13.501 2C7.1497 2 2.00098 7.14873 2.00098 13.5C2.00098 19.8513 7.1497 25 13.501 25Z" fill="white"/>
    <path d="M13.716 1.45871e-07C11.0032 1.45871e-07 8.35139 0.80443 6.09581 2.31156C3.84022 3.8187 2.08221 5.96084 1.04408 8.46711C0.0059433 10.9734 -0.265678 13.7312 0.263556 16.3919C0.792789 19.0525 2.09911 21.4965 4.01733 23.4147C5.93555 25.3329 8.37951 26.6392 11.0401 27.1685C13.7008 27.6977 16.4586 27.4261 18.9649 26.3879C21.4712 25.3498 23.6133 23.5918 25.1204 21.3362C26.6276 19.0806 27.432 16.4288 27.432 13.716C27.4323 11.9147 27.0777 10.131 26.3885 8.4668C25.6993 6.80258 24.689 5.29044 23.4153 4.01674C22.1416 2.74304 20.6294 1.73273 18.9652 1.04353C17.301 0.354333 15.5173 -0.000262566 13.716 1.45871e-07ZM16.578 19.064C16.8154 19.3034 16.9487 19.6269 16.9487 19.964C16.9487 20.3011 16.8154 20.6246 16.578 20.864C16.46 20.9822 16.3197 21.0757 16.1651 21.1391C16.0106 21.2024 15.845 21.2344 15.678 21.233C15.3401 21.2315 15.0166 21.0963 14.778 20.857L8.57801 14.639C8.35798 14.3975 8.23939 14.0806 8.24683 13.754C8.25428 13.4274 8.3872 13.1162 8.61801 12.885L14.91 6.574C15.0274 6.45228 15.1679 6.35517 15.3232 6.28835C15.4786 6.22152 15.6457 6.18632 15.8148 6.18479C15.9839 6.18326 16.1516 6.21544 16.3081 6.27945C16.4646 6.34346 16.6068 6.43801 16.7264 6.55759C16.846 6.67717 16.9405 6.81937 17.0046 6.9759C17.0686 7.13242 17.1007 7.30014 17.0992 7.46924C17.0977 7.63834 17.0625 7.80544 16.9957 7.96078C16.9288 8.11613 16.8317 8.2566 16.71 8.374L11.31 13.722L16.578 19.064Z" fill="#3653FE"/>
    </svg>
    