<svg width="26" height="25" viewBox="0 0 26 25" fill="#3653FE" xmlns="http://www.w3.org/2000/svg">
    <path d="M16.3831 14.3716C18.7844 14.691 20.861 15.3013 22.3378 16.0988C24.0152 17.0042 25.0017 18.1943 25.0017 19.5574C25.0017 21.244 23.4629 22.6804 20.9768 23.6366C18.7885 24.4788 15.7915 24.9976 12.5009 24.9976C9.21225 24.9976 6.2132 24.4768 4.02493 23.6366C1.53882 22.6824 0 21.2461 0 19.5595C0 18.176 1.01554 16.9737 2.73637 16.0622C4.25038 15.2606 6.3766 14.6523 8.83169 14.3451L9.09643 16.402C6.90402 16.6746 5.03427 17.2036 3.73537 17.8912C2.71569 18.4303 2.11588 19.0122 2.11588 19.5595C2.11588 20.3021 3.1397 21.067 4.79434 21.7018C6.74683 22.4525 9.47079 22.9164 12.5009 22.9164C15.5309 22.9164 18.2549 22.4525 20.2074 21.7018C21.862 21.065 22.8859 20.3 22.8859 19.5595C22.8859 19.0244 22.3067 18.4527 21.3201 17.9217C20.0605 17.2422 18.2425 16.7132 16.1018 16.4284L16.3831 14.3716ZM13.5123 9.02495V19.3743H11.3964V9.02495C9.33842 8.55295 7.8058 6.73819 7.8058 4.57147C7.8058 2.04669 9.88652 0 12.4554 0C15.0221 0 17.1029 2.04669 17.1029 4.57147C17.1029 6.74023 15.5702 8.55498 13.5123 9.02495Z" />
    </svg>
    