<svg width="28" height="28" viewBox="0 0 28 28" fill="none" xmlns="http://www.w3.org/2000/svg">
    <path d="M0.996094 21.8772V27.5022H6.62109L23.2111 10.9122L17.5861 5.2872L0.996094 21.8772ZM27.5611 6.5622C27.7001 6.42343 27.8105 6.2586 27.8857 6.07714C27.961 5.89568 27.9998 5.70115 27.9998 5.5047C27.9998 5.30825 27.961 5.11372 27.8857 4.93226C27.8105 4.7508 27.7001 4.58597 27.5611 4.4472L24.0511 0.937201C23.9123 0.798146 23.7475 0.687824 23.566 0.612552C23.3846 0.53728 23.19 0.498535 22.9936 0.498535C22.7971 0.498535 22.6026 0.53728 22.4212 0.612552C22.2397 0.687824 22.0749 0.798146 21.9361 0.937201L19.1911 3.6822L24.8161 9.3072L27.5611 6.5622Z" fill="#3653FE"/>
    </svg>
    