<svg width="26" height="23" viewBox="0 0 26 23" fill="none" xmlns="http://www.w3.org/2000/svg">
    <path d="M0.867049 1H24.567C24.6824 1.00014 24.795 1.0356 24.8897 1.10163C24.9843 1.16765 25.0564 1.26106 25.0964 1.36931C25.1364 1.47755 25.1422 1.59544 25.1132 1.70712C25.0842 1.8188 25.0217 1.91891 24.934 1.994L15.472 11.409V19.488C15.472 19.594 15.4422 19.6978 15.386 19.7876C15.3297 19.8775 15.2494 19.9497 15.154 19.996L10.691 22.573C10.6053 22.6225 10.5081 22.6485 10.4092 22.6486C10.3102 22.6486 10.213 22.6226 10.1272 22.5731C10.0415 22.5237 9.97031 22.4525 9.92078 22.3668C9.87124 22.2812 9.84513 22.184 9.84505 22.085V11.407L0.468049 1.962C0.388948 1.88326 0.335037 1.78278 0.313163 1.67333C0.29129 1.56388 0.302442 1.4504 0.345203 1.34731C0.387964 1.24421 0.460403 1.15615 0.55332 1.09431C0.646236 1.03247 0.755437 0.999646 0.867049 1ZM23.204 2.13H2.22205L10.782 10.749C10.8443 10.8015 10.8944 10.8668 10.9289 10.9406C10.9634 11.0143 10.9816 11.0946 10.982 11.176V21.108L14.352 19.163V11.176C14.3519 11.1017 14.3665 11.028 14.395 10.9594C14.4235 10.8907 14.4653 10.8284 14.518 10.776L23.204 2.13Z" fill="black" stroke="black" stroke-width="0.5"/>
    </svg>
    