<svg width="10" height="10" viewBox="0 0 10 10" fill="#459B0D" xmlns="http://www.w3.org/2000/svg">
    <path opacity="0.6" fill-rule="evenodd" clip-rule="evenodd" d="M5.00993 5.94998C5.25304 5.95037 5.49384 5.90553 5.71852 5.81803C5.9432 5.73052 6.14735 5.60208 6.31925 5.44005C6.49116 5.27803 6.62744 5.08562 6.72028 4.87385C6.81312 4.66208 6.86069 4.43511 6.86027 4.20598C6.86245 3.73692 6.67028 3.2856 6.32468 2.94809C5.97908 2.61059 5.50735 2.41357 5.00993 2.39898C4.76673 2.39845 4.52582 2.44319 4.30101 2.53064C4.07621 2.61808 3.87193 2.74651 3.69992 2.90855C3.5279 3.07058 3.39153 3.26304 3.29862 3.47488C3.20572 3.68671 3.15811 3.91376 3.15853 4.14298C3.16649 4.6093 3.36215 5.05536 3.70588 5.39085C4.04961 5.72634 4.51575 5.9262 5.00993 5.94998ZM1.90233 1.21498C2.72638 0.438291 3.84402 0.00195313 5.0094 0.00195312C6.17477 0.00195313 7.29242 0.438291 8.11647 1.21498C8.94051 1.99166 9.40345 3.04508 9.40345 4.14348C9.40345 5.24188 8.94051 6.29529 8.11647 7.07198L5.00993 9.99998L1.90233 7.07198C1.10635 6.28152 0.662598 5.23328 0.662598 4.14348C0.662598 3.05367 1.10635 2.00543 1.90233 1.21498Z" />
    </svg>
    