<svg width="10" height="10" viewBox="0 0 10 10" fill="#3653FE" xmlns="http://www.w3.org/2000/svg">
    <path d="M9.56804 0.350078L0.256039 3.49908C0.238147 3.50504 0.221621 3.51451 0.207427 3.52693C0.193234 3.53935 0.181656 3.55447 0.173371 3.57141C0.165086 3.58836 0.160259 3.60678 0.159172 3.62561C0.158085 3.64444 0.160759 3.66329 0.167039 3.68108C0.174269 3.70273 0.186717 3.72226 0.203286 3.73796C0.219854 3.75365 0.240033 3.76503 0.262039 3.77108L4.92004 5.19108L6.33704 9.85608C6.34309 9.87809 6.35446 9.89826 6.37016 9.91483C6.38586 9.9314 6.40539 9.94385 6.42704 9.95108C6.44515 9.95708 6.46428 9.95938 6.4833 9.95782C6.50232 9.95627 6.52082 9.95089 6.53772 9.94203C6.55461 9.93316 6.56955 9.92098 6.58163 9.90621C6.59371 9.89145 6.60269 9.87439 6.60804 9.85608L9.75604 0.541078C9.76775 0.514352 9.77112 0.484716 9.76572 0.456042C9.76032 0.427369 9.74639 0.400992 9.72576 0.38036C9.70512 0.359728 9.67875 0.345801 9.65007 0.340398C9.6214 0.334995 9.59177 0.338369 9.56504 0.350078H9.56804Z" />
    </svg>
    