<svg width="65" height="54" viewBox="0 0 65 54" fill="none" xmlns="http://www.w3.org/2000/svg">
    <mask id="path-1-outside-1_27_4704" maskUnits="userSpaceOnUse" x="0" y="0" width="65" height="54" fill="black">
    <rect fill="white" width="65" height="54"/>
    <path fill-rule="evenodd" clip-rule="evenodd" d="M5 1C2.79086 1 1 2.79086 1 5V37C1 39.2091 2.79086 41 5 41H20.9895C24.8691 43.5002 28.4472 46.7248 29.8495 50.9043C30.2424 52.0751 31.265 52.9939 32.5 52.9939C33.735 52.9939 34.7576 52.0751 35.1505 50.9043C36.5528 46.7248 40.1309 43.5002 44.0105 41H60C62.2091 41 64 39.2091 64 37V5C64 2.79086 62.2091 1 60 1H5Z"/>
    </mask>
    <path fill-rule="evenodd" clip-rule="evenodd" d="M5 1C2.79086 1 1 2.79086 1 5V37C1 39.2091 2.79086 41 5 41H20.9895C24.8691 43.5002 28.4472 46.7248 29.8495 50.9043C30.2424 52.0751 31.265 52.9939 32.5 52.9939C33.735 52.9939 34.7576 52.0751 35.1505 50.9043C36.5528 46.7248 40.1309 43.5002 44.0105 41H60C62.2091 41 64 39.2091 64 37V5C64 2.79086 62.2091 1 60 1H5Z" fill="#DF0000"/>
    <path d="M20.9895 41L21.5313 40.1594L21.2839 40H20.9895V41ZM29.8495 50.9043L30.7976 50.5862L29.8495 50.9043ZM35.1505 50.9043L36.0985 51.2224L35.1505 50.9043ZM44.0105 41V40H43.7161L43.4688 40.1594L44.0105 41ZM2 5C2 3.34315 3.34315 2 5 2V0C2.23858 0 0 2.23858 0 5H2ZM2 37V5H0V37H2ZM5 40C3.34315 40 2 38.6569 2 37H0C0 39.7614 2.23858 42 5 42V40ZM20.9895 40H5V42H20.9895V40ZM30.7976 50.5862C29.2854 46.0794 25.4702 42.6979 21.5313 40.1594L20.4478 41.8406C24.2681 44.3025 27.609 47.3703 28.9015 51.2224L30.7976 50.5862ZM32.5 51.9939C31.7932 51.9939 31.0879 51.4514 30.7976 50.5862L28.9015 51.2224C29.3968 52.6987 30.7369 53.9939 32.5 53.9939V51.9939ZM34.2024 50.5862C33.9121 51.4514 33.2068 51.9939 32.5 51.9939V53.9939C34.2631 53.9939 35.6032 52.6987 36.0985 51.2224L34.2024 50.5862ZM43.4688 40.1594C39.5298 42.6979 35.7146 46.0794 34.2024 50.5862L36.0985 51.2224C37.391 47.3703 40.7319 44.3025 44.5522 41.8406L43.4688 40.1594ZM60 40H44.0105V42H60V40ZM63 37C63 38.6569 61.6569 40 60 40V42C62.7614 42 65 39.7614 65 37H63ZM63 5V37H65V5H63ZM60 2C61.6569 2 63 3.34314 63 5H65C65 2.23858 62.7614 0 60 0V2ZM5 2H60V0H5V2Z" fill="url(#paint0_linear_27_4704)" mask="url(#path-1-outside-1_27_4704)"/>
    <defs>
    <linearGradient id="paint0_linear_27_4704" x1="32.5" y1="1" x2="32.5" y2="52.9939" gradientUnits="userSpaceOnUse">
    <stop stop-color="white"/>
    <stop offset="1" stop-color="white" stop-opacity="0.35"/>
    </linearGradient>
    </defs>
    </svg>
    