<svg width="29" height="37" viewBox="0 0 29 37" fill="none" xmlns="http://www.w3.org/2000/svg">
    <path d="M24.1419 15.6372C24.8181 14.3085 25.2965 13.3655 25.5682 12.5987C25.8339 11.8486 25.8705 11.3486 25.7378 10.8929C25.6051 10.4371 25.3056 10.035 24.6787 9.54503C24.0377 9.04396 23.1276 8.50544 21.8438 7.74777L19.7276 6.49888C18.4437 5.74119 17.5324 5.20483 16.784 4.88587C16.052 4.57392 15.5552 4.50613 15.0921 4.61019C14.629 4.71426 14.209 4.98806 13.6808 5.58318C13.1407 6.19167 12.5465 7.06634 11.7102 8.30049C10.7732 9.68313 10.1076 10.6678 9.70678 11.4791C9.3139 12.2743 9.22238 12.813 9.33553 13.3166C9.44868 13.8202 9.82386 13.9715 10.4572 14.8185"  stroke-width="1.5"/>
    <path fill-rule="evenodd" clip-rule="evenodd" d="M16.8824 6.98192C17.2659 7.20822 17.7763 6.90119 17.9037 6.47454C17.9697 6.25344 18.0634 6.03674 18.186 5.82907C18.9991 4.45122 20.7753 3.99344 22.1532 4.80659C23.531 5.61975 23.9888 7.39591 23.1756 8.77376C23.0531 8.98142 22.9087 9.16818 22.747 9.33283C22.4351 9.6506 22.4131 10.2459 22.7965 10.4721C22.9851 10.5834 23.2239 10.575 23.3895 10.4317C23.72 10.1456 24.0104 9.80198 24.2448 9.40477C25.4065 7.43641 24.7525 4.89902 22.7842 3.73738C20.8158 2.57574 18.2784 3.22971 17.1168 5.19807C16.8824 5.59528 16.7219 6.01566 16.6312 6.44323C16.5858 6.65743 16.6939 6.87063 16.8824 6.98192Z" fill="#3752FE"/>
    <path d="M15.6618 10.106C15.8587 10.2222 16.1124 10.1568 16.2286 9.95993C16.3447 9.7631 16.2793 9.50936 16.0825 9.3932C15.8857 9.27703 15.6319 9.34243 15.5158 9.53926C15.3996 9.7361 15.465 9.98984 15.6618 10.106Z" />
    <path d="M20.6515 13.0506C20.8483 13.1667 21.1021 13.1014 21.2182 12.9045C21.3344 12.7077 21.269 12.4539 21.0722 12.3378C20.8753 12.2216 20.6216 12.287 20.5054 12.4838C20.3893 12.6807 20.4547 12.9344 20.6515 13.0506Z" />
    <path d="M10.5593 30.8839C11.7777 30.8839 12.7653 31.8716 12.7653 33.0899C12.7653 34.3082 11.7777 35.2959 10.5593 35.2959C9.34099 35.2959 8.35333 34.3082 8.35333 33.0899C8.35333 31.8716 9.34099 30.8839 10.5593 30.8839Z"  stroke-width="1.5"/>
    <path d="M20.854 30.8839C22.0723 30.8839 23.06 31.8716 23.06 33.0899C23.06 34.3082 22.0723 35.2959 20.854 35.2959C19.6356 35.2959 18.648 34.3082 18.648 33.0899C18.648 31.8716 19.6356 30.8839 20.854 30.8839Z"  stroke-width="1.5"/>
    <path d="M5.7796 22.0604C5.7796 19.9494 5.78194 18.477 5.9313 17.3662C6.07638 16.287 6.34176 15.7156 6.74879 15.3085C7.15581 14.9015 7.72727 14.6361 8.80641 14.4911C9.91728 14.3417 11.3896 14.3394 13.5006 14.3394H17.7908C20.2423 14.3394 21.9624 14.342 23.2408 14.5234C24.4887 14.7006 25.1121 15.0234 25.5239 15.5095C25.9357 15.9956 26.1517 16.6637 26.1213 17.9237C26.0901 19.2145 25.8098 20.9116 25.4068 23.3297C25.1087 25.1183 24.8999 26.3588 24.6231 27.2887C24.3552 28.1889 24.0591 28.6653 23.6673 28.9972C23.2754 29.3291 22.757 29.5428 21.8249 29.6592C20.8622 29.7793 19.6043 29.7814 17.7908 29.7814H13.5006C11.3896 29.7814 9.91728 29.779 8.80641 29.6297C7.72727 29.4846 7.15581 29.2193 6.74879 28.8122C6.34176 28.4051 6.07638 27.8338 5.9313 26.7546C5.78194 25.6436 5.7796 24.1714 5.7796 22.0604Z"  stroke-width="1.5"/>
    <path d="M5.77967 21.3251V11.7658C5.77967 10.1413 4.46279 8.82446 2.83833 8.82446H1"  stroke-width="1.5" stroke-linecap="round"/>
    </svg>
    