<svg width="18" height="18" viewBox="0 0 18 18" fill="none" xmlns="http://www.w3.org/2000/svg">
    <g>
        <path d="M13.5 18h-9a3.755 3.755 0 0 1-3.75-3.75V3.75A3.754 3.754 0 0 1 4.5 0h9a3.754 3.754 0 0 1 3.75 3.75v10.5A3.754 3.754 0 0 1 13.5 18zm-9-16.5a2.25 2.25 0 0 0-2.25 2.25v10.5A2.25 2.25 0 0 0 4.5 16.5h9a2.25 2.25 0 0 0 2.25-2.25V3.75A2.25 2.25 0 0 0 13.5 1.5h-9zm7.5 6H6A2.25 2.25 0 0 1 6 3h6a2.25 2.25 0 0 1 0 4.5zm-6-3A.75.75 0 0 0 6 6h6a.75.75 0 1 0 0-1.5H6zM4.5 9.75a.75.75 0 1 0 0 1.5.75.75 0 0 0 0-1.5zm3 0a.75.75 0 1 0 0 1.5.75.75 0 0 0 0-1.5zm3 0a.75.75 0 1 0 0 1.5.75.75 0 0 0 0-1.5zm-6 3a.75.75 0 1 0 0 1.5.75.75 0 0 0 0-1.5zm3 0a.75.75 0 1 0 0 1.5.75.75 0 0 0 0-1.5zm6-3a.75.75 0 1 0 0 1.5.75.75 0 0 0 0-1.5zm.75 3.75a.75.75 0 0 0-.75-.75h-3a.75.75 0 1 0 0 1.5h3a.75.75 0 0 0 .75-.75z" />
    </g>
</svg>
