<svg width="18" height="18" viewBox="0 0 18 18" fill="none" xmlns="http://www.w3.org/2000/svg">
    <g clip-path="url(#whykeidzna)" fill="#919BBA">
        <path d="m10.384 12.949-2.446 2.446a3.77 3.77 0 0 1-5.333-5.331l2.447-2.449a.75.75 0 1 0-1.062-1.06L1.545 9.003a5.27 5.27 0 0 0 7.456 7.452l2.446-2.446a.75.75 0 0 0-1.06-1.06h-.003zM16.458 1.546A5.234 5.234 0 0 0 12.73 0a5.237 5.237 0 0 0-3.725 1.543L6.556 3.99a.75.75 0 1 0 1.06 1.06l2.449-2.446a3.77 3.77 0 0 1 5.33 5.332l-2.446 2.447a.75.75 0 0 0 1.06 1.06L16.457 9a5.277 5.277 0 0 0 .002-7.453z"/>
        <path d="m10.72 6.219-4.5 4.5a.75.75 0 1 0 1.061 1.06l4.5-4.5a.75.75 0 0 0-1.06-1.06z"/>
    </g>
    <defs>
        <clipPath id="whykeidzna">
            <path fill="#fff" d="M0 0h18v18H0z"/>
        </clipPath>
    </defs>
</svg>
