<svg width="24" height="24" viewBox="0 0 24 24" fill="none" xmlns="http://www.w3.org/2000/svg">
<path d="M9 12C9 12.5523 8.55228 13 8 13C7.44772 13 7 12.5523 7 12C7 11.4477 7.44772 11 8 11C8.55228 11 9 11.4477 9 12Z" fill="black"/>
<path d="M13 12C13 12.5523 12.5523 13 12 13C11.4477 13 11 12.5523 11 12C11 11.4477 11.4477 11 12 11C12.5523 11 13 11.4477 13 12Z" fill="black"/>
<path d="M17 12C17 12.5523 16.5523 13 16 13C15.4477 13 15 12.5523 15 12C15 11.4477 15.4477 11 16 11C16.5523 11 17 11.4477 17 12Z" fill="black"/>
<path fill-rule="evenodd" clip-rule="evenodd" d="M12 5C7.46774 5 4 8.24148 4 12C4 15.7585 7.46774 19 12 19C12.6209 19 13.224 18.9381 13.8023 18.8215C13.9231 18.7971 14.0473 18.7953 14.1687 18.8161L19.4315 19.717L18.3869 17.0167C18.258 16.6833 18.3168 16.3064 18.5412 16.0282C19.4673 14.8799 20 13.4904 20 12C20 8.24148 16.5323 5 12 5ZM2 12C2 6.92196 6.59113 3 12 3C17.4089 3 22 6.92196 22 12C22 13.7774 21.4276 15.4282 20.4527 16.8133L21.9327 20.6392C22.0625 20.9749 22.0019 21.3545 21.774 21.6332C21.5461 21.9118 21.1861 22.0464 20.8313 21.9857L14.0104 20.8181C13.3601 20.9375 12.6877 21 12 21C6.59113 21 2 17.078 2 12Z" fill="black"/>
</svg>
