<svg width="16" height="16" viewBox="0 0 16 16" fill="none" xmlns="http://www.w3.org/2000/svg">
    <path d="m12.776 15.892-4.244-2.228a.944.944 0 0 0-.876 0L3.41 15.892a.942.942 0 0 1-.948-.042.995.995 0 0 1-.34-.368A1.043 1.043 0 0 1 2 14.99V0h12.187v14.989c0 .173-.042.342-.123.493a.995.995 0 0 1-.34.368.946.946 0 0 1-.948.042z" fill="#6374C3"/>
    <path d="M4.7 5.754a.272.272 0 0 1 .014-.386.244.244 0 0 1 .124-.059l1.836-.279a.243.243 0 0 0 .11-.047.258.258 0 0 0 .078-.096l.82-1.742a.257.257 0 0 1 .093-.106.24.24 0 0 1 .262 0c.04.026.072.063.092.106l.821 1.742c.018.038.045.07.077.096.033.024.07.04.11.047l1.837.28c.046.006.09.026.125.058a.272.272 0 0 1 .014.386L9.782 7.11a.263.263 0 0 0-.07.23l.312 1.915a.271.271 0 0 1-.014.143.259.259 0 0 1-.085.112.242.242 0 0 1-.262.02l-1.643-.904a.24.24 0 0 0-.231 0l-1.644.904a.24.24 0 0 1-.262-.02.259.259 0 0 1-.084-.112.272.272 0 0 1-.015-.143L6.1 7.341a.272.272 0 0 0-.071-.231L4.7 5.754z" fill="#F1F4FF"/>
</svg>
