<svg width="18" height="18" viewBox="0 0 18 18" xmlns="http://www.w3.org/2000/svg">
    <g clip-path="url(#dcpujg50ja)">
        <path d="M17.25 12a.75.75 0 0 0-.75.75v1.5a2.25 2.25 0 0 1-2.25 2.25h-1.5a.75.75 0 1 0 0 1.5h1.5A3.754 3.754 0 0 0 18 14.25v-1.5a.75.75 0 0 0-.75-.75zM.75 6a.75.75 0 0 0 .75-.75v-1.5A2.25 2.25 0 0 1 3.75 1.5h1.5a.75.75 0 0 0 0-1.5h-1.5A3.755 3.755 0 0 0 0 3.75v1.5A.75.75 0 0 0 .75 6zM5.25 16.5h-1.5a2.25 2.25 0 0 1-2.25-2.25v-1.5a.75.75 0 1 0-1.5 0v1.5A3.754 3.754 0 0 0 3.75 18h1.5a.75.75 0 1 0 0-1.5zM14.25 0h-1.5a.75.75 0 1 0 0 1.5h1.5a2.25 2.25 0 0 1 2.25 2.25v1.5a.75.75 0 1 0 1.5 0v-1.5A3.755 3.755 0 0 0 14.25 0zM9 8.25a3 3 0 1 0 0-6 3 3 0 0 0 0 6zm0-4.5a1.5 1.5 0 1 1 0 3 1.5 1.5 0 0 1 0-3z"/>
        <path d="M13.5 15a.75.75 0 0 0 .75-.75 4.505 4.505 0 0 0-4.5-4.5h-1.5a4.505 4.505 0 0 0-4.5 4.5.75.75 0 1 0 1.5 0 3 3 0 0 1 3-3h1.5a3 3 0 0 1 3 3 .75.75 0 0 0 .75.75z"/>
    </g>
</svg>
