<svg width="30" height="30" viewBox="0 0 30 30" fill="none" xmlns="http://www.w3.org/2000/svg">
    <circle cx="15" cy="15" r="15" fill="#6374C3"/>
    <g clip-path="url(#isr4mqkpda)">
        <path d="M17.285 14.417c-.609-.336-1.256-.593-1.897-.859-.372-.153-.728-.333-1.042-.583-.618-.493-.5-1.295.225-1.612.205-.09.42-.118.637-.131a4.841 4.841 0 0 1 2.398.474c.378.183.503.125.63-.27.136-.416.248-.839.373-1.259.083-.282-.02-.468-.286-.586a6.094 6.094 0 0 0-1.512-.452c-.686-.106-.686-.11-.69-.798-.002-.971-.002-.971-.977-.971-.14 0-.282-.003-.423 0-.455.013-.532.093-.545.551-.006.205 0 .41-.003.619-.003.609-.006.599-.59.81-1.41.513-2.281 1.475-2.374 3.013-.084 1.362.628 2.282 1.746 2.952.69.413 1.452.657 2.183.98.285.125.557.27.795.468.701.58.573 1.545-.26 1.91a2.614 2.614 0 0 1-1.4.183c-.747-.093-1.462-.289-2.135-.638-.394-.205-.51-.15-.644.276-.115.368-.218.74-.32 1.112-.138.5-.087.618.39.852.61.295 1.26.446 1.923.552.52.083.536.105.542.644.003.243.003.49.006.734.004.307.151.487.468.493.36.007.721.007 1.08-.003.295-.006.446-.167.446-.465 0-.333.016-.67.003-1.003-.016-.34.131-.513.458-.602a3.622 3.622 0 0 0 1.888-1.212c1.372-1.666.85-4.105-1.093-5.179z" fill="#fff"/>
    </g>
    <defs>
        <clipPath id="isr4mqkpda">
            <path fill="#fff" transform="translate(7.368 7.368)" d="M0 0h15.517v15.517H0z"/>
        </clipPath>
    </defs>
</svg>
