<svg width="15" height="16" viewBox="0 0 15 16" fill="none" xmlns="http://www.w3.org/2000/svg">
<path d="M8.32834 2.45192C8.25269 2.31501 8.14174 2.20088 8.00705 2.1214C7.87235 2.04192 7.71882 2 7.56243 2C7.40598 2 7.25245 2.04192 7.11775 2.1214C6.98306 2.20088 6.87211 2.31501 6.79651 2.45192L1.10899 12.9519C1.03545 13.0851 0.997909 13.2352 1.00009 13.3874C1.00227 13.5395 1.04409 13.6885 1.12143 13.8195C1.19876 13.9506 1.30893 14.0592 1.44107 14.1347C1.57321 14.2101 1.72274 14.2498 1.87491 14.2498H13.2499C13.4021 14.2498 13.5516 14.2101 13.6838 14.1347C13.8159 14.0592 13.9261 13.9506 14.0034 13.8195C14.0807 13.6885 14.1225 13.5395 14.1248 13.3874C14.1269 13.2352 14.0893 13.0851 14.0158 12.9519L8.32834 2.45192Z" stroke="currentColor" stroke-linecap="round" stroke-linejoin="round"/>
<path d="M7.56238 9.87476V5.93726" stroke="currentColor" stroke-linecap="round" stroke-linejoin="round"/>
<path d="M7.56238 12.0623C7.44157 12.0623 7.34363 11.9643 7.34363 11.8435C7.34363 11.7227 7.44157 11.6248 7.56238 11.6248" stroke="currentColor"/>
<path d="M7.56238 12.0623C7.68319 12.0623 7.78113 11.9643 7.78113 11.8435C7.78113 11.7227 7.68319 11.6248 7.56238 11.6248" stroke="currentColor"/>
</svg>
