<svg width="24" height="24" viewBox="0 0 24 24" fill="none" xmlns="http://www.w3.org/2000/svg">
    <g clip-path="url(#dzjg2fs2ra)">
        <path d="m23.121 9.069-7.585-7.586a5.008 5.008 0 0 0-7.072 0L.879 9.069A2.978 2.978 0 0 0 0 11.19v9.817a3 3 0 0 0 3 3h18a3 3 0 0 0 3-3V11.19a2.978 2.978 0 0 0-.879-2.121zM15 22.007H9v-3.934a3 3 0 1 1 6 0v3.934zm7-1a1 1 0 0 1-1 1h-4v-3.934a5 5 0 0 0-10 0v3.934H3a1 1 0 0 1-1-1V11.19c0-.265.106-.519.293-.707L9.878 2.9a3.008 3.008 0 0 1 4.244 0l7.585 7.586c.186.187.291.44.293.704v9.817z" fill="currentColor"/>
    </g>
    <defs>
        <clipPath id="dzjg2fs2ra">
            <path fill="#fff" d="M0 0h24v24H0z"/>
        </clipPath>
    </defs>
</svg>
