<svg width="17" height="18" viewBox="0 0 17 18" fill="none" xmlns="http://www.w3.org/2000/svg">
<path d="M10 12H9.5C9.2348 12 8.9804 11.8947 8.79287 11.7071C8.60533 11.5196 8.5 11.2652 8.5 11V8.5C8.5 8.3674 8.44733 8.2402 8.35353 8.14647C8.2598 8.05267 8.1326 8 8 8H7.5" stroke="currentColor" stroke-width="1.5" stroke-linecap="round" stroke-linejoin="round"/>
<path d="M8.25 6C8.11193 6 8 5.88807 8 5.75C8 5.61193 8.11193 5.5 8.25 5.5" stroke="currentColor" stroke-width="1.5"/>
<path d="M8.25 6C8.38807 6 8.5 5.88807 8.5 5.75C8.5 5.61193 8.38807 5.5 8.25 5.5" stroke="currentColor" stroke-width="1.5"/>
<path d="M8.5 16.5C12.6421 16.5 16 13.1421 16 9C16 4.85787 12.6421 1.5 8.5 1.5C4.35787 1.5 1 4.85787 1 9C1 13.1421 4.35787 16.5 8.5 16.5Z" stroke="currentColor" stroke-width="1.5" stroke-linecap="round" stroke-linejoin="round"/>
</svg>
