<svg width="70" height="70" viewBox="0 0 70 70" fill="none" xmlns="http://www.w3.org/2000/svg">
    <rect width="70" height="70" rx="15" fill="#fff"/>
    <rect x="4.375" y="4.375" width="61.25" height="61.25" rx="12" fill="#F1A43C"/>
    <path d="M53.943 35c.917 0 1.668.745 1.59 1.659a19.612 19.612 0 0 1-3.378 9.443 19.787 19.787 0 0 1-9.147 7.235 19.92 19.92 0 0 1-11.658.848 19.834 19.834 0 0 1-10.11-5.834 19.638 19.638 0 0 1-5.038-10.484c-.58-3.919.042-7.92 1.786-11.483a19.736 19.736 0 0 1 7.99-8.481 19.9 19.9 0 0 1 9.758-2.59c.912-.003 1.59.8 1.517 1.71-.073.908-.87 1.576-1.78 1.594-2.748.054-5.448.79-7.85 2.153a16.427 16.427 0 0 0-6.649 7.06 16.298 16.298 0 0 0-1.486 9.556 16.346 16.346 0 0 0 4.194 8.726 16.508 16.508 0 0 0 8.414 4.856 16.58 16.58 0 0 0 9.703-.706 16.47 16.47 0 0 0 7.613-6.022 16.326 16.326 0 0 0 2.786-7.582c.093-.913.828-1.658 1.745-1.658z" fill="#fff"/>
    <path d="m31.599 26.095-1.375.79 1.356 2.334 1.375-.79-1.356-2.334zM40.35 41.162l-1.374.789 1.356 2.334 1.374-.788-1.356-2.335zM39.153 29.428l-.793-1.366-9.802 5.625.793 1.366 9.802-5.625zM41.25 33.037l-.794-1.366-9.802 5.625.794 1.366 9.801-5.625zM43.286 36.544l-.793-1.366-9.802 5.625.794 1.366 9.801-5.625z" fill="#fff" stroke="#fff" stroke-width=".5"/>
    <g clip-path="url(#iut9eyxiza)">
        <path d="m53.358 26.641.026-.002v-.712c0-.489-.45-.936-.942-.936h-4.818l7.72-7.649a.864.864 0 0 0 0-1.236l-.535-.529a.86.86 0 0 0-1.232.002L45.86 23.28v-4.846c0-.49-.462-.922-.954-.922h-.757c-.492 0-.84.433-.84.922v8.241c0 .237.068.44.237.608a.81.81 0 0 0 .606.242h8.289c.492 0 .916-.395.916-.885z" fill="#fff"/>
    </g>
    <ellipse cx="18.04" cy="46.541" rx="8.147" ry="8.196" transform="rotate(90 18.04 46.541)" fill="#fff"/>
    <g clip-path="url(#zf1v4w03zb)">
        <path d="M17.061 51.406a.29.29 0 0 0 .358-.11l3.457-5.461c.056-.089.06-.2.01-.291a.288.288 0 0 0-.253-.149h-2.308l.858-3.385a.286.286 0 0 0-.165-.334.29.29 0 0 0-.358.11l-3.457 5.461a.285.285 0 0 0-.009.291c.05.092.147.149.252.149h2.308l-.858 3.385a.286.286 0 0 0 .165.334z" fill="#F1A43C"/>
    </g>
    <defs>
        <clipPath id="iut9eyxiza">
            <path fill="#fff" transform="rotate(90 20.146 35.458)" d="M0 0h12.22v12.294H0z"/>
        </clipPath>
        <clipPath id="zf1v4w03zb">
            <path fill="#fff" transform="translate(13.122 41.653)" d="M0 0h9.835v9.776H0z"/>
        </clipPath>
    </defs>
</svg>
