<svg width="70" height="70" viewBox="0 0 70 70" fill="none" xmlns="http://www.w3.org/2000/svg">
    <rect width="70" height="70" rx="15" fill="#fff"/>
    <rect x="4.375" y="4.375" width="61.25" height="61.25" rx="12" fill="#85bb65"/>
    <path d="M53.943 35c.917 0 1.668.745 1.59 1.659a19.612 19.612 0 0 1-3.379 9.443 19.786 19.786 0 0 1-9.146 7.235 19.92 19.92 0 0 1-11.658.848 19.834 19.834 0 0 1-10.11-5.834 19.638 19.638 0 0 1-5.038-10.484c-.58-3.919.042-7.92 1.786-11.483a19.736 19.736 0 0 1 7.99-8.481 19.899 19.899 0 0 1 9.758-2.59c.912-.003 1.59.8 1.517 1.71-.073.908-.87 1.576-1.78 1.594-2.748.054-5.448.79-7.85 2.153a16.427 16.427 0 0 0-6.649 7.06 16.3 16.3 0 0 0-1.486 9.556 16.345 16.345 0 0 0 4.194 8.726 16.508 16.508 0 0 0 8.414 4.856 16.58 16.58 0 0 0 9.703-.706 16.47 16.47 0 0 0 7.613-6.022 16.326 16.326 0 0 0 2.786-7.582c.093-.913.828-1.658 1.745-1.658z" fill="#fff"/>
    <g clip-path="url(#fhvf2kke2a)">
        <path d="M35.442 25.485c-.102.003-.17.009-.217.015a2.156 2.156 0 0 0-.015.223v.002c-.005.154-.005.285-.004.426.001.113.002.233 0 .375v.01c-.002.185-.002.36-.019.505a1.012 1.012 0 0 1-.182.506 1.057 1.057 0 0 1-.422.32 5.75 5.75 0 0 1-.44.171c-.015.006-.03.012-.047.017-.868.314-1.538.754-2.003 1.32-.462.561-.747 1.278-.803 2.194-.049.793.134 1.436.48 1.979.352.55.888 1.022 1.583 1.435.587.35 1.192.592 1.838.85.319.128.648.259.989.409m-.738-10.757.537 11.215m-.537-11.215c.116-.002.227-.002.346 0h.2c.334 0 .542.001.689.017l.072.01a.879.879 0 0 1 .01.069c.017.144.018.35.02.68v.025c0 .206.001.399.02.556a.993.993 0 0 0 .218.556 1 1 0 0 0 .519.297c.156.042.352.072.562.104l.013.002a7.58 7.58 0 0 1 1.873.557.34.34 0 0 1 .115.071.307.307 0 0 1-.016.098c-.063.211-.122.415-.18.617-.099.346-.196.682-.307 1.024a1.904 1.904 0 0 1-.037.105 1.905 1.905 0 0 1-.105-.047 6.925 6.925 0 0 0-3.408-.671h-.003c-.308.018-.66.06-1.012.213-.614.267-1.024.767-1.109 1.359-.085.595.173 1.188.701 1.607.467.37.985.626 1.496.836l.19-.462-.19.462.288.119-.965-8.204zm.738 10.757-.2.458m.2-.458h-.001l-.2.458m.2-.458c.396.172.804.384 1.168.687M35.98 36.7c.377.164.737.353 1.05.614m.318-.385v-.001l-.318.386m.318-.385.002.001-.32.384m.318-.385-.318.385m-2.514 6.42c-.008-.708-.03-.737-.715-.846-.876-.14-1.735-.337-2.54-.724l3.881 3.18m-.626-1.61.004.48.005.482c.004.404.198.64.617.648m-.626-1.61.5-.007m-.5.006.5-.006m.126 1.617.01-.5-.01.5zm-.126-1.617a4.145 4.145 0 0 0-.023-.475.927.927 0 0 0-.198-.488.907.907 0 0 0-.452-.277 3.828 3.828 0 0 0-.463-.093c-.857-.136-1.66-.324-2.4-.68m3.536 2.013-3.536-2.013m0 0a1.997 1.997 0 0 1-.293-.164.401.401 0 0 1-.03-.023l.002-.031c.005-.064.025-.16.068-.317l.253.535zm-.333-.199v.001zm.011.026v.001-.001zm3.89 3.292-.002-.005a.034.034 0 0 1-.005-.002l.005.004a.017.017 0 0 1 .002.003zm1.598-.004a.065.065 0 0 1-.004.01.066.066 0 0 1 .015-.014l-.005.002a.084.084 0 0 1-.006.002zm.24-4.55h.001l-.2-.458.2.459zm-2.11.278.062-.496-.062.496zm-3.607-.971.476.151v-.001l-.476-.15zm.517.031a1.204 1.204 0 0 1 .05-.11l.005-.01s-.023.032-.077.056c-.058.025-.1.019-.1.019l.007.001a.567.567 0 0 1 .115.044zm-.459 1.562-.481-.134.481.134zm5.934 2.234-.5.02v.004l.5-.024z" fill="#fff" stroke="#fff"/>
    </g>
    <g clip-path="url(#6mduds9lpb)">
        <path d="m53.358 26.641.026-.002v-.712c0-.489-.45-.936-.942-.936h-4.818l7.72-7.649a.864.864 0 0 0 0-1.236l-.535-.529a.86.86 0 0 0-1.232.002L45.86 23.28v-4.846c0-.49-.462-.922-.954-.922h-.757c-.492 0-.84.433-.84.922v8.241c0 .237.068.44.237.608a.81.81 0 0 0 .606.242h8.289c.492 0 .916-.395.916-.885z" fill="#fff"/>
    </g>
    <ellipse cx="18.04" cy="46.541" rx="8.147" ry="8.196" transform="rotate(90 18.04 46.541)" fill="#fff"/>
    <g clip-path="url(#zqc6tru65c)">
        <path d="M17.061 51.406a.29.29 0 0 0 .358-.11l3.457-5.461c.056-.089.06-.2.01-.291a.288.288 0 0 0-.253-.149h-2.308l.858-3.385a.286.286 0 0 0-.165-.334.29.29 0 0 0-.358.11l-3.457 5.461a.285.285 0 0 0-.009.291c.05.092.147.149.252.149h2.308l-.858 3.385a.286.286 0 0 0 .165.334z" fill="#85bb65"/>
    </g>
    <defs>
        <clipPath id="fhvf2kke2a">
            <path fill="#fff" transform="translate(25.72 24.984)" d="M0 0h20.49v20.366H0z"/>
        </clipPath>
        <clipPath id="6mduds9lpb">
            <path fill="#fff" transform="rotate(90 20.146 35.458)" d="M0 0h12.22v12.294H0z"/>
        </clipPath>
        <clipPath id="zqc6tru65c">
            <path fill="#fff" transform="translate(13.122 41.653)" d="M0 0h9.835v9.776H0z"/>
        </clipPath>
    </defs>
</svg>
