<svg width="24" height="24" viewBox="0 0 24 24" fill="none" xmlns="http://www.w3.org/2000/svg">
    <g clip-path="url(#79nianck4a)">
        <path d="M12 12a4 4 0 1 0 0-8 4 4 0 0 0 0 8zm0-6a2 2 0 1 1 0 4 2 2 0 0 1 0-4zm8.66 3.157-.719-.239A7.999 7.999 0 0 0 12 0a7.993 7.993 0 0 0-7.914 9.092 5.045 5.045 0 0 0-2.548 1.3A4.946 4.946 0 0 0 0 14v4.075a5.013 5.013 0 0 0 3.6 4.8l2.87.9c.482.15.984.226 1.489.225.458 0 .914-.063 1.355-.186l5.78-1.71a2.988 2.988 0 0 1 1.573 0l2.387.8A4 4 0 0 0 24 19.021v-5.149a5.015 5.015 0 0 0-3.34-4.716v.001zM7.758 3.762a5.987 5.987 0 0 1 8.484 0 6.037 6.037 0 0 1 .011 8.5L12.7 15.717a.992.992 0 0 1-1.389 0l-3.553-3.44a6.04 6.04 0 0 1 0-8.515zM22 19.021a1.99 1.99 0 0 1-.764 1.572 1.97 1.97 0 0 1-1.626.395l-2.345-.788a5.023 5.023 0 0 0-2.717-.016l-5.784 1.708a3 3 0 0 1-1.694-.029l-2.894-.9A3.013 3.013 0 0 1 2 18.075V14a2.964 2.964 0 0 1 .92-2.163 3.024 3.024 0 0 1 1.669-.806A8.02 8.02 0 0 0 6.354 13.7l3.567 3.453a2.983 2.983 0 0 0 4.174 0l3.563-3.463a7.961 7.961 0 0 0 1.813-2.821l.537.178A3.006 3.006 0 0 1 22 13.872v5.149z" fill="currentColor"/>
    </g>
    <defs>
        <clipPath id="79nianck4a">
            <path fill="#fff" d="M0 0h24v24H0z"/>
        </clipPath>
    </defs>
</svg>
