<svg width="18" height="18" viewBox="0 0 18 18" fill="none" xmlns="http://www.w3.org/2000/svg">
<g clip-path="url(#clip0_1295_36268)">
<path d="M11.9777 16.8356C11.9911 16.3482 12 15.7442 12 15C12 13.6631 11.9712 12.7785 11.9395 12.2094C11.9065 11.6166 11.5589 11.1244 10.9744 11.0196C10.534 10.9407 9.89779 10.875 9 10.875C8.10221 10.875 7.46603 10.9407 7.02555 11.0196C6.44108 11.1244 6.09353 11.6166 6.06049 12.2094C6.02876 12.7785 6 13.6631 6 15C6 15.7442 6.00893 16.3482 6.02228 16.8356" stroke="currentColor" stroke-width="1.5" stroke-linecap="round" stroke-linejoin="round"/>
<path d="M2.28403 2.59364C2.53767 1.91691 3.11751 1.42753 3.8358 1.34791C4.79591 1.24149 6.43316 1.125 9 1.125C11.5668 1.125 13.2041 1.24149 14.1642 1.34791C14.8825 1.42753 15.4623 1.91691 15.716 2.59364C16.875 5.68609 16.875 6.6513 16.875 6.6513C16.875 7.74135 15.9936 8.625 14.9062 8.625C13.8189 8.625 12.9375 7.74135 12.9375 6.6513C12.9375 7.74135 12.0561 8.625 10.9688 8.625C9.88144 8.625 9 7.74135 9 6.6513C9 7.74135 8.11856 8.625 7.03125 8.625C5.94394 8.625 5.0625 7.74135 5.0625 6.6513C5.0625 7.74135 4.18106 8.625 3.09375 8.625C2.00644 8.625 1.125 7.74135 1.125 6.6513C1.125 6.6513 1.125 5.68609 2.28403 2.59364Z" stroke="currentColor" stroke-width="1.5" stroke-linecap="round" stroke-linejoin="round"/>
<path d="M1.875 8.20166V11.2502C1.875 12.9177 1.94209 14.1615 2.0166 15.0287C2.09829 15.9795 2.8479 16.6814 3.8004 16.7397C4.90238 16.8072 6.60664 16.8752 9 16.8752C11.3934 16.8752 13.0976 16.8072 14.1996 16.7397C15.1521 16.6814 15.9017 15.9795 15.9834 15.0287C16.0579 14.1615 16.125 12.9177 16.125 11.2502V8.20166" stroke="currentColor" stroke-width="1.5" stroke-linecap="round" stroke-linejoin="round"/>
</g>
<defs>
<clipPath id="clip0_1295_36268">
<rect width="18" height="18" fill="white"/>
</clipPath>
</defs>
</svg>
