<svg width="18" height="18" viewBox="0 0 18 18" fill="currentColor" xmlns="http://www.w3.org/2000/svg">
    <path d="M13.992.697 4.848 9.841a3.725 3.725 0 0 0-1.098 2.652V13.5a.75.75 0 0 0 .75.75h1.007a3.724 3.724 0 0 0 2.652-1.098l9.143-9.144a2.344 2.344 0 0 0 0-3.31 2.395 2.395 0 0 0-3.31 0zm2.25 2.25-9.144 9.145c-.423.42-.994.656-1.59.658H5.25v-.257a2.265 2.265 0 0 1 .659-1.591l9.143-9.144a.861.861 0 0 1 1.19 0 .842.842 0 0 1 0 1.19z"/>
    <path d="M17.25 6.734a.75.75 0 0 0-.75.75v3.766h-3a2.25 2.25 0 0 0-2.25 2.25v3h-7.5a2.25 2.25 0 0 1-2.25-2.25V3.75A2.25 2.25 0 0 1 3.75 1.5h6.781a.75.75 0 1 0 0-1.5H3.75A3.754 3.754 0 0 0 0 3.75v10.5A3.754 3.754 0 0 0 3.75 18h8.507a3.726 3.726 0 0 0 2.652-1.098l1.992-1.994A3.725 3.725 0 0 0 18 12.258V7.483a.75.75 0 0 0-.75-.75zm-3.401 9.108a2.23 2.23 0 0 1-1.099.6V13.5a.75.75 0 0 1 .75-.75h2.944c-.093.415-.301.796-.6 1.098l-1.995 1.993z"/>
</svg>
