<svg width="30" height="30" viewBox="0 0 30 30" fill="none" xmlns="http://www.w3.org/2000/svg">
    <circle cx="15" cy="15" r="15" fill="currentColor"/>
    <g clip-path="url(#yaikzs46sa)">
        <path d="M20.518 15.126c-.367-.475-.92-.8-1.66-.978.942-.48 1.357-1.296 1.243-2.448a2.418 2.418 0 0 0-.347-1.086 2.173 2.173 0 0 0-.783-.74 4.31 4.31 0 0 0-1.072-.427 8.46 8.46 0 0 0-1.328-.214V6.842h-1.462v2.325c-.253 0-.639.006-1.157.019V6.842H12.49v2.391c-.21.007-.516.01-.921.01l-2.012-.01v1.556h1.054c.48 0 .762.216.844.646v2.723c.064 0 .114.003.152.01h-.152v3.814c-.05.323-.234.484-.55.484H9.853l-.295 1.737h1.898c.12 0 .294.001.522.004.228.003.399.005.513.005v2.42h1.461V20.24c.266.007.652.01 1.158.01v2.382h1.46v-2.42c.52-.025.98-.072 1.381-.142a5.62 5.62 0 0 0 1.153-.328 3.11 3.11 0 0 0 .92-.555 2.62 2.62 0 0 0 .613-.845c.161-.341.264-.737.308-1.186.083-.879-.06-1.556-.427-2.03zm-6.538-4.232.375-.005c.206-.003.377-.006.512-.01a5.5 5.5 0 0 1 .551.024c.23.019.425.044.584.076.158.032.332.084.521.157.19.072.342.16.456.265.114.104.21.237.29.399.078.161.118.346.118.555 0 .177-.029.338-.085.484a.912.912 0 0 1-.257.365 2.597 2.597 0 0 1-.35.256c-.12.073-.274.132-.461.176-.187.044-.35.079-.489.104-.139.026-.313.043-.521.053l-.475.019c-.107.003-.255.003-.441 0a37.744 37.744 0 0 0-.328-.005v-2.913zm3.99 6.462c-.06.145-.137.272-.232.38-.095.107-.22.202-.375.284a3.212 3.212 0 0 1-.45.2c-.146.05-.322.094-.527.132a6.96 6.96 0 0 1-1.096.119 12.458 12.458 0 0 1-.959.009l-.35-.005v-3.207c.05 0 .2-.003.45-.01.25-.006.454-.009.612-.009.158 0 .376.01.655.029.278.018.512.047.702.085.19.038.397.096.622.175a1.8 1.8 0 0 1 .545.29c.14.114.256.259.351.436.095.177.143.38.143.608 0 .177-.03.338-.09.484z" fill="#fff"/>
    </g>
    <defs>
        <clipPath id="yaikzs46sa">
            <path fill="#fff" transform="translate(7.368 6.842)" d="M0 0h15.79v15.79H0z"/>
        </clipPath>
    </defs>
</svg>
