<svg
  width="26"
  height="26"
  viewBox="0 0 228 201"
  fill="none"
  xmlns="http://www.w3.org/2000/svg"
>
    <path
    d="M60.0239 89.6658C35.6264 89.6658 15.942 69.9814 15.942 45.5839C15.942 21.1863 35.6264 1.50195 60.0239 1.50195C84.4214 1.50195 104.106 21.1863 104.106 45.5839C104.106 69.7042 84.1442 89.6658 60.0239 89.6658ZM60.0239 18.1366C44.7754 18.1366 32.5767 30.3354 32.5767 45.5839C32.5767 60.8323 44.7754 73.0311 60.0239 73.0311C75.2724 73.0311 87.4711 60.8323 87.4711 45.5839C87.4711 30.3354 74.9951 18.1366 60.0239 18.1366Z"
    fill="currentColor"
  />
    <path
    d="M46.9715 201C42.2583 201 38.6541 197.396 38.6541 192.683V160.245C38.6541 155.532 42.2583 151.928 46.9715 151.928C51.6846 151.928 55.2888 155.532 55.2888 160.245V192.683C55.2888 197.396 51.6846 201 46.9715 201Z"
    fill="currentColor"
  />
    <path
    d="M22.1854 97.5859C18.4657 97.5859 14.4803 98.9144 11.5577 101.837L4.38394 109.011C-1.46131 114.856 -1.46131 124.421 4.38394 130.266C7.30657 133.189 11.0263 134.517 15.0117 134.517C18.7314 134.517 22.7168 133.189 25.6394 130.266L32.8131 123.093C38.6584 117.247 38.6584 107.682 32.8131 101.837C29.8905 99.1801 26.1708 97.5859 22.1854 97.5859Z"
    fill="currentColor"
  />
    <path
    d="M13.4465 200.996C8.73333 200.996 5.12915 197.392 5.12915 192.678V150.814C5.12915 146.101 8.73333 142.497 13.4465 142.497C18.1597 142.497 21.7638 146.101 21.7638 150.814V192.678C21.7638 197.392 18.1597 200.996 13.4465 200.996Z"
    fill="currentColor"
  />
    <path
    d="M112.423 200.995C107.71 200.995 104.105 197.391 104.105 192.678V129.466C104.105 126.139 102.719 116.158 97.7288 112.554C93.5702 109.781 89.4115 108.395 86.3618 107.841C78.8762 110.89 71.1133 112.554 63.0732 112.554C58.9146 112.554 54.2014 112.554 48.9337 110.89C44.4978 109.504 42.2799 104.791 43.6661 100.355C45.0523 95.9191 49.7655 93.7012 54.2014 95.0874C56.6966 95.9191 59.1918 95.9191 63.0732 95.9191C69.4499 95.9191 75.8265 94.5329 81.6486 91.7604C83.0348 90.9287 84.6983 90.9287 86.3618 90.9287C91.3522 91.7604 99.1151 93.7012 106.601 98.6916C120.186 107.841 120.463 127.248 120.463 129.466V192.678C120.74 197.391 116.859 200.995 112.423 200.995Z"
    fill="currentColor"
  />
    <path
    d="M167.637 88.1638C143.239 88.1638 123.555 68.4795 123.555 44.0819C123.555 19.6844 143.517 0 167.637 0C191.757 0 211.719 19.6844 211.719 44.0819C211.719 68.4795 192.035 88.1638 167.637 88.1638ZM167.637 16.6347C152.389 16.6347 140.19 28.8335 140.19 44.0819C140.19 59.3304 152.389 71.5292 167.637 71.5292C182.885 71.5292 195.084 59.3304 195.084 44.0819C195.084 28.8335 182.885 16.6347 167.637 16.6347Z"
    fill="currentColor"
  />
    <path
    d="M206.368 98.1445C202.624 98.1445 198.879 99.4818 195.937 102.424C190.321 108.04 190.321 117.401 195.937 123.285L202.891 130.239C205.833 133.181 209.577 134.518 213.322 134.518C217.066 134.518 220.81 133.181 223.752 130.239C229.369 124.622 229.369 115.261 223.752 109.378L216.799 102.424C213.857 99.7492 210.112 98.1445 206.368 98.1445Z"
    fill="currentColor"
  />
    <path
    d="M160.386 112.559C147.356 112.559 130.721 104.796 122.126 94.8153C119.354 91.4883 109.928 93.429 104.66 97.3105C99.3923 101.192 90.5205 105.905 89.4115 106.46C85.2528 108.4 80.2624 106.737 78.3217 102.855C76.381 98.6967 78.0444 93.7063 81.9259 91.7656C84.4211 90.6566 91.075 87.0524 94.4019 84.28C104.66 76.5171 124.344 72.0812 134.602 84.28C140.147 90.9338 152.901 96.756 160.941 96.2015C164.822 95.9242 168.981 95.647 173.694 93.7063C177.853 92.0428 182.843 93.9835 184.506 98.1422C186.17 102.301 184.229 107.291 180.071 108.955C172.862 112.004 166.486 112.282 161.772 112.559C161.495 112.559 160.941 112.559 160.386 112.559Z"
    fill="currentColor"
  />
    <path
    d="M211.122 200.996C206.409 200.996 202.805 197.392 202.805 192.678V150.814C202.805 146.101 206.409 142.497 211.122 142.497C215.835 142.497 219.439 146.101 219.439 150.814V192.678C219.439 197.392 215.558 200.996 211.122 200.996Z"
    fill="currentColor"
  />
    <path
    d="M176.85 201C172.137 201 168.532 197.396 168.532 192.683V160.245C168.532 155.532 172.137 151.928 176.85 151.928C181.563 151.928 185.167 155.532 185.167 160.245V192.683C185.167 197.396 181.286 201 176.85 201Z"
    fill="currentColor"
  />
</svg>
