<svg width="32" height="32" viewBox="0 0 32 32" fill="currentColor" xmlns="http://www.w3.org/2000/svg">
<path d="M30.8208 21.265H22.104V14.3134C22.104 13.6752 21.5954 13.1738 20.948 13.1738H17.0405V8.15954V1.1396C17.0405 0.501425 16.5318 0 15.8844 0C15.237 0 14.7283 0.501425 14.7283 1.1396V1.82336L8.62428 4.19373C8.18497 4.35328 7.90751 4.78632 7.88439 5.24217C7.88439 5.69801 8.16185 6.13105 8.57803 6.31339L14.7052 8.91168V13.1738H10.8208C10.1734 13.1738 9.66474 13.6752 9.66474 14.3134V17.2536H1.15607C0.508671 17.2536 0 17.755 0 18.3932V30.8604C0 31.4986 0.508671 32 1.15607 32H10.7977C10.7977 32 10.7977 32 10.8208 32C10.8208 32 10.8208 32 10.8439 32H20.9711H30.8439C31.4913 32 32 31.4986 32 30.8604V22.4046C31.9769 21.7892 31.4451 21.265 30.8208 21.265ZM9.64162 29.7208H2.31214V19.5328H9.64162V29.7208ZM11.9769 15.453H19.7919V22.4046V29.7208H11.9769V15.453ZM29.6647 29.7208H22.104V23.5442H29.6647V29.7208Z"/>
</svg>
