<svg width="24" height="24" viewBox="0 0 24 24" fill="none" xmlns="http://www.w3.org/2000/svg">
    <path d="M22.994 12c.556 0 1.01.451.964 1.005A12 12 0 1 1 11.958 0c.556-.002.969.488.924 1.042-.044.553-.53.96-1.086.972a9.988 9.988 0 1 0 10.141 10.99c.056-.552.501-1.004 1.057-1.004z" fill="#30E0A1"/>
    <g clip-path="url(#znnqwkp5fa)">
        <path d="M13.828 11.534c-.487-.27-1.005-.475-1.518-.687a3.406 3.406 0 0 1-.833-.467c-.495-.395-.4-1.036.18-1.29.164-.071.335-.094.51-.105a3.873 3.873 0 0 1 1.918.38c.302.146.402.1.505-.216.107-.333.197-.671.297-1.007.067-.226-.015-.374-.228-.47a4.876 4.876 0 0 0-1.21-.36c-.549-.085-.549-.088-.552-.64-.002-.776-.002-.776-.782-.776-.112 0-.225-.003-.338 0-.364.01-.426.074-.436.44-.005.165 0 .33-.002.496-.003.487-.006.48-.472.648-1.128.41-1.826 1.18-1.9 2.41-.067 1.09.503 1.826 1.397 2.362.551.33 1.162.525 1.746.784.229.1.446.216.636.375.562.464.46 1.235-.207 1.528a2.091 2.091 0 0 1-1.12.146 5.003 5.003 0 0 1-1.708-.51c-.316-.164-.408-.12-.516.22a27.01 27.01 0 0 0-.256.89c-.11.4-.07.495.313.682.487.236 1.007.356 1.538.44.415.067.428.085.433.516.003.195.003.392.005.587.003.246.12.39.375.395.287.005.577.005.864-.003.236-.005.356-.133.356-.371 0-.267.013-.536.003-.803-.013-.272.105-.41.366-.482a2.898 2.898 0 0 0 1.51-.969c1.098-1.333.68-3.284-.874-4.143z" fill="#30E0A1"/>
    </g>
    <g clip-path="url(#7b8myw3ftb)">
        <path d="m22.64 6.905.015-.001V6.47a.594.594 0 0 0-.57-.57h-2.92l4.677-4.663a.528.528 0 0 0 0-.754l-.324-.322a.52.52 0 0 0-.746.001l-4.675 4.695V1.903c0-.298-.28-.562-.578-.562h-.458c-.299 0-.51.264-.51.562v5.023a.495.495 0 0 0 .512.519h5.021a.553.553 0 0 0 .556-.54z" fill="#30E0A1"/>
    </g>
    <defs>
        <clipPath id="znnqwkp5fa">
            <path fill="#fff" transform="translate(5.895 5.895)" d="M0 0h12.414v12.414H0z"/>
        </clipPath>
        <clipPath id="7b8myw3ftb">
            <path fill="#fff" transform="rotate(90 12 12)" d="M0 0h7.448v7.448H0z"/>
        </clipPath>
    </defs>
</svg>
