<svg width="52" height="52" viewBox="0 0 52 52" fill="none" xmlns="http://www.w3.org/2000/svg">
    <rect width="51.11" height="51.11" rx="15" fill="#fff"/>
    <rect x="3.194" y="3.194" width="44.721" height="44.721" rx="12" fill="#6374C3"/>
    <path d="M39.386 25.555c.67 0 1.218.544 1.161 1.211a14.32 14.32 0 0 1-2.467 6.895 14.447 14.447 0 0 1-6.678 5.282 14.544 14.544 0 0 1-8.512.62 14.48 14.48 0 0 1-7.381-4.26 14.339 14.339 0 0 1-3.68-7.655 14.299 14.299 0 0 1 1.305-8.384 14.41 14.41 0 0 1 5.833-6.192 14.529 14.529 0 0 1 7.125-1.892c.667-.002 1.162.585 1.108 1.25-.053.662-.635 1.15-1.3 1.163-2.006.04-3.977.577-5.73 1.572a11.993 11.993 0 0 0-4.856 5.154 11.901 11.901 0 0 0-1.085 6.978 11.934 11.934 0 0 0 3.062 6.372 12.054 12.054 0 0 0 6.143 3.545c2.36.54 4.83.36 7.085-.516a12.024 12.024 0 0 0 5.559-4.397 11.919 11.919 0 0 0 2.034-5.536c.068-.666.605-1.21 1.274-1.21z" fill="#fff"/>
    <g clip-path="url(#rnljmfh7la)">
        <path d="M27.132 31.698c-.015-.326.127-.491.442-.577a3.495 3.495 0 0 0 1.82-1.161c1.322-1.597.819-3.935-1.054-4.963m-1.208 6.701-.5.02v.001m.5-.021-.5.024v-.003m.5-.021c.008.205.005.412 0 .618l-.003.343c0 .286-.145.44-.43.446-.346.009-.695.009-1.04.003m.974-1.389a1.04 1.04 0 0 1 .203-.709c.165-.21.396-.314.606-.372h.001a2.995 2.995 0 0 0 1.565-.996v-.001c1.109-1.338.709-3.317-.909-4.206l.241-.438m-1.707 6.722c.007.193.004.373 0 .568a21.94 21.94 0 0 0-.004.32m1.711-7.61-.24.438m.24-.438c-.52-.286-1.07-.512-1.619-.737l-.21-.087a4.112 4.112 0 0 1-1.004-.558c-.597-.473-.482-1.241.216-1.545.198-.086.405-.114.615-.126a4.692 4.692 0 0 1 2.311.454c.365.175.485.12.609-.258l-1.159 3.295m0 0c-.494-.272-1.016-.486-1.568-.713l-.21-.086a4.605 4.605 0 0 1-1.124-.63c-.42-.332-.632-.81-.563-1.298.07-.485.405-.886.89-1.097.278-.12.554-.153.785-.166h.002a5.19 5.19 0 0 1 2.493.474m-.705 3.516.705-3.516m0 0c.072-.225.135-.446.2-.674l.123-.422a5.4 5.4 0 0 0-1.32-.39h-.002l-.013-.003c-.15-.023-.3-.046-.42-.078a.864.864 0 0 1-.446-.26.86.86 0 0 1-.192-.478c-.014-.123-.015-.27-.015-.417v-.021c-.001-.201-.002-.332-.009-.426a7.453 7.453 0 0 0-.434-.007h-.15a7.7 7.7 0 0 0-.282.001l-.001.041v.002c-.004.113-.003.203-.003.302.001.082.002.17 0 .28v.011c0 .132-.002.266-.014.379a.871.871 0 0 1-.16.435.905.905 0 0 1-.359.276c-.095.044-.213.086-.33.129a4.843 4.843 0 0 0-.036.012c-.617.223-1.084.532-1.404.922-.317.386-.517.881-.556 1.525-.034.552.093.993.33 1.364.242.378.615.71 1.11 1.005h.001c.42.25.845.42 1.31.606.235.094.48.191.739.305.294.128.604.288.884.521.459.378.679.914.607 1.445-.073.533-.429.99-.976 1.23l1.818-7.615zm-2.175 10.687c-.305.007-.614.007-.922.002m.922-.002v.053c0 .024-.003.035-.003.035l.001-.002a.163.163 0 0 1 .087-.088l.004-.002-.03.003h-.002l-.057.001zm-.97.502.009-.478v-.007a.288.288 0 0 1 .006.006h.002a.148.148 0 0 1 .036.05s-.005-.014-.005-.05v-.02m-.049.499c-.306-.006-.448-.178-.45-.473l.427-.03h.003a.116.116 0 0 1 .021.012l.008.005v.007l-.009.479zm.049-.5h-.04l-2.737-2.505c-.02.069-.031.118-.038.153.033.02.08.046.15.08.523.251 1.095.386 1.715.484.118.02.247.04.356.072.113.034.27.098.395.245a.81.81 0 0 1 .175.425c.015.112.017.242.018.363m.006.683c-.002-.108-.002-.217-.003-.328v-.001l-.003-.354m0 0-.5.006.5-.006zm-2.487-2.808c-.1.323-.191.65-.284.985l.284-.985zm0 0a6.581 6.581 0 0 0 2.16.63c.54.067 1.087.015 1.612-.213l-3.772-.417z" fill="#fff" stroke="#fff"/>
    </g>
    <g clip-path="url(#ltcjf4nwhb)">
        <path d="m38.96 19.452.018-.002v-.52c0-.357-.329-.683-.688-.683h-3.518l5.637-5.585a.63.63 0 0 0 0-.903l-.39-.385a.628.628 0 0 0-.9 0l-5.634 5.624V13.46c0-.357-.337-.673-.697-.673h-.552c-.36 0-.613.316-.613.673v6.017c0 .173.049.322.173.444a.592.592 0 0 0 .442.177h6.052c.36 0 .67-.289.67-.646z" fill="#fff"/>
    </g>
    <ellipse cx="13.171" cy="33.981" rx="5.948" ry="5.984" transform="rotate(90 13.171 33.981)" fill="#fff"/>
    <g clip-path="url(#b7hrt6v6dc)">
        <path d="M12.457 37.533c.095.04.206.007.261-.08l2.525-3.987a.208.208 0 0 0 .006-.213.21.21 0 0 0-.184-.108H13.38l.627-2.472a.21.21 0 0 0-.121-.243.211.211 0 0 0-.261.08L11.1 34.497a.208.208 0 0 0 .178.32h1.685l-.627 2.473c-.025.1.026.203.121.243z" fill="#6374C3"/>
    </g>
    <defs>
        <clipPath id="rnljmfh7la">
            <path fill="#fff" transform="translate(18.78 18.242)" d="M0 0h14.96v14.87H0z"/>
        </clipPath>
        <clipPath id="ltcjf4nwhb">
            <path fill="#fff" transform="rotate(90 14.71 25.89)" d="M0 0h8.922v8.976H0z"/>
        </clipPath>
        <clipPath id="b7hrt6v6dc">
            <path fill="#fff" transform="translate(9.581 30.413)" d="M0 0h7.181v7.138H0z"/>
        </clipPath>
    </defs>
</svg>
