<svg width="88" height="88" viewBox="0 0 88 88" fill="none" xmlns="http://www.w3.org/2000/svg">
    <rect width="88" height="88" rx="15" fill="#fff"/>
    <rect x="5.5" y="5.5" width="77" height="77" rx="12" fill="#F1A43C"/>
    <path d="M67.814 44c1.153 0 2.097.936 2 2.085a24.656 24.656 0 0 1-4.248 11.871 24.873 24.873 0 0 1-11.499 9.096 25.041 25.041 0 0 1-14.656 1.066 24.934 24.934 0 0 1-12.708-7.334 24.688 24.688 0 0 1-6.335-13.18 24.618 24.618 0 0 1 2.245-14.435 24.81 24.81 0 0 1 10.044-10.663 25.018 25.018 0 0 1 12.268-3.256c1.147-.003 2 1.007 1.908 2.15-.093 1.142-1.094 1.982-2.24 2.004a20.82 20.82 0 0 0-9.866 2.706 20.65 20.65 0 0 0-8.36 8.875A20.49 20.49 0 0 0 24.5 47a20.55 20.55 0 0 0 5.272 10.97 20.753 20.753 0 0 0 10.578 6.104c4.063.93 8.314.621 12.198-.888a20.703 20.703 0 0 0 9.57-7.57 20.524 20.524 0 0 0 3.504-9.532C65.738 44.937 66.66 44 67.814 44z" fill="#fff"/>
    <g clip-path="url(#wcqdpui0ba)">
        <path d="M53.786 44.84c-.598-.77-1.501-1.297-2.709-1.585 1.538-.78 2.214-2.103 2.028-3.97-.062-.677-.25-1.264-.565-1.76a3.536 3.536 0 0 0-1.277-1.2 7.054 7.054 0 0 0-1.75-.694 13.87 13.87 0 0 0-2.167-.346v-3.877h-2.383v3.77c-.413 0-1.043.01-1.889.03v-3.8H40.69v3.877c-.34.01-.841.016-1.502.016l-3.281-.016v2.524h1.718c.784 0 1.243.349 1.378 1.046v4.416c.103 0 .185.006.247.016h-.247v6.185c-.083.523-.382.785-.898.785h-1.718l-.48 2.816h3.096c.196 0 .48.002.851.007.372.005.65.008.836.008v3.923h2.385v-3.877c.433.01 1.062.016 1.888.016v3.861h2.384v-3.923c.846-.041 1.597-.118 2.252-.23a9.21 9.21 0 0 0 1.88-.532c.6-.24 1.1-.541 1.502-.9a4.25 4.25 0 0 0 .999-1.37c.263-.554.43-1.195.503-1.923.134-1.426-.098-2.523-.697-3.293zM43.12 37.978l.612-.008c.336-.005.614-.01.836-.016.222-.005.521.008.898.039.377.03.694.072.952.123.258.051.542.136.851.254.31.118.558.261.743.43.186.17.343.385.472.647.13.261.194.562.194.9 0 .287-.047.549-.14.785a1.48 1.48 0 0 1-.417.592 4.24 4.24 0 0 1-.573.416 2.63 2.63 0 0 1-.751.284c-.304.072-.57.129-.797.17-.227.04-.51.069-.851.084-.341.016-.599.026-.774.031-.176.005-.416.005-.72 0a59.091 59.091 0 0 0-.534-.008v-4.723zm6.51 10.478a2.186 2.186 0 0 1-.38.616 2.15 2.15 0 0 1-.61.461 5.268 5.268 0 0 1-.736.323 5.948 5.948 0 0 1-.859.216c-.336.061-.63.105-.883.13a16.18 16.18 0 0 1-.905.062 20.421 20.421 0 0 1-1.564.015c-.3-.004-.49-.007-.573-.007v-5.201c.083 0 .328-.005.736-.015.407-.01.74-.016.998-.016s.614.016 1.069.047c.453.03.835.076 1.145.138.31.061.647.156 1.014.284.366.129.663.285.89.47.227.184.418.42.573.707.155.288.232.616.232.985 0 .288-.049.549-.147.785z" fill="#fff"/>
    </g>
    <g clip-path="url(#oqwjh89ovb)">
        <path d="m67.08 33.492.032-.003v-.895c0-.615-.566-1.176-1.185-1.176H59.87l9.705-9.616a1.086 1.086 0 0 0 0-1.554l-.673-.665a1.082 1.082 0 0 0-1.548.002l-9.7 9.682v-6.092c0-.615-.581-1.159-1.2-1.159h-.95c-.62 0-1.057.544-1.057 1.159v10.36c0 .298.085.554.298.765.213.213.462.305.762.305h10.42c.618 0 1.152-.498 1.152-1.113z" fill="#fff"/>
    </g>
    <ellipse cx="22.678" cy="58.509" rx="10.241" ry="10.303" transform="rotate(90 22.678 58.509)" fill="#fff"/>
    <g clip-path="url(#8enxpb4m6c)">
        <path d="M21.449 64.624c.163.07.353.012.449-.138l4.347-6.865a.358.358 0 0 0 .01-.366.363.363 0 0 0-.317-.187h-2.9l1.078-4.256a.36.36 0 0 0-.208-.419.364.364 0 0 0-.45.139l-4.346 6.864a.358.358 0 0 0-.011.366.363.363 0 0 0 .317.187h2.901l-1.079 4.256a.36.36 0 0 0 .209.42z" fill="#F1A43C"/>
    </g>
    <defs>
        <clipPath id="wcqdpui0ba">
            <path fill="#fff" transform="translate(32.334 31.408)" d="M0 0h25.758v25.603H0z"/>
        </clipPath>
        <clipPath id="oqwjh89ovb">
            <path fill="#fff" transform="rotate(90 25.326 44.576)" d="M0 0h15.362v15.455H0z"/>
        </clipPath>
        <clipPath id="8enxpb4m6c">
            <path fill="#fff" transform="translate(16.496 52.364)" d="M0 0h12.364v12.29H0z"/>
        </clipPath>
    </defs>
</svg>
