<svg width="18" height="18" viewBox="0 0 18 18" fill="none" xmlns="http://www.w3.org/2000/svg">
    <g clip-path="url(#k9renumv4a)">
        <path d="M17.207 5.26a.693.693 0 0 1-.693-.693V1.94a.554.554 0 0 0-.553-.553h-2.629a.693.693 0 0 1 0-1.386h2.629c1.069 0 1.938.87 1.938 1.939v2.628c0 .383-.31.693-.692.693zM.592 5.26A.693.693 0 0 1-.1 4.567V1.94C-.1.869.77 0 1.839 0h2.628a.693.693 0 0 1 0 1.386H1.839a.554.554 0 0 0-.554.553v2.628c0 .383-.31.693-.693.693zM4.467 18H1.839c-1.07 0-1.94-.87-1.94-1.939v-2.628a.693.693 0 0 1 1.386 0v2.628c0 .305.248.553.554.553h2.628a.693.693 0 0 1 0 1.386zM15.96 18h-2.628a.693.693 0 0 1 0-1.386h2.629a.554.554 0 0 0 .553-.553v-2.628a.693.693 0 0 1 1.386 0v2.628c0 1.07-.87 1.939-1.94 1.939zM6.732 7.94H4.1a1.11 1.11 0 0 1-1.108-1.108V4.201A1.11 1.11 0 0 1 4.1 3.093h2.632A1.11 1.11 0 0 1 7.84 4.2v2.631A1.11 1.11 0 0 1 6.732 7.94zM4.378 6.555h2.077V4.478H4.378v2.077zM6.732 14.907H4.1A1.11 1.11 0 0 1 2.992 13.8v-2.631A1.11 1.11 0 0 1 4.1 10.06h2.632a1.11 1.11 0 0 1 1.108 1.108v2.631a1.11 1.11 0 0 1-1.108 1.108zm-2.354-1.385h2.077v-2.077H4.378v2.077zM13.699 14.907h-2.631A1.11 1.11 0 0 1 9.959 13.8v-2.631a1.11 1.11 0 0 1 1.109-1.108h2.63a1.11 1.11 0 0 1 1.11 1.108v2.631a1.11 1.11 0 0 1-1.11 1.108zm-2.354-1.385h2.076v-2.077h-2.076v2.077zM13.699 7.94h-2.631a1.11 1.11 0 0 1-1.109-1.108V4.201a1.11 1.11 0 0 1 1.109-1.108h2.63a1.11 1.11 0 0 1 1.11 1.108v2.631a1.11 1.11 0 0 1-1.11 1.108zm-2.354-1.385h2.076V4.478h-2.076v2.077z"/>
    </g>
</svg>
