<svg width="25" height="24" viewBox="0 0 25 24" fill="none" xmlns="http://www.w3.org/2000/svg">
    <path d="M23.883 12c.553 0 1.007.45.96 1.002a12.021 12.021 0 0 1-2.041 5.765 11.97 11.97 0 0 1-5.525 4.41 11.932 11.932 0 0 1-7.043.517 11.957 11.957 0 0 1-6.106-3.556 12.031 12.031 0 0 1-1.965-13.39 11.986 11.986 0 0 1 4.826-5.17A11.938 11.938 0 0 1 12.876 0c.556-.002.969.487.925 1.041-.045.554-.531.962-1.087.973a9.936 9.936 0 0 0-4.73 1.312A9.976 9.976 0 0 0 3.965 7.63a10.014 10.014 0 0 0 1.636 11.144 9.931 9.931 0 0 0 10.944 2.53 9.963 9.963 0 0 0 4.599-3.671 10.006 10.006 0 0 0 1.684-4.63c.055-.552.5-1.002 1.053-1.002z" fill="#E0477E"/>
    <g clip-path="url(#a9gbnwvk0a)">
        <path d="M14.642 11.432c-.486-.269-1.002-.474-1.513-.687a3.396 3.396 0 0 1-.831-.466c-.493-.395-.399-1.036.179-1.29.164-.072.335-.095.509-.105a3.851 3.851 0 0 1 1.912.38c.302.145.401.1.503-.216.108-.333.197-.672.297-1.008.066-.225-.015-.374-.228-.469a4.849 4.849 0 0 0-1.206-.361c-.547-.085-.547-.088-.55-.639-.002-.777-.002-.777-.78-.777-.112 0-.224-.002-.337 0-.363.01-.424.075-.434.441-.006.164 0 .329-.003.495-.003.487-.005.48-.47.649-1.125.41-1.82 1.18-1.895 2.41-.066 1.09.501 1.825 1.394 2.361.55.33 1.158.526 1.74.785.228.1.445.215.634.374.56.464.458 1.236-.207 1.528a2.08 2.08 0 0 1-1.117.146 4.973 4.973 0 0 1-1.702-.51c-.315-.164-.407-.12-.514.22-.092.295-.174.593-.256.89-.11.4-.069.495.312.682.486.236 1.005.357 1.534.441.414.067.427.085.432.515.002.195.002.393.005.588.003.246.12.39.373.394.287.006.575.006.862-.002.235-.005.355-.134.355-.372 0-.267.013-.536.003-.802-.013-.272.104-.41.365-.482a2.888 2.888 0 0 0 1.506-.97c1.094-1.333.677-3.284-.872-4.143z" fill="#E0477E"/>
    </g>
    <g clip-path="url(#p8mp0awuqb)">
        <path d="m18.685.674-.015.001v.434c0 .298.272.57.57.57h2.91l-4.664 4.663a.529.529 0 0 0 0 .754l.323.321c.21.211.534.21.744 0l4.662-4.695v2.954c0 .298.279.562.576.562h.457c.297 0 .507-.264.507-.562V.653a.496.496 0 0 0-.509-.519H19.24a.552.552 0 0 0-.554.54z" fill="#E0477E"/>
    </g>
    <defs>
        <clipPath id="a9gbnwvk0a">
            <path fill="#fff" transform="translate(6.732 5.793)" d="M0 0h12.377v12.414H0z"/>
        </clipPath>
        <clipPath id="p8mp0awuqb">
            <path fill="#fff" transform="rotate(-90 12.454 -4.875)" d="M0 0h7.448v7.426H0z"/>
        </clipPath>
    </defs>
</svg>
