<svg width="24" height="24" viewBox="0 0 24 24" fill="none" xmlns="http://www.w3.org/2000/svg">
    <g clip-path="url(#sjpnb8423a)">
        <path d="M1.558 10.717h-.001a.582.582 0 0 1-.34-.117.658.658 0 0 1-.222-.299.718.718 0 0 1-.033-.38.685.685 0 0 1 .165-.338l3.109-3.436A.6.6 0 0 1 4.432 6a.56.56 0 0 1 .665.146l3.109 3.436-.037.034a.635.635 0 0 1 .153.313.668.668 0 0 1-.031.354.609.609 0 0 1-.205.276.533.533 0 0 1-.31.107l-6.218.05zm0 0h2.447v7.95c.001.895.328 1.755.91 2.39.581.634 1.371.992 2.196.993h4.278a.637.637 0 0 0 .469-.212.749.749 0 0 0 .192-.505.749.749 0 0 0-.192-.505.637.637 0 0 0-.47-.211H7.112a1.71 1.71 0 0 1-1.26-.57 2.046 2.046 0 0 1-.523-1.38v-7.95h-3.77zm20.884 2.566h.001c.122.002.24.043.34.117.1.074.177.178.222.299.045.12.057.252.033.38a.686.686 0 0 1-.165.338l-.037-.034.037.034-3.109 3.436a.6.6 0 0 1-.196.146.56.56 0 0 1-.469 0 .599.599 0 0 1-.196-.145l-3.109-3.437.037-.034a.635.635 0 0 1-.153-.313.668.668 0 0 1 .031-.354.61.61 0 0 1 .205-.276.533.533 0 0 1 .31-.107l6.218-.05zm0 0h-2.447v-7.95c-.001-.895-.328-1.755-.91-2.39-.581-.634-1.371-.992-2.196-.993h-4.278a.637.637 0 0 0-.469.211.749.749 0 0 0-.192.506c0 .188.069.37.192.505a.637.637 0 0 0 .47.211h4.277c.472 0 .925.205 1.26.57.335.365.523.862.523 1.38v7.95h3.77z" fill="#919BBA" stroke="#919BBA" stroke-width=".1"/>
    </g>
    <defs>
        <clipPath id="sjpnb8423a">
            <path fill="#fff" transform="rotate(90 12 12)" d="M0 0h24v24H0z"/>
        </clipPath>
    </defs>
</svg>
