<svg width="24" height="24" viewBox="0 0 24 24" fill="#f1f3f6" xmlns="http://www.w3.org/2000/svg">
    <path d="M10.917 22.446v-2.251h7.75a3.747 3.747 0 0 0 2.524-.962c.674-.618 1.058-1.46 1.059-2.344v-4.278a.837.837 0 0 0-.276-.616.949.949 0 0 0-.64-.245.948.948 0 0 0-.641.245.836.836 0 0 0-.276.616v4.278c0 .413-.179.813-.505 1.112-.327.3-.774.471-1.245.471h-7.75v-2.251a.783.783 0 0 0-.156-.456.859.859 0 0 0-.39-.29.918.918 0 0 0-.486-.043.885.885 0 0 0-.437.214l-3.435 3.108a.8.8 0 0 0-.194.262.76.76 0 0 0 .194.897l3.435 3.108c.122.11.274.184.437.214.163.03.332.015.486-.043a.859.859 0 0 0 .39-.29.783.783 0 0 0 .156-.456zm2.166-20.892v2.251h-7.75a3.747 3.747 0 0 0-2.524.962c-.674.618-1.058 1.46-1.059 2.344v4.278c0 .236.102.457.276.616a.949.949 0 0 0 .64.245.949.949 0 0 0 .641-.245.836.836 0 0 0 .276-.616V7.11c0-.413.179-.813.505-1.112.327-.3.775-.471 1.245-.471h7.75v2.251a.783.783 0 0 0 .156.456.859.859 0 0 0 .39.29.918.918 0 0 0 .486.043.885.885 0 0 0 .436-.214l3.436-3.108a.801.801 0 0 0 .194-.262.76.76 0 0 0-.194-.897L14.552.979a.885.885 0 0 0-.437-.214.918.918 0 0 0-.486.043.859.859 0 0 0-.39.29.783.783 0 0 0-.156.456z" fill="#919BBA" stroke="#919BBA" stroke-width=".5"/>
</svg>
