<svg width="18" height="18" viewBox="0 0 18 18" fill="none" xmlns="http://www.w3.org/2000/svg">
<path d="M10.1925 17.355C9.79732 17.4091 9.39893 17.4367 9.00003 17.4375C7.38038 17.4368 5.79514 16.97 4.43361 16.0928C3.07208 15.2156 1.9918 13.9651 1.32177 12.4905C0.651739 11.0159 0.420271 9.3797 0.655007 7.77715C0.889743 6.1746 1.58076 4.67348 2.64555 3.45303C3.71034 2.23258 5.10389 1.34439 6.65981 0.894515C8.21573 0.444639 9.86825 0.452091 11.42 0.915982C12.9718 1.37987 14.3573 2.2806 15.4111 3.5106C16.4648 4.7406 17.1423 6.2479 17.3625 7.8525C17.4676 8.62896 17.4676 9.41604 17.3625 10.1925" stroke="currentColor" stroke-width="1.125" stroke-linecap="round" stroke-linejoin="round"/>
<path d="M6.9675 17.19C5.8275 15.5175 5.0625 12.4725 5.0625 9C5.0625 5.5275 5.8125 2.4825 6.9675 0.809998" stroke="currentColor" stroke-width="1.125" stroke-linecap="round" stroke-linejoin="round"/>
<path d="M0.577637 8.4375H8.43764" stroke="currentColor" stroke-width="1.125" stroke-linecap="round" stroke-linejoin="round"/>
<path d="M12.375 8.4375H17.4225" stroke="currentColor" stroke-width="1.125" stroke-linecap="round" stroke-linejoin="round"/>
<path d="M2.25 3.9375H15.75" stroke="currentColor" stroke-width="1.125" stroke-linecap="round" stroke-linejoin="round"/>
<path d="M1.5376 12.9375H7.8751" stroke="currentColor" stroke-width="1.125" stroke-linecap="round" stroke-linejoin="round"/>
<path d="M11.0327 0.809998C12.3827 2.79 12.8702 6.06 12.9302 8.4375" stroke="currentColor" stroke-width="1.125" stroke-linecap="round" stroke-linejoin="round"/>
<path d="M9.75012 10.3875L11.3776 15.75C11.4031 15.8324 11.4493 15.9069 11.5119 15.9663C11.5744 16.0256 11.6512 16.0679 11.7348 16.089C11.8185 16.1101 11.9061 16.1093 11.9894 16.0867C12.0726 16.0641 12.1486 16.0205 12.2101 15.96L13.0351 15.135L15.1651 17.2575C15.2106 17.3051 15.2653 17.3431 15.3259 17.369C15.3865 17.3949 15.4517 17.4083 15.5176 17.4083C15.5835 17.4083 15.6487 17.3949 15.7093 17.369C15.7699 17.3431 15.8246 17.3051 15.8701 17.2575L17.2876 15.84C17.3343 15.7939 17.3714 15.7391 17.3967 15.6786C17.4221 15.618 17.4351 15.5531 17.4351 15.4875C17.4351 15.4219 17.4221 15.357 17.3967 15.2964C17.3714 15.2359 17.3343 15.1811 17.2876 15.135L15.1651 13.005L15.9901 12.18C16.0432 12.1163 16.0797 12.0404 16.0964 11.9592C16.113 11.8779 16.1093 11.7938 16.0855 11.7143C16.0618 11.6349 16.0187 11.5625 15.9602 11.5038C15.9016 11.445 15.8295 11.4016 15.7501 11.3775L10.3876 9.75C10.299 9.72272 10.2046 9.7201 10.1147 9.74244C10.0247 9.76478 9.94248 9.81123 9.87691 9.87679C9.81135 9.94235 9.76491 10.0245 9.74257 10.1145C9.72022 10.2045 9.72284 10.2989 9.75012 10.3875Z" stroke="currentColor" stroke-width="1.125" stroke-linecap="round" stroke-linejoin="round"/>
</svg>
