<?xml version="1.0" encoding="utf-8"?>
<!-- Generator: Adobe Illustrator 16.0.4, SVG Export Plug-In . SVG Version: 6.00 Build 0)  -->
<!DOCTYPE svg PUBLIC "-//W3C//DTD SVG 1.1//EN" "http://www.w3.org/Graphics/SVG/1.1/DTD/svg11.dtd">
<svg version="1.1" id="Layer_1" xmlns="http://www.w3.org/2000/svg" xmlns:xlink="http://www.w3.org/1999/xlink" x="0px" y="0px"
	 width="375px" height="375px" viewBox="0 0 375 375" enable-background="new 0 0 375 375" xml:space="preserve">
<ellipse opacity="0.2" fill="#232323" enable-background="new    " cx="187.84" cy="290.512" rx="55.682" ry="8.988"/>
<g>
	<g>
		<path fill="#232323" d="M189.625,233.193c0.201,1.603,5.416,46.858,13.111,53.219c7.697,6.354,11.747,4.227,13.319,2.543
			c1.644-1.76,3.719-4.932-0.111-8.518c-3.08-2.885-5.228-15.636-2.11-35.524L189.625,233.193z"/>
		<g>
			<path fill="#232323" d="M221.497,284.037c0.965,0.275,2.031,0.115,2.395-0.537c0.36-0.65-0.213-1.782-1.373-2.333
				c-3.141-1.503-6.744-1.992-10.285-1.313c-1.317,0.258-1.854,1.635-1.255,2.859c0.605,1.234,1.71,1.878,2.564,1.567
				C215.992,283.377,218.783,283.24,221.497,284.037z"/>
			<path fill="#232323" d="M219.978,289.662c0.853,0.535,1.922,0.677,2.45,0.148c0.53-0.524,0.288-1.771-0.672-2.623
				c-2.601-2.312-5.925-3.783-9.517-4.113c-1.337-0.116-2.235,1.057-1.997,2.402c0.236,1.35,1.12,2.276,2.032,2.213
				C214.874,287.5,217.591,288.145,219.978,289.662z"/>
			<path fill="#232323" d="M215.815,293.913c0.511,0.862,1.397,1.476,2.11,1.246c0.709-0.226,1.063-1.443,0.597-2.642
				c-1.262-3.244-3.554-6.065-6.602-7.992c-1.135-0.719-2.47-0.082-2.87,1.227c-0.404,1.311-0.042,2.539,0.799,2.896
				C212.253,289.665,214.379,291.477,215.815,293.913z"/>
		</g>
	</g>
	<g>
		<path fill="#232323" d="M184.911,232.773c-0.204,1.599-5.586,46.838-13.307,53.166c-7.719,6.326-11.763,4.185-13.326,2.496
			c-1.634-1.769-3.701-4.945,0.143-8.518c3.091-2.873,5.285-15.617,2.242-35.518L184.911,232.773z"/>
		<g>
			<path fill="#232323" d="M154.181,284.021c-0.965,0.273-2.031,0.107-2.391-0.545s0.218-1.781,1.381-2.328
				c3.146-1.494,6.75-1.969,10.289-1.276c1.316,0.263,1.85,1.642,1.244,2.864c-0.608,1.231-1.715,1.871-2.569,1.558
				C159.688,283.384,156.896,283.236,154.181,284.021z"/>
			<path fill="#232323" d="M155.679,289.652c-0.854,0.533-1.922,0.67-2.45,0.141c-0.528-0.525-0.282-1.773,0.68-2.621
				c2.611-2.302,5.94-3.761,9.532-4.078c1.338-0.111,2.233,1.065,1.991,2.41c-0.246,1.348-1.131,2.271-2.042,2.206
				C160.792,287.512,158.072,288.146,155.679,289.652z"/>
			<path fill="#232323" d="M159.827,293.918c-0.515,0.861-1.404,1.473-2.117,1.239c-0.708-0.229-1.058-1.448-0.586-2.644
				c1.273-3.24,3.575-6.053,6.629-7.968c1.138-0.713,2.471-0.071,2.865,1.237c0.401,1.311,0.034,2.537-0.809,2.893
				C163.404,289.686,161.273,291.488,159.827,293.918z"/>
		</g>
	</g>
</g>
<path fill="#444444" d="M228.403,209.24c-1.668-15.608-8.146-34.655-20.477-41.533c-5.286-2.947-11.438-5.081-19.917-6.513
	c-2.014,0.333-3.889,0.708-5.662,1.123c-0.308,0.072-0.606,0.147-0.906,0.223c-0.526,0.13-1.045,0.263-1.551,0.401
	c-0.321,0.087-0.639,0.175-0.952,0.266c-0.51,0.146-1.008,0.299-1.499,0.455c-0.256,0.081-0.519,0.159-0.771,0.243
	c-0.707,0.234-1.396,0.477-2.068,0.729c-0.197,0.074-0.386,0.153-0.58,0.229c-0.505,0.196-1.003,0.396-1.489,0.604
	c-0.228,0.098-0.453,0.196-0.677,0.297c-0.464,0.205-0.92,0.417-1.369,0.634c-0.192,0.092-0.386,0.183-0.575,0.277
	c-0.625,0.312-1.239,0.628-1.839,0.96c-13.228,7.315-19.803,28.6-20.925,44.704c-0.099,2.341-0.146,4.586-0.14,6.697
	c0.008,5.448,0.343,9.974,0.992,12.71c0.03,0.127,0.086,0.25,0.124,0.375c3.289,14.98,19.835,26.396,39.787,26.432
	c22.343,0.043,40.481-14.195,40.514-31.802c0-0.162-0.012-0.321-0.016-0.483C228.759,221.725,228.769,215.73,228.403,209.24z"/>
<path fill="#FFFFFF" d="M217.823,165.569c-5.107-5.834-11.743-8.704-24.819-9.276c-0.205-0.01-0.418-0.016-0.628-0.023
	c-0.657-0.025-1.327-0.047-2.019-0.062c-0.684-0.014-1.381-0.023-2.099-0.026c-0.083,0-0.157-0.004-0.241-0.004h-0.016
	c-0.025,0-0.049,0-0.076,0c-0.015,0-0.028,0-0.043,0h-0.011c-0.047,0-0.092,0.002-0.141,0.002c-0.756,0-1.493,0.008-2.213,0.021
	c-0.823,0.012-1.616,0.036-2.392,0.065c-0.075,0.003-0.154,0.004-0.229,0.008c-13.088,0.522-19.737,3.369-24.865,9.186
	c-6.785,7.695-10.245,29.729-10.96,46.878c1.122-16.104,7.697-37.389,20.924-44.704c5.294-2.928,11.455-5.04,19.938-6.438
	c8.48,1.432,14.629,3.564,19.916,6.513c13.2,7.363,19.695,28.673,20.759,44.779C227.957,195.336,224.578,173.289,217.823,165.569z"
	/>
<path fill="#232323" d="M162.699,171.863c2.252-2.74,6.102-3.558,9.148-1.146c3.033,2.39,3.584,8.204,0.466,12.052
	c-8.854,10.94-21.847,16.313-35.844,14.812c-4.921-0.523-8.643-5.029-8.18-8.858c0.458-3.861,3.761-6,7.291-5.652
	C146.167,184.203,156,180.143,162.699,171.863z"/>
<path fill="#232323" d="M123.016,187.868c-1.02-0.075-1.977-0.603-2.091-1.354c-0.115-0.75,0.831-1.622,2.131-1.741
	c3.52-0.324,7.128,0.482,10.261,2.38c1.166,0.708,1.192,2.212,0.185,3.168c-1.008,0.959-2.289,1.187-2.998,0.584
	C128.493,189.182,125.883,188.069,123.016,187.868z"/>
<path fill="#232323" d="M123.854,193.855c-0.938,0.396-2.034,0.361-2.476-0.254c-0.444-0.612,0-1.82,1.103-2.519
	c2.992-1.893,6.565-2.818,10.221-2.553c1.358,0.097,2.065,1.422,1.604,2.733c-0.458,1.314-1.498,2.098-2.399,1.883
	C129.332,192.533,126.501,192.732,123.854,193.855z"/>
<path fill="#232323" d="M213.138,171.863c-2.253-2.74-6.103-3.558-9.149-1.146c-3.033,2.39-3.583,8.204-0.465,12.052
	c8.853,10.94,21.848,16.313,35.845,14.812c4.921-0.523,8.643-5.029,8.18-8.858c-0.458-3.861-3.761-6-7.291-5.652
	C229.669,184.203,219.838,180.143,213.138,171.863z"/>
<path fill="#232323" d="M252.017,192.115c1.012-0.174,2.067,0.107,2.363,0.81c0.291,0.693-0.415,1.778-1.646,2.2
	c-3.338,1.172-7.029,1.268-10.531,0.186c-1.305-0.406-1.696-1.855-0.951-3.027c0.748-1.18,1.936-1.707,2.766-1.295
	C246.385,192.169,249.188,192.617,252.017,192.115z"/>
<path fill="#232323" d="M251.114,186.266c0.919-0.447,2.012-0.473,2.486,0.123c0.479,0.589,0.098,1.817-0.968,2.574
	c-2.881,2.048-6.407,3.162-10.067,3.096c-1.364-0.027-2.144-1.314-1.752-2.647c0.392-1.335,1.385-2.175,2.299-2.011
	C245.717,187.88,248.533,187.531,251.114,186.266z"/>
<path fill="#FFFFFF" d="M187.772,104.653c-7.222-0.014-15.646-2.861-20.418-4.079c-5.595-1.425-8.251-1.472-12.379-1.479
	c-12.493-0.023-16.344,6.521-17.399,9.192c8.243-25.309,34.312-28.814,49.713-28.787l1.27,0.003
	c15.398,0.028,41.456,3.629,49.607,28.971c-1.043-2.676-4.873-9.234-17.366-9.26c-4.126-0.008-6.785,0.03-12.384,1.436
	c-4.781,1.2-13.213,4.018-20.435,4.004H187.772z"/>
<path fill="#444444" d="M238.122,108.496l0.043-0.021c-1.043-2.676-4.873-9.234-17.366-9.26c-4.126-0.008-6.786,0.03-12.385,1.436
	c-4.779,1.2-13.211,4.018-20.435,4.004h-0.207c-7.222-0.014-15.646-2.861-20.418-4.079c-5.595-1.425-8.251-1.472-12.379-1.479
	c-12.493-0.024-16.344,6.521-17.399,9.191l0.043,0.022c-2.647,2.527-4.416,9.18-4.196,16.955c0.274,9.857,3.633,17.767,7.5,17.66
	c0.073-0.003,0.143-0.025,0.214-0.033c8.953,18.09,33.567,26.516,46.487,26.54c12.919,0.022,37.744-8.312,46.829-26.372
	c0.081,0.009,0.159,0.037,0.241,0.039c3.861,0.118,7.252-7.777,7.562-17.634C242.503,117.69,240.761,111.035,238.122,108.496z"/>
<path fill="#7F7F7F" d="M187.725,156.375c-6.528-0.012-20.381-6.086-20.354-19.368c0.024-13.279,15.316-14.306,20.464-14.296
	c5.149,0.009,20.454,1.092,20.428,14.37C208.238,150.364,194.257,156.388,187.725,156.375z"/>
<path fill="#232323" d="M188.141,126.196c2.838,0.006,7.027,2.975,7.517,6.431c0.485,3.456-7.721,3.318-7.721,3.318h-0.235
	c0,0-8.207,0.108-7.708-3.348c0.5-3.452,4.7-6.406,7.54-6.4H188.141z"/>
<g>
	<circle fill="#232323" cx="166.916" cy="116.091" r="2.508"/>
	<path fill="#232323" d="M211.303,116.172c-0.003,1.389-1.127,2.506-2.514,2.505c-1.382-0.003-2.504-1.127-2.504-2.513
		c0.004-1.387,1.129-2.508,2.512-2.505C210.186,113.662,211.308,114.787,211.303,116.172z"/>
</g>
<path fill="#232323" d="M232.794,114.127c3.184,0.124,5.758,6.131,6.73,14.611c0.113-1.065,0.194-2.174,0.224-3.322
	c0.208-7.749-1.671-14.107-4.188-14.206c-1.074-0.041-2.086,1.065-2.916,2.935C232.692,114.145,232.743,114.126,232.794,114.127z"/>
<path fill="#232323" d="M142.926,113.962c-3.184,0.113-5.783,6.11-6.786,14.587c-0.11-1.065-0.186-2.176-0.212-3.325
	c-0.177-7.748,1.725-14.102,4.243-14.189c1.069-0.036,2.082,1.074,2.905,2.946C143.025,113.981,142.978,113.962,142.926,113.962z"/>
<path fill="none" stroke="#7F7F7F" stroke-width="1.9744" stroke-linecap="round" stroke-miterlimit="10" d="M162.141,108.685
	c0.649-0.602,1.405-1.063,2.219-1.37c0.814-0.308,1.686-0.458,2.567-0.435c0.884,0.021,1.776,0.218,2.633,0.604
	c0.856,0.387,1.593,0.931,2.19,1.581"/>
<path fill="none" stroke="#7F7F7F" stroke-width="1.9744" stroke-linecap="round" stroke-miterlimit="10" d="M204.121,108.685
	c0.648-0.602,1.404-1.063,2.217-1.37c0.814-0.308,1.688-0.458,2.569-0.435c0.882,0.021,1.776,0.218,2.633,0.604
	c0.855,0.388,1.592,0.931,2.191,1.581"/>
<path fill="none" stroke="#232323" stroke-width="1.7887" stroke-linecap="round" stroke-miterlimit="10" d="M177.642,143.048
	c0.546,1.301,1.343,2.476,2.323,3.462c0.981,0.987,2.156,1.782,3.455,2.337c1.296,0.553,2.728,0.859,4.23,0.861
	c1.501,0.003,2.931-0.297,4.236-0.847c1.304-0.549,2.475-1.341,3.461-2.324c0.985-0.981,1.785-2.154,2.338-3.455"/>
<g>
	<path fill="#FFFFFF" d="M120.851,141.757l-51.078,4.957c-1.568,0.152-2.715,1.547-2.563,3.113l6.641,69.35
		c0.152,1.566,1.546,2.714,3.114,2.562l51.078-4.956c1.566-0.152,2.714-1.546,2.562-3.112l-6.641-69.351
		C123.812,142.753,122.417,141.605,120.851,141.757z"/>
</g>
<g>
	<g>
		<path fill="#D0DAE3" d="M112.981,150.612l-34.096,3.366c-0.698,0.068-1.209,0.689-1.142,1.387l0.139,1.692
			c0.067,0.697,0.688,1.208,1.386,1.141l34.096-3.366c0.697-0.068,1.208-0.688,1.141-1.386l-0.139-1.692
			C114.3,151.055,113.679,150.544,112.981,150.612z"/>
	</g>
	<g>
		<path fill="#D0DAE3" d="M114.001,160.227l-34.096,3.366c-0.698,0.067-1.209,0.688-1.141,1.386l0.139,1.693
			c0.068,0.697,0.688,1.208,1.386,1.141l34.096-3.366c0.698-0.068,1.208-0.688,1.141-1.386l-0.139-1.693
			C115.32,160.67,114.699,160.159,114.001,160.227z"/>
	</g>
	<g>
		<path fill="#D0DAE3" d="M115.021,169.508l-34.096,3.366c-0.698,0.068-1.209,0.688-1.142,1.386l0.139,1.692
			c0.067,0.698,0.688,1.208,1.386,1.141l34.096-3.366c0.697-0.068,1.208-0.688,1.141-1.386l-0.139-1.692
			C116.339,169.951,115.719,169.44,115.021,169.508z"/>
	</g>
</g>
<path fill="#232323" d="M125.172,182.354c-0.961-0.358-1.733-1.131-1.637-1.888c0.097-0.745,1.251-1.328,2.53-1.074
	c3.475,0.663,6.715,2.435,9.2,5.127c0.924,1.006,0.533,2.457-0.699,3.096c-1.239,0.645-2.531,0.504-3.042-0.269
	C130.069,185.136,127.871,183.341,125.172,182.354z"/>
<g>
	<g>
		<g>
			<g>
				<path fill="#FFCF15" d="M253.623,188.165c-1.55-0.527-3.236,0.303-3.765,1.854l-9.558,28.094
					c-0.527,1.55,0.304,3.237,1.854,3.765l33.231,11.306l11.469-33.713L253.623,188.165z"/>
			</g>
			<g>
				<g>
					
						<rect x="269.711" y="211.747" transform="matrix(0.3221 -0.9467 0.9467 0.3221 -11.9426 420.3285)" fill="#FFFFFF" width="35.61" height="13.511"/>
				</g>
				<g>
					<path fill="#FFCF15" d="M296.486,237.229l9.559-28.094c0.527-1.551-0.303-3.237-1.853-3.766l-4.546-1.546l-11.469,33.712
						l4.544,1.546C294.273,239.609,295.959,238.778,296.486,237.229z"/>
				</g>
			</g>
		</g>
		
			<rect x="245.67" y="201.513" transform="matrix(0.9467 0.3221 -0.3221 0.9467 82.3668 -73.3224)" fill="none" width="34.198" height="21.49"/>
		
			<text transform="matrix(0.9467 0.3221 -0.3221 0.9467 254.2959 215.8828)" fill="#FFFFFF" font-family="'DMSans-Bold'" font-size="22.1898">₣</text>
	</g>
	<g>
		<g>
			<g>
				<g>
					<path fill="#33B6E4" d="M293.121,130.83l-50.63,17.025c-1.552,0.522-2.388,2.206-1.866,3.759l9.459,28.127
						c0.521,1.552,2.206,2.388,3.759,1.866l50.627-17.025c1.554-0.522,2.389-2.205,1.867-3.758l-9.458-28.127
						C296.356,131.145,294.673,130.308,293.121,130.83z"/>
				</g>
				<path fill="#FFFFFF" d="M253.83,176.915l-1.892-5.625c3.107-1.045,6.472,0.626,7.516,3.734L253.83,176.915z"/>
				<path fill="#FFFFFF" d="M247.209,157.227l-1.891-5.626l5.624-1.891C251.987,152.817,250.316,156.182,247.209,157.227z"/>
				<path fill="#FFFFFF" d="M301.646,160.836l-5.627,1.893c-1.045-3.108,0.626-6.472,3.735-7.518L301.646,160.836z"/>
				<path fill="#FFFFFF" d="M295.026,141.147c-3.11,1.045-6.475-0.626-7.521-3.733l5.629-1.893L295.026,141.147z"/>
			</g>
		</g>
		<circle fill="#FFFFFF" cx="272.908" cy="156.218" r="10.521"/>
		
			<rect x="252.264" y="149.726" transform="matrix(0.9478 -0.3187 0.3187 0.9478 -35.5909 95.3094)" fill="none" width="42.31" height="13.351"/>
		
			<text transform="matrix(0.9478 -0.3187 0.3187 0.9478 270.0508 162.7485)" fill="#33B6E4" font-family="'DMSans-Bold'" font-size="15.2555">Ұ</text>
	</g>
	<g>
		<g>
			<g>
				<path fill="#84CD29" d="M305.783,164.316l-53.413-0.52c-1.637-0.016-2.979,1.301-2.996,2.939l-0.288,29.673
					c-0.016,1.638,1.302,2.979,2.939,2.996l53.41,0.519c1.639,0.017,2.98-1.3,2.996-2.938l0.289-29.674
					C308.736,165.674,307.42,164.332,305.783,164.316z"/>
			</g>
			<path fill="#FFFFFF" d="M253.552,194.968l0.058-5.934c3.278,0.032,5.908,2.714,5.876,5.991L253.552,194.968z"/>
			<path fill="#FFFFFF" d="M253.754,174.197l0.058-5.935l5.934,0.058C259.714,171.599,257.031,174.229,253.754,174.197z"/>
			<path fill="#FFFFFF" d="M303.997,195.459l-5.937-0.058c0.032-3.278,2.714-5.909,5.994-5.877L303.997,195.459z"/>
			<path fill="#FFFFFF" d="M304.199,174.688c-3.28-0.032-5.911-2.714-5.879-5.993l5.938,0.058L304.199,174.688z"/>
			<path fill="#FFFFFF" d="M278.801,192.246c-11.627-0.113-21.009-4.855-20.952-10.59c0.056-5.735,9.527-10.294,21.154-10.181
				c11.631,0.113,21.013,4.855,20.957,10.591C299.905,187.802,290.429,192.359,278.801,192.246z"/>
		</g>
		
			<rect x="257.63" y="175.338" transform="matrix(1 0.0097 -0.0097 1 1.7818 -2.7004)" fill="none" width="42.311" height="13.351"/>
		
			<text transform="matrix(0.9999 0.0097 -0.0097 0.9999 274.6113 186.9136)" fill="#84CD29" font-family="'DMSans-Bold'" font-size="15.2555">$</text>
	</g>
</g>
<path fill="#232323" d="M251.418,183.589c0.987-0.244,1.846-0.93,1.829-1.687c-0.013-0.756-1.09-1.458-2.394-1.354
	c-3.529,0.277-6.943,1.677-9.713,4.082c-1.028,0.891-0.8,2.375,0.354,3.149c1.156,0.779,2.457,0.781,3.051,0.07
	C246.24,185.813,248.625,184.276,251.418,183.589z"/>
<g>
	<path fill="#FFFFFF" d="M114.188,194.313c0.606-1.236,0.512-2.725-0.244-3.886c-0.939-1.438-0.858-1.193-0.966-2.91
		c-0.088-1.382-0.903-2.63-2.128-3.259c-1.527-0.774-1.331-0.621-2.261-2.04c-0.76-1.167-2.085-1.844-3.458-1.769
		c-1.654,0.092-1.442,0.148-2.938-0.631c-1.238-0.631-2.721-0.548-3.871,0.214c-1.39,0.932-1.171,0.852-2.831,0.939
		c-1.368,0.07-2.614,0.897-3.228,2.146c-0.745,1.524-0.584,1.334-1.977,2.26c-1.147,0.761-1.805,2.096-1.717,3.485
		c0.105,1.703,0.166,1.453-0.592,2.988c-0.606,1.236-0.512,2.725,0.244,3.886c0.939,1.436,0.857,1.191,0.966,2.91
		c0.088,1.382,0.903,2.63,2.128,3.259c1.528,0.774,1.332,0.621,2.261,2.04c0.296,0.454,0.695,0.808,1.132,1.098l-0.569,8.675
		c-0.052,0.781,0.705,1.359,1.439,1.115c0.036-0.012-0.187,0.071,3.428-1.284l3.188,1.709c0.283,0.152,0.592,0.165,0.862,0.076
		c0.402-0.134,0.72-0.495,0.752-0.971l0.626-9.536c0.282-0.215,0.628-0.33,0.984-0.326l6.204,7.269
		c0.31,0.362,0.781,0.461,1.183,0.327c0.271-0.09,0.51-0.284,0.646-0.575l1.533-3.276c3.708-1.075,3.48-1.009,3.516-1.021
		c0.735-0.244,0.996-1.16,0.487-1.755l-5.644-6.612c0.177-0.493,0.285-1.016,0.251-1.556
		C113.49,195.599,113.43,195.848,114.188,194.313L114.188,194.313z"/>
	<path fill="#CB1C5C" d="M101.73,212.519c-1.987-1.065-1.457-0.781-2.562-1.374c-1.176,0.441-0.607,0.228-2.727,1.022l0.424-6.466
		c0.057,0.001,0.112,0.018,0.17,0.015c1.551-0.091,1.432-0.143,2.401,0.354c0.866,0.445,1.821,0.521,2.698,0.297L101.73,212.519z"/>
	<path fill="#CB1C5C" d="M116.214,205.603c-2.17,0.63-1.591,0.462-2.796,0.812c-0.531,1.136-0.277,0.591-1.232,2.633l-4.01-4.698
		c0.84-0.344,1.562-0.968,1.992-1.843c0.492-1.003,0.419-0.876,1.713-1.719c0.048-0.032,0.082-0.078,0.128-0.112L116.214,205.603
		L116.214,205.603z"/>
	<path fill="#CB1C5C" d="M111.405,197.44c0.039,0.607-0.244,1.189-0.741,1.519c-1.403,0.918-1.709,1.034-2.466,2.581
		c-0.346,0.7-1.107,1.062-1.862,0.869c-1.428-0.353-2.954,0.153-3.886,1.292c-0.489,0.598-1.317,0.771-2.014,0.414
		c-1.514-0.776-1.828-0.691-3.52-0.593c-0.595,0.033-1.17-0.265-1.502-0.775c-1.187-1.82-1.143-1.803-3.098-2.794
		c-0.54-0.277-0.899-0.83-0.938-1.445c-0.128-2.16-0.125-2.162-1.317-3.97c-0.336-0.517-0.378-1.175-0.112-1.719
		c0.969-1.963,0.952-1.911,0.812-4.095c-0.039-0.607,0.245-1.189,0.741-1.518c1.823-1.213,1.764-1.149,2.733-3.121
		c0.224-0.458,0.706-0.882,1.377-0.92c2.165-0.113,2.125-0.099,3.925-1.303c0.484-0.325,1.123-0.359,1.655-0.089
		c1.946,1.007,1.91,0.988,4.06,0.869c0.592-0.033,1.168,0.265,1.5,0.775c1.187,1.82,1.143,1.803,3.099,2.794
		c0.539,0.277,0.899,0.831,0.938,1.446c0.126,2.164,0.129,2.165,1.317,3.969c0.336,0.517,0.379,1.176,0.113,1.72
		C111.249,195.309,111.265,195.257,111.405,197.44L111.405,197.44z"/>
	<path fill="#FFFFFF" d="M98.938,186.624c-3.447,1.144-5.32,4.88-4.176,8.326c1.145,3.447,4.88,5.32,8.327,4.177
		c3.447-1.145,5.32-4.88,4.176-8.327C106.121,187.353,102.386,185.479,98.938,186.624z M102.396,197.043
		c-2.298,0.763-4.788-0.486-5.551-2.784s0.486-4.788,2.784-5.552c2.298-0.762,4.788,0.486,5.551,2.784
		C105.944,193.79,104.694,196.279,102.396,197.043z"/>
</g>
<g>
	<g>
		<path fill="#84CD29" d="M191.353,86.553c2.231-8.851,10.717-4.042,10.717-4.042S200.204,88.787,191.353,86.553z"/>
	</g>
	<g>
		<path fill="#84CD29" d="M212.863,84.648l-0.004-0.001c-0.103,0.263-2.62,6.495-9.608,4.733c0,0,0.153-6.317,6.991-5.429
			c-2.56-0.939-6.203-3.05-7.182-7.622C216.426,75.171,212.863,84.648,212.863,84.648z"/>
	</g>
	<g>
		<path fill="#84CD29" d="M223.389,89.758c-0.081,0.114-4.231,5.905-11.188,2.028c0,0,1.854-6.321,8.426-3.951
			c-2.045-1.796-4.414-4.85-4.009-9.171C229.661,81.547,223.497,89.619,223.389,89.758z"/>
	</g>
	<g>
		<path fill="#84CD29" d="M219.598,96.861c0,0,3.988-5.362,9.386-0.687c-1.09-2.655-1.985-6.807,0.548-10.758
			c10.744,8.954,0.943,13.558,0.943,13.558l-0.002-0.002C228.662,99.909,223.771,101.734,219.598,96.861z"/>
	</g>
</g>
<g>
	<g>
		<path fill="#84CD29" d="M173.931,82.512c0,0,8.486-4.809,10.717,4.042C175.796,88.787,173.931,82.512,173.931,82.512z"/>
	</g>
	<g>
		<path fill="#84CD29" d="M172.939,76.33c-0.979,4.572-4.622,6.683-7.181,7.622c6.837-0.889,6.991,5.429,6.991,5.429
			c-6.988,1.762-9.506-4.47-9.608-4.733l-0.004,0.001C163.137,84.648,159.574,75.171,172.939,76.33z"/>
	</g>
	<g>
		<path fill="#84CD29" d="M159.382,78.665c0.405,4.321-1.964,7.375-4.009,9.171c6.572-2.37,8.426,3.951,8.426,3.951
			c-6.956,3.877-11.106-1.915-11.188-2.028C152.503,89.619,146.339,81.547,159.382,78.665z"/>
	</g>
	<g>
		<path fill="#84CD29" d="M145.527,98.972l-0.002,0.002c0,0-9.801-4.604,0.944-13.558c2.533,3.951,1.637,8.104,0.547,10.758
			c5.397-4.675,9.385,0.687,9.385,0.687C152.229,101.734,147.337,99.909,145.527,98.972z"/>
	</g>
</g>
</svg>
