<?xml version="1.0" encoding="utf-8"?>
<!-- Generator: Adobe Illustrator 16.0.4, SVG Export Plug-In . SVG Version: 6.00 Build 0)  -->
<!DOCTYPE svg PUBLIC "-//W3C//DTD SVG 1.1//EN" "http://www.w3.org/Graphics/SVG/1.1/DTD/svg11.dtd">
<svg version="1.1" id="Layer_1" xmlns="http://www.w3.org/2000/svg" xmlns:xlink="http://www.w3.org/1999/xlink" x="0px" y="0px"
	 width="300px" height="225px" viewBox="37.5 75 300 225" enable-background="new 37.5 75 300 225" xml:space="preserve">
<ellipse opacity="0.2" fill="#232323" enable-background="new    " cx="187.863" cy="269.982" rx="44.546" ry="7.19"/>
<g>
	<g>
		<path fill="#232323" d="M189.292,224.128c0.16,1.282,4.332,37.485,10.488,42.575c6.158,5.082,9.397,3.381,10.655,2.034
			c1.315-1.408,2.975-3.945-0.089-6.814c-2.465-2.309-4.183-12.509-1.688-28.419L189.292,224.128z"/>
		<g>
			<path fill="#232323" d="M214.789,264.803c0.772,0.221,1.624,0.092,1.917-0.43c0.287-0.521-0.171-1.426-1.099-1.866
				c-2.514-1.202-5.396-1.594-8.229-1.051c-1.054,0.206-1.483,1.309-1.005,2.287c0.484,0.987,1.369,1.503,2.052,1.253
				C210.386,264.274,212.618,264.165,214.789,264.803z"/>
			<path fill="#232323" d="M213.574,269.303c0.683,0.428,1.538,0.541,1.96,0.119c0.424-0.42,0.23-1.418-0.538-2.099
				c-2.081-1.851-4.739-3.026-7.614-3.291c-1.068-0.093-1.787,0.846-1.597,1.922c0.189,1.08,0.896,1.82,1.625,1.771
				C209.491,267.573,211.664,268.089,213.574,269.303z"/>
			<path fill="#232323" d="M210.243,272.703c0.409,0.69,1.118,1.181,1.688,0.997c0.567-0.181,0.851-1.154,0.478-2.113
				c-1.01-2.595-2.844-4.853-5.281-6.394c-0.908-0.575-1.977-0.065-2.297,0.981c-0.322,1.048-0.033,2.031,0.641,2.317
				C207.394,269.305,209.095,270.754,210.243,272.703z"/>
		</g>
	</g>
	<g>
		<path fill="#232323" d="M185.521,223.792c-0.163,1.278-4.469,37.47-10.646,42.532c-6.176,5.062-9.411,3.348-10.661,1.997
			c-1.307-1.415-2.96-3.956,0.114-6.814c2.473-2.299,4.229-12.494,1.794-28.415L185.521,223.792z"/>
		<g>
			<path fill="#232323" d="M160.937,264.79c-0.772,0.218-1.625,0.085-1.913-0.436c-0.288-0.522,0.174-1.425,1.105-1.862
				c2.517-1.195,5.4-1.575,8.231-1.021c1.053,0.21,1.48,1.313,0.996,2.291c-0.486,0.984-1.373,1.497-2.056,1.246
				C165.342,264.28,163.108,264.162,160.937,264.79z"/>
			<path fill="#232323" d="M162.135,269.295c-0.683,0.427-1.538,0.536-1.96,0.112c-0.422-0.42-0.226-1.419,0.544-2.097
				c2.089-1.842,4.752-3.009,7.625-3.263c1.07-0.089,1.787,0.853,1.593,1.929c-0.197,1.078-0.905,1.816-1.634,1.765
				C166.225,267.582,164.049,268.09,162.135,269.295z"/>
			<path fill="#232323" d="M165.453,272.707c-0.412,0.689-1.123,1.179-1.693,0.992c-0.566-0.184-0.847-1.159-0.469-2.115
				c1.018-2.592,2.86-4.843,5.303-6.375c0.911-0.57,1.977-0.057,2.292,0.99c0.321,1.048,0.027,2.028-0.647,2.313
				C168.314,269.321,166.61,270.764,165.453,272.707z"/>
		</g>
	</g>
</g>
<path fill="#444444" d="M220.313,204.965c-1.334-12.486-6.517-27.724-16.381-33.226c-4.229-2.358-9.15-4.065-15.934-5.21
	c-1.611,0.266-3.111,0.566-4.529,0.898c-0.247,0.058-0.485,0.117-0.725,0.178c-0.42,0.104-0.836,0.21-1.24,0.321
	c-0.257,0.069-0.512,0.14-0.762,0.213c-0.408,0.117-0.807,0.239-1.199,0.364c-0.205,0.064-0.416,0.127-0.617,0.194
	c-0.565,0.187-1.117,0.381-1.654,0.583c-0.158,0.059-0.309,0.123-0.464,0.184c-0.404,0.156-0.802,0.316-1.191,0.482
	c-0.183,0.079-0.363,0.157-0.542,0.238c-0.371,0.164-0.736,0.333-1.095,0.507c-0.153,0.074-0.309,0.146-0.46,0.222
	c-0.5,0.25-0.991,0.502-1.471,0.768c-10.583,5.853-15.842,22.88-16.74,35.764c-0.08,1.872-0.117,3.669-0.112,5.357
	c0.007,4.358,0.274,7.979,0.794,10.168c0.023,0.102,0.068,0.2,0.099,0.3c2.631,11.984,15.868,21.117,31.83,21.146
	c17.874,0.034,32.385-11.356,32.411-25.441c0-0.13-0.01-0.257-0.013-0.387C220.599,214.953,220.607,210.157,220.313,204.965z"/>
<path fill="#FFFFFF" d="M211.851,170.028c-4.086-4.667-9.395-6.963-19.855-7.421c-0.164-0.008-0.335-0.013-0.503-0.019
	c-0.525-0.02-1.062-0.037-1.614-0.049c-0.548-0.011-1.105-0.019-1.68-0.021c-0.066,0-0.125-0.003-0.192-0.003h-0.014
	c-0.02,0-0.039,0-0.061,0c-0.012,0-0.022,0-0.035,0h-0.008c-0.038,0-0.074,0.001-0.113,0.001c-0.604,0-1.194,0.006-1.77,0.017
	c-0.659,0.009-1.293,0.028-1.914,0.052c-0.061,0.002-0.123,0.003-0.184,0.006c-10.47,0.417-15.789,2.695-19.892,7.349
	c-5.428,6.156-8.196,23.784-8.768,37.502c0.898-12.883,6.158-29.911,16.74-35.763c4.235-2.342,9.164-4.032,15.95-5.15
	c6.784,1.146,11.704,2.851,15.933,5.21c10.56,5.891,15.756,22.938,16.606,35.823C219.957,193.842,217.254,176.204,211.851,170.028z"
	/>
<path fill="#232323" d="M167.751,175.063c1.802-2.192,4.881-2.846,7.318-0.917c2.426,1.912,2.867,6.563,0.373,9.642
	c-7.083,8.752-17.478,13.051-28.675,11.85c-3.937-0.418-6.914-4.023-6.544-7.087c0.367-3.088,3.009-4.799,5.833-4.521
	C154.525,184.936,162.392,181.688,167.751,175.063z"/>
<path fill="#232323" d="M136.004,187.868c-0.816-0.06-1.582-0.482-1.673-1.083c-0.092-0.6,0.665-1.297,1.705-1.393
	c2.816-0.259,5.702,0.385,8.208,1.904c0.933,0.566,0.954,1.77,0.148,2.534c-0.806,0.768-1.831,0.95-2.398,0.468
	C140.386,188.918,138.298,188.027,136.004,187.868z"/>
<path fill="#232323" d="M136.675,192.657c-0.75,0.316-1.627,0.288-1.981-0.203c-0.355-0.489,0-1.456,0.882-2.016
	c2.394-1.514,5.252-2.255,8.177-2.042c1.086,0.077,1.652,1.138,1.283,2.186c-0.367,1.052-1.199,1.679-1.919,1.507
	C141.057,191.6,138.792,191.759,136.675,192.657z"/>
<path fill="#232323" d="M208.103,175.063c-1.803-2.192-4.883-2.846-7.32-0.917c-2.426,1.912-2.865,6.563-0.372,9.642
	c7.083,8.752,17.479,13.051,28.677,11.85c3.937-0.418,6.914-4.023,6.544-7.087c-0.366-3.088-3.009-4.799-5.833-4.521
	C221.327,184.936,213.462,181.688,208.103,175.063z"/>
<path fill="#232323" d="M239.206,191.266c0.809-0.14,1.652,0.086,1.89,0.647c0.232,0.555-0.332,1.423-1.316,1.76
	c-2.671,0.938-5.624,1.015-8.425,0.148c-1.044-0.325-1.357-1.483-0.762-2.421c0.599-0.944,1.549-1.365,2.213-1.036
	C234.699,191.309,236.941,191.667,239.206,191.266z"/>
<path fill="#232323" d="M238.482,186.586c0.735-0.358,1.61-0.378,1.989,0.099c0.383,0.471,0.078,1.453-0.774,2.059
	c-2.305,1.64-5.126,2.53-8.054,2.477c-1.091-0.021-1.715-1.051-1.402-2.117c0.314-1.067,1.109-1.74,1.84-1.609
	C234.165,187.877,236.418,187.598,238.482,186.586z"/>
<path fill="#FFFFFF" d="M187.809,121.295c-5.778-0.011-12.517-2.289-16.334-3.263c-4.476-1.141-6.601-1.178-9.903-1.184
	c-9.995-0.018-13.076,5.217-13.919,7.354c6.594-20.247,27.45-23.051,39.771-23.029l1.016,0.002
	c12.318,0.023,33.166,2.903,39.686,23.177c-0.834-2.141-3.898-7.387-13.893-7.408c-3.301-0.006-5.428,0.024-9.907,1.149
	c-3.825,0.96-10.57,3.214-16.348,3.203L187.809,121.295L187.809,121.295z"/>
<path fill="#444444" d="M228.089,124.37l0.035-0.017c-0.835-2.141-3.898-7.387-13.894-7.408c-3.301-0.006-5.428,0.024-9.907,1.149
	c-3.824,0.96-10.569,3.214-16.349,3.203h-0.166c-5.778-0.011-12.517-2.289-16.334-3.263c-4.476-1.14-6.601-1.178-9.903-1.183
	c-9.995-0.02-13.076,5.217-13.919,7.353l0.035,0.018c-2.118,2.021-3.533,7.344-3.357,13.564c0.219,7.886,2.906,14.214,6,14.128
	c0.059-0.002,0.114-0.02,0.171-0.026c7.162,14.472,26.854,21.213,37.189,21.232c10.335,0.018,30.195-6.649,37.463-21.098
	c0.064,0.007,0.126,0.03,0.192,0.031c3.089,0.094,5.801-6.221,6.05-14.107C231.594,131.725,230.201,126.401,228.089,124.37z"/>
<path fill="#7F7F7F" d="M187.771,162.673c-5.223-0.01-16.305-4.869-16.283-15.494c0.02-10.623,12.253-11.445,16.371-11.437
	c4.12,0.008,16.363,0.874,16.343,11.496C204.183,157.864,192.997,162.684,187.771,162.673z"/>
<path fill="#232323" d="M188.104,138.53c2.27,0.005,5.621,2.38,6.014,5.145c0.388,2.765-6.177,2.654-6.177,2.654h-0.188
	c0,0-6.566,0.086-6.167-2.678c0.4-2.762,3.76-5.125,6.032-5.121L188.104,138.53L188.104,138.53z"/>
<g>
	<circle fill="#232323" cx="171.125" cy="130.446" r="2.007"/>
	<path fill="#232323" d="M206.634,130.511c-0.002,1.111-0.901,2.004-2.011,2.004c-1.105-0.002-2.003-0.902-2.003-2.01
		c0.003-1.11,0.902-2.006,2.009-2.004C205.74,128.503,206.639,129.403,206.634,130.511z"/>
</g>
<path fill="#232323" d="M223.827,128.875c2.547,0.1,4.605,4.905,5.383,11.689c0.091-0.852,0.156-1.739,0.18-2.658
	c0.167-6.199-1.336-11.285-3.35-11.365c-0.859-0.033-1.669,0.852-2.333,2.348C223.745,128.889,223.786,128.874,223.827,128.875z"/>
<path fill="#232323" d="M151.932,128.743c-2.547,0.091-4.626,4.888-5.428,11.669c-0.088-0.852-0.149-1.741-0.17-2.66
	c-0.142-6.198,1.38-11.282,3.395-11.351c0.855-0.029,1.666,0.859,2.324,2.356C152.012,128.758,151.974,128.743,151.932,128.743z"/>
<path fill="none" stroke="#7F7F7F" stroke-width="1.5795" stroke-linecap="round" stroke-miterlimit="10" d="M167.305,124.521
	c0.519-0.481,1.124-0.85,1.775-1.096c0.651-0.247,1.349-0.367,2.053-0.348c0.708,0.017,1.421,0.174,2.107,0.483
	c0.685,0.31,1.274,0.745,1.752,1.265"/>
<path fill="none" stroke="#7F7F7F" stroke-width="1.5795" stroke-linecap="round" stroke-miterlimit="10" d="M200.889,124.521
	c0.519-0.481,1.123-0.85,1.773-1.096c0.651-0.247,1.35-0.367,2.056-0.348c0.705,0.017,1.421,0.174,2.105,0.483
	c0.684,0.311,1.273,0.745,1.753,1.265"/>
<path fill="none" stroke="#232323" stroke-width="1.431" stroke-linecap="round" stroke-miterlimit="10" d="M179.705,152.011
	c0.437,1.041,1.074,1.981,1.858,2.77c0.785,0.79,1.725,1.426,2.764,1.87c1.037,0.442,2.182,0.687,3.384,0.688
	c1.201,0.002,2.345-0.237,3.389-0.678c1.043-0.439,1.98-1.073,2.77-1.859c0.787-0.785,1.427-1.724,1.87-2.764"/>
<g>
	<path fill="#FFFFFF" d="M134.272,150.979l-40.862,3.966c-1.254,0.122-2.172,1.237-2.05,2.49l5.312,55.479
		c0.122,1.254,1.237,2.172,2.491,2.051L140.026,211c1.253-0.122,2.171-1.238,2.05-2.49l-5.313-55.481
		C136.641,151.775,135.525,150.857,134.272,150.979z"/>
</g>
<g>
	<g>
		<path fill="#D0DAE3" d="M127.977,158.062l-27.277,2.693c-0.559,0.054-0.967,0.551-0.914,1.11l0.111,1.354
			c0.054,0.558,0.551,0.966,1.109,0.913l27.276-2.693c0.558-0.054,0.966-0.55,0.913-1.109l-0.111-1.354
			C129.031,158.417,128.535,158.008,127.977,158.062z"/>
	</g>
	<g>
		<path fill="#D0DAE3" d="M128.792,165.755l-27.277,2.692c-0.558,0.054-0.967,0.551-0.913,1.109l0.111,1.354
			c0.055,0.558,0.55,0.966,1.109,0.913l27.277-2.692c0.559-0.055,0.966-0.551,0.913-1.109l-0.111-1.354
			C129.848,166.109,129.351,165.7,128.792,165.755z"/>
	</g>
	<g>
		<path fill="#D0DAE3" d="M129.608,173.179l-27.277,2.693c-0.558,0.055-0.967,0.551-0.913,1.109l0.111,1.354
			c0.053,0.558,0.55,0.966,1.109,0.912l27.276-2.692c0.558-0.054,0.966-0.55,0.913-1.109l-0.111-1.354
			C130.663,173.534,130.167,173.125,129.608,173.179z"/>
	</g>
</g>
<path fill="#232323" d="M137.729,183.456c-0.769-0.286-1.386-0.904-1.309-1.51c0.077-0.596,1-1.062,2.023-0.859
	c2.78,0.53,5.372,1.948,7.36,4.102c0.739,0.805,0.426,1.965-0.56,2.477c-0.991,0.516-2.024,0.403-2.434-0.215
	C141.646,185.682,139.889,184.246,137.729,183.456z"/>
<g>
	<g>
		<g>
			<g>
				<path fill="#FFCF15" d="M240.49,188.105c-1.24-0.422-2.589,0.242-3.013,1.483l-7.646,22.475
					c-0.421,1.24,0.243,2.589,1.484,3.012l26.584,9.045l9.175-26.971L240.49,188.105z"/>
			</g>
			<g>
				<g>
					
						<rect x="253.365" y="206.982" transform="matrix(-0.3221 0.9467 -0.9467 -0.3221 554.8708 27.4441)" fill="#FFFFFF" width="28.489" height="10.809"/>
				</g>
				<g>
					<path fill="#FFCF15" d="M274.78,227.355l7.647-22.475c0.422-1.24-0.242-2.589-1.483-3.013l-3.636-1.236l-9.176,26.97
						l3.636,1.236C273.011,229.261,274.358,228.595,274.78,227.355z"/>
				</g>
			</g>
		</g>
		
			<rect x="234.122" y="198.785" transform="matrix(-0.9467 -0.3221 0.3221 -0.9467 415.5923 483.5302)" fill="none" width="27.358" height="17.192"/>
		
			<text transform="matrix(0.9467 0.3221 -0.3221 0.9467 241.0273 210.2793)" fill="#FFFFFF" font-family="'DMSans-Bold'" font-size="17.7517">₣</text>
	</g>
	<g>
		<g>
			<g>
				<g>
					<path fill="#33B6E4" d="M272.089,142.237l-40.504,13.62c-1.242,0.417-1.91,1.765-1.493,3.007l7.567,22.502
						c0.417,1.241,1.765,1.91,3.007,1.492l40.502-13.62c1.243-0.417,1.911-1.764,1.493-3.006l-7.566-22.501
						C274.676,142.489,273.33,141.819,272.089,142.237z"/>
				</g>
				<path fill="#FFFFFF" d="M240.655,179.105l-1.514-4.5c2.486-0.836,5.178,0.501,6.014,2.987L240.655,179.105z"/>
				<path fill="#FFFFFF" d="M235.358,163.354l-1.512-4.5l4.498-1.513C239.181,159.827,237.845,162.519,235.358,163.354z"/>
				<path fill="#FFFFFF" d="M278.909,166.242l-4.502,1.515c-0.836-2.486,0.5-5.178,2.987-6.015L278.909,166.242z"/>
				<path fill="#FFFFFF" d="M273.612,150.491c-2.488,0.836-5.18-0.501-6.017-2.986l4.503-1.515L273.612,150.491z"/>
			</g>
		</g>
		<circle fill="#FFFFFF" cx="255.918" cy="162.548" r="8.417"/>
		
			<rect x="239.388" y="157.36" transform="matrix(-0.9479 0.3187 -0.3187 -0.9479 551.1124 235.2242)" fill="none" width="33.847" height="10.68"/>
		
			<text transform="matrix(0.9478 -0.3187 0.3187 0.9478 253.6328 167.772)" fill="#33B6E4" font-family="'DMSans-Bold'" font-size="12.2038">Ұ</text>
	</g>
	<g>
		<g>
			<g>
				<path fill="#84CD29" d="M282.218,169.026l-42.73-0.416c-1.31-0.013-2.383,1.041-2.396,2.351l-0.23,23.738
					c-0.013,1.311,1.042,2.383,2.352,2.397l42.729,0.415c1.311,0.013,2.383-1.04,2.396-2.352l0.231-23.738
					C284.581,170.112,283.527,169.039,282.218,169.026z"/>
			</g>
			<path fill="#FFFFFF" d="M240.433,193.547l0.047-4.746c2.623,0.025,4.727,2.171,4.701,4.793L240.433,193.547z"/>
			<path fill="#FFFFFF" d="M240.595,176.931l0.047-4.748l4.747,0.046C245.362,174.853,243.217,176.956,240.595,176.931z"/>
			<path fill="#FFFFFF" d="M280.789,193.94l-4.749-0.047c0.025-2.622,2.17-4.727,4.795-4.702L280.789,193.94z"/>
			<path fill="#FFFFFF" d="M280.951,177.323c-2.624-0.025-4.729-2.171-4.703-4.794l4.75,0.046L280.951,177.323z"/>
			<path fill="#FFFFFF" d="M260.632,191.37c-9.301-0.091-16.807-3.884-16.761-8.472c0.044-4.588,7.621-8.235,16.923-8.145
				c9.305,0.09,16.811,3.884,16.766,8.473C277.515,187.814,269.936,191.461,260.632,191.37z"/>
		</g>
		
			<rect x="243.709" y="177.846" transform="matrix(-1 -0.0097 0.0097 -1 519.4786 368.8919)" fill="none" width="33.849" height="10.681"/>
		
			<text transform="matrix(1 0.0097 -0.0097 1 257.2812 187.1045)" fill="#84CD29" font-family="'DMSans-Bold'" font-size="12.2038">$</text>
	</g>
</g>
<path fill="#232323" d="M238.726,184.444c0.789-0.195,1.477-0.744,1.464-1.35c-0.011-0.605-0.872-1.167-1.915-1.083
	c-2.823,0.222-5.555,1.342-7.771,3.266c-0.823,0.713-0.641,1.9,0.283,2.519c0.925,0.624,1.966,0.626,2.44,0.057
	C234.584,186.224,236.491,184.994,238.726,184.444z"/>
<g>
	<path fill="#FFFFFF" d="M128.942,193.023c0.485-0.988,0.41-2.18-0.195-3.109c-0.751-1.149-0.686-0.953-0.772-2.327
		c-0.07-1.106-0.722-2.104-1.703-2.607c-1.221-0.619-1.064-0.497-1.809-1.632c-0.608-0.934-1.668-1.475-2.767-1.415
		c-1.323,0.073-1.153,0.118-2.351-0.505c-0.99-0.504-2.176-0.438-3.097,0.171c-1.112,0.746-0.937,0.682-2.265,0.751
		c-1.094,0.056-2.091,0.717-2.582,1.717c-0.596,1.219-0.467,1.067-1.582,1.808c-0.918,0.609-1.444,1.677-1.374,2.788
		c0.084,1.362,0.133,1.162-0.474,2.391c-0.484,0.989-0.41,2.181,0.195,3.109c0.751,1.148,0.686,0.952,0.773,2.328
		c0.07,1.104,0.722,2.104,1.702,2.607c1.222,0.619,1.065,0.496,1.809,1.632c0.237,0.362,0.556,0.646,0.905,0.878l-0.455,6.939
		c-0.042,0.625,0.564,1.088,1.151,0.893c0.028-0.01-0.15,0.057,2.742-1.027l2.55,1.367c0.227,0.122,0.474,0.132,0.69,0.061
		c0.321-0.106,0.576-0.396,0.602-0.776l0.5-7.629c0.226-0.172,0.502-0.264,0.787-0.261l4.963,5.814
		c0.248,0.29,0.625,0.369,0.947,0.263c0.217-0.072,0.408-0.228,0.517-0.461l1.226-2.62c2.966-0.86,2.784-0.808,2.813-0.817
		c0.588-0.195,0.797-0.928,0.39-1.403l-4.516-5.29c0.142-0.394,0.229-0.812,0.201-1.244
		C128.384,194.053,128.336,194.251,128.942,193.023L128.942,193.023z"/>
	<path fill="#CB1C5C" d="M118.976,207.589c-1.589-0.853-1.166-0.625-2.05-1.101c-0.94,0.354-0.485,0.184-2.182,0.818l0.34-5.173
		c0.045,0.001,0.089,0.015,0.136,0.012c1.241-0.072,1.146-0.114,1.921,0.284c0.693,0.355,1.457,0.416,2.158,0.237L118.976,207.589z"
		/>
	<path fill="#CB1C5C" d="M130.562,202.056c-1.736,0.503-1.272,0.369-2.236,0.649c-0.425,0.908-0.222,0.473-0.986,2.106l-3.208-3.759
		c0.672-0.275,1.25-0.774,1.594-1.475c0.394-0.802,0.335-0.7,1.37-1.375c0.039-0.025,0.066-0.062,0.103-0.09L130.562,202.056
		L130.562,202.056z"/>
	<path fill="#CB1C5C" d="M126.715,195.524c0.031,0.486-0.195,0.952-0.592,1.216c-1.123,0.734-1.367,0.827-1.973,2.064
		c-0.277,0.561-0.886,0.85-1.49,0.695c-1.142-0.281-2.363,0.123-3.108,1.034c-0.392,0.478-1.054,0.617-1.611,0.331
		c-1.211-0.621-1.462-0.553-2.816-0.475c-0.476,0.026-0.936-0.212-1.202-0.62c-0.95-1.456-0.915-1.442-2.479-2.235
		c-0.432-0.222-0.719-0.664-0.75-1.156c-0.102-1.728-0.1-1.729-1.053-3.176c-0.269-0.413-0.302-0.939-0.089-1.375
		c0.775-1.57,0.761-1.528,0.649-3.275c-0.031-0.486,0.196-0.952,0.592-1.215c1.459-0.97,1.412-0.919,2.187-2.497
		c0.179-0.366,0.565-0.705,1.102-0.736c1.732-0.09,1.7-0.079,3.14-1.042c0.387-0.26,0.898-0.287,1.324-0.071
		c1.557,0.806,1.528,0.791,3.248,0.695c0.474-0.026,0.935,0.212,1.2,0.62c0.95,1.456,0.915,1.442,2.479,2.235
		c0.431,0.221,0.719,0.665,0.75,1.157c0.101,1.731,0.104,1.732,1.054,3.175c0.269,0.413,0.303,0.94,0.09,1.376
		C126.591,193.82,126.604,193.778,126.715,195.524L126.715,195.524z"/>
	<path fill="#FFFFFF" d="M116.742,186.872c-2.758,0.916-4.256,3.904-3.341,6.661c0.916,2.757,3.904,4.256,6.661,3.342
		c2.758-0.916,4.256-3.904,3.341-6.662C122.488,187.456,119.5,185.956,116.742,186.872z M119.508,195.207
		c-1.838,0.611-3.831-0.389-4.44-2.227c-0.611-1.839,0.389-3.831,2.227-4.441c1.838-0.61,3.83,0.389,4.441,2.227
		C122.347,192.605,121.347,194.597,119.508,195.207z"/>
</g>
<g>
	<g>
		<path fill="#84CD29" d="M190.675,106.815c1.784-7.081,8.573-3.234,8.573-3.234S197.755,108.603,190.675,106.815z"/>
	</g>
	<g>
		<path fill="#84CD29" d="M207.882,105.292l-0.003-0.001c-0.083,0.211-2.096,5.196-7.687,3.787c0,0,0.123-5.054,5.593-4.343
			c-2.048-0.751-4.962-2.44-5.745-6.098C210.732,97.71,207.882,105.292,207.882,105.292z"/>
	</g>
	<g>
		<path fill="#84CD29" d="M216.303,109.379c-0.064,0.091-3.385,4.724-8.95,1.623c0,0,1.482-5.057,6.74-3.161
			c-1.636-1.437-3.531-3.88-3.207-7.337C221.32,102.811,216.39,109.269,216.303,109.379z"/>
	</g>
	<g>
		<path fill="#84CD29" d="M213.27,115.062c0,0,3.19-4.29,7.51-0.55c-0.872-2.124-1.589-5.445,0.438-8.606
			c8.594,7.164,0.754,10.847,0.754,10.847l-0.002-0.001C220.521,117.5,216.608,118.96,213.27,115.062z"/>
	</g>
</g>
<g>
	<g>
		<path fill="#84CD29" d="M176.736,103.583c0,0,6.789-3.847,8.574,3.233C178.229,108.603,176.736,103.583,176.736,103.583z"/>
	</g>
	<g>
		<path fill="#84CD29" d="M175.943,98.637c-0.783,3.657-3.698,5.347-5.745,6.098c5.47-0.711,5.593,4.343,5.593,4.343
			c-5.591,1.41-7.605-3.576-7.687-3.786l-0.003,0.001C168.102,105.292,165.251,97.71,175.943,98.637z"/>
	</g>
	<g>
		<path fill="#84CD29" d="M165.097,100.505c0.324,3.457-1.571,5.9-3.207,7.336c5.257-1.896,6.741,3.161,6.741,3.161
			c-5.565,3.102-8.885-1.532-8.951-1.623C159.594,109.269,154.663,102.811,165.097,100.505z"/>
	</g>
	<g>
		<path fill="#84CD29" d="M154.013,116.751l-0.001,0.001c0,0-7.841-3.683,0.755-10.847c2.026,3.161,1.31,6.483,0.438,8.606
			c4.317-3.74,7.508,0.55,7.508,0.55C159.375,118.96,155.461,117.5,154.013,116.751z"/>
	</g>
</g>
</svg>
