<?xml version="1.0" encoding="utf-8"?>
<!-- Generator: Adobe Illustrator 16.0.4, SVG Export Plug-In . SVG Version: 6.00 Build 0)  -->
<!DOCTYPE svg PUBLIC "-//W3C//DTD SVG 1.1//EN" "http://www.w3.org/Graphics/SVG/1.1/DTD/svg11.dtd">
<svg version="1.1" id="Layer_1" xmlns="http://www.w3.org/2000/svg" xmlns:xlink="http://www.w3.org/1999/xlink" x="0px" y="0px"
	 width="300px" height="225px" viewBox="37.5 75 300 225" enable-background="new 37.5 75 300 225" xml:space="preserve">
<g>
	<path fill="#D0DAE3" d="M91.273,91.226v-1.679l4.139-4.438c0.598-0.686,1.022-1.264,1.274-1.736
		c0.251-0.471,0.378-0.91,0.378-1.313c0-0.539-0.145-0.98-0.436-1.323c-0.289-0.342-0.701-0.514-1.234-0.514
		c-0.592,0-1.042,0.201-1.35,0.602c-0.307,0.401-0.461,0.936-0.461,1.604h-2.496l-0.018-0.052c-0.029-1.154,0.35-2.132,1.139-2.931
		c0.788-0.8,1.85-1.2,3.186-1.2c1.318,0,2.355,0.344,3.111,1.029c0.756,0.686,1.134,1.6,1.134,2.742
		c0,0.773-0.213,1.488-0.638,2.145c-0.425,0.657-1.13,1.512-2.114,2.566l-2.276,2.487l0.017,0.044h3.322l0.106-1.266h1.95v3.234
		L91.273,91.226L91.273,91.226z"/>
	<path fill="#D0DAE3" d="M101.152,89.688l2.162-0.264v-8.666h-2.188v-1.468l4.747-0.862v10.995l2.162,0.264v1.538h-6.882
		L101.152,89.688L101.152,89.688z"/>
	<path fill="#D0DAE3" d="M112.051,90.883c0,0.597-0.169,1.23-0.506,1.898c-0.336,0.668-0.749,1.216-1.235,1.644l-1.266-0.686
		c0.229-0.411,0.405-0.833,0.527-1.27c0.124-0.437,0.185-0.925,0.185-1.464v-1.916h2.302L112.051,90.883z"/>
	<path fill="#D0DAE3" d="M122.465,86.242c0,1.693-0.388,2.979-1.165,3.854c-0.777,0.876-1.827,1.314-3.151,1.314
		c-1.336,0-2.394-0.438-3.172-1.314c-0.779-0.875-1.169-2.161-1.169-3.854v-2.821c0-1.688,0.388-2.972,1.165-3.854
		c0.775-0.882,1.829-1.323,3.16-1.323c1.324,0,2.377,0.441,3.159,1.323c0.783,0.882,1.173,2.167,1.173,3.854V86.242z
		 M119.908,83.158c0-1.014-0.152-1.756-0.457-2.229c-0.305-0.471-0.744-0.707-1.318-0.707c-0.581,0-1.019,0.234-1.318,0.703
		c-0.298,0.469-0.448,1.213-0.448,2.233v3.332c0,1.031,0.15,1.781,0.453,2.25c0.302,0.469,0.746,0.703,1.331,0.703
		c0.575,0,1.012-0.234,1.31-0.703s0.448-1.218,0.448-2.25L119.908,83.158L119.908,83.158z"/>
	<path fill="#D0DAE3" d="M132.748,86.242c0,1.693-0.388,2.979-1.165,3.854c-0.777,0.876-1.826,1.314-3.15,1.314
		c-1.336,0-2.394-0.438-3.173-1.314c-0.779-0.875-1.168-2.161-1.168-3.854v-2.821c0-1.688,0.388-2.972,1.165-3.854
		c0.776-0.882,1.83-1.323,3.159-1.323c1.324,0,2.377,0.441,3.16,1.323c0.782,0.882,1.173,2.167,1.173,3.854L132.748,86.242
		L132.748,86.242z M130.191,83.158c0-1.014-0.152-1.756-0.457-2.229c-0.305-0.471-0.744-0.707-1.318-0.707
		c-0.58,0-1.019,0.234-1.317,0.703c-0.299,0.469-0.449,1.213-0.449,2.233v3.332c0,1.031,0.15,1.781,0.453,2.25
		c0.302,0.469,0.746,0.703,1.332,0.703c0.575,0,1.011-0.234,1.31-0.703c0.299-0.469,0.449-1.218,0.449-2.25v-3.332H130.191z"/>
	<path fill="#D0DAE3" d="M143.031,86.242c0,1.693-0.388,2.979-1.165,3.854c-0.777,0.876-1.827,1.314-3.151,1.314
		c-1.336,0-2.394-0.438-3.172-1.314c-0.779-0.875-1.169-2.161-1.169-3.854v-2.821c0-1.688,0.388-2.972,1.165-3.854
		c0.775-0.882,1.829-1.323,3.16-1.323c1.324,0,2.377,0.441,3.159,1.323c0.783,0.882,1.173,2.167,1.173,3.854V86.242z
		 M140.474,83.158c0-1.014-0.152-1.756-0.457-2.229c-0.305-0.471-0.744-0.707-1.318-0.707c-0.581,0-1.019,0.234-1.318,0.703
		c-0.298,0.469-0.448,1.213-0.448,2.233v3.332c0,1.031,0.15,1.781,0.453,2.25c0.302,0.469,0.746,0.703,1.331,0.703
		c0.575,0,1.012-0.234,1.31-0.703s0.448-1.218,0.448-2.25L140.474,83.158L140.474,83.158z"/>
	<path fill="#D0DAE3" d="M147.321,90.883c0,0.597-0.168,1.23-0.505,1.898c-0.337,0.668-0.749,1.216-1.234,1.644l-1.266-0.686
		c0.229-0.411,0.404-0.833,0.527-1.27c0.123-0.437,0.185-0.925,0.185-1.464v-1.916h2.303L147.321,90.883z"/>
	<path fill="#D0DAE3" d="M157.735,86.242c0,1.693-0.388,2.979-1.164,3.854c-0.776,0.876-1.827,1.314-3.151,1.314
		c-1.336,0-2.393-0.438-3.172-1.314c-0.779-0.875-1.169-2.161-1.169-3.854v-2.821c0-1.688,0.388-2.972,1.165-3.854
		c0.776-0.882,1.83-1.323,3.159-1.323c1.324,0,2.378,0.441,3.16,1.323c0.783,0.882,1.173,2.167,1.173,3.854V86.242z M155.179,83.158
		c0-1.014-0.152-1.756-0.457-2.229c-0.305-0.471-0.744-0.707-1.318-0.707c-0.58,0-1.019,0.234-1.318,0.703s-0.448,1.213-0.448,2.233
		v3.332c0,1.031,0.15,1.781,0.453,2.25c0.301,0.468,0.745,0.703,1.332,0.703c0.575,0,1.011-0.234,1.31-0.703s0.448-1.218,0.448-2.25
		V83.158z"/>
	<path fill="#D0DAE3" d="M168.02,86.242c0,1.693-0.388,2.979-1.165,3.854c-0.776,0.875-1.826,1.314-3.15,1.314
		c-1.336,0-2.394-0.438-3.173-1.314c-0.78-0.875-1.168-2.161-1.168-3.854v-2.821c0-1.688,0.388-2.972,1.165-3.854
		s1.83-1.323,3.16-1.323c1.324,0,2.377,0.441,3.16,1.323c0.782,0.882,1.173,2.167,1.173,3.854v2.821H168.02z M165.462,83.158
		c0-1.014-0.152-1.756-0.457-2.229c-0.305-0.471-0.744-0.707-1.318-0.707c-0.58,0-1.019,0.234-1.318,0.703s-0.449,1.213-0.449,2.233
		v3.332c0,1.031,0.15,1.781,0.453,2.25c0.301,0.469,0.745,0.703,1.331,0.703c0.575,0,1.012-0.234,1.31-0.703
		c0.299-0.469,0.449-1.218,0.449-2.25V83.158z"/>
	<path fill="#D0DAE3" d="M178.302,86.242c0,1.693-0.388,2.979-1.164,3.854c-0.776,0.876-1.827,1.314-3.151,1.314
		c-1.336,0-2.393-0.438-3.172-1.314c-0.779-0.875-1.169-2.161-1.169-3.854v-2.821c0-1.688,0.388-2.972,1.165-3.854
		c0.776-0.882,1.83-1.323,3.159-1.323c1.324,0,2.378,0.441,3.16,1.323c0.783,0.882,1.173,2.167,1.173,3.854V86.242z M175.745,83.158
		c0-1.014-0.152-1.756-0.457-2.229c-0.305-0.471-0.744-0.707-1.318-0.707c-0.58,0-1.019,0.234-1.318,0.703s-0.448,1.213-0.448,2.233
		v3.332c0,1.031,0.15,1.781,0.453,2.25c0.301,0.468,0.745,0.703,1.332,0.703c0.575,0,1.011-0.234,1.31-0.703s0.448-1.218,0.448-2.25
		V83.158z"/>
</g>
<ellipse opacity="0.3" fill="#232323" enable-background="new    " cx="237.806" cy="290.219" rx="39.955" ry="6.449"/>
<ellipse opacity="0.3" fill="#232323" enable-background="new    " cx="162.3" cy="294.154" rx="13.619" ry="2.198"/>
<ellipse opacity="0.3" fill="#232323" enable-background="new    " cx="134.057" cy="294.154" rx="13.619" ry="2.198"/>
<ellipse opacity="0.3" fill="#232323" enable-background="new    " cx="105.813" cy="294.154" rx="13.619" ry="2.198"/>
<path fill="#232323" d="M266.748,244.504c-0.164,1.306-4.485,38.196-10.771,43.368c-6.282,5.169-9.584,3.429-10.859,2.056
	c-1.336-1.442-3.024-4.028,0.104-6.947c2.517-2.347,4.283-12.741,1.774-28.96L266.748,244.504z"/>
<path fill="#232323" d="M242.752,242.202c-0.165,1.305-4.485,38.196-10.768,43.369c-6.286,5.17-9.586,3.43-10.861,2.055
	c-1.338-1.44-3.026-4.026,0.104-6.943c2.517-2.35,4.284-12.741,1.773-28.963L242.752,242.202z"/>
<path fill="#232323" d="M225.978,192.984c2.632-1.197,5.742-0.412,7.105,2.448c1.361,2.84-0.325,7.294-3.988,8.989
	c-10.415,4.825-21.854,4.087-31.558-2.043c-3.414-2.151-4.516-6.787-2.802-9.425c1.721-2.66,4.91-3.041,7.366-1.515
	C209.443,196.072,218.097,196.637,225.978,192.984z"/>
<path fill="#FFFFFF" d="M261.72,188.78c-7.264-4.028-16.468-6.193-33.459-6.858c4.052-1.713,9.413-2.511,17.26-2.511h0.011
	c13.43,0,19.641,2.29,24.316,7.613c5.518,6.285,8.305,24.253,8.865,38.237C277.817,212.132,272.489,194.768,261.72,188.78z"/>
<path fill="#444444" d="M278.71,225.263c0.131,1.932,0.16,3.764,0.106,5.461C278.818,229.004,278.785,227.171,278.71,225.263z"/>
<path fill="#444444" d="M290.461,247.798c1.917,1.363,4.396,1.835,5.702,0.668c1.303-1.152,0.909-4.095-1.224-6.211
	c-5.77-5.751-13.346-9.623-21.689-10.866c-3.107-0.452-5.362,2.169-4.982,5.343c0.375,3.189,2.316,5.469,4.449,5.444
	C278.816,242.077,285.082,243.941,290.461,247.798z"/>
<g>
	<path fill="#FFFFFF" d="M271.963,164.865c2.871-11.79-5.087-19.264-25.768-21.757c-6.562-0.792-12.183-8.896-16.856-10.599
		c-13.443-4.896-17.23,3.826-17.23,3.826h-0.028c7.67-15.015,27.449-22.877,47.621-17.875c22.895,5.684,37.609,25.784,32.867,44.897
		c-4.743,19.119-27.147,30.012-50.04,24.332c-1.996-0.496-3.923-1.106-5.785-1.812l0.002-0.022
		C256.561,192.258,268.149,180.513,271.963,164.865z"/>
	<path fill="#444444" d="M209.659,142.792c0.562-2.276,1.385-4.431,2.419-6.457h0.028c0,0,3.789-8.723,17.229-3.826
		c4.673,1.703,10.292,9.806,16.857,10.599c20.68,2.495,28.638,9.967,25.766,21.757c-3.814,15.649-15.399,27.393-35.216,20.99
		l-0.006,0.022C217.22,178.506,205.329,160.241,209.659,142.792z"/>
	<path fill="#7F7F7F" d="M229.195,177.542c4.349,1.262,13.862-0.398,14.474-9.918c0.613-9.517-9.526-13.227-12.956-14.218
		c-3.431-0.994-13.677-3.192-14.286,6.323C215.813,169.25,224.844,176.281,229.195,177.542z"/>
	<path fill="#232323" d="M230.345,155.844c-1.891-0.549-4.823,0.764-5.313,3.146c-0.485,2.382,4.985,3.878,4.985,3.878l0.158,0.045
		c0,0,5.463,1.674,5.294-0.899c-0.171-2.572-2.83-5.505-4.718-6.052L230.345,155.844z"/>
	<path fill="none" stroke="#232323" stroke-width="1.2474" stroke-linecap="round" stroke-miterlimit="10" d="M223.107,165.862
		c0.307,1.042,0.783,2.037,1.393,2.93c0.614,0.899,1.354,1.69,2.195,2.337c0.845,0.649,1.782,1.143,2.783,1.431
		c0.999,0.291,1.966,0.35,2.855,0.208c0.893-0.149,1.713-0.489,2.414-1.005c0.702-0.515,1.284-1.204,1.713-2.027"/>
	<circle fill="#232323" cx="249.206" cy="155.368" r="1.75"/>
	<circle fill="#232323" cx="222.802" cy="144.193" r="1.75"/>
	<path fill="#444444" d="M265.479,166.536c-1.743,6.657-1.042,12.609,1.57,13.293c2.609,0.679,6.136-4.164,7.878-10.817
		c1.745-6.659,1.038-12.609-1.565-13.29C270.752,155.037,267.224,159.881,265.479,166.536z"/>
	<path fill="#232323" d="M270.252,159.837c2.146,0.579,2.965,5.059,2.311,10.98c0.244-0.709,0.469-1.451,0.67-2.23
		c1.342-5.235,1.051-9.85-0.648-10.307c-0.722-0.194-1.584,0.4-2.438,1.545C270.182,159.833,270.219,159.827,270.252,159.837z"/>
	<path fill="none" stroke="#7F7F7F" stroke-width="1.377" stroke-linecap="round" stroke-miterlimit="10" d="M254.501,156.783
		c0.093-0.611,0.062-1.228-0.082-1.817c-0.143-0.59-0.398-1.15-0.762-1.653c-0.354-0.498-0.818-0.937-1.379-1.278
		c-0.559-0.342-1.164-0.554-1.77-0.645"/>
	<path fill="none" stroke="#7F7F7F" stroke-width="1.377" stroke-linecap="round" stroke-miterlimit="10" d="M225.028,140.113
		c-0.519-0.33-1.099-0.557-1.692-0.668c-0.599-0.112-1.215-0.109-1.819,0.015c-0.602,0.119-1.188,0.364-1.73,0.734
		c-0.543,0.37-0.981,0.833-1.313,1.353"/>
</g>
<path fill="#444444" d="M221.203,187.026c1.705-1.941,3.622-3.479,6.017-4.65c0.332-0.16,0.688-0.305,1.039-0.453
	c2.738,0.108,5.252,0.259,7.611,0.445c5.783,0.205,10.314,0.852,13.994,2.005c4.741,1.1,8.51,2.553,11.854,4.413
	c10.77,5.983,16.1,23.348,16.991,36.481c0.074,1.906,0.109,3.739,0.105,5.459c-0.016,4.442-0.296,8.13-0.828,10.359
	c-0.576,2.415-2.885,4.472-6.508,6.097c-5.781,2.588-14.934,4.067-25.949,4.067h-0.013c-1.031,0-2.045-0.017-3.044-0.043
	c-0.309-0.008-0.61-0.022-0.915-0.031c-0.693-0.026-1.377-0.05-2.051-0.088c-0.337-0.017-0.67-0.039-1-0.059
	c-0.653-0.04-1.296-0.088-1.932-0.139c-0.297-0.027-0.6-0.048-0.895-0.079c-0.772-0.065-1.526-0.148-2.27-0.236
	c-0.128-0.018-0.264-0.029-0.392-0.045c-0.877-0.107-1.725-0.229-2.554-0.361c-0.202-0.032-0.393-0.07-0.59-0.103
	c-0.62-0.104-1.227-0.213-1.818-0.333c-0.25-0.049-0.494-0.1-0.737-0.15c-0.534-0.115-1.055-0.233-1.562-0.355
	c-0.231-0.059-0.464-0.113-0.694-0.17c-0.548-0.146-1.08-0.293-1.598-0.451c-0.121-0.035-0.251-0.066-0.371-0.104
	c0.008,0,0.01,0,0.016,0c-3.548-1.099-6.3-2.498-8.04-4.162c-0.02-0.016-0.03-0.036-0.048-0.052
	c-0.327-0.314-0.621-0.638-0.875-0.971c-0.1-0.129-0.16-0.271-0.248-0.399c-0.149-0.229-0.309-0.455-0.423-0.687
	c-0.185-0.373-0.321-0.754-0.416-1.145C210.812,231.663,212.984,196.38,221.203,187.026z"/>
<ellipse fill="#444444" cx="245.404" cy="236.891" rx="32.983" ry="25.989"/>
<g>
	<path fill="#232323" d="M257.876,196.069c1.851-2.222,4.994-2.864,7.465-0.883c2.461,1.966,2.875,6.709,0.312,9.826
		c-7.281,8.871-17.904,13.183-29.31,11.879c-4.007-0.455-7.016-4.148-6.617-7.27c0.395-3.144,3.1-4.875,5.977-4.567
		C244.329,206.041,252.364,202.782,257.876,196.069z"/>
	<path fill="#232323" d="M226.844,207.428c-0.77-0.144-1.45-0.63-1.476-1.206c-0.023-0.58,0.77-1.163,1.766-1.14
		c2.703,0.049,5.375,0.966,7.594,2.671c0.82,0.638,0.717,1.779-0.128,2.424c-0.848,0.646-1.839,0.703-2.324,0.191
		C230.891,208.888,229.001,207.821,226.844,207.428z"/>
	<path fill="#232323" d="M225.936,211.857c-0.778,0.075-1.568-0.2-1.75-0.749c-0.186-0.551,0.416-1.33,1.377-1.584
		c2.609-0.703,5.431-0.562,8.036,0.459c0.967,0.383,1.183,1.512,0.548,2.359c-0.634,0.856-1.569,1.189-2.181,0.83
		C230.231,212.137,228.118,211.638,225.936,211.857z"/>
	<path fill="#232323" d="M227.343,216.258c-0.657,0.421-1.485,0.538-1.9,0.128c-0.411-0.404-0.232-1.369,0.511-2.04
		c2.001-1.811,4.578-2.972,7.36-3.246c1.036-0.101,1.744,0.804,1.566,1.853c-0.177,1.048-0.858,1.774-1.565,1.729
		C231.297,214.55,229.188,215.067,227.343,216.258z"/>
</g>
<path fill="#232323" d="M241.771,286.337c-0.788,0.223-1.656,0.09-1.95-0.443c-0.294-0.531,0.177-1.451,1.122-1.899
	c2.562-1.222,5.5-1.617,8.384-1.055c1.075,0.213,1.514,1.338,1.02,2.335c-0.495,1.004-1.396,1.527-2.093,1.273
	C246.258,285.807,243.983,285.691,241.771,286.337z"/>
<path fill="#232323" d="M242.997,290.924c-0.694,0.436-1.562,0.547-1.996,0.117c-0.431-0.428-0.232-1.442,0.551-2.138
	c2.123-1.883,4.836-3.075,7.766-3.341c1.09-0.092,1.82,0.866,1.625,1.962c-0.195,1.1-0.918,1.855-1.659,1.805
	C247.164,289.171,244.947,289.69,242.997,290.924z"/>
<path fill="#232323" d="M246.389,294.396c-0.42,0.701-1.145,1.2-1.725,1.015c-0.577-0.186-0.864-1.181-0.483-2.155
	c1.033-2.642,2.908-4.938,5.396-6.504c0.927-0.586,2.016-0.066,2.341,1.001c0.326,1.071,0.029,2.073-0.658,2.361
	C249.297,290.938,247.562,292.41,246.389,294.396z"/>
<path fill="#232323" d="M216.692,283.606c-0.785,0.225-1.658,0.094-1.951-0.438c-0.292-0.535,0.178-1.453,1.123-1.903
	c2.563-1.219,5.5-1.612,8.384-1.053c1.075,0.211,1.511,1.336,1.021,2.332c-0.494,1.006-1.396,1.528-2.094,1.277
	C221.179,283.077,218.903,282.961,216.692,283.606z"/>
<path fill="#232323" d="M217.918,288.196c-0.693,0.435-1.562,0.55-1.993,0.117c-0.433-0.427-0.236-1.442,0.549-2.135
	c2.125-1.883,4.839-3.076,7.768-3.341c1.088-0.094,1.821,0.867,1.623,1.96c-0.194,1.101-0.917,1.855-1.659,1.803
	C222.085,286.441,219.867,286.962,217.918,288.196z"/>
<path fill="#232323" d="M221.31,291.668c-0.419,0.704-1.145,1.203-1.725,1.014c-0.576-0.186-0.865-1.18-0.482-2.153
	c1.033-2.642,2.907-4.941,5.395-6.507c0.926-0.583,2.016-0.062,2.339,1.006c0.328,1.066,0.031,2.067-0.653,2.357
	C224.219,288.212,222.482,289.685,221.31,291.668z"/>
<path fill="#232323" d="M190.282,193.702c-0.79-0.271-1.436-0.885-1.371-1.504c0.062-0.615,0.99-1.104,2.04-0.931
	c2.846,0.471,5.521,1.854,7.604,3.995c0.771,0.801,0.48,1.991-0.509,2.539c-0.996,0.547-2.054,0.461-2.484-0.159
	C194.331,195.869,192.501,194.453,190.282,193.702z"/>
<path fill="#232323" d="M189.706,198.595c-0.822,0.121-1.679-0.131-1.901-0.711c-0.224-0.575,0.378-1.437,1.392-1.758
	c2.75-0.875,5.76-0.867,8.59,0.097c1.047,0.357,1.334,1.55,0.698,2.489c-0.633,0.945-1.617,1.348-2.283,0.992
	C194.297,198.685,192.026,198.255,189.706,198.595z"/>
<path fill="#232323" d="M193.122,189.794c-0.684-0.478-1.134-1.246-0.902-1.823c0.231-0.568,1.259-0.787,2.218-0.328
	c2.603,1.244,4.792,3.312,6.195,5.949c0.521,0.985-0.088,2.046-1.193,2.295c-1.108,0.255-2.098-0.124-2.343-0.839
	C196.407,193.004,195.045,191.135,193.122,189.794z"/>
<g>
	<g>
		<path fill="#EA651B" d="M95.218,289.063c0.881,1.087,1.942,2.057,3.184,2.857c6.294,4.063,14.689,2.255,18.751-4.041
			c2.167-3.355,2.666-7.311,1.699-10.889c-0.326,2.239-1.123,4.445-2.43,6.47C111.818,290.587,102.59,292.922,95.218,289.063z"/>
		<path fill="#FF7E1C" d="M94.362,273.171c-3.261,5.053-2.737,11.46,0.856,15.895c7.372,3.857,16.601,1.523,21.202-5.603
			c1.307-2.024,2.106-4.23,2.432-6.47c-0.842-3.128-2.801-5.967-5.738-7.862C106.82,265.066,98.427,266.874,94.362,273.171z"/>
	</g>
	<g>
		<g>
			<g>
				<path fill="#FFFFFF" d="M109.883,280.671c0.299,0.38,0.422,0.901,0.361,1.568c-0.091,0.805-0.426,1.389-1.003,1.753
					c-0.501,0.303-1.25,0.485-2.251,0.546v1.548h-1.114v-1.525h-0.866v1.525h-1.113v-1.548h-2.207l0.229-1.319h0.229
					c0.365,0.017,0.597,0.006,0.703-0.024c0.15-0.045,0.242-0.156,0.274-0.339v-4.938c-0.047-0.244-0.176-0.395-0.389-0.455
					c-0.134-0.045-0.422-0.061-0.866-0.045h-0.18v-1.183l0.685,0.022c0.805,0,1.308-0.011,1.523-0.022v-1.797h1.114v1.774
					l0.864-0.022v-1.752h1.115v1.797c0.773,0.074,1.363,0.242,1.771,0.5c0.501,0.303,0.775,0.759,0.819,1.365
					c0.094,0.88-0.217,1.502-0.929,1.865l0,0C109.212,280.086,109.621,280.321,109.883,280.671L109.883,280.671z M105.033,279.691
					h0.181c0.638,0.017,1.131-0.022,1.481-0.112c0.604-0.151,0.908-0.479,0.908-0.98c0-0.5-0.295-0.833-0.885-1.001
					c-0.333-0.091-0.831-0.128-1.481-0.112c-0.107,0.015-0.176,0.021-0.203,0.021V279.691z M105.237,283.218
					c0.775,0.018,1.356-0.024,1.753-0.115c0.713-0.182,1.068-0.546,1.068-1.093c0-0.545-0.351-0.909-1.045-1.091
					c-0.379-0.105-0.955-0.144-1.73-0.112h-0.25v2.411H105.237z"/>
			</g>
		</g>
	</g>
</g>
<g>
	<g>
		<path fill="#EA651B" d="M95.218,261.062c0.881,1.085,1.942,2.056,3.184,2.856c6.294,4.062,14.689,2.254,18.751-4.04
			c2.167-3.356,2.666-7.312,1.699-10.89c-0.326,2.238-1.123,4.445-2.43,6.469C111.818,262.586,102.59,264.919,95.218,261.062z"/>
		<path fill="#FF7E1C" d="M94.362,245.168c-3.261,5.053-2.737,11.461,0.856,15.896c7.372,3.856,16.601,1.523,21.202-5.603
			c1.307-2.026,2.106-4.23,2.432-6.47c-0.842-3.128-2.801-5.967-5.738-7.862C106.82,237.064,98.427,238.872,94.362,245.168z"/>
	</g>
	<g>
		<g>
			<g>
				<path fill="#FFFFFF" d="M109.883,252.669c0.299,0.38,0.422,0.902,0.361,1.569c-0.091,0.803-0.426,1.388-1.003,1.752
					c-0.501,0.304-1.25,0.483-2.251,0.546v1.547h-1.114v-1.524h-0.866v1.524h-1.113v-1.547h-2.207l0.229-1.32h0.229
					c0.365,0.017,0.597,0.007,0.703-0.023c0.15-0.045,0.242-0.157,0.274-0.34v-4.938c-0.047-0.242-0.176-0.395-0.389-0.454
					c-0.134-0.045-0.422-0.061-0.866-0.045h-0.18v-1.183l0.685,0.022c0.805,0,1.308-0.009,1.523-0.022v-1.797h1.114v1.775
					l0.864-0.023v-1.752h1.115v1.797c0.773,0.076,1.363,0.242,1.771,0.5c0.501,0.303,0.775,0.76,0.819,1.365
					c0.094,0.88-0.217,1.502-0.929,1.865l0,0C109.212,252.083,109.621,252.32,109.883,252.669L109.883,252.669z M105.033,251.688
					h0.181c0.638,0.017,1.131-0.021,1.481-0.111c0.604-0.151,0.908-0.479,0.908-0.98c0-0.5-0.295-0.834-0.885-1.001
					c-0.333-0.091-0.831-0.129-1.481-0.114c-0.107,0.016-0.176,0.023-0.203,0.023V251.688z M105.237,255.215
					c0.775,0.017,1.356-0.022,1.753-0.114c0.713-0.182,1.068-0.546,1.068-1.092s-0.351-0.91-1.045-1.092
					c-0.379-0.107-0.955-0.143-1.73-0.113h-0.25v2.412L105.237,255.215L105.237,255.215z"/>
			</g>
		</g>
	</g>
</g>
<g>
	<g>
		<path fill="#EA651B" d="M95.218,233.06c0.881,1.086,1.942,2.058,3.184,2.857c6.294,4.063,14.689,2.254,18.751-4.04
			c2.167-3.356,2.666-7.312,1.699-10.89c-0.326,2.239-1.123,4.444-2.43,6.469C111.818,234.584,102.59,236.918,95.218,233.06z"/>
		<path fill="#FF7E1C" d="M94.362,217.165c-3.261,5.055-2.737,11.462,0.856,15.896c7.372,3.857,16.601,1.523,21.202-5.603
			c1.307-2.026,2.106-4.231,2.432-6.47c-0.842-3.129-2.801-5.967-5.738-7.863C106.82,209.062,98.427,210.871,94.362,217.165z"/>
	</g>
	<g>
		<g>
			<g>
				<path fill="#FFFFFF" d="M109.883,224.666c0.299,0.38,0.422,0.903,0.361,1.569c-0.091,0.805-0.426,1.389-1.003,1.753
					c-0.501,0.304-1.25,0.484-2.251,0.547v1.547h-1.114v-1.525h-0.866v1.525h-1.113v-1.547h-2.207l0.229-1.32h0.229
					c0.365,0.016,0.597,0.006,0.703-0.024c0.15-0.045,0.242-0.157,0.274-0.339v-4.938c-0.047-0.242-0.176-0.394-0.389-0.455
					c-0.134-0.045-0.422-0.061-0.866-0.045h-0.18v-1.183l0.685,0.022c0.805,0,1.308-0.009,1.523-0.022v-1.797h1.114v1.774
					l0.864-0.021v-1.752h1.115v1.797c0.773,0.075,1.363,0.241,1.771,0.5c0.501,0.304,0.775,0.759,0.819,1.365
					c0.094,0.881-0.217,1.501-0.929,1.865l0,0C109.212,224.08,109.621,224.318,109.883,224.666L109.883,224.666z M105.033,223.688
					h0.181c0.638,0.017,1.131-0.022,1.481-0.112c0.604-0.151,0.908-0.479,0.908-0.98c0-0.5-0.295-0.833-0.885-1.001
					c-0.333-0.09-0.831-0.128-1.481-0.113c-0.107,0.016-0.176,0.021-0.203,0.021V223.688z M105.237,227.213
					c0.775,0.017,1.356-0.023,1.753-0.114c0.713-0.183,1.068-0.547,1.068-1.092c0-0.547-0.351-0.91-1.045-1.092
					c-0.379-0.106-0.955-0.145-1.73-0.113h-0.25v2.411H105.237L105.237,227.213z"/>
			</g>
		</g>
	</g>
</g>
<g>
	<g>
		<path fill="#EA651B" d="M95.218,205.058c0.881,1.087,1.942,2.057,3.184,2.857c6.294,4.063,14.689,2.254,18.751-4.041
			c2.167-3.355,2.666-7.312,1.699-10.89c-0.326,2.239-1.123,4.445-2.43,6.47C111.818,206.582,102.59,208.915,95.218,205.058z"/>
		<path fill="#FF7E1C" d="M94.362,189.164c-3.261,5.053-2.737,11.461,0.856,15.896c7.372,3.857,16.601,1.523,21.202-5.603
			c1.307-2.026,2.106-4.23,2.432-6.47c-0.842-3.128-2.801-5.966-5.738-7.862C106.82,181.061,98.427,182.869,94.362,189.164z"/>
	</g>
	<g>
		<g>
			<g>
				<path fill="#FFFFFF" d="M109.883,196.664c0.299,0.38,0.422,0.902,0.361,1.568c-0.091,0.806-0.426,1.39-1.003,1.753
					c-0.501,0.305-1.25,0.485-2.251,0.547v1.547h-1.114v-1.524h-0.866v1.524h-1.113v-1.547h-2.207l0.229-1.32h0.229
					c0.365,0.017,0.597,0.007,0.703-0.023c0.15-0.046,0.242-0.157,0.274-0.34v-4.938c-0.047-0.242-0.176-0.395-0.389-0.454
					c-0.134-0.046-0.422-0.062-0.866-0.046h-0.18v-1.184l0.685,0.023c0.805,0,1.308-0.01,1.523-0.023v-1.797h1.114v1.776
					l0.864-0.022v-1.753h1.115v1.797c0.773,0.075,1.363,0.242,1.771,0.5c0.501,0.304,0.775,0.76,0.819,1.366
					c0.094,0.879-0.217,1.5-0.929,1.864l0,0C109.212,196.079,109.621,196.316,109.883,196.664L109.883,196.664z M105.033,195.686
					h0.181c0.638,0.017,1.131-0.022,1.481-0.113c0.604-0.15,0.908-0.479,0.908-0.979c0-0.5-0.295-0.834-0.885-1.001
					c-0.333-0.091-0.831-0.129-1.481-0.113c-0.107,0.015-0.176,0.021-0.203,0.021V195.686z M105.237,199.212
					c0.775,0.016,1.356-0.024,1.753-0.116c0.713-0.181,1.068-0.545,1.068-1.091s-0.351-0.91-1.045-1.092
					c-0.379-0.106-0.955-0.144-1.73-0.113h-0.25v2.412H105.237z"/>
			</g>
		</g>
	</g>
</g>
<g>
	<g>
		<path fill="#EA651B" d="M95.218,177.056c0.881,1.086,1.942,2.056,3.184,2.856c6.294,4.063,14.689,2.254,18.751-4.04
			c2.167-3.356,2.666-7.312,1.699-10.891c-0.326,2.24-1.123,4.446-2.43,6.471C111.818,178.58,102.59,180.914,95.218,177.056z"/>
		<path fill="#FF7E1C" d="M94.362,161.162c-3.261,5.053-2.737,11.461,0.856,15.896c7.372,3.856,16.601,1.523,21.202-5.603
			c1.307-2.026,2.106-4.231,2.432-6.47c-0.842-3.128-2.801-5.966-5.738-7.862C106.82,153.058,98.427,154.867,94.362,161.162z"/>
	</g>
	<g>
		<g>
			<g>
				<path fill="#FFFFFF" d="M109.883,168.662c0.299,0.38,0.422,0.902,0.361,1.569c-0.091,0.805-0.426,1.389-1.003,1.753
					c-0.501,0.303-1.25,0.485-2.251,0.546v1.547h-1.114v-1.525h-0.866v1.525h-1.113v-1.547h-2.207l0.229-1.32h0.229
					c0.365,0.016,0.597,0.006,0.703-0.024c0.15-0.045,0.242-0.157,0.274-0.339v-4.938c-0.047-0.244-0.176-0.395-0.389-0.455
					c-0.134-0.045-0.422-0.061-0.866-0.045h-0.18v-1.184l0.685,0.023c0.805,0,1.308-0.009,1.523-0.023v-1.797h1.114v1.775
					l0.864-0.023v-1.751h1.115v1.797c0.773,0.075,1.363,0.242,1.771,0.5c0.501,0.303,0.775,0.759,0.819,1.366
					c0.094,0.88-0.217,1.5-0.929,1.865l0,0C109.212,168.078,109.621,168.313,109.883,168.662L109.883,168.662z M105.033,167.683
					h0.181c0.638,0.016,1.131-0.021,1.481-0.112c0.604-0.151,0.908-0.479,0.908-0.98c0-0.5-0.295-0.834-0.885-1.002
					c-0.333-0.09-0.831-0.128-1.481-0.113c-0.107,0.015-0.176,0.021-0.203,0.021V167.683z M105.237,171.209
					c0.775,0.016,1.356-0.024,1.753-0.115c0.713-0.183,1.068-0.546,1.068-1.091c0-0.547-0.351-0.911-1.045-1.092
					c-0.379-0.106-0.955-0.144-1.73-0.113h-0.25v2.411H105.237L105.237,171.209z"/>
			</g>
		</g>
	</g>
</g>
<g>
	<path fill="#EA651B" d="M95.218,149.054c0.881,1.086,1.942,2.056,3.184,2.856c6.294,4.064,14.689,2.254,18.751-4.039
		c2.167-3.357,2.666-7.313,1.699-10.891c-0.326,2.24-1.123,4.445-2.43,6.47C111.818,150.578,102.59,152.911,95.218,149.054z"/>
	<path fill="#FF7E1C" d="M94.362,133.16c-3.261,5.053-2.737,11.461,0.856,15.896c7.372,3.856,16.601,1.523,21.202-5.603
		c1.307-2.025,2.106-4.23,2.432-6.47c-0.842-3.127-2.801-5.965-5.738-7.862C106.82,125.056,98.427,126.865,94.362,133.16z"/>
</g>
<g>
	<g>
		<g>
			<path fill="#FFFFFF" d="M109.883,140.66c0.299,0.381,0.422,0.902,0.361,1.57c-0.091,0.804-0.426,1.388-1.003,1.752
				c-0.501,0.304-1.25,0.484-2.251,0.546v1.547h-1.114v-1.525h-0.866v1.525h-1.113v-1.547h-2.207l0.229-1.32h0.229
				c0.365,0.017,0.597,0.006,0.703-0.023c0.15-0.046,0.242-0.158,0.274-0.34v-4.938c-0.047-0.244-0.176-0.395-0.389-0.455
				c-0.134-0.045-0.422-0.061-0.866-0.045h-0.18v-1.183l0.685,0.023c0.805,0,1.308-0.009,1.523-0.023v-1.797h1.114v1.775
				l0.864-0.023v-1.752h1.115v1.797c0.773,0.075,1.363,0.242,1.771,0.5c0.501,0.303,0.775,0.759,0.819,1.366
				c0.094,0.88-0.217,1.501-0.929,1.865l0,0C109.212,140.075,109.621,140.312,109.883,140.66L109.883,140.66z M105.033,139.681
				h0.181c0.638,0.017,1.131-0.021,1.481-0.112c0.604-0.151,0.908-0.479,0.908-0.98c0-0.5-0.295-0.833-0.885-1.001
				c-0.333-0.091-0.831-0.129-1.481-0.114c-0.107,0.016-0.176,0.021-0.203,0.021V139.681z M105.237,143.208
				c0.775,0.017,1.356-0.023,1.753-0.115c0.713-0.182,1.068-0.546,1.068-1.091s-0.351-0.91-1.045-1.093
				c-0.379-0.106-0.954-0.144-1.729-0.113h-0.25v2.411L105.237,143.208L105.237,143.208z"/>
		</g>
	</g>
</g>
<g>
	<g>
		<path fill="#EA651B" d="M123.327,289.063c0.88,1.087,1.941,2.057,3.184,2.857c6.294,4.063,14.688,2.255,18.751-4.041
			c2.166-3.355,2.665-7.311,1.699-10.889c-0.327,2.239-1.123,4.445-2.431,6.47C139.928,290.587,130.699,292.922,123.327,289.063z"/>
		<path fill="#FF7E1C" d="M122.471,273.171c-3.261,5.053-2.738,11.46,0.856,15.895c7.372,3.857,16.6,1.523,21.202-5.603
			c1.307-2.024,2.105-4.23,2.432-6.47c-0.842-3.128-2.801-5.967-5.739-7.862C134.929,265.066,126.535,266.874,122.471,273.171z"/>
	</g>
	<g>
		<g>
			<g>
				<path fill="#FFFFFF" d="M137.992,280.671c0.299,0.38,0.422,0.901,0.361,1.568c-0.091,0.805-0.426,1.389-1.003,1.753
					c-0.501,0.303-1.25,0.485-2.251,0.546v1.548h-1.113v-1.525h-0.865v1.525h-1.113v-1.548h-2.208l0.23-1.319h0.227
					c0.366,0.017,0.597,0.006,0.703-0.024c0.15-0.045,0.242-0.156,0.273-0.339v-4.938c-0.047-0.244-0.176-0.395-0.388-0.455
					c-0.134-0.045-0.422-0.061-0.866-0.045h-0.18v-1.183l0.685,0.022c0.804,0,1.308-0.011,1.523-0.022v-1.797h1.113v1.774
					l0.864-0.022v-1.752h1.114v1.797c0.774,0.074,1.364,0.242,1.772,0.5c0.501,0.303,0.774,0.759,0.819,1.365
					c0.094,0.88-0.217,1.502-0.929,1.865l0,0C137.321,280.086,137.73,280.321,137.992,280.671L137.992,280.671z M133.142,279.691
					h0.181c0.638,0.017,1.131-0.022,1.48-0.112c0.606-0.151,0.908-0.479,0.908-0.98c0-0.5-0.295-0.833-0.884-1.001
					c-0.334-0.091-0.831-0.128-1.482-0.112c-0.107,0.015-0.176,0.021-0.204,0.021V279.691z M133.346,283.218
					c0.775,0.018,1.355-0.024,1.753-0.115c0.714-0.182,1.069-0.546,1.069-1.093c0-0.545-0.351-0.909-1.046-1.091
					c-0.379-0.105-0.954-0.144-1.729-0.112h-0.25v2.411H133.346z"/>
			</g>
		</g>
	</g>
</g>
<g>
	<g>
		<path fill="#EA651B" d="M123.327,261.062c0.88,1.085,1.941,2.056,3.184,2.856c6.294,4.062,14.688,2.254,18.751-4.04
			c2.166-3.356,2.665-7.312,1.699-10.89c-0.327,2.238-1.123,4.445-2.431,6.469C139.928,262.586,130.699,264.919,123.327,261.062z"/>
		<path fill="#FF7E1C" d="M122.471,245.168c-3.261,5.053-2.738,11.461,0.856,15.896c7.372,3.856,16.6,1.523,21.202-5.603
			c1.307-2.026,2.105-4.23,2.432-6.47c-0.842-3.128-2.801-5.967-5.739-7.862C134.929,237.064,126.535,238.872,122.471,245.168z"/>
	</g>
	<g>
		<g>
			<g>
				<path fill="#FFFFFF" d="M137.992,252.669c0.299,0.38,0.422,0.902,0.361,1.569c-0.091,0.803-0.426,1.388-1.003,1.752
					c-0.501,0.304-1.25,0.483-2.251,0.546v1.547h-1.113v-1.524h-0.865v1.524h-1.113v-1.547h-2.208l0.23-1.32h0.227
					c0.366,0.017,0.597,0.007,0.703-0.023c0.15-0.045,0.242-0.157,0.273-0.34v-4.938c-0.047-0.242-0.176-0.395-0.388-0.454
					c-0.134-0.045-0.422-0.061-0.866-0.045h-0.18v-1.183l0.685,0.022c0.804,0,1.308-0.009,1.523-0.022v-1.797h1.113v1.775
					l0.864-0.023v-1.752h1.114v1.797c0.774,0.076,1.364,0.242,1.772,0.5c0.501,0.303,0.774,0.76,0.819,1.365
					c0.094,0.88-0.217,1.502-0.929,1.865l0,0C137.321,252.083,137.73,252.32,137.992,252.669L137.992,252.669z M133.142,251.688
					h0.181c0.638,0.017,1.131-0.021,1.48-0.111c0.606-0.151,0.908-0.479,0.908-0.98c0-0.5-0.295-0.834-0.884-1.001
					c-0.334-0.091-0.831-0.129-1.482-0.114c-0.107,0.016-0.176,0.023-0.204,0.023V251.688z M133.346,255.215
					c0.775,0.017,1.355-0.022,1.753-0.114c0.714-0.182,1.069-0.546,1.069-1.092s-0.351-0.91-1.046-1.092
					c-0.379-0.107-0.954-0.143-1.729-0.113h-0.25v2.412L133.346,255.215L133.346,255.215z"/>
			</g>
		</g>
	</g>
</g>
<g>
	<g>
		<path fill="#EA651B" d="M123.327,233.06c0.88,1.086,1.941,2.058,3.184,2.857c6.294,4.063,14.688,2.254,18.751-4.04
			c2.166-3.356,2.665-7.312,1.699-10.89c-0.327,2.239-1.123,4.444-2.431,6.469C139.928,234.584,130.699,236.918,123.327,233.06z"/>
		<path fill="#FF7E1C" d="M122.471,217.165c-3.261,5.055-2.738,11.462,0.856,15.896c7.372,3.857,16.6,1.523,21.202-5.603
			c1.307-2.026,2.105-4.231,2.432-6.47c-0.842-3.129-2.801-5.967-5.739-7.863C134.929,209.062,126.535,210.871,122.471,217.165z"/>
	</g>
	<g>
		<g>
			<g>
				<path fill="#FFFFFF" d="M137.992,224.666c0.299,0.38,0.422,0.903,0.361,1.569c-0.091,0.805-0.426,1.389-1.003,1.753
					c-0.501,0.304-1.25,0.484-2.251,0.547v1.547h-1.113v-1.525h-0.865v1.525h-1.113v-1.547h-2.208l0.23-1.32h0.227
					c0.366,0.016,0.597,0.006,0.703-0.024c0.15-0.045,0.242-0.157,0.273-0.339v-4.938c-0.047-0.242-0.176-0.394-0.388-0.455
					c-0.134-0.045-0.422-0.061-0.866-0.045h-0.18v-1.183l0.685,0.022c0.804,0,1.308-0.009,1.523-0.022v-1.797h1.113v1.774
					l0.864-0.021v-1.752h1.114v1.797c0.774,0.075,1.364,0.241,1.772,0.5c0.501,0.304,0.774,0.759,0.819,1.365
					c0.094,0.881-0.217,1.501-0.929,1.865l0,0C137.321,224.08,137.73,224.318,137.992,224.666L137.992,224.666z M133.142,223.688
					h0.181c0.638,0.017,1.131-0.022,1.48-0.112c0.606-0.151,0.908-0.479,0.908-0.98c0-0.5-0.295-0.833-0.884-1.001
					c-0.334-0.09-0.831-0.128-1.482-0.113c-0.107,0.016-0.176,0.021-0.204,0.021V223.688z M133.346,227.213
					c0.775,0.017,1.355-0.023,1.753-0.114c0.714-0.183,1.069-0.547,1.069-1.092c0-0.547-0.351-0.91-1.046-1.092
					c-0.379-0.106-0.954-0.145-1.729-0.113h-0.25v2.411H133.346L133.346,227.213z"/>
			</g>
		</g>
	</g>
</g>
<g>
	<g>
		<path fill="#EA651B" d="M123.327,205.058c0.88,1.087,1.941,2.057,3.184,2.857c6.294,4.063,14.688,2.254,18.751-4.041
			c2.166-3.355,2.665-7.312,1.699-10.89c-0.327,2.239-1.123,4.445-2.431,6.47C139.928,206.582,130.699,208.915,123.327,205.058z"/>
		<path fill="#FF7E1C" d="M122.471,189.164c-3.261,5.053-2.738,11.461,0.856,15.896c7.372,3.857,16.6,1.523,21.202-5.603
			c1.307-2.026,2.105-4.23,2.432-6.47c-0.842-3.128-2.801-5.966-5.739-7.862C134.929,181.061,126.535,182.869,122.471,189.164z"/>
	</g>
	<g>
		<g>
			<g>
				<path fill="#FFFFFF" d="M137.992,196.664c0.299,0.38,0.422,0.902,0.361,1.568c-0.091,0.806-0.426,1.39-1.003,1.753
					c-0.501,0.305-1.25,0.485-2.251,0.547v1.547h-1.113v-1.524h-0.865v1.524h-1.113v-1.547h-2.208l0.23-1.32h0.227
					c0.366,0.017,0.597,0.007,0.703-0.023c0.15-0.046,0.242-0.157,0.273-0.34v-4.938c-0.047-0.242-0.176-0.395-0.388-0.454
					c-0.134-0.046-0.422-0.062-0.866-0.046h-0.18v-1.184l0.685,0.023c0.804,0,1.308-0.01,1.523-0.023v-1.797h1.113v1.776
					l0.864-0.022v-1.753h1.114v1.797c0.774,0.075,1.364,0.242,1.772,0.5c0.501,0.304,0.774,0.76,0.819,1.366
					c0.094,0.879-0.217,1.5-0.929,1.864l0,0C137.321,196.079,137.73,196.316,137.992,196.664L137.992,196.664z M133.142,195.686
					h0.181c0.638,0.017,1.131-0.022,1.48-0.113c0.606-0.15,0.908-0.479,0.908-0.979c0-0.5-0.295-0.834-0.884-1.001
					c-0.334-0.091-0.831-0.129-1.482-0.113c-0.107,0.015-0.176,0.021-0.204,0.021V195.686z M133.346,199.212
					c0.775,0.016,1.355-0.024,1.753-0.116c0.714-0.181,1.069-0.545,1.069-1.091s-0.351-0.91-1.046-1.092
					c-0.379-0.106-0.954-0.144-1.729-0.113h-0.25v2.412H133.346z"/>
			</g>
		</g>
	</g>
</g>
<g>
	<g>
		<path fill="#EA651B" d="M123.327,177.056c0.88,1.086,1.941,2.056,3.184,2.856c6.294,4.063,14.688,2.254,18.751-4.04
			c2.166-3.356,2.665-7.312,1.699-10.891c-0.327,2.24-1.123,4.446-2.431,6.471C139.928,178.58,130.699,180.914,123.327,177.056z"/>
		<path fill="#FF7E1C" d="M122.471,161.162c-3.261,5.053-2.738,11.461,0.856,15.896c7.372,3.856,16.6,1.523,21.202-5.603
			c1.307-2.026,2.105-4.231,2.432-6.47c-0.842-3.128-2.801-5.966-5.739-7.862C134.929,153.058,126.535,154.867,122.471,161.162z"/>
	</g>
	<g>
		<g>
			<g>
				<path fill="#FFFFFF" d="M137.992,168.662c0.299,0.38,0.422,0.902,0.361,1.569c-0.091,0.805-0.426,1.389-1.003,1.753
					c-0.501,0.303-1.25,0.485-2.251,0.546v1.547h-1.113v-1.525h-0.865v1.525h-1.113v-1.547h-2.208l0.23-1.32h0.227
					c0.366,0.016,0.597,0.006,0.703-0.024c0.15-0.045,0.242-0.157,0.273-0.339v-4.938c-0.047-0.244-0.176-0.395-0.388-0.455
					c-0.134-0.045-0.422-0.061-0.866-0.045h-0.18v-1.184l0.685,0.023c0.804,0,1.308-0.009,1.523-0.023v-1.797h1.113v1.775
					l0.864-0.023v-1.751h1.114v1.797c0.774,0.075,1.364,0.242,1.772,0.5c0.501,0.303,0.774,0.759,0.819,1.366
					c0.094,0.88-0.217,1.5-0.929,1.865l0,0C137.321,168.078,137.73,168.313,137.992,168.662L137.992,168.662z M133.142,167.683
					h0.181c0.638,0.016,1.131-0.021,1.48-0.112c0.606-0.151,0.908-0.479,0.908-0.98c0-0.5-0.295-0.834-0.884-1.002
					c-0.334-0.09-0.831-0.128-1.482-0.113c-0.107,0.015-0.176,0.021-0.204,0.021V167.683z M133.346,171.209
					c0.775,0.016,1.355-0.024,1.753-0.115c0.714-0.183,1.069-0.546,1.069-1.091c0-0.547-0.351-0.911-1.046-1.092
					c-0.379-0.106-0.954-0.144-1.729-0.113h-0.25v2.411H133.346L133.346,171.209z"/>
			</g>
		</g>
	</g>
</g>
<g>
	<g>
		<path fill="#EA651B" d="M123.327,149.054c0.88,1.086,1.941,2.056,3.184,2.856c6.294,4.064,14.688,2.254,18.751-4.039
			c2.166-3.357,2.665-7.313,1.699-10.891c-0.327,2.24-1.123,4.445-2.431,6.47C139.928,150.578,130.699,152.911,123.327,149.054z"/>
		<path fill="#FF7E1C" d="M122.471,133.16c-3.261,5.053-2.738,11.461,0.856,15.896c7.372,3.856,16.6,1.523,21.202-5.603
			c1.307-2.025,2.105-4.23,2.432-6.47c-0.842-3.127-2.801-5.965-5.739-7.862C134.929,125.056,126.535,126.865,122.471,133.16z"/>
	</g>
	<g>
		<g>
			<g>
				<path fill="#FFFFFF" d="M137.992,140.66c0.299,0.381,0.422,0.902,0.361,1.57c-0.091,0.804-0.426,1.388-1.003,1.752
					c-0.501,0.304-1.25,0.484-2.251,0.546v1.547h-1.113v-1.525h-0.865v1.525h-1.113v-1.547h-2.208l0.23-1.32h0.227
					c0.366,0.017,0.597,0.006,0.703-0.023c0.15-0.046,0.242-0.158,0.273-0.34v-4.938c-0.047-0.244-0.176-0.395-0.388-0.455
					c-0.134-0.045-0.422-0.061-0.866-0.045h-0.18v-1.183l0.685,0.023c0.804,0,1.308-0.009,1.523-0.023v-1.797h1.113v1.775
					l0.864-0.023v-1.752h1.114v1.797c0.774,0.075,1.364,0.242,1.772,0.5c0.501,0.303,0.774,0.759,0.819,1.366
					c0.094,0.88-0.217,1.501-0.929,1.865l0,0C137.321,140.075,137.73,140.312,137.992,140.66L137.992,140.66z M133.142,139.681
					h0.181c0.638,0.017,1.131-0.021,1.48-0.112c0.606-0.151,0.908-0.479,0.908-0.98c0-0.5-0.295-0.833-0.884-1.001
					c-0.334-0.091-0.831-0.129-1.482-0.114c-0.107,0.016-0.176,0.021-0.204,0.021V139.681z M133.346,143.208
					c0.775,0.017,1.355-0.023,1.753-0.115c0.714-0.182,1.069-0.546,1.069-1.091s-0.351-0.91-1.046-1.092
					c-0.379-0.106-0.954-0.144-1.729-0.113h-0.25v2.412H133.346z"/>
			</g>
		</g>
	</g>
</g>
<g>
	<g>
		<path fill="#EA651B" d="M151.604,289.063c0.88,1.087,1.942,2.057,3.184,2.857c6.294,4.063,14.688,2.255,18.751-4.041
			c2.166-3.355,2.665-7.311,1.698-10.889c-0.326,2.239-1.122,4.445-2.43,6.47C168.205,290.587,158.977,292.922,151.604,289.063z"/>
		<path fill="#FF7E1C" d="M150.748,273.171c-3.261,5.053-2.737,11.46,0.856,15.895c7.373,3.857,16.6,1.523,21.201-5.603
			c1.307-2.024,2.106-4.23,2.432-6.47c-0.841-3.128-2.801-5.967-5.737-7.862C163.207,265.066,154.813,266.874,150.748,273.171z"/>
	</g>
	<g>
		<g>
			<g>
				<path fill="#FFFFFF" d="M166.269,280.671c0.299,0.38,0.422,0.901,0.362,1.568c-0.091,0.805-0.426,1.389-1.002,1.753
					c-0.501,0.303-1.25,0.485-2.251,0.546v1.548h-1.113v-1.525h-0.866v1.525h-1.113v-1.548h-2.207l0.229-1.319h0.228
					c0.366,0.017,0.597,0.006,0.703-0.024c0.15-0.045,0.242-0.156,0.274-0.339v-4.938c-0.047-0.244-0.176-0.395-0.389-0.455
					c-0.135-0.045-0.422-0.061-0.866-0.045h-0.18v-1.183l0.684,0.022c0.805,0,1.308-0.011,1.523-0.022v-1.797h1.113v1.774
					l0.864-0.022v-1.752h1.114v1.797c0.773,0.074,1.364,0.242,1.771,0.5c0.501,0.303,0.775,0.759,0.819,1.365
					c0.094,0.88-0.217,1.502-0.929,1.865l0,0C165.599,280.086,166.008,280.321,166.269,280.671L166.269,280.671z M161.419,279.691
					h0.181c0.639,0.017,1.131-0.022,1.481-0.112c0.605-0.151,0.908-0.479,0.908-0.98c0-0.5-0.295-0.833-0.885-1.001
					c-0.333-0.091-0.83-0.128-1.481-0.112c-0.107,0.015-0.176,0.021-0.203,0.021V279.691L161.419,279.691z M161.624,283.218
					c0.775,0.018,1.356-0.024,1.753-0.115c0.714-0.182,1.069-0.546,1.069-1.093c0-0.545-0.352-0.909-1.046-1.091
					c-0.379-0.105-0.954-0.144-1.729-0.112h-0.25v2.411H161.624z"/>
			</g>
		</g>
	</g>
</g>
<g>
	<g>
		<path fill="#EA651B" d="M151.604,261.062c0.88,1.085,1.942,2.056,3.184,2.856c6.294,4.062,14.688,2.254,18.751-4.04
			c2.166-3.356,2.665-7.312,1.698-10.89c-0.326,2.238-1.122,4.445-2.43,6.469C168.205,262.586,158.977,264.919,151.604,261.062z"/>
		<path fill="#FF7E1C" d="M150.748,245.168c-3.261,5.053-2.737,11.461,0.856,15.896c7.373,3.856,16.6,1.523,21.201-5.603
			c1.307-2.026,2.106-4.23,2.432-6.47c-0.841-3.128-2.801-5.967-5.737-7.862C163.207,237.064,154.813,238.872,150.748,245.168z"/>
	</g>
	<g>
		<g>
			<g>
				<path fill="#FFFFFF" d="M166.269,252.669c0.299,0.38,0.422,0.902,0.362,1.569c-0.091,0.803-0.426,1.388-1.002,1.752
					c-0.501,0.304-1.25,0.483-2.251,0.546v1.547h-1.113v-1.524h-0.866v1.524h-1.113v-1.547h-2.207l0.229-1.32h0.228
					c0.366,0.017,0.597,0.007,0.703-0.023c0.15-0.045,0.242-0.157,0.274-0.34v-4.938c-0.047-0.242-0.176-0.395-0.389-0.454
					c-0.135-0.045-0.422-0.061-0.866-0.045h-0.18v-1.183l0.684,0.022c0.805,0,1.308-0.009,1.523-0.022v-1.797h1.113v1.775
					l0.864-0.023v-1.752h1.114v1.797c0.773,0.076,1.364,0.242,1.771,0.5c0.501,0.303,0.775,0.76,0.819,1.365
					c0.094,0.88-0.217,1.502-0.929,1.865l0,0C165.599,252.083,166.008,252.32,166.269,252.669L166.269,252.669z M161.419,251.688
					h0.181c0.639,0.017,1.131-0.021,1.481-0.111c0.605-0.151,0.908-0.479,0.908-0.98c0-0.5-0.295-0.834-0.885-1.001
					c-0.333-0.091-0.83-0.129-1.481-0.114c-0.107,0.016-0.176,0.023-0.203,0.023V251.688L161.419,251.688z M161.624,255.215
					c0.775,0.017,1.356-0.022,1.753-0.114c0.714-0.182,1.069-0.546,1.069-1.092s-0.352-0.91-1.046-1.092
					c-0.379-0.107-0.954-0.143-1.729-0.113h-0.25v2.412L161.624,255.215L161.624,255.215z"/>
			</g>
		</g>
	</g>
</g>
<g>
	<g>
		<path fill="#EA651B" d="M151.604,233.06c0.88,1.086,1.942,2.058,3.184,2.857c6.294,4.063,14.688,2.254,18.751-4.04
			c2.166-3.356,2.665-7.312,1.698-10.89c-0.326,2.239-1.122,4.444-2.43,6.469C168.205,234.584,158.977,236.918,151.604,233.06z"/>
		<path fill="#FF7E1C" d="M150.748,217.165c-3.261,5.055-2.737,11.462,0.856,15.896c7.373,3.857,16.6,1.523,21.201-5.603
			c1.307-2.026,2.106-4.231,2.432-6.47c-0.841-3.129-2.801-5.967-5.737-7.863C163.207,209.062,154.813,210.871,150.748,217.165z"/>
	</g>
	<g>
		<g>
			<g>
				<path fill="#FFFFFF" d="M166.269,224.666c0.299,0.38,0.422,0.903,0.362,1.569c-0.091,0.805-0.426,1.389-1.002,1.753
					c-0.501,0.304-1.25,0.484-2.251,0.547v1.547h-1.113v-1.525h-0.866v1.525h-1.113v-1.547h-2.207l0.229-1.32h0.228
					c0.366,0.016,0.597,0.006,0.703-0.024c0.15-0.045,0.242-0.157,0.274-0.339v-4.938c-0.047-0.242-0.176-0.394-0.389-0.455
					c-0.135-0.045-0.422-0.061-0.866-0.045h-0.18v-1.183l0.684,0.022c0.805,0,1.308-0.009,1.523-0.022v-1.797h1.113v1.774
					l0.864-0.021v-1.752h1.114v1.797c0.773,0.075,1.364,0.241,1.771,0.5c0.501,0.304,0.775,0.759,0.819,1.365
					c0.094,0.881-0.217,1.501-0.929,1.865l0,0C165.599,224.08,166.008,224.318,166.269,224.666L166.269,224.666z M161.419,223.688
					h0.181c0.639,0.017,1.131-0.022,1.481-0.112c0.605-0.151,0.908-0.479,0.908-0.98c0-0.5-0.295-0.833-0.885-1.001
					c-0.333-0.09-0.83-0.128-1.481-0.113c-0.107,0.016-0.176,0.021-0.203,0.021V223.688L161.419,223.688z M161.624,227.213
					c0.775,0.017,1.356-0.023,1.753-0.114c0.714-0.183,1.069-0.547,1.069-1.092c0-0.547-0.352-0.91-1.046-1.092
					c-0.379-0.106-0.954-0.145-1.729-0.113h-0.25v2.411H161.624L161.624,227.213z"/>
			</g>
		</g>
	</g>
</g>
<g>
	<g>
		<path fill="#EA651B" d="M151.604,205.058c0.88,1.087,1.942,2.057,3.184,2.857c6.294,4.063,14.688,2.254,18.751-4.041
			c2.166-3.355,2.665-7.312,1.698-10.89c-0.326,2.239-1.122,4.445-2.43,6.47C168.205,206.582,158.977,208.915,151.604,205.058z"/>
		<path fill="#FF7E1C" d="M150.748,189.164c-3.261,5.053-2.737,11.461,0.856,15.896c7.373,3.857,16.6,1.523,21.201-5.603
			c1.307-2.026,2.106-4.23,2.432-6.47c-0.841-3.128-2.801-5.966-5.737-7.862C163.207,181.061,154.813,182.869,150.748,189.164z"/>
	</g>
	<g>
		<g>
			<g>
				<path fill="#FFFFFF" d="M166.269,196.664c0.299,0.38,0.422,0.902,0.362,1.568c-0.091,0.806-0.426,1.39-1.002,1.753
					c-0.501,0.305-1.25,0.485-2.251,0.547v1.547h-1.113v-1.524h-0.866v1.524h-1.113v-1.547h-2.207l0.229-1.32h0.228
					c0.366,0.017,0.597,0.007,0.703-0.023c0.15-0.046,0.242-0.157,0.274-0.34v-4.938c-0.047-0.242-0.176-0.395-0.389-0.454
					c-0.135-0.046-0.422-0.062-0.866-0.046h-0.18v-1.184l0.684,0.023c0.805,0,1.308-0.01,1.523-0.023v-1.797h1.113v1.776
					l0.864-0.022v-1.753h1.114v1.797c0.773,0.075,1.364,0.242,1.771,0.5c0.501,0.304,0.775,0.76,0.819,1.366
					c0.094,0.879-0.217,1.5-0.929,1.864l0,0C165.599,196.079,166.008,196.316,166.269,196.664L166.269,196.664z M161.419,195.686
					h0.181c0.639,0.017,1.131-0.022,1.481-0.113c0.605-0.15,0.908-0.479,0.908-0.979c0-0.5-0.295-0.834-0.885-1.001
					c-0.333-0.091-0.83-0.129-1.481-0.113c-0.107,0.015-0.176,0.021-0.203,0.021V195.686L161.419,195.686z M161.624,199.212
					c0.775,0.016,1.356-0.024,1.753-0.116c0.714-0.181,1.069-0.545,1.069-1.091s-0.352-0.91-1.046-1.092
					c-0.379-0.106-0.954-0.144-1.729-0.113h-0.25v2.412H161.624z"/>
			</g>
		</g>
	</g>
</g>
<g>
	<g>
		<path fill="#EA651B" d="M151.604,177.056c0.88,1.086,1.942,2.056,3.184,2.856c6.294,4.063,14.688,2.254,18.751-4.04
			c2.166-3.356,2.665-7.312,1.698-10.891c-0.326,2.24-1.122,4.446-2.43,6.471C168.205,178.58,158.977,180.914,151.604,177.056z"/>
		<path fill="#FF7E1C" d="M150.748,161.162c-3.261,5.053-2.737,11.461,0.856,15.896c7.373,3.856,16.6,1.523,21.201-5.603
			c1.307-2.026,2.106-4.231,2.432-6.47c-0.841-3.128-2.801-5.966-5.737-7.862C163.207,153.058,154.813,154.867,150.748,161.162z"/>
	</g>
	<g>
		<g>
			<g>
				<path fill="#FFFFFF" d="M166.269,168.662c0.299,0.38,0.422,0.902,0.362,1.569c-0.091,0.805-0.426,1.389-1.002,1.753
					c-0.501,0.303-1.25,0.485-2.251,0.546v1.547h-1.113v-1.525h-0.866v1.525h-1.113v-1.547h-2.207l0.229-1.32h0.228
					c0.366,0.016,0.597,0.006,0.703-0.024c0.15-0.045,0.242-0.157,0.274-0.339v-4.938c-0.047-0.244-0.176-0.395-0.389-0.455
					c-0.135-0.045-0.422-0.061-0.866-0.045h-0.18v-1.184l0.684,0.023c0.805,0,1.308-0.009,1.523-0.023v-1.797h1.113v1.775
					l0.864-0.023v-1.751h1.114v1.797c0.773,0.075,1.364,0.242,1.771,0.5c0.501,0.303,0.775,0.759,0.819,1.366
					c0.094,0.88-0.217,1.5-0.929,1.865l0,0C165.599,168.078,166.008,168.313,166.269,168.662L166.269,168.662z M161.419,167.683
					h0.181c0.639,0.016,1.131-0.021,1.481-0.112c0.605-0.151,0.908-0.479,0.908-0.98c0-0.5-0.295-0.834-0.885-1.002
					c-0.333-0.09-0.83-0.128-1.481-0.113c-0.107,0.015-0.176,0.021-0.203,0.021V167.683L161.419,167.683z M161.624,171.209
					c0.775,0.016,1.356-0.024,1.753-0.115c0.714-0.183,1.069-0.546,1.069-1.091c0-0.547-0.352-0.911-1.046-1.092
					c-0.379-0.106-0.954-0.144-1.729-0.113h-0.25v2.411H161.624L161.624,171.209z"/>
			</g>
		</g>
	</g>
</g>
<g>
	<g>
		<path fill="#EA651B" d="M151.604,149.054c0.88,1.086,1.942,2.056,3.184,2.856c6.294,4.064,14.688,2.254,18.751-4.039
			c2.166-3.357,2.665-7.313,1.698-10.891c-0.326,2.24-1.122,4.445-2.43,6.47C168.205,150.578,158.977,152.911,151.604,149.054z"/>
		<path fill="#FF7E1C" d="M150.748,133.16c-3.261,5.053-2.737,11.461,0.856,15.896c7.373,3.856,16.6,1.523,21.201-5.603
			c1.307-2.025,2.106-4.23,2.432-6.47c-0.841-3.127-2.801-5.965-5.737-7.862C163.207,125.056,154.813,126.865,150.748,133.16z"/>
	</g>
	<g>
		<g>
			<g>
				<path fill="#FFFFFF" d="M166.269,140.66c0.299,0.381,0.422,0.902,0.362,1.57c-0.091,0.804-0.426,1.388-1.002,1.752
					c-0.501,0.304-1.25,0.484-2.251,0.546v1.547h-1.113v-1.525h-0.866v1.525h-1.113v-1.547h-2.207l0.229-1.32h0.228
					c0.366,0.017,0.597,0.006,0.703-0.023c0.15-0.046,0.242-0.158,0.274-0.34v-4.938c-0.047-0.244-0.176-0.395-0.389-0.455
					c-0.135-0.045-0.422-0.061-0.866-0.045h-0.18v-1.183l0.684,0.023c0.805,0,1.308-0.009,1.523-0.023v-1.797h1.113v1.775
					l0.864-0.023v-1.752h1.114v1.797c0.773,0.075,1.364,0.242,1.771,0.5c0.501,0.303,0.775,0.759,0.819,1.366
					c0.094,0.88-0.217,1.501-0.929,1.865l0,0C165.599,140.075,166.008,140.312,166.269,140.66L166.269,140.66z M161.419,139.681
					h0.181c0.639,0.017,1.131-0.021,1.481-0.112c0.605-0.151,0.908-0.479,0.908-0.98c0-0.5-0.295-0.833-0.885-1.001
					c-0.333-0.091-0.83-0.129-1.481-0.114c-0.107,0.016-0.176,0.021-0.203,0.021V139.681L161.419,139.681z M161.624,143.208
					c0.775,0.017,1.356-0.023,1.753-0.115c0.714-0.182,1.069-0.546,1.069-1.091s-0.352-0.91-1.046-1.092
					c-0.379-0.106-0.954-0.144-1.729-0.113h-0.25v2.412H161.624z"/>
			</g>
		</g>
	</g>
</g>
<g>
	<g>
		<defs>
			<rect id="SVGID_1_" x="85.229" y="118.275" width="38.801" height="10.298"/>
		</defs>
		<clipPath id="SVGID_2_">
			<use xlink:href="#SVGID_1_"  overflow="visible"/>
		</clipPath>
		<g clip-path="url(#SVGID_2_)">
			<g>
				<path fill="#EA651B" d="M95.218,121.171c0.881,1.086,1.942,2.056,3.184,2.856c6.294,4.063,14.689,2.255,18.751-4.04
					c2.167-3.357,2.666-7.312,1.699-10.891c-0.326,2.24-1.123,4.446-2.431,6.47C111.818,122.694,102.59,125.029,95.218,121.171z"/>
				<path fill="#FF7E1C" d="M94.362,105.276c-3.261,5.054-2.737,11.461,0.856,15.896c7.372,3.857,16.601,1.523,21.202-5.602
					c1.307-2.027,2.106-4.231,2.432-6.471c-0.842-3.128-2.802-5.967-5.738-7.862C106.82,97.173,98.427,98.981,94.362,105.276z"/>
			</g>
			<g>
				<g>
					<g>
						<path fill="#FFFFFF" d="M109.883,112.777c0.299,0.38,0.422,0.901,0.362,1.568c-0.092,0.805-0.427,1.389-1.003,1.753
							c-0.502,0.304-1.25,0.485-2.251,0.546v1.547h-1.114v-1.525h-0.865v1.525h-1.113v-1.547h-2.207l0.229-1.32h0.228
							c0.366,0.016,0.597,0.006,0.703-0.024c0.15-0.045,0.242-0.157,0.274-0.339v-4.938c-0.047-0.243-0.176-0.395-0.389-0.455
							c-0.134-0.045-0.422-0.061-0.866-0.045h-0.18v-1.183l0.685,0.022c0.805,0,1.308-0.008,1.523-0.022v-1.797h1.114v1.775
							l0.864-0.023v-1.752h1.115v1.797c0.773,0.076,1.363,0.242,1.771,0.5c0.501,0.303,0.775,0.76,0.819,1.366
							c0.094,0.88-0.217,1.501-0.929,1.865l0,0C109.212,112.193,109.621,112.429,109.883,112.777L109.883,112.777z M105.033,111.798
							h0.181c0.638,0.016,1.131-0.021,1.481-0.112c0.604-0.151,0.908-0.479,0.908-0.98c0-0.5-0.295-0.834-0.885-1.002
							c-0.333-0.09-0.831-0.128-1.481-0.113c-0.107,0.015-0.176,0.021-0.203,0.021V111.798z M105.237,115.325
							c0.775,0.016,1.356-0.024,1.753-0.115c0.713-0.183,1.068-0.546,1.068-1.092c0-0.546-0.351-0.91-1.045-1.091
							c-0.379-0.106-0.955-0.144-1.73-0.113h-0.25v2.411H105.237z"/>
					</g>
				</g>
			</g>
		</g>
	</g>
</g>
<g>
	<path fill="#FF7E1C" d="M105.811,99.992c7.039,0,12.765,5.727,12.765,12.765c0,7.038-5.727,12.765-12.765,12.765
		c-7.038,0-12.765-5.727-12.765-12.765C93.046,105.718,98.772,99.992,105.811,99.992 M105.811,99.192
		c-7.492,0-13.564,6.073-13.564,13.565c0,7.491,6.072,13.565,13.564,13.565s13.565-6.074,13.565-13.565
		C119.375,105.265,113.303,99.192,105.811,99.192L105.811,99.192z"/>
</g>
<g>
	<path fill="#FF7E1C" d="M133.867,99.992c7.038,0,12.765,5.727,12.765,12.765c0,7.038-5.727,12.765-12.765,12.765
		c-7.039,0-12.765-5.727-12.765-12.765C121.102,105.718,126.828,99.992,133.867,99.992 M133.867,99.192
		c-7.492,0-13.565,6.073-13.565,13.565c0,7.491,6.073,13.565,13.565,13.565c7.492,0,13.565-6.074,13.565-13.565
		C147.432,105.265,141.359,99.192,133.867,99.192L133.867,99.192z"/>
</g>
<g>
	<path fill="#FF7E1C" d="M162.145,99.992c7.038,0,12.765,5.727,12.765,12.765c0,7.038-5.727,12.765-12.765,12.765
		c-7.039,0-12.765-5.727-12.765-12.765C149.379,105.718,155.106,99.992,162.145,99.992 M162.145,99.192
		c-7.492,0-13.565,6.073-13.565,13.565c0,7.491,6.073,13.565,13.565,13.565c7.492,0,13.564-6.074,13.564-13.565
		C175.709,105.265,169.636,99.192,162.145,99.192L162.145,99.192z"/>
</g>
<rect x="90.214" y="97.651" fill="none" stroke="#FFFFFF" stroke-width="1.6" stroke-linecap="round" stroke-miterlimit="10" stroke-dasharray="3.2,5.6" width="87.2" height="198.4"/>
</svg>
