<?xml version="1.0" encoding="utf-8"?>
<!-- Generator: Adobe Illustrator 16.0.4, SVG Export Plug-In . SVG Version: 6.00 Build 0)  -->
<!DOCTYPE svg PUBLIC "-//W3C//DTD SVG 1.1//EN" "http://www.w3.org/Graphics/SVG/1.1/DTD/svg11.dtd">
<svg version="1.1" id="Layer_1" xmlns="http://www.w3.org/2000/svg" xmlns:xlink="http://www.w3.org/1999/xlink" x="0px" y="0px"
	 width="375px" height="375px" viewBox="0 0 375 375" enable-background="new 0 0 375 375" xml:space="preserve">
<g>
	<path fill="#D0DAE3" d="M66.324,67.168V65.07l5.174-5.548c0.747-0.857,1.278-1.58,1.593-2.17c0.314-0.589,0.472-1.137,0.472-1.642
		c0-0.674-0.181-1.225-0.544-1.654c-0.362-0.428-0.877-0.643-1.543-0.643c-0.74,0-1.302,0.251-1.687,0.752
		c-0.384,0.502-0.577,1.17-0.577,2.005h-3.12l-0.022-0.065c-0.037-1.443,0.438-2.665,1.423-3.664c0.985-1,2.312-1.5,3.982-1.5
		c1.648,0,2.944,0.429,3.889,1.286s1.417,2,1.417,3.428c0,0.967-0.266,1.86-0.797,2.681s-1.412,1.89-2.642,3.208l-2.845,3.109
		l0.021,0.055h4.153l0.132-1.582h2.438v4.043H66.324z"/>
	<path fill="#D0DAE3" d="M78.673,65.246l2.702-0.33V54.084H78.64v-1.835l5.933-1.077v13.744l2.703,0.33v1.922h-8.602V65.246z"/>
	<path fill="#D0DAE3" d="M92.296,66.74c0,0.747-0.211,1.538-0.632,2.373c-0.421,0.835-0.936,1.52-1.544,2.054l-1.582-0.857
		c0.286-0.513,0.506-1.042,0.659-1.587c0.154-0.546,0.231-1.156,0.231-1.83v-2.395h2.878L92.296,66.74z"/>
	<path fill="#D0DAE3" d="M105.314,60.939c0,2.116-0.485,3.723-1.456,4.817c-0.971,1.095-2.284,1.643-3.939,1.643
		c-1.67,0-2.992-0.548-3.966-1.643s-1.461-2.701-1.461-4.817v-3.527c0-2.109,0.485-3.715,1.456-4.817
		c0.97-1.103,2.287-1.654,3.95-1.654c1.655,0,2.972,0.551,3.949,1.654c0.978,1.102,1.467,2.708,1.467,4.817V60.939z M102.117,57.083
		c0-1.267-0.19-2.195-0.571-2.785c-0.381-0.589-0.93-0.884-1.647-0.884c-0.726,0-1.274,0.293-1.648,0.879
		c-0.373,0.586-0.56,1.516-0.56,2.791v4.164c0,1.289,0.188,2.227,0.566,2.812c0.377,0.586,0.932,0.879,1.664,0.879
		c0.718,0,1.264-0.293,1.637-0.879s0.56-1.523,0.56-2.812V57.083z"/>
	<path fill="#D0DAE3" d="M118.168,60.939c0,2.116-0.485,3.723-1.456,4.817c-0.971,1.095-2.283,1.643-3.938,1.643
		c-1.67,0-2.992-0.548-3.966-1.643s-1.461-2.701-1.461-4.817v-3.527c0-2.109,0.485-3.715,1.456-4.817
		c0.97-1.103,2.287-1.654,3.949-1.654c1.655,0,2.972,0.551,3.95,1.654c0.978,1.102,1.467,2.708,1.467,4.817V60.939z M114.972,57.083
		c0-1.267-0.19-2.195-0.571-2.785c-0.381-0.589-0.931-0.884-1.648-0.884c-0.725,0-1.274,0.293-1.647,0.879
		c-0.374,0.586-0.561,1.516-0.561,2.791v4.164c0,1.289,0.188,2.227,0.566,2.812c0.377,0.586,0.932,0.879,1.665,0.879
		c0.718,0,1.263-0.293,1.637-0.879s0.561-1.523,0.561-2.812V57.083z"/>
	<path fill="#D0DAE3" d="M131.022,60.939c0,2.116-0.485,3.723-1.456,4.817c-0.971,1.095-2.284,1.643-3.939,1.643
		c-1.67,0-2.992-0.548-3.966-1.643s-1.461-2.701-1.461-4.817v-3.527c0-2.109,0.485-3.715,1.456-4.817
		c0.97-1.103,2.287-1.654,3.95-1.654c1.655,0,2.972,0.551,3.949,1.654c0.978,1.102,1.467,2.708,1.467,4.817V60.939z M127.825,57.083
		c0-1.267-0.19-2.195-0.571-2.785c-0.381-0.589-0.93-0.884-1.647-0.884c-0.726,0-1.274,0.293-1.648,0.879
		c-0.373,0.586-0.56,1.516-0.56,2.791v4.164c0,1.289,0.188,2.227,0.566,2.812c0.377,0.586,0.932,0.879,1.664,0.879
		c0.718,0,1.264-0.293,1.637-0.879s0.56-1.523,0.56-2.812V57.083z"/>
	<path fill="#D0DAE3" d="M136.384,66.74c0,0.747-0.211,1.538-0.632,2.373s-0.936,1.52-1.543,2.054l-1.582-0.857
		c0.286-0.513,0.505-1.042,0.659-1.587c0.154-0.546,0.231-1.156,0.231-1.83v-2.395h2.878L136.384,66.74z"/>
	<path fill="#D0DAE3" d="M149.402,60.939c0,2.116-0.485,3.723-1.455,4.817c-0.971,1.095-2.284,1.643-3.939,1.643
		c-1.67,0-2.992-0.548-3.966-1.643c-0.974-1.095-1.461-2.701-1.461-4.817v-3.527c0-2.109,0.485-3.715,1.456-4.817
		c0.97-1.103,2.287-1.654,3.949-1.654c1.655,0,2.972,0.551,3.949,1.654c0.979,1.102,1.467,2.708,1.467,4.817V60.939z
		 M146.206,57.083c0-1.267-0.19-2.195-0.571-2.785c-0.381-0.589-0.93-0.884-1.648-0.884c-0.725,0-1.274,0.293-1.648,0.879
		s-0.56,1.516-0.56,2.791v4.164c0,1.289,0.188,2.227,0.565,2.812s0.932,0.879,1.665,0.879c0.718,0,1.263-0.293,1.637-0.879
		c0.373-0.586,0.56-1.523,0.56-2.812V57.083z"/>
	<path fill="#D0DAE3" d="M162.257,60.939c0,2.116-0.485,3.723-1.456,4.817s-2.283,1.643-3.938,1.643
		c-1.67,0-2.992-0.548-3.966-1.643c-0.975-1.095-1.461-2.701-1.461-4.817v-3.527c0-2.109,0.485-3.715,1.456-4.817
		c0.971-1.103,2.287-1.654,3.95-1.654c1.655,0,2.972,0.551,3.95,1.654c0.978,1.102,1.467,2.708,1.467,4.817V60.939z M159.06,57.083
		c0-1.267-0.19-2.195-0.571-2.785c-0.381-0.589-0.93-0.884-1.648-0.884c-0.725,0-1.274,0.293-1.648,0.879s-0.561,1.516-0.561,2.791
		v4.164c0,1.289,0.188,2.227,0.566,2.812c0.377,0.586,0.932,0.879,1.664,0.879c0.718,0,1.264-0.293,1.637-0.879
		c0.374-0.586,0.561-1.523,0.561-2.812V57.083z"/>
	<path fill="#D0DAE3" d="M175.11,60.939c0,2.116-0.485,3.723-1.455,4.817c-0.971,1.095-2.284,1.643-3.939,1.643
		c-1.67,0-2.992-0.548-3.966-1.643c-0.974-1.095-1.461-2.701-1.461-4.817v-3.527c0-2.109,0.485-3.715,1.456-4.817
		c0.97-1.103,2.287-1.654,3.949-1.654c1.655,0,2.972,0.551,3.949,1.654c0.979,1.102,1.467,2.708,1.467,4.817V60.939z
		 M171.914,57.083c0-1.267-0.19-2.195-0.571-2.785c-0.381-0.589-0.93-0.884-1.648-0.884c-0.725,0-1.274,0.293-1.648,0.879
		s-0.56,1.516-0.56,2.791v4.164c0,1.289,0.188,2.227,0.565,2.812s0.932,0.879,1.665,0.879c0.718,0,1.263-0.293,1.637-0.879
		c0.373-0.586,0.56-1.523,0.56-2.812V57.083z"/>
</g>
<ellipse opacity="0.3" fill="#232323" enable-background="new    " cx="249.49" cy="315.909" rx="49.944" ry="8.061"/>
<ellipse opacity="0.3" fill="#232323" enable-background="new    " cx="155.108" cy="320.829" rx="17.024" ry="2.748"/>
<ellipse opacity="0.3" fill="#232323" enable-background="new    " cx="119.803" cy="320.829" rx="17.024" ry="2.748"/>
<ellipse opacity="0.3" fill="#232323" enable-background="new    " cx="84.499" cy="320.829" rx="17.024" ry="2.748"/>
<path fill="#232323" d="M285.667,258.766c-0.204,1.632-5.607,47.746-13.462,54.21c-7.854,6.461-11.98,4.286-13.574,2.57
	c-1.671-1.803-3.781-5.035,0.13-8.684c3.146-2.934,5.354-15.926,2.218-36.2L285.667,258.766z"/>
<path fill="#232323" d="M255.673,255.889c-0.207,1.63-5.606,47.745-13.46,54.211c-7.858,6.462-11.982,4.287-13.577,2.568
	c-1.672-1.8-3.783-5.032,0.13-8.679c3.145-2.936,5.355-15.926,2.217-36.204L255.673,255.889z"/>
<path fill="#232323" d="M234.704,194.366c3.29-1.496,7.179-0.515,8.882,3.061c1.702,3.549-0.407,9.117-4.985,11.236
	c-13.019,6.033-27.317,5.109-39.447-2.553c-4.267-2.689-5.644-8.484-3.501-11.781c2.15-3.326,6.137-3.802,9.206-1.893
	C214.037,198.227,224.853,198.932,234.704,194.366z"/>
<path fill="#FFFFFF" d="M279.382,189.112c-9.079-5.036-20.584-7.742-41.823-8.573c5.064-2.141,11.766-3.139,21.574-3.139h0.014
	c16.786,0,24.55,2.862,30.395,9.516c6.898,7.855,10.381,30.316,11.081,47.796C299.504,218.301,292.844,196.595,279.382,189.112z"/>
<path fill="#444444" d="M300.62,234.714c0.163,2.415,0.2,4.705,0.133,6.826C300.756,239.39,300.714,237.1,300.62,234.714z"/>
<path fill="#444444" d="M315.309,262.884c2.396,1.703,5.494,2.293,7.128,0.835c1.627-1.442,1.135-5.119-1.53-7.765
	c-7.212-7.188-16.683-12.028-27.112-13.582c-3.885-0.566-6.703,2.711-6.229,6.678c0.469,3.987,2.896,6.836,5.562,6.805
	C300.753,255.733,308.585,258.063,315.309,262.884z"/>
<g>
	<path fill="#FFFFFF" d="M292.185,159.218c3.59-14.738-6.358-24.08-32.208-27.197c-8.203-0.991-15.229-11.119-21.071-13.248
		c-16.804-6.121-21.538,4.782-21.538,4.782h-0.035c9.587-18.768,34.312-28.596,59.526-22.343
		c28.618,7.104,47.011,32.23,41.083,56.121c-5.928,23.899-33.933,37.514-62.549,30.414c-2.494-0.619-4.904-1.383-7.232-2.264
		l0.003-0.028C272.934,193.458,287.419,178.778,292.185,159.218z"/>
	<path fill="#444444" d="M214.306,131.626c0.704-2.845,1.731-5.538,3.024-8.071h0.035c0,0,4.736-10.903,21.538-4.782
		c5.841,2.129,12.865,12.257,21.071,13.248c25.85,3.119,35.797,12.459,32.208,27.197c-4.769,19.561-19.251,34.24-44.021,26.237
		l-0.006,0.028C223.757,176.269,208.895,153.437,214.306,131.626z"/>
	<path fill="#7F7F7F" d="M238.727,175.064c5.435,1.577,17.328-0.498,18.091-12.398c0.768-11.896-11.907-16.533-16.194-17.772
		c-4.289-1.242-17.097-3.99-17.859,7.904C222,164.698,233.287,173.488,238.727,175.064z"/>
	<path fill="#232323" d="M240.163,147.941c-2.362-0.686-6.028,0.955-6.641,3.933c-0.607,2.978,6.232,4.848,6.232,4.848l0.197,0.057
		c0,0,6.829,2.092,6.617-1.124c-0.212-3.215-3.537-6.881-5.896-7.565L240.163,147.941z"/>
	<path fill="none" stroke="#232323" stroke-width="1.5593" stroke-linecap="round" stroke-miterlimit="10" d="M231.117,160.464
		c0.383,1.303,0.979,2.546,1.74,3.662c0.768,1.124,1.693,2.113,2.745,2.922c1.055,0.812,2.227,1.428,3.479,1.788
		c1.248,0.364,2.457,0.437,3.57,0.26c1.115-0.186,2.14-0.611,3.017-1.256c0.877-0.643,1.605-1.505,2.141-2.534"/>
	<circle fill="#232323" cx="263.74" cy="147.346" r="2.187"/>
	<circle fill="#232323" cx="230.735" cy="133.378" r="2.188"/>
	<path fill="#444444" d="M284.082,161.306c-2.18,8.321-1.302,15.762,1.963,16.617c3.262,0.849,7.67-5.204,9.848-13.521
		c2.18-8.324,1.297-15.762-1.958-16.612C290.672,146.932,286.262,152.988,284.082,161.306z"/>
	<path fill="#232323" d="M290.047,152.933c2.684,0.723,3.706,6.323,2.889,13.725c0.304-0.886,0.585-1.813,0.838-2.787
		c1.676-6.544,1.312-12.312-0.811-12.884c-0.902-0.243-1.98,0.5-3.048,1.931C289.959,152.927,290.006,152.92,290.047,152.933z"/>
	<path fill="none" stroke="#7F7F7F" stroke-width="1.7213" stroke-linecap="round" stroke-miterlimit="10" d="M270.36,149.115
		c0.114-0.764,0.075-1.535-0.104-2.271c-0.178-0.737-0.497-1.438-0.951-2.066c-0.444-0.622-1.024-1.171-1.725-1.598
		c-0.698-0.427-1.454-0.692-2.212-0.806"/>
	<path fill="none" stroke="#7F7F7F" stroke-width="1.7213" stroke-linecap="round" stroke-miterlimit="10" d="M233.518,128.278
		c-0.648-0.413-1.373-0.696-2.115-0.836c-0.748-0.14-1.519-0.137-2.274,0.019c-0.753,0.149-1.486,0.455-2.164,0.918
		c-0.679,0.462-1.226,1.041-1.642,1.691"/>
</g>
<path fill="#444444" d="M228.737,186.919c2.131-2.427,4.527-4.348,7.52-5.812c0.415-0.2,0.861-0.381,1.299-0.567
	c3.423,0.136,6.565,0.324,9.514,0.556c7.23,0.256,12.894,1.065,17.493,2.506c5.926,1.375,10.637,3.191,14.817,5.516
	c13.462,7.479,20.124,29.185,21.239,45.602c0.092,2.384,0.137,4.675,0.132,6.824c-0.02,5.554-0.37,10.162-1.036,12.949
	c-0.72,3.019-3.605,5.59-8.135,7.621c-7.226,3.235-18.667,5.084-32.436,5.084h-0.016c-1.288,0-2.556-0.02-3.805-0.053
	c-0.385-0.01-0.762-0.029-1.144-0.039c-0.866-0.033-1.72-0.062-2.563-0.11c-0.42-0.022-0.836-0.049-1.25-0.073
	c-0.816-0.051-1.62-0.111-2.414-0.174c-0.371-0.034-0.75-0.059-1.119-0.098c-0.965-0.083-1.907-0.186-2.836-0.296
	c-0.16-0.022-0.33-0.036-0.49-0.056c-1.096-0.135-2.156-0.285-3.192-0.452c-0.253-0.041-0.491-0.087-0.738-0.128
	c-0.774-0.131-1.532-0.266-2.273-0.416c-0.312-0.061-0.616-0.125-0.921-0.188c-0.667-0.145-1.318-0.292-1.953-0.444
	c-0.29-0.073-0.581-0.143-0.867-0.213c-0.686-0.183-1.351-0.366-1.999-0.564c-0.151-0.044-0.313-0.083-0.463-0.131
	c0.01,0,0.012,0,0.02,0c-4.435-1.373-7.875-3.122-10.051-5.202c-0.024-0.02-0.038-0.046-0.059-0.065
	c-0.409-0.392-0.777-0.797-1.094-1.214c-0.124-0.161-0.2-0.338-0.31-0.499c-0.187-0.285-0.386-0.568-0.529-0.857
	c-0.23-0.467-0.401-0.943-0.52-1.432C215.748,242.715,218.463,198.612,228.737,186.919z"/>
<ellipse fill="#444444" cx="258.988" cy="249.25" rx="41.229" ry="32.487"/>
<g>
	<path fill="#232323" d="M274.577,198.223c2.313-2.778,6.243-3.581,9.331-1.104c3.077,2.457,3.594,8.386,0.391,12.284
		c-9.101,11.088-22.38,16.477-36.637,14.848c-5.008-0.57-8.77-5.186-8.271-9.088c0.493-3.929,3.875-6.092,7.471-5.709
		C257.644,210.687,267.688,206.614,274.577,198.223z"/>
	<path fill="#232323" d="M235.787,212.421c-0.962-0.18-1.812-0.787-1.843-1.508c-0.031-0.725,0.96-1.454,2.207-1.425
		c3.378,0.062,6.717,1.208,9.491,3.339c1.026,0.797,0.896,2.225-0.16,3.03c-1.059,0.807-2.299,0.879-2.905,0.239
		C240.845,214.245,238.485,212.912,235.787,212.421z"/>
	<path fill="#232323" d="M234.652,217.958c-0.973,0.094-1.96-0.25-2.187-0.937c-0.233-0.688,0.52-1.661,1.721-1.98
		c3.261-0.878,6.788-0.701,10.044,0.574c1.209,0.479,1.479,1.89,0.686,2.95c-0.792,1.07-1.962,1.486-2.727,1.036
		C240.021,218.307,237.381,217.683,234.652,217.958z"/>
	<path fill="#232323" d="M236.411,223.458c-0.821,0.527-1.856,0.673-2.375,0.16c-0.515-0.505-0.291-1.711,0.638-2.55
		c2.502-2.264,5.723-3.714,9.2-4.057c1.296-0.126,2.18,1.005,1.958,2.315c-0.221,1.31-1.072,2.218-1.956,2.16
		C241.353,221.323,238.718,221.97,236.411,223.458z"/>
</g>
<path fill="#232323" d="M254.445,311.057c-0.984,0.278-2.07,0.112-2.437-0.554c-0.367-0.664,0.22-1.814,1.403-2.374
	c3.203-1.527,6.875-2.021,10.48-1.319c1.343,0.266,1.891,1.672,1.274,2.918c-0.619,1.256-1.745,1.91-2.616,1.593
	C260.055,310.395,257.212,310.25,254.445,311.057z"/>
<path fill="#232323" d="M255.979,316.791c-0.868,0.544-1.954,0.684-2.494,0.147c-0.539-0.536-0.291-1.803,0.688-2.673
	c2.653-2.354,6.045-3.844,9.706-4.176c1.362-0.115,2.275,1.083,2.031,2.452c-0.244,1.375-1.146,2.32-2.073,2.256
	C261.188,314.6,258.417,315.249,255.979,316.791z"/>
<path fill="#232323" d="M260.219,321.13c-0.525,0.877-1.431,1.501-2.156,1.269c-0.722-0.232-1.08-1.476-0.604-2.694
	c1.291-3.302,3.635-6.173,6.744-8.13c1.159-0.732,2.52-0.083,2.926,1.251c0.408,1.339,0.037,2.591-0.822,2.951
	C263.854,316.808,261.686,318.648,260.219,321.13z"/>
<path fill="#232323" d="M223.097,307.645c-0.981,0.28-2.071,0.117-2.438-0.55c-0.365-0.668,0.222-1.816,1.404-2.378
	c3.205-1.524,6.875-2.016,10.48-1.317c1.344,0.264,1.889,1.67,1.275,2.917c-0.617,1.256-1.745,1.909-2.617,1.595
	C228.706,306.983,225.862,306.837,223.097,307.645z"/>
<path fill="#232323" d="M224.63,313.382c-0.867,0.543-1.953,0.686-2.491,0.145c-0.541-0.533-0.295-1.803,0.685-2.667
	c2.656-2.354,6.049-3.847,9.71-4.176c1.361-0.118,2.276,1.083,2.028,2.45c-0.242,1.375-1.145,2.319-2.073,2.252
	C229.839,311.187,227.067,311.839,224.63,313.382z"/>
<path fill="#232323" d="M228.869,317.721c-0.524,0.88-1.43,1.503-2.155,1.267c-0.72-0.232-1.081-1.474-0.602-2.692
	c1.29-3.302,3.633-6.176,6.742-8.133c1.157-0.729,2.52-0.077,2.923,1.257c0.41,1.333,0.039,2.585-0.816,2.947
	C232.506,313.401,230.336,315.241,228.869,317.721z"/>
<path fill="#232323" d="M190.085,195.263c-0.988-0.338-1.794-1.105-1.714-1.879c0.078-0.77,1.239-1.381,2.551-1.163
	c3.557,0.587,6.901,2.317,9.505,4.993c0.963,1.002,0.6,2.489-0.636,3.175c-1.245,0.683-2.567,0.575-3.106-0.2
	C195.147,197.972,192.859,196.202,190.085,195.263z"/>
<path fill="#232323" d="M189.365,201.38c-1.027,0.151-2.098-0.164-2.376-0.89c-0.28-0.719,0.472-1.794,1.74-2.197
	c3.436-1.093,7.199-1.083,10.736,0.121c1.309,0.448,1.668,1.937,0.873,3.112c-0.791,1.182-2.021,1.684-2.853,1.24
	C195.104,201.491,192.266,200.955,189.365,201.38z"/>
<path fill="#232323" d="M193.635,190.379c-0.854-0.598-1.417-1.559-1.127-2.279c0.289-0.711,1.573-0.985,2.771-0.411
	c3.254,1.555,5.99,4.141,7.745,7.437c0.651,1.231-0.11,2.558-1.492,2.868c-1.385,0.318-2.622-0.154-2.928-1.049
	C197.742,194.39,196.039,192.054,193.635,190.379z"/>
<g>
	<g>
		<path fill="#EA651B" d="M71.255,314.466c1.101,1.358,2.427,2.57,3.98,3.571c7.868,5.079,18.361,2.818,23.439-5.05
			c2.708-4.195,3.332-9.14,2.123-13.612c-0.407,2.799-1.403,5.556-3.037,8.087C92.006,316.37,80.47,319.288,71.255,314.466z"/>
		<path fill="#FF7E1C" d="M70.185,294.599c-4.076,6.316-3.422,14.326,1.07,19.869c9.215,4.821,20.751,1.904,26.502-7.003
			c1.634-2.532,2.633-5.288,3.04-8.088c-1.052-3.909-3.501-7.458-7.172-9.827C85.758,284.469,75.266,286.729,70.185,294.599z"/>
	</g>
	<g>
		<g>
			<g>
				<path fill="#FFFFFF" d="M89.586,303.974c0.374,0.475,0.528,1.127,0.452,1.961c-0.114,1.006-0.532,1.736-1.254,2.191
					c-0.626,0.379-1.562,0.606-2.814,0.683v1.934h-1.392v-1.906h-1.082v1.906h-1.391v-1.934h-2.759l0.287-1.65h0.285
					c0.456,0.021,0.746,0.008,0.879-0.03c0.188-0.056,0.302-0.196,0.343-0.424v-6.172c-0.059-0.304-0.22-0.493-0.486-0.568
					c-0.168-0.057-0.528-0.076-1.082-0.057h-0.225v-1.479l0.856,0.029c1.006,0,1.635-0.012,1.904-0.029v-2.246H83.5v2.219
					l1.08-0.028v-2.19h1.394v2.246c0.967,0.094,1.704,0.303,2.214,0.625c0.627,0.379,0.969,0.949,1.024,1.707
					c0.117,1.1-0.271,1.876-1.161,2.331l0,0C88.748,303.243,89.259,303.538,89.586,303.974L89.586,303.974z M83.524,302.75h0.226
					c0.798,0.021,1.414-0.027,1.851-0.14c0.756-0.189,1.135-0.599,1.135-1.225c0-0.625-0.369-1.042-1.106-1.252
					c-0.417-0.113-1.038-0.16-1.852-0.141c-0.134,0.019-0.22,0.027-0.254,0.027V302.75z M83.779,307.158
					c0.969,0.021,1.695-0.03,2.191-0.144c0.892-0.227,1.336-0.682,1.336-1.365c0-0.682-0.439-1.137-1.307-1.364
					c-0.474-0.133-1.193-0.179-2.162-0.141h-0.313v3.014H83.779z"/>
			</g>
		</g>
	</g>
</g>
<g>
	<g>
		<path fill="#EA651B" d="M71.255,279.464c1.101,1.357,2.427,2.57,3.98,3.57c7.868,5.08,18.361,2.818,23.439-5.049
			c2.708-4.196,3.332-9.141,2.123-13.613c-0.407,2.799-1.403,5.557-3.037,8.087C92.006,281.368,80.47,284.285,71.255,279.464z"/>
		<path fill="#FF7E1C" d="M70.185,259.596c-4.076,6.316-3.422,14.326,1.07,19.87c9.215,4.82,20.751,1.903,26.502-7.004
			c1.634-2.533,2.633-5.288,3.04-8.087c-1.052-3.91-3.501-7.458-7.172-9.828C85.758,249.467,75.266,251.727,70.185,259.596z"/>
	</g>
	<g>
		<g>
			<g>
				<path fill="#FFFFFF" d="M89.586,268.972c0.374,0.475,0.528,1.127,0.452,1.961c-0.114,1.005-0.532,1.736-1.254,2.191
					c-0.626,0.379-1.562,0.605-2.814,0.682v1.934h-1.392v-1.906h-1.082v1.906h-1.391v-1.934h-2.759l0.287-1.65h0.285
					c0.456,0.021,0.746,0.008,0.879-0.029c0.188-0.057,0.302-0.197,0.343-0.425v-6.172c-0.059-0.304-0.22-0.493-0.486-0.568
					c-0.168-0.056-0.528-0.076-1.082-0.056h-0.225v-1.479l0.856,0.029c1.006,0,1.635-0.011,1.904-0.029v-2.246H83.5v2.22l1.08-0.029
					v-2.19h1.394v2.246c0.967,0.095,1.704,0.303,2.214,0.625c0.627,0.379,0.969,0.949,1.024,1.707
					c0.117,1.1-0.271,1.876-1.161,2.331l0,0C88.748,268.24,89.259,268.536,89.586,268.972L89.586,268.972z M83.524,267.747h0.226
					c0.798,0.021,1.414-0.027,1.851-0.139c0.756-0.19,1.135-0.6,1.135-1.226c0-0.625-0.369-1.042-1.106-1.251
					c-0.417-0.113-1.038-0.161-1.852-0.142c-0.134,0.019-0.22,0.028-0.254,0.028V267.747z M83.779,272.155
					c0.969,0.021,1.695-0.029,2.191-0.143c0.892-0.228,1.336-0.683,1.336-1.365s-0.439-1.138-1.307-1.365
					c-0.474-0.133-1.193-0.179-2.162-0.141h-0.313v3.014H83.779z"/>
			</g>
		</g>
	</g>
</g>
<g>
	<g>
		<path fill="#EA651B" d="M71.255,244.461c1.101,1.358,2.427,2.571,3.98,3.571c7.868,5.08,18.361,2.818,23.439-5.05
			c2.708-4.196,3.332-9.14,2.123-13.612c-0.407,2.799-1.403,5.556-3.037,8.086C92.006,246.366,80.47,249.283,71.255,244.461z"/>
		<path fill="#FF7E1C" d="M70.185,224.593c-4.076,6.317-3.422,14.327,1.07,19.87c9.215,4.821,20.751,1.904,26.502-7.003
			c1.634-2.533,2.633-5.289,3.04-8.088c-1.052-3.91-3.501-7.458-7.172-9.828C85.758,214.464,75.266,216.725,70.185,224.593z"/>
	</g>
	<g>
		<g>
			<g>
				<path fill="#FFFFFF" d="M89.586,233.969c0.374,0.475,0.528,1.128,0.452,1.961c-0.114,1.006-0.532,1.736-1.254,2.191
					c-0.626,0.38-1.562,0.606-2.814,0.683v1.934h-1.392v-1.906h-1.082v1.906h-1.391v-1.934h-2.759l0.287-1.65h0.285
					c0.456,0.02,0.746,0.008,0.879-0.03c0.188-0.056,0.302-0.196,0.343-0.424v-6.172c-0.059-0.304-0.22-0.493-0.486-0.569
					c-0.168-0.056-0.528-0.076-1.082-0.056h-0.225v-1.479l0.856,0.028c1.006,0,1.635-0.011,1.904-0.028v-2.246H83.5v2.219
					l1.08-0.028v-2.19h1.394v2.246c0.967,0.094,1.704,0.302,2.214,0.625c0.627,0.379,0.969,0.949,1.024,1.707
					c0.117,1.1-0.271,1.876-1.161,2.331l0,0C88.748,233.237,89.259,233.534,89.586,233.969L89.586,233.969z M83.524,232.745h0.226
					c0.798,0.02,1.414-0.027,1.851-0.14c0.756-0.189,1.135-0.599,1.135-1.225c0-0.625-0.369-1.042-1.106-1.252
					c-0.417-0.113-1.038-0.16-1.852-0.141c-0.134,0.019-0.22,0.027-0.254,0.027V232.745z M83.779,237.153
					c0.969,0.02,1.695-0.03,2.191-0.144c0.892-0.228,1.336-0.683,1.336-1.364c0-0.684-0.439-1.138-1.307-1.365
					c-0.474-0.133-1.193-0.18-2.162-0.141h-0.313v3.014H83.779z"/>
			</g>
		</g>
	</g>
</g>
<g>
	<g>
		<path fill="#EA651B" d="M71.255,209.458c1.101,1.358,2.427,2.571,3.98,3.571c7.868,5.08,18.361,2.818,23.439-5.05
			c2.708-4.195,3.332-9.14,2.123-13.613c-0.407,2.8-1.403,5.557-3.037,8.088C92.006,211.363,80.47,214.28,71.255,209.458z"/>
		<path fill="#FF7E1C" d="M70.185,189.591c-4.076,6.316-3.422,14.326,1.07,19.869c9.215,4.822,20.751,1.904,26.502-7.003
			c1.634-2.532,2.633-5.288,3.04-8.087c-1.052-3.91-3.501-7.458-7.172-9.828C85.758,179.462,75.266,181.722,70.185,189.591z"/>
	</g>
	<g>
		<g>
			<g>
				<path fill="#FFFFFF" d="M89.586,198.966c0.374,0.475,0.528,1.128,0.452,1.961c-0.114,1.006-0.532,1.736-1.254,2.191
					c-0.626,0.38-1.562,0.607-2.814,0.683v1.934h-1.392v-1.906h-1.082v1.906h-1.391v-1.934h-2.759l0.287-1.65h0.285
					c0.456,0.021,0.746,0.008,0.879-0.03c0.188-0.056,0.302-0.196,0.343-0.424v-6.172c-0.059-0.303-0.22-0.493-0.486-0.568
					c-0.168-0.057-0.528-0.076-1.082-0.057h-0.225v-1.479l0.856,0.029c1.006,0,1.635-0.012,1.904-0.029v-2.246H83.5v2.219
					l1.08-0.028v-2.19h1.394v2.246c0.967,0.094,1.704,0.302,2.214,0.625c0.627,0.379,0.969,0.949,1.024,1.707
					c0.117,1.1-0.271,1.876-1.161,2.331l0,0C88.748,198.235,89.259,198.531,89.586,198.966L89.586,198.966z M83.524,197.743h0.226
					c0.798,0.02,1.414-0.028,1.851-0.141c0.756-0.189,1.135-0.599,1.135-1.225c0-0.625-0.369-1.042-1.106-1.251
					c-0.417-0.114-1.038-0.161-1.852-0.142c-0.134,0.019-0.22,0.027-0.254,0.027V197.743z M83.779,202.15
					c0.969,0.021,1.695-0.03,2.191-0.144c0.892-0.227,1.336-0.682,1.336-1.364s-0.439-1.138-1.307-1.365
					c-0.474-0.133-1.193-0.179-2.162-0.141h-0.313v3.014H83.779z"/>
			</g>
		</g>
	</g>
</g>
<g>
	<g>
		<path fill="#EA651B" d="M71.255,174.456c1.101,1.358,2.427,2.57,3.98,3.571c7.868,5.079,18.361,2.818,23.439-5.05
			c2.708-4.196,3.332-9.14,2.123-13.613c-0.407,2.8-1.403,5.557-3.037,8.088C92.006,176.361,80.47,179.278,71.255,174.456z"/>
		<path fill="#FF7E1C" d="M70.185,154.588c-4.076,6.317-3.422,14.326,1.07,19.87c9.215,4.821,20.751,1.904,26.502-7.003
			c1.634-2.533,2.633-5.289,3.04-8.088c-1.052-3.91-3.501-7.458-7.172-9.828C85.758,144.459,75.266,146.72,70.185,154.588z"/>
	</g>
	<g>
		<g>
			<g>
				<path fill="#FFFFFF" d="M89.586,163.964c0.374,0.475,0.528,1.127,0.452,1.961c-0.114,1.006-0.532,1.736-1.254,2.191
					c-0.626,0.379-1.562,0.606-2.814,0.683v1.934h-1.392v-1.906h-1.082v1.906h-1.391v-1.934h-2.759l0.287-1.65h0.285
					c0.456,0.02,0.746,0.008,0.879-0.03c0.188-0.056,0.302-0.196,0.343-0.424v-6.172c-0.059-0.304-0.22-0.493-0.486-0.569
					c-0.168-0.056-0.528-0.076-1.082-0.056h-0.225v-1.479l0.856,0.028c1.006,0,1.635-0.011,1.904-0.028v-2.246H83.5v2.219
					l1.08-0.029v-2.189h1.394v2.246c0.967,0.094,1.704,0.302,2.214,0.625c0.627,0.379,0.969,0.949,1.024,1.707
					c0.117,1.1-0.271,1.876-1.161,2.331l0,0C88.748,163.233,89.259,163.528,89.586,163.964L89.586,163.964z M83.524,162.74h0.226
					c0.798,0.02,1.414-0.027,1.851-0.14c0.756-0.189,1.135-0.599,1.135-1.225c0-0.625-0.369-1.042-1.106-1.252
					c-0.417-0.113-1.038-0.16-1.852-0.141c-0.134,0.019-0.22,0.027-0.254,0.027V162.74z M83.779,167.148
					c0.969,0.02,1.695-0.03,2.191-0.144c0.892-0.228,1.336-0.683,1.336-1.364c0-0.683-0.439-1.138-1.307-1.365
					c-0.474-0.133-1.193-0.18-2.162-0.141h-0.313v3.014H83.779z"/>
			</g>
		</g>
	</g>
</g>
<g>
	<path fill="#EA651B" d="M71.255,139.454c1.101,1.357,2.427,2.57,3.98,3.57c7.868,5.08,18.361,2.818,23.439-5.049
		c2.708-4.196,3.332-9.141,2.123-13.613c-0.407,2.799-1.403,5.556-3.037,8.087C92.006,141.358,80.47,144.275,71.255,139.454z"/>
	<path fill="#FF7E1C" d="M70.185,119.586c-4.076,6.316-3.422,14.326,1.07,19.869c9.215,4.821,20.751,1.904,26.502-7.003
		c1.634-2.532,2.633-5.288,3.04-8.088c-1.052-3.909-3.501-7.457-7.172-9.827C85.758,109.456,75.266,111.717,70.185,119.586z"/>
</g>
<g>
	<g>
		<g>
			<path fill="#FFFFFF" d="M89.586,128.961c0.374,0.476,0.528,1.128,0.452,1.962c-0.114,1.005-0.532,1.735-1.254,2.19
				c-0.626,0.38-1.562,0.606-2.814,0.683v1.934h-1.392v-1.906h-1.082v1.906h-1.391v-1.934h-2.759l0.287-1.65h0.285
				c0.456,0.021,0.746,0.008,0.879-0.029c0.188-0.057,0.302-0.197,0.343-0.425v-6.172c-0.059-0.304-0.22-0.493-0.486-0.568
				c-0.168-0.057-0.528-0.076-1.082-0.057h-0.225v-1.479l0.856,0.029c1.006,0,1.635-0.011,1.904-0.029v-2.246H83.5v2.219l1.08-0.028
				v-2.19h1.394v2.246c0.967,0.094,1.704,0.302,2.214,0.625c0.627,0.379,0.969,0.949,1.024,1.707c0.117,1.1-0.271,1.876-1.161,2.331
				l0,0C88.748,128.23,89.259,128.526,89.586,128.961L89.586,128.961z M83.524,127.737h0.226c0.798,0.021,1.414-0.027,1.851-0.14
				c0.756-0.189,1.135-0.599,1.135-1.225c0-0.625-0.369-1.042-1.106-1.251c-0.417-0.114-1.038-0.161-1.852-0.142
				c-0.134,0.019-0.22,0.027-0.254,0.027V127.737z M83.779,132.146c0.969,0.021,1.695-0.029,2.191-0.144
				c0.892-0.227,1.336-0.682,1.336-1.364S86.867,129.5,86,129.272c-0.474-0.133-1.193-0.179-2.162-0.141h-0.313v3.014H83.779z"/>
		</g>
	</g>
</g>
<g>
	<g>
		<path fill="#EA651B" d="M106.391,314.466c1.1,1.358,2.427,2.57,3.98,3.571c7.868,5.079,18.36,2.818,23.439-5.05
			c2.707-4.195,3.331-9.14,2.123-13.612c-0.408,2.799-1.403,5.556-3.038,8.087C127.142,316.37,115.606,319.288,106.391,314.466z"/>
		<path fill="#FF7E1C" d="M105.321,294.599c-4.076,6.316-3.423,14.326,1.07,19.869c9.215,4.821,20.75,1.904,26.502-7.003
			c1.634-2.532,2.632-5.288,3.04-8.088c-1.052-3.909-3.501-7.458-7.173-9.827C120.894,284.469,110.401,286.729,105.321,294.599z"/>
	</g>
	<g>
		<g>
			<g>
				<path fill="#FFFFFF" d="M124.723,303.974c0.373,0.475,0.527,1.127,0.452,1.961c-0.114,1.006-0.533,1.736-1.254,2.191
					c-0.627,0.379-1.562,0.606-2.814,0.683v1.934h-1.391v-1.906h-1.082v1.906h-1.391v-1.934h-2.759l0.287-1.65h0.284
					c0.457,0.021,0.746,0.008,0.879-0.03c0.188-0.056,0.302-0.196,0.342-0.424v-6.172c-0.059-0.304-0.22-0.493-0.485-0.568
					c-0.168-0.057-0.528-0.076-1.083-0.057h-0.225v-1.479l0.856,0.029c1.005,0,1.635-0.012,1.904-0.029v-2.246h1.392v2.219
					l1.08-0.028v-2.19h1.393v2.246c0.967,0.094,1.705,0.303,2.215,0.625c0.627,0.379,0.968,0.949,1.024,1.707
					c0.117,1.1-0.271,1.876-1.161,2.331l0,0C123.884,303.243,124.396,303.538,124.723,303.974L124.723,303.974z M118.66,302.75
					h0.226c0.798,0.021,1.414-0.027,1.851-0.14c0.757-0.189,1.135-0.599,1.135-1.225c0-0.625-0.369-1.042-1.105-1.252
					c-0.418-0.113-1.038-0.16-1.852-0.141c-0.134,0.019-0.22,0.027-0.255,0.027V302.75z M118.915,307.158
					c0.969,0.021,1.694-0.03,2.191-0.144c0.893-0.227,1.336-0.682,1.336-1.365c0-0.682-0.439-1.137-1.307-1.364
					c-0.474-0.133-1.193-0.179-2.162-0.141h-0.313v3.014H118.915z"/>
			</g>
		</g>
	</g>
</g>
<g>
	<g>
		<path fill="#EA651B" d="M106.391,279.464c1.1,1.357,2.427,2.57,3.98,3.57c7.868,5.08,18.36,2.818,23.439-5.049
			c2.707-4.196,3.331-9.141,2.123-13.613c-0.408,2.799-1.403,5.557-3.038,8.087C127.142,281.368,115.606,284.285,106.391,279.464z"
			/>
		<path fill="#FF7E1C" d="M105.321,259.596c-4.076,6.316-3.423,14.326,1.07,19.87c9.215,4.82,20.75,1.903,26.502-7.004
			c1.634-2.533,2.632-5.288,3.04-8.087c-1.052-3.91-3.501-7.458-7.173-9.828C120.894,249.467,110.401,251.727,105.321,259.596z"/>
	</g>
	<g>
		<g>
			<g>
				<path fill="#FFFFFF" d="M124.723,268.972c0.373,0.475,0.527,1.127,0.452,1.961c-0.114,1.005-0.533,1.736-1.254,2.191
					c-0.627,0.379-1.562,0.605-2.814,0.682v1.934h-1.391v-1.906h-1.082v1.906h-1.391v-1.934h-2.759l0.287-1.65h0.284
					c0.457,0.021,0.746,0.008,0.879-0.029c0.188-0.057,0.302-0.197,0.342-0.425v-6.172c-0.059-0.304-0.22-0.493-0.485-0.568
					c-0.168-0.056-0.528-0.076-1.083-0.056h-0.225v-1.479l0.856,0.029c1.005,0,1.635-0.011,1.904-0.029v-2.246h1.392v2.22
					l1.08-0.029v-2.19h1.393v2.246c0.967,0.095,1.705,0.303,2.215,0.625c0.627,0.379,0.968,0.949,1.024,1.707
					c0.117,1.1-0.271,1.876-1.161,2.331l0,0C123.884,268.24,124.396,268.536,124.723,268.972L124.723,268.972z M118.66,267.747
					h0.226c0.798,0.021,1.414-0.027,1.851-0.139c0.757-0.19,1.135-0.6,1.135-1.226c0-0.625-0.369-1.042-1.105-1.251
					c-0.418-0.113-1.038-0.161-1.852-0.142c-0.134,0.019-0.22,0.028-0.255,0.028V267.747z M118.915,272.155
					c0.969,0.021,1.694-0.029,2.191-0.143c0.893-0.228,1.336-0.683,1.336-1.365s-0.439-1.138-1.307-1.365
					c-0.474-0.133-1.193-0.179-2.162-0.141h-0.313v3.014H118.915z"/>
			</g>
		</g>
	</g>
</g>
<g>
	<g>
		<path fill="#EA651B" d="M106.391,244.461c1.1,1.358,2.427,2.571,3.98,3.571c7.868,5.08,18.36,2.818,23.439-5.05
			c2.707-4.196,3.331-9.14,2.123-13.612c-0.408,2.799-1.403,5.556-3.038,8.086C127.142,246.366,115.606,249.283,106.391,244.461z"/>
		<path fill="#FF7E1C" d="M105.321,224.593c-4.076,6.317-3.423,14.327,1.07,19.87c9.215,4.821,20.75,1.904,26.502-7.003
			c1.634-2.533,2.632-5.289,3.04-8.088c-1.052-3.91-3.501-7.458-7.173-9.828C120.894,214.464,110.401,216.725,105.321,224.593z"/>
	</g>
	<g>
		<g>
			<g>
				<path fill="#FFFFFF" d="M124.723,233.969c0.373,0.475,0.527,1.128,0.452,1.961c-0.114,1.006-0.533,1.736-1.254,2.191
					c-0.627,0.38-1.562,0.606-2.814,0.683v1.934h-1.391v-1.906h-1.082v1.906h-1.391v-1.934h-2.759l0.287-1.65h0.284
					c0.457,0.02,0.746,0.008,0.879-0.03c0.188-0.056,0.302-0.196,0.342-0.424v-6.172c-0.059-0.304-0.22-0.493-0.485-0.569
					c-0.168-0.056-0.528-0.076-1.083-0.056h-0.225v-1.479l0.856,0.028c1.005,0,1.635-0.011,1.904-0.028v-2.246h1.392v2.219
					l1.08-0.028v-2.19h1.393v2.246c0.967,0.094,1.705,0.302,2.215,0.625c0.627,0.379,0.968,0.949,1.024,1.707
					c0.117,1.1-0.271,1.876-1.161,2.331l0,0C123.884,233.237,124.396,233.534,124.723,233.969L124.723,233.969z M118.66,232.745
					h0.226c0.798,0.02,1.414-0.027,1.851-0.14c0.757-0.189,1.135-0.599,1.135-1.225c0-0.625-0.369-1.042-1.105-1.252
					c-0.418-0.113-1.038-0.16-1.852-0.141c-0.134,0.019-0.22,0.027-0.255,0.027V232.745z M118.915,237.153
					c0.969,0.02,1.694-0.03,2.191-0.144c0.893-0.228,1.336-0.683,1.336-1.364c0-0.684-0.439-1.138-1.307-1.365
					c-0.474-0.133-1.193-0.18-2.162-0.141h-0.313v3.014H118.915z"/>
			</g>
		</g>
	</g>
</g>
<g>
	<g>
		<path fill="#EA651B" d="M106.391,209.458c1.1,1.358,2.427,2.571,3.98,3.571c7.868,5.08,18.36,2.818,23.439-5.05
			c2.707-4.195,3.331-9.14,2.123-13.613c-0.408,2.8-1.403,5.557-3.038,8.088C127.142,211.363,115.606,214.28,106.391,209.458z"/>
		<path fill="#FF7E1C" d="M105.321,189.591c-4.076,6.316-3.423,14.326,1.07,19.869c9.215,4.822,20.75,1.904,26.502-7.003
			c1.634-2.532,2.632-5.288,3.04-8.087c-1.052-3.91-3.501-7.458-7.173-9.828C120.894,179.462,110.401,181.722,105.321,189.591z"/>
	</g>
	<g>
		<g>
			<g>
				<path fill="#FFFFFF" d="M124.723,198.966c0.373,0.475,0.527,1.128,0.452,1.961c-0.114,1.006-0.533,1.736-1.254,2.191
					c-0.627,0.38-1.562,0.607-2.814,0.683v1.934h-1.391v-1.906h-1.082v1.906h-1.391v-1.934h-2.759l0.287-1.65h0.284
					c0.457,0.021,0.746,0.008,0.879-0.03c0.188-0.056,0.302-0.196,0.342-0.424v-6.172c-0.059-0.303-0.22-0.493-0.485-0.568
					c-0.168-0.057-0.528-0.076-1.083-0.057h-0.225v-1.479l0.856,0.029c1.005,0,1.635-0.012,1.904-0.029v-2.246h1.392v2.219
					l1.08-0.028v-2.19h1.393v2.246c0.967,0.094,1.705,0.302,2.215,0.625c0.627,0.379,0.968,0.949,1.024,1.707
					c0.117,1.1-0.271,1.876-1.161,2.331l0,0C123.884,198.235,124.396,198.531,124.723,198.966L124.723,198.966z M118.66,197.743
					h0.226c0.798,0.02,1.414-0.028,1.851-0.141c0.757-0.189,1.135-0.599,1.135-1.225c0-0.625-0.369-1.042-1.105-1.251
					c-0.418-0.114-1.038-0.161-1.852-0.142c-0.134,0.019-0.22,0.027-0.255,0.027V197.743z M118.915,202.15
					c0.969,0.021,1.694-0.03,2.191-0.144c0.893-0.227,1.336-0.682,1.336-1.364s-0.439-1.138-1.307-1.365
					c-0.474-0.133-1.193-0.179-2.162-0.141h-0.313v3.014H118.915z"/>
			</g>
		</g>
	</g>
</g>
<g>
	<g>
		<path fill="#EA651B" d="M106.391,174.456c1.1,1.358,2.427,2.57,3.98,3.571c7.868,5.079,18.36,2.818,23.439-5.05
			c2.707-4.196,3.331-9.14,2.123-13.613c-0.408,2.8-1.403,5.557-3.038,8.088C127.142,176.361,115.606,179.278,106.391,174.456z"/>
		<path fill="#FF7E1C" d="M105.321,154.588c-4.076,6.317-3.423,14.326,1.07,19.87c9.215,4.821,20.75,1.904,26.502-7.003
			c1.634-2.533,2.632-5.289,3.04-8.088c-1.052-3.91-3.501-7.458-7.173-9.828C120.894,144.459,110.401,146.72,105.321,154.588z"/>
	</g>
	<g>
		<g>
			<g>
				<path fill="#FFFFFF" d="M124.723,163.964c0.373,0.475,0.527,1.127,0.452,1.961c-0.114,1.006-0.533,1.736-1.254,2.191
					c-0.627,0.379-1.562,0.606-2.814,0.683v1.934h-1.391v-1.906h-1.082v1.906h-1.391v-1.934h-2.759l0.287-1.65h0.284
					c0.457,0.02,0.746,0.008,0.879-0.03c0.188-0.056,0.302-0.196,0.342-0.424v-6.172c-0.059-0.304-0.22-0.493-0.485-0.569
					c-0.168-0.056-0.528-0.076-1.083-0.056h-0.225v-1.479l0.856,0.028c1.005,0,1.635-0.011,1.904-0.028v-2.246h1.392v2.219
					l1.08-0.029v-2.189h1.393v2.246c0.967,0.094,1.705,0.302,2.215,0.625c0.627,0.379,0.968,0.949,1.024,1.707
					c0.117,1.1-0.271,1.876-1.161,2.331l0,0C123.884,163.233,124.396,163.528,124.723,163.964L124.723,163.964z M118.66,162.74
					h0.226c0.798,0.02,1.414-0.027,1.851-0.14c0.757-0.189,1.135-0.599,1.135-1.225c0-0.625-0.369-1.042-1.105-1.252
					c-0.418-0.113-1.038-0.16-1.852-0.141c-0.134,0.019-0.22,0.027-0.255,0.027V162.74z M118.915,167.148
					c0.969,0.02,1.694-0.03,2.191-0.144c0.893-0.228,1.336-0.683,1.336-1.364c0-0.683-0.439-1.138-1.307-1.365
					c-0.474-0.133-1.193-0.18-2.162-0.141h-0.313v3.014H118.915z"/>
			</g>
		</g>
	</g>
</g>
<g>
	<g>
		<path fill="#EA651B" d="M106.391,139.454c1.1,1.357,2.427,2.57,3.98,3.57c7.868,5.08,18.36,2.818,23.439-5.049
			c2.707-4.196,3.331-9.141,2.123-13.613c-0.408,2.799-1.403,5.556-3.038,8.087C127.142,141.358,115.606,144.275,106.391,139.454z"
			/>
		<path fill="#FF7E1C" d="M105.321,119.586c-4.076,6.316-3.423,14.326,1.07,19.869c9.215,4.821,20.75,1.904,26.502-7.003
			c1.634-2.532,2.632-5.288,3.04-8.088c-1.052-3.909-3.501-7.457-7.173-9.827C120.894,109.456,110.401,111.717,105.321,119.586z"/>
	</g>
	<g>
		<g>
			<g>
				<path fill="#FFFFFF" d="M124.723,128.961c0.373,0.476,0.527,1.128,0.452,1.962c-0.114,1.005-0.533,1.735-1.254,2.19
					c-0.627,0.38-1.562,0.606-2.814,0.683v1.934h-1.391v-1.906h-1.082v1.906h-1.391v-1.934h-2.759l0.287-1.65h0.284
					c0.457,0.021,0.746,0.008,0.879-0.029c0.188-0.057,0.302-0.197,0.342-0.425v-6.172c-0.059-0.304-0.22-0.493-0.485-0.568
					c-0.168-0.057-0.528-0.076-1.083-0.057h-0.225v-1.479l0.856,0.029c1.005,0,1.635-0.011,1.904-0.029v-2.246h1.392v2.219
					l1.08-0.028v-2.19h1.393v2.246c0.967,0.094,1.705,0.302,2.215,0.625c0.627,0.379,0.968,0.949,1.024,1.707
					c0.117,1.1-0.271,1.876-1.161,2.331l0,0C123.884,128.23,124.396,128.526,124.723,128.961L124.723,128.961z M118.66,127.737
					h0.226c0.798,0.021,1.414-0.027,1.851-0.14c0.757-0.189,1.135-0.599,1.135-1.225c0-0.625-0.369-1.042-1.105-1.251
					c-0.418-0.114-1.038-0.161-1.852-0.142c-0.134,0.019-0.22,0.027-0.255,0.027V127.737z M118.915,132.146
					c0.969,0.021,1.694-0.029,2.191-0.144c0.893-0.227,1.336-0.682,1.336-1.364s-0.439-1.138-1.307-1.365
					c-0.474-0.133-1.193-0.179-2.162-0.141h-0.313v3.014H118.915z"/>
			</g>
		</g>
	</g>
</g>
<g>
	<g>
		<path fill="#EA651B" d="M141.738,314.466c1.1,1.358,2.427,2.57,3.98,3.571c7.868,5.079,18.36,2.818,23.438-5.05
			c2.708-4.195,3.332-9.14,2.123-13.612c-0.408,2.799-1.403,5.556-3.038,8.087C162.489,316.37,150.953,319.288,141.738,314.466z"/>
		<path fill="#FF7E1C" d="M140.668,294.599c-4.076,6.316-3.422,14.326,1.07,19.869c9.215,4.821,20.75,1.904,26.501-7.003
			c1.634-2.532,2.633-5.288,3.04-8.088c-1.052-3.909-3.501-7.458-7.172-9.827C156.241,284.469,145.749,286.729,140.668,294.599z"/>
	</g>
	<g>
		<g>
			<g>
				<path fill="#FFFFFF" d="M160.069,303.974c0.374,0.475,0.528,1.127,0.452,1.961c-0.114,1.006-0.532,1.736-1.253,2.191
					c-0.627,0.379-1.562,0.606-2.814,0.683v1.934h-1.391v-1.906h-1.082v1.906h-1.391v-1.934h-2.759l0.286-1.65h0.285
					c0.457,0.021,0.746,0.008,0.879-0.03c0.188-0.056,0.302-0.196,0.342-0.424v-6.172c-0.059-0.304-0.22-0.493-0.486-0.568
					c-0.168-0.057-0.528-0.076-1.082-0.057h-0.225v-1.479l0.855,0.029c1.006,0,1.635-0.012,1.904-0.029v-2.246h1.392v2.219
					l1.08-0.028v-2.19h1.393v2.246c0.967,0.094,1.705,0.303,2.214,0.625c0.627,0.379,0.969,0.949,1.024,1.707
					c0.117,1.1-0.271,1.876-1.161,2.331l0,0C159.231,303.243,159.742,303.538,160.069,303.974L160.069,303.974z M154.007,302.75
					h0.226c0.798,0.021,1.414-0.027,1.851-0.14c0.757-0.189,1.135-0.599,1.135-1.225c0-0.625-0.369-1.042-1.106-1.252
					c-0.417-0.113-1.038-0.16-1.852-0.141c-0.134,0.019-0.22,0.027-0.254,0.027V302.75z M154.262,307.158
					c0.969,0.021,1.695-0.03,2.191-0.144c0.893-0.227,1.336-0.682,1.336-1.365c0-0.682-0.439-1.137-1.307-1.364
					c-0.474-0.133-1.192-0.179-2.162-0.141h-0.313v3.014H154.262z"/>
			</g>
		</g>
	</g>
</g>
<g>
	<g>
		<path fill="#EA651B" d="M141.738,279.464c1.1,1.357,2.427,2.57,3.98,3.57c7.868,5.08,18.36,2.818,23.438-5.049
			c2.708-4.196,3.332-9.141,2.123-13.613c-0.408,2.799-1.403,5.557-3.038,8.087C162.489,281.368,150.953,284.285,141.738,279.464z"
			/>
		<path fill="#FF7E1C" d="M140.668,259.596c-4.076,6.316-3.422,14.326,1.07,19.87c9.215,4.82,20.75,1.903,26.501-7.004
			c1.634-2.533,2.633-5.288,3.04-8.087c-1.052-3.91-3.501-7.458-7.172-9.828C156.241,249.467,145.749,251.727,140.668,259.596z"/>
	</g>
	<g>
		<g>
			<g>
				<path fill="#FFFFFF" d="M160.069,268.972c0.374,0.475,0.528,1.127,0.452,1.961c-0.114,1.005-0.532,1.736-1.253,2.191
					c-0.627,0.379-1.562,0.605-2.814,0.682v1.934h-1.391v-1.906h-1.082v1.906h-1.391v-1.934h-2.759l0.286-1.65h0.285
					c0.457,0.021,0.746,0.008,0.879-0.029c0.188-0.057,0.302-0.197,0.342-0.425v-6.172c-0.059-0.304-0.22-0.493-0.486-0.568
					c-0.168-0.056-0.528-0.076-1.082-0.056h-0.225v-1.479l0.855,0.029c1.006,0,1.635-0.011,1.904-0.029v-2.246h1.392v2.22
					l1.08-0.029v-2.19h1.393v2.246c0.967,0.095,1.705,0.303,2.214,0.625c0.627,0.379,0.969,0.949,1.024,1.707
					c0.117,1.1-0.271,1.876-1.161,2.331l0,0C159.231,268.24,159.742,268.536,160.069,268.972L160.069,268.972z M154.007,267.747
					h0.226c0.798,0.021,1.414-0.027,1.851-0.139c0.757-0.19,1.135-0.6,1.135-1.226c0-0.625-0.369-1.042-1.106-1.251
					c-0.417-0.113-1.038-0.161-1.852-0.142c-0.134,0.019-0.22,0.028-0.254,0.028V267.747z M154.262,272.155
					c0.969,0.021,1.695-0.029,2.191-0.143c0.893-0.228,1.336-0.683,1.336-1.365s-0.439-1.138-1.307-1.365
					c-0.474-0.133-1.192-0.179-2.162-0.141h-0.313v3.014H154.262z"/>
			</g>
		</g>
	</g>
</g>
<g>
	<g>
		<path fill="#EA651B" d="M141.738,244.461c1.1,1.358,2.427,2.571,3.98,3.571c7.868,5.08,18.36,2.818,23.438-5.05
			c2.708-4.196,3.332-9.14,2.123-13.612c-0.408,2.799-1.403,5.556-3.038,8.086C162.489,246.366,150.953,249.283,141.738,244.461z"/>
		<path fill="#FF7E1C" d="M140.668,224.593c-4.076,6.317-3.422,14.327,1.07,19.87c9.215,4.821,20.75,1.904,26.501-7.003
			c1.634-2.533,2.633-5.289,3.04-8.088c-1.052-3.91-3.501-7.458-7.172-9.828C156.241,214.464,145.749,216.725,140.668,224.593z"/>
	</g>
	<g>
		<g>
			<g>
				<path fill="#FFFFFF" d="M160.069,233.969c0.374,0.475,0.528,1.128,0.452,1.961c-0.114,1.006-0.532,1.736-1.253,2.191
					c-0.627,0.38-1.562,0.606-2.814,0.683v1.934h-1.391v-1.906h-1.082v1.906h-1.391v-1.934h-2.759l0.286-1.65h0.285
					c0.457,0.02,0.746,0.008,0.879-0.03c0.188-0.056,0.302-0.196,0.342-0.424v-6.172c-0.059-0.304-0.22-0.493-0.486-0.569
					c-0.168-0.056-0.528-0.076-1.082-0.056h-0.225v-1.479l0.855,0.028c1.006,0,1.635-0.011,1.904-0.028v-2.246h1.392v2.219
					l1.08-0.028v-2.19h1.393v2.246c0.967,0.094,1.705,0.302,2.214,0.625c0.627,0.379,0.969,0.949,1.024,1.707
					c0.117,1.1-0.271,1.876-1.161,2.331l0,0C159.231,233.237,159.742,233.534,160.069,233.969L160.069,233.969z M154.007,232.745
					h0.226c0.798,0.02,1.414-0.027,1.851-0.14c0.757-0.189,1.135-0.599,1.135-1.225c0-0.625-0.369-1.042-1.106-1.252
					c-0.417-0.113-1.038-0.16-1.852-0.141c-0.134,0.019-0.22,0.027-0.254,0.027V232.745z M154.262,237.153
					c0.969,0.02,1.695-0.03,2.191-0.144c0.893-0.228,1.336-0.683,1.336-1.364c0-0.684-0.439-1.138-1.307-1.365
					c-0.474-0.133-1.192-0.18-2.162-0.141h-0.313v3.014H154.262z"/>
			</g>
		</g>
	</g>
</g>
<g>
	<g>
		<path fill="#EA651B" d="M141.738,209.458c1.1,1.358,2.427,2.571,3.98,3.571c7.868,5.08,18.36,2.818,23.438-5.05
			c2.708-4.195,3.332-9.14,2.123-13.613c-0.408,2.8-1.403,5.557-3.038,8.088C162.489,211.363,150.953,214.28,141.738,209.458z"/>
		<path fill="#FF7E1C" d="M140.668,189.591c-4.076,6.316-3.422,14.326,1.07,19.869c9.215,4.822,20.75,1.904,26.501-7.003
			c1.634-2.532,2.633-5.288,3.04-8.087c-1.052-3.91-3.501-7.458-7.172-9.828C156.241,179.462,145.749,181.722,140.668,189.591z"/>
	</g>
	<g>
		<g>
			<g>
				<path fill="#FFFFFF" d="M160.069,198.966c0.374,0.475,0.528,1.128,0.452,1.961c-0.114,1.006-0.532,1.736-1.253,2.191
					c-0.627,0.38-1.562,0.607-2.814,0.683v1.934h-1.391v-1.906h-1.082v1.906h-1.391v-1.934h-2.759l0.286-1.65h0.285
					c0.457,0.021,0.746,0.008,0.879-0.03c0.188-0.056,0.302-0.196,0.342-0.424v-6.172c-0.059-0.303-0.22-0.493-0.486-0.568
					c-0.168-0.057-0.528-0.076-1.082-0.057h-0.225v-1.479l0.855,0.029c1.006,0,1.635-0.012,1.904-0.029v-2.246h1.392v2.219
					l1.08-0.028v-2.19h1.393v2.246c0.967,0.094,1.705,0.302,2.214,0.625c0.627,0.379,0.969,0.949,1.024,1.707
					c0.117,1.1-0.271,1.876-1.161,2.331l0,0C159.231,198.235,159.742,198.531,160.069,198.966L160.069,198.966z M154.007,197.743
					h0.226c0.798,0.02,1.414-0.028,1.851-0.141c0.757-0.189,1.135-0.599,1.135-1.225c0-0.625-0.369-1.042-1.106-1.251
					c-0.417-0.114-1.038-0.161-1.852-0.142c-0.134,0.019-0.22,0.027-0.254,0.027V197.743z M154.262,202.15
					c0.969,0.021,1.695-0.03,2.191-0.144c0.893-0.227,1.336-0.682,1.336-1.364s-0.439-1.138-1.307-1.365
					c-0.474-0.133-1.192-0.179-2.162-0.141h-0.313v3.014H154.262z"/>
			</g>
		</g>
	</g>
</g>
<g>
	<g>
		<path fill="#EA651B" d="M141.738,174.456c1.1,1.358,2.427,2.57,3.98,3.571c7.868,5.079,18.36,2.818,23.438-5.05
			c2.708-4.196,3.332-9.14,2.123-13.613c-0.408,2.8-1.403,5.557-3.038,8.088C162.489,176.361,150.953,179.278,141.738,174.456z"/>
		<path fill="#FF7E1C" d="M140.668,154.588c-4.076,6.317-3.422,14.326,1.07,19.87c9.215,4.821,20.75,1.904,26.501-7.003
			c1.634-2.533,2.633-5.289,3.04-8.088c-1.052-3.91-3.501-7.458-7.172-9.828C156.241,144.459,145.749,146.72,140.668,154.588z"/>
	</g>
	<g>
		<g>
			<g>
				<path fill="#FFFFFF" d="M160.069,163.964c0.374,0.475,0.528,1.127,0.452,1.961c-0.114,1.006-0.532,1.736-1.253,2.191
					c-0.627,0.379-1.562,0.606-2.814,0.683v1.934h-1.391v-1.906h-1.082v1.906h-1.391v-1.934h-2.759l0.286-1.65h0.285
					c0.457,0.02,0.746,0.008,0.879-0.03c0.188-0.056,0.302-0.196,0.342-0.424v-6.172c-0.059-0.304-0.22-0.493-0.486-0.569
					c-0.168-0.056-0.528-0.076-1.082-0.056h-0.225v-1.479l0.855,0.028c1.006,0,1.635-0.011,1.904-0.028v-2.246h1.392v2.219
					l1.08-0.029v-2.189h1.393v2.246c0.967,0.094,1.705,0.302,2.214,0.625c0.627,0.379,0.969,0.949,1.024,1.707
					c0.117,1.1-0.271,1.876-1.161,2.331l0,0C159.231,163.233,159.742,163.528,160.069,163.964L160.069,163.964z M154.007,162.74
					h0.226c0.798,0.02,1.414-0.027,1.851-0.14c0.757-0.189,1.135-0.599,1.135-1.225c0-0.625-0.369-1.042-1.106-1.252
					c-0.417-0.113-1.038-0.16-1.852-0.141c-0.134,0.019-0.22,0.027-0.254,0.027V162.74z M154.262,167.148
					c0.969,0.02,1.695-0.03,2.191-0.144c0.893-0.228,1.336-0.683,1.336-1.364c0-0.683-0.439-1.138-1.307-1.365
					c-0.474-0.133-1.192-0.18-2.162-0.141h-0.313v3.014H154.262z"/>
			</g>
		</g>
	</g>
</g>
<g>
	<g>
		<path fill="#EA651B" d="M141.738,139.454c1.1,1.357,2.427,2.57,3.98,3.57c7.868,5.08,18.36,2.818,23.438-5.049
			c2.708-4.196,3.332-9.141,2.123-13.613c-0.408,2.799-1.403,5.556-3.038,8.087C162.489,141.358,150.953,144.275,141.738,139.454z"
			/>
		<path fill="#FF7E1C" d="M140.668,119.586c-4.076,6.316-3.422,14.326,1.07,19.869c9.215,4.821,20.75,1.904,26.501-7.003
			c1.634-2.532,2.633-5.288,3.04-8.088c-1.052-3.909-3.501-7.457-7.172-9.827C156.241,109.456,145.749,111.717,140.668,119.586z"/>
	</g>
	<g>
		<g>
			<g>
				<path fill="#FFFFFF" d="M160.069,128.961c0.374,0.476,0.528,1.128,0.452,1.962c-0.114,1.005-0.532,1.735-1.253,2.19
					c-0.627,0.38-1.562,0.606-2.814,0.683v1.934h-1.391v-1.906h-1.082v1.906h-1.391v-1.934h-2.759l0.286-1.65h0.285
					c0.457,0.021,0.746,0.008,0.879-0.029c0.188-0.057,0.302-0.197,0.342-0.425v-6.172c-0.059-0.304-0.22-0.493-0.486-0.568
					c-0.168-0.057-0.528-0.076-1.082-0.057h-0.225v-1.479l0.855,0.029c1.006,0,1.635-0.011,1.904-0.029v-2.246h1.392v2.219
					l1.08-0.028v-2.19h1.393v2.246c0.967,0.094,1.705,0.302,2.214,0.625c0.627,0.379,0.969,0.949,1.024,1.707
					c0.117,1.1-0.271,1.876-1.161,2.331l0,0C159.231,128.23,159.742,128.526,160.069,128.961L160.069,128.961z M154.007,127.737
					h0.226c0.798,0.021,1.414-0.027,1.851-0.14c0.757-0.189,1.135-0.599,1.135-1.225c0-0.625-0.369-1.042-1.106-1.251
					c-0.417-0.114-1.038-0.161-1.852-0.142c-0.134,0.019-0.22,0.027-0.254,0.027V127.737z M154.262,132.146
					c0.969,0.021,1.695-0.029,2.191-0.144c0.893-0.227,1.336-0.682,1.336-1.364s-0.439-1.138-1.307-1.365
					c-0.474-0.133-1.192-0.179-2.162-0.141h-0.313v3.014H154.262z"/>
			</g>
		</g>
	</g>
</g>
<g>
	<defs>
		<rect id="SVGID_1_" x="58.768" y="100.98" width="48.502" height="12.872"/>
	</defs>
	<clipPath id="SVGID_2_">
		<use xlink:href="#SVGID_1_"  overflow="visible"/>
	</clipPath>
	<g clip-path="url(#SVGID_2_)">
		<g>
			<path fill="#EA651B" d="M71.255,104.6c1.101,1.358,2.427,2.57,3.98,3.571c7.868,5.079,18.361,2.818,23.439-5.05
				c2.708-4.196,3.332-9.14,2.123-13.613c-0.408,2.8-1.403,5.557-3.038,8.087C92.006,106.504,80.47,109.422,71.255,104.6z"/>
			<path fill="#FF7E1C" d="M70.185,84.731c-4.076,6.317-3.422,14.326,1.07,19.87c9.215,4.821,20.751,1.904,26.502-7.003
				c1.634-2.533,2.633-5.289,3.04-8.088c-1.053-3.91-3.502-7.458-7.173-9.828C85.758,74.603,75.266,76.863,70.185,84.731z"/>
		</g>
		<g>
			<g>
				<g>
					<path fill="#FFFFFF" d="M89.586,94.107c0.374,0.475,0.528,1.127,0.453,1.961c-0.115,1.006-0.533,1.736-1.254,2.191
						c-0.627,0.379-1.562,0.606-2.814,0.683v1.934h-1.392V98.97h-1.082v1.906h-1.391v-1.934h-2.759l0.287-1.65h0.285
						c0.457,0.02,0.746,0.008,0.879-0.03c0.188-0.056,0.302-0.196,0.342-0.424v-6.172c-0.059-0.304-0.22-0.493-0.486-0.569
						c-0.168-0.056-0.528-0.076-1.082-0.056h-0.225v-1.479l0.856,0.028c1.006,0,1.635-0.011,1.904-0.028v-2.246H83.5v2.219
						l1.08-0.028v-2.19h1.394v2.246c0.967,0.094,1.704,0.302,2.214,0.625c0.627,0.379,0.969,0.949,1.024,1.707
						c0.117,1.1-0.271,1.876-1.161,2.331l0,0C88.748,93.377,89.259,93.672,89.586,94.107L89.586,94.107z M83.524,92.884h0.226
						c0.798,0.02,1.414-0.027,1.851-0.14c0.756-0.189,1.135-0.599,1.135-1.225c0-0.625-0.369-1.042-1.106-1.252
						c-0.417-0.113-1.038-0.16-1.852-0.141c-0.134,0.019-0.22,0.027-0.254,0.027V92.884z M83.779,97.292
						c0.969,0.02,1.695-0.03,2.191-0.144c0.892-0.228,1.336-0.683,1.336-1.365c0-0.682-0.439-1.137-1.307-1.364
						c-0.474-0.133-1.193-0.18-2.162-0.141h-0.313v3.014H83.779z"/>
				</g>
			</g>
		</g>
	</g>
</g>
<g>
	<path fill="#FF7E1C" d="M84.496,78.126c8.798,0,15.956,7.158,15.956,15.956s-7.158,15.956-15.956,15.956S68.54,102.88,68.54,94.082
		S75.698,78.126,84.496,78.126 M84.496,77.126c-9.365,0-16.956,7.592-16.956,16.956s7.591,16.956,16.956,16.956
		s16.956-7.592,16.956-16.956S93.861,77.126,84.496,77.126L84.496,77.126z"/>
</g>
<g>
	<path fill="#FF7E1C" d="M119.566,78.126c8.798,0,15.956,7.158,15.956,15.956s-7.158,15.956-15.956,15.956
		c-8.798,0-15.956-7.158-15.956-15.956S110.768,78.126,119.566,78.126 M119.566,77.126c-9.365,0-16.956,7.592-16.956,16.956
		s7.591,16.956,16.956,16.956s16.956-7.592,16.956-16.956S128.931,77.126,119.566,77.126L119.566,77.126z"/>
</g>
<g>
	<path fill="#FF7E1C" d="M154.913,78.126c8.798,0,15.956,7.158,15.956,15.956s-7.158,15.956-15.956,15.956
		s-15.956-7.158-15.956-15.956S146.115,78.126,154.913,78.126 M154.913,77.126c-9.365,0-16.956,7.592-16.956,16.956
		s7.591,16.956,16.956,16.956s16.956-7.592,16.956-16.956S164.278,77.126,154.913,77.126L154.913,77.126z"/>
</g>
<rect x="65" y="75.2" fill="none" stroke="#FFFFFF" stroke-width="2" stroke-linecap="round" stroke-miterlimit="10" stroke-dasharray="4,7" width="109" height="248"/>
</svg>
