<?xml version="1.0" encoding="utf-8"?>
<!-- Generator: Adobe Illustrator 16.0.4, SVG Export Plug-In . SVG Version: 6.00 Build 0)  -->
<!DOCTYPE svg PUBLIC "-//W3C//DTD SVG 1.1//EN" "http://www.w3.org/Graphics/SVG/1.1/DTD/svg11.dtd">
<svg version="1.1" id="Layer_1" xmlns="http://www.w3.org/2000/svg" xmlns:xlink="http://www.w3.org/1999/xlink" x="0px" y="0px"
	 width="300px" height="225px" viewBox="0 0 300 225" enable-background="new 0 0 300 225" xml:space="preserve">
<ellipse opacity="0.2" fill="#232323" enable-background="new    " cx="151.369" cy="192.811" rx="44.545" ry="7.19"/>
<g>
	<g>
		<path fill="#232323" d="M152.797,146.956c0.16,1.28,4.333,37.483,10.489,42.573c6.157,5.082,9.396,3.383,10.653,2.035
			c1.314-1.407,2.977-3.944-0.088-6.813c-2.465-2.31-4.184-12.51-1.688-28.42L152.797,146.956z"/>
		<g>
			<path fill="#232323" d="M178.295,187.631c0.771,0.221,1.624,0.094,1.916-0.43c0.287-0.521-0.17-1.428-1.1-1.866
				c-2.512-1.203-5.396-1.594-8.228-1.051c-1.056,0.206-1.483,1.309-1.004,2.286c0.483,0.986,1.367,1.503,2.052,1.254
				C173.891,187.104,176.123,186.993,178.295,187.631z"/>
			<path fill="#232323" d="M177.08,192.131c0.682,0.43,1.537,0.541,1.959,0.118c0.424-0.419,0.23-1.417-0.537-2.099
				c-2.082-1.852-4.74-3.026-7.613-3.291c-1.068-0.094-1.789,0.847-1.598,1.923c0.188,1.079,0.896,1.819,1.625,1.771
				C172.996,190.4,175.17,190.917,177.08,192.131z"/>
			<path fill="#232323" d="M173.749,195.529c0.409,0.691,1.117,1.183,1.688,0.998c0.565-0.182,0.851-1.153,0.478-2.112
				c-1.011-2.597-2.843-4.854-5.28-6.396c-0.908-0.574-1.977-0.063-2.297,0.981c-0.322,1.048-0.033,2.031,0.641,2.315
				C170.898,192.133,172.6,193.582,173.749,195.529z"/>
		</g>
	</g>
	<g>
		<path fill="#232323" d="M149.025,146.62c-0.162,1.276-4.469,37.47-10.646,42.53c-6.176,5.062-9.411,3.35-10.661,1.998
			c-1.307-1.416-2.959-3.957,0.115-6.813c2.473-2.299,4.229-12.494,1.793-28.415L149.025,146.62z"/>
		<g>
			<path fill="#232323" d="M124.441,187.618c-0.771,0.218-1.625,0.085-1.912-0.437c-0.288-0.521,0.174-1.427,1.104-1.863
				c2.518-1.194,5.4-1.573,8.231-1.021c1.053,0.21,1.479,1.312,0.996,2.291c-0.486,0.984-1.373,1.497-2.056,1.246
				C128.847,187.107,126.614,186.99,124.441,187.618z"/>
			<path fill="#232323" d="M125.64,192.123c-0.684,0.427-1.537,0.536-1.959,0.111c-0.422-0.42-0.227-1.42,0.543-2.098
				c2.088-1.842,4.752-3.009,7.625-3.263c1.07-0.089,1.787,0.853,1.594,1.929c-0.197,1.077-0.905,1.816-1.635,1.766
				C129.73,190.41,127.554,190.918,125.64,192.123z"/>
			<path fill="#232323" d="M128.958,195.535c-0.412,0.688-1.124,1.179-1.693,0.99c-0.566-0.185-0.848-1.157-0.47-2.113
				c1.019-2.594,2.86-4.844,5.304-6.375c0.91-0.57,1.977-0.059,2.291,0.988c0.321,1.05,0.027,2.029-0.646,2.313
				C131.82,192.148,130.115,193.592,128.958,195.535z"/>
		</g>
	</g>
</g>
<path fill="#444444" d="M183.818,127.793c-1.334-12.486-6.517-27.724-16.381-33.228c-4.229-2.356-9.149-4.063-15.937-5.209
	c-1.612,0.267-3.112,0.565-4.53,0.897c-0.246,0.058-0.484,0.118-0.725,0.179c-0.421,0.104-0.836,0.211-1.24,0.321
	c-0.258,0.069-0.512,0.14-0.763,0.213c-0.408,0.117-0.806,0.239-1.199,0.364c-0.204,0.064-0.415,0.127-0.616,0.195
	c-0.566,0.187-1.117,0.381-1.654,0.582c-0.158,0.061-0.309,0.123-0.465,0.185c-0.403,0.157-0.801,0.315-1.19,0.483
	c-0.183,0.078-0.362,0.156-0.542,0.238c-0.371,0.163-0.736,0.332-1.096,0.506c-0.153,0.074-0.31,0.146-0.459,0.222
	c-0.5,0.25-0.992,0.503-1.473,0.768c-10.582,5.853-15.842,22.88-16.74,35.765c-0.078,1.871-0.117,3.668-0.111,5.356
	c0.006,4.358,0.273,7.979,0.793,10.168c0.023,0.103,0.068,0.2,0.1,0.3c2.631,11.984,15.867,21.117,31.829,21.146
	c17.876,0.033,32.385-11.355,32.412-25.441c0-0.13-0.01-0.257-0.012-0.387C184.104,137.78,184.111,132.984,183.818,127.793z"/>
<path fill="#FFFFFF" d="M175.355,92.856c-4.086-4.668-9.396-6.963-19.857-7.42c-0.164-0.009-0.334-0.014-0.501-0.02
	c-0.524-0.02-1.062-0.038-1.614-0.05c-0.549-0.011-1.104-0.019-1.68-0.021c-0.064,0-0.125-0.004-0.191-0.004h-0.014
	c-0.02,0-0.039,0-0.061,0c-0.013,0-0.023,0-0.035,0h-0.008c-0.039,0-0.074,0.001-0.113,0.001c-0.604,0-1.195,0.007-1.772,0.017
	c-0.658,0.01-1.293,0.029-1.914,0.053c-0.06,0.002-0.123,0.003-0.183,0.006c-10.47,0.418-15.79,2.695-19.892,7.35
	c-5.428,6.155-8.196,23.783-8.769,37.501c0.897-12.884,6.158-29.913,16.739-35.765c4.234-2.342,9.164-4.03,15.951-5.149
	c6.783,1.146,11.703,2.852,15.934,5.211c10.561,5.891,15.756,22.938,16.605,35.824C183.463,116.67,180.76,99.032,175.355,92.856z"/>
<path fill="#232323" d="M131.255,97.891c1.803-2.192,4.881-2.847,7.318-0.918c2.426,1.912,2.867,6.563,0.373,9.643
	c-7.083,8.751-17.479,13.051-28.675,11.85c-3.937-0.418-6.914-4.024-6.543-7.086c0.366-3.089,3.008-4.8,5.833-4.521
	C118.031,107.764,125.896,104.516,131.255,97.891z"/>
<path fill="#232323" d="M99.51,110.694c-0.816-0.06-1.582-0.481-1.673-1.082c-0.092-0.601,0.665-1.299,1.705-1.394
	c2.816-0.259,5.702,0.386,8.208,1.904c0.933,0.565,0.954,1.771,0.148,2.534c-0.806,0.767-1.831,0.949-2.398,0.466
	C103.892,111.747,101.803,110.856,99.51,110.694z"/>
<path fill="#232323" d="M100.18,115.484c-0.75,0.315-1.627,0.287-1.981-0.203c-0.355-0.49,0-1.455,0.883-2.016
	c2.394-1.516,5.252-2.255,8.177-2.042c1.086,0.078,1.652,1.139,1.283,2.187c-0.366,1.051-1.198,1.678-1.919,1.506
	C104.562,114.427,102.297,114.586,100.18,115.484z"/>
<path fill="#232323" d="M171.607,97.891c-1.803-2.192-4.883-2.847-7.319-0.918c-2.427,1.912-2.866,6.563-0.372,9.643
	c7.082,8.751,17.479,13.051,28.676,11.85c3.938-0.418,6.914-4.024,6.543-7.086c-0.365-3.089-3.008-4.8-5.832-4.521
	C184.832,107.764,176.967,104.516,171.607,97.891z"/>
<path fill="#232323" d="M202.711,114.092c0.811-0.139,1.652,0.086,1.891,0.648c0.232,0.555-0.332,1.422-1.315,1.76
	c-2.67,0.938-5.623,1.016-8.427,0.148c-1.043-0.324-1.355-1.482-0.76-2.422c0.6-0.943,1.547-1.366,2.211-1.035
	C198.205,114.135,200.447,114.494,202.711,114.092z"/>
<path fill="#232323" d="M201.986,109.414c0.736-0.358,1.611-0.379,1.99,0.098c0.383,0.472,0.078,1.454-0.774,2.06
	c-2.306,1.638-5.126,2.529-8.054,2.476c-1.092-0.021-1.715-1.05-1.401-2.117c0.313-1.068,1.108-1.74,1.839-1.609
	C197.67,110.705,199.924,110.425,201.986,109.414z"/>
<path fill="#FFFFFF" d="M151.314,44.123c-5.779-0.011-12.519-2.289-16.334-3.263c-4.477-1.141-6.602-1.178-9.903-1.185
	c-9.995-0.018-13.075,5.218-13.919,7.354c6.594-20.248,27.449-23.051,39.77-23.03l1.018,0.002
	c12.318,0.022,33.164,2.903,39.687,23.177c-0.835-2.141-3.897-7.387-13.894-7.408c-3.303-0.006-5.43,0.024-9.906,1.149
	c-3.825,0.96-10.568,3.214-16.35,3.203L151.314,44.123L151.314,44.123z"/>
<path fill="#444444" d="M191.596,47.198l0.033-0.018c-0.834-2.141-3.898-7.387-13.893-7.408c-3.301-0.006-5.43,0.024-9.907,1.149
	c-3.824,0.96-10.569,3.214-16.349,3.203h-0.166c-5.779-0.011-12.519-2.289-16.334-3.263c-4.477-1.141-6.602-1.178-9.903-1.184
	c-9.995-0.019-13.075,5.217-13.919,7.354l0.034,0.018c-2.118,2.021-3.533,7.344-3.357,13.564c0.219,7.885,2.907,14.213,6,14.127
	c0.059-0.002,0.114-0.021,0.171-0.026c7.162,14.472,26.854,21.213,37.189,21.231c10.336,0.019,30.195-6.649,37.464-21.098
	c0.063,0.008,0.127,0.03,0.19,0.031c3.09,0.094,5.803-6.222,6.051-14.107C195.1,54.552,193.706,49.229,191.596,47.198z"/>
<path fill="#7F7F7F" d="M151.277,85.5c-5.223-0.01-16.305-4.869-16.284-15.495c0.02-10.623,12.253-11.444,16.372-11.437
	c4.117,0.007,16.363,0.873,16.343,11.496C167.688,80.692,156.503,85.511,151.277,85.5z"/>
<path fill="#232323" d="M151.609,61.356c2.27,0.006,5.621,2.381,6.014,5.146c0.389,2.765-6.178,2.654-6.178,2.654h-0.188
	c0,0-6.565,0.086-6.167-2.679c0.399-2.762,3.76-5.125,6.032-5.119L151.609,61.356L151.609,61.356z"/>
<g>
	<circle fill="#232323" cx="134.629" cy="53.274" r="2.006"/>
	<path fill="#232323" d="M170.141,53.337c-0.004,1.111-0.9,2.005-2.013,2.004c-1.104-0.002-2.003-0.901-2.002-2.01
		c0.002-1.108,0.901-2.006,2.011-2.004C169.245,51.331,170.143,52.229,170.141,53.337z"/>
</g>
<path fill="#232323" d="M187.332,51.703c2.548,0.099,4.605,4.905,5.385,11.688c0.09-0.853,0.154-1.74,0.18-2.658
	c0.166-6.198-1.338-11.285-3.352-11.364c-0.859-0.033-1.668,0.852-2.332,2.348C187.25,51.716,187.291,51.702,187.332,51.703z"/>
<path fill="#232323" d="M115.437,51.569c-2.547,0.092-4.626,4.89-5.428,11.671c-0.088-0.853-0.149-1.741-0.169-2.66
	c-0.142-6.198,1.379-11.281,3.394-11.351c0.855-0.029,1.667,0.858,2.325,2.356C115.517,51.585,115.478,51.569,115.437,51.569z"/>
<path fill="none" stroke="#7F7F7F" stroke-width="1.5795" stroke-linecap="round" stroke-miterlimit="10" d="M130.81,47.348
	c0.519-0.481,1.123-0.851,1.774-1.096c0.651-0.247,1.349-0.366,2.054-0.348c0.707,0.017,1.42,0.175,2.106,0.482
	c0.685,0.312,1.274,0.745,1.752,1.266"/>
<path fill="none" stroke="#7F7F7F" stroke-width="1.5795" stroke-linecap="round" stroke-miterlimit="10" d="M164.393,47.348
	c0.521-0.481,1.125-0.851,1.774-1.096c0.651-0.247,1.351-0.366,2.056-0.348c0.705,0.017,1.42,0.175,2.106,0.482
	c0.685,0.312,1.272,0.745,1.753,1.266"/>
<path fill="none" stroke="#232323" stroke-width="1.431" stroke-linecap="round" stroke-miterlimit="10" d="M143.209,74.838
	c0.437,1.041,1.074,1.98,1.858,2.77c0.785,0.791,1.725,1.427,2.764,1.871c1.037,0.441,2.182,0.688,3.385,0.688
	c1.199,0.002,2.345-0.237,3.388-0.678c1.045-0.439,1.98-1.073,2.771-1.859c0.789-0.784,1.429-1.724,1.87-2.764"/>
<path fill="#232323" d="M91.453,50.85l-9.883-4.117c-0.608-0.252-1.291-0.252-1.899,0l-9.883,4.117
	c-0.921,0.381-1.523,1.281-1.523,2.279c0,10.219,5.894,17.28,11.402,19.576c0.607,0.252,1.292,0.252,1.899,0
	c4.412-1.837,11.406-8.184,11.406-19.576C92.971,52.13,92.37,51.229,91.453,50.85z M89.022,56.727l-9.471,9.472
	c-0.319,0.319-0.844,0.319-1.163,0l-5.354-5.354c-0.319-0.318-0.319-0.844,0-1.164l1.164-1.162c0.319-0.319,0.844-0.319,1.163,0
	l3.609,3.607l7.727-7.727c0.319-0.318,0.844-0.318,1.163,0l1.163,1.164C89.348,55.887,89.348,56.408,89.022,56.727L89.022,56.727z"
	/>
<path fill="#232323" d="M233.854,50.85l-9.885-4.117c-0.607-0.252-1.291-0.252-1.898,0l-9.885,4.117
	c-0.92,0.381-1.521,1.281-1.521,2.279c0,10.219,5.895,17.28,11.4,19.576c0.606,0.252,1.293,0.252,1.898,0
	c4.411-1.837,11.407-8.184,11.407-19.576C235.372,52.13,234.77,51.229,233.854,50.85z M231.424,56.727l-9.473,9.472
	c-0.318,0.319-0.844,0.319-1.162,0l-5.354-5.354c-0.32-0.318-0.32-0.844,0-1.164l1.162-1.162c0.317-0.319,0.844-0.319,1.163,0
	l3.607,3.607l7.728-7.727c0.318-0.318,0.844-0.318,1.163,0l1.163,1.164C231.747,55.887,231.747,56.408,231.424,56.727
	L231.424,56.727z"/>
<g>
	<path fill="#21CE99" d="M237.717,81.203c0.689,0.509,1.102,1.188,1.231,2.039l3.474,22.541c0.131,0.856-0.056,1.625-0.561,2.315
		c-0.506,0.688-1.188,1.101-2.039,1.231l-37.08,5.715c-0.854,0.131-1.627-0.06-2.316-0.562c-0.688-0.506-1.1-1.185-1.23-2.04
		l-3.475-22.541c-0.131-0.852,0.055-1.623,0.562-2.316c0.506-0.688,1.188-1.102,2.039-1.232l37.078-5.713
		C236.256,80.51,237.027,80.7,237.717,81.203z"/>
	
		<rect x="199.684" y="89.606" transform="matrix(0.9883 -0.1523 0.1523 0.9883 -11.7303 34.3624)" fill="#232323" width="37.514" height="8.293"/>
	<g>
		<path fill="#FFFFFF" d="M207.123,104.11c-0.176-0.125-0.367-0.174-0.581-0.141l-4.61,0.711c-0.215,0.032-0.381,0.137-0.512,0.31
			c-0.124,0.173-0.173,0.366-0.141,0.577l0.396,2.562c0.033,0.218,0.138,0.386,0.308,0.513c0.176,0.125,0.367,0.172,0.578,0.139
			l4.61-0.711c0.216-0.033,0.384-0.133,0.513-0.307c0.123-0.172,0.174-0.363,0.14-0.58l-0.396-2.562
			C207.396,104.409,207.291,104.237,207.123,104.11z"/>
		<path fill="#FFFFFF" d="M219.417,102.216c-0.175-0.126-0.366-0.175-0.581-0.142l-8.709,1.343c-0.213,0.032-0.382,0.136-0.512,0.31
			c-0.122,0.172-0.17,0.366-0.137,0.578l0.394,2.562c0.033,0.217,0.138,0.385,0.308,0.511c0.174,0.127,0.365,0.172,0.58,0.139
			l8.709-1.342c0.213-0.033,0.381-0.134,0.512-0.307c0.123-0.172,0.17-0.363,0.141-0.581l-0.396-2.562
			C219.689,102.516,219.586,102.342,219.417,102.216z"/>
	</g>
</g>
<path fill="#232323" d="M202.23,107.272c0.789-0.195,1.478-0.744,1.463-1.351c-0.01-0.604-0.871-1.166-1.914-1.083
	c-2.823,0.223-5.555,1.342-7.771,3.266c-0.821,0.713-0.642,1.9,0.282,2.52c0.925,0.624,1.966,0.625,2.438,0.057
	C198.089,109.05,199.997,107.821,202.23,107.272z"/>
<g>
	<g>
		<path fill="#84CD29" d="M104.919,87.227l-40.294-7.862c-1.237-0.242-2.435,0.565-2.676,1.802l-4.369,22.386
			c-0.241,1.236,0.566,2.435,1.802,2.675l40.294,7.862c1.236,0.242,2.434-0.564,2.675-1.801l4.368-22.387
			C106.962,88.667,106.156,87.467,104.919,87.227z"/>
	</g>
	<path fill="#FFFFFF" d="M61.157,103.086l0.874-4.477c2.473,0.482,4.085,2.877,3.603,5.35L61.157,103.086z"/>
	<path fill="#FFFFFF" d="M64.215,87.417l0.874-4.478l4.477,0.873C69.082,86.287,66.688,87.899,64.215,87.417z"/>
	<path fill="#FFFFFF" d="M99.213,110.514l-4.478-0.873c0.483-2.474,2.877-4.086,5.351-3.604L99.213,110.514z"/>
	<path fill="#FFFFFF" d="M102.271,94.843c-2.474-0.483-4.086-2.877-3.604-5.35l4.479,0.873L102.271,94.843z"/>
	<path fill="#FFFFFF" d="M80.623,104.561c-3.709-0.724-6.031-4.817-5.187-9.146c0.845-4.326,4.535-7.249,8.244-6.524
		c3.709,0.724,6.031,4.819,5.187,9.146C88.022,102.366,84.33,105.285,80.623,104.561z"/>
	
		<rect x="65.121" y="91.789" transform="matrix(-0.9813 -0.1927 0.1927 -0.9813 143.3784 207.931)" fill="none" width="33.359" height="10.408"/>
	
		<text transform="matrix(0.9813 0.1927 -0.1927 0.9813 77.8623 100.2412)" fill="#84CD29" font-family="'DMSans-Bold'" font-size="12.0003">$</text>
</g>
<path fill="#232323" d="M101.233,106.284c-0.769-0.286-1.386-0.905-1.309-1.512c0.077-0.596,1-1.062,2.024-0.858
	c2.78,0.53,5.372,1.948,7.36,4.103c0.739,0.805,0.426,1.965-0.559,2.477c-0.991,0.516-2.025,0.402-2.434-0.215
	C105.152,108.509,103.394,107.074,101.233,106.284z"/>
</svg>
