<?xml version="1.0" encoding="utf-8"?>
<!-- Generator: Adobe Illustrator 16.0.4, SVG Export Plug-In . SVG Version: 6.00 Build 0)  -->
<!DOCTYPE svg PUBLIC "-//W3C//DTD SVG 1.1//EN" "http://www.w3.org/Graphics/SVG/1.1/DTD/svg11.dtd">
<svg version="1.1" id="Layer_1" xmlns="http://www.w3.org/2000/svg" xmlns:xlink="http://www.w3.org/1999/xlink" x="0px" y="0px"
	 width="375px" height="375px" viewBox="0 0 375 375" enable-background="new 0 0 375 375" xml:space="preserve">
<g>
	<ellipse opacity="0.2" fill="#232323" enable-background="new    " cx="187.84" cy="289.012" rx="55.682" ry="8.988"/>
	<g>
		<g>
			<path fill="#232323" d="M189.625,231.693c0.201,1.603,5.416,46.858,13.111,53.219c7.697,6.354,11.747,4.227,13.319,2.543
				c1.644-1.76,3.719-4.932-0.111-8.518c-3.08-2.885-5.228-15.636-2.11-35.524L189.625,231.693z"/>
			<g>
				<path fill="#232323" d="M221.497,282.537c0.965,0.275,2.031,0.115,2.395-0.537c0.36-0.65-0.213-1.782-1.373-2.333
					c-3.141-1.503-6.744-1.992-10.285-1.313c-1.318,0.258-1.854,1.635-1.254,2.859c0.605,1.234,1.709,1.878,2.564,1.567
					C215.992,281.877,218.783,281.74,221.497,282.537z"/>
				<path fill="#232323" d="M219.978,288.162c0.853,0.535,1.922,0.677,2.45,0.148c0.53-0.524,0.288-1.771-0.672-2.623
					c-2.601-2.312-5.925-3.783-9.517-4.113c-1.337-0.116-2.236,1.057-1.997,2.402c0.236,1.35,1.12,2.276,2.032,2.213
					C214.874,286,217.591,286.645,219.978,288.162z"/>
				<path fill="#232323" d="M215.815,292.413c0.511,0.862,1.397,1.476,2.11,1.246c0.709-0.226,1.063-1.443,0.597-2.642
					c-1.262-3.244-3.554-6.065-6.602-7.992c-1.135-0.719-2.47-0.082-2.87,1.227c-0.404,1.311-0.042,2.539,0.799,2.896
					C212.253,288.165,214.379,289.977,215.815,292.413z"/>
			</g>
		</g>
		<g>
			<path fill="#232323" d="M184.911,231.273c-0.204,1.599-5.586,46.838-13.307,53.166c-7.719,6.326-11.763,4.185-13.326,2.496
				c-1.634-1.769-3.701-4.945,0.143-8.518c3.091-2.873,5.285-15.617,2.242-35.518L184.911,231.273z"/>
			<g>
				<path fill="#232323" d="M154.181,282.521c-0.965,0.273-2.031,0.107-2.391-0.545s0.218-1.781,1.381-2.328
					c3.146-1.494,6.75-1.969,10.289-1.276c1.316,0.263,1.85,1.642,1.244,2.864c-0.608,1.231-1.715,1.871-2.569,1.558
					C159.688,281.884,156.896,281.736,154.181,282.521z"/>
				<path fill="#232323" d="M155.679,288.152c-0.854,0.533-1.922,0.67-2.45,0.141c-0.528-0.525-0.282-1.773,0.68-2.621
					c2.611-2.302,5.94-3.761,9.532-4.078c1.338-0.111,2.233,1.065,1.991,2.41c-0.246,1.348-1.131,2.271-2.042,2.206
					C160.792,286.012,158.072,286.646,155.679,288.152z"/>
				<path fill="#232323" d="M159.827,292.418c-0.515,0.861-1.404,1.473-2.117,1.239c-0.708-0.229-1.058-1.448-0.586-2.644
					c1.273-3.24,3.575-6.053,6.629-7.968c1.138-0.713,2.471-0.071,2.865,1.237c0.401,1.311,0.034,2.537-0.809,2.893
					C163.404,288.186,161.273,289.988,159.827,292.418z"/>
			</g>
		</g>
	</g>
	<path fill="#444444" d="M228.403,207.74c-1.668-15.608-8.146-34.655-20.477-41.533c-5.286-2.947-11.438-5.081-19.917-6.513
		c-2.015,0.333-3.89,0.708-5.663,1.123c-0.308,0.072-0.606,0.147-0.906,0.223c-0.526,0.13-1.045,0.263-1.551,0.401
		c-0.321,0.087-0.639,0.175-0.952,0.266c-0.51,0.146-1.008,0.299-1.499,0.455c-0.256,0.081-0.519,0.159-0.771,0.243
		c-0.707,0.234-1.396,0.477-2.068,0.729c-0.197,0.074-0.386,0.153-0.58,0.229c-0.505,0.196-1.003,0.396-1.489,0.604
		c-0.228,0.098-0.453,0.196-0.677,0.297c-0.464,0.205-0.92,0.417-1.369,0.634c-0.192,0.092-0.386,0.183-0.575,0.277
		c-0.625,0.312-1.239,0.628-1.839,0.96c-13.228,7.315-19.803,28.6-20.925,44.704c-0.099,2.341-0.146,4.586-0.14,6.697
		c0.008,5.448,0.343,9.974,0.992,12.71c0.03,0.127,0.086,0.25,0.124,0.375c3.289,14.98,19.835,26.396,39.787,26.432
		c22.343,0.043,40.481-14.195,40.514-31.802c0-0.162-0.012-0.321-0.016-0.483C228.759,220.225,228.769,214.23,228.403,207.74z"/>
	<path fill="#FFFFFF" d="M217.823,164.069c-5.107-5.834-11.744-8.704-24.82-9.276c-0.205-0.01-0.418-0.016-0.627-0.023
		c-0.658-0.025-1.327-0.047-2.018-0.062c-0.685-0.014-1.381-0.023-2.099-0.026c-0.083,0-0.157-0.004-0.241-0.004h-0.016
		c-0.025,0-0.049,0-0.076,0c-0.015,0-0.028,0-0.043,0h-0.011c-0.047,0-0.092,0.002-0.141,0.002c-0.756,0-1.493,0.008-2.213,0.021
		c-0.823,0.012-1.616,0.036-2.392,0.065c-0.075,0.003-0.154,0.004-0.229,0.008c-13.088,0.522-19.737,3.369-24.865,9.186
		c-6.785,7.695-10.245,29.729-10.96,46.878c1.122-16.104,7.697-37.389,20.924-44.704c5.294-2.928,11.455-5.04,19.938-6.438
		c8.48,1.432,14.629,3.564,19.916,6.513c13.2,7.363,19.695,28.673,20.759,44.779C227.957,193.836,224.578,171.789,217.823,164.069z"
		/>
	<path fill="#232323" d="M162.699,170.363c2.252-2.74,6.102-3.558,9.148-1.146c3.033,2.39,3.584,8.204,0.466,12.052
		c-8.854,10.94-21.847,16.313-35.844,14.812c-4.921-0.523-8.643-5.029-8.18-8.858c0.458-3.861,3.761-6,7.291-5.652
		C146.167,182.703,156,178.643,162.699,170.363z"/>
	<path fill="#232323" d="M123.016,186.368c-1.02-0.075-1.977-0.603-2.091-1.354c-0.115-0.75,0.831-1.622,2.131-1.741
		c3.52-0.324,7.128,0.482,10.261,2.38c1.166,0.708,1.192,2.212,0.185,3.168c-1.008,0.959-2.289,1.187-2.998,0.584
		C128.493,187.682,125.883,186.569,123.016,186.368z"/>
	<path fill="#232323" d="M123.854,192.355c-0.938,0.396-2.034,0.361-2.476-0.254c-0.444-0.612,0-1.82,1.103-2.519
		c2.992-1.893,6.565-2.818,10.221-2.553c1.358,0.097,2.065,1.422,1.604,2.733c-0.458,1.314-1.498,2.098-2.399,1.883
		C129.332,191.033,126.501,191.232,123.854,192.355z"/>
	<path fill="#232323" d="M213.138,170.363c-2.253-2.74-6.103-3.558-9.149-1.146c-3.033,2.39-3.583,8.204-0.465,12.052
		c8.852,10.94,21.847,16.313,35.844,14.812c4.921-0.523,8.643-5.029,8.18-8.858c-0.458-3.861-3.761-6-7.291-5.652
		C229.669,182.703,219.838,178.643,213.138,170.363z"/>
	<path fill="#232323" d="M252.017,190.615c1.012-0.174,2.067,0.107,2.363,0.81c0.291,0.693-0.415,1.778-1.646,2.2
		c-3.338,1.172-7.029,1.268-10.531,0.186c-1.305-0.406-1.696-1.855-0.951-3.027c0.748-1.18,1.936-1.707,2.766-1.295
		C246.385,190.669,249.188,191.117,252.017,190.615z"/>
	<path fill="#232323" d="M251.114,184.766c0.919-0.447,2.012-0.473,2.486,0.123c0.479,0.59,0.098,1.817-0.968,2.574
		c-2.881,2.048-6.407,3.162-10.067,3.096c-1.364-0.027-2.144-1.314-1.752-2.647c0.392-1.335,1.385-2.175,2.299-2.011
		C245.717,186.38,248.533,186.031,251.114,184.766z"/>
	<path fill="#FFFFFF" d="M187.772,103.153c-7.222-0.014-15.646-2.861-20.418-4.079c-5.595-1.425-8.251-1.472-12.379-1.479
		c-12.493-0.023-16.344,6.521-17.399,9.192c8.243-25.309,34.312-28.814,49.713-28.787l1.271,0.003
		c15.398,0.028,41.456,3.629,49.607,28.971c-1.043-2.676-4.873-9.234-17.366-9.26c-4.126-0.008-6.785,0.03-12.384,1.436
		c-4.781,1.2-13.212,4.018-20.435,4.004H187.772z"/>
	<path fill="#444444" d="M238.122,106.996l0.043-0.021c-1.043-2.676-4.873-9.234-17.366-9.26c-4.126-0.008-6.786,0.03-12.384,1.436
		c-4.78,1.2-13.212,4.018-20.436,4.004h-0.207c-7.222-0.014-15.646-2.861-20.418-4.079c-5.595-1.425-8.251-1.472-12.379-1.479
		c-12.493-0.024-16.344,6.521-17.399,9.191l0.043,0.022c-2.647,2.527-4.416,9.18-4.196,16.955c0.274,9.857,3.633,17.767,7.5,17.66
		c0.073-0.003,0.143-0.025,0.214-0.033c8.953,18.09,33.567,26.516,46.487,26.54c12.919,0.022,37.744-8.312,46.829-26.372
		c0.081,0.009,0.159,0.037,0.241,0.039c3.861,0.118,7.252-7.777,7.562-17.634C242.503,116.19,240.761,109.535,238.122,106.996z"/>
	<path fill="#7F7F7F" d="M187.725,154.875c-6.528-0.012-20.381-6.086-20.354-19.368c0.024-13.279,15.316-14.306,20.464-14.296
		c5.149,0.009,20.453,1.092,20.429,14.37C208.239,148.864,194.257,154.888,187.725,154.875z"/>
	<path fill="#232323" d="M188.141,124.696c2.838,0.006,7.026,2.975,7.516,6.431c0.486,3.456-7.721,3.318-7.721,3.318h-0.235
		c0,0-8.207,0.108-7.708-3.348c0.5-3.452,4.7-6.406,7.54-6.4H188.141z"/>
	<g>
		<circle fill="#232323" cx="166.916" cy="114.591" r="2.508"/>
		<path fill="#232323" d="M211.303,114.672c-0.003,1.389-1.126,2.506-2.514,2.505c-1.381-0.003-2.504-1.127-2.503-2.513
			c0.003-1.387,1.128-2.508,2.512-2.505C210.186,112.162,211.308,113.287,211.303,114.672z"/>
	</g>
	<path fill="#232323" d="M232.794,112.627c3.184,0.124,5.758,6.131,6.73,14.611c0.113-1.065,0.194-2.174,0.224-3.322
		c0.208-7.749-1.671-14.107-4.188-14.206c-1.074-0.041-2.086,1.065-2.916,2.935C232.692,112.645,232.743,112.626,232.794,112.627z"
		/>
	<path fill="#232323" d="M142.926,112.462c-3.184,0.113-5.783,6.11-6.786,14.587c-0.11-1.065-0.186-2.176-0.212-3.325
		c-0.177-7.748,1.725-14.102,4.243-14.189c1.069-0.036,2.082,1.074,2.905,2.946C143.025,112.481,142.978,112.462,142.926,112.462z"
		/>
	<path fill="none" stroke="#7F7F7F" stroke-width="1.9744" stroke-linecap="round" stroke-miterlimit="10" d="M162.141,107.185
		c0.649-0.602,1.405-1.063,2.219-1.37c0.814-0.308,1.686-0.458,2.567-0.435c0.884,0.021,1.776,0.218,2.633,0.604
		c0.856,0.387,1.593,0.931,2.19,1.581"/>
	<path fill="none" stroke="#7F7F7F" stroke-width="1.9744" stroke-linecap="round" stroke-miterlimit="10" d="M204.121,107.185
		c0.649-0.602,1.405-1.063,2.218-1.37c0.814-0.308,1.688-0.458,2.569-0.435c0.882,0.021,1.776,0.218,2.633,0.604
		c0.855,0.388,1.592,0.931,2.191,1.581"/>
	<path fill="none" stroke="#232323" stroke-width="1.7887" stroke-linecap="round" stroke-miterlimit="10" d="M177.642,141.548
		c0.546,1.301,1.343,2.476,2.323,3.462c0.981,0.987,2.156,1.782,3.455,2.337c1.296,0.553,2.728,0.859,4.23,0.861
		c1.501,0.003,2.931-0.297,4.236-0.847c1.304-0.549,2.475-1.341,3.46-2.324c0.986-0.981,1.786-2.154,2.338-3.455"/>
	<path fill="#FFFFFF" d="M112.945,111.561l-12.354-5.147c-0.76-0.315-1.614-0.315-2.374,0l-12.354,5.147
		c-1.152,0.476-1.904,1.602-1.904,2.85c0,12.772,7.367,21.6,14.252,24.47c0.759,0.315,1.615,0.315,2.374,0
		c5.514-2.297,14.258-10.23,14.258-24.47C114.843,113.163,114.091,112.037,112.945,111.561z M109.908,118.908l-11.839,11.839
		c-0.399,0.399-1.055,0.399-1.454,0l-6.692-6.692c-0.399-0.399-0.399-1.055,0-1.454l1.454-1.454c0.399-0.399,1.055-0.399,1.454,0
		l4.511,4.51L107,116c0.399-0.399,1.055-0.399,1.454,0l1.454,1.454C110.313,117.859,110.313,118.509,109.908,118.908
		L109.908,118.908z"/>
	<path fill="#FFFFFF" d="M290.945,111.561l-12.354-5.147c-0.76-0.315-1.614-0.315-2.375,0l-12.354,5.147
		c-1.151,0.476-1.904,1.602-1.904,2.85c0,12.772,7.367,21.6,14.252,24.47c0.759,0.315,1.615,0.315,2.374,0
		c5.514-2.297,14.259-10.23,14.259-24.47C292.844,113.163,292.091,112.037,290.945,111.561z M287.908,118.908l-11.839,11.839
		c-0.399,0.399-1.056,0.399-1.454,0l-6.692-6.692c-0.399-0.399-0.399-1.055,0-1.454l1.454-1.454c0.399-0.399,1.055-0.399,1.455,0
		l4.51,4.51L285,116c0.399-0.399,1.055-0.399,1.454,0l1.454,1.454C288.313,117.859,288.313,118.509,287.908,118.908L287.908,118.908
		z"/>
	<g>
		<path fill="#21CE99" d="M295.774,149.502c0.863,0.636,1.376,1.486,1.54,2.549l4.342,28.176c0.165,1.071-0.069,2.031-0.701,2.895
			c-0.632,0.861-1.482,1.375-2.549,1.539l-46.35,7.143c-1.068,0.165-2.033-0.069-2.895-0.701c-0.862-0.632-1.375-1.478-1.54-2.549
			l-4.342-28.176c-0.163-1.064,0.069-2.028,0.702-2.895c0.632-0.858,1.481-1.376,2.548-1.54l46.35-7.142
			C293.948,148.637,294.913,148.874,295.774,149.502z"/>
		
			<rect x="248.23" y="159.996" transform="matrix(-0.9883 0.1523 -0.1523 -0.9883 565.342 287.0605)" fill="#232323" width="46.898" height="10.367"/>
		<g>
			<path fill="#FFFFFF" d="M257.532,178.137c-0.219-0.156-0.459-0.218-0.726-0.176l-5.763,0.887
				c-0.267,0.042-0.477,0.172-0.639,0.388c-0.155,0.216-0.216,0.459-0.175,0.722l0.494,3.201c0.042,0.271,0.172,0.481,0.383,0.64
				c0.219,0.158,0.458,0.215,0.724,0.174l5.764-0.888c0.267-0.042,0.478-0.168,0.639-0.384c0.153-0.215,0.216-0.455,0.173-0.726
				l-0.493-3.201C257.874,178.51,257.743,178.296,257.532,178.137z"/>
			<path fill="#FFFFFF" d="M272.9,175.77c-0.219-0.158-0.459-0.219-0.726-0.177l-10.887,1.678c-0.266,0.04-0.476,0.17-0.638,0.387
				c-0.154,0.215-0.214,0.458-0.173,0.721l0.493,3.202c0.042,0.271,0.171,0.481,0.384,0.639c0.218,0.159,0.458,0.215,0.725,0.174
				l10.886-1.677c0.267-0.042,0.478-0.168,0.639-0.384c0.155-0.215,0.214-0.454,0.174-0.726l-0.494-3.201
				C273.242,176.143,273.112,175.928,272.9,175.77z"/>
		</g>
	</g>
	<path fill="#232323" d="M251.418,182.089c0.987-0.244,1.846-0.93,1.829-1.687c-0.013-0.756-1.09-1.457-2.393-1.354
		c-3.53,0.277-6.944,1.678-9.713,4.083c-1.028,0.891-0.8,2.375,0.354,3.148c1.156,0.779,2.457,0.781,3.05,0.07
		C246.24,184.312,248.625,182.775,251.418,182.089z"/>
	<g>
		<g>
			<path fill="#84CD29" d="M129.779,157.033l-50.368-9.829c-1.546-0.302-3.044,0.707-3.345,2.252l-5.461,27.983
				c-0.301,1.545,0.708,3.042,2.253,3.344l50.367,9.829c1.545,0.302,3.042-0.707,3.344-2.252l5.46-27.983
				C132.332,158.833,131.323,157.334,129.779,157.033z"/>
		</g>
		<path fill="#FFFFFF" d="M75.075,176.858l1.092-5.596c3.092,0.604,5.107,3.597,4.504,6.688L75.075,176.858z"/>
		<path fill="#FFFFFF" d="M78.898,157.271l1.092-5.597l5.596,1.092C84.982,155.858,81.99,157.874,78.898,157.271z"/>
		<path fill="#FFFFFF" d="M122.646,186.142l-5.597-1.092c0.604-3.092,3.597-5.107,6.689-4.504L122.646,186.142z"/>
		<path fill="#FFFFFF" d="M126.468,166.554c-3.092-0.604-5.108-3.597-4.505-6.688l5.598,1.092L126.468,166.554z"/>
		<path fill="#FFFFFF" d="M99.407,178.701c-4.636-0.904-7.539-6.022-6.483-11.432c1.056-5.408,5.669-9.061,10.305-8.156
			s7.539,6.024,6.484,11.432C108.657,175.956,104.041,179.605,99.407,178.701z"/>
		
			<rect x="80.034" y="162.751" transform="matrix(0.9812 0.1927 -0.1927 0.9812 34.5153 -16.2709)" fill="none" width="41.698" height="13.011"/>
		
			<text transform="matrix(0.9812 0.1927 -0.1927 0.9812 95.9561 173.3037)" fill="#84CD29"  font-size="15">$</text>
	</g>
	<path fill="#232323" d="M125.172,180.854c-0.961-0.358-1.733-1.131-1.637-1.888c0.097-0.745,1.251-1.328,2.53-1.074
		c3.475,0.663,6.715,2.435,9.2,5.127c0.924,1.006,0.533,2.457-0.699,3.096c-1.239,0.645-2.531,0.504-3.042-0.269
		C130.069,183.636,127.871,181.841,125.172,180.854z"/>
</g>
</svg>
