<?xml version="1.0" encoding="utf-8"?>
<!-- Generator: Adobe Illustrator 16.0.4, SVG Export Plug-In . SVG Version: 6.00 Build 0)  -->
<!DOCTYPE svg PUBLIC "-//W3C//DTD SVG 1.1//EN" "http://www.w3.org/Graphics/SVG/1.1/DTD/svg11.dtd">
<svg version="1.1" id="Layer_1" xmlns="http://www.w3.org/2000/svg" xmlns:xlink="http://www.w3.org/1999/xlink" x="0px" y="0px"
	 width="300px" height="225px" viewBox="0 0 300 225" enable-background="new 0 0 300 225" xml:space="preserve">
<g>
	<g>
		<path fill="#232323" d="M142.882,44.691c-0.259-0.684-0.206-1.465,0.245-1.762c0.449-0.302,1.303,0.047,1.77,0.85
			c1.275,2.185,1.844,4.763,1.565,7.365c-0.108,0.967-1.069,1.439-1.994,1.078c-0.93-0.363-1.461-1.125-1.286-1.762
			C143.688,48.635,143.619,46.607,142.882,44.691z"/>
		<path fill="#232323" d="M138.9,46.125c-0.438-0.586-0.604-1.35-0.252-1.762c0.349-0.416,1.264-0.315,1.937,0.328
			c1.83,1.744,3.092,4.064,3.544,6.642c0.166,0.959-0.629,1.683-1.617,1.589c-0.99-0.092-1.714-0.677-1.725-1.338
			C140.771,49.689,140.141,47.764,138.9,46.125z"/>
		<path fill="#232323" d="M136.073,49.393c-0.654-0.319-1.152-0.926-1.027-1.455c0.121-0.522,0.981-0.854,1.875-0.588
			c2.423,0.717,4.604,2.209,6.181,4.297c0.584,0.779,0.205,1.783-0.718,2.15c-0.924,0.373-1.835,0.184-2.146-0.402
			C139.361,51.717,137.923,50.288,136.073,49.393z"/>
	</g>
	<g>
		<path fill="#232323" d="M87.095,86.21c-0.633-0.368-1.412-0.438-1.782-0.043c-0.368,0.396-0.161,1.295,0.559,1.884
			c1.95,1.609,4.404,2.583,7.019,2.725c0.973,0.048,1.593-0.826,1.383-1.797c-0.208-0.974-0.875-1.623-1.533-1.551
			C90.858,87.634,88.868,87.242,87.095,86.21z"/>
		<path fill="#232323" d="M89.148,82.507c-0.507-0.524-1.234-0.812-1.699-0.532c-0.466,0.278-0.514,1.198,0.015,1.965
			c1.428,2.086,3.515,3.705,5.987,4.562c0.921,0.317,1.759-0.351,1.828-1.34c0.068-0.994-0.393-1.802-1.045-1.917
			C92.368,84.923,90.565,83.995,89.148,82.507z"/>
		<path fill="#232323" d="M92.826,80.24c-0.21-0.697-0.729-1.283-1.271-1.248c-0.539,0.037-1,0.831-0.883,1.758
			c0.322,2.504,1.444,4.896,3.253,6.784c0.676,0.704,1.728,0.489,2.237-0.362c0.515-0.852,0.474-1.781-0.055-2.179
			C94.593,83.855,93.413,82.208,92.826,80.24z"/>
	</g>
	<g>
		<g>
			
				<ellipse transform="matrix(-0.5344 -0.8453 0.8453 -0.5344 155.1744 172.5736)" fill="#444444" cx="125.122" cy="43.545" rx="8.325" ry="3.263"/>
			<g>
				<path fill="#FFFFFF" d="M121.866,36.35c-9.77-7.643-20.762-2.218-26.709,1.797l-0.49,0.33
					C88.719,42.495,79.58,50.663,83.019,62.58l26.268-3.098L121.866,36.35"/>
				<path fill="#444444" d="M111.235,38.121c-1.414,0.956-2.312,1.586-3.859,3.427c-1.319,1.57-3.466,4.614-5.937,6.283
					l-0.085,0.058c-2.471,1.668-6.097,2.522-8.047,3.159c-2.285,0.748-3.205,1.347-4.618,2.3c-5.369,3.625-3.376,8.098-3.376,8.098
					l-0.008,0.006c3.986,11.703,8.547,8.473,8.547,8.473l30.82-20.808c0,0,4.498-3.31-4.951-11.345
					c-0.043-0.035-0.084-0.067-0.129-0.104C118.535,36.877,115.512,35.232,111.235,38.121z"/>
				<path fill="#444444" d="M118.312,73.08c-6.176,4.169-22.63,8.064-29.977-2.814c-7.343-10.877,6.534-21.5,11.403-24.789
					c4.868-3.287,19.926-12.198,27.268-1.322C134.354,55.034,124.486,68.909,118.312,73.08z"/>
				<path fill="#7F7F7F" d="M114.936,68.016c-2.521,1.702-9.453,2.981-12.916-2.148c-3.462-5.131,2.167-9.521,4.156-10.866
					c1.988-1.344,8.176-4.927,11.639,0.202C121.277,60.333,117.459,66.312,114.936,68.016z"/>
				<path fill="#232323" d="M107.204,56.268c1.097-0.742,3.49-0.69,4.582,0.514c1.09,1.205-2.111,3.299-2.111,3.299l-0.09,0.062
					c0,0-3.137,2.187-3.847,0.722c-0.71-1.462,0.137-3.7,1.234-4.439L107.204,56.268z"/>
				<path fill="none" stroke="#7F7F7F" stroke-width="0.9201" stroke-linecap="round" stroke-miterlimit="10" d="M93.421,58.721
					c-0.081-0.404-0.081-0.816-0.002-1.214c0.077-0.397,0.23-0.78,0.455-1.127c0.223-0.344,0.52-0.649,0.882-0.897
					c0.364-0.244,0.759-0.403,1.163-0.482"/>
				<path fill="none" stroke="#7F7F7F" stroke-width="0.9201" stroke-linecap="round" stroke-miterlimit="10" d="M114.479,44.671
					c-0.347-0.226-0.729-0.378-1.125-0.454c-0.398-0.078-0.812-0.08-1.214,0c-0.403,0.078-0.799,0.24-1.162,0.485
					c-0.362,0.243-0.659,0.55-0.883,0.896"/>
				<g>
					<circle fill="#232323" cx="96.377" cy="57.919" r="1.169"/>
					<circle fill="#232323" cx="112.55" cy="46.998" r="1.169"/>
				</g>
				
					<ellipse transform="matrix(0.5842 0.8116 -0.8116 0.5842 92.2328 -43.4002)" fill="#444444" cx="88.472" cy="68.312" rx="8.326" ry="3.264"/>
				<path fill="#232323" d="M86.566,63.37c-1.199,0.875-0.633,3.868,1.197,7.399c-0.322-0.383-0.642-0.791-0.951-1.226
					c-2.095-2.944-3.022-5.892-2.075-6.583c0.404-0.293,1.084-0.13,1.891,0.378C86.609,63.35,86.584,63.355,86.566,63.37z"/>
				<path fill="#FFFFFF" d="M101.431,48.053c-2.789,1.883-6.784,2.987-8.943,3.766c-2.53,0.912-3.568,1.59-5.161,2.668
					c-4.826,3.257-4.6,6.787-4.309,8.095c-3.439-11.917,5.7-20.085,11.648-24.103l0.49-0.332c5.948-4.016,16.938-9.438,26.709-1.796
					c-1.102-0.758-4.295-2.289-9.118,0.967c-1.594,1.079-2.61,1.788-4.402,3.794c-1.53,1.711-4.046,5.003-6.836,6.887
					L101.431,48.053z"/>
				<path fill="none" stroke="#232323" stroke-width="0.8335" stroke-linecap="round" stroke-miterlimit="10" d="M115.286,60.143
					c0.127,0.648,0.127,1.309,0.002,1.943c-0.123,0.637-0.368,1.25-0.728,1.801c-0.358,0.553-0.832,1.043-1.412,1.434
					c-0.58,0.393-1.213,0.648-1.858,0.777c-0.646,0.125-1.306,0.125-1.943,0c-0.636-0.125-1.25-0.369-1.802-0.729"/>
			</g>
		</g>
		<path fill="#232323" d="M121.273,39.936c1.26-0.781,3.824,0.86,6.416,3.879c-0.233-0.441-0.492-0.89-0.782-1.342
			c-1.947-3.043-4.333-5.004-5.33-4.383c-0.425,0.266-0.526,0.956-0.358,1.893C121.238,39.969,121.253,39.949,121.273,39.936z"/>
	</g>
	<ellipse opacity="0.3" fill="#232323" enable-background="new    " cx="150" cy="183.642" rx="54.887" ry="8.859"/>
	<g>
		<g>
			<path fill="#EA651B" d="M97.36,159.402c4.399,5.429,9.716,10.269,15.907,14.265c31.426,20.288,73.346,11.263,93.633-20.166
				c10.824-16.767,13.302-36.517,8.484-54.378c-1.628,11.177-5.621,22.191-12.148,32.305
				C180.262,167.016,134.169,178.661,97.36,159.402z"/>
			<path fill="#FF7E1C" d="M93.101,80.034c-16.291,25.233-13.675,57.233,4.26,79.368c36.809,19.26,82.901,7.613,105.877-27.975
				c6.525-10.111,10.52-21.129,12.15-32.306c-4.209-15.618-13.992-29.792-28.652-39.257
				C155.307,39.578,113.386,48.607,93.101,80.034z"/>
		</g>
		<g>
			<g>
				<g>
					<path fill="#FFFFFF" d="M170.578,117.492c1.518,1.894,2.12,4.502,1.818,7.831c-0.457,4.016-2.121,6.938-4.998,8.751
						c-2.502,1.517-6.254,2.424-11.252,2.729v7.721h-5.562v-7.614h-4.315v7.614h-5.571v-7.721h-11.015l1.137-6.59h1.135
						c1.818,0.076,2.984,0.032,3.516-0.117c0.758-0.228,1.213-0.789,1.363-1.699v-24.652c-0.227-1.21-0.865-1.969-1.926-2.271
						c-0.682-0.227-2.12-0.303-4.314-0.227h-0.91v-5.907l3.408,0.118c4.014,0,6.545-0.043,7.605-0.118V86.37h5.57v8.86l4.316-0.119
						V86.37h5.561v8.97c3.861,0.377,6.814,1.211,8.86,2.498c2.5,1.516,3.861,3.787,4.091,6.816c0.453,4.392-1.094,7.496-4.654,9.312
						l0,0C167.245,114.57,169.291,115.75,170.578,117.492L170.578,117.492z M146.378,112.602h0.909
						c3.181,0.078,5.646-0.106,7.388-0.561c3.029-0.757,4.544-2.391,4.544-4.889c0-2.5-1.48-4.166-4.436-5
						c-1.666-0.454-4.12-0.637-7.377-0.562c-0.531,0.076-0.877,0.108-1.028,0.108V112.602L146.378,112.602z M147.406,130.214
						c3.861,0.075,6.771-0.118,8.74-0.573c3.56-0.908,5.345-2.727,5.345-5.453c0-2.726-1.742-4.541-5.226-5.451
						c-1.893-0.53-4.771-0.715-8.632-0.562h-1.256v12.039H147.406L147.406,130.214z"/>
				</g>
			</g>
		</g>
	</g>
</g>
</svg>
