<?xml version="1.0" encoding="utf-8"?>
<!-- Generator: Adobe Illustrator 16.0.4, SVG Export Plug-In . SVG Version: 6.00 Build 0)  -->
<!DOCTYPE svg PUBLIC "-//W3C//DTD SVG 1.1//EN" "http://www.w3.org/Graphics/SVG/1.1/DTD/svg11.dtd">
<svg version="1.1" id="Layer_1" xmlns="http://www.w3.org/2000/svg" xmlns:xlink="http://www.w3.org/1999/xlink" x="0px" y="0px"
	 width="375px" height="375px" viewBox="0 0 375 375" enable-background="new 0 0 375 375" xml:space="preserve">
<g>
	<g>
		<path fill="#232323" d="M178.103,103.24c-0.324-0.854-0.258-1.831,0.306-2.204c0.561-0.376,1.627,0.06,2.211,1.064
			c1.595,2.729,2.305,5.952,1.958,9.205c-0.135,1.209-1.338,1.8-2.493,1.349c-1.162-0.454-1.826-1.407-1.608-2.203
			C179.109,108.169,179.024,105.634,178.103,103.24z"/>
		<path fill="#232323" d="M173.125,105.032c-0.548-0.733-0.756-1.687-0.316-2.203c0.436-0.519,1.58-0.394,2.421,0.411
			c2.287,2.18,3.865,5.08,4.43,8.301c0.208,1.199-0.786,2.102-2.021,1.986c-1.239-0.115-2.143-0.846-2.156-1.673
			C175.463,109.488,174.676,107.079,173.125,105.032z"/>
		<path fill="#232323" d="M169.592,109.115c-0.818-0.398-1.44-1.156-1.285-1.817c0.151-0.655,1.227-1.068,2.345-0.735
			c3.028,0.896,5.754,2.761,7.724,5.371c0.731,0.974,0.256,2.229-0.896,2.688c-1.155,0.466-2.294,0.228-2.68-0.504
			C173.701,112.021,171.904,110.235,169.592,109.115z"/>
	</g>
	<g>
		<path fill="#232323" d="M108.369,155.137c-0.791-0.459-1.765-0.549-2.227-0.053c-0.46,0.495-0.201,1.619,0.699,2.355
			c2.438,2.011,5.505,3.229,8.773,3.406c1.216,0.06,1.991-1.033,1.729-2.247c-0.26-1.216-1.095-2.027-1.917-1.938
			C113.073,156.917,110.585,156.428,108.369,155.137z"/>
		<path fill="#232323" d="M110.935,150.509c-0.633-0.656-1.543-1.016-2.124-0.665c-0.583,0.348-0.642,1.498,0.019,2.457
			c1.785,2.606,4.394,4.631,7.484,5.7c1.152,0.398,2.199-0.438,2.285-1.675c0.085-1.242-0.491-2.252-1.306-2.396
			C114.96,153.529,112.706,152.368,110.935,150.509z"/>
		<path fill="#232323" d="M115.532,147.675c-0.262-0.872-0.912-1.604-1.588-1.56c-0.673,0.046-1.25,1.039-1.103,2.198
			c0.402,3.13,1.805,6.12,4.066,8.48c0.845,0.88,2.16,0.611,2.797-0.453c0.643-1.065,0.592-2.227-0.069-2.724
			C117.741,152.196,116.266,150.136,115.532,147.675z"/>
	</g>
	<g>
		<g>
			
				<ellipse transform="matrix(0.5344 0.8452 -0.8452 0.5344 158.6328 -84.3552)" fill="#444444" cx="155.884" cy="101.81" rx="10.407" ry="4.079"/>
			<g>
				<path fill="#FFFFFF" d="M151.833,92.813c-12.213-9.554-25.952-2.773-33.387,2.245l-0.613,0.414
					c-7.435,5.022-18.859,15.232-14.56,30.129l32.834-3.873L151.833,92.813"/>
				<path fill="#444444" d="M138.544,95.027c-1.767,1.194-2.889,1.982-4.824,4.283c-1.649,1.963-4.333,5.767-7.421,7.854
					l-0.107,0.071c-3.089,2.086-7.621,3.153-10.059,3.95c-2.856,0.934-4.006,1.683-5.773,2.874
					c-6.711,4.531-4.22,10.122-4.22,10.122l-0.01,0.008c4.982,14.629,10.684,10.591,10.684,10.591l38.525-26.01
					c0,0,5.622-4.137-6.189-14.18c-0.055-0.045-0.106-0.085-0.161-0.131C147.669,93.472,143.889,91.417,138.544,95.027z"/>
				<path fill="#444444" d="M147.389,138.725c-7.72,5.211-28.287,10.081-37.469-3.517c-9.179-13.598,8.167-26.877,14.254-30.986
					c6.085-4.109,24.907-15.247,34.085-1.653C167.441,116.167,155.108,133.511,147.389,138.725z"/>
				<path fill="#7F7F7F" d="M143.169,132.394c-3.151,2.129-11.815,3.728-16.144-2.685c-4.328-6.412,2.709-11.903,5.195-13.582
					c2.485-1.68,10.219-6.159,14.548,0.252C151.096,122.792,146.324,130.267,143.169,132.394z"/>
				<path fill="#232323" d="M133.505,117.709c1.371-0.926,4.362-0.863,5.727,0.642c1.363,1.508-2.639,4.124-2.639,4.124
					l-0.113,0.078c0,0-3.921,2.734-4.809,0.903c-0.888-1.826,0.172-4.625,1.543-5.549L133.505,117.709z"/>
				<path fill="none" stroke="#7F7F7F" stroke-width="1.1501" stroke-linecap="round" stroke-miterlimit="10" d="M116.277,120.777
					c-0.101-0.505-0.101-1.021-0.003-1.518c0.096-0.498,0.288-0.977,0.569-1.409c0.278-0.43,0.649-0.812,1.103-1.121
					c0.455-0.305,0.948-0.505,1.453-0.604"/>
				<path fill="none" stroke="#7F7F7F" stroke-width="1.1501" stroke-linecap="round" stroke-miterlimit="10" d="M142.598,103.214
					c-0.433-0.282-0.912-0.473-1.408-0.568c-0.498-0.098-1.014-0.099-1.518,0c-0.504,0.098-0.999,0.3-1.452,0.607
					c-0.453,0.304-0.824,0.688-1.104,1.119"/>
				<g>
					<circle fill="#232323" cx="119.971" cy="119.774" r="1.461"/>
					<circle fill="#232323" cx="140.188" cy="106.123" r="1.461"/>
				</g>
				
					<ellipse transform="matrix(-0.5842 -0.8116 0.8116 -0.5842 66.6451 299.6799)" fill="#444444" cx="110.087" cy="132.769" rx="10.407" ry="4.08"/>
				<path fill="#232323" d="M107.708,126.588c-1.499,1.093-0.791,4.835,1.496,9.25c-0.402-0.479-0.802-0.99-1.189-1.533
					c-2.618-3.68-3.777-7.363-2.594-8.229c0.505-0.366,1.356-0.162,2.364,0.473C107.761,126.563,107.731,126.571,107.708,126.588z"
					/>
				<path fill="#FFFFFF" d="M126.288,107.441c-3.486,2.354-8.479,3.734-11.178,4.708c-3.163,1.139-4.46,1.986-6.452,3.333
					c-6.032,4.071-5.749,8.484-5.385,10.118c-4.299-14.897,7.125-25.106,14.56-30.127l0.613-0.416
					c7.435-5.019,21.173-11.798,33.387-2.244c-1.378-0.948-5.368-2.861-11.398,1.209c-1.992,1.348-3.263,2.234-5.503,4.741
					c-1.912,2.139-5.058,6.254-8.545,8.609L126.288,107.441z"/>
				<path fill="none" stroke="#232323" stroke-width="1.0419" stroke-linecap="round" stroke-miterlimit="10" d="M143.608,122.554
					c0.159,0.81,0.158,1.635,0.002,2.429c-0.153,0.797-0.46,1.562-0.909,2.251c-0.449,0.691-1.04,1.303-1.765,1.792
					c-0.725,0.489-1.516,0.81-2.322,0.97c-0.807,0.157-1.633,0.157-2.429,0.002c-0.795-0.156-1.563-0.462-2.252-0.911"/>
			</g>
		</g>
		<path fill="#232323" d="M151.092,97.295c1.575-0.978,4.78,1.075,8.021,4.848c-0.293-0.552-0.616-1.112-0.978-1.678
			c-2.434-3.803-5.416-6.254-6.663-5.478c-0.531,0.331-0.658,1.194-0.447,2.366C151.049,97.336,151.066,97.311,151.092,97.295z"/>
	</g>
	<ellipse opacity="0.3" fill="#232323" enable-background="new    " cx="187" cy="276.927" rx="68.608" ry="11.074"/>
	<g>
		<g>
			<path fill="#EA651B" d="M121.2,246.629c5.499,6.785,12.145,12.834,19.884,17.83c39.282,25.359,91.683,14.076,117.043-25.208
				c13.528-20.958,16.625-45.645,10.606-67.972c-2.036,13.971-7.028,27.741-15.188,40.381
				C224.827,256.144,167.212,270.701,121.2,246.629z"/>
			<path fill="#FF7E1C" d="M115.876,147.417c-20.364,31.543-17.094,71.541,5.324,99.21c46.012,24.074,103.627,9.517,132.346-34.967
				c8.158-12.641,13.15-26.412,15.188-40.382c-5.26-19.523-17.489-37.241-35.814-49.072
				C193.633,96.847,141.233,108.136,115.876,147.417z"/>
		</g>
		<g>
			<g>
				<g>
					<path fill="#FFFFFF" d="M212.723,194.24c1.895,2.367,2.65,5.627,2.272,9.789c-0.57,5.02-2.651,8.672-6.247,10.939
						c-3.126,1.895-7.817,3.029-14.065,3.411v9.651h-6.951v-9.519h-5.395v9.519h-6.964v-9.651h-13.767l1.42-8.238h1.419
						c2.273,0.095,3.731,0.041,4.395-0.147c0.946-0.284,1.515-0.987,1.704-2.123v-30.817c-0.283-1.513-1.081-2.46-2.408-2.838
						c-0.851-0.284-2.649-0.379-5.393-0.284h-1.137v-7.383l4.26,0.147c5.018,0,8.18-0.055,9.506-0.147v-11.211h6.964v11.076
						l5.395-0.148v-10.927h6.951v11.212c4.826,0.471,8.518,1.514,11.075,3.122c3.125,1.895,4.827,4.733,5.112,8.52
						c0.568,5.489-1.365,9.37-5.816,11.642l0,0C208.557,190.588,211.113,192.063,212.723,194.24L212.723,194.24z M182.472,188.127
						h1.136c3.976,0.098,7.059-0.134,9.236-0.701c3.786-0.947,5.68-2.989,5.68-6.111c0-3.125-1.852-5.206-5.545-6.249
						c-2.083-0.568-5.15-0.798-9.222-0.702c-0.664,0.095-1.096,0.135-1.285,0.135V188.127L182.472,188.127z M183.758,210.142
						c4.827,0.094,8.464-0.148,10.926-0.716c4.448-1.137,6.68-3.409,6.68-6.816c0-3.408-2.178-5.678-6.531-6.814
						c-2.365-0.664-5.964-0.893-10.79-0.702h-1.57v15.049H183.758L183.758,210.142z"/>
				</g>
			</g>
		</g>
	</g>
</g>
</svg>
