<?xml version="1.0" encoding="utf-8"?>
<!-- Generator: Adobe Illustrator 16.0.4, SVG Export Plug-In . SVG Version: 6.00 Build 0)  -->
<!DOCTYPE svg PUBLIC "-//W3C//DTD SVG 1.1//EN" "http://www.w3.org/Graphics/SVG/1.1/DTD/svg11.dtd">
<svg version="1.1" id="Layer_1" xmlns="http://www.w3.org/2000/svg" xmlns:xlink="http://www.w3.org/1999/xlink" x="0px" y="0px"
	 width="300px" height="225px" viewBox="37.5 75 300 225" enable-background="new 37.5 75 300 225" xml:space="preserve">
<path fill="#232323" d="M95.664,184.6c1.465-1.113,2.397-2.839,1.836-4.089c-0.557-1.244-2.833-1.638-4.915-0.547
	c-5.635,2.941-10.297,7.679-13.183,13.597c-1.068,2.208,0.36,4.502,2.81,4.966c2.46,0.463,4.614-0.443,5.098-2.042
	C88.667,191.924,91.528,187.698,95.664,184.6z"/>
<path fill="#232323" d="M100.23,194.462c1.809-0.316,3.428-1.437,3.493-2.8c0.076-1.356-1.772-2.751-4.121-2.727
	c-6.36,0.054-12.665,2.145-17.927,6.103c-1.955,1.476-1.732,4.166,0.241,5.7c1.975,1.54,4.311,1.712,5.459,0.506
	C90.669,197.799,95.137,195.341,100.23,194.462z"/>
<g>
	<path fill="#232323" d="M291.8,206.032l-4.184-29.251c-0.557-3.872-3.873-6.76-7.791-6.76h-37.8v-5.25h15.75
		c1.444,0,2.624-1.182,2.624-2.625v-15.75c0-1.444-1.183-2.624-2.624-2.624h-42c-1.445,0-2.625,1.182-2.625,2.624v15.75
		c0,1.445,1.182,2.625,2.625,2.625h15.75v5.25h-11.551c-3.921,0-7.236,2.887-7.793,6.76l-4.184,29.251
		c-0.065,0.491-0.098,0.983-0.098,1.493v12.371c0,4.348,3.526,7.875,7.875,7.875h68.25c4.347,0,7.875-3.527,7.875-7.875v-12.388
		C291.899,207.016,291.865,206.525,291.8,206.032z"/>
	<polygon fill="#D0DAE3" points="219.974,177.896 279.806,177.896 283.565,204.146 216.232,204.146 	"/>
	<rect x="215.773" y="212.021" fill="#D0DAE3" width="68.25" height="7.876"/>
	<path fill="#232323" d="M235.463,192.334h-2.625c-1.445,0-2.625,1.182-2.625,2.625v2.622c0,1.446,1.182,2.625,2.625,2.625h2.625
		c1.443,0,2.624-1.181,2.624-2.625v-2.622C238.087,193.514,236.904,192.334,235.463,192.334z"/>
	<path fill="#232323" d="M230.212,184.458c0-1.444-1.183-2.625-2.625-2.625h-2.624c-1.445,0-2.625,1.182-2.625,2.625v2.625
		c0,1.444,1.182,2.625,2.625,2.625h2.624c1.444,0,2.625-1.182,2.625-2.625V184.458z"/>
	<path fill="#232323" d="M245.963,184.458c0-1.444-1.183-2.625-2.625-2.625h-2.625c-1.444,0-2.625,1.182-2.625,2.625v2.625
		c0,1.444,1.183,2.625,2.625,2.625h2.625c1.442,0,2.625-1.182,2.625-2.625V184.458z"/>
	<path fill="#232323" d="M266.963,192.334h-2.625c-1.444,0-2.625,1.182-2.625,2.625v2.622c0,1.446,1.183,2.625,2.625,2.625h2.625
		c1.443,0,2.624-1.181,2.624-2.625v-2.622C269.587,193.514,268.404,192.334,266.963,192.334z"/>
	<path fill="#232323" d="M274.836,181.833h-2.624c-1.445,0-2.625,1.182-2.625,2.625v2.623c0,1.446,1.181,2.625,2.625,2.625h2.624
		c1.444,0,2.625-1.181,2.625-2.625v-2.623C277.462,183.015,276.28,181.833,274.836,181.833z"/>
	<rect x="221.025" y="151.646" fill="#21CE99" width="31.5" height="5.25"/>
	<path fill="#232323" d="M261.712,184.458c0-1.444-1.183-2.625-2.625-2.625h-2.624c-1.445,0-2.625,1.182-2.625,2.625v2.625
		c0,1.444,1.182,2.625,2.625,2.625h2.624c1.444,0,2.625-1.182,2.625-2.625V184.458z"/>
	<path fill="#232323" d="M251.212,192.334h-2.625c-1.444,0-2.624,1.182-2.624,2.625v2.622c0,1.446,1.182,2.625,2.624,2.625h2.625
		c1.443,0,2.624-1.181,2.624-2.625v-2.622C253.836,193.514,252.655,192.334,251.212,192.334z"/>
</g>
<path fill="#232323" d="M85.813,186.096c-5.434-4.389-12.371-2.997-16.473,1.884c-8.43,10.202-19.519,16.753-31.84,19.087v26.876
	c19.01-1.739,36.239-10.829,48.923-26.18C92.092,200.909,91.224,190.442,85.813,186.096z"/>
<g>
	<g>
		<g>
			<path fill="#84CD29" d="M153.329,142.068l-68.391,5.326c-2.096,0.163-3.666,1.998-3.503,4.096l2.959,37.995
				c0.162,2.097,1.999,3.667,4.095,3.503l68.389-5.324c2.099-0.163,3.667-1.998,3.504-4.095l-2.958-37.995
				C157.26,143.474,155.425,141.905,153.329,142.068z"/>
		</g>
		<path fill="#FFFFFF" d="M89.945,187.139l-0.591-7.599c4.197-0.326,7.862,2.811,8.189,7.007L89.945,187.139z"/>
		<path fill="#FFFFFF" d="M87.874,160.544l-0.591-7.6l7.598-0.591C95.207,156.55,92.071,160.217,87.874,160.544z"/>
		<path fill="#FFFFFF" d="M154.536,182.11l-7.602,0.592c-0.326-4.197,2.81-7.863,7.011-8.189L154.536,182.11z"/>
		<path fill="#FFFFFF" d="M152.466,155.515c-4.2,0.326-7.866-2.81-8.194-7.008l7.602-0.592L152.466,155.515z"/>
		<path fill="#FFFFFF" d="M121.941,180.826c-14.887,1.159-27.42-3.855-27.993-11.198c-0.572-7.344,11.035-14.239,25.922-15.397
			c14.892-1.16,27.427,3.854,27.999,11.199C148.443,172.774,136.831,179.667,121.941,180.826z"/>
	</g>
	
		<rect x="93.733" y="161.613" transform="matrix(-0.997 0.0776 -0.0776 -0.997 254.5145 327.142)" fill="none" width="54.338" height="13.805"/>
	
		<text transform="matrix(0.997 -0.0776 0.0776 0.997 109.6304 173.1123)" fill="#84CD29" font-family="'DMSans-Bold'" font-size="13.9343">$20</text>
</g>
<path fill="#232323" d="M87.031,178.37c1.102-1.475,1.517-3.395,0.632-4.44c-0.873-1.036-3.183-0.786-4.87,0.836
	c-4.599,4.392-7.768,10.231-8.896,16.717c-0.414,2.42,1.589,4.229,4.076,3.992c2.496-0.23,4.311-1.703,4.332-3.369
	C82.346,187.347,83.917,182.493,87.031,178.37z"/>
</svg>
