<?xml version="1.0" encoding="utf-8"?>
<!-- Generator: Adobe Illustrator 16.0.4, SVG Export Plug-In . SVG Version: 6.00 Build 0)  -->
<!DOCTYPE svg PUBLIC "-//W3C//DTD SVG 1.1//EN" "http://www.w3.org/Graphics/SVG/1.1/DTD/svg11.dtd">
<svg version="1.1" id="Layer_1" xmlns="http://www.w3.org/2000/svg" xmlns:xlink="http://www.w3.org/1999/xlink" x="0px" y="0px"
	 width="375px" height="375px" viewBox="0 0 375 375" enable-background="new 0 0 375 375" xml:space="preserve">
<path fill="#232323" d="M72.705,183.75c1.831-1.391,2.996-3.549,2.295-5.111c-0.696-1.555-3.542-2.047-6.144-0.684
	c-7.044,3.676-12.871,9.598-16.478,16.996c-1.335,2.76,0.45,5.627,3.512,6.207c3.076,0.578,5.768-0.555,6.373-2.553
	C63.96,192.905,67.535,187.622,72.705,183.75z"/>
<path fill="#232323" d="M78.413,196.077c2.261-0.396,4.285-1.795,4.366-3.5c0.095-1.695-2.216-3.438-5.151-3.408
	c-7.95,0.068-15.831,2.68-22.409,7.629c-2.444,1.844-2.165,5.207,0.301,7.125c2.469,1.924,5.388,2.139,6.824,0.631
	C66.462,200.249,72.047,197.176,78.413,196.077z"/>
<g>
	<path fill="#232323" d="M317.876,210.54l-5.23-36.564c-0.696-4.84-4.84-8.45-9.739-8.45h-47.25v-6.562h19.688
		c1.805,0,3.28-1.478,3.28-3.281v-19.688c0-1.805-1.478-3.28-3.28-3.28h-52.5c-1.806,0-3.281,1.477-3.281,3.28v19.688
		c0,1.806,1.477,3.281,3.281,3.281h19.688v6.562h-14.438c-4.902,0-9.046,3.609-9.742,8.45l-5.229,36.564
		c-0.082,0.615-0.123,1.23-0.123,1.867v15.463c0,5.434,4.408,9.844,9.845,9.844h85.312c5.434,0,9.844-4.41,9.844-9.844v-15.484
		C318,211.77,317.958,211.157,317.876,210.54z"/>
	<polygon fill="#D0DAE3" points="228.093,175.37 302.884,175.37 307.583,208.182 223.417,208.182 	"/>
	<rect x="222.843" y="218.026" fill="#D0DAE3" width="85.312" height="9.844"/>
	<path fill="#232323" d="M247.454,193.417h-3.281c-1.806,0-3.28,1.477-3.28,3.281v3.279c0,1.807,1.476,3.281,3.28,3.281h3.281
		c1.805,0,3.28-1.477,3.28-3.281v-3.279C250.734,194.893,249.257,193.417,247.454,193.417z"/>
	<path fill="#232323" d="M240.89,183.573c0-1.805-1.477-3.281-3.281-3.281h-3.28c-1.806,0-3.281,1.477-3.281,3.281v3.281
		c0,1.805,1.478,3.281,3.281,3.281h3.28c1.806,0,3.281-1.477,3.281-3.281V183.573z"/>
	<path fill="#232323" d="M260.579,183.573c0-1.805-1.478-3.281-3.281-3.281h-3.28c-1.806,0-3.281,1.477-3.281,3.281v3.281
		c0,1.805,1.477,3.281,3.281,3.281h3.28c1.804,0,3.281-1.477,3.281-3.281V183.573z"/>
	<path fill="#232323" d="M286.829,193.417h-3.281c-1.805,0-3.28,1.477-3.28,3.281v3.279c0,1.807,1.477,3.281,3.28,3.281h3.281
		c1.805,0,3.28-1.477,3.28-3.281v-3.279C290.109,194.893,288.632,193.417,286.829,193.417z"/>
	<path fill="#232323" d="M296.671,180.292h-3.281c-1.806,0-3.281,1.477-3.281,3.281v3.279c0,1.807,1.477,3.281,3.281,3.281h3.281
		c1.805,0,3.281-1.477,3.281-3.281v-3.279C299.954,181.768,298.476,180.292,296.671,180.292z"/>
	<rect x="229.407" y="142.557" fill="#21CE99" width="39.375" height="6.562"/>
	<path fill="#232323" d="M280.265,183.573c0-1.805-1.477-3.281-3.281-3.281h-3.28c-1.806,0-3.281,1.477-3.281,3.281v3.281
		c0,1.805,1.478,3.281,3.281,3.281h3.28c1.806,0,3.281-1.477,3.281-3.281V183.573z"/>
	<path fill="#232323" d="M267.14,193.417h-3.281c-1.805,0-3.28,1.477-3.28,3.281v3.279c0,1.807,1.478,3.281,3.28,3.281h3.281
		c1.805,0,3.281-1.477,3.281-3.281v-3.279C270.421,194.893,268.945,193.417,267.14,193.417z"/>
</g>
<path fill="#232323" d="M60.392,185.62c-6.792-5.486-15.463-3.746-20.591,2.355C29.263,200.727,15.403,208.917,0,211.834v33.596
	c23.763-2.174,45.299-13.537,61.155-32.725C68.24,204.137,67.155,191.053,60.392,185.62z"/>
<g>
	<g>
		<g>
			<path fill="#84CD29" d="M144.787,130.585l-85.489,6.657c-2.62,0.204-4.582,2.498-4.379,5.12l3.699,47.494
				c0.203,2.621,2.498,4.583,5.119,4.379l85.486-6.656c2.624-0.204,4.583-2.497,4.38-5.119l-3.698-47.494
				C149.7,132.343,147.407,130.381,144.787,130.585z"/>
		</g>
		<path fill="#FFFFFF" d="M65.557,186.924l-0.739-9.498c5.246-0.408,9.828,3.513,10.236,8.759L65.557,186.924z"/>
		<path fill="#FFFFFF" d="M62.968,153.68l-0.739-9.5l9.497-0.739C72.134,148.688,68.214,153.271,62.968,153.68z"/>
		<path fill="#FFFFFF" d="M146.296,180.637l-9.502,0.74c-0.408-5.246,3.512-9.828,8.763-10.237L146.296,180.637z"/>
		<path fill="#FFFFFF" d="M143.708,147.393c-5.25,0.408-9.833-3.512-10.243-8.76l9.503-0.74L143.708,147.393z"/>
		<path fill="#FFFFFF" d="M105.552,179.032c-18.609,1.449-34.276-4.819-34.991-13.998c-0.715-9.18,13.793-17.798,32.403-19.247
			c18.615-1.449,34.284,4.818,34.998,13.999C138.679,168.968,124.164,177.583,105.552,179.032z"/>
	</g>
	
		<rect x="70.294" y="155.011" transform="matrix(0.997 -0.0776 0.0776 0.997 -12.3879 8.5866)" fill="none" width="67.922" height="17.256"/>
	
		<text transform="matrix(0.997 -0.0776 0.0776 0.997 90.1626 169.3892)" fill="#84CD29"  font-size="17.4177">$20</text>
</g>
<path fill="#232323" d="M61.914,175.963c1.377-1.844,1.896-4.244,0.79-5.551c-1.09-1.295-3.978-0.983-6.087,1.045
	c-5.748,5.49-9.71,12.789-11.119,20.896c-0.518,3.025,1.986,5.285,5.095,4.99c3.12-0.289,5.388-2.129,5.414-4.211
	C56.058,187.184,58.022,181.116,61.914,175.963z"/>
</svg>
