<?xml version="1.0" encoding="utf-8"?>
<!-- Generator: Adobe Illustrator 16.0.4, SVG Export Plug-In . SVG Version: 6.00 Build 0)  -->
<!DOCTYPE svg PUBLIC "-//W3C//DTD SVG 1.1//EN" "http://www.w3.org/Graphics/SVG/1.1/DTD/svg11.dtd">
<svg version="1.1" id="Layer_1" xmlns="http://www.w3.org/2000/svg" xmlns:xlink="http://www.w3.org/1999/xlink" x="0px" y="0px"
	 width="375px" height="375px" viewBox="0 0 375 375" enable-background="new 0 0 375 375" xml:space="preserve">
<g>
	<g>
		<path fill="#232323" d="M186.419,295.266c-0.202,1.604-5.416,46.859-13.112,53.219c-7.697,6.354-11.747,4.227-13.318,2.543
			c-1.645-1.76-3.719-4.932,0.111-8.516c3.079-2.887,5.227-15.637,2.11-35.525L186.419,295.266z"/>
		<g>
			<path fill="#232323" d="M154.546,346.109c-0.964,0.277-2.03,0.115-2.394-0.537c-0.36-0.65,0.213-1.781,1.372-2.332
				c3.142-1.504,6.745-1.992,10.286-1.314c1.316,0.258,1.853,1.635,1.254,2.859c-0.605,1.234-1.709,1.879-2.564,1.568
				C160.051,345.449,157.26,345.312,154.546,346.109z"/>
			<path fill="#232323" d="M156.066,351.734c-0.853,0.535-1.922,0.678-2.45,0.148c-0.53-0.523-0.288-1.77,0.672-2.621
				c2.601-2.314,5.925-3.785,9.517-4.115c1.336-0.115,2.236,1.057,1.995,2.402c-0.235,1.35-1.118,2.277-2.03,2.213
				C161.17,349.572,158.454,350.217,156.066,351.734z"/>
			<path fill="#232323" d="M160.229,355.986c-0.512,0.861-1.397,1.475-2.11,1.246c-0.709-0.227-1.063-1.443-0.597-2.643
				c1.262-3.244,3.554-6.064,6.602-7.992c1.134-0.719,2.469-0.082,2.868,1.227c0.405,1.312,0.042,2.539-0.797,2.896
				C163.791,351.738,161.666,353.549,160.229,355.986z"/>
		</g>
	</g>
	<g>
		<path fill="#232323" d="M191.133,294.846c0.204,1.6,5.587,46.838,13.307,53.166c7.72,6.326,11.763,4.186,13.326,2.496
			c1.634-1.768,3.702-4.945-0.143-8.518c-3.092-2.873-5.284-15.617-2.242-35.518L191.133,294.846z"/>
		<g>
			<path fill="#232323" d="M221.863,346.096c0.966,0.271,2.031,0.105,2.39-0.547c0.359-0.652-0.219-1.781-1.381-2.328
				c-3.146-1.494-6.75-1.969-10.289-1.275c-1.316,0.262-1.849,1.641-1.244,2.863c0.608,1.232,1.717,1.871,2.57,1.559
				C216.355,345.457,219.147,345.309,221.863,346.096z"/>
			<path fill="#232323" d="M220.364,351.725c0.855,0.533,1.922,0.67,2.45,0.141c0.528-0.525,0.283-1.773-0.681-2.621
				c-2.61-2.301-5.938-3.76-9.531-4.078c-1.337-0.111-2.232,1.066-1.991,2.41c0.247,1.348,1.132,2.271,2.042,2.207
				C215.251,349.584,217.972,350.221,220.364,351.725z"/>
			<path fill="#232323" d="M216.217,355.99c0.515,0.861,1.405,1.473,2.116,1.24c0.709-0.23,1.058-1.449,0.586-2.645
				c-1.272-3.24-3.576-6.053-6.629-7.967c-1.139-0.713-2.471-0.072-2.865,1.236c-0.401,1.311-0.034,2.537,0.81,2.893
				C212.64,351.758,214.771,353.561,216.217,355.99z"/>
		</g>
	</g>
</g>
<path fill="#444444" d="M147.64,271.312c1.668-15.607,8.146-34.654,20.476-41.533c5.286-2.947,11.439-5.08,19.918-6.512
	c2.014,0.332,3.889,0.707,5.662,1.123c0.307,0.072,0.604,0.148,0.906,0.223c0.525,0.129,1.045,0.262,1.551,0.4
	c0.32,0.088,0.639,0.176,0.952,0.266c0.509,0.146,1.007,0.299,1.499,0.455c0.256,0.082,0.519,0.16,0.771,0.244
	c0.707,0.234,1.396,0.477,2.067,0.729c0.198,0.074,0.386,0.152,0.58,0.229c0.505,0.197,1.004,0.396,1.49,0.604
	c0.228,0.098,0.452,0.197,0.677,0.297c0.463,0.205,0.92,0.418,1.369,0.635c0.191,0.092,0.385,0.182,0.573,0.277
	c0.625,0.311,1.24,0.627,1.841,0.959c13.229,7.316,19.803,28.6,20.925,44.705c0.099,2.34,0.145,4.586,0.14,6.697
	c-0.01,5.447-0.343,9.973-0.992,12.709c-0.029,0.127-0.086,0.25-0.123,0.375c-3.29,14.98-19.836,26.396-39.789,26.432
	c-22.341,0.043-40.48-14.195-40.512-31.801c0-0.162,0.011-0.322,0.015-0.484C147.286,283.797,147.274,277.803,147.64,271.312z"/>
<path fill="#FFFFFF" d="M158.22,227.643c5.108-5.834,11.744-8.705,24.82-9.277c0.205-0.01,0.418-0.016,0.627-0.023
	c0.658-0.025,1.326-0.047,2.018-0.061c0.686-0.014,1.382-0.023,2.099-0.027c0.084,0,0.157-0.004,0.242-0.004h0.017
	c0.024,0,0.049,0,0.076,0c0.014,0,0.026,0,0.042,0h0.012c0.048,0,0.093,0.002,0.141,0.002c0.757,0,1.493,0.008,2.214,0.021
	c0.823,0.012,1.615,0.035,2.393,0.064c0.074,0.004,0.152,0.006,0.229,0.008c13.088,0.523,19.736,3.369,24.865,9.186
	c6.784,7.695,10.244,29.73,10.96,46.879c-1.123-16.105-7.698-37.389-20.925-44.705c-5.295-2.928-11.456-5.039-19.939-6.438
	c-8.478,1.432-14.627,3.564-19.915,6.512c-13.2,7.363-19.695,28.674-20.757,44.779C148.086,257.408,151.466,235.361,158.22,227.643z
	"/>
<path fill="#232323" d="M214.646,234.438c-1.987-2.938-5.745-4.109-9.001-1.994c-3.244,2.098-4.333,7.836-1.588,11.957
	c7.795,11.719,20.232,18.279,34.309,18.088c4.947-0.062,9.073-4.203,8.969-8.059c-0.096-3.887-3.185-6.324-6.732-6.307
	C229.958,248.266,220.546,243.307,214.646,234.438z"/>
<path fill="#232323" d="M242.298,248.822c-1.165-0.225-2.398,0.078-2.752,0.887c-0.356,0.805,0.439,2.068,1.862,2.596
	c3.848,1.426,8.135,1.611,12.218,0.43c1.521-0.439,2.006-2.117,1.166-3.494c-0.841-1.379-2.207-2.021-3.185-1.561
	C248.835,249.004,245.572,249.463,242.298,248.822z"/>
<path fill="#232323" d="M243.775,251.443c-1.108-0.426-2.376-0.344-2.866,0.389c-0.492,0.73,0.069,2.113,1.375,2.883
	c3.537,2.082,7.723,3.021,11.951,2.58c1.574-0.166,2.348-1.732,1.764-3.234c-0.584-1.508-1.817-2.381-2.859-2.098
	C250.177,252.777,246.885,252.652,243.775,251.443z"/>
<path fill="#232323" d="M243.237,255.473c-1.108-0.428-2.375-0.346-2.866,0.389c-0.493,0.729,0.068,2.113,1.374,2.881
	c3.537,2.084,7.723,3.021,11.951,2.58c1.575-0.164,2.348-1.73,1.764-3.234c-0.584-1.506-1.816-2.379-2.858-2.098
	C249.639,256.805,246.347,256.682,243.237,255.473z"/>
<path fill="#232323" d="M162.906,233.936c2.252-2.74,6.102-3.557,9.149-1.146c3.033,2.391,3.584,8.205,0.465,12.053
	c-8.853,10.939-21.848,16.312-35.845,14.811c-4.921-0.523-8.642-5.029-8.179-8.857c0.458-3.861,3.761-6,7.291-5.652
	C146.375,246.275,156.207,242.215,162.906,233.936z"/>
<path fill="#232323" d="M124.027,254.188c-1.011-0.174-2.067,0.107-2.363,0.811c-0.291,0.693,0.415,1.777,1.646,2.199
	c3.338,1.172,7.029,1.268,10.532,0.186c1.304-0.406,1.695-1.855,0.951-3.027c-0.749-1.18-1.936-1.707-2.766-1.295
	C129.659,254.242,126.855,254.689,124.027,254.188z"/>
<path fill="#232323" d="M124.93,248.338c-0.92-0.447-2.011-0.473-2.486,0.123c-0.479,0.59-0.098,1.818,0.967,2.574
	c2.882,2.049,6.408,3.162,10.068,3.096c1.364-0.027,2.144-1.314,1.752-2.646c-0.391-1.336-1.385-2.176-2.298-2.012
	C130.327,249.953,127.51,249.604,124.93,248.338z"/>
<path fill="#232323" d="M245.279,242.549c-0.087-1.189,0.458-2.371,1.47-2.625c1-0.248,2.387,0.701,2.785,2.178
	c1.113,3.998,0.691,8.27-1.324,12.176c-0.756,1.453-2.812,1.723-4.319,0.715c-1.513-1.012-2.062-2.447-1.369-3.354
	C244.506,249.053,245.544,245.875,245.279,242.549z"/>
<path fill="#FFFFFF" d="M188.272,166.726c7.221-0.014,15.645-2.861,20.418-4.079c5.594-1.425,8.25-1.472,12.379-1.479
	c12.493-0.023,16.344,6.521,17.398,9.192c-8.242-25.309-34.312-28.814-49.713-28.787l-1.27,0.003
	c-15.399,0.028-41.457,3.629-49.607,28.971c1.043-2.676,4.873-9.234,17.366-9.26c4.125-0.008,6.784,0.03,12.383,1.436
	c4.781,1.2,13.212,4.018,20.435,4.004H188.272z"/>
<path fill="#444444" d="M137.922,170.569l-0.044-0.021c1.044-2.675,4.873-9.234,17.367-9.26c4.125-0.008,6.786,0.03,12.383,1.436
	c4.781,1.2,13.212,4.018,20.437,4.004h0.207c7.221-0.014,15.645-2.861,20.418-4.079c5.594-1.425,8.25-1.472,12.379-1.479
	c12.493-0.024,16.344,6.521,17.398,9.191l-0.043,0.022c2.646,2.527,4.416,9.18,4.197,16.955c-0.275,9.857-3.635,17.767-7.5,17.66
	c-0.074-0.002-0.144-0.025-0.217-0.033c-8.951,18.09-33.566,26.516-46.486,26.541c-12.918,0.021-37.744-8.312-46.828-26.373
	c-0.083,0.01-0.159,0.037-0.242,0.039c-3.861,0.117-7.252-7.777-7.562-17.634C133.542,179.763,135.283,173.108,137.922,170.569z"/>
<path fill="#7F7F7F" d="M188.318,218.447c6.528-0.012,20.381-6.086,20.354-19.367c-0.024-13.279-15.316-14.306-20.464-14.296
	c-5.148,0.009-20.454,1.092-20.429,14.371C167.805,212.438,181.786,218.461,188.318,218.447z"/>
<path fill="#232323" d="M187.901,188.27c-2.836,0.006-7.025,2.975-7.516,6.43c-0.485,3.457,7.722,3.318,7.722,3.318h0.235
	c0,0,8.206,0.107,7.707-3.348c-0.5-3.453-4.7-6.406-7.541-6.4H187.901z"/>
<g>
	<circle fill="#232323" cx="209.128" cy="178.164" r="2.508"/>
	<path fill="#232323" d="M164.742,178.245c0.002,1.389,1.125,2.506,2.513,2.505c1.382-0.002,2.503-1.127,2.503-2.513
		c-0.003-1.387-1.127-2.508-2.512-2.505C165.857,175.735,164.737,176.86,164.742,178.245z"/>
</g>
<path fill="#232323" d="M143.25,176.2c-3.184,0.124-5.758,6.131-6.73,14.611c-0.114-1.064-0.195-2.174-0.225-3.322
	c-0.208-7.749,1.672-14.107,4.189-14.206c1.074-0.041,2.085,1.065,2.916,2.936C143.353,176.218,143.299,176.199,143.25,176.2z"/>
<path fill="#232323" d="M233.118,176.035c3.182,0.113,5.781,6.11,6.785,14.587c0.11-1.065,0.186-2.177,0.211-3.325
	c0.178-7.748-1.725-14.103-4.242-14.189c-1.07-0.036-2.082,1.074-2.904,2.946C233.019,176.054,233.066,176.035,233.118,176.035z"/>
<path fill="none" stroke="#7F7F7F" stroke-width="1.9744" stroke-linecap="round" stroke-miterlimit="10" d="M213.903,170.757
	c-0.648-0.602-1.404-1.063-2.219-1.37c-0.814-0.307-1.686-0.458-2.568-0.435c-0.883,0.021-1.775,0.218-2.633,0.604
	s-1.593,0.931-2.191,1.581"/>
<path fill="none" stroke="#7F7F7F" stroke-width="1.9744" stroke-linecap="round" stroke-miterlimit="10" d="M171.923,170.757
	c-0.65-0.602-1.406-1.063-2.218-1.37c-0.815-0.307-1.688-0.458-2.57-0.435c-0.881,0.021-1.775,0.218-2.632,0.604
	c-0.854,0.388-1.591,0.931-2.191,1.581"/>
<path fill="none" stroke="#232323" stroke-width="1.7887" stroke-linecap="round" stroke-miterlimit="10" d="M178.185,205.111
	c0.546,1.301,1.344,2.475,2.324,3.461c0.98,0.988,2.156,1.783,3.455,2.338c1.297,0.553,2.729,0.859,4.23,0.861
	c1.502,0.004,2.932-0.297,4.236-0.848c1.304-0.549,2.475-1.34,3.46-2.322c0.986-0.982,1.786-2.154,2.339-3.455"/>
<path fill="#FFFFFF" d="M86.502,201.852l27.482-5.16c1.643-0.309,3.135,0.004,4.496,0.934c1.361,0.938,2.194,2.215,2.501,3.852
	l9.585,51.049c0.307,1.637-0.006,3.135-0.935,4.494c-0.931,1.361-2.208,2.193-3.849,2.502l-27.482,5.162
	c-1.642,0.307-3.141-0.004-4.496-0.936c-1.366-0.93-2.2-2.213-2.508-3.848l-9.585-51.051c-0.308-1.637,0.006-3.129,0.94-4.496
	C83.577,202.994,84.86,202.16,86.502,201.852z"/>
<path fill="#232323" d="M95.076,247.502c0.077,0.414,0.282,0.734,0.616,0.967c0.345,0.232,0.718,0.307,1.126,0.23l24.543-4.607
	c0.41-0.078,0.728-0.283,0.964-0.625c0.229-0.338,0.31-0.709,0.231-1.125l-7.19-38.287c-0.076-0.41-0.288-0.727-0.622-0.961
	c-0.346-0.232-0.718-0.312-1.127-0.234l-24.543,4.607c-0.409,0.078-0.726,0.287-0.964,0.629c-0.227,0.34-0.301,0.709-0.225,1.119
	L95.076,247.502z"/>
<path fill="#D0DAE3" d="M111.302,258.176c1.064-0.199,1.907-0.758,2.545-1.682c0.625-0.922,0.851-1.92,0.651-2.984
	c-0.199-1.059-0.77-1.906-1.688-2.539c-0.929-0.631-1.919-0.85-2.983-0.65c-1.063,0.201-1.907,0.766-2.544,1.689
	c-0.625,0.922-0.843,1.918-0.646,2.977c0.201,1.062,0.765,1.914,1.682,2.545C109.247,258.162,110.238,258.375,111.302,258.176z"/>
<g>
	<g>
		<path fill="#EA651B" d="M99.211,232.799c0.73,0.701,1.582,1.301,2.542,1.762c4.88,2.348,10.741,0.295,13.088-4.586
			c1.252-2.604,1.252-5.486,0.238-7.965c-0.032,1.637-0.407,3.291-1.162,4.861C111.259,232.398,104.848,234.902,99.211,232.799z"/>
		<path fill="#FF7E1C" d="M97.168,221.473c-1.885,3.92-0.932,8.469,2.043,11.326c5.635,2.104,12.047-0.4,14.707-5.928
			c0.755-1.57,1.13-3.225,1.162-4.861c-0.886-2.168-2.547-4.027-4.824-5.123C105.375,214.539,99.517,216.594,97.168,221.473z"/>
	</g>
	<g>
		<g>
			<g>
				<path fill="#FFFFFF" d="M108.975,225.457c0.252,0.246,0.386,0.609,0.402,1.094c0.007,0.584-0.18,1.033-0.56,1.348
					c-0.333,0.262-0.855,0.461-1.568,0.594l0.139,1.109l-0.799,0.1l-0.137-1.094l-0.619,0.078l0.137,1.094l-0.801,0.102l-0.14-1.109
					l-1.582,0.199l0.043-0.969l0.164-0.02c0.263-0.021,0.43-0.049,0.503-0.08c0.104-0.047,0.159-0.137,0.165-0.27l-0.445-3.541
					c-0.055-0.17-0.16-0.268-0.318-0.293c-0.102-0.02-0.31-0.004-0.624,0.047l-0.131,0.016l-0.106-0.848l0.492-0.045
					c0.576-0.072,0.939-0.123,1.091-0.154l-0.163-1.289l0.8-0.1l0.161,1.271l0.617-0.094l-0.157-1.256l0.799-0.102l0.162,1.289
					c0.562-0.016,1.001,0.051,1.317,0.199c0.387,0.174,0.624,0.475,0.711,0.906c0.145,0.623-0.021,1.096-0.501,1.422l0,0
					C108.443,225.098,108.759,225.23,108.975,225.457L108.975,225.457z M105.41,225.191l0.131-0.016
					c0.458-0.047,0.809-0.117,1.051-0.215c0.421-0.164,0.609-0.426,0.565-0.785c-0.045-0.357-0.288-0.572-0.728-0.637
					c-0.248-0.037-0.604-0.018-1.07,0.051c-0.075,0.021-0.124,0.031-0.145,0.035L105.41,225.191z M105.875,227.703
					c0.556-0.059,0.97-0.139,1.245-0.24c0.495-0.193,0.718-0.486,0.669-0.879s-0.333-0.621-0.849-0.689
					c-0.282-0.043-0.698-0.016-1.25,0.074l-0.18,0.023l0.216,1.729L105.875,227.703z"/>
			</g>
		</g>
	</g>
</g>
<path fill="#232323" d="M125.451,245.291c-1.004-0.168-1.911-0.787-1.952-1.543c-0.045-0.756,0.976-1.535,2.283-1.533
	c3.541,0.008,7.053,1.145,9.995,3.33c1.094,0.811,0.979,2.309-0.111,3.168c-1.093,0.863-2.391,0.967-3.037,0.303
	C130.783,247.113,128.288,245.762,125.451,245.291z"/>
<line fill="none" stroke="#FFFFFF" stroke-width="2" stroke-linecap="round" stroke-miterlimit="10" stroke-dasharray="4,7" x1="98" y1="193.357" x2="77.333" y2="91.2"/>
<path fill="#EA651B" d="M60.522,83.608c1.152,1.105,2.495,2.051,4.011,2.781c7.7,3.704,16.946,0.465,20.651-7.236
	c1.976-4.108,1.975-8.655,0.375-12.567c-0.051,2.581-0.643,5.191-1.834,7.668C79.53,82.975,69.415,86.926,60.522,83.608z"/>
<path fill="#FF7E1C" d="M57.299,65.739c-2.975,6.184-1.471,13.362,3.223,17.869c8.892,3.318,19.008-0.633,23.203-9.353
	c1.192-2.478,1.783-5.088,1.834-7.668c-1.398-3.421-4.019-6.355-7.611-8.083C70.248,54.799,61.004,58.039,57.299,65.739z"/>
<path fill="#EA651B" d="M125.735,128.941c1.153,1.106,2.496,2.051,4.011,2.781c7.7,3.703,16.946,0.465,20.651-7.236
	c1.976-4.107,1.975-8.655,0.375-12.566c-0.051,2.58-0.643,5.19-1.834,7.668C144.743,128.309,134.628,132.259,125.735,128.941z"/>
<path fill="#FF7E1C" d="M122.513,111.072c-2.975,6.183-1.471,13.362,3.223,17.869c8.892,3.318,19.008-0.632,23.203-9.353
	c1.191-2.478,1.783-5.088,1.834-7.668c-1.397-3.42-4.019-6.355-7.611-8.083C135.461,100.133,126.217,103.373,122.513,111.072z"/>
<path fill="#EA651B" d="M157.616,43.608c1.152,1.105,2.496,2.051,4.011,2.781c7.7,3.704,16.946,0.465,20.65-7.236
	c1.976-4.108,1.975-8.655,0.375-12.567c-0.051,2.581-0.643,5.191-1.834,7.668C176.624,42.975,166.508,46.926,157.616,43.608z"/>
<path fill="#FF7E1C" d="M154.393,25.739c-2.975,6.184-1.471,13.362,3.223,17.869c8.891,3.318,19.008-0.633,23.203-9.353
	c1.191-2.478,1.783-5.088,1.834-7.669c-1.397-3.42-4.019-6.354-7.611-8.083C167.341,14.799,158.097,18.039,154.393,25.739z"/>
<path fill="#EA651B" d="M199.495,108.941c1.153,1.106,2.496,2.051,4.012,2.781c7.7,3.703,16.946,0.465,20.65-7.236
	c1.976-4.107,1.975-8.655,0.375-12.566c-0.051,2.58-0.643,5.19-1.834,7.668C218.503,108.309,208.388,112.259,199.495,108.941z"/>
<path fill="#FF7E1C" d="M196.272,91.072c-2.975,6.183-1.471,13.362,3.223,17.869c8.892,3.318,19.008-0.632,23.203-9.352
	c1.191-2.479,1.783-5.088,1.834-7.669c-1.397-3.42-4.019-6.354-7.611-8.083C209.221,80.133,199.977,83.373,196.272,91.072z"/>
<path fill="#EA651B" d="M293.372,142.608c1.152,1.105,2.496,2.051,4.012,2.78c7.699,3.704,16.946,0.466,20.65-7.235
	c1.976-4.108,1.975-8.655,0.375-12.567c-0.051,2.581-0.643,5.19-1.834,7.668C312.38,141.975,302.265,145.926,293.372,142.608z"/>
<path fill="#FF7E1C" d="M290.149,124.239c-2.975,6.184-1.471,13.362,3.223,17.869c8.892,3.318,19.008-0.633,23.203-9.353
	c1.191-2.479,1.783-5.088,1.834-7.669c-1.397-3.421-4.019-6.354-7.611-8.083C303.098,113.299,293.854,116.539,290.149,124.239z"/>
<path fill="#EA651B" d="M249.376,68.274c1.152,1.106,2.495,2.051,4.011,2.781c7.7,3.704,16.946,0.465,20.65-7.236
	c1.976-4.108,1.975-8.655,0.375-12.567c-0.051,2.581-0.643,5.191-1.834,7.668C268.384,67.642,258.268,71.592,249.376,68.274z"/>
<path fill="#FF7E1C" d="M246.152,50.406c-2.975,6.183-1.471,13.362,3.224,17.869c8.891,3.318,19.008-0.632,23.202-9.352
	c1.191-2.479,1.783-5.088,1.834-7.669c-1.397-3.421-4.019-6.355-7.611-8.083C259.101,39.466,249.856,42.706,246.152,50.406z"/>
<line fill="none" stroke="#FFFFFF" stroke-width="2" stroke-linecap="round" stroke-miterlimit="10" stroke-dasharray="4,7" x1="91.667" y1="63.866" x2="149" y2="37.533"/>
<line fill="none" stroke="#FFFFFF" stroke-width="2" stroke-linecap="round" stroke-miterlimit="10" stroke-dasharray="4,7" x1="157.333" y1="112.533" x2="190" y2="102.533"/>
<line fill="none" stroke="#FFFFFF" stroke-width="2" stroke-linecap="round" stroke-miterlimit="10" stroke-dasharray="4,7" x1="158.2" y1="49.833" x2="143.167" y2="98.2"/>
<line fill="none" stroke="#FFFFFF" stroke-width="2" stroke-linecap="round" stroke-miterlimit="10" stroke-dasharray="4,7" x1="83.065" y1="86.147" x2="120.648" y2="107.064"/>
<line fill="none" stroke="#FFFFFF" stroke-width="2" stroke-linecap="round" stroke-miterlimit="10" stroke-dasharray="4,7" x1="178.667" y1="48.533" x2="199.666" y2="82.2"/>
<line fill="none" stroke="#FFFFFF" stroke-width="2" stroke-linecap="round" stroke-miterlimit="10" stroke-dasharray="4,7" x1="229.737" y1="102.358" x2="288.333" y2="123.533"/>
<line fill="none" stroke="#FFFFFF" stroke-width="2" stroke-linecap="round" stroke-miterlimit="10" stroke-dasharray="4,7" x1="272.898" y1="70.814" x2="299.148" y2="115.064"/>
<line fill="none" stroke="#FFFFFF" stroke-width="2" stroke-linecap="round" stroke-miterlimit="10" stroke-dasharray="4,7" x1="189.999" y1="37.033" x2="240.833" y2="51.033"/>
<line fill="none" stroke="#FFFFFF" stroke-width="2" stroke-linecap="round" stroke-miterlimit="10" stroke-dasharray="4,7" x1="246" y1="69.533" x2="225.616" y2="86.75"/>
</svg>
