<?xml version="1.0" encoding="utf-8"?>
<!-- Generator: Adobe Illustrator 16.0.4, SVG Export Plug-In . SVG Version: 6.00 Build 0)  -->
<!DOCTYPE svg PUBLIC "-//W3C//DTD SVG 1.1//EN" "http://www.w3.org/Graphics/SVG/1.1/DTD/svg11.dtd">
<svg version="1.1" id="Layer_1" xmlns="http://www.w3.org/2000/svg" xmlns:xlink="http://www.w3.org/1999/xlink" x="0px" y="0px"
	 width="300px" height="225px" viewBox="37.5 75 300 225" enable-background="new 37.5 75 300 225" xml:space="preserve">
<g>
	<g>
		<path fill="#232323" d="M186.842,258.624c-0.134,1.061-3.581,30.981-8.669,35.187c-5.089,4.2-7.767,2.795-8.805,1.681
			c-1.088-1.164-2.459-3.261,0.073-5.63c2.036-1.909,3.456-10.339,1.395-23.489L186.842,258.624z"/>
		<g>
			<path fill="#232323" d="M165.768,292.239c-0.637,0.184-1.342,0.076-1.583-0.354c-0.238-0.431,0.141-1.178,0.907-1.542
				c2.078-0.994,4.459-1.317,6.8-0.869c0.87,0.17,1.225,1.081,0.83,1.891c-0.4,0.815-1.13,1.241-1.695,1.037
				C169.408,291.803,167.562,291.713,165.768,292.239z"/>
			<path fill="#232323" d="M166.773,295.959c-0.563,0.354-1.27,0.447-1.619,0.097c-0.351-0.345-0.19-1.171,0.444-1.732
				c1.719-1.53,3.917-2.502,6.292-2.721c0.883-0.075,1.479,0.699,1.319,1.588c-0.155,0.894-0.739,1.505-1.342,1.464
				C170.148,294.529,168.352,294.955,166.773,295.959z"/>
			<path fill="#232323" d="M169.526,298.77c-0.339,0.57-0.924,0.975-1.395,0.824c-0.469-0.151-0.703-0.954-0.395-1.748
				c0.834-2.145,2.35-4.009,4.365-5.283c0.75-0.477,1.632-0.055,1.896,0.811c0.268,0.867,0.028,1.679-0.527,1.915
				C171.881,295.961,170.476,297.158,169.526,298.77z"/>
		</g>
	</g>
	<g>
		<path fill="#232323" d="M189.958,258.346c0.135,1.058,3.695,30.968,8.798,35.151c5.105,4.183,7.778,2.769,8.812,1.65
			c1.08-1.169,2.447-3.27-0.095-5.631c-2.044-1.9-3.494-10.326-1.482-23.483L189.958,258.346z"/>
		<g>
			<path fill="#232323" d="M210.275,292.23c0.64,0.18,1.344,0.069,1.58-0.361c0.237-0.432-0.144-1.178-0.912-1.539
				c-2.08-0.988-4.464-1.302-6.803-0.844c-0.87,0.175-1.223,1.086-0.823,1.893c0.402,0.815,1.136,1.237,1.699,1.032
				C206.634,291.809,208.479,291.71,210.275,292.23z"/>
			<path fill="#232323" d="M209.284,295.952c0.565,0.353,1.271,0.443,1.621,0.095c0.348-0.349,0.188-1.173-0.452-1.733
				c-1.724-1.522-3.926-2.487-6.301-2.696c-0.883-0.072-1.476,0.704-1.315,1.594c0.162,0.891,0.748,1.502,1.35,1.459
				C205.904,294.536,207.703,294.958,209.284,295.952z"/>
			<path fill="#232323" d="M206.543,298.772c0.341,0.569,0.929,0.974,1.398,0.819c0.469-0.151,0.7-0.958,0.388-1.749
				c-0.841-2.142-2.364-4.002-4.383-5.268c-0.754-0.473-1.634-0.048-1.894,0.816c-0.266,0.867-0.023,1.678,0.535,1.913
				C204.178,295.974,205.587,297.166,206.543,298.772z"/>
		</g>
	</g>
</g>
<path fill="#444444" d="M161.203,242.786c1.103-10.318,5.386-22.911,13.538-27.46c3.495-1.948,7.562-3.358,13.168-4.305
	c1.331,0.219,2.571,0.467,3.743,0.742c0.203,0.047,0.399,0.097,0.6,0.146c0.346,0.086,0.69,0.174,1.025,0.266
	c0.211,0.058,0.423,0.116,0.63,0.176c0.336,0.096,0.665,0.197,0.99,0.301c0.17,0.054,0.344,0.105,0.51,0.161
	c0.467,0.153,0.922,0.315,1.365,0.482c0.132,0.048,0.257,0.1,0.383,0.15c0.335,0.13,0.665,0.263,0.986,0.399
	c0.15,0.065,0.299,0.131,0.447,0.196c0.307,0.136,0.608,0.277,0.906,0.421c0.125,0.061,0.254,0.121,0.378,0.182
	c0.413,0.207,0.82,0.415,1.218,0.635c8.747,4.837,13.093,18.91,13.834,29.557c0.066,1.548,0.097,3.032,0.094,4.428
	c-0.007,3.602-0.229,6.594-0.656,8.403c-0.019,0.084-0.057,0.165-0.081,0.247c-2.175,9.904-13.115,17.452-26.307,17.477
	c-14.771,0.028-26.764-9.385-26.785-21.025c0-0.107,0.007-0.213,0.01-0.32C160.969,251.041,160.96,247.077,161.203,242.786z"/>
<path fill="#FFFFFF" d="M168.198,213.914c3.377-3.857,7.764-5.756,16.41-6.133c0.136-0.008,0.277-0.012,0.415-0.016
	c0.435-0.016,0.877-0.031,1.334-0.04c0.454-0.01,0.914-0.015,1.388-0.019c0.056,0,0.104-0.002,0.16-0.002h0.012
	c0.015,0,0.032,0,0.05,0c0.009,0,0.017,0,0.028,0h0.007c0.031,0,0.062,0.001,0.094,0.001c0.499,0,0.987,0.005,1.463,0.015
	c0.545,0.009,1.068,0.022,1.584,0.041c0.048,0.004,0.1,0.005,0.15,0.007c8.654,0.346,13.049,2.227,16.439,6.073
	c4.485,5.087,6.773,19.656,7.246,30.994c-0.742-10.646-5.089-24.72-13.835-29.557c-3.5-1.937-7.573-3.332-13.182-4.257
	c-5.606,0.948-9.67,2.357-13.167,4.306c-8.728,4.868-13.021,18.959-13.724,29.605C161.497,233.594,163.732,219.017,168.198,213.914z
	"/>
<path fill="#232323" d="M205.504,218.406c-1.313-1.942-3.799-2.715-5.951-1.318c-2.146,1.389-2.864,5.181-1.05,7.905
	c5.154,7.75,13.376,12.086,22.685,11.96c3.271-0.041,5.998-2.778,5.93-5.329c-0.063-2.569-2.105-4.181-4.451-4.169
	C215.628,227.549,209.405,224.271,205.504,218.406z"/>
<path fill="#232323" d="M223.786,227.917c-0.77-0.148-1.585,0.052-1.819,0.586c-0.235,0.532,0.29,1.368,1.231,1.716
	c2.544,0.943,5.379,1.065,8.078,0.284c1.005-0.288,1.326-1.398,0.771-2.309c-0.557-0.913-1.46-1.337-2.106-1.033
	C228.109,228.037,225.951,228.341,223.786,227.917z"/>
<path fill="#232323" d="M224.764,229.65c-0.732-0.282-1.571-0.228-1.896,0.257c-0.325,0.482,0.047,1.396,0.909,1.906
	c2.338,1.376,5.106,1.997,7.901,1.705c1.04-0.109,1.553-1.146,1.166-2.138c-0.386-0.998-1.201-1.575-1.89-1.388
	C228.996,230.531,226.819,230.449,224.764,229.65z"/>
<path fill="#232323" d="M224.407,232.313c-0.732-0.282-1.57-0.229-1.895,0.258c-0.326,0.481,0.045,1.396,0.909,1.905
	c2.338,1.379,5.105,1.998,7.9,1.706c1.042-0.108,1.553-1.145,1.167-2.139c-0.387-0.995-1.2-1.572-1.891-1.387
	C228.64,233.195,226.464,233.113,224.407,232.313z"/>
<path fill="#232323" d="M171.296,218.074c1.489-1.812,4.034-2.351,6.049-0.757c2.005,1.581,2.37,5.424,0.308,7.968
	c-5.854,7.233-14.445,10.785-23.7,9.794c-3.253-0.346-5.713-3.325-5.408-5.855c0.303-2.553,2.487-3.967,4.821-3.737
	C160.366,226.233,166.867,223.549,171.296,218.074z"/>
<path fill="#232323" d="M145.59,231.465c-0.668-0.115-1.367,0.07-1.562,0.536c-0.192,0.458,0.274,1.175,1.088,1.455
	c2.207,0.774,4.647,0.837,6.963,0.122c0.862-0.267,1.121-1.226,0.629-2.001c-0.495-0.781-1.28-1.128-1.829-0.855
	C149.314,231.5,147.46,231.796,145.59,231.465z"/>
<path fill="#232323" d="M146.188,227.597c-0.608-0.296-1.33-0.312-1.644,0.081c-0.316,0.391-0.064,1.202,0.64,1.702
	c1.906,1.355,4.236,2.091,6.657,2.047c0.902-0.018,1.417-0.869,1.158-1.75c-0.258-0.883-0.916-1.438-1.519-1.33
	C149.756,228.665,147.893,228.434,146.188,227.597z"/>
<path fill="#232323" d="M225.758,223.77c-0.058-0.786,0.302-1.567,0.972-1.735c0.661-0.164,1.579,0.463,1.841,1.439
	c0.736,2.644,0.457,5.469-0.875,8.05c-0.5,0.961-1.859,1.141-2.855,0.474c-1-0.67-1.363-1.617-0.905-2.217
	C225.246,228.069,225.933,225.969,225.758,223.77z"/>
<path fill="#FFFFFF" d="M188.066,173.638c4.774-0.01,10.345-1.892,13.499-2.697c3.7-0.942,5.455-0.973,8.185-0.978
	c8.261-0.015,10.807,4.312,11.503,6.077c-5.448-16.733-22.686-19.051-32.868-19.033l-0.84,0.002
	c-10.181,0.019-27.41,2.4-32.798,19.155c0.69-1.769,3.222-6.105,11.482-6.123c2.728-0.005,4.485,0.02,8.188,0.95
	c3.161,0.793,8.735,2.656,13.511,2.647L188.066,173.638L188.066,173.638z"/>
<path fill="#444444" d="M154.777,176.179l-0.029-0.014c0.69-1.769,3.222-6.105,11.483-6.122c2.727-0.005,4.486,0.02,8.187,0.949
	c3.161,0.793,8.735,2.657,13.512,2.647h0.137c4.775-0.009,10.345-1.892,13.499-2.697c3.7-0.942,5.455-0.974,8.185-0.979
	c8.261-0.016,10.808,4.312,11.504,6.077l-0.028,0.015c1.75,1.671,2.919,6.069,2.774,11.21c-0.182,6.517-2.402,11.748-4.959,11.676
	c-0.049-0.002-0.095-0.017-0.143-0.022c-5.918,11.961-22.193,17.531-30.735,17.548c-8.541,0.014-24.955-5.496-30.961-17.437
	c-0.055,0.007-0.105,0.024-0.16,0.025c-2.553,0.078-4.795-5.142-5-11.658C151.881,182.258,153.033,177.858,154.777,176.179z"/>
<path fill="#7F7F7F" d="M188.097,207.834c4.316-0.007,13.476-4.023,13.458-12.805c-0.016-8.779-10.127-9.458-13.53-9.452
	c-3.403,0.005-13.523,0.722-13.507,9.5C174.535,203.86,183.778,207.843,188.097,207.834z"/>
<path fill="#232323" d="M187.821,187.882c-1.875,0.003-4.645,1.967-4.97,4.251c-0.32,2.286,5.106,2.193,5.106,2.193h0.155
	c0,0,5.425,0.07,5.095-2.214c-0.33-2.283-3.106-4.235-4.985-4.231H187.821L187.821,187.882z"/>
<g>
	<circle fill="#232323" cx="201.856" cy="181.2" r="1.658"/>
	<path fill="#232323" d="M172.51,181.254c0.001,0.918,0.744,1.657,1.661,1.656c0.914-0.001,1.655-0.745,1.655-1.662
		c-0.002-0.917-0.745-1.658-1.661-1.656C173.247,179.595,172.506,180.338,172.51,181.254z"/>
</g>
<path fill="#232323" d="M158.3,179.902c-2.105,0.082-3.807,4.054-4.449,9.66c-0.076-0.703-0.129-1.438-0.149-2.195
	c-0.138-5.124,1.105-9.328,2.77-9.393c0.71-0.027,1.378,0.704,1.928,1.94C158.368,179.914,158.332,179.901,158.3,179.902z"/>
<path fill="#232323" d="M217.717,179.793c2.104,0.074,3.822,4.04,4.486,9.645c0.073-0.705,0.123-1.439,0.14-2.199
	c0.117-5.123-1.141-9.325-2.805-9.381c-0.707-0.024-1.376,0.71-1.92,1.948C217.652,179.806,217.683,179.793,217.717,179.793z"/>
<path fill="none" stroke="#7F7F7F" stroke-width="1.3054" stroke-linecap="round" stroke-miterlimit="10" d="M205.013,176.303
	c-0.429-0.398-0.928-0.703-1.468-0.905c-0.537-0.204-1.114-0.303-1.697-0.288c-0.584,0.014-1.173,0.144-1.741,0.399
	c-0.566,0.255-1.053,0.615-1.448,1.045"/>
<path fill="none" stroke="#7F7F7F" stroke-width="1.3054" stroke-linecap="round" stroke-miterlimit="10" d="M177.257,176.303
	c-0.43-0.398-0.93-0.703-1.466-0.905c-0.539-0.204-1.116-0.303-1.699-0.288c-0.583,0.014-1.173,0.144-1.74,0.399
	c-0.565,0.256-1.052,0.615-1.449,1.045"/>
<path fill="none" stroke="#232323" stroke-width="1.1826" stroke-linecap="round" stroke-miterlimit="10" d="M181.397,199.017
	c0.361,0.86,0.889,1.637,1.537,2.289s1.425,1.178,2.284,1.546c0.858,0.365,1.805,0.567,2.796,0.568
	c0.993,0.003,1.938-0.196,2.801-0.562c0.862-0.362,1.637-0.886,2.289-1.533c0.65-0.65,1.179-1.425,1.545-2.285"/>
<path fill="#FFFFFF" d="M120.78,196.861l18.17-3.411c1.086-0.204,2.073,0.002,2.973,0.618c0.9,0.62,1.451,1.465,1.653,2.548
	l6.337,33.752c0.203,1.082-0.003,2.072-0.618,2.972c-0.615,0.897-1.459,1.448-2.544,1.653l-18.17,3.412
	c-1.085,0.204-2.077-0.003-2.972-0.62c-0.903-0.614-1.455-1.462-1.659-2.543l-6.337-33.754c-0.203-1.083,0.004-2.068,0.622-2.972
	C118.847,197.617,119.695,197.065,120.78,196.861z"/>
<path fill="#232323" d="M126.449,227.044c0.051,0.273,0.187,0.485,0.407,0.64c0.228,0.153,0.475,0.202,0.745,0.152l16.227-3.047
	c0.271-0.052,0.481-0.188,0.638-0.413c0.151-0.224,0.205-0.469,0.152-0.743l-4.753-25.314c-0.051-0.271-0.19-0.48-0.411-0.635
	c-0.229-0.154-0.475-0.207-0.745-0.155l-16.227,3.046c-0.271,0.052-0.48,0.189-0.638,0.416c-0.15,0.225-0.199,0.469-0.148,0.74
	L126.449,227.044z"/>
<path fill="#D0DAE3" d="M137.177,234.102c0.704-0.132,1.261-0.501,1.683-1.112c0.413-0.609,0.563-1.27,0.431-1.974
	c-0.132-0.699-0.509-1.26-1.116-1.679c-0.614-0.416-1.269-0.562-1.972-0.429c-0.703,0.132-1.261,0.507-1.682,1.116
	c-0.413,0.609-0.558,1.269-0.427,1.968c0.132,0.702,0.505,1.266,1.112,1.684C135.819,234.093,136.474,234.232,137.177,234.102z"/>
<g>
	<g>
		<path fill="#EA651B" d="M129.183,217.323c0.483,0.463,1.046,0.86,1.681,1.164c3.226,1.554,7.102,0.195,8.653-3.032
			c0.828-1.721,0.828-3.627,0.158-5.266c-0.021,1.082-0.269,2.177-0.768,3.214C137.149,217.059,132.91,218.714,129.183,217.323z"/>
		<path fill="#FF7E1C" d="M127.832,209.835c-1.246,2.592-0.616,5.599,1.351,7.488c3.726,1.391,7.965-0.265,9.724-3.92
			c0.499-1.037,0.747-2.132,0.768-3.214c-0.586-1.433-1.684-2.663-3.189-3.387C133.259,205.251,129.385,206.608,127.832,209.835z"/>
	</g>
	<g>
		<g>
			<g>
				<path fill="#FFFFFF" d="M135.639,212.469c0.167,0.162,0.255,0.403,0.266,0.724c0.005,0.386-0.119,0.683-0.37,0.891
					c-0.22,0.175-0.565,0.305-1.037,0.395l0.092,0.731l-0.528,0.067l-0.091-0.725l-0.409,0.051l0.091,0.724l-0.53,0.068
					l-0.093-0.731l-1.046,0.131l0.029-0.642l0.108-0.015c0.174-0.013,0.284-0.032,0.333-0.052c0.068-0.031,0.105-0.091,0.109-0.179
					l-0.294-2.341c-0.037-0.112-0.106-0.177-0.21-0.194c-0.067-0.013-0.205-0.002-0.413,0.031l-0.086,0.01l-0.071-0.56l0.326-0.03
					c0.381-0.048,0.621-0.081,0.721-0.102l-0.108-0.853l0.529-0.065l0.106,0.841l0.407-0.062l-0.104-0.83l0.528-0.069l0.107,0.853
					c0.372-0.011,0.662,0.034,0.87,0.131c0.256,0.116,0.413,0.314,0.47,0.599c0.096,0.413-0.014,0.725-0.331,0.94l0,0
					C135.287,212.231,135.496,212.319,135.639,212.469L135.639,212.469z M133.282,212.293l0.086-0.011
					c0.303-0.032,0.535-0.077,0.695-0.143c0.279-0.108,0.403-0.281,0.374-0.52c-0.03-0.235-0.19-0.377-0.481-0.421
					c-0.165-0.024-0.399-0.013-0.708,0.033c-0.049,0.015-0.082,0.021-0.096,0.023L133.282,212.293z M133.589,213.954
					c0.368-0.039,0.642-0.092,0.823-0.159c0.328-0.128,0.475-0.322,0.442-0.581c-0.032-0.26-0.22-0.411-0.561-0.456
					c-0.187-0.028-0.462-0.011-0.827,0.05l-0.12,0.015l0.144,1.144L133.589,213.954z"/>
			</g>
		</g>
	</g>
</g>
<path fill="#232323" d="M146.532,225.583c-0.664-0.112-1.263-0.521-1.291-1.021c-0.03-0.5,0.646-1.016,1.51-1.014
	c2.341,0.005,4.663,0.756,6.608,2.201c0.724,0.536,0.647,1.526-0.073,2.095c-0.723,0.57-1.581,0.64-2.008,0.2
	C150.057,226.787,148.408,225.894,146.532,225.583z"/>
<line fill="none" stroke="#232323" stroke-width="1.3223" stroke-linecap="round" stroke-miterlimit="10" stroke-dasharray="2.6446,4.6281" x1="128.382" y1="191.246" x2="114.718" y2="123.703"/>
<path fill="#EA651B" d="M103.603,118.684c0.762,0.73,1.65,1.356,2.652,1.839c5.091,2.449,11.204,0.307,13.654-4.784
	c1.306-2.716,1.306-5.722,0.248-8.309c-0.034,1.707-0.425,3.432-1.212,5.07C116.17,118.265,109.483,120.877,103.603,118.684z"/>
<path fill="#FF7E1C" d="M101.473,106.87c-1.967,4.088-0.973,8.834,2.13,11.814c5.879,2.194,12.567-0.418,15.341-6.184
	c0.788-1.639,1.179-3.364,1.212-5.07c-0.924-2.262-2.657-4.202-5.032-5.344C110.034,99.636,103.922,101.778,101.473,106.87z"/>
<path fill="#EA651B" d="M146.72,148.656c0.763,0.731,1.65,1.356,2.652,1.839c5.091,2.448,11.204,0.308,13.653-4.784
	c1.307-2.715,1.306-5.722,0.249-8.308c-0.034,1.706-0.426,3.431-1.213,5.07C159.287,148.238,152.6,150.85,146.72,148.656z"/>
<path fill="#FF7E1C" d="M144.59,136.842c-1.967,4.088-0.973,8.834,2.13,11.814c5.879,2.194,12.567-0.417,15.341-6.184
	c0.787-1.639,1.179-3.364,1.212-5.07c-0.923-2.261-2.657-4.202-5.032-5.344C153.15,129.609,147.038,131.751,144.59,136.842z"/>
<path fill="#EA651B" d="M167.798,92.237c0.762,0.73,1.65,1.356,2.652,1.839c5.091,2.449,11.204,0.307,13.652-4.785
	c1.307-2.716,1.306-5.722,0.249-8.309c-0.034,1.707-0.425,3.432-1.213,5.069C180.366,91.819,173.677,94.431,167.798,92.237z"/>
<path fill="#FF7E1C" d="M165.667,80.423c-1.967,4.088-0.973,8.834,2.13,11.814c5.878,2.193,12.568-0.418,15.341-6.184
	c0.787-1.638,1.179-3.364,1.212-5.07c-0.923-2.261-2.657-4.201-5.032-5.344C174.228,73.189,168.116,75.332,165.667,80.423z"/>
<path fill="#EA651B" d="M195.486,135.433c0.763,0.731,1.65,1.356,2.653,1.839c5.091,2.448,11.204,0.308,13.653-4.784
	c1.306-2.715,1.305-5.722,0.248-8.308c-0.035,1.706-0.426,3.431-1.213,5.069C208.055,135.015,201.367,137.626,195.486,135.433z"/>
<path fill="#FF7E1C" d="M193.356,123.619c-1.968,4.087-0.974,8.833,2.13,11.813c5.879,2.194,12.568-0.417,15.342-6.183
	c0.787-1.639,1.178-3.364,1.213-5.07c-0.925-2.261-2.657-4.201-5.032-5.344C201.918,116.386,195.806,118.528,193.356,123.619z"/>
<path fill="#EA651B" d="M257.555,157.692c0.762,0.731,1.65,1.356,2.652,1.838c5.091,2.449,11.204,0.308,13.654-4.784
	c1.306-2.716,1.305-5.722,0.247-8.309c-0.033,1.706-0.426,3.431-1.213,5.07C270.122,157.274,263.435,159.886,257.555,157.692z"/>
<path fill="#FF7E1C" d="M255.424,145.547c-1.968,4.088-0.974,8.834,2.131,11.814c5.879,2.194,12.567-0.418,15.341-6.184
	c0.787-1.639,1.18-3.364,1.213-5.071c-0.924-2.261-2.658-4.201-5.032-5.344C263.985,138.314,257.873,140.456,255.424,145.547z"/>
<path fill="#EA651B" d="M228.467,108.545c0.761,0.731,1.649,1.356,2.651,1.839c5.091,2.449,11.204,0.307,13.653-4.784
	c1.307-2.716,1.306-5.722,0.247-8.309c-0.032,1.707-0.424,3.432-1.212,5.07C241.033,108.128,234.346,110.739,228.467,108.545z"/>
<path fill="#FF7E1C" d="M226.335,96.732c-1.968,4.088-0.973,8.834,2.132,11.814c5.879,2.194,12.566-0.417,15.34-6.183
	c0.788-1.639,1.18-3.364,1.212-5.07c-0.923-2.262-2.656-4.202-5.032-5.344C234.896,89.499,228.784,91.641,226.335,96.732z"/>
<line fill="none" stroke="#232323" stroke-width="1.3223" stroke-linecap="round" stroke-miterlimit="10" stroke-dasharray="2.6446,4.6281" x1="124.195" y1="105.631" x2="162.102" y2="88.221"/>
<line fill="none" stroke="#232323" stroke-width="1.3223" stroke-linecap="round" stroke-miterlimit="10" stroke-dasharray="2.6446,4.6281" x1="167.611" y1="137.808" x2="189.209" y2="131.196"/>
<line fill="none" stroke="#232323" stroke-width="1.3223" stroke-linecap="round" stroke-miterlimit="10" stroke-dasharray="2.6446,4.6281" x1="168.184" y1="96.353" x2="158.245" y2="128.332"/>
<line fill="none" stroke="#232323" stroke-width="1.3223" stroke-linecap="round" stroke-miterlimit="10" stroke-dasharray="2.6446,4.6281" x1="118.508" y1="120.362" x2="143.356" y2="134.192"/>
<line fill="none" stroke="#232323" stroke-width="1.3223" stroke-linecap="round" stroke-miterlimit="10" stroke-dasharray="2.6446,4.6281" x1="181.716" y1="95.494" x2="195.6" y2="117.753"/>
<line fill="none" stroke="#232323" stroke-width="1.3223" stroke-linecap="round" stroke-miterlimit="10" stroke-dasharray="2.6446,4.6281" x1="215.481" y1="131.081" x2="254.223" y2="145.081"/>
<line fill="none" stroke="#232323" stroke-width="1.3223" stroke-linecap="round" stroke-miterlimit="10" stroke-dasharray="2.6446,4.6281" x1="244.019" y1="110.225" x2="261.374" y2="139.481"/>
<line fill="none" stroke="#232323" stroke-width="1.3223" stroke-linecap="round" stroke-miterlimit="10" stroke-dasharray="2.6446,4.6281" x1="189.208" y1="87.89" x2="222.817" y2="97.146"/>
<line fill="none" stroke="#232323" stroke-width="1.3223" stroke-linecap="round" stroke-miterlimit="10" stroke-dasharray="2.6446,4.6281" x1="226.234" y1="109.378" x2="212.758" y2="120.761"/>
</svg>
