<?xml version="1.0" encoding="utf-8"?>
<!-- Generator: Adobe Illustrator 16.0.4, SVG Export Plug-In . SVG Version: 6.00 Build 0)  -->
<!DOCTYPE svg PUBLIC "-//W3C//DTD SVG 1.1//EN" "http://www.w3.org/Graphics/SVG/1.1/DTD/svg11.dtd">
<svg version="1.1" id="Layer_1" xmlns="http://www.w3.org/2000/svg" xmlns:xlink="http://www.w3.org/1999/xlink" x="0px" y="0px"
	 width="300px" height="225px" viewBox="37.5 75 300 225" enable-background="new 37.5 75 300 225" xml:space="preserve">
<g>
	<path fill="#FFFFFF" d="M187.045,95.122c-5.778-0.011-12.517-2.289-16.334-3.262c-4.476-1.141-6.601-1.178-9.903-1.184
		c-9.995-0.019-13.075,5.217-13.919,7.354c6.595-20.247,27.45-23.051,39.771-23.029l1.016,0.002
		c12.319,0.022,33.164,2.903,39.686,23.176c-0.835-2.141-3.898-7.387-13.894-7.407c-3.301-0.006-5.428,0.024-9.906,1.148
		c-3.824,0.96-10.57,3.214-16.349,3.203H187.045z"/>
	<path fill="#444444" d="M227.323,98.197l0.035-0.018c-0.835-2.14-3.898-7.387-13.893-7.407c-3.301-0.006-5.429,0.024-9.907,1.148
		c-3.824,0.96-10.569,3.215-16.349,3.203h-0.166c-5.777-0.011-12.517-2.288-16.334-3.263c-4.477-1.14-6.602-1.178-9.904-1.184
		c-9.995-0.019-13.075,5.217-13.919,7.353l0.034,0.018c-2.118,2.022-3.533,7.345-3.356,13.564c0.219,7.886,2.906,14.214,6,14.128
		c0.058-0.003,0.114-0.021,0.171-0.027c7.163,14.472,26.854,21.214,37.19,21.232c10.335,0.019,30.194-6.649,37.463-21.098
		c0.064,0.008,0.127,0.03,0.192,0.031c3.089,0.094,5.802-6.221,6.05-14.107C230.829,105.552,229.436,100.229,227.323,98.197z"/>
	<path fill="#7F7F7F" d="M187.007,136.5c-5.222-0.01-16.305-4.869-16.283-15.495c0.02-10.623,12.253-11.444,16.372-11.436
		c4.119,0.006,16.363,0.874,16.343,11.495C203.417,131.691,192.232,136.509,187.007,136.5z"/>
	<path fill="#232323" d="M187.34,112.356c2.271,0.005,5.621,2.38,6.014,5.146c0.388,2.764-6.177,2.654-6.177,2.654h-0.188
		c0,0-6.565,0.086-6.166-2.679c0.399-2.762,3.759-5.125,6.032-5.12H187.34z"/>
	<g>
		<circle fill="#232323" cx="170.359" cy="104.273" r="2.007"/>
		<path fill="#232323" d="M205.869,104.337c-0.003,1.11-0.901,2.004-2.012,2.003c-1.105-0.001-2.003-0.901-2.003-2.009
			c0.003-1.11,0.903-2.007,2.011-2.005C204.977,102.33,205.873,103.229,205.869,104.337z"/>
	</g>
	<path fill="#232323" d="M223.062,102.701c2.548,0.099,4.606,4.904,5.384,11.688c0.091-0.852,0.155-1.739,0.18-2.657
		c0.166-6.199-1.338-11.286-3.351-11.365c-0.858-0.033-1.669,0.852-2.333,2.349C222.981,102.716,223.021,102.701,223.062,102.701z"
		/>
	<path fill="#232323" d="M151.168,102.568c-2.547,0.091-4.626,4.889-5.429,11.67c-0.088-0.853-0.149-1.741-0.169-2.66
		c-0.142-6.198,1.379-11.282,3.395-11.351c0.855-0.029,1.666,0.858,2.324,2.356C151.247,102.584,151.209,102.568,151.168,102.568z"
		/>
	<path fill="none" stroke="#7F7F7F" stroke-width="1.5795" stroke-linecap="round" stroke-miterlimit="10" d="M166.539,98.347
		c0.52-0.482,1.124-0.85,1.775-1.096s1.35-0.366,2.054-0.348c0.707,0.017,1.421,0.175,2.105,0.483
		c0.686,0.311,1.275,0.745,1.753,1.265"/>
	<path fill="none" stroke="#7F7F7F" stroke-width="1.5795" stroke-linecap="round" stroke-miterlimit="10" d="M200.123,98.347
		c0.52-0.482,1.124-0.85,1.774-1.096c0.651-0.247,1.351-0.366,2.056-0.348c0.705,0.017,1.42,0.175,2.105,0.483
		c0.684,0.311,1.273,0.745,1.752,1.265"/>
</g>
<rect x="37.5" y="115.999" fill="#84CD29" width="300" height="184"/>
<g>
	<g>
		<g>
			<path fill="#84CD29" d="M183.602,115.999l-42.733,0.045c-1.309,0.002-2.372,1.065-2.37,2.373l0.025,23.702
				c0,1.308,1.066,2.369,2.377,2.367l42.731-0.045c1.312-0.002,2.372-1.064,2.371-2.373l-0.024-23.702
				C185.976,117.059,184.912,115.998,183.602,115.999z"/>
		</g>
		<path fill="#FFFFFF" d="M142.083,140.93l-0.004-4.74c2.622-0.003,4.75,2.116,4.751,4.735L142.083,140.93z"/>
		<path fill="#FFFFFF" d="M142.066,124.339l-0.005-4.741l4.747-0.005C146.812,122.212,144.688,124.335,142.066,124.339z"/>
		<path fill="#FFFFFF" d="M182.441,140.887l-4.749,0.006c-0.003-2.618,2.12-4.743,4.744-4.746L182.441,140.887z"/>
		<path fill="#FFFFFF" d="M182.424,124.296c-2.625,0.003-4.752-2.117-4.755-4.736l4.75-0.004L182.424,124.296z"/>
		<path fill="#FFFFFF" d="M162.257,138.538c-9.302,0.01-16.848-3.697-16.852-8.277c-0.004-4.582,7.533-8.304,16.835-8.314
			c9.305-0.01,16.852,3.696,16.856,8.278C179.103,134.808,171.561,138.529,162.257,138.538z"/>
	</g>
	
		<rect x="145.236" y="125.03" transform="matrix(-1 0.0011 -0.0011 -1 324.466 260.5415)" fill="none" width="33.849" height="10.663"/>
	
		<text transform="matrix(1.0016 -0.0011 0.0011 1 158.8691 134.3247)" fill="#84CD29" font-family="'DMSans-Bold'" font-size="12.1847">$</text>
</g>
<g>
	<g>
		<g>
			<path fill="#84CD29" d="M234.1,115.999l-42.731,0.045c-1.31,0.002-2.372,1.065-2.371,2.373l0.026,23.702
				c0,1.308,1.065,2.369,2.376,2.367l42.73-0.045c1.312-0.002,2.372-1.064,2.372-2.373l-0.025-23.702
				C236.475,117.059,235.411,115.998,234.1,115.999z"/>
		</g>
		<path fill="#FFFFFF" d="M192.583,140.93l-0.005-4.74c2.622-0.003,4.75,2.116,4.752,4.735L192.583,140.93z"/>
		<path fill="#FFFFFF" d="M192.565,124.339l-0.005-4.741l4.746-0.005C197.311,122.212,195.188,124.335,192.565,124.339z"/>
		<path fill="#FFFFFF" d="M232.94,140.887l-4.75,0.006c-0.001-2.618,2.12-4.743,4.745-4.746L232.94,140.887z"/>
		<path fill="#FFFFFF" d="M232.924,124.296c-2.625,0.003-4.753-2.117-4.756-4.736l4.751-0.004L232.924,124.296z"/>
		<path fill="#FFFFFF" d="M212.756,138.538c-9.301,0.01-16.847-3.697-16.852-8.277c-0.004-4.582,7.533-8.304,16.835-8.314
			c9.306-0.01,16.852,3.696,16.856,8.278C229.602,134.808,222.06,138.529,212.756,138.538z"/>
	</g>
	
		<rect x="195.737" y="125.028" transform="matrix(-1 0.0011 -0.0011 -1 425.4659 260.4815)" fill="none" width="33.848" height="10.663"/>
	
		<text transform="matrix(1.0016 -0.0011 0.0011 1 209.3682 134.3247)" fill="#84CD29" font-family="'DMSans-Bold'" font-size="12.1847">$</text>
</g>
<g>
	<g>
		<g>
			<path fill="#84CD29" d="M284.6,115.999l-42.732,0.045c-1.31,0.002-2.372,1.065-2.371,2.373l0.025,23.702
				c0.002,1.308,1.066,2.369,2.377,2.367l42.73-0.045c1.312-0.002,2.373-1.064,2.372-2.373l-0.025-23.702
				C286.974,117.059,285.909,115.998,284.6,115.999z"/>
		</g>
		<path fill="#FFFFFF" d="M243.083,140.93l-0.007-4.74c2.623-0.003,4.751,2.116,4.753,4.735L243.083,140.93z"/>
		<path fill="#FFFFFF" d="M243.064,124.339l-0.005-4.741l4.747-0.005C247.81,122.212,245.686,124.335,243.064,124.339z"/>
		<path fill="#FFFFFF" d="M283.439,140.887l-4.75,0.006c-0.002-2.618,2.12-4.743,4.746-4.746L283.439,140.887z"/>
		<path fill="#FFFFFF" d="M283.422,124.296c-2.624,0.003-4.752-2.117-4.755-4.736l4.751-0.004L283.422,124.296z"/>
		<path fill="#FFFFFF" d="M263.256,138.538c-9.303,0.01-16.848-3.697-16.852-8.277c-0.005-4.582,7.531-8.304,16.834-8.314
			c9.306-0.01,16.851,3.696,16.856,8.278C280.1,134.808,272.559,138.529,263.256,138.538z"/>
	</g>
	
		<rect x="246.235" y="125.026" transform="matrix(-1 0.0011 -0.0011 -1 526.462 260.4215)" fill="none" width="33.848" height="10.663"/>
	
		<text transform="matrix(1.0016 -0.0011 0.0011 1 259.8672 134.3242)" fill="#84CD29" font-family="'DMSans-Bold'" font-size="12.1847">$</text>
</g>
<g>
	<g>
		<path fill="#84CD29" d="M335.099,115.999l-42.732,0.045c-1.31,0.002-2.372,1.065-2.371,2.373l0.026,23.702
			c0,1.308,1.066,2.369,2.376,2.367l42.73-0.045c1.312-0.002,2.373-1.064,2.372-2.373l-0.025-23.702
			C337.473,117.059,336.408,115.998,335.099,115.999z"/>
	</g>
	<path fill="#FFFFFF" d="M293.581,140.93l-0.005-4.74c2.622-0.003,4.75,2.116,4.752,4.735L293.581,140.93z"/>
	<path fill="#FFFFFF" d="M293.563,124.339l-0.005-4.741l4.747-0.005C298.308,122.212,296.186,124.335,293.563,124.339z"/>
	<path fill="#FFFFFF" d="M333.939,140.887l-4.75,0.006c-0.003-2.618,2.119-4.743,4.745-4.746L333.939,140.887z"/>
	<path fill="#FFFFFF" d="M333.921,124.296c-2.624,0.003-4.752-2.117-4.755-4.736l4.751-0.004L333.921,124.296z"/>
	<path fill="#FFFFFF" d="M313.756,138.538c-9.303,0.01-16.849-3.697-16.853-8.277c-0.005-4.582,7.532-8.304,16.834-8.314
		c9.305-0.01,16.852,3.696,16.856,8.278C330.6,134.808,323.058,138.529,313.756,138.538z"/>
</g>
<rect x="296.734" y="125.024" transform="matrix(-1 0.0011 -0.0011 -1 627.4601 260.366)" fill="none" width="33.849" height="10.662"/>
<text transform="matrix(1.0016 -0.0011 0.0011 1 310.3662 134.3242)" fill="#84CD29" font-family="'DMSans-Bold'" font-size="12.1847">$</text>
<g>
	<g>
		<g>
			<path fill="#84CD29" d="M133.103,147.101l-42.733,0.046c-1.31,0.001-2.372,1.065-2.371,2.373l0.025,23.703
				c0.001,1.309,1.066,2.369,2.376,2.367l42.731-0.045c1.312-0.001,2.372-1.064,2.371-2.373l-0.025-23.702
				C135.477,148.162,134.413,147.101,133.103,147.101z"/>
		</g>
		<path fill="#FFFFFF" d="M91.584,172.032l-0.005-4.739c2.622-0.003,4.75,2.117,4.751,4.734L91.584,172.032z"/>
		<path fill="#FFFFFF" d="M91.567,155.441l-0.006-4.741l4.748-0.005C96.312,153.315,94.188,155.438,91.567,155.441z"/>
		<path fill="#FFFFFF" d="M131.942,171.99l-4.75,0.005c-0.002-2.618,2.12-4.743,4.745-4.745L131.942,171.99z"/>
		<path fill="#FFFFFF" d="M131.925,155.398c-2.625,0.003-4.752-2.117-4.755-4.735l4.75-0.005L131.925,155.398z"/>
		<path fill="#FFFFFF" d="M111.759,169.641c-9.303,0.01-16.848-3.696-16.852-8.278c-0.005-4.582,7.533-8.304,16.834-8.313
			c9.305-0.011,16.852,3.696,16.856,8.278C128.603,165.91,121.062,169.631,111.759,169.641z"/>
	</g>
	
		<rect x="94.738" y="156.134" transform="matrix(-1 0.0011 -0.0011 -1 223.5022 322.8082)" fill="none" width="33.849" height="10.663"/>
	
		<text transform="matrix(1.0016 -0.0011 0.0011 1 108.3701 165.4268)" fill="#84CD29" font-family="'DMSans-Bold'" font-size="12.1847">$</text>
</g>
<g>
	<g>
		<g>
			<path fill="#84CD29" d="M183.602,147.101l-42.733,0.046c-1.309,0.001-2.372,1.065-2.37,2.373l0.025,23.703
				c0,1.309,1.066,2.369,2.377,2.367l42.731-0.045c1.312-0.001,2.372-1.064,2.371-2.373l-0.024-23.702
				C185.976,148.162,184.912,147.101,183.602,147.101z"/>
		</g>
		<path fill="#FFFFFF" d="M142.083,172.032l-0.004-4.739c2.622-0.003,4.75,2.117,4.751,4.734L142.083,172.032z"/>
		<path fill="#FFFFFF" d="M142.066,155.441l-0.005-4.741l4.747-0.005C146.812,153.315,144.688,155.438,142.066,155.441z"/>
		<path fill="#FFFFFF" d="M182.441,171.99l-4.749,0.005c-0.003-2.618,2.12-4.743,4.744-4.745L182.441,171.99z"/>
		<path fill="#FFFFFF" d="M182.424,155.398c-2.625,0.003-4.752-2.117-4.755-4.735l4.75-0.005L182.424,155.398z"/>
		<path fill="#FFFFFF" d="M162.257,169.641c-9.302,0.01-16.848-3.696-16.852-8.278c-0.004-4.582,7.533-8.304,16.835-8.313
			c9.305-0.011,16.852,3.696,16.856,8.278C179.103,165.91,171.561,169.631,162.257,169.641z"/>
	</g>
	
		<rect x="145.237" y="156.132" transform="matrix(-1 0.0011 -0.0011 -1 324.5007 322.7489)" fill="none" width="33.849" height="10.663"/>
	
		<text transform="matrix(1.0016 -0.0011 0.0011 1 158.8691 165.4268)" fill="#84CD29" font-family="'DMSans-Bold'" font-size="12.1847">$</text>
</g>
<g>
	<g>
		<g>
			<path fill="#84CD29" d="M234.1,147.101l-42.731,0.046c-1.31,0.001-2.372,1.065-2.371,2.373l0.026,23.703
				c0,1.309,1.065,2.369,2.376,2.367l42.73-0.045c1.312-0.001,2.372-1.064,2.372-2.373l-0.025-23.702
				C236.475,148.162,235.411,147.101,234.1,147.101z"/>
		</g>
		<path fill="#FFFFFF" d="M192.583,172.032l-0.005-4.739c2.622-0.003,4.75,2.117,4.752,4.734L192.583,172.032z"/>
		<path fill="#FFFFFF" d="M192.565,155.441l-0.005-4.741l4.746-0.005C197.311,153.315,195.188,155.438,192.565,155.441z"/>
		<path fill="#FFFFFF" d="M232.94,171.99l-4.75,0.005c-0.001-2.618,2.12-4.743,4.745-4.745L232.94,171.99z"/>
		<path fill="#FFFFFF" d="M232.924,155.398c-2.625,0.003-4.753-2.117-4.756-4.735l4.751-0.005L232.924,155.398z"/>
		<path fill="#FFFFFF" d="M212.756,169.641c-9.301,0.01-16.847-3.696-16.852-8.278c-0.004-4.582,7.533-8.304,16.835-8.313
			c9.306-0.011,16.852,3.696,16.856,8.278C229.602,165.91,222.06,169.631,212.756,169.641z"/>
	</g>
	
		<rect x="195.737" y="156.13" transform="matrix(-1 0.0011 -0.0011 -1 425.5002 322.6896)" fill="none" width="33.849" height="10.663"/>
	
		<text transform="matrix(1.0016 -0.0011 0.0011 1 209.3682 165.4268)" fill="#84CD29" font-family="'DMSans-Bold'" font-size="12.1847">$</text>
</g>
<g>
	<g>
		<g>
			<path fill="#84CD29" d="M284.6,147.101l-42.732,0.046c-1.31,0.001-2.372,1.065-2.371,2.373l0.025,23.703
				c0.002,1.309,1.066,2.369,2.377,2.367l42.73-0.045c1.312-0.001,2.373-1.064,2.372-2.373l-0.025-23.702
				C286.974,148.162,285.909,147.101,284.6,147.101z"/>
		</g>
		<path fill="#FFFFFF" d="M243.083,172.032l-0.007-4.739c2.623-0.003,4.751,2.117,4.753,4.734L243.083,172.032z"/>
		<path fill="#FFFFFF" d="M243.064,155.441l-0.005-4.741l4.747-0.005C247.81,153.315,245.686,155.438,243.064,155.441z"/>
		<path fill="#FFFFFF" d="M283.439,171.99l-4.75,0.005c-0.002-2.618,2.12-4.743,4.746-4.745L283.439,171.99z"/>
		<path fill="#FFFFFF" d="M283.422,155.398c-2.624,0.003-4.752-2.117-4.755-4.735l4.751-0.005L283.422,155.398z"/>
		<path fill="#FFFFFF" d="M263.256,169.641c-9.303,0.01-16.848-3.696-16.852-8.278c-0.004-4.582,7.531-8.304,16.834-8.313
			c9.306-0.011,16.851,3.696,16.856,8.278C280.1,165.91,272.559,169.631,263.256,169.641z"/>
	</g>
	
		<rect x="246.235" y="156.128" transform="matrix(-1 0.0011 -0.0011 -1 526.4962 322.6308)" fill="none" width="33.849" height="10.664"/>
	
		<text transform="matrix(1.0016 -0.0011 0.0011 1 259.8672 165.4268)" fill="#84CD29" font-family="'DMSans-Bold'" font-size="12.1847">$</text>
</g>
<g>
	<g>
		<g>
			<path fill="#84CD29" d="M335.099,147.101l-42.732,0.046c-1.31,0.001-2.372,1.065-2.371,2.373l0.026,23.703
				c0,1.309,1.066,2.369,2.376,2.367l42.73-0.045c1.312-0.001,2.373-1.064,2.372-2.373l-0.025-23.702
				C337.473,148.162,336.408,147.101,335.099,147.101z"/>
		</g>
		<path fill="#FFFFFF" d="M293.581,172.032l-0.005-4.739c2.622-0.003,4.75,2.117,4.752,4.734L293.581,172.032z"/>
		<path fill="#FFFFFF" d="M293.563,155.441l-0.005-4.741l4.747-0.005C298.308,153.315,296.186,155.438,293.563,155.441z"/>
		<path fill="#FFFFFF" d="M333.939,171.99l-4.75,0.005c-0.003-2.618,2.119-4.743,4.745-4.745L333.939,171.99z"/>
		<path fill="#FFFFFF" d="M333.921,155.398c-2.624,0.003-4.752-2.117-4.755-4.735l4.751-0.005L333.921,155.398z"/>
		<path fill="#FFFFFF" d="M313.756,169.641c-9.303,0.01-16.849-3.696-16.853-8.278c-0.004-4.582,7.532-8.304,16.834-8.313
			c9.305-0.011,16.852,3.696,16.856,8.278C330.6,165.91,323.058,169.631,313.756,169.641z"/>
	</g>
	
		<rect x="296.735" y="156.126" transform="matrix(-1 0.0011 -0.0011 -1 627.4962 322.5715)" fill="none" width="33.849" height="10.664"/>
	
		<text transform="matrix(1.0016 -0.0011 0.0011 1 310.3662 165.4268)" fill="#84CD29" font-family="'DMSans-Bold'" font-size="12.1847">$</text>
</g>
<g>
	<g>
		<g>
			<path fill="#84CD29" d="M133.103,178.204L90.37,178.25c-1.31,0.001-2.372,1.064-2.371,2.374l0.025,23.701
				c0.001,1.309,1.066,2.368,2.376,2.367l42.731-0.047c1.312-0.001,2.372-1.063,2.371-2.371l-0.025-23.702
				C135.477,179.265,134.413,178.203,133.103,178.204z"/>
		</g>
		<path fill="#FFFFFF" d="M91.584,203.135l-0.005-4.74c2.622-0.003,4.75,2.117,4.751,4.734L91.584,203.135z"/>
		<path fill="#FFFFFF" d="M91.567,186.544l-0.006-4.74l4.748-0.005C96.312,184.417,94.188,186.542,91.567,186.544z"/>
		<path fill="#FFFFFF" d="M131.942,203.092l-4.75,0.006c-0.002-2.618,2.12-4.742,4.745-4.746L131.942,203.092z"/>
		<path fill="#FFFFFF" d="M131.925,186.5c-2.625,0.003-4.752-2.117-4.755-4.735l4.75-0.004L131.925,186.5z"/>
		<path fill="#FFFFFF" d="M111.759,200.743c-9.303,0.01-16.848-3.696-16.852-8.278c-0.005-4.581,7.533-8.302,16.834-8.312
			c9.305-0.01,16.852,3.695,16.856,8.277C128.603,197.012,121.062,200.733,111.759,200.743z"/>
	</g>
	
		<rect x="94.739" y="187.237" transform="matrix(-1 0.0011 -0.0011 -1 223.5387 385.0142)" fill="none" width="33.849" height="10.662"/>
	
		<text transform="matrix(1.0016 -0.0011 0.0011 1 108.3701 196.5293)" fill="#84CD29" font-family="'DMSans-Bold'" font-size="12.1847">$</text>
</g>
<g>
	<g>
		<g>
			<path fill="#84CD29" d="M183.602,178.204l-42.733,0.046c-1.309,0.001-2.372,1.064-2.37,2.374l0.025,23.701
				c0,1.309,1.066,2.368,2.377,2.367l42.731-0.047c1.312-0.001,2.372-1.063,2.371-2.371l-0.024-23.702
				C185.976,179.265,184.912,178.203,183.602,178.204z"/>
		</g>
		<path fill="#FFFFFF" d="M142.083,203.135l-0.004-4.74c2.622-0.003,4.75,2.117,4.751,4.734L142.083,203.135z"/>
		<path fill="#FFFFFF" d="M142.066,186.544l-0.005-4.74l4.747-0.005C146.812,184.417,144.688,186.542,142.066,186.544z"/>
		<path fill="#FFFFFF" d="M182.441,203.092l-4.749,0.006c-0.003-2.618,2.12-4.742,4.744-4.746L182.441,203.092z"/>
		<path fill="#FFFFFF" d="M182.424,186.5c-2.625,0.003-4.752-2.117-4.755-4.735l4.75-0.004L182.424,186.5z"/>
		<path fill="#FFFFFF" d="M162.257,200.743c-9.302,0.01-16.848-3.696-16.852-8.278c-0.004-4.581,7.533-8.302,16.835-8.312
			c9.305-0.01,16.852,3.695,16.856,8.277C179.103,197.012,171.561,200.733,162.257,200.743z"/>
	</g>
	
		<rect x="145.239" y="187.235" transform="matrix(-1 0.0011 -0.0011 -1 324.5372 384.9549)" fill="none" width="33.849" height="10.662"/>
	
		<text transform="matrix(1.0016 -0.0011 0.0011 1 158.8691 196.5283)" fill="#84CD29" font-family="'DMSans-Bold'" font-size="12.1847">$</text>
</g>
<g>
	<g>
		<g>
			<path fill="#84CD29" d="M234.1,178.204l-42.731,0.046c-1.31,0.001-2.372,1.064-2.371,2.374l0.026,23.701
				c0,1.309,1.065,2.368,2.376,2.367l42.73-0.047c1.312-0.001,2.372-1.063,2.372-2.371l-0.025-23.702
				C236.475,179.265,235.411,178.203,234.1,178.204z"/>
		</g>
		<path fill="#FFFFFF" d="M192.583,203.135l-0.005-4.74c2.622-0.003,4.75,2.117,4.752,4.734L192.583,203.135z"/>
		<path fill="#FFFFFF" d="M192.565,186.544l-0.005-4.74l4.746-0.005C197.311,184.417,195.188,186.542,192.565,186.544z"/>
		<path fill="#FFFFFF" d="M232.94,203.092l-4.75,0.006c-0.001-2.618,2.12-4.742,4.745-4.746L232.94,203.092z"/>
		<path fill="#FFFFFF" d="M232.924,186.5c-2.625,0.003-4.753-2.117-4.756-4.735l4.751-0.004L232.924,186.5z"/>
		<path fill="#FFFFFF" d="M212.756,200.743c-9.301,0.01-16.847-3.696-16.852-8.278c-0.004-4.581,7.533-8.302,16.835-8.312
			c9.306-0.01,16.852,3.695,16.856,8.277C229.602,197.012,222.06,200.733,212.756,200.743z"/>
	</g>
	
		<rect x="195.738" y="187.233" transform="matrix(-1 0.0011 -0.0011 -1 425.5297 384.9008)" fill="none" width="33.849" height="10.662"/>
	
		<text transform="matrix(1.0016 -0.0011 0.0011 1 209.3682 196.5283)" fill="#84CD29" font-family="'DMSans-Bold'" font-size="12.1847">$</text>
</g>
<g>
	<g>
		<g>
			<path fill="#84CD29" d="M284.6,178.204l-42.732,0.046c-1.31,0.001-2.372,1.064-2.371,2.374l0.025,23.701
				c0.002,1.309,1.066,2.368,2.377,2.367l42.73-0.047c1.312-0.001,2.373-1.063,2.372-2.371l-0.025-23.702
				C286.974,179.265,285.909,178.203,284.6,178.204z"/>
		</g>
		<path fill="#FFFFFF" d="M243.083,203.135l-0.007-4.74c2.623-0.003,4.751,2.117,4.753,4.734L243.083,203.135z"/>
		<path fill="#FFFFFF" d="M243.064,186.544l-0.005-4.74l4.747-0.005C247.81,184.417,245.686,186.542,243.064,186.544z"/>
		<path fill="#FFFFFF" d="M283.439,203.092l-4.75,0.006c-0.002-2.618,2.12-4.742,4.746-4.746L283.439,203.092z"/>
		<path fill="#FFFFFF" d="M283.422,186.5c-2.624,0.003-4.752-2.117-4.755-4.735l4.751-0.004L283.422,186.5z"/>
		<path fill="#FFFFFF" d="M263.256,200.743c-9.303,0.01-16.848-3.696-16.852-8.278c-0.004-4.581,7.531-8.302,16.834-8.312
			c9.306-0.01,16.851,3.695,16.856,8.277C280.1,197.012,272.559,200.733,263.256,200.743z"/>
	</g>
	
		<rect x="246.237" y="187.231" transform="matrix(-1 0.0011 -0.0011 -1 526.5388 384.8287)" fill="none" width="33.849" height="10.663"/>
	
		<text transform="matrix(1.0016 -0.0011 0.0011 1 259.8672 196.5293)" fill="#84CD29" font-family="'DMSans-Bold'" font-size="12.1847">$</text>
</g>
<g>
	<g>
		<g>
			<path fill="#84CD29" d="M335.099,178.204l-42.732,0.046c-1.31,0.001-2.372,1.064-2.371,2.374l0.026,23.701
				c0,1.309,1.066,2.368,2.376,2.367l42.73-0.047c1.312-0.001,2.373-1.063,2.372-2.371l-0.025-23.702
				C337.473,179.265,336.408,178.203,335.099,178.204z"/>
		</g>
		<path fill="#FFFFFF" d="M293.581,203.135l-0.005-4.74c2.622-0.003,4.75,2.117,4.752,4.734L293.581,203.135z"/>
		<path fill="#FFFFFF" d="M293.563,186.544l-0.005-4.74l4.747-0.005C298.308,184.417,296.186,186.542,293.563,186.544z"/>
		<path fill="#FFFFFF" d="M333.939,203.092l-4.75,0.006c-0.003-2.618,2.119-4.742,4.745-4.746L333.939,203.092z"/>
		<path fill="#FFFFFF" d="M333.921,186.5c-2.624,0.003-4.752-2.117-4.755-4.735l4.751-0.004L333.921,186.5z"/>
		<path fill="#FFFFFF" d="M313.756,200.743c-9.303,0.01-16.849-3.696-16.853-8.278c-0.004-4.581,7.532-8.302,16.834-8.312
			c9.305-0.01,16.852,3.695,16.856,8.277C330.6,197.012,323.058,200.733,313.756,200.743z"/>
	</g>
	
		<rect x="296.736" y="187.229" transform="matrix(-1 0.0011 -0.0011 -1 627.5332 384.7771)" fill="none" width="33.85" height="10.662"/>
	
		<text transform="matrix(1.0016 -0.0011 0.0011 1 310.3662 196.5303)" fill="#84CD29" font-family="'DMSans-Bold'" font-size="12.1847">$</text>
</g>
<g>
	<g>
		<g>
			<path fill="#84CD29" d="M133.103,209.308l-42.733,0.045c-1.31,0.002-2.372,1.064-2.371,2.373l0.025,23.702
				c0.001,1.308,1.066,2.368,2.376,2.367l42.731-0.045c1.312-0.002,2.372-1.064,2.371-2.374l-0.025-23.701
				C135.477,210.366,134.413,209.305,133.103,209.308z"/>
		</g>
		<path fill="#FFFFFF" d="M91.584,234.237l-0.005-4.74c2.622-0.003,4.75,2.116,4.751,4.734L91.584,234.237z"/>
		<path fill="#FFFFFF" d="M91.567,217.646l-0.006-4.74l4.748-0.006C96.312,215.519,94.188,217.644,91.567,217.646z"/>
		<path fill="#FFFFFF" d="M131.942,234.194l-4.75,0.005c-0.002-2.618,2.12-4.742,4.745-4.745L131.942,234.194z"/>
		<path fill="#FFFFFF" d="M131.925,217.604c-2.625,0.002-4.752-2.116-4.755-4.736l4.75-0.004L131.925,217.604z"/>
		<path fill="#FFFFFF" d="M111.759,231.847c-9.303,0.009-16.848-3.697-16.852-8.278c-0.005-4.583,7.533-8.304,16.834-8.314
			c9.305-0.011,16.852,3.697,16.856,8.278C128.603,228.113,121.062,231.836,111.759,231.847z"/>
	</g>
	
		<rect x="94.741" y="218.339" transform="matrix(-1 0.0011 -0.0011 -1 223.5752 447.2192)" fill="none" width="33.849" height="10.664"/>
	
		<text transform="matrix(1.0016 -0.0011 0.0011 1 108.3701 227.6318)" fill="#84CD29" font-family="'DMSans-Bold'" font-size="12.1847">$</text>
</g>
<g>
	<g>
		<g>
			<path fill="#84CD29" d="M183.602,209.308l-42.733,0.045c-1.309,0.002-2.372,1.064-2.37,2.373l0.025,23.702
				c0,1.308,1.066,2.368,2.377,2.367l42.731-0.045c1.312-0.002,2.372-1.064,2.371-2.374l-0.024-23.701
				C185.976,210.366,184.912,209.305,183.602,209.308z"/>
		</g>
		<path fill="#FFFFFF" d="M142.083,234.237l-0.004-4.74c2.622-0.003,4.75,2.116,4.751,4.734L142.083,234.237z"/>
		<path fill="#FFFFFF" d="M142.066,217.646l-0.005-4.74l4.747-0.006C146.812,215.519,144.688,217.644,142.066,217.646z"/>
		<path fill="#FFFFFF" d="M182.441,234.194l-4.749,0.005c-0.003-2.618,2.12-4.742,4.744-4.745L182.441,234.194z"/>
		<path fill="#FFFFFF" d="M182.424,217.604c-2.625,0.002-4.752-2.116-4.755-4.736l4.75-0.004L182.424,217.604z"/>
		<path fill="#FFFFFF" d="M162.257,231.847c-9.302,0.009-16.848-3.697-16.852-8.278c-0.004-4.583,7.533-8.304,16.835-8.314
			c9.305-0.011,16.852,3.697,16.856,8.278C179.103,228.113,171.561,231.836,162.257,231.847z"/>
	</g>
	
		<rect x="145.24" y="218.337" transform="matrix(-1 0.0011 -0.0011 -1 324.5737 447.16)" fill="none" width="33.849" height="10.664"/>
	
		<text transform="matrix(1.0016 -0.0011 0.0011 1 158.8682 227.6328)" fill="#84CD29" font-family="'DMSans-Bold'" font-size="12.1847">$</text>
</g>
<g>
	<g>
		<g>
			<path fill="#84CD29" d="M234.1,209.308l-42.731,0.045c-1.31,0.002-2.372,1.064-2.371,2.373l0.026,23.702
				c0,1.308,1.065,2.368,2.376,2.367l42.73-0.045c1.312-0.002,2.372-1.064,2.372-2.374l-0.025-23.701
				C236.475,210.366,235.411,209.305,234.1,209.308z"/>
		</g>
		<path fill="#FFFFFF" d="M192.583,234.237l-0.005-4.74c2.622-0.003,4.75,2.116,4.752,4.734L192.583,234.237z"/>
		<path fill="#FFFFFF" d="M192.565,217.646l-0.005-4.74l4.746-0.006C197.311,215.519,195.188,217.644,192.565,217.646z"/>
		<path fill="#FFFFFF" d="M232.94,234.194l-4.75,0.005c-0.001-2.618,2.12-4.742,4.745-4.745L232.94,234.194z"/>
		<path fill="#FFFFFF" d="M232.924,217.604c-2.625,0.002-4.753-2.116-4.756-4.736l4.751-0.004L232.924,217.604z"/>
		<path fill="#FFFFFF" d="M212.756,231.847c-9.301,0.009-16.847-3.697-16.852-8.278c-0.004-4.583,7.533-8.304,16.835-8.314
			c9.306-0.011,16.852,3.697,16.856,8.278C229.602,228.113,222.06,231.836,212.756,231.847z"/>
	</g>
	
		<rect x="195.74" y="218.334" transform="matrix(-1 0.0011 -0.0011 -1 425.5668 447.1058)" fill="none" width="33.848" height="10.664"/>
	
		<text transform="matrix(1.0016 -0.0011 0.0011 1 209.3682 227.6318)" fill="#84CD29" font-family="'DMSans-Bold'" font-size="12.1847">$</text>
</g>
<g>
	<g>
		<g>
			<path fill="#84CD29" d="M284.6,209.308l-42.732,0.045c-1.31,0.002-2.372,1.064-2.371,2.373l0.025,23.702
				c0.002,1.308,1.066,2.368,2.377,2.367l42.73-0.045c1.312-0.002,2.373-1.064,2.372-2.374l-0.025-23.701
				C286.974,210.366,285.909,209.305,284.6,209.308z"/>
		</g>
		<path fill="#FFFFFF" d="M243.083,234.237l-0.007-4.74c2.623-0.003,4.751,2.116,4.753,4.734L243.083,234.237z"/>
		<path fill="#FFFFFF" d="M243.064,217.646l-0.005-4.74l4.747-0.006C247.81,215.519,245.686,217.644,243.064,217.646z"/>
		<path fill="#FFFFFF" d="M283.439,234.194l-4.75,0.005c-0.002-2.618,2.12-4.742,4.746-4.745L283.439,234.194z"/>
		<path fill="#FFFFFF" d="M283.422,217.604c-2.624,0.002-4.752-2.116-4.755-4.736l4.751-0.004L283.422,217.604z"/>
		<path fill="#FFFFFF" d="M263.256,231.847c-9.303,0.009-16.848-3.697-16.852-8.278c-0.005-4.583,7.531-8.304,16.834-8.314
			c9.306-0.011,16.851,3.697,16.856,8.278C280.1,228.113,272.559,231.836,263.256,231.847z"/>
	</g>
	
		<rect x="246.238" y="218.333" transform="matrix(-1 0.0011 -0.0011 -1 526.5757 447.0328)" fill="none" width="33.848" height="10.664"/>
	
		<text transform="matrix(1.0016 -0.0011 0.0011 1 259.8672 227.6328)" fill="#84CD29" font-family="'DMSans-Bold'" font-size="12.1847">$</text>
</g>
<g>
	<g>
		<g>
			<path fill="#84CD29" d="M335.099,209.308l-42.732,0.045c-1.31,0.002-2.372,1.064-2.371,2.373l0.026,23.702
				c0,1.308,1.066,2.368,2.376,2.367l42.73-0.045c1.312-0.002,2.373-1.064,2.372-2.374l-0.025-23.701
				C337.473,210.366,336.408,209.305,335.099,209.308z"/>
		</g>
		<path fill="#FFFFFF" d="M293.581,234.237l-0.005-4.74c2.622-0.003,4.75,2.116,4.752,4.734L293.581,234.237z"/>
		<path fill="#FFFFFF" d="M293.563,217.646l-0.005-4.74l4.747-0.006C298.308,215.519,296.186,217.644,293.563,217.646z"/>
		<path fill="#FFFFFF" d="M333.939,234.194l-4.75,0.005c-0.003-2.618,2.119-4.742,4.745-4.745L333.939,234.194z"/>
		<path fill="#FFFFFF" d="M333.921,217.604c-2.624,0.002-4.752-2.116-4.755-4.736l4.751-0.004L333.921,217.604z"/>
		<path fill="#FFFFFF" d="M313.756,231.847c-9.303,0.009-16.849-3.697-16.853-8.278c-0.005-4.583,7.532-8.304,16.834-8.314
			c9.305-0.011,16.852,3.697,16.856,8.278C330.6,228.113,323.058,231.836,313.756,231.847z"/>
	</g>
	
		<rect x="296.738" y="218.331" transform="matrix(-1 0.0011 -0.0011 -1 627.5693 446.9821)" fill="none" width="33.848" height="10.664"/>
	
		<text transform="matrix(1.0016 -0.0011 0.0011 1 310.3662 227.6318)" fill="#84CD29" font-family="'DMSans-Bold'" font-size="12.1847">$</text>
</g>
<g>
	<g>
		<g>
			<path fill="#84CD29" d="M133.103,240.409l-42.733,0.046c-1.31,0.002-2.372,1.064-2.371,2.373l0.025,23.702
				c0.001,1.308,1.066,2.368,2.376,2.367l42.731-0.046c1.312-0.002,2.372-1.064,2.371-2.372l-0.025-23.702
				C135.477,241.469,134.413,240.407,133.103,240.409z"/>
		</g>
		<path fill="#FFFFFF" d="M91.584,265.34l-0.005-4.74c2.622-0.002,4.75,2.117,4.751,4.735L91.584,265.34z"/>
		<path fill="#FFFFFF" d="M91.567,248.748l-0.006-4.74l4.748-0.005C96.312,246.622,94.188,248.746,91.567,248.748z"/>
		<path fill="#FFFFFF" d="M131.942,265.297l-4.75,0.005c-0.002-2.618,2.12-4.742,4.745-4.745L131.942,265.297z"/>
		<path fill="#FFFFFF" d="M131.925,248.706c-2.625,0.003-4.752-2.116-4.755-4.735l4.75-0.006L131.925,248.706z"/>
		<path fill="#FFFFFF" d="M111.759,262.948c-9.303,0.01-16.848-3.697-16.852-8.278c-0.005-4.581,7.533-8.304,16.834-8.314
			c9.305-0.009,16.852,3.697,16.856,8.278C128.603,259.217,121.062,262.938,111.759,262.948z"/>
	</g>
	
		<rect x="94.732" y="249.444" transform="matrix(-1 0.0011 -0.0011 -1 223.5923 509.4302)" fill="none" width="33.849" height="10.664"/>
	
		<text transform="matrix(1.0016 -0.0011 0.0011 1 108.3691 258.7344)" fill="#84CD29" font-family="'DMSans-Bold'" font-size="12.1847">$</text>
</g>
<g>
	<g>
		<g>
			<path fill="#84CD29" d="M183.602,240.409l-42.733,0.046c-1.309,0.002-2.372,1.064-2.37,2.373l0.025,23.702
				c0,1.308,1.066,2.368,2.377,2.367l42.731-0.046c1.312-0.002,2.372-1.064,2.371-2.372l-0.024-23.702
				C185.976,241.469,184.912,240.407,183.602,240.409z"/>
		</g>
		<path fill="#FFFFFF" d="M142.083,265.34l-0.004-4.74c2.622-0.002,4.75,2.117,4.751,4.735L142.083,265.34z"/>
		<path fill="#FFFFFF" d="M142.066,248.748l-0.005-4.74l4.747-0.005C146.812,246.622,144.688,248.746,142.066,248.748z"/>
		<path fill="#FFFFFF" d="M182.441,265.297l-4.749,0.005c-0.003-2.618,2.12-4.742,4.744-4.745L182.441,265.297z"/>
		<path fill="#FFFFFF" d="M182.424,248.706c-2.625,0.003-4.752-2.116-4.755-4.735l4.75-0.006L182.424,248.706z"/>
		<path fill="#FFFFFF" d="M162.257,262.948c-9.302,0.01-16.848-3.697-16.852-8.278s7.533-8.304,16.835-8.314
			c9.305-0.009,16.852,3.697,16.856,8.278C179.103,259.217,171.561,262.938,162.257,262.948z"/>
	</g>
	
		<rect x="145.231" y="249.445" transform="matrix(-1 0.0011 -0.0011 -1 324.5981 509.3711)" fill="none" width="33.849" height="10.664"/>
	
		<text transform="matrix(1.0016 -0.0011 0.0011 1 158.8691 258.7344)" fill="#84CD29" font-family="'DMSans-Bold'" font-size="12.1847">$</text>
</g>
<g>
	<g>
		<g>
			<path fill="#84CD29" d="M234.1,240.409l-42.731,0.046c-1.31,0.002-2.372,1.064-2.371,2.373l0.026,23.702
				c0,1.308,1.065,2.368,2.376,2.367l42.73-0.046c1.312-0.002,2.372-1.064,2.372-2.372l-0.025-23.702
				C236.475,241.469,235.411,240.407,234.1,240.409z"/>
		</g>
		<path fill="#FFFFFF" d="M192.583,265.34l-0.005-4.74c2.622-0.002,4.75,2.117,4.752,4.735L192.583,265.34z"/>
		<path fill="#FFFFFF" d="M192.565,248.748l-0.005-4.74l4.746-0.005C197.311,246.622,195.188,248.746,192.565,248.748z"/>
		<path fill="#FFFFFF" d="M232.94,265.297l-4.75,0.005c-0.001-2.618,2.12-4.742,4.745-4.745L232.94,265.297z"/>
		<path fill="#FFFFFF" d="M232.924,248.706c-2.625,0.003-4.753-2.116-4.756-4.735l4.751-0.006L232.924,248.706z"/>
		<path fill="#FFFFFF" d="M212.756,262.948c-9.301,0.01-16.847-3.697-16.852-8.278c-0.004-4.581,7.533-8.304,16.835-8.314
			c9.306-0.009,16.852,3.697,16.856,8.278C229.602,259.217,222.06,262.938,212.756,262.948z"/>
	</g>
	
		<rect x="195.73" y="249.445" transform="matrix(-1 0.0011 -0.0011 -1 425.5961 509.3143)" fill="none" width="33.849" height="10.664"/>
	
		<text transform="matrix(1.0016 -0.0011 0.0011 1 209.3682 258.7344)" fill="#84CD29" font-family="'DMSans-Bold'" font-size="12.1847">$</text>
</g>
<g>
	<g>
		<g>
			<path fill="#84CD29" d="M284.6,240.409l-42.732,0.046c-1.31,0.002-2.372,1.064-2.371,2.373l0.025,23.702
				c0.002,1.308,1.066,2.368,2.377,2.367l42.73-0.046c1.312-0.002,2.373-1.064,2.372-2.372l-0.025-23.702
				C286.974,241.469,285.909,240.407,284.6,240.409z"/>
		</g>
		<path fill="#FFFFFF" d="M243.083,265.34l-0.007-4.74c2.623-0.002,4.751,2.117,4.753,4.735L243.083,265.34z"/>
		<path fill="#FFFFFF" d="M243.064,248.748l-0.005-4.74l4.747-0.005C247.81,246.622,245.686,248.746,243.064,248.748z"/>
		<path fill="#FFFFFF" d="M283.439,265.297l-4.75,0.005c-0.002-2.618,2.12-4.742,4.746-4.745L283.439,265.297z"/>
		<path fill="#FFFFFF" d="M283.422,248.706c-2.624,0.003-4.752-2.116-4.755-4.735l4.751-0.006L283.422,248.706z"/>
		<path fill="#FFFFFF" d="M263.256,262.948c-9.303,0.01-16.848-3.697-16.852-8.278c-0.005-4.581,7.531-8.304,16.834-8.314
			c9.306-0.009,16.851,3.697,16.856,8.278C280.1,259.217,272.559,262.938,263.256,262.948z"/>
	</g>
	
		<rect x="246.229" y="249.445" transform="matrix(-1 0.0011 -0.0011 -1 526.5868 509.266)" fill="none" width="33.849" height="10.664"/>
	
		<text transform="matrix(1.0016 -0.0011 0.0011 1 259.8672 258.7344)" fill="#84CD29" font-family="'DMSans-Bold'" font-size="12.1847">$</text>
</g>
<g>
	<g>
		<g>
			<path fill="#84CD29" d="M335.099,240.409l-42.732,0.046c-1.31,0.002-2.372,1.064-2.371,2.373l0.026,23.702
				c0,1.308,1.066,2.368,2.376,2.367l42.73-0.046c1.312-0.002,2.373-1.064,2.372-2.372l-0.025-23.702
				C337.473,241.469,336.408,240.407,335.099,240.409z"/>
		</g>
		<path fill="#FFFFFF" d="M293.581,265.34l-0.005-4.74c2.622-0.002,4.75,2.117,4.752,4.735L293.581,265.34z"/>
		<path fill="#FFFFFF" d="M293.563,248.748l-0.005-4.74l4.747-0.005C298.308,246.622,296.186,248.746,293.563,248.748z"/>
		<path fill="#FFFFFF" d="M333.939,265.297l-4.75,0.005c-0.003-2.618,2.119-4.742,4.745-4.745L333.939,265.297z"/>
		<path fill="#FFFFFF" d="M333.921,248.706c-2.624,0.003-4.752-2.116-4.755-4.735l4.751-0.006L333.921,248.706z"/>
		<path fill="#FFFFFF" d="M313.756,262.948c-9.303,0.01-16.849-3.697-16.853-8.278c-0.005-4.581,7.532-8.304,16.834-8.314
			c9.305-0.009,16.852,3.697,16.856,8.278C330.6,259.217,323.058,262.938,313.756,262.948z"/>
	</g>
	
		<rect x="296.729" y="249.446" transform="matrix(-1 0.0011 -0.0011 -1 627.5858 509.2126)" fill="none" width="33.85" height="10.664"/>
	
		<text transform="matrix(1.0016 -0.0011 0.0011 1 310.3652 258.7344)" fill="#84CD29" font-family="'DMSans-Bold'" font-size="12.1847">$</text>
</g>
<g>
	<g>
		<g>
			<g>
				<path fill="#84CD29" d="M133.103,115.999l-42.733,0.045c-1.31,0.002-2.372,1.065-2.371,2.373l0.025,23.702
					c0.001,1.308,1.066,2.369,2.376,2.367l42.731-0.045c1.312-0.002,2.372-1.064,2.371-2.373l-0.025-23.702
					C135.477,117.059,134.413,115.998,133.103,115.999z"/>
			</g>
			<path fill="#FFFFFF" d="M91.584,140.93l-0.005-4.74c2.622-0.003,4.75,2.116,4.751,4.735L91.584,140.93z"/>
			<path fill="#FFFFFF" d="M91.567,124.339l-0.006-4.741l4.748-0.005C96.312,122.212,94.188,124.335,91.567,124.339z"/>
			<path fill="#FFFFFF" d="M131.942,140.887l-4.75,0.006c-0.002-2.618,2.12-4.743,4.745-4.746L131.942,140.887z"/>
			<path fill="#FFFFFF" d="M131.925,124.296c-2.625,0.003-4.752-2.117-4.755-4.736l4.75-0.004L131.925,124.296z"/>
			<path fill="#FFFFFF" d="M111.759,138.538c-9.303,0.01-16.848-3.697-16.852-8.277c-0.005-4.582,7.533-8.304,16.834-8.314
				c9.305-0.01,16.852,3.696,16.856,8.278C128.603,134.808,121.062,138.529,111.759,138.538z"/>
		</g>
		
			<rect x="94.737" y="125.032" transform="matrix(-1 0.0011 -0.0011 -1 223.4661 260.6031)" fill="none" width="33.849" height="10.662"/>
		
			<text transform="matrix(1.0016 -0.0011 0.0011 1 108.3701 134.3247)" fill="#84CD29" font-family="'DMSans-Bold'" font-size="12.1847">$</text>
	</g>
	<g>
		<g>
			<g>
				<path fill="#84CD29" d="M82.603,115.999l-42.732,0.045c-1.31,0.002-2.372,1.065-2.371,2.373l0.026,23.702
					c0,1.308,1.066,2.369,2.376,2.367l42.73-0.045c1.312-0.002,2.373-1.064,2.371-2.373l-0.025-23.702
					C84.978,117.059,83.914,115.998,82.603,115.999z"/>
			</g>
			<path fill="#FFFFFF" d="M41.085,140.93l-0.005-4.74c2.622-0.003,4.75,2.116,4.751,4.735L41.085,140.93z"/>
			<path fill="#FFFFFF" d="M41.068,124.339l-0.004-4.741l4.747-0.005C45.813,122.212,43.69,124.335,41.068,124.339z"/>
			<path fill="#FFFFFF" d="M81.443,140.887l-4.75,0.006c-0.003-2.618,2.12-4.743,4.745-4.746L81.443,140.887z"/>
			<path fill="#FFFFFF" d="M81.426,124.296c-2.624,0.003-4.752-2.117-4.755-4.736l4.75-0.004L81.426,124.296z"/>
			<path fill="#FFFFFF" d="M61.26,138.538c-9.303,0.01-16.848-3.697-16.853-8.277c-0.004-4.582,7.533-8.304,16.835-8.314
				c9.305-0.01,16.851,3.696,16.856,8.278C78.104,134.808,70.562,138.529,61.26,138.538z"/>
		</g>
		
			<rect x="44.238" y="125.033" transform="matrix(-1 0.0011 -0.0011 -1 122.4695 260.6615)" fill="none" width="33.849" height="10.663"/>
		
			<text transform="matrix(1.0016 -0.0011 0.0011 1 57.8711 134.3247)" fill="#84CD29" font-family="'DMSans-Bold'" font-size="12.1847">$</text>
		<g>
			<g>
				<g>
					<path fill="#84CD29" d="M82.603,147.101l-42.732,0.046c-1.31,0.001-2.372,1.065-2.371,2.373l0.026,23.703
						c0,1.309,1.066,2.369,2.376,2.367l42.73-0.045c1.312-0.001,2.373-1.064,2.371-2.373l-0.025-23.702
						C84.978,148.162,83.914,147.101,82.603,147.101z"/>
				</g>
				<path fill="#FFFFFF" d="M41.085,172.032l-0.005-4.739c2.622-0.003,4.75,2.117,4.751,4.734L41.085,172.032z"/>
				<path fill="#FFFFFF" d="M41.068,155.441l-0.004-4.741l4.747-0.005C45.813,153.315,43.69,155.438,41.068,155.441z"/>
				<path fill="#FFFFFF" d="M81.443,171.99l-4.75,0.005c-0.003-2.618,2.12-4.743,4.745-4.745L81.443,171.99z"/>
				<path fill="#FFFFFF" d="M81.426,155.398c-2.624,0.003-4.752-2.117-4.755-4.735l4.75-0.005L81.426,155.398z"/>
				<path fill="#FFFFFF" d="M61.26,169.641c-9.303,0.01-16.848-3.696-16.853-8.278c-0.004-4.582,7.533-8.304,16.835-8.313
					c9.305-0.011,16.851,3.696,16.856,8.278C78.104,165.91,70.562,169.631,61.26,169.641z"/>
			</g>
			
				<rect x="44.239" y="156.136" transform="matrix(-1 0.0011 -0.0011 -1 122.5041 322.8674)" fill="none" width="33.849" height="10.663"/>
			
				<text transform="matrix(1.0016 -0.0011 0.0011 1 57.8711 165.4263)" fill="#84CD29" font-family="'DMSans-Bold'" font-size="12.1847">$</text>
		</g>
		<g>
			<g>
				<g>
					<path fill="#84CD29" d="M82.603,178.204l-42.732,0.046c-1.31,0.001-2.372,1.064-2.371,2.374l0.026,23.701
						c0,1.309,1.066,2.368,2.376,2.367l42.73-0.047c1.312-0.001,2.373-1.063,2.371-2.371l-0.025-23.702
						C84.978,179.265,83.914,178.203,82.603,178.204z"/>
				</g>
				<path fill="#FFFFFF" d="M41.085,203.135l-0.005-4.74c2.622-0.003,4.75,2.117,4.751,4.734L41.085,203.135z"/>
				<path fill="#FFFFFF" d="M41.068,186.544l-0.004-4.74l4.747-0.005C45.813,184.417,43.69,186.542,41.068,186.544z"/>
				<path fill="#FFFFFF" d="M81.443,203.092l-4.75,0.006c-0.003-2.618,2.12-4.742,4.745-4.746L81.443,203.092z"/>
				<path fill="#FFFFFF" d="M81.426,186.5c-2.624,0.003-4.752-2.117-4.755-4.735l4.75-0.004L81.426,186.5z"/>
				<path fill="#FFFFFF" d="M61.26,200.743c-9.303,0.01-16.848-3.696-16.853-8.278c-0.004-4.581,7.533-8.302,16.835-8.312
					c9.305-0.01,16.851,3.695,16.856,8.277C78.104,197.012,70.562,200.733,61.26,200.743z"/>
			</g>
			
				<rect x="44.24" y="187.239" transform="matrix(-1 0.0011 -0.0011 -1 122.5457 385.0717)" fill="none" width="33.849" height="10.663"/>
			
				<text transform="matrix(1.0016 -0.0011 0.0011 1 57.8711 196.5293)" fill="#84CD29" font-family="'DMSans-Bold'" font-size="12.1847">$</text>
		</g>
		<g>
			<g>
				<g>
					<path fill="#84CD29" d="M82.603,209.308l-42.732,0.045c-1.31,0.002-2.372,1.064-2.371,2.373l0.026,23.702
						c0,1.308,1.066,2.368,2.376,2.367l42.73-0.045c1.312-0.002,2.373-1.064,2.371-2.374l-0.025-23.701
						C84.978,210.366,83.914,209.305,82.603,209.308z"/>
				</g>
				<path fill="#FFFFFF" d="M41.085,234.237l-0.005-4.74c2.622-0.003,4.75,2.116,4.751,4.734L41.085,234.237z"/>
				<path fill="#FFFFFF" d="M41.068,217.646l-0.004-4.74l4.747-0.006C45.813,215.519,43.69,217.644,41.068,217.646z"/>
				<path fill="#FFFFFF" d="M81.443,234.194l-4.75,0.005c-0.003-2.618,2.12-4.742,4.745-4.745L81.443,234.194z"/>
				<path fill="#FFFFFF" d="M81.426,217.604c-2.624,0.002-4.752-2.116-4.755-4.736l4.75-0.004L81.426,217.604z"/>
				<path fill="#FFFFFF" d="M61.26,231.847c-9.303,0.009-16.848-3.697-16.853-8.278c-0.004-4.583,7.533-8.304,16.835-8.314
					c9.305-0.011,16.851,3.697,16.856,8.278C78.104,228.113,70.562,231.836,61.26,231.847z"/>
			</g>
			
				<rect x="44.241" y="218.34" transform="matrix(-1 0.0011 -0.0011 -1 122.5832 447.2758)" fill="none" width="33.849" height="10.664"/>
			
				<text transform="matrix(1.0016 -0.0011 0.0011 1 57.8701 227.6318)" fill="#84CD29" font-family="'DMSans-Bold'" font-size="12.1847">$</text>
		</g>
		<g>
			<g>
				<g>
					<path fill="#84CD29" d="M82.603,240.409l-42.732,0.046c-1.31,0.002-2.372,1.064-2.371,2.373l0.026,23.702
						c0,1.308,1.066,2.368,2.376,2.367l42.73-0.046c1.312-0.002,2.373-1.064,2.371-2.372l-0.025-23.702
						C84.978,241.469,83.914,240.407,82.603,240.409z"/>
				</g>
				<path fill="#FFFFFF" d="M41.085,265.34l-0.005-4.74c2.622-0.002,4.75,2.117,4.751,4.735L41.085,265.34z"/>
				<path fill="#FFFFFF" d="M41.068,248.748l-0.004-4.74l4.747-0.005C45.813,246.622,43.69,248.746,41.068,248.748z"/>
				<path fill="#FFFFFF" d="M81.443,265.297l-4.75,0.005c-0.003-2.618,2.12-4.742,4.745-4.745L81.443,265.297z"/>
				<path fill="#FFFFFF" d="M81.426,248.706c-2.624,0.003-4.752-2.116-4.755-4.735l4.75-0.006L81.426,248.706z"/>
				<path fill="#FFFFFF" d="M61.26,262.948c-9.303,0.01-16.848-3.697-16.853-8.278s7.533-8.304,16.835-8.314
					c9.305-0.009,16.851,3.697,16.856,8.278C78.104,259.217,70.562,262.938,61.26,262.948z"/>
			</g>
			
				<rect x="44.233" y="249.444" transform="matrix(-1 0.0011 -0.0011 -1 122.5864 509.4863)" fill="none" width="33.849" height="10.664"/>
			
				<text transform="matrix(1.0016 -0.0011 0.0011 1 57.8711 258.7344)" fill="#84CD29" font-family="'DMSans-Bold'" font-size="12.1847">$</text>
		</g>
		<g>
			<g>
				<g>
					<path fill="#84CD29" d="M82.603,271.512l-42.732,0.046c-1.31,0.001-2.372,1.064-2.371,2.373l0.026,23.702
						c0,1.308,1.066,2.368,2.376,2.367l42.73-0.046c1.312-0.001,2.373-1.063,2.371-2.373l-0.025-23.702
						C84.978,272.57,83.914,271.511,82.603,271.512z"/>
				</g>
				<path fill="#FFFFFF" d="M41.085,296.443l-0.005-4.74c2.622-0.004,4.75,2.117,4.751,4.734L41.085,296.443z"/>
				<path fill="#FFFFFF" d="M41.068,279.852l-0.004-4.741l4.747-0.005C45.813,277.725,43.69,279.848,41.068,279.852z"/>
				<path fill="#FFFFFF" d="M81.443,296.399l-4.75,0.006c-0.003-2.618,2.12-4.743,4.745-4.745L81.443,296.399z"/>
				<path fill="#FFFFFF" d="M81.426,279.809c-2.624,0.004-4.752-2.117-4.755-4.735l4.75-0.005L81.426,279.809z"/>
				<path fill="#FFFFFF" d="M61.26,294.05c-9.303,0.011-16.848-3.697-16.853-8.277c-0.004-4.581,7.533-8.304,16.835-8.313
					c9.305-0.011,16.851,3.695,16.856,8.277C78.104,290.32,70.562,294.042,61.26,294.05z"/>
			</g>
			
				<rect x="44.244" y="280.546" transform="matrix(-1 0.0011 -0.0011 -1 122.6581 571.6869)" fill="none" width="33.849" height="10.663"/>
			
				<text transform="matrix(1.0016 -0.0011 0.0011 1 57.8701 289.8369)" fill="#84CD29" font-family="'DMSans-Bold'" font-size="12.1847">$</text>
		</g>
	</g>
</g>
<g>
	<g>
		<g>
			<path fill="#84CD29" d="M133.103,271.512l-42.733,0.046c-1.31,0.001-2.372,1.064-2.371,2.373l0.025,23.702
				c0.001,1.308,1.066,2.368,2.376,2.367l42.731-0.046c1.312-0.001,2.372-1.063,2.371-2.373l-0.025-23.702
				C135.477,272.57,134.413,271.511,133.103,271.512z"/>
		</g>
		<path fill="#FFFFFF" d="M91.584,296.443l-0.004-4.74c2.622-0.004,4.75,2.117,4.751,4.734L91.584,296.443z"/>
		<path fill="#FFFFFF" d="M91.567,279.852l-0.006-4.741l4.748-0.005C96.312,277.725,94.188,279.848,91.567,279.852z"/>
		<path fill="#FFFFFF" d="M131.942,296.399l-4.75,0.006c-0.002-2.618,2.12-4.743,4.745-4.745L131.942,296.399z"/>
		<path fill="#FFFFFF" d="M131.925,279.809c-2.625,0.004-4.752-2.117-4.755-4.735l4.75-0.005L131.925,279.809z"/>
		<path fill="#FFFFFF" d="M111.759,294.05c-9.303,0.011-16.848-3.697-16.852-8.277c-0.005-4.581,7.533-8.304,16.834-8.313
			c9.305-0.011,16.852,3.695,16.856,8.277C128.603,290.32,121.062,294.042,111.759,294.05z"/>
	</g>
	
		<rect x="94.743" y="280.545" transform="matrix(-1 0.0011 -0.0011 -1 223.6488 571.6293)" fill="none" width="33.849" height="10.662"/>
	
		<text transform="matrix(1.0016 -0.0011 0.0011 1 108.3691 289.8369)" fill="#84CD29" font-family="'DMSans-Bold'" font-size="12.1847">$</text>
</g>
<g>
	<g>
		<g>
			<path fill="#84CD29" d="M183.602,271.512l-42.733,0.046c-1.309,0.001-2.372,1.064-2.37,2.373l0.025,23.702
				c0,1.308,1.066,2.368,2.377,2.367l42.731-0.046c1.312-0.001,2.372-1.063,2.371-2.373l-0.024-23.702
				C185.976,272.57,184.912,271.511,183.602,271.512z"/>
		</g>
		<path fill="#FFFFFF" d="M142.083,296.443l-0.004-4.74c2.622-0.004,4.75,2.117,4.751,4.734L142.083,296.443z"/>
		<path fill="#FFFFFF" d="M142.066,279.852l-0.005-4.741l4.747-0.005C146.812,277.725,144.688,279.848,142.066,279.852z"/>
		<path fill="#FFFFFF" d="M182.441,296.399l-4.749,0.006c-0.003-2.618,2.12-4.743,4.744-4.745L182.441,296.399z"/>
		<path fill="#FFFFFF" d="M182.424,279.809c-2.625,0.004-4.752-2.117-4.755-4.735l4.75-0.005L182.424,279.809z"/>
		<path fill="#FFFFFF" d="M162.257,294.05c-9.302,0.011-16.848-3.697-16.852-8.277c-0.004-4.581,7.533-8.304,16.835-8.313
			c9.305-0.011,16.852,3.695,16.856,8.277C179.103,290.32,171.561,294.042,162.257,294.05z"/>
	</g>
	
		<rect x="145.243" y="280.543" transform="matrix(-1 0.0011 -0.0011 -1 324.6556 571.5674)" fill="none" width="33.848" height="10.663"/>
	
		<text transform="matrix(1.0016 -0.0011 0.0011 1 158.8682 289.8369)" fill="#84CD29" font-family="'DMSans-Bold'" font-size="12.1847">$</text>
</g>
<g>
	<g>
		<g>
			<path fill="#84CD29" d="M234.1,271.512l-42.731,0.046c-1.31,0.001-2.372,1.064-2.371,2.373l0.026,23.702
				c0,1.308,1.065,2.368,2.376,2.367l42.73-0.046c1.312-0.001,2.372-1.063,2.372-2.373l-0.025-23.702
				C236.475,272.57,235.411,271.511,234.1,271.512z"/>
		</g>
		<path fill="#FFFFFF" d="M192.583,296.443l-0.005-4.74c2.622-0.004,4.75,2.117,4.752,4.734L192.583,296.443z"/>
		<path fill="#FFFFFF" d="M192.565,279.852l-0.005-4.741l4.746-0.005C197.311,277.725,195.188,279.848,192.565,279.852z"/>
		<path fill="#FFFFFF" d="M232.94,296.399l-4.75,0.006c-0.001-2.618,2.12-4.743,4.745-4.745L232.94,296.399z"/>
		<path fill="#FFFFFF" d="M232.924,279.809c-2.625,0.004-4.753-2.117-4.756-4.735l4.751-0.005L232.924,279.809z"/>
		<path fill="#FFFFFF" d="M212.756,294.05c-9.301,0.011-16.847-3.697-16.852-8.277c-0.004-4.581,7.533-8.304,16.835-8.313
			c9.306-0.011,16.852,3.695,16.856,8.277C229.602,290.32,222.06,294.042,212.756,294.05z"/>
	</g>
	
		<rect x="195.742" y="280.541" transform="matrix(-1 0.0011 -0.0011 -1 425.6453 571.5108)" fill="none" width="33.848" height="10.662"/>
	
		<text transform="matrix(1.0016 -0.0011 0.0011 1 209.3682 289.8369)" fill="#84CD29" font-family="'DMSans-Bold'" font-size="12.1847">$</text>
</g>
<g>
	<g>
		<g>
			<path fill="#84CD29" d="M284.6,271.512l-42.732,0.046c-1.31,0.001-2.372,1.064-2.371,2.373l0.025,23.702
				c0.002,1.308,1.066,2.368,2.377,2.367l42.73-0.046c1.312-0.001,2.373-1.063,2.372-2.373l-0.025-23.702
				C286.974,272.57,285.909,271.511,284.6,271.512z"/>
		</g>
		<path fill="#FFFFFF" d="M243.083,296.443l-0.007-4.74c2.623-0.004,4.751,2.117,4.753,4.734L243.083,296.443z"/>
		<path fill="#FFFFFF" d="M243.064,279.852l-0.005-4.741l4.747-0.005C247.81,277.725,245.686,279.848,243.064,279.852z"/>
		<path fill="#FFFFFF" d="M283.439,296.399l-4.75,0.006c-0.002-2.618,2.12-4.743,4.746-4.745L283.439,296.399z"/>
		<path fill="#FFFFFF" d="M283.422,279.809c-2.624,0.004-4.752-2.117-4.755-4.735l4.751-0.005L283.422,279.809z"/>
		<path fill="#FFFFFF" d="M263.256,294.05c-9.303,0.011-16.848-3.697-16.852-8.277c-0.005-4.581,7.531-8.304,16.834-8.313
			c9.306-0.011,16.851,3.695,16.856,8.277C280.1,290.32,272.559,294.042,263.256,294.05z"/>
	</g>
	
		<rect x="246.24" y="280.539" transform="matrix(-1 0.0011 -0.0011 -1 526.6423 571.4515)" fill="none" width="33.849" height="10.662"/>
	
		<text transform="matrix(1.0016 -0.0011 0.0011 1 259.8662 289.8369)" fill="#84CD29" font-family="'DMSans-Bold'" font-size="12.1847">$</text>
</g>
<g>
	<g>
		<g>
			<path fill="#84CD29" d="M335.099,271.512l-42.732,0.046c-1.31,0.001-2.372,1.064-2.371,2.373l0.026,23.702
				c0,1.308,1.066,2.368,2.376,2.367l42.73-0.046c1.312-0.001,2.373-1.063,2.372-2.373l-0.025-23.702
				C337.473,272.57,336.408,271.511,335.099,271.512z"/>
		</g>
		<path fill="#FFFFFF" d="M293.581,296.443l-0.005-4.74c2.622-0.004,4.75,2.117,4.752,4.734L293.581,296.443z"/>
		<path fill="#FFFFFF" d="M293.563,279.852l-0.005-4.741l4.747-0.005C298.308,277.725,296.186,279.848,293.563,279.852z"/>
		<path fill="#FFFFFF" d="M333.939,296.399l-4.75,0.006c-0.003-2.618,2.119-4.743,4.745-4.745L333.939,296.399z"/>
		<path fill="#FFFFFF" d="M333.921,279.809c-2.624,0.004-4.752-2.117-4.755-4.735l4.751-0.005L333.921,279.809z"/>
		<path fill="#FFFFFF" d="M313.756,294.05c-9.303,0.011-16.849-3.697-16.853-8.277c-0.005-4.581,7.532-8.304,16.834-8.313
			c9.305-0.011,16.852,3.695,16.856,8.277C330.6,290.32,323.058,294.042,313.756,294.05z"/>
	</g>
	
		<rect x="296.74" y="280.537" transform="matrix(-1 0.0011 -0.0011 -1 627.6423 571.3922)" fill="none" width="33.849" height="10.662"/>
	
		<text transform="matrix(1.0016 -0.0011 0.0011 1 310.3652 289.8369)" fill="#84CD29" font-family="'DMSans-Bold'" font-size="12.1847">$</text>
</g>
</svg>
