<?xml version="1.0" encoding="utf-8"?>
<!-- Generator: Adobe Illustrator 16.0.4, SVG Export Plug-In . SVG Version: 6.00 Build 0)  -->
<!DOCTYPE svg PUBLIC "-//W3C//DTD SVG 1.1//EN" "http://www.w3.org/Graphics/SVG/1.1/DTD/svg11.dtd">
<svg version="1.1" id="Layer_1" xmlns="http://www.w3.org/2000/svg" xmlns:xlink="http://www.w3.org/1999/xlink" x="0px" y="0px"
	 width="375px" height="375px" viewBox="0 0 375 375" enable-background="new 0 0 375 375" xml:space="preserve">
<g>
	<g>
		<path fill="#FFFFFF" d="M186.931,70.943c-7.222-0.014-15.646-2.861-20.418-4.078c-5.595-1.426-8.251-1.473-12.379-1.48
			c-12.494-0.023-16.344,6.521-17.399,9.192c8.243-25.309,34.312-28.814,49.713-28.787l1.271,0.003
			c15.398,0.028,41.455,3.629,49.606,28.97c-1.043-2.676-4.873-9.234-17.366-9.259c-4.126-0.008-6.785,0.03-12.384,1.435
			c-4.78,1.2-13.212,4.018-20.435,4.004H186.931z"/>
		<path fill="#444444" d="M237.28,74.787l0.043-0.022c-1.043-2.675-4.873-9.234-17.366-9.259c-4.126-0.008-6.786,0.03-12.384,1.435
			c-4.78,1.2-13.212,4.019-20.436,4.004h-0.207c-7.222-0.014-15.646-2.86-20.418-4.079c-5.595-1.425-8.251-1.472-12.379-1.479
			c-12.494-0.024-16.344,6.521-17.399,9.191l0.043,0.022c-2.647,2.528-4.416,9.181-4.196,16.955
			c0.274,9.858,3.633,17.767,7.5,17.661c0.073-0.004,0.143-0.026,0.214-0.034c8.953,18.09,33.567,26.517,46.487,26.54
			c12.919,0.023,37.744-8.312,46.829-26.372c0.081,0.01,0.159,0.037,0.241,0.039c3.861,0.118,7.252-7.776,7.562-17.634
			C241.661,83.98,239.919,77.326,237.28,74.787z"/>
		<path fill="#7F7F7F" d="M186.884,122.666c-6.528-0.013-20.381-6.086-20.354-19.369c0.024-13.278,15.316-14.305,20.464-14.295
			c5.149,0.008,20.453,1.092,20.429,14.369C207.397,116.654,193.416,122.677,186.884,122.666z"/>
		<path fill="#232323" d="M187.3,92.486c2.838,0.006,7.026,2.975,7.516,6.432c0.486,3.455-7.721,3.317-7.721,3.317h-0.235
			c0,0-8.206,0.108-7.707-3.349c0.499-3.452,4.699-6.406,7.54-6.4H187.3z"/>
		<g>
			<circle fill="#232323" cx="166.074" cy="82.381" r="2.508"/>
			<path fill="#232323" d="M210.461,82.462c-0.003,1.388-1.126,2.506-2.514,2.504c-1.382-0.002-2.504-1.127-2.503-2.512
				c0.003-1.388,1.128-2.508,2.512-2.506C209.345,79.952,210.466,81.077,210.461,82.462z"/>
		</g>
		<path fill="#232323" d="M231.952,80.417c3.184,0.123,5.758,6.13,6.73,14.61c0.113-1.065,0.194-2.174,0.224-3.322
			c0.208-7.749-1.671-14.107-4.188-14.206c-1.074-0.041-2.086,1.065-2.916,2.936C231.851,80.435,231.901,80.416,231.952,80.417z"/>
		<path fill="#232323" d="M142.085,80.251c-3.184,0.113-5.783,6.111-6.786,14.588c-0.11-1.066-0.186-2.176-0.211-3.325
			c-0.177-7.748,1.724-14.103,4.243-14.188c1.069-0.037,2.082,1.073,2.905,2.945C142.184,80.271,142.136,80.251,142.085,80.251z"/>
		<path fill="none" stroke="#7F7F7F" stroke-width="1.9744" stroke-linecap="round" stroke-miterlimit="10" d="M161.299,74.974
			c0.649-0.602,1.405-1.062,2.219-1.37c0.814-0.308,1.687-0.458,2.568-0.435c0.883,0.021,1.776,0.218,2.632,0.604
			c0.857,0.388,1.593,0.931,2.191,1.581"/>
		<path fill="none" stroke="#7F7F7F" stroke-width="1.9744" stroke-linecap="round" stroke-miterlimit="10" d="M203.279,74.974
			c0.649-0.602,1.405-1.062,2.218-1.37c0.814-0.308,1.688-0.458,2.569-0.435c0.882,0.021,1.775,0.218,2.632,0.604
			c0.855,0.388,1.592,0.931,2.191,1.581"/>
	</g>
	<rect y="99.21" fill="#84CD29" width="375" height="230"/>
	<g>
		<g>
			<g>
				<path fill="#84CD29" d="M182.627,99.21l-53.416,0.057c-1.637,0.002-2.965,1.331-2.963,2.966l0.032,29.628
					c0.001,1.635,1.333,2.961,2.971,2.959l53.414-0.057c1.639-0.002,2.965-1.33,2.964-2.966l-0.031-29.627
					C185.595,100.535,184.265,99.208,182.627,99.21z"/>
			</g>
			<path fill="#FFFFFF" d="M130.729,130.374l-0.006-5.925c3.277-0.003,5.937,2.646,5.939,5.919L130.729,130.374z"/>
			<path fill="#FFFFFF" d="M130.708,109.635l-0.007-5.926l5.934-0.006C136.639,106.976,133.985,109.631,130.708,109.635z"/>
			<path fill="#FFFFFF" d="M181.177,130.32l-5.937,0.007c-0.003-3.272,2.65-5.928,5.931-5.932L181.177,130.32z"/>
			<path fill="#FFFFFF" d="M181.155,109.582c-3.281,0.004-5.94-2.646-5.944-5.92l5.938-0.006L181.155,109.582z"/>
			<path fill="#FFFFFF" d="M155.947,127.384c-11.628,0.012-21.06-4.621-21.065-10.347c-0.006-5.727,9.416-10.38,21.044-10.392
				c11.631-0.013,21.064,4.62,21.07,10.347C177.003,122.721,167.576,127.372,155.947,127.384z"/>
		</g>
		
			<rect x="134.666" y="110.504" transform="matrix(1 -0.0011 0.0011 1 -0.1243 0.1655)" fill="none" width="42.311" height="13.328"/>
		
			<text transform="matrix(1.0016 -0.0011 0.0011 1 151.7007 122.1113)" fill="#84CD29" font-family="'DMSans-Bold'" font-size="15.2309">$</text>
	</g>
	<g>
		<g>
			<g>
				<path fill="#84CD29" d="M245.75,99.21l-53.415,0.057c-1.637,0.002-2.965,1.331-2.964,2.966l0.033,29.628
					c0.001,1.635,1.332,2.961,2.97,2.959l53.413-0.057c1.64-0.002,2.966-1.33,2.965-2.966l-0.031-29.627
					C248.719,100.535,247.389,99.208,245.75,99.21z"/>
			</g>
			<path fill="#FFFFFF" d="M193.854,130.374l-0.006-5.925c3.277-0.003,5.937,2.646,5.939,5.919L193.854,130.374z"/>
			<path fill="#FFFFFF" d="M193.832,109.635l-0.007-5.926l5.934-0.006C199.763,106.976,197.109,109.631,193.832,109.635z"/>
			<path fill="#FFFFFF" d="M244.301,130.32l-5.938,0.007c-0.002-3.272,2.65-5.928,5.932-5.932L244.301,130.32z"/>
			<path fill="#FFFFFF" d="M244.279,109.582c-3.281,0.004-5.94-2.646-5.944-5.92l5.938-0.006L244.279,109.582z"/>
			<path fill="#FFFFFF" d="M219.071,127.384c-11.628,0.012-21.06-4.621-21.065-10.347c-0.006-5.727,9.416-10.38,21.043-10.392
				c11.632-0.013,21.064,4.62,21.07,10.347C240.127,122.721,230.699,127.372,219.071,127.384z"/>
		</g>
		
			<rect x="197.791" y="110.504" transform="matrix(1 -0.0011 0.0011 1 -0.1243 0.2325)" fill="none" width="42.31" height="13.328"/>
		
			<text transform="matrix(1.0016 -0.0011 0.0011 1 214.8242 122.1113)" fill="#84CD29" font-family="'DMSans-Bold'" font-size="15.2309">$</text>
	</g>
	<g>
		<g>
			<g>
				<path fill="#84CD29" d="M308.874,99.21l-53.415,0.057c-1.637,0.002-2.965,1.331-2.964,2.966l0.032,29.628
					c0.002,1.635,1.333,2.961,2.971,2.959l53.413-0.057c1.64-0.002,2.966-1.33,2.965-2.966l-0.031-29.627
					C311.842,100.535,310.512,99.208,308.874,99.21z"/>
			</g>
			<path fill="#FFFFFF" d="M256.978,130.374l-0.007-5.925c3.278-0.003,5.938,2.646,5.94,5.919L256.978,130.374z"/>
			<path fill="#FFFFFF" d="M256.955,109.635l-0.006-5.926l5.934-0.006C262.887,106.976,260.233,109.631,256.955,109.635z"/>
			<path fill="#FFFFFF" d="M307.425,130.32l-5.938,0.007c-0.003-3.272,2.65-5.928,5.932-5.932L307.425,130.32z"/>
			<path fill="#FFFFFF" d="M307.402,109.582c-3.28,0.004-5.939-2.646-5.943-5.92l5.938-0.006L307.402,109.582z"/>
			<path fill="#FFFFFF" d="M282.195,127.384c-11.628,0.012-21.06-4.621-21.065-10.347c-0.006-5.727,9.415-10.38,21.043-10.392
				c11.632-0.013,21.064,4.62,21.07,10.347C303.25,122.721,293.823,127.372,282.195,127.384z"/>
		</g>
		
			<rect x="260.914" y="110.504" transform="matrix(1 -0.0011 0.0011 1 -0.1242 0.2995)" fill="none" width="42.31" height="13.328"/>
		
			<text transform="matrix(1.0016 -0.0011 0.0011 1 277.9482 122.1113)" fill="#84CD29" font-family="'DMSans-Bold'" font-size="15.2309">$</text>
	</g>
	<g>
		<g>
			<path fill="#84CD29" d="M371.998,99.21l-53.415,0.057c-1.637,0.002-2.965,1.331-2.964,2.966l0.032,29.628
				c0.001,1.635,1.333,2.961,2.971,2.959l53.413-0.057c1.639-0.002,2.966-1.33,2.965-2.966l-0.031-29.627
				C374.966,100.535,373.636,99.208,371.998,99.21z"/>
		</g>
		<path fill="#FFFFFF" d="M320.102,130.374l-0.007-5.925c3.278-0.003,5.937,2.646,5.94,5.919L320.102,130.374z"/>
		<path fill="#FFFFFF" d="M320.079,109.635l-0.006-5.926l5.934-0.006C326.01,106.976,323.357,109.631,320.079,109.635z"/>
		<path fill="#FFFFFF" d="M370.549,130.32l-5.938,0.007c-0.003-3.272,2.65-5.928,5.932-5.932L370.549,130.32z"/>
		<path fill="#FFFFFF" d="M370.526,109.582c-3.28,0.004-5.94-2.646-5.943-5.92l5.938-0.006L370.526,109.582z"/>
		<path fill="#FFFFFF" d="M345.319,127.384c-11.628,0.012-21.06-4.621-21.065-10.347c-0.006-5.727,9.415-10.38,21.043-10.392
			c11.631-0.013,21.064,4.62,21.07,10.347C366.374,122.721,356.947,127.372,345.319,127.384z"/>
	</g>
	
		<rect x="324.038" y="110.504" transform="matrix(1 -0.0011 0.0011 1 -0.1242 0.3666)" fill="none" width="42.311" height="13.328"/>
	
		<text transform="matrix(1.0016 -0.0011 0.0011 1 341.0723 122.1113)" fill="#84CD29" font-family="'DMSans-Bold'" font-size="15.2309">$</text>
	<g>
		<g>
			<g>
				<path fill="#84CD29" d="M119.503,138.088l-53.416,0.057c-1.637,0.002-2.965,1.331-2.963,2.966l0.032,29.628
					c0.001,1.636,1.333,2.961,2.97,2.959l53.414-0.057c1.639-0.002,2.965-1.33,2.964-2.966l-0.032-29.627
					C122.471,139.413,121.141,138.087,119.503,138.088z"/>
			</g>
			<path fill="#FFFFFF" d="M67.605,169.251l-0.006-5.924c3.277-0.004,5.937,2.646,5.939,5.918L67.605,169.251z"/>
			<path fill="#FFFFFF" d="M67.584,148.513l-0.007-5.926l5.934-0.006C73.515,145.855,70.861,148.509,67.584,148.513z"/>
			<path fill="#FFFFFF" d="M118.053,169.199l-5.937,0.006c-0.003-3.272,2.65-5.928,5.931-5.931L118.053,169.199z"/>
			<path fill="#FFFFFF" d="M118.031,148.459c-3.281,0.004-5.94-2.646-5.944-5.919l5.938-0.006L118.031,148.459z"/>
			<path fill="#FFFFFF" d="M92.824,166.262c-11.628,0.013-21.06-4.62-21.065-10.347c-0.006-5.727,9.416-10.38,21.043-10.392
				c11.631-0.013,21.064,4.62,21.07,10.347C113.879,161.599,104.452,166.25,92.824,166.262z"/>
		</g>
		
			<rect x="71.542" y="149.382" transform="matrix(1 -0.0011 0.0011 1 -0.1656 0.0985)" fill="none" width="42.311" height="13.329"/>
		
			<text transform="matrix(1.0016 -0.0011 0.0011 1 88.5767 160.9897)" fill="#84CD29" font-family="'DMSans-Bold'" font-size="15.2309">$</text>
	</g>
	<g>
		<g>
			<g>
				<path fill="#84CD29" d="M182.627,138.088l-53.416,0.057c-1.637,0.002-2.965,1.331-2.963,2.966l0.032,29.628
					c0.001,1.636,1.333,2.961,2.971,2.959l53.414-0.057c1.639-0.002,2.965-1.33,2.964-2.966l-0.031-29.627
					C185.595,139.413,184.265,138.087,182.627,138.088z"/>
			</g>
			<path fill="#FFFFFF" d="M130.729,169.251l-0.006-5.924c3.277-0.004,5.937,2.646,5.939,5.918L130.729,169.251z"/>
			<path fill="#FFFFFF" d="M130.708,148.513l-0.007-5.926l5.934-0.006C136.639,145.855,133.985,148.509,130.708,148.513z"/>
			<path fill="#FFFFFF" d="M181.177,169.199l-5.937,0.006c-0.003-3.272,2.65-5.928,5.931-5.931L181.177,169.199z"/>
			<path fill="#FFFFFF" d="M181.155,148.459c-3.281,0.004-5.94-2.646-5.944-5.919l5.938-0.006L181.155,148.459z"/>
			<path fill="#FFFFFF" d="M155.947,166.262c-11.628,0.013-21.06-4.62-21.065-10.347s9.416-10.38,21.044-10.392
				c11.631-0.013,21.064,4.62,21.07,10.347C177.003,161.599,167.576,166.25,155.947,166.262z"/>
		</g>
		
			<rect x="134.666" y="149.382" transform="matrix(1 -0.0011 0.0011 1 -0.1656 0.1655)" fill="none" width="42.311" height="13.329"/>
		
			<text transform="matrix(1.0016 -0.0011 0.0011 1 151.7007 160.9897)" fill="#84CD29" font-family="'DMSans-Bold'" font-size="15.2309">$</text>
	</g>
	<g>
		<g>
			<g>
				<path fill="#84CD29" d="M245.75,138.088l-53.415,0.057c-1.637,0.002-2.965,1.331-2.964,2.966l0.033,29.628
					c0.001,1.636,1.332,2.961,2.97,2.959l53.413-0.057c1.64-0.002,2.966-1.33,2.965-2.966l-0.031-29.627
					C248.719,139.413,247.389,138.087,245.75,138.088z"/>
			</g>
			<path fill="#FFFFFF" d="M193.854,169.251l-0.006-5.924c3.277-0.004,5.937,2.646,5.939,5.918L193.854,169.251z"/>
			<path fill="#FFFFFF" d="M193.832,148.513l-0.007-5.926l5.934-0.006C199.763,145.855,197.109,148.509,193.832,148.513z"/>
			<path fill="#FFFFFF" d="M244.301,169.199l-5.938,0.006c-0.002-3.272,2.65-5.928,5.932-5.931L244.301,169.199z"/>
			<path fill="#FFFFFF" d="M244.279,148.459c-3.281,0.004-5.94-2.646-5.944-5.919l5.938-0.006L244.279,148.459z"/>
			<path fill="#FFFFFF" d="M219.071,166.262c-11.628,0.013-21.06-4.62-21.065-10.347s9.416-10.38,21.043-10.392
				c11.632-0.013,21.064,4.62,21.07,10.347C240.127,161.599,230.699,166.25,219.071,166.262z"/>
		</g>
		
			<rect x="197.791" y="149.382" transform="matrix(1 -0.0011 0.0011 1 -0.1656 0.2325)" fill="none" width="42.31" height="13.329"/>
		
			<text transform="matrix(1.0016 -0.0011 0.0011 1 214.8242 160.9897)" fill="#84CD29" font-family="'DMSans-Bold'" font-size="15.2309">$</text>
	</g>
	<g>
		<g>
			<g>
				<path fill="#84CD29" d="M308.874,138.088l-53.415,0.057c-1.637,0.002-2.965,1.331-2.964,2.966l0.032,29.628
					c0.002,1.636,1.333,2.961,2.971,2.959l53.413-0.057c1.64-0.002,2.966-1.33,2.965-2.966l-0.031-29.627
					C311.842,139.413,310.512,138.087,308.874,138.088z"/>
			</g>
			<path fill="#FFFFFF" d="M256.978,169.251l-0.007-5.924c3.278-0.004,5.938,2.646,5.94,5.918L256.978,169.251z"/>
			<path fill="#FFFFFF" d="M256.955,148.513l-0.006-5.926l5.934-0.006C262.887,145.855,260.233,148.509,256.955,148.513z"/>
			<path fill="#FFFFFF" d="M307.425,169.199l-5.938,0.006c-0.003-3.272,2.65-5.928,5.932-5.931L307.425,169.199z"/>
			<path fill="#FFFFFF" d="M307.402,148.459c-3.28,0.004-5.939-2.646-5.943-5.919l5.938-0.006L307.402,148.459z"/>
			<path fill="#FFFFFF" d="M282.195,166.262c-11.628,0.013-21.06-4.62-21.065-10.347s9.415-10.38,21.043-10.392
				c11.632-0.013,21.064,4.62,21.07,10.347C303.25,161.599,293.823,166.25,282.195,166.262z"/>
		</g>
		
			<rect x="260.914" y="149.382" transform="matrix(1 -0.0011 0.0011 1 -0.1655 0.2996)" fill="none" width="42.31" height="13.329"/>
		
			<text transform="matrix(1.0016 -0.0011 0.0011 1 277.9482 160.9893)" fill="#84CD29" font-family="'DMSans-Bold'" font-size="15.2309">$</text>
	</g>
	<g>
		<g>
			<g>
				<path fill="#84CD29" d="M371.998,138.088l-53.415,0.057c-1.637,0.002-2.965,1.331-2.964,2.966l0.032,29.628
					c0.001,1.636,1.333,2.961,2.971,2.959l53.413-0.057c1.639-0.002,2.966-1.33,2.965-2.966l-0.031-29.627
					C374.966,139.413,373.636,138.087,371.998,138.088z"/>
			</g>
			<path fill="#FFFFFF" d="M320.102,169.251l-0.007-5.924c3.278-0.004,5.937,2.646,5.94,5.918L320.102,169.251z"/>
			<path fill="#FFFFFF" d="M320.079,148.513l-0.006-5.926l5.934-0.006C326.01,145.855,323.357,148.509,320.079,148.513z"/>
			<path fill="#FFFFFF" d="M370.549,169.199l-5.938,0.006c-0.003-3.272,2.65-5.928,5.932-5.931L370.549,169.199z"/>
			<path fill="#FFFFFF" d="M370.526,148.459c-3.28,0.004-5.94-2.646-5.943-5.919l5.938-0.006L370.526,148.459z"/>
			<path fill="#FFFFFF" d="M345.319,166.262c-11.628,0.013-21.06-4.62-21.065-10.347s9.415-10.38,21.043-10.392
				c11.631-0.013,21.064,4.62,21.07,10.347C366.374,161.599,356.947,166.25,345.319,166.262z"/>
		</g>
		
			<rect x="324.038" y="149.382" transform="matrix(1 -0.0011 0.0011 1 -0.1655 0.3666)" fill="none" width="42.311" height="13.329"/>
		
			<text transform="matrix(1.0016 -0.0011 0.0011 1 341.0723 160.9893)" fill="#84CD29" font-family="'DMSans-Bold'" font-size="15.2309">$</text>
	</g>
	<g>
		<g>
			<g>
				<path fill="#84CD29" d="M119.503,176.966l-53.416,0.057c-1.637,0.002-2.965,1.331-2.963,2.967l0.032,29.626
					c0.001,1.636,1.333,2.961,2.97,2.959l53.414-0.057c1.639-0.002,2.965-1.33,2.964-2.965l-0.032-29.627
					C122.471,178.292,121.141,176.965,119.503,176.966z"/>
			</g>
			<path fill="#FFFFFF" d="M67.605,208.13l-0.006-5.925c3.277-0.004,5.937,2.646,5.939,5.918L67.605,208.13z"/>
			<path fill="#FFFFFF" d="M67.584,187.391l-0.007-5.925l5.934-0.007C73.515,184.733,70.861,187.388,67.584,187.391z"/>
			<path fill="#FFFFFF" d="M118.053,208.076l-5.937,0.007c-0.003-3.273,2.65-5.928,5.931-5.932L118.053,208.076z"/>
			<path fill="#FFFFFF" d="M118.031,187.337c-3.281,0.004-5.94-2.646-5.944-5.919l5.938-0.006L118.031,187.337z"/>
			<path fill="#FFFFFF" d="M92.824,205.14c-11.628,0.013-21.06-4.62-21.065-10.347c-0.006-5.727,9.416-10.378,21.043-10.391
				c11.631-0.013,21.064,4.62,21.07,10.347C113.879,200.477,104.452,205.128,92.824,205.14z"/>
		</g>
		
			<rect x="71.542" y="188.261" transform="matrix(1 -0.0011 0.0011 1 -0.2069 0.0985)" fill="none" width="42.311" height="13.328"/>
		
			<text transform="matrix(1.0016 -0.0011 0.0011 1 88.5767 199.8672)" fill="#84CD29" font-family="'DMSans-Bold'" font-size="15.2309">$</text>
	</g>
	<g>
		<g>
			<g>
				<path fill="#84CD29" d="M182.627,176.966l-53.416,0.057c-1.637,0.002-2.965,1.331-2.963,2.967l0.032,29.626
					c0.001,1.636,1.333,2.961,2.971,2.959l53.414-0.057c1.639-0.002,2.965-1.33,2.964-2.965l-0.031-29.627
					C185.595,178.292,184.265,176.965,182.627,176.966z"/>
			</g>
			<path fill="#FFFFFF" d="M130.729,208.13l-0.006-5.925c3.277-0.004,5.937,2.646,5.939,5.918L130.729,208.13z"/>
			<path fill="#FFFFFF" d="M130.708,187.391l-0.007-5.925l5.934-0.007C136.639,184.733,133.985,187.388,130.708,187.391z"/>
			<path fill="#FFFFFF" d="M181.177,208.076l-5.937,0.007c-0.003-3.273,2.65-5.928,5.931-5.932L181.177,208.076z"/>
			<path fill="#FFFFFF" d="M181.155,187.337c-3.281,0.004-5.94-2.646-5.944-5.919l5.938-0.006L181.155,187.337z"/>
			<path fill="#FFFFFF" d="M155.947,205.14c-11.628,0.013-21.06-4.62-21.065-10.347s9.416-10.378,21.044-10.391
				c11.631-0.013,21.064,4.62,21.07,10.347C177.003,200.477,167.576,205.128,155.947,205.14z"/>
		</g>
		
			<rect x="134.666" y="188.261" transform="matrix(1 -0.0011 0.0011 1 -0.2069 0.1655)" fill="none" width="42.311" height="13.328"/>
		
			<text transform="matrix(1.0016 -0.0011 0.0011 1 151.7002 199.8672)" fill="#84CD29" font-family="'DMSans-Bold'" font-size="15.2309">$</text>
	</g>
	<g>
		<g>
			<g>
				<path fill="#84CD29" d="M245.75,176.966l-53.415,0.057c-1.637,0.002-2.965,1.331-2.964,2.967l0.033,29.626
					c0.001,1.636,1.332,2.961,2.97,2.959l53.413-0.057c1.64-0.002,2.966-1.33,2.965-2.965l-0.031-29.627
					C248.719,178.292,247.389,176.965,245.75,176.966z"/>
			</g>
			<path fill="#FFFFFF" d="M193.854,208.13l-0.006-5.925c3.277-0.004,5.937,2.646,5.939,5.918L193.854,208.13z"/>
			<path fill="#FFFFFF" d="M193.832,187.391l-0.007-5.925l5.934-0.007C199.763,184.733,197.109,187.388,193.832,187.391z"/>
			<path fill="#FFFFFF" d="M244.301,208.076l-5.938,0.007c-0.002-3.273,2.65-5.928,5.932-5.932L244.301,208.076z"/>
			<path fill="#FFFFFF" d="M244.279,187.337c-3.281,0.004-5.94-2.646-5.944-5.919l5.938-0.006L244.279,187.337z"/>
			<path fill="#FFFFFF" d="M219.071,205.14c-11.628,0.013-21.06-4.62-21.065-10.347s9.416-10.378,21.043-10.391
				c11.632-0.013,21.064,4.62,21.07,10.347C240.127,200.477,230.699,205.128,219.071,205.14z"/>
		</g>
		
			<rect x="197.791" y="188.261" transform="matrix(1 -0.0011 0.0011 1 -0.2068 0.2326)" fill="none" width="42.31" height="13.328"/>
		
			<text transform="matrix(1.0016 -0.0011 0.0011 1 214.8242 199.8672)" fill="#84CD29" font-family="'DMSans-Bold'" font-size="15.2309">$</text>
	</g>
	<g>
		<g>
			<g>
				<path fill="#84CD29" d="M308.874,176.966l-53.415,0.057c-1.637,0.002-2.965,1.331-2.964,2.967l0.032,29.626
					c0.002,1.636,1.333,2.961,2.971,2.959l53.413-0.057c1.64-0.002,2.966-1.33,2.965-2.965l-0.031-29.627
					C311.842,178.292,310.512,176.965,308.874,176.966z"/>
			</g>
			<path fill="#FFFFFF" d="M256.978,208.13l-0.007-5.925c3.278-0.004,5.938,2.646,5.94,5.918L256.978,208.13z"/>
			<path fill="#FFFFFF" d="M256.955,187.391l-0.006-5.925l5.934-0.007C262.887,184.733,260.233,187.388,256.955,187.391z"/>
			<path fill="#FFFFFF" d="M307.425,208.076l-5.938,0.007c-0.003-3.273,2.65-5.928,5.932-5.932L307.425,208.076z"/>
			<path fill="#FFFFFF" d="M307.402,187.337c-3.28,0.004-5.939-2.646-5.943-5.919l5.938-0.006L307.402,187.337z"/>
			<path fill="#FFFFFF" d="M282.195,205.14c-11.628,0.013-21.06-4.62-21.065-10.347s9.415-10.378,21.043-10.391
				c11.632-0.013,21.064,4.62,21.07,10.347C303.25,200.477,293.823,205.128,282.195,205.14z"/>
		</g>
		
			<rect x="260.914" y="188.261" transform="matrix(1 -0.0011 0.0011 1 -0.2068 0.2996)" fill="none" width="42.31" height="13.328"/>
		
			<text transform="matrix(1.0016 -0.0011 0.0011 1 277.9482 199.8672)" fill="#84CD29" font-family="'DMSans-Bold'" font-size="15.2309">$</text>
	</g>
	<g>
		<g>
			<g>
				<path fill="#84CD29" d="M371.998,176.966l-53.415,0.057c-1.637,0.002-2.965,1.331-2.964,2.967l0.032,29.626
					c0.001,1.636,1.333,2.961,2.971,2.959l53.413-0.057c1.639-0.002,2.966-1.33,2.965-2.965l-0.031-29.627
					C374.966,178.292,373.636,176.965,371.998,176.966z"/>
			</g>
			<path fill="#FFFFFF" d="M320.102,208.13l-0.007-5.925c3.278-0.004,5.937,2.646,5.94,5.918L320.102,208.13z"/>
			<path fill="#FFFFFF" d="M320.079,187.391l-0.006-5.925l5.934-0.007C326.01,184.733,323.357,187.388,320.079,187.391z"/>
			<path fill="#FFFFFF" d="M370.549,208.076l-5.938,0.007c-0.003-3.273,2.65-5.928,5.932-5.932L370.549,208.076z"/>
			<path fill="#FFFFFF" d="M370.526,187.337c-3.28,0.004-5.94-2.646-5.943-5.919l5.938-0.006L370.526,187.337z"/>
			<path fill="#FFFFFF" d="M345.319,205.14c-11.628,0.013-21.06-4.62-21.065-10.347s9.415-10.378,21.043-10.391
				c11.631-0.013,21.064,4.62,21.07,10.347C366.374,200.477,356.947,205.128,345.319,205.14z"/>
		</g>
		
			<rect x="324.038" y="188.261" transform="matrix(1 -0.0011 0.0011 1 -0.2068 0.3666)" fill="none" width="42.311" height="13.328"/>
		
			<text transform="matrix(1.0016 -0.0011 0.0011 1 341.0723 199.8682)" fill="#84CD29" font-family="'DMSans-Bold'" font-size="15.2309">$</text>
	</g>
	<g>
		<g>
			<g>
				<path fill="#84CD29" d="M119.503,215.845l-53.416,0.057c-1.637,0.002-2.965,1.33-2.963,2.966l0.032,29.628
					c0.001,1.635,1.333,2.96,2.97,2.959l53.414-0.057c1.639-0.002,2.965-1.33,2.964-2.966l-0.032-29.628
					C122.471,217.169,121.141,215.843,119.503,215.845z"/>
			</g>
			<path fill="#FFFFFF" d="M67.605,247.008l-0.006-5.925c3.277-0.004,5.937,2.646,5.939,5.918L67.605,247.008z"/>
			<path fill="#FFFFFF" d="M67.584,226.269l-0.007-5.925l5.934-0.007C73.515,223.61,70.861,226.266,67.584,226.269z"/>
			<path fill="#FFFFFF" d="M118.053,246.954l-5.937,0.007c-0.003-3.273,2.65-5.928,5.931-5.932L118.053,246.954z"/>
			<path fill="#FFFFFF" d="M118.031,226.216c-3.281,0.003-5.94-2.646-5.944-5.92l5.938-0.006L118.031,226.216z"/>
			<path fill="#FFFFFF" d="M92.824,244.019c-11.628,0.012-21.06-4.621-21.065-10.347c-0.006-5.728,9.416-10.38,21.043-10.393
				c11.631-0.013,21.064,4.621,21.07,10.348C113.879,239.354,104.452,244.006,92.824,244.019z"/>
		</g>
		<rect x="71.542" y="227.138" transform="matrix(1 -0.0011 0.0011 1 -0.2482 0.0985)" fill="none" width="42.311" height="13.33"/>
		
			<text transform="matrix(1.0016 -0.0011 0.0011 1 88.5767 238.7461)" fill="#84CD29" font-family="'DMSans-Bold'" font-size="15.2309">$</text>
	</g>
	<g>
		<g>
			<g>
				<path fill="#84CD29" d="M182.627,215.845l-53.416,0.057c-1.637,0.002-2.965,1.33-2.963,2.966l0.032,29.628
					c0.001,1.635,1.333,2.96,2.971,2.959l53.414-0.057c1.639-0.002,2.965-1.33,2.964-2.966l-0.031-29.628
					C185.595,217.169,184.265,215.843,182.627,215.845z"/>
			</g>
			<path fill="#FFFFFF" d="M130.729,247.008l-0.006-5.925c3.277-0.004,5.937,2.646,5.939,5.918L130.729,247.008z"/>
			<path fill="#FFFFFF" d="M130.708,226.269l-0.007-5.925l5.934-0.007C136.639,223.61,133.985,226.266,130.708,226.269z"/>
			<path fill="#FFFFFF" d="M181.177,246.954l-5.937,0.007c-0.003-3.273,2.65-5.928,5.931-5.932L181.177,246.954z"/>
			<path fill="#FFFFFF" d="M181.155,226.216c-3.281,0.003-5.94-2.646-5.944-5.92l5.938-0.006L181.155,226.216z"/>
			<path fill="#FFFFFF" d="M155.947,244.019c-11.628,0.012-21.06-4.621-21.065-10.347c-0.006-5.728,9.416-10.38,21.044-10.393
				c11.631-0.013,21.064,4.621,21.07,10.348C177.003,239.354,167.576,244.006,155.947,244.019z"/>
		</g>
		
			<rect x="134.666" y="227.138" transform="matrix(1 -0.0011 0.0011 1 -0.2482 0.1656)" fill="none" width="42.311" height="13.33"/>
		
			<text transform="matrix(1.0016 -0.0011 0.0011 1 151.7002 238.7461)" fill="#84CD29" font-family="'DMSans-Bold'" font-size="15.2309">$</text>
	</g>
	<g>
		<g>
			<g>
				<path fill="#84CD29" d="M245.75,215.845l-53.415,0.057c-1.637,0.002-2.965,1.33-2.964,2.966l0.033,29.628
					c0.001,1.635,1.332,2.96,2.97,2.959l53.413-0.057c1.64-0.002,2.966-1.33,2.965-2.966l-0.031-29.628
					C248.719,217.169,247.389,215.843,245.75,215.845z"/>
			</g>
			<path fill="#FFFFFF" d="M193.854,247.008l-0.006-5.925c3.277-0.004,5.937,2.646,5.939,5.918L193.854,247.008z"/>
			<path fill="#FFFFFF" d="M193.832,226.269l-0.007-5.925l5.934-0.007C199.763,223.61,197.109,226.266,193.832,226.269z"/>
			<path fill="#FFFFFF" d="M244.301,246.954l-5.938,0.007c-0.002-3.273,2.65-5.928,5.932-5.932L244.301,246.954z"/>
			<path fill="#FFFFFF" d="M244.279,226.216c-3.281,0.003-5.94-2.646-5.944-5.92l5.938-0.006L244.279,226.216z"/>
			<path fill="#FFFFFF" d="M219.071,244.019c-11.628,0.012-21.06-4.621-21.065-10.347c-0.006-5.728,9.416-10.38,21.043-10.393
				c11.632-0.013,21.064,4.621,21.07,10.348C240.127,239.354,230.699,244.006,219.071,244.019z"/>
		</g>
		<rect x="197.791" y="227.138" transform="matrix(1 -0.0011 0.0011 1 -0.2481 0.2326)" fill="none" width="42.31" height="13.33"/>
		
			<text transform="matrix(1.0016 -0.0011 0.0011 1 214.8242 238.7461)" fill="#84CD29" font-family="'DMSans-Bold'" font-size="15.2309">$</text>
	</g>
	<g>
		<g>
			<g>
				<path fill="#84CD29" d="M308.874,215.845l-53.415,0.057c-1.637,0.002-2.965,1.33-2.964,2.966l0.032,29.628
					c0.002,1.635,1.333,2.96,2.971,2.959l53.413-0.057c1.64-0.002,2.966-1.33,2.965-2.966l-0.031-29.628
					C311.842,217.169,310.512,215.843,308.874,215.845z"/>
			</g>
			<path fill="#FFFFFF" d="M256.978,247.008l-0.007-5.925c3.278-0.004,5.938,2.646,5.94,5.918L256.978,247.008z"/>
			<path fill="#FFFFFF" d="M256.955,226.269l-0.006-5.925l5.934-0.007C262.887,223.61,260.233,226.266,256.955,226.269z"/>
			<path fill="#FFFFFF" d="M307.425,246.954l-5.938,0.007c-0.003-3.273,2.65-5.928,5.932-5.932L307.425,246.954z"/>
			<path fill="#FFFFFF" d="M307.402,226.216c-3.28,0.003-5.939-2.646-5.943-5.92l5.938-0.006L307.402,226.216z"/>
			<path fill="#FFFFFF" d="M282.195,244.019c-11.628,0.012-21.06-4.621-21.065-10.347c-0.006-5.728,9.415-10.38,21.043-10.393
				c11.632-0.013,21.064,4.621,21.07,10.348C303.25,239.354,293.823,244.006,282.195,244.019z"/>
		</g>
		<rect x="260.914" y="227.138" transform="matrix(1 -0.0011 0.0011 1 -0.2481 0.2996)" fill="none" width="42.31" height="13.33"/>
		
			<text transform="matrix(1.0016 -0.0011 0.0011 1 277.9482 238.7461)" fill="#84CD29" font-family="'DMSans-Bold'" font-size="15.2309">$</text>
	</g>
	<g>
		<g>
			<g>
				<path fill="#84CD29" d="M371.998,215.845l-53.415,0.057c-1.637,0.002-2.965,1.33-2.964,2.966l0.032,29.628
					c0.001,1.635,1.333,2.96,2.971,2.959l53.413-0.057c1.639-0.002,2.966-1.33,2.965-2.966l-0.031-29.628
					C374.966,217.169,373.636,215.843,371.998,215.845z"/>
			</g>
			<path fill="#FFFFFF" d="M320.102,247.008l-0.007-5.925c3.278-0.004,5.937,2.646,5.94,5.918L320.102,247.008z"/>
			<path fill="#FFFFFF" d="M320.079,226.269l-0.006-5.925l5.934-0.007C326.01,223.61,323.357,226.266,320.079,226.269z"/>
			<path fill="#FFFFFF" d="M370.549,246.954l-5.938,0.007c-0.003-3.273,2.65-5.928,5.932-5.932L370.549,246.954z"/>
			<path fill="#FFFFFF" d="M370.526,226.216c-3.28,0.003-5.94-2.646-5.943-5.92l5.938-0.006L370.526,226.216z"/>
			<path fill="#FFFFFF" d="M345.319,244.019c-11.628,0.012-21.06-4.621-21.065-10.347c-0.006-5.728,9.415-10.38,21.043-10.393
				c11.631-0.013,21.064,4.621,21.07,10.348C366.374,239.354,356.947,244.006,345.319,244.019z"/>
		</g>
		<rect x="324.038" y="227.138" transform="matrix(1 -0.0011 0.0011 1 -0.248 0.3666)" fill="none" width="42.311" height="13.33"/>
		
			<text transform="matrix(1.0016 -0.0011 0.0011 1 341.0723 238.7461)" fill="#84CD29" font-family="'DMSans-Bold'" font-size="15.2309">$</text>
	</g>
	<g>
		<g>
			<g>
				<path fill="#84CD29" d="M119.503,254.723l-53.416,0.057c-1.637,0.002-2.965,1.331-2.963,2.966l0.032,29.628
					c0.001,1.635,1.333,2.961,2.97,2.959l53.414-0.057c1.639-0.002,2.965-1.33,2.964-2.966l-0.032-29.627
					C122.471,256.047,121.141,254.721,119.503,254.723z"/>
			</g>
			<path fill="#FFFFFF" d="M67.605,285.886l-0.006-5.925c3.277-0.003,5.937,2.646,5.939,5.919L67.605,285.886z"/>
			<path fill="#FFFFFF" d="M67.584,265.147l-0.007-5.926l5.934-0.006C73.515,262.489,70.861,265.144,67.584,265.147z"/>
			<path fill="#FFFFFF" d="M118.053,285.832l-5.937,0.007c-0.003-3.272,2.65-5.928,5.931-5.932L118.053,285.832z"/>
			<path fill="#FFFFFF" d="M118.031,265.094c-3.281,0.004-5.94-2.646-5.944-5.919l5.938-0.007L118.031,265.094z"/>
			<path fill="#FFFFFF" d="M92.824,282.896c-11.628,0.013-21.06-4.621-21.065-10.347c-0.006-5.727,9.416-10.38,21.043-10.393
				c11.631-0.012,21.064,4.621,21.07,10.348C113.879,278.233,104.452,282.884,92.824,282.896z"/>
		</g>
		<rect x="71.542" y="266.016" transform="matrix(1 -0.0011 0.0011 1 -0.302 0.1028)" fill="none" width="42.311" height="13.33"/>
		
			<text transform="matrix(1.0016 -0.0011 0.0011 1 88.5762 277.624)" fill="#84CD29" font-family="'DMSans-Bold'" font-size="15.2309">$</text>
	</g>
	<g>
		<g>
			<g>
				<path fill="#84CD29" d="M182.627,254.723l-53.416,0.057c-1.637,0.002-2.965,1.331-2.963,2.966l0.032,29.628
					c0.001,1.635,1.333,2.961,2.971,2.959l53.414-0.057c1.639-0.002,2.965-1.33,2.964-2.966l-0.031-29.627
					C185.595,256.047,184.265,254.721,182.627,254.723z"/>
			</g>
			<path fill="#FFFFFF" d="M130.729,285.886l-0.006-5.925c3.277-0.003,5.937,2.646,5.939,5.919L130.729,285.886z"/>
			<path fill="#FFFFFF" d="M130.708,265.147l-0.007-5.926l5.934-0.006C136.639,262.489,133.985,265.144,130.708,265.147z"/>
			<path fill="#FFFFFF" d="M181.177,285.832l-5.937,0.007c-0.003-3.272,2.65-5.928,5.931-5.932L181.177,285.832z"/>
			<path fill="#FFFFFF" d="M181.155,265.094c-3.281,0.004-5.94-2.646-5.944-5.919l5.938-0.007L181.155,265.094z"/>
			<path fill="#FFFFFF" d="M155.947,282.896c-11.628,0.013-21.06-4.621-21.065-10.347c-0.006-5.727,9.416-10.38,21.044-10.393
				c11.631-0.012,21.064,4.621,21.07,10.348C177.003,278.233,167.576,282.884,155.947,282.896z"/>
		</g>
		<rect x="134.666" y="266.016" transform="matrix(1 -0.0011 0.0011 1 -0.302 0.1728)" fill="none" width="42.311" height="13.33"/>
		
			<text transform="matrix(1.0016 -0.0011 0.0011 1 151.7002 277.624)" fill="#84CD29" font-family="'DMSans-Bold'" font-size="15.2309">$</text>
	</g>
	<g>
		<g>
			<g>
				<path fill="#84CD29" d="M245.75,254.723l-53.415,0.057c-1.637,0.002-2.965,1.331-2.964,2.966l0.033,29.628
					c0.001,1.635,1.332,2.961,2.97,2.959l53.413-0.057c1.64-0.002,2.966-1.33,2.965-2.966l-0.031-29.627
					C248.719,256.047,247.389,254.721,245.75,254.723z"/>
			</g>
			<path fill="#FFFFFF" d="M193.854,285.886l-0.006-5.925c3.277-0.003,5.937,2.646,5.939,5.919L193.854,285.886z"/>
			<path fill="#FFFFFF" d="M193.832,265.147l-0.007-5.926l5.934-0.006C199.763,262.489,197.109,265.144,193.832,265.147z"/>
			<path fill="#FFFFFF" d="M244.301,285.832l-5.938,0.007c-0.002-3.272,2.65-5.928,5.932-5.932L244.301,285.832z"/>
			<path fill="#FFFFFF" d="M244.279,265.094c-3.281,0.004-5.94-2.646-5.944-5.919l5.938-0.007L244.279,265.094z"/>
			<path fill="#FFFFFF" d="M219.071,282.896c-11.628,0.013-21.06-4.621-21.065-10.347c-0.006-5.727,9.416-10.38,21.043-10.393
				c11.632-0.012,21.064,4.621,21.07,10.348C240.127,278.233,230.699,282.884,219.071,282.896z"/>
		</g>
		<rect x="197.791" y="266.016" transform="matrix(1 -0.0011 0.0011 1 -0.302 0.2427)" fill="none" width="42.31" height="13.33"/>
		
			<text transform="matrix(1.0016 -0.0011 0.0011 1 214.8242 277.624)" fill="#84CD29" font-family="'DMSans-Bold'" font-size="15.2309">$</text>
	</g>
	<g>
		<g>
			<g>
				<path fill="#84CD29" d="M308.874,254.723l-53.415,0.057c-1.637,0.002-2.965,1.331-2.964,2.966l0.032,29.628
					c0.002,1.635,1.333,2.961,2.971,2.959l53.413-0.057c1.64-0.002,2.966-1.33,2.965-2.966l-0.031-29.627
					C311.842,256.047,310.512,254.721,308.874,254.723z"/>
			</g>
			<path fill="#FFFFFF" d="M256.978,285.886l-0.007-5.925c3.278-0.003,5.938,2.646,5.94,5.919L256.978,285.886z"/>
			<path fill="#FFFFFF" d="M256.955,265.147l-0.006-5.926l5.934-0.006C262.887,262.489,260.233,265.144,256.955,265.147z"/>
			<path fill="#FFFFFF" d="M307.425,285.832l-5.938,0.007c-0.003-3.272,2.65-5.928,5.932-5.932L307.425,285.832z"/>
			<path fill="#FFFFFF" d="M307.402,265.094c-3.28,0.004-5.939-2.646-5.943-5.919l5.938-0.007L307.402,265.094z"/>
			<path fill="#FFFFFF" d="M282.195,282.896c-11.628,0.013-21.06-4.621-21.065-10.347c-0.006-5.727,9.415-10.38,21.043-10.393
				c11.632-0.012,21.064,4.621,21.07,10.348C303.25,278.233,293.823,282.884,282.195,282.896z"/>
		</g>
		<rect x="260.914" y="266.016" transform="matrix(1 -0.0011 0.0011 1 -0.3019 0.3127)" fill="none" width="42.31" height="13.33"/>
		
			<text transform="matrix(1.0016 -0.0011 0.0011 1 277.9482 277.624)" fill="#84CD29" font-family="'DMSans-Bold'" font-size="15.2309">$</text>
	</g>
	<g>
		<g>
			<g>
				<path fill="#84CD29" d="M371.998,254.723l-53.415,0.057c-1.637,0.002-2.965,1.331-2.964,2.966l0.032,29.628
					c0.001,1.635,1.333,2.961,2.971,2.959l53.413-0.057c1.639-0.002,2.966-1.33,2.965-2.966l-0.031-29.627
					C374.966,256.047,373.636,254.721,371.998,254.723z"/>
			</g>
			<path fill="#FFFFFF" d="M320.102,285.886l-0.007-5.925c3.278-0.003,5.937,2.646,5.94,5.919L320.102,285.886z"/>
			<path fill="#FFFFFF" d="M320.079,265.147l-0.006-5.926l5.934-0.006C326.01,262.489,323.357,265.144,320.079,265.147z"/>
			<path fill="#FFFFFF" d="M370.549,285.832l-5.938,0.007c-0.003-3.272,2.65-5.928,5.932-5.932L370.549,285.832z"/>
			<path fill="#FFFFFF" d="M370.526,265.094c-3.28,0.004-5.94-2.646-5.943-5.919l5.938-0.007L370.526,265.094z"/>
			<path fill="#FFFFFF" d="M345.319,282.896c-11.628,0.013-21.06-4.621-21.065-10.347c-0.006-5.727,9.415-10.38,21.043-10.393
				c11.631-0.012,21.064,4.621,21.07,10.348C366.374,278.233,356.947,282.884,345.319,282.896z"/>
		</g>
		
			<rect x="324.038" y="266.016" transform="matrix(1 -0.0011 0.0011 1 -0.3019 0.3826)" fill="none" width="42.311" height="13.33"/>
		
			<text transform="matrix(1.0016 -0.0011 0.0011 1 341.0713 277.624)" fill="#84CD29" font-family="'DMSans-Bold'" font-size="15.2309">$</text>
	</g>
	<g>
		<g>
			<g>
				<g>
					<path fill="#84CD29" d="M119.503,99.21l-53.416,0.057c-1.637,0.002-2.965,1.331-2.963,2.966l0.032,29.628
						c0.001,1.635,1.333,2.961,2.97,2.959l53.414-0.057c1.639-0.002,2.965-1.33,2.964-2.966l-0.032-29.627
						C122.471,100.535,121.141,99.208,119.503,99.21z"/>
				</g>
				<path fill="#FFFFFF" d="M67.605,130.374l-0.006-5.925c3.277-0.003,5.937,2.646,5.939,5.919L67.605,130.374z"/>
				<path fill="#FFFFFF" d="M67.584,109.635l-0.007-5.926l5.934-0.006C73.515,106.976,70.861,109.631,67.584,109.635z"/>
				<path fill="#FFFFFF" d="M118.053,130.32l-5.937,0.007c-0.003-3.272,2.65-5.928,5.931-5.932L118.053,130.32z"/>
				<path fill="#FFFFFF" d="M118.031,109.582c-3.281,0.004-5.94-2.646-5.944-5.92l5.938-0.006L118.031,109.582z"/>
				<path fill="#FFFFFF" d="M92.824,127.384c-11.628,0.012-21.06-4.621-21.065-10.347c-0.006-5.727,9.416-10.38,21.043-10.392
					c11.631-0.013,21.064,4.62,21.07,10.347C113.879,122.721,104.452,127.372,92.824,127.384z"/>
			</g>
			
				<rect x="71.542" y="110.504" transform="matrix(1 -0.0011 0.0011 1 -0.1243 0.0985)" fill="none" width="42.311" height="13.328"/>
			
				<text transform="matrix(1.0016 -0.0011 0.0011 1 88.5771 122.1113)" fill="#84CD29" font-family="'DMSans-Bold'" font-size="15.2309">$</text>
		</g>
		<g>
			<g>
				<g>
					<path fill="#84CD29" d="M56.379,99.21L2.964,99.267c-1.637,0.002-2.965,1.331-2.964,2.966l0.032,29.628
						c0.001,1.635,1.333,2.961,2.971,2.959l53.413-0.057c1.639-0.002,2.966-1.33,2.964-2.966l-0.032-29.627
						C59.347,100.535,58.017,99.208,56.379,99.21z"/>
				</g>
				<path fill="#FFFFFF" d="M4.481,130.374l-0.006-5.925c3.278-0.003,5.937,2.646,5.939,5.919L4.481,130.374z"/>
				<path fill="#FFFFFF" d="M4.46,109.635l-0.006-5.926l5.934-0.006C10.391,106.976,7.738,109.631,4.46,109.635z"/>
				<path fill="#FFFFFF" d="M54.929,130.32l-5.937,0.007c-0.003-3.272,2.65-5.928,5.931-5.932L54.929,130.32z"/>
				<path fill="#FFFFFF" d="M54.907,109.582c-3.28,0.004-5.94-2.646-5.943-5.92l5.938-0.006L54.907,109.582z"/>
				<path fill="#FFFFFF" d="M29.7,127.384c-11.628,0.012-21.06-4.621-21.065-10.347c-0.006-5.727,9.416-10.38,21.043-10.392
					c11.631-0.013,21.064,4.62,21.07,10.347C50.755,122.721,41.328,127.372,29.7,127.384z"/>
			</g>
			
				<rect x="8.418" y="110.504" transform="matrix(1 -0.0011 0.0011 1 -0.1244 0.0315)" fill="none" width="42.311" height="13.328"/>
			
				<text transform="matrix(1.0016 -0.0011 0.0011 1 25.4531 122.1113)" fill="#84CD29" font-family="'DMSans-Bold'" font-size="15.2309">$</text>
			<g>
				<g>
					<g>
						<path fill="#84CD29" d="M56.379,138.088l-53.415,0.057c-1.637,0.002-2.965,1.331-2.964,2.966l0.032,29.628
							c0.001,1.636,1.333,2.961,2.971,2.959l53.413-0.057c1.639-0.002,2.966-1.33,2.964-2.966l-0.032-29.627
							C59.347,139.413,58.017,138.087,56.379,138.088z"/>
					</g>
					<path fill="#FFFFFF" d="M4.481,169.251l-0.006-5.924c3.278-0.004,5.937,2.646,5.939,5.918L4.481,169.251z"/>
					<path fill="#FFFFFF" d="M4.46,148.513l-0.006-5.926l5.934-0.006C10.391,145.855,7.738,148.509,4.46,148.513z"/>
					<path fill="#FFFFFF" d="M54.929,169.199l-5.937,0.006c-0.003-3.272,2.65-5.928,5.931-5.931L54.929,169.199z"/>
					<path fill="#FFFFFF" d="M54.907,148.459c-3.28,0.004-5.94-2.646-5.943-5.919l5.938-0.006L54.907,148.459z"/>
					<path fill="#FFFFFF" d="M29.7,166.262c-11.628,0.013-21.06-4.62-21.065-10.347c-0.006-5.727,9.416-10.38,21.043-10.392
						c11.631-0.013,21.064,4.62,21.07,10.347C50.755,161.599,41.328,166.25,29.7,166.262z"/>
				</g>
				
					<rect x="8.418" y="149.382" transform="matrix(1 -0.0011 0.0011 1 -0.1657 0.0315)" fill="none" width="42.311" height="13.329"/>
				
					<text transform="matrix(1.0016 -0.0011 0.0011 1 25.4531 160.9893)" fill="#84CD29" font-family="'DMSans-Bold'" font-size="15.2309">$</text>
			</g>
			<g>
				<g>
					<g>
						<path fill="#84CD29" d="M56.379,176.966l-53.415,0.057c-1.637,0.002-2.965,1.331-2.964,2.967l0.032,29.626
							c0.001,1.636,1.333,2.961,2.971,2.959l53.413-0.057c1.639-0.002,2.966-1.33,2.964-2.965l-0.032-29.627
							C59.347,178.292,58.017,176.965,56.379,176.966z"/>
					</g>
					<path fill="#FFFFFF" d="M4.481,208.13l-0.006-5.925c3.278-0.004,5.937,2.646,5.939,5.918L4.481,208.13z"/>
					<path fill="#FFFFFF" d="M4.46,187.391l-0.006-5.925l5.934-0.007C10.391,184.733,7.738,187.388,4.46,187.391z"/>
					<path fill="#FFFFFF" d="M54.929,208.076l-5.937,0.007c-0.003-3.273,2.65-5.928,5.931-5.932L54.929,208.076z"/>
					<path fill="#FFFFFF" d="M54.907,187.337c-3.28,0.004-5.94-2.646-5.943-5.919l5.938-0.006L54.907,187.337z"/>
					<path fill="#FFFFFF" d="M29.7,205.14c-11.628,0.013-21.06-4.62-21.065-10.347c-0.006-5.727,9.416-10.378,21.043-10.391
						c11.631-0.013,21.064,4.62,21.07,10.347C50.755,200.477,41.328,205.128,29.7,205.14z"/>
				</g>
				
					<rect x="8.418" y="188.261" transform="matrix(1 -0.0011 0.0011 1 -0.2069 0.0315)" fill="none" width="42.311" height="13.328"/>
				
					<text transform="matrix(1.0016 -0.0011 0.0011 1 25.4526 199.8672)" fill="#84CD29" font-family="'DMSans-Bold'" font-size="15.2309">$</text>
			</g>
			<g>
				<g>
					<g>
						<path fill="#84CD29" d="M56.379,215.845l-53.415,0.057c-1.637,0.002-2.965,1.33-2.964,2.966l0.032,29.628
							c0.001,1.635,1.333,2.96,2.971,2.959l53.413-0.057c1.639-0.002,2.966-1.33,2.964-2.966l-0.032-29.628
							C59.347,217.169,58.017,215.843,56.379,215.845z"/>
					</g>
					<path fill="#FFFFFF" d="M4.481,247.008l-0.006-5.925c3.278-0.004,5.937,2.646,5.939,5.918L4.481,247.008z"/>
					<path fill="#FFFFFF" d="M4.46,226.269l-0.006-5.925l5.934-0.007C10.391,223.61,7.738,226.266,4.46,226.269z"/>
					<path fill="#FFFFFF" d="M54.929,246.954l-5.937,0.007c-0.003-3.273,2.65-5.928,5.931-5.932L54.929,246.954z"/>
					<path fill="#FFFFFF" d="M54.907,226.216c-3.28,0.003-5.94-2.646-5.943-5.92l5.938-0.006L54.907,226.216z"/>
					<path fill="#FFFFFF" d="M29.7,244.019c-11.628,0.012-21.06-4.621-21.065-10.347c-0.006-5.728,9.416-10.38,21.043-10.393
						c11.631-0.013,21.064,4.621,21.07,10.348C50.755,239.354,41.328,244.006,29.7,244.019z"/>
				</g>
				
					<rect x="8.418" y="227.138" transform="matrix(1 -0.0011 0.0011 1 -0.2482 0.0315)" fill="none" width="42.311" height="13.33"/>
				
					<text transform="matrix(1.0016 -0.0011 0.0011 1 25.4526 238.7461)" fill="#84CD29" font-family="'DMSans-Bold'" font-size="15.2309">$</text>
			</g>
			<g>
				<g>
					<g>
						<path fill="#84CD29" d="M56.379,254.723l-53.415,0.057c-1.637,0.002-2.965,1.331-2.964,2.966l0.032,29.628
							c0.001,1.635,1.333,2.961,2.971,2.959l53.413-0.057c1.639-0.002,2.966-1.33,2.964-2.966l-0.032-29.627
							C59.347,256.047,58.017,254.721,56.379,254.723z"/>
					</g>
					<path fill="#FFFFFF" d="M4.481,285.886l-0.006-5.925c3.278-0.003,5.937,2.646,5.939,5.919L4.481,285.886z"/>
					<path fill="#FFFFFF" d="M4.46,265.147l-0.006-5.926l5.934-0.006C10.391,262.489,7.738,265.144,4.46,265.147z"/>
					<path fill="#FFFFFF" d="M54.929,285.832l-5.937,0.007c-0.003-3.272,2.65-5.928,5.931-5.932L54.929,285.832z"/>
					<path fill="#FFFFFF" d="M54.907,265.094c-3.28,0.004-5.94-2.646-5.943-5.919l5.938-0.007L54.907,265.094z"/>
					<path fill="#FFFFFF" d="M29.7,282.896c-11.628,0.013-21.06-4.621-21.065-10.347c-0.006-5.727,9.416-10.38,21.043-10.393
						c11.631-0.012,21.064,4.621,21.07,10.348C50.755,278.233,41.328,282.884,29.7,282.896z"/>
				</g>
				
					<rect x="8.418" y="266.016" transform="matrix(1 -0.0011 0.0011 1 -0.3021 0.0329)" fill="none" width="42.311" height="13.33"/>
				
					<text transform="matrix(1.0016 -0.0011 0.0011 1 25.4526 277.624)" fill="#84CD29" font-family="'DMSans-Bold'" font-size="15.2309">$</text>
			</g>
			<g>
				<g>
					<g>
						<path fill="#84CD29" d="M56.379,293.601l-53.415,0.057c-1.637,0.002-2.965,1.331-2.964,2.967l0.032,29.627
							c0.001,1.635,1.333,2.961,2.971,2.959l53.413-0.057c1.639-0.002,2.966-1.33,2.964-2.966l-0.032-29.627
							C59.347,294.925,58.017,293.6,56.379,293.601z"/>
					</g>
					<path fill="#FFFFFF" d="M4.481,324.765l-0.006-5.925c3.278-0.004,5.937,2.646,5.939,5.918L4.481,324.765z"/>
					<path fill="#FFFFFF" d="M4.46,304.025L4.454,298.1l5.934-0.006C10.391,301.367,7.738,304.022,4.46,304.025z"/>
					<path fill="#FFFFFF" d="M54.929,324.711l-5.937,0.007c-0.003-3.273,2.65-5.929,5.931-5.932L54.929,324.711z"/>
					<path fill="#FFFFFF" d="M54.907,303.972c-3.28,0.004-5.94-2.646-5.943-5.919l5.938-0.006L54.907,303.972z"/>
					<path fill="#FFFFFF" d="M29.7,321.774c-11.628,0.013-21.06-4.621-21.065-10.347c-0.006-5.727,9.416-10.38,21.043-10.392
						c11.631-0.013,21.064,4.62,21.07,10.347C50.755,317.111,41.328,321.763,29.7,321.774z"/>
				</g>
				
					<rect x="8.418" y="304.896" transform="matrix(1 -0.0011 0.0011 1 -0.3308 0.0316)" fill="none" width="42.311" height="13.328"/>
				
					<text transform="matrix(1.0016 -0.0011 0.0011 1 25.4521 316.502)" fill="#84CD29" font-family="'DMSans-Bold'" font-size="15.2309">$</text>
			</g>
		</g>
	</g>
	<g>
		<g>
			<g>
				<path fill="#84CD29" d="M119.503,293.601l-53.416,0.057c-1.637,0.002-2.965,1.331-2.963,2.967l0.032,29.627
					c0.001,1.635,1.333,2.961,2.97,2.959l53.414-0.057c1.639-0.002,2.965-1.33,2.964-2.966l-0.032-29.627
					C122.471,294.925,121.141,293.6,119.503,293.601z"/>
			</g>
			<path fill="#FFFFFF" d="M67.605,324.765L67.6,318.84c3.277-0.004,5.937,2.646,5.939,5.918L67.605,324.765z"/>
			<path fill="#FFFFFF" d="M67.584,304.025l-0.007-5.926l5.934-0.006C73.515,301.367,70.861,304.022,67.584,304.025z"/>
			<path fill="#FFFFFF" d="M118.053,324.711l-5.937,0.007c-0.003-3.273,2.65-5.929,5.931-5.932L118.053,324.711z"/>
			<path fill="#FFFFFF" d="M118.031,303.972c-3.281,0.004-5.94-2.646-5.944-5.919l5.938-0.006L118.031,303.972z"/>
			<path fill="#FFFFFF" d="M92.824,321.774c-11.628,0.013-21.06-4.621-21.065-10.347c-0.006-5.727,9.416-10.38,21.043-10.392
				c11.631-0.013,21.064,4.62,21.07,10.347C113.879,317.111,104.452,321.763,92.824,321.774z"/>
		</g>
		
			<rect x="71.542" y="304.896" transform="matrix(1 -0.0011 0.0011 1 -0.3307 0.0986)" fill="none" width="42.311" height="13.328"/>
		
			<text transform="matrix(1.0016 -0.0011 0.0011 1 88.5762 316.502)" fill="#84CD29" font-family="'DMSans-Bold'" font-size="15.2309">$</text>
	</g>
	<g>
		<g>
			<g>
				<path fill="#84CD29" d="M182.627,293.601l-53.416,0.057c-1.637,0.002-2.965,1.331-2.963,2.967l0.032,29.627
					c0.001,1.635,1.333,2.961,2.971,2.959l53.414-0.057c1.639-0.002,2.965-1.33,2.964-2.966l-0.031-29.627
					C185.595,294.925,184.265,293.6,182.627,293.601z"/>
			</g>
			<path fill="#FFFFFF" d="M130.729,324.765l-0.006-5.925c3.277-0.004,5.937,2.646,5.939,5.918L130.729,324.765z"/>
			<path fill="#FFFFFF" d="M130.708,304.025l-0.007-5.926l5.934-0.006C136.639,301.367,133.985,304.022,130.708,304.025z"/>
			<path fill="#FFFFFF" d="M181.177,324.711l-5.937,0.007c-0.003-3.273,2.65-5.929,5.931-5.932L181.177,324.711z"/>
			<path fill="#FFFFFF" d="M181.155,303.972c-3.281,0.004-5.94-2.646-5.944-5.919l5.938-0.006L181.155,303.972z"/>
			<path fill="#FFFFFF" d="M155.947,321.774c-11.628,0.013-21.06-4.621-21.065-10.347c-0.006-5.727,9.416-10.38,21.044-10.392
				c11.631-0.013,21.064,4.62,21.07,10.347C177.003,317.111,167.576,321.763,155.947,321.774z"/>
		</g>
		
			<rect x="134.666" y="304.896" transform="matrix(1 -0.0011 0.0011 1 -0.3307 0.1656)" fill="none" width="42.311" height="13.328"/>
		
			<text transform="matrix(1.0016 -0.0011 0.0011 1 151.7002 316.502)" fill="#84CD29" font-family="'DMSans-Bold'" font-size="15.2309">$</text>
	</g>
	<g>
		<g>
			<g>
				<path fill="#84CD29" d="M245.75,293.601l-53.415,0.057c-1.637,0.002-2.965,1.331-2.964,2.967l0.033,29.627
					c0.001,1.635,1.332,2.961,2.97,2.959l53.413-0.057c1.64-0.002,2.966-1.33,2.965-2.966l-0.031-29.627
					C248.719,294.925,247.389,293.6,245.75,293.601z"/>
			</g>
			<path fill="#FFFFFF" d="M193.854,324.765l-0.006-5.925c3.277-0.004,5.937,2.646,5.939,5.918L193.854,324.765z"/>
			<path fill="#FFFFFF" d="M193.832,304.025l-0.007-5.926l5.934-0.006C199.763,301.367,197.109,304.022,193.832,304.025z"/>
			<path fill="#FFFFFF" d="M244.301,324.711l-5.938,0.007c-0.002-3.273,2.65-5.929,5.932-5.932L244.301,324.711z"/>
			<path fill="#FFFFFF" d="M244.279,303.972c-3.281,0.004-5.94-2.646-5.944-5.919l5.938-0.006L244.279,303.972z"/>
			<path fill="#FFFFFF" d="M219.071,321.774c-11.628,0.013-21.06-4.621-21.065-10.347c-0.006-5.727,9.416-10.38,21.043-10.392
				c11.632-0.013,21.064,4.62,21.07,10.347C240.127,317.111,230.699,321.763,219.071,321.774z"/>
		</g>
		
			<rect x="197.791" y="304.896" transform="matrix(1 -0.0011 0.0011 1 -0.3307 0.2326)" fill="none" width="42.31" height="13.328"/>
		
			<text transform="matrix(1.0016 -0.0011 0.0011 1 214.8242 316.502)" fill="#84CD29" font-family="'DMSans-Bold'" font-size="15.2309">$</text>
	</g>
	<g>
		<g>
			<g>
				<path fill="#84CD29" d="M308.874,293.601l-53.415,0.057c-1.637,0.002-2.965,1.331-2.964,2.967l0.032,29.627
					c0.002,1.635,1.333,2.961,2.971,2.959l53.413-0.057c1.64-0.002,2.966-1.33,2.965-2.966l-0.031-29.627
					C311.842,294.925,310.512,293.6,308.874,293.601z"/>
			</g>
			<path fill="#FFFFFF" d="M256.978,324.765l-0.007-5.925c3.278-0.004,5.938,2.646,5.94,5.918L256.978,324.765z"/>
			<path fill="#FFFFFF" d="M256.955,304.025l-0.006-5.926l5.934-0.006C262.887,301.367,260.233,304.022,256.955,304.025z"/>
			<path fill="#FFFFFF" d="M307.425,324.711l-5.938,0.007c-0.003-3.273,2.65-5.929,5.932-5.932L307.425,324.711z"/>
			<path fill="#FFFFFF" d="M307.402,303.972c-3.28,0.004-5.939-2.646-5.943-5.919l5.938-0.006L307.402,303.972z"/>
			<path fill="#FFFFFF" d="M282.195,321.774c-11.628,0.013-21.06-4.621-21.065-10.347c-0.006-5.727,9.415-10.38,21.043-10.392
				c11.632-0.013,21.064,4.62,21.07,10.347C303.25,317.111,293.823,321.763,282.195,321.774z"/>
		</g>
		
			<rect x="260.914" y="304.896" transform="matrix(1 -0.0011 0.0011 1 -0.3307 0.2997)" fill="none" width="42.31" height="13.328"/>
		
			<text transform="matrix(1.0016 -0.0011 0.0011 1 277.9473 316.502)" fill="#84CD29" font-family="'DMSans-Bold'" font-size="15.2309">$</text>
	</g>
	<g>
		<g>
			<g>
				<path fill="#84CD29" d="M371.998,293.601l-53.415,0.057c-1.637,0.002-2.965,1.331-2.964,2.967l0.032,29.627
					c0.001,1.635,1.333,2.961,2.971,2.959l53.413-0.057c1.639-0.002,2.966-1.33,2.965-2.966l-0.031-29.627
					C374.966,294.925,373.636,293.6,371.998,293.601z"/>
			</g>
			<path fill="#FFFFFF" d="M320.102,324.765l-0.007-5.925c3.278-0.004,5.937,2.646,5.94,5.918L320.102,324.765z"/>
			<path fill="#FFFFFF" d="M320.079,304.025l-0.006-5.926l5.934-0.006C326.01,301.367,323.357,304.022,320.079,304.025z"/>
			<path fill="#FFFFFF" d="M370.549,324.711l-5.938,0.007c-0.003-3.273,2.65-5.929,5.932-5.932L370.549,324.711z"/>
			<path fill="#FFFFFF" d="M370.526,303.972c-3.28,0.004-5.94-2.646-5.943-5.919l5.938-0.006L370.526,303.972z"/>
			<path fill="#FFFFFF" d="M345.319,321.774c-11.628,0.013-21.06-4.621-21.065-10.347c-0.006-5.727,9.415-10.38,21.043-10.392
				c11.631-0.013,21.064,4.62,21.07,10.347C366.374,317.111,356.947,321.763,345.319,321.774z"/>
		</g>
		
			<rect x="324.038" y="304.896" transform="matrix(1 -0.0011 0.0011 1 -0.3306 0.3666)" fill="none" width="42.311" height="13.328"/>
		
			<text transform="matrix(1.0016 -0.0011 0.0011 1 341.0713 316.502)" fill="#84CD29" font-family="'DMSans-Bold'" font-size="15.2309">$</text>
	</g>
</g>
</svg>
