<?xml version="1.0" encoding="utf-8"?>
<!-- Generator: Adobe Illustrator 16.0.4, SVG Export Plug-In . SVG Version: 6.00 Build 0)  -->
<!DOCTYPE svg PUBLIC "-//W3C//DTD SVG 1.1//EN" "http://www.w3.org/Graphics/SVG/1.1/DTD/svg11.dtd">
<svg version="1.1" id="Layer_1" xmlns="http://www.w3.org/2000/svg" xmlns:xlink="http://www.w3.org/1999/xlink" x="0px" y="0px"
	 width="375px" height="375px" viewBox="0 0 375 375" enable-background="new 0 0 375 375" xml:space="preserve">
<ellipse opacity="0.3" fill="#232323" enable-background="new    " cx="221.752" cy="266.836" rx="69.169" ry="11.164"/>
<g>
	<path fill="#EA651B" d="M155.675,236.753c5.529,6.822,12.213,12.907,19.997,17.932c39.506,25.503,92.206,14.153,117.708-25.354
		c13.607-21.075,16.72-45.906,10.67-68.359c-2.048,14.052-7.071,27.899-15.276,40.612
		C259.892,246.322,201.949,260.964,155.675,236.753z"/>
	<path fill="#FF7E1C" d="M150.318,136.974c-20.479,31.726-17.191,71.95,5.356,99.779c46.274,24.211,104.217,9.569,133.099-35.167
		c8.206-12.713,13.228-26.562,15.276-40.614c-5.292-19.636-17.592-37.452-36.021-49.352
		C228.521,86.117,175.823,97.47,150.318,136.974z"/>
</g>
<g>
	<g>
		<g>
			<path fill="#FFFFFF" d="M247.719,184.066c1.904,2.379,2.665,5.657,2.285,9.845c-0.571,5.046-2.666,8.719-6.284,11.003
				c-3.139,1.903-7.861,3.044-14.142,3.427v9.71h-6.99v-9.574h-5.425v9.574h-7.004v-9.71h-13.847l1.427-8.282h1.428
				c2.285,0.096,3.751,0.04,4.421-0.15c0.95-0.286,1.521-0.991,1.713-2.135v-30.992c-0.287-1.524-1.089-2.475-2.422-2.857
				c-0.857-0.285-2.666-0.379-5.425-0.285h-1.143v-7.424l4.285,0.149c5.043,0,8.227-0.054,9.56-0.149V144.94h7.004v11.139
				l5.424-0.148v-10.99h6.989v11.275c4.856,0.473,8.568,1.524,11.14,3.141c3.14,1.904,4.854,4.758,5.14,8.567
				c0.57,5.521-1.373,9.423-5.848,11.708l0,0C243.529,180.393,246.1,181.876,247.719,184.066L247.719,184.066z M217.297,177.918
				h1.142c3.999,0.097,7.098-0.139,9.289-0.707c3.807-0.952,5.711-3.006,5.711-6.146s-1.86-5.236-5.574-6.283
				c-2.095-0.571-5.182-0.803-9.276-0.707c-0.667,0.095-1.101,0.137-1.292,0.137V177.918L217.297,177.918z M218.588,200.059
				c4.856,0.096,8.513-0.15,10.987-0.721c4.475-1.143,6.719-3.427,6.719-6.854c0-3.43-2.191-5.712-6.568-6.854
				c-2.38-0.668-5.999-0.899-10.854-0.708h-1.579v15.137H218.588z"/>
		</g>
	</g>
</g>
<ellipse opacity="0.3" fill="#232323" enable-background="new    " cx="106.813" cy="269.578" rx="26.913" ry="4.344"/>
<path fill="#232323" d="M87.318,238.785c0.109,0.879,3.021,25.729,7.254,29.212c4.232,3.481,6.456,2.31,7.314,1.386
	c0.901-0.972,2.038-2.713-0.069-4.68c-1.695-1.58-2.885-8.582-1.195-19.508L87.318,238.785z"/>
<path fill="#232323" d="M103.481,237.234c0.111,0.879,3.021,25.729,7.253,29.213c4.235,3.482,6.458,2.311,7.316,1.385
	c0.901-0.971,2.039-2.713-0.069-4.677c-1.694-1.582-2.887-8.583-1.195-19.51L103.481,237.234z"/>
<path fill="#232323" d="M113.876,203.899c-1.936-0.21-3.76,0.949-4.028,3.066c-0.272,2.104,1.748,4.597,4.448,4.908
	c7.681,0.89,14.842-1.998,19.755-7.968c1.729-2.097,1.456-5.295-0.197-6.62c-1.662-1.339-3.782-0.909-5.031,0.586
	C125.104,202.386,119.688,204.572,113.876,203.899z"/>
<path fill="#FFFFFF" d="M90.705,201.25c4.893-2.714,11.092-4.172,22.538-4.619c-2.729-1.154-6.34-1.692-11.625-1.692h-0.008
	c-9.046,0-13.229,1.543-16.379,5.128c-3.717,4.233-5.595,16.337-5.972,25.757C79.861,216.979,83.45,205.282,90.705,201.25z"/>
<path fill="#444444" d="M79.26,225.824c-0.088,1.301-0.108,2.535-0.071,3.678C79.187,228.344,79.21,227.109,79.26,225.824z"/>
<path fill="#444444" d="M71.345,241.004c-1.291,0.918-2.961,1.236-3.841,0.45c-0.877-0.777-0.612-2.759,0.824-4.185
	c3.887-3.873,8.99-6.481,14.61-7.318c2.094-0.306,3.612,1.461,3.356,3.599c-0.252,2.148-1.561,3.683-2.997,3.666
	C79.188,237.151,74.968,238.406,71.345,241.004z"/>
<path fill="#FFFFFF" d="M87.5,183.666c-1.453-8.044,4.201-12.746,18.207-13.585c4.445-0.267,8.553-5.486,11.764-6.442
	c9.237-2.748,11.43,3.271,11.43,3.271l0.019,0.001c-4.548-10.405-17.529-16.494-31.295-13.948
	c-15.624,2.893-26.333,15.812-23.919,28.855c2.414,13.047,17.036,21.279,32.659,18.389c1.361-0.253,2.683-0.585,3.964-0.983
	l-0.001-0.016C96.744,202.709,89.429,194.343,87.5,183.666z"/>
<path fill="#444444" d="M130.286,171.351c-0.286-1.554-0.752-3.035-1.365-4.44l-0.019-0.001c0,0-2.194-6.019-11.431-3.271
	c-3.211,0.956-7.318,6.176-11.764,6.442c-14.005,0.84-19.659,5.541-18.207,13.585c1.931,10.677,9.245,19.043,22.828,15.541
	l0.002,0.016C123.754,195.058,132.489,183.258,130.286,171.351z"/>
<path fill="#7F7F7F" d="M115.741,193.924c-2.975,0.672-9.305-0.83-9.329-7.256c-0.027-6.424,6.941-8.507,9.288-9.034
	c2.347-0.529,9.326-1.593,9.35,4.831C125.075,188.891,118.719,193.253,115.741,193.924z"/>
<path fill="#232323" d="M115.848,179.288c1.293-0.292,3.211,0.709,3.444,2.33c0.23,1.622-3.51,2.405-3.51,2.405l-0.108,0.024
	c0,0-3.741,0.904-3.523-0.819c0.218-1.723,2.125-3.586,3.417-3.878L115.848,179.288z"/>
<path fill="none" stroke="#232323" stroke-width="0.8403" stroke-linecap="round" stroke-miterlimit="10" d="M120.308,186.317
	c-0.248,0.688-0.609,1.337-1.055,1.913c-0.449,0.58-0.979,1.082-1.571,1.482c-0.594,0.403-1.244,0.696-1.93,0.85
	c-0.683,0.155-1.336,0.155-1.929,0.023c-0.594-0.136-1.131-0.398-1.582-0.773c-0.451-0.374-0.814-0.861-1.069-1.432"/>
<circle fill="#232323" cx="103.186" cy="178.203" r="1.179"/>
<circle fill="#232323" cx="121.392" cy="171.76" r="1.179"/>
<path fill="#444444" d="M91.79,185.052c0.903,4.547,0.189,8.521-1.594,8.875c-1.783,0.351-3.957-3.048-4.858-7.592
	c-0.903-4.549-0.187-8.521,1.592-8.872C88.712,177.106,90.888,180.508,91.79,185.052z"/>
<path fill="#232323" d="M88.854,180.354c-1.467,0.302-2.198,3.281-1.999,7.289c-0.135-0.486-0.256-0.994-0.36-1.526
	c-0.689-3.574-0.306-6.665,0.854-6.904c0.493-0.102,1.049,0.334,1.577,1.138C88.901,180.354,88.876,180.35,88.854,180.354z"/>
<path fill="none" stroke="#7F7F7F" stroke-width="0.9276" stroke-linecap="round" stroke-miterlimit="10" d="M99.566,178.939
	c-0.036-0.414,0.01-0.828,0.13-1.218c0.12-0.392,0.314-0.757,0.578-1.081c0.26-0.32,0.589-0.597,0.98-0.804
	c0.389-0.206,0.804-0.325,1.216-0.361"/>
<path fill="none" stroke="#7F7F7F" stroke-width="0.9276" stroke-linecap="round" stroke-miterlimit="10" d="M120.061,168.927
	c0.362-0.201,0.76-0.33,1.165-0.381c0.406-0.051,0.821-0.024,1.223,0.083c0.4,0.105,0.785,0.293,1.134,0.564
	c0.35,0.271,0.625,0.6,0.828,0.963"/>
<path fill="#444444" d="M117.996,200.068c-1.148-1.308-2.439-2.343-4.052-3.133c-0.224-0.107-0.464-0.205-0.7-0.305
	c-1.844,0.072-3.538,0.174-5.127,0.299c-3.896,0.138-6.948,0.574-9.426,1.351c-3.194,0.74-5.732,1.72-7.985,2.973
	c-7.254,4.029-10.845,15.727-11.445,24.573c-0.05,1.284-0.074,2.519-0.071,3.678c0.011,2.992,0.2,5.476,0.559,6.979
	c0.388,1.625,1.942,3.011,4.384,4.106c3.894,1.743,10.059,2.739,17.479,2.739h0.008c0.694,0,1.377-0.011,2.05-0.028
	c0.208-0.005,0.411-0.016,0.616-0.021c0.467-0.019,0.927-0.035,1.381-0.061c0.227-0.012,0.451-0.025,0.673-0.039
	c0.44-0.027,0.874-0.061,1.301-0.094c0.2-0.019,0.404-0.031,0.603-0.053c0.521-0.045,1.028-0.1,1.528-0.159
	c0.086-0.013,0.178-0.02,0.265-0.03c0.59-0.072,1.161-0.154,1.72-0.244c0.137-0.021,0.265-0.046,0.398-0.068
	c0.417-0.07,0.826-0.144,1.225-0.224c0.168-0.033,0.332-0.067,0.496-0.103c0.36-0.078,0.711-0.156,1.053-0.239
	c0.156-0.039,0.313-0.077,0.467-0.114c0.37-0.099,0.728-0.197,1.077-0.305c0.082-0.023,0.169-0.045,0.25-0.07
	c-0.005,0-0.006,0-0.011,0c2.39-0.74,4.244-1.683,5.417-2.803c0.013-0.011,0.021-0.025,0.032-0.035
	c0.22-0.212,0.419-0.43,0.589-0.654c0.067-0.087,0.108-0.183,0.167-0.27c0.101-0.153,0.208-0.306,0.285-0.462
	c0.124-0.252,0.216-0.508,0.28-0.771C124.996,230.136,123.533,206.369,117.996,200.068z"/>
<ellipse fill="#444444" cx="101.694" cy="233.657" rx="22.218" ry="17.507"/>
<g>
	<path fill="#232323" d="M93.294,206.159c-1.247-1.497-3.364-1.929-5.028-0.595c-1.658,1.324-1.937,4.52-0.21,6.62
		c4.904,5.975,12.06,8.879,19.742,8.001c2.699-0.308,4.726-2.795,4.458-4.896c-0.267-2.117-2.088-3.283-4.026-3.077
		C102.419,212.876,97.006,210.682,93.294,206.159z"/>
	<path fill="#232323" d="M114.197,213.811c0.519-0.097,0.978-0.424,0.994-0.812c0.017-0.391-0.518-0.783-1.189-0.768
		c-1.82,0.033-3.619,0.65-5.115,1.799c-0.553,0.43-0.483,1.199,0.086,1.633c0.57,0.436,1.239,0.475,1.565,0.129
		C111.472,214.794,112.743,214.075,114.197,213.811z"/>
	<path fill="#232323" d="M114.809,216.795c0.524,0.05,1.056-0.135,1.178-0.505c0.125-0.371-0.28-0.896-0.928-1.067
		c-1.757-0.473-3.657-0.378-5.412,0.31c-0.652,0.258-0.797,1.018-0.369,1.59c0.426,0.577,1.057,0.801,1.469,0.559
		C111.916,216.982,113.338,216.646,114.809,216.795z"/>
	<path fill="#232323" d="M113.861,219.759c0.442,0.284,1,0.362,1.279,0.086c0.277-0.272,0.157-0.922-0.343-1.374
		c-1.349-1.22-3.084-2.001-4.958-2.187c-0.698-0.067-1.174,0.542-1.055,1.248c0.119,0.706,0.578,1.195,1.054,1.164
		C111.198,218.607,112.618,218.956,113.861,219.759z"/>
</g>
<path fill="#232323" d="M104.143,266.963c0.53,0.15,1.116,0.061,1.313-0.298c0.197-0.357-0.119-0.978-0.756-1.279
	c-1.727-0.823-3.705-1.089-5.648-0.711c-0.724,0.143-1.019,0.9-0.687,1.572c0.333,0.677,0.94,1.029,1.41,0.858
	C101.12,266.606,102.652,266.528,104.143,266.963z"/>
<path fill="#232323" d="M103.316,270.054c0.468,0.293,1.053,0.368,1.344,0.079c0.291-0.289,0.157-0.971-0.371-1.44
	c-1.43-1.268-3.257-2.071-5.23-2.25c-0.734-0.062-1.227,0.583-1.095,1.321c0.132,0.741,0.617,1.251,1.117,1.216
	C100.509,268.873,102.002,269.223,103.316,270.054z"/>
<path fill="#232323" d="M101.032,272.392c0.282,0.473,0.771,0.81,1.161,0.684c0.389-0.125,0.583-0.795,0.325-1.452
	c-0.695-1.779-1.958-3.326-3.634-4.381c-0.625-0.395-1.358-0.045-1.577,0.675c-0.22,0.722-0.02,1.396,0.443,1.59
	C99.072,270.062,100.241,271.055,101.032,272.392z"/>
<path fill="#232323" d="M121.036,265.125c0.529,0.151,1.116,0.062,1.313-0.297s-0.119-0.979-0.756-1.281
	c-1.728-0.821-3.706-1.086-5.648-0.709c-0.724,0.142-1.018,0.899-0.687,1.571c0.332,0.677,0.94,1.028,1.41,0.859
	C118.013,264.769,119.545,264.689,121.036,265.125z"/>
<path fill="#232323" d="M120.209,268.217c0.467,0.293,1.053,0.369,1.342,0.078c0.292-0.288,0.159-0.972-0.369-1.438
	c-1.431-1.27-3.259-2.073-5.232-2.25c-0.733-0.064-1.227,0.583-1.093,1.319c0.131,0.741,0.617,1.251,1.117,1.214
	C117.402,267.033,118.896,267.385,120.209,268.217z"/>
<path fill="#232323" d="M117.925,270.555c0.283,0.475,0.771,0.811,1.162,0.682c0.388-0.124,0.582-0.793,0.324-1.45
	c-0.695-1.779-1.958-3.328-3.634-4.383c-0.624-0.393-1.357-0.041-1.574,0.677c-0.222,0.72-0.021,1.394,0.439,1.59
	C115.966,268.227,117.135,269.219,117.925,270.555z"/>
<path fill="#232323" d="M134.22,194.924c0.336-0.449,0.462-1.036,0.192-1.356c-0.269-0.314-0.972-0.238-1.488,0.258
	c-1.402,1.345-2.366,3.131-2.708,5.113c-0.125,0.74,0.489,1.291,1.248,1.216c0.763-0.071,1.316-0.521,1.321-1.031
	C132.795,197.671,133.272,196.188,134.22,194.924z"/>
<path fill="#232323" d="M136.861,196.824c0.448-0.34,0.731-0.869,0.56-1.251c-0.17-0.381-0.867-0.497-1.502-0.164
	c-1.721,0.9-3.141,2.351-4.021,4.16c-0.324,0.675,0.113,1.375,0.861,1.517c0.752,0.14,1.411-0.139,1.556-0.627
	C134.728,199.064,135.6,197.773,136.861,196.824z"/>
<path fill="#232323" d="M138.263,199.833c0.551-0.097,1.045-0.438,1.065-0.856c0.021-0.415-0.544-0.839-1.262-0.831
	c-1.942,0.021-3.866,0.661-5.473,1.875c-0.595,0.451-0.527,1.272,0.078,1.74c0.604,0.471,1.318,0.521,1.669,0.153
	C135.344,200.859,136.706,200.105,138.263,199.833z"/>
<line fill="none" stroke="#231F20" stroke-width="4.0565" stroke-linecap="round" stroke-linejoin="round" stroke-miterlimit="10" x1="135.567" y1="198.584" x2="138.052" y2="185.744"/>
<circle fill="#FF7E1C" cx="140.638" cy="178.131" r="11.447"/>
<circle fill="none" stroke="#231F20" stroke-width="2.7044" stroke-linecap="round" stroke-linejoin="round" stroke-miterlimit="10" cx="140.638" cy="178.131" r="11.447"/>
<g opacity="0.5">
	<path fill="#FFFFFF" d="M143.229,179.332c0,0.744-0.61,1.353-1.352,1.353h-2.848c-0.744,0-1.353-0.609-1.353-1.353v-2.85
		c0-0.744,0.61-1.352,1.353-1.352h2.848c0.744,0,1.352,0.609,1.352,1.352V179.332z"/>
</g>
</svg>
