<?xml version="1.0" encoding="utf-8"?>
<!-- Generator: Adobe Illustrator 16.0.4, SVG Export Plug-In . SVG Version: 6.00 Build 0)  -->
<!DOCTYPE svg PUBLIC "-//W3C//DTD SVG 1.1//EN" "http://www.w3.org/Graphics/SVG/1.1/DTD/svg11.dtd">
<svg version="1.1" id="Layer_1" xmlns="http://www.w3.org/2000/svg" xmlns:xlink="http://www.w3.org/1999/xlink" x="0px" y="0px"
	 width="300px" height="225px" viewBox="0 0 300 225" enable-background="new 0 0 300 225" xml:space="preserve">
<ellipse opacity="0.3" fill="#232323" enable-background="new    " cx="177.802" cy="175.569" rx="55.335" ry="8.931"/>
<g>
	<path fill="#EA651B" d="M124.94,151.502c4.423,5.458,9.771,10.326,15.998,14.347c31.604,20.401,73.765,11.321,94.166-20.284
		c10.886-16.859,13.376-36.725,8.536-54.687c-1.638,11.241-5.657,22.32-12.221,32.49
		C208.314,159.158,161.959,170.871,124.94,151.502z"/>
	<path fill="#FF7E1C" d="M120.654,71.679c-16.383,25.381-13.753,57.561,4.285,79.823c37.02,19.369,83.374,7.656,106.48-28.133
		c6.563-10.171,10.582-21.25,12.22-32.492c-4.233-15.708-14.073-29.962-28.816-39.481C183.217,30.994,141.059,40.076,120.654,71.679
		z"/>
</g>
<g>
	<g>
		<g>
			<path fill="#FFFFFF" d="M198.575,109.353c1.523,1.903,2.132,4.525,1.828,7.875c-0.456,4.037-2.133,6.976-5.026,8.803
				c-2.512,1.521-6.289,2.436-11.314,2.741v7.769h-5.592v-7.66h-4.34v7.66h-5.604v-7.769H157.45l1.141-6.626h1.143
				c1.828,0.077,3.001,0.033,3.537-0.119c0.76-0.229,1.217-0.793,1.37-1.709V95.526c-0.229-1.22-0.871-1.98-1.938-2.286
				c-0.686-0.228-2.133-0.303-4.34-0.228h-0.915v-5.939l3.429,0.12c4.034,0,6.582-0.044,7.648-0.12v-9.021h5.603v8.912l4.339-0.119
				v-8.792h5.591v9.021c3.886,0.378,6.854,1.219,8.913,2.512c2.512,1.523,3.883,3.807,4.112,6.854
				c0.455,4.417-1.099,7.539-4.679,9.367l0,0C195.224,106.414,197.279,107.601,198.575,109.353L198.575,109.353z M174.237,104.435
				h0.914c3.198,0.077,5.679-0.112,7.432-0.566c3.045-0.762,4.568-2.405,4.568-4.917c0-2.512-1.488-4.188-4.459-5.026
				c-1.677-0.457-4.146-0.643-7.421-0.565c-0.534,0.076-0.881,0.109-1.034,0.109V104.435L174.237,104.435z M175.271,122.146
				c3.884,0.077,6.811-0.119,8.79-0.576c3.579-0.914,5.375-2.741,5.375-5.482c0-2.744-1.753-4.571-5.254-5.484
				c-1.905-0.535-4.801-0.72-8.684-0.566h-1.264v12.109H175.271z"/>
		</g>
	</g>
</g>
<ellipse opacity="0.3" fill="#232323" enable-background="new    " cx="85.851" cy="177.762" rx="21.53" ry="3.475"/>
<path fill="#232323" d="M70.254,153.128c0.087,0.703,2.417,20.583,5.803,23.37c3.386,2.785,5.165,1.848,5.852,1.108
	c0.721-0.777,1.63-2.171-0.055-3.744c-1.356-1.264-2.308-6.865-0.956-15.606L70.254,153.128z"/>
<path fill="#232323" d="M83.185,151.888c0.089,0.703,2.417,20.583,5.803,23.37c3.388,2.786,5.166,1.849,5.853,1.107
	c0.721-0.776,1.631-2.17-0.055-3.742c-1.355-1.265-2.309-6.865-0.956-15.607L83.185,151.888z"/>
<path fill="#232323" d="M91.501,125.219c-1.549-0.167-3.008,0.76-3.223,2.453c-0.217,1.683,1.398,3.678,3.559,3.927
	c6.145,0.712,11.874-1.599,15.804-6.375c1.383-1.677,1.165-4.236-0.157-5.296c-1.33-1.071-3.026-0.727-4.025,0.469
	C100.483,124.009,96.15,125.758,91.501,125.219z"/>
<path fill="#FFFFFF" d="M72.964,123.1c3.915-2.171,8.874-3.337,18.031-3.695c-2.183-0.923-5.072-1.353-9.3-1.353h-0.006
	c-7.237,0-10.583,1.234-13.104,4.102c-2.973,3.387-4.476,13.07-4.777,20.606C64.289,135.683,67.16,126.326,72.964,123.1z"/>
<path fill="#444444" d="M63.808,142.76c-0.07,1.04-0.086,2.027-0.057,2.941C63.75,144.775,63.768,143.787,63.808,142.76z"/>
<path fill="#444444" d="M57.476,154.903c-1.033,0.734-2.369,0.989-3.073,0.36c-0.701-0.622-0.489-2.207,0.66-3.348
	c3.109-3.099,7.192-5.186,11.688-5.855c1.675-0.245,2.889,1.169,2.685,2.879c-0.202,1.719-1.249,2.946-2.397,2.934
	C63.75,151.82,60.374,152.825,57.476,154.903z"/>
<path fill="#FFFFFF" d="M70.4,109.033c-1.163-6.435,3.361-10.197,14.566-10.868c3.556-0.214,6.842-4.389,9.411-5.154
	c7.39-2.198,9.144,2.617,9.144,2.617l0.016,0.001C99.897,87.305,89.513,82.434,78.5,84.47C66,86.784,57.434,97.12,59.365,107.554
	c1.931,10.438,13.629,17.024,26.127,14.712c1.089-0.202,2.146-0.468,3.171-0.786l0-0.013
	C77.795,124.268,71.943,117.574,70.4,109.033z"/>
<path fill="#444444" d="M104.629,99.181c-0.229-1.243-0.602-2.428-1.092-3.552l-0.015-0.001c0,0-1.755-4.815-9.145-2.617
	c-2.569,0.765-5.854,4.941-9.411,5.154c-11.204,0.672-15.728,4.433-14.566,10.868c1.545,8.542,7.396,15.235,18.263,12.433
	l0.001,0.013C99.403,118.146,106.391,108.706,104.629,99.181z"/>
<path fill="#7F7F7F" d="M92.993,117.239c-2.38,0.537-7.444-0.664-7.463-5.805c-0.022-5.139,5.553-6.806,7.43-7.228
	c1.877-0.423,7.461-1.274,7.48,3.865C100.46,113.213,95.375,116.702,92.993,117.239z"/>
<path fill="#232323" d="M93.079,105.53c1.034-0.233,2.569,0.567,2.755,1.864c0.184,1.298-2.808,1.924-2.808,1.924l-0.087,0.019
	c0,0-2.993,0.724-2.818-0.655c0.175-1.378,1.7-2.869,2.734-3.103L93.079,105.53z"/>
<path fill="none" stroke="#232323" stroke-width="0.6722" stroke-linecap="round" stroke-miterlimit="10" d="M96.646,111.153
	c-0.198,0.551-0.487,1.07-0.844,1.531c-0.359,0.464-0.783,0.865-1.256,1.185c-0.476,0.323-0.996,0.558-1.544,0.681
	c-0.546,0.124-1.069,0.124-1.543,0.019c-0.475-0.109-0.905-0.318-1.266-0.618s-0.651-0.689-0.855-1.146"/>
<circle fill="#232323" cx="82.949" cy="104.662" r="0.943"/>
<circle fill="#232323" cx="97.514" cy="99.508" r="0.943"/>
<path fill="#444444" d="M73.832,110.142c0.722,3.638,0.151,6.817-1.275,7.1c-1.426,0.28-3.166-2.438-3.886-6.073
	c-0.723-3.639-0.15-6.817,1.273-7.098C71.37,103.784,73.11,106.506,73.832,110.142z"/>
<path fill="#232323" d="M71.483,106.383c-1.173,0.242-1.758,2.625-1.599,5.831c-0.108-0.388-0.205-0.795-0.288-1.22
	c-0.551-2.859-0.245-5.332,0.683-5.523c0.394-0.082,0.839,0.267,1.261,0.91C71.521,106.383,71.5,106.38,71.483,106.383z"/>
<path fill="none" stroke="#7F7F7F" stroke-width="0.7421" stroke-linecap="round" stroke-miterlimit="10" d="M80.053,105.251
	c-0.029-0.332,0.008-0.663,0.104-0.975c0.096-0.313,0.251-0.605,0.462-0.865c0.208-0.256,0.471-0.477,0.784-0.643
	c0.312-0.165,0.644-0.26,0.973-0.289"/>
<path fill="none" stroke="#7F7F7F" stroke-width="0.7421" stroke-linecap="round" stroke-miterlimit="10" d="M96.449,97.241
	c0.29-0.161,0.608-0.264,0.932-0.305c0.325-0.041,0.657-0.02,0.979,0.066c0.32,0.084,0.628,0.234,0.907,0.451
	c0.28,0.217,0.5,0.48,0.662,0.771"/>
<path fill="#444444" d="M94.797,122.154c-0.918-1.047-1.951-1.875-3.242-2.506c-0.179-0.086-0.371-0.164-0.56-0.244
	c-1.475,0.058-2.83,0.14-4.102,0.239c-3.117,0.109-5.559,0.459-7.541,1.08c-2.555,0.592-4.585,1.376-6.388,2.379
	c-5.803,3.224-8.676,12.582-9.156,19.658c-0.041,1.026-0.06,2.016-0.057,2.942c0.009,2.394,0.16,4.381,0.447,5.583
	c0.311,1.3,1.553,2.409,3.507,3.285c3.115,1.395,8.047,2.191,13.983,2.191h0.006c0.555,0,1.102-0.01,1.64-0.022
	c0.167-0.004,0.329-0.013,0.493-0.017c0.374-0.016,0.742-0.028,1.105-0.05c0.182-0.009,0.361-0.02,0.538-0.03
	c0.352-0.021,0.699-0.049,1.041-0.075c0.16-0.016,0.323-0.024,0.482-0.043c0.417-0.036,0.822-0.08,1.223-0.127
	c0.068-0.011,0.143-0.016,0.212-0.024c0.472-0.057,0.929-0.122,1.376-0.194c0.109-0.018,0.212-0.037,0.318-0.055
	c0.333-0.057,0.661-0.115,0.98-0.18c0.134-0.026,0.266-0.053,0.397-0.082c0.288-0.062,0.568-0.125,0.842-0.191
	c0.125-0.031,0.25-0.061,0.374-0.091c0.296-0.079,0.583-0.157,0.862-0.244c0.065-0.019,0.135-0.036,0.2-0.056
	c-0.004,0-0.005,0-0.009,0c1.912-0.592,3.396-1.347,4.333-2.243c0.011-0.009,0.017-0.02,0.026-0.027
	c0.176-0.17,0.335-0.345,0.471-0.523c0.053-0.07,0.086-0.146,0.133-0.216c0.081-0.123,0.167-0.245,0.229-0.37
	c0.099-0.201,0.172-0.406,0.224-0.617C100.397,146.209,99.227,127.195,94.797,122.154z"/>
<ellipse fill="#444444" cx="81.755" cy="149.026" rx="17.775" ry="14.005"/>
<g>
	<path fill="#232323" d="M75.035,127.027c-0.998-1.197-2.691-1.543-4.022-0.476c-1.327,1.06-1.549,3.615-0.168,5.295
		c3.923,4.78,9.648,7.104,15.793,6.401c2.16-0.246,3.781-2.235,3.566-3.917c-0.213-1.693-1.67-2.626-3.221-2.462
		C82.335,132.4,78.004,130.646,75.035,127.027z"/>
	<path fill="#232323" d="M91.757,133.148c0.416-0.077,0.783-0.339,0.795-0.649c0.014-0.313-0.415-0.626-0.951-0.614
		c-1.456,0.026-2.896,0.52-4.092,1.438c-0.442,0.345-0.387,0.96,0.069,1.308c0.456,0.349,0.991,0.38,1.252,0.103
		C89.578,133.936,90.595,133.36,91.757,133.148z"/>
	<path fill="#232323" d="M92.247,135.536c0.419,0.04,0.845-0.108,0.942-0.404c0.1-0.297-0.224-0.716-0.742-0.854
		c-1.406-0.378-2.926-0.303-4.33,0.248c-0.521,0.206-0.638,0.814-0.295,1.272c0.341,0.461,0.846,0.641,1.175,0.446
		C89.933,135.686,91.07,135.417,92.247,135.536z"/>
	<path fill="#232323" d="M91.489,137.907c0.354,0.228,0.8,0.29,1.023,0.069c0.221-0.218,0.125-0.738-0.275-1.1
		c-1.079-0.977-2.467-1.601-3.966-1.75c-0.558-0.054-0.939,0.434-0.844,0.999c0.095,0.564,0.462,0.955,0.843,0.931
		C89.358,136.986,90.495,137.265,91.489,137.907z"/>
</g>
<path fill="#232323" d="M83.714,175.67c0.424,0.121,0.893,0.049,1.05-0.238c0.158-0.285-0.095-0.781-0.604-1.022
	c-1.382-0.659-2.964-0.872-4.519-0.569c-0.579,0.115-0.814,0.721-0.549,1.258c0.266,0.541,0.752,0.822,1.127,0.687
	C81.296,175.385,82.521,175.322,83.714,175.67z"/>
<path fill="#232323" d="M83.053,178.144c0.375,0.234,0.842,0.294,1.075,0.062s0.125-0.776-0.297-1.151
	c-1.144-1.015-2.605-1.657-4.184-1.8c-0.587-0.05-0.981,0.466-0.876,1.056c0.106,0.594,0.494,1.002,0.894,0.974
	C80.807,177.198,82.001,177.479,83.053,178.144z"/>
<path fill="#232323" d="M81.226,180.014c0.226,0.379,0.617,0.648,0.929,0.547c0.311-0.1,0.466-0.636,0.26-1.161
	c-0.556-1.423-1.566-2.661-2.908-3.505c-0.5-0.316-1.086-0.037-1.261,0.54c-0.176,0.578-0.016,1.117,0.354,1.271
	C79.657,178.15,80.593,178.943,81.226,180.014z"/>
<path fill="#232323" d="M97.229,174.2c0.423,0.12,0.893,0.05,1.05-0.237c0.157-0.288-0.095-0.783-0.605-1.025
	c-1.382-0.656-2.964-0.869-4.519-0.567c-0.579,0.114-0.814,0.719-0.549,1.257c0.266,0.542,0.752,0.823,1.128,0.688
	C94.811,173.916,96.036,173.852,97.229,174.2z"/>
<path fill="#232323" d="M96.567,176.674c0.373,0.234,0.842,0.295,1.073,0.062c0.233-0.23,0.127-0.777-0.295-1.15
	c-1.145-1.017-2.607-1.658-4.186-1.8c-0.587-0.052-0.981,0.466-0.875,1.055c0.104,0.593,0.494,1.001,0.894,0.972
	C94.321,175.727,95.517,176.008,96.567,176.674z"/>
<path fill="#232323" d="M94.74,178.544c0.227,0.38,0.617,0.649,0.93,0.545c0.311-0.099,0.466-0.634,0.259-1.159
	c-0.556-1.424-1.566-2.662-2.907-3.506c-0.499-0.315-1.085-0.033-1.259,0.541c-0.178,0.576-0.017,1.115,0.351,1.271
	C93.173,176.682,94.108,177.475,94.74,178.544z"/>
<path fill="#232323" d="M107.776,118.039c0.269-0.359,0.369-0.828,0.153-1.084c-0.215-0.252-0.778-0.191-1.19,0.206
	c-1.122,1.075-1.893,2.505-2.167,4.091c-0.1,0.592,0.391,1.032,0.999,0.972c0.61-0.057,1.053-0.417,1.057-0.824
	C106.636,120.236,107.018,119.05,107.776,118.039z"/>
<path fill="#232323" d="M109.889,119.56c0.358-0.272,0.585-0.695,0.448-1.001c-0.136-0.306-0.693-0.397-1.202-0.131
	c-1.376,0.719-2.513,1.88-3.217,3.327c-0.259,0.54,0.09,1.1,0.688,1.214c0.602,0.112,1.129-0.111,1.245-0.502
	C108.183,121.352,108.88,120.318,109.889,119.56z"/>
<path fill="#232323" d="M111.011,121.967c0.44-0.078,0.836-0.352,0.852-0.686c0.017-0.331-0.435-0.67-1.01-0.664
	c-1.553,0.017-3.092,0.528-4.378,1.5c-0.476,0.361-0.421,1.018,0.062,1.392c0.483,0.377,1.054,0.417,1.335,0.122
	C108.675,122.787,109.765,122.185,111.011,121.967z"/>
<line fill="none" stroke="#231F20" stroke-width="3.2452" stroke-linecap="round" stroke-linejoin="round" stroke-miterlimit="10" x1="108.854" y1="120.967" x2="110.841" y2="110.695"/>
<circle fill="#FF7E1C" cx="112.911" cy="104.605" r="9.158"/>
<circle fill="none" stroke="#231F20" stroke-width="2.1635" stroke-linecap="round" stroke-linejoin="round" stroke-miterlimit="10" cx="112.911" cy="104.605" r="9.158"/>
<g opacity="0.5">
	<path fill="#FFFFFF" d="M114.983,105.565c0,0.596-0.488,1.082-1.082,1.082h-2.278c-0.595,0-1.083-0.486-1.083-1.082v-2.28
		c0-0.595,0.488-1.081,1.083-1.081h2.278c0.596,0,1.082,0.486,1.082,1.081V105.565z"/>
</g>
</svg>
