<?xml version="1.0" encoding="utf-8"?>
<!-- Generator: Adobe Illustrator 16.0.4, SVG Export Plug-In . SVG Version: 6.00 Build 0)  -->
<!DOCTYPE svg PUBLIC "-//W3C//DTD SVG 1.1//EN" "http://www.w3.org/Graphics/SVG/1.1/DTD/svg11.dtd">
<svg version="1.1" id="Layer_1" xmlns="http://www.w3.org/2000/svg" xmlns:xlink="http://www.w3.org/1999/xlink" x="0px" y="0px"
	 width="300px" height="225px" viewBox="37.5 75 300 225" enable-background="new 37.5 75 300 225" xml:space="preserve">
<ellipse opacity="0.3" fill="#232323" enable-background="new    " cx="151.095" cy="271.637" rx="39.954" ry="6.449"/>
<ellipse opacity="0.3" fill="#232323" enable-background="new    " cx="223.394" cy="274.44" rx="22.588" ry="3.646"/>
<ellipse opacity="0.3" fill="#232323" enable-background="new    " cx="265.292" cy="269.976" rx="17.26" ry="2.771"/>
<path fill="#232323" d="M122.153,225.923c0.163,1.306,4.485,38.197,10.769,43.368c6.283,5.169,9.584,3.429,10.859,2.058
	c1.337-1.443,3.025-4.028-0.103-6.948c-2.517-2.348-4.283-12.74-1.774-28.96L122.153,225.923z"/>
<path fill="#232323" d="M146.148,223.622c0.167,1.305,4.485,38.196,10.767,43.369c6.287,5.17,9.586,3.429,10.863,2.054
	c1.337-1.439,3.026-4.026-0.104-6.942c-2.516-2.35-4.285-12.742-1.773-28.964L146.148,223.622z"/>
<path fill="#232323" d="M161.58,174.134c-2.875-0.312-5.583,1.41-5.98,4.552c-0.404,3.122,2.594,6.824,6.604,7.286
	c11.402,1.32,22.033-2.966,29.328-11.828c2.567-3.113,2.161-7.86-0.293-9.828c-2.468-1.987-5.616-1.35-7.469,0.87
	C178.249,171.886,170.209,175.134,161.58,174.134z"/>
<path fill="#FFFFFF" d="M127.182,170.2c7.263-4.028,16.466-6.194,33.458-6.858c-4.052-1.712-9.412-2.511-17.259-2.511h-0.012
	c-13.428,0-19.639,2.291-24.315,7.613c-5.519,6.284-8.306,24.253-8.866,38.237C111.083,193.552,116.412,176.187,127.182,170.2z"/>
<path fill="#444444" d="M110.189,206.683c-0.13,1.932-0.16,3.763-0.106,5.461C110.082,210.424,110.115,208.592,110.189,206.683z"/>
<path fill="#444444" d="M98.439,229.219c-1.917,1.36-4.396,1.834-5.702,0.667c-1.301-1.153-0.908-4.095,1.224-6.213
	c5.77-5.75,13.345-9.621,21.689-10.864c3.108-0.452,5.363,2.169,4.983,5.343c-0.375,3.189-2.317,5.469-4.45,5.443
	C110.083,223.498,103.818,225.362,98.439,229.219z"/>
<g>
	<path fill="#FFFFFF" d="M121.041,140.592c-0.258-12.133,9.127-17.71,29.857-15.68c6.58,0.643,13.817-6.053,18.749-6.708
		c14.183-1.878,15.998,7.457,15.998,7.457l0.028,0.006c-4.246-16.316-21.861-28.266-42.637-27.737
		c-23.581,0.604-42.29,17.053-41.787,36.739c0.501,19.692,20.023,35.166,43.603,34.565c2.055-0.054,4.07-0.233,6.042-0.519
		l0.001-0.022C130.161,170.663,121.383,156.694,121.041,140.592z"/>
	<path fill="#444444" d="M186.641,132.496c-0.058-2.344-0.396-4.625-0.968-6.827l-0.028-0.006c0,0-1.816-9.335-15.998-7.457
		c-4.931,0.654-12.167,7.351-18.749,6.708c-20.73-2.03-30.114,3.547-29.858,15.679c0.345,16.103,9.121,30.072,29.853,28.101
		l-0.001,0.023C171.545,165.733,187.099,150.467,186.641,132.496z"/>
	<path fill="#7F7F7F" d="M160.06,162.207c-4.518,0.293-13.45-3.384-11.989-12.811c1.456-9.425,12.159-10.856,15.72-11.084
		c3.566-0.229,14.045-0.163,12.584,9.26C174.916,157,164.581,161.915,160.06,162.207z"/>
	<path fill="#232323" d="M163.623,140.772c1.964-0.127,4.544,1.788,4.507,4.219c-0.04,2.431-5.706,2.709-5.706,2.709l-0.164,0.01
		c0,0-5.696,0.455-4.975-2.021c0.721-2.475,3.951-4.764,5.913-4.89L163.623,140.772z"/>
	<path fill="none" stroke="#232323" stroke-width="1.2474" stroke-linecap="round" stroke-miterlimit="10" d="M168.526,152.117
		c-0.524,0.951-1.205,1.819-1.992,2.56c-0.794,0.745-1.688,1.358-2.65,1.809c-0.965,0.452-1.986,0.73-3.027,0.795
		c-1.037,0.068-1.995-0.083-2.833-0.415c-0.839-0.337-1.565-0.847-2.139-1.502c-0.573-0.653-0.994-1.452-1.233-2.349"/>
	<circle fill="#232323" cx="145.31" cy="136.234" r="1.75"/>
	<circle fill="#232323" cx="173.504" cy="131.025" r="1.75"/>
	<path fill="#444444" d="M127.008,143.622c0.266,6.877-1.706,12.538-4.404,12.642c-2.694,0.099-5.092-5.391-5.356-12.263
		c-0.264-6.879,1.71-12.536,4.4-12.638C124.345,131.256,126.744,136.75,127.008,143.622z"/>
	<path fill="#232323" d="M123.796,136.051c-2.222,0.101-3.988,4.3-4.628,10.221c-0.084-0.744-0.144-1.518-0.172-2.321
		c-0.179-5.401,1.102-9.844,2.859-9.923c0.747-0.035,1.46,0.732,2.047,2.034C123.866,136.062,123.831,136.049,123.796,136.051z"/>
	<path fill="none" stroke="#7F7F7F" stroke-width="1.377" stroke-linecap="round" stroke-miterlimit="10" d="M139.833,136.47
		c0.043-0.616,0.206-1.211,0.473-1.756c0.267-0.545,0.637-1.037,1.1-1.45c0.456-0.41,1.003-0.737,1.624-0.95
		c0.618-0.212,1.255-0.29,1.867-0.247"/>
	<path fill="none" stroke="#7F7F7F" stroke-width="1.377" stroke-linecap="round" stroke-miterlimit="10" d="M172.213,126.561
		c0.577-0.21,1.192-0.307,1.796-0.288c0.608,0.021,1.209,0.156,1.773,0.408c0.563,0.246,1.083,0.612,1.532,1.091
		c0.451,0.479,0.777,1.024,0.99,1.605"/>
</g>
<path fill="#444444" d="M167.696,168.446c-1.704-1.941-3.622-3.478-6.016-4.65c-0.333-0.161-0.688-0.305-1.039-0.453
	c-2.738,0.108-5.252,0.259-7.611,0.444c-5.784,0.204-10.315,0.852-13.994,2.005c-4.741,1.1-8.509,2.553-11.854,4.414
	c-10.77,5.982-16.1,23.347-16.992,36.48c-0.074,1.908-0.11,3.741-0.106,5.46c0.016,4.443,0.297,8.129,0.83,10.359
	c0.576,2.414,2.884,4.471,6.508,6.097c5.781,2.587,14.934,4.067,25.949,4.067h0.012c1.031,0,2.045-0.016,3.045-0.043
	c0.307-0.008,0.609-0.023,0.915-0.031c0.692-0.027,1.376-0.05,2.05-0.088c0.336-0.018,0.668-0.039,1-0.059
	c0.653-0.04,1.296-0.088,1.931-0.139c0.298-0.027,0.6-0.047,0.896-0.078c0.773-0.066,1.526-0.148,2.269-0.237
	c0.128-0.018,0.265-0.029,0.393-0.044c0.876-0.109,1.724-0.23,2.554-0.363c0.202-0.032,0.393-0.068,0.59-0.102
	c0.62-0.104,1.226-0.214,1.818-0.332c0.25-0.05,0.494-0.101,0.737-0.151c0.534-0.116,1.054-0.233,1.563-0.355
	c0.232-0.058,0.463-0.114,0.693-0.17c0.549-0.146,1.081-0.294,1.599-0.452c0.122-0.034,0.251-0.065,0.37-0.104
	c-0.008,0-0.008,0-0.016,0c3.547-1.099,6.3-2.497,8.041-4.161c0.02-0.016,0.031-0.037,0.047-0.052
	c0.326-0.313,0.622-0.639,0.875-0.972c0.099-0.129,0.161-0.27,0.247-0.399c0.149-0.228,0.309-0.453,0.423-0.687
	c0.184-0.373,0.321-0.753,0.416-1.144C178.088,213.083,175.917,177.801,167.696,168.446z"/>
<ellipse fill="#444444" cx="143.496" cy="218.312" rx="32.983" ry="25.99"/>
<g>
	<path fill="#232323" d="M131.024,177.489c-1.851-2.222-4.994-2.864-7.464-0.883c-2.462,1.965-2.875,6.709-0.312,9.827
		c7.28,8.869,17.903,13.182,29.308,11.879c4.007-0.458,7.016-4.15,6.618-7.271c-0.395-3.143-3.1-4.873-5.977-4.567
		C144.571,187.46,136.535,184.202,131.024,177.489z"/>
	<path fill="#232323" d="M162.056,188.849c0.77-0.145,1.451-0.632,1.475-1.208c0.025-0.58-0.767-1.163-1.766-1.14
		c-2.701,0.05-5.373,0.966-7.594,2.671c-0.82,0.638-0.717,1.78,0.129,2.424c0.848,0.646,1.838,0.703,2.324,0.19
		C158.011,190.307,159.897,189.24,162.056,188.849z"/>
	<path fill="#232323" d="M162.965,193.278c0.778,0.073,1.567-0.2,1.749-0.75c0.186-0.55-0.416-1.33-1.377-1.585
		c-2.609-0.702-5.43-0.561-8.035,0.46c-0.967,0.383-1.184,1.511-0.548,2.36c0.634,0.855,1.57,1.188,2.181,0.828
		C158.669,193.557,160.782,193.059,162.965,193.278z"/>
	<path fill="#232323" d="M161.558,197.678c0.657,0.422,1.484,0.538,1.899,0.127c0.412-0.403,0.234-1.368-0.509-2.039
		c-2.001-1.811-4.579-2.971-7.36-3.245c-1.037-0.102-1.744,0.803-1.566,1.852c0.177,1.047,0.858,1.774,1.565,1.728
		C157.604,195.969,159.713,196.487,161.558,197.678z"/>
</g>
<path fill="#232323" d="M147.13,267.756c0.787,0.222,1.656,0.089,1.95-0.442c0.293-0.531-0.176-1.451-1.123-1.899
	c-2.563-1.222-5.5-1.616-8.384-1.056c-1.074,0.213-1.513,1.338-1.02,2.334c0.495,1.006,1.396,1.527,2.093,1.275
	C142.643,267.228,144.917,267.11,147.13,267.756z"/>
<path fill="#232323" d="M145.902,272.344c0.695,0.435,1.564,0.547,1.995,0.117c0.432-0.429,0.234-1.442-0.55-2.138
	c-2.122-1.884-4.835-3.075-7.765-3.341c-1.09-0.092-1.821,0.866-1.625,1.961c0.195,1.101,0.916,1.856,1.658,1.805
	C141.736,270.591,143.953,271.109,145.902,272.344z"/>
<path fill="#232323" d="M142.512,275.813c0.419,0.703,1.144,1.202,1.725,1.017c0.578-0.185,0.864-1.182,0.482-2.155
	c-1.033-2.642-2.907-4.938-5.396-6.504c-0.927-0.585-2.017-0.066-2.34,1.001c-0.327,1.071-0.031,2.073,0.657,2.36
	C139.603,272.357,141.337,273.83,142.512,275.813z"/>
<path fill="#232323" d="M172.209,265.027c0.786,0.224,1.657,0.093,1.95-0.441c0.293-0.533-0.178-1.452-1.123-1.901
	c-2.564-1.22-5.5-1.613-8.385-1.054c-1.074,0.211-1.51,1.336-1.02,2.334c0.494,1.005,1.396,1.525,2.094,1.274
	C167.722,264.497,169.996,264.381,172.209,265.027z"/>
<path fill="#232323" d="M170.982,269.615c0.694,0.437,1.563,0.55,1.993,0.117c0.433-0.427,0.236-1.442-0.547-2.134
	c-2.125-1.883-4.839-3.077-7.768-3.34c-1.089-0.095-1.821,0.864-1.623,1.958c0.194,1.101,0.916,1.856,1.659,1.802
	C166.815,267.86,169.032,268.383,170.982,269.615z"/>
<path fill="#232323" d="M167.591,273.087c0.42,0.705,1.144,1.203,1.725,1.014c0.576-0.186,0.865-1.179,0.481-2.152
	c-1.032-2.643-2.907-4.941-5.395-6.507c-0.925-0.584-2.015-0.062-2.337,1.005c-0.329,1.067-0.031,2.069,0.653,2.358
	C164.682,269.632,166.417,271.104,167.591,273.087z"/>
<path fill="#232323" d="M195.702,163.63c0.667-0.504,1.087-1.29,0.831-1.858c-0.252-0.565-1.286-0.738-2.23-0.244
	c-2.555,1.337-4.66,3.49-5.969,6.176c-0.479,1.003,0.168,2.042,1.28,2.252c1.116,0.208,2.094-0.207,2.31-0.93
	C192.535,166.957,193.83,165.039,195.702,163.63z"/>
<path fill="#232323" d="M197.783,168.098c0.818-0.144,1.552-0.65,1.582-1.272c0.032-0.617-0.809-1.245-1.872-1.233
	c-2.884,0.031-5.74,0.981-8.125,2.783c-0.884,0.669-0.782,1.888,0.116,2.583c0.896,0.699,1.957,0.772,2.479,0.227
	C193.45,169.621,195.473,168.501,197.783,168.098z"/>
<g>
	<g>
		<g>
			<path fill="#FFCF15" d="M194.482,154.267l7.668,1.199c0.211,0.033,0.449,0.049,0.701,0.049c0.898,0,1.911-0.198,2.577-0.506
				l12.246-5.636c0.775-0.357,0.887-0.777,0.844-1.068c-0.042-0.291-0.269-0.663-1.113-0.783l-4.81-0.688
				c-0.945-0.135-2.426,0.023-3.288,0.331l-14.99,5.343c-0.654,0.233-0.966,0.562-0.929,0.975
				C193.43,153.896,193.798,154.159,194.482,154.267z"/>
		</g>
		<g>
			<path fill="#FFCF15" d="M201.334,156.682l-10.62-1.661c-1.106-0.173-2.278,0.543-2.645,1.575l-1.611,4.53
				c-0.188,0.527-0.154,1.09,0.095,1.583c0.249,0.494,0.68,0.856,1.215,1.02l14.188,4.333c0.192,0.058,0.382,0.088,0.565,0.088
				c0.427,0,0.812-0.162,1.084-0.454c0.295-0.318,0.437-0.77,0.397-1.272l-0.563-7.461
				C203.356,157.855,202.432,156.853,201.334,156.682z"/>
		</g>
		<g>
			<path fill="#FFCF15" d="M224.205,152.708l-0.827-2.149c-0.404-1.052-1.657-1.566-2.687-1.092l-14.217,6.544
				c-0.983,0.453-1.69,1.652-1.609,2.731l0.543,7.176c0.071,0.948,0.68,1.373,1.25,1.373c0.312,0,0.643-0.119,0.956-0.343
				l15.696-11.253C224.209,155.051,224.602,153.739,224.205,152.708z"/>
		</g>
	</g>
	<g>
		<path fill="#FFFFFF" d="M218.25,146.55l1.416,0.563l0.589,1.35c0.048,0.09,0.161,0.127,0.255,0.083
			c0.037-0.017,0.066-0.046,0.086-0.083l0.589-1.35l1.417-0.563c0.093-0.045,0.131-0.153,0.084-0.243
			c-0.019-0.035-0.049-0.064-0.084-0.082l-1.417-0.563l-0.589-1.351c-0.047-0.09-0.162-0.126-0.254-0.082
			c-0.038,0.018-0.067,0.046-0.087,0.082l-0.589,1.351l-1.416,0.563c-0.096,0.045-0.131,0.154-0.085,0.243
			C218.183,146.504,218.213,146.532,218.25,146.55L218.25,146.55z"/>
	</g>
</g>
<path fill="#232323" d="M191.781,160.81c0.5-0.668,0.686-1.539,0.285-2.014c-0.397-0.467-1.443-0.354-2.209,0.383
	c-2.082,1.996-3.513,4.647-4.02,7.591c-0.186,1.098,0.726,1.916,1.853,1.805c1.132-0.105,1.953-0.774,1.961-1.53
	C189.666,164.887,190.374,162.686,191.781,160.81z"/>
<g>
	<path fill="#D0DAE3" d="M243.207,258.612c-0.522-0.552-1.22-1.012-2.132-1.404c-0.153-0.066-0.309-0.124-0.465-0.183
		c-0.133-0.05-0.266-0.099-0.395-0.155l-0.417-0.177c-0.15-0.062-0.3-0.126-0.449-0.19c-0.146-0.062-0.284-0.137-0.424-0.21
		c-0.112-0.059-0.224-0.117-0.337-0.171l-0.125-0.083c-0.03-0.019-0.061-0.037-0.092-0.052c-0.271-0.127-0.588-0.403-0.842-0.626
		c-0.028-0.023-0.057-0.046-0.087-0.065l-0.202-0.132c-0.115-0.094-0.229-0.164-0.322-0.222l-0.119-0.08
		c-0.047-0.037-0.096-0.075-0.162-0.119l-0.204-0.125c-0.175-0.145-0.379-0.274-0.571-0.365l-0.05-0.034
		c-0.07-0.05-0.142-0.099-0.218-0.14l-0.547-0.355c-0.029-0.02-0.061-0.038-0.092-0.052c-0.193-0.093-0.38-0.198-0.565-0.304
		c-0.23-0.132-0.469-0.268-0.731-0.386l-0.357-0.165c-0.249-0.117-0.499-0.231-0.75-0.341c-0.474-0.204-0.963-0.378-1.435-0.545
		l-0.338-0.119c-0.114-0.041-0.229-0.069-0.345-0.097c-0.062-0.016-0.124-0.028-0.184-0.051c-0.326-0.117-0.662-0.189-0.957-0.255
		l-0.202-0.044c-0.325-0.072-0.661-0.146-0.99-0.212c-0.332-0.065-0.664-0.1-0.984-0.134c-0.138-0.015-0.276-0.028-0.414-0.047
		c-0.346-0.042-0.685-0.046-1.011-0.049c-0.198-0.003-0.397-0.005-0.597-0.018c-0.195-0.011-0.375,0.013-0.52,0.031
		c-0.078,0.01-0.157,0.023-0.237,0.021c-0.595-0.021-1.246,0.096-1.911,0.215l-1.675,0.302c-0.049,0.009-0.1,0.022-0.146,0.041
		c-0.006,0.002-0.01,0.002-0.012,0.002c-0.077,0.015-0.146,0.034-0.213,0.061c-0.022,0.01-0.049,0.018-0.073,0.024
		c-0.083,0.025-0.167,0.053-0.25,0.089c-0.159,0.066-0.346,0.125-0.544,0.185c-0.219,0.067-0.445,0.139-0.707,0.241
		c-0.098,0.023-0.194,0.05-0.295,0.094c-0.363,0.16-0.69,0.332-1.008,0.498l-0.29,0.15c-0.509,0.266-0.988,0.517-1.468,0.824
		c-0.545,0.35-1.051,0.72-1.503,1.102c-0.026,0.021-0.055,0.039-0.081,0.056c-0.073,0.05-0.146,0.101-0.216,0.159l-0.244,0.205
		c-0.24,0.2-0.48,0.401-0.705,0.615c-0.218,0.211-0.431,0.426-0.643,0.641l-0.327,0.33c-0.183,0.182-0.348,0.374-0.516,0.568
		c-0.129,0.151-0.259,0.305-0.398,0.447c-0.074,0.075-0.137,0.158-0.201,0.244c-0.023,0.029-0.044,0.061-0.07,0.088
		s-0.05,0.057-0.072,0.085l-0.976,1.331c-0.067,0.085-0.149,0.189-0.223,0.316l0,0l-0.166,0.227
		c-0.021,0.029-0.042,0.059-0.059,0.092c-0.217,0.398-0.478,0.766-0.703,1.073l-0.107,0.147c-0.077,0.11-0.15,0.215-0.22,0.284
		l-0.048,0.048c-0.268,0.272-0.538,0.546-0.814,0.81c-0.122,0.117-0.251,0.227-0.378,0.338c-0.15,0.13-0.3,0.258-0.443,0.396
		c-0.077,0.074-0.15,0.155-0.224,0.237c-0.042,0.047-0.083,0.094-0.127,0.136c-0.602,0.6-1.264,1.328-1.51,2.38
		c-0.08,0.339-0.159,1.294,0.122,1.92c0.224,0.499,0.449,0.853,0.729,1.15c0.17,0.18,0.338,0.317,0.5,0.453l0.174,0.147
		c0.067,0.061,0.146,0.113,0.245,0.17c0.175,0.152,0.475,0.376,0.742,0.501l0.182,0.085c0.379,0.179,0.769,0.362,1.184,0.519
		l0.401,0.148c0.325,0.118,0.648,0.235,0.963,0.372c0.37,0.16,0.726,0.341,1.104,0.533c0.281,0.143,0.565,0.287,0.847,0.418
		c0.021,0.012,0.041,0.026,0.062,0.041c0.081,0.055,0.165,0.105,0.253,0.147c0.091,0.044,0.181,0.091,0.268,0.138
		c0.109,0.057,0.218,0.115,0.329,0.168c0.041,0.019,0.077,0.048,0.112,0.073c0.108,0.073,0.218,0.146,0.332,0.198
		c0.1,0.048,0.196,0.097,0.293,0.147c0.121,0.061,0.242,0.123,0.366,0.181c0.109,0.051,0.209,0.115,0.312,0.18
		c0.154,0.094,0.31,0.188,0.473,0.264c0.321,0.15,0.64,0.306,0.959,0.461c0.529,0.258,1.077,0.525,1.64,0.768
		c0.541,0.232,1.103,0.42,1.646,0.6c0.269,0.09,0.538,0.18,0.807,0.275c0.138,0.049,0.278,0.08,0.423,0.108l0.106,0.021
		c0.14,0.031,0.283,0.065,0.428,0.1c0.177,0.042,0.356,0.084,0.533,0.121c0.132,0.028,0.261,0.046,0.392,0.062
		c0.079,0.01,0.155,0.016,0.237,0.033c0.534,0.104,1.087,0.128,1.621,0.151c0.175,0.009,0.351,0.016,0.526,0.026
		c0.03,0.002,0.062,0.002,0.09,0l0.294-0.017c0.155,0.004,0.313-0.005,0.471-0.015c0.118-0.007,0.238-0.016,0.356-0.012
		c0.052,0.002,0.103-0.001,0.153-0.01l2.058-0.356c0.09-0.017,0.176-0.036,0.25-0.062l0.303-0.062
		c0.045-0.011,0.09-0.023,0.134-0.042c0.196-0.08,0.4-0.147,0.603-0.212c0.301-0.099,0.611-0.2,0.916-0.343l0.166-0.077
		c0.218-0.102,0.44-0.204,0.64-0.31c0.027-0.016,0.053-0.023,0.078-0.035c0.096-0.039,0.188-0.082,0.283-0.138
		c0.163-0.101,0.329-0.197,0.494-0.293c0.269-0.157,0.535-0.315,0.793-0.48c1.361-0.876,2.458-1.933,3.521-2.956l0.227-0.218
		c0.135-0.128,0.26-0.266,0.385-0.402c0.089-0.098,0.178-0.194,0.272-0.29c0.088-0.087,0.169-0.187,0.249-0.285
		c0.044-0.054,0.085-0.109,0.133-0.157c0.205-0.206,0.396-0.421,0.587-0.636c0.165-0.186,0.33-0.371,0.504-0.55
		c0.093-0.095,0.177-0.2,0.259-0.306c0.044-0.059,0.087-0.117,0.135-0.168c0.275-0.278,0.527-0.568,0.772-0.849
		c0.271-0.312,0.526-0.605,0.805-0.878c0.483-0.473,1.059-1.026,1.667-1.555c0.232-0.203,0.457-0.399,0.67-0.613
		c0.096-0.094,0.182-0.2,0.266-0.307c0.046-0.057,0.089-0.115,0.138-0.164c0.818-0.834,1.266-1.799,1.364-2.951
		c0.02-0.227-0.019-0.43-0.056-0.637C243.937,259.646,243.665,259.099,243.207,258.612z"/>
	<path fill="#232323" d="M242.576,260.845c-0.014,0.149-0.042,0.286-0.071,0.424c-0.083-0.041-0.172-0.071-0.27-0.081
		c-1.011-0.106-1.985,0.243-2.688,0.903c-0.608-0.744-1.529-1.217-2.542-1.239c-1.01-0.025-1.95,0.401-2.594,1.116
		c-0.665-0.691-1.617-1.087-2.623-1.029c-1.007,0.057-1.906,0.559-2.487,1.32c-0.718-0.636-1.698-0.952-2.694-0.813
		s-1.853,0.709-2.37,1.516c-0.767-0.575-1.769-0.812-2.748-0.594c-0.983,0.217-1.79,0.854-2.242,1.701
		c-0.811-0.513-1.828-0.668-2.792-0.371c-0.965,0.297-1.719,0.999-2.102,1.881c-0.851-0.445-1.88-0.519-2.818-0.144
		c-0.94,0.375-1.639,1.138-1.951,2.05c-0.887-0.375-1.923-0.364-2.832,0.088c-0.089,0.045-0.164,0.104-0.227,0.173
		c-0.07-0.115-0.141-0.252-0.216-0.418c-0.055-0.123-0.072-0.459-0.057-0.715c0.156,0.086,0.336,0.122,0.517,0.09
		c0.069-0.014,0.139-0.035,0.205-0.067c0.91-0.442,1.564-1.204,1.862-2.103c0.876,0.383,1.887,0.416,2.826,0.049
		c0.937-0.367,1.649-1.074,2.017-1.945c0.839,0.451,1.842,0.562,2.803,0.271c0.961-0.293,1.727-0.941,2.164-1.78
		c0.799,0.515,1.788,0.704,2.765,0.488c0.979-0.216,1.793-0.802,2.297-1.604c0.752,0.576,1.72,0.842,2.714,0.703
		c0.992-0.139,1.854-0.661,2.422-1.421c0.701,0.634,1.646,0.974,2.646,0.913c1.003-0.061,1.904-0.516,2.533-1.23
		c0.648,0.688,1.562,1.103,2.569,1.119c1.006,0.018,1.943-0.365,2.632-1.031c0.593,0.738,1.472,1.224,2.478,1.322
		c0.268,0.026,0.517-0.086,0.678-0.277c0.066,0.145,0.128,0.316,0.17,0.552C242.56,260.729,242.576,260.82,242.576,260.845z"/>
	<path fill="#E7ECF0" d="M209.417,262.784c0.157-0.159,0.277-0.328,0.382-0.478l0.089-0.122c0.25-0.338,0.538-0.746,0.794-1.207
		l0.165-0.227c0.021-0.027,0.041-0.057,0.058-0.088c0.03-0.057,0.072-0.104,0.109-0.154l0.981-1.335
		c0.057-0.062,0.105-0.127,0.155-0.192c0.022-0.03,0.043-0.062,0.07-0.089c0.164-0.168,0.316-0.346,0.469-0.524
		c0.14-0.162,0.278-0.326,0.431-0.479l0.336-0.337c0.202-0.205,0.405-0.411,0.612-0.609c0.198-0.189,0.411-0.366,0.625-0.544
		l0.257-0.216c0.024-0.021,0.052-0.039,0.079-0.057c0.071-0.048,0.142-0.098,0.211-0.154c0.4-0.338,0.854-0.669,1.343-0.982
		c0.42-0.271,0.87-0.505,1.348-0.754l0.294-0.152c0.307-0.161,0.596-0.314,0.941-0.457c0.094-0.022,0.188-0.048,0.284-0.09
		c0.162-0.069,0.341-0.122,0.519-0.177c0.229-0.07,0.464-0.144,0.7-0.245c0.028-0.013,0.06-0.02,0.087-0.028
		c0.051-0.016,0.099-0.031,0.146-0.048c0.018-0.003,0.037-0.006,0.042-0.007c0.067-0.013,0.128-0.028,0.186-0.05l1.607-0.289
		c0.548-0.098,1.115-0.2,1.545-0.185c0.186,0.006,0.354-0.015,0.491-0.033c0.088-0.012,0.179-0.023,0.228-0.021
		c0.224,0.015,0.45,0.018,0.672,0.02c0.298,0.004,0.58,0.006,0.838,0.039c0.148,0.018,0.295,0.034,0.443,0.05
		c0.3,0.031,0.583,0.061,0.846,0.114c0.316,0.062,0.643,0.134,0.956,0.203l0.204,0.045c0.263,0.058,0.535,0.117,0.769,0.201
		c0.114,0.04,0.229,0.069,0.345,0.098c0.062,0.014,0.123,0.026,0.183,0.048l0.344,0.122c0.469,0.166,0.912,0.322,1.339,0.507
		c0.239,0.103,0.475,0.212,0.711,0.322l0.367,0.169c0.209,0.096,0.407,0.211,0.607,0.324c0.203,0.115,0.409,0.23,0.619,0.334
		l0.537,0.35c0.03,0.02,0.05,0.031,0.082,0.047c0.019,0.012,0.034,0.023,0.053,0.036c0.087,0.062,0.175,0.12,0.271,0.164
		c0.098,0.047,0.203,0.116,0.281,0.184c0.032,0.027,0.066,0.053,0.102,0.074l0.261,0.167c0.048,0.039,0.099,0.078,0.149,0.111
		l0.128,0.08c0.056,0.034,0.113,0.066,0.163,0.11c0.026,0.022,0.056,0.044,0.084,0.063l0.199,0.129
		c0.292,0.256,0.68,0.588,1.104,0.8l0.131,0.085c0.03,0.019,0.06,0.035,0.091,0.051c0.111,0.052,0.22,0.109,0.329,0.166
		c0.035,0.019,0.072,0.034,0.108,0.053c-0.4,0.511-1.021,0.816-1.7,0.806c-0.859-0.017-1.597-0.536-1.88-1.326
		c-0.112-0.316-0.415-0.526-0.75-0.521c-0.336,0.005-0.633,0.222-0.737,0.541c-0.266,0.81-0.997,1.367-1.857,1.42
		c-0.855,0.052-1.635-0.41-1.981-1.177c-0.139-0.306-0.458-0.488-0.79-0.457c-0.336,0.031-0.613,0.273-0.691,0.6
		c-0.196,0.825-0.87,1.436-1.727,1.556c-0.852,0.118-1.666-0.282-2.076-1.02c-0.163-0.294-0.495-0.45-0.826-0.391l0,0
		c-0.332,0.06-0.588,0.321-0.638,0.653c-0.129,0.835-0.754,1.495-1.591,1.681c-0.836,0.184-1.688-0.151-2.162-0.856
		c-0.187-0.277-0.527-0.409-0.855-0.321c-0.324,0.087-0.558,0.37-0.582,0.706c-0.059,0.839-0.627,1.544-1.447,1.793
		c-0.827,0.251-1.705-0.018-2.236-0.683c-0.211-0.263-0.563-0.363-0.879-0.25c-0.317,0.113-0.527,0.415-0.522,0.751
		c0.011,0.839-0.5,1.584-1.298,1.898c-0.625,0.243-1.305,0.179-1.854-0.151c0.046-0.045,0.093-0.09,0.137-0.136L209.417,262.784z"/>
	<path fill="#E7ECF0" d="M241.403,263.13c-0.047,0.059-0.093,0.118-0.146,0.172c-0.19,0.188-0.389,0.363-0.593,0.542
		c-0.639,0.554-1.234,1.128-1.734,1.616c-0.321,0.314-0.61,0.646-0.891,0.967c-0.229,0.264-0.459,0.527-0.706,0.779
		c-0.095,0.096-0.178,0.202-0.262,0.311c-0.044,0.057-0.085,0.115-0.136,0.166c-0.191,0.197-0.373,0.4-0.554,0.604
		c-0.174,0.195-0.348,0.391-0.533,0.578c-0.085,0.086-0.162,0.181-0.239,0.276c-0.044,0.056-0.087,0.112-0.136,0.161
		c-0.11,0.109-0.214,0.224-0.318,0.338c-0.104,0.113-0.206,0.226-0.316,0.332l-0.228,0.219c-1.009,0.971-2.051,1.976-3.284,2.77
		c-0.241,0.154-0.488,0.299-0.737,0.445c-0.174,0.101-0.348,0.204-0.518,0.307c-0.023,0.015-0.049,0.022-0.071,0.031
		c-0.066,0.027-0.133,0.057-0.201,0.092c-0.181,0.096-0.379,0.187-0.574,0.277l-0.17,0.08c-0.219,0.102-0.473,0.184-0.742,0.273
		c-0.213,0.069-0.429,0.141-0.637,0.222l-0.284,0.06c-0.044,0.01-0.067,0.016-0.109,0.032c-0.016,0.005-0.032,0.007-0.051,0.011
		l-0.23,0.037l-0.82,0.147l-0.923,0.157c-0.138-0.001-0.275,0.007-0.411,0.015c-0.12,0.008-0.241,0.017-0.358,0.011
		c-0.024,0-0.051,0-0.074,0.002l-0.284,0.016c-0.169-0.01-0.337-0.017-0.505-0.025c-0.5-0.021-0.974-0.043-1.395-0.124
		c-0.12-0.023-0.234-0.038-0.35-0.051c-0.084-0.01-0.167-0.019-0.251-0.037c-0.165-0.035-0.333-0.076-0.5-0.115
		c-0.152-0.036-0.306-0.072-0.454-0.105l-0.138-0.027c-0.069-0.015-0.138-0.024-0.202-0.048c-0.279-0.1-0.56-0.193-0.84-0.287
		c-0.535-0.177-1.04-0.346-1.521-0.553c-0.529-0.227-1.06-0.484-1.573-0.736c-0.327-0.158-0.653-0.317-0.983-0.473
		c-0.109-0.049-0.211-0.116-0.312-0.179c-0.154-0.096-0.309-0.188-0.472-0.265c-0.106-0.05-0.212-0.103-0.317-0.156
		c-0.11-0.057-0.221-0.113-0.336-0.167c-0.039-0.019-0.074-0.048-0.111-0.073c-0.107-0.075-0.217-0.146-0.333-0.2
		c-0.09-0.042-0.178-0.089-0.267-0.136c-0.109-0.058-0.219-0.116-0.326-0.166c-0.021-0.012-0.041-0.025-0.061-0.04
		c-0.084-0.055-0.169-0.108-0.258-0.15c-0.272-0.127-0.539-0.264-0.807-0.399c-0.383-0.194-0.776-0.395-1.192-0.574
		c-0.342-0.148-0.692-0.276-1.044-0.406l-0.389-0.143c-0.356-0.135-0.702-0.298-1.068-0.47l-0.187-0.087
		c-0.05-0.023-0.131-0.077-0.213-0.135c0.68-0.213,1.41-0.02,1.89,0.52c0.225,0.252,0.586,0.331,0.896,0.193
		c0.308-0.138,0.49-0.459,0.452-0.795c-0.095-0.819,0.365-1.58,1.145-1.89c0.776-0.312,1.631-0.076,2.124,0.583
		c0.202,0.271,0.559,0.379,0.878,0.266c0.318-0.113,0.527-0.418,0.516-0.756c-0.027-0.824,0.487-1.543,1.285-1.788
		c0.795-0.246,1.625,0.057,2.066,0.755c0.18,0.285,0.525,0.422,0.852,0.336s0.559-0.375,0.574-0.714
		c0.038-0.823,0.608-1.497,1.419-1.677c0.807-0.18,1.612,0.188,1.994,0.919c0.157,0.3,0.489,0.464,0.823,0.403
		c0.333-0.061,0.588-0.329,0.631-0.665c0.103-0.817,0.727-1.443,1.549-1.556c0.823-0.116,1.594,0.316,1.915,1.076
		c0.133,0.312,0.45,0.501,0.788,0.468c0.338-0.032,0.613-0.28,0.682-0.611c0.169-0.808,0.842-1.382,1.673-1.429
		c0.831-0.048,1.565,0.446,1.826,1.229c0.106,0.32,0.41,0.536,0.747,0.529c0.338-0.006,0.633-0.23,0.729-0.554
		c0.233-0.791,0.953-1.31,1.789-1.289c0.84,0.02,1.534,0.571,1.73,1.373c0.082,0.328,0.365,0.565,0.702,0.587
		c0.063,0.004,0.126,0.001,0.187-0.011c0.261-0.048,0.485-0.227,0.584-0.482c0.26-0.671,0.872-1.104,1.578-1.146
		c-0.035,0.041-0.065,0.083-0.104,0.123C241.561,262.934,241.482,263.031,241.403,263.13z"/>
</g>
<g>
	<path fill="#D0DAE3" d="M282.985,249.389c-3.221-5.22-20.995-9.703-29.926-5.528c-8.931,4.173-5.637,15.424-2.416,20.645
		s13.07,6.069,22.003,1.895C281.578,262.226,286.206,254.609,282.985,249.389z"/>
</g>
<g opacity="0.2">
	<path fill="#232323" d="M282.985,249.389c-0.26-0.42-0.623-0.836-1.06-1.242c0.754,4.924-3.722,10.921-11.279,14.452
		c-8.683,4.058-18.215,3.355-21.7-1.481c0.519,1.277,1.108,2.433,1.697,3.386c3.221,5.221,13.07,6.069,22.003,1.896
		C281.578,262.226,286.206,254.609,282.985,249.389z"/>
</g>
<ellipse opacity="0.2" fill="#232323" enable-background="new    " cx="257.651" cy="245.547" rx="1.5" ry="1.3"/>
<ellipse opacity="0.2" fill="#232323" enable-background="new    " cx="263.364" cy="247.537" rx="1.5" ry="1.3"/>
<ellipse opacity="0.2" fill="#232323" enable-background="new    " cx="256.651" cy="250.947" rx="2.531" ry="2.194"/>
<ellipse opacity="0.2" fill="#232323" enable-background="new    " cx="272.104" cy="249.646" rx="2.185" ry="1.894"/>
<ellipse opacity="0.2" fill="#232323" enable-background="new    " cx="264.528" cy="254.747" rx="1.607" ry="1.394"/>
<ellipse opacity="0.2" fill="#232323" enable-background="new    " cx="278.751" cy="251.646" rx="1.608" ry="1.394"/>
<ellipse opacity="0.2" fill="#232323" enable-background="new    " cx="255.75" cy="258.047" rx="1.407" ry="1.219"/>
<ellipse opacity="0.2" fill="#232323" enable-background="new    " cx="269.951" cy="256.647" rx="1.407" ry="1.219"/>
<ellipse opacity="0.2" fill="#232323" enable-background="new    " cx="265.951" cy="261.247" rx="1.055" ry="0.915"/>
<ellipse opacity="0.2" fill="#232323" enable-background="new    " cx="259.951" cy="258.447" rx="1.055" ry="0.915"/>
<ellipse opacity="0.2" fill="#232323" enable-background="new    " cx="250.552" cy="253.847" rx="1.055" ry="0.916"/>
<ellipse opacity="0.2" fill="#232323" enable-background="new    " cx="258.747" cy="262.444" rx="0.725" ry="0.628"/>
<ellipse opacity="0.2" fill="#232323" enable-background="new    " cx="268.935" cy="245.552" rx="0.726" ry="0.629"/>
<ellipse opacity="0.2" fill="#232323" enable-background="new    " cx="250.837" cy="248.635" rx="0.726" ry="0.629"/>
<ellipse opacity="0.2" fill="#232323" enable-background="new    " cx="252.579" cy="251.585" rx="0.726" ry="0.629"/>
<ellipse opacity="0.2" fill="#232323" enable-background="new    " cx="271.615" cy="246.223" rx="0.726" ry="0.628"/>
</svg>
