<?xml version="1.0" encoding="utf-8"?>
<!-- Generator: Adobe Illustrator 16.0.4, SVG Export Plug-In . SVG Version: 6.00 Build 0)  -->
<!DOCTYPE svg PUBLIC "-//W3C//DTD SVG 1.1//EN" "http://www.w3.org/Graphics/SVG/1.1/DTD/svg11.dtd">
<svg version="1.1" id="Layer_1" xmlns="http://www.w3.org/2000/svg" xmlns:xlink="http://www.w3.org/1999/xlink" x="0px" y="0px"
	 width="375px" height="375px" viewBox="0 0 375 375" enable-background="new 0 0 375 375" xml:space="preserve">
<g>
	<ellipse opacity="0.2" fill="#232323" enable-background="new    " cx="242.799" cy="270.101" rx="58.035" ry="9.369"/>
	<path fill="#413D45" d="M286.293,222.869h-15.409v-27.961c0-1.716-1.39-3.106-3.106-3.106h-49.956
		c-1.716,0-3.106,1.391-3.106,3.106v27.961h-15.409c-3.432,0-6.214,2.781-6.214,6.213v37.281c0,3.431,2.782,6.213,6.214,6.213
		h15.533v57.287c0,1.717,1.391,3.107,3.106,3.107h49.707c1.717,0,3.107-1.391,3.107-3.107v-57.287h15.533
		c3.431,0,6.213-2.782,6.213-6.213v-37.281C292.506,225.65,289.724,222.869,286.293,222.869z"/>
	<rect x="220.928" y="198.016" fill="#FFFFFF" width="43.742" height="24.854"/>
	<rect x="221.053" y="253.937" fill="#FFFFFF" width="43.493" height="72.82"/>
	<polygon fill="#E7ECF0" points="286.293,266.363 270.76,266.363 270.76,253.937 273.866,253.937 273.866,247.723 211.732,247.723 
		211.732,253.937 214.839,253.937 214.839,266.363 199.306,266.363 199.306,229.082 286.293,229.082 	"/>
	<rect x="272.938" y="235.296" fill="#413D45" width="6.214" height="6.213"/>
	<rect x="260.512" y="235.296" fill="#413D45" width="6.213" height="6.213"/>
	<g>
		<g>
			<g>
				<path fill="#FF7E1C" d="M259.732,315.783l-0.054-50.867c-0.001-1.56-1.267-2.824-2.825-2.822l-28.213,0.03
					c-1.559,0.001-2.82,1.269-2.818,2.829l0.055,50.865c0,1.561,1.266,2.824,2.823,2.823l28.214-0.03
					C258.472,318.609,259.734,317.343,259.732,315.783z"/>
			</g>
			<path fill="#FFFFFF" d="M230.057,266.361l5.642-0.006c0.003,3.121-2.521,5.653-5.637,5.656L230.057,266.361z"/>
			<path fill="#FFFFFF" d="M249.805,266.34l5.644-0.006l0.006,5.651C252.337,271.988,249.809,269.462,249.805,266.34z"/>
			<path fill="#FFFFFF" d="M230.107,314.402l-0.007-5.653c3.117-0.003,5.646,2.523,5.648,5.648L230.107,314.402z"/>
			<path fill="#FFFFFF" d="M249.856,314.382c-0.004-3.124,2.52-5.657,5.638-5.66l0.005,5.654L249.856,314.382z"/>
			<path fill="#FFFFFF" d="M232.902,290.372c-0.012-5.453,4.401-9.876,9.854-9.878c5.453-0.004,9.885,4.415,9.896,9.868
				c0.012,5.454-4.4,9.878-9.854,9.881C237.344,300.246,232.914,295.825,232.902,290.372z"/>
		</g>
		<g>
			<g>
				<g>
					<path fill="#FF7E1C" d="M242.551,294.186c-0.366,0.293-0.871,0.41-1.515,0.352c-0.778-0.088-1.343-0.41-1.693-0.967
						c-0.294-0.484-0.469-1.21-0.528-2.178h-1.494v-1.075h1.474v-0.835h-1.474v-1.078h1.494v-2.131l1.275,0.22v0.22
						c-0.016,0.352-0.007,0.577,0.022,0.68c0.044,0.147,0.153,0.235,0.329,0.265h4.77c0.234-0.044,0.381-0.168,0.439-0.373
						c0.044-0.132,0.059-0.41,0.044-0.835v-0.176h1.143l-0.022,0.659c0,0.776,0.008,1.267,0.022,1.472h1.735v1.078h-1.715
						l0.023,0.835h1.691v1.075h-1.736c-0.072,0.747-0.233,1.318-0.482,1.715c-0.293,0.483-0.732,0.747-1.318,0.791
						c-0.85,0.088-1.45-0.211-1.803-0.9l0,0C243.116,293.541,242.888,293.937,242.551,294.186L242.551,294.186z M243.497,289.503
						v0.176c-0.016,0.615,0.021,1.093,0.108,1.43c0.146,0.586,0.463,0.879,0.946,0.879s0.806-0.286,0.967-0.858
						c0.089-0.322,0.124-0.797,0.108-1.427c-0.014-0.104-0.021-0.17-0.021-0.199H243.497L243.497,289.503z M240.09,289.702
						c-0.015,0.747,0.023,1.311,0.111,1.691c0.176,0.688,0.527,1.034,1.055,1.034s0.879-0.338,1.055-1.012
						c0.102-0.365,0.138-0.923,0.108-1.67v-0.243h-2.329V289.702L240.09,289.702z"/>
				</g>
			</g>
		</g>
	</g>
</g>
<g>
	<g>
		
			<line fill="none" stroke="#FF2402" stroke-width="5" stroke-linecap="round" stroke-miterlimit="10" x1="117.146" y1="261.935" x2="147.145" y2="231.935"/>
	</g>
	<g>
		
			<line fill="none" stroke="#FF2402" stroke-width="5" stroke-linecap="round" stroke-miterlimit="10" x1="147.145" y1="261.933" x2="117.146" y2="231.936"/>
	</g>
</g>
<g>
	<path fill="#EA651B" d="M292.706,107.667c1.152,1.105,2.495,2.051,4.011,2.78c7.7,3.704,16.946,0.466,20.65-7.235
		c1.977-4.108,1.975-8.655,0.375-12.566c-0.051,2.58-0.642,5.19-1.834,7.668C311.714,107.034,301.598,110.984,292.706,107.667z"/>
	<g>
		<path fill="#FF7E1C" d="M289.482,89.797c-2.975,6.184-1.471,13.362,3.224,17.869c8.892,3.317,19.008-0.633,23.202-9.353
			c1.192-2.479,1.783-5.088,1.834-7.669c-1.396-3.421-4.018-6.354-7.61-8.083C302.432,78.858,293.188,82.098,289.482,89.797z"/>
	</g>
</g>
<g>
	<path fill="#EA651B" d="M227.492,153c1.152,1.105,2.496,2.051,4.012,2.781c7.699,3.703,16.945,0.465,20.65-7.236
		c1.976-4.107,1.975-8.655,0.375-12.566c-0.051,2.58-0.643,5.19-1.834,7.668C246.5,152.367,236.385,156.318,227.492,153z"/>
	<path fill="#FF7E1C" d="M224.27,135.13c-2.975,6.184-1.471,13.362,3.223,17.869c8.892,3.318,19.008-0.633,23.203-9.353
		c1.191-2.478,1.783-5.088,1.834-7.669c-1.397-3.42-4.019-6.354-7.611-8.082C237.218,124.191,227.974,127.431,224.27,135.13z"/>
</g>
<g>
	<path fill="#EA651B" d="M195.613,67.667c1.152,1.105,2.494,2.051,4.011,2.781c7.7,3.704,16.946,0.465,20.65-7.236
		c1.976-4.108,1.975-8.655,0.375-12.567c-0.051,2.581-0.642,5.191-1.834,7.668C214.621,67.034,204.505,70.984,195.613,67.667z"/>
	<path fill="#FF7E1C" d="M192.39,49.797c-2.975,6.184-1.471,13.362,3.224,17.869c8.891,3.318,19.008-0.633,23.202-9.353
		c1.192-2.478,1.783-5.088,1.834-7.669c-1.397-3.42-4.019-6.354-7.611-8.083C205.338,38.858,196.094,42.098,192.39,49.797z"/>
</g>
<g>
	<path fill="#EA651B" d="M153.733,133c1.152,1.105,2.495,2.051,4.011,2.781c7.7,3.703,16.946,0.465,20.65-7.236
		c1.976-4.107,1.975-8.655,0.375-12.566c-0.051,2.58-0.643,5.19-1.834,7.668C172.741,132.367,162.625,136.318,153.733,133z"/>
	<path fill="#FF7E1C" d="M150.51,115.13c-2.975,6.184-1.471,13.362,3.223,17.869c8.892,3.318,19.008-0.633,23.203-9.353
		c1.192-2.478,1.783-5.088,1.834-7.668c-1.398-3.421-4.019-6.355-7.611-8.083C163.458,104.191,154.214,107.431,150.51,115.13z"/>
</g>
<g>
	<path fill="#EA651B" d="M59.856,166.667c1.152,1.105,2.495,2.051,4.011,2.78c7.7,3.704,16.947,0.466,20.651-7.235
		c1.976-4.108,1.975-8.655,0.375-12.567c-0.051,2.581-0.643,5.191-1.834,7.669C78.864,166.034,68.749,169.984,59.856,166.667z"/>
	<path fill="#FF7E1C" d="M56.633,148.297c-2.975,6.184-1.471,13.362,3.223,17.869c8.891,3.317,19.007-0.633,23.202-9.353
		c1.192-2.479,1.784-5.088,1.834-7.669c-1.397-3.421-4.019-6.354-7.611-8.083C69.582,137.358,60.337,140.597,56.633,148.297z"/>
</g>
<g>
	<path fill="#EA651B" d="M103.853,92.333c1.152,1.105,2.495,2.051,4.011,2.78c7.7,3.704,16.946,0.466,20.65-7.235
		c1.976-4.108,1.975-8.656,0.375-12.567c-0.051,2.581-0.643,5.191-1.834,7.668C122.861,91.701,112.745,95.651,103.853,92.333z"/>
	<path fill="#FF7E1C" d="M100.63,74.464c-2.975,6.183-1.471,13.361,3.223,17.869c8.892,3.317,19.008-0.633,23.203-9.353
		c1.192-2.479,1.784-5.088,1.834-7.669c-1.398-3.421-4.019-6.355-7.611-8.083C113.578,63.525,104.334,66.764,100.63,74.464z"/>
</g>
<line fill="none" stroke="#FFFFFF" stroke-width="2" stroke-linecap="round" stroke-miterlimit="10" stroke-dasharray="4,7" x1="283" y1="87.924" x2="225.666" y2="61.591"/>
<line fill="none" stroke="#FFFFFF" stroke-width="2" stroke-linecap="round" stroke-miterlimit="10" stroke-dasharray="4,7" x1="217.333" y1="136.591" x2="184.667" y2="126.591"/>
<line fill="none" stroke="#FFFFFF" stroke-width="2" stroke-linecap="round" stroke-miterlimit="10" stroke-dasharray="4,7" x1="216.467" y1="73.891" x2="231.5" y2="122.258"/>
<line fill="none" stroke="#FFFFFF" stroke-width="2" stroke-linecap="round" stroke-miterlimit="10" stroke-dasharray="4,7" x1="291.602" y1="110.206" x2="254.018" y2="131.123"/>
<line fill="none" stroke="#FFFFFF" stroke-width="2" stroke-linecap="round" stroke-miterlimit="10" stroke-dasharray="4,7" x1="196" y1="72.591" x2="175" y2="106.258"/>
<line fill="none" stroke="#FFFFFF" stroke-width="2" stroke-linecap="round" stroke-miterlimit="10" stroke-dasharray="4,7" x1="144.929" y1="126.417" x2="86.333" y2="147.591"/>
<line fill="none" stroke="#FFFFFF" stroke-width="2" stroke-linecap="round" stroke-miterlimit="10" stroke-dasharray="4,7" x1="101.768" y1="94.873" x2="75.518" y2="139.123"/>
<line fill="none" stroke="#FFFFFF" stroke-width="2" stroke-linecap="round" stroke-miterlimit="10" stroke-dasharray="4,7" x1="184.667" y1="61.091" x2="133.833" y2="75.091"/>
<line fill="none" stroke="#FFFFFF" stroke-width="2" stroke-linecap="round" stroke-miterlimit="10" stroke-dasharray="4,7" x1="128.667" y1="93.591" x2="149.05" y2="110.808"/>
<polyline fill="none" stroke="#FFFFFF" stroke-width="2" stroke-linecap="round" stroke-miterlimit="10" stroke-dasharray="4,7" points="
	69.667,177.392 69.667,247.393 117.667,247.393 "/>
<line fill="none" stroke="#FFFFFF" stroke-width="2" stroke-linecap="round" stroke-miterlimit="10" stroke-dasharray="4,7" x1="146.667" y1="247.393" x2="184.667" y2="247.393"/>
</svg>
