<?xml version="1.0" encoding="utf-8"?>
<!-- Generator: Adobe Illustrator 16.0.4, SVG Export Plug-In . SVG Version: 6.00 Build 0)  -->
<!DOCTYPE svg PUBLIC "-//W3C//DTD SVG 1.1//EN" "http://www.w3.org/Graphics/SVG/1.1/DTD/svg11.dtd">
<svg version="1.1" id="Layer_1" xmlns="http://www.w3.org/2000/svg" xmlns:xlink="http://www.w3.org/1999/xlink" x="0px" y="0px"
	 width="300px" height="225px" viewBox="37.5 75 300 225" enable-background="new 37.5 75 300 225" xml:space="preserve">
<g>
	<ellipse opacity="0.2" fill="#232323" enable-background="new    " cx="230.004" cy="251.547" rx="44.729" ry="7.221"/>
	<path fill="#232323" d="M263.525,215.145h-11.876v-21.55c0-1.323-1.071-2.394-2.394-2.394h-38.5c-1.324,0-2.395,1.072-2.395,2.394
		v21.55h-11.873c-2.646,0-4.79,2.143-4.79,4.788v28.732c0,2.645,2.144,4.789,4.79,4.789h11.97v44.151
		c0,1.322,1.073,2.395,2.392,2.395h38.309c1.326,0,2.396-1.074,2.396-2.395v-44.151h11.972c2.645,0,4.788-2.145,4.788-4.789v-28.732
		C268.313,217.287,266.17,215.145,263.525,215.145z"/>
	<rect x="213.148" y="195.99" fill="#FFFFFF" width="33.712" height="19.155"/>
	<rect x="213.244" y="239.089" fill="#FFFFFF" width="33.521" height="56.122"/>
	<polygon fill="#E7ECF0" points="263.525,248.665 251.554,248.665 251.554,239.089 253.948,239.089 253.948,234.299 
		206.062,234.299 206.062,239.089 208.456,239.089 208.456,248.665 196.485,248.665 196.485,219.933 263.525,219.933 	"/>
	<rect x="253.232" y="224.722" fill="#232323" width="4.789" height="4.789"/>
	<rect x="243.656" y="224.722" fill="#232323" width="4.787" height="4.789"/>
	<g>
		<g>
			<g>
				<path fill="#FF7E1C" d="M243.055,286.753l-0.043-39.203c-0.001-1.203-0.977-2.177-2.176-2.175l-21.743,0.023
					c-1.203,0-2.174,0.978-2.173,2.18l0.043,39.202c0,1.202,0.976,2.178,2.176,2.176l21.744-0.023
					C242.084,288.932,243.057,287.956,243.055,286.753z"/>
			</g>
			<path fill="#FFFFFF" d="M220.184,248.664l4.351-0.005c0.002,2.406-1.943,4.355-4.346,4.357L220.184,248.664z"/>
			<path fill="#FFFFFF" d="M235.404,248.647l4.351-0.005l0.005,4.354C237.355,253,235.407,251.054,235.404,248.647z"/>
			<path fill="#FFFFFF" d="M220.224,285.689l-0.007-4.357c2.4-0.003,4.352,1.944,4.353,4.353L220.224,285.689z"/>
			<path fill="#FFFFFF" d="M235.442,285.673c-0.003-2.407,1.943-4.359,4.346-4.361l0.004,4.357L235.442,285.673z"/>
			<path fill="#FFFFFF" d="M222.377,267.169c-0.009-4.203,3.39-7.611,7.594-7.613c4.203-0.003,7.619,3.403,7.627,7.605
				c0.01,4.203-3.391,7.613-7.594,7.616C225.801,274.778,222.387,271.372,222.377,267.169z"/>
		</g>
		<g>
			<g>
				<g>
					<path fill="#FF7E1C" d="M229.812,270.107c-0.281,0.227-0.67,0.316-1.167,0.274c-0.6-0.068-1.035-0.316-1.305-0.748
						c-0.228-0.371-0.361-0.932-0.407-1.679h-1.152v-0.828h1.139v-0.644h-1.139v-0.831h1.152v-1.642l0.982,0.171v0.169
						c-0.012,0.274-0.005,0.445,0.018,0.526c0.034,0.113,0.118,0.18,0.254,0.204h3.676c0.181-0.034,0.293-0.129,0.338-0.287
						c0.034-0.102,0.046-0.316,0.034-0.644v-0.136h0.881l-0.018,0.508c0,0.597,0.009,0.977,0.018,1.135h1.338v0.83h-1.322
						l0.017,0.644h1.301v0.829h-1.336c-0.054,0.575-0.178,1.014-0.37,1.321c-0.226,0.371-0.564,0.575-1.016,0.61
						c-0.655,0.067-1.118-0.163-1.389-0.694l0,0C230.248,269.611,230.073,269.917,229.812,270.107L229.812,270.107z
						 M230.542,266.499v0.136c-0.013,0.474,0.016,0.843,0.084,1.103c0.111,0.451,0.356,0.677,0.727,0.677
						c0.373,0,0.623-0.218,0.747-0.659c0.069-0.247,0.097-0.614,0.082-1.1c-0.013-0.08-0.016-0.131-0.016-0.153L230.542,266.499
						L230.542,266.499z M227.916,266.653c-0.011,0.575,0.019,1.01,0.086,1.302c0.136,0.53,0.406,0.796,0.812,0.796
						c0.407,0,0.678-0.261,0.813-0.78c0.08-0.281,0.108-0.711,0.083-1.286v-0.188h-1.795V266.653L227.916,266.653z"/>
				</g>
			</g>
		</g>
	</g>
</g>
<g>
	<g>
		
			<line fill="none" stroke="#FF2402" stroke-width="3.8535" stroke-linecap="round" stroke-miterlimit="10" x1="133.163" y1="245.253" x2="156.283" y2="222.132"/>
	</g>
	<g>
		
			<line fill="none" stroke="#FF2402" stroke-width="3.8535" stroke-linecap="round" stroke-miterlimit="10" x1="156.283" y1="245.252" x2="133.163" y2="222.132"/>
	</g>
</g>
<g>
	<path fill="#EA651B" d="M268.468,126.358c0.888,0.852,1.923,1.581,3.091,2.143c5.935,2.854,13.061,0.359,15.916-5.577
		c1.523-3.166,1.521-6.67,0.289-9.685c-0.04,1.989-0.497,4-1.413,5.91C283.117,125.87,275.32,128.914,268.468,126.358z"/>
	<g>
		<path fill="#FF7E1C" d="M265.983,112.585c-2.295,4.766-1.136,10.299,2.484,13.772c6.853,2.556,14.649-0.488,17.883-7.208
			c0.916-1.911,1.373-3.921,1.413-5.91c-1.077-2.637-3.1-4.897-5.865-6.229C275.964,104.155,268.839,106.652,265.983,112.585z"/>
	</g>
</g>
<g>
	<path fill="#EA651B" d="M218.207,161.296c0.889,0.852,1.924,1.581,3.093,2.144c5.934,2.854,13.059,0.358,15.914-5.577
		c1.523-3.165,1.522-6.67,0.29-9.685c-0.039,1.989-0.498,4-1.414,5.91C232.856,160.808,225.061,163.853,218.207,161.296z"/>
	<path fill="#FF7E1C" d="M215.724,147.523c-2.293,4.766-1.134,10.299,2.486,13.772c6.854,2.557,14.649-0.488,17.88-7.208
		c0.918-1.91,1.375-3.921,1.414-5.911c-1.076-2.635-3.097-4.897-5.864-6.229C225.702,139.093,218.579,141.59,215.724,147.523z"/>
</g>
<g>
	<path fill="#EA651B" d="M193.639,95.529c0.888,0.852,1.922,1.581,3.091,2.144c5.935,2.854,13.061,0.358,15.915-5.577
		c1.522-3.166,1.521-6.67,0.288-9.685c-0.039,1.989-0.495,4-1.413,5.91C208.287,95.042,200.491,98.086,193.639,95.529z"/>
	<path fill="#FF7E1C" d="M191.154,81.757c-2.293,4.766-1.135,10.298,2.486,13.771c6.853,2.557,14.649-0.488,17.88-7.208
		c0.919-1.91,1.375-3.921,1.413-5.911c-1.075-2.636-3.097-4.897-5.863-6.229C201.133,73.327,194.009,75.823,191.154,81.757z"/>
</g>
<g>
	<path fill="#EA651B" d="M161.361,145.882c0.888,0.852,1.923,1.581,3.091,2.144c5.934,2.854,13.061,0.358,15.915-5.577
		c1.523-3.165,1.522-6.67,0.289-9.685c-0.04,1.989-0.496,4-1.414,5.91C176.011,145.394,168.214,148.439,161.361,145.882z"/>
	<path fill="#FF7E1C" d="M158.877,132.109c-2.292,4.766-1.133,10.299,2.484,13.772c6.854,2.557,14.65-0.488,17.883-7.208
		c0.918-1.91,1.375-3.921,1.414-5.91c-1.078-2.636-3.098-4.897-5.866-6.229C168.856,123.679,161.731,126.176,158.877,132.109z"/>
</g>
<g>
	<path fill="#EA651B" d="M89.01,171.829c0.888,0.852,1.923,1.581,3.091,2.143c5.934,2.854,13.061,0.359,15.916-5.577
		c1.523-3.166,1.522-6.67,0.29-9.686c-0.04,1.989-0.496,4.001-1.414,5.911C103.659,171.342,95.863,174.386,89.01,171.829z"/>
	<path fill="#FF7E1C" d="M86.525,157.671c-2.292,4.766-1.133,10.298,2.484,13.772c6.852,2.556,14.648-0.488,17.882-7.209
		c0.918-1.91,1.375-3.921,1.414-5.91c-1.077-2.636-3.098-4.897-5.866-6.23C96.505,149.241,89.38,151.737,86.525,157.671z"/>
</g>
<g>
	<path fill="#EA651B" d="M122.918,114.54c0.888,0.852,1.923,1.581,3.091,2.143c5.935,2.855,13.061,0.359,15.916-5.576
		c1.523-3.166,1.522-6.671,0.289-9.685c-0.04,1.989-0.496,4-1.414,5.909C137.567,114.053,129.771,117.097,122.918,114.54z"/>
	<path fill="#FF7E1C" d="M120.434,100.768c-2.292,4.765-1.133,10.298,2.484,13.771c6.853,2.557,14.649-0.487,17.883-7.208
		c0.918-1.91,1.375-3.921,1.414-5.91c-1.078-2.637-3.098-4.898-5.867-6.23C130.413,92.337,123.289,94.833,120.434,100.768z"/>
</g>
<line fill="none" stroke="#232323" stroke-width="1.5414" stroke-linecap="round" stroke-miterlimit="10" stroke-dasharray="3.0828,5.3949" x1="260.987" y1="111.142" x2="216.8" y2="90.847"/>
<line fill="none" stroke="#232323" stroke-width="1.5414" stroke-linecap="round" stroke-miterlimit="10" stroke-dasharray="3.0828,5.3949" x1="210.378" y1="148.649" x2="185.202" y2="140.942"/>
<line fill="none" stroke="#232323" stroke-width="1.5414" stroke-linecap="round" stroke-miterlimit="10" stroke-dasharray="3.0828,5.3949" x1="209.71" y1="100.327" x2="221.296" y2="137.603"/>
<line fill="none" stroke="#232323" stroke-width="1.5414" stroke-linecap="round" stroke-miterlimit="10" stroke-dasharray="3.0828,5.3949" x1="267.617" y1="128.315" x2="238.65" y2="144.436"/>
<line fill="none" stroke="#232323" stroke-width="1.5414" stroke-linecap="round" stroke-miterlimit="10" stroke-dasharray="3.0828,5.3949" x1="193.937" y1="99.325" x2="177.751" y2="125.272"/>
<line fill="none" stroke="#232323" stroke-width="1.5414" stroke-linecap="round" stroke-miterlimit="10" stroke-dasharray="3.0828,5.3949" x1="154.576" y1="140.809" x2="109.416" y2="157.127"/>
<line fill="none" stroke="#232323" stroke-width="1.5414" stroke-linecap="round" stroke-miterlimit="10" stroke-dasharray="3.0828,5.3949" x1="121.312" y1="116.498" x2="101.081" y2="150.601"/>
<line fill="none" stroke="#232323" stroke-width="1.5414" stroke-linecap="round" stroke-miterlimit="10" stroke-dasharray="3.0828,5.3949" x1="185.202" y1="90.461" x2="146.024" y2="101.251"/>
<line fill="none" stroke="#232323" stroke-width="1.5414" stroke-linecap="round" stroke-miterlimit="10" stroke-dasharray="3.0828,5.3949" x1="142.042" y1="115.509" x2="157.751" y2="128.779"/>
<polyline fill="none" stroke="#232323" stroke-width="1.5414" stroke-linecap="round" stroke-miterlimit="10" stroke-dasharray="3.0828,5.3949" points="
	96.571,180.095 96.571,234.045 133.565,234.045 "/>
<line fill="none" stroke="#232323" stroke-width="1.5414" stroke-linecap="round" stroke-miterlimit="10" stroke-dasharray="3.0828,5.3949" x1="155.915" y1="234.045" x2="185.202" y2="234.045"/>
</svg>
