<?xml version="1.0" encoding="utf-8"?>
<!-- Generator: Adobe Illustrator 16.0.4, SVG Export Plug-In . SVG Version: 6.00 Build 0)  -->
<!DOCTYPE svg PUBLIC "-//W3C//DTD SVG 1.1//EN" "http://www.w3.org/Graphics/SVG/1.1/DTD/svg11.dtd">
<svg version="1.1" id="Layer_1" xmlns="http://www.w3.org/2000/svg" xmlns:xlink="http://www.w3.org/1999/xlink" x="0px" y="0px"
	 width="375px" height="375px" viewBox="0 0 375 375" enable-background="new 0 0 375 375" xml:space="preserve">
<path fill="#444444" d="M227.723,194.399c-1.668-15.608-8.145-34.655-20.476-41.533c-5.286-2.947-11.438-5.081-19.917-6.513
	c-2.015,0.333-3.89,0.708-5.663,1.123c-0.308,0.072-0.606,0.147-0.906,0.223c-0.526,0.13-1.045,0.263-1.551,0.401
	c-0.321,0.087-0.639,0.175-0.952,0.266c-0.51,0.146-1.008,0.299-1.499,0.455c-0.256,0.081-0.519,0.159-0.771,0.243
	c-0.707,0.234-1.397,0.477-2.069,0.729c-0.197,0.074-0.386,0.153-0.58,0.229c-0.505,0.196-1.003,0.396-1.489,0.604
	c-0.228,0.098-0.453,0.196-0.677,0.297c-0.464,0.205-0.92,0.417-1.369,0.634c-0.192,0.092-0.386,0.183-0.575,0.277
	c-0.625,0.312-1.239,0.628-1.839,0.96c-13.228,7.315-19.803,28.6-20.925,44.704c-0.099,2.341-0.145,4.586-0.14,6.697
	c0.008,5.448,0.343,9.974,0.992,12.71c0.03,0.127,0.086,0.25,0.124,0.375c3.289,14.98,19.835,26.396,39.787,26.432
	c22.343,0.043,40.48-14.195,40.514-31.802c0-0.162-0.012-0.321-0.016-0.483C228.078,206.884,228.088,200.89,227.723,194.399z"/>
<path fill="#FFFFFF" d="M217.143,150.729c-5.107-5.834-11.743-8.704-24.819-9.276c-0.205-0.01-0.418-0.016-0.627-0.023
	c-0.658-0.025-1.327-0.047-2.019-0.062c-0.685-0.014-1.381-0.023-2.099-0.026c-0.083,0-0.157-0.004-0.241-0.004h-0.016
	c-0.025,0-0.05,0-0.076,0c-0.015,0-0.027,0-0.043,0h-0.012c-0.047,0-0.092,0.002-0.141,0.002c-0.756,0-1.493,0.008-2.213,0.021
	c-0.823,0.012-1.616,0.036-2.392,0.065c-0.075,0.003-0.154,0.005-0.229,0.008c-13.088,0.522-19.737,3.369-24.865,9.186
	c-6.785,7.695-10.245,29.729-10.96,46.878c1.122-16.104,7.697-37.389,20.924-44.704c5.295-2.928,11.455-5.04,19.938-6.438
	c8.479,1.432,14.629,3.564,19.916,6.513c13.199,7.362,19.695,28.673,20.758,44.779C227.277,180.495,223.898,158.448,217.143,150.729
	z"/>
<path fill="#232323" d="M162.02,157.022c2.252-2.74,6.101-3.558,9.148-1.146c3.033,2.39,3.584,8.204,0.466,12.052
	c-8.853,10.94-21.847,16.313-35.844,14.812c-4.92-0.523-8.642-5.029-8.18-8.858c0.458-3.861,3.761-6,7.291-5.652
	C145.487,169.362,155.319,165.302,162.02,157.022z"/>
<path fill="#232323" d="M122.335,173.027c-1.02-0.075-1.977-0.603-2.09-1.354c-0.116-0.75,0.83-1.622,2.13-1.741
	c3.52-0.324,7.128,0.482,10.261,2.38c1.166,0.708,1.193,2.212,0.185,3.168c-1.008,0.959-2.289,1.187-2.998,0.584
	C127.813,174.341,125.203,173.229,122.335,173.027z"/>
<path fill="#232323" d="M123.174,179.015c-0.938,0.396-2.034,0.361-2.476-0.254c-0.444-0.612,0-1.82,1.103-2.519
	c2.992-1.893,6.565-2.818,10.221-2.553c1.358,0.097,2.065,1.422,1.604,2.733c-0.458,1.314-1.498,2.098-2.399,1.883
	C128.651,177.692,125.821,177.892,123.174,179.015z"/>
<path fill="#232323" d="M212.457,157.022c-2.252-2.74-6.102-3.558-9.148-1.146c-3.033,2.39-3.584,8.204-0.465,12.052
	c8.852,10.94,21.848,16.313,35.844,14.812c4.922-0.523,8.643-5.029,8.18-8.858c-0.457-3.861-3.76-6-7.291-5.652
	C228.988,169.362,219.158,165.302,212.457,157.022z"/>
<path fill="#232323" d="M251.336,177.274c1.012-0.174,2.068,0.107,2.363,0.81c0.291,0.693-0.414,1.778-1.646,2.2
	c-3.338,1.172-7.029,1.268-10.531,0.186c-1.305-0.406-1.695-1.855-0.951-3.027c0.748-1.18,1.936-1.707,2.766-1.295
	C245.705,177.328,248.508,177.776,251.336,177.274z"/>
<path fill="#232323" d="M250.434,171.425c0.92-0.447,2.012-0.473,2.486,0.123c0.479,0.589,0.098,1.817-0.967,2.574
	c-2.881,2.048-6.408,3.162-10.068,3.096c-1.363-0.027-2.143-1.314-1.752-2.647c0.393-1.335,1.385-2.175,2.299-2.011
	C245.037,173.039,247.854,172.69,250.434,171.425z"/>
<path fill="#FFFFFF" d="M187.092,89.812c-7.222-0.014-15.646-2.861-20.418-4.079c-5.594-1.425-8.251-1.472-12.379-1.479
	c-12.493-0.023-16.344,6.521-17.399,9.192c8.243-25.309,34.311-28.815,49.713-28.787l1.271,0.003
	c15.398,0.028,41.455,3.629,49.607,28.971c-1.043-2.676-4.873-9.234-17.367-9.26c-4.125-0.008-6.785,0.03-12.384,1.436
	c-4.78,1.2-13.212,4.018-20.435,4.004H187.092z"/>
<path fill="#444444" d="M237.441,93.655l0.043-0.021c-1.043-2.676-4.873-9.234-17.365-9.26c-4.127-0.008-6.787,0.03-12.385,1.436
	c-4.78,1.2-13.212,4.018-20.436,4.004h-0.207c-7.222-0.014-15.646-2.861-20.418-4.079c-5.594-1.425-8.251-1.473-12.379-1.479
	c-12.493-0.024-16.344,6.521-17.399,9.191l0.043,0.022c-2.647,2.527-4.416,9.18-4.196,16.955c0.274,9.857,3.633,17.767,7.5,17.66
	c0.073-0.003,0.143-0.025,0.214-0.033c8.953,18.09,33.567,26.516,46.488,26.54c12.919,0.022,37.743-8.312,46.828-26.372
	c0.081,0.009,0.159,0.037,0.241,0.038c3.861,0.118,7.252-7.776,7.562-17.634C241.822,102.85,240.08,96.194,237.441,93.655z"/>
<path fill="#7F7F7F" d="M187.045,141.534c-6.528-0.012-20.381-6.086-20.354-19.368c0.024-13.279,15.316-14.306,20.464-14.296
	c5.149,0.009,20.453,1.092,20.429,14.37C207.559,135.523,193.577,141.547,187.045,141.534z"/>
<path fill="#232323" d="M187.461,111.355c2.838,0.006,7.026,2.975,7.516,6.431c0.486,3.456-7.721,3.317-7.721,3.317h-0.235
	c0,0-8.206,0.108-7.707-3.348c0.499-3.452,4.7-6.406,7.54-6.4H187.461z"/>
<g>
	<circle fill="#232323" cx="166.235" cy="101.25" r="2.508"/>
	<path fill="#232323" d="M210.623,101.331c-0.004,1.389-1.127,2.506-2.515,2.505c-1.382-0.003-2.504-1.127-2.503-2.513
		c0.003-1.387,1.128-2.508,2.512-2.505C209.506,98.821,210.627,99.946,210.623,101.331z"/>
</g>
<path fill="#232323" d="M232.113,99.286c3.184,0.124,5.758,6.131,6.73,14.611c0.113-1.065,0.195-2.174,0.225-3.322
	c0.207-7.749-1.672-14.107-4.189-14.206c-1.074-0.041-2.086,1.065-2.916,2.936C232.012,99.305,232.062,99.285,232.113,99.286z"/>
<path fill="#232323" d="M142.246,99.121c-3.184,0.113-5.783,6.11-6.786,14.587c-0.11-1.065-0.186-2.176-0.212-3.325
	c-0.177-7.747,1.725-14.102,4.243-14.188c1.069-0.036,2.082,1.074,2.905,2.946C142.345,99.141,142.297,99.121,142.246,99.121z"/>
<path fill="none" stroke="#7F7F7F" stroke-width="1.9744" stroke-linecap="round" stroke-miterlimit="10" d="M161.46,93.844
	c0.649-0.602,1.405-1.063,2.219-1.37c0.814-0.308,1.686-0.458,2.568-0.435c0.883,0.021,1.775,0.218,2.632,0.604
	s1.593,0.931,2.191,1.581"/>
<path fill="none" stroke="#7F7F7F" stroke-width="1.9744" stroke-linecap="round" stroke-miterlimit="10" d="M203.44,93.844
	c0.649-0.602,1.405-1.063,2.218-1.37c0.814-0.308,1.688-0.458,2.569-0.435c0.882,0.021,1.776,0.218,2.632,0.604
	c0.855,0.388,1.592,0.931,2.191,1.581"/>
<path fill="none" stroke="#232323" stroke-width="1.7887" stroke-linecap="round" stroke-miterlimit="10" d="M176.961,128.207
	c0.546,1.302,1.343,2.477,2.324,3.463c0.981,0.986,2.156,1.781,3.454,2.337c1.297,0.553,2.728,0.858,4.231,0.861
	c1.501,0.003,2.93-0.298,4.237-0.847c1.304-0.549,2.475-1.341,3.46-2.324c0.985-0.981,1.786-2.154,2.339-3.455"/>
<g>
	<path fill="#D0DAE3" d="M67.712,277.055l1.648-0.205v-7.99l-1.677,0.029v-0.901l3.12-0.674v9.536l1.641,0.205v0.923h-4.731V277.055
		z"/>
	<path fill="#D0DAE3" d="M76.75,277.004c0.693,0,1.241-0.266,1.645-0.795c0.402-0.53,0.611-1.383,0.626-2.56l-0.029-0.037
		c-0.195,0.327-0.469,0.579-0.82,0.755s-0.747,0.264-1.187,0.264c-1.04,0-1.86-0.321-2.461-0.964
		c-0.601-0.642-0.901-1.544-0.901-2.706c0-1.113,0.321-2.025,0.963-2.735c0.642-0.711,1.422-1.065,2.34-1.065
		c1.113,0,1.991,0.348,2.633,1.043c0.643,0.696,0.963,1.726,0.963,3.088v1.926c0,1.665-0.343,2.9-1.029,3.706
		c-0.687,0.806-1.601,1.209-2.743,1.209c-0.371,0-0.751-0.036-1.139-0.106c-0.389-0.07-0.736-0.18-1.044-0.326l0.22-1.091
		c0.298,0.142,0.602,0.242,0.912,0.304C76.009,276.973,76.359,277.004,76.75,277.004z M76.984,273.495
		c0.532,0,0.976-0.114,1.329-0.344c0.354-0.229,0.609-0.522,0.766-0.879v-1.128c0-0.942-0.18-1.653-0.538-2.132
		c-0.359-0.479-0.883-0.718-1.571-0.718c-0.532,0-0.982,0.249-1.352,0.747c-0.368,0.498-0.553,1.138-0.553,1.919
		c0,0.767,0.171,1.381,0.513,1.842C75.92,273.265,76.389,273.495,76.984,273.495z"/>
	<path fill="#D0DAE3" d="M82.17,277.978v-0.988l3.494-3.882c0.625-0.698,1.048-1.253,1.271-1.663c0.222-0.41,0.333-0.83,0.333-1.26
		c0-0.532-0.156-0.98-0.469-1.344c-0.312-0.364-0.725-0.546-1.238-0.546c-0.737,0-1.279,0.188-1.626,0.564s-0.52,0.908-0.52,1.597
		h-1.384l-0.015-0.044c-0.024-0.918,0.28-1.689,0.912-2.314c0.633-0.625,1.51-0.938,2.633-0.938c0.962,0,1.727,0.279,2.296,0.838
		c0.568,0.56,0.853,1.271,0.853,2.136c0,0.581-0.172,1.162-0.516,1.743c-0.345,0.581-0.829,1.208-1.454,1.882l-2.805,3.055
		l0.015,0.036h3.787l0.117-1.223h1.223v2.351H82.17z"/>
	<path fill="#D0DAE3" d="M97.419,273.913c0,1.362-0.303,2.405-0.908,3.131c-0.605,0.725-1.433,1.088-2.483,1.088
		c-1.045,0-1.873-0.364-2.483-1.092s-0.916-1.77-0.916-3.127v-2.527c0-1.357,0.303-2.401,0.908-3.131s1.431-1.095,2.476-1.095
		c1.05,0,1.88,0.365,2.49,1.095s0.916,1.773,0.916,3.131V273.913z M95.976,271.078c0-0.923-0.167-1.617-0.501-2.084
		c-0.335-0.466-0.822-0.699-1.461-0.699c-0.63,0-1.111,0.233-1.443,0.699c-0.332,0.467-0.498,1.161-0.498,2.084v3.128
		c0,0.923,0.168,1.619,0.505,2.091c0.337,0.471,0.82,0.707,1.45,0.707c0.64,0,1.125-0.234,1.454-0.703
		c0.33-0.469,0.495-1.167,0.495-2.095V271.078z"/>
</g>
<g>
	<path fill="#D0DAE3" d="M276.372,277.978v-0.988l3.494-3.882c0.625-0.698,1.048-1.253,1.271-1.663s0.333-0.83,0.333-1.26
		c0-0.532-0.156-0.98-0.469-1.344c-0.312-0.364-0.725-0.546-1.237-0.546c-0.737,0-1.279,0.188-1.626,0.564s-0.521,0.908-0.521,1.597
		h-1.384l-0.015-0.044c-0.024-0.918,0.279-1.689,0.912-2.314c0.632-0.625,1.51-0.938,2.633-0.938c0.962,0,1.727,0.279,2.296,0.838
		c0.569,0.56,0.854,1.271,0.854,2.136c0,0.581-0.173,1.162-0.517,1.743s-0.829,1.208-1.454,1.882l-2.805,3.055l0.015,0.036h3.786
		l0.117-1.223h1.224v2.351H276.372z"/>
	<path fill="#D0DAE3" d="M291.621,273.913c0,1.362-0.303,2.405-0.908,3.131c-0.605,0.725-1.433,1.088-2.482,1.088
		c-1.045,0-1.873-0.364-2.483-1.092s-0.915-1.77-0.915-3.127v-2.527c0-1.357,0.303-2.401,0.908-3.131s1.431-1.095,2.476-1.095
		c1.05,0,1.88,0.365,2.49,1.095s0.915,1.773,0.915,3.131V273.913z M290.179,271.078c0-0.923-0.167-1.617-0.502-2.084
		c-0.335-0.466-0.821-0.699-1.461-0.699c-0.63,0-1.111,0.233-1.443,0.699c-0.332,0.467-0.498,1.161-0.498,2.084v3.128
		c0,0.923,0.169,1.619,0.506,2.091c0.337,0.471,0.82,0.707,1.45,0.707c0.64,0,1.124-0.234,1.453-0.703
		c0.33-0.469,0.495-1.167,0.495-2.095V271.078z"/>
	<path fill="#D0DAE3" d="M293.211,277.978v-0.988l3.493-3.882c0.625-0.698,1.049-1.253,1.271-1.663
		c0.223-0.41,0.334-0.83,0.334-1.26c0-0.532-0.156-0.98-0.469-1.344c-0.312-0.364-0.726-0.546-1.238-0.546
		c-0.737,0-1.279,0.188-1.626,0.564s-0.52,0.908-0.52,1.597h-1.385l-0.015-0.044c-0.024-0.918,0.279-1.689,0.912-2.314
		s1.51-0.938,2.633-0.938c0.962,0,1.728,0.279,2.297,0.838c0.568,0.56,0.853,1.271,0.853,2.136c0,0.581-0.172,1.162-0.517,1.743
		c-0.344,0.581-0.828,1.208-1.453,1.882l-2.806,3.055l0.015,0.036h3.787l0.117-1.223h1.223v2.351H293.211z"/>
	<path fill="#D0DAE3" d="M308.46,273.913c0,1.362-0.303,2.405-0.908,3.131c-0.605,0.725-1.434,1.088-2.483,1.088
		c-1.045,0-1.872-0.364-2.482-1.092s-0.916-1.77-0.916-3.127v-2.527c0-1.357,0.303-2.401,0.908-3.131s1.431-1.095,2.476-1.095
		c1.05,0,1.88,0.365,2.49,1.095s0.916,1.773,0.916,3.131V273.913z M307.017,271.078c0-0.923-0.167-1.617-0.501-2.084
		c-0.335-0.466-0.822-0.699-1.462-0.699c-0.63,0-1.11,0.233-1.442,0.699c-0.332,0.467-0.498,1.161-0.498,2.084v3.128
		c0,0.923,0.168,1.619,0.505,2.091c0.337,0.471,0.82,0.707,1.45,0.707c0.64,0,1.125-0.234,1.454-0.703s0.494-1.167,0.494-2.095
		V271.078z"/>
</g>
<g>
	<path fill="#D0DAE3" d="M172.566,277.055l1.647-0.205v-7.99l-1.677,0.029v-0.901l3.12-0.674v9.536l1.641,0.205v0.923h-4.731
		V277.055z"/>
	<path fill="#D0DAE3" d="M181.604,277.004c0.693,0,1.241-0.266,1.644-0.795c0.403-0.53,0.612-1.383,0.626-2.56l-0.029-0.037
		c-0.195,0.327-0.469,0.579-0.82,0.755s-0.747,0.264-1.187,0.264c-1.04,0-1.86-0.321-2.461-0.964
		c-0.601-0.642-0.901-1.544-0.901-2.706c0-1.113,0.321-2.025,0.963-2.735c0.642-0.711,1.422-1.065,2.34-1.065
		c1.113,0,1.991,0.348,2.633,1.043c0.642,0.696,0.963,1.726,0.963,3.088v1.926c0,1.665-0.343,2.9-1.029,3.706
		s-1.6,1.209-2.743,1.209c-0.371,0-0.751-0.036-1.139-0.106s-0.736-0.18-1.043-0.326l0.22-1.091
		c0.298,0.142,0.602,0.242,0.912,0.304C180.863,276.973,181.214,277.004,181.604,277.004z M181.839,273.495
		c0.532,0,0.975-0.114,1.329-0.344s0.609-0.522,0.766-0.879v-1.128c0-0.942-0.18-1.653-0.539-2.132s-0.882-0.718-1.571-0.718
		c-0.532,0-0.983,0.249-1.352,0.747s-0.553,1.138-0.553,1.919c0,0.767,0.171,1.381,0.513,1.842
		C180.774,273.265,181.243,273.495,181.839,273.495z"/>
	<path fill="#D0DAE3" d="M190.057,277.004c0.693,0,1.241-0.266,1.645-0.795c0.402-0.53,0.611-1.383,0.626-2.56l-0.029-0.037
		c-0.195,0.327-0.469,0.579-0.82,0.755s-0.747,0.264-1.187,0.264c-1.04,0-1.86-0.321-2.461-0.964
		c-0.601-0.642-0.901-1.544-0.901-2.706c0-1.113,0.321-2.025,0.963-2.735c0.642-0.711,1.422-1.065,2.34-1.065
		c1.113,0,1.99,0.348,2.633,1.043c0.643,0.696,0.963,1.726,0.963,3.088v1.926c0,1.665-0.343,2.9-1.029,3.706
		c-0.686,0.806-1.6,1.209-2.742,1.209c-0.371,0-0.751-0.036-1.139-0.106c-0.389-0.07-0.736-0.18-1.044-0.326l0.22-1.091
		c0.298,0.142,0.602,0.242,0.912,0.304C189.315,276.973,189.666,277.004,190.057,277.004z M190.291,273.495
		c0.532,0,0.975-0.114,1.329-0.344s0.609-0.522,0.766-0.879v-1.128c0-0.942-0.18-1.653-0.538-2.132
		c-0.359-0.479-0.883-0.718-1.571-0.718c-0.532,0-0.983,0.249-1.352,0.747s-0.553,1.138-0.553,1.919
		c0,0.767,0.171,1.381,0.513,1.842C189.227,273.265,189.695,273.495,190.291,273.495z"/>
	<path fill="#D0DAE3" d="M202.441,273.913c0,1.362-0.303,2.405-0.908,3.131c-0.605,0.725-1.433,1.088-2.482,1.088
		c-1.045,0-1.873-0.364-2.483-1.092s-0.915-1.77-0.915-3.127v-2.527c0-1.357,0.303-2.401,0.908-3.131s1.431-1.095,2.476-1.095
		c1.05,0,1.88,0.365,2.49,1.095s0.915,1.773,0.915,3.131V273.913z M200.999,271.078c0-0.923-0.167-1.617-0.502-2.084
		c-0.335-0.466-0.821-0.699-1.461-0.699c-0.63,0-1.111,0.233-1.443,0.699c-0.332,0.467-0.498,1.161-0.498,2.084v3.128
		c0,0.923,0.169,1.619,0.506,2.091c0.337,0.471,0.82,0.707,1.45,0.707c0.64,0,1.124-0.234,1.453-0.703
		c0.33-0.469,0.495-1.167,0.495-2.095V271.078z"/>
</g>
<g>
	<path fill="#D0DAE3" d="M61.567,302.345c0-0.633-0.182-1.148-0.545-1.547s-0.986-0.77-1.869-1.113
		c-1.734-0.633-3.02-1.338-3.855-2.115s-1.254-1.873-1.254-3.287c0-1.312,0.42-2.389,1.26-3.229s1.971-1.334,3.393-1.482v-2.52
		h1.863v2.555c1.367,0.203,2.443,0.775,3.229,1.717s1.17,2.166,1.154,3.674l-0.035,0.059h-3.328c0-0.922-0.191-1.633-0.574-2.133
		s-0.898-0.75-1.547-0.75c-0.672,0-1.174,0.193-1.506,0.58s-0.498,0.9-0.498,1.541c0,0.609,0.174,1.104,0.521,1.482
		s0.986,0.752,1.916,1.119c1.727,0.68,3.008,1.406,3.844,2.18s1.254,1.855,1.254,3.246c0,1.352-0.42,2.436-1.26,3.252
		s-1.975,1.299-3.404,1.447v2.32h-1.863v-2.309c-1.461-0.148-2.668-0.666-3.621-1.553s-1.414-2.189-1.383-3.908l0.023-0.059h3.328
		c0,1.047,0.242,1.797,0.727,2.25s1.094,0.68,1.828,0.68c0.711,0,1.256-0.189,1.635-0.568S61.567,302.985,61.567,302.345z"/>
	<path fill="#D0DAE3" d="M78.442,300.188c0,2.258-0.518,3.971-1.553,5.139s-2.436,1.752-4.201,1.752
		c-1.781,0-3.191-0.584-4.23-1.752s-1.559-2.881-1.559-5.139v-3.762c0-2.25,0.518-3.963,1.553-5.139s2.439-1.764,4.213-1.764
		c1.766,0,3.17,0.588,4.213,1.764s1.564,2.889,1.564,5.139V300.188z M75.032,296.075c0-1.352-0.203-2.342-0.609-2.971
		s-0.992-0.943-1.758-0.943c-0.773,0-1.359,0.312-1.758,0.938s-0.598,1.617-0.598,2.977v4.441c0,1.375,0.201,2.375,0.604,3
		s0.994,0.938,1.775,0.938c0.766,0,1.348-0.312,1.746-0.938s0.598-1.625,0.598-3V296.075z"/>
	<path fill="#D0DAE3" d="M84.396,306.833h-3.41v-3h3.41V306.833z"/>
	<path fill="#D0DAE3" d="M90.056,296.849h1.922c0.812,0,1.414-0.213,1.805-0.639s0.586-1.018,0.586-1.775
		c0-0.688-0.195-1.238-0.586-1.652s-0.957-0.621-1.699-0.621c-0.641,0-1.18,0.188-1.617,0.562s-0.656,0.867-0.656,1.477h-3.316
		l-0.023-0.07c-0.047-1.336,0.465-2.438,1.535-3.305s2.398-1.301,3.984-1.301c1.766,0,3.174,0.422,4.225,1.266
		s1.576,2.047,1.576,3.609c0,0.742-0.234,1.447-0.703,2.115s-1.113,1.189-1.934,1.564c0.945,0.336,1.666,0.852,2.162,1.547
		s0.744,1.504,0.744,2.426c0,1.562-0.568,2.791-1.705,3.686s-2.592,1.342-4.365,1.342c-1.586,0-2.947-0.42-4.084-1.26
		s-1.686-2.025-1.646-3.557l0.023-0.07h3.316c0,0.656,0.234,1.197,0.703,1.623s1.062,0.639,1.781,0.639
		c0.789,0,1.412-0.219,1.869-0.656s0.686-1.031,0.686-1.781c0-0.898-0.225-1.557-0.674-1.975s-1.111-0.627-1.986-0.627h-1.922
		V296.849z"/>
	<path fill="#D0DAE3" d="M111.302,300.188c0,2.258-0.518,3.971-1.553,5.139s-2.436,1.752-4.201,1.752
		c-1.781,0-3.191-0.584-4.23-1.752s-1.559-2.881-1.559-5.139v-3.762c0-2.25,0.518-3.963,1.553-5.139s2.439-1.764,4.213-1.764
		c1.766,0,3.17,0.588,4.213,1.764s1.564,2.889,1.564,5.139V300.188z M107.892,296.075c0-1.352-0.203-2.342-0.609-2.971
		s-0.992-0.943-1.758-0.943c-0.773,0-1.359,0.312-1.758,0.938s-0.598,1.617-0.598,2.977v4.441c0,1.375,0.201,2.375,0.604,3
		s0.994,0.938,1.775,0.938c0.766,0,1.348-0.312,1.746-0.938s0.598-1.625,0.598-3V296.075z"/>
</g>
<g>
	<path fill="#D0DAE3" d="M283.09,302.345c0-0.633-0.182-1.148-0.545-1.547s-0.986-0.77-1.869-1.113
		c-1.734-0.633-3.02-1.338-3.855-2.115s-1.254-1.873-1.254-3.287c0-1.312,0.42-2.389,1.26-3.229s1.971-1.334,3.393-1.482v-2.52
		h1.863v2.555c1.367,0.203,2.443,0.775,3.229,1.717s1.17,2.166,1.154,3.674l-0.035,0.059h-3.328c0-0.922-0.191-1.633-0.574-2.133
		s-0.898-0.75-1.547-0.75c-0.672,0-1.174,0.193-1.506,0.58s-0.498,0.9-0.498,1.541c0,0.609,0.174,1.104,0.521,1.482
		s0.986,0.752,1.916,1.119c1.727,0.68,3.008,1.406,3.844,2.18s1.254,1.855,1.254,3.246c0,1.352-0.42,2.436-1.26,3.252
		s-1.975,1.299-3.404,1.447v2.32h-1.863v-2.309c-1.461-0.148-2.668-0.666-3.621-1.553s-1.414-2.189-1.383-3.908l0.023-0.059h3.328
		c0,1.047,0.242,1.797,0.727,2.25s1.094,0.68,1.828,0.68c0.711,0,1.256-0.189,1.635-0.568S283.09,302.985,283.09,302.345z"/>
	<path fill="#D0DAE3" d="M288.047,304.782l2.883-0.352v-11.555h-2.918v-1.957l6.328-1.148v14.66l2.883,0.352v2.051h-9.176V304.782z"
		/>
	<path fill="#D0DAE3" d="M307.664,293.661l-0.305-1.148h-4.594l-0.48,3.938c0.32-0.234,0.703-0.428,1.148-0.58
		s0.938-0.232,1.477-0.24c1.641-0.023,2.91,0.473,3.809,1.488s1.348,2.43,1.348,4.242c0,1.641-0.494,3.004-1.482,4.09
		s-2.412,1.629-4.271,1.629c-1.562,0-2.902-0.428-4.02-1.283s-1.656-2.033-1.617-3.533l0.023-0.059l3.281-0.164
		c0,0.758,0.215,1.35,0.645,1.775s0.992,0.639,1.688,0.639c0.797,0,1.387-0.285,1.77-0.855s0.574-1.309,0.574-2.215
		c0-0.984-0.203-1.773-0.609-2.367s-1.012-0.891-1.816-0.891c-0.648,0-1.146,0.121-1.494,0.363s-0.596,0.57-0.744,0.984
		l-3.023-0.199l0.984-9.504h9.82v3.891H307.664z"/>
</g>
<g>
	<path fill="#D0DAE3" d="M183.275,302.345c0-0.633-0.182-1.148-0.545-1.547s-0.986-0.77-1.869-1.113
		c-1.734-0.633-3.02-1.338-3.855-2.115s-1.254-1.873-1.254-3.287c0-1.312,0.42-2.389,1.26-3.229s1.971-1.334,3.393-1.482v-2.52
		h1.863v2.555c1.367,0.203,2.443,0.775,3.229,1.717s1.17,2.166,1.154,3.674l-0.035,0.059h-3.328c0-0.922-0.191-1.633-0.574-2.133
		s-0.898-0.75-1.547-0.75c-0.672,0-1.174,0.193-1.506,0.58s-0.498,0.9-0.498,1.541c0,0.609,0.174,1.104,0.521,1.482
		s0.986,0.752,1.916,1.119c1.727,0.68,3.008,1.406,3.844,2.18s1.254,1.855,1.254,3.246c0,1.352-0.42,2.436-1.26,3.252
		s-1.975,1.299-3.404,1.447v2.32h-1.863v-2.309c-1.461-0.148-2.668-0.666-3.621-1.553s-1.414-2.189-1.383-3.908l0.023-0.059h3.328
		c0,1.047,0.242,1.797,0.727,2.25s1.094,0.68,1.828,0.68c0.711,0,1.256-0.189,1.635-0.568S183.275,302.985,183.275,302.345z"/>
	<path fill="#D0DAE3" d="M191.936,296.849h1.922c0.812,0,1.414-0.213,1.805-0.639s0.586-1.018,0.586-1.775
		c0-0.688-0.195-1.238-0.586-1.652s-0.957-0.621-1.699-0.621c-0.641,0-1.18,0.188-1.617,0.562s-0.656,0.867-0.656,1.477h-3.316
		l-0.023-0.07c-0.047-1.336,0.465-2.438,1.535-3.305s2.398-1.301,3.984-1.301c1.766,0,3.174,0.422,4.225,1.266
		s1.576,2.047,1.576,3.609c0,0.742-0.234,1.447-0.703,2.115s-1.113,1.189-1.934,1.564c0.945,0.336,1.666,0.852,2.162,1.547
		s0.744,1.504,0.744,2.426c0,1.562-0.568,2.791-1.705,3.686s-2.592,1.342-4.365,1.342c-1.586,0-2.947-0.42-4.084-1.26
		s-1.686-2.025-1.646-3.557l0.023-0.07h3.316c0,0.656,0.234,1.197,0.703,1.623s1.062,0.639,1.781,0.639
		c0.789,0,1.412-0.219,1.869-0.656s0.686-1.031,0.686-1.781c0-0.898-0.225-1.557-0.674-1.975s-1.111-0.627-1.986-0.627h-1.922
		V296.849z"/>
</g>
<g>
	<path fill="#D0DAE3" d="M310.438,245.298c1.409,2.612,0.133,4.749-2.835,4.749H66.396c-2.968,0-4.243-2.137-2.834-4.749
		l24.543-45.502c1.409-2.612,4.99-4.749,7.958-4.749h181.875c2.968,0,6.549,2.137,7.958,4.749L310.438,245.298z"/>
</g>
<ellipse fill="#D0DAE3" cx="187" cy="225.737" rx="46.274" ry="18.567"/>
<ellipse fill="#FFFFFF" cx="187" cy="221.237" rx="46.274" ry="18.567"/>
<path fill="#716558" d="M210.356,208.125c-4.837-2.967-10.151-4.247-15.033-4.247c-7.265,0-13.572,2.835-15.927,7.169
	c-5.054,7.754-21.894,4.596-22.037,12.315c-0.123,6.738,14.333,9.12,26.349,8.864c9.035-0.188,19.28-2.055,27.839-7.305
	C218.781,220.486,218.248,212.965,210.356,208.125z"/>
<path fill="#495057" d="M206.598,217.238c-7.838,4.807-16.913,5.97-23.14,6.1c-3.875,0.076-13.537-0.361-17.623-2.583
	c-0.257-0.139-6.119-3.422,3.911-5.772c7.373-1.728,13.616-3.946,15.977-8.289c1.52-2.806,5.292-4.617,9.601-4.617
	c3.353,0,6.839,1.053,10.087,3.041C211.084,208.599,211.631,214.147,206.598,217.238L206.598,217.238z"/>
<path fill="#B58B6B" d="M210.356,202.777c-4.837-2.967-10.151-4.248-15.033-4.248c-7.265,0-13.572,2.836-15.927,7.169
	c-5.054,7.754-21.894,4.597-22.037,12.315c-0.123,6.738,14.333,9.121,26.349,8.865c9.035-0.188,19.28-2.056,27.839-7.306
	C218.781,215.139,218.248,207.616,210.356,202.777z"/>
<path fill="#716558" d="M205.41,205.117c-3.248-1.988-6.734-3.041-10.087-3.041c-4.309,0-8.081,1.812-9.602,4.619
	c-2.36,4.342-8.601,6.561-15.976,8.29c-10.028,2.35-4.167,5.633-3.912,5.771c4.087,2.222,13.749,2.66,17.624,2.583
	c6.227-0.129,15.302-1.293,23.139-6.1C211.63,214.15,211.084,208.599,205.41,205.117L205.41,205.117z"/>
<ellipse fill="#FFFFFF" cx="196.881" cy="210.936" rx="3.293" ry="1.773"/>
<g>
	<path fill="#E7ECF0" d="M125.354,131.956c0.117,0.351,2.354,7.049,2.761,9.677c0.62,4.007-1.068,7.193-4.039,8.83l6.869,37.854
		c0.21,1.009-0.438,1.996-1.446,2.206c-0.031,0.007-0.061,0.012-0.092,0.017l-4.903,0.759c-1.018,0.156-1.971-0.542-2.127-1.561
		c-0.004-0.03-0.008-0.062-0.012-0.093l-4.892-38.16c-3.334-0.66-5.9-3.197-6.518-7.196c-0.408-2.636-0.299-9.689-0.294-10.059
		c0.005-1.593,3.227-2.115,3.683-0.483l1.674,10.817c0.141,0.245,1.195,0.066,1.227-0.189c-0.193-1.955-1.045-10.759-1.068-10.959
		c0.006-1.632,3.178-2.123,3.67-0.567c0.047,0.204,1.887,8.847,2.293,10.769c0.107,0.234,1.174,0.085,1.226-0.189l-1.674-10.817
		C121.634,130.924,124.869,130.438,125.354,131.956z"/>
</g>
<path fill="#E7ECF0" d="M260.568,134.606l-9.459,55.166c-0.171,1.011-1.128,1.692-2.139,1.521c-0.003-0.001-0.006-0.001-0.01-0.002
	l-4.278-0.733c-1.013-0.175-1.693-1.137-1.519-2.149c0.009-0.051,0.02-0.101,0.033-0.15l5.261-23.804
	c-10.354-11.402,4.286-33.078,10.591-31.997C260.061,132.632,260.742,133.594,260.568,134.606z"/>
<path fill="#232323" d="M250.738,168.748c0.987-0.244,1.846-0.93,1.828-1.687c-0.012-0.757-1.09-1.458-2.393-1.354
	c-3.529,0.277-6.944,1.678-9.713,4.082c-1.028,0.892-0.801,2.376,0.354,3.149c1.155,0.778,2.456,0.781,3.05,0.07
	C245.561,170.973,247.945,169.435,250.738,168.748z"/>
<path fill="#232323" d="M124.492,167.514c-0.961-0.358-1.733-1.131-1.637-1.888c0.097-0.745,1.251-1.328,2.53-1.074
	c3.475,0.663,6.715,2.435,9.2,5.127c0.924,1.006,0.534,2.457-0.699,3.096c-1.239,0.645-2.531,0.504-3.042-0.269
	C129.389,170.295,127.19,168.5,124.492,167.514z"/>
</svg>
