<?xml version="1.0" encoding="utf-8"?>
<!-- Generator: Adobe Illustrator 16.0.4, SVG Export Plug-In . SVG Version: 6.00 Build 0)  -->
<!DOCTYPE svg PUBLIC "-//W3C//DTD SVG 1.1//EN" "http://www.w3.org/Graphics/SVG/1.1/DTD/svg11.dtd">
<svg version="1.1" id="Layer_1" xmlns="http://www.w3.org/2000/svg" xmlns:xlink="http://www.w3.org/1999/xlink" x="0px" y="0px"
	 width="300px" height="225px" viewBox="37.5 75 300 225" enable-background="new 37.5 75 300 225" xml:space="preserve">
<path fill="#444444" d="M218.625,192.919c-1.334-12.486-6.516-27.724-16.381-33.226c-4.229-2.358-9.15-4.065-15.933-5.21
	c-1.612,0.267-3.112,0.566-4.531,0.898c-0.246,0.058-0.484,0.118-0.725,0.179c-0.421,0.104-0.836,0.21-1.241,0.32
	c-0.257,0.07-0.511,0.14-0.762,0.213c-0.408,0.117-0.806,0.239-1.199,0.364c-0.205,0.065-0.415,0.127-0.617,0.195
	c-0.565,0.187-1.118,0.381-1.655,0.583c-0.157,0.06-0.309,0.122-0.464,0.183c-0.404,0.157-0.803,0.317-1.191,0.483
	c-0.182,0.079-0.362,0.157-0.542,0.237c-0.371,0.164-0.736,0.333-1.095,0.507c-0.154,0.074-0.309,0.146-0.46,0.222
	c-0.5,0.25-0.991,0.502-1.471,0.768c-10.583,5.852-15.842,22.88-16.74,35.763c-0.079,1.873-0.116,3.669-0.112,5.357
	c0.006,4.358,0.274,7.979,0.793,10.168c0.024,0.102,0.069,0.2,0.099,0.301c2.631,11.982,15.868,21.116,31.83,21.145
	c17.874,0.035,32.384-11.355,32.411-25.441c0-0.129-0.01-0.257-0.013-0.386C218.909,202.907,218.917,198.112,218.625,192.919z"/>
<path fill="#FFFFFF" d="M210.161,157.983c-4.085-4.667-9.394-6.963-19.854-7.421c-0.164-0.008-0.334-0.013-0.501-0.019
	c-0.526-0.02-1.062-0.038-1.616-0.049c-0.548-0.011-1.105-0.019-1.679-0.021c-0.066,0-0.126-0.003-0.193-0.003h-0.013
	c-0.02,0-0.04,0-0.061,0c-0.012,0-0.021,0-0.034,0h-0.01c-0.038,0-0.074,0.001-0.113,0.001c-0.605,0-1.194,0.007-1.771,0.017
	c-0.658,0.01-1.292,0.029-1.914,0.052c-0.06,0.003-0.123,0.004-0.183,0.007c-10.471,0.417-15.79,2.695-19.892,7.349
	c-5.428,6.156-8.196,23.783-8.768,37.502c0.898-12.883,6.158-29.911,16.739-35.763c4.236-2.342,9.164-4.032,15.95-5.15
	c6.784,1.146,11.703,2.851,15.933,5.21c10.56,5.89,15.756,22.938,16.606,35.823C218.269,181.796,215.565,164.159,210.161,157.983z"
	/>
<path fill="#232323" d="M166.063,163.018c1.801-2.192,4.881-2.847,7.318-0.917c2.426,1.912,2.867,6.563,0.373,9.642
	c-7.082,8.752-17.478,13.05-28.675,11.85c-3.936-0.419-6.914-4.023-6.544-7.087c0.367-3.088,3.009-4.8,5.833-4.521
	C152.836,172.89,160.702,169.642,166.063,163.018z"/>
<path fill="#232323" d="M134.315,175.821c-0.816-0.06-1.582-0.482-1.672-1.083c-0.093-0.6,0.664-1.298,1.704-1.393
	c2.816-0.259,5.703,0.386,8.209,1.904c0.933,0.566,0.955,1.77,0.148,2.535c-0.806,0.767-1.831,0.949-2.398,0.467
	C138.697,176.873,136.609,175.983,134.315,175.821z"/>
<path fill="#232323" d="M134.986,180.612c-0.75,0.316-1.627,0.289-1.98-0.204c-0.355-0.49,0-1.456,0.882-2.015
	c2.394-1.514,5.252-2.254,8.177-2.042c1.086,0.078,1.652,1.138,1.283,2.187c-0.366,1.051-1.198,1.678-1.919,1.506
	C139.368,179.554,137.104,179.714,134.986,180.612z"/>
<path fill="#232323" d="M206.412,163.018c-1.801-2.192-4.881-2.847-7.318-0.917c-2.427,1.912-2.867,6.563-0.372,9.642
	c7.081,8.752,17.479,13.05,28.675,11.85c3.938-0.419,6.916-4.023,6.546-7.087c-0.366-3.088-3.01-4.8-5.833-4.521
	C219.638,172.89,211.773,169.642,206.412,163.018z"/>
<path fill="#232323" d="M237.516,179.219c0.81-0.139,1.654,0.085,1.891,0.648c0.232,0.554-0.331,1.422-1.317,1.76
	c-2.67,0.938-5.623,1.014-8.425,0.149c-1.044-0.325-1.354-1.484-0.761-2.422c0.599-0.944,1.55-1.366,2.214-1.036
	C233.011,179.263,235.253,179.621,237.516,179.219z"/>
<path fill="#232323" d="M236.794,174.54c0.735-0.357,1.609-0.378,1.989,0.098c0.383,0.472,0.078,1.454-0.773,2.06
	c-2.305,1.638-5.127,2.53-8.055,2.477c-1.091-0.021-1.715-1.051-1.402-2.118c0.314-1.068,1.108-1.74,1.84-1.608
	C232.477,175.831,234.729,175.552,236.794,174.54z"/>
<path fill="#FFFFFF" d="M186.12,109.25c-5.777-0.011-12.517-2.289-16.334-3.263c-4.475-1.14-6.601-1.178-9.903-1.183
	c-9.995-0.019-13.075,5.217-13.919,7.354c6.594-20.247,27.449-23.052,39.77-23.029l1.017,0.002
	c12.317,0.022,33.164,2.903,39.685,23.177c-0.834-2.141-3.898-7.387-13.893-7.408c-3.3-0.006-5.428,0.024-9.907,1.149
	c-3.824,0.959-10.57,3.214-16.349,3.203L186.12,109.25L186.12,109.25z"/>
<path fill="#444444" d="M226.4,112.324l0.034-0.017c-0.835-2.141-3.898-7.387-13.893-7.408c-3.302-0.006-5.43,0.024-9.907,1.149
	c-3.824,0.96-10.57,3.214-16.351,3.203h-0.166c-5.777-0.011-12.517-2.289-16.334-3.263c-4.475-1.14-6.601-1.179-9.903-1.183
	c-9.995-0.019-13.075,5.217-13.919,7.353l0.035,0.017c-2.118,2.021-3.533,7.344-3.357,13.564c0.219,7.886,2.906,14.214,6,14.128
	c0.059-0.002,0.114-0.02,0.171-0.026c7.163,14.472,26.854,21.213,37.19,21.232c10.335,0.018,30.196-6.649,37.463-21.098
	c0.065,0.007,0.128,0.03,0.194,0.031c3.087,0.094,5.801-6.221,6.049-14.107C229.904,119.68,228.511,114.355,226.4,112.324z"/>
<path fill="#7F7F7F" d="M186.083,150.627c-5.223-0.01-16.305-4.869-16.283-15.495c0.019-10.623,12.252-11.445,16.371-11.437
	c4.12,0.007,16.362,0.874,16.343,11.496C202.494,145.818,191.309,150.638,186.083,150.627z"/>
<path fill="#232323" d="M186.416,126.484c2.27,0.005,5.621,2.38,6.012,5.145c0.39,2.765-6.176,2.653-6.176,2.653h-0.188
	c0,0-6.564,0.086-6.166-2.678c0.399-2.762,3.76-5.125,6.032-5.12H186.416z"/>
<g>
	<circle fill="#232323" cx="169.435" cy="118.4" r="2.006"/>
	<path fill="#232323" d="M204.945,118.465c-0.003,1.111-0.901,2.004-2.013,2.004c-1.104-0.002-2.003-0.902-2.001-2.01
		c0.001-1.11,0.901-2.007,2.009-2.004C204.052,116.457,204.948,117.356,204.945,118.465z"/>
</g>
<path fill="#232323" d="M222.138,116.829c2.547,0.1,4.606,4.905,5.383,11.689c0.091-0.852,0.156-1.739,0.181-2.658
	c0.166-6.199-1.337-11.286-3.352-11.365c-0.859-0.033-1.668,0.852-2.332,2.349C222.057,116.844,222.097,116.828,222.138,116.829z"/>
<path fill="#232323" d="M150.244,116.697c-2.547,0.09-4.626,4.888-5.429,11.669c-0.088-0.852-0.149-1.741-0.169-2.66
	c-0.142-6.198,1.38-11.281,3.395-11.35c0.855-0.029,1.666,0.859,2.324,2.357C150.323,116.713,150.284,116.697,150.244,116.697z"/>
<path fill="none" stroke="#7F7F7F" stroke-width="1.5795" stroke-linecap="round" stroke-miterlimit="10" d="M165.615,112.475
	c0.519-0.481,1.125-0.85,1.775-1.096c0.651-0.247,1.349-0.367,2.054-0.348c0.707,0.017,1.42,0.174,2.105,0.483
	s1.275,0.745,1.753,1.265"/>
<path fill="none" stroke="#7F7F7F" stroke-width="1.5795" stroke-linecap="round" stroke-miterlimit="10" d="M199.198,112.475
	c0.519-0.481,1.125-0.85,1.775-1.096c0.651-0.247,1.35-0.367,2.055-0.348c0.706,0.017,1.42,0.174,2.106,0.483
	c0.683,0.311,1.273,0.745,1.751,1.265"/>
<path fill="none" stroke="#232323" stroke-width="1.431" stroke-linecap="round" stroke-miterlimit="10" d="M178.016,139.966
	c0.437,1.041,1.075,1.981,1.859,2.77c0.785,0.789,1.725,1.425,2.763,1.87c1.038,0.442,2.183,0.687,3.385,0.689
	c1.201,0.002,2.344-0.239,3.389-0.678c1.044-0.439,1.98-1.073,2.769-1.859c0.788-0.785,1.429-1.724,1.871-2.764"/>
<g>
	<path fill="#232323" d="M90.616,259.044l1.318-0.164v-6.393l-1.341,0.023v-0.72l2.496-0.539v7.628l1.312,0.164v0.739h-3.785
		L90.616,259.044L90.616,259.044z"/>
	<path fill="#232323" d="M97.847,259.003c0.555,0,0.993-0.212,1.316-0.636c0.321-0.424,0.488-1.106,0.5-2.049l-0.023-0.029
		c-0.156,0.263-0.375,0.464-0.656,0.604s-0.598,0.211-0.95,0.211c-0.832,0-1.488-0.256-1.969-0.771
		c-0.481-0.514-0.721-1.235-0.721-2.165c0-0.891,0.257-1.62,0.771-2.188c0.514-0.569,1.137-0.852,1.872-0.852
		c0.891,0,1.593,0.278,2.107,0.834c0.514,0.557,0.77,1.382,0.77,2.471v1.542c0,1.33-0.274,2.318-0.823,2.963
		c-0.55,0.646-1.281,0.968-2.195,0.968c-0.297,0-0.601-0.027-0.911-0.084c-0.311-0.056-0.589-0.144-0.835-0.261l0.176-0.873
		c0.238,0.113,0.482,0.193,0.73,0.243C97.254,258.979,97.534,259.003,97.847,259.003z M98.034,256.196
		c0.426,0,0.781-0.092,1.063-0.276c0.283-0.184,0.487-0.417,0.613-0.703v-0.901c0-0.754-0.144-1.322-0.43-1.707
		c-0.287-0.383-0.707-0.574-1.257-0.574c-0.426,0-0.786,0.199-1.082,0.598c-0.294,0.398-0.442,0.912-0.442,1.535
		c0,0.614,0.137,1.104,0.41,1.475C97.183,256.013,97.558,256.196,98.034,256.196z"/>
	<path fill="#232323" d="M102.183,259.783v-0.79l2.795-3.107c0.5-0.557,0.838-1.001,1.017-1.329
		c0.178-0.328,0.266-0.664,0.266-1.008c0-0.427-0.125-0.784-0.375-1.076c-0.25-0.291-0.58-0.437-0.99-0.437
		c-0.589,0-1.023,0.149-1.301,0.451c-0.277,0.3-0.416,0.727-0.416,1.277h-1.107l-0.012-0.035c-0.019-0.734,0.224-1.352,0.73-1.852
		c0.506-0.5,1.208-0.75,2.106-0.75c0.77,0,1.382,0.224,1.837,0.671c0.454,0.448,0.683,1.017,0.683,1.708
		c0,0.465-0.138,0.93-0.413,1.395c-0.276,0.465-0.663,0.967-1.163,1.506l-2.244,2.444l0.012,0.028h3.029l0.094-0.979h0.979v1.882
		H102.183L102.183,259.783z"/>
	<path fill="#232323" d="M114.382,256.53c0,1.09-0.242,1.925-0.726,2.505c-0.484,0.58-1.146,0.87-1.987,0.87
		c-0.836,0-1.498-0.291-1.986-0.873c-0.488-0.582-0.732-1.417-0.732-2.502v-2.021c0-1.085,0.242-1.921,0.727-2.505
		c0.484-0.584,1.145-0.876,1.98-0.876c0.84,0,1.504,0.292,1.992,0.876c0.488,0.584,0.732,1.418,0.732,2.505V256.53z
		 M113.228,254.263c0-0.739-0.133-1.294-0.4-1.667c-0.268-0.374-0.658-0.56-1.169-0.56c-0.504,0-0.889,0.186-1.155,0.56
		c-0.266,0.373-0.398,0.928-0.398,1.667v2.502c0,0.738,0.134,1.296,0.404,1.673s0.656,0.565,1.16,0.565
		c0.512,0,0.9-0.188,1.164-0.562c0.264-0.375,0.396-0.934,0.396-1.676L113.228,254.263L113.228,254.263z"/>
</g>
<g>
	<path fill="#232323" d="M257.545,259.783v-0.79l2.795-3.107c0.5-0.557,0.838-1.001,1.017-1.329
		c0.178-0.328,0.267-0.664,0.267-1.008c0-0.427-0.125-0.784-0.375-1.076c-0.25-0.291-0.581-0.437-0.99-0.437
		c-0.589,0-1.023,0.149-1.3,0.451c-0.278,0.3-0.417,0.727-0.417,1.277h-1.108l-0.012-0.035c-0.02-0.734,0.224-1.352,0.729-1.852
		s1.209-0.75,2.107-0.75c0.769,0,1.382,0.224,1.836,0.671c0.455,0.448,0.684,1.017,0.684,1.708c0,0.465-0.139,0.93-0.413,1.395
		c-0.276,0.465-0.664,0.967-1.164,1.506l-2.244,2.444l0.013,0.028h3.028l0.094-0.979h0.979v1.882H257.545L257.545,259.783z"/>
	<path fill="#232323" d="M269.744,256.53c0,1.09-0.242,1.925-0.727,2.505s-1.147,0.87-1.986,0.87c-0.836,0-1.498-0.291-1.985-0.873
		c-0.486-0.582-0.731-1.417-0.731-2.502v-2.021c0-1.085,0.243-1.921,0.727-2.505c0.482-0.584,1.145-0.876,1.98-0.876
		c0.841,0,1.505,0.292,1.992,0.876c0.486,0.584,0.731,1.418,0.731,2.505L269.744,256.53L269.744,256.53z M268.591,254.263
		c0-0.739-0.135-1.294-0.402-1.667c-0.269-0.374-0.657-0.56-1.169-0.56c-0.504,0-0.889,0.186-1.154,0.56
		c-0.266,0.373-0.398,0.928-0.398,1.667v2.502c0,0.738,0.135,1.296,0.406,1.673c0.27,0.377,0.655,0.565,1.158,0.565
		c0.514,0,0.9-0.188,1.162-0.562c0.265-0.375,0.397-0.934,0.397-1.676V254.263L268.591,254.263z"/>
	<path fill="#232323" d="M271.016,259.783v-0.79l2.795-3.107c0.5-0.557,0.839-1.001,1.016-1.329c0.18-0.328,0.268-0.664,0.268-1.008
		c0-0.427-0.125-0.784-0.375-1.076c-0.25-0.291-0.58-0.437-0.99-0.437c-0.589,0-1.022,0.149-1.301,0.451
		c-0.277,0.3-0.416,0.727-0.416,1.277h-1.108l-0.011-0.035c-0.02-0.734,0.222-1.352,0.728-1.852c0.508-0.5,1.21-0.75,2.108-0.75
		c0.769,0,1.382,0.224,1.837,0.671c0.453,0.448,0.683,1.017,0.683,1.708c0,0.465-0.138,0.93-0.414,1.395
		c-0.274,0.465-0.662,0.967-1.162,1.506l-2.245,2.444l0.013,0.028h3.029l0.094-0.979h0.979v1.882H271.016L271.016,259.783z"/>
	<path fill="#232323" d="M283.215,256.53c0,1.09-0.242,1.925-0.727,2.505c-0.482,0.58-1.146,0.87-1.986,0.87
		c-0.836,0-1.496-0.291-1.984-0.873s-0.733-1.417-0.733-2.502v-2.021c0-1.085,0.244-1.921,0.727-2.505
		c0.483-0.584,1.146-0.876,1.981-0.876c0.841,0,1.503,0.292,1.991,0.876s0.733,1.418,0.733,2.505L283.215,256.53L283.215,256.53z
		 M282.061,254.263c0-0.739-0.134-1.294-0.401-1.667c-0.268-0.374-0.657-0.56-1.168-0.56c-0.505,0-0.89,0.186-1.155,0.56
		c-0.266,0.373-0.396,0.928-0.396,1.667v2.502c0,0.738,0.134,1.296,0.403,1.673s0.656,0.565,1.159,0.565
		c0.513,0,0.901-0.188,1.165-0.562c0.262-0.375,0.394-0.934,0.394-1.676V254.263L282.061,254.263z"/>
</g>
<g>
	<path fill="#232323" d="M174.5,259.044l1.318-0.164v-6.393l-1.342,0.023v-0.72l2.496-0.539v7.628l1.312,0.164v0.739H174.5V259.044z
		"/>
	<path fill="#232323" d="M181.73,259.003c0.554,0,0.993-0.212,1.315-0.636s0.489-1.106,0.5-2.049l-0.023-0.029
		c-0.156,0.263-0.375,0.464-0.656,0.604s-0.598,0.211-0.95,0.211c-0.832,0-1.488-0.256-1.969-0.771
		c-0.48-0.514-0.721-1.235-0.721-2.165c0-0.891,0.257-1.62,0.771-2.188c0.514-0.569,1.138-0.852,1.872-0.852
		c0.891,0,1.593,0.278,2.106,0.834c0.514,0.557,0.771,1.382,0.771,2.471v1.542c0,1.33-0.274,2.318-0.823,2.963
		c-0.549,0.646-1.28,0.968-2.194,0.968c-0.297,0-0.601-0.027-0.912-0.084c-0.31-0.056-0.588-0.144-0.834-0.261l0.176-0.873
		c0.238,0.113,0.482,0.193,0.729,0.243C181.137,258.979,181.418,259.003,181.73,259.003z M181.918,256.196
		c0.426,0,0.78-0.092,1.063-0.276c0.283-0.184,0.487-0.417,0.613-0.703v-0.901c0-0.754-0.144-1.322-0.431-1.707
		c-0.287-0.383-0.706-0.574-1.257-0.574c-0.426,0-0.787,0.199-1.082,0.598c-0.295,0.398-0.443,0.912-0.443,1.535
		c0,0.614,0.137,1.104,0.411,1.475C181.066,256.013,181.441,256.196,181.918,256.196z"/>
	<path fill="#232323" d="M188.492,259.003c0.555,0,0.993-0.212,1.317-0.636c0.32-0.424,0.487-1.106,0.501-2.049l-0.023-0.029
		c-0.156,0.263-0.375,0.464-0.656,0.604s-0.597,0.211-0.949,0.211c-0.833,0-1.488-0.256-1.969-0.771
		c-0.481-0.514-0.721-1.235-0.721-2.165c0-0.891,0.257-1.62,0.771-2.188c0.514-0.569,1.136-0.852,1.871-0.852
		c0.891,0,1.592,0.278,2.107,0.834c0.515,0.557,0.771,1.382,0.771,2.471v1.542c0,1.33-0.274,2.318-0.823,2.963
		c-0.55,0.646-1.279,0.968-2.192,0.968c-0.297,0-0.602-0.027-0.912-0.084c-0.312-0.056-0.588-0.144-0.835-0.261l0.176-0.873
		c0.239,0.113,0.483,0.193,0.73,0.243C187.898,258.979,188.18,259.003,188.492,259.003z M188.68,256.196
		c0.426,0,0.779-0.092,1.063-0.276c0.283-0.184,0.486-0.417,0.613-0.703v-0.901c0-0.754-0.145-1.322-0.432-1.707
		c-0.286-0.383-0.706-0.574-1.256-0.574c-0.425,0-0.786,0.199-1.082,0.598c-0.295,0.398-0.442,0.912-0.442,1.535
		c0,0.614,0.137,1.104,0.41,1.475C187.828,256.013,188.203,256.196,188.68,256.196z"/>
	<path fill="#232323" d="M198.4,256.53c0,1.09-0.242,1.925-0.727,2.505s-1.147,0.87-1.986,0.87c-0.836,0-1.498-0.291-1.986-0.873
		c-0.487-0.582-0.732-1.417-0.732-2.502v-2.021c0-1.085,0.244-1.921,0.727-2.505c0.484-0.584,1.146-0.876,1.982-0.876
		c0.84,0,1.504,0.292,1.991,0.876s0.731,1.418,0.731,2.505V256.53L198.4,256.53z M197.246,254.263c0-0.739-0.134-1.294-0.401-1.667
		c-0.269-0.374-0.657-0.56-1.169-0.56c-0.504,0-0.889,0.186-1.154,0.56c-0.266,0.373-0.398,0.928-0.398,1.667v2.502
		c0,0.738,0.135,1.296,0.405,1.673c0.269,0.377,0.655,0.565,1.159,0.565c0.513,0,0.899-0.188,1.162-0.562
		c0.265-0.375,0.396-0.934,0.396-1.676V254.263L197.246,254.263z"/>
</g>
<g>
	<path fill="#232323" d="M85.7,279.276c0-0.507-0.146-0.918-0.436-1.238c-0.291-0.319-0.789-0.616-1.496-0.89
		c-1.387-0.507-2.416-1.07-3.084-1.692c-0.668-0.621-1.003-1.497-1.003-2.629c0-1.049,0.336-1.911,1.008-2.583
		c0.672-0.673,1.576-1.067,2.714-1.186v-2.017h1.491v2.044c1.093,0.162,1.954,0.619,2.583,1.374
		c0.629,0.753,0.936,1.733,0.923,2.939l-0.028,0.048h-2.663c0-0.738-0.153-1.308-0.459-1.707c-0.306-0.4-0.718-0.601-1.237-0.601
		c-0.538,0-0.939,0.155-1.205,0.464c-0.266,0.311-0.398,0.721-0.398,1.233c0,0.487,0.139,0.884,0.417,1.185
		c0.278,0.303,0.789,0.603,1.533,0.896c1.382,0.545,2.406,1.124,3.075,1.745c0.669,0.617,1.003,1.483,1.003,2.597
		c0,1.081-0.336,1.948-1.008,2.602c-0.672,0.652-1.58,1.039-2.723,1.157v1.855h-1.491v-1.848c-1.169-0.118-2.134-0.532-2.897-1.242
		c-0.762-0.711-1.131-1.751-1.106-3.127l0.019-0.047h2.663c0,0.838,0.193,1.438,0.582,1.8c0.388,0.362,0.875,0.544,1.462,0.544
		c0.569,0,1.005-0.15,1.308-0.454C85.55,280.196,85.7,279.787,85.7,279.276z"/>
	<path fill="#232323" d="M99.2,277.55c0,1.807-0.414,3.179-1.242,4.112c-0.828,0.935-1.949,1.402-3.361,1.402
		c-1.424,0-2.553-0.468-3.384-1.402c-0.832-0.934-1.248-2.306-1.248-4.112v-3.009c0-1.801,0.415-3.171,1.243-4.111
		c0.828-0.94,1.951-1.411,3.371-1.411c1.413,0,2.536,0.471,3.37,1.411s1.251,2.311,1.251,4.111V277.55z M96.473,274.26
		c0-1.082-0.163-1.874-0.487-2.377s-0.793-0.754-1.406-0.754c-0.619,0-1.087,0.249-1.406,0.751c-0.32,0.5-0.479,1.292-0.479,2.381
		v3.554c0,1.1,0.16,1.899,0.483,2.399c0.322,0.5,0.795,0.75,1.42,0.75c0.613,0,1.079-0.25,1.397-0.75
		c0.318-0.501,0.479-1.3,0.479-2.399V274.26z"/>
	<path fill="#232323" d="M103.964,282.866h-2.729v-2.399h2.729V282.866z"/>
	<path fill="#232323" d="M108.492,274.88h1.538c0.649,0,1.131-0.171,1.444-0.512c0.312-0.341,0.469-0.815,0.469-1.42
		c0-0.55-0.156-0.989-0.469-1.321c-0.313-0.331-0.766-0.496-1.359-0.496c-0.513,0-0.944,0.15-1.294,0.449
		c-0.35,0.298-0.524,0.692-0.524,1.182h-2.653l-0.019-0.057c-0.038-1.068,0.372-1.95,1.228-2.644s1.918-1.041,3.188-1.041
		c1.412,0,2.539,0.338,3.379,1.013c0.841,0.676,1.261,1.638,1.261,2.887c0,0.594-0.188,1.158-0.562,1.692s-0.891,0.951-1.547,1.251
		c0.756,0.269,1.333,0.682,1.729,1.237s0.595,1.203,0.595,1.94c0,1.25-0.454,2.233-1.364,2.949c-0.91,0.717-2.074,1.074-3.492,1.074
		c-1.27,0-2.358-0.336-3.268-1.008s-1.349-1.62-1.316-2.846l0.018-0.057h2.653c0,0.525,0.187,0.958,0.562,1.299
		c0.375,0.342,0.85,0.512,1.425,0.512c0.631,0,1.129-0.176,1.495-0.525c0.366-0.349,0.549-0.824,0.549-1.424
		c0-0.718-0.18-1.246-0.54-1.58c-0.359-0.335-0.889-0.502-1.588-0.502h-1.538L108.492,274.88L108.492,274.88z"/>
	<path fill="#232323" d="M125.488,277.55c0,1.807-0.414,3.179-1.242,4.112c-0.828,0.935-1.949,1.402-3.361,1.402
		c-1.425,0-2.553-0.468-3.384-1.402c-0.831-0.934-1.247-2.306-1.247-4.112v-3.009c0-1.801,0.415-3.171,1.243-4.111
		s1.951-1.411,3.37-1.411c1.413,0,2.536,0.471,3.371,1.411c0.834,0.94,1.251,2.311,1.251,4.111V277.55z M122.761,274.26
		c0-1.082-0.163-1.874-0.487-2.377c-0.325-0.503-0.794-0.754-1.407-0.754c-0.618,0-1.087,0.249-1.406,0.751
		c-0.319,0.5-0.479,1.292-0.479,2.381v3.554c0,1.1,0.161,1.899,0.483,2.399s0.795,0.75,1.42,0.75c0.613,0,1.079-0.25,1.397-0.75
		c0.318-0.501,0.479-1.3,0.479-2.399V274.26z"/>
</g>
<g>
	<path fill="#232323" d="M262.919,279.276c0-0.507-0.146-0.918-0.437-1.238c-0.29-0.319-0.789-0.616-1.495-0.89
		c-1.388-0.507-2.415-1.07-3.084-1.692c-0.667-0.621-1.003-1.497-1.003-2.629c0-1.049,0.336-1.911,1.009-2.583
		c0.672-0.673,1.577-1.067,2.716-1.186v-2.017h1.489v2.044c1.094,0.162,1.953,0.619,2.583,1.374
		c0.628,0.753,0.936,1.733,0.922,2.939l-0.027,0.048h-2.662c0-0.738-0.152-1.308-0.459-1.707c-0.307-0.4-0.719-0.601-1.238-0.601
		c-0.537,0-0.938,0.155-1.204,0.464c-0.266,0.311-0.398,0.721-0.398,1.233c0,0.487,0.139,0.884,0.417,1.185
		c0.278,0.303,0.787,0.603,1.533,0.896c1.383,0.545,2.406,1.124,3.074,1.745c0.669,0.617,1.005,1.483,1.005,2.597
		c0,1.081-0.337,1.948-1.009,2.602c-0.672,0.652-1.582,1.039-2.723,1.157v1.855h-1.49v-1.848c-1.169-0.118-2.135-0.532-2.896-1.242
		c-0.763-0.711-1.132-1.751-1.106-3.127l0.017-0.047h2.663c0,0.838,0.193,1.438,0.583,1.8c0.387,0.362,0.875,0.544,1.462,0.544
		c0.569,0,1.005-0.15,1.308-0.454C262.771,280.196,262.919,279.787,262.919,279.276z"/>
	<path fill="#232323" d="M266.885,281.226l2.306-0.282v-9.244h-2.334v-1.565l5.062-0.918v11.728l2.306,0.282v1.641h-7.34V281.226z"
		/>
	<path fill="#232323" d="M282.578,272.329l-0.243-0.918h-3.676l-0.384,3.15c0.256-0.188,0.562-0.343,0.918-0.464
		s0.751-0.186,1.182-0.192c1.312-0.018,2.328,0.379,3.047,1.19c0.72,0.812,1.08,1.944,1.08,3.394c0,1.313-0.396,2.403-1.187,3.272
		c-0.79,0.869-1.93,1.303-3.417,1.303c-1.249,0-2.321-0.343-3.217-1.026c-0.895-0.684-1.324-1.626-1.293-2.825l0.019-0.048
		l2.624-0.132c0,0.606,0.172,1.081,0.517,1.42c0.345,0.341,0.794,0.512,1.351,0.512c0.638,0,1.109-0.229,1.416-0.684
		c0.306-0.455,0.459-1.048,0.459-1.771c0-0.788-0.162-1.419-0.487-1.895s-0.81-0.713-1.453-0.713c-0.518,0-0.917,0.097-1.195,0.291
		c-0.278,0.192-0.477,0.455-0.594,0.786l-2.417-0.159l0.785-7.604h7.856v3.113L282.578,272.329L282.578,272.329z"/>
</g>
<g>
	<path fill="#232323" d="M183.067,279.276c0-0.507-0.146-0.918-0.436-1.238c-0.29-0.319-0.789-0.616-1.495-0.89
		c-1.387-0.507-2.416-1.07-3.084-1.692c-0.668-0.621-1.003-1.497-1.003-2.629c0-1.049,0.336-1.911,1.008-2.583
		c0.672-0.673,1.577-1.067,2.714-1.186v-2.017h1.491v2.044c1.093,0.162,1.955,0.619,2.583,1.374
		c0.629,0.753,0.936,1.733,0.923,2.939l-0.028,0.048h-2.663c0-0.738-0.152-1.308-0.459-1.707c-0.307-0.4-0.719-0.601-1.238-0.601
		c-0.538,0-0.939,0.155-1.205,0.464c-0.266,0.311-0.398,0.721-0.398,1.233c0,0.487,0.139,0.884,0.417,1.185
		c0.277,0.303,0.789,0.603,1.533,0.896c1.381,0.545,2.406,1.124,3.075,1.745c0.669,0.617,1.004,1.483,1.004,2.597
		c0,1.081-0.336,1.948-1.008,2.602c-0.672,0.652-1.58,1.039-2.723,1.157v1.855h-1.491v-1.848c-1.168-0.118-2.134-0.532-2.897-1.242
		c-0.762-0.711-1.131-1.751-1.106-3.127l0.018-0.047h2.663c0,0.838,0.193,1.438,0.582,1.8s0.875,0.544,1.463,0.544
		c0.568,0,1.004-0.15,1.308-0.454C182.917,280.196,183.067,279.787,183.067,279.276z"/>
	<path fill="#232323" d="M189.995,274.88h1.538c0.649,0,1.131-0.171,1.445-0.512c0.313-0.341,0.469-0.815,0.469-1.42
		c0-0.55-0.155-0.989-0.469-1.321c-0.314-0.331-0.766-0.496-1.359-0.496c-0.514,0-0.944,0.15-1.293,0.449
		c-0.351,0.298-0.524,0.692-0.524,1.182h-2.653l-0.019-0.057c-0.038-1.068,0.372-1.95,1.228-2.644
		c0.856-0.693,1.919-1.041,3.188-1.041c1.413,0,2.539,0.338,3.38,1.013c0.841,0.676,1.261,1.638,1.261,2.887
		c0,0.594-0.188,1.158-0.562,1.692s-0.891,0.951-1.547,1.251c0.757,0.269,1.333,0.682,1.73,1.237
		c0.396,0.556,0.595,1.203,0.595,1.94c0,1.25-0.454,2.233-1.364,2.949c-0.909,0.717-2.073,1.074-3.492,1.074
		c-1.269,0-2.357-0.336-3.267-1.008c-0.91-0.672-1.349-1.62-1.317-2.846l0.019-0.057h2.653c0,0.525,0.186,0.958,0.562,1.299
		c0.375,0.342,0.85,0.512,1.424,0.512c0.631,0,1.129-0.176,1.495-0.525c0.365-0.349,0.55-0.824,0.55-1.424
		c0-0.718-0.182-1.246-0.539-1.58c-0.359-0.335-0.889-0.502-1.589-0.502h-1.538v-2.053L189.995,274.88L189.995,274.88z"/>
</g>
<g>
	<path fill="#D0DAE3" d="M284.797,233.639c1.128,2.09,0.108,3.799-2.268,3.799H89.563c-2.374,0-3.395-1.709-2.267-3.799
		l19.634-36.402c1.127-2.09,3.992-3.799,6.367-3.799h145.5c2.376,0,5.239,1.709,6.367,3.799L284.797,233.639z"/>
</g>
<ellipse fill="#D0DAE3" cx="186.047" cy="217.99" rx="37.019" ry="14.854"/>
<ellipse fill="#FFFFFF" cx="186.047" cy="214.39" rx="37.019" ry="14.854"/>
<path fill="#716558" d="M204.731,203.9c-3.869-2.374-8.12-3.398-12.026-3.398c-5.812,0-10.857,2.269-12.741,5.735
	c-4.043,6.203-17.516,3.677-17.63,9.852c-0.099,5.391,11.466,7.297,21.079,7.093c7.229-0.151,15.425-1.646,22.271-5.846
	C211.472,213.789,211.045,207.771,204.731,203.9z"/>
<path fill="#495057" d="M201.725,211.19c-6.27,3.846-13.529,4.776-18.511,4.88c-3.1,0.061-10.83-0.289-14.099-2.066
	c-0.206-0.111-4.895-2.737,3.129-4.618c5.898-1.382,10.893-3.155,12.782-6.631c1.216-2.244,4.234-3.692,7.681-3.692
	c2.683,0,5.472,0.842,8.069,2.433C205.314,204.279,205.752,208.717,201.725,211.19L201.725,211.19z"/>
<path fill="#B58B6B" d="M204.731,199.622c-3.869-2.374-8.12-3.398-12.026-3.398c-5.812,0-10.857,2.269-12.741,5.735
	c-4.043,6.203-17.516,3.677-17.63,9.852c-0.099,5.39,11.466,7.296,21.079,7.091c7.229-0.149,15.425-1.646,22.271-5.845
	C211.472,209.511,211.045,203.493,204.731,199.622z"/>
<path fill="#716558" d="M200.775,201.494c-2.599-1.591-5.388-2.434-8.07-2.434c-3.447,0-6.464,1.45-7.681,3.695
	c-1.888,3.474-6.881,5.249-12.781,6.632c-8.023,1.88-3.334,4.507-3.13,4.616c3.27,1.779,10.999,2.128,14.099,2.066
	c4.981-0.104,12.242-1.034,18.511-4.881C205.751,208.721,205.314,204.279,200.775,201.494L200.775,201.494z"/>
<ellipse fill="#FFFFFF" cx="193.951" cy="206.149" rx="2.635" ry="1.418"/>
<g>
	<path fill="#D0DAE3" d="M136.73,142.965c0.094,0.281,1.883,5.639,2.209,7.741c0.496,3.206-0.854,5.755-3.231,7.064l5.495,30.282
		c0.168,0.809-0.35,1.598-1.157,1.766c-0.025,0.005-0.049,0.011-0.073,0.015l-3.923,0.606c-0.814,0.125-1.576-0.434-1.701-1.248
		c-0.003-0.024-0.006-0.05-0.01-0.076l-3.914-30.527c-2.667-0.528-4.72-2.558-5.214-5.757c-0.327-2.109-0.239-7.751-0.235-8.047
		c0.004-1.275,2.582-1.692,2.947-0.387l1.339,8.654c0.113,0.196,0.956,0.053,0.982-0.151c-0.155-1.564-0.836-8.607-0.855-8.767
		c0.005-1.306,2.542-1.698,2.937-0.454c0.038,0.163,1.509,7.078,1.834,8.615c0.085,0.187,0.939,0.068,0.98-0.151l-1.339-8.654
		C133.754,142.139,136.342,141.75,136.73,142.965z"/>
</g>
<path fill="#D0DAE3" d="M244.901,145.085l-7.567,44.132c-0.137,0.811-0.902,1.354-1.711,1.218c-0.004-0.001-0.006-0.001-0.009-0.002
	l-3.422-0.586c-0.812-0.141-1.354-0.91-1.216-1.719c0.007-0.042,0.018-0.081,0.025-0.12l4.21-19.043
	c-8.284-9.122,3.429-26.462,8.473-25.598C244.495,143.505,245.041,144.275,244.901,145.085z"/>
<path fill="#232323" d="M237.037,172.398c0.789-0.195,1.477-0.744,1.463-1.35c-0.01-0.605-0.872-1.167-1.916-1.083
	c-2.821,0.221-5.555,1.342-7.77,3.266c-0.822,0.713-0.641,1.9,0.282,2.519c0.924,0.622,1.964,0.625,2.44,0.056
	C232.896,174.179,234.803,172.948,237.037,172.398z"/>
<path fill="#232323" d="M136.041,171.411c-0.769-0.286-1.387-0.905-1.31-1.51c0.078-0.596,1-1.062,2.024-0.859
	c2.78,0.53,5.372,1.948,7.36,4.102c0.739,0.805,0.427,1.965-0.559,2.477c-0.991,0.516-2.025,0.403-2.434-0.215
	C139.958,173.636,138.199,172.2,136.041,171.411z"/>
</svg>
