<?xml version="1.0" encoding="utf-8"?>
<!-- Generator: Adobe Illustrator 16.0.4, SVG Export Plug-In . SVG Version: 6.00 Build 0)  -->
<!DOCTYPE svg PUBLIC "-//W3C//DTD SVG 1.1//EN" "http://www.w3.org/Graphics/SVG/1.1/DTD/svg11.dtd">
<svg version="1.1" id="Layer_1" xmlns="http://www.w3.org/2000/svg" xmlns:xlink="http://www.w3.org/1999/xlink" x="0px" y="0px"
	 width="300px" height="225px" viewBox="0 0 300 225" enable-background="new 0 0 300 225" xml:space="preserve">
<g>
	<g>
		<path fill="#EA651B" d="M53.403,93.795c0.393,0.483,0.867,0.915,1.417,1.271c2.8,1.807,6.532,1.002,8.339-1.797
			c0.961-1.492,1.184-3.252,0.756-4.842c-0.145,0.995-0.5,1.978-1.082,2.876C60.786,94.473,56.682,95.511,53.403,93.795z"/>
		<path fill="#FF7E1C" d="M53.024,86.728c-1.45,2.248-1.218,5.096,0.378,7.068c3.279,1.716,7.383,0.677,9.431-2.491
			c0.583-0.9,0.937-1.882,1.082-2.876c-0.376-1.392-1.246-2.654-2.553-3.496C58.565,83.123,54.832,83.929,53.024,86.728z"/>
	</g>
	<g>
		<g>
			<g>
				<path fill="#FFFFFF" d="M59.924,90.062c0.135,0.169,0.19,0.401,0.163,0.698c-0.042,0.358-0.188,0.618-0.444,0.78
					c-0.224,0.134-0.558,0.215-1.004,0.242v0.688h-0.493v-0.678H57.76v0.678h-0.496v-0.688h-0.982l0.102-0.586h0.101
					c0.162,0.006,0.266,0.003,0.314-0.012c0.065-0.02,0.105-0.069,0.121-0.15v-2.196c-0.02-0.107-0.078-0.175-0.173-0.202
					c-0.061-0.02-0.189-0.027-0.384-0.02h-0.082v-0.525l0.304,0.011c0.356,0,0.582-0.004,0.676-0.011v-0.799h0.497v0.79l0.385-0.01
					v-0.779h0.494v0.799c0.343,0.034,0.608,0.108,0.789,0.222c0.222,0.135,0.344,0.338,0.364,0.605
					c0.042,0.393-0.098,0.668-0.414,0.831l0,0C59.628,89.803,59.811,89.908,59.924,90.062L59.924,90.062z M57.77,89.627h0.082
					c0.282,0.006,0.502-0.01,0.659-0.05c0.27-0.068,0.404-0.214,0.404-0.436c0-0.223-0.132-0.37-0.396-0.445
					c-0.147-0.041-0.365-0.058-0.654-0.05c-0.049,0.007-0.081,0.009-0.094,0.009L57.77,89.627L57.77,89.627z M57.862,91.197
					c0.342,0.006,0.601-0.011,0.776-0.052c0.317-0.081,0.477-0.243,0.477-0.484c0-0.243-0.155-0.405-0.466-0.486
					c-0.168-0.047-0.424-0.062-0.769-0.05H57.77v1.073L57.862,91.197L57.862,91.197z"/>
			</g>
		</g>
	</g>
</g>
<g>
	<g>
		<path fill="#EA651B" d="M254.674,55.537c0.394,0.484,0.865,0.915,1.418,1.27c2.797,1.807,6.53,1.003,8.34-1.795
			c0.962-1.494,1.183-3.252,0.753-4.843c-0.146,0.995-0.5,1.978-1.083,2.877C262.057,56.214,257.953,57.251,254.674,55.537z"/>
		<path fill="#FF7E1C" d="M254.295,48.469c-1.449,2.248-1.22,5.097,0.382,7.068c3.278,1.715,7.381,0.678,9.427-2.491
			c0.582-0.9,0.937-1.882,1.082-2.877c-0.373-1.391-1.245-2.654-2.552-3.496C259.838,44.865,256.101,45.669,254.295,48.469z"/>
	</g>
	<g>
		<g>
			<g>
				<path fill="#FFFFFF" d="M261.194,51.804c0.138,0.168,0.186,0.402,0.162,0.699c-0.039,0.357-0.188,0.618-0.447,0.78
					c-0.222,0.135-0.556,0.216-0.998,0.243v0.688h-0.499v-0.679h-0.383v0.679h-0.498v-0.688h-0.979l0.102-0.586h0.102
					c0.159,0.006,0.266,0.002,0.312-0.011c0.067-0.02,0.109-0.07,0.122-0.15v-2.196c-0.021-0.108-0.078-0.176-0.174-0.202
					c-0.06-0.021-0.188-0.027-0.386-0.021h-0.078v-0.525l0.302,0.011c0.359,0,0.583-0.004,0.678-0.011v-0.799h0.498v0.788
					l0.383-0.011v-0.778h0.499v0.799c0.344,0.033,0.606,0.107,0.788,0.222c0.221,0.134,0.345,0.337,0.362,0.607
					c0.041,0.391-0.096,0.667-0.415,0.829l0,0C260.896,51.545,261.08,51.649,261.194,51.804L261.194,51.804z M259.041,51.368h0.079
					c0.284,0.007,0.505-0.01,0.658-0.05c0.271-0.066,0.407-0.214,0.407-0.435c0-0.222-0.133-0.371-0.398-0.445
					c-0.146-0.041-0.365-0.058-0.656-0.05c-0.048,0.007-0.078,0.01-0.09,0.01V51.368L259.041,51.368z M259.13,52.937
					c0.347,0.007,0.604-0.011,0.782-0.051c0.312-0.081,0.473-0.242,0.473-0.485c0-0.242-0.153-0.404-0.465-0.485
					c-0.165-0.047-0.424-0.064-0.769-0.05h-0.109v1.073h0.088V52.937L259.13,52.937z"/>
			</g>
		</g>
	</g>
</g>
<g>
	<g>
		<path fill="#EA651B" d="M37.573,64.918c0.862,1.066,1.908,2.017,3.123,2.802c6.17,3.984,14.407,2.212,18.391-3.961
			c2.126-3.293,2.615-7.173,1.668-10.682c-0.322,2.195-1.105,4.36-2.386,6.345C53.854,66.414,44.801,68.701,37.573,64.918z"/>
		<path fill="#FF7E1C" d="M36.733,49.329c-3.201,4.957-2.686,11.241,0.838,15.589c7.229,3.782,16.282,1.495,20.794-5.496
			c1.282-1.985,2.065-4.15,2.386-6.346c-0.828-3.068-2.746-5.852-5.629-7.711C48.951,41.382,40.72,43.155,36.733,49.329z"/>
	</g>
	<g>
		<g>
			<g>
				<path fill="#FFFFFF" d="M51.955,56.685c0.295,0.373,0.415,0.885,0.355,1.539c-0.089,0.789-0.417,1.362-0.983,1.719
					c-0.491,0.297-1.229,0.476-2.21,0.535v1.518h-1.09V60.5h-0.849v1.496h-1.095v-1.517H43.92l0.223-1.295h0.223
					c0.356,0.016,0.586,0.008,0.691-0.023c0.146-0.044,0.235-0.155,0.265-0.333v-4.843c-0.043-0.237-0.167-0.385-0.375-0.445
					c-0.136-0.045-0.418-0.06-0.849-0.045H43.92v-1.16l0.669,0.023c0.788,0,1.287-0.008,1.493-0.023v-1.762h1.094v1.74l0.849-0.023
					v-1.717h1.09v1.762c0.76,0.075,1.34,0.238,1.742,0.491c0.49,0.298,0.758,0.744,0.802,1.34c0.091,0.862-0.214,1.472-0.913,1.829
					l0,0C51.297,56.113,51.7,56.345,51.955,56.685L51.955,56.685z M47.199,55.726h0.18c0.625,0.016,1.108-0.021,1.45-0.11
					c0.593-0.149,0.892-0.47,0.892-0.962c0-0.49-0.291-0.818-0.87-0.981c-0.325-0.089-0.811-0.125-1.45-0.11
					c-0.102,0.015-0.171,0.02-0.202,0.02L47.199,55.726L47.199,55.726z M47.4,59.184c0.759,0.016,1.331-0.023,1.717-0.112
					c0.699-0.179,1.051-0.535,1.051-1.071c0-0.535-0.343-0.893-1.027-1.071c-0.372-0.104-0.94-0.14-1.696-0.11h-0.247v2.365H47.4z"
					/>
			</g>
		</g>
	</g>
</g>
<g>
	<g>
		<path fill="#EA651B" d="M191.361,61.193c0.97,1.195,2.141,2.262,3.503,3.142c6.925,4.469,16.157,2.481,20.627-4.443
			c2.383-3.693,2.929-8.044,1.867-11.979c-0.354,2.462-1.236,4.889-2.674,7.116C209.623,62.869,199.472,65.435,191.361,61.193z"/>
		<path fill="#FF7E1C" d="M190.422,43.708c-3.587,5.559-3.01,12.607,0.939,17.484c8.11,4.242,18.262,1.676,23.324-6.164
			c1.437-2.227,2.32-4.654,2.676-7.116c-0.926-3.44-3.082-6.563-6.312-8.648C204.127,34.797,194.891,36.786,190.422,43.708z"/>
	</g>
	<g>
		<g>
			<g>
				<path fill="#FFFFFF" d="M207.49,51.96c0.332,0.417,0.469,0.991,0.4,1.725c-0.099,0.885-0.469,1.528-1.104,1.928
					c-0.549,0.333-1.375,0.535-2.477,0.601v1.701h-1.227v-1.678h-0.949v1.678h-1.227v-1.701h-2.429l0.252-1.452h0.25
					c0.399,0.017,0.657,0.007,0.773-0.026c0.167-0.049,0.269-0.173,0.302-0.374v-5.431c-0.051-0.268-0.191-0.434-0.424-0.5
					c-0.148-0.051-0.467-0.067-0.953-0.051h-0.2v-1.3l0.753,0.026c0.882,0,1.439-0.01,1.674-0.026v-1.976h1.229v1.952l0.949-0.027
					v-1.926h1.227v1.976c0.852,0.083,1.504,0.267,1.953,0.551c0.549,0.333,0.851,0.834,0.902,1.5
					c0.098,0.968-0.242,1.651-1.027,2.052l0,0C206.758,51.317,207.209,51.577,207.49,51.96L207.49,51.96z M202.161,50.883h0.199
					c0.699,0.017,1.244-0.024,1.627-0.124c0.667-0.167,1.002-0.526,1.002-1.076c0-0.551-0.326-0.917-0.977-1.102
					c-0.37-0.1-0.909-0.141-1.628-0.123c-0.116,0.017-0.191,0.023-0.224,0.023V50.883L202.161,50.883z M202.385,54.763
					c0.851,0.017,1.493-0.026,1.926-0.126c0.786-0.201,1.176-0.602,1.176-1.202c0-0.601-0.383-1-1.15-1.202
					c-0.416-0.117-1.052-0.156-1.9-0.124h-0.275v2.652L202.385,54.763L202.385,54.763z"/>
			</g>
		</g>
	</g>
</g>
<g>
	<g>
		<path fill="#EA651B" d="M149.949,81.512c0.672,0.833,1.489,1.576,2.442,2.189c4.822,3.114,11.256,1.728,14.369-3.096
			c1.66-2.572,2.043-5.603,1.304-8.345c-0.249,1.717-0.862,3.406-1.866,4.958C162.67,82.679,155.599,84.467,149.949,81.512z"/>
		<path fill="#FF7E1C" d="M149.293,69.33c-2.499,3.873-2.097,8.784,0.657,12.182c5.649,2.956,12.72,1.168,16.249-4.293
			c1.003-1.552,1.617-3.244,1.866-4.958c-0.647-2.397-2.148-4.572-4.397-6.025C158.844,63.121,152.408,64.507,149.293,69.33z"/>
	</g>
	<g>
		<g>
			<g>
				<path fill="#FFFFFF" d="M161.186,75.08c0.23,0.291,0.325,0.69,0.28,1.202c-0.069,0.616-0.327,1.065-0.769,1.343
					c-0.382,0.231-0.958,0.372-1.726,0.419v1.186h-0.854V78.06h-0.661v1.169h-0.857v-1.186h-1.689l0.175-1.011h0.176
					c0.277,0.011,0.457,0.005,0.539-0.018c0.115-0.035,0.188-0.122,0.21-0.261V72.97c-0.034-0.186-0.132-0.302-0.295-0.348
					c-0.103-0.035-0.328-0.046-0.664-0.035h-0.139v-0.906l0.522,0.019c0.616,0,1.003-0.007,1.166-0.019v-1.376h0.858v1.36
					l0.661-0.019v-1.343h0.854v1.376c0.593,0.058,1.044,0.186,1.36,0.384c0.383,0.232,0.594,0.581,0.625,1.046
					c0.068,0.674-0.167,1.151-0.715,1.429l0,0C160.672,74.631,160.989,74.813,161.186,75.08L161.186,75.08z M157.47,74.33h0.143
					c0.487,0.011,0.866-0.018,1.132-0.086c0.465-0.117,0.699-0.366,0.699-0.751c0-0.384-0.228-0.639-0.682-0.767
					c-0.254-0.07-0.631-0.098-1.133-0.086c-0.082,0.012-0.133,0.017-0.159,0.017V74.33L157.47,74.33z M157.629,77.032
					c0.593,0.011,1.037-0.019,1.343-0.087c0.546-0.14,0.82-0.419,0.82-0.837c0-0.417-0.267-0.697-0.803-0.837
					c-0.292-0.082-0.733-0.109-1.326-0.086h-0.192v1.849L157.629,77.032L157.629,77.032z"/>
			</g>
		</g>
	</g>
</g>
<g>
	<g>
		<path fill="#EA651B" d="M110.298,47.175c0.564,0.697,1.248,1.319,2.043,1.833c4.036,2.606,9.419,1.446,12.025-2.589
			c1.39-2.154,1.708-4.689,1.089-6.984c-0.208,1.437-0.723,2.85-1.561,4.149C120.943,48.152,115.026,49.648,110.298,47.175z"/>
		<path fill="#FF7E1C" d="M109.75,36.981c-2.092,3.242-1.755,7.351,0.548,10.193c4.727,2.474,10.646,0.979,13.596-3.593
			c0.838-1.298,1.353-2.713,1.561-4.149c-0.541-2.005-1.797-3.826-3.68-5.041C117.738,31.786,112.356,32.946,109.75,36.981z"/>
	</g>
	<g>
		<g>
			<g>
				<path fill="#FFFFFF" d="M119.701,41.792c0.195,0.242,0.272,0.578,0.233,1.006c-0.06,0.516-0.272,0.891-0.642,1.124
					c-0.32,0.195-0.803,0.312-1.445,0.35v0.992h-0.714v-0.979h-0.553v0.979h-0.716v-0.992h-1.416l0.146-0.846h0.145
					c0.233,0.01,0.384,0.004,0.453-0.016c0.097-0.029,0.155-0.101,0.175-0.218v-3.165c-0.029-0.155-0.112-0.252-0.25-0.292
					c-0.085-0.029-0.27-0.038-0.552-0.029h-0.117v-0.758l0.438,0.016c0.515,0,0.841-0.006,0.978-0.016v-1.152h0.716v1.139
					l0.553-0.016v-1.123h0.713v1.152c0.497,0.049,0.876,0.155,1.139,0.321c0.318,0.195,0.495,0.485,0.524,0.875
					c0.059,0.563-0.142,0.962-0.597,1.196l0,0C119.272,41.417,119.536,41.569,119.701,41.792L119.701,41.792z M116.594,41.165h0.115
					c0.409,0.009,0.726-0.014,0.951-0.074c0.387-0.098,0.583-0.307,0.583-0.626c0-0.321-0.191-0.534-0.57-0.642
					c-0.215-0.06-0.53-0.082-0.948-0.073c-0.067,0.01-0.113,0.014-0.133,0.014L116.594,41.165L116.594,41.165L116.594,41.165z
					 M116.727,43.426c0.493,0.01,0.869-0.016,1.121-0.074c0.46-0.117,0.687-0.351,0.687-0.7c0-0.35-0.223-0.584-0.671-0.7
					c-0.243-0.068-0.614-0.092-1.11-0.072h-0.161v1.547L116.727,43.426L116.727,43.426z"/>
			</g>
		</g>
	</g>
</g>
<g>
	<g>
		<path fill="#EA651B" d="M81.968,93.754c1.067,1.318,2.359,2.495,3.863,3.466c7.636,4.928,17.821,2.734,22.748-4.901
			c2.631-4.073,3.235-8.872,2.064-13.212c-0.396,2.716-1.366,5.393-2.952,7.85C102.106,95.603,90.909,98.435,81.968,93.754z"/>
		<path fill="#FF7E1C" d="M80.932,74.472c-3.959,6.131-3.324,13.905,1.035,19.283c8.941,4.68,20.139,1.849,25.721-6.795
			c1.585-2.457,2.557-5.133,2.951-7.85c-1.022-3.794-3.397-7.238-6.959-9.538C96.045,64.644,85.859,66.837,80.932,74.472z"/>
	</g>
	<g>
		<g>
			<g>
				<path fill="#FFFFFF" d="M99.756,83.572c0.369,0.461,0.515,1.095,0.441,1.903c-0.11,0.975-0.516,1.685-1.213,2.125
					c-0.609,0.367-1.519,0.588-2.737,0.664v1.875h-1.351v-1.85h-1.047v1.85h-1.353v-1.875h-2.675l0.275-1.601h0.275
					c0.442,0.019,0.727,0.008,0.855-0.029c0.183-0.056,0.292-0.193,0.329-0.413v-5.99c-0.053-0.293-0.21-0.479-0.465-0.551
					c-0.165-0.055-0.517-0.074-1.049-0.055h-0.22v-1.435l0.827,0.029c0.978,0,1.591-0.01,1.849-0.029v-2.18h1.353v2.153l1.047-0.03
					v-2.123h1.35v2.18c0.94,0.092,1.661,0.294,2.154,0.607c0.61,0.367,0.94,0.92,0.996,1.656c0.107,1.066-0.265,1.821-1.133,2.263
					l0,0C98.946,82.862,99.443,83.149,99.756,83.572L99.756,83.572z M93.874,82.384h0.223c0.772,0.019,1.373-0.026,1.794-0.137
					c0.736-0.183,1.106-0.581,1.106-1.188c0-0.607-0.359-1.011-1.08-1.214c-0.404-0.111-1-0.155-1.79-0.137
					c-0.129,0.019-0.215,0.026-0.254,0.026L93.874,82.384L93.874,82.384z M94.127,86.663c0.936,0.019,1.643-0.029,2.119-0.14
					c0.867-0.221,1.301-0.662,1.301-1.324c0-0.663-0.422-1.103-1.271-1.325c-0.459-0.128-1.159-0.172-2.095-0.136h-0.308v2.926
					L94.127,86.663L94.127,86.663z"/>
			</g>
		</g>
	</g>
</g>
<g>
	<g>
		<path fill="#EA651B" d="M243.045,96.162c0.816,1.008,1.801,1.907,2.952,2.65c5.837,3.767,13.618,2.09,17.386-3.746
			c2.008-3.113,2.471-6.781,1.575-10.098c-0.304,2.076-1.041,4.122-2.253,5.999C258.437,97.575,249.88,99.738,243.045,96.162z"/>
		<path fill="#FF7E1C" d="M242.25,81.425c-3.022,4.686-2.537,10.627,0.794,14.738c6.836,3.576,15.392,1.413,19.657-5.194
			c1.213-1.879,1.953-3.923,2.255-5.999c-0.781-2.9-2.597-5.532-5.32-7.29C253.803,73.911,246.019,75.588,242.25,81.425z"/>
	</g>
	<g>
		<g>
			<g>
				<path fill="#FFFFFF" d="M256.643,88.379c0.276,0.352,0.391,0.836,0.336,1.454c-0.085,0.747-0.396,1.288-0.93,1.626
					c-0.466,0.281-1.16,0.449-2.088,0.506v1.434h-1.032v-1.414h-0.802v1.414h-1.032v-1.434h-2.046l0.212-1.225h0.211
					c0.339,0.016,0.554,0.006,0.651-0.022c0.141-0.042,0.224-0.146,0.255-0.314v-4.578c-0.044-0.225-0.164-0.366-0.36-0.422
					c-0.125-0.042-0.392-0.057-0.804-0.042h-0.165v-1.097l0.634,0.021c0.746,0,1.214-0.008,1.413-0.021V82.6h1.032v1.646
					l0.801-0.021V82.6h1.034v1.666c0.717,0.069,1.264,0.224,1.642,0.464c0.466,0.281,0.719,0.704,0.761,1.267
					c0.086,0.816-0.201,1.391-0.862,1.729l0,0C256.021,87.837,256.399,88.056,256.643,88.379L256.643,88.379z M252.146,87.471h0.167
					c0.592,0.014,1.05-0.02,1.373-0.103c0.562-0.141,0.844-0.445,0.844-0.909c0-0.464-0.274-0.773-0.82-0.928
					c-0.311-0.084-0.771-0.119-1.374-0.104c-0.099,0.013-0.163,0.02-0.188,0.02L252.146,87.471L252.146,87.471z M252.334,90.741
					c0.719,0.016,1.258-0.022,1.625-0.106c0.663-0.168,0.991-0.505,0.991-1.012c0-0.506-0.325-0.844-0.969-1.013
					c-0.352-0.099-0.885-0.133-1.604-0.105h-0.232v2.236H252.334z"/>
			</g>
		</g>
	</g>
</g>
<ellipse opacity="0.3" fill="#232323" enable-background="new    " cx="152.917" cy="189.841" rx="19.573" ry="3.159"/>
<path fill="#232323" d="M138.74,167.445c0.079,0.641,2.198,18.713,5.277,21.247c3.077,2.532,4.695,1.679,5.319,1.007
	c0.653-0.706,1.481-1.973-0.051-3.403c-1.231-1.149-2.098-6.243-0.867-14.187L138.74,167.445z"/>
<path fill="#232323" d="M150.497,166.317c0.081,0.639,2.196,18.713,5.273,21.247c3.081,2.531,4.699,1.68,5.322,1.006
	c0.654-0.705,1.481-1.972-0.049-3.401c-1.233-1.151-2.103-6.243-0.872-14.189L150.497,166.317z"/>
<path fill="#232323" d="M159.611,143.753c-0.783-1.178-2.283-1.657-3.588-0.821c-1.305,0.826-1.756,3.115-0.67,4.77
	c3.077,4.704,8.024,7.362,13.648,7.328c1.978-0.011,3.635-1.649,3.604-3.192c-0.023-1.551-1.252-2.536-2.668-2.54
	C165.686,149.322,161.939,147.314,159.611,143.753z"/>
<path fill="#FFFFFF" d="M141.203,140.148c3.557-1.975,8.069-3.034,16.39-3.359c-1.983-0.839-4.608-1.229-8.453-1.229h-0.008
	c-6.578,0-9.621,1.122-11.911,3.728c-2.704,3.08-4.067,11.883-4.342,18.731C133.317,151.586,135.926,143.081,141.203,140.148z"/>
<path fill="#444444" d="M132.879,158.019c-0.065,0.947-0.078,1.845-0.051,2.677C132.825,159.852,132.841,158.955,132.879,158.019z"
	/>
<path fill="#444444" d="M127.121,169.061c-0.939,0.667-2.151,0.898-2.794,0.327c-0.638-0.565-0.443-2.007,0.602-3.044
	c2.826-2.817,6.537-4.714,10.625-5.323c1.52-0.222,2.627,1.063,2.44,2.617c-0.182,1.562-1.134,2.68-2.18,2.666
	C132.828,166.258,129.756,167.169,127.121,169.061z"/>
<g>
	<path fill="#FFFFFF" d="M138.036,132.534c-3.947-4.445-2.214-9.505,6.164-15.328c2.657-1.849,3.234-6.645,4.867-8.453
		c4.694-5.204,8.338-2.297,8.338-2.297l0.012-0.006c-6.766-4.74-17.133-3.607-24.714,3.184c-8.607,7.712-10.369,19.788-3.931,26.974
		c6.437,7.189,18.635,6.766,27.241-0.945c0.747-0.67,1.442-1.378,2.09-2.109l-0.009-0.009
		C150.984,140.859,143.274,138.434,138.036,132.534z"/>
	<path fill="#444444" d="M159.943,108.689c-0.764-0.855-1.613-1.599-2.526-2.241l-0.012,0.007c0,0-3.644-2.907-8.338,2.296
		c-1.633,1.809-2.209,6.606-4.867,8.454c-8.379,5.824-10.112,10.883-6.164,15.328c5.238,5.899,12.95,8.325,20.06,1.011l0.008,0.009
		C164.861,125.886,165.822,115.252,159.943,108.689z"/>
	<path fill="#7F7F7F" d="M159.458,128.214c-1.594,1.545-6.094,3.008-8.541-0.974c-2.447-3.979,1.091-7.91,2.347-9.126
		c1.258-1.218,5.192-4.519,7.634-0.539C163.347,121.557,161.052,126.67,159.458,128.214z"/>
	<path fill="#232323" d="M153.981,119.084c0.692-0.67,2.266-0.773,3.024,0.145c0.754,0.918-1.272,2.821-1.272,2.821l-0.057,0.056
		c0,0-1.981,1.978-2.497,0.824c-0.518-1.151-0.036-3.031,0.654-3.702L153.981,119.084z"/>
	<path fill="none" stroke="#232323" stroke-width="0.6111" stroke-linecap="round" stroke-miterlimit="10" d="M159.412,121.763
		c0.106,0.519,0.129,1.061,0.072,1.586c-0.06,0.529-0.2,1.044-0.415,1.517c-0.216,0.474-0.511,0.902-0.876,1.258
		c-0.367,0.354-0.773,0.602-1.191,0.743c-0.418,0.144-0.852,0.184-1.275,0.12c-0.423-0.062-0.83-0.226-1.206-0.486"/>
	<circle fill="#232323" cx="145.71" cy="123.204" r="0.857"/>
	<circle fill="#232323" cx="154.578" cy="112.313" r="0.856"/>
	<path fill="#444444" d="M141.228,131.771c2.279,2.482,3.342,5.219,2.367,6.115c-0.977,0.893-3.611-0.395-5.895-2.876
		c-2.279-2.484-3.337-5.219-2.367-6.114C136.307,128.002,138.946,129.289,141.228,131.771z"/>
	<path fill="#232323" d="M137.623,129.965c-0.796,0.741-0.123,2.871,1.515,5.283c-0.265-0.252-0.532-0.521-0.797-0.812
		c-1.781-1.959-2.716-4.021-2.085-4.61c0.268-0.25,0.778-0.19,1.411,0.108C137.654,129.947,137.636,129.953,137.623,129.965z"/>
	<path fill="none" stroke="#7F7F7F" stroke-width="0.6746" stroke-linecap="round" stroke-miterlimit="10" d="M143.743,125.032
		c-0.18-0.243-0.309-0.519-0.382-0.805c-0.073-0.289-0.094-0.59-0.053-0.89c0.04-0.298,0.142-0.594,0.305-0.871
		c0.162-0.275,0.378-0.504,0.619-0.683"/>
	<path fill="none" stroke="#7F7F7F" stroke-width="0.6746" stroke-linecap="round" stroke-miterlimit="10" d="M152.677,111.056
		c0.149-0.262,0.349-0.493,0.579-0.676c0.235-0.185,0.503-0.327,0.789-0.412c0.293-0.085,0.602-0.116,0.92-0.079
		c0.319,0.036,0.616,0.137,0.877,0.283"/>
</g>
<path fill="#444444" d="M161.052,139.287c-0.838-0.951-1.776-1.704-2.949-2.278c-0.161-0.078-0.338-0.15-0.51-0.222
	c-1.338,0.052-2.569,0.127-3.728,0.217c-2.832,0.102-5.051,0.416-6.853,0.982c-2.324,0.54-4.168,1.251-5.809,2.162
	c-5.276,2.932-7.886,11.438-8.324,17.87c-0.038,0.937-0.054,1.833-0.051,2.677c0.007,2.176,0.145,3.982,0.407,5.075
	c0.282,1.183,1.411,2.189,3.187,2.985c2.831,1.27,7.316,1.994,12.709,1.994h0.008c0.505,0,1.001-0.01,1.493-0.021
	c0.151-0.005,0.298-0.012,0.447-0.015c0.339-0.014,0.673-0.026,1.004-0.044c0.164-0.01,0.327-0.019,0.489-0.028
	c0.323-0.021,0.635-0.044,0.948-0.069c0.146-0.012,0.291-0.022,0.438-0.037c0.379-0.034,0.748-0.073,1.113-0.116
	c0.062-0.008,0.127-0.015,0.19-0.021c0.428-0.054,0.845-0.113,1.251-0.179c0.101-0.017,0.193-0.033,0.289-0.049
	c0.305-0.053,0.603-0.104,0.893-0.162c0.122-0.025,0.24-0.05,0.361-0.075c0.262-0.056,0.515-0.115,0.764-0.174
	c0.114-0.029,0.227-0.056,0.339-0.085c0.271-0.07,0.528-0.143,0.784-0.221c0.061-0.017,0.121-0.031,0.182-0.049h-0.01
	c1.738-0.538,3.09-1.225,3.939-2.04c0.01-0.008,0.018-0.018,0.026-0.026c0.157-0.152,0.305-0.312,0.428-0.475
	c0.048-0.063,0.077-0.131,0.12-0.196c0.072-0.112,0.15-0.22,0.207-0.336c0.092-0.183,0.158-0.368,0.205-0.561
	C166.146,161.154,165.08,143.872,161.052,139.287z"/>
<ellipse fill="#444444" cx="149.197" cy="163.716" rx="16.16" ry="12.732"/>
<path fill="#232323" d="M144.262,148.252c0.231-1.396-0.536-2.77-2.063-3.051c-1.514-0.284-3.41,1.082-3.746,3.031
	c-0.956,5.539,0.844,10.856,4.983,14.67c1.449,1.34,3.782,1.271,4.812,0.125c1.042-1.152,0.815-2.71-0.219-3.678
	C144.901,156.466,143.538,152.443,144.262,148.252z"/>
<g>
	<path fill="#232323" d="M149.986,163.394c0.299,0.239,0.697,0.338,0.918,0.159c0.223-0.175,0.184-0.655-0.142-1.018
		c-0.884-0.985-2.079-1.684-3.42-1.959c-0.502-0.102-0.893,0.304-0.858,0.822c0.03,0.521,0.327,0.908,0.672,0.924
		C148.149,162.359,149.149,162.719,149.986,163.394z"/>
	<path fill="#232323" d="M148.634,165.15c0.218,0.311,0.575,0.516,0.836,0.408c0.263-0.107,0.361-0.58,0.146-1.018
		c-0.575-1.192-1.533-2.192-2.743-2.832c-0.454-0.236-0.939,0.044-1.051,0.551c-0.115,0.51,0.06,0.964,0.391,1.074
		C147.153,163.646,148.016,164.269,148.634,165.15z"/>
	<path fill="#232323" d="M146.553,166.036c0.051,0.378,0.276,0.722,0.559,0.745s0.583-0.351,0.593-0.841
		c0.031-1.321-0.366-2.649-1.152-3.769c-0.297-0.417-0.856-0.388-1.188,0.013c-0.334,0.401-0.385,0.886-0.142,1.134
		C145.918,164.023,146.403,164.97,146.553,166.036z"/>
</g>
<g>
	<path fill="#232323" d="M150.979,187.938c0.383,0.109,0.811,0.045,0.956-0.216c0.142-0.261-0.089-0.711-0.554-0.931
		c-1.253-0.598-2.692-0.791-4.105-0.517c-0.526,0.104-0.743,0.653-0.498,1.143c0.239,0.492,0.682,0.749,1.024,0.624
		C148.777,187.68,149.891,187.623,150.979,187.938z"/>
	<path fill="#232323" d="M150.376,190.188c0.34,0.213,0.765,0.268,0.978,0.058c0.212-0.212,0.113-0.708-0.27-1.048
		c-1.041-0.923-2.37-1.507-3.805-1.637c-0.536-0.047-0.893,0.424-0.797,0.96c0.095,0.54,0.45,0.91,0.814,0.884
		C148.333,189.328,149.417,189.583,150.376,190.188z"/>
	<path fill="#232323" d="M148.716,191.888c0.203,0.345,0.561,0.588,0.843,0.497c0.284-0.091,0.423-0.579,0.235-1.055
		c-0.504-1.296-1.425-2.421-2.641-3.188c-0.455-0.286-0.987-0.031-1.146,0.491c-0.158,0.522-0.017,1.015,0.322,1.155
		C147.288,190.193,148.137,190.916,148.716,191.888z"/>
</g>
<g>
	<path fill="#232323" d="M163.262,186.603c0.385,0.11,0.811,0.044,0.955-0.217c0.143-0.261-0.086-0.712-0.549-0.933
		c-1.257-0.597-2.694-0.788-4.11-0.517c-0.524,0.104-0.739,0.655-0.497,1.145c0.239,0.491,0.685,0.747,1.023,0.624
		C161.064,186.344,162.177,186.286,163.262,186.603z"/>
	<path fill="#232323" d="M162.661,188.85c0.341,0.215,0.767,0.27,0.978,0.057c0.211-0.209,0.114-0.706-0.269-1.045
		c-1.042-0.923-2.368-1.508-3.808-1.637c-0.533-0.047-0.893,0.424-0.793,0.96c0.094,0.54,0.447,0.909,0.811,0.883
		C160.617,187.991,161.705,188.247,162.661,188.85z"/>
	<path fill="#232323" d="M161,190.55c0.206,0.347,0.559,0.59,0.846,0.497c0.282-0.091,0.423-0.578,0.235-1.055
		c-0.506-1.294-1.427-2.42-2.645-3.188c-0.454-0.286-0.988-0.029-1.145,0.494c-0.16,0.521-0.014,1.014,0.32,1.154
		C159.573,188.857,160.424,189.58,161,190.55z"/>
</g>
<g>
	<path fill="#232323" d="M174.877,150.943c0.41-0.023,0.793-0.228,0.849-0.526c0.051-0.295-0.321-0.653-0.837-0.711
		c-1.402-0.156-2.853,0.136-4.117,0.869c-0.47,0.273-0.493,0.872-0.101,1.263c0.396,0.392,0.905,0.493,1.192,0.259
		C172.68,151.424,173.731,151,174.877,150.943z"/>
	<path fill="#232323" d="M175.049,153.301c0.395,0.092,0.823,0.004,0.956-0.268c0.134-0.273-0.125-0.718-0.604-0.918
		c-1.305-0.54-2.777-0.659-4.196-0.308c-0.53,0.135-0.717,0.705-0.448,1.188c0.271,0.486,0.734,0.724,1.074,0.577
		C172.803,153.153,173.928,153.039,175.049,153.301z"/>
	<path fill="#232323" d="M174.019,155.484c0.31,0.264,0.734,0.381,0.975,0.197c0.239-0.183,0.215-0.695-0.121-1.091
		c-0.916-1.075-2.173-1.853-3.597-2.186c-0.531-0.122-0.957,0.3-0.938,0.854c0.019,0.553,0.322,0.977,0.692,1.001
		C172.088,154.332,173.143,154.744,174.019,155.484z"/>
</g>
</svg>
