<?xml version="1.0" encoding="utf-8"?>
<!-- Generator: Adobe Illustrator 16.0.4, SVG Export Plug-In . SVG Version: 6.00 Build 0)  -->
<!DOCTYPE svg PUBLIC "-//W3C//DTD SVG 1.1//EN" "http://www.w3.org/Graphics/SVG/1.1/DTD/svg11.dtd">
<svg version="1.1" id="Layer_1" xmlns="http://www.w3.org/2000/svg" xmlns:xlink="http://www.w3.org/1999/xlink" x="0px" y="0px"
	 width="375px" height="375px" viewBox="0 0 375 375" enable-background="new 0 0 375 375" xml:space="preserve">
<g>
	<g>
		<path fill="#EA651B" d="M66.254,163.994c0.49,0.604,1.083,1.143,1.771,1.589c3.5,2.259,8.165,1.253,10.424-2.246
			c1.202-1.865,1.48-4.065,0.945-6.053c-0.181,1.244-0.626,2.472-1.352,3.596C75.482,164.841,70.353,166.139,66.254,163.994z"/>
		<path fill="#FF7E1C" d="M65.781,155.159c-1.813,2.81-1.523,6.37,0.473,8.835c4.099,2.145,9.228,0.847,11.788-3.113
			c0.728-1.125,1.171-2.353,1.352-3.596c-0.47-1.74-1.557-3.317-3.191-4.37C72.706,150.654,68.04,151.661,65.781,155.159z"/>
	</g>
	<g>
		<g>
			<g>
				<path fill="#FFFFFF" d="M74.405,159.328c0.169,0.211,0.237,0.502,0.204,0.872c-0.052,0.448-0.236,0.772-0.556,0.975
					c-0.28,0.168-0.697,0.269-1.255,0.303v0.86h-0.617v-0.848H71.7v0.848h-0.62v-0.86h-1.227l0.127-0.733h0.126
					c0.203,0.008,0.333,0.004,0.393-0.014c0.082-0.025,0.132-0.087,0.151-0.188v-2.745c-0.025-0.134-0.097-0.219-0.216-0.252
					c-0.076-0.025-0.236-0.034-0.48-0.025h-0.102v-0.657l0.38,0.014c0.445,0,0.727-0.005,0.845-0.014v-0.999h0.621v0.987
					l0.481-0.013v-0.974h0.617v0.999c0.429,0.042,0.76,0.135,0.986,0.278c0.278,0.168,0.43,0.422,0.455,0.757
					c0.052,0.49-0.122,0.835-0.517,1.038l0,0C74.035,159.004,74.263,159.135,74.405,159.328L74.405,159.328z M71.712,158.784h0.102
					c0.352,0.008,0.628-0.012,0.823-0.062c0.337-0.085,0.505-0.268,0.505-0.545c0-0.278-0.165-0.462-0.494-0.556
					c-0.184-0.051-0.457-0.072-0.818-0.063c-0.061,0.009-0.101,0.012-0.117,0.012V158.784z M71.828,160.746
					c0.428,0.008,0.751-0.014,0.97-0.065c0.396-0.101,0.596-0.303,0.596-0.605c0-0.303-0.194-0.506-0.582-0.607
					c-0.211-0.06-0.53-0.079-0.961-0.063h-0.139v1.341H71.828z"/>
			</g>
		</g>
	</g>
</g>
<g>
	<g>
		<path fill="#EA651B" d="M317.843,116.171c0.491,0.605,1.081,1.143,1.772,1.587c3.496,2.258,8.162,1.254,10.424-2.244
			c1.203-1.867,1.479-4.066,0.942-6.054c-0.183,1.244-0.626,2.472-1.354,3.596C327.071,117.018,321.942,118.314,317.843,116.171z"/>
		<path fill="#FF7E1C" d="M317.369,107.336c-1.813,2.81-1.525,6.371,0.477,8.835c4.098,2.144,9.226,0.847,11.784-3.114
			c0.728-1.125,1.17-2.352,1.353-3.596c-0.467-1.738-1.557-3.317-3.191-4.37C324.297,102.831,319.626,103.836,317.369,107.336z"/>
	</g>
	<g>
		<g>
			<g>
				<path fill="#FFFFFF" d="M325.993,111.505c0.172,0.21,0.232,0.502,0.203,0.873c-0.05,0.446-0.235,0.772-0.559,0.975
					c-0.278,0.169-0.695,0.27-1.248,0.303v0.86h-0.623v-0.849h-0.479v0.849h-0.623v-0.86h-1.224l0.126-0.733h0.127
					c0.199,0.008,0.332,0.003,0.391-0.014c0.084-0.025,0.136-0.087,0.152-0.188v-2.745c-0.026-0.135-0.098-0.219-0.216-0.252
					c-0.075-0.026-0.235-0.034-0.483-0.026h-0.097v-0.657l0.376,0.014c0.45,0,0.73-0.005,0.848-0.014v-0.999h0.623v0.985
					l0.479-0.014v-0.973h0.623v0.999c0.429,0.041,0.757,0.134,0.985,0.277c0.276,0.168,0.43,0.422,0.453,0.759
					c0.051,0.489-0.12,0.834-0.519,1.036l0,0C325.62,111.181,325.85,111.312,325.993,111.505L325.993,111.505z M323.301,110.96
					h0.099c0.356,0.009,0.631-0.012,0.823-0.062c0.337-0.083,0.509-0.267,0.509-0.544c0-0.277-0.166-0.463-0.497-0.556
					c-0.184-0.051-0.457-0.072-0.822-0.062c-0.059,0.008-0.097,0.012-0.111,0.012V110.96z M323.412,112.921
					c0.433,0.008,0.755-0.014,0.978-0.064c0.391-0.101,0.591-0.303,0.591-0.606s-0.192-0.505-0.58-0.606
					c-0.208-0.059-0.531-0.08-0.961-0.063h-0.137v1.341h0.109V112.921z"/>
			</g>
		</g>
	</g>
</g>
<g>
	<g>
		<path fill="#EA651B" d="M46.466,127.898c1.078,1.333,2.385,2.521,3.904,3.503c7.713,4.98,18.009,2.765,22.988-4.952
			c2.658-4.117,3.269-8.966,2.085-13.352c-0.402,2.744-1.381,5.45-2.982,7.932C66.818,129.767,55.502,132.626,46.466,127.898z"/>
		<path fill="#FF7E1C" d="M45.417,108.411c-4.001,6.197-3.357,14.052,1.048,19.487c9.036,4.728,20.352,1.869,25.993-6.869
			c1.602-2.482,2.581-5.188,2.983-7.933c-1.035-3.835-3.433-7.315-7.037-9.639C60.689,98.478,50.4,100.694,45.417,108.411z"/>
	</g>
	<g>
		<g>
			<g>
				<path fill="#FFFFFF" d="M64.444,117.606c0.369,0.466,0.518,1.106,0.444,1.924c-0.111,0.986-0.522,1.702-1.229,2.148
					c-0.614,0.372-1.536,0.595-2.763,0.669v1.897h-1.363v-1.869h-1.061v1.87h-1.369v-1.896h-2.703l0.279-1.618h0.279
					c0.445,0.02,0.733,0.009,0.864-0.029c0.182-0.055,0.293-0.194,0.331-0.417v-6.053c-0.054-0.297-0.209-0.482-0.469-0.557
					c-0.17-0.056-0.523-0.075-1.061-0.056H54.4v-1.45l0.837,0.029c0.985,0,1.608-0.01,1.866-0.029v-2.202h1.368v2.174l1.061-0.028
					v-2.146h1.363v2.202c0.95,0.093,1.675,0.297,2.177,0.613c0.612,0.373,0.948,0.93,1.002,1.675
					c0.114,1.077-0.268,1.84-1.141,2.286l0,0C63.622,116.891,64.125,117.181,64.444,117.606L64.444,117.606z M58.499,116.407h0.225
					c0.781,0.02,1.386-0.027,1.813-0.138c0.741-0.187,1.115-0.588,1.115-1.202c0-0.613-0.364-1.023-1.088-1.227
					c-0.407-0.111-1.013-0.156-1.812-0.138c-0.128,0.018-0.214,0.025-0.252,0.025L58.499,116.407L58.499,116.407z M58.75,120.73
					c0.949,0.02,1.663-0.029,2.146-0.14c0.874-0.224,1.314-0.669,1.314-1.339c0-0.669-0.429-1.116-1.283-1.339
					c-0.465-0.13-1.176-0.175-2.121-0.138h-0.309v2.956H58.75z"/>
			</g>
		</g>
	</g>
</g>
<g>
	<g>
		<path fill="#EA651B" d="M238.702,123.241c1.212,1.494,2.675,2.828,4.378,3.927c8.657,5.586,20.198,3.101,25.784-5.554
			c2.979-4.616,3.661-10.055,2.334-14.973c-0.443,3.078-1.545,6.111-3.342,8.895C261.529,125.336,248.84,128.544,238.702,123.241z"
			/>
		<path fill="#FF7E1C" d="M237.528,101.385c-4.484,6.949-3.763,15.759,1.174,21.855c10.138,5.303,22.827,2.095,29.156-7.704
			c1.795-2.784,2.899-5.817,3.343-8.895c-1.157-4.3-3.852-8.204-7.891-10.81C254.659,90.246,243.113,92.733,237.528,101.385z"/>
	</g>
	<g>
		<g>
			<g>
				<path fill="#FFFFFF" d="M258.863,111.7c0.415,0.521,0.585,1.239,0.5,2.156c-0.123,1.106-0.585,1.91-1.379,2.41
					c-0.686,0.417-1.719,0.668-3.096,0.751v2.127h-1.533v-2.097h-1.187v2.097h-1.533v-2.127h-3.035l0.314-1.815h0.313
					c0.5,0.021,0.821,0.009,0.966-0.032c0.21-0.062,0.336-0.217,0.378-0.468v-6.788c-0.063-0.335-0.24-0.542-0.53-0.626
					c-0.186-0.063-0.584-0.084-1.191-0.063h-0.251V105.6l0.942,0.033c1.101,0,1.799-0.012,2.092-0.033v-2.47h1.535v2.44l1.188-0.034
					v-2.407h1.533v2.47c1.063,0.104,1.879,0.333,2.44,0.688c0.686,0.417,1.063,1.043,1.128,1.876
					c0.122,1.21-0.302,2.064-1.283,2.565l0,0C257.947,110.896,258.511,111.221,258.863,111.7L258.863,111.7z M252.201,110.354h0.249
					c0.874,0.021,1.556-0.03,2.035-0.155c0.834-0.208,1.251-0.657,1.251-1.345c0-0.689-0.407-1.147-1.221-1.377
					c-0.462-0.125-1.136-0.176-2.035-0.154c-0.144,0.021-0.239,0.029-0.279,0.029V110.354L252.201,110.354z M252.48,115.203
					c1.064,0.021,1.868-0.032,2.408-0.157c0.983-0.251,1.47-0.752,1.47-1.502c0-0.751-0.478-1.251-1.438-1.502
					c-0.52-0.146-1.314-0.196-2.376-0.155h-0.344v3.315L252.48,115.203L252.48,115.203z"/>
			</g>
		</g>
	</g>
</g>
<g>
	<g>
		<path fill="#EA651B" d="M186.936,148.64c0.84,1.042,1.861,1.97,3.052,2.737c6.027,3.892,14.071,2.16,17.961-3.87
			c2.076-3.215,2.554-7.004,1.63-10.431c-0.311,2.146-1.078,4.258-2.333,6.197C202.838,150.099,193.998,152.334,186.936,148.64z"/>
		<path fill="#FF7E1C" d="M186.116,133.412c-3.124,4.841-2.621,10.98,0.821,15.227c7.061,3.695,15.901,1.46,20.311-5.367
			c1.253-1.94,2.021-4.054,2.333-6.198c-0.809-2.996-2.687-5.715-5.497-7.531C198.054,125.651,190.01,127.384,186.116,133.412z"/>
	</g>
	<g>
		<g>
			<g>
				<path fill="#FFFFFF" d="M200.982,140.6c0.288,0.364,0.407,0.863,0.35,1.502c-0.086,0.77-0.409,1.331-0.96,1.679
					c-0.478,0.29-1.198,0.465-2.157,0.524v1.482h-1.068v-1.462h-0.826v1.462h-1.073v-1.482h-2.111l0.219-1.264h0.219
					c0.347,0.014,0.571,0.006,0.673-0.023c0.144-0.044,0.234-0.152,0.263-0.326v-4.73c-0.043-0.232-0.166-0.377-0.369-0.435
					c-0.129-0.043-0.409-0.058-0.829-0.043h-0.175v-1.133l0.654,0.023c0.771,0,1.254-0.009,1.458-0.023v-1.72h1.073v1.7l0.826-0.023
					v-1.678h1.068v1.72c0.741,0.073,1.305,0.232,1.7,0.48c0.479,0.29,0.742,0.726,0.782,1.307c0.085,0.843-0.209,1.439-0.894,1.787
					l0,0C200.34,140.039,200.736,140.266,200.982,140.6L200.982,140.6z M196.337,139.662h0.178c0.61,0.014,1.083-0.022,1.415-0.108
					c0.581-0.146,0.874-0.458,0.874-0.939c0-0.48-0.284-0.798-0.852-0.958c-0.317-0.087-0.788-0.122-1.416-0.108
					c-0.102,0.015-0.166,0.021-0.199,0.021V139.662z M196.536,143.04c0.741,0.014,1.297-0.023,1.679-0.109
					c0.682-0.175,1.025-0.524,1.025-1.046c0-0.522-0.333-0.872-1.004-1.046c-0.364-0.102-0.916-0.137-1.657-0.108h-0.24v2.311
					L196.536,143.04L196.536,143.04z"/>
			</g>
		</g>
	</g>
</g>
<g>
	<g>
		<path fill="#EA651B" d="M137.373,105.719c0.705,0.871,1.56,1.648,2.554,2.291c5.044,3.257,11.773,1.808,15.031-3.237
			c1.737-2.692,2.135-5.862,1.361-8.73c-0.261,1.796-0.904,3.563-1.951,5.187C150.679,106.94,143.282,108.81,137.373,105.719z"/>
		<path fill="#FF7E1C" d="M136.687,92.977c-2.615,4.052-2.194,9.188,0.685,12.741c5.909,3.092,13.308,1.223,16.995-4.491
			c1.047-1.623,1.691-3.391,1.951-5.187c-0.676-2.506-2.246-4.782-4.6-6.301C146.673,86.483,139.945,87.932,136.687,92.977z"/>
	</g>
	<g>
		<g>
			<g>
				<path fill="#FFFFFF" d="M149.126,98.99c0.244,0.303,0.34,0.723,0.291,1.257c-0.074,0.645-0.341,1.114-0.802,1.405
					c-0.4,0.243-1.004,0.389-1.807,0.437v1.24h-0.892v-1.223h-0.691v1.223h-0.895v-1.24h-1.769l0.182-1.058h0.182
					c0.291,0.012,0.48,0.005,0.566-0.02c0.122-0.036,0.194-0.126,0.219-0.272v-3.956c-0.036-0.194-0.14-0.315-0.312-0.365
					c-0.107-0.036-0.337-0.048-0.69-0.036h-0.146v-0.948l0.547,0.02c0.644,0,1.051-0.007,1.222-0.02v-1.44h0.895v1.424l0.691-0.02
					v-1.404h0.892v1.44c0.621,0.061,1.096,0.194,1.424,0.401c0.398,0.244,0.619,0.607,0.655,1.094
					c0.074,0.705-0.177,1.203-0.746,1.496l0,0C148.59,98.521,148.92,98.711,149.126,98.99L149.126,98.99z M145.242,98.206h0.144
					c0.511,0.012,0.907-0.017,1.189-0.092c0.484-0.122,0.729-0.383,0.729-0.783c0-0.401-0.239-0.668-0.712-0.802
					c-0.269-0.075-0.663-0.102-1.185-0.091c-0.084,0.012-0.142,0.017-0.166,0.017v1.752H145.242z M145.408,101.032
					c0.617,0.013,1.086-0.02,1.401-0.092c0.575-0.146,0.859-0.438,0.859-0.875c0-0.438-0.279-0.73-0.839-0.875
					c-0.304-0.085-0.767-0.115-1.387-0.09h-0.201v1.933H145.408z"/>
			</g>
		</g>
	</g>
</g>
<g>
	<g>
		<path fill="#EA651B" d="M101.96,163.943c1.334,1.648,2.949,3.118,4.828,4.333c9.545,6.16,22.277,3.418,28.435-6.126
			c3.289-5.091,4.044-11.09,2.58-16.515c-0.494,3.395-1.708,6.741-3.69,9.812C127.133,166.254,113.136,169.793,101.96,163.943z"/>
		<path fill="#FF7E1C" d="M100.665,139.84c-4.948,7.664-4.155,17.381,1.294,24.104c11.177,5.85,25.174,2.311,32.152-8.495
			c1.981-3.07,3.196-6.416,3.689-9.812c-1.278-4.742-4.247-9.047-8.7-11.922C119.556,127.554,106.824,130.297,100.665,139.84z"/>
	</g>
	<g>
		<g>
			<g>
				<path fill="#FFFFFF" d="M124.195,151.215c0.461,0.576,0.643,1.368,0.551,2.379c-0.138,1.218-0.645,2.106-1.517,2.657
					c-0.761,0.459-1.898,0.735-3.421,0.829v2.345h-1.688v-2.312h-1.309v2.312h-1.691v-2.345h-3.343l0.343-2.001h0.344
					c0.553,0.023,0.908,0.01,1.069-0.036c0.229-0.07,0.366-0.241,0.412-0.516v-7.487c-0.067-0.367-0.263-0.598-0.582-0.689
					c-0.206-0.069-0.646-0.093-1.311-0.069h-0.275v-1.793l1.033,0.036c1.222,0,1.989-0.013,2.311-0.036v-2.725h1.691v2.691
					l1.309-0.037v-2.654h1.688v2.725c1.175,0.115,2.076,0.367,2.692,0.759c0.762,0.459,1.175,1.15,1.245,2.07
					c0.134,1.333-0.331,2.276-1.416,2.828l0,0C123.182,150.328,123.804,150.687,124.195,151.215L124.195,151.215z M116.842,149.73
					h0.278c0.966,0.023,1.717-0.033,2.243-0.172c0.92-0.229,1.382-0.726,1.382-1.485s-0.449-1.264-1.349-1.517
					c-0.505-0.139-1.251-0.194-2.238-0.171c-0.161,0.023-0.269,0.033-0.317,0.033V149.73z M117.159,155.079
					c1.17,0.023,2.054-0.036,2.649-0.175c1.084-0.276,1.627-0.828,1.627-1.655c0-0.828-0.528-1.379-1.589-1.656
					c-0.574-0.161-1.449-0.216-2.619-0.17h-0.385v3.657H117.159L117.159,155.079z"/>
			</g>
		</g>
	</g>
</g>
<g>
	<g>
		<path fill="#EA651B" d="M303.306,166.952c1.021,1.26,2.25,2.384,3.69,3.312c7.296,4.709,17.024,2.613,21.732-4.682
			c2.511-3.892,3.089-8.476,1.969-12.623c-0.378,2.595-1.301,5.152-2.816,7.499C322.546,168.719,311.85,171.423,303.306,166.952z"/>
		<path fill="#FF7E1C" d="M302.313,148.531c-3.779,5.857-3.173,13.284,0.992,18.423c8.544,4.47,19.24,1.766,24.572-6.493
			c1.516-2.349,2.441-4.904,2.818-7.499c-0.976-3.625-3.246-6.915-6.65-9.112C316.753,139.139,307.024,141.235,302.313,148.531z"/>
	</g>
	<g>
		<g>
			<g>
				<path fill="#FFFFFF" d="M320.303,157.224c0.346,0.44,0.489,1.045,0.419,1.818c-0.105,0.933-0.493,1.61-1.162,2.032
					c-0.581,0.352-1.449,0.562-2.609,0.633v1.792h-1.29v-1.767h-1.003v1.767h-1.29v-1.792h-2.558l0.266-1.53h0.264
					c0.423,0.019,0.691,0.007,0.815-0.028c0.175-0.052,0.279-0.182,0.317-0.393v-5.723c-0.055-0.281-0.204-0.457-0.45-0.527
					c-0.156-0.052-0.49-0.071-1.004-0.052h-0.208v-1.371l0.793,0.027c0.933,0,1.517-0.01,1.766-0.027V150h1.291v2.057l1.001-0.027
					V150h1.292v2.082c0.896,0.087,1.58,0.28,2.053,0.58c0.582,0.351,0.898,0.88,0.95,1.583c0.108,1.02-0.251,1.739-1.077,2.162l0,0
					C319.525,156.546,319.999,156.82,320.303,157.224L320.303,157.224z M314.682,156.089h0.209c0.74,0.018,1.312-0.025,1.717-0.129
					c0.701-0.176,1.053-0.556,1.053-1.136c0-0.58-0.342-0.966-1.025-1.16c-0.388-0.105-0.963-0.149-1.717-0.131
					c-0.124,0.017-0.204,0.025-0.236,0.025V156.089z M314.918,160.177c0.898,0.019,1.571-0.028,2.031-0.133
					c0.828-0.21,1.239-0.632,1.239-1.265s-0.407-1.055-1.212-1.266c-0.439-0.124-1.105-0.166-2.004-0.131h-0.291v2.795H314.918z"/>
			</g>
		</g>
	</g>
</g>
<ellipse opacity="0.3" fill="#232323" enable-background="new    " cx="190.646" cy="284.051" rx="24.468" ry="3.949"/>
<path fill="#232323" d="M172.925,256.057c0.098,0.8,2.747,23.39,6.596,26.558c3.846,3.165,5.868,2.099,6.649,1.259
	c0.817-0.883,1.852-2.466-0.064-4.254c-1.539-1.437-2.623-7.803-1.084-17.734L172.925,256.057z"/>
<path fill="#232323" d="M187.621,254.647c0.102,0.798,2.746,23.391,6.592,26.558c3.852,3.164,5.874,2.1,6.653,1.258
	c0.818-0.881,1.852-2.465-0.062-4.252c-1.541-1.439-2.627-7.804-1.089-17.736L187.621,254.647z"/>
<path fill="#232323" d="M199.013,226.442c-0.978-1.473-2.853-2.073-4.484-1.028c-1.631,1.033-2.195,3.895-0.838,5.962
	c3.847,5.881,10.031,9.203,17.062,9.161c2.472-0.014,4.543-2.063,4.505-3.991c-0.03-1.939-1.565-3.17-3.335-3.175
	C206.607,233.402,201.925,230.893,199.013,226.442z"/>
<path fill="#FFFFFF" d="M176.004,221.936c4.446-2.468,10.087-3.793,20.487-4.199c-2.479-1.049-5.76-1.538-10.566-1.538h-0.01
	c-8.222,0-12.027,1.403-14.889,4.661c-3.38,3.849-5.084,14.852-5.428,23.414C166.146,236.233,169.407,225.602,176.004,221.936z"/>
<path fill="#444444" d="M165.599,244.274c-0.081,1.183-0.097,2.305-0.064,3.345C165.531,246.565,165.552,245.443,165.599,244.274z"
	/>
<path fill="#444444" d="M158.401,258.076c-1.174,0.833-2.689,1.123-3.493,0.409c-0.797-0.708-0.554-2.508,0.753-3.806
	c3.532-3.521,8.171-5.892,13.281-6.654c1.9-0.276,3.284,1.33,3.05,3.272c-0.228,1.953-1.418,3.35-2.725,3.333
	C165.535,254.572,161.695,255.711,158.401,258.076z"/>
<g>
	<path fill="#FFFFFF" d="M172.045,212.418c-4.933-5.557-2.767-11.881,7.705-19.16c3.322-2.311,4.043-8.307,6.084-10.566
		c5.868-6.505,10.423-2.871,10.423-2.871l0.014-0.008c-8.457-5.926-21.416-4.51-30.892,3.979
		c-10.759,9.639-12.961,24.735-4.913,33.718c8.045,8.986,23.293,8.457,34.051-1.182c0.934-0.838,1.803-1.722,2.612-2.637
		l-0.011-0.012C188.231,222.824,178.593,219.792,172.045,212.418z"/>
	<path fill="#444444" d="M199.43,182.612c-0.955-1.069-2.018-1.999-3.159-2.802l-0.014,0.009c0,0-4.555-3.634-10.423,2.87
		c-2.041,2.261-2.761,8.258-6.084,10.567c-10.474,7.28-12.64,13.604-7.705,19.161c6.548,7.374,16.187,10.406,25.074,1.262
		l0.011,0.012C205.577,204.107,206.778,190.814,199.43,182.612z"/>
	<path fill="#7F7F7F" d="M198.822,207.018c-1.992,1.93-7.617,3.76-10.675-1.217c-3.06-4.975,1.363-9.889,2.933-11.409
		c1.572-1.521,6.49-5.648,9.542-0.673C203.684,198.695,200.814,205.088,198.822,207.018z"/>
	<path fill="#232323" d="M191.976,195.606c0.867-0.838,2.832-0.968,3.781,0.179c0.943,1.149-1.59,3.527-1.59,3.527l-0.072,0.07
		c0,0-2.476,2.471-3.12,1.03c-0.647-1.44-0.045-3.789,0.817-4.628L191.976,195.606z"/>
	<path fill="none" stroke="#232323" stroke-width="0.7639" stroke-linecap="round" stroke-miterlimit="10" d="M198.766,198.953
		c0.133,0.649,0.161,1.326,0.09,1.983c-0.075,0.662-0.251,1.305-0.519,1.896c-0.271,0.592-0.639,1.127-1.096,1.572
		c-0.459,0.442-0.966,0.752-1.489,0.929c-0.522,0.179-1.064,0.229-1.594,0.149c-0.528-0.077-1.037-0.281-1.507-0.607"/>
	<circle fill="#232323" cx="181.638" cy="200.755" r="1.071"/>
	<circle fill="#232323" cx="192.722" cy="187.141" r="1.07"/>
	<path fill="#444444" d="M176.034,211.463c2.85,3.104,4.178,6.523,2.959,7.645c-1.22,1.115-4.514-0.494-7.368-3.596
		c-2.848-3.105-4.171-6.524-2.959-7.643C169.884,206.752,173.182,208.362,176.034,211.463z"/>
	<path fill="#232323" d="M171.529,209.206c-0.996,0.927-0.154,3.589,1.893,6.604c-0.331-0.315-0.665-0.651-0.996-1.016
		c-2.227-2.448-3.395-5.027-2.606-5.763c0.335-0.312,0.972-0.237,1.763,0.136C171.568,209.184,171.545,209.191,171.529,209.206z"/>
	<path fill="none" stroke="#7F7F7F" stroke-width="0.8433" stroke-linecap="round" stroke-miterlimit="10" d="M179.178,203.04
		c-0.225-0.304-0.386-0.647-0.478-1.006c-0.091-0.361-0.117-0.737-0.065-1.112c0.049-0.372,0.177-0.743,0.38-1.088
		s0.473-0.631,0.774-0.854"/>
	<path fill="none" stroke="#7F7F7F" stroke-width="0.8433" stroke-linecap="round" stroke-miterlimit="10" d="M190.345,185.57
		c0.188-0.328,0.437-0.617,0.725-0.846c0.294-0.231,0.628-0.408,0.987-0.514c0.365-0.107,0.751-0.145,1.149-0.099
		c0.4,0.045,0.77,0.171,1.097,0.354"/>
</g>
<path fill="#444444" d="M200.814,220.859c-1.046-1.189-2.22-2.131-3.686-2.848c-0.201-0.098-0.422-0.188-0.637-0.277
	c-1.673,0.065-3.212,0.158-4.659,0.271c-3.541,0.127-6.314,0.521-8.567,1.228c-2.904,0.675-5.21,1.564-7.261,2.702
	c-6.596,3.664-9.858,14.298-10.405,22.339c-0.047,1.169-0.068,2.291-0.064,3.345c0.009,2.72,0.181,4.979,0.509,6.344
	c0.353,1.479,1.764,2.737,3.984,3.733c3.539,1.585,9.145,2.491,15.887,2.491h0.01c0.631,0,1.251-0.011,1.866-0.026
	c0.189-0.007,0.372-0.014,0.559-0.019c0.423-0.017,0.842-0.032,1.255-0.055c0.206-0.012,0.409-0.023,0.612-0.035
	c0.403-0.026,0.793-0.055,1.185-0.087c0.182-0.015,0.364-0.027,0.547-0.046c0.473-0.043,0.935-0.092,1.392-0.146
	c0.076-0.01,0.158-0.017,0.237-0.026c0.536-0.067,1.056-0.141,1.565-0.223c0.124-0.021,0.241-0.042,0.361-0.062
	c0.38-0.065,0.753-0.129,1.115-0.202c0.153-0.031,0.3-0.062,0.452-0.094c0.327-0.07,0.643-0.144,0.954-0.218
	c0.143-0.036,0.283-0.069,0.424-0.105c0.338-0.088,0.66-0.179,0.981-0.276c0.075-0.021,0.151-0.039,0.226-0.062h-0.011
	c2.172-0.672,3.862-1.531,4.924-2.55c0.012-0.009,0.022-0.021,0.033-0.032c0.196-0.191,0.38-0.391,0.534-0.594
	c0.06-0.079,0.097-0.164,0.15-0.245c0.091-0.14,0.188-0.276,0.259-0.42c0.115-0.229,0.197-0.461,0.256-0.701
	C207.181,248.194,205.85,226.59,200.814,220.859z"/>
<ellipse fill="#444444" cx="185.996" cy="251.396" rx="20.199" ry="15.915"/>
<path fill="#232323" d="M179.827,232.064c0.289-1.744-0.67-3.461-2.579-3.812c-1.893-0.355-4.263,1.352-4.682,3.788
	c-1.195,6.925,1.055,13.571,6.229,18.338c1.811,1.675,4.727,1.59,6.015,0.156c1.303-1.44,1.019-3.387-0.274-4.596
	C180.627,242.332,178.922,237.305,179.827,232.064z"/>
<g>
	<path fill="#232323" d="M186.983,250.992c0.374,0.299,0.871,0.422,1.147,0.2c0.278-0.219,0.23-0.82-0.177-1.273
		c-1.105-1.232-2.598-2.104-4.275-2.449c-0.627-0.127-1.115,0.379-1.072,1.028c0.037,0.651,0.408,1.135,0.84,1.154
		C184.687,249.699,185.936,250.149,186.983,250.992z"/>
	<path fill="#232323" d="M185.293,253.187c0.273,0.389,0.718,0.646,1.045,0.511c0.328-0.134,0.451-0.726,0.183-1.272
		c-0.719-1.49-1.916-2.741-3.428-3.54c-0.568-0.295-1.174,0.055-1.314,0.689c-0.144,0.637,0.075,1.204,0.488,1.342
		C183.441,251.307,184.52,252.086,185.293,253.187z"/>
	<path fill="#232323" d="M182.691,254.295c0.064,0.473,0.345,0.902,0.698,0.932c0.353,0.029,0.729-0.439,0.742-1.051
		c0.038-1.652-0.458-3.312-1.44-4.711c-0.371-0.522-1.07-0.484-1.486,0.015c-0.418,0.502-0.481,1.108-0.177,1.418
		C181.898,251.779,182.504,252.962,182.691,254.295z"/>
</g>
<g>
	<path fill="#232323" d="M188.222,281.672c0.48,0.137,1.014,0.057,1.196-0.27c0.178-0.326-0.111-0.889-0.691-1.163
		c-1.567-0.748-3.366-0.989-5.133-0.646c-0.657,0.129-0.928,0.816-0.622,1.428c0.299,0.616,0.852,0.937,1.281,0.78
		C185.471,281.35,186.864,281.279,188.222,281.672z"/>
	<path fill="#232323" d="M187.47,284.484c0.425,0.266,0.956,0.335,1.221,0.072c0.266-0.264,0.143-0.884-0.335-1.31
		c-1.302-1.153-2.964-1.883-4.757-2.046c-0.67-0.057-1.116,0.531-0.996,1.201c0.118,0.674,0.563,1.137,1.018,1.104
		C184.917,283.41,186.272,283.729,187.47,284.484z"/>
	<path fill="#232323" d="M185.395,286.61c0.253,0.43,0.7,0.735,1.053,0.621c0.355-0.114,0.529-0.724,0.294-1.319
		c-0.63-1.619-1.781-3.025-3.301-3.984c-0.568-0.357-1.234-0.039-1.433,0.614c-0.198,0.654-0.021,1.268,0.402,1.445
		C183.61,284.491,184.671,285.394,185.395,286.61z"/>
</g>
<g>
	<path fill="#232323" d="M203.577,280.003c0.482,0.138,1.014,0.056,1.195-0.271c0.177-0.326-0.109-0.89-0.687-1.166
		c-1.571-0.746-3.368-0.985-5.138-0.645c-0.655,0.129-0.923,0.819-0.622,1.43c0.3,0.615,0.857,0.934,1.28,0.78
		C200.831,279.679,202.22,279.607,203.577,280.003z"/>
	<path fill="#232323" d="M202.826,282.813c0.426,0.267,0.959,0.335,1.222,0.07c0.264-0.261,0.144-0.883-0.335-1.307
		c-1.303-1.153-2.96-1.885-4.76-2.045c-0.666-0.059-1.116,0.53-0.991,1.2c0.117,0.675,0.559,1.136,1.013,1.103
		C200.272,281.739,201.631,282.058,202.826,282.813z"/>
	<path fill="#232323" d="M200.75,284.938c0.258,0.432,0.698,0.737,1.056,0.62c0.354-0.113,0.53-0.722,0.295-1.318
		c-0.632-1.617-1.783-3.025-3.305-3.984c-0.568-0.357-1.235-0.037-1.431,0.617c-0.2,0.653-0.018,1.267,0.4,1.443
		C198.967,282.822,200.03,283.725,200.75,284.938z"/>
</g>
<g>
	<path fill="#232323" d="M218.096,235.429c0.514-0.028,0.992-0.284,1.061-0.658c0.064-0.369-0.402-0.816-1.046-0.888
		c-1.753-0.196-3.566,0.17-5.146,1.086c-0.588,0.342-0.618,1.09-0.126,1.578c0.495,0.49,1.132,0.617,1.49,0.324
		C215.35,236.03,216.664,235.5,218.096,235.429z"/>
	<path fill="#232323" d="M218.31,238.376c0.495,0.114,1.03,0.005,1.196-0.335c0.167-0.341-0.157-0.896-0.755-1.146
		c-1.631-0.676-3.471-0.824-5.246-0.385c-0.663,0.168-0.896,0.881-0.559,1.484c0.338,0.608,0.918,0.905,1.341,0.722
		C215.504,238.191,216.91,238.049,218.31,238.376z"/>
	<path fill="#232323" d="M217.024,241.105c0.386,0.33,0.917,0.477,1.217,0.246c0.3-0.227,0.269-0.869-0.151-1.363
		c-1.145-1.344-2.716-2.315-4.496-2.731c-0.664-0.154-1.195,0.374-1.172,1.067c0.023,0.692,0.403,1.222,0.866,1.252
		C214.609,239.665,215.928,240.179,217.024,241.105z"/>
</g>
</svg>
