<?xml version="1.0" encoding="utf-8"?>
<!-- Generator: Adobe Illustrator 16.0.4, SVG Export Plug-In . SVG Version: 6.00 Build 0)  -->
<!DOCTYPE svg PUBLIC "-//W3C//DTD SVG 1.1//EN" "http://www.w3.org/Graphics/SVG/1.1/DTD/svg11.dtd">
<svg version="1.1" id="Layer_1" xmlns="http://www.w3.org/2000/svg" xmlns:xlink="http://www.w3.org/1999/xlink" x="0px" y="0px"
	 width="300px" height="225px" viewBox="37.5 75 300 225" enable-background="new 37.5 75 300 225" xml:space="preserve">
<g>
	<path fill="#D0DAE3" d="M71.588,137.979l0.047,0.996c0,0.61-0.117,1.195-0.351,1.758s-0.57,1.066-1.008,1.512h5.613l0.141-1.687
		h2.614v4.312H66.959v-2.625h0.117c0.367-0.094,0.642-0.463,0.826-1.107c0.185-0.644,0.275-1.314,0.275-2.009l-0.047-1.149h-1.91
		v-2.637h1.817l-0.094-2.508c0-1.641,0.47-2.93,1.412-3.867c0.941-0.938,2.201-1.406,3.779-1.406c1.68,0,2.982,0.436,3.908,1.306
		c0.925,0.871,1.373,2.021,1.341,3.451l-0.023,0.07h-3.34c0-0.75-0.18-1.302-0.54-1.658c-0.359-0.355-0.812-0.534-1.359-0.534
		c-0.555,0-0.989,0.23-1.301,0.691c-0.313,0.461-0.469,1.11-0.469,1.946l0.117,2.508h4.172v2.637H71.588z"/>
</g>
<path fill="#D0DAE3" d="M179.621,163.937H90.654v-59.009c0-0.758-0.615-1.373-1.373-1.373h-2.745c-0.759,0-1.372,0.615-1.372,1.373
	v61.754c0,1.516,1.229,2.744,2.745,2.744h91.711c0.757,0,1.372-0.614,1.372-1.372v-2.745
	C180.993,164.55,180.378,163.937,179.621,163.937z"/>
<path fill="#FF2402" d="M124.462,141.109c1.074,1.064,2.804,1.06,3.871-0.008l14.518-14.517l22.104,22.104l-4.471,4.47
	c-2.624,2.625-0.765,7.113,2.945,7.113h14.095c1.534,0,2.776-1.244,2.776-2.778v-14.094c0-2.511-2.055-4.175-4.195-4.175
	c-1.024,0-2.066,0.38-2.916,1.228l-4.353,4.354l-24.044-24.044c-1.072-1.072-2.811-1.072-3.882,0l-14.527,14.527l-28.47-28.352
	c-0.535-0.535-1.405-0.535-1.94,0l-1.941,1.94c-0.535,0.535-0.535,1.406,0,1.941L124.462,141.109L124.462,141.109z M174.814,146.592
	v8.187h-8.187L174.814,146.592z"/>
<ellipse opacity="0.3" fill="#232323" enable-background="new    " cx="255.782" cy="270.639" rx="39.955" ry="6.449"/>
<path fill="#232323" d="M284.724,224.924c-0.163,1.306-4.485,38.196-10.768,43.368c-6.284,5.168-9.585,3.429-10.859,2.057
	c-1.338-1.443-3.026-4.028,0.103-6.948c2.518-2.348,4.284-12.739,1.774-28.96L284.724,224.924z"/>
<path fill="#232323" d="M260.729,222.622c-0.167,1.305-4.486,38.196-10.769,43.369c-6.286,5.17-9.586,3.429-10.861,2.054
	c-1.338-1.439-3.026-4.026,0.104-6.942c2.516-2.35,4.284-12.741,1.773-28.964L260.729,222.622z"/>
<path fill="#232323" d="M243.954,173.404c2.632-1.196,5.742-0.411,7.104,2.45c1.363,2.838-0.324,7.293-3.987,8.987
	c-10.415,4.827-21.853,4.089-31.557-2.042c-3.415-2.151-4.517-6.786-2.802-9.424c1.72-2.66,4.91-3.042,7.366-1.515
	C227.42,176.493,236.073,177.057,243.954,173.404z"/>
<path fill="#FFFFFF" d="M279.695,169.202c-7.263-4.029-16.466-6.194-33.458-6.858c4.052-1.713,9.413-2.511,17.259-2.511h0.012
	c13.429,0,19.64,2.29,24.315,7.613c5.519,6.284,8.306,24.252,8.865,38.237C295.793,192.552,290.465,175.188,279.695,169.202z"/>
<path fill="#444444" d="M296.688,205.683c0.13,1.933,0.16,3.765,0.105,5.461C296.796,209.424,296.762,207.592,296.688,205.683z"/>
<path fill="#444444" d="M308.438,228.219c1.916,1.362,4.396,1.834,5.703,0.667c1.301-1.152,0.907-4.095-1.225-6.212
	c-5.77-5.75-13.346-9.622-21.689-10.865c-3.108-0.452-5.362,2.17-4.983,5.343c0.374,3.189,2.316,5.469,4.449,5.444
	C296.793,222.499,303.059,224.362,308.438,228.219z"/>
<g>
	<path fill="#FFFFFF" d="M285.837,139.592c0.258-12.132-9.127-17.71-29.857-15.679c-6.58,0.643-13.817-6.054-18.749-6.708
		c-14.183-1.879-15.996,7.456-15.996,7.456l-0.028,0.006c4.246-16.316,21.86-28.266,42.637-27.738
		c23.581,0.604,42.29,17.053,41.787,36.739c-0.501,19.692-20.022,35.166-43.603,34.565c-2.055-0.053-4.07-0.233-6.042-0.519
		l-0.002-0.022C276.716,169.664,285.493,155.695,285.837,139.592z"/>
	<path fill="#444444" d="M220.236,131.496c0.059-2.344,0.396-4.625,0.968-6.827l0.027-0.006c0,0,1.816-9.335,15.998-7.456
		c4.93,0.653,12.167,7.35,18.748,6.707c20.729-2.029,30.114,3.547,29.858,15.68c-0.347,16.103-9.121,30.072-29.853,28.101
		l0.001,0.023C235.333,164.734,219.778,149.468,220.236,131.496z"/>
	<path fill="#7F7F7F" d="M246.817,161.208c4.519,0.292,13.449-3.383,11.989-12.812c-1.456-9.425-12.158-10.856-15.72-11.083
		c-3.565-0.229-14.045-0.163-12.584,9.26C231.961,156,242.297,160.916,246.817,161.208z"/>
	<path fill="#232323" d="M243.254,139.773c-1.964-0.127-4.544,1.787-4.508,4.219c0.039,2.431,5.706,2.71,5.706,2.71l0.164,0.011
		c0,0,5.695,0.453,4.974-2.021c-0.72-2.475-3.95-4.763-5.912-4.891L243.254,139.773z"/>
	<path fill="none" stroke="#232323" stroke-width="1.2474" stroke-linecap="round" stroke-miterlimit="10" d="M238.352,151.117
		c0.523,0.951,1.204,1.819,1.992,2.56c0.793,0.745,1.688,1.358,2.648,1.809c0.965,0.452,1.986,0.73,3.027,0.795
		c1.038,0.069,1.995-0.083,2.833-0.415c0.841-0.337,1.565-0.848,2.141-1.502c0.573-0.653,0.993-1.452,1.233-2.35"/>
	<circle fill="#232323" cx="261.566" cy="135.234" r="1.75"/>
	<circle fill="#232323" cx="233.372" cy="130.025" r="1.75"/>
	<path fill="#444444" d="M279.868,142.623c-0.265,6.877,1.706,12.538,4.405,12.642c2.694,0.099,5.091-5.39,5.355-12.263
		c0.264-6.879-1.711-12.536-4.399-12.638C282.532,130.257,280.134,135.75,279.868,142.623z"/>
	<path fill="#232323" d="M283.081,135.052c2.222,0.1,3.987,4.299,4.628,10.221c0.084-0.745,0.144-1.518,0.173-2.322
		c0.179-5.401-1.104-9.844-2.859-9.923c-0.747-0.035-1.46,0.733-2.047,2.035C283.012,135.063,283.047,135.05,283.081,135.052z"/>
	<path fill="none" stroke="#7F7F7F" stroke-width="1.377" stroke-linecap="round" stroke-miterlimit="10" d="M267.044,135.471
		c-0.043-0.616-0.206-1.211-0.474-1.755c-0.266-0.546-0.637-1.037-1.1-1.45c-0.455-0.41-1.002-0.738-1.623-0.951
		c-0.618-0.213-1.256-0.289-1.867-0.247"/>
	<path fill="none" stroke="#7F7F7F" stroke-width="1.377" stroke-linecap="round" stroke-miterlimit="10" d="M234.664,125.562
		c-0.577-0.211-1.191-0.308-1.796-0.288c-0.607,0.02-1.211,0.156-1.773,0.408c-0.562,0.247-1.083,0.612-1.532,1.09
		s-0.777,1.025-0.989,1.605"/>
</g>
<path fill="#444444" d="M239.181,167.447c1.704-1.941,3.622-3.478,6.016-4.65c0.333-0.16,0.688-0.305,1.04-0.454
	c2.737,0.109,5.251,0.259,7.611,0.445c5.783,0.205,10.314,0.852,13.993,2.005c4.741,1.1,8.51,2.553,11.854,4.414
	c10.77,5.983,16.1,23.346,16.99,36.479c0.075,1.909,0.111,3.742,0.106,5.461c-0.016,4.442-0.296,8.129-0.829,10.359
	c-0.576,2.414-2.884,4.471-6.509,6.098c-5.779,2.587-14.933,4.066-25.948,4.066h-0.013c-1.029,0-2.044-0.016-3.044-0.042
	c-0.309-0.009-0.609-0.024-0.915-0.031c-0.692-0.027-1.377-0.05-2.05-0.089c-0.337-0.018-0.669-0.039-1-0.058
	c-0.653-0.041-1.297-0.089-1.932-0.14c-0.297-0.027-0.601-0.047-0.896-0.078c-0.772-0.066-1.526-0.149-2.269-0.237
	c-0.128-0.017-0.264-0.028-0.393-0.045c-0.876-0.108-1.724-0.229-2.554-0.361c-0.202-0.032-0.393-0.07-0.59-0.102
	c-0.62-0.106-1.227-0.214-1.817-0.333c-0.25-0.05-0.494-0.102-0.738-0.151c-0.533-0.115-1.055-0.233-1.562-0.354
	c-0.23-0.06-0.464-0.115-0.693-0.17c-0.549-0.147-1.08-0.294-1.599-0.453c-0.121-0.034-0.251-0.065-0.371-0.104
	c0.009,0,0.011,0,0.018,0c-3.549-1.099-6.3-2.498-8.041-4.162c-0.02-0.016-0.031-0.036-0.048-0.052
	c-0.327-0.313-0.622-0.638-0.875-0.972c-0.099-0.129-0.161-0.27-0.248-0.398c-0.149-0.229-0.309-0.455-0.423-0.687
	c-0.184-0.373-0.321-0.753-0.416-1.145C228.789,212.083,230.961,176.802,239.181,167.447z"/>
<ellipse fill="#444444" cx="263.382" cy="217.312" rx="32.983" ry="25.99"/>
<g>
	<path fill="#232323" d="M275.853,176.49c1.851-2.223,4.994-2.864,7.464-0.883c2.463,1.965,2.875,6.709,0.313,9.827
		c-7.281,8.87-17.903,13.182-29.31,11.879c-4.007-0.456-7.016-4.149-6.617-7.271c0.395-3.144,3.101-4.873,5.977-4.568
		C262.306,186.46,270.342,183.203,275.853,176.49z"/>
	<path fill="#232323" d="M244.821,187.849c-0.771-0.143-1.45-0.63-1.475-1.206c-0.025-0.581,0.767-1.163,1.765-1.14
		c2.702,0.049,5.373,0.966,7.594,2.671c0.821,0.639,0.717,1.781-0.129,2.424c-0.847,0.646-1.839,0.703-2.323,0.189
		C248.867,189.308,246.979,188.241,244.821,187.849z"/>
	<path fill="#232323" d="M243.912,192.279c-0.778,0.074-1.567-0.201-1.75-0.75c-0.186-0.551,0.417-1.33,1.378-1.584
		c2.608-0.701,5.43-0.561,8.035,0.459c0.968,0.383,1.184,1.512,0.548,2.359c-0.633,0.856-1.568,1.189-2.182,0.829
		C248.207,192.557,246.095,192.059,243.912,192.279z"/>
	<path fill="#232323" d="M245.319,196.68c-0.657,0.42-1.483,0.537-1.899,0.127c-0.412-0.404-0.232-1.369,0.51-2.04
		c2.001-1.812,4.578-2.971,7.36-3.246c1.036-0.101,1.744,0.805,1.565,1.853c-0.176,1.047-0.857,1.773-1.563,1.727
		C249.273,194.97,247.164,195.487,245.319,196.68z"/>
</g>
<path fill="#232323" d="M259.746,266.756c-0.785,0.224-1.656,0.09-1.949-0.441s0.176-1.452,1.123-1.9
	c2.562-1.221,5.5-1.616,8.384-1.055c1.074,0.212,1.513,1.337,1.02,2.334c-0.495,1.006-1.396,1.528-2.094,1.274
	C264.234,266.228,261.961,266.112,259.746,266.756z"/>
<path fill="#232323" d="M260.975,271.346c-0.695,0.434-1.564,0.547-1.995,0.116c-0.433-0.429-0.233-1.441,0.55-2.139
	c2.123-1.883,4.836-3.075,7.766-3.341c1.09-0.091,1.82,0.867,1.624,1.963c-0.194,1.1-0.916,1.855-1.657,1.805
	C265.141,269.592,262.925,270.111,260.975,271.346z"/>
<path fill="#232323" d="M264.365,274.815c-0.42,0.702-1.144,1.202-1.725,1.016c-0.577-0.186-0.864-1.181-0.483-2.154
	c1.033-2.643,2.908-4.939,5.395-6.505c0.929-0.586,2.017-0.066,2.342,1.002c0.325,1.07,0.029,2.071-0.658,2.359
	C267.273,271.357,265.539,272.83,264.365,274.815z"/>
<path fill="#232323" d="M234.669,264.027c-0.786,0.225-1.658,0.093-1.951-0.441c-0.293-0.533,0.178-1.452,1.123-1.901
	c2.563-1.219,5.5-1.612,8.384-1.053c1.075,0.212,1.511,1.335,1.02,2.333c-0.493,1.005-1.396,1.525-2.093,1.275
	C239.156,263.498,236.881,263.383,234.669,264.027z"/>
<path fill="#232323" d="M235.896,268.617c-0.694,0.435-1.562,0.549-1.994,0.115c-0.432-0.426-0.236-1.441,0.549-2.133
	c2.125-1.884,4.839-3.078,7.767-3.341c1.089-0.095,1.822,0.864,1.623,1.958c-0.194,1.101-0.917,1.856-1.658,1.804
	C240.062,266.861,237.845,267.383,235.896,268.617z"/>
<path fill="#232323" d="M239.285,272.088c-0.418,0.704-1.144,1.203-1.723,1.013c-0.577-0.185-0.866-1.179-0.481-2.152
	c1.031-2.642,2.906-4.941,5.394-6.507c0.925-0.584,2.016-0.062,2.338,1.006c0.328,1.066,0.031,2.068-0.653,2.358
	C242.195,268.633,240.459,270.105,239.285,272.088z"/>
<path fill="#232323" d="M208.259,174.122c-0.789-0.271-1.436-0.884-1.371-1.503c0.062-0.617,0.991-1.105,2.042-0.931
	c2.845,0.47,5.521,1.854,7.603,3.995c0.771,0.802,0.48,1.99-0.509,2.539c-0.995,0.547-2.053,0.459-2.484-0.159
	C212.309,176.288,210.478,174.874,208.259,174.122z"/>
<path fill="#232323" d="M207.683,179.016c-0.822,0.121-1.678-0.132-1.9-0.712c-0.225-0.575,0.377-1.436,1.392-1.758
	c2.749-0.875,5.759-0.866,8.589,0.097c1.047,0.359,1.334,1.549,0.698,2.489c-0.633,0.945-1.616,1.348-2.282,0.994
	C212.274,179.105,210.003,178.676,207.683,179.016z"/>
<path fill="#232323" d="M211.099,170.215c-0.684-0.479-1.133-1.247-0.902-1.823c0.231-0.569,1.258-0.787,2.218-0.328
	c2.603,1.243,4.791,3.313,6.196,5.949c0.52,0.984-0.089,2.047-1.195,2.295c-1.107,0.254-2.098-0.124-2.341-0.839
	C214.385,173.424,213.023,171.555,211.099,170.215z"/>
<line fill="none" stroke="#232323" stroke-width="3.2" stroke-linecap="round" stroke-miterlimit="10" x1="212.931" y1="173.182" x2="178.264" y2="149.182"/>
</svg>
