<?xml version="1.0" encoding="utf-8"?>
<!-- Generator: Adobe Illustrator 16.0.4, SVG Export Plug-In . SVG Version: 6.00 Build 0)  -->
<!DOCTYPE svg PUBLIC "-//W3C//DTD SVG 1.1//EN" "http://www.w3.org/Graphics/SVG/1.1/DTD/svg11.dtd">
<svg version="1.1" id="Layer_1" xmlns="http://www.w3.org/2000/svg" xmlns:xlink="http://www.w3.org/1999/xlink" x="0px" y="0px"
	 width="375px" height="375px" viewBox="0 0 375 375" enable-background="new 0 0 375 375" xml:space="preserve">
<g>
	<path fill="#D0DAE3" d="M41.846,125.724l0.059,1.245c0,0.762-0.146,1.494-0.439,2.197s-0.713,1.333-1.26,1.89h7.017l0.176-2.109
		h3.267v5.391H36.06v-3.281h0.146c0.459-0.117,0.803-0.579,1.033-1.384s0.344-1.643,0.344-2.512l-0.059-1.436h-2.388v-3.296h2.271
		l-0.117-3.135c0-2.051,0.588-3.662,1.765-4.834s2.751-1.758,4.724-1.758c2.1,0,3.728,0.545,4.885,1.633
		c1.157,1.089,1.716,2.527,1.677,4.314l-0.029,0.088h-4.175c0-0.938-0.225-1.628-0.674-2.073c-0.449-0.444-1.016-0.667-1.699-0.667
		c-0.694,0-1.236,0.288-1.626,0.864c-0.391,0.576-0.586,1.387-0.586,2.432l0.146,3.135h5.215v3.296H41.846z"/>
</g>
<path fill="#D0DAE3" d="M176.887,158.171H65.679V84.409c0-0.947-0.768-1.716-1.715-1.716h-3.432c-0.948,0-1.715,0.769-1.715,1.716
	v77.193c0,1.895,1.536,3.43,3.431,3.43h114.639c0.947,0,1.715-0.768,1.715-1.715v-3.431
	C178.603,158.938,177.834,158.171,176.887,158.171z"/>
<path fill="#FF2402" d="M107.939,129.637c1.342,1.33,3.505,1.325,4.839-0.011l18.147-18.146l27.63,27.63l-5.588,5.587
	c-3.28,3.281-0.956,8.891,3.682,8.891h17.618c1.917,0,3.471-1.555,3.471-3.473v-17.617c0-3.139-2.569-5.219-5.245-5.219
	c-1.28,0-2.583,0.475-3.645,1.535l-5.441,5.443l-30.055-30.055c-1.34-1.34-3.513-1.34-4.853,0l-18.159,18.159l-35.587-35.44
	c-0.669-0.669-1.756-0.669-2.425,0l-2.426,2.425c-0.669,0.669-0.669,1.757,0,2.426L107.939,129.637L107.939,129.637z
	 M170.879,136.49v10.234h-10.234L170.879,136.49z"/>
<ellipse opacity="0.3" fill="#232323" enable-background="new    " cx="272.09" cy="291.548" rx="49.943" ry="8.061"/>
<path fill="#232323" d="M308.267,234.405c-0.204,1.632-5.607,47.746-13.461,54.21c-7.854,6.46-11.98,4.286-13.574,2.57
	c-1.671-1.803-3.782-5.035,0.13-8.684c3.146-2.934,5.354-15.925,2.217-36.2L308.267,234.405z"/>
<path fill="#232323" d="M278.273,231.528c-0.208,1.63-5.607,47.745-13.46,54.211c-7.858,6.462-11.983,4.287-13.577,2.568
	c-1.672-1.8-3.783-5.033,0.129-8.679c3.145-2.936,5.356-15.926,2.217-36.204L278.273,231.528z"/>
<path fill="#232323" d="M257.304,170.005c3.29-1.495,7.179-0.514,8.882,3.062c1.703,3.547-0.406,9.116-4.985,11.234
	c-13.019,6.034-27.316,5.111-39.446-2.553c-4.268-2.689-5.645-8.483-3.502-11.78c2.15-3.325,6.137-3.802,9.207-1.894
	C236.637,173.866,247.453,174.571,257.304,170.005z"/>
<path fill="#FFFFFF" d="M301.981,164.752c-9.079-5.036-20.583-7.742-41.823-8.573c5.065-2.141,11.767-3.139,21.574-3.139h0.015
	c16.785,0,24.549,2.862,30.394,9.516c6.898,7.855,10.382,30.316,11.082,47.796C322.104,193.94,315.443,172.235,301.981,164.752z"/>
<path fill="#444444" d="M323.221,210.354c0.163,2.415,0.2,4.705,0.133,6.826C323.356,215.029,323.314,212.739,323.221,210.354z"/>
<path fill="#444444" d="M337.908,238.523c2.396,1.703,5.495,2.293,7.129,0.835c1.627-1.441,1.135-5.119-1.53-7.766
	c-7.212-7.188-16.683-12.027-27.112-13.581c-3.885-0.565-6.703,2.711-6.229,6.679c0.468,3.986,2.896,6.835,5.562,6.804
	C323.354,231.374,331.185,233.703,337.908,238.523z"/>
<g>
	<path fill="#FFFFFF" d="M309.658,127.74c0.322-15.165-11.409-22.138-37.322-19.599c-8.225,0.804-17.271-7.567-23.436-8.384
		c-17.729-2.349-19.996,9.32-19.996,9.32l-0.035,0.008c5.308-20.396,27.326-35.332,53.296-34.673
		c29.477,0.755,52.862,21.316,52.234,45.924c-0.626,24.615-25.028,43.957-54.503,43.206c-2.569-0.066-5.088-0.291-7.552-0.648
		l-0.003-0.028C298.257,165.33,309.229,147.868,309.658,127.74z"/>
	<path fill="#444444" d="M227.657,117.62c0.073-2.93,0.495-5.781,1.21-8.534l0.034-0.008c0,0,2.271-11.669,19.997-9.32
		c6.163,0.816,15.209,9.188,23.436,8.384c25.912-2.537,37.643,4.434,37.322,19.599c-0.432,20.129-11.401,37.59-37.315,35.126
		l0.001,0.029C246.527,159.168,227.085,140.085,227.657,117.62z"/>
	<path fill="#7F7F7F" d="M260.884,154.76c5.647,0.365,16.812-4.229,14.986-16.015c-1.82-11.781-15.197-13.57-19.65-13.854
		c-4.457-0.287-17.556-0.204-15.73,11.575C242.312,148.25,255.232,154.395,260.884,154.76z"/>
	<path fill="#232323" d="M256.429,127.966c-2.455-0.159-5.68,2.234-5.634,5.273c0.049,3.039,7.132,3.388,7.132,3.388l0.205,0.013
		c0,0,7.119,0.567,6.218-2.526s-4.939-5.954-7.391-6.113L256.429,127.966z"/>
	<path fill="none" stroke="#232323" stroke-width="1.5593" stroke-linecap="round" stroke-miterlimit="10" d="M250.301,142.146
		c0.655,1.189,1.506,2.274,2.49,3.199c0.991,0.932,2.109,1.698,3.311,2.261c1.206,0.565,2.483,0.913,3.784,0.994
		c1.297,0.086,2.494-0.104,3.542-0.518c1.05-0.422,1.957-1.06,2.675-1.878c0.718-0.816,1.242-1.815,1.542-2.937"/>
	<circle fill="#232323" cx="279.321" cy="122.292" r="2.187"/>
	<circle fill="#232323" cx="244.077" cy="115.782" r="2.187"/>
	<path fill="#444444" d="M302.197,131.528c-0.331,8.596,2.133,15.672,5.506,15.802c3.368,0.123,6.364-6.737,6.695-15.329
		c0.33-8.599-2.139-15.67-5.5-15.797C305.527,116.071,302.529,122.938,302.197,131.528z"/>
	<path fill="#232323" d="M306.213,122.065c2.777,0.125,4.984,5.374,5.785,12.777c0.105-0.932,0.18-1.897,0.216-2.903
		c0.223-6.751-1.379-12.305-3.574-12.404c-0.934-0.043-1.825,0.916-2.559,2.544C306.127,122.079,306.17,122.062,306.213,122.065z"/>
	<path fill="none" stroke="#7F7F7F" stroke-width="1.7213" stroke-linecap="round" stroke-miterlimit="10" d="M286.167,122.589
		c-0.054-0.77-0.258-1.514-0.592-2.194c-0.333-0.682-0.796-1.296-1.375-1.812c-0.568-0.512-1.253-0.922-2.029-1.188
		c-0.773-0.266-1.569-0.362-2.334-0.309"/>
	<path fill="none" stroke="#7F7F7F" stroke-width="1.7213" stroke-linecap="round" stroke-miterlimit="10" d="M245.692,110.202
		c-0.722-0.264-1.49-0.384-2.245-0.359c-0.76,0.025-1.513,0.195-2.217,0.51c-0.703,0.309-1.354,0.765-1.915,1.363
		c-0.562,0.598-0.972,1.281-1.237,2.006"/>
</g>
<path fill="#444444" d="M251.338,162.558c2.13-2.426,4.527-4.347,7.52-5.812c0.415-0.2,0.86-0.381,1.299-0.567
	c3.422,0.136,6.564,0.324,9.514,0.556c7.229,0.256,12.893,1.065,17.492,2.506c5.926,1.375,10.637,3.191,14.817,5.517
	c13.462,7.479,20.125,29.184,21.239,45.6c0.093,2.385,0.138,4.676,0.133,6.826c-0.02,5.553-0.371,10.16-1.037,12.949
	c-0.719,3.018-3.604,5.588-8.135,7.621c-7.225,3.234-18.667,5.083-32.436,5.083h-0.015c-1.288,0-2.556-0.019-3.806-0.052
	c-0.385-0.011-0.762-0.03-1.143-0.039c-0.866-0.034-1.721-0.063-2.563-0.111c-0.421-0.022-0.836-0.049-1.25-0.073
	c-0.817-0.05-1.621-0.111-2.414-0.174c-0.372-0.034-0.751-0.059-1.119-0.097c-0.966-0.084-1.908-0.187-2.836-0.297
	c-0.16-0.022-0.331-0.036-0.491-0.056c-1.095-0.135-2.155-0.285-3.192-0.452c-0.253-0.041-0.491-0.087-0.737-0.127
	c-0.775-0.132-1.533-0.267-2.273-0.416c-0.312-0.062-0.617-0.126-0.922-0.189c-0.667-0.145-1.318-0.292-1.953-0.444
	c-0.289-0.073-0.58-0.143-0.867-0.213c-0.686-0.183-1.35-0.366-1.998-0.565c-0.152-0.043-0.314-0.082-0.464-0.13
	c0.011,0,0.013,0,0.021,0c-4.435-1.373-7.875-3.122-10.051-5.202c-0.025-0.02-0.039-0.046-0.06-0.065
	c-0.408-0.392-0.777-0.797-1.094-1.214c-0.123-0.161-0.2-0.338-0.309-0.499c-0.187-0.285-0.386-0.568-0.529-0.858
	c-0.23-0.466-0.401-0.941-0.52-1.43C238.348,218.354,241.062,174.252,251.338,162.558z"/>
<ellipse fill="#444444" cx="281.589" cy="224.89" rx="41.229" ry="32.487"/>
<g>
	<path fill="#232323" d="M297.178,173.862c2.313-2.778,6.242-3.58,9.33-1.104c3.078,2.457,3.594,8.387,0.391,12.284
		c-9.101,11.088-22.379,16.477-36.637,14.848c-5.008-0.57-8.77-5.186-8.271-9.087c0.494-3.93,3.875-6.092,7.471-5.71
		C280.244,186.325,290.289,182.254,297.178,173.862z"/>
	<path fill="#232323" d="M258.388,188.061c-0.962-0.179-1.813-0.788-1.843-1.508c-0.032-0.726,0.959-1.454,2.206-1.425
		c3.378,0.062,6.717,1.208,9.492,3.339c1.026,0.798,0.896,2.226-0.161,3.03c-1.059,0.807-2.299,0.879-2.904,0.238
		C263.445,189.885,261.086,188.552,258.388,188.061z"/>
	<path fill="#232323" d="M257.252,193.599c-0.973,0.092-1.959-0.251-2.187-0.938c-0.233-0.688,0.521-1.662,1.722-1.98
		c3.261-0.877,6.787-0.701,10.044,0.574c1.209,0.479,1.479,1.889,0.685,2.95c-0.791,1.07-1.962,1.486-2.727,1.036
		C262.621,193.946,259.981,193.323,257.252,193.599z"/>
	<path fill="#232323" d="M259.011,199.099c-0.821,0.526-1.855,0.672-2.374,0.159c-0.515-0.505-0.291-1.711,0.637-2.55
		c2.502-2.264,5.723-3.713,9.201-4.057c1.295-0.126,2.18,1.005,1.957,2.315c-0.221,1.31-1.072,2.218-1.956,2.159
		C263.953,196.962,261.317,197.609,259.011,199.099z"/>
</g>
<path fill="#232323" d="M277.045,286.696c-0.983,0.278-2.07,0.111-2.437-0.554c-0.366-0.664,0.22-1.814,1.403-2.374
	c3.204-1.527,6.875-2.021,10.48-1.319c1.343,0.265,1.891,1.671,1.274,2.918c-0.618,1.257-1.744,1.91-2.616,1.593
	C282.654,286.034,279.812,285.89,277.045,286.696z"/>
<path fill="#232323" d="M278.58,292.431c-0.869,0.543-1.955,0.684-2.494,0.146c-0.54-0.535-0.291-1.802,0.688-2.672
	c2.654-2.354,6.045-3.844,9.707-4.176c1.362-0.115,2.275,1.083,2.03,2.453c-0.244,1.375-1.146,2.319-2.072,2.255
	C283.788,290.239,281.017,290.888,278.58,292.431z"/>
<path fill="#232323" d="M282.818,296.77c-0.524,0.877-1.43,1.501-2.156,1.269c-0.721-0.232-1.08-1.476-0.604-2.694
	c1.291-3.302,3.635-6.173,6.744-8.13c1.16-0.732,2.52-0.083,2.926,1.252c0.408,1.338,0.038,2.59-0.821,2.949
	C286.454,292.447,284.285,294.288,282.818,296.77z"/>
<path fill="#232323" d="M245.697,283.284c-0.982,0.281-2.072,0.117-2.438-0.551c-0.366-0.666,0.222-1.816,1.403-2.377
	c3.205-1.524,6.876-2.016,10.481-1.316c1.343,0.264,1.888,1.669,1.274,2.916c-0.616,1.256-1.744,1.908-2.616,1.595
	C251.307,282.623,248.463,282.478,245.697,283.284z"/>
<path fill="#232323" d="M247.23,289.021c-0.867,0.544-1.953,0.686-2.491,0.145c-0.541-0.533-0.296-1.803,0.685-2.667
	c2.656-2.354,6.049-3.847,9.709-4.176c1.361-0.118,2.277,1.082,2.029,2.449c-0.243,1.375-1.146,2.32-2.073,2.253
	C252.439,286.827,249.668,287.479,247.23,289.021z"/>
<path fill="#232323" d="M251.469,293.36c-0.523,0.88-1.43,1.504-2.154,1.266c-0.721-0.231-1.082-1.473-0.602-2.691
	c1.289-3.302,3.633-6.176,6.742-8.133c1.156-0.729,2.52-0.077,2.922,1.256c0.411,1.334,0.039,2.586-0.816,2.949
	C255.105,289.041,252.936,290.882,251.469,293.36z"/>
<path fill="#232323" d="M212.685,170.902c-0.987-0.339-1.794-1.105-1.714-1.879c0.079-0.771,1.239-1.381,2.552-1.163
	c3.556,0.587,6.901,2.318,9.505,4.994c0.963,1.002,0.6,2.488-0.637,3.174c-1.244,0.683-2.566,0.574-3.106-0.199
	C217.747,173.61,215.459,171.842,212.685,170.902z"/>
<path fill="#232323" d="M211.965,177.02c-1.027,0.151-2.098-0.165-2.376-0.89c-0.28-0.719,0.472-1.795,1.74-2.197
	c3.436-1.093,7.198-1.083,10.735,0.121c1.31,0.449,1.668,1.936,0.874,3.111c-0.792,1.182-2.021,1.685-2.853,1.242
	C217.705,177.131,214.865,176.595,211.965,177.02z"/>
<path fill="#232323" d="M216.234,166.019c-0.854-0.598-1.416-1.559-1.127-2.279c0.289-0.711,1.573-0.984,2.772-0.41
	c3.254,1.554,5.989,4.141,7.745,7.436c0.65,1.23-0.111,2.559-1.493,2.869c-1.385,0.317-2.622-0.155-2.927-1.049
	C220.343,170.03,218.64,167.694,216.234,166.019z"/>
<line fill="none" stroke="#232323" stroke-width="4" stroke-linecap="round" stroke-miterlimit="10" x1="218.525" y1="169.727" x2="175.192" y2="139.727"/>
</svg>
