<?xml version="1.0" encoding="utf-8"?>
<!-- Generator: Adobe Illustrator 16.0.4, SVG Export Plug-In . SVG Version: 6.00 Build 0)  -->
<!DOCTYPE svg PUBLIC "-//W3C//DTD SVG 1.1//EN" "http://www.w3.org/Graphics/SVG/1.1/DTD/svg11.dtd">
<svg version="1.1" id="Layer_1" xmlns="http://www.w3.org/2000/svg" xmlns:xlink="http://www.w3.org/1999/xlink" x="0px" y="0px"
	 width="375px" height="375px" viewBox="0 0 375 375" enable-background="new 0 0 375 375" xml:space="preserve">
<path fill="#FFFFFF" d="M125.325,211.432c-0.49,0-0.918-0.361-0.988-0.861c-0.077-0.547,0.305-1.052,0.853-1.129l4.952-0.693
	c0.542-0.081,1.051,0.304,1.129,0.852c0.077,0.547-0.305,1.052-0.852,1.129l-4.952,0.694
	C125.42,211.429,125.373,211.432,125.325,211.432z M138.201,209.628c-0.491,0-0.919-0.361-0.989-0.861
	c-0.077-0.547,0.305-1.052,0.853-1.129l4.951-0.693c0.542-0.082,1.052,0.305,1.129,0.853c0.077,0.547-0.305,1.052-0.852,1.129
	l-4.952,0.693C138.294,209.626,138.247,209.628,138.201,209.628z M151.075,207.826c-0.491,0-0.919-0.361-0.989-0.861
	c-0.077-0.547,0.305-1.052,0.853-1.129l4.951-0.694c0.541-0.082,1.052,0.304,1.129,0.853c0.077,0.547-0.305,1.052-0.852,1.129
	l-4.952,0.693C151.169,207.822,151.122,207.826,151.075,207.826z M215.361,198.769c-0.491,0-0.92-0.361-0.989-0.861
	c-0.077-0.547,0.305-1.052,0.852-1.129l4.951-0.693c0.539-0.082,1.053,0.305,1.129,0.853c0.077,0.547-0.305,1.052-0.852,1.129
	l-4.953,0.693C215.455,198.766,215.407,198.769,215.361,198.769z M228.234,196.966c-0.49,0-0.918-0.361-0.988-0.861
	c-0.077-0.547,0.305-1.052,0.852-1.129l4.952-0.693c0.539-0.083,1.052,0.303,1.129,0.852c0.077,0.547-0.305,1.052-0.852,1.129
	l-4.953,0.693C228.329,196.962,228.281,196.966,228.234,196.966z M240.977,195.307c-0.491,0-0.918-0.361-0.988-0.861
	c-0.078-0.547,0.305-1.052,0.852-1.129l4.952-0.693c0.539-0.082,1.052,0.304,1.129,0.852c0.077,0.547-0.305,1.052-0.852,1.129
	l-4.953,0.694C241.071,195.304,241.023,195.307,240.977,195.307z"/>
<path fill="#232323" d="M304.691,177.687c-1.712-1.297-2.792-3.314-2.136-4.774c0.65-1.452,3.31-1.897,5.731-0.626
	c6.564,3.437,11.982,8.972,15.341,15.873c1.234,2.578-0.434,5.247-3.289,5.789c-2.869,0.531-5.383-0.531-5.936-2.391
	C312.831,186.237,309.503,181.308,304.691,177.687z"/>
<path fill="#232323" d="M299.344,189.167c-2.103-0.367-3.99-1.673-4.067-3.269c-0.082-1.583,2.079-3.199,4.815-3.169
	c7.412,0.08,14.753,2.523,20.883,7.154c2.269,1.72,2.01,4.854-0.298,6.638c-2.306,1.798-5.031,1.986-6.37,0.586
	C310.48,193.083,305.282,190.207,299.344,189.167z"/>
<path fill="#232323" d="M80.51,195.996c-3.054-0.589-6.284,0.207-7.209,2.324c-0.937,2.11,1.152,5.42,4.877,6.799
	c10.08,3.736,21.312,4.221,32.01,1.129c3.984-1.155,5.254-5.55,3.052-9.155c-2.201-3.615-5.783-5.296-8.342-4.089
	C97.633,196.474,89.089,197.673,80.51,195.996z"/>
<path fill="#232323" d="M84.38,202.864c-2.904-1.117-6.224-0.903-7.508,1.017c-1.29,1.913,0.181,5.539,3.601,7.553
	c9.266,5.456,20.233,7.915,31.31,6.758c4.124-0.434,6.149-4.535,4.619-8.473c-1.529-3.946-4.76-6.234-7.491-5.496
	C101.15,206.356,92.525,206.03,84.38,202.864z"/>
<path fill="#232323" d="M82.968,213.418c-2.902-1.118-6.221-0.904-7.507,1.017c-1.291,1.912,0.18,5.539,3.601,7.552
	c9.264,5.457,20.233,7.915,31.311,6.759c4.125-0.434,6.149-4.536,4.619-8.474c-1.531-3.946-4.76-6.233-7.489-5.496
	C99.74,216.911,91.117,216.584,82.968,213.418z"/>
<path fill="#232323" d="M88.319,179.559c-0.227-3.112,1.198-6.211,3.852-6.876c2.62-0.649,6.254,1.84,7.297,5.708
	c2.917,10.476,1.81,21.664-3.472,31.896c-1.978,3.809-7.367,4.514-11.313,1.872c-3.963-2.647-5.403-6.41-3.588-8.784
	C86.293,196.601,89.013,188.275,88.319,179.559z"/>
<g>
	<g>
		<g>
			<path fill="#FFCF15" d="M258.696,164.275l18.155,2.84c0.502,0.079,1.066,0.117,1.665,0.117c2.127,0,4.524-0.47,6.103-1.197
				l29.002-13.348c1.835-0.844,2.1-1.842,2-2.53s-0.64-1.569-2.638-1.854l-11.392-1.629c-2.24-0.32-5.744,0.056-7.785,0.783
				l-35.502,12.655c-1.55,0.552-2.287,1.329-2.197,2.307C256.199,163.396,257.07,164.021,258.696,164.275z"/>
		</g>
		<g>
			<path fill="#FFCF15" d="M274.92,169.994l-25.15-3.934c-2.621-0.411-5.395,1.286-6.263,3.728l-3.816,10.728
				c-0.444,1.249-0.365,2.582,0.225,3.752c0.589,1.171,1.611,2.028,2.878,2.415l33.601,10.261c0.454,0.139,0.904,0.209,1.34,0.209
				c1.01,0,1.92-0.382,2.564-1.075c0.699-0.754,1.034-1.822,0.942-3.012l-1.333-17.671C279.709,172.773,277.52,170.4,274.92,169.994
				z"/>
		</g>
		<g>
			<path fill="#FFCF15" d="M329.084,160.585l-1.958-5.091c-0.959-2.492-3.925-3.71-6.364-2.586l-33.667,15.497
				c-2.328,1.072-4.001,3.914-3.81,6.47l1.284,16.994c0.168,2.246,1.609,3.251,2.96,3.251c0.74,0,1.523-0.281,2.264-0.812
				l37.175-26.65C329.094,166.133,330.023,163.026,329.084,160.585z"/>
		</g>
	</g>
	<g>
		<path fill="#FFFFFF" d="M314.979,146l3.353,1.334l1.396,3.198c0.111,0.213,0.381,0.299,0.602,0.194
			c0.091-0.041,0.162-0.11,0.204-0.194l1.397-3.198l3.354-1.334c0.219-0.107,0.309-0.364,0.199-0.577
			c-0.043-0.083-0.114-0.15-0.199-0.192l-3.354-1.333l-1.397-3.199c-0.111-0.212-0.382-0.299-0.602-0.194
			c-0.088,0.042-0.159,0.11-0.204,0.194l-1.396,3.199l-3.353,1.333c-0.223,0.106-0.311,0.365-0.201,0.576
			C314.821,145.891,314.892,145.958,314.979,146L314.979,146z"/>
	</g>
</g>
<path fill="#232323" d="M314.77,170.438c-1.283-1.718-1.762-3.955-0.733-5.177c1.022-1.201,3.707-0.91,5.677,0.984
	c5.352,5.132,9.029,11.944,10.332,19.51c0.478,2.822-1.865,4.924-4.763,4.64c-2.909-0.272-5.02-1.991-5.04-3.935
	C320.206,180.917,318.386,175.259,314.77,170.438z"/>
<circle fill="#3ED033" cx="187.899" cy="200.822" r="24.599"/>
<g>
	<g>
		<g>
			<path fill="#FFFFFF" d="M201.125,189.636c0.228,0,0.41,0.091,0.546,0.273l0.819,0.748c0.137,0.182,0.206,0.39,0.206,0.618
				c0,0.227-0.069,0.409-0.206,0.546l-20.48,20.48c-0.182,0.182-0.377,0.273-0.579,0.273c-0.208,0-0.399-0.092-0.582-0.273
				l-8.125-8.127c-0.136-0.137-0.204-0.319-0.204-0.546c0-0.228,0.067-0.43,0.204-0.611l0.819-0.755
				c0.137-0.182,0.319-0.272,0.546-0.272s0.409,0.091,0.546,0.272l6.759,6.763l19.183-19.116
				C200.715,189.727,200.897,189.636,201.125,189.636z"/>
		</g>
	</g>
</g>
<path fill="#232323" d="M76.068,194.164c-27.889,0.374-52.547-12.618-68.001-35.852c-2.076-3.068-4.895-5.384-8.067-6.729v55.197
	c19.189,16.514,43.578,25.38,70.206,25.019c12.962-0.163,23.773-11.008,23.5-21.11C93.454,200.503,85.362,194.117,76.068,194.164z"
	/>
<path fill="#232323" d="M375,204.431c-15.385-2.292-29.25-10.135-39.64-22.745c-4.764-5.704-12.854-7.343-19.197-2.235
	c-6.308,5.057-7.352,17.259-0.754,25.259c15.331,18.626,36.396,29.381,59.591,30.83V204.431z"/>
</svg>
