<?xml version="1.0" encoding="utf-8"?>
<!-- Generator: Adobe Illustrator 16.0.4, SVG Export Plug-In . SVG Version: 6.00 Build 0)  -->
<!DOCTYPE svg PUBLIC "-//W3C//DTD SVG 1.1//EN" "http://www.w3.org/Graphics/SVG/1.1/DTD/svg11.dtd">
<svg version="1.1" id="Layer_1" xmlns="http://www.w3.org/2000/svg" xmlns:xlink="http://www.w3.org/1999/xlink" x="0px" y="0px"
	 width="375px" height="375px" viewBox="0 0 375 375" enable-background="new 0 0 375 375" xml:space="preserve">
<ellipse opacity="0.2" fill="#232323" enable-background="new    " cx="186.689" cy="224.29" rx="44.446" ry="7.175"/>
<g>
	<g>
		<path fill="#232323" d="M185.265,178.537c-0.161,1.279-4.323,37.403-10.466,42.48c-6.145,5.071-9.376,3.374-10.631,2.03
			c-1.312-1.405-2.969-3.937,0.089-6.8c2.458-2.302,4.171-12.48,1.685-28.355L185.265,178.537z"/>
		<g>
			<path fill="#232323" d="M159.824,219.122c-0.77,0.22-1.621,0.092-1.911-0.429c-0.288-0.52,0.17-1.423,1.096-1.862
				c2.508-1.2,5.383-1.591,8.21-1.049c1.052,0.206,1.479,1.306,1.001,2.282c-0.482,0.986-1.364,1.499-2.047,1.252
				C164.218,218.595,161.99,218.486,159.824,219.122z"/>
			<path fill="#232323" d="M161.037,223.611c-0.681,0.428-1.534,0.541-1.955,0.119c-0.424-0.419-0.231-1.413,0.535-2.094
				c2.076-1.846,4.729-3.02,7.597-3.283c1.066-0.093,1.784,0.844,1.593,1.918c-0.188,1.077-0.893,1.816-1.621,1.766
				C165.111,221.886,162.942,222.4,161.037,223.611z"/>
			<path fill="#232323" d="M164.359,227.005c-0.408,0.688-1.115,1.178-1.685,0.995c-0.565-0.181-0.849-1.152-0.476-2.108
				c1.007-2.59,2.836-4.842,5.269-6.38c0.905-0.574,1.971-0.065,2.29,0.979c0.323,1.046,0.034,2.026-0.637,2.312
				C167.203,223.614,165.506,225.061,164.359,227.005z"/>
		</g>
	</g>
	<g>
		<path fill="#232323" d="M189.028,178.202c0.164,1.276,4.459,37.387,10.622,42.438c6.162,5.05,9.39,3.34,10.637,1.992
			c1.304-1.412,2.955-3.947-0.114-6.799c-2.468-2.293-4.218-12.466-1.79-28.351L189.028,178.202z"/>
		<g>
			<path fill="#232323" d="M213.558,219.109c0.771,0.219,1.622,0.086,1.907-0.435c0.287-0.521-0.174-1.422-1.102-1.858
				c-2.512-1.193-5.388-1.572-8.213-1.02c-1.05,0.21-1.476,1.311-0.992,2.287c0.485,0.982,1.37,1.493,2.052,1.243
				C209.161,218.601,211.389,218.482,213.558,219.109z"/>
			<path fill="#232323" d="M212.361,223.604c0.682,0.425,1.535,0.534,1.956,0.112c0.421-0.42,0.227-1.416-0.543-2.093
				c-2.083-1.837-4.74-3.002-7.607-3.255c-1.067-0.089-1.783,0.851-1.59,1.924c0.197,1.076,0.902,1.812,1.63,1.761
				C208.28,221.896,210.451,222.402,212.361,223.604z"/>
			<path fill="#232323" d="M209.05,227.009c0.411,0.688,1.122,1.176,1.689,0.989c0.565-0.183,0.845-1.156,0.468-2.109
				c-1.016-2.587-2.854-4.832-5.291-6.36c-0.909-0.569-1.972-0.058-2.287,0.987c-0.32,1.046-0.027,2.025,0.646,2.309
				C206.194,223.631,207.896,225.069,209.05,227.009z"/>
		</g>
	</g>
</g>
<path fill="#444444" d="M154.312,159.418c1.332-12.459,6.502-27.663,16.344-33.153c4.219-2.353,9.13-4.056,15.898-5.199
	c1.608,0.266,3.104,0.565,4.519,0.896c0.246,0.058,0.483,0.118,0.724,0.178c0.419,0.104,0.833,0.21,1.237,0.32
	c0.257,0.069,0.51,0.14,0.76,0.212c0.406,0.117,0.804,0.239,1.196,0.363c0.204,0.065,0.414,0.127,0.615,0.194
	c0.565,0.187,1.115,0.381,1.652,0.582c0.158,0.059,0.308,0.123,0.463,0.183c0.402,0.156,0.801,0.316,1.188,0.482
	c0.182,0.078,0.361,0.157,0.541,0.237c0.37,0.164,0.734,0.333,1.092,0.506c0.153,0.073,0.308,0.146,0.458,0.222
	c0.499,0.248,0.99,0.501,1.469,0.766c10.559,5.84,15.807,22.829,16.703,35.684c0.079,1.869,0.116,3.661,0.111,5.346
	c-0.007,4.35-0.273,7.962-0.792,10.146c-0.024,0.101-0.069,0.199-0.099,0.299c-2.626,11.957-15.833,21.07-31.76,21.098
	c-17.834,0.035-32.312-11.33-32.338-25.385c0-0.129,0.009-0.256,0.011-0.385C154.028,169.383,154.02,164.599,154.312,159.418z"/>
<path fill="#FFFFFF" d="M162.756,124.559c4.077-4.657,9.374-6.947,19.812-7.404c0.164-0.008,0.334-0.013,0.5-0.019
	c0.526-0.02,1.06-0.038,1.611-0.049c0.546-0.011,1.102-0.019,1.675-0.021c0.066,0,0.126-0.002,0.193-0.002h0.013
	c0.02,0,0.039,0,0.061,0c0.011,0,0.021,0,0.034,0h0.009c0.038,0,0.074,0.001,0.112,0.001c0.604,0,1.192,0.006,1.767,0.017
	c0.657,0.01,1.29,0.028,1.91,0.052c0.06,0.002,0.122,0.004,0.183,0.006c10.447,0.417,15.754,2.689,19.848,7.333
	c5.416,6.142,8.177,23.729,8.749,37.419c-0.896-12.855-6.145-29.844-16.703-35.684c-4.226-2.337-9.144-4.023-15.916-5.14
	c-6.768,1.143-11.676,2.845-15.897,5.199c-10.536,5.877-15.72,22.887-16.568,35.744
	C154.667,148.319,157.365,130.721,162.756,124.559z"/>
<g>
	<path fill="#232323" d="M168.435,127.386c2.734-0.735,5.614,0.52,6.475,3.5c0.861,2.958-1.479,6.992-5.289,8.044
		c-10.825,3-21.759,0.462-30.155-7.007c-2.954-2.623-3.281-7.276-1.204-9.549c2.088-2.295,5.226-2.153,7.358-0.29
		C151.973,127.732,160.242,129.655,168.435,127.386z"/>
	<path fill="#232323" d="M133.786,122.505c-0.577-0.582-1.393-0.89-1.911-0.571c-0.511,0.315-0.556,1.348,0.049,2.193
		c1.625,2.31,3.978,4.084,6.755,5.006c1.036,0.341,1.962-0.418,2.022-1.525c0.062-1.114-0.466-2.007-1.196-2.125
		C137.419,125.152,135.39,124.144,133.786,122.505z"/>
	<path fill="#232323" d="M137.085,119.124c-0.39-0.718-1.087-1.24-1.672-1.074c-0.584,0.161-0.907,1.136-0.565,2.122
		c0.921,2.667,2.694,5.026,5.103,6.681c0.899,0.615,2.002,0.141,2.367-0.907c0.365-1.048,0.109-2.055-0.561-2.373
		C139.842,122.676,138.174,121.144,137.085,119.124z"/>
	<path fill="#232323" d="M138.838,117.386c-0.574-0.575-0.876-1.397-0.553-1.907c0.321-0.512,1.347-0.545,2.194,0.063
		c2.296,1.647,4.051,4.015,4.948,6.8c0.334,1.034-0.435,1.953-1.542,2.005c-1.111,0.055-2.001-0.48-2.113-1.212
		C141.456,121.043,140.462,119.008,138.838,117.386z"/>
</g>
<g>
	<path fill="#232323" d="M205.564,127.386c-2.733-0.735-5.614,0.52-6.474,3.5c-0.862,2.958,1.478,6.992,5.289,8.044
		c10.826,3,21.759,0.462,30.154-7.007c2.954-2.623,3.281-7.276,1.204-9.549c-2.089-2.295-5.226-2.153-7.358-0.29
		C222.027,127.732,213.758,129.655,205.564,127.386z"/>
	<path fill="#232323" d="M240.215,122.505c0.576-0.582,1.393-0.89,1.911-0.571c0.511,0.315,0.555,1.348-0.049,2.193
		c-1.625,2.31-3.978,4.084-6.755,5.006c-1.036,0.341-1.962-0.418-2.022-1.525c-0.061-1.114,0.466-2.007,1.196-2.125
		C236.581,125.152,238.61,124.144,240.215,122.505z"/>
	<path fill="#232323" d="M236.915,119.124c0.39-0.718,1.087-1.24,1.672-1.074c0.584,0.161,0.907,1.136,0.565,2.122
		c-0.921,2.667-2.694,5.026-5.104,6.681c-0.898,0.615-2.002,0.141-2.366-0.907c-0.366-1.048-0.11-2.055,0.56-2.373
		C234.157,122.676,235.825,121.144,236.915,119.124z"/>
	<path fill="#232323" d="M235.162,117.386c0.574-0.575,0.877-1.397,0.553-1.907c-0.321-0.512-1.347-0.545-2.194,0.063
		c-2.296,1.647-4.051,4.015-4.948,6.8c-0.334,1.034,0.435,1.953,1.542,2.005c1.111,0.055,2.001-0.48,2.113-1.212
		C232.544,121.043,233.538,119.008,235.162,117.386z"/>
</g>
<path fill="#FFFFFF" d="M186.744,75.935c5.765-0.011,12.488-2.284,16.298-3.256c4.466-1.138,6.586-1.175,9.881-1.181
	c9.973-0.019,13.047,5.206,13.888,7.337c-6.579-20.202-27.388-23-39.681-22.979l-1.014,0.003
	c-12.292,0.022-33.091,2.896-39.597,23.124c0.833-2.135,3.889-7.371,13.862-7.391c3.293-0.006,5.416,0.024,9.885,1.146
	c3.816,0.958,10.546,3.207,16.311,3.196H186.744z"/>
<path fill="#444444" d="M146.554,79.002l-0.035-0.018c0.833-2.135,3.89-7.371,13.862-7.391c3.293-0.006,5.417,0.024,9.885,1.146
	c3.816,0.958,10.546,3.207,16.312,3.196h0.165c5.765-0.011,12.488-2.284,16.298-3.256c4.466-1.138,6.586-1.175,9.881-1.181
	c9.973-0.019,13.047,5.206,13.888,7.337l-0.034,0.018c2.112,2.018,3.524,7.328,3.35,13.534c-0.219,7.869-2.9,14.182-5.986,14.097
	c-0.059-0.002-0.115-0.021-0.172-0.027c-7.146,14.439-26.793,21.166-37.107,21.185c-10.312,0.018-30.127-6.635-37.379-21.05
	c-0.065,0.007-0.126,0.029-0.192,0.031c-3.082,0.094-5.789-6.208-6.036-14.076C143.058,86.341,144.447,81.028,146.554,79.002z"/>
<path fill="#7F7F7F" d="M186.781,117.22c5.21-0.01,16.269-4.858,16.246-15.46c-0.019-10.6-12.225-11.419-16.334-11.411
	c-4.11,0.007-16.326,0.871-16.307,11.47C170.407,112.422,181.567,117.229,186.781,117.22z"/>
<path fill="#232323" d="M186.449,93.13c-2.265,0.005-5.609,2.375-6,5.134c-0.387,2.759,6.164,2.648,6.164,2.648h0.187
	c0,0,6.55,0.086,6.152-2.673c-0.398-2.756-3.751-5.114-6.019-5.109H186.449z"/>
<g>
	<circle fill="#232323" cx="203.392" cy="85.064" r="2.002"/>
	<path fill="#232323" d="M167.961,85.129c0.002,1.108,0.898,2,2.006,1.999c1.103-0.002,1.998-0.899,1.998-2.005
		c-0.002-1.107-0.9-2.002-2.005-2C168.853,83.125,167.958,84.023,167.961,85.129z"/>
</g>
<path fill="#232323" d="M150.808,83.497c-2.542,0.099-4.597,4.894-5.373,11.663c-0.091-0.85-0.155-1.735-0.179-2.651
	c-0.166-6.186,1.334-11.261,3.344-11.34c0.857-0.033,1.665,0.85,2.327,2.343C150.888,83.511,150.847,83.496,150.808,83.497z"/>
<path fill="#232323" d="M222.541,83.365c2.54,0.09,4.615,4.877,5.417,11.644c0.088-0.852,0.148-1.737,0.168-2.654
	c0.142-6.185-1.376-11.256-3.386-11.326c-0.854-0.028-1.661,0.857-2.318,2.352C222.461,83.38,222.5,83.365,222.541,83.365z"/>
<path fill="none" stroke="#7F7F7F" stroke-width="1.576" stroke-linecap="round" stroke-miterlimit="10" d="M207.204,79.152
	c-0.518-0.479-1.122-0.848-1.772-1.094c-0.649-0.245-1.345-0.365-2.049-0.346c-0.705,0.017-1.418,0.173-2.102,0.482
	c-0.684,0.309-1.271,0.743-1.749,1.262"/>
<path fill="none" stroke="#7F7F7F" stroke-width="1.576" stroke-linecap="round" stroke-miterlimit="10" d="M173.694,79.152
	c-0.519-0.479-1.122-0.848-1.771-1.094c-0.649-0.245-1.347-0.365-2.051-0.346c-0.704,0.017-1.417,0.173-2.101,0.482
	c-0.683,0.31-1.271,0.743-1.75,1.262"/>
<path fill="none" stroke="#232323" stroke-width="1.4278" stroke-linecap="round" stroke-miterlimit="10" d="M178.693,106.573
	c0.436,1.039,1.072,1.977,1.854,2.764c0.783,0.788,1.721,1.423,2.758,1.866c1.035,0.441,2.177,0.686,3.376,0.688
	c1.199,0.002,2.34-0.238,3.383-0.677c1.04-0.438,1.975-1.07,2.762-1.854c0.787-0.784,1.425-1.72,1.866-2.758"/>
<ellipse opacity="0.3" fill="#232323" enable-background="new    " cx="187" cy="309.07" rx="68.608" ry="11.073"/>
<g>
	<circle fill="#3050C4" cx="186.301" cy="217.405" r="90"/>
	<path fill="none" d="M273.488,202.406c1.38,0.559,2.414-0.519,3.919-1.852c1.506-1.332-3.186-2.972-5.553-3.831
		c-1.964-0.712-2.183-0.007-2.765,0.229c0.339,1.376,0.645,2.766,0.915,4.166C271.259,201.253,272.415,201.97,273.488,202.406z"/>
	<path fill="none" d="M271.854,208.736c-0.142-0.269-0.381-0.465-0.789-0.562c0.172,1.597,0.305,3.206,0.387,4.828
		C272.347,211.379,272.103,209.211,271.854,208.736z"/>
	<g>
		<path fill="#3050C4" d="M155.846,280.155c-2.473-2.228-9.787-10.024-10.275-16.268c-0.378-4.548,2.565-7.341,4.342-9.129
			c0.583-0.503,1.167-1.007,1.192-1.284c0.053-0.559-3.457-3.174-5.982-4.844c-0.479-0.613-1.25-0.973-1.995-1.614
			c-2.526-1.669-3.405-3.731-4.071-5.208c-0.213-0.586-0.427-1.17-0.692-1.197c-0.53-0.055-1.276-0.695-2.286-1.363
			c-2.02-1.336-5.29-3.644-8.238-3.668c-4.78-0.493-8.984-7.125-9.172-7.988c-0.187-0.863-1.898-8.365-2.618-9.283
			c-0.957-1.225-7.479-11.757-8.599-14.125c-1.358-2.675-0.819-14.166,3.021-20.811c1.531-2.656,1.941-5.799,1.918-8.505
			c-7.222,12.521-11.354,27.046-11.354,42.537c0,35.861,22.142,66.548,53.499,79.144c0.139-0.49,0.288-0.938,0.431-1.275
			C156.238,293.153,158.185,280.961,155.846,280.155z"/>
		<path fill="#3050C4" d="M247.442,268.536c1.55-2.066,0-9.815-2.754-12.915c-2.757-3.101,0-6.2-0.346-7.75
			c-0.345-1.55-2.583,0-3.787-1.688c-1.207-1.689,6.199-4.855-6.028-1.414c-12.228,3.442-12.228,0-16.533-3.958
			c-4.304-3.96-2.583-4.649-2.928-12.054c-0.343-7.404,5.856-8.781,8.44-12.797c2.583-4.015,5.337-5.974,15.325-7.523
			c9.99-1.55,6.374,2.581,6.374,4.104c0,1.523,9.643,3.989,9.643,3.301c0-0.688-1.205-3.616,1.033-3.271
			c1.207,0.346,12.916,2.238,12.916,2.238c1.351-0.197,2.169-0.923,2.656-1.807c-0.083-1.622-0.215-3.231-0.387-4.828
			c-0.702-0.168-1.91-0.036-4.035,0.562c-3.358,0.946-5.34-2.325-5.509-4.479c-0.174-2.153,5.723-2.754,7.401-3.1
			c0.369-0.076,0.729-0.076,1.081-0.039c-0.271-1.4-0.576-2.79-0.915-4.166c-0.12,0.049-0.254,0.08-0.423,0.072
			c-0.989-0.044-1.679-1.247-2.325-2.238c-0.644-0.988-1.809,1.379-2.151,2.111c-0.348,0.73-0.733,2.324-0.602,3.616
			c0.129,1.291-0.774,1.724-1.465,2.153c-0.69,0.43-0.775-0.172-1.376-0.517c-0.601-0.346-2.066,0.214-2.712,1.55
			c-0.646,1.334,0.214,4.391,0.086,4.434c-0.126,0.045-1.549-0.43-2.583-1.721c-1.033-1.292-2.24-4.477-2.367-5.426
			c-0.129-0.948-2.712-3.4-4.477-4.004c-1.768-0.601-0.218,1.982,0.085,2.455c0.3,0.474,2.625,2.152,2.757,3.315
			c0.128,1.16-2.283,5.251-1.68,3.788c0.602-1.464-1.207-2.154-1.724-3.271c-0.517-1.118-2.496-2.325-4.217-4.221
			c-1.723-1.895-2.412-0.086-3.532-0.603c-1.118-0.517-2.066,0.69-3.101,0.432c-1.032-0.259-0.688,1.205-0.774,2.583
			c-0.085,1.379-0.601,0.688-2.238,2.325c-1.637,1.637-1.378,2.841-2.325,3.438c-0.946,0.598-2.841,1.125-5.683,1.212
			s-2.67-1.291-2.583-2.757c0.087-1.466,0.517-3.442,1.379-5.251c0.859-1.809,5.425-0.946,6.371-1.207
			c0.946-0.262,0.345-1.725,0.345-3.489c0-1.764-2.153-2.67-3.055-3.272c-0.905-0.604,0.904-0.689,2.971-1.205
			c2.066-0.517,3.358-1.551,3.875-2.627c0.517-1.076,3.015-3.23,4.177-4.048c1.161-0.819,2.241-1.118,3.101-1.722
			c0.864-0.604,2.474,1.033,2.474,1.033l7.623-1.227c0,0,1.485-0.842,1.743-2.262c0.259-1.42,0.259-1.611,1.229-3.938
			c0.583-1.399,2.309-2.259,3.593-2.794c-0.199-0.332-0.401-0.663-0.604-0.993c-0.679,0.034-1.486,0.123-2.409,0.299
			c-2.71,0.517-2.194-1.484-2.71-2.647c-0.464-1.045-0.088-1.58,1.066-3.637c-0.447-0.604-0.901-1.203-1.364-1.795
			c-0.178,0.032-0.358,0.06-0.541,0.071c-2.002,0.13-1.744,2.776-2.325,3.488c-0.581,0.71-0.773,1.355-0.323,3.811
			c0.452,2.455-2.13,7.942-3.487,8.202c-1.356,0.261-3.293-3.744-3.617-4.261c-0.322-0.517-2.647,1.55-4.262,1.55
			c-1.615,0-1.615-4.975-0.581-6.588c1.033-1.615,4.629-4.07,5.921-6.824c1.027-2.191,1.741-4.062,3.241-6.293
			c-15.497-15.978-37.19-25.912-61.207-25.912c-14.516,0-28.182,3.632-40.146,10.029c1.884,0.423,4.049,0.712,5.656,0.691
			c2.948,0.022,6.667,0.407,10.838,1.682c1.301,0.417,2.363,0.526,3.159,0.608c1.86,0.192,3.188,0.33,4.041,2.67
			c1.01,0.668,3.827,2.085,3.937,3.787c-0.053,0.559-0.397,1.367-1.246,1.844c-0.875,0.754-6.235,3.58-8.438,4.197
			c-1.38,0.421-8.172,4.225-8.782,5.007c-0.026,0.279-0.262,2.79-0.47,5.021c1.541,0.724,5.369,2.81,6.034,4.286
			c0.24,0.305,0.506,0.332,1.302,0.415c0.532,0.055,1.088-0.169,1.568,0.443c0.24,0.307,0.479,0.613,0.427,1.171l-0.052,0.559
			c-0.34,3.625,0.086,4.797,0.326,5.103c0.318-0.53,0.422-1.646,0.767-2.456c0.474-2.203,0.922-4.129,2.516-3.965
			c0.531,0.056,1.406-0.698,2.068-2.038c0.609-0.783,0.396-1.367,0.396-1.367c-0.984-0.948-0.536-2.872,1.294-5.218
			c0.025-0.279,0.292-0.252,0.318-0.53c0.952-1.592,2.171-3.156,3.526-3.297c0.53,0.055,1.061,0.109,1.54,0.722
			c0.985,0.947,2.183,2.479,3.14,3.704c0.718,0.919,1.197,1.532,1.438,1.839c0.504,0.333,0.692,1.198,0.614,2.034
			c-0.026,0.279,0.186,0.865,0.16,1.143c1.115-0.446,3.053-1.093,4.062-0.425c0.505,0.335,0.744,0.641,0.959,1.226
			c0.212,0.586,0.134,1.422,0.323,2.288c0.16,1.143,0.483,3.428,0.962,4.041c0.718,0.919,1.942,2.172,2.582,3.928
			c-0.027,0.279,0.211,0.586,0.453,0.893c0.454,0.892,0.904,1.782,0.562,2.593c-0.317,0.529-0.901,1.033-2.017,1.481
			c-1.671,0.672-3.266,0.507-4.62,0.648c-1.354,0.143-2.683,0.006-3.531,0.48c-1.697,0.951-2.333,2.013-1.719,4.047
			c-0.026,0.279,0.214,0.586,0.188,0.865c0.161,1.143,0.614,2.033,0.003,2.816c-0.343,0.809-1.168,1.006-2.521,1.147
			c-0.265-0.027-0.823,0.196-1.354,0.142c-2.15,0.059-5.655,0.261-5.76,1.376c-0.183,1.953-1.855,2.625-2.969,3.074
			c-0.292,0.25-0.849,0.475-1.14,0.727c-0.293,0.251-0.584,0.503-1.141,0.726c-1.142,0.729-4.537,2.63-4.616,3.468
			c0.348,2.007-2.382,5.387-4.344,6.31c-1.406,0.699-3.58,3.855-3.923,4.664c-0.026,0.279-0.053,0.559-0.104,1.115
			c-0.131,1.396-0.314,3.349-1.668,3.488c-0.796-0.082-1.49-1.278-2.421-2.782c-0.452-0.893-1.385-2.397-1.916-2.452
			c-0.797-0.082-2.125-0.22-3.213-0.05c-1.354,0.142-2.709,0.284-3.771,0.174c-3.453-0.356-6.187,0.205-6.239,0.764
			c-0.318,0.53-0.662,1.34-1.032,2.427c-1.006,2.151-3.043,6.727-1.794,7.702c2.26,1.643,4.04,2.671,5.103,2.78
			c0.266,0.027,1.406-0.699,2.255-1.176c1.724-1.229,3.423-2.182,4.458-1.791c0.266,0.027,0.506,0.332,0.746,0.638
			c0.451,0.894-0.209,2.233-1.19,4.102c-0.292,0.253-0.635,1.062-0.66,1.34c0.238,0.308,1.035,0.391,1.54,0.724
			c2.338,0.805,3.615,1.5,3.827,2.086c0.24,0.306,0.427,1.169,0.296,2.564c-0.079,0.836-0.022,3.098,0.218,3.402
			c1.275,0.695,6.218,2.331,7.039,2.136c0.266,0.027,0.824-0.195,1.381-0.422c2.76-0.839,5.255-1.71,6.771-0.708
			c1.781,1.027,4.145,1.556,5.738,1.721c1.86,0.191,7.837,2.217,9.223,4.613c1.146,2.09,3.749,2.923,4.28,2.978
			c1.062,0.11,4.921,4.733,4.764,6.405c0.186,0.863,4.199,3.814,5.263,3.924c0.822-0.198,5.818,0.883,6.483,2.359l0.239,0.308
			c0.694,1.196,2.264,4.458-0.017,5.911c-1.139,0.727-3.658,4.691-5.299,7.902c-0.66,1.34-10.765,9.026-12.172,9.727
			c-1.115,0.445-4.032,2.961-4.959,4.273c-0.636,1.062-2.043,1.762-3.423,2.182c-0.557,0.225-1.115,0.449-1.406,0.699
			c-0.316,0.531-1.22,1.566-2.385,2.57l-8.438,0.215c8.231,2.646,17.006,4.08,26.117,4.08c24.527,0,46.632-10.359,62.187-26.938
			C247.758,272.692,246.342,270.005,247.442,268.536z M228.598,176.531c0.775-0.127,2.232,1.486,2.232,1.486
			s-0.038,1.164,0.414,2.389c0.454,1.227,1.746,3.036,2.841,5.23c1.098,2.195-1.874,3.358-4.521,3.617
			c-2.646,0.258,0-3.555,0.453-4.328c0.452-0.771-0.259-2.583-0.453-3.228c-0.19-0.647-1.936-1.548-2.195-2.711
			C227.11,177.823,228.598,176.531,228.598,176.531z M226.144,181.956c2.648-0.71,1.42,2.973,0.646,3.812
			c-0.775,0.838-3.423,0.646-3.423,0S226.144,181.956,226.144,181.956z"/>
	</g>
	<g>
		<g>
			<path fill="#3ED033" d="M171.007,295.803c0.291-0.25,0.85-0.475,1.406-0.699c1.38-0.42,2.787-1.119,3.423-2.182
				c0.927-1.312,3.844-3.828,4.959-4.273c1.407-0.701,11.512-8.387,12.172-9.727c1.642-3.211,4.16-7.176,5.299-7.902
				c2.281-1.453,0.711-4.715,0.017-5.911l-0.239-0.308c-0.665-1.477-5.661-2.558-6.483-2.359c-1.063-0.109-5.077-3.061-5.263-3.924
				c0.157-1.672-3.702-6.295-4.764-6.405c-0.532-0.055-3.135-0.888-4.28-2.978c-1.386-2.396-7.363-4.422-9.223-4.613
				c-1.593-0.165-3.957-0.693-5.738-1.721c-1.516-1.002-4.011-0.131-6.771,0.708c-0.557,0.227-1.115,0.449-1.381,0.422
				c-0.821,0.195-5.764-1.44-7.039-2.136c-0.24-0.305-0.297-2.566-0.218-3.402c0.131-1.396-0.057-2.259-0.296-2.564
				c-0.212-0.586-1.489-1.281-3.827-2.086c-0.505-0.333-1.302-0.416-1.54-0.724c0.025-0.277,0.368-1.087,0.66-1.34
				c0.981-1.868,1.642-3.208,1.19-4.102c-0.24-0.306-0.48-0.61-0.746-0.638c-1.036-0.391-2.734,0.562-4.458,1.791
				c-0.849,0.477-1.989,1.203-2.255,1.176c-1.062-0.109-2.843-1.138-5.103-2.78c-1.249-0.976,0.788-5.551,1.794-7.702
				c0.37-1.087,0.714-1.896,1.032-2.427c0.052-0.559,2.787-1.12,6.239-0.764c1.062,0.11,2.416-0.032,3.771-0.174
				c1.088-0.17,2.416-0.032,3.213,0.05c0.531,0.055,1.463,1.56,1.916,2.452c0.931,1.504,1.625,2.7,2.421,2.782
				c1.354-0.14,1.537-2.093,1.668-3.488c0.052-0.557,0.078-0.836,0.104-1.115c0.344-0.809,2.517-3.965,3.923-4.664
				c1.962-0.923,4.692-4.303,4.344-6.31c0.079-0.838,3.474-2.739,4.616-3.468c0.557-0.223,0.848-0.475,1.141-0.726
				c0.291-0.252,0.848-0.477,1.14-0.727c1.114-0.449,2.787-1.121,2.969-3.074c0.104-1.115,3.609-1.317,5.76-1.376
				c0.532,0.055,1.089-0.169,1.354-0.142c1.354-0.142,2.179-0.339,2.521-1.147c0.61-0.783,0.157-1.674-0.003-2.816
				c0.026-0.279-0.214-0.586-0.188-0.865c-0.614-2.034,0.022-3.096,1.719-4.047c0.848-0.475,2.177-0.338,3.531-0.48
				c1.354-0.142,2.949,0.023,4.62-0.648c1.115-0.448,1.699-0.952,2.017-1.481c0.343-0.811-0.108-1.701-0.562-2.593
				c-0.241-0.307-0.479-0.613-0.453-0.893c-0.64-1.756-1.863-3.009-2.582-3.928c-0.479-0.613-0.802-2.898-0.962-4.041
				c-0.188-0.866-0.11-1.702-0.323-2.288c-0.215-0.585-0.454-0.891-0.959-1.226c-1.009-0.668-2.947-0.021-4.062,0.425
				c0.025-0.277-0.187-0.863-0.16-1.143c0.078-0.836-0.11-1.701-0.614-2.034c-0.24-0.307-0.72-0.92-1.438-1.839
				c-0.957-1.225-2.154-2.757-3.14-3.704c-0.479-0.612-1.01-0.667-1.54-0.722c-1.355,0.141-2.574,1.705-3.526,3.297
				c-0.026,0.278-0.293,0.251-0.318,0.53c-1.83,2.346-2.278,4.27-1.294,5.218c0,0,0.213,0.584-0.396,1.367
				c-0.662,1.34-1.537,2.094-2.068,2.038c-1.594-0.164-2.042,1.762-2.516,3.965c-0.344,0.811-0.448,1.926-0.767,2.456
				c-0.24-0.306-0.666-1.478-0.326-5.103l0.052-0.559c0.052-0.558-0.188-0.864-0.427-1.171c-0.479-0.612-1.036-0.389-1.568-0.443
				c-0.795-0.083-1.062-0.11-1.302-0.415c-0.665-1.477-4.493-3.562-6.034-4.286c0.208-2.23,0.444-4.741,0.47-5.021
				c0.61-0.782,7.402-4.586,8.782-5.007c2.203-0.617,7.562-3.443,8.438-4.197c0.849-0.477,1.193-1.285,1.246-1.844
				c-0.109-1.701-2.927-3.118-3.937-3.787c-0.853-2.34-2.181-2.478-4.041-2.67c-0.796-0.083-1.858-0.192-3.159-0.608
				c-4.172-1.275-7.891-1.66-10.838-1.682c-1.607,0.021-3.772-0.269-5.656-0.691c-14.08,7.529-25.801,18.891-33.763,32.696
				c0.023,2.706-0.387,5.849-1.918,8.505c-3.841,6.645-4.38,18.136-3.021,20.811c1.119,2.368,7.642,12.9,8.599,14.125
				c0.72,0.918,2.431,8.42,2.618,9.283c0.188,0.863,4.393,7.495,9.172,7.988c2.948,0.024,6.219,2.332,8.238,3.668
				c1.01,0.668,1.756,1.309,2.286,1.363c0.266,0.027,0.479,0.611,0.692,1.197c0.666,1.477,1.545,3.539,4.071,5.208
				c0.745,0.642,1.515,1.001,1.995,1.614c2.525,1.67,6.035,4.285,5.982,4.844c-0.025,0.277-0.61,0.781-1.192,1.284
				c-1.777,1.788-4.721,4.581-4.342,9.129c0.488,6.243,7.802,14.04,10.275,16.268c2.339,0.806,0.392,12.998-0.879,15.119
				c-0.143,0.338-0.292,0.785-0.431,1.275c1.852,0.744,3.735,1.424,5.647,2.039l8.438-0.215
				C169.787,297.37,170.69,296.334,171.007,295.803z"/>
			<path fill="#3ED033" d="M229.563,181.698c0.194,0.645,0.905,2.456,0.453,3.228c-0.453,0.773-3.1,4.586-0.453,4.328
				c2.647-0.259,5.62-1.422,4.521-3.617c-1.096-2.194-2.387-4.004-2.841-5.23c-0.452-1.225-0.414-2.389-0.414-2.389
				s-1.457-1.613-2.232-1.486c0,0-1.487,1.292-1.229,2.456C227.627,180.15,229.373,181.051,229.563,181.698z"/>
			<path fill="#3ED033" d="M226.79,185.768c0.774-0.839,2.002-4.521-0.646-3.812c0,0-2.777,3.165-2.777,3.812
				S226.015,186.605,226.79,185.768z"/>
			<path fill="#3ED033" d="M253.78,170.33c0.517,1.163,0,3.164,2.71,2.647c0.923-0.176,1.73-0.265,2.409-0.299
				c-1.269-2.055-2.621-4.052-4.054-5.985C253.691,168.75,253.316,169.285,253.78,170.33z"/>
			<path fill="#3ED033" d="M255.911,176.466c-0.97,2.327-0.97,2.519-1.229,3.938c-0.258,1.42-1.743,2.262-1.743,2.262l-7.623,1.227
				c0,0-1.61-1.637-2.474-1.033c-0.859,0.604-1.939,0.902-3.101,1.722c-1.162,0.817-3.66,2.972-4.177,4.048
				c-0.516,1.076-1.808,2.11-3.875,2.627c-2.066,0.516-3.875,0.602-2.971,1.205c0.902,0.603,3.055,1.509,3.055,3.272
				c0,1.765,0.602,3.228-0.345,3.489c-0.946,0.261-5.512-0.602-6.371,1.207c-0.862,1.809-1.292,3.785-1.379,5.251
				c-0.087,1.466-0.258,2.844,2.583,2.757s4.737-0.614,5.683-1.212c0.947-0.597,0.688-1.801,2.325-3.438
				c1.637-1.637,2.153-0.946,2.238-2.325c0.087-1.378-0.258-2.842,0.774-2.583c1.034,0.259,1.982-0.948,3.101-0.432
				c1.12,0.517,1.809-1.292,3.532,0.603c1.721,1.896,3.701,3.103,4.217,4.221c0.517,1.117,2.325,1.808,1.724,3.271
				c-0.604,1.463,1.808-2.628,1.68-3.788c-0.132-1.163-2.457-2.842-2.757-3.315c-0.304-0.473-1.853-3.056-0.085-2.455
				c1.764,0.604,4.347,3.056,4.477,4.004c0.127,0.949,1.334,4.134,2.367,5.426c1.033,1.291,2.457,1.766,2.583,1.721
				c0.128-0.043-0.732-3.1-0.086-4.434c0.646-1.336,2.111-1.896,2.712-1.55c0.602,0.345,0.687,0.946,1.376,0.517
				c0.691-0.43,1.594-0.862,1.465-2.153c-0.132-1.292,0.254-2.886,0.602-3.616c0.343-0.732,1.507-3.1,2.151-2.111
				c0.646,0.991,1.336,2.194,2.325,2.238c0.169,0.008,0.304-0.023,0.423-0.072c-2.045-8.306-5.306-16.133-9.585-23.281
				C258.219,174.207,256.494,175.066,255.911,176.466z"/>
			<path fill="#3ED033" d="M238.346,171.172c-1.034,1.613-1.034,6.588,0.581,6.588c1.614,0,3.939-2.066,4.262-1.55
				c0.323,0.517,2.261,4.521,3.617,4.261c1.356-0.26,3.939-5.747,3.487-8.202c-0.45-2.455-0.258-3.101,0.323-3.811
				c0.582-0.712,0.323-3.358,2.325-3.488c0.183-0.012,0.363-0.039,0.541-0.071c-1.869-2.388-3.865-4.67-5.974-6.844
				c-1.5,2.231-2.214,4.102-3.241,6.293C242.975,167.102,239.379,169.557,238.346,171.172z"/>
			<path fill="#3ED033" d="M268.923,201.158c-1.679,0.346-7.575,0.946-7.401,3.1c0.169,2.153,2.151,5.425,5.509,4.479
				c2.125-0.599,3.333-0.73,4.035-0.562c-0.257-2.383-0.613-4.734-1.062-7.055C269.651,201.082,269.292,201.082,268.923,201.158z"/>
			<path fill="#3ED033" d="M271.543,219.123c0.011-0.572,0.021-1.144,0.021-1.718c0-1.477-0.038-2.944-0.112-4.403
				c-0.487,0.884-1.305,1.609-2.656,1.807c0,0-11.709-1.893-12.916-2.238c-2.238-0.345-1.033,2.584-1.033,3.271
				c0,0.688-9.643-1.777-9.643-3.301c0-1.522,3.616-5.653-6.374-4.104c-9.987,1.55-12.742,3.509-15.325,7.523
				c-2.584,4.016-8.783,5.393-8.44,12.797c0.346,7.404-1.376,8.094,2.928,12.054c4.305,3.958,4.305,7.4,16.533,3.958
				c12.228-3.441,4.821-0.275,6.028,1.414c1.204,1.688,3.442,0.138,3.787,1.688c0.346,1.55-2.411,4.649,0.346,7.75
				c2.754,3.1,4.304,10.849,2.754,12.915c-1.101,1.469,0.316,4.156,1.045,7.194c13.55-14.442,22.125-33.604,22.997-54.756
				L271.543,219.123z"/>
		</g>
	</g>
</g>
<g>
	<g>
		<path fill="#EA651B" d="M119.277,172.771c0.539,0.666,1.188,1.258,1.949,1.746c3.846,2.484,8.978,1.381,11.465-2.468
			c1.325-2.054,1.627-4.474,1.037-6.659c-0.2,1.367-0.688,2.719-1.488,3.955C129.428,173.704,123.786,175.13,119.277,172.771z"/>
		<path fill="#FF7E1C" d="M118.756,163.053c-1.995,3.091-1.678,7.009,0.524,9.719c4.506,2.358,10.147,0.933,12.962-3.426
			c0.801-1.236,1.287-2.586,1.488-3.955c-0.514-1.912-1.713-3.648-3.511-4.807C126.375,158.098,121.238,159.204,118.756,163.053z"/>
	</g>
	<g>
		<g>
			<g>
				<path fill="#FFFFFF" d="M128.242,167.64c0.188,0.231,0.256,0.553,0.224,0.96c-0.055,0.49-0.259,0.85-0.615,1.072
					c-0.306,0.186-0.766,0.296-1.374,0.333v0.945h-0.685v-0.934h-0.526v0.934h-0.686v-0.945h-1.346l0.138-0.807h0.141
					c0.219,0.009,0.365,0.005,0.43-0.015c0.091-0.028,0.148-0.096,0.167-0.207v-3.02c-0.028-0.148-0.106-0.241-0.237-0.277
					c-0.083-0.028-0.259-0.037-0.531-0.028h-0.106v-0.723l0.414,0.015c0.495,0,0.803-0.005,0.932-0.015v-1.098h0.686v1.083
					l0.526-0.015v-1.07h0.685v1.099c0.472,0.045,0.833,0.147,1.085,0.305c0.304,0.186,0.472,0.465,0.498,0.835
					c0.056,0.538-0.132,0.917-0.57,1.14l0,0C127.832,167.282,128.083,167.426,128.242,167.64L128.242,167.64z M125.28,167.039h0.109
					c0.392,0.01,0.693-0.013,0.905-0.067c0.37-0.092,0.559-0.293,0.559-0.599s-0.182-0.51-0.546-0.612
					c-0.202-0.056-0.503-0.079-0.904-0.067c-0.064,0.008-0.106,0.013-0.123,0.013V167.039z M125.403,169.197
					c0.476,0.009,0.83-0.016,1.074-0.07c0.431-0.111,0.65-0.334,0.65-0.668c0-0.333-0.21-0.556-0.637-0.666
					c-0.229-0.065-0.585-0.088-1.057-0.069h-0.151v1.475L125.403,169.197L125.403,169.197z"/>
			</g>
		</g>
	</g>
</g>
<g>
	<g>
		<path fill="#EA651B" d="M162.368,255.829c0.54,0.665,1.189,1.257,1.949,1.746c3.846,2.484,8.979,1.38,11.466-2.469
			c1.324-2.054,1.627-4.473,1.037-6.659c-0.2,1.368-0.688,2.719-1.488,3.956C172.519,256.761,166.877,258.188,162.368,255.829z"/>
		<path fill="#FF7E1C" d="M161.847,246.11c-1.994,3.091-1.678,7.008,0.524,9.719c4.507,2.358,10.147,0.932,12.962-3.426
			c0.801-1.237,1.288-2.587,1.488-3.956c-0.513-1.912-1.712-3.648-3.51-4.807C169.467,241.155,164.329,242.261,161.847,246.11z"/>
	</g>
	<g>
		<g>
			<g>
				<path fill="#FFFFFF" d="M171.333,250.697c0.189,0.231,0.257,0.552,0.224,0.959c-0.055,0.491-0.259,0.85-0.614,1.072
					c-0.306,0.186-0.766,0.297-1.373,0.334v0.945h-0.686v-0.934h-0.526v0.934h-0.685v-0.945h-1.347l0.139-0.807h0.14
					c0.22,0.009,0.365,0.004,0.43-0.016c0.091-0.027,0.148-0.096,0.167-0.207v-3.02c-0.027-0.147-0.106-0.24-0.237-0.277
					c-0.082-0.027-0.259-0.037-0.531-0.027h-0.107v-0.723l0.414,0.015c0.495,0,0.803-0.005,0.933-0.015v-1.099h0.685v1.084
					l0.526-0.015v-1.07h0.686v1.098c0.472,0.046,0.832,0.148,1.084,0.306c0.304,0.186,0.473,0.464,0.499,0.835
					c0.055,0.537-0.133,0.917-0.571,1.14l0,0C170.923,250.34,171.175,250.483,171.333,250.697L171.333,250.697z M168.371,250.097
					h0.109c0.392,0.01,0.693-0.013,0.906-0.067c0.37-0.092,0.559-0.294,0.559-0.6c0-0.305-0.183-0.509-0.547-0.611
					c-0.201-0.057-0.502-0.079-0.904-0.068c-0.065,0.008-0.107,0.014-0.124,0.014V250.097z M168.495,252.254
					c0.475,0.01,0.831-0.015,1.075-0.07c0.431-0.111,0.649-0.334,0.649-0.667s-0.211-0.556-0.638-0.667
					c-0.229-0.064-0.584-0.088-1.057-0.068h-0.15v1.475h0.121V252.254z"/>
			</g>
		</g>
	</g>
</g>
<g>
	<g>
		<path fill="#EA651B" d="M156.151,204.519c0.539,0.665,1.188,1.257,1.949,1.746c3.846,2.484,8.978,1.38,11.466-2.469
			c1.324-2.054,1.627-4.473,1.036-6.659c-0.2,1.368-0.688,2.719-1.488,3.956C166.302,205.45,160.66,206.877,156.151,204.519z"/>
		<path fill="#FF7E1C" d="M155.63,194.8c-1.995,3.091-1.678,7.008,0.524,9.719c4.506,2.358,10.147,0.932,12.962-3.426
			c0.801-1.237,1.287-2.587,1.488-3.956c-0.514-1.912-1.713-3.648-3.511-4.807C163.25,189.845,158.112,190.95,155.63,194.8z"/>
	</g>
	<g>
		<g>
			<g>
				<path fill="#FFFFFF" d="M165.116,199.387c0.188,0.231,0.256,0.552,0.224,0.959c-0.055,0.491-0.259,0.85-0.615,1.072
					c-0.306,0.186-0.766,0.297-1.374,0.334v0.945h-0.685v-0.934h-0.526v0.934h-0.686v-0.945h-1.346l0.138-0.807h0.141
					c0.219,0.009,0.365,0.004,0.43-0.016c0.091-0.027,0.148-0.096,0.167-0.207v-3.02c-0.028-0.147-0.106-0.24-0.237-0.277
					c-0.083-0.027-0.259-0.037-0.531-0.027h-0.106v-0.724l0.414,0.016c0.495,0,0.803-0.005,0.932-0.016v-1.098h0.686v1.084
					l0.526-0.015v-1.07h0.685v1.098c0.472,0.046,0.833,0.148,1.085,0.306c0.304,0.186,0.472,0.464,0.498,0.834
					c0.056,0.538-0.133,0.918-0.57,1.141l0,0C164.706,199.029,164.958,199.173,165.116,199.387L165.116,199.387z M162.154,198.786
					h0.109c0.392,0.01,0.693-0.013,0.905-0.067c0.37-0.092,0.559-0.294,0.559-0.6s-0.182-0.509-0.546-0.611
					c-0.202-0.057-0.502-0.079-0.904-0.068c-0.064,0.008-0.106,0.014-0.123,0.014V198.786z M162.277,200.943
					c0.476,0.01,0.83-0.015,1.074-0.07c0.431-0.111,0.65-0.334,0.65-0.667s-0.21-0.556-0.637-0.667
					c-0.229-0.064-0.585-0.088-1.057-0.068h-0.151v1.475h0.121V200.943z"/>
			</g>
		</g>
	</g>
</g>
<g>
	<g>
		<path fill="#EA651B" d="M105.344,206.785c0.54,0.666,1.189,1.258,1.949,1.746c3.846,2.484,8.979,1.381,11.466-2.469
			c1.324-2.053,1.627-4.473,1.037-6.658c-0.2,1.367-0.688,2.719-1.488,3.955C115.494,207.717,109.853,209.144,105.344,206.785z"/>
		<path fill="#FF7E1C" d="M104.822,197.066c-1.994,3.091-1.678,7.008,0.524,9.719c4.507,2.358,10.147,0.932,12.962-3.426
			c0.801-1.236,1.288-2.586,1.488-3.955c-0.513-1.912-1.712-3.648-3.51-4.807C112.442,192.111,107.305,193.217,104.822,197.066z"/>
	</g>
	<g>
		<g>
			<g>
				<path fill="#FFFFFF" d="M114.309,201.653c0.189,0.231,0.257,0.552,0.224,0.96c-0.055,0.49-0.259,0.85-0.614,1.072
					c-0.306,0.186-0.766,0.296-1.373,0.333v0.945h-0.686v-0.934h-0.526v0.934h-0.685v-0.945h-1.347l0.139-0.807h0.14
					c0.22,0.009,0.365,0.004,0.43-0.015c0.091-0.028,0.148-0.096,0.167-0.208v-3.019c-0.027-0.148-0.106-0.241-0.237-0.277
					c-0.082-0.028-0.259-0.037-0.531-0.028h-0.107v-0.723l0.414,0.015c0.495,0,0.803-0.005,0.933-0.015v-1.099h0.685v1.084
					l0.526-0.015v-1.07h0.686v1.099c0.472,0.045,0.832,0.147,1.084,0.305c0.304,0.186,0.473,0.465,0.499,0.835
					c0.055,0.538-0.133,0.917-0.571,1.14l0,0C113.898,201.296,114.15,201.439,114.309,201.653L114.309,201.653z M111.347,201.053
					h0.109c0.392,0.01,0.693-0.013,0.905-0.067c0.37-0.092,0.56-0.294,0.56-0.599c0-0.306-0.183-0.51-0.547-0.612
					c-0.201-0.056-0.502-0.079-0.903-0.067c-0.065,0.008-0.107,0.013-0.124,0.013V201.053z M111.471,203.211
					c0.475,0.009,0.83-0.016,1.074-0.071c0.43-0.11,0.649-0.333,0.649-0.667c0-0.333-0.211-0.556-0.638-0.666
					c-0.229-0.065-0.584-0.088-1.057-0.069h-0.15v1.475L111.471,203.211L111.471,203.211z"/>
			</g>
		</g>
	</g>
</g>
<g>
	<g>
		<path fill="#EA651B" d="M234.315,177.83c0.54,0.666,1.189,1.258,1.949,1.746c3.846,2.484,8.978,1.381,11.466-2.469
			c1.324-2.053,1.627-4.473,1.037-6.658c-0.2,1.367-0.688,2.719-1.488,3.955C244.466,178.762,238.824,180.188,234.315,177.83z"/>
		<path fill="#FF7E1C" d="M233.794,168.111c-1.994,3.091-1.678,7.009,0.524,9.719c4.507,2.358,10.147,0.932,12.962-3.426
			c0.801-1.236,1.288-2.586,1.488-3.955c-0.513-1.912-1.712-3.648-3.51-4.807C241.414,163.156,236.276,164.262,233.794,168.111z"/>
	</g>
	<g>
		<g>
			<g>
				<path fill="#FFFFFF" d="M243.28,172.698c0.189,0.231,0.256,0.553,0.224,0.96c-0.055,0.49-0.259,0.85-0.614,1.072
					c-0.306,0.186-0.766,0.296-1.373,0.333v0.945h-0.686v-0.934h-0.526v0.934h-0.685v-0.945h-1.347l0.139-0.807h0.14
					c0.22,0.009,0.365,0.004,0.431-0.015c0.091-0.028,0.148-0.096,0.166-0.208v-3.019c-0.027-0.148-0.106-0.241-0.237-0.277
					c-0.082-0.028-0.259-0.037-0.53-0.028h-0.107v-0.723l0.414,0.015c0.495,0,0.804-0.005,0.933-0.015v-1.098h0.685v1.083
					l0.526-0.015v-1.07h0.686v1.099c0.472,0.045,0.832,0.147,1.084,0.305c0.304,0.186,0.473,0.465,0.499,0.835
					c0.055,0.538-0.133,0.917-0.571,1.14l0,0C242.87,172.341,243.122,172.484,243.28,172.698L243.28,172.698z M240.318,172.098h0.11
					c0.391,0.01,0.693-0.013,0.905-0.067c0.37-0.092,0.56-0.294,0.56-0.599c0-0.306-0.183-0.51-0.547-0.612
					c-0.201-0.056-0.502-0.079-0.904-0.067c-0.065,0.008-0.107,0.013-0.124,0.013V172.098z M240.442,174.256
					c0.475,0.009,0.831-0.016,1.075-0.071c0.431-0.11,0.649-0.333,0.649-0.667c0-0.333-0.211-0.556-0.638-0.666
					c-0.229-0.065-0.584-0.088-1.057-0.069h-0.15v1.475L240.442,174.256L240.442,174.256z"/>
			</g>
		</g>
	</g>
</g>
<g>
	<g>
		<path fill="#EA651B" d="M233.787,246.595c0.54,0.665,1.188,1.257,1.949,1.746c3.846,2.484,8.978,1.38,11.466-2.469
			c1.324-2.054,1.627-4.473,1.037-6.659c-0.2,1.368-0.688,2.719-1.489,3.956C243.938,247.526,238.296,248.953,233.787,246.595z"/>
		<path fill="#FF7E1C" d="M233.266,236.876c-1.995,3.091-1.678,7.008,0.524,9.719c4.507,2.358,10.147,0.932,12.962-3.426
			c0.801-1.237,1.288-2.587,1.488-3.956c-0.513-1.912-1.712-3.648-3.51-4.807C240.886,231.921,235.748,233.026,233.266,236.876z"/>
	</g>
	<g>
		<g>
			<g>
				<path fill="#FFFFFF" d="M242.752,241.463c0.188,0.231,0.256,0.552,0.224,0.959c-0.055,0.491-0.259,0.85-0.614,1.072
					c-0.306,0.186-0.766,0.297-1.374,0.334v0.945h-0.685v-0.934h-0.526v0.934h-0.686v-0.945h-1.346l0.138-0.807h0.141
					c0.219,0.009,0.365,0.004,0.43-0.016c0.091-0.027,0.148-0.096,0.167-0.207v-3.02c-0.028-0.147-0.106-0.24-0.237-0.277
					c-0.083-0.027-0.259-0.037-0.531-0.027h-0.107v-0.724l0.414,0.016c0.495,0,0.803-0.005,0.932-0.016v-1.098h0.686v1.084
					l0.526-0.015v-1.07h0.685v1.098c0.472,0.046,0.833,0.148,1.084,0.306c0.304,0.186,0.473,0.464,0.499,0.834
					c0.055,0.538-0.132,0.918-0.571,1.141l0,0C242.342,241.105,242.594,241.249,242.752,241.463L242.752,241.463z M239.79,240.862
					h0.109c0.392,0.01,0.693-0.013,0.905-0.067c0.37-0.092,0.559-0.294,0.559-0.6s-0.182-0.509-0.546-0.611
					c-0.202-0.057-0.503-0.079-0.904-0.068c-0.065,0.008-0.107,0.014-0.124,0.014V240.862z M239.914,243.02
					c0.475,0.01,0.83-0.015,1.074-0.07c0.431-0.111,0.65-0.334,0.65-0.667s-0.211-0.556-0.638-0.667
					c-0.229-0.064-0.584-0.088-1.057-0.068h-0.151v1.475h0.122V243.02z"/>
			</g>
		</g>
	</g>
</g>
<g>
	<g>
		<path fill="#EA651B" d="M230.133,206.343c0.539,0.665,1.188,1.257,1.949,1.746c3.846,2.484,8.978,1.38,11.466-2.469
			c1.324-2.054,1.627-4.473,1.036-6.659c-0.2,1.368-0.688,2.719-1.488,3.955C240.283,207.274,234.642,208.701,230.133,206.343z"/>
		<path fill="#FF7E1C" d="M229.611,196.624c-1.995,3.091-1.678,7.008,0.524,9.719c4.507,2.358,10.147,0.932,12.962-3.427
			c0.801-1.236,1.287-2.586,1.488-3.955c-0.513-1.912-1.712-3.648-3.51-4.807C237.231,191.669,232.094,192.774,229.611,196.624z"/>
	</g>
	<g>
		<g>
			<g>
				<path fill="#FFFFFF" d="M239.098,201.211c0.188,0.231,0.256,0.552,0.224,0.959c-0.055,0.491-0.259,0.85-0.614,1.072
					c-0.307,0.186-0.766,0.297-1.374,0.334v0.945h-0.685v-0.934h-0.526v0.934h-0.686v-0.945h-1.346l0.138-0.807h0.14
					c0.219,0.009,0.365,0.004,0.43-0.016c0.092-0.027,0.148-0.096,0.167-0.207v-3.02c-0.028-0.147-0.106-0.24-0.237-0.277
					c-0.083-0.027-0.259-0.037-0.531-0.027h-0.106v-0.724l0.414,0.016c0.495,0,0.803-0.005,0.932-0.016v-1.098h0.686v1.084
					l0.526-0.015v-1.07h0.685v1.098c0.472,0.046,0.833,0.148,1.084,0.306c0.304,0.186,0.473,0.464,0.499,0.834
					c0.056,0.538-0.133,0.918-0.57,1.141l0,0C238.688,200.854,238.939,200.997,239.098,201.211L239.098,201.211z M236.136,200.61
					h0.109c0.392,0.01,0.694-0.013,0.905-0.068c0.371-0.091,0.559-0.293,0.559-0.599s-0.182-0.509-0.546-0.611
					c-0.202-0.057-0.503-0.079-0.904-0.068c-0.065,0.008-0.107,0.014-0.123,0.014V200.61z M236.259,202.768
					c0.475,0.009,0.83-0.015,1.074-0.07c0.431-0.111,0.65-0.334,0.65-0.667s-0.211-0.556-0.638-0.667
					c-0.229-0.064-0.584-0.088-1.057-0.069h-0.151v1.476h0.121V202.768z"/>
			</g>
		</g>
	</g>
</g>
<line fill="none" stroke="#FFFFFF" stroke-width="2" stroke-linecap="round" stroke-miterlimit="10" stroke-dasharray="4,7" x1="228.04" y1="208.909" x2="176.236" y2="243.85"/>
<line fill="none" stroke="#FFFFFF" stroke-width="2" stroke-linecap="round" stroke-miterlimit="10" stroke-dasharray="4,7" x1="229.333" y1="172.363" x2="136.667" y2="166.697"/>
<line fill="none" stroke="#FFFFFF" stroke-width="2" stroke-linecap="round" stroke-miterlimit="10" stroke-dasharray="4,7" x1="229.333" y1="176.03" x2="172.333" y2="196.363"/>
<line fill="none" stroke="#FFFFFF" stroke-width="2" stroke-linecap="round" stroke-miterlimit="10" stroke-dasharray="4,7" x1="229.333" y1="243.363" x2="179.236" y2="251.85"/>
<line fill="none" stroke="#FFFFFF" stroke-width="2" stroke-linecap="round" stroke-miterlimit="10" stroke-dasharray="4,7" x1="159.569" y1="244.184" x2="115.211" y2="211.473"/>
<line fill="none" stroke="#FFFFFF" stroke-width="2" stroke-linecap="round" stroke-miterlimit="10" stroke-dasharray="4,7" x1="118" y1="192.03" x2="122.333" y2="178.03"/>
<line fill="none" stroke="#FFFFFF" stroke-width="2" stroke-linecap="round" stroke-miterlimit="10" stroke-dasharray="4,7" x1="153.333" y1="192.697" x2="134" y2="174.697"/>
<line fill="none" stroke="#FFFFFF" stroke-width="2" stroke-linecap="round" stroke-miterlimit="10" stroke-dasharray="4,7" x1="167.333" y1="238.697" x2="164" y2="209.03"/>
</svg>
