<?xml version="1.0" encoding="utf-8"?>
<!-- Generator: Adobe Illustrator 16.0.4, SVG Export Plug-In . SVG Version: 6.00 Build 0)  -->
<!DOCTYPE svg PUBLIC "-//W3C//DTD SVG 1.1//EN" "http://www.w3.org/Graphics/SVG/1.1/DTD/svg11.dtd">
<svg version="1.1" id="Layer_1" xmlns="http://www.w3.org/2000/svg" xmlns:xlink="http://www.w3.org/1999/xlink" x="0px" y="0px"
	 width="300px" height="225px" viewBox="37.5 75 300 225" enable-background="new 37.5 75 300 225" xml:space="preserve">
<path fill="#FFFFFF" d="M137.76,206.745c-0.392,0-0.734-0.289-0.791-0.688c-0.062-0.438,0.244-0.841,0.683-0.903l3.962-0.554
	c0.434-0.065,0.84,0.242,0.903,0.682c0.062,0.438-0.244,0.841-0.682,0.903l-3.962,0.555
	C137.836,206.744,137.798,206.745,137.76,206.745z M148.061,205.303c-0.393,0-0.735-0.289-0.792-0.688
	c-0.062-0.438,0.244-0.843,0.682-0.903l3.961-0.555c0.434-0.065,0.842,0.244,0.903,0.682c0.062,0.438-0.244,0.842-0.682,0.903
	l-3.962,0.555C148.135,205.301,148.098,205.303,148.061,205.303z M158.36,203.861c-0.393,0-0.735-0.289-0.791-0.689
	c-0.062-0.438,0.244-0.842,0.682-0.903l3.961-0.555c0.433-0.065,0.841,0.242,0.903,0.683c0.062,0.438-0.244,0.841-0.682,0.902
	l-3.962,0.555C158.435,203.857,158.397,203.861,158.36,203.861z M209.789,196.615c-0.393,0-0.736-0.289-0.791-0.688
	c-0.062-0.438,0.243-0.843,0.682-0.903l3.96-0.555c0.432-0.065,0.843,0.244,0.904,0.683c0.061,0.438-0.245,0.842-0.683,0.903
	l-3.962,0.554C209.864,196.612,209.826,196.615,209.789,196.615z M220.088,195.173c-0.393,0-0.734-0.288-0.791-0.688
	c-0.062-0.438,0.244-0.842,0.682-0.903l3.961-0.555c0.432-0.066,0.842,0.242,0.904,0.682c0.062,0.438-0.244,0.842-0.682,0.903
	l-3.963,0.555C220.163,195.17,220.125,195.173,220.088,195.173z M230.281,193.846c-0.392,0-0.734-0.289-0.79-0.689
	c-0.062-0.438,0.244-0.841,0.682-0.903l3.962-0.554c0.431-0.065,0.842,0.243,0.903,0.682c0.062,0.438-0.244,0.841-0.682,0.903
	l-3.963,0.555C230.356,193.844,230.319,193.846,230.281,193.846z"/>
<path fill="#232323" d="M281.253,179.75c-1.37-1.038-2.234-2.651-1.709-3.819c0.521-1.162,2.648-1.518,4.585-0.501
	c5.251,2.75,9.586,7.177,12.273,12.698c0.987,2.062-0.348,4.198-2.632,4.632c-2.295,0.425-4.306-0.426-4.748-1.913
	C287.766,186.589,285.103,182.646,281.253,179.75z"/>
<path fill="#232323" d="M276.976,188.934c-1.683-0.294-3.192-1.338-3.254-2.615c-0.065-1.267,1.663-2.559,3.852-2.535
	c5.931,0.064,11.803,2.019,16.707,5.723c1.815,1.377,1.608,3.883-0.238,5.312c-1.845,1.438-4.024,1.588-5.097,0.469
	C285.885,192.066,281.726,189.766,276.976,188.934z"/>
<path fill="#232323" d="M101.908,194.396c-2.443-0.471-5.027,0.166-5.768,1.859c-0.75,1.688,0.922,4.336,3.902,5.439
	c8.063,2.989,17.049,3.377,25.608,0.903c3.187-0.925,4.203-4.44,2.441-7.324c-1.761-2.892-4.626-4.237-6.674-3.271
	C115.606,194.779,108.771,195.738,101.908,194.396z"/>
<path fill="#232323" d="M105.004,199.892c-2.323-0.894-4.979-0.723-6.006,0.813c-1.032,1.53,0.145,4.431,2.881,6.042
	c7.413,4.365,16.186,6.333,25.048,5.406c3.299-0.347,4.919-3.628,3.695-6.778c-1.223-3.156-3.808-4.987-5.992-4.396
	C118.42,202.685,111.52,202.424,105.004,199.892z"/>
<path fill="#232323" d="M103.874,208.334c-2.321-0.895-4.977-0.723-6.005,0.814c-1.033,1.529,0.144,4.432,2.881,6.041
	c7.411,4.365,16.186,6.333,25.049,5.407c3.3-0.347,4.919-3.629,3.695-6.779c-1.225-3.156-3.808-4.986-5.992-4.397
	C117.292,211.129,110.394,210.867,103.874,208.334z"/>
<path fill="#232323" d="M108.155,181.247c-0.182-2.489,0.958-4.969,3.082-5.5c2.096-0.519,5.003,1.472,5.838,4.566
	c2.333,8.38,1.448,17.331-2.777,25.517c-1.583,3.047-5.894,3.61-9.051,1.497c-3.17-2.118-4.322-5.128-2.87-7.027
	C106.534,194.881,108.71,188.221,108.155,181.247z"/>
<g>
	<g>
		<g>
			<path fill="#FFCF15" d="M244.456,169.02l14.525,2.272c0.401,0.063,0.853,0.094,1.331,0.094c1.702,0,3.62-0.376,4.883-0.958
				l23.202-10.679c1.468-0.675,1.68-1.474,1.6-2.024c-0.079-0.551-0.512-1.255-2.11-1.483l-9.114-1.303
				c-1.791-0.256-4.594,0.045-6.227,0.626l-28.402,10.124c-1.24,0.442-1.829,1.063-1.758,1.846
				C242.46,168.317,243.156,168.817,244.456,169.02z"/>
		</g>
		<g>
			<path fill="#FFCF15" d="M257.437,173.595l-20.121-3.147c-2.097-0.329-4.315,1.029-5.01,2.982l-3.053,8.582
				c-0.355,1-0.292,2.066,0.18,3.002c0.472,0.937,1.289,1.622,2.303,1.932l26.881,8.208c0.363,0.112,0.723,0.168,1.071,0.168
				c0.809,0,1.537-0.305,2.052-0.859c0.56-0.604,0.827-1.458,0.754-2.41l-1.066-14.137
				C261.268,175.818,259.516,173.92,257.437,173.595z"/>
		</g>
		<g>
			<path fill="#FFCF15" d="M300.768,166.068l-1.566-4.073c-0.768-1.994-3.14-2.968-5.092-2.068l-26.933,12.397
				c-1.862,0.858-3.201,3.131-3.049,5.176l1.027,13.596c0.134,1.797,1.287,2.601,2.368,2.601c0.593,0,1.218-0.226,1.812-0.649
				l29.739-21.32C300.775,170.506,301.52,168.021,300.768,166.068z"/>
		</g>
	</g>
	<g>
		<path fill="#FFFFFF" d="M289.483,154.4l2.683,1.067l1.116,2.559c0.089,0.17,0.306,0.239,0.482,0.155
			c0.072-0.033,0.13-0.088,0.163-0.155l1.117-2.559l2.684-1.067c0.175-0.085,0.247-0.292,0.159-0.461
			c-0.034-0.066-0.091-0.12-0.159-0.154l-2.684-1.066l-1.117-2.559c-0.089-0.17-0.306-0.239-0.482-0.155
			c-0.07,0.034-0.126,0.088-0.163,0.155l-1.116,2.559l-2.683,1.066c-0.179,0.085-0.249,0.292-0.16,0.461
			C289.357,154.313,289.414,154.366,289.483,154.4L289.483,154.4z"/>
	</g>
</g>
<path fill="#232323" d="M289.316,173.95c-1.026-1.374-1.41-3.164-0.586-4.142c0.816-0.96,2.965-0.728,4.541,0.788
	c4.282,4.105,7.224,9.555,8.266,15.608c0.383,2.258-1.492,3.939-3.811,3.712c-2.327-0.218-4.016-1.593-4.031-3.148
	C293.665,182.333,292.209,177.807,289.316,173.95z"/>
<circle fill="#3ED033" cx="187.819" cy="198.258" r="19.679"/>
<g>
	<g>
		<g>
			<path fill="#FFFFFF" d="M198.4,189.309c0.183,0,0.328,0.072,0.437,0.219l0.655,0.599c0.109,0.146,0.164,0.312,0.164,0.494
				c0,0.182-0.055,0.327-0.164,0.437l-16.384,16.384c-0.146,0.146-0.302,0.219-0.463,0.219c-0.167,0-0.319-0.073-0.466-0.219
				l-6.5-6.501c-0.109-0.109-0.163-0.255-0.163-0.438c0-0.182,0.053-0.344,0.163-0.488l0.655-0.604
				c0.11-0.146,0.255-0.217,0.437-0.217s0.328,0.072,0.437,0.217l5.407,5.411l15.347-15.293
				C198.072,189.381,198.217,189.309,198.4,189.309z"/>
		</g>
	</g>
</g>
<path fill="#232323" d="M98.354,192.932c-22.311,0.299-42.038-10.095-54.401-28.682c-1.661-2.454-3.916-4.307-6.454-5.383v44.157
	c15.351,13.212,34.863,20.305,56.165,20.016c10.37-0.13,19.019-8.806,18.8-16.888C112.263,198.002,105.789,192.894,98.354,192.932z"
	/>
<path fill="#232323" d="M337.5,201.146c-12.308-1.835-23.399-8.108-31.711-18.197c-3.812-4.563-10.284-5.875-15.358-1.788
	c-5.046,4.045-5.882,13.807-0.603,20.207c12.265,14.9,29.116,23.505,47.672,24.664V201.146z"/>
</svg>
