<?xml version="1.0" encoding="utf-8"?>
<!-- Generator: Adobe Illustrator 16.0.4, SVG Export Plug-In . SVG Version: 6.00 Build 0)  -->
<!DOCTYPE svg PUBLIC "-//W3C//DTD SVG 1.1//EN" "http://www.w3.org/Graphics/SVG/1.1/DTD/svg11.dtd">
<svg version="1.1" id="Layer_1" xmlns="http://www.w3.org/2000/svg" xmlns:xlink="http://www.w3.org/1999/xlink" x="0px" y="0px"
	 width="300px" height="225px" viewBox="0 0 300 225" enable-background="new 0 0 300 225" xml:space="preserve">
<ellipse opacity="0.2" fill="#232323" enable-background="new    " cx="149.751" cy="142.032" rx="35.557" ry="5.74"/>
<g>
	<g>
		<path fill="#232323" d="M148.612,105.43c-0.129,1.023-3.459,29.922-8.373,33.984c-4.916,4.056-7.501,2.698-8.505,1.623
			c-1.05-1.123-2.375-3.149,0.071-5.439c1.966-1.842,3.337-9.983,1.348-22.684L148.612,105.43z"/>
		<g>
			<path fill="#232323" d="M128.259,137.897c-0.616,0.176-1.297,0.073-1.529-0.343c-0.23-0.417,0.136-1.14,0.876-1.49
				c2.007-0.96,4.307-1.272,6.568-0.839c0.841,0.165,1.183,1.045,0.801,1.826c-0.386,0.788-1.091,1.198-1.638,1.001
				C131.774,137.477,129.992,137.389,128.259,137.897z"/>
			<path fill="#232323" d="M129.229,141.489c-0.545,0.342-1.227,0.433-1.564,0.095c-0.339-0.336-0.185-1.131,0.428-1.676
				c1.661-1.477,3.783-2.415,6.077-2.626c0.853-0.074,1.428,0.676,1.275,1.535c-0.15,0.86-0.714,1.452-1.297,1.412
				C132.489,140.108,130.753,140.521,129.229,141.489z"/>
			<path fill="#232323" d="M131.887,144.204c-0.326,0.551-0.892,0.942-1.348,0.796c-0.452-0.146-0.679-0.922-0.38-1.687
				c0.805-2.072,2.269-3.874,4.215-5.104c0.724-0.459,1.577-0.052,1.832,0.784c0.258,0.836,0.027,1.621-0.509,1.849
				C134.163,141.491,132.805,142.648,131.887,144.204z"/>
		</g>
	</g>
	<g>
		<path fill="#232323" d="M151.622,105.162c0.131,1.021,3.567,29.91,8.498,33.951c4.93,4.039,7.512,2.672,8.51,1.593
			c1.043-1.129,2.364-3.157-0.092-5.438c-1.974-1.835-3.374-9.973-1.432-22.681L151.622,105.162z"/>
		<g>
			<path fill="#232323" d="M171.247,137.888c0.616,0.175,1.297,0.068,1.524-0.349c0.23-0.417-0.139-1.138-0.881-1.486
				c-2.01-0.954-4.311-1.258-6.57-0.816c-0.841,0.168-1.182,1.05-0.794,1.83c0.388,0.785,1.096,1.194,1.642,0.994
				C167.729,137.481,169.511,137.386,171.247,137.888z"/>
			<path fill="#232323" d="M170.289,141.482c0.545,0.341,1.229,0.429,1.564,0.09c0.337-0.336,0.182-1.133-0.435-1.674
				c-1.666-1.47-3.792-2.401-6.085-2.604c-0.854-0.07-1.427,0.681-1.272,1.539c0.157,0.861,0.722,1.449,1.304,1.409
				C167.023,140.117,168.761,140.521,170.289,141.482z"/>
			<path fill="#232323" d="M167.64,144.207c0.329,0.551,0.897,0.941,1.351,0.791c0.453-0.146,0.677-0.925,0.375-1.688
				c-0.812-2.069-2.282-3.865-4.232-5.087c-0.728-0.456-1.578-0.047-1.83,0.789c-0.256,0.837-0.021,1.62,0.518,1.848
				C165.354,141.505,166.717,142.654,167.64,144.207z"/>
		</g>
	</g>
</g>
<path fill="#444444" d="M123.85,90.134c1.065-9.967,5.202-22.13,13.075-26.522c3.375-1.882,7.304-3.245,12.719-4.159
	c1.286,0.213,2.483,0.452,3.614,0.717c0.197,0.046,0.388,0.095,0.58,0.143c0.335,0.083,0.666,0.168,0.989,0.256
	c0.206,0.055,0.408,0.112,0.608,0.169c0.324,0.094,0.643,0.191,0.957,0.291c0.162,0.052,0.331,0.102,0.492,0.155
	c0.451,0.149,0.892,0.305,1.32,0.466c0.127,0.047,0.246,0.098,0.371,0.146c0.321,0.125,0.641,0.252,0.95,0.385
	c0.146,0.062,0.289,0.125,0.433,0.189c0.296,0.131,0.588,0.267,0.874,0.405c0.122,0.059,0.247,0.117,0.366,0.178
	c0.399,0.198,0.791,0.401,1.175,0.613c8.448,4.672,12.646,18.263,13.362,28.547c0.063,1.495,0.094,2.929,0.089,4.276
	c-0.005,3.48-0.218,6.37-0.633,8.117c-0.02,0.081-0.056,0.16-0.08,0.24c-2.1,9.565-12.665,16.856-25.408,16.877
	c-14.267,0.028-25.85-9.063-25.87-20.307c0-0.103,0.007-0.205,0.008-0.308C123.622,98.106,123.616,94.279,123.85,90.134z"/>
<path fill="#FFFFFF" d="M130.604,62.247c3.262-3.726,7.5-5.558,15.85-5.923c0.131-0.006,0.268-0.01,0.4-0.015
	c0.42-0.016,0.848-0.03,1.289-0.039c0.437-0.009,0.881-0.015,1.34-0.017c0.053,0,0.101-0.002,0.154-0.002h0.01
	c0.016,0,0.031,0,0.049,0c0.009,0,0.017,0,0.027,0h0.008c0.03,0,0.059,0.001,0.089,0.001c0.483,0,0.954,0.005,1.414,0.014
	c0.525,0.008,1.032,0.022,1.528,0.042c0.048,0.001,0.098,0.003,0.146,0.005c8.358,0.333,12.604,2.151,15.879,5.866
	c4.333,4.914,6.542,18.983,6.999,29.936c-0.717-10.284-4.916-23.875-13.362-28.547c-3.38-1.87-7.315-3.218-12.733-4.112
	c-5.414,0.915-9.34,2.276-12.717,4.16c-8.429,4.701-12.576,18.309-13.254,28.595C124.134,81.255,126.292,67.177,130.604,62.247z"/>
<g>
	<path fill="#232323" d="M135.148,64.508c2.187-0.588,4.491,0.417,5.18,2.8c0.688,2.366-1.183,5.594-4.231,6.436
		c-8.66,2.4-17.407,0.37-24.124-5.606c-2.363-2.099-2.625-5.821-0.963-7.639c1.67-1.836,4.181-1.722,5.886-0.232
		C121.979,64.786,128.594,66.324,135.148,64.508z"/>
	<path fill="#232323" d="M107.429,60.604c-0.462-0.466-1.115-0.712-1.529-0.457c-0.409,0.252-0.445,1.079,0.039,1.754
		c1.3,1.848,3.183,3.267,5.404,4.005c0.829,0.273,1.57-0.334,1.618-1.22c0.05-0.891-0.373-1.605-0.957-1.7
		C110.335,62.721,108.712,61.915,107.429,60.604z"/>
	<path fill="#232323" d="M110.068,57.899c-0.312-0.574-0.869-0.992-1.337-0.859c-0.467,0.129-0.726,0.909-0.452,1.698
		c0.736,2.134,2.155,4.021,4.082,5.345c0.719,0.492,1.602,0.113,1.894-0.726c0.292-0.838,0.087-1.644-0.449-1.898
		C112.273,60.741,110.939,59.515,110.068,57.899z"/>
	<path fill="#232323" d="M111.47,56.508c-0.459-0.459-0.701-1.117-0.442-1.525c0.256-0.41,1.077-0.436,1.755,0.05
		c1.837,1.317,3.241,3.212,3.958,5.439c0.268,0.828-0.348,1.562-1.233,1.604c-0.889,0.044-1.601-0.384-1.69-0.97
		C113.565,59.434,112.77,57.806,111.47,56.508z"/>
</g>
<g>
	<path fill="#232323" d="M164.852,64.508c-2.187-0.588-4.491,0.417-5.18,2.8c-0.689,2.366,1.183,5.594,4.231,6.436
		c8.661,2.4,17.407,0.37,24.123-5.606c2.362-2.099,2.625-5.821,0.963-7.639c-1.671-1.836-4.181-1.722-5.886-0.232
		C178.021,64.786,171.406,66.324,164.852,64.508z"/>
	<path fill="#232323" d="M192.572,60.604c0.461-0.466,1.113-0.712,1.528-0.457c0.409,0.252,0.444,1.079-0.039,1.754
		c-1.3,1.848-3.182,3.267-5.403,4.005c-0.829,0.273-1.57-0.334-1.618-1.22c-0.05-0.891,0.372-1.605,0.957-1.7
		C189.665,62.721,191.287,61.915,192.572,60.604z"/>
	<path fill="#232323" d="M189.932,57.899c0.312-0.574,0.87-0.992,1.338-0.859c0.467,0.129,0.726,0.909,0.452,1.698
		c-0.737,2.134-2.155,4.021-4.083,5.345c-0.719,0.492-1.602,0.113-1.894-0.726c-0.292-0.838-0.087-1.644,0.448-1.898
		C187.726,60.741,189.061,59.515,189.932,57.899z"/>
	<path fill="#232323" d="M188.529,56.508c0.46-0.459,0.702-1.117,0.442-1.525c-0.256-0.41-1.077-0.436-1.755,0.05
		c-1.837,1.317-3.24,3.212-3.958,5.439c-0.269,0.828,0.348,1.562,1.233,1.604c0.889,0.044,1.601-0.384,1.69-0.97
		C186.436,59.434,187.23,57.806,188.529,56.508z"/>
</g>
<path fill="#FFFFFF" d="M149.795,23.348c4.612-0.009,9.991-1.828,13.039-2.605c3.572-0.91,5.269-0.94,7.904-0.945
	c7.979-0.015,10.438,4.165,11.11,5.87c-5.263-16.162-21.91-18.4-31.745-18.383l-0.811,0.002
	c-9.833,0.018-26.473,2.317-31.678,18.499c0.667-1.708,3.111-5.896,11.089-5.913c2.634-0.005,4.333,0.02,7.908,0.917
	c3.053,0.766,8.437,2.565,13.049,2.557L149.795,23.348L149.795,23.348z"/>
<path fill="#444444" d="M117.644,25.802l-0.028-0.015c0.667-1.708,3.112-5.897,11.089-5.913c2.634-0.004,4.333,0.02,7.908,0.917
	c3.053,0.766,8.437,2.565,13.05,2.557h0.132c4.612-0.009,9.99-1.828,13.039-2.605c3.572-0.91,5.269-0.94,7.904-0.945
	c7.979-0.015,10.438,4.165,11.111,5.87l-0.028,0.015c1.69,1.614,2.819,5.862,2.681,10.827c-0.175,6.295-2.319,11.345-4.788,11.277
	c-0.048-0.001-0.093-0.017-0.139-0.021c-5.717,11.551-21.435,16.933-29.686,16.948c-8.25,0.015-24.102-5.308-29.903-16.84
	c-0.052,0.006-0.101,0.023-0.153,0.025c-2.466,0.075-4.631-4.966-4.829-11.261C114.847,31.673,115.958,27.422,117.644,25.802z"/>
<path fill="#7F7F7F" d="M149.825,56.376c4.168-0.008,13.015-3.887,12.997-12.368c-0.016-8.479-9.781-9.135-13.068-9.128
	c-3.288,0.005-13.061,0.696-13.045,9.176C136.726,52.538,145.653,56.383,149.825,56.376z"/>
<path fill="#232323" d="M149.56,37.104c-1.812,0.004-4.488,1.9-4.8,4.107c-0.31,2.207,4.931,2.118,4.931,2.118h0.149
	c0,0,5.24,0.069,4.922-2.138c-0.318-2.205-3.001-4.091-4.815-4.087H149.56z"/>
<g>
	<circle fill="#232323" cx="163.114" cy="30.651" r="1.602"/>
	<path fill="#232323" d="M134.769,30.703c0.002,0.886,0.719,1.6,1.605,1.599c0.882-0.001,1.598-0.719,1.598-1.604
		c-0.001-0.885-0.72-1.602-1.604-1.6C135.482,29.1,134.767,29.818,134.769,30.703z"/>
</g>
<path fill="#232323" d="M121.046,29.397c-2.034,0.08-3.678,3.916-4.298,9.331c-0.073-0.68-0.124-1.388-0.144-2.121
	c-0.133-4.948,1.067-9.008,2.676-9.072c0.686-0.026,1.332,0.68,1.861,1.875C121.11,29.409,121.078,29.397,121.046,29.397z"/>
<path fill="#232323" d="M178.433,29.292c2.032,0.072,3.692,3.902,4.334,9.315c0.07-0.681,0.118-1.389,0.134-2.123
	c0.113-4.948-1.101-9.004-2.708-9.061c-0.683-0.022-1.329,0.686-1.854,1.882C178.369,29.304,178.4,29.292,178.433,29.292z"/>
<path fill="none" stroke="#7F7F7F" stroke-width="1.2608" stroke-linecap="round" stroke-miterlimit="10" d="M166.163,25.921
	c-0.415-0.383-0.897-0.678-1.418-0.875c-0.519-0.196-1.075-0.292-1.639-0.277c-0.564,0.014-1.135,0.138-1.682,0.386
	c-0.547,0.247-1.017,0.594-1.399,1.01"/>
<path fill="none" stroke="#7F7F7F" stroke-width="1.2608" stroke-linecap="round" stroke-miterlimit="10" d="M139.355,25.921
	c-0.415-0.383-0.897-0.678-1.417-0.875c-0.52-0.196-1.078-0.292-1.641-0.277c-0.563,0.014-1.134,0.138-1.681,0.386
	c-0.546,0.248-1.017,0.594-1.4,1.01"/>
<path fill="none" stroke="#232323" stroke-width="1.1422" stroke-linecap="round" stroke-miterlimit="10" d="M143.354,47.858
	c0.349,0.831,0.857,1.582,1.483,2.211c0.626,0.631,1.377,1.139,2.207,1.493c0.828,0.353,1.742,0.549,2.701,0.55
	c0.959,0.001,1.872-0.19,2.706-0.542c0.832-0.351,1.58-0.856,2.21-1.483c0.63-0.627,1.14-1.376,1.492-2.206"/>
<ellipse opacity="0.3" fill="#232323" enable-background="new    " cx="150" cy="209.855" rx="54.886" ry="8.858"/>
<g>
	<circle fill="#3050C4" cx="149.44" cy="136.524" r="72"/>
	<path fill="none" d="M219.19,124.524c1.104,0.447,1.932-0.415,3.135-1.48c1.205-1.066-2.549-2.379-4.442-3.066
		c-1.57-0.569-1.746-0.005-2.212,0.184c0.271,1.102,0.517,2.213,0.732,3.333C217.407,123.603,218.332,124.177,219.19,124.524z"/>
	<path fill="none" d="M217.883,129.589c-0.113-0.216-0.305-0.372-0.632-0.45c0.138,1.278,0.245,2.565,0.311,3.862
		C218.278,131.703,218.083,129.969,217.883,129.589z"/>
	<g>
		<path fill="#3050C4" d="M125.077,186.723c-1.979-1.781-7.83-8.019-8.221-13.014c-0.302-3.638,2.053-5.872,3.474-7.303
			c0.466-0.402,0.934-0.806,0.954-1.026c0.042-0.448-2.766-2.54-4.786-3.876c-0.383-0.49-1-0.778-1.596-1.292
			c-2.021-1.334-2.724-2.984-3.256-4.165c-0.17-0.469-0.342-0.937-0.554-0.958c-0.424-0.044-1.021-0.557-1.829-1.091
			c-1.616-1.068-4.232-2.915-6.59-2.935c-3.824-0.395-7.187-5.699-7.337-6.391c-0.15-0.69-1.519-6.691-2.095-7.426
			c-0.765-0.98-5.983-9.406-6.879-11.301c-1.086-2.14-0.655-11.332,2.417-16.648c1.225-2.125,1.553-4.639,1.534-6.804
			c-5.778,10.017-9.083,21.637-9.083,34.029c0,28.688,17.713,53.238,42.799,63.315c0.111-0.393,0.23-0.75,0.345-1.021
			C125.39,197.121,126.948,187.368,125.077,186.723z"/>
		<path fill="#3050C4" d="M198.354,177.429c1.24-1.652,0-7.853-2.203-10.332c-2.205-2.481,0-4.96-0.277-6.2
			c-0.275-1.24-2.066,0-3.029-1.35c-0.966-1.352,4.959-3.885-4.822-1.132c-9.782,2.754-9.782,0-13.227-3.167
			c-3.443-3.167-2.066-3.719-2.342-9.643c-0.275-5.923,4.685-7.024,6.752-10.237c2.066-3.212,4.27-4.779,12.26-6.019
			c7.991-1.24,5.1,2.064,5.1,3.283s7.714,3.191,7.714,2.641c0-0.55-0.965-2.893,0.826-2.616c0.966,0.276,10.333,1.789,10.333,1.789
			c1.081-0.157,1.735-0.737,2.125-1.445c-0.066-1.297-0.172-2.584-0.31-3.862c-0.562-0.134-1.528-0.028-3.229,0.45
			c-2.687,0.756-4.271-1.86-4.407-3.584c-0.14-1.723,4.579-2.203,5.921-2.479c0.295-0.061,0.584-0.061,0.865-0.031
			c-0.218-1.12-0.461-2.231-0.732-3.333c-0.096,0.039-0.203,0.064-0.338,0.058c-0.792-0.034-1.344-0.997-1.86-1.79
			c-0.515-0.791-1.447,1.104-1.722,1.688c-0.277,0.584-0.586,1.859-0.48,2.894c0.103,1.033-0.619,1.378-1.172,1.722
			c-0.552,0.344-0.621-0.138-1.102-0.414s-1.652,0.172-2.169,1.241c-0.518,1.066,0.171,3.512,0.068,3.547
			c-0.101,0.035-1.239-0.344-2.066-1.377c-0.826-1.033-1.792-3.581-1.894-4.341c-0.104-0.759-2.169-2.72-3.582-3.203
			c-1.414-0.481-0.173,1.585,0.069,1.964c0.239,0.379,2.1,1.722,2.205,2.652c0.103,0.928-1.826,4.2-1.345,3.03
			c0.482-1.171-0.966-1.723-1.379-2.616c-0.413-0.896-1.997-1.861-3.373-3.378c-1.379-1.517-1.93-0.068-2.826-0.481
			c-0.894-0.414-1.653,0.551-2.48,0.345c-0.825-0.207-0.551,0.964-0.619,2.066c-0.068,1.104-0.48,0.551-1.791,1.86
			c-1.31,1.31-1.102,2.272-1.859,2.75c-0.757,0.479-2.273,0.9-4.547,0.971c-2.273,0.068-2.136-1.033-2.065-2.207
			c0.068-1.172,0.412-2.753,1.104-4.199c0.687-1.448,4.339-0.758,5.097-0.966c0.756-0.21,0.274-1.381,0.274-2.792
			s-1.722-2.137-2.443-2.617c-0.724-0.483,0.724-0.552,2.377-0.965c1.652-0.414,2.687-1.24,3.1-2.102
			c0.414-0.86,2.412-2.583,3.342-3.238c0.929-0.656,1.793-0.895,2.48-1.378c0.691-0.483,1.979,0.827,1.979,0.827l6.098-0.981
			c0,0,1.188-0.674,1.396-1.81c0.206-1.136,0.206-1.289,0.983-3.15c0.466-1.119,1.847-1.807,2.874-2.235
			c-0.159-0.266-0.321-0.531-0.483-0.795c-0.543,0.027-1.188,0.099-1.927,0.24c-2.168,0.414-1.756-1.187-2.168-2.118
			c-0.371-0.836-0.071-1.264,0.853-2.91c-0.358-0.483-0.721-0.962-1.091-1.436c-0.143,0.026-0.287,0.048-0.433,0.057
			c-1.602,0.104-1.396,2.221-1.86,2.791c-0.465,0.568-0.618,1.084-0.259,3.049c0.362,1.964-1.704,6.354-2.789,6.562
			c-1.085,0.209-2.634-2.995-2.894-3.409c-0.258-0.414-2.118,1.24-3.409,1.24c-1.292,0-1.292-3.979-0.466-5.27
			c0.826-1.292,3.703-3.256,4.737-5.459c0.821-1.753,1.393-3.25,2.593-5.035c-12.397-12.782-29.752-20.729-48.966-20.729
			c-11.613,0-22.545,2.905-32.117,8.023c1.507,0.338,3.239,0.57,4.525,0.553c2.358,0.018,5.333,0.326,8.67,1.346
			c1.041,0.333,1.891,0.421,2.527,0.486c1.488,0.154,2.551,0.264,3.233,2.136c0.808,0.535,3.062,1.668,3.15,3.029
			c-0.043,0.447-0.318,1.094-0.997,1.476c-0.7,0.603-4.988,2.864-6.75,3.357c-1.104,0.337-6.538,3.38-7.026,4.006
			c-0.021,0.223-0.209,2.231-0.375,4.017c1.233,0.579,4.295,2.248,4.827,3.429c0.192,0.244,0.405,0.266,1.042,0.332
			c0.426,0.044,0.87-0.135,1.254,0.354c0.192,0.246,0.383,0.491,0.342,0.938l-0.042,0.447c-0.272,2.9,0.069,3.838,0.261,4.083
			c0.254-0.424,0.337-1.317,0.613-1.965c0.379-1.762,0.738-3.303,2.013-3.172c0.424,0.045,1.125-0.559,1.654-1.631
			c0.487-0.626,0.317-1.093,0.317-1.093c-0.787-0.758-0.429-2.297,1.035-4.174c0.02-0.223,0.233-0.202,0.254-0.424
			c0.762-1.273,1.737-2.525,2.821-2.638c0.424,0.044,0.849,0.087,1.232,0.578c0.789,0.758,1.747,1.983,2.512,2.963
			c0.575,0.735,0.958,1.226,1.15,1.471c0.403,0.267,0.554,0.958,0.492,1.627c-0.021,0.223,0.148,0.692,0.127,0.915
			c0.892-0.357,2.443-0.875,3.25-0.34c0.404,0.268,0.596,0.513,0.768,0.981c0.169,0.469,0.107,1.138,0.258,1.83
			c0.127,0.915,0.386,2.743,0.77,3.233c0.574,0.735,1.554,1.738,2.065,3.143c-0.021,0.223,0.169,0.469,0.362,0.714
			c0.363,0.713,0.723,1.426,0.449,2.074c-0.253,0.423-0.721,0.826-1.613,1.185c-1.337,0.538-2.613,0.405-3.696,0.518
			c-1.083,0.115-2.146,0.005-2.825,0.384c-1.357,0.761-1.866,1.611-1.375,3.238c-0.021,0.223,0.171,0.469,0.15,0.691
			c0.129,0.914,0.491,1.627,0.002,2.254c-0.274,0.646-0.935,0.805-2.017,0.917c-0.212-0.022-0.658,0.157-1.083,0.114
			c-1.72,0.047-4.524,0.208-4.608,1.1c-0.146,1.562-1.484,2.1-2.375,2.459c-0.233,0.2-0.679,0.38-0.912,0.582
			c-0.235,0.201-0.468,0.402-0.913,0.581c-0.914,0.583-3.629,2.104-3.693,2.774c0.279,1.605-1.905,4.31-3.475,5.048
			c-1.125,0.559-2.864,3.084-3.139,3.731c-0.021,0.223-0.042,0.447-0.083,0.892c-0.104,1.117-0.251,2.68-1.334,2.79
			c-0.637-0.065-1.192-1.021-1.937-2.225c-0.362-0.715-1.108-1.918-1.533-1.963c-0.638-0.065-1.7-0.175-2.57-0.039
			c-1.083,0.113-2.167,0.227-3.017,0.14c-2.762-0.285-4.949,0.164-4.991,0.61c-0.254,0.424-0.529,1.072-0.825,1.941
			c-0.805,1.722-2.435,5.383-1.436,6.162c1.808,1.314,3.232,2.137,4.083,2.225c0.212,0.021,1.125-0.56,1.804-0.941
			c1.379-0.983,2.738-1.746,3.566-1.434c0.213,0.022,0.405,0.266,0.597,0.512c0.36,0.715-0.167,1.785-0.952,3.281
			c-0.233,0.203-0.508,0.85-0.528,1.071c0.19,0.247,0.828,0.313,1.232,0.58c1.87,0.644,2.892,1.2,3.062,1.669
			c0.192,0.245,0.341,0.935,0.237,2.051c-0.063,0.669-0.018,2.479,0.174,2.722c1.02,0.556,4.975,1.864,5.631,1.708
			c0.213,0.022,0.659-0.156,1.104-0.337c2.208-0.671,4.204-1.368,5.417-0.566c1.425,0.821,3.316,1.244,4.59,1.377
			c1.488,0.152,6.27,1.773,7.378,3.69c0.917,1.672,2.999,2.338,3.424,2.383c0.85,0.088,3.937,3.786,3.812,5.124
			c0.149,0.689,3.359,3.051,4.21,3.139c0.657-0.158,4.654,0.706,5.187,1.888l0.191,0.245c0.555,0.958,1.811,3.567-0.014,4.729
			c-0.911,0.581-2.926,3.753-4.239,6.321c-0.528,1.072-8.612,7.221-9.738,7.782c-0.892,0.356-3.225,2.368-3.967,3.418
			c-0.508,0.849-1.634,1.41-2.738,1.746c-0.445,0.18-0.892,0.359-1.125,0.56c-0.252,0.424-0.976,1.252-1.908,2.055l-6.75,0.172
			c6.585,2.117,13.605,3.265,20.894,3.265c19.622,0,37.306-8.287,49.75-21.551C198.606,180.753,197.474,178.604,198.354,177.429z
			 M183.278,103.825c0.62-0.102,1.786,1.189,1.786,1.189s-0.031,0.931,0.331,1.911c0.363,0.981,1.396,2.429,2.272,4.184
			c0.879,1.756-1.499,2.687-3.616,2.894c-2.117,0.206,0-2.844,0.362-3.462c0.361-0.617-0.208-2.066-0.362-2.582
			c-0.152-0.518-1.55-1.239-1.757-2.169S183.278,103.825,183.278,103.825z M181.315,108.165c2.118-0.568,1.136,2.378,0.517,3.05
			c-0.619,0.67-2.738,0.517-2.738,0C179.094,110.697,181.315,108.165,181.315,108.165z"/>
	</g>
	<g>
		<g>
			<path fill="#3ED033" d="M137.206,199.242c0.233-0.2,0.68-0.38,1.125-0.56c1.104-0.336,2.229-0.896,2.738-1.745
				c0.742-1.051,3.075-3.062,3.967-3.419c1.125-0.561,9.209-6.71,9.737-7.781c1.314-2.569,3.328-5.741,4.239-6.322
				c1.825-1.162,0.568-3.771,0.014-4.728l-0.191-0.247c-0.532-1.182-4.528-2.046-5.187-1.888c-0.85-0.087-4.062-2.448-4.21-3.139
				c0.125-1.338-2.961-5.036-3.811-5.124c-0.426-0.043-2.508-0.711-3.424-2.383c-1.108-1.917-5.89-3.537-7.378-3.69
				c-1.275-0.131-3.166-0.554-4.591-1.376c-1.213-0.802-3.208-0.105-5.417,0.566c-0.445,0.182-0.892,0.359-1.104,0.338
				c-0.657,0.155-4.611-1.153-5.631-1.709c-0.192-0.244-0.237-2.054-0.174-2.723c0.105-1.116-0.045-1.807-0.237-2.051
				c-0.169-0.469-1.191-1.024-3.062-1.668c-0.404-0.267-1.042-0.333-1.232-0.579c0.02-0.222,0.294-0.87,0.528-1.073
				c0.785-1.494,1.313-2.566,0.952-3.281c-0.191-0.244-0.384-0.488-0.596-0.51c-0.829-0.313-2.188,0.449-3.566,1.433
				c-0.679,0.382-1.591,0.963-1.804,0.94c-0.85-0.087-2.274-0.91-4.083-2.224c-0.999-0.78,0.63-4.44,1.436-6.162
				c0.296-0.869,0.571-1.517,0.825-1.941c0.042-0.447,2.23-0.896,4.992-0.611c0.85,0.088,1.933-0.025,3.017-0.14
				c0.87-0.136,1.933-0.024,2.57,0.041c0.425,0.044,1.17,1.248,1.533,1.961c0.745,1.203,1.3,2.16,1.937,2.226
				c1.083-0.111,1.229-1.674,1.334-2.79c0.042-0.445,0.062-0.668,0.083-0.892c0.275-0.647,2.014-3.172,3.138-3.731
				c1.57-0.739,3.754-3.442,3.476-5.049c0.063-0.67,2.779-2.19,3.692-2.773c0.446-0.18,0.679-0.381,0.913-0.581
				c0.232-0.201,0.678-0.382,0.912-0.582c0.891-0.358,2.229-0.896,2.375-2.458c0.083-0.893,2.887-1.055,4.608-1.102
				c0.425,0.043,0.871-0.135,1.083-0.113c1.083-0.113,1.743-0.271,2.017-0.918c0.488-0.627,0.125-1.34-0.002-2.253
				c0.021-0.224-0.171-0.469-0.15-0.692c-0.491-1.627,0.018-2.477,1.375-3.237c0.679-0.38,1.742-0.27,2.825-0.384
				c1.083-0.114,2.359,0.019,3.695-0.519c0.893-0.358,1.359-0.762,1.614-1.185c0.275-0.649-0.086-1.361-0.45-2.075
				c-0.191-0.245-0.383-0.49-0.361-0.714c-0.512-1.405-1.49-2.407-2.065-3.142c-0.384-0.491-0.642-2.318-0.77-3.233
				c-0.15-0.693-0.088-1.362-0.258-1.831c-0.172-0.468-0.363-0.713-0.767-0.98c-0.808-0.535-2.358-0.017-3.25,0.34
				c0.02-0.222-0.15-0.69-0.128-0.914c0.062-0.669-0.088-1.361-0.491-1.627c-0.192-0.246-0.576-0.736-1.15-1.471
				c-0.766-0.98-1.724-2.206-2.512-2.963c-0.383-0.489-0.808-0.534-1.232-0.578c-1.084,0.113-2.059,1.364-2.821,2.638
				c-0.021,0.223-0.234,0.201-0.254,0.424c-1.464,1.877-1.823,3.416-1.036,4.175c0,0,0.171,0.467-0.317,1.093
				c-0.529,1.072-1.229,1.675-1.654,1.63c-1.275-0.131-1.633,1.41-2.013,3.172c-0.275,0.649-0.358,1.541-0.613,1.965
				c-0.192-0.245-0.533-1.182-0.261-4.083l0.041-0.447c0.042-0.446-0.15-0.691-0.341-0.937c-0.383-0.489-0.829-0.312-1.254-0.354
				c-0.636-0.066-0.85-0.088-1.042-0.332c-0.532-1.182-3.594-2.849-4.827-3.429c0.167-1.784,0.355-3.792,0.376-4.017
				c0.488-0.625,5.921-3.669,7.026-4.005c1.762-0.494,6.049-2.754,6.75-3.357c0.679-0.382,0.955-1.028,0.997-1.476
				c-0.087-1.361-2.342-2.495-3.149-3.03c-0.683-1.872-1.745-1.982-3.233-2.136c-0.637-0.066-1.487-0.154-2.527-0.486
				c-3.337-1.02-6.313-1.328-8.67-1.346c-1.286,0.017-3.018-0.215-4.525-0.553c-11.264,6.023-20.641,15.113-27.01,26.156
				c0.019,2.165-0.31,4.68-1.534,6.805c-3.073,5.315-3.504,14.509-2.417,16.648c0.895,1.895,6.113,10.32,6.879,11.3
				c0.576,0.734,1.945,6.736,2.095,7.427c0.15,0.69,3.514,5.996,7.337,6.391c2.358,0.019,4.976,1.865,6.591,2.935
				c0.808,0.534,1.404,1.047,1.828,1.09c0.213,0.021,0.383,0.488,0.554,0.958c0.533,1.182,1.236,2.831,3.256,4.166
				c0.596,0.514,1.212,0.802,1.596,1.291c2.02,1.336,4.828,3.429,4.786,3.875c-0.02,0.222-0.488,0.625-0.954,1.027
				c-1.422,1.431-3.777,3.665-3.474,7.304c0.391,4.994,6.242,11.231,8.22,13.014c1.872,0.646,0.313,10.398-0.703,12.095
				c-0.114,0.271-0.233,0.629-0.345,1.021c1.481,0.596,2.988,1.14,4.518,1.632l6.75-0.172
				C136.229,200.496,136.952,199.667,137.206,199.242z"/>
			<path fill="#3ED033" d="M184.05,107.958c0.155,0.516,0.725,1.964,0.362,2.582c-0.362,0.619-2.479,3.668-0.362,3.462
				c2.118-0.207,4.497-1.138,3.617-2.894c-0.876-1.755-1.909-3.203-2.272-4.184c-0.361-0.98-0.331-1.912-0.331-1.912
				s-1.166-1.291-1.785-1.188c0,0-1.19,1.034-0.983,1.964C182.502,106.72,183.898,107.44,184.05,107.958z"/>
			<path fill="#3ED033" d="M181.832,111.214c0.619-0.671,1.602-3.617-0.517-3.05c0,0-2.222,2.532-2.222,3.05
				S181.213,111.884,181.832,111.214z"/>
			<path fill="#3ED033" d="M203.423,98.864c0.414,0.931,0,2.531,2.169,2.118c0.738-0.141,1.385-0.212,1.927-0.239
				c-1.015-1.644-2.097-3.242-3.242-4.788C203.353,97.6,203.053,98.028,203.423,98.864z"/>
			<path fill="#3ED033" d="M205.129,103.772c-0.776,1.862-0.776,2.015-0.983,3.15c-0.207,1.136-1.395,1.81-1.395,1.81l-6.098,0.982
				c0,0-1.288-1.31-1.979-0.827c-0.688,0.483-1.552,0.722-2.48,1.378c-0.93,0.653-2.929,2.377-3.342,3.238
				c-0.413,0.86-1.447,1.688-3.1,2.102c-1.653,0.413-3.101,0.481-2.378,0.964c0.722,0.482,2.444,1.207,2.444,2.618
				s0.481,2.582-0.276,2.79c-0.756,0.21-4.409-0.48-5.097,0.966c-0.689,1.448-1.033,3.028-1.104,4.202
				c-0.069,1.172-0.206,2.274,2.066,2.204c2.273-0.068,3.79-0.49,4.547-0.969c0.758-0.478,0.551-1.441,1.86-2.751
				s1.722-0.757,1.79-1.859c0.069-1.103-0.206-2.273,0.619-2.066c0.827,0.207,1.586-0.759,2.48-0.346
				c0.896,0.413,1.448-1.033,2.826,0.482c1.377,1.517,2.961,2.482,3.373,3.376c0.414,0.894,1.86,1.447,1.38,2.617
				c-0.483,1.171,1.446-2.103,1.344-3.03c-0.106-0.931-1.966-2.273-2.206-2.652c-0.242-0.378-1.482-2.444-0.067-1.964
				c1.411,0.483,3.478,2.445,3.581,3.204c0.102,0.758,1.067,3.307,1.894,4.34c0.827,1.033,1.966,1.414,2.066,1.377
				c0.103-0.034-0.585-2.479-0.068-3.547c0.517-1.068,1.688-1.517,2.17-1.24c0.48,0.276,0.55,0.757,1.101,0.414
				c0.552-0.345,1.274-0.69,1.172-1.723c-0.105-1.033,0.203-2.309,0.481-2.893c0.273-0.586,1.205-2.48,1.721-1.689
				c0.518,0.793,1.068,1.755,1.86,1.791c0.135,0.006,0.243-0.019,0.338-0.058c-1.636-6.646-4.244-12.907-7.668-18.625
				C206.975,101.965,205.595,102.652,205.129,103.772z"/>
			<path fill="#3ED033" d="M191.076,99.537c-0.826,1.291-0.826,5.271,0.465,5.271c1.292,0,3.152-1.653,3.41-1.24
				c0.258,0.414,1.809,3.617,2.895,3.409c1.084-0.208,3.15-4.598,2.789-6.562c-0.36-1.964-0.207-2.481,0.258-3.049
				c0.465-0.569,0.259-2.686,1.86-2.791c0.146-0.009,0.291-0.031,0.433-0.057c-1.495-1.911-3.092-3.736-4.779-5.475
				c-1.2,1.785-1.771,3.282-2.592,5.035C194.779,96.282,191.903,98.246,191.076,99.537z"/>
			<path fill="#3ED033" d="M215.538,123.526c-1.343,0.276-6.061,0.756-5.921,2.479c0.136,1.723,1.721,4.341,4.407,3.583
				c1.7-0.479,2.667-0.584,3.229-0.449c-0.206-1.906-0.49-3.787-0.85-5.644C216.12,123.466,215.833,123.466,215.538,123.526z"/>
			<path fill="#3ED033" d="M217.634,137.898c0.01-0.458,0.018-0.916,0.018-1.375c0-1.182-0.031-2.354-0.09-3.522
				c-0.39,0.707-1.045,1.288-2.125,1.445c0,0-9.367-1.514-10.333-1.79c-1.79-0.275-0.825,2.067-0.825,2.617
				s-7.715-1.422-7.715-2.641c0-1.218,2.893-4.522-5.1-3.283c-7.989,1.239-10.193,2.807-12.26,6.019
				c-2.067,3.213-7.026,4.314-6.753,10.237c0.277,5.923-1.1,6.476,2.344,9.643s3.443,5.921,13.226,3.167
				c9.782-2.753,3.857-0.22,4.823,1.132c0.963,1.35,2.753,0.109,3.029,1.35c0.277,1.24-1.93,3.719,0.277,6.2
				c2.203,2.479,3.442,8.68,2.203,10.332c-0.882,1.175,0.252,3.324,0.836,5.755c10.839-11.554,17.699-26.883,18.396-43.804
				L217.634,137.898z"/>
		</g>
	</g>
</g>
<g>
	<g>
		<path fill="#EA651B" d="M95.822,100.816c0.431,0.533,0.95,1.006,1.559,1.397c3.077,1.987,7.183,1.105,9.172-1.975
			c1.06-1.643,1.302-3.579,0.83-5.327c-0.16,1.093-0.55,2.175-1.19,3.164C103.943,101.563,99.429,102.704,95.822,100.816z"/>
		<path fill="#FF7E1C" d="M95.405,93.042c-1.596,2.473-1.342,5.607,0.419,7.775c3.605,1.886,8.118,0.747,10.37-2.741
			c0.641-0.989,1.029-2.069,1.19-3.164c-0.412-1.529-1.371-2.918-2.809-3.846C101.5,89.079,97.39,89.963,95.405,93.042z"/>
	</g>
	<g>
		<g>
			<g>
				<path fill="#FFFFFF" d="M102.994,96.712c0.15,0.185,0.205,0.442,0.179,0.768c-0.044,0.392-0.207,0.68-0.492,0.857
					c-0.245,0.149-0.613,0.237-1.1,0.267v0.756h-0.548v-0.747h-0.421v0.747h-0.549v-0.756h-1.077l0.11-0.646h0.113
					c0.175,0.007,0.292,0.004,0.344-0.012c0.073-0.022,0.119-0.077,0.134-0.166v-2.416c-0.022-0.118-0.085-0.193-0.189-0.222
					c-0.066-0.022-0.208-0.029-0.425-0.022h-0.085v-0.579l0.331,0.012c0.396,0,0.643-0.004,0.746-0.012v-0.878h0.549v0.866
					l0.42-0.012v-0.855h0.548v0.879c0.377,0.036,0.666,0.118,0.868,0.244c0.244,0.148,0.378,0.372,0.398,0.668
					c0.045,0.43-0.105,0.733-0.456,0.912l0,0C102.666,96.426,102.867,96.541,102.994,96.712L102.994,96.712z M100.624,96.231h0.087
					c0.313,0.008,0.554-0.01,0.724-0.053c0.296-0.074,0.447-0.234,0.447-0.479c0-0.245-0.146-0.408-0.437-0.49
					c-0.162-0.044-0.402-0.063-0.724-0.054c-0.051,0.007-0.084,0.011-0.098,0.011V96.231z M100.722,97.958
					c0.381,0.007,0.664-0.013,0.859-0.056c0.345-0.088,0.52-0.267,0.52-0.534c0-0.267-0.168-0.445-0.509-0.533
					c-0.183-0.052-0.468-0.07-0.846-0.055h-0.121v1.18L100.722,97.958L100.722,97.958z"/>
			</g>
		</g>
	</g>
</g>
<g>
	<g>
		<path fill="#EA651B" d="M130.294,167.263c0.432,0.532,0.951,1.006,1.559,1.397c3.077,1.986,7.183,1.104,9.173-1.976
			c1.059-1.644,1.302-3.578,0.83-5.327c-0.16,1.094-0.55,2.175-1.19,3.164C138.415,168.009,133.901,169.149,130.294,167.263z"/>
		<path fill="#FF7E1C" d="M129.878,159.487c-1.596,2.474-1.343,5.607,0.419,7.775c3.605,1.887,8.118,0.746,10.37-2.741
			c0.641-0.989,1.03-2.068,1.19-3.164c-0.41-1.529-1.369-2.919-2.808-3.845C135.974,155.523,131.863,156.408,129.878,159.487z"/>
	</g>
	<g>
		<g>
			<g>
				<path fill="#FFFFFF" d="M137.466,163.157c0.151,0.185,0.206,0.441,0.179,0.768c-0.044,0.393-0.207,0.68-0.491,0.857
					c-0.245,0.148-0.613,0.238-1.099,0.268v0.756h-0.549v-0.747h-0.42v0.747h-0.548v-0.756h-1.077l0.111-0.646h0.112
					c0.176,0.008,0.292,0.004,0.344-0.012c0.072-0.022,0.118-0.078,0.133-0.166v-2.416c-0.022-0.117-0.084-0.192-0.19-0.223
					c-0.065-0.021-0.207-0.028-0.424-0.021h-0.085v-0.579l0.331,0.013c0.396,0,0.642-0.004,0.746-0.013v-0.879h0.548v0.868
					l0.421-0.013v-0.856h0.549v0.878c0.378,0.038,0.666,0.119,0.867,0.246c0.243,0.148,0.378,0.371,0.399,0.668
					c0.044,0.43-0.106,0.733-0.457,0.911l0,0C137.138,162.872,137.34,162.985,137.466,163.157L137.466,163.157z M135.097,162.678
					h0.087c0.313,0.008,0.554-0.011,0.725-0.055c0.295-0.073,0.447-0.234,0.447-0.479c0-0.244-0.146-0.407-0.438-0.489
					c-0.161-0.045-0.402-0.062-0.723-0.054c-0.052,0.006-0.085,0.012-0.099,0.012L135.097,162.678L135.097,162.678z
					 M135.196,164.403c0.38,0.008,0.665-0.012,0.859-0.057c0.345-0.088,0.52-0.268,0.52-0.533c0-0.267-0.169-0.445-0.51-0.534
					c-0.183-0.051-0.467-0.07-0.846-0.054h-0.12v1.18h0.097V164.403z"/>
			</g>
		</g>
	</g>
</g>
<g>
	<g>
		<path fill="#EA651B" d="M125.321,126.216c0.431,0.531,0.95,1.004,1.559,1.396c3.077,1.986,7.183,1.104,9.173-1.976
			c1.06-1.644,1.302-3.578,0.829-5.327c-0.16,1.094-0.551,2.175-1.191,3.164C133.441,126.96,128.928,128.102,125.321,126.216z"/>
		<path fill="#FF7E1C" d="M124.904,118.439c-1.596,2.473-1.342,5.607,0.419,7.776c3.605,1.886,8.117,0.745,10.37-2.742
			c0.641-0.989,1.029-2.069,1.19-3.164c-0.412-1.53-1.371-2.918-2.809-3.846C131,114.477,126.89,115.36,124.904,118.439z"/>
	</g>
	<g>
		<g>
			<g>
				<path fill="#FFFFFF" d="M132.493,122.109c0.15,0.185,0.205,0.442,0.179,0.767c-0.044,0.394-0.207,0.68-0.492,0.858
					c-0.245,0.148-0.613,0.237-1.099,0.267v0.757h-0.548v-0.747h-0.42v0.747h-0.549v-0.757h-1.077l0.11-0.645h0.113
					c0.175,0.007,0.292,0.003,0.344-0.013c0.073-0.022,0.118-0.077,0.133-0.166v-2.416c-0.022-0.118-0.084-0.192-0.189-0.222
					c-0.066-0.021-0.208-0.029-0.425-0.021h-0.085v-0.58l0.332,0.013c0.396,0,0.643-0.003,0.746-0.013v-0.878h0.549v0.867
					l0.42-0.013v-0.855h0.548v0.879c0.377,0.036,0.667,0.117,0.868,0.244c0.244,0.149,0.378,0.372,0.398,0.667
					c0.045,0.432-0.106,0.734-0.456,0.913l0,0C132.165,121.823,132.366,121.938,132.493,122.109L132.493,122.109z M130.123,121.629
					h0.087c0.313,0.008,0.554-0.011,0.724-0.054c0.296-0.074,0.447-0.235,0.447-0.48s-0.146-0.407-0.437-0.488
					c-0.162-0.046-0.401-0.062-0.723-0.055c-0.051,0.007-0.085,0.012-0.099,0.012V121.629L130.123,121.629z M130.222,123.354
					c0.381,0.008,0.664-0.013,0.859-0.057c0.345-0.089,0.52-0.267,0.52-0.533s-0.168-0.444-0.51-0.533
					c-0.183-0.052-0.468-0.07-0.845-0.055h-0.121v1.18h0.097V123.354z"/>
			</g>
		</g>
	</g>
</g>
<g>
	<g>
		<path fill="#EA651B" d="M84.675,128.028c0.432,0.532,0.951,1.006,1.559,1.396c3.077,1.987,7.183,1.104,9.173-1.975
			c1.059-1.644,1.302-3.579,0.83-5.327c-0.16,1.094-0.55,2.175-1.19,3.164C92.795,128.773,88.283,129.915,84.675,128.028z"/>
		<path fill="#FF7E1C" d="M84.257,120.253c-1.595,2.473-1.342,5.606,0.42,7.775c3.605,1.886,8.117,0.745,10.369-2.741
			c0.641-0.989,1.031-2.068,1.19-3.164c-0.41-1.529-1.37-2.919-2.808-3.845C90.354,116.289,86.244,117.173,84.257,120.253z"/>
	</g>
	<g>
		<g>
			<g>
				<path fill="#FFFFFF" d="M91.847,123.922c0.151,0.185,0.206,0.442,0.18,0.769c-0.044,0.393-0.208,0.68-0.492,0.857
					c-0.245,0.148-0.613,0.236-1.098,0.266v0.757h-0.549v-0.747h-0.421v0.747h-0.548v-0.757h-1.078l0.111-0.645h0.112
					c0.176,0.008,0.292,0.003,0.344-0.013c0.073-0.022,0.118-0.077,0.133-0.166v-2.415c-0.021-0.119-0.085-0.192-0.189-0.223
					c-0.066-0.021-0.207-0.028-0.425-0.021h-0.085v-0.578l0.331,0.012c0.396,0,0.643-0.004,0.747-0.012v-0.88h0.548v0.867
					l0.42-0.012v-0.856h0.549v0.879c0.378,0.036,0.666,0.118,0.867,0.245c0.244,0.149,0.378,0.372,0.399,0.668
					c0.044,0.431-0.106,0.733-0.457,0.912l0,0C91.519,123.637,91.72,123.751,91.847,123.922L91.847,123.922z M89.478,123.442h0.087
					c0.313,0.008,0.554-0.011,0.724-0.054c0.296-0.073,0.448-0.235,0.448-0.479s-0.146-0.408-0.438-0.489
					c-0.161-0.045-0.401-0.063-0.722-0.054c-0.052,0.006-0.086,0.01-0.099,0.01V123.442z M89.577,125.169
					c0.379,0.008,0.664-0.013,0.859-0.057c0.344-0.089,0.519-0.268,0.519-0.534c0-0.266-0.168-0.444-0.51-0.533
					c-0.183-0.052-0.467-0.07-0.846-0.055h-0.12v1.18L89.577,125.169L89.577,125.169z"/>
			</g>
		</g>
	</g>
</g>
<g>
	<g>
		<path fill="#EA651B" d="M187.852,104.864c0.433,0.533,0.951,1.006,1.56,1.397c3.076,1.987,7.183,1.104,9.173-1.976
			c1.06-1.642,1.302-3.578,0.83-5.326c-0.161,1.094-0.551,2.175-1.19,3.164C195.973,105.609,191.459,106.75,187.852,104.864z"/>
		<path fill="#FF7E1C" d="M187.436,97.088c-1.596,2.473-1.343,5.607,0.419,7.775c3.605,1.886,8.117,0.746,10.369-2.741
			c0.642-0.989,1.031-2.069,1.19-3.164c-0.41-1.529-1.369-2.918-2.808-3.845C193.531,93.125,189.42,94.01,187.436,97.088z"/>
	</g>
	<g>
		<g>
			<g>
				<path fill="#FFFFFF" d="M195.023,100.758c0.151,0.185,0.205,0.442,0.18,0.768c-0.044,0.392-0.207,0.68-0.49,0.857
					c-0.246,0.149-0.613,0.237-1.099,0.267v0.756h-0.55v-0.747h-0.421v0.747h-0.548v-0.756h-1.077l0.111-0.646h0.111
					c0.176,0.007,0.292,0.003,0.345-0.012c0.073-0.022,0.119-0.077,0.133-0.167v-2.415c-0.021-0.118-0.084-0.193-0.189-0.222
					c-0.065-0.022-0.207-0.029-0.424-0.022h-0.085v-0.579l0.331,0.012c0.396,0,0.643-0.004,0.746-0.012V97.71h0.548v0.866
					l0.421-0.012v-0.856h0.549v0.879c0.378,0.036,0.666,0.118,0.867,0.244c0.243,0.148,0.379,0.372,0.398,0.668
					c0.045,0.43-0.105,0.733-0.456,0.912l0,0C194.696,100.473,194.897,100.587,195.023,100.758L195.023,100.758z M192.654,100.278
					h0.088c0.312,0.008,0.555-0.011,0.725-0.054c0.296-0.074,0.447-0.235,0.447-0.479c0-0.245-0.146-0.408-0.438-0.49
					c-0.161-0.045-0.401-0.063-0.724-0.054c-0.052,0.006-0.085,0.011-0.099,0.011V100.278z M192.753,102.004
					c0.381,0.007,0.666-0.012,0.861-0.057c0.345-0.088,0.519-0.266,0.519-0.534c0-0.266-0.169-0.445-0.511-0.533
					c-0.183-0.052-0.468-0.07-0.846-0.055h-0.12v1.18L192.753,102.004L192.753,102.004z"/>
			</g>
		</g>
	</g>
</g>
<g>
	<g>
		<path fill="#EA651B" d="M187.43,159.876c0.432,0.531,0.95,1.005,1.56,1.396c3.076,1.987,7.182,1.104,9.173-1.975
			c1.059-1.644,1.301-3.579,0.829-5.328c-0.16,1.095-0.551,2.176-1.191,3.165C195.55,160.62,191.037,161.763,187.43,159.876z"/>
		<path fill="#FF7E1C" d="M187.013,152.101c-1.596,2.473-1.343,5.606,0.419,7.775c3.605,1.887,8.118,0.746,10.37-2.741
			c0.641-0.989,1.03-2.069,1.19-3.165c-0.411-1.529-1.37-2.918-2.808-3.845C193.109,148.137,188.998,149.021,187.013,152.101z"/>
	</g>
	<g>
		<g>
			<g>
				<path fill="#FFFFFF" d="M194.602,155.771c0.15,0.184,0.205,0.441,0.18,0.767c-0.045,0.394-0.208,0.68-0.492,0.858
					c-0.244,0.148-0.612,0.237-1.099,0.267v0.757h-0.548v-0.748h-0.421v0.748h-0.549v-0.757h-1.077l0.11-0.646h0.112
					c0.176,0.007,0.293,0.004,0.345-0.013c0.073-0.021,0.118-0.077,0.134-0.166v-2.416c-0.022-0.117-0.084-0.191-0.189-0.222
					c-0.066-0.021-0.207-0.029-0.425-0.021h-0.086v-0.58l0.331,0.013c0.396,0,0.643-0.004,0.746-0.013v-0.878h0.548v0.867
					l0.422-0.013v-0.856h0.548v0.879c0.377,0.037,0.666,0.118,0.867,0.245c0.243,0.149,0.378,0.372,0.399,0.667
					c0.044,0.431-0.106,0.734-0.457,0.912l0,0C194.273,155.484,194.475,155.599,194.602,155.771L194.602,155.771z M192.232,155.289
					h0.086c0.314,0.009,0.555-0.01,0.726-0.054c0.295-0.073,0.446-0.234,0.446-0.479s-0.145-0.407-0.438-0.489
					c-0.16-0.045-0.401-0.062-0.723-0.055c-0.052,0.007-0.085,0.012-0.099,0.012L192.232,155.289L192.232,155.289z M192.331,157.016
					c0.38,0.008,0.664-0.012,0.859-0.056c0.345-0.089,0.521-0.268,0.521-0.533c0-0.267-0.17-0.445-0.511-0.534
					c-0.183-0.052-0.468-0.071-0.846-0.055h-0.121v1.181h0.098V157.016L192.331,157.016z"/>
			</g>
		</g>
	</g>
</g>
<g>
	<g>
		<path fill="#EA651B" d="M184.506,127.674c0.432,0.532,0.95,1.006,1.56,1.397c3.077,1.987,7.183,1.104,9.173-1.976
			c1.06-1.643,1.302-3.579,0.829-5.327c-0.16,1.095-0.55,2.175-1.19,3.164C192.627,128.419,188.114,129.561,184.506,127.674z"/>
		<path fill="#FF7E1C" d="M184.089,119.899c-1.596,2.473-1.342,5.605,0.419,7.774c3.606,1.887,8.118,0.746,10.37-2.741
			c0.641-0.989,1.029-2.068,1.19-3.164c-0.41-1.529-1.37-2.919-2.809-3.846C190.185,115.935,186.075,116.818,184.089,119.899z"/>
	</g>
	<g>
		<g>
			<g>
				<path fill="#FFFFFF" d="M191.678,123.568c0.151,0.185,0.205,0.442,0.18,0.768c-0.043,0.393-0.207,0.68-0.491,0.857
					c-0.246,0.148-0.613,0.237-1.099,0.268v0.756h-0.549v-0.747h-0.42v0.747h-0.549v-0.756h-1.077l0.11-0.646h0.112
					c0.175,0.006,0.292,0.003,0.344-0.014c0.073-0.021,0.118-0.076,0.134-0.165v-2.417c-0.023-0.117-0.086-0.191-0.19-0.221
					c-0.065-0.021-0.206-0.029-0.424-0.021h-0.085v-0.579l0.331,0.013c0.396,0,0.642-0.004,0.745-0.013v-0.878h0.549v0.867
					l0.422-0.013v-0.856h0.547v0.879c0.378,0.037,0.667,0.118,0.867,0.244c0.243,0.149,0.379,0.372,0.399,0.668
					c0.046,0.43-0.106,0.734-0.456,0.912l0,0C191.35,123.282,191.552,123.397,191.678,123.568L191.678,123.568z M189.31,123.087
					h0.087c0.312,0.009,0.555-0.009,0.724-0.054c0.297-0.072,0.447-0.234,0.447-0.479c0-0.245-0.146-0.408-0.437-0.489
					c-0.162-0.045-0.402-0.063-0.724-0.055c-0.053,0.006-0.085,0.011-0.099,0.011L189.31,123.087L189.31,123.087z M189.407,124.813
					c0.38,0.008,0.664-0.012,0.859-0.055c0.345-0.09,0.52-0.268,0.52-0.534s-0.169-0.445-0.51-0.534
					c-0.184-0.051-0.467-0.07-0.846-0.055h-0.121v1.182h0.097L189.407,124.813L189.407,124.813z"/>
			</g>
		</g>
	</g>
</g>
<line fill="none" stroke="#FFFFFF" stroke-width="1.6" stroke-linecap="round" stroke-miterlimit="10" stroke-dasharray="3.2,5.6" x1="182.832" y1="129.728" x2="141.389" y2="157.68"/>
<line fill="none" stroke="#FFFFFF" stroke-width="1.6" stroke-linecap="round" stroke-miterlimit="10" stroke-dasharray="3.2,5.6" x1="183.866" y1="100.49" x2="109.734" y2="95.958"/>
<line fill="none" stroke="#FFFFFF" stroke-width="1.6" stroke-linecap="round" stroke-miterlimit="10" stroke-dasharray="3.2,5.6" x1="183.866" y1="103.424" x2="138.267" y2="119.69"/>
<line fill="none" stroke="#FFFFFF" stroke-width="1.6" stroke-linecap="round" stroke-miterlimit="10" stroke-dasharray="3.2,5.6" x1="183.866" y1="157.29" x2="143.789" y2="164.079"/>
<line fill="none" stroke="#FFFFFF" stroke-width="1.6" stroke-linecap="round" stroke-miterlimit="10" stroke-dasharray="3.2,5.6" x1="128.055" y1="157.946" x2="92.569" y2="131.778"/>
<line fill="none" stroke="#FFFFFF" stroke-width="1.6" stroke-linecap="round" stroke-miterlimit="10" stroke-dasharray="3.2,5.6" x1="94.8" y1="116.224" x2="98.267" y2="105.023"/>
<line fill="none" stroke="#FFFFFF" stroke-width="1.6" stroke-linecap="round" stroke-miterlimit="10" stroke-dasharray="3.2,5.6" x1="123.066" y1="116.758" x2="107.6" y2="102.357"/>
<line fill="none" stroke="#FFFFFF" stroke-width="1.6" stroke-linecap="round" stroke-miterlimit="10" stroke-dasharray="3.2,5.6" x1="134.267" y1="153.558" x2="131.6" y2="129.823"/>
</svg>
