<?xml version="1.0" encoding="utf-8"?>
<!-- Generator: Adobe Illustrator 16.0.4, SVG Export Plug-In . SVG Version: 6.00 Build 0)  -->
<!DOCTYPE svg PUBLIC "-//W3C//DTD SVG 1.1//EN" "http://www.w3.org/Graphics/SVG/1.1/DTD/svg11.dtd">
<svg version="1.1" id="Layer_1" xmlns="http://www.w3.org/2000/svg" xmlns:xlink="http://www.w3.org/1999/xlink" x="0px" y="0px"
	 width="300px" height="225px" viewBox="37.5 75 300 225" enable-background="new 37.5 75 300 225" xml:space="preserve">
<path fill="#444444" d="M160.849,164.134c1.065-9.967,5.202-22.129,13.076-26.521c3.375-1.883,7.304-3.246,12.718-4.159
	c1.286,0.213,2.483,0.451,3.616,0.717c0.196,0.046,0.385,0.094,0.579,0.143c0.335,0.083,0.666,0.168,0.989,0.256
	c0.206,0.055,0.408,0.112,0.608,0.169c0.325,0.093,0.645,0.191,0.958,0.291c0.161,0.052,0.331,0.102,0.491,0.155
	c0.45,0.149,0.892,0.305,1.32,0.465c0.126,0.047,0.247,0.098,0.372,0.146c0.32,0.125,0.641,0.253,0.949,0.385
	c0.146,0.062,0.289,0.125,0.434,0.189c0.295,0.131,0.587,0.267,0.873,0.405c0.122,0.059,0.247,0.117,0.367,0.178
	c0.398,0.199,0.792,0.401,1.175,0.613c8.447,4.672,12.646,18.264,13.362,28.547c0.062,1.495,0.093,2.929,0.089,4.277
	c-0.006,3.48-0.218,6.37-0.633,8.117c-0.02,0.081-0.056,0.159-0.079,0.239c-2.102,9.565-12.667,16.856-25.409,16.877
	c-14.268,0.028-25.85-9.063-25.871-20.307c0-0.103,0.007-0.205,0.009-0.308C160.622,172.106,160.616,168.279,160.849,164.134z"/>
<path fill="#FFFFFF" d="M167.605,136.247c3.262-3.726,7.5-5.558,15.85-5.923c0.131-0.007,0.267-0.011,0.4-0.017
	c0.421-0.016,0.848-0.029,1.289-0.039c0.437-0.009,0.882-0.015,1.34-0.017c0.054,0,0.101-0.001,0.154-0.001h0.011
	c0.016,0,0.032,0,0.049,0c0.009,0,0.017,0,0.027,0h0.007c0.031,0,0.059,0.001,0.09,0.001c0.483,0,0.953,0.004,1.414,0.014
	c0.526,0.008,1.032,0.022,1.527,0.042c0.048,0.002,0.098,0.003,0.146,0.006c8.357,0.333,12.603,2.15,15.878,5.865
	c4.333,4.915,6.544,18.983,7,29.936c-0.717-10.284-4.916-23.876-13.361-28.547c-3.383-1.87-7.316-3.218-12.732-4.112
	c-5.415,0.915-9.341,2.277-12.718,4.16c-8.429,4.701-12.576,18.309-13.255,28.594C161.134,155.255,163.292,141.177,167.605,136.247z
	"/>
<path fill="#FFFFFF" d="M186.796,97.348c4.61-0.01,9.989-1.828,13.038-2.605c3.572-0.911,5.269-0.94,7.904-0.945
	c7.979-0.016,10.438,4.164,11.111,5.87c-5.264-16.162-21.911-18.401-31.746-18.383l-0.811,0.002
	c-9.833,0.018-26.473,2.317-31.678,18.499c0.666-1.708,3.111-5.896,11.089-5.913c2.634-0.005,4.333,0.02,7.908,0.917
	c3.053,0.766,8.438,2.565,13.049,2.557L186.796,97.348L186.796,97.348z"/>
<path fill="#444444" d="M154.644,99.801l-0.028-0.014c0.666-1.708,3.112-5.897,11.089-5.913c2.634-0.005,4.333,0.019,7.908,0.917
	c3.053,0.766,8.438,2.565,13.05,2.556h0.133c4.61-0.009,9.989-1.827,13.038-2.604c3.572-0.911,5.269-0.941,7.904-0.945
	c7.979-0.016,10.438,4.164,11.111,5.87l-0.028,0.014c1.69,1.615,2.82,5.863,2.682,10.827c-0.175,6.295-2.319,11.346-4.788,11.278
	c-0.048-0.001-0.092-0.017-0.137-0.021c-5.718,11.551-21.437,16.933-29.688,16.949c-8.25,0.015-24.102-5.308-29.903-16.841
	c-0.053,0.006-0.101,0.023-0.154,0.025c-2.465,0.075-4.631-4.966-4.829-11.261C151.846,105.673,152.958,101.422,154.644,99.801z"/>
<path fill="#7F7F7F" d="M186.825,130.376c4.168-0.008,13.015-3.887,12.997-12.368c-0.017-8.479-9.781-9.135-13.067-9.128
	c-3.288,0.005-13.061,0.696-13.045,9.176C173.726,126.538,182.653,130.383,186.825,130.376z"/>
<path fill="#232323" d="M186.559,111.104c-1.812,0.004-4.487,1.9-4.8,4.107c-0.31,2.207,4.931,2.118,4.931,2.118h0.15
	c0,0,5.241,0.069,4.921-2.138c-0.318-2.205-3.001-4.091-4.815-4.087H186.559z"/>
<g>
	<circle fill="#232323" cx="200.113" cy="104.651" r="1.602"/>
	<path fill="#232323" d="M171.768,104.703c0.002,0.886,0.719,1.6,1.605,1.599c0.883-0.001,1.599-0.719,1.599-1.604
		c-0.001-0.885-0.72-1.602-1.604-1.6C172.482,103.1,171.766,103.818,171.768,104.703z"/>
</g>
<path fill="#232323" d="M158.046,103.397c-2.034,0.08-3.677,3.916-4.297,9.331c-0.073-0.681-0.124-1.389-0.145-2.121
	c-0.133-4.949,1.067-9.01,2.676-9.072c0.686-0.026,1.332,0.681,1.861,1.875C158.111,103.409,158.078,103.397,158.046,103.397z"/>
<path fill="#232323" d="M215.433,103.292c2.032,0.072,3.692,3.902,4.333,9.315c0.07-0.681,0.118-1.389,0.135-2.123
	c0.113-4.948-1.102-9.005-2.709-9.061c-0.683-0.022-1.329,0.686-1.855,1.882C215.369,103.304,215.399,103.292,215.433,103.292z"/>
<path fill="none" stroke="#7F7F7F" stroke-width="1.2608" stroke-linecap="round" stroke-miterlimit="10" d="M203.163,99.921
	c-0.415-0.384-0.897-0.679-1.418-0.875c-0.519-0.196-1.076-0.293-1.64-0.278c-0.563,0.014-1.134,0.139-1.681,0.386
	s-1.018,0.594-1.399,1.01"/>
<path fill="none" stroke="#7F7F7F" stroke-width="1.2608" stroke-linecap="round" stroke-miterlimit="10" d="M176.354,99.921
	c-0.415-0.384-0.897-0.679-1.417-0.875c-0.519-0.196-1.078-0.293-1.641-0.278c-0.562,0.014-1.134,0.139-1.681,0.386
	c-0.546,0.248-1.017,0.594-1.4,1.01"/>
<path fill="none" stroke="#232323" stroke-width="1.1422" stroke-linecap="round" stroke-miterlimit="10" d="M193.152,126.113
	c-0.349-0.831-0.855-1.582-1.483-2.211c-0.626-0.63-1.376-1.138-2.206-1.492c-0.827-0.353-1.742-0.549-2.701-0.55
	c-0.959-0.001-1.873,0.189-2.706,0.542c-0.832,0.35-1.58,0.856-2.209,1.483c-0.629,0.627-1.14,1.376-1.494,2.207"/>
<ellipse opacity="0.3" fill="#232323" enable-background="new    " cx="187" cy="283.856" rx="54.886" ry="8.859"/>
<g>
	<circle fill="#3050C4" cx="186.44" cy="210.524" r="72"/>
	<path fill="none" d="M256.19,198.525c1.104,0.446,1.931-0.417,3.136-1.481c1.204-1.065-2.55-2.379-4.443-3.065
		c-1.57-0.57-1.748-0.007-2.213,0.183c0.271,1.101,0.516,2.212,0.731,3.333C254.406,197.603,255.332,198.177,256.19,198.525z"/>
	<path fill="none" d="M254.883,203.589c-0.114-0.216-0.305-0.372-0.632-0.45c0.138,1.278,0.245,2.565,0.312,3.863
		C255.277,205.703,255.082,203.969,254.883,203.589z"/>
	<g>
		<path fill="#3050C4" d="M162.077,260.724c-1.979-1.783-7.83-8.019-8.22-13.015c-0.303-3.639,2.052-5.873,3.474-7.304
			c0.467-0.402,0.934-0.806,0.954-1.025c0.042-0.448-2.766-2.541-4.785-3.877c-0.383-0.489-1-0.778-1.596-1.29
			c-2.02-1.335-2.724-2.984-3.256-4.166c-0.17-0.469-0.342-0.936-0.555-0.958c-0.424-0.044-1.02-0.556-1.829-1.091
			c-1.615-1.068-4.232-2.915-6.591-2.934c-3.823-0.395-7.187-5.7-7.337-6.391c-0.149-0.691-1.519-6.692-2.093-7.427
			c-0.766-0.979-5.984-9.405-6.879-11.3c-1.086-2.141-0.655-11.333,2.417-16.649c1.225-2.125,1.553-4.639,1.534-6.804
			c-5.777,10.017-9.083,21.636-9.083,34.029c0,28.689,17.713,53.239,42.798,63.316c0.111-0.393,0.23-0.751,0.344-1.02
			C162.39,271.122,163.948,261.369,162.077,260.724z"/>
		<path fill="#3050C4" d="M235.353,251.429c1.241-1.652,0-7.852-2.203-10.332c-2.204-2.481,0-4.96-0.276-6.2s-2.067,0-3.029-1.35
			c-0.966-1.352,4.958-3.885-4.822-1.131c-9.783,2.752-9.783,0-13.226-3.168c-3.443-3.167-2.066-3.719-2.343-9.644
			c-0.275-5.922,4.684-7.023,6.75-10.237c2.066-3.213,4.271-4.779,12.261-6.018c7.99-1.24,5.099,2.064,5.099,3.283
			s7.715,3.191,7.715,2.641c0-0.55-0.964-2.893,0.825-2.617c0.966,0.277,10.333,1.791,10.333,1.791
			c1.081-0.158,1.735-0.738,2.125-1.446c-0.066-1.298-0.174-2.584-0.311-3.862c-0.562-0.135-1.528-0.027-3.229,0.449
			c-2.686,0.756-4.271-1.859-4.408-3.583c-0.139-1.722,4.58-2.203,5.922-2.479c0.296-0.062,0.583-0.062,0.864-0.031
			c-0.217-1.121-0.46-2.232-0.731-3.333c-0.096,0.039-0.203,0.063-0.339,0.056c-0.791-0.034-1.344-0.996-1.86-1.789
			c-0.515-0.79-1.447,1.104-1.721,1.688c-0.278,0.585-0.584,1.859-0.481,2.895c0.104,1.032-0.618,1.378-1.172,1.722
			c-0.554,0.343-0.62-0.138-1.102-0.414c-0.481-0.277-1.653,0.172-2.17,1.24c-0.517,1.067,0.172,3.513,0.07,3.547
			c-0.102,0.036-1.241-0.344-2.066-1.376c-0.827-1.034-1.792-3.582-1.894-4.341c-0.104-0.759-2.17-2.721-3.582-3.203
			c-1.415-0.482-0.174,1.584,0.068,1.964c0.24,0.379,2.1,1.721,2.205,2.65c0.104,0.929-1.825,4.201-1.343,3.031
			c0.481-1.172-0.966-1.723-1.381-2.617c-0.414-0.896-1.997-1.861-3.374-3.378c-1.379-1.517-1.93-0.068-2.825-0.481
			c-0.894-0.415-1.652,0.551-2.482,0.345c-0.824-0.207-0.55,0.964-0.617,2.066c-0.068,1.104-0.482,0.551-1.789,1.86
			c-1.31,1.31-1.103,2.272-1.86,2.75c-0.757,0.479-2.273,0.9-4.547,0.971c-2.273,0.068-2.137-1.033-2.067-2.207
			c0.071-1.172,0.415-2.753,1.104-4.199c0.687-1.448,4.34-0.758,5.097-0.966c0.757-0.21,0.276-1.381,0.276-2.792
			s-1.722-2.137-2.444-2.617c-0.723-0.483,0.723-0.551,2.377-0.964c1.652-0.415,2.686-1.24,3.1-2.102
			c0.414-0.861,2.413-2.584,3.343-3.238c0.928-0.655,1.792-0.895,2.479-1.377c0.691-0.483,1.979,0.827,1.979,0.827l6.099-0.982
			c0,0,1.188-0.674,1.394-1.81c0.208-1.136,0.208-1.289,0.983-3.15c0.467-1.119,1.848-1.807,2.875-2.235
			c-0.16-0.266-0.32-0.53-0.483-0.794c-0.544,0.027-1.188,0.099-1.928,0.239c-2.167,0.414-1.754-1.188-2.167-2.117
			c-0.372-0.836-0.072-1.264,0.851-2.91c-0.357-0.483-0.72-0.962-1.09-1.436c-0.144,0.025-0.287,0.048-0.433,0.057
			c-1.602,0.104-1.396,2.221-1.861,2.791c-0.464,0.568-0.617,1.084-0.257,3.049c0.36,1.963-1.706,6.354-2.79,6.561
			c-1.084,0.209-2.635-2.995-2.893-3.408c-0.258-0.414-2.117,1.24-3.41,1.24s-1.291-3.98-0.465-5.271
			c0.826-1.292,3.703-3.256,4.736-5.459c0.822-1.752,1.393-3.25,2.593-5.034c-12.396-12.783-29.751-20.729-48.965-20.729
			c-11.613,0-22.546,2.906-32.117,8.023c1.508,0.338,3.239,0.569,4.525,0.553c2.358,0.018,5.333,0.325,8.67,1.346
			c1.042,0.333,1.891,0.42,2.527,0.487c1.488,0.153,2.551,0.263,3.232,2.136c0.809,0.534,3.063,1.668,3.15,3.029
			c-0.042,0.447-0.317,1.094-0.997,1.475c-0.7,0.604-4.988,2.864-6.75,3.357c-1.104,0.337-6.538,3.38-7.025,4.006
			c-0.021,0.223-0.21,2.232-0.377,4.017c1.233,0.579,4.295,2.248,4.827,3.429c0.191,0.244,0.405,0.266,1.042,0.332
			c0.425,0.044,0.87-0.135,1.253,0.354c0.192,0.246,0.383,0.491,0.342,0.937l-0.042,0.447c-0.272,2.9,0.068,3.838,0.26,4.083
			c0.255-0.424,0.339-1.317,0.614-1.965c0.379-1.762,0.739-3.303,2.014-3.172c0.425,0.045,1.125-0.558,1.654-1.63
			c0.488-0.626,0.317-1.093,0.317-1.093c-0.787-0.759-0.429-2.298,1.035-4.175c0.021-0.223,0.234-0.202,0.255-0.424
			c0.761-1.274,1.737-2.525,2.821-2.638c0.424,0.044,0.849,0.087,1.232,0.578c0.788,0.758,1.746,1.983,2.511,2.963
			c0.574,0.735,0.958,1.225,1.15,1.471c0.402,0.266,0.554,0.958,0.491,1.627c-0.021,0.223,0.149,0.692,0.128,0.915
			c0.892-0.357,2.442-0.875,3.25-0.34c0.404,0.268,0.595,0.513,0.767,0.981c0.169,0.469,0.107,1.138,0.257,1.831
			c0.128,0.915,0.386,2.742,0.77,3.233c0.575,0.735,1.555,1.737,2.065,3.142c-0.021,0.224,0.169,0.469,0.362,0.714
			c0.362,0.714,0.723,1.426,0.449,2.075c-0.254,0.423-0.721,0.826-1.613,1.185c-1.338,0.538-2.613,0.406-3.696,0.519
			c-1.083,0.114-2.146,0.005-2.824,0.384c-1.357,0.761-1.866,1.612-1.376,3.237c-0.021,0.224,0.171,0.469,0.15,0.692
			c0.128,0.915,0.491,1.626,0.003,2.253c-0.275,0.647-0.935,0.805-2.017,0.917c-0.212-0.022-0.658,0.156-1.083,0.114
			c-1.72,0.047-4.524,0.209-4.607,1.1c-0.146,1.562-1.484,2.1-2.375,2.459c-0.234,0.2-0.68,0.38-0.913,0.583
			c-0.233,0.2-0.467,0.401-0.913,0.581c-0.914,0.583-3.629,2.104-3.691,2.775c0.277,1.604-1.907,4.31-3.477,5.047
			c-1.125,0.56-2.864,3.084-3.139,3.731c-0.021,0.224-0.043,0.447-0.083,0.892c-0.105,1.117-0.251,2.68-1.334,2.79
			c-0.637-0.065-1.191-1.021-1.937-2.224c-0.361-0.716-1.108-1.918-1.533-1.963c-0.638-0.065-1.7-0.176-2.57-0.039
			c-1.083,0.112-2.167,0.226-3.017,0.139c-2.762-0.285-4.95,0.164-4.991,0.611c-0.253,0.424-0.53,1.072-0.826,1.941
			c-0.805,1.721-2.435,5.382-1.435,6.162c1.808,1.313,3.232,2.137,4.083,2.223c0.213,0.021,1.126-0.559,1.804-0.94
			c1.379-0.983,2.739-1.746,3.566-1.433c0.213,0.021,0.405,0.266,0.597,0.511c0.362,0.716-0.167,1.786-0.952,3.281
			c-0.233,0.203-0.508,0.851-0.529,1.072c0.19,0.247,0.828,0.313,1.232,0.58c1.871,0.644,2.892,1.2,3.062,1.669
			c0.191,0.244,0.342,0.936,0.237,2.051c-0.063,0.669-0.018,2.479,0.175,2.721c1.02,0.556,4.974,1.865,5.631,1.709
			c0.212,0.021,0.66-0.156,1.104-0.338c2.208-0.671,4.204-1.367,5.417-0.566c1.425,0.822,3.316,1.245,4.59,1.378
			c1.487,0.152,6.27,1.773,7.379,3.689c0.917,1.673,2.999,2.339,3.424,2.384c0.85,0.088,3.937,3.786,3.811,5.123
			c0.149,0.69,3.36,3.052,4.209,3.14c0.658-0.158,4.654,0.707,5.187,1.888l0.19,0.245c0.555,0.958,1.812,3.567-0.014,4.729
			c-0.912,0.582-2.926,3.753-4.24,6.321c-0.528,1.072-8.612,7.22-9.738,7.782c-0.892,0.356-3.226,2.37-3.967,3.418
			c-0.509,0.849-1.634,1.41-2.739,1.746c-0.445,0.181-0.892,0.359-1.125,0.56c-0.253,0.425-0.976,1.252-1.908,2.056l-6.75,0.171
			c6.585,2.117,13.605,3.266,20.894,3.266c19.621,0,37.305-8.288,49.751-21.551C235.606,254.753,234.473,252.604,235.353,251.429z
			 M220.277,177.825c0.621-0.102,1.786,1.188,1.786,1.188s-0.029,0.931,0.331,1.911c0.363,0.981,1.397,2.429,2.273,4.183
			c0.879,1.756-1.5,2.687-3.617,2.894c-2.116,0.206,0-2.844,0.363-3.463c0.36-0.617-0.208-2.066-0.363-2.583
			c-0.151-0.518-1.549-1.238-1.754-2.168C219.089,178.858,220.277,177.825,220.277,177.825z M218.315,182.165
			c2.118-0.568,1.136,2.378,0.517,3.049c-0.618,0.67-2.738,0.517-2.738,0C216.094,184.698,218.315,182.165,218.315,182.165z"/>
	</g>
	<g>
		<g>
			<path fill="#3ED033" d="M174.205,273.244c0.233-0.202,0.679-0.382,1.125-0.56c1.104-0.338,2.229-0.896,2.738-1.747
				c0.742-1.05,3.075-3.061,3.967-3.417c1.125-0.562,9.209-6.711,9.738-7.783c1.313-2.568,3.328-5.74,4.24-6.321
				c1.823-1.163,0.568-3.772,0.014-4.729l-0.19-0.247c-0.532-1.181-4.528-2.046-5.186-1.887c-0.851-0.086-4.062-2.449-4.21-3.14
				c0.125-1.338-2.962-5.036-3.812-5.123c-0.425-0.044-2.508-0.711-3.424-2.383c-1.109-1.918-5.891-3.538-7.378-3.691
				c-1.275-0.131-3.166-0.553-4.591-1.376c-1.212-0.802-3.208-0.104-5.417,0.566c-0.445,0.182-0.892,0.359-1.104,0.338
				c-0.657,0.155-4.611-1.152-5.632-1.709c-0.192-0.244-0.237-2.054-0.174-2.722c0.104-1.117-0.046-1.808-0.238-2.051
				c-0.17-0.469-1.19-1.024-3.062-1.668c-0.404-0.267-1.042-0.333-1.232-0.58c0.021-0.221,0.295-0.87,0.529-1.072
				c0.785-1.495,1.313-2.566,0.952-3.281c-0.192-0.245-0.384-0.488-0.597-0.511c-0.828-0.313-2.187,0.449-3.566,1.433
				c-0.679,0.382-1.591,0.963-1.804,0.941c-0.85-0.088-2.275-0.911-4.083-2.225c-1-0.78,0.63-4.441,1.435-6.162
				c0.297-0.869,0.572-1.517,0.825-1.941c0.042-0.447,2.229-0.896,4.991-0.611c0.85,0.088,1.933-0.025,3.017-0.139
				c0.87-0.137,1.933-0.025,2.57,0.04c0.424,0.044,1.17,1.248,1.533,1.961c0.746,1.203,1.3,2.159,1.937,2.226
				c1.083-0.112,1.23-1.675,1.334-2.789c0.042-0.447,0.062-0.669,0.083-0.893c0.275-0.648,2.014-3.172,3.139-3.731
				c1.57-0.739,3.753-3.442,3.476-5.048c0.062-0.672,2.779-2.191,3.692-2.775c0.445-0.18,0.678-0.381,0.913-0.581
				c0.233-0.202,0.679-0.382,0.913-0.582c0.891-0.358,2.229-0.897,2.375-2.459c0.083-0.892,2.887-1.053,4.607-1.102
				c0.426,0.044,0.872-0.134,1.083-0.113c1.083-0.113,1.744-0.271,2.017-0.918c0.488-0.626,0.125-1.339-0.002-2.251
				c0.021-0.224-0.172-0.469-0.15-0.692c-0.492-1.627,0.018-2.477,1.376-3.238c0.678-0.38,1.742-0.27,2.824-0.384
				c1.083-0.114,2.358,0.018,3.696-0.519c0.892-0.358,1.358-0.762,1.613-1.185c0.275-0.649-0.084-1.361-0.449-2.075
				c-0.193-0.245-0.384-0.49-0.362-0.714c-0.512-1.405-1.49-2.407-2.065-3.142c-0.382-0.491-0.642-2.318-0.769-3.233
				c-0.15-0.693-0.088-1.362-0.258-1.831c-0.172-0.468-0.363-0.713-0.767-0.981c-0.807-0.534-2.357-0.017-3.25,0.34
				c0.02-0.222-0.149-0.69-0.127-0.915c0.062-0.668-0.088-1.361-0.492-1.627c-0.191-0.246-0.576-0.736-1.15-1.471
				c-0.766-0.98-1.723-2.206-2.511-2.963c-0.383-0.49-0.808-0.534-1.231-0.578c-1.084,0.113-2.06,1.364-2.822,2.638
				c-0.021,0.222-0.234,0.201-0.254,0.424c-1.464,1.877-1.822,3.416-1.035,4.175c0,0,0.171,0.467-0.317,1.093
				c-0.53,1.072-1.23,1.675-1.654,1.63c-1.275-0.131-1.634,1.41-2.014,3.172c-0.275,0.649-0.359,1.541-0.614,1.965
				c-0.192-0.245-0.533-1.183-0.261-4.083l0.042-0.447c0.042-0.446-0.15-0.691-0.343-0.937c-0.383-0.49-0.829-0.312-1.253-0.354
				c-0.637-0.066-0.85-0.088-1.042-0.332c-0.533-1.182-3.594-2.85-4.827-3.429c0.167-1.784,0.355-3.792,0.377-4.017
				c0.487-0.625,5.92-3.668,7.024-4.005c1.763-0.494,6.05-2.754,6.75-3.357c0.679-0.381,0.955-1.028,0.997-1.475
				c-0.087-1.361-2.341-2.495-3.15-3.029c-0.682-1.873-1.745-1.983-3.233-2.136c-0.637-0.066-1.485-0.153-2.527-0.487
				c-3.337-1.02-6.312-1.327-8.67-1.346c-1.286,0.017-3.018-0.215-4.525-0.553c-11.264,6.023-20.641,15.113-27.011,26.157
				c0.019,2.165-0.31,4.679-1.534,6.804c-3.073,5.316-3.504,14.509-2.417,16.649c0.896,1.894,6.114,10.319,6.879,11.3
				c0.575,0.734,1.944,6.736,2.093,7.426c0.15,0.69,3.515,5.996,7.338,6.391c2.358,0.019,4.975,1.866,6.59,2.935
				c0.809,0.534,1.405,1.048,1.829,1.09c0.213,0.021,0.383,0.488,0.555,0.958c0.533,1.182,1.236,2.83,3.256,4.165
				c0.596,0.515,1.213,0.802,1.596,1.292c2.02,1.336,4.827,3.428,4.785,3.875c-0.02,0.222-0.487,0.625-0.954,1.027
				c-1.42,1.431-3.777,3.665-3.473,7.303c0.389,4.995,6.241,11.232,8.219,13.015c1.872,0.646,0.314,10.398-0.703,12.095
				c-0.114,0.271-0.234,0.629-0.345,1.021c1.481,0.596,2.988,1.139,4.518,1.631l6.75-0.171
				C173.229,274.495,173.952,273.668,174.205,273.244z"/>
			<path fill="#3ED033" d="M221.05,181.958c0.154,0.516,0.724,1.964,0.362,2.582c-0.362,0.619-2.48,3.668-0.362,3.462
				c2.117-0.207,4.497-1.137,3.617-2.893c-0.877-1.755-1.911-3.204-2.273-4.184c-0.361-0.98-0.331-1.911-0.331-1.911
				s-1.166-1.291-1.785-1.189c0,0-1.188,1.034-0.983,1.964C219.502,180.72,220.898,181.44,221.05,181.958z"/>
			<path fill="#3ED033" d="M218.832,185.214c0.619-0.671,1.602-3.617-0.517-3.049c0,0-2.222,2.532-2.222,3.049
				S218.212,185.884,218.832,185.214z"/>
			<path fill="#3ED033" d="M240.423,172.864c0.414,0.93,0,2.531,2.169,2.117c0.738-0.141,1.385-0.212,1.927-0.239
				c-1.016-1.644-2.096-3.242-3.242-4.789C240.353,171.6,240.053,172.028,240.423,172.864z"/>
			<path fill="#3ED033" d="M242.129,177.772c-0.777,1.862-0.777,2.016-0.984,3.15c-0.206,1.137-1.394,1.81-1.394,1.81l-6.099,0.981
				c0,0-1.286-1.31-1.979-0.827c-0.688,0.483-1.552,0.722-2.479,1.378c-0.93,0.653-2.929,2.378-3.342,3.238
				c-0.414,0.861-1.448,1.688-3.101,2.102s-3.1,0.482-2.377,0.964c0.721,0.482,2.444,1.207,2.444,2.618
				c0,1.412,0.482,2.582-0.275,2.791s-4.41-0.482-5.097,0.965c-0.688,1.448-1.032,3.027-1.103,4.202
				c-0.07,1.172-0.208,2.274,2.066,2.204c2.272-0.068,3.788-0.49,4.546-0.969s0.55-1.441,1.86-2.75
				c1.31-1.311,1.721-0.758,1.789-1.86c0.07-1.103-0.207-2.273,0.619-2.066s1.584-0.759,2.48-0.346s1.447-1.033,2.826,0.482
				c1.376,1.517,2.959,2.483,3.373,3.376c0.416,0.895,1.861,1.448,1.381,2.617c-0.483,1.171,1.446-2.102,1.344-3.03
				c-0.105-0.931-1.965-2.273-2.206-2.652c-0.242-0.378-1.483-2.444-0.068-1.964c1.412,0.483,3.478,2.446,3.582,3.205
				c0.102,0.758,1.067,3.307,1.894,4.34s1.965,1.414,2.066,1.377c0.102-0.034-0.586-2.479-0.069-3.547
				c0.517-1.068,1.688-1.518,2.169-1.24c0.481,0.276,0.551,0.756,1.102,0.414c0.552-0.343,1.275-0.689,1.172-1.723
				c-0.104-1.032,0.203-2.309,0.481-2.892c0.276-0.586,1.208-2.481,1.722-1.689c0.516,0.792,1.068,1.755,1.859,1.791
				c0.137,0.006,0.244-0.019,0.34-0.058c-1.637-6.646-4.246-12.907-7.669-18.625C243.977,175.966,242.595,176.653,242.129,177.772z"
				/>
			<path fill="#3ED033" d="M228.076,173.538c-0.826,1.291-0.826,5.27,0.465,5.27s3.151-1.652,3.41-1.24
				c0.258,0.414,1.81,3.617,2.894,3.409c1.085-0.208,3.151-4.598,2.789-6.562c-0.36-1.964-0.207-2.48,0.258-3.049
				c0.466-0.569,0.258-2.686,1.859-2.791c0.147-0.009,0.291-0.031,0.433-0.057c-1.495-1.911-3.091-3.736-4.779-5.475
				c-1.2,1.784-1.771,3.282-2.592,5.035C231.781,170.282,228.902,172.246,228.076,173.538z"/>
			<path fill="#3ED033" d="M252.539,197.526c-1.344,0.276-6.062,0.757-5.922,2.479c0.136,1.723,1.721,4.341,4.408,3.583
				c1.7-0.478,2.667-0.583,3.228-0.449c-0.206-1.906-0.489-3.786-0.85-5.644C253.12,197.466,252.834,197.466,252.539,197.526z"/>
			<path fill="#3ED033" d="M254.634,211.898c0.01-0.458,0.018-0.916,0.018-1.375c0-1.182-0.03-2.354-0.089-3.521
				c-0.391,0.707-1.046,1.287-2.125,1.445c0,0-9.367-1.515-10.333-1.791c-1.791-0.275-0.827,2.068-0.827,2.617
				c0,0.55-7.714-1.422-7.714-2.641c0-1.217,2.894-4.521-5.099-3.283c-7.988,1.239-10.193,2.807-12.26,6.018
				c-2.066,3.214-7.025,4.315-6.752,10.237c0.277,5.924-1.101,6.477,2.344,9.644c3.444,3.168,3.444,5.92,13.225,3.168
				c9.783-2.754,3.857-0.221,4.823,1.131c0.963,1.35,2.753,0.109,3.03,1.35c0.276,1.24-1.93,3.719,0.276,6.2
				c2.203,2.48,3.444,8.68,2.203,10.332c-0.882,1.176,0.252,3.324,0.836,5.756c10.842-11.554,17.7-26.884,18.396-43.805
				L254.634,211.898z"/>
		</g>
	</g>
</g>
<g>
	<path fill="#D0DAE3" d="M145.621,183.884c0.432,0.532,0.95,1.006,1.559,1.397c3.077,1.987,7.183,1.104,9.173-1.975
		c1.06-1.643,1.302-3.578,0.83-5.327c-0.16,1.094-0.55,2.175-1.191,3.165C153.742,184.63,149.229,185.771,145.621,183.884z"/>
	<path fill="#E7ECF0" d="M145.204,176.11c-1.596,2.473-1.342,5.606,0.419,7.775c3.605,1.886,8.117,0.746,10.37-2.741
		c0.641-0.99,1.03-2.07,1.19-3.165c-0.411-1.53-1.37-2.918-2.808-3.846C151.3,172.146,147.19,173.03,145.204,176.11z"/>
</g>
<g>
	<path fill="#D0DAE3" d="M148.895,235.93c0.432,0.533,0.951,1.006,1.559,1.396c3.077,1.988,7.184,1.105,9.173-1.975
		c1.059-1.644,1.301-3.58,0.829-5.326c-0.16,1.094-0.55,2.175-1.19,3.164C157.015,236.677,152.501,237.817,148.895,235.93z"/>
	<path fill="#E7ECF0" d="M148.477,228.154c-1.595,2.473-1.342,5.607,0.419,7.775c3.605,1.886,8.118,0.746,10.37-2.74
		c0.641-0.989,1.03-2.069,1.191-3.164c-0.41-1.53-1.37-2.919-2.808-3.846C154.573,224.19,150.463,225.075,148.477,228.154z"/>
</g>
<g>
	<path fill="#D0DAE3" d="M131.727,200.492c0.515,0.451,1.107,0.83,1.773,1.113c3.368,1.438,7.266-0.127,8.705-3.499
		c0.767-1.799,0.678-3.747-0.084-5.391c0.028,1.106-0.174,2.237-0.637,3.32C139.855,199.852,135.601,201.741,131.727,200.492z"/>
	<path fill="#E7ECF0" d="M130,192.9c-1.153,2.707-0.374,5.753,1.729,7.592c3.872,1.248,8.126-0.641,9.756-4.457
		c0.463-1.084,0.665-2.213,0.638-3.319c-0.663-1.439-1.845-2.646-3.418-3.315C135.337,187.962,131.436,189.529,130,192.9z"/>
</g>
<g>
	<path fill="#D0DAE3" d="M219.785,186.064c0.432,0.533,0.95,1.006,1.56,1.397c3.077,1.987,7.183,1.104,9.172-1.976
		c1.06-1.642,1.302-3.578,0.83-5.326c-0.159,1.094-0.551,2.175-1.19,3.164C227.906,186.81,223.393,187.95,219.785,186.064z"/>
	<path fill="#E7ECF0" d="M219.368,178.289c-1.595,2.473-1.342,5.607,0.421,7.775c3.604,1.886,8.116,0.746,10.368-2.741
		c0.641-0.989,1.03-2.069,1.19-3.164c-0.411-1.529-1.37-2.918-2.809-3.846C225.465,174.325,221.354,175.21,219.368,178.289z"/>
</g>
<g>
	<path fill="#D0DAE3" d="M218.84,204.074c0.431,0.532,0.95,1.006,1.559,1.396c3.078,1.988,7.184,1.104,9.173-1.975
		c1.06-1.643,1.302-3.579,0.829-5.327c-0.16,1.095-0.551,2.175-1.189,3.165C226.96,204.818,222.446,205.961,218.84,204.074z"/>
	<path fill="#E7ECF0" d="M218.422,196.299c-1.596,2.473-1.343,5.606,0.418,7.775c3.606,1.887,8.118,0.746,10.371-2.74
		c0.641-0.99,1.029-2.07,1.189-3.165c-0.412-1.53-1.37-2.919-2.809-3.846C224.519,192.335,220.409,193.219,218.422,196.299z"/>
</g>
<line fill="none" stroke="#FFFFFF" stroke-width="1.6" stroke-linecap="round" stroke-miterlimit="10" stroke-dasharray="3.2,5.6" x1="214.732" y1="204.2" x2="161.666" y2="228.2"/>
<line fill="none" stroke="#FFFFFF" stroke-width="1.6" stroke-linecap="round" stroke-miterlimit="10" stroke-dasharray="3.2,5.6" x1="216.065" y1="180.733" x2="160.333" y2="179.4"/>
<line fill="none" stroke="#FFFFFF" stroke-width="1.6" stroke-linecap="round" stroke-miterlimit="10" stroke-dasharray="3.2,5.6" x1="148.599" y1="223.4" x2="137.666" y2="201.533"/>
<rect x="221.22" y="177.651" fill="none" width="6.879" height="8.295"/>
<text transform="matrix(1 0 0 1 221.9014 184.9644)" fill="#3654FF" font-family="'DMSans-Bold'" font-size="9.6">£</text>
<rect x="147.22" y="175.451" fill="none" width="6.878" height="8.295"/>
<text transform="matrix(1 0 0 1 148.0654 182.7642)" fill="#3654FF" font-family="'DMSans-Bold'" font-size="9.6">$</text>
<rect x="132.753" y="191.651" fill="none" width="6.878" height="8.296"/>
<text transform="matrix(1 0 0 1 133.5981 198.9648)" fill="#3654FF" font-family="'DMSans-Bold'" font-size="9.6">$</text>
<rect x="219.954" y="196.052" fill="none" width="6.878" height="8.295"/>
<text transform="matrix(1 0 0 1 220.9023 203.3643)" fill="#3654FF" font-family="'DMSans-Bold'" font-size="9.6">€</text>
<g>
	<path fill="#232323" d="M130.561,133.01c-0.231-0.599-0.693-1.08-1.281-1.336l-2.643-1.161c1.622-1.123,1.374-3.623-0.488-4.368
		l-29.57-13c-1.512-0.605-2.737,0.444-3.102,1.082l-7.455,13.045c-0.686,1.2-0.268,2.728,0.933,3.415
		c0.124,0.07,0.251,0.13,0.385,0.179l12.823,5.311l-3.261,8.69h-7.457v-3.128c0-0.69-0.561-1.25-1.25-1.25h-1.251
		c-0.691,0-1.251,0.56-1.251,1.25v10.009c0,0.69,0.56,1.25,1.251,1.25h1.251c0.69,0,1.25-0.56,1.25-1.25v-3.128h8.756
		c0.783,0,1.482-0.484,1.757-1.217l3.671-9.79l5.936,2.459c1.001,0.363,1.954-0.089,2.181-0.229l1.625-1.017l10.698,4.705
		l0.007,0.004c1.226,0.526,2.646-0.032,3.187-1.25l3.256-7.415C130.783,134.278,130.797,133.608,130.561,133.01L130.561,133.01z"/>
	<polygon fill="#444444" points="110.306,136.313 89.986,127.896 96.176,117.066 122.55,128.661 	"/>
</g>
<g>
	<path fill="#232323" d="M243.437,133.01c-0.236,0.599-0.222,1.268,0.041,1.855l3.257,7.416c0.54,1.218,1.961,1.776,3.186,1.25
		l0.008-0.004l10.697-4.705l1.626,1.017c0.226,0.141,1.18,0.593,2.181,0.229l5.936-2.459l3.672,9.79
		c0.274,0.732,0.975,1.217,1.757,1.217h8.757v3.128c0,0.69,0.559,1.25,1.249,1.25h1.251c0.689,0,1.25-0.56,1.25-1.25v-10.009
		c0-0.69-0.561-1.25-1.25-1.25h-1.251c-0.69,0-1.249,0.56-1.249,1.25v3.128h-7.457l-3.261-8.689l12.822-5.311
		c0.134-0.049,0.262-0.108,0.384-0.179c1.201-0.686,1.618-2.214,0.932-3.415l-7.453-13.045c-0.363-0.638-1.589-1.686-3.102-1.082
		l-29.57,13c-1.862,0.746-2.111,3.246-0.488,4.368l-2.643,1.161C244.129,131.93,243.668,132.411,243.437,133.01L243.437,133.01z"/>
	<polygon fill="#444444" points="251.448,128.661 277.821,117.066 284.011,127.896 263.691,136.313 	"/>
</g>
<g>
	<rect x="150.62" y="227.784" fill="none" width="6.878" height="8.296"/>
	<text transform="matrix(1 0 0 1 150.9541 235.0977)" fill="#3654FF" font-family="'DMSans-Bold'" font-size="9.6">P</text>
	
		<line fill="none" stroke="#3654FF" stroke-width="0.8" stroke-miterlimit="10" x1="150.974" y1="230.451" x2="157.612" y2="230.451"/>
</g>
<g>
	<g>
		
			<line fill="none" stroke="#FF2402" stroke-width="1.6" stroke-linecap="round" stroke-miterlimit="10" x1="183.782" y1="184.71" x2="192.582" y2="175.91"/>
	</g>
	<g>
		
			<line fill="none" stroke="#FF2402" stroke-width="1.6" stroke-linecap="round" stroke-miterlimit="10" x1="192.582" y1="184.708" x2="183.782" y2="175.91"/>
	</g>
</g>
<g>
	<g>
		
			<line fill="none" stroke="#FF2402" stroke-width="1.6" stroke-linecap="round" stroke-miterlimit="10" x1="139.516" y1="218.576" x2="148.315" y2="209.776"/>
	</g>
	<g>
		
			<line fill="none" stroke="#FF2402" stroke-width="1.6" stroke-linecap="round" stroke-miterlimit="10" x1="148.315" y1="218.575" x2="139.516" y2="209.776"/>
	</g>
</g>
<g>
	<g>
		
			<line fill="none" stroke="#FF2402" stroke-width="1.6" stroke-linecap="round" stroke-miterlimit="10" x1="185.116" y1="219.909" x2="193.915" y2="211.109"/>
	</g>
	<g>
		
			<line fill="none" stroke="#FF2402" stroke-width="1.6" stroke-linecap="round" stroke-miterlimit="10" x1="193.915" y1="219.908" x2="185.116" y2="211.109"/>
	</g>
</g>
</svg>
