<?xml version="1.0" encoding="utf-8"?>
<!-- Generator: Adobe Illustrator 16.0.4, SVG Export Plug-In . SVG Version: 6.00 Build 0)  -->
<!DOCTYPE svg PUBLIC "-//W3C//DTD SVG 1.1//EN" "http://www.w3.org/Graphics/SVG/1.1/DTD/svg11.dtd">
<svg version="1.1" id="Layer_1" xmlns="http://www.w3.org/2000/svg" xmlns:xlink="http://www.w3.org/1999/xlink" x="0px" y="0px"
	 width="375px" height="375px" viewBox="0 0 375 375" enable-background="new 0 0 375 375" xml:space="preserve">
<path fill="#444444" d="M154.312,158.418c1.332-12.459,6.502-27.662,16.345-33.152c4.219-2.354,9.13-4.057,15.898-5.199
	c1.607,0.266,3.104,0.564,4.52,0.896c0.245,0.058,0.482,0.118,0.724,0.178c0.419,0.104,0.833,0.21,1.237,0.32
	c0.257,0.069,0.51,0.14,0.76,0.212c0.406,0.116,0.805,0.239,1.197,0.363c0.203,0.065,0.414,0.127,0.615,0.194
	c0.564,0.187,1.115,0.381,1.651,0.582c0.157,0.059,0.308,0.122,0.463,0.183c0.402,0.156,0.801,0.316,1.188,0.481
	c0.183,0.078,0.361,0.157,0.541,0.237c0.37,0.164,0.734,0.333,1.092,0.506c0.153,0.073,0.309,0.146,0.459,0.222
	c0.498,0.248,0.99,0.501,1.469,0.766c10.559,5.84,15.807,22.829,16.703,35.684c0.078,1.869,0.115,3.661,0.11,5.346
	c-0.007,4.35-0.273,7.962-0.791,10.146c-0.024,0.101-0.069,0.199-0.099,0.299c-2.627,11.957-15.833,21.07-31.76,21.098
	c-17.834,0.035-32.312-11.33-32.338-25.385c0-0.129,0.009-0.256,0.011-0.385C154.028,168.383,154.02,163.599,154.312,158.418z"/>
<path fill="#FFFFFF" d="M162.757,123.559c4.077-4.657,9.374-6.947,19.812-7.404c0.164-0.008,0.334-0.013,0.5-0.02
	c0.526-0.02,1.059-0.037,1.611-0.049c0.546-0.011,1.102-0.019,1.675-0.021c0.067,0,0.126-0.002,0.193-0.002h0.013
	c0.02,0,0.04,0,0.061,0c0.012,0,0.021,0,0.034,0h0.009c0.038,0,0.074,0.001,0.112,0.001c0.604,0,1.192,0.006,1.768,0.017
	c0.657,0.01,1.29,0.028,1.909,0.052c0.06,0.003,0.122,0.004,0.183,0.007c10.447,0.417,15.754,2.688,19.848,7.332
	c5.416,6.143,8.178,23.729,8.749,37.419c-0.896-12.855-6.145-29.845-16.702-35.684c-4.227-2.337-9.145-4.023-15.916-5.14
	c-6.768,1.143-11.676,2.846-15.897,5.199c-10.536,5.877-15.72,22.887-16.569,35.743
	C154.668,147.319,157.365,129.721,162.757,123.559z"/>
<path fill="#FFFFFF" d="M186.745,74.935c5.764-0.012,12.488-2.284,16.298-3.256c4.465-1.138,6.586-1.175,9.881-1.181
	c9.973-0.02,13.047,5.205,13.888,7.337c-6.579-20.202-27.388-23.001-39.682-22.979l-1.014,0.003
	c-12.292,0.022-33.091,2.896-39.597,23.124c0.832-2.136,3.889-7.37,13.862-7.391c3.292-0.006,5.416,0.024,9.884,1.146
	c3.816,0.958,10.547,3.207,16.312,3.196H186.745z"/>
<path fill="#444444" d="M146.555,78.002l-0.035-0.018c0.833-2.135,3.89-7.371,13.862-7.391c3.293-0.007,5.417,0.023,9.885,1.146
	c3.816,0.958,10.547,3.207,16.312,3.195h0.166c5.764-0.011,12.488-2.283,16.298-3.255c4.465-1.138,6.586-1.176,9.881-1.181
	c9.973-0.02,13.047,5.205,13.888,7.337l-0.034,0.018c2.112,2.018,3.525,7.328,3.35,13.533c-0.219,7.869-2.9,14.183-5.986,14.098
	c-0.059-0.002-0.114-0.021-0.172-0.027c-7.146,14.439-26.793,21.166-37.107,21.186c-10.312,0.018-30.127-6.635-37.379-21.051
	c-0.066,0.008-0.126,0.029-0.193,0.031c-3.082,0.094-5.789-6.208-6.036-14.076C143.058,85.341,144.448,80.028,146.555,78.002z"/>
<path fill="#7F7F7F" d="M186.781,116.22c5.211-0.01,16.269-4.858,16.246-15.46c-0.019-10.6-12.225-11.419-16.334-11.411
	c-4.11,0.007-16.326,0.871-16.307,11.47C170.407,111.422,181.567,116.229,186.781,116.22z"/>
<path fill="#232323" d="M186.449,92.13c-2.265,0.005-5.608,2.375-6,5.134c-0.387,2.759,6.164,2.648,6.164,2.648h0.188
	c0,0,6.55,0.086,6.152-2.673c-0.398-2.756-3.752-5.114-6.02-5.109H186.449z"/>
<g>
	<circle fill="#232323" cx="203.392" cy="84.064" r="2.002"/>
	<path fill="#232323" d="M167.961,84.129c0.002,1.108,0.899,2,2.007,1.999c1.103-0.002,1.998-0.899,1.998-2.005
		c-0.002-1.107-0.9-2.002-2.005-2C168.853,82.125,167.958,83.023,167.961,84.129z"/>
</g>
<path fill="#232323" d="M150.808,82.496c-2.542,0.1-4.596,4.895-5.372,11.663c-0.091-0.851-0.155-1.735-0.18-2.651
	c-0.166-6.186,1.334-11.262,3.344-11.34c0.857-0.032,1.665,0.851,2.327,2.343C150.889,82.511,150.848,82.496,150.808,82.496z"/>
<path fill="#232323" d="M222.541,82.365c2.54,0.09,4.615,4.877,5.417,11.644c0.088-0.852,0.147-1.737,0.168-2.654
	c0.142-6.185-1.377-11.257-3.386-11.326c-0.854-0.028-1.662,0.857-2.319,2.352C222.462,82.38,222.5,82.365,222.541,82.365z"/>
<path fill="none" stroke="#7F7F7F" stroke-width="1.576" stroke-linecap="round" stroke-miterlimit="10" d="M207.204,78.152
	c-0.519-0.48-1.122-0.849-1.772-1.094c-0.649-0.245-1.345-0.366-2.049-0.347c-0.705,0.017-1.418,0.174-2.102,0.482
	s-1.271,0.743-1.749,1.262"/>
<path fill="none" stroke="#7F7F7F" stroke-width="1.576" stroke-linecap="round" stroke-miterlimit="10" d="M173.694,78.152
	c-0.519-0.48-1.122-0.849-1.771-1.094c-0.649-0.245-1.347-0.366-2.051-0.347c-0.703,0.017-1.417,0.174-2.101,0.482
	c-0.683,0.31-1.271,0.743-1.75,1.262"/>
<path fill="none" stroke="#232323" stroke-width="1.4278" stroke-linecap="round" stroke-miterlimit="10" d="M194.692,110.891
	c-0.436-1.039-1.071-1.977-1.854-2.764c-0.783-0.788-1.721-1.423-2.758-1.865c-1.034-0.441-2.177-0.686-3.376-0.688
	c-1.199-0.002-2.34,0.237-3.382,0.677c-1.04,0.438-1.975,1.07-2.762,1.854s-1.425,1.72-1.867,2.758"/>
<ellipse opacity="0.3" fill="#232323" enable-background="new    " cx="187" cy="308.07" rx="68.608" ry="11.074"/>
<g>
	<circle fill="#3050C4" cx="186.301" cy="216.405" r="90"/>
	<path fill="none" d="M273.488,201.406c1.381,0.559,2.414-0.519,3.92-1.852c1.505-1.332-3.187-2.972-5.554-3.831
		c-1.964-0.712-2.184-0.007-2.765,0.229c0.339,1.376,0.644,2.766,0.914,4.166C271.259,200.253,272.415,200.97,273.488,201.406z"/>
	<path fill="none" d="M271.854,207.736c-0.143-0.269-0.382-0.465-0.789-0.562c0.172,1.597,0.305,3.206,0.388,4.828
		C272.348,210.379,272.104,208.211,271.854,207.736z"/>
	<g>
		<path fill="#3050C4" d="M155.846,279.155c-2.473-2.228-9.787-10.024-10.274-16.268c-0.379-4.548,2.565-7.341,4.342-9.129
			c0.583-0.503,1.167-1.007,1.192-1.284c0.053-0.559-3.457-3.174-5.981-4.844c-0.479-0.613-1.25-0.973-1.995-1.614
			c-2.525-1.669-3.405-3.731-4.071-5.208c-0.213-0.586-0.427-1.17-0.693-1.197c-0.53-0.055-1.275-0.695-2.286-1.363
			c-2.019-1.336-5.29-3.644-8.238-3.668c-4.779-0.493-8.984-7.125-9.172-7.988c-0.187-0.863-1.898-8.365-2.617-9.283
			c-0.957-1.225-7.48-11.757-8.599-14.125c-1.358-2.675-0.819-14.166,3.022-20.811c1.531-2.656,1.941-5.799,1.917-8.505
			c-7.221,12.521-11.354,27.046-11.354,42.537c0,35.861,22.142,66.548,53.498,79.145c0.139-0.491,0.288-0.938,0.431-1.275
			C156.238,292.152,158.186,279.961,155.846,279.155z"/>
		<path fill="#3050C4" d="M247.442,267.536c1.551-2.066,0-9.815-2.754-12.915c-2.757-3.101,0-6.2-0.345-7.75
			c-0.346-1.55-2.584,0-3.788-1.688c-1.207-1.689,6.199-4.855-6.028-1.414c-12.228,3.442-12.228,0-16.532-3.958
			c-4.304-3.96-2.583-4.649-2.929-12.054c-0.343-7.404,5.857-8.781,8.44-12.797c2.583-4.015,5.338-5.974,15.325-7.523
			c9.99-1.55,6.373,2.581,6.373,4.104c0,1.523,9.643,3.989,9.643,3.301c0-0.688-1.205-3.616,1.033-3.271
			c1.207,0.346,12.916,2.238,12.916,2.238c1.351-0.197,2.169-0.923,2.656-1.807c-0.083-1.622-0.216-3.231-0.388-4.828
			c-0.701-0.168-1.91-0.036-4.035,0.562c-3.357,0.946-5.339-2.325-5.509-4.479c-0.174-2.153,5.723-2.754,7.402-3.1
			c0.369-0.076,0.728-0.076,1.08-0.039c-0.271-1.4-0.575-2.79-0.914-4.166c-0.12,0.049-0.254,0.08-0.424,0.072
			c-0.989-0.044-1.68-1.247-2.325-2.238c-0.644-0.988-1.809,1.379-2.151,2.111c-0.348,0.73-0.732,2.324-0.602,3.616
			c0.129,1.291-0.774,1.724-1.465,2.153s-0.775-0.172-1.377-0.517c-0.601-0.346-2.066,0.214-2.712,1.55
			c-0.646,1.334,0.214,4.391,0.087,4.434c-0.127,0.045-1.55-0.43-2.583-1.721c-1.033-1.292-2.24-4.477-2.367-5.426
			c-0.13-0.948-2.712-3.4-4.477-4.004c-1.768-0.601-0.218,1.982,0.085,2.455c0.301,0.474,2.625,2.152,2.757,3.315
			c0.129,1.16-2.282,5.251-1.679,3.788c0.602-1.464-1.207-2.154-1.725-3.271c-0.517-1.118-2.496-2.325-4.217-4.221
			c-1.724-1.895-2.412-0.086-3.532-0.603c-1.118-0.517-2.066,0.69-3.101,0.432c-1.032-0.259-0.688,1.205-0.773,2.583
			c-0.086,1.379-0.602,0.688-2.238,2.325s-1.379,2.841-2.325,3.438c-0.946,0.598-2.842,1.125-5.683,1.212
			c-2.842,0.087-2.67-1.291-2.584-2.757c0.088-1.466,0.518-3.442,1.379-5.251c0.859-1.809,5.425-0.946,6.371-1.207
			c0.946-0.262,0.345-1.725,0.345-3.489c0-1.764-2.153-2.67-3.055-3.272c-0.905-0.604,0.904-0.689,2.971-1.205
			c2.066-0.517,3.358-1.551,3.874-2.627c0.517-1.076,3.016-3.23,4.178-4.048c1.16-0.819,2.24-1.118,3.1-1.722
			c0.864-0.604,2.475,1.033,2.475,1.033l7.622-1.227c0,0,1.485-0.842,1.743-2.262c0.259-1.42,0.259-1.611,1.229-3.938
			c0.583-1.399,2.309-2.259,3.593-2.794c-0.199-0.332-0.4-0.663-0.604-0.993c-0.679,0.034-1.486,0.123-2.409,0.299
			c-2.71,0.517-2.193-1.484-2.71-2.647c-0.464-1.045-0.089-1.58,1.065-3.637c-0.447-0.604-0.901-1.203-1.364-1.795
			c-0.178,0.032-0.358,0.06-0.541,0.071c-2.002,0.13-1.743,2.776-2.325,3.488c-0.581,0.71-0.772,1.355-0.322,3.811
			c0.451,2.455-2.131,7.942-3.487,8.202c-1.356,0.261-3.294-3.744-3.616-4.261c-0.323-0.517-2.648,1.55-4.263,1.55
			s-1.614-4.975-0.581-6.588c1.033-1.615,4.63-4.07,5.921-6.824c1.027-2.191,1.741-4.062,3.241-6.293
			c-15.496-15.979-37.189-25.912-61.207-25.912c-14.516,0-28.182,3.632-40.146,10.029c1.884,0.423,4.049,0.712,5.656,0.691
			c2.948,0.022,6.666,0.406,10.838,1.682c1.302,0.417,2.363,0.526,3.159,0.609c1.86,0.191,3.188,0.329,4.041,2.67
			c1.01,0.668,3.828,2.085,3.937,3.786c-0.053,0.559-0.396,1.367-1.246,1.844c-0.875,0.754-6.235,3.58-8.438,4.197
			c-1.38,0.421-8.172,4.225-8.781,5.007c-0.027,0.279-0.262,2.79-0.471,5.021c1.542,0.724,5.369,2.81,6.034,4.286
			c0.239,0.305,0.506,0.332,1.302,0.415c0.532,0.055,1.088-0.169,1.567,0.443c0.24,0.307,0.479,0.613,0.428,1.171l-0.053,0.559
			c-0.34,3.625,0.086,4.797,0.326,5.103c0.318-0.53,0.423-1.646,0.767-2.456c0.474-2.203,0.923-4.129,2.517-3.965
			c0.531,0.056,1.406-0.698,2.068-2.038c0.609-0.783,0.396-1.367,0.396-1.367c-0.984-0.948-0.536-2.872,1.294-5.218
			c0.025-0.279,0.292-0.252,0.318-0.53c0.952-1.592,2.172-3.156,3.527-3.297c0.53,0.055,1.061,0.109,1.54,0.722
			c0.985,0.947,2.182,2.479,3.139,3.704c0.718,0.919,1.198,1.532,1.438,1.839c0.503,0.333,0.692,1.198,0.614,2.034
			c-0.026,0.279,0.186,0.865,0.16,1.143c1.115-0.446,3.053-1.093,4.062-0.425c0.505,0.335,0.744,0.641,0.959,1.226
			c0.212,0.586,0.134,1.422,0.322,2.288c0.16,1.143,0.483,3.428,0.962,4.041c0.719,0.919,1.942,2.172,2.581,3.928
			c-0.025,0.279,0.212,0.586,0.453,0.893c0.454,0.892,0.904,1.782,0.562,2.593c-0.317,0.529-0.901,1.033-2.017,1.481
			c-1.671,0.672-3.266,0.507-4.62,0.648c-1.354,0.143-2.682,0.006-3.53,0.48c-1.697,0.951-2.333,2.013-1.72,4.047
			c-0.026,0.279,0.214,0.586,0.188,0.865c0.16,1.143,0.613,2.033,0.003,2.816c-0.343,0.809-1.168,1.006-2.521,1.147
			c-0.265-0.027-0.822,0.196-1.354,0.142c-2.15,0.059-5.655,0.261-5.759,1.376c-0.183,1.953-1.855,2.625-2.969,3.074
			c-0.292,0.25-0.849,0.475-1.141,0.727c-0.292,0.251-0.584,0.503-1.141,0.726c-1.142,0.729-4.537,2.63-4.615,3.468
			c0.347,2.007-2.383,5.387-4.345,6.31c-1.406,0.699-3.58,3.855-3.924,4.664c-0.026,0.279-0.053,0.559-0.104,1.115
			c-0.131,1.396-0.314,3.349-1.668,3.488c-0.796-0.082-1.489-1.278-2.421-2.782c-0.452-0.893-1.385-2.397-1.916-2.452
			c-0.797-0.082-2.125-0.22-3.213-0.05c-1.354,0.142-2.708,0.284-3.771,0.174c-3.452-0.356-6.187,0.205-6.239,0.764
			c-0.317,0.53-0.662,1.34-1.032,2.427c-1.006,2.151-3.043,6.727-1.793,7.702c2.259,1.643,4.04,2.671,5.103,2.78
			c0.266,0.027,1.407-0.699,2.255-1.176c1.724-1.229,3.423-2.182,4.458-1.791c0.266,0.027,0.506,0.332,0.746,0.638
			c0.452,0.894-0.209,2.233-1.19,4.102c-0.292,0.253-0.635,1.062-0.661,1.34c0.238,0.308,1.035,0.391,1.54,0.724
			c2.339,0.805,3.615,1.5,3.827,2.086c0.24,0.306,0.428,1.169,0.297,2.564c-0.079,0.836-0.022,3.098,0.218,3.402
			c1.275,0.695,6.218,2.331,7.04,2.136c0.265,0.027,0.824-0.195,1.38-0.422c2.76-0.839,5.255-1.71,6.771-0.708
			c1.781,1.027,4.145,1.556,5.738,1.721c1.859,0.191,7.837,2.217,9.223,4.613c1.146,2.09,3.749,2.923,4.28,2.978
			c1.062,0.11,4.921,4.733,4.764,6.405c0.186,0.863,4.199,3.814,5.262,3.924c0.822-0.198,5.818,0.883,6.483,2.359l0.238,0.308
			c0.694,1.196,2.264,4.458-0.017,5.911c-1.14,0.727-3.658,4.691-5.299,7.902c-0.661,1.34-10.766,9.025-12.173,9.728
			c-1.115,0.445-4.032,2.961-4.959,4.272c-0.636,1.062-2.042,1.762-3.423,2.183c-0.557,0.224-1.115,0.448-1.406,0.699
			c-0.317,0.531-1.22,1.565-2.385,2.57l-8.438,0.214c8.231,2.646,17.006,4.081,26.117,4.081c24.527,0,46.631-10.36,62.187-26.938
			C247.759,271.692,246.342,269.005,247.442,267.536z M228.598,175.531c0.775-0.127,2.232,1.486,2.232,1.486
			s-0.037,1.164,0.414,2.389c0.454,1.227,1.746,3.036,2.842,5.23c1.098,2.195-1.875,3.358-4.522,3.617
			c-2.646,0.258,0-3.555,0.453-4.328c0.452-0.771-0.259-2.583-0.453-3.228c-0.19-0.647-1.936-1.548-2.194-2.711
			C227.111,176.823,228.598,175.531,228.598,175.531z M226.145,180.956c2.648-0.71,1.42,2.973,0.646,3.812
			c-0.774,0.838-3.423,0.646-3.423,0S226.145,180.956,226.145,180.956z"/>
	</g>
	<g>
		<g>
			<path fill="#3ED033" d="M171.007,294.804c0.291-0.251,0.849-0.476,1.406-0.699c1.381-0.421,2.787-1.12,3.423-2.183
				c0.927-1.312,3.844-3.827,4.959-4.272c1.407-0.702,11.512-8.388,12.173-9.728c1.641-3.211,4.159-7.176,5.299-7.902
				c2.28-1.453,0.711-4.715,0.017-5.911l-0.238-0.308c-0.665-1.477-5.661-2.558-6.483-2.359c-1.063-0.109-5.076-3.061-5.262-3.924
				c0.157-1.672-3.703-6.295-4.764-6.405c-0.531-0.055-3.135-0.888-4.28-2.978c-1.386-2.396-7.363-4.422-9.223-4.613
				c-1.594-0.165-3.957-0.693-5.738-1.721c-1.516-1.002-4.011-0.131-6.771,0.708c-0.556,0.227-1.115,0.449-1.38,0.422
				c-0.822,0.195-5.764-1.44-7.04-2.136c-0.24-0.305-0.296-2.566-0.218-3.402c0.131-1.396-0.057-2.259-0.297-2.564
				c-0.212-0.586-1.488-1.281-3.827-2.086c-0.505-0.333-1.302-0.416-1.54-0.724c0.026-0.277,0.369-1.087,0.661-1.34
				c0.981-1.868,1.642-3.208,1.19-4.102c-0.24-0.306-0.48-0.61-0.746-0.638c-1.035-0.391-2.734,0.562-4.458,1.791
				c-0.849,0.477-1.989,1.203-2.255,1.176c-1.062-0.109-2.843-1.138-5.103-2.78c-1.25-0.976,0.788-5.551,1.793-7.702
				c0.371-1.087,0.715-1.896,1.032-2.427c0.053-0.559,2.787-1.12,6.239-0.764c1.062,0.11,2.416-0.032,3.771-0.174
				c1.088-0.17,2.416-0.032,3.213,0.05c0.531,0.055,1.463,1.56,1.916,2.452c0.932,1.504,1.625,2.7,2.421,2.782
				c1.354-0.14,1.537-2.093,1.668-3.488c0.052-0.557,0.078-0.836,0.104-1.115c0.344-0.809,2.518-3.965,3.924-4.664
				c1.962-0.923,4.691-4.303,4.345-6.31c0.078-0.838,3.474-2.739,4.615-3.468c0.557-0.223,0.848-0.475,1.141-0.726
				c0.292-0.252,0.849-0.477,1.141-0.727c1.114-0.449,2.786-1.121,2.969-3.074c0.104-1.115,3.609-1.317,5.759-1.376
				c0.532,0.055,1.09-0.169,1.354-0.142c1.354-0.142,2.179-0.339,2.521-1.147c0.61-0.783,0.157-1.674-0.003-2.816
				c0.026-0.279-0.215-0.586-0.188-0.865c-0.614-2.034,0.022-3.096,1.72-4.047c0.848-0.475,2.177-0.338,3.53-0.48
				c1.354-0.142,2.949,0.023,4.62-0.648c1.115-0.448,1.699-0.952,2.017-1.481c0.343-0.811-0.107-1.701-0.562-2.593
				c-0.241-0.307-0.479-0.613-0.453-0.893c-0.639-1.756-1.862-3.009-2.581-3.928c-0.479-0.613-0.802-2.898-0.962-4.041
				c-0.188-0.866-0.11-1.702-0.322-2.288c-0.215-0.585-0.454-0.891-0.959-1.226c-1.009-0.668-2.947-0.021-4.062,0.425
				c0.025-0.277-0.187-0.863-0.16-1.143c0.078-0.836-0.11-1.701-0.614-2.034c-0.24-0.307-0.72-0.92-1.438-1.839
				c-0.957-1.225-2.154-2.757-3.139-3.704c-0.479-0.612-1.01-0.667-1.54-0.722c-1.355,0.141-2.575,1.705-3.527,3.297
				c-0.026,0.278-0.293,0.251-0.318,0.53c-1.83,2.346-2.278,4.27-1.294,5.218c0,0,0.214,0.584-0.396,1.367
				c-0.662,1.34-1.537,2.094-2.068,2.038c-1.594-0.164-2.043,1.762-2.517,3.965c-0.344,0.811-0.448,1.926-0.767,2.456
				c-0.24-0.306-0.666-1.478-0.326-5.103l0.053-0.559c0.052-0.558-0.188-0.864-0.428-1.171c-0.479-0.612-1.036-0.389-1.567-0.443
				c-0.796-0.083-1.062-0.11-1.302-0.415c-0.666-1.477-4.493-3.562-6.034-4.286c0.209-2.23,0.444-4.741,0.471-5.021
				c0.609-0.782,7.401-4.586,8.781-5.007c2.203-0.617,7.562-3.443,8.438-4.197c0.849-0.477,1.193-1.285,1.246-1.844
				c-0.109-1.701-2.926-3.118-3.937-3.786c-0.853-2.341-2.181-2.479-4.041-2.67c-0.796-0.083-1.857-0.192-3.159-0.609
				c-4.172-1.275-7.89-1.659-10.838-1.682c-1.607,0.021-3.772-0.269-5.656-0.691c-14.08,7.529-25.801,18.891-33.764,32.696
				c0.023,2.706-0.387,5.849-1.917,8.505c-3.841,6.645-4.38,18.136-3.022,20.811c1.119,2.368,7.642,12.9,8.599,14.125
				c0.719,0.918,2.43,8.42,2.617,9.283c0.188,0.863,4.393,7.495,9.172,7.988c2.948,0.024,6.219,2.332,8.238,3.668
				c1.011,0.668,1.756,1.309,2.286,1.363c0.266,0.027,0.479,0.611,0.693,1.197c0.666,1.477,1.545,3.539,4.071,5.208
				c0.745,0.642,1.516,1.001,1.995,1.614c2.525,1.67,6.034,4.285,5.981,4.844c-0.025,0.277-0.609,0.781-1.192,1.284
				c-1.776,1.788-4.721,4.581-4.342,9.129c0.487,6.243,7.802,14.04,10.274,16.268c2.34,0.806,0.393,12.997-0.878,15.119
				c-0.143,0.337-0.292,0.784-0.431,1.275c1.852,0.744,3.735,1.423,5.648,2.038l8.438-0.214
				C169.787,296.369,170.69,295.335,171.007,294.804z"/>
			<path fill="#3ED033" d="M229.563,180.698c0.194,0.645,0.905,2.456,0.453,3.228c-0.453,0.773-3.1,4.586-0.453,4.328
				c2.647-0.259,5.62-1.422,4.522-3.617c-1.096-2.194-2.388-4.004-2.842-5.23c-0.451-1.225-0.414-2.389-0.414-2.389
				s-1.457-1.613-2.232-1.486c0,0-1.486,1.292-1.229,2.456C227.628,179.15,229.373,180.051,229.563,180.698z"/>
			<path fill="#3ED033" d="M226.79,184.768c0.774-0.839,2.003-4.521-0.646-3.812c0,0-2.777,3.165-2.777,3.812
				S226.016,185.605,226.79,184.768z"/>
			<path fill="#3ED033" d="M253.78,169.33c0.517,1.163,0,3.164,2.71,2.647c0.923-0.176,1.73-0.265,2.409-0.299
				c-1.269-2.055-2.62-4.052-4.054-5.985C253.691,167.75,253.316,168.285,253.78,169.33z"/>
			<path fill="#3ED033" d="M255.911,175.466c-0.971,2.327-0.971,2.519-1.229,3.938c-0.258,1.42-1.743,2.262-1.743,2.262
				l-7.622,1.227c0,0-1.61-1.637-2.475-1.033c-0.859,0.604-1.939,0.902-3.1,1.722c-1.162,0.817-3.661,2.972-4.178,4.048
				c-0.516,1.076-1.808,2.11-3.874,2.627c-2.066,0.516-3.876,0.602-2.971,1.205c0.901,0.603,3.055,1.509,3.055,3.272
				c0,1.765,0.602,3.228-0.345,3.489c-0.946,0.261-5.512-0.602-6.371,1.207c-0.861,1.809-1.291,3.785-1.379,5.251
				c-0.086,1.466-0.258,2.844,2.584,2.757c2.841-0.087,4.736-0.614,5.683-1.212c0.946-0.597,0.688-1.801,2.325-3.438
				s2.152-0.946,2.238-2.325c0.086-1.378-0.259-2.842,0.773-2.583c1.034,0.259,1.982-0.948,3.101-0.432
				c1.12,0.517,1.809-1.292,3.532,0.603c1.721,1.896,3.7,3.103,4.217,4.221c0.518,1.117,2.326,1.808,1.725,3.271
				c-0.604,1.463,1.808-2.628,1.679-3.788c-0.132-1.163-2.456-2.842-2.757-3.315c-0.303-0.473-1.853-3.056-0.085-2.455
				c1.765,0.604,4.347,3.056,4.477,4.004c0.127,0.949,1.334,4.134,2.367,5.426c1.033,1.291,2.456,1.766,2.583,1.721
				c0.127-0.043-0.732-3.1-0.087-4.434c0.646-1.336,2.111-1.896,2.712-1.55c0.602,0.345,0.687,0.946,1.377,0.517
				s1.594-0.862,1.465-2.153c-0.131-1.292,0.254-2.886,0.602-3.616c0.343-0.732,1.508-3.1,2.151-2.111
				c0.646,0.991,1.336,2.194,2.325,2.238c0.17,0.008,0.304-0.023,0.424-0.072c-2.046-8.306-5.307-16.133-9.586-23.281
				C258.22,173.207,256.494,174.066,255.911,175.466z"/>
			<path fill="#3ED033" d="M238.346,170.172c-1.033,1.613-1.033,6.588,0.581,6.588s3.939-2.066,4.263-1.55
				c0.322,0.517,2.26,4.521,3.616,4.261c1.356-0.26,3.938-5.747,3.487-8.202c-0.45-2.455-0.259-3.101,0.322-3.811
				c0.582-0.712,0.323-3.358,2.325-3.488c0.183-0.012,0.363-0.039,0.541-0.071c-1.869-2.388-3.865-4.67-5.974-6.844
				c-1.5,2.23-2.214,4.102-3.241,6.293C242.976,166.102,239.379,168.557,238.346,170.172z"/>
			<path fill="#3ED033" d="M268.924,200.158c-1.68,0.346-7.576,0.946-7.402,3.1c0.17,2.153,2.151,5.425,5.509,4.479
				c2.125-0.599,3.334-0.73,4.035-0.562c-0.257-2.383-0.612-4.734-1.062-7.055C269.651,200.082,269.293,200.082,268.924,200.158z"/>
			<path fill="#3ED033" d="M271.543,218.123c0.012-0.572,0.021-1.144,0.021-1.718c0-1.477-0.037-2.944-0.111-4.403
				c-0.487,0.884-1.306,1.609-2.656,1.807c0,0-11.709-1.893-12.916-2.238c-2.238-0.345-1.033,2.584-1.033,3.271
				c0,0.688-9.643-1.777-9.643-3.301c0-1.522,3.617-5.653-6.373-4.104c-9.987,1.55-12.742,3.509-15.325,7.523
				c-2.583,4.016-8.783,5.393-8.44,12.797c0.346,7.404-1.375,8.094,2.929,12.054c4.305,3.958,4.305,7.4,16.532,3.958
				c12.228-3.441,4.821-0.275,6.028,1.414c1.204,1.688,3.442,0.138,3.788,1.688c0.345,1.55-2.412,4.649,0.345,7.75
				c2.754,3.1,4.305,10.849,2.754,12.915c-1.101,1.469,0.316,4.156,1.046,7.194c13.551-14.442,22.125-33.604,22.996-54.756
				L271.543,218.123z"/>
		</g>
	</g>
</g>
<g>
	<path fill="#D0DAE3" d="M135.277,183.105c0.54,0.665,1.188,1.257,1.949,1.746c3.846,2.484,8.978,1.38,11.466-2.469
		c1.324-2.054,1.627-4.473,1.037-6.659c-0.2,1.368-0.688,2.719-1.489,3.956C145.428,184.037,139.786,185.464,135.277,183.105z"/>
	<path fill="#E7ECF0" d="M134.756,173.387c-1.995,3.091-1.678,7.008,0.524,9.719c4.507,2.358,10.147,0.932,12.962-3.426
		c0.801-1.237,1.288-2.587,1.488-3.956c-0.513-1.912-1.712-3.648-3.51-4.807C142.376,168.432,137.238,169.537,134.756,173.387z"/>
</g>
<g>
	<path fill="#D0DAE3" d="M139.369,248.162c0.54,0.666,1.189,1.258,1.949,1.746c3.846,2.484,8.979,1.381,11.466-2.468
		c1.324-2.054,1.627-4.474,1.037-6.659c-0.2,1.367-0.688,2.719-1.488,3.955C149.519,249.095,143.877,250.521,139.369,248.162z"/>
	<path fill="#E7ECF0" d="M138.847,238.443c-1.994,3.091-1.677,7.009,0.524,9.719c4.507,2.358,10.148,0.933,12.962-3.426
		c0.801-1.236,1.288-2.586,1.489-3.955c-0.513-1.912-1.712-3.648-3.51-4.807C146.467,233.488,141.329,234.594,138.847,238.443z"/>
</g>
<g>
	<path fill="#D0DAE3" d="M117.909,203.865c0.644,0.564,1.385,1.038,2.217,1.392c4.21,1.797,9.082-0.16,10.882-4.374
		c0.958-2.248,0.847-4.684-0.105-6.739c0.035,1.383-0.218,2.797-0.797,4.151C128.07,203.065,122.752,205.427,117.909,203.865z"/>
	<path fill="#E7ECF0" d="M115.75,194.375c-1.442,3.384-0.467,7.191,2.162,9.49c4.84,1.561,10.158-0.8,12.195-5.571
		c0.579-1.354,0.831-2.767,0.797-4.15c-0.829-1.798-2.306-3.306-4.273-4.143C122.422,188.202,117.545,190.161,115.75,194.375z"/>
</g>
<g>
	<path fill="#D0DAE3" d="M227.982,185.83c0.54,0.666,1.189,1.258,1.949,1.746c3.846,2.484,8.979,1.381,11.466-2.469
		c1.324-2.053,1.627-4.473,1.037-6.658c-0.2,1.367-0.688,2.719-1.488,3.955C238.133,186.762,232.491,188.188,227.982,185.83z"/>
	<path fill="#E7ECF0" d="M227.461,176.111c-1.994,3.091-1.678,7.009,0.525,9.719c4.506,2.358,10.146,0.932,12.961-3.426
		c0.801-1.236,1.288-2.586,1.489-3.955c-0.514-1.912-1.713-3.648-3.511-4.807C235.081,171.156,229.943,172.262,227.461,176.111z"/>
</g>
<g>
	<path fill="#D0DAE3" d="M226.8,208.343c0.539,0.665,1.188,1.257,1.949,1.746c3.846,2.484,8.979,1.38,11.466-2.469
		c1.324-2.054,1.627-4.473,1.036-6.659c-0.2,1.368-0.688,2.719-1.487,3.956C236.95,209.274,231.309,210.701,226.8,208.343z"/>
	<path fill="#E7ECF0" d="M226.278,198.624c-1.995,3.091-1.678,7.008,0.524,9.719c4.507,2.358,10.147,0.932,12.962-3.426
		c0.801-1.237,1.288-2.587,1.488-3.956c-0.514-1.912-1.713-3.648-3.511-4.807C233.898,193.669,228.761,194.774,226.278,198.624z"/>
</g>
<line fill="none" stroke="#FFFFFF" stroke-width="2" stroke-linecap="round" stroke-miterlimit="10" stroke-dasharray="4,7" x1="221.666" y1="208.5" x2="155.333" y2="238.5"/>
<line fill="none" stroke="#FFFFFF" stroke-width="2" stroke-linecap="round" stroke-miterlimit="10" stroke-dasharray="4,7" x1="223.332" y1="179.167" x2="153.666" y2="177.5"/>
<line fill="none" stroke="#FFFFFF" stroke-width="2" stroke-linecap="round" stroke-miterlimit="10" stroke-dasharray="4,7" x1="138.999" y1="232.5" x2="125.333" y2="205.167"/>
<rect x="229.776" y="175.314" fill="none" width="8.598" height="10.369"/>
<text transform="matrix(1 0 0 1 230.627 184.4551)" fill="#3654FF" font-family="'DMSans-Bold'" font-size="12">£</text>
<rect x="137.276" y="172.564" fill="none" width="8.598" height="10.369"/>
<text transform="matrix(1 0 0 1 138.332 181.7051)" fill="#3654FF" font-family="'DMSans-Bold'" font-size="12">$</text>
<rect x="119.192" y="192.814" fill="none" width="8.598" height="10.369"/>
<text transform="matrix(1 0 0 1 120.248 201.9551)" fill="#3654FF" font-family="'DMSans-Bold'" font-size="12">$</text>
<rect x="228.193" y="198.314" fill="none" width="8.598" height="10.369"/>
<text transform="matrix(1 0 0 1 229.3779 207.4551)" fill="#3654FF" font-family="'DMSans-Bold'" font-size="12">€</text>
<g>
	<path fill="#D0DAE3" d="M116.452,119.512c-0.289-0.748-0.866-1.35-1.601-1.67l-3.304-1.452c2.027-1.403,1.717-4.528-0.61-5.46
		L73.974,94.68c-1.89-0.756-3.421,0.555-3.877,1.352l-9.318,16.307c-0.857,1.5-0.335,3.41,1.166,4.268
		c0.154,0.088,0.314,0.162,0.481,0.223l16.028,6.639l-4.076,10.862h-9.321v-3.91c0-0.863-0.7-1.563-1.563-1.563h-1.564
		c-0.864,0-1.564,0.7-1.564,1.563v12.511c0,0.863,0.7,1.563,1.564,1.563h1.564c0.863,0,1.563-0.7,1.563-1.563v-3.91h10.946
		c0.978,0.001,1.853-0.605,2.196-1.521l4.589-12.237l7.42,3.074c1.251,0.454,2.443-0.111,2.726-0.287l2.032-1.271l13.372,5.88
		l0.009,0.006c1.532,0.657,3.307-0.04,3.983-1.563l4.07-9.269C116.729,121.097,116.747,120.261,116.452,119.512L116.452,119.512z"/>
	<polygon fill="#E7ECF0" points="91.133,123.642 65.734,113.12 73.471,99.583 106.438,114.076 	"/>
</g>
<g>
	<path fill="#D0DAE3" d="M257.546,119.512c-0.295,0.749-0.276,1.585,0.052,2.319l4.07,9.269c0.676,1.523,2.451,2.221,3.983,1.563
		l0.009-0.006l13.372-5.88l2.032,1.271c0.282,0.176,1.475,0.741,2.726,0.287l7.42-3.074l4.589,12.237
		c0.344,0.915,1.219,1.521,2.196,1.521h10.946v3.91c0,0.863,0.7,1.563,1.563,1.563h1.563c0.864,0,1.564-0.7,1.564-1.563v-12.511
		c0-0.863-0.7-1.563-1.564-1.563h-1.563c-0.863,0-1.563,0.7-1.563,1.563v3.91h-9.321l-4.076-10.862l16.028-6.639
		c0.167-0.061,0.327-0.135,0.481-0.223c1.501-0.857,2.022-2.768,1.165-4.268l-9.317-16.307c-0.456-0.797-1.987-2.107-3.878-1.352
		l-36.962,16.25c-2.328,0.932-2.639,4.057-0.611,5.46l-3.304,1.452C258.412,118.162,257.835,118.764,257.546,119.512
		L257.546,119.512z"/>
	<polygon fill="#E7ECF0" points="267.561,114.076 300.527,99.583 308.264,113.12 282.865,123.642 	"/>
</g>
<g>
	<rect x="141.526" y="237.98" fill="none" width="8.598" height="10.369"/>
	<text transform="matrix(1 0 0 1 141.9434 247.1211)" fill="#3654FF" font-family="'DMSans-Bold'" font-size="12">P</text>
	<line fill="none" stroke="#3654FF" stroke-miterlimit="10" x1="141.968" y1="241.315" x2="150.266" y2="241.315"/>
</g>
<g>
	<g>
		
			<line fill="none" stroke="#FF2402" stroke-width="2" stroke-linecap="round" stroke-miterlimit="10" x1="182.978" y1="184.137" x2="193.978" y2="173.137"/>
	</g>
	<g>
		
			<line fill="none" stroke="#FF2402" stroke-width="2" stroke-linecap="round" stroke-miterlimit="10" x1="193.978" y1="184.136" x2="182.978" y2="173.137"/>
	</g>
</g>
<g>
	<g>
		
			<line fill="none" stroke="#FF2402" stroke-width="2" stroke-linecap="round" stroke-miterlimit="10" x1="127.645" y1="226.47" x2="138.644" y2="215.47"/>
	</g>
	<g>
		
			<line fill="none" stroke="#FF2402" stroke-width="2" stroke-linecap="round" stroke-miterlimit="10" x1="138.644" y1="226.469" x2="127.645" y2="215.47"/>
	</g>
</g>
<g>
	<g>
		
			<line fill="none" stroke="#FF2402" stroke-width="2" stroke-linecap="round" stroke-miterlimit="10" x1="184.645" y1="228.137" x2="195.644" y2="217.137"/>
	</g>
	<g>
		
			<line fill="none" stroke="#FF2402" stroke-width="2" stroke-linecap="round" stroke-miterlimit="10" x1="195.644" y1="228.136" x2="184.645" y2="217.137"/>
	</g>
</g>
</svg>
