<?xml version="1.0" encoding="utf-8"?>
<!-- Generator: Adobe Illustrator 16.0.4, SVG Export Plug-In . SVG Version: 6.00 Build 0)  -->
<!DOCTYPE svg PUBLIC "-//W3C//DTD SVG 1.1//EN" "http://www.w3.org/Graphics/SVG/1.1/DTD/svg11.dtd">
<svg version="1.1" id="Layer_1" xmlns="http://www.w3.org/2000/svg" xmlns:xlink="http://www.w3.org/1999/xlink" x="0px" y="0px"
	 width="300px" height="225px" viewBox="37.5 75 300 225" enable-background="new 37.5 75 300 225" xml:space="preserve">
<path fill="#444444" d="M160.849,164.134c1.066-9.967,5.202-22.129,13.076-26.521c3.375-1.883,7.304-3.246,12.719-4.159
	c1.285,0.213,2.483,0.451,3.616,0.717c0.196,0.046,0.385,0.094,0.579,0.143c0.335,0.083,0.666,0.168,0.989,0.256
	c0.206,0.055,0.408,0.112,0.608,0.169c0.325,0.093,0.645,0.191,0.958,0.291c0.161,0.052,0.331,0.102,0.491,0.155
	c0.451,0.149,0.892,0.305,1.321,0.465c0.126,0.047,0.246,0.098,0.371,0.146c0.321,0.125,0.641,0.253,0.95,0.385
	c0.146,0.062,0.289,0.125,0.433,0.189c0.295,0.131,0.587,0.267,0.873,0.405c0.122,0.059,0.247,0.117,0.367,0.178
	c0.398,0.199,0.792,0.401,1.175,0.613c8.447,4.672,12.646,18.264,13.363,28.547c0.062,1.495,0.092,2.929,0.088,4.277
	c-0.006,3.48-0.218,6.37-0.633,8.117c-0.02,0.081-0.056,0.159-0.079,0.239c-2.102,9.565-12.667,16.856-25.409,16.877
	c-14.267,0.028-25.85-9.063-25.87-20.307c0-0.103,0.007-0.205,0.009-0.308C160.622,172.106,160.616,168.279,160.849,164.134z"/>
<path fill="#FFFFFF" d="M167.605,136.247c3.262-3.726,7.5-5.558,15.85-5.923c0.131-0.007,0.268-0.011,0.4-0.017
	c0.421-0.016,0.847-0.029,1.289-0.039c0.437-0.008,0.881-0.015,1.34-0.017c0.053,0,0.101-0.001,0.154-0.001h0.01
	c0.016,0,0.032,0,0.049,0c0.009,0,0.017,0,0.027,0h0.008c0.03,0,0.059,0,0.089,0c0.483,0,0.954,0.005,1.414,0.014
	c0.526,0.008,1.032,0.022,1.527,0.042c0.048,0.002,0.098,0.003,0.146,0.006c8.357,0.333,12.604,2.15,15.878,5.866
	c4.333,4.915,6.543,18.983,7,29.935c-0.717-10.284-4.916-23.876-13.361-28.547c-3.382-1.869-7.316-3.218-12.733-4.112
	c-5.415,0.915-9.341,2.277-12.718,4.159c-8.428,4.702-12.576,18.31-13.255,28.594C161.134,155.255,163.292,141.177,167.605,136.247z
	"/>
<path fill="#FFFFFF" d="M186.796,97.348c4.61-0.01,9.99-1.828,13.038-2.605c3.572-0.911,5.269-0.94,7.905-0.945
	c7.978-0.016,10.438,4.164,11.11,5.87c-5.264-16.162-21.911-18.401-31.746-18.383l-0.811,0.002
	c-9.833,0.018-26.473,2.317-31.678,18.499c0.666-1.708,3.111-5.896,11.09-5.913c2.633-0.005,4.333,0.02,7.907,0.917
	c3.053,0.766,8.438,2.565,13.05,2.557L186.796,97.348L186.796,97.348z"/>
<path fill="#444444" d="M154.644,99.801l-0.028-0.014c0.667-1.708,3.112-5.897,11.089-5.913c2.634-0.005,4.333,0.019,7.908,0.917
	c3.053,0.766,8.438,2.565,13.05,2.556h0.133c4.61-0.009,9.99-1.827,13.038-2.604c3.572-0.911,5.269-0.941,7.905-0.945
	c7.978-0.016,10.438,4.164,11.11,5.87l-0.028,0.014c1.691,1.615,2.82,5.863,2.681,10.827c-0.175,6.295-2.319,11.346-4.788,11.278
	c-0.048-0.001-0.092-0.017-0.138-0.021c-5.717,11.551-21.435,16.933-29.686,16.949c-8.25,0.015-24.102-5.308-29.903-16.841
	c-0.053,0.006-0.101,0.023-0.154,0.025c-2.466,0.075-4.631-4.966-4.829-11.261C151.846,105.673,152.958,101.422,154.644,99.801z"/>
<path fill="#7F7F7F" d="M186.825,130.376c4.168-0.008,13.015-3.887,12.997-12.368c-0.016-8.479-9.78-9.135-13.067-9.128
	c-3.288,0.005-13.061,0.696-13.045,9.176C173.726,126.538,182.653,130.383,186.825,130.376z"/>
<path fill="#232323" d="M186.559,111.104c-1.812,0.004-4.487,1.9-4.8,4.107c-0.31,2.207,4.931,2.118,4.931,2.118h0.15
	c0,0,5.241,0.069,4.921-2.138c-0.318-2.205-3.001-4.091-4.815-4.087H186.559z"/>
<g>
	<circle fill="#232323" cx="200.114" cy="104.651" r="1.602"/>
	<path fill="#232323" d="M171.769,104.703c0.001,0.886,0.719,1.6,1.605,1.599c0.882-0.001,1.598-0.719,1.598-1.604
		c-0.001-0.885-0.72-1.602-1.604-1.6C172.482,103.1,171.766,103.818,171.769,104.703z"/>
</g>
<path fill="#232323" d="M158.046,103.397c-2.034,0.08-3.677,3.916-4.298,9.331c-0.073-0.681-0.124-1.389-0.144-2.121
	c-0.133-4.949,1.067-9.01,2.675-9.072c0.686-0.026,1.332,0.681,1.861,1.875C158.111,103.409,158.078,103.397,158.046,103.397z"/>
<path fill="#232323" d="M215.433,103.292c2.032,0.072,3.692,3.902,4.334,9.315c0.07-0.681,0.117-1.389,0.134-2.123
	c0.113-4.948-1.102-9.005-2.708-9.061c-0.684-0.022-1.33,0.686-1.855,1.882C215.369,103.304,215.399,103.292,215.433,103.292z"/>
<path fill="none" stroke="#7F7F7F" stroke-width="1.2608" stroke-linecap="round" stroke-miterlimit="10" d="M203.163,99.921
	c-0.415-0.384-0.897-0.679-1.418-0.875c-0.519-0.196-1.076-0.293-1.639-0.278c-0.564,0.014-1.135,0.139-1.682,0.386
	s-1.018,0.594-1.399,1.01"/>
<path fill="none" stroke="#7F7F7F" stroke-width="1.2608" stroke-linecap="round" stroke-miterlimit="10" d="M176.355,99.921
	c-0.416-0.384-0.898-0.679-1.417-0.875c-0.519-0.196-1.077-0.293-1.641-0.278c-0.562,0.014-1.134,0.139-1.681,0.386
	c-0.547,0.248-1.017,0.594-1.4,1.01"/>
<path fill="none" stroke="#232323" stroke-width="1.1422" stroke-linecap="round" stroke-miterlimit="10" d="M193.152,126.113
	c-0.348-0.831-0.855-1.582-1.482-2.211c-0.627-0.63-1.377-1.138-2.206-1.492c-0.827-0.353-1.742-0.549-2.701-0.55
	c-0.959-0.001-1.873,0.189-2.706,0.542c-0.832,0.35-1.58,0.856-2.209,1.483c-0.629,0.627-1.14,1.376-1.494,2.207"/>
<ellipse opacity="0.3" fill="#232323" enable-background="new    " cx="187" cy="283.856" rx="54.886" ry="8.859"/>
<g>
	<circle fill="#3050C4" cx="186.44" cy="210.524" r="72"/>
	<path fill="none" d="M256.19,198.525c1.104,0.446,1.932-0.416,3.136-1.481s-2.55-2.378-4.443-3.065
		c-1.57-0.57-1.747-0.006-2.212,0.184c0.271,1.101,0.515,2.212,0.731,3.332C254.407,197.603,255.332,198.177,256.19,198.525z"/>
	<path fill="none" d="M254.883,203.589c-0.114-0.216-0.305-0.372-0.632-0.45c0.138,1.278,0.245,2.565,0.312,3.863
		C255.278,205.703,255.083,203.969,254.883,203.589z"/>
	<g>
		<path fill="#3050C4" d="M162.077,260.724c-1.979-1.782-7.83-8.019-8.22-13.014c-0.303-3.639,2.053-5.873,3.474-7.304
			c0.466-0.402,0.934-0.806,0.954-1.026c0.042-0.448-2.766-2.54-4.785-3.876c-0.383-0.49-1-0.778-1.596-1.291
			c-2.02-1.335-2.724-2.984-3.256-4.166c-0.17-0.469-0.342-0.936-0.554-0.958c-0.424-0.044-1.021-0.556-1.829-1.091
			c-1.615-1.068-4.232-2.915-6.591-2.934c-3.823-0.395-7.187-5.7-7.337-6.391c-0.149-0.691-1.518-6.692-2.093-7.427
			c-0.766-0.979-5.984-9.405-6.879-11.3c-1.086-2.141-0.655-11.333,2.417-16.649c1.225-2.125,1.553-4.639,1.534-6.804
			c-5.777,10.017-9.083,21.636-9.083,34.029c0,28.689,17.713,53.239,42.798,63.316c0.111-0.393,0.23-0.751,0.345-1.02
			C162.39,271.122,163.949,261.369,162.077,260.724z"/>
		<path fill="#3050C4" d="M235.353,251.429c1.242-1.652,0-7.852-2.203-10.332c-2.204-2.481,0-4.96-0.275-6.2
			c-0.276-1.24-2.067,0-3.03-1.35c-0.966-1.352,4.959-3.885-4.822-1.131c-9.782,2.753-9.782,0-13.226-3.168
			c-3.443-3.167-2.066-3.719-2.343-9.643c-0.275-5.923,4.685-7.024,6.751-10.237c2.066-3.212,4.271-4.779,12.261-6.019
			c7.991-1.24,5.099,2.064,5.099,3.283s7.715,3.191,7.715,2.641c0-0.55-0.965-2.893,0.825-2.616
			c0.966,0.276,10.333,1.79,10.333,1.79c1.08-0.158,1.735-0.738,2.125-1.445c-0.066-1.298-0.173-2.585-0.311-3.863
			c-0.561-0.134-1.527-0.027-3.228,0.45c-2.687,0.757-4.272-1.86-4.408-3.583c-0.139-1.723,4.579-2.203,5.922-2.48
			c0.296-0.061,0.583-0.061,0.864-0.031c-0.217-1.12-0.46-2.231-0.731-3.332c-0.096,0.039-0.203,0.063-0.339,0.057
			c-0.791-0.034-1.344-0.997-1.86-1.79c-0.515-0.79-1.447,1.104-1.721,1.688c-0.278,0.584-0.585,1.859-0.481,2.894
			c0.104,1.033-0.619,1.378-1.172,1.722s-0.62-0.137-1.102-0.414c-0.481-0.276-1.653,0.172-2.17,1.241
			c-0.517,1.067,0.172,3.513,0.07,3.547c-0.102,0.036-1.241-0.344-2.066-1.377c-0.827-1.033-1.793-3.581-1.895-4.341
			c-0.104-0.758-2.169-2.72-3.582-3.203c-1.414-0.48-0.173,1.586,0.069,1.965c0.24,0.379,2.1,1.721,2.205,2.651
			c0.104,0.928-1.825,4.2-1.343,3.03c0.481-1.171-0.966-1.723-1.381-2.616c-0.413-0.896-1.996-1.861-3.373-3.378
			c-1.379-1.516-1.93-0.068-2.826-0.481c-0.894-0.414-1.652,0.552-2.48,0.345c-0.825-0.207-0.551,0.965-0.618,2.066
			c-0.069,1.104-0.482,0.551-1.79,1.86c-1.31,1.31-1.104,2.272-1.861,2.75c-0.756,0.479-2.273,0.9-4.545,0.971
			c-2.274,0.068-2.137-1.033-2.068-2.206c0.071-1.173,0.415-2.754,1.104-4.2c0.687-1.448,4.339-0.758,5.096-0.966
			c0.757-0.21,0.276-1.381,0.276-2.792s-1.723-2.136-2.444-2.617c-0.724-0.483,0.724-0.552,2.377-0.964
			c1.653-0.414,2.687-1.241,3.1-2.102s2.413-2.584,3.343-3.238c0.928-0.655,1.792-0.895,2.479-1.377
			c0.691-0.483,1.979,0.826,1.979,0.826l6.099-0.981c0,0,1.188-0.673,1.394-1.81c0.208-1.136,0.208-1.289,0.983-3.15
			c0.467-1.119,1.847-1.807,2.874-2.235c-0.159-0.266-0.32-0.53-0.482-0.794c-0.544,0.027-1.189,0.098-1.928,0.239
			c-2.168,0.414-1.754-1.187-2.168-2.118c-0.371-0.836-0.071-1.264,0.852-2.91c-0.357-0.483-0.72-0.962-1.09-1.436
			c-0.144,0.026-0.287,0.048-0.434,0.057c-1.602,0.104-1.395,2.221-1.86,2.791c-0.464,0.568-0.617,1.084-0.257,3.049
			c0.36,1.964-1.705,6.354-2.79,6.561c-1.085,0.209-2.636-2.995-2.893-3.409c-0.259-0.414-2.118,1.24-3.411,1.24
			c-1.292,0-1.29-3.98-0.464-5.271c0.826-1.292,3.703-3.256,4.736-5.459c0.821-1.753,1.393-3.25,2.593-5.034
			c-12.396-12.783-29.751-20.73-48.966-20.73c-11.612,0-22.545,2.906-32.117,8.023c1.507,0.338,3.239,0.57,4.525,0.553
			c2.358,0.018,5.333,0.325,8.67,1.346c1.042,0.334,1.891,0.421,2.527,0.487c1.488,0.153,2.55,0.263,3.233,2.136
			c0.808,0.535,3.062,1.668,3.149,3.029c-0.042,0.447-0.317,1.094-0.997,1.475c-0.7,0.603-4.988,2.864-6.75,3.357
			c-1.104,0.337-6.538,3.38-7.025,4.006c-0.021,0.223-0.209,2.232-0.377,4.017c1.234,0.579,4.295,2.248,4.827,3.429
			c0.191,0.244,0.405,0.266,1.042,0.332c0.425,0.044,0.87-0.135,1.253,0.354c0.192,0.246,0.383,0.491,0.342,0.937l-0.042,0.447
			c-0.272,2.9,0.069,3.838,0.261,4.083c0.254-0.424,0.338-1.317,0.613-1.964c0.379-1.763,0.738-3.304,2.014-3.172
			c0.425,0.045,1.125-0.558,1.654-1.63c0.487-0.626,0.317-1.093,0.317-1.093c-0.788-0.759-0.429-2.298,1.035-4.175
			c0.02-0.223,0.234-0.202,0.254-0.424c0.762-1.274,1.737-2.525,2.821-2.638c0.424,0.044,0.849,0.087,1.232,0.578
			c0.788,0.758,1.746,1.983,2.511,2.963c0.574,0.735,0.958,1.226,1.15,1.471c0.402,0.267,0.553,0.959,0.491,1.627
			c-0.021,0.223,0.149,0.692,0.128,0.915c0.892-0.357,2.442-0.875,3.25-0.34c0.404,0.268,0.595,0.513,0.767,0.981
			c0.169,0.469,0.107,1.138,0.257,1.831c0.128,0.915,0.387,2.743,0.77,3.233c0.575,0.735,1.554,1.737,2.064,3.143
			c-0.02,0.223,0.17,0.469,0.363,0.714c0.362,0.714,0.723,1.426,0.449,2.075c-0.254,0.423-0.722,0.826-1.613,1.185
			c-1.338,0.538-2.613,0.406-3.696,0.519c-1.083,0.114-2.146,0.004-2.824,0.384c-1.357,0.761-1.867,1.611-1.376,3.238
			c-0.021,0.224,0.171,0.469,0.15,0.692c0.128,0.914,0.49,1.626,0.002,2.253c-0.274,0.646-0.935,0.805-2.017,0.917
			c-0.212-0.021-0.658,0.157-1.083,0.114c-1.72,0.047-4.524,0.208-4.607,1.1c-0.146,1.562-1.484,2.101-2.375,2.46
			c-0.233,0.199-0.679,0.379-0.913,0.582c-0.234,0.2-0.467,0.402-0.913,0.58c-0.913,0.583-3.629,2.104-3.692,2.775
			c0.278,1.604-1.907,4.309-3.476,5.047c-1.125,0.559-2.864,3.084-3.139,3.731c-0.021,0.223-0.042,0.447-0.083,0.892
			c-0.105,1.117-0.251,2.68-1.334,2.791c-0.637-0.066-1.191-1.022-1.937-2.226c-0.362-0.715-1.108-1.918-1.533-1.962
			c-0.638-0.066-1.7-0.176-2.571-0.039c-1.083,0.113-2.166,0.227-3.017,0.139c-2.761-0.285-4.95,0.164-4.991,0.611
			c-0.253,0.423-0.529,1.071-0.826,1.941c-0.805,1.721-2.434,5.382-1.434,6.161c1.807,1.314,3.232,2.137,4.082,2.225
			c0.213,0.021,1.126-0.56,1.805-0.941c1.379-0.983,2.738-1.745,3.566-1.433c0.212,0.021,0.404,0.266,0.596,0.511
			c0.362,0.716-0.167,1.786-0.952,3.281c-0.234,0.203-0.508,0.85-0.529,1.071c0.19,0.247,0.828,0.313,1.232,0.58
			c1.871,0.644,2.892,1.2,3.062,1.669c0.192,0.244,0.343,0.935,0.237,2.052c-0.062,0.668-0.018,2.478,0.175,2.721
			c1.02,0.557,4.974,1.865,5.632,1.709c0.211,0.021,0.659-0.156,1.104-0.338c2.208-0.671,4.204-1.368,5.417-0.566
			c1.425,0.822,3.316,1.244,4.59,1.377c1.487,0.152,6.27,1.773,7.378,3.69c0.917,1.673,2.999,2.338,3.424,2.383
			c0.85,0.088,3.937,3.786,3.811,5.124c0.148,0.69,3.359,3.051,4.209,3.14c0.657-0.159,4.654,0.706,5.187,1.887l0.189,0.246
			c0.557,0.957,1.812,3.566-0.012,4.729c-0.913,0.581-2.927,3.752-4.24,6.321c-0.529,1.072-8.613,7.22-9.738,7.781
			c-0.892,0.356-3.226,2.37-3.967,3.418c-0.509,0.85-1.634,1.41-2.738,1.746c-0.446,0.18-0.892,0.359-1.125,0.56
			c-0.253,0.425-0.976,1.253-1.908,2.057l-6.75,0.171c6.585,2.116,13.604,3.265,20.894,3.265c19.622,0,37.304-8.287,49.75-21.55
			C235.606,254.753,234.474,252.604,235.353,251.429z M220.278,177.825c0.62-0.102,1.785,1.188,1.785,1.188
			s-0.029,0.931,0.332,1.911c0.363,0.981,1.396,2.429,2.273,4.184c0.878,1.756-1.5,2.687-3.617,2.894
			c-2.117,0.207,0-2.843,0.362-3.462c0.36-0.617-0.208-2.066-0.362-2.582c-0.152-0.518-1.55-1.239-1.756-2.169
			C219.089,178.858,220.278,177.825,220.278,177.825z M218.315,182.165c2.119-0.568,1.136,2.378,0.518,3.049
			c-0.619,0.67-2.738,0.517-2.738,0C216.095,184.698,218.315,182.165,218.315,182.165z"/>
	</g>
	<g>
		<g>
			<path fill="#3ED033" d="M174.205,273.244c0.233-0.202,0.679-0.382,1.125-0.56c1.105-0.338,2.23-0.896,2.738-1.747
				c0.742-1.05,3.076-3.062,3.967-3.417c1.126-0.562,9.209-6.711,9.738-7.783c1.313-2.568,3.328-5.74,4.24-6.321
				c1.823-1.163,0.569-3.772,0.014-4.729l-0.19-0.247c-0.532-1.181-4.529-2.046-5.188-1.887c-0.85-0.087-4.06-2.449-4.209-3.14
				c0.125-1.338-2.962-5.036-3.811-5.123c-0.425-0.044-2.508-0.711-3.424-2.383c-1.108-1.918-5.89-3.538-7.378-3.691
				c-1.275-0.131-3.166-0.554-4.591-1.376c-1.213-0.802-3.208-0.104-5.417,0.566c-0.445,0.182-0.892,0.359-1.104,0.337
				c-0.658,0.156-4.611-1.152-5.632-1.708c-0.192-0.244-0.237-2.054-0.174-2.722c0.105-1.117-0.045-1.808-0.238-2.051
				c-0.169-0.469-1.19-1.025-3.061-1.669c-0.404-0.267-1.042-0.333-1.232-0.579c0.021-0.222,0.295-0.87,0.529-1.072
				c0.785-1.495,1.313-2.566,0.952-3.281c-0.192-0.245-0.384-0.488-0.597-0.511c-0.828-0.313-2.187,0.449-3.566,1.433
				c-0.679,0.382-1.591,0.963-1.804,0.941c-0.85-0.088-2.274-0.911-4.082-2.225c-1-0.78,0.63-4.441,1.434-6.162
				c0.296-0.869,0.572-1.517,0.826-1.941c0.042-0.447,2.229-0.896,4.991-0.611c0.85,0.088,1.933-0.025,3.017-0.139
				c0.871-0.137,1.933-0.025,2.57,0.04c0.425,0.044,1.17,1.248,1.533,1.961c0.746,1.203,1.3,2.16,1.937,2.226
				c1.083-0.111,1.23-1.674,1.334-2.789c0.042-0.446,0.062-0.669,0.083-0.893c0.275-0.647,2.015-3.172,3.139-3.731
				c1.57-0.739,3.753-3.442,3.476-5.048c0.062-0.671,2.779-2.191,3.692-2.774c0.445-0.179,0.678-0.381,0.913-0.581
				c0.233-0.201,0.679-0.382,0.913-0.582c0.892-0.358,2.229-0.896,2.375-2.458c0.083-0.893,2.887-1.054,4.607-1.102
				c0.426,0.044,0.872-0.135,1.083-0.113c1.083-0.113,1.743-0.271,2.017-0.918c0.488-0.627,0.126-1.339-0.002-2.253
				c0.021-0.223-0.172-0.469-0.15-0.691c-0.491-1.628,0.018-2.477,1.376-3.238c0.679-0.38,1.742-0.271,2.824-0.384
				c1.083-0.113,2.359,0.019,3.696-0.518c0.893-0.359,1.359-0.762,1.613-1.185c0.274-0.648-0.085-1.361-0.449-2.074
				c-0.192-0.246-0.384-0.49-0.362-0.715c-0.511-1.404-1.49-2.407-2.064-3.142c-0.384-0.491-0.642-2.318-0.77-3.233
				c-0.15-0.693-0.088-1.361-0.258-1.83c-0.172-0.468-0.363-0.713-0.767-0.981c-0.807-0.535-2.357-0.017-3.25,0.34
				c0.02-0.222-0.149-0.691-0.128-0.915c0.062-0.669-0.088-1.361-0.491-1.627c-0.192-0.246-0.576-0.736-1.15-1.471
				c-0.766-0.98-1.723-2.206-2.511-2.963c-0.383-0.489-0.808-0.533-1.232-0.578c-1.084,0.113-2.06,1.364-2.822,2.638
				c-0.021,0.222-0.234,0.201-0.254,0.424c-1.464,1.877-1.822,3.416-1.035,4.174c0,0,0.171,0.467-0.316,1.093
				c-0.53,1.072-1.23,1.676-1.654,1.631c-1.275-0.131-1.635,1.41-2.014,3.172c-0.275,0.648-0.359,1.541-0.614,1.965
				c-0.192-0.245-0.533-1.183-0.261-4.083l0.043-0.447c0.041-0.446-0.15-0.691-0.343-0.937c-0.383-0.489-0.829-0.311-1.253-0.354
				c-0.637-0.066-0.85-0.088-1.042-0.332c-0.533-1.182-3.595-2.85-4.827-3.429c0.167-1.784,0.355-3.792,0.377-4.017
				c0.487-0.625,5.92-3.669,7.024-4.005c1.763-0.494,6.05-2.754,6.75-3.357c0.679-0.382,0.954-1.028,0.997-1.476
				c-0.087-1.361-2.341-2.495-3.149-3.029c-0.683-1.873-1.745-1.983-3.233-2.136c-0.637-0.066-1.485-0.154-2.527-0.487
				c-3.337-1.02-6.312-1.327-8.67-1.346c-1.285,0.017-3.018-0.215-4.524-0.553c-11.264,6.023-20.641,15.113-27.011,26.157
				c0.018,2.165-0.31,4.679-1.534,6.804c-3.073,5.315-3.504,14.509-2.417,16.648c0.895,1.895,6.113,10.32,6.879,11.3
				c0.575,0.734,1.944,6.736,2.094,7.427c0.15,0.69,3.514,5.996,7.337,6.391c2.358,0.019,4.975,1.865,6.59,2.935
				c0.809,0.534,1.405,1.047,1.829,1.091c0.212,0.021,0.383,0.488,0.554,0.957c0.533,1.182,1.236,2.831,3.257,4.166
				c0.596,0.514,1.213,0.802,1.596,1.291c2.02,1.336,4.827,3.429,4.785,3.875c-0.02,0.223-0.487,0.625-0.954,1.027
				c-1.42,1.431-3.777,3.665-3.474,7.304c0.39,4.994,6.242,11.232,8.219,13.014c1.872,0.646,0.314,10.398-0.703,12.096
				c-0.114,0.271-0.233,0.628-0.344,1.021c1.481,0.595,2.988,1.138,4.518,1.63l6.75-0.171
				C173.229,274.495,173.952,273.668,174.205,273.244z"/>
			<path fill="#3ED033" d="M221.05,181.958c0.155,0.516,0.725,1.964,0.362,2.582c-0.362,0.619-2.479,3.668-0.362,3.462
				c2.118-0.207,4.497-1.137,3.618-2.893c-0.877-1.755-1.91-3.204-2.273-4.184c-0.361-0.98-0.331-1.911-0.331-1.911
				s-1.166-1.291-1.785-1.189c0,0-1.189,1.034-0.984,1.964C219.502,180.72,220.898,181.44,221.05,181.958z"/>
			<path fill="#3ED033" d="M218.832,185.214c0.619-0.671,1.603-3.617-0.517-3.049c0,0-2.222,2.532-2.222,3.049
				S218.212,185.884,218.832,185.214z"/>
			<path fill="#3ED033" d="M240.423,172.864c0.414,0.93,0,2.531,2.169,2.117c0.738-0.141,1.385-0.212,1.927-0.239
				c-1.015-1.644-2.096-3.242-3.242-4.789C240.353,171.6,240.053,172.028,240.423,172.864z"/>
			<path fill="#3ED033" d="M242.129,177.772c-0.777,1.862-0.777,2.016-0.983,3.15c-0.207,1.137-1.395,1.81-1.395,1.81l-6.098,0.981
				c0,0-1.288-1.31-1.98-0.827c-0.688,0.483-1.551,0.722-2.479,1.378c-0.93,0.653-2.929,2.378-3.342,3.238
				c-0.413,0.861-1.447,1.688-3.101,2.102c-1.652,0.413-3.1,0.482-2.376,0.964c0.721,0.482,2.443,1.207,2.443,2.618
				c0,1.412,0.482,2.582-0.274,2.791c-0.758,0.209-4.41-0.481-5.098,0.965c-0.688,1.448-1.032,3.028-1.103,4.202
				c-0.069,1.172-0.207,2.274,2.067,2.204c2.271-0.068,3.788-0.49,4.545-0.969c0.758-0.478,0.551-1.441,1.861-2.75
				c1.309-1.311,1.721-0.758,1.789-1.86c0.07-1.103-0.207-2.273,0.619-2.066c0.827,0.207,1.585-0.759,2.48-0.346
				c0.896,0.413,1.447-1.033,2.826,0.482c1.376,1.517,2.96,2.482,3.373,3.376c0.415,0.895,1.861,1.447,1.381,2.617
				c-0.484,1.171,1.445-2.102,1.343-3.03c-0.105-0.931-1.965-2.273-2.206-2.652c-0.242-0.378-1.482-2.444-0.068-1.964
				c1.412,0.483,3.479,2.445,3.582,3.204c0.102,0.759,1.067,3.307,1.894,4.341c0.826,1.032,1.965,1.413,2.066,1.376
				c0.102-0.034-0.586-2.479-0.069-3.547c0.517-1.068,1.688-1.517,2.17-1.239c0.48,0.275,0.55,0.756,1.102,0.413
				c0.551-0.343,1.274-0.69,1.172-1.723c-0.105-1.033,0.203-2.309,0.48-2.893c0.275-0.586,1.207-2.48,1.722-1.688
				c0.517,0.792,1.068,1.754,1.86,1.79c0.136,0.007,0.243-0.019,0.339-0.058c-1.637-6.645-4.245-12.907-7.669-18.625
				C243.977,175.966,242.595,176.653,242.129,177.772z"/>
			<path fill="#3ED033" d="M228.076,173.538c-0.826,1.291-0.826,5.27,0.465,5.27c1.292,0,3.151-1.652,3.41-1.24
				c0.258,0.414,1.809,3.617,2.894,3.409c1.085-0.208,3.15-4.598,2.789-6.562c-0.359-1.964-0.207-2.48,0.258-3.049
				c0.466-0.569,0.258-2.686,1.859-2.791c0.147-0.009,0.291-0.031,0.434-0.057c-1.496-1.911-3.092-3.736-4.779-5.475
				c-1.2,1.784-1.771,3.282-2.593,5.035C231.781,170.282,228.903,172.246,228.076,173.538z"/>
			<path fill="#3ED033" d="M252.539,197.526c-1.344,0.276-6.062,0.757-5.922,2.479c0.136,1.723,1.721,4.341,4.407,3.583
				c1.7-0.478,2.668-0.583,3.229-0.449c-0.206-1.906-0.49-3.786-0.85-5.644C253.12,197.466,252.834,197.466,252.539,197.526z"/>
			<path fill="#3ED033" d="M254.634,211.898c0.01-0.458,0.018-0.916,0.018-1.375c0-1.182-0.029-2.354-0.089-3.521
				c-0.39,0.707-1.046,1.287-2.125,1.445c0,0-9.367-1.515-10.333-1.791c-1.791-0.275-0.826,2.067-0.826,2.617
				s-7.715-1.422-7.715-2.641c0-1.217,2.895-4.521-5.098-3.283c-7.989,1.239-10.194,2.807-12.261,6.019
				c-2.066,3.213-7.025,4.314-6.752,10.237c0.277,5.924-1.101,6.476,2.344,9.643c3.443,3.168,3.443,5.921,13.225,3.168
				c9.783-2.754,3.858-0.221,4.823,1.131c0.963,1.35,2.754,0.109,3.03,1.35s-1.93,3.719,0.276,6.2
				c2.203,2.48,3.443,8.68,2.203,10.332c-0.881,1.176,0.252,3.324,0.836,5.756c10.842-11.554,17.7-26.884,18.396-43.805
				L254.634,211.898z"/>
		</g>
	</g>
</g>
<g>
	<path fill="#D0DAE3" d="M145.621,183.884c0.432,0.532,0.95,1.006,1.56,1.397c3.076,1.987,7.182,1.104,9.172-1.975
		c1.06-1.643,1.302-3.578,0.83-5.327c-0.16,1.094-0.551,2.175-1.191,3.165C153.742,184.63,149.229,185.771,145.621,183.884z"/>
	<path fill="#E7ECF0" d="M145.204,176.11c-1.596,2.473-1.342,5.606,0.419,7.775c3.606,1.886,8.118,0.746,10.37-2.741
		c0.641-0.99,1.03-2.07,1.19-3.165c-0.411-1.53-1.37-2.918-2.808-3.846C151.3,172.146,147.19,173.03,145.204,176.11z"/>
</g>
<g>
	<path fill="#D0DAE3" d="M148.895,235.93c0.432,0.533,0.951,1.006,1.559,1.396c3.077,1.988,7.183,1.105,9.173-1.975
		c1.059-1.643,1.302-3.579,0.83-5.326c-0.16,1.094-0.551,2.175-1.19,3.164C157.015,236.677,152.501,237.817,148.895,235.93z"/>
	<path fill="#E7ECF0" d="M148.478,228.154c-1.596,2.473-1.342,5.607,0.419,7.775c3.605,1.886,8.119,0.746,10.37-2.74
		c0.641-0.989,1.03-2.069,1.191-3.164c-0.41-1.53-1.37-2.919-2.808-3.846C154.573,224.19,150.463,225.075,148.478,228.154z"/>
</g>
<g>
	<path fill="#D0DAE3" d="M131.727,200.492c0.515,0.451,1.108,0.83,1.773,1.113c3.368,1.438,7.266-0.127,8.706-3.499
		c0.766-1.799,0.678-3.747-0.084-5.391c0.028,1.106-0.174,2.237-0.638,3.32C139.855,199.852,135.601,201.741,131.727,200.492z"/>
	<path fill="#E7ECF0" d="M130,192.9c-1.153,2.707-0.374,5.753,1.73,7.592c3.872,1.248,8.126-0.641,9.756-4.457
		c0.463-1.084,0.665-2.213,0.637-3.319c-0.663-1.439-1.844-2.646-3.418-3.315C135.337,187.962,131.436,189.529,130,192.9z"/>
</g>
<g>
	<path fill="#D0DAE3" d="M219.786,186.064c0.431,0.533,0.95,1.006,1.559,1.397c3.077,1.987,7.184,1.104,9.172-1.976
		c1.06-1.642,1.302-3.578,0.83-5.326c-0.159,1.094-0.55,2.175-1.19,3.164C227.906,186.81,223.393,187.95,219.786,186.064z"/>
	<path fill="#E7ECF0" d="M219.368,178.289c-1.595,2.473-1.342,5.607,0.421,7.775c3.604,1.886,8.116,0.746,10.368-2.741
		c0.641-0.989,1.03-2.069,1.191-3.164c-0.411-1.529-1.371-2.918-2.809-3.846C225.465,174.325,221.354,175.21,219.368,178.289z"/>
</g>
<g>
	<path fill="#D0DAE3" d="M218.84,204.074c0.431,0.532,0.95,1.006,1.56,1.396c3.077,1.988,7.184,1.104,9.172-1.975
		c1.06-1.643,1.302-3.579,0.829-5.327c-0.16,1.095-0.551,2.175-1.189,3.165C226.96,204.818,222.446,205.961,218.84,204.074z"/>
	<path fill="#E7ECF0" d="M218.422,196.299c-1.596,2.473-1.343,5.606,0.419,7.775c3.605,1.887,8.118,0.746,10.37-2.74
		c0.641-0.99,1.03-2.07,1.19-3.165c-0.411-1.53-1.37-2.919-2.809-3.846C224.519,192.335,220.409,193.219,218.422,196.299z"/>
</g>
<line fill="none" stroke="#FFFFFF" stroke-width="1.6" stroke-linecap="round" stroke-miterlimit="10" stroke-dasharray="3.2,5.6" x1="214.732" y1="204.2" x2="161.666" y2="228.2"/>
<line fill="none" stroke="#FFFFFF" stroke-width="1.6" stroke-linecap="round" stroke-miterlimit="10" stroke-dasharray="3.2,5.6" x1="216.065" y1="180.733" x2="160.333" y2="179.4"/>
<line fill="none" stroke="#FFFFFF" stroke-width="1.6" stroke-linecap="round" stroke-miterlimit="10" stroke-dasharray="3.2,5.6" x1="148.599" y1="223.4" x2="137.666" y2="201.533"/>
<rect x="221.22" y="177.651" fill="none" width="6.879" height="8.295"/>
<text transform="matrix(1 0 0 1 221.9014 184.9644)" fill="#3654FF" font-family="'DMSans-Bold'" font-size="9.6">£</text>
<rect x="147.22" y="175.451" fill="none" width="6.878" height="8.295"/>
<text transform="matrix(1 0 0 1 148.0654 182.7642)" fill="#3654FF" font-family="'DMSans-Bold'" font-size="9.6">$</text>
<rect x="132.753" y="191.651" fill="none" width="6.879" height="8.296"/>
<text transform="matrix(1 0 0 1 133.5981 198.9648)" fill="#3654FF" font-family="'DMSans-Bold'" font-size="9.6">$</text>
<rect x="219.954" y="196.052" fill="none" width="6.879" height="8.295"/>
<text transform="matrix(1 0 0 1 220.9023 203.3643)" fill="#3654FF" font-family="'DMSans-Bold'" font-size="9.6">€</text>
<g>
	<path fill="#D0DAE3" d="M130.562,133.01c-0.231-0.599-0.693-1.08-1.281-1.336l-2.643-1.161c1.622-1.123,1.374-3.623-0.488-4.368
		l-29.57-13c-1.512-0.605-2.737,0.444-3.102,1.082l-7.455,13.045c-0.686,1.2-0.268,2.728,0.933,3.415
		c0.124,0.07,0.251,0.13,0.385,0.179l12.823,5.311l-3.261,8.69h-7.457v-3.128c0-0.69-0.56-1.25-1.25-1.25h-1.251
		c-0.691,0-1.251,0.56-1.251,1.25v10.009c0,0.69,0.56,1.25,1.251,1.25h1.251c0.69,0,1.25-0.56,1.25-1.25v-3.128h8.757
		c0.782,0,1.482-0.484,1.757-1.217l3.671-9.79l5.936,2.459c1.001,0.363,1.955-0.089,2.181-0.229l1.625-1.017l10.698,4.705
		l0.007,0.004c1.226,0.526,2.646-0.032,3.187-1.25l3.256-7.415C130.783,134.278,130.797,133.608,130.562,133.01L130.562,133.01z"/>
	<polygon fill="#E7ECF0" points="110.306,136.313 89.987,127.896 96.177,117.066 122.55,128.661 	"/>
</g>
<g>
	<path fill="#D0DAE3" d="M243.437,133.01c-0.236,0.599-0.221,1.268,0.041,1.855l3.257,7.416c0.54,1.218,1.961,1.776,3.186,1.25
		l0.008-0.004l10.698-4.705l1.625,1.017c0.226,0.141,1.18,0.593,2.181,0.229l5.937-2.459l3.671,9.79
		c0.274,0.732,0.975,1.217,1.757,1.217h8.757v3.128c0,0.69,0.56,1.25,1.25,1.25h1.251c0.69,0,1.251-0.56,1.251-1.25v-10.009
		c0-0.69-0.561-1.25-1.251-1.25h-1.251c-0.69,0-1.25,0.56-1.25,1.25v3.128h-7.457l-3.261-8.689l12.822-5.311
		c0.134-0.049,0.262-0.108,0.385-0.179c1.201-0.686,1.618-2.214,0.932-3.415l-7.453-13.045c-0.364-0.638-1.59-1.686-3.102-1.082
		l-29.57,13c-1.863,0.746-2.111,3.246-0.488,4.368l-2.644,1.161C244.13,131.93,243.668,132.411,243.437,133.01L243.437,133.01z"/>
	<polygon fill="#E7ECF0" points="251.448,128.661 277.821,117.066 284.011,127.896 263.692,136.313 	"/>
</g>
<g>
	<rect x="150.62" y="227.784" fill="none" width="6.879" height="8.296"/>
	<text transform="matrix(1 0 0 1 150.9541 235.0977)" fill="#3654FF" font-family="'DMSans-Bold'" font-size="9.6">P</text>
	
		<line fill="none" stroke="#3654FF" stroke-width="0.8" stroke-miterlimit="10" x1="150.974" y1="230.451" x2="157.613" y2="230.451"/>
</g>
<g>
	<g>
		
			<line fill="none" stroke="#FF2402" stroke-width="1.6" stroke-linecap="round" stroke-miterlimit="10" x1="183.782" y1="184.71" x2="192.582" y2="175.91"/>
	</g>
	<g>
		
			<line fill="none" stroke="#FF2402" stroke-width="1.6" stroke-linecap="round" stroke-miterlimit="10" x1="192.582" y1="184.708" x2="183.782" y2="175.91"/>
	</g>
</g>
<g>
	<g>
		
			<line fill="none" stroke="#FF2402" stroke-width="1.6" stroke-linecap="round" stroke-miterlimit="10" x1="139.516" y1="218.576" x2="148.315" y2="209.776"/>
	</g>
	<g>
		
			<line fill="none" stroke="#FF2402" stroke-width="1.6" stroke-linecap="round" stroke-miterlimit="10" x1="148.315" y1="218.575" x2="139.516" y2="209.776"/>
	</g>
</g>
<g>
	<g>
		
			<line fill="none" stroke="#FF2402" stroke-width="1.6" stroke-linecap="round" stroke-miterlimit="10" x1="185.116" y1="219.909" x2="193.915" y2="211.109"/>
	</g>
	<g>
		
			<line fill="none" stroke="#FF2402" stroke-width="1.6" stroke-linecap="round" stroke-miterlimit="10" x1="193.915" y1="219.908" x2="185.116" y2="211.109"/>
	</g>
</g>
</svg>
