<?xml version="1.0" encoding="utf-8"?>
<!-- Generator: Adobe Illustrator 16.0.4, SVG Export Plug-In . SVG Version: 6.00 Build 0)  -->
<!DOCTYPE svg PUBLIC "-//W3C//DTD SVG 1.1//EN" "http://www.w3.org/Graphics/SVG/1.1/DTD/svg11.dtd">
<svg version="1.1" id="Layer_1" xmlns="http://www.w3.org/2000/svg" xmlns:xlink="http://www.w3.org/1999/xlink" x="0px" y="0px"
	 width="375px" height="375px" viewBox="0 0 375 375" enable-background="new 0 0 375 375" xml:space="preserve">
<g>
	<path fill="#EA651B" d="M50.451,204.214c1.974,1.268,4.18,2.25,6.574,2.873c12.155,3.158,24.571-4.135,27.73-16.291
		c1.686-6.484,0.396-13.043-3.02-18.231c0.658,3.735,0.544,7.669-0.473,11.58C77.687,197.912,64.218,206.478,50.451,204.214z"/>
	<path fill="#FF7E1C" d="M40.736,179.356c-2.537,9.762,1.667,19.688,9.715,24.858c13.764,2.264,27.233-6.303,30.812-20.069
		c1.017-3.91,1.131-7.844,0.473-11.58c-2.987-4.537-7.6-8.025-13.27-9.5C56.31,159.908,43.896,167.201,40.736,179.356z"/>
</g>
<g>
	<g>
		<g>
			<path fill="#FFFFFF" d="M69.383,183.142c0.683,0.444,1.151,1.211,1.405,2.306c0.278,1.328,0.055,2.435-0.672,3.315
				c-0.636,0.746-1.738,1.432-3.299,2.055l0.813,2.463l-1.773,0.585l-0.803-2.429l-1.375,0.455l0.801,2.43l-1.775,0.586
				l-0.813-2.462l-3.512,1.159l-0.332-2.221l0.363-0.119c0.588-0.168,0.955-0.305,1.108-0.408c0.218-0.152,0.303-0.379,0.256-0.686
				l-2.596-7.861c-0.201-0.362-0.483-0.537-0.855-0.521c-0.241,0-0.708,0.127-1.399,0.382l-0.292,0.096l-0.621-1.883l1.099-0.321
				c1.278-0.422,2.082-0.703,2.412-0.838l-0.943-2.86l1.775-0.586l0.934,2.825l1.364-0.492l-0.92-2.787l1.772-0.585l0.944,2.858
				c1.271-0.286,2.301-0.331,3.088-0.135c0.956,0.22,1.629,0.801,2.02,1.742c0.607,1.353,0.441,2.505-0.502,3.459l0,0
				C68.014,182.561,68.789,182.722,69.383,183.142L69.383,183.142z M61.153,184.13l0.29-0.096c1.022-0.311,1.788-0.629,2.296-0.957
				c0.885-0.561,1.197-1.241,0.934-2.038s-0.91-1.172-1.94-1.126c-0.579,0.03-1.383,0.23-2.412,0.598
				c-0.161,0.08-0.268,0.126-0.316,0.142L61.153,184.13z M63.335,189.638c1.239-0.383,2.146-0.752,2.727-1.104
				c1.039-0.665,1.418-1.432,1.13-2.301c-0.287-0.87-1.034-1.266-2.239-1.188c-0.661,0.029-1.596,0.273-2.813,0.728l-0.4,0.133
				l1.269,3.839L63.335,189.638z"/>
		</g>
	</g>
</g>
<path opacity="0.3" fill="#232323" enable-background="new    " d="M237.945,209.67c0,2.21-1.791,4-4,4h-93.891c-2.209,0-4-1.79-4-4
	v-36.14c0-2.209,1.791-4,4-4h93.891c2.209,0,4,1.791,4,4V209.67z"/>
<g>
	<g>
		
			<line fill="none" stroke="#FF2402" stroke-width="3" stroke-linecap="round" stroke-miterlimit="10" x1="302.963" y1="195.683" x2="322.176" y2="176.47"/>
	</g>
	<g>
		
			<line fill="none" stroke="#FF2402" stroke-width="3" stroke-linecap="round" stroke-miterlimit="10" x1="322.176" y1="195.683" x2="302.963" y2="176.47"/>
	</g>
</g>
<g>
	<g>
		
			<line fill="none" stroke="#FFFFFF" stroke-width="2" stroke-linecap="round" stroke-miterlimit="10" stroke-dasharray="4,7" x1="90.799" y1="185.077" x2="127.342" y2="185.077"/>
		<g>
			<polygon fill="#FFFFFF" points="120.715,193.256 119.351,191.792 126.575,185.079 119.351,178.364 120.715,176.899 
				129.511,185.079 			"/>
		</g>
	</g>
</g>
<g>
	<g>
		
			<line fill="none" stroke="#FFFFFF" stroke-width="2" stroke-linecap="round" stroke-miterlimit="10" stroke-dasharray="4,7" x1="246.133" y1="185.077" x2="282.676" y2="185.077"/>
		<g>
			<polygon fill="#FFFFFF" points="276.049,193.256 274.685,191.792 281.909,185.079 274.685,178.364 276.049,176.899 
				284.845,185.079 			"/>
		</g>
	</g>
</g>
<path fill="#FFFFFF" d="M237.945,203.147c0,2.209-1.791,4-4,4h-93.891c-2.209,0-4-1.791-4-4v-36.14c0-2.209,1.791-4,4-4h93.891
	c2.209,0,4,1.791,4,4V203.147z"/>
<g>
	<path fill="#413D45" d="M159.519,182.346h-1.59l-0.22-1.421c-0.21-0.21-0.475-0.376-0.794-0.498s-0.697-0.183-1.131-0.183
		c-0.928,0-1.642,0.337-2.143,1.011s-0.751,1.553-0.751,2.637v0.374c0,1.084,0.249,1.965,0.747,2.644s1.201,1.018,2.109,1.018
		c0.42,0,0.805-0.061,1.154-0.183s0.619-0.288,0.809-0.498l0.22-1.421h1.59v2.109c-0.43,0.498-0.978,0.895-1.645,1.19
		c-0.667,0.295-1.412,0.443-2.237,0.443c-1.431,0-2.603-0.496-3.516-1.487s-1.37-2.263-1.37-3.816v-0.359
		c0-1.548,0.454-2.82,1.362-3.816s2.083-1.494,3.523-1.494c0.825,0,1.569,0.15,2.233,0.451s1.214,0.697,1.648,1.19V182.346z"/>
	<path fill="#413D45" d="M171.027,178.75v2.842h-1.641l-0.088-1.194h-1.963v7.515l1.143,0.22v1.282h-4.424v-1.282l1.143-0.22v-7.515
		h-1.956l-0.088,1.194h-1.633v-2.842H171.027z"/>
	<path fill="#413D45" d="M177.863,178.75c1.211,0,2.161,0.277,2.849,0.832s1.033,1.319,1.033,2.296c0,0.537-0.144,1.003-0.432,1.399
		s-0.71,0.715-1.267,0.959c0.63,0.186,1.083,0.495,1.359,0.927c0.275,0.432,0.414,0.968,0.414,1.607v0.542
		c0,0.234,0.046,0.417,0.139,0.546s0.247,0.206,0.461,0.23l0.264,0.037v1.289h-1.106c-0.698,0-1.189-0.188-1.472-0.564
		s-0.425-0.862-0.425-1.458v-0.608c0-0.518-0.138-0.924-0.414-1.219c-0.276-0.295-0.666-0.451-1.168-0.465h-1.75v2.812l1.143,0.22
		v1.282h-4.417v-1.282l1.135-0.22v-7.654l-1.135-0.22v-1.289h1.135H177.863z M176.347,183.452h1.479c0.596,0,1.042-0.127,1.34-0.381
		s0.447-0.62,0.447-1.099s-0.147-0.86-0.443-1.146c-0.295-0.286-0.731-0.429-1.307-0.429h-1.516V183.452z"/>
	<path fill="#413D45" d="M184.735,189.414v-1.282l1.135-0.22v-7.654l-1.135-0.22v-1.289h1.135h2.139h1.143v1.289l-1.143,0.22v7.515
		h3.01l0.103-1.34h1.633v2.981H184.735z"/>
	<path fill="#413D45" d="M204.53,183.467h2.629v1.846h-2.629v3.032h-2.029v-3.032h-2.651v-1.846h2.651v-2.886h2.029V183.467z"/>
	<path fill="#413D45" d="M223.058,182.346h-1.589l-0.22-1.421c-0.21-0.21-0.475-0.376-0.794-0.498
		c-0.32-0.122-0.697-0.183-1.132-0.183c-0.928,0-1.642,0.337-2.143,1.011c-0.5,0.674-0.75,1.553-0.75,2.637v0.374
		c0,1.084,0.249,1.965,0.747,2.644s1.201,1.018,2.109,1.018c0.42,0,0.804-0.061,1.154-0.183c0.349-0.122,0.619-0.288,0.809-0.498
		l0.22-1.421h1.589v2.109c-0.43,0.498-0.978,0.895-1.645,1.19c-0.666,0.295-1.412,0.443-2.237,0.443
		c-1.431,0-2.603-0.496-3.516-1.487s-1.37-2.263-1.37-3.816v-0.359c0-1.548,0.454-2.82,1.362-3.816s2.083-1.494,3.523-1.494
		c0.825,0,1.57,0.15,2.234,0.451s1.213,0.697,1.648,1.19V182.346z"/>
</g>
</svg>
