<?xml version="1.0" encoding="utf-8"?>
<!-- Generator: Adobe Illustrator 16.0.4, SVG Export Plug-In . SVG Version: 6.00 Build 0)  -->
<!DOCTYPE svg PUBLIC "-//W3C//DTD SVG 1.1//EN" "http://www.w3.org/Graphics/SVG/1.1/DTD/svg11.dtd">
<svg version="1.1" id="Layer_1" xmlns="http://www.w3.org/2000/svg" xmlns:xlink="http://www.w3.org/1999/xlink" x="0px" y="0px"
	 width="300px" height="225px" viewBox="0 0 300 225" enable-background="new 0 0 300 225" xml:space="preserve">
<g>
	<path fill="#EA651B" d="M45.579,125.971c1.579,1.015,3.344,1.8,5.259,2.299c9.725,2.526,19.657-3.308,22.184-13.033
		c1.349-5.187,0.317-10.434-2.416-14.584c0.527,2.988,0.435,6.135-0.378,9.264C67.367,120.93,56.592,127.782,45.579,125.971z"/>
	<path fill="#FF7E1C" d="M37.806,106.084c-2.029,7.81,1.334,15.75,7.772,19.886c11.011,1.812,21.786-5.042,24.649-16.055
		c0.813-3.128,0.905-6.275,0.378-9.264c-2.39-3.63-6.08-6.42-10.616-7.6C50.266,90.526,40.334,96.361,37.806,106.084z"/>
</g>
<g>
	<g>
		<g>
			<path fill="#FFFFFF" d="M60.724,109.114c0.546,0.355,0.921,0.969,1.124,1.845c0.222,1.062,0.044,1.948-0.538,2.653
				c-0.509,0.596-1.391,1.145-2.639,1.644l0.65,1.97l-1.418,0.469l-0.642-1.943l-1.1,0.364l0.641,1.943l-1.42,0.469l-0.65-1.97
				l-2.81,0.928l-0.266-1.777l0.291-0.095c0.47-0.134,0.764-0.244,0.886-0.326c0.174-0.122,0.242-0.304,0.205-0.55l-2.077-6.289
				c-0.161-0.29-0.387-0.43-0.684-0.417c-0.193,0-0.566,0.102-1.119,0.305l-0.234,0.077l-0.497-1.507l0.879-0.256
				c1.023-0.337,1.666-0.562,1.93-0.67l-0.754-2.288l1.42-0.469l0.747,2.26l1.091-0.394l-0.736-2.229l1.417-0.468l0.756,2.287
				c1.017-0.229,1.84-0.265,2.47-0.108c0.765,0.176,1.303,0.641,1.616,1.394c0.486,1.083,0.353,2.004-0.401,2.767l0,0
				C59.629,108.649,60.249,108.778,60.724,109.114L60.724,109.114z M54.14,109.904l0.232-0.077c0.817-0.249,1.43-0.503,1.836-0.766
				c0.708-0.449,0.958-0.993,0.748-1.63s-0.728-0.938-1.552-0.901c-0.463,0.024-1.106,0.184-1.93,0.479
				c-0.128,0.064-0.214,0.101-0.252,0.113L54.14,109.904z M55.886,114.311c0.991-0.307,1.717-0.602,2.182-0.883
				c0.831-0.533,1.134-1.146,0.904-1.841c-0.229-0.696-0.827-1.013-1.791-0.951c-0.529,0.023-1.277,0.218-2.25,0.583l-0.32,0.106
				l1.015,3.072L55.886,114.311z"/>
		</g>
	</g>
</g>
<path opacity="0.3" fill="#232323" enable-background="new    " d="M195.573,130.336c0,1.768-1.433,3.2-3.199,3.2h-75.113
	c-1.767,0-3.2-1.433-3.2-3.2v-28.912c0-1.767,1.433-3.2,3.2-3.2h75.113c1.767,0,3.199,1.433,3.199,3.2V130.336z"/>
<g>
	<g>
		
			<line fill="none" stroke="#FF2402" stroke-width="2.4" stroke-linecap="round" stroke-miterlimit="10" x1="247.588" y1="119.146" x2="262.958" y2="103.776"/>
	</g>
	<g>
		
			<line fill="none" stroke="#FF2402" stroke-width="2.4" stroke-linecap="round" stroke-miterlimit="10" x1="262.958" y1="119.146" x2="247.588" y2="103.776"/>
	</g>
</g>
<g>
	<g>
		
			<line fill="none" stroke="#FFFFFF" stroke-width="1.6" stroke-linecap="round" stroke-miterlimit="10" stroke-dasharray="3.2,5.6" x1="77.856" y1="110.662" x2="107.091" y2="110.662"/>
		<g>
			<polygon fill="#FFFFFF" points="101.79,117.205 100.698,116.033 106.478,110.663 100.698,105.292 101.79,104.119 
				108.827,110.663 			"/>
		</g>
	</g>
</g>
<g>
	<g>
		
			<line fill="none" stroke="#FFFFFF" stroke-width="1.6" stroke-linecap="round" stroke-miterlimit="10" stroke-dasharray="3.2,5.6" x1="202.124" y1="110.662" x2="231.358" y2="110.662"/>
		<g>
			<polygon fill="#FFFFFF" points="226.057,117.205 224.966,116.033 230.745,110.663 224.966,105.292 226.057,104.119 
				233.094,110.663 			"/>
		</g>
	</g>
</g>
<path fill="#FFFFFF" d="M195.573,125.117c0,1.767-1.433,3.2-3.199,3.2h-75.113c-1.767,0-3.2-1.434-3.2-3.2V96.206
	c0-1.767,1.433-3.2,3.2-3.2h75.113c1.767,0,3.199,1.433,3.199,3.2V125.117z"/>
<g>
	<path fill="#413D45" d="M132.833,108.477h-1.272l-0.176-1.137c-0.168-0.168-0.38-0.301-0.635-0.398
		c-0.255-0.097-0.558-0.146-0.905-0.146c-0.742,0-1.313,0.27-1.714,0.809s-0.601,1.242-0.601,2.109v0.299
		c0,0.867,0.199,1.572,0.598,2.115c0.398,0.543,0.96,0.814,1.687,0.814c0.336,0,0.644-0.048,0.923-0.146s0.496-0.23,0.647-0.398
		l0.176-1.137h1.272v1.687c-0.344,0.399-0.783,0.716-1.316,0.953c-0.533,0.235-1.129,0.354-1.789,0.354
		c-1.145,0-2.083-0.397-2.813-1.19c-0.73-0.792-1.096-1.81-1.096-3.052v-0.288c0-1.238,0.363-2.256,1.089-3.053
		c0.727-0.797,1.667-1.195,2.818-1.195c0.66,0,1.255,0.12,1.787,0.36c0.531,0.241,0.971,0.558,1.318,0.952v1.688H132.833z"/>
	<path fill="#413D45" d="M142.039,105.6v2.273h-1.313l-0.07-0.955h-1.57v6.012l0.915,0.176v1.025h-3.539v-1.025l0.914-0.176v-6.012
		h-1.564l-0.071,0.955h-1.306V105.6H142.039z"/>
	<path fill="#413D45" d="M147.508,105.6c0.969,0,1.729,0.221,2.279,0.666c0.55,0.444,0.826,1.055,0.826,1.836
		c0,0.43-0.115,0.803-0.345,1.119c-0.23,0.317-0.568,0.572-1.014,0.768c0.504,0.148,0.866,0.396,1.087,0.742
		c0.22,0.346,0.331,0.774,0.331,1.286v0.434c0,0.187,0.037,0.333,0.111,0.437s0.198,0.166,0.369,0.184l0.211,0.029v1.031h-0.884
		c-0.559,0-0.951-0.149-1.178-0.451c-0.227-0.3-0.34-0.689-0.34-1.166v-0.486c0-0.415-0.11-0.74-0.331-0.976
		s-0.533-0.36-0.935-0.372h-1.4v2.25l0.915,0.176v1.025h-3.534v-1.025l0.908-0.176v-6.124l-0.908-0.176v-1.031h0.908L147.508,105.6
		L147.508,105.6z M146.295,109.362h1.183c0.477,0,0.833-0.102,1.072-0.305c0.238-0.203,0.357-0.496,0.357-0.879
		s-0.118-0.688-0.354-0.917c-0.236-0.229-0.584-0.343-1.045-0.343h-1.212V109.362z"/>
	<path fill="#413D45" d="M153.006,114.131v-1.025l0.908-0.176v-6.124l-0.908-0.176v-1.031h0.908h1.711h0.914v1.031l-0.914,0.176
		v6.012h2.408l0.082-1.072h1.307v2.384H153.006z"/>
	<path fill="#413D45" d="M168.841,109.374h2.104v1.477h-2.104v2.425h-1.622v-2.425h-2.121v-1.477h2.121v-2.309h1.622V109.374z"/>
	<path fill="#413D45" d="M183.664,108.477h-1.271l-0.176-1.137c-0.168-0.168-0.381-0.301-0.636-0.398
		c-0.256-0.097-0.558-0.146-0.906-0.146c-0.742,0-1.312,0.27-1.714,0.809c-0.399,0.539-0.6,1.242-0.6,2.109v0.299
		c0,0.867,0.2,1.572,0.598,2.115c0.398,0.543,0.961,0.814,1.688,0.814c0.336,0,0.643-0.048,0.923-0.146
		c0.279-0.098,0.495-0.23,0.647-0.398l0.176-1.137h1.271v1.687c-0.345,0.399-0.782,0.716-1.316,0.953
		c-0.532,0.235-1.13,0.354-1.79,0.354c-1.145,0-2.082-0.397-2.812-1.19c-0.73-0.792-1.096-1.81-1.096-3.052v-0.288
		c0-1.238,0.363-2.256,1.09-3.053s1.666-1.195,2.818-1.195c0.66,0,1.256,0.12,1.787,0.36c0.53,0.241,0.971,0.558,1.318,0.952
		L183.664,108.477L183.664,108.477z"/>
</g>
</svg>
