<?xml version="1.0" encoding="utf-8"?>
<!-- Generator: Adobe Illustrator 16.0.4, SVG Export Plug-In . SVG Version: 6.00 Build 0)  -->
<!DOCTYPE svg PUBLIC "-//W3C//DTD SVG 1.1//EN" "http://www.w3.org/Graphics/SVG/1.1/DTD/svg11.dtd">
<svg version="1.1" id="Layer_1" xmlns="http://www.w3.org/2000/svg" xmlns:xlink="http://www.w3.org/1999/xlink" x="0px" y="0px"
	 width="375px" height="375px" viewBox="0 0 375 375" enable-background="new 0 0 375 375" xml:space="preserve">
<ellipse opacity="0.2" fill="#232323" enable-background="new    " cx="196.679" cy="289.302" rx="53.898" ry="8.698"/>
<path fill="#232323" d="M248.108,173.657c3.373-1.033,7.01,0.408,8.209,4.076c1.205,3.64-1.536,8.758-6.226,10.235
	c-13.341,4.207-27.05,1.522-37.825-7.402c-3.79-3.134-4.395-8.907-1.909-11.83c2.496-2.946,6.408-2.903,9.138-0.676
	C227.646,174.812,238.018,176.837,248.108,173.657z"/>
<path fill="#232323" d="M253.89,182.999c-0.703,0.598-1.976,0.373-2.978-0.584c-0.998-0.951-0.974-2.445,0.189-3.148
	c3.114-1.876,6.702-2.676,10.2-2.346c1.29,0.119,2.229,0.985,2.114,1.73c-0.114,0.749-1.065,1.269-2.08,1.344
	C258.488,180.19,255.893,181.292,253.89,182.999z"/>
<path fill="#232323" d="M252.493,185.23c-0.896,0.212-1.931-0.568-2.383-1.876c-0.455-1.305,0.249-2.62,1.6-2.718
	c3.633-0.256,7.184,0.67,10.15,2.554c1.097,0.695,1.537,1.897,1.096,2.504c-0.442,0.614-1.529,0.646-2.463,0.25
	C257.864,184.822,255.058,184.621,252.493,185.23z"/>
<path fill="#232323" d="M187.41,245.921c-3.059,19.769-0.902,32.435,2.164,35.295c3.813,3.556,1.753,6.71,0.125,8.464
	c-1.558,1.674-5.579,3.795-13.236-2.505c-7.66-6.303-12.924-51.263-13.124-52.854L187.41,245.921z"/>
<path fill="#232323" d="M216.654,243.118c-3.061,19.768-0.902,32.434,2.161,35.295c3.814,3.556,1.757,6.712,0.125,8.462
	c-1.557,1.676-5.575,3.797-13.236-2.502c-7.659-6.305-12.922-51.266-13.126-52.854L216.654,243.118z"/>
<path fill="#FFFFFF" d="M148.758,210.873c0.679-17.042,4.077-38.942,10.805-46.601c5.694-6.484,13.268-9.277,29.631-9.277h0.016
	c9.561,0,16.093,0.973,21.033,3.061c-20.708,0.81-31.928,3.446-40.776,8.357C156.34,173.706,149.846,194.869,148.758,210.873z"/>
<path fill="#444444" d="M148.631,217.527c-0.07-2.068-0.033-4.301,0.128-6.654C148.667,213.199,148.623,215.432,148.631,217.527z"/>
<path fill="#444444" d="M156.061,231.484c2.599,0.031,4.966-2.748,5.424-6.635c0.463-3.869-2.285-7.065-6.073-6.512
	c-10.168,1.516-19.403,6.234-26.434,13.242c-2.596,2.577-3.079,6.167-1.489,7.572c1.591,1.42,4.609,0.847,6.946-0.816
	C140.991,233.636,148.627,231.366,156.061,231.484z"/>
<path fill="#444444" d="M228.767,230.154c-0.114,0.478-0.282,0.943-0.506,1.396c-0.141,0.284-0.334,0.56-0.516,0.836
	c-0.107,0.159-0.184,0.329-0.305,0.486c-0.307,0.407-0.668,0.801-1.064,1.187c-0.021,0.021-0.036,0.043-0.059,0.064
	c-2.123,2.025-5.478,3.732-9.801,5.072c0.006,0,0.012,0,0.016,0c-0.141,0.043-0.301,0.08-0.447,0.123
	c-0.631,0.191-1.279,0.373-1.951,0.549c-0.274,0.07-0.558,0.138-0.839,0.208c-0.618,0.151-1.256,0.295-1.903,0.435
	c-0.299,0.062-0.596,0.126-0.901,0.184c-0.721,0.145-1.46,0.279-2.217,0.404c-0.239,0.041-0.475,0.086-0.717,0.127
	c-1.01,0.158-2.047,0.307-3.113,0.438c-0.158,0.021-0.325,0.034-0.48,0.055c-0.906,0.108-1.826,0.206-2.765,0.292
	c-0.363,0.035-0.729,0.064-1.092,0.092c-0.775,0.064-1.557,0.123-2.354,0.172c-0.402,0.026-0.808,0.05-1.219,0.069
	c-0.82,0.046-1.654,0.08-2.498,0.107c-0.373,0.013-0.74,0.028-1.116,0.039c-1.217,0.03-2.45,0.05-3.708,0.05h-0.016
	c-13.425,0-24.58-1.803-31.624-4.956c-4.418-1.983-7.229-4.49-7.932-7.428c-0.648-2.718-0.993-7.216-1.01-12.628
	c-0.006-2.096,0.037-4.328,0.128-6.654c1.086-16.004,7.582-37.167,20.708-44.46c4.075-2.262,8.669-4.034,14.446-5.375
	c4.484-1.404,10.008-2.193,17.058-2.441c2.874-0.228,5.938-0.412,9.274-0.541c0.428,0.18,0.862,0.354,1.266,0.551
	c2.918,1.428,5.254,3.299,7.334,5.666C228.86,175.677,231.507,218.672,228.767,230.154z"/>
<ellipse fill="#444444" cx="189.349" cy="225.046" rx="40.197" ry="31.673"/>
<g>
	<path fill="#232323" d="M185.875,285.559c-0.85,0.311-1.949-0.326-2.549-1.553c-0.603-1.216-0.071-2.585,1.239-2.843
		c3.517-0.683,7.099-0.202,10.221,1.285c1.154,0.546,1.726,1.67,1.37,2.315c-0.359,0.648-1.418,0.811-2.38,0.538
		C191.079,284.516,188.307,284.656,185.875,285.559z"/>
	<path fill="#232323" d="M184.619,288.95c-0.905,0.067-1.783-0.854-2.021-2.194c-0.24-1.337,0.651-2.505,1.981-2.39
		c3.566,0.319,6.874,1.774,9.463,4.067c0.957,0.844,1.197,2.082,0.669,2.604c-0.522,0.526-1.584,0.387-2.431-0.144
		C189.906,289.393,187.203,288.758,184.619,288.95z"/>
	<path fill="#232323" d="M182.214,289.904c-0.835-0.353-1.199-1.572-0.799-2.875c0.394-1.301,1.722-1.934,2.85-1.227
		c3.031,1.912,5.313,4.711,6.574,7.934c0.463,1.188,0.115,2.397-0.588,2.625c-0.707,0.23-1.59-0.379-2.101-1.236
		C186.716,292.707,184.6,290.912,182.214,289.904z"/>
</g>
<g>
	<path fill="#232323" d="M216.44,282.234c-0.85,0.312-1.949-0.324-2.549-1.553c-0.602-1.216-0.071-2.584,1.237-2.844
		c3.517-0.68,7.099-0.201,10.222,1.287c1.153,0.545,1.726,1.668,1.368,2.316c-0.358,0.647-1.417,0.808-2.378,0.535
		C221.644,281.189,218.871,281.333,216.44,282.234z"/>
	<path fill="#232323" d="M215.183,285.625c-0.904,0.064-1.783-0.855-2.021-2.195c-0.238-1.337,0.652-2.506,1.98-2.391
		c3.567,0.32,6.875,1.775,9.463,4.068c0.957,0.846,1.199,2.084,0.672,2.604c-0.524,0.528-1.586,0.388-2.433-0.142
		C220.469,286.068,217.767,285.434,215.183,285.625z"/>
	<path fill="#232323" d="M212.779,286.581c-0.834-0.353-1.197-1.574-0.8-2.876c0.395-1.301,1.721-1.936,2.852-1.225
		c3.031,1.91,5.312,4.709,6.572,7.931c0.465,1.188,0.115,2.399-0.588,2.626c-0.707,0.23-1.592-0.379-2.102-1.237
		C217.282,289.382,215.166,287.589,212.779,286.581z"/>
</g>
<path fill="#232323" d="M338.771,157.769c-1.058,0.322-2.229,0.169-2.641-0.544c-0.409-0.709,0.199-1.957,1.464-2.589
	c3.414-1.711,7.365-2.317,11.265-1.641c1.453,0.256,2.068,1.758,1.433,3.115c-0.64,1.362-1.84,2.096-2.789,1.768
	C344.798,156.935,341.733,156.842,338.771,157.769z"/>
<path fill="#232323" d="M341.968,163.463c-0.791,0.771-1.906,1.165-2.592,0.718c-0.687-0.441-0.718-1.832,0.12-2.968
	c2.266-3.083,5.503-5.42,9.283-6.592c1.405-0.433,2.639,0.622,2.693,2.124c0.055,1.505-0.682,2.703-1.676,2.839
	C346.96,159.979,344.19,161.291,341.968,163.463z"/>
<g>
	<g>
		<g>
			<path fill="#84CD29" d="M335.411,136.032l-76.798,5.98c-2.354,0.183-4.116,2.244-3.934,4.599l3.323,42.665
				c0.183,2.355,2.244,4.117,4.599,3.934l76.795-5.979c2.356-0.184,4.117-2.243,3.935-4.599l-3.322-42.665
				C339.825,137.612,337.766,135.849,335.411,136.032z"/>
		</g>
		<path fill="#FFFFFF" d="M264.236,186.644l-0.664-8.531c4.713-0.367,8.829,3.154,9.195,7.867L264.236,186.644z"/>
		<path fill="#FFFFFF" d="M261.911,156.779l-0.664-8.534l8.531-0.665C270.146,152.295,266.624,156.412,261.911,156.779z"/>
		<path fill="#FFFFFF" d="M336.768,180.996l-8.536,0.665c-0.366-4.713,3.155-8.83,7.872-9.197L336.768,180.996z"/>
		<path fill="#FFFFFF" d="M334.442,151.132c-4.717,0.367-8.833-3.155-9.2-7.869l8.536-0.665L334.442,151.132z"/>
		<path fill="#FFFFFF" d="M300.166,179.554c-16.718,1.302-30.792-4.329-31.434-12.575c-0.643-8.247,12.391-15.988,29.108-17.29
			c16.723-1.302,30.8,4.328,31.441,12.575C329.925,170.513,316.885,178.252,300.166,179.554z"/>
	</g>
	
		<rect x="268.492" y="157.974" transform="matrix(0.997 -0.0776 0.0776 0.997 -11.9644 23.7147)" fill="none" width="61.016" height="15.502"/>
	
		<text transform="matrix(0.997 -0.0776 0.0776 0.997 282.7373 171.1729)" fill="#84CD29"  font-size="15.6469">$100</text>
</g>
<path fill="#232323" d="M252.883,179.465c-0.513,0.766-1.796,0.905-3.023,0.262c-1.223-0.637-1.609-2.076-0.691-3.075
	c2.474-2.67,5.699-4.427,9.149-5.085c1.272-0.243,2.42,0.334,2.514,1.078c0.093,0.748-0.673,1.515-1.629,1.869
	C256.521,175.49,254.332,177.271,252.883,179.465z"/>
<path fill="#232323" d="M338.771,151.368c-1.106,0.02-2.189-0.454-2.386-1.253c-0.2-0.79,0.735-1.828,2.119-2.08
	c3.76-0.698,7.722-0.187,11.28,1.546c1.326,0.65,1.503,2.263,0.512,3.392c-0.991,1.136-2.347,1.502-3.168,0.925
	C344.795,152.245,341.873,151.302,338.771,151.368z"/>
<g>
	<g>
		<path fill="#D0DAE3" d="M127.51,115.872l12.953,8.867c1.636,1.118,2.059,3.38,0.939,5.014l-5.211,7.487l-0.116-0.082
			c-3.034-2.078-7.063-1.323-9.143,1.712c-1.038,1.517-1.431,3.218-1.1,4.988c0.312,1.67,1.316,3.215,2.831,4.253l0.099-0.019
			l-5.212,7.487c-0.559,0.815-1.369,1.374-2.255,1.541c-0.883,0.165-1.941-0.045-2.658-0.622l-12.954-8.867
			c-4.22-2.976-7.149-7.207-8.107-12.317c-0.958-5.111,0.125-10.197,3.1-14.418C106.764,112.128,118.757,109.882,127.51,115.872z"/>
		<path fill="#7F7F7F" d="M195.699,190.978c-1.008,2.223-1.818,4.409-2.083,6.8l-0.414,3.23c-0.024,0.411-0.067,0.726,0.007,1.117
			c0.165,0.886,0.724,1.696,1.542,2.255l11.202,7.669c1.635,1.118,3.894,0.696,5.013-0.938l13.039-18.925
			c1.117-1.633,0.693-3.893-0.939-5.012l-11.203-7.669c-1.068-0.817-2.5-0.854-3.704-0.221l-2.765,1.534
			c-2.132,1.111-3.976,2.679-5.586,4.403l-69.799-48.48c-1.633-1.118-3.895-0.695-5.013,0.939c-0.559,0.817-0.787,1.775-0.62,2.659
			c0.166,0.886,0.723,1.695,1.541,2.254L195.699,190.978z M208.809,187.094l0.927-0.479l6.438,4.492l-8.947,13.069l-6.537-4.471
			l0.111-1.038C201.41,193.772,204.348,189.354,208.809,187.094z"/>
	</g>
</g>
<g>
	<path fill="#444444" d="M233.198,123.519c-0.314,9.861,2.564,17.957,6.434,18.081c3.865,0.118,7.252-7.777,7.564-17.634
		c0.312-9.863-2.568-17.954-6.43-18.08C236.897,105.762,233.511,113.659,233.198,123.519z"/>
	<path fill="#FFFFFF" d="M243.104,106.974c-8.151-25.342-34.206-28.942-49.606-28.971L192.228,78
		c-15.401-0.028-41.471,3.478-49.713,28.788l50.389,26.125L243.104,106.974"/>
	<path fill="#444444" d="M222.085,97.318c-3.658-0.008-6.016,0.031-10.977,1.436c-4.236,1.202-11.714,4.022-18.113,4.011h-0.221
		c-6.4-0.012-13.867-2.86-18.102-4.076c-4.958-1.424-7.311-1.47-10.973-1.478c-13.9-0.026-15.746,10.32-15.746,10.32h-0.021
		c-7.012,25.587,4.98,25.344,4.98,25.344l79.801,0.146c0,0,11.974-0.459,4.865-26.111c-0.033-0.115-0.071-0.222-0.105-0.336
		C236.551,103.9,233.159,97.339,222.085,97.318z"/>
	<path fill="#444444" d="M192.563,167.933c-15.992-0.03-49.91-12.922-49.855-41.089C142.76,98.68,180.2,96.518,192.81,96.541
		c12.607,0.023,50.08,2.324,50.027,30.486C242.786,155.194,208.554,167.961,192.563,167.933z"/>
	<path fill="#7F7F7F" d="M192.665,154.875c-6.529-0.013-20.381-6.086-20.355-19.369c0.025-13.278,15.316-14.305,20.465-14.296
		c5.149,0.009,20.454,1.092,20.43,14.371C213.179,148.864,199.196,154.887,192.665,154.875z"/>
	<path fill="#232323" d="M193.081,124.696c2.838,0.006,7.025,2.975,7.516,6.431c0.484,3.456-7.721,3.318-7.721,3.318h-0.235
		c0,0-8.206,0.107-7.706-3.349c0.498-3.453,4.699-6.407,7.539-6.401L193.081,124.696L193.081,124.696z"/>
	<path fill="none" stroke="#7F7F7F" stroke-width="1.9744" stroke-linecap="round" stroke-miterlimit="10" d="M165.64,112.458
		c0.346-0.814,0.844-1.546,1.459-2.161c0.617-0.614,1.35-1.11,2.164-1.451c0.812-0.344,1.707-0.532,2.648-0.53
		c0.938,0.001,1.834,0.194,2.646,0.541"/>
	<path fill="none" stroke="#7F7F7F" stroke-width="1.9744" stroke-linecap="round" stroke-miterlimit="10" d="M219.96,112.856
		c-0.344-0.814-0.84-1.55-1.453-2.164c-0.612-0.617-1.35-1.116-2.158-1.461c-0.812-0.345-1.708-0.537-2.646-0.538
		c-0.938-0.001-1.834,0.185-2.646,0.527"/>
	<circle fill="#232323" cx="171.855" cy="114.591" r="2.509"/>
	<circle fill="#232323" cx="213.733" cy="114.668" r="2.508"/>
	<path fill="#444444" d="M152.362,123.369c0.277,9.864-2.634,17.948-6.502,18.057c-3.865,0.106-7.225-7.802-7.5-17.661
		c-0.277-9.863,2.635-17.945,6.495-18.056C148.723,105.601,152.083,113.509,152.362,123.369z"/>
	<path fill="#232323" d="M147.866,112.463c-3.184,0.112-5.783,6.11-6.787,14.586c-0.109-1.067-0.185-2.175-0.211-3.325
		c-0.178-7.749,1.724-14.102,4.242-14.19c1.07-0.036,2.082,1.075,2.905,2.945C147.966,112.481,147.917,112.462,147.866,112.463z"/>
	<path fill="#FFFFFF" d="M192.712,103.153c-7.223-0.014-15.645-2.861-20.418-4.079c-5.594-1.426-8.252-1.472-12.381-1.479
		c-12.492-0.024-16.344,6.522-17.398,9.193c8.242-25.31,34.312-28.816,49.713-28.788l1.271,0.003
		c15.398,0.028,41.453,3.629,49.604,28.97c-1.044-2.675-4.872-9.235-17.364-9.259c-4.127-0.008-6.787,0.03-12.384,1.434
		c-4.78,1.2-13.211,4.018-20.437,4.005H192.712z"/>
	<path fill="none" stroke="#232323" stroke-width="1.7887" stroke-linecap="round" stroke-miterlimit="10" d="M202.769,141.312
		c-0.553,1.301-1.352,2.473-2.338,3.455c-0.984,0.983-2.156,1.775-3.461,2.324c-1.305,0.549-2.734,0.85-4.236,0.847
		s-2.934-0.309-4.23-0.862c-1.299-0.555-2.473-1.351-3.455-2.337c-0.979-0.986-1.777-2.161-2.323-3.462"/>
	<path fill="#232323" d="M237.733,112.627c3.182,0.124,5.758,6.131,6.73,14.611c0.113-1.065,0.193-2.174,0.224-3.323
		c0.209-7.749-1.671-14.108-4.188-14.205c-1.072-0.042-2.086,1.065-2.916,2.935C237.632,112.646,237.683,112.626,237.733,112.627z"
		/>
</g>
<g>
	<path fill="#232323" d="M27.325,274.346c-5.938,0-8.368-4.208-5.398-9.35l20.372-35.283c2.969-5.143,7.828-5.143,10.797,0
		l20.37,35.283c2.969,5.143,0.54,9.35-5.398,9.35H27.325z"/>
	<path fill="#232323" d="M56.055,274.346c-4.157,0-5.857-2.945-3.779-6.545l14.26-24.699c2.078-3.6,5.479-3.6,7.558,0l14.26,24.699
		c2.078,3.6,0.378,6.545-3.779,6.545H56.055z"/>
</g>
<ellipse fill="#232323" cx="78.442" cy="288.884" rx="51.299" ry="8.28"/>
<g>
	<path fill="#232323" d="M200.264,188.599c3.519-0.16,6.685,2.141,6.933,5.995c0.259,3.826-3.672,8.099-8.58,8.359
		c-13.97,0.745-26.58-5.274-34.784-16.602c-2.889-3.98-2.037-9.722,1.103-11.932c3.148-2.231,6.926-1.216,9.014,1.621
		C180.159,184.612,189.697,189.162,200.264,188.599z"/>
	<g>
		<path fill="#232323" d="M204.044,195.309c-0.627,0.59-1.83,0.443-2.811-0.405c-0.981-0.844-1.026-2.238,0.022-2.952
			c2.825-1.911,6.141-2.83,9.431-2.695c1.213,0.048,2.136,0.818,2.062,1.518c-0.07,0.703-0.937,1.241-1.881,1.359
			C208.211,192.454,205.837,193.614,204.044,195.309z"/>
		<path fill="#232323" d="M204.211,198.751c-0.767,0.392-1.88-0.084-2.591-1.169c-0.709-1.081-0.366-2.437,0.843-2.831
			c3.24-1.054,6.682-1.017,9.806,0.027c1.152,0.38,1.825,1.373,1.562,2.029c-0.264,0.656-1.243,0.93-2.185,0.784
			C209.004,197.163,206.4,197.615,204.211,198.751z"/>
		<path fill="#232323" d="M202.461,200.484c-0.863,0.004-1.638-0.931-1.771-2.221c-0.141-1.284,0.783-2.336,2.038-2.136
			c3.364,0.54,6.412,2.139,8.719,4.487c0.851,0.868,0.998,2.059,0.467,2.521c-0.533,0.464-1.533,0.263-2.302-0.296
			C207.451,201.255,204.928,200.473,202.461,200.484z"/>
	</g>
</g>
<path fill="#D0DAE3" d="M157.892,101.603c-0.095-0.343-0.589-0.359-0.696,0c-0.558,1.88-1.75,2.392-1.75,3.717
	c0,1.173,0.938,2.123,2.098,2.123c1.159,0,2.098-0.949,2.098-2.123C159.642,103.988,158.452,103.492,157.892,101.603
	L157.892,101.603z"/>
<path fill="#D0DAE3" d="M228.928,101.696c-0.095-0.343-0.589-0.359-0.696,0c-0.558,1.88-1.75,2.392-1.75,3.717
	c0,1.173,0.938,2.123,2.098,2.123c1.16,0,2.099-0.949,2.099-2.123C230.678,104.081,229.488,103.585,228.928,101.696L228.928,101.696
	z"/>
<path fill="#D0DAE3" d="M153.415,109.507c-0.095-0.343-0.589-0.359-0.696,0c-0.558,1.88-1.75,2.391-1.75,3.717
	c0,1.173,0.938,2.123,2.098,2.123s2.098-0.95,2.098-2.123C155.165,111.892,153.975,111.396,153.415,109.507L153.415,109.507z"/>
<path fill="#232323" d="M375,131.573c-5.747,8.624-14.786,13.864-25.319,14.555c-3.824,0.281-6.944,3.172-6.717,7.365
	c0.213,4.168,5.012,8.273,10.347,7.923c8.045-0.527,15.421-3.074,21.689-7.313V131.573z"/>
</svg>
