<?xml version="1.0" encoding="utf-8"?>
<!-- Generator: Adobe Illustrator 16.0.4, SVG Export Plug-In . SVG Version: 6.00 Build 0)  -->
<!DOCTYPE svg PUBLIC "-//W3C//DTD SVG 1.1//EN" "http://www.w3.org/Graphics/SVG/1.1/DTD/svg11.dtd">
<svg version="1.1" id="Layer_1" xmlns="http://www.w3.org/2000/svg" xmlns:xlink="http://www.w3.org/1999/xlink" x="0px" y="0px"
	 width="300px" height="225px" viewBox="37.5 75 300 225" enable-background="new 37.5 75 300 225" xml:space="preserve">
<ellipse opacity="0.2" fill="#232323" enable-background="new    " cx="194.845" cy="269.042" rx="43.117" ry="6.958"/>
<path fill="#232323" d="M235.986,176.526c2.698-0.827,5.608,0.326,6.567,3.26c0.964,2.912-1.229,7.007-4.98,8.188
	c-10.673,3.366-21.64,1.218-30.26-5.921c-3.031-2.507-3.516-7.125-1.527-9.464c1.997-2.357,5.127-2.322,7.311-0.541
	C219.618,177.45,227.915,179.069,235.986,176.526z"/>
<path fill="#232323" d="M240.613,183.999c-0.562,0.479-1.582,0.299-2.383-0.467c-0.799-0.761-0.78-1.957,0.151-2.519
	c2.49-1.501,5.36-2.141,8.159-1.877c1.032,0.095,1.783,0.788,1.691,1.384c-0.092,0.6-0.853,1.016-1.664,1.076
	C244.291,181.752,242.215,182.634,240.613,183.999z"/>
<path fill="#232323" d="M239.495,185.784c-0.717,0.169-1.545-0.455-1.907-1.501c-0.364-1.044,0.2-2.096,1.28-2.175
	c2.906-0.205,5.748,0.537,8.12,2.043c0.878,0.556,1.229,1.518,0.877,2.003c-0.354,0.491-1.223,0.517-1.971,0.2
	C243.792,185.458,241.547,185.297,239.495,185.784z"/>
<path fill="#232323" d="M187.429,234.337c-2.447,15.814-0.722,25.947,1.731,28.235c3.05,2.845,1.402,5.368,0.1,6.771
	c-1.247,1.339-4.463,3.036-10.589-2.004c-6.128-5.042-10.339-41.01-10.499-42.283L187.429,234.337z"/>
<path fill="#232323" d="M210.824,232.095c-2.449,15.813-0.722,25.946,1.728,28.235c3.052,2.845,1.406,5.37,0.101,6.77
	c-1.245,1.341-4.46,3.038-10.589-2.001c-6.127-5.044-10.337-41.013-10.5-42.283L210.824,232.095z"/>
<path fill="#FFFFFF" d="M156.507,206.299c0.543-13.634,3.262-31.154,8.644-37.281c4.555-5.187,10.615-7.421,23.705-7.421h0.013
	c7.649,0,12.875,0.778,16.827,2.449c-16.566,0.648-25.543,2.757-32.621,6.686C162.572,176.565,157.377,193.495,156.507,206.299z"/>
<path fill="#444444" d="M156.405,211.622c-0.056-1.655-0.026-3.44,0.103-5.323C156.434,208.159,156.399,209.945,156.405,211.622z"/>
<path fill="#444444" d="M162.35,222.787c2.079,0.025,3.973-2.198,4.339-5.308c0.371-3.095-1.828-5.652-4.858-5.21
	c-8.134,1.213-15.522,4.986-21.147,10.594c-2.077,2.062-2.463,4.934-1.191,6.057c1.273,1.137,3.688,0.679,5.557-0.652
	C150.293,224.509,156.402,222.693,162.35,222.787z"/>
<path fill="#444444" d="M220.515,221.724c-0.092,0.382-0.227,0.755-0.404,1.116c-0.113,0.228-0.269,0.447-0.414,0.669
	c-0.085,0.127-0.147,0.263-0.244,0.389c-0.245,0.326-0.534,0.641-0.851,0.949c-0.017,0.018-0.029,0.034-0.048,0.052
	c-1.698,1.62-4.382,2.986-7.841,4.058c0.005,0,0.01,0,0.014,0c-0.113,0.034-0.241,0.064-0.358,0.099
	c-0.504,0.152-1.022,0.299-1.561,0.439c-0.22,0.056-0.446,0.109-0.671,0.166c-0.495,0.121-1.005,0.236-1.522,0.348
	c-0.239,0.05-0.477,0.101-0.721,0.146c-0.577,0.117-1.168,0.224-1.774,0.324c-0.19,0.032-0.38,0.068-0.573,0.102
	c-0.808,0.126-1.638,0.246-2.49,0.351c-0.126,0.017-0.26,0.027-0.384,0.044c-0.725,0.086-1.46,0.164-2.212,0.233
	c-0.291,0.028-0.583,0.052-0.873,0.073c-0.621,0.052-1.246,0.099-1.884,0.138c-0.321,0.021-0.646,0.04-0.976,0.056
	c-0.656,0.036-1.323,0.063-1.998,0.086c-0.299,0.01-0.592,0.022-0.893,0.03c-0.974,0.024-1.96,0.04-2.967,0.04h-0.014
	c-10.739,0-19.663-1.441-25.298-3.965c-3.535-1.586-5.784-3.592-6.346-5.942c-0.519-2.174-0.795-5.772-0.809-10.102
	c-0.004-1.677,0.03-3.463,0.103-5.323c0.869-12.804,6.065-29.734,16.566-35.568c3.26-1.81,6.936-3.228,11.557-4.3
	c3.587-1.124,8.006-1.754,13.647-1.953c2.298-0.182,4.75-0.33,7.419-0.433c0.342,0.144,0.688,0.283,1.012,0.44
	c2.335,1.143,4.203,2.64,5.867,4.533C220.588,178.142,222.706,212.537,220.515,221.724z"/>
<ellipse fill="#444444" cx="188.98" cy="217.637" rx="32.157" ry="25.338"/>
<g>
	<path fill="#232323" d="M186.2,266.047c-0.68,0.249-1.559-0.261-2.039-1.242c-0.482-0.973-0.057-2.068,0.991-2.274
		c2.813-0.546,5.68-0.161,8.177,1.028c0.923,0.437,1.381,1.336,1.097,1.853c-0.288,0.518-1.135,0.648-1.905,0.43
		C190.364,265.213,188.146,265.325,186.2,266.047z"/>
	<path fill="#232323" d="M185.196,268.76c-0.724,0.055-1.427-0.684-1.617-1.755c-0.192-1.069,0.521-2.004,1.584-1.912
		c2.853,0.256,5.5,1.42,7.571,3.254c0.766,0.675,0.958,1.666,0.535,2.083c-0.417,0.42-1.268,0.31-1.945-0.115
		C189.426,269.114,187.263,268.606,185.196,268.76z"/>
	<path fill="#232323" d="M183.271,269.523c-0.668-0.283-0.959-1.258-0.639-2.3c0.315-1.041,1.378-1.547,2.28-0.982
		c2.424,1.53,4.25,3.77,5.259,6.348c0.371,0.95,0.092,1.917-0.471,2.101c-0.565,0.184-1.271-0.304-1.681-0.989
		C186.873,271.766,185.181,270.33,183.271,269.523z"/>
</g>
<g>
	<path fill="#232323" d="M210.652,263.388c-0.68,0.249-1.559-0.26-2.039-1.242c-0.481-0.974-0.057-2.067,0.989-2.276
		c2.813-0.543,5.68-0.16,8.178,1.03c0.923,0.436,1.381,1.334,1.095,1.853c-0.287,0.518-1.134,0.646-1.902,0.428
		C214.816,262.552,212.598,262.666,210.652,263.388z"/>
	<path fill="#232323" d="M209.647,266.1c-0.724,0.052-1.427-0.684-1.617-1.756c-0.19-1.069,0.521-2.005,1.584-1.912
		c2.854,0.256,5.5,1.42,7.57,3.254c0.766,0.677,0.96,1.668,0.538,2.083c-0.42,0.423-1.269,0.312-1.947-0.114
		C213.876,266.455,211.715,265.947,209.647,266.1z"/>
	<path fill="#232323" d="M207.724,266.865c-0.667-0.282-0.957-1.26-0.641-2.301s1.378-1.549,2.282-0.98
		c2.425,1.528,4.249,3.768,5.257,6.345c0.373,0.951,0.093,1.92-0.47,2.101c-0.565,0.185-1.273-0.303-1.682-0.989
		C211.326,269.105,209.634,267.671,207.724,266.865z"/>
</g>
<path fill="#232323" d="M308.518,163.815c-0.847,0.257-1.783,0.135-2.113-0.436c-0.327-0.567,0.159-1.565,1.171-2.071
	c2.731-1.369,5.893-1.854,9.013-1.312c1.162,0.205,1.654,1.406,1.146,2.492c-0.512,1.09-1.473,1.677-2.231,1.415
	C313.339,163.148,310.887,163.073,308.518,163.815z"/>
<path fill="#232323" d="M311.074,168.37c-0.633,0.617-1.524,0.932-2.073,0.575c-0.549-0.353-0.574-1.465,0.097-2.375
	c1.812-2.466,4.402-4.336,7.426-5.273c1.124-0.347,2.111,0.498,2.154,1.699c0.045,1.204-0.545,2.163-1.341,2.271
	C315.068,165.583,312.853,166.633,311.074,168.37z"/>
<g>
	<g>
		<g>
			<path fill="#84CD29" d="M305.829,146.426l-61.438,4.784c-1.883,0.146-3.293,1.795-3.146,3.679l2.658,34.132
				c0.146,1.884,1.795,3.294,3.68,3.147l61.436-4.783c1.885-0.147,3.293-1.794,3.147-3.679l-2.657-34.132
				C309.36,147.689,307.713,146.279,305.829,146.426z"/>
		</g>
		<path fill="#FFFFFF" d="M248.89,186.915l-0.531-6.825c3.771-0.293,7.062,2.523,7.356,6.293L248.89,186.915z"/>
		<path fill="#FFFFFF" d="M247.029,163.023l-0.531-6.827l6.824-0.532C253.617,159.436,250.8,162.729,247.029,163.023z"/>
		<path fill="#FFFFFF" d="M306.914,182.397l-6.828,0.532c-0.293-3.77,2.523-7.064,6.297-7.357L306.914,182.397z"/>
		<path fill="#FFFFFF" d="M305.055,158.505c-3.774,0.294-7.066-2.524-7.36-6.295l6.829-0.532L305.055,158.505z"/>
		<path fill="#FFFFFF" d="M277.633,181.243c-13.374,1.042-24.633-3.463-25.146-10.06c-0.515-6.598,9.912-12.79,23.286-13.832
			c13.378-1.042,24.64,3.462,25.153,10.06C301.44,174.011,291.008,180.202,277.633,181.243z"/>
	</g>
	
		<rect x="252.293" y="163.991" transform="matrix(-0.997 0.0776 -0.0776 -0.997 565.7701 318.401)" fill="none" width="48.813" height="12.402"/>
	
		<text transform="matrix(0.997 -0.0776 0.0776 0.997 263.6895 174.5376)" fill="#84CD29" font-family="'DMSans-Bold'" font-size="12.5177">$100</text>
</g>
<path fill="#232323" d="M239.807,181.172c-0.41,0.613-1.437,0.724-2.419,0.21c-0.978-0.51-1.286-1.661-0.552-2.46
	c1.979-2.136,4.559-3.542,7.319-4.068c1.017-0.194,1.936,0.267,2.011,0.862c0.074,0.599-0.538,1.212-1.303,1.496
	C242.718,177.992,240.966,179.417,239.807,181.172z"/>
<path fill="#232323" d="M308.518,158.694c-0.885,0.016-1.752-0.363-1.909-1.002c-0.16-0.632,0.588-1.463,1.695-1.664
	c3.008-0.559,6.177-0.15,9.024,1.236c1.061,0.52,1.202,1.811,0.409,2.714c-0.793,0.909-1.878,1.202-2.534,0.74
	C313.336,159.396,310.999,158.642,308.518,158.694z"/>
<g>
	<g>
		<path fill="#D0DAE3" d="M139.508,130.298l10.363,7.094c1.309,0.894,1.647,2.704,0.751,4.011l-4.169,5.99l-0.092-0.065
			c-2.427-1.663-5.65-1.059-7.314,1.37c-0.831,1.213-1.145,2.574-0.88,3.99c0.25,1.336,1.053,2.572,2.265,3.402l0.079-0.016
			l-4.17,5.99c-0.447,0.652-1.095,1.099-1.804,1.232c-0.707,0.132-1.553-0.036-2.126-0.498l-10.363-7.094
			c-3.376-2.38-5.719-5.766-6.485-9.854c-0.767-4.088,0.1-8.157,2.479-11.534C122.912,127.302,132.506,125.505,139.508,130.298z"/>
		<path fill="#7F7F7F" d="M194.06,190.383c-0.806,1.778-1.454,3.526-1.666,5.439l-0.331,2.584c-0.02,0.329-0.054,0.581,0.005,0.894
			c0.133,0.709,0.58,1.356,1.234,1.804l8.961,6.136c1.309,0.895,3.116,0.557,4.011-0.75l10.431-15.141
			c0.895-1.307,0.555-3.114-0.75-4.01l-8.963-6.135c-0.854-0.654-2-0.684-2.963-0.177l-2.212,1.227
			c-1.706,0.889-3.182,2.143-4.469,3.522l-55.84-38.784c-1.307-0.895-3.116-0.557-4.01,0.751c-0.447,0.653-0.63,1.42-0.496,2.127
			c0.133,0.709,0.579,1.356,1.233,1.803L194.06,190.383z M204.548,187.275l0.742-0.383l5.149,3.594l-7.157,10.454l-5.23-3.576
			l0.09-0.831C198.629,192.617,200.979,189.083,204.548,187.275z"/>
	</g>
</g>
<g>
	<path fill="#444444" d="M224.06,136.415c-0.252,7.889,2.051,14.366,5.146,14.465c3.092,0.094,5.802-6.221,6.051-14.107
		c0.25-7.89-2.054-14.363-5.144-14.464C227.018,122.21,224.31,128.527,224.06,136.415z"/>
	<path fill="#FFFFFF" d="M231.983,123.179c-6.521-20.274-27.364-23.153-39.685-23.177L191.283,100
		c-12.321-0.022-33.177,2.782-39.771,23.03l40.312,20.9L231.983,123.179"/>
	<path fill="#444444" d="M215.169,115.454c-2.927-0.006-4.813,0.025-8.782,1.149c-3.389,0.962-9.37,3.218-14.49,3.209h-0.177
		c-5.12-0.01-11.093-2.288-14.482-3.261c-3.966-1.139-5.849-1.176-8.778-1.183c-11.12-0.021-12.597,8.256-12.597,8.256h-0.017
		c-5.61,20.47,3.984,20.275,3.984,20.275l63.841,0.117c0,0,9.58-0.367,3.893-20.889c-0.027-0.092-0.058-0.178-0.085-0.269
		C226.741,120.72,224.028,115.471,215.169,115.454z"/>
	<path fill="#444444" d="M191.551,171.946c-12.793-0.024-39.928-10.338-39.884-32.871c0.042-22.531,29.994-24.261,40.082-24.242
		c10.085,0.018,40.064,1.859,40.021,24.389C231.729,161.755,204.345,171.969,191.551,171.946z"/>
	<path fill="#7F7F7F" d="M191.633,161.5c-5.224-0.011-16.305-4.869-16.284-15.495c0.02-10.623,12.253-11.444,16.372-11.437
		c4.119,0.007,16.362,0.874,16.344,11.497C208.044,156.691,196.856,161.51,191.633,161.5z"/>
	<path fill="#232323" d="M191.966,137.356c2.27,0.005,5.619,2.38,6.013,5.145c0.387,2.765-6.177,2.654-6.177,2.654h-0.188
		c0,0-6.565,0.085-6.165-2.679c0.398-2.763,3.759-5.126,6.032-5.121L191.966,137.356L191.966,137.356z"/>
	<path fill="none" stroke="#7F7F7F" stroke-width="1.5795" stroke-linecap="round" stroke-miterlimit="10" d="M170.013,127.566
		c0.276-0.651,0.675-1.237,1.167-1.729c0.494-0.491,1.08-0.888,1.731-1.161c0.649-0.275,1.366-0.426,2.118-0.424
		c0.75,0,1.467,0.155,2.117,0.433"/>
	<path fill="none" stroke="#7F7F7F" stroke-width="1.5795" stroke-linecap="round" stroke-miterlimit="10" d="M213.469,127.885
		c-0.275-0.651-0.672-1.24-1.163-1.731c-0.489-0.493-1.079-0.893-1.726-1.168c-0.649-0.276-1.367-0.43-2.117-0.431
		c-0.75,0-1.467,0.148-2.117,0.421"/>
	<circle fill="#232323" cx="174.984" cy="129.273" r="2.007"/>
	<circle fill="#232323" cx="208.486" cy="129.334" r="2.006"/>
	<path fill="#444444" d="M159.39,136.295c0.222,7.891-2.107,14.358-5.202,14.445c-3.092,0.085-5.78-6.242-6-14.128
		c-0.222-7.891,2.108-14.356,5.196-14.445C156.479,122.081,159.167,128.407,159.39,136.295z"/>
	<path fill="#232323" d="M155.793,127.57c-2.547,0.09-4.626,4.888-5.43,11.669c-0.087-0.854-0.148-1.74-0.168-2.66
		c-0.143-6.199,1.379-11.281,3.393-11.352c0.856-0.029,1.666,0.859,2.324,2.355C155.873,127.585,155.834,127.569,155.793,127.57z"/>
	<path fill="#FFFFFF" d="M191.67,120.122c-5.778-0.011-12.516-2.289-16.334-3.263c-4.475-1.141-6.602-1.178-9.905-1.184
		c-9.994-0.019-13.076,5.218-13.918,7.354c6.593-20.248,27.45-23.053,39.771-23.03l1.017,0.002
		c12.318,0.022,33.162,2.903,39.684,23.176c-0.836-2.141-3.898-7.389-13.892-7.408c-3.302-0.006-5.43,0.024-9.907,1.147
		c-3.824,0.96-10.568,3.214-16.35,3.204H191.67z"/>
	<path fill="none" stroke="#232323" stroke-width="1.431" stroke-linecap="round" stroke-miterlimit="10" d="M199.716,150.649
		c-0.442,1.041-1.082,1.979-1.87,2.764c-0.787,0.787-1.725,1.42-2.769,1.859c-1.045,0.439-2.188,0.68-3.389,0.678
		c-1.202-0.002-2.348-0.247-3.385-0.689c-1.039-0.444-1.979-1.081-2.764-1.869c-0.783-0.789-1.421-1.729-1.858-2.77"/>
	<path fill="#232323" d="M227.687,127.702c2.546,0.099,4.607,4.905,5.385,11.688c0.09-0.852,0.154-1.739,0.18-2.658
		c0.167-6.199-1.338-11.286-3.352-11.364c-0.857-0.034-1.668,0.852-2.332,2.348C227.606,127.717,227.647,127.701,227.687,127.702z"
		/>
</g>
<g>
	<path fill="#232323" d="M59.361,257.076c-4.75,0-6.695-3.365-4.319-7.479L71.34,221.37c2.375-4.114,6.262-4.114,8.638,0
		l16.296,28.227c2.375,4.114,0.432,7.479-4.318,7.479H59.361z"/>
	<path fill="#232323" d="M82.345,257.076c-3.326,0-4.686-2.355-3.023-5.235l11.408-19.76c1.662-2.88,4.383-2.88,6.046,0
		l11.408,19.76c1.663,2.88,0.303,5.235-3.023,5.235H82.345z"/>
</g>
<ellipse fill="#232323" cx="100.254" cy="268.707" rx="41.04" ry="6.624"/>
<g>
	<path fill="#232323" d="M197.712,188.479c2.815-0.128,5.348,1.713,5.547,4.796c0.207,3.061-2.938,6.479-6.864,6.688
		c-11.176,0.596-21.264-4.219-27.828-13.282c-2.311-3.184-1.629-7.777,0.882-9.545c2.519-1.785,5.541-0.973,7.211,1.297
		C181.628,185.29,189.259,188.93,197.712,188.479z"/>
	<g>
		<path fill="#232323" d="M200.735,193.847c-0.501,0.472-1.464,0.354-2.249-0.323c-0.784-0.675-0.82-1.791,0.019-2.361
			c2.26-1.529,4.913-2.265,7.544-2.156c0.971,0.038,1.71,0.654,1.65,1.215c-0.057,0.562-0.75,0.992-1.505,1.086
			C204.069,191.563,202.17,192.491,200.735,193.847z"/>
		<path fill="#232323" d="M200.869,196.601c-0.614,0.313-1.504-0.067-2.072-0.935c-0.567-0.865-0.293-1.95,0.674-2.266
			c2.593-0.843,5.346-0.812,7.846,0.021c0.921,0.305,1.459,1.099,1.249,1.623c-0.212,0.525-0.994,0.744-1.748,0.628
			C204.704,195.33,202.621,195.692,200.869,196.601z"/>
		<path fill="#232323" d="M199.47,197.987c-0.691,0.003-1.311-0.745-1.418-1.776c-0.112-1.028,0.627-1.869,1.632-1.709
			c2.69,0.432,5.13,1.711,6.975,3.59c0.681,0.694,0.799,1.646,0.374,2.016c-0.427,0.372-1.227,0.211-1.843-0.236
			C203.462,198.604,201.442,197.979,199.47,197.987z"/>
	</g>
</g>
<path fill="#D0DAE3" d="M163.814,118.882c-0.076-0.274-0.471-0.287-0.557,0c-0.446,1.504-1.4,1.914-1.4,2.974
	c0,0.938,0.75,1.698,1.678,1.698c0.927,0,1.679-0.759,1.679-1.698C165.214,120.79,164.262,120.394,163.814,118.882L163.814,118.882z
	"/>
<path fill="#D0DAE3" d="M220.643,118.957c-0.075-0.274-0.471-0.287-0.556,0c-0.447,1.504-1.4,1.914-1.4,2.974
	c0,0.938,0.75,1.698,1.678,1.698c0.929,0,1.68-0.759,1.68-1.698C222.043,120.865,221.091,120.468,220.643,118.957L220.643,118.957z"
	/>
<path fill="#D0DAE3" d="M160.232,125.206c-0.076-0.274-0.471-0.287-0.557,0c-0.446,1.504-1.4,1.913-1.4,2.974
	c0,0.938,0.751,1.699,1.679,1.699c0.928,0,1.679-0.76,1.679-1.699C161.633,127.114,160.681,126.717,160.232,125.206L160.232,125.206
	z"/>
<path fill="#232323" d="M337.5,142.858c-4.598,6.899-11.828,11.091-20.255,11.644c-3.059,0.225-5.555,2.538-5.374,5.892
	c0.171,3.334,4.01,6.618,8.277,6.338c6.438-0.421,12.338-2.459,17.352-5.851V142.858L337.5,142.858z"/>
</svg>
