<?xml version="1.0" encoding="utf-8"?>
<!-- Generator: Adobe Illustrator 16.0.4, SVG Export Plug-In . SVG Version: 6.00 Build 0)  -->
<!DOCTYPE svg PUBLIC "-//W3C//DTD SVG 1.1//EN" "http://www.w3.org/Graphics/SVG/1.1/DTD/svg11.dtd">
<svg version="1.1" id="Layer_1" xmlns="http://www.w3.org/2000/svg" xmlns:xlink="http://www.w3.org/1999/xlink" x="0px" y="0px"
	 width="375px" height="375px" viewBox="0 0 375 375" enable-background="new 0 0 375 375" xml:space="preserve">
<g>
	<path fill="#FF7E1C" d="M205.432,102.263c0.528,0.119,1.056,0.238,1.581,0.365C206.486,102.502,205.96,102.377,205.432,102.263z"/>
	<path fill="#FF7E1C" d="M233.432,113.909c-8.27-5.338-17.122-9.038-26.178-11.221v8.26c0,1.685-0.626,3.204-1.817,4.4
		c-1.189,1.187-2.711,1.813-4.399,1.813h-26.812c-1.69,0-3.211-0.628-4.408-1.825c-1.178-1.19-1.801-2.708-1.801-4.389v-8.377
		c-20.708,4.832-39.643,17.372-52.086,36.647c-20.445,31.666-17.161,71.819,5.345,99.596
		c46.192,24.169,104.034,9.554,132.866-35.104c8.189-12.689,13.201-26.514,15.246-40.539
		C264.106,143.572,251.83,125.785,233.432,113.909z"/>
</g>
<ellipse opacity="0.3" fill="#232323" enable-background="new    " cx="187.333" cy="268.907" rx="68.608" ry="11.074"/>
<path fill="#EA651B" d="M121.274,238.815c5.52,6.812,12.192,12.884,19.962,17.899c39.437,25.459,92.043,14.131,117.503-25.307
	c13.581-21.039,16.69-45.821,10.647-68.235c-2.043,14.025-7.056,27.849-15.246,40.538
	C225.309,248.367,167.467,262.982,121.274,238.815z"/>
<g>
	<g>
		<g>
			<path fill="#FFFFFF" d="M213.156,186.223c1.902,2.376,2.661,5.648,2.281,9.828c-0.572,5.039-2.661,8.705-6.271,10.98
				c-3.138,1.902-7.848,3.042-14.121,3.425v9.69h-6.978v-9.557h-5.416v9.557h-6.991v-9.69h-13.82l1.425-8.27h1.425
				c2.282,0.095,3.747,0.041,4.412-0.148c0.95-0.285,1.521-0.991,1.711-2.131V168.97c-0.284-1.519-1.086-2.47-2.418-2.85
				c-0.854-0.285-2.659-0.38-5.414-0.285h-1.142v-7.411l4.277,0.147c5.037,0,8.212-0.055,9.544-0.147v-11.255h6.991v11.119
				l5.416-0.148V147.17h6.979v11.255c4.845,0.473,8.552,1.52,11.119,3.134c3.136,1.902,4.846,4.752,5.131,8.553
				c0.571,5.511-1.369,9.406-5.838,11.688l0,0C208.975,182.557,211.541,184.037,213.156,186.223L213.156,186.223z M182.787,180.086
				h1.141c3.991,0.099,7.086-0.135,9.271-0.703c3.801-0.952,5.703-3.002,5.703-6.136c0-3.137-1.859-5.227-5.568-6.273
				c-2.091-0.571-5.17-0.801-9.257-0.705c-0.667,0.094-1.1,0.135-1.29,0.135V180.086L182.787,180.086z M184.078,202.187
				c4.846,0.094,8.498-0.149,10.969-0.72c4.465-1.141,6.706-3.422,6.706-6.842c0-3.422-2.187-5.7-6.556-6.841
				c-2.375-0.667-5.988-0.896-10.833-0.705h-1.576v15.107H184.078L184.078,202.187z"/>
		</g>
	</g>
</g>
<path fill="none" d="M204.696,99.036v-5.15c0-1.013-0.357-1.876-1.065-2.591c-0.713-0.706-1.577-1.066-2.594-1.066h-2.434v-3.58
	c0-1.98-0.494-3.819-1.485-5.52c-0.987-1.702-2.328-3.047-4.001-4.037c-1.678-0.991-3.504-1.488-5.48-1.488
	c-1.984,0-3.814,0.497-5.486,1.488c-1.68,0.99-3.011,2.321-4.002,3.997c-0.986,1.675-1.484,3.503-1.484,5.484v3.656h-2.439
	c-1.011,0-1.879,0.36-2.59,1.066c-0.704,0.715-1.062,1.578-1.062,2.591v5.035c5.428-1.051,11.03-1.608,16.761-1.608
	C193.276,97.312,199.081,97.908,204.696,99.036z M180.322,86.573c0-2.027,0.71-3.754,2.131-5.18
	c1.423-1.418,3.147-2.133,5.184-2.133c2.023,0,3.748,0.714,5.176,2.133c1.417,1.426,2.135,3.152,2.135,5.18v3.656h-14.625V86.573z"
	/>
<path fill="none" d="M187.637,81.817c-1.356,0-2.429,0.441-3.372,1.381c-0.945,0.948-1.385,2.021-1.385,3.375v1.099h9.51v-1.099
	c0-1.349-0.441-2.422-1.38-3.365C190.056,82.259,188.984,81.817,187.637,81.817z"/>
<path fill="none" d="M205.437,115.349c-1.189,1.187-2.711,1.813-4.399,1.813h-26.812c-1.69,0-3.211-0.628-4.408-1.825
	c-1.178-1.19-1.801-2.708-1.801-4.389v-8.404c-37.633,8.75-65.683,42.472-65.683,82.768c0,46.944,38.057,85,85.001,85
	c46.943,0,85-38.056,85-85c0-40.081-27.751-73.661-65.08-82.629v8.265C207.254,112.633,206.628,114.152,205.437,115.349z"/>
<g>
	<path fill="#FF7E1C" d="M338.199,169.441c-2.199,0-4.101,1.207-5.134,2.979h-58.692c0.29,1.967,0.52,3.953,0.677,5.959h58.016
		c1.032,1.773,2.933,2.98,5.134,2.98c3.293,0,5.96-2.667,5.96-5.959S341.492,169.441,338.199,169.441z"/>
	<path fill="#FF7E1C" d="M286.336,198.438l8.215,21.905c0.437,1.162,1.548,1.934,2.791,1.934h15.724
		c1.032,1.772,2.933,2.979,5.134,2.979c3.293,0,5.96-2.667,5.96-5.96c0-3.292-2.667-5.959-5.96-5.959
		c-2.199,0-4.101,1.207-5.134,2.979h-13.659l-6.704-17.879h8.444c1.031,1.773,2.933,2.979,5.135,2.979
		c3.292,0,5.959-2.666,5.959-5.959s-2.667-5.959-5.959-5.959c-2.2,0-4.102,1.206-5.135,2.979h-26.105
		c-0.162,2.006-0.392,3.994-0.687,5.96H286.336z"/>
	<path fill="#FF7E1C" d="M73.338,214.943c-1.035-1.773-2.935-2.979-5.134-2.979c-3.292,0-5.96,2.667-5.96,5.96
		c0,3.292,2.667,5.959,5.96,5.959c2.199,0,4.1-1.207,5.134-2.979h33.522c-0.866-1.95-1.663-3.938-2.388-5.96H73.338z"/>
	<path fill="#FF7E1C" d="M118.86,220.903v-5.96h-11.21c0.754,2.026,1.594,4.01,2.495,5.96H118.86z"/>
	<path fill="#FF7E1C" d="M113.819,168.064v-5.959h-8.259c-0.555,1.959-1.043,3.945-1.458,5.959H113.819z"/>
	<path fill="#FF7E1C" d="M89.066,162.105l-8.216-21.904c-0.435-1.162-1.546-1.935-2.789-1.935H52.338
		c-1.035-1.772-2.935-2.979-5.134-2.979c-3.292,0-5.96,2.667-5.96,5.959s2.667,5.959,5.96,5.959c2.199,0,4.1-1.207,5.134-2.979
		h23.659l6.704,17.879h-8.444c-1.034-1.773-2.935-2.98-5.134-2.98c-3.293,0-5.96,2.667-5.96,5.959s2.667,5.959,5.96,5.959
		c2.199,0,4.1-1.207,5.134-2.98h26.794c0.401-2.011,0.86-4,1.397-5.959H89.066z"/>
	<path fill="#FF7E1C" d="M102.422,188.822h5.438v-5.96h-5.474c-0.023,0.815-0.053,1.629-0.053,2.45
		C102.333,186.49,102.375,187.657,102.422,188.822z"/>
	<path fill="#FF7E1C" d="M99.387,182.862H84.021c-0.792,0-1.549,0.313-2.106,0.874l-11.046,11.045H42.338
		c-1.035-1.772-2.935-2.979-5.134-2.979c-3.292,0-5.96,2.667-5.96,5.96s2.667,5.959,5.96,5.959c2.199,0,4.1-1.206,5.134-2.979
		h29.765c0.792,0,1.55-0.312,2.106-0.873l11.047-11.046h14.153c-0.046-1.165-0.076-2.334-0.076-3.51
		C99.333,184.492,99.364,183.678,99.387,182.862z"/>
	<path fill="#FF7E1C" d="M296.382,161.461c0.794,0,1.549-0.312,2.106-0.874l11.045-11.045h8.532
		c1.032,1.773,2.933,2.979,5.134,2.979c3.293,0,5.96-2.667,5.96-5.959s-2.667-5.959-5.96-5.959c-2.199,0-4.101,1.207-5.134,2.979
		h-9.765c-0.793,0-1.55,0.313-2.106,0.874l-11.046,11.045h-25.015c0.706,1.954,1.329,3.945,1.897,5.959H296.382z"/>
	<path fill="#FF7E1C" d="M263.753,155.501c0.936,1.875,1.663,3.868,2.14,5.959h3.029c-0.59-2.019-1.252-4.006-1.984-5.959H263.753z"
		/>
</g>
<path fill="#FFFFFF" d="M203.631,91.295c-0.713-0.706-1.577-1.066-2.594-1.066h-2.434v-3.58c0-1.98-0.494-3.819-1.485-5.52
	c-0.987-1.702-2.328-3.047-4.001-4.037c-1.678-0.991-3.504-1.488-5.48-1.488c-1.984,0-3.814,0.497-5.486,1.488
	c-1.68,0.99-3.011,2.321-4.002,3.997c-0.986,1.675-1.484,3.503-1.484,5.484v3.656h-2.439c-1.011,0-1.879,0.36-2.59,1.066
	c-0.704,0.715-1.062,1.578-1.062,2.591v17.062c0,1.015,0.357,1.878,1.062,2.59c0.71,0.711,1.579,1.066,2.59,1.066h26.812
	c1.017,0,1.881-0.355,2.594-1.066c0.708-0.711,1.065-1.575,1.065-2.59V93.886C204.696,92.873,204.339,92.01,203.631,91.295z
	 M189.769,104.854c0,0.608-0.206,1.12-0.616,1.522c-0.4,0.41-0.912,0.61-1.516,0.61c-0.61,0-1.12-0.2-1.526-0.61
	c-0.411-0.402-0.61-0.914-0.61-1.522v-4.875c0-0.609,0.199-1.115,0.61-1.523c0.406-0.403,0.916-0.61,1.526-0.61
	c0.604,0,1.115,0.207,1.516,0.61c0.41,0.409,0.616,0.914,0.616,1.523V104.854z M194.947,90.229h-14.625v-3.656
	c0-2.027,0.71-3.754,2.131-5.18c1.423-1.418,3.147-2.133,5.184-2.133c2.023,0,3.748,0.714,5.176,2.133
	c1.417,1.426,2.135,3.152,2.135,5.18V90.229z"/>
</svg>
