<?xml version="1.0" encoding="utf-8"?>
<!-- Generator: Adobe Illustrator 16.0.4, SVG Export Plug-In . SVG Version: 6.00 Build 0)  -->
<!DOCTYPE svg PUBLIC "-//W3C//DTD SVG 1.1//EN" "http://www.w3.org/Graphics/SVG/1.1/DTD/svg11.dtd">
<svg version="1.1" id="Layer_1" xmlns="http://www.w3.org/2000/svg" xmlns:xlink="http://www.w3.org/1999/xlink" x="0px" y="0px"
	 width="300px" height="225px" viewBox="37.5 75 300 225" enable-background="new 37.5 75 300 225" xml:space="preserve">
<g>
	<path fill="#FF7E1C" d="M201.886,117.369c0.423,0.095,0.846,0.19,1.266,0.292C202.729,117.56,202.309,117.46,201.886,117.369z"/>
	<path fill="#FF7E1C" d="M224.286,126.686c-6.616-4.271-13.697-7.23-20.942-8.977v6.608c0,1.348-0.501,2.562-1.453,3.52
		c-0.952,0.95-2.169,1.451-3.52,1.451h-21.45c-1.352,0-2.569-0.502-3.527-1.46c-0.942-0.952-1.44-2.166-1.44-3.511v-6.702
		c-16.566,3.866-31.714,13.898-41.668,29.318c-16.356,25.333-13.729,57.456,4.275,79.676c36.954,19.336,83.228,7.644,106.293-28.083
		c6.551-10.151,10.56-21.211,12.196-32.431C248.824,150.417,239.004,136.187,224.286,126.686z"/>
</g>
<ellipse opacity="0.3" fill="#232323" enable-background="new    " cx="187.407" cy="250.684" rx="54.886" ry="8.859"/>
<path fill="#EA651B" d="M134.56,226.61c4.416,5.449,9.753,10.308,15.97,14.319c31.549,20.367,73.635,11.305,94.002-20.245
	c10.865-16.832,13.353-36.657,8.519-54.588c-1.636,11.22-5.646,22.28-12.197,32.43C217.787,234.252,171.514,245.944,134.56,226.61z"
	/>
<g>
	<g>
		<g>
			<path fill="#FFFFFF" d="M208.065,184.537c1.521,1.901,2.128,4.519,1.825,7.862c-0.458,4.031-2.13,6.964-5.018,8.784
				c-2.511,1.521-6.278,2.434-11.297,2.739v7.753h-5.583v-7.646h-4.333v7.646h-5.593v-7.753h-11.056l1.14-6.616h1.14
				c1.826,0.077,2.998,0.033,3.53-0.118c0.76-0.228,1.217-0.793,1.369-1.704v-24.75c-0.228-1.215-0.869-1.977-1.935-2.28
				c-0.683-0.228-2.127-0.304-4.331-0.228h-0.914v-5.929l3.422,0.118c4.029,0,6.569-0.043,7.635-0.118v-9.004h5.593v8.896
				l4.333-0.118v-8.776h5.583v9.004c3.876,0.378,6.842,1.216,8.896,2.507c2.509,1.521,3.877,3.802,4.104,6.842
				c0.457,4.409-1.095,7.525-4.67,9.35l0,0C204.72,181.604,206.773,182.788,208.065,184.537L208.065,184.537z M183.77,179.627h0.913
				c3.192,0.08,5.668-0.107,7.417-0.562c3.041-0.761,4.562-2.401,4.562-4.908c0-2.51-1.487-4.182-4.454-5.019
				c-1.673-0.457-4.137-0.641-7.406-0.564c-0.534,0.075-0.88,0.108-1.032,0.108V179.627L183.77,179.627z M184.803,197.309
				c3.877,0.075,6.799-0.12,8.775-0.577c3.571-0.912,5.364-2.737,5.364-5.473c0-2.738-1.749-4.561-5.244-5.473
				c-1.9-0.534-4.791-0.717-8.667-0.564h-1.26v12.085h1.032V197.309z"/>
		</g>
	</g>
</g>
<path fill="none" d="M201.297,114.788v-4.121c0-0.81-0.285-1.5-0.852-2.072c-0.57-0.565-1.261-0.853-2.075-0.853h-1.947v-2.864
	c0-1.584-0.395-3.055-1.188-4.416c-0.79-1.362-1.863-2.438-3.201-3.23c-1.342-0.792-2.803-1.19-4.384-1.19
	c-1.588,0-3.051,0.397-4.389,1.19c-1.344,0.792-2.409,1.857-3.202,3.198c-0.789,1.34-1.187,2.802-1.187,4.388v2.924h-1.951
	c-0.809,0-1.503,0.288-2.072,0.853c-0.563,0.572-0.85,1.262-0.85,2.072v4.028c4.342-0.841,8.824-1.286,13.408-1.286
	C192.161,113.408,196.806,113.885,201.297,114.788z M181.798,104.817c0-1.622,0.568-3.004,1.705-4.145
	c1.138-1.134,2.518-1.707,4.147-1.707c1.618,0,2.998,0.572,4.14,1.707c1.135,1.141,1.709,2.521,1.709,4.145v2.924h-11.7
	L181.798,104.817L181.798,104.817z"/>
<path fill="none" d="M187.65,101.012c-1.085,0-1.943,0.353-2.698,1.105c-0.756,0.758-1.108,1.616-1.108,2.7v0.879h7.609v-0.879
	c0-1.08-0.354-1.938-1.104-2.692C189.586,101.366,188.728,101.012,187.65,101.012z"/>
<path fill="none" d="M201.891,127.838c-0.952,0.95-2.169,1.45-3.52,1.45h-21.45c-1.352,0-2.569-0.502-3.527-1.46
	c-0.942-0.952-1.44-2.167-1.44-3.511v-6.724c-30.106,7-52.546,33.978-52.546,66.214c0,37.555,30.446,68,68,68
	c37.554,0,68-30.445,68-68c0-32.065-22.201-58.929-52.063-66.103v6.612C203.344,125.665,202.843,126.88,201.891,127.838z"/>
<g>
	<path fill="#FF7E1C" d="M308.1,171.111c-1.76,0-3.281,0.965-4.107,2.383h-46.953c0.231,1.574,0.415,3.162,0.541,4.767h46.413
		c0.825,1.418,2.347,2.384,4.107,2.384c2.634,0,4.768-2.134,4.768-4.767C312.868,173.245,310.734,171.111,308.1,171.111z"/>
	<path fill="#FF7E1C" d="M266.609,194.309l6.571,17.524c0.351,0.93,1.239,1.547,2.233,1.547h12.579
		c0.825,1.418,2.347,2.383,4.107,2.383c2.634,0,4.768-2.133,4.768-4.768c0-2.634-2.134-4.768-4.768-4.768
		c-1.76,0-3.281,0.966-4.107,2.384h-10.927l-5.363-14.303h6.754c0.825,1.418,2.348,2.383,4.109,2.383
		c2.633,0,4.767-2.133,4.767-4.768c0-2.634-2.134-4.767-4.767-4.767c-1.761,0-3.282,0.965-4.109,2.383h-20.883
		c-0.13,1.604-0.313,3.195-0.55,4.769H266.609L266.609,194.309z"/>
	<path fill="#FF7E1C" d="M96.211,207.513c-0.828-1.418-2.348-2.383-4.107-2.383c-2.634,0-4.768,2.133-4.768,4.768
		c0,2.634,2.134,4.768,4.768,4.768c1.759,0,3.28-0.966,4.107-2.383h26.817c-0.692-1.561-1.33-3.151-1.91-4.77H96.211L96.211,207.513
		z"/>
	<path fill="#FF7E1C" d="M132.628,212.28v-4.768h-8.968c0.603,1.621,1.275,3.208,1.996,4.768H132.628z"/>
	<path fill="#FF7E1C" d="M128.596,170.01v-4.767h-6.607c-0.444,1.567-0.834,3.156-1.167,4.767H128.596z"/>
	<path fill="#FF7E1C" d="M108.793,165.243l-6.573-17.523c-0.348-0.93-1.237-1.548-2.231-1.548H79.411
		c-0.828-1.417-2.348-2.383-4.107-2.383c-2.634,0-4.768,2.134-4.768,4.767c0,2.634,2.133,4.768,4.768,4.768
		c1.759,0,3.28-0.966,4.107-2.383h18.927l5.363,14.303h-6.755c-0.827-1.418-2.348-2.384-4.107-2.384
		c-2.634,0-4.768,2.134-4.768,4.767c0,2.634,2.133,4.768,4.768,4.768c1.759,0,3.28-0.966,4.107-2.384h21.435
		c0.321-1.609,0.688-3.2,1.118-4.767L108.793,165.243L108.793,165.243z"/>
	<path fill="#FF7E1C" d="M119.478,186.616h4.351v-4.769h-4.379c-0.019,0.652-0.042,1.304-0.042,1.96
		C119.407,184.75,119.44,185.684,119.478,186.616z"/>
	<path fill="#FF7E1C" d="M117.05,181.848h-12.293c-0.633,0-1.239,0.25-1.685,0.699l-8.837,8.837H71.411
		c-0.828-1.418-2.348-2.384-4.107-2.384c-2.634,0-4.768,2.134-4.768,4.768c0,2.635,2.133,4.768,4.768,4.768
		c1.759,0,3.28-0.964,4.107-2.383h23.812c0.633,0,1.24-0.25,1.685-0.698l8.837-8.837h11.323c-0.037-0.932-0.061-1.868-0.061-2.809
		C117.007,183.152,117.032,182.5,117.05,181.848z"/>
	<path fill="#FF7E1C" d="M274.646,164.727c0.636,0,1.24-0.25,1.686-0.699l8.836-8.836h6.825c0.825,1.418,2.347,2.383,4.107,2.383
		c2.635,0,4.768-2.133,4.768-4.767s-2.133-4.767-4.768-4.767c-1.76,0-3.281,0.965-4.107,2.383h-7.812
		c-0.634,0-1.239,0.25-1.684,0.699l-8.837,8.836h-20.013c0.564,1.563,1.063,3.156,1.518,4.767L274.646,164.727L274.646,164.727z"/>
	<path fill="#FF7E1C" d="M248.543,159.959c0.749,1.5,1.33,3.094,1.711,4.767h2.424c-0.472-1.615-1.002-3.205-1.588-4.767H248.543z"
		/>
</g>
<path fill="#FFFFFF" d="M200.445,108.595c-0.57-0.565-1.261-0.853-2.075-0.853h-1.947v-2.864c0-1.584-0.395-3.055-1.188-4.416
	c-0.79-1.362-1.863-2.438-3.201-3.23c-1.342-0.792-2.803-1.19-4.384-1.19c-1.588,0-3.051,0.397-4.389,1.19
	c-1.344,0.792-2.409,1.857-3.202,3.198c-0.789,1.34-1.187,2.802-1.187,4.388v2.924h-1.951c-0.809,0-1.503,0.288-2.072,0.853
	c-0.563,0.572-0.85,1.262-0.85,2.072v13.65c0,0.812,0.285,1.502,0.85,2.072c0.568,0.569,1.263,0.853,2.072,0.853h21.45
	c0.813,0,1.505-0.284,2.075-0.853c0.566-0.569,0.852-1.26,0.852-2.072v-13.65C201.297,109.857,201.012,109.167,200.445,108.595z
	 M189.356,119.442c0,0.486-0.166,0.896-0.494,1.217c-0.319,0.328-0.729,0.488-1.212,0.488c-0.488,0-0.896-0.16-1.221-0.488
	c-0.329-0.321-0.488-0.731-0.488-1.217v-3.9c0-0.487,0.159-0.892,0.488-1.219c0.325-0.322,0.733-0.488,1.221-0.488
	c0.483,0,0.892,0.166,1.212,0.488c0.328,0.328,0.494,0.731,0.494,1.219V119.442z M193.498,107.742h-11.7v-2.924
	c0-1.622,0.568-3.004,1.705-4.145c1.138-1.134,2.518-1.707,4.147-1.707c1.618,0,2.998,0.572,4.14,1.707
	c1.135,1.141,1.709,2.521,1.709,4.145L193.498,107.742L193.498,107.742z"/>
</svg>
