<?xml version="1.0" encoding="utf-8"?>
<!-- Generator: Adobe Illustrator 16.0.4, SVG Export Plug-In . SVG Version: 6.00 Build 0)  -->
<!DOCTYPE svg PUBLIC "-//W3C//DTD SVG 1.1//EN" "http://www.w3.org/Graphics/SVG/1.1/DTD/svg11.dtd">
<svg version="1.1" id="Layer_1" xmlns="http://www.w3.org/2000/svg" xmlns:xlink="http://www.w3.org/1999/xlink" x="0px" y="0px"
	 width="300px" height="225px" viewBox="37.5 75 300 225" enable-background="new 37.5 75 300 225" xml:space="preserve">
<g>
	<circle fill="#3ED033" cx="283.757" cy="265.073" r="8"/>
	<g>
		<g>
			<g>
				<path fill="#FFFFFF" d="M288.058,261.437c0.074,0,0.133,0.029,0.178,0.089l0.268,0.243c0.044,0.06,0.065,0.127,0.065,0.2
					c0,0.075-0.021,0.135-0.065,0.179l-6.662,6.66c-0.058,0.06-0.122,0.09-0.188,0.09s-0.126-0.03-0.187-0.09l-2.644-2.644
					c-0.045-0.044-0.067-0.103-0.067-0.177s0.022-0.141,0.067-0.199l0.268-0.248c0.046-0.057,0.104-0.085,0.179-0.085
					c0.072,0,0.133,0.028,0.179,0.085l2.2,2.2l6.235-6.217C287.925,261.466,287.983,261.437,288.058,261.437z"/>
			</g>
		</g>
	</g>
</g>
<path opacity="0.3" fill="#232323" enable-background="new    " d="M291.757,247.65c0,1.767-1.433,3.2-3.2,3.2H85.444
	c-1.768,0-3.2-1.434-3.2-3.2v-28.914c0-1.768,1.433-3.2,3.2-3.2h203.113c1.767,0,3.2,1.433,3.2,3.2L291.757,247.65L291.757,247.65z"
	/>
<path fill="#FFFFFF" d="M291.757,242.43c0,1.769-1.433,3.2-3.2,3.2H85.444c-1.768,0-3.2-1.432-3.2-3.2v-28.911
	c0-1.767,1.433-3.2,3.2-3.2h203.113c1.767,0,3.2,1.434,3.2,3.2L291.757,242.43L291.757,242.43z"/>
<g>
	<path fill="#232323" d="M124.129,228.312l-2.242-0.661l0.423-1.313l2.204,0.914l-0.134-2.577h1.396l-0.149,2.62l2.16-0.891
		l0.416,1.336l-2.271,0.66l1.484,1.968l-1.121,0.816l-1.299-2.15l-1.284,2.083l-1.128-0.784L124.129,228.312z"/>
	<path fill="#232323" d="M137.374,228.312l-2.242-0.661l0.423-1.313l2.204,0.914l-0.133-2.577h1.395l-0.148,2.62l2.16-0.891
		l0.416,1.336l-2.271,0.66l1.484,1.968l-1.121,0.816l-1.299-2.15l-1.284,2.083l-1.127-0.784L137.374,228.312z"/>
	<path fill="#232323" d="M150.619,228.312l-2.241-0.661l0.422-1.313l2.205,0.914l-0.134-2.577h1.396l-0.149,2.62l2.159-0.891
		l0.416,1.336l-2.271,0.66l1.484,1.968l-1.12,0.816l-1.299-2.15l-1.283,2.083l-1.128-0.784L150.619,228.312z"/>
	<path fill="#232323" d="M163.865,228.312l-2.242-0.661l0.423-1.313l2.205,0.914l-0.134-2.577h1.396l-0.149,2.62l2.159-0.891
		l0.416,1.336l-2.271,0.66l1.484,1.968l-1.12,0.816l-1.299-2.15l-1.283,2.083l-1.128-0.784L163.865,228.312z"/>
	<path fill="#232323" d="M177.111,228.312l-2.242-0.661l0.422-1.313l2.205,0.914l-0.133-2.577h1.395l-0.148,2.62l2.159-0.891
		l0.416,1.336l-2.271,0.66l1.484,1.968l-1.12,0.816l-1.299-2.15l-1.283,2.083l-1.128-0.784L177.111,228.312z"/>
	<path fill="#232323" d="M190.354,228.312l-2.24-0.661l0.421-1.313l2.204,0.914l-0.134-2.577h1.396l-0.15,2.62l2.159-0.891
		l0.417,1.336l-2.271,0.66l1.483,1.968l-1.121,0.816l-1.3-2.15l-1.282,2.083l-1.129-0.784L190.354,228.312z"/>
	<path fill="#232323" d="M203.601,228.312l-2.241-0.661l0.424-1.313l2.203,0.914l-0.133-2.577h1.396l-0.151,2.62l2.159-0.891
		l0.416,1.336l-2.271,0.66l1.483,1.968l-1.119,0.816l-1.299-2.15l-1.283,2.083l-1.128-0.784L203.601,228.312z"/>
	<path fill="#232323" d="M216.847,228.312l-2.242-0.661l0.424-1.313l2.204,0.914l-0.134-2.577h1.396l-0.148,2.62l2.157-0.891
		l0.416,1.336l-2.271,0.66l1.483,1.968l-1.119,0.816l-1.299-2.15l-1.283,2.083l-1.128-0.784L216.847,228.312z"/>
	<path fill="#232323" d="M230.091,228.312l-2.24-0.661l0.421-1.313l2.205,0.914l-0.133-2.577h1.394l-0.151,2.62l2.161-0.891
		l0.417,1.336l-2.271,0.66l1.483,1.968l-1.12,0.816l-1.298-2.15l-1.284,2.083l-1.128-0.784L230.091,228.312z"/>
	<path fill="#232323" d="M243.337,228.312l-2.241-0.661l0.423-1.313l2.203,0.914l-0.133-2.577h1.396l-0.15,2.62l2.16-0.891
		l0.417,1.336l-2.272,0.66l1.483,1.968l-1.119,0.816l-1.299-2.15l-1.283,2.083l-1.127-0.784L243.337,228.312z"/>
	<path fill="#232323" d="M256.583,228.312l-2.242-0.661l0.424-1.313l2.204,0.914l-0.134-2.577h1.396l-0.148,2.62l2.157-0.891
		l0.417,1.336l-2.27,0.66l1.482,1.968l-1.12,0.816l-1.299-2.15l-1.282,2.083l-1.129-0.784L256.583,228.312z"/>
	<path fill="#232323" d="M269.828,228.312l-2.242-0.661l0.422-1.313l2.205,0.914l-0.133-2.577h1.393l-0.148,2.62l2.159-0.891
		l0.417,1.336l-2.271,0.66l1.484,1.968l-1.12,0.816l-1.298-2.15l-1.284,2.083l-1.128-0.784L269.828,228.312z"/>
</g>
<g>
	<path fill="#232323" d="M234.439,264.289h-0.941l-0.163-0.858c-0.109-0.068-0.269-0.129-0.477-0.181
		c-0.21-0.052-0.432-0.079-0.667-0.079c-0.345,0-0.61,0.074-0.797,0.217c-0.188,0.145-0.282,0.331-0.282,0.56
		c0,0.214,0.099,0.386,0.293,0.521c0.195,0.136,0.535,0.281,1.017,0.432c0.69,0.192,1.215,0.446,1.571,0.761
		c0.355,0.314,0.535,0.729,0.535,1.241c0,0.536-0.213,0.959-0.636,1.269c-0.425,0.311-0.983,0.464-1.677,0.464
		c-0.495,0-0.944-0.08-1.344-0.237c-0.4-0.156-0.731-0.375-0.999-0.652v-1.307h0.973l0.133,0.89
		c0.125,0.104,0.297,0.188,0.515,0.255c0.217,0.067,0.455,0.1,0.723,0.1c0.345,0,0.604-0.068,0.783-0.21
		c0.181-0.142,0.27-0.327,0.27-0.563c0-0.241-0.084-0.433-0.254-0.58c-0.171-0.147-0.469-0.283-0.896-0.413
		c-0.742-0.217-1.305-0.471-1.685-0.766c-0.381-0.294-0.572-0.698-0.572-1.212c0-0.508,0.216-0.921,0.646-1.244
		c0.429-0.323,0.969-0.488,1.62-0.497c0.481,0,0.919,0.074,1.314,0.219c0.396,0.146,0.728,0.341,0.997,0.583V264.289
		L234.439,264.289z"/>
	<path fill="#232323" d="M241.323,262.292v1.667h-0.962l-0.052-0.7h-1.15v4.408l0.671,0.129v0.751h-2.596v-0.751l0.671-0.129v-4.408
		h-1.148l-0.051,0.7h-0.956v-1.667H241.323z"/>
	<path fill="#232323" d="M245.335,262.292c0.711,0,1.267,0.163,1.671,0.488c0.403,0.322,0.606,0.773,0.606,1.347
		c0,0.314-0.083,0.587-0.252,0.82c-0.171,0.231-0.416,0.418-0.744,0.561c0.368,0.111,0.634,0.29,0.797,0.546
		c0.16,0.251,0.242,0.568,0.242,0.943v0.317c0,0.138,0.026,0.245,0.083,0.318c0.058,0.073,0.146,0.119,0.272,0.136l0.153,0.02v0.756
		h-0.649c-0.41,0-0.697-0.111-0.863-0.331c-0.167-0.218-0.249-0.505-0.249-0.854v-0.356c0-0.304-0.082-0.542-0.244-0.717
		c-0.16-0.174-0.39-0.264-0.684-0.273h-1.026v1.65l0.671,0.128v0.751h-2.59v-0.751l0.665-0.128v-4.491l-0.665-0.128v-0.756h0.665
		L245.335,262.292L245.335,262.292z M244.445,265.05h0.867c0.351,0,0.614-0.076,0.787-0.223c0.173-0.148,0.262-0.363,0.262-0.646
		s-0.087-0.505-0.26-0.672c-0.173-0.169-0.43-0.251-0.767-0.251h-0.89V265.05L244.445,265.05z"/>
	<path fill="#232323" d="M255.085,265.468c0,0.917-0.262,1.674-0.786,2.272c-0.523,0.599-1.211,0.898-2.058,0.898
		c-0.846,0-1.527-0.3-2.048-0.898c-0.52-0.598-0.78-1.355-0.78-2.272v-0.095c0-0.911,0.258-1.667,0.777-2.269
		c0.517-0.602,1.2-0.902,2.046-0.902c0.849,0,1.535,0.301,2.061,0.902s0.788,1.357,0.788,2.269V265.468L255.085,265.468z
		 M253.835,265.364c0-0.648-0.135-1.174-0.403-1.578c-0.27-0.403-0.668-0.604-1.195-0.604c-0.526,0-0.921,0.2-1.18,0.602
		c-0.259,0.399-0.389,0.928-0.389,1.581v0.104c0,0.658,0.132,1.188,0.394,1.592c0.262,0.402,0.654,0.604,1.18,0.604
		c0.529,0,0.928-0.201,1.194-0.604c0.267-0.403,0.399-0.934,0.399-1.592V265.364L253.835,265.364z"/>
	<path fill="#232323" d="M262.773,262.292v0.755l-0.67,0.13v5.37h-1.25l-2.524-4.212l-0.025,0.004v3.326l0.67,0.129v0.75h-2.589
		v-0.75l0.666-0.129v-4.488l-0.666-0.13v-0.755h0.666h1.253l2.526,4.211l0.023-0.004v-3.322l-0.67-0.128v-0.755h1.92
		L262.773,262.292L262.773,262.292z"/>
	<path fill="#232323" d="M269.156,267.852c-0.204,0.2-0.5,0.382-0.89,0.544c-0.39,0.161-0.882,0.243-1.479,0.243
		c-0.844,0-1.531-0.284-2.062-0.85c-0.531-0.567-0.795-1.302-0.795-2.206v-0.217c0-0.938,0.261-1.699,0.783-2.285
		s1.206-0.882,2.05-0.882c0.487,0,0.938,0.081,1.343,0.234c0.407,0.154,0.744,0.367,1.014,0.634v1.259h-0.929l-0.177-0.84
		c-0.115-0.097-0.266-0.175-0.452-0.234c-0.188-0.057-0.403-0.086-0.647-0.086c-0.549,0-0.974,0.202-1.277,0.606
		c-0.304,0.406-0.454,0.932-0.454,1.582v0.224c0,0.636,0.149,1.144,0.448,1.523c0.298,0.38,0.727,0.569,1.288,0.569
		c0.25,0,0.454-0.021,0.613-0.064c0.157-0.043,0.278-0.092,0.367-0.15v-1.062l-0.894-0.068v-0.881h2.152v2.405L269.156,267.852
		L269.156,267.852z"/>
</g>
<ellipse opacity="0.3" fill="#232323" enable-background="new    " cx="186.97" cy="182.936" rx="54.887" ry="8.859"/>
<g>
	<path fill="#3ED033" d="M223.844,265.39c0,1.759-1.439,3.199-3.2,3.199H85.444c-1.76,0-3.2-1.44-3.2-3.199l0,0
		c0-1.761,1.44-3.2,3.2-3.2h135.199C222.404,262.189,223.844,263.629,223.844,265.39L223.844,265.39z"/>
</g>
<g>
	<g>
		<g>
			<path fill="#232323" d="M110.134,227.396v8.883c0,0.528-0.187,0.98-0.555,1.352c-0.372,0.37-0.821,0.552-1.351,0.552H94.269
				c-0.527,0-0.979-0.183-1.349-0.552c-0.366-0.371-0.553-0.818-0.553-1.352v-8.883c0-0.527,0.187-0.977,0.553-1.348
				c0.37-0.369,0.821-0.557,1.349-0.557h1.27v-1.903c0-1.031,0.26-1.983,0.773-2.854c0.517-0.873,1.209-1.565,2.083-2.081
				c0.871-0.518,1.823-0.775,2.856-0.775c1.03,0,1.98,0.257,2.854,0.775c0.87,0.516,1.568,1.216,2.083,2.102
				c0.517,0.884,0.774,1.844,0.774,2.873v1.864h1.267c0.53,0,0.979,0.188,1.35,0.557
				C109.947,226.42,110.134,226.869,110.134,227.396z M108.228,227.396H94.269v8.883h13.959V227.396z M97.443,225.492h7.613v-1.903
				c0-1.056-0.374-1.954-1.111-2.696c-0.744-0.739-1.642-1.111-2.695-1.111c-1.06,0-1.958,0.372-2.699,1.111
				c-0.74,0.742-1.108,1.641-1.108,2.696V225.492z M101.25,234.217c-0.318,0-0.583-0.103-0.794-0.316
				c-0.213-0.21-0.318-0.477-0.318-0.794v-2.538c0-0.316,0.104-0.579,0.318-0.792c0.212-0.211,0.477-0.316,0.794-0.316
				c0.314,0,0.581,0.108,0.79,0.316c0.213,0.213,0.321,0.476,0.321,0.792v2.538c0,0.317-0.108,0.584-0.321,0.794
				C101.832,234.114,101.565,234.217,101.25,234.217z"/>
		</g>
	</g>
</g>
<g>
	<path fill="#232323" d="M223.346,117.926h-2.75v-2.75c0-4.556-3.694-8.25-8.25-8.25h-52.25c-9.113,0-16.5,7.387-16.5,16.5v44
		c0,9.112,7.387,16.5,16.5,16.5h60.5c6.074,0,11-4.924,11-11v-46.751C231.596,121.62,227.901,117.926,223.346,117.926z"/>
	<path fill="#FF7E1C" d="M226.096,172.927c0,3.032-2.467,5.5-5.5,5.5h-60.5c-6.064,0-11-4.934-11-11v-44c0-6.064,4.936-11,11-11
		h52.25c1.515,0,2.75,1.234,2.75,2.75v2.75h-52.25c-1.518,0-2.75,1.23-2.75,2.75s1.232,2.75,2.75,2.75h60.5
		c1.517,0,2.751,1.234,2.751,2.75L226.096,172.927L226.096,172.927z"/>
	<circle fill="#232323" cx="209.596" cy="150.927" r="5.5"/>
</g>
</svg>
