<?xml version="1.0" encoding="utf-8"?>
<!-- Generator: Adobe Illustrator 16.0.4, SVG Export Plug-In . SVG Version: 6.00 Build 0)  -->
<!DOCTYPE svg PUBLIC "-//W3C//DTD SVG 1.1//EN" "http://www.w3.org/Graphics/SVG/1.1/DTD/svg11.dtd">
<svg version="1.1" id="Layer_1" xmlns="http://www.w3.org/2000/svg" xmlns:xlink="http://www.w3.org/1999/xlink" x="0px" y="0px"
	 width="375px" height="375px" viewBox="0 0 375 375" enable-background="new 0 0 375 375" xml:space="preserve">
<g>
	<circle fill="#3ED033" cx="307.945" cy="283.842" r="10"/>
	<g>
		<g>
			<g>
				<path fill="#FFFFFF" d="M313.321,279.295c0.093,0,0.166,0.037,0.223,0.111l0.334,0.305c0.056,0.074,0.082,0.158,0.082,0.25
					c0,0.094-0.026,0.168-0.082,0.223l-8.327,8.326c-0.072,0.074-0.152,0.111-0.236,0.111c-0.082,0-0.16-0.037-0.235-0.111
					l-3.302-3.305c-0.058-0.055-0.084-0.129-0.084-0.221c0-0.094,0.026-0.176,0.084-0.25l0.333-0.307
					c0.056-0.074,0.128-0.109,0.222-0.109c0.091,0,0.166,0.035,0.222,0.109l2.749,2.75l7.797-7.771
					C313.155,279.332,313.229,279.295,313.321,279.295z"/>
			</g>
		</g>
	</g>
</g>
<path opacity="0.3" fill="#232323" enable-background="new    " d="M317.945,262.062c0,2.209-1.791,4-4,4H60.055
	c-2.209,0-4-1.791-4-4v-36.141c0-2.209,1.791-4,4-4h253.891c2.209,0,4,1.791,4,4V262.062z"/>
<path fill="#FFFFFF" d="M317.945,255.537c0,2.211-1.791,4-4,4H60.055c-2.209,0-4-1.789-4-4v-36.139c0-2.209,1.791-4,4-4h253.891
	c2.209,0,4,1.791,4,4V255.537z"/>
<g>
	<path fill="#413D45" d="M108.411,237.89l-2.802-0.825l0.529-1.643l2.755,1.142l-0.167-3.22h1.744l-0.186,3.275l2.7-1.113l0.52,1.67
		l-2.839,0.825l1.855,2.459l-1.401,1.021l-1.624-2.69l-1.605,2.606l-1.41-0.983L108.411,237.89z"/>
	<path fill="#413D45" d="M124.967,237.89l-2.802-0.825l0.529-1.643l2.755,1.142l-0.167-3.22h1.744l-0.186,3.275l2.7-1.113l0.52,1.67
		l-2.839,0.825l1.855,2.459l-1.401,1.021l-1.624-2.69l-1.605,2.606l-1.41-0.983L124.967,237.89z"/>
	<path fill="#413D45" d="M141.524,237.89l-2.802-0.825l0.528-1.643l2.756,1.142l-0.167-3.22h1.744l-0.186,3.275l2.699-1.113
		l0.52,1.67l-2.839,0.825l1.855,2.459l-1.4,1.021l-1.624-2.69l-1.604,2.606l-1.41-0.983L141.524,237.89z"/>
	<path fill="#413D45" d="M158.081,237.89l-2.802-0.825l0.528-1.643l2.756,1.142l-0.167-3.22h1.744l-0.186,3.275l2.699-1.113
		l0.52,1.67l-2.839,0.825l1.855,2.459l-1.4,1.021l-1.624-2.69l-1.604,2.606l-1.41-0.983L158.081,237.89z"/>
	<path fill="#413D45" d="M174.638,237.89l-2.802-0.825l0.528-1.643l2.756,1.142l-0.167-3.22h1.744l-0.186,3.275l2.699-1.113
		l0.52,1.67l-2.839,0.825l1.855,2.459l-1.4,1.021l-1.624-2.69l-1.604,2.606l-1.41-0.983L174.638,237.89z"/>
	<path fill="#413D45" d="M191.194,237.89l-2.802-0.825l0.529-1.643l2.755,1.142l-0.167-3.22h1.744l-0.186,3.275l2.699-1.113
		l0.52,1.67l-2.838,0.825l1.855,2.459l-1.401,1.021l-1.624-2.69l-1.604,2.606l-1.41-0.983L191.194,237.89z"/>
	<path fill="#413D45" d="M207.751,237.89l-2.802-0.825l0.529-1.643l2.755,1.142l-0.167-3.22h1.744l-0.186,3.275l2.699-1.113
		l0.52,1.67l-2.838,0.825l1.855,2.459l-1.401,1.021l-1.624-2.69l-1.604,2.606l-1.41-0.983L207.751,237.89z"/>
	<path fill="#413D45" d="M224.308,237.89l-2.802-0.825l0.529-1.643l2.755,1.142l-0.167-3.22h1.744l-0.186,3.275l2.699-1.113
		l0.52,1.67l-2.838,0.825l1.855,2.459l-1.401,1.021l-1.624-2.69l-1.604,2.606l-1.41-0.983L224.308,237.89z"/>
	<path fill="#413D45" d="M240.864,237.89l-2.802-0.825l0.529-1.643l2.755,1.142l-0.167-3.22h1.744l-0.186,3.275l2.7-1.113l0.52,1.67
		l-2.839,0.825l1.855,2.459l-1.401,1.021l-1.623-2.69l-1.605,2.606l-1.41-0.983L240.864,237.89z"/>
	<path fill="#413D45" d="M257.421,237.89l-2.802-0.825l0.529-1.643l2.755,1.142l-0.167-3.22h1.744l-0.186,3.275l2.7-1.113l0.52,1.67
		l-2.839,0.825l1.855,2.459l-1.401,1.021l-1.623-2.69l-1.605,2.606l-1.41-0.983L257.421,237.89z"/>
	<path fill="#413D45" d="M273.978,237.89l-2.802-0.825l0.529-1.643l2.755,1.142l-0.167-3.22h1.744l-0.186,3.275l2.7-1.113l0.52,1.67
		l-2.839,0.825l1.855,2.459l-1.401,1.021l-1.623-2.69l-1.605,2.606l-1.41-0.983L273.978,237.89z"/>
	<path fill="#413D45" d="M290.534,237.89l-2.802-0.825l0.529-1.643l2.755,1.142l-0.167-3.22h1.744l-0.186,3.275l2.7-1.113l0.52,1.67
		l-2.839,0.825l1.855,2.459l-1.401,1.021l-1.623-2.69l-1.605,2.606l-1.41-0.983L290.534,237.89z"/>
</g>
<g>
	<path fill="#D0DAE3" d="M246.299,282.862h-1.177l-0.204-1.074c-0.136-0.086-0.335-0.161-0.596-0.226
		c-0.262-0.064-0.539-0.097-0.833-0.097c-0.43,0-0.762,0.091-0.996,0.271s-0.352,0.414-0.352,0.7c0,0.266,0.122,0.483,0.368,0.653
		c0.244,0.17,0.668,0.35,1.27,0.539c0.863,0.24,1.518,0.558,1.963,0.951c0.446,0.394,0.669,0.911,0.669,1.552
		c0,0.67-0.265,1.198-0.795,1.585s-1.228,0.58-2.095,0.58c-0.619,0-1.179-0.099-1.678-0.296c-0.5-0.196-0.916-0.469-1.249-0.816
		v-1.633h1.214l0.166,1.112c0.158,0.129,0.371,0.235,0.643,0.319c0.27,0.084,0.571,0.126,0.904,0.126c0.43,0,0.757-0.087,0.98-0.263
		s0.336-0.41,0.336-0.704c0-0.301-0.107-0.542-0.32-0.725s-0.586-0.354-1.119-0.516c-0.928-0.269-1.63-0.587-2.105-0.956
		c-0.477-0.369-0.715-0.874-0.715-1.515c0-0.634,0.269-1.152,0.806-1.555c0.537-0.403,1.212-0.61,2.025-0.621
		c0.602,0,1.149,0.092,1.644,0.274s0.909,0.426,1.246,0.73V282.862z"/>
	<path fill="#D0DAE3" d="M254.904,280.364v2.084h-1.203l-0.064-0.875h-1.439v5.511l0.838,0.161v0.939h-3.244v-0.939l0.838-0.161
		v-5.511h-1.434l-0.064,0.875h-1.197v-2.084H254.904z"/>
	<path fill="#D0DAE3" d="M259.918,280.364c0.888,0,1.584,0.204,2.089,0.61s0.758,0.968,0.758,1.684c0,0.394-0.106,0.735-0.317,1.025
		s-0.521,0.525-0.929,0.704c0.462,0.136,0.794,0.362,0.996,0.68c0.202,0.316,0.304,0.71,0.304,1.179v0.397
		c0,0.172,0.033,0.306,0.102,0.4s0.181,0.151,0.339,0.169l0.193,0.026v0.945h-0.812c-0.512,0-0.872-0.138-1.079-0.413
		c-0.208-0.275-0.312-0.632-0.312-1.069v-0.445c0-0.38-0.102-0.678-0.304-0.895s-0.488-0.33-0.856-0.341h-1.284v2.062l0.838,0.161
		v0.939h-3.238v-0.939l0.832-0.161v-5.613l-0.832-0.161v-0.945h0.832H259.918z M258.806,283.812h1.085
		c0.438,0,0.765-0.093,0.983-0.279c0.218-0.186,0.327-0.454,0.327-0.806c0-0.351-0.108-0.631-0.324-0.84
		c-0.217-0.21-0.537-0.314-0.959-0.314h-1.112V283.812z"/>
	<path fill="#D0DAE3" d="M272.106,284.334c0,1.146-0.327,2.093-0.983,2.841c-0.654,0.749-1.513,1.123-2.572,1.123
		c-1.057,0-1.909-0.374-2.56-1.123c-0.649-0.748-0.975-1.695-0.975-2.841v-0.118c0-1.139,0.324-2.084,0.972-2.836
		c0.648-0.752,1.501-1.128,2.557-1.128c1.061,0,1.919,0.376,2.576,1.128c0.656,0.752,0.985,1.697,0.985,2.836V284.334z
		 M270.543,284.205c0-0.81-0.168-1.467-0.504-1.972c-0.337-0.505-0.835-0.757-1.494-0.757c-0.658,0-1.15,0.251-1.474,0.752
		c-0.324,0.501-0.486,1.16-0.486,1.977v0.129c0,0.823,0.164,1.487,0.491,1.99c0.328,0.503,0.819,0.754,1.475,0.754
		c0.662,0,1.16-0.251,1.493-0.754s0.499-1.167,0.499-1.99V284.205z"/>
	<path fill="#D0DAE3" d="M281.717,280.364v0.945l-0.838,0.161v6.714h-1.562l-3.158-5.264l-0.032,0.006v4.157l0.838,0.161v0.939
		h-3.239v-0.939l0.833-0.161v-5.613l-0.833-0.161v-0.945h0.833h1.568l3.158,5.264l0.032-0.005v-4.152l-0.838-0.161v-0.945h2.4
		H281.717z"/>
	<path fill="#D0DAE3" d="M289.695,287.314c-0.255,0.251-0.625,0.478-1.112,0.68s-1.103,0.304-1.848,0.304
		c-1.056,0-1.915-0.354-2.578-1.061s-0.993-1.627-0.993-2.759v-0.269c0-1.171,0.326-2.123,0.979-2.857
		c0.653-0.733,1.507-1.101,2.56-1.101c0.612,0,1.172,0.098,1.679,0.293s0.929,0.459,1.265,0.792v1.573h-1.16l-0.221-1.047
		c-0.143-0.122-0.332-0.22-0.566-0.293s-0.504-0.11-0.809-0.11c-0.684,0-1.215,0.253-1.595,0.758s-0.569,1.165-0.569,1.981v0.279
		c0,0.795,0.186,1.43,0.559,1.904s0.91,0.712,1.611,0.712c0.314,0,0.57-0.027,0.766-0.081s0.348-0.116,0.459-0.188v-1.327
		l-1.117-0.086v-1.101h2.691V287.314z"/>
</g>
<ellipse opacity="0.3" fill="#232323" enable-background="new    " cx="186.962" cy="181.17" rx="68.608" ry="11.074"/>
<g>
	<path fill="#3ED033" d="M233.055,284.236c0,2.2-1.8,4-4,4h-169c-2.2,0-4-1.8-4-4l0,0c0-2.2,1.8-4,4-4h169
		C231.255,280.236,233.055,282.036,233.055,284.236L233.055,284.236z"/>
</g>
<g>
	<g>
		<g>
			<path fill="#413D45" d="M90.917,236.746v11.104c0,0.66-0.233,1.223-0.694,1.686c-0.464,0.463-1.026,0.693-1.688,0.693H71.086
				c-0.659,0-1.224-0.23-1.686-0.693c-0.458-0.463-0.691-1.025-0.691-1.686v-11.104c0-0.66,0.233-1.221,0.691-1.686
				c0.462-0.461,1.026-0.695,1.686-0.695h1.587v-2.379c0-1.289,0.324-2.479,0.966-3.568c0.646-1.092,1.512-1.957,2.604-2.602
				c1.089-0.645,2.279-0.969,3.57-0.969c1.287,0,2.475,0.324,3.567,0.969c1.088,0.645,1.96,1.52,2.604,2.627
				c0.646,1.107,0.967,2.305,0.967,3.592v2.33h1.583c0.663,0,1.225,0.234,1.688,0.695C90.684,235.525,90.917,236.086,90.917,236.746
				z M88.534,236.746H71.086v11.104h17.448V236.746z M75.054,234.365h9.517v-2.379c0-1.32-0.467-2.443-1.389-3.371
				c-0.929-0.924-2.052-1.389-3.369-1.389c-1.325,0-2.447,0.465-3.373,1.389c-0.925,0.928-1.386,2.051-1.386,3.371V234.365z
				 M79.813,245.271c-0.397,0-0.729-0.129-0.993-0.396c-0.267-0.262-0.397-0.596-0.397-0.992v-3.172c0-0.396,0.13-0.725,0.397-0.99
				c0.265-0.264,0.596-0.398,0.993-0.398c0.393,0,0.726,0.135,0.987,0.398c0.266,0.266,0.401,0.594,0.401,0.99v3.172
				c0,0.396-0.135,0.73-0.401,0.992C80.54,245.143,80.206,245.271,79.813,245.271z"/>
		</g>
	</g>
</g>
<g>
	<path fill="#413D45" d="M232.432,99.908h-3.438v-3.438c0-5.695-4.617-10.312-10.312-10.312h-65.312
		c-11.391,0-20.625,9.234-20.625,20.625v55c0,11.391,9.234,20.625,20.625,20.625h75.625c7.593,0,13.75-6.154,13.75-13.75v-58.438
		C242.744,104.525,238.127,99.908,232.432,99.908z"/>
	<path fill="#FF7E1C" d="M235.869,168.658c0,3.79-3.083,6.875-6.875,6.875h-75.625c-7.581,0-13.75-6.167-13.75-13.75v-55
		c0-7.581,6.169-13.75,13.75-13.75h65.312c1.894,0,3.438,1.543,3.438,3.438v3.438h-65.312c-1.897,0-3.438,1.538-3.438,3.438
		s1.54,3.438,3.438,3.438h75.625c1.894,0,3.438,1.543,3.438,3.438V168.658z"/>
	<circle fill="#413D45" cx="215.244" cy="141.158" r="6.875"/>
</g>
</svg>
