<?xml version="1.0" encoding="UTF-8"?>
<svg id="Layer_1" data-name="Layer 1" xmlns="http://www.w3.org/2000/svg" width="300" height="225" viewBox="0 0 300 225">
  <defs>
    <style>
      .cls-1 {
        fill: #fff;
      }

      .cls-2 {
        fill: #f4caae;
      }

      .cls-3 {
        fill: #1b91e0;
      }

      .cls-4 {
        opacity: .5;
      }

      .cls-5 {
        fill: #131511;
      }

      .cls-6 {
        isolation: isolate;
        opacity: .35;
      }

      .cls-7 {
        fill: #232323;
      }

      .cls-8 {
        fill: #444;
      }

      .cls-9 {
        fill: #442e11;
      }

      .cls-10 {
        fill: #9ca652;
      }

      .cls-11 {
        fill: #7f7f7f;
      }

      .cls-12 {
        fill: #231f20;
      }
    </style>
  </defs>
  <g class="cls-6">
    <path class="cls-7" d="m245.19,156.62s.03-.06.03-.1l-1.2-131.9s-.02-.06-.03-.09c0-.04,0-.08-.02-.12,0-.02-.03-.02-.03-.04-.02-.04-.05-.07-.09-.1-.04-.04-.08-.07-.13-.09-.02,0-.03-.03-.04-.03-.03,0-.05,0-.08,0-.03,0-.06-.03-.09-.02l-30.32.07-18.4-13.48c-.07-.58-.55-1.03-1.13-1.02-.62.02-1.1.55-1.08,1.19,0,.06.03.1.04.16l-11.44,13.99-31.84.16s-.06.02-.09.03c-.03,0-.06,0-.09,0-.02,0-.02.02-.04.03-.05.03-.08.06-.12.1-.03.03-.06.06-.08.11,0,.02-.02.02-.03.04-.01.04,0,.08-.01.11,0,.03-.03.06-.03.1l.44,129.5s.02.06.03.09c0,.03,0,.06,0,.09,0,.02.03.03.03.04.03.05.06.08.1.12.03.03.06.06.1.09.02,0,.02.03.04.03.06.03.12.03.19.04,0,0,0,0,.01,0l94.93,1.33h0c.06,0,.12-.02.18-.04.02,0,.02-.02.04-.03.05-.03.08-.06.12-.11.03-.03.06-.06.08-.1,0-.01.02-.02.03-.04.02-.04,0-.08.01-.12Zm-14.77-121.17c-2.38.08-4.76.15-7.14.23,2.38-.08,4.76-.15,7.15-.23.2,0,.36-.01.47,0-.12,0-.27,0-.47,0Zm-70.25,2.2c-.41.01-.52.13-.55.38,0,.08,0,.18,0,.29.21,6.12.4,12.24.6,18.36.08,2.61.17,5.22.25,7.83-.08-2.61-.17-5.22-.25-7.82-.2-6.12-.39-12.24-.6-18.36,0-.11,0-.21,0-.29.02-.25.14-.37.55-.38,3.12-.1,8.24-.2,11.36-.3-3.12.1-8.24.2-11.36.3Zm3.4,106.78h0s-.01,0-.02,0c0,0,.01,0,.02,0ZM193.22,11.89c.15.08.32.13.5.12.26,0,.48-.12.67-.28l17.28,12.52-29.12.75,10.67-13.1Z"/>
  </g>
  <g>
    <g>
      <path class="cls-10" d="m186.14,23.99s.08.02.12.04c-.07.11-.16.1-.25.04.04-.03.09-.05.13-.08Z"/>
      <path class="cls-10" d="m240.17,24.22c-.08.01-.11-.02-.11-.1-.02-.05,0-.09.05-.06.04.03.04.1.06.15Z"/>
      <path class="cls-10" d="m174.89,26.08c-.42.21-.84.22-1.26,0,.42-.14.84-.15,1.26,0Z"/>
      <path class="cls-10" d="m196.34,26.07c-.42.22-.84.21-1.27,0,.42-.15.84-.16,1.27,0Z"/>
      <path class="cls-10" d="m223.47,28.74c.12-.27.27-.49.59-.55-.11.28-.29.48-.59.55Z"/>
      <path class="cls-10" d="m157.27,26.07c-.23.21-.46.21-.69,0,.23-.15.46-.15.69,0Z"/>
      <path class="cls-10" d="m237.36,26.31c-.12-.05-.09-.14-.08-.23.09-.15.3-.13.33-.05.08.19-.13.21-.25.29Z"/>
      <path class="cls-10" d="m189.64,26.05c-.13.06-.26.06-.39,0,.13-.26.26-.27.39,0Z"/>
      <path class="cls-10" d="m183.36,26.08s-.05.1-.09.11c-.08.02-.13-.03-.14-.11.07-.12.15-.12.22,0Z"/>
      <path class="cls-10" d="m223.19,29.12c-.02-.06,0-.1.07-.11-.02.04-.04.08-.07.11Z"/>
      <path class="cls-10" d="m223.37,28.87s.06-.08.09-.12c0,.07-.03.11-.09.12Z"/>
      <path class="cls-10" d="m224.08,28.18c0-.07.04-.1.1-.11,0,.07-.03.11-.1.11Z"/>
      <path class="cls-10" d="m184.16,26.08s-.02.05-.03.08c-.02-.03-.04-.05-.06-.08.03-.03.06-.03.09,0Z"/>
      <g>
        <rect class="cls-2" x="161.11" y="37.39" width="67.25" height="101.77"/>
        <path class="cls-9" d="m200.49,23.19c.16.18.3.45.61.44,9.59,0,19.19-.01,28.78-.02,3.28,0,6.56,0,9.85,0,.11,0,.22.03.34.05,0,.08.03.11.11.1.04,0,.08,0,.12.01.32.27.55.6.57,1.04,0,.77,0,1.55,0,2.32-.07,1.97-.07,3.94,0,5.91,0,1.08,0,2.16,0,3.25-.06.7-.06,1.39,0,2.09,0,1.08,0,2.16,0,3.24-.06.5-.07,1.01,0,1.51,0,.7,0,1.39,0,2.09-.05.15-.05.31,0,.46,0,.23,0,.46,0,.69-.05.12-.05.23,0,.35,0,.46,0,.93,0,1.39-.06,1.58-.06,3.17,0,4.75,0,.42,0,.85,0,1.27-.06.54-.07,1.08,0,1.62,0,.58,0,1.16,0,1.74-.05.12-.05.23,0,.35,0,.46,0,.93,0,1.39-.06.89-.06,1.78,0,2.67,0,1.12,0,2.24,0,3.36-.07,2.36-.06,4.72,0,7.07,0,.19,0,.39,0,.58-.06,1.24-.06,2.47,0,3.71,0,.23,0,.46,0,.7-.01,2.33-.03,4.65-.04,6.98,0,1.23.02,2.46.04,3.69,0,.23,0,.46,0,.7-.06,1.39-.06,2.78,0,4.17,0,.23,0,.46,0,.69-.06.23-.06.46,0,.7,0,.15,0,.31,0,.46-.05.16-.05.31,0,.47,0,.58,0,1.16,0,1.74-.06.7-.07,1.39,0,2.09,0,.5,0,1,0,1.51-.06,2.05-.06,4.1,0,6.15,0,.19,0,.39,0,.58-.06.5-.06,1.01,0,1.51,0,.12,0,.23,0,.35-.05.16-.05.31,0,.47,0,.46,0,.93,0,1.39-.01.63-.04,1.27-.03,1.9,0,2.19.02,4.38.03,6.57,0,.15,0,.31,0,.46-.06,1.43-.07,2.86,0,4.29,0,1.24,0,2.47,0,3.71,0,.04,0,.08,0,.12,0,.23,0,.46,0,.69-.06.43-.06.85,0,1.28,0,.35,0,.69,0,1.04-.01.92-.04,1.84-.04,2.76,0,1.86.02,3.72.03,5.59,0,.08,0,.15,0,.23-.06,2.24-.07,4.48,0,6.73-.02.81-.03,1.61-.05,2.42-.13.31-.06.62-.05.94-.01.31-.02.62-.03.93-.39.45-.9.5-1.46.5-.55,0-1.12-.07-1.67.06-.19-.01-.38-.04-.57-.04-29.25,0-58.5,0-87.75,0-.15,0-.31.02-.46.03-.24-.07-.48-.09-.72-.01-.34,0-.69-.01-1.03-.02-.1-.09-.21-.15-.35-.16,0,0,0,0,0,0,0-.07-.04-.1-.11-.08-.37-.23-.25-.64-.38-.97.05-.19.06-.38,0-.58.01-1.53.03-3.05.03-4.58,0-39.6,0-79.2,0-118.8,0-.42-.02-.85-.03-1.27.03-.46.26-.79.65-1.03.25.04.51.29.76-.02.74-.04,1.48-.06,2.22.01.02.03.05.06.07.08.01-.03.02-.05.03-.08.19-.01.38-.03.57-.03,11.53,0,23.07,0,34.6,0,.29,0,.58-.01.87-.02.1.06.18.07.25-.04.04-.05.08-.09.12-.14.08-.07.16-.14.24-.2.04-.05.07-.09.11-.14,0,0,0,0,0,0,.15-.07.24-.17.23-.35l13.52.46Zm-48.9,123.82s-.09.07-.13.11c-.6.69-1.38,1.2-1.98,1.96.35.02.6.04.85.04,6.22.01,12.44.03,18.66.03,10.18,0,20.36-.02,30.55-.03,8.96,0,17.93,0,26.89,0,3.65,0,7.3.01,10.95.02.06.08.13.09.18,0,.03-.05,0-.11-.08-.12-1.08-1.05-2.14-2.12-3.23-3.14-.64-.6-1.19-1.31-1.94-1.81-.1-.07-.16-.23-.34-.14-.47.23-.96.43-1.31.84-.58.68-1.14,1.38-1.74,2.04-1.28,1.39-3.62,1.67-5.03.1-.58-.65-1.18-1.28-1.68-1.99-.75-1.07-2.77-1.34-3.75-.73-.88.55-1.43,1.38-2.05,2.16-1.57,1.99-4.14,2.24-5.81.25-.52-.62-1.05-1.24-1.59-1.85-1.09-1.21-3.32-1.17-4.37.12-.47.57-.91,1.17-1.4,1.72-1.18,1.34-3.29,1.97-5.02.57-.71-.58-1.18-1.34-1.78-2-.7-.75-1.46-1.41-2.58-1.38-1.01.03-1.74.58-2.39,1.3-.63.7-1.12,1.51-1.87,2.11-.86.69-1.9.91-2.88.77-.63-.09-1.31-.55-1.82-1.09,0-.1-.01-.18-.13-.19h0c-.11-.2-.23-.38-.44-.48h0c-.02-.16-.09-.28-.26-.31-.25-.28-.5-.55-.72-.87-.92-1.33-2.97-1.51-4.03-.68-.42.33-.82.7-1.17,1.13-.83.99-1.51,2.15-2.97,2.42-1.08.19-2.02-.02-2.87-.68-.77-.6-1.24-1.45-1.91-2.13-.59-.6-1.22-1.09-2.12-1.2-1.35-.17-2.22.53-2.98,1.47-.56.69-1.06,1.44-1.78,1.95-1.82,1.29-4.22.67-5.41-1.31-.42-.71-.94-1.41-1.72-1.76-.54-.24-1.12-.76-1.73-.19-.73.68-1.42,1.41-2.13,2.13h-.04s0,.05,0,.05c-.17.08-.32.19-.41.36-.07,0-.1.04-.09.11-.05.05-.1.09-.14.14-.07-.01-.1.02-.11.09h0c-.07,0-.11.04-.12.11h0Zm1.63-115.72c0-.07-.04-.1-.11-.1h-.01c-.27-.34-.53-.69-.91-.91-.25-.24-.49-.48-.74-.73-.38-.56-1.02-.89-1.33-1.51-.07-.14-.24-.08-.36-.1-.43-.43-.85-.86-1.28-1.29-.08-.16-.21-.17-.31-.06-.09.11-.08.25.1.29-.01,1.78-.02,3.56-.03,5.34-.03.03-.05.05-.08.08.03.01.05.03.08.04.01.19.03.38.03.58,0,16.61,0,33.22,0,49.84,0,21.04,0,42.07.01,63.11,0,.5.02,1,.03,1.5,0,.11-.02.22-.02.33,0,.09,0,.18,0,.26,0,.07,0,.13,0,.2,0,.07,0,.15.11.13.11-.02.11-.11.13-.2.24-.31.63-.45.82-.8h0s.08-.08.12-.12h-.04s.03,0,.03,0c.15-.08.27-.19.35-.35.28-.18.51-.41.71-.67l.02-.02c.11-.11.22-.22.34-.33l.02-.02c.11-.11.22-.21.34-.32l.03-.03c.09-.09.18-.19.27-.28.04-.04.08-.09.12-.13.14-.08.28-.17.35-.33h0c.24-.15.43-.35.6-.57.29-.28.59-.55.88-.83.61-.61.63-.82.15-1.56-.09-.14-.2-.28-.3-.41-.67-.82-1.56-1.4-2.28-2.17-1.45-1.54-1.49-3.62-.06-5.18.96-1.05,2.24-1.8,2.87-3.14.27-.25.22-.56.2-.88.21-1.44-.46-2.51-1.47-3.41-.62-.55-1.25-1.1-1.83-1.7-.95-.99-.82-3.35-.31-4.21.72-1.2,1.98-1.82,2.81-2.91.72-.95.95-1.89.74-3-.23-1.23-1.11-1.97-2.02-2.68-1.31-1.01-2.16-2.23-1.97-3.99.08-.69.3-1.26.74-1.8.59-.72,1.35-1.25,2.01-1.88.58-.56,1.03-1.2,1.21-2.01.17-.12.13-.29.09-.46.17-1.46-.49-2.54-1.58-3.43-.69-.56-1.38-1.12-1.89-1.87-.82-1.19-.74-2.99,0-4.13.67-1.01,1.74-1.63,2.52-2.53.99-1.14,1.53-3,.43-4.41-.69-.89-1.63-1.48-2.42-2.24-.75-.72-1.07-1.6-1.19-2.53-.16-1.22.5-2.2,1.29-3.09.47-.54,1.14-.84,1.58-1.4.03-.03.06-.07.09-.1.13-.04.22-.12.25-.26.16-.11.3-.23.35-.43.16-.06.13-.23.18-.34.59-1.17.55-2.3-.14-3.45-.53-.88-1.37-1.42-2.11-2.04-1.82-1.52-2.01-4.57-.13-5.99.5-.38.93-.85,1.4-1.29.23-.06.42-.17.48-.42.03-.02.05-.04.08-.07.17-.04.23-.17.23-.33.46-.55.66-1.26.66-1.9,0-1.3-.64-2.36-1.68-3.16-.58-.45-1.12-.95-1.62-1.5-1-1.1-1.12-2.99-.4-4.29.49-.87,1.24-1.42,1.96-2.04.76-.66,1.39-1.37,1.59-2.46.27-1.45-.3-2.52-1.26-3.46-.54-.53-1.15-.99-1.69-1.53-.42-.42-.77-.9-.91-1.47-.32-1.38-.22-2.67.84-3.76.39-.4.77-.8,1.18-1.18.28-.26.69-.35.86-.74.2-.03.22-.18.23-.33h0c.37-.15.52-.44.54-.81.1-.26.21-.53.13-.82.09-.29-.16-.34-.33-.45-.08-.08-.17-.16-.25-.24-.03-.03-.06-.07-.09-.1v-.02Zm.19,25.31s.08.09.12.14c.06.12.11.25.24.31,0,.17.09.27.23.34l.03.12c-.02.07.01.1.08.1.12.2.23.4.35.6.01.12-.02.26.12.34,0,.39.05.78,0,1.16-.1.74-.22,1.44-.68,2.1-.61.88-1.42,1.51-2.21,2.17-.98.81-1.29,1.91-1.22,3.06.05.86.61,1.6,1.29,2.19.68.6,1.42,1.12,2.01,1.84,1.23,1.5,1.01,3.88-.17,5.17-.74.8-1.64,1.41-2.38,2.21-.86.94-1.04,2.88-.28,3.86.71.9,1.6,1.62,2.44,2.39,1.02.94,1.38,2.13,1.21,3.42-.17,1.33-1.02,2.32-2.09,3.14-.76.59-1.56,1.22-1.85,2.2-.44,1.49-.02,2.75,1.16,3.79.79.7,1.63,1.36,2.24,2.28.87,1.33.56,3.69-.4,4.63-.82.81-1.73,1.52-2.49,2.39-.68.77-.97,2.59-.29,3.57.51.73,1.13,1.33,1.82,1.87,1.08.85,1.79,1.91,1.89,3.33.14,1.82-.88,3.07-2.17,4.08-1,.78-1.77,1.61-1.89,2.91-.02.18-.12.34-.09.55.17.99.68,1.78,1.42,2.44.65.58,1.37,1.09,1.92,1.8.94,1.22,1.03,2.53.53,3.93-.4,1.1-1.25,1.84-2.15,2.52-1.14.87-1.79,1.98-1.7,3.41.06.94.66,1.66,1.36,2.28.92.81,1.95,1.52,2.45,2.69.15.34.29.3.51.08.38-.38.82-.72,1.16-1.13.26-.32.71-.46.82-.91.08-.93.08-1.87,0-2.8,0-.07,0-.14,0-.22.08-1.71.08-3.41,0-5.12,0-.38,0-.76,0-1.14.07-.28.07-.55,0-.83,0-.42,0-.84,0-1.26.02-.13.05-.27.05-.4,0-3.64,0-7.29,0-10.93,0-.13-.03-.27-.05-.4,0-.57,0-1.14,0-1.72,0-.05,0-.1,0-.14,0-.15,0-.29,0-.44.02-.23.05-.46.05-.69,0-2.58,0-5.17,0-7.75,0-.44-.03-.88-.04-1.32,0-.07,0-.14,0-.21,0-.08,0-.17,0-.25,0-1,0-2,0-2.99.08-.78.08-1.56,0-2.34,0-.26,0-.53,0-.79.11-.98.04-1.96.04-2.94,0-1.62.06-3.23-.04-4.85,0-1.66,0-3.31,0-4.97.02-.21.05-.42.05-.63,0-3.03,0-6.05,0-9.08,0-.21-.03-.42-.04-.63,0-.92,0-1.84,0-2.76.02-.19.05-.38.05-.57,0-3.1,0-6.21,0-9.31,0-.19-.03-.38-.05-.57,0-.57,0-1.15,0-1.72,0-.08,0-.17,0-.25,0-.5,0-.99,0-1.49.08-.55.08-1.09,0-1.64,0-.11,0-.22,0-.33.02-.21.04-.42.04-.63,0-2.49,0-4.97,0-7.46,0-.4.05-.81-.05-1.21,0-.92,0-1.84,0-2.76.06-.12.06-.25,0-.37,0-.11,0-.22,0-.33.07-.2.07-.4,0-.6,0-.11,0-.22,0-.33,0-.08,0-.17,0-.25,0-1.89,0-3.78,0-5.67.07-.32.07-.63,0-.94-.08-.51.18-1.08-.29-1.53-.53-.5-1.05-1.01-1.55-1.53-.29-.3-.45-.17-.55.14-.22.63-.62,1.14-1.1,1.58-.52.49-1.07.95-1.59,1.43-.86.81-1.3,1.77-1.14,2.99.12.93.63,1.6,1.27,2.22.98.95,2.21,1.69,2.66,3.1-.02.03,0,.05.03.06l.02.23c-.03.16-.09.32.05.47.16.35.17.7,0,1.05-.15.14-.08.3-.06.46-.2.62-.5,1.17-.92,1.67-.68.78-1.55,1.36-2.24,2.13-.87.94-1.06,2.01-.65,3.19.42,1.22,1.42,1.93,2.38,2.67.05.04.09.09.14.13.03.03.06.06.09.1.05.04.09.08.14.12h0Zm85.38,91.71v-.02c.13-.11.11-.24.05-.37,0-.38,0-.76,0-1.13,0-.09,0-.17,0-.26v-.32c.02-.21.05-.42.05-.63,0-2.58,0-5.17,0-7.75,0-.42.06-.85-.04-1.27,0-.42,0-.83,0-1.25.01-.13.04-.27.04-.4,0-3.99,0-7.98,0-11.98,0-.13-.03-.27-.04-.4,0-.5,0-.99,0-1.49.02-.13.04-.27.04-.4,0-3.8,0-7.6,0-11.4,0-.13-.03-.27-.04-.4v-.79c.01-.13.04-.27.04-.4,0-3.8,0-7.6,0-11.4,0-.13-.03-.27-.04-.4,0-.19,0-.37,0-.56.06-.12.06-.25,0-.37,0-.19,0-.37,0-.56.02-.15.04-.3.04-.46,0-4.3,0-8.6,0-12.9,0-.15-.03-.3-.05-.46,0-.42,0-.84,0-1.26.02-.19.04-.38.04-.57,0-3.28,0-6.55,0-9.83,0-.21-.03-.42-.04-.63,0-.65,0-1.3,0-1.95.06-.16.06-.32,0-.48,0-.19,0-.38,0-.56.01-.11.04-.23.04-.34,0-3.95,0-7.91,0-11.86,0-.11-.03-.23-.04-.34,0-.15,0-.3,0-.44.01-.13.04-.27.04-.4,0-8.19,0-16.38,0-24.57,0-.15.04-.31-.07-.44-.06-.14.04-.31-.13-.47-1.81,1.76-3.61,3.53-5.43,5.28-.2.19-.15.33-.11.55.23,1.12.96,1.87,1.8,2.55.49.41.99.81,1.4,1.29.62.73.93,1.63.88,2.53-.07,1.37-.73,2.48-1.84,3.34-.82.63-1.58,1.32-2.03,2.32-.61,1.32-.07,3.05.9,3.87.58.5,1.15,1.01,1.7,1.54,1.51,1.47,1.65,3.29.51,5.11-.51.81-1.31,1.3-1.97,1.94-.57.55-1.08,1.14-1.29,1.92-.44,1.67.22,2.95,1.62,4.02,1.54,1.18,2.63,2.53,2.32,4.62-.14.91-.58,1.66-1.25,2.24-1.27,1.11-2.7,2.06-2.74,4.03-.01.76.13,1.46.6,1.99.69.79,1.49,1.49,2.27,2.21.94.86,1.33,1.98,1.2,3.17-.1.97-.56,1.88-1.35,2.56-.51.44-1.01.9-1.51,1.36-.74.68-1.25,1.47-1.29,2.52-.05,1.4.68,2.36,1.66,3.22.78.68,1.62,1.29,2.08,2.29.63,1.37.53,2.68-.3,3.89-.55.8-1.38,1.36-2.1,2-1.23,1.1-1.92,2.96-.7,4.71.57.81,1.34,1.37,2.06,1.99.91.78,1.41,1.8,1.46,2.95.05,1.08-.4,2.07-1.16,2.89-.68.74-1.55,1.26-2.21,2.03-.98,1.14-1.05,2.97-.14,4.16.56.73,1.28,1.28,1.95,1.89,1.12,1.01,1.81,2.2,1.47,3.77-.11.5-.22,1.06-.51,1.46-.55.76-1.3,1.35-2,1.97-.89.78-1.58,1.72-1.55,3.01.03,1.26.79,2.1,1.6,2.91.64.65,1.43,1.15,1.93,1.93.47.74.72,1.55.62,2.43-.19,1.52-1.16,2.51-2.3,3.41-.56.45-1.07.98-1.46,1.59-.52.82-.48.93.17,1.56,1.67,1.62,3.33,3.25,5,4.88.02.03.04.05.06.08.03-.03.06-.06.09-.09Zm-5.69-48.72s.06-.09.08-.13c.02-.03.03-.06.05-.1.09-.03.12-.09.13-.18.6-.72,1.3-1.35,2.02-1.95.25-.21.53-.42.71-.73,1.07-1.84.69-3.44-.91-4.8-.96-.81-1.93-1.6-2.41-2.82-.57-1.45-.1-3.34,1.16-4.35.9-.72,1.76-1.5,2.4-2.48.46-.7.46-2.42,0-3.07-.45-.64-.95-1.23-1.62-1.66.02-.08-.02-.12-.09-.13-.08-.08-.16-.15-.25-.23,0-.07-.05-.11-.12-.11-.08-.07-.16-.15-.25-.22-.01-.1-.08-.15-.17-.16-.06-.06-.12-.13-.18-.19-.02-.12-.09-.21-.21-.25-.62-.69-.89-1.53-.92-2.43-.05-1.62.88-2.76,2.06-3.69.71-.56,1.41-1.16,1.8-1.94.57-1.15.41-2.7-.6-3.69-.74-.72-1.5-1.41-2.24-2.14-1.01-.99-1.35-3.09-.58-4.37.59-.98,1.42-1.72,2.29-2.42,1.16-.95,1.83-2.58,1.16-4.14-.37-.86-1.11-1.33-1.73-1.93-.66-.64-1.45-1.2-1.78-2.08-.5-1.32-.4-2.64.32-3.88.1-.03.13-.1.14-.19l-.03-.02.03.02c.22-.17.41-.36.55-.6.52-.36.92-.86,1.4-1.27,1.87-1.57,1.78-3.94.02-5.45-1.03-.89-2.17-1.68-2.6-3.09-.07-.22-.28-.29-.46-.1-.58.66-1.32,1.17-1.86,1.88-.02.04-.04.07-.06.11-.01.31-.03.62-.03.92,0,33.87,0,67.73-.01,101.6,0,.75.02,1.49-.04,2.24-.05.54.14,1.05.66,1.44.61.45,1.12,1.04,1.68,1.58.33-.28.32-.77.6-1.12.55-.7,1.22-1.26,1.89-1.83.9-.76,1.59-1.66,1.58-2.91-.01-1.28-.64-2.24-1.61-3.02-.47-.38-1.04-.68-1.41-1.15-.52-.65-.96-1.37-1.08-2.27-.15-1.14.06-2.13.8-3,.63-.74,1.4-1.32,2.1-1.97.74-.7,1.31-1.58,1.29-2.63-.02-.71-.29-1.42-.77-2.02-.62-.78-1.44-1.33-2.14-2.01-1.31-1.28-1.87-3.24-.73-5.01.58-.9,1.43-1.51,2.21-2.21,1.54-1.39,1.79-3.18.63-4.78-.53-.73-1.27-1.28-1.96-1.85-1.49-1.24-1.7-2.87-1.12-4.8.15-.01.22-.09.21-.24h0Zm-17.25,46.52l-.03-.03.03.03c.18-.07.26-.2.3-.38v-.02c.19-.1.31-.24.35-.44.32-.36.62-.73.95-1.08.94-1.01,2.83-1.13,3.86-.61.94.46,1.55,1.23,2.16,2.02.4.52.8,1.09,1.38,1.38,1.48.72,2.86.54,4-.91.67-.85,1.24-1.82,2.25-2.36.46-.25.48-.43.09-.81-.4-.39-.84-.74-1.21-1.15-.52-.57-1.13-.76-1.91-.75-6.9.03-13.79.02-20.69.02-16.44,0-32.87,0-49.31-.01-.04,0-.08,0-.12,0-.18.04-.39.04-.52.22-.54.76-1.37,1.24-1.94,2.06,1.53.32,2.37,1.44,3.23,2.58.43.57.97,1.09,1.66,1.36,1.18.47,2.7-.07,3.53-1.09.53-.65,1-1.33,1.61-1.93,1.15-1.12,3.36-1.23,4.71-.11.84.7,1.39,1.65,2.11,2.45.86.97,2.65,1.03,3.63.41.79-.5,1.29-1.26,1.85-1.96.89-1.11,1.89-1.91,3.45-1.71,1.12.15,2.01.64,2.65,1.55.49.69,1,1.35,1.66,1.88,1.26,1.01,2.87.89,3.97-.28.56-.6,1.14-1.19,1.59-1.86.82-1.22,3.31-1.79,4.63-.79.87.66,1.48,1.54,2.18,2.34.36.4.73.8,1.24.99,1.71.62,2.65.13,3.84-1.21.63-.71,1.15-1.49,1.91-2.09.8-.63,2.77-.68,3.58-.21.99.57,1.59,1.52,2.28,2.39,1.24,1.55,3,1.95,4.57.59h.03s0-.02,0-.02c.03-.03.06-.06.1-.1.17-.06.3-.17.36-.35Zm14.45-115.74c-.04-.11-.09-.2-.21-.24-.04-.04-.08-.08-.13-.13-.02-.11-.08-.19-.19-.24-.32-.36-.65-.71-.94-1.09-1-1.29-3.24-1.8-4.62-.35-.56.59-1.06,1.22-1.57,1.85-1.29,1.61-3.73,1.9-5.22.35-.82-.86-1.4-1.94-2.46-2.6-1-.62-2.48-.61-3.41.11-.85.66-1.4,1.56-2.1,2.34-1.22,1.36-3.44,1.66-4.93.23-.8-.77-1.37-1.74-2.22-2.47-.83-.72-1.76-.8-2.73-.58-1.13.25-1.75,1.2-2.42,2.03-.51.64-1.04,1.23-1.78,1.6-1.3.64-2.94.53-4.2-.93-.63-.72-1.14-1.54-1.9-2.16-1.15-.94-3.06-.87-4.13.34-.75.85-1.36,1.84-2.32,2.51-.91.64-1.94.77-2.94.47-.8-.23-1.44-.84-1.98-1.51-.54-.67-1.02-1.38-1.72-1.93-.74-.57-2.66-.79-3.58.04-.78.7-1.41,1.51-2.07,2.29-1.23,1.46-3.47,1.59-4.79.48-.75-.63-1.2-1.5-1.88-2.19-.63-.63-1.31-1.1-2.26-1.16-1.32-.09-2.18.58-2.91,1.53-.85,1.11-1.7,2.21-3.2,2.55.35.39.67.73.96,1.08.69.82,1.52,1.12,2.63,1.11,6.84-.06,13.68-.03,20.52-.03,16.11,0,32.22,0,48.33.02.94,0,1.68-.19,2.27-.94.26-.33.59-.6.9-.89.17-.16.44-.35.4-.54-.05-.24-.38-.25-.61-.31,0-.09-.01-.18-.12-.2h0c-.12-.19-.25-.37-.47-.46h0Zm-6.23-2.67c.07,0,.1-.04.1-.11,1.28-1.16,3.72-.8,4.73.29.7.75,1.24,1.65,2.02,2.32.95.81,1.13.8,2.02-.07,1.47-1.44,2.94-2.87,4.41-4.3.12-.07.33-.1.25-.29-.03-.08-.24-.09-.33.05-.21-.01-.42-.04-.63-.04-10.94,0-21.89,0-32.83,0-2.49,0-4.98.02-7.47.03-.42-.15-.84-.15-1.27,0-1.81,0-3.62-.02-5.43-.03-.13-.27-.26-.26-.39,0-1.7.01-3.4.02-5.1.03-.03-.03-.06-.03-.09,0-.24,0-.48,0-.72,0-.07-.12-.15-.12-.22,0-2.75,0-5.5,0-8.24,0-.42-.16-.84-.15-1.26,0-3.37,0-6.74-.02-10.12-.02-2.08,0-4.16.01-6.24.02-.23-.15-.46-.15-.69,0h-7.23c.63.57,1.08,1.11,1.59,1.58,1.3,1.18,2.54,2.42,3.81,3.64.15.14.27.29.54.2.97-.31,1.75-.83,2.38-1.65.59-.77,1.19-1.53,2.07-2.06,1.01-.62,2-.49,3-.17,1.16.37,1.83,1.35,2.51,2.27.6.82,1.38,1.35,2.34,1.62.28.08.61.06.91-.03,1.25-.38,1.96-1.36,2.69-2.33.55-.73,1.21-1.42,2.11-1.64,1.68-.43,3.13.06,4.21,1.46.38.5.77.99,1.18,1.47.89,1.02,1.98,1.23,3.2.85.91-.29,1.51-1.02,2.01-1.8,1.66-2.6,4.77-2.89,6.66-.39.51.67,1.06,1.3,1.69,1.87.96.88,2.49.6,3.34-.09.62-.5,1.06-1.15,1.58-1.74.47-.53.91-1.11,1.57-1.42,1.71-.81,3.53-.2,4.66,1.19.39.48.73,1.01,1.16,1.45,1.59,1.65,3.14,1.51,4.6,0,.56-.58,1.04-1.25,1.57-1.87,1.38-1.61,4.08-1.35,5.31.07.7.81,1.33,1.7,2.16,2.41.56.47,2.05.65,2.7.32.97-.5,1.56-1.39,2.27-2.14.02-.04.04-.08.07-.11.04-.05.07-.09.11-.14.07-.01.1-.05.09-.12h0c.31-.08.48-.28.59-.56h.01Zm-50.35,91.84c.45.02.91.06,1.36.05.24,0,.55.04.31-.43-.16-.31-.12-.73-.17-1.1.06-.41-.03-.8-.11-1.2-.2-1.05-.42-2.11-.56-3.17-.15-1.16-.18-2.34-.21-3.51-.08-2.99-.08-5.99.44-8.96.21-1.19.4-2.38.57-3.58.06-.41.38-.68.39-1.15.04-1.15.32-2.32,1.04-3.2.46-.56.2-1.4.89-1.8.03-.02,0-.11.01-.17.15-1.17-.22-2.31-.25-3.47,0-.05-.04-.11-.06-.16-.05-.12-.04-.3-.24-.27-.15.02-.15.16-.15.27,0,.22-.12.38-.28.48-.94.61-1.56,1.52-2.25,2.36-.81.99-1.45,2.12-2.33,3.05-.09.09-.11.24-.17.36-.33.67-.56,1.42-1.02,1.98-.67.79-1.06,1.75-1.71,2.54-.59.72-.89,1.61-1.11,2.49-.1.39-.56.11-.49.43.07.29-.07.51-.12.77-.1.54-.51.9-.67,1.41-.21.66-.3,1.39-.61,1.96-.52.98-.76,2.04-1.12,3.05-.49,1.38-.72,2.87-.96,4.32-.26,1.58-.42,3.19-.47,4.8-.04,1.41-.03,2.82,0,4.23.01.61,0,1.26.19,1.82.27.74.34,1.52.56,2.27.25.86.43,1.73.8,2.56.19.43.59.74.72,1.15.25.75.84,1.2,1.34,1.73.46.48,1.1.42,1.64.31.54-.11,1.03-.44,1.52-.72.15-.08.22-.33.14-.53-.2-.5-.19-1-.09-1.52.25-.42.57-.57,1.06-.39.34.13.73.1,1.08.03,1.46-.31,2.9-.72,4.34-1.12.27-.08.56-.04.71.32.23.54.6,1.01.91,1.5.68,1.07,1.38,2.13,2.19,3.11,1.38,1.67,2.69,3.4,4.63,4.49.41.23.76.68,1.4.53-.2-.19-.34-.38-.52-.49-1.12-.69-1.93-1.73-2.89-2.59-.48-.44-.37-.94.24-1.16.47-.17.72.24.97.47,1.26,1.18,2.54,2.32,3.98,3.28,1.4.94,2.93,1.58,4.53,2.08.34.11.74.02,1.17.02-.08-.13-.1-.2-.14-.22-1.02-.38-1.81-1.13-2.66-1.75-.79-.57-1.55-1.26-2.23-1.99-.92-.97-1.94-1.85-2.75-2.92-.14-.18-.32-.34-.2-.66.13-.34.4-.35.64-.38.23-.03.47.07.65.27.47.51.92,1.04,1.42,1.52,1.65,1.59,3.17,3.32,5.23,4.43.2.24.57.53.75.35.21-.21-.16-.45-.39-.6-.75-.82-1.49-1.64-2.25-2.46-.89-.97-1.81-1.92-2.67-2.92-.53-.61-1.13-1.15-1.56-1.85-.14-.23-.16-.44-.12-.65.14-.67.67-.82,1.43-.42,1.05.54,2.11,1.04,3.14,1.63,1.48.85,2.97,1.69,4.41,2.61.21.14.41.14.64.05-.14-.35-.25-.66-.46-.95-.98-1.4-2.36-2.35-3.66-3.37-1.96-1.53-4.05-2.89-6.16-4.2-.88-.54-1.74-1.12-2.65-1.6-.53-.28-.99-.65-1.55-.9-1.71-.79-3.52-.94-5.34-1.07-1.28-.09-2.58,0-3.86-.13-.55-.06-.82-.25-.8-.81-.01-.21.02-.39.23-.49.12.03.25.05.34-.08Zm16.48-43.43c-.04-.05-.08-.05-.11,0-.22-.03-.37-.02-.31.3.2,1.09.42,2.17.78,3.2.18.53.03.76-.39,1.01-.7.41-1.48.65-2.18,1.09-3.48,2.16-6.12,5.12-8.26,8.57-.3.48-.42.98-.26,1.47.36,1.11.72,2.24,1.36,3.24,1.01,1.58,2.35,2.81,4.17,3.26,1.54.38,3.17.32,4.73-.02,1.33-.29,2.64-.72,3.88-1.31.51-.25,1.04-.48,1.57-.68.3-.11.65-.03.92-.26,1.35-1.13,2.79-2.13,4.22-3.15.83-.29,1-.62.81-1.49.03-.59.05-1.18.08-1.77.13-.22.13-.44.03-.66.07-.8,0-1.6.07-2.41.13-1.7.12-3.41.14-5.12.02-2.08,0-4.15.01-6.23,0-1.94,0-3.88-.08-5.83-.08-2.03-.21-4.06-.4-6.08-.11-1.15-.22-2.31-.43-3.45-.24-1.26-.46-2.53-.83-3.77-.31-1.07-.65-2.14-1.15-3.14-.47-.94-1.02-1.83-1.74-2.63-1.12-1.25-2.44-2.13-4.07-2.49-1.52-.34-3.06-.55-4.61-.24-.86.17-1.76.18-2.55.57-1.26.62-2.09,1.62-2.65,2.92-.41.96-.68,1.94-.72,2.95-.05,1.38-.09,2.76.07,4.14.04.36.15.33.38.19.55-.32,1.12-.57,1.77-.59.81-.02,1.53.12,2.25.58.47.3.85.59,1.04,1.08.29.74.23,1.56.21,2.31-.04,1.08-.27,2.17-.51,3.24-.28,1.22,0,1.08,1.05,1.37.07.02.16-.01.23,0,.31.08.42.3.44.6.02.29-.05.55-.35.66-1.1.4-2.48-.33-2.91-1.44-.27-.7,0-1.34.19-1.94.42-1.36.43-2.72.4-4.12-1.26.47-1.47.37-1.94-.45-.28-.49-.51-.39-.84-.2-.28.16-.5.43-.87.41-.4-.02-.49.2-.5.58-.05,2-.01,3.99.46,5.94.33,1.35.69,2.7,1.48,3.89.8,1.22,1.82,2.25,2.87,3.24,1.01.96,2.29,1.38,3.66,1.28,2.1-.16,3.97-1.07,5.74-2.14.83-.5,1.61-1.08,2.41-1.63.4-.27,1.16-.23,1.21.09.07.4.08.8-.35,1.07-.66.43-1.3.9-1.95,1.34-1.98,1.33-4.13,2.25-6.5,2.61-.04-.03-.07-.02-.1,0-.35.01-.7.02-1.05.03Zm-3.56,62.84c-1.63-.46-2.95-1.41-4.14-2.54-2.18-2.08-3.93-4.49-5.47-7.07-.11-.18-.19-.4-.47-.27-1.11.51-2.27.83-3.5.89-.19,0-.36.05-.48.26-.49.87-1.1,1.62-1.95,2.2-1.71,1.17-2.84.89-4.15.04-.97-.63-1.61-1.61-2.12-2.63-1.37-2.73-1.92-5.67-2.05-8.7-.16-3.67.15-7.3,1.05-10.88.55-2.18,1.12-4.35,1.95-6.44.67-1.7,1.38-3.38,2.25-5,.89-1.64,1.79-3.27,2.81-4.84,1.21-1.86,2.51-3.64,3.93-5.35.73-.87,1.53-1.68,2.28-2.54.25-.29.57-.59.5-1-.11-.65,0-1.32-.11-1.95-.36-2.1-.33-4.23-.47-6.35-.1-1.5-.1-3.04-.09-4.56,0-1.45.11-2.9.09-4.34-.01-.88,0-1.76.06-2.63.09-1.18.34-2.34.43-3.52.1-1.38.37-2.73.66-4.06.38-1.76.87-3.49,1.54-5.19,1.28-3.23,3.01-6.09,5.72-8.33,1.25-1.03,2.65-1.73,4.13-2.31,1.07-.42,2.19-.47,3.31-.64,1.74-.27,3.46-.19,5.15.09,1.98.33,3.88.99,5.49,2.27.79.63,1.6,1.24,2.25,2.03,1.26,1.53,2.19,3.24,2.92,5.09.68,1.72,1.22,3.47,1.62,5.26.64,2.88,1,5.81,1.3,8.75.21,2.03.36,4.06.44,6.09.1,2.41.29,4.82.24,7.23-.02.75.29,1.4.59,2.03.57,1.16,1.29,2.22,2.18,3.17,1.18,1.28,2.35,2.57,3.74,3.6,1.4,1.03,2.75,2.13,3.95,3.38,1.17,1.22,2.18,2.59,3.07,4.03.71,1.14,1.34,2.31,1.83,3.57.39.98.79,1.97,1.18,2.96.05-1,.05-1.98.05-2.97,0-20.46,0-40.93,0-61.39,0-.81,0-.81-.82-.81-7.15,0-14.3,0-21.45,0-15.61,0-31.22.01-46.84,0-.55,0-.57.2-.57.63.01,5.93,0,11.86,0,17.8,0,28.19,0,56.39-.01,84.58,0,.44.11.53.53.53,8.1-.01,16.19-.01,24.29-.01,1.04,0,2.08.05,3.13-.14Zm4.71-7.52c.54,1.01,1.19,1.82,2.03,2.54.94.8,1.71,1.8,2.54,2.72.5.55.99,1.09,1.09,1.82.07.48.28.53.64.48,1.81-.23,3.62-.05,5.43-.1.27,0,.54-.02.81.02.7.11.72.12.68-.59-.05-.92-.22-1.84-.21-2.75.02-3.12-.1-6.24.19-9.36.17-1.88.5-3.72.89-5.56.28-1.3.73-2.54,1.13-3.8.18-.58.57-1.12.64-1.71.18-1.41.96-2.53,1.6-3.71.35-.66.67-1.33,1.11-1.96.81-1.14,1.22-2.55,2.44-3.39.09-.06.12-.19.18-.29.63-1.09,1.58-1.91,2.46-2.77.76-.74,1.55-1.47,2.47-2.03.3-.18.31-.69.59-.75.8-.16,1.18-.9,1.88-1.22,1.16-.53,2-1.65,3.33-1.91.03,0,.08-.03.09-.06.18-.44.59-.57.98-.72.21-.08.27-.27.27-.47,0-.22-.22-.16-.33-.24-.44-.32-.9-.09-1.34-.09-2.28.03-4.55,0-6.84.29-1.54.19-3.03.62-4.56.78-1.03.11-1.89.71-2.89.85-.94.14-1.61,1-2.61.93-.17-.01-.37,0-.5.1-1,.67-2.13,1.08-3.16,1.67-.73.42-1.39.95-2.09,1.36-.85.5-1.63,1.09-2.41,1.65-1.35.96-2.52,2.15-3.85,3.15-.73.55-1.27,1.37-1.97,2.01-.58.54-1.05,1.2-1.64,1.75-.45.42-.64,1.03-1.1,1.47-.62.6-1.13,1.3-1.69,1.96-.19.22-.49.43-.53.67-.11.8-.79,1.15-1.22,1.7-.24.3-.63.25-.91.12-.24-.11-.13-.46-.1-.69.03-.2.13-.41.25-.58.53-.71,1.05-1.41,1.63-2.08.69-.8,1.19-1.78,1.95-2.55.09-.09.11-.25.26-.29.51-.12.79-.59,1.05-.93.94-1.27,1.88-2.52,3.26-3.36.47-.29.58-.92,1.07-1.17,1.42-.73,2.33-2.16,3.82-2.79.05-.02.12-.05.14-.1.33-.72,1.09-.97,1.67-1.28,1.38-.72,2.64-1.66,4.08-2.26.86-.36,1.67-.81,2.57-1.08,1.27-.39,2.48-.96,3.75-1.31.8-.22,1.65-.34,2.47-.53,2.67-.59,5.39-.77,8.12-.84.71-.02,1.41.14,2.12,0,.13-.02.29.04.35-.13.06-.17-.05-.29-.15-.41-.27-.29-.58-.54-.79-.86-.44-.66-.92-1.3-1.5-1.82-1.05-.94-2.04-1.94-3.1-2.85-.56-.48-1.17-1.12-2.09-.77-.34.13-.67.27-1.02.37-.51.15-1.04.1-1.52.26-1.04.34-1.98.91-3.04,1.23-.83.25-1.55.82-2.36,1.09-1.13.38-2.08,1.04-3.06,1.66-1.07.67-2.17,1.3-3.29,1.84-1.14.55-2.04,1.41-3.12,2.03-.71.41-1.16,1.24-1.93,1.52-.66.24-.93.81-1.38,1.21-.34.3-.67.62-1.03.9-.89.71-1.2,1.97-2.3,2.49-.01,0-.01.03-.02.05-.18.55-.55.95-.93,1.37-.66.72-1.12,1.56-1.58,2.43-.94,1.82-2.17,3.49-2.96,5.39-.22.53-.52,1.01-.78,1.52-.21.41-.33.88-.46,1.33-.29.95-.86,1.81-1.03,2.81-.18,1.06-.65,2.04-.9,3.09-.1.41-.15.88.37,1,1.26.29,2.24,1.11,3.34,1.69,1.35.72,2.58,1.65,3.87,2.49.11.07.24.13.33.22.51.53,1.09.96,1.79,1.21.37.13.75.27,1.03.61.45.55.91,1.06,1.53,1.49.99.69,1.78,1.69,2.67,2.53.55.52.74,1.19.94,1.88.21.74-.5,1.64-1.25,1.57-.6-.05-1.19-.23-1.64-.62-.61-.52-1.48-.6-1.99-1.24-.33-.41-.98-.17-1.25-.6-.33-.53-.8-.68-1.45-.69Zm37-8.47c0-4.52,0-9.04,0-13.56,0-.89.12-1.81-.24-2.67-.21-.5.03-1.06-.17-1.54-.35-.86-.39-1.79-.58-2.68-.22-.98-.72-1.84-.9-2.81-.14-.72-.7-1.27-.81-2.01-.04-.28-.28-.4-.53-.28-.9.44-1.77.92-2.68,1.35-.31.14-.31.51-.68.64-.52.18-.97.57-1.46.85-.21.12-.2.38-.44.5-1.54.81-2.89,1.93-3.99,3.23-.92,1.08-1.88,2.15-2.8,3.23-.81.95-1.36,2.05-2.07,3.05-.64.91-1.13,1.94-1.57,2.98-.16.38-.3.85-.54,1.1-.38.39-.57.86-.66,1.29-.32,1.47-1.05,2.81-1.3,4.32-.11.64-.34,1.32-.46,1.99-.28,1.45-.39,2.93-.57,4.4-.11.89-.19,1.79-.22,2.67-.1,2.37-.11,4.75.08,7.11.06.75.15,1.49.24,2.23.05.43.18.68.75.68,6.82-.03,13.64-.02,20.46-.02q1.16,0,1.16-1.14c0-4.97,0-9.93,0-14.9Zm-33.31-80.43c-.89,0-1.51-.06-2.12.02-.61.07-1.33-.13-1.8.23-.91.7-1.73,1.54-2.14,2.67-.08.23-.09.43.24.44,1.13.03,2.24.15,3.35.45.92.24,1.86.32,2.68.9.37.26.68.63,1.08.81.92.42,1.54,1.21,2.13,1.93.58.71,1,1.61,1.48,2.41.95,1.56.99,3.37,1.69,4.99.22.52.31,1.2.32,1.79.03,1.57.39,3.1.49,4.66.15,2.32.36,4.64.37,6.96.04,4.77.11,9.54-.08,14.3-.03.64.02,1.28-.09,1.93-.2,1.23-.35,2.46.17,3.67.09.21.14.3.34.19.43-.25.92-.33,1.37-.5.76-.29,1.37-.9,2.17-1.09.78-.19,1.47-.52,2.07-1.06.08-.07.2-.14.31-.14.66.02,1.22-.35,1.77-.6,1.28-.58,2.62-.92,3.97-1.26.2-.05.37-.1.23-.32-.32-.51-.58-1.14-1.04-1.48-.6-.43-1.05-.91-1.35-1.55-.36-.78-1.15-1.25-1.44-2.13-.12-.38-.2-.86-.51-1.18-.29-.3-.35-.67-.35-1.07,0-.64-.02-1.28,0-1.91.06-1.68.04-3.37-.16-5.03-.28-2.27-.14-4.56-.48-6.84-.19-1.25-.18-2.55-.46-3.8-.07-.32,0-.67-.12-.97-.25-.63-.3-1.31-.36-1.95-.09-.95-.29-1.85-.64-2.72-.26-.64-.22-1.32-.45-1.96-.3-.82-.55-1.67-.92-2.46-.48-1.02-.65-2.24-1.45-3.03-.63-.63-1.02-1.44-1.74-2-.69-.54-1.25-1.23-2.04-1.67-1.19-.65-2.39-1.25-3.73-1.51-1.01-.2-2.03-.17-2.78-.16Zm-13.74,9.09c-.45.39-.39.83-.63,1.11-.46.55-.5,1.3-.89,1.88-.26.4-.16.91-.29,1.36-.4,1.35-.69,2.74-.88,4.14-.15,1.13-.11,2.29-.38,3.41-.34,1.42-.34,2.88-.4,4.32-.12,2.8-.03,5.6-.04,8.4,0,.52,0,1.04.11,1.55.15.72-.12,1.45.03,2.16.36,1.72.29,3.48.55,5.2.15,1,.24,2,.35,3.01.02.22.18.39.31.21.31-.41.85-.69,1.02-1.09.43-1.07,1.34-1.72,2.02-2.55.6-.73,1.39-1.3,2.04-2,.7-.76,1.56-1.32,2.44-1.82.55-.31,1.19-.45,1.53-1.05,1.21-.18.72-1.09.57-1.64-.28-1.09-.03-2.52-1.56-2.99-.15-.05-.29-.19-.49-.24-.36-.09-.71-.34-.78-.67-.08-.37-.28-.67-.52-.79-.6-.3-.88-.87-1.32-1.31-1.2-1.2-1.88-2.67-2.28-4.29-.33-1.36-.71-2.71-.78-4.12-.05-1.12-.11-2.24-.07-3.35.03-.99-.08-1.95-.12-2.92-.06-1.4-.23-2.82.13-4.2.14-.53.13-1.05.31-1.72Zm6.56-7.33c.02-.21-.15-.32-.27-.23-.49.37-1.24.28-1.59.89-.1.17-.16.35-.35.49-.46.33-.85.74-1.26,1.13-.1.1-.23.26-.13.4.1.14.27.05.42,0,.39-.12.64-.62,1.03-.58.56.06.89-.52,1.44-.41.05,0,.15-.08.16-.14.08-.55.37-1.03.55-1.56Z"/>
        <path class="cls-5" d="m191.35,131.46c.66.02,1.12.16,1.45.69.27.43.92.19,1.25.6.51.65,1.38.72,1.99,1.24.45.39,1.04.57,1.64.62.75.07,1.47-.83,1.25-1.57-.2-.68-.39-1.36-.94-1.88-.89-.85-1.67-1.84-2.67-2.53-.62-.43-1.07-.94-1.53-1.49-.28-.34-.66-.47-1.03-.61-.7-.25-1.28-.67-1.79-1.21-.09-.09-.22-.15-.33-.22-1.28-.84-2.52-1.77-3.87-2.49-1.09-.59-2.08-1.41-3.34-1.69-.52-.12-.47-.59-.37-1,.25-1.04.72-2.02.9-3.09.17-1,.74-1.85,1.03-2.81.14-.45.25-.92.46-1.33.26-.51.56-.99.78-1.52.8-1.9,2.02-3.57,2.96-5.39.45-.88.92-1.71,1.58-2.43.38-.42.75-.82.93-1.37,0-.02,0-.05.02-.05,1.11-.52,1.41-1.78,2.3-2.49.36-.28.68-.6,1.03-.9.46-.4.72-.97,1.38-1.21.77-.28,1.21-1.11,1.93-1.52,1.08-.62,1.97-1.48,3.12-2.03,1.12-.54,2.23-1.17,3.29-1.84.98-.61,1.93-1.28,3.06-1.66.81-.27,1.52-.84,2.36-1.09,1.06-.31,2.01-.89,3.04-1.23.47-.16,1.01-.11,1.52-.26.35-.1.68-.24,1.02-.37.92-.35,1.53.3,2.09.77,1.06.91,2.05,1.91,3.1,2.85.58.52,1.07,1.16,1.5,1.82.21.32.53.58.79.86.11.11.21.24.15.41-.06.17-.23.1-.35.13-.71.14-1.41-.02-2.12,0-2.73.07-5.45.25-8.12.84-.82.18-1.67.3-2.47.53-1.27.36-2.49.92-3.75,1.31-.9.28-1.71.73-2.57,1.08-1.44.6-2.7,1.54-4.08,2.26-.58.3-1.34.56-1.67,1.28-.02.05-.09.08-.14.1-1.49.63-2.4,2.05-3.82,2.79-.49.25-.6.88-1.07,1.17-1.38.84-2.32,2.09-3.26,3.36-.25.34-.53.81-1.05.93-.15.04-.17.2-.26.29-.75.77-1.25,1.75-1.95,2.55-.58.67-1.1,1.38-1.63,2.08-.12.17-.22.38-.25.58-.03.23-.14.58.1.69.28.13.67.18.91-.12.43-.55,1.11-.89,1.22-1.7.03-.24.34-.45.53-.67.56-.66,1.07-1.36,1.69-1.96.46-.44.65-1.05,1.1-1.47.59-.55,1.05-1.21,1.64-1.75.69-.64,1.24-1.46,1.97-2.01,1.33-1,2.5-2.19,3.85-3.15.79-.56,1.56-1.15,2.41-1.65.71-.41,1.37-.95,2.09-1.36,1.04-.59,2.17-1,3.16-1.67.13-.09.34-.11.5-.1,1,.07,1.67-.79,2.61-.93.99-.15,1.86-.74,2.89-.85,1.53-.17,3.02-.59,4.56-.78,2.28-.29,4.56-.26,6.84-.29.44,0,.91-.23,1.34.09.11.08.33.02.33.24,0,.2-.06.39-.27.47-.39.15-.8.28-.98.72-.01.03-.06.06-.09.06-1.33.26-2.17,1.37-3.33,1.91-.69.32-1.07,1.06-1.88,1.22-.28.06-.3.57-.59.75-.92.56-1.71,1.29-2.47,2.03-.88.86-1.83,1.68-2.46,2.77-.06.1-.09.23-.18.29-1.22.84-1.64,2.26-2.44,3.39-.44.63-.76,1.3-1.11,1.96-.64,1.18-1.42,2.3-1.6,3.71-.08.59-.46,1.13-.64,1.71-.4,1.26-.85,2.5-1.13,3.8-.4,1.84-.72,3.67-.89,5.56-.29,3.12-.17,6.24-.19,9.36,0,.92.16,1.83.21,2.75.04.71.02.7-.68.59-.26-.04-.54-.03-.81-.02-1.81.05-3.63-.12-5.43.1-.36.04-.57,0-.64-.48-.1-.73-.59-1.27-1.09-1.82-.83-.92-1.6-1.92-2.54-2.72-.84-.72-1.49-1.53-2.03-2.54Z"/>
        <path class="cls-5" d="m228.35,122.98c0,4.97,0,9.93,0,14.9q0,1.14-1.16,1.14c-6.82,0-13.64-.01-20.46.02-.57,0-.7-.25-.75-.68-.09-.74-.18-1.49-.24-2.23-.19-2.37-.18-4.75-.08-7.11.04-.88.12-1.78.22-2.67.18-1.46.29-2.95.57-4.4.13-.66.36-1.34.46-1.99.25-1.51.98-2.85,1.3-4.32.09-.43.28-.9.66-1.29.24-.25.38-.72.54-1.1.44-1.04.93-2.07,1.57-2.98.71-1,1.26-2.1,2.07-3.05.92-1.08,1.88-2.15,2.8-3.23,1.1-1.3,2.45-2.41,3.99-3.23.24-.13.22-.38.44-.5.49-.28.94-.67,1.46-.85.37-.13.37-.5.68-.64.91-.42,1.78-.91,2.68-1.35.25-.12.49,0,.53.28.1.74.67,1.3.81,2.01.19.97.69,1.83.9,2.81.2.89.23,1.82.58,2.68.2.48-.03,1.04.17,1.54.36.87.23,1.78.24,2.67,0,4.52,0,9.04,0,13.56Z"/>
        <path class="cls-5" d="m195.04,42.55c.75,0,1.77-.04,2.78.16,1.34.26,2.55.86,3.73,1.51.79.44,1.35,1.13,2.04,1.67.72.56,1.11,1.37,1.74,2,.8.79.97,2.01,1.45,3.03.37.79.62,1.64.92,2.46.23.63.19,1.32.45,1.96.35.87.55,1.77.64,2.72.06.64.11,1.32.36,1.95.12.29.05.65.12.97.28,1.26.27,2.55.46,3.8.34,2.27.2,4.56.48,6.84.2,1.66.22,3.35.16,5.03-.02.64,0,1.28,0,1.91,0,.4.06.76.35,1.07.31.33.39.81.51,1.18.28.88,1.07,1.35,1.44,2.13.3.64.75,1.12,1.35,1.55.46.33.72.96,1.04,1.48.14.22-.03.27-.23.32-1.35.34-2.69.68-3.97,1.26-.55.25-1.11.62-1.77.6-.1,0-.23.06-.31.14-.6.54-1.29.88-2.07,1.06-.81.19-1.42.8-2.17,1.09-.45.17-.94.25-1.37.5-.2.12-.25.03-.34-.19-.53-1.21-.38-2.45-.17-3.67.11-.65.06-1.29.09-1.93.19-4.77.12-9.54.08-14.3-.02-2.32-.22-4.64-.37-6.96-.1-1.56-.46-3.09-.49-4.66-.01-.59-.1-1.28-.32-1.79-.69-1.62-.74-3.44-1.69-4.99-.49-.8-.91-1.7-1.48-2.41-.59-.72-1.21-1.51-2.13-1.93-.4-.18-.71-.55-1.08-.81-.82-.58-1.77-.66-2.68-.9-1.1-.3-2.22-.41-3.35-.45-.33-.01-.32-.21-.24-.44.41-1.13,1.23-1.97,2.14-2.67.46-.36,1.19-.16,1.8-.23.61-.07,1.23-.02,2.12-.02Z"/>
        <path class="cls-5" d="m170.49,129.03c-.09.51-.11,1.02.09,1.52.08.2,0,.45-.14.53-.49.28-.99.61-1.52.72-.54.11-1.18.18-1.64-.31-.5-.53-1.09-.97-1.34-1.73-.14-.42-.53-.72-.72-1.15-.37-.83-.55-1.7-.8-2.56-.22-.75-.29-1.52-.56-2.27-.2-.56-.18-1.21-.19-1.82-.03-1.41-.04-2.82,0-4.23.05-1.61.21-3.21.47-4.8.24-1.46.47-2.94.96-4.32.36-1.01.6-2.07,1.12-3.05.31-.57.4-1.3.61-1.96.16-.51.57-.88.67-1.41.05-.25.19-.47.12-.77-.07-.32.39-.04.49-.43.22-.88.53-1.77,1.11-2.49.65-.8,1.05-1.75,1.71-2.54.46-.55.69-1.31,1.02-1.98.06-.12.08-.27.17-.36.89-.94,1.52-2.06,2.33-3.05.69-.85,1.3-1.76,2.25-2.36.16-.1.28-.26.28-.48,0-.11,0-.25.15-.27.2-.03.19.15.24.27.02.05.06.11.06.16.03,1.16.4,2.3.25,3.47,0,.06.02.15-.01.17-.68.39-.43,1.23-.89,1.8-.72.89-1,2.06-1.04,3.2-.02.47-.34.74-.39,1.15-.16,1.2-.36,2.39-.57,3.58-.52,2.97-.52,5.97-.44,8.96.03,1.17.06,2.35.21,3.51.14,1.06.36,2.12.56,3.17.08.4.17.79.11,1.2-.67.21-1.05.76-1.49,1.25-.12.1-.36.06-.35.3-.21.1-.25.28-.23.49-.49.2-.56.82-1.03,1.04-.23.08-.26.25-.23.46-.02.04-.04.08-.06.12-.04.01-.06.04-.05.08v.04c-.08.03-.1.06-.06.13l-.02.03c-.15-.02-.15.08-.16.19-.16.39-.33.77-.49,1.16-.09.05-.1.13-.09.22-.08.23-.17.47-.25.7-.01,0-.04.02-.04.02,0,.03.02.05.03.08-.11.76-.41,1.49-.34,2.28.06.78-.14,1.58.13,2.35Z"/>
        <path class="cls-5" d="m181.3,51.65c-.18.67-.17,1.2-.31,1.72-.36,1.38-.19,2.8-.13,4.2.04.97.15,1.93.12,2.92-.04,1.1.02,2.23.07,3.35.07,1.41.45,2.76.78,4.12.4,1.62,1.08,3.09,2.28,4.29.44.44.71,1.01,1.32,1.31.24.12.44.42.52.79.07.32.42.57.78.67.19.05.34.19.49.24,1.53.48,1.28,1.9,1.56,2.99.14.55.64,1.46-.57,1.64-.34.6-.98.74-1.53,1.05-.88.5-1.73,1.05-2.44,1.82-.65.7-1.44,1.27-2.04,2-.69.83-1.59,1.48-2.02,2.55-.16.41-.71.68-1.02,1.09-.14.18-.29.01-.31-.21-.11-1-.2-2.01-.35-3.01-.26-1.73-.19-3.48-.55-5.2-.15-.7.12-1.44-.03-2.16-.1-.51-.12-1.03-.11-1.55,0-2.8-.09-5.61.04-8.4.06-1.43.06-2.89.4-4.32.26-1.12.22-2.27.38-3.41.19-1.4.48-2.78.88-4.14.13-.45.03-.96.29-1.36.39-.59.43-1.33.89-1.88.23-.28.18-.72.63-1.11Z"/>
        <path class="cls-5" d="m187.86,44.32c-.18.53-.47,1-.55,1.56,0,.05-.12.14-.16.14-.54-.11-.87.47-1.44.41-.39-.04-.64.46-1.03.58-.15.05-.32.14-.42,0-.1-.14.03-.3.13-.4.41-.39.81-.8,1.26-1.13.2-.14.26-.32.35-.49.35-.61,1.09-.53,1.59-.89.13-.1.29.02.27.23Z"/>
        <path class="cls-10" d="m238.86,52.3c-.1-.14-.07-.3-.07-.45,0-8.17,0-16.34,0-24.5,0-.15.02-.31.03-.46.12.13.07.29.07.44,0,8.19,0,16.38,0,24.57,0,.13-.03.27-.04.4Z"/>
        <path class="cls-10" d="m238.86,94.39c-.02-.13-.06-.26-.06-.39,0-4.34,0-8.69,0-13.03,0-.13.04-.26.06-.39.02.15.05.3.05.46,0,4.3,0,8.6,0,12.9,0,.15-.03.3-.04.46Z"/>
        <path class="cls-10" d="m238.86,135.32c-.1-.14-.06-.3-.06-.45,0-3.96,0-7.92,0-11.88,0-.15-.03-.31.07-.45.02.13.04.27.04.4,0,3.99,0,7.98,0,11.98,0,.13-.03.27-.04.4Z"/>
        <path class="cls-10" d="m238.86,65.29c-.1-.14-.06-.3-.06-.45,0-3.88,0-7.76,0-11.64,0-.15-.03-.31.07-.45.01.11.04.23.04.34,0,3.95,0,7.91,0,11.86,0,.11-.03.23-.04.34Z"/>
        <path class="cls-10" d="m238.86,108.07c-.11-.16-.06-.34-.06-.51,0-3.75,0-7.49,0-11.24,0-.15-.03-.31.06-.45.02.13.04.27.04.4,0,3.8,0,7.6,0,11.4,0,.13-.03.27-.04.4Z"/>
        <path class="cls-10" d="m238.86,121.06c-.1-.14-.06-.3-.06-.45,0-3.77,0-7.53,0-11.3,0-.15-.03-.31.06-.45.02.13.04.27.04.4,0,3.8,0,7.6,0,11.4,0,.13-.03.27-.04.4Z"/>
        <path class="cls-10" d="m156.77,128.6c-.09-.14-.06-.3-.06-.45,0-3.61,0-7.22,0-10.83,0-.15-.03-.31.06-.45.02.13.05.27.05.4,0,3.64,0,7.29,0,10.93,0,.13-.03.27-.05.4Z"/>
        <path class="cls-10" d="m238.86,79.32c-.1-.14-.06-.3-.06-.45,0-3.38,0-6.76,0-10.14,0-.15-.03-.31.06-.45.02.21.04.42.04.63,0,3.28,0,6.55,0,9.83,0,.19-.03.38-.04.57Z"/>
        <path class="cls-10" d="m156.77,72.36c-.02-.13-.06-.26-.06-.39,0-3.22,0-6.45,0-9.67,0-.13.04-.26.06-.39.02.19.05.38.05.57,0,3.1,0,6.21,0,9.31,0,.19-.03.38-.05.57Z"/>
        <path class="cls-10" d="m156.77,85.46c-.02-.13-.06-.26-.06-.39,0-3.18,0-6.37,0-9.55,0-.13.04-.26.06-.39.02.21.04.42.04.63,0,3.03,0,6.05,0,9.08,0,.21-.03.42-.05.63Z"/>
        <path class="cls-10" d="m156.77,114.57c-.02-.13-.06-.26-.06-.39,0-2.99,0-5.98,0-8.97,0-.13.04-.26.06-.39.02.44.04.88.04,1.32,0,2.58,0,5.17,0,7.75,0,.23-.03.46-.05.69Z"/>
        <path class="cls-10" d="m238.86,146.22c-.02-.13-.06-.26-.06-.39,0-2.95,0-5.91,0-8.86,0-.13.04-.26.06-.39.1.42.04.84.04,1.27,0,2.58,0,5.17,0,7.75,0,.21-.03.42-.05.63Z"/>
        <path class="cls-10" d="m156.77,56.48c-.02-.13-.06-.26-.06-.39,0-2.84,0-5.67,0-8.51,0-.13.04-.26.06-.39.1.4.04.81.05,1.21,0,2.49,0,4.97,0,7.46,0,.21-.03.42-.04.63Z"/>
        <path class="cls-10" d="m156.77,98.22c-.11-.18-.06-.38-.06-.57,0-2.22,0-4.44,0-6.66,0-.19-.05-.39.06-.57.1,1.61.03,3.23.04,4.85,0,.98.06,1.96-.04,2.94Z"/>
        <path class="cls-10" d="m156.77,136.94c-.14-1.32-.03-2.65-.06-3.98,0-.38-.08-.77.06-1.14.07,1.71.07,3.41,0,5.12Z"/>
        <path class="cls-10" d="m200.32,92.87c.46-.4.78-.87.81-1.49.19.88.01,1.2-.81,1.49Z"/>
        <path class="cls-10" d="m156.77,139.96c-.12-.93-.09-1.87,0-2.8.07.93.08,1.87,0,2.8Z"/>
        <path class="cls-10" d="m194.26,137.42c.15-.04.38.05.35-.25.23.15.6.39.39.6-.18.18-.54-.11-.75-.35Z"/>
        <path class="cls-10" d="m156.77,101.35c-.1-.78-.1-1.56,0-2.34.07.78.08,1.56,0,2.34Z"/>
        <path class="cls-10" d="m156.77,58.45c-.1-.55-.1-1.09,0-1.64.07.55.08,1.09,0,1.64Z"/>
        <path class="cls-10" d="m152.65,62.38c.07-.25.22-.4.48-.42-.07.25-.25.36-.48.42Z"/>
        <path class="cls-10" d="m230.78,30.83c-.28-.02-.44-.17-.47-.45.22.08.35.26.47.45Z"/>
        <path class="cls-10" d="m184.75,146.67c-.3-.02-.44-.18-.44-.47.21.1.33.28.44.47Z"/>
        <path class="cls-10" d="m154.56,46.15c.23.19.15.33-.06.46-.02-.16-.09-.32.06-.46Z"/>
        <path class="cls-10" d="m156.78,36.88c-.11-.31-.1-.63,0-.94.08.31.07.63,0,.94Z"/>
        <path class="cls-10" d="m154.51,44.63c.19.14.26.29.05.47-.14-.14-.08-.31-.05-.47Z"/>
        <path class="cls-10" d="m156.77,130.68c-.09-.28-.1-.55,0-.83.07.28.07.55,0,.83Z"/>
        <path class="cls-10" d="m173.74,119.34c0,.08,0,.15-.01.23-.09.12-.21.1-.34.08-.01-.25.23-.21.35-.31Z"/>
        <path class="cls-10" d="m201.21,89.61c-.04-.22-.05-.45.03-.66.1.23.1.45-.03.66Z"/>
        <path class="cls-10" d="m156.77,43.72c-.09-.2-.1-.4,0-.6.06.2.07.4,0,.6Z"/>
        <path class="cls-10" d="m184.31,146.19c-.2,0-.22-.16-.26-.3.17.03.24.15.26.3Z"/>
        <path class="cls-10" d="m153.21,61.9c.02-.15.04-.3.23-.33,0,.17-.06.29-.23.33Z"/>
        <path class="cls-10" d="m232.9,99.85c.03-.11.06-.23.21-.24.01.15-.06.23-.21.24Z"/>
        <path class="cls-10" d="m238.85,66.33c-.09-.16-.09-.32,0-.48.06.16.06.32,0,.48Z"/>
        <path class="cls-10" d="m233.66,76.31c-.13-.03-.2-.12-.21-.25.12.04.19.12.21.25Z"/>
        <path class="cls-10" d="m230.31,30.38c-.15,0-.21-.1-.21-.24.12.03.18.12.21.24Z"/>
        <path class="cls-10" d="m229.97,30.02c-.15-.01-.19-.11-.19-.24.11.05.17.13.19.24Z"/>
        <path class="cls-10" d="m238.86,95.32c-.09-.12-.09-.25,0-.37.06.12.06.25,0,.37Z"/>
        <path class="cls-10" d="m148.26,147.7c.3.1.05.18,0,.26,0-.09,0-.18,0-.26Z"/>
        <path class="cls-10" d="m238.81,148.31c-.03-.13-.05-.25.04-.37.06.13.08.26-.04.37Z"/>
        <path class="cls-10" d="m148.25,148.16c.08-.02.16-.05.23-.07-.01.09-.02.18-.13.2-.1.02-.1-.06-.11-.13Z"/>
        <path class="cls-10" d="m237.38,149.14s.07-.08.1-.12c.07.01.11.07.08.12-.05.08-.12.07-.18,0Z"/>
        <path class="cls-10" d="m156.77,44.42c-.09-.12-.09-.25,0-.37.06.12.06.25,0,.37Z"/>
        <path class="cls-10" d="m238.85,146.8c-.07-.09-.07-.18,0-.26,0,.09,0,.17,0,.26Z"/>
        <path class="cls-10" d="m184.89,146.87c-.08-.04-.13-.1-.13-.19.12.01.13.1.13.19Z"/>
        <path class="cls-10" d="m234.01,76.66c-.1,0-.16-.05-.17-.16.1,0,.16.06.17.16Z"/>
        <path class="cls-10" d="m233.24,99.37c-.02-.1.01-.17.13-.18,0,.09-.04.15-.13.18Z"/>
        <path class="cls-10" d="m230.91,31.05c-.04-.07-.08-.14-.12-.2.11.03.12.11.12.2Z"/>
        <path class="cls-10" d="m156.77,42.79c-.08-.08-.08-.17,0-.25,0,.08,0,.17,0,.25Z"/>
        <path class="cls-10" d="m156.77,104.6c-.08-.08-.08-.17,0-.25,0,.08,0,.17,0,.25Z"/>
        <path class="cls-10" d="m156.77,60.19c-.08-.08-.08-.17,0-.25,0,.08,0,.17,0,.25Z"/>
        <path class="cls-10" d="m233.11,99.6c-.01-.07.02-.11.08-.13-.03.04-.06.09-.08.13Z"/>
        <path class="cls-10" d="m154.47,44.34s.04.02.06.04c-.01,0-.02.02-.03.03-.03-.01-.04-.03-.03-.06Z"/>
        <path class="cls-10" d="m158.09,141.01c-.04.05-.08.05-.12,0,.04,0,.08,0,.12,0Z"/>
        <path class="cls-10" d="m148.23,32.23s0,.08,0,.12c-.03-.01-.05-.03-.08-.04.03-.03.05-.05.08-.08Z"/>
        <path class="cls-10" d="m190.2,76.14s-.08,0-.11,0c.04-.06.07-.05.11,0Z"/>
        <path class="cls-10" d="m191.36,76.11c-.03.06-.06.06-.1,0,.03-.03.07-.04.1,0Z"/>
        <path class="cls-10" d="m234.38,76.98c-.08,0-.11-.03-.12-.11.07,0,.12.03.12.11Z"/>
        <path class="cls-10" d="m156.76,115.15c-.06-.05-.06-.1,0-.14,0,.05,0,.1,0,.14Z"/>
        <path class="cls-10" d="m234.72,77.34c-.06-.02-.11-.06-.09-.13.07.01.11.05.09.13Z"/>
        <path class="cls-10" d="m238.65,148.34s.1,0,.15-.01c-.03.03-.06.06-.09.09-.02-.03-.04-.05-.06-.08Z"/>
        <path class="cls-9" d="m196.18,59.84c-.63-.35-1.33-.08-2.07.23-.63.26-1.16-.08-1.37-.74-.11-.34-.27-.48-.62-.29-.39.21-.76.45-1.12.71-.38.27-.8.4-1.13-.06-.31-.42-.07-.75.26-1.03,1.2-1.03,2.52-1.51,4.12-1.07.52.14,1.02.29,1.49.54.37.2.77.23,1.17.19.37-.03.74.06.78.41.05.39-.04.83-.55,1-.26.09-.52.1-.94.11Z"/>
        <path class="cls-9" d="m188.01,70.76c-.41,0-.78-.14-1.15-.3-.47-.2-.53-.66-.38-.98.14-.3.5-.47.97-.29.95.36,1.93.38,2.9.01.23-.09.47-.13.72-.17.39-.07.78-.12.96.36.13.37-.13.82-.57.98-1.08.37-2.18.56-3.33.41-.04,0-.08-.01-.12-.02Z"/>
        <path class="cls-10" d="m188.01,70.76s.08.01.12.02c-.05.05-.09.04-.12-.02Z"/>
        <path class="cls-9" d="m172.13,121.18c.02.2-.03.37-.23.46-.03-.21,0-.38.23-.46Z"/>
        <path class="cls-9" d="m171.06,123.38c.04.1.03.18-.09.22-.01-.09,0-.17.09-.22Z"/>
        <path class="cls-9" d="m171.7,122.04c-.02.08-.03.19-.16.19,0-.1,0-.21.16-.19Z"/>
        <path class="cls-9" d="m171.83,121.76c.02.05,0,.08-.05.08,0-.04.01-.07.05-.08Z"/>
        <path class="cls-9" d="m171.77,121.88s-.03.08-.04.13c-.04-.06-.02-.1.04-.13Z"/>
        <path class="cls-9" d="m170.72,124.3s0,.07-.02.1c0-.03-.02-.05-.03-.08,0,0,.03-.01.04-.02Z"/>
        <g>
          <polygon class="cls-2" points="230.33 34.86 156.77 34.86 145.86 22.63 176.17 22.63 241.08 22.63 230.33 34.86"/>
          <path class="cls-9" d="m230.33,35.36h-73.56c-.14,0-.28-.06-.37-.17l-10.91-12.23c-.13-.15-.16-.36-.08-.54s.26-.3.46-.3h95.23c.2,0,.37.11.46.29s.05.39-.08.54l-10.75,12.23c-.09.11-.23.17-.38.17Zm-73.34-1h73.11l9.87-11.23h-93l10.02,11.23Z"/>
        </g>
        <g>
          <polygon class="cls-2" points="157.22 35.17 157.22 141.13 144.99 152.04 145.86 22.63 157.22 35.17"/>
          <path class="cls-9" d="m144.99,152.54c-.07,0-.14-.01-.21-.04-.18-.08-.3-.26-.29-.46l.87-129.41c0-.21.13-.39.32-.46.19-.07.41-.02.55.13l11.36,12.54c.08.09.13.21.13.34v105.96c0,.14-.06.28-.17.37l-12.23,10.91c-.09.08-.21.13-.33.13Zm1.36-128.62l-.85,127,11.22-10.01V35.36l-10.37-11.44Z"/>
        </g>
        <g>
          <g>
            <polygon class="cls-2" points="157.45 141.23 231.01 141.23 241.93 153.45 144.99 152.04 157.45 141.23"/>
            <path class="cls-9" d="m241.93,153.95h0l-96.94-1.41c-.21,0-.39-.13-.46-.33-.07-.19-.01-.41.14-.55l12.46-10.81c.09-.08.21-.12.33-.12h73.56c.14,0,.28.06.37.17l10.91,12.23c.13.15.16.36.08.54-.08.18-.26.29-.45.29Zm-95.62-2.39l94.49,1.38-10.01-11.21h-73.15l-11.33,9.83Z"/>
          </g>
          <g>
            <polygon class="cls-2" points="230.57 140.91 230.57 34.96 241.08 22.63 241.93 153.45 230.57 140.91"/>
            <path class="cls-9" d="m241.93,153.95c-.14,0-.27-.06-.37-.16l-11.36-12.54c-.08-.09-.13-.21-.13-.34V34.96c0-.12.04-.23.12-.32l10.52-12.33c.14-.16.36-.22.55-.15.2.07.33.26.33.47l.85,130.82c0,.21-.13.39-.32.47-.06.02-.12.03-.18.03Zm-10.86-13.23l10.35,11.43-.83-128.17-9.52,11.16v105.58Z"/>
          </g>
        </g>
      </g>
      <g>
        <path class="cls-10" d="m158.68,138.61c0,.44.11.53.53.53,8.1-.01,16.19-.01,24.29-.01,1.04,0,2.08.05,3.13-.14-1.63-.46-2.95-1.41-4.14-2.54-2.18-2.08-3.93-4.49-5.47-7.07-.11-.18-.19-.4-.48-.27-1.11.51-2.27.83-3.5.89-.19,0-.36.05-.48.26-.49.87-1.1,1.62-1.95,2.2-1.71,1.17-2.84.89-4.15.04-.97-.63-1.61-1.61-2.12-2.63-1.37-2.73-1.92-5.67-2.05-8.7-.16-3.67.15-7.3,1.05-10.88.55-2.18,1.12-4.35,1.95-6.44.67-1.7,1.38-3.38,2.25-5,.89-1.64,1.79-3.27,2.81-4.84,1.21-1.86,2.51-3.65,3.93-5.35.73-.87,1.53-1.68,2.28-2.54.25-.29.57-.59.5-1-.11-.65,0-1.31-.11-1.95-.36-2.1-.33-4.23-.47-6.35-.1-1.5-.1-3.04-.09-4.56,0-1.45.11-2.9.09-4.34-.01-.88,0-1.76.06-2.63h-17.86c0,24.44,0,48.88-.01,73.32Z"/>
        <path class="cls-10" d="m211.52,70.81c.1,2.41.29,4.82.24,7.23-.02.75.29,1.4.59,2.03.57,1.16,1.29,2.22,2.18,3.17,1.18,1.28,2.35,2.57,3.74,3.6,1.4,1.03,2.75,2.13,3.95,3.38,1.17,1.22,2.18,2.59,3.07,4.03.71,1.14,1.34,2.31,1.83,3.57.39.99.79,1.97,1.18,2.96.05-1,.05-1.98.05-2.97v-32.51s-17.23,0-17.23,0c.18,1.84.31,3.68.39,5.52Z"/>
        <path class="cls-3" d="m227.55,35.6c-7.15,0-14.3,0-21.45,0-15.61,0-31.22.01-46.84,0-.55,0-.57.2-.57.63.01,5.93,0,11.86,0,17.8,0,3.75,0,7.5,0,11.26h17.86c.09-1.18.34-2.34.43-3.52.1-1.38.37-2.73.66-4.06.38-1.76.87-3.49,1.54-5.19,1.28-3.23,3.01-6.09,5.72-8.33,1.25-1.03,2.65-1.73,4.13-2.31,1.07-.42,2.19-.47,3.31-.64,1.74-.27,3.46-.19,5.15.09,1.98.33,3.88.99,5.49,2.27.79.63,1.6,1.24,2.25,2.03,1.26,1.53,2.19,3.24,2.92,5.09.68,1.72,1.22,3.47,1.62,5.26.64,2.88,1,5.81,1.3,8.75.02.19.03.38.05.57h17.24c0-9.63,0-19.25,0-28.88,0-.81,0-.81-.82-.81Z"/>
      </g>
    </g>
    <path class="cls-9" d="m207.55,23.13h-25.62c-.2,0-.38-.12-.46-.3-.08-.18-.04-.4.1-.54l11.77-12.27c.19-.19.49-.21.69-.03l13.85,12.27c.16.14.21.36.14.55-.07.19-.26.32-.47.32Zm-24.45-1h23.13l-12.51-11.08-10.63,11.08Z"/>
    <circle class="cls-9" cx="193.62" cy="10.69" r="1.12"/>
  </g>
  <g>
    <g class="cls-6">
      <ellipse class="cls-7" cx="107.12" cy="198.38" rx="38.38" ry="6.2"/>
    </g>
    <path class="cls-7" d="m79.31,154.46c.16,1.25,4.31,36.7,10.35,41.67,6.04,4.97,9.21,3.29,10.43,1.98,1.29-1.39,2.91-3.87-.1-6.67-2.42-2.25-4.11-12.24-1.7-27.82l-18.98-9.14Z"/>
    <path class="cls-7" d="m102.37,152.25c.16,1.25,4.31,36.7,10.35,41.67,6.04,4.97,9.21,3.3,10.43,1.97,1.29-1.38,2.91-3.87-.1-6.67-2.42-2.26-4.12-12.24-1.7-27.82l-18.98-9.14Z"/>
    <path class="cls-7" d="m117.19,104.7c-2.76-.3-5.36,1.35-5.75,4.37-.39,3,2.49,6.56,6.35,7,10.96,1.27,21.17-2.85,28.18-11.37,2.47-2.99,2.08-7.55-.28-9.44-2.37-1.91-5.39-1.3-7.18.84-5.31,6.44-13.03,9.56-21.32,8.6Z"/>
    <path class="cls-1" d="m84.15,100.92c6.98-3.87,15.82-5.95,32.15-6.59-3.89-1.65-9.04-2.41-16.58-2.41h-.01c-12.9,0-18.87,2.2-23.36,7.31-5.3,6.04-7.98,23.3-8.52,36.74.86-12.62,5.98-29.3,16.32-35.05Z"/>
    <path class="cls-8" d="m67.82,135.97c-.12,1.85-.15,3.61-.1,5.24,0-1.65.03-3.41.1-5.24Z"/>
    <path class="cls-8" d="m56.53,157.62c-1.84,1.31-4.22,1.76-5.48.64-1.25-1.11-.87-3.93,1.18-5.97,5.54-5.53,12.82-9.25,20.84-10.44,2.99-.44,5.15,2.08,4.79,5.13-.36,3.06-2.23,5.25-4.27,5.23-5.86-.09-11.88,1.7-17.05,5.4Z"/>
    <path class="cls-1" d="m79.57,75.84c-2.07-11.47,5.99-18.18,25.97-19.38,6.34-.38,12.2-7.82,16.78-9.19,13.18-3.92,16.3,4.67,16.3,4.67h.03c-6.49-14.84-25-23.52-44.64-19.89-22.29,4.13-37.56,22.55-34.11,41.16,3.44,18.61,24.3,30.35,46.58,26.23,1.94-.36,3.83-.83,5.65-1.4v-.02c-19.38,4.99-29.81-6.94-32.56-22.17Z"/>
    <path class="cls-8" d="m140.6,58.28c-.41-2.22-1.07-4.33-1.95-6.33h-.03s-3.13-8.59-16.3-4.67c-4.58,1.36-10.44,8.81-16.78,9.19-19.97,1.2-28.04,7.9-25.97,19.38,2.75,15.23,13.19,27.16,32.56,22.17v.02c19.15-5.94,31.61-22.77,28.46-39.75Z"/>
    <path class="cls-11" d="m119.85,90.47c-4.24.96-13.27-1.18-13.31-10.35-.04-9.16,9.9-12.13,13.25-12.89,3.35-.75,13.3-2.27,13.34,6.89.04,9.17-9.03,15.39-13.28,16.35Z"/>
    <path class="cls-7" d="m120.01,69.6c1.84-.42,4.58,1.01,4.91,3.32.33,2.31-5.01,3.43-5.01,3.43l-.16.03s-5.34,1.29-5.02-1.17c.31-2.46,3.03-5.11,4.87-5.53l.4-.09Z"/>
    <path class="cls-7" d="m118.39,86.19c-.46,0-.91-.05-1.34-.15-.91-.21-1.71-.6-2.4-1.17-.69-.57-1.23-1.3-1.62-2.16-.08-.17,0-.37.17-.44.17-.08.37,0,.44.17.34.77.83,1.42,1.43,1.92.6.5,1.32.85,2.12,1.03.82.18,1.7.17,2.6-.03.91-.21,1.8-.6,2.64-1.16.81-.55,1.54-1.24,2.16-2.04.63-.81,1.12-1.7,1.45-2.64.06-.17.26-.27.43-.2.17.06.27.26.2.43-.36,1.01-.89,1.96-1.56,2.82-.67.86-1.45,1.6-2.32,2.19-.91.61-1.87,1.04-2.87,1.26-.53.12-1.05.18-1.55.18Z"/>
    <circle class="cls-7" cx="101.95" cy="68.05" r="1.68"/>
    <circle class="cls-7" cx="127.91" cy="58.86" r="1.68"/>
    <path class="cls-8" d="m85.69,77.82c1.29,6.49.27,12.15-2.27,12.66-2.54.5-5.64-4.35-6.93-10.83-1.29-6.49-.27-12.15,2.27-12.65,2.54-.51,5.64,4.34,6.93,10.82Z"/>
    <path class="cls-7" d="m81.51,71.12c-2.09.43-3.13,4.68-2.85,10.4-.19-.69-.37-1.42-.51-2.18-.98-5.1-.44-9.51,1.22-9.85.7-.15,1.5.48,2.25,1.62-.03,0-.07,0-.1,0Z"/>
    <path class="cls-11" d="m96.78,69.47c-.19,0-.35-.15-.37-.34-.06-.64.01-1.27.2-1.88.19-.61.49-1.17.89-1.67.42-.51.92-.93,1.51-1.24.59-.31,1.22-.5,1.88-.56.2-.02.38.13.4.34.02.2-.13.38-.34.4-.56.05-1.09.21-1.59.47-.5.26-.93.62-1.28,1.05-.34.42-.6.9-.76,1.42-.16.52-.22,1.06-.17,1.6.02.2-.13.38-.34.4-.01,0-.02,0-.03,0Z"/>
    <path class="cls-11" d="m132.22,56.94c-.13,0-.26-.07-.32-.19-.27-.49-.64-.92-1.08-1.26-.45-.35-.95-.6-1.48-.74-.52-.14-1.06-.18-1.6-.11-.54.07-1.05.24-1.53.5-.18.1-.4.03-.5-.14-.1-.18-.03-.41.14-.5.56-.31,1.16-.51,1.8-.59.64-.08,1.27-.04,1.89.13.63.17,1.22.46,1.75.87.52.41.95.91,1.28,1.49.1.18.04.41-.14.5-.06.03-.12.05-.18.05Z"/>
    <path class="cls-8" d="m123.07,99.24c-1.64-1.87-3.48-3.34-5.78-4.47-.32-.15-.66-.29-1-.44-2.63.1-5.05.25-7.31.43-5.56.19-9.91.82-13.44,1.93-4.56,1.06-8.17,2.45-11.39,4.24-10.35,5.75-15.47,22.43-16.32,35.05-.07,1.83-.11,3.59-.1,5.25.02,4.27.29,7.81.8,9.95.55,2.32,2.77,4.29,6.25,5.86,5.55,2.49,14.35,3.91,24.93,3.91h.01c.99,0,1.96-.02,2.92-.04.3,0,.59-.02.88-.03.67-.03,1.32-.05,1.97-.09.32-.02.64-.04.96-.05.63-.04,1.25-.09,1.86-.13.29-.03.58-.04.86-.08.74-.06,1.47-.14,2.18-.23.12-.02.25-.03.38-.04.84-.1,1.66-.22,2.45-.35.19-.03.38-.07.57-.1.59-.1,1.18-.21,1.75-.32.24-.05.47-.09.71-.15.51-.11,1.01-.22,1.5-.34.22-.06.45-.11.67-.16.53-.14,1.04-.28,1.54-.44.12-.03.24-.06.36-.1h-.02c3.41-1.06,6.05-2.4,7.73-4,.02-.02.03-.04.05-.05.31-.3.6-.62.84-.93.09-.12.15-.26.24-.39.14-.22.3-.44.41-.66.18-.36.31-.72.4-1.1,2.16-9.05.08-42.95-7.82-51.93Z"/>
    <ellipse class="cls-8" cx="99.82" cy="147.14" rx="31.69" ry="24.97"/>
    <g>
      <path class="cls-7" d="m87.84,107.92c-1.78-2.13-4.8-2.75-7.17-.85-2.37,1.89-2.76,6.44-.3,9.44,6.99,8.52,17.2,12.67,28.16,11.41,3.85-.44,6.74-3.98,6.36-6.98-.38-3.02-2.98-4.68-5.74-4.39-8.29.95-16.01-2.18-21.3-8.63Z"/>
      <path class="cls-7" d="m117.65,118.84c.74-.14,1.4-.6,1.42-1.16.02-.56-.74-1.12-1.7-1.09-2.6.05-5.16.93-7.3,2.56-.79.62-.69,1.71.12,2.33.81.62,1.77.68,2.23.18,1.33-1.42,3.15-2.45,5.22-2.83Z"/>
      <path class="cls-7" d="m118.52,123.09c.75.07,1.51-.19,1.68-.72.18-.53-.4-1.28-1.32-1.52-2.51-.67-5.22-.54-7.72.44-.93.37-1.14,1.45-.53,2.27.61.82,1.51,1.14,2.09.8,1.67-.99,3.7-1.47,5.79-1.26Z"/>
      <path class="cls-7" d="m117.17,127.32c.63.41,1.43.52,1.82.12.39-.39.22-1.32-.49-1.96-1.92-1.74-4.4-2.85-7.07-3.12-.99-.1-1.67.77-1.5,1.78.17,1.01.82,1.7,1.5,1.66,1.94-.12,3.97.37,5.74,1.52Z"/>
    </g>
    <path class="cls-7" d="m103.31,194.65c.76.22,1.59.09,1.87-.42.28-.51-.17-1.39-1.08-1.82-2.46-1.17-5.28-1.55-8.06-1.01-1.03.21-1.45,1.29-.98,2.24.47.96,1.34,1.47,2.01,1.22,1.92-.71,4.1-.83,6.23-.21Z"/>
    <path class="cls-7" d="m102.13,199.06c.67.42,1.5.52,1.92.11s.22-1.38-.53-2.05c-2.04-1.81-4.64-2.95-7.46-3.21-1.05-.09-1.75.83-1.56,1.88.19,1.06.88,1.79,1.59,1.74,2.04-.16,4.16.35,6.04,1.53Z"/>
    <path class="cls-7" d="m98.88,202.39c.4.68,1.1,1.16,1.66.98.55-.18.83-1.13.46-2.07-.99-2.54-2.79-4.74-5.18-6.25-.89-.56-1.94-.07-2.25.96-.31,1.03-.03,1.99.63,2.27,1.88.79,3.55,2.21,4.68,4.11Z"/>
    <path class="cls-7" d="m127.41,192.03c.75.21,1.59.09,1.87-.42.28-.51-.17-1.4-1.08-1.83-2.46-1.17-5.28-1.55-8.06-1.01-1.03.2-1.45,1.28-.98,2.24.47.97,1.34,1.47,2.01,1.23,1.92-.71,4.1-.83,6.23-.21Z"/>
    <path class="cls-7" d="m126.23,196.44c.67.42,1.5.53,1.91.11.42-.41.23-1.39-.53-2.05-2.04-1.81-4.65-2.96-7.46-3.21-1.05-.09-1.75.83-1.56,1.88.19,1.06.88,1.78,1.59,1.73,2.04-.15,4.17.35,6.04,1.54Z"/>
    <path class="cls-7" d="m122.97,199.77c.4.68,1.1,1.16,1.66.97.55-.18.83-1.13.46-2.07-.99-2.54-2.79-4.75-5.18-6.25-.89-.56-1.93-.06-2.24.96-.32,1.03-.03,1.99.63,2.27,1.89.8,3.55,2.21,4.68,4.11Z"/>
    <path class="cls-7" d="m146.21,91.9c.48-.64.66-1.48.27-1.93-.38-.45-1.39-.34-2.12.37-2,1.92-3.37,4.47-3.86,7.29-.18,1.06.7,1.84,1.78,1.73,1.09-.1,1.88-.74,1.88-1.47.01-2.08.7-4.19,2.05-5.99Z"/>
    <path class="cls-7" d="m149.98,94.61c.64-.48,1.04-1.24.8-1.78-.24-.55-1.24-.71-2.14-.23-2.45,1.28-4.48,3.35-5.74,5.93-.46.96.16,1.96,1.23,2.16,1.07.2,2.01-.2,2.22-.89.59-1.99,1.83-3.83,3.63-5.18Z"/>
    <path class="cls-7" d="m151.98,98.9c.78-.14,1.49-.63,1.52-1.22.03-.59-.78-1.19-1.8-1.18-2.77.03-5.51.94-7.81,2.67-.85.64-.75,1.81.11,2.48.86.67,1.88.74,2.38.22,1.43-1.5,3.37-2.58,5.6-2.97Z"/>
    <path class="cls-12" d="m146.79,100.21c-.17,0-.34-.02-.51-.05-1.46-.28-2.41-1.69-2.13-3.15l3.29-17c.28-1.46,1.7-2.41,3.15-2.13,1.46.28,2.41,1.69,2.13,3.15l-3.29,17c-.25,1.28-1.37,2.18-2.63,2.18Z"/>
    <circle class="cls-3" cx="153.5" cy="70.45" r="15.15"/>
    <path class="cls-10" d="m155.16,68.98c8.37,0,13.5-6.9,13.5,1.47s-6.78,15.15-15.15,15.15-15.15-6.78-15.15-15.15,8.44-1.47,16.81-1.47Z"/>
    <path class="cls-12" d="m153.5,87.4c-9.34,0-16.94-7.6-16.94-16.94s7.6-16.94,16.94-16.94,16.94,7.6,16.94,16.94-7.6,16.94-16.94,16.94Zm0-30.31c-7.37,0-13.36,6-13.36,13.36s6,13.36,13.36,13.36,13.36-6,13.36-13.36-6-13.36-13.36-13.36Z"/>
    <g class="cls-4">
      <path class="cls-1" d="m160.6,70.17c0,.99-.81,1.79-1.79,1.79h-3.77c-.98,0-1.79-.8-1.79-1.79v-3.77c0-.98.81-1.79,1.79-1.79h3.77c.99,0,1.79.8,1.79,1.79v3.77Z"/>
    </g>
  </g>
</svg>