<?xml version="1.0" encoding="UTF-8"?>
<svg id="Layer_1" data-name="Layer 1" xmlns="http://www.w3.org/2000/svg" width="300" height="225" viewBox="0 0 300 225">
  <defs>
    <style>
      .cls-1 {
        fill: #262626;
      }

      .cls-2 {
        fill: #fff;
      }

      .cls-3 {
        fill: #23140a;
      }

      .cls-4 {
        opacity: .2;
      }

      .cls-5 {
        fill: #d0dae3;
      }

      .cls-6 {
        isolation: isolate;
        opacity: .35;
      }

      .cls-7 {
        fill: #232323;
      }

      .cls-8 {
        fill: #3a393e;
      }

      .cls-9 {
        fill: #444;
      }

      .cls-10 {
        fill: #7f7f7f;
      }

      .cls-11 {
        fill: #e7ecf0;
      }
    </style>
  </defs>
  <g>
    <g class="cls-6">
      <ellipse class="cls-7" cx="145.47" cy="191.97" rx="44.5" ry="7.2"/>
    </g>
    <g>
      <g>
        <g>
          <path class="cls-7" d="m148.22,148.73c.2,1.3,4.3,37.5,10.5,42.6,6.2,5.1,9.4,3.4,10.7,2,1.3-1.4,3-3.9-.1-6.8-2.5-2.3-4.2-12.5-1.7-28.4l-19.4-9.4Z"/>
          <g>
            <path class="cls-7" d="m173.72,189.43c.8.2,1.6.1,1.9-.4.3-.5-.2-1.4-1.1-1.9-2.5-1.2-5.4-1.6-8.2-1.1-1.1.2-1.5,1.3-1,2.3s1.4,1.5,2.1,1.3c1.9-.7,4.1-.8,6.3-.2Z"/>
            <path class="cls-7" d="m172.52,193.93c.7.4,1.5.5,2,.1.4-.4.2-1.4-.5-2.1-2.1-1.9-4.7-3-7.6-3.3-1.1-.1-1.8.8-1.6,1.9.2,1.1.9,1.8,1.6,1.8,2-.1,4.2.4,6.1,1.6Z"/>
            <path class="cls-7" d="m169.12,197.33c.4.7,1.1,1.2,1.7,1,.6-.2.9-1.2.5-2.1-1-2.6-2.8-4.9-5.3-6.4-.9-.6-2-.1-2.3,1-.3,1,0,2,.6,2.3,2,.8,3.7,2.3,4.8,4.2Z"/>
          </g>
        </g>
        <g>
          <path class="cls-7" d="m144.42,148.43c-.2,1.3-4.5,37.5-10.6,42.5-6.2,5.1-9.4,3.3-10.7,2-1.3-1.4-3-4,.1-6.8,2.5-2.3,4.2-12.5,1.8-28.4l19.4-9.3Z"/>
          <g>
            <path class="cls-7" d="m119.82,189.43c-.8.2-1.6.1-1.9-.4s.2-1.4,1.1-1.9c2.5-1.2,5.4-1.6,8.2-1,1.1.2,1.5,1.3,1,2.3s-1.4,1.5-2.1,1.2c-1.9-.7-4.1-.8-6.3-.2Z"/>
            <path class="cls-7" d="m121.02,193.93c-.7.4-1.5.5-2,.1-.4-.4-.2-1.4.5-2.1,2.1-1.8,4.8-3,7.6-3.3,1.1-.1,1.8.9,1.6,1.9-.2,1.1-.9,1.8-1.6,1.8-2-.1-4.2.4-6.1,1.6Z"/>
            <path class="cls-7" d="m124.42,197.33c-.4.7-1.1,1.2-1.7,1s-.8-1.2-.5-2.1c1-2.6,2.9-4.8,5.3-6.4.9-.6,2-.1,2.3,1,.3,1,0,2-.6,2.3-2,.8-3.7,2.3-4.8,4.2Z"/>
          </g>
        </g>
      </g>
      <path class="cls-9" d="m179.22,129.63c-1.3-12.5-6.5-27.7-16.4-33.2-4.2-2.4-9.1-4.1-15.9-5.2-1.6.3-3.1.6-4.5.9-.2.1-.5.1-.7.2-.4.1-.8.2-1.2.3-.3.1-.5.1-.8.2-.4.1-.8.2-1.2.4-.2.1-.4.1-.6.2-.6.2-1.1.4-1.7.6-.2.1-.3.1-.5.2-.4.2-.8.3-1.2.5-.2.1-.4.2-.5.2-.4.2-.7.3-1.1.5-.2.1-.3.1-.5.2-.5.2-1,.5-1.5.8-10.6,5.9-15.8,22.9-16.7,35.8-.1,1.9-.1,3.7-.1,5.4,0,4.4.3,8,.8,10.2,0,.1.1.2.1.3,2.6,12,15.9,21.1,31.8,21.1,17.9,0,32.4-11.4,32.4-25.4v-.4c.3-3.8.3-8.6,0-13.8Z"/>
      <path class="cls-2" d="m170.82,94.63c-4.1-4.7-9.4-7-19.9-7.4h-6c-.7,0-1.3,0-1.9.1h-.2c-10.5.4-15.8,2.7-19.9,7.3-5.4,6.2-8.2,23.8-8.8,37.5.9-12.9,6.2-29.9,16.7-35.8,4.2-2.3,9.2-4,15.9-5.1,6.8,1.1,11.7,2.9,15.9,5.2,10.6,5.9,15.8,22.9,16.6,35.8-.3-13.8-3-31.4-8.4-37.6Z"/>
      <path class="cls-2" d="m146.72,45.93c-5.8,0-12.5-2.3-16.3-3.3-4.5-1.1-6.6-1.2-9.9-1.2-10,0-13.1,5.2-13.9,7.4,6.6-20.2,27.4-23.1,39.8-23h1c12.3,0,33.2,2.9,39.7,23.2-.8-2.1-3.9-7.4-13.9-7.4-3.3,0-5.4,0-9.9,1.1-3.8,1-10.6,3.2-16.3,3.2h-.3Z"/>
      <path class="cls-9" d="m187.02,49.03h0c-.8-2.2-3.9-7.4-13.9-7.4-3.3,0-5.4,0-9.9,1.1-3.8,1-10.6,3.2-16.3,3.2h-.2c-5.8,0-12.5-2.3-16.3-3.3-4.5-1.1-6.6-1.2-9.9-1.2-10,0-13.1,5.2-13.9,7.4h0c-2.1,2-3.5,7.3-3.4,13.6.2,7.9,2.9,14.2,6,14.1h.2c7.2,14.5,26.9,21.2,37.2,21.2s30.2-6.6,37.5-21.1h.2c3.1.1,5.8-6.2,6.1-14.1.1-6.2-1.3-11.5-3.4-13.5Z"/>
      <path class="cls-10" d="m146.72,87.33c-5.2,0-16.3-4.9-16.3-15.5s12.3-11.4,16.4-11.4,16.4.9,16.3,11.5c0,10.6-11.2,15.4-16.4,15.4Z"/>
      <path class="cls-7" d="m147.02,63.13c2.3,0,5.6,2.4,6,5.1.4,2.8-6.2,2.7-6.2,2.7h-.2s-6.6.1-6.2-2.7c.4-2.8,3.8-5.1,6-5.1h.6Z"/>
      <g>
        <circle class="cls-7" cx="130.02" cy="55.03" r="2"/>
        <path class="cls-7" d="m165.52,55.13c0,1.1-.9,2-2,2s-2-.9-2-2,.9-2,2-2,2,.9,2,2Z"/>
      </g>
      <path class="cls-7" d="m182.72,53.53c2.5.1,4.6,4.9,5.4,11.7.1-.9.2-1.7.2-2.7.2-6.2-1.3-11.3-3.4-11.4-.9,0-1.7.9-2.3,2.3,0,.1.1.1.1.1Z"/>
      <path class="cls-7" d="m110.82,53.33c-2.5.1-4.6,4.9-5.4,11.7-.1-.9-.1-1.7-.2-2.7-.1-6.2,1.4-11.3,3.4-11.4.9,0,1.7.9,2.3,2.4,0,.1,0,0-.1,0Z"/>
      <path class="cls-10" d="m134.02,50.32c-.23,0-.45-.1-.61-.28-.38-.46-.86-.8-1.5-1.08-.68-.29-1.27-.44-1.79-.44-.68-.08-1.14.06-1.73.22l-.11.03c-.65.28-1.13.53-1.51.91-.31.31-.81.31-1.12,0-.31-.31-.31-.81,0-1.12.63-.63,1.39-.98,2.05-1.27l.25-.08c.67-.19,1.36-.39,2.26-.28.63,0,1.43.18,2.31.56.87.37,1.55.87,2.1,1.52.28.34.23.83-.1,1.11-.15.12-.33.18-.51.18Z"/>
      <path class="cls-10" d="m167.62,50.32c-.23,0-.45-.1-.61-.28-.38-.46-.86-.8-1.5-1.08-.68-.29-1.27-.44-1.79-.44h-.11c-.52-.08-1.1.08-1.72.26-.65.28-1.13.53-1.51.91-.31.31-.81.31-1.12,0-.31-.31-.31-.81,0-1.12.63-.63,1.39-.98,2.05-1.27l.09-.03c.72-.2,1.53-.44,2.37-.33.72,0,1.49.19,2.36.56.87.37,1.55.87,2.1,1.52.28.34.23.83-.1,1.11-.15.12-.33.18-.51.18Z"/>
      <path class="cls-7" d="m146.72,82.74c-1.48,0-2.81-.41-3.67-.75-1.24-.56-2.19-1.21-3.04-2.06-.9-.9-1.64-1.98-2.06-3.04-.15-.37.03-.78.4-.93.37-.15.78.03.93.4.35.87.98,1.8,1.74,2.56.72.72,1.54,1.28,2.59,1.75.71.28,1.85.64,3.1.64,1.16,0,2.15-.2,3.1-.64.9-.36,1.83-.99,2.59-1.75.72-.72,1.28-1.54,1.75-2.59.16-.36.59-.52.95-.36.36.16.52.59.36.95-.55,1.21-1.2,2.16-2.05,3.01-.91.91-1.98,1.64-3.04,2.06-1.12.51-2.29.75-3.67.75Z"/>
      <g>
        <path class="cls-7" d="m120.14,99.49c1.8-2.2,4.9-2.8,7.3-.9,2.4,1.9,2.9,6.6.4,9.6-7.1,8.8-17.5,13.1-28.7,11.9-3.9-.4-6.9-4-6.5-7.1s3-4.8,5.8-4.5c8.4.8,16.3-2.4,21.7-9Z"/>
        <path class="cls-7" d="m88.34,112.29c-.8-.1-1.6-.5-1.7-1.1s.7-1.3,1.7-1.4c2.8-.3,5.7.4,8.2,1.9.9.6,1,1.8.1,2.5-.8.8-1.8.9-2.4.5-1.5-1.4-3.6-2.3-5.9-2.4Z"/>
        <path class="cls-7" d="m89.04,117.09c-.8.3-1.6.3-2-.2s0-1.5.9-2c2.4-1.5,5.3-2.3,8.2-2,1.1.1,1.7,1.1,1.3,2.2-.4,1.1-1.2,1.7-1.9,1.5-2.1-.6-4.4-.4-6.5.5Z"/>
        <path class="cls-7" d="m90.04,107.89c-.8-.3-1.4-.9-1.3-1.5s1-1.1,2-.9c2.8.5,5.4,1.9,7.4,4.1.7.8.4,2-.6,2.5s-2,.4-2.4-.2c-1.2-1.8-2.9-3.3-5.1-4Z"/>
      </g>
      <g>
        <path class="cls-7" d="m175.02,99.49c-1.8-2.2-4.9-2.8-7.3-.9-2.4,1.9-2.9,6.6-.4,9.6,7.1,8.8,17.5,13.1,28.7,11.9,3.9-.4,6.9-4,6.5-7.1-.4-3.1-3-4.8-5.8-4.5-8.5.8-16.3-2.4-21.7-9Z"/>
        <path class="cls-7" d="m206.12,115.69c.8-.1,1.7.1,1.9.6.2.6-.3,1.4-1.3,1.8-2.7.9-5.6,1-8.4.1-1-.3-1.4-1.5-.8-2.4.6-.9,1.5-1.4,2.2-1,1.9.9,4.1,1.3,6.4.9Z"/>
        <path class="cls-7" d="m205.42,110.99c.7-.4,1.6-.4,2,.1s.1,1.5-.8,2.1c-2.3,1.6-5.1,2.5-8.1,2.5-1.1,0-1.7-1.1-1.4-2.1.3-1.1,1.1-1.7,1.8-1.6,2.2.3,4.4,0,6.5-1Z"/>
        <path class="cls-7" d="m205.62,108.79c.8-.2,1.5-.7,1.5-1.4,0-.6-.9-1.2-1.9-1.1-2.8.2-5.6,1.3-7.8,3.3-.8.7-.6,1.9.3,2.5.9.6,2,.6,2.4.1,1.4-1.6,3.3-2.8,5.5-3.4Z"/>
      </g>
    </g>
    <g>
      <path class="cls-5" d="m90.34,96.97c-.72-.25-1.55-.33-2.54-.26-.17.01-.33.03-.5.05-.14.02-.28.04-.42.05l-.45.04c-.16.01-.32.03-.49.04-.16.01-.32,0-.47.01-.13,0-.25,0-.38,0l-.15-.02s-.07,0-.11,0c-.3.01-.71-.09-1.04-.17-.04,0-.07-.01-.11-.02l-.24-.02c-.15-.03-.28-.04-.39-.05l-.14-.02c-.06-.01-.12-.02-.2-.03l-.24-.02c-.22-.05-.46-.07-.68-.06h-.06c-.09-.02-.17-.03-.26-.03l-.65-.06s-.07,0-.11,0c-.21,0-.43,0-.64,0-.26-.01-.54-.02-.83,0l-.39.02c-.27.01-.55.03-.82.04-.51.04-1.03.11-1.52.18l-.35.05c-.12.02-.23.04-.35.07-.06.01-.12.03-.19.04-.34.05-.67.14-.97.22l-.2.05c-.32.09-.65.18-.98.27-.32.1-.63.22-.93.34-.13.05-.26.1-.39.15-.33.12-.63.28-.92.42-.18.09-.35.18-.54.26-.18.08-.33.19-.45.27-.06.04-.13.09-.2.13-.54.26-1.06.66-1.59,1.07l-1.35,1.04s-.08.07-.11.1c0,0,0,0,0,0-.06.05-.11.1-.16.15-.01.02-.04.04-.05.06-.06.06-.12.12-.18.19-.11.13-.25.27-.4.42-.16.16-.33.33-.52.54-.08.07-.15.13-.22.22-.25.31-.46.61-.66.91l-.19.27c-.33.47-.64.92-.92,1.41-.32.56-.6,1.12-.82,1.67-.01.03-.03.06-.05.09-.04.08-.08.16-.12.24l-.12.29c-.12.29-.24.58-.34.87-.1.29-.18.58-.27.87l-.14.44c-.08.25-.14.49-.19.74-.04.19-.09.39-.15.58-.03.1-.05.2-.07.31,0,.04-.01.07-.02.11s-.02.07-.02.11l-.25,1.63c-.02.11-.04.24-.05.38h0l-.04.28s0,.07,0,.11c0,.45-.07.9-.13,1.28l-.03.18c-.02.13-.03.26-.06.35l-.02.06c-.11.37-.22.73-.35,1.09-.05.16-.12.32-.18.47-.07.18-.15.37-.21.56-.03.1-.06.21-.09.31-.02.06-.03.12-.05.18-.26.81-.51,1.76-.24,2.81.09.34.46,1.22,1,1.65.43.34.79.55,1.18.68.23.08.45.12.65.17l.22.05c.09.02.18.03.3.04.23.05.6.11.89.1h.2c.42-.03.85-.04,1.29-.1l.42-.05c.34-.05.68-.09,1.03-.12.4-.03.8-.03,1.23-.04.32,0,.63,0,.94-.02.02,0,.05,0,.07,0,.1.01.19.02.29.01.1,0,.2,0,.3,0,.12,0,.25,0,.37,0,.05,0,.09,0,.13.01.13.01.26.03.39.02.11,0,.22,0,.33,0,.14,0,.27,0,.41,0,.12,0,.24,0,.36.02.18.01.36.02.54.02.35-.02.71-.02,1.06-.04.59-.02,1.2-.03,1.81-.08.59-.04,1.17-.14,1.74-.23.28-.04.56-.09.84-.13.15-.02.28-.06.42-.1l.1-.03c.14-.04.28-.07.43-.11.18-.04.35-.09.53-.14.13-.04.25-.08.38-.13.07-.03.14-.06.23-.08.52-.15,1.02-.39,1.51-.62.16-.07.32-.15.48-.22.03-.01.06-.03.08-.04l.25-.15c.14-.07.28-.15.41-.23.1-.06.2-.12.31-.18.05-.02.09-.05.13-.08l1.66-1.27c.07-.06.14-.11.19-.17l.24-.2s.07-.06.1-.1c.14-.16.29-.32.44-.47.22-.23.45-.46.65-.73l.11-.15c.15-.19.3-.38.42-.57.02-.03.04-.04.05-.07.07-.08.13-.16.19-.25.1-.16.2-.33.3-.49.17-.26.33-.53.48-.79.8-1.41,1.28-2.85,1.75-4.25l.1-.3c.06-.18.11-.36.16-.53.03-.13.07-.25.11-.38.04-.12.06-.24.09-.37.01-.07.02-.14.05-.2.09-.28.16-.56.23-.84.06-.24.12-.48.19-.72.04-.13.06-.26.09-.39.01-.07.02-.14.04-.21.12-.37.2-.75.29-1.11.1-.4.19-.78.31-1.15.21-.64.46-1.4.76-2.15.11-.29.22-.57.31-.85.04-.13.07-.26.09-.4.01-.07.03-.14.05-.21.34-1.12.29-2.18-.16-3.25-.09-.21-.22-.37-.34-.54-.43-.55-.92-.91-1.55-1.13Z"/>
      <path class="cls-7" d="m90.81,99.24c.06.14.1.27.13.41-.09,0-.19.02-.28.05-.95.37-1.65,1.13-1.97,2.04-.88-.38-1.92-.37-2.83.08-.91.45-1.54,1.26-1.78,2.19-.91-.3-1.94-.22-2.8.3-.87.52-1.43,1.38-1.59,2.32-.93-.23-1.95-.06-2.76.53s-1.31,1.49-1.4,2.44c-.95-.15-1.94.1-2.71.75-.77.65-1.19,1.59-1.2,2.55-.96-.08-1.93.25-2.65.96-.72.71-1.06,1.68-.99,2.64-.96,0-1.91.41-2.56,1.18-.66.77-.93,1.77-.78,2.72-.96.08-1.87.57-2.47,1.39-.06.08-.1.17-.12.26-.12-.07-.24-.16-.38-.27-.11-.08-.28-.37-.38-.61.18,0,.35-.05.5-.16.05-.04.11-.1.15-.15.6-.81.83-1.79.68-2.73.95-.07,1.87-.5,2.53-1.26.66-.76.96-1.72.89-2.66.95.01,1.89-.35,2.61-1.06.72-.7,1.1-1.63,1.09-2.58.95.09,1.91-.2,2.68-.85.77-.64,1.22-1.54,1.29-2.48.93.16,1.91-.05,2.73-.63.82-.58,1.34-1.44,1.49-2.38.91.24,1.91.1,2.77-.42.86-.52,1.45-1.34,1.68-2.26.89.31,1.9.25,2.8-.2.9-.45,1.55-1.22,1.86-2.13.87.38,1.87.4,2.81.03.25-.1.42-.32.47-.56.13.1.26.22.41.41.04.05.1.13.11.15Z"/>
      <path class="cls-11" d="m62.31,116.31c.07-.21.09-.42.12-.6l.02-.15c.07-.42.13-.91.15-1.44l.04-.28s0-.07.01-.1c0-.06.02-.13.03-.19l.25-1.64c.02-.08.03-.16.05-.24,0-.04,0-.07.02-.11.07-.22.12-.45.17-.68.05-.21.1-.42.16-.62l.14-.45c.08-.28.17-.55.26-.82.09-.26.19-.51.3-.77l.13-.31s.03-.06.04-.09c.04-.08.08-.15.12-.23.2-.48.45-.99.74-1.49.25-.43.54-.85.85-1.29l.19-.27c.2-.28.38-.55.62-.84.07-.06.14-.13.21-.21.11-.14.25-.27.38-.4.17-.17.34-.34.51-.54.02-.02.04-.05.06-.07.04-.04.07-.07.11-.11.01-.01.03-.02.03-.03.05-.04.1-.08.14-.13l1.29-1c.44-.34.9-.69,1.28-.88.17-.08.31-.18.42-.26.07-.05.15-.1.19-.12.21-.09.41-.19.6-.29.27-.13.52-.26.76-.35.14-.05.28-.11.42-.16.28-.11.55-.22.8-.29.31-.09.63-.18.94-.26l.2-.05c.26-.07.53-.14.77-.18.12-.02.23-.04.35-.07.06-.02.12-.03.18-.04l.36-.05c.49-.07.96-.14,1.42-.17.26-.02.52-.03.78-.04l.4-.02c.23-.01.46,0,.69,0,.23,0,.47.01.7,0l.64.06s.06,0,.09,0c.02,0,.04,0,.06,0,.11.01.21.03.32.02.11,0,.23,0,.33.03.04,0,.08.02.12.02l.31.03c.06.01.12.02.18.03h.15c.07.02.13.02.2.03.03,0,.07.01.1.02l.24.02c.38.09.87.21,1.35.2h.16s.07.02.1.02c.12,0,.25,0,.37,0,.04,0,.08,0,.12,0-.12.64-.53,1.2-1.13,1.5-.77.38-1.66.26-2.28-.31-.25-.23-.61-.27-.91-.11-.3.16-.46.49-.4.82.14.84-.25,1.67-.99,2.12-.73.44-1.64.39-2.3-.13-.26-.21-.63-.22-.91-.04-.28.18-.42.53-.33.85.21.82-.11,1.68-.81,2.18-.7.5-1.61.52-2.31.06-.28-.19-.65-.17-.91.04h0c-.27.21-.37.56-.26.87.27.8.02,1.67-.63,2.23-.66.55-1.57.65-2.31.24-.29-.16-.66-.12-.91.11-.25.23-.32.59-.19.9.34.77.16,1.66-.45,2.26-.62.61-1.52.77-2.3.43-.31-.14-.67-.06-.89.19-.23.25-.28.61-.12.91.4.74.29,1.64-.27,2.28-.44.5-1.07.76-1.71.72.02-.06.04-.12.06-.18v-.07Z"/>
      <path class="cls-11" d="m90.83,101.81c-.01.07-.03.15-.05.22-.08.25-.18.5-.27.75-.31.79-.57,1.57-.79,2.23-.14.43-.24.85-.34,1.27-.08.34-.16.68-.27,1.02-.04.13-.06.26-.09.4-.01.07-.02.14-.04.21-.08.26-.15.53-.21.79-.06.25-.13.51-.21.76-.04.12-.06.24-.08.36-.01.07-.03.14-.05.21-.05.15-.09.3-.13.45-.04.15-.08.3-.13.44l-.1.3c-.45,1.33-.9,2.7-1.63,3.98-.14.25-.29.49-.45.74-.11.17-.21.34-.32.51-.01.02-.03.04-.05.06-.05.05-.09.11-.14.17-.12.17-.25.34-.38.51l-.11.15c-.15.19-.33.38-.53.59-.16.16-.32.32-.46.49l-.22.18s-.05.05-.08.08c-.01.01-.03.02-.04.03l-.19.14-.66.51-.75.57c-.12.06-.24.13-.36.2-.1.06-.21.13-.31.18-.02.01-.05.02-.06.04l-.24.15c-.15.07-.31.14-.46.21-.45.21-.88.41-1.29.54-.12.04-.23.07-.33.12-.08.03-.16.06-.24.08-.16.05-.33.09-.5.13-.15.04-.3.08-.45.12l-.13.04c-.07.02-.13.04-.2.05-.29.04-.59.09-.88.13-.56.09-1.08.17-1.6.21-.57.04-1.16.06-1.74.08-.36.01-.73.02-1.09.04-.12,0-.24,0-.36-.01-.18-.01-.36-.02-.54-.02-.12,0-.24,0-.35,0-.12,0-.25,0-.38,0-.04,0-.09,0-.13-.01-.13-.02-.26-.03-.39-.02-.1,0-.2,0-.3,0-.12,0-.25,0-.37,0-.02,0-.05,0-.07,0-.1,0-.2-.02-.3-.01-.3.01-.6.02-.9.02-.43,0-.87,0-1.32.04-.37.03-.74.08-1.11.12l-.41.05c-.38.05-.76.06-1.16.08h-.21c-.05.01-.15,0-.25-.01.5-.5,1.24-.67,1.92-.41.32.12.67.02.88-.24.21-.26.22-.63.03-.91-.46-.68-.41-1.57.14-2.21.54-.64,1.41-.82,2.15-.47.3.15.67.08.9-.17.23-.25.27-.61.11-.91-.41-.72-.28-1.59.31-2.18.59-.59,1.47-.7,2.18-.29.29.17.66.13.91-.1s.32-.59.18-.9c-.35-.75-.15-1.61.48-2.14.63-.53,1.52-.58,2.19-.11.28.19.65.19.92-.02.27-.21.37-.56.25-.88-.29-.77-.02-1.62.65-2.1.68-.48,1.56-.46,2.2.07.26.22.63.24.92.05.28-.18.41-.53.32-.86-.22-.79.11-1.61.82-2.04.71-.43,1.59-.33,2.19.24.24.23.61.29.91.12.3-.16.45-.5.39-.83-.16-.81.24-1.6.99-1.97.75-.37,1.62-.2,2.17.42.22.25.59.33.89.2.06-.03.11-.06.16-.1.21-.16.32-.43.29-.7-.08-.72.26-1.38.87-1.75-.01.05-.02.1-.04.16-.04.12-.06.24-.09.37Z"/>
    </g>
    <g>
      <path class="cls-2" d="m148.08,116.88c-4.26,0-7.82-1.4-10.57-4.15-6.2-6.2-6.26-17.35-6.26-17.46h.5c0,.05.02,5.37,2.05,10.61,2.71,6.98,7.51,10.51,14.28,10.51,12.93,0,13.03-11.4,13.09-17.53.02-1.66.03-2.98.28-3.67l.47.17c-.22.61-.23,1.89-.25,3.51-.06,6.3-.16,18.03-13.59,18.03Z"/>
      <g>
        <path class="cls-3" d="m152.22,116.99c-.09-.1-.36-.1-.47,0-.22.19-.45.38-.73.48-.23.09-.46.1-.69-.03-.05-.03-.07-.06-.06-.13.04-.22-.03-.4-.21-.54-.09-.07-.1-.23-.02-.31.18-.18.19-.41,0-.62.05-.05.1-.1.15-.13.12-.08.19-.18.24-.31.02-.06.04-.13.06-.19.03-.13.03-.13-.08-.2-.28-.16-.58-.28-.89-.36-.78-.2-1.57-.16-2.35,0-.28.06-.54.15-.79.29-.06.03-.09.08-.09.15,0,.1,0,.21,0,.31.01.18.07.33.21.45.06.05.1.14.14.21,0,.02,0,.05-.02.07-.03.07-.09.14-.11.21-.04.17.03.31.18.42-.04.02-.08.04-.11.06-.18.11-.23.27-.14.46.03.05.01.07-.03.1-.15.11-.31.16-.5.13-.44-.08-.84-.28-1.19-.56-.08-.07-.11-.06-.14.04-.13.37-.26.73-.38,1.1-.02.05-.02.12,0,.17.35.92.69,1.83.86,2.8.04.22.16.38.36.47.17.08.25.21.29.38.09.37.15.75.17,1.13,0,.05.03.11.06.15.4.43.69.92.76,1.52,0,.02,0,.06.03.07.09.08.13.18.14.29.02.15.03.3.05.45,0,.04.02.09.05.12.09.12.2.24.29.37.17.25.32.52.36.83,0,.03.03.06.06.08.29.19.51.43.59.77.04.17.13.33.26.46.06.06.09.06.14-.02.04-.07.08-.15.13-.21.09-.11.19-.21.29-.32.03-.03.07-.07.08-.11.07-.23.16-.46.31-.65.13-.15.2-.32.25-.51.1-.36.22-.72.43-1.03.02-.02.02-.07,0-.1-.04-.09-.01-.13.07-.17.06-.03.1-.07.11-.15.04-.33.09-.66.13-.98,0-.02,0-.04.02-.06.14-.19.28-.37.41-.56.03-.04.06-.09.07-.13.04-.26.08-.51.3-.69.06-.05.07-.13.07-.21,0-.17-.03-.35.05-.5.12-.24.26-.48.39-.71.02-.04.04-.08.04-.13,0-.15,0-.29,0-.44.02-.22.03-.44.19-.62.12-.14.24-.28.36-.42.03-.04.05-.09.05-.13.01-.22.01-.45.02-.67,0-.26.03-.53.12-.78.02-.06.02-.13,0-.19-.06-.26-.2-.48-.38-.67Zm-3.2,10.41s-.02-.05-.03-.09c0,.03.02.06.03.09Zm.03.07h0s.01,0,.01-.01c0,0,0,0-.01.01Z"/>
        <path class="cls-2" d="m148.63,128.44c-.09,0-.17-.04-.25-.12-.16-.16-.27-.36-.32-.58-.06-.26-.21-.45-.49-.62-.07-.05-.15-.14-.17-.26-.03-.22-.12-.45-.31-.72-.05-.07-.1-.13-.15-.19-.04-.06-.09-.11-.13-.17-.05-.07-.08-.15-.1-.24,0-.07-.02-.13-.02-.2,0-.08-.01-.16-.03-.24-.01-.09-.04-.12-.06-.13-.06-.05-.1-.13-.11-.23-.06-.49-.28-.94-.69-1.37-.07-.08-.12-.19-.13-.3-.02-.35-.08-.71-.17-1.08-.03-.13-.09-.18-.16-.21-.27-.13-.45-.36-.5-.65-.16-.91-.47-1.75-.85-2.76-.04-.11-.04-.23,0-.34.09-.27.19-.55.28-.82l.1-.28s.07-.19.22-.24c.16-.04.28.06.32.09.32.26.68.44,1.07.51.07.01.13,0,.2-.02-.05-.2,0-.4.16-.54-.07-.13-.08-.27-.05-.42.02-.09.06-.15.09-.21-.01-.02-.03-.04-.03-.05-.18-.16-.28-.37-.29-.62,0-.06,0-.12,0-.18v-.13c-.01-.16.07-.3.22-.38.26-.14.54-.24.86-.31.9-.19,1.71-.19,2.47,0,.36.09.67.22.95.38.21.13.26.24.2.48-.02.07-.04.14-.06.21-.06.17-.16.31-.3.42.1.24.06.5-.13.71.2.16.3.39.28.65.12.04.25.04.41-.02.25-.09.46-.27.65-.44.19-.17.61-.19.81.03h0c.23.25.37.51.44.79.02.06.04.2,0,.33-.08.23-.1.48-.1.71v.28c-.01.13-.01.26-.02.39,0,.1-.05.2-.11.28-.11.14-.23.27-.35.41-.11.13-.13.27-.15.49,0,.07,0,.15,0,.23,0,.07,0,.14,0,.21,0,.1-.04.18-.07.24l-.15.27c-.08.14-.16.29-.24.44-.04.08-.03.19-.02.32,0,.12.02.33-.15.47-.14.12-.18.31-.21.54-.01.1-.07.18-.11.24l-.39.53-.03.19c-.04.26-.07.51-.1.77-.01.09-.05.21-.17.3,0,.08-.01.17-.05.23-.2.29-.31.64-.4.96-.07.25-.16.44-.3.6-.11.14-.2.32-.27.56-.03.09-.09.15-.12.19l-.12.13c-.06.06-.12.12-.17.19-.03.03-.04.07-.06.11l-.04.07c-.06.11-.15.17-.25.18-.01,0-.02,0-.04,0Zm-.74-1.71c.35.24.57.53.65.89.01.06.04.11.06.17,0,0,.01-.02.02-.03.06-.08.13-.15.2-.22l.11-.11.12.05-.02-.03-.07-.03h0s.06.02.06.02l-.02-.03h0s0,0,0,0h0s-.01-.02-.01-.02l-.05.02h.02s0,.01,0,.01h-.02s-.14.06-.14.06c-.02-.04-.03-.07-.04-.12l.19-.05-.03-.05.03-.02.04.06h.02c.07-.24.18-.45.32-.63.09-.11.15-.24.2-.42.1-.34.22-.71.43-1.04-.02-.09-.01-.16,0-.21.03-.08.09-.15.18-.2.03-.25.06-.49.1-.74l.04-.27.05-.11.41-.56c.06-.25.11-.61.41-.87l.23-.02-.25-.04c-.01-.17-.02-.37.08-.57.08-.16.17-.31.25-.46l.15-.26c.01-.08.01-.14.01-.2,0-.09,0-.18,0-.26.02-.23.04-.52.25-.76.13-.15.25-.28.36-.41,0-.11,0-.24,0-.36v-.29c.02-.25.04-.55.14-.85-.05-.24-.15-.42-.32-.61-.03-.01-.11,0-.13,0-.21.19-.47.4-.8.52-.33.12-.63.11-.9-.04-.15-.08-.21-.22-.19-.38.02-.14-.01-.22-.11-.3-.1-.07-.17-.19-.18-.33-.01-.14.04-.27.13-.36.06-.06.11-.14,0-.28l-.16-.19.18-.16c.08-.08.12-.12.18-.16.07-.04.11-.1.13-.18.01-.04.03-.08.04-.13-.25-.14-.5-.24-.78-.31-.68-.17-1.42-.17-2.24,0-.25.05-.47.13-.68.24v.09c0,.05,0,.1,0,.16,0,.12.05.21.13.28.08.07.13.16.17.23.07.13.07.23.01.34-.01.03-.03.06-.05.09-.01.02-.03.05-.04.07,0,.03-.02.09.08.16l.31.23-.45.25c-.08.04-.08.07-.04.14.08.15.04.31-.1.41-.22.16-.45.22-.69.17-.41-.08-.78-.24-1.12-.48l-.02.07c-.09.27-.19.54-.28.82.31.81.69,1.82.88,2.85.02.14.09.23.22.29.22.11.37.29.43.55.1.41.16.79.18,1.17.47.5.74,1.03.81,1.61.09.1.15.23.17.38.01.09.02.18.03.27,0,.06.01.12.02.19.04.06.08.11.12.16.06.07.12.15.17.23.15.22.33.51.39.88Zm1.17.73h.01s-.02,0-.02,0h0Zm-.03-.05h0s0,0,0,0Zm-1.13-.61s0,0,0,0c0,0,0,0,0,0Zm-.06-.1s0,0,0,0c0,0,0,0,0,0Zm2.14-1.53s0,0,0,0c0,0,0,0,0,0Zm-3.06-.59s0,0,0,0c0,0,0,0,0,0Zm-.69-7.18s0,0,0,0c0,0,0,0,0,0Zm5.8-.23h0s0,0,0,0c0,0,0,0,0,0Zm-5.6-.99s0,0,0,0c0,0,0,0,0,0Zm.11-1.1h0s0,0,0,0Zm2.38,12.37h0s0,0,0,0h0Z"/>
      </g>
      <g>
        <path class="cls-8" d="m150.06,115.84c.18.2.17.44,0,.62-.08.08-.08.24.02.31.19.14.25.32.21.54-.01.07.01.1.06.13.22.13.46.11.69.03.28-.1.51-.29.73-.48.1-.09.37-.1.47,0,.18.19.32.41.38.67.01.06.02.13,0,.19-.08.25-.11.52-.12.78,0,.22,0,.45-.02.67,0,.04-.02.1-.05.13-.12.14-.24.28-.36.42-.16.18-.17.4-.19.62-.01.15,0,.29-.01.44,0,.04-.02.09-.04.13-.13.24-.27.47-.39.71-.08.16-.06.33-.05.5,0,.08,0,.15-.07.21-.21.18-.26.43-.3.69,0,.05-.04.09-.07.13-.14.19-.28.37-.41.56-.01.02-.01.04-.02.06-.04.33-.09.66-.13.98,0,.08-.05.12-.11.15-.08.04-.11.08-.07.17.01.03.01.07,0,.1-.21.32-.33.67-.43,1.03-.05.19-.12.36-.25.51-.15.19-.25.41-.31.64-.01.04-.05.08-.08.11-.1.11-.2.21-.29.32-.05.06-.09.14-.13.21-.04.07-.08.08-.14.02-.13-.13-.22-.29-.26-.46-.09-.35-.3-.59-.59-.77-.03-.02-.05-.05-.06-.08-.04-.31-.18-.58-.36-.83-.09-.13-.19-.24-.29-.37-.03-.03-.04-.08-.05-.12-.02-.15-.03-.3-.05-.45-.02-.11-.05-.21-.14-.28-.02-.01-.02-.05-.03-.07-.07-.6-.35-1.08-.76-1.52-.03-.04-.06-.09-.06-.14-.02-.38-.08-.76-.17-1.13-.04-.17-.13-.3-.29-.38-.2-.09-.32-.25-.36-.47-.17-.97-.51-1.89-.86-2.8-.02-.05-.02-.12,0-.17.12-.37.25-.73.38-1.1.03-.1.07-.1.14-.04.35.29.74.48,1.19.56.18.04.35-.02.5-.13.04-.03.05-.05.03-.1-.09-.19-.04-.36.14-.46.03-.02.07-.04.11-.06-.15-.11-.22-.25-.18-.42.02-.08.07-.14.11-.21.01-.02.03-.06.02-.07-.04-.07-.08-.15-.14-.21-.14-.12-.2-.27-.21-.45,0-.1,0-.21,0-.31,0-.07.03-.11.09-.15.25-.14.52-.23.79-.29.78-.16,1.57-.19,2.35,0,.31.08.61.19.89.36.12.07.12.07.08.2-.02.07-.04.13-.06.19-.04.13-.12.23-.24.31-.05.04-.1.09-.15.13Zm1.99,1.4c.13.14.19.31.2.48.02.17.01.35.02.53.16-.13.27-.47.19-.64-.08-.18-.19-.34-.3-.51-.06-.09-.25-.09-.33-.02-.11.09-.22.19-.34.27-.18.13-.38.24-.6.28-.31.05-.59,0-.8-.27-.07-.09-.16-.13-.27-.18.03.09.05.16.08.23-.17-.08-.34-.15-.5-.22,0,0,0,.02-.01.03.22.16.44.32.67.47.08.05.18.08.28.1.39.07.75-.02,1.08-.23.13-.08.24-.18.38-.28-.03.09-.06.17-.1.24-.07.17-.19.29-.37.34-.13.04-.26.08-.39.12-.02,0-.04.02-.05.02,0,0,0,.01,0,.02.12,0,.24-.02.37-.03.26-.02.46-.14.58-.38.06-.13.13-.25.21-.38Zm-2.01-1.19c-.02-.08-.04-.11-.12-.1-.15,0-.31.02-.45.04-.89.15-1.73.43-2.55.8-.1.05-.2.1-.3.15-.03.02-.05.07-.08.1,0,0,.01,0,.02.01.07-.03.14-.06.2-.09-.07.08-.17.13-.19.26.05-.02.08-.03.11-.05.47-.19.93-.38,1.4-.56.56-.21,1.13-.36,1.72-.42.08,0,.18-.03.2.11.06-.08.06-.14-.01-.18-.05-.03-.11-.04-.17-.07,0,0,0,0,0-.01.07,0,.14,0,.22,0Zm1.48,3.99c0,.21-.03.4-.02.59,0,.2-.04.37-.17.52-.1.12-.16.25-.16.41,0,.09-.05.14-.12.19-.12.08-.23.17-.34.26-.15.12-.31.24-.46.36-.06.04-.12.08-.17.12,0,0,0,.01.01.02.07-.04.15-.07.22-.11.29-.2.58-.41.86-.62.03-.02.06-.05.07-.08.08-.22.23-.4.35-.59.09-.14.15-.29.14-.46,0-.1,0-.2.02-.3.02-.15.06-.3.09-.44-.7-.26-1.14.2-1.18.73.04-.07.07-.13.09-.19.05-.16.17-.27.3-.36.16-.12.32-.1.47-.04Zm-3.42,1.89c-.08-.13-.17-.24-.24-.37-.11-.22-.22-.44-.32-.67-.05-.12-.09-.24-.12-.37-.05-.23-.09-.47-.14-.7-.02-.09-.06-.17-.14-.23-.23-.18-.46-.37-.7-.55-.15-.11-.3-.21-.49-.26.02.02.05.03.07.05.17.14.36.27.52.43.16.15.3.33.44.5.04.05.07.11.09.17.1.29.2.59.3.88,0,0,0,.01,0,.02-.1-.06-.2-.13-.3-.19,0,0,0,.02-.01.02.06.05.11.1.17.14.16.13.29.28.38.47.06.12.14.23.2.35.07.13.18.21.3.3Zm-1.07-4.76c-.11.05-.22.09-.33.14-.04.02-.08.04-.11.07-.19.2-.42.27-.69.23-.32-.05-.62-.18-.9-.34-.07-.04-.13-.08-.22-.13.03.06.04.1.06.14.07.17.05.2-.12.26-.08.03-.16.07-.23.1,0,0,0,.01,0,.02.13-.03.26-.05.41-.09v.5c.12-.22.11-.45.08-.69.15.1.31.18.42.31.2.22.43.29.71.25l-.28-.08c.51-.05.89-.28,1.18-.69Zm-2.32,1.99s.02.06.03.1c.16.47.31.93.41,1.42.03.13.05.27.09.4.05.17.18.3.31.32-.13-.16-.18-.34-.22-.53-.03-.15-.06-.3-.1-.45-.06-.27-.13-.54-.19-.83.15.1.29.19.43.29.14.1.27.21.4.33.12.11.23.23.37.37-.36-.65-.95-1.03-1.52-1.42Zm1.71,3.99c-.17-.09-.28-.22-.29-.41-.03-.31-.06-.62-.1-.94,0,0,.01,0,.02,0,.39-.02.72.08.9.46.02.04.04.08.06.12.04.09.08.17.13.26h.02c-.02-.11-.05-.22-.08-.34.2.09.38.17.56.26-.11-.13-.24-.22-.39-.28-.16-.06-.28-.16-.37-.29-.09-.13-.22-.22-.37-.26-.17-.04-.34-.07-.52-.1-.07-.01-.14,0-.22-.01.03.1.07.18.09.27.05.26.1.51.14.77.04.28.18.46.41.5Zm.21-8.2c.85-.2,1.69-.26,2.54.01v-.04c-.11-.04-.23-.09-.34-.13.5,0,.97.14,1.44.27-1.2-.58-2.41-.54-3.64-.11Zm5.23,4.67c.25-.02.48-.27.49-.5,0-.18,0-.37.01-.55,0-.05,0-.11,0-.17-.03.01-.05.02-.07.03-.38.16-.76.34-1.19.3,0,0-.02,0-.03,0-.18.02-.34.08-.5.19.16-.04.31-.09.46-.1.15-.01.3.01.45.02-.08.1-.16.19-.23.29,0,0,.01.02.02.02.28-.23.55-.49.95-.54-.01.14-.02.29-.05.43-.04.22-.1.44-.33.59Zm-2.31,3.42s-.01.01-.02.02c.07.09.13.17.2.26.08.11.18.19.3.25.12.05.25.1.37.14.02,0,.06-.01.08-.03.06-.08.12-.17.18-.26.12-.17.23-.35.27-.56.03-.15.1-.28.21-.4.03-.04.06-.09.06-.14,0-.12-.01-.25-.02-.37-.01,0-.02,0-.04,0-.02.1-.04.21-.07.31-.03.09-.05.19-.1.26-.08.11-.18.2-.27.3-.09.1-.18.2-.28.29,0,0,.01.01.02.02l.27-.17s.01,0,.02.01c-.07.13-.13.26-.21.39-.04.08-.08.18-.15.2-.07.02-.16-.05-.24-.08-.14-.05-.27-.12-.36-.25-.06-.08-.15-.13-.22-.2Zm-.03,1.25c.03.06.05.1.07.15.03.08.08.17.09.25.01.13.05.25.15.33.1.09.09.18.04.29-.11.24-.2.49-.31.74,0,.02-.02.04-.04.08-.1-.14-.15-.28-.17-.43-.02-.15-.04-.3-.05-.46-.14.33,0,.91.3,1.2.01-.04.02-.07.03-.1.09-.33.2-.65.37-.96.09-.16.08-.21-.04-.35-.07-.08-.15-.17-.17-.26-.04-.19-.12-.34-.27-.48Zm-1.02-7.69s0,.03,0,.04c.57.08,1.1.26,1.6.54,0,0,0-.01.01-.02-.06-.07-.11-.14-.17-.21,0,0,0,0,0,0,.06.04.12.08.19.13-.04-.12-.12-.19-.21-.24-.26-.16-.56-.25-.85-.32-.07-.02-.15,0-.22,0,0,0,0,.01,0,.02.24.09.48.18.72.27,0,0,0,.02,0,.03-.02,0-.04-.01-.06-.02-.27-.07-.54-.14-.82-.2-.06-.01-.13,0-.19,0Zm.29,5.08s.02-.07.04-.1c.06-.11.11-.23.19-.34.12-.17.24-.33.29-.54.03-.11.09-.2.19-.28.13-.11.21-.26.25-.44-.08.11-.15.22-.24.31-.08.09-.19.16-.29.24-.13-.12-.29-.22-.36-.41-.05-.13-.14-.24-.21-.36,0,0-.02,0-.02.01.05.13.11.26.14.4.05.18.14.33.27.46.12.12.13.25.04.4-.02.03-.04.06-.07.09-.11.17-.19.35-.21.55Zm-.56,1.31h-.02s-.02.05-.03.08c-.04.14-.07.29-.14.42-.06.13-.05.25-.01.37.05.17.12.33.16.5.05.21.08.42,0,.63-.03.07-.03.15-.04.22.01,0,.02,0,.03,0,.07-.25.15-.5.22-.77.07.1.15.18.2.27.05.09.08.19.11.29.03.1.03.21.05.31.04-.25.03-.5-.14-.71-.21-.25-.44-.49-.5-.83,0,0,0,0,0,0-.04-.09-.03-.17,0-.27.05-.17.09-.35.13-.53Zm-1.07-6.69c.26-.05.5.07.73-.06-.2-.03-.39-.07-.59-.08-.17,0-.33,0-.5.01-.08,0-.14.04-.13.14.07-.01.13-.02.22-.04-.25.17-.27.2-.16.29.06-.11.15-.14.27-.13.08,0,.17,0,.25.02.11.02.2-.03.32-.08-.15-.03-.27-.05-.41-.07Zm1.83,10.46c-.06.2-.02.57.07.69,0,0,.01,0,.01-.01.09-.28.21-.54.39-.77.01-.02.02-.05.01-.06-.07-.2-.15-.4-.32-.54-.06-.05-.13-.08-.2-.11,0,.01-.02.03-.03.04.02.01.05.02.07.04.14.12.24.27.29.45.01.03.02.08,0,.11-.08.16-.16.32-.25.5-.02-.12-.04-.22-.06-.33Zm-1.49-2.73c-.2,0-.33-.12-.46-.26-.09-.1-.2-.18-.31-.24-.11-.07-.24-.1-.37-.15,0,0,0,.02-.01.02.27.37.45.77.53,1.23.02-.33-.06-.65-.18-.96.12.08.24.16.35.25.13.12.29.15.46.12Zm1.14,2.4c0,.11,0,.22,0,.33.02.16.06.31.07.47.02.18,0,.35-.06.54-.02-.05-.02-.08-.03-.11,0,0-.01,0-.02-.01,0,.02,0,.04,0,.05-.16-.11-.1-.27-.13-.41-.12.28-.03.5.14.71.09-.12.17-.25.27-.36.07-.07.07-.13.03-.21-.14-.31-.2-.65-.27-.99Zm-1.48-.86c.13.18.25.34.35.51.1.17.17.35.25.53,0-.32-.11-.63-.29-.9.17-.13.33-.02.51,0-.26-.2-.54-.17-.83-.14Zm.9-7.95c.48-.1.93.01,1.37.21-.19-.19-.42-.3-.7-.37.08-.06.15-.11.22-.16-.32.04-.6.17-.88.32Zm2.05,7.31c.12-.07.15-.18.16-.28.04-.24.07-.49.11-.73.01-.08-.02-.1-.09-.11-.11-.02-.21-.05-.32-.09-.12-.05-.23-.08-.37-.09.17.09.32.18.48.26.08.04.12.1.13.18.02.29,0,.57-.11.86Zm-3.35-9.21c.07.04.13.08.21.11.07.03.14.05.22.07,0,0,0-.01,0-.02-.29-.16-.54-.37-.76-.64,0,.21.03.38.18.51.07.06.11.14.16.22.06.1.05.11.19.07-.07-.1-.13-.2-.19-.3Zm2.99,6.18s-.01-.02-.02-.03c-.2.13-.42.26-.61.41-.25.19-.31.53-.16.84,0-.09.02-.17.02-.24-.01-.25.1-.44.3-.59.16-.12.32-.26.48-.39Zm-2.77,2.85c.05.24.09.46.13.67.11-.03.21-.13.23-.23-.06.04-.12.09-.19.14-.01-.16-.03-.29-.04-.42,0-.03.02-.08.04-.08.14-.03.28-.09.43,0,.06.04.13.05.19.08-.14-.16-.3-.27-.52-.19-.03.01-.07,0-.1,0-.06,0-.12.02-.16.02Zm1.34,1.57s0,0-.01-.01c-.05.02-.1.03-.15.05-.09.04-.15.1-.17.2-.01.05-.03.11-.05.16-.04.11-.03.16.06.24.05.04.1.09.15.14.04.05.08.1.14.17v-.22s-.03.04-.04.05c-.07-.09-.13-.18-.19-.28-.02-.03-.02-.06-.02-.1.01-.17.07-.3.24-.37.02,0,.03-.02.04-.03Zm1.79-6.82c.24-.13.48-.26.71-.39,0,0,0-.02-.01-.02-.32-.02-.53.17-.7.41Zm-.55-3.68c.13,0,.25,0,.37-.01.02,0,.03-.03.05-.05.03-.04.06-.09.1-.12.12-.08.12-.21.14-.34-.1.32-.4.38-.65.52Zm-.48-.03s0,.01,0,.02c.26-.06.5-.15.67-.37,0,0,0-.02-.01-.02-.22.12-.45.25-.67.37Zm.79.53q-.13-.01-.13.1s0,.04,0,.06c0,.1.02.12.14.13v-.29Zm-3.01.35c.05-.04.13-.02.14-.1-.12-.01-.14,0-.14.1Z"/>
        <path class="cls-2" d="m152.05,117.24c-.07.14-.14.26-.21.38-.12.24-.32.36-.58.38-.12.01-.24.02-.37.03,0,0,0-.01,0-.02.02,0,.04-.02.05-.02.13-.04.26-.08.39-.12.18-.05.3-.17.37-.34.03-.08.06-.16.1-.24-.13.1-.25.2-.38.28-.33.2-.69.3-1.08.23-.1-.02-.2-.05-.28-.1-.23-.15-.45-.32-.67-.47,0,0,0-.02.01-.03.16.07.33.14.5.22-.02-.07-.05-.14-.08-.23.11.06.2.09.27.18.2.27.48.32.8.27.23-.04.42-.15.6-.28.12-.08.23-.18.34-.27.08-.07.27-.07.33.02.11.16.21.33.3.51.08.17-.03.51-.19.64,0-.18,0-.35-.02-.53-.02-.18-.08-.34-.2-.48Z"/>
        <path class="cls-2" d="m150.04,116.06c-.07,0-.14,0-.22,0,0,0,0,0,0,.01.06.02.12.04.17.07.07.04.07.1.01.18-.02-.14-.11-.12-.2-.11-.59.07-1.17.21-1.72.42-.47.18-.94.37-1.4.56-.03.01-.06.03-.11.05.02-.14.12-.18.19-.26-.07.03-.14.06-.2.09,0,0-.01,0-.02-.01.02-.03.04-.08.08-.1.1-.06.19-.11.3-.15.82-.37,1.67-.65,2.55-.8.15-.03.3-.03.45-.04.09,0,.11.02.12.1Zm-2.56.64c.64-.19,1.27-.38,1.92-.58-.67.1-1.31.28-1.92.58Z"/>
        <path class="cls-2" d="m151.52,120.05c-.15-.06-.31-.08-.47.04-.13.1-.25.2-.3.36-.02.06-.05.12-.09.19.04-.53.47-.99,1.18-.73-.03.15-.06.3-.09.44-.02.1-.02.2-.02.3,0,.17-.05.32-.14.46-.13.19-.28.37-.35.59-.01.03-.04.06-.07.08-.29.21-.57.42-.86.62-.07.05-.15.08-.22.11,0,0,0-.01-.01-.02.06-.04.12-.08.17-.12.16-.12.31-.24.46-.36.11-.09.22-.18.34-.26.07-.05.12-.11.12-.19,0-.16.06-.29.16-.41.13-.15.17-.33.17-.52,0-.19.01-.38.02-.59Z"/>
        <path class="cls-2" d="m148.1,121.94c-.12-.08-.23-.16-.3-.3-.06-.12-.14-.23-.2-.35-.09-.19-.22-.34-.38-.47-.06-.05-.11-.1-.17-.14,0,0,0-.02.01-.02.1.06.2.13.3.19,0,0,0-.01,0-.02-.1-.29-.2-.59-.3-.88-.02-.06-.05-.12-.09-.17-.14-.17-.28-.34-.44-.5-.16-.16-.34-.29-.52-.43-.02-.02-.05-.03-.07-.05.18.05.34.15.49.26.23.18.46.37.7.55.08.06.12.13.14.23.05.23.09.47.14.7.03.12.07.25.12.37.1.23.2.45.32.67.07.13.16.24.24.37Z"/>
        <path class="cls-2" d="m147.03,117.18c-.28.42-.67.65-1.18.69l.28.08c-.28.03-.51-.04-.71-.25-.11-.13-.27-.21-.42-.31.03.24.03.46-.07.69v-.5c-.16.03-.29.06-.42.09,0,0,0-.01,0-.02.08-.03.15-.07.23-.1.17-.06.19-.09.12-.26-.02-.04-.03-.08-.06-.14.08.05.15.1.22.13.28.16.57.29.9.34.27.04.5-.03.69-.23.03-.03.07-.06.11-.07.11-.05.22-.09.33-.14Z"/>
        <path class="cls-2" d="m144.71,119.17c.57.4,1.16.77,1.52,1.42-.13-.13-.24-.26-.37-.37-.13-.12-.26-.22-.4-.33-.14-.1-.28-.19-.43-.29.07.29.13.56.19.83.03.15.07.3.1.45.04.19.09.37.22.53-.14-.02-.27-.15-.31-.32-.04-.13-.06-.27-.09-.4-.1-.48-.24-.95-.41-1.42-.01-.03-.02-.06-.03-.1Z"/>
        <path class="cls-2" d="m146.42,123.16c-.23-.04-.37-.23-.41-.5-.04-.26-.09-.51-.14-.77-.02-.09-.06-.17-.09-.27.08,0,.15,0,.22.01.17.03.35.06.52.1.15.04.28.13.37.26.1.13.21.23.37.29.15.06.28.15.39.28-.19-.09-.37-.17-.56-.26.03.13.05.23.08.34h-.02c-.04-.08-.08-.17-.13-.25-.02-.04-.04-.08-.06-.12-.18-.38-.51-.48-.9-.46-.01,0-.02,0-.02,0,.03.32.07.63.1.94.02.19.13.32.29.41Z"/>
        <path class="cls-2" d="m146.63,114.96c1.23-.42,2.45-.47,3.64.11-.47-.13-.94-.27-1.44-.27.12.04.23.09.35.13v.04c-.86-.27-1.7-.21-2.55-.01Z"/>
        <path class="cls-2" d="m151.86,119.63c.24-.14.29-.36.33-.59.03-.14.03-.28.05-.43-.4.05-.67.31-.95.54,0,0-.01-.02-.02-.02.08-.09.15-.19.23-.29-.15,0-.31-.03-.45-.02-.15.01-.3.06-.46.1.15-.12.32-.17.5-.19,0,0,.02,0,.03,0,.43.04.81-.14,1.19-.3.02,0,.04-.01.07-.03,0,.06,0,.12,0,.17,0,.18,0,.37-.01.55,0,.23-.24.47-.49.5Z"/>
        <path class="cls-2" d="m149.54,123.05c.07.07.16.12.22.2.1.12.22.2.36.25.08.03.18.1.24.08.07-.02.11-.13.15-.2.07-.13.14-.26.21-.39,0,0-.01,0-.02-.01l-.27.17s-.01-.01-.02-.02c.09-.1.19-.2.28-.29.09-.1.19-.19.27-.3.05-.07.08-.17.1-.26.03-.1.05-.21.07-.31.01,0,.02,0,.04,0,0,.12.02.25.02.37,0,.05-.03.1-.06.14-.11.12-.17.24-.21.4-.04.21-.15.38-.27.56-.06.09-.12.18-.18.26-.02.02-.06.04-.08.03-.12-.04-.25-.09-.37-.14-.12-.05-.23-.13-.3-.25-.06-.09-.13-.17-.2-.26,0,0,.01-.01.02-.02Z"/>
        <path class="cls-2" d="m149.51,124.3c.15.14.24.29.27.48.02.09.1.18.17.26.12.14.13.19.04.35-.17.3-.28.63-.37.96,0,.03-.02.07-.03.1-.3-.29-.44-.87-.3-1.2.02.15.03.31.05.46.03.15.07.29.17.43.01-.03.03-.05.04-.08.1-.25.2-.5.31-.74.05-.11.05-.2-.04-.29-.1-.09-.14-.2-.15-.33,0-.09-.05-.17-.09-.25-.02-.05-.04-.09-.07-.15Z"/>
        <path class="cls-2" d="m148.49,116.61c.06,0,.13-.02.19,0,.27.06.55.13.82.2.02,0,.04.01.06.02,0,0,0-.02,0-.03-.24-.09-.48-.18-.72-.27,0,0,0-.01,0-.02.07,0,.15-.02.22,0,.29.08.59.16.85.32.09.06.17.12.21.24-.07-.05-.13-.09-.19-.13,0,0,0,0,0,0,.06.07.11.14.17.21,0,0,0,.01-.01.02-.5-.28-1.04-.46-1.6-.54,0-.01,0-.03,0-.04Z"/>
        <path class="cls-2" d="m148.78,121.69c.02-.2.1-.38.21-.55.02-.03.05-.06.07-.09.09-.15.08-.28-.04-.4-.13-.13-.22-.28-.27-.46-.04-.14-.1-.26-.14-.4,0,0,.02,0,.02-.01.07.12.16.23.21.36.07.19.23.3.36.41.1-.09.21-.16.29-.24.09-.09.15-.2.24-.31-.03.18-.11.33-.25.44-.09.08-.16.17-.19.28-.05.21-.16.37-.29.54-.07.1-.13.22-.19.34-.02.03-.03.07-.04.1Z"/>
        <path class="cls-2" d="m148.23,123c-.04.18-.08.35-.13.53-.02.09-.04.18,0,.27,0,0,0,0,0,0,.07.34.29.58.5.83.18.21.18.45.14.71-.02-.1-.02-.21-.05-.31-.03-.1-.06-.2-.11-.29-.05-.09-.13-.17-.2-.27-.08.27-.15.52-.22.77-.01,0-.02,0-.03,0,.01-.07.01-.15.04-.22.08-.21.06-.42,0-.63-.04-.17-.11-.33-.16-.5-.04-.13-.05-.24.01-.37.06-.13.09-.28.14-.42,0-.03.02-.06.03-.09h.02Z"/>
        <path class="cls-2" d="m147.16,116.31c.14.02.26.05.41.07-.12.05-.21.1-.32.08-.08-.02-.17-.01-.25-.02-.11,0-.21.02-.27.13-.11-.09-.09-.12.16-.29-.08.02-.15.03-.22.04,0-.1.06-.13.13-.14.17-.01.33-.02.5-.01.2.01.39.04.59.08-.23.13-.48,0-.73.06Z"/>
        <path class="cls-2" d="m148.99,126.78c.02.11.04.21.06.33.09-.18.17-.34.25-.5.01-.03,0-.08,0-.11-.05-.18-.16-.33-.29-.45-.02-.02-.04-.03-.07-.04,0-.01.02-.03.03-.04.07.04.14.06.2.11.17.14.25.34.32.54,0,.02,0,.05-.01.06-.18.23-.31.49-.39.77,0,0,0,0-.01,0-.09-.12-.13-.49-.07-.69Z"/>
        <path class="cls-2" d="m147.5,124.04c-.17.04-.32,0-.46-.12-.1-.1-.22-.18-.35-.25.12.31.2.63.18.96-.07-.45-.26-.86-.53-1.23,0,0,0-.02.01-.02.12.05.25.09.37.15.11.07.22.15.31.24.13.14.26.25.46.26Z"/>
        <path class="cls-2" d="m148.64,126.44c.07.34.13.68.27.99.04.08.03.14-.03.21-.1.11-.18.24-.27.36-.16-.21-.26-.43-.14-.71.03.15-.03.31.13.41,0-.01,0-.03,0-.05,0,0,.01,0,.02.01,0,.03.02.06.03.11.06-.19.08-.37.06-.54-.02-.16-.06-.31-.07-.47-.01-.11,0-.22,0-.33Z"/>
        <path class="cls-2" d="m147.16,125.58c.29-.03.56-.05.83.14-.18-.02-.34-.13-.51,0,.17.27.28.58.29.9-.08-.17-.16-.36-.25-.53-.1-.17-.22-.33-.35-.51Z"/>
        <path class="cls-2" d="m148.05,117.63c.28-.15.56-.28.88-.32-.07.05-.13.1-.22.16.28.07.51.17.7.37-.44-.19-.88-.31-1.37-.21Z"/>
        <path class="cls-2" d="m150.1,124.94c.11-.29.13-.57.11-.86,0-.09-.05-.14-.13-.18-.16-.08-.31-.17-.48-.26.14,0,.25.04.37.09.1.04.21.07.32.09.07.01.1.04.09.11-.04.24-.07.49-.11.73-.02.1-.04.21-.16.28Z"/>
        <path class="cls-2" d="m146.75,115.73c.06.1.13.2.19.3-.14.04-.13.04-.19-.07-.04-.08-.09-.16-.16-.22-.16-.13-.18-.3-.18-.51.22.27.47.48.76.64,0,0,0,.01,0,.02-.07-.02-.15-.04-.22-.07-.07-.03-.14-.07-.21-.11Z"/>
        <path class="cls-2" d="m149.74,121.91c-.16.13-.31.26-.48.39-.2.15-.31.33-.3.59,0,.07,0,.15-.02.24-.15-.31-.08-.65.16-.84.2-.15.41-.27.61-.41,0,0,.01.02.02.03Z"/>
        <path class="cls-2" d="m146.97,124.76s.1-.02.16-.02c.03,0,.07,0,.1,0,.22-.08.38.04.52.19-.06-.02-.13-.04-.19-.08-.14-.09-.28-.03-.43,0-.02,0-.04.05-.04.08,0,.13.02.27.04.42.07-.05.13-.1.19-.14-.02.1-.12.2-.23.23-.04-.22-.08-.44-.13-.67Z"/>
        <path class="cls-2" d="m148.31,126.33s-.03.03-.04.03c-.17.07-.23.21-.24.37,0,.03,0,.07.02.1.06.09.13.18.19.28,0-.01.02-.03.03-.05v.22c-.05-.07-.09-.12-.13-.17-.05-.05-.1-.09-.15-.14-.09-.08-.1-.13-.06-.24.02-.05.03-.1.05-.16.02-.1.08-.16.17-.2.05-.02.1-.03.15-.05,0,0,0,0,.01.01Z"/>
        <path class="cls-2" d="m150.1,119.51c.18-.24.38-.43.7-.41,0,0,0,.02.01.02-.24.13-.47.25-.71.39Z"/>
        <path class="cls-2" d="m149.55,115.83c.25-.14.55-.2.65-.52-.02.13-.02.26-.14.34-.04.03-.07.08-.1.12-.01.02-.03.05-.05.05-.12,0-.24,0-.37.01Z"/>
        <path class="cls-2" d="m149.07,115.81c.22-.12.45-.25.67-.37,0,0,0,.02.01.02-.17.22-.42.31-.67.37,0,0,0-.01,0-.02Z"/>
        <path class="cls-2" d="m149.86,116.33v.29c-.11,0-.13-.03-.13-.13,0-.02,0-.04,0-.06q0-.12.13-.1Z"/>
        <path class="cls-2" d="m146.86,116.68c0-.1.02-.12.14-.1-.01.08-.09.07-.14.1Z"/>
        <path class="cls-1" d="m147.48,116.7c.6-.3,1.24-.48,1.92-.58-.65.2-1.28.39-1.92.58Z"/>
      </g>
      <g>
        <g>
          <g>
            <path class="cls-2" d="m138.27,119.54c-.76,1.07-1.85-5.24-1.85-7.17s9.16.18,6.1,1.91-3.49,4.19-4.25,5.27Z"/>
            <path class="cls-3" d="m138.09,119.91c-.05,0-.1-.01-.13-.02-1.01-.32-1.8-6.12-1.8-7.53,0-.28.15-.79,1.14-.96,1.76-.31,5.58.56,6.04,1.85.11.32.08.79-.7,1.24-2.22,1.26-3.01,2.91-3.59,4.12-.2.42-.38.78-.58,1.07-.13.18-.28.23-.39.23Zm.05-8.07c-.27,0-.52.02-.75.06-.33.06-.73.18-.73.47,0,1.88.88,6.49,1.41,7.02.17-.25.34-.59.53-.98.61-1.27,1.44-3.01,3.8-4.34.39-.22.55-.43.48-.63-.27-.76-2.91-1.58-4.73-1.58Z"/>
          </g>
          <g>
            <path class="cls-2" d="m134.2,112.16c-.53.75-1.3-3.67-1.3-5.03s6.42.13,4.28,1.34c-2.14,1.21-2.45,2.94-2.98,3.69Z"/>
            <path class="cls-3" d="m134.07,112.5s-.09,0-.11-.02c-.78-.25-1.31-4.5-1.31-5.35,0-.22.11-.61.86-.75,1.26-.22,3.99.42,4.32,1.34.07.2.1.6-.53.96-1.54.87-2.09,2.02-2.49,2.86-.14.3-.27.56-.41.76h0c-.11.16-.24.19-.33.19Zm.05-5.66c-.19,0-.36.01-.52.04-.13.02-.45.09-.45.25,0,1.22.54,4.17.91,4.79.1-.16.2-.36.3-.59.41-.85,1.02-2.13,2.69-3.08.13-.08.35-.22.3-.35-.16-.46-1.95-1.06-3.24-1.06Z"/>
          </g>
          <g>
            <path class="cls-2" d="m132,106.2c-.47.67-1.15-3.25-1.15-4.45s5.68.11,3.79,1.18c-1.89,1.07-2.17,2.6-2.64,3.27Z"/>
            <path class="cls-3" d="m131.89,106.53s-.09,0-.11-.02c-.74-.24-1.18-4.1-1.18-4.76,0-.21.1-.57.79-.69,1.13-.2,3.55.35,3.85,1.21.07.19.1.56-.48.88-1.35.77-1.84,1.78-2.19,2.52-.13.27-.24.49-.37.68h0c-.1.15-.23.18-.32.18Zm.05-5.01c-.17,0-.32.01-.46.04-.18.03-.37.1-.37.2,0,1.04.46,3.56.78,4.18.08-.13.16-.3.24-.48.36-.75.91-1.89,2.4-2.74.09-.05.29-.18.25-.28-.14-.4-1.7-.92-2.83-.92Z"/>
          </g>
        </g>
        <g>
          <g>
            <path class="cls-2" d="m157.61,120.22c.76,1.07,1.85-5.24,1.85-7.17,0-1.93-9.16.18-6.1,1.91s3.49,4.19,4.25,5.27Z"/>
            <path class="cls-3" d="m157.8,120.59c-.11,0-.26-.04-.39-.23-.2-.29-.38-.65-.58-1.07-.58-1.21-1.37-2.87-3.59-4.12-.79-.45-.82-.92-.7-1.24.46-1.28,4.28-2.15,6.04-1.85.99.17,1.14.67,1.14.96,0,1.41-.79,7.2-1.8,7.53-.03,0-.07.02-.13.02Zm.05-.49h0Zm-.1-7.58c-1.82,0-4.46.82-4.73,1.58-.07.2.09.41.48.63,2.36,1.33,3.19,3.07,3.8,4.34.19.39.35.73.53.98.53-.53,1.41-5.13,1.41-7.02,0-.28-.4-.41-.73-.46-.22-.04-.48-.06-.75-.06Z"/>
          </g>
          <g>
            <path class="cls-2" d="m161.43,111.61c.53.75,1.3-3.67,1.3-5.03s-6.42.13-4.28,1.34,2.45,2.94,2.98,3.69Z"/>
            <path class="cls-3" d="m161.55,111.95c-.09,0-.22-.03-.33-.19h0c-.15-.21-.27-.46-.41-.76-.4-.84-.95-1.99-2.49-2.86-.63-.36-.6-.75-.53-.96.33-.93,3.06-1.56,4.32-1.34.75.13.86.52.86.75,0,.85-.53,5.1-1.31,5.35-.02,0-.06.02-.11.02Zm.07-.48l-.2.14.21-.14s0,0,0,0Zm-.12-5.18c-1.29,0-3.07.6-3.24,1.06-.05.13.17.28.3.35,1.67.95,2.29,2.23,2.69,3.08.11.23.21.43.3.59.37-.62.91-3.56.91-4.79,0-.16-.31-.23-.45-.25-.16-.03-.34-.04-.52-.04Z"/>
          </g>
          <g>
            <path class="cls-2" d="m162.43,103.7c.47.67,1.15-3.25,1.15-4.45,0-1.2-5.68.11-3.79,1.18s2.17,2.6,2.64,3.27Z"/>
            <path class="cls-3" d="m162.54,104.03c-.09,0-.21-.03-.32-.18-.13-.18-.24-.41-.37-.68-.35-.74-.84-1.75-2.19-2.52-.57-.33-.55-.69-.48-.88.31-.86,2.73-1.4,3.85-1.21.68.12.79.48.79.69,0,.66-.44,4.52-1.18,4.76-.02,0-.06.02-.11.02Zm.09-.47l-.2.14.21-.14h0Zm-.14-4.54c-1.13,0-2.69.52-2.83.92-.04.1.17.23.25.28,1.49.84,2.03,1.98,2.39,2.74.09.18.16.34.24.48.32-.62.78-3.14.78-4.18,0-.1-.19-.16-.37-.2-.14-.02-.3-.04-.46-.04Z"/>
          </g>
        </g>
      </g>
    </g>
    <g>
      <path class="cls-5" d="m239.39,102.95c-3.22-5.22-20.99-9.7-29.93-5.53-8.93,4.17-5.64,15.42-2.42,20.65,3.22,5.22,13.07,6.07,22,1.89,8.93-4.17,13.56-11.79,10.34-17.01Z"/>
      <g class="cls-4">
        <path class="cls-7" d="m239.39,102.95c-.26-.42-.62-.84-1.06-1.24.75,4.92-3.72,10.92-11.28,14.45-8.68,4.06-18.21,3.36-21.7-1.48.52,1.28,1.11,2.43,1.7,3.39,3.22,5.22,13.07,6.07,22,1.9,8.93-4.17,13.56-11.79,10.34-17.01Z"/>
      </g>
      <g class="cls-6">
        <ellipse class="cls-7" cx="214.06" cy="99.11" rx="1.5" ry="1.3"/>
      </g>
      <g class="cls-6">
        <ellipse class="cls-7" cx="219.77" cy="101.1" rx="1.5" ry="1.3"/>
      </g>
      <g class="cls-6">
        <ellipse class="cls-7" cx="213.06" cy="104.51" rx="2.53" ry="2.19"/>
      </g>
      <g class="cls-6">
        <ellipse class="cls-7" cx="228.51" cy="103.21" rx="2.18" ry="1.89"/>
      </g>
      <g class="cls-6">
        <ellipse class="cls-7" cx="220.93" cy="108.31" rx="1.61" ry="1.39"/>
      </g>
      <g class="cls-6">
        <ellipse class="cls-7" cx="235.16" cy="105.21" rx="1.61" ry="1.39"/>
      </g>
      <g class="cls-6">
        <ellipse class="cls-7" cx="212.16" cy="111.61" rx="1.41" ry="1.22"/>
      </g>
      <g class="cls-6">
        <ellipse class="cls-7" cx="226.36" cy="110.21" rx="1.41" ry="1.22"/>
      </g>
      <g class="cls-6">
        <ellipse class="cls-7" cx="222.36" cy="114.81" rx="1.05" ry=".92"/>
      </g>
      <g class="cls-6">
        <ellipse class="cls-7" cx="216.36" cy="112.01" rx="1.05" ry=".92"/>
      </g>
      <g class="cls-6">
        <ellipse class="cls-7" cx="206.96" cy="107.41" rx="1.05" ry=".92"/>
      </g>
      <g class="cls-6">
        <ellipse class="cls-7" cx="215.15" cy="116" rx=".73" ry=".63"/>
      </g>
      <g class="cls-6">
        <ellipse class="cls-7" cx="225.34" cy="99.11" rx=".73" ry=".63"/>
      </g>
      <g class="cls-6">
        <ellipse class="cls-7" cx="207.24" cy="102.2" rx=".73" ry=".63"/>
      </g>
      <g class="cls-6">
        <ellipse class="cls-7" cx="208.99" cy="105.15" rx=".73" ry=".63"/>
      </g>
      <g class="cls-6">
        <ellipse class="cls-7" cx="228.02" cy="99.78" rx=".73" ry=".63"/>
      </g>
    </g>
  </g>
  <rect class="cls-2" x="143.05" y="65.03" width="1.79" height="1.25" rx=".4" ry=".4"/>
</svg>