<?xml version="1.0" encoding="UTF-8"?>
<svg id="Layer_1" data-name="Layer 1" xmlns="http://www.w3.org/2000/svg" width="300" height="225" viewBox="0 0 300 225">
  <defs>
    <style>
      .cls-1 {
        fill: #754103;
      }

      .cls-2 {
        fill: #262626;
      }

      .cls-3 {
        fill: #fff;
      }

      .cls-4 {
        fill: #23140a;
      }

      .cls-5 {
        fill: #26c0ef;
      }

      .cls-6 {
        opacity: .5;
      }

      .cls-7 {
        opacity: .2;
      }

      .cls-8 {
        fill: #d0dae3;
      }

      .cls-9 {
        isolation: isolate;
        opacity: .35;
      }

      .cls-10 {
        fill: #232323;
      }

      .cls-11 {
        fill: #3a393e;
      }

      .cls-12 {
        fill: #444;
      }

      .cls-13 {
        fill: #dda905;
      }

      .cls-14 {
        fill: #d5f225;
      }

      .cls-15 {
        fill: #281d10;
      }

      .cls-16 {
        fill: #7f7f7f;
      }

      .cls-17 {
        fill: #e7ecf0;
      }

      .cls-18 {
        fill: #231f20;
      }

      .cls-19 {
        fill: #ffcf15;
      }
    </style>
  </defs>
  <g>
    <g class="cls-9">
      <ellipse class="cls-10" cx="223.47" cy="195.26" rx="19.06" ry="3.08"/>
    </g>
    <g class="cls-9">
      <ellipse class="cls-10" cx="174.86" cy="194.13" rx="13.43" ry="4.87"/>
    </g>
    <g class="cls-9">
      <ellipse class="cls-10" cx="199.25" cy="205.1" rx="13.43" ry="4.87" transform="translate(-9.13 9.29) rotate(-2.61)"/>
    </g>
    <g class="cls-9">
      <ellipse class="cls-10" cx="223.34" cy="205.37" rx="9.05" ry="4.87"/>
    </g>
    <g class="cls-9">
      <ellipse class="cls-10" cx="238.26" cy="201.95" rx="7.03" ry="3.16"/>
    </g>
    <g>
      <path class="cls-8" d="m231.87,171.74c-.63-.22-1.35-.29-2.21-.22-.14.01-.29.03-.43.05-.12.02-.25.03-.37.04l-.39.03c-.14.01-.28.02-.42.03-.14.01-.27,0-.41,0-.11,0-.22,0-.33,0h-.13s-.06-.02-.09-.02c-.26.01-.62-.07-.9-.14-.03,0-.06-.01-.09-.02l-.21-.02c-.13-.03-.24-.03-.34-.04h-.12c-.05-.02-.1-.03-.17-.04h-.21c-.19-.06-.4-.07-.59-.07h-.05c-.07-.02-.15-.03-.22-.03l-.57-.05s-.06,0-.09,0c-.19,0-.37,0-.56,0-.23,0-.47-.02-.72,0l-.34.02c-.24.01-.48.02-.72.04-.45.03-.9.1-1.33.16l-.31.04c-.1.01-.2.04-.31.06-.05.01-.11.03-.16.03-.3.04-.59.12-.84.19l-.17.05c-.28.08-.57.15-.85.24-.28.08-.55.19-.81.29-.11.04-.22.09-.34.13-.28.11-.55.24-.8.37-.15.08-.31.16-.47.23-.16.07-.28.16-.39.23-.06.04-.11.08-.17.11-.47.22-.92.58-1.39.94l-1.17.91s-.07.06-.1.09c0,0,0,0,0,0-.05.04-.1.09-.14.13-.01.02-.03.03-.05.05-.05.05-.11.11-.16.17-.1.12-.22.24-.35.36-.14.14-.29.29-.45.47-.07.06-.13.12-.19.19-.22.27-.4.53-.58.79l-.16.23c-.29.41-.55.8-.8,1.23-.28.49-.52.98-.72,1.46-.01.03-.03.05-.04.08-.04.07-.07.14-.1.21l-.11.26c-.1.25-.21.5-.3.76-.08.25-.16.5-.24.75l-.12.39c-.07.21-.12.43-.17.65-.04.17-.08.34-.13.51-.03.09-.04.18-.06.27,0,.03,0,.06-.02.1s-.02.06-.02.09l-.22,1.42c-.02.09-.04.21-.04.33h0l-.04.24s0,.06,0,.09c0,.4-.06.78-.11,1.11l-.02.16c-.02.12-.03.23-.06.31l-.02.06c-.1.32-.2.64-.3.95-.05.14-.1.28-.16.41-.06.16-.13.32-.18.48-.03.09-.05.18-.08.27-.01.05-.03.11-.04.16-.22.71-.44,1.54-.21,2.45.07.29.4,1.06.87,1.43.37.3.69.48,1.03.59.2.07.39.11.57.15l.19.04c.08.02.16.03.26.03.2.05.52.1.78.09h.17c.37-.02.74-.04,1.12-.08l.37-.05c.3-.04.6-.08.89-.1.35-.03.7-.03,1.07-.03.27,0,.55,0,.82-.02.02,0,.04,0,.06,0,.08,0,.17.01.25.01.09,0,.18,0,.26,0,.11,0,.21,0,.32,0,.04,0,.08,0,.12.01.11.01.23.02.34.02.1,0,.19,0,.29,0,.12,0,.24,0,.36,0,.1,0,.21,0,.31.01.16.01.32.02.47.01.31-.01.62-.02.93-.03.51-.01,1.04-.03,1.58-.07.51-.04,1.02-.12,1.51-.2.24-.04.49-.08.73-.11.13-.02.25-.05.37-.09l.09-.03c.12-.03.24-.06.37-.1.15-.04.31-.08.46-.12.11-.03.22-.07.33-.11.07-.02.13-.05.2-.07.45-.14.89-.34,1.31-.54.14-.06.28-.13.42-.19.02-.01.05-.02.07-.04l.22-.13c.12-.06.24-.13.36-.2.09-.05.18-.11.27-.15.04-.02.08-.04.11-.07l1.45-1.11c.06-.05.12-.1.17-.15l.21-.17s.06-.05.09-.09c.12-.14.25-.27.38-.41.19-.2.39-.4.57-.63l.1-.13c.13-.17.26-.34.37-.5.01-.02.03-.04.05-.06.06-.07.11-.14.16-.22.09-.14.17-.28.26-.43.14-.23.29-.46.42-.69.7-1.23,1.12-2.48,1.53-3.7l.09-.26c.05-.15.09-.31.14-.47.03-.11.06-.22.09-.33.03-.1.06-.21.08-.32.01-.06.02-.12.04-.17.08-.24.14-.48.2-.73.05-.21.11-.42.17-.63.03-.11.06-.23.08-.34.01-.06.02-.13.04-.18.1-.33.18-.65.25-.97.08-.35.16-.68.27-1,.18-.56.4-1.22.66-1.87.1-.25.19-.49.27-.74.04-.11.06-.23.08-.34.01-.06.02-.12.04-.18.3-.97.25-1.9-.14-2.83-.08-.18-.19-.32-.3-.47-.37-.48-.8-.79-1.35-.98Z"/>
      <path class="cls-10" d="m232.28,173.71c.05.12.08.24.12.36-.08,0-.16.01-.24.05-.82.33-1.44.99-1.71,1.78-.77-.33-1.67-.32-2.46.07-.79.39-1.34,1.1-1.55,1.91-.79-.27-1.69-.19-2.44.26-.76.45-1.25,1.2-1.39,2.02-.81-.2-1.7-.05-2.41.46s-1.15,1.3-1.22,2.13c-.82-.13-1.69.09-2.36.65-.67.56-1.04,1.38-1.05,2.22-.83-.07-1.68.22-2.31.84-.63.62-.93,1.47-.87,2.3-.84,0-1.66.36-2.24,1.03-.58.67-.81,1.54-.68,2.37-.84.07-1.63.49-2.15,1.21-.05.07-.08.15-.11.23-.1-.06-.21-.14-.34-.24-.09-.07-.24-.33-.33-.53.16,0,.31-.04.44-.14.05-.04.09-.08.13-.13.52-.71.72-1.56.59-2.38.83-.06,1.63-.44,2.2-1.1.58-.66.84-1.49.77-2.32.83.01,1.65-.31,2.27-.92.62-.61.95-1.42.95-2.25.83.08,1.67-.18,2.33-.74.67-.56,1.06-1.34,1.13-2.17.81.14,1.67-.04,2.38-.55.71-.51,1.17-1.26,1.3-2.07.8.21,1.66.09,2.41-.36.75-.45,1.26-1.17,1.46-1.97.78.27,1.65.22,2.44-.17.78-.39,1.35-1.07,1.62-1.86.76.33,1.63.35,2.45.02.22-.09.36-.27.41-.49.11.09.23.19.35.36.03.05.08.11.09.13Z"/>
      <path class="cls-17" d="m207.45,188.59c.06-.19.08-.37.1-.52l.02-.13c.06-.36.11-.79.13-1.25l.04-.24s0-.06,0-.09c0-.06.01-.11.02-.16l.22-1.43c.02-.07.03-.14.04-.21,0-.03,0-.07.02-.1.06-.2.1-.39.15-.59.04-.18.08-.36.14-.54l.12-.4c.07-.24.15-.48.23-.72.08-.23.17-.45.26-.67l.11-.27s.02-.05.04-.08c.04-.07.07-.13.1-.2.17-.42.39-.86.64-1.3.22-.38.47-.74.74-1.13l.17-.24c.17-.25.33-.48.54-.73.06-.05.13-.11.18-.18.1-.12.21-.23.33-.35.15-.15.3-.3.44-.47.02-.02.04-.04.06-.06.03-.03.06-.06.09-.1.01,0,.03-.02.03-.02.05-.04.09-.07.12-.11l1.13-.87c.38-.3.78-.6,1.12-.77.15-.07.27-.15.37-.22.06-.04.13-.09.17-.11.18-.08.35-.17.53-.26.23-.12.45-.23.66-.31.12-.05.24-.09.36-.14.24-.1.48-.19.7-.25.27-.08.55-.16.82-.23l.18-.05c.23-.06.46-.13.68-.15.1-.02.2-.04.31-.06.05-.01.11-.03.16-.04l.31-.04c.43-.06.83-.12,1.24-.15.23-.02.45-.03.68-.04l.35-.02c.2-.01.4,0,.6,0,.2,0,.41.01.61,0l.56.05s.05,0,.08,0c.02,0,.04,0,.06,0,.09.01.18.02.28.02.09,0,.2,0,.29.03.04,0,.07.01.11.02l.27.02c.05.01.11.02.16.03h.13c.06.01.11.02.17.03.03,0,.06.01.09.01l.21.02c.33.08.76.18,1.18.17h.14s.06.02.09.02c.11,0,.21,0,.32,0,.03,0,.07,0,.1,0-.1.56-.46,1.04-.99,1.31-.67.33-1.45.23-1.99-.27-.21-.2-.53-.24-.79-.1-.26.14-.4.43-.35.72.12.73-.22,1.46-.86,1.85-.64.39-1.43.34-2.01-.11-.23-.18-.55-.19-.79-.03-.25.16-.36.46-.29.74.18.72-.09,1.46-.71,1.9-.61.43-1.4.45-2.02.05-.24-.16-.56-.15-.8.03h0c-.23.18-.32.49-.23.76.24.7.02,1.46-.55,1.94-.57.48-1.37.56-2.02.21-.26-.14-.57-.1-.79.1-.22.2-.28.51-.16.78.29.67.14,1.45-.39,1.97-.54.53-1.32.67-2,.37-.27-.12-.58-.05-.78.16-.2.22-.24.53-.1.79.35.64.25,1.43-.24,1.99-.38.44-.94.66-1.49.63.02-.05.04-.11.05-.16v-.06Z"/>
      <path class="cls-17" d="m232.3,175.95c-.01.06-.02.13-.04.19-.07.22-.15.44-.24.66-.27.69-.5,1.37-.69,1.95-.12.37-.21.75-.3,1.11-.07.3-.14.59-.23.89-.03.11-.06.23-.08.35-.01.06-.02.12-.04.18-.07.23-.13.46-.18.69-.06.22-.11.44-.18.66-.03.1-.05.21-.07.31-.01.06-.02.12-.04.18-.04.13-.08.26-.11.39-.03.13-.07.26-.11.38l-.09.26c-.39,1.16-.79,2.35-1.42,3.46-.12.22-.26.43-.39.64-.09.15-.19.3-.28.45-.01.02-.03.04-.04.05-.04.05-.08.1-.12.15-.1.15-.22.3-.33.45l-.1.13c-.13.17-.29.33-.46.51-.14.14-.27.28-.4.43l-.2.16s-.05.04-.07.07c-.01.01-.02.02-.03.03l-.16.12-.57.44-.65.49c-.11.05-.21.12-.31.18-.09.05-.18.11-.27.15-.02,0-.04.02-.06.03l-.21.13c-.13.06-.27.12-.4.18-.39.19-.77.36-1.13.47-.1.03-.2.07-.29.1-.07.03-.14.05-.21.07-.14.04-.29.08-.43.11-.13.03-.27.07-.39.1l-.12.03c-.06.02-.12.04-.18.04-.26.04-.51.08-.76.12-.48.08-.94.15-1.4.19-.5.04-1.01.05-1.51.07-.32,0-.63.02-.95.03-.1,0-.21,0-.31-.01-.16-.01-.31-.02-.47-.01-.1,0-.21,0-.31,0-.11,0-.22,0-.33,0-.04,0-.08,0-.12-.01-.11-.01-.23-.03-.34-.02-.09,0-.17,0-.26,0-.11,0-.22,0-.32,0-.02,0-.04,0-.06,0-.09,0-.17-.02-.26-.01-.26.01-.52.01-.78.02-.37,0-.76,0-1.15.04-.32.02-.65.07-.97.11l-.36.05c-.33.04-.66.05-1.01.07h-.18s-.13,0-.22-.01c.44-.44,1.08-.58,1.67-.36.28.1.59.02.77-.21.18-.23.19-.55.03-.8-.4-.59-.36-1.37.12-1.92.47-.55,1.23-.72,1.88-.41.27.13.58.07.79-.15.2-.22.24-.54.09-.79-.35-.63-.25-1.39.27-1.9.52-.51,1.28-.61,1.9-.25.25.15.58.11.79-.08s.28-.52.16-.78c-.3-.65-.13-1.4.42-1.87.55-.46,1.32-.5,1.91-.09.24.17.56.16.8-.02.23-.18.32-.49.22-.77-.25-.67-.02-1.41.57-1.83.59-.42,1.36-.4,1.91.06.23.19.55.21.8.04.25-.16.36-.46.28-.75-.2-.69.09-1.41.72-1.78.62-.37,1.39-.29,1.91.21.21.2.53.25.79.11.26-.14.4-.43.34-.72-.14-.71.21-1.4.86-1.72.66-.32,1.42-.18,1.89.36.2.22.51.29.78.17.05-.02.1-.05.14-.08.18-.14.28-.37.26-.61-.07-.62.23-1.2.76-1.52-.01.05-.02.09-.03.14-.03.1-.05.21-.07.32Z"/>
    </g>
    <g>
      <g>
        <path class="cls-4" d="m191.91,193.06c.08-.25-.29-.75-.62-.88-.7-.27-1.39-.56-1.99-1-.49-.37-.84-.79-.89-1.31-.01-.12.02-.18.17-.21.5-.1.79-.35.81-.8.01-.22.33-.35.62-.26.61.2,1.1.04,1.27-.44.17.06.34.11.48.18.32.16.63.23.95.21.16,0,.32-.02.47-.04.31-.03.32-.04.3-.31-.05-.64-.22-1.28-.49-1.92-.68-1.61-1.83-3.05-3.24-4.4-.5-.47-1.05-.9-1.67-1.26-.15-.09-.28-.12-.42-.06-.2.08-.42.16-.62.24-.35.15-.57.38-.63.72-.03.15-.14.29-.23.42-.02.03-.11.03-.17.03-.19-.01-.41-.06-.58-.04-.4.06-.59.29-.61.65-.11-.07-.2-.12-.29-.17-.47-.26-.88-.24-1.14.08-.07.09-.14.07-.24.03-.43-.19-.76-.46-.95-.83-.44-.89-.59-1.77-.48-2.63.03-.2-.03-.25-.27-.24-.92.04-1.84.07-2.76.11-.13,0-.27.06-.35.14-1.39,1.33-2.79,2.65-4.54,3.7-.39.23-.55.58-.47,1.02.07.37-.08.62-.38.83-.64.44-1.32.84-2.07,1.16-.1.04-.18.13-.21.22-.32,1.07-.93,1.97-2.05,2.54-.05.02-.1.06-.11.1-.03.22-.19.37-.38.48-.27.16-.58.28-.86.43-.08.04-.15.11-.19.18-.13.27-.22.55-.36.81-.28.51-.63.98-1.21,1.29-.06.03-.09.1-.09.16.02.68-.17,1.27-.76,1.69-.29.21-.5.49-.59.83-.04.16.01.21.22.24.2.02.41.03.6.08.35.09.69.2,1.04.3.11.03.24.08.34.08.57-.05,1.16-.04,1.75.1.49.12.93.13,1.39.09.88-.08,1.77-.12,2.71.04.07.01.17-.02.21-.06.12-.14.26-.12.44,0,.14.09.27.13.44.09.72-.17,1.46-.33,2.19-.49.04-.01.09-.02.14-.01.57.12,1.14.24,1.7.35.12.02.26.06.37.03.58-.13,1.16-.22,1.82.04.2.08.36.04.52-.03.33-.14.66-.32,1.09-.29.67.05,1.34.14,2,.2.11.01.22,0,.32-.02.31-.1.6-.22.91-.31.47-.13.95-.26,1.53-.1.45.12.9.25,1.36.36.11.03.25.03.34,0,.47-.15.92-.31,1.39-.46.55-.18,1.12-.33,1.75-.36.14,0,.29-.07.39-.14.45-.31.7-.73.85-1.21Zm-25.66,1.78s.08-.08.13-.12c-.06.04-.09.08-.13.12Zm-.11.12h0s.03.02.04.02c-.01,0-.03-.01-.04-.02Z"/>
        <path class="cls-3" d="m173.11,195.76c-.2,0-.35-.08-.45-.15-.08-.06-.12-.06-.12-.06-.11.14-.31.18-.44.16-.93-.16-1.82-.11-2.64-.04-.55.05-1.01.02-1.47-.09-.5-.12-1.03-.15-1.67-.1-.13.01-.25-.03-.37-.06l-.07-.02c-.13-.04-.25-.07-.38-.11-.22-.07-.44-.13-.66-.19-.13-.03-.26-.04-.39-.05l-.19-.02c-.13-.02-.3-.05-.39-.19-.1-.15-.05-.31-.04-.36.11-.39.34-.73.69-.97.47-.33.68-.79.66-1.48,0-.16.09-.32.22-.39.45-.24.8-.6,1.11-1.18.08-.14.14-.29.2-.43.05-.12.1-.24.16-.36.06-.12.16-.23.3-.3.12-.07.25-.13.38-.19.16-.08.32-.15.47-.24.21-.12.25-.22.26-.3.01-.12.1-.22.24-.29.97-.49,1.58-1.25,1.93-2.39.05-.16.18-.31.35-.38.7-.31,1.36-.68,2.02-1.14.24-.17.32-.33.27-.58-.1-.54.11-1,.58-1.28,1.66-.99,2.96-2.19,4.49-3.66.12-.12.32-.2.51-.21.69-.03,1.38-.06,2.08-.08l.69-.03c.15,0,.32,0,.44.13.12.14.1.32.09.39-.11.82.05,1.66.46,2.49.14.29.41.52.81.71.34-.37.85-.4,1.41-.09h0c.12-.28.38-.46.74-.51.15-.02.3,0,.44.02.06,0,.13.02.19.02,0,0,0,0,0,0,.06-.09.12-.17.13-.24.07-.41.33-.72.78-.91.12-.05.23-.09.35-.14.09-.03.18-.07.27-.11.2-.09.42-.06.64.07.61.36,1.17.78,1.72,1.3,1.58,1.5,2.66,2.97,3.3,4.48.3.71.47,1.37.51,2,.03.44-.11.53-.52.58-.16.02-.33.03-.49.04-.38.02-.73-.06-1.08-.24-.08-.04-.16-.07-.24-.1-.28.43-.83.58-1.47.37-.15-.05-.27.01-.29.04-.01.31-.16.85-.97,1.02.06.38.32.73.78,1.08.59.44,1.28.72,1.93.97.4.15.91.75.77,1.18h0c-.19.59-.5,1.03-.95,1.34-.15.11-.34.17-.52.18-.63.03-1.18.19-1.69.35-.2.06-.39.13-.59.2-.27.09-.53.18-.8.27-.14.04-.32.04-.47,0-.42-.1-.84-.22-1.26-.34l-.1-.03c-.52-.14-.94-.02-1.39.1-.17.05-.33.11-.49.16-.14.05-.27.1-.41.14-.15.04-.31.04-.41.03-.25-.02-.5-.05-.75-.08-.42-.05-.83-.09-1.25-.12-.32-.02-.58.09-.86.22l-.11.05c-.18.08-.41.15-.71.03-.59-.23-1.11-.15-1.68-.02-.15.03-.3,0-.44-.03l-1.73-.36-.52.12c-.57.12-1.14.25-1.71.38-.07.02-.13.02-.19.02Zm-.58-.71c.11,0,.24.04.4.14.11.07.17.08.25.06.57-.14,1.14-.26,1.72-.39l.48-.1c.07-.02.15-.03.24-.01l1.71.35c.1.02.22.04.26.03.63-.14,1.25-.23,1.97.05.1.04.19.03.33-.03l.11-.05c.31-.14.65-.29,1.1-.26.42.03.84.08,1.26.13.25.03.5.06.74.08.09,0,.17,0,.22-.01.13-.04.26-.09.39-.13.17-.06.35-.12.53-.18.47-.13,1.01-.28,1.66-.1l.1.03c.42.11.83.23,1.25.33.08.02.17.02.21,0,.26-.08.53-.17.79-.26.2-.07.4-.13.59-.2.51-.17,1.13-.34,1.82-.37.08,0,.18-.04.26-.09.36-.25.6-.6.76-1.08.01-.11-.23-.47-.47-.57-.66-.25-1.41-.56-2.05-1.03-.61-.46-.94-.94-.99-1.48-.01-.15.01-.41.37-.48.52-.1.6-.36.61-.57,0-.16.09-.3.24-.4.19-.13.46-.17.71-.09.23.07.78.2.96-.29l.09-.24.39.14c.12.04.24.08.35.14.27.14.54.2.83.18.16,0,.31-.02.46-.04.02,0,.05,0,.08,0,0-.01,0-.02,0-.04-.04-.58-.2-1.18-.48-1.84-.61-1.45-1.65-2.86-3.18-4.31-.52-.49-1.05-.89-1.63-1.23-.12-.07-.17-.05-.2-.04-.1.04-.19.08-.29.11-.11.04-.22.08-.33.13-.29.13-.44.29-.48.54-.03.18-.13.32-.22.45l-.05.07c-.1.15-.3.14-.39.14-.07,0-.15-.01-.23-.02-.12-.01-.22-.03-.31-.02-.27.04-.38.16-.4.41l-.02.4-.64-.37c-.37-.2-.64-.2-.82.02-.13.16-.31.2-.54.1-.52-.23-.87-.54-1.07-.95-.45-.91-.62-1.83-.51-2.74,0,0,0,0-.01,0l-.69.03c-.69.03-1.38.05-2.07.08-.08,0-.16.04-.19.07-1.22,1.17-2.74,2.63-4.58,3.73-.3.18-.41.42-.35.76.08.44-.08.8-.48,1.08-.69.48-1.38.87-2.11,1.19-.04.02-.07.05-.07.07-.38,1.25-1.09,2.13-2.17,2.68-.06.24-.22.43-.49.58-.16.09-.33.17-.5.26-.12.06-.24.12-.36.18-.04.02-.07.05-.08.07-.05.11-.1.22-.15.34-.07.16-.13.32-.22.48-.24.44-.59.99-1.27,1.36.01.83-.27,1.44-.87,1.86-.23.16-.39.37-.47.62l.16.02c.15.01.31.03.46.07.23.06.45.13.68.2l.45.14s.03,0,.04.01l.03-.06v-.13s-.09-.1-.09-.1c.05-.05.09-.1.17-.15l.29.41s-.03.03-.05.04c.6-.03,1.13,0,1.62.13.41.1.82.13,1.31.08.86-.08,1.79-.12,2.77.04.05-.07.17-.16.35-.16Zm-6.35-.09s.07.01.09.02c.04,0,.08,0,.12,0l-.16-.14-.06.1v.03Zm0-.2v.1s.04-.06.04-.06h0s0,0,0,0h0s0,0,0,0h0s-.04-.04-.04-.04h0Zm25.5-1.78h0Zm-26.03-.91s0,0,0,0c0,0,0,0,0,0Zm.04-.06h0s0,0,0,0Zm3.08-3.31s0,0,0,0c0,0,0,0,0,0Z"/>
      </g>
      <g>
        <path class="cls-11" d="m191.27,188.17c-.17.48-.66.64-1.27.44-.29-.09-.6.04-.61.26-.02.45-.31.71-.81.8-.15.03-.18.09-.17.21.05.51.4.94.89,1.31.6.44,1.29.73,1.99,1,.33.13.7.62.62.88-.15.48-.41.9-.85,1.21-.1.07-.25.13-.39.14-.63.03-1.2.18-1.75.36-.47.15-.92.32-1.39.46-.09.03-.23.03-.34,0-.45-.11-.9-.24-1.36-.36-.58-.16-1.05-.03-1.53.1-.31.09-.6.21-.91.31-.09.03-.21.03-.32.02-.67-.07-1.34-.16-2-.2-.43-.03-.76.14-1.09.29-.16.07-.32.11-.52.03-.67-.26-1.24-.16-1.82-.04-.1.02-.24,0-.37-.03-.57-.11-1.14-.24-1.71-.35-.05,0-.1,0-.14.01-.73.16-1.47.32-2.19.49-.17.04-.3,0-.44-.09-.18-.12-.32-.14-.44,0-.04.04-.14.07-.21.06-.94-.16-1.83-.12-2.71-.04-.46.04-.9.03-1.39-.09-.59-.14-1.18-.15-1.75-.1-.1,0-.23-.04-.34-.08-.35-.1-.69-.22-1.04-.3-.2-.05-.4-.06-.6-.08-.21-.03-.26-.08-.22-.24.09-.34.29-.62.59-.83.59-.42.78-1,.76-1.69,0-.06.03-.14.09-.16.58-.3.94-.77,1.21-1.28.14-.26.23-.54.36-.81.04-.07.11-.14.19-.18.28-.15.58-.28.86-.43.19-.11.35-.26.38-.48,0-.04.06-.08.11-.1,1.12-.57,1.73-1.47,2.05-2.54.03-.09.11-.18.21-.22.75-.33,1.43-.72,2.07-1.16.3-.21.44-.46.38-.83-.08-.44.08-.79.47-1.02,1.75-1.04,3.15-2.36,4.54-3.7.08-.08.22-.13.35-.14.92-.05,1.84-.08,2.76-.11.24,0,.3.05.27.24-.11.86.04,1.74.48,2.63.18.37.52.64.95.83.11.05.17.06.24-.03.26-.32.67-.34,1.14-.08.09.05.18.1.29.17.02-.36.21-.59.61-.65.18-.03.39.03.58.04.06,0,.15,0,.17-.03.09-.13.2-.27.23-.42.06-.35.28-.57.63-.72.2-.09.41-.16.62-.24.14-.06.27-.03.42.06.62.36,1.17.79,1.67,1.27,1.41,1.34,2.56,2.79,3.24,4.4.27.64.45,1.28.49,1.92.02.27.01.28-.3.31-.16.02-.32.03-.47.04-.32.02-.64-.05-.95-.21-.15-.08-.31-.12-.48-.18Zm-.12,4.76c-.11.35-.37.58-.71.74-.33.16-.69.28-1.05.42.5.2,1.33.16,1.58-.12.25-.29.44-.61.62-.93.1-.18-.16-.53-.41-.64-.35-.14-.7-.28-1.03-.44-.51-.25-1.01-.52-1.4-.91-.53-.54-.82-1.11-.55-1.69.09-.19.04-.38,0-.63-.14.12-.25.21-.37.31-.08-.38-.16-.74-.24-1.1-.02,0-.05,0-.07,0-.02.54-.05,1.07-.04,1.61,0,.19.08.4.18.6.39.78,1.07,1.38,1.94,1.84.34.18.7.32,1.1.5-.23,0-.43,0-.63,0-.44,0-.85-.13-1.2-.43-.26-.21-.52-.42-.78-.63-.04-.03-.08-.06-.12-.09-.01,0-.02.02-.04.03.19.22.38.44.56.66.41.47.92.75,1.58.8.34.02.69.07,1.07.1Zm-.34-4.63c.15-.09.17-.15.04-.31-.23-.28-.45-.56-.71-.82-1.53-1.54-3.27-2.91-5.15-4.17-.23-.16-.48-.3-.72-.44-.09-.05-.2-.05-.31-.07,0,.02,0,.03,0,.05.16.1.31.21.47.31-.26-.06-.49-.23-.8-.16.1.07.17.12.24.17,1.03.73,2.07,1.46,3.08,2.2,1.2.88,2.28,1.84,3.23,2.9.13.15.3.31.05.45.24.04.37,0,.36-.16,0-.12-.06-.24-.1-.36.01,0,.02,0,.03,0,.09.14.19.27.28.41Zm-6.12,5.74c-.44.14-.85.25-1.24.4-.4.15-.82.2-1.3.07-.38-.1-.73-.11-1.06,0-.18.06-.36.02-.56-.08-.33-.16-.67-.3-1-.44-.46-.2-.92-.39-1.38-.59-.16-.07-.32-.16-.48-.24,0,.01-.02.02-.03.04.18.11.35.24.54.33.82.39,1.64.77,2.46,1.15.08.04.18.07.25.07.56-.03,1.13.12,1.7.22.41.07.8.07,1.14-.07.2-.08.42-.14.64-.18.34-.07.68-.11,1.03-.17-.44-1.51-1.97-1.98-3.1-1.65.2.01.36.03.51.03.41-.02.78.12,1.16.3.46.21.65.52.73.85Zm-8.58-4.98c.14-.25.25-.5.42-.72.29-.37.6-.73.92-1.09.17-.18.37-.35.58-.5.4-.27.82-.52,1.23-.78.16-.1.26-.24.27-.43.05-.57.11-1.14.16-1.71.03-.36.02-.73-.14-1.11-.01.05,0,.11-.01.16-.05.43-.07.87-.16,1.29-.09.41-.26.81-.41,1.2-.04.11-.12.21-.21.29-.46.41-.93.81-1.39,1.21,0,0-.03,0-.04,0,0-.24-.02-.47-.03-.7-.02,0-.04,0-.07,0-.02.14-.05.28-.06.42-.04.4-.17.75-.43,1.05-.16.2-.29.43-.45.63-.18.22-.19.49-.2.77Zm8.26-5.55c-.25-.17-.49-.34-.74-.5-.09-.06-.19-.11-.3-.14-.66-.21-1.13-.58-1.42-1.11-.34-.64-.48-1.29-.53-1.93-.01-.15-.01-.31-.02-.5-.09.09-.14.16-.2.22-.26.25-.33.24-.69-.03-.17-.13-.35-.24-.53-.36,0,0-.02.02-.02.03.23.22.47.44.73.69-.35.14-.67.26-1,.39.6.03,1.05-.15,1.5-.37.01.35.05.71-.05,1.02-.17.53,0,1.01.46,1.51-.07-.2-.15-.39-.22-.59.79.91,1.8,1.46,3.04,1.68Zm-7.26-2.85c-.05.04-.1.09-.15.13-.73.65-1.48,1.28-2.34,1.81-.24.15-.48.3-.7.47-.28.22-.37.56-.22.83.15-.36.45-.6.78-.82.26-.17.52-.34.78-.52.46-.32.93-.64,1.42-.98,0,.36.01.69,0,1.02-.02.34-.06.67-.12.99-.06.31-.15.61-.24.96.84-1.15.79-2.53.81-3.9Zm-5.78,6.17c-.05-.38.07-.68.44-.86.59-.29,1.18-.58,1.78-.88,0,0,.03.02.04.04.57.71.83,1.4.29,2.02-.06.06-.1.14-.15.2-.12.14-.24.29-.35.43l.04.03c.18-.12.36-.25.58-.4.09.43.17.83.26,1.24.1-.31.11-.62.02-.94-.1-.34-.05-.63.09-.91.14-.27.15-.57.02-.88-.15-.35-.33-.69-.51-1.04-.07-.14-.18-.27-.28-.41-.16.14-.28.27-.43.37-.45.29-.9.57-1.38.83-.51.28-.69.68-.46,1.14Zm17.04-5.72c1.57,1.43,2.86,2.97,3.48,4.76l.09-.02c-.07-.25-.14-.5-.21-.75.69.93,1.06,1.91,1.43,2.89-.46-2.67-2.23-4.91-4.79-6.89Zm-2.34,13.24c.39.45,1.21.7,1.69.54.39-.12.77-.26,1.15-.39.11-.04.22-.07.36-.11-.07-.05-.11-.08-.15-.11-.85-.6-1.73-1.16-2.24-2-.01-.02-.03-.03-.04-.05-.29-.32-.63-.58-1.08-.79.29.27.6.51.83.78.23.27.39.57.58.86-.32-.08-.61-.15-.9-.22,0,.02-.01.04-.02.06.87.36,1.77.66,2.42,1.38-.31.08-.61.18-.93.23-.51.09-1.04.15-1.66-.19Zm-10.17-1.77s-.04-.01-.06-.02c-.09.19-.16.38-.26.56-.12.23-.15.48-.09.75.06.26.14.53.23.79.01.04.11.11.17.12.26.06.52.1.78.15.52.1,1.03.17,1.51.09.36-.06.72-.03,1.1.09.12.03.27.04.37,0,.25-.09.49-.21.73-.32-.01-.02-.03-.05-.04-.07-.24.04-.48.08-.72.1-.22.02-.46.05-.68,0-.33-.06-.65-.19-.98-.28-.33-.1-.65-.2-.98-.3,0,.01,0,.03-.01.04l.73.38s0,.03,0,.05c-.36-.03-.72-.05-1.09-.09-.21-.02-.49-.02-.63-.13-.14-.11-.13-.34-.18-.51-.1-.31-.12-.59,0-.86.08-.17.07-.37.1-.56Zm-2.6.87c-.08.09-.15.17-.22.24-.13.12-.23.27-.4.35-.25.12-.43.28-.47.53-.04.25-.23.31-.53.3-.65-.02-1.29-.01-1.93-.02-.06,0-.12,0-.2,0,.15-.29.37-.48.65-.64.27-.16.57-.29.86-.44-.87-.03-1.86.68-2.04,1.45.09,0,.17-.01.25-.02.8-.07,1.62-.11,2.46-.02.45.05.54,0,.67-.34.07-.18.13-.41.3-.51.34-.21.53-.48.61-.87Zm14.3-7.63s-.05.02-.08.03c.61,1.12.98,2.25,1.11,3.39.02,0,.04,0,.06.01.07-.16.13-.32.2-.47,0,0,.02,0,.03,0,0,.14,0,.29,0,.46.2-.17.22-.37.2-.58-.03-.61-.26-1.22-.51-1.83-.06-.14-.21-.28-.31-.42-.01,0-.03,0-.04.01.15.52.3,1.03.45,1.55-.02,0-.04,0-.06,0-.02-.04-.03-.09-.05-.13-.24-.56-.46-1.12-.71-1.68-.05-.12-.18-.23-.27-.35Zm-9.97,4.33c.09,0,.18,0,.27,0,.31.03.63.03.94.1.51.1,1.01.2,1.49.13.27-.04.55.02.83.14.41.16.82.21,1.24.13-.34-.07-.65-.12-.96-.21-.3-.09-.58-.23-.9-.36.06-.33.06-.7.35-.97.2-.18.3-.44.44-.66-.02-.01-.04-.02-.06-.03-.2.19-.38.4-.61.56-.3.23-.48.51-.57.85-.08.31-.35.43-.77.37-.09-.01-.19-.04-.28-.05-.5-.09-.97-.1-1.42,0Zm-3.45-.06l-.02-.05c-.08,0-.15,0-.23,0-.35.02-.69.07-1.04.06-.35-.02-.58.09-.78.25-.27.22-.51.47-.8.68-.35.25-.74.46-1.29.46-.18,0-.34.06-.51.1.01.02.02.04.03.06.61-.05,1.22-.1,1.88-.15-.1.21-.16.41-.27.58-.12.16-.28.3-.45.42-.17.12-.38.21-.57.32.57-.12,1.07-.31,1.25-.79.22-.58.4-1.18.99-1.56,0,0,0,0,.01-.01.12-.14.31-.19.53-.21.42-.04.84-.1,1.25-.15Zm12.18-6.97c.46.44.55.99,1.13,1.33-.2-.39-.41-.78-.66-1.16-.21-.32-.46-.62-.71-.92-.11-.14-.27-.23-.46-.14.12.12.24.23.38.38-.69-.34-.78-.35-.8-.08.3.03.49.19.63.41.1.16.23.32.31.49.11.23.34.35.61.54-.15-.3-.28-.54-.42-.82Zm-18.85,11.21c-.5.04-1.2.39-1.32.65.01,0,.03.02.04.02.69-.05,1.39,0,2.11.16.05.01.12,0,.15-.02.32-.27.6-.58.66-.99.02-.14-.03-.3-.04-.45-.04,0-.08-.02-.12-.02,0,.05.02.1,0,.15-.06.35-.23.65-.51.89-.06.05-.14.1-.21.1-.43-.02-.87-.06-1.36-.1.22-.13.39-.24.59-.36Zm3.53-4.82c-.26-.38-.21-.71-.1-1.06.07-.23.09-.5.07-.76-.02-.26-.12-.53-.19-.8-.02,0-.05,0-.07,0-.38.78-.95,1.42-1.78,1.9.7-.22,1.24-.6,1.71-1.06.01.29.01.57-.04.84-.07.34.08.65.39.94Zm-3.32,3.92c-.22.09-.45.16-.65.26-.29.15-.56.34-.85.49-.34.17-.73.26-1.19.29.08-.07.13-.1.17-.14,0-.02,0-.03,0-.05-.04,0-.09.02-.12.02,0-.38.41-.39.66-.56-.74-.02-1.05.33-1.26.78.38.08.75.13,1.11.24.24.07.36.03.48-.1.45-.5,1.05-.86,1.66-1.24Zm-.29-3.41c-.2.37-.35.72-.56,1.03-.21.31-.49.59-.73.87.65-.26,1.12-.68,1.44-1.2.49.22.49.6.69.95.04-.64-.38-1.13-.85-1.65Zm17.47-4.25c.87.83,1.25,1.75,1.46,2.71.14-.5.03-1.02-.21-1.58.24.11.43.2.62.29-.53-.56-1.18-1-1.87-1.41Zm-12.11,9.27c.3.18.56.14.8.1.55-.1,1.09-.23,1.64-.33.18-.03.18-.11.11-.25-.1-.22-.19-.44-.25-.66-.07-.25-.15-.49-.33-.76.04.38.07.74.13,1.09.03.18-.03.31-.19.38-.56.25-1.16.43-1.91.43Zm14.2-13.11c.02.15.03.31.07.46.04.15.1.3.16.45.02,0,.04,0,.06,0-.08-.66.01-1.28.27-1.9-.42.16-.74.33-.79.72-.02.17-.13.32-.23.45-.14.18-.15.17.12.4.12-.2.24-.39.35-.58Zm-8.5,10.18s.02-.03.03-.05c-.56-.28-1.1-.58-1.67-.84-.73-.33-1.51-.19-1.93.31.19-.06.36-.09.51-.15.5-.21,1.04-.14,1.62.12.48.22.96.4,1.45.6Zm-9.64-3.05c-.42.26-.81.51-1.2.75.22.18.56.3.79.26-.17-.08-.35-.16-.56-.25.3-.14.55-.27.82-.38.05-.02.19-.02.22.02.25.24.56.46.58.8,0,.13.07.28.11.41.12-.38.14-.76-.33-1.12-.07-.05-.11-.13-.16-.19-.1-.11-.2-.21-.27-.29Zm-1.36,3.67s0-.02,0-.03c-.1-.08-.2-.16-.31-.24-.2-.14-.41-.21-.64-.17-.12.02-.26.03-.39.03-.29,0-.37.06-.41.29-.02.13-.05.25-.08.38-.04.12-.09.23-.15.38l.44-.17c-.08,0-.12-.02-.15-.02.1-.19.19-.38.3-.56.03-.05.1-.09.17-.11.36-.1.72-.09,1.09.17.03.02.08.03.12.05Zm16.39-1.74c.6.36,1.19.7,1.77,1.05.01-.01.02-.03.03-.04-.41-.61-1.06-.86-1.8-1Zm6.76-3.77c.19.24.35.46.53.68.02.03.1.04.16.05.13.03.27.04.38.1.34.17.6.06.89,0-.79.05-1.33-.46-1.96-.84Zm-.61-.92s-.02.02-.03.03c.49.44,1,.83,1.69.98,0-.01.02-.03.03-.04-.56-.32-1.12-.65-1.68-.97Zm.01,1.87q-.15-.25-.39-.17s-.09.03-.13.04c-.21.08-.22.13-.08.36.2-.08.39-.15.59-.23Zm-4.85-5.35c.14.07.22.22.41.18-.13-.23-.19-.26-.41-.18Z"/>
        <path class="cls-3" d="m191.15,192.93c-.38-.04-.72-.08-1.07-.1-.66-.04-1.17-.33-1.58-.8-.19-.22-.38-.44-.56-.66.01,0,.02-.02.04-.03.04.03.08.05.12.09.26.21.52.42.78.63.36.3.76.43,1.2.43.2,0,.4,0,.63,0-.39-.18-.76-.31-1.1-.5-.87-.46-1.56-1.06-1.94-1.84-.1-.19-.18-.41-.18-.6,0-.54.02-1.08.04-1.61.02,0,.05,0,.07,0,.08.36.16.72.24,1.1.12-.1.23-.19.37-.31.04.25.08.44,0,.63-.27.58.02,1.14.55,1.69.39.39.88.67,1.4.91.34.16.69.3,1.03.44.25.1.51.46.41.64-.18.32-.38.64-.62.93-.24.28-1.08.33-1.58.12.36-.14.73-.26,1.05-.42.34-.16.59-.4.71-.74Z"/>
        <path class="cls-3" d="m190.81,188.3c-.09-.14-.19-.27-.28-.41-.01,0-.02,0-.03,0,.03.12.09.25.1.36.01.16-.12.2-.36.16.25-.14.09-.3-.05-.45-.95-1.05-2.04-2.02-3.23-2.9-1.02-.75-2.06-1.47-3.08-2.2-.07-.05-.14-.1-.24-.17.31-.07.54.09.8.16-.16-.1-.31-.21-.47-.31,0-.02,0-.03,0-.05.1.02.22.02.31.07.25.14.49.28.72.44,1.88,1.26,3.62,2.63,5.15,4.17.26.26.49.54.71.82.13.16.11.21-.04.31Zm-4.84-4.3c1.27,1.04,2.53,2.08,3.82,3.15-1.14-1.18-2.38-2.24-3.82-3.15Z"/>
        <path class="cls-3" d="m184.69,194.03c-.08-.33-.27-.63-.73-.85-.38-.18-.75-.32-1.16-.3-.15,0-.31-.02-.51-.03,1.13-.32,2.67.14,3.1,1.65-.34.06-.69.1-1.03.17-.22.04-.44.1-.64.18-.34.14-.73.14-1.14.07-.57-.1-1.14-.24-1.7-.22-.08,0-.18-.03-.25-.07-.82-.38-1.64-.76-2.46-1.15-.19-.09-.36-.22-.54-.33,0-.01.02-.02.03-.04.16.08.32.16.48.24.46.2.92.39,1.38.59.34.15.67.29,1,.44.2.09.38.14.56.08.32-.11.67-.1,1.06,0,.48.13.9.08,1.3-.07.39-.15.8-.26,1.24-.4Z"/>
        <path class="cls-3" d="m176.11,189.05c0-.28.02-.55.2-.77.16-.2.28-.43.45-.63.25-.31.39-.66.43-1.05.01-.14.04-.28.06-.42.02,0,.04,0,.07,0,0,.23.02.47.03.7,0,0,.03,0,.04,0,.47-.4.93-.8,1.39-1.21.09-.08.17-.18.21-.29.15-.39.31-.79.41-1.2.09-.42.11-.86.16-1.29,0-.05,0-.11.01-.16.15.38.17.75.14,1.11-.05.57-.11,1.14-.16,1.71-.02.19-.11.32-.27.43-.41.26-.83.51-1.23.78-.22.15-.41.31-.58.5-.32.35-.64.71-.92,1.09-.17.22-.27.47-.42.72Z"/>
        <path class="cls-3" d="m184.37,183.51c-1.24-.22-2.25-.77-3.04-1.68.07.2.15.39.22.59-.45-.5-.62-.98-.46-1.51.1-.31.06-.67.05-1.02-.45.22-.9.41-1.5.37.33-.13.66-.26,1-.39-.26-.25-.5-.47-.73-.69,0,0,.02-.02.02-.03.18.12.36.23.53.36.36.27.44.28.69.03.06-.06.11-.12.2-.22,0,.2.01.35.02.5.06.65.19,1.29.53,1.93.28.53.76.9,1.42,1.11.1.03.21.08.3.14.25.16.49.34.74.5Z"/>
        <path class="cls-3" d="m177.11,180.66c-.02,1.37.03,2.74-.81,3.9.09-.35.19-.65.24-.96.06-.33.1-.66.12-.99.02-.33,0-.66,0-1.02-.49.34-.95.66-1.42.98-.26.17-.52.35-.78.52-.33.22-.63.46-.78.82-.15-.27-.06-.61.22-.83.22-.17.46-.32.7-.47.86-.54,1.61-1.17,2.34-1.81.05-.04.1-.09.15-.13Z"/>
        <path class="cls-3" d="m171.32,186.83c-.23-.46-.05-.86.46-1.14.47-.26.93-.55,1.38-.83.15-.1.27-.23.43-.37.1.14.2.28.28.41.18.34.36.69.51,1.04.13.31.12.61-.02.88-.14.28-.19.57-.09.91.09.32.08.63-.02.94-.09-.42-.17-.81-.26-1.24-.22.15-.4.27-.58.4l-.04-.03c.12-.14.24-.28.35-.43.05-.07.09-.14.15-.2.53-.62.27-1.31-.29-2.02-.02-.02-.04-.04-.04-.04-.6.3-1.19.59-1.78.88-.37.18-.49.47-.44.86Z"/>
        <path class="cls-3" d="m188.36,181.11c2.56,1.98,4.32,4.22,4.79,6.89-.37-.98-.74-1.96-1.43-2.89.07.25.14.5.21.75l-.09.02c-.62-1.79-1.91-3.33-3.48-4.76Z"/>
        <path class="cls-3" d="m186.02,194.35c.62.34,1.14.27,1.66.19.32-.05.62-.15.93-.23-.66-.71-1.56-1.02-2.42-1.38,0-.02.01-.04.02-.06.29.07.59.14.9.22-.19-.29-.35-.6-.58-.86-.23-.27-.53-.51-.83-.78.45.2.79.47,1.08.79.01.02.03.03.04.05.51.83,1.4,1.4,2.24,2,.04.03.08.06.15.11-.13.04-.24.07-.36.11-.38.13-.76.26-1.15.39-.48.16-1.3-.09-1.69-.54Z"/>
        <path class="cls-3" d="m175.85,192.58c-.03.19-.03.39-.1.56-.12.27-.1.56,0,.86.05.18.05.4.18.51.13.11.41.11.63.13.36.04.72.06,1.09.09,0-.02,0-.03,0-.05l-.73-.38s0-.03.01-.04c.33.1.65.2.98.3.33.1.65.22.98.28.23.04.46.01.68,0,.25-.02.48-.07.72-.1.01.02.03.05.04.07-.24.11-.47.23-.73.32-.1.03-.25.03-.37,0-.38-.11-.74-.14-1.1-.09-.48.08-1,0-1.51-.09-.26-.05-.52-.09-.78-.15-.06-.01-.16-.08-.17-.12-.09-.26-.16-.53-.23-.79-.07-.27-.04-.52.09-.75.1-.18.17-.37.26-.56.02,0,.04.01.06.02Z"/>
        <path class="cls-3" d="m173.26,193.44c-.07.39-.26.66-.61.87-.17.1-.23.33-.3.51-.13.33-.21.38-.67.34-.85-.08-1.66-.05-2.46.02-.08,0-.16.01-.25.02.17-.77,1.16-1.47,2.04-1.45-.29.15-.59.28-.86.44-.27.16-.5.36-.65.64.08,0,.14,0,.2,0,.64,0,1.28,0,1.93.02.3,0,.49-.05.53-.3.04-.25.22-.41.47-.53.16-.08.27-.23.4-.35.07-.07.14-.15.22-.24Z"/>
        <path class="cls-3" d="m187.55,185.81c.09.12.22.23.27.35.25.56.48,1.12.71,1.68.02.04.04.09.05.13.02,0,.04,0,.06,0-.15-.52-.3-1.03-.45-1.55.01,0,.03,0,.04-.01.11.14.25.27.31.42.25.61.48,1.22.51,1.83.01.21,0,.41-.2.58,0-.17,0-.31,0-.46,0,0-.02,0-.03,0-.07.16-.13.32-.2.47-.02,0-.04,0-.06-.01-.12-1.14-.49-2.27-1.11-3.39.03-.01.05-.02.08-.03Z"/>
        <path class="cls-3" d="m177.58,190.14c.45-.11.92-.1,1.42,0,.09.02.19.04.28.05.42.06.69-.05.77-.37.09-.34.26-.63.57-.85.23-.17.41-.37.61-.56.02.01.04.02.06.03-.15.22-.25.48-.44.66-.3.28-.29.65-.35.97.32.13.61.27.9.36.3.09.61.14.96.21-.42.08-.83.03-1.24-.13-.28-.11-.56-.17-.83-.14-.49.07-.98-.03-1.49-.13-.31-.06-.63-.07-.94-.1-.09,0-.18,0-.27,0Z"/>
        <path class="cls-3" d="m174.13,190.08c-.42.05-.83.11-1.25.15-.22.02-.41.07-.53.21,0,0,0,0-.01.01-.59.38-.78.98-.99,1.56-.18.48-.68.67-1.25.79.19-.11.4-.2.57-.32.17-.12.33-.26.45-.42.12-.16.18-.36.27-.58-.66.05-1.27.1-1.88.15-.01-.02-.02-.04-.03-.06.17-.03.33-.1.51-.1.55,0,.94-.21,1.29-.46.29-.21.53-.45.8-.68.2-.17.43-.27.78-.25.35.02.69-.04,1.04-.06.08,0,.15,0,.23,0l.02.05Z"/>
        <path class="cls-3" d="m186.31,183.11c.15.28.27.53.42.82-.27-.19-.49-.31-.61-.54-.08-.17-.21-.32-.31-.49-.14-.22-.33-.38-.63-.41.03-.26.11-.26.8.08-.15-.15-.26-.26-.38-.38.19-.09.35,0,.46.14.25.3.5.61.71.92.25.38.46.77.66,1.16-.58-.33-.67-.88-1.13-1.33Z"/>
        <path class="cls-3" d="m167.47,194.32c-.2.12-.38.23-.59.36.49.04.92.07,1.36.1.08,0,.16-.05.21-.1.29-.24.45-.54.51-.89,0-.05,0-.1,0-.15.04,0,.08.02.12.02.02.15.06.31.04.45-.06.41-.34.72-.66.99-.03.02-.1.04-.15.02-.72-.16-1.42-.2-2.11-.16-.01,0-.03-.01-.04-.02.13-.26.82-.61,1.32-.64Z"/>
        <path class="cls-3" d="m170.99,189.5c-.31-.29-.46-.6-.39-.94.05-.27.05-.55.04-.84-.47.46-1.01.84-1.71,1.06.82-.48,1.4-1.12,1.78-1.9.02,0,.05,0,.07,0,.07.27.17.54.19.8.02.26,0,.52-.07.76-.11.34-.16.67.1,1.06Z"/>
        <path class="cls-3" d="m167.68,193.42c-.61.38-1.21.74-1.66,1.24-.11.13-.24.17-.48.1-.36-.1-.73-.16-1.11-.24.21-.46.52-.81,1.26-.78-.26.16-.66.18-.66.56.03,0,.07-.01.12-.02,0,.02,0,.03,0,.05-.05.04-.09.08-.17.14.47-.04.86-.13,1.19-.29.3-.15.56-.34.85-.49.2-.1.43-.17.65-.26Z"/>
        <path class="cls-3" d="m167.39,190.01c.46.51.88,1.01.85,1.65-.2-.35-.2-.73-.69-.95-.32.53-.8.94-1.44,1.2.24-.28.51-.56.73-.87.21-.31.36-.66.56-1.03Z"/>
        <path class="cls-3" d="m184.85,185.76c.69.41,1.34.85,1.87,1.41-.19-.09-.38-.18-.62-.29.24.57.35,1.09.21,1.58-.2-.96-.58-1.88-1.46-2.71Z"/>
        <path class="cls-3" d="m172.74,195.03c.75,0,1.35-.19,1.91-.43.17-.07.22-.2.19-.38-.06-.36-.09-.71-.13-1.09.18.26.26.5.33.76.06.22.15.44.25.66.07.14.07.22-.11.25-.55.11-1.09.23-1.64.33-.24.04-.49.08-.8-.1Z"/>
        <path class="cls-3" d="m186.95,181.92c-.12.19-.23.38-.35.58-.27-.22-.26-.21-.12-.4.1-.14.21-.29.23-.45.05-.39.36-.56.79-.72-.25.62-.34,1.24-.27,1.9-.02,0-.04,0-.06,0-.05-.15-.12-.3-.16-.45-.04-.16-.05-.31-.07-.46Z"/>
        <path class="cls-3" d="m178.45,192.1c-.48-.2-.97-.39-1.45-.6-.58-.26-1.11-.33-1.62-.12-.15.06-.32.09-.51.15.43-.51,1.21-.64,1.93-.31.57.26,1.11.56,1.67.84-.01.02-.02.03-.03.05Z"/>
        <path class="cls-3" d="m168.81,189.05c.07.08.17.18.27.29.06.06.1.14.16.19.48.36.45.74.33,1.12-.04-.14-.1-.28-.11-.41-.02-.33-.33-.55-.58-.8-.03-.03-.17-.04-.22-.02-.26.11-.52.24-.82.38.2.09.39.17.56.25-.23.04-.57-.07-.79-.26.39-.24.78-.48,1.2-.75Z"/>
        <path class="cls-3" d="m167.44,192.72s-.09-.03-.12-.05c-.37-.26-.73-.27-1.09-.17-.07.02-.14.06-.17.11-.11.18-.2.37-.3.56.03,0,.08,0,.15.02l-.44.17c.06-.15.11-.26.15-.38.04-.12.06-.25.08-.38.04-.23.12-.28.41-.29.13,0,.26-.01.39-.03.23-.04.44.04.64.17.11.07.2.16.31.24,0,0,0,.02,0,.03Z"/>
        <path class="cls-3" d="m183.83,190.98c.74.15,1.4.39,1.8,1-.01.01-.02.03-.03.04-.59-.35-1.17-.69-1.77-1.05Z"/>
        <path class="cls-3" d="m190.59,187.22c.63.37,1.17.89,1.96.84-.29.05-.55.16-.89,0-.11-.06-.25-.06-.38-.1-.05-.01-.13-.02-.16-.05-.18-.22-.34-.44-.53-.68Z"/>
        <path class="cls-3" d="m189.98,186.29c.56.32,1.12.65,1.68.97,0,.01-.02.03-.03.04-.68-.16-1.2-.55-1.69-.98.01-.01.02-.02.03-.03Z"/>
        <path class="cls-3" d="m190,188.17c-.2.08-.39.15-.59.23-.15-.23-.14-.28.08-.36.04-.02.08-.03.13-.04q.24-.08.39.17Z"/>
        <path class="cls-3" d="m185.15,182.82c.22-.07.27-.05.41.18-.18.04-.26-.12-.41-.18Z"/>
        <path class="cls-2" d="m185.97,183.99c1.44.91,2.68,1.96,3.82,3.15-1.29-1.06-2.55-2.1-3.82-3.15Z"/>
      </g>
      <g>
        <g>
          <path class="cls-3" d="m192.75,205.54c-1.14,2.22,13.25-.44,17.2-1.88,3.95-1.44-12.98-16.96-12.3-9.98s-3.76,9.64-4.9,11.86Z"/>
          <path class="cls-4" d="m194.88,206.64c-1.16,0-2-.14-2.3-.48-.1-.12-.25-.37-.06-.74h0c.3-.58.8-1.17,1.37-1.85,1.69-2,4-4.73,3.5-9.86-.15-1.5.5-1.94,1.07-2.04,2.92-.53,11.34,7.23,12.24,10.53.31,1.15-.29,1.56-.67,1.7-2.51.91-10.95,2.75-15.15,2.75Zm-1.91-.99c-.06.12-.03.16-.01.18.97,1.1,12.84-.92,16.91-2.41.26-.09.58-.31.36-1.1-.84-3.09-9-10.66-11.67-10.17-.2.04-.8.15-.66,1.5.52,5.34-1.87,8.17-3.61,10.24-.56.66-1.04,1.23-1.31,1.76h0Z"/>
        </g>
        <g>
          <path class="cls-3" d="m215.57,206.25c-.8,1.56,9.3-.31,12.07-1.32,2.77-1.01-9.1-11.9-8.63-7s-2.63,6.76-3.44,8.32Z"/>
          <path class="cls-4" d="m217.06,207.08c-.84,0-1.45-.1-1.66-.35-.15-.16-.16-.38-.05-.6h0c.21-.41.57-.83.97-1.31,1.17-1.39,2.78-3.29,2.44-6.86-.11-1.17.46-1.45.81-1.51,2.12-.38,8.01,5.01,8.67,7.44.24.87-.22,1.18-.52,1.28-1.76.64-7.68,1.92-10.66,1.92Zm-1.27-.72s-.02.05-.02.05c.45.72,8.73-.61,11.78-1.72.12-.04.36-.13.21-.68-.64-2.36-6.4-7.39-8.1-7.08-.13.02-.49.09-.41.97.37,3.78-1.32,5.78-2.55,7.23-.39.46-.72.86-.91,1.22h0Z"/>
        </g>
        <g>
          <path class="cls-3" d="m233.11,202.23c-.71,1.38,8.23-.27,10.68-1.17,2.45-.89-8.05-10.53-7.64-6.19.42,4.34-2.33,5.98-3.04,7.36Z"/>
          <path class="cls-4" d="m234.46,203.01c-.77,0-1.33-.09-1.53-.32-.14-.15-.15-.36-.05-.56.19-.37.5-.74.87-1.17,1.04-1.23,2.45-2.91,2.15-6.05-.1-1.06.42-1.31.74-1.37,1.88-.34,7.12,4.45,7.71,6.6.22.82-.26,1.09-.48,1.17-1.6.58-6.75,1.7-9.41,1.7Zm2.41-9c-.05,0-.1,0-.14.01-.11.02-.41.07-.33.83.32,3.36-1.17,5.13-2.27,6.42-.34.41-.64.76-.8,1.07-.01.02-.01.03-.01.03.49.6,7.69-.57,10.38-1.55.09-.03.29-.11.17-.57-.55-2.02-5.33-6.26-6.99-6.26Z"/>
        </g>
      </g>
    </g>
    <g>
      <g class="cls-9">
        <ellipse class="cls-10" cx="262.08" cy="196.2" rx="19.06" ry="3.08"/>
      </g>
      <g>
        <path class="cls-8" d="m279.18,179.88c-2.81-4.55-18.3-8.46-26.08-4.82-7.78,3.64-4.91,13.44-2.11,17.99,2.81,4.55,11.39,5.29,19.18,1.65,7.78-3.64,11.82-10.28,9.01-14.83Z"/>
        <g class="cls-7">
          <path class="cls-10" d="m279.18,179.88c-.23-.37-.54-.73-.92-1.08.66,4.29-3.24,9.52-9.83,12.6-7.57,3.54-15.88,2.92-18.91-1.29.45,1.11.97,2.12,1.48,2.95,2.81,4.55,11.39,5.29,19.18,1.65,7.78-3.64,11.82-10.28,9.01-14.83Z"/>
        </g>
        <g class="cls-9">
          <ellipse class="cls-10" cx="257.1" cy="176.53" rx="1.31" ry="1.13"/>
        </g>
        <g class="cls-9">
          <ellipse class="cls-10" cx="262.08" cy="178.27" rx="1.31" ry="1.13"/>
        </g>
        <g class="cls-9">
          <ellipse class="cls-10" cx="256.23" cy="181.24" rx="2.21" ry="1.91"/>
        </g>
        <g class="cls-9">
          <ellipse class="cls-10" cx="269.69" cy="180.1" rx="1.9" ry="1.65"/>
        </g>
        <g class="cls-9">
          <ellipse class="cls-10" cx="263.09" cy="184.55" rx="1.4" ry="1.21"/>
        </g>
        <g class="cls-9">
          <ellipse class="cls-10" cx="275.49" cy="181.85" rx="1.4" ry="1.21"/>
        </g>
        <g class="cls-9">
          <ellipse class="cls-10" cx="255.44" cy="187.43" rx="1.23" ry="1.06"/>
        </g>
        <g class="cls-9">
          <ellipse class="cls-10" cx="267.82" cy="186.21" rx="1.23" ry="1.06"/>
        </g>
        <g class="cls-9">
          <ellipse class="cls-10" cx="264.33" cy="190.21" rx=".92" ry=".8"/>
        </g>
        <g class="cls-9">
          <ellipse class="cls-10" cx="259.1" cy="187.77" rx=".92" ry=".8"/>
        </g>
        <g class="cls-9">
          <ellipse class="cls-10" cx="250.91" cy="183.77" rx=".92" ry=".8"/>
        </g>
        <g class="cls-9">
          <ellipse class="cls-10" cx="258.05" cy="191.26" rx=".63" ry=".55"/>
        </g>
        <g class="cls-9">
          <ellipse class="cls-10" cx="266.93" cy="176.54" rx=".63" ry=".55"/>
        </g>
        <g class="cls-9">
          <ellipse class="cls-10" cx="251.16" cy="179.22" rx=".63" ry=".55"/>
        </g>
        <g class="cls-9">
          <ellipse class="cls-10" cx="252.68" cy="181.79" rx=".63" ry=".55"/>
        </g>
        <g class="cls-9">
          <ellipse class="cls-10" cx="269.27" cy="177.12" rx=".63" ry=".55"/>
        </g>
      </g>
    </g>
  </g>
  <g>
    <g class="cls-9">
      <ellipse class="cls-10" cx="92.83" cy="198.38" rx="38.38" ry="6.2"/>
    </g>
    <path class="cls-10" d="m65.02,154.46c.16,1.25,4.31,36.7,10.35,41.67,6.04,4.97,9.21,3.29,10.43,1.98,1.29-1.39,2.91-3.87-.1-6.67-2.42-2.25-4.11-12.24-1.7-27.82l-18.98-9.14Z"/>
    <path class="cls-10" d="m88.08,152.25c.16,1.25,4.31,36.7,10.35,41.67,6.04,4.97,9.21,3.3,10.43,1.97,1.29-1.38,2.91-3.87-.1-6.67-2.42-2.26-4.12-12.24-1.7-27.82l-18.98-9.14Z"/>
    <path class="cls-10" d="m124.62,124.64c-2.06-1.87-5.13-2.06-7.22.15-2.08,2.2-1.85,6.77,1,9.4,8.11,7.48,18.79,10.17,29.46,7.41,3.75-.96,6.13-4.88,5.34-7.79-.79-2.94-3.6-4.23-6.29-3.55-8.08,2.08-16.16.05-22.29-5.61Z"/>
    <path class="cls-3" d="m100.14,102.12c7.92.98,16.29,4.51,29.86,13.61-2.18-3.62-5.89-7.28-11.98-11.72h0c-10.43-7.61-16.54-9.34-23.19-7.86-7.84,1.76-20.17,14.13-28.52,24.67,8.13-9.69,22.09-20.16,33.84-18.71Z"/>
    <path class="cls-12" d="m66.3,120.82c-1.19,1.42-2.25,2.83-3.17,4.18.97-1.34,2.03-2.74,3.17-4.18Z"/>
    <path class="cls-12" d="m44.42,131.67c-2.26-.03-4.45-1.06-4.81-2.71-.36-1.63,1.61-3.69,4.47-4.13,7.73-1.2,15.81.08,22.99,3.84,2.67,1.41,2.93,4.72.84,6.97-2.1,2.26-4.89,2.93-6.53,1.71-4.68-3.53-10.6-5.63-16.96-5.68Z"/>
    <path class="cls-3" d="m111.22,79.16c5.08-10.49,15.55-11.16,32.4-.36,5.35,3.43,14.47.86,18.97,2.46,12.96,4.59,10.43,13.37,10.43,13.37l.02.02c3.5-15.82-6.35-33.74-24.35-42.37-20.44-9.79-43.63-3.9-51.81,13.16-8.18,17.07,1.76,38.84,22.19,48.63,1.78.85,3.58,1.58,5.39,2.2v-.02c-18.59-7.38-19.99-23.17-13.24-37.09Z"/>
    <path class="cls-12" d="m170.88,100.91c.98-2.03,1.68-4.13,2.16-6.26l-.02-.02s2.53-8.78-10.43-13.37c-4.5-1.6-13.62.97-18.97-2.46-16.85-10.8-27.31-10.13-32.4.36-6.75,13.93-5.34,29.72,13.25,37.09v.02c18.96,6.48,38.94.22,46.41-15.36Z"/>
    <path class="cls-16" d="m135.15,114.71c-3.99-1.73-10.03-8.77-4.66-16.2,5.37-7.43,15.15-3.97,18.3-2.61,3.15,1.36,12.09,6,6.72,13.42-5.37,7.43-16.36,7.12-20.36,5.39Z"/>
    <path class="cls-10" d="m147.57,97.93c1.73.75,3.11,3.51,2.01,5.58-1.1,2.06-6.07-.18-6.07-.18l-.15-.06s-5.07-2.1-3.37-3.9c1.7-1.8,5.46-2.35,7.2-1.6l.37.16Z"/>
    <path class="cls-10" d="m141.25,111.83c-.11,0-.23,0-.34,0-1.09-.04-2.12-.26-3.06-.67-.94-.41-1.74-.97-2.36-1.68-.61-.7-1.03-1.5-1.25-2.36-.22-.86-.23-1.77-.03-2.7.04-.18.22-.3.4-.26.18.04.3.22.26.4-.18.83-.17,1.63.03,2.4.19.76.56,1.46,1.1,2.08.56.63,1.27,1.14,2.12,1.5.86.37,1.81.58,2.82.61.98.03,1.97-.09,2.95-.38.98-.28,1.9-.71,2.73-1.27.15-.1.36-.06.47.09.1.15.06.36-.09.47-.89.6-1.87,1.06-2.92,1.36-.93.27-1.88.41-2.82.41Z"/>
    <circle class="cls-10" cx="133.89" cy="86.04" r="1.68"/>
    <circle class="cls-10" cx="160.28" cy="93.91" r="1.68"/>
    <path class="cls-12" d="m115,84.36c-2.78,6-6.94,9.98-9.29,8.89-2.35-1.09-2-6.84.78-12.83,2.78-6,6.94-9.98,9.29-8.89,2.36,1.08,2,6.83-.77,12.83Z"/>
    <path class="cls-10" d="m115.56,76.48c-1.94-.88-5.29,1.94-8.43,6.72.25-.67.54-1.36.87-2.06,2.21-4.7,5.25-7.94,6.78-7.24.65.3.93,1.27.86,2.64-.03-.02-.06-.04-.08-.06Z"/>
    <path class="cls-16" d="m129.1,84.22c-.07,0-.13-.02-.19-.05-.18-.11-.23-.33-.13-.51.33-.55.76-1.02,1.27-1.4.51-.38,1.08-.66,1.7-.82.64-.17,1.29-.21,1.95-.11.66.1,1.28.32,1.84.66.18.11.23.33.13.51-.11.18-.33.23-.51.13-.48-.29-1-.48-1.57-.56-.56-.08-1.12-.05-1.66.09-.53.14-1.01.38-1.45.7-.44.33-.8.73-1.08,1.19-.07.12-.19.18-.32.18Z"/>
    <path class="cls-16" d="m165.11,94.97s-.03,0-.05,0c-.2-.03-.35-.21-.32-.41.07-.56.02-1.12-.13-1.66-.16-.55-.41-1.04-.76-1.47-.34-.42-.76-.77-1.23-1.03-.48-.26-.99-.43-1.53-.5-.2-.03-.35-.21-.32-.41s.21-.35.41-.32c.63.08,1.24.27,1.8.58.56.31,1.05.72,1.45,1.22.41.51.72,1.09.9,1.73.18.64.24,1.29.16,1.95-.02.19-.18.33-.37.33Z"/>
    <path class="cls-12" d="m132.59,123.68c-.22-2.47-.84-4.75-2.04-7.02-.17-.31-.36-.63-.55-.94-2.19-1.47-4.22-2.77-6.16-3.96-4.61-3.12-8.49-5.18-12-6.36-4.3-1.83-8.05-2.83-11.7-3.28-11.75-1.45-25.71,9.01-33.84,18.71-1.14,1.44-2.2,2.84-3.17,4.18-2.5,3.46-4.37,6.48-5.22,8.51-.92,2.2-.29,5.1,1.6,8.42,3.02,5.28,9.29,11.61,17.84,17.84h0c.8.59,1.6,1.15,2.39,1.7.24.17.49.33.73.49.56.37,1.1.74,1.64,1.09.27.18.54.35.81.52.53.34,1.06.66,1.58.99.25.14.49.3.74.44.64.39,1.27.75,1.9,1.1.11.06.22.13.33.19.74.41,1.47.8,2.19,1.17.18.09.34.17.52.25.54.27,1.07.53,1.6.77.22.1.44.2.66.3.48.21.95.42,1.41.61.21.09.42.17.63.26.51.2,1,.39,1.5.55.11.04.23.09.35.13h-.01c3.38,1.15,6.31,1.62,8.6,1.31.03,0,.05-.01.07-.01.43-.06.84-.15,1.23-.26.15-.05.28-.12.42-.17.25-.09.5-.18.72-.29.35-.19.67-.4.97-.65,7.08-6.04,25.36-34.66,24.27-46.57Z"/>
    <ellipse class="cls-12" cx="85.57" cy="148.7" rx="24.97" ry="31.69" transform="translate(-85 130.26) rotate(-53.91)"/>
    <g>
      <path class="cls-10" d="m99,109.95c-.18-2.77-2.26-5.05-5.29-4.91-3.03.13-6.03,3.58-5.8,7.45.63,11.01,6.44,20.37,16.03,25.81,3.37,1.91,7.79.75,9.25-1.9,1.47-2.66.35-5.54-2.05-6.93-7.26-4.11-11.65-11.19-12.13-19.52Z"/>
      <path class="cls-10" d="m116.66,136.33c.68.33,1.48.33,1.83-.1.35-.44.06-1.34-.73-1.88-2.12-1.49-4.72-2.29-7.41-2.23-1,.03-1.57.98-1.27,1.96.29.98,1.03,1.59,1.7,1.46,1.92-.36,3.99-.13,5.88.79Z"/>
      <path class="cls-10" d="m114.86,140.28c.56.5,1.33.73,1.78.41.46-.32.43-1.27-.17-2.01-1.63-2.02-3.9-3.51-6.5-4.19-.97-.25-1.77.5-1.76,1.52,0,1.02.55,1.81,1.22,1.88,1.93.18,3.86.99,5.43,2.39Z"/>
      <path class="cls-10" d="m111.28,142.9c.27.7.85,1.26,1.4,1.17.55-.08.96-.93.76-1.87-.53-2.54-1.87-4.9-3.88-6.69-.75-.66-1.81-.36-2.27.55-.46.91-.34,1.86.24,2.23,1.64,1.04,2.99,2.64,3.74,4.61Z"/>
    </g>
    <path class="cls-10" d="m89.02,194.65c.76.22,1.59.09,1.87-.42.28-.51-.17-1.39-1.08-1.82-2.46-1.17-5.28-1.55-8.06-1.01-1.03.21-1.45,1.29-.98,2.24.47.96,1.34,1.47,2.01,1.22,1.92-.71,4.1-.83,6.23-.21Z"/>
    <path class="cls-10" d="m87.84,199.06c.67.42,1.5.52,1.92.11s.22-1.38-.53-2.05c-2.04-1.81-4.64-2.95-7.46-3.21-1.05-.09-1.75.83-1.56,1.88.19,1.06.88,1.79,1.59,1.74,2.04-.16,4.16.35,6.04,1.53Z"/>
    <path class="cls-10" d="m84.59,202.39c.4.68,1.1,1.16,1.66.98.55-.18.83-1.13.46-2.07-.99-2.54-2.79-4.74-5.18-6.25-.89-.56-1.94-.07-2.25.96-.31,1.03-.03,1.99.63,2.27,1.88.79,3.55,2.21,4.68,4.11Z"/>
    <path class="cls-10" d="m113.12,192.03c.75.21,1.59.09,1.87-.42.28-.51-.17-1.4-1.08-1.83-2.46-1.17-5.28-1.55-8.06-1.01-1.03.2-1.45,1.28-.98,2.24.47.97,1.34,1.47,2.01,1.23,1.92-.71,4.1-.83,6.23-.21Z"/>
    <path class="cls-10" d="m111.94,196.44c.67.42,1.5.53,1.91.11.42-.41.23-1.39-.53-2.05-2.04-1.81-4.65-2.96-7.46-3.21-1.05-.09-1.75.83-1.56,1.88.19,1.06.88,1.78,1.59,1.73,2.04-.15,4.17.35,6.04,1.54Z"/>
    <path class="cls-10" d="m108.68,199.77c.4.68,1.1,1.16,1.66.97.55-.18.83-1.13.46-2.07-.99-2.54-2.79-4.75-5.18-6.25-.89-.56-1.93-.06-2.24.96-.32,1.03-.03,1.99.63,2.27,1.89.8,3.55,2.21,4.68,4.11Z"/>
    <path class="cls-10" d="m155.61,131.39c.76-.23,1.4-.81,1.36-1.4-.05-.59-.92-1.09-1.93-.95-2.75.37-5.36,1.62-7.42,3.62-.77.75-.52,1.9.42,2.45.94.56,1.95.51,2.39-.08,1.23-1.67,3.03-2.98,5.18-3.64Z"/>
    <path class="cls-10" d="m157.05,135.8c.8-.02,1.57-.39,1.7-.97.13-.58-.58-1.3-1.59-1.45-2.74-.41-5.59.07-8.13,1.41-.94.51-1.03,1.68-.28,2.47.75.79,1.74,1.03,2.32.58,1.65-1.26,3.74-2.02,5.99-2.05Z"/>
    <path class="cls-10" d="m156.14,140.44c.72.35,1.57.37,1.95-.09.37-.46.08-1.42-.76-2.02-2.26-1.61-5.01-2.49-7.88-2.44-1.06.02-1.68,1.02-1.37,2.07.3,1.05,1.08,1.71,1.8,1.58,2.04-.37,4.25-.1,6.27.9Z"/>
    <path class="cls-18" d="m151.18,138.44c-.14-.1-.27-.21-.39-.34-1.01-1.09-.95-2.78.13-3.79l12.67-11.8c1.09-1.01,2.79-.95,3.79.14,1.01,1.09.95,2.78-.13,3.79l-12.67,11.8c-.96.89-2.39.95-3.41.21Z"/>
    <circle class="cls-19" cx="174.13" cy="118.35" r="15.15"/>
    <path class="cls-18" d="m164.15,132.04c-7.55-5.5-9.21-16.12-3.71-23.67s16.12-9.21,23.67-3.71c7.55,5.5,9.21,16.12,3.71,23.67-5.5,7.55-16.12,9.21-23.67,3.71Zm17.85-24.49c-5.96-4.34-14.33-3.03-18.67,2.93-4.34,5.95-3.03,14.33,2.93,18.67,5.95,4.34,14.33,3.03,18.67-2.93,4.34-5.95,3.03-14.33-2.93-18.67Z"/>
    <g class="cls-6">
      <path class="cls-3" d="m180.04,122.31c-.58.8-1.71.97-2.5.39l-3.05-2.22c-.8-.58-.97-1.71-.39-2.5l2.22-3.05c.58-.8,1.71-.97,2.5-.39l3.05,2.22c.8.58.97,1.7.39,2.5l-2.22,3.05Z"/>
    </g>
  </g>
  <g>
    <g class="cls-9">
      <path class="cls-10" d="m215.14,140.9c.3.06.59-.14.65-.45l.05-.26.53.55c-.12.08-.21.21-.24.36l-.08.41c-.06.31.13.6.43.67s.59-.14.65-.45l.03-.17.5.51c-.09.08-.16.18-.18.31l-.08.41c-.06.31.13.61.43.67.3.06.59-.14.65-.45v-.07s.48.47.48.47c-.06.07-.11.15-.13.25l-.08.41c-.06.31.13.6.43.67.29.06.58-.13.64-.43l.43.44c-.03.06-.06.12-.08.19l-.08.41c-.06.31.13.61.43.67.27.05.51-.1.61-.35l.43.44s-.04.07-.05.11l-.08.41c-.06.31.13.61.43.67.24.05.46-.07.58-.27l.43.44s-.01.02-.01.03l-.08.41c-.06.31.13.61.43.67.21.04.41-.05.53-.21l.45.47-.07.35c-.06.31.13.61.43.67.18.04.35-.03.48-.15l.49.5-.05.26c-.06.31.13.6.43.67.15.03.31,0,.43-.1l.53.54-.03.17c-.06.31.13.61.43.67.13.03.25,0,.35-.06l.58.6v.07c-.07.31.12.6.42.67.3.06.59-.14.65-.45v-.07s.73-.58.73-.58c.03.3.29.53.59.51.3-.02.53-.3.51-.61l-.03-.41c0-.1-.05-.19-.1-.27l.53-.43c.03.31.29.54.59.52.3-.03.53-.3.51-.61l-.03-.41c0-.1-.05-.19-.1-.27l.53-.43h0c.02.32.29.55.59.53.3-.03.53-.3.51-.61l-.03-.41c0-.11-.05-.2-.11-.28l.54-.43v.02c.02.31.29.54.59.52.3-.02.53-.3.51-.61l-.03-.41c0-.11-.05-.2-.11-.29l.54-.44v.03c.03.31.29.54.59.52.3-.02.53-.3.51-.61l-.03-.41c0-.11-.06-.21-.12-.3l.55-.44v.04c.03.31.29.54.6.52.3-.03.53-.3.51-.61l-.03-.41c0-.12-.06-.22-.13-.3l.55-.45v.05c.03.31.29.54.6.52.3-.02.53-.3.51-.61l-.03-.41c0-.12-.06-.22-.13-.31l.56-.45v.06c.03.31.29.54.6.52s.53-.3.51-.61l-.03-.41c0-.12-.06-.23-.14-.32l.56-.45v.08c.03.31.29.54.6.52.3-.03.53-.3.51-.61l-.03-.41c0-.13-.07-.24-.14-.32l.57-.46v.09c.03.31.29.54.6.52.3-.03.53-.3.51-.61l-.03-.41c-.01-.17-.1-.31-.23-.41l.84-14.21h-.19c-.98-.58-13.63-7.84-15.85-7.91v.03c-1.46.18-8.76,3.85-13.22,6.15h-.18s-.85,14.34-.85,14.34l.19.19c-.15.07-.28.21-.31.39l-.08.41c-.06.31.13.61.43.67Zm14.01-21.68v.02c1.6.06,9.83,4.53,14.72,7.32l-26.92-1.6c4.7-2.4,11.55-5.77,12.2-5.74Z"/>
      <path class="cls-10" d="m214.94,142.52c.3.02.57-.22.58-.53l.02-.41c.02-.31-.21-.58-.52-.6s-.57.22-.58.53l-.02.41c-.02.31.21.58.52.6Z"/>
      <path class="cls-10" d="m215,144.14c.3-.01.54-.27.53-.59v-.41c-.02-.31-.28-.56-.58-.55-.3.01-.54.27-.53.59v.41c.02.31.28.56.58.55Z"/>
      <path class="cls-10" d="m214.89,145.8c.3.02.57-.22.58-.53l.02-.41c.02-.31-.21-.58-.52-.6s-.57.22-.58.53l-.02.41c-.02.31.21.58.52.6Z"/>
      <path class="cls-10" d="m214.95,147.42c.3-.01.54-.27.54-.59v-.41c-.02-.31-.28-.56-.58-.55-.3.01-.54.27-.53.59v.41c.02.31.28.56.58.55Z"/>
      <path class="cls-10" d="m215.12,149.14c.3-.03.53-.3.51-.61l-.03-.41c-.02-.31-.29-.54-.59-.52-.3.03-.53.3-.51.61l.03.41c.02.31.29.54.59.52Z"/>
      <path class="cls-10" d="m215.09,149.3c-.3-.02-.57.22-.58.53l-.02.41c-.02.31.21.58.52.6s.57-.22.58-.53l.02-.41c.02-.31-.21-.58-.52-.6Z"/>
      <path class="cls-10" d="m215.03,151.1c-.3-.05-.58.17-.63.48l-.06.41c-.05.31.16.6.46.64.3.05.58-.17.63-.48l.06-.41c.05-.31-.16-.6-.46-.64Z"/>
      <path class="cls-10" d="m216.87,143.26l.02-.41c.02-.31-.21-.58-.52-.6s-.57.22-.58.53l-.02.41c-.02.31.21.58.52.6s.57-.22.58-.53Z"/>
      <path class="cls-10" d="m216.35,145.41c.3-.01.54-.27.53-.59v-.41c-.02-.31-.28-.56-.58-.55-.3.01-.54.27-.53.59v.41c.02.31.28.56.58.55Z"/>
      <path class="cls-10" d="m216.24,147.07c.3.02.57-.22.58-.53l.02-.41c.02-.31-.21-.58-.52-.6s-.57.22-.58.53l-.02.41c-.02.31.21.58.52.6Z"/>
      <path class="cls-10" d="m216.3,148.69c.3-.01.54-.27.53-.59v-.41c-.02-.31-.28-.56-.58-.55-.3.01-.54.27-.54.59v.41c.02.31.28.56.58.55Z"/>
      <path class="cls-10" d="m216.47,150.42c.3-.02.53-.3.51-.61l-.03-.41c-.02-.31-.29-.54-.59-.52-.3.02-.53.3-.51.61l.03.41c.02.31.29.54.59.52Z"/>
      <path class="cls-10" d="m216.44,150.57c-.3-.02-.57.22-.58.53l-.02.41c-.02.31.21.58.52.6s.57-.22.58-.53l.02-.41c.02-.31-.21-.58-.52-.6Z"/>
      <path class="cls-10" d="m216.38,152.37c-.3-.05-.58.17-.63.48l-.06.41c-.05.31.16.6.46.64.3.05.58-.17.63-.48l.06-.41c.05-.31-.16-.6-.46-.64Z"/>
      <path class="cls-10" d="m218.23,144.54l.02-.41c.02-.31-.21-.58-.52-.6s-.57.22-.58.53l-.02.41c-.02.31.21.58.52.6s.57-.22.58-.53Z"/>
      <path class="cls-10" d="m217.7,146.69c.3-.01.54-.27.54-.59v-.41c-.02-.31-.28-.56-.58-.55-.3.01-.54.27-.53.59v.41c.02.31.28.56.58.55Z"/>
      <path class="cls-10" d="m217.59,148.35c.3.02.57-.22.58-.53l.02-.41c.02-.31-.21-.58-.52-.6s-.57.22-.58.53l-.02.41c-.02.31.21.58.52.6Z"/>
      <path class="cls-10" d="m217.65,149.97c.3-.01.54-.27.53-.59v-.41c-.02-.31-.28-.56-.58-.55-.3.01-.54.27-.53.59v.41c.02.31.28.56.58.55Z"/>
      <path class="cls-10" d="m217.82,151.69c.3-.03.53-.3.51-.61l-.03-.41c-.02-.31-.29-.54-.59-.52-.3.03-.53.3-.51.61l.03.41c.02.31.29.54.59.52Z"/>
      <path class="cls-10" d="m217.8,151.85c-.3-.02-.57.22-.58.53l-.02.41c-.02.31.21.58.52.6s.57-.22.58-.53l.02-.41c.02-.31-.21-.58-.52-.6Z"/>
      <path class="cls-10" d="m217.73,153.65h0c-.3-.05-.58.17-.63.48l-.06.41c-.05.31.16.6.46.64.3.05.58-.17.63-.48l.06-.41c.05-.31-.16-.6-.46-.64Z"/>
      <path class="cls-10" d="m219.58,145.81l.02-.41c.02-.31-.21-.58-.52-.6s-.57.22-.58.53l-.02.41c-.02.31.21.58.52.6s.57-.22.58-.53Z"/>
      <path class="cls-10" d="m219.05,147.96c.3-.01.54-.27.53-.59v-.41c-.02-.31-.28-.56-.58-.55-.3.01-.54.27-.54.59v.41c.02.31.28.56.58.55Z"/>
      <path class="cls-10" d="m218.94,149.62h0c.3.02.57-.22.58-.53l.02-.41c.02-.31-.21-.58-.52-.6h0c-.3-.02-.57.22-.58.53l-.02.41c-.02.31.21.58.52.6Z"/>
      <path class="cls-10" d="m219,151.24c.3-.01.54-.27.53-.59v-.41c-.02-.31-.28-.56-.58-.55-.3.01-.54.27-.53.59v.41c.02.31.28.56.58.55Z"/>
      <path class="cls-10" d="m219.17,152.97c.3-.02.53-.3.51-.61l-.03-.41c-.02-.31-.29-.54-.59-.52-.3.03-.53.3-.51.61l.03.41c.02.31.29.54.59.52Z"/>
      <path class="cls-10" d="m219.15,153.12c-.3-.02-.57.22-.58.53l-.02.41c-.02.31.21.58.52.6s.57-.22.58-.53l.02-.41c.02-.31-.21-.58-.52-.6Z"/>
      <path class="cls-10" d="m219.08,154.92h0c-.3-.05-.58.17-.63.48l-.06.41c-.05.31.16.6.46.64.3.05.58-.17.63-.48l.06-.41c.05-.31-.16-.6-.46-.64Z"/>
      <path class="cls-10" d="m220.93,147.09l.02-.41c.02-.31-.21-.58-.52-.6s-.57.22-.58.53l-.02.41c-.02.31.21.58.52.6s.57-.22.58-.53Z"/>
      <path class="cls-10" d="m220.4,149.24c.3-.01.54-.27.53-.59v-.41c-.02-.31-.28-.56-.58-.55-.3.01-.54.27-.54.59v.41c.02.31.28.56.58.55Z"/>
      <path class="cls-10" d="m220.29,150.9c.3.02.57-.22.58-.53l.02-.41c.02-.31-.21-.58-.52-.6s-.57.22-.58.53l-.02.41c-.02.31.21.58.52.6Z"/>
      <path class="cls-10" d="m220.35,152.52c.3-.01.54-.27.54-.59v-.41c-.02-.31-.28-.56-.58-.55-.3.01-.54.27-.53.59v.41c.02.31.28.56.58.55Z"/>
      <path class="cls-10" d="m220.52,154.24c.3-.03.53-.3.51-.61l-.03-.41c-.02-.31-.29-.54-.59-.52-.3.02-.53.3-.51.61l.03.41c.02.31.29.54.59.52Z"/>
      <path class="cls-10" d="m220.5,154.4c-.3-.02-.57.22-.58.53l-.02.41c-.02.31.21.58.52.6s.57-.22.58-.53l.02-.41c.02-.31-.21-.58-.52-.6Z"/>
      <path class="cls-10" d="m220.43,156.2c-.3-.05-.58.17-.63.48l-.06.41c-.05.31.16.6.46.64.3.05.58-.17.63-.48l.06-.41c.05-.31-.16-.6-.46-.64Z"/>
      <path class="cls-10" d="m222.28,148.36l.02-.41c.02-.31-.21-.58-.52-.6s-.57.22-.58.53l-.02.41c-.02.31.21.58.52.6s.57-.22.58-.53Z"/>
      <path class="cls-10" d="m221.76,150.51c.3-.01.54-.27.53-.59v-.41c-.02-.31-.28-.56-.58-.55-.3.01-.54.27-.53.59v.41c.02.31.28.56.58.55Z"/>
      <path class="cls-10" d="m221.65,152.17c.3.02.57-.22.58-.53l.02-.41c.02-.31-.21-.58-.52-.6s-.57.22-.58.53l-.02.41c-.02.31.21.58.52.6Z"/>
      <path class="cls-10" d="m221.71,153.79c.3-.01.54-.27.54-.59v-.41c-.02-.31-.28-.56-.58-.55-.3.01-.54.27-.53.59v.41c.02.31.28.56.58.55Z"/>
      <path class="cls-10" d="m221.87,155.52c.3-.03.53-.3.51-.61l-.03-.41c-.02-.31-.29-.54-.59-.52-.3.03-.53.3-.51.61l.03.41c.02.31.29.54.59.52Z"/>
      <path class="cls-10" d="m221.85,155.67c-.3-.02-.57.22-.58.53l-.02.41c-.02.31.21.58.52.6s.57-.22.58-.53l.02-.41c.02-.31-.21-.58-.52-.6Z"/>
      <path class="cls-10" d="m221.79,157.47c-.3-.05-.58.17-.63.48l-.06.41c-.05.31.16.6.46.64.3.05.58-.17.63-.48l.06-.41c.05-.31-.16-.6-.46-.64Z"/>
      <path class="cls-10" d="m223.63,149.63l.02-.41c.02-.31-.21-.58-.52-.6s-.57.22-.58.53l-.02.41c-.02.31.21.58.52.6s.57-.22.58-.53Z"/>
      <path class="cls-10" d="m223.11,151.79c.3-.01.54-.27.53-.59v-.41c-.02-.31-.28-.56-.58-.55-.3.01-.54.27-.53.59v.41c.02.31.28.56.58.55Z"/>
      <path class="cls-10" d="m223,153.45c.3.02.57-.22.58-.53l.02-.41c.02-.31-.21-.58-.52-.6s-.57.22-.58.53l-.02.41c-.02.31.21.58.52.6Z"/>
      <path class="cls-10" d="m223.06,155.07c.3-.01.54-.27.53-.59v-.41c-.02-.31-.28-.56-.58-.55-.3.01-.54.27-.54.59v.41c.02.31.28.56.58.55Z"/>
      <path class="cls-10" d="m223.23,156.79c.3-.02.53-.3.51-.61l-.03-.41c-.02-.31-.29-.54-.59-.52-.3.02-.53.3-.51.61l.03.41c.02.31.29.54.59.52Z"/>
      <path class="cls-10" d="m223.2,156.95h0c-.3-.02-.57.22-.58.53l-.02.41c-.02.31.21.58.52.6h0c.3.02.57-.22.58-.53l.02-.41c.02-.31-.21-.58-.52-.6Z"/>
      <path class="cls-10" d="m223.14,158.75c-.3-.05-.58.17-.63.48l-.06.41c-.05.31.16.6.46.64.3.05.58-.17.63-.48l.06-.41c.05-.31-.16-.6-.46-.64Z"/>
      <path class="cls-10" d="m224.98,150.91l.02-.41c.02-.31-.21-.58-.52-.6s-.57.22-.58.53l-.02.41c-.02.31.21.58.52.6s.57-.22.58-.53Z"/>
      <path class="cls-10" d="m224.46,153.06c.3-.01.54-.27.53-.59v-.41c-.02-.31-.28-.56-.58-.55-.3.01-.54.27-.53.59v.41c.02.31.28.56.58.55Z"/>
      <path class="cls-10" d="m224.35,154.72c.3.02.57-.22.58-.53l.02-.41c.02-.31-.21-.58-.52-.6s-.57.22-.58.53l-.02.41c-.02.31.21.58.52.6Z"/>
      <path class="cls-10" d="m224.41,156.34c.3-.01.54-.27.53-.59v-.41c-.02-.31-.28-.56-.58-.55-.3.01-.54.27-.53.59v.41c.02.31.28.56.58.55Z"/>
      <path class="cls-10" d="m224.58,158.07c.3-.03.53-.3.51-.61l-.03-.41c-.02-.31-.29-.54-.59-.52s-.53.3-.51.61l.03.41c.02.31.29.54.59.52Z"/>
      <path class="cls-10" d="m224.55,158.22c-.3-.02-.57.22-.58.53l-.02.41c-.02.31.21.58.52.6s.57-.22.58-.53l.02-.41c.02-.31-.21-.58-.52-.6Z"/>
      <path class="cls-10" d="m224.49,160.02c-.3-.05-.58.17-.63.48l-.06.41c-.05.31.16.6.46.64.3.05.58-.17.63-.48l.06-.41c.05-.31-.16-.6-.46-.64Z"/>
      <path class="cls-10" d="m226.33,152.18l.02-.41c.02-.31-.21-.58-.52-.6s-.57.22-.58.53l-.02.41c-.02.31.21.58.52.6s.57-.22.58-.53Z"/>
      <path class="cls-10" d="m225.81,154.34c.3-.01.54-.27.53-.59v-.41c-.02-.31-.28-.56-.58-.55s-.54.27-.53.59v.41c.02.31.28.56.58.55Z"/>
      <path class="cls-10" d="m225.7,155.99c.3.02.57-.22.58-.53l.02-.41c.02-.31-.21-.58-.52-.6s-.57.22-.58.53l-.02.41c-.02.31.21.58.52.6Z"/>
      <path class="cls-10" d="m225.76,157.61c.3-.01.54-.27.53-.59v-.41c-.02-.31-.28-.56-.58-.55-.3.01-.54.27-.53.59v.41c.02.31.28.56.58.55Z"/>
      <path class="cls-10" d="m225.93,159.34c.3-.02.53-.3.51-.61l-.03-.41c-.02-.31-.29-.54-.59-.52-.3.02-.53.3-.51.61l.03.41c.02.31.29.54.59.52Z"/>
      <path class="cls-10" d="m225.9,159.5c-.3-.02-.57.22-.58.53l-.02.41c-.02.31.21.58.52.6s.57-.22.58-.53l.02-.41c.02-.31-.21-.58-.52-.6Z"/>
      <path class="cls-10" d="m225.84,161.3c-.3-.05-.58.17-.63.48l-.06.41c-.05.31.16.6.46.64.3.05.58-.17.63-.48l.06-.41c.05-.31-.16-.6-.46-.64Z"/>
      <path class="cls-10" d="m227.69,153.46l.02-.41c.02-.31-.21-.58-.52-.6s-.57.22-.58.53l-.02.41c-.02.31.21.58.52.6s.57-.22.58-.53Z"/>
      <path class="cls-10" d="m227.16,155.61c.3-.01.54-.27.54-.59v-.41c-.02-.31-.28-.56-.58-.55-.3.01-.54.27-.53.59v.41c.02.31.28.56.58.55Z"/>
      <path class="cls-10" d="m227.05,157.27c.3.02.57-.22.58-.53l.02-.41c.02-.31-.21-.58-.52-.6s-.57.22-.58.53l-.02.41c-.02.31.21.58.52.6Z"/>
      <path class="cls-10" d="m227.11,158.89c.3-.01.54-.27.53-.59v-.41c-.02-.31-.28-.56-.58-.55-.3.01-.54.27-.53.59v.41c.02.31.28.56.58.55Z"/>
      <path class="cls-10" d="m227.28,160.62c.3-.03.53-.3.51-.61l-.03-.41c-.02-.31-.29-.54-.59-.52-.3.03-.53.3-.51.61l.03.41c.02.31.29.54.59.52Z"/>
      <path class="cls-10" d="m227.26,160.77c-.3-.02-.57.22-.58.53l-.02.41c-.02.31.21.58.52.6s.57-.22.58-.53l.02-.41c.02-.31-.21-.58-.52-.6Z"/>
      <path class="cls-10" d="m227.19,162.57c-.3-.05-.58.17-.63.48l-.06.41c-.05.31.16.6.46.64.3.05.58-.17.63-.48l.06-.41c.05-.31-.16-.6-.46-.64Z"/>
      <path class="cls-10" d="m228.6,155.28c.3.02.57-.22.58-.53l.02-.41c.02-.31-.21-.58-.52-.6s-.57.22-.58.53l-.02.41c-.02.31.21.58.52.6Z"/>
      <path class="cls-10" d="m228,156.42c0,.31.26.56.57.55.3-.01.54-.27.53-.59v-.41c-.02-.31-.28-.56-.58-.55-.3.01-.54.27-.54.59v.41Z"/>
      <path class="cls-10" d="m228.46,158.61c.3.02.57-.22.58-.53l.02-.41c.02-.31-.21-.58-.52-.6s-.57.22-.58.53l-.02.41c-.02.31.21.58.52.6Z"/>
      <path class="cls-10" d="m228.57,160.31c.3-.01.54-.27.53-.59v-.41c-.02-.31-.28-.56-.58-.55-.3.01-.54.27-.53.59v.41c.02.31.28.56.58.55Z"/>
      <path class="cls-10" d="m228.63,161.89c.3-.02.53-.3.51-.61l-.03-.41c-.02-.31-.29-.54-.59-.52-.3.02-.53.3-.51.61l.03.41c.02.31.29.54.59.52Z"/>
      <path class="cls-10" d="m228.61,162.05c-.3-.02-.57.22-.58.53l-.02.41c-.02.31.21.58.52.6s.57-.22.58-.53l.02-.41c.02-.31-.21-.58-.52-.6Z"/>
      <path class="cls-10" d="m228.54,163.85c-.3-.05-.58.17-.63.48l-.06.41c-.05.31.16.6.46.64.3.05.58-.17.63-.48l.06-.41c.05-.31-.16-.6-.46-.64Z"/>
      <path class="cls-10" d="m244.21,142.36c-.3-.02-.57.22-.58.53l-.02.41c-.02.31.21.58.52.6s.57-.22.58-.53l.02-.41c.02-.31-.21-.58-.52-.6Z"/>
      <path class="cls-10" d="m244.1,143.98c-.3-.05-.58.17-.63.48l-.06.41c-.05.31.16.6.46.64.3.05.58-.17.63-.48l.06-.41c.05-.31-.16-.6-.46-.64Z"/>
      <path class="cls-10" d="m243.87,145.62c-.3-.02-.57.22-.58.53l-.02.41c-.02.31.21.58.52.6s.57-.22.58-.53l.02-.41c.02-.31-.21-.58-.52-.6Z"/>
      <path class="cls-10" d="m243.76,147.24c-.3-.05-.58.17-.63.48l-.06.41c-.05.31.16.6.46.64.3.05.58-.17.63-.48l.06-.41c.05-.31-.16-.6-.46-.64Z"/>
      <path class="cls-10" d="m243.46,148.95c-.3-.06-.59.14-.65.45l-.08.41c-.06.31.13.6.43.67.3.06.59-.14.65-.45l.08-.41c.06-.31-.13-.61-.43-.67Z"/>
      <path class="cls-10" d="m243.07,152.17c.3.02.57-.22.58-.53l.02-.41c.02-.31-.21-.58-.52-.6s-.57.22-.58.53l-.02.41c-.02.31.21.58.52.6Z"/>
      <path class="cls-10" d="m243.02,152.42c-.3.01-.54.27-.53.59v.41c.02.31.28.56.58.55.3-.01.54-.27.53-.59v-.41c-.02-.31-.28-.56-.58-.55Z"/>
      <path class="cls-10" d="m243.23,144.16c.02-.31-.21-.58-.52-.6s-.57.22-.58.53l-.02.41c-.02.31.21.58.52.6s.57-.22.58-.53l.02-.41Z"/>
      <path class="cls-10" d="m243.06,145.82c.05-.31-.16-.6-.46-.64-.3-.05-.58.17-.63.48l-.06.41c-.05.31.16.6.46.64s.58-.17.63-.48l.06-.41Z"/>
      <path class="cls-10" d="m242.38,146.82c-.3-.02-.57.22-.58.53l-.02.41c-.02.31.21.58.52.6s.57-.22.58-.53l.02-.41c.02-.31-.21-.58-.52-.6Z"/>
      <path class="cls-10" d="m242.26,148.44c-.3-.05-.58.17-.63.48l-.06.41c-.05.31.16.6.46.64.3.05.58-.17.63-.48l.06-.41c.05-.31-.16-.6-.46-.64Z"/>
      <path class="cls-10" d="m241.96,150.15c-.3-.06-.59.14-.65.45l-.08.41c-.06.31.13.61.43.67.3.06.59-.14.65-.45l.08-.41c.06-.31-.13-.61-.43-.67Z"/>
      <path class="cls-10" d="m241.58,153.36c.3.02.57-.22.58-.53l.02-.41c.02-.31-.21-.58-.52-.6s-.57.22-.58.53l-.02.41c-.02.31.21.58.52.6Z"/>
      <path class="cls-10" d="m241.52,153.62c-.3.01-.54.27-.53.59v.41c.02.31.28.56.58.55s.54-.27.53-.59v-.41c-.02-.31-.28-.56-.58-.55Z"/>
      <path class="cls-10" d="m241.73,145.36c.02-.31-.21-.58-.52-.6s-.57.22-.58.53l-.02.41c-.02.31.21.58.52.6s.57-.22.58-.53l.02-.41Z"/>
      <path class="cls-10" d="m241.56,147.02c.05-.31-.16-.6-.46-.64-.3-.05-.58.17-.63.48l-.06.41c-.05.31.16.6.46.64.3.05.58-.17.63-.48l.06-.41Z"/>
      <path class="cls-10" d="m240.88,148.02c-.3-.02-.57.22-.58.53l-.02.41c-.02.31.21.58.52.6s.57-.22.58-.53l.02-.41c.02-.31-.21-.58-.52-.6Z"/>
      <path class="cls-10" d="m240.76,149.64c-.3-.05-.58.17-.63.48l-.06.41c-.05.31.16.6.46.64.3.05.58-.17.63-.48l.06-.41c.05-.31-.16-.6-.46-.64Z"/>
      <path class="cls-10" d="m240.46,151.34c-.3-.06-.59.14-.65.45l-.08.41c-.06.31.13.61.43.67.3.06.59-.14.65-.45l.08-.41c.06-.31-.13-.6-.43-.67Z"/>
      <path class="cls-10" d="m240.08,154.56c.3.02.57-.22.58-.53l.02-.41c.02-.31-.21-.58-.52-.6s-.57.22-.58.53l-.02.41c-.02.31.21.58.52.6Z"/>
      <path class="cls-10" d="m240.02,154.81c-.3.01-.54.27-.54.59v.41c.02.31.28.56.58.55.3-.01.54-.27.53-.59v-.41c-.02-.31-.28-.56-.58-.55Z"/>
      <path class="cls-10" d="m240.24,146.56c.02-.31-.21-.58-.52-.6s-.57.22-.58.53l-.02.41c-.02.31.21.58.52.6s.57-.22.58-.53l.02-.41Z"/>
      <path class="cls-10" d="m240.07,148.22c.05-.31-.16-.6-.46-.64-.3-.05-.58.17-.63.48l-.06.41c-.05.31.16.6.46.64.3.05.58-.17.63-.48l.06-.41Z"/>
      <path class="cls-10" d="m239.38,149.22c-.3-.02-.57.22-.58.53l-.02.41c-.02.31.21.58.52.6s.57-.22.58-.53l.02-.41c.02-.31-.21-.58-.52-.6Z"/>
      <path class="cls-10" d="m239.26,150.83c-.3-.05-.58.17-.63.48l-.06.41c-.05.31.16.6.46.64s.58-.17.63-.48l.06-.41c.05-.31-.16-.6-.46-.64Z"/>
      <path class="cls-10" d="m238.96,152.54c-.3-.06-.59.14-.65.45l-.08.41c-.06.31.13.61.43.67.3.06.59-.14.65-.45l.08-.41c.06-.31-.13-.61-.43-.67Z"/>
      <path class="cls-10" d="m238.58,155.76c.3.02.57-.22.58-.53l.02-.41c.02-.31-.21-.58-.52-.6s-.57.22-.58.53l-.02.41c-.02.31.21.58.52.6Z"/>
      <path class="cls-10" d="m238.52,156.01c-.3.01-.54.27-.54.59v.41c.02.31.28.56.58.55.3-.01.54-.27.53-.59v-.41c-.02-.31-.28-.56-.58-.55Z"/>
      <path class="cls-10" d="m238.74,147.76c.02-.31-.21-.58-.52-.6s-.57.22-.58.53l-.02.41c-.02.31.21.58.52.6s.57-.22.58-.53l.02-.41Z"/>
      <path class="cls-10" d="m238.57,149.42c.05-.31-.16-.6-.46-.64s-.58.17-.63.48l-.06.41c-.05.31.16.6.46.64h0c.3.05.58-.17.63-.48l.06-.41Z"/>
      <path class="cls-10" d="m237.88,150.42c-.3-.02-.57.22-.58.53l-.02.41c-.02.31.21.58.52.6s.57-.22.58-.53l.02-.41c.02-.31-.21-.58-.52-.6Z"/>
      <path class="cls-10" d="m237.77,152.03c-.3-.05-.58.17-.63.48l-.06.41c-.05.31.16.6.46.64.3.05.58-.17.63-.48l.06-.41c.05-.31-.16-.6-.46-.64Z"/>
      <path class="cls-10" d="m237.46,153.74c-.3-.06-.59.14-.65.45l-.08.41c-.06.31.13.61.43.67.3.06.59-.14.65-.45l.08-.41c.06-.31-.13-.61-.43-.67Z"/>
      <path class="cls-10" d="m237.08,156.96c.3.02.57-.22.58-.53l.02-.41c.02-.31-.21-.58-.52-.6s-.57.22-.58.53l-.02.41c-.02.31.21.58.52.6Z"/>
      <path class="cls-10" d="m237.02,157.21c-.3.01-.54.27-.53.59v.41c.02.31.28.56.58.55.3-.01.54-.27.54-.59v-.41c-.02-.31-.28-.56-.58-.55Z"/>
      <path class="cls-10" d="m237.24,148.95c.02-.31-.21-.58-.52-.6s-.57.22-.58.53l-.02.41c-.02.31.21.58.52.6s.57-.22.58-.53l.02-.41Z"/>
      <path class="cls-10" d="m237.07,150.62c.05-.31-.16-.6-.46-.64-.3-.05-.58.17-.63.48l-.06.41c-.05.31.16.6.46.64.3.05.58-.17.63-.48l.06-.41Z"/>
      <path class="cls-10" d="m236.38,151.62c-.3-.02-.57.22-.58.53l-.02.41c-.02.31.21.58.52.6s.57-.22.58-.53l.02-.41c.02-.31-.21-.58-.52-.6Z"/>
      <path class="cls-10" d="m236.27,153.23c-.3-.05-.58.17-.63.48l-.06.41c-.05.31.16.6.46.64.3.05.58-.17.63-.48l.06-.41c.05-.31-.16-.6-.46-.64Z"/>
      <path class="cls-10" d="m235.96,154.94c-.3-.06-.59.14-.65.45l-.08.41c-.06.31.13.61.43.67.3.06.59-.14.65-.45l.08-.41c.06-.31-.13-.61-.43-.67Z"/>
      <path class="cls-10" d="m235.58,158.16c.3.02.57-.22.58-.53l.02-.41c.02-.31-.21-.58-.52-.6s-.57.22-.58.53l-.02.41c-.02.31.21.58.52.6Z"/>
      <path class="cls-10" d="m235.52,158.41c-.3.01-.54.27-.53.59v.41c.02.31.28.56.58.55.3-.01.54-.27.53-.59v-.41c-.02-.31-.28-.56-.58-.55Z"/>
      <path class="cls-10" d="m235.74,150.15c.02-.31-.21-.58-.52-.6s-.57.22-.58.53l-.02.41c-.02.31.21.58.52.6s.57-.22.58-.53l.02-.41Z"/>
      <path class="cls-10" d="m235.57,151.81c.05-.31-.16-.6-.46-.64-.3-.05-.58.17-.63.48l-.06.41c-.05.31.16.6.46.64.3.05.58-.17.63-.48l.06-.41Z"/>
      <path class="cls-10" d="m234.88,152.81c-.3-.02-.57.22-.58.53l-.02.41c-.02.31.21.58.52.6s.57-.22.58-.53l.02-.41c.02-.31-.21-.58-.52-.6Z"/>
      <path class="cls-10" d="m234.77,154.43c-.3-.05-.58.17-.63.48l-.06.41c-.05.31.16.6.46.64.3.05.58-.17.63-.48l.06-.41c.05-.31-.16-.6-.46-.64Z"/>
      <path class="cls-10" d="m234.47,156.14c-.3-.06-.59.14-.65.45l-.08.41c-.06.31.13.61.43.67.3.06.59-.14.65-.45l.08-.41c.06-.31-.13-.61-.43-.67Z"/>
      <path class="cls-10" d="m234.08,159.36c.3.02.57-.22.58-.53l.02-.41c.02-.31-.21-.58-.52-.6s-.57.22-.58.53l-.02.41c-.02.31.21.58.52.6Z"/>
      <path class="cls-10" d="m234.03,159.61c-.3.01-.54.27-.53.59v.41c.02.31.28.56.58.55.3-.01.54-.27.53-.59v-.41c-.02-.31-.28-.56-.58-.55Z"/>
      <path class="cls-10" d="m233.55,152.29c.3.02.57-.22.58-.53l.02-.41c.02-.31-.21-.58-.52-.6s-.57.22-.58.53l-.02.41c-.02.31.21.58.52.6Z"/>
      <path class="cls-10" d="m234.07,153.01c.05-.31-.16-.6-.46-.64-.3-.05-.58.17-.63.48l-.06.41c-.05.31.16.6.46.64.3.05.58-.17.63-.48l.06-.41Z"/>
      <path class="cls-10" d="m233.39,154.01c-.3-.02-.57.22-.58.53l-.02.41c-.02.31.21.58.52.6s.57-.22.58-.53l.02-.41c.02-.31-.21-.58-.52-.6Z"/>
      <path class="cls-10" d="m233.27,155.63h0c-.3-.05-.58.17-.63.48l-.06.41c-.05.31.16.6.46.64.3.05.58-.17.63-.48l.06-.41c.05-.31-.16-.6-.46-.64Z"/>
      <path class="cls-10" d="m232.97,157.33c-.3-.06-.59.14-.65.45l-.08.41c-.06.31.13.6.43.67.3.06.59-.14.65-.45l.08-.41c.06-.31-.13-.61-.43-.67Z"/>
      <path class="cls-10" d="m232.58,160.55c.3.02.57-.22.58-.53l.02-.41c.02-.31-.21-.58-.52-.6s-.57.22-.58.53l-.02.41c-.02.31.21.58.52.6Z"/>
      <path class="cls-10" d="m232.53,160.8c-.3.01-.54.27-.54.59v.41c.02.31.28.56.58.55s.54-.27.53-.59v-.41c-.02-.31-.28-.56-.58-.55Z"/>
      <path class="cls-10" d="m232.53,152.56c.02-.31-.21-.58-.52-.6s-.57.22-.58.53l-.02.41c-.02.31.21.58.52.6s.57-.22.58-.53l.02-.41Z"/>
      <path class="cls-10" d="m231.97,153.56c-.3-.05-.58.17-.63.48l-.06.41c-.05.31.16.6.46.64h0c.3.05.58-.17.63-.48l.06-.41c.05-.31-.16-.6-.46-.64Z"/>
      <path class="cls-10" d="m231.8,155.18c-.3-.02-.57.22-.58.53l-.02.41c-.02.31.21.58.52.6s.57-.22.58-.53l.02-.41c.02-.31-.21-.58-.52-.6Z"/>
      <path class="cls-10" d="m231.64,156.77c-.3-.05-.58.17-.63.48l-.06.41c-.05.31.16.6.46.64.3.05.58-.17.63-.48l.06-.41c.05-.31-.16-.6-.46-.64Z"/>
      <path class="cls-10" d="m231.47,158.53c-.3-.06-.59.14-.65.45l-.08.41c-.06.31.13.61.43.67.3.06.59-.14.65-.45l.08-.41c.06-.31-.13-.6-.43-.67Z"/>
      <path class="cls-10" d="m231.09,161.75c.3.02.57-.22.58-.53l.02-.41c.02-.31-.21-.58-.52-.6s-.57.22-.58.53l-.02.41c-.02.31.21.58.52.6Z"/>
      <path class="cls-10" d="m231.03,162c-.3.01-.54.27-.54.59v.41c.02.31.28.56.58.55.3-.01.54-.27.53-.59v-.41c-.02-.31-.28-.56-.58-.55Z"/>
      <path class="cls-10" d="m230.91,153.77c.02-.31-.21-.58-.52-.6s-.57.22-.58.53l-.02.41c-.02.31.21.58.52.6s.57-.22.58-.53l.02-.41Z"/>
      <path class="cls-10" d="m230,156.34c.3.05.58-.17.63-.48l.06-.41c.05-.31-.16-.6-.46-.64-.3-.05-.58.17-.63.48l-.06.41c-.05.31.16.6.46.64Z"/>
      <path class="cls-10" d="m230.71,157.04c.02-.31-.21-.58-.52-.6s-.57.22-.58.53l-.02.41c-.02.31.21.58.52.6s.57-.22.58-.53l.02-.41Z"/>
      <path class="cls-10" d="m229.74,159.65c.3.06.59-.14.65-.45l.08-.41c.06-.31-.13-.61-.43-.67-.3-.06-.59.14-.65.45l-.08.41c-.06.31.13.61.43.67Z"/>
      <path class="cls-10" d="m229.77,161.41c.3.02.57-.22.58-.53l.02-.41c.02-.31-.21-.58-.52-.6s-.57.22-.58.53l-.02.41c-.02.31.21.58.52.6Z"/>
      <path class="cls-10" d="m229.79,163.25c.3.02.57-.22.58-.53l.02-.41c.02-.31-.21-.58-.52-.6s-.57.22-.58.53l-.02.41c-.02.31.21.58.52.6Z"/>
      <path class="cls-10" d="m229.84,163.44c-.3.01-.54.27-.54.59v.41c.02.31.28.56.58.55.3-.01.54-.27.53-.59v-.41c-.02-.31-.28-.56-.58-.55Z"/>
    </g>
    <g>
      <g>
        <path class="cls-1" d="m244.91,125.55c-4.83-2.36-14.41-6.77-16.1-6.74l-.02-.5c2.24-.08,15.77,6.51,16.34,6.79l-.22.45Z"/>
        <g>
          <g>
            <polygon class="cls-15" points="245.02 138.97 230.52 151.82 216.02 138.97 216.02 125.33 245.02 125.33 245.02 138.97"/>
            <path class="cls-1" d="m230.52,152.16l-14.75-13.08v-14h29.49v14l-14.75,13.08Zm-14.25-13.3l14.25,12.63,14.25-12.63v-13.28h-28.49v13.28Z"/>
          </g>
          <g>
            <g>
              <rect class="cls-14" x="215.65" y="139.18" width="1.1" height="1.51" rx=".55" ry=".55" transform="translate(21.24 -28.33) rotate(7.88)"/>
              <rect class="cls-14" x="215.44" y="140.76" width="1.1" height="1.51" rx=".55" ry=".55"/>
              <rect class="cls-14" x="215.53" y="142.34" width="1.1" height="1.51" rx=".55" ry=".55" transform="translate(-12.15 20.31) rotate(-5.23)"/>
              <rect class="cls-5" x="215.59" y="143.95" width="1.1" height="1.51" rx=".55" ry=".55"/>
              <rect class="cls-5" x="215.67" y="145.52" width="1.1" height="1.51" rx=".55" ry=".55" transform="translate(-12.44 20.34) rotate(-5.23)"/>
              <rect class="cls-14" x="215.91" y="147.2" width="1.1" height="1.51" rx=".55" ry=".55" transform="translate(451.17 264.81) rotate(172.12)"/>
              <rect class="cls-14" x="216" y="148.85" width="1.1" height="1.51" rx=".55" ry=".55" transform="translate(433.1 299.2) rotate(180)"/>
              <rect class="cls-14" x="215.97" y="150.6" width="1.1" height="1.51" rx=".55" ry=".55" transform="translate(418.34 321.83) rotate(-174.77)"/>
            </g>
            <g>
              <rect class="cls-14" x="217.08" y="140.34" width="1.1" height="1.51" rx=".55" ry=".55" transform="translate(21.41 -28.52) rotate(7.88)"/>
              <rect class="cls-14" x="216.87" y="141.92" width="1.1" height="1.51" rx=".55" ry=".55"/>
              <rect class="cls-14" x="216.95" y="143.5" width="1.1" height="1.51" rx=".55" ry=".55" transform="translate(-12.25 20.44) rotate(-5.23)"/>
              <rect class="cls-5" x="217.01" y="145.11" width="1.1" height="1.51" rx=".55" ry=".55"/>
              <rect class="cls-5" x="217.1" y="146.68" width="1.1" height="1.51" rx=".55" ry=".55" transform="translate(-12.54 20.47) rotate(-5.23)"/>
              <rect class="cls-14" x="217.33" y="148.36" width="1.1" height="1.51" rx=".55" ry=".55" transform="translate(454.17 266.92) rotate(172.12)"/>
              <rect class="cls-14" x="217.42" y="150.01" width="1.1" height="1.51" rx=".55" ry=".55" transform="translate(435.95 301.52) rotate(-180)"/>
              <rect class="cls-14" x="217.4" y="151.76" width="1.1" height="1.51" rx=".55" ry=".55" transform="translate(421.07 324.27) rotate(-174.77)"/>
            </g>
            <g>
              <rect class="cls-14" x="218.5" y="141.5" width="1.1" height="1.51" rx=".55" ry=".55" transform="translate(21.58 -28.7) rotate(7.88)"/>
              <rect class="cls-14" x="218.29" y="143.08" width="1.1" height="1.51" rx=".55" ry=".55"/>
              <rect class="cls-14" x="218.38" y="144.66" width="1.1" height="1.51" rx=".55" ry=".55" transform="translate(-12.35 20.58) rotate(-5.23)"/>
              <rect class="cls-5" x="218.44" y="146.27" width="1.1" height="1.51" rx=".55" ry=".55"/>
              <rect class="cls-5" x="218.52" y="147.85" width="1.1" height="1.51" rx=".55" ry=".55" transform="translate(-12.64 20.6) rotate(-5.23)"/>
              <rect class="cls-14" x="218.76" y="149.52" width="1.1" height="1.51" rx=".55" ry=".55" transform="translate(457.16 269.04) rotate(172.12)"/>
              <rect class="cls-14" x="218.85" y="151.17" width="1.1" height="1.51" rx=".55" ry=".55" transform="translate(438.8 303.85) rotate(-180)"/>
              <rect class="cls-14" x="218.82" y="152.92" width="1.1" height="1.51" rx=".55" ry=".55" transform="translate(423.81 326.72) rotate(-174.77)"/>
            </g>
            <g>
              <rect class="cls-14" x="219.92" y="142.66" width="1.1" height="1.51" rx=".55" ry=".55" transform="translate(21.76 -28.89) rotate(7.88)"/>
              <rect class="cls-14" x="219.71" y="144.24" width="1.1" height="1.51" rx=".55" ry=".55"/>
              <rect class="cls-14" x="219.8" y="145.82" width="1.1" height="1.51" rx=".55" ry=".55" transform="translate(-12.45 20.71) rotate(-5.23)"/>
              <rect class="cls-5" x="219.86" y="147.43" width="1.1" height="1.51" rx=".55" ry=".55"/>
              <rect class="cls-5" x="219.95" y="149.01" width="1.1" height="1.51" rx=".55" ry=".55" transform="translate(-12.74 20.74) rotate(-5.23)"/>
              <rect class="cls-14" x="220.18" y="150.68" width="1.1" height="1.51" rx=".55" ry=".55" transform="translate(460.16 271.16) rotate(172.12)"/>
              <rect class="cls-14" x="220.27" y="152.33" width="1.1" height="1.51" rx=".55" ry=".55" transform="translate(441.65 306.17) rotate(-180)"/>
              <rect class="cls-14" x="220.25" y="154.08" width="1.1" height="1.51" rx=".55" ry=".55" transform="translate(426.55 329.17) rotate(-174.77)"/>
            </g>
            <g>
              <rect class="cls-14" x="221.35" y="143.82" width="1.1" height="1.51" rx=".55" ry=".55" transform="translate(21.93 -29.07) rotate(7.88)"/>
              <rect class="cls-14" x="221.14" y="145.41" width="1.1" height="1.51" rx=".55" ry=".55"/>
              <rect class="cls-14" x="221.23" y="146.98" width="1.1" height="1.51" rx=".55" ry=".55" transform="translate(-12.55 20.85) rotate(-5.23)"/>
              <rect class="cls-5" x="221.29" y="148.59" width="1.1" height="1.51" rx=".55" ry=".55"/>
              <rect class="cls-5" x="221.37" y="150.17" width="1.1" height="1.51" rx=".55" ry=".55" transform="translate(-12.84 20.87) rotate(-5.23)"/>
              <rect class="cls-14" x="221.61" y="151.84" width="1.1" height="1.51" rx=".55" ry=".55" transform="translate(463.15 273.27) rotate(172.12)"/>
              <rect class="cls-14" x="221.7" y="153.49" width="1.1" height="1.51" rx=".55" ry=".55" transform="translate(444.5 308.49) rotate(-180)"/>
              <rect class="cls-14" x="221.67" y="155.24" width="1.1" height="1.51" rx=".55" ry=".55" transform="translate(429.29 331.61) rotate(-174.77)"/>
            </g>
            <g>
              <rect class="cls-14" x="222.77" y="144.98" width="1.1" height="1.51" rx=".55" ry=".55" transform="translate(22.1 -29.26) rotate(7.88)"/>
              <rect class="cls-14" x="222.56" y="146.57" width="1.1" height="1.51" rx=".55" ry=".55"/>
              <rect class="cls-14" x="222.65" y="148.14" width="1.1" height="1.51" rx=".55" ry=".55" transform="translate(-12.65 20.98) rotate(-5.23)"/>
              <rect class="cls-5" x="222.71" y="149.75" width="1.1" height="1.51" rx=".55" ry=".55"/>
              <rect class="cls-5" x="222.8" y="151.33" width="1.1" height="1.51" rx=".55" ry=".55" transform="translate(-12.94 21.01) rotate(-5.23)"/>
              <rect class="cls-14" x="223.03" y="153" width="1.1" height="1.51" rx=".55" ry=".55" transform="translate(466.15 275.39) rotate(172.12)"/>
              <rect class="cls-14" x="223.12" y="154.65" width="1.1" height="1.51" rx=".55" ry=".55" transform="translate(447.35 310.81) rotate(-180)"/>
              <rect class="cls-14" x="223.1" y="156.4" width="1.1" height="1.51" rx=".55" ry=".55" transform="translate(432.02 334.06) rotate(-174.77)"/>
            </g>
            <g>
              <rect class="cls-14" x="224.2" y="146.14" width="1.1" height="1.51" rx=".55" ry=".55" transform="translate(22.28 -29.44) rotate(7.88)"/>
              <rect class="cls-14" x="223.99" y="147.73" width="1.1" height="1.51" rx=".55" ry=".55"/>
              <rect class="cls-14" x="224.08" y="149.3" width="1.1" height="1.51" rx=".55" ry=".55" transform="translate(-12.75 21.12) rotate(-5.23)"/>
              <rect class="cls-5" x="224.13" y="150.92" width="1.1" height="1.51" rx=".55" ry=".55"/>
              <rect class="cls-5" x="224.22" y="152.49" width="1.1" height="1.51" rx=".55" ry=".55" transform="translate(-13.04 21.14) rotate(-5.23)"/>
              <rect class="cls-14" x="224.46" y="154.16" width="1.1" height="1.51" rx=".55" ry=".55" transform="translate(469.14 277.5) rotate(172.12)"/>
              <rect class="cls-14" x="224.55" y="155.81" width="1.1" height="1.51" rx=".55" ry=".55" transform="translate(450.19 313.13) rotate(-180)"/>
              <rect class="cls-14" x="224.52" y="157.56" width="1.1" height="1.51" rx=".55" ry=".55" transform="translate(434.76 336.51) rotate(-174.77)"/>
            </g>
            <g>
              <rect class="cls-14" x="225.62" y="147.3" width="1.1" height="1.51" rx=".55" ry=".55" transform="translate(22.45 -29.63) rotate(7.88)"/>
              <rect class="cls-14" x="225.41" y="148.89" width="1.1" height="1.51" rx=".55" ry=".55"/>
              <rect class="cls-14" x="225.5" y="150.46" width="1.1" height="1.51" rx=".55" ry=".55" transform="translate(-12.85 21.25) rotate(-5.23)"/>
              <rect class="cls-5" x="225.56" y="152.08" width="1.1" height="1.51" rx=".55" ry=".55"/>
              <rect class="cls-5" x="225.65" y="153.65" width="1.1" height="1.51" rx=".55" ry=".55" transform="translate(-13.14 21.28) rotate(-5.23)"/>
              <rect class="cls-14" x="225.88" y="155.32" width="1.1" height="1.51" rx=".55" ry=".55" transform="translate(472.14 279.61) rotate(172.12)"/>
              <rect class="cls-14" x="225.97" y="156.97" width="1.1" height="1.51" rx=".55" ry=".55" transform="translate(453.04 315.45) rotate(180)"/>
              <rect class="cls-14" x="225.94" y="158.73" width="1.1" height="1.51" rx=".55" ry=".55" transform="translate(437.5 338.95) rotate(-174.77)"/>
            </g>
            <g>
              <rect class="cls-14" x="227.05" y="148.47" width="1.1" height="1.51" rx=".55" ry=".55" transform="translate(22.62 -29.81) rotate(7.88)"/>
              <rect class="cls-14" x="226.84" y="150.05" width="1.1" height="1.51" rx=".55" ry=".55"/>
              <rect class="cls-14" x="226.93" y="151.62" width="1.1" height="1.51" rx=".55" ry=".55" transform="translate(-12.95 21.39) rotate(-5.23)"/>
              <rect class="cls-5" x="226.98" y="153.24" width="1.1" height="1.51" rx=".55" ry=".55"/>
              <rect class="cls-5" x="227.07" y="154.81" width="1.1" height="1.51" rx=".55" ry=".55" transform="translate(-13.24 21.42) rotate(-5.23)"/>
              <rect class="cls-14" x="227.31" y="156.48" width="1.1" height="1.51" rx=".55" ry=".55" transform="translate(475.13 281.73) rotate(172.12)"/>
              <rect class="cls-14" x="227.4" y="158.14" width="1.1" height="1.51" rx=".55" ry=".55" transform="translate(455.89 317.78) rotate(-180)"/>
              <rect class="cls-14" x="227.37" y="159.89" width="1.1" height="1.51" rx=".55" ry=".55" transform="translate(440.24 341.4) rotate(-174.77)"/>
            </g>
            <g>
              <rect class="cls-14" x="228.47" y="149.63" width="1.1" height="1.51" rx=".55" ry=".55" transform="translate(22.79 -29.99) rotate(7.88)"/>
              <rect class="cls-14" x="228.26" y="151.21" width="1.1" height="1.51" rx=".55" ry=".55"/>
              <rect class="cls-14" x="228.35" y="152.78" width="1.1" height="1.51" rx=".55" ry=".55" transform="translate(-13.05 21.52) rotate(-5.23)"/>
              <rect class="cls-5" x="228.41" y="154.4" width="1.1" height="1.51" rx=".55" ry=".55"/>
              <rect class="cls-5" x="228.5" y="155.97" width="1.1" height="1.51" rx=".55" ry=".55" transform="translate(-13.34 21.55) rotate(-5.23)"/>
              <rect class="cls-14" x="228.73" y="157.65" width="1.1" height="1.51" rx=".55" ry=".55" transform="translate(478.13 283.85) rotate(172.12)"/>
              <rect class="cls-14" x="228.82" y="159.3" width="1.1" height="1.51" rx=".55" ry=".55" transform="translate(458.74 320.1) rotate(-180)"/>
              <rect class="cls-14" x="228.79" y="161.05" width="1.1" height="1.51" rx=".55" ry=".55" transform="translate(442.97 343.85) rotate(-174.77)"/>
            </g>
            <g>
              <rect class="cls-14" x="229.9" y="150.79" width="1.1" height="1.51" rx=".55" ry=".55" transform="translate(22.97 -30.18) rotate(7.88)"/>
              <rect class="cls-14" x="229.83" y="152.37" width="1.1" height="1.51" rx=".55" ry=".55"/>
              <rect class="cls-14" x="229.83" y="154.02" width="1.1" height="1.51" rx=".55" ry=".55" transform="translate(-13.16 21.66) rotate(-5.23)"/>
              <rect class="cls-5" x="229.9" y="155.62" width="1.1" height="1.51" rx=".55" ry=".55"/>
              <rect class="cls-5" x="230.04" y="157.27" width="1.1" height="1.51" rx=".55" ry=".55" transform="translate(-13.45 21.69) rotate(-5.23)"/>
              <rect class="cls-14" x="230.16" y="158.81" width="1.1" height="1.51" rx=".55" ry=".55" transform="translate(481.12 285.96) rotate(172.12)"/>
              <rect class="cls-14" x="230.24" y="160.46" width="1.1" height="1.51" rx=".55" ry=".55" transform="translate(461.59 322.42) rotate(-180)"/>
              <rect class="cls-14" x="230.22" y="162.21" width="1.1" height="1.51" rx=".55" ry=".55" transform="translate(445.71 346.29) rotate(-174.77)"/>
            </g>
          </g>
          <g>
            <g>
              <rect class="cls-14" x="244.45" y="138.84" width="1.1" height="1.51" rx=".55" ry=".55" transform="translate(506.83 244.26) rotate(172.12)"/>
              <rect class="cls-14" x="244.66" y="140.43" width="1.1" height="1.51" rx=".55" ry=".55" transform="translate(490.42 282.36) rotate(-180)"/>
              <rect class="cls-14" x="244.57" y="142" width="1.1" height="1.51" rx=".55" ry=".55" transform="translate(476.19 307.27) rotate(-174.77)"/>
              <rect class="cls-5" x="244.51" y="143.61" width="1.1" height="1.51" rx=".55" ry=".55" transform="translate(490.12 288.73) rotate(-180)"/>
              <rect class="cls-5" x="244.42" y="145.19" width="1.1" height="1.51" rx=".55" ry=".55" transform="translate(475.61 313.62) rotate(-174.77)"/>
              <rect class="cls-14" x="244.19" y="146.86" width="1.1" height="1.51" rx=".55" ry=".55" transform="translate(22.56 -32.18) rotate(7.88)"/>
              <rect class="cls-14" x="244.1" y="148.51" width="1.1" height="1.51" rx=".55" ry=".55"/>
              <rect class="cls-14" x="244.13" y="150.26" width="1.1" height="1.51" rx=".55" ry=".55" transform="translate(-12.76 22.95) rotate(-5.23)"/>
            </g>
            <g>
              <rect class="cls-14" x="243.02" y="140.09" width="1.1" height="1.51" rx=".55" ry=".55" transform="translate(504.16 246.95) rotate(172.12)"/>
              <rect class="cls-14" x="243.23" y="141.68" width="1.1" height="1.51" rx=".55" ry=".55" transform="translate(487.57 284.86) rotate(-180)"/>
              <rect class="cls-14" x="243.14" y="143.25" width="1.1" height="1.51" rx=".55" ry=".55" transform="translate(473.24 309.64) rotate(-174.77)"/>
              <rect class="cls-5" x="243.09" y="144.87" width="1.1" height="1.51" rx=".55" ry=".55" transform="translate(487.27 291.24) rotate(180)"/>
              <rect class="cls-5" x="243" y="146.44" width="1.1" height="1.51" rx=".55" ry=".55" transform="translate(472.66 315.99) rotate(-174.77)"/>
              <rect class="cls-14" x="242.76" y="148.11" width="1.1" height="1.51" rx=".55" ry=".55" transform="translate(22.72 -31.97) rotate(7.88)"/>
              <rect class="cls-14" x="242.67" y="149.76" width="1.1" height="1.51" rx=".55" ry=".55"/>
              <rect class="cls-14" x="242.7" y="151.51" width="1.1" height="1.51" rx=".55" ry=".55" transform="translate(-12.88 22.82) rotate(-5.23)"/>
            </g>
            <g>
              <rect class="cls-14" x="241.6" y="141.34" width="1.1" height="1.51" rx=".55" ry=".55" transform="translate(501.5 249.63) rotate(172.12)"/>
              <rect class="cls-14" x="241.81" y="142.93" width="1.1" height="1.51" rx=".55" ry=".55" transform="translate(484.72 287.36) rotate(180)"/>
              <rect class="cls-14" x="241.72" y="144.5" width="1.1" height="1.51" rx=".55" ry=".55" transform="translate(470.28 312.01) rotate(-174.77)"/>
              <rect class="cls-5" x="241.66" y="146.12" width="1.1" height="1.51" rx=".55" ry=".55" transform="translate(484.43 293.74) rotate(-180)"/>
              <rect class="cls-5" x="241.57" y="147.69" width="1.1" height="1.51" rx=".55" ry=".55" transform="translate(469.7 318.36) rotate(-174.77)"/>
              <rect class="cls-14" x="241.34" y="149.36" width="1.1" height="1.51" rx=".55" ry=".55" transform="translate(22.88 -31.76) rotate(7.88)"/>
              <rect class="cls-14" x="241.25" y="151.01" width="1.1" height="1.51" rx=".55" ry=".55"/>
              <rect class="cls-14" x="241.28" y="152.77" width="1.1" height="1.51" rx=".55" ry=".55" transform="translate(-13 22.7) rotate(-5.23)"/>
            </g>
            <g>
              <rect class="cls-14" x="240.17" y="142.6" width="1.1" height="1.51" rx=".55" ry=".55" transform="translate(498.84 252.32) rotate(172.12)"/>
              <rect class="cls-14" x="240.38" y="144.18" width="1.1" height="1.51" rx=".55" ry=".55" transform="translate(481.87 289.86) rotate(180)"/>
              <rect class="cls-14" x="240.29" y="145.75" width="1.1" height="1.51" rx=".55" ry=".55" transform="translate(467.32 314.37) rotate(-174.77)"/>
              <rect class="cls-5" x="240.24" y="147.37" width="1.1" height="1.51" rx=".55" ry=".55" transform="translate(481.58 296.24) rotate(-180)"/>
              <rect class="cls-5" x="240.15" y="148.94" width="1.1" height="1.51" rx=".55" ry=".55" transform="translate(466.74 320.72) rotate(-174.77)"/>
              <rect class="cls-14" x="239.91" y="150.61" width="1.1" height="1.51" rx=".55" ry=".55" transform="translate(23.04 -31.55) rotate(7.88)"/>
              <rect class="cls-14" x="239.83" y="152.27" width="1.1" height="1.51" rx=".55" ry=".55"/>
              <rect class="cls-14" x="239.85" y="154.02" width="1.1" height="1.51" rx=".55" ry=".55" transform="translate(-13.12 22.58) rotate(-5.23)"/>
            </g>
            <g>
              <rect class="cls-14" x="238.75" y="143.85" width="1.1" height="1.51" rx=".55" ry=".55" transform="translate(496.17 255.01) rotate(172.12)"/>
              <rect class="cls-14" x="238.96" y="145.43" width="1.1" height="1.51" rx=".55" ry=".55" transform="translate(479.02 292.37) rotate(-180)"/>
              <rect class="cls-14" x="238.87" y="147" width="1.1" height="1.51" rx=".55" ry=".55" transform="translate(464.36 316.74) rotate(-174.77)"/>
              <rect class="cls-5" x="238.81" y="148.62" width="1.1" height="1.51" rx=".55" ry=".55" transform="translate(478.73 298.74) rotate(-180)"/>
              <rect class="cls-5" x="238.72" y="150.19" width="1.1" height="1.51" rx=".55" ry=".55" transform="translate(463.78 323.09) rotate(-174.77)"/>
              <rect class="cls-14" x="238.49" y="151.87" width="1.1" height="1.51" rx=".55" ry=".55" transform="translate(23.19 -31.35) rotate(7.88)"/>
              <rect class="cls-14" x="238.4" y="153.52" width="1.1" height="1.51" rx=".55" ry=".55"/>
              <rect class="cls-14" x="238.43" y="155.27" width="1.1" height="1.51" rx=".55" ry=".55" transform="translate(-13.24 22.45) rotate(-5.23)"/>
            </g>
            <g>
              <rect class="cls-14" x="237.32" y="145.1" width="1.1" height="1.51" rx=".55" ry=".55" transform="translate(493.51 257.69) rotate(172.12)"/>
              <rect class="cls-14" x="237.53" y="146.68" width="1.1" height="1.51" rx=".55" ry=".55" transform="translate(476.17 294.87) rotate(-180)"/>
              <rect class="cls-14" x="237.44" y="148.26" width="1.1" height="1.51" rx=".55" ry=".55" transform="translate(461.41 319.11) rotate(-174.77)"/>
              <rect class="cls-5" x="237.39" y="149.87" width="1.1" height="1.51" rx=".55" ry=".55" transform="translate(475.88 301.25) rotate(-180)"/>
              <rect class="cls-5" x="237.3" y="151.44" width="1.1" height="1.51" rx=".55" ry=".55" transform="translate(460.83 325.46) rotate(-174.77)"/>
              <rect class="cls-14" x="237.06" y="153.12" width="1.1" height="1.51" rx=".55" ry=".55" transform="translate(23.35 -31.14) rotate(7.88)"/>
              <rect class="cls-14" x="236.98" y="154.77" width="1.1" height="1.51" rx=".55" ry=".55"/>
              <rect class="cls-14" x="237" y="156.52" width="1.1" height="1.51" rx=".55" ry=".55" transform="translate(-13.36 22.33) rotate(-5.23)"/>
            </g>
            <g>
              <rect class="cls-14" x="235.9" y="146.35" width="1.1" height="1.51" rx=".55" ry=".55" transform="translate(490.84 260.38) rotate(172.12)"/>
              <rect class="cls-14" x="236.11" y="147.93" width="1.1" height="1.51" rx=".55" ry=".55" transform="translate(473.32 297.37) rotate(-180)"/>
              <rect class="cls-14" x="236.02" y="149.51" width="1.1" height="1.51" rx=".55" ry=".55" transform="translate(458.45 321.48) rotate(-174.77)"/>
              <rect class="cls-5" x="235.96" y="151.12" width="1.1" height="1.51" rx=".55" ry=".55" transform="translate(473.03 303.75) rotate(-180)"/>
              <rect class="cls-5" x="235.87" y="152.69" width="1.1" height="1.51" rx=".55" ry=".55" transform="translate(457.87 327.83) rotate(-174.77)"/>
              <rect class="cls-14" x="235.64" y="154.37" width="1.1" height="1.51" rx=".55" ry=".55" transform="translate(23.51 -30.93) rotate(7.88)"/>
              <rect class="cls-14" x="235.55" y="156.02" width="1.1" height="1.51" rx=".55" ry=".55"/>
              <rect class="cls-14" x="235.58" y="157.77" width="1.1" height="1.51" rx=".55" ry=".55" transform="translate(-13.48 22.2) rotate(-5.23)"/>
            </g>
            <g>
              <rect class="cls-14" x="234.47" y="147.6" width="1.1" height="1.51" rx=".55" ry=".55" transform="translate(488.18 263.06) rotate(172.12)"/>
              <rect class="cls-14" x="234.6" y="149.18" width="1.1" height="1.51" rx=".55" ry=".55" transform="translate(470.29 299.87) rotate(180)"/>
              <rect class="cls-14" x="234.6" y="150.76" width="1.1" height="1.51" rx=".55" ry=".55" transform="translate(455.49 323.84) rotate(-174.77)"/>
              <rect class="cls-5" x="234.54" y="152.37" width="1.1" height="1.51" rx=".55" ry=".55" transform="translate(470.18 306.25) rotate(180)"/>
              <rect class="cls-5" x="234.45" y="153.95" width="1.1" height="1.51" rx=".55" ry=".55" transform="translate(454.91 330.19) rotate(-174.77)"/>
              <rect class="cls-14" x="234.21" y="155.62" width="1.1" height="1.51" rx=".55" ry=".55" transform="translate(23.67 -30.73) rotate(7.88)"/>
              <rect class="cls-14" x="234.13" y="157.27" width="1.1" height="1.51" rx=".55" ry=".55"/>
              <rect class="cls-14" x="234.15" y="159.02" width="1.1" height="1.51" rx=".55" ry=".55" transform="translate(-13.6 22.08) rotate(-5.23)"/>
            </g>
            <g>
              <rect class="cls-14" x="233.05" y="148.85" width="1.1" height="1.51" rx=".55" ry=".55" transform="translate(485.51 265.75) rotate(172.12)"/>
              <rect class="cls-14" x="233.05" y="150.46" width="1.1" height="1.51" rx=".55" ry=".55" transform="translate(467.2 302.42) rotate(-180)"/>
              <rect class="cls-14" x="233.03" y="152.01" width="1.1" height="1.51" rx=".55" ry=".55" transform="translate(452.24 326.2) rotate(-174.77)"/>
              <rect class="cls-5" x="233.03" y="153.6" width="1.1" height="1.51" rx=".55" ry=".55" transform="translate(467.15 308.7) rotate(-180)"/>
              <rect class="cls-5" x="232.89" y="155.15" width="1.1" height="1.51" rx=".55" ry=".55" transform="translate(451.69 332.46) rotate(-174.77)"/>
              <rect class="cls-14" x="232.79" y="156.87" width="1.1" height="1.51" rx=".55" ry=".55" transform="translate(23.83 -30.52) rotate(7.88)"/>
              <rect class="cls-14" x="232.7" y="158.52" width="1.1" height="1.51" rx=".55" ry=".55"/>
              <rect class="cls-14" x="232.73" y="160.27" width="1.1" height="1.51" rx=".55" ry=".55" transform="translate(-13.72 21.95) rotate(-5.23)"/>
            </g>
            <g>
              <rect class="cls-14" x="231.62" y="150.1" width="1.1" height="1.51" rx=".55" ry=".55" transform="translate(482.85 268.44) rotate(172.12)"/>
              <rect class="cls-14" x="231.5" y="151.73" width="1.1" height="1.51" rx=".55" ry=".55" transform="translate(464.1 304.97) rotate(-180)"/>
              <rect class="cls-14" x="231.36" y="153.33" width="1.1" height="1.51" rx=".55" ry=".55" transform="translate(448.81 328.68) rotate(-174.77)"/>
              <rect class="cls-5" x="231.5" y="154.92" width="1.1" height="1.51" rx=".55" ry=".55" transform="translate(464.1 311.34) rotate(-180)"/>
              <rect class="cls-5" x="231.34" y="156.56" width="1.1" height="1.51" rx=".55" ry=".55" transform="translate(440.01 344.96) rotate(-172.12)"/>
              <rect class="cls-14" x="231.36" y="158.27" width="1.1" height="1.51" rx=".55" ry=".55"/>
              <rect class="cls-14" x="231.5" y="160.05" width="1.1" height="1.51" rx=".55" ry=".55"/>
              <rect class="cls-14" x="231.62" y="161.74" width="1.1" height="1.51" rx=".55" ry=".55" transform="translate(-13.86 21.86) rotate(-5.23)"/>
            </g>
          </g>
        </g>
        <path class="cls-1" d="m216.15,125.55l-.25-.43c4.6-2.65,12.43-7.06,13.1-6.77l-.2.46c-.68,0-8.13,4.14-12.66,6.75Z"/>
      </g>
      <g>
        <rect class="cls-3" x="224.01" y="132.27" width="1.79" height="1.25" rx=".4" ry=".4"/>
        <rect class="cls-3" x="224.01" y="133.94" width="1.79" height="1.25" rx=".4" ry=".4"/>
        <rect class="cls-3" x="224.01" y="137.27" width="1.79" height="1.25" rx=".4" ry=".4"/>
        <rect class="cls-3" x="224.01" y="138.94" width="1.79" height="1.25" rx=".4" ry=".4"/>
        <rect class="cls-3" x="226.34" y="130.6" width="1.79" height="1.25" rx=".4" ry=".4"/>
        <rect class="cls-3" x="226.34" y="132.27" width="1.79" height="1.25" rx=".4" ry=".4"/>
        <rect class="cls-3" x="226.34" y="135.6" width="1.79" height="1.25" rx=".4" ry=".4"/>
        <rect class="cls-3" x="221.81" y="135.6" width="1.79" height="1.25" rx=".4" ry=".4"/>
        <rect class="cls-3" x="226.34" y="138.94" width="1.79" height="1.25" rx=".4" ry=".4"/>
        <rect class="cls-3" x="226.34" y="140.6" width="1.79" height="1.25" rx=".4" ry=".4"/>
        <rect class="cls-3" x="228.66" y="128.94" width="1.79" height="1.25" rx=".4" ry=".4"/>
        <rect class="cls-3" x="228.66" y="133.94" width="1.79" height="1.25" rx=".4" ry=".4"/>
        <rect class="cls-3" x="228.66" y="137.27" width="1.79" height="1.25" rx=".4" ry=".4"/>
        <rect class="cls-3" x="230.99" y="128.94" width="1.79" height="1.25" rx=".4" ry=".4"/>
        <rect class="cls-3" x="230.99" y="133.94" width="1.79" height="1.25" rx=".4" ry=".4"/>
        <rect class="cls-3" x="230.99" y="137.27" width="1.79" height="1.25" rx=".4" ry=".4"/>
        <rect class="cls-3" x="228.66" y="142.23" width="1.79" height="1.25" rx=".4" ry=".4"/>
        <rect class="cls-3" x="230.99" y="142.23" width="1.79" height="1.25" rx=".4" ry=".4"/>
        <rect class="cls-3" x="233.31" y="130.6" width="1.79" height="1.25" rx=".4" ry=".4"/>
        <rect class="cls-3" x="233.31" y="132.27" width="1.79" height="1.25" rx=".4" ry=".4"/>
        <rect class="cls-3" x="233.31" y="135.6" width="1.79" height="1.25" rx=".4" ry=".4"/>
        <rect class="cls-3" x="237.91" y="135.6" width="1.79" height="1.25" rx=".4" ry=".4"/>
        <rect class="cls-3" x="233.31" y="138.94" width="1.79" height="1.25" rx=".4" ry=".4"/>
        <rect class="cls-3" x="233.31" y="140.6" width="1.79" height="1.25" rx=".4" ry=".4"/>
        <rect class="cls-3" x="235.64" y="132.27" width="1.79" height="1.25" rx=".4" ry=".4"/>
        <rect class="cls-3" x="235.64" y="133.94" width="1.79" height="1.25" rx=".4" ry=".4"/>
        <rect class="cls-3" x="235.64" y="137.27" width="1.79" height="1.25" rx=".4" ry=".4"/>
        <rect class="cls-3" x="235.64" y="138.94" width="1.79" height="1.25" rx=".4" ry=".4"/>
      </g>
    </g>
    <circle class="cls-1" cx="229.69" cy="118.83" r="1.28"/>
  </g>
  <g>
    <g class="cls-9">
      <ellipse class="cls-10" cx="168.43" cy="209.14" rx="6.24" ry="2.15"/>
    </g>
    <g>
      <path class="cls-19" d="m167.75,206.57c.1,0,.2.01.3.03.22-.68.79-1.17,1.47-1.17.25,0,.49.07.7.2.08-.59.39-1.03.77-1.03.13,0,.25.06.36.15.04,0,.08-.01.13-.01.4,0,.76.19.99.48.08,0,.16-.02.25-.02.26,0,.5.04.72.11.1-.24.15-.52.15-.81,0-.98-.6-1.77-1.34-1.77-.12,0-.24.03-.35.07-.35-.49-1.02-.83-1.79-.83-.09,0-.17.01-.25.02-.24-.29-.59-.48-.99-.48-.04,0-.09,0-.13.01-.11-.09-.23-.15-.36-.15-.38,0-.7.44-.77,1.03-.21-.12-.45-.2-.7-.2-.68,0-1.25.49-1.47,1.17-.1-.02-.19-.03-.3-.03-.9,0-1.64.73-1.64,1.64,0,.35.12.68.31.95-.34.29-.53.61-.53.96,0,.77.96,1.45,2.4,1.82.15.12.38.23.66.32-.14-.24-.22-.51-.22-.81,0-.9.73-1.64,1.64-1.64Z"/>
      <path class="cls-13" d="m168.75,210.29c.15,0,.3-.03.43-.08.21.44.65.74,1.16.74.71,0,1.29-.58,1.29-1.29.71,0,1.29-.58,1.29-1.29,0-.24-.07-.46-.18-.65.26-.26.41-.54.41-.84,0-.28-.13-.54-.35-.78.28-.16.51-.45.66-.8-.23-.07-.47-.11-.72-.11-.09,0-.17.01-.25.02-.24-.29-.59-.48-.99-.48-.04,0-.09,0-.13.01-.11-.09-.23-.15-.36-.15-.38,0-.7.44-.77,1.03-.21-.12-.45-.2-.7-.2-.68,0-1.25.49-1.47,1.17-.1-.02-.19-.03-.3-.03-.9,0-1.64.73-1.64,1.64,0,.3.08.57.22.81.32.1.71.18,1.15.23.11.6.63,1.05,1.27,1.05Z"/>
    </g>
  </g>
</svg>