<?xml version="1.0" encoding="UTF-8"?>
<svg id="Layer_1" data-name="Layer 1" xmlns="http://www.w3.org/2000/svg" width="300" height="225" viewBox="0 0 300 225">
  <defs>
    <style>
      .cls-1 {
        fill: #754103;
      }

      .cls-2 {
        fill: #fff;
      }

      .cls-3 {
        fill: #26c0ef;
      }

      .cls-4 {
        isolation: isolate;
        opacity: .35;
      }

      .cls-5 {
        fill: #232323;
      }

      .cls-6 {
        fill: #444;
      }

      .cls-7 {
        fill: #d5f225;
      }

      .cls-8 {
        fill: #281d10;
      }

      .cls-9 {
        fill: #7f7f7f;
      }
    </style>
  </defs>
  <g class="cls-4">
    <ellipse class="cls-5" cx="148.12" cy="191.97" rx="44.5" ry="7.2"/>
  </g>
  <g>
    <g>
      <path class="cls-5" d="m150.87,148.73c.2,1.3,4.3,37.5,10.5,42.6,6.2,5.1,9.4,3.4,10.7,2,1.3-1.4,3-3.9-.1-6.8-2.5-2.3-4.2-12.5-1.7-28.4l-19.4-9.4Z"/>
      <g>
        <path class="cls-5" d="m176.37,189.43c.8.2,1.6.1,1.9-.4.3-.5-.2-1.4-1.1-1.9-2.5-1.2-5.4-1.6-8.2-1.1-1.1.2-1.5,1.3-1,2.3s1.4,1.5,2.1,1.3c1.9-.7,4.1-.8,6.3-.2Z"/>
        <path class="cls-5" d="m175.17,193.93c.7.4,1.5.5,2,.1.4-.4.2-1.4-.5-2.1-2.1-1.9-4.7-3-7.6-3.3-1.1-.1-1.8.8-1.6,1.9.2,1.1.9,1.8,1.6,1.8,2-.1,4.2.4,6.1,1.6Z"/>
        <path class="cls-5" d="m171.77,197.33c.4.7,1.1,1.2,1.7,1,.6-.2.9-1.2.5-2.1-1-2.6-2.8-4.9-5.3-6.4-.9-.6-2-.1-2.3,1-.3,1,0,2,.6,2.3,2,.8,3.7,2.3,4.8,4.2Z"/>
      </g>
    </g>
    <g>
      <path class="cls-5" d="m147.07,148.43c-.2,1.3-4.5,37.5-10.6,42.5-6.2,5.1-9.4,3.3-10.7,2-1.3-1.4-3-4,.1-6.8,2.5-2.3,4.2-12.5,1.8-28.4l19.4-9.3Z"/>
      <g>
        <path class="cls-5" d="m122.47,189.43c-.8.2-1.6.1-1.9-.4-.3-.5.2-1.4,1.1-1.9,2.5-1.2,5.4-1.6,8.2-1,1.1.2,1.5,1.3,1,2.3s-1.4,1.5-2.1,1.2c-1.9-.7-4.1-.8-6.3-.2Z"/>
        <path class="cls-5" d="m123.67,193.93c-.7.4-1.5.5-2,.1-.4-.4-.2-1.4.5-2.1,2.1-1.8,4.8-3,7.6-3.3,1.1-.1,1.8.9,1.6,1.9-.2,1.1-.9,1.8-1.6,1.8-2-.1-4.2.4-6.1,1.6Z"/>
        <path class="cls-5" d="m127.07,197.33c-.4.7-1.1,1.2-1.7,1s-.8-1.2-.5-2.1c1-2.6,2.9-4.8,5.3-6.4.9-.6,2-.1,2.3,1,.3,1,0,2-.6,2.3-2,.8-3.7,2.3-4.8,4.2Z"/>
      </g>
    </g>
  </g>
  <path class="cls-6" d="m181.87,129.63c-1.3-12.5-6.5-27.7-16.4-33.2-4.2-2.4-9.1-4.1-15.9-5.2-1.6.3-3.1.6-4.5.9-.2.1-.5.1-.7.2-.4.1-.8.2-1.2.3-.3.1-.5.1-.8.2-.4.1-.8.2-1.2.4-.2.1-.4.1-.6.2-.6.2-1.1.4-1.7.6-.2.1-.3.1-.5.2-.4.2-.8.3-1.2.5-.2.1-.4.2-.5.2-.4.2-.7.3-1.1.5-.2.1-.3.1-.5.2-.5.2-1,.5-1.5.8-10.6,5.9-15.8,22.9-16.7,35.8-.1,1.9-.1,3.7-.1,5.4,0,4.4.3,8,.8,10.2,0,.1.1.2.1.3,2.6,12,15.9,21.1,31.8,21.1,17.9,0,32.4-11.4,32.4-25.4v-.4c.3-3.8.3-8.6,0-13.8Z"/>
  <path class="cls-2" d="m173.47,94.63c-4.1-4.7-9.4-7-19.9-7.4h-6c-.7,0-1.3,0-1.9.1h-.2c-10.5.4-15.8,2.7-19.9,7.3-5.4,6.2-8.2,23.8-8.8,37.5.9-12.9,6.2-29.9,16.7-35.8,4.2-2.3,9.2-4,15.9-5.1,6.8,1.1,11.7,2.9,15.9,5.2,10.6,5.9,15.8,22.9,16.6,35.8-.3-13.8-3-31.4-8.4-37.6Z"/>
  <path class="cls-2" d="m149.37,45.93c-5.8,0-12.5-2.3-16.3-3.3-4.5-1.1-6.6-1.2-9.9-1.2-10,0-13.1,5.2-13.9,7.4,6.6-20.2,27.4-23.1,39.8-23h1c12.3,0,33.2,2.9,39.7,23.2-.8-2.1-3.9-7.4-13.9-7.4-3.3,0-5.4,0-9.9,1.1-3.8,1-10.6,3.2-16.3,3.2h-.3Z"/>
  <path class="cls-6" d="m189.67,49.03h0c-.8-2.2-3.9-7.4-13.9-7.4-3.3,0-5.4,0-9.9,1.1-3.8,1-10.6,3.2-16.3,3.2h-.2c-5.8,0-12.5-2.3-16.3-3.3-4.5-1.1-6.6-1.2-9.9-1.2-10,0-13.1,5.2-13.9,7.4h0c-2.1,2-3.5,7.3-3.4,13.6.2,7.9,2.9,14.2,6,14.1h.2c7.2,14.5,26.9,21.2,37.2,21.2s30.2-6.6,37.5-21.1h.2c3.1.1,5.8-6.2,6.1-14.1.1-6.2-1.3-11.5-3.4-13.5Z"/>
  <path class="cls-9" d="m149.37,87.33c-5.2,0-16.3-4.9-16.3-15.5s12.3-11.4,16.4-11.4,16.4.9,16.3,11.5c0,10.6-11.2,15.4-16.4,15.4Z"/>
  <path class="cls-5" d="m149.67,63.13c2.3,0,5.6,2.4,6,5.1.4,2.8-6.2,2.7-6.2,2.7h-.2s-6.6.1-6.2-2.7c.4-2.8,3.8-5.1,6-5.1h.6Z"/>
  <g>
    <circle class="cls-5" cx="132.67" cy="55.03" r="2"/>
    <path class="cls-5" d="m168.17,55.13c0,1.1-.9,2-2,2s-2-.9-2-2,.9-2,2-2,2,.9,2,2Z"/>
  </g>
  <path class="cls-5" d="m185.37,53.53c2.5.1,4.6,4.9,5.4,11.7.1-.9.2-1.7.2-2.7.2-6.2-1.3-11.3-3.4-11.4-.9,0-1.7.9-2.3,2.3,0,.1.1.1.1.1Z"/>
  <path class="cls-5" d="m113.47,53.33c-2.5.1-4.6,4.9-5.4,11.7-.1-.9-.1-1.7-.2-2.7-.1-6.2,1.4-11.3,3.4-11.4.9,0,1.7.9,2.3,2.4,0,.1,0,0-.1,0Z"/>
  <path class="cls-9" d="m136.67,50.32c-.23,0-.45-.1-.61-.28-.38-.46-.86-.8-1.5-1.08-.68-.29-1.27-.44-1.79-.44-.68-.08-1.14.06-1.73.22l-.11.03c-.65.28-1.13.53-1.51.91-.31.31-.81.31-1.12,0-.31-.31-.31-.81,0-1.12.63-.63,1.39-.98,2.05-1.27l.25-.08c.67-.19,1.36-.39,2.26-.28.62,0,1.43.18,2.31.56.87.37,1.55.87,2.1,1.52.28.34.23.83-.1,1.11-.15.12-.33.18-.51.18Z"/>
  <path class="cls-9" d="m170.27,50.32c-.23,0-.45-.1-.61-.28-.38-.46-.86-.8-1.5-1.08-.68-.29-1.27-.44-1.79-.44h-.11c-.53-.08-1.14.09-1.77.27-.58.25-1.07.51-1.46.9-.31.31-.81.31-1.12,0-.31-.31-.31-.81,0-1.12.63-.63,1.39-.98,2.05-1.27.81-.24,1.62-.47,2.47-.36.72,0,1.49.19,2.36.56.87.37,1.55.87,2.1,1.52.28.34.23.83-.1,1.11-.15.12-.33.18-.51.18Z"/>
  <path class="cls-5" d="m149.37,82.74c-1.48,0-2.81-.41-3.67-.75-1.24-.56-2.19-1.21-3.04-2.06-.91-.9-1.64-1.98-2.06-3.04-.15-.37.03-.78.4-.93.37-.15.78.03.93.4.35.87.98,1.8,1.74,2.56.72.72,1.55,1.28,2.59,1.75.71.28,1.85.64,3.1.64,1.16,0,2.15-.2,3.1-.64.9-.36,1.83-.99,2.59-1.75.72-.72,1.28-1.54,1.75-2.59.16-.36.59-.52.95-.36.36.16.52.59.36.95-.55,1.21-1.2,2.16-2.05,3.01-.9.9-1.98,1.64-3.04,2.06-1.12.51-2.29.75-3.67.75Z"/>
  <g>
    <g>
      <g>
        <rect class="cls-8" x="141.31" y="121.87" width="4.15" height="1.49" rx=".25" ry=".25"/>
        <rect class="cls-8" x="145.94" y="120.17" width="4.15" height="1.49" rx=".25" ry=".25"/>
        <rect class="cls-8" x="145.94" y="123.58" width="4.15" height="1.49" rx=".25" ry=".25"/>
        <rect class="cls-8" x="150.56" y="120.17" width="4.15" height="1.49" rx=".25" ry=".25"/>
        <rect class="cls-8" x="150.56" y="123.58" width="4.15" height="1.49" rx=".25" ry=".25"/>
        <rect class="cls-8" x="155.19" y="121.87" width="4.15" height="1.49" rx=".25" ry=".25"/>
      </g>
      <rect class="cls-2" x="136.68" y="106.52" width="4.15" height="1.49" rx=".25" ry=".25"/>
      <rect class="cls-2" x="136.68" y="108.23" width="4.15" height="1.49" rx=".25" ry=".25"/>
      <rect class="cls-2" x="136.68" y="109.94" width="4.15" height="1.49" rx=".25" ry=".25"/>
      <rect class="cls-2" x="136.68" y="111.65" width="4.15" height="1.49" rx=".25" ry=".25"/>
      <rect class="cls-2" x="136.68" y="113.35" width="4.15" height="1.49" rx=".25" ry=".25"/>
      <rect class="cls-2" x="136.68" y="115.06" width="4.15" height="1.49" rx=".25" ry=".25"/>
      <rect class="cls-2" x="136.68" y="116.77" width="4.15" height="1.49" rx=".25" ry=".25"/>
      <rect class="cls-2" x="136.68" y="118.47" width="4.15" height="1.49" rx=".25" ry=".25"/>
      <rect class="cls-2" x="136.68" y="120.18" width="4.15" height="1.49" rx=".25" ry=".25"/>
      <rect class="cls-2" x="136.68" y="121.89" width="4.15" height="1.49" rx=".25" ry=".25"/>
      <rect class="cls-2" x="136.68" y="123.6" width="4.15" height="1.49" rx=".25" ry=".25"/>
      <rect class="cls-2" x="136.68" y="125.3" width="4.15" height="1.49" rx=".25" ry=".25"/>
      <rect class="cls-2" x="136.68" y="127.01" width="4.15" height="1.49" rx=".25" ry=".25"/>
      <rect class="cls-2" x="136.68" y="128.72" width="4.15" height="1.49" rx=".25" ry=".25"/>
      <rect class="cls-2" x="136.68" y="130.43" width="4.15" height="1.49" rx=".25" ry=".25"/>
      <rect class="cls-2" x="136.68" y="132.13" width="4.15" height="1.49" rx=".25" ry=".25"/>
      <rect class="cls-2" x="136.68" y="133.84" width="4.15" height="1.49" rx=".25" ry=".25"/>
      <rect class="cls-2" x="136.68" y="135.55" width="4.15" height="1.49" rx=".25" ry=".25"/>
      <rect class="cls-2" x="136.68" y="137.26" width="4.15" height="1.49" rx=".25" ry=".25"/>
      <rect class="cls-2" x="136.68" y="138.96" width="4.15" height="1.49" rx=".25" ry=".25"/>
      <rect class="cls-2" x="136.68" y="140.67" width="4.15" height="1.49" rx=".25" ry=".25"/>
      <rect class="cls-2" x="141.31" y="106.52" width="4.15" height="1.49" rx=".25" ry=".25"/>
      <rect class="cls-2" x="141.31" y="108.23" width="4.15" height="1.49" rx=".25" ry=".25"/>
      <rect class="cls-2" x="141.31" y="109.94" width="4.15" height="1.49" rx=".25" ry=".25"/>
      <rect class="cls-2" x="141.31" y="113.35" width="4.15" height="1.49" rx=".25" ry=".25"/>
      <rect class="cls-2" x="141.31" y="115.06" width="4.15" height="1.49" rx=".25" ry=".25"/>
      <rect class="cls-2" x="141.31" y="116.77" width="4.15" height="1.49" rx=".25" ry=".25"/>
      <rect class="cls-2" x="141.31" y="118.47" width="4.15" height="1.49" rx=".25" ry=".25"/>
      <rect class="cls-2" x="141.31" y="120.18" width="4.15" height="1.49" rx=".25" ry=".25"/>
      <rect class="cls-2" x="141.31" y="123.6" width="4.15" height="1.49" rx=".25" ry=".25"/>
      <rect class="cls-2" x="141.31" y="125.3" width="4.15" height="1.49" rx=".25" ry=".25"/>
      <rect class="cls-2" x="141.31" y="127.01" width="4.15" height="1.49" rx=".25" ry=".25"/>
      <rect class="cls-2" x="141.31" y="128.72" width="4.15" height="1.49" rx=".25" ry=".25"/>
      <rect class="cls-2" x="141.31" y="130.43" width="4.15" height="1.49" rx=".25" ry=".25"/>
      <rect class="cls-2" x="141.31" y="133.84" width="4.15" height="1.49" rx=".25" ry=".25"/>
      <rect class="cls-2" x="141.31" y="135.55" width="4.15" height="1.49" rx=".25" ry=".25"/>
      <rect class="cls-2" x="141.31" y="137.26" width="4.15" height="1.49" rx=".25" ry=".25"/>
      <rect class="cls-2" x="141.31" y="138.96" width="4.15" height="1.49" rx=".25" ry=".25"/>
      <rect class="cls-2" x="141.31" y="140.67" width="4.15" height="1.49" rx=".25" ry=".25"/>
      <rect class="cls-2" x="145.94" y="106.52" width="4.15" height="1.49" rx=".25" ry=".25"/>
      <rect class="cls-2" x="145.94" y="108.23" width="4.15" height="1.49" rx=".25" ry=".25"/>
      <rect class="cls-2" x="145.94" y="111.65" width="4.15" height="1.49" rx=".25" ry=".25"/>
      <rect class="cls-2" x="145.94" y="115.06" width="4.15" height="1.49" rx=".25" ry=".25"/>
      <rect class="cls-2" x="145.94" y="116.77" width="4.15" height="1.49" rx=".25" ry=".25"/>
      <rect class="cls-2" x="145.94" y="118.47" width="4.15" height="1.49" rx=".25" ry=".25"/>
      <rect class="cls-2" x="145.94" y="121.89" width="4.15" height="1.49" rx=".25" ry=".25"/>
      <rect class="cls-2" x="145.94" y="125.3" width="4.15" height="1.49" rx=".25" ry=".25"/>
      <rect class="cls-2" x="145.94" y="127.01" width="4.15" height="1.49" rx=".25" ry=".25"/>
      <rect class="cls-2" x="145.94" y="128.72" width="4.15" height="1.49" rx=".25" ry=".25"/>
      <rect class="cls-2" x="145.94" y="132.13" width="4.15" height="1.49" rx=".25" ry=".25"/>
      <rect class="cls-2" x="145.94" y="135.55" width="4.15" height="1.49" rx=".25" ry=".25"/>
      <rect class="cls-2" x="145.94" y="137.26" width="4.15" height="1.49" rx=".25" ry=".25"/>
      <rect class="cls-2" x="145.94" y="138.96" width="4.15" height="1.49" rx=".25" ry=".25"/>
      <rect class="cls-2" x="150.56" y="106.52" width="4.15" height="1.49" rx=".25" ry=".25"/>
      <rect class="cls-2" x="150.56" y="108.23" width="4.15" height="1.49" rx=".25" ry=".25"/>
      <rect class="cls-2" x="150.56" y="111.65" width="4.15" height="1.49" rx=".25" ry=".25"/>
      <rect class="cls-2" x="150.56" y="115.06" width="4.15" height="1.49" rx=".25" ry=".25"/>
      <rect class="cls-2" x="150.56" y="116.77" width="4.15" height="1.49" rx=".25" ry=".25"/>
      <rect class="cls-2" x="150.56" y="118.47" width="4.15" height="1.49" rx=".25" ry=".25"/>
      <rect class="cls-2" x="150.56" y="121.89" width="4.15" height="1.49" rx=".25" ry=".25"/>
      <rect class="cls-2" x="150.56" y="125.3" width="4.15" height="1.49" rx=".25" ry=".25"/>
      <rect class="cls-2" x="150.56" y="127.01" width="4.15" height="1.49" rx=".25" ry=".25"/>
      <rect class="cls-2" x="150.56" y="128.72" width="4.15" height="1.49" rx=".25" ry=".25"/>
      <rect class="cls-2" x="150.56" y="132.13" width="4.15" height="1.49" rx=".25" ry=".25"/>
      <rect class="cls-2" x="150.56" y="135.55" width="4.15" height="1.49" rx=".25" ry=".25"/>
      <rect class="cls-2" x="150.56" y="137.26" width="4.15" height="1.49" rx=".25" ry=".25"/>
      <rect class="cls-2" x="150.56" y="138.96" width="4.15" height="1.49" rx=".25" ry=".25"/>
      <rect class="cls-2" x="155.19" y="106.52" width="4.15" height="1.49" rx=".25" ry=".25"/>
      <rect class="cls-2" x="155.19" y="108.23" width="4.15" height="1.49" rx=".25" ry=".25"/>
      <rect class="cls-2" x="155.19" y="109.94" width="4.15" height="1.49" rx=".25" ry=".25"/>
      <rect class="cls-2" x="155.19" y="113.35" width="4.15" height="1.49" rx=".25" ry=".25"/>
      <rect class="cls-2" x="155.19" y="115.06" width="4.15" height="1.49" rx=".25" ry=".25"/>
      <rect class="cls-2" x="155.19" y="116.77" width="4.15" height="1.49" rx=".25" ry=".25"/>
      <rect class="cls-2" x="155.19" y="118.47" width="4.15" height="1.49" rx=".25" ry=".25"/>
      <rect class="cls-2" x="155.19" y="120.18" width="4.15" height="1.49" rx=".25" ry=".25"/>
      <rect class="cls-2" x="155.19" y="123.6" width="4.15" height="1.49" rx=".25" ry=".25"/>
      <rect class="cls-2" x="155.19" y="125.3" width="4.15" height="1.49" rx=".25" ry=".25"/>
      <rect class="cls-2" x="155.19" y="127.01" width="4.15" height="1.49" rx=".25" ry=".25"/>
      <rect class="cls-2" x="155.19" y="128.72" width="4.15" height="1.49" rx=".25" ry=".25"/>
      <rect class="cls-2" x="155.19" y="130.43" width="4.15" height="1.49" rx=".25" ry=".25"/>
      <rect class="cls-2" x="155.19" y="133.84" width="4.15" height="1.49" rx=".25" ry=".25"/>
      <rect class="cls-2" x="155.19" y="135.55" width="4.15" height="1.49" rx=".25" ry=".25"/>
      <rect class="cls-2" x="155.19" y="137.26" width="4.15" height="1.49" rx=".25" ry=".25"/>
      <rect class="cls-2" x="155.19" y="138.96" width="4.15" height="1.49" rx=".25" ry=".25"/>
      <rect class="cls-2" x="155.19" y="140.67" width="4.15" height="1.49" rx=".25" ry=".25"/>
      <rect class="cls-2" x="159.82" y="106.52" width="4.15" height="1.49" rx=".25" ry=".25"/>
      <rect class="cls-2" x="159.82" y="108.23" width="4.15" height="1.49" rx=".25" ry=".25"/>
      <g>
        <rect class="cls-2" x="136.68" y="142.33" width="4.15" height="1.49" rx=".25" ry=".25"/>
        <rect class="cls-2" x="136.68" y="144.03" width="4.15" height="1.49" rx=".25" ry=".25"/>
        <rect class="cls-2" x="141.31" y="142.33" width="4.15" height="1.49" rx=".25" ry=".25"/>
        <rect class="cls-2" x="141.31" y="144.03" width="4.15" height="1.49" rx=".25" ry=".25"/>
        <rect class="cls-2" x="145.94" y="142.33" width="4.15" height="1.49" rx=".25" ry=".25"/>
        <rect class="cls-2" x="145.94" y="144.03" width="4.15" height="1.49" rx=".25" ry=".25"/>
        <rect class="cls-2" x="150.56" y="142.33" width="4.15" height="1.49" rx=".25" ry=".25"/>
        <rect class="cls-2" x="150.56" y="144.03" width="4.15" height="1.49" rx=".25" ry=".25"/>
        <rect class="cls-2" x="155.19" y="142.33" width="4.15" height="1.49" rx=".25" ry=".25"/>
        <rect class="cls-2" x="155.19" y="144.03" width="4.15" height="1.49" rx=".25" ry=".25"/>
        <rect class="cls-2" x="159.82" y="142.33" width="4.15" height="1.49" rx=".25" ry=".25"/>
        <rect class="cls-2" x="159.82" y="144.03" width="4.15" height="1.49" rx=".25" ry=".25"/>
      </g>
      <g>
        <rect class="cls-2" x="136.68" y="145.74" width="4.15" height="1.49" rx=".25" ry=".25"/>
        <rect class="cls-2" x="136.68" y="147.45" width="4.15" height="1.49" rx=".25" ry=".25"/>
        <rect class="cls-2" x="141.31" y="145.74" width="4.15" height="1.49" rx=".25" ry=".25"/>
        <rect class="cls-2" x="141.31" y="147.45" width="4.15" height="1.49" rx=".25" ry=".25"/>
        <rect class="cls-2" x="145.94" y="145.74" width="4.15" height="1.49" rx=".25" ry=".25"/>
        <rect class="cls-2" x="145.94" y="147.45" width="4.15" height="1.49" rx=".25" ry=".25"/>
        <rect class="cls-2" x="150.56" y="145.74" width="4.15" height="1.49" rx=".25" ry=".25"/>
        <rect class="cls-2" x="150.56" y="147.45" width="4.15" height="1.49" rx=".25" ry=".25"/>
        <rect class="cls-2" x="155.19" y="145.74" width="4.15" height="1.49" rx=".25" ry=".25"/>
        <rect class="cls-2" x="155.19" y="147.45" width="4.15" height="1.49" rx=".25" ry=".25"/>
        <rect class="cls-2" x="159.82" y="145.74" width="4.15" height="1.49" rx=".25" ry=".25"/>
        <rect class="cls-2" x="159.82" y="147.45" width="4.15" height="1.49" rx=".25" ry=".25"/>
      </g>
      <rect class="cls-2" x="159.82" y="109.94" width="4.15" height="1.49" rx=".25" ry=".25"/>
      <rect class="cls-2" x="159.82" y="111.65" width="4.15" height="1.49" rx=".25" ry=".25"/>
      <rect class="cls-2" x="159.82" y="113.35" width="4.15" height="1.49" rx=".25" ry=".25"/>
      <rect class="cls-2" x="159.82" y="115.06" width="4.15" height="1.49" rx=".25" ry=".25"/>
      <rect class="cls-2" x="159.82" y="116.77" width="4.15" height="1.49" rx=".25" ry=".25"/>
      <rect class="cls-2" x="159.82" y="118.47" width="4.15" height="1.49" rx=".25" ry=".25"/>
      <rect class="cls-2" x="159.82" y="120.18" width="4.15" height="1.49" rx=".25" ry=".25"/>
      <rect class="cls-2" x="159.82" y="121.89" width="4.15" height="1.49" rx=".25" ry=".25"/>
      <rect class="cls-2" x="159.82" y="123.6" width="4.15" height="1.49" rx=".25" ry=".25"/>
      <rect class="cls-2" x="159.82" y="125.3" width="4.15" height="1.49" rx=".25" ry=".25"/>
      <rect class="cls-2" x="159.82" y="127.01" width="4.15" height="1.49" rx=".25" ry=".25"/>
      <rect class="cls-2" x="159.82" y="128.72" width="4.15" height="1.49" rx=".25" ry=".25"/>
      <rect class="cls-2" x="159.82" y="130.43" width="4.15" height="1.49" rx=".25" ry=".25"/>
      <rect class="cls-2" x="159.82" y="132.13" width="4.15" height="1.49" rx=".25" ry=".25"/>
      <rect class="cls-2" x="159.82" y="133.84" width="4.15" height="1.49" rx=".25" ry=".25"/>
      <rect class="cls-2" x="159.82" y="135.55" width="4.15" height="1.49" rx=".25" ry=".25"/>
      <rect class="cls-2" x="159.82" y="137.26" width="4.15" height="1.49" rx=".25" ry=".25"/>
      <rect class="cls-2" x="159.82" y="138.96" width="4.15" height="1.49" rx=".25" ry=".25"/>
      <rect class="cls-2" x="159.82" y="140.67" width="4.15" height="1.49" rx=".25" ry=".25"/>
      <g>
        <rect class="cls-8" x="141.31" y="111.65" width="4.15" height="1.49" rx=".25" ry=".25"/>
        <rect class="cls-8" x="145.94" y="109.94" width="4.15" height="1.49" rx=".25" ry=".25"/>
        <rect class="cls-8" x="145.94" y="113.35" width="4.15" height="1.49" rx=".25" ry=".25"/>
        <rect class="cls-8" x="150.56" y="109.94" width="4.15" height="1.49" rx=".25" ry=".25"/>
        <rect class="cls-8" x="150.56" y="113.35" width="4.15" height="1.49" rx=".25" ry=".25"/>
        <rect class="cls-8" x="155.19" y="111.65" width="4.15" height="1.49" rx=".25" ry=".25"/>
      </g>
      <g>
        <rect class="cls-8" x="141.31" y="132.1" width="4.15" height="1.49" rx=".25" ry=".25"/>
        <rect class="cls-8" x="145.94" y="130.39" width="4.15" height="1.49" rx=".25" ry=".25"/>
        <rect class="cls-8" x="145.94" y="133.81" width="4.15" height="1.49" rx=".25" ry=".25"/>
        <rect class="cls-8" x="150.56" y="130.39" width="4.15" height="1.49" rx=".25" ry=".25"/>
        <rect class="cls-8" x="150.56" y="133.81" width="4.15" height="1.49" rx=".25" ry=".25"/>
        <rect class="cls-8" x="155.19" y="132.1" width="4.15" height="1.49" rx=".25" ry=".25"/>
      </g>
      <g>
        <rect class="cls-8" x="141.31" y="142.33" width="4.15" height="1.49" rx=".25" ry=".25"/>
        <rect class="cls-8" x="145.94" y="140.62" width="4.15" height="1.49" rx=".25" ry=".25"/>
        <rect class="cls-8" x="145.94" y="144.03" width="4.15" height="1.49" rx=".25" ry=".25"/>
        <rect class="cls-8" x="150.56" y="140.62" width="4.15" height="1.49" rx=".25" ry=".25"/>
        <rect class="cls-8" x="150.56" y="144.03" width="4.15" height="1.49" rx=".25" ry=".25"/>
        <rect class="cls-8" x="155.19" y="142.33" width="4.15" height="1.49" rx=".25" ry=".25"/>
      </g>
    </g>
    <path class="cls-2" d="m156.25,149.72c-2,0-4.07-.09-5.74-.29-2.43-.29-4.53-.14-6.38,0-1.65.12-3.08.23-4.38,0-1.23-.22-1.94-.22-2.32-.19-.32.03-.64-.07-.88-.29-.24-.21-.37-.5-.38-.82-.75-41.31-.09-41.79.22-42.02l.15-.11h.18c3.67.24,9.83.49,10.74.17,1.15-.41,10.43-.28,15.85-.17.65.01,1.18.55,1.18,1.21v1.53c0,.09-.1,9.21-.36,9.9-.05.23.03,1.52.1,2.78.11,1.75.26,4.15.26,6.61,0,2.04-.08,4.02-.17,5.93-.08,1.87-.16,3.81-.16,5.76l.33,8.44c0,1.1-1.27,1.18-2.03,1.23-.17.01-.34.02-.48.04-1.36.18-3.49.29-5.72.29Zm-8.62-1.45c.94,0,1.93.05,2.99.17,3.47.41,8.69.33,11.21,0,.16-.02.35-.03.55-.05.3-.02.99-.06,1.1-.2l-.33-8.45c0-1.99.08-3.94.16-5.82.08-1.9.17-3.87.17-5.89,0-2.43-.15-4.81-.26-6.55-.13-2.11-.17-2.85-.04-3.19.16-.63.3-8.64.3-9.55v-1.53c0-.11-.09-.2-.2-.21-8.58-.18-14.81-.13-15.5.11-1.28.45-8.73.05-10.73-.07-.38,2.81-.23,22.29.11,41.07,0,.04.02.07.04.1.02.02.06.04.12.04.64-.06,1.52,0,2.59.2,1.18.21,2.55.11,4.14,0,1.1-.08,2.29-.17,3.58-.17Z"/>
  </g>
  <path class="cls-2" d="m138.86,107c-1.33-.08-3.86-2.44-4.8-5.96-.96-3.62-.36-5.95-.33-6.05l.97.26s-.56,2.2.33,5.54c.93,3.49,3.3,5.19,3.89,5.22l-.06,1Z"/>
  <path class="cls-2" d="m161.04,107l-.06-1c.59-.03,2.96-1.73,3.89-5.22.89-3.34.34-5.51.33-5.54l.97-.26c.03.1.63,2.43-.33,6.05-.94,3.52-3.47,5.89-4.8,5.96Z"/>
  <g>
    <path class="cls-1" d="m221.82,118.5c-4.83-2.36-14.38-6.78-16.1-6.74l-.02-.5s.03,0,.04,0c2.35,0,15.73,6.51,16.3,6.79l-.22.45Z"/>
    <g>
      <path class="cls-5" d="m176.26,95.49c-1.8-2.2-4.9-2.8-7.3-.9-2.4,1.9-2.9,6.6-.4,9.6,7.1,8.8,17.5,13.1,28.7,11.9,3.9-.4,6.9-4,6.5-7.1-.4-3.1-3-4.8-5.8-4.5-8.5.8-16.3-2.4-21.7-9Z"/>
      <path class="cls-5" d="m207.36,111.69c.8-.1,1.7.1,1.9.6.2.6-.3,1.4-1.3,1.8-2.7.9-5.6,1-8.4.1-1-.3-1.4-1.5-.8-2.4.6-.9,1.5-1.4,2.2-1,1.9.9,4.1,1.3,6.4.9Z"/>
      <path class="cls-5" d="m206.66,106.99c.7-.4,1.6-.4,2,.1s.1,1.5-.8,2.1c-2.3,1.6-5.1,2.5-8.1,2.5-1.1,0-1.7-1.1-1.4-2.1.3-1.1,1.1-1.7,1.8-1.6,2.2.3,4.4,0,6.5-1Z"/>
      <path class="cls-5" d="m206.86,104.79c.8-.2,1.5-.7,1.5-1.4,0-.6-.9-1.2-1.9-1.1-2.8.2-5.6,1.3-7.8,3.3-.8.7-.6,1.9.3,2.5.9.6,2,.6,2.4.1,1.4-1.6,3.3-2.8,5.5-3.4Z"/>
    </g>
    <g>
      <g>
        <polygon class="cls-8" points="221.93 131.92 207.44 144.77 192.94 131.92 192.94 118.28 221.93 118.28 221.93 131.92"/>
        <path class="cls-1" d="m207.44,145.11l-14.75-13.08v-14h29.49v14l-14.75,13.08Zm-14.25-13.3l14.25,12.63,14.25-12.63v-13.28h-28.49v13.28Z"/>
      </g>
      <g>
        <g>
          <rect class="cls-7" x="192.57" y="132.13" width="1.1" height="1.51" rx=".55" ry=".55" transform="translate(20.05 -25.23) rotate(7.88)"/>
          <rect class="cls-7" x="192.36" y="133.71" width="1.1" height="1.51" rx=".55" ry=".55"/>
          <rect class="cls-7" x="192.45" y="135.29" width="1.1" height="1.51" rx=".55" ry=".55" transform="translate(-11.61 18.17) rotate(-5.23)"/>
          <rect class="cls-3" x="192.51" y="136.9" width="1.1" height="1.51" rx=".55" ry=".55"/>
          <rect class="cls-3" x="192.59" y="138.47" width="1.1" height="1.51" rx=".55" ry=".55" transform="translate(-11.9 18.2) rotate(-5.23)"/>
          <rect class="cls-7" x="192.83" y="140.15" width="1.1" height="1.51" rx=".55" ry=".55" transform="translate(404.26 253.94) rotate(172.12)"/>
          <rect class="cls-7" x="192.92" y="141.8" width="1.1" height="1.51" rx=".55" ry=".55" transform="translate(386.94 285.1) rotate(-180)"/>
          <rect class="cls-7" x="192.89" y="143.55" width="1.1" height="1.51" rx=".55" ry=".55" transform="translate(372.91 305.65) rotate(-174.77)"/>
        </g>
        <g>
          <rect class="cls-7" x="193.99" y="133.29" width="1.1" height="1.51" rx=".55" ry=".55" transform="translate(20.23 -25.42) rotate(7.88)"/>
          <rect class="cls-7" x="193.78" y="134.87" width="1.1" height="1.51" rx=".55" ry=".55"/>
          <rect class="cls-7" x="193.87" y="136.45" width="1.1" height="1.51" rx=".55" ry=".55" transform="translate(-11.71 18.31) rotate(-5.23)"/>
          <rect class="cls-3" x="193.93" y="138.06" width="1.1" height="1.51" rx=".55" ry=".55"/>
          <rect class="cls-3" x="194.02" y="139.63" width="1.1" height="1.51" rx=".55" ry=".55" transform="translate(-12 18.33) rotate(-5.23)"/>
          <rect class="cls-7" x="194.25" y="141.31" width="1.1" height="1.51" rx=".55" ry=".55" transform="translate(407.26 256.06) rotate(172.12)"/>
          <rect class="cls-7" x="194.34" y="142.96" width="1.1" height="1.51" rx=".55" ry=".55" transform="translate(389.78 287.42) rotate(-180)"/>
          <rect class="cls-7" x="194.31" y="144.71" width="1.1" height="1.51" rx=".55" ry=".55" transform="translate(375.65 308.1) rotate(-174.77)"/>
        </g>
        <g>
          <rect class="cls-7" x="195.42" y="134.45" width="1.1" height="1.51" rx=".55" ry=".55" transform="translate(20.4 -25.6) rotate(7.88)"/>
          <rect class="cls-7" x="195.21" y="136.03" width="1.1" height="1.51" rx=".55" ry=".55"/>
          <rect class="cls-7" x="195.3" y="137.61" width="1.1" height="1.51" rx=".55" ry=".55" transform="translate(-11.81 18.44) rotate(-5.23)"/>
          <rect class="cls-3" x="195.35" y="139.22" width="1.1" height="1.51" rx=".55" ry=".55"/>
          <rect class="cls-3" x="195.44" y="140.8" width="1.1" height="1.51" rx=".55" ry=".55" transform="translate(-12.1 18.47) rotate(-5.23)"/>
          <rect class="cls-7" x="195.68" y="142.47" width="1.1" height="1.51" rx=".55" ry=".55" transform="translate(410.25 258.17) rotate(172.12)"/>
          <rect class="cls-7" x="195.77" y="144.12" width="1.1" height="1.51" rx=".55" ry=".55" transform="translate(392.63 289.75) rotate(-180)"/>
          <rect class="cls-7" x="195.74" y="145.87" width="1.1" height="1.51" rx=".55" ry=".55" transform="translate(378.39 310.54) rotate(-174.77)"/>
        </g>
        <g>
          <rect class="cls-7" x="196.84" y="135.61" width="1.1" height="1.51" rx=".55" ry=".55" transform="translate(20.57 -25.79) rotate(7.88)"/>
          <rect class="cls-7" x="196.63" y="137.19" width="1.1" height="1.51" rx=".55" ry=".55"/>
          <rect class="cls-7" x="196.72" y="138.77" width="1.1" height="1.51" rx=".55" ry=".55" transform="translate(-11.9 18.58) rotate(-5.23)"/>
          <rect class="cls-3" x="196.78" y="140.38" width="1.1" height="1.51" rx=".55" ry=".55"/>
          <rect class="cls-3" x="196.87" y="141.96" width="1.1" height="1.51" rx=".55" ry=".55" transform="translate(-12.2 18.61) rotate(-5.23)"/>
          <rect class="cls-7" x="197.1" y="143.63" width="1.1" height="1.51" rx=".55" ry=".55" transform="translate(413.25 260.29) rotate(172.12)"/>
          <rect class="cls-7" x="197.19" y="145.28" width="1.1" height="1.51" rx=".55" ry=".55" transform="translate(395.48 292.07) rotate(-180)"/>
          <rect class="cls-7" x="197.16" y="147.03" width="1.1" height="1.51" rx=".55" ry=".55" transform="translate(381.13 312.99) rotate(-174.77)"/>
        </g>
        <g>
          <rect class="cls-7" x="198.27" y="136.77" width="1.1" height="1.51" rx=".55" ry=".55" transform="translate(20.74 -25.97) rotate(7.88)"/>
          <rect class="cls-7" x="198.06" y="138.36" width="1.1" height="1.51" rx=".55" ry=".55"/>
          <rect class="cls-7" x="198.15" y="139.93" width="1.1" height="1.51" rx=".55" ry=".55" transform="translate(-12.01 18.71) rotate(-5.23)"/>
          <rect class="cls-3" x="198.2" y="141.54" width="1.1" height="1.51" rx=".55" ry=".55"/>
          <rect class="cls-3" x="198.29" y="143.12" width="1.1" height="1.51" rx=".55" ry=".55" transform="translate(-12.3 18.74) rotate(-5.23)"/>
          <rect class="cls-7" x="198.53" y="144.79" width="1.1" height="1.51" rx=".55" ry=".55" transform="translate(416.24 262.4) rotate(172.12)"/>
          <rect class="cls-7" x="198.61" y="146.44" width="1.1" height="1.51" rx=".55" ry=".55" transform="translate(398.33 294.39) rotate(-180)"/>
          <rect class="cls-7" x="198.59" y="148.19" width="1.1" height="1.51" rx=".55" ry=".55" transform="translate(383.86 315.44) rotate(-174.77)"/>
        </g>
        <g>
          <rect class="cls-7" x="199.69" y="137.93" width="1.1" height="1.51" rx=".55" ry=".55" transform="translate(20.92 -26.16) rotate(7.88)"/>
          <rect class="cls-7" x="199.48" y="139.52" width="1.1" height="1.51" rx=".55" ry=".55"/>
          <rect class="cls-7" x="199.57" y="141.09" width="1.1" height="1.51" rx=".55" ry=".55" transform="translate(-12.1 18.85) rotate(-5.23)"/>
          <rect class="cls-3" x="199.63" y="142.7" width="1.1" height="1.51" rx=".55" ry=".55"/>
          <rect class="cls-3" x="199.72" y="144.28" width="1.1" height="1.51" rx=".55" ry=".55" transform="translate(-12.4 18.88) rotate(-5.23)"/>
          <rect class="cls-7" x="199.95" y="145.95" width="1.1" height="1.51" rx=".55" ry=".55" transform="translate(419.24 264.52) rotate(172.12)"/>
          <rect class="cls-7" x="200.04" y="147.6" width="1.1" height="1.51" rx=".55" ry=".55" transform="translate(401.18 296.71) rotate(-180)"/>
          <rect class="cls-7" x="200.01" y="149.35" width="1.1" height="1.51" rx=".55" ry=".55" transform="translate(386.6 317.88) rotate(-174.77)"/>
        </g>
        <g>
          <rect class="cls-7" x="201.12" y="139.09" width="1.1" height="1.51" rx=".55" ry=".55" transform="translate(21.09 -26.34) rotate(7.88)"/>
          <rect class="cls-7" x="200.91" y="140.68" width="1.1" height="1.51" rx=".55" ry=".55"/>
          <rect class="cls-7" x="201" y="142.25" width="1.1" height="1.51" rx=".55" ry=".55" transform="translate(-12.21 18.98) rotate(-5.23)"/>
          <rect class="cls-3" x="201.05" y="143.87" width="1.1" height="1.51" rx=".55" ry=".55"/>
          <rect class="cls-3" x="201.14" y="145.44" width="1.1" height="1.51" rx=".55" ry=".55" transform="translate(-12.49 19.01) rotate(-5.23)"/>
          <rect class="cls-7" x="201.38" y="147.11" width="1.1" height="1.51" rx=".55" ry=".55" transform="translate(422.23 266.63) rotate(172.12)"/>
          <rect class="cls-7" x="201.46" y="148.76" width="1.1" height="1.51" rx=".55" ry=".55" transform="translate(404.03 299.03) rotate(-180)"/>
          <rect class="cls-7" x="201.44" y="150.51" width="1.1" height="1.51" rx=".55" ry=".55" transform="translate(389.34 320.33) rotate(-174.77)"/>
        </g>
        <g>
          <rect class="cls-7" x="202.54" y="140.25" width="1.1" height="1.51" rx=".55" ry=".55" transform="translate(21.26 -26.53) rotate(7.88)"/>
          <rect class="cls-7" x="202.33" y="141.84" width="1.1" height="1.51" rx=".55" ry=".55"/>
          <rect class="cls-7" x="202.42" y="143.41" width="1.1" height="1.51" rx=".55" ry=".55" transform="translate(-12.31 19.12) rotate(-5.23)"/>
          <rect class="cls-3" x="202.48" y="145.03" width="1.1" height="1.51" rx=".55" ry=".55"/>
          <rect class="cls-3" x="202.57" y="146.6" width="1.1" height="1.51" rx=".55" ry=".55" transform="translate(-12.6 19.15) rotate(-5.23)"/>
          <rect class="cls-7" x="202.8" y="148.27" width="1.1" height="1.51" rx=".55" ry=".55" transform="translate(425.23 268.75) rotate(172.12)"/>
          <rect class="cls-7" x="202.89" y="149.92" width="1.1" height="1.51" rx=".55" ry=".55" transform="translate(406.88 301.36) rotate(180)"/>
          <rect class="cls-7" x="202.86" y="151.68" width="1.1" height="1.51" rx=".55" ry=".55" transform="translate(392.08 322.78) rotate(-174.77)"/>
        </g>
        <g>
          <rect class="cls-7" x="203.97" y="141.42" width="1.1" height="1.51" rx=".55" ry=".55" transform="translate(21.44 -26.71) rotate(7.88)"/>
          <rect class="cls-7" x="203.76" y="143" width="1.1" height="1.51" rx=".55" ry=".55"/>
          <rect class="cls-7" x="203.84" y="144.57" width="1.1" height="1.51" rx=".55" ry=".55" transform="translate(-12.4 19.25) rotate(-5.23)"/>
          <rect class="cls-3" x="203.9" y="146.19" width="1.1" height="1.51" rx=".55" ry=".55"/>
          <rect class="cls-3" x="203.99" y="147.76" width="1.1" height="1.51" rx=".55" ry=".55" transform="translate(-12.7 19.28) rotate(-5.23)"/>
          <rect class="cls-7" x="204.23" y="149.43" width="1.1" height="1.51" rx=".55" ry=".55" transform="translate(428.22 270.87) rotate(172.12)"/>
          <rect class="cls-7" x="204.31" y="151.09" width="1.1" height="1.51" rx=".55" ry=".55" transform="translate(409.73 303.68) rotate(-180)"/>
          <rect class="cls-7" x="204.29" y="152.84" width="1.1" height="1.51" rx=".55" ry=".55" transform="translate(394.81 325.23) rotate(-174.77)"/>
        </g>
        <g>
          <rect class="cls-7" x="205.39" y="142.58" width="1.1" height="1.51" rx=".55" ry=".55" transform="translate(21.61 -26.9) rotate(7.88)"/>
          <rect class="cls-7" x="205.18" y="144.16" width="1.1" height="1.51" rx=".55" ry=".55"/>
          <rect class="cls-7" x="205.27" y="145.73" width="1.1" height="1.51" rx=".55" ry=".55" transform="translate(-12.51 19.39) rotate(-5.23)"/>
          <rect class="cls-3" x="205.33" y="147.35" width="1.1" height="1.51" rx=".55" ry=".55"/>
          <rect class="cls-3" x="205.42" y="148.92" width="1.1" height="1.51" rx=".55" ry=".55" transform="translate(-12.79 19.41) rotate(-5.23)"/>
          <rect class="cls-7" x="205.65" y="150.6" width="1.1" height="1.51" rx=".55" ry=".55" transform="translate(431.22 272.98) rotate(172.12)"/>
          <rect class="cls-7" x="205.74" y="152.25" width="1.1" height="1.51" rx=".55" ry=".55" transform="translate(412.58 306) rotate(180)"/>
          <rect class="cls-7" x="205.71" y="154" width="1.1" height="1.51" rx=".55" ry=".55" transform="translate(397.55 327.67) rotate(-174.77)"/>
        </g>
        <g>
          <rect class="cls-7" x="206.82" y="143.74" width="1.1" height="1.51" rx=".55" ry=".55" transform="translate(21.78 -27.08) rotate(7.88)"/>
          <rect class="cls-7" x="206.75" y="145.32" width="1.1" height="1.51" rx=".55" ry=".55"/>
          <rect class="cls-7" x="206.75" y="146.97" width="1.1" height="1.51" rx=".55" ry=".55" transform="translate(-12.61 19.53) rotate(-5.23)"/>
          <rect class="cls-3" x="206.82" y="148.57" width="1.1" height="1.51" rx=".55" ry=".55"/>
          <rect class="cls-3" x="206.95" y="150.22" width="1.1" height="1.51" rx=".55" ry=".55" transform="translate(-12.91 19.56) rotate(-5.23)"/>
          <rect class="cls-7" x="207.08" y="151.76" width="1.1" height="1.51" rx=".55" ry=".55" transform="translate(434.21 275.1) rotate(172.12)"/>
          <rect class="cls-7" x="207.16" y="153.41" width="1.1" height="1.51" rx=".55" ry=".55" transform="translate(415.43 308.32) rotate(180)"/>
          <rect class="cls-7" x="207.14" y="155.16" width="1.1" height="1.51" rx=".55" ry=".55" transform="translate(400.29 330.12) rotate(-174.77)"/>
        </g>
      </g>
      <g>
        <g>
          <rect class="cls-7" x="221.36" y="131.79" width="1.1" height="1.51" rx=".55" ry=".55" transform="translate(459.92 233.4) rotate(172.12)"/>
          <rect class="cls-7" x="221.57" y="133.38" width="1.1" height="1.51" rx=".55" ry=".55" transform="translate(444.25 268.26) rotate(-180)"/>
          <rect class="cls-7" x="221.49" y="134.95" width="1.1" height="1.51" rx=".55" ry=".55" transform="translate(430.77 291.1) rotate(-174.77)"/>
          <rect class="cls-3" x="221.43" y="136.56" width="1.1" height="1.51" rx=".55" ry=".55" transform="translate(443.96 274.64) rotate(-180)"/>
          <rect class="cls-3" x="221.34" y="138.14" width="1.1" height="1.51" rx=".55" ry=".55" transform="translate(430.19 297.45) rotate(-174.77)"/>
          <rect class="cls-7" x="221.11" y="139.81" width="1.1" height="1.51" rx=".55" ry=".55" transform="translate(21.38 -29.08) rotate(7.88)"/>
          <rect class="cls-7" x="221.02" y="141.46" width="1.1" height="1.51" rx=".55" ry=".55"/>
          <rect class="cls-7" x="221.04" y="143.21" width="1.1" height="1.51" rx=".55" ry=".55" transform="translate(-12.21 20.82) rotate(-5.23)"/>
        </g>
        <g>
          <rect class="cls-7" x="219.94" y="133.04" width="1.1" height="1.51" rx=".55" ry=".55" transform="translate(457.25 236.08) rotate(172.12)"/>
          <rect class="cls-7" x="220.15" y="134.63" width="1.1" height="1.51" rx=".55" ry=".55" transform="translate(441.4 270.76) rotate(-180)"/>
          <rect class="cls-7" x="220.06" y="136.2" width="1.1" height="1.51" rx=".55" ry=".55" transform="translate(427.81 293.46) rotate(-174.77)"/>
          <rect class="cls-3" x="220" y="137.82" width="1.1" height="1.51" rx=".55" ry=".55" transform="translate(441.11 277.14) rotate(-180)"/>
          <rect class="cls-3" x="219.92" y="139.39" width="1.1" height="1.51" rx=".55" ry=".55" transform="translate(427.23 299.81) rotate(-174.77)"/>
          <rect class="cls-7" x="219.68" y="141.06" width="1.1" height="1.51" rx=".55" ry=".55" transform="translate(21.54 -28.87) rotate(7.88)"/>
          <rect class="cls-7" x="219.59" y="142.71" width="1.1" height="1.51" rx=".55" ry=".55"/>
          <rect class="cls-7" x="219.62" y="144.46" width="1.1" height="1.51" rx=".55" ry=".55" transform="translate(-12.33 20.69) rotate(-5.23)"/>
        </g>
        <g>
          <rect class="cls-7" x="218.52" y="134.29" width="1.1" height="1.51" rx=".55" ry=".55" transform="translate(454.59 238.77) rotate(172.12)"/>
          <rect class="cls-7" x="218.73" y="135.88" width="1.1" height="1.51" rx=".55" ry=".55" transform="translate(438.55 273.26) rotate(180)"/>
          <rect class="cls-7" x="218.64" y="137.45" width="1.1" height="1.51" rx=".55" ry=".55" transform="translate(424.86 295.83) rotate(-174.77)"/>
          <rect class="cls-3" x="218.58" y="139.07" width="1.1" height="1.51" rx=".55" ry=".55" transform="translate(438.26 279.64) rotate(-180)"/>
          <rect class="cls-3" x="218.49" y="140.64" width="1.1" height="1.51" rx=".55" ry=".55" transform="translate(424.27 302.18) rotate(-174.77)"/>
          <rect class="cls-7" x="218.26" y="142.31" width="1.1" height="1.51" rx=".55" ry=".55" transform="translate(21.69 -28.66) rotate(7.88)"/>
          <rect class="cls-7" x="218.17" y="143.96" width="1.1" height="1.51" rx=".55" ry=".55"/>
          <rect class="cls-7" x="218.19" y="145.72" width="1.1" height="1.51" rx=".55" ry=".55" transform="translate(-12.45 20.57) rotate(-5.23)"/>
        </g>
        <g>
          <rect class="cls-7" x="217.09" y="135.55" width="1.1" height="1.51" rx=".55" ry=".55" transform="translate(451.92 241.45) rotate(172.12)"/>
          <rect class="cls-7" x="217.3" y="137.13" width="1.1" height="1.51" rx=".55" ry=".55" transform="translate(435.7 275.76) rotate(-180)"/>
          <rect class="cls-7" x="217.21" y="138.7" width="1.1" height="1.51" rx=".55" ry=".55" transform="translate(421.9 298.2) rotate(-174.77)"/>
          <rect class="cls-3" x="217.15" y="140.32" width="1.1" height="1.51" rx=".55" ry=".55" transform="translate(435.41 282.14) rotate(-180)"/>
          <rect class="cls-3" x="217.07" y="141.89" width="1.1" height="1.51" rx=".55" ry=".55" transform="translate(421.32 304.55) rotate(-174.77)"/>
          <rect class="cls-7" x="216.83" y="143.56" width="1.1" height="1.51" rx=".55" ry=".55" transform="translate(21.85 -28.46) rotate(7.88)"/>
          <rect class="cls-7" x="216.74" y="145.22" width="1.1" height="1.51" rx=".55" ry=".55"/>
          <rect class="cls-7" x="216.77" y="146.97" width="1.1" height="1.51" rx=".55" ry=".55" transform="translate(-12.57 20.44) rotate(-5.23)"/>
        </g>
        <g>
          <rect class="cls-7" x="215.67" y="136.8" width="1.1" height="1.51" rx=".55" ry=".55" transform="translate(449.26 244.14) rotate(172.12)"/>
          <rect class="cls-7" x="215.88" y="138.38" width="1.1" height="1.51" rx=".55" ry=".55" transform="translate(432.86 278.27) rotate(-180)"/>
          <rect class="cls-7" x="215.79" y="139.95" width="1.1" height="1.51" rx=".55" ry=".55" transform="translate(418.94 300.57) rotate(-174.77)"/>
          <rect class="cls-3" x="215.73" y="141.57" width="1.1" height="1.51" rx=".55" ry=".55" transform="translate(432.57 284.64) rotate(180)"/>
          <rect class="cls-3" x="215.64" y="143.14" width="1.1" height="1.51" rx=".55" ry=".55" transform="translate(418.36 306.91) rotate(-174.77)"/>
          <rect class="cls-7" x="215.41" y="144.82" width="1.1" height="1.51" rx=".55" ry=".55" transform="translate(22.01 -28.25) rotate(7.88)"/>
          <rect class="cls-7" x="215.32" y="146.47" width="1.1" height="1.51" rx=".55" ry=".55"/>
          <rect class="cls-7" x="215.35" y="148.22" width="1.1" height="1.51" rx=".55" ry=".55" transform="translate(-12.69 20.32) rotate(-5.23)"/>
        </g>
        <g>
          <rect class="cls-7" x="214.24" y="138.05" width="1.1" height="1.51" rx=".55" ry=".55" transform="translate(446.6 246.82) rotate(172.12)"/>
          <rect class="cls-7" x="214.45" y="139.63" width="1.1" height="1.51" rx=".55" ry=".55" transform="translate(430.01 280.77) rotate(-180)"/>
          <rect class="cls-7" x="214.36" y="141.21" width="1.1" height="1.51" rx=".55" ry=".55" transform="translate(415.98 302.93) rotate(-174.77)"/>
          <rect class="cls-3" x="214.31" y="142.82" width="1.1" height="1.51" rx=".55" ry=".55" transform="translate(429.71 287.15) rotate(180)"/>
          <rect class="cls-3" x="214.22" y="144.39" width="1.1" height="1.51" rx=".55" ry=".55" transform="translate(415.4 309.28) rotate(-174.77)"/>
          <rect class="cls-7" x="213.98" y="146.07" width="1.1" height="1.51" rx=".55" ry=".55" transform="translate(22.17 -28.04) rotate(7.88)"/>
          <rect class="cls-7" x="213.89" y="147.72" width="1.1" height="1.51" rx=".55" ry=".55"/>
          <rect class="cls-7" x="213.92" y="149.47" width="1.1" height="1.51" rx=".55" ry=".55" transform="translate(-12.81 20.19) rotate(-5.23)"/>
        </g>
        <g>
          <rect class="cls-7" x="212.82" y="139.3" width="1.1" height="1.51" rx=".55" ry=".55" transform="translate(443.93 249.51) rotate(172.12)"/>
          <rect class="cls-7" x="213.03" y="140.88" width="1.1" height="1.51" rx=".55" ry=".55" transform="translate(427.16 283.27) rotate(-180)"/>
          <rect class="cls-7" x="212.94" y="142.46" width="1.1" height="1.51" rx=".55" ry=".55" transform="translate(413.03 305.3) rotate(-174.77)"/>
          <rect class="cls-3" x="212.88" y="144.07" width="1.1" height="1.51" rx=".55" ry=".55" transform="translate(426.86 289.65) rotate(-180)"/>
          <rect class="cls-3" x="212.79" y="145.64" width="1.1" height="1.51" rx=".55" ry=".55" transform="translate(412.44 311.65) rotate(-174.77)"/>
          <rect class="cls-7" x="212.56" y="147.32" width="1.1" height="1.51" rx=".55" ry=".55" transform="translate(22.33 -27.83) rotate(7.88)"/>
          <rect class="cls-7" x="212.47" y="148.97" width="1.1" height="1.51" rx=".55" ry=".55"/>
          <rect class="cls-7" x="212.5" y="150.72" width="1.1" height="1.51" rx=".55" ry=".55" transform="translate(-12.93 20.07) rotate(-5.23)"/>
        </g>
        <g>
          <rect class="cls-7" x="211.39" y="140.55" width="1.1" height="1.51" rx=".55" ry=".55" transform="translate(441.27 252.2) rotate(172.12)"/>
          <rect class="cls-7" x="211.51" y="142.13" width="1.1" height="1.51" rx=".55" ry=".55" transform="translate(424.13 285.77) rotate(-180)"/>
          <rect class="cls-7" x="211.51" y="143.71" width="1.1" height="1.51" rx=".55" ry=".55" transform="translate(410.07 307.67) rotate(-174.77)"/>
          <rect class="cls-3" x="211.46" y="145.32" width="1.1" height="1.51" rx=".55" ry=".55" transform="translate(424.02 292.15) rotate(180)"/>
          <rect class="cls-3" x="211.37" y="146.9" width="1.1" height="1.51" rx=".55" ry=".55" transform="translate(409.49 314.02) rotate(-174.77)"/>
          <rect class="cls-7" x="211.13" y="148.57" width="1.1" height="1.51" rx=".55" ry=".55" transform="translate(22.49 -27.63) rotate(7.88)"/>
          <rect class="cls-7" x="211.05" y="150.22" width="1.1" height="1.51" rx=".55" ry=".55"/>
          <rect class="cls-7" x="211.07" y="151.97" width="1.1" height="1.51" rx=".55" ry=".55" transform="translate(-13.05 19.94) rotate(-5.23)"/>
        </g>
        <g>
          <rect class="cls-7" x="209.97" y="141.8" width="1.1" height="1.51" rx=".55" ry=".55" transform="translate(438.6 254.88) rotate(172.12)"/>
          <rect class="cls-7" x="209.97" y="143.41" width="1.1" height="1.51" rx=".55" ry=".55" transform="translate(421.04 288.32) rotate(-180)"/>
          <rect class="cls-7" x="209.94" y="144.96" width="1.1" height="1.51" rx=".55" ry=".55" transform="translate(406.82 310.02) rotate(-174.77)"/>
          <rect class="cls-3" x="209.94" y="146.55" width="1.1" height="1.51" rx=".55" ry=".55" transform="translate(420.99 294.6) rotate(180)"/>
          <rect class="cls-3" x="209.81" y="148.1" width="1.1" height="1.51" rx=".55" ry=".55" transform="translate(406.26 316.28) rotate(-174.77)"/>
          <rect class="cls-7" x="209.71" y="149.82" width="1.1" height="1.51" rx=".55" ry=".55" transform="translate(22.64 -27.42) rotate(7.88)"/>
          <rect class="cls-7" x="209.62" y="151.47" width="1.1" height="1.51" rx=".55" ry=".55"/>
          <rect class="cls-7" x="209.65" y="153.22" width="1.1" height="1.51" rx=".55" ry=".55" transform="translate(-13.17 19.82) rotate(-5.23)"/>
        </g>
        <g>
          <rect class="cls-7" x="208.54" y="143.05" width="1.1" height="1.51" rx=".55" ry=".55" transform="translate(435.94 257.57) rotate(172.12)"/>
          <rect class="cls-7" x="208.42" y="144.68" width="1.1" height="1.51" rx=".55" ry=".55" transform="translate(417.94 290.87) rotate(-180)"/>
          <rect class="cls-7" x="208.28" y="146.28" width="1.1" height="1.51" rx=".55" ry=".55" transform="translate(403.38 312.5) rotate(-174.77)"/>
          <rect class="cls-3" x="208.42" y="147.87" width="1.1" height="1.51" rx=".55" ry=".55" transform="translate(417.94 297.24) rotate(-180)"/>
          <rect class="cls-3" x="208.26" y="149.51" width="1.1" height="1.51" rx=".55" ry=".55" transform="translate(395.03 327.76) rotate(-172.12)"/>
          <rect class="cls-7" x="208.28" y="151.22" width="1.1" height="1.51" rx=".55" ry=".55"/>
          <rect class="cls-7" x="208.42" y="153" width="1.1" height="1.51" rx=".55" ry=".55"/>
          <rect class="cls-7" x="208.54" y="154.69" width="1.1" height="1.51" rx=".55" ry=".55" transform="translate(-13.31 19.72) rotate(-5.23)"/>
        </g>
      </g>
    </g>
    <path class="cls-1" d="m193.07,118.5l-.25-.43c4.61-2.66,12.44-7.06,13.1-6.78l-.2.46c-.68,0-8.13,4.14-12.65,6.75Z"/>
  </g>
  <g>
    <path class="cls-5" d="m132.04,103.69c1.92-2.09,2.08-5.25-.14-7.35-2.22-2.11-6.94-1.94-9.56.95-7.71,8.27-10.51,19.17-7.74,30.09.94,3.8,4.93,6.27,7.94,5.44s4.33-3.65,3.64-6.38c-1.97-8.2.08-16.48,5.86-22.75Z"/>
    <g>
      <path class="cls-5" d="m128.8,136.74c.52.62.83,1.46.49,1.97s-1.4.47-2.2-.14c-2.25-1.7-3.89-4.19-4.68-6.99-.25-1.05.5-2,1.64-1.89,1.13-.04,1.93.57,2.09,1.28.14,2.05,1.05,4.14,2.66,5.79Z"/>
      <path class="cls-5" d="m131.57,132.75c.79.33,1.37.88,1.32,1.51s-1.03,1.09-2.02.84c-2.78-.55-5.44-1.95-7.35-4.15-.73-.83-.49-1.97.56-2.49,1.04-.53,2.04-.42,2.41.2,1.12,1.87,2.94,3.3,5.08,4.08Z"/>
      <path class="cls-5" d="m124.55,138.78c.38.77.41,1.61-.08,1.98s-1.48.12-2.07-.71c-1.7-2.28-2.64-5.08-2.6-8.05.04-1.06,1.08-1.73,2.15-1.41,1.07.32,1.73,1.08,1.61,1.79-.36,2.13-.14,4.39.99,6.41Z"/>
    </g>
  </g>
  <g>
    <rect class="cls-2" x="200.93" y="125.22" width="1.79" height="1.25" rx=".4" ry=".4"/>
    <rect class="cls-2" x="200.93" y="126.89" width="1.79" height="1.25" rx=".4" ry=".4"/>
    <rect class="cls-2" x="200.93" y="130.22" width="1.79" height="1.25" rx=".4" ry=".4"/>
    <rect class="cls-2" x="200.93" y="131.89" width="1.79" height="1.25" rx=".4" ry=".4"/>
    <rect class="cls-2" x="203.26" y="123.55" width="1.79" height="1.25" rx=".4" ry=".4"/>
    <rect class="cls-2" x="203.26" y="125.22" width="1.79" height="1.25" rx=".4" ry=".4"/>
    <rect class="cls-2" x="203.26" y="128.55" width="1.79" height="1.25" rx=".4" ry=".4"/>
    <rect class="cls-2" x="198.73" y="128.55" width="1.79" height="1.25" rx=".4" ry=".4"/>
    <rect class="cls-2" x="203.26" y="131.89" width="1.79" height="1.25" rx=".4" ry=".4"/>
    <rect class="cls-2" x="203.26" y="133.55" width="1.79" height="1.25" rx=".4" ry=".4"/>
    <rect class="cls-2" x="205.58" y="121.89" width="1.79" height="1.25" rx=".4" ry=".4"/>
    <rect class="cls-2" x="205.58" y="126.89" width="1.79" height="1.25" rx=".4" ry=".4"/>
    <rect class="cls-2" x="205.58" y="130.22" width="1.79" height="1.25" rx=".4" ry=".4"/>
    <rect class="cls-2" x="207.91" y="121.89" width="1.79" height="1.25" rx=".4" ry=".4"/>
    <rect class="cls-2" x="207.91" y="126.89" width="1.79" height="1.25" rx=".4" ry=".4"/>
    <rect class="cls-2" x="207.91" y="130.22" width="1.79" height="1.25" rx=".4" ry=".4"/>
    <rect class="cls-2" x="205.58" y="135.18" width="1.79" height="1.25" rx=".4" ry=".4"/>
    <rect class="cls-2" x="207.91" y="135.18" width="1.79" height="1.25" rx=".4" ry=".4"/>
    <rect class="cls-2" x="210.23" y="123.55" width="1.79" height="1.25" rx=".4" ry=".4"/>
    <rect class="cls-2" x="210.23" y="125.22" width="1.79" height="1.25" rx=".4" ry=".4"/>
    <rect class="cls-2" x="210.23" y="128.55" width="1.79" height="1.25" rx=".4" ry=".4"/>
    <rect class="cls-2" x="214.83" y="128.55" width="1.79" height="1.25" rx=".4" ry=".4"/>
    <rect class="cls-2" x="210.23" y="131.89" width="1.79" height="1.25" rx=".4" ry=".4"/>
    <rect class="cls-2" x="210.23" y="133.55" width="1.79" height="1.25" rx=".4" ry=".4"/>
    <rect class="cls-2" x="212.56" y="125.22" width="1.79" height="1.25" rx=".4" ry=".4"/>
    <rect class="cls-2" x="212.56" y="126.89" width="1.79" height="1.25" rx=".4" ry=".4"/>
    <rect class="cls-2" x="212.56" y="130.22" width="1.79" height="1.25" rx=".4" ry=".4"/>
    <rect class="cls-2" x="212.56" y="131.89" width="1.79" height="1.25" rx=".4" ry=".4"/>
  </g>
  <path class="cls-2" d="m166.08,156.44c-.22,0-.46-.07-.66-.26-.53-.49-.54-1.55-.02-3.32.85-2.91-2.27-3.87-2.4-3.91l.28-.96c1.46.43,3.98,2.06,3.08,5.15-.56,1.93-.26,2.31-.26,2.31l.33.93c-.1.04-.22.06-.34.06Z"/>
  <path class="cls-2" d="m162.65,157.44c-.28,0-.67-.15-.87-.55-.32-.65.06-1.64,1.18-3.11,1.84-2.41-.73-4.43-.84-4.51l.61-.79c1.21.93,2.97,3.35,1.03,5.91-1.22,1.6-1.07,2.06-1.07,2.06l-.03.99Z"/>
  <path class="cls-2" d="m132.53,155.66c-.22-.17-.45-.52-.37-.96.14-.71,1.03-1.28,2.81-1.78,2.9-.82,2.07-3.98,2.04-4.11l.96-.27c.41,1.47.36,4.47-2.73,5.34-1.94.55-2.09,1-2.1,1.01l-.62.77Z"/>
  <path class="cls-2" d="m129.63,153.01c-.15-.24-.23-.65,0-1.03.38-.61,1.42-.82,3.26-.65,3.03.28,3.37-2.97,3.38-3.1l1,.1c-.15,1.51-1.27,4.3-4.47,4-2.01-.18-2.31.18-2.32.19l-.85.5Z"/>
</svg>