<?xml version="1.0" encoding="UTF-8"?>
<svg id="Layer_1" data-name="Layer 1" xmlns="http://www.w3.org/2000/svg" width="300" height="225" viewBox="0 0 300 225">
  <defs>
    <style>
      .cls-1 {
        fill: #84cd29;
      }

      .cls-2 {
        fill: #fff;
      }

      .cls-3 {
        fill: #e2e2e2;
      }

      .cls-4, .cls-5 {
        isolation: isolate;
      }

      .cls-5 {
        opacity: .35;
      }

      .cls-6 {
        fill: #232323;
      }

      .cls-7 {
        fill: #444;
      }

      .cls-8 {
        fill: #a3a3a3;
      }

      .cls-9 {
        fill: none;
      }

      .cls-10 {
        fill: #7f7f7f;
      }
    </style>
  </defs>
  <g class="cls-5">
    <ellipse class="cls-6" cx="149.9" cy="195" rx="44.5" ry="7.2"/>
  </g>
  <g>
    <g>
      <path class="cls-6" d="m151.3,149.1c.2,1.3,4.3,37.5,10.5,42.6,6.2,5.1,9.4,3.4,10.7,2,1.3-1.4,3-3.9-.1-6.8-2.5-2.3-4.2-12.5-1.7-28.4l-19.4-9.4Z"/>
      <g>
        <path class="cls-6" d="m176.8,189.8c.8.2,1.6.1,1.9-.4.3-.5-.2-1.4-1.1-1.9-2.5-1.2-5.4-1.6-8.2-1.1-1.1.2-1.5,1.3-1,2.3s1.4,1.5,2.1,1.3c1.9-.7,4.1-.8,6.3-.2Z"/>
        <path class="cls-6" d="m175.6,194.3c.7.4,1.5.5,2,.1.4-.4.2-1.4-.5-2.1-2.1-1.9-4.7-3-7.6-3.3-1.1-.1-1.8.8-1.6,1.9.2,1.1.9,1.8,1.6,1.8,2-.1,4.2.4,6.1,1.6Z"/>
        <path class="cls-6" d="m172.2,197.7c.4.7,1.1,1.2,1.7,1,.6-.2.9-1.2.5-2.1-1-2.6-2.8-4.9-5.3-6.4-.9-.6-2-.1-2.3,1-.3,1,0,2,.6,2.3,2,.8,3.7,2.3,4.8,4.2Z"/>
      </g>
    </g>
    <g>
      <path class="cls-6" d="m147.5,148.8c-.2,1.3-4.5,37.5-10.6,42.5-6.2,5.1-9.4,3.3-10.7,2-1.3-1.4-3-4,.1-6.8,2.5-2.3,4.2-12.5,1.8-28.4l19.4-9.3Z"/>
      <g>
        <path class="cls-6" d="m122.9,189.8c-.8.2-1.6.1-1.9-.4s.2-1.4,1.1-1.9c2.5-1.2,5.4-1.6,8.2-1,1.1.2,1.5,1.3,1,2.3s-1.4,1.5-2.1,1.2c-1.9-.7-4.1-.8-6.3-.2Z"/>
        <path class="cls-6" d="m124.1,194.3c-.7.4-1.5.5-2,.1-.4-.4-.2-1.4.5-2.1,2.1-1.8,4.8-3,7.6-3.3,1.1-.1,1.8.9,1.6,1.9-.2,1.1-.9,1.8-1.6,1.8-2-.1-4.2.4-6.1,1.6Z"/>
        <path class="cls-6" d="m127.5,197.7c-.4.7-1.1,1.2-1.7,1s-.8-1.2-.5-2.1c1-2.6,2.9-4.8,5.3-6.4.9-.6,2-.1,2.3,1,.3,1,0,2-.6,2.3-2,.8-3.7,2.3-4.8,4.2Z"/>
      </g>
    </g>
  </g>
  <path class="cls-7" d="m182.3,130c-1.3-12.5-6.5-27.7-16.4-33.2-4.2-2.4-9.1-4.1-15.9-5.2-1.6.3-3.1.6-4.5.9-.2.1-.5.1-.7.2-.4.1-.8.2-1.2.3-.3.1-.5.1-.8.2-.4.1-.8.2-1.2.4-.2.1-.4.1-.6.2-.6.2-1.1.4-1.7.6-.2.1-.3.1-.5.2-.4.2-.8.3-1.2.5-.2.1-.4.2-.5.2-.4.2-.7.3-1.1.5-.2.1-.3.1-.5.2-.5.2-1,.5-1.5.8-10.6,5.9-15.8,22.9-16.7,35.8-.1,1.9-.1,3.7-.1,5.4,0,4.4.3,8,.8,10.2,0,.1.1.2.1.3,2.6,12,15.9,21.1,31.8,21.1,17.9,0,32.4-11.4,32.4-25.4v-.4c.3-3.8.3-8.6,0-13.8Z"/>
  <path class="cls-2" d="m173.9,95c-4.1-4.7-9.4-7-19.9-7.4h-6c-.7,0-1.3,0-1.9.1h-.2c-10.5.4-15.8,2.7-19.9,7.3-5.4,6.2-8.2,23.8-8.8,37.5.9-12.9,6.2-29.9,16.7-35.8,4.2-2.3,9.2-4,15.9-5.1,6.8,1.1,11.7,2.9,15.9,5.2,10.6,5.9,15.8,22.9,16.6,35.8-.3-13.8-3-31.4-8.4-37.6Z"/>
  <path class="cls-6" d="m170.1,100.1c-1.8-2.2-4.9-2.8-7.3-.9-2.4,1.9-2.9,6.6-.4,9.6,7.1,8.8,17.5,13.1,28.7,11.9,3.9-.4,6.9-4,6.5-7.1-.4-3.1-3-4.8-5.8-4.5-8.5.8-16.3-2.4-21.7-9Z"/>
  <path class="cls-6" d="m201.2,116.3c.8-.1,1.7.1,1.9.6.2.6-.3,1.4-1.3,1.8-2.7.9-5.6,1-8.4.1-1-.3-1.4-1.5-.8-2.4.6-.9,1.5-1.4,2.2-1,1.9.9,4.1,1.3,6.4.9Z"/>
  <path class="cls-6" d="m200.5,111.6c.7-.4,1.6-.4,2,.1s.1,1.5-.8,2.1c-2.3,1.6-5.1,2.5-8.1,2.5-1.1,0-1.7-1.1-1.4-2.1.3-1.1,1.1-1.7,1.8-1.6,2.2.3,4.4,0,6.5-1Z"/>
  <path class="cls-2" d="m149.8,46.3c-5.8,0-12.5-2.3-16.3-3.3-4.5-1.1-6.6-1.2-9.9-1.2-10,0-13.1,5.2-13.9,7.4,6.6-20.2,27.4-23.1,39.8-23h1c12.3,0,33.2,2.9,39.7,23.2-.8-2.1-3.9-7.4-13.9-7.4-3.3,0-5.4,0-9.9,1.1-3.8,1-10.6,3.2-16.3,3.2h-.3Z"/>
  <path class="cls-7" d="m190.1,49.4h0c-.8-2.2-3.9-7.4-13.9-7.4-3.3,0-5.4,0-9.9,1.1-3.8,1-10.6,3.2-16.3,3.2h-.2c-5.8,0-12.5-2.3-16.3-3.3-4.5-1.1-6.6-1.2-9.9-1.2-10,0-13.1,5.2-13.9,7.4h0c-2.1,2-3.5,7.3-3.4,13.6.2,7.9,2.9,14.2,6,14.1h.2c7.2,14.5,26.9,21.2,37.2,21.2s30.2-6.6,37.5-21.1h.2c3.1.1,5.8-6.2,6.1-14.1.1-6.2-1.3-11.5-3.4-13.5Z"/>
  <path class="cls-10" d="m149.8,87.7c-5.2,0-16.3-4.9-16.3-15.5s12.3-11.4,16.4-11.4,16.4.9,16.3,11.5c0,10.6-11.2,15.4-16.4,15.4Z"/>
  <path class="cls-6" d="m150.1,63.5c2.3,0,5.6,2.4,6,5.1.4,2.8-6.2,2.7-6.2,2.7h-.2s-6.6.1-6.2-2.7c.4-2.8,3.8-5.1,6-5.1h.6Z"/>
  <g>
    <circle class="cls-6" cx="133.1" cy="55.4" r="2"/>
    <path class="cls-6" d="m168.6,55.5c0,1.1-.9,2-2,2s-2-.9-2-2,.9-2,2-2,2,.9,2,2Z"/>
  </g>
  <path class="cls-6" d="m185.8,53.9c2.5.1,4.6,4.9,5.4,11.7.1-.9.2-1.7.2-2.7.2-6.2-1.3-11.3-3.4-11.4-.9,0-1.7.9-2.3,2.3,0,.1.1.1.1.1Z"/>
  <path class="cls-6" d="m113.9,53.7c-2.5.1-4.6,4.9-5.4,11.7-.1-.9-.1-1.7-.2-2.7-.1-6.2,1.4-11.3,3.4-11.4.9,0,1.7.9,2.3,2.4,0,.1,0,0-.1,0Z"/>
  <path class="cls-10" d="m137.1,50.69c-.23,0-.45-.1-.61-.28-.38-.46-.86-.8-1.5-1.08-.69-.29-1.27-.44-1.79-.44-.68-.08-1.14.06-1.73.22l-.11.03c-.65.28-1.13.53-1.51.91-.31.31-.81.31-1.12,0-.31-.31-.31-.81,0-1.12.63-.63,1.39-.98,2.05-1.27l.25-.08c.67-.19,1.36-.39,2.26-.28.62,0,1.43.18,2.31.56.87.37,1.55.87,2.1,1.52.28.33.23.83-.1,1.11-.15.12-.33.18-.51.18Z"/>
  <path class="cls-10" d="m170.7,50.69c-.23,0-.45-.1-.61-.28-.38-.46-.86-.8-1.5-1.08-.69-.29-1.27-.44-1.79-.44h-.11c-.52-.08-1.1.08-1.72.26-.65.28-1.13.53-1.51.91-.31.31-.81.31-1.12,0-.31-.31-.31-.81,0-1.12.63-.63,1.39-.98,2.05-1.27l.09-.03c.72-.2,1.53-.44,2.37-.33.72,0,1.49.19,2.36.56.87.37,1.55.87,2.1,1.52.28.33.23.83-.1,1.11-.15.12-.33.18-.51.18Z"/>
  <path class="cls-6" d="m149.8,83.12c-1.48,0-2.81-.41-3.67-.75-1.24-.56-2.19-1.21-3.04-2.06-.91-.91-1.64-1.98-2.06-3.04-.15-.37.03-.78.4-.93.37-.15.78.03.93.4.35.87.98,1.8,1.74,2.56.72.72,1.54,1.28,2.59,1.75.71.28,1.85.64,3.1.64,1.16,0,2.15-.2,3.1-.64.9-.36,1.83-.99,2.59-1.75.72-.72,1.28-1.54,1.75-2.59.16-.36.59-.52.95-.36.36.16.52.59.36.95-.55,1.21-1.2,2.16-2.05,3.01-.91.91-1.99,1.64-3.04,2.06-1.12.51-2.29.75-3.67.75Z"/>
  <g>
    <path class="cls-6" d="m128.72,101.3c.99-2.67,3.72-4.24,6.61-3.22,2.89,1.02,4.89,5.3,3.5,8.95-3.85,10.63-12.29,18.08-23.27,20.58-3.82.89-7.83-1.54-8.45-4.6-.63-3.06,1.28-5.51,4.02-6.14,8.2-1.97,14.64-7.57,17.6-15.56Z"/>
    <path class="cls-6" d="m102.8,123.74c-.79.17-1.68.05-1.97-.49s.24-1.46,1.15-1.88c2.55-1.19,5.52-1.47,8.37-.87,1.05.27,1.53,1.38.91,2.33-.5,1.02-1.41,1.44-2.11,1.25-1.87-.84-4.15-1.01-6.36-.35Z"/>
    <path class="cls-6" d="m105.02,128.05c-.66.54-1.42.8-1.96.46s-.49-1.42.2-2.18c1.78-2.2,4.26-3.9,7.1-4.56,1.07-.26,1.97.49,1.94,1.66-.02,1.17-.58,2-1.31,2.04-2.18.12-4.29,1.05-5.98,2.59Z"/>
    <path class="cls-6" d="m102.98,119.03c-.85-.02-1.62-.4-1.72-1s.59-1.37,1.6-1.5c2.81-.44,5.72.04,8.33,1.47.92.53,1.03,1.76.25,2.56s-1.76,1.03-2.33.59c-1.72-1.31-3.82-2.18-6.12-2.13Z"/>
  </g>
  <g>
    <g>
      <path class="cls-1" d="m244.2,94l-42.7-.4c-1.3,0-2.4,1-2.4,2.4l-.2,23.7c0,1.3,1,2.4,2.4,2.4l42.7.4c1.3,0,2.4-1,2.4-2.4l.2-23.7c0-1.3-1.1-2.4-2.4-2.4Z"/>
      <path class="cls-2" d="m202.4,118.5v-4.7c2.6,0,4.7,2.2,4.7,4.8l-4.7-.1Z"/>
      <path class="cls-2" d="m202.6,101.9v-4.7h4.7c.1,2.7-2.1,4.8-4.7,4.7Z"/>
      <path class="cls-2" d="m242.8,118.9h-4.7c0-2.6,2.2-4.7,4.8-4.7l-.1,4.7Z"/>
      <path class="cls-2" d="m243,102.3c-2.6,0-4.7-2.2-4.7-4.8h4.8l-.1,4.8Z"/>
      <path class="cls-2" d="m222.6,116.4c-9.3-.1-16.8-3.9-16.8-8.5s7.6-8.2,16.9-8.1c9.3.1,16.8,3.9,16.8,8.5s-7.6,8.2-16.9,8.1Z"/>
    </g>
    <rect class="cls-9" x="217.35" y="91.19" width="10.7" height="33.9" transform="translate(112.41 329.78) rotate(-89.44)"/>
    <g class="cls-4">
      <path class="cls-1" d="m222.18,110.82l.02-2.5c-.78-.23-1.34-.57-1.7-1.03-.36-.45-.54-1-.53-1.65,0-.65.22-1.2.63-1.63.42-.44.97-.69,1.65-.75v-.59s.87,0,.87,0v.59c.62.08,1.12.3,1.5.66.37.36.6.84.7,1.43l-1.51.18c-.09-.47-.32-.79-.71-.96l-.02,2.33c.95.27,1.6.61,1.94,1.02.34.41.51.94.5,1.59,0,.72-.23,1.32-.67,1.81-.44.49-1.05.78-1.82.89v1.11s-.88,0-.88,0v-1.08c-.68-.09-1.23-.35-1.66-.79s-.69-1.04-.81-1.83l1.56-.15c.06.32.18.59.35.83.17.23.37.4.58.51Zm.06-6.26c-.24.08-.42.21-.56.4-.14.19-.21.4-.21.63,0,.21.06.41.18.59.13.18.32.33.57.44l.02-2.06Zm.8,6.35c.3-.05.54-.19.73-.41s.28-.48.29-.78c0-.27-.07-.5-.23-.69-.16-.19-.41-.35-.77-.45l-.02,2.32Z"/>
    </g>
  </g>
  <path class="cls-6" d="m200.7,109.4c.8-.2,1.5-.7,1.5-1.4,0-.6-.9-1.2-1.9-1.1-2.8.2-5.6,1.3-7.8,3.3-.8.7-.6,1.9.3,2.5.9.6,2,.6,2.4.1,1.4-1.6,3.3-2.8,5.5-3.4Z"/>
  <g>
    <g>
      <path class="cls-8" d="m114.97,122.61c0,2.14-3.58,3.87-8,3.87s-8-1.73-8-3.87v-3.87h15.99v3.87Z"/>
      <ellipse class="cls-3" cx="106.97" cy="118.74" rx="8" ry="3.87"/>
      <g>
        <path class="cls-8" d="m103.79,117.05v2.74h-1.27v-1.8c-.21.09-.4.17-.6.23-.19.06-.43.11-.72.17v-.61c.43-.08.76-.18.99-.3.24-.11.42-.26.55-.43h1.04Z"/>
        <path class="cls-8" d="m105.16,118.43c0-.51.15-.87.46-1.07.31-.2.78-.31,1.41-.31.3,0,.55.02.75.07s.35.1.48.17c.12.07.22.15.29.23.07.08.13.17.17.28.08.2.13.41.13.63,0,.49-.14.85-.42,1.07s-.75.34-1.43.34c-.38,0-.69-.04-.92-.11s-.43-.18-.58-.32c-.11-.1-.19-.23-.25-.41s-.09-.36-.09-.57Zm1.24,0c0,.34.05.58.15.7.1.13.25.19.44.19.13,0,.24-.03.33-.08.09-.05.16-.14.21-.25.04-.12.07-.29.07-.54,0-.36-.05-.6-.15-.72s-.25-.18-.46-.18-.36.06-.45.19c-.09.13-.14.36-.14.7Z"/>
        <path class="cls-8" d="m111.92,119.03l1.19.08c-.07.15-.17.28-.32.39s-.34.19-.57.25-.53.09-.89.09-.64-.02-.87-.06-.43-.1-.6-.19c-.17-.09-.3-.19-.39-.3-.09-.12-.14-.27-.14-.46s.06-.37.17-.5c.08-.1.2-.19.34-.26.15-.08.3-.14.45-.17.24-.06.56-.09.94-.09.53,0,.94.06,1.22.17.28.11.48.28.59.5l-1.18.09c-.04-.08-.1-.15-.2-.19s-.23-.06-.39-.06c-.21,0-.38.04-.5.13s-.19.22-.19.4c0,.16.06.28.19.36s.29.12.49.12c.16,0,.3-.03.41-.08.11-.05.2-.13.25-.23Z"/>
      </g>
    </g>
    <g>
      <path class="cls-8" d="m116.24,118.74c0,2.14-3.58,3.87-8,3.87s-8-1.73-8-3.87v-3.87h15.99v3.87Z"/>
      <ellipse class="cls-3" cx="108.24" cy="114.86" rx="8" ry="3.87"/>
      <g>
        <path class="cls-8" d="m105.06,113.18v2.74h-1.27v-1.8c-.21.09-.4.17-.6.23-.19.06-.43.11-.72.17v-.61c.43-.08.76-.18.99-.3.24-.11.42-.26.55-.43h1.04Z"/>
        <path class="cls-8" d="m106.43,114.56c0-.51.15-.87.46-1.07.31-.2.78-.31,1.41-.31.3,0,.55.02.75.07s.35.1.48.17c.12.07.22.15.29.23.07.08.13.17.17.28.08.2.13.41.13.63,0,.49-.14.85-.42,1.07s-.75.34-1.43.34c-.38,0-.69-.04-.92-.11s-.43-.18-.58-.32c-.11-.1-.19-.23-.25-.41s-.09-.36-.09-.57Zm1.24,0c0,.34.05.58.15.7.1.13.25.19.44.19.13,0,.24-.03.33-.08.09-.05.16-.14.21-.25.04-.12.07-.29.07-.54,0-.36-.05-.6-.15-.72s-.25-.18-.46-.18-.36.06-.45.19c-.09.13-.14.36-.14.7Z"/>
        <path class="cls-8" d="m113.19,115.15l1.19.08c-.07.15-.17.28-.32.39s-.34.19-.57.25-.53.09-.89.09-.64-.02-.87-.06-.43-.1-.6-.19c-.17-.09-.3-.19-.39-.3-.09-.12-.14-.27-.14-.46s.06-.37.17-.5c.08-.1.2-.19.34-.26.15-.08.3-.14.45-.17.24-.06.56-.09.94-.09.53,0,.94.06,1.22.17.28.11.48.28.59.5l-1.18.09c-.04-.08-.1-.15-.2-.19s-.23-.06-.39-.06c-.21,0-.38.04-.5.13s-.19.22-.19.4c0,.16.06.28.19.36s.29.12.49.12c.16,0,.3-.03.41-.08.11-.05.2-.13.25-.23Z"/>
      </g>
    </g>
    <g>
      <path class="cls-8" d="m114.97,114.99c0,2.14-3.58,3.87-8,3.87s-8-1.73-8-3.87v-3.87h15.99v3.87Z"/>
      <ellipse class="cls-3" cx="106.97" cy="111.11" rx="8" ry="3.87"/>
      <g>
        <path class="cls-8" d="m103.79,109.43v2.74h-1.27v-1.8c-.21.09-.4.17-.6.23-.19.06-.43.11-.72.17v-.61c.43-.08.76-.18.99-.3.24-.11.42-.26.55-.43h1.04Z"/>
        <path class="cls-8" d="m105.16,110.81c0-.51.15-.87.46-1.07.31-.2.78-.31,1.41-.31.3,0,.55.02.75.07s.35.1.48.17c.12.07.22.15.29.23.07.08.13.17.17.28.08.2.13.41.13.63,0,.49-.14.85-.42,1.07s-.75.34-1.43.34c-.38,0-.69-.04-.92-.11s-.43-.18-.58-.32c-.11-.1-.19-.23-.25-.41s-.09-.36-.09-.57Zm1.24,0c0,.34.05.58.15.7.1.13.25.19.44.19.13,0,.24-.03.33-.08.09-.05.16-.14.21-.25.04-.12.07-.29.07-.54,0-.36-.05-.6-.15-.72s-.25-.18-.46-.18-.36.06-.45.19c-.09.13-.14.36-.14.7Z"/>
        <path class="cls-8" d="m111.92,111.4l1.19.08c-.07.15-.17.28-.32.39s-.34.19-.57.25-.53.09-.89.09-.64-.02-.87-.06-.43-.1-.6-.19c-.17-.09-.3-.19-.39-.3-.09-.12-.14-.27-.14-.46s.06-.37.17-.5c.08-.1.2-.19.34-.26.15-.08.3-.14.45-.17.24-.06.56-.09.94-.09.53,0,.94.06,1.22.17.28.11.48.28.59.5l-1.18.09c-.04-.08-.1-.15-.2-.19s-.23-.06-.39-.06c-.21,0-.38.04-.5.13s-.19.22-.19.4c0,.16.06.28.19.36s.29.12.49.12c.16,0,.3-.03.41-.08.11-.05.2-.13.25-.23Z"/>
      </g>
    </g>
    <g>
      <path class="cls-8" d="m117.2,111.97c0,2.14-3.58,3.87-8,3.87s-8-1.73-8-3.87v-3.87h15.99v3.87Z"/>
      <ellipse class="cls-3" cx="109.21" cy="108.1" rx="8" ry="3.87"/>
      <g>
        <path class="cls-8" d="m106.03,106.41v2.74h-1.27v-1.8c-.21.09-.4.17-.6.23-.19.06-.43.11-.72.17v-.61c.43-.08.76-.18.99-.3.24-.11.42-.26.55-.43h1.04Z"/>
        <path class="cls-8" d="m107.4,107.8c0-.51.15-.87.46-1.07.31-.2.78-.31,1.41-.31.3,0,.55.02.75.07s.35.1.48.17c.12.07.22.15.29.23.07.08.13.17.17.28.08.2.13.41.13.63,0,.49-.14.85-.42,1.07s-.75.34-1.43.34c-.38,0-.69-.04-.92-.11s-.43-.18-.58-.32c-.11-.1-.19-.23-.25-.41s-.09-.36-.09-.57Zm1.24,0c0,.34.05.58.15.7.1.13.25.19.44.19.13,0,.24-.03.33-.08.09-.05.16-.14.21-.25.04-.12.07-.29.07-.54,0-.36-.05-.6-.15-.72s-.25-.18-.46-.18-.36.06-.45.19c-.09.13-.14.36-.14.7Z"/>
        <path class="cls-8" d="m114.16,108.39l1.19.08c-.07.15-.17.28-.32.39s-.34.19-.57.25-.53.09-.89.09-.64-.02-.87-.06-.43-.1-.6-.19c-.17-.09-.3-.19-.39-.3-.09-.12-.14-.27-.14-.46s.06-.37.17-.5c.08-.1.2-.19.34-.26.15-.08.3-.14.45-.17.24-.06.56-.09.94-.09.53,0,.94.06,1.22.17.28.11.48.28.59.5l-1.18.09c-.04-.08-.1-.15-.2-.19s-.23-.06-.39-.06c-.21,0-.38.04-.5.13s-.19.22-.19.4c0,.16.06.28.19.36s.29.12.49.12c.16,0,.3-.03.41-.08.11-.05.2-.13.25-.23Z"/>
      </g>
    </g>
    <g>
      <path class="cls-8" d="m114.97,108.35c0,2.14-3.58,3.87-8,3.87s-8-1.73-8-3.87v-3.87h15.99v3.87Z"/>
      <ellipse class="cls-3" cx="106.97" cy="104.48" rx="8" ry="3.87"/>
      <g>
        <path class="cls-8" d="m103.79,102.79v2.74h-1.27v-1.8c-.21.09-.4.17-.6.23-.19.06-.43.11-.72.17v-.61c.43-.08.76-.18.99-.3.24-.11.42-.26.55-.43h1.04Z"/>
        <path class="cls-8" d="m105.16,104.18c0-.51.15-.87.46-1.07.31-.2.78-.31,1.41-.31.3,0,.55.02.75.07s.35.1.48.17c.12.07.22.15.29.23.07.08.13.17.17.28.08.2.13.41.13.63,0,.49-.14.85-.42,1.07s-.75.34-1.43.34c-.38,0-.69-.04-.92-.11s-.43-.18-.58-.32c-.11-.1-.19-.23-.25-.41s-.09-.36-.09-.57Zm1.24,0c0,.34.05.58.15.7.1.13.25.19.44.19.13,0,.24-.03.33-.08.09-.05.16-.14.21-.25.04-.12.07-.29.07-.54,0-.36-.05-.6-.15-.72s-.25-.18-.46-.18-.36.06-.45.19c-.09.13-.14.36-.14.7Z"/>
        <path class="cls-8" d="m111.92,104.77l1.19.08c-.07.15-.17.28-.32.39s-.34.19-.57.25-.53.09-.89.09-.64-.02-.87-.06-.43-.1-.6-.19c-.17-.09-.3-.19-.39-.3-.09-.12-.14-.27-.14-.46s.06-.37.17-.5c.08-.1.2-.19.34-.26.15-.08.3-.14.45-.17.24-.06.56-.09.94-.09.53,0,.94.06,1.22.17.28.11.48.28.59.5l-1.18.09c-.04-.08-.1-.15-.2-.19s-.23-.06-.39-.06c-.21,0-.38.04-.5.13s-.19.22-.19.4c0,.16.06.28.19.36s.29.12.49.12c.16,0,.3-.03.41-.08.11-.05.2-.13.25-.23Z"/>
      </g>
    </g>
    <g>
      <path class="cls-8" d="m111.45,104.73c0,2.14-3.58,3.87-8,3.87s-8-1.73-8-3.87v-3.87h15.99v3.87Z"/>
      <ellipse class="cls-3" cx="103.45" cy="100.86" rx="8" ry="3.87"/>
      <g>
        <path class="cls-8" d="m100.28,99.17v2.74h-1.27v-1.8c-.21.09-.4.17-.6.23-.19.06-.43.11-.72.17v-.61c.43-.08.76-.18.99-.3.24-.11.42-.26.55-.43h1.04Z"/>
        <path class="cls-8" d="m101.64,100.55c0-.51.15-.87.46-1.07.31-.2.78-.31,1.41-.31.3,0,.55.02.75.07s.35.1.48.17c.12.07.22.15.29.23.07.08.13.17.17.28.08.2.13.41.13.63,0,.49-.14.85-.42,1.07s-.75.34-1.43.34c-.38,0-.69-.04-.92-.11s-.43-.18-.58-.32c-.11-.1-.19-.23-.25-.41s-.09-.36-.09-.57Zm1.24,0c0,.34.05.58.15.7.1.13.25.19.44.19.13,0,.24-.03.33-.08.09-.05.16-.14.21-.25.04-.12.07-.29.07-.54,0-.36-.05-.6-.15-.72s-.25-.18-.46-.18-.36.06-.45.19c-.09.13-.14.36-.14.7Z"/>
        <path class="cls-8" d="m108.4,101.15l1.19.08c-.07.15-.17.28-.32.39s-.34.19-.57.25-.53.09-.89.09-.64-.02-.87-.06-.43-.1-.6-.19c-.17-.09-.3-.19-.39-.3-.09-.12-.14-.27-.14-.46s.06-.37.17-.5c.08-.1.2-.19.34-.26.15-.08.3-.14.45-.17.24-.06.56-.09.94-.09.53,0,.94.06,1.22.17.28.11.48.28.59.5l-1.18.09c-.04-.08-.1-.15-.2-.19s-.23-.06-.39-.06c-.21,0-.38.04-.5.13s-.19.22-.19.4c0,.16.06.28.19.36s.29.12.49.12c.16,0,.3-.03.41-.08.11-.05.2-.13.25-.23Z"/>
      </g>
    </g>
    <g>
      <path class="cls-8" d="m109.59,100.61c0,2.14-3.58,3.87-8,3.87s-8-1.73-8-3.87v-3.87h15.99v3.87Z"/>
      <ellipse class="cls-3" cx="101.6" cy="96.73" rx="8" ry="3.87"/>
      <g>
        <path class="cls-8" d="m98.42,95.05v2.74h-1.27v-1.8c-.21.09-.4.17-.6.23-.19.06-.43.11-.72.17v-.61c.43-.08.76-.18.99-.3.24-.11.42-.26.55-.43h1.04Z"/>
        <path class="cls-8" d="m99.78,96.43c0-.51.15-.87.46-1.07.31-.2.78-.31,1.41-.31.3,0,.55.02.75.07s.35.1.48.17c.12.07.22.15.29.23.07.08.13.17.17.28.08.2.13.41.13.63,0,.49-.14.85-.42,1.07s-.75.34-1.43.34c-.38,0-.69-.04-.92-.11s-.43-.18-.58-.32c-.11-.1-.19-.23-.25-.41s-.09-.36-.09-.57Zm1.24,0c0,.34.05.58.15.7.1.13.25.19.44.19.13,0,.24-.03.33-.08.09-.05.16-.14.21-.25.04-.12.07-.29.07-.54,0-.36-.05-.6-.15-.72s-.25-.18-.46-.18-.36.06-.45.19c-.09.13-.14.36-.14.7Z"/>
        <path class="cls-8" d="m106.54,97.02l1.19.08c-.07.15-.17.28-.32.39s-.34.19-.57.25-.53.09-.89.09-.64-.02-.87-.06-.43-.1-.6-.19c-.17-.09-.3-.19-.39-.3-.09-.12-.14-.27-.14-.46s.06-.37.17-.5c.08-.1.2-.19.34-.26.15-.08.3-.14.45-.17.24-.06.56-.09.94-.09.53,0,.94.06,1.22.17.28.11.48.28.59.5l-1.18.09c-.04-.08-.1-.15-.2-.19s-.23-.06-.39-.06c-.21,0-.38.04-.5.13s-.19.22-.19.4c0,.16.06.28.19.36s.29.12.49.12c.16,0,.3-.03.41-.08.11-.05.2-.13.25-.23Z"/>
      </g>
    </g>
    <g>
      <path class="cls-8" d="m111.83,96.63c0,2.14-3.58,3.87-8,3.87s-8-1.73-8-3.87v-3.87h15.99v3.87Z"/>
      <ellipse class="cls-3" cx="103.84" cy="92.75" rx="8" ry="3.87"/>
      <g>
        <path class="cls-8" d="m100.66,91.07v2.74h-1.27v-1.8c-.21.09-.4.17-.6.23-.19.06-.43.11-.72.17v-.61c.43-.08.76-.18.99-.3.24-.11.42-.26.55-.43h1.04Z"/>
        <path class="cls-8" d="m102.02,92.45c0-.51.15-.87.46-1.07.31-.2.78-.31,1.41-.31.3,0,.55.02.75.07s.35.1.48.17c.12.07.22.15.29.23.07.08.13.17.17.28.08.2.13.41.13.63,0,.49-.14.85-.42,1.07s-.75.34-1.43.34c-.38,0-.69-.04-.92-.11s-.43-.18-.58-.32c-.11-.1-.19-.23-.25-.41s-.09-.36-.09-.57Zm1.24,0c0,.34.05.58.15.7.1.13.25.19.44.19.13,0,.24-.03.33-.08.09-.05.16-.14.21-.25.04-.12.07-.29.07-.54,0-.36-.05-.6-.15-.72s-.25-.18-.46-.18-.36.06-.45.19c-.09.13-.14.36-.14.7Z"/>
        <path class="cls-8" d="m108.78,93.04l1.19.08c-.07.15-.17.28-.32.39s-.34.19-.57.25-.53.09-.89.09-.64-.02-.87-.06-.43-.1-.6-.19c-.17-.09-.3-.19-.39-.3-.09-.12-.14-.27-.14-.46s.06-.37.17-.5c.08-.1.2-.19.34-.26.15-.08.3-.14.45-.17.24-.06.56-.09.94-.09.53,0,.94.06,1.22.17.28.11.48.28.59.5l-1.18.09c-.04-.08-.1-.15-.2-.19s-.23-.06-.39-.06c-.21,0-.38.04-.5.13s-.19.22-.19.4c0,.16.06.28.19.36s.29.12.49.12c.16,0,.3-.03.41-.08.11-.05.2-.13.25-.23Z"/>
      </g>
    </g>
    <g>
      <path class="cls-8" d="m113.11,93c0,2.14-3.58,3.87-8,3.87s-8-1.73-8-3.87v-3.87h15.99v3.87Z"/>
      <ellipse class="cls-3" cx="105.11" cy="89.13" rx="8" ry="3.87"/>
      <g>
        <path class="cls-8" d="m101.94,87.45v2.74h-1.27v-1.8c-.21.09-.4.17-.6.23-.19.06-.43.11-.72.17v-.61c.43-.08.76-.18.99-.3.24-.11.42-.26.55-.43h1.04Z"/>
        <path class="cls-8" d="m103.3,88.83c0-.51.15-.87.46-1.07.31-.2.78-.31,1.41-.31.3,0,.55.02.75.07s.35.1.48.17c.12.07.22.15.29.23.07.08.13.17.17.28.08.2.13.41.13.63,0,.49-.14.85-.42,1.07s-.75.34-1.43.34c-.38,0-.69-.04-.92-.11s-.43-.18-.58-.32c-.11-.1-.19-.23-.25-.41s-.09-.36-.09-.57Zm1.24,0c0,.34.05.58.15.7.1.13.25.19.44.19.13,0,.24-.03.33-.08.09-.05.16-.14.21-.25.04-.12.07-.29.07-.54,0-.36-.05-.6-.15-.72s-.25-.18-.46-.18-.36.06-.45.19c-.09.13-.14.36-.14.7Z"/>
        <path class="cls-8" d="m110.06,89.42l1.19.08c-.07.15-.17.28-.32.39s-.34.19-.57.25-.53.09-.89.09-.64-.02-.87-.06-.43-.1-.6-.19c-.17-.09-.3-.19-.39-.3-.09-.12-.14-.27-.14-.46s.06-.37.17-.5c.08-.1.2-.19.34-.26.15-.08.3-.14.45-.17.24-.06.56-.09.94-.09.53,0,.94.06,1.22.17.28.11.48.28.59.5l-1.18.09c-.04-.08-.1-.15-.2-.19s-.23-.06-.39-.06c-.21,0-.38.04-.5.13s-.19.22-.19.4c0,.16.06.28.19.36s.29.12.49.12c.16,0,.3-.03.41-.08.11-.05.2-.13.25-.23Z"/>
      </g>
    </g>
    <g>
      <path class="cls-8" d="m111.25,87.67c0,2.14-3.58,3.87-8,3.87s-8-1.73-8-3.87v-3.87h15.99v3.87Z"/>
      <ellipse class="cls-3" cx="103.26" cy="83.79" rx="8" ry="3.87"/>
      <g>
        <path class="cls-8" d="m100.08,82.11v2.74h-1.27v-1.8c-.21.09-.4.17-.6.23-.19.06-.43.11-.72.17v-.61c.43-.08.76-.18.99-.3.24-.11.42-.26.55-.43h1.04Z"/>
        <path class="cls-8" d="m101.44,83.49c0-.51.15-.87.46-1.07.31-.2.78-.31,1.41-.31.3,0,.55.02.75.07s.35.1.48.17c.12.07.22.15.29.23.07.08.13.17.17.28.08.2.13.41.13.63,0,.49-.14.85-.42,1.07s-.75.34-1.43.34c-.38,0-.69-.04-.92-.11s-.43-.18-.58-.32c-.11-.1-.19-.23-.25-.41s-.09-.36-.09-.57Zm1.24,0c0,.34.05.58.15.7.1.13.25.19.44.19.13,0,.24-.03.33-.08.09-.05.16-.14.21-.25.04-.12.07-.29.07-.54,0-.36-.05-.6-.15-.72s-.25-.18-.46-.18-.36.06-.45.19c-.09.13-.14.36-.14.7Z"/>
        <path class="cls-8" d="m108.2,84.08l1.19.08c-.07.15-.17.28-.32.39s-.34.19-.57.25-.53.09-.89.09-.64-.02-.87-.06-.43-.1-.6-.19c-.17-.09-.3-.19-.39-.3-.09-.12-.14-.27-.14-.46s.06-.37.17-.5c.08-.1.2-.19.34-.26.15-.08.3-.14.45-.17.24-.06.56-.09.94-.09.53,0,.94.06,1.22.17.28.11.48.28.59.5l-1.18.09c-.04-.08-.1-.15-.2-.19s-.23-.06-.39-.06c-.21,0-.38.04-.5.13s-.19.22-.19.4c0,.16.06.28.19.36s.29.12.49.12c.16,0,.3-.03.41-.08.11-.05.2-.13.25-.23Z"/>
      </g>
    </g>
  </g>
</svg>