<?xml version="1.0" encoding="UTF-8"?>
<svg id="Layer_1" data-name="Layer 1" xmlns="http://www.w3.org/2000/svg" width="300" height="225" viewBox="0 0 300 225">
  <defs>
    <style>
      .cls-1 {
        fill: #fff;
      }

      .cls-2 {
        fill: #d0dae3;
      }

      .cls-3 {
        isolation: isolate;
        opacity: .35;
      }

      .cls-4 {
        fill: #232323;
      }

      .cls-5 {
        fill: #444;
      }

      .cls-6 {
        fill: #0f5b2d;
      }

      .cls-7 {
        fill: #0a3f1d;
      }

      .cls-8 {
        fill: #7f7f7f;
      }

      .cls-9 {
        fill: #ffcf15;
      }
    </style>
  </defs>
  <g>
    <g class="cls-3">
      <ellipse class="cls-4" cx="157.84" cy="194.84" rx="44.5" ry="7.2"/>
    </g>
    <g>
      <g>
        <g>
          <path class="cls-4" d="m160.59,151.6c.2,1.3,4.3,37.5,10.5,42.6,6.2,5.1,9.4,3.4,10.7,2,1.3-1.4,3-3.9-.1-6.8-2.5-2.3-4.2-12.5-1.7-28.4l-19.4-9.4Z"/>
          <g>
            <path class="cls-4" d="m186.09,192.3c.8.2,1.6.1,1.9-.4.3-.5-.2-1.4-1.1-1.9-2.5-1.2-5.4-1.6-8.2-1.1-1.1.2-1.5,1.3-1,2.3s1.4,1.5,2.1,1.3c1.9-.7,4.1-.8,6.3-.2Z"/>
            <path class="cls-4" d="m184.89,196.8c.7.4,1.5.5,2,.1.4-.4.2-1.4-.5-2.1-2.1-1.9-4.7-3-7.6-3.3-1.1-.1-1.8.8-1.6,1.9.2,1.1.9,1.8,1.6,1.8,2-.1,4.2.4,6.1,1.6Z"/>
            <path class="cls-4" d="m181.49,200.2c.4.7,1.1,1.2,1.7,1,.6-.2.9-1.2.5-2.1-1-2.6-2.8-4.9-5.3-6.4-.9-.6-2-.1-2.3,1-.3,1,0,2,.6,2.3,2,.8,3.7,2.3,4.8,4.2Z"/>
          </g>
        </g>
        <g>
          <path class="cls-4" d="m156.79,151.3c-.2,1.3-4.5,37.5-10.6,42.5-6.2,5.1-9.4,3.3-10.7,2-1.3-1.4-3-4,.1-6.8,2.5-2.3,4.2-12.5,1.8-28.4l19.4-9.3Z"/>
          <g>
            <path class="cls-4" d="m132.19,192.3c-.8.2-1.6.1-1.9-.4s.2-1.4,1.1-1.9c2.5-1.2,5.4-1.6,8.2-1,1.1.2,1.5,1.3,1,2.3s-1.4,1.5-2.1,1.2c-1.9-.7-4.1-.8-6.3-.2Z"/>
            <path class="cls-4" d="m133.39,196.8c-.7.4-1.5.5-2,.1-.4-.4-.2-1.4.5-2.1,2.1-1.8,4.8-3,7.6-3.3,1.1-.1,1.8.9,1.6,1.9-.2,1.1-.9,1.8-1.6,1.8-2-.1-4.2.4-6.1,1.6Z"/>
            <path class="cls-4" d="m136.79,200.2c-.4.7-1.1,1.2-1.7,1s-.8-1.2-.5-2.1c1-2.6,2.9-4.8,5.3-6.4.9-.6,2-.1,2.3,1,.3,1,0,2-.6,2.3-2,.8-3.7,2.3-4.8,4.2Z"/>
          </g>
        </g>
      </g>
      <path class="cls-5" d="m191.59,132.5c-1.3-12.5-6.5-27.7-16.4-33.2-4.2-2.4-9.1-4.1-15.9-5.2-1.6.3-3.1.6-4.5.9-.2.1-.5.1-.7.2-.4.1-.8.2-1.2.3-.3.1-.5.1-.8.2-.4.1-.8.2-1.2.4-.2.1-.4.1-.6.2-.6.2-1.1.4-1.7.6-.2.1-.3.1-.5.2-.4.2-.8.3-1.2.5-.2.1-.4.2-.5.2-.4.2-.7.3-1.1.5-.2.1-.3.1-.5.2-.5.2-1,.5-1.5.8-10.6,5.9-15.8,22.9-16.7,35.8-.1,1.9-.1,3.7-.1,5.4,0,4.4.3,8,.8,10.2,0,.1.1.2.1.3,2.6,12,15.9,21.1,31.8,21.1,17.9,0,32.4-11.4,32.4-25.4v-.4c.3-3.8.3-8.6,0-13.8Z"/>
      <path class="cls-1" d="m183.19,97.5c-4.1-4.7-9.4-7-19.9-7.4h-6c-.7,0-1.3,0-1.9.1h-.2c-10.5.4-15.8,2.7-19.9,7.3-5.4,6.2-8.2,23.8-8.8,37.5.9-12.9,6.2-29.9,16.7-35.8,4.2-2.3,9.2-4,15.9-5.1,6.8,1.1,11.7,2.9,15.9,5.2,10.6,5.9,15.8,22.9,16.6,35.8-.3-13.8-3-31.4-8.4-37.6Z"/>
      <path class="cls-1" d="m159.09,48.8c-5.8,0-12.5-2.3-16.3-3.3-4.5-1.1-6.6-1.2-9.9-1.2-10,0-13.1,5.2-13.9,7.4,6.6-20.2,27.4-23.1,39.8-23h1c12.3,0,33.2,2.9,39.7,23.2-.8-2.1-3.9-7.4-13.9-7.4-3.3,0-5.4,0-9.9,1.1-3.8,1-10.6,3.2-16.3,3.2h-.3Z"/>
      <path class="cls-5" d="m199.39,51.9h0c-.8-2.2-3.9-7.4-13.9-7.4-3.3,0-5.4,0-9.9,1.1-3.8,1-10.6,3.2-16.3,3.2h-.2c-5.8,0-12.5-2.3-16.3-3.3-4.5-1.1-6.6-1.2-9.9-1.2-10,0-13.1,5.2-13.9,7.4h0c-2.1,2-3.5,7.3-3.4,13.6.2,7.9,2.9,14.2,6,14.1h.2c7.2,14.5,26.9,21.2,37.2,21.2s30.2-6.6,37.5-21.1h.2c3.1.1,5.8-6.2,6.1-14.1.1-6.2-1.3-11.5-3.4-13.5Z"/>
      <path class="cls-8" d="m159.09,90.2c-5.2,0-16.3-4.9-16.3-15.5s12.3-11.4,16.4-11.4,16.4.9,16.3,11.5c0,10.6-11.2,15.4-16.4,15.4Z"/>
      <path class="cls-4" d="m159.39,66c2.3,0,5.6,2.4,6,5.1.4,2.8-6.2,2.7-6.2,2.7h-.2s-6.6.1-6.2-2.7c.4-2.8,3.8-5.1,6-5.1h.6Z"/>
      <g>
        <circle class="cls-4" cx="142.39" cy="57.9" r="2"/>
        <path class="cls-4" d="m177.89,58c0,1.1-.9,2-2,2s-2-.9-2-2,.9-2,2-2,2,.9,2,2Z"/>
      </g>
      <path class="cls-4" d="m195.09,56.4c2.5.1,4.6,4.9,5.4,11.7.1-.9.2-1.7.2-2.7.2-6.2-1.3-11.3-3.4-11.4-.9,0-1.7.9-2.3,2.3,0,.1.1.1.1.1Z"/>
      <path class="cls-4" d="m123.19,56.2c-2.5.1-4.6,4.9-5.4,11.7-.1-.9-.1-1.7-.2-2.7-.1-6.2,1.4-11.3,3.4-11.4.9,0,1.7.9,2.3,2.4,0,.1,0,0-.1,0Z"/>
      <path class="cls-8" d="m146.39,53.19c-.23,0-.45-.1-.61-.28-.38-.46-.86-.8-1.5-1.08-.69-.29-1.27-.44-1.79-.44-.68-.08-1.14.05-1.72.22l-.11.03c-.65.28-1.13.53-1.51.91-.31.31-.81.31-1.12,0-.31-.31-.31-.81,0-1.12.63-.63,1.39-.98,2.05-1.27l.25-.08c.67-.19,1.36-.39,2.26-.28.65,0,1.43.18,2.31.56.87.37,1.55.87,2.1,1.52.28.34.23.83-.1,1.11-.15.12-.33.18-.5.18Z"/>
      <path class="cls-8" d="m179.99,53.19c-.23,0-.45-.1-.61-.28-.38-.46-.86-.8-1.5-1.08-.69-.29-1.27-.44-1.79-.44h-.11c-.53-.08-1.13.09-1.77.27-.58.25-1.07.51-1.46.9-.31.31-.81.31-1.12,0-.31-.31-.31-.81,0-1.12.63-.63,1.39-.98,2.05-1.27l.09-.03c.72-.21,1.53-.44,2.37-.33.72,0,1.49.19,2.36.56.87.37,1.55.87,2.1,1.52.28.34.23.83-.1,1.11-.15.12-.33.18-.5.18Z"/>
      <path class="cls-4" d="m159.09,85.62c-1.48,0-2.81-.41-3.67-.75-1.24-.56-2.19-1.21-3.04-2.06-.91-.91-1.64-1.99-2.06-3.04-.15-.37.03-.78.4-.93.36-.15.78.03.93.4.35.87.98,1.8,1.74,2.56.72.72,1.55,1.28,2.59,1.75.71.28,1.85.64,3.1.64,1.16,0,2.15-.2,3.1-.64.9-.36,1.83-.99,2.59-1.75s1.28-1.55,1.75-2.59c.16-.36.59-.52.95-.36.36.16.52.59.36.95-.55,1.21-1.2,2.16-2.05,3.01-.91.91-1.99,1.64-3.04,2.06-1.12.51-2.29.75-3.67.75Z"/>
      <g>
        <path class="cls-4" d="m176.23,106.86c-2.54-1.28-3.8-4.17-2.46-6.93,1.33-2.76,5.81-4.26,9.28-2.48,10.13,5.02,16.59,14.24,17.85,25.43.46,3.89-2.41,7.6-5.52,7.89-3.11.28-5.34-1.89-5.65-4.68-1.04-8.37-5.88-15.39-13.5-19.23Z"/>
        <path class="cls-4" d="m195.64,135.12c.08.8-.14,1.67-.7,1.9s-1.42-.4-1.74-1.36c-.9-2.67-.85-5.65.07-8.42.39-1.01,1.54-1.37,2.42-.64.95.61,1.27,1.56,1.01,2.23-1.04,1.77-1.46,4.01-1.06,6.28Z"/>
        <path class="cls-4" d="m200.17,133.39c.47.72.64,1.5.24,2s-1.46.33-2.15-.44c-1.99-2.02-3.4-4.67-3.73-7.57-.14-1.1.7-1.9,1.86-1.75,1.16.15,1.92.8,1.88,1.53-.13,2.18.57,4.38,1.9,6.24Z"/>
        <path class="cls-4" d="m190.97,134.42c-.12.85-.57,1.56-1.18,1.59s-1.29-.74-1.31-1.76c-.12-2.84.68-5.68,2.39-8.11.63-.86,1.87-.82,2.57.04.71.87.82,1.87.33,2.39-1.5,1.56-2.59,3.55-2.8,5.85Z"/>
      </g>
      <g>
        <path class="cls-4" d="m135.13,99.43c1.8-2.2,4.9-2.8,7.3-.9,2.4,1.9,2.9,6.6.4,9.6-7.1,8.8-17.5,13.1-28.7,11.9-3.9-.4-6.9-4-6.5-7.1.4-3.1,3-4.8,5.8-4.5,8.5.8,16.3-2.4,21.7-9Z"/>
        <path class="cls-4" d="m104.03,115.63c-.8-.1-1.7.1-1.9.6-.2.6.3,1.4,1.3,1.8,2.7.9,5.6,1,8.4.1,1-.3,1.4-1.5.8-2.4-.6-.9-1.5-1.4-2.2-1-1.9.9-4.1,1.3-6.4.9Z"/>
        <path class="cls-4" d="m104.73,110.93c-.7-.4-1.6-.4-2,.1-.4.5-.1,1.5.8,2.1,2.3,1.6,5.1,2.5,8.1,2.5,1.1,0,1.7-1.1,1.4-2.1-.3-1.1-1.1-1.7-1.8-1.6-2.2.3-4.4,0-6.5-1Z"/>
      </g>
    </g>
    <g>
      <path class="cls-1" d="m160.45,119.75c-4.26,0-7.82-1.4-10.57-4.15-6.2-6.2-6.26-17.35-6.26-17.46h.5c0,.05.02,5.37,2.05,10.61,2.71,6.98,7.51,10.51,14.28,10.51,12.93,0,13.03-11.4,13.09-17.53.02-1.66.03-2.98.28-3.67l.47.17c-.22.61-.23,1.89-.25,3.51-.06,6.3-.17,18.03-13.59,18.03Z"/>
      <g>
        <path class="cls-9" d="m160.95,116.43c.23.1.45.19.66.31.2.11.37.27.52.44.37.43.57.92.69,1.43.18.72.36,1.45.53,2.17.17.71.34,1.41.51,2.12.18.74.37,1.49.55,2.23.18.73.36,1.46.53,2.19.12.48.23.96.35,1.44.14.59.28,1.18.43,1.76.15.62.3,1.24.45,1.86.12.48.23.97.35,1.45.12.49.24.99.36,1.48.14.56.28,1.12.41,1.68.04.15.03.3-.02.45-.05.15-.09.31-.16.46-.07.17-.17.32-.32.43-.66.49-1.31.98-1.97,1.47-.46.34-.91.68-1.37,1.02-.29.22-.59.44-.89.66-.13.1-.27.15-.45.13-.07,0-.15-.03-.22-.05-.23-.09-.47-.18-.7-.28-.17-.07-.29-.19-.34-.37-.19-.8-.39-1.6-.59-2.4-.22-.9-.44-1.79-.66-2.69-.14-.55-.27-1.11-.41-1.66-.08-.34-.16-.69-.25-1.03-.18-.73-.36-1.46-.54-2.19-.16-.67-.32-1.34-.49-2.01-.12-.5-.25-1-.37-1.5-.2-.83-.4-1.65-.61-2.48-.11-.47-.24-.94-.35-1.41-.12-.51-.25-1.01-.34-1.52-.05-.27-.04-.55-.05-.82,0-.13,0-.26.01-.39.01-.13.04-.25.05-.38.01-.08.02-.16.03-.24,0,0,0-.02,0-.03.04-.17.08-.34.13-.51.04-.15.08-.29.13-.44.05-.16.11-.31.18-.46.08-.17.17-.34.27-.5.08-.14.16-.29.25-.42.14-.19.29-.38.45-.56.26-.29.57-.54.92-.75.35-.2.73-.33,1.16-.34.2,0,.4.01.59.08.18.06.36.12.52.18Zm-.64,6.86s0,.01,0,.02c-.08.03-.09.08-.06.15.01.04.02.08.03.12,0,.03.01.05.06.06.07.01.08.07.04.11-.02.02-.04.04-.03.07.01.07.03.14.05.21,0,.01.03.02.05.03.06.02.08.07.04.1-.05.03-.05.08-.03.13.01.04.02.08.03.12,0,.04.02.07.07.08.06.02.07.06.02.11-.02.02-.04.04-.03.06.01.08.04.16.05.22.05.03.08.04.11.07,0,0-.02.04-.03.07,0,.02-.03.05-.02.07.01.07.04.15.05.22,0,0,0,0,.01-.01.03.02.06.03.08.06,0,.01,0,.05-.01.06-.05.03-.05.08-.03.13.01.05.02.09.03.14,0,.02.03.04.04.05.03.02.06.05.11.08-.1.03-.1.09-.08.17.01.04.02.08.03.12,0,.03.01.05.06.06.02,0,.06.08.06.08-.06.04-.06.1-.05.16,0,.02-.02.03-.03.05-.04.03-.05.06-.04.1,0,.02,0,.05-.01.06-.02,0-.05,0-.08,0-.01,0-.02-.02-.03-.03-.06.04-.11.08-.17.12-.03.02-.04.05-.03.09,0,.02,0,.05,0,.06-.02,0-.06.01-.07,0-.04-.03-.07-.02-.1,0-.03.02-.06.04-.09.06-.05.03-.09.06-.06.14.01.04-.03.07-.08.05-.06-.03-.09-.02-.12.01-.03.02-.06.05-.09.07-.04.03-.06.06-.04.11,0,.02,0,.05,0,.05-.02,0-.05,0-.08,0-.01,0-.02-.02-.04-.03-.05.04-.11.08-.16.11-.04.03-.06.05-.04.11.02.06-.04.09-.09.06-.04-.03-.07-.02-.09,0-.03.02-.06.04-.09.06-.05.03-.07.06-.06.13.01.05-.03.08-.08.05-.06-.04-.09-.01-.12.01-.04.03-.07.06-.11.08-.04.02-.04.05,0,.08.11,0,.21.06.3.1.01,0,.02.03.03.05.03.13.06.25.09.38,0,.03,0,.06-.03.08-.03.04-.07.06-.12.1.06.02.1.04.14.06.06.02.09.05.1.11.02.11.05.22.08.33,0,.03.02.05.04.09.15-.11.29-.21.42-.31.03-.02.06-.02.1,0,.1.04.21.08.31.12.04.02.07.07.04.09-.11.05-.04.13-.03.21.02,0,.04,0,.06,0,.04.02.06.07.04.09-.07.07-.07.11,0,.21.03.01.06.02.08.05,0,.01,0,.05,0,.05-.1.06-.03.14-.02.21,0,0,.01,0,.02-.01.04.03.07.05.11.08,0,0-.02,0-.03,0-.02.04-.05.09-.05.13,0,.04,0,.06-.03.08-.39.29-.79.57-1.17.88-.14.11-.26.09-.41,0-.03-.02-.06-.05-.07-.07-.09-.36-.17-.72-.26-1.07-.01-.05,0-.08.04-.1.05-.03.09-.07.14-.11-.09-.04-.16-.06-.23-.1-.03-.01-.06-.05-.07-.07-.04-.12-.07-.25-.09-.38,0-.02,0-.05.02-.07.03-.03.08-.06.13-.11-.06-.03-.1-.05-.15-.06-.06-.02-.09-.05-.1-.11-.02-.12-.05-.24-.08-.36-.01-.04,0-.07.03-.09.07-.05.13-.1.21-.16-.03-.02-.05-.03-.07-.04-.04-.01-.09-.01-.13-.03-.07-.02-.14-.06-.2-.08-.04-.01-.06-.03-.07-.07-.05-.2-.1-.41-.15-.61-.12-.51-.25-1.02-.37-1.52-.08-.35-.17-.7-.25-1.05,0-.01,0-.03-.02-.03-.06-.03-.13-.05-.21-.09.01.05.02.09.03.12.13.51.25,1.02.38,1.53.14.59.28,1.17.43,1.76.11.47.23.94.35,1.41.09.38.18.76.27,1.14.13.53.26,1.06.39,1.59.12.49.24.98.36,1.47.18.73.36,1.46.54,2.19.12.48.23.96.35,1.43.15.6.3,1.2.44,1.8.13.55.27,1.1.4,1.65.04.17.23.32.41.34.15.01.28-.02.39-.1.17-.13.33-.25.5-.37.58-.43,1.16-.86,1.74-1.29.62-.46,1.24-.92,1.86-1.39.11-.08.22-.17.3-.27.14-.17.22-.37.28-.58.05-.17.09-.35.04-.54-.08-.32-.16-.64-.24-.96-.13-.54-.26-1.08-.4-1.63-.15-.63-.31-1.25-.46-1.88-.11-.46-.22-.92-.33-1.37-.15-.6-.3-1.21-.45-1.81-.13-.54-.26-1.08-.4-1.63-.23-.93-.45-1.85-.68-2.78-.21-.84-.41-1.69-.62-2.53-.19-.77-.37-1.54-.56-2.3-.02-.09-.02-.1-.12-.08-.5.06-.99.13-1.49.19-.03,0-.05,0-.08.02-.01,0-.02.03-.02.04,0,0,.02.03.03.03.09.02.18.04.28.05.18.03.35.07.53.1.16.03.31.06.47.09.08.02.16.04.24.05v.04s-.09.03-.14.03c-.09,0-.18,0-.27-.02-.38-.03-.76-.06-1.14-.09-.05,0-.07.01-.07.06.33.15.67.3,1.01.45-.04.03-.07.06-.1.08-.01,0-.03.01-.05.01-.06-.01-.11-.02-.17-.04-.24-.08-.49-.16-.73-.23-.02,0-.04,0-.07,0,0,.03.01.07.03.08.17.12.34.24.52.36.09.07.1.08.02.14,0,0-.02.02-.04.04.06.03.11.05.17.07.05.02.07.04.08.09.04.17.08.34.12.51.01.05,0,.08-.04.1-.27.2-.55.41-.82.61-.05.04-.1.04-.17.02-.19-.05-.28-.16-.31-.34-.02-.18-.08-.36-.19-.53-.02-.02-.03-.05-.05-.08,0,0-.01,0-.02,0,0,.03,0,.05,0,.08.02.09.05.17.07.26,0,.02,0,.05,0,.06-.04.04-.08.07-.14.11-.04-.11-.08-.21-.12-.3,0,0-.02,0-.02,0,0,.03,0,.05,0,.08.01.09.03.17.04.26,0,.02,0,.04-.01.05-.04.03-.09.07-.15.11-.03-.13-.06-.25-.09-.36,0,0-.01,0-.02,0,0,.02,0,.04,0,.06,0,.12,0,.23.01.35,0,.02,0,.04-.02.05-.04.03-.09.06-.15.11-.02-.17-.04-.32-.05-.46,0,0-.01,0-.02,0-.01.19-.03.37-.04.57.07.03.15.06.22.09.04.02.06.04.07.08.02.11.05.21.08.32,0,.03.02.06.03.1.02-.01.02-.02.03-.02.06-.05.13-.09.19-.14.08-.08.17-.09.28-.02.07.04.18.04.21.14,0,0,.02,0,.03.01.03.02.06.04.1.06Zm1.25,18.03s.04.02.07.03c.1.04.2.08.29.12.22.1.42.08.59-.05.18-.13.35-.26.53-.39.67-.5,1.33-.99,2-1.49.53-.39,1.05-.79,1.58-1.17.16-.11.3-.24.38-.41.08-.16.15-.32.2-.5.05-.16.06-.33,0-.51-.04-.14-.07-.28-.1-.42-.16-.67-.32-1.34-.49-2.01-.16-.65-.32-1.3-.48-1.95-.16-.64-.31-1.28-.47-1.92-.11-.44-.22-.88-.32-1.32-.09-.36-.17-.72-.26-1.08-.11-.44-.22-.87-.32-1.31-.08-.35-.16-.69-.25-1.04-.12-.49-.24-.98-.36-1.47-.11-.46-.22-.92-.33-1.37-.1-.42-.21-.83-.31-1.25-.09-.36-.18-.72-.26-1.09-.13-.51-.25-1.03-.38-1.54-.08-.33-.16-.66-.26-.98-.1-.32-.26-.62-.48-.9-.25-.32-.57-.54-.95-.68-.01,0-.03,0-.06,0,.02.02.03.04.05.05.05.05.1.09.14.14.36.38.57.82.7,1.29.09.32.16.64.24.96.11.44.22.88.33,1.32.21.84.41,1.69.62,2.53.18.74.36,1.48.55,2.23.21.87.42,1.73.63,2.6.15.61.3,1.21.44,1.82.18.72.35,1.43.53,2.15.24.98.48,1.96.72,2.94.15.62.29,1.25.46,1.87.08.31.08.59-.03.87-.04.1-.08.2-.13.3-.05.09-.1.18-.17.25-.1.1-.21.18-.32.26-.45.34-.91.68-1.36,1.02-.58.43-1.16.86-1.74,1.3-.31.23-.61.46-.92.68-.08.06-.18.1-.27.14Zm-1.75-18.21s-.04.02-.05.03c-.5.37-1.01.75-1.51,1.12-.28.21-.56.42-.85.63-.05.03-.06.07-.05.13.07.27.13.54.2.81.17.68.33,1.36.5,2.04.02.07.03.13.06.21.04-.03.06-.04.09-.06.19-.14.39-.29.58-.43.58-.43,1.16-.86,1.74-1.29.05-.03.06-.07.05-.13-.09-.34-.17-.68-.25-1.02-.15-.61-.3-1.23-.45-1.84-.02-.06-.03-.12-.05-.2Zm.46-5.08c.04-.06.09-.12.14-.19.08-.11.15-.22.23-.32.07-.1.15-.2.22-.3.1-.15.21-.29.31-.44,0-.01,0-.05-.01-.06-.11-.08-.21-.17-.32-.23-.18-.1-.37-.17-.57-.2-.27-.05-.53-.04-.78.01-.41.09-.76.28-1.08.51-.4.3-.73.66-1,1.07-.03.04-.06.09-.08.13-.07.11-.14.22-.2.33-.05.09-.09.18-.13.27-.08.17-.17.33-.23.5-.08.22-.14.45-.21.68-.04.14-.07.29-.11.43,0,.02,0,.05.02.08,0,0,.04,0,.07,0,.32-.07.65-.15.97-.22.04,0,.07-.03.07-.07.02-.13.04-.26.07-.38.06-.28.17-.53.3-.78.02-.04.04-.09.07-.13.1-.13.19-.27.3-.4.21-.25.47-.46.8-.57.27-.09.54-.1.83.04.12.06.22.15.35.23Zm-1.27,13.06s.04-.02.05-.03c.4-.3.8-.59,1.2-.89.02-.01.03-.05.02-.08-.07-.3-.14-.6-.22-.9-.01-.04-.02-.08-.04-.13-.03.02-.05.02-.06.04-.39.29-.79.59-1.18.88-.04.03-.05.06-.04.11.08.31.15.63.23.94,0,.02.02.04.03.07Zm1.47-10.63s.01,0,.02,0c.05-.24.11-.48.15-.72.02-.16.02-.34,0-.51-.02-.33-.09-.65-.28-.95-.21-.35-.59-.55-.95-.53-.28.02-.51.12-.71.28-.15.12-.28.24-.4.38-.12.15-.24.3-.32.47-.12.25-.21.51-.3.78-.05.15-.07.31-.08.46-.01.16-.01.32,0,.48.02.35.1.69.32,1.01.09.13.2.25.35.33.27.15.55.18.82.09.39-.12.67-.38.91-.67.08-.1.15-.22.22-.34.07-.11.12-.23.18-.35.03-.07.05-.15.08-.22Zm-2.31,7.68c.08.03.14.05.19.08.05.02.08.02.11,0,.11-.08.22-.16.32-.24.64-.47,1.27-.95,1.91-1.42.06-.04.12-.09.19-.15-.08-.03-.14-.06-.2-.08-.03,0-.07,0-.09.01-.37.27-.73.54-1.1.82-.31.23-.62.46-.93.7-.13.09-.25.19-.39.29Zm1.73-5.04s0,.05.01.07c.09.35.17.71.26,1.06.16.65.32,1.31.48,1.96,0,.02.01.04.02.05.08.03.15.06.24.1,0-.04-.01-.06-.02-.08-.11-.44-.22-.88-.32-1.32-.14-.57-.28-1.14-.42-1.71,0-.02-.02-.04-.04-.05-.06-.03-.13-.05-.21-.09Zm-2.98,1.11c.07-.05.13-.1.2-.15.03-.02.06-.05.08-.08.05-.1.09-.21.14-.31.07-.16.13-.32.2-.48.05-.13.11-.26.17-.38.09-.2.18-.41.27-.61.02-.05.04-.09.06-.14.02-.04.04-.08.06-.12,0,0-.01,0-.02-.01-.03.04-.05.08-.08.12-.06.09-.12.18-.17.27-.06.1-.12.19-.18.29-.11.18-.23.35-.34.53-.08.13-.17.26-.25.39-.06.09-.12.17-.17.26-.08.14.03.29.04.43Zm5.31-5.1c-.52.17-1.02.33-1.51.52.04.02.07.03.1.03.17,0,.34,0,.5-.01.32,0,.65-.02.97-.02.04,0,.06-.01.05-.05-.04-.15-.07-.3-.11-.47Zm-4.32,2.65s-.01,0-.02-.01c-.04.04-.07.08-.11.13-.1.13-.2.25-.3.38-.13.16-.26.32-.39.47-.11.13-.22.27-.32.4-.03.04-.09.09-.08.14.02.14.06.27.1.41,0,0,.01,0,.03.02.37-.65.73-1.29,1.09-1.93Zm2.81-2.47s.01.02.02.03c.03,0,.06,0,.09-.01.16-.04.33-.08.49-.11.27-.06.54-.12.81-.19.03,0,.06-.03.06-.05-.02-.13-.06-.26-.09-.41-.47.25-.92.49-1.37.73Zm-2.93,2.23s-.01,0-.02-.01c-.03.02-.05.04-.08.06-.36.36-.73.71-1.09,1.07-.02.02-.05.05-.04.08.02.12.05.24.08.37.02-.01.04-.01.05-.02.37-.51.73-1.02,1.1-1.53Zm2.91-2.54s0,.02.01.02c.02,0,.05,0,.07-.01.18-.08.36-.15.54-.23.23-.1.46-.2.7-.3.02,0,.04-.03.04-.05-.02-.12-.06-.23-.08-.35,0,0-.02,0-.02-.01-.42.31-.83.62-1.25.93Zm-3.02,2.29s-.02-.01-.02-.02c0,0-.01,0-.02,0-.39.29-.77.57-1.16.86-.02.01-.04.04-.04.06.02.11.04.22.07.33,0,0,.02.02.03.03.38-.42.76-.84,1.14-1.26Zm2.97-2.59s0,.01.01.02c.02-.01.05-.02.07-.03.38-.24.77-.49,1.15-.73.02-.01.04-.04.03-.05-.03-.1-.08-.2-.12-.32-.39.38-.77.75-1.14,1.12Zm-4.24,3.31s.02,0,.03.01c.39-.34.79-.67,1.17-1.03-.03,0-.05,0-.06,0-.35.19-.7.38-1.06.56-.08.04-.12.1-.1.19.01.09.02.17.03.26Zm2.67,9.13c.08.07.17.1.22.06.33-.24.65-.49.98-.73.08-.06.17-.13.26-.2-.03-.02-.06-.02-.08-.04-.08-.05-.13-.04-.2.01-.32.24-.64.48-.96.72-.07.06-.15.11-.22.17Zm-1.51-10.44s0-.01-.01-.02c-.02,0-.04,0-.06,0-.03,0-.06.02-.09.03-.33.11-.66.22-.98.33-.03,0-.05.05-.06.08,0,.09,0,.18,0,.27,0,.02,0,.04.01.06.02,0,.05,0,.06-.02.36-.23.72-.46,1.09-.69.02-.01.03-.03.04-.04Zm.71,1.37s-.02,0-.02-.01c-.3.6-.6,1.2-.9,1.8.02,0,.03,0,.04,0,.11-.08.23-.17.34-.25.03-.02.05-.06.06-.09.05-.14.09-.28.14-.42.1-.31.21-.61.31-.92.01-.03.02-.07.03-.1Zm3.29-4.89c-.34.42-.67.84-1,1.25,0,0,.01.01.02.02.02-.01.04-.03.06-.04.09-.07.17-.15.26-.22.26-.22.52-.45.78-.67.02-.02.04-.05.03-.07-.04-.09-.09-.17-.15-.27Zm-4.22,7.4s.03,0,.04,0c.12-.09.24-.17.36-.27.02-.02.03-.06.02-.1-.02-.11-.05-.21-.08-.32-.01-.04-.03-.08-.04-.14-.12.09-.23.17-.34.25-.06.05-.09.1-.06.18.02.04.02.08.03.12.02.09.05.18.07.28Zm3.07-2.31s.04-.01.05-.02c.11-.08.21-.16.32-.23.05-.03.06-.08.04-.13-.03-.1-.05-.2-.08-.3-.01-.04-.02-.08-.04-.13-.03.01-.05.02-.06.03-.11.08-.22.16-.33.25-.02.01-.03.05-.02.08.03.14.06.27.1.41,0,.02.01.03.02.05Zm-1.61.64s-.04,0-.05.01c-.12.08-.23.17-.35.26-.02.01-.03.05-.02.08.03.14.07.28.1.42,0,.02,0,.04,0,.05.03-.01.04-.01.05-.02.12-.09.24-.17.36-.27.02-.02.03-.06.02-.09-.02-.11-.05-.22-.08-.33,0-.04-.02-.07-.03-.12Zm-2.45-2.03s.02.02.03.03c.03-.02.06-.04.09-.05.11-.05.22-.09.32-.14.23-.1.46-.2.69-.3.02-.01.04-.03.06-.05-.02-.02-.03-.02-.04-.02-.35.04-.7.09-1.04.14-.02,0-.05.03-.06.05-.02.11-.03.23-.05.35Zm4.08-2.7s0,0,.01.01c.01,0,.02-.01.03-.02.07-.08.14-.15.21-.23.25-.27.49-.54.74-.82.02-.02.03-.07.02-.09-.04-.07-.1-.12-.16-.2-.29.45-.57.9-.85,1.34Zm-.21,4.31c.07.03.13.05.18.07.04.02.08.02.11,0,.25-.19.5-.38.75-.57.02-.01.03-.03.05-.05-.06-.03-.12-.04-.17-.07-.05-.03-.08-.02-.12.01-.13.1-.26.19-.39.29-.14.1-.27.2-.42.32Zm-.12,6.57s0,.04,0,.06c.07.3.15.61.22.91.03.1.09.15.21.16,0,0,0-.01,0-.02-.08-.32-.15-.63-.23-.95-.03-.11-.06-.14-.21-.16Zm-1.91-4.83c-.11-.08-.16-.09-.25-.02-.19.14-.38.29-.58.43-.07.05-.13.1-.19.15.12.08.16.09.23.04.23-.17.46-.34.69-.52.03-.02.06-.05.09-.07Zm-.05-.63c-.02-.08-.03-.15-.05-.21-.01-.05,0-.07.03-.1.04-.03.09-.06.1-.1.03-.09.04-.2.06-.3.03-.16.07-.32.1-.48.02-.08.03-.16.05-.23-.08.15-.15.3-.21.45-.06.16-.12.33-.18.49-.04.11-.09.21-.13.32,0,.02,0,.06.01.06.06.03.11.05.2.08Zm1.21-.24c-.15-.08-.15-.08-.25,0-.19.15-.39.29-.59.44-.06.04-.12.09-.18.14.13.08.15.08.24.01.18-.14.37-.27.55-.41.07-.05.14-.11.22-.17Zm-.54,4.83c-.08.05-.14.1-.2.14-.09.05-.13.12-.08.23.02.05.03.1.04.16,0,.02.02.05.03.08.1-.07.19-.14.28-.21.01,0,.02-.03.01-.05-.02-.11-.05-.22-.08-.35Zm-.05,1.3s.02,0,.02.01c.09-.07.18-.13.27-.21.01-.01.02-.05.01-.07-.02-.09-.04-.17-.07-.26-.01-.05-.04-.06-.08-.03-.07.05-.14.1-.21.15-.02.01-.03.04-.03.05.02.12.05.23.07.35Zm.69-.22c-.11-.08-.14-.09-.22-.03-.11.08-.22.16-.33.25-.08.06-.16.12-.25.19.13.08.15.08.24.02.07-.05.13-.1.2-.15.12-.09.24-.18.37-.27Zm-.18-.71c-.08-.03-.14-.09-.2-.05-.19.14-.37.27-.55.41-.01,0-.02.02-.03.04.13.08.14.08.24,0,.05-.04.11-.08.16-.12.12-.09.25-.18.39-.29Zm-.2-5.86s0,.06.01.08c.03.11.06.22.08.33.01.1.06.14.15.18.1.03.11.03.09-.06-.03-.13-.06-.26-.1-.4,0-.02-.03-.04-.04-.05-.06-.03-.12-.05-.2-.08Zm2.26-.81c-.04-.18-.08-.35-.12-.51,0-.01-.02-.03-.03-.04-.07-.03-.13-.06-.21-.08,0,.02,0,.03,0,.03.04.16.07.31.11.47,0,.01.02.03.04.04.06.03.13.05.21.09Zm-3.06,2.29c-.04-.18-.08-.33-.12-.49,0-.01-.02-.03-.03-.04-.07-.03-.13-.05-.21-.09.04.18.08.34.12.5,0,.01.02.03.03.03.06.03.13.05.22.08Zm3.56-3.89s0-.01,0-.02c-.39-.08-.78-.15-1.17-.23,0,0-.01.02-.02.03-.04.1-.03.12.1.13.19.01.38.03.57.05.17.01.35.03.52.04Zm-1.62,1.52c-.14.03-.17.09-.14.21.01.04.02.08.03.12.02.09.04.18.07.29.04-.02.07-.04.09-.06.03-.02.07-.06.06-.08-.03-.16-.07-.32-.12-.48Zm-3.07,2.29s-.06.05-.09.06c-.06.03-.07.08-.05.15.03.12.06.24.09.36,0,.02.01.04.02.07.15-.07.17-.09.13-.24,0-.01,0-.02,0-.03-.03-.11-.06-.23-.09-.36Zm1.12-.23h.02s.09-.05.13-.09c0,0,0-.02,0-.02-.04-.15-.07-.3-.11-.46,0-.01-.03-.03-.04-.03-.06,0-.13.11-.12.17,0,.03.01.05.02.08.03.12.06.23.09.35Zm2.6-1.96c.16-.07.17-.1.13-.26,0-.02,0-.04-.01-.05-.03-.1-.05-.21-.08-.31-.15.06-.17.1-.13.24,0,.02,0,.05.02.08.03.1.05.21.08.31Zm-3.02,1.68s-.08.04-.11.06c-.05.03-.06.06-.05.12.04.12.06.25.09.38,0,.02.02.04.03.07.04-.03.08-.05.11-.08.02-.02.04-.05.03-.07-.03-.15-.07-.31-.11-.48Zm1.12-.23c.15-.06.17-.1.13-.24-.02-.1-.05-.2-.08-.31,0-.03-.02-.05-.03-.08-.16.08-.16.1-.12.26,0,.01,0,.02,0,.03.03.11.05.22.08.33Zm1.56-2.83c.14.04.28.08.42.12.16.05.31.1.46.15.02,0,.04,0,.06-.01-.01-.02-.02-.04-.04-.05-.02-.01-.04-.02-.06-.03-.23-.09-.45-.18-.68-.28-.14-.06-.14-.06-.17.08,0,0,0,0,0,.01Zm.16-.66c.38-.05.75-.1,1.12-.15,0,0,0-.01,0-.02-.02,0-.05,0-.07,0-.3,0-.61.02-.91.02-.14,0-.14,0-.14.13,0,0,0,0,0,.01Zm-3.17.27c-.36.08-.72.17-1.08.25,0,0,0,.01,0,.02.02,0,.05,0,.07,0,.31-.04.61-.08.92-.12.12-.02.12-.02.09-.15Zm4.26-.95s0-.01,0-.02c-.02,0-.04,0-.05,0-.31.07-.61.14-.92.21-.09.02-.1.04-.07.16.36-.12.71-.24,1.06-.35Zm-4.28,1.28c-.35.15-.69.3-1.04.45.02,0,.03,0,.05,0,.32-.1.64-.2.95-.3.08-.03.09-.05.04-.15Zm2.85.4s0,.08.02.1c.1.11.2.22.3.32.01.01.05.03.06.02.06-.04.11-.08.17-.13-.18-.1-.35-.2-.55-.31Zm.37-1.66c.34-.18.67-.36,1.01-.54-.03,0-.05,0-.07,0-.3.13-.6.26-.9.39-.07.03-.08.06-.04.15Zm-.34,1.61c.19.11.37.21.55.32.05.03.08.01.1-.02,0-.01-.02-.02-.03-.03-.17-.13-.34-.25-.51-.37-.01,0-.04,0-.05,0-.02.03-.04.06-.06.1Zm-3.76.54s.01.02.02.04c.02-.01.03-.03.05-.04.27-.14.54-.29.81-.43.07-.04.08-.06.02-.14-.3.19-.6.38-.91.58Zm4.06-2.45c.29-.22.58-.43.87-.65,0,0,0-.01-.01-.02-.01,0-.03.01-.04.02-.27.17-.53.34-.8.5-.05.03-.06.07,0,.14Zm-2,3.29s-.01,0-.02,0c-.08.28-.15.56-.24.86.13-.05.17-.1.18-.21,0-.12.03-.23.04-.35.01-.1.02-.2.04-.29Zm-1.92-.41s.02,0,.02,0c.27-.2.54-.39.81-.59.04-.03.05-.07,0-.13-.28.24-.55.48-.84.72Zm3.85-3.17c.24-.24.48-.47.72-.7,0,0-.01-.01-.02-.02,0,0-.02,0-.02.01-.23.2-.46.39-.69.59-.04.03-.03.07.01.12Zm-2.92,2.71c-.24.26-.47.52-.71.78,0,0,.01,0,.02.01.06-.05.11-.1.17-.16.18-.18.36-.35.54-.53.04-.04.02-.07-.02-.11Zm2.81-2.96c.22-.27.44-.55.65-.82,0,0-.01,0-.02-.01-.04.04-.07.08-.11.12-.18.2-.36.39-.54.59-.04.04-.03.07.01.12Zm-2.69,3.2c-.2.28-.4.56-.59.83l.02.02c.06-.07.12-.15.17-.22.14-.17.28-.34.42-.51.03-.04.03-.07-.03-.11Zm3.15-4.36s0,0-.01,0c-.04.06-.08.12-.13.18-.14.19-.27.37-.41.56-.03.04-.06.08-.09.13,0,.01.01.04.02.07.02,0,.04-.01.05-.02.03-.04.05-.08.08-.12.08-.13.16-.26.24-.39.08-.13.17-.26.25-.39Zm-1.93,10.86c.02.1.05.19.07.29.02.1.07.13.18.13,0,0,0-.01,0-.02-.02-.08-.04-.16-.06-.24-.03-.12-.05-.13-.19-.16Zm-1.33-5.15s.01,0,.02,0c.02-.05.05-.1.07-.15.05-.1.11-.2.16-.3.05-.1.1-.2.15-.31.03-.06.06-.12.08-.18,0,0,0-.03-.01-.04-.02,0-.04,0-.05.01-.02.03-.04.06-.05.1-.07.16-.13.32-.2.48,0,.01-.01.02-.02.03-.05.12-.1.23-.15.35Zm2.61-1.93q-.08.12.03.22c.07.06.14.13.21.19.02.01.05.02.07,0,.03-.01.04-.04,0-.07-.05-.05-.09-.1-.14-.15-.06-.06-.11-.12-.18-.19Zm-2.32.79c-.08.04-.52.82-.53.91.05-.08.1-.15.15-.23.06-.09.12-.19.17-.28.07-.11.14-.22.2-.33,0-.02,0-.04,0-.08Zm1.22,7.02c.03.12.05.23.08.35,0,0,.01.02.02.02.04.02.09.04.15.06-.02-.1-.05-.19-.07-.28-.03-.11-.05-.12-.18-.15Zm-1.32-5.46s0,0,0,0c.11-.28.22-.56.33-.84.05-.12.09-.25.13-.37,0-.02,0-.04,0-.06-.02.01-.05.02-.05.04-.08.23-.15.47-.23.7-.06.18-.12.35-.18.53Zm.54,5.15c-.1.02-.12.05-.1.13.01.05.02.1.04.15.01.05.03.1.04.15.11-.04.12-.06.09-.16-.02-.09-.04-.18-.07-.28Zm.68.75s.02,0,.03.01c.03-.03.08-.06.07-.1-.02-.11-.05-.23-.08-.34,0,0-.02,0-.03-.01-.03.03-.08.07-.07.1.01.11.05.23.08.34Zm-.5-.04c-.11.05-.12.06-.1.15.02.07.03.15.05.22,0,.02.02.04.03.06,0,0,.02,0,.02.01.02-.03.07-.06.07-.1-.01-.11-.05-.23-.08-.35Zm.32-.67s.02,0,.03.01c.03-.03.08-.06.07-.1-.01-.11-.05-.23-.07-.34-.1.02-.12.05-.1.13,0,.03.01.05.02.08.02.07.03.14.05.21Zm-.63-5.43s.02,0,.03,0c.03-.13.05-.25.09-.38.05-.18.1-.36.15-.55,0-.02,0-.04-.01-.06-.02.01-.04.02-.05.04-.02.1-.04.2-.07.3-.05.21-.1.42-.15.63Zm2.08-1.54s.06-.04.09-.06c.05-.03.05-.05,0-.1-.09-.08-.18-.16-.27-.24,0,0-.01,0-.02.01.01.14.14.24.2.38Zm-1.73,1.32c.06-.05.17-.64.14-.76-.02.03-.04.05-.05.07-.02.13-.04.26-.06.38-.01.09-.02.19-.03.3Zm1.49-1.61s-.03.03-.04.04c-.05.03-.05.07,0,.12.05.05.09.11.13.17.01.01.06.03.06.03.02-.02.04-.05.03-.07-.05-.1-.12-.19-.18-.29Zm-1.24.93s-.02,0-.03,0c-.03.19-.06.38-.1.59.08-.03.13-.06.12-.14,0-.05,0-.11,0-.16,0-.1,0-.19,0-.29Zm.15-.09c-.06-.01-.09,0-.09.05,0,.1,0,.2,0,.3,0,.05,0,.11,0,.17.02-.01.04-.01.04-.02.02-.17.03-.33.05-.5Zm.82-.53s.01.06.02.09c.02.04.04.08.07.12.01.02.04.03.06.04.01-.02.04-.05.03-.07-.02-.06-.05-.12-.08-.18,0-.02-.04-.05-.05-.05-.02,0-.04.03-.06.04Zm-.63.86c.06-.03.07-.3.03-.4-.05,0-.07.02-.07.07,0,.08.01.16.02.24,0,.03,0,.06.01.1Zm.51-.38c.08-.05.05-.24-.03-.34-.02.03-.06.05-.06.08.02.08.06.17.09.26Zm.28-.64s-.02,0-.03,0c0,.11.08.2.12.31.04-.03.12-.03.08-.1-.05-.08-.11-.15-.17-.22Zm-.51.47c-.07.02-.09.05-.08.11.02.06.02.11.04.17,0,.02.03.04.04.06.01-.02.04-.04.04-.06,0-.09-.03-.18-.04-.28Zm-.74,6.13c-.06.05-.13.09-.19.14-.01.01,0,.04-.01.07.02,0,.05,0,.06-.01.05-.04.1-.08.16-.11.04-.03.03-.05-.02-.08Zm-.48-4.04s-.01,0-.02.01c0,.03.02.07.03.12.04-.03.06-.05.1-.07-.05-.02-.08-.04-.12-.05Z"/>
        <path class="cls-6" d="m160.31,123.29s-.06-.04-.1-.06c0,0-.02,0-.03-.01-.04-.1-.14-.09-.21-.14-.11-.07-.2-.06-.28.02-.05.05-.12.09-.19.14,0,0-.01.01-.03.02-.01-.04-.03-.07-.03-.1-.03-.11-.06-.21-.08-.32,0-.05-.03-.07-.07-.08-.08-.03-.15-.06-.22-.09.02-.19.03-.38.04-.57,0,0,.01,0,.02,0,.02.15.03.3.05.46.06-.04.11-.07.15-.11.01-.01.02-.03.02-.05,0-.12,0-.23-.01-.35,0-.02,0-.04,0-.06,0,0,.01,0,.02,0,.03.11.06.23.09.36.06-.04.11-.07.15-.11.01,0,.01-.03.01-.05-.01-.09-.02-.17-.04-.26,0-.03,0-.05,0-.08,0,0,.02,0,.02,0,.04.09.07.19.12.3.06-.04.1-.07.14-.11.01-.01.01-.04,0-.06-.02-.09-.05-.17-.07-.26,0-.02,0-.05,0-.08,0,0,.01,0,.02,0,.02.03.03.05.05.08.11.17.17.35.19.53.02.19.11.29.31.34.07.02.12.02.17-.02.27-.21.55-.41.82-.61.04-.03.05-.06.04-.1-.04-.17-.08-.34-.12-.51-.01-.05-.03-.07-.08-.09-.05-.02-.11-.04-.17-.07.02-.02.03-.03.04-.04.08-.07.07-.08-.02-.14-.17-.12-.35-.24-.52-.36-.02-.01-.02-.05-.03-.08.02,0,.05-.01.07,0,.24.08.49.16.73.23.05.02.11.03.17.04.02,0,.04,0,.05-.01.03-.02.06-.05.1-.08-.34-.15-.68-.3-1.01-.45,0-.05.02-.07.07-.06.38.03.76.06,1.14.09.09,0,.18.02.27.02.05,0,.1-.02.14-.03v-.04c-.09-.02-.16-.04-.24-.05-.16-.03-.31-.06-.47-.09-.18-.03-.35-.07-.53-.1-.09-.02-.18-.04-.28-.05-.01,0-.03-.02-.03-.03,0-.02.01-.04.02-.04.02-.01.05-.01.08-.02.5-.07.99-.13,1.49-.19.1-.01.1-.01.12.08.19.77.37,1.54.56,2.3.21.84.41,1.69.62,2.53.23.93.45,1.85.68,2.78.13.54.26,1.08.4,1.63.15.6.3,1.21.45,1.81.11.46.22.92.33,1.37.15.63.31,1.25.46,1.88.13.54.26,1.08.4,1.63.08.32.16.64.24.96.05.19.01.37-.04.54-.07.21-.14.41-.28.58-.09.1-.19.19-.3.27-.62.46-1.24.93-1.86,1.39-.58.43-1.16.86-1.74,1.29-.17.12-.34.25-.5.37-.11.08-.24.11-.39.1-.18-.02-.37-.17-.41-.34-.14-.55-.27-1.1-.4-1.65-.15-.6-.3-1.2-.44-1.8-.12-.48-.23-.96-.35-1.43-.18-.73-.36-1.46-.54-2.19-.12-.49-.24-.98-.36-1.47-.13-.53-.26-1.06-.39-1.59-.09-.38-.18-.76-.27-1.14-.11-.47-.23-.94-.35-1.41-.14-.59-.28-1.17-.43-1.76-.12-.51-.25-1.02-.38-1.53,0-.03-.01-.07-.03-.12.08.03.14.06.21.09,0,0,.01.02.02.03.08.35.17.7.25,1.05.12.51.25,1.02.37,1.52.05.2.1.4.15.61,0,.04.03.06.07.07.07.02.14.06.2.08.04.01.09.02.13.03.02,0,.04.02.07.04-.08.06-.14.11-.21.16-.03.02-.04.05-.03.09.03.12.06.24.08.36.01.06.04.09.1.11.04.01.09.03.15.06-.05.04-.1.07-.13.11-.02.02-.03.05-.02.07.03.13.06.25.09.38,0,.03.04.06.07.07.07.03.14.06.23.1-.06.04-.1.08-.14.11-.04.03-.05.05-.04.1.09.36.17.72.26,1.07,0,.03.04.06.07.07.15.08.27.1.41,0,.38-.31.78-.59,1.17-.88.03-.02.03-.04.03-.08,0-.05.03-.09.05-.13,0,0,.02,0,.03,0-.04-.03-.07-.05-.11-.08,0,0-.01,0-.02.01-.01-.07-.08-.15.02-.21.01,0,.02-.04,0-.05-.02-.02-.05-.04-.08-.05-.07-.1-.06-.14,0-.21.02-.03,0-.08-.04-.09-.02,0-.04,0-.06,0-.01-.08-.08-.16.03-.21.03-.01,0-.07-.04-.09-.1-.04-.21-.08-.31-.12-.04-.02-.07-.02-.1,0-.14.1-.27.2-.42.31-.01-.03-.03-.06-.04-.09-.03-.11-.06-.22-.08-.33-.01-.06-.04-.09-.1-.11-.04-.01-.08-.03-.14-.06.05-.04.09-.07.12-.1.02-.02.03-.05.03-.08-.03-.13-.06-.25-.09-.38,0-.02-.01-.04-.03-.05-.1-.04-.19-.11-.3-.1-.03-.03-.03-.06,0-.08.04-.03.07-.06.11-.08.03-.03.06-.05.12-.01.05.03.09,0,.08-.05-.02-.06,0-.1.06-.13.03-.02.06-.04.09-.06.03-.02.05-.03.09,0,.05.03.11,0,.09-.06-.01-.05,0-.08.04-.11.05-.04.1-.07.16-.11.01.01.02.03.04.03.03,0,.06,0,.08,0,0,0,.01-.04,0-.05-.02-.05,0-.09.04-.11.03-.02.06-.04.09-.07.03-.03.06-.05.12-.01.04.03.09,0,.08-.05-.02-.07.01-.1.06-.14.03-.02.06-.04.09-.06.03-.02.05-.04.1,0,.02.01.05.01.07,0,.01,0,.01-.04,0-.06-.01-.04,0-.07.03-.09.06-.04.11-.08.17-.12.01.01.02.02.03.03.03,0,.06.01.08,0,.01,0,.02-.04.01-.06-.01-.05,0-.08.04-.1.02-.01.04-.03.03-.05-.01-.07,0-.12.05-.16,0,0-.04-.08-.06-.08-.05,0-.05-.03-.06-.06,0-.04-.01-.08-.03-.12-.03-.07-.02-.13.08-.17-.04-.03-.08-.05-.11-.08-.02-.01-.04-.03-.04-.05-.02-.04-.02-.09-.03-.14-.01-.05-.02-.1.03-.13.01,0,.02-.05.01-.06-.02-.02-.05-.04-.08-.06,0,0,0,0-.01.01-.02-.07-.04-.15-.05-.22,0-.02.01-.05.02-.07,0-.02.04-.06.03-.07-.02-.03-.06-.04-.11-.07-.01-.06-.04-.14-.05-.22,0-.02.01-.05.03-.06.05-.04.04-.09-.02-.11-.05-.01-.06-.04-.07-.08,0-.04-.02-.08-.03-.12-.02-.05-.02-.09.03-.13.04-.03.02-.09-.04-.1-.02,0-.05-.02-.05-.03-.02-.07-.04-.14-.05-.21,0-.02.02-.05.03-.07.04-.04.03-.1-.04-.11-.05,0-.05-.03-.06-.06,0-.04-.02-.08-.03-.12-.03-.07-.02-.13.06-.15,0,0,0-.01,0-.02Zm2.08,16.93c.03-.14.03-.25,0-.36-.13-.52-.25-1.03-.38-1.55-.13-.54-.26-1.07-.39-1.61-.06-.25-.12-.51-.19-.76-.04-.16-.18-.2-.3-.11-.18.13-.35.26-.52.39-.16.12-.22.29-.17.49.12.49.24.98.36,1.47.2.81.4,1.62.59,2.43.04.18.17.28.35.15,0,0,0,0,.01,0,.15-.11.31-.22.46-.34.08-.06.13-.14.18-.19Zm2.51-7.05c-.1-.03-.16-.02-.21.02-.19.14-.38.27-.56.42-.14.11-.18.28-.14.46.06.27.14.55.2.82.09.38.18.76.28,1.13.13.51.25,1.02.38,1.54.04.16.07.31.12.47.04.15.18.19.29.11.18-.13.36-.26.53-.4.16-.12.21-.29.16-.5-.16-.66-.32-1.33-.48-1.99-.13-.52-.25-1.03-.38-1.55-.03-.14-.07-.28-.11-.42-.01-.05-.06-.09-.08-.12Zm-1.68,5.07s.01,0,.02,0c0-.08.02-.16,0-.25-.04-.22-.1-.44-.16-.66-.14-.57-.28-1.14-.42-1.71-.05-.2-.1-.4-.15-.6-.03-.14-.14-.19-.27-.14-.03.01-.05.03-.07.05-.12.09-.24.17-.36.27-.09.08-.17.17-.16.31,0,.1.01.2.04.3.13.56.27,1.12.41,1.68.09.36.18.73.27,1.09.02.07.04.14.13.18.09.03.15,0,.22-.05.1-.07.2-.15.29-.22.09-.07.19-.14.2-.27Zm-.36-3.7s-.03.1-.02.14c.03.17.07.34.11.51.11.47.23.95.35,1.42.09.37.18.75.28,1.12.04.15.18.22.3.13.14-.1.28-.2.42-.31.13-.11.18-.26.14-.44-.07-.31-.15-.61-.22-.92-.13-.55-.27-1.1-.4-1.65-.03-.14-.06-.27-.1-.41-.04-.14-.16-.19-.28-.12-.02.01-.04.02-.06.04-.11.08-.23.16-.34.25-.08.06-.15.12-.17.22Zm1.02-7.03c-.08.05-.16.1-.23.14-.03-.06-.02-.1.02-.12.05-.03.09-.06.13-.1.02-.02.04-.05.04-.07,0-.06-.03-.11-.05-.18-.08.05-.15.1-.21.14-.05-.08-.1-.16-.15-.24-.06-.09-.15-.12-.24-.09-.14.06-.26.15-.3.3-.02.06-.02.12-.04.18-.13-.05-.22.01-.29.09-.11.12-.15.27-.13.44.02.12,0,.21-.12.26-.01,0-.02.01-.03.02-.08.06-.07.18.02.26.04-.03.09-.07.13-.1.02-.01.04,0,.07-.01,0,.03,0,.07,0,.09-.02.03-.06.06-.1.08-.1.05-.1.13-.06.22.02.05.04.06.07.03.04-.03.08-.06.12-.09.05-.03.06-.03.08.04.02.09.05.17.07.26.14-.04.17-.1.16-.23,0-.05-.01-.12.02-.14.2-.16.41-.31.62-.47.03-.02.05-.02.06.03,0,.04.03.08.04.12.2-.07.21-.08.16-.27,0,0,0-.02,0-.03-.05-.12-.03-.21.09-.27.03-.01.05-.03.07-.06.01-.01.02-.04.02-.06,0-.05-.03-.11-.04-.18Zm-1.85,3.42c-.02-.09-.05-.15-.05-.22,0-.03.01-.08.03-.09.12-.1.25-.19.38-.28.02-.01.04-.04.04-.06-.01-.08-.04-.16-.06-.26-.04.02-.06.03-.09.05-.11.08-.22.16-.33.24-.02.01-.04.02-.06.02-.08-.03-.16-.07-.24-.11-.06-.04-.09-.03-.13,0-.16.12-.33.25-.5.37-.09.06-.13.13-.08.24.01.03.01.06.02.09.04.08,0,.14-.06.18-.06.04-.13.07-.15.12-.02.05.02.13.04.2,0,.02.02.04.03.06.02,0,.04-.01.06-.02.06-.04.12-.08.19-.13.02.08.03.15.05.21.02.06,0,.09-.04.11-.06.04-.12.08-.17.13-.01,0-.02.03-.02.05.01.06.03.13.05.19.01.05.03.06.07.03.06-.05.12-.09.19-.14.01.05.02.09.03.12.05.11.02.2-.08.25-.13.06-.15.15-.09.28,0,.01,0,.02,0,.03.01.05.04.06.08.03.08-.06.16-.11.23-.18.04-.04.09-.04.14,0,.06.03.1.02.15-.01.18-.14.36-.27.54-.4.05-.04.07-.08.05-.14-.02-.05,0-.08.03-.11.13-.09.26-.19.38-.29.02-.01.04-.04.03-.06-.02-.08-.04-.16-.06-.25-.16.12-.31.23-.47.35-.02-.09-.04-.16-.05-.22,0-.03,0-.07.03-.09.13-.1.26-.19.39-.29.02-.01.04-.04.03-.06-.01-.08-.04-.15-.06-.25-.16.12-.31.22-.47.35Zm.58-4.25c.02.06.02.09.03.12.01.02.04.04.06.05.04,0,.06-.02.05-.06,0-.03-.01-.06-.02-.09-.03-.1.03-.18.14-.2q.08.16.16.13c-.02-.07-.06-.15-.04-.21.01-.06.09-.09.13-.14,0,0,.02,0,.02.01.02.05.04.1.05.15.09,0,.11-.03.08-.1-.01-.03-.02-.06-.02-.1,0-.03.01-.07.03-.09.04-.04.1-.07.15-.12.01-.01.03-.04.02-.06-.08-.34-.16-.68-.25-1.02,0-.02-.03-.05-.06-.06-.09-.04-.18-.07-.26-.11-.06-.04-.09-.02-.14,0-.39.29-.78.58-1.17.87-.04.03-.06.07-.04.12.02.09.05.18.07.28-.06,0-.11-.06-.16-.02-.07.06-.14.11-.22.16-.04.03-.06.07-.04.13.05.21.1.42.16.63,0,.03.04.06.06.07.18.08.18.08.32-.02,0,0,.02-.01.03-.02.09-.11.21-.13.36-.04.05.03.09.02.12-.01.03-.02.07-.04.11-.07.02.05.02.09.04.12.01.02.05.04.08.04.01,0,.03-.03.03-.05,0-.04-.02-.09-.03-.13,0-.02,0-.05,0-.07.04-.04.09-.07.14-.11Zm-1.33,8.36c.09-.18.12-.39.11-.6-.01-.21-.05-.41-.19-.6-.1-.14-.25-.22-.4-.25-.15-.03-.29.01-.41.08-.28.15-.44.39-.56.67-.05.1-.06.22-.09.33-.07.29-.06.58.08.88.12.24.33.39.6.37.2-.01.35-.1.49-.23.19-.18.32-.39.39-.65Zm3.09-3.78s-.08-.03-.12-.05c-.04-.02-.08-.02-.11,0-.41.31-.82.61-1.23.92-.02.02-.04.07-.03.1.07.26.14.52.21.78.02.07.28.18.34.14,0,0,0,0,.01,0,.06-.05.12-.09.18-.14.35-.26.71-.53,1.06-.79.03-.03.05-.05.03-.1-.06-.22-.12-.45-.16-.67-.02-.11-.06-.19-.17-.21Zm-3.2-8.15s0,0,0,0c.03.01.06.03.1.04.02,0,.05,0,.07,0,.22-.16.44-.33.66-.49.02-.01.02-.05.02-.07-.02-.09-.06-.18-.06-.27,0-.15-.1-.22-.25-.26-.06-.02-.09-.01-.14.02-.2.15-.41.3-.61.46-.02.02-.04.06-.03.09.03.13.06.26.09.39,0,.02.04.05.06.07.02.02.06.02.08.04Zm.46,1.94c.09.03.15.08.22.02.21-.16.42-.31.63-.47.02-.01.03-.04.02-.07-.02-.09-.05-.17-.06-.26-.02-.14-.09-.22-.24-.27-.05-.01-.09-.02-.13.01-.21.16-.42.31-.62.47-.02.02-.03.06-.03.09.02.1.05.2.07.3.02.09.05.16.13.17Zm-1.76,6.05c-.1-.08-.17-.04-.24.02-.18.15-.37.28-.56.42-.03.02-.04.04-.03.08.03.13.06.25.1.38,0,.02.03.05.06.07.06.03.12.05.17.07.02,0,.06,0,.08,0,.22-.16.44-.32.65-.49.02-.01.02-.04.02-.06-.02-.1-.05-.2-.07-.31-.02-.1-.05-.17-.17-.18Zm2.17-8.01c-.1-.08-.17-.04-.25.02-.18.14-.36.28-.55.41-.04.03-.05.06-.04.1.02.07.04.15.06.23.05.2.05.2.25.28.04.02.07.02.11,0,.21-.16.42-.31.63-.48.02-.02.03-.06.02-.09-.02-.1-.05-.2-.07-.29-.01-.1-.05-.16-.16-.17Zm.11-2.09c-.08-.06-.13-.03-.19.02-.06.05-.12.1-.19.14-.04.03-.05.06-.04.11.05.21.1.43.16.64,0,.03.05.07.08.09.03.02.07.04.1.04.03,0,.07,0,.09-.01.08-.05.15-.12.23-.17.04-.03.05-.06.04-.11-.05-.2-.1-.4-.15-.61-.02-.08-.05-.13-.15-.15Zm-2.43,11.61s.01-.06,0-.08c-.01-.04-.03-.08-.06-.11-.02-.01-.07.01-.1.03-.05.03-.09.06-.13.09-.06.04-.1.09-.07.18.01.03.03.07.05.09.02.01.07,0,.09-.02.06-.04.11-.08.16-.12.02-.02.04-.05.06-.07Zm.46-.38c-.1.11-.19.21-.28.31-.03.03-.04.08.01.12.11-.04.21-.08.31-.12.02-.01.03-.05.05-.09-.04,0-.05,0-.05,0-.02,0-.06,0-.06,0,0-.02,0-.05,0-.07,0-.01.02-.03.03-.04.04-.03.03-.06-.01-.1Zm-.59,1.26s.01-.07,0-.1c0-.09.03-.12.12-.12.03,0,.07,0,.1,0,.06,0,.09-.02.07-.08-.02-.05-.03-.1-.04-.16-.07-.01-.08.01-.07.07.02.05,0,.08-.06.07-.07-.01-.12.02-.16.06-.07.07-.07.18.02.26Zm.15.27c.05-.06.09-.11.13-.16.03-.04.06-.08.08-.12.01-.03,0-.08-.05-.07-.08.01-.15.05-.22.08-.01,0-.01.04-.02.05.02,0,.04.02.06.02.02,0,.04,0,.06-.01.01.09-.15.1-.05.22Zm.41-.47s.02,0,.02.01c.01-.02.03-.04.04-.06.03-.05.07-.1.14-.1.04,0,.06-.02.05-.06,0-.03-.01-.06-.02-.09,0-.02-.02-.03-.04-.05-.01.01-.04.03-.04.04,0,.07-.05.1-.09.12-.03-.02-.06-.04-.08-.06-.01.02-.03.04-.03.06.01.06.03.12.05.17Zm-.43-.4c.06,0,.09-.02.07-.07,0-.01-.04-.04-.05-.03-.04.02-.05.05-.03.1Zm.6-.15s-.03-.05-.04-.07c-.02.01-.05.02-.05.03,0,.02,0,.04.02.07.02,0,.04-.02.08-.03Z"/>
        <path class="cls-7" d="m161.56,141.32c.1-.05.19-.09.27-.14.31-.22.61-.45.92-.68.58-.43,1.16-.86,1.74-1.3.46-.34.91-.68,1.36-1.02.11-.08.22-.17.32-.26.07-.07.12-.16.17-.25.05-.1.09-.2.13-.3.11-.27.12-.56.03-.87-.17-.62-.31-1.25-.46-1.87-.24-.98-.48-1.96-.72-2.94-.18-.72-.35-1.43-.53-2.15-.15-.61-.3-1.21-.44-1.82-.21-.87-.42-1.73-.63-2.6-.18-.74-.36-1.48-.55-2.23-.21-.84-.41-1.69-.62-2.53-.11-.44-.22-.88-.33-1.32-.08-.32-.15-.64-.24-.96-.13-.47-.34-.91-.7-1.29-.04-.05-.09-.09-.14-.14-.01-.01-.03-.03-.05-.05.03,0,.04,0,.06,0,.38.14.7.37.95.68.22.28.38.58.48.9.1.33.18.65.26.98.13.51.25,1.03.38,1.54.09.36.18.72.26,1.09.1.42.21.83.31,1.25.11.46.22.92.33,1.37.12.49.24.98.36,1.47.08.35.17.69.25,1.04.11.44.22.87.32,1.31.09.36.18.72.26,1.08.11.44.22.88.32,1.32.16.64.31,1.28.47,1.92.16.65.32,1.3.48,1.95.16.67.33,1.34.49,2.01.03.14.06.28.1.42.05.18.04.35,0,.51-.05.17-.12.34-.2.5-.09.17-.23.29-.38.41-.53.39-1.06.78-1.58,1.17-.67.5-1.33.99-2,1.49-.18.13-.35.26-.53.39-.17.13-.36.15-.59.05-.1-.04-.2-.08-.29-.12-.02-.01-.05-.02-.07-.03Z"/>
        <path class="cls-9" d="m159.8,123.11c.02.07.04.13.05.2.15.61.3,1.23.45,1.84.08.34.17.68.25,1.02.01.06,0,.1-.05.13-.58.43-1.16.86-1.74,1.29-.19.14-.39.29-.58.43-.02.02-.05.04-.09.06-.02-.08-.04-.15-.06-.21-.17-.68-.33-1.36-.5-2.04-.07-.27-.13-.54-.2-.81-.01-.06,0-.1.05-.13.28-.21.57-.42.85-.63.5-.37,1.01-.75,1.51-1.12.01,0,.03-.02.05-.03Z"/>
        <path class="cls-6" d="m160.26,118.03c-.13-.09-.23-.17-.35-.23-.28-.14-.56-.13-.83-.04-.33.11-.59.32-.8.57-.11.13-.2.27-.3.4-.03.04-.05.08-.07.13-.12.25-.24.5-.3.78-.03.13-.05.26-.07.38,0,.04-.03.06-.07.07-.32.07-.65.15-.97.22-.02,0-.06,0-.07,0-.01-.02-.02-.05-.02-.08.03-.14.07-.29.11-.43.06-.23.13-.46.21-.68.06-.17.15-.34.23-.5.04-.09.08-.18.13-.27.06-.11.13-.22.2-.33.03-.04.05-.09.08-.13.27-.41.6-.77,1-1.07.32-.24.67-.43,1.08-.51.25-.05.51-.06.78-.01.2.04.39.11.57.2.12.06.22.15.32.23.01.01.02.05.01.06-.1.15-.2.29-.31.44-.07.1-.15.2-.22.3-.08.11-.15.21-.23.32-.05.06-.09.13-.14.19Zm-3.2,1.69s0-.02,0-.03c.07,0,.14-.02.22-.02.1,0,.16-.04.18-.13.01-.06,0-.08-.07-.1-.15-.04-.29-.08-.44-.12-.02,0-.06,0-.06,0-.02.03-.03.06-.02.09,0,.02.05.03.09.04.07.03.14.05.21.07,0,0,0,.01,0,.02-.09,0-.19.02-.28.02-.06,0-.09.03-.1.09,0,.02,0,.05,0,.07-.01.05.02.06.06.07.15.04.29.08.44.12.08.02.07-.04.08-.07.02-.04-.02-.05-.06-.06-.08-.02-.15-.05-.23-.08Zm3.29-2.06c.04-.08.09-.15.12-.22.06-.15.11-.31.16-.46.05-.15.05-.15-.12-.22-.06-.02-.1-.02-.13.02-.02.02-.04.05-.05.08-.04.12-.08.24-.13.36-.02.05-.05.1-.07.15-.03.1,0,.16.07.22.05.03.1.05.15.08Zm-2.16.56s-.01,0-.02-.01c.06-.08.03-.16-.02-.24-.05-.09-.1-.17-.15-.26-.05-.08-.11-.1-.17-.05-.04.03-.08.06-.1.1-.05.09-.11.17-.04.29.06.1.12.21.18.31.05.07.12.09.18.04.06-.06.1-.12.15-.18Zm.3-.28c.05-.04.11-.08.15-.12.08-.07.09-.17.06-.29-.03-.1-.05-.2-.08-.31,0-.03-.02-.07-.04-.1-.03-.05-.08-.07-.13-.05-.06.03-.12.07-.17.12-.01.01,0,.06,0,.09.02,0,.05,0,.07-.01.04-.02.07-.05.12-.09.03.13.06.23.09.34.04.12.03.21-.08.26-.01,0-.02.02-.03.03-.04.04-.03.08.02.12Zm1.23-1.26s.01,0,.02,0c.01.04.03.08.03.12-.01.1-.04.2-.06.3,0,.03,0,.06-.01.09,0,.06,0,.13-.09.15-.02,0-.03.05-.02.07,0,.01.03.04.05.04.05,0,.1.01.15,0,.02,0,.05-.03.06-.05,0-.01-.01-.05-.03-.06-.04-.02-.03-.05-.03-.08.02-.09.04-.18.05-.27.02-.08.03-.16.05-.24,0-.01.01-.04.02-.04.08,0,.05-.07.06-.11-.15-.05-.23-.03-.25.06Zm-2.51,2.1c.05-.08.05-.08.13-.01.05.04.1.09.16.13.06.04.09.08.06.14,0,.02.02.05.03.07.02-.01.05-.02.06-.04.03-.05.06-.1.08-.15.01-.02.03-.05.03-.07,0-.02-.02-.05-.03-.07,0,0-.05,0-.06.02-.02.03-.05.03-.08,0-.08-.06-.16-.13-.23-.2-.02-.02-.02-.05-.02-.08.01-.04,0-.07-.04-.09,0,0-.01,0-.02,0-.05.08-.1.17-.14.26-.02.04,0,.07.06.08Zm2-1.4c0-.23,0-.45-.01-.68-.11,0-.11.06-.11.12,0,.16,0,.33.01.49,0,.07.01.15-.09.16-.02,0-.03.05-.04.08,0,0,.04.04.04.03.1-.03.21-.07.3-.11.02-.01.02-.06.03-.09-.03,0-.06,0-.09,0-.01,0-.02,0-.05,0Z"/>
        <path class="cls-9" d="m158.99,131.09s-.02-.05-.03-.07c-.08-.31-.15-.63-.23-.94-.01-.05,0-.08.04-.11.39-.29.79-.58,1.18-.88.02-.01.03-.02.06-.04.01.05.03.09.04.13.07.3.15.6.22.9,0,.03,0,.06-.02.08-.4.3-.8.6-1.2.89-.01,0-.03.02-.05.03Z"/>
        <path class="cls-6" d="m160.46,120.46c-.02.07-.04.15-.08.22-.06.12-.11.24-.18.35-.07.12-.13.23-.22.34-.24.3-.52.55-.91.67-.27.09-.55.06-.82-.09-.14-.08-.26-.2-.35-.33-.22-.32-.3-.66-.32-1.01,0-.16,0-.32,0-.48.01-.16.03-.32.08-.46.09-.26.18-.53.3-.78.08-.17.2-.33.32-.47.12-.14.25-.27.4-.38.2-.16.43-.26.71-.28.36-.02.74.18.95.53.18.31.26.63.28.95,0,.17.01.34,0,.51-.03.24-.1.48-.15.72,0,0-.01,0-.02,0Zm-2.64-1.06c-.02.1-.05.2-.07.29-.02.1-.06.2-.06.31,0,.23-.02.46,0,.69.02.28.11.56.3.81.18.26.43.41.74.43.29.03.53-.08.74-.22.35-.23.58-.54.76-.9.12-.23.21-.48.26-.74.02-.08.04-.16.04-.24,0-.22.02-.45,0-.67-.03-.31-.12-.61-.33-.88-.16-.2-.36-.33-.6-.38-.26-.05-.48.01-.69.12-.38.19-.63.49-.84.84-.1.17-.17.36-.25.54Z"/>
        <path class="cls-9" d="m158.14,128.14c.14-.11.26-.2.39-.29.31-.23.62-.46.93-.7.37-.27.73-.55,1.1-.82.02-.02.07-.02.09-.01.06.02.12.05.2.08-.07.06-.13.1-.19.15-.64.47-1.27.95-1.91,1.42-.11.08-.22.16-.32.24-.03.03-.07.03-.11,0-.06-.03-.12-.05-.19-.08Z"/>
        <path class="cls-9" d="m159.87,123.09c.08.03.15.06.21.09.02,0,.04.03.04.05.14.57.28,1.14.42,1.71.11.44.22.88.32,1.32,0,.02,0,.05.02.08-.09-.03-.16-.06-.24-.1-.01,0-.02-.03-.02-.05-.16-.65-.32-1.31-.48-1.96-.09-.35-.17-.71-.26-1.06,0-.02,0-.04-.01-.07Z"/>
        <path class="cls-6" d="m156.89,124.21c-.02-.14-.13-.29-.04-.43.05-.09.11-.18.17-.26.08-.13.17-.26.25-.39.11-.18.23-.35.34-.53.06-.09.12-.19.18-.29.06-.09.12-.18.17-.27.03-.04.05-.08.08-.12,0,0,.01,0,.02.01-.02.04-.04.08-.06.12-.02.05-.04.09-.06.14-.09.2-.18.41-.27.61-.06.13-.11.26-.17.38-.07.16-.13.32-.2.48-.04.1-.09.21-.14.31-.02.03-.05.06-.08.08-.06.05-.13.1-.2.15Z"/>
        <path class="cls-6" d="m162.2,119.11c.04.17.08.32.11.47,0,.04-.01.05-.05.05-.32,0-.65.01-.97.02-.17,0-.34,0-.5.01-.03,0-.06,0-.1-.03.49-.19,1-.35,1.51-.52Z"/>
        <path class="cls-6" d="m157.89,121.76c-.36.64-.73,1.29-1.09,1.93-.02-.01-.03-.02-.03-.02-.03-.14-.08-.27-.1-.41,0-.05.05-.1.08-.14.1-.13.21-.27.32-.4.13-.16.26-.31.39-.47.1-.12.2-.25.3-.38.03-.04.07-.08.11-.13,0,0,.01,0,.02.01Z"/>
        <path class="cls-6" d="m160.7,119.29c.45-.24.91-.48,1.37-.73.04.15.07.28.09.41,0,.02-.03.05-.06.05-.27.06-.54.12-.81.19-.16.04-.33.08-.49.11-.03,0-.06,0-.09.01,0-.01-.01-.02-.02-.03Z"/>
        <path class="cls-6" d="m157.76,121.52c-.36.51-.73,1.02-1.1,1.53,0,.01-.03.01-.05.02-.03-.13-.06-.25-.08-.37,0-.02.02-.06.04-.08.36-.36.73-.71,1.09-1.07.02-.02.05-.04.08-.06,0,0,.01,0,.02.01Z"/>
        <path class="cls-6" d="m160.67,118.99c.42-.31.83-.62,1.25-.93,0,0,.02,0,.02.01.03.12.06.23.08.35,0,.02-.02.04-.04.05-.23.1-.46.2-.7.3-.18.08-.36.16-.54.23-.02,0-.05,0-.07.01,0,0,0-.02-.01-.02Z"/>
        <path class="cls-6" d="m157.65,121.28c-.38.42-.76.84-1.14,1.26-.01-.01-.03-.02-.03-.03-.02-.11-.05-.22-.07-.33,0-.02.02-.05.04-.06.38-.29.77-.57,1.16-.86,0,0,.01,0,.02,0,0,0,.02.01.02.02Z"/>
        <path class="cls-6" d="m160.62,118.69c.38-.37.75-.73,1.14-1.12.05.12.09.22.12.32,0,.01-.01.04-.03.05-.38.24-.76.49-1.15.73-.02.01-.05.02-.07.03,0,0,0-.01-.01-.02Z"/>
        <path class="cls-6" d="m156.38,122c-.01-.09-.02-.17-.03-.26-.02-.09.02-.15.1-.19.36-.18.71-.37,1.06-.56.02,0,.04-.01.06,0-.38.35-.78.69-1.17,1.03,0,0-.02,0-.03-.01Z"/>
        <path class="cls-9" d="m159.05,131.13c.07-.06.15-.11.22-.17.32-.24.64-.47.96-.72.06-.05.12-.06.2-.01.02.01.04.02.08.04-.09.07-.17.13-.26.2-.32.24-.65.49-.98.73-.05.04-.15.01-.22-.06Z"/>
        <path class="cls-6" d="m157.54,120.69s-.03.03-.04.04c-.36.23-.72.46-1.09.69-.02.01-.04.01-.06.02,0-.02-.01-.04-.01-.06,0-.09,0-.18,0-.27,0-.03.03-.07.06-.08.33-.11.66-.22.98-.33.03-.01.06-.02.09-.03.02,0,.04,0,.06,0,0,0,0,.01.01.02Z"/>
        <path class="cls-6" d="m158.25,122.07s-.02.07-.03.1c-.1.31-.21.61-.31.92-.05.14-.09.28-.14.42-.01.03-.03.07-.06.09-.11.09-.23.17-.34.25,0,0-.02,0-.04,0,.3-.6.6-1.2.9-1.8,0,0,.02,0,.02.01Z"/>
        <path class="cls-6" d="m161.54,117.17c.05.1.11.18.15.27,0,.02-.01.05-.03.07-.26.22-.52.45-.78.67-.09.07-.17.15-.26.22-.02.01-.04.03-.06.04,0,0-.01-.01-.02-.02.33-.41.66-.82,1-1.25Z"/>
        <path class="cls-9" d="m157.32,124.57c-.03-.1-.05-.19-.07-.28,0-.04-.01-.08-.03-.12-.03-.08,0-.14.06-.18.11-.08.22-.16.34-.25.02.05.03.1.04.14.03.11.06.21.08.32,0,.03,0,.08-.02.1-.11.09-.24.18-.36.27,0,0-.01,0-.04,0Z"/>
        <path class="cls-9" d="m160.39,122.26s-.02-.04-.02-.05c-.03-.14-.07-.27-.1-.41,0-.03,0-.06.02-.08.11-.08.22-.17.33-.25.02-.01.03-.02.06-.03.02.05.03.09.04.13.03.1.05.2.08.3.02.06,0,.1-.04.13-.11.07-.21.15-.32.23-.01,0-.03.01-.05.02Z"/>
        <path class="cls-9" d="m158.78,122.9s.02.08.03.12c.03.11.06.22.08.33,0,.03,0,.07-.02.09-.12.09-.24.18-.36.27,0,0-.01,0-.05.02,0-.02,0-.04,0-.05-.03-.14-.07-.28-.1-.42,0-.02,0-.06.02-.08.11-.09.23-.17.35-.26,0,0,.03,0,.05-.01Z"/>
        <path class="cls-6" d="m156.34,120.87c.02-.12.03-.23.05-.35,0-.02.03-.05.06-.05.35-.05.69-.09,1.04-.14,0,0,.02,0,.04.02-.02.02-.03.04-.06.05-.23.1-.46.2-.69.3-.11.05-.22.09-.32.14-.03.01-.06.03-.09.05,0-.01-.02-.02-.03-.03Z"/>
        <path class="cls-6" d="m160.42,118.18c.28-.44.56-.88.85-1.34.06.07.12.13.16.2.01.02,0,.07-.02.09-.24.27-.49.54-.74.82-.07.08-.14.15-.21.23,0,0-.02.01-.03.02,0,0,0,0-.01-.01Z"/>
        <path class="cls-9" d="m160.21,122.49c.15-.11.29-.21.42-.32.13-.1.26-.19.39-.29.04-.03.07-.04.12-.01.05.02.1.04.17.07-.02.02-.04.04-.05.05-.25.19-.5.38-.75.57-.03.03-.07.03-.11,0-.05-.03-.11-.05-.18-.07Z"/>
        <path class="cls-9" d="m160.08,129.06c.15.02.18.05.21.16.08.32.15.63.23.95,0,0,0,.01,0,.02-.12,0-.18-.05-.21-.16-.07-.3-.15-.6-.22-.91,0-.02,0-.04,0-.06Z"/>
        <path class="cls-9" d="m158.18,124.23s-.06.05-.09.07c-.23.17-.46.35-.69.52-.07.05-.11.05-.23-.04.07-.05.13-.1.19-.15.19-.14.39-.28.58-.43.08-.06.14-.06.25.02Z"/>
        <path class="cls-6" d="m158.13,123.6c-.08-.03-.14-.05-.2-.08-.01,0-.02-.05-.01-.06.04-.11.09-.21.13-.32.06-.16.12-.33.18-.49.06-.15.13-.31.21-.45-.02.08-.03.16-.05.23-.03.16-.07.32-.1.48-.02.1-.03.2-.06.3-.01.04-.07.07-.1.1-.04.02-.05.05-.03.1.02.06.03.13.05.21Z"/>
        <path class="cls-9" d="m159.34,123.37c-.08.06-.15.11-.22.17-.18.14-.36.27-.55.41-.09.07-.11.07-.24-.01.06-.05.12-.09.18-.14.2-.15.39-.29.59-.44.1-.07.1-.08.25,0Z"/>
        <path class="cls-9" d="m158.8,128.2c.03.13.06.24.08.35,0,.02,0,.04-.01.05-.09.07-.18.14-.28.21-.01-.04-.03-.06-.03-.08-.01-.05-.02-.11-.04-.16-.05-.11,0-.18.08-.23.06-.04.12-.08.2-.14Z"/>
        <path class="cls-9" d="m158.75,129.5c-.03-.12-.05-.23-.07-.35,0-.02.02-.04.03-.05.07-.05.14-.1.21-.15.04-.03.06-.02.08.03.02.09.05.17.07.26,0,.02,0,.06-.01.07-.09.07-.18.14-.27.21,0,0-.02,0-.02-.01Z"/>
        <path class="cls-9" d="m159.44,129.28c-.12.09-.24.18-.37.27-.07.05-.13.1-.2.15-.09.07-.11.07-.24-.02.08-.06.17-.12.25-.19.11-.08.22-.16.33-.25.08-.06.12-.06.22.03Z"/>
        <path class="cls-9" d="m159.27,128.57c-.14.1-.27.2-.39.29-.05.04-.11.08-.16.12-.1.07-.11.07-.24,0,.01-.01.02-.03.03-.04.18-.14.37-.28.55-.41.06-.05.12.02.2.05Z"/>
        <path class="cls-9" d="m159.07,122.71c.07.03.14.05.2.08.02,0,.04.03.04.05.04.13.07.26.1.4.02.09,0,.1-.09.06-.1-.03-.14-.08-.15-.18-.01-.11-.05-.22-.08-.33,0-.02,0-.04-.01-.08Z"/>
        <path class="cls-9" d="m161.33,121.9c-.08-.03-.15-.06-.21-.09-.02,0-.03-.03-.04-.04-.04-.16-.07-.31-.11-.47,0,0,0-.02,0-.03.07.03.14.06.21.08.01,0,.03.02.03.04.04.17.08.33.12.51Z"/>
        <path class="cls-9" d="m158.27,124.18c-.09-.03-.15-.05-.22-.08-.01,0-.02-.02-.03-.03-.04-.16-.08-.32-.12-.5.08.03.15.06.21.09.01,0,.03.02.03.04.04.16.08.31.12.49Z"/>
        <path class="cls-9" d="m161.82,120.29c-.17-.01-.35-.03-.52-.04-.19-.01-.38-.03-.57-.05-.13,0-.14-.03-.1-.13,0,0,.01-.02.02-.03.39.08.78.15,1.17.23,0,0,0,.01,0,.02Z"/>
        <path class="cls-9" d="m160.21,121.81c.04.16.08.32.12.48,0,.03-.04.06-.06.08-.02.02-.05.04-.09.06-.03-.11-.05-.2-.07-.29,0-.04-.02-.08-.03-.12-.03-.12,0-.17.14-.21Z"/>
        <path class="cls-9" d="m157.14,124.1c.03.13.06.25.09.36,0,.01,0,.02,0,.03.04.15.02.18-.13.24,0-.02-.02-.04-.02-.07-.03-.12-.06-.24-.09-.36-.02-.07-.01-.11.05-.15.03-.01.05-.03.09-.06Z"/>
        <path class="cls-9" d="m158.26,123.87c-.03-.12-.06-.23-.09-.35,0-.03-.01-.05-.02-.08-.01-.06.06-.16.12-.17.01,0,.04.02.04.03.04.15.08.3.11.46,0,0,0,.02,0,.02-.04.03-.09.07-.13.1h-.02Z"/>
        <path class="cls-9" d="m160.86,121.91c-.03-.11-.05-.21-.08-.31,0-.02,0-.05-.02-.08-.03-.14-.01-.18.13-.24.03.11.05.21.08.31,0,.02,0,.04.01.05.04.15.03.19-.13.26Z"/>
        <path class="cls-9" d="m157.84,123.59c.04.17.08.32.11.48,0,.02-.01.05-.03.07-.03.03-.07.05-.11.08-.01-.03-.03-.05-.03-.07-.03-.13-.06-.25-.09-.38-.02-.06,0-.1.05-.12.03-.02.06-.03.11-.06Z"/>
        <path class="cls-9" d="m158.96,123.36c-.03-.12-.06-.22-.08-.33,0-.01,0-.02,0-.03-.04-.16-.03-.18.12-.26,0,.03.02.05.03.08.03.1.05.2.08.31.03.14.02.18-.13.24Z"/>
        <path class="cls-9" d="m160.53,120.53s0-.01,0-.01c.02-.14.03-.14.17-.08.23.09.45.19.68.28.02,0,.04.01.06.03.02.01.03.03.04.05-.02,0-.04.02-.06.01-.16-.05-.31-.1-.46-.15-.14-.04-.28-.08-.42-.12Z"/>
        <path class="cls-9" d="m160.69,119.87s0-.01,0-.01c0-.13,0-.13.14-.13.3,0,.61-.02.91-.02.02,0,.05,0,.07,0,0,0,0,.01,0,.02-.37.05-.74.1-1.12.15Z"/>
        <path class="cls-9" d="m157.52,120.14c.03.13.02.14-.09.15-.31.04-.61.08-.92.12-.02,0-.05,0-.07,0,0,0,0-.01,0-.02.36-.08.72-.17,1.08-.25Z"/>
        <path class="cls-9" d="m161.78,119.18c-.35.12-.7.23-1.06.35-.03-.11-.02-.14.07-.16.31-.07.61-.14.92-.21.02,0,.04,0,.05,0,0,0,0,.01,0,.02Z"/>
        <path class="cls-9" d="m157.5,120.47c.05.09.04.12-.04.15-.32.1-.64.2-.95.3-.01,0-.03,0-.05,0,.35-.15.69-.3,1.04-.45Z"/>
        <path class="cls-6" d="m160.35,120.87c.2.11.37.21.55.31-.06.04-.11.09-.17.13-.01,0-.05,0-.06-.02-.1-.11-.2-.21-.3-.32-.02-.02-.01-.05-.02-.1Z"/>
        <path class="cls-9" d="m160.72,119.21c-.04-.09-.04-.12.04-.15.3-.13.6-.26.9-.39.02,0,.04-.01.07,0-.34.18-.67.36-1.01.54Z"/>
        <path class="cls-9" d="m160.38,120.82s.04-.07.06-.1c0,0,.04-.01.05,0,.17.12.34.25.51.37,0,0,.02.02.03.03-.02.04-.05.05-.1.02-.18-.11-.36-.21-.55-.32Z"/>
        <path class="cls-9" d="m156.62,121.36c.3-.19.6-.38.91-.58.06.08.05.1-.02.14-.27.14-.54.29-.81.43-.02,0-.03.03-.05.04,0-.01-.01-.02-.02-.04Z"/>
        <path class="cls-9" d="m160.68,118.91c-.05-.07-.05-.11,0-.14.27-.17.53-.34.8-.5.01,0,.03-.01.04-.02,0,0,0,.01.01.02-.29.21-.57.43-.87.65Z"/>
        <path class="cls-6" d="m158.67,122.2c-.01.1-.03.2-.04.29-.01.12-.03.23-.04.35,0,.11-.05.17-.18.21.08-.3.16-.58.24-.86,0,0,.01,0,.02,0Z"/>
        <path class="cls-9" d="m156.75,121.79c.28-.24.56-.48.84-.72.05.06.04.1,0,.13-.27.2-.54.39-.81.59,0,0,0,0-.02,0Z"/>
        <path class="cls-9" d="m160.6,118.63c-.04-.05-.05-.09-.01-.12.23-.19.46-.39.69-.59,0,0,.01,0,.02-.01,0,0,.01.01.02.02-.24.23-.47.47-.72.7Z"/>
        <path class="cls-9" d="m157.68,121.34s.06.08.02.11c-.18.18-.36.35-.54.53-.05.05-.11.1-.17.16,0,0-.01,0-.02-.01.23-.26.47-.52.71-.78Z"/>
        <path class="cls-9" d="m160.49,118.38s-.05-.08-.01-.12c.18-.19.36-.39.54-.59.04-.04.07-.08.11-.12,0,0,.01,0,.02.01-.22.27-.43.54-.65.82Z"/>
        <path class="cls-9" d="m157.8,121.58c.05.04.06.07.03.11-.14.17-.28.34-.42.51-.06.07-.12.15-.17.22l-.02-.02c.2-.28.39-.55.59-.83Z"/>
        <path class="cls-9" d="m160.95,117.22c-.08.13-.17.26-.25.39-.08.13-.16.26-.24.39-.02.04-.05.08-.08.12,0,.01-.03.02-.05.02,0-.02-.03-.05-.02-.07.02-.05.06-.09.09-.13.14-.19.27-.37.41-.56.04-.06.08-.12.13-.18,0,0,0,0,.01,0Z"/>
        <path class="cls-9" d="m159.03,128.07c.14.03.16.04.19.16.02.08.04.16.06.24,0,0,0,.01,0,.02-.11,0-.15-.04-.18-.13-.02-.09-.05-.19-.07-.29Z"/>
        <path class="cls-9" d="m157.7,122.92c.05-.12.1-.23.15-.35,0,0,.01-.02.02-.03.07-.16.13-.32.2-.48.01-.03.03-.07.05-.1,0,0,.03,0,.05-.01,0,.01.02.03.01.04-.03.06-.06.12-.08.18-.05.1-.1.2-.15.31-.05.1-.11.2-.16.3-.02.05-.05.1-.07.15,0,0-.01,0-.02,0Z"/>
        <path class="cls-9" d="m160.31,120.99c.06.07.12.13.18.19.05.05.09.1.14.15.03.03.02.06,0,.07-.02,0-.06,0-.07,0-.07-.06-.14-.12-.21-.19q-.1-.09-.03-.22Z"/>
        <path class="cls-9" d="m157.99,121.78s0,.06,0,.08c-.06.11-.13.22-.2.33-.06.09-.11.19-.17.28-.05.08-.1.15-.15.23.01-.1.45-.87.53-.91Z"/>
        <path class="cls-9" d="m159.21,128.8c.14.02.15.04.18.15.02.09.04.18.07.28-.05-.02-.1-.04-.15-.06,0,0-.02-.02-.02-.02-.03-.11-.05-.23-.08-.35Z"/>
        <path class="cls-9" d="m157.9,123.34c.06-.18.12-.35.18-.53.08-.23.15-.47.23-.7,0-.02.03-.03.05-.04,0,.02,0,.04,0,.06-.04.13-.08.25-.13.37-.11.28-.22.56-.33.84,0,0,0,0,0,0Z"/>
        <path class="cls-9" d="m158.44,128.48c.02.1.05.19.07.28.02.1.01.11-.09.16-.01-.05-.03-.1-.04-.15-.01-.05-.03-.1-.04-.15-.02-.08,0-.11.1-.13Z"/>
        <path class="cls-9" d="m159.12,129.23c-.03-.11-.06-.23-.08-.34,0-.03.05-.07.07-.1,0,0,.02,0,.03.01.03.11.06.23.08.34,0,.03-.05.06-.07.1-.01,0-.02,0-.03-.01Z"/>
        <path class="cls-9" d="m158.62,129.19c.03.12.06.24.08.35,0,.03-.04.06-.07.1,0,0-.02,0-.02-.01,0-.02-.02-.04-.03-.06-.02-.07-.04-.15-.05-.22-.02-.09-.01-.11.1-.15Z"/>
        <path class="cls-9" d="m158.94,128.52c-.02-.07-.03-.14-.05-.21,0-.03-.01-.05-.02-.08-.02-.08,0-.11.1-.13.03.11.06.23.07.34,0,.03-.05.06-.07.1,0,0-.02,0-.03-.01Z"/>
        <path class="cls-9" d="m158.31,123.1c.05-.21.1-.42.15-.63.02-.1.04-.2.07-.3,0-.02.03-.03.05-.04,0,.02.02.05.01.06-.05.18-.1.36-.15.55-.03.12-.06.25-.09.38,0,0-.02,0-.03,0Z"/>
        <path class="cls-6" d="m160.39,121.56c-.06-.14-.19-.24-.2-.38,0,0,.01,0,.02-.01.09.08.18.16.27.24.05.04.04.07,0,.1-.03.02-.05.03-.09.06Z"/>
        <path class="cls-9" d="m158.66,122.88c.01-.11.02-.21.03-.3.02-.13.04-.26.06-.38,0-.02.02-.04.05-.07.03.11-.07.71-.14.76Z"/>
        <path class="cls-9" d="m160.14,121.27c.07.1.13.2.18.29,0,.02-.01.05-.03.07,0,0-.05-.01-.06-.03-.05-.05-.08-.12-.13-.17-.05-.05-.04-.08,0-.12.01,0,.02-.02.04-.04Z"/>
        <path class="cls-6" d="m158.91,122.21c0,.1,0,.19,0,.29,0,.05,0,.11,0,.16,0,.08-.04.1-.12.14.04-.21.07-.4.1-.59,0,0,.02,0,.03,0Z"/>
        <path class="cls-9" d="m159.06,122.12c-.02.17-.03.34-.05.5,0,0-.02,0-.04.02,0-.06,0-.12,0-.17,0-.1,0-.2,0-.3,0-.05.03-.06.09-.05Z"/>
        <path class="cls-9" d="m159.87,121.59s.04-.04.06-.04c0,0,.04.03.05.05.03.06.06.12.08.18,0,.02-.02.04-.03.07-.02-.01-.05-.02-.06-.04-.03-.04-.05-.08-.07-.12-.01-.03-.02-.06-.02-.09Z"/>
        <path class="cls-9" d="m159.24,122.44s-.01-.07-.01-.1c0-.08,0-.16-.02-.24,0-.05.01-.07.07-.07.04.1.03.37-.03.4Z"/>
        <path class="cls-9" d="m159.75,122.07c-.03-.09-.07-.17-.09-.26,0-.02.04-.05.06-.08.08.1.11.29.03.34Z"/>
        <path class="cls-6" d="m160.03,121.43c.06.07.12.15.17.22.04.07-.03.07-.08.1-.04-.11-.12-.2-.12-.31,0,0,.02,0,.03,0Z"/>
        <path class="cls-9" d="m159.52,121.91c.02.1.03.19.04.28,0,.02-.03.04-.04.06-.01-.02-.03-.04-.04-.06-.02-.06-.02-.11-.04-.17-.02-.06,0-.09.08-.11Z"/>
        <path class="cls-9" d="m158.78,128.04c.05.03.06.05.02.08-.05.04-.1.08-.16.11-.02.01-.04,0-.06.01,0-.02,0-.05.01-.07.06-.05.13-.1.19-.14Z"/>
        <path class="cls-9" d="m158.3,124s.07.03.12.05c-.04.03-.06.05-.1.07-.01-.05-.02-.08-.03-.12,0,0,.01,0,.02-.01Z"/>
        <path class="cls-9" d="m162.39,140.22s-.1.13-.18.19c-.15.12-.3.23-.46.34,0,0,0,0-.01,0-.18.13-.31.03-.35-.15-.19-.81-.39-1.62-.59-2.43-.12-.49-.24-.98-.36-1.47-.05-.2.01-.37.17-.49.17-.13.35-.26.52-.39.12-.09.26-.04.3.11.07.25.13.5.19.76.13.54.26,1.07.39,1.61.13.52.25,1.03.38,1.55.03.11.03.22,0,.36Z"/>
        <path class="cls-9" d="m164.9,133.17s.06.07.08.12c.04.14.07.28.11.42.13.52.25,1.03.38,1.55.16.66.32,1.33.48,1.99.05.21,0,.38-.16.5-.17.14-.35.27-.53.4-.11.07-.25.04-.29-.11-.05-.16-.08-.31-.12-.47-.13-.51-.25-1.02-.38-1.54-.09-.38-.18-.76-.28-1.13-.07-.27-.14-.55-.2-.82-.04-.18,0-.35.14-.46.18-.15.37-.28.56-.42.05-.04.11-.05.21-.02Z"/>
        <path class="cls-9" d="m163.22,138.23c-.01.13-.11.2-.2.27-.1.07-.2.15-.29.22-.06.05-.13.08-.22.05-.09-.03-.11-.11-.13-.18-.09-.36-.18-.73-.27-1.09-.14-.56-.28-1.12-.41-1.68-.02-.1-.03-.2-.04-.3,0-.13.07-.23.16-.31.11-.09.24-.18.36-.27.02-.02.05-.03.07-.05.12-.06.23,0,.27.14.05.2.1.4.15.6.14.57.28,1.14.42,1.71.05.22.11.44.16.66.02.08,0,.16,0,.25,0,0-.01,0-.02,0Z"/>
        <path class="cls-9" d="m162.86,134.53c.02-.1.09-.16.17-.22.11-.09.22-.17.34-.25.02-.01.04-.03.06-.04.12-.07.24-.02.28.12.04.14.07.27.1.41.13.55.27,1.1.4,1.65.07.31.15.61.22.92.04.18-.01.33-.14.44-.13.11-.27.21-.42.31-.12.09-.26.02-.3-.13-.09-.37-.18-.75-.28-1.12-.12-.47-.23-.95-.35-1.42-.04-.17-.08-.34-.11-.51,0-.05.01-.1.02-.14Z"/>
        <path class="cls-9" d="m163.88,127.5c.02.07.03.13.04.18,0,.02,0,.04-.02.06-.02.02-.05.04-.07.06-.12.05-.14.15-.09.27,0,0,0,.02,0,.03.04.19.04.2-.16.27-.01-.04-.03-.08-.04-.12-.01-.05-.03-.05-.06-.03-.21.15-.42.31-.62.47-.03.02-.02.09-.02.14.02.13-.01.19-.16.23-.02-.09-.05-.18-.07-.26-.02-.06-.03-.07-.08-.04-.04.03-.08.06-.12.09-.04.02-.06.02-.07-.03-.04-.1-.04-.18.06-.22.04-.02.07-.04.1-.08.01-.02,0-.06,0-.09-.02,0-.05,0-.07.01-.05.03-.09.06-.13.1-.09-.08-.1-.2-.02-.26,0,0,.02-.01.03-.02.11-.05.14-.14.12-.26-.02-.17.02-.32.13-.44.07-.08.15-.14.29-.09.01-.06.02-.13.04-.18.04-.15.16-.24.3-.3.09-.04.18,0,.24.09.05.08.09.15.15.24.06-.04.13-.09.21-.14.02.07.04.12.05.18,0,.02-.02.05-.04.07-.04.04-.09.07-.13.1-.04.03-.06.06-.02.12.08-.05.15-.09.23-.14Zm-.73.49s.02,0,.03,0c.08-.06.15-.12.23-.18.01-.01.02-.04.01-.06-.02-.08-.04-.17-.08-.25-.02-.04-.07-.09-.09-.09-.04,0-.09.04-.1.08-.03.08-.04.16-.04.25,0,.08.03.16.05.24Zm-.41.32c.23-.1.26-.18.16-.4-.03-.08-.11-.1-.16-.04-.08.08-.08.32,0,.44Z"/>
        <path class="cls-9" d="m162.03,130.92c.17-.12.31-.23.47-.35.03.09.05.17.06.25,0,.02-.01.05-.03.06-.13.1-.26.19-.39.29-.02.02-.04.06-.03.09,0,.07.03.13.05.22.16-.12.31-.23.47-.35.03.1.05.18.06.25,0,.02-.02.04-.03.06-.13.1-.25.19-.38.29-.04.03-.05.06-.03.11.02.06,0,.11-.05.14-.18.13-.36.27-.54.4-.05.03-.09.05-.15.01-.05-.03-.1-.03-.14,0-.07.06-.16.12-.23.18-.04.03-.06.02-.08-.03,0-.01,0-.02,0-.03-.06-.13-.03-.22.09-.28.11-.05.13-.13.08-.25-.01-.03-.02-.07-.03-.12-.07.05-.14.09-.19.14-.04.03-.06.02-.07-.03-.02-.06-.03-.13-.05-.19,0-.02,0-.04.02-.05.06-.04.11-.09.17-.13.04-.03.06-.06.04-.11-.02-.06-.03-.13-.05-.21-.07.05-.13.09-.19.13-.02.01-.04.02-.06.02-.01-.02-.03-.04-.03-.06-.02-.07-.06-.15-.04-.2.02-.05.1-.09.15-.12.07-.04.1-.1.06-.18-.01-.03,0-.06-.02-.09-.05-.11-.01-.18.08-.24.17-.11.33-.24.5-.37.04-.03.07-.04.13,0,.07.05.16.08.24.11.02,0,.04,0,.06-.02.11-.08.22-.16.33-.24.02-.02.05-.03.09-.05.02.09.05.17.06.26,0,.02-.02.04-.04.06-.13.09-.25.19-.38.28-.02.02-.04.06-.03.09,0,.07.03.13.05.22Zm-.68,1.32s.04-.01.04-.02c.17-.13.34-.25.51-.38.02-.02.03-.07.02-.1-.09-.38-.18-.77-.28-1.15-.03-.1-.05-.21-.08-.31-.01,0-.02,0-.02,0-.18.13-.36.26-.54.4-.02.01-.02.05-.02.07,0,.05.02.1.04.16.08.33.16.67.24,1,.03.11.05.22.08.34Zm.85-.37c-.12-.49-.24-.97-.36-1.46-.03-.11-.09-.15-.21-.16,0,0,0,.01,0,.02.12.47.23.95.35,1.42.03.12.07.16.22.18Zm-.81.43s.07.03.1.04c.07.04.12.03.18-.02.14-.11.28-.21.42-.32.03-.02.05-.04.07-.06-.12-.09-.17-.09-.26-.02-.05.04-.11.08-.16.12-.11.08-.22.17-.34.26Zm.58-1.76s.04-.02.05-.03c.09-.07.18-.13.27-.2.08-.06.08-.08.02-.19-.02.01-.04.02-.06.03-.09.06-.17.13-.26.19-.08.06-.08.09-.02.2Zm.49.15s-.02,0-.03,0c-.11.08-.23.17-.34.25-.04.03-.02.11.03.16.1-.07.19-.14.29-.22.1-.07.1-.08.04-.2Zm.14.57s-.04,0-.05.02c-.11.08-.21.15-.31.24-.02.02-.02.06-.02.09,0,.02.02.04.03.06.02,0,.04,0,.06-.02.09-.06.17-.13.26-.19.08-.05.08-.11.04-.2Zm-1.47,1.26c.07-.05.14-.11.21-.16-.02-.05-.04-.09-.07-.13-.04.03-.08.06-.12.08-.09.06-.09.09-.02.21Zm-.15-.58c.19-.1.23-.14.14-.27-.03.02-.07.05-.1.07-.09.07-.1.08-.04.2Zm-.14-.57c.18-.06.21-.13.15-.28-.04.03-.08.05-.11.08-.09.07-.09.08-.04.2Z"/>
        <path class="cls-9" d="m162.61,126.67c-.06.04-.11.07-.14.11-.01.01-.01.04,0,.07,0,.04.03.09.03.13,0,.02-.02.05-.03.05-.03,0-.06-.02-.08-.04-.02-.03-.02-.07-.04-.12-.04.03-.08.05-.11.07-.04.03-.08.04-.12.01-.15-.09-.27-.07-.36.04,0,0-.02.01-.03.02-.14.11-.14.11-.32.02-.03-.01-.06-.05-.06-.07-.06-.21-.1-.42-.16-.63-.01-.06,0-.1.04-.13.07-.05.15-.11.22-.16.05-.04.1.02.16.02-.02-.09-.04-.19-.07-.28-.01-.05,0-.09.04-.12.39-.29.78-.58,1.17-.87.04-.03.07-.04.14,0,.08.05.18.07.26.11.02.01.05.04.06.06.09.34.17.68.25,1.02,0,.02,0,.05-.02.06-.05.04-.1.07-.15.12-.02.02-.03.06-.03.09,0,.03.01.06.02.1.02.07,0,.1-.08.1-.02-.05-.03-.1-.05-.15,0,0-.02,0-.02-.01-.05.04-.12.08-.13.14-.02.06.02.14.04.21q-.07.03-.16-.13c-.11.02-.17.09-.14.2,0,.03.02.06.02.09,0,.04-.01.07-.05.06-.02,0-.05-.03-.06-.05-.02-.03-.02-.06-.03-.12Zm.2-1.84s-.06.04-.08.05c-.08.06-.16.12-.24.18-.28.21-.57.42-.85.63-.03.02-.04.06-.03.1.07.3.15.6.22.9,0,.02,0,.03.01.06.04-.03.07-.04.1-.06.08-.06.16-.12.23-.18.28-.21.55-.41.83-.62.04-.03.05-.06.04-.12-.03-.1-.05-.2-.07-.3-.05-.21-.1-.42-.16-.64Zm-.92,1.97c.09.04.16.07.23.09.03,0,.07,0,.1-.01.36-.27.73-.54,1.09-.81.03-.02.05-.04.09-.07-.1-.04-.18-.07-.26-.11-.01,0-.03.01-.05.02-.3.22-.6.44-.9.67-.09.07-.18.14-.28.22Zm1.51-.84c-.08-.34-.16-.67-.24-1,0-.01-.01-.03-.02-.03-.08-.04-.17-.07-.25-.1,0,.01,0,.02,0,.02.08.32.15.65.23.97,0,.02.02.04.03.04.08.04.16.07.26.11Zm-2.05.81c.08-.06.14-.1.2-.15.01-.01.03-.03.02-.04-.02-.1-.04-.2-.06-.31-.09.06-.15.11-.22.17-.01,0-.02.03-.02.04.02.09.04.18.07.3Zm.43,0c-.05-.2-.1-.4-.15-.6-.01-.04-.04-.06-.1-.05.05.2.1.4.15.61.01.04.04.06.09.04Zm-.33.22s0,.01,0,.02c.04.01.1.04.12.03.08-.05.15-.11.22-.16,0,0,0-.02,0-.03-.04,0-.1-.03-.13-.01-.07.04-.14.1-.2.15Zm.01-.88c-.07.05-.14.1-.2.15-.04.03-.03.07,0,.12.06-.05.12-.09.18-.13.05-.03.05-.07.01-.14Zm.17.67s-.01-.06-.02-.08c0,0-.03,0-.04,0-.07.05-.13.09-.19.14-.01.01,0,.05,0,.08,0,0,.03.01.04.01.07-.05.13-.09.2-.15Z"/>
        <path class="cls-9" d="m161.28,135.03c-.06.26-.2.47-.39.65-.13.12-.29.21-.49.23-.27.02-.48-.13-.6-.37-.14-.3-.15-.59-.08-.88.03-.11.05-.23.09-.33.12-.27.29-.51.56-.67.12-.07.26-.11.41-.08.16.03.3.11.4.25.13.19.18.39.19.6.01.21-.02.42-.11.6Zm-.07-.1c.01-.08.04-.22.05-.37.03-.22-.01-.44-.14-.65-.08-.13-.19-.22-.35-.23-.16-.01-.28.04-.4.12-.18.12-.3.28-.38.47-.1.22-.17.44-.17.69,0,.2.03.4.14.59.09.16.29.27.46.24.1-.02.2-.06.28-.11.26-.16.39-.41.52-.75Z"/>
        <path class="cls-9" d="m164.36,131.26c.12.01.15.1.17.21.05.22.11.45.16.67.01.04,0,.07-.03.1-.35.26-.71.53-1.06.79-.06.05-.12.09-.18.14,0,0,0,0-.01,0-.06.04-.32-.07-.34-.14-.07-.26-.14-.52-.21-.78,0-.03,0-.08.03-.1.41-.31.82-.62,1.23-.92.03-.03.07-.03.11,0,.03.02.07.03.12.05Zm-.49.25s-.02,0-.02,0c-.19.14-.39.29-.58.43-.02.02-.03.06-.02.09.06.21.12.43.18.64,0,.03.02.05.03.09.03-.02.05-.03.06-.04.13-.09.24-.2.38-.28.16-.09.2-.21.13-.39-.07-.18-.1-.36-.16-.55Zm-.69,1.54c.13.08.15.08.25.01.26-.19.52-.39.78-.58.13-.1.26-.2.39-.3-.09-.08-.16-.09-.22-.04-.3.22-.6.45-.9.67-.1.07-.2.15-.3.23Zm.96-.79c.08-.06.15-.11.22-.17.02-.02.03-.06.03-.08-.04-.17-.09-.35-.14-.52-.02-.07-.04-.14-.07-.22-.08.06-.15.11-.22.16-.02.02-.03.06-.03.08.02.11.06.22.09.33.04.14.08.27.12.43Zm-1,.75c.09-.07.17-.12.24-.18.01-.01.01-.05,0-.07-.05-.17-.09-.35-.14-.52-.02-.07-.04-.14-.07-.22-.07.05-.13.1-.19.14-.05.03-.06.08-.05.14.04.15.08.29.12.44.02.09.05.17.08.28Zm1.11-1.76s.01.06.02.09c.06.21.11.42.17.63.03.11.06.14.2.16-.06-.26-.12-.51-.19-.77,0-.01-.01-.03-.02-.03-.05-.02-.11-.05-.18-.07Z"/>
        <path class="cls-9" d="m161.16,123.11s-.06-.02-.08-.04c-.02-.02-.05-.04-.06-.07-.04-.13-.07-.26-.09-.39,0-.03.01-.07.03-.09.2-.16.41-.31.61-.46.04-.03.08-.03.14-.02.14.04.24.11.25.26,0,.09.04.18.06.27,0,.02,0,.06-.02.07-.22.17-.44.33-.66.49-.02.01-.05.01-.07,0-.03,0-.07-.03-.1-.04,0,0,0,0,0,0Zm.29-.86s-.03,0-.04.01c-.05.04-.11.07-.16.11q-.12.09-.08.25c.02.07.04.14.06.23.11-.08.2-.15.29-.22,0,0,.01-.02.01-.03-.03-.11-.05-.23-.08-.35Zm-.34.77c.1.07.18.07.25,0,.1-.09.21-.16.32-.24.07-.05.14-.11.21-.16-.1-.08-.14-.08-.22-.03-.06.04-.12.09-.18.14-.13.09-.25.19-.38.29Zm.57-.89c.02.1.04.19.06.28.02.1.07.13.18.14-.02-.1-.04-.19-.07-.29-.02-.09-.06-.12-.18-.13Zm-.61.83s.02,0,.03.01c.02-.04.07-.07.06-.11-.01-.11-.05-.22-.07-.32-.1.02-.12.04-.1.13.02.08.04.16.06.24,0,.02.02.03.02.05Zm.55-.82l-.03-.02s-.08.07-.07.11c.01.1.04.2.07.3,0,.01.02.02.03.03.05-.02.1-.05.08-.11-.02-.1-.05-.21-.08-.31Z"/>
        <path class="cls-9" d="m161.62,125.05c-.08-.01-.12-.08-.13-.17-.02-.1-.05-.2-.07-.3,0-.03,0-.07.03-.09.2-.16.41-.31.62-.47.04-.03.07-.03.13-.01.15.04.22.13.24.27.01.09.04.17.06.26,0,.02,0,.05-.02.07-.21.16-.42.31-.63.47-.07.05-.13,0-.22-.02Zm.33-.85c-.06.04-.09.06-.13.09q-.18.13-.13.36s.02.09.04.16c.11-.08.2-.15.29-.22,0,0,.01-.02,0-.04-.02-.11-.05-.22-.08-.36Zm-.34.78c.15.08.15.08.25,0,.1-.07.2-.15.3-.22.08-.06.15-.12.23-.18-.1-.08-.14-.08-.22-.03-.07.05-.14.1-.2.15-.12.09-.23.17-.36.27Zm.56-.9c.02.1.05.2.07.29.02.08.07.12.18.12-.02-.1-.04-.19-.07-.29-.02-.09-.07-.12-.18-.13Zm-.61.83s.02,0,.03,0c.03-.03.08-.06.08-.08-.02-.12-.05-.23-.08-.35-.1.03-.12.06-.1.14,0,.02.01.05.02.07.02.07.03.14.05.21Zm.55-.82c-.07.02-.11.06-.1.12.02.09.04.19.07.28,0,.01.03.02.04.03.03-.03.08-.06.07-.09-.02-.11-.05-.22-.08-.34Z"/>
        <path class="cls-9" d="m159.86,131.09c.12.01.16.09.17.18.02.1.05.2.07.31,0,.02,0,.05-.02.06-.22.16-.43.33-.65.49-.02.01-.05.01-.08,0-.06-.02-.12-.04-.17-.07-.02-.01-.05-.04-.06-.07-.04-.13-.06-.25-.1-.38-.01-.04,0-.06.03-.08.19-.14.38-.28.56-.42.07-.06.14-.09.24-.02Zm-.53.74s.02,0,.03,0c.09-.07.18-.13.26-.2,0,0,.02-.02.02-.03-.02-.12-.05-.23-.08-.37-.11.08-.2.15-.29.22,0,0-.02.02-.02.03.02.11.05.23.08.34Zm-.1.18c.11.08.14.08.23.02.1-.07.19-.14.29-.21.09-.07.17-.13.26-.2-.1-.08-.14-.08-.22-.03-.17.12-.33.25-.49.37-.02.02-.04.03-.07.05Zm.55-.91c.03.11.06.2.07.3.01.07.05.1.12.12.05.02.06,0,.05-.04-.02-.07-.04-.14-.05-.21-.03-.13-.03-.13-.19-.17Zm-.06.02c-.1.04-.12.07-.09.16.01.04.02.07.03.11.02.06.03.11.05.17,0,0,.02,0,.03.01.03-.04.08-.07.07-.11-.01-.11-.05-.22-.08-.34Zm-.55.83c.11-.05.12-.06.09-.16-.01-.05-.02-.1-.04-.15-.01-.04-.02-.08-.03-.12,0,0-.02,0-.02,0-.03.03-.08.06-.08.09.02.12.05.23.08.35Z"/>
        <path class="cls-9" d="m162.03,123.08c.11.01.15.08.16.17.01.1.05.2.07.29,0,.03,0,.07-.02.09-.21.16-.42.32-.63.48-.03.03-.06.02-.11,0-.21-.08-.21-.08-.25-.28-.02-.08-.04-.15-.06-.23-.01-.05,0-.08.04-.1.18-.13.37-.27.55-.41.08-.06.15-.1.25-.02Zm-.31.14c-.1.08-.19.14-.27.21-.02.02-.03.05-.03.08.02.09.04.18.06.27,0,.02,0,.04,0,.06.01,0,.02,0,.04,0,.09-.07.18-.14.27-.21,0,0,.01-.02.01-.03-.03-.11-.06-.23-.09-.37Zm-.32.78c.14.08.14.08.24.01.17-.12.34-.25.51-.38.01-.01.02-.03.04-.05-.08-.02-.13-.08-.2-.03-.13.1-.26.2-.39.29-.06.05-.12.1-.19.15Zm.56-.88c.02.08.04.17.06.25q.03.13.18.17s0-.01,0-.02c-.02-.1-.04-.19-.07-.29-.02-.08-.07-.12-.18-.12Zm-.59.39c-.11.03-.12.05-.1.14.01.05.03.11.04.16.01.04.02.08.03.12.11-.04.12-.05.09-.14,0-.03-.01-.05-.02-.08-.02-.07-.04-.13-.05-.2Zm.53-.4c-.11.04-.12.05-.1.14.02.08.04.15.06.23,0,.02.02.04.02.06.08-.03.1-.05.09-.1-.02-.11-.05-.21-.07-.33Z"/>
        <path class="cls-9" d="m162.15,120.99c.09.01.13.07.15.15.04.2.1.4.15.61.01.05,0,.08-.04.11-.08.05-.15.12-.23.17-.02.01-.06.02-.09.01-.04,0-.08-.02-.1-.04-.03-.02-.07-.06-.08-.09-.06-.21-.11-.43-.16-.64-.01-.05,0-.08.04-.11.07-.04.13-.09.19-.14.06-.05.11-.08.19-.02Zm-.25.69s.02,0,.02.01c.04-.03.07-.06.12-.08.1-.05.12-.12.08-.23-.02-.05-.03-.1-.05-.17-.08.06-.15.11-.22.16-.01,0-.02.03-.01.04.02.09.04.18.06.27Zm.48.07c-.05-.21-.1-.4-.15-.6-.02-.07-.06-.09-.13-.11,0,.02,0,.04,0,.05.04.18.09.35.12.53.02.08.06.11.15.12Zm-.38.17s0,.01,0,.02c.04.01.1.04.12.03.08-.05.15-.11.22-.16,0,0,0-.02,0-.03-.04,0-.1-.03-.12-.02-.08.04-.15.1-.22.16Zm-.05-.06c.15-.04.24-.16.21-.26-.07.05-.13.1-.19.14-.05.03-.03.07-.01.12Zm.07-.83c-.08.06-.15.11-.21.16-.02.02,0,.06-.01.11.18-.07.26-.16.22-.27Z"/>
        <path class="cls-9" d="m159.72,132.6s-.03.05-.06.07c-.05.04-.1.08-.16.12-.02.02-.07.03-.09.02-.03-.02-.04-.06-.05-.09-.03-.08.02-.13.07-.18.04-.03.08-.07.13-.09.03-.02.08-.04.1-.03.03.02.05.07.06.11,0,.02,0,.04,0,.08Z"/>
        <path class="cls-9" d="m160.17,132.22s.05.07.01.1c-.01,0-.03.02-.03.04,0,.02,0,.05,0,.07,0,0,.04,0,.06,0,0,0,.02,0,.05,0-.02.04-.03.08-.05.09-.1.05-.21.08-.31.12-.05-.04-.04-.09-.01-.12.09-.1.18-.2.28-.31Z"/>
        <path class="cls-9" d="m159.59,133.48c-.09-.08-.09-.19-.02-.26.04-.04.09-.07.16-.06.06.01.08-.02.06-.07-.02-.05,0-.08.07-.07.01.05.02.1.04.16.02.06-.02.08-.07.08-.03,0-.07,0-.1,0-.09,0-.13.03-.12.12,0,.03,0,.06,0,.1Z"/>
        <path class="cls-9" d="m159.74,133.75c-.1-.12.06-.13.05-.22-.02,0-.04.02-.06.01-.02,0-.04-.01-.06-.02,0-.02,0-.05.02-.05.07-.03.14-.06.22-.08.05-.01.06.05.05.07-.02.04-.05.08-.08.12-.04.05-.09.1-.13.16Z"/>
        <path class="cls-9" d="m160.15,133.28c-.02-.06-.04-.12-.05-.17,0-.02.02-.04.03-.06.02.02.05.03.08.06.04-.02.09-.05.09-.12,0-.02.03-.03.04-.04.01.02.03.03.04.05.01.03.02.06.02.09,0,.04,0,.06-.05.06-.08,0-.11.05-.14.1-.01.02-.03.04-.04.06,0,0-.02,0-.02-.01Z"/>
        <path class="cls-9" d="m159.72,132.88s-.02-.08.03-.1c0,0,.04.02.05.03.01.05-.01.07-.07.07Z"/>
        <path class="cls-9" d="m160.33,132.72s-.06.02-.08.03c0-.02-.02-.05-.02-.07,0-.02.04-.02.05-.03.01.02.02.04.04.07Z"/>
        <path class="cls-9" d="m157.06,119.72c.08.03.15.06.23.08.04.01.07.02.06.06-.01.03,0,.09-.08.07-.15-.04-.29-.08-.44-.12-.04-.01-.07-.03-.06-.07,0-.02,0-.05,0-.07,0-.05.04-.08.1-.09.09,0,.19-.01.28-.02,0,0,0-.01,0-.02-.07-.02-.14-.05-.21-.07-.03-.01-.08-.03-.09-.04,0-.03,0-.07.02-.09,0-.01.04-.01.06,0,.15.04.29.08.44.12.07.02.08.04.07.1-.02.09-.07.14-.18.13-.07,0-.15.01-.22.02,0,0,0,.02,0,.03Z"/>
        <path class="cls-9" d="m160.34,117.65s-.1-.04-.15-.08c-.08-.05-.1-.11-.07-.22.02-.05.05-.1.07-.15.04-.12.08-.24.13-.36.01-.03.03-.06.05-.08.03-.04.08-.04.13-.02.17.07.17.07.12.22-.05.15-.1.31-.16.46-.03.07-.07.14-.12.22Zm.1-.5c.02-.07.05-.14.07-.21.01-.03,0-.05-.03-.07-.04-.02-.06-.01-.07.02-.01.05-.03.1-.05.14-.03.06,0,.09.08.11Zm-.1.22s.02-.03.02-.05c0-.02-.01-.04-.02-.06-.02,0-.05.01-.06.03-.02.03-.04.07-.04.11,0,.02.01.04.02.06.02,0,.05-.01.06-.03.01-.01.02-.04.02-.06Z"/>
        <path class="cls-9" d="m158.19,118.21c-.05.06-.1.13-.15.18-.05.05-.13.04-.18-.04-.06-.1-.12-.21-.18-.31-.06-.11,0-.2.04-.29.02-.04.06-.07.1-.1.07-.05.12-.03.17.05.05.09.1.17.15.26.05.08.08.16.02.24,0,0,.01,0,.02.01Zm-.12-.03s0,0,0,0c0-.03.02-.07,0-.09-.05-.1-.11-.19-.16-.28,0-.01-.04-.03-.06-.02-.07.02-.1.14-.06.2.04.07.08.15.13.22.01.02.04.06.06.06.02,0,.05-.03.07-.05.01-.01.01-.03.02-.04Z"/>
        <path class="cls-9" d="m158.48,117.93c-.05-.04-.06-.08-.02-.12.01-.01.02-.02.03-.03.11-.06.12-.15.08-.26-.04-.1-.06-.21-.09-.34-.05.04-.08.06-.12.09-.02.01-.05,0-.07.01,0-.03-.02-.07,0-.09.05-.05.11-.09.17-.12.05-.03.1,0,.13.05.02.03.03.07.04.1.03.1.05.2.08.31.03.11.02.21-.06.29-.05.04-.1.08-.15.12Z"/>
        <path class="cls-9" d="m159.72,116.67c.02-.09.1-.11.25-.06,0,.04.02.1-.06.11-.01,0-.02.02-.02.04-.02.08-.03.16-.05.24-.02.09-.03.18-.05.27,0,.03-.01.05.03.08.02,0,.03.05.03.06,0,.02-.03.05-.06.05-.05,0-.1,0-.15,0-.02,0-.05-.03-.05-.04,0-.03,0-.07.02-.07.08-.02.08-.09.09-.15,0-.03,0-.06.01-.09.02-.1.05-.2.06-.3,0-.04-.02-.08-.03-.12,0,0-.01,0-.02,0Z"/>
        <path class="cls-9" d="m157.2,118.77c-.05-.01-.08-.04-.06-.08.04-.09.09-.17.14-.26,0,0,0,0,.02,0,.05.02.05.05.04.09,0,.02,0,.06.02.08.07.07.15.13.23.2.03.02.05.03.08,0,.01-.01.05-.02.06-.02.02.02.03.05.03.07,0,.03-.02.05-.03.07-.03.05-.05.1-.08.15-.01.02-.04.02-.06.04-.01-.02-.04-.06-.03-.07.02-.06,0-.1-.06-.14-.06-.04-.11-.09-.16-.13-.08-.07-.08-.07-.13.01Z"/>
        <path class="cls-9" d="m159.2,117.37s.03,0,.05,0c.03,0,.06,0,.09,0,0,.03,0,.08-.03.09-.1.04-.2.08-.3.11,0,0-.05-.03-.04-.03,0-.03.02-.08.04-.08.1-.02.09-.09.09-.16,0-.16,0-.33-.01-.49,0-.06,0-.13.11-.12,0,.22,0,.45.01.68Z"/>
        <path class="cls-9" d="m157.82,119.4c.08-.17.15-.36.25-.54.21-.34.46-.65.84-.84.21-.11.44-.17.69-.12.25.05.45.18.6.38.21.27.31.57.33.88.02.23,0,.45,0,.67,0,.08-.03.16-.04.24-.05.26-.14.51-.26.74-.18.36-.42.67-.76.9-.21.14-.45.24-.74.22-.31-.03-.56-.18-.74-.43-.18-.25-.27-.53-.3-.81-.02-.23-.01-.46,0-.69,0-.11.04-.21.06-.31.02-.09.04-.19.07-.29Zm.73.28c-.03.15-.07.27-.09.4-.03.14-.06.28-.06.42,0,.17,0,.34.03.51.04.29.13.56.33.81.04.06.08.07.14.06.26-.03.48-.15.67-.3.32-.26.53-.6.7-.97.12-.26.18-.53.21-.82.03-.29.03-.58-.05-.88-.06-.23-.15-.44-.31-.63-.03-.04-.06-.05-.1-.04-.12.03-.24.05-.35.1-.37.17-.62.45-.82.78-.11.19-.2.39-.28.57Zm1.44-1.51c-.12-.12-.29-.19-.48-.21-.29-.02-.52.07-.73.21-.33.22-.56.53-.74.87-.14.28-.24.57-.29.88-.03.18-.03.36-.03.55,0,.31.07.62.24.91.15.25.36.44.66.49.02,0,.04,0,.07,0,0-.02-.01-.04-.02-.05-.14-.18-.22-.38-.27-.59-.06-.25-.08-.5-.06-.75.01-.25.06-.49.13-.72.06-.19.16-.36.24-.54.09-.21.23-.38.39-.54.18-.19.39-.35.65-.43.08-.02.15-.04.24-.07Z"/>
        <path class="cls-6" d="m163.16,127.99c-.02-.08-.05-.16-.05-.24,0-.08.01-.17.04-.25.01-.04.06-.07.1-.08.02,0,.08.05.09.09.03.08.06.17.08.25,0,.02,0,.05-.01.06-.07.06-.15.12-.23.18,0,0-.02,0-.03,0Z"/>
        <path class="cls-6" d="m162.75,128.31c-.08-.12-.07-.36,0-.44.05-.06.12-.04.16.04.09.22.06.29-.16.4Z"/>
        <path class="cls-9" d="m161.35,132.25c-.03-.12-.06-.23-.08-.34-.08-.33-.16-.67-.24-1-.01-.05-.03-.1-.04-.16,0-.02,0-.06.02-.07.18-.14.36-.27.54-.4,0,0,0,0,.02,0,.03.1.06.21.08.31.09.38.19.77.28,1.15,0,.03,0,.08-.02.1-.17.13-.34.26-.51.38,0,0-.02,0-.04.02Z"/>
        <path class="cls-9" d="m162.2,131.88c-.15-.02-.19-.05-.22-.18-.12-.47-.23-.95-.35-1.42,0,0,0-.01,0-.02.12,0,.18.05.21.16.12.49.24.97.36,1.46Z"/>
        <path class="cls-9" d="m161.4,132.31c.12-.09.23-.18.34-.26.05-.04.11-.08.16-.12.09-.07.14-.07.26.02-.02.02-.04.05-.07.06-.14.11-.28.21-.42.32-.06.05-.11.06-.18.02-.03-.01-.05-.02-.1-.04Z"/>
        <path class="cls-9" d="m161.98,130.54c-.06-.11-.06-.14.02-.2.09-.06.17-.13.26-.19.02-.01.04-.02.06-.03.06.11.05.13-.02.19-.09.07-.18.13-.27.2-.02.01-.03.02-.05.03Z"/>
        <path class="cls-9" d="m162.47,130.7c.05.13.05.13-.04.2-.1.07-.19.14-.29.22-.05-.06-.07-.13-.03-.16.11-.09.23-.17.34-.25,0,0,.01,0,.03,0Z"/>
        <path class="cls-9" d="m162.61,131.27c.05.09.04.15-.04.2-.09.06-.17.13-.26.19-.02.01-.04.01-.06.02,0-.02-.03-.04-.03-.06,0-.03,0-.07.02-.09.1-.08.21-.16.31-.24.01,0,.03-.01.05-.02Z"/>
        <path class="cls-9" d="m161.14,132.53c-.07-.11-.06-.15.02-.21.04-.03.07-.05.12-.08.02.05.04.08.07.13-.06.05-.13.1-.21.16Z"/>
        <path class="cls-9" d="m160.99,131.95c-.06-.13-.06-.13.04-.2.03-.02.07-.05.1-.07.09.13.05.17-.14.27Z"/>
        <path class="cls-9" d="m160.85,131.38c-.06-.11-.05-.13.04-.2.04-.03.07-.05.11-.08.06.15.03.22-.15.28Z"/>
        <path class="cls-9" d="m162.81,124.84c.05.23.11.43.16.64.02.1.05.2.07.3.02.06,0,.09-.04.12-.28.21-.56.41-.83.62-.08.06-.16.12-.23.18-.02.02-.05.03-.1.06,0-.02,0-.04-.01-.06-.07-.3-.15-.6-.22-.9-.01-.04,0-.07.03-.1.28-.21.57-.42.85-.63.08-.06.16-.12.24-.18.02-.02.04-.03.08-.05Z"/>
        <path class="cls-9" d="m161.88,126.81c.1-.08.19-.15.28-.22.3-.22.6-.45.9-.67.01,0,.03-.02.05-.02.08.03.17.07.26.11-.04.03-.06.05-.09.07-.36.27-.72.54-1.09.81-.02.02-.07.02-.1.01-.07-.02-.14-.05-.23-.09Z"/>
        <path class="cls-9" d="m163.4,125.97c-.1-.04-.18-.07-.26-.11-.01,0-.03-.03-.03-.04-.08-.32-.16-.65-.23-.97,0,0,0,0,0-.02.09.03.17.07.25.1,0,0,.02.02.02.03.08.33.16.66.24,1Z"/>
        <path class="cls-9" d="m161.35,126.78c-.03-.11-.05-.2-.07-.3,0-.01,0-.04.02-.04.07-.05.13-.1.22-.17.02.12.04.21.06.31,0,.01-.01.03-.02.04-.06.05-.12.09-.2.15Z"/>
        <path class="cls-9" d="m161.78,126.78c-.05.02-.08,0-.09-.04-.05-.2-.1-.4-.15-.61.05-.01.09,0,.1.05.05.2.1.4.15.6Z"/>
        <path class="cls-9" d="m161.45,127c.07-.05.13-.11.2-.15.03-.02.09,0,.13.01,0,0,0,.02,0,.03-.07.06-.14.12-.22.16-.02.01-.08-.02-.12-.03,0,0,0-.01,0-.02Z"/>
        <path class="cls-9" d="m161.46,126.11c.04.07.03.11-.01.14-.06.04-.12.09-.18.13-.04-.05-.05-.09,0-.12.06-.05.13-.1.2-.15Z"/>
        <path class="cls-9" d="m161.63,126.78c-.07.05-.14.1-.2.15,0,0-.03,0-.04-.01,0-.03-.02-.06,0-.08.06-.05.12-.1.19-.14,0,0,.04,0,.04,0,0,.03.01.05.02.08Z"/>
        <path class="cls-6" d="m161.21,134.93c-.13.34-.27.59-.52.75-.08.05-.18.09-.28.11-.17.03-.37-.08-.46-.24-.11-.19-.14-.38-.14-.59,0-.25.08-.48.17-.69.08-.18.21-.35.38-.47.12-.08.24-.13.4-.12.16.01.28.1.35.23.13.21.17.43.14.65-.02.15-.04.29-.05.37Zm-1.23-.44c-.02.1-.04.2-.06.31-.03.18,0,.35.09.52.14.27.36.34.6.25.24-.09.37-.29.46-.51.04-.1.06-.21.08-.32.04-.2.02-.4-.08-.6-.08-.16-.24-.27-.42-.28-.13,0-.23.04-.31.11-.18.13-.31.3-.37.52Z"/>
        <path class="cls-9" d="m163.88,131.51c.05.18.09.37.16.55.07.19.04.3-.13.39-.14.08-.26.18-.38.28-.02.01-.04.02-.06.04-.01-.03-.03-.06-.03-.09-.06-.21-.12-.43-.18-.64,0-.03,0-.08.02-.09.19-.15.39-.29.58-.43,0,0,0,0,.02,0Z"/>
        <path class="cls-9" d="m163.19,133.05c.1-.08.2-.15.3-.23.3-.22.6-.45.9-.67.07-.05.13-.04.22.04-.13.1-.26.2-.39.3-.26.19-.52.39-.78.58-.09.07-.12.07-.25-.01Z"/>
        <path class="cls-9" d="m164.15,132.26c-.04-.16-.08-.29-.12-.43-.03-.11-.06-.22-.09-.33,0-.03,0-.07.03-.08.06-.05.14-.1.22-.16.03.09.05.15.07.22.05.17.1.35.14.52,0,.03,0,.07-.03.08-.06.06-.14.1-.22.17Z"/>
        <path class="cls-9" d="m163.14,133.01c-.03-.11-.05-.19-.08-.28-.04-.15-.08-.29-.12-.44-.02-.06,0-.1.05-.14.06-.04.12-.09.19-.14.02.08.05.15.07.22.05.17.1.35.14.52,0,.02,0,.06,0,.07-.07.06-.15.11-.24.18Z"/>
        <path class="cls-9" d="m164.25,131.25c.07.03.12.05.18.07.01,0,.02.02.02.03.06.26.12.51.19.77-.14-.02-.17-.05-.2-.16-.06-.21-.11-.42-.17-.63,0-.02,0-.05-.02-.09Z"/>
        <path class="cls-9" d="m161.46,122.25c.03.12.06.24.08.35,0,0,0,.02-.01.03-.09.07-.18.14-.29.22-.02-.09-.04-.16-.06-.23q-.04-.16.08-.25c.05-.04.1-.08.16-.11,0,0,.02,0,.04-.01Z"/>
        <path class="cls-9" d="m161.12,123.02c.13-.1.26-.19.38-.29.06-.05.12-.09.18-.14.07-.06.12-.05.22.03-.07.05-.14.11-.21.16-.11.08-.22.15-.32.24-.08.07-.15.06-.25,0Z"/>
        <path class="cls-9" d="m161.68,122.13c.12.01.15.04.18.13.02.09.05.19.07.29-.12,0-.16-.04-.18-.14-.02-.09-.04-.18-.06-.28Z"/>
        <path class="cls-9" d="m161.08,122.95s-.02-.03-.02-.05c-.02-.08-.04-.16-.06-.24-.02-.08,0-.11.1-.13.03.11.06.22.07.32,0,.04-.04.07-.06.11-.01,0-.02,0-.03-.01Z"/>
        <path class="cls-9" d="m161.62,122.14c.03.1.05.21.08.31.02.07-.03.09-.08.11-.01-.01-.02-.02-.03-.03-.03-.1-.06-.2-.07-.3,0-.04.05-.07.07-.11l.03.02Z"/>
        <path class="cls-9" d="m161.94,124.19c.03.13.06.25.08.36,0,.01,0,.03,0,.04-.09.07-.18.14-.29.22-.02-.07-.03-.11-.04-.16q-.06-.23.13-.36s.07-.05.13-.09Z"/>
        <path class="cls-9" d="m161.61,124.97c.12-.09.24-.18.36-.27.07-.05.13-.1.2-.15.08-.06.12-.05.22.03-.08.06-.15.12-.23.18-.1.07-.2.15-.3.22-.1.07-.1.07-.25,0Z"/>
        <path class="cls-9" d="m162.17,124.08c.11,0,.16.04.18.13.02.09.05.19.07.29-.1,0-.16-.04-.18-.12-.02-.1-.05-.19-.07-.29Z"/>
        <path class="cls-9" d="m161.56,124.91c-.02-.07-.03-.14-.05-.21,0-.02-.01-.05-.02-.07-.02-.09,0-.12.1-.14.03.12.06.23.08.35,0,.03-.05.06-.08.08,0,0-.02,0-.03,0Z"/>
        <path class="cls-9" d="m162.11,124.08c.03.12.06.23.08.34,0,.03-.05.06-.07.09-.01-.01-.04-.02-.04-.03-.03-.09-.05-.19-.07-.28-.01-.06.03-.1.1-.12Z"/>
        <path class="cls-9" d="m159.33,131.83c-.03-.11-.05-.23-.08-.34,0-.01,0-.03.02-.03.09-.07.18-.14.29-.22.03.14.06.25.08.37,0,.01,0,.03-.02.03-.09.07-.18.13-.26.2,0,0-.02,0-.03,0Z"/>
        <path class="cls-9" d="m159.24,132.01s.04-.04.07-.05c.16-.12.33-.25.49-.37.07-.05.12-.05.22.03-.09.07-.17.13-.26.2-.1.07-.19.14-.29.21-.08.06-.12.06-.23-.02Z"/>
        <path class="cls-9" d="m159.78,131.11c.16.04.16.04.19.17.02.07.03.14.05.21.01.05,0,.06-.05.04-.07-.02-.11-.05-.12-.12-.02-.1-.05-.19-.07-.3Z"/>
        <path class="cls-9" d="m159.72,131.13c.03.12.07.23.08.34,0,.04-.05.07-.07.11,0,0-.02,0-.03-.01-.02-.06-.03-.11-.05-.17,0-.04-.02-.07-.03-.11-.03-.09-.01-.12.09-.16Z"/>
        <path class="cls-9" d="m159.17,131.96c-.03-.12-.06-.24-.08-.35,0-.03.05-.06.08-.09,0,0,.02,0,.02,0,.01.04.02.08.03.12.01.05.02.1.04.15.02.1.02.12-.09.16Z"/>
        <path class="cls-9" d="m161.72,123.23c.03.14.06.25.09.37,0,0,0,.02-.01.03-.09.07-.18.14-.27.21-.01,0-.02,0-.04,0,0-.02,0-.04,0-.06-.02-.09-.05-.18-.06-.27,0-.03,0-.06.03-.08.08-.07.17-.13.27-.21Z"/>
        <path class="cls-9" d="m161.4,124.01c.07-.05.13-.1.19-.15.13-.1.26-.19.39-.29.07-.05.12.01.2.03-.02.02-.03.04-.04.05-.17.13-.34.25-.51.38-.1.07-.1.07-.24-.01Z"/>
        <path class="cls-9" d="m161.96,123.13c.11,0,.15.03.18.12.02.1.05.19.07.29,0,0,0,.01,0,.02q-.15-.04-.18-.17c-.02-.08-.04-.17-.06-.25Z"/>
        <path class="cls-9" d="m161.36,123.52c.02.07.04.13.05.2,0,.03.01.05.02.08.02.09.02.11-.09.14-.01-.04-.02-.08-.03-.12-.01-.05-.03-.11-.04-.16-.02-.09-.01-.11.1-.14Z"/>
        <path class="cls-9" d="m161.89,123.12c.03.11.05.22.07.33,0,.05-.01.07-.09.1,0-.02-.02-.04-.02-.06-.02-.08-.04-.15-.06-.23-.02-.09,0-.11.1-.14Z"/>
        <path class="cls-9" d="m161.9,121.69c-.02-.09-.04-.18-.06-.27,0-.01,0-.03.01-.04.07-.05.13-.1.22-.16.02.07.03.12.05.17.04.11.02.18-.08.23-.04.02-.08.05-.12.08,0,0-.02,0-.02-.01Z"/>
        <path class="cls-9" d="m162.38,121.75c-.09-.01-.13-.04-.15-.12-.04-.18-.08-.35-.12-.53,0-.02,0-.03,0-.05.07.01.12.03.13.11.04.2.1.39.15.6Z"/>
        <path class="cls-9" d="m162.01,121.93c.07-.05.14-.11.22-.16.03-.01.08.01.12.02,0,0,0,.02,0,.03-.07.05-.14.12-.22.16-.02.01-.08-.02-.12-.03,0,0,0-.01,0-.02Z"/>
        <path class="cls-9" d="m161.95,121.87s-.04-.09.01-.12c.07-.04.13-.09.19-.14.04.1-.06.22-.21.26Z"/>
        <path class="cls-9" d="m162.02,121.04c.03.11-.04.2-.22.27,0-.05,0-.09.01-.11.06-.06.13-.1.21-.16Z"/>
        <path class="cls-6" d="m160.45,117.16c-.07-.02-.11-.05-.08-.11.02-.05.03-.09.05-.14.01-.04.03-.04.07-.02.04.02.04.04.03.07-.02.07-.05.14-.07.21Z"/>
        <path class="cls-6" d="m160.35,117.38s0,.05-.02.06c-.01.01-.04.02-.06.03,0-.02-.03-.05-.02-.06,0-.04.02-.08.04-.11,0-.02.04-.02.06-.03,0,.02.02.04.02.06,0,.02,0,.03-.02.05Z"/>
        <path class="cls-6" d="m158.07,118.18s0,.03-.02.04c-.02.02-.04.05-.07.05-.02,0-.05-.04-.06-.06-.04-.07-.08-.15-.13-.22-.04-.07,0-.18.06-.2.01,0,.05.01.06.02.06.09.12.19.16.28.01.03,0,.06,0,.09,0,0,0,0,0,0Z"/>
        <path class="cls-7" d="m160,118.16c-.08.02-.16.05-.24.07-.27.08-.47.24-.65.43-.16.16-.3.34-.39.54-.08.18-.18.36-.24.54-.07.23-.12.47-.13.72-.01.25,0,.5.06.75.05.21.13.41.27.59.01.02.02.04.02.05-.02,0-.04.01-.07,0-.31-.06-.51-.24-.66-.49-.17-.29-.24-.6-.24-.91,0-.18,0-.37.03-.55.05-.31.14-.61.29-.88.18-.34.4-.65.74-.87.21-.14.45-.23.73-.21.19.01.36.09.48.21Z"/>
        <path class="cls-9" d="m159.97,134.5c.06-.22.19-.38.37-.52.09-.07.19-.12.31-.11.18,0,.35.12.42.28.09.2.12.4.08.6-.02.11-.04.22-.08.32-.09.22-.22.41-.46.51-.24.09-.46.02-.6-.25-.09-.17-.12-.35-.09-.52.02-.1.04-.2.06-.31Zm.1.07c0,.06-.02.14-.03.23-.02.16,0,.32.07.48.09.19.26.26.44.19.17-.07.28-.19.35-.33.08-.16.15-.34.15-.54,0-.16-.01-.32-.11-.47-.09-.14-.27-.19-.41-.13-.24.11-.35.32-.45.56Z"/>
        <path class="cls-6" d="m160.07,134.57c.11-.25.22-.45.45-.56.14-.07.32-.01.41.13.1.15.12.31.11.47,0,.2-.07.37-.15.54-.07.15-.19.27-.35.33-.18.07-.35,0-.44-.19-.08-.16-.09-.32-.07-.48.01-.09.03-.17.03-.23Zm.08.02c-.05.16-.06.32-.02.45.02.05.04.06.08.03.23-.17.47-.35.7-.53.02-.01.04-.04.04-.06,0-.1-.06-.19-.14-.24-.13-.09-.27-.09-.38,0-.13.09-.22.21-.27.36Z"/>
        <path class="cls-9" d="m160.15,134.59c.05-.15.14-.27.27-.36.12-.08.26-.08.38,0,.08.06.13.15.14.24,0,.02-.02.05-.04.06-.23.18-.47.35-.7.53-.04.03-.06.02-.08-.03-.04-.13-.03-.28.02-.45Zm.06.28s.04,0,.05,0c.18-.13.35-.26.52-.39.02-.01.02-.06,0-.09-.07-.13-.2-.15-.31-.06-.08.06-.12.16-.19.24-.08.09-.03.2-.08.31Z"/>
        <path class="cls-6" d="m160.22,134.87c.04-.1,0-.22.08-.31.07-.07.12-.17.19-.24.11-.09.24-.07.31.06.01.02.01.08,0,.09-.17.13-.35.26-.52.39,0,0-.02,0-.05,0Z"/>
      </g>
      <path class="cls-1" d="m160.45,119.75c-4.26,0-7.82-1.4-10.57-4.15-6.2-6.2-6.26-17.35-6.26-17.46h.5c0,.05.02,5.37,2.05,10.61,2.71,6.98,7.51,10.51,14.28,10.51v.5Z"/>
    </g>
  </g>
  <g>
    <path class="cls-1" d="m103.62,88.61l-42.97,3.97c-1.32.12-2.28,1.24-2.16,2.49l5.59,55.48c.13,1.25,1.3,2.17,2.62,2.05l42.98-3.97c1.32-.12,2.28-1.24,2.16-2.49l-5.59-55.48c-.13-1.25-1.3-2.17-2.62-2.05Z"/>
    <g>
      <g>
        <path class="cls-2" d="m80.2,99.49l-14.23,1.22c-.56.05-.97.55-.91,1.11l.11,1.35c.05.56.55.97,1.11.91l14.23-1.22c.56-.05.97-.55.91-1.11l-.11-1.35c-.05-.56-.55-.97-1.11-.91Z"/>
        <path class="cls-2" d="m81.02,107.18l-14.23,1.22c-.56.05-.97.55-.91,1.11l.11,1.35c.06.56.55.97,1.11.91l14.23-1.22c.56-.05.97-.55.91-1.11l-.11-1.35c-.05-.56-.55-.97-1.11-.91Z"/>
        <path class="cls-2" d="m81.84,114.61l-14.23,1.22c-.56.05-.97.55-.91,1.11l.11,1.35c.05.56.55.97,1.11.91l14.23-1.22c.56-.05.97-.55.91-1.11l-.11-1.35c-.05-.56-.55-.97-1.11-.91Z"/>
      </g>
      <g>
        <path class="cls-2" d="m82.31,122.61l-14.23,1.22c-.56.05-.97.55-.91,1.11l.11,1.35c.05.56.55.97,1.11.91l14.23-1.22c.56-.05.97-.55.91-1.11l-.11-1.35c-.05-.56-.55-.97-1.11-.91Z"/>
        <path class="cls-2" d="m83.12,130.3l-14.23,1.22c-.56.05-.97.55-.91,1.11l.11,1.35c.06.56.55.97,1.11.91l14.23-1.22c.56-.05.97-.55.91-1.11l-.11-1.35c-.05-.56-.55-.97-1.11-.91Z"/>
        <path class="cls-2" d="m83.94,137.72l-14.23,1.22c-.56.05-.97.55-.91,1.11l.11,1.35c.05.56.55.97,1.11.91l14.23-1.22c.56-.05.97-.55.91-1.11l-.11-1.35c-.05-.56-.55-.97-1.11-.91Z"/>
      </g>
    </g>
    <g>
      <g>
        <path class="cls-2" d="m100.55,97.63l-14.23,1.22c-.56.05-.97.55-.91,1.11l.11,1.35c.05.56.55.97,1.11.91l14.23-1.22c.56-.05.97-.55.91-1.11l-.11-1.35c-.05-.56-.55-.97-1.11-.91Z"/>
        <path class="cls-2" d="m101.36,105.32l-14.23,1.22c-.56.05-.97.55-.91,1.11l.11,1.35c.06.56.55.97,1.11.91l14.23-1.22c.56-.05.97-.55.91-1.11l-.11-1.35c-.05-.56-.55-.97-1.11-.91Z"/>
        <path class="cls-2" d="m102.18,112.75l-14.23,1.22c-.56.05-.97.55-.91,1.11l.11,1.35c.05.56.55.97,1.11.91l14.23-1.22c.56-.05.97-.55.91-1.11l-.11-1.35c-.05-.56-.55-.97-1.11-.91Z"/>
      </g>
      <g>
        <path class="cls-2" d="m102.65,120.75l-14.23,1.22c-.56.05-.97.55-.91,1.11l.11,1.35c.05.56.55.97,1.11.91l14.23-1.22c.56-.05.97-.55.91-1.11l-.11-1.35c-.05-.56-.55-.97-1.11-.91Z"/>
        <path class="cls-2" d="m103.46,128.44l-14.23,1.22c-.56.05-.97.55-.91,1.11l.11,1.35c.06.56.55.97,1.11.91l14.23-1.22c.56-.05.97-.55.91-1.11l-.11-1.35c-.05-.56-.55-.97-1.11-.91Z"/>
        <path class="cls-2" d="m104.28,135.86l-14.23,1.22c-.56.05-.97.55-.91,1.11l.11,1.35c.05.56.55.97,1.11.91l14.23-1.22c.56-.05.97-.55.91-1.11l-.11-1.35c-.05-.56-.55-.97-1.11-.91Z"/>
      </g>
    </g>
  </g>
  <path class="cls-4" d="m104.53,108.73c-.8-.2-1.5-.7-1.5-1.4,0-.6.9-1.2,1.9-1.1,2.8.2,5.6,1.3,7.8,3.3.8.7.6,1.9-.3,2.5-.9.6-2,.6-2.4.1-1.4-1.6-3.3-2.8-5.5-3.4Z"/>
</svg>