<?xml version="1.0" encoding="UTF-8"?>
<svg id="Layer_1" data-name="Layer 1" xmlns="http://www.w3.org/2000/svg" width="300" height="225" viewBox="0 0 300 225">
  <defs>
    <style>
      .cls-1 {
        fill: #fff;
      }

      .cls-2, .cls-3 {
        isolation: isolate;
      }

      .cls-3 {
        opacity: .35;
      }

      .cls-4 {
        fill: #232323;
      }

      .cls-5 {
        fill: #ff7e1c;
      }

      .cls-6 {
        fill: #444;
      }

      .cls-7 {
        fill: #472e1f;
      }

      .cls-8 {
        fill: #7f7f7f;
      }
    </style>
  </defs>
  <path class="cls-4" d="m223.05,100.22c-2.89-.18-5.51,1.67-5.76,4.83-.26,3.14,2.91,6.7,6.94,6.97,11.45.79,21.87-3.99,28.74-13.19,2.42-3.23,1.79-7.95-.75-9.8-2.56-1.87-5.67-1.09-7.42,1.22-5.2,6.95-13.08,10.57-21.75,9.98Z"/>
  <g>
    <path class="cls-4" d="m257.94,84.28c.64-.46,1.05-1.18.83-1.72-.22-.54-1.19-.73-2.08-.29-2.43,1.18-4.47,3.14-5.76,5.62-.48.92.1,1.92,1.14,2.14,1.04.23,1.96-.14,2.19-.81.64-1.93,1.9-3.69,3.69-4.95Z"/>
    <path class="cls-4" d="m260.63,87.91c.74-.26,1.34-.84,1.27-1.42-.06-.58-.94-1.03-1.92-.86-2.66.46-5.16,1.78-7.09,3.8-.72.75-.44,1.87.5,2.37.94.51,1.92.42,2.33-.17,1.14-1.67,2.84-3.01,4.92-3.73Z"/>
    <path class="cls-4" d="m261.2,92.5c.77.11,1.57-.14,1.78-.68.2-.54-.36-1.34-1.32-1.64-2.58-.8-5.4-.77-8.04.16-.98.34-1.24,1.46-.64,2.34.6.88,1.53,1.25,2.15.91,1.77-.97,3.91-1.39,6.08-1.08Z"/>
  </g>
  <g>
    <path class="cls-5" d="m56.44,33.16s25.99,3.82,35.07,9.11c9.08,5.29,21.92,11.89,30.37,13.6,8.45,1.71,24.11,9.83,24.74,10.31s-17.27,75.88-28.05,75.13c-10.78-.75-18.92-13.78-41.78-25.11-22.86-11.33-41.65-10.08-41.96-15.41-.31-5.32,15.83-68.59,21.61-67.63Z"/>
    <path class="cls-7" d="m265.08,95.47h0c-.4,1.73-2.13,2.82-3.86,2.42L47.62,23.13c-1.73-.4-2.82-2.13-2.42-3.86h0c.4-1.73,2.13-2.82,3.86-2.42l213.61,74.77c1.73.4,2.82,2.13,2.42,3.86Z"/>
    <g class="cls-2">
      <path class="cls-1" d="m74.78,58.16c-.22.52-.43,1.05-.63,1.59-.21.54-.37,1-.5,1.38-.13.38-.2.62-.21.73l1.85,1.23-.59,1.22-7.67-3.19.45-1.28,2.15.43c.07-.08.19-.3.35-.65.17-.36.37-.8.6-1.32.24-.53.47-1.06.69-1.6l.84-2.01c.28-.66.53-1.31.77-1.95.24-.64.39-1.08.45-1.3l-2.46-.48.56-1.55,7.14.23c-.36.7-.78,1.56-1.25,2.58-.47,1.02-.96,2.14-1.46,3.36l-1.08,2.59Z"/>
      <path class="cls-1" d="m82.61,65.64c.08-.06.27-.42.59-1.09.32-.67.67-1.48,1.06-2.42l1.28-3.07c.38-.92.7-1.74.96-2.44.26-.71.38-1.11.37-1.23l-1.33-1.04.6-1.19,6.93,2.88c1.65.69,2.77,1.46,3.35,2.33.59.87.65,1.85.19,2.96-.35.85-1.03,1.4-2.03,1.65-1,.25-2.14.16-3.42-.28l.34-.1c1.43.69,2.42,1.49,2.97,2.43.55.93.62,1.9.2,2.9-.53,1.28-1.48,2.04-2.83,2.29-1.36.25-3.02-.03-4.97-.85l-6.38-2.65.42-1.26,1.68.19Zm4.63-.92c-.24.59-.45,1.1-.61,1.53-.16.44-.28.75-.34.94.14.13.33.27.55.4s.46.26.7.36c.72.3,1.37.34,1.95.11s1-.68,1.28-1.36c.35-.85.38-1.56.1-2.15-.29-.59-.93-1.09-1.93-1.51-.2-.08-.39-.16-.58-.23-.19-.07-.4-.13-.62-.19l.69-1.66c.24.12.43.21.57.28.14.07.29.13.45.2.79.33,1.45.37,1.99.12.54-.24.97-.73,1.27-1.45.28-.68.32-1.3.12-1.86-.2-.56-.71-1.01-1.52-1.35l-.65-.27c-.08.15-.23.47-.44.97-.22.5-.47,1.09-.76,1.79l-2.22,5.33Z"/>
      <path class="cls-1" d="m113.25,64.29l-1.23,4.45-1.62-.54.23-3.1c-.13-.09-.28-.17-.46-.26-.18-.08-.39-.17-.62-.27l-.76-.32c-.12-.05-.26-.1-.41-.16-.15-.05-.26-.08-.34-.07-.03.08-.16.36-.38.85s-.47,1.07-.75,1.75c-.28.68-.57,1.38-.87,2.1l-.77,1.85c-.34.82-.64,1.57-.91,2.25-.27.68-.47,1.22-.62,1.61l1.87,1.24-.6,1.24-7.62-3.17.44-1.31,2.2.45c.19-.37.43-.89.73-1.56.3-.67.62-1.41.95-2.23l.77-1.85c.3-.72.59-1.43.86-2.11.27-.68.51-1.27.71-1.76.2-.5.3-.79.32-.87-.03-.05-.12-.11-.26-.18s-.28-.13-.42-.19l-.76-.32c-.23-.1-.46-.18-.67-.27s-.4-.14-.55-.16l-1.97,2.4-1.51-.79,2.22-4.03c.17.07.4.18.71.32.3.14.63.29.99.45.36.16.7.32,1.04.47.33.16.61.28.82.37l5.64,2.34c.21.09.49.2.83.32s.69.26,1.07.4c.37.15.71.27,1.02.38.31.11.54.2.71.27Z"/>
      <path class="cls-1" d="m116.62,81.98c-1.54-.64-2.78-1.47-3.72-2.48-.94-1.01-1.52-2.16-1.73-3.43-.21-1.27-.03-2.61.56-4.01.49-1.17,1.13-2.12,1.93-2.84.8-.72,1.7-1.24,2.71-1.54,1.01-.3,2.08-.4,3.2-.31,1.12.1,2.27.39,3.44.88.72.3,1.41.68,2.06,1.13.65.45,1.16.89,1.53,1.31l-1.36,3.72-1.59-.55.16-2.86c-.23-.28-.48-.51-.77-.7-.28-.19-.59-.35-.93-.5-.8-.33-1.57-.42-2.31-.27-.74.15-1.42.53-2.04,1.14-.62.61-1.16,1.45-1.61,2.53-.47,1.14-.7,2.21-.68,3.2.02.99.25,1.85.68,2.56.43.71,1.04,1.23,1.83,1.56.42.17.84.28,1.27.33.43.04.83.02,1.2-.08l1.68-1.82,1.64.87-1.98,2.86c-.62.16-1.41.18-2.37.06-.95-.12-1.89-.37-2.82-.75Z"/>
      <path class="cls-1" d="m93.98,87.13l-.9,2.17-10.02-4.17.9-2.17,10.02,4.17Zm1.71-4.11l-.9,2.17-10.02-4.17.9-2.17,10.02,4.17Z"/>
      <path class="cls-1" d="m62.48,94.2c-.22.52-.43,1.05-.63,1.59-.21.54-.37,1-.5,1.38-.13.38-.2.62-.21.73l1.85,1.23-.59,1.22-7.67-3.19.45-1.28,2.15.43c.07-.08.19-.3.35-.65.17-.36.37-.8.6-1.32.24-.53.47-1.06.69-1.6l.84-2.01c.27-.66.53-1.31.77-1.95.24-.64.39-1.08.45-1.3l-2.46-.48.56-1.55,7.14.23c-.36.7-.78,1.56-1.25,2.58-.47,1.02-.96,2.14-1.46,3.36l-1.08,2.59Z"/>
      <path class="cls-1" d="m70.31,101.68c.08-.06.27-.42.59-1.09.32-.67.67-1.48,1.06-2.42l1.28-3.07c.38-.92.71-1.74.96-2.44.26-.71.38-1.11.37-1.23l-1.33-1.04.6-1.19,6.93,2.88c1.65.69,2.77,1.46,3.35,2.33.59.87.65,1.85.19,2.96-.35.85-1.03,1.4-2.03,1.65-1,.25-2.14.16-3.42-.28l.34-.1c1.43.69,2.42,1.49,2.97,2.43.55.93.62,1.9.2,2.9-.53,1.28-1.48,2.04-2.83,2.29s-3.02-.03-4.97-.85l-6.38-2.65.42-1.26,1.68.19Zm4.63-.92c-.24.59-.45,1.1-.61,1.53-.16.44-.28.75-.34.94.14.13.33.27.55.4s.46.26.7.36c.72.3,1.37.34,1.95.1.57-.23,1-.68,1.28-1.36.35-.85.38-1.56.1-2.15-.29-.59-.93-1.09-1.93-1.51-.2-.08-.39-.16-.58-.23-.19-.07-.4-.13-.62-.19l.69-1.66c.24.12.43.21.57.28.14.07.29.13.45.2.79.33,1.45.37,1.99.12.54-.24.97-.73,1.27-1.45.28-.68.32-1.3.12-1.86-.2-.56-.71-1.01-1.52-1.35l-.65-.27c-.08.15-.23.47-.44.97-.22.5-.47,1.09-.76,1.79l-2.22,5.34Z"/>
      <path class="cls-1" d="m100.94,100.33l-1.23,4.45-1.62-.54.23-3.1c-.13-.09-.28-.17-.46-.26-.18-.08-.39-.17-.62-.27l-.76-.32c-.12-.05-.26-.1-.41-.16-.15-.05-.26-.08-.34-.07-.03.08-.16.36-.38.84-.22.49-.47,1.07-.75,1.75-.28.68-.57,1.38-.87,2.1l-.77,1.85c-.34.82-.64,1.57-.91,2.25-.27.68-.47,1.22-.62,1.61l1.87,1.24-.6,1.24-7.62-3.17.44-1.31,2.2.45c.19-.37.43-.89.73-1.56.3-.67.62-1.41.95-2.23l.77-1.85c.3-.72.59-1.43.86-2.11.27-.68.51-1.27.71-1.76.2-.5.3-.79.32-.87-.03-.05-.12-.11-.26-.18-.14-.07-.28-.13-.42-.19l-.76-.32c-.23-.1-.46-.18-.67-.27-.22-.08-.4-.14-.55-.16l-1.98,2.4-1.51-.79,2.22-4.03c.17.07.4.18.71.32.3.14.63.29.99.45.36.16.7.32,1.04.47.33.16.61.28.82.37l5.64,2.34c.22.09.49.2.83.32.34.12.69.26,1.06.4.37.15.71.27,1.02.38.31.11.54.2.71.27Z"/>
      <path class="cls-1" d="m104.32,118.01c-1.54-.64-2.78-1.47-3.72-2.48s-1.52-2.16-1.73-3.43c-.21-1.27-.03-2.61.56-4.01.49-1.17,1.13-2.12,1.93-2.84.8-.72,1.7-1.24,2.71-1.54,1.01-.3,2.08-.4,3.2-.31,1.12.1,2.27.39,3.44.88.72.3,1.41.68,2.06,1.13.65.45,1.16.89,1.53,1.31l-1.36,3.72-1.59-.55.16-2.86c-.23-.28-.48-.51-.77-.7-.28-.19-.59-.35-.93-.5-.8-.33-1.57-.42-2.31-.27-.74.15-1.42.53-2.05,1.14-.62.61-1.16,1.45-1.61,2.53-.47,1.14-.7,2.21-.68,3.2.02.99.25,1.85.68,2.56s1.04,1.23,1.83,1.56c.42.17.84.28,1.27.33s.83.02,1.2-.08l1.68-1.82,1.64.87-1.98,2.86c-.62.16-1.41.18-2.37.06-.95-.12-1.89-.37-2.82-.75Z"/>
    </g>
    <g>
      <path class="cls-1" d="m56.23,37.33c-.08,0-.17-.02-.25-.07-.24-.14-.32-.44-.19-.68,1.52-2.65,3.78-7.38,3.38-8.74-.04-.14-.1-.17-.12-.18-1.83-.94-2.07-3.8-1.24-5.92.58-1.47,1.58-2.21,2.61-1.92.27.07.42.35.35.62-.08.27-.35.42-.62.35-.59-.17-1.11.57-1.41,1.32-.66,1.68-.51,4.01.76,4.66.21.11.48.33.62.79.66,2.22-3.04,8.78-3.47,9.52-.09.16-.26.25-.43.25Z"/>
      <path class="cls-1" d="m60.66,28.32c-.3,0-.56-.08-.77-.24-.65-.49-.75-1.55-.94-3.67-.23-2.48,1.6-3.56,2.59-3.78.27-.06.54.11.6.38.06.27-.11.54-.37.6h0c-.21.05-2.02.54-1.82,2.69.15,1.55.26,2.77.56,2.99.06.05.18.05.35.02.27-.05.53.13.58.4.05.27-.13.53-.4.58-.13.02-.25.03-.36.03Z"/>
      <path class="cls-1" d="m62.2,29.05c-.29,0-.54-.08-.75-.24-.67-.5-.77-1.65-.97-3.93-.23-2.62,1.59-3.77,2.59-4.01.27-.06.54.1.6.37.06.27-.1.54-.36.6h0c-.08.02-2.04.55-1.83,2.93.15,1.69.26,3.01.57,3.24.06.04.17.05.33.02.27-.05.53.12.59.4.05.27-.12.53-.4.59-.13.03-.25.04-.37.04Z"/>
    </g>
    <g>
      <path class="cls-1" d="m143.62,67.73c-.09,0-.19-.03-.27-.08-.23-.15-.3-.46-.15-.69,1.59-2.44,3.96-6.81,3.59-8.16-.04-.14-.1-.18-.15-.21-1.81-.87-1.91-3.24-1.24-5.08.58-1.59,1.83-3.02,3.3-2.63.27.07.43.34.36.61-.07.27-.34.43-.61.36-.82-.22-1.68.85-2.11,2.01-.52,1.43-.52,3.24.73,3.83.34.16.57.45.68.84.62,2.22-3.27,8.29-3.71,8.97-.1.15-.26.23-.42.23Z"/>
      <path class="cls-1" d="m148.34,59.25c-.33,0-.6-.09-.83-.26-.66-.51-.77-1.56-.98-3.67-.25-2.46,1.84-3.78,2.98-4.13.26-.08.54.07.62.33.08.26-.06.54-.33.63-.1.03-2.51.82-2.29,3.05.16,1.55.28,2.75.59,2.99.03.02.12.09.43.04.28-.05.53.14.58.41s-.14.53-.41.58c-.13.02-.26.03-.37.03Z"/>
      <path class="cls-1" d="m150.01,59.99c-.32,0-.58-.08-.81-.26-.68-.52-.79-1.66-1-3.93-.25-2.64,1.7-3.79,2.76-4.03.27-.06.54.11.6.38.06.27-.11.54-.38.6h0c-.09.02-2.22.55-1.99,2.94.16,1.68.28,2.99.61,3.25.03.02.11.08.41.03.27-.05.53.13.58.4.05.27-.13.53-.4.58-.13.02-.26.04-.38.04Z"/>
    </g>
  </g>
  <g>
    <g class="cls-3">
      <ellipse class="cls-4" cx="205.4" cy="201.09" rx="44.25" ry="7.14"/>
    </g>
    <path class="cls-6" d="m171.96,132.82c-.13,1.93-.16,3.76-.11,5.46,0-1.72.03-3.55.11-5.46Z"/>
    <g>
      <g>
        <path class="cls-4" d="m209.65,152.35c.17,1.3,4.49,38.2,10.77,43.37,6.29,5.17,9.59,3.43,10.86,2.05,1.34-1.44,3.03-4.03-.1-6.94-2.52-2.35-4.29-12.74-1.77-28.96l-19.75-9.52Z"/>
        <path class="cls-4" d="m235.71,193.76c.79.22,1.66.09,1.95-.44.29-.53-.18-1.45-1.12-1.9-2.56-1.22-5.5-1.61-8.38-1.05-1.07.21-1.51,1.34-1.02,2.33.49,1.01,1.4,1.52,2.09,1.27,2-.74,4.27-.86,6.48-.21Z"/>
        <path class="cls-4" d="m234.48,198.34c.69.44,1.56.55,1.99.12.43-.43.24-1.44-.55-2.13-2.12-1.88-4.84-3.08-7.77-3.34-1.09-.1-1.82.86-1.62,1.96.19,1.1.92,1.86,1.66,1.8,2.12-.16,4.34.36,6.29,1.6Z"/>
        <path class="cls-4" d="m231.09,201.82c.42.7,1.14,1.2,1.73,1.01.58-.19.87-1.18.48-2.15-1.03-2.64-2.91-4.94-5.4-6.51-.93-.58-2.01-.06-2.34,1.01-.33,1.07-.03,2.07.65,2.36,1.96.83,3.7,2.3,4.87,4.28Z"/>
      </g>
      <path class="cls-1" d="m188.95,96.33c7.26-4.03,16.47-6.19,33.46-6.86-4.05-1.71-9.41-2.51-17.26-2.51h-.01c-13.43,0-19.64,2.29-24.32,7.61-5.52,6.28-8.31,24.25-8.87,38.24.89-13.13,6.22-30.49,16.99-36.48Z"/>
      <path class="cls-6" d="m160.21,155.35c-1.92,1.36-4.4,1.83-5.7.67-1.3-1.15-.91-4.1,1.22-6.21,5.77-5.75,13.35-9.62,21.69-10.86,3.11-.45,5.36,2.17,4.98,5.34-.38,3.19-2.32,5.47-4.45,5.44-6.1-.1-12.36,1.77-17.74,5.62Z"/>
      <path class="cls-6" d="m229.46,94.58c-1.7-1.94-3.62-3.48-6.02-4.65-.33-.16-.69-.31-1.04-.45-2.74.11-5.25.26-7.61.44-5.78.2-10.31.85-13.99,2.01-4.74,1.1-8.51,2.55-11.85,4.41-10.77,5.98-16.1,23.35-16.99,36.48-.07,1.91-.11,3.74-.11,5.46.02,4.44.3,8.13.83,10.36.02.1.07.2.1.3,2.7,12.21,16.21,21.5,32.48,21.5,18.22,0,32.98-11.64,32.98-25.99,0-.13-.01-.26-.01-.39.99-13.17-1.57-41.28-8.77-49.48Z"/>
      <g>
        <path class="cls-1" d="m182.81,66.73c-.26-12.13,9.13-17.71,29.86-15.68,6.58.64,13.82-6.05,18.75-6.71,14.18-1.88,16,7.46,16,7.46h.03c-4.25-16.31-21.86-28.26-42.64-27.73-23.58.6-42.29,17.05-41.79,36.74.5,19.69,20.02,35.17,43.6,34.57,2.05-.05,4.07-.23,6.04-.52v-.02c-20.73,1.97-29.51-12-29.85-28.1Z"/>
        <path class="cls-6" d="m247.44,51.8h-.03s-1.82-9.34-16-7.46c-4.93.65-12.17,7.35-18.75,6.71-14.88-1.46-23.91,1-27.73,6.99-.49-.37-1-.56-1.52-.54-2.69.1-4.66,5.76-4.4,12.64.26,6.87,2.66,12.36,5.36,12.26.61-.02,1.17-.34,1.69-.88,4.22,8.81,12.74,14.62,26.6,13.31v.02c20.65-2.98,36.21-18.25,35.75-36.22-.06-2.34-.4-4.62-.97-6.83Z"/>
        <path class="cls-8" d="m221.83,88.34c-4.52.29-13.45-3.38-11.99-12.81,1.46-9.43,12.16-10.86,15.72-11.08,3.57-.23,14.04-.16,12.58,9.26-1.46,9.43-11.79,14.34-16.32,14.64Z"/>
        <path class="cls-4" d="m225.39,66.91c1.96-.13,4.54,1.79,4.51,4.22-.04,2.43-5.71,2.71-5.71,2.71h-.16s-5.7.46-4.98-2.01c.72-2.48,3.95-4.76,5.91-4.89l.43-.03Z"/>
        <path class="cls-4" d="m222.14,84.05c-.91,0-1.78-.16-2.57-.47-.94-.38-1.74-.94-2.38-1.67s-1.1-1.61-1.37-2.6c-.09-.33.11-.67.44-.76.33-.09.67.11.76.44.21.81.58,1.51,1.1,2.1.51.58,1.15,1.03,1.9,1.33.77.31,1.64.43,2.56.37.94-.06,1.88-.31,2.8-.74.9-.42,1.73-.99,2.49-1.7.75-.71,1.38-1.52,1.87-2.41.17-.3.55-.41.85-.25.3.17.41.55.25.85-.55,1-1.26,1.91-2.11,2.71-.85.8-1.8,1.44-2.81,1.92-1.06.5-2.16.78-3.25.85-.18.01-.35.02-.53.02Z"/>
        <circle class="cls-4" cx="207.08" cy="62.37" r="1.75"/>
        <circle class="cls-4" cx="235.27" cy="57.16" r="1.75"/>
        <path class="cls-4" d="m185.56,62.18c-2.22.1-3.99,4.3-4.63,10.22-.08-.74-.14-1.52-.17-2.32-.18-5.4,1.1-9.84,2.86-9.92.75-.04,1.46.73,2.05,2.03-.04,0-.07-.01-.11-.01Z"/>
        <path class="cls-8" d="m201.6,63.29s-.03,0-.05,0c-.38-.03-.67-.36-.64-.73.05-.7.23-1.38.54-2.01.31-.63.73-1.19,1.26-1.66.54-.48,1.16-.85,1.86-1.09.69-.24,1.41-.33,2.14-.28.38.03.67.36.64.73-.03.38-.35.67-.74.64-.54-.04-1.08.03-1.6.21-.52.18-.99.45-1.39.81-.39.35-.71.77-.94,1.24-.23.47-.37.98-.4,1.5-.03.36-.33.64-.69.64Z"/>
        <path class="cls-8" d="m240.07,56.2c-.28,0-.54-.17-.65-.45-.19-.51-.47-.97-.84-1.37-.38-.41-.82-.72-1.31-.93-.48-.22-.99-.33-1.52-.35-.52-.01-1.05.07-1.54.25-.36.13-.75-.05-.88-.41s.05-.75.41-.88c.65-.24,1.36-.35,2.05-.33.71.02,1.39.18,2.03.47.65.29,1.25.71,1.75,1.25.5.53.88,1.15,1.13,1.84.13.36-.05.75-.41.88-.08.03-.16.04-.24.04Z"/>
      </g>
      <g>
        <path class="cls-4" d="m193.78,99.19c-.15-2.89-2.29-5.28-5.45-5.17-3.15.1-6.32,3.65-6.13,7.69.52,11.46,6.45,21.28,16.37,27.06,3.48,2.03,8.1.87,9.65-1.86,1.56-2.75.43-5.76-2.05-7.24-7.5-4.37-11.99-11.79-12.39-20.47Z"/>
        <path class="cls-4" d="m211.84,126.86c.7.34,1.54.36,1.9-.08.37-.45.08-1.39-.73-1.97-2.19-1.58-4.88-2.44-7.68-2.41-1.04.02-1.64,1-1.35,2.02.29,1.03,1.05,1.66,1.75,1.54,2-.35,4.15-.08,6.11.9Z"/>
        <path class="cls-4" d="m209.92,130.95c.58.52,1.38.78,1.85.45.48-.33.46-1.31-.15-2.09-1.67-2.12-4.01-3.7-6.71-4.44-1-.27-1.85.5-1.85,1.56,0,1.06.55,1.89,1.25,1.97,2.01.21,4,1.08,5.62,2.56Z"/>
        <path class="cls-4" d="m206.16,133.63c.27.73.87,1.32,1.45,1.24.57-.08,1.01-.96.81-1.94-.52-2.65-1.89-5.12-3.95-7-.77-.7-1.88-.4-2.36.55-.48.94-.37,1.93.22,2.32,1.69,1.1,3.07,2.78,3.84,4.84Z"/>
      </g>
      <g>
        <path class="cls-4" d="m186.37,149.66c-4.2,3.44-14.88,35.46-11.95,43.06,2.93,7.59,6.66,7.7,8.44,7.13,1.87-.6,4.61-2.02,3.33-6.1-1.04-3.28,6.14-13.49,12.7-26.09,6.56-12.6-8.32-21.44-12.52-18Z"/>
        <path class="cls-4" d="m187.54,198.37c.58.58,1.4.89,1.92.57.52-.32.56-1.35-.04-2.21-1.63-2.32-3.99-4.11-6.78-5.04-1.04-.34-1.98.42-2.04,1.53-.06,1.12.46,2.02,1.2,2.14,2.1.34,4.14,1.35,5.75,3Z"/>
        <path class="cls-4" d="m184.22,201.76c.39.72,1.09,1.25,1.68,1.08.59-.16.91-1.14.57-2.13-.92-2.68-2.7-5.06-5.12-6.73-.9-.62-2.01-.14-2.38.91-.37,1.05-.12,2.07.56,2.39,1.92.91,3.6,2.45,4.69,4.48Z"/>
        <path class="cls-4" d="m179.56,203.11c.02.82.4,1.61,1,1.73.59.12,1.33-.6,1.48-1.64.4-2.81-.1-5.73-1.5-8.32-.52-.97-1.72-1.05-2.53-.28-.81.77-1.05,1.79-.59,2.38,1.3,1.68,2.09,3.82,2.14,6.12Z"/>
      </g>
    </g>
  </g>
</svg>