<?xml version="1.0" encoding="UTF-8"?>
<svg id="Layer_1" data-name="Layer 1" xmlns="http://www.w3.org/2000/svg" width="300" height="225" viewBox="0 0 300 225">
  <defs>
    <style>
      .cls-1 {
        fill: #fff;
      }

      .cls-2 {
        fill: #23140a;
      }

      .cls-3 {
        isolation: isolate;
        opacity: .35;
      }

      .cls-4 {
        fill: #232323;
      }

      .cls-5 {
        fill: #444;
      }

      .cls-6 {
        fill: #7f7f7f;
      }
    </style>
  </defs>
  <g>
    <g class="cls-3">
      <ellipse class="cls-4" cx="161.53" cy="193.18" rx="50.33" ry="8.14"/>
    </g>
    <g>
      <g>
        <g>
          <path class="cls-4" d="m164.64,144.28c.23,1.47,4.86,42.41,11.87,48.18,7.01,5.77,10.63,3.85,12.1,2.26,1.47-1.58,3.39-4.41-.11-7.69-2.83-2.6-4.75-14.14-1.92-32.12l-21.94-10.63Z"/>
          <g>
            <path class="cls-4" d="m193.47,190.31c.9.23,1.81.11,2.15-.45.34-.57-.23-1.58-1.24-2.15-2.83-1.36-6.11-1.81-9.27-1.24-1.24.23-1.7,1.47-1.13,2.6s1.58,1.7,2.37,1.47c2.15-.79,4.64-.9,7.12-.23Z"/>
            <path class="cls-4" d="m192.12,195.39c.79.45,1.7.57,2.26.11.45-.45.23-1.58-.57-2.37-2.37-2.15-5.32-3.39-8.6-3.73-1.24-.11-2.04.9-1.81,2.15.23,1.24,1.02,2.04,1.81,2.04,2.26-.11,4.75.45,6.9,1.81Z"/>
            <path class="cls-4" d="m188.27,199.24c.45.79,1.24,1.36,1.92,1.13.68-.23,1.02-1.36.57-2.37-1.13-2.94-3.17-5.54-5.99-7.24-1.02-.68-2.26-.11-2.6,1.13-.34,1.13,0,2.26.68,2.6,2.26.9,4.18,2.6,5.43,4.75Z"/>
          </g>
        </g>
        <g>
          <path class="cls-4" d="m160.34,143.94c-.23,1.47-5.09,42.41-11.99,48.06-7.01,5.77-10.63,3.73-12.1,2.26-1.47-1.58-3.39-4.52.11-7.69,2.83-2.6,4.75-14.14,2.04-32.12l21.94-10.52Z"/>
          <g>
            <path class="cls-4" d="m132.52,190.31c-.9.23-1.81.11-2.15-.45s.23-1.58,1.24-2.15c2.83-1.36,6.11-1.81,9.27-1.13,1.24.23,1.7,1.47,1.13,2.6s-1.58,1.7-2.37,1.36c-2.15-.79-4.64-.9-7.12-.23Z"/>
            <path class="cls-4" d="m133.87,195.39c-.79.45-1.7.57-2.26.11-.45-.45-.23-1.58.57-2.37,2.37-2.04,5.43-3.39,8.6-3.73,1.24-.11,2.04,1.02,1.81,2.15-.23,1.24-1.02,2.04-1.81,2.04-2.26-.11-4.75.45-6.9,1.81Z"/>
            <path class="cls-4" d="m137.72,199.24c-.45.79-1.24,1.36-1.92,1.13s-.9-1.36-.57-2.37c1.13-2.94,3.28-5.43,5.99-7.24,1.02-.68,2.26-.11,2.6,1.13.34,1.13,0,2.26-.68,2.6-2.26.9-4.18,2.6-5.43,4.75Z"/>
          </g>
        </g>
      </g>
      <path class="cls-5" d="m199.69,122.68c-1.47-14.14-7.35-31.33-18.55-37.55-4.75-2.71-10.29-4.64-17.98-5.88-1.81.34-3.51.68-5.09,1.02-.23.11-.57.11-.79.23-.45.11-.9.23-1.36.34-.34.11-.57.11-.9.23-.45.11-.9.23-1.36.45-.23.11-.45.11-.68.23-.68.23-1.24.45-1.92.68-.23.11-.34.11-.57.23-.45.23-.9.34-1.36.57-.23.11-.45.23-.57.23-.45.23-.79.34-1.24.57-.23.11-.34.11-.57.23-.57.23-1.13.57-1.7.9-11.99,6.67-17.87,25.9-18.89,40.49-.11,2.15-.11,4.18-.11,6.11,0,4.98.34,9.05.9,11.54,0,.11.11.23.11.34,2.94,13.57,17.98,23.86,35.96,23.86,20.24,0,36.64-12.89,36.64-28.73v-.45c.34-4.3.34-9.73,0-15.61Z"/>
      <path class="cls-1" d="m190.19,83.09c-4.64-5.32-10.63-7.92-22.51-8.37h-6.79c-.79,0-1.47,0-2.15.11h-.23c-11.87.45-17.87,3.05-22.51,8.26-6.11,7.01-9.27,26.92-9.95,42.41,1.02-14.59,7.01-33.81,18.89-40.49,4.75-2.6,10.4-4.52,17.98-5.77,7.69,1.24,13.23,3.28,17.98,5.88,11.99,6.67,17.87,25.9,18.77,40.49-.34-15.61-3.39-35.51-9.5-42.52Z"/>
      <path class="cls-1" d="m162.94,28.02c-6.56,0-14.14-2.6-18.43-3.73-5.09-1.24-7.46-1.36-11.2-1.36-11.31,0-14.82,5.88-15.72,8.37,7.46-22.84,30.99-26.12,45.01-26.01h1.13c13.91,0,37.55,3.28,44.9,26.24-.9-2.37-4.41-8.37-15.72-8.37-3.73,0-6.11,0-11.2,1.24-4.3,1.13-11.99,3.62-18.43,3.62h-.34Z"/>
      <path class="cls-5" d="m208.52,31.52h0c-.9-2.49-4.41-8.37-15.72-8.37-3.73,0-6.11,0-11.2,1.24-4.3,1.13-11.99,3.62-18.43,3.62h-.23c-6.56,0-14.14-2.6-18.43-3.73-5.09-1.24-7.46-1.36-11.2-1.36-11.31,0-14.82,5.88-15.72,8.37h0c-2.37,2.26-3.96,8.26-3.85,15.38.23,8.93,3.28,16.06,6.79,15.95h.23c8.14,16.4,30.42,23.98,42.07,23.98s34.15-7.46,42.41-23.86h.23c3.51.11,6.56-7.01,6.9-15.95.11-7.01-1.47-13.01-3.85-15.27Z"/>
      <path class="cls-6" d="m162.94,74.84c-5.88,0-18.43-5.54-18.43-17.53s13.91-12.89,18.55-12.89,18.55,1.02,18.43,13.01c0,11.99-12.67,17.42-18.55,17.42Z"/>
      <path class="cls-4" d="m163.28,47.47c2.6,0,6.33,2.71,6.79,5.77.45,3.17-7.01,3.05-7.01,3.05h-.23s-7.46.11-7.01-3.05c.45-3.17,4.3-5.77,6.79-5.77h.68Z"/>
      <g>
        <circle class="cls-4" cx="144.05" cy="38.31" r="2.26"/>
        <path class="cls-4" d="m184.2,38.42c0,1.24-1.02,2.26-2.26,2.26s-2.26-1.02-2.26-2.26,1.02-2.26,2.26-2.26,2.26,1.02,2.26,2.26Z"/>
      </g>
      <path class="cls-4" d="m203.65,36.61c2.83.11,5.2,5.54,6.11,13.23.11-1.02.23-1.92.23-3.05.23-7.01-1.47-12.78-3.85-12.89-1.02,0-1.92,1.02-2.6,2.6,0,.11.11.11.11.11Z"/>
      <path class="cls-4" d="m122.34,36.39c-2.83.11-5.2,5.54-6.11,13.23-.11-1.02-.11-1.92-.23-3.05-.11-7.01,1.58-12.78,3.85-12.89,1.02,0,1.92,1.02,2.6,2.71,0,.11,0,0-.11,0Z"/>
      <path class="cls-6" d="m148.58,32.88c-.23,0-.45-.1-.61-.28-.45-.53-1-.93-1.74-1.25-.79-.34-1.46-.5-2.06-.5-.77-.09-1.31.06-1.98.26l-.18.05c-.67.3-1.24.59-1.69,1.04-.31.31-.81.31-1.12,0-.31-.31-.31-.81,0-1.12.7-.7,1.55-1.1,2.28-1.41l.27-.08c.75-.22,1.52-.44,2.52-.31.71,0,1.6.2,2.59.62.97.41,1.73.97,2.33,1.69.28.33.23.83-.1,1.11-.15.12-.33.18-.51.18Z"/>
      <path class="cls-6" d="m186.58,32.88c-.23,0-.45-.1-.61-.28-.45-.53-1-.93-1.74-1.25-.79-.34-1.46-.5-2.06-.5h-.11c-.63-.1-1.32.1-2.05.31-.67.3-1.24.59-1.69,1.04-.31.31-.81.31-1.12,0-.31-.31-.31-.81,0-1.12.7-.7,1.55-1.1,2.28-1.41.93-.27,1.8-.52,2.74-.4.8,0,1.66.22,2.63.63.97.41,1.73.97,2.33,1.69.28.33.23.83-.1,1.11-.15.12-.33.18-.51.18Z"/>
      <path class="cls-4" d="m162.94,69.56c-1.66,0-3.15-.46-4.11-.84-1.38-.63-2.46-1.36-3.41-2.31-1.02-1.02-1.83-2.23-2.31-3.41-.15-.37.03-.78.4-.93.37-.15.78.03.93.4.4.99,1.12,2.06,1.99,2.93.82.82,1.76,1.46,2.96,2,.81.32,2.12.73,3.55.73,1.33,0,2.46-.23,3.55-.73,1.02-.41,2.09-1.14,2.96-2,.83-.82,1.46-1.76,2-2.96.16-.36.59-.52.95-.36.36.16.52.59.36.95-.62,1.35-1.34,2.43-2.29,3.38-1.01,1.01-2.22,1.83-3.41,2.31-1.25.57-2.57.84-4.11.84Z"/>
      <g>
        <path class="cls-4" d="m182.33,93.68c-2.87-1.45-4.29-4.72-2.79-7.84,1.51-3.12,6.57-4.82,10.5-2.8,11.46,5.68,18.76,16.1,20.19,28.76.52,4.4-2.72,8.6-6.24,8.92-3.52.32-6.04-2.13-6.39-5.3-1.18-9.47-6.65-17.4-15.27-21.74Z"/>
        <path class="cls-4" d="m204.27,125.64c.09.91-.16,1.89-.8,2.15s-1.61-.45-1.96-1.53c-1.02-3.02-.96-6.39.08-9.52.44-1.14,1.74-1.55,2.74-.72,1.08.69,1.44,1.77,1.14,2.53-1.18,2-1.65,4.54-1.2,7.1Z"/>
        <path class="cls-4" d="m209.4,123.69c.53.81.72,1.69.27,2.26s-1.66.37-2.43-.5c-2.25-2.28-3.84-5.29-4.22-8.56-.16-1.24.8-2.15,2.11-1.98,1.31.17,2.17.91,2.12,1.73-.15,2.47.64,4.96,2.15,7.05Z"/>
        <path class="cls-4" d="m199,124.84c-.13.96-.65,1.77-1.34,1.8-.69.04-1.46-.83-1.48-1.99-.14-3.21.77-6.43,2.71-9.18.71-.97,2.11-.93,2.91.05s.93,2.11.37,2.7c-1.69,1.77-2.93,4.01-3.16,6.61Z"/>
      </g>
    </g>
  </g>
  <g>
    <path class="cls-4" d="m125.25,111.88c2.52,5.02,1.1,11.09-4.26,13.89-5.36,2.8-14.24-.09-17.63-7.02-10.15-19.9-9.52-42.12,1.67-61.35,3.86-6.71,12.78-9.22,18.04-6,5.27,3.22,6.24,9.28,3.44,14.09-8.29,14.68-8.81,31.33-1.26,46.39Z"/>
    <g>
      <path class="cls-1" d="m165.03,60.34l-84.55,10.88c-2.59.33-4.42,2.6-4.08,5.07l14.97,109.12c.34,2.47,2.72,4.2,5.32,3.86l84.55-10.88c2.59-.33,4.42-2.61,4.08-5.07l-14.97-109.12c-.34-2.47-2.72-4.2-5.32-3.86Z"/>
      <g>
        <path class="cls-2" d="m88.88,84.76l-.15-1.13,2.59-.34.3,2.31c-.45.4-.86.69-1.22.86s-.81.29-1.33.36c-.64.08-1.18.04-1.62-.12s-.79-.45-1.07-.86-.46-.89-.53-1.45c-.08-.59-.02-1.12.16-1.59s.5-.85.94-1.14c.34-.22.83-.38,1.45-.46s1.05-.08,1.36-.01.58.21.81.41.41.47.56.81l-1.58.5c-.09-.2-.23-.34-.4-.42s-.38-.12-.63-.08c-.37.05-.64.21-.83.5s-.24.7-.17,1.25c.08.59.24.99.5,1.21s.58.31.97.26c.19-.02.36-.08.53-.15s.35-.19.55-.35l-.07-.51-1.12.15Z"/>
        <path class="cls-2" d="m92.64,84.27c-.08-.6.06-1.12.41-1.56s.87-.71,1.56-.8c.79-.1,1.41.05,1.87.45.37.32.59.76.66,1.29.08.6-.06,1.12-.41,1.56s-.88.7-1.59.8c-.63.08-1.16-.01-1.59-.28-.53-.33-.84-.82-.92-1.47Zm1.51-.2c.05.35.15.6.31.75s.35.21.57.18.38-.13.5-.32.15-.46.1-.82c-.04-.34-.15-.58-.31-.73s-.35-.21-.55-.18c-.22.03-.39.14-.51.32s-.16.45-.11.8Z"/>
        <path class="cls-2" d="m97.36,81.65l1.56-.21,1.09,2.39.46-2.59,1.52-.2-1.15,4.14-1.33.17-2.15-3.71Z"/>
        <path class="cls-2" d="m107.35,82.71l-3.02.4c.06.24.15.41.27.51.17.15.37.21.6.18.15-.02.28-.07.41-.17.08-.06.15-.15.23-.28l1.5-.06c-.17.42-.41.74-.71.96s-.75.36-1.34.44c-.52.07-.94.05-1.26-.06s-.59-.31-.83-.6-.38-.66-.44-1.09c-.08-.61.05-1.14.39-1.57s.86-.69,1.55-.78c.56-.07,1.02-.05,1.36.08s.63.34.84.64.35.71.42,1.23l.02.17Zm-1.62-.52c-.07-.29-.17-.48-.32-.59s-.32-.15-.53-.12c-.24.03-.42.15-.54.36-.08.13-.11.31-.1.55l1.48-.19Z"/>
        <path class="cls-2" d="m108.2,80.23l1.41-.18.08.64c.1-.3.21-.51.34-.63s.3-.2.51-.23.47,0,.76.11l-.33,1.13c-.19-.05-.33-.07-.44-.06-.2.03-.34.13-.43.3-.13.25-.15.69-.06,1.32l.17,1.32-1.51.2-.51-3.92Z"/>
        <path class="cls-2" d="m112.38,79.68l1.4-.18.08.64c.18-.29.36-.5.56-.64s.45-.23.76-.27c.42-.05.76.03,1.03.24s.44.58.5,1.1l.33,2.49-1.51.2-.28-2.16c-.03-.25-.1-.41-.21-.5s-.24-.12-.4-.1c-.18.02-.32.11-.42.27s-.12.41-.07.76l.25,1.88-1.5.2-.51-3.92Z"/>
        <path class="cls-2" d="m117.89,78.96l1.4-.18.08.57c.17-.27.35-.46.55-.59.19-.13.43-.21.73-.25.31-.04.57-.02.77.07s.37.23.51.44c.2-.29.39-.49.58-.61.18-.12.42-.2.7-.23.42-.06.77.03,1.03.25.27.22.44.59.51,1.13l.32,2.46-1.51.2-.29-2.24c-.02-.18-.08-.3-.15-.38-.12-.12-.25-.17-.4-.15-.18.02-.31.11-.4.25s-.12.36-.08.64l.27,2.02-1.51.2-.28-2.16c-.02-.17-.05-.29-.08-.35-.04-.09-.11-.17-.2-.22-.09-.05-.18-.07-.29-.05-.17.02-.31.11-.4.25-.09.15-.12.37-.08.66l.26,2-1.51.2-.51-3.92Z"/>
        <path class="cls-2" d="m130.56,79.67l-3.02.4c.06.24.15.41.27.51.17.15.37.21.6.18.15-.02.28-.07.41-.17.08-.06.15-.15.23-.28l1.5-.06c-.17.42-.41.74-.71.96s-.75.36-1.34.44c-.52.07-.94.05-1.26-.06s-.59-.31-.83-.6-.38-.66-.44-1.09c-.08-.61.05-1.14.39-1.57s.86-.69,1.55-.78c.56-.07,1.02-.05,1.36.08s.63.34.84.64.35.71.42,1.23l.02.17Zm-1.62-.52c-.07-.29-.17-.48-.32-.59s-.32-.15-.53-.12c-.24.03-.42.15-.54.36-.08.13-.11.31-.1.55l1.48-.19Z"/>
        <path class="cls-2" d="m131.4,77.18l1.4-.18.08.64c.18-.29.36-.5.56-.64s.45-.23.76-.27c.42-.05.76.03,1.03.24s.44.58.5,1.1l.33,2.49-1.51.2-.28-2.16c-.03-.25-.1-.41-.21-.5s-.24-.12-.4-.1c-.18.02-.32.11-.42.27s-.12.41-.07.76l.25,1.88-1.5.2-.51-3.92Z"/>
        <path class="cls-2" d="m138.52,74.73l.2,1.49.83-.11.14,1.1-.83.11.18,1.39c.02.17.05.28.09.33.06.08.15.11.28.09.11-.01.26-.07.45-.16l.25,1.02c-.36.13-.7.22-1.03.26-.37.05-.66.04-.85-.04-.19-.07-.34-.2-.45-.39s-.19-.5-.25-.93l-.18-1.38-.55.07-.14-1.1.55-.07-.09-.72,1.41-.97Z"/>
        <path class="cls-2" d="m147.9,75.02l1.45-.19.95,2.39.47-2.58,1.36-.18,1.15,2.37.31-2.56,1.45-.19-.93,4.11-1.34.18-1.1-2.26-.46,2.46-1.34.18-1.97-3.73Z"/>
        <path class="cls-2" d="m155.8,72.47l1.5-.2.13,1.02-1.5.2-.13-1.02Zm.2,1.49l1.5-.2.51,3.92-1.5.2-.51-3.92Z"/>
        <path class="cls-2" d="m158.77,72.08l1.51-.2.71,5.42-1.51.2-.71-5.42Z"/>
        <path class="cls-2" d="m161.74,71.69l1.51-.2.71,5.42-1.51.2-.71-5.42Z"/>
        <path class="cls-2" d="m88.61,90.51l.2,1.49.83-.11.14,1.1-.83.11.18,1.39c.02.17.05.28.09.33.06.08.15.11.28.09.11-.01.26-.07.45-.16l.25,1.02c-.36.13-.7.22-1.03.26-.37.05-.66.04-.85-.04-.19-.07-.34-.2-.45-.39s-.19-.5-.25-.93l-.18-1.38-.55.07-.14-1.1.55-.07-.09-.72,1.41-.97Z"/>
        <path class="cls-2" d="m90.82,91.74l1.41-.18.08.64c.1-.3.21-.51.34-.63s.3-.2.51-.23.47,0,.76.11l-.33,1.13c-.19-.05-.33-.07-.44-.06-.2.03-.34.13-.43.3-.13.25-.15.69-.06,1.32l.17,1.32-1.51.2-.51-3.92Z"/>
        <path class="cls-2" d="m94.63,91.24l1.59-.21,1.15,2.51.41-2.71,1.48-.19-1.01,4.4c-.11.5-.25.85-.42,1.04-.23.27-.61.44-1.15.51-.22.03-.56.04-1.02.04l-.26-1.03c.23.04.47.04.74,0,.18-.02.32-.08.41-.18.1-.1.17-.25.22-.47l-2.16-3.71Z"/>
        <path class="cls-2" d="m110.47,87.65l.2,1.49.83-.11.14,1.1-.83.11.18,1.39c.02.17.05.28.09.33.06.08.15.11.28.09.11-.01.26-.07.45-.16l.25,1.02c-.36.13-.7.22-1.03.26-.37.05-.66.04-.85-.04-.19-.07-.34-.2-.45-.39s-.19-.5-.25-.93l-.18-1.38-.55.07-.14-1.1.55-.07-.09-.72,1.41-.97Z"/>
        <path class="cls-2" d="m112.73,90.88c-.08-.6.06-1.12.41-1.56s.87-.71,1.56-.8c.79-.1,1.41.05,1.87.45.37.32.59.76.66,1.29.08.6-.06,1.12-.41,1.56s-.88.7-1.59.8c-.63.08-1.16-.01-1.59-.28-.53-.33-.84-.82-.92-1.47Zm1.51-.2c.05.35.15.6.31.75s.35.21.57.18.38-.13.5-.32.15-.46.1-.82c-.04-.34-.15-.58-.31-.73s-.35-.21-.55-.18c-.22.03-.39.14-.51.32s-.16.45-.11.8Z"/>
        <path class="cls-2" d="m126.98,89.88l1.47-.34c.08.17.19.28.31.35s.27.08.46.06c.2-.03.35-.09.45-.19.08-.08.11-.16.1-.26-.01-.11-.08-.18-.2-.23-.09-.03-.31-.05-.67-.07-.53-.02-.91-.06-1.12-.11-.21-.05-.4-.16-.57-.33s-.26-.37-.29-.6c-.03-.26.01-.49.14-.7s.31-.37.57-.5c.25-.13.6-.22,1.04-.28.47-.06.82-.07,1.05-.03s.43.13.6.26.32.32.45.56l-1.41.33c-.05-.12-.13-.21-.22-.25-.13-.06-.28-.08-.44-.06s-.29.07-.36.14c-.07.07-.1.15-.09.23.01.1.07.16.18.2s.33.05.66.05c.51,0,.89.02,1.15.09s.46.19.62.36.25.37.27.59,0,.46-.12.69-.3.43-.58.6-.67.28-1.18.35c-.72.09-1.24.06-1.57-.11s-.56-.43-.7-.8Z"/>
        <path class="cls-2" d="m133.57,84.62l.2,1.49.83-.11.14,1.1-.83.11.18,1.39c.02.17.05.28.09.33.06.08.15.11.28.09.11-.01.26-.07.45-.16l.25,1.02c-.36.13-.7.22-1.03.26-.37.05-.66.04-.85-.04-.19-.07-.34-.2-.45-.39s-.19-.5-.25-.93l-.18-1.38-.55.07-.14-1.1.55-.07-.09-.72,1.41-.97Z"/>
        <path class="cls-2" d="m135.84,87.85c-.08-.6.06-1.12.41-1.56s.87-.71,1.56-.8c.79-.1,1.41.05,1.87.45.37.32.59.76.66,1.29.08.6-.06,1.12-.41,1.56s-.88.7-1.59.8c-.63.08-1.16-.01-1.59-.28-.53-.33-.84-.82-.92-1.47Zm1.51-.2c.05.35.15.6.31.75s.35.21.57.18.38-.13.5-.32.15-.46.1-.82c-.04-.34-.15-.58-.31-.73s-.35-.21-.55-.18c-.22.03-.39.14-.51.32s-.16.45-.11.8Z"/>
        <path class="cls-2" d="m141.98,90.54l-.71-5.42,1.41-.18.08.58c.16-.27.32-.46.47-.57.2-.14.44-.23.71-.27.52-.07.96.08,1.3.44s.55.84.63,1.43c.09.65,0,1.17-.27,1.56s-.64.61-1.12.67c-.23.03-.45.02-.65-.04s-.39-.15-.56-.28l.25,1.87-1.52.2Zm1.06-3.64c.04.31.14.53.29.67s.33.19.52.16c.17-.02.31-.11.41-.27s.13-.41.08-.76c-.04-.32-.13-.54-.28-.68s-.3-.19-.48-.16c-.19.03-.34.12-.45.29s-.14.42-.1.76Z"/>
        <path class="cls-2" d="m160.13,86.65l-1.4.18-.08-.64c-.18.29-.36.5-.56.64s-.45.23-.76.27c-.41.05-.75-.03-1.02-.24s-.44-.58-.5-1.1l-.33-2.5,1.51-.2.28,2.16c.03.25.1.42.21.51s.24.13.4.1c.18-.02.32-.11.41-.26s.12-.41.07-.77l-.25-1.89,1.5-.2.51,3.92Z"/>
        <path class="cls-2" d="m161.08,85.41l1.47-.34c.08.17.19.28.31.35s.27.08.46.06c.2-.03.35-.09.45-.19.08-.08.11-.16.1-.26-.01-.11-.08-.18-.2-.23-.09-.03-.31-.05-.67-.07-.53-.02-.91-.06-1.12-.11-.21-.05-.4-.16-.57-.33s-.26-.37-.29-.6c-.03-.26.01-.49.14-.7s.31-.37.57-.5c.25-.13.6-.22,1.04-.28.47-.06.82-.07,1.05-.03s.43.13.6.26.32.32.45.56l-1.41.33c-.05-.12-.13-.21-.22-.25-.13-.06-.28-.08-.44-.06s-.29.07-.36.14c-.07.07-.1.15-.09.23.01.1.07.16.18.2s.33.05.66.05c.51,0,.89.02,1.15.09s.46.19.62.36.25.37.27.59,0,.46-.12.69-.3.43-.58.6-.67.28-1.18.35c-.72.09-1.24.06-1.57-.11s-.56-.43-.7-.8Z"/>
        <path class="cls-2" d="m89.86,101.11l.72-.09.14,1.1-.72.09.37,2.82-1.51.2-.37-2.82-.56.07-.14-1.1.56-.07-.02-.18c-.02-.16-.03-.34-.02-.54s.05-.36.13-.5.2-.25.36-.35.41-.17.74-.21c.26-.03.65-.05,1.16-.06l-.05.93c-.18,0-.33,0-.44.01-.14.02-.23.05-.28.11s-.09.13-.1.23c0,.06,0,.17.03.35Z"/>
        <path class="cls-2" d="m91.6,100.88l1.41-.18.08.64c.1-.3.21-.51.34-.63s.3-.2.51-.23.47,0,.76.11l-.33,1.13c-.19-.05-.33-.07-.44-.06-.2.03-.34.13-.43.3-.13.25-.15.69-.06,1.32l.17,1.32-1.51.2-.51-3.92Z"/>
        <path class="cls-2" d="m95.59,102.36c-.08-.6.06-1.12.41-1.56s.87-.71,1.56-.8c.79-.1,1.41.05,1.87.45.37.32.59.76.66,1.29.08.6-.06,1.12-.41,1.56s-.88.7-1.59.8c-.63.08-1.16-.01-1.59-.28-.53-.33-.84-.82-.92-1.47Zm1.51-.2c.05.35.15.6.31.75s.35.21.57.18.38-.13.5-.32.15-.46.1-.82c-.04-.34-.15-.58-.31-.73s-.35-.21-.55-.18c-.22.03-.39.14-.51.32s-.16.45-.11.8Z"/>
        <path class="cls-2" d="m101.03,99.64l1.4-.18.08.57c.17-.27.35-.46.55-.59.19-.13.43-.21.73-.25.31-.04.57-.02.77.07s.37.23.51.44c.2-.29.39-.49.58-.61.18-.12.42-.2.7-.23.42-.06.77.03,1.03.25.27.22.44.59.51,1.13l.32,2.46-1.51.2-.29-2.24c-.02-.18-.08-.3-.15-.38-.12-.12-.25-.17-.4-.15-.18.02-.31.11-.4.25s-.12.36-.08.64l.27,2.02-1.51.2-.28-2.16c-.02-.17-.05-.29-.08-.35-.04-.09-.11-.17-.2-.22-.09-.05-.18-.07-.29-.05-.17.02-.31.11-.4.25-.09.15-.12.37-.08.66l.26,2-1.51.2-.51-3.92Z"/>
        <path class="cls-2" d="m116.67,101.58l-1.4.18-.08-.64c-.18.29-.36.5-.56.64s-.45.23-.76.27c-.41.05-.75-.03-1.02-.24s-.44-.58-.5-1.1l-.33-2.5,1.51-.2.28,2.16c.03.25.1.42.21.51s.24.13.4.1c.18-.02.32-.11.41-.26s.12-.41.07-.77l-.25-1.89,1.5-.2.51,3.92Z"/>
        <path class="cls-2" d="m117.63,100.35l1.47-.34c.08.17.19.28.31.35s.27.08.46.06c.2-.03.35-.09.45-.19.08-.08.11-.16.1-.26-.01-.11-.08-.18-.2-.23-.09-.03-.31-.05-.67-.07-.53-.02-.91-.06-1.12-.11-.21-.05-.4-.16-.57-.33s-.26-.37-.29-.6c-.03-.26.01-.49.14-.7s.31-.37.57-.5c.25-.13.6-.22,1.04-.28.47-.06.82-.07,1.05-.03s.43.13.6.26.32.32.45.56l-1.41.33c-.05-.12-.13-.21-.22-.25-.13-.06-.28-.08-.44-.06s-.29.07-.36.14c-.07.07-.1.15-.09.23.01.1.07.16.18.2s.33.05.66.05c.51,0,.89.02,1.15.09s.46.19.62.36.25.37.27.59,0,.46-.12.69-.3.43-.58.6-.67.28-1.18.35c-.72.09-1.24.06-1.57-.11s-.56-.43-.7-.8Z"/>
        <path class="cls-2" d="m122.46,95.31l1.5-.2.13,1.02-1.5.2-.13-1.02Zm.2,1.49l1.5-.2.51,3.92-1.5.2-.51-3.92Z"/>
        <path class="cls-2" d="m125.57,96.42l1.4-.18.08.64c.18-.29.36-.5.56-.64s.45-.23.76-.27c.42-.05.76.03,1.03.24s.44.58.5,1.1l.33,2.49-1.51.2-.28-2.16c-.03-.25-.1-.41-.21-.5s-.24-.12-.4-.1c-.18.02-.32.11-.42.27s-.12.41-.07.76l.25,1.88-1.5.2-.51-3.92Z"/>
        <path class="cls-2" d="m133.8,95.34l1.41-.18.49,3.71.03.17c.03.25.01.49-.06.72s-.19.44-.35.6-.36.29-.62.39-.56.17-.91.21c-.79.1-1.35.06-1.67-.14s-.51-.5-.57-.89c0-.05-.01-.12-.02-.2l1.48-.03c.05.13.12.22.21.26.12.06.27.08.43.06.22-.03.37-.11.46-.24s.12-.34.08-.63l-.08-.59c-.12.19-.26.34-.39.44-.22.15-.46.25-.73.28-.52.07-.98-.1-1.36-.52-.27-.3-.44-.71-.51-1.24-.08-.61,0-1.1.26-1.45s.62-.57,1.1-.63c.31-.04.56-.02.78.06s.42.22.62.44l-.08-.58Zm-1.17,2.09c.04.28.13.49.26.61s.31.17.5.14.33-.12.44-.27.14-.38.11-.67-.13-.5-.29-.63-.33-.19-.52-.16-.34.11-.43.27-.12.39-.08.72Z"/>
        <path class="cls-2" d="m139.41,93.09l1.5-.2.13,1.02-1.5.2-.13-1.02Zm.2,1.49l1.5-.2.51,3.92-1.5.2-.51-3.92Z"/>
        <path class="cls-2" d="m144.14,92.47l.2,1.49.83-.11.14,1.1-.83.11.18,1.39c.02.17.05.28.09.33.06.08.15.11.28.09.11-.01.26-.07.45-.16l.25,1.02c-.36.13-.7.22-1.03.26-.37.05-.66.04-.85-.04-.19-.07-.34-.2-.45-.39s-.19-.5-.25-.93l-.18-1.38-.55.07-.14-1.1.55-.07-.09-.72,1.41-.97Z"/>
        <path class="cls-2" d="m146.66,96.12l1.61-.21.2,1.51-1.61.21-.2-1.51Z"/>
        <path class="cls-2" d="m88.73,108.97l1.86-.24,1.33,1.68.85-1.97,1.85-.24-1.69,3.42.3,2.27-1.68.22-.3-2.27-2.52-2.87Z"/>
        <path class="cls-2" d="m95.15,111.66c-.08-.6.06-1.12.41-1.56s.87-.71,1.56-.8c.79-.1,1.41.05,1.87.45.37.32.59.76.66,1.29.08.6-.06,1.12-.41,1.56s-.88.7-1.59.8c-.63.08-1.16-.01-1.59-.28-.53-.33-.84-.82-.92-1.47Zm1.51-.2c.05.35.15.6.31.75s.35.21.57.18.38-.13.5-.32.15-.46.1-.82c-.04-.34-.15-.58-.31-.73s-.35-.21-.55-.18c-.22.03-.39.14-.51.32s-.16.45-.11.8Z"/>
        <path class="cls-2" d="m105.22,112.32l-1.4.18-.08-.64c-.18.29-.36.5-.56.64s-.45.23-.76.27c-.41.05-.75-.03-1.02-.24s-.44-.58-.5-1.1l-.33-2.5,1.51-.2.28,2.16c.03.25.1.42.21.51s.24.13.4.1c.18-.02.32-.11.41-.26s.12-.41.07-.77l-.25-1.89,1.5-.2.51,3.92Z"/>
        <path class="cls-2" d="m118.65,106.57l1.4-.18.08.57c.17-.27.35-.46.55-.59.19-.13.43-.21.73-.25.31-.04.57-.02.77.07s.37.23.51.44c.2-.29.39-.49.58-.61.18-.12.42-.2.7-.23.42-.06.77.03,1.03.25.27.22.44.59.51,1.13l.32,2.46-1.51.2-.29-2.24c-.02-.18-.08-.3-.15-.38-.12-.12-.25-.17-.4-.15-.18.02-.31.11-.4.25s-.12.36-.08.64l.27,2.02-1.51.2-.28-2.16c-.02-.17-.05-.29-.08-.35-.04-.09-.11-.17-.2-.22-.09-.05-.18-.07-.29-.05-.17.02-.31.11-.4.25-.09.15-.12.37-.08.66l.26,2-1.51.2-.51-3.92Z"/>
        <path class="cls-2" d="m131.31,108.9l-1.4.18-.08-.64c-.18.29-.36.5-.56.64s-.45.23-.76.27c-.41.05-.75-.03-1.02-.24s-.44-.58-.5-1.1l-.33-2.5,1.51-.2.28,2.16c.03.25.1.42.21.51s.24.13.4.1c.18-.02.32-.11.41-.26s.12-.41.07-.77l-.25-1.89,1.5-.2.51,3.92Z"/>
        <path class="cls-2" d="m132.27,107.66l1.47-.34c.08.17.19.28.31.35s.27.08.46.06c.2-.03.35-.09.45-.19.08-.08.11-.16.1-.26-.01-.11-.08-.18-.2-.23-.09-.03-.31-.05-.67-.07-.53-.02-.91-.06-1.12-.11-.21-.05-.4-.16-.57-.33s-.26-.37-.29-.6c-.03-.26.01-.49.14-.7s.31-.37.57-.5c.25-.13.6-.22,1.04-.28.47-.06.82-.07,1.05-.03s.43.13.6.26.32.32.45.56l-1.41.33c-.05-.12-.13-.21-.22-.25-.13-.06-.28-.08-.44-.06s-.29.07-.36.14c-.07.07-.1.15-.09.23.01.1.07.16.18.2s.33.05.66.05c.51,0,.89.02,1.15.09s.46.19.62.36.25.37.27.59,0,.46-.12.69-.3.43-.58.6-.67.28-1.18.35c-.72.09-1.24.06-1.57-.11s-.56-.43-.7-.8Z"/>
        <path class="cls-2" d="m138.86,102.4l.2,1.49.83-.11.14,1.1-.83.11.18,1.39c.02.17.05.28.09.33.06.08.15.11.28.09.11-.01.26-.07.45-.16l.25,1.02c-.36.13-.7.22-1.03.26-.37.05-.66.04-.85-.04-.19-.07-.34-.2-.45-.39s-.19-.5-.25-.93l-.18-1.38-.55.07-.14-1.1.55-.07-.09-.72,1.41-.97Z"/>
        <path class="cls-2" d="m153.62,101.98l1.4-.18.08.64c.18-.29.36-.5.56-.64s.45-.23.76-.27c.42-.05.76.03,1.03.24s.44.58.5,1.1l.33,2.49-1.51.2-.28-2.16c-.03-.25-.1-.41-.21-.5s-.24-.12-.4-.1c-.18.02-.32.11-.42.27s-.12.41-.07.76l.25,1.88-1.5.2-.51-3.92Z"/>
        <path class="cls-2" d="m159.19,103.26c-.08-.6.06-1.12.41-1.56s.87-.71,1.56-.8c.79-.1,1.41.05,1.87.45.37.32.59.76.66,1.29.08.6-.06,1.12-.41,1.56s-.88.7-1.59.8c-.63.08-1.16-.01-1.59-.28-.53-.33-.84-.82-.92-1.47Zm1.51-.2c.05.35.15.6.31.75s.35.21.57.18.38-.13.5-.32.15-.46.1-.82c-.04-.34-.15-.58-.31-.73s-.35-.21-.55-.18c-.22.03-.39.14-.51.32s-.16.45-.11.8Z"/>
        <path class="cls-2" d="m166.24,98.81l.2,1.49.83-.11.14,1.1-.83.11.18,1.39c.02.17.05.28.09.33.06.08.15.11.28.09.11-.01.26-.07.45-.16l.25,1.02c-.36.13-.7.22-1.03.26-.37.05-.66.04-.85-.04-.19-.07-.34-.2-.45-.39s-.19-.5-.25-.93l-.18-1.38-.55.07-.14-1.1.55-.07-.09-.72,1.41-.97Z"/>
        <path class="cls-2" d="m92.1,120.58l-1.46.04c.02-.26.07-.47.16-.62s.21-.3.39-.43c.13-.09.31-.18.55-.25s.49-.13.78-.17c.45-.06.82-.08,1.1-.07s.52.09.72.23c.14.09.26.24.36.43s.16.38.19.57l.23,1.73c.02.18.05.33.09.43s.11.23.21.38l-1.41.19c-.07-.09-.12-.17-.14-.22s-.05-.13-.08-.24c-.17.22-.35.38-.53.48-.25.14-.55.24-.91.28-.47.06-.84,0-1.11-.19s-.43-.44-.47-.75c-.04-.3.02-.55.17-.77s.45-.4.91-.56c.55-.19.9-.31,1.07-.38s.33-.15.51-.25c-.02-.18-.08-.31-.17-.37s-.23-.08-.42-.06c-.25.03-.43.1-.54.19-.09.07-.15.2-.19.38Zm1.41.62c-.2.1-.4.19-.62.28-.29.12-.48.23-.55.32-.07.09-.1.19-.09.29.02.12.07.21.16.27s.22.09.38.06.32-.08.45-.18.22-.21.27-.34.06-.28.03-.47l-.03-.24Z"/>
        <path class="cls-2" d="m95.92,117.27l1.51-.2.71,5.42-1.51.2-.71-5.42Z"/>
        <path class="cls-2" d="m98.9,116.88l1.51-.2.71,5.42-1.51.2-.71-5.42Z"/>
        <path class="cls-2" d="m102.09,119.98c-.08-.6.06-1.12.41-1.56s.87-.71,1.56-.8c.79-.1,1.41.05,1.87.45.37.32.59.76.66,1.29.08.6-.06,1.12-.41,1.56s-.88.7-1.59.8c-.63.08-1.16-.01-1.59-.28-.53-.33-.84-.82-.92-1.47Zm1.51-.2c.05.35.15.6.31.75s.35.21.57.18.38-.13.5-.32.15-.46.1-.82c-.04-.34-.15-.58-.31-.73s-.35-.21-.55-.18c-.22.03-.39.14-.51.32s-.16.45-.11.8Z"/>
        <path class="cls-2" d="m106.94,117.34l1.45-.19.95,2.39.47-2.58,1.36-.18,1.15,2.37.31-2.56,1.45-.19-.93,4.11-1.34.18-1.1-2.26-.46,2.46-1.34.18-1.97-3.73Z"/>
        <path class="cls-2" d="m150.91,110.06l.2,1.49.83-.11.14,1.1-.83.11.18,1.39c.02.17.05.28.09.33.06.08.15.11.28.09.11-.01.26-.07.45-.16l.25,1.02c-.36.13-.7.22-1.03.26-.37.05-.66.04-.85-.04-.19-.07-.34-.2-.45-.39s-.19-.5-.25-.93l-.18-1.38-.55.07-.14-1.1.55-.07-.09-.72,1.41-.97Z"/>
        <path class="cls-2" d="m152.9,109.79l1.5-.2.26,2c.18-.24.36-.42.55-.53s.42-.19.7-.23c.41-.05.75.03,1.02.25s.44.58.5,1.1l.33,2.49-1.51.2-.28-2.16c-.03-.25-.1-.41-.21-.5s-.24-.12-.4-.1c-.18.02-.32.11-.42.27s-.12.41-.07.76l.25,1.88-1.5.2-.71-5.42Z"/>
        <path class="cls-2" d="m158.46,109.06l1.5-.2.13,1.02-1.5.2-.13-1.02Zm.2,1.49l1.5-.2.51,3.92-1.5.2-.51-3.92Z"/>
        <path class="cls-2" d="m161.68,113.04l1.47-.34c.08.17.19.28.31.35s.27.08.46.06c.2-.03.35-.09.45-.19.08-.08.11-.16.1-.26-.01-.11-.08-.18-.2-.23-.09-.03-.31-.05-.67-.07-.53-.02-.91-.06-1.12-.11-.21-.05-.4-.16-.57-.33s-.26-.37-.29-.6c-.03-.26.01-.49.14-.7s.31-.37.57-.5c.25-.13.6-.22,1.04-.28.47-.06.82-.07,1.05-.03s.43.13.6.26.32.32.45.56l-1.41.33c-.05-.12-.13-.21-.22-.25-.13-.06-.28-.08-.44-.06s-.29.07-.36.14c-.07.07-.1.15-.09.23.01.1.07.16.18.2s.33.05.66.05c.51,0,.89.02,1.15.09s.46.19.62.36.25.37.27.59,0,.46-.12.69-.3.43-.58.6-.67.28-1.18.35c-.72.09-1.24.06-1.57-.11s-.56-.43-.7-.8Z"/>
        <path class="cls-2" d="m166.97,111.93l1.61-.21.2,1.51-1.61.21-.2-1.51Z"/>
        <path class="cls-2" d="m91.28,127.11l5.09-.67.18,1.34-1.71.22.53,4.08-1.67.22-.53-4.08-1.71.22-.18-1.34Z"/>
        <path class="cls-2" d="m97.68,126.27l1.5-.2.26,2c.18-.24.36-.42.55-.53s.42-.19.7-.23c.41-.05.75.03,1.02.25s.44.58.5,1.1l.33,2.49-1.51.2-.28-2.16c-.03-.25-.1-.41-.21-.5s-.24-.12-.4-.1c-.18.02-.32.11-.42.27s-.12.41-.07.76l.25,1.88-1.5.2-.71-5.42Z"/>
        <path class="cls-2" d="m108.04,128.81l-3.02.4c.06.24.15.41.27.51.17.15.37.21.6.18.15-.02.28-.07.41-.17.08-.06.15-.15.23-.28l1.5-.06c-.17.42-.41.74-.71.96s-.75.36-1.34.44c-.52.07-.94.05-1.26-.06s-.59-.31-.83-.6-.38-.66-.44-1.09c-.08-.61.05-1.14.39-1.57s.86-.69,1.55-.78c.56-.07,1.02-.05,1.36.08s.63.34.84.64.35.71.42,1.23l.02.17Zm-1.62-.52c-.07-.29-.17-.48-.32-.59s-.32-.15-.53-.12c-.24.03-.42.15-.54.36-.08.13-.11.31-.1.55l1.48-.19Z"/>
        <path class="cls-2" d="m108.45,126.38l1.59-.21,1.15,2.51.41-2.71,1.48-.19-1.01,4.4c-.11.5-.25.85-.42,1.04-.23.27-.61.44-1.15.51-.22.03-.56.04-1.02.04l-.26-1.03c.23.04.47.04.74,0,.18-.02.32-.08.41-.18.1-.1.17-.25.22-.47l-2.16-3.71Z"/>
        <path class="cls-2" d="m120.18,127.27l1.45-.02c-.04.31-.14.58-.29.82s-.36.44-.62.6-.61.26-1.04.32-.77.06-1.06.02c-.29-.04-.54-.14-.76-.28-.22-.15-.41-.33-.55-.55s-.24-.52-.29-.91-.03-.75.07-1.04c.08-.21.19-.4.34-.58.15-.18.32-.32.49-.42.28-.16.65-.27,1.1-.33.64-.08,1.14-.03,1.51.15s.65.49.84.91l-1.39.37c-.07-.16-.16-.28-.29-.35s-.29-.09-.49-.07c-.25.03-.44.15-.57.35-.13.2-.17.48-.12.84.04.32.15.56.33.7.17.15.38.21.62.17.2-.03.36-.1.48-.22s.2-.29.24-.51Z"/>
        <path class="cls-2" d="m123.98,125.64l-1.46.04c.02-.26.07-.47.16-.62s.21-.3.39-.43c.13-.09.31-.18.55-.25s.49-.13.78-.17c.45-.06.82-.08,1.1-.07s.52.09.72.23c.14.09.26.24.36.43s.16.38.19.57l.23,1.73c.02.18.05.33.09.43s.11.23.21.38l-1.41.19c-.07-.09-.12-.17-.14-.22s-.05-.13-.08-.24c-.17.22-.35.38-.53.48-.25.14-.55.24-.91.28-.47.06-.84,0-1.11-.19s-.43-.44-.47-.75c-.04-.3.02-.55.17-.77s.45-.4.91-.56c.55-.19.9-.31,1.07-.38s.33-.15.51-.25c-.02-.18-.08-.31-.17-.37s-.23-.08-.42-.06c-.25.03-.43.1-.54.19-.09.07-.15.2-.19.38Zm1.41.62c-.2.1-.4.19-.62.28-.29.12-.48.23-.55.32-.07.09-.1.19-.09.29.02.12.07.21.16.27s.22.09.38.06.32-.08.45-.18.22-.21.27-.34.06-.28.03-.47l-.03-.24Z"/>
        <path class="cls-2" d="m127.94,123.82l1.4-.18.08.64c.18-.29.36-.5.56-.64s.45-.23.76-.27c.42-.05.76.03,1.03.24s.44.58.5,1.1l.33,2.49-1.51.2-.28-2.16c-.03-.25-.1-.41-.21-.5s-.24-.12-.4-.1c-.18.02-.32.11-.42.27s-.12.41-.07.76l.25,1.88-1.5.2-.51-3.92Z"/>
        <path class="cls-2" d="m133.44,123.1l1.4-.18.08.64c.18-.29.36-.5.56-.64s.45-.23.76-.27c.42-.05.76.03,1.03.24s.44.58.5,1.1l.33,2.49-1.51.2-.28-2.16c-.03-.25-.1-.41-.21-.5s-.24-.12-.4-.1c-.18.02-.32.11-.42.27s-.12.41-.07.76l.25,1.88-1.5.2-.51-3.92Z"/>
        <path class="cls-2" d="m139.02,124.38c-.08-.6.06-1.12.41-1.56s.87-.71,1.56-.8c.79-.1,1.41.05,1.87.45.37.32.59.76.66,1.29.08.6-.06,1.12-.41,1.56s-.88.7-1.59.8c-.63.08-1.16-.01-1.59-.28-.53-.33-.84-.82-.92-1.47Zm1.51-.2c.05.35.15.6.31.75s.35.21.57.18.38-.13.5-.32.15-.46.1-.82c-.04-.34-.15-.58-.31-.73s-.35-.21-.55-.18c-.22.03-.39.14-.51.32s-.16.45-.11.8Z"/>
        <path class="cls-2" d="m146.06,119.93l.2,1.49.83-.11.14,1.1-.83.11.18,1.39c.02.17.05.28.09.33.06.08.15.11.28.09.11-.01.26-.07.45-.16l.25,1.02c-.36.13-.7.22-1.03.26-.37.05-.66.04-.85-.04-.19-.07-.34-.2-.45-.39s-.19-.5-.25-.93l-.18-1.38-.55.07-.14-1.1.55-.07-.09-.72,1.41-.97Z"/>
        <path class="cls-2" d="m150.79,120.83l1.45-.19.95,2.39.47-2.58,1.36-.18,1.15,2.37.31-2.56,1.45-.19-.93,4.11-1.34.18-1.1-2.26-.46,2.46-1.34.18-1.97-3.73Z"/>
        <path class="cls-2" d="m158.69,118.27l1.5-.2.13,1.02-1.5.2-.13-1.02Zm.2,1.49l1.5-.2.51,3.92-1.5.2-.51-3.92Z"/>
        <path class="cls-2" d="m161.8,119.38l1.4-.18.08.64c.18-.29.36-.5.56-.64s.45-.23.76-.27c.42-.05.76.03,1.03.24s.44.58.5,1.1l.33,2.49-1.51.2-.28-2.16c-.03-.25-.1-.41-.21-.5s-.24-.12-.4-.1c-.18.02-.32.11-.42.27s-.12.41-.07.76l.25,1.88-1.5.2-.51-3.92Z"/>
        <path class="cls-2" d="m167.63,121.08l1.61-.21.2,1.51-1.61.21-.2-1.51Z"/>
        <path class="cls-2" d="m92.47,136.19l5.09-.67.18,1.34-1.71.22.53,4.08-1.67.22-.53-4.08-1.71.22-.18-1.34Z"/>
        <path class="cls-2" d="m98.88,135.35l1.5-.2.26,2c.18-.24.36-.42.55-.53s.42-.19.7-.23c.41-.05.75.03,1.02.25s.44.58.5,1.1l.33,2.49-1.51.2-.28-2.16c-.03-.25-.1-.41-.21-.5s-.24-.12-.4-.1c-.18.02-.32.11-.42.27s-.12.41-.07.76l.25,1.88-1.5.2-.71-5.42Z"/>
        <path class="cls-2" d="m109.23,137.89l-3.02.4c.06.24.15.41.27.51.17.15.37.21.6.18.15-.02.28-.07.41-.17.08-.06.15-.15.23-.28l1.5-.06c-.17.42-.41.74-.71.96s-.75.36-1.34.44c-.52.07-.94.05-1.26-.06s-.59-.31-.83-.6-.38-.66-.44-1.09c-.08-.61.05-1.14.39-1.57s.86-.69,1.55-.78c.56-.07,1.02-.05,1.36.08s.63.34.84.64.35.71.42,1.23l.02.17Zm-1.62-.52c-.07-.29-.17-.48-.32-.59s-.32-.15-.53-.12c-.24.03-.42.15-.54.36-.08.13-.11.31-.1.55l1.48-.19Z"/>
        <path class="cls-2" d="m109.64,135.46l1.59-.21,1.15,2.51.41-2.71,1.48-.19-1.01,4.4c-.11.5-.25.85-.42,1.04-.23.27-.61.44-1.15.51-.22.03-.56.04-1.02.04l-.26-1.03c.23.04.47.04.74,0,.18-.02.32-.08.41-.18.1-.1.17-.25.22-.47l-2.16-3.71Z"/>
        <path class="cls-2" d="m127.32,133.14l1.45-.19.95,2.39.47-2.58,1.36-.18,1.15,2.37.31-2.56,1.45-.19-.93,4.11-1.34.18-1.1-2.26-.46,2.46-1.34.18-1.97-3.73Z"/>
        <path class="cls-2" d="m136.81,133.19l-1.46.04c.02-.26.07-.47.16-.62s.21-.3.39-.43c.13-.09.31-.18.55-.25s.49-.13.78-.17c.45-.06.82-.08,1.1-.07s.52.09.72.23c.14.09.26.24.36.43s.16.38.19.57l.23,1.73c.02.18.05.33.09.43s.11.23.21.38l-1.41.19c-.07-.09-.12-.17-.14-.22s-.05-.13-.08-.24c-.17.22-.35.38-.53.48-.25.14-.55.24-.91.28-.47.06-.84,0-1.11-.19s-.43-.44-.47-.75c-.04-.3.02-.55.17-.77s.45-.4.91-.56c.55-.19.9-.31,1.07-.38s.33-.15.51-.25c-.02-.18-.08-.31-.17-.37s-.23-.08-.42-.06c-.25.03-.43.1-.54.19-.09.07-.15.2-.19.38Zm1.41.62c-.2.1-.4.19-.62.28-.29.12-.48.23-.55.32-.07.09-.1.19-.09.29.02.12.07.21.16.27s.22.09.38.06.32-.08.45-.18.22-.21.27-.34.06-.28.03-.47l-.03-.24Z"/>
        <path class="cls-2" d="m140.77,131.38l1.4-.18.08.64c.18-.29.36-.5.56-.64s.45-.23.76-.27c.42-.05.76.03,1.03.24s.44.58.5,1.1l.33,2.49-1.51.2-.28-2.16c-.03-.25-.1-.41-.21-.5s-.24-.12-.4-.1c-.18.02-.32.11-.42.27s-.12.41-.07.76l.25,1.88-1.5.2-.51-3.92Z"/>
        <path class="cls-2" d="m147.89,128.92l.2,1.49.83-.11.14,1.1-.83.11.18,1.39c.02.17.05.28.09.33.06.08.15.11.28.09.11-.01.26-.07.45-.16l.25,1.02c-.36.13-.7.22-1.03.26-.37.05-.66.04-.85-.04-.19-.07-.34-.2-.45-.39s-.19-.5-.25-.93l-.18-1.38-.55.07-.14-1.1.55-.07-.09-.72,1.41-.97Z"/>
        <path class="cls-2" d="m164.31,126.77l.2,1.49.83-.11.14,1.1-.83.11.18,1.39c.02.17.05.28.09.33.06.08.15.11.28.09.11-.01.26-.07.45-.16l.25,1.02c-.36.13-.7.22-1.03.26-.37.05-.66.04-.85-.04-.19-.07-.34-.2-.45-.39s-.19-.5-.25-.93l-.18-1.38-.55.07-.14-1.1.55-.07-.09-.72,1.41-.97Z"/>
        <path class="cls-2" d="m166.58,130c-.08-.6.06-1.12.41-1.56s.87-.71,1.56-.8c.79-.1,1.41.05,1.87.45.37.32.59.76.66,1.29.08.6-.06,1.12-.41,1.56s-.88.7-1.59.8c-.63.08-1.16-.01-1.59-.28-.53-.33-.84-.82-.92-1.47Zm1.51-.2c.05.35.15.6.31.75s.35.21.57.18.38-.13.5-.32.15-.46.1-.82c-.04-.34-.15-.58-.31-.73s-.35-.21-.55-.18c-.22.03-.39.14-.51.32s-.16.45-.11.8Z"/>
        <path class="cls-2" d="m97.38,148.73l1.45-.02c-.04.31-.14.58-.29.82s-.36.44-.62.6-.61.26-1.04.32-.77.06-1.06.02c-.29-.04-.54-.14-.76-.28-.22-.15-.41-.33-.55-.55s-.24-.52-.29-.91-.03-.75.07-1.04c.08-.21.19-.4.34-.58.15-.18.32-.32.49-.42.28-.16.65-.27,1.1-.33.64-.08,1.14-.03,1.51.15s.65.49.84.91l-1.39.37c-.07-.16-.16-.28-.29-.35s-.29-.09-.49-.07c-.25.03-.44.15-.57.35-.13.2-.17.48-.12.84.04.32.15.56.33.7.17.15.38.21.62.17.2-.03.36-.1.48-.22s.2-.29.24-.51Z"/>
        <path class="cls-2" d="m104.3,147.77l-3.02.4c.06.24.15.41.27.51.17.15.37.21.6.18.15-.02.28-.07.41-.17.08-.06.15-.15.23-.28l1.5-.06c-.17.42-.41.74-.71.96s-.75.36-1.34.44c-.52.07-.94.05-1.26-.06s-.59-.31-.83-.6-.38-.66-.44-1.09c-.08-.61.05-1.14.39-1.57s.86-.69,1.55-.78c.56-.07,1.02-.05,1.36.08s.63.34.84.64.35.71.42,1.23l.02.17Zm-1.62-.52c-.07-.29-.17-.48-.32-.59s-.32-.15-.53-.12c-.24.03-.42.15-.54.36-.08.13-.11.31-.1.55l1.48-.19Z"/>
        <path class="cls-2" d="m105.14,145.29l1.4-.18.08.64c.18-.29.36-.5.56-.64s.45-.23.76-.27c.42-.05.76.03,1.03.24s.44.58.5,1.1l.33,2.49-1.51.2-.28-2.16c-.03-.25-.1-.41-.21-.5s-.24-.12-.4-.1c-.18.02-.32.11-.42.27s-.12.41-.07.76l.25,1.88-1.5.2-.51-3.92Z"/>
        <path class="cls-2" d="m110.75,147.43l1.47-.34c.08.17.19.28.31.35s.27.08.46.06c.2-.03.35-.09.45-.19.08-.08.11-.16.1-.26-.01-.11-.08-.18-.2-.23-.09-.03-.31-.05-.67-.07-.53-.02-.91-.06-1.12-.11-.21-.05-.4-.16-.57-.33s-.26-.37-.29-.6c-.03-.26.01-.49.14-.7s.31-.37.57-.5c.25-.13.6-.22,1.04-.28.47-.06.82-.07,1.05-.03s.43.13.6.26.32.32.45.56l-1.41.33c-.05-.12-.13-.21-.22-.25-.13-.06-.28-.08-.44-.06s-.29.07-.36.14c-.07.07-.1.15-.09.23.01.1.07.16.18.2s.33.05.66.05c.51,0,.89.02,1.15.09s.46.19.62.36.25.37.27.59,0,.46-.12.69-.3.43-.58.6-.67.28-1.18.35c-.72.09-1.24.06-1.57-.11s-.56-.43-.7-.8Z"/>
        <path class="cls-2" d="m115.79,145.9c-.08-.6.06-1.12.41-1.56s.87-.71,1.56-.8c.79-.1,1.41.05,1.87.45.37.32.59.76.66,1.29.08.6-.06,1.12-.41,1.56s-.88.7-1.59.8c-.63.08-1.16-.01-1.59-.28-.53-.33-.84-.82-.92-1.47Zm1.51-.2c.05.35.15.6.31.75s.35.21.57.18.38-.13.5-.32.15-.46.1-.82c-.04-.34-.15-.58-.31-.73s-.35-.21-.55-.18c-.22.03-.39.14-.51.32s-.16.45-.11.8Z"/>
        <path class="cls-2" d="m121.24,143.18l1.41-.18.08.64c.1-.3.21-.51.34-.63s.3-.2.51-.23.47,0,.76.11l-.33,1.13c-.19-.05-.33-.07-.44-.06-.2.03-.34.13-.43.3-.13.25-.15.69-.06,1.32l.17,1.32-1.51.2-.51-3.92Z"/>
        <path class="cls-2" d="m132.66,145.67l-1.4.18-.08-.64c-.18.29-.36.5-.56.64s-.45.23-.76.27c-.41.05-.75-.03-1.02-.24s-.44-.58-.5-1.1l-.33-2.5,1.51-.2.28,2.16c.03.25.1.42.21.51s.24.13.4.1c.18-.02.32-.11.41-.26s.12-.41.07-.77l-.25-1.89,1.5-.2.51,3.92Z"/>
        <path class="cls-2" d="m133.62,144.43l1.47-.34c.08.17.19.28.31.35s.27.08.46.06c.2-.03.35-.09.45-.19.08-.08.11-.16.1-.26-.01-.11-.08-.18-.2-.23-.09-.03-.31-.05-.67-.07-.53-.02-.91-.06-1.12-.11-.21-.05-.4-.16-.57-.33s-.26-.37-.29-.6c-.03-.26.01-.49.14-.7s.31-.37.57-.5c.25-.13.6-.22,1.04-.28.47-.06.82-.07,1.05-.03s.43.13.6.26.32.32.45.56l-1.41.33c-.05-.12-.13-.21-.22-.25-.13-.06-.28-.08-.44-.06s-.29.07-.36.14c-.07.07-.1.15-.09.23.01.1.07.16.18.2s.33.05.66.05c.51,0,.89.02,1.15.09s.46.19.62.36.25.37.27.59,0,.46-.12.69-.3.43-.58.6-.67.28-1.18.35c-.72.09-1.24.06-1.57-.11s-.56-.43-.7-.8Z"/>
        <path class="cls-2" d="m138.91,143.32l1.61-.21.2,1.51-1.61.21-.2-1.51Z"/>
        <path class="cls-2" d="m95.24,154.3l3.13-.41c.52-.07.94,0,1.25.23s.5.52.55.91c.04.32-.02.61-.19.86-.11.17-.29.32-.54.44.4.04.71.17.92.37s.34.48.39.82c.04.28,0,.54-.1.78s-.26.44-.47.6c-.13.1-.33.19-.61.26-.37.1-.62.16-.74.17l-2.89.38-.71-5.42Zm1.97,1.9l.73-.1c.26-.03.44-.1.53-.21s.12-.24.1-.41c-.02-.16-.09-.27-.2-.35s-.3-.1-.55-.06l-.74.1.13,1.03Zm.28,2.13l.85-.11c.29-.04.48-.12.59-.23s.15-.26.12-.44c-.02-.16-.1-.28-.23-.36s-.34-.1-.63-.07l-.85.11.14,1.1Z"/>
        <path class="cls-2" d="m106.32,158.36l-1.4.18-.08-.64c-.18.29-.36.5-.56.64s-.45.23-.76.27c-.41.05-.75-.03-1.02-.24s-.44-.58-.5-1.1l-.33-2.5,1.51-.2.28,2.16c.03.25.1.42.21.51s.24.13.4.1c.18-.02.32-.11.41-.26s.12-.41.07-.77l-.25-1.89,1.5-.2.51,3.92Z"/>
        <path class="cls-2" d="m108.79,152.53l.2,1.49.83-.11.14,1.1-.83.11.18,1.39c.02.17.05.28.09.33.06.08.15.11.28.09.11-.01.26-.07.45-.16l.25,1.02c-.36.13-.7.22-1.03.26-.37.05-.66.04-.85-.04-.19-.07-.34-.2-.45-.39s-.19-.5-.25-.93l-.18-1.38-.55.07-.14-1.1.55-.07-.09-.72,1.41-.97Z"/>
        <path class="cls-2" d="m126.11,150.26l.2,1.49.83-.11.14,1.1-.83.11.18,1.39c.02.17.05.28.09.33.06.08.15.11.28.09.11-.01.26-.07.45-.16l.25,1.02c-.36.13-.7.22-1.03.26-.37.05-.66.04-.85-.04-.19-.07-.34-.2-.45-.39s-.19-.5-.25-.93l-.18-1.38-.55.07-.14-1.1.55-.07-.09-.72,1.41-.97Z"/>
        <path class="cls-2" d="m128.11,149.99l1.5-.2.26,2c.18-.24.36-.42.55-.53s.42-.19.7-.23c.41-.05.75.03,1.02.25s.44.58.5,1.1l.33,2.49-1.51.2-.28-2.16c-.03-.25-.1-.41-.21-.5s-.24-.12-.4-.1c-.18.02-.32.11-.42.27s-.12.41-.07.76l.25,1.88-1.5.2-.71-5.42Z"/>
        <path class="cls-2" d="m138.47,152.53l-3.02.4c.06.24.15.41.27.51.17.15.37.21.6.18.15-.02.28-.07.41-.17.08-.06.15-.15.23-.28l1.5-.06c-.17.42-.41.74-.71.96s-.75.36-1.34.44c-.52.07-.94.05-1.26-.06s-.59-.31-.83-.6-.38-.66-.44-1.09c-.08-.61.05-1.14.39-1.57s.86-.69,1.55-.78c.56-.07,1.02-.05,1.36.08s.63.34.84.64.35.71.42,1.23l.02.17Zm-1.62-.52c-.07-.29-.17-.48-.32-.59s-.32-.15-.53-.12c-.24.03-.42.15-.54.36-.08.13-.11.31-.1.55l1.48-.19Z"/>
        <path class="cls-2" d="m138.87,150.1l1.59-.21,1.15,2.51.41-2.71,1.48-.19-1.01,4.4c-.11.5-.25.85-.42,1.04-.23.27-.61.44-1.15.51-.22.03-.56.04-1.02.04l-.26-1.03c.23.04.47.04.74,0,.18-.02.32-.08.41-.18.1-.1.17-.25.22-.47l-2.16-3.71Z"/>
        <path class="cls-2" d="m161.12,149.61l1.45-.02c-.04.31-.14.58-.29.82s-.36.44-.62.6-.61.26-1.04.32-.77.06-1.06.02c-.29-.04-.54-.14-.76-.28-.22-.15-.41-.33-.55-.55s-.24-.52-.29-.91-.03-.75.07-1.04c.08-.21.19-.4.34-.58.15-.18.32-.32.49-.42.28-.16.65-.27,1.1-.33.64-.08,1.14-.03,1.51.15s.65.49.84.91l-1.39.37c-.07-.16-.16-.28-.29-.35s-.29-.09-.49-.07c-.25.03-.44.15-.57.35-.13.2-.17.48-.12.84.04.32.15.56.33.7.17.15.38.21.62.17.2-.03.36-.1.48-.22s.2-.29.24-.51Z"/>
        <path class="cls-2" d="m164.92,147.98l-1.46.04c.02-.26.07-.47.16-.62s.21-.3.39-.43c.13-.09.31-.18.55-.25s.49-.13.78-.17c.45-.06.82-.08,1.1-.07s.52.09.72.23c.14.09.26.24.36.43s.16.38.19.57l.23,1.73c.02.18.05.33.09.43s.11.23.21.38l-1.41.19c-.07-.09-.12-.17-.14-.22s-.05-.13-.08-.24c-.17.22-.35.38-.53.48-.25.14-.55.24-.91.28-.47.06-.84,0-1.11-.19s-.43-.44-.47-.75c-.04-.3.02-.55.17-.77s.45-.4.91-.56c.55-.19.9-.31,1.07-.38s.33-.15.51-.25c-.02-.18-.08-.31-.17-.37s-.23-.08-.42-.06c-.25.03-.43.1-.54.19-.09.07-.15.2-.19.38Zm1.41.62c-.2.1-.4.19-.62.28-.29.12-.48.23-.55.32-.07.09-.1.19-.09.29.02.12.07.21.16.27s.22.09.38.06.32-.08.45-.18.22-.21.27-.34.06-.28.03-.47l-.03-.24Z"/>
        <path class="cls-2" d="m168.89,146.16l1.4-.18.08.64c.18-.29.36-.5.56-.64s.45-.23.76-.27c.42-.05.76.03,1.03.24s.44.58.5,1.1l.33,2.49-1.51.2-.28-2.16c-.03-.25-.1-.41-.21-.5s-.24-.12-.4-.1c-.18.02-.32.11-.42.27s-.12.41-.07.76l.25,1.88-1.5.2-.51-3.92Z"/>
        <path class="cls-2" d="m96.52,164.89l1.4-.18.08.64c.18-.29.36-.5.56-.64s.45-.23.76-.27c.42-.05.76.03,1.03.24s.44.58.5,1.1l.33,2.49-1.51.2-.28-2.16c-.03-.25-.1-.41-.21-.5s-.24-.12-.4-.1c-.18.02-.32.11-.42.27s-.12.41-.07.76l.25,1.88-1.5.2-.51-3.92Z"/>
        <path class="cls-2" d="m106.69,165.93l-3.02.4c.06.24.15.41.27.51.17.15.37.21.6.18.15-.02.28-.07.41-.17.08-.06.15-.15.23-.28l1.5-.06c-.17.42-.41.74-.71.96s-.75.36-1.34.44c-.52.07-.94.05-1.26-.06s-.59-.31-.83-.6-.38-.66-.44-1.09c-.08-.61.05-1.14.39-1.57s.86-.69,1.55-.78c.56-.07,1.02-.05,1.36.08s.63.34.84.64.35.71.42,1.23l.02.17Zm-1.62-.52c-.07-.29-.17-.48-.32-.59s-.32-.15-.53-.12c-.24.03-.42.15-.54.36-.08.13-.11.31-.1.55l1.48-.19Z"/>
        <path class="cls-2" d="m106.88,163.53l1.56-.21,1.09,2.39.46-2.59,1.52-.2-1.15,4.14-1.33.17-2.15-3.71Z"/>
        <path class="cls-2" d="m116.87,164.6l-3.02.4c.06.24.15.41.27.51.17.15.37.21.6.18.15-.02.28-.07.41-.17.08-.06.15-.15.23-.28l1.5-.06c-.17.42-.41.74-.71.96s-.75.36-1.34.44c-.52.07-.94.05-1.26-.06s-.59-.31-.83-.6-.38-.66-.44-1.09c-.08-.61.05-1.14.39-1.57s.86-.69,1.55-.78c.56-.07,1.02-.05,1.36.08s.63.34.84.64.35.71.42,1.23l.02.17Zm-1.62-.52c-.07-.29-.17-.48-.32-.59s-.32-.15-.53-.12c-.24.03-.42.15-.54.36-.08.13-.11.31-.1.55l1.48-.19Z"/>
        <path class="cls-2" d="m117.72,162.11l1.41-.18.08.64c.1-.3.21-.51.34-.63s.3-.2.51-.23.47,0,.76.11l-.33,1.13c-.19-.05-.33-.07-.44-.06-.2.03-.34.13-.43.3-.13.25-.15.69-.06,1.32l.17,1.32-1.51.2-.51-3.92Z"/>
        <path class="cls-2" d="m155.79,160l1.47-.34c.08.17.19.28.31.35s.27.08.46.06c.2-.03.35-.09.45-.19.08-.08.11-.16.1-.26-.01-.11-.08-.18-.2-.23-.09-.03-.31-.05-.67-.07-.53-.02-.91-.06-1.12-.11-.21-.05-.4-.16-.57-.33s-.26-.37-.29-.6c-.03-.26.01-.49.14-.7s.31-.37.57-.5c.25-.13.6-.22,1.04-.28.47-.06.82-.07,1.05-.03s.43.13.6.26.32.32.45.56l-1.41.33c-.05-.12-.13-.21-.22-.25-.13-.06-.28-.08-.44-.06s-.29.07-.36.14c-.07.07-.1.15-.09.23.01.1.07.16.18.2s.33.05.66.05c.51,0,.89.02,1.15.09s.46.19.62.36.25.37.27.59,0,.46-.12.69-.3.43-.58.6-.67.28-1.18.35c-.72.09-1.24.06-1.57-.11s-.56-.43-.7-.8Z"/>
        <path class="cls-2" d="m162.38,154.74l.2,1.49.83-.11.14,1.1-.83.11.18,1.39c.02.17.05.28.09.33.06.08.15.11.28.09.11-.01.26-.07.45-.16l.25,1.02c-.36.13-.7.22-1.03.26-.37.05-.66.04-.85-.04-.19-.07-.34-.2-.45-.39s-.19-.5-.25-.93l-.18-1.38-.55.07-.14-1.1.55-.07-.09-.72,1.41-.97Z"/>
        <path class="cls-2" d="m164.65,157.96c-.08-.6.06-1.12.41-1.56s.87-.71,1.56-.8c.79-.1,1.41.05,1.87.45.37.32.59.76.66,1.29.08.6-.06,1.12-.41,1.56s-.88.7-1.59.8c-.63.08-1.16-.01-1.59-.28-.53-.33-.84-.82-.92-1.47Zm1.51-.2c.05.35.15.6.31.75s.35.21.57.18.38-.13.5-.32.15-.46.1-.82c-.04-.34-.15-.58-.31-.73s-.35-.21-.55-.18c-.22.03-.39.14-.51.32s-.16.45-.11.8Z"/>
        <path class="cls-2" d="m170.8,160.66l-.71-5.42,1.41-.18.08.58c.16-.27.32-.46.47-.57.2-.14.44-.23.71-.27.52-.07.96.08,1.3.44s.55.84.63,1.43c.09.65,0,1.17-.27,1.56s-.64.61-1.12.67c-.23.03-.45.02-.65-.04s-.39-.15-.56-.28l.25,1.87-1.52.2Zm1.06-3.64c.04.31.14.53.29.67s.33.19.52.16c.17-.02.31-.11.41-.27s.13-.41.08-.76c-.04-.32-.13-.54-.28-.68s-.3-.19-.48-.16c-.19.03-.34.12-.45.29s-.14.42-.1.76Z"/>
        <path class="cls-2" d="m97.62,172.46l3.13-.41c.52-.07.94,0,1.25.23s.5.52.55.91c.04.32-.02.61-.19.86-.11.17-.29.32-.54.44.4.04.71.17.92.37s.34.48.39.82c.04.28,0,.54-.1.78s-.26.44-.47.6c-.13.1-.33.19-.61.26-.37.1-.62.16-.74.17l-2.89.38-.71-5.42Zm1.97,1.9l.73-.1c.26-.03.44-.1.53-.21s.12-.24.1-.41c-.02-.16-.09-.27-.2-.35s-.3-.1-.55-.06l-.74.1.13,1.03Zm.28,2.13l.85-.11c.29-.04.48-.12.59-.23s.15-.26.12-.44c-.02-.16-.1-.28-.23-.36s-.34-.1-.63-.07l-.85.11.14,1.1Z"/>
        <path class="cls-2" d="m103.91,171.64l1.5-.2.13,1.02-1.5.2-.13-1.02Zm.2,1.49l1.5-.2.51,3.92-1.5.2-.51-3.92Z"/>
        <path class="cls-2" d="m108.64,171.02l.2,1.49.83-.11.14,1.1-.83.11.18,1.39c.02.17.05.28.09.33.06.08.15.11.28.09.11-.01.26-.07.45-.16l.25,1.02c-.36.13-.7.22-1.03.26-.37.05-.66.04-.85-.04-.19-.07-.34-.2-.45-.39s-.19-.5-.25-.93l-.18-1.38-.55.07-.14-1.1.55-.07-.09-.72,1.41-.97Z"/>
        <path class="cls-2" d="m114.08,174.25l1.45-.02c-.04.31-.14.58-.29.82s-.36.44-.62.6-.61.26-1.04.32-.77.06-1.06.02c-.29-.04-.54-.14-.76-.28-.22-.15-.41-.33-.55-.55s-.24-.52-.29-.91-.03-.75.07-1.04c.08-.21.19-.4.34-.58.15-.18.32-.32.49-.42.28-.16.65-.27,1.1-.33.64-.08,1.14-.03,1.51.15s.65.49.84.91l-1.39.37c-.07-.16-.16-.28-.29-.35s-.29-.09-.49-.07c-.25.03-.44.15-.57.35-.13.2-.17.48-.12.84.04.32.15.56.33.7.17.15.38.21.62.17.2-.03.36-.1.48-.22s.2-.29.24-.51Z"/>
        <path class="cls-2" d="m116.41,173.53c-.08-.6.06-1.12.41-1.56s.87-.71,1.56-.8c.79-.1,1.41.05,1.87.45.37.32.59.76.66,1.29.08.6-.06,1.12-.41,1.56s-.88.7-1.59.8c-.63.08-1.16-.01-1.59-.28-.53-.33-.84-.82-.92-1.47Zm1.51-.2c.05.35.15.6.31.75s.35.21.57.18.38-.13.5-.32.15-.46.1-.82c-.04-.34-.15-.58-.31-.73s-.35-.21-.55-.18c-.22.03-.39.14-.51.32s-.16.45-.11.8Z"/>
        <path class="cls-2" d="m121.7,169.31l1.5-.2.13,1.02-1.5.2-.13-1.02Zm.2,1.49l1.5-.2.51,3.92-1.5.2-.51-3.92Z"/>
        <path class="cls-2" d="m124.82,170.42l1.4-.18.08.64c.18-.29.36-.5.56-.64s.45-.23.76-.27c.42-.05.76.03,1.03.24s.44.58.5,1.1l.33,2.49-1.51.2-.28-2.16c-.03-.25-.1-.41-.21-.5s-.24-.12-.4-.1c-.18.02-.32.11-.42.27s-.12.41-.07.76l.25,1.88-1.5.2-.51-3.92Z"/>
        <path class="cls-2" d="m130.64,172.11l1.61-.21.2,1.51-1.61.21-.2-1.51Z"/>
      </g>
    </g>
    <g>
      <path class="cls-4" d="m124.19,68.77c.45,1.53,1.52,3,2.58,2.97,1.24-.11,2.3-1.64,2.24-3.77-.49-5.6-2.59-10.93-6.42-15.3-1.33-1.58-3.82-1.36-4.98.44-1.16,1.79-1.36,3.82-.08,4.77,3.12,2.74,5.58,6.41,6.66,10.89Z"/>
      <path class="cls-4" d="m115.12,71.19c-.18,1.58.53,3.21,1.75,3.55,1.22.33,2.8-1,3.18-3.1,1.09-5.43.52-11.21-1.83-16.64-.86-1.99-3.33-2.22-4.91-.89-1.76,1.41-2.22,3.33-1.49,4.52,2.27,3.75,3.46,7.97,3.29,12.57Z"/>
      <path class="cls-4" d="m111.22,73.12c.27,1.61-.09,3.27-1.36,3.82-1.09.47-2.88-.69-3.49-2.58-1.84-5.23-2.04-11.17-.15-16.73.64-2,2.97-2.58,4.77-1.42,1.79,1.16,2.66,3.15,2.07,4.27-1.8,3.79-2.48,8.18-1.84,12.64Z"/>
    </g>
    <rect class="cls-2" x="82.24" y="77.54" width="59.18" height="7.56" transform="translate(-8.8 13.74) rotate(-6.77)"/>
    <rect class="cls-2" x="94.07" y="159.41" width="59.18" height="7.56" transform="translate(-18.37 15.71) rotate(-6.77)"/>
    <rect class="cls-2" x="143.08" y="71.28" width="25.32" height="7.56" transform="translate(-7.76 18.87) rotate(-6.77)"/>
    <rect class="cls-2" x="109.25" y="103.81" width="32.46" height="7.56" transform="translate(-11.8 15.53) rotate(-6.77)"/>
    <rect class="cls-2" x="125.95" y="138.68" width="48.65" height="7.56" transform="translate(-15.74 18.7) rotate(-6.77)"/>
    <rect class="cls-2" x="92.07" y="134.18" width="25.32" height="7.56" transform="translate(-15.53 13.3) rotate(-6.77)"/>
    <rect class="cls-2" x="90.65" y="125.45" width="25.32" height="7.56" transform="translate(-14.51 13.07) rotate(-6.77)"/>
    <rect class="cls-2" x="86.97" y="96.27" width="50.04" height="7.56" transform="translate(-11.01 13.89) rotate(-6.77)"/>
    <rect class="cls-2" x="83.86" y="89.35" width="21.19" height="7.56" transform="translate(-10.32 11.78) rotate(-6.77)"/>
    <rect class="cls-2" x="153.23" y="81.4" width="13.47" height="7.56" transform="translate(-8.92 19.44) rotate(-6.77)"/>
    <rect class="cls-2" x="159.85" y="125.74" width="13.47" height="7.56" transform="translate(-14.1 20.53) rotate(-6.77)"/>
    <rect class="cls-2" x="149.91" y="117.77" width="22.09" height="7.56" transform="translate(-13.2 19.81) rotate(-6.77)"/>
    <rect class="cls-2" x="139.88" y="90.53" width="27.09" height="7.56" transform="translate(-10.04 18.73) rotate(-6.77)"/>
    <rect class="cls-2" x="145.39" y="98.8" width="23.66" height="7.56" transform="translate(-10.99 19.24) rotate(-6.77)"/>
    <rect class="cls-2" x="155.37" y="154.27" width="23.17" height="7.56" transform="translate(-17.46 20.77) rotate(-6.77)"/>
    <rect class="cls-2" x="120.84" y="130.07" width="35.68" height="7.56" transform="translate(-14.81 17.27) rotate(-6.77)"/>
    <rect class="cls-2" x="88.48" y="115.84" width="33.72" height="7.56" transform="translate(-13.36 13.25) rotate(-6.77)"/>
    <rect class="cls-2" x="124.73" y="110.14" width="45.66" height="7.56" transform="translate(-12.4 18.18) rotate(-6.77)"/>
    <rect class="cls-2" x="108.15" y="85.3" width="39.79" height="7.56" transform="translate(-9.6 15.71) rotate(-6.77)"/>
    <rect class="cls-2" x="94.38" y="148.81" width="81.63" height="7.56" transform="translate(-17.04 16.99) rotate(-6.77)"/>
  </g>
</svg>