<?xml version="1.0" encoding="UTF-8"?>
<svg id="Layer_1" data-name="Layer 1" xmlns="http://www.w3.org/2000/svg" width="300" height="225" viewBox="0 0 300 225">
  <defs>
    <style>
      .cls-1 {
        fill: #fff;
      }

      .cls-2 {
        isolation: isolate;
        opacity: .35;
      }

      .cls-3 {
        fill: #232323;
      }

      .cls-4 {
        fill: #444;
      }

      .cls-5 {
        fill: #3b3b3b;
      }

      .cls-6 {
        fill: #7f7f7f;
      }

      .cls-7 {
        fill: #976b42;
      }

      .cls-8 {
        fill: #704420;
      }
    </style>
  </defs>
  <g class="cls-2">
    <ellipse class="cls-3" cx="192.7" cy="205.31" rx="84.64" ry="7.18"/>
  </g>
  <g>
    <g>
      <rect class="cls-7" x="92.02" y="7.81" width="202.94" height="125"/>
      <rect class="cls-5" x="100.51" y="15.38" width="185.96" height="110.56"/>
      <rect class="cls-7" x="190.07" y="128.68" width="6.85" height="78.56"/>
      <g>
        <polygon class="cls-7" points="129.09 207.24 174.16 126.67 179.48 130.97 138.14 207.24 129.09 207.24"/>
        <polygon class="cls-7" points="257.9 207.24 212.82 126.67 207.5 130.97 248.85 207.24 257.9 207.24"/>
      </g>
    </g>
    <g>
      <path class="cls-1" d="m107.38,63.76c.5-.01.98-.02,1.46-.04,11.88-.3,23.76-.6,35.64-.9,23.32-.59,46.64-1.17,69.96-1.76,1.35-.03,2.7-.07,4.04-.11.67-.02.67-.03.69.64,0,.12,0,.23,0,.37-.12.02-.22.05-.31.06-16.63.42-33.25.83-49.88,1.24-20.22.51-40.43,1.02-60.65,1.52-.04,0-.09,0-.13,0q-.95.03-.83-1.03Z"/>
      <path class="cls-1" d="m215.03,50.5c-.32,0-.58.01-.84.02-12.46.31-24.93.63-37.39.96-.59.02-.43-.34-.48-.64-.06-.37.12-.43.45-.44,12.57-.31,25.13-.62,37.7-.95.41-.01.62.07.56.52-.02.16,0,.32,0,.54Z"/>
      <path class="cls-1" d="m216.24,40.63c-.4.01-.76.02-1.12.03-.22,0-.41-.05-.34-.3.03-.1.23-.21.36-.22.58-.04,1.17-.01,1.75-.07.29-.03.38.08.4.31.03.35.03.7.04,1.05.16,6.04.31,12.07.47,18.11,0,.3-.07.42-.38.42-.6,0-1.2.02-1.8.04-.22,0-.38-.03-.37-.3,0-.25.16-.27.36-.25.17.02.35,0,.53,0,.57,0,.58-.02.56-.58-.14-5.87-.29-11.75-.43-17.62,0-.17,0-.35-.02-.61Z"/>
      <path class="cls-1" d="m107.31,57.33c.26-.44.43-.78.65-1.1.69-1.02,1.39-2.03,2.09-3.03.17-.25.18-.4-.03-.68-.58-.77-1.08-1.6-1.62-2.4-.3-.45-.6-.89-.89-1.34-.07-.11-.13-.27-.1-.38.02-.07.21-.14.33-.14,1.76-.05,3.51-.08,5.27-.13.39-.01.55.11.53.53-.03.42.03.85.02,1.27,0,.15-.12.29-.18.44-.2-.11-.47-.18-.59-.35-.19-.26-.26-.62-.44-.89-.1-.15-.32-.3-.48-.3-.89,0-1.77.03-2.74.05.13.24.23.48.38.7.52.77,1.05,1.53,1.6,2.29.32.44.34.78.02,1.24-.67.98-1.34,1.95-2.01,2.93-.05.07-.08.15-.14.27,1.12-.03,2.2-.03,3.27-.1.2-.01.42-.28.56-.48.14-.21.16-.51.3-.73.08-.13.29-.23.44-.23.09,0,.25.23.25.36,0,.61-.05,1.23-.06,1.84,0,.29-.2.29-.38.29-.97.03-1.93.06-2.9.08-.82.02-1.64.04-2.46.05-.17,0-.34-.02-.68-.05Z"/>
      <path class="cls-1" d="m175.31,60.48c.37,0,.71-.03,1.06-.02.11,0,.2.13.31.2-.09.1-.17.28-.26.28-.69.05-1.38.07-2.06.07-.08,0-.22-.17-.23-.27-.04-.42-.04-.85-.05-1.27-.15-5.92-.3-11.83-.45-17.75,0-.17,0-.34-.01-.54.84-.02,1.62-.05,2.4-.05.05,0,.18.2.15.25-.05.1-.18.23-.28.24-.37.04-.75.03-1.12.04-.16.99.37,18.53.54,18.82Z"/>
      <path class="cls-1" d="m255.49,60.1c-.16.79-.26,1.61-.5,2.38-.17.55-.57.97-1.2,1.09-1.53.29-2.24-.32-2.59-1.76-.24-.98-.24-2.01-.07-3.01.13-.72.47-1.35,1.11-1.77.84-.56,2.39-.04,2.74.91.09.25.22.48.26.74.08.46.11.93.15,1.39.03,0,.06.02.1.03Zm-3.41-.11c.12,1.05.01,1.96.55,2.72.14.2.43.4.66.4.21,0,.45-.22.62-.4.12-.13.17-.34.21-.52.26-1.22.26-2.44-.02-3.65-.07-.29-.19-.59-.35-.84-.28-.45-.81-.49-1.14-.07-.18.22-.33.5-.38.77-.1.59-.12,1.19-.16,1.6Z"/>
      <path class="cls-1" d="m274.12,59.63c-.16.79-.26,1.61-.5,2.38-.17.55-.57.97-1.2,1.09-1.53.29-2.24-.32-2.59-1.75-.25-.98-.24-2.01-.07-3.01.13-.72.47-1.35,1.11-1.77.85-.56,2.39-.04,2.74.91.09.25.22.48.26.74.08.46.11.93.15,1.39l.1.03Zm-1.13.61c-.07-.78-.09-1.32-.18-1.85-.06-.37-.19-.74-.37-1.07-.31-.59-.95-.6-1.28-.03-.17.29-.33.64-.34.97-.03.96,0,1.92.07,2.88.03.36.22.71.35,1.07.12.35.43.5.72.45.24-.05.56-.29.63-.51.21-.69.32-1.41.42-1.9Z"/>
      <path class="cls-1" d="m268.63,59.98c-.13.59-.23,1.42-.49,2.2-.27.83-.96,1.17-1.96,1.12-.81-.04-1.35-.48-1.63-1.27-.44-1.25-.44-2.52-.16-3.8.13-.61.42-1.16.95-1.47.34-.2.81-.27,1.21-.25,1.11.07,1.51.63,1.77,1.58.15.53.18,1.09.31,1.89Zm-3.43-.04c.13.67.25,1.4.43,2.12.1.37.36.69.78.75.39.05.65-.24.74-.56.15-.51.27-1.04.31-1.57.09-1.06.03-2.11-.43-3.09-.11-.24-.45-.54-.66-.52-.28.02-.55.31-.78.53-.11.11-.15.32-.17.49-.08.59-.14,1.19-.22,1.86Z"/>
      <path class="cls-1" d="m250,60.45c-.13.59-.24,1.43-.5,2.23-.27.82-.96,1.14-1.99,1.08-.78-.04-1.32-.5-1.59-1.26-.44-1.25-.44-2.52-.16-3.8.13-.61.41-1.17.95-1.47.35-.2.84-.27,1.25-.25,1.1.07,1.48.66,1.73,1.57.15.53.18,1.09.31,1.9Zm-3.43-.07c.12.65.23,1.34.39,2.02.11.49.53.88.87.88.35,0,.77-.43.86-.94.08-.44.14-.9.17-1.35.05-.98-.03-1.96-.4-2.88-.14-.35-.36-.64-.76-.62-.4.02-.64.31-.79.67-.05.12-.1.25-.11.38-.08.59-.14,1.19-.22,1.83Z"/>
      <path class="cls-1" d="m145.15,51.38c.15-.74.23-1.5.46-2.21.26-.83.89-1.3,1.78-1.29.89,0,1.48.23,1.86,1.29.54,1.47.49,2.97-.04,4.42-.19.52-.58.92-1.2,1.04-1.52.29-2.23-.35-2.58-1.78-.11-.47-.13-.96-.18-1.44-.03,0-.06-.01-.09-.02Zm1.16-.37c.11,1.1.04,2.01.55,2.81.23.36.69.5,1.01.21.21-.19.4-.48.46-.76.29-1.25.28-2.52-.02-3.77-.06-.26-.18-.53-.33-.76-.29-.45-.81-.49-1.14-.07-.18.22-.33.5-.38.77-.1.59-.12,1.19-.15,1.56Z"/>
      <path class="cls-1" d="m275.17,59.75c.15-.78.24-1.53.46-2.25.24-.79.85-1.24,1.7-1.29.74-.04,1.38.2,1.78.88.15.26.3.55.35.84.24,1.37.32,2.74-.25,4.05-.31.71-.94,1.02-1.73,1.04-.8.02-1.44-.27-1.72-1.01-.27-.73-.4-1.51-.6-2.27Zm1.18-.29c.1,1.01.04,1.9.53,2.69.26.4.73.53,1.07.2.2-.19.35-.47.41-.74.29-1.23.26-2.46-.01-3.69-.06-.28-.18-.56-.33-.8-.3-.49-.88-.51-1.19-.03-.19.28-.33.62-.39.95-.08.52-.07,1.05-.09,1.43Z"/>
      <path class="cls-1" d="m155.12,51.24c-.13.58-.24,1.42-.5,2.22-.27.82-.96,1.14-1.99,1.08-.77-.04-1.33-.51-1.59-1.26-.43-1.25-.44-2.52-.17-3.8.13-.61.42-1.16.95-1.47.34-.2.81-.28,1.21-.25,1.12.07,1.51.63,1.78,1.57.15.53.18,1.09.31,1.91Zm-1.08-.14c-.11-.62-.19-1.27-.35-1.91-.11-.44-.31-.89-.86-.92-.39-.02-.77.42-.91,1,0,.03-.02.06-.02.09-.02.99-.1,1.98-.03,2.97.04.53.15,1.11.6,1.52.34.3.69.32.96-.01.18-.22.34-.49.39-.77.11-.63.15-1.28.22-1.96Z"/>
      <path class="cls-1" d="m256.54,60.21c.15-.76.24-1.52.46-2.24.24-.79.85-1.25,1.7-1.29.75-.04,1.39.21,1.78.88.15.26.3.55.35.84.23,1.37.32,2.75-.26,4.06-.32.73-.98,1.02-1.79,1.03-.8,0-1.39-.32-1.66-1.04-.27-.72-.39-1.48-.59-2.25Zm1.12.06c.15.61.33,1.42.55,2.23.1.37.43.55.74.47.25-.06.56-.32.65-.56.5-1.39.42-2.81.07-4.22-.05-.22-.16-.44-.28-.63-.29-.45-.8-.49-1.14-.08-.17.21-.33.47-.37.73-.1.6-.13,1.21-.21,2.06Z"/>
      <path class="cls-1" d="m186.97,44.83c-.12.56-.22,1.39-.48,2.17-.27.84-.97,1.16-2.02,1.1-.76-.04-1.3-.51-1.57-1.28-.44-1.26-.43-2.52-.16-3.8.13-.61.46-1.1.95-1.48.71-.56,2.35-.15,2.72.68.1.23.23.45.27.69.1.54.17,1.1.29,1.91Zm-1.07-.16c-.11-.62-.19-1.28-.35-1.91-.11-.44-.31-.89-.86-.92-.39-.02-.77.42-.91.99,0,.03-.02.06-.02.09-.02.99-.1,1.98-.03,2.97.04.53.14,1.11.6,1.52.33.3.69.32.96-.01.18-.22.34-.49.39-.76.11-.63.15-1.28.22-1.95Z"/>
      <path class="cls-1" d="m166.18,68.98c-.18.84-.28,1.68-.54,2.47-.27.84-.97,1.16-2.02,1.1-.77-.04-1.3-.51-1.57-1.28-.44-1.26-.43-2.52-.16-3.8.13-.61.46-1.1.95-1.48.71-.56,2.4-.16,2.7.69.26.73.42,1.5.63,2.3Zm-1.11.01c-.15-.61-.3-1.4-.54-2.15-.08-.23-.43-.52-.66-.52-.26,0-.53.29-.75.49-.11.11-.16.32-.18.48-.07.49-.18.99-.15,1.48.06.84.16,1.69.34,2.51.17.74.88,1.02,1.3.57.19-.21.35-.49.4-.76.12-.63.15-1.27.25-2.11Z"/>
      <path class="cls-1" d="m156.22,51.11c.14-.73.22-1.47.43-2.18.44-1.52,2.4-1.72,3.25-.77.26.29.45.69.55,1.07.27,1.07.29,2.17.09,3.26-.12.64-.34,1.27-.94,1.62-1.01.59-2.46.43-2.88-.88-.22-.67-.33-1.39-.49-2.11Zm1.1-.07c.13.67.21,1.4.44,2.09.1.31.45.64.76.75.38.15.67-.22.77-.56.15-.51.26-1.04.31-1.57.09-1.06.03-2.11-.45-3.08-.11-.24-.44-.5-.67-.51-.24,0-.52.26-.73.47-.12.12-.17.34-.2.52-.09.6-.15,1.21-.23,1.89Z"/>
      <path class="cls-1" d="m139.54,51.53c.14-.73.22-1.47.43-2.17.27-.92.97-1.34,1.83-1.35.93-.01,1.53.42,1.84,1.32.52,1.48.48,2.97-.06,4.42-.19.51-.6.91-1.22,1.02-1.51.26-2.2-.37-2.55-1.78-.12-.46-.12-.96-.17-1.44-.03,0-.06-.01-.09-.02Zm3.42.37c-.07-.77-.09-1.33-.19-1.87-.06-.37-.19-.74-.37-1.07-.3-.56-.94-.58-1.26-.03-.17.29-.35.64-.35.96-.02,1.03.02,2.07.09,3.1.02.29.21.56.31.85.12.35.43.52.71.47.25-.05.59-.3.66-.53.21-.67.31-1.38.41-1.88Z"/>
      <path class="cls-1" d="m205.15,44.24c.14-.74.21-1.5.45-2.21.3-.91.95-1.29,1.82-1.3.92,0,1.53.44,1.82,1.29.5,1.48.5,2.97-.04,4.42-.19.52-.59.92-1.21,1.04-1.53.29-2.23-.37-2.58-1.78-.11-.47-.12-.96-.17-1.44-.03,0-.06-.01-.09-.02Zm3.47.17l-.08-.02c-.03-.41-.02-.82-.1-1.22-.1-.51-.22-1.03-.45-1.5-.27-.55-.91-.56-1.23-.04-.18.29-.35.64-.36.96-.03.97,0,1.95.06,2.93.02.36.23.71.34,1.07.12.35.43.5.72.45.24-.05.56-.29.63-.51.21-.69.32-1.41.46-2.12Z"/>
      <path class="cls-1" d="m128.66,49.74c-.02-.89-.03-.93.78-1.22.71-.25,1.46-.35,2.2-.13.86.26,1.26,1.25.83,2.17-.28.6-.73,1.11-1.14,1.65-.37.49-.78.95-1.16,1.43-.11.14-.17.33-.28.53.64-.02,1.23,0,1.81-.06.18-.02.33-.24.5-.36.13-.09.28-.15.42-.23.05.12.15.24.16.37.08,1.13.07,1.13-1.05,1.16-.88.02-1.76.05-2.63.06-.15,0-.31-.04-.46-.07.04-.16.06-.33.12-.48.44-1.13,1.31-1.96,2-2.91.27-.37.5-.79.69-1.21.2-.46,0-1.18-.35-1.4-.5-.32-1.19-.14-1.51.41-.27.47-.36.5-.93.29Z"/>
      <path class="cls-1" d="m178.06,44.35c.55-.01,1.08-.09,1.59-.03,1.15.15,1.56.97,1.52,1.94-.06,1.41-.96,2-2.35,2.02-.43,0-.87-.07-1.3-.17-.35-.08-.63-.82-.44-1.1.05-.08.23-.14.34-.12.2.04.45.1.55.24.33.48.77.74,1.21.64.55-.13.89-.56.93-1.18,0-.09,0-.18,0-.26-.03-1.12-.66-1.61-1.76-1.39-.13.03-.26.07-.39.09-.37.05-.62-.09-.64-.47-.05-.91-.07-1.81-.07-2.72,0-.09.21-.26.33-.27.6-.04,1.2-.04,1.8-.06.36-.01.73.04,1.02-.27.06-.07.26-.07.36-.02.06.03.1.2.09.31-.07.82-.07.83-.91.86-.53.02-1.05.04-1.58.04-.24,0-.35.09-.34.34.02.51.03,1.02.04,1.59Z"/>
      <path class="cls-1" d="m193.45,58.58c.61-.02,1.1-.02,1.59-.04.36-.01.65-.13.83-.47.05-.09.24-.19.29-.15.11.06.23.21.23.32.02.3,0,.61-.05.91-.01.09-.12.24-.18.24-1.3.02-2.6.02-3.93.02.16-.78.59-1.42,1.05-2.03.54-.73,1.13-1.42,1.62-2.17.4-.61.22-1.44-.29-1.81-.36-.26-1.09-.12-1.32.26-.08.12-.12.31-.22.37-.2.11-.44.17-.67.19-.04,0-.13-.27-.16-.43-.09-.41.05-.68.48-.76.58-.12,1.16-.32,1.75-.35,1.72-.08,2.12,1.43,1.48,2.54-.51.89-1.28,1.63-1.91,2.45-.21.27-.38.59-.59.92Z"/>
      <path class="cls-1" d="m233.66,63.2c.64-.02,1.14.02,1.62-.06.28-.05.53-.29.79-.44.1-.06.26-.2.29-.18.11.09.21.23.25.36.03.1-.04.23-.04.34q-.04.8-.86.82c-.89.02-1.79.05-2.68.06-.19,0-.37-.03-.59-.06.26-.98.81-1.74,1.4-2.48.46-.57.91-1.15,1.29-1.76.36-.58.21-1.41-.24-1.75-.44-.34-1.16-.19-1.42.31-.16.31-.35.55-.74.48-.1-.02-.25-.15-.27-.25-.13-.64-.08-.78.53-.97.54-.17,1.1-.31,1.66-.34,1.76-.1,2.14,1.45,1.49,2.56-.52.88-1.28,1.63-1.92,2.44-.21.27-.37.57-.58.9Z"/>
      <path class="cls-1" d="m165.12,54.1c-.84-.44-.85-.5-.34-1.05.45-.48.91-.96,1.36-1.44.11-.11.2-.24.28-.35-.64-.62-1.25-1.23-1.87-1.82-.17-.17-.35-.32-.1-.53.19-.16.35-.44.67-.09.52.56,1.1,1.05,1.64,1.59.22.23.35.21.56-.02.51-.57,1.05-1.1,1.57-1.66.21-.23.39-.28.62-.04.2.21.21.37,0,.59-.49.5-.95,1.03-1.43,1.55-.36.39-.35.47.04.85.48.46.95.92,1.42,1.37.2.19.36.41.12.63-.21.19-.42.33-.72-.01-.47-.55-1.04-1.03-1.56-1.54-.21-.21-.37-.22-.57.03-.55.66-1.13,1.3-1.68,1.94Z"/>
      <path class="cls-1" d="m191.34,47.82c-.84-.46-.84-.5-.33-1.06.45-.48.91-.96,1.36-1.44.11-.11.2-.24.27-.33-.64-.63-1.25-1.24-1.87-1.83-.18-.17-.33-.33-.09-.53.19-.16.35-.42.67-.08.51.56,1.1,1.05,1.64,1.59.2.2.32.23.53,0,.51-.57,1.05-1.11,1.57-1.66.19-.2.36-.34.62-.09.25.24.21.42-.02.65-.49.5-.93,1.05-1.43,1.54-.31.3-.23.52.03.77.5.48,1,.95,1.49,1.43.33.32.28.5-.08.75-.22.16-.32.07-.47-.09-.52-.53-1.06-1.05-1.59-1.57-.21-.21-.38-.27-.61,0-.55.66-1.13,1.3-1.68,1.94Z"/>
      <path class="cls-1" d="m199.75,42.26c.9-.42,1.59-1.19,2.65-1.46.01.52.02.97.04,1.42.03,1.32.06,2.63.1,3.95.03.87.13.97,1,1.01.06,0,.13,0,.17.02.08.04.15.11.23.16-.07.08-.13.22-.21.23-.27.04-.55.04-.83.05-.77.02-1.55.05-2.33.06-.13,0-.26-.13-.39-.2.12-.08.24-.23.37-.24.66-.09.98-.22.95-.96-.05-1.26-.07-2.51-.09-3.77,0-.36-.15-.45-.47-.27-.13.07-.29.11-.38.21-.31.31-.54.24-.81-.19Z"/>
      <path class="cls-1" d="m238.15,58.54c.89-.45,1.6-1.17,2.66-1.49.01.53.02.98.04,1.43.03,1.35.06,2.69.1,4.04.02.77.16.9.94.94.07,0,.16-.02.22.01.09.05.16.13.24.2-.08.07-.15.19-.24.2-.2.04-.41.03-.61.04-.85.02-1.7.05-2.54.06-.12,0-.24-.12-.36-.19.12-.09.23-.24.36-.25.74-.1.98-.25.96-.95-.05-1.26-.06-2.51-.1-3.77-.01-.41-.11-.45-.49-.27-.13.06-.29.11-.38.21-.34.35-.54.15-.78-.19Z"/>
      <path class="cls-1" d="m158.76,65.72c.05.29.1.44.1.59.04,1.6.07,3.19.12,4.79.03.92.16,1.04,1.09,1.08q.27.01.25.45c-.18,0-.36,0-.55.01-.91.02-1.81.05-2.72.05-.13,0-.26-.13-.39-.19.12-.08.22-.23.35-.24.86-.14.95-.17.96-1.04,0-1.21-.04-2.43-.1-3.64-.02-.48-.08-.49-.51-.26-.19.1-.37.24-.57.31-.12.04-.27-.02-.41-.04.02-.14-.01-.36.07-.41.73-.48,1.47-.93,2.31-1.44Z"/>
      <path class="cls-1" d="m136.85,47.98c.05.29.1.43.1.57.04,1.61.07,3.22.12,4.83.03.89.18,1.04,1.07,1.05.38,0,.31.19.27.46-1.22,0-2.44.09-3.65.04-.02-.07-.04-.14-.05-.21.14-.07.27-.19.41-.21.81-.11.92-.17.93-.97,0-1.24-.05-2.49-.09-3.73-.01-.33-.11-.57-.49-.25-.18.15-.39.26-.6.34-.11.04-.34.01-.36-.05-.05-.12-.05-.36.03-.41.74-.49,1.5-.94,2.33-1.45Z"/>
      <path class="cls-1" d="m167.62,67.34c-.19-.27-.38-.46-.49-.69-.31-.66.07-1.43.79-1.56.42-.07.87-.07,1.3-.05.55.03.92.39.97.9.03.32-.14.71-.35.97-.25.3-.31.38.09.57.48.24.48,1.3.06,1.71-.51.5-1.77.63-2.39.25-.76-.47-.83-1.39-.14-1.97.08-.06.15-.13.16-.14Zm.99.14c-.57-.05-.75.42-.77.85-.03.58.33.94.86.92.47-.01.75-.34.75-.89,0-.55-.33-.9-.84-.89Zm.77-1.16c0-.55-.27-.9-.68-.91-.52,0-.83.32-.84.88,0,.41.36.75.8.74.39,0,.73-.34.73-.72Z"/>
      <path class="cls-1" d="m211.16,41.3c-.22-.28-.46-.49-.57-.75-.24-.6-.04-1.15.58-1.41.73-.31,1.5-.39,2.2.13.4.3.48,1,.15,1.39-.15.18-.3.35-.5.59.39.14.69.31.74.76.06.55-.08.97-.52,1.3-.51.38-1.78.38-2.28-.03-.66-.53-.62-1.43.09-1.89.04-.02.07-.05.11-.09Zm1.82.98c-.02-.61-.3-.89-.88-.87-.52.02-.81.34-.79.87.02.57.38.92.9.9.5-.02.79-.36.77-.9Zm-.84-1.33c.42,0,.77-.34.77-.78,0-.47-.3-.83-.7-.85-.49-.02-.89.37-.9.87,0,.44.33.75.83.76Z"/>
      <path class="cls-1" d="m122.63,55.53c.12-.53.18-1.06.37-1.54.43-1.05,1.94-1.27,2.53-.32.32.5.34,1.21.41,1.84.04.34-.06.7-.13,1.04-.12.57-.46.99-1.03,1.14-.65.17-1.32.08-1.67-.53-.27-.48-.33-1.07-.49-1.63Zm2.56.06c-.11-.6-.19-1.1-.31-1.59-.07-.28-.23-.51-.58-.47-.36.04-.6.27-.6.59-.01.87.02,1.74.07,2.61,0,.14.13.29.23.41.29.34.71.31.87-.1.18-.48.23-1,.33-1.44Z"/>
      <path class="cls-1" d="m116.09,51.63c-.27-.02-.5-.03-.74-.05-.52-.04-.61-.13-.59-.65,0-.11.06-.32.12-.32.14-.02.3.04.44.09.05.02.08.08.11.13.23.44.57.47,1,.31.47-.17.46-.57.47-.93,0-.33-.42-.69-.82-.73-.14-.01-.3.02-.44-.01-.09-.02-.21-.14-.21-.2,0-.08.11-.19.2-.23.26-.12.53-.21.79-.33.31-.16.42-.41.32-.77-.08-.3-.23-.47-.53-.5-.33-.03-.63.05-.77.37-.11.26-.29.33-.52.27-.1-.03-.21-.19-.22-.3-.03-.23-.04-.5.29-.54.6-.08,1.2-.2,1.8-.21.37,0,.71.23.77.66.06.4.1.81-.33,1.09-.28.19-.29.44-.05.58.45.26.67.63.61,1.05-.08.56-.44.99-.96,1.12-.26.06-.52.08-.74.12Z"/>
      <path class="cls-1" d="m119.69,50.73c.49.25,1.35.12,1.7-.21.08-.08.22-.09.34-.14.04.1.1.21.1.31.01.76,0,.76-.74.76-.57,0-1.14.02-1.71.04-.22,0-.43.01-.65.02l-.09-.12c.19-.32.36-.67.59-.97.4-.52.87-.99,1.27-1.51.25-.32.45-.7.3-1.14-.18-.53-.81-.66-1.18-.23-.08.09-.12.24-.21.27-.19.06-.39.06-.59.09,0-.22-.07-.52.04-.64.36-.38,2.03-.57,2.45-.15.42.42.58,1,.21,1.48-.52.67-1.1,1.29-1.65,1.92-.06.06-.11.13-.19.23Z"/>
      <path class="cls-1" d="m222.99,63.34c-.45-.38-.45-.59-.24-.89.71-1.01,1.29-1.18,2.42-.65.34.16.68.33,1.03.48.61.26,1.05.15,1.46-.37.3-.37.55-.41.7-.09.03.08.03.2,0,.27-.55,1.08-1.58,1.42-2.69.9-.38-.18-.77-.35-1.16-.5-.57-.22-.81-.16-1.21.32-.13.15-.21.35-.31.53Z"/>
      <path class="cls-1" d="m222.48,61.11c.11-.24.18-.47.3-.66.58-.87,1.43-1.08,2.38-.58.3.15.6.31.9.46.61.29,1.11.17,1.54-.36.03-.03.05-.09.09-.1.19-.05.39-.09.58-.13-.02.17.03.39-.06.51-.78,1.15-1.39,1.36-2.76.77-.31-.13-.6-.3-.9-.45-.46-.24-.98-.11-1.36.35-.19.23-.36.44-.72.2Z"/>
      <path class="cls-1" d="m198.44,56.06c.13-.06.26-.1.38-.17.12-.07.22-.17.34-.27.21.23.24.4-.01.57-.12.08-.23.19-.35.26-.65.38-1.23.09-1.2-.64.03-.64.19-1.27.29-1.9.04-.25.1-.5-.23-.63-.01,0,.03-.29.07-.29.34-.05.69-.07,1.13-.1-.19,1.07-.37,2.08-.55,3.09.04.03.08.05.12.08Z"/>
      <path class="cls-1" d="m116.61,56.98c.02.17.08.3.05.4-.16.42-1.08.72-1.45.46-.11-.08-.22-.25-.23-.39-.01-.36.02-.72.07-1.08.04-.32.12-.63.18-.95.07-.36.1-.7-.33-.86.21-.25.63-.33,1.31-.25-.18,1.02-.35,2.04-.53,3.05l.12.08c.25-.14.5-.29.82-.47Z"/>
      <path class="cls-1" d="m117.75,54.7c.29,0,.6-.02.9-.02.95-.02,1.9-.03,2.86-.06.22,0,.37.05.38.3.01.27-.15.3-.37.31-1.13.02-2.26.06-3.38.08-.46,0-.49-.05-.39-.61Z"/>
      <path class="cls-1" d="m119.76,56.21c.6-.02,1.2-.04,1.8-.03.12,0,.24.16.36.25-.11.1-.22.27-.33.28-1.16.05-2.31.08-3.47.12-.24,0-.4-.03-.39-.32,0-.27.14-.29.37-.29.56,0,1.11-.02,1.67-.03,0,.01,0,.02,0,.03Z"/>
      <path class="cls-1" d="m243.3,65.2c-.15-.28-.2-.46,0-.76.19-.29.2-.71.25-1.08.03-.22,0-.46-.01-.71.34-.03.63-.05.91-.07.35,1.07-.07,2.05-1.15,2.62Z"/>
      <path class="cls-1" d="m262.17,62.17c.22,0,.36,0,.51-.01.13-.01.26-.04.38-.05.41,1.11-.09,2.09-1.13,2.61-.17-.25-.19-.43,0-.73.19-.31.2-.74.26-1.12.03-.21,0-.43-.01-.69Z"/>
      <path class="cls-1" d="m198.22,52.27c.02-.15.04-.27.05-.38.02-.11.04-.22.06-.37.24-.03.48-.05.72-.08.21.74-.03.98-.83.83Z"/>
      <path class="cls-1" d="m115.62,53.68c-.01-.83.07-.9.83-.75.1.68-.04.81-.83.75Z"/>
    </g>
  </g>
  <g>
    <path class="cls-3" d="m74.5,109.15c-2.38-1.43-5.44-1.02-7.05,1.56-1.61,2.56-.49,7,2.82,9.02,9.41,5.75,20.41,6.3,30.34,1.52,3.49-1.68,5.06-5.98,3.71-8.69-1.35-2.73-4.35-3.44-6.86-2.26-7.52,3.62-15.84,3.2-22.96-1.15Z"/>
    <path class="cls-3" d="m108.49,113.77c.78-.17,1.47-.69,1.47-1.28,0-.6-.82-1.16-1.85-1.11-2.76.13-5.47,1.16-7.7,2.97-.82.68-.68,1.85.2,2.48.89.63,1.91.67,2.39.12,1.37-1.56,3.27-2.71,5.47-3.18Z"/>
    <path class="cls-3" d="m108.56,115.86c.74-.31,1.59-.27,1.94.21.34.48,0,1.42-.88,1.97-2.35,1.47-5.15,2.18-8.02,1.96-1.06-.08-1.61-1.12-1.24-2.15.36-1.03,1.18-1.64,1.89-1.47,2.02.5,4.23.35,6.31-.52Z"/>
  </g>
  <g>
    <g class="cls-2">
      <ellipse class="cls-3" cx="62.66" cy="209.4" rx="38.38" ry="6.2"/>
    </g>
    <path class="cls-3" d="m34.85,165.48c.16,1.25,4.31,36.7,10.35,41.67,6.04,4.97,9.21,3.29,10.43,1.98,1.29-1.39,2.91-3.87-.1-6.67-2.42-2.25-4.11-12.24-1.7-27.82l-18.98-9.14Z"/>
    <path class="cls-3" d="m57.9,163.27c.16,1.25,4.31,36.7,10.35,41.67,6.04,4.97,9.21,3.3,10.43,1.97,1.29-1.38,2.91-3.87-.1-6.67-2.42-2.26-4.12-12.24-1.7-27.82l-18.98-9.14Z"/>
    <path class="cls-1" d="m39.68,111.94c6.98-3.87,15.82-5.95,32.15-6.59-3.89-1.65-9.04-2.41-16.58-2.41h-.01c-12.9,0-18.87,2.2-23.36,7.31-5.3,6.04-7.98,23.3-8.52,36.74.86-12.62,5.98-29.3,16.32-35.05Z"/>
    <path class="cls-4" d="m23.36,146.99c-.12,1.85-.15,3.61-.1,5.24,0-1.65.03-3.41.1-5.24Z"/>
    <path class="cls-4" d="m12.07,168.64c-1.84,1.31-4.22,1.76-5.48.64-1.25-1.11-.87-3.93,1.18-5.97,5.54-5.53,12.82-9.25,20.84-10.44,2.99-.44,5.15,2.08,4.79,5.13-.36,3.06-2.23,5.25-4.27,5.23-5.86-.09-11.88,1.7-17.05,5.4Z"/>
    <path class="cls-1" d="m35.11,86.86c-2.07-11.47,5.99-18.18,25.97-19.38,6.34-.38,12.2-7.82,16.78-9.19,13.18-3.92,16.3,4.67,16.3,4.67h.03c-6.49-14.84-25-23.52-44.64-19.89-22.29,4.13-37.56,22.55-34.11,41.16,3.44,18.61,24.3,30.35,46.58,26.23,1.94-.36,3.83-.83,5.65-1.4v-.02c-19.38,4.99-29.81-6.94-32.56-22.17Z"/>
    <path class="cls-4" d="m96.13,69.3c-.41-2.22-1.07-4.33-1.95-6.33h-.03s-3.13-8.59-16.3-4.67c-4.58,1.36-10.44,8.81-16.78,9.19-19.97,1.2-28.04,7.9-25.97,19.38,2.75,15.23,13.19,27.16,32.56,22.17v.02c19.15-5.94,31.61-22.77,28.46-39.75Z"/>
    <path class="cls-6" d="m75.39,101.49c-4.24.96-13.27-1.18-13.31-10.35-.04-9.16,9.9-12.13,13.25-12.89,3.35-.75,13.3-2.27,13.34,6.89.04,9.17-9.03,15.39-13.28,16.35Z"/>
    <path class="cls-3" d="m75.54,80.62c1.84-.42,4.58,1.01,4.91,3.32.33,2.31-5.01,3.43-5.01,3.43l-.16.03s-5.34,1.29-5.02-1.17c.31-2.46,3.03-5.11,4.87-5.53l.4-.09Z"/>
    <path class="cls-3" d="m73.93,97.21c-.46,0-.91-.05-1.34-.15-.91-.21-1.71-.6-2.4-1.17-.69-.57-1.23-1.3-1.62-2.16-.08-.17,0-.37.17-.44.17-.08.37,0,.44.17.34.77.83,1.42,1.43,1.92.6.5,1.32.85,2.12,1.03.82.18,1.7.17,2.6-.03.91-.21,1.8-.6,2.64-1.16.81-.55,1.54-1.24,2.16-2.04.63-.81,1.12-1.7,1.45-2.64.06-.17.26-.27.43-.2.17.06.27.26.2.43-.36,1.01-.89,1.96-1.56,2.82-.67.86-1.45,1.6-2.32,2.19-.91.61-1.87,1.04-2.87,1.26-.53.12-1.05.18-1.55.18Z"/>
    <circle class="cls-3" cx="57.48" cy="79.07" r="1.68"/>
    <circle class="cls-3" cx="83.45" cy="69.88" r="1.68"/>
    <path class="cls-4" d="m41.23,88.84c1.29,6.49.27,12.15-2.27,12.66-2.54.5-5.64-4.35-6.93-10.83-1.29-6.49-.27-12.15,2.27-12.65,2.54-.51,5.64,4.34,6.93,10.82Z"/>
    <path class="cls-3" d="m37.04,82.14c-2.09.43-3.13,4.68-2.85,10.4-.19-.69-.37-1.42-.51-2.18-.98-5.1-.44-9.51,1.22-9.85.7-.15,1.5.48,2.25,1.62-.03,0-.07,0-.1,0Z"/>
    <path class="cls-6" d="m52.32,80.49c-.19,0-.35-.15-.37-.34-.06-.64.01-1.27.2-1.88.19-.61.49-1.17.89-1.67.42-.51.92-.93,1.51-1.24.59-.31,1.22-.5,1.88-.56.21-.02.38.13.4.34s-.13.38-.34.4c-.56.05-1.09.21-1.59.47-.5.27-.93.62-1.28,1.05-.34.42-.6.9-.76,1.42-.16.52-.22,1.06-.17,1.6.02.2-.13.38-.34.4-.01,0-.02,0-.03,0Z"/>
    <path class="cls-6" d="m87.76,67.96c-.13,0-.26-.07-.32-.19-.27-.49-.64-.92-1.08-1.26-.45-.35-.95-.6-1.48-.74-.53-.14-1.07-.18-1.6-.11-.54.07-1.05.24-1.53.5-.18.1-.4.03-.5-.14-.1-.18-.03-.41.14-.5.56-.31,1.16-.51,1.8-.59.63-.08,1.27-.04,1.89.13.63.17,1.22.46,1.75.87.52.41.95.91,1.28,1.49.1.18.04.41-.14.5-.06.03-.12.05-.18.05Z"/>
    <path class="cls-4" d="m78.61,110.26c-1.64-1.87-3.48-3.34-5.78-4.47-.32-.15-.66-.29-1-.44-2.63.1-5.05.25-7.31.43-5.56.19-9.91.82-13.44,1.93-4.56,1.06-8.17,2.45-11.39,4.24-10.35,5.75-15.47,22.43-16.32,35.05-.07,1.83-.11,3.59-.1,5.25.02,4.27.29,7.81.8,9.95.55,2.32,2.77,4.29,6.25,5.86,5.55,2.49,14.35,3.91,24.93,3.91h.01c.99,0,1.96-.02,2.92-.04.3,0,.59-.02.88-.03.67-.03,1.32-.05,1.97-.09.32-.02.64-.04.96-.05.63-.04,1.25-.09,1.86-.13.29-.03.58-.04.86-.08.74-.06,1.47-.14,2.18-.23.12-.02.25-.03.38-.04.84-.1,1.66-.22,2.45-.35.19-.03.38-.07.57-.1.59-.1,1.18-.21,1.75-.32.24-.05.47-.09.71-.15.51-.11,1.01-.22,1.5-.34.22-.06.45-.11.67-.16.53-.14,1.04-.28,1.54-.44.12-.03.24-.06.36-.1h-.02c3.41-1.06,6.05-2.4,7.73-4,.02-.02.03-.04.05-.05.31-.3.6-.62.84-.93.09-.12.15-.26.24-.39.14-.22.3-.44.41-.66.18-.36.31-.72.4-1.1,2.16-9.05.08-42.95-7.82-51.93Z"/>
    <ellipse class="cls-4" cx="55.35" cy="158.16" rx="31.69" ry="24.97"/>
    <path class="cls-3" d="m58.85,205.67c.76.22,1.59.09,1.87-.42.28-.51-.17-1.39-1.08-1.82-2.46-1.17-5.28-1.55-8.06-1.01-1.03.21-1.45,1.29-.98,2.24.47.96,1.34,1.47,2.01,1.22,1.92-.71,4.1-.83,6.23-.21Z"/>
    <path class="cls-3" d="m57.67,210.08c.67.42,1.5.52,1.92.11s.22-1.38-.53-2.05c-2.04-1.81-4.64-2.95-7.46-3.21-1.05-.09-1.75.83-1.56,1.88.19,1.06.88,1.79,1.59,1.74,2.04-.16,4.16.35,6.04,1.53Z"/>
    <path class="cls-3" d="m54.41,213.41c.4.68,1.1,1.16,1.66.98.55-.18.83-1.13.46-2.07-.99-2.54-2.79-4.74-5.18-6.25-.89-.56-1.94-.07-2.25.96-.31,1.03-.03,1.99.63,2.27,1.88.79,3.55,2.21,4.68,4.11Z"/>
    <path class="cls-3" d="m82.94,203.05c.75.21,1.59.09,1.87-.42.28-.51-.17-1.4-1.08-1.83-2.46-1.17-5.28-1.55-8.06-1.01-1.03.2-1.45,1.28-.98,2.24.47.97,1.34,1.47,2.01,1.23,1.92-.71,4.1-.83,6.23-.21Z"/>
    <path class="cls-3" d="m81.76,207.46c.67.42,1.5.53,1.91.11.42-.41.23-1.39-.53-2.05-2.04-1.81-4.65-2.96-7.46-3.21-1.05-.09-1.75.83-1.56,1.88.19,1.06.88,1.78,1.59,1.73,2.04-.15,4.17.35,6.04,1.54Z"/>
    <path class="cls-3" d="m78.5,210.79c.4.68,1.1,1.16,1.66.97.55-.18.83-1.13.46-2.07-.99-2.54-2.79-4.75-5.18-6.25-.89-.56-1.93-.06-2.24.96-.32,1.03-.03,1.99.63,2.27,1.89.8,3.55,2.21,4.68,4.11Z"/>
    <path class="cls-1" d="m71.79,138.5c-.17,0-.34-.02-.51-.05-1.46-.28-2.41-1.69-2.13-3.15l3.29-17c.28-1.46,1.7-2.41,3.15-2.13,1.46.28,2.41,1.69,2.13,3.15l-3.29,17c-.25,1.28-1.37,2.18-2.63,2.18Z"/>
    <path class="cls-8" d="m104.03,117.09c-.21-.26-.38-.56-.5-.91-.4-1.25.23-2.6,1.37-3.23l90-44.78c.7-.35,1.6-.85,2.33-.55,1.4.58-.69,1.47-2.4,2.41l-87.45,47.67c-1.15.63-2.55.34-3.36-.63Z"/>
  </g>
  <g>
    <path class="cls-3" d="m43.37,118.94c-1.78-2.13-4.8-2.75-7.17-.85-2.37,1.89-2.76,6.44-.3,9.44,6.99,8.52,17.2,12.67,28.16,11.41,3.85-.44,6.74-3.98,6.36-6.98-.38-3.02-2.98-4.68-5.74-4.39-8.29.95-16.01-2.18-21.3-8.63Z"/>
    <path class="cls-3" d="m73.19,129.86c.74-.14,1.4-.6,1.42-1.16.02-.56-.74-1.12-1.7-1.09-2.6.05-5.16.93-7.3,2.56-.79.62-.69,1.71.12,2.33.81.62,1.77.68,2.23.18,1.33-1.42,3.15-2.45,5.22-2.83Z"/>
    <path class="cls-3" d="m74.06,134.11c.75.07,1.51-.19,1.68-.72.18-.53-.4-1.28-1.32-1.52-2.51-.67-5.22-.54-7.72.44-.93.37-1.14,1.45-.53,2.27.61.82,1.51,1.14,2.09.8,1.67-.99,3.7-1.47,5.79-1.26Z"/>
    <path class="cls-3" d="m72.71,138.34c.63.41,1.43.52,1.82.12.39-.39.22-1.32-.49-1.96-1.92-1.74-4.4-2.85-7.07-3.12-.99-.1-1.67.77-1.5,1.78.17,1.01.82,1.7,1.5,1.66,1.94-.12,3.97.37,5.74,1.52Z"/>
  </g>
  <path class="cls-3" d="m108.04,112.5c.78.16,1.62-.03,1.87-.57.24-.54-.28-1.4-1.23-1.77-2.58-1-5.48-1.16-8.24-.41-1.03.29-1.37,1.41-.82,2.35.55.94,1.47,1.39,2.13,1.08,1.89-.87,4.09-1.15,6.29-.68Z"/>
</svg>