<?xml version="1.0" encoding="UTF-8"?>
<svg id="Layer_1" data-name="Layer 1" xmlns="http://www.w3.org/2000/svg" width="300" height="225" viewBox="0 0 300 225">
  <defs>
    <style>
      .cls-1 {
        fill: #fff4c7;
      }

      .cls-2 {
        fill: #fff;
      }

      .cls-3 {
        fill: #23140a;
      }

      .cls-4 {
        isolation: isolate;
        opacity: .35;
      }

      .cls-5 {
        fill: #232323;
      }

      .cls-6 {
        fill: #444;
      }

      .cls-7 {
        fill: #7f7f7f;
      }
    </style>
  </defs>
  <g>
    <rect class="cls-2" x="47.03" y="74.57" width="68.42" height="73.65" rx="2.91" ry="2.91"/>
    <path class="cls-5" d="m112.54,148.72h-62.6c-1.88,0-3.41-1.53-3.41-3.41v-67.83c0-1.88,1.53-3.41,3.41-3.41h62.6c1.88,0,3.41,1.53,3.41,3.41v67.83c0,1.88-1.53,3.41-3.41,3.41Zm-62.6-73.65c-1.33,0-2.41,1.08-2.41,2.41v67.83c0,1.33,1.08,2.41,2.41,2.41h62.6c1.33,0,2.41-1.08,2.41-2.41v-67.83c0-1.33-1.08-2.41-2.41-2.41h-62.6Z"/>
  </g>
  <g>
    <g>
      <path class="cls-5" d="m172.96,89.58c1.76-2.74,5.19-3.89,8.22-2.01,3.02,1.86,4.13,7.1,1.7,10.94-6.92,10.91-18.2,17.18-31.12,17.28-4.54.04-8.41-3.68-8.39-7.22,0-3.57,2.8-5.87,6.05-5.92,9.77-.08,18.31-4.82,23.55-13.08Z"/>
      <path class="cls-5" d="m139.6,111.99c-.91.23-1.9.04-2.21-.59-.32-.62.27-1.65,1.37-2.12,2.98-1.29,6.35-1.6,9.63-.85,1.22.29,1.67,1.59,1.06,2.72-.61,1.12-1.66,1.69-2.45,1.36-2.24-.93-4.84-1.16-7.4-.52Z"/>
      <path class="cls-5" d="m142.04,116.98c-.71.61-1.67.9-2.23.48-.56-.41-.52-1.59.25-2.51,2.07-2.5,4.92-4.33,8.19-5.14,1.21-.3,2.21.65,2.18,1.93-.02,1.28-.71,2.26-1.56,2.33-2.42.19-4.84,1.17-6.82,2.9Z"/>
      <path class="cls-5" d="m139.91,106.56c-.94-.04-1.83-.49-1.96-1.18-.13-.68.71-1.51,1.9-1.66,3.22-.41,6.55.22,9.49,1.86,1.09.62,1.16,1.99.27,2.9-.89.92-2.06,1.16-2.73.63-1.9-1.52-4.33-2.46-6.96-2.55Z"/>
    </g>
    <g>
      <g class="cls-4">
        <ellipse class="cls-5" cx="182.43" cy="204.76" rx="44.98" ry="7.26"/>
      </g>
      <path class="cls-5" d="m215.01,153.3c-.18,1.47-5.05,43-12.12,48.82-7.07,5.82-10.79,3.86-12.22,2.32-1.51-1.62-3.41-4.53.12-7.82,2.83-2.64,4.82-14.34,2-32.6l22.23-10.71Z"/>
      <path class="cls-5" d="m188,150.71c-.19,1.47-5.05,43-12.12,48.82-7.08,5.82-10.79,3.86-12.23,2.31-1.51-1.62-3.41-4.53.12-7.81,2.83-2.65,4.82-14.34,2-32.6l22.24-10.71Z"/>
      <path class="cls-2" d="m209.35,90.58c-8.18-4.53-18.54-6.97-37.66-7.72,4.56-1.93,10.59-2.83,19.43-2.83h.01c15.12,0,22.11,2.58,27.37,8.57,6.21,7.07,9.35,27.3,9.98,43.04-1.01-14.78-7.01-34.33-19.13-41.07Z"/>
      <path class="cls-6" d="m228.48,131.64c.15,2.17.18,4.24.12,6.15,0-1.94-.04-4-.12-6.15Z"/>
      <path class="cls-6" d="m241.71,157.01c2.16,1.53,4.95,2.06,6.42.75,1.46-1.3,1.02-4.61-1.38-6.99-6.5-6.47-15.02-10.83-24.42-12.23-3.5-.51-6.04,2.44-5.61,6.01.42,3.59,2.61,6.16,5.01,6.13,6.87-.11,13.92,1.99,19.97,6.33Z"/>
      <path class="cls-6" d="m163.74,88.6c1.92-2.19,4.08-3.92,6.77-5.23.37-.18.77-.34,1.17-.51,3.08.12,5.91.29,8.57.5,6.51.23,11.61.96,15.75,2.26,5.34,1.24,9.58,2.87,13.34,4.97,12.12,6.73,18.12,26.28,19.13,41.07.08,2.15.12,4.21.12,6.15-.02,5-.33,9.15-.93,11.66-.03.12-.08.23-.11.34-3.04,13.74-18.25,24.2-36.56,24.2-20.51,0-37.13-13.1-37.13-29.26,0-.15.01-.29.01-.44-1.12-14.82,1.76-46.47,9.87-55.7Z"/>
      <g>
        <path class="cls-2" d="m216.26,57.25c.29-13.66-10.27-19.94-33.61-17.65-7.41.72-15.55-6.81-21.11-7.55-15.97-2.11-18.01,8.39-18.01,8.39h-.03c4.78-18.36,24.61-31.81,48-31.22,26.54.68,47.61,19.2,47.04,41.36-.56,22.17-22.54,39.59-49.08,38.91-2.31-.06-4.58-.26-6.8-.58v-.02c23.34,2.22,33.22-13.51,33.61-31.63Z"/>
        <path class="cls-6" d="m143.51,40.45h.03s2.04-10.51,18.01-8.4c5.55.74,13.7,8.28,21.11,7.55,16.75-1.64,26.91,1.13,31.21,7.87.55-.42,1.12-.64,1.71-.61,3.03.11,5.25,6.48,4.95,14.23-.3,7.74-3,13.92-6.03,13.8-.68-.03-1.32-.38-1.9-.99-4.76,9.92-14.34,16.46-29.94,14.98v.03c-23.25-3.36-40.76-20.54-40.24-40.77.07-2.64.45-5.21,1.09-7.69Z"/>
        <path class="cls-7" d="m172.34,81.58c5.09.33,15.14-3.81,13.5-14.42-1.64-10.61-13.69-12.22-17.7-12.48-4.01-.26-15.81-.18-14.17,10.42,1.64,10.61,13.28,16.15,18.37,16.47Z"/>
        <path class="cls-5" d="m168.33,57.45c-2.21-.14-5.12,2.01-5.07,4.75.05,2.74,6.42,3.05,6.42,3.05h.18s6.41.52,5.6-2.26c-.81-2.79-4.45-5.36-6.66-5.5l-.48-.03Z"/>
        <path class="cls-5" d="m171.99,76.68c-.19,0-.39,0-.59-.02-1.22-.08-2.44-.4-3.63-.95-1.14-.53-2.2-1.26-3.15-2.15-.95-.89-1.75-1.92-2.36-3.04-.17-.3-.06-.68.25-.85.3-.17.68-.06.85.25.55,1.01,1.27,1.92,2.12,2.73.85.8,1.8,1.45,2.82,1.93,1.04.49,2.11.77,3.18.84,1.05.07,2.04-.07,2.92-.42.85-.34,1.58-.86,2.17-1.52.59-.67,1.01-1.47,1.25-2.39.09-.33.43-.53.76-.44.33.09.53.43.44.76-.29,1.11-.81,2.08-1.52,2.9-.71.81-1.6,1.44-2.64,1.86-.89.35-1.85.53-2.87.53Z"/>
        <circle class="cls-5" cx="188.94" cy="52.34" r="1.97"/>
        <circle class="cls-5" cx="157.21" cy="46.48" r="1.97"/>
        <path class="cls-5" d="m213.16,52.13c2.5.11,4.49,4.84,5.21,11.51.09-.84.16-1.71.19-2.61.2-6.08-1.24-11.08-3.22-11.17-.84-.04-1.64.82-2.3,2.29.04,0,.08-.01.12-.01Z"/>
        <path class="cls-7" d="m195.11,53.29c-.36,0-.66-.28-.69-.64-.04-.6-.2-1.18-.46-1.72-.27-.54-.63-1.02-1.08-1.42-.46-.41-1-.73-1.59-.93-.6-.2-1.21-.29-1.83-.24-.38.03-.71-.26-.74-.64-.03-.38.26-.71.64-.74.8-.06,1.6.05,2.37.31.77.27,1.47.67,2.07,1.21.58.52,1.05,1.14,1.4,1.84.34.7.55,1.46.6,2.23.03.38-.26.71-.64.73-.02,0-.03,0-.05,0Z"/>
        <path class="cls-7" d="m151.8,45.31c-.08,0-.16-.01-.24-.04-.36-.13-.54-.53-.41-.88.28-.77.7-1.45,1.26-2.04.56-.6,1.22-1.07,1.95-1.39.7-.31,1.46-.49,2.25-.52.77-.02,1.56.1,2.28.37.36.13.54.53.41.88-.13.36-.53.54-.88.41-.56-.2-1.17-.3-1.76-.28-.6.02-1.19.16-1.74.4-.56.25-1.07.61-1.5,1.07-.43.45-.75.98-.97,1.57-.1.28-.37.45-.65.45Z"/>
      </g>
      <path class="cls-5" d="m186.89,200.39c-.89.25-1.86.1-2.2-.5-.33-.6.2-1.63,1.26-2.14,2.89-1.38,6.19-1.82,9.44-1.19,1.21.24,1.7,1.51,1.15,2.63-.56,1.13-1.57,1.72-2.36,1.44-2.25-.83-4.81-.97-7.3-.24Z"/>
      <path class="cls-5" d="m188.28,205.56c-.78.49-1.76.62-2.25.13-.49-.48-.26-1.62.62-2.41,2.39-2.12,5.44-3.46,8.74-3.76,1.23-.1,2.05.97,1.83,2.21-.22,1.24-1.03,2.09-1.87,2.03-2.39-.18-4.88.41-7.08,1.8Z"/>
      <path class="cls-5" d="m192.09,209.46c-.47.79-1.29,1.35-1.94,1.14-.65-.21-.97-1.33-.54-2.43,1.16-2.97,3.27-5.56,6.07-7.32,1.04-.66,2.27-.07,2.63,1.13.37,1.21.03,2.33-.74,2.66-2.21.93-4.16,2.59-5.48,4.82Z"/>
      <path class="cls-5" d="m158.66,197.32c-.88.25-1.87.1-2.2-.5-.33-.6.2-1.63,1.26-2.14,2.89-1.37,6.19-1.82,9.44-1.19,1.21.24,1.7,1.5,1.15,2.63-.56,1.13-1.57,1.72-2.36,1.43-2.25-.84-4.81-.97-7.3-.24Z"/>
      <path class="cls-5" d="m160.04,202.49c-.78.49-1.76.62-2.24.13-.49-.48-.27-1.62.62-2.4,2.39-2.12,5.45-3.46,8.74-3.76,1.23-.11,2.05.97,1.83,2.2-.22,1.24-1.03,2.09-1.87,2.03-2.39-.18-4.88.41-7.08,1.8Z"/>
      <path class="cls-5" d="m163.86,206.39c-.47.79-1.29,1.35-1.94,1.14-.65-.21-.97-1.33-.54-2.42,1.16-2.98,3.27-5.56,6.07-7.32,1.04-.66,2.27-.07,2.63,1.13.37,1.2.03,2.33-.74,2.65-2.21.93-4.16,2.59-5.49,4.82Z"/>
    </g>
    <g>
      <path class="cls-5" d="m181.78,98.06c.55.11,1.02.1,1.36.31.67.41,1.27.94,1.86,1.45.09.07.05.35,0,.51-.28.94-.54,1.89-.88,2.8-.11.3-.42.61-.71.73-.53.2-1.1.29-1.67.37-.41.06-.65.24-.81.63-.97,2.21-1.96,4.41-2.95,6.6-.15.34-.09.55.2.79.41.33.8.7,1.17,1.08.57.56.59,1.17.23,1.9-1.03,2.09-2.05,4.19-3,6.31-1.41,3.14-2.23,6.45-2.72,9.84-.08.56-.33.74-.81.78-.12,0-.25.03-.37.02-.59-.02-.84.26-.83.85.02,1.82,0,3.64.03,5.46,0,.44-.07.72-.52.9-5.16,2.04-10.46,3.31-16.06,2.72-3.37-.35-6.49-1.46-9.45-3.08-.66-.36-1-.9-1.21-1.61-1.02-3.45-1.61-6.97-1.99-10.54-.07-.62-.27-1.09-.84-1.38-.58-.29-.78-.75-.82-1.43-.34-5.86-.18-11.71.19-17.55.05-.86.17-1.71.22-2.57.03-.6.35-.96.88-1.12.51-.16,1.05-.21,1.55-.38.22-.08.5-.3.55-.51.61-2.44,1.2-4.89,1.76-7.34.05-.22-.1-.54-.27-.73-.4-.46-.91-.83-1.29-1.3-.19-.24-.34-.64-.27-.92.22-.97.52-1.93.85-2.88.08-.23.36-.5.59-.56.98-.23,1.97-.39,2.92.16.11.06.48-.1.54-.24.51-1.11.94-2.26,1.46-3.37.11-.24.46-.44.73-.51,1.75-.45,3.5-.2,5.24.05,1.56.23,3.1.56,4.64.89.23.05.48.32.6.56.21.41.48.43.68.1.22-.35.46-.26.73-.19,1.16.32,2.33.62,3.49.97.52.15,2.2.62,2.84.83,1.34.43,2.68.88,4.01,1.36.17.06.32.31.38.5.13.46.36.54.75.24.13-.1.36-.19.49-.14,2.39.96,4.81,1.88,6.77,3.64.41.37.52.69.38,1.27-.3,1.22-.44,2.48-.65,3.73Zm-33.89-.58c-.08.08-.13.1-.14.14-.53,2.31-1.07,4.62-1.57,6.93-.03.15.18.46.35.54,2.05.88,4.1,1.76,6.18,2.57,3.88,1.51,7.84,2.75,11.9,3.62,1.6.34,3.2.68,4.79,1.02,0,.06-.02.12-.03.18-3.41-.45-6.82-.91-10.24-1.36.04.03.09.08.14.09,3,.79,5.99,1.65,9.02,2.35,2.09.48,4.23.74,6.35,1.08.35.06.65.06.83-.4.51-1.27,1.08-2.52,1.63-3.77.58-1.32,1.17-2.64,1.81-4.09-3.69.34-7.14-.25-10.58-1.04,3.12.07,6.23.04,9.3-.69-8.45-.33-16.44-2.52-24.14-5.9,3.51,2.16,7.38,3.43,11.29,4.61-5.97-.95-11.63-2.8-16.88-5.86Zm-2.52,31.71c-.02.22-.05.34-.04.45.31,1.94.67,3.87.92,5.82.19,1.48,1.09,2.17,2.38,2.71,3.59,1.51,7.32,2.15,11.19,2.13,3.42-.02,6.76-.58,10.01-1.63.55-.18.75-.43.73-1.04-.05-1.51-.02-3.03.05-4.54.02-.53-.14-.62-.61-.6-1.7.08-3.39.16-5.09.17-4.87.02-9.61-.77-14.2-2.44-.29-.1-.58-.21-.86-.31-.26-.09-.52-.19-.79-.28l-.05.15c3.47,2.03,7.31,3.06,11.17,4.06-5.22-.59-10.09-2.28-14.81-4.65Zm20.93-3.53c.31,1.31,1.36,1.51,2.51,1.36,1.45-.18,2.6-.94,3.49-2.08.15-.2.23-.45.34-.68-.06-.06-.11-.13-.17-.19-.26.16-.56.29-.77.5-.89.92-1.82,1.71-3.2,1.73-.5,0-.86-.09-.84-.69.02-.63.22-.8.89-.78,1.47.04,2.66-.52,3.56-1.69.28-.36.61-.81.27-1.21-.25-.3-.73-.54-1.12-.56-2.15-.11-3.82.71-4.8,2.71-.58,1.17-2.01,1.97-3.23,1.83-.62-.07-.77-.28-.68-.96.07-.52.33-.66.85-.58,1.35.22,2.95-.67,3.57-1.91.33-.67.12-1.28-.57-1.53-.8-.29-1.61-.26-2.41,0-1.31.42-2.2,1.29-2.7,2.57-.22.57-.71.77-1.27.79-.4.01-.6-.19-.57-.62.05-.6.4-1.01.91-1.21,1.2-.49,2.12-1.3,2.92-2.27.94-1.14,1.68-2.39,1.68-3.92,0-.31-.16-.74-.39-.88-.19-.12-.67.02-.88.2-.63.52-1.21,1.1-1.77,1.69-1.55,1.63-2.76,3.49-3.82,5.46-.25.48-.6.83-1.16.89-.51.06-.79-.17-.8-.67,0-.65.4-1.01.93-1.25,1.89-.83,3.14-2.3,3.88-4.15.31-.78.32-1.71.33-2.58,0-.58-.44-.76-.96-.47-.28.16-.54.38-.76.61-1.97,2-3.5,4.31-4.79,6.79-.23.45-.54.79-1.19.88.13-.24.22-.38.29-.54.23-.48.51-.94.66-1.44.32-1.05.02-1.95-.84-2.62-.87-.68-1.81-.8-2.81-.28-.92.48-1.45,1.29-1.86,2.2-.37.82-1.05,1.18-2.06,1.09-.97-.09-1.73-.72-1.97-1.48-.75-2.39,1.5-5.8,3.6-6.43.42-.13.92-.07,1.37,0,.19.03.44.28.48.47.03.14-.19.4-.36.51-.59.37-1.23.51-1.93.31-.53-.15-.69.04-.54.57.22.77.7,1.31,1.51,1.43.96.14,1.66-.32,2.18-1.08.47-.68.45-1.39,0-2.07-.65-.98-1.67-1.44-2.73-1.74-2.13-.61-3.95.34-4.71,2.42-.67,1.85-.41,3.69.3,5.45.43,1.07,1.11,2,2.31,2.4.81.27,1.59.26,2.36-.13.25,1.8,1.79,2.67,3.36,1.92.59-.29,1.12-.17,1.7-.04-.33.91-.67,1.76-.94,2.64-.13.42-.17.88-.18,1.32,0,.18.19.37.29.55.14-.15.33-.27.42-.44.14-.27.19-.58.32-.86.48-1.02.97-2.04,1.4-2.93.75.31,1.32.54,1.9.78-.17.38-.4.79-.53,1.23-.24.78-.44,1.56-.61,2.36-.04.17.14.39.22.58.17-.15.39-.26.49-.45.53-1.06,1.02-2.14,1.54-3.2.12-.24.32-.45.51-.71.45.54,1,.83,1.57.57.74-.34,1.07-.16,1.21.59.02.11.14.2.22.29.75.85,1.71.83,2.66.54.65-.2,1.24-.58,1.93-.91Zm-12.42-38.55c.16.06.23.07.28.1,2.37,1.66,4.97,2.82,7.68,3.79,5.38,1.93,10.86,3.37,16.64,3.24.28,0,.51,0,.57.38.02.13.28.26.45.3.08.02.28-.18.3-.3.09-.49.37-.69.84-.72.11,0,.28-.15.29-.24,0-.1-.12-.25-.23-.31-.82-.45-1.64-.93-2.48-1.32-3.03-1.41-6.16-2.53-9.36-3.49-.98-.29-1.32-.13-1.8.89.55.2,1.11.38,1.66.59.52.21,1.09.36,1.5.87-1.83.65-7.04-.95-7.41-2.37,1.34.25,2.61.48,3.89.71.1-.3.21-.58.3-.87.03-.11,0-.24,0-.4-4.88-1.35-9.74-2.69-14.87-2.71.21.38.46.66.73.93.2.21.42.39.13.71-.07.08-.02.41.08.48.14.1.39.11.56.06.12-.04.19-.24.26-.34Zm5.04,8.87s.04-.1.06-.15c.12.04.23.07.35.11,4.44,1.56,8.94,2.9,13.63,3.51,2.44.32,4.86.31,7.28-.06.71-.11,1.39-.37,2.08-.56-.02-.07-.03-.14-.05-.22-.23.02-.46.02-.68.06-.85.14-1.69.35-2.54.42-2.86.25-5.68-.05-8.49-.57-5.25-.97-10.32-2.54-15.15-4.83-2.34-1.11-4.54-2.44-6.33-4.36-.17-.18-.38-.3-.58-.45-.04.05-.08.09-.12.14.83.87,1.65,1.75,2.48,2.62-1.26-.66-2.18-1.69-3.09-2.74-.19-.22-.49-.36-.74-.53-.04.05-.08.1-.12.15.1.17.17.38.3.52.97,1.04,1.95,2.08,2.91,3.09-.2-.12-.47-.23-.67-.41-.99-.92-1.96-1.85-2.94-2.78-.14-.13-.31-.22-.47-.33-.04.05-.09.1-.13.15.18.26.33.57.56.77.93.83,1.81,1.74,2.83,2.43,3.23,2.16,6.74,3.77,10.41,5.05,5.05,1.77,10.2,3.14,15.55,3.64,2.86.27,5.72.37,8.53-.47.18-.05.31-.25.46-.38-.21-.14-.4-.3-.63-.4-.11-.05-.28.03-.42.06-3.37.84-6.76.86-10.18.41-3.62-.48-7.15-1.34-10.6-2.54-1.19-.42-2.35-.91-3.52-1.38Zm4.08-2.01c-.1.42-.2.74-.24,1.08-.02.14.1.3.15.45.15-.11.38-.19.43-.33.17-.5.29-1.02.4-1.53.03-.16,0-.47-.06-.49-.19-.06-.44-.06-.62.02-.25.11-.46.31-.78.53-.14-.33-.2-.62-.35-.83-.15-.21-.41-.34-.62-.51-.12.2-.28.38-.35.59-.14.45-.24.91-.31,1.37-.02.14.14.3.22.46.11-.13.27-.24.33-.38.12-.25.18-.52.32-.94.23.47.32.92.51.97.23.06.55-.23.96-.43Zm11.77,4.16c.6,0,1.16-.39,1.5-1.04.22-.42.15-.85-.22-1.17-.57-.49-1.23-.48-1.9-.23-.06.02-.11.05-.16.08-.54.31-.87.98-.73,1.48.14.5.71.87,1.51.87Zm-8.98-3.43c.02-.09.04-.18.06-.27.39.07.78.15,1.18.19.15.01.3-.08.45-.12-.09-.12-.16-.3-.28-.34-.46-.15-.94-.29-1.42-.37-.12-.02-.36.17-.41.31-.17.52-.3,1.06-.42,1.6-.03.14.01.41.08.43.62.19,1.26.34,1.89.5-.06-.73-.57-.58-.92-.73-.17-.07-.31-.2-.46-.31.18-.06.37-.18.55-.17.32,0,.63.09.95.14l.08-.28c-.45-.19-.89-.38-1.34-.58Zm10.9,19.89c.85.19,1.58-.12,1.79-.7.17-.45-.14-.94-.91-1.36-.29.69-.58,1.36-.88,2.06Zm-6.67-19.52c.08.09.15.23.24.24.56.11.54.41.35.84-.13.29-.17.63-.2.95-.01.13.11.26.17.4.11-.09.28-.16.33-.27.14-.34.24-.69.34-1.05.1-.38.2-.71.73-.56.13.04.31-.07.53-.13-.57-.49-1.93-.71-2.48-.43Zm-12.45-3.95c.03-.09.06-.18.1-.28-.64-.33-1.28-.67-1.92-.99-.07-.03-.2.06-.3.1.04.1.06.28.13.3.73.22.48.71.35,1.17-.06.2-.15.4-.14.59,0,.23.1.46.15.69.14-.17.32-.33.4-.52.16-.41.25-.84.36-1.22.32.06.6.11.87.15Zm-13.4,11.96c-.78-.05-1.32.24-1.39.69-.08.48.37,1.03,1.04,1.26.11-.64.23-1.27.35-1.95Zm14.27-9.51c.05.09.12.3.2.31.12.01.34-.1.37-.21.18-.6.33-1.21.46-1.83.02-.09-.15-.23-.24-.34-.1.08-.26.13-.29.23-.18.58-.32,1.17-.5,1.84Z"/>
      <path class="cls-1" d="m175.22,84.36c.43-1.16.81-2.34,1.31-3.47,1.15-2.61,2.91-4.69,5.61-5.81.6-.25,1.31-.4,1.96-.36,1.29.07,1.84,1.34,1.04,2.36-.3.38-.75.7-1.2.9-1.07.47-2.2.79-3.26,1.27-2.2.99-3.84,2.6-4.98,4.73-.08.16-.18.31-.27.47-.07-.02-.14-.05-.21-.07Z"/>
      <path class="cls-1" d="m181.15,111.71c.69-2.94,1.81-5.65,4.11-7.71.99-.88,2.1-1.56,3.38-1.93.31-.09.64-.13.97-.13.79,0,1.44.42,1.61,1,.18.6-.12,1.53-.76,1.86-.88.45-1.83.8-2.76,1.14-2.64.95-4.71,2.58-6.09,5.05-.14.25-.3.48-.46.72Z"/>
      <path class="cls-1" d="m147.79,85.48c-.4-.63-.77-1.28-1.2-1.9-1.56-2.27-3.84-3.47-6.39-4.3-.72-.23-1.41-.63-2.02-1.07-.56-.4-.62-1.07-.36-1.67.27-.62.85-.85,1.5-.88,1.13-.06,2.06.47,2.97,1.03,2.53,1.56,4,3.92,4.97,6.64.24.69.43,1.4.65,2.1-.04.02-.08.03-.12.05Z"/>
      <path class="cls-1" d="m143.16,94.74c-.91-1.67-2.23-2.83-3.97-3.52-.42-.17-.85-.3-1.27-.45-.15-.05-.31-.1-.46-.17-.68-.31-1.04-.94-.85-1.5.17-.51.93-.79,1.64-.57,1.09.33,1.98.97,2.75,1.78,1.19,1.24,1.82,2.78,2.16,4.44Z"/>
      <path class="cls-1" d="m186.21,101.28c.59-2.32,1.56-4.38,3.72-5.61.52-.29,1.12-.49,1.71-.61.47-.1.94.05,1.15.59.22.56-.05.95-.46,1.27-.21.16-.44.32-.69.38-2.33.62-4.22,1.83-5.42,3.98Z"/>
      <path class="cls-1" d="m177.36,86.45c.41-1.71,1.08-3.25,2.29-4.51.71-.74,1.53-1.3,2.5-1.59.32-.1.71-.16,1.02-.06.3.1.68.37.76.65.08.28-.08.71-.28.98-.17.24-.51.43-.81.52-2.3.7-4.31,1.78-5.49,4.02Z"/>
      <path class="cls-1" d="m140.39,125.71c.11.18.38.41.42.69.18,1.17.27,2.35.45,3.52.2,1.33.45,2.66.69,3.98.12.68-.14,1.07-.72.9-.23-.07-.47-.43-.53-.7-.23-.99-.44-2-.58-3.01-.21-1.52-.37-3.04-.54-4.56-.05-.44.09-.77.81-.82Z"/>
      <path class="cls-1" d="m175.31,129.08c.23-.79.39-1.47.63-2.12.66-1.82,1.34-3.64,2.02-5.45.05-.13.12-.26.2-.38.19-.29.41-.51.81-.3.38.2.44.46.29.86-.64,1.63-1.28,3.27-1.88,4.91-.25.69-.42,1.41-.63,2.11-.05.16-.12.31-.15.46-.1.41-.38.63-.76.49-.22-.08-.36-.39-.51-.58Z"/>
      <path class="cls-1" d="m179.09,118.99c.45-.72.85-1.41,1.32-2.07.07-.1.47-.1.6,0,.16.12.32.46.26.6-.29.67-.64,1.32-1.03,1.93-.1.15-.49.22-.69.16-.17-.05-.27-.35-.46-.62Z"/>
      <path class="cls-1" d="m141.29,136.65c.16-.19.34-.55.52-.56.25,0,.64.21.74.43.2.43.28.93.32,1.41.01.17-.22.48-.38.51-.21.04-.59-.07-.67-.23-.23-.44-.34-.95-.54-1.56Z"/>
      <path class="cls-1" d="m147.89,97.48c5.25,3.07,10.91,4.91,16.88,5.86-3.91-1.19-7.77-2.46-11.29-4.61,7.7,3.38,15.69,5.57,24.14,5.9-3.07.73-6.18.77-9.3.69,3.44.79,6.89,1.38,10.58,1.04-.65,1.46-1.23,2.77-1.81,4.09-.55,1.25-1.12,2.5-1.63,3.77-.18.46-.48.45-.83.4-2.12-.35-4.26-.6-6.35-1.08-3.03-.69-6.02-1.55-9.02-2.35-.05-.01-.1-.06-.14-.09,3.41.45,6.83.91,10.24,1.36,0-.06.02-.12.03-.18-1.6-.34-3.2-.67-4.79-1.02-4.07-.87-8.03-2.11-11.9-3.62-2.08-.81-4.13-1.69-6.18-2.57-.17-.07-.38-.38-.35-.54.5-2.32,1.04-4.62,1.57-6.93,0-.03.06-.06.14-.14Z"/>
      <path class="cls-1" d="m145.36,129.19c4.72,2.36,9.6,4.06,14.81,4.65-3.86-1-7.7-2.03-11.17-4.06l.05-.15c.26.09.52.19.79.28.29.1.58.2.86.31,4.59,1.67,9.32,2.46,14.2,2.44,1.7,0,3.39-.09,5.09-.17.47-.02.64.07.61.6-.06,1.51-.09,3.03-.05,4.54.02.61-.19.86-.73,1.04-3.26,1.05-6.59,1.61-10.01,1.63-3.87.02-7.6-.62-11.19-2.13-1.28-.54-2.19-1.22-2.38-2.71-.25-1.95-.61-3.88-.92-5.82-.02-.11.02-.23.04-.45Z"/>
      <path class="cls-1" d="m166.29,125.67c-.69.33-1.29.71-1.93.91-.95.29-1.91.32-2.66-.54-.08-.09-.2-.18-.22-.29-.14-.75-.47-.93-1.21-.59-.57.26-1.11-.03-1.57-.57-.19.26-.39.47-.51.71-.52,1.06-1.01,2.14-1.54,3.2-.09.18-.32.3-.49.45-.08-.19-.26-.41-.22-.58.17-.79.37-1.58.61-2.36.14-.44.37-.85.53-1.23-.58-.24-1.15-.47-1.9-.78-.43.89-.92,1.91-1.4,2.93-.13.28-.18.59-.32.86-.09.17-.28.3-.42.44-.1-.18-.3-.37-.29-.55,0-.44.05-.9.18-1.32.27-.88.61-1.73.94-2.64-.57-.13-1.1-.25-1.7.04-1.56.75-3.11-.12-3.36-1.92-.77.39-1.55.4-2.36.13-1.2-.4-1.88-1.33-2.31-2.4-.71-1.76-.98-3.6-.3-5.45.76-2.08,2.58-3.03,4.71-2.42,1.07.31,2.09.76,2.73,1.74.45.68.47,1.39,0,2.07-.52.76-1.22,1.23-2.18,1.08-.81-.12-1.29-.66-1.51-1.43-.15-.53.02-.72.54-.57.71.21,1.34.06,1.93-.31.17-.11.39-.37.36-.51-.05-.19-.29-.44-.48-.47-.45-.07-.95-.12-1.37,0-2.1.64-4.35,4.04-3.6,6.43.24.76.99,1.39,1.97,1.48,1.01.1,1.7-.26,2.06-1.09.41-.91.94-1.72,1.86-2.2,1-.52,1.95-.4,2.81.28.86.68,1.16,1.58.84,2.62-.15.5-.43.96-.66,1.44-.07.15-.16.3-.29.54.65-.09.95-.43,1.19-.88,1.28-2.48,2.82-4.79,4.79-6.79.23-.23.48-.45.76-.61.51-.29.96-.11.96.47,0,.86-.01,1.8-.33,2.58-.74,1.85-1.99,3.32-3.88,4.15-.53.23-.94.6-.93,1.25,0,.5.29.73.8.67.57-.07.91-.42,1.16-.89,1.05-1.97,2.27-3.84,3.82-5.46.56-.59,1.14-1.17,1.77-1.69.22-.18.7-.32.88-.2.23.14.39.58.39.88,0,1.53-.74,2.78-1.68,3.92-.8.97-1.73,1.79-2.92,2.27-.5.2-.86.62-.91,1.21-.03.42.17.63.57.62.56-.02,1.05-.21,1.27-.79.5-1.28,1.39-2.15,2.7-2.57.8-.26,1.61-.29,2.41,0,.7.25.91.86.57,1.53-.62,1.24-2.22,2.13-3.57,1.91-.52-.08-.79.06-.85.58-.09.68.06.89.68.96,1.22.14,2.65-.66,3.23-1.83.99-2,2.65-2.82,4.8-2.71.39.02.87.26,1.12.56.33.4,0,.85-.27,1.21-.9,1.17-2.09,1.73-3.56,1.69-.67-.02-.87.15-.89.78-.02.6.34.7.84.69,1.37-.02,2.31-.81,3.2-1.73.21-.21.51-.34.77-.5.06.06.11.13.17.19-.11.23-.19.48-.34.68-.89,1.14-2.04,1.9-3.49,2.08-1.15.15-2.2-.05-2.51-1.36Zm-14.47-3.6c.5-.95.95-1.72.99-2.65.02-.4,0-.89-.5-.89-.3,0-.76.3-.87.58-.38.95-.27,1.9.38,2.95Zm-1.39-2.5c-.54.4-.92,1.25-.9,2.09,0,.33.11.69.28.96.24.39.92.4,1.32.09.43-.33-.03-.51-.13-.74-.12-.28-.27-.55-.34-.85-.11-.49-.16-.99-.24-1.55Zm12.84,4.16c.53-.05.88-.03,1.21-.12.76-.2,1.37-.64,1.69-1.38.18-.43,0-.66-.45-.54-1.05.28-1.79.96-2.44,2.05Zm5.33.29c1.15.25,2.36-.33,2.86-1.27.07-.13.13-.34.07-.45-.05-.1-.28-.17-.41-.14-1.11.25-1.83,1.02-2.52,1.86Zm-5.09-5.15l-.22-.2c-.64.74-1.28,1.49-1.93,2.23.06.05.12.11.18.16.66-.73,1.31-1.46,1.97-2.19Zm-3.52-.72c-.07-.06-.14-.12-.21-.19-.6.72-1.19,1.45-1.79,2.17.06.05.13.11.19.16.6-.71,1.21-1.43,1.81-2.14Z"/>
      <path class="cls-1" d="m153.87,87.11c-.07.1-.14.3-.26.34-.17.05-.42.04-.56-.06-.1-.07-.15-.4-.08-.48.29-.32.08-.5-.13-.71-.26-.27-.51-.56-.73-.93,5.13.02,10,1.36,14.87,2.71,0,.17.03.29,0,.4-.08.29-.19.58-.3.87-1.28-.24-2.55-.47-3.89-.71.37,1.42,5.57,3.02,7.41,2.37-.41-.52-.98-.67-1.5-.87-.54-.21-1.1-.4-1.66-.59.48-1.02.82-1.18,1.8-.89,3.2.95,6.34,2.07,9.36,3.49.85.4,1.66.87,2.48,1.32.11.06.23.21.23.31,0,.09-.18.23-.29.24-.47.03-.75.23-.84.72-.02.12-.22.31-.3.3-.17-.04-.43-.17-.45-.3-.06-.38-.29-.38-.57-.38-5.78.14-11.26-1.31-16.64-3.24-2.7-.97-5.31-2.13-7.68-3.79-.05-.03-.11-.04-.28-.1Z"/>
      <path class="cls-1" d="m158.91,95.98c1.17.46,2.33.96,3.52,1.38,3.44,1.2,6.98,2.05,10.6,2.54,3.42.46,6.81.43,10.18-.41.14-.03.31-.11.42-.06.22.09.42.26.63.4-.15.13-.29.32-.46.38-2.8.83-5.66.73-8.53.47-5.35-.5-10.5-1.87-15.55-3.64-3.66-1.28-7.18-2.89-10.41-5.05-1.03-.69-1.91-1.6-2.83-2.43-.23-.21-.37-.51-.56-.77.04-.05.09-.1.13-.15.16.11.33.2.47.33.98.92,1.95,1.86,2.94,2.78.2.18.47.29.67.41-.96-1.02-1.94-2.05-2.91-3.09-.13-.14-.2-.34-.3-.52.04-.05.08-.1.12-.15.25.17.55.31.74.53.91,1.05,1.83,2.08,3.09,2.74-.83-.87-1.65-1.75-2.48-2.62.04-.05.08-.09.12-.14.19.15.41.28.58.45,1.79,1.92,4,3.25,6.33,4.36,4.83,2.29,9.9,3.86,15.15,4.83,2.81.52,5.63.83,8.49.57.85-.08,1.69-.28,2.54-.42.22-.04.46-.04.68-.06.02.07.03.14.05.22-.69.19-1.38.45-2.08.56-2.42.37-4.84.38-7.28.06-4.69-.61-9.19-1.95-13.63-3.51-.11-.04-.23-.07-.35-.11-.02.05-.04.1-.06.15Z"/>
      <path class="cls-1" d="m162.98,93.97c-.41.2-.73.48-.96.43-.19-.04-.28-.5-.51-.97-.14.42-.2.69-.32.94-.07.15-.22.26-.33.38-.08-.15-.24-.32-.22-.46.07-.46.17-.92.31-1.37.06-.21.23-.4.35-.59.21.17.46.3.62.51.16.21.22.5.35.83.32-.22.53-.42.78-.53.18-.08.43-.08.62-.02.07.02.09.33.06.49-.11.52-.23,1.04-.4,1.53-.05.14-.28.22-.43.33-.05-.15-.17-.31-.15-.45.04-.33.14-.66.24-1.08Z"/>
      <path class="cls-1" d="m174.75,98.13c-.8,0-1.37-.37-1.51-.87-.14-.5.19-1.18.73-1.48.05-.03.11-.06.16-.08.67-.25,1.33-.26,1.9.23.37.32.44.75.22,1.17-.34.66-.9,1.04-1.5,1.04Zm-.06-.59c.62,0,1.14-.43.98-.86-.1-.28-.51-.56-.82-.62-.51-.09-.93.35-.92.82,0,.54.34.69.76.66Z"/>
      <path class="cls-1" d="m165.77,94.69c.45.19.89.38,1.34.58l-.08.28c-.32-.05-.63-.13-.95-.14-.18,0-.37.11-.55.17.15.1.29.24.46.31.35.14.86,0,.92.73-.63-.16-1.27-.31-1.89-.5-.07-.02-.11-.29-.08-.43.12-.54.24-1.08.42-1.6.05-.14.29-.33.41-.31.48.08.95.22,1.42.37.12.04.19.22.28.34-.15.04-.31.14-.45.12-.4-.04-.79-.12-1.18-.19-.02.09-.04.18-.06.27Z"/>
      <path class="cls-1" d="m176.66,114.58c.3-.7.59-1.37.88-2.06.77.42,1.08.9.91,1.36-.21.58-.94.89-1.79.7Z"/>
      <path class="cls-1" d="m170,95.06c.54-.28,1.91-.06,2.48.43-.22.06-.39.17-.53.13-.53-.15-.63.18-.73.56-.09.35-.2.71-.34,1.05-.05.12-.21.18-.33.27-.06-.13-.18-.27-.17-.4.03-.32.07-.66.2-.95.19-.44.21-.73-.35-.84-.09-.02-.15-.15-.24-.24Z"/>
      <path class="cls-1" d="m157.55,91.11c-.28-.05-.55-.1-.87-.15-.11.38-.21.81-.36,1.22-.08.2-.26.35-.4.52-.06-.23-.15-.46-.15-.69,0-.2.09-.39.14-.59.13-.46.38-.95-.35-1.17-.07-.02-.09-.2-.13-.3.1-.04.23-.13.3-.1.65.32,1.28.66,1.92.99-.03.09-.06.18-.1.28Z"/>
      <path class="cls-1" d="m144.15,103.07c-.12.68-.24,1.31-.35,1.95-.68-.23-1.12-.78-1.04-1.26.07-.45.61-.74,1.39-.69Z"/>
      <path class="cls-1" d="m158.42,93.57c.18-.66.32-1.25.5-1.84.03-.1.19-.15.29-.23.08.12.26.25.24.34-.12.62-.28,1.23-.46,1.83-.03.1-.25.22-.37.21-.09-.01-.15-.22-.2-.31Z"/>
      <path class="cls-5" d="m151.82,122.06c-.64-1.05-.76-2-.38-2.95.11-.28.57-.58.87-.58.5,0,.52.49.5.89-.04.93-.49,1.7-.99,2.65Z"/>
      <path class="cls-5" d="m150.43,119.56c.08.56.13,1.06.24,1.55.06.29.22.57.34.85.1.24.56.41.13.74-.41.31-1.09.3-1.32-.09-.17-.28-.27-.64-.28-.96-.02-.84.36-1.68.9-2.09Z"/>
      <path class="cls-5" d="m163.27,123.72c.65-1.08,1.39-1.76,2.44-2.05.44-.12.64.12.45.54-.32.74-.93,1.18-1.69,1.38-.33.09-.68.07-1.21.12Z"/>
      <path class="cls-5" d="m168.61,124.02c.68-.84,1.4-1.61,2.52-1.86.13-.03.36.05.41.14.06.11,0,.32-.07.45-.5.93-1.71,1.51-2.86,1.27Z"/>
      <path class="cls-5" d="m163.52,118.87c-.66.73-1.31,1.46-1.97,2.19-.06-.05-.12-.11-.18-.16.64-.74,1.28-1.49,1.93-2.23l.22.2Z"/>
      <path class="cls-5" d="m160,118.15c-.6.71-1.21,1.43-1.81,2.14-.06-.05-.13-.11-.19-.16.6-.72,1.19-1.45,1.79-2.17.07.06.14.12.21.19Z"/>
      <path class="cls-5" d="m174.69,97.54c-.43.04-.76-.12-.76-.66,0-.47.41-.91.92-.82.31.05.72.34.82.62.16.43-.37.85-.98.86Z"/>
      <path class="cls-5" d="m154.05,88.81l2.94,1.29s7.94,2.92,9.53,3.25c1.59.33,10.02,1.86,10.14,1.84s1.61.66,1.42,1.03-1.04,2.52-1.04,2.52c0,0-.21.67-3.12.11-2.91-.56-15.67-4.43-15.67-4.43l-4.84-2.53.63-3.09Z"/>
    </g>
    <g>
      <path class="cls-5" d="m200.6,91.55c2.08-2.5,5.62-3.22,8.4-.99,2.77,2.21,3.24,7.55.35,11.06-8.2,9.98-20.15,14.84-32.99,13.37-4.51-.52-7.9-4.67-7.45-8.18.44-3.54,3.49-5.49,6.73-5.14,9.71,1.11,18.76-2.56,24.96-10.11Z"/>
      <path class="cls-5" d="m165.67,104.34c-.87-.16-1.63-.71-1.66-1.36-.03-.65.86-1.31,1.99-1.28,3.04.06,6.05,1.09,8.55,3.01.92.72.81,2-.15,2.73-.95.73-2.07.79-2.62.21-1.56-1.66-3.68-2.87-6.11-3.31Z"/>
      <path class="cls-5" d="m164.64,109.32c-.88.08-1.76-.23-1.97-.84-.21-.62.47-1.5,1.55-1.78,2.94-.79,6.11-.63,9.04.52,1.09.43,1.33,1.7.62,2.66-.71.96-1.77,1.34-2.46.93-1.95-1.16-4.33-1.72-6.79-1.48Z"/>
      <path class="cls-5" d="m166.23,114.27c-.74.48-1.67.61-2.14.14-.46-.45-.26-1.54.57-2.3,2.25-2.04,5.15-3.34,8.29-3.65,1.17-.11,1.96.9,1.76,2.08-.2,1.18-.97,2-1.76,1.95-2.27-.15-4.64.43-6.72,1.78Z"/>
    </g>
    <circle class="cls-5" cx="168.87" cy="75.18" r="2.36"/>
    <g>
      <path class="cls-3" d="m72.14,88.81c-.22-.76-1.77-.89-1.77-.25,0,.8,2.97.38,2.97,2.77,0,.99-.74,2.02-1.81,2.36v.72h-1.46v-.65c-1.77-.21-2.27-1.15-2.27-1.15l.9-1.73c.73,1.08,2.48,1.22,2.48.59,0-.9-2.9-.33-2.9-3.03,0-.94.54-1.78,1.69-2.08v-.16c0-.31-.25-.56-.56-.56h2.02v.63c1.03.16,1.61.81,1.61.81l-.9,1.73Z"/>
      <path class="cls-3" d="m81.26,92.96c0,.31.25.56.56.56h-3.21c.31,0,.56-.25.56-.56v-1.41l-.12.63h-3.18c.31,0,.59-.25.62-.56l.49-4.54c.03-.31-.19-.56-.5-.56h2.65l-.4,3.71h.44v-.77h2.65c-.31,0-.56.25-.56.56v2.94Z"/>
      <path class="cls-3" d="m83.54,94.22h-1.46l.42-2.09c.07-.31-.13-.56-.44-.56h2.02l-.54,2.65Z"/>
      <path class="cls-3" d="m89.89,92.96c0,.31.25.56.56.56h-6.13c.31,0,.56-.25.56-.56v-1.4s2.83-2.17,2.83-2.97c0-.52-1-.53-1.51-.12-.16.15-.22.42-.12.64l-.23-.45-.81-1.55s.75-.84,2.07-.84c1.83,0,2.69,1.02,2.69,2.2,0,1.31-1.52,2.58-2.04,2.97l-.63.12h2.76v1.4Zm-3.8-3.83s-.01-.02-.01-.02v.02Z"/>
      <path class="cls-3" d="m90.69,88.76c0-.74.26-2.47,2.68-2.47s2.68,1.73,2.68,2.47v2.54c0,.74-.26,2.47-2.68,2.47s-2.68-1.73-2.68-2.47v-2.54Zm3.41,0c0-.1-.01-.35-.1-.41-.06-.04-.22-.11-.63-.11h-1.22l.58.12c-.08.07-.09.3-.09.4v2.54c0,.1.01.35.1.41.06.04.22.11.63.11s.57-.07.63-.11c.09-.06.1-.31.1-.41v-2.54Z"/>
      <path class="cls-3" d="m85.6,100.6h-6.8v-1.19c0-.31-.25-.56-.56-.56h7.36v1.75Zm0,2.55h-6.8v-1.19c0-.31-.25-.56-.56-.56h7.36v1.75Z"/>
      <path class="cls-3" d="m59.21,110.76c0-.74.26-2.47,2.68-2.47s2.68,1.73,2.68,2.47v2.54c0,.74-.26,2.47-2.68,2.47s-2.68-1.73-2.68-2.47v-2.54Zm3.41,0c0-.1-.01-.35-.1-.41-.06-.04-.22-.11-.63-.11h-1.22l.58.12c-.08.07-.09.3-.09.4v2.54c0,.1.01.35.1.41.06.04.22.11.63.11s.57-.07.63-.11c.09-.06.1-.31.1-.41v-2.54Z"/>
      <path class="cls-3" d="m65.37,115.52v-1.39c0-.31-.25-.56-.56-.56h2.51v1.95h-1.95Z"/>
      <path class="cls-3" d="m67.56,110.76c0-.74.26-2.47,2.68-2.47s2.68,1.73,2.68,2.47v2.54c0,.74-.26,2.47-2.68,2.47s-2.68-1.73-2.68-2.47v-2.54Zm3.41,0c0-.1-.01-.35-.1-.41-.06-.04-.22-.11-.63-.11h-1.22l.58.12c-.08.07-.09.3-.09.4v2.54c0,.1.01.35.1.41.06.04.22.11.63.11s.57-.07.63-.11c.09-.06.1-.31.1-.41v-2.54Z"/>
      <path class="cls-3" d="m73.17,110.76c0-.74.26-2.47,2.68-2.47s2.68,1.73,2.68,2.47v2.54c0,.74-.26,2.47-2.68,2.47s-2.68-1.73-2.68-2.47v-2.54Zm3.41,0c0-.1-.01-.35-.1-.41-.06-.04-.22-.11-.63-.11h-1.22l.58.12c-.08.07-.09.3-.09.4v2.54c0,.1.01.35.1.41.06.04.22.11.63.11s.57-.07.63-.11c.09-.06.1-.31.1-.41v-2.54Z"/>
      <path class="cls-3" d="m84.13,114.96c0,.31.25.56.56.56h-6.13c.31,0,.56-.25.56-.56v-1.4s2.83-2.17,2.83-2.97c0-.52-1-.53-1.51-.12-.16.15-.22.42-.12.64l-.23-.45-.81-1.55s.75-.84,2.07-.84c1.83,0,2.69,1.02,2.69,2.2,0,1.31-1.52,2.58-2.04,2.97l-.63.12h2.76v1.4Zm-3.8-3.83s-.01-.02-.01-.02v.02Z"/>
      <path class="cls-3" d="m92.53,111.57c.42.42.68,1,.68,1.64,0,1.27-1.03,2.31-2.3,2.31h-3.69c.31,0,.56-.25.56-.56v-5.88c0-.31-.25-.56-.56-.56h3.2c1.2,0,2.17.97,2.17,2.17,0,.28-.06.54-.15.79-.06.13-.36.55-.36.55l.45-.46Zm-1.59,2.02c.21,0,.38-.17.38-.38s-.17-.38-.38-.38h-1.84l.63.13v.63h1.21Zm-.48-2.52c.2,0,.37-.17.37-.38s-.17-.38-.37-.38h-.73v.76h.73Z"/>
      <path class="cls-3" d="m99.04,108.52c-.31,0-.56.25-.56.56v1.39h-2.27l.63.13v4.36c0,.31.25.56.56.56h-3.21c.31,0,.56-.25.56-.56v-4.49h-1.64v-1.39c0-.31-.25-.56-.56-.56h6.49Z"/>
      <path class="cls-3" d="m103.36,111.74c.11-.21.08-.45-.06-.62-.25-.29-.62-.47-1.02-.47-.76,0-1.37.61-1.37,1.37s.61,1.36,1.37,1.36c.54,0,1.01-.32,1.23-.78l1.07,2.18c-.62.53-1.43.84-2.3.84-1.99,0-3.6-1.62-3.6-3.6s1.61-3.6,3.6-3.6c.89,0,1.72.33,2.35.88l-1.27,2.44Z"/>
      <path class="cls-3" d="m85.6,122.6h-6.8v-1.19c0-.31-.25-.56-.56-.56h7.36v1.75Zm0,2.55h-6.8v-1.19c0-.31-.25-.56-.56-.56h7.36v1.75Z"/>
      <path class="cls-3" d="m56.82,137.52h-5.02v-1.96s2.83-2.17,2.83-2.97c0-.52-1-.53-1.5-.12-.18.16-.23.42-.12.64l-1.04-2s.74-.84,2.06-.84c1.84,0,2.69,1.02,2.69,2.2,0,1.57-2.2,3.09-2.2,3.09h2.3v1.96Zm-3.81-4.41v.02s0-.02,0-.02Z"/>
      <path class="cls-3" d="m58.26,132.75c0-.74.26-2.47,2.68-2.47s2.68,1.73,2.68,2.47v2.54c0,.74-.26,2.47-2.68,2.47s-2.68-1.73-2.68-2.47v-2.54Zm3.41,0c0-.1-.01-.35-.1-.41-.06-.04-.22-.11-.63-.11s-.57.07-.62.11c-.1.06-.11.31-.11.41v2.54c0,.1.01.35.11.41.05.04.21.11.62.11s.57-.07.63-.11c.09-.06.1-.31.1-.41v-2.54Z"/>
      <path class="cls-3" d="m63.86,132.75c0-.74.26-2.47,2.68-2.47s2.68,1.73,2.68,2.47v2.54c0,.74-.26,2.47-2.68,2.47s-2.68-1.73-2.68-2.47v-2.54Zm3.41,0c0-.1-.01-.35-.1-.41-.06-.04-.22-.11-.63-.11s-.57.07-.62.11c-.1.06-.11.31-.11.41v2.54c0,.1.01.35.11.41.05.04.21.11.62.11s.57-.07.63-.11c.09-.06.1-.31.1-.41v-2.54Z"/>
      <path class="cls-3" d="m70.66,132.75c0-.74.26-2.47,2.68-2.47s2.68,1.73,2.68,2.47v2.54c0,.74-.26,2.47-2.68,2.47s-2.68-1.73-2.68-2.47v-2.54Zm3.41,0c0-.1-.01-.35-.1-.41-.06-.04-.22-.11-.63-.11s-.57.07-.62.11c-.1.06-.11.31-.11.41v2.54c0,.1.01.35.11.41.05.04.21.11.62.11s.57-.07.63-.11c.09-.06.1-.31.1-.41v-2.54Z"/>
      <path class="cls-3" d="m76.26,132.75c0-.74.26-2.47,2.68-2.47s2.68,1.73,2.68,2.47v2.54c0,.74-.26,2.47-2.68,2.47s-2.68-1.73-2.68-2.47v-2.54Zm3.41,0c0-.1-.01-.35-.1-.41-.06-.04-.22-.11-.63-.11s-.57.07-.62.11c-.1.06-.11.31-.11.41v2.54c0,.1.01.35.11.41.05.04.21.11.62.11s.57-.07.63-.11c.09-.06.1-.31.1-.41v-2.54Z"/>
      <path class="cls-3" d="m81.86,132.75c0-.74.26-2.47,2.68-2.47s2.68,1.73,2.68,2.47v2.54c0,.74-.26,2.47-2.68,2.47s-2.68-1.73-2.68-2.47v-2.54Zm3.41,0c0-.1-.01-.35-.1-.41-.06-.04-.22-.11-.63-.11s-.57.07-.62.11c-.1.06-.11.31-.11.41v2.54c0,.1.01.35.11.41.05.04.21.11.62.11s.57-.07.63-.11c.09-.06.1-.31.1-.41v-2.54Z"/>
      <path class="cls-3" d="m94.04,132.85c-.21-.74-1.71-.87-1.71-.25,0,.78,2.88.37,2.88,2.69,0,1.17-1.06,2.4-2.47,2.4-2.29,0-2.91-1.16-2.91-1.16l.87-1.68c.71,1.05,2.41,1.19,2.41.58,0-.88-2.81-.32-2.81-2.94,0-1.15.82-2.14,2.61-2.14,1.28,0,2.01.82,2.01.82l-.88,1.68Z"/>
      <path class="cls-3" d="m97.72,136.6l-.16.92h-2.13l1.31-6.44c.07-.34-.15-.56-.44-.56h3.67l1.43,7h-2.14l-.16-.92h-1.38Zm.69-3.94l-.35,1.99h.7l-.35-1.99Z"/>
      <path class="cls-3" d="m101.2,132.47v-1.39c0-.31-.25-.56-.56-.56h5.93v1.95h-1.64v5.05h-2.09v-5.05h-1.64Z"/>
      <path class="cls-3" d="m110.8,132.85c-.21-.74-1.71-.87-1.71-.25,0,.78,2.88.37,2.88,2.69,0,1.17-1.06,2.4-2.47,2.4-2.29,0-2.91-1.16-2.91-1.16l.87-1.68c.71,1.05,2.41,1.19,2.41.58,0-.88-2.81-.32-2.81-2.94,0-1.15.82-2.14,2.61-2.14,1.28,0,2.01.82,2.01.82l-.88,1.68Z"/>
    </g>
    <g>
      <path class="cls-1" d="m165.09,89.44l-1.27-8.97c-.04-.28.05-.56.24-.76l3.67-4.88c.28-.35.74-.49,1.17-.36.37.11.81.25,1.13.35.83.27-3.07,4.5-3.96,5.44-.19.2-.28.47-.24.74l1.52,8.94c.08.59-.81.07-1.4,0h0c-.39-.05-.8-.11-.86-.49Z"/>
      <path class="cls-5" d="m167.13,90.59c-.22,0-.47-.08-.72-.16-.17-.05-.35-.11-.51-.13-.41-.06-1.07-.15-1.18-.81h0s-1.27-8.97-1.27-8.97c-.06-.39.07-.79.34-1.08l3.64-4.85c.38-.48,1-.67,1.58-.49.37.11.82.25,1.13.36.18.06.31.2.35.38.25.98-3.13,4.59-4.16,5.68-.11.11-.16.27-.14.43l1.52,8.93c.04.32-.07.49-.18.58-.12.1-.25.14-.41.14Zm-1.67-1.21c.02.09.18.13.52.18.21.03.43.1.65.16.09.03.21.07.31.09l-1.49-8.75c-.06-.4.07-.78.34-1.06,1.75-1.82,3.69-4.16,3.95-4.88-.29-.09-.64-.2-.95-.3-.28-.09-.58,0-.77.24l-3.66,4.87c-.14.15-.2.32-.17.48l1.27,8.97Z"/>
    </g>
    <path class="cls-5" d="m115.46,137.19c-.17,0-.33-.08-.43-.24-.14-.24-.07-.54.17-.69l22.48-13.76c.24-.14.54-.07.69.17.14.24.07.54-.17.69l-22.48,13.76c-.08.05-.17.07-.26.07Z"/>
  </g>
</svg>