<?xml version="1.0" encoding="UTF-8"?>
<svg id="Layer_1" data-name="Layer 1" xmlns="http://www.w3.org/2000/svg" width="300" height="225" viewBox="0 0 300 225">
  <defs>
    <style>
      .cls-1 {
        fill: #fff;
      }

      .cls-2 {
        fill: #fecd03;
      }

      .cls-3 {
        fill: #ffd785;
      }

      .cls-4 {
        fill: #f7f7f9;
      }

      .cls-5 {
        isolation: isolate;
        opacity: .35;
      }

      .cls-6 {
        fill: #232323;
      }

      .cls-7 {
        fill: #dcdce2;
      }

      .cls-8 {
        fill: #444;
      }

      .cls-9 {
        fill: #eaeaea;
      }

      .cls-10 {
        fill: #6d1c4a;
      }

      .cls-11 {
        fill: #d4971d;
      }

      .cls-12 {
        fill: #bf1921;
      }

      .cls-13 {
        fill: #7f7f7f;
      }

      .cls-14 {
        fill: #eb9850;
      }
    </style>
  </defs>
  <g>
    <g class="cls-5">
      <ellipse class="cls-6" cx="149" cy="199.36" rx="46.82" ry="7.58"/>
    </g>
    <g>
      <g>
        <g>
          <path class="cls-6" d="m151.89,153.86c.21,1.37,4.52,39.46,11.05,44.82,6.52,5.37,9.89,3.58,11.26,2.1,1.37-1.47,3.16-4.1-.11-7.15-2.63-2.42-4.42-13.15-1.79-29.88l-20.41-9.89Z"/>
          <g>
            <path class="cls-6" d="m178.72,196.68c.84.21,1.68.11,2-.42.32-.53-.21-1.47-1.16-2-2.63-1.26-5.68-1.68-8.63-1.16-1.16.21-1.58,1.37-1.05,2.42s1.47,1.58,2.21,1.37c2-.74,4.31-.84,6.63-.21Z"/>
            <path class="cls-6" d="m177.46,201.42c.74.42,1.58.53,2.1.11.42-.42.21-1.47-.53-2.21-2.21-2-4.95-3.16-8-3.47-1.16-.11-1.89.84-1.68,2,.21,1.16.95,1.89,1.68,1.89,2.1-.11,4.42.42,6.42,1.68Z"/>
            <path class="cls-6" d="m173.88,204.99c.42.74,1.16,1.26,1.79,1.05.63-.21.95-1.26.53-2.21-1.05-2.74-2.95-5.16-5.58-6.73-.95-.63-2.1-.11-2.42,1.05-.32,1.05,0,2.1.63,2.42,2.1.84,3.89,2.42,5.05,4.42Z"/>
          </g>
        </g>
        <g>
          <path class="cls-6" d="m147.89,153.54c-.21,1.37-4.73,39.46-11.15,44.72-6.52,5.37-9.89,3.47-11.26,2.1-1.37-1.47-3.16-4.21.11-7.15,2.63-2.42,4.42-13.15,1.89-29.88l20.41-9.79Z"/>
          <g>
            <path class="cls-6" d="m122.01,196.68c-.84.21-1.68.11-2-.42s.21-1.47,1.16-2c2.63-1.26,5.68-1.68,8.63-1.05,1.16.21,1.58,1.37,1.05,2.42s-1.47,1.58-2.21,1.26c-2-.74-4.31-.84-6.63-.21Z"/>
            <path class="cls-6" d="m123.27,201.42c-.74.42-1.58.53-2.1.11-.42-.42-.21-1.47.53-2.21,2.21-1.89,5.05-3.16,8-3.47,1.16-.11,1.89.95,1.68,2-.21,1.16-.95,1.89-1.68,1.89-2.1-.11-4.42.42-6.42,1.68Z"/>
            <path class="cls-6" d="m126.85,204.99c-.42.74-1.16,1.26-1.79,1.05s-.84-1.26-.53-2.21c1.05-2.74,3.05-5.05,5.58-6.73.95-.63,2.1-.11,2.42,1.05.32,1.05,0,2.1-.63,2.42-2.1.84-3.89,2.42-5.05,4.42Z"/>
          </g>
        </g>
      </g>
      <path class="cls-8" d="m184.51,133.76c-1.37-13.15-6.84-29.14-17.26-34.93-4.42-2.53-9.57-4.31-16.73-5.47-1.68.32-3.26.63-4.73.95-.21.11-.53.11-.74.21-.42.11-.84.21-1.26.32-.32.11-.53.11-.84.21-.42.11-.84.21-1.26.42-.21.11-.42.11-.63.21-.63.21-1.16.42-1.79.63-.21.11-.32.11-.53.21-.42.21-.84.32-1.26.53-.21.11-.42.21-.53.21-.42.21-.74.32-1.16.53-.21.11-.32.11-.53.21-.53.21-1.05.53-1.58.84-11.15,6.21-16.62,24.09-17.57,37.67-.11,2-.11,3.89-.11,5.68,0,4.63.32,8.42.84,10.73,0,.11.11.21.11.32,2.74,12.63,16.73,22.2,33.46,22.2,18.83,0,34.09-11.99,34.09-26.72v-.42c.32-4,.32-9.05,0-14.52Z"/>
      <path class="cls-1" d="m175.67,96.94c-4.31-4.95-9.89-7.37-20.94-7.79h-6.31c-.74,0-1.37,0-2,.11h-.21c-11.05.42-16.62,2.84-20.94,7.68-5.68,6.52-8.63,25.04-9.26,39.46.95-13.57,6.52-31.46,17.57-37.67,4.42-2.42,9.68-4.21,16.73-5.37,7.15,1.16,12.31,3.05,16.73,5.47,11.15,6.21,16.62,24.09,17.47,37.67-.32-14.52-3.16-33.04-8.84-39.56Z"/>
      <path class="cls-1" d="m150.31,45.7c-6.1,0-13.15-2.42-17.15-3.47-4.73-1.16-6.94-1.26-10.42-1.26-10.52,0-13.78,5.47-14.63,7.79,6.94-21.25,28.83-24.3,41.88-24.2h1.05c12.94,0,34.93,3.05,41.77,24.41-.84-2.21-4.1-7.79-14.63-7.79-3.47,0-5.68,0-10.42,1.16-4,1.05-11.15,3.37-17.15,3.37h-.32Z"/>
      <path class="cls-8" d="m192.71,48.96h0c-.84-2.31-4.1-7.79-14.63-7.79-3.47,0-5.68,0-10.42,1.16-4,1.05-11.15,3.37-17.15,3.37h-.21c-6.1,0-13.15-2.42-17.15-3.47-4.73-1.16-6.94-1.26-10.42-1.26-10.52,0-13.78,5.47-14.63,7.79h0c-2.21,2.1-3.68,7.68-3.58,14.31.21,8.31,3.05,14.94,6.31,14.84h.21c7.58,15.26,28.3,22.31,39.14,22.31s31.78-6.94,39.46-22.2h.21c3.26.11,6.1-6.52,6.42-14.84.11-6.52-1.37-12.1-3.58-14.2Z"/>
      <path class="cls-13" d="m150.31,89.26c-5.47,0-17.15-5.16-17.15-16.31s12.94-11.99,17.26-11.99,17.26.95,17.15,12.1c0,11.15-11.78,16.2-17.26,16.2Z"/>
      <path class="cls-6" d="m150.63,63.79c2.42,0,5.89,2.53,6.31,5.37.42,2.95-6.52,2.84-6.52,2.84h-.21s-6.94.11-6.52-2.84c.42-2.95,4-5.37,6.31-5.37h.63Z"/>
      <g>
        <circle class="cls-6" cx="132.74" cy="55.27" r="2.1"/>
        <path class="cls-6" d="m170.09,55.38c0,1.16-.95,2.1-2.1,2.1s-2.1-.95-2.1-2.1.95-2.1,2.1-2.1,2.1.95,2.1,2.1Z"/>
      </g>
      <path class="cls-6" d="m188.19,53.69c2.63.11,4.84,5.16,5.68,12.31.11-.95.21-1.79.21-2.84.21-6.52-1.37-11.89-3.58-11.99-.95,0-1.79.95-2.42,2.42,0,.11.11.11.11.11Z"/>
      <path class="cls-6" d="m112.54,53.48c-2.63.11-4.84,5.16-5.68,12.31-.11-.95-.11-1.79-.21-2.84-.11-6.52,1.47-11.89,3.58-11.99.95,0,1.79.95,2.42,2.53,0,.11,0,0-.11,0Z"/>
      <path class="cls-13" d="m136.95,50.27c-.23,0-.45-.1-.61-.28-.41-.49-.92-.86-1.6-1.15-.73-.31-1.35-.46-1.9-.46-.71-.08-1.21.06-1.83.24l-.17.05c-.62.27-1.14.54-1.55.96-.31.31-.81.31-1.12,0-.31-.31-.31-.81,0-1.12.66-.66,1.45-1.03,2.14-1.32l.25-.08c.7-.2,1.42-.41,2.36-.29.68,0,1.5.19,2.42.58.91.39,1.62.91,2.19,1.59.28.33.23.83-.1,1.11-.15.12-.33.18-.5.18Z"/>
      <path class="cls-13" d="m172.3,50.27c-.23,0-.45-.1-.61-.28-.41-.49-.92-.86-1.6-1.15-.73-.31-1.35-.46-1.9-.46h-.11c-.57-.09-1.21.09-1.88.28-.62.27-1.14.54-1.55.96-.31.31-.81.31-1.12,0-.31-.31-.31-.81,0-1.12.66-.66,1.45-1.03,2.14-1.32l.1-.03c.79-.22,1.6-.46,2.48-.35.75,0,1.56.2,2.47.59.91.39,1.62.91,2.19,1.59.28.33.23.83-.1,1.11-.15.12-.33.18-.5.18Z"/>
      <path class="cls-6" d="m150.31,84.39c-1.55,0-2.94-.43-3.84-.79-1.29-.59-2.3-1.27-3.19-2.16-.95-.95-1.72-2.08-2.16-3.19-.15-.37.03-.78.4-.93.37-.15.78.03.93.4.37.92,1.04,1.9,1.84,2.71s1.63,1.35,2.74,1.85c.75.3,1.96.67,3.28.67,1.23,0,2.27-.21,3.28-.67.95-.38,1.93-1.05,2.74-1.85.76-.76,1.35-1.63,1.85-2.74.16-.36.59-.52.95-.36.36.16.52.59.36.95-.57,1.26-1.26,2.27-2.14,3.16-.95.95-2.08,1.71-3.19,2.16-1.17.53-2.4.79-3.84.79Z"/>
      <path class="cls-6" d="m168.35,106.79c-2.67-1.35-4-4.39-2.59-7.29,1.4-2.9,6.12-4.49,9.77-2.61,10.66,5.28,17.45,14.98,18.78,26.76.48,4.1-2.53,8-5.81,8.3-3.28.3-5.62-1.98-5.95-4.93-1.1-8.81-6.19-16.19-14.2-20.23Z"/>
      <g>
        <path class="cls-6" d="m125.11,98.97c1.89-2.31,5.16-2.95,7.68-.95,2.53,2,3.05,6.94.42,10.1-7.47,9.26-18.41,13.78-30.2,12.52-4.1-.42-7.26-4.21-6.84-7.47.42-3.26,3.16-5.05,6.1-4.73,8.94.84,17.15-2.53,22.83-9.47Z"/>
        <path class="cls-6" d="m92.38,116.02c-.84-.11-1.79.11-2,.63-.21.63.32,1.47,1.37,1.89,2.84.95,5.89,1.05,8.84.11,1.05-.32,1.47-1.58.84-2.53-.63-.95-1.58-1.47-2.31-1.05-2,.95-4.31,1.37-6.73.95Z"/>
        <path class="cls-6" d="m93.12,111.07c-.74-.42-1.68-.42-2.1.11s-.11,1.58.84,2.21c2.42,1.68,5.37,2.63,8.52,2.63,1.16,0,1.79-1.16,1.47-2.21-.32-1.16-1.16-1.79-1.89-1.68-2.31.32-4.63,0-6.84-1.05Z"/>
      </g>
    </g>
  </g>
  <ellipse class="cls-6" cx="184.51" cy="136.69" rx="6.59" ry="4.72"/>
  <g>
    <path class="cls-3" d="m64.74,131.81c-.2-.23-.34-.46-.54-.62-.22-.18-.45-.21-.53.16-.1.52-.33,1.05-.16,1.56.17.5,0,.52-.41.53-1.02.02-1.98.31-2.87.82-.48.28-.5.48-.08.83.72.59,1.42,1.21,2.34,1.49.26.08.38.23.22.53-.47.91-.63,1.93-.92,2.9-.28.96-.47,1.96-.66,2.95-.14.71-.16,1.38.02,2.06.16.59.95,1,1.49.79.53-.21,1.06-.43,1.55-.73.49-.3.95-.65,1.53-.81.97-.27,1.87.36,1.87,1.39,0,.73,0,1.45,0,2.18.01.77.76,1.87,1.38,1.91.82.06,1.62-.11,2.1-.85.44-.68.38-1.42,0-2.12-.72-1.31-1.38-2.64-1.34-4.2.01-.41.13-.68.54-.86,1.37-.59,2.77-1.11,4.19-1.58.88-.29,1.76-.58,2.66-.84.64-.18.78-.05.78.64,0,.56-.07,1.11-.02,1.69.12,1.47,1.34,2.85,3.12,2.22,1.49-.53,2.02-1.93,1.15-3.26-.28-.43-.5-.89-.64-1.4-.17-.65-.04-.88.61-1.08.8-.25,1.62-.45,2.45-.51.71-.05,1.41-.21,2.18.03.74.23,1.66.21,2.32-.5.18-.2.46-.33.74-.34,1.83-.06,3.63-.42,5.46-.41,1.98.01,3.96-.11,5.92.47.72.21,1.56.31,2.34.05.69-.23,1.41-.39,1.93-.99.32-.37.35-.85.49-1.28.63-2.01.92-4.07,1.04-6.17.07-1.22-.07-2.43-.22-3.65-.22-1.78-.7-3.47-1.38-5.1-1.4-3.36-3.67-6.08-6.54-8.28-3.39-2.59-7.22-3.95-11.53-3.73-.99.05-1.95.28-2.87.65-.68.27-1.31.7-1.5,1.44-.29,1.14-.25,2.25.93,3.01-.3.2-.54.37-.78.53-3.7,2.4-7.17,5.08-10.38,8.11-2.48,2.35-4.76,4.88-6.57,7.8-.5.8-.92,1.64-1.42,2.55Z"/>
    <path class="cls-10" d="m64.74,131.81c.5-.91.93-1.76,1.42-2.55,1.81-2.92,4.08-5.45,6.57-7.8,3.2-3.03,6.68-5.71,10.38-8.11.24-.16.48-.33.78-.53-1.18-.76-1.22-1.87-.93-3.01.19-.74.82-1.17,1.5-1.44.92-.37,1.88-.6,2.87-.65,4.31-.22,8.14,1.14,11.53,3.73,2.87,2.19,5.14,4.91,6.54,8.28.68,1.63,1.16,3.33,1.38,5.1.15,1.22.29,2.43.22,3.65-.11,2.09-.41,4.16-1.04,6.17-.14.43-.16.9-.49,1.28-.52.59-1.24.76-1.93.99-.78.26-1.62.16-2.34-.05-1.96-.58-3.94-.46-5.92-.47-1.83-.01-3.64.35-5.46.41-.28,0-.56.14-.74.34-.67.71-1.58.72-2.32.5-.77-.24-1.47-.08-2.18-.03-.82.06-1.65.26-2.45.51-.65.2-.78.43-.61,1.08.13.5.35.96.64,1.4.87,1.33.34,2.73-1.15,3.26-1.77.63-2.99-.75-3.12-2.22-.05-.57.02-1.12.02-1.69,0-.69-.14-.82-.78-.64-.89.26-1.77.55-2.66.84-1.42.46-2.82.98-4.19,1.58-.41.18-.53.45-.54.86-.04,1.56.63,2.88,1.34,4.2.39.71.45,1.45,0,2.12-.48.74-1.28.9-2.1.85-.61-.04-1.36-1.13-1.38-1.91-.01-.73,0-1.45,0-2.18,0-1.02-.91-1.65-1.87-1.39-.58.16-1.04.5-1.53.81-.49.3-1.02.52-1.55.73-.55.21-1.33-.2-1.49-.79-.18-.68-.16-1.35-.02-2.06.19-.99.38-1.98.66-2.95.29-.97.45-1.99.92-2.9.16-.3.04-.45-.22-.53-.92-.28-1.62-.9-2.34-1.49-.42-.35-.4-.55.08-.83.88-.51,1.84-.8,2.87-.82.4,0,.58-.03.41-.53-.18-.51.05-1.04.16-1.56.07-.37.31-.35.53-.16.2.16.34.39.54.62Zm-.8,4.53h0c-.47.45-.67,1.02-.82,1.62-.03.13-.12.29,0,.35.16.1.31,0,.38-.19,1.13-.25,1.71-1.03,1.63-2.21-.19-.05-.35.06-.52.12,0-.13,0-.3-.21-.16-.18.12-.37.24-.45.47Zm.51-4.23c-.04-.17-.13-.31-.31-.31-.05,0-.14.12-.15.2-.12.77-.03,1.51.43,2.17.16.09.31.2.49.26.15.05.13.42.4.22.21-.15.32-.34.28-.62-.12-.79-.43-1.48-1.13-1.93Zm-3.62,2.84c.39.64,1.06.85,1.7,1.11.79.32,1.19.14,1.5-.65-.41-.23-.95-.11-1.47-.54.3,0,.43,0,.56,0q.95,0,.6-.85c-.21-.2-.47-.3-.74-.24-.77.16-1.52.37-2.22.75-.44.24-.18.32.07.42Zm45.52-5.93v-.02c.02-.26.05-.52.05-.78.01-1.46-.13-2.9-.4-4.34-.4-2.12-1.13-4.11-2.22-5.97-1.08-1.84-2.43-3.45-4.03-4.88-1.85-1.65-3.87-2.97-6.22-3.77-1.42-.48-2.85-.9-4.36-.97-1.64-.08-3.24.06-4.75.8-1.02.5-1.42,1.99-.58,2.77.44.63,1.11.67,1.8.79,1.66.28,3.25.79,4.78,1.5,5.59,2.62,8.54,6.98,8.75,13.17.04,1.16-.06,2.3-.21,3.44-.04.29.05.33.33.31,1.52-.11,3.01.07,4.38.78.49.25.95.57,1.43.85.09.26.3.43.53.69.33-1.5.7-2.91.71-4.38Zm-7.12,2.75c-.35.13-.57.4-.71.74-.39.95-.15,1.91.68,2.63.62.53,1.37.81,2.13,1.07,1.18.41,2.25.2,3.29-.42.4-.24.54-.58.58-1.06.07-.89-.43-1.39-1.06-1.82-1.1-.75-2.34-1.11-3.66-1.23-.02-.01-.04-.01-.06,0h-.5s-.04-.01-.06,0c-.11,0-.23.02-.34.02-.11-.05-.2-.02-.28.07Zm-.85-2.38c.16-.96.17-1.92,0-2.88,0-1.88-.57-3.65-1.32-5.33-.63-1.43-1.62-2.66-2.8-3.72-1.28-1.15-2.72-2.02-4.28-2.72-1.61-.72-3.27-1.21-4.99-1.54-.31-.06-.64-.04-.81.32-.03.01-.07.02-.1.04-.13-.05-.2.04-.29.1-.91.63-1.83,1.24-2.75,1.87-2.54,1.75-4.95,3.67-7.21,5.76-1.58,1.46-3.1,3-4.47,4.67-1.47,1.79-2.77,3.67-3.83,5.73-.25.49-.17.8.2,1.12.16.38.32.78.33,1.19.02.82,0,.82.7,1.23.32.19.44.49.24.79-.18.27-.39.71-.85.25-.25-.25-.4-.21-.43.19-.04.46-.29.81-.59,1.15-.45.53-1.07.81-1.61,1.2-.39,0-.77.14-.88.51-.43,1.51-.93,3.01-.93,4.62q0,.69.68.45c1.58-.79,3.01-1.79,4.34-2.93.22-.19.51-.3.71-.51.65-.7,1.38-1.31,2.12-1.91,1.13-.92,2.46-1.48,3.75-2.09.44-.21.93-.49,1.48-.37-.38.31-.86.39-1.29.58-2.22.98-4.11,2.42-5.85,4.1-1.05,1.01-2.19,1.94-3.45,2.72-.65.41-1.31.78-2.04,1.07.22.27.43.16.59.08.61-.31,1.24-.6,1.82-.97,1.32-.85,3.19-.83,3.74,1.16.01.46.02.92.03,1.38.01.51-.12,1.03.09,1.52.23.7.68,1.08,1.15.97,1.08-.25,1.52-1.14.97-2.1-.61-1.06-1.04-2.19-1.35-3.37,0-.59,0-1.17,0-1.76.25-.9.71-1.66,1.48-2.2,1.35-.94,2.86-1.47,4.49-1.65.55,0,1.1,0,1.64-.01,1.27.16,1.92.74,1.62,2.19-.17.84-.02,1.7.53,2.43.58.77,1.56.86,2.46.21.77-.56.86-1.09.23-1.99-.61-.87-.77-1.84-.69-2.86.08-1.05,1.22-2.04,2.27-2.08,1.17-.04,2.24.27,3.23.86.85.5,1.61.38,2.33-.26.18-.16.37-.31.55-.47,1.31-1.22,2.97-1.56,4.65-1.79,1.04-.14,2.09-.29,3.16-.24.39.02.69-.17.54-.66-.99-.22-1.98-.14-2.96,0-.73.06-1.46,0-2.2.1-.63.09-1.3.3-1.95.02.24-.25.56-.1.83-.16.82-.17,1.65-.35,2.48-.38.87-.03,1.73-.12,2.59-.16.16-.03.32-.07.48-.08.72-.07,1.09-.37,1.2-1.08.11-.76.16-1.53.24-2.29Zm-7.66,6.64c2.67-.16,5.33-.38,8.04-.26-.41-.71-.86-1.05-1.7-1.02-1.15.04-2.28.15-3.42.28-1.03.12-2.04.35-2.91.99Zm-14.06,2.64c-2.24.04-4.34.52-6.07,2.08,2.03-.67,4.03-1.41,6.07-2.08Zm8.27-1.76c-1.16-.66-2.54-.38-2.89.56.96-.19,1.89-.37,2.89-.56Z"/>
    <path class="cls-2" d="m84.07,113.55s.07-.03.1-.04c.13.19.34.21.53.27.65.23,1.3.45,1.93.7.23.09.53.13.55.47-1.05.17-2.12.42-2.94,1.08-.85.67-1.66,1.41-2.08,2.53-.5,1.3-.4,2.87.51,3.92.71.82,1.68,1.15,2.69,1.2,1.77.09,3.34-.59,4.52-1.87,1.13-1.23,1.87-2.7,1.24-4.48.23-.01.38.11.53.26,3.25,2.98,4.72,6.75,4.94,11.09.07,1.39-.11,2.78-.12,4.17-.87.04-1.73.13-2.59.16-.83.03-1.66.21-2.48.38-.28.06-.6-.09-.83.16-.34.11-.72,0-1.03.09-1,.28-2.03.32-3.04.46-2.83.38-5.63.97-8.45,1.39-.89.13-1.62.74-2.54.74-.29,0-.52.14-.72.35-.55-.13-1.04.16-1.48.37-1.29.61-2.63,1.17-3.75,2.09-.74.6-1.47,1.21-2.12,1.91-.19.21-.49.32-.71.51-1.33,1.15-2.77,2.14-4.34,2.93-.17-.27-.14-.58-.09-.86.27-1.61.69-3.18,1.23-4.72.54-.39,1.16-.67,1.61-1.2.3-.35.56-.7.59-1.15.03-.39.19-.44.43-.19.45.46.66.02.85-.25.21-.3.09-.6-.24-.79-.7-.41-.68-.41-.7-1.23,0-.42-.17-.81-.33-1.19.51-.89.93-1.84,1.46-2.72.98-1.64,2.22-3.09,3.39-4.58.14-.18.28-.56.69-.33.72.41,1.33.25,2.12-.47.44-.4.75-1.4.45-1.84-.31-.46-.1-.64.2-.91,1.24-1.08,2.47-2.17,3.69-3.27,1.39-1.25,2.9-2.36,4.33-3.57.65-.55,1.44-.92,2.01-1.56Zm-7.21,20c1.27-.36,2.36-.99,3.24-2.01,1.34-1.54,1.6-4.05-.16-5.4-1.23-.95-2.62-.75-4-.43-.81.19-1.43.71-2.04,1.22-.94.79-1.42,1.84-1.58,3.05-.13.97.22,1.8.87,2.48.48.51,1.02,1,1.81.98.6.4,1.23.22,1.86.11Zm2.79-9.96c.09,0,.19,0,.28,0,.71,0,.71-.02.59-.73-.07-.46-.21-.89-.37-1.31-.24-.64-.6-1.26-1.25-1.47-.93-.3-1.86-.09-2.71.42-.17.1-.2.26-.17.43.11.56.36,1.07.71,1.52.75.96,1.81,1.1,2.92,1.14Zm-9.23,5.14c-1.53-.1-2.89,1.28-2.38,2.88.14.44.39.86.43,1.33.04.47.29.46.59.33,1.27-.56,2.2-1.43,2.45-2.86.19-1.08-.23-1.69-1.1-1.68Zm15.3,3.35c.89.09,1.66-.31,2.25-1.02.22-.26.57-.64.36-.99-.37-.61-.99-.99-1.71-1.1-.59-.09-1.25-.01-1.65.44-.51.59-1.07,1.19-1.24,2.01-.04.21-.01.43.27.45.55.04,1.07.27,1.71.22Zm8.94-4.91c.91.03.97,0,.79-.93-.08-.42-.25-.84-.44-1.23-.51-1.08-2.52-1.35-3.34-.46-.05.05-.1.14-.09.19.11.4.13.91.39,1.17.71.72,1.54,1.32,2.68,1.26Zm-2.18,2.23c-.45,0-.83.3-.78.62.06.35.35.49.66.46.37-.03.71-.22.73-.63.02-.39-.29-.46-.62-.46Zm-16.15-4.75c0-.3-.18-.45-.42-.44-.33,0-.63.12-.67.52-.03.28.1.51.38.5.36-.01.6-.24.7-.57Zm11.96,2.12c-.05-.29-.21-.48-.49-.46-.31.02-.58.17-.6.54-.02.29.19.41.43.4.32-.01.57-.15.66-.48Zm-16.41,8.85c0-.28-.14-.41-.39-.4-.33,0-.52.21-.56.51-.03.24.17.37.39.36.3-.02.53-.16.55-.47Zm-.14-7.68c.26-.03.45-.16.45-.45,0-.23-.14-.34-.36-.31-.26.03-.45.18-.48.45-.02.24.16.3.38.31Zm.03,4.49c-.24.02-.4.15-.43.41-.02.19.08.33.27.34.28.01.46-.14.48-.43.02-.2-.11-.3-.32-.32Zm22.7-1.02c.2-.03.44-.07.43-.36,0-.23-.18-.3-.38-.29-.22,0-.41.1-.43.33-.01.22.14.32.38.32Zm-11.57-1.81c.22-.05.37-.18.38-.41,0-.2-.1-.34-.3-.3-.21.04-.39.18-.41.4-.02.19.15.28.33.31Zm10.65-8.31c-.03-.2-.16-.27-.35-.27-.21,0-.37.08-.39.31-.01.2.09.33.29.32.21-.02.39-.11.45-.35Zm-9.38,4c-.01-.2-.13-.26-.3-.25-.22.01-.35.12-.35.34,0,.17.09.3.26.29.23-.01.35-.17.39-.38Zm5.06-.86c.18-.04.33-.14.37-.34.03-.19-.11-.26-.27-.26-.23,0-.4.12-.42.35-.01.18.15.23.32.26Zm-21.65,13.89c-.04-.09-.09-.18-.23-.17-.17,0-.27.12-.27.29,0,.13.06.22.2.2.16-.02.26-.12.3-.32Z"/>
    <path class="cls-14" d="m105.1,132.71c-.47-.29-.94-.6-1.43-.85-1.38-.71-2.86-.88-4.38-.78-.28.02-.37-.02-.33-.31.14-1.14.25-2.29.21-3.44-.21-6.19-3.16-10.55-8.75-13.17-1.53-.72-3.12-1.22-4.78-1.5-.69-.12-1.36-.16-1.8-.79-.08-1.2.62-2.01,1.51-2.36.14-.06.38-.21.44,0,.24.79.87.58,1.39.55.55-.03,1.26-.12,1.48-.63.24-.57.58-.48.99-.48.3,0,.59.08.88.11,2.44.25,4.64,1.16,6.67,2.48,2.66,1.71,4.77,3.96,6.33,6.72,1.44,2.56,2.21,5.3,2.25,8.25.01,1.17.05,2.34-.14,3.5-.15.91-.15,1.85-.53,2.72Zm-3.39-5.53c.87.04,1.72.21,2.54.5-.58-.63-1.23-.77-2.54-.5Zm-11.24-17.17c-.74.31-.96.84-1.13,1.41-.02.08-.02.15.05.18.07.03.15,0,.17-.09.12-.56.56-.92.9-1.51Zm13.39,15.82c-.55-.43-1.6-.48-1.88-.1.62-.08,1.19.13,1.88.1Zm-15.33-14.68c.12-.41.48-.72.54-1.23-.51.32-.76.68-.54,1.23Z"/>
    <path class="cls-11" d="m74.77,136.57c.2-.21.43-.34.72-.35.92,0,1.65-.61,2.54-.74,2.82-.42,5.62-1.01,8.45-1.39,1.01-.14,2.04-.18,3.04-.46.31-.09.69.02,1.03-.09.65.28,1.32.07,1.95-.02.74-.11,1.47-.04,2.2-.1.99,0,1.98,0,2.96,0,.15.49-.15.68-.54.66-1.06-.05-2.11.1-3.16.24-1.68.23-3.34.57-4.65,1.79-.18.16-.37.31-.55.47-.71.64-1.48.76-2.33.26-.99-.59-2.06-.9-3.23-.86-1.05.04-2.19,1.03-2.27,2.08-.08,1.02.08,1.98.69,2.86.62.9.54,1.43-.23,1.99-.9.65-1.88.57-2.46-.21-.55-.73-.71-1.59-.53-2.43.3-1.45-.35-2.02-1.62-2.19-.38-.27-1.3-.26-1.64.01-1.63.18-3.13.71-4.49,1.65-.78.54-1.24,1.3-1.48,2.2-.14.59-.14,1.17,0,1.76.32,1.18.74,2.3,1.35,3.37.55.96.11,1.86-.97,2.1-.46.11-.91-.28-1.15-.97,0-.61.02-1.22,0-1.83-.01-.36.12-.74-.11-1.07-.55-1.99-2.42-2.01-3.74-1.16-.58.37-1.2.66-1.82.97-.17.08-.38.2-.59-.08.73-.29,1.39-.67,2.04-1.07,1.25-.78,2.39-1.7,3.45-2.72,1.74-1.68,3.63-3.11,5.85-4.1.43-.19.92-.27,1.29-.58Z"/>
    <path class="cls-11" d="m87.19,114.96c-.02-.34-.33-.39-.55-.47-.64-.25-1.29-.47-1.93-.7-.19-.07-.4-.09-.53-.27.17-.35.5-.38.81-.32,1.72.33,3.38.83,4.99,1.54,1.57.7,3.01,1.57,4.28,2.72,1.18,1.06,2.17,2.29,2.8,3.72.74,1.68,1.31,3.45,1.32,5.33,0,.96,0,1.92,0,2.88-.08.76-.13,1.53-.24,2.29-.1.7-.48,1-1.2,1.08-.16.02-.32.06-.48.08.01-1.39.19-2.78.12-4.17-.22-4.33-1.68-8.11-4.94-11.09-.16-.14-.31-.27-.53-.26-.28-.78-.77-1.39-1.5-1.78-.75-.4-1.6-.49-2.43-.59Z"/>
    <path class="cls-14" d="m100.48,131.68c1.32.13,2.56.48,3.66,1.23.63.43,1.13.93,1.06,1.82-.04.48-.18.82-.58,1.06-1.04.61-2.11.82-3.29.42-.76-.26-1.51-.53-2.13-1.07-.83-.72-1.08-1.68-.68-2.63.14-.34.35-.61.71-.74.12.08.2.01.28-.07.11,0,.23-.02.34-.02,0,0,.03.02.03.02l.03-.02c.17,0,.34,0,.5,0,0,0,.03.02.03.02h.03Z"/>
    <path class="cls-3" d="m105.1,132.71c.38-.87.38-1.81.53-2.72.18-1.16.15-2.33.14-3.5-.04-2.94-.8-5.69-2.25-8.25-1.56-2.75-3.67-5-6.33-6.72-2.03-1.31-4.23-2.23-6.67-2.48-.29-.03-.58-.12-.88-.11-.41,0-.75-.08-.99.48-.22.52-.92.6-1.48.63-.51.03-1.15.24-1.39-.55-.06-.2-.3-.05-.44,0-.89.34-1.58,1.16-1.51,2.36-.85-.78-.45-2.27.58-2.77,1.51-.74,3.11-.87,4.75-.8,1.51.07,2.94.48,4.36.97,2.35.8,4.37,2.12,6.22,3.77,1.6,1.43,2.96,3.04,4.03,4.88,1.08,1.85,1.81,3.85,2.22,5.97.27,1.44.42,2.88.4,4.34,0,.26-.03.52-.05.78,0,0,0,.02,0,.02-.01,1.47-.38,2.88-.71,4.38-.23-.26-.44-.42-.53-.69Z"/>
    <path class="cls-3" d="m84.07,113.55c-.57.65-1.36,1.01-2.01,1.56-1.43,1.21-2.94,2.32-4.33,3.57-1.22,1.1-2.46,2.19-3.69,3.27-.3.26-.51.45-.2.91.3.44-.01,1.44-.45,1.84-.79.72-1.4.87-2.12.47-.42-.24-.55.14-.69.33-1.18,1.49-2.42,2.93-3.39,4.58-.53.89-.95,1.83-1.46,2.72-.37-.32-.45-.63-.2-1.12,1.06-2.06,2.36-3.94,3.83-5.73,1.37-1.67,2.89-3.21,4.47-4.67,2.26-2.09,4.67-4.02,7.21-5.76.91-.63,1.83-1.24,2.75-1.87.09-.06.17-.15.29-.1Z"/>
    <path class="cls-14" d="m90.71,136.03c.87-.64,1.89-.87,2.91-.99,1.13-.13,2.27-.24,3.42-.28.84-.03,1.3.3,1.7,1.02-2.71-.12-5.37.1-8.04.26Z"/>
    <path class="cls-11" d="m63.73,134.02q.35.85-.6.85c-.13,0-.26,0-.56,0,.52.43,1.06.31,1.47.54-.31.78-.72.96-1.5.65-.64-.26-1.31-.47-1.7-1.11.72-.47,1.47-.85,2.37-.83.18,0,.38.05.53-.1Z"/>
    <path class="cls-3" d="m63.51,138.8c-.54,1.54-.96,3.11-1.23,4.72-.05.29-.08.59.09.86q-.68.24-.68-.45c0-1.6.5-3.1.93-4.62.11-.38.49-.5.88-.51Z"/>
    <path class="cls-14" d="m76.65,138.67c-2.03.67-4.04,1.41-6.07,2.08,1.73-1.57,3.83-2.04,6.07-2.08Z"/>
    <path class="cls-11" d="m64.45,132.11c.7.45,1.01,1.13,1.13,1.93.04.27-.07.47-.28.62-.27.2-.25-.17-.4-.22-.17-.06-.32-.17-.49-.26,0-.18-.05-.36-.07-.53-.05-.51-.22-1.04.1-1.52Z"/>
    <path class="cls-11" d="m64.59,136.03c.17-.06.32-.17.52-.12.08,1.18-.49,1.96-1.63,2.21-.2-.18,0-.33.02-.5.06-.45.48-.78.43-1.27,0,0,0,0,0,0,.24-.05.55.05.66-.31Z"/>
    <path class="cls-14" d="m84.92,136.91c-1,.19-1.93.38-2.89.56.35-.95,1.73-1.22,2.89-.56Z"/>
    <path class="cls-3" d="m63.73,134.02c-.16.15-.35.1-.53.1-.9-.02-1.65.36-2.37.83-.24-.1-.5-.18-.07-.42.7-.39,1.45-.59,2.22-.75.27-.06.53.05.74.24Z"/>
    <path class="cls-3" d="m64.45,132.11c-.32.49-.16,1.02-.1,1.52.02.17.07.35.07.53-.46-.66-.55-1.4-.43-2.17.01-.08.1-.2.15-.2.19,0,.27.14.31.31Z"/>
    <path class="cls-3" d="m63.93,136.34c.06.49-.37.82-.43,1.27-.02.17-.22.33-.02.5-.07.19-.22.28-.38.19-.11-.06-.02-.22,0-.35.15-.6.35-1.17.82-1.61Z"/>
    <path class="cls-14" d="m75.14,138.1c.35-.28,1.27-.28,1.64-.01-.55,0-1.1,0-1.64.01Z"/>
    <path class="cls-14" d="m97.66,133.42c-.99,0-1.98,0-2.96,0,.99-.14,1.98-.22,2.96,0Z"/>
    <path class="cls-14" d="m98.38,129.39c0-.96,0-1.92,0-2.88.17.96.16,1.92,0,2.88Z"/>
    <path class="cls-14" d="m68.29,145.3c.23.34.1.72.11,1.07.02.61,0,1.22,0,1.83-.2-.5-.07-1.01-.09-1.52-.01-.46-.02-.92-.03-1.38Z"/>
    <path class="cls-3" d="m64.59,136.03c-.1.35-.41.26-.66.31.08-.22.27-.34.45-.47.2-.14.2.03.21.16Z"/>
    <path class="cls-14" d="m69.17,143.7c-.14-.59-.14-1.17,0-1.76,0,.59,0,1.17,0,1.76Z"/>
    <path class="cls-12" d="m99.51,131.7c-.08.08-.16.15-.28.07.08-.09.17-.12.28-.07Z"/>
    <path class="cls-14" d="m106.35,129.02s0-.02,0-.02,0,.02,0,.02Z"/>
    <path class="cls-12" d="m99.91,131.68l-.03.02s-.03-.02-.03-.02c.02,0,.04,0,.06,0Z"/>
    <path class="cls-12" d="m100.48,131.68h-.03s-.03,0-.03,0c.02,0,.04,0,.06,0Z"/>
    <path class="cls-10" d="m87.19,114.96c.84.09,1.68.19,2.43.59.72.39,1.22,1,1.5,1.78.63,1.78-.12,3.25-1.24,4.48-1.17,1.28-2.75,1.96-4.52,1.87-1.01-.05-1.97-.38-2.69-1.2-.91-1.04-1.01-2.61-.51-3.92.43-1.12,1.24-1.85,2.08-2.53.82-.65,1.89-.91,2.94-1.08Zm-2.8,1.81h0c-.14-.09-.19,0-.23.11h0c-.79.46-1.18,1.23-1.53,2.03-.52,1.17-.26,2.24.49,3.21.17.22.39.46.73.46.49.31.99.54,1.59.58,2.12.13,4.57-1.48,5.26-3.79.36-1.19-.45-3.02-1.45-3.42-.98-.39-1.97-.42-2.98-.17-.73.05-1.31.42-1.86.86,0,.04-.02.09-.03.13Z"/>
    <path class="cls-10" d="m74.99,133.44c-.79.02-1.33-.47-1.81-.98-.65-.68-1-1.51-.87-2.48.17-1.2.65-2.25,1.58-3.05.61-.51,1.23-1.04,2.04-1.22,1.38-.32,2.77-.52,4,.43,1.76,1.36,1.5,3.87.16,5.4-.88,1.02-1.97,1.65-3.24,2.01-.62-.05-1.25.05-1.86-.11Zm-.67-6.04h0c-.08,0-.12.03-.12.11h0c-.08,0-.12.03-.12.11h0c-.98.84-1.36,1.95-1.19,3.2.08.56.33,1.15.97,1.39h0c0,.17.06.27.26.23.34.27.7.5,1.14.55,2.1.26,4.07-.93,4.94-2.57.76-1.44.61-2.81-.41-3.67-1-.84-2.78-.99-3.92-.34-.36,0-.63.18-.87.43,0,0,0,0,0,0-.08-.01-.14,0-.16.08-.15.1-.32.18-.4.36h0c-.08,0-.12.03-.12.11Z"/>
    <path class="cls-10" d="m79.65,123.59c-1.11-.03-2.17-.18-2.92-1.14-.35-.45-.59-.96-.71-1.52-.04-.18,0-.33.17-.43.85-.51,1.78-.72,2.71-.42.65.21,1.01.83,1.25,1.47.16.43.3.86.37,1.31.11.7.12.73-.59.73-.09,0-.19,0-.28,0Zm-1.84-2.9c.14.09.28.18.41.27.14.09.32.18.21.39-.12.21-.28.09-.44.02-.25-.11-.51-.23-.77-.31-.13-.04-.3-.06-.42.06-.16.15-.01.28.05.4.59,1.19,1.47,1.54,2.77,1.48.22,0,.3-.11.28-.31-.05-.72-.39-1.3-.82-1.85-.34-.42-.82-.2-1.26-.16Z"/>
    <path class="cls-10" d="m70.42,128.73c.86,0,1.29.6,1.1,1.68-.25,1.42-1.18,2.3-2.45,2.86-.3.13-.55.14-.59-.33-.04-.46-.29-.88-.43-1.33-.52-1.6.84-2.98,2.38-2.88Zm-.62.69c-.57.09-.86.38-1.08.8-.39.77-.05,1.48.13,2.2.03.14.12.23.29.16,1.09-.46,2.04-1.76,1.8-2.94-.05-.25-.2-.31-.39-.13-.28.27-.61.49-.83.81-.06.09-.12.23-.25.15-.11-.06-.11-.21-.07-.3.1-.23.23-.45.39-.76Z"/>
    <path class="cls-10" d="m85.72,132.09c-.64.05-1.16-.18-1.71-.22-.29-.02-.32-.25-.27-.45.17-.81.72-1.42,1.24-2.01.4-.45,1.06-.53,1.65-.44.72.11,1.33.49,1.71,1.1.22.35-.14.73-.36.99-.6.71-1.37,1.11-2.25,1.02Zm1.16-2.42c-.98-.32-2.3.5-2.41,1.45-.02.14.05.21.16.25.81.3,2.28.25,2.9-.61.07-.1.21-.2.16-.34-.06-.16-.23-.09-.34-.09-.33,0-.67,0-1,0-.12,0-.29.06-.34-.11-.05-.18.13-.19.23-.25.19-.1.39-.19.64-.31Z"/>
    <path class="cls-10" d="m94.66,127.17c-1.15.06-1.97-.54-2.68-1.26-.26-.26-.28-.77-.39-1.17-.01-.05.04-.14.09-.19.82-.89,2.82-.62,3.34.46.19.39.36.81.44,1.23.18.92.12.96-.79.93Zm-1.58-2.63c.11.09.15.12.19.16.11.11.36.16.28.36-.09.21-.31.13-.48.06-.27-.09-.55-.04-.83-.04.33.99.67,1.31,1.85,1.55.28.06.57.16.79-.02.25-.2-.03-.43-.09-.64-.02-.07-.01-.15-.03-.22-.2-.89-.69-1.25-1.69-1.2Z"/>
    <path class="cls-11" d="m92.47,129.4c.33,0,.64.07.62.46-.02.41-.36.6-.73.63-.31.02-.6-.11-.66-.46-.06-.32.33-.61.78-.63Z"/>
    <path class="cls-11" d="m76.32,124.65c-.1.33-.35.56-.7.57-.28,0-.41-.22-.38-.5.04-.39.35-.51.67-.52.24,0,.41.14.42.44Z"/>
    <path class="cls-11" d="m88.29,126.78c-.09.33-.34.47-.66.48-.24,0-.45-.11-.43-.4.02-.37.29-.52.6-.54.27-.02.44.17.49.46Z"/>
    <path class="cls-11" d="m71.87,135.63c-.02.31-.25.45-.55.47-.23.01-.43-.12-.39-.36.04-.3.23-.51.56-.51.25,0,.38.12.39.4Z"/>
    <path class="cls-11" d="m71.73,127.95c-.21-.01-.4-.07-.38-.31.02-.27.21-.42.48-.45.22-.02.37.09.36.31,0,.29-.2.41-.45.45Z"/>
    <path class="cls-11" d="m71.76,132.44c.21.02.33.13.32.32-.02.28-.19.44-.48.43-.2,0-.3-.15-.27-.34.03-.26.2-.38.43-.41Z"/>
    <path class="cls-11" d="m94.46,131.41c-.24,0-.4-.1-.38-.32.02-.24.21-.33.43-.33.2,0,.38.06.38.29,0,.29-.23.33-.43.36Z"/>
    <path class="cls-11" d="m82.88,129.61c-.18-.03-.34-.12-.33-.31.02-.22.2-.36.41-.4.21-.04.31.11.3.3-.01.23-.16.36-.38.41Z"/>
    <path class="cls-11" d="m93.54,121.29c-.05.24-.24.34-.45.35-.2.02-.3-.12-.29-.32.02-.23.18-.31.39-.31.19,0,.32.08.35.27Z"/>
    <path class="cls-11" d="m84.16,125.3c-.03.21-.16.37-.39.38-.17,0-.27-.12-.26-.29,0-.22.13-.33.35-.34.17,0,.29.05.3.25Z"/>
    <path class="cls-11" d="m89.22,124.44c-.17-.03-.33-.08-.32-.26.02-.23.19-.35.42-.35.16,0,.3.07.27.26-.03.2-.19.3-.37.34Z"/>
    <path class="cls-11" d="m67.58,138.33c-.04.19-.14.29-.3.32-.14.02-.2-.07-.2-.2,0-.17.1-.28.27-.29.13,0,.19.08.23.17Z"/>
    <path class="cls-14" d="m74.99,133.44c.61.16,1.24.06,1.86.11-.63.11-1.26.29-1.86-.11Z"/>
    <path class="cls-10" d="m101.71,127.18c1.3-.27,1.96-.13,2.54.5-.82-.29-1.66-.46-2.54-.5Z"/>
    <path class="cls-10" d="m90.47,110.01c-.34.58-.78.95-.9,1.51-.02.08-.1.12-.17.09-.08-.03-.08-.1-.05-.18.17-.57.39-1.1,1.13-1.41Z"/>
    <path class="cls-10" d="m103.86,125.83c-.69.03-1.25-.19-1.88-.1.27-.37,1.33-.33,1.88.1Z"/>
    <path class="cls-10" d="m88.53,111.15c-.22-.55.03-.91.54-1.23-.06.51-.42.82-.54,1.23Z"/>
    <path class="cls-12" d="m86.27,115.78c1.01-.25,2.01-.22,2.98.17,1.01.4,1.81,2.23,1.45,3.42-.69,2.32-3.14,3.93-5.26,3.79-.6-.04-1.1-.27-1.59-.58-.34-.52-.87-.91-1.03-1.55-.37-1.45.22-2.6,1.08-3.69.11-.14.39-.2.27-.47,0,0,0,0,0,0,.16.12.2,0,.23-.12,0,0,0,0,0,0,.04,0,.09,0,.13-.01.58-.33,1.17-.65,1.75-.98Zm-2.09,5.32c.18-.04.24-.18.28-.35.02-.11-.04-.18-.15-.16-.16.04-.32.1-.34.3-.01.13.08.19.22.21Z"/>
    <path class="cls-3" d="m84.17,116.88c.11.27-.16.33-.27.47-.86,1.09-1.44,2.24-1.08,3.69.16.64.69,1.03,1.03,1.55-.34,0-.56-.24-.73-.46-.75-.97-1.02-2.04-.49-3.21.35-.79.74-1.57,1.53-2.03Z"/>
    <path class="cls-14" d="m86.27,115.78c-.58.33-1.17.65-1.75.98-.03-.04-.07-.08-.1-.12.55-.44,1.13-.81,1.86-.86Z"/>
    <path class="cls-3" d="m84.4,116.77c-.03.12-.07.24-.23.12.04-.1.09-.2.23-.12Z"/>
    <path class="cls-3" d="m84.42,116.64s.07.08.1.12c-.04,0-.09,0-.13.01,0-.04.02-.09.03-.13Z"/>
    <path class="cls-12" d="m75.88,126.4c1.15-.65,2.92-.5,3.92.34,1.02.86,1.18,2.23.41,3.67-.87,1.64-2.84,2.84-4.94,2.57-.44-.05-.8-.28-1.14-.55-.05-.11-.11-.22-.26-.23,0,0,0,0,0,0-1.07-1.38-.96-2.76.02-4.13.09-.13.31-.24.2-.46,0,0,0,0,0,0,.12.04.16,0,.12-.12,0,0,0,0,0,0,.12.04.15,0,.12-.12h0c.11.04.15,0,.12-.11,0,0,0,0,0,0,.28.03.38-.22.57-.35.01,0,.04-.02.04-.03-.01-.02-.03-.05-.04-.07,0,0,0,0,0,0,.36,0,.62-.2.87-.43Z"/>
    <path class="cls-3" d="m74.11,127.61c.11.23-.11.33-.2.46-.98,1.38-1.09,2.75-.02,4.13-.64-.24-.89-.83-.97-1.39-.17-1.25.21-2.36,1.19-3.21Z"/>
    <path class="cls-14" d="m75.88,126.4c-.25.23-.51.44-.87.43.24-.25.51-.43.87-.43Z"/>
    <path class="cls-3" d="m75.01,126.93c-.18.13-.28.39-.57.35.08-.18.25-.26.4-.36.06,0,.11,0,.17,0Z"/>
    <path class="cls-3" d="m73.88,132.2c.15,0,.2.12.26.23-.2.04-.26-.05-.26-.23Z"/>
    <path class="cls-14" d="m75.01,126.93c-.06,0-.11,0-.17,0,.03-.08.09-.1.17-.08.01.02.03.04.04.07,0,0-.02.02-.04.03Z"/>
    <path class="cls-3" d="m74.22,127.5c.04.12,0,.16-.12.12,0-.08.04-.12.12-.12Z"/>
    <path class="cls-3" d="m74.33,127.39c.03.11,0,.15-.12.12,0-.08.04-.12.12-.12Z"/>
    <path class="cls-3" d="m74.45,127.28c.04.11,0,.15-.12.12,0-.08.04-.12.12-.12Z"/>
    <path class="cls-11" d="m77.81,120.69c.44-.04.92-.27,1.26.16.43.54.77,1.13.82,1.85.01.2-.06.3-.28.31-1.3.05-2.18-.29-2.77-1.48-.06-.11-.21-.25-.05-.4.13-.12.29-.1.42-.06.26.08.52.2.77.31.15.07.32.18.44-.02.12-.21-.07-.29-.21-.39-.14-.09-.28-.18-.41-.27Z"/>
    <path class="cls-11" d="m69.8,129.43c-.16.31-.29.53-.39.76-.04.1-.04.24.07.3.13.08.19-.06.25-.15.22-.33.55-.54.83-.81.19-.18.34-.12.39.13.24,1.18-.72,2.48-1.8,2.94-.17.07-.25-.02-.29-.16-.18-.73-.51-1.44-.13-2.2.21-.43.51-.71,1.08-.8Z"/>
    <path class="cls-11" d="m86.87,129.67c-.25.12-.45.21-.64.31-.1.06-.29.07-.23.25.05.16.22.11.34.11.33,0,.67-.01,1,0,.12,0,.29-.07.34.09.05.14-.08.23-.16.34-.62.86-2.09.91-2.9.61-.11-.04-.18-.11-.16-.25.12-.95,1.43-1.78,2.41-1.45Z"/>
    <path class="cls-11" d="m93.07,124.54c1-.05,1.49.32,1.69,1.2.02.07,0,.15.03.22.07.21.34.44.09.64-.22.18-.52.08-.79.02-1.19-.24-1.52-.55-1.85-1.55.28,0,.56-.06.83.04.18.06.39.15.48-.06.08-.2-.17-.25-.28-.36-.04-.04-.08-.07-.19-.16Z"/>
    <path class="cls-14" d="m84.19,121.1c-.14-.02-.23-.08-.22-.21.02-.19.18-.26.34-.3.11-.02.17.05.15.16-.03.17-.1.31-.28.35Z"/>
  </g>
  <path class="cls-6" d="m94.37,115.64c-.62.61-1.45.97-2.08.58-.54-.33-.59-1.46.05-2.31,1.71-2.41,4.23-4.33,7.23-5.21,1.07-.34,2.04.5,2.08,1.63.05,1.14-.55,2.13-1.22,2.21-2.2.39-4.32,1.44-6.06,3.09Z"/>
  <g>
    <g>
      <polygon class="cls-1" points="194.6 134.36 129.34 134.36 144.19 124.48 209.44 124.48 194.6 134.36"/>
      <polygon class="cls-4" points="194.6 126.45 129.34 126.45 144.19 116.57 209.44 116.57 194.6 126.45"/>
      <rect class="cls-7" x="129.34" y="126.45" width="65.26" height="7.91"/>
      <polygon class="cls-9" points="209.44 124.48 194.6 134.36 194.6 126.45 209.44 116.57 209.44 124.48"/>
    </g>
    <g>
      <polygon class="cls-1" points="191.73 123.77 126.47 123.77 141.32 113.89 206.57 113.89 191.73 123.77"/>
      <polygon class="cls-4" points="191.73 115.86 126.47 115.86 141.32 105.98 206.57 105.98 191.73 115.86"/>
      <rect class="cls-7" x="126.47" y="115.86" width="65.26" height="7.91"/>
      <polygon class="cls-9" points="206.57 113.89 191.73 123.77 191.73 115.86 206.57 105.98 206.57 113.89"/>
    </g>
  </g>
  <g>
    <path class="cls-6" d="m184.17,130.7c.12-.8.54-1.59,1.14-1.68s1.29.73,1.36,1.74c.23,2.81-.54,5.7-2.1,8.17-.62.89-1.83.96-2.51.04-.78-.82-.86-1.83-.44-2.42,1.44-1.47,2.39-3.55,2.55-5.85Z"/>
    <path class="cls-6" d="m179.34,131.29c-.28-.81-.26-1.61.25-2s1.5.04,1.98.95c1.44,2.44,2.18,5.37,1.8,8.27-.13,1.1-1.14,1.68-2.24,1.25-1.09-.43-1.67-1.24-1.46-1.94.65-2.09.51-4.4-.34-6.53Z"/>
    <path class="cls-6" d="m188.53,132.51c.32-.79.94-1.38,1.54-1.27s1.08,1.03.85,2.03c-.57,2.79-2.04,5.37-4.29,7.32-.82.68-2.01.35-2.49-.66s-.35-2.01.26-2.4c1.83-1.16,3.38-2.83,4.13-5.01Z"/>
  </g>
  <ellipse class="cls-6" cx="188.29" cy="137.94" rx="1.16" ry=".46"/>
</svg>