<?xml version="1.0" encoding="UTF-8"?>
<svg id="Layer_1" data-name="Layer 1" xmlns="http://www.w3.org/2000/svg" width="300" height="225" viewBox="0 0 300 225">
  <defs>
    <style>
      .cls-1 {
        fill: #fff;
      }

      .cls-2 {
        isolation: isolate;
        opacity: .35;
      }

      .cls-3 {
        fill: #c3000a;
      }

      .cls-4 {
        fill: #232323;
      }

      .cls-5 {
        fill: #444;
      }

      .cls-6 {
        fill: #b9deff;
      }

      .cls-7 {
        fill: #3b3b3b;
      }

      .cls-8 {
        fill: #008133;
      }

      .cls-9 {
        clip-path: url(#clippath);
      }

      .cls-10 {
        fill: none;
      }

      .cls-11 {
        fill: #7f7f7f;
      }

      .cls-12 {
        fill: #976b42;
      }

      .cls-13 {
        fill: #1e1e1e;
      }
    </style>
    <clipPath id="clippath">
      <circle class="cls-10" cx="232.52" cy="70.86" r="42.45"/>
    </clipPath>
  </defs>
  <g class="cls-2">
    <ellipse class="cls-4" cx="192.7" cy="206.28" rx="84.64" ry="7.18"/>
  </g>
  <g>
    <rect class="cls-12" x="92.02" y="8.79" width="202.94" height="125"/>
    <rect class="cls-7" x="100.51" y="16.35" width="185.96" height="110.56"/>
    <rect class="cls-12" x="190.07" y="129.65" width="6.85" height="78.56"/>
    <g>
      <polygon class="cls-12" points="129.09 208.21 174.16 127.64 179.48 131.95 138.14 208.21 129.09 208.21"/>
      <polygon class="cls-12" points="257.9 208.21 212.82 127.64 207.5 131.95 248.85 208.21 257.9 208.21"/>
    </g>
  </g>
  <g>
    <g>
      <path class="cls-1" d="m174.6,93.3l-62.55-.59c-2.25,0-4.01-1.76-4.01-4.02l.29-34.72c0-2.25,1.76-4.01,4.02-4.01l62.55.59c2.18,0,4.01,1.84,4.01,4.02l-.29,34.72c0,2.25-1.76,4.01-4.02,4.01Zm-62.26-42.33c-1.69,0-3.01,1.32-3.01,3.02l-.29,34.72c0,1.69,1.32,3.01,3.02,3.01l62.55.59c1.69,0,3.01-1.32,3.01-3.02l.29-34.72c0-1.63-1.38-3.01-3.02-3.01h0l-62.55-.59Z"/>
      <path class="cls-1" d="m121.05,87.6l-7.88-.17v-7.87h.5c4.07,0,7.38,3.38,7.38,7.53v.51Zm-6.88-1.15l5.87.12c-.24-3.19-2.74-5.75-5.87-6v5.88Z"/>
      <path class="cls-1" d="m114.21,63.13c-.09,0-.18,0-.27,0l-.48-.02v-7.87h7.87l.02.48c.07,2.02-.66,3.91-2.07,5.32-1.34,1.33-3.17,2.09-5.05,2.09Zm.25-6.89v5.88c1.54-.06,3.01-.7,4.1-1.79,1.1-1.1,1.72-2.54,1.78-4.1h-5.88Z"/>
      <path class="cls-1" d="m173.33,88.03h-7.87v-.5c0-4.07,3.38-7.38,7.53-7.38h.51l-.17,7.88Zm-6.85-1h5.88l.12-5.87c-3.19.24-5.75,2.74-6,5.87Z"/>
      <path class="cls-1" d="m173.62,63.71h-.49c-4.07,0-7.38-3.38-7.38-7.53v-.5h8.04l-.17,8.03Zm-6.86-7.03c.24,3.2,2.75,5.77,5.88,6.01l.13-6.01h-6Z"/>
    </g>
    <path class="cls-1" d="m143.78,84.37c-.18,0-.36,0-.54,0-7.2-.08-14.04-1.7-18.79-4.45l-6.47-.06.16-16.67,6.03.06c4.8-2.74,11.79-4.27,19.22-4.19,7.33.08,14.24,1.74,19,4.56l6.4.06-.16,16.67-6.5-.06c-4.71,2.61-11.36,4.08-18.36,4.08Zm-24.78-5.5l5.73.05.11.07c4.61,2.71,11.32,4.3,18.41,4.38,7.07.08,13.83-1.39,18.51-4.02l.12-.07,5.77.06.14-14.67-5.67-.06-.12-.07c-4.62-2.78-11.4-4.41-18.61-4.49-7.31-.07-14.18,1.43-18.83,4.13l-.12.07-5.3-.05-.14,14.67Z"/>
    <path class="cls-1" d="m142.62,75.68l.04-3.66c-1.14-.34-1.97-.84-2.49-1.5-.53-.67-.78-1.47-.78-2.41,0-.95.32-1.75.93-2.4.61-.64,1.41-1.01,2.42-1.1v-.86s1.27.01,1.27.01v.86c.92.12,1.65.44,2.19.97.54.53.88,1.23,1.03,2.1l-2.21.27c-.13-.69-.47-1.16-1.03-1.41l-.03,3.41c1.39.39,2.34.89,2.84,1.5.5.61.75,1.38.74,2.32-.01,1.05-.34,1.94-.98,2.65-.64.72-1.53,1.15-2.67,1.3l-.02,1.63h-1.27s.02-1.6.02-1.6c-1.01-.13-1.82-.52-2.44-1.15s-1.02-1.53-1.18-2.67l2.28-.22c.09.47.26.87.51,1.21.25.34.54.59.85.74Zm.09-9.17c-.34.11-.62.31-.83.59s-.31.58-.31.92c0,.31.09.6.27.86.18.27.46.48.84.65l.03-3.02Zm1.18,9.3c.44-.08.79-.28,1.07-.6.28-.32.42-.7.42-1.13,0-.39-.11-.73-.33-1.01-.23-.28-.6-.5-1.12-.66l-.03,3.4Z"/>
  </g>
  <g>
    <g class="cls-9">
      <ellipse class="cls-1" cx="236.39" cy="71.41" rx="60.78" ry="54.3"/>
      <path class="cls-6" d="m183.17,59.67l27.21.14-.39-1.12,2.9-2.52-.76-2.85,11.25.04,9.14-3.66,8.75,3.59,3.17.35,8.41-.28.44,3.97,1.81,1.33.02,1.18,4.02-.2h21.71l-12.82-27.19-25-11.13-35.84,4.37s-25.49,16.06-25.49,17.04,1.48,16.94,1.48,16.94Z"/>
      <polygon class="cls-8" points="192.61 98.99 209.16 98.01 209.05 99.59 255.21 99.63 256.09 98.66 281.27 98.66 281.27 113.31 241.9 113.31 200.14 113.31 190.27 103.44 192.61 98.99"/>
      <g>
        <path class="cls-13" d="m174.88,60.2v5.14h35.99v-1.78c1.33,0,2.96-.48,3.93.11,1.39.86,2.68.42,3.99.53,1.43.13,2.88.03,4.33.03.16,0,.38.02.46-.06,1.27-1.34,2.87-.27,4.27-.6,1.13,1.3,2.61.53,3.93.64,1.43.13,2.88.03,4.33.02.16,0,.38.02.46-.07,1.27-1.34,2.87-.26,4.27-.6,1.54,1.42,3.41.38,5.11.65.85.13,1.73.05,2.59.02.49-.02,1.13.27,1.32-.54.02-.07.28-.11.43-.12,1.27,0,2.55,0,3.86,0v1.79h36.06v-5.11h-35.46c0-.1-.01-.2-.02-.3,1.4-.46,2.89,0,4.41-.3v-3.11h3.21v3.15h23.1c.03-.64.06-1.23.09-1.89h3.13c.03.64.05,1.23.09,1.94h2.41v5.57c.41.07.71.12,1.03.17v.88c-.33.05-.61.09-1.02.16v32.14h-35.07c-.07.33-.13.59-.2.92h-46.85c-.06-.25-.12-.52-.21-.9h-34.84v-32.13c-.39-.07-.69-.13-1.07-.2-.02-.27-.04-.54-.07-.86.36-.06.66-.12,1.05-.18v-5.54h2.41c.04-.71.07-1.3.1-1.97h3.12c.03.61.06,1.2.1,1.87h23.1v-3.16h3.18v3.3h4.46c0,.13,0,.26-.01.38h-35.49Zm81.19,34.14h34.14v-27.82h-36.69c0,.44,0,.82,0,1.2.05,2.12.1,4.23.14,6.35.1,5.23.18,10.45.28,15.68,0,.3.06.85.17.87.91.16.58.84.62,1.35.03.47,0,.95,0,1.44.45.05.79.09,1.17.13.06.29.11.56.16.8Zm-44.6-27.81h-36.57v27.83h33.95c.09-.32.16-.59.23-.83.4-.05.74-.1,1.13-.15,0-.61.04-1.15-.01-1.69-.06-.61.05-1.06.83-1.08.15-8.05.3-16.04.45-24.09Zm43.76,27.76h-45.52v4.61h45.52v-4.61Zm-27.58-26.27c-.05.19-.09.28-.09.38.13,7.24.27,14.48.41,21.71,0,.19.13.54.23.55.7.08.54.59.55,1.01.01.57,0,1.14,0,1.76h1.44v-6.64h4.32v6.64h1.52v-2.58c.36-.1.63-.17.93-.25.14-7.52.29-15.01.43-22.58h-9.73Zm12.94.06c0,1.28-.02,2.49,0,3.71.11,5.99.23,11.98.35,17.97,0,.3.08.85.18.87.88.13.57.78.6,1.26.03.5,0,1,0,1.54h6.67v-25.34h-7.82Zm-16.19.02h-7.8v25.31h6.46v-2.67c1.08.23.95-.49.96-1.1.13-6.86.26-13.72.38-20.58,0-.31,0-.62,0-.96Zm31.62,29.71h34.18v-2.52h-34.18v2.52Zm-81.16.03h34v-2.55h-34v2.55Zm39.41-7.18c0-.43,0-.78,0-1.13-.14-7.46-.29-14.93-.41-22.39-.02-.94.1-1.89.16-2.86h-2.37c.94,1.38.48,2.85.46,4.26-.08,7.02-.24,14.03-.37,21.05,0,.34,0,.68,0,1.07h2.52Zm23.56-26.38c.1.77.28,1.49.27,2.21-.08,5.7-.22,11.41-.31,17.11-.04,2.33,0,4.66,0,7.06h2.43c0-.41,0-.76,0-1.1-.13-6.73-.29-13.45-.36-20.18-.02-1.69-.51-3.43.33-5.1h-2.36Zm15.4,26.39c0-.39,0-.68,0-.96-.14-7.33-.3-14.66-.43-21.99-.02-1.15.11-2.3.16-3.42h-2.07c.08.88.24,1.72.23,2.57-.13,7.62-.28,15.23-.43,22.85,0,.3,0,.61,0,.95h2.54Zm-28.38.04c.42,0,.87-.05,1.3,0,.9.12,1.11-.23,1.09-1.12-.18-7.58-.31-15.17-.43-22.75-.01-.85.14-1.7.22-2.57h-2.29c.15.55.42,1.07.41,1.6-.08,5.38-.21,10.75-.3,16.13-.04,2.84,0,5.69,0,8.7Zm24.96,2.35h4.1c.25-1.27.19-1.61-.35-1.63-1.24-.04-2.48-.01-3.75-.01v1.64Zm-8.86.02v-1.59h-4.13v1.59h4.13Zm-12.97-.01v-1.59h-4.12v1.59h4.12Zm-17.02-.03h4.07v-1.55h-4.07v1.55Z"/>
        <path class="cls-13" d="m212.33,60.82v1.52c-.74.01-.93-.29-1.68-2.61h43.84c-.57.93-.74,2-1.78,2.87-.07-.75-.11-1.24-.16-1.79h-40.22Z"/>
        <path class="cls-13" d="m209.99,58.69c.27-.16.53-.37.82-.49,6.75-2.69,13.5-5.38,20.27-8.02.89-.35,1.26-.76,1.24-1.78-.08-4.1-.03-8.21-.03-12.31,0-.36.04-.73.15-1.17.46,1.25,1.38.89,2.22.81.45-.04.9-.09,1.34-.07,1.8.11,2.2.52,2.27,2.31.02.6,0,1.21,0,2.07-1.63-1.78-3.61-.43-5.46-1.01-.02.41-.05.75-.05,1.08,0,2.88.03,5.77-.02,8.65-.01.7.24,1,.86,1.24,6.88,2.72,13.74,5.47,20.61,8.22.3.12.59.28.88.41l-.1.32c-.32-.08-.66-.11-.96-.23-6.9-2.74-13.8-5.51-20.71-8.23-.47-.18-1.13-.18-1.6,0-6.89,2.69-13.76,5.43-20.64,8.15-.29.12-.59.22-.88.33-.07-.1-.14-.2-.21-.3Zm22.8-20.03c.08,0,.15.01.23.02v-2.5c-.08,0-.15,0-.23,0v2.48Z"/>
        <path class="cls-13" d="m252.76,58.92c-1.56.2-2.88-.08-4.23-.62-5.08-2.04-10.19-4.02-15.3-5.97-.45-.17-1.08-.16-1.53.01-5.35,2.05-10.67,4.18-16.04,6.2-.99.37-2.14.35-3.21.51l-.06-.3c3.17-1.26,6.34-2.52,9.5-3.78,3.3-1.31,6.6-2.64,9.91-3.92.38-.15.9-.21,1.25-.07,6.46,2.55,12.91,5.14,19.36,7.73.08.03.15.1.34.24Z"/>
        <path class="cls-13" d="m211.67,57.34c.16-1.41.31-2.68.46-4.02h9.18c.02.07.03.13.05.2-.39.06-.78.18-1.18.18-2.15.02-4.29,0-6.44,0-.32,0-.65.04-.95.28h6.72c.02.07.03.14.05.21-2.59,1.03-5.18,2.06-7.89,3.13Z"/>
        <path class="cls-13" d="m252.26,53.64h-8.64c0-.09,0-.19,0-.28h9.22c.14,1.28.28,2.56.44,3.97-2.65-1.05-5.24-2.07-7.82-3.1.01-.07.03-.14.04-.21h6.74c0-.13,0-.25.01-.38Z"/>
        <path class="cls-13" d="m204,61.27h5.76c.02.38.04.72.06,1.13h-5.82v-1.13Z"/>
        <path class="cls-13" d="m255.33,62.41v-1.11h5.78v1.11h-5.78Z"/>
        <path class="cls-13" d="m182.46,62.44h-5.75v-1.14h5.75v1.14Z"/>
        <path class="cls-13" d="m191.52,61.29v1.14h-5.72v-1.14h5.72Z"/>
        <path class="cls-13" d="m195.02,61.26h5.71v1.17h-5.71v-1.17Z"/>
        <path class="cls-13" d="m273.58,61.27h5.69v1.15h-5.69v-1.15Z"/>
        <path class="cls-13" d="m264.34,62.42v-1.14h5.73v1.14h-5.73Z"/>
        <path class="cls-13" d="m282.62,62.43v-1.16h5.72v1.16h-5.72Z"/>
        <path class="cls-1" d="m256.06,94.33c-.05-.25-.1-.51-.16-.8-.38-.04-.72-.08-1.17-.13,0-.5.03-.97,0-1.44-.04-.51.28-1.19-.62-1.35-.11-.02-.17-.57-.17-.87-.1-5.23-.18-10.45-.28-15.68-.04-2.12-.1-4.23-.14-6.35,0-.38,0-.75,0-1.2h36.69v27.82h-34.14Zm27.81-11.39v6.59h3.4v-6.59h-3.4Zm-24.1.02h-3.43v6.59h3.43v-6.59Zm0-5.7v-6.62h-3.41v6.62h3.41Zm24.09-6.62v6.6h3.42v-6.6h-3.42Zm-18.38,12.3v6.6h3.39v-6.6h-3.39Zm12.65,0h-3.38v6.59h3.38v-6.59Zm-12.65-5.69h3.37v-6.61h-3.37v6.61Zm9.26,0h3.38v-6.59h-3.38v6.59Zm8.06,4.43h5.63c-1.48-1.84-4.02-1.83-5.63,0Zm-18.27,0h5.64c-1.51-1.84-3.97-1.84-5.64,0Zm-3.88.02c-2.08-1.61-2.85-1.61-5.22,0h5.22Zm13.32-.03h5.11c-1.69-1.64-3.4-1.45-5.11,0Z"/>
        <path class="cls-1" d="m211.46,66.52c-.15,8.05-.3,16.04-.45,24.09-.77.02-.88.46-.83,1.08.05.54.01,1.08.01,1.69-.4.05-.74.1-1.13.15-.07.24-.14.51-.23.83h-33.95v-27.83h36.57Zm-6.1,16.43v6.58h3.39v-6.58h-3.39Zm-27.51-.02v6.59h3.38v-6.59h-3.38Zm3.38-5.66v-6.63h-3.39v6.63h3.39Zm27.51,0v-6.62h-3.38v6.62h3.38Zm-18.39-.01v-6.61h-3.38v6.61h3.38Zm5.89-6.62v6.61h3.34v-6.61h-3.34Zm-9.28,18.91h3.36v-6.61h-3.36v6.61Zm9.29-6.61v6.61h3.33v-6.61h-3.33Zm-13.94-1.24c-1.61-1.86-4.19-1.87-5.62,0h5.62Zm12.64-.02h5.64c-1.73-1.84-4.18-1.83-5.64,0Zm9.53,0h5.1c-1.7-1.56-3.38-1.52-5.1,0Zm-13.24.02c-2.5-1.6-3.04-1.6-5.32,0h5.32Z"/>
        <path class="cls-1" d="m255.23,94.28v4.61h-45.52v-4.61h45.52Z"/>
        <path class="cls-1" d="m227.65,68.01h9.73c-.14,7.57-.29,15.05-.43,22.58-.3.08-.57.16-.93.25v2.58h-1.52v-6.64h-4.32v6.64h-1.44c0-.62,0-1.19,0-1.76,0-.42.15-.93-.55-1.01-.1-.01-.23-.36-.23-.55-.15-7.24-.28-14.48-.41-21.71,0-.09.04-.18.09-.38Zm3.17,2.62v6.59h3.37v-6.59h-3.37Zm-.56,14.29h4.14c0-1.31-.89-2.23-2.11-2.2-1.21.03-2.04.89-2.03,2.2Z"/>
        <path class="cls-1" d="m240.59,68.07h7.82v25.34h-6.67c0-.53.03-1.04,0-1.54-.03-.48.28-1.13-.6-1.26-.1-.01-.17-.57-.18-.87-.13-5.99-.24-11.98-.35-17.97-.02-1.21,0-2.42,0-3.71Zm5.43,9.19v-6.59h-3.36v6.59h3.36Zm-3.41,6.14v6.61h3.37v-6.61h-3.37Zm4.36-1.6c-1.02-1.7-4.18-2.04-5.52,0h5.52Z"/>
        <path class="cls-1" d="m224.4,68.09c0,.34,0,.65,0,.96-.13,6.86-.25,13.72-.38,20.58-.01.61.12,1.33-.96,1.1v2.67h-6.46v-25.31h7.8Zm-2.15,9.18v-6.62h-3.33v6.62h3.33Zm-3.35,6.1v6.6h3.39v-6.6h-3.39Zm4.52-1.56c-1.59-1.89-4.23-1.89-5.65,0h5.65Z"/>
        <path class="cls-1" d="m256.02,97.8v-2.52h34.18v2.52h-34.18Z"/>
        <path class="cls-1" d="m174.86,97.83v-2.55h34v2.55h-34Z"/>
        <path class="cls-1" d="m214.27,90.65h-2.52c0-.39,0-.73,0-1.07.13-7.02.28-14.03.37-21.05.02-1.41.47-2.88-.46-4.26h2.37c-.06.97-.18,1.91-.16,2.86.12,7.46.27,14.93.41,22.39,0,.35,0,.7,0,1.13Z"/>
        <path class="cls-1" d="m237.83,64.27h2.36c-.84,1.67-.35,3.4-.33,5.1.07,6.73.23,13.45.36,20.18,0,.34,0,.69,0,1.1h-2.43c0-2.39-.03-4.73,0-7.06.09-5.7.23-11.4.31-17.11.01-.71-.17-1.43-.27-2.21Z"/>
        <path class="cls-1" d="m253.23,90.66h-2.54c0-.34,0-.65,0-.95.15-7.62.3-15.23.43-22.85.01-.84-.14-1.68-.23-2.57h2.07c-.06,1.12-.18,2.27-.16,3.42.12,7.33.28,14.66.43,21.99,0,.28,0,.57,0,.96Z"/>
        <path class="cls-1" d="m224.85,90.7c0-3.01-.04-5.86,0-8.7.08-5.38.22-10.75.3-16.13,0-.52-.26-1.05-.41-1.6h2.29c-.08.87-.24,1.72-.22,2.57.12,7.59.25,15.17.43,22.75.02.89-.19,1.24-1.09,1.12-.43-.06-.88,0-1.3,0Z"/>
        <path class="cls-1" d="m249.81,93.05v-1.64c1.28,0,2.52-.03,3.75.01.54.02.6.36.35,1.63h-4.1Z"/>
        <path class="cls-1" d="m240.95,93.07h-4.13v-1.59h4.13v1.59Z"/>
        <path class="cls-1" d="m227.98,93.06h-4.12v-1.59h4.12v1.59Z"/>
        <path class="cls-1" d="m210.95,93.03v-1.55h4.07v1.55h-4.07Z"/>
        <path class="cls-1" d="m232.79,38.66v-2.48c.08,0,.15,0,.23,0v2.5c-.08,0-.15-.01-.23-.02Z"/>
        <path class="cls-13" d="m283.87,82.95h3.4v6.59h-3.4v-6.59Z"/>
        <path class="cls-13" d="m259.77,82.96v6.59h-3.43v-6.59h3.43Z"/>
        <path class="cls-13" d="m259.77,77.26h-3.41v-6.62h3.41v6.62Z"/>
        <path class="cls-13" d="m283.86,70.64h3.42v6.6h-3.42v-6.6Z"/>
        <path class="cls-13" d="m265.48,82.94h3.39v6.6h-3.39v-6.6Z"/>
        <path class="cls-13" d="m278.13,82.95v6.59h-3.38v-6.59h3.38Z"/>
        <path class="cls-13" d="m265.48,77.25v-6.61h3.37v6.61h-3.37Z"/>
        <path class="cls-13" d="m274.73,77.25v-6.59h3.38v6.59h-3.38Z"/>
        <path class="cls-13" d="m282.79,81.69c1.61-1.83,4.15-1.84,5.63,0h-5.63Z"/>
        <path class="cls-13" d="m264.52,81.69c1.67-1.84,4.12-1.84,5.64,0h-5.64Z"/>
        <path class="cls-13" d="m260.65,81.7h-5.22c2.37-1.61,3.14-1.61,5.22,0Z"/>
        <path class="cls-13" d="m273.97,81.67c1.71-1.45,3.42-1.64,5.11,0h-5.11Z"/>
        <path class="cls-13" d="m205.36,82.95h3.39v6.58h-3.39v-6.58Z"/>
        <path class="cls-13" d="m177.85,82.93h3.38v6.59h-3.38v-6.59Z"/>
        <path class="cls-13" d="m181.24,77.27h-3.39v-6.63h3.39v6.63Z"/>
        <path class="cls-13" d="m208.75,77.27h-3.38v-6.62h3.38v6.62Z"/>
        <path class="cls-13" d="m190.35,77.26h-3.38v-6.61h3.38v6.61Z"/>
        <path class="cls-13" d="m196.25,70.64h3.34v6.61h-3.34v-6.61Z"/>
        <path class="cls-13" d="m186.97,89.55v-6.61h3.36v6.61h-3.36Z"/>
        <path class="cls-13" d="m196.25,82.94h3.33v6.61h-3.33v-6.61Z"/>
        <path class="cls-13" d="m182.31,81.7h-5.62c1.43-1.87,4.02-1.86,5.62,0Z"/>
        <path class="cls-13" d="m194.95,81.68c1.46-1.83,3.92-1.84,5.64,0h-5.64Z"/>
        <path class="cls-13" d="m204.48,81.68c1.71-1.52,3.4-1.56,5.1,0h-5.1Z"/>
        <path class="cls-13" d="m191.24,81.7h-5.32c2.28-1.6,2.82-1.6,5.32,0Z"/>
        <path class="cls-13" d="m230.81,70.63h3.37v6.59h-3.37v-6.59Z"/>
        <path class="cls-13" d="m230.25,84.92c0-1.31.82-2.18,2.03-2.2,1.22-.03,2.11.89,2.11,2.2h-4.14Z"/>
        <path class="cls-13" d="m246.02,77.26h-3.36v-6.59h3.36v6.59Z"/>
        <path class="cls-13" d="m242.61,83.4h3.37v6.61h-3.37v-6.61Z"/>
        <path class="cls-13" d="m246.97,81.81h-5.52c1.34-2.04,4.49-1.7,5.52,0Z"/>
        <path class="cls-13" d="m222.26,77.27h-3.33v-6.62h3.33v6.62Z"/>
        <path class="cls-13" d="m218.91,83.37h3.39v6.6h-3.39v-6.6Z"/>
        <path class="cls-13" d="m223.43,81.81h-5.65c1.42-1.89,4.06-1.89,5.65,0Z"/>
      </g>
    </g>
    <path class="cls-3" d="m232.77,117.81c-25.89,0-46.95-21.06-46.95-46.95s21.06-46.95,46.95-46.95,46.95,21.06,46.95,46.95-21.06,46.95-46.95,46.95Zm0-84.91c-20.93,0-37.95,17.03-37.95,37.95s17.03,37.95,37.95,37.95,37.95-17.03,37.95-37.95-17.03-37.95-37.95-37.95Z"/>
    <rect class="cls-3" x="188.37" y="67.02" width="88.18" height="10.59" transform="translate(16.94 185.53) rotate(-44.99)"/>
  </g>
  <path class="cls-1" d="m232.77,118.31c-26.17,0-47.45-21.29-47.45-47.45s21.29-47.45,47.45-47.45,47.45,21.29,47.45,47.45-21.29,47.45-47.45,47.45Zm0-93.91c-25.61,0-46.45,20.84-46.45,46.45s20.84,46.45,46.45,46.45,46.45-20.84,46.45-46.45-20.84-46.45-46.45-46.45Z"/>
  <g>
    <path class="cls-4" d="m74.5,110.13c-2.38-1.43-5.44-1.02-7.05,1.56-1.61,2.56-.49,7,2.82,9.02,9.41,5.75,20.41,6.3,30.34,1.52,3.49-1.68,5.06-5.98,3.71-8.69-1.35-2.73-4.35-3.44-6.86-2.26-7.52,3.62-15.84,3.2-22.96-1.15Z"/>
    <path class="cls-4" d="m108.49,114.74c.78-.17,1.47-.69,1.47-1.28,0-.6-.82-1.16-1.85-1.11-2.76.13-5.47,1.16-7.7,2.97-.82.68-.68,1.85.2,2.48.89.63,1.91.67,2.39.12,1.37-1.56,3.27-2.71,5.47-3.18Z"/>
    <path class="cls-4" d="m108.56,116.84c.74-.31,1.59-.27,1.94.21.34.48,0,1.42-.88,1.97-2.35,1.47-5.15,2.18-8.02,1.96-1.06-.08-1.61-1.12-1.24-2.15.36-1.03,1.18-1.64,1.89-1.47,2.02.5,4.23.35,6.31-.52Z"/>
  </g>
  <g>
    <g class="cls-2">
      <ellipse class="cls-4" cx="62.66" cy="210.37" rx="38.38" ry="6.2"/>
    </g>
    <path class="cls-4" d="m34.85,166.45c.16,1.25,4.31,36.7,10.35,41.67,6.04,4.97,9.21,3.29,10.43,1.98,1.29-1.39,2.91-3.87-.1-6.67-2.42-2.25-4.11-12.24-1.7-27.82l-18.98-9.14Z"/>
    <path class="cls-4" d="m57.9,164.24c.16,1.25,4.31,36.7,10.35,41.67,6.04,4.97,9.21,3.3,10.43,1.97,1.29-1.38,2.91-3.87-.1-6.67-2.42-2.26-4.12-12.24-1.7-27.82l-18.98-9.14Z"/>
    <path class="cls-1" d="m39.68,112.92c6.98-3.87,15.82-5.95,32.15-6.59-3.89-1.65-9.04-2.41-16.58-2.41h-.01c-12.9,0-18.87,2.2-23.36,7.31-5.3,6.04-7.98,23.3-8.52,36.74.86-12.62,5.98-29.3,16.32-35.05Z"/>
    <path class="cls-5" d="m23.36,147.97c-.12,1.85-.15,3.61-.1,5.24,0-1.65.03-3.41.1-5.24Z"/>
    <path class="cls-5" d="m12.07,169.62c-1.84,1.31-4.22,1.76-5.48.64-1.25-1.11-.87-3.93,1.18-5.97,5.54-5.53,12.82-9.25,20.84-10.44,2.99-.44,5.15,2.08,4.79,5.13-.36,3.06-2.23,5.25-4.27,5.23-5.86-.09-11.88,1.7-17.05,5.4Z"/>
    <path class="cls-1" d="m35.11,87.84c-2.07-11.47,5.99-18.18,25.97-19.38,6.34-.38,12.2-7.82,16.78-9.19,13.18-3.92,16.3,4.67,16.3,4.67h.03c-6.49-14.84-25-23.52-44.64-19.89-22.29,4.13-37.56,22.55-34.11,41.16,3.44,18.61,24.3,30.35,46.58,26.23,1.94-.36,3.83-.83,5.65-1.4v-.02c-19.38,4.99-29.81-6.94-32.56-22.17Z"/>
    <path class="cls-5" d="m96.13,70.27c-.41-2.22-1.07-4.33-1.95-6.33h-.03s-3.13-8.59-16.3-4.67c-4.58,1.36-10.44,8.81-16.78,9.19-19.97,1.2-28.04,7.9-25.97,19.38,2.75,15.23,13.19,27.16,32.56,22.17v.02c19.15-5.94,31.61-22.77,28.46-39.75Z"/>
    <path class="cls-11" d="m75.39,102.47c-4.24.96-13.27-1.18-13.31-10.35-.04-9.16,9.9-12.13,13.25-12.89,3.35-.75,13.3-2.27,13.34,6.89.04,9.17-9.03,15.39-13.28,16.35Z"/>
    <path class="cls-4" d="m75.54,81.59c1.84-.42,4.58,1.01,4.91,3.32.33,2.31-5.01,3.43-5.01,3.43l-.16.03s-5.34,1.29-5.02-1.17c.31-2.46,3.03-5.11,4.87-5.53l.4-.09Z"/>
    <path class="cls-4" d="m73.92,98.18c-.46,0-.91-.05-1.34-.15-.91-.21-1.71-.6-2.4-1.17-.69-.57-1.23-1.3-1.62-2.16-.08-.17,0-.37.17-.44.17-.08.37,0,.44.17.34.77.83,1.42,1.43,1.92.6.5,1.32.85,2.12,1.03.82.18,1.7.17,2.6-.03.91-.21,1.8-.6,2.64-1.16.81-.55,1.54-1.24,2.16-2.04.63-.81,1.12-1.7,1.45-2.64.06-.17.26-.27.43-.2.17.06.27.26.2.43-.36,1.01-.89,1.96-1.56,2.82-.67.86-1.45,1.6-2.32,2.19-.91.61-1.87,1.04-2.87,1.26-.53.12-1.05.18-1.55.18Z"/>
    <circle class="cls-4" cx="57.48" cy="80.05" r="1.68"/>
    <circle class="cls-4" cx="83.45" cy="70.86" r="1.68"/>
    <path class="cls-5" d="m41.23,89.82c1.29,6.49.27,12.15-2.27,12.66-2.54.5-5.64-4.35-6.93-10.83-1.29-6.49-.27-12.15,2.27-12.65,2.54-.51,5.64,4.34,6.93,10.82Z"/>
    <path class="cls-4" d="m37.04,83.11c-2.09.43-3.13,4.68-2.85,10.4-.19-.69-.37-1.42-.51-2.18-.98-5.1-.44-9.51,1.22-9.85.7-.15,1.5.48,2.25,1.62-.03,0-.07,0-.1,0Z"/>
    <path class="cls-11" d="m52.32,81.47c-.19,0-.35-.15-.37-.34-.06-.64.01-1.27.2-1.88.19-.61.49-1.17.89-1.67.42-.51.92-.93,1.51-1.24.59-.31,1.22-.5,1.88-.56.21-.02.38.13.4.34s-.13.38-.34.4c-.56.05-1.09.21-1.59.47-.5.26-.93.62-1.28,1.05-.34.42-.6.9-.76,1.42-.16.52-.22,1.06-.17,1.6.02.2-.13.38-.34.4-.01,0-.02,0-.03,0Z"/>
    <path class="cls-11" d="m87.75,68.94c-.13,0-.26-.07-.32-.19-.27-.49-.64-.92-1.08-1.26-.45-.35-.95-.6-1.48-.74-.53-.14-1.06-.18-1.6-.11-.54.07-1.05.24-1.53.5-.18.1-.4.04-.5-.14-.1-.18-.03-.41.14-.5.56-.31,1.16-.51,1.8-.59.64-.08,1.27-.04,1.89.13.63.17,1.22.46,1.75.87.52.41.95.91,1.28,1.49.1.18.04.41-.14.5-.06.03-.12.05-.18.05Z"/>
    <path class="cls-5" d="m78.6,111.23c-1.64-1.87-3.48-3.34-5.78-4.47-.32-.15-.66-.29-1-.44-2.63.1-5.05.25-7.31.43-5.56.19-9.91.82-13.44,1.93-4.56,1.06-8.17,2.45-11.39,4.24-10.35,5.75-15.47,22.43-16.32,35.05-.07,1.83-.11,3.59-.1,5.25.02,4.27.29,7.81.8,9.95.55,2.32,2.77,4.29,6.25,5.86,5.55,2.49,14.35,3.91,24.93,3.91h.01c.99,0,1.96-.02,2.92-.04.3,0,.59-.02.88-.03.67-.03,1.32-.05,1.97-.09.32-.02.64-.04.96-.05.63-.04,1.25-.09,1.86-.13.29-.03.58-.04.86-.08.74-.06,1.47-.14,2.18-.23.12-.02.25-.03.38-.04.84-.1,1.66-.22,2.45-.35.19-.03.38-.07.57-.1.59-.1,1.18-.21,1.75-.32.24-.05.47-.09.71-.15.51-.11,1.01-.22,1.5-.34.22-.06.45-.11.67-.16.53-.14,1.04-.28,1.54-.44.12-.03.24-.06.36-.1h-.02c3.41-1.06,6.05-2.4,7.73-4,.02-.02.03-.04.05-.05.31-.3.6-.62.84-.93.09-.12.15-.26.24-.39.14-.22.3-.44.41-.66.18-.36.31-.72.4-1.1,2.16-9.05.08-42.95-7.82-51.93Z"/>
    <ellipse class="cls-5" cx="55.35" cy="159.14" rx="31.69" ry="24.97"/>
    <path class="cls-4" d="m58.85,206.64c.76.22,1.59.09,1.87-.42.28-.51-.17-1.39-1.08-1.82-2.46-1.17-5.28-1.55-8.06-1.01-1.03.21-1.45,1.29-.98,2.24.47.96,1.34,1.47,2.01,1.22,1.92-.71,4.1-.83,6.23-.21Z"/>
    <path class="cls-4" d="m57.67,211.05c.67.42,1.5.52,1.92.11s.22-1.38-.53-2.05c-2.04-1.81-4.64-2.95-7.46-3.21-1.05-.09-1.75.83-1.56,1.88.19,1.06.88,1.79,1.59,1.74,2.04-.16,4.16.35,6.04,1.53Z"/>
    <path class="cls-4" d="m54.41,214.39c.4.68,1.1,1.16,1.66.98.55-.18.83-1.13.46-2.07-.99-2.54-2.79-4.74-5.18-6.25-.89-.56-1.94-.07-2.25.96-.31,1.03-.03,1.99.63,2.27,1.88.79,3.55,2.21,4.68,4.11Z"/>
    <path class="cls-4" d="m82.94,204.02c.75.21,1.59.09,1.87-.42.28-.51-.17-1.4-1.08-1.83-2.46-1.17-5.28-1.55-8.06-1.01-1.03.2-1.45,1.28-.98,2.24.47.97,1.34,1.47,2.01,1.23,1.92-.71,4.1-.83,6.23-.21Z"/>
    <path class="cls-4" d="m81.76,208.43c.67.42,1.5.53,1.91.11.42-.41.23-1.39-.53-2.05-2.04-1.81-4.65-2.96-7.46-3.21-1.05-.09-1.75.83-1.56,1.88.19,1.06.88,1.78,1.59,1.73,2.04-.15,4.17.35,6.04,1.54Z"/>
    <path class="cls-4" d="m78.5,211.77c.4.68,1.1,1.16,1.66.97.55-.18.83-1.13.46-2.07-.99-2.54-2.79-4.75-5.18-6.25-.89-.56-1.93-.06-2.24.96-.32,1.03-.03,1.99.63,2.27,1.89.8,3.55,2.21,4.68,4.11Z"/>
    <path class="cls-1" d="m71.79,139.48c-.17,0-.34-.02-.51-.05-1.46-.28-2.41-1.69-2.13-3.15l3.29-17c.28-1.46,1.7-2.41,3.15-2.13,1.46.28,2.41,1.69,2.13,3.15l-3.29,17c-.25,1.28-1.37,2.18-2.63,2.18Z"/>
    <path class="cls-12" d="m104.03,118.07c-.21-.26-.38-.56-.5-.91-.4-1.25.23-2.6,1.37-3.23l90-44.78c.7-.35,1.6-.85,2.33-.55,1.4.58-.69,1.47-2.4,2.41l-87.45,47.67c-1.15.63-2.55.34-3.36-.63Z"/>
  </g>
  <g>
    <path class="cls-4" d="m43.37,119.92c-1.78-2.13-4.8-2.75-7.17-.85-2.37,1.89-2.76,6.44-.3,9.44,6.99,8.52,17.2,12.67,28.16,11.41,3.85-.44,6.74-3.98,6.36-6.98-.38-3.02-2.98-4.68-5.74-4.39-8.29.95-16.01-2.18-21.3-8.63Z"/>
    <path class="cls-4" d="m73.18,130.83c.74-.14,1.4-.6,1.42-1.16.02-.56-.74-1.12-1.7-1.09-2.6.05-5.16.93-7.3,2.56-.79.62-.69,1.71.12,2.33.81.62,1.77.68,2.23.18,1.33-1.42,3.15-2.45,5.22-2.83Z"/>
    <path class="cls-4" d="m74.06,135.09c.75.07,1.51-.19,1.68-.72.18-.53-.4-1.28-1.32-1.52-2.51-.67-5.22-.54-7.72.44-.93.37-1.14,1.45-.53,2.27.61.82,1.51,1.14,2.09.8,1.67-.99,3.7-1.47,5.79-1.26Z"/>
    <path class="cls-4" d="m72.71,139.32c.63.41,1.43.52,1.82.12.39-.39.22-1.32-.49-1.96-1.92-1.74-4.4-2.85-7.07-3.12-.99-.1-1.67.77-1.5,1.78.17,1.01.82,1.7,1.5,1.66,1.94-.12,3.97.37,5.74,1.52Z"/>
  </g>
  <path class="cls-4" d="m108.04,113.48c.78.16,1.62-.03,1.87-.57.24-.54-.28-1.4-1.23-1.77-2.58-1-5.48-1.16-8.24-.41-1.03.29-1.37,1.41-.82,2.35.55.94,1.47,1.39,2.13,1.08,1.89-.87,4.09-1.15,6.29-.68Z"/>
</svg>