<?xml version="1.0" encoding="UTF-8"?>
<svg id="Layer_1" data-name="Layer 1" xmlns="http://www.w3.org/2000/svg" width="300" height="225" viewBox="0 0 300 225">
  <defs>
    <style>
      .cls-1 {
        fill: #fff;
      }

      .cls-2 {
        isolation: isolate;
        opacity: .35;
      }

      .cls-3 {
        fill: #232323;
      }

      .cls-4 {
        fill: #444;
      }

      .cls-5 {
        fill: #faf8d3;
      }

      .cls-6 {
        fill: #dda905;
      }

      .cls-7 {
        fill: #af713e;
      }

      .cls-8 {
        fill: #54381a;
      }

      .cls-9 {
        fill: #d98a4f;
      }

      .cls-10 {
        fill: #7f7f7f;
      }

      .cls-11 {
        fill: #595659;
      }

      .cls-12 {
        fill: #ffcf15;
      }
    </style>
  </defs>
  <g>
    <path class="cls-3" d="m129.53,105.41c3.19,0,3.2-4.96,0-4.96s-3.2,4.96,0,4.96h0Z"/>
    <path class="cls-3" d="m122.83,104.46c3.19,0,3.2-4.96,0-4.96s-3.2,4.96,0,4.96h0Z"/>
    <path class="cls-3" d="m92.02,106.99c-2.91-.97-6.11.2-7.24,3.37-1.13,3.15,1.14,7.67,5.2,9.06,11.53,3.96,23.54,1.92,33.12-5.62,3.37-2.65,4.03-7.67,1.93-10.26-2.11-2.62-5.52-2.67-7.95-.79-7.25,5.7-16.33,7.24-25.06,4.25Z"/>
    <path class="cls-3" d="m129.81,103.84c.8-.37,1.42-1.09,1.28-1.74-.13-.65-1.17-1.06-2.26-.76-2.95.81-5.63,2.56-7.6,5.05-.73.93-.29,2.16.81,2.63,1.11.47,2.22.26,2.61-.44,1.11-2.01,2.89-3.7,5.15-4.74Z"/>
    <path class="cls-3" d="m130.95,108.94c.88.04,1.76-.33,1.93-.96.17-.63-.56-1.47-1.67-1.7-3-.62-6.18-.29-9.06,1.04-1.07.49-1.24,1.78-.47,2.71.77.93,1.85,1.25,2.52.8,1.9-1.29,4.25-1.99,6.74-1.88Z"/>
    <g>
      <path class="cls-8" d="m158.84,110.32h0c-.27,1.47-1.69,2.45-3.16,2.17L14.18,85.54c-1.45-.28-2.41-1.67-2.15-3.13h0c.27-1.47,1.69-2.45,3.16-2.17l141.5,26.95c1.45.28,2.41,1.67,2.15,3.13Z"/>
      <path class="cls-11" d="m28.77,40.12l-9.43,42.93-6.03,42.18c-.06.43-.47.72-.9.65l-9.41-1.71c-.42-.08-.7-.48-.62-.9l7.16-36.61c.68-3.46,1.68-6.84,2.99-10.11l14.81-36.86c.13-.33.47-.52.82-.45h0c.41.08.68.48.59.89Z"/>
    </g>
    <g class="cls-2">
      <ellipse class="cls-3" cx="71.28" cy="204.48" rx="42.44" ry="6.85"/>
    </g>
    <path class="cls-3" d="m40.54,155.92c.17,1.39,4.76,40.57,11.44,46.06,6.67,5.49,10.18,3.64,11.53,2.18,1.42-1.53,3.21-4.28-.11-7.38-2.67-2.49-4.55-13.53-1.88-30.76l-20.98-10.11Z"/>
    <path class="cls-3" d="m66.03,153.48c.18,1.39,4.76,40.57,11.44,46.06,6.68,5.49,10.18,3.64,11.54,2.18,1.42-1.53,3.21-4.28-.11-7.38-2.67-2.49-4.55-13.53-1.88-30.76l-20.98-10.11Z"/>
    <path class="cls-1" d="m57.22,95.1c8.45-2.53,18.49-2.69,36.28.48-3.81-2.7-9.2-4.74-17.34-6.52h-.01c-13.94-3.05-20.9-2.08-26.96,2.38-7.15,5.27-14.12,23.28-17.88,37.67,3.91-13.42,13.37-30.23,25.91-34Z"/>
    <path class="cls-4" d="m31.31,129.1c-.57,1.97-1.02,3.87-1.35,5.64.39-1.78.84-3.68,1.35-5.64Z"/>
    <path class="cls-4" d="m14,149.82c-2.3.98-4.98.91-6.07-.6-1.09-1.49-.01-4.46,2.68-6.17,7.29-4.66,16.03-6.96,24.97-6.35,3.33.23,5.07,3.47,3.96,6.67-1.11,3.22-3.65,5.15-5.85,4.64-6.31-1.49-13.23-.97-19.69,1.81Z"/>
    <path class="cls-1" d="m58.2,66.94c.47-12.88,10.77-18.22,32.62-14.79,6.94,1.09,15.02-5.57,20.29-5.96,15.16-1.12,16.5,8.89,16.5,8.89h.03c-3.5-17.55-21.45-31.3-43.51-32.02-25.04-.81-45.89,15.49-46.57,36.39-.68,20.91,19.07,38.52,44.11,39.33,2.18.07,4.33,0,6.44-.18v-.03c-22.1.82-30.55-14.54-29.92-31.63Z"/>
    <path class="cls-4" d="m128.53,62.38c.08-2.49-.14-4.93-.61-7.3h-.03s-1.35-10.02-16.51-8.9c-5.27.39-13.35,7.05-20.29,5.96-21.86-3.42-32.15,1.91-32.62,14.79-.62,17.1,7.83,32.45,29.93,31.63v.03c22.08-1.9,39.51-17.13,40.13-36.21Z"/>
    <path class="cls-10" d="m98.25,92.25c-4.81.03-14.05-4.41-11.93-14.32,2.12-9.9,13.56-10.77,17.35-10.79,3.79-.02,14.9.69,12.78,10.59-2.13,9.91-13.39,14.49-18.2,14.52Z"/>
    <path class="cls-3" d="m103.35,69.74c2.09-.01,4.71,2.17,4.52,4.75-.19,2.58-6.22,2.52-6.22,2.52h-.18s-6.07.13-5.15-2.45c.92-2.58,4.48-4.81,6.57-4.82h.45Z"/>
    <path class="cls-3" d="m99.33,87.41c-1.1,0-2.13-.22-3.05-.64-.93-.44-1.7-1.05-2.3-1.82-.6-.77-1.02-1.68-1.23-2.71-.04-.18.08-.36.26-.4.18-.04.36.08.4.26.19.92.56,1.74,1.1,2.43.54.69,1.23,1.23,2.06,1.63.85.39,1.79.59,2.83.58,1.04,0,2.1-.22,3.14-.64,1.01-.4,1.96-.97,2.83-1.7.87-.73,1.61-1.57,2.2-2.51.1-.16.31-.2.46-.11.16.1.2.31.11.46-.63,1-1.41,1.9-2.34,2.67-.92.77-1.93,1.38-3.01,1.81-1.12.45-2.26.68-3.38.69-.02,0-.04,0-.07,0Z"/>
    <circle class="cls-3" cx="84.2" cy="63.84" r="1.86"/>
    <circle class="cls-3" cx="114.17" cy="60.14" r="1.86"/>
    <path class="cls-10" d="m79.5,61.65c-.05,0-.11-.01-.16-.04-.19-.09-.26-.31-.18-.49.3-.63.72-1.19,1.23-1.67.51-.47,1.11-.84,1.77-1.08.68-.25,1.39-.37,2.12-.33.73.03,1.43.21,2.09.52.19.09.26.31.18.49-.09.19-.31.26-.49.18-.56-.27-1.17-.42-1.8-.44-.63-.03-1.24.07-1.83.29-.57.21-1.08.53-1.53.93-.45.41-.81.89-1.07,1.44-.06.13-.2.21-.34.21Z"/>
    <path class="cls-10" d="m118.81,56.44c-.12,0-.23-.06-.3-.16-.36-.52-.81-.95-1.34-1.28-.54-.34-1.12-.56-1.73-.66-.6-.1-1.2-.08-1.79.06-.59.14-1.14.38-1.64.72-.17.12-.4.07-.52-.09-.12-.17-.07-.4.09-.52.58-.4,1.21-.68,1.9-.84.69-.16,1.38-.18,2.08-.07.71.11,1.38.37,2.01.76.62.39,1.14.89,1.56,1.49.12.17.08.4-.09.52-.06.04-.14.07-.21.07Z"/>
    <path class="cls-4" d="m99.65,102.47c-1.33-2.4-2.97-4.43-5.19-6.19-.31-.24-.65-.47-.98-.71-2.86-.51-5.51-.92-8-1.27-6.05-1.1-10.9-1.46-14.98-1.1-5.17.06-9.41.72-13.3,1.89-12.53,3.76-22,20.57-25.91,34-.51,1.96-.96,3.86-1.35,5.64-.99,4.61-1.54,8.5-1.49,10.94.05,2.63,1.98,5.29,5.37,7.8,5.41,4,14.57,7.61,26,10.11h.01c1.07.24,2.13.45,3.17.65.32.06.64.11.96.17.73.13,1.44.26,2.15.37.35.06.7.11,1.05.17.69.11,1.37.2,2.04.29.31.04.63.09.95.12.82.11,1.62.19,2.41.27.14,0,.28.03.42.04.93.09,1.84.16,2.73.21.22.01.42.02.64.03.67.03,1.32.06,1.96.07.27,0,.53,0,.8,0,.58,0,1.15,0,1.7-.01.25,0,.51-.01.76-.02.6-.03,1.19-.06,1.76-.11.13,0,.28-.01.41-.02h-.02c3.93-.34,7.11-1.17,9.29-2.5.02-.01.04-.03.06-.04.41-.25.79-.52,1.13-.81.13-.11.23-.24.35-.36.21-.2.42-.4.6-.62.28-.35.5-.71.69-1.09,4.47-9.26,10.23-46.37,3.82-57.94Z"/>
    <ellipse class="cls-4" cx="63.23" cy="148.73" rx="27.6" ry="35.04" transform="translate(-95.57 178.72) rotate(-77.66)"/>
    <g>
      <path class="cls-3" d="m59.55,103.54c-1.42-2.73-4.53-4.1-7.54-2.61-3,1.48-4.5,6.31-2.55,10.12,5.54,10.86,15.59,17.74,27.71,18.98,4.26.44,8.22-2.71,8.52-6.04.3-3.35-2.11-5.76-5.17-6.1-9.17-.93-16.77-6.13-20.97-14.35Z"/>
      <path class="cls-3" d="m89.17,122.36c.83.03,1.65-.32,1.8-.91.16-.6-.54-1.38-1.57-1.58-2.81-.56-5.8-.22-8.48,1.05-1,.48-1.15,1.69-.42,2.55.73.86,1.75,1.15,2.37.73,1.78-1.22,3.98-1.9,6.3-1.82Z"/>
      <path class="cls-3" d="m89.11,127.17c.79.25,1.67.15,1.98-.38.32-.53-.13-1.47-1.07-1.96-2.55-1.32-5.51-1.82-8.44-1.35-1.09.18-1.57,1.3-1.1,2.33.46,1.03,1.36,1.59,2.07,1.35,2.04-.68,4.34-.72,6.56,0Z"/>
      <path class="cls-3" d="m86.65,131.41c.59.59,1.42.9,1.94.56.52-.33.55-1.37-.07-2.23-1.67-2.34-4.08-4.12-6.9-5.04-1.05-.34-1.99.44-2.05,1.57-.05,1.13.49,2.03,1.23,2.15,2.12.32,4.2,1.34,5.84,2.99Z"/>
    </g>
    <path class="cls-3" d="m67.07,200.35c.84.24,1.76.1,2.07-.47.31-.56-.19-1.54-1.19-2.01-2.72-1.3-5.84-1.72-8.91-1.12-1.14.23-1.6,1.42-1.08,2.48.52,1.07,1.48,1.62,2.22,1.35,2.12-.79,4.54-.91,6.89-.23Z"/>
    <path class="cls-3" d="m65.77,205.23c.74.46,1.66.58,2.12.12.46-.46.25-1.53-.59-2.27-2.25-2-5.13-3.27-8.25-3.55-1.16-.1-1.93.92-1.73,2.08.21,1.17.97,1.97,1.76,1.92,2.25-.17,4.6.38,6.68,1.69Z"/>
    <path class="cls-3" d="m62.16,208.91c.45.75,1.22,1.28,1.83,1.08.61-.2.92-1.25.51-2.29-1.1-2.8-3.09-5.24-5.73-6.91-.99-.62-2.14-.07-2.49,1.06-.35,1.14-.03,2.2.7,2.51,2.08.88,3.93,2.44,5.18,4.55Z"/>
    <path class="cls-3" d="m93.71,197.46c.83.24,1.76.1,2.07-.47.31-.57-.19-1.54-1.19-2.02-2.72-1.29-5.84-1.71-8.91-1.12-1.14.22-1.6,1.42-1.08,2.48.52,1.07,1.48,1.62,2.22,1.36,2.12-.79,4.54-.91,6.89-.23Z"/>
    <path class="cls-3" d="m92.4,202.33c.74.46,1.66.58,2.11.12.46-.45.25-1.53-.58-2.27-2.26-2-5.14-3.27-8.25-3.55-1.16-.1-1.93.92-1.72,2.08.2,1.17.97,1.97,1.76,1.92,2.25-.17,4.61.38,6.68,1.7Z"/>
    <path class="cls-3" d="m88.8,206.02c.45.75,1.22,1.28,1.83,1.07.61-.2.92-1.25.51-2.28-1.1-2.81-3.09-5.25-5.73-6.91-.98-.62-2.14-.07-2.48,1.07-.35,1.14-.03,2.2.69,2.51,2.09.88,3.93,2.44,5.18,4.55Z"/>
    <path class="cls-3" d="m123.17,102.2c.5.73,1.31,1.22,1.92.98.61-.24.86-1.33.38-2.35-.4-.87-.92-1.11-1.82-1.25s-2.34.49-2.34.49c.69.62,1.32,1.33,1.86,2.13Z"/>
    <path class="cls-3" d="m129.87,103.15c.5.73,1.31,1.22,1.92.98.61-.24.86-1.33.38-2.35-.4-.87-.92-1.11-1.82-1.25s-2.34.49-2.34.49c.69.62,1.32,1.33,1.86,2.13Z"/>
    <g>
      <path class="cls-4" d="m40.12,34.12c-1.36-.79-2.27-1.54-2.89-2.14-2.98,1.1-4.65,2.34-4.65,3.65,0,4.55,20.25,8.25,45.51,8.39-14.37-.13-35.52-2.14-37.97-9.9Z"/>
      <path class="cls-4" d="m126.57,35.63c0-1.15-1.3-2.25-3.65-3.25-.56.51-1.4,1.16-2.68,1.89,0,0,0,0,0,.01,0,4.53-6,6.95-13.92,8.25,12.23-1.52,20.25-4.04,20.25-6.9Z"/>
      <path class="cls-4" d="m79.58,44.02c-.5,0-.99,0-1.48,0,.5,0,1,0,1.48,0Z"/>
      <path class="cls-4" d="m106.33,42.53c-7.59.94-16.81,1.49-26.75,1.49,7.83,0,18.36-.11,26.75-1.49Z"/>
      <path class="cls-4" d="m79.58,10.25c-24.28,0-36.83,10.37-39.25,19.22.66.3,1.43.63,2.3.97,6.28,2.46,18.13,5.72,36.95,5.72s31.9-3.17,38.23-5.41c.6-.21,1.15-.42,1.65-.61-3.22-8.98-16.44-19.89-39.88-19.89Z"/>
      <path class="cls-4" d="m120.24,34.28s0,0,0-.01c-4.7,2.65-15.4,6.17-40.67,6.17s-34.61-3.47-39.46-6.31c2.45,7.76,23.61,9.77,37.97,9.9.49,0,.99,0,1.48,0,9.94,0,19.16-.55,26.75-1.49,7.91-1.3,13.92-3.73,13.92-8.25Z"/>
      <path class="cls-11" d="m120.24,34.26c1.28-.72,2.12-1.38,2.68-1.89-.89-.38-1.93-.74-3.11-1.09.28,1.03.42,2.03.42,2.98Z"/>
      <path class="cls-11" d="m39.88,32.6c0-.49.04-.99.11-1.49-1.01.28-1.94.57-2.76.88.62.6,1.53,1.35,2.89,2.14-.15-.49-.24-.99-.24-1.52Z"/>
      <path class="cls-11" d="m42.63,30.44c-.88-.34-1.64-.67-2.3-.97-.15.55-.26,1.09-.34,1.63.82-.23,1.7-.45,2.64-.66Z"/>
      <path class="cls-11" d="m119.82,31.29c-.1-.38-.22-.76-.36-1.15-.49.19-1.04.4-1.65.61.71.18,1.38.36,2.01.54Z"/>
      <path class="cls-11" d="m117.81,30.75c-6.33,2.24-18.71,5.41-38.23,5.41s-30.67-3.26-36.95-5.72c-.94.21-1.82.43-2.64.66-.07.51-.11,1.01-.11,1.49,0,.53.09,1.04.24,1.52,4.85,2.84,15.45,6.31,39.46,6.31,25.27,0,35.97-3.51,40.67-6.17,0-.94-.15-1.94-.42-2.98-.63-.19-1.31-.37-2.01-.54Z"/>
    </g>
    <g>
      <rect class="cls-11" x="101.37" y="27.5" width="10.99" height="13.24" rx=".71" ry=".71" transform="translate(-3.88 16.26) rotate(-8.55)"/>
      <rect class="cls-5" x="102.91" y="29.01" width="7.77" height="9.37" rx=".71" ry=".71" transform="translate(-3.82 16.25) rotate(-8.55)"/>
    </g>
  </g>
  <g>
    <g>
      <path class="cls-1" d="m126.58,191.21l-.02-.02c-.28.24-.39.58-.49.91-.49,1.72-1.28,3.31-2.25,4.81-2.12.79-2.92,2.69-3.77,4.52-.29.62-.35,1.34.04,2,.54,1.63,1.62,2.84,3.03,3.76,2.45,1.6,5.3,1.8,8.09,2.13,3.12.37,6.26.63,9.37,1.04,1.76.23,3.1-.3,4.02-1.79.53-.86,1.09-1.7,1.76-2.46.58-.65,1.09-1.39,1.11-2.29.01-.86.34-.83.96-.55,1.55.72,3.11,1.45,4.79,1.84.16.04.36.09.45.21.19.25-.36,2.32-.64,2.58-1.45,1.3-1.27,2.98.45,3.91.61.33,1.27.6,1.92.84.7.26,1.4.69,2.2.3.23,0,.45-.03.59-.25,1.21-.72,2.52-.95,3.93-.9.64.02,1.53.08,1.87-.38.9-1.22,2.1-2.39,1.83-4.13-.06-.42.15-.45.44-.52.78-.2,1.55-.42,2.33-.65,2.45-.73,4.81-1.33,7.51-.65,3.19.8,6.52.27,9.76-.29.7-.12,1.14.04,1.66.54,1.74,1.7,3.16,3.66,4.72,5.5,2.3,2.71,5.11,4.41,8.66,4.88,2.01.27,4.02.46,6.03.71,4.41.53,8.69,1.73,13,2.75,1.98.47,3.96.96,6,.62,3.34-.56,6.68-1.22,9.93-2.19,5.8-1.72,11.55-3.62,17.33-5.42.31-.1.68-.61,1.01.11,1.1,2.41,3.24,3.8,5.31,5.25,1.06.74,2.3.94,3.58,1.08,2.87.3,5.54-.64,8.25-1.24,3.57-.78,7.09-1.64,10.78-1.29.8.07,1.61.09,2.42.05,1.71-.09,3.43.07,5.12-.41,1.33-.37,2.14-1.15,2.29-2.53.1-.94.29-1.87.19-2.82.04-.05.04-.09,0-.14,0-.16,0-.33,0-.49.04-.05.04-.09,0-.14.03-.46.08-.92-.1-1.36.09-.11.06-.22-.04-.31-.19-.85-.76-1.38-1.48-1.8-.78-.46-1.59-.88-2.25-1.53-.53-.52-.74-.83.16-1.21,1.1-.47,2.08-1.18,2.84-2.12.69-.85,1.48-1.59,2.29-2.31,3.47-3.13,5.1-7.01,4.72-11.69-.39-2-.94-3.94-2.18-5.59-2.38-3.16-4.94-6.14-8.51-8.05-.06-.02-.13-.05-.19-.07h.03c-2.32-1.82-4.49-3.76-6.43-5.98-1.35-1.55-2.8-3.03-4.71-3.92-1.49-1.01-3.25-1.36-4.88-2.05-.14-4.43-.49-8.84-.9-13.25.06-1.22-.45-2.19-1.42-2.89-.98-.71-1.75-1.59-2.45-2.56-.62-.87-1.19-1.83-2.17-2.38-1.35-1.81-2.7-3.61-4.05-5.42-1.8-2.41-4.01-4.43-6.36-6.28-.82-.64-1.73-1.17-2.8-1.32-.75-4.66-1.76-9.28-2.73-13.9-.11-.53-.33-.86-.78-1.14-2.14-1.37-3.96-3.11-5.68-4.97-3.34-3.61-7.2-6.64-11.07-9.65-.23-.33-.5-.11-.75-.04-1.01.28-2,.66-2.91,1.18-6.79,3.88-13.07,8.5-19.11,13.45-1.02.84-1.62,1.95-1.88,3.29-.63,3.22-1,6.47-1.23,9.74-.15,2.23-.42,4.46-.19,6.7,0,3.17-.02,6.33-.03,9.5,0,.69.1,1.4-.31,2.03-1.57,0-3.04.33-4.39,1.19-1.44.93-2.92,1.81-4.41,2.66-4.85,2.74-7.4,6.91-7.68,12.45-.03.65-.36.88-.82.71-1.85-.69-3.83-.76-5.71-1.29-1.57-.45-3.2-.55-4.79-.3-2.06.31-4.15.39-6.22.56-3.04.24-6.06.61-9.05,1.13-1.77.31-3.6.51-5.21,1.43-1.1.32-1.83,1.12-2.54,1.95-1.39,1.63-2.4,3.52-3.38,5.41-2.32,1.25-4.16,3.01-5.5,5.28-.15.26-.23.59-.27.9-.46,3.32-.91,6.64-1.34,9.96-.25,1.93-.26,3.91-1,5.76-.15.37-.18.81-.73.4-.15-.13-.29-.32-.46-.4-2.06-.86-3.98-2-5.96-3.03-1.05-.55-2.18-.53-3.25-.17-1.48.5-2.92,1.13-4.37,1.74-.37.15-.79.32-.89.8Z"/>
      <path class="cls-7" d="m204.55,144.08c.41-.63.31-1.33.31-2.03,0-3.17.02-6.33.03-9.5.46-.06.35-.42.41-.72.5-2.29,1.06-4.53,2.4-6.53.78-1.16,1.61-2.32,1.78-3.84.25-2.26,1.38-4.31,1.87-6.52.13-.61.37-.71.89-.71,2.41,0,4.82.22,7.17.72,1.79.38,2.81.98,2.73,3.29-.04,1.17.3,2.35.32,3.53.03,2.15.37,4.31-.52,6.42-.72,1.69-1.45,3.41-1.65,5.28-.18,1.69.31,3.23.82,4.89.35-.38.35-.69.38-1.01.18-2.02.48-4.01,1.29-5.9.51-1.19,1.06-2.37,1.43-3.6.91-3.05.16-6.26.82-9.36.36-1.69-.04-3.59,1.66-4.85.36-.27.53-.81.75-1.25.53-1.03,1.1-2.04,1.55-3.1,1.51-3.53,2.98-7.09,1.96-11.07,3.87,3.01,7.73,6.04,11.07,9.65,1.72,1.86,3.54,3.59,5.68,4.97.44.29.67.61.78,1.14.97,4.62,1.98,9.23,2.73,13.9-1.86-.17-3.5.52-5.12,1.29-3.74,1.79-6.73,4.59-9.83,7.25-.32.28-.33.6-.14.94.25.44.63.72,1.09.94,1.71.83,3.64,1.35,4.68,3.18.05.09.14.16.23.21,1.53.92,2.69,2.18,3.68,3.65.56.83,1.26,1.62,2.04,2.23,2.05,1.6,3.94,3.29,4.86,5.88.18-.37.27-.7.47-.92,1.43-1.59,1.77-3.5,2.03-5.55.25-1.97.76-3.98,2.62-5.27.82-.56,1.06-1.45.79-2.43-.21-.76-.26-1.51.5-1.96.73-.43,1.01-1.1,1.24-1.83,1.35,1.81,2.7,3.61,4.05,5.42.07.37.13.75.22,1.12.47,1.97.31,2.21-1.32,3.38-1.11.8-2.1,1.78-2.81,3.08,3.38.16,6.67-.15,9.94.25.41,4.41.76,8.82.9,13.25-.44-.11-.88-.2-1.32-.33-2.61-.75-5.28-1.28-7.96-.85-3.94.64-7.77,1.81-11.25,3.81-1.47.85-2.78.9-4.33.44-2.12-.62-4.11-1.58-6.22-2.21-4.11-1.23-8.35-1.12-12.58-1.07-.37,0-.74.09-.91.42-.76,1.43-2.14,2.22-3.37,3.09-3.19,2.27-5.17,5.24-5.75,9.11-.15,1.01-.47,1.73-1.71,1.49-.24-.05-.54.11-.8.2-4.19,1.45-7.95,3.69-11.6,6.17-2.53,1.72-5.49,2.58-8.31,3.71-2.44.98-4.64,2.3-6.41,4.25-2.51,2.76-3.32,6.21-3.76,9.79-.15,1.23.03,2.21,1.43,2.56.19.05.34.24.51.36,2.19,1.56,4.32,3.21,6.58,4.64,1.27.8,2.56,1.83,4.12,1.91,2.23.11,4.46.36,6.71.26.62-.03,1.24.04,1.87.13,2.53.36,4.98,1,7.44,1.68,4.33,1.2,8.92,1.05,13.22,2.53.84.29,1.88.2,2.79-.49,2.08-1.59,3.21-3.73,3.93-6.16.66-2.24,1.84-4.11,3.69-5.59,1.11-.89,2.06-1.99,3.08-3-.06-.07-.12-.14-.17-.21-.68.2-1.38.13-2.07.16-2.34.08-4.68-.05-7.02.16-3.53.32-6.86,1.16-10.03,2.73-1.63.81-3.31,1.5-5.07,1.95-5.04,1.27-9.98,2.85-14.91,4.46-.3.1-.64.32-.85-.02-.21-.34.16-.55.35-.79.9-1.15,1.91-2.23,2.57-3.56,1.31-2.61,3.21-4.6,5.91-5.85,1.61-.74,3.24-1.53,4.69-2.55,2.43-1.71,4.89-3.06,7.97-3.36,4.09-.39,8.18-.78,12.29-.97,1.86-.09,3.64-.59,5.47-.8.58-.07.58-.3.51-.84-.34-2.39-1.92-3.92-3.66-5.3-2.25-1.78-4.93-2.89-7.35-4.43-1.98-1.27-4.06-2.33-6.33-2.99-1.51-.44-1.51-.46-1.46-2.05.01-.31.08-.62.13-.93.05-.35.25-.52.6-.63,1.63-.51,3.26-.93,5-1.01,1.84-.08,3.7-.22,5.46-.85,2.14-.78,4.29-1.52,6.63-1.22,1.17.15,2.36.24,3.52.44.65.11,1.15.17,1.3-.67.05-.31.33-.4.65-.41,1.54-.03,3.08-.01,4.58.37,2.6.66,5.26,1.12,7.68,2.34.74.37,1.32.23,1.83-.43.56-.71,1.06-1.5,1.84-1.99,3.64-2.29,7.55-3.75,11.9-3.87,1.49-.04,2.92-.36,3.83-1.73,1.92.89,3.36,2.37,4.71,3.92,1.94,2.22,4.12,4.16,6.43,5.97-2.07-.01-4.11.2-6.02,1.1-2.41,1.14-4.94,1.04-7.48.65-1.99-.31-3.96-.74-5.96-1-1.13-.15-2.31-.17-3.43.18-1.03.32-1.28,1.07-.8,1.9,1.31,2.26,3.05,4.12,4.98,5.87,1.33,1.2,2.72,2.29,4.25,3.19.59.34,1.07.78,1.49,1.3,1.41,1.77,2.31,3.83,3.19,5.88.47,1.08,1.11,2.1,1.32,3.29l-.03.03c-.14,0-.28-.03-.42,0-.58.11-1.37-.37-1.72.36-1.26,2.61-2.63,5.18-2.49,8.22.03.79.41,1.13,1.09,1.29,1.88.45,3.85-.06,5.72.54.37.12.37-.24.43-.45.47-1.57,1.09-3.12,1.33-4.73.28-1.92.36-3.19-1.52-4.17-1.06-.55-1.25-1.37-1.34-2.35-.18-1.99-.26-4.01-2.09-5.37-.27-.2-.42-.55-.6-.85-.75-1.23-.33-2.14,1.12-2.38,2.22-.36,4.45-.12,6.68-.05,3.24.09,6.37.65,9.48,1.46,1.25.33,2.47.45,3.67-.15.38,4.69-1.25,8.56-4.72,11.69-.81.73-1.6,1.46-2.29,2.31-.76.94-1.74,1.65-2.84,2.12-.9.38-.69.69-.16,1.21.66.65,1.47,1.07,2.25,1.53.72.42,1.29.95,1.48,1.8.01.1.02.21.04.31.18.44.12.9.1,1.36-.02.01-.05.03-.05.04.02.04.04.07.06.1,0,.16,0,.33,0,.49-.02.01-.06.03-.05.03.01.04.03.07.05.1.1.95-.08,1.89-.19,2.82-.15,1.38-.96,2.16-2.29,2.53-1.69.47-3.41.32-5.12.41-.8.04-1.62.02-2.42-.05-3.69-.34-7.22.51-10.78,1.29-2.71.59-5.38,1.54-8.25,1.24-1.28-.14-2.52-.34-3.58-1.08-2.07-1.44-4.21-2.84-5.31-5.25-.33-.72-.71-.21-1.01-.11-5.78,1.8-11.53,3.69-17.33,5.42-3.25.97-6.58,1.62-9.93,2.19-2.05.35-4.02-.15-6-.62-4.31-1.02-8.59-2.22-13-2.75-2.01-.24-4.02-.44-6.03-.71-3.55-.47-6.36-2.17-8.66-4.88-1.56-1.84-2.98-3.81-4.72-5.5-.51-.5-.96-.66-1.66-.54-3.24.56-6.57,1.1-9.76.29-2.7-.68-5.05-.08-7.51.65-.77.23-1.55.45-2.33.65-.29.08-.5.1-.44.52.27,1.75-.94,2.91-1.83,4.13-.34.47-1.23.4-1.87.38-1.4-.05-2.71.18-3.93.9-.47-.45-.01-.85.1-1.24.18-.61.15-1.13-.43-1.45-1.3-.72-2.78-.77-4.37-1.4.35.66.72.63,1.05.74,1.46.46,2.72,1.12,2.84,2.9.02.24.14.47.21.7-.8.39-1.49-.04-2.2-.3-.65-.24-1.31-.51-1.92-.84-1.72-.93-1.9-2.61-.45-3.91.29-.26.83-2.33.64-2.58-.09-.12-.29-.17-.45-.21-1.68-.39-3.24-1.12-4.79-1.84-.61-.29-.95-.32-.96.55-.01.9-.53,1.64-1.11,2.29-.68.76-1.23,1.6-1.76,2.46-.91,1.49-2.26,2.02-4.02,1.79-3.12-.41-6.25-.67-9.37-1.04-2.79-.33-5.64-.53-8.09-2.13-1.41-.92-2.49-2.13-3.03-3.76,5.01,2.73,10.49,3.42,16.06,3.76.65.04,1.62.41,1.92-.34.29-.75-.4-1.45-1.01-1.92-2.41-1.86-4.65-3.92-6.75-6.12-.16-.17-.4-.29-.63-.36-1.93-.6-3.8-1.39-5.84-1.55.97-1.5,1.76-3.08,2.25-4.81.09-.33.21-.67.49-.91,1.23.53,2.23,1.35,3.25,2.2.98.82,2.15,1.28,3.55,1.26,1.8-.02,3.53-.41,5.3-.57,1.16-.1,2.44-.17,3.29-1.32.28.47.52.87.77,1.29.95-1.47,1.43-3.05,1.98-4.59.41-1.16,1.2-2.14,1.5-3.34.42-1.71.42-3.46.42-5.2,0-1.26-.08-2.51.2-3.76.23-1.03.74-1.5,1.8-1.5,2.55.02,4.87.74,6.5,2.78.99,1.24,2.28,1.79,3.66,2.27.69.24,1.41.41,2.12.58.44.11.66.34.66.8,0,2.58,0,5.16-.32,7.74-.22,1.73-.26,3.49.09,5.22.41,2.02.8,4.04.66,6.12-.02.3.16.84-.48.63-.97-.32-1.54.25-2.03.9-.33.44-.72.72-1.17,1-1.01.64-2.22.72-3.28,1.31,1.24-.06,2.34.35,3.4.85.8.38,1.58.37,2.32.02.88-.42,1.73-.92,2.54-1.47.48-.33.86-1.07.39-1.41-.99-.72-.7-1.59-.65-2.49.06-1.08.3-2.14.23-3.23-.05-.8-.05-1.62.02-2.41.33-3.67,1.1-7.31,1.03-11.02-.02-1.19.38-2.25,1.4-3.01,2.41-1.77,4.04-4.21,5.61-6.68.13-.2.32-.41.22-.67-.08-.2-.29-.12-.46-.08-1.97.39-3.9-.01-5.79-.44-3.26-.74-6.27-2.38-9.65-2.69-1.75-.16-3.49-.6-5.27-.32.98-1.9,1.98-3.78,3.38-5.41.71-.83,1.44-1.63,2.54-1.95,1.12.55,2.36.49,3.56.62,3.48.39,6.69,1.53,9.5,3.56,1.92,1.38,3.87,2.28,6.27,2.17,1.14-.05,2.3.1,3.44.25,3.42.44,6.83.98,10.29.99,2.1,0,4.18.21,6.27.38,1.88.16,3.78.04,5.62-.42,1.52-.38,2.18-1.69,1.48-2.95-.38-.69-.86-1.37-1.55-1.82-1.18-.76-2.42-1.37-3.78-1.74-1.28-.35-2.55-.74-3.81-1.13-.33-.1-.75-.27-.77-.64-.03-.48.5-.43.79-.48,2.07-.38,4.06-1.01,6.02-1.75.44-.17.88-.25,1.34-.12,2.92.82,5.82,1.73,8.64,2.85.57.23.93.24,1.37-.22,1.3-1.36,2.93-2.34,4.25-3.7,1.47-1.51,3.43-2.38,5.26-3.41,1.28-.72,2.58-1.39,3.73-2.31.28-.22.61-.5.57-.82-.04-.39-.52-.38-.84-.49-1.12-.39-2.33-.43-3.39-1.01-3.25-1.77-6.5-3.53-10.05-4.67-1.96-.62-3.81-1.6-5.92-1.67Zm-10.62,29.27c-1.23.51-2.24,1.39-3.4,2.01-2.77,1.49-5.11,3.53-7.46,5.66,1.23-.58,2.38-.25,3.55.07.67.19,1.08-.23,1.47-.74,1.6-2.06,3.06-4.24,5.16-5.87.34-.26.63-.65.68-1.14.01-.03.03-.06.04-.09-.01.03-.03.06-.04.09Zm69.04,33.95c.49-.84.67-1.72,1.27-2.31,1.86-1.85,3.71-3.72,5.69-5.43,1.44-1.24,2.25-2.58,2.06-4.52-.18-1.83-1.43-2.47-2.97-2.27-.57.07-1.18.33-1.63.69-2.78,2.22-5.72,4.23-8.29,6.71-2.29,2.2-1.74,2.36.72,3.34,1.83.73,3.22,1.55,3.14,3.8Zm-31.19-47.66c.01-1.3-.04-2.69.88-3.72,1.08-1.22.89-2.57.73-3.95-.17-1.46-.18-2.91.02-4.37.19-1.4.57-2.78.56-4.52-.29.59-.42.9-.59,1.19-1.49,2.49-2.84,5.04-3.94,7.73-.22.54-.53,1.08-.31,1.71.73,2.04,1.19,4.21,2.65,5.94Zm-87.1,43.93c-.15-.37.37-1.15-.32-1.54-.93-.53-1.82-1.12-2.89-1.41-.96-.26-1.22.07-1.19.95.06,1.66.64,3.2,1.01,4.78.28,1.21,1.11,1.77,2.22,2.06.44.12.73-.06.73-.48.01-1.4.56-2.73.44-4.35Zm108.66,5.56c.02.19,0,.31.04.37,1.05,1.35,2.17,2.65,3.5,3.72,1.4,1.14,2.83,2.27,4.52,3,.65.28.96.07,1.07-.58.15-.89.29-1.78.47-2.67.19-.98.34-1.95.04-3.08-.32.55-.57.97-.81,1.38-.94,1.61-2.64,1.9-4.04.7-1.41-1.2-3.07-1.98-4.77-2.84Zm-88.4-1.47c-1.05-.24-2.02.33-3.07.2-.28-.03-.76-.18-.83.19-.09.45.42.56.74.74.29.16.55.02.8-.09.79-.34,1.57-.7,2.36-1.05Z"/>
      <path class="cls-9" d="m276.24,164.04c-.92,1.37-2.34,1.69-3.83,1.73-4.35.12-8.26,1.58-11.9,3.87-.78.49-1.29,1.28-1.84,1.99-.51.66-1.1.8-1.83.43-2.43-1.22-5.09-1.68-7.68-2.34-1.49-.38-3.04-.4-4.58-.37-.32,0-.6.1-.65.41-.15.83-.65.78-1.3.67-1.17-.2-2.35-.29-3.52-.44-2.34-.3-4.48.44-6.63,1.22-1.76.64-3.62.78-5.46.85-1.74.07-3.37.5-5,1.01-.35.11-.54.28-.6.63-.05.31-.12.62-.13.93-.05,1.59-.05,1.61,1.46,2.05,2.27.66,4.35,1.72,6.33,2.99,2.41,1.54,5.09,2.64,7.35,4.43,1.74,1.38,3.32,2.9,3.66,5.3.08.54.07.77-.51.84-1.83.21-3.61.71-5.47.8-4.11.19-8.2.58-12.29.97-3.08.29-5.53,1.65-7.97,3.36-1.45,1.02-3.07,1.8-4.69,2.55-2.7,1.24-4.6,3.23-5.91,5.85-.66,1.33-1.67,2.4-2.57,3.56-.19.24-.56.45-.35.79.21.34.55.12.85.02,4.93-1.61,9.87-3.19,14.91-4.46,1.76-.44,3.44-1.14,5.07-1.95,3.17-1.57,6.5-2.41,10.03-2.73,2.35-.21,4.68-.09,7.02-.16.69-.02,1.39.05,2.07-.16.06.07.12.14.17.21-1.02,1.01-1.97,2.11-3.08,3-1.85,1.48-3.03,3.35-3.69,5.59-.72,2.43-1.85,4.57-3.93,6.16-.91.69-1.94.78-2.79.49-4.3-1.48-8.9-1.34-13.22-2.53-2.46-.68-4.91-1.33-7.44-1.68-.63-.09-1.25-.16-1.87-.13-2.24.1-4.47-.15-6.71-.26-1.57-.08-2.85-1.11-4.12-1.91-2.27-1.43-4.4-3.08-6.58-4.64-.17-.12-.32-.31-.51-.36-1.4-.35-1.58-1.34-1.43-2.56.44-3.58,1.26-7.03,3.76-9.79,1.76-1.94,3.97-3.27,6.41-4.25,2.82-1.13,5.78-1.99,8.31-3.71,3.65-2.48,7.41-4.72,11.6-6.17.26-.09.55-.25.8-.2,1.24.24,1.55-.47,1.71-1.49.58-3.87,2.56-6.84,5.75-9.11,1.23-.87,2.61-1.66,3.37-3.09.18-.33.55-.42.91-.42,4.23-.05,8.47-.16,12.58,1.07,2.11.63,4.09,1.59,6.22,2.21,1.55.45,2.86.4,4.33-.44,3.48-2,7.31-3.16,11.25-3.81,2.68-.44,5.36.1,7.96.85.43.12.88.22,1.32.33,1.63.68,3.39,1.03,4.88,2.05Z"/>
      <path class="cls-9" d="m204.55,144.08c2.11.07,3.96,1.04,5.92,1.67,3.55,1.13,6.8,2.9,10.05,4.67,1.07.58,2.28.63,3.39,1.01.32.11.79.1.84.49.04.33-.3.6-.57.82-1.15.92-2.45,1.59-3.73,2.31-1.83,1.02-3.79,1.89-5.26,3.41-1.32,1.36-2.95,2.34-4.25,3.7-.44.46-.8.45-1.37.22-2.82-1.13-5.72-2.03-8.64-2.85-.45-.13-.9-.04-1.34.12-1.96.74-3.95,1.37-6.02,1.75-.29.05-.82,0-.79.48.02.37.43.54.77.64,1.27.39,2.54.78,3.81,1.13,1.36.37,2.61.98,3.78,1.74.69.45,1.17,1.13,1.55,1.82.7,1.25.04,2.57-1.48,2.95-1.84.46-3.74.58-5.62.42-2.09-.18-4.17-.38-6.27-.38-3.46,0-6.87-.55-10.29-.99-1.14-.15-2.3-.3-3.44-.25-2.41.11-4.35-.79-6.27-2.17-2.82-2.02-6.03-3.17-9.5-3.56-1.19-.13-2.43-.08-3.56-.62,1.62-.92,3.44-1.12,5.21-1.43,3-.52,6.01-.88,9.05-1.13,2.07-.17,4.15-.24,6.22-.56,1.59-.24,3.22-.14,4.79.3,1.88.53,3.86.6,5.71,1.29.47.17.79-.06.82-.71.28-5.54,2.82-9.71,7.68-12.45,1.49-.84,2.97-1.73,4.41-2.66,1.35-.87,2.82-1.2,4.39-1.19Z"/>
      <path class="cls-9" d="m278.94,196.26c-.21-1.18-.86-2.21-1.32-3.29-.88-2.05-1.78-4.11-3.19-5.88-.42-.52-.89-.96-1.49-1.3-1.54-.9-2.92-1.99-4.25-3.19-1.93-1.74-3.67-3.61-4.98-5.87-.48-.83-.22-1.58.8-1.9,1.12-.35,2.3-.33,3.43-.18,2,.26,3.97.69,5.96,1,2.54.39,5.07.49,7.48-.65,1.91-.9,3.94-1.11,6.02-1.1,0,0-.03.01-.03.01.02.15.07.22.19.07,3.57,1.91,6.13,4.89,8.51,8.05,1.24,1.65,1.79,3.6,2.18,5.59-1.2.6-2.42.48-3.67.15-3.11-.81-6.24-1.37-9.48-1.46-2.23-.06-4.46-.31-6.68.05-1.46.24-1.88,1.15-1.12,2.38.18.3.34.65.6.85,1.83,1.36,1.91,3.38,2.09,5.37.09.99.28,1.8,1.34,2.35,1.88.98,1.8,2.25,1.52,4.17-.24,1.61-.87,3.16-1.33,4.73-.06.21-.06.57-.43.45-1.87-.59-3.84-.09-5.72-.54-.67-.16-1.05-.5-1.09-1.29-.13-3.04,1.24-5.62,2.49-8.22.36-.74,1.14-.25,1.72-.36.13-.03.28,0,.42,0,.03.03.07.05.1.08-.03-.03-.05-.07-.08-.1Z"/>
      <path class="cls-9" d="m150.35,169.97c1.78-.28,3.52.16,5.27.32,3.38.31,6.39,1.95,9.65,2.69,1.89.43,3.82.83,5.79.44.17-.03.38-.12.46.08.1.25-.09.47-.22.67-1.58,2.47-3.21,4.91-5.61,6.68-1.03.76-1.43,1.81-1.4,3.01.07,3.72-.7,7.35-1.03,11.02-.07.8-.07,1.61-.02,2.41.07,1.09-.17,2.16-.23,3.23-.05.9-.34,1.77.65,2.49.47.34.09,1.09-.39,1.41-.81.54-1.66,1.04-2.54,1.47-.75.36-1.52.36-2.32-.02-1.06-.5-2.16-.91-3.4-.85,1.06-.59,2.27-.67,3.28-1.31.45-.28.85-.57,1.17-1,.49-.66,1.06-1.22,2.03-.9.64.21.46-.33.48-.63.14-2.08-.25-4.1-.66-6.12-.35-1.73-.31-3.49-.09-5.22.33-2.58.32-5.16.32-7.74,0-.46-.22-.7-.66-.8-.71-.17-1.43-.34-2.12-.58-1.38-.48-2.67-1.03-3.66-2.27-1.63-2.04-3.94-2.77-6.5-2.78-1.06,0-1.57.47-1.8,1.5-.27,1.25-.2,2.51-.2,3.76,0,1.75,0,3.49-.42,5.2-.3,1.2-1.09,2.19-1.5,3.34-.55,1.54-1.02,3.12-1.98,4.59-.25-.43-.49-.82-.77-1.29-.85,1.15-2.13,1.22-3.29,1.32-1.77.16-3.5.55-5.3.57-1.4.02-2.57-.44-3.55-1.26-1.02-.86-2.02-1.68-3.25-2.2,0,0,.02.02.02.02.61-.12,1.2-.29,1.79-.53,1.25-.51,2.57-.98,3.92-.9,2.82.16,5.54.85,8.06,2.18.4.21.74.31,1.16.31.55.41.58-.04.73-.4.75-1.85.76-3.82,1-5.76.43-3.32.88-6.64,1.34-9.96.04-.31.12-.63.27-.9,1.33-2.28,3.17-4.03,5.5-5.28Z"/>
      <path class="cls-9" d="m260.38,135.49c-.24.73-.51,1.4-1.24,1.83-.76.45-.71,1.21-.5,1.96.27.98.03,1.87-.79,2.43-1.86,1.29-2.37,3.3-2.62,5.27-.26,2.06-.61,3.97-2.03,5.55-.2.22-.29.55-.47.92-.92-2.58-2.81-4.28-4.86-5.88-.79-.61-1.48-1.41-2.04-2.23-1-1.47-2.16-2.74-3.68-3.65-.09-.05-.18-.12-.23-.21-1.04-1.83-2.96-2.35-4.68-3.18-.46-.22-.84-.5-1.09-.94-.2-.34-.19-.66.14-.94,3.1-2.66,6.1-5.46,9.83-7.25,1.62-.78,3.26-1.46,5.12-1.29,1.07.15,1.98.68,2.8,1.32,2.36,1.85,4.56,3.86,6.36,6.28Z"/>
      <path class="cls-9" d="m230.96,98.23c1.02,3.99-.45,7.54-1.96,11.07-.45,1.06-1.02,2.07-1.55,3.1-.22.43-.39.98-.75,1.25-1.69,1.26-1.3,3.15-1.66,4.85-.66,3.1.09,6.31-.82,9.36-.37,1.23-.92,2.41-1.43,3.6-.81,1.88-1.11,3.88-1.29,5.9-.03.32-.03.63-.38,1.01-.51-1.65-1-3.2-.82-4.89.2-1.87.93-3.58,1.65-5.28.89-2.11.55-4.27.52-6.42-.02-1.18-.36-2.36-.32-3.53.08-2.31-.94-2.91-2.73-3.29-2.35-.5-4.75-.71-7.17-.72-.53,0-.76.1-.89.71-.49,2.21-1.62,4.26-1.87,6.52-.17,1.52-1.01,2.68-1.78,3.84-1.34,2-1.9,4.24-2.4,6.53-.06.3.04.66-.41.72-.23-2.24.03-4.47.19-6.7.23-3.27.6-6.52,1.23-9.74.26-1.34.86-2.46,1.88-3.29,6.04-4.95,12.31-9.57,19.11-13.45.91-.52,1.9-.9,2.91-1.18.25-.07.52-.29.75.04Z"/>
      <path class="cls-9" d="m123.82,196.9c2.04.16,3.92.95,5.84,1.55.23.07.47.2.63.36,2.11,2.2,4.34,4.25,6.75,6.12.61.47,1.3,1.17,1.01,1.92-.3.75-1.27.38-1.92.34-5.56-.35-11.05-1.04-16.06-3.76-.38-.66-.32-1.38-.04-2,.84-1.84,1.65-3.73,3.77-4.52Z"/>
      <path class="cls-9" d="m270.47,148.74c-3.27-.4-6.56-.09-9.94-.25.7-1.3,1.7-2.28,2.81-3.08,1.63-1.17,1.79-1.41,1.32-3.38-.09-.37-.15-.75-.22-1.12.98.56,1.54,1.51,2.17,2.38.7.98,1.46,1.86,2.45,2.56.96.69,1.47,1.66,1.42,2.89Z"/>
      <path class="cls-7" d="m141.51,192.27c-.41,0-.76-.1-1.16-.31-2.51-1.34-5.23-2.02-8.06-2.18-1.35-.08-2.67.39-3.92.9-.58.24-1.18.41-1.79.53.1-.48.52-.65.89-.8,1.44-.61,2.88-1.24,4.37-1.74,1.07-.36,2.2-.38,3.25.17,1.97,1.03,3.9,2.17,5.96,3.03.18.07.31.26.46.4Z"/>
      <path class="cls-9" d="m157.58,212.95c-.07-.23-.2-.46-.21-.7-.12-1.79-1.39-2.44-2.84-2.9-.32-.1-.69-.08-1.05-.74,1.58.63,3.07.68,4.37,1.4.59.33.61.84.43,1.45-.11.39-.57.79-.1,1.24-.14.21-.36.24-.59.25Z"/>
      <path class="cls-9" d="m292,208.63c-.01-.1-.02-.21-.04-.31.09.09.12.2.04.31Z"/>
      <path class="cls-7" d="m287.55,174.01c-.13.14-.18.08-.19-.07.06.02.13.05.19.07Z"/>
      <path class="cls-9" d="m292.11,210.12s-.04-.07-.06-.1c0,0,.03-.03.05-.04.05.04.05.09,0,.14Z"/>
      <path class="cls-9" d="m292.1,210.76s-.04-.07-.05-.1c0,0,.03-.02.05-.03.04.05.04.09,0,.14Z"/>
      <path class="cls-9" d="m262.98,207.3c.08-2.25-1.3-3.07-3.14-3.8-2.47-.98-3.01-1.13-.72-3.34,2.57-2.48,5.51-4.49,8.29-6.71.45-.36,1.06-.61,1.63-.69,1.54-.2,2.79.45,2.97,2.27.19,1.94-.62,3.28-2.06,4.52-1.99,1.71-3.83,3.58-5.69,5.43-.6.59-.78,1.47-1.27,2.31Z"/>
      <path class="cls-9" d="m231.79,159.64c-1.46-1.73-1.92-3.9-2.65-5.94-.22-.62.08-1.16.31-1.71,1.1-2.68,2.45-5.24,3.94-7.73.17-.29.3-.6.59-1.19,0,1.74-.38,3.12-.56,4.52-.19,1.46-.18,2.91-.02,4.37.16,1.38.35,2.73-.73,3.95-.92,1.03-.87,2.43-.88,3.72Z"/>
      <path class="cls-9" d="m144.69,203.57c.13,1.61-.42,2.95-.44,4.35,0,.42-.29.6-.73.48-1.11-.29-1.94-.85-2.22-2.06-.37-1.59-.95-3.13-1.01-4.78-.03-.87.23-1.21,1.19-.95,1.07.29,1.97.88,2.89,1.41.69.4.17,1.17.32,1.54Z"/>
      <path class="cls-9" d="m253.35,209.13c1.7.87,3.36,1.64,4.77,2.84,1.41,1.2,3.1.91,4.04-.7.24-.41.48-.83.81-1.38.31,1.14.16,2.11-.04,3.08-.18.89-.32,1.78-.47,2.67-.11.65-.41.86-1.07.58-1.69-.73-3.12-1.86-4.52-3-1.32-1.07-2.45-2.37-3.5-3.72-.05-.06-.02-.18-.04-.37Z"/>
      <path class="cls-9" d="m193.93,173.35c-.05.48-.34.87-.68,1.14-2.1,1.63-3.56,3.81-5.16,5.87-.39.51-.8.93-1.47.74-1.17-.33-2.32-.66-3.55-.07,2.35-2.13,4.69-4.17,7.46-5.66,1.16-.62,2.17-1.5,3.4-2.01h0Z"/>
      <path class="cls-9" d="m164.95,207.66c-.79.35-1.57.7-2.36,1.05-.25.11-.51.25-.8.09-.32-.18-.83-.3-.74-.74.07-.37.55-.22.83-.19,1.05.12,2.02-.44,3.07-.2Z"/>
      <path class="cls-9" d="m193.93,173.35s.03-.06.04-.09c-.01.03-.03.06-.04.09,0,0,0,0,0,0Z"/>
      <path class="cls-7" d="m278.94,196.26s.05.07.08.1c-.03-.03-.07-.05-.1-.08,0,0,.03-.03.03-.03Z"/>
    </g>
    <g>
      <path class="cls-1" d="m203.59,175.74s.04.08.06.12v.03c.2,1.17.61,2.23,1.61,2.98.22.16.43.34.63.53,1.01.92,2.24,1.19,3.53,1.06,1.1-.11,2.18-.42,3.27-.67,1.27-.3,2.53-.66,3.85-.6.54.02,1.09.03,1.64.05.32.04.64.04.95,0,.39-.02.78-.03,1.17-.05l.03.02.03-.02c.32,0,.62-.08.92-.16.67-.17,1.01-.61,1.06-1.29.04-.64.1-1.27.09-1.91,0-.69-.27-1.19-.89-1.48-.69-.33-1.2-.85-1.65-1.44-.36-.48-.71-.97-1.06-1.45-.3-.41-.59-.82-1.01-1.11-.09-.12-.23-.18-.36-.26-.74-.47-1.57-.62-2.42-.72.01-.12-.07-.2-.14-.28-.82-.97-1.83-1.51-3.14-1.34-.56,0-1.07.13-1.51.48-.82.65-1.67,1.28-2.48,1.95-.77.63-1.55,1.25-2.15,2.06-.86.95-1.5,2.04-2.03,3.21-.03.07-.02.16-.02.23,0,.03,0,.06,0,.09Z"/>
      <path class="cls-6" d="m217.83,170.33c.42.3.71.71,1.01,1.11.35.49.7.97,1.06,1.45.45.6.96,1.12,1.65,1.44.62.29.89.79.89,1.48,0,.64-.05,1.27-.09,1.91-.04.68-.39,1.12-1.06,1.29-.3.08-.61.17-.92.16-.02,0-.04,0-.06,0-.39.02-.78.03-1.17.05-.32-.08-.64-.08-.95,0-.55-.02-1.09-.02-1.64-.05-1.33-.06-2.58.31-3.85.6-1.08.25-2.17.56-3.27.67-1.29.13-2.52-.14-3.53-1.06-.2-.18-.41-.36-.63-.53-1-.74-1.41-1.8-1.61-2.98.52.53,1.02,1.09,1.56,1.6.71.66,1.5,1.21,2.39,1.61.26.12.42.08.47-.22.11-.6.24-1.2.32-1.8.04-.32.08-.66-.08-1.05-.12.22-.19.36-.26.5-.51.96-1.47,1.13-2.26.39-.63-.6-1.43-.91-2.2-1.27,0-.08,0-.17.02-.23.53-1.16,1.17-2.25,2.03-3.21.24.22.47.45.79.57.44.18.87.39,1.32.55.22.08.33.19.37.42.06.34.16.67.26,1.12.24-.85.67-1.44,1.24-1.95.94-.83,1.86-1.68,2.74-2.58.61-.63.56-2.46-.59-2.63,1.31-.17,2.32.37,3.14,1.34.07.08.15.16.14.28-.1.52-.39.95-.6,1.42-.37.81-.59,1.66-.71,2.54-.08.63.22.97.85.96.61-.01,1.22.06,1.83.08.28,0,.59.29.79.07.18-.2.2-.55.28-.84.31-1.06.76-2.11.33-3.25Z"/>
      <path class="cls-12" d="m211.77,167.72c1.14.17,1.2,2,.59,2.63-.88.9-1.79,1.75-2.74,2.58-.58.5-1,1.1-1.24,1.95-.11-.45-.2-.78-.26-1.12-.04-.23-.15-.34-.37-.42-.45-.16-.87-.38-1.32-.55-.32-.12-.54-.35-.79-.57.6-.81,1.38-1.43,2.15-2.06.81-.67,1.65-1.3,2.48-1.95.45-.35.96-.49,1.51-.48Z"/>
      <path class="cls-12" d="m217.83,170.33c.43,1.14-.01,2.19-.33,3.25-.08.29-.1.64-.28.84-.2.22-.52-.06-.79-.07-.61-.02-1.22-.09-1.83-.08-.63.01-.93-.33-.85-.96.12-.88.34-1.72.71-2.54.21-.47.5-.9.6-1.42.85.1,1.68.25,2.42.72.12.08.26.14.36.26Z"/>
      <path class="cls-12" d="m203.58,175.66c.77.36,1.57.67,2.2,1.27.78.74,1.75.57,2.26-.39.07-.14.15-.28.26-.5.15.4.12.74.08,1.05-.08.6-.21,1.2-.32,1.8-.05.3-.21.33-.47.22-.89-.4-1.68-.96-2.39-1.61-.55-.51-1.04-1.06-1.56-1.6,0,0,0-.03,0-.03-.02-.04-.04-.08-.06-.12,0-.03,0-.06,0-.09Z"/>
      <path class="cls-12" d="m218.17,179.23c.32-.08.64-.08.95,0-.32.04-.64.04-.95,0Z"/>
      <path class="cls-7" d="m203.59,175.74s.04.08.06.12c-.02-.04-.04-.08-.06-.12Z"/>
      <path class="cls-12" d="m220.3,179.18s.04,0,.06,0c0,0-.03.02-.03.02l-.03-.02Z"/>
    </g>
    <g>
      <path class="cls-1" d="m250.04,201.08c-.59-.38-1.24-.56-1.93-.59-1.16-.04-2.33-.08-3.47.11-1.1.18-1.96.63-2.19,1.86-.1.52-.09,1.05-.13,1.57-.08,1.03-.33,2.04-.5,3.06-.16.81-.51,1.55-.88,2.28-.15.3-.27.62-.37.95-.19.6-.05,1.13.4,1.57.9.9,1.97,1.6,3.13,2.04,1.71.66,3.5,1.1,5.34,1.29.29.06.58.12.88.07.28.09.57.04.85,0,.09.05.18.03.27-.02.22,0,.42-.09.62-.18,1.32-.65,2.63-1.3,3.95-1.96.72-.36,1.46-.7,2.03-1.29.75-.77,1.22-1.68.83-2.77-.41-1.16-.9-2.3-1.46-3.41-.33-.65-.84-1.08-1.54-1.32-.89-.29-1.8-.42-2.72-.58-.72-.13-1.29-.41-1.59-1.17-.27-.7-.83-1.18-1.51-1.51Z"/>
      <path class="cls-6" d="m249.43,215.22c-1.84-.19-3.63-.63-5.34-1.29-1.16-.45-2.23-1.15-3.13-2.04-.45-.45-.59-.97-.4-1.57.1-.32.22-.65.37-.95.37-.73.72-1.47.88-2.28.04-.02.1-.03.12-.06.67-1.43,1.33-2.85,1.99-4.28.04-.08.04-.17.15-.21.36-.13.95.26,1.07.64.36,1.11.82,2.19,1.78,2.91.76.57,1.44,1.21,2.11,1.87.39.39.65.84.78,1.39.17.7.13,1.41.16,2.12.03.53.05,1.08.35,1.7,0-1.54.09-2.94.36-4.32.05-.27.13-.61-.14-.83-.89-.72-1.32-1.78-1.97-2.68-.33-.46-.59-.98-.73-1.54-.08-.29-.06-.49.31-.57.34-.07.69-.2,1-.36.76-.4,1.11-.69.95-1.42-.03-.12-.05-.24-.08-.36.68.32,1.24.81,1.51,1.51.3.76.87,1.04,1.59,1.17.91.17,1.83.29,2.72.58.71.23,1.22.67,1.54,1.32.56,1.1,1.05,2.24,1.46,3.41.39,1.09-.08,2-.83,2.77-.57.58-1.31.93-2.03,1.29-1.31.66-2.63,1.31-3.95,1.96-.19.1-.39.18-.62.18-.09,0-.18.01-.27.02-.28.05-.57.09-.85,0-.3.01-.58-.19-.88-.07Zm-1.2-.44c.2-.44.23-.86.14-1.24-.17-.71.03-1.35.23-1.99.06-.21.06-.42.04-.64-.09-.99-.53-1.66-1.53-1.96-.86-.26-1.33-1.08-2.06-1.55-.52-.34-1.31-.48-1.74-.24-.86.47-1.39,1.19-1.71,2.1-.07.21,0,.24.17.25.3.02.58.15.79.36,1,1,2.31,1.42,3.61,1.77.76.21,1.16.57,1.32,1.33.13.62.32,1.25.76,1.81Zm6.72-6.11c.77,0,.91-.13.96-.81.03-.45.08-.9.28-1.3.24-.48.23-.95.08-1.44-.13-.43-.29-.5-.59-.16-.48.54-1.11.87-1.69,1.28-.74.53-1.46,1.08-2.01,1.83-.14.19-.2.4-.12.61.09.25.34.18.53.17.91-.03,1.8-.54,2.57-.18Z"/>
      <path class="cls-12" d="m250.04,201.08c.03.12.05.24.08.36.16.74-.19,1.02-.95,1.42-.31.16-.66.29-1,.36-.37.08-.39.27-.31.57.15.56.4,1.08.73,1.54.64.9,1.08,1.95,1.97,2.68.27.22.19.56.14.83-.27,1.38-.36,2.78-.36,4.32-.31-.62-.33-1.17-.35-1.7-.04-.71,0-1.41-.16-2.12-.13-.55-.39-1-.78-1.39-.67-.66-1.35-1.3-2.11-1.87-.95-.72-1.42-1.8-1.78-2.91-.12-.37-.72-.76-1.07-.64-.11.04-.11.13-.15.21-.66,1.43-1.32,2.86-1.99,4.28-.01.03-.08.04-.12.06.18-1.02.42-2.02.5-3.06.04-.52.03-1.04.13-1.57.24-1.23,1.09-1.68,2.19-1.86,1.15-.19,2.32-.14,3.47-.11.68.02,1.34.21,1.93.59Z"/>
      <path class="cls-9" d="m249.43,215.22c.31-.13.59.08.88.07-.3.05-.59,0-.88-.07Z"/>
      <path class="cls-9" d="m251.17,215.29c.09,0,.18-.01.27-.02-.09.05-.18.07-.27.02Z"/>
      <path class="cls-12" d="m248.23,214.78c-.44-.56-.63-1.19-.76-1.81-.16-.76-.56-1.13-1.32-1.33-1.31-.35-2.61-.77-3.61-1.77-.21-.21-.48-.34-.79-.36-.18-.01-.24-.05-.17-.25.32-.91.86-1.63,1.71-2.1.43-.24,1.22-.1,1.74.24.73.47,1.2,1.29,2.06,1.55,1,.3,1.44.98,1.53,1.96.02.22.03.42-.04.64-.19.65-.39,1.29-.23,1.99.09.38.06.8-.14,1.24Z"/>
      <path class="cls-12" d="m254.96,208.67c-.77-.36-1.66.15-2.57.18-.19,0-.43.08-.53-.17-.08-.21-.02-.41.12-.61.55-.74,1.28-1.29,2.01-1.83.57-.41,1.2-.74,1.69-1.28.3-.34.46-.27.59.16.15.49.15.96-.08,1.44-.2.4-.25.85-.28,1.3-.04.68-.19.81-.96.81Z"/>
    </g>
    <g>
      <path class="cls-1" d="m149.55,202.98c-.19-.12-.4-.18-.62-.19-.38-.01-.75-.03-1.13.03-.36.06-.63.21-.71.6-.03.17-.03.34-.04.51-.03.34-.11.66-.16.99-.05.26-.17.5-.29.74-.05.1-.09.2-.12.31-.06.19-.02.37.13.51.29.29.64.52,1.01.66.55.21,1.14.36,1.73.42.09.02.19.04.29.02.09.03.18.01.28,0,.03.02.06.01.09,0,.07,0,.14-.03.2-.06.43-.21.85-.42,1.28-.64.23-.12.47-.23.66-.42.24-.25.4-.55.27-.9-.13-.38-.29-.75-.47-1.1-.11-.21-.27-.35-.5-.43-.29-.09-.59-.14-.88-.19-.23-.04-.42-.13-.51-.38-.09-.23-.27-.38-.49-.49Z"/>
      <path class="cls-6" d="m149.35,207.56c-.6-.06-1.18-.2-1.73-.42-.37-.14-.72-.37-1.01-.66-.15-.14-.19-.32-.13-.51.03-.1.07-.21.12-.31.12-.24.23-.48.29-.74.01,0,.03,0,.04-.02.22-.46.43-.93.65-1.39.01-.03.01-.06.05-.07.12-.04.31.08.35.21.12.36.27.71.58.95.25.19.47.39.68.61.13.13.21.27.25.45.06.23.04.46.05.69,0,.17.02.35.12.55,0-.5.03-.95.12-1.4.02-.09.04-.2-.04-.27-.29-.23-.43-.58-.64-.87-.11-.15-.19-.32-.24-.5-.02-.1-.02-.16.1-.18.11-.02.22-.06.32-.12.25-.13.36-.22.31-.46,0-.04-.02-.08-.02-.12.22.11.4.26.49.49.1.25.28.34.51.38.3.05.59.09.88.19.23.08.39.22.5.43.18.36.34.73.47,1.1.13.35-.03.65-.27.9-.19.19-.42.3-.66.42-.43.21-.85.42-1.28.64-.06.03-.13.06-.2.06-.03,0-.06,0-.09,0-.09.02-.18.03-.28,0-.1,0-.19-.06-.29-.02Zm-.39-.14c.06-.14.07-.28.04-.4-.05-.23.01-.44.07-.65.02-.07.02-.13.01-.21-.03-.32-.17-.54-.5-.64-.28-.08-.43-.35-.67-.5-.17-.11-.42-.15-.56-.08-.28.15-.45.39-.56.68-.02.07,0,.08.06.08.1,0,.19.05.26.12.33.33.75.46,1.17.58.24.07.38.18.43.43.04.2.1.4.25.59Zm2.18-1.98c.25,0,.3-.04.31-.26,0-.15.02-.29.09-.42.08-.15.07-.31.03-.47-.04-.14-.09-.16-.19-.05-.16.18-.36.28-.55.42-.24.17-.47.35-.65.59-.05.06-.07.13-.04.2.03.08.11.06.17.06.3-.01.58-.17.83-.06Z"/>
      <path class="cls-12" d="m149.55,202.98s.02.08.02.12c.05.24-.06.33-.31.46-.1.05-.21.09-.32.12-.12.02-.13.09-.1.18.05.18.13.35.24.5.21.29.35.63.64.87.09.07.06.18.04.27-.09.45-.12.9-.12,1.4-.1-.2-.11-.38-.12-.55-.01-.23,0-.46-.05-.69-.04-.18-.13-.32-.25-.45-.22-.22-.44-.42-.68-.61-.31-.23-.46-.58-.58-.95-.04-.12-.23-.25-.35-.21-.04.01-.04.04-.05.07-.21.46-.43.93-.65,1.39,0,.01-.03.01-.04.02.06-.33.14-.66.16-.99.01-.17.01-.34.04-.51.08-.4.35-.55.71-.6.37-.06.75-.05,1.13-.03.22,0,.43.07.62.19Z"/>
      <path class="cls-9" d="m149.35,207.56c.1-.04.19.02.29.02-.1.02-.19,0-.29-.02Z"/>
      <path class="cls-9" d="m149.92,207.58s.06,0,.09,0c-.03.02-.06.02-.09,0Z"/>
      <path class="cls-12" d="m148.97,207.42c-.14-.18-.2-.39-.25-.59-.05-.25-.18-.37-.43-.43-.42-.12-.85-.25-1.17-.58-.07-.07-.16-.11-.26-.12-.06,0-.08-.02-.06-.08.1-.29.28-.53.56-.68.14-.08.4-.03.56.08.24.15.39.42.67.5.33.1.47.32.5.64,0,.07,0,.14-.01.21-.06.21-.13.42-.07.65.03.12.02.26-.04.4Z"/>
      <path class="cls-12" d="m151.15,205.44c-.25-.12-.54.05-.83.06-.06,0-.14.03-.17-.06-.03-.07,0-.13.04-.2.18-.24.41-.42.65-.59.19-.13.39-.24.55-.42.1-.11.15-.09.19.05.05.16.05.31-.03.47-.06.13-.08.28-.09.42-.01.22-.06.26-.31.26Z"/>
    </g>
  </g>
</svg>