<?xml version="1.0" encoding="UTF-8"?>
<svg id="Layer_1" data-name="Layer 1" xmlns="http://www.w3.org/2000/svg" width="300" height="225" viewBox="0 0 300 225">
  <defs>
    <style>
      .cls-1 {
        fill: #fff;
      }

      .cls-2 {
        fill: #23140a;
      }

      .cls-3 {
        fill: #4f2c14;
      }

      .cls-4 {
        isolation: isolate;
        opacity: .35;
      }

      .cls-5 {
        fill: #77bde0;
      }

      .cls-6 {
        fill: #232323;
      }

      .cls-7 {
        fill: #d5002f;
      }

      .cls-8 {
        fill: #444;
      }

      .cls-9 {
        fill: #3f94c9;
      }

      .cls-10 {
        fill: #aaa;
      }

      .cls-11 {
        clip-path: url(#clippath);
      }

      .cls-12 {
        fill: none;
      }

      .cls-13 {
        opacity: .21;
      }

      .cls-14 {
        fill: #666565;
      }

      .cls-15 {
        fill: #918e8e;
      }

      .cls-16 {
        fill: #54381a;
      }

      .cls-17 {
        fill: #7f7f7f;
      }

      .cls-18 {
        fill: #1e1e1e;
      }

      .cls-19 {
        fill: #1e1212;
      }
    </style>
    <clipPath id="clippath">
      <polygon class="cls-12" points="160.41 2.09 274.08 2.09 274.08 133.82 243.96 144.85 220.25 166.7 160.41 166.7 160.41 2.09"/>
    </clipPath>
  </defs>
  <g>
    <path class="cls-1" d="m144.75,94.71h-35.97c8.3-15.92,4.2-31.5-.83-47.42,1.56,0,2.49,0,3.42,0,11.21,0,22.43.06,33.64-.06,2.08-.02,2.74.76,3.28,2.59,3.96,13.3,3.05,26.07-3.42,38.48-.87,1.66-.12,4.17-.12,6.42Z"/>
    <g>
      <path class="cls-7" d="m150.64,109.65h0c-.34.22-.78.24-1.14.06l-.12-.06c-.41-.21-.66-.64-.64-1.1l1.35-28.57s0-.07,0-.11l-1.34-27.54c-.02-.51.29-.98.77-1.15l.73-.26c.25-.09.53-.09.78,0l.73.26c.48.17.8.64.77,1.15l-1.34,27.6v28.74c0,.4-.21.77-.54.99Z"/>
      <g>
        <g>
          <polygon class="cls-7" points="152.94 83.81 149.76 83.81 147.79 54.31 155.46 54.31 152.94 83.81"/>
          <polygon class="cls-7" points="152.94 83.81 149.76 83.81 147.79 113.3 155.46 113.3 152.94 83.81"/>
        </g>
        <g>
          <polygon class="cls-7" points="151.63 85.12 151.63 81.94 181.12 79.97 181.12 87.64 151.63 85.12"/>
          <polygon class="cls-7" points="151.63 85.12 151.63 81.94 122.13 79.97 122.13 87.64 151.63 85.12"/>
        </g>
      </g>
    </g>
    <g>
      <path class="cls-18" d="m146.48,43.52c-.73-2.91-1.34-5.39-1.97-7.87-.8-3.16-.32-3.84,2.92-3.85,9.98-.03,19.96-.01,29.95-.02,1.14,0,2.27,0,3.82,0,0-2.11.19-4.01-.1-5.83-.11-.65-1.33-1.44-2.16-1.61-8.74-1.76-17.5-3.42-26.26-5.09-4.01-.77-5.79-2.57-5.79-5.92,0-3.3,1.82-5.24,5.77-5.99,9.61-1.85,19.22-3.67,28.83-5.49,2.78-.53,3.43-.02,3.44,2.88.04,8.06.11,16.13-.03,24.19-.04,2.37.79,2.92,2.97,2.9,11.23-.08,22.46.03,33.69-.08,2.45-.02,3.66.77,4.21,3.19,1.89,8.41,4.35,16.72,5.79,25.21,1.64,9.64-.8,18.83-4.77,27.67-.67,1.5-.84,3.51-.51,5.13,1.73,8.44,4.28,16.75,5.44,25.26,1.28,9.37-1.42,18.27-6.24,26.39-.61,1.02-2.43,1.84-3.7,1.86-11.23.15-22.46.17-33.69.03-2.59-.03-3.28.8-3.18,3.29.19,4.79.12,9.6.02,14.4-.04,1.94.5,2.72,2.58,2.71,9.98-.08,19.96.03,29.94-.1,1.27-.02,2.76-.76,3.75-1.63,7.66-6.69,15.27-13.43,22.79-20.28,2.21-2.01,4.55-2.99,7.52-2.87,3.26.14,6.53.07,9.79.02,2.97-.04,5.25,1.1,6.51,3.83,1.26,2.73.6,5.21-1.27,7.48-7.86,9.56-15.74,19.1-23.53,28.72-1.11,1.37-2,3.04-2.57,4.72-1.85,5.45-3.5,10.96-5.23,16.45-3.73,11.83-12.84,18.71-25.22,19.01-3.07.07-6.14,0-9.21,0-38.2,0-76.4-.01-114.6,0-8.83,0-16.32-3.2-21.35-10.42-2.61-3.74-4.27-8.35-5.55-12.79-6.97-24.23-13.7-48.54-20.5-72.82-.21-.74-.42-1.48-.56-2.23-.77-4.23,1.67-7.61,5.95-7.69,8.06-.15,16.12-.09,24.19,0,2.81.03,4.53,1.78,5.48,4.36,2.12,5.76,4.44,11.46,6.32,17.3,1.04,3.21,2.72,4.62,6.05,4.11,1.02-.15,2.08-.02,3.36-.02v-37.63c-1.19,0-2.21,0-3.23,0-11.13,0-22.27.03-33.4-.05-1.22,0-2.44-.65-3.65-1,.52-1.24.79-2.68,1.61-3.69,2.58-3.2,5.36-6.24,8.33-9.63-2.84-3.05-5.7-5.98-8.37-9.06-.78-.9-1.06-2.24-1.58-3.38,1.2-.38,2.39-1.09,3.59-1.1,11.13-.09,22.27-.06,33.4-.06,1.04,0,2.08,0,3.58,0,0-2.07-.18-3.89.08-5.64.12-.82,1.07-1.53,1.65-2.28.63.79,1.78,1.56,1.8,2.36.16,5.95.09,11.9.09,17.85,0,17.38-.02,34.75.04,52.13,0,1.57.38,3.23.98,4.69,2.49,6.13,5.19,12.17,7.68,18.3.87,2.15,2.08,3.08,4.51,3.05,9.4-.12,18.8-.33,28.2-.21,2.28.03,3.02-.44,2.95-2.71-.15-4.89-.14-9.79-.03-14.69.05-2.15-.73-2.79-2.85-2.77-9.12.1-18.24.06-27.35.04-3.98,0-4.51-.85-2.56-4.36,5.12-9.2,6.21-18.78,3.17-28.9-1.49-4.95-2.69-10-3.89-15.04-.24-1.02-.19-2.36.28-3.25,6.08-11.4,6.71-23.2,2.98-35.43-1.23-4.03-2.22-8.15-3.27-12.23-.81-3.12-.3-3.79,2.98-3.79,12-.02,24,0,35.99,0,.93,0,1.87,0,3.23,0ZM59.2,185.16c1.5,5.39,2.88,10.36,4.26,15.34,3.32,11.96,11.27,18.04,23.75,18.05,19.29.03,38.58,0,57.86,0,21.5,0,42.99.03,64.49-.02,8.26-.02,15.46-3.08,19.21-10.48,3.6-7.09,5.69-14.95,8.57-22.83h-23.64c0,2.37,0,4.55,0,6.74-.02,6.04-3.8,10.1-9.38,10.11-5.37,0-9.07-3.97-9.23-9.97-.06-2.27,0-4.55,0-7.06-2.2,0-4.01-.05-5.81.01-2.46.08-5.66-.62-7.15.64-1.25,1.06-.54,4.47-.61,6.84-.17,5.7-3.89,9.52-9.34,9.53-5.28,0-9.08-4.04-9.13-9.72-.02-2.36,0-4.72,0-7.12h-13.73c0,2.55.05,4.92,0,7.29-.13,5.73-3.86,9.52-9.32,9.53-5.35,0-9.1-3.96-9.15-9.69-.02-2.36,0-4.72,0-7.18H59.2Zm-1.02-3.6c1.87-.12,3.29-.29,4.71-.29,29.08-.01,58.16,0,87.24,0,28.7,0,57.4.03,86.09-.05,1.26,0,2.94-.59,3.7-1.5,7.95-9.48,15.78-19.06,23.54-28.71.71-.88,1.18-2.66.76-3.56-.41-.89-2.06-1.61-3.22-1.68-3.35-.21-6.73-.24-10.07.03-1.49.12-3.19.78-4.31,1.75-8.03,7-15.88,14.19-23.92,21.17-1.17,1.02-3.04,1.73-4.59,1.74-37.34.1-74.67.06-112.01.1-3.36,0-5.67-1.28-6.98-4.44-2.14-5.13-4.67-10.12-6.48-15.36-1.35-3.92-3.22-5.56-7.59-5.17-4.96.44-6.26-.85-8.05-5.61-2.16-5.75-4.35-11.49-6.37-17.28-.72-2.05-1.84-2.85-4.01-2.82-6.91.1-13.82,0-20.73.04-3.97.02-4.79,1.18-3.73,4.93,3.26,11.53,6.49,23.08,9.74,34.61,2.08,7.37,4.17,14.73,6.25,22.08ZM148.14,35.57c5.48,17.58,10.27,34.77.95,52.18.91.22,1.26.38,1.62.38,23.33,0,46.65.02,69.98-.06.82,0,2.04-.74,2.41-1.48,4.18-8.25,6.23-17.06,4.78-26.2-1.18-7.45-3.52-14.72-5.11-22.12-.53-2.45-1.68-2.92-3.95-2.92-22.46.07-44.92.03-67.39.04-.84,0-1.69.09-3.29.18Zm.34,56.28c.3,1.38.47,2.29.7,3.19,1.22,4.74,2.44,9.47,3.67,14.2,1.89,7.28,2.26,14.61.37,21.92-1,3.85-2.4,7.6-3.67,11.58.89.05,1.73.15,2.57.15,8.64,0,17.27-.03,25.91-.03,13.91,0,27.83.03,41.74-.07,1.12,0,2.8-.62,3.25-1.47,4.16-7.8,6.39-16.14,4.83-24.95-1.28-7.25-3.44-14.34-5.03-21.54-.51-2.31-1.47-3.04-3.86-3.03-22.45.1-44.9.06-67.36.06-.92,0-1.84,0-3.13,0Zm-3.74,2.86c0-2.25-.75-4.75.12-6.42,6.47-12.41,7.38-25.18,3.42-38.48-.54-1.82-1.2-2.61-3.28-2.59-11.21.12-22.43.06-33.64.06-.93,0-1.87,0-3.42,0,5.03,15.92,9.13,31.49.83,47.42h35.97Zm-35.67,47.54c.46.33.62.54.77.54,11.23.05,22.46.1,33.68.05.65,0,1.57-.69,1.89-1.3,2.88-5.49,4.76-11.26,5.19-17.52.58-8.35-1.84-16.14-4.12-23.96-.19-.67-1.66-1.36-2.55-1.37-10.17-.1-20.35-.07-30.52-.08-1.61,0-3.22,0-5.26,0,1.1,4.28,1.94,8.19,3.12,12.01,3.32,10.81,3.27,21.36-2.21,31.63Zm32.34,24.41h39.6v-20.1c-12.85,0-25.49-.02-38.13.07-.49,0-1.39,1.05-1.4,1.62-.1,6.03-.06,12.05-.06,18.41Zm-51.83-86.32h-34.19c2.2,2.4,3.96,4.35,5.75,6.26,3.08,3.29,3.07,3.27.05,6.75-1.96,2.26-3.88,4.55-6.1,7.15h34.49v-20.16ZM181.04,5.9c-.93.08-1.69.07-2.42.21-8.28,1.57-16.56,3.17-24.84,4.75-1.53.29-3.48.54-3.11,2.51.18.93,1.9,2,3.09,2.25,6.46,1.38,12.98,2.53,19.47,3.75,2.57.48,5.15.95,7.81,1.44V5.9Zm-46.54,179.27c0,1.72-.02,3.14,0,4.56.02,1.34-.02,2.69.16,4.02.33,2.54,2.55,4.52,5.07,4.67,2.59.16,5.39-1.69,5.68-4.3.32-2.9.07-5.87.07-8.95h-10.99Zm64.39,0c0,3.01-.17,5.69.05,8.33.22,2.75,2.58,4.8,5.17,4.93,2.64.12,5.39-1.74,5.64-4.33.29-2.9.07-5.86.07-8.93h-10.92Zm-21.15-.13c-3.41,0-6.36-.08-9.31.06-.6.03-1.66.84-1.67,1.32-.1,2.57-.18,5.19.2,7.73.4,2.69,3.09,4.49,5.68,4.28,2.69-.21,4.92-2.27,5.08-4.99.15-2.66.03-5.33.03-8.4Z"/>
      <path class="cls-16" d="m59.2,185.16h71.64c0,2.46-.02,4.82,0,7.18.05,5.73,3.8,9.69,9.15,9.69,5.45,0,9.18-3.8,9.32-9.53.06-2.37,0-4.74,0-7.29h13.73c0,2.4-.02,4.76,0,7.12.05,5.69,3.85,9.73,9.13,9.72,5.45,0,9.17-3.83,9.34-9.53.07-2.37-.63-5.78.61-6.84,1.49-1.27,4.69-.56,7.15-.64,1.81-.06,3.62-.01,5.81-.01,0,2.52-.05,4.79,0,7.06.16,6,3.86,9.97,9.23,9.97,5.58,0,9.35-4.07,9.38-10.11,0-2.18,0-4.37,0-6.74h23.64c-2.88,7.88-4.97,15.74-8.57,22.83-3.76,7.41-10.96,10.46-19.21,10.48-21.5.05-42.99.02-64.49.02-19.29,0-38.58.02-57.86,0-12.47-.02-20.43-6.1-23.75-18.05-1.38-4.97-2.76-9.95-4.26-15.34Z"/>
      <path class="cls-16" d="m58.18,181.56c-2.08-7.35-4.17-14.71-6.25-22.08-3.25-11.54-6.48-23.08-9.74-34.61-1.06-3.75-.24-4.91,3.73-4.93,6.91-.04,13.82.06,20.73-.04,2.17-.03,3.29.77,4.01,2.82,2.03,5.79,4.22,11.53,6.37,17.28,1.78,4.75,3.09,6.05,8.05,5.61,4.36-.39,6.23,1.24,7.59,5.17,1.81,5.24,4.34,10.23,6.48,15.36,1.32,3.16,3.62,4.44,6.98,4.44,37.34-.03,74.67,0,112.01-.1,1.55,0,3.42-.72,4.59-1.74,8.04-6.98,15.89-14.17,23.92-21.17,1.12-.97,2.82-1.64,4.31-1.75,3.34-.27,6.72-.24,10.07-.03,1.15.07,2.8.79,3.22,1.68.42.9-.05,2.67-.76,3.56-7.75,9.64-15.59,19.22-23.54,28.71-.77.91-2.45,1.5-3.7,1.5-28.7.08-57.4.05-86.09.05-29.08,0-58.16,0-87.24,0-1.42,0-2.84.17-4.71.29Z"/>
      <path class="cls-1" d="m148.14,35.57c1.6-.09,2.44-.18,3.29-.18,22.46,0,44.92.03,67.39-.04,2.26,0,3.42.46,3.95,2.92,1.59,7.4,3.93,14.66,5.11,22.12,1.45,9.14-.6,17.96-4.78,26.2-.37.73-1.58,1.47-2.41,1.48-23.33.08-46.65.07-69.98.06-.35,0-.71-.16-1.62-.38,9.33-17.42,4.53-34.6-.95-52.18Z"/>
      <g>
        <path class="cls-1" d="m148.48,91.85c1.29,0,2.21,0,3.13,0,22.45,0,44.9.04,67.36-.06,2.39-.01,3.35.72,3.86,3.03,1.59,7.2,3.75,14.29,5.03,21.54,1.55,8.81-.67,17.16-4.83,24.95-.45.85-2.13,1.46-3.25,1.47-13.91.1-27.82.06-41.74.07-8.64,0-17.27.03-25.91.03-.84,0-1.68-.1-2.57-.15,1.28-3.98,2.68-7.73,3.67-11.58,1.89-7.31,1.51-14.64-.37-21.92-1.23-4.73-2.46-9.47-3.67-14.2-.23-.9-.4-1.81-.7-3.19Z"/>
        <path class="cls-2" d="m152.13,143.39c-.59,0-1.16-.04-1.77-.09-.27-.02-.55-.04-.83-.06l-.64-.04.2-.61c.4-1.25.82-2.48,1.22-3.7.91-2.69,1.76-5.23,2.44-7.86,1.76-6.81,1.64-13.9-.37-21.67l-.61-2.34c-1.02-3.95-2.05-7.91-3.06-11.86-.15-.6-.28-1.2-.44-1.94-.08-.38-.17-.8-.27-1.27l-.13-.61h18.84c17.13.01,34.84.02,52.26-.06,2.67,0,3.79.88,4.35,3.42.63,2.84,1.35,5.72,2.06,8.5,1.08,4.26,2.2,8.67,2.97,13.07,1.44,8.15-.16,16.42-4.89,25.28-.59,1.1-2.55,1.73-3.69,1.74-10.5.07-21.18.07-31.5.07h-10.24c-4.07,0-8.15,0-12.22.01-4.56,0-9.12.01-13.68.02Zm-1.9-1.1c.07,0,.13.01.2.02.59.04,1.14.09,1.69.09,4.56,0,9.12,0,13.68-.02,4.08,0,8.15-.01,12.23-.01h10.24c10.32,0,21,0,31.5-.07,1.08,0,2.5-.62,2.81-1.21,4.62-8.65,6.18-16.71,4.78-24.63-.77-4.36-1.88-8.75-2.96-13-.71-2.79-1.44-5.67-2.07-8.53-.45-2.06-1.25-2.66-3.37-2.64-17.42.08-35.14.07-52.27.06h-17.6c.05.23.1.45.14.66.15.72.28,1.31.43,1.9,1.01,3.95,2.04,7.91,3.06,11.86l.61,2.34c2.06,7.94,2.18,15.19.37,22.17-.69,2.66-1.55,5.22-2.46,7.92-.34,1.02-.69,2.04-1.02,3.08Z"/>
      </g>
      <path class="cls-1" d="m89.59,80.33v20.16h-34.49c2.22-2.6,4.14-4.89,6.1-7.15,3.03-3.48,3.03-3.46-.05-6.75-1.8-1.92-3.56-3.87-5.75-6.26h34.19Z"/>
      <path class="cls-1" d="m109.08,142.25c5.48-10.27,5.53-20.82,2.21-31.63-1.17-3.82-2.02-7.73-3.12-12.01,2.04,0,3.65,0,5.26,0,10.17,0,20.35-.02,30.52.08.88,0,2.35.7,2.55,1.37,2.28,7.82,4.7,15.62,4.12,23.96-.43,6.26-2.31,12.03-5.19,17.52-.32.62-1.25,1.3-1.89,1.3-11.23.05-22.45,0-33.68-.05-.15,0-.3-.2-.77-.54Z"/>
      <path class="cls-1" d="m181.04,5.9v14.91c-2.66-.49-5.24-.95-7.81-1.44-6.5-1.22-13.01-2.37-19.47-3.75-1.19-.25-2.91-1.32-3.09-2.25-.37-1.97,1.57-2.22,3.11-2.51,8.28-1.58,16.56-3.18,24.84-4.75.73-.14,1.49-.13,2.42-.21Z"/>
      <path class="cls-3" d="m134.51,185.17h10.99c0,3.08.25,6.05-.07,8.95-.29,2.61-3.09,4.46-5.68,4.3-2.53-.16-4.74-2.13-5.07-4.67-.17-1.32-.13-2.68-.16-4.02-.02-1.42,0-2.84,0-4.56Z"/>
      <path class="cls-3" d="m198.89,185.16h10.92c0,3.07.22,6.03-.07,8.93-.25,2.59-3,4.45-5.64,4.33-2.59-.12-4.94-2.17-5.17-4.93-.22-2.65-.05-5.33-.05-8.33Z"/>
      <path class="cls-3" d="m177.74,185.04c0,3.08.12,5.75-.03,8.4-.16,2.72-2.39,4.78-5.08,4.99-2.59.21-5.28-1.59-5.68-4.28-.38-2.54-.3-5.15-.2-7.73.02-.48,1.07-1.3,1.67-1.32,2.95-.14,5.91-.06,9.31-.06Z"/>
    </g>
    <g>
      <g>
        <polygon class="cls-7" points="191.46 73.98 188.26 73.98 186.27 44.29 194 44.29 191.46 73.98"/>
        <polygon class="cls-7" points="191.46 73.98 188.26 73.98 186.27 103.67 194 103.67 191.46 73.98"/>
      </g>
      <g>
        <polygon class="cls-7" points="190.14 75.31 190.14 72.11 219.82 70.12 219.82 77.84 190.14 75.31"/>
        <polygon class="cls-7" points="190.14 75.31 190.14 72.11 160.45 70.12 160.45 77.84 190.14 75.31"/>
      </g>
    </g>
    <g>
      <g>
        <polygon class="cls-7" points="75.74 89.96 74.89 89.96 74.36 82.06 76.41 82.06 75.74 89.96"/>
        <polygon class="cls-7" points="75.74 89.96 74.89 89.96 74.36 97.86 76.41 97.86 75.74 89.96"/>
      </g>
      <g>
        <polygon class="cls-7" points="75.38 90.31 75.38 89.46 83.28 88.93 83.28 90.99 75.38 90.31"/>
        <polygon class="cls-7" points="75.38 90.31 75.38 89.46 67.49 88.93 67.49 90.99 75.38 90.31"/>
      </g>
    </g>
  </g>
  <g>
    <g class="cls-11">
      <g>
        <g class="cls-4">
          <ellipse class="cls-6" cx="212.41" cy="197.61" rx="39.19" ry="6.34"/>
        </g>
        <g>
          <g>
            <path class="cls-6" d="m214.8,159.44c.18,1.15,3.79,33.03,9.25,37.52s8.28,2.99,9.42,1.76c1.15-1.23,2.64-3.44-.09-5.99-2.2-2.03-3.7-11.01-1.5-25.01l-17.09-8.28Z"/>
            <g>
              <path class="cls-6" d="m237.25,195.29c.7.18,1.41.09,1.67-.35.26-.44-.18-1.23-.97-1.67-2.2-1.06-4.76-1.41-7.22-.97-.97.18-1.32,1.15-.88,2.03s1.23,1.32,1.85,1.15c1.67-.62,3.61-.7,5.55-.18Z"/>
              <path class="cls-6" d="m236.2,199.25c.62.35,1.32.44,1.76.09.35-.35.18-1.23-.44-1.85-1.85-1.67-4.14-2.64-6.69-2.91-.97-.09-1.59.7-1.41,1.67.18.97.79,1.59,1.41,1.59,1.76-.09,3.7.35,5.37,1.41Z"/>
              <path class="cls-6" d="m233.2,202.25c.35.62.97,1.06,1.5.88.53-.18.79-1.06.44-1.85-.88-2.29-2.47-4.32-4.67-5.64-.79-.53-1.76-.09-2.03.88-.26.88,0,1.76.53,2.03,1.76.7,3.26,2.03,4.23,3.7Z"/>
            </g>
          </g>
          <g>
            <path class="cls-6" d="m211.45,159.18c-.18,1.15-3.96,33.03-9.34,37.43-5.46,4.49-8.28,2.91-9.42,1.76-1.15-1.23-2.64-3.52.09-5.99,2.2-2.03,3.7-11.01,1.59-25.01l17.09-8.19Z"/>
            <g>
              <path class="cls-6" d="m189.78,195.29c-.7.18-1.41.09-1.67-.35s.18-1.23.97-1.67c2.2-1.06,4.76-1.41,7.22-.88.97.18,1.32,1.15.88,2.03s-1.23,1.32-1.85,1.06c-1.67-.62-3.61-.7-5.55-.18Z"/>
              <path class="cls-6" d="m190.84,199.25c-.62.35-1.32.44-1.76.09-.35-.35-.18-1.23.44-1.85,1.85-1.59,4.23-2.64,6.69-2.91.97-.09,1.59.79,1.41,1.67-.18.97-.79,1.59-1.41,1.59-1.76-.09-3.7.35-5.37,1.41Z"/>
              <path class="cls-6" d="m193.83,202.25c-.35.62-.97,1.06-1.5.88s-.7-1.06-.44-1.85c.88-2.29,2.55-4.23,4.67-5.64.79-.53,1.76-.09,2.03.88.26.88,0,1.76-.53,2.03-1.76.7-3.26,2.03-4.23,3.7Z"/>
            </g>
          </g>
        </g>
        <g>
          <path class="cls-8" d="m242.1,142.62c-1.15-11.01-5.73-24.4-14.44-29.24-3.7-2.11-8.02-3.61-14-4.58-1.41.26-2.73.53-3.96.79-.18.09-.44.09-.62.18-.35.09-.7.18-1.06.26-.26.09-.44.09-.7.18-.35.09-.7.18-1.06.35-.18.09-.35.09-.53.18-.53.18-.97.35-1.5.53-.18.09-.26.09-.44.18-.35.18-.7.26-1.06.44-.18.09-.35.18-.44.18-.35.18-.62.26-.97.44-.18.09-.26.09-.44.18-.44.18-.88.44-1.32.7-9.34,5.2-13.92,20.17-14.71,31.53-.09,1.67-.09,3.26-.09,4.76,0,3.88.26,7.05.7,8.98,0,.09.09.18.09.26,2.29,10.57,14,18.58,28.01,18.58,15.77,0,28.54-10.04,28.54-22.37v-.35c.26-3.35.26-7.57,0-12.15Z"/>
          <path class="cls-1" d="m234.7,111.79c-3.61-4.14-8.28-6.17-17.53-6.52h-5.28c-.62,0-1.15,0-1.67.09h-.18c-9.25.35-13.92,2.38-17.53,6.43-4.76,5.46-7.22,20.96-7.75,33.03.79-11.36,5.46-26.34,14.71-31.53,3.7-2.03,8.1-3.52,14-4.49,5.99.97,10.31,2.55,14,4.58,9.34,5.2,13.92,20.17,14.62,31.53-.26-12.15-2.64-27.66-7.4-33.12Z"/>
        </g>
        <g>
          <path class="cls-1" d="m213.47,68.9c-5.11,0-11.01-2.03-14.36-2.91-3.96-.97-5.81-1.06-8.72-1.06-8.81,0-11.54,4.58-12.24,6.52,5.81-17.79,24.13-20.35,35.06-20.26h.88c10.83,0,29.24,2.55,34.97,20.43-.7-1.85-3.44-6.52-12.24-6.52-2.91,0-4.76,0-8.72.97-3.35.88-9.34,2.82-14.36,2.82h-.26Z"/>
          <path class="cls-8" d="m248.97,71.63h0c-.7-1.94-3.44-6.52-12.24-6.52-2.91,0-4.76,0-8.72.97-3.35.88-9.34,2.82-14.36,2.82h-.18c-5.11,0-11.01-2.03-14.36-2.91-3.96-.97-5.81-1.06-8.72-1.06-8.81,0-11.54,4.58-12.24,6.52h0c-1.85,1.76-3.08,6.43-2.99,11.98.18,6.96,2.55,12.51,5.28,12.42h.18c6.34,12.77,23.69,18.67,32.77,18.67s26.6-5.81,33.03-18.58h.18c2.73.09,5.11-5.46,5.37-12.42.09-5.46-1.15-10.13-2.99-11.89Z"/>
          <path class="cls-17" d="m213.47,105.36c-4.58,0-14.36-4.32-14.36-13.65s10.83-10.04,14.44-10.04,14.44.79,14.36,10.13c0,9.34-9.86,13.56-14.44,13.56Z"/>
          <path class="cls-6" d="m213.74,84.04c2.03,0,4.93,2.11,5.28,4.49.35,2.47-5.46,2.38-5.46,2.38h-.18s-5.81.09-5.46-2.38c.35-2.47,3.35-4.49,5.28-4.49h.53Z"/>
          <g>
            <circle class="cls-6" cx="198.76" cy="76.91" r="1.76"/>
            <path class="cls-6" d="m230.03,77c0,.97-.79,1.76-1.76,1.76s-1.76-.79-1.76-1.76.79-1.76,1.76-1.76,1.76.79,1.76,1.76Z"/>
          </g>
          <path class="cls-6" d="m245.18,75.59c2.2.09,4.05,4.32,4.76,10.31.09-.79.18-1.5.18-2.38.18-5.46-1.15-9.95-2.99-10.04-.79,0-1.5.79-2.03,2.03,0,.09.09.09.09.09Z"/>
          <path class="cls-6" d="m181.85,75.41c-2.2.09-4.05,4.32-4.76,10.31-.09-.79-.09-1.5-.18-2.38-.09-5.46,1.23-9.95,2.99-10.04.79,0,1.5.79,2.03,2.11,0,.09,0,0-.09,0Z"/>
          <path class="cls-17" d="m202.29,72.86c-.23,0-.45-.1-.61-.28-.33-.39-.74-.69-1.29-.92-.59-.25-1.09-.38-1.54-.38-.59-.07-.97.04-1.49.19l-.14.04c-.49.22-.91.44-1.24.77-.31.31-.81.31-1.12,0-.31-.31-.31-.81,0-1.12.57-.57,1.24-.88,1.83-1.14l.23-.07c.6-.17,1.22-.35,2.03-.25.56,0,1.27.16,2.06.5.78.33,1.39.78,1.88,1.37.28.34.23.83-.1,1.11-.15.12-.33.18-.51.18Z"/>
          <path class="cls-17" d="m231.88,72.86c-.23,0-.45-.1-.61-.28-.33-.39-.74-.69-1.29-.92-.59-.25-1.09-.38-1.54-.38h-.11c-.45-.07-.97.08-1.52.23-.49.22-.91.44-1.24.77-.31.31-.81.31-1.12,0-.31-.31-.31-.81,0-1.12.57-.57,1.24-.88,1.83-1.14.73-.22,1.45-.42,2.22-.33.65,0,1.34.17,2.11.5.78.33,1.39.78,1.88,1.37.28.34.23.83-.1,1.11-.15.12-.33.18-.5.18Z"/>
          <path class="cls-6" d="m213.47,101.41c-1.31,0-2.5-.36-3.26-.67-1.1-.5-1.95-1.08-2.71-1.83-.81-.81-1.46-1.77-1.83-2.71-.15-.37.03-.78.4-.93.37-.15.78.03.93.4.3.75.85,1.56,1.52,2.23s1.35,1.11,2.26,1.53c.61.24,1.61.55,2.7.55,1.01,0,1.87-.18,2.7-.55.78-.31,1.59-.87,2.26-1.53s1.11-1.35,1.53-2.26c.16-.36.59-.52.95-.36.36.16.52.59.36.95-.49,1.07-1.07,1.92-1.82,2.68-.81.81-1.77,1.46-2.71,1.83-.99.45-2.04.67-3.26.67Z"/>
        </g>
        <g>
          <path class="cls-6" d="m238.4,116.07c-1.59-1.94-4.32-2.47-6.43-.79-2.11,1.67-2.55,5.81-.35,8.46,6.25,7.75,15.41,11.54,25.28,10.48,3.44-.35,6.08-3.52,5.73-6.25-.35-2.73-2.64-4.23-5.11-3.96-7.49.7-14.36-2.11-19.11-7.93Z"/>
          <path class="cls-6" d="m265.79,130.34c.7-.09,1.5.09,1.67.53.18.53-.26,1.23-1.15,1.59-2.38.79-4.93.88-7.4.09-.88-.26-1.23-1.32-.7-2.11.53-.79,1.32-1.23,1.94-.88,1.67.79,3.61,1.15,5.64.79Z"/>
          <path class="cls-6" d="m265.18,126.2c.62-.35,1.41-.35,1.76.09s.09,1.32-.7,1.85c-2.03,1.41-4.49,2.2-7.13,2.2-.97,0-1.5-.97-1.23-1.85.26-.97.97-1.5,1.59-1.41,1.94.26,3.88,0,5.73-.88Z"/>
          <path class="cls-6" d="m265.35,124.26c.7-.18,1.32-.62,1.32-1.23,0-.53-.79-1.06-1.67-.97-2.47.18-4.93,1.15-6.87,2.91-.7.62-.53,1.67.26,2.2.79.53,1.76.53,2.11.09,1.23-1.41,2.91-2.47,4.84-2.99Z"/>
        </g>
        <g>
          <path class="cls-6" d="m199.4,119.42c0,3.16-1.15,6.23-4.31,6.23s-5.73-2.56-5.73-5.73,2.56-5.73,5.73-5.73,4.31,2.06,4.31,5.22Z"/>
          <path class="cls-6" d="m198.82,119.37c-4.81,4.45.81,8.69-1.85,10.63-2.66,1.94-16.94,1.66-16.94-1.03,0-1.37,2.15-3.09,3.38-5.06,1.19-1.92,3.7-6.73,7.72-8.15.81-.28,7.92,1.37,7.68,3.6Z"/>
          <ellipse class="cls-6" cx="188.25" cy="129.54" rx="8.79" ry="5.11"/>
        </g>
      </g>
    </g>
    <g>
      <g>
        <path class="cls-9" d="m184.97,139.34c.65-1.55-.07-3.34-1.63-4-.19-.08-.39-.14-.58-.18,1.18.8,1.66,2.34,1.09,3.71-.57,1.36-2.02,2.09-3.41,1.81.17.11.34.21.54.29,1.55.65,3.34-.07,4-1.63Z"/>
        <path class="cls-5" d="m183.85,138.87c.57-1.36.08-2.9-1.09-3.71-1.39-.28-2.84.45-3.41,1.81s-.08,2.9,1.09,3.7c1.39.28,2.84-.45,3.41-1.81Z"/>
      </g>
      <g>
        <path class="cls-9" d="m180.19,141.92c.65-1.55-.07-3.34-1.63-4-.19-.08-.39-.14-.58-.18,1.18.8,1.66,2.34,1.09,3.71-.57,1.36-2.02,2.09-3.41,1.81.17.11.34.21.54.29,1.55.65,3.34-.07,4-1.63Z"/>
        <path class="cls-5" d="m179.07,141.45c.57-1.36.08-2.9-1.09-3.71-1.39-.28-2.84.45-3.41,1.81s-.08,2.9,1.09,3.7c1.39.28,2.84-.45,3.41-1.81Z"/>
      </g>
      <g>
        <path class="cls-9" d="m177.14,146.47c.65-1.55-.07-3.34-1.63-4-.19-.08-.39-.14-.58-.18,1.18.8,1.66,2.34,1.09,3.71-.57,1.36-2.02,2.09-3.41,1.81.17.11.34.21.54.29,1.55.65,3.34-.07,4-1.63Z"/>
        <path class="cls-5" d="m176.02,146c.57-1.36.08-2.9-1.09-3.71-1.39-.28-2.84.45-3.41,1.81-.57,1.36-.08,2.9,1.09,3.7,1.39.28,2.84-.45,3.41-1.81Z"/>
      </g>
      <g>
        <path class="cls-9" d="m175.93,151.6c.65-1.55-.07-3.34-1.63-4-.19-.08-.39-.14-.58-.18,1.18.8,1.66,2.34,1.09,3.71-.57,1.36-2.02,2.09-3.41,1.81.17.11.34.21.54.29,1.55.65,3.34-.07,4-1.63Z"/>
        <path class="cls-5" d="m174.81,151.12c.57-1.36.08-2.9-1.09-3.71-1.39-.28-2.84.45-3.41,1.81s-.08,2.9,1.09,3.7c1.39.28,2.84-.45,3.41-1.81Z"/>
      </g>
      <g>
        <path class="cls-9" d="m176.02,156.87c.65-1.55-.07-3.34-1.63-4-.19-.08-.39-.14-.58-.18,1.18.8,1.66,2.34,1.09,3.71-.57,1.36-2.02,2.09-3.41,1.81.17.11.34.21.54.29,1.55.65,3.34-.07,4-1.63Z"/>
        <path class="cls-5" d="m174.9,156.4c.57-1.36.08-2.9-1.09-3.71-1.39-.28-2.84.45-3.41,1.81-.57,1.36-.08,2.9,1.09,3.7,1.39.28,2.84-.45,3.41-1.81Z"/>
      </g>
      <g>
        <path class="cls-9" d="m177.14,160.18c.65-1.55-.07-3.34-1.63-4-.19-.08-.39-.14-.58-.18,1.18.8,1.66,2.34,1.09,3.71-.57,1.36-2.02,2.09-3.41,1.81.17.11.34.21.54.29,1.55.65,3.34-.07,4-1.63Z"/>
        <path class="cls-5" d="m176.02,159.71c.57-1.36.08-2.9-1.09-3.71-1.39-.28-2.84.45-3.41,1.81-.57,1.36-.08,2.9,1.09,3.7,1.39.28,2.84-.45,3.41-1.81Z"/>
      </g>
      <g>
        <path class="cls-9" d="m177.35,165.31c.65-1.55-.07-3.34-1.63-4-.19-.08-.39-.14-.58-.18,1.18.8,1.66,2.34,1.09,3.71-.57,1.36-2.02,2.09-3.41,1.81.17.11.34.21.54.29,1.55.65,3.34-.07,4-1.63Z"/>
        <path class="cls-5" d="m176.23,164.84c.57-1.36.08-2.9-1.09-3.71-1.39-.28-2.84.45-3.41,1.81-.57,1.36-.08,2.9,1.09,3.7,1.39.28,2.84-.45,3.41-1.81Z"/>
      </g>
      <g>
        <path class="cls-9" d="m176.79,169.15c.65-1.55-.07-3.34-1.63-4-.19-.08-.39-.14-.58-.18,1.18.8,1.66,2.34,1.09,3.71-.57,1.36-2.02,2.09-3.41,1.81.17.11.34.21.54.29,1.55.65,3.34-.07,4-1.63Z"/>
        <path class="cls-5" d="m175.67,168.68c.57-1.36.08-2.9-1.09-3.71-1.39-.28-2.84.45-3.41,1.81s-.08,2.9,1.09,3.7c1.39.28,2.84-.45,3.41-1.81Z"/>
      </g>
      <g>
        <path class="cls-9" d="m177.46,173c.65-1.55-.07-3.34-1.63-4-.19-.08-.39-.14-.58-.18,1.18.8,1.66,2.34,1.09,3.71-.57,1.36-2.02,2.09-3.41,1.81.17.11.34.21.54.29,1.55.65,3.34-.07,4-1.63Z"/>
        <path class="cls-5" d="m176.34,172.53c.57-1.36.08-2.9-1.09-3.71-1.39-.28-2.84.45-3.41,1.81s-.08,2.9,1.09,3.7c1.39.28,2.84-.45,3.41-1.81Z"/>
      </g>
      <g>
        <path class="cls-9" d="m178.13,176.08c.65-1.55-.07-3.34-1.63-4-.19-.08-.39-.14-.58-.18,1.18.8,1.66,2.34,1.09,3.71-.57,1.36-2.02,2.09-3.41,1.81.17.11.34.21.54.29,1.55.65,3.34-.07,4-1.63Z"/>
        <path class="cls-5" d="m177,175.61c.57-1.36.08-2.9-1.09-3.71-1.39-.28-2.84.45-3.41,1.81s-.08,2.9,1.09,3.7c1.39.28,2.84-.45,3.41-1.81Z"/>
      </g>
      <g>
        <path class="cls-9" d="m181.18,180.13c.65-1.55-.07-3.34-1.63-4-.19-.08-.39-.14-.58-.18,1.18.8,1.66,2.34,1.09,3.71-.57,1.36-2.02,2.09-3.41,1.81.17.11.34.21.54.29,1.55.65,3.34-.07,4-1.63Z"/>
        <path class="cls-5" d="m180.06,179.66c.57-1.36.08-2.9-1.09-3.71-1.39-.28-2.84.45-3.41,1.81-.57,1.36-.08,2.9,1.09,3.7,1.39.28,2.84-.45,3.41-1.81Z"/>
      </g>
      <g>
        <path class="cls-9" d="m183.91,181.29c.65-1.55-.07-3.34-1.63-4-.19-.08-.39-.14-.58-.18,1.18.8,1.66,2.34,1.09,3.71-.57,1.36-2.02,2.09-3.41,1.81.17.11.34.21.54.29,1.55.65,3.34-.07,4-1.63Z"/>
        <path class="cls-5" d="m182.79,180.82c.57-1.36.08-2.9-1.09-3.71-1.39-.28-2.84.45-3.41,1.81s-.08,2.9,1.09,3.7c1.39.28,2.84-.45,3.41-1.81Z"/>
      </g>
      <g>
        <path class="cls-9" d="m188.69,182.19c.65-1.55-.07-3.34-1.63-4-.19-.08-.39-.14-.58-.18,1.18.8,1.66,2.34,1.09,3.71-.57,1.36-2.02,2.09-3.41,1.81.17.11.34.21.54.29,1.55.65,3.34-.07,4-1.63Z"/>
        <path class="cls-5" d="m187.57,181.71c.57-1.36.08-2.9-1.09-3.71-1.39-.28-2.84.45-3.41,1.81s-.08,2.9,1.09,3.7c1.39.28,2.84-.45,3.41-1.81Z"/>
      </g>
      <g>
        <path class="cls-9" d="m192.18,181.95c.65-1.55-.07-3.34-1.63-4-.19-.08-.39-.14-.58-.18,1.18.8,1.66,2.34,1.09,3.71-.57,1.36-2.02,2.09-3.41,1.81.17.11.34.21.54.29,1.55.65,3.34-.07,4-1.63Z"/>
        <path class="cls-5" d="m191.06,181.48c.57-1.36.08-2.9-1.09-3.71-1.39-.28-2.84.45-3.41,1.81s-.08,2.9,1.09,3.7c1.39.28,2.84-.45,3.41-1.81Z"/>
      </g>
      <g>
        <path class="cls-9" d="m196.09,180.46c.65-1.55-.07-3.34-1.63-4-.19-.08-.39-.14-.58-.18,1.18.8,1.66,2.34,1.09,3.71-.57,1.36-2.02,2.09-3.41,1.81.17.11.34.21.54.29,1.55.65,3.34-.07,4-1.63Z"/>
        <path class="cls-5" d="m194.96,179.99c.57-1.36.08-2.9-1.09-3.71-1.39-.28-2.84.45-3.41,1.81s-.08,2.9,1.09,3.7c1.39.28,2.84-.45,3.41-1.81Z"/>
      </g>
      <g>
        <path class="cls-9" d="m199.85,178c.65-1.55-.07-3.34-1.63-4-.19-.08-.39-.14-.58-.18,1.18.8,1.66,2.34,1.09,3.71-.57,1.36-2.02,2.09-3.41,1.81.17.11.34.21.54.29,1.55.65,3.34-.07,4-1.63Z"/>
        <path class="cls-5" d="m198.72,177.53c.57-1.36.08-2.9-1.09-3.71-1.39-.28-2.84.45-3.41,1.81-.57,1.36-.08,2.9,1.09,3.7,1.39.28,2.84-.45,3.41-1.81Z"/>
      </g>
      <g>
        <path class="cls-9" d="m201.5,173.75c.65-1.55-.07-3.34-1.63-4-.19-.08-.39-.14-.58-.18,1.18.8,1.66,2.34,1.09,3.71-.57,1.36-2.02,2.09-3.41,1.81.17.11.34.21.54.29,1.55.65,3.34-.07,4-1.63Z"/>
        <path class="cls-5" d="m200.38,173.28c.57-1.36.08-2.9-1.09-3.71-1.39-.28-2.84.45-3.41,1.81-.57,1.36-.08,2.9,1.09,3.7,1.39.28,2.84-.45,3.41-1.81Z"/>
      </g>
      <g>
        <path class="cls-9" d="m201.78,168.92c.65-1.55-.07-3.34-1.63-4-.19-.08-.39-.14-.58-.18,1.18.8,1.66,2.34,1.09,3.71-.57,1.36-2.02,2.09-3.41,1.81.17.11.34.21.54.29,1.55.65,3.34-.07,4-1.63Z"/>
        <path class="cls-5" d="m200.66,168.45c.57-1.36.08-2.9-1.09-3.71-1.39-.28-2.84.45-3.41,1.81s-.08,2.9,1.09,3.7c1.39.28,2.84-.45,3.41-1.81Z"/>
      </g>
      <g>
        <path class="cls-9" d="m201.5,163.24c.65-1.55-.07-3.34-1.63-4-.19-.08-.39-.14-.58-.18,1.18.8,1.66,2.34,1.09,3.71-.57,1.36-2.02,2.09-3.41,1.81.17.11.34.21.54.29,1.55.65,3.34-.07,4-1.63Z"/>
        <path class="cls-5" d="m200.38,162.76c.57-1.36.08-2.9-1.09-3.71-1.39-.28-2.84.45-3.41,1.81-.57,1.36-.08,2.9,1.09,3.7,1.39.28,2.84-.45,3.41-1.81Z"/>
      </g>
      <g>
        <path class="cls-9" d="m199.78,159.27c.65-1.55-.07-3.34-1.63-4-.19-.08-.39-.14-.58-.18,1.18.8,1.66,2.34,1.09,3.71-.57,1.36-2.02,2.09-3.41,1.81.17.11.34.21.54.29,1.55.65,3.34-.07,4-1.63Z"/>
        <path class="cls-5" d="m198.66,158.79c.57-1.36.08-2.9-1.09-3.71-1.39-.28-2.84.45-3.41,1.81-.57,1.36-.08,2.9,1.09,3.7,1.39.28,2.84-.45,3.41-1.81Z"/>
      </g>
      <g>
        <path class="cls-9" d="m199.78,153.81c.65-1.55-.07-3.34-1.63-4-.19-.08-.39-.14-.58-.18,1.18.8,1.66,2.34,1.09,3.71-.57,1.36-2.02,2.09-3.41,1.81.17.11.34.21.54.29,1.55.65,3.34-.07,4-1.63Z"/>
        <path class="cls-5" d="m198.66,153.34c.57-1.36.08-2.9-1.09-3.71-1.39-.28-2.84.45-3.41,1.81s-.08,2.9,1.09,3.7c1.39.28,2.84-.45,3.41-1.81Z"/>
      </g>
      <g>
        <path class="cls-9" d="m198.45,149.05c.65-1.55-.07-3.34-1.63-4-.19-.08-.39-.14-.58-.18,1.18.8,1.66,2.34,1.09,3.71-.57,1.36-2.02,2.09-3.41,1.81.17.11.34.21.54.29,1.55.65,3.34-.07,4-1.63Z"/>
        <path class="cls-5" d="m197.33,148.58c.57-1.36.08-2.9-1.09-3.71-1.39-.28-2.84.45-3.41,1.81s-.08,2.9,1.09,3.7c1.39.28,2.84-.45,3.41-1.81Z"/>
      </g>
      <g>
        <path class="cls-9" d="m196.09,144.5c.65-1.55-.07-3.34-1.63-4-.19-.08-.39-.14-.58-.18,1.18.8,1.66,2.34,1.09,3.71-.57,1.36-2.02,2.09-3.41,1.81.17.11.34.21.54.29,1.55.65,3.34-.07,4-1.63Z"/>
        <path class="cls-5" d="m194.96,144.03c.57-1.36.08-2.9-1.09-3.71-1.39-.28-2.84.45-3.41,1.81s-.08,2.9,1.09,3.7c1.39.28,2.84-.45,3.41-1.81Z"/>
      </g>
      <g>
        <path class="cls-9" d="m193.03,141.68c.65-1.55-.07-3.34-1.63-4-.19-.08-.39-.14-.58-.18,1.18.8,1.66,2.34,1.09,3.71-.57,1.36-2.02,2.09-3.41,1.81.17.11.34.21.54.29,1.55.65,3.34-.07,4-1.63Z"/>
        <path class="cls-5" d="m191.91,141.21c.57-1.36.08-2.9-1.09-3.71-1.39-.28-2.84.45-3.41,1.81s-.08,2.9,1.09,3.7c1.39.28,2.84-.45,3.41-1.81Z"/>
      </g>
      <g>
        <path class="cls-9" d="m189.35,139.37c.65-1.55-.07-3.34-1.63-4-.19-.08-.39-.14-.58-.18,1.18.8,1.66,2.34,1.09,3.71-.57,1.36-2.02,2.09-3.41,1.81.17.11.34.21.54.29,1.55.65,3.34-.07,4-1.63Z"/>
        <path class="cls-5" d="m188.23,138.9c.57-1.36.08-2.9-1.09-3.71-1.39-.28-2.84.45-3.41,1.81-.57,1.36-.08,2.9,1.09,3.7,1.39.28,2.84-.45,3.41-1.81Z"/>
      </g>
    </g>
    <g>
      <path class="cls-6" d="m186.49,142.45c-.24,1.49-1.03,2.95-2.16,3.1-1.13.15-2.38-1.39-2.51-3.26-.39-5.24,1.04-7.29,4-11.86,1.18-1.64,3.42-1.75,4.67-.03,1.44,1.54,1.57,3.42.78,4.51-2.71,2.71-4.46,3.25-4.79,7.54Z"/>
      <path class="cls-6" d="m194.1,145.37c.19,1.58-.17,3.03-1.26,3.54-1.09.5-2.72-.67-3.22-2.52-1.65-5.02-1.8-10.64.03-15.76.67-1.95,2.75-2.59,4.57-1.37,1.82,1.22,2.55,2.93,1.87,4.11-2.03,3.54-2.69,7.8-2,12.01Z"/>
      <path class="cls-6" d="m178.32,142.32c-.61,1.47-1.77,2.56-2.88,2.33-1.11-.22-1.99-1.93-1.56-3.79,1.11-5.19,3.88-9.96,8.11-13.56,1.54-1.26,3.76-.62,4.63,1.28.87,1.9.62,3.76-.52,4.47-3.43,2.13-6.34,5.21-7.78,9.27Z"/>
    </g>
  </g>
  <g>
    <g>
      <path class="cls-14" d="m240.04,50.79c-1.89-.38,2.42,3.95-6.73,3.95s-10.19-10.35-19.64-10.35c-.13,0-.26,0-.38,0-.13,0-.25,0-.38,0-9.46,0-10.49,10.35-19.64,10.35s-4.84-4.33-6.73-3.95c-5.97,1.21-.49,14.7,10.57,13.97,9.75-.64,5.44-5.08,15.81-5.08h0c.13,0,.26,0,.38,0,.13,0,.26,0,.38,0h0c10.37-.01,6.06,4.42,15.81,5.07,11.06.73,16.54-12.76,10.57-13.97Z"/>
      <path class="cls-15" d="m240.04,48.51c-1.89-.38,2.42,3.95-6.73,3.95s-10.19-10.35-19.64-10.35c-.13,0-.26,0-.38,0-.13,0-.25,0-.38,0-9.46,0-10.49,10.35-19.64,10.35s-4.84-4.33-6.73-3.95c-5.97,1.21-2.34,15.67,8.72,14.94,9.75-.64,7.29-6.05,17.65-6.05h0c.13,0,.26,0,.38,0,.13,0,.26,0,.38,0h0c10.37-.01,7.91,5.39,17.65,6.04,11.06.73,14.69-13.74,8.72-14.94Z"/>
      <path class="cls-10" d="m231.32,60.6c-11.5,0-18.06-13.59-18.06-13.59,0,0-8.42,13.59-18.06,13.59s0-3.65,0-13.3c0-7.93,5.47-13.76,12.97-15.58,1.62-.39,3.33-2.54,5.1-2.54h0c1.37,0,2.7,2.11,3.97,2.42,8.06,1.94,14.09,9.45,14.09,15.71,0,7.25,11.5,13.3,0,13.3Z"/>
      <path class="cls-15" d="m218.09,31.96c1.49,4.21-.99,4.5-2.51,6.05-1.17,1.19-1.18,4.09-2.04,4.09-1.15,0-.77-2.04-1.98-3.96-.87-1.39-3.89-1.63-2.57-6.18,3.14-10.85,2.04-21.8,4.55-21.8s1.91,14.37,4.55,21.8Z"/>
    </g>
    <g class="cls-13">
      <path class="cls-19" d="m240.04,48.51c-1.89-.38,2.42,3.95-6.73,3.95-.13,0-.24,0-.37-.01-.9-1.59-1.62-3.33-1.62-5.15,0-6.04-5.63-13.24-13.27-15.47-2.56-7.41-2.02-21.41-4.44-21.65.84,3.42.4,7.43.06,15.31-.24,5.66.33,12.97-.38,16.63.37,1.57-.04,3.05-.03,4.9.03,3.09.45,7.26-.36,10.39-.25.98-1.48,1.33-1.14,2.31.36-.01.74-.02,1.14-.02h0c.13,0,.26,0,.38,0,.13,0,.26,0,.38,0h0c10.37-.01,6.06,4.42,15.81,5.07,5.72.38,9.95-3.05,11.87-6.62,2.38-4.02,2.08-8.96-1.3-9.64Z"/>
    </g>
  </g>
</svg>