<?xml version="1.0" encoding="UTF-8"?>
<svg id="Layer_1" data-name="Layer 1" xmlns="http://www.w3.org/2000/svg" width="300" height="225" viewBox="0 0 300 225">
  <defs>
    <style>
      .cls-1 {
        fill: #fff;
      }

      .cls-2 {
        fill: #3d2411;
      }

      .cls-3 {
        fill: #2d1706;
      }

      .cls-4 {
        fill: #4f2c14;
      }

      .cls-5 {
        isolation: isolate;
        opacity: .35;
      }

      .cls-6 {
        fill: #232323;
      }

      .cls-7 {
        opacity: .48;
      }

      .cls-8 {
        opacity: .34;
      }

      .cls-9 {
        fill: #444;
      }

      .cls-10 {
        fill: #54381a;
      }

      .cls-11 {
        fill: #0f0508;
      }

      .cls-12 {
        fill: #7f7f7f;
      }

      .cls-13 {
        fill: #332126;
      }

      .cls-14 {
        fill: #231f20;
      }

      .cls-15 {
        fill: #ffcf15;
      }
    </style>
  </defs>
  <g class="cls-5">
    <path class="cls-6" d="m98.96,191.16c-33.21,0-75.98,7.86-75.98,13.22s12.15,10.56,45.35,10.56c33.21,0,74.9-5.2,74.9-10.56s-11.07-13.22-44.28-13.22Z"/>
  </g>
  <g>
    <g>
      <polygon class="cls-13" points="116.46 207.75 34.53 207.75 48.65 196.79 130.58 196.79 116.46 207.75"/>
      <polygon class="cls-4" points="116.46 190.37 34.53 190.37 48.65 179.41 130.58 179.41 116.46 190.37"/>
      <polygon class="cls-2" points="34.53 190.37 116.46 190.37 116.46 209.93 34.53 207.75 34.53 190.37"/>
      <polygon class="cls-3" points="130.58 179.41 115.76 190.37 116.46 209.93 130.58 196.79 130.58 179.41"/>
    </g>
    <g class="cls-5">
      <ellipse class="cls-6" cx="209.55" cy="180.75" rx="42.44" ry="6.85"/>
    </g>
    <path class="cls-6" d="m240.29,132.19c-.17,1.39-4.76,40.57-11.44,46.06-6.67,5.49-10.18,3.64-11.53,2.18-1.42-1.53-3.21-4.28.11-7.38,2.67-2.49,4.55-13.53,1.88-30.76l20.98-10.11Z"/>
    <path class="cls-6" d="m214.81,129.75c-.18,1.39-4.76,40.57-11.44,46.06-6.68,5.49-10.18,3.64-11.54,2.18-1.42-1.53-3.21-4.28.11-7.38,2.67-2.49,4.55-13.53,1.88-30.76l20.98-10.11Z"/>
    <path class="cls-6" d="m174.72,98.54c2.27-2.06,5.67-2.28,7.98.16,2.3,2.43,2.04,7.48-1.11,10.39-8.96,8.27-20.77,11.24-32.57,8.2-4.15-1.07-6.77-5.39-5.9-8.62.87-3.25,3.98-4.67,6.96-3.93,8.93,2.3,17.87.05,24.64-6.2Z"/>
    <path class="cls-1" d="m201.47,74.33c-8.76,1.09-18.01,4.99-33.01,15.05,2.41-4,6.51-8.04,13.24-12.95h0c11.53-8.41,18.29-10.33,25.63-8.69,8.67,1.94,22.3,15.62,31.53,27.27-8.98-10.71-24.42-22.28-37.41-20.68Z"/>
    <path class="cls-9" d="m238.88,95.01c1.32,1.58,2.49,3.13,3.51,4.62-1.07-1.48-2.25-3.03-3.51-4.62Z"/>
    <path class="cls-9" d="m263.07,107c2.5-.03,4.92-1.18,5.31-2.99.39-1.8-1.78-4.08-4.94-4.57-8.55-1.33-17.48.09-25.41,4.25-2.95,1.55-3.24,5.22-.93,7.7,2.32,2.5,5.41,3.24,7.22,1.89,5.18-3.9,11.72-6.22,18.75-6.28Z"/>
    <path class="cls-1" d="m189.23,48.95c-5.62-11.6-17.19-12.34-35.82-.4-5.91,3.79-15.99.95-20.97,2.72-14.32,5.08-11.53,14.79-11.53,14.79l-.02.02c-3.87-17.48,7.02-37.3,26.92-46.84,22.6-10.83,48.24-4.31,57.28,14.55,9.04,18.87-1.94,42.94-24.53,53.77-1.97.94-3.96,1.75-5.96,2.43l-.02-.02c20.56-8.16,22.11-25.61,14.65-41.01Z"/>
    <path class="cls-9" d="m123.27,73c-1.08-2.25-1.86-4.57-2.38-6.93l.02-.02s-2.8-9.71,11.53-14.79c4.98-1.76,15.06,1.07,20.97-2.72,18.63-11.94,30.2-11.2,35.82.4,7.46,15.4,5.91,32.85-14.65,41.01v.02c-20.96,7.16-43.05.24-51.3-16.98Z"/>
    <path class="cls-12" d="m162.77,88.25c4.41-1.91,11.09-9.7,5.15-17.91-5.93-8.21-16.75-4.39-20.23-2.89-3.48,1.51-13.36,6.63-7.43,14.84,5.94,8.21,18.09,7.87,22.51,5.96Z"/>
    <path class="cls-6" d="m149.04,69.7c-1.92.83-3.43,3.89-2.22,6.17,1.21,2.28,6.71-.2,6.71-.2l.16-.07s5.61-2.32,3.73-4.32c-1.88-1.99-6.04-2.6-7.96-1.77l-.41.18Z"/>
    <path class="cls-6" d="m156.02,85.03c-1.04,0-2.08-.15-3.11-.45-1.16-.34-2.24-.84-3.22-1.5-.15-.1-.19-.31-.09-.47.1-.15.31-.19.47-.09.92.62,1.94,1.1,3.03,1.41,1.08.31,2.18.45,3.27.42,1.12-.04,2.17-.27,3.13-.68.95-.41,1.74-.97,2.36-1.68.6-.69,1.01-1.47,1.22-2.31.21-.85.22-1.75.03-2.67-.04-.18.08-.36.26-.4.18-.04.36.08.4.26.22,1.02.21,2.02-.03,2.97-.24.95-.7,1.82-1.37,2.59-.69.78-1.56,1.4-2.6,1.85-1.03.45-2.17.69-3.37.74-.12,0-.25,0-.37,0Z"/>
    <circle class="cls-6" cx="164.16" cy="56.55" r="1.86"/>
    <circle class="cls-6" cx="134.98" cy="65.26" r="1.86"/>
    <path class="cls-12" d="m169.46,54.5c-.13,0-.25-.06-.32-.18-.31-.52-.72-.96-1.2-1.33-.48-.36-1.02-.62-1.61-.78-.6-.16-1.22-.19-1.85-.11-.63.09-1.21.3-1.75.62-.18.11-.4.05-.51-.13-.11-.18-.05-.4.13-.51.62-.37,1.3-.61,2.02-.72.72-.1,1.44-.06,2.14.12.68.18,1.31.48,1.87.9.56.42,1.03.94,1.39,1.54.11.18.05.4-.13.51-.06.04-.13.05-.19.05Z"/>
    <path class="cls-12" d="m129.64,66.39c-.18,0-.34-.14-.37-.33-.09-.72-.03-1.45.17-2.15.2-.71.54-1.35.99-1.9.44-.54.97-.99,1.59-1.33.61-.34,1.28-.55,1.97-.64.2-.03.39.12.41.32.03.2-.12.39-.32.41-.6.07-1.17.26-1.7.55-.53.29-.99.68-1.37,1.15-.39.48-.68,1.03-.85,1.64-.17.6-.22,1.23-.15,1.85.02.2-.12.39-.32.41-.02,0-.03,0-.05,0Z"/>
    <path class="cls-9" d="m165.6,98.17c.25-2.73.93-5.25,2.25-7.76.19-.34.4-.69.61-1.04,2.42-1.62,4.67-3.06,6.81-4.38,5.09-3.45,9.39-5.72,13.26-7.04,4.76-2.02,8.9-3.13,12.94-3.63,12.99-1.6,28.43,9.97,37.41,20.68,1.26,1.59,2.44,3.14,3.51,4.62,2.77,3.82,4.83,7.16,5.77,9.41,1.01,2.43.32,5.64-1.77,9.3-3.34,5.84-10.27,12.83-19.73,19.73h0c-.88.65-1.77,1.27-2.64,1.88-.27.19-.54.36-.8.55-.61.41-1.21.82-1.82,1.2-.3.2-.6.39-.89.58-.59.38-1.17.73-1.75,1.09-.27.16-.54.34-.82.49-.71.43-1.4.83-2.1,1.22-.12.06-.25.14-.37.21-.82.46-1.62.88-2.42,1.29-.19.1-.38.19-.57.28-.6.3-1.19.58-1.77.85-.24.11-.49.22-.73.33-.53.24-1.05.46-1.56.67-.24.1-.47.19-.7.29-.56.22-1.11.43-1.66.61-.13.05-.26.1-.38.14h.01c-3.73,1.27-6.97,1.79-9.51,1.45-.03,0-.05-.01-.07-.01-.48-.07-.93-.16-1.36-.29-.17-.05-.31-.13-.46-.19-.27-.1-.55-.2-.79-.32-.39-.21-.75-.45-1.07-.72-7.82-6.67-28.04-38.32-26.83-51.49Z"/>
    <ellipse class="cls-9" cx="217.57" cy="125.83" rx="35.04" ry="27.6" transform="translate(-32.37 152.32) rotate(-36.09)"/>
    <g>
      <path class="cls-6" d="m202.74,82.99c.2-3.07,2.49-5.58,5.85-5.43,3.34.15,6.66,3.96,6.42,8.24-.7,12.17-7.12,22.52-17.72,28.53-3.73,2.12-8.62.83-10.23-2.1-1.63-2.94-.39-6.12,2.27-7.66,8.02-4.55,12.88-12.37,13.41-21.58Z"/>
      <path class="cls-6" d="m183.21,112.15c-.75.36-1.64.37-2.02-.11-.39-.48-.07-1.48.8-2.08,2.35-1.65,5.22-2.53,8.19-2.46,1.1.04,1.73,1.08,1.41,2.16-.32,1.09-1.14,1.76-1.87,1.62-2.12-.4-4.41-.14-6.5.87Z"/>
      <path class="cls-6" d="m185.2,116.52c-.62.55-1.47.81-1.97.45-.5-.36-.47-1.4.19-2.22,1.8-2.23,4.31-3.88,7.18-4.63,1.07-.28,1.96.56,1.95,1.68,0,1.13-.6,2-1.35,2.07-2.14.2-4.26,1.09-6,2.65Z"/>
      <path class="cls-6" d="m189.16,119.42c-.3.77-.94,1.39-1.55,1.3-.61-.09-1.06-1.03-.84-2.07.58-2.81,2.07-5.41,4.28-7.39.83-.73,2-.4,2.5.61.5,1.01.37,2.06-.26,2.46-1.81,1.15-3.3,2.92-4.14,5.09Z"/>
    </g>
    <path class="cls-6" d="m213.76,176.63c-.84.24-1.76.1-2.07-.47-.31-.56.19-1.54,1.19-2.01,2.72-1.3,5.84-1.72,8.91-1.12,1.14.23,1.6,1.42,1.08,2.48-.52,1.07-1.48,1.62-2.22,1.35-2.12-.79-4.54-.91-6.89-.23Z"/>
    <path class="cls-6" d="m215.07,181.5c-.74.46-1.66.58-2.12.12s-.25-1.53.59-2.27c2.25-2,5.13-3.27,8.25-3.55,1.16-.1,1.93.92,1.73,2.08-.21,1.17-.97,1.97-1.76,1.92-2.25-.17-4.6.38-6.68,1.69Z"/>
    <path class="cls-6" d="m218.67,185.19c-.45.75-1.22,1.28-1.83,1.08-.61-.2-.92-1.25-.51-2.29,1.1-2.8,3.09-5.24,5.73-6.91.99-.62,2.14-.07,2.49,1.06.35,1.14.03,2.2-.7,2.51-2.08.88-3.93,2.44-5.18,4.55Z"/>
    <path class="cls-6" d="m187.13,173.73c-.83.24-1.76.1-2.07-.47-.31-.57.19-1.54,1.19-2.02,2.72-1.29,5.84-1.71,8.91-1.12,1.14.22,1.6,1.42,1.08,2.48-.52,1.07-1.48,1.62-2.22,1.36-2.12-.79-4.54-.91-6.89-.23Z"/>
    <path class="cls-6" d="m188.43,178.6c-.74.46-1.66.58-2.11.12-.46-.45-.25-1.53.58-2.27,2.26-2,5.14-3.27,8.25-3.55,1.16-.1,1.93.92,1.72,2.08-.2,1.17-.97,1.97-1.76,1.92-2.25-.17-4.61.38-6.68,1.7Z"/>
    <path class="cls-6" d="m192.03,182.29c-.45.75-1.22,1.28-1.83,1.07-.61-.2-.92-1.25-.51-2.28,1.1-2.81,3.09-5.25,5.73-6.91.98-.62,2.14-.07,2.48,1.07.35,1.14.03,2.2-.69,2.51-2.09.88-3.93,2.44-5.18,4.55Z"/>
    <path class="cls-6" d="m138.55,111.56c-.89-.02-1.74-.43-1.88-1.07-.14-.65.64-1.44,1.76-1.6,3.03-.45,6.19.08,8.99,1.56,1.04.56,1.13,1.86.31,2.73-.83.88-1.93,1.13-2.57.65-1.82-1.39-4.13-2.23-6.62-2.26Z"/>
    <path class="cls-6" d="m139.56,116.7c-.79.39-1.74.41-2.15-.1-.41-.51-.09-1.57.84-2.23,2.49-1.78,5.54-2.75,8.71-2.69,1.18.02,1.85,1.13,1.52,2.29-.33,1.16-1.19,1.89-1.98,1.74-2.26-.41-4.69-.11-6.93.99Z"/>
    <ellipse class="cls-14" cx="134.98" cy="63.58" rx="10.75" ry="4.89" transform="translate(-14.15 59.04) rotate(-23.48)"/>
    <ellipse class="cls-14" cx="164.16" cy="54.87" rx="10.75" ry="4.89" transform="translate(-7.9 35.99) rotate(-12.22)"/>
    <path class="cls-14" d="m144.4,58.79l-.66-.75c5.63-4.95,10.19-1.31,10.24-1.27l-.63.77c-.16-.13-3.97-3.12-8.94,1.25Z"/>
    <path class="cls-14" d="m173.47,51.44c-.13,0-.26-.05-.36-.15-.19-.2-.19-.52.01-.71l9.55-9.18c.22-.19,5.04-4.49,9.06-3.55,1.7.39,2.99,1.65,3.83,3.72.1.26-.02.55-.28.65-.26.1-.55-.02-.65-.28-.71-1.76-1.76-2.81-3.12-3.12-3.52-.82-8.11,3.27-8.16,3.31l-9.53,9.17c-.1.09-.22.14-.35.14Z"/>
    <path class="cls-14" d="m125.12,68.36c-.06,0-.13-.01-.19-.04l-4.24-1.79c-.25-.11-.37-.4-.27-.66.11-.25.4-.37.66-.27l4.24,1.79c.25.11.37.4.27.66-.08.19-.27.31-.46.31Z"/>
    <g>
      <g>
        <path class="cls-10" d="m154.39,112.68c.12-.46.14-.95.01-1.48-.3-1.28-1.5-2.16-2.82-2.25l-58.08-1.25c-1.62-.11-3.16,1.01-3.34,2.62-.19,1.69,1.07,3.18,2.75,3.29l58.41,1.27c1.44.1,2.71-.85,3.07-2.2Z"/>
        <g>
          <path class="cls-11" d="m92.47,147.96h-16.08c-1.99,0-3.68-1.43-4.02-3.39l-5.45-31.67c-.15-.86.53-1.63,1.4-1.61l34.88,1.04c.46.01.79.45.69.89l-7.45,31.59c-.43,1.84-2.08,3.14-3.97,3.14Z"/>
          <g>
            <path class="cls-11" d="m70.23,117.96c-6.08-4.24-4.24-10.2,4.1-13.29,8.35-3.09,20.09-2.16,26.17,2.08,6.08,4.24,4.24,10.2-4.1,13.29-4.16,1.54-10.78,6.82-15.51,6.45-4.75-.37-7.61-6.41-10.66-8.53Zm3.2-1.18c4.8,3.34,14.06,4.08,20.64,1.64,6.58-2.44,8.04-7.14,3.24-10.49-4.8-3.34-14.06-4.08-20.64-1.64-6.58,2.44-8.03,7.14-3.24,10.49Z"/>
            <path class="cls-15" d="m74.54,105.74c-7.48,2.62-9.12,7.65-3.67,11.24,2.67,1.76,5.95,7.3,10.1,7.64,4.31.35,9.5-4.54,13.31-5.87,7.48-2.62,9.12-7.65,3.67-11.24-5.45-3.59-15.93-4.38-23.41-1.76Z"/>
            <g class="cls-7">
              <path class="cls-1" d="m78.24,110.22c-4.67,1.64-5.7,4.78-2.29,7.03,1.67,1.1,3.72,4.56,6.31,4.77s5.94-2.84,8.32-3.67c4.67-1.64,5.7-4.78,2.29-7.03-3.41-2.24-9.96-2.74-14.63-1.1Z"/>
            </g>
          </g>
        </g>
      </g>
      <g>
        <path class="cls-15" d="m84.29,154.73c0,11.73,7.22,21.23-2.58,21.23s-2.58-9.51-2.58-21.23,1.16-32.1,2.58-32.1,2.58,20.38,2.58,32.1Z"/>
        <g class="cls-8">
          <path class="cls-1" d="m83.1,154.73c0,10.47,5.26,18.95-1.4,18.95s-1.4-8.49-1.4-18.95.63-30.25,1.4-30.25,1.4,19.79,1.4,30.25Z"/>
        </g>
      </g>
    </g>
    <ellipse class="cls-15" cx="82.39" cy="184.34" rx="12.56" ry="3.41"/>
    <g class="cls-8">
      <ellipse class="cls-1" cx="83.12" cy="183.92" rx="9.19" ry="2.49"/>
    </g>
    <path class="cls-6" d="m140.83,109.69c-.8.38-1.75.38-2.15-.14-.4-.52-.06-1.58.87-2.21,2.52-1.74,5.59-2.65,8.76-2.55,1.18.04,1.84,1.17,1.48,2.32-.35,1.15-1.23,1.87-2.01,1.71-2.25-.45-4.69-.19-6.95.87Z"/>
  </g>
  <path class="cls-9" d="m185.05,54.7c3.07,6.63,7.67,11.03,10.27,9.83,2.6-1.21,2.21-7.56-.86-14.18-3.07-6.64-7.68-11.03-10.27-9.83-2.6,1.2-2.22,7.55.86,14.18Z"/>
  <path class="cls-6" d="m184.42,45.98c2.15-.98,5.85,2.14,9.32,7.43-.28-.74-.6-1.5-.96-2.28-2.44-5.19-5.8-8.78-7.5-8-.72.33-1.03,1.4-.95,2.91.03-.02.06-.05.09-.06Z"/>
</svg>