<?xml version="1.0" encoding="UTF-8"?>
<svg id="Layer_1" data-name="Layer 1" xmlns="http://www.w3.org/2000/svg" width="300" height="225" viewBox="0 0 300 225">
  <defs>
    <style>
      .cls-1 {
        fill: #84cd29;
      }

      .cls-2 {
        fill: #fff;
      }

      .cls-3 {
        fill: #23140a;
      }

      .cls-4 {
        fill: #00077f;
      }

      .cls-5, .cls-6 {
        isolation: isolate;
      }

      .cls-6 {
        opacity: .35;
      }

      .cls-7 {
        opacity: .29;
      }

      .cls-8 {
        fill: #232323;
      }

      .cls-9 {
        fill: #444;
      }

      .cls-10 {
        fill: none;
      }

      .cls-11 {
        fill: #3ed033;
      }

      .cls-12 {
        fill: #7f7f7f;
      }

      .cls-13 {
        fill: #3050c4;
      }

      .cls-14 {
        fill: #ededed;
      }
    </style>
  </defs>
  <g class="cls-6">
    <ellipse class="cls-8" cx="151.46" cy="209.36" rx="54.89" ry="8.86"/>
  </g>
  <g>
    <g class="cls-6">
      <ellipse class="cls-8" cx="151.21" cy="141.53" rx="35.56" ry="5.74"/>
    </g>
    <g>
      <g>
        <path class="cls-8" d="m150.07,104.93c-.13,1.02-3.46,29.92-8.37,33.98-4.92,4.06-7.5,2.7-8.51,1.62-1.05-1.12-2.38-3.15.07-5.44,1.97-1.84,3.34-9.98,1.35-22.68l15.46-7.48Z"/>
        <g>
          <path class="cls-8" d="m129.72,137.4c-.62.18-1.3.07-1.53-.34-.23-.42.14-1.14.88-1.49,2.01-.96,4.31-1.27,6.57-.84.84.16,1.18,1.04.8,1.83-.39.79-1.09,1.2-1.64,1-1.56-.57-3.34-.66-5.08-.15Z"/>
          <path class="cls-8" d="m130.69,140.99c-.54.34-1.23.43-1.56.1-.34-.34-.18-1.13.43-1.68,1.66-1.48,3.78-2.41,6.08-2.63.85-.07,1.43.68,1.27,1.54-.15.86-.71,1.45-1.3,1.41-1.66-.12-3.39.29-4.92,1.26Z"/>
          <path class="cls-8" d="m133.35,143.71c-.33.55-.89.94-1.35.8-.45-.15-.68-.92-.38-1.69.8-2.07,2.27-3.87,4.21-5.1.72-.46,1.58-.05,1.83.78.26.84.03,1.62-.51,1.85-1.53.65-2.89,1.81-3.81,3.36Z"/>
        </g>
      </g>
      <g>
        <path class="cls-8" d="m153.08,104.66c.13,1.02,3.57,29.91,8.5,33.95,4.93,4.04,7.51,2.67,8.51,1.59,1.04-1.13,2.36-3.16-.09-5.44-1.97-1.84-3.37-9.97-1.43-22.68l-15.48-7.43Z"/>
        <g>
          <path class="cls-8" d="m172.71,137.39c.62.18,1.3.07,1.52-.35.23-.42-.14-1.14-.88-1.49-2.01-.95-4.31-1.26-6.57-.82-.84.17-1.18,1.05-.79,1.83.39.79,1.1,1.19,1.64.99,1.56-.58,3.34-.68,5.08-.17Z"/>
          <path class="cls-8" d="m171.75,140.98c.54.34,1.23.43,1.56.09.34-.34.18-1.13-.43-1.67-1.67-1.47-3.79-2.4-6.09-2.6-.85-.07-1.43.68-1.27,1.54.16.86.72,1.45,1.3,1.41,1.66-.12,3.4.28,4.92,1.24Z"/>
          <path class="cls-8" d="m169.1,143.71c.33.55.9.94,1.35.79.45-.15.68-.93.38-1.69-.81-2.07-2.28-3.87-4.23-5.09-.73-.46-1.58-.05-1.83.79-.26.84-.02,1.62.52,1.85,1.53.65,2.89,1.79,3.82,3.35Z"/>
        </g>
      </g>
    </g>
    <path class="cls-9" d="m125.31,89.64c1.07-9.97,5.2-22.13,13.08-26.52,3.38-1.88,7.3-3.24,12.72-4.16,1.29.21,2.48.45,3.61.72.2.05.39.1.58.14.34.08.67.17.99.26.21.06.41.11.61.17.32.09.64.19.96.29.16.05.33.1.49.15.45.15.89.31,1.32.47.13.05.25.1.37.15.32.12.64.25.95.38.15.06.29.12.43.19.3.13.59.27.87.4.12.06.25.12.37.18.4.2.79.4,1.18.61,8.45,4.67,12.65,18.26,13.36,28.55.06,1.5.09,2.93.09,4.28,0,3.48-.22,6.37-.63,8.12-.02.08-.06.16-.08.24-2.1,9.57-12.66,16.86-25.41,16.88-14.27.03-25.85-9.06-25.87-20.31,0-.1,0-.21,0-.31-.22-2.9-.23-6.73,0-10.87Z"/>
    <path class="cls-2" d="m132.07,61.75c3.26-3.73,7.5-5.56,15.85-5.92.13,0,.27,0,.4-.01.42-.02.85-.03,1.29-.04.44,0,.88-.01,1.34-.02.05,0,.1,0,.15,0h.09s.06,0,.09,0c.48,0,.95,0,1.41.01.52,0,1.03.02,1.53.04.05,0,.1,0,.15,0,8.36.33,12.6,2.15,15.88,5.87,4.33,4.91,6.54,18.98,7,29.94-.72-10.28-4.92-23.88-13.36-28.55-3.38-1.87-7.32-3.22-12.73-4.11-5.41.92-9.34,2.28-12.72,4.16-8.43,4.7-12.58,18.31-13.25,28.6.41-10.96,2.57-25.03,6.88-29.96Z"/>
    <g>
      <path class="cls-8" d="m136.61,64.01c2.19-.59,4.49.42,5.18,2.8.69,2.37-1.18,5.59-4.23,6.44-8.66,2.4-17.41.37-24.12-5.61-2.36-2.1-2.62-5.82-.96-7.64,1.67-1.84,4.18-1.72,5.89-.23,5.08,4.52,11.7,6.06,18.25,4.24Z"/>
      <path class="cls-8" d="m108.89,60.11c-.46-.47-1.11-.71-1.53-.46-.41.25-.44,1.08.04,1.75,1.3,1.85,3.18,3.27,5.4,4,.83.27,1.57-.33,1.62-1.22.05-.89-.37-1.6-.96-1.7-1.67-.26-3.29-1.07-4.57-2.38Z"/>
      <path class="cls-8" d="m111.53,57.4c-.31-.57-.87-.99-1.34-.86-.47.13-.73.91-.45,1.7.74,2.13,2.15,4.02,4.08,5.35.72.49,1.6.11,1.89-.73.29-.84.09-1.64-.45-1.9-1.53-.72-2.87-1.94-3.74-3.56Z"/>
      <path class="cls-8" d="m112.93,56.01c-.46-.46-.7-1.12-.44-1.53.26-.41,1.08-.44,1.75.05,1.84,1.32,3.24,3.21,3.96,5.44.27.83-.35,1.56-1.23,1.6-.89.04-1.6-.38-1.69-.97-.25-1.67-1.05-3.3-2.35-4.6Z"/>
    </g>
    <g>
      <path class="cls-8" d="m166.31,64.01c-2.19-.59-4.49.42-5.18,2.8-.69,2.37,1.18,5.59,4.23,6.44,8.66,2.4,17.41.37,24.12-5.61,2.36-2.1,2.62-5.82.96-7.64-1.67-1.84-4.18-1.72-5.89-.23-5.08,4.52-11.7,6.06-18.25,4.24Z"/>
      <path class="cls-8" d="m194.03,60.11c.46-.47,1.11-.71,1.53-.46.41.25.44,1.08-.04,1.75-1.3,1.85-3.18,3.27-5.4,4-.83.27-1.57-.33-1.62-1.22-.05-.89.37-1.6.96-1.7,1.67-.26,3.29-1.07,4.57-2.38Z"/>
      <path class="cls-8" d="m191.39,57.4c.31-.57.87-.99,1.34-.86.47.13.73.91.45,1.7-.74,2.13-2.15,4.02-4.08,5.35-.72.49-1.6.11-1.89-.73-.29-.84-.09-1.64.45-1.9,1.53-.72,2.87-1.94,3.74-3.56Z"/>
      <path class="cls-8" d="m189.99,56.01c.46-.46.7-1.12.44-1.53-.26-.41-1.08-.44-1.76.05-1.84,1.32-3.24,3.21-3.96,5.44-.27.83.35,1.56,1.23,1.6.89.04,1.6-.38,1.69-.97.25-1.67,1.05-3.3,2.35-4.6Z"/>
    </g>
    <path class="cls-2" d="m151.26,22.85c4.61,0,9.99-1.83,13.04-2.6,3.57-.91,5.27-.94,7.9-.94,7.98-.01,10.44,4.17,11.11,5.87-5.26-16.16-21.91-18.4-31.74-18.38h-.81c-9.83.02-26.47,2.32-31.68,18.5.67-1.71,3.11-5.9,11.09-5.91,2.63,0,4.33.02,7.91.92,3.05.77,8.44,2.57,13.05,2.56h.13Z"/>
    <path class="cls-9" d="m119.11,25.3h-.03c.67-1.72,3.11-5.91,11.09-5.93,2.63,0,4.33.02,7.91.92,3.05.77,8.44,2.57,13.05,2.56h.13c4.61,0,9.99-1.83,13.04-2.6,3.57-.91,5.27-.94,7.9-.94,7.98-.01,10.44,4.17,11.11,5.87h-.03c1.69,1.63,2.82,5.88,2.68,10.84-.18,6.3-2.32,11.35-4.79,11.28-.05,0-.09-.02-.14-.02-5.72,11.55-21.43,16.93-29.69,16.95-8.25.01-24.1-5.31-29.9-16.84-.05,0-.1.02-.15.03-2.47.08-4.63-4.97-4.83-11.26-.16-4.97.95-9.22,2.64-10.84Z"/>
    <path class="cls-12" d="m151.29,55.88c4.17,0,13.01-3.89,13-12.37-.02-8.48-9.78-9.13-13.07-9.13-3.29,0-13.06.7-13.04,9.18.02,8.48,8.94,12.33,13.12,12.32Z"/>
    <path class="cls-8" d="m151.02,36.61c-1.81,0-4.49,1.9-4.8,4.11-.31,2.21,4.93,2.12,4.93,2.12h.15s5.24.07,4.92-2.14c-.32-2.2-3-4.09-4.82-4.09h-.39Z"/>
    <g>
      <circle class="cls-8" cx="164.58" cy="30.15" r="1.6"/>
      <path class="cls-8" d="m136.23,30.2c0,.89.72,1.6,1.6,1.6.88,0,1.6-.72,1.6-1.6,0-.89-.72-1.6-1.6-1.6-.89,0-1.6.72-1.6,1.61Z"/>
    </g>
    <path class="cls-8" d="m122.51,28.9c-2.03.08-3.68,3.92-4.3,9.33-.07-.68-.12-1.39-.14-2.12-.13-4.95,1.07-9.01,2.68-9.07.69-.03,1.33.68,1.86,1.88-.03,0-.06-.01-.1-.01Z"/>
    <path class="cls-8" d="m179.9,28.79c2.03.07,3.69,3.9,4.33,9.31.07-.68.12-1.39.13-2.12.11-4.95-1.1-9-2.71-9.06-.68-.02-1.33.69-1.85,1.88.03,0,.06-.01.09-.01Z"/>
    <path class="cls-12" d="m161.49,26.3c-.15,0-.31-.05-.43-.17-.26-.24-.27-.63-.04-.89.45-.49.99-.88,1.6-1.16.61-.28,1.26-.42,1.93-.44.64-.02,1.27.09,1.88.32.6.23,1.15.57,1.62,1,.26.24.27.63.04.89-.24.26-.63.27-.89.04-.35-.33-.76-.58-1.21-.75-.45-.17-.92-.25-1.4-.24-.5.01-.98.12-1.44.33-.46.21-.86.5-1.2.86-.12.14-.29.2-.46.2Z"/>
    <path class="cls-12" d="m134.68,26.3c-.15,0-.31-.06-.43-.17-.26-.24-.27-.63-.04-.89.45-.49.99-.88,1.6-1.16.61-.28,1.26-.43,1.93-.44.64-.02,1.27.09,1.88.32.6.23,1.15.57,1.62,1,.26.24.27.63.04.89-.24.26-.63.27-.89.04-.35-.33-.76-.58-1.21-.75-.45-.17-.92-.25-1.4-.24-.5.01-.98.12-1.44.33-.46.21-.86.5-1.2.86-.12.14-.29.2-.46.2Z"/>
    <path class="cls-8" d="m151.22,52.18h0c-1.02,0-2-.2-2.92-.6-.9-.39-1.71-.93-2.39-1.62-.69-.69-1.23-1.5-1.6-2.39-.12-.29.01-.63.31-.75.29-.12.63.01.75.31.32.76.78,1.44,1.36,2.03.58.58,1.26,1.04,2.03,1.37.78.33,1.62.5,2.48.5h0c.86,0,1.69-.17,2.48-.5.76-.32,1.44-.78,2.03-1.36.59-.58,1.05-1.26,1.37-2.02.12-.29.46-.43.75-.3.29.12.43.46.3.75-.38.9-.92,1.7-1.61,2.39-.69.69-1.49,1.23-2.39,1.6-.92.39-1.91.59-2.92.59Z"/>
  </g>
  <g>
    <g class="cls-6">
      <ellipse class="cls-8" cx="149.75" cy="142.62" rx="36.07" ry="5.82"/>
    </g>
    <g>
      <g>
        <path class="cls-8" d="m148.59,105.49c-.13,1.04-3.51,30.36-8.49,34.48-4.99,4.11-7.61,2.74-8.63,1.65-1.07-1.14-2.41-3.19.07-5.52,1.99-1.87,3.39-10.13,1.37-23.01l15.68-7.59Z"/>
        <g>
          <path class="cls-8" d="m127.94,138.43c-.62.18-1.32.07-1.55-.35-.23-.42.14-1.16.89-1.51,2.04-.97,4.37-1.29,6.66-.85.85.17,1.2,1.06.81,1.85-.39.8-1.11,1.22-1.66,1.02-1.59-.58-3.39-.67-5.15-.16Z"/>
          <path class="cls-8" d="m128.93,142.07c-.55.35-1.24.44-1.59.1-.34-.34-.19-1.15.43-1.7,1.69-1.5,3.84-2.45,6.17-2.66.87-.08,1.45.69,1.29,1.56-.15.87-.72,1.47-1.32,1.43-1.68-.12-3.44.3-4.99,1.28Z"/>
          <path class="cls-8" d="m131.62,144.83c-.33.56-.9.96-1.37.81-.46-.15-.69-.94-.39-1.71.82-2.1,2.3-3.93,4.28-5.18.73-.47,1.6-.05,1.86.8.26.85.03,1.64-.52,1.88-1.56.66-2.93,1.83-3.87,3.41Z"/>
        </g>
      </g>
      <g>
        <path class="cls-8" d="m151.65,105.22c.13,1.04,3.62,30.34,8.62,34.44,5,4.1,7.62,2.71,8.63,1.62,1.06-1.15,2.4-3.2-.09-5.52-2-1.86-3.42-10.12-1.45-23.01l-15.71-7.53Z"/>
        <g>
          <path class="cls-8" d="m171.56,138.42c.62.18,1.32.07,1.55-.35.23-.42-.14-1.15-.89-1.51-2.04-.97-4.37-1.28-6.67-.83-.85.17-1.2,1.07-.81,1.86.39.8,1.11,1.21,1.67,1.01,1.58-.59,3.39-.68,5.15-.18Z"/>
          <path class="cls-8" d="m170.58,142.07c.55.35,1.25.44,1.59.09.34-.34.18-1.15-.44-1.7-1.69-1.49-3.85-2.44-6.17-2.64-.87-.07-1.45.69-1.29,1.56.16.87.73,1.47,1.32,1.43,1.68-.13,3.45.28,5,1.26Z"/>
          <path class="cls-8" d="m167.9,144.83c.33.56.91.95,1.37.8.46-.15.69-.94.38-1.71-.82-2.1-2.32-3.92-4.29-5.16-.74-.46-1.6-.05-1.86.8-.26.85-.02,1.64.53,1.87,1.55.65,2.94,1.82,3.87,3.4Z"/>
        </g>
      </g>
    </g>
    <g>
      <path class="cls-10" d="m220.19,124.86c1.12.45,1.96-.42,3.18-1.5,1.22-1.08-2.59-2.41-4.51-3.11-1.59-.58-1.77,0-2.24.19.27,1.12.52,2.25.74,3.38,1.02.11,1.96.69,2.83,1.04Z"/>
      <path class="cls-10" d="m218.87,130c-.11-.22-.31-.38-.64-.46.14,1.3.25,2.6.32,3.92.73-1.32.53-3.08.33-3.46Z"/>
      <circle class="cls-13" cx="149.43" cy="137.04" r="73.04"/>
      <g>
        <path class="cls-11" d="m158.96,175.5c-.54-1.2-4.59-2.08-5.26-1.92-.86-.09-4.12-2.48-4.27-3.18.13-1.36-3-5.11-3.87-5.2-.43-.04-2.54-.72-3.47-2.42-1.12-1.94-5.98-3.59-7.49-3.74-1.29-.13-3.21-.56-4.66-1.4-1.23-.81-3.25-.11-5.5.57-.45.18-.91.36-1.12.34-.67.16-4.68-1.17-5.71-1.73-.2-.25-.24-2.08-.18-2.76.11-1.13-.05-1.83-.24-2.08-.17-.48-1.21-1.04-3.11-1.69-.41-.27-1.06-.34-1.25-.59.02-.22.3-.88.54-1.09.8-1.52,1.33-2.6.97-3.33-.19-.25-.39-.49-.6-.52-.84-.32-2.22.46-3.62,1.45-.69.39-1.61.98-1.83.95-.86-.09-2.31-.92-4.14-2.26-1.01-.79.64-4.5,1.46-6.25.3-.88.58-1.54.84-1.97.04-.45,2.26-.91,5.06-.62.86.09,1.96-.03,3.06-.14.88-.14,1.96-.02,2.61.04.43.04,1.19,1.27,1.55,1.99.76,1.22,1.32,2.19,1.97,2.26,1.1-.11,1.25-1.7,1.35-2.83.04-.45.06-.68.08-.91.28-.66,2.04-3.22,3.18-3.79,1.59-.75,3.81-3.49,3.53-5.12.06-.68,2.82-2.22,3.75-2.81.45-.18.69-.39.93-.59.24-.2.69-.39.93-.59.9-.36,2.26-.91,2.41-2.49.08-.91,2.93-1.07,4.67-1.12.43.04.88-.14,1.1-.11,1.1-.11,1.77-.27,2.05-.93.49-.64.13-1.36,0-2.29.02-.23-.17-.48-.15-.7-.5-1.65.02-2.51,1.39-3.28.69-.39,1.77-.27,2.87-.39,1.1-.12,2.39.02,3.75-.53.91-.36,1.38-.77,1.64-1.2.28-.66-.09-1.38-.46-2.11-.19-.25-.39-.5-.37-.72-.52-1.43-1.51-2.44-2.09-3.19-.39-.5-.65-2.35-.78-3.28-.15-.7-.09-1.38-.26-1.86-.17-.48-.37-.72-.78-.99-.82-.54-2.39-.02-3.3.34.02-.23-.15-.7-.13-.93.06-.68-.09-1.38-.5-1.65-.19-.25-.58-.75-1.17-1.49-.78-.99-1.75-2.24-2.55-3.01-.39-.5-.82-.54-1.25-.59-1.1.11-2.09,1.38-2.86,2.68-.02.23-.24.2-.26.43-1.49,1.9-1.85,3.47-1.05,4.24,0,0,.17.47-.32,1.11-.54,1.09-1.25,1.7-1.68,1.65-1.29-.13-1.66,1.43-2.04,3.22-.28.66-.36,1.56-.62,1.99-.19-.25-.54-1.2-.27-4.14l.04-.45c.04-.45-.15-.7-.35-.95-.39-.5-.84-.32-1.27-.36-.65-.07-.86-.09-1.06-.34-.54-1.2-3.65-2.89-4.9-3.48.17-1.81.36-3.85.38-4.08.49-.63,6.01-3.72,7.13-4.06,1.79-.5,6.14-2.79,6.85-3.41.69-.39.97-1.04,1.01-1.5-.09-1.38-2.38-2.53-3.19-3.07-.69-1.9-1.77-2.01-3.28-2.17-.65-.07-1.51-.16-2.56-.49-3.39-1.03-6.4-1.35-8.8-1.37-1.3.02-3.06-.22-4.59-.56-11.43,6.11-20.94,15.33-27.4,26.54.02,2.2-.31,4.75-1.56,6.9-3.12,5.39-3.55,14.72-2.45,16.89.91,1.92,6.2,10.47,6.98,11.46.58.74,1.97,6.83,2.13,7.54.15.7,3.56,6.08,7.44,6.48,2.39.02,5.05,1.89,6.69,2.98.82.54,1.42,1.06,1.85,1.11.22.02.39.49.56.97.54,1.2,1.25,2.87,3.3,4.23.6.52,1.23.81,1.62,1.31,2.05,1.36,4.9,3.48,4.86,3.93-.02.22-.49.63-.97,1.04-1.44,1.45-3.83,3.72-3.52,7.41.4,5.07,6.33,11.39,8.34,13.2,1.9.66.32,10.55-.71,12.27-.12.27-.24.64-.35,1.04,1.5.6,3.03,1.16,4.58,1.66l6.85-.17c.94-.81,1.68-1.65,1.94-2.09.24-.2.69-.39,1.14-.57,1.12-.34,2.26-.91,2.78-1.77.75-1.07,3.12-3.11,4.02-3.47,1.14-.57,9.34-6.81,9.88-7.89,1.33-2.61,3.38-5.82,4.3-6.41,1.85-1.18.58-3.83.01-4.8l-.19-.25Z"/>
        <path class="cls-11" d="m184.54,108.06c.16.52.74,1.99.37,2.62-.37.63-2.51,3.72-.37,3.51,2.15-.21,4.56-1.15,3.67-2.94-.89-1.78-1.94-3.25-2.31-4.24-.37-.99-.34-1.94-.34-1.94,0,0-1.18-1.31-1.81-1.21,0,0-1.21,1.05-1,1.99.21.95,1.63,1.68,1.78,2.2Z"/>
        <path class="cls-11" d="m182.29,111.36c.63-.68,1.62-3.67-.52-3.09,0,0-2.25,2.57-2.25,3.09s2.15.68,2.78,0Z"/>
        <path class="cls-11" d="m206.4,100.98c.75-.14,1.4-.22,1.95-.24-1.03-1.67-2.13-3.29-3.29-4.86-.94,1.67-1.24,2.1-.87,2.95.42.94,0,2.57,2.2,2.15Z"/>
        <path class="cls-11" d="m183.86,116.79c.73.49,2.48,1.22,2.48,2.66s.49,2.62-.28,2.83c-.77.21-4.47-.49-5.17.98-.7,1.47-1.05,3.07-1.12,4.26-.07,1.19-.21,2.31,2.1,2.24,2.31-.07,3.85-.5,4.61-.98.77-.48.56-1.46,1.89-2.79,1.33-1.33,1.75-.77,1.82-1.89.07-1.12-.21-2.31.63-2.1.84.21,1.61-.77,2.52-.35.91.42,1.47-1.05,2.87.49,1.4,1.54,3,2.52,3.42,3.42.42.91,1.89,1.47,1.4,2.66-.49,1.19,1.47-2.13,1.36-3.07-.11-.94-1.99-2.31-2.24-2.69-.25-.38-1.5-2.48-.07-1.99,1.43.49,3.53,2.48,3.63,3.25.1.77,1.08,3.36,1.92,4.4.84,1.05,1.99,1.43,2.1,1.4.1-.03-.59-2.51-.07-3.6.52-1.08,1.71-1.54,2.2-1.26.49.28.56.77,1.12.42.56-.35,1.29-.7,1.19-1.75-.11-1.05.21-2.34.49-2.94.28-.59,1.22-2.52,1.75-1.71.53.8,1.08,1.78,1.89,1.82.14,0,.25-.02.34-.06-1.66-6.74-4.31-13.09-7.78-18.9-1.04.43-2.44,1.13-2.91,2.27-.79,1.89-.79,2.04-1,3.2-.21,1.15-1.41,1.84-1.41,1.84l-6.19,1s-1.31-1.33-2.01-.84c-.7.49-1.57.73-2.52,1.4-.94.66-2.97,2.41-3.39,3.29-.42.87-1.47,1.71-3.14,2.13-1.68.42-3.15.49-2.41.98Z"/>
        <path class="cls-11" d="m192.14,104.86c1.31,0,3.2-1.68,3.46-1.26.26.42,1.84,3.67,2.94,3.46,1.1-.21,3.2-4.66,2.83-6.66-.37-1.99-.21-2.52.26-3.09.47-.58.26-2.73,1.89-2.83.15,0,.3-.03.44-.06-1.52-1.94-3.14-3.79-4.85-5.55-1.22,1.81-1.8,3.33-2.63,5.11-1.05,2.24-3.97,4.23-4.81,5.54-.84,1.31-.84,5.35.47,5.35Z"/>
        <path class="cls-11" d="m210.48,126.37c.14,1.75,1.75,4.4,4.47,3.64,1.72-.49,2.71-.59,3.28-.46-.21-1.93-.5-3.84-.86-5.73-.29-.03-.58-.03-.88.03-1.36.28-6.15.77-6.01,2.51Z"/>
        <path class="cls-11" d="m218.54,133.46c-.4.72-1.06,1.31-2.16,1.47,0,0-9.5-1.54-10.48-1.82-1.82-.28-.84,2.1-.84,2.66s-7.83-1.44-7.83-2.68,2.94-4.59-5.17-3.33c-8.11,1.26-10.34,2.85-12.44,6.11-2.1,3.26-7.13,4.38-6.85,10.39.28,6.01-1.12,6.57,2.38,9.78,3.49,3.21,3.49,6.01,13.42,3.21,9.92-2.79,3.91-.22,4.89,1.15.98,1.37,2.79.11,3.07,1.37.28,1.26-1.96,3.77.28,6.29,2.23,2.51,3.49,8.81,2.23,10.48-.89,1.19.26,3.37.85,5.84,11-11.72,17.96-27.27,18.66-44.44l.05-1.5c0-.46.02-.93.02-1.39,0-1.2-.03-2.39-.09-3.57Z"/>
      </g>
    </g>
  </g>
  <g class="cls-7">
    <g class="cls-5">
      <path class="cls-3" d="m69.82,158.61l-1.56-4.01c-1.39.13-2.52-.05-3.38-.55-.87-.5-1.5-1.26-1.9-2.29-.41-1.05-.42-2.05-.04-3.02.38-.97,1.1-1.72,2.16-2.26l-.37-.95,1.39-.54.37.95c1.06-.27,2-.24,2.82.09s1.5.95,2.04,1.84l-2.3,1.26c-.44-.69-1.02-1.06-1.74-1.08l1.46,3.74c1.69-.18,2.94-.05,3.76.39s1.42,1.18,1.82,2.21c.45,1.15.48,2.26.09,3.33-.39,1.06-1.17,1.93-2.35,2.59l.7,1.79-1.39.54-.68-1.74c-1.16.3-2.21.23-3.17-.19s-1.78-1.22-2.46-2.4l2.39-1.24c.3.47.66.84,1.09,1.1.43.26.84.41,1.25.44Zm-3.92-10.04c-.33.27-.54.61-.65,1-.1.39-.08.78.06,1.15.13.34.36.61.67.82.32.21.72.32,1.2.34l-1.29-3.31Zm5.36,9.64c.44-.28.75-.65.91-1.12.16-.47.15-.95-.04-1.42-.17-.43-.44-.75-.81-.96s-.88-.29-1.52-.23l1.46,3.73Z"/>
    </g>
    <g class="cls-5">
      <path class="cls-3" d="m67.95,131.73l.04-4.3c-1.34-.4-2.32-.99-2.93-1.77-.62-.78-.92-1.73-.91-2.84.01-1.12.37-2.06,1.09-2.82s1.66-1.19,2.84-1.29v-1.02s1.5.01,1.5.01v1.02c1.08.14,1.94.52,2.58,1.14.64.62,1.04,1.44,1.21,2.47l-2.6.31c-.15-.81-.56-1.36-1.22-1.65l-.04,4.01c1.64.46,2.75,1.05,3.34,1.76.59.71.88,1.63.87,2.73-.01,1.24-.4,2.28-1.15,3.12-.76.84-1.81,1.35-3.14,1.53l-.02,1.92h-1.49s.02-1.88.02-1.88c-1.18-.16-2.14-.61-2.87-1.35-.73-.75-1.19-1.79-1.39-3.15l2.68-.26c.1.55.3,1.02.6,1.42.3.4.63.69,1,.87Zm.1-10.78c-.41.13-.73.36-.97.69-.24.33-.37.69-.37,1.08,0,.36.1.7.32,1.01.22.31.55.57.99.76l.03-3.55Zm1.38,10.94c.51-.09.93-.32,1.26-.7.33-.38.49-.82.5-1.34,0-.46-.13-.85-.39-1.19-.27-.33-.71-.59-1.32-.78l-.04,4Z"/>
    </g>
    <g class="cls-5">
      <path class="cls-3" d="m70.25,112.41l1.54-4.02c-1.12-.84-1.83-1.73-2.13-2.68-.31-.95-.26-1.94.13-2.98.4-1.05,1.07-1.8,2-2.26.93-.46,1.97-.53,3.11-.22l.36-.95,1.39.53-.36.95c.97.51,1.65,1.17,2.03,1.97.38.8.47,1.71.27,2.74l-2.55-.61c.14-.81-.05-1.47-.56-1.98l-1.44,3.75c1.38,1,2.21,1.94,2.52,2.82.3.87.26,1.83-.14,2.86-.44,1.16-1.17,2-2.17,2.52-1,.52-2.16.64-3.48.34l-.69,1.79-1.39-.53.67-1.75c-1.06-.56-1.79-1.31-2.22-2.27-.43-.95-.49-2.1-.2-3.43l2.61.69c-.09.55-.07,1.07.07,1.54s.35.87.63,1.17Zm1.34.67c.51.09.99.02,1.43-.22.44-.24.75-.6.93-1.08.16-.43.18-.85.05-1.25-.13-.41-.46-.8-.97-1.19l-1.43,3.74Zm2.52-10.73c-.43-.02-.81.09-1.15.31-.34.22-.58.52-.73.89-.13.34-.15.69-.05,1.06.09.37.31.72.66,1.06l1.27-3.32Z"/>
    </g>
  </g>
  <g class="cls-7">
    <path class="cls-3" d="m272.55,109.22c0-1.5-.79-2.75-2.48-3.83v-25.87c1.69-1.08,2.48-2.34,2.48-3.83,0-3.49-4.28-5.69-14.31-7.35-8.02-1.33-18.66-2.06-29.95-2.06s-21.93.73-29.95,2.06c-10.03,1.66-14.31,3.86-14.31,7.35,0,1.5.79,2.75,2.48,3.83v25.87c-1.69,1.08-2.48,2.34-2.48,3.83s.79,2.75,2.48,3.83v28.49c-1.67,1.27-2.48,2.7-2.48,4.34s.82,3.07,2.48,4.34v28.06c-1.67,1.27-2.48,2.7-2.48,4.34,0,3.87,4.51,6.62,14.21,8.67,8.05,1.7,18.73,2.64,30.05,2.64s22-.94,30.05-2.64c9.69-2.05,14.21-4.8,14.21-8.67,0-1.64-.82-3.07-2.48-4.34v-28.06c1.67-1.27,2.48-2.7,2.48-4.34s-.82-3.07-2.48-4.34v-28.49c1.69-1.08,2.48-2.34,2.48-3.83Z"/>
    <path class="cls-3" d="m166.66,100.74l-5.06,4.57c-10.06-8.4-23.26-9.73-33.05-1-.63.56-.63,1.55-.03,2.14l4.14,4.14c.54.54,1.42.6,2,.1,6.54-5.69,17.36-7.59,24.55-3.23l-5.2,4.7c-.24.22-.14.63.19.69l15.02,3.16c.28.06.53-.18.48-.46l-2.37-14.58c-.05-.32-.43-.45-.67-.23Z"/>
    <path class="cls-3" d="m162.05,144.95c-.54-.54-1.42-.6-2-.1-6.54,5.69-17.36,7.59-24.55,3.23l5.2-4.7c.25-.22.14-.63-.19-.69l-15.02-3.16c-.28-.06-.53.18-.48.46l2.37,14.58c.05.32.43.45.67.23l5.06-4.57c10.06,8.4,23.26,9.73,33.05,1,.63-.56.63-1.55.03-2.14l-4.14-4.14Z"/>
  </g>
  <g>
    <g>
      <g class="cls-6">
        <path class="cls-8" d="m66.49,159l-1.71-4.4c-1.52.14-2.76-.06-3.71-.6-.95-.54-1.65-1.38-2.09-2.52-.45-1.15-.46-2.25-.04-3.31.42-1.06,1.21-1.89,2.36-2.48l-.41-1.04,1.52-.59.41,1.04c1.16-.3,2.2-.27,3.1.1.9.37,1.65,1.04,2.24,2.02l-2.52,1.38c-.48-.76-1.12-1.16-1.91-1.19l1.6,4.1c1.86-.2,3.23-.06,4.12.43s1.56,1.3,2,2.43c.49,1.27.53,2.48.1,3.65-.43,1.17-1.29,2.11-2.57,2.84l.77,1.96-1.52.59-.75-1.91c-1.27.33-2.43.26-3.48-.2-1.05-.46-1.95-1.34-2.7-2.63l2.62-1.36c.33.52.73.92,1.19,1.2.47.29.92.45,1.37.48Zm-4.3-11.02c-.36.3-.59.67-.71,1.1-.11.43-.09.85.07,1.26.14.37.39.67.74.9.35.23.79.36,1.32.37l-1.42-3.63Zm5.88,10.57c.49-.3.82-.71,1-1.23.18-.52.16-1.04-.04-1.56-.18-.47-.48-.82-.89-1.05-.41-.23-.96-.31-1.66-.25l1.6,4.09Z"/>
      </g>
      <g class="cls-6">
        <path class="cls-8" d="m116.5,158.22l-16.33-41.7c-.92-2.28-3.62-3.43-5.9-2.52l-75.17,29.35c-2.28.91-3.5,3.44-2.52,5.9l16.33,41.7c.92,2.28,3.44,3.5,5.9,2.52l75.17-29.35c2.28-.91,3.5-3.44,2.52-5.9Z"/>
      </g>
      <g>
        <g>
          <path class="cls-1" d="m92.27,112l-75.16,29.35c-2.28.91-3.51,3.44-2.52,5.9l16.33,41.7c.91,2.28,3.44,3.51,5.9,2.52l75.16-29.35c2.28-.91,3.51-3.44,2.52-5.9l-16.33-41.7c-.91-2.28-3.62-3.43-5.9-2.52Z"/>
          <path class="cls-2" d="m36.21,184.38l-3.31-8.24c4.56-1.83,9.79.55,11.62,5.11l-8.31,3.13Z"/>
          <path class="cls-2" d="m24.88,155.13l-3.31-8.24,8.24-3.31c2.08,4.66-.3,9.9-4.93,11.55Z"/>
          <path class="cls-2" d="m107.34,156.65l-8.24,3.31c-1.83-4.56.55-9.79,5.11-11.62l3.13,8.31Z"/>
          <path class="cls-2" d="m96.01,127.4c-4.56,1.83-9.79-.55-11.62-5.11l8.42-3.38,3.2,8.49Z"/>
          <path class="cls-2" d="m70.15,166.48c-16.38,6.37-32.21,4.98-35.44-3.08-3.24-8.07,7.56-19.73,23.94-26.1,16.38-6.37,32.21-4.98,35.44,3.08,3.17,7.89-7.56,19.73-23.94,26.1Z"/>
        </g>
        <rect class="cls-10" x="32.49" y="141.82" width="64.06" height="20.22" transform="translate(-50.8 33.83) rotate(-21.31)"/>
        <g class="cls-5">
          <path class="cls-1" d="m65.49,157l-1.71-4.4c-1.52.14-2.76-.06-3.71-.6-.95-.54-1.65-1.38-2.09-2.52-.45-1.15-.46-2.25-.04-3.31.42-1.06,1.21-1.89,2.36-2.48l-.41-1.04,1.52-.59.41,1.04c1.16-.3,2.2-.27,3.1.1.9.37,1.65,1.04,2.24,2.02l-2.52,1.38c-.48-.76-1.12-1.16-1.91-1.19l1.6,4.1c1.86-.2,3.23-.06,4.12.43s1.56,1.3,2,2.43c.49,1.27.53,2.48.1,3.65-.43,1.17-1.29,2.11-2.57,2.84l.77,1.96-1.52.59-.75-1.91c-1.27.33-2.43.26-3.48-.2-1.05-.46-1.95-1.34-2.7-2.63l2.62-1.36c.33.52.73.92,1.19,1.2.47.29.92.45,1.37.48Zm-4.3-11.02c-.36.3-.59.67-.71,1.1-.11.43-.09.85.07,1.26.14.37.39.67.74.9.35.23.79.36,1.32.37l-1.42-3.63Zm5.88,10.57c.49-.3.82-.71,1-1.23.18-.52.16-1.04-.04-1.56-.18-.47-.48-.82-.89-1.05-.41-.23-.96-.31-1.66-.25l1.6,4.09Z"/>
        </g>
      </g>
      <g class="cls-6">
        <path class="cls-8" d="m64.45,129.52l.05-4.72c-1.47-.43-2.54-1.08-3.22-1.94-.68-.86-1.01-1.9-1-3.11.01-1.23.41-2.26,1.2-3.09s1.82-1.3,3.12-1.42v-1.11s1.64.02,1.64.02v1.11c1.18.15,2.13.57,2.83,1.25.7.68,1.14,1.58,1.33,2.71l-2.85.34c-.16-.89-.61-1.49-1.33-1.81l-.04,4.4c1.8.51,3.02,1.15,3.66,1.93.65.78.96,1.78.95,3-.01,1.36-.44,2.5-1.27,3.42-.83.92-1.98,1.48-3.45,1.68l-.02,2.11-1.63-.02.02-2.05c-1.3-.17-2.35-.66-3.15-1.48-.8-.82-1.31-1.97-1.52-3.45l2.94-.29c.11.6.33,1.12.66,1.56.33.44.69.76,1.09.96Zm.11-11.82c-.44.15-.8.4-1.07.76-.27.36-.4.76-.41,1.19,0,.4.11.77.35,1.11.24.34.6.62,1.08.84l.04-3.9Zm1.52,12c.56-.1,1.02-.36,1.38-.77.36-.41.54-.9.54-1.46,0-.5-.14-.94-.43-1.31-.29-.37-.78-.65-1.45-.85l-.04,4.39Z"/>
      </g>
      <g class="cls-6">
        <path class="cls-8" d="m107.07,97.74l-80.69-.76c-2.46,0-4.54,1.89-4.54,4.54l-.38,44.78c0,2.46,1.89,4.54,4.54,4.54l80.69.76c2.46,0,4.54-1.89,4.54-4.54l.38-44.78c0-2.46-2.08-4.54-4.54-4.54Z"/>
      </g>
      <g>
        <g>
          <path class="cls-1" d="m105.07,95.74l-80.69-.76c-2.46,0-4.54,1.89-4.54,4.54l-.38,44.78c0,2.46,1.89,4.54,4.54,4.54l80.69.76c2.46,0,4.54-1.89,4.54-4.54l.38-44.78c0-2.46-2.08-4.54-4.54-4.54Z"/>
          <path class="cls-2" d="m26.09,142.04v-8.88c4.91,0,8.88,4.16,8.88,9.07l-8.88-.19Z"/>
          <path class="cls-2" d="m26.46,110.67v-8.88h8.88c.19,5.1-3.97,9.07-8.88,8.88Z"/>
          <path class="cls-2" d="m102.43,142.79h-8.88c0-4.91,4.16-8.88,9.07-8.88l-.19,8.88Z"/>
          <path class="cls-2" d="m102.81,111.43c-4.91,0-8.88-4.16-8.88-9.07h9.07l-.19,9.07Z"/>
          <path class="cls-2" d="m64.26,138.07c-17.57-.19-31.75-7.37-31.75-16.06s14.36-15.5,31.94-15.31c17.57.19,31.75,7.37,31.75,16.06s-14.36,15.5-31.94,15.31Z"/>
        </g>
        <rect class="cls-10" x="54.34" y="90.43" width="20.22" height="64.06" transform="translate(-58.63 185.72) rotate(-89.44)"/>
        <g class="cls-5">
          <path class="cls-1" d="m63.45,127.52l.05-4.72c-1.47-.43-2.54-1.08-3.22-1.94-.68-.86-1.01-1.9-1-3.11.01-1.23.41-2.26,1.2-3.09s1.82-1.3,3.12-1.42v-1.11s1.64.02,1.64.02v1.11c1.18.15,2.13.57,2.83,1.25.7.68,1.14,1.58,1.33,2.71l-2.85.34c-.16-.89-.61-1.49-1.33-1.81l-.04,4.4c1.8.51,3.02,1.15,3.66,1.93.65.78.96,1.78.95,3-.01,1.36-.44,2.5-1.27,3.42-.83.92-1.98,1.48-3.45,1.68l-.02,2.11-1.63-.02.02-2.05c-1.3-.17-2.35-.66-3.15-1.48-.8-.82-1.31-1.97-1.52-3.45l2.94-.29c.11.6.33,1.12.66,1.56.33.44.69.76,1.09.96Zm.11-11.82c-.44.15-.8.4-1.07.76-.27.36-.4.76-.41,1.19,0,.4.11.77.35,1.11.24.34.6.62,1.08.84l.04-3.9Zm1.52,12c.56-.1,1.02-.36,1.38-.77.36-.41.54-.9.54-1.46,0-.5-.14-.94-.43-1.31-.29-.37-.78-.65-1.45-.85l-.04,4.39Z"/>
        </g>
      </g>
      <path class="cls-3" d="m64.97,107.33l1.69-4.41c-1.22-.92-2-1.9-2.34-2.94-.34-1.04-.29-2.13.15-3.27.44-1.15,1.17-1.98,2.2-2.48,1.02-.5,2.16-.58,3.42-.24l.4-1.04,1.52.58-.4,1.04c1.06.56,1.8,1.28,2.22,2.16.42.88.52,1.88.3,3l-2.79-.67c.16-.89-.05-1.61-.62-2.17l-1.57,4.11c1.51,1.1,2.43,2.13,2.76,3.09.33.96.28,2.01-.15,3.14-.49,1.27-1.28,2.19-2.38,2.77-1.1.58-2.37.7-3.81.37l-.75,1.97-1.52-.58.73-1.91c-1.16-.61-1.97-1.44-2.44-2.49-.47-1.05-.54-2.3-.22-3.76l2.86.76c-.1.6-.08,1.17.07,1.69s.38.95.69,1.28Zm1.47.73c.56.1,1.08.02,1.56-.24.48-.26.82-.66,1.02-1.18.18-.47.2-.93.05-1.37-.15-.45-.5-.88-1.06-1.31l-1.57,4.1Zm2.76-11.77c-.47-.02-.89.09-1.26.34-.37.24-.64.57-.79.97-.14.37-.16.76-.06,1.16.1.41.34.79.72,1.16l1.39-3.64Z"/>
      <g class="cls-6">
        <path class="cls-8" d="m118.04,94.03l-75.36-28.84c-2.3-.86-4.91.19-5.83,2.67l-15.97,41.84c-.86,2.3.19,4.91,2.67,5.83l75.36,28.84c2.3.86,4.91-.19,5.83-2.67l15.97-41.84c.86-2.3-.37-4.98-2.67-5.83Z"/>
      </g>
      <g>
        <g>
          <path class="cls-1" d="m116.04,91.03l-75.36-28.84c-2.3-.86-4.91.19-5.83,2.67l-15.97,41.84c-.86,2.3.19,4.91,2.67,5.83l75.36,28.84c2.3.86,4.91-.19,5.83-2.67l15.97-41.84c.86-2.3-.37-4.98-2.67-5.83Z"/>
          <path class="cls-2" d="m25.87,106.89l3.1-8.32c4.6,1.71,6.87,6.99,5.16,11.6l-8.26-3.27Z"/>
          <path class="cls-2" d="m37.16,77.62l3.1-8.32,8.32,3.1c-1.6,4.85-6.88,7.12-11.42,5.23Z"/>
          <path class="cls-2" d="m97.16,134.21l-8.32-3.1c1.71-4.6,6.99-6.87,11.6-5.16l-3.27,8.26Z"/>
          <path class="cls-2" d="m108.45,104.94c-4.6-1.71-6.87-6.99-5.16-11.6l8.5,3.16-3.34,8.44Z"/>
          <path class="cls-2" d="m63.03,116.48c-16.41-6.3-27.19-17.97-24.15-26.12s18.86-9.52,35.27-3.21c16.41,6.3,27.19,17.97,24.15,26.12-2.96,7.97-18.86,9.52-35.27,3.21Z"/>
        </g>
        <rect class="cls-10" x="58.54" y="69.88" width="20.22" height="64.06" transform="translate(-51.08 129.56) rotate(-69.04)"/>
        <g class="cls-5">
          <path class="cls-1" d="m65.97,106.33l1.69-4.41c-1.22-.92-2-1.9-2.34-2.94-.34-1.04-.29-2.13.15-3.27.44-1.15,1.17-1.98,2.2-2.48,1.02-.5,2.16-.58,3.42-.24l.4-1.04,1.52.58-.4,1.04c1.06.56,1.8,1.28,2.22,2.16.42.88.52,1.88.3,3l-2.79-.67c.16-.89-.05-1.61-.62-2.17l-1.57,4.11c1.51,1.1,2.43,2.13,2.76,3.09.33.96.28,2.01-.15,3.14-.49,1.27-1.28,2.19-2.38,2.77-1.1.58-2.37.7-3.81.37l-.75,1.97-1.52-.58.73-1.91c-1.16-.61-1.97-1.44-2.44-2.49-.47-1.05-.54-2.3-.22-3.76l2.86.76c-.1.6-.08,1.17.07,1.69s.38.95.69,1.28Zm1.47.73c.56.1,1.08.02,1.56-.24.48-.26.82-.66,1.02-1.18.18-.47.2-.93.05-1.37-.15-.45-.5-.88-1.06-1.31l-1.57,4.1Zm2.76-11.77c-.47-.02-.89.09-1.26.34-.37.24-.64.57-.79.97-.14.37-.16.76-.06,1.16.1.41.34.79.72,1.16l1.39-3.64Z"/>
        </g>
      </g>
    </g>
    <g>
      <ellipse class="cls-4" cx="230.29" cy="106.93" rx="41.59" ry="6.9"/>
      <g>
        <path class="cls-14" d="m230.29,190.02c-17.21,0-42.82-2.67-42.82-10.02s25.61-10.02,42.82-10.02,42.82,2.67,42.82,10.02-25.61,10.02-42.82,10.02Z"/>
        <path class="cls-3" d="m230.29,171.22c22.97,0,41.59,3.93,41.59,8.78s-18.62,8.78-41.59,8.78-41.59-3.93-41.59-8.78,18.62-8.78,41.59-8.78m0-2.47c-11.27,0-21.9.93-29.92,2.63-9.65,2.04-14.14,4.78-14.14,8.63s4.49,6.59,14.14,8.63c8.02,1.69,18.64,2.62,29.92,2.62s21.9-.93,29.92-2.62c9.65-2.04,14.14-4.78,14.14-8.63s-4.49-6.59-14.14-8.63c-8.02-1.69-18.64-2.63-29.92-2.63h0Z"/>
      </g>
      <rect class="cls-14" x="188.7" y="143.43" width="83.17" height="36.57"/>
      <g>
        <path class="cls-4" d="m230.29,153.44c-17.21,0-42.82-2.67-42.82-10.02s25.61-10.02,42.82-10.02,42.82,2.67,42.82,10.02-25.61,10.02-42.82,10.02Z"/>
        <path class="cls-3" d="m230.29,134.65c22.97,0,41.59,3.93,41.59,8.78s-18.62,8.78-41.59,8.78-41.59-3.93-41.59-8.78,18.62-8.78,41.59-8.78m0-2.47c-11.27,0-21.9.93-29.92,2.63-9.65,2.04-14.14,4.78-14.14,8.63s4.49,6.59,14.14,8.63c8.02,1.69,18.64,2.62,29.92,2.62s21.9-.93,29.92-2.62c9.65-2.04,14.14-4.78,14.14-8.63s-4.49-6.59-14.14-8.63c-8.02-1.69-18.64-2.63-29.92-2.63h0Z"/>
      </g>
      <rect class="cls-4" x="188.7" y="106.93" width="83.17" height="36.5"/>
      <g>
        <ellipse class="cls-14" cx="230.29" cy="106.93" rx="42.82" ry="8.14"/>
        <path class="cls-3" d="m230.29,100.03c22.97,0,41.59,3.09,41.59,6.9s-18.62,6.9-41.59,6.9-41.59-3.09-41.59-6.9,18.62-6.9,41.59-6.9m0-2.47c-11.24,0-21.83.73-29.81,2.05-9.99,1.66-14.25,3.85-14.25,7.32s4.26,5.66,14.25,7.32c7.98,1.33,18.57,2.05,29.81,2.05s21.83-.73,29.81-2.05c9.99-1.66,14.25-3.85,14.25-7.32s-4.26-5.66-14.25-7.32c-7.98-1.33-18.57-2.05-29.81-2.05h0Z"/>
      </g>
      <path class="cls-3" d="m239.26,158.36c-4.97,0-9.75-1.56-13.81-4.5l2.18-3c3.42,2.48,7.45,3.79,11.63,3.79,4.49,0,9.48-1.99,13.36-5.32l2.41,2.82c-4.6,3.95-10.35,6.21-15.78,6.21Z"/>
      <path class="cls-3" d="m224.84,117.02l-2.18-3c4.03-2.94,8.83-5.65,16.61-5.65,7.36,0,10.5,2.05,13.53,4.04l.91.59-2,3.12-.94-.61c-2.93-1.92-5.25-3.43-11.5-3.43-7.05,0-11.14,2.55-14.42,4.94Z"/>
      <g>
        <ellipse class="cls-14" cx="239.27" cy="133.36" rx="20.85" ry="21.66"/>
        <path class="cls-4" d="m239.27,156.03c-12.05,0-21.85-10.17-21.85-22.66s9.8-22.66,21.85-22.66,21.85,10.17,21.85,22.66-9.8,22.66-21.85,22.66Zm0-43.33c-10.94,0-19.85,9.27-19.85,20.66s8.9,20.66,19.85,20.66,19.85-9.27,19.85-20.66-8.9-20.66-19.85-20.66Z"/>
      </g>
      <path class="cls-3" d="m248.05,137.06c0,6.24-3.16,10.94-8.37,10.94s-8.37-4.09-8.37-10.94,6.1-16.57,7.88-19.2c.23-.35.74-.35.97,0,1.79,2.62,7.88,12.96,7.88,19.2Z"/>
      <rect class="cls-14" x="188.7" y="73.54" width="83.17" height="33.39"/>
      <path class="cls-3" d="m188.7,73.54c5.23,10.94,15.03,6.5,13.63,13.36-.54,2.64-4.87,14.13-1.78,16.15,3.09,2.02,3.99-3.63,3.38-7.07-.61-3.43-1.7-12.2,2.17-12.48,3.87-.28,3.32,1.94,1.52,4.43-1.8,2.49-.79,5.48,1.34,5.48s2.41-2.65,1.99-4.31c-.41-1.66-2.91-7.83.27-7.67,3.18.17,10.94.91,13.06,4.55s5.32-1.77,9.76-3.51c4.44-1.73,7.79,1.52,11.62-.9,3.83-2.42,10.1,3.73,11.62,3.18,1.52-.55,2.6-6.98,6.01-7.02"/>
      <g>
        <ellipse class="cls-4" cx="230.29" cy="73.54" rx="42.82" ry="8.14"/>
        <path class="cls-3" d="m230.29,66.64c22.97,0,41.59,3.09,41.59,6.9s-18.62,6.9-41.59,6.9-41.59-3.09-41.59-6.9,18.62-6.9,41.59-6.9m0-2.47c-11.24,0-21.83.73-29.81,2.05-9.99,1.66-14.25,3.85-14.25,7.32s4.26,5.66,14.25,7.32c7.98,1.33,18.57,2.05,29.81,2.05s21.83-.73,29.81-2.05c9.99-1.66,14.25-3.85,14.25-7.32s-4.26-5.66-14.25-7.32c-7.98-1.33-18.57-2.05-29.81-2.05h0Z"/>
      </g>
    </g>
    <g>
      <g>
        <path class="cls-3" d="m167.95,98.36l-12.65,11.43c-.24.22-.14.63.19.69l15.02,3.16c.28.06.53-.18.48-.46l-2.37-14.58c-.05-.32-.43-.45-.67-.23Z"/>
        <path class="cls-3" d="m164.16,106.15h0c-.54.54-1.39.59-1.98.11-7.07-5.84-19.15-4.1-26.23,2.05-.58.5-1.46.45-2-.1l-4.14-4.14c-.6-.6-.6-1.58.03-2.14,10.2-9.1,24.1-7.28,34.29,2.08.62.57.62,1.55.02,2.14Z"/>
      </g>
      <g>
        <path class="cls-3" d="m129.35,152.42l12.65-11.43c.24-.22.14-.63-.19-.69l-15.02-3.16c-.28-.06-.53.18-.48.46l2.37,14.58c.05.32.43.45.67.23Z"/>
        <path class="cls-3" d="m133.14,144.63h0c.54-.54,1.39-.59,1.98-.11,7.07,5.84,19.15,4.1,26.23-2.05.58-.5,1.46-.45,2,.1l4.14,4.14c.6.6.6,1.58-.03,2.14-10.2,9.1-24.1,7.28-34.29-2.08-.62-.57-.62-1.55-.02-2.14Z"/>
      </g>
    </g>
  </g>
</svg>