<?xml version="1.0" encoding="UTF-8"?>
<svg id="Layer_1" data-name="Layer 1" xmlns="http://www.w3.org/2000/svg" width="300" height="225" viewBox="0 0 300 225">
  <defs>
    <style>
      .cls-1 {
        fill: #84cd29;
      }

      .cls-2 {
        fill: #fff;
      }

      .cls-3 {
        fill: #23140a;
      }

      .cls-4, .cls-5 {
        isolation: isolate;
      }

      .cls-5 {
        opacity: .35;
      }

      .cls-6 {
        fill: #232323;
      }

      .cls-7 {
        fill: #dda905;
      }

      .cls-8 {
        fill: none;
      }

      .cls-9 {
        fill: #33b6e4;
      }

      .cls-10 {
        fill: #ffcf15;
      }
    </style>
  </defs>
  <g>
    <g>
      <g>
        <path class="cls-10" d="m241.91,118.6c-1.51-.59-3.35.08-3.95,1.72l-11.26,28.33c-.59,1.51.08,3.35,1.72,3.95l33.49,13.33,13.62-33.99-33.61-13.34Z"/>
        <g>
          <rect class="cls-2" x="256.77" y="144.58" width="36.58" height="13.86" transform="translate(32.21 350.61) rotate(-68.19)"/>
          <path class="cls-10" d="m283.22,171.29l11.26-28.33c.59-1.51-.08-3.35-1.72-3.95l-4.53-1.78-13.62,33.99,4.53,1.78c1.64.6,3.48-.2,4.07-1.71Z"/>
        </g>
      </g>
      <rect class="cls-8" x="238.94" y="126.23" width="22.08" height="35.17" transform="translate(23.59 322.48) rotate(-68.19)"/>
      <g class="cls-4">
        <path class="cls-2" d="m243.41,145.8l-1.57-.63.93-2.32,1.57.63,4.37-10.95,9.15,3.66-1.02,2.56-6.09-2.44-1.43,3.58,5.09,2.04-1.02,2.56-5.09-2.04-.9,2.24,2.59,1.04-.93,2.32-2.59-1.04-.75,1.87-3.05-1.22.75-1.87Z"/>
      </g>
    </g>
    <g>
      <g>
        <path class="cls-9" d="m283.03,60.13l-51.49,18.86c-1.53.55-2.38,2.38-1.82,3.9l10.53,28.6c.55,1.53,2.38,2.38,3.9,1.82l51.49-18.86c1.53-.55,2.38-2.38,1.82-3.9l-10.53-28.6c-.55-1.53-2.38-2.38-3.9-1.82Z"/>
        <path class="cls-2" d="m244.03,108.57l-2.08-5.72c3.18-1.11,6.69.46,7.8,3.64l-5.72,2.08Z"/>
        <path class="cls-2" d="m236.68,88.61l-2.08-5.72,5.72-2.08c1.11,3.05-.59,6.56-3.64,7.8Z"/>
        <path class="cls-2" d="m292.59,90.69l-5.72,2.08c-1.11-3.18.46-6.69,3.64-7.8l2.08,5.72Z"/>
        <path class="cls-2" d="m285.25,70.73c-3.18,1.11-6.69-.46-7.8-3.64l5.72-2.08,2.08,5.72Z"/>
      </g>
      <circle class="cls-2" cx="262.95" cy="86.74" r="10.78" transform="translate(-2.25 7.14) rotate(-1.55)"/>
      <rect class="cls-8" x="241.78" y="80.06" width="43.38" height="13.73" transform="translate(-13.82 96) rotate(-20.13)"/>
      <g class="cls-4">
        <path class="cls-9" d="m264.51,80.05l-.6,5.36,1.9-.7.58,1.59-2.7.99,1.62,4.41-2.02.74-1.62-4.41-2.66.98-.58-1.59,1.87-.69-3.89-3.71,2.21-.81,2.56,2.53c.33.32.58.61.76.87-.03-.37-.02-.76.02-1.15l.34-3.6,2.21-.81Z"/>
      </g>
    </g>
    <g>
      <g>
        <path class="cls-1" d="m169.74,100.62l-54.81-.51c-1.67,0-3.08,1.28-3.08,3.08l-.26,30.42c0,1.67,1.28,3.08,3.08,3.08l54.81.51c1.67,0,3.08-1.28,3.08-3.08l.26-30.42c0-1.67-1.41-3.08-3.08-3.08Z"/>
        <path class="cls-2" d="m116.09,132.07v-6.03c3.34,0,6.03,2.82,6.03,6.16l-6.03-.13Z"/>
        <path class="cls-2" d="m116.35,110.76v-6.03h6.03c.13,3.47-2.7,6.16-6.03,6.03Z"/>
        <path class="cls-2" d="m167.94,132.58h-6.03c0-3.34,2.82-6.03,6.16-6.03l-.13,6.03Z"/>
        <path class="cls-2" d="m168.2,111.28c-3.34,0-6.03-2.82-6.03-6.16h6.16l-.13,6.16Z"/>
        <path class="cls-2" d="m142.02,129.38c-11.94-.13-21.56-5.01-21.56-10.91s9.75-10.52,21.69-10.4c11.94.13,21.56,5.01,21.56,10.91s-9.75,10.52-21.69,10.4Z"/>
      </g>
      <rect class="cls-8" x="135.28" y="97.02" width="13.73" height="43.51" transform="translate(22 259.76) rotate(-89.44)"/>
      <g class="cls-4">
        <path class="cls-1" d="m141.47,122.21l.03-3.21c-1-.3-1.73-.73-2.19-1.32-.46-.58-.69-1.29-.68-2.11,0-.84.28-1.54.81-2.1.53-.56,1.24-.88,2.12-.96v-.76s1.12.01,1.12.01v.76c.8.1,1.44.39,1.92.85.47.46.77,1.07.9,1.84l-1.94.23c-.11-.6-.41-1.01-.91-1.23l-.03,2.99c1.22.34,2.05.78,2.49,1.31.44.53.65,1.21.65,2.04,0,.92-.3,1.7-.86,2.33-.56.63-1.34,1.01-2.34,1.14v1.43s-1.12-.01-1.12-.01v-1.39c-.87-.12-1.58-.45-2.13-1.01s-.89-1.34-1.03-2.34l2-.19c.08.41.23.76.45,1.06.22.3.47.51.74.65Zm.08-8.03c-.3.1-.54.27-.72.51-.18.24-.27.51-.28.81,0,.27.08.52.24.76.16.23.41.42.74.57l.03-2.65Zm1.03,8.15c.38-.07.7-.24.94-.52.24-.28.37-.61.37-.99,0-.34-.09-.64-.29-.89-.2-.25-.53-.44-.98-.58l-.03,2.98Z"/>
      </g>
    </g>
  </g>
  <g>
    <g>
      <g class="cls-5">
        <path class="cls-6" d="m45.4,138.84c0,5.31-9.65,9.61-21.55,9.61s-21.54-4.3-21.54-9.61,9.65-9.61,21.54-9.61c11.9,0,21.55,4.3,21.55,9.61Z"/>
      </g>
      <g>
        <path class="cls-7" d="m47.94,134.32c0,4.99-9.4,9.04-21,9.04s-21-4.05-21-9.04v-9.04h42v9.04Z"/>
        <ellipse class="cls-10" cx="26.94" cy="125.28" rx="21" ry="9.04"/>
      </g>
    </g>
    <g>
      <path class="cls-7" d="m53.12,125.6c0,4.99-9.4,9.04-21,9.04s-21-4.05-21-9.04v-9.04h42v9.04Z"/>
      <ellipse class="cls-10" cx="32.12" cy="116.57" rx="21" ry="9.04"/>
    </g>
    <g>
      <path class="cls-7" d="m50.37,111.87c0,4.99-9.4,9.04-21,9.04s-21-4.05-21-9.04v-9.04h42v9.04Z"/>
      <ellipse class="cls-10" cx="29.37" cy="102.83" rx="21" ry="9.04"/>
    </g>
  </g>
  <g>
    <path class="cls-3" d="m211.63,104.36l-16.05,8.62c-.15.08-.33,0-.39-.15l-2.01-5.69c-.06-.16.04-.32.2-.36l18.18-3.89.2,1.18c.02.12-.04.23-.14.29Z"/>
    <path class="cls-3" d="m206.39,99.81l3.91,10.9c.08.21.36.25.48.06l5.86-8.62c.11-.16.02-.38-.16-.42l-9.77-2.27c-.21-.05-.39.16-.32.36Z"/>
  </g>
  <g>
    <path class="cls-3" d="m212.66,131.98l-17.8-3.88c-.16-.04-.26-.21-.2-.37l2.17-5.63c.06-.15.24-.22.39-.14l16.34,8.87-.61,1.03c-.06.1-.18.15-.29.13Z"/>
    <path class="cls-3" d="m211.63,125.12l-4.11,10.82c-.08.21.11.42.33.36l10.06-2.74c.19-.05.26-.27.15-.43l-5.95-8.08c-.13-.17-.4-.14-.48.07Z"/>
  </g>
  <g>
    <path class="cls-3" d="m88.82,119.16l-18.14,1.66c-.17.02-.31-.12-.3-.29l.38-6.03c.01-.17.16-.28.33-.25l18.25,3.54-.27,1.16c-.03.11-.12.2-.24.21Z"/>
    <path class="cls-3" d="m85.77,112.93l-.66,11.56c-.01.22.23.37.42.25l8.77-5.64c.16-.1.17-.34.01-.45l-8.1-5.92c-.18-.13-.42-.01-.44.21Z"/>
  </g>
</svg>