<?xml version="1.0" encoding="UTF-8"?>
<svg id="Layer_1" data-name="Layer 1" xmlns="http://www.w3.org/2000/svg" width="300" height="225" viewBox="0 0 300 225">
  <defs>
    <style>
      .cls-1 {
        fill: #fff;
      }

      .cls-2 {
        isolation: isolate;
        opacity: .35;
      }

      .cls-3 {
        fill: #232323;
      }

      .cls-4 {
        fill: #444;
      }

      .cls-5 {
        fill: #dda905;
      }

      .cls-6 {
        fill: #930000;
      }

      .cls-7 {
        fill: none;
      }

      .cls-8 {
        fill: #3ed033;
      }

      .cls-9 {
        fill: #7f7f7f;
      }

      .cls-10 {
        fill: #3050c4;
      }

      .cls-11 {
        fill: #f2f2f2;
      }

      .cls-12 {
        fill: #ffcf15;
      }

      .cls-13 {
        fill: #51453a;
      }
    </style>
  </defs>
  <g>
    <g class="cls-2">
      <ellipse class="cls-3" cx="150.31" cy="143.59" rx="35.56" ry="5.74"/>
    </g>
    <g>
      <g>
        <path class="cls-3" d="m149.17,106.99c-.13,1.02-3.46,29.92-8.37,33.98-4.92,4.06-7.5,2.7-8.51,1.62-1.05-1.12-2.38-3.15.07-5.44,1.97-1.84,3.34-9.98,1.35-22.68l15.46-7.48Z"/>
        <g>
          <path class="cls-3" d="m128.82,139.45c-.62.18-1.3.07-1.53-.34-.23-.42.14-1.14.88-1.49,2.01-.96,4.31-1.27,6.57-.84.84.16,1.18,1.04.8,1.83-.39.79-1.09,1.2-1.64,1-1.56-.57-3.34-.66-5.08-.15Z"/>
          <path class="cls-3" d="m129.79,143.05c-.54.34-1.23.43-1.56.1-.34-.34-.18-1.13.43-1.68,1.66-1.48,3.78-2.41,6.08-2.63.85-.07,1.43.68,1.27,1.54-.15.86-.71,1.45-1.3,1.41-1.66-.12-3.39.29-4.92,1.26Z"/>
          <path class="cls-3" d="m132.45,145.76c-.33.55-.89.94-1.35.8-.45-.15-.68-.92-.38-1.69.8-2.07,2.27-3.87,4.21-5.1.72-.46,1.58-.05,1.83.78.26.84.03,1.62-.51,1.85-1.53.65-2.89,1.81-3.81,3.36Z"/>
        </g>
      </g>
      <g>
        <path class="cls-3" d="m152.18,106.72c.13,1.02,3.57,29.91,8.5,33.95,4.93,4.04,7.51,2.67,8.51,1.59,1.04-1.13,2.36-3.16-.09-5.44-1.97-1.84-3.37-9.97-1.43-22.68l-15.48-7.43Z"/>
        <g>
          <path class="cls-3" d="m171.81,139.45c.62.18,1.3.07,1.52-.35.23-.42-.14-1.14-.88-1.49-2.01-.95-4.31-1.26-6.57-.82-.84.17-1.18,1.05-.79,1.83.39.79,1.1,1.19,1.64.99,1.56-.58,3.34-.68,5.08-.17Z"/>
          <path class="cls-3" d="m170.85,143.04c.54.34,1.23.43,1.56.09.34-.34.18-1.13-.43-1.67-1.67-1.47-3.79-2.4-6.09-2.6-.85-.07-1.43.68-1.27,1.54.16.86.72,1.45,1.3,1.41,1.66-.12,3.4.28,4.92,1.24Z"/>
          <path class="cls-3" d="m168.2,145.76c.33.55.9.94,1.35.79.45-.15.68-.93.38-1.69-.81-2.07-2.28-3.87-4.23-5.09-.73-.46-1.58-.05-1.83.79-.26.84-.02,1.62.52,1.85,1.53.65,2.89,1.79,3.82,3.35Z"/>
        </g>
      </g>
    </g>
    <path class="cls-4" d="m124.41,91.69c1.07-9.97,5.2-22.13,13.08-26.52,3.38-1.88,7.3-3.24,12.72-4.16,1.29.21,2.48.45,3.61.72.2.05.39.1.58.14.34.08.67.17.99.26.21.06.41.11.61.17.32.09.64.19.96.29.16.05.33.1.49.15.45.15.89.31,1.32.47.13.05.25.1.37.15.32.12.64.25.95.38.15.06.29.12.43.19.3.13.59.27.87.4.12.06.25.12.37.18.4.2.79.4,1.18.61,8.45,4.67,12.65,18.26,13.36,28.55.06,1.5.09,2.93.09,4.28,0,3.48-.22,6.37-.63,8.12-.02.08-.06.16-.08.24-2.1,9.57-12.66,16.86-25.41,16.88-14.27.03-25.85-9.06-25.87-20.31,0-.1,0-.21,0-.31-.22-2.9-.23-6.73,0-10.87Z"/>
    <path class="cls-1" d="m131.16,63.8c3.26-3.73,7.5-5.56,15.85-5.92.13,0,.27,0,.4-.01.42-.02.85-.03,1.29-.04.44,0,.88-.01,1.34-.02.05,0,.1,0,.15,0h.09s.06,0,.09,0c.48,0,.95,0,1.41.01.52,0,1.03.02,1.53.04.05,0,.1,0,.15,0,8.36.33,12.6,2.15,15.88,5.87,4.33,4.91,6.54,18.98,7,29.94-.72-10.28-4.92-23.88-13.36-28.55-3.38-1.87-7.32-3.22-12.73-4.11-5.41.92-9.34,2.28-12.72,4.16-8.43,4.7-12.58,18.31-13.25,28.6.41-10.96,2.57-25.03,6.88-29.96Z"/>
    <g>
      <path class="cls-3" d="m135.71,66.07c2.19-.59,4.49.42,5.18,2.8.69,2.37-1.18,5.59-4.23,6.44-8.66,2.4-17.41.37-24.12-5.61-2.36-2.1-2.62-5.82-.96-7.64,1.67-1.84,4.18-1.72,5.89-.23,5.08,4.52,11.7,6.06,18.25,4.24Z"/>
      <path class="cls-3" d="m107.99,62.16c-.46-.47-1.11-.71-1.53-.46-.41.25-.44,1.08.04,1.75,1.3,1.85,3.18,3.27,5.4,4,.83.27,1.57-.33,1.62-1.22.05-.89-.37-1.6-.96-1.7-1.67-.26-3.29-1.07-4.57-2.38Z"/>
      <path class="cls-3" d="m110.63,59.46c-.31-.57-.87-.99-1.34-.86-.47.13-.73.91-.45,1.7.74,2.13,2.15,4.02,4.08,5.35.72.49,1.6.11,1.89-.73.29-.84.09-1.64-.45-1.9-1.53-.72-2.87-1.94-3.74-3.56Z"/>
      <path class="cls-3" d="m112.03,58.07c-.46-.46-.7-1.12-.44-1.53.26-.41,1.08-.44,1.75.05,1.84,1.32,3.24,3.21,3.96,5.44.27.83-.35,1.56-1.23,1.6-.89.04-1.6-.38-1.69-.97-.25-1.67-1.05-3.3-2.35-4.6Z"/>
    </g>
    <g>
      <path class="cls-3" d="m165.41,66.07c-2.19-.59-4.49.42-5.18,2.8-.69,2.37,1.18,5.59,4.23,6.44,8.66,2.4,17.41.37,24.12-5.61,2.36-2.1,2.62-5.82.96-7.64-1.67-1.84-4.18-1.72-5.89-.23-5.08,4.52-11.7,6.06-18.25,4.24Z"/>
      <path class="cls-3" d="m193.13,62.16c.46-.47,1.11-.71,1.53-.46.41.25.44,1.08-.04,1.75-1.3,1.85-3.18,3.27-5.4,4-.83.27-1.57-.33-1.62-1.22-.05-.89.37-1.6.96-1.7,1.67-.26,3.29-1.07,4.57-2.38Z"/>
      <path class="cls-3" d="m190.49,59.46c.31-.57.87-.99,1.34-.86.47.13.73.91.45,1.7-.74,2.13-2.15,4.02-4.08,5.35-.72.49-1.6.11-1.89-.73-.29-.84-.09-1.64.45-1.9,1.53-.72,2.87-1.94,3.74-3.56Z"/>
      <path class="cls-3" d="m189.09,58.07c.46-.46.7-1.12.44-1.53-.26-.41-1.08-.44-1.76.05-1.84,1.32-3.24,3.21-3.96,5.44-.27.83.35,1.56,1.23,1.6.89.04,1.6-.38,1.69-.97.25-1.67,1.05-3.3,2.35-4.6Z"/>
    </g>
    <path class="cls-1" d="m150.35,24.91c4.61,0,9.99-1.83,13.04-2.6,3.57-.91,5.27-.94,7.9-.94,7.98-.01,10.44,4.17,11.11,5.87-5.26-16.16-21.91-18.4-31.74-18.38h-.81c-9.83.02-26.47,2.32-31.68,18.5.67-1.71,3.11-5.9,11.09-5.91,2.63,0,4.33.02,7.91.92,3.05.77,8.44,2.57,13.05,2.56h.13Z"/>
    <path class="cls-4" d="m118.2,27.36h-.03c.67-1.72,3.11-5.91,11.09-5.93,2.63,0,4.33.02,7.91.92,3.05.77,8.44,2.57,13.05,2.56h.13c4.61,0,9.99-1.83,13.04-2.6,3.57-.91,5.27-.94,7.9-.94,7.98-.01,10.44,4.17,11.11,5.87h-.03c1.69,1.63,2.82,5.88,2.68,10.84-.18,6.3-2.32,11.35-4.79,11.28-.05,0-.09-.02-.14-.02-5.72,11.55-21.43,16.93-29.69,16.95-8.25.01-24.1-5.31-29.9-16.84-.05,0-.1.02-.15.03-2.47.08-4.63-4.97-4.83-11.26-.16-4.97.95-9.22,2.64-10.84Z"/>
    <path class="cls-9" d="m150.38,57.93c4.17,0,13.01-3.89,13-12.37-.02-8.48-9.78-9.13-13.07-9.13-3.29,0-13.06.7-13.04,9.18.02,8.48,8.94,12.33,13.12,12.32Z"/>
    <path class="cls-3" d="m150.12,38.66c-1.81,0-4.49,1.9-4.8,4.11-.31,2.21,4.93,2.12,4.93,2.12h.15s5.24.07,4.92-2.14c-.32-2.2-3-4.09-4.82-4.09h-.39Z"/>
    <g>
      <circle class="cls-3" cx="163.67" cy="32.21" r="1.6"/>
      <path class="cls-3" d="m135.33,32.26c0,.89.72,1.6,1.6,1.6.88,0,1.6-.72,1.6-1.6,0-.89-.72-1.6-1.6-1.6-.89,0-1.6.72-1.6,1.61Z"/>
    </g>
    <path class="cls-3" d="m121.6,30.95c-2.03.08-3.68,3.92-4.3,9.33-.07-.68-.12-1.39-.14-2.12-.13-4.95,1.07-9.01,2.68-9.07.69-.03,1.33.68,1.86,1.88-.03,0-.06-.01-.1-.01Z"/>
    <path class="cls-3" d="m178.99,30.85c2.03.07,3.69,3.9,4.33,9.31.07-.68.12-1.39.13-2.12.11-4.95-1.1-9-2.71-9.06-.68-.02-1.33.69-1.85,1.88.03,0,.06-.01.09-.01Z"/>
    <path class="cls-9" d="m140.24,31.1c-.22,0-.43-.11-.54-.31-.24-.41-.56-.77-.94-1.07-.35-.26-2.33-.79-2.74-.73-.5.07-.97.23-1.4.48-.3.18-.69.08-.86-.22-.18-.3-.08-.69.22-.86.57-.34,1.2-.55,1.87-.64.75-.1,3.08.53,3.68.99.51.4.94.88,1.26,1.43.18.3.08.69-.22.86-.1.06-.21.09-.32.09Z"/>
    <path class="cls-9" d="m167.45,26.89c-.2,0-.39-.09-.51-.26-.28-.39-.63-.72-1.03-.98-.37-.23-2.39-.58-2.8-.49-.49.11-.95.31-1.35.6-.28.2-.68.14-.88-.15-.2-.28-.14-.68.15-.88.54-.39,1.15-.66,1.81-.81.73-.16,3.12.25,3.75.65.55.35,1.01.79,1.38,1.31.2.28.14.68-.15.88-.11.08-.24.12-.37.12Z"/>
    <g class="cls-2">
      <ellipse class="cls-3" cx="150.56" cy="211.41" rx="54.89" ry="8.86"/>
    </g>
    <g>
      <path class="cls-7" d="m219.75,126.08c1.1.45,1.93-.42,3.13-1.48,1.21-1.07-2.55-2.38-4.44-3.07-1.57-.57-1.75,0-2.21.18.27,1.1.52,2.21.73,3.33,1,.11,1.93.68,2.79,1.03Z"/>
      <path class="cls-7" d="m218.44,131.15c-.11-.22-.3-.37-.63-.45.14,1.28.24,2.57.31,3.86.72-1.3.52-3.03.32-3.41Z"/>
      <circle class="cls-10" cx="150" cy="138.08" r="72"/>
      <g>
        <path class="cls-8" d="m159.39,176c-.53-1.18-4.53-2.05-5.19-1.89-.85-.09-4.06-2.45-4.21-3.14.12-1.34-2.96-5.04-3.81-5.12-.43-.04-2.51-.71-3.42-2.38-1.11-1.92-5.89-3.54-7.38-3.69-1.27-.13-3.17-.55-4.59-1.38-1.21-.8-3.21-.1-5.42.57-.45.18-.89.36-1.1.34-.66.16-4.61-1.15-5.63-1.71-.19-.24-.24-2.05-.17-2.72.1-1.12-.04-1.81-.24-2.05-.17-.47-1.19-1.02-3.06-1.67-.4-.27-1.04-.33-1.23-.58.02-.22.29-.87.53-1.07.79-1.49,1.31-2.57.95-3.28-.19-.24-.38-.49-.6-.51-.83-.31-2.19.45-3.57,1.43-.68.38-1.59.96-1.8.94-.85-.09-2.27-.91-4.08-2.22-1-.78.63-4.44,1.44-6.16.3-.87.57-1.52.83-1.94.04-.45,2.23-.9,4.99-.61.85.09,1.93-.03,3.02-.14.87-.14,1.93-.02,2.57.04.42.04,1.17,1.25,1.53,1.96.75,1.2,1.3,2.16,1.94,2.23,1.08-.11,1.23-1.67,1.33-2.79.04-.44.06-.67.08-.89.27-.65,2.01-3.17,3.14-3.73,1.57-.74,3.75-3.44,3.48-5.05.06-.67,2.78-2.19,3.69-2.77.45-.18.68-.38.91-.58.23-.2.68-.38.91-.58.89-.36,2.23-.9,2.38-2.46.08-.89,2.89-1.06,4.61-1.1.42.04.87-.13,1.08-.11,1.08-.11,1.74-.27,2.02-.92.49-.63.12-1.34,0-2.25.02-.22-.17-.47-.15-.69-.49-1.63.02-2.48,1.38-3.24.68-.38,1.74-.27,2.83-.38,1.08-.11,2.36.02,3.69-.52.89-.36,1.36-.76,1.61-1.18.27-.65-.09-1.36-.45-2.08-.19-.25-.38-.49-.36-.71-.51-1.41-1.49-2.41-2.06-3.14-.38-.49-.64-2.32-.77-3.23-.15-.69-.09-1.36-.26-1.83-.17-.47-.36-.71-.77-.98-.81-.54-2.36-.02-3.25.34.02-.22-.15-.69-.13-.91.06-.67-.09-1.36-.49-1.63-.19-.25-.58-.74-1.15-1.47-.77-.98-1.72-2.21-2.51-2.96-.38-.49-.81-.53-1.23-.58-1.08.11-2.06,1.36-2.82,2.64-.02.22-.23.2-.25.42-1.46,1.88-1.82,3.42-1.04,4.17,0,0,.17.47-.32,1.09-.53,1.07-1.23,1.68-1.65,1.63-1.27-.13-1.63,1.41-2.01,3.17-.27.65-.36,1.54-.61,1.96-.19-.25-.53-1.18-.26-4.08l.04-.45c.04-.45-.15-.69-.34-.94-.38-.49-.83-.31-1.25-.35-.64-.07-.85-.09-1.04-.33-.53-1.18-3.59-2.85-4.83-3.43.17-1.78.35-3.79.38-4.02.49-.62,5.92-3.67,7.03-4,1.76-.49,6.05-2.75,6.75-3.36.68-.38.96-1.03,1-1.48-.09-1.36-2.34-2.5-3.15-3.03-.68-1.87-1.75-1.98-3.23-2.14-.64-.07-1.49-.15-2.53-.49-3.34-1.02-6.31-1.33-8.67-1.35-1.29.02-3.02-.21-4.52-.55-11.26,6.02-20.64,15.11-27.01,26.16.02,2.17-.31,4.68-1.53,6.81-3.07,5.31-3.5,14.51-2.42,16.65.9,1.9,6.11,10.32,6.88,11.3.58.73,1.94,6.74,2.1,7.43.15.69,3.51,6,7.34,6.39,2.36.02,4.98,1.86,6.59,2.94.81.53,1.4,1.05,1.83,1.09.21.02.38.49.55.96.53,1.18,1.24,2.83,3.26,4.17.6.51,1.21.8,1.6,1.29,2.02,1.34,4.83,3.43,4.79,3.88-.02.22-.49.62-.95,1.03-1.42,1.43-3.78,3.67-3.47,7.3.39,4.99,6.24,11.23,8.22,13.01,1.87.65.31,10.4-.7,12.1-.11.27-.23.63-.35,1.02,1.48.6,2.99,1.14,4.52,1.63l6.75-.17c.93-.8,1.65-1.63,1.91-2.06.23-.2.68-.38,1.12-.56,1.1-.34,2.23-.9,2.74-1.74.74-1.05,3.07-3.06,3.97-3.42,1.12-.56,9.21-6.71,9.74-7.78,1.31-2.57,3.33-5.74,4.24-6.32,1.83-1.16.57-3.77.01-4.73l-.19-.25Z"/>
        <path class="cls-8" d="m184.61,109.52c.15.52.73,1.96.36,2.58-.36.62-2.48,3.67-.36,3.46,2.12-.21,4.5-1.14,3.62-2.89-.88-1.76-1.91-3.2-2.27-4.18-.36-.98-.33-1.91-.33-1.91,0,0-1.17-1.29-1.79-1.19,0,0-1.19,1.03-.98,1.96.21.93,1.6,1.65,1.75,2.17Z"/>
        <path class="cls-8" d="m182.39,112.77c.62-.67,1.6-3.62-.52-3.05,0,0-2.22,2.53-2.22,3.05s2.12.67,2.74,0Z"/>
        <path class="cls-8" d="m206.15,102.54c.74-.14,1.38-.21,1.93-.24-1.01-1.64-2.1-3.24-3.24-4.79-.92,1.65-1.22,2.07-.85,2.91.41.93,0,2.53,2.17,2.12Z"/>
        <path class="cls-8" d="m183.93,118.13c.72.48,2.44,1.21,2.44,2.62s.48,2.58-.28,2.79c-.76.21-4.41-.48-5.1.97-.69,1.45-1.03,3.03-1.1,4.2-.07,1.17-.21,2.27,2.07,2.2,2.27-.07,3.79-.49,4.55-.97.76-.48.55-1.44,1.86-2.75,1.31-1.31,1.72-.76,1.79-1.86.07-1.1-.21-2.27.62-2.07.83.21,1.59-.76,2.48-.35.9.41,1.45-1.03,2.83.48,1.38,1.52,2.96,2.48,3.37,3.38.41.89,1.86,1.45,1.38,2.62-.48,1.17,1.45-2.1,1.34-3.03-.11-.93-1.97-2.27-2.21-2.65-.24-.38-1.48-2.44-.07-1.96,1.41.48,3.48,2.44,3.58,3.2.1.76,1.07,3.31,1.89,4.34.83,1.03,1.97,1.41,2.07,1.38.1-.03-.58-2.48-.07-3.55.52-1.07,1.69-1.52,2.17-1.24.48.28.55.76,1.1.41.55-.35,1.27-.69,1.17-1.72-.1-1.03.2-2.31.48-2.89.27-.59,1.2-2.48,1.72-1.69.52.79,1.07,1.75,1.86,1.79.14,0,.24-.02.34-.06-1.64-6.65-4.24-12.91-7.67-18.62-1.03.43-2.41,1.11-2.87,2.23-.78,1.86-.78,2.01-.98,3.15-.21,1.14-1.39,1.81-1.39,1.81l-6.1.98s-1.29-1.31-1.98-.83c-.69.48-1.55.72-2.48,1.38-.93.65-2.93,2.38-3.34,3.24-.41.86-1.45,1.69-3.1,2.1-1.65.41-3.1.48-2.38.96Z"/>
        <path class="cls-8" d="m192.1,106.37c1.29,0,3.15-1.65,3.41-1.24.26.41,1.81,3.62,2.9,3.41,1.08-.21,3.15-4.6,2.79-6.56-.36-1.96-.21-2.48.26-3.05.47-.57.26-2.69,1.86-2.79.15,0,.29-.03.43-.06-1.49-1.91-3.09-3.74-4.78-5.47-1.2,1.78-1.77,3.28-2.59,5.03-1.04,2.2-3.91,4.17-4.74,5.46-.83,1.29-.83,5.27.47,5.27Z"/>
        <path class="cls-8" d="m210.18,127.56c.14,1.72,1.72,4.34,4.41,3.58,1.7-.48,2.67-.58,3.23-.45-.21-1.91-.49-3.79-.85-5.64-.28-.03-.57-.03-.87.03-1.34.28-6.06.76-5.92,2.48Z"/>
        <path class="cls-8" d="m218.12,134.56c-.39.71-1.04,1.29-2.12,1.44,0,0-9.37-1.51-10.33-1.79-1.79-.27-.82,2.07-.82,2.62s-7.71-1.42-7.71-2.64,2.89-4.52-5.1-3.28c-7.99,1.24-10.19,2.81-12.26,6.02-2.07,3.21-7.03,4.31-6.75,10.24.28,5.92-1.1,6.48,2.34,9.64,3.44,3.17,3.44,5.92,13.23,3.17,9.78-2.75,3.86-.22,4.82,1.13.96,1.35,2.75.11,3.03,1.35.28,1.24-1.93,3.72.28,6.2,2.2,2.48,3.44,8.68,2.2,10.33-.88,1.18.25,3.32.84,5.75,10.84-11.55,17.7-26.88,18.4-43.8l.05-1.48c0-.46.02-.92.02-1.38,0-1.18-.03-2.35-.09-3.52Z"/>
      </g>
    </g>
    <path class="cls-3" d="m144.68,53.5c-.24,0-.46-.15-.54-.38-.1-.3.05-.62.35-.73l11.64-4.04c.3-.1.62.05.73.35.1.3-.05.62-.35.73l-11.64,4.04c-.06.02-.12.03-.19.03Z"/>
  </g>
  <g>
    <g class="cls-2">
      <path class="cls-3" d="m203.61,101.18c0,1.32-2.39,2.38-5.34,2.38s-5.34-1.07-5.34-2.38,2.39-2.38,5.34-2.38c2.95,0,5.34,1.07,5.34,2.38Z"/>
    </g>
    <g>
      <path class="cls-5" d="m204.24,100.06c0,1.24-2.33,2.24-5.2,2.24s-5.2-1-5.2-2.24v-2.24h10.41v2.24Z"/>
      <ellipse class="cls-12" cx="199.04" cy="97.82" rx="5.2" ry="2.24"/>
    </g>
  </g>
  <g>
    <g class="cls-2">
      <path class="cls-3" d="m186.87,113.69c0,1.32-2.39,2.38-5.34,2.38s-5.34-1.07-5.34-2.38,2.39-2.38,5.34-2.38c2.95,0,5.34,1.07,5.34,2.38Z"/>
    </g>
    <g>
      <path class="cls-5" d="m187.5,112.57c0,1.24-2.33,2.24-5.2,2.24s-5.2-1-5.2-2.24v-2.24h10.41v2.24Z"/>
      <ellipse class="cls-12" cx="182.3" cy="110.33" rx="5.2" ry="2.24"/>
    </g>
  </g>
  <g>
    <g class="cls-2">
      <path class="cls-3" d="m215.66,144.95c0,1.32-2.39,2.38-5.34,2.38s-5.34-1.07-5.34-2.38,2.39-2.38,5.34-2.38c2.95,0,5.34,1.07,5.34,2.38Z"/>
    </g>
    <g>
      <path class="cls-5" d="m216.3,143.83c0,1.24-2.33,2.24-5.2,2.24s-5.2-1-5.2-2.24v-2.24h10.41v2.24Z"/>
      <ellipse class="cls-12" cx="211.09" cy="141.59" rx="5.2" ry="2.24"/>
    </g>
  </g>
  <g>
    <g class="cls-2">
      <path class="cls-3" d="m181.63,159.77c0,1.32-2.39,2.38-5.34,2.38s-5.34-1.07-5.34-2.38,2.39-2.38,5.34-2.38c2.95,0,5.34,1.07,5.34,2.38Z"/>
    </g>
    <g>
      <path class="cls-5" d="m182.26,158.65c0,1.24-2.33,2.24-5.2,2.24s-5.2-1-5.2-2.24v-2.24h10.41v2.24Z"/>
      <ellipse class="cls-12" cx="177.06" cy="156.41" rx="5.2" ry="2.24"/>
    </g>
  </g>
  <g>
    <g class="cls-2">
      <path class="cls-3" d="m133.89,198.89c0,1.32-2.39,2.38-5.34,2.38s-5.34-1.07-5.34-2.38,2.39-2.38,5.34-2.38c2.95,0,5.34,1.07,5.34,2.38Z"/>
    </g>
    <g>
      <path class="cls-5" d="m134.52,197.77c0,1.24-2.33,2.24-5.2,2.24s-5.2-1-5.2-2.24v-2.24h10.41v2.24Z"/>
      <ellipse class="cls-12" cx="129.32" cy="195.54" rx="5.2" ry="2.24"/>
    </g>
  </g>
  <g>
    <g class="cls-2">
      <path class="cls-3" d="m156.29,187.21c0,1.32-2.39,2.38-5.34,2.38s-5.34-1.07-5.34-2.38,2.39-2.38,5.34-2.38c2.95,0,5.34,1.07,5.34,2.38Z"/>
    </g>
    <g>
      <path class="cls-5" d="m156.92,186.09c0,1.24-2.33,2.24-5.2,2.24s-5.2-1-5.2-2.24v-2.24h10.41v2.24Z"/>
      <ellipse class="cls-12" cx="151.72" cy="183.85" rx="5.2" ry="2.24"/>
    </g>
  </g>
  <g>
    <g class="cls-2">
      <path class="cls-3" d="m109.64,143.2c0,1.32-2.39,2.38-5.34,2.38s-5.34-1.07-5.34-2.38,2.39-2.38,5.34-2.38c2.95,0,5.34,1.07,5.34,2.38Z"/>
    </g>
    <g>
      <path class="cls-5" d="m110.27,142.08c0,1.24-2.33,2.24-5.2,2.24s-5.2-1-5.2-2.24v-2.24h10.41v2.24Z"/>
      <ellipse class="cls-12" cx="105.07" cy="139.84" rx="5.2" ry="2.24"/>
    </g>
  </g>
  <g>
    <g class="cls-2">
      <path class="cls-3" d="m100.3,128.87c0,1.32-2.39,2.38-5.34,2.38s-5.34-1.07-5.34-2.38,2.39-2.38,5.34-2.38c2.95,0,5.34,1.07,5.34,2.38Z"/>
    </g>
    <g>
      <path class="cls-5" d="m100.93,127.75c0,1.24-2.33,2.24-5.2,2.24s-5.2-1-5.2-2.24v-2.24h10.41v2.24Z"/>
      <ellipse class="cls-12" cx="95.73" cy="125.51" rx="5.2" ry="2.24"/>
    </g>
  </g>
  <g>
    <g class="cls-2">
      <path class="cls-3" d="m130.02,91.5c0,1.32-2.39,2.38-5.34,2.38s-5.34-1.07-5.34-2.38,2.39-2.38,5.34-2.38c2.95,0,5.34,1.07,5.34,2.38Z"/>
    </g>
    <g>
      <path class="cls-5" d="m130.65,90.38c0,1.24-2.33,2.24-5.2,2.24s-5.2-1-5.2-2.24v-2.24h10.41v2.24Z"/>
      <ellipse class="cls-12" cx="125.45" cy="88.14" rx="5.2" ry="2.24"/>
    </g>
  </g>
  <g>
    <g>
      <g class="cls-2">
        <path class="cls-3" d="m209.1,120.53c0,1.32-2.39,2.38-5.34,2.38s-5.34-1.07-5.34-2.38,2.39-2.38,5.34-2.38c2.95,0,5.34,1.07,5.34,2.38Z"/>
      </g>
      <g>
        <path class="cls-5" d="m209.73,119.41c0,1.24-2.33,2.24-5.2,2.24s-5.2-1-5.2-2.24v-2.24h10.41v2.24Z"/>
        <ellipse class="cls-12" cx="204.52" cy="117.17" rx="5.2" ry="2.24"/>
      </g>
    </g>
    <g>
      <path class="cls-5" d="m207.65,118.42c0,1.24-2.33,2.24-5.2,2.24s-5.2-1-5.2-2.24v-2.24h10.41v2.24Z"/>
      <ellipse class="cls-12" cx="202.45" cy="116.19" rx="5.2" ry="2.24"/>
    </g>
    <g>
      <path class="cls-5" d="m208.57,115.03c0,1.24-2.33,2.24-5.2,2.24s-5.2-1-5.2-2.24v-2.24h10.41v2.24Z"/>
      <ellipse class="cls-12" cx="203.36" cy="112.8" rx="5.2" ry="2.24"/>
    </g>
  </g>
  <g>
    <g class="cls-2">
      <path class="cls-3" d="m202.43,123.25c0,1.32-2.39,2.38-5.34,2.38s-5.34-1.07-5.34-2.38,2.39-2.38,5.34-2.38c2.95,0,5.34,1.07,5.34,2.38Z"/>
    </g>
    <g>
      <path class="cls-5" d="m203.06,122.13c0,1.24-2.33,2.24-5.2,2.24s-5.2-1-5.2-2.24v-2.24h10.41v2.24Z"/>
      <ellipse class="cls-12" cx="197.85" cy="119.89" rx="5.2" ry="2.24"/>
    </g>
  </g>
  <g>
    <g>
      <g class="cls-2">
        <path class="cls-3" d="m121.92,116.62c0,1.32-2.39,2.38-5.34,2.38s-5.34-1.07-5.34-2.38,2.39-2.38,5.34-2.38c2.95,0,5.34,1.07,5.34,2.38Z"/>
      </g>
      <g>
        <path class="cls-5" d="m122.55,115.5c0,1.24-2.33,2.24-5.2,2.24s-5.2-1-5.2-2.24v-2.24h10.41v2.24Z"/>
        <ellipse class="cls-12" cx="117.35" cy="113.26" rx="5.2" ry="2.24"/>
      </g>
    </g>
    <g>
      <path class="cls-5" d="m120.47,114.52c0,1.24-2.33,2.24-5.2,2.24s-5.2-1-5.2-2.24v-2.24h10.41v2.24Z"/>
      <ellipse class="cls-12" cx="115.27" cy="112.28" rx="5.2" ry="2.24"/>
    </g>
    <g>
      <path class="cls-5" d="m121.39,111.13c0,1.24-2.33,2.24-5.2,2.24s-5.2-1-5.2-2.24v-2.24h10.41v2.24Z"/>
      <ellipse class="cls-12" cx="116.19" cy="108.89" rx="5.2" ry="2.24"/>
    </g>
  </g>
  <g>
    <g class="cls-2">
      <path class="cls-3" d="m117.7,119.35c0,1.32-2.39,2.38-5.34,2.38s-5.34-1.07-5.34-2.38,2.39-2.38,5.34-2.38c2.95,0,5.34,1.07,5.34,2.38Z"/>
    </g>
    <g>
      <path class="cls-5" d="m118.33,118.23c0,1.24-2.33,2.24-5.2,2.24s-5.2-1-5.2-2.24v-2.24h10.41v2.24Z"/>
      <ellipse class="cls-12" cx="113.13" cy="115.99" rx="5.2" ry="2.24"/>
    </g>
  </g>
  <g>
    <g>
      <g class="cls-2">
        <path class="cls-3" d="m215.22,167.58c0,1.32-2.39,2.38-5.34,2.38s-5.34-1.07-5.34-2.38,2.39-2.38,5.34-2.38c2.95,0,5.34,1.07,5.34,2.38Z"/>
      </g>
      <g>
        <path class="cls-5" d="m215.85,166.46c0,1.24-2.33,2.24-5.2,2.24s-5.2-1-5.2-2.24v-2.24h10.41v2.24Z"/>
        <ellipse class="cls-12" cx="210.64" cy="164.22" rx="5.2" ry="2.24"/>
      </g>
    </g>
    <g>
      <path class="cls-5" d="m213.77,165.47c0,1.24-2.33,2.24-5.2,2.24s-5.2-1-5.2-2.24v-2.24h10.41v2.24Z"/>
      <ellipse class="cls-12" cx="208.57" cy="163.23" rx="5.2" ry="2.24"/>
    </g>
    <g>
      <path class="cls-5" d="m214.69,162.08c0,1.24-2.33,2.24-5.2,2.24s-5.2-1-5.2-2.24v-2.24h10.41v2.24Z"/>
      <ellipse class="cls-12" cx="209.48" cy="159.84" rx="5.2" ry="2.24"/>
    </g>
  </g>
  <g>
    <g class="cls-2">
      <path class="cls-3" d="m211,170.3c0,1.32-2.39,2.38-5.34,2.38s-5.34-1.07-5.34-2.38,2.39-2.38,5.34-2.38c2.95,0,5.34,1.07,5.34,2.38Z"/>
    </g>
    <g>
      <path class="cls-5" d="m211.63,169.18c0,1.24-2.33,2.24-5.2,2.24s-5.2-1-5.2-2.24v-2.24h10.41v2.24Z"/>
      <ellipse class="cls-12" cx="206.42" cy="166.94" rx="5.2" ry="2.24"/>
    </g>
  </g>
  <g>
    <g>
      <g class="cls-2">
        <path class="cls-3" d="m137.65,166.46c0,1.32-2.39,2.38-5.34,2.38s-5.34-1.07-5.34-2.38,2.39-2.38,5.34-2.38c2.95,0,5.34,1.07,5.34,2.38Z"/>
      </g>
      <g>
        <path class="cls-5" d="m138.28,165.34c0,1.24-2.33,2.24-5.2,2.24s-5.2-1-5.2-2.24v-2.24h10.41v2.24Z"/>
        <ellipse class="cls-12" cx="133.08" cy="163.1" rx="5.2" ry="2.24"/>
      </g>
    </g>
    <g>
      <path class="cls-5" d="m136.2,164.35c0,1.24-2.33,2.24-5.2,2.24s-5.2-1-5.2-2.24v-2.24h10.41v2.24Z"/>
      <ellipse class="cls-12" cx="131" cy="162.12" rx="5.2" ry="2.24"/>
    </g>
    <g>
      <path class="cls-5" d="m137.12,160.96c0,1.24-2.33,2.24-5.2,2.24s-5.2-1-5.2-2.24v-2.24h10.41v2.24Z"/>
      <ellipse class="cls-12" cx="131.91" cy="158.73" rx="5.2" ry="2.24"/>
    </g>
  </g>
  <g>
    <g>
      <g class="cls-2">
        <path class="cls-3" d="m131.78,168.94c0,1.32-2.39,2.38-5.34,2.38s-5.34-1.07-5.34-2.38,2.39-2.38,5.34-2.38c2.95,0,5.34,1.07,5.34,2.38Z"/>
      </g>
      <g>
        <path class="cls-5" d="m132.41,167.82c0,1.24-2.33,2.24-5.2,2.24s-5.2-1-5.2-2.24v-2.24h10.41v2.24Z"/>
        <ellipse class="cls-12" cx="127.21" cy="165.58" rx="5.2" ry="2.24"/>
      </g>
    </g>
    <g>
      <path class="cls-5" d="m130.34,166.84c0,1.24-2.33,2.24-5.2,2.24s-5.2-1-5.2-2.24v-2.24h10.41v2.24Z"/>
      <ellipse class="cls-12" cx="125.13" cy="164.6" rx="5.2" ry="2.24"/>
    </g>
    <g>
      <path class="cls-5" d="m131.25,163.45c0,1.24-2.33,2.24-5.2,2.24s-5.2-1-5.2-2.24v-2.24h10.41v2.24Z"/>
      <ellipse class="cls-12" cx="126.05" cy="161.21" rx="5.2" ry="2.24"/>
    </g>
  </g>
  <g>
    <path class="cls-5" d="m215.92,161.7c0,1.24-2.33,2.24-5.2,2.24s-5.2-1-5.2-2.24v-2.24h10.41v2.24Z"/>
    <ellipse class="cls-12" cx="210.72" cy="159.46" rx="5.2" ry="2.24"/>
  </g>
  <g>
    <path class="cls-5" d="m213.26,158.81c0,1.24-2.33,2.24-5.2,2.24s-5.2-1-5.2-2.24v-2.24h10.41v2.24Z"/>
    <ellipse class="cls-12" cx="208.05" cy="156.57" rx="5.2" ry="2.24"/>
  </g>
  <g>
    <path class="cls-5" d="m215.08,156.25c0,1.24-2.33,2.24-5.2,2.24s-5.2-1-5.2-2.24v-2.24h10.41v2.24Z"/>
    <ellipse class="cls-12" cx="209.88" cy="154.01" rx="5.2" ry="2.24"/>
  </g>
  <g>
    <path class="cls-5" d="m217.66,154.5c0,1.24-2.33,2.24-5.2,2.24s-5.2-1-5.2-2.24v-2.24h10.41v2.24Z"/>
    <ellipse class="cls-12" cx="212.45" cy="152.26" rx="5.2" ry="2.24"/>
  </g>
  <g>
    <path class="cls-5" d="m209.74,113.01c0,1.24-2.33,2.24-5.2,2.24s-5.2-1-5.2-2.24v-2.24h10.41v2.24Z"/>
    <ellipse class="cls-12" cx="204.54" cy="110.78" rx="5.2" ry="2.24"/>
  </g>
  <g>
    <path class="cls-5" d="m210.72,110.01c0,1.24-2.33,2.24-5.2,2.24s-5.2-1-5.2-2.24v-2.24h10.41v2.24Z"/>
    <ellipse class="cls-12" cx="205.52" cy="107.77" rx="5.2" ry="2.24"/>
  </g>
  <g>
    <path class="cls-5" d="m119.95,107.77c0,1.24-2.33,2.24-5.2,2.24s-5.2-1-5.2-2.24v-2.24h10.41v2.24Z"/>
    <ellipse class="cls-12" cx="114.75" cy="105.53" rx="5.2" ry="2.24"/>
  </g>
  <g>
    <path class="cls-5" d="m132.17,159.93c0,1.24-2.33,2.24-5.2,2.24s-5.2-1-5.2-2.24v-2.24h10.41v2.24Z"/>
    <ellipse class="cls-12" cx="126.97" cy="157.69" rx="5.2" ry="2.24"/>
  </g>
  <g>
    <path class="cls-5" d="m133.08,156.57c0,1.24-2.33,2.24-5.2,2.24s-5.2-1-5.2-2.24v-2.24h10.41v2.24Z"/>
    <ellipse class="cls-12" cx="127.87" cy="154.33" rx="5.2" ry="2.24"/>
  </g>
  <g>
    <path class="cls-5" d="m204.73,119.26c0,1.24-2.33,2.24-5.2,2.24s-5.2-1-5.2-2.24v-2.24h10.41v2.24Z"/>
    <ellipse class="cls-12" cx="199.52" cy="117.02" rx="5.2" ry="2.24"/>
  </g>
  <g>
    <path class="cls-5" d="m205.73,115.26c0,1.24-2.33,2.24-5.2,2.24s-5.2-1-5.2-2.24v-2.24h10.41v2.24Z"/>
    <ellipse class="cls-12" cx="200.52" cy="113.02" rx="5.2" ry="2.24"/>
  </g>
  <g>
    <path class="cls-1" d="m102.43,125.47c-.26,0-.51-.12-.66-.35-.25-.37-.15-.86.21-1.11l1.04-.71c.36-.25.86-.15,1.11.21.25.37.15.86-.21,1.11l-1.04.71c-.14.09-.29.14-.45.14Zm5.67-3.86c-.26,0-.51-.12-.66-.35-.25-.37-.15-.86.21-1.11l2.65-1.8c.37-.25.86-.15,1.11.21.25.37.15.86-.21,1.11l-2.65,1.8c-.14.09-.29.14-.45.14Z"/>
    <path class="cls-1" d="m118.61,103.41c-.1,0-.2-.02-.29-.06-.41-.16-.61-.63-.45-1.04l.22-.56c.16-.41.63-.61,1.04-.45.41.16.61.63.45,1.04l-.22.56c-.12.32-.43.51-.74.51Zm2.27-5.77c-.1,0-.2-.02-.29-.06-.41-.16-.61-.63-.45-1.04l1.17-2.98c.16-.41.63-.61,1.04-.45.41.16.61.63.45,1.04l-1.17,2.98c-.12.31-.43.51-.74.51Z"/>
    <path class="cls-13" d="m204.12,153.91c-.39,0-.73-.29-.79-.69l-.45-3.17c-.06-.44.24-.84.68-.9.44-.06.84.24.9.68l.45,3.17c.06.44-.24.84-.68.9-.04,0-.08,0-.11,0Zm-1.24-8.71c-.39,0-.73-.29-.79-.69l-.45-3.17c-.06-.44.24-.84.68-.9.44-.06.84.24.9.68l.45,3.17c.06.44-.24.84-.68.9-.04,0-.08,0-.11,0Zm-1.24-8.71c-.39,0-.73-.29-.79-.69l-.45-3.17c-.06-.44.24-.84.68-.9.44-.06.84.24.9.68l.45,3.17c.06.44-.24.84-.68.9-.04,0-.08,0-.11,0Zm-1.24-8.71c-.39,0-.73-.29-.79-.69l-.45-3.17c-.06-.44.24-.84.68-.9.44-.06.84.24.9.68l.45,3.17c.06.44-.24.84-.68.9-.04,0-.08,0-.11,0Z"/>
    <path class="cls-13" d="m139.97,158.73c-.27,0-.52-.13-.68-.37-.24-.37-.13-.87.25-1.1l2.7-1.71c.37-.24.87-.13,1.1.25.24.37.13.87-.25,1.1l-2.7,1.71c-.13.08-.28.12-.43.12Zm7.44-4.71c-.27,0-.52-.13-.68-.37-.24-.37-.13-.87.25-1.1l2.7-1.71c.37-.24.87-.13,1.1.25.24.37.13.87-.25,1.1l-2.7,1.71c-.13.08-.28.12-.43.12Zm7.44-4.71c-.27,0-.52-.13-.68-.37-.24-.37-.13-.87.25-1.1l2.7-1.71c.37-.24.87-.13,1.1.25.24.37.13.87-.25,1.1l-2.7,1.71c-.13.08-.28.12-.43.12Zm7.44-4.71c-.27,0-.52-.13-.68-.37-.24-.37-.13-.87.25-1.1l2.7-1.71c.37-.24.87-.13,1.1.25.24.37.13.87-.25,1.1l-2.7,1.71c-.13.08-.28.12-.43.12Zm7.44-4.71c-.27,0-.52-.13-.68-.37-.24-.37-.13-.87.25-1.1l2.7-1.71c.37-.24.87-.13,1.1.25.24.37.13.87-.25,1.1l-2.7,1.71c-.13.08-.28.12-.43.12Zm7.44-4.71c-.27,0-.52-.13-.68-.37-.24-.37-.13-.87.25-1.1l2.7-1.71c.37-.24.87-.13,1.1.25.24.37.13.87-.25,1.1l-2.7,1.71c-.13.08-.28.12-.43.12Zm7.44-4.71c-.27,0-.52-.13-.68-.37-.24-.37-.13-.87.25-1.1l2.7-1.71c.37-.24.87-.13,1.1.25.24.37.13.87-.25,1.1l-2.7,1.71c-.13.08-.28.12-.43.12Zm7.44-4.71c-.27,0-.52-.13-.68-.37-.24-.37-.13-.87.25-1.1l2.7-1.71c.37-.24.87-.12,1.1.25s.13.87-.25,1.1l-2.7,1.71c-.13.08-.28.12-.43.12Z"/>
    <path class="cls-13" d="m191.04,119.34s-.04,0-.05,0l-3.19-.21c-.44-.03-.77-.41-.75-.85.03-.44.41-.77.85-.75l3.19.21c.44.03.77.41.75.85-.03.42-.38.75-.8.75Zm-8.78-.58s-.04,0-.05,0l-3.19-.21c-.44-.03-.77-.41-.75-.85.03-.44.41-.76.85-.75l3.19.21c.44.03.77.41.75.85-.03.42-.38.75-.8.75Zm-8.78-.58s-.04,0-.05,0l-3.19-.21c-.44-.03-.77-.41-.75-.85.03-.44.41-.77.85-.75l3.19.21c.44.03.77.41.75.85-.03.42-.38.75-.8.75Zm-8.78-.58s-.04,0-.05,0l-3.19-.21c-.44-.03-.77-.41-.75-.85.03-.44.41-.77.85-.75l3.19.21c.44.03.77.41.75.85-.03.42-.38.75-.8.75Zm-8.78-.58s-.04,0-.05,0l-3.19-.21c-.44-.03-.77-.41-.75-.85.03-.44.41-.77.85-.75l3.19.21c.44.03.77.41.75.85-.03.42-.38.75-.8.75Zm-8.78-.58s-.04,0-.05,0l-3.19-.21c-.44-.03-.77-.41-.75-.85.03-.44.41-.77.85-.75l3.19.21c.44.03.77.41.75.85-.03.42-.38.75-.8.75Zm-8.78-.58s-.04,0-.05,0l-3.19-.21c-.44-.03-.77-.41-.75-.85.03-.44.41-.77.85-.75l3.19.21c.44.03.77.41.75.85-.03.42-.38.75-.8.75Zm-8.78-.58s-.04,0-.05,0l-3.19-.21c-.44-.03-.77-.41-.75-.85.03-.44.41-.76.85-.75l3.19.21c.44.03.77.41.75.85-.03.42-.38.75-.8.75Z"/>
    <path class="cls-1" d="m199.52,105.97c-.44,0-.8-.36-.8-.8v-3.2c0-.44.36-.8.8-.8s.8.36.8.8v3.2c0,.44-.36.8-.8.8Z"/>
    <path class="cls-1" d="m191.96,116.54c-.12,0-.24-.03-.35-.08l-2.87-1.41c-.4-.2-.56-.67-.36-1.07.2-.4.68-.56,1.07-.36l2.87,1.41c.4.2.56.67.36,1.07-.14.28-.42.45-.72.45Z"/>
    <path class="cls-1" d="m111.07,132.18c-.12,0-.23-.03-.35-.08-.4-.19-.57-.67-.38-1.07l1.06-2.21c.19-.4.67-.57,1.07-.38.4.19.57.67.38,1.07l-1.06,2.21c-.14.29-.42.45-.72.45Zm3.48-7.26c-.12,0-.23-.03-.35-.08-.4-.19-.57-.67-.38-1.07l1.38-2.89c.19-.4.67-.57,1.07-.38.4.19.57.67.38,1.07l-1.38,2.89c-.14.29-.42.45-.72.45Z"/>
    <g>
      <polyline class="cls-11" points="130.14 92 130.14 90.95 118.38 90.95 118.38 92"/>
      <rect class="cls-11" x="119.45" y="89.98" width="9.61" height="1.04"/>
      <rect class="cls-11" x="119.45" y="85.48" width="9.61" height=".85"/>
      <rect class="cls-11" x="119.98" y="86.32" width="1.37" height="4.03"/>
      <rect class="cls-11" x="122.05" y="86.32" width="1.37" height="4.03"/>
      <rect class="cls-11" x="125.22" y="86.32" width="1.37" height="4.03"/>
      <rect class="cls-11" x="127.29" y="86.32" width="1.37" height="4.03"/>
      <polygon class="cls-11" points="119.69 85.89 124.26 81.32 128.84 85.9 119.69 85.89"/>
    </g>
    <g>
      <polyline class="cls-11" points="112 142.36 112 141.32 100.24 141.32 100.24 142.36"/>
      <rect class="cls-11" x="101.31" y="140.35" width="9.61" height="1.04"/>
      <rect class="cls-11" x="101.31" y="135.84" width="9.61" height=".85"/>
      <rect class="cls-11" x="101.84" y="136.69" width="1.37" height="4.03"/>
      <rect class="cls-11" x="103.91" y="136.69" width="1.37" height="4.03"/>
      <rect class="cls-11" x="107.08" y="136.69" width="1.37" height="4.03"/>
      <rect class="cls-11" x="109.15" y="136.69" width="1.37" height="4.03"/>
      <polygon class="cls-11" points="101.55 136.25 106.12 131.69 110.7 136.27 101.55 136.25"/>
    </g>
    <g>
      <polyline class="cls-13" points="134.72 167.26 134.72 166.21 122.96 166.21 122.96 167.26"/>
      <rect class="cls-13" x="124.03" y="165.24" width="9.61" height="1.04"/>
      <rect class="cls-13" x="124.03" y="160.74" width="9.61" height=".85"/>
      <rect class="cls-13" x="124.56" y="161.58" width="1.37" height="4.03"/>
      <rect class="cls-13" x="126.63" y="161.58" width="1.37" height="4.03"/>
      <rect class="cls-13" x="129.8" y="161.58" width="1.37" height="4.03"/>
      <rect class="cls-13" x="131.87" y="161.58" width="1.37" height="4.03"/>
      <polygon class="cls-13" points="124.27 161.14 128.84 156.58 133.42 161.16 124.27 161.14"/>
    </g>
    <g>
      <polyline class="cls-11" points="136.83 196.37 136.83 195.33 125.07 195.33 125.07 196.37"/>
      <rect class="cls-11" x="126.15" y="194.35" width="9.61" height="1.04"/>
      <rect class="cls-11" x="126.15" y="189.85" width="9.61" height=".85"/>
      <rect class="cls-11" x="126.67" y="190.7" width="1.37" height="4.03"/>
      <rect class="cls-11" x="128.74" y="190.7" width="1.37" height="4.03"/>
      <rect class="cls-11" x="131.91" y="190.7" width="1.37" height="4.03"/>
      <rect class="cls-11" x="133.99" y="190.7" width="1.37" height="4.03"/>
      <polygon class="cls-11" points="126.39 190.26 130.95 185.69 135.53 190.27 126.39 190.26"/>
    </g>
    <g>
      <polyline class="cls-11" points="157.12 185.69 157.12 184.65 145.36 184.65 145.36 185.69"/>
      <rect class="cls-11" x="146.44" y="183.67" width="9.61" height="1.04"/>
      <rect class="cls-11" x="146.44" y="179.17" width="9.61" height=".85"/>
      <rect class="cls-11" x="146.96" y="180.02" width="1.37" height="4.03"/>
      <rect class="cls-11" x="149.03" y="180.02" width="1.37" height="4.03"/>
      <rect class="cls-11" x="152.2" y="180.02" width="1.37" height="4.03"/>
      <rect class="cls-11" x="154.28" y="180.02" width="1.37" height="4.03"/>
      <polygon class="cls-11" points="146.68 179.58 151.24 175.02 155.82 179.6 146.68 179.58"/>
    </g>
    <g>
      <polyline class="cls-13" points="122.17 117.24 122.17 116.2 110.4 116.2 110.4 117.24"/>
      <rect class="cls-13" x="111.48" y="115.22" width="9.61" height="1.04"/>
      <rect class="cls-13" x="111.48" y="110.72" width="9.61" height=".85"/>
      <rect class="cls-13" x="112" y="111.57" width="1.37" height="4.03"/>
      <rect class="cls-13" x="114.08" y="111.57" width="1.37" height="4.03"/>
      <rect class="cls-13" x="117.25" y="111.57" width="1.37" height="4.03"/>
      <rect class="cls-13" x="119.32" y="111.57" width="1.37" height="4.03"/>
      <polygon class="cls-13" points="111.72 111.13 116.28 106.56 120.86 111.14 111.72 111.13"/>
    </g>
    <g>
      <polyline class="cls-11" points="186.66 112.42 186.66 111.37 174.89 111.37 174.89 112.42"/>
      <rect class="cls-11" x="175.97" y="110.4" width="9.61" height="1.04"/>
      <rect class="cls-11" x="175.97" y="105.9" width="9.61" height=".85"/>
      <rect class="cls-11" x="176.49" y="106.74" width="1.37" height="4.03"/>
      <rect class="cls-11" x="178.57" y="106.74" width="1.37" height="4.03"/>
      <rect class="cls-11" x="181.73" y="106.74" width="1.37" height="4.03"/>
      <rect class="cls-11" x="183.81" y="106.74" width="1.37" height="4.03"/>
      <polygon class="cls-11" points="176.21 106.3 180.77 101.74 185.35 106.32 176.21 106.3"/>
    </g>
    <g>
      <polyline class="cls-11" points="204.45 99.2 204.45 98.15 192.68 98.15 192.68 99.2"/>
      <rect class="cls-11" x="193.76" y="97.18" width="9.61" height="1.04"/>
      <rect class="cls-11" x="193.76" y="92.68" width="9.61" height=".85"/>
      <rect class="cls-11" x="194.28" y="93.52" width="1.37" height="4.03"/>
      <rect class="cls-11" x="196.36" y="93.52" width="1.37" height="4.03"/>
      <rect class="cls-11" x="199.52" y="93.52" width="1.37" height="4.03"/>
      <rect class="cls-11" x="201.6" y="93.52" width="1.37" height="4.03"/>
      <polygon class="cls-11" points="194 93.09 198.56 88.52 203.14 93.1 194 93.09"/>
    </g>
    <g>
      <polyline class="cls-11" points="183.3 159.9 183.3 158.85 171.54 158.85 171.54 159.9"/>
      <rect class="cls-11" x="172.62" y="157.88" width="9.61" height="1.04"/>
      <rect class="cls-11" x="172.62" y="153.38" width="9.61" height=".85"/>
      <rect class="cls-11" x="173.14" y="154.22" width="1.37" height="4.03"/>
      <rect class="cls-11" x="175.21" y="154.22" width="1.37" height="4.03"/>
      <rect class="cls-11" x="178.38" y="154.22" width="1.37" height="4.03"/>
      <rect class="cls-11" x="180.46" y="154.22" width="1.37" height="4.03"/>
      <polygon class="cls-11" points="172.86 153.78 177.42 149.22 182 153.8 172.86 153.78"/>
    </g>
    <g>
      <polyline class="cls-13" points="213.93 165.24 213.93 164.19 202.17 164.19 202.17 165.24"/>
      <rect class="cls-13" x="203.25" y="163.22" width="9.61" height="1.04"/>
      <rect class="cls-13" x="203.25" y="158.72" width="9.61" height=".85"/>
      <rect class="cls-13" x="203.77" y="159.56" width="1.37" height="4.03"/>
      <rect class="cls-13" x="205.84" y="159.56" width="1.37" height="4.03"/>
      <rect class="cls-13" x="209.01" y="159.56" width="1.37" height="4.03"/>
      <rect class="cls-13" x="211.09" y="159.56" width="1.37" height="4.03"/>
      <polygon class="cls-13" points="203.49 159.12 208.05 154.56 212.63 159.14 203.49 159.12"/>
    </g>
    <g>
      <polyline class="cls-11" points="216.97 142.9 216.97 141.85 205.21 141.85 205.21 142.9"/>
      <rect class="cls-11" x="206.28" y="140.88" width="9.61" height="1.04"/>
      <rect class="cls-11" x="206.28" y="136.38" width="9.61" height=".85"/>
      <rect class="cls-11" x="206.8" y="137.22" width="1.37" height="4.03"/>
      <rect class="cls-11" x="208.88" y="137.22" width="1.37" height="4.03"/>
      <rect class="cls-11" x="212.05" y="137.22" width="1.37" height="4.03"/>
      <rect class="cls-11" x="214.12" y="137.22" width="1.37" height="4.03"/>
      <polygon class="cls-11" points="206.52 136.78 211.09 132.22 215.66 136.8 206.52 136.78"/>
    </g>
    <g>
      <polyline class="cls-6" points="205.41 120.56 205.41 119.51 193.64 119.51 193.64 120.56"/>
      <rect class="cls-6" x="194.72" y="118.54" width="9.61" height="1.04"/>
      <rect class="cls-6" x="194.72" y="114.04" width="9.61" height=".85"/>
      <rect class="cls-6" x="195.24" y="114.88" width="1.37" height="4.03"/>
      <rect class="cls-6" x="197.32" y="114.88" width="1.37" height="4.03"/>
      <rect class="cls-6" x="200.48" y="114.88" width="1.37" height="4.03"/>
      <rect class="cls-6" x="202.56" y="114.88" width="1.37" height="4.03"/>
      <polygon class="cls-6" points="194.96 114.45 199.52 109.88 204.1 114.46 194.96 114.45"/>
    </g>
    <g>
      <polyline class="cls-11" points="101.98 128.33 101.98 127.28 90.21 127.28 90.21 128.33"/>
      <rect class="cls-11" x="91.29" y="126.31" width="9.61" height="1.04"/>
      <rect class="cls-11" x="91.29" y="121.81" width="9.61" height=".85"/>
      <rect class="cls-11" x="91.81" y="122.65" width="1.37" height="4.03"/>
      <rect class="cls-11" x="93.89" y="122.65" width="1.37" height="4.03"/>
      <rect class="cls-11" x="97.05" y="122.65" width="1.37" height="4.03"/>
      <rect class="cls-11" x="99.13" y="122.65" width="1.37" height="4.03"/>
      <polygon class="cls-11" points="91.53 122.22 96.09 117.65 100.67 122.23 91.53 122.22"/>
    </g>
    <path class="cls-1" d="m130.78,182.7c-.4,0-.75-.3-.79-.71l-.36-3.18c-.05-.44.27-.84.7-.89.44-.05.84.27.89.7l.36,3.18c.05.44-.27.84-.7.89-.03,0-.06,0-.09,0Zm-.99-8.74c-.4,0-.75-.3-.79-.71l-.36-3.18c-.05-.44.27-.84.7-.89.44-.05.84.27.89.7l.36,3.18c.05.44-.27.84-.7.89-.03,0-.06,0-.09,0Z"/>
    <path class="cls-1" d="m145.69,176.67c-.15,0-.29-.04-.42-.12l-2.71-1.7c-.37-.23-.49-.73-.25-1.1s.73-.49,1.1-.25l2.71,1.7c.37.23.49.73.25,1.1-.15.24-.41.37-.68.37Zm-7.45-4.68c-.15,0-.29-.04-.43-.12l-2.71-1.7c-.37-.23-.49-.73-.25-1.1.23-.37.73-.49,1.1-.25l2.71,1.7c.37.23.49.73.25,1.1-.15.24-.41.37-.68.37Z"/>
    <path class="cls-1" d="m210.15,148.99c-.44,0-.8-.36-.8-.8v-3.2c0-.44.36-.8.8-.8s.8.36.8.8v3.2c0,.44-.36.8-.8.8Z"/>
    <path class="cls-1" d="m202.17,161.96c-.07,0-.15-.01-.22-.03l-3.08-.88c-.42-.12-.67-.57-.55-.99.12-.43.57-.67.99-.55l3.08.88c.42.12.67.57.55.99-.1.35-.42.58-.77.58Zm-8.46-2.43c-.07,0-.15-.01-.22-.03l-3.08-.88c-.42-.12-.67-.57-.55-.99.12-.42.56-.67.99-.55l3.08.88c.42.12.67.57.55.99-.1.35-.42.58-.77.58Zm-8.46-2.43c-.07,0-.15-.01-.22-.03l-.21-.06c-.42-.12-.67-.57-.55-.99.12-.42.57-.67.99-.55l.21.06c.42.12.67.57.55.99-.1.35-.42.58-.77.58Z"/>
  </g>
</svg>