<?xml version="1.0" encoding="UTF-8"?>
<svg id="Layer_1" data-name="Layer 1" xmlns="http://www.w3.org/2000/svg" width="300" height="225" viewBox="0 0 300 225">
  <defs>
    <style>
      .cls-1 {
        fill: #fff;
      }

      .cls-2 {
        isolation: isolate;
        opacity: .35;
      }

      .cls-3 {
        fill: #232323;
      }

      .cls-4 {
        fill: #444;
      }

      .cls-5 {
        fill: #930000;
      }

      .cls-6 {
        fill: none;
      }

      .cls-7 {
        fill: #3ed033;
      }

      .cls-8 {
        fill: #7f7f7f;
      }

      .cls-9 {
        fill: #3050c4;
      }

      .cls-10 {
        fill: #f2f2f2;
      }

      .cls-11 {
        fill: #51453a;
      }
    </style>
  </defs>
  <g>
    <g class="cls-2">
      <ellipse class="cls-3" cx="140.23" cy="143.59" rx="35.56" ry="5.74"/>
    </g>
    <g>
      <g>
        <path class="cls-3" d="m139.09,106.99c-.13,1.02-3.46,29.92-8.37,33.98-4.92,4.06-7.5,2.7-8.51,1.62-1.05-1.12-2.38-3.15.07-5.44,1.97-1.84,3.34-9.98,1.35-22.68l15.46-7.48Z"/>
        <g>
          <path class="cls-3" d="m118.74,139.45c-.62.18-1.3.07-1.53-.34-.23-.42.14-1.14.88-1.49,2.01-.96,4.31-1.27,6.57-.84.84.16,1.18,1.04.8,1.83-.39.79-1.09,1.2-1.64,1-1.56-.57-3.34-.66-5.08-.15Z"/>
          <path class="cls-3" d="m119.71,143.05c-.54.34-1.23.43-1.56.1-.34-.34-.18-1.13.43-1.68,1.66-1.48,3.78-2.41,6.08-2.63.85-.07,1.43.68,1.27,1.54-.15.86-.71,1.45-1.3,1.41-1.66-.12-3.39.29-4.92,1.26Z"/>
          <path class="cls-3" d="m122.37,145.76c-.33.55-.89.94-1.35.8-.45-.15-.68-.92-.38-1.69.8-2.07,2.27-3.87,4.21-5.1.72-.46,1.58-.05,1.83.78.26.84.03,1.62-.51,1.85-1.53.65-2.89,1.81-3.81,3.36Z"/>
        </g>
      </g>
      <g>
        <path class="cls-3" d="m142.1,106.72c.13,1.02,3.57,29.91,8.5,33.95,4.93,4.04,7.51,2.67,8.51,1.59,1.04-1.13,2.36-3.16-.09-5.44-1.97-1.84-3.37-9.97-1.43-22.68l-15.48-7.43Z"/>
        <g>
          <path class="cls-3" d="m161.73,139.45c.62.18,1.3.07,1.52-.35.23-.42-.14-1.14-.88-1.49-2.01-.95-4.31-1.26-6.57-.82-.84.17-1.18,1.05-.79,1.83.39.79,1.1,1.19,1.64.99,1.56-.58,3.34-.68,5.08-.17Z"/>
          <path class="cls-3" d="m160.77,143.04c.54.34,1.23.43,1.56.09.34-.34.18-1.13-.43-1.67-1.67-1.47-3.79-2.4-6.09-2.6-.85-.07-1.43.68-1.27,1.54.16.86.72,1.45,1.3,1.41,1.66-.12,3.4.28,4.92,1.24Z"/>
          <path class="cls-3" d="m158.12,145.76c.33.55.9.94,1.35.79.45-.15.68-.93.38-1.69-.81-2.07-2.28-3.87-4.23-5.09-.73-.46-1.58-.05-1.83.79-.26.84-.02,1.62.52,1.85,1.53.65,2.89,1.79,3.82,3.35Z"/>
        </g>
      </g>
    </g>
    <path class="cls-4" d="m114.33,91.69c1.07-9.97,5.2-22.13,13.08-26.52,3.38-1.88,7.3-3.24,12.72-4.16,1.29.21,2.48.45,3.61.72.2.05.39.1.58.14.34.08.67.17.99.26.21.06.41.11.61.17.32.09.64.19.96.29.16.05.33.1.49.15.45.15.89.31,1.32.47.13.05.25.1.37.15.32.12.64.25.95.38.15.06.29.12.43.19.3.13.59.27.87.4.12.06.25.12.37.18.4.2.79.4,1.18.61,8.45,4.67,12.65,18.26,13.36,28.55.06,1.5.09,2.93.09,4.28,0,3.48-.22,6.37-.63,8.12-.02.08-.06.16-.08.24-2.1,9.57-12.66,16.86-25.41,16.88-14.27.03-25.85-9.06-25.87-20.31,0-.1,0-.21,0-.31-.22-2.9-.23-6.73,0-10.87Z"/>
    <path class="cls-1" d="m121.08,63.8c3.26-3.73,7.5-5.56,15.85-5.92.13,0,.27,0,.4-.01.42-.02.85-.03,1.29-.04.44,0,.88-.01,1.34-.02.05,0,.1,0,.15,0h.09s.06,0,.09,0c.48,0,.95,0,1.41.01.52,0,1.03.02,1.53.04.05,0,.1,0,.15,0,8.36.33,12.6,2.15,15.88,5.87,4.33,4.91,6.54,18.98,7,29.94-.72-10.28-4.92-23.88-13.36-28.55-3.38-1.87-7.32-3.22-12.73-4.11-5.41.92-9.34,2.28-12.72,4.16-8.43,4.7-12.58,18.31-13.25,28.6.41-10.96,2.57-25.03,6.88-29.96Z"/>
    <g>
      <path class="cls-3" d="m125.63,66.07c2.19-.59,4.49.42,5.18,2.8.69,2.37-1.18,5.59-4.23,6.44-8.66,2.4-17.41.37-24.12-5.61-2.36-2.1-2.62-5.82-.96-7.64,1.67-1.84,4.18-1.72,5.89-.23,5.08,4.52,11.7,6.06,18.25,4.24Z"/>
      <path class="cls-3" d="m97.91,62.16c-.46-.47-1.11-.71-1.53-.46-.41.25-.44,1.08.04,1.75,1.3,1.85,3.18,3.27,5.4,4,.83.27,1.57-.33,1.62-1.22.05-.89-.37-1.6-.96-1.7-1.67-.26-3.29-1.07-4.57-2.38Z"/>
      <path class="cls-3" d="m100.55,59.46c-.31-.57-.87-.99-1.34-.86-.47.13-.73.91-.45,1.7.74,2.13,2.15,4.02,4.08,5.35.72.49,1.6.11,1.89-.73.29-.84.09-1.64-.45-1.9-1.53-.72-2.87-1.94-3.74-3.56Z"/>
      <path class="cls-3" d="m101.95,58.07c-.46-.46-.7-1.12-.44-1.53.26-.41,1.08-.44,1.75.05,1.84,1.32,3.24,3.21,3.96,5.44.27.83-.35,1.56-1.23,1.6-.89.04-1.6-.38-1.69-.97-.25-1.67-1.05-3.3-2.35-4.6Z"/>
    </g>
    <g>
      <path class="cls-3" d="m155.33,66.07c-2.19-.59-4.49.42-5.18,2.8-.69,2.37,1.18,5.59,4.23,6.44,8.66,2.4,17.41.37,24.12-5.61,2.36-2.1,2.62-5.82.96-7.64-1.67-1.84-4.18-1.72-5.89-.23-5.08,4.52-11.7,6.06-18.25,4.24Z"/>
      <path class="cls-3" d="m183.05,62.16c.46-.47,1.11-.71,1.53-.46.41.25.44,1.08-.04,1.75-1.3,1.85-3.18,3.27-5.4,4-.83.27-1.57-.33-1.62-1.22-.05-.89.37-1.6.96-1.7,1.67-.26,3.29-1.07,4.57-2.38Z"/>
      <path class="cls-3" d="m180.41,59.46c.31-.57.87-.99,1.34-.86.47.13.73.91.45,1.7-.74,2.13-2.15,4.02-4.08,5.35-.72.49-1.6.11-1.89-.73-.29-.84-.09-1.64.45-1.9,1.53-.72,2.87-1.94,3.74-3.56Z"/>
      <path class="cls-3" d="m179.01,58.07c.46-.46.7-1.12.44-1.53-.26-.41-1.08-.44-1.76.05-1.84,1.32-3.24,3.21-3.96,5.44-.27.83.35,1.56,1.23,1.6.89.04,1.6-.38,1.69-.97.25-1.67,1.05-3.3,2.35-4.6Z"/>
    </g>
    <path class="cls-1" d="m140.27,24.91c4.61,0,9.99-1.83,13.04-2.6,3.57-.91,5.27-.94,7.9-.94,7.98-.01,10.44,4.17,11.11,5.87-5.26-16.16-21.91-18.4-31.74-18.38h-.81c-9.83.02-26.47,2.32-31.68,18.5.67-1.71,3.11-5.9,11.09-5.91,2.63,0,4.33.02,7.91.92,3.05.77,8.44,2.57,13.05,2.56h.13Z"/>
    <path class="cls-4" d="m108.12,27.36h-.03c.67-1.72,3.11-5.91,11.09-5.93,2.63,0,4.33.02,7.91.92,3.05.77,8.44,2.57,13.05,2.56h.13c4.61,0,9.99-1.83,13.04-2.6,3.57-.91,5.27-.94,7.9-.94,7.98-.01,10.44,4.17,11.11,5.87h-.03c1.69,1.63,2.82,5.88,2.68,10.84-.18,6.3-2.32,11.35-4.79,11.28-.05,0-.09-.02-.14-.02-5.72,11.55-21.43,16.93-29.69,16.95-8.25.01-24.1-5.31-29.9-16.84-.05,0-.1.02-.15.03-2.47.08-4.63-4.97-4.83-11.26-.16-4.97.95-9.22,2.64-10.84Z"/>
    <path class="cls-8" d="m140.3,57.93c4.17,0,13.01-3.89,13-12.37-.02-8.48-9.78-9.13-13.07-9.13-3.29,0-13.06.7-13.04,9.18.02,8.48,8.94,12.33,13.12,12.32Z"/>
    <path class="cls-3" d="m140.04,38.66c-1.81,0-4.49,1.9-4.8,4.11-.31,2.21,4.93,2.12,4.93,2.12h.15s5.24.07,4.92-2.14c-.32-2.2-3-4.09-4.82-4.09h-.39Z"/>
    <g>
      <circle class="cls-3" cx="153.59" cy="32.21" r="1.6"/>
      <path class="cls-3" d="m125.25,32.26c0,.89.72,1.6,1.6,1.6.88,0,1.6-.72,1.6-1.6,0-.89-.72-1.6-1.6-1.6-.89,0-1.6.72-1.6,1.61Z"/>
    </g>
    <path class="cls-3" d="m111.52,30.95c-2.03.08-3.68,3.92-4.3,9.33-.07-.68-.12-1.39-.14-2.12-.13-4.95,1.07-9.01,2.68-9.07.69-.03,1.33.68,1.86,1.88-.03,0-.06-.01-.1-.01Z"/>
    <path class="cls-3" d="m168.91,30.85c2.03.07,3.69,3.9,4.33,9.31.07-.68.12-1.39.13-2.12.11-4.95-1.1-9-2.71-9.06-.68-.02-1.33.69-1.85,1.88.03,0,.06-.01.09-.01Z"/>
    <path class="cls-8" d="m130.43,30.04c-.22,0-.43-.11-.54-.31-.23-.38-.51-.72-.86-1-.05.02-.12.06-.17.08-.28.14-.7.35-1.18.22-.39-.11-.69-.4-.99-.68-.15-.15-.41-.39-.52-.42-.46.07-.93.23-1.36.48-.3.18-.69.08-.86-.22-.18-.3-.08-.69.22-.86.57-.34,1.2-.55,1.87-.64.64-.09,1.13.38,1.52.76.14.13.36.35.45.38.03,0,.18-.08.27-.13.31-.16.88-.45,1.43-.02.51.4.94.88,1.26,1.43.18.3.08.69-.22.86-.1.06-.21.09-.32.09Z"/>
    <path class="cls-8" d="m149.28,30.12c-.1,0-.21-.02-.3-.08-.31-.17-.42-.55-.25-.86.32-.58.75-1.09,1.28-1.51.51-.4,1.16-.25,1.69-.13.18.04.49.11.58.09.03-.02.12-.17.17-.25.18-.29.53-.83,1.22-.75.64.08,1.25.27,1.81.58.31.17.42.55.25.86-.17.31-.55.42-.86.25-.39-.21-.81-.36-1.25-.42-.03.05-.07.11-.1.16-.17.26-.42.66-.9.79-.39.1-.8.01-1.2-.08-.21-.05-.55-.13-.66-.09-.36.29-.69.67-.92,1.11-.11.21-.33.33-.55.33Z"/>
    <g class="cls-2">
      <ellipse class="cls-3" cx="140.48" cy="211.41" rx="54.89" ry="8.86"/>
    </g>
    <g>
      <path class="cls-6" d="m209.67,126.08c1.1.45,1.93-.42,3.13-1.48,1.21-1.07-2.55-2.38-4.44-3.07-1.57-.57-1.75,0-2.21.18.27,1.1.52,2.21.73,3.33,1,.11,1.93.68,2.79,1.03Z"/>
      <path class="cls-6" d="m208.36,131.15c-.11-.22-.3-.37-.63-.45.14,1.28.24,2.57.31,3.86.72-1.3.52-3.03.32-3.41Z"/>
      <circle class="cls-9" cx="139.92" cy="138.08" r="72"/>
      <g>
        <path class="cls-7" d="m149.31,176c-.53-1.18-4.53-2.05-5.19-1.89-.85-.09-4.06-2.45-4.21-3.14.12-1.34-2.96-5.04-3.81-5.12-.43-.04-2.51-.71-3.42-2.38-1.11-1.92-5.89-3.54-7.38-3.69-1.27-.13-3.17-.55-4.59-1.38-1.21-.8-3.21-.1-5.42.57-.45.18-.89.36-1.1.34-.66.16-4.61-1.15-5.63-1.71-.19-.24-.24-2.05-.17-2.72.1-1.12-.04-1.81-.24-2.05-.17-.47-1.19-1.02-3.06-1.67-.4-.27-1.04-.33-1.23-.58.02-.22.29-.87.53-1.07.79-1.49,1.31-2.57.95-3.28-.19-.24-.38-.49-.6-.51-.83-.31-2.19.45-3.57,1.43-.68.38-1.59.96-1.8.94-.85-.09-2.27-.91-4.08-2.22-1-.78.63-4.44,1.44-6.16.3-.87.57-1.52.83-1.94.04-.45,2.23-.9,4.99-.61.85.09,1.93-.03,3.02-.14.87-.14,1.93-.02,2.57.04.42.04,1.17,1.25,1.53,1.96.75,1.2,1.3,2.16,1.94,2.23,1.08-.11,1.23-1.67,1.33-2.79.04-.44.06-.67.08-.89.27-.65,2.01-3.17,3.14-3.73,1.57-.74,3.75-3.44,3.48-5.05.06-.67,2.78-2.19,3.69-2.77.45-.18.68-.38.91-.58.23-.2.68-.38.91-.58.89-.36,2.23-.9,2.38-2.46.08-.89,2.89-1.06,4.61-1.1.42.04.87-.13,1.08-.11,1.08-.11,1.74-.27,2.02-.92.49-.63.12-1.34,0-2.25.02-.22-.17-.47-.15-.69-.49-1.63.02-2.48,1.38-3.24.68-.38,1.74-.27,2.83-.38,1.08-.11,2.36.02,3.69-.52.89-.36,1.36-.76,1.61-1.18.27-.65-.09-1.36-.45-2.08-.19-.25-.38-.49-.36-.71-.51-1.41-1.49-2.41-2.06-3.14-.38-.49-.64-2.32-.77-3.23-.15-.69-.09-1.36-.26-1.83-.17-.47-.36-.71-.77-.98-.81-.54-2.36-.02-3.25.34.02-.22-.15-.69-.13-.91.06-.67-.09-1.36-.49-1.63-.19-.25-.58-.74-1.15-1.47-.77-.98-1.72-2.21-2.51-2.96-.38-.49-.81-.53-1.23-.58-1.08.11-2.06,1.36-2.82,2.64-.02.22-.23.2-.25.42-1.46,1.88-1.82,3.42-1.04,4.17,0,0,.17.47-.32,1.09-.53,1.07-1.23,1.68-1.65,1.63-1.27-.13-1.63,1.41-2.01,3.17-.27.65-.36,1.54-.61,1.96-.19-.25-.53-1.18-.26-4.08l.04-.45c.04-.45-.15-.69-.34-.94-.38-.49-.83-.31-1.25-.35-.64-.07-.85-.09-1.04-.33-.53-1.18-3.59-2.85-4.83-3.43.17-1.78.35-3.79.38-4.02.49-.62,5.92-3.67,7.03-4,1.76-.49,6.05-2.75,6.75-3.36.68-.38.96-1.03,1-1.48-.09-1.36-2.34-2.5-3.15-3.03-.68-1.87-1.75-1.98-3.23-2.14-.64-.07-1.49-.15-2.53-.49-3.34-1.02-6.31-1.33-8.67-1.35-1.29.02-3.02-.21-4.52-.55-11.26,6.02-20.64,15.11-27.01,26.16.02,2.17-.31,4.68-1.53,6.81-3.07,5.31-3.5,14.51-2.42,16.65.9,1.9,6.11,10.32,6.88,11.3.58.73,1.94,6.74,2.1,7.43.15.69,3.51,6,7.34,6.39,2.36.02,4.98,1.86,6.59,2.94.81.53,1.4,1.05,1.83,1.09.21.02.38.49.55.96.53,1.18,1.24,2.83,3.26,4.17.6.51,1.21.8,1.6,1.29,2.02,1.34,4.83,3.43,4.79,3.88-.02.22-.49.62-.95,1.03-1.42,1.43-3.78,3.67-3.47,7.3.39,4.99,6.24,11.23,8.22,13.01,1.87.65.31,10.4-.7,12.1-.11.27-.23.63-.35,1.02,1.48.6,2.99,1.14,4.52,1.63l6.75-.17c.93-.8,1.65-1.63,1.91-2.06.23-.2.68-.38,1.12-.56,1.1-.34,2.23-.9,2.74-1.74.74-1.05,3.07-3.06,3.97-3.42,1.12-.56,9.21-6.71,9.74-7.78,1.31-2.57,3.33-5.74,4.24-6.32,1.83-1.16.57-3.77.01-4.73l-.19-.25Z"/>
        <path class="cls-7" d="m174.53,109.52c.15.52.73,1.96.36,2.58-.36.62-2.48,3.67-.36,3.46,2.12-.21,4.5-1.14,3.62-2.89-.88-1.76-1.91-3.2-2.27-4.18-.36-.98-.33-1.91-.33-1.91,0,0-1.17-1.29-1.79-1.19,0,0-1.19,1.03-.98,1.96.21.93,1.6,1.65,1.75,2.17Z"/>
        <path class="cls-7" d="m172.31,112.77c.62-.67,1.6-3.62-.52-3.05,0,0-2.22,2.53-2.22,3.05s2.12.67,2.74,0Z"/>
        <path class="cls-7" d="m196.07,102.54c.74-.14,1.38-.21,1.93-.24-1.01-1.64-2.1-3.24-3.24-4.79-.92,1.65-1.22,2.07-.85,2.91.41.93,0,2.53,2.17,2.12Z"/>
        <path class="cls-7" d="m173.85,118.13c.72.48,2.44,1.21,2.44,2.62s.48,2.58-.28,2.79c-.76.21-4.41-.48-5.1.97-.69,1.45-1.03,3.03-1.1,4.2-.07,1.17-.21,2.27,2.07,2.2,2.27-.07,3.79-.49,4.55-.97.76-.48.55-1.44,1.86-2.75,1.31-1.31,1.72-.76,1.79-1.86.07-1.1-.21-2.27.62-2.07.83.21,1.59-.76,2.48-.35.9.41,1.45-1.03,2.83.48,1.38,1.52,2.96,2.48,3.37,3.38.41.89,1.86,1.45,1.38,2.62-.48,1.17,1.45-2.1,1.34-3.03-.11-.93-1.97-2.27-2.21-2.65-.24-.38-1.48-2.44-.07-1.96,1.41.48,3.48,2.44,3.58,3.2.1.76,1.07,3.31,1.89,4.34.83,1.03,1.97,1.41,2.07,1.38.1-.03-.58-2.48-.07-3.55.52-1.07,1.69-1.52,2.17-1.24.48.28.55.76,1.1.41.55-.35,1.27-.69,1.17-1.72-.1-1.03.2-2.31.48-2.89.27-.59,1.2-2.48,1.72-1.69.52.79,1.07,1.75,1.86,1.79.14,0,.24-.02.34-.06-1.64-6.65-4.24-12.91-7.67-18.62-1.03.43-2.41,1.11-2.87,2.23-.78,1.86-.78,2.01-.98,3.15-.21,1.14-1.39,1.81-1.39,1.81l-6.1.98s-1.29-1.31-1.98-.83c-.69.48-1.55.72-2.48,1.38-.93.65-2.93,2.38-3.34,3.24-.41.86-1.45,1.69-3.1,2.1-1.65.41-3.1.48-2.38.96Z"/>
        <path class="cls-7" d="m182.02,106.37c1.29,0,3.15-1.65,3.41-1.24.26.41,1.81,3.62,2.9,3.41,1.08-.21,3.15-4.6,2.79-6.56-.36-1.96-.21-2.48.26-3.05.47-.57.26-2.69,1.86-2.79.15,0,.29-.03.43-.06-1.49-1.91-3.09-3.74-4.78-5.47-1.2,1.78-1.77,3.28-2.59,5.03-1.04,2.2-3.91,4.17-4.74,5.46-.83,1.29-.83,5.27.47,5.27Z"/>
        <path class="cls-7" d="m200.1,127.56c.14,1.72,1.72,4.34,4.41,3.58,1.7-.48,2.67-.58,3.23-.45-.21-1.91-.49-3.79-.85-5.64-.28-.03-.57-.03-.87.03-1.34.28-6.06.76-5.92,2.48Z"/>
        <path class="cls-7" d="m208.04,134.56c-.39.71-1.04,1.29-2.12,1.44,0,0-9.37-1.51-10.33-1.79-1.79-.27-.82,2.07-.82,2.62s-7.71-1.42-7.71-2.64,2.89-4.52-5.1-3.28c-7.99,1.24-10.19,2.81-12.26,6.02-2.07,3.21-7.03,4.31-6.75,10.24.28,5.92-1.1,6.48,2.34,9.64,3.44,3.17,3.44,5.92,13.23,3.17,9.78-2.75,3.86-.22,4.82,1.13.96,1.35,2.75.11,3.03,1.35.28,1.24-1.93,3.72.28,6.2,2.2,2.48,3.44,8.68,2.2,10.33-.88,1.18.25,3.32.84,5.75,10.84-11.55,17.7-26.88,18.4-43.8l.05-1.48c0-.46.02-.92.02-1.38,0-1.18-.03-2.35-.09-3.52Z"/>
      </g>
    </g>
    <path class="cls-3" d="m146.63,51.76h-14.02c-.32,0-.57-.26-.57-.57s.26-.57.57-.57h14.02c.32,0,.57.26.57.57s-.26.57-.57.57Z"/>
  </g>
  <path class="cls-1" d="m92.38,125.38c-.26,0-.51-.12-.66-.35-.25-.37-.15-.86.21-1.11l1.04-.71c.37-.25.86-.15,1.11.21.25.37.15.86-.21,1.11l-1.04.71c-.14.09-.29.14-.45.14Zm5.67-3.86c-.26,0-.51-.12-.66-.35-.25-.37-.15-.86.21-1.11l2.65-1.8c.37-.25.86-.15,1.11.21.25.37.15.86-.21,1.11l-2.65,1.8c-.14.09-.29.14-.45.14Z"/>
  <path class="cls-1" d="m107.13,104.72c-.12,0-.23-.03-.35-.08-.4-.19-.57-.67-.38-1.07l1.06-2.21c.19-.4.67-.57,1.07-.38.4.19.57.67.38,1.07l-1.06,2.21c-.14.29-.42.45-.72.45Zm3.48-7.26c-.12,0-.23-.03-.35-.08-.4-.19-.57-.67-.38-1.07l1.38-2.89c.19-.4.67-.57,1.07-.38.4.19.57.67.38,1.07l-1.38,2.89c-.14.29-.42.45-.72.45Z"/>
  <path class="cls-11" d="m194.07,153.81c-.39,0-.73-.29-.79-.69l-.45-3.17c-.06-.44.24-.84.68-.9.44-.06.84.24.9.68l.45,3.17c.06.44-.24.84-.68.9-.04,0-.08,0-.11,0Zm-1.24-8.71c-.39,0-.73-.29-.79-.69l-.45-3.17c-.06-.44.24-.84.68-.9.44-.06.84.24.9.68l.45,3.17c.06.44-.24.84-.68.9-.04,0-.08,0-.11,0Zm-1.24-8.71c-.39,0-.73-.29-.79-.69l-.45-3.17c-.06-.44.24-.84.68-.9.44-.06.84.24.9.68l.45,3.17c.06.44-.24.84-.68.9-.04,0-.08,0-.11,0Zm-1.24-8.71c-.39,0-.73-.29-.79-.69l-.45-3.17c-.06-.44.24-.84.68-.9.44-.06.84.24.9.68l.45,3.17c.06.44-.24.84-.68.9-.04,0-.08,0-.11,0Z"/>
  <path class="cls-11" d="m129.91,158.64c-.27,0-.52-.13-.68-.37-.24-.37-.12-.87.25-1.1l2.7-1.71c.37-.23.87-.12,1.1.25s.12.87-.25,1.1l-2.7,1.71c-.13.08-.28.12-.43.12Zm7.44-4.71c-.27,0-.52-.13-.68-.37-.24-.37-.13-.87.25-1.1l2.7-1.71c.37-.24.87-.13,1.1.25.24.37.13.87-.25,1.1l-2.7,1.71c-.13.08-.28.12-.43.12Zm7.44-4.71c-.27,0-.52-.13-.68-.37-.24-.37-.13-.87.25-1.1l2.7-1.71c.37-.24.87-.13,1.1.25.24.37.13.87-.25,1.1l-2.7,1.71c-.13.08-.28.12-.43.12Zm7.44-4.71c-.27,0-.52-.13-.68-.37-.24-.37-.13-.87.25-1.1l2.7-1.71c.37-.24.87-.13,1.1.25.24.37.13.87-.25,1.1l-2.7,1.71c-.13.08-.28.12-.43.12Zm7.44-4.71c-.27,0-.52-.13-.68-.37-.24-.37-.13-.87.25-1.1l2.7-1.71c.37-.24.87-.13,1.1.25.24.37.13.87-.25,1.1l-2.7,1.71c-.13.08-.28.12-.43.12Zm7.44-4.71c-.27,0-.52-.13-.68-.37-.24-.37-.13-.87.25-1.1l2.7-1.71c.37-.24.87-.13,1.1.25.24.37.13.87-.25,1.1l-2.7,1.71c-.13.08-.28.12-.43.12Zm7.44-4.71c-.27,0-.52-.13-.68-.37-.24-.37-.13-.87.25-1.1l2.7-1.71c.37-.24.87-.13,1.1.25.24.37.13.87-.25,1.1l-2.7,1.71c-.13.08-.28.12-.43.12Zm7.44-4.71c-.27,0-.52-.13-.68-.37-.24-.37-.13-.87.25-1.1l2.7-1.71c.37-.24.87-.13,1.1.25.24.37.13.87-.25,1.1l-2.7,1.71c-.13.08-.28.12-.43.12Z"/>
  <path class="cls-11" d="m180.98,119.25s-.04,0-.05,0l-3.19-.21c-.44-.03-.77-.41-.75-.85.03-.44.41-.77.85-.75l3.19.21c.44.03.77.41.75.85-.03.42-.38.75-.8.75Zm-8.78-.58s-.04,0-.05,0l-3.19-.21c-.44-.03-.77-.41-.75-.85.03-.44.41-.77.85-.75l3.19.21c.44.03.77.41.75.85-.03.42-.38.75-.8.75Zm-8.78-.58s-.04,0-.05,0l-3.19-.21c-.44-.03-.77-.41-.75-.85.03-.44.41-.77.85-.75l3.19.21c.44.03.77.41.75.85-.03.42-.38.75-.8.75Zm-8.78-.58s-.04,0-.05,0l-3.19-.21c-.44-.03-.77-.41-.75-.85.03-.44.41-.77.85-.75l3.19.21c.44.03.77.41.75.85-.03.42-.38.75-.8.75Zm-8.78-.58s-.04,0-.05,0l-3.19-.21c-.44-.03-.77-.41-.75-.85.03-.44.41-.77.85-.75l3.19.21c.44.03.77.41.75.85-.03.42-.38.75-.8.75Zm-8.78-.58s-.04,0-.05,0l-3.19-.21c-.44-.03-.77-.41-.75-.85.03-.44.41-.76.85-.75l3.19.21c.44.03.77.41.75.85-.03.42-.38.75-.8.75Zm-8.78-.58s-.04,0-.05,0l-3.19-.21c-.44-.03-.77-.41-.75-.85.03-.44.41-.77.85-.75l3.19.21c.44.03.77.41.75.85-.03.42-.38.75-.8.75Zm-8.78-.58s-.04,0-.05,0l-3.19-.21c-.44-.03-.77-.41-.75-.85.03-.44.41-.77.85-.75l3.19.21c.44.03.77.41.75.85-.03.42-.38.75-.8.75Z"/>
  <path class="cls-1" d="m189.47,105.88c-.44,0-.8-.36-.8-.8v-3.2c0-.44.36-.8.8-.8s.8.36.8.8v3.2c0,.44-.36.8-.8.8Z"/>
  <path class="cls-1" d="m181.9,116.45c-.12,0-.24-.03-.35-.08l-2.87-1.41c-.4-.2-.56-.67-.36-1.07.2-.4.68-.56,1.07-.36l2.87,1.41c.4.2.56.67.36,1.07-.14.28-.42.45-.72.45Z"/>
  <path class="cls-1" d="m101.01,132.09c-.12,0-.23-.03-.35-.08-.4-.19-.57-.67-.38-1.07l1.06-2.21c.19-.4.67-.57,1.07-.38.4.19.57.67.38,1.07l-1.06,2.21c-.14.29-.42.45-.72.45Zm3.48-7.26c-.12,0-.23-.03-.35-.08-.4-.19-.57-.67-.38-1.07l1.38-2.89c.19-.4.67-.57,1.07-.38.4.19.57.67.38,1.07l-1.38,2.89c-.14.29-.42.45-.72.45Z"/>
  <g>
    <polyline class="cls-10" points="120.09 91.91 120.09 90.86 108.32 90.86 108.32 91.91"/>
    <rect class="cls-10" x="109.4" y="89.89" width="9.61" height="1.04"/>
    <rect class="cls-10" x="109.4" y="85.39" width="9.61" height=".85"/>
    <rect class="cls-10" x="109.92" y="86.23" width="1.37" height="4.03"/>
    <rect class="cls-10" x="112" y="86.23" width="1.37" height="4.03"/>
    <rect class="cls-10" x="115.16" y="86.23" width="1.37" height="4.03"/>
    <rect class="cls-10" x="117.24" y="86.23" width="1.37" height="4.03"/>
    <polygon class="cls-10" points="109.64 85.8 114.2 81.23 118.78 85.81 109.64 85.8"/>
  </g>
  <g>
    <polyline class="cls-10" points="101.95 142.27 101.95 141.23 90.18 141.23 90.18 142.27"/>
    <rect class="cls-10" x="91.26" y="140.25" width="9.61" height="1.04"/>
    <rect class="cls-10" x="91.26" y="135.75" width="9.61" height=".85"/>
    <rect class="cls-10" x="91.78" y="136.6" width="1.37" height="4.03"/>
    <rect class="cls-10" x="93.86" y="136.6" width="1.37" height="4.03"/>
    <rect class="cls-10" x="97.02" y="136.6" width="1.37" height="4.03"/>
    <rect class="cls-10" x="99.1" y="136.6" width="1.37" height="4.03"/>
    <polygon class="cls-10" points="91.5 136.16 96.06 131.6 100.64 136.17 91.5 136.16"/>
  </g>
  <g>
    <polyline class="cls-11" points="124.67 167.16 124.67 166.12 112.9 166.12 112.9 167.16"/>
    <rect class="cls-11" x="113.98" y="165.15" width="9.61" height="1.04"/>
    <rect class="cls-11" x="113.98" y="160.64" width="9.61" height=".85"/>
    <rect class="cls-11" x="114.5" y="161.49" width="1.37" height="4.03"/>
    <rect class="cls-11" x="116.58" y="161.49" width="1.37" height="4.03"/>
    <rect class="cls-11" x="119.74" y="161.49" width="1.37" height="4.03"/>
    <rect class="cls-11" x="121.82" y="161.49" width="1.37" height="4.03"/>
    <polygon class="cls-11" points="114.22 161.05 118.78 156.49 123.36 161.07 114.22 161.05"/>
  </g>
  <g>
    <polyline class="cls-10" points="126.78 196.28 126.78 195.24 115.01 195.24 115.01 196.28"/>
    <rect class="cls-10" x="116.09" y="194.26" width="9.61" height="1.04"/>
    <rect class="cls-10" x="116.09" y="189.76" width="9.61" height=".85"/>
    <rect class="cls-10" x="116.61" y="190.61" width="1.37" height="4.03"/>
    <rect class="cls-10" x="118.69" y="190.61" width="1.37" height="4.03"/>
    <rect class="cls-10" x="121.86" y="190.61" width="1.37" height="4.03"/>
    <rect class="cls-10" x="123.93" y="190.61" width="1.37" height="4.03"/>
    <polygon class="cls-10" points="116.33 190.17 120.9 185.6 125.47 190.18 116.33 190.17"/>
  </g>
  <g>
    <polyline class="cls-10" points="147.07 185.6 147.07 184.56 135.3 184.56 135.3 185.6"/>
    <rect class="cls-10" x="136.38" y="183.58" width="9.61" height="1.04"/>
    <rect class="cls-10" x="136.38" y="179.08" width="9.61" height=".85"/>
    <rect class="cls-10" x="136.9" y="179.93" width="1.37" height="4.03"/>
    <rect class="cls-10" x="138.98" y="179.93" width="1.37" height="4.03"/>
    <rect class="cls-10" x="142.15" y="179.93" width="1.37" height="4.03"/>
    <rect class="cls-10" x="144.22" y="179.93" width="1.37" height="4.03"/>
    <polygon class="cls-10" points="136.62 179.49 141.18 174.93 145.76 179.5 136.62 179.49"/>
  </g>
  <g>
    <polyline class="cls-11" points="112.11 117.15 112.11 116.1 100.35 116.1 100.35 117.15"/>
    <rect class="cls-11" x="101.42" y="115.13" width="9.61" height="1.04"/>
    <rect class="cls-11" x="101.42" y="110.63" width="9.61" height=".85"/>
    <rect class="cls-11" x="101.95" y="111.47" width="1.37" height="4.03"/>
    <rect class="cls-11" x="104.02" y="111.47" width="1.37" height="4.03"/>
    <rect class="cls-11" x="107.19" y="111.47" width="1.37" height="4.03"/>
    <rect class="cls-11" x="109.27" y="111.47" width="1.37" height="4.03"/>
    <polygon class="cls-11" points="101.66 111.04 106.23 106.47 110.81 111.05 101.66 111.04"/>
  </g>
  <g>
    <polyline class="cls-10" points="176.6 112.33 176.6 111.28 164.84 111.28 164.84 112.33"/>
    <rect class="cls-10" x="165.91" y="110.31" width="9.61" height="1.04"/>
    <rect class="cls-10" x="165.91" y="105.81" width="9.61" height=".85"/>
    <rect class="cls-10" x="166.44" y="106.65" width="1.37" height="4.03"/>
    <rect class="cls-10" x="168.51" y="106.65" width="1.37" height="4.03"/>
    <rect class="cls-10" x="171.68" y="106.65" width="1.37" height="4.03"/>
    <rect class="cls-10" x="173.75" y="106.65" width="1.37" height="4.03"/>
    <polygon class="cls-10" points="166.15 106.21 170.72 101.65 175.3 106.23 166.15 106.21"/>
  </g>
  <g>
    <polyline class="cls-10" points="194.39 99.11 194.39 98.06 182.63 98.06 182.63 99.11"/>
    <rect class="cls-10" x="183.7" y="97.09" width="9.61" height="1.04"/>
    <rect class="cls-10" x="183.7" y="92.59" width="9.61" height=".85"/>
    <rect class="cls-10" x="184.23" y="93.43" width="1.37" height="4.03"/>
    <rect class="cls-10" x="186.3" y="93.43" width="1.37" height="4.03"/>
    <rect class="cls-10" x="189.47" y="93.43" width="1.37" height="4.03"/>
    <rect class="cls-10" x="191.54" y="93.43" width="1.37" height="4.03"/>
    <polygon class="cls-10" points="183.94 92.99 188.51 88.43 193.09 93.01 183.94 92.99"/>
  </g>
  <g>
    <polyline class="cls-10" points="173.25 159.81 173.25 158.76 161.48 158.76 161.48 159.81"/>
    <rect class="cls-10" x="162.56" y="157.79" width="9.61" height="1.04"/>
    <rect class="cls-10" x="162.56" y="153.29" width="9.61" height=".85"/>
    <rect class="cls-10" x="163.08" y="154.13" width="1.37" height="4.03"/>
    <rect class="cls-10" x="165.16" y="154.13" width="1.37" height="4.03"/>
    <rect class="cls-10" x="168.33" y="154.13" width="1.37" height="4.03"/>
    <rect class="cls-10" x="170.4" y="154.13" width="1.37" height="4.03"/>
    <polygon class="cls-10" points="162.8 153.69 167.37 149.13 171.94 153.71 162.8 153.69"/>
  </g>
  <g>
    <polyline class="cls-11" points="203.88 165.15 203.88 164.1 192.11 164.1 192.11 165.15"/>
    <rect class="cls-11" x="193.19" y="163.13" width="9.61" height="1.04"/>
    <rect class="cls-11" x="193.19" y="158.62" width="9.61" height=".85"/>
    <rect class="cls-11" x="193.71" y="159.47" width="1.37" height="4.03"/>
    <rect class="cls-11" x="195.79" y="159.47" width="1.37" height="4.03"/>
    <rect class="cls-11" x="198.96" y="159.47" width="1.37" height="4.03"/>
    <rect class="cls-11" x="201.03" y="159.47" width="1.37" height="4.03"/>
    <polygon class="cls-11" points="193.43 159.03 198 154.47 202.57 159.05 193.43 159.03"/>
  </g>
  <g>
    <polyline class="cls-10" points="206.91 142.81 206.91 141.76 195.15 141.76 195.15 142.81"/>
    <rect class="cls-10" x="196.23" y="140.79" width="9.61" height="1.04"/>
    <rect class="cls-10" x="196.23" y="136.29" width="9.61" height=".85"/>
    <rect class="cls-10" x="196.75" y="137.13" width="1.37" height="4.03"/>
    <rect class="cls-10" x="198.82" y="137.13" width="1.37" height="4.03"/>
    <rect class="cls-10" x="201.99" y="137.13" width="1.37" height="4.03"/>
    <rect class="cls-10" x="204.07" y="137.13" width="1.37" height="4.03"/>
    <polygon class="cls-10" points="196.47 136.69 201.03 132.13 205.61 136.71 196.47 136.69"/>
  </g>
  <g>
    <polyline class="cls-5" points="195.35 120.47 195.35 119.42 183.59 119.42 183.59 120.47"/>
    <rect class="cls-5" x="184.66" y="118.45" width="9.61" height="1.04"/>
    <rect class="cls-5" x="184.66" y="113.95" width="9.61" height=".85"/>
    <rect class="cls-5" x="185.19" y="114.79" width="1.37" height="4.03"/>
    <rect class="cls-5" x="187.26" y="114.79" width="1.37" height="4.03"/>
    <rect class="cls-5" x="190.43" y="114.79" width="1.37" height="4.03"/>
    <rect class="cls-5" x="192.5" y="114.79" width="1.37" height="4.03"/>
    <polygon class="cls-5" points="184.9 114.36 189.47 109.79 194.05 114.37 184.9 114.36"/>
  </g>
  <g>
    <polyline class="cls-10" points="91.92 128.24 91.92 127.19 80.16 127.19 80.16 128.24"/>
    <rect class="cls-10" x="81.23" y="126.22" width="9.61" height="1.04"/>
    <rect class="cls-10" x="81.23" y="121.72" width="9.61" height=".85"/>
    <rect class="cls-10" x="81.76" y="122.56" width="1.37" height="4.03"/>
    <rect class="cls-10" x="83.83" y="122.56" width="1.37" height="4.03"/>
    <rect class="cls-10" x="87" y="122.56" width="1.37" height="4.03"/>
    <rect class="cls-10" x="89.07" y="122.56" width="1.37" height="4.03"/>
    <polygon class="cls-10" points="81.47 122.12 86.04 117.56 90.62 122.14 81.47 122.12"/>
  </g>
  <path class="cls-1" d="m120.73,182.61c-.4,0-.75-.3-.79-.71l-.36-3.18c-.05-.44.27-.84.7-.89.44-.05.84.27.89.7l.36,3.18c.05.44-.27.84-.7.89-.03,0-.06,0-.09,0Zm-.99-8.74c-.4,0-.75-.3-.79-.71l-.36-3.18c-.05-.44.27-.84.7-.89.44-.05.84.27.89.7l.36,3.18c.05.44-.27.84-.7.89-.03,0-.06,0-.09,0Z"/>
  <path class="cls-1" d="m135.63,176.58c-.15,0-.29-.04-.42-.12l-2.71-1.7c-.37-.23-.49-.73-.25-1.1.23-.37.73-.49,1.1-.25l2.71,1.7c.37.23.49.73.25,1.1-.15.24-.41.37-.68.37Zm-7.45-4.68c-.15,0-.29-.04-.43-.12l-2.71-1.7c-.37-.23-.49-.73-.25-1.1s.73-.49,1.1-.25l2.71,1.7c.37.23.49.73.25,1.1-.15.24-.41.37-.68.37Z"/>
  <path class="cls-1" d="m201.03,155.84c-.41,0-.76-.31-.8-.73l-.13-1.38c-.04-.44.28-.83.72-.87.44-.05.83.28.87.72l.13,1.38c.04.44-.28.83-.72.87-.03,0-.05,0-.07,0Zm-.65-6.96c-.41,0-.76-.31-.8-.73l-.3-3.19c-.04-.44.28-.83.72-.87.43-.05.83.28.87.72l.3,3.19c.04.44-.28.83-.72.87-.02,0-.05,0-.07,0Z"/>
  <path class="cls-1" d="m192.11,161.87c-.07,0-.15-.01-.22-.03l-3.08-.88c-.42-.12-.67-.57-.55-.99.12-.43.57-.67.99-.55l3.08.88c.42.12.67.57.55.99-.1.35-.42.58-.77.58Zm-8.46-2.43c-.07,0-.15-.01-.22-.03l-3.08-.88c-.42-.12-.67-.57-.55-.99.12-.43.56-.67.99-.55l3.08.88c.42.12.67.57.55.99-.1.35-.42.58-.77.58Zm-8.46-2.43c-.07,0-.15-.01-.22-.03l-.21-.06c-.42-.12-.67-.57-.55-.99.12-.42.57-.67.99-.55l.21.06c.42.12.67.57.55.99-.1.35-.42.58-.77.58Z"/>
</svg>