<?xml version="1.0" encoding="UTF-8"?>
<svg id="Layer_1" data-name="Layer 1" xmlns="http://www.w3.org/2000/svg" width="300" height="225" viewBox="0 0 300 225">
  <defs>
    <style>
      .cls-1 {
        fill: #84cd29;
      }

      .cls-2 {
        fill: #fff;
      }

      .cls-3 {
        fill: #23140a;
      }

      .cls-4, .cls-5 {
        isolation: isolate;
      }

      .cls-5 {
        opacity: .35;
      }

      .cls-6 {
        fill: #232323;
      }

      .cls-7 {
        opacity: .47;
      }

      .cls-8 {
        fill: #dda905;
      }

      .cls-9 {
        fill: none;
      }

      .cls-10 {
        fill: #33b6e4;
      }

      .cls-11 {
        fill: #ffcf15;
      }
    </style>
  </defs>
  <g>
    <g>
      <g class="cls-4">
        <path class="cls-6" d="m235.19,164.66l-1.57-.63.93-2.32,1.57.63,4.37-10.95,9.15,3.66-1.02,2.56-6.09-2.44-1.43,3.58,5.09,2.04-1.02,2.56-5.09-2.04-.9,2.24,2.59,1.04-.93,2.32-2.59-1.04-.75,1.87-3.05-1.22.75-1.87Z"/>
      </g>
      <g class="cls-5">
        <path class="cls-6" d="m286.44,156.56l-4.53-1.78.05-.13-12.78-5.11.02-.05-33.61-13.34c-1.51-.59-3.35.08-3.95,1.72l-11.26,28.33c-.59,1.51.08,3.35,1.72,3.95l33.41,13.3v.02s12.84,5.14,12.84,5.14l-.06.16,4.53,1.78c1.64.6,3.48-.2,4.07-1.71l11.26-28.33c.59-1.51-.08-3.35-1.72-3.95Z"/>
      </g>
      <g>
        <path class="cls-11" d="m237.69,134.46c-1.51-.59-3.35.08-3.95,1.72l-11.26,28.33c-.59,1.51.08,3.35,1.72,3.95l33.49,13.33,13.62-33.99-33.61-13.34Z"/>
        <g>
          <rect class="cls-2" x="252.55" y="160.44" width="36.58" height="13.86" transform="translate(14.84 356.66) rotate(-68.19)"/>
          <path class="cls-11" d="m279,187.15l11.26-28.33c.59-1.51-.08-3.35-1.72-3.95l-4.53-1.78-13.62,33.99,4.53,1.78c1.64.6,3.48-.2,4.07-1.71Z"/>
        </g>
      </g>
      <rect class="cls-9" x="234.72" y="142.09" width="22.08" height="35.17" transform="translate(6.22 328.53) rotate(-68.19)"/>
      <g class="cls-4">
        <path class="cls-2" d="m239.19,161.66l-1.57-.63.93-2.32,1.57.63,4.37-10.95,9.15,3.66-1.02,2.56-6.09-2.44-1.43,3.58,5.09,2.04-1.02,2.56-5.09-2.04-.9,2.24,2.59,1.04-.93,2.32-2.59-1.04-.75,1.87-3.05-1.22.75-1.87Z"/>
      </g>
    </g>
    <g>
      <g class="cls-4">
        <path class="cls-6" d="m222.39,177.42l-1.57-.63.93-2.32,1.57.63,4.37-10.95,9.15,3.66-1.02,2.56-6.09-2.44-1.43,3.58,5.09,2.04-1.02,2.56-5.09-2.04-.9,2.24,2.59,1.04-.93,2.32-2.59-1.04-.75,1.87-3.05-1.22.75-1.87Z"/>
      </g>
      <g class="cls-5">
        <path class="cls-6" d="m273.64,169.32l-4.53-1.78.05-.13-12.78-5.11.02-.05-33.61-13.34c-1.51-.59-3.35.08-3.95,1.72l-11.26,28.33c-.59,1.51.08,3.35,1.72,3.95l33.41,13.3v.02s12.84,5.14,12.84,5.14l-.06.16,4.53,1.78c1.64.6,3.48-.2,4.07-1.71l11.26-28.33c.59-1.51-.08-3.35-1.72-3.95Z"/>
      </g>
      <g>
        <path class="cls-11" d="m224.89,147.22c-1.51-.59-3.35.08-3.95,1.72l-11.26,28.33c-.59,1.51.08,3.35,1.72,3.95l33.49,13.33,13.62-33.99-33.61-13.34Z"/>
        <g>
          <rect class="cls-2" x="239.75" y="173.2" width="36.58" height="13.86" transform="translate(-5.06 352.8) rotate(-68.19)"/>
          <path class="cls-11" d="m266.2,199.91l11.26-28.33c.59-1.51-.08-3.35-1.72-3.95l-4.53-1.78-13.62,33.99,4.53,1.78c1.64.6,3.48-.2,4.07-1.71Z"/>
        </g>
      </g>
      <rect class="cls-9" x="221.92" y="154.85" width="22.08" height="35.17" transform="translate(-13.68 324.67) rotate(-68.19)"/>
      <g class="cls-4">
        <path class="cls-2" d="m226.39,174.42l-1.57-.63.93-2.32,1.57.63,4.37-10.95,9.15,3.66-1.02,2.56-6.09-2.44-1.43,3.58,5.09,2.04-1.02,2.56-5.09-2.04-.9,2.24,2.59,1.04-.93,2.32-2.59-1.04-.75,1.87-3.05-1.22.75-1.87Z"/>
      </g>
    </g>
    <g>
      <g class="cls-4">
        <path class="cls-6" d="m228.82,173.84l-1.51-.76,1.13-2.23,1.51.76,5.33-10.52,8.79,4.46-1.25,2.46-5.85-2.97-1.75,3.44,4.89,2.48-1.25,2.46-4.89-2.48-1.09,2.15,2.49,1.26-1.13,2.23-2.49-1.26-.91,1.8-2.93-1.49.91-1.8Z"/>
      </g>
      <g class="cls-5">
        <path class="cls-6" d="m280.56,170.3l-4.35-2.17.06-.13-12.28-6.23.03-.05-32.3-16.27c-1.45-.73-3.34-.22-4.08,1.36l-13.73,27.21c-.73,1.45-.22,3.34,1.36,4.08l32.1,16.22v.02s12.33,6.26,12.33,6.26l-.08.16,4.36,2.18c1.58.74,3.49.11,4.21-1.34l13.73-27.21c.73-1.45.22-3.34-1.36-4.08Z"/>
      </g>
      <g>
        <path class="cls-11" d="m233.97,143.95c-1.45-.73-3.34-.22-4.08,1.36l-13.73,27.21c-.73,1.45-.22,3.34,1.36,4.08l32.17,16.25,16.58-32.64-32.3-16.27Z"/>
        <g>
          <rect class="cls-2" x="245.77" y="172.75" width="36.58" height="13.86" transform="translate(-15.66 333.86) rotate(-63.1)"/>
          <path class="cls-11" d="m270.44,200.11l13.73-27.21c.73-1.45.22-3.34-1.36-4.08l-4.36-2.18-16.58,32.64,4.36,2.18c1.58.74,3.49.11,4.21-1.34Z"/>
        </g>
      </g>
      <rect class="cls-9" x="228.73" y="152.2" width="22.08" height="35.17" transform="translate(-20.14 306.78) rotate(-63.1)"/>
      <g class="cls-4">
        <path class="cls-2" d="m233.07,171.21l-1.51-.77,1.13-2.23,1.51.77,5.33-10.52,8.79,4.46-1.25,2.46-5.85-2.97-1.75,3.44,4.89,2.48-1.25,2.46-4.89-2.48-1.09,2.15,2.49,1.26-1.13,2.23-2.49-1.26-.91,1.8-2.93-1.48.91-1.8Z"/>
      </g>
    </g>
    <g>
      <g class="cls-4">
        <path class="cls-6" d="m232.91,169.53l-1.57-.63.93-2.32,1.57.63,4.37-10.95,9.15,3.66-1.02,2.56-6.09-2.44-1.43,3.58,5.09,2.04-1.02,2.56-5.09-2.04-.9,2.24,2.59,1.04-.93,2.32-2.59-1.04-.75,1.87-3.05-1.22.75-1.87Z"/>
      </g>
      <g class="cls-5">
        <path class="cls-6" d="m284.16,161.43l-4.53-1.78.05-.13-12.78-5.11.02-.05-33.61-13.34c-1.51-.59-3.35.08-3.95,1.72l-11.26,28.33c-.59,1.51.08,3.35,1.72,3.95l33.41,13.3v.02s12.84,5.14,12.84,5.14l-.06.16,4.53,1.78c1.64.6,3.48-.2,4.07-1.71l11.26-28.33c.59-1.51-.08-3.35-1.72-3.95Z"/>
      </g>
      <g>
        <path class="cls-11" d="m235.41,139.33c-1.51-.59-3.35.08-3.95,1.72l-11.26,28.33c-.59,1.51.08,3.35,1.72,3.95l33.49,13.33,13.62-33.99-33.61-13.34Z"/>
        <g>
          <rect class="cls-2" x="250.27" y="165.31" width="36.58" height="13.86" transform="translate(8.88 357.6) rotate(-68.19)"/>
          <path class="cls-11" d="m276.72,192.02l11.26-28.33c.59-1.51-.08-3.35-1.72-3.95l-4.53-1.78-13.62,33.99,4.53,1.78c1.64.6,3.48-.2,4.07-1.71Z"/>
        </g>
      </g>
      <rect class="cls-9" x="232.44" y="146.97" width="22.08" height="35.17" transform="translate(.26 329.48) rotate(-68.19)"/>
      <g class="cls-4">
        <path class="cls-2" d="m236.91,166.53l-1.57-.63.93-2.32,1.57.63,4.37-10.95,9.15,3.66-1.02,2.56-6.09-2.44-1.43,3.58,5.09,2.04-1.02,2.56-5.09-2.04-.9,2.24,2.59,1.04-.93,2.32-2.59-1.04-.75,1.87-3.05-1.22.75-1.87Z"/>
      </g>
    </g>
    <g>
      <g class="cls-4">
        <path class="cls-6" d="m222.34,157.44l-1.42-.92,1.36-2.1,1.42.92,6.41-9.9,8.27,5.36-1.5,2.31-5.51-3.57-2.1,3.24,4.6,2.98-1.5,2.31-4.6-2.98-1.31,2.02,2.34,1.52-1.36,2.1-2.34-1.52-1.1,1.69-2.75-1.79,1.1-1.69Z"/>
      </g>
      <g class="cls-5">
        <path class="cls-6" d="m274.2,159.41l-4.1-2.62.08-.12-11.55-7.49.03-.05-30.39-19.6c-1.37-.88-3.3-.57-4.2.92l-16.53,25.61c-.88,1.37-.57,3.3.92,4.2l30.2,19.52v.02s11.6,7.53,11.6,7.53l-.09.15,4.1,2.63c1.49.91,3.45.48,4.33-.89l16.53-25.61c.88-1.37.57-3.3-.92-4.2Z"/>
      </g>
      <g>
        <path class="cls-11" d="m230.66,128.29c-1.37-.88-3.3-.57-4.2.92l-16.53,25.61c-.88,1.37-.57,3.3.92,4.2l30.27,19.57,19.94-30.71-30.39-19.6Z"/>
        <g>
          <rect class="cls-2" x="238.51" y="160.07" width="36.58" height="13.86" transform="translate(-23.06 291.55) rotate(-57.03)"/>
          <path class="cls-11" d="m260.98,187.98l16.53-25.61c.88-1.37.57-3.3-.92-4.2l-4.1-2.63-19.94,30.71,4.1,2.63c1.49.91,3.45.48,4.33-.89Z"/>
        </g>
      </g>
      <rect class="cls-9" x="222.65" y="137.01" width="22.08" height="35.17" transform="translate(-23.19 266.5) rotate(-57.03)"/>
      <g class="cls-4">
        <path class="cls-2" d="m226.85,155.27l-1.42-.92,1.36-2.1,1.42.92,6.41-9.9,8.27,5.36-1.5,2.31-5.51-3.57-2.1,3.24,4.6,2.98-1.5,2.31-4.6-2.98-1.31,2.02,2.34,1.52-1.36,2.1-2.34-1.52-1.1,1.69-2.75-1.79,1.1-1.69Z"/>
      </g>
    </g>
    <g>
      <g class="cls-4">
        <path class="cls-6" d="m231.99,172.83l-1.69.05-.07-2.5,1.69-.05-.33-11.79,9.85-.27.07,2.76-6.56.18.1,3.86,5.48-.15.07,2.76-5.48.15.07,2.41,2.79-.08.07,2.5-2.79.08.05,2.01-3.28.09-.05-2.01Z"/>
      </g>
      <g class="cls-5">
        <path class="cls-6" d="m275.82,145.03l-4.86.16v-.14s-13.77.37-13.77.37v-.06s-36.15,1.08-36.15,1.08c-1.62.05-3.04,1.4-2.94,3.14l.89,30.47c.05,1.62,1.4,3.04,3.14,2.94l35.95-1.03v.02s13.83-.37,13.83-.37v.17s4.87-.16,4.87-.16c1.74-.1,3.12-1.57,3.06-3.19l-.89-30.47c-.05-1.62-1.4-3.04-3.14-2.94Z"/>
      </g>
      <g>
        <path class="cls-11" d="m222.31,144.07c-1.62.05-3.04,1.4-2.94,3.14l.89,30.47c.05,1.62,1.4,3.04,3.14,2.94l36.03-1.03-.97-36.6-36.15,1.08Z"/>
        <g>
          <rect class="cls-2" x="258.85" y="142.85" width="13.86" height="36.58" transform="translate(-4.25 7.23) rotate(-1.55)"/>
          <path class="cls-11" d="m281.12,176.06l-.89-30.47c-.05-1.62-1.4-3.04-3.14-2.94l-4.87.16.97,36.6,4.87-.16c1.74-.1,3.12-1.57,3.06-3.19Z"/>
        </g>
      </g>
      <rect class="cls-9" x="222.12" y="152.98" width="35.17" height="22.08" transform="translate(-4.34 6.53) rotate(-1.55)"/>
      <g class="cls-4">
        <path class="cls-2" d="m234.47,168.49l-1.69.05-.07-2.5,1.69-.05-.33-11.79,9.85-.27.07,2.76-6.56.18.1,3.86,5.48-.15.07,2.76-5.48.15.07,2.41,2.79-.08.07,2.5-2.79.08.05,2.01-3.28.09-.05-2.01Z"/>
      </g>
    </g>
    <g>
      <g class="cls-4">
        <path class="cls-6" d="m233.57,167.48l-1.62-.47.7-2.4,1.62.47,3.29-11.33,9.46,2.76-.77,2.65-6.3-1.84-1.08,3.71,5.27,1.53-.77,2.65-5.27-1.53-.68,2.32,2.68.78-.7,2.4-2.68-.78-.56,1.93-3.15-.92.56-1.93Z"/>
      </g>
      <g class="cls-5">
        <path class="cls-6" d="m283.78,154.4l-4.68-1.33.04-.14-13.22-3.85.02-.05-34.75-10.01c-1.56-.44-3.32.4-3.76,2.09l-8.46,29.29c-.44,1.56.41,3.32,2.09,3.76l34.55,10v.02s13.28,3.87,13.28,3.87l-.05.17,4.68,1.33c1.69.44,3.44-.54,3.89-2.1l8.46-29.29c.44-1.56-.41-3.32-2.09-3.76Z"/>
      </g>
      <g>
        <path class="cls-11" d="m233.12,137.14c-1.56-.44-3.32.41-3.76,2.09l-8.46,29.29c-.44,1.56.41,3.32,2.09,3.76l34.62,10.02,10.25-35.15-34.75-10.01Z"/>
        <g>
          <rect class="cls-2" x="251.01" y="159.75" width="36.58" height="13.86" transform="translate(33.98 378.63) rotate(-73.76)"/>
          <path class="cls-11" d="m279.35,185.57l8.46-29.29c.44-1.56-.41-3.32-2.09-3.76l-4.68-1.33-10.25,35.15,4.68,1.33c1.69.44,3.44-.54,3.89-2.1Z"/>
        </g>
      </g>
      <rect class="cls-9" x="232.55" y="143.87" width="22.08" height="35.17" transform="translate(20.47 350.19) rotate(-73.76)"/>
      <g class="cls-4">
        <path class="cls-2" d="m237.26,164.1l-1.62-.47.7-2.4,1.62.47,3.29-11.33,9.46,2.76-.77,2.65-6.3-1.84-1.08,3.71,5.27,1.53-.77,2.65-5.27-1.53-.68,2.32,2.68.78-.7,2.4-2.68-.78-.56,1.93-3.15-.92.56-1.93Z"/>
      </g>
    </g>
    <g>
      <g class="cls-4">
        <path class="cls-6" d="m243.3,162.96l-1.68.19-.29-2.49,1.68-.19-1.36-11.71,9.79-1.13.32,2.74-6.52.75.44,3.83,5.45-.63.32,2.74-5.45.63.28,2.4,2.77-.32.29,2.49-2.77.32.23,2-3.26.38-.23-2Z"/>
      </g>
      <g class="cls-5">
        <path class="cls-6" d="m284.54,131.44l-4.83.59-.02-.14-13.68,1.58v-.06s-35.92,4.25-35.92,4.25c-1.61.2-2.91,1.66-2.65,3.39l3.56,30.27c.2,1.61,1.66,2.91,3.39,2.65l35.72-4.19v.02s13.75-1.59,13.75-1.59l.02.17,4.83-.59c1.73-.25,2.97-1.83,2.77-3.44l-3.56-30.27c-.2-1.61-1.66-2.91-3.39-2.65Z"/>
      </g>
      <g>
        <path class="cls-11" d="m231.15,135.18c-1.61.2-2.91,1.66-2.65,3.39l3.56,30.27c.2,1.61,1.66,2.91,3.39,2.65l35.8-4.19-4.18-36.37-35.91,4.25Z"/>
        <g>
          <rect class="cls-2" x="269.03" y="130.08" width="13.86" height="36.58" transform="translate(-15.2 32.63) rotate(-6.59)"/>
          <path class="cls-11" d="m292.54,161.89l-3.56-30.27c-.2-1.61-1.66-2.91-3.39-2.65l-4.83.59,4.18,36.37,4.83-.59c1.73-.25,2.97-1.83,2.77-3.44Z"/>
        </g>
      </g>
      <rect class="cls-9" x="232.65" y="142.49" width="35.17" height="22.08" transform="translate(-15.96 29.72) rotate(-6.59)"/>
      <g class="cls-4">
        <path class="cls-2" d="m245.39,158.42l-1.68.19-.29-2.49,1.68-.19-1.36-11.71,9.79-1.13.32,2.74-6.52.75.44,3.83,5.45-.63.32,2.74-5.45.63.28,2.4,2.77-.32.29,2.49-2.77.32.23,2-3.26.38-.23-2Z"/>
      </g>
    </g>
    <g>
      <g class="cls-4">
        <path class="cls-6" d="m244.37,87.96l-.6,5.36,1.9-.7.58,1.59-2.7.99,1.62,4.41-2.02.74-1.62-4.41-2.66.98-.58-1.59,1.87-.69-3.89-3.71,2.21-.81,2.56,2.53c.33.32.58.61.76.87-.03-.38-.02-.76.02-1.15l.34-3.6,2.21-.81Z"/>
      </g>
      <g class="cls-5">
        <path class="cls-6" d="m280.68,97.69l-10.53-28.6c-.55-1.53-2.38-2.38-3.9-1.82l-51.49,18.86c-1.53.55-2.38,2.38-1.82,3.9l10.53,28.6c.55,1.53,2.38,2.38,3.9,1.82l51.49-18.86c1.53-.56,2.38-2.38,1.82-3.9Z"/>
      </g>
      <g>
        <g>
          <path class="cls-10" d="m266.89,65.05l-51.49,18.86c-1.53.55-2.38,2.38-1.82,3.9l10.53,28.6c.55,1.53,2.38,2.38,3.9,1.82l51.49-18.86c1.53-.55,2.38-2.38,1.82-3.9l-10.53-28.6c-.55-1.53-2.38-2.38-3.9-1.82Z"/>
          <path class="cls-2" d="m227.89,113.48l-2.08-5.72c3.18-1.11,6.69.46,7.8,3.64l-5.72,2.08Z"/>
          <path class="cls-2" d="m220.54,93.52l-2.08-5.72,5.72-2.08c1.11,3.05-.59,6.56-3.64,7.8Z"/>
          <path class="cls-2" d="m276.45,95.6l-5.72,2.08c-1.11-3.18.46-6.69,3.64-7.8l2.08,5.72Z"/>
          <path class="cls-2" d="m269.11,75.64c-3.18,1.11-6.69-.46-7.8-3.64l5.72-2.08,2.08,5.72Z"/>
        </g>
        <circle class="cls-2" cx="246.81" cy="91.65" r="10.78" transform="translate(-2.39 6.71) rotate(-1.55)"/>
        <rect class="cls-9" x="225.64" y="84.97" width="43.38" height="13.73" transform="translate(-16.5 90.74) rotate(-20.13)"/>
        <g class="cls-4">
          <path class="cls-10" d="m248.37,84.96l-.6,5.36,1.9-.7.58,1.59-2.7.99,1.62,4.41-2.02.74-1.62-4.41-2.66.98-.58-1.59,1.87-.69-3.89-3.71,2.21-.81,2.56,2.53c.33.32.58.61.76.87-.03-.38-.02-.76.02-1.15l.34-3.6,2.21-.81Z"/>
        </g>
      </g>
    </g>
    <g>
      <g class="cls-4">
        <path class="cls-6" d="m250.7,81.7l-1.29,5.24,1.98-.45.37,1.65-2.81.63,1.03,4.58-2.1.47-1.03-4.58-2.77.62-.37-1.65,1.95-.44-3.38-4.19,2.3-.52,2.21,2.84c.29.36.5.68.64.96.02-.38.08-.76.17-1.14l.81-3.52,2.3-.52Z"/>
      </g>
      <g class="cls-5">
        <path class="cls-6" d="m285.45,96.04l-6.74-29.73c-.35-1.58-2.05-2.66-3.63-2.31l-53.5,12.02c-1.58.35-2.66,2.05-2.31,3.63l6.74,29.73c.35,1.58,2.05,2.66,3.63,2.31l53.5-12.02c1.58-.35,2.66-2.05,2.31-3.63Z"/>
      </g>
      <g>
        <g>
          <path class="cls-10" d="m276.01,61.88l-53.5,12.02c-1.58.35-2.66,2.05-2.31,3.63l6.74,29.73c.35,1.58,2.05,2.66,3.63,2.31l53.5-12.02c1.58-.35,2.66-2.05,2.31-3.63l-6.74-29.73c-.35-1.58-2.05-2.66-3.63-2.31Z"/>
          <path class="cls-2" d="m231.05,104.85l-1.32-5.94c3.3-.69,6.57,1.32,7.26,4.62l-5.94,1.32Z"/>
          <path class="cls-2" d="m226.36,84.11l-1.32-5.94,5.94-1.32c.7,3.17-1.44,6.43-4.62,7.26Z"/>
          <path class="cls-2" d="m281.52,93.42l-5.94,1.32c-.69-3.3,1.32-6.57,4.62-7.26l1.32,5.94Z"/>
          <path class="cls-2" d="m276.83,72.68c-3.3.69-6.57-1.32-7.26-4.62l5.94-1.32,1.32,5.94Z"/>
        </g>
        <circle class="cls-2" cx="252.65" cy="85.66" r="10.78" transform="translate(141.49 328.18) rotate(-84.1)"/>
        <rect class="cls-9" x="231.44" y="79.05" width="43.38" height="13.73" transform="translate(-12.69 57.7) rotate(-12.69)"/>
        <g class="cls-4">
          <path class="cls-10" d="m255.05,79.24l-1.29,5.24,1.98-.45.37,1.65-2.81.63,1.03,4.58-2.1.47-1.03-4.58-2.77.62-.37-1.65,1.95-.44-3.38-4.19,2.3-.52,2.21,2.84c.29.36.5.68.64.96.02-.38.08-.76.17-1.14l.81-3.52,2.3-.52Z"/>
        </g>
      </g>
    </g>
    <g>
      <g class="cls-4">
        <path class="cls-6" d="m241.98,78.84l-1.25,5.25,1.97-.46.38,1.65-2.8.65,1.07,4.57-2.09.49-1.07-4.57-2.76.64-.38-1.65,1.94-.45-3.41-4.16,2.29-.54,2.23,2.82c.29.36.5.68.65.96.02-.38.07-.76.16-1.14l.78-3.53,2.29-.54Z"/>
      </g>
      <g class="cls-5">
        <path class="cls-6" d="m276.83,92.92l-6.97-29.67c-.36-1.58-2.07-2.65-3.65-2.28l-53.4,12.45c-1.58.36-2.65,2.07-2.28,3.65l6.97,29.67c.37,1.58,2.07,2.65,3.65,2.28l53.4-12.45c1.58-.37,2.65-2.07,2.28-3.65Z"/>
      </g>
      <g>
        <g>
          <path class="cls-10" d="m267.11,58.83l-53.4,12.45c-1.58.36-2.65,2.07-2.28,3.65l6.97,29.67c.36,1.58,2.07,2.65,3.65,2.28l53.4-12.45c1.58-.36,2.65-2.07,2.28-3.65l-6.97-29.67c-.36-1.58-2.07-2.65-3.65-2.28Z"/>
          <path class="cls-2" d="m222.5,102.16l-1.37-5.93c3.29-.72,6.58,1.27,7.3,4.56l-5.93,1.37Z"/>
          <path class="cls-2" d="m217.64,81.45l-1.37-5.93,5.93-1.37c.73,3.16-1.39,6.44-4.56,7.3Z"/>
          <path class="cls-2" d="m272.88,90.33l-5.93,1.37c-.72-3.29,1.27-6.58,4.56-7.3l1.37,5.93Z"/>
          <path class="cls-2" d="m268.02,69.62c-3.29.72-6.58-1.27-7.3-4.56l5.93-1.37,1.37,5.93Z"/>
        </g>
        <circle class="cls-2" cx="243.94" cy="82.8" r="10.78" transform="translate(138.37 317.79) rotate(-84.56)"/>
        <rect class="cls-9" x="222.74" y="76.18" width="43.38" height="13.73" transform="translate(-12.48 57.74) rotate(-13.14)"/>
        <g class="cls-4">
          <path class="cls-10" d="m246.32,76.35l-1.25,5.25,1.97-.46.38,1.65-2.8.65,1.07,4.57-2.09.49-1.07-4.57-2.76.65-.38-1.65,1.94-.45-3.41-4.16,2.29-.54,2.23,2.82c.29.36.5.68.65.96.02-.38.07-.76.16-1.14l.78-3.53,2.29-.54Z"/>
        </g>
      </g>
    </g>
    <g>
      <g class="cls-4">
        <path class="cls-6" d="m244.05,73.13l-.6,5.36,1.9-.7.58,1.59-2.7.99,1.62,4.41-2.02.74-1.62-4.41-2.66.98-.58-1.59,1.87-.69-3.89-3.71,2.21-.81,2.56,2.53c.33.32.58.61.76.87-.03-.37-.02-.76.02-1.15l.34-3.6,2.21-.81Z"/>
      </g>
      <g class="cls-5">
        <path class="cls-6" d="m280.36,82.87l-10.53-28.6c-.55-1.53-2.38-2.38-3.9-1.82l-51.49,18.86c-1.53.55-2.38,2.38-1.82,3.9l10.53,28.6c.55,1.53,2.38,2.38,3.9,1.82l51.49-18.86c1.53-.56,2.38-2.38,1.82-3.9Z"/>
      </g>
      <g>
        <g>
          <path class="cls-10" d="m266.57,50.22l-51.49,18.86c-1.53.55-2.38,2.38-1.82,3.9l10.53,28.6c.55,1.53,2.38,2.38,3.9,1.82l51.49-18.86c1.53-.55,2.38-2.38,1.82-3.9l-10.53-28.6c-.55-1.53-2.38-2.38-3.9-1.82Z"/>
          <path class="cls-2" d="m227.56,98.66l-2.08-5.72c3.18-1.11,6.69.46,7.8,3.64l-5.72,2.08Z"/>
          <path class="cls-2" d="m220.22,78.7l-2.08-5.72,5.72-2.08c1.11,3.05-.59,6.56-3.64,7.8Z"/>
          <path class="cls-2" d="m276.13,80.78l-5.72,2.08c-1.11-3.18.46-6.69,3.64-7.8l2.08,5.72Z"/>
          <path class="cls-2" d="m268.78,60.82c-3.18,1.11-6.69-.46-7.8-3.64l5.72-2.08,2.08,5.72Z"/>
        </g>
        <circle class="cls-2" cx="246.49" cy="76.83" r="10.78" transform="translate(-1.99 6.69) rotate(-1.55)"/>
        <rect class="cls-9" x="225.31" y="70.15" width="43.38" height="13.73" transform="translate(-11.41 89.73) rotate(-20.13)"/>
        <g class="cls-4">
          <path class="cls-10" d="m248.05,70.13l-.6,5.36,1.9-.7.58,1.59-2.7.99,1.62,4.41-2.02.74-1.62-4.41-2.66.98-.58-1.59,1.87-.69-3.89-3.71,2.21-.81,2.56,2.53c.33.32.58.61.76.87-.03-.37-.02-.76.02-1.15l.34-3.6,2.21-.81Z"/>
        </g>
      </g>
    </g>
    <g>
      <g class="cls-4">
        <path class="cls-6" d="m241.82,66.12l.96,5.31,1.62-1.21,1.01,1.35-2.3,1.72,2.81,3.76-1.72,1.29-2.81-3.76-2.27,1.7-1.01-1.35,1.6-1.2-4.8-2.44,1.89-1.41,3.18,1.69c.41.22.74.42.98.62-.14-.35-.24-.72-.32-1.11l-.7-3.54,1.89-1.41Z"/>
      </g>
      <g class="cls-5">
        <path class="cls-6" d="m279.38,65.03l-18.3-24.38c-.97-1.3-2.96-1.59-4.26-.62l-43.91,32.84c-1.3.97-1.59,2.96-.62,4.26l18.3,24.38c.97,1.3,2.96,1.59,4.26.62l43.91-32.84c1.3-.97,1.59-2.96.62-4.26Z"/>
      </g>
      <g>
        <g>
          <path class="cls-10" d="m256.79,37.71l-43.91,32.84c-1.3.97-1.59,2.96-.62,4.26l18.3,24.38c.97,1.3,2.96,1.59,4.26.62l43.91-32.84c1.3-.97,1.59-2.96.62-4.26l-18.3-24.38c-.97-1.3-2.96-1.59-4.26-.62Z"/>
          <path class="cls-2" d="m233.33,95.31l-3.64-4.88c2.73-1.98,6.54-1.48,8.52,1.25l-4.88,3.64Z"/>
          <path class="cls-2" d="m220.57,78.29l-3.64-4.88,4.88-3.64c1.94,2.6,1.32,6.46-1.25,8.52Z"/>
          <path class="cls-2" d="m274.72,64.24l-4.88,3.64c-1.98-2.73-1.48-6.54,1.25-8.52l3.64,4.88Z"/>
          <path class="cls-2" d="m261.96,47.23c-2.73,1.98-6.54,1.48-8.52-1.25l4.88-3.64,3.64,4.88Z"/>
        </g>
        <circle class="cls-2" cx="245.2" cy="68.97" r="10.78" transform="translate(-9.27 80.16) rotate(-18.23)"/>
        <rect class="cls-9" x="224.05" y="62.13" width="43.38" height="13.73" transform="translate(7.66 161.01) rotate(-36.81)"/>
        <g class="cls-4">
          <path class="cls-10" d="m244.79,62.1l.96,5.31,1.62-1.21,1.01,1.35-2.3,1.72,2.81,3.76-1.72,1.29-2.81-3.76-2.27,1.7-1.01-1.35,1.6-1.2-4.8-2.44,1.89-1.41,3.18,1.69c.41.22.74.42.98.62-.14-.35-.24-.72-.32-1.11l-.7-3.54,1.89-1.41Z"/>
        </g>
      </g>
    </g>
    <g>
      <g class="cls-4">
        <path class="cls-6" d="m259.43,73.86l-.6,5.36,1.9-.7.58,1.59-2.7.99,1.62,4.41-2.02.74-1.62-4.41-2.66.98-.58-1.59,1.87-.69-3.89-3.71,2.21-.81,2.56,2.53c.33.32.58.61.76.87-.03-.38-.02-.76.02-1.15l.34-3.6,2.21-.81Z"/>
      </g>
      <g class="cls-5">
        <path class="cls-6" d="m295.75,83.59l-10.53-28.6c-.55-1.53-2.38-2.38-3.9-1.82l-51.49,18.86c-1.53.55-2.38,2.38-1.82,3.9l10.53,28.6c.55,1.53,2.38,2.38,3.9,1.82l51.49-18.86c1.53-.56,2.38-2.38,1.82-3.9Z"/>
      </g>
      <g>
        <g>
          <path class="cls-10" d="m281.96,50.95l-51.49,18.86c-1.53.55-2.38,2.38-1.82,3.9l10.53,28.6c.55,1.53,2.38,2.38,3.9,1.82l51.49-18.86c1.53-.55,2.38-2.38,1.82-3.9l-10.53-28.6c-.55-1.53-2.38-2.38-3.9-1.82Z"/>
          <path class="cls-2" d="m242.95,99.38l-2.08-5.72c3.18-1.11,6.69.46,7.8,3.64l-5.72,2.08Z"/>
          <path class="cls-2" d="m235.61,79.42l-2.08-5.72,5.72-2.08c1.11,3.05-.59,6.56-3.64,7.8Z"/>
          <path class="cls-2" d="m291.52,81.51l-5.72,2.08c-1.11-3.18.46-6.69,3.64-7.8l2.08,5.72Z"/>
          <path class="cls-2" d="m284.17,61.55c-3.18,1.11-6.69-.46-7.8-3.64l5.72-2.08,2.08,5.72Z"/>
        </g>
        <circle class="cls-2" cx="261.88" cy="77.56" r="10.78" transform="translate(-2 7.11) rotate(-1.55)"/>
        <rect class="cls-9" x="240.7" y="70.87" width="43.38" height="13.73" transform="translate(-10.72 95.07) rotate(-20.13)"/>
        <g class="cls-4">
          <path class="cls-10" d="m263.43,70.86l-.6,5.36,1.9-.7.58,1.59-2.7.99,1.62,4.41-2.02.74-1.62-4.41-2.66.98-.58-1.59,1.87-.69-3.89-3.71,2.21-.81,2.56,2.53c.33.32.58.61.76.87-.03-.38-.02-.76.02-1.15l.34-3.6,2.21-.81Z"/>
        </g>
      </g>
    </g>
    <g>
      <g class="cls-4">
        <path class="cls-6" d="m248.33,57.11l-.6,5.36,1.9-.7.58,1.59-2.7.99,1.62,4.41-2.02.74-1.62-4.41-2.66.98-.58-1.59,1.87-.69-3.89-3.71,2.21-.81,2.56,2.53c.33.32.58.61.76.87-.03-.38-.02-.76.02-1.15l.34-3.6,2.21-.81Z"/>
      </g>
      <g class="cls-5">
        <path class="cls-6" d="m284.65,66.85l-10.53-28.6c-.55-1.53-2.38-2.38-3.9-1.82l-51.49,18.86c-1.53.55-2.38,2.38-1.82,3.9l10.53,28.6c.55,1.53,2.38,2.38,3.9,1.82l51.49-18.86c1.53-.56,2.38-2.38,1.82-3.9Z"/>
      </g>
      <g>
        <g>
          <path class="cls-10" d="m270.85,34.2l-51.49,18.86c-1.53.55-2.38,2.38-1.82,3.9l10.53,28.6c.55,1.53,2.38,2.38,3.9,1.82l51.49-18.86c1.53-.55,2.38-2.38,1.82-3.9l-10.53-28.6c-.55-1.53-2.38-2.38-3.9-1.82Z"/>
          <path class="cls-2" d="m231.85,82.64l-2.08-5.72c3.18-1.11,6.69.46,7.8,3.64l-5.72,2.08Z"/>
          <path class="cls-2" d="m224.5,62.68l-2.08-5.72,5.72-2.08c1.11,3.05-.59,6.56-3.64,7.8Z"/>
          <path class="cls-2" d="m280.41,64.76l-5.72,2.08c-1.11-3.18.46-6.69,3.64-7.8l2.08,5.72Z"/>
          <path class="cls-2" d="m273.07,44.8c-3.18,1.11-6.69-.46-7.8-3.64l5.72-2.08,2.08,5.72Z"/>
        </g>
        <circle class="cls-2" cx="250.77" cy="60.81" r="10.78" transform="translate(-1.55 6.8) rotate(-1.55)"/>
        <rect class="cls-9" x="229.6" y="54.12" width="43.38" height="13.73" transform="translate(-5.64 90.22) rotate(-20.13)"/>
        <g class="cls-4">
          <path class="cls-10" d="m252.33,54.11l-.6,5.36,1.9-.7.58,1.59-2.7.99,1.62,4.41-2.02.74-1.62-4.41-2.66.98-.58-1.59,1.87-.69-3.89-3.71,2.21-.81,2.56,2.53c.33.32.58.61.76.87-.03-.38-.02-.76.02-1.15l.34-3.6,2.21-.81Z"/>
        </g>
      </g>
    </g>
    <g>
      <g class="cls-4">
        <path class="cls-6" d="m262.37,64.19l-.89,5.32,1.94-.59.5,1.62-2.75.84,1.38,4.49-2.05.63-1.38-4.49-2.71.83-.5-1.62,1.91-.58-3.69-3.92,2.25-.69,2.42,2.67c.31.34.55.64.71.91,0-.38.02-.76.08-1.15l.54-3.57,2.25-.69Z"/>
      </g>
      <g class="cls-5">
        <path class="cls-6" d="m298.12,75.85l-8.97-29.13c-.47-1.55-2.24-2.5-3.8-2.03l-52.43,16.05c-1.55.47-2.5,2.24-2.03,3.8l8.97,29.13c.47,1.55,2.24,2.5,3.8,2.03l52.43-16.05c1.55-.47,2.5-2.24,2.03-3.8Z"/>
      </g>
      <g>
        <g>
          <path class="cls-10" d="m286.11,42.51l-52.43,16.05c-1.55.47-2.5,2.24-2.03,3.8l8.97,29.13c.47,1.55,2.24,2.5,3.8,2.03l52.43-16.05c1.55-.47,2.5-2.24,2.03-3.8l-8.97-29.13c-.47-1.55-2.24-2.5-3.8-2.03Z"/>
          <path class="cls-2" d="m244.55,88.76l-1.77-5.83c3.24-.94,6.65.82,7.59,4.06l-5.83,1.77Z"/>
          <path class="cls-2" d="m238.29,68.44l-1.77-5.83,5.83-1.77c.94,3.11-.95,6.52-4.06,7.59Z"/>
          <path class="cls-2" d="m294,73.53l-5.83,1.77c-.94-3.24.82-6.65,4.06-7.59l1.77,5.83Z"/>
          <path class="cls-2" d="m287.75,53.21c-3.24.94-6.65-.82-7.59-4.06l5.83-1.77,1.77,5.83Z"/>
        </g>
        <circle class="cls-2" cx="264.62" cy="67.99" r="10.78" transform="translate(189.52 330.68) rotate(-88.46)"/>
        <rect class="cls-9" x="243.43" y="61.33" width="43.38" height="13.73" transform="translate(-8.35 80.68) rotate(-17.04)"/>
        <g class="cls-4">
          <path class="cls-10" d="m266.52,61.41l-.89,5.32,1.94-.59.5,1.62-2.75.84,1.38,4.49-2.05.63-1.38-4.49-2.71.83-.5-1.62,1.91-.58-3.69-3.92,2.25-.69,2.42,2.67c.31.34.55.64.71.91,0-.38.02-.76.08-1.15l.54-3.57,2.25-.69Z"/>
        </g>
      </g>
    </g>
    <g>
      <g class="cls-5">
        <path class="cls-6" d="m136.71,150.83l.03-3.21c-1-.3-1.73-.73-2.19-1.32-.46-.58-.69-1.29-.68-2.11,0-.84.28-1.54.81-2.1.53-.56,1.24-.88,2.12-.96v-.76s1.12.01,1.12.01v.76c.8.1,1.44.39,1.92.85.48.46.77,1.07.9,1.84l-1.94.23c-.11-.6-.41-1.01-.91-1.23l-.03,2.99c1.22.34,2.05.78,2.49,1.31.44.53.65,1.21.65,2.04,0,.92-.3,1.7-.86,2.33-.56.63-1.34,1.01-2.34,1.14v1.43s-1.12-.01-1.12-.01v-1.39c-.87-.12-1.58-.45-2.13-1.01s-.89-1.34-1.03-2.34l2-.19c.08.41.23.76.45,1.06.22.3.47.51.74.65Zm.08-8.03c-.3.1-.54.27-.72.51-.18.24-.27.51-.28.81,0,.27.08.52.24.76.16.23.41.42.74.57l.03-2.65Zm1.03,8.15c.38-.07.7-.24.94-.52.24-.28.37-.61.37-.99,0-.34-.09-.64-.29-.89-.2-.25-.53-.44-.98-.58l-.03,2.98Z"/>
      </g>
      <g class="cls-5">
        <path class="cls-6" d="m164.98,129.25l-54.81-.51c-1.67,0-3.08,1.28-3.08,3.08l-.26,30.42c0,1.67,1.28,3.08,3.08,3.08l54.81.51c1.67,0,3.08-1.28,3.08-3.08l.26-30.42c0-1.67-1.41-3.08-3.08-3.08Z"/>
      </g>
      <g>
        <g>
          <path class="cls-1" d="m166.98,126.25l-54.81-.51c-1.67,0-3.08,1.28-3.08,3.08l-.26,30.42c0,1.67,1.28,3.08,3.08,3.08l54.81.51c1.67,0,3.08-1.28,3.08-3.08l.26-30.42c0-1.67-1.41-3.08-3.08-3.08Z"/>
          <path class="cls-2" d="m113.33,157.69v-6.03c3.34,0,6.03,2.82,6.03,6.16l-6.03-.13Z"/>
          <path class="cls-2" d="m113.59,136.38v-6.03h6.03c.13,3.47-2.7,6.16-6.03,6.03Z"/>
          <path class="cls-2" d="m165.19,158.2h-6.03c0-3.34,2.82-6.03,6.16-6.03l-.13,6.03Z"/>
          <path class="cls-2" d="m165.44,136.9c-3.34,0-6.03-2.82-6.03-6.16h6.16l-.13,6.16Z"/>
          <path class="cls-2" d="m139.26,155c-11.94-.13-21.56-5.01-21.56-10.91s9.75-10.52,21.69-10.4c11.94.13,21.56,5.01,21.56,10.91s-9.75,10.52-21.69,10.4Z"/>
        </g>
        <rect class="cls-9" x="132.52" y="122.64" width="13.73" height="43.51" transform="translate(-6.35 282.37) rotate(-89.44)"/>
        <g class="cls-4">
          <path class="cls-1" d="m138.71,147.83l.03-3.21c-1-.3-1.73-.73-2.19-1.32-.46-.58-.69-1.29-.68-2.11,0-.84.28-1.54.81-2.1.53-.56,1.24-.88,2.12-.96v-.76s1.12.01,1.12.01v.76c.8.1,1.44.39,1.92.85.48.46.77,1.07.9,1.84l-1.94.23c-.11-.6-.41-1.01-.91-1.23l-.03,2.99c1.22.34,2.05.78,2.49,1.31.44.53.65,1.21.65,2.04,0,.92-.3,1.7-.86,2.33-.56.63-1.34,1.01-2.34,1.14v1.43s-1.12-.01-1.12-.01v-1.39c-.87-.12-1.58-.45-2.13-1.01s-.89-1.34-1.03-2.34l2-.19c.08.41.23.76.45,1.06.22.3.47.51.74.65Zm.08-8.03c-.3.1-.54.27-.72.51-.18.24-.27.51-.28.81,0,.27.08.52.24.76.16.23.41.42.74.57l.03-2.65Zm1.03,8.15c.38-.07.7-.24.94-.52.24-.28.37-.61.37-.99,0-.34-.09-.64-.29-.89-.2-.25-.53-.44-.98-.58l-.03,2.98Z"/>
        </g>
      </g>
    </g>
    <g>
      <g class="cls-5">
        <path class="cls-6" d="m149.49,139.24l.03-3.21c-1-.3-1.73-.73-2.19-1.32-.46-.58-.69-1.29-.68-2.11,0-.84.28-1.54.81-2.1.53-.56,1.24-.88,2.12-.96v-.76s1.12.01,1.12.01v.76c.8.1,1.44.39,1.92.85.47.46.77,1.07.9,1.84l-1.94.23c-.11-.6-.41-1.01-.91-1.23l-.03,2.99c1.22.34,2.05.78,2.49,1.31.44.53.65,1.21.65,2.04,0,.92-.3,1.7-.86,2.33-.56.63-1.34,1.01-2.34,1.14v1.43s-1.12-.01-1.12-.01v-1.39c-.87-.12-1.58-.45-2.13-1.01s-.89-1.34-1.03-2.34l2-.19c.08.41.23.76.45,1.06.22.3.47.51.74.65Zm.08-8.03c-.3.1-.54.27-.72.51-.18.24-.27.51-.28.81,0,.27.08.52.24.76.16.23.41.42.74.57l.03-2.65Zm1.03,8.15c.38-.07.7-.24.94-.52.24-.28.37-.61.37-.99,0-.34-.09-.64-.29-.89-.2-.25-.53-.44-.98-.58l-.03,2.98Z"/>
      </g>
      <g class="cls-5">
        <path class="cls-6" d="m177.77,117.65l-54.81-.51c-1.67,0-3.08,1.28-3.08,3.08l-.26,30.42c0,1.67,1.28,3.08,3.08,3.08l54.81.51c1.67,0,3.08-1.28,3.08-3.08l.26-30.42c0-1.67-1.41-3.08-3.08-3.08Z"/>
      </g>
      <g>
        <g>
          <path class="cls-1" d="m179.77,114.65l-54.81-.51c-1.67,0-3.08,1.28-3.08,3.08l-.26,30.42c0,1.67,1.28,3.08,3.08,3.08l54.81.51c1.67,0,3.08-1.28,3.08-3.08l.26-30.42c0-1.67-1.41-3.08-3.08-3.08Z"/>
          <path class="cls-2" d="m126.12,146.1v-6.03c3.34,0,6.03,2.82,6.03,6.16l-6.03-.13Z"/>
          <path class="cls-2" d="m126.37,124.79v-6.03h6.03c.13,3.47-2.7,6.16-6.03,6.03Z"/>
          <path class="cls-2" d="m177.97,146.61h-6.03c0-3.34,2.82-6.03,6.16-6.03l-.13,6.03Z"/>
          <path class="cls-2" d="m178.23,125.31c-3.34,0-6.03-2.82-6.03-6.16h6.16l-.13,6.16Z"/>
          <path class="cls-2" d="m152.04,143.41c-11.94-.13-21.56-5.01-21.56-10.91s9.75-10.52,21.69-10.4c11.94.13,21.56,5.01,21.56,10.91s-9.75,10.52-21.69,10.4Z"/>
        </g>
        <rect class="cls-9" x="145.31" y="111.05" width="13.73" height="43.51" transform="translate(17.9 283.68) rotate(-89.44)"/>
        <g class="cls-4">
          <path class="cls-1" d="m151.49,136.24l.03-3.21c-1-.3-1.73-.73-2.19-1.32-.46-.58-.69-1.29-.68-2.11,0-.84.28-1.54.81-2.1.53-.56,1.24-.88,2.12-.96v-.76s1.12.01,1.12.01v.76c.8.1,1.44.39,1.92.85.47.46.77,1.07.9,1.84l-1.94.23c-.11-.6-.41-1.01-.91-1.23l-.03,2.99c1.22.34,2.05.78,2.49,1.31.44.53.65,1.21.65,2.04,0,.92-.3,1.7-.86,2.33-.56.63-1.34,1.01-2.34,1.14v1.43s-1.12-.01-1.12-.01v-1.39c-.87-.12-1.58-.45-2.13-1.01s-.89-1.34-1.03-2.34l2-.19c.08.41.23.76.45,1.06.22.3.47.51.74.65Zm.08-8.03c-.3.1-.54.27-.72.51-.18.24-.27.51-.28.81,0,.27.08.52.24.76.16.23.41.42.74.57l.03-2.65Zm1.03,8.15c.38-.07.7-.24.94-.52.24-.28.37-.61.37-.99,0-.34-.09-.64-.29-.89-.2-.25-.53-.44-.98-.58l-.03,2.98Z"/>
        </g>
      </g>
    </g>
    <g>
      <g class="cls-5">
        <path class="cls-6" d="m127.39,130.36l.03-3.21c-1-.3-1.73-.73-2.19-1.32-.46-.58-.69-1.29-.68-2.11,0-.84.28-1.54.81-2.1.53-.56,1.24-.88,2.12-.96v-.76s1.12.01,1.12.01v.76c.8.1,1.44.39,1.92.85.47.46.77,1.07.9,1.84l-1.94.23c-.11-.6-.41-1.01-.91-1.23l-.03,2.99c1.22.34,2.05.78,2.49,1.31.44.53.65,1.21.65,2.04,0,.92-.3,1.7-.86,2.33-.56.63-1.34,1.01-2.34,1.14v1.43s-1.12-.01-1.12-.01v-1.39c-.87-.12-1.58-.45-2.13-1.01s-.89-1.34-1.03-2.34l2-.19c.08.41.23.76.45,1.06.22.3.47.51.74.65Zm.08-8.03c-.3.1-.54.27-.72.51-.18.24-.27.51-.28.81,0,.27.08.52.24.76.16.23.41.42.74.57l.03-2.65Zm1.03,8.15c.38-.07.7-.24.94-.52.24-.28.37-.61.37-.99,0-.34-.09-.64-.29-.89-.2-.25-.53-.44-.98-.58l-.03,2.98Z"/>
      </g>
      <g class="cls-5">
        <path class="cls-6" d="m155.66,108.77l-54.81-.51c-1.67,0-3.08,1.28-3.08,3.08l-.26,30.42c0,1.67,1.28,3.08,3.08,3.08l54.81.51c1.67,0,3.08-1.28,3.08-3.08l.26-30.42c0-1.67-1.41-3.08-3.08-3.08Z"/>
      </g>
      <g>
        <g>
          <path class="cls-1" d="m157.66,105.77l-54.81-.51c-1.67,0-3.08,1.28-3.08,3.08l-.26,30.42c0,1.67,1.28,3.08,3.08,3.08l54.81.51c1.67,0,3.08-1.28,3.08-3.08l.26-30.42c0-1.67-1.41-3.08-3.08-3.08Z"/>
          <path class="cls-2" d="m104.01,137.22v-6.03c3.34,0,6.03,2.82,6.03,6.16l-6.03-.13Z"/>
          <path class="cls-2" d="m104.27,115.91v-6.03h6.03c.13,3.47-2.7,6.16-6.03,6.03Z"/>
          <path class="cls-2" d="m155.87,137.73h-6.03c0-3.34,2.82-6.03,6.16-6.03l-.13,6.03Z"/>
          <path class="cls-2" d="m156.12,116.43c-3.34,0-6.03-2.82-6.03-6.16h6.16l-.13,6.16Z"/>
          <path class="cls-2" d="m129.94,134.53c-11.94-.13-21.56-5.01-21.56-10.91s9.75-10.52,21.69-10.4c11.94.13,21.56,5.01,21.56,10.91s-9.75,10.52-21.69,10.4Z"/>
        </g>
        <rect class="cls-9" x="123.2" y="102.17" width="13.73" height="43.51" transform="translate(4.89 252.78) rotate(-89.44)"/>
        <g class="cls-4">
          <path class="cls-1" d="m129.39,127.36l.03-3.21c-1-.3-1.73-.73-2.19-1.32-.46-.58-.69-1.29-.68-2.11,0-.84.28-1.54.81-2.1.53-.56,1.24-.88,2.12-.96v-.76s1.12.01,1.12.01v.76c.8.1,1.44.39,1.92.85.47.46.77,1.07.9,1.84l-1.94.23c-.11-.6-.41-1.01-.91-1.23l-.03,2.99c1.22.34,2.05.78,2.49,1.31.44.53.65,1.21.65,2.04,0,.92-.3,1.7-.86,2.33-.56.63-1.34,1.01-2.34,1.14v1.43s-1.12-.01-1.12-.01v-1.39c-.87-.12-1.58-.45-2.13-1.01s-.89-1.34-1.03-2.34l2-.19c.08.41.23.76.45,1.06.22.3.47.51.74.65Zm.08-8.03c-.3.1-.54.27-.72.51-.18.24-.27.51-.28.81,0,.27.08.52.24.76.16.23.41.42.74.57l.03-2.65Zm1.03,8.15c.38-.07.7-.24.94-.52.24-.28.37-.61.37-.99,0-.34-.09-.64-.29-.89-.2-.25-.53-.44-.98-.58l-.03,2.98Z"/>
        </g>
      </g>
    </g>
    <g>
      <g class="cls-5">
        <path class="cls-6" d="m150.15,119.28l.03-3.21c-1-.3-1.73-.73-2.19-1.32-.46-.58-.69-1.29-.68-2.11,0-.84.28-1.54.81-2.1.53-.56,1.24-.88,2.12-.96v-.76s1.12.01,1.12.01v.76c.8.1,1.44.39,1.92.85.47.46.77,1.07.9,1.84l-1.94.23c-.11-.6-.41-1.01-.91-1.23l-.03,2.99c1.22.34,2.05.78,2.49,1.31.44.53.65,1.21.65,2.04,0,.92-.3,1.7-.86,2.33-.56.63-1.34,1.01-2.34,1.14v1.43s-1.12-.01-1.12-.01v-1.39c-.87-.12-1.58-.45-2.13-1.01s-.89-1.34-1.03-2.34l2-.19c.08.41.23.76.45,1.06.22.3.47.51.74.65Zm.08-8.03c-.3.1-.54.27-.72.51-.18.24-.27.51-.28.81,0,.27.08.52.24.76.16.23.41.42.74.57l.03-2.65Zm1.03,8.15c.38-.07.7-.24.94-.52.24-.28.37-.61.37-.99,0-.34-.09-.64-.29-.89-.2-.25-.53-.44-.98-.58l-.03,2.98Z"/>
      </g>
      <g class="cls-5">
        <path class="cls-6" d="m178.42,97.69l-54.81-.51c-1.67,0-3.08,1.28-3.08,3.08l-.26,30.42c0,1.67,1.28,3.08,3.08,3.08l54.81.51c1.67,0,3.08-1.28,3.08-3.08l.26-30.42c0-1.67-1.41-3.08-3.08-3.08Z"/>
      </g>
      <g>
        <g>
          <path class="cls-1" d="m180.42,94.7l-54.81-.51c-1.67,0-3.08,1.28-3.08,3.08l-.26,30.42c0,1.67,1.28,3.08,3.08,3.08l54.81.51c1.67,0,3.08-1.28,3.08-3.08l.26-30.42c0-1.67-1.41-3.08-3.08-3.08Z"/>
          <path class="cls-2" d="m126.77,126.14v-6.03c3.34,0,6.03,2.82,6.03,6.16l-6.03-.13Z"/>
          <path class="cls-2" d="m127.03,104.83v-6.03h6.03c.13,3.47-2.7,6.16-6.03,6.03Z"/>
          <path class="cls-2" d="m178.63,126.65h-6.03c0-3.34,2.82-6.03,6.16-6.03l-.13,6.03Z"/>
          <path class="cls-2" d="m178.88,105.35c-3.34,0-6.03-2.82-6.03-6.16h6.16l-.13,6.16Z"/>
          <path class="cls-2" d="m152.7,123.45c-11.94-.13-21.56-5.01-21.56-10.91s9.75-10.52,21.69-10.4c11.94.13,21.56,5.01,21.56,10.91s-9.75,10.52-21.69,10.4Z"/>
        </g>
        <rect class="cls-9" x="145.96" y="91.09" width="13.73" height="43.51" transform="translate(38.51 264.57) rotate(-89.44)"/>
        <g class="cls-4">
          <path class="cls-1" d="m152.15,116.28l.03-3.21c-1-.3-1.73-.73-2.19-1.32-.46-.58-.69-1.29-.68-2.11,0-.84.28-1.54.81-2.1.53-.56,1.24-.88,2.12-.96v-.76s1.12.01,1.12.01v.76c.8.1,1.44.39,1.92.85.47.46.77,1.07.9,1.84l-1.94.23c-.11-.6-.41-1.01-.91-1.23l-.03,2.99c1.22.34,2.05.78,2.49,1.31.44.53.65,1.21.65,2.04,0,.92-.3,1.7-.86,2.33-.56.63-1.34,1.01-2.34,1.14v1.43s-1.12-.01-1.12-.01v-1.39c-.87-.12-1.58-.45-2.13-1.01s-.89-1.34-1.03-2.34l2-.19c.08.41.23.76.45,1.06.22.3.47.51.74.65Zm.08-8.03c-.3.1-.54.27-.72.51-.18.24-.27.51-.28.81,0,.27.08.52.24.76.16.23.41.42.74.57l.03-2.65Zm1.03,8.15c.38-.07.7-.24.94-.52.24-.28.37-.61.37-.99,0-.34-.09-.64-.29-.89-.2-.25-.53-.44-.98-.58l-.03,2.98Z"/>
        </g>
      </g>
    </g>
    <g>
      <g class="cls-5">
        <path class="cls-6" d="m135.71,110.81l.03-3.21c-1-.3-1.73-.73-2.19-1.32-.46-.58-.69-1.29-.68-2.11,0-.84.28-1.54.81-2.1.53-.56,1.24-.88,2.12-.96v-.76s1.12.01,1.12.01v.76c.8.1,1.44.39,1.92.85.47.46.77,1.07.9,1.84l-1.94.23c-.11-.6-.41-1.01-.91-1.23l-.03,2.99c1.22.34,2.05.78,2.49,1.31.44.53.65,1.21.65,2.04,0,.92-.3,1.7-.86,2.33-.56.63-1.34,1.01-2.34,1.14v1.43s-1.12-.01-1.12-.01v-1.39c-.87-.12-1.58-.45-2.13-1.01s-.89-1.34-1.03-2.34l2-.19c.08.41.23.76.45,1.06.22.3.47.51.74.65Zm.08-8.03c-.3.1-.54.27-.72.51-.18.24-.27.51-.28.81,0,.27.08.52.24.76.16.23.41.42.74.57l.03-2.65Zm1.03,8.15c.38-.07.7-.24.94-.52.24-.28.37-.61.37-.99,0-.34-.09-.64-.29-.89-.2-.25-.53-.44-.98-.58l-.03,2.98Z"/>
      </g>
      <g class="cls-5">
        <path class="cls-6" d="m163.98,89.23l-54.81-.51c-1.67,0-3.08,1.28-3.08,3.08l-.26,30.42c0,1.67,1.28,3.08,3.08,3.08l54.81.51c1.67,0,3.08-1.28,3.08-3.08l.26-30.42c0-1.67-1.41-3.08-3.08-3.08Z"/>
      </g>
      <g>
        <g>
          <path class="cls-1" d="m165.98,86.23l-54.81-.51c-1.67,0-3.08,1.28-3.08,3.08l-.26,30.42c0,1.67,1.28,3.08,3.08,3.08l54.81.51c1.67,0,3.08-1.28,3.08-3.08l.26-30.42c0-1.67-1.41-3.08-3.08-3.08Z"/>
          <path class="cls-2" d="m112.33,117.68v-6.03c3.34,0,6.03,2.82,6.03,6.16l-6.03-.13Z"/>
          <path class="cls-2" d="m112.59,96.37v-6.03h6.03c.13,3.47-2.7,6.16-6.03,6.03Z"/>
          <path class="cls-2" d="m164.19,118.19h-6.03c0-3.34,2.82-6.03,6.16-6.03l-.13,6.03Z"/>
          <path class="cls-2" d="m164.44,96.89c-3.34,0-6.03-2.82-6.03-6.16h6.16l-.13,6.16Z"/>
          <path class="cls-2" d="m138.26,114.98c-11.94-.13-21.56-5.01-21.56-10.91s9.75-10.52,21.69-10.4c11.94.13,21.56,5.01,21.56,10.91s-9.75,10.52-21.69,10.4Z"/>
        </g>
        <rect class="cls-9" x="131.52" y="82.62" width="13.73" height="43.51" transform="translate(32.67 241.75) rotate(-89.44)"/>
        <g class="cls-4">
          <path class="cls-1" d="m137.71,107.81l.03-3.21c-1-.3-1.73-.73-2.19-1.32-.46-.58-.69-1.29-.68-2.11,0-.84.28-1.54.81-2.1.53-.56,1.24-.88,2.12-.96v-.76s1.12.01,1.12.01v.76c.8.1,1.44.39,1.92.85.47.46.77,1.07.9,1.84l-1.94.23c-.11-.6-.41-1.01-.91-1.23l-.03,2.99c1.22.34,2.05.78,2.49,1.31.44.53.65,1.21.65,2.04,0,.92-.3,1.7-.86,2.33-.56.63-1.34,1.01-2.34,1.14v1.43s-1.12-.01-1.12-.01v-1.39c-.87-.12-1.58-.45-2.13-1.01s-.89-1.34-1.03-2.34l2-.19c.08.41.23.76.45,1.06.22.3.47.51.74.65Zm.08-8.03c-.3.1-.54.27-.72.51-.18.24-.27.51-.28.81,0,.27.08.52.24.76.16.23.41.42.74.57l.03-2.65Zm1.03,8.15c.38-.07.7-.24.94-.52.24-.28.37-.61.37-.99,0-.34-.09-.64-.29-.89-.2-.25-.53-.44-.98-.58l-.03,2.98Z"/>
        </g>
      </g>
    </g>
  </g>
  <g>
    <g>
      <g class="cls-5">
        <path class="cls-6" d="m46.08,143.86c0,5.31-9.65,9.61-21.55,9.61s-21.54-4.3-21.54-9.61,9.65-9.61,21.54-9.61c11.9,0,21.55,4.3,21.55,9.61Z"/>
      </g>
      <g>
        <path class="cls-8" d="m48.62,139.34c0,4.99-9.4,9.04-21,9.04s-21-4.05-21-9.04v-9.04h42v9.04Z"/>
        <ellipse class="cls-11" cx="27.62" cy="130.31" rx="21" ry="9.04"/>
      </g>
    </g>
    <g>
      <path class="cls-8" d="m53.8,130.63c0,4.99-9.4,9.04-21,9.04s-21-4.05-21-9.04v-9.04h42v9.04Z"/>
      <ellipse class="cls-11" cx="32.8" cy="121.59" rx="21" ry="9.04"/>
    </g>
    <g>
      <path class="cls-8" d="m51.05,116.89c0,4.99-9.4,9.04-21,9.04s-21-4.05-21-9.04v-9.04h42v9.04Z"/>
      <ellipse class="cls-11" cx="30.05" cy="107.86" rx="21" ry="9.04"/>
    </g>
  </g>
  <g>
    <path class="cls-3" d="m209.93,109.6l-16.05,8.62c-.15.08-.33,0-.39-.15l-2.01-5.69c-.06-.16.04-.32.2-.36l18.18-3.89.2,1.18c.02.12-.04.23-.14.29Z"/>
    <path class="cls-3" d="m204.7,105.05l3.91,10.9c.08.21.36.25.48.06l5.86-8.62c.11-.16.02-.38-.16-.42l-9.77-2.27c-.21-.05-.39.16-.32.36Z"/>
  </g>
  <g>
    <path class="cls-3" d="m210.96,137.22l-17.8-3.88c-.16-.04-.26-.21-.2-.37l2.17-5.63c.06-.15.24-.22.39-.14l16.34,8.87-.61,1.03c-.06.1-.18.15-.29.13Z"/>
    <path class="cls-3" d="m209.94,130.36l-4.11,10.82c-.08.21.11.42.33.36l10.06-2.74c.19-.05.26-.27.15-.43l-5.95-8.08c-.13-.17-.4-.14-.48.07Z"/>
  </g>
  <path class="cls-3" d="m6.52,100.66c.74.02.85.48,1.09.87.4.56,3.67,5.48,4.05,6.08.54.97,6.73,8.55,7.15,9.6.32.71,13.28,18.63,13.58,19.31.19.32,6.78,9.78,6.98,10.1.8,1.31,5.25,7.27,6.05,8.59.21.44.47.85.77,1.27.38.53.75,1.14,1.68,1.28.18.02.3.12.41.22.17.1.36.22.68.02s.34-.44.28-.64c.01-.07,0-.1-.02-.22.65-.13,1.02-.52,1.36-.97.22-.27.48-.4.84-.45.68-.08,1.3-.33,1.87-.95.72-.74,1.52-1.43,2.28-2.2.49-.47.9-.99.56-1.45-.5-.63-.89-1.36-1.3-2.04-.59-.88-6.1-8.33-6.69-9.21-.19-.32-5.68-7.77-5.92-8.06-.49-.71-7.52-10.43-8-11.14-.32-.44-8.25-10.32-8.58-10.76-.16-.27-.27-.54-.44-.8-.04-.07-.1-.17-.19-.22-.58-.31-7.55-10.58-7.74-11.17-.12-.29-.41-.49-.57-.75-.32-.44-.61-.9-.94-1.36-.26-.34-.58-.68-.86-1.04-.19-.22-1.21-.16-1.66.11-.38.2-.8.42-1.17.55-.37.13-.6.3-.85.52-.35.35-.71.67-1.1.94-.89.64-1.79,1.26-2.68,1.91-.46.35-.7.76-.74,1.16-.04.29-.1.56-.17.91Z"/>
  <path class="cls-3" d="m7.27,152.09c-.02-.74.43-.88.81-1.14.53-.43,5.25-3.98,5.84-4.39.94-.6,8.15-7.22,9.17-7.69.69-.36,17.83-14.33,18.49-14.68.3-.21,9.37-7.34,9.68-7.55,1.27-.88,6.96-5.66,8.22-6.54.43-.24.82-.51,1.22-.85.51-.41,1.1-.82,1.18-1.75.01-.18.1-.3.19-.42.09-.18.2-.37-.02-.68s-.46-.32-.65-.24c-.07,0-.1,0-.22.04-.16-.64-.58-.99-1.04-1.3-.28-.21-.42-.46-.5-.81-.12-.67-.4-1.28-1.05-1.82-.78-.67-1.52-1.44-2.32-2.15-.5-.47-1.04-.84-1.48-.48-.6.53-1.31.97-1.96,1.42-.84.64-7.97,6.58-8.81,7.22-.3.21-7.43,6.12-7.71,6.38-.68.53-9.98,8.11-10.66,8.64-.42.35-9.83,8.84-10.25,9.18-.26.18-.52.3-.78.48-.07.05-.16.11-.21.2-.28.6-10.13,8.16-10.7,8.38-.28.14-.46.44-.72.61-.42.35-.86.66-1.3,1.02-.32.28-.64.62-.99.92-.21.2-.09,1.22.21,1.65.22.37.47.77.61,1.14.15.36.33.58.57.82.36.33.71.67,1,1.04.69.85,1.36,1.72,2.06,2.57.37.44.8.66,1.2.67.3.03.57.07.91.12Z"/>
  <g class="cls-7">
    <path class="cls-3" d="m66.86,133.76l3.02-1.01-1.31-1.73-7.33-2.46c-.16-.05-.32.04-.36.21l-1.17,5.92c-.03.16.09.32.26.33l8.96.36h0l-2.08-1.63Z"/>
    <path class="cls-3" d="m78.63,142.93c-.08.21.11.42.33.36l10.08-2.68c.19-.05.26-.27.15-.43l-5.89-8.12c-.13-.18-.4-.14-.48.06l-1.49,3.85-6.13-3.38.98,1.93-3.15.45,1.75,1.98h0l5.68,1.28-1.81,4.68Z"/>
  </g>
</svg>