<?xml version="1.0" encoding="UTF-8"?>
<svg id="Layer_1" data-name="Layer 1" xmlns="http://www.w3.org/2000/svg" width="300" height="225" viewBox="0 0 300 225">
  <defs>
    <style>
      .cls-1 {
        fill: #040614;
      }

      .cls-2 {
        fill: #b76c00;
      }

      .cls-3 {
        fill: #fff;
      }

      .cls-4 {
        isolation: isolate;
        opacity: .35;
      }

      .cls-5 {
        fill: #00aeef;
      }

      .cls-6 {
        fill: #232323;
      }

      .cls-7 {
        fill: #0077ae;
      }

      .cls-8 {
        fill: #444;
      }

      .cls-9 {
        fill: #1a1a1c;
      }

      .cls-10 {
        fill: #f7941d;
      }

      .cls-11 {
        fill: #7f7f7f;
      }
    </style>
  </defs>
  <path class="cls-1" d="m187.67,87.4s-.32,21.94,9.63,60.25c6.7,25.81,7.92,38.01,11.26,44.35,1.62,3.07,3.74,4.77,7.22,5.98,0,0-8.77-.95-21.5-4-10.67-2.56-27.46.44-40.58.62-1.31.02,2.25-84.47.94-84.43-1.52.04-2.41,86.8-3.93,86.87-14.03.62-29.37-3.78-40.03-1.98-8.76,1.48-19.42.39-20.77,2.93,0,0,5.99-.83,9.4-7.84,10.41-21.44,27.85-71.64,28.35-98,.65-34.99,60.01-4.73,60.01-4.73Z"/>
  <g>
    <g class="cls-4">
      <ellipse class="cls-6" cx="151.99" cy="209.43" rx="54.28" ry="8.78"/>
    </g>
    <g>
      <g>
        <g>
          <path class="cls-6" d="m155.34,156.69c.24,1.59,5.24,45.74,12.81,51.96,7.56,6.22,11.47,4.15,13.05,2.44,1.59-1.71,3.66-4.76-.12-8.29-3.05-2.81-5.12-15.25-2.07-34.64l-23.66-11.47Z"/>
          <g>
            <path class="cls-6" d="m186.45,206.33c.98.24,1.95.12,2.32-.49.37-.61-.24-1.71-1.34-2.32-3.05-1.46-6.59-1.95-10-1.34-1.34.24-1.83,1.59-1.22,2.81s1.71,1.83,2.56,1.59c2.32-.85,5-.98,7.68-.24Z"/>
            <path class="cls-6" d="m184.98,211.82c.85.49,1.83.61,2.44.12.49-.49.24-1.71-.61-2.56-2.56-2.32-5.73-3.66-9.27-4.02-1.34-.12-2.2.98-1.95,2.32.24,1.34,1.1,2.2,1.95,2.2,2.44-.12,5.12.49,7.44,1.95Z"/>
            <path class="cls-6" d="m180.84,215.97c.49.85,1.34,1.46,2.07,1.22.73-.24,1.1-1.46.61-2.56-1.22-3.17-3.42-5.98-6.46-7.81-1.1-.73-2.44-.12-2.81,1.22-.37,1.22,0,2.44.73,2.81,2.44.98,4.51,2.81,5.85,5.12Z"/>
          </g>
        </g>
        <g>
          <path class="cls-6" d="m150.71,156.32c-.24,1.59-5.49,45.74-12.93,51.84-7.56,6.22-11.47,4.02-13.05,2.44-1.59-1.71-3.66-4.88.12-8.29,3.05-2.81,5.12-15.25,2.2-34.64l23.66-11.34Z"/>
          <g>
            <path class="cls-6" d="m120.7,206.33c-.98.24-1.95.12-2.32-.49s.24-1.71,1.34-2.32c3.05-1.46,6.59-1.95,10-1.22,1.34.24,1.83,1.59,1.22,2.81s-1.71,1.83-2.56,1.46c-2.32-.85-5-.98-7.68-.24Z"/>
            <path class="cls-6" d="m122.17,211.82c-.85.49-1.83.61-2.44.12-.49-.49-.24-1.71.61-2.56,2.56-2.2,5.85-3.66,9.27-4.02,1.34-.12,2.2,1.1,1.95,2.32-.24,1.34-1.1,2.2-1.95,2.2-2.44-.12-5.12.49-7.44,1.95Z"/>
            <path class="cls-6" d="m126.32,215.97c-.49.85-1.34,1.46-2.07,1.22s-.98-1.46-.61-2.56c1.22-3.17,3.54-5.85,6.46-7.81,1.1-.73,2.44-.12,2.81,1.22.37,1.22,0,2.44-.73,2.81-2.44.98-4.51,2.81-5.85,5.12Z"/>
          </g>
        </g>
      </g>
      <path class="cls-8" d="m193.15,133.39c-1.59-15.25-7.93-33.79-20-40.49-5.12-2.93-11.1-5-19.39-6.34-1.95.37-3.78.73-5.49,1.1-.24.12-.61.12-.85.24-.49.12-.98.24-1.46.37-.37.12-.61.12-.98.24-.49.12-.98.24-1.46.49-.24.12-.49.12-.73.24-.73.24-1.34.49-2.07.73-.24.12-.37.12-.61.24-.49.24-.98.37-1.46.61-.24.12-.49.24-.61.24-.49.24-.85.37-1.34.61-.24.12-.37.12-.61.24-.61.24-1.22.61-1.83.98-12.93,7.2-19.27,27.93-20.37,43.66-.12,2.32-.12,4.51-.12,6.59,0,5.37.37,9.76.98,12.44,0,.12.12.24.12.37,3.17,14.64,19.39,25.74,38.79,25.74,21.83,0,39.52-13.9,39.52-30.98v-.49c.37-4.63.37-10.49,0-16.83Z"/>
      <path class="cls-3" d="m182.91,90.7c-5-5.73-11.47-8.54-24.27-9.03h-7.32c-.85,0-1.59,0-2.32.12h-.24c-12.81.49-19.27,3.29-24.27,8.9-6.59,7.56-10,29.03-10.73,45.74,1.1-15.73,7.56-36.47,20.37-43.66,5.12-2.81,11.22-4.88,19.39-6.22,8.29,1.34,14.27,3.54,19.39,6.34,12.93,7.2,19.27,27.93,20.25,43.66-.37-16.83-3.66-38.3-10.25-45.86Z"/>
      <path class="cls-3" d="m153.51,31.3c-7.07,0-15.25-2.81-19.88-4.02-5.49-1.34-8.05-1.46-12.07-1.46-12.2,0-15.98,6.34-16.95,9.03,8.05-24.64,33.42-28.17,48.54-28.05h1.22c15,0,40.49,3.54,48.42,28.3-.98-2.56-4.76-9.03-16.95-9.03-4.02,0-6.59,0-12.07,1.34-4.63,1.22-12.93,3.9-19.88,3.9h-.37Z"/>
      <path class="cls-8" d="m202.67,35.09h0c-.98-2.68-4.76-9.03-16.95-9.03-4.02,0-6.59,0-12.07,1.34-4.63,1.22-12.93,3.9-19.88,3.9h-.24c-7.07,0-15.25-2.81-19.88-4.02-5.49-1.34-8.05-1.46-12.07-1.46-12.2,0-15.98,6.34-16.95,9.03h0c-2.56,2.44-4.27,8.9-4.15,16.59.24,9.64,3.54,17.32,7.32,17.2h.24c8.78,17.69,32.81,25.86,45.37,25.86s36.83-8.05,45.74-25.74h.24c3.78.12,7.07-7.56,7.44-17.2.12-7.56-1.59-14.03-4.15-16.47Z"/>
      <path class="cls-11" d="m153.51,81.8c-6.34,0-19.88-5.98-19.88-18.91s15-13.9,20-13.9,20,1.1,19.88,14.03c0,12.93-13.66,18.78-20,18.78Z"/>
      <path class="cls-6" d="m153.88,52.28c2.81,0,6.83,2.93,7.32,6.22.49,3.42-7.56,3.29-7.56,3.29h-.24s-8.05.12-7.56-3.29c.49-3.42,4.63-6.22,7.32-6.22h.73Z"/>
      <g>
        <circle class="cls-6" cx="133.15" cy="42.4" r="2.44"/>
        <path class="cls-6" d="m176.44,42.53c0,1.34-1.1,2.44-2.44,2.44s-2.44-1.1-2.44-2.44,1.1-2.44,2.44-2.44,2.44,1.1,2.44,2.44Z"/>
      </g>
      <path class="cls-6" d="m197.42,40.57c3.05.12,5.61,5.98,6.59,14.27.12-1.1.24-2.07.24-3.29.24-7.56-1.59-13.78-4.15-13.9-1.1,0-2.07,1.1-2.81,2.81,0,.12.12.12.12.12Z"/>
      <path class="cls-6" d="m109.73,40.33c-3.05.12-5.61,5.98-6.59,14.27-.12-1.1-.12-2.07-.24-3.29-.12-7.56,1.71-13.78,4.15-13.9,1.1,0,2.07,1.1,2.81,2.93,0,.12,0,0-.12,0Z"/>
      <path class="cls-11" d="m138.02,36.49c-.23,0-.45-.1-.61-.28-.49-.58-1.09-1.02-1.9-1.37-.86-.37-1.59-.55-2.25-.55-.84-.1-1.42.07-2.16.28l-.19.05c-.74.32-1.36.65-1.85,1.14-.31.31-.81.31-1.12,0-.31-.31-.31-.81,0-1.12.75-.75,1.65-1.17,2.44-1.51l.28-.09c.8-.23,1.63-.47,2.69-.34.77,0,1.72.21,2.77.67,1.03.44,1.85,1.03,2.49,1.81.28.33.23.83-.1,1.11-.15.12-.33.18-.5.18Z"/>
      <path class="cls-11" d="m179.01,36.49c-.23,0-.45-.1-.61-.28-.49-.58-1.09-1.02-1.9-1.37-.86-.37-1.59-.55-2.25-.55h-.11c-.69-.1-1.44.11-2.23.34-.74.32-1.36.65-1.85,1.14-.31.31-.81.31-1.12,0-.31-.31-.31-.81,0-1.12.75-.75,1.65-1.17,2.44-1.51.99-.29,1.93-.56,2.93-.43.86,0,1.78.23,2.82.67,1.03.44,1.85,1.03,2.49,1.81.28.33.23.83-.1,1.11-.15.12-.33.18-.5.18Z"/>
      <path class="cls-6" d="m153.51,76.05c-1.78,0-3.38-.49-4.41-.9-1.48-.67-2.64-1.46-3.66-2.48-1.09-1.09-1.97-2.39-2.48-3.66-.15-.37.03-.78.4-.93.36-.15.78.03.93.4.43,1.08,1.22,2.23,2.16,3.18.89.89,1.91,1.58,3.21,2.17.89.35,2.3.79,3.85.79,1.44,0,2.67-.25,3.85-.79,1.11-.44,2.26-1.23,3.21-2.17.89-.9,1.58-1.91,2.17-3.21.16-.36.59-.52.95-.36.36.16.52.59.36.95-.66,1.45-1.44,2.6-2.46,3.63-1.09,1.09-2.39,1.97-3.65,2.48-1.35.61-2.76.9-4.41.9Z"/>
    </g>
  </g>
  <path class="cls-1" d="m188.87,88.55s6.41,20.63,6.93,42.46,5.38,27.99,8.48,40.05c3.9,15.17,2.93,20.93,11.51,26.92-7.97,0-11.75-11.28-20.64-9.15-29.22,7.04-30.58-5.65-30.58-5.65,0,0-.05-8-.99-18.13s-2.79-22.57-4.67-43.86l15.6-27.48,14.36-5.18Z"/>
  <path class="cls-1" d="m116.82,88.55s-7.97,23.57-6.97,45.58c.66,14.44-5.13,24.04-8.44,36.94-3.9,15.17-2.93,20.93-11.51,26.92,7.97,0,11.75-11.28,20.64-9.15,29.22,7.04,30.58-5.65,30.58-5.65,0,0,1.62-7.26,2.62-18.01.94-10.19,1.22-23.31,3.04-43.98l-15.6-27.48-14.36-5.18Z"/>
  <path class="cls-9" d="m186.55,81.99s10.11,3.43,10.59,8.26l-23.29,6.7,18.36,19.36s-27.25,6.45-27.91,41.31c-.41,21.47-4.72-7.06-5.32-32.94-.38-16.14.68-31.24,5.03-32.55,11.32-3.39,16.7-5.9,22.54-10.14Z"/>
  <path class="cls-9" d="m120.44,81.99s-10.11,3.43-10.59,8.26l23.29,6.7-18.36,19.36s27.25,6.45,27.91,41.31c.66,34.86,11.61-62.1.29-65.49-11.32-3.39-16.7-5.9-22.54-10.14Z"/>
  <g>
    <g>
      <path class="cls-6" d="m117.24,155.79c.51,2.23.23,4.74-1.27,5.59s-4.14-.6-5.38-3.16c-3.52-7.16-4.48-15.56-2.93-23.67.72-2.98,3.82-4.41,6.56-2.7,2.91,1.35,4.15,3.91,3.67,5.9-2.27,5.35-2.62,11.82-.64,18.04Z"/>
      <path class="cls-6" d="m132.94,151.77c1.58,1.84,2.36,3.97,1.41,5.52-.94,1.55-3.99,1.46-6.2-.45-6.33-4.93-11.28-11.87-13.3-19.88-.8-3.02,1.27-5.59,4.59-5.6,3.32,0,5.69,1.54,5.84,3.6.45,6.17,3.22,12.1,7.66,16.81Z"/>
      <path class="cls-6" d="m102.25,155.4c-.02,2.42-1.03,4.6-2.73,4.92s-3.9-1.59-4.34-4.45c-1.39-7.94-.2-16.22,3.71-23.68,1.45-2.64,4.93-3.01,7.24-.84s3.01,4.93,1.8,6.58c-3.62,4.95-5.96,10.93-5.68,17.47Z"/>
    </g>
    <path class="cls-1" d="m128.42,97.92c0,4.8-1.74,9.45-6.54,9.45s-8.69-3.89-8.69-8.69,3.89-8.69,8.69-8.69,6.54,3.12,6.54,7.92Z"/>
  </g>
  <g>
    <g>
      <path class="cls-6" d="m190.88,155.79c-.51,2.23-.23,4.74,1.27,5.59s4.14-.6,5.38-3.16c3.52-7.16,4.48-15.56,2.93-23.67-.72-2.98-3.82-4.41-6.56-2.7-2.91,1.35-4.15,3.91-3.67,5.9,2.27,5.35,2.62,11.82.64,18.04Z"/>
      <path class="cls-6" d="m175.18,151.77c-1.58,1.84-2.36,3.97-1.41,5.52.94,1.55,3.99,1.46,6.2-.45,6.33-4.93,11.28-11.87,13.3-19.88.8-3.02-1.27-5.59-4.59-5.6-3.32,0-5.69,1.54-5.84,3.6-.45,6.17-3.22,12.1-7.66,16.81Z"/>
      <path class="cls-6" d="m205.87,155.4c.02,2.42,1.03,4.6,2.73,4.92s3.9-1.59,4.34-4.45c1.39-7.94.2-16.22-3.71-23.68-1.45-2.64-4.93-3.01-7.24-.84-2.3,2.17-3.01,4.93-1.8,6.58,3.62,4.95,5.96,10.93,5.68,17.47Z"/>
    </g>
    <path class="cls-1" d="m179.7,97.92c0,4.8,1.74,9.45,6.54,9.45,4.8,0,8.69-3.89,8.69-8.69,0-4.8-3.89-8.69-8.69-8.69-4.8,0-6.54,3.12-6.54,7.92Z"/>
  </g>
  <polygon class="cls-9" points="116.58 87.4 109.85 90.26 133.14 96.95 129.95 91.3 121.47 85.97 116.58 87.4"/>
  <polygon class="cls-9" points="188.64 84.78 197.14 90.26 173.85 96.95 179.01 89.56 188.64 84.78"/>
  <ellipse class="cls-1" cx="131.31" cy="39.68" rx="13.6" ry="8.63"/>
  <ellipse class="cls-1" cx="171.57" cy="39.68" rx="13.6" ry="8.63"/>
  <path class="cls-1" d="m142.3,40.22l-.97-.26c.04-.17,1.18-4.12,10.18-4.12s10.14,3.84,10.18,4l-.96.26s-1.08-3.26-9.22-3.26-9.21,3.35-9.22,3.38Z"/>
  <g>
    <path class="cls-1" d="m124.89,122.33c-.7-5.64-.72-12.99,2.9-19.72.36-6.8-10.7-11.07-11.92-10.2-6.1,4.32-9.92,18.98-11.72,24.82,0,.03-.02.05-.02.08,2.2-1.04,4.64-1.63,7.22-1.63,5.45,0,10.32,2.59,13.55,6.65Z"/>
    <path class="cls-1" d="m204.38,118.48c-.14-.41-.28-.83-.41-1.25-1.8-5.84-5.61-20.5-11.72-24.82-1.22-.87-12.02,4.18-11.66,10.98,2.65,4.92,3.21,9.76,3.04,14.21,2.8-1.97,6.18-3.12,9.81-3.12,4.14,0,7.93,1.5,10.94,4Z"/>
    <path class="cls-6" d="m124.73,135.8c2.03-2.98.88-7.74.16-13.46-3.23-4.06-8.1-6.65-13.55-6.65-2.57,0-5.01.59-7.22,1.63-1.86,5.98-5.1,11.19-5.1,15.34,0,8.21,21.67,9.06,25.7,3.15Z"/>
    <path class="cls-6" d="m183.39,135.8c4.03,5.91,25.7,5.06,25.7-3.15,0-3.87-2.83-8.68-4.71-14.17-3.01-2.5-6.8-4-10.94-4-3.63,0-7,1.15-9.81,3.12-.29,7.81-2.81,14.43-.24,18.19Z"/>
  </g>
  <g>
    <path class="cls-2" d="m109.84,131.86c1.77-3.1,4.11-5.1,5.22-4.46l-8.98-5.13c-3.1-1.77-7.05-.69-8.82,2.41s-.69,7.05,2.41,8.82l8.98,5.13c-1.11-.64-.58-3.67,1.19-6.77Z"/>
    <path class="cls-10" d="m125.63,140.88c1.77-3.1.69-7.05-2.41-8.82l-7.29-4.16c-1.11-.64-3.45,1.36-5.22,4.46s-2.3,6.13-1.19,6.77l7.29,4.16c3.1,1.77,7.05.69,8.82-2.41Z"/>
  </g>
  <g>
    <path class="cls-7" d="m194.58,133.73c2.33,2.7,3.43,5.58,2.46,6.41l7.84-6.76c2.7-2.33,3.01-6.41.68-9.12-2.33-2.7-6.41-3.01-9.12-.68l-7.84,6.76c.97-.84,3.65.67,5.98,3.38Z"/>
    <path class="cls-5" d="m180.8,145.6c2.33,2.7,6.41,3.01,9.12.68l6.36-5.48c.97-.84-.13-3.71-2.46-6.41s-5.01-4.22-5.98-3.38l-6.36,5.48c-2.7,2.33-3.01,6.41-.68,9.12Z"/>
  </g>
</svg>