<?xml version="1.0" encoding="UTF-8"?>
<svg id="Layer_1" data-name="Layer 1" xmlns="http://www.w3.org/2000/svg" width="300" height="225" viewBox="0 0 300 225">
  <defs>
    <style>
      .cls-1 {
        fill: #fff;
      }

      .cls-2 {
        fill: #23140a;
      }

      .cls-3 {
        isolation: isolate;
        opacity: .35;
      }

      .cls-4 {
        fill: #232323;
      }

      .cls-5 {
        fill: #444;
      }

      .cls-6 {
        fill: #7f7f7f;
      }
    </style>
  </defs>
  <g>
    <g class="cls-3">
      <ellipse class="cls-4" cx="147.48" cy="211.41" rx="58.29" ry="9.43"/>
    </g>
    <g>
      <g>
        <g>
          <path class="cls-4" d="m151.08,154.77c.26,1.7,5.63,49.12,13.75,55.8,8.12,6.68,12.31,4.45,14.02,2.62,1.7-1.83,3.93-5.11-.13-8.91-3.27-3.01-5.5-16.37-2.23-37.2l-25.41-12.31Z"/>
          <g>
            <path class="cls-4" d="m184.48,208.08c1.05.26,2.1.13,2.49-.52.39-.65-.26-1.83-1.44-2.49-3.27-1.57-7.07-2.1-10.74-1.44-1.44.26-1.96,1.7-1.31,3.01s1.83,1.96,2.75,1.7c2.49-.92,5.37-1.05,8.25-.26Z"/>
            <path class="cls-4" d="m182.91,213.97c.92.52,1.96.65,2.62.13.52-.52.26-1.83-.65-2.75-2.75-2.49-6.16-3.93-9.96-4.32-1.44-.13-2.36,1.05-2.1,2.49.26,1.44,1.18,2.36,2.1,2.36,2.62-.13,5.5.52,7.99,2.1Z"/>
            <path class="cls-4" d="m178.45,218.43c.52.92,1.44,1.57,2.23,1.31.79-.26,1.18-1.57.65-2.75-1.31-3.41-3.67-6.42-6.94-8.38-1.18-.79-2.62-.13-3.01,1.31-.39,1.31,0,2.62.79,3.01,2.62,1.05,4.85,3.01,6.29,5.5Z"/>
          </g>
        </g>
        <g>
          <path class="cls-4" d="m146.1,154.37c-.26,1.7-5.89,49.12-13.88,55.67-8.12,6.68-12.31,4.32-14.02,2.62-1.7-1.83-3.93-5.24.13-8.91,3.27-3.01,5.5-16.37,2.36-37.2l25.41-12.18Z"/>
          <g>
            <path class="cls-4" d="m113.88,208.08c-1.05.26-2.1.13-2.49-.52s.26-1.83,1.44-2.49c3.27-1.57,7.07-2.1,10.74-1.31,1.44.26,1.96,1.7,1.31,3.01s-1.83,1.96-2.75,1.57c-2.49-.92-5.37-1.05-8.25-.26Z"/>
            <path class="cls-4" d="m115.45,213.97c-.92.52-1.96.65-2.62.13-.52-.52-.26-1.83.65-2.75,2.75-2.36,6.29-3.93,9.96-4.32,1.44-.13,2.36,1.18,2.1,2.49-.26,1.44-1.18,2.36-2.1,2.36-2.62-.13-5.5.52-7.99,2.1Z"/>
            <path class="cls-4" d="m119.9,218.43c-.52.92-1.44,1.57-2.23,1.31s-1.05-1.57-.65-2.75c1.31-3.41,3.8-6.29,6.94-8.38,1.18-.79,2.62-.13,3.01,1.31.39,1.31,0,2.62-.79,3.01-2.62,1.05-4.85,3.01-6.29,5.5Z"/>
          </g>
        </g>
      </g>
      <path class="cls-5" d="m191.68,129.75c-1.7-16.37-8.51-36.28-21.48-43.49-5.5-3.14-11.92-5.37-20.83-6.81-2.1.39-4.06.79-5.89,1.18-.26.13-.65.13-.92.26-.52.13-1.05.26-1.57.39-.39.13-.65.13-1.05.26-.52.13-1.05.26-1.57.52-.26.13-.52.13-.79.26-.79.26-1.44.52-2.23.79-.26.13-.39.13-.65.26-.52.26-1.05.39-1.57.65-.26.13-.52.26-.65.26-.52.26-.92.39-1.44.65-.26.13-.39.13-.65.26-.65.26-1.31.65-1.96,1.05-13.88,7.73-20.7,30-21.88,46.89-.13,2.49-.13,4.85-.13,7.07,0,5.76.39,10.48,1.05,13.36,0,.13.13.26.13.39,3.41,15.72,20.83,27.64,41.65,27.64,23.45,0,42.44-14.93,42.44-33.27v-.52c.39-4.98.39-11.27,0-18.08Z"/>
      <path class="cls-1" d="m180.68,83.9c-5.37-6.16-12.31-9.17-26.07-9.69h-7.86c-.92,0-1.7,0-2.49.13h-.26c-13.75.52-20.7,3.54-26.07,9.56-7.07,8.12-10.74,31.18-11.53,49.12,1.18-16.9,8.12-39.17,21.88-46.89,5.5-3.01,12.05-5.24,20.83-6.68,8.91,1.44,15.33,3.8,20.83,6.81,13.88,7.73,20.7,30,21.74,46.89-.39-18.08-3.93-41.13-11-49.25Z"/>
    </g>
  </g>
  <g>
    <path class="cls-4" d="m177.92,98.4c-4.83-3.95-11.76-3.88-16.1,1.25-4.33,5.14-3.36,15.47,3.33,20.83,19.12,15.83,43.37,20.54,66.94,13.07,8.22-2.56,13.1-11.62,10.88-18.11-2.21-6.49-8.55-9.02-14.44-7.15-17.94,5.43-36.12,1.95-50.61-9.89Z"/>
    <path class="cls-4" d="m122.08,97.72c4.83-3.95,11.76-3.88,16.1,1.25,4.33,5.14,3.36,15.47-3.33,20.83-19.12,15.83-43.37,20.54-66.94,13.07-8.22-2.56-13.1-11.62-10.88-18.11,2.21-6.49,8.55-9.02,14.44-7.15,17.94,5.43,36.12,1.95,50.61-9.89Z"/>
    <g>
      <path class="cls-1" d="m78.82,90.09l-7.23,105.6c-.22,3.24,2.1,6.01,5.18,6.2l136.51,8.2c3.09.18,5.77-2.3,5.99-5.54l7.23-105.6c.22-3.24-2.1-6.01-5.18-6.2l-136.51-8.2c-3.09-.18-5.77,2.3-5.99,5.54Z"/>
      <g>
        <g>
          <path class="cls-2" d="m91.33,94.64c.3.23.45.29.55.4.29.38.65.51,1.08.22.11-.1.38-.19.48-.13.95.68,2.02.27,3.05.44.31.07.62.14.93.21.16,0,.31.07.42.02.76-.48,1.58-.22,2.41-.28.37-.03.78.05,1.19.07,1.3.02,1.7.36,1.84,1.57.12.63.18,1.31.25,1.94.18,1.36.36,2.78.54,4.15.14,1.15.34,2.26.43,3.41.18,1.47.3,2.93.47,4.4.18,1.42.36,2.83.53,4.3.07.63.19,1.26.36,1.9.5-.54.64-1.21.78-1.83.38-1.23.31-2.59.95-3.75l.05-.05c-.27-1.58.58-2.88.82-4.33.17-1.08.39-2.17.56-3.3v-.16c.54-2,1.12-3.95,1.86-5.88.24-.56.64-1.11.98-1.61.34-.55.66-.59.99,0,.24.38.44.49.92.31.21-.09.57.03.77.2.55.4,1.12.48,1.7.31.58-.07,1.11-.2,1.61.15.2.12.52.03.73-.06.79-.16,1.46.03,2.17.39q1.16.59,2.42.5c-.02.26.02.57-.1.78-.2.72-.08,1.3.25,1.94.18.43.31.96.33,1.43,0,.78.02,1.51.18,2.3.29,1.37.36,2.73.54,4.09.29,2.2.63,4.41.92,6.67.05.06,0,.16.04.21.15.16.29.33.39.44.16-.15.38-.29.39-.45.15-.77.19-1.5.29-2.28.01-.21.02-.42.09-.62.35-1.49.64-3.04,1.05-4.58.55-2.26,1.15-4.52,1.75-6.83,0-.05.06-.05.06-.1-.02-1.46.87-2.45,1.56-3.61.29-.45.67-.74,1.24-.66.98.16,1.96.32,2.94.53.1,0,.2.06.31.07,1-.25,2.03.07,3.07.13.52-.02,1.08.17,1.58-.27.06-.05.36.07.51.13.8.52,1.56,1.03,2.36,1.49.3.23.39.49.37.85,0,.89.05,1.77.05,2.66.04.16-.07.36-.18.46-.66.53-.8,1.31-1.01,2.08-.35,1.49-.75,2.98-1.14,4.47-.65,2.15-1.29,4.25-1.93,6.4-.33,1.13-.55,2.26-.87,3.39-.27,1.03-.64,2.1-.96,3.12-.25.77-.46,1.59-.71,2.36-.52,1.79-.63,3.71-1.51,5.38-.06.15-.13.36-.08.52.21.95-.3,1.65-.76,2.4,0,.1-.12.2-.17.25-.79.21-1.54.59-2.27.6-1.3-.02-2.5.01-3.76.2-.47.08-.94,0-1.4-.03-1.5-.14-3.01-.12-4.45-.57-.15-.06-.36-.12-.46-.08-.39.39-.68.12-1.04-.06-.46-.23-.8-.57-.88-1.04-.29-1.37-.62-2.74-.75-4.16-.13-1.31-.74-2.49-1.03-3.76-.08-.42-.16-.89-.29-1.37-.32-1.69-.64-3.37-1.06-5.06-.17-.74-.54-1.44-.9-2.4-.13.36-.29.5-.35.71-.42,1.9-.85,3.81-1.27,5.71-.3,1.6-.55,3.2-.85,4.79-.15.77-.2,1.6-.5,2.31-.31.82-.92,1.56-1.23,2.38-.36.81-.91,1.35-1.62,1.83-.6.38-1.23.5-1.83.15-.91-.52-1.84-.58-2.89-.53-.73.06-1.51.02-2.29-.03-.31.03-.68.01-1.04,0-.63.02-1.2.03-1.8-.31-.4-.23-.81-.36-1.22-.54-.76-.3-1.47-.66-2.18-1.01-.15-.11-.34-.38-.38-.59-.15-.95-.2-1.89-.41-2.84-.31-1.84-.35-3.77-.98-5.58-.05-.11-.14-.27-.09-.32.3-.66-.09-1.2-.21-1.84-.29-1.37-.47-2.74-.75-4.11-.2-1.11-.5-2.11-.7-3.22-.4-2-.6-4.05-1.06-6.05-.43-1.64-.43-3.31-.7-4.94-.15-.95-.36-1.95-.51-2.89-.07-.58-.19-1.16-.11-1.73.09-.72.34-1.44.6-2.31Zm38.21,25.5v-.16c-.1.05-.15.04-.2.04,0,.05,0,.16.04.16s.11-.05.16-.04Z"/>
          <path class="cls-2" d="m179.48,102.41c-.24-.27-.39-.44-.59-.66-.22,1.13-1.05,1.92-.8,3.08.08.47-.27,1.08-.41,1.64-.24.61-.33,1.28-.22,1.97.17.69-.17,1.14-.61,1.58-.23.3-.5.6-.68.9-.35.61-.67.74-1.29.65-.46-.08-.93-.05-1.4-.08-.42.03-.84.06-1.25.08-1.25.03-2.5.06-3.76.09-.16.04-.43.24-.49.39-.12.31-.14.67-.16,1.03,0,.1.04.26.03.37-.15,1.71-.3,3.37-.4,5.08-.11.98-.11,1.97-.28,3-.05.83-.3,1.65-.4,2.48-.1.88-.15,1.71-.2,2.59-.02,1.25-.09,2.49-.17,3.74,0,.89,0,1.72-.25,2.59-.06.15.03.37.07.53.24.43.11.74-.37.97.14.22.29.38.38.59.14.27-.14.56-.39.39-.3-.17-.46-.08-.68.12-.33.24-.7.38-1.08.61-.45-.39-1.02-.37-1.6-.3-.63.07-1.3-.08-1.92-.06-1.2.03-2.39-.14-3.59,0-.68.12-1.4-.19-2.06-.33-.36-.13-.71-.25-1.13-.33-.46-.13-.92-.26-1.54-.45.9-1.09.55-2.26.56-3.35.01-1.15-.08-2.24-.06-3.39.06-1.87.22-3.79.33-5.66l.24-4.1c.14-1.5.23-3.06.37-4.61.07-.26.08-.57.25-.77.52-.86.83-1.67.31-2.69-.78-.1-1.6-.2-2.48-.3-.88-.1-1.81-.26-2.69-.26-.42-.02-.89,0-1.21.24-.49.39-.91.36-1.47.23-.2-.06-.46-.08-.61-.19-.45-.29-.82-.2-1.16.25-.14-.22-.29-.38-.38-.6-.21-.79-.48-1.54-.28-2.41.12-.36.1-.78.07-1.19-.14-1.1.28-2.17.45-3.26.1-.83.25-1.65.51-2.47.19-.67.55-1.32.89-1.93.12-.2.44-.34.65-.43.9-.31,1.83-.05,2.76,0,1.04.11,2.07.22,3.15.39,1.14.17,2.27.39,3.45.62,1.75.31,3.55.68,5.32.83,1.66.2,3.33.14,5.04.24.31.02.62.14.93.16,1.61.09,3.16.24,4.72.27.94,0,1.88-.1,2.82-.2.21.01.42-.03.58-.17.44-.34.8-.32,1.3.02.25.17.61.24.91.42.3.17.55.4.85.62.25.17.55.4.86.52.41.13.24.43.26.9Zm-18.52,9.55l-.2-.12c-.11.05-.16.09-.16.15s.09.16.09.16c.11-.05.16-.09.27-.19Zm1.6-2.51c-.67-.04-1.24-.18-1.49.59.39-.39,1.18.28,1.49-.59Zm-.94-.89c-.05-.11-.09-.16-.15-.16s-.16.04-.16.04c.05.06.04.16.09.16.05.05.1,0,.21-.04Zm-.68,6.32h.16c0-.15.07-.35.08-.51h-.16c-.06.14-.07.35-.08.51Zm.43-3c0,.05.05.11.1.11.06-.05.16-.09.27-.14,0-.05-.05-.11-.04-.16-.11.05-.22.14-.32.19Zm.64.71l.26.02c.06-.1.07-.26.07-.36,0-.05-.1-.06-.2-.06,0,.1-.07.26-.13.41Zm1.35-2.68c-.11.05-.16.04-.21.09.09.21.13.42.22.64.05,0,.1,0,.16-.04-.04-.21-.13-.42-.17-.69Z"/>
          <path class="cls-2" d="m206.7,100.81c.35.18.6.4.95.63.25.17.5.29.76.41l1.22.54c.4.23.38.6.36.96l-.29,5.04c-.02.26-.03.52,0,.73.06.68-.12,1.24-.42,1.85-.18.41-.21.93-.24,1.39.03,1.3-1.06,2.13-2.34,1.79-.31-.12-.67-.04-1.04-.06-.16,0-.42.08-.47-.03-.74-.77-1.64-.41-2.52-.61-.36-.07-.72-.09-1.09-.12-.83-.05-1.61-.15-2.44-.14-.83-.05-1.72-.05-2.55-.1-.99-.06-1.15.09-1.21,1.02-.04.62-.02,1.25,0,1.88.02.57.21.85.74.77,2.09-.19,4.03.65,5.99.92,1.34.18,2.39.92,3.5,1.61.4.23.65.51.57.97,0,.1-.01.21.03.31.46,1.02.19,2.04-.17,3.01-.19.61-.28,1.23-.42,1.85-.19.67-.39,1.28-.63,1.89-.36.76-.78.89-1.61.79-.72-.09-1.51-.09-2.29-.08-1.31.08-2.57.32-3.85-.07-.31-.07-.68.06-.99.05-.47-.03-.93-.11-1.5-.19-.09.62-.28,1.29-.27,1.96-.08,1.45-.06,2.86-.09,4.27-.06,1.04-.73,1.78-1.19,2.59-.34.55-1.07.51-1.7.53-.68.01-1.41.07-2.14.03-.62-.04-1.29-.13-1.92-.16-.83-.1-1.66-.2-2.48-.3-.67-.09-1.28-.34-1.83-.84-.55-.45-1.25-.85-2-1.42,1.07-.41.85-1.2.89-1.88.06-1.09.07-2.18.03-3.28-.02-.52.21-.93.19-1.45-.14-2.14-.12-4.28-.1-6.41-.02-1.46-.04-2.92,0-4.32-.01-1.62.08-3.22.12-4.79.03-1.46-.04-2.87.09-4.32.09-.67-.07-1.41.38-2.11.17-.25.09-.72.06-1.09-.01-1.56.58-2.83,1.63-3.92.44-.44.55-.44.88.1.24.33.45.39.77.25.49-.28.96-.31,1.57-.17.51.19,1.19.23,1.63-.32.12-.2.38-.24.65-.43-.02.26.03.42,0,.73.78,0,1.56.04,2.35-.02,1.52-.17,3.03-.14,4.59-.1.21.01.42.02.63-.02,1.17-.4,2.26-.39,3.44,0,1.23.38,2.58.36,3.88.43.62.04,1.26-.19,1.75-.58h.1Zm-16.56,17.02h-.21c-.01.2-.07.35-.14.55.1,0,.15.06.26.07.01-.21.08-.41.09-.62Z"/>
        </g>
        <g>
          <path class="cls-2" d="m93.57,149.21c-.23.44-.42.86-.63,1.26.02.02.04.02.06.04.08-.02.15-.03.29-.07-.09.18-.2.21-.34.21l-.94-.05s-.06-.02-.08,0c-.61.19-1.14-.15-1.72-.16-.37,0-.69-.14-1.01-.33-.26-.14-.56-.24-.77-.5.34-.23.32-.56.32-.93,0-.39,0-.78.03-1.17.06-.61.13-1.22.17-1.84.06-.67.04-1.35.08-2.03.02-.43.09-.84.13-1.27.05-.47.07-.94.14-1.41.08-.73.15-1.47.25-2.2.07-.57.17-1.14.3-1.71.03-.16.16-.3.25-.46s.24-.19.42-.14c.08.03.17-.03.23-.05.15-.03.27-.07.42-.08.29,0,.6,0,.91-.03.33,0,.64,0,.97,0,.1,0,.2.03.28.06.3.14.6.32.92.42.32.1.36.45.16.73-.04.06-.09.16-.1.24l-.05.8c0,.08.01.17-.01.25-.08.32-.12.65-.08,1,.03.27-.11.55-.17.83-.11.43,0,.62.43.68.55.11,1.08.21,1.63.26.39.04.78.02,1.19,0h.2c.28.09.46-.06.47-.37,0-.35.04-.7.06-1.06l.03-.47c-.02-.41.09-.82.23-1.2.17-.5.33-1.01.48-1.55.25,0,.53-.01.82-.01.68.04,1.35.1,2.01.12.37.02.69.12,1.01.3.2.11.42.17.49.42.01.1.05.21,0,.29-.16.36-.08.75-.17,1.12-.03.2-.02.43-.1.61-.07.22-.07.43-.08.63-.04.7-.1,1.37-.16,2.06-.01.25,0,.49.02.74.08.72-.04,1.41-.1,2.11-.05.43,0,.86-.03,1.27,0,.37-.04.76-.07,1.13-.03.45-.03.9-.04,1.35.01.14.13.27.14.4.02.37-.1.67-.44.92.11.15.21.28.31.39-.2-.09-.33.08-.48.18-.11.08-.25.11-.38.1-.39-.04-.77-.13-1.14-.13-.45-.03-.9-.03-1.32.05-.48.08-.86-.05-1.26-.28-.06-.04-.12-.11-.2-.11-.16,0-.24-.08-.3-.22-.03-.13-.09-.23-.24-.12-.02-.04-.02-.08-.02-.08.16-.2.27-.42.14-.67-.02-.04,0-.1,0-.14.05-.59.13-1.16.18-1.73.02-.33.02-.66.04-.98,0-.27-.02-.33-.29-.35-.88-.05-1.78-.08-2.66-.11l-.59-.03c-.25,0-.33.06-.35.31l-.11,1.82v.08q-.05.47.17.87Zm-1.01-5.64s.02-.02.02-.04c-.04-.02-.08-.05-.12-.07,0,.02-.02.04-.02.06.04.02.08.05.12.05Zm.53.05s.02-.04.02-.06c-.08-.05-.16-.07-.24-.12,0,.02-.02.04-.02.06.08.05.16.07.24.12Zm-.13.42s-.06-.04-.08-.05-.04.04-.04.04c.02.02.04.04.06.04,0,0,.02-.02.06-.04Z"/>
          <path class="cls-2" d="m113.64,151.42c.01-.23.06-.41.03-.55-.11-.6-.24-1.18-.37-1.79l-1-.06c-.18-.01-.37,0-.55-.03-.28-.06-.57-.09-.83-.25-.32-.16-.74.08-.81.43-.06.28-.15.52-.25.79-.12.34-.25.68-.39,1.02-.07.12-.16.24-.22.34-.09.14-.2.23-.25.38-.16.36-.6.48-.89.19-.02,0-.04-.02-.06-.04-.19-.24-.39-.35-.74-.33-.43.04-.9-.09-1.35-.16-.08,0-.2-.01-.29.02-.19.11-.37.04-.51-.07-.22-.18-.44-.27-.68-.27-.41-.02-.46-.29-.35-.64.1-.36.23-.73.35-1.07.09-.22.17-.44.26-.64.25-.44.28-.95.57-1.36.02-.02.02-.06.02-.06-.11-.29.05-.49.22-.69.02-.04.03-.1.03-.14.06-.37.25-.68.45-1,.02-.04.05-.1.07-.16.05-.2.09-.43.18-.65.1-.28.26-.54.38-.82.07-.18.1-.36.18-.54.13-.42.3-.85.42-1.27.15-.4.29-.8.42-1.21.07-.18.08-.36.13-.55.12-.3.22-.62.36-.9.07-.18.2-.32.31-.45.12-.22.25-.42.37-.64.05-.08.05-.18.08-.3.14-.01.29,0,.45-.01.21-.36.4-.53.99-.35.06.02.14.05.2.01.42-.16.82-.01,1.25.11.12.03.26.06.41.06.67.1,1.34.18,2.02.28.06,0,.14,0,.21,0,.33-.08.62,0,.89.2.22.18.41.35.67.55-.06.28-.08.59.07.91.09.25.05.54.08.81.02.06.01.12.03.19.11.6.22,1.22.37,1.85.15.6.13,1.24.43,1.83.11.21.12.48.18.73.05.21.12.4.17.61.12.4.28.78.36,1.17.1.4.28.78.24,1.21,0,.04,0,.08.01.12.17.3.06.66.19.96.14.38.04.8.28,1.15.13.19.16.42.06.66-.12.32-.18.67-.32.97-.19.36-.44.45-.82.36-.14-.03-.25,0-.37.08-.28.19-.44.18-.72-.02-.14-.09-.28-.2-.44-.27-.12-.07-.26-.08-.39-.08-.23,0-.44.14-.65-.06h-.04c-.34.14-.55-.1-.79-.27-.14-.09-.23-.2-.31-.24Zm-1.42-8.77h-.06s-.07.1-.09.13c-.19.38-.33.76-.44,1.17-.13.44-.32.89-.45,1.35-.11.4-.35.8-.28,1.34.68.02,1.29.46,2.04.26-.08-.44-.11-.87-.26-1.27-.1-.33-.19-.67-.19-1.04,0-.1-.05-.21-.06-.31-.04-.33-.11-.66-.15-1.01-.03-.21-.04-.41-.07-.62Z"/>
          <path class="cls-2" d="m121.92,137.98c.17.19.34.18.55.07.09-.06.25-.05.37-.06.21-.05.42-.14.63-.17.25-.03.5-.05.76-.04.31,0,.63.04.94.1.45.07.87.17,1.32.26.14.03.3.06.45.07.33.04.67.08,1.02.12.06.02.12.05.18.09.18.09.34.1.51,0,.11-.1.21-.11.35-.02.04.02.1.05.16.03.45,0,.81.21,1.21.38.02,0,.06,0,.08.03.35.41.89.57,1.19,1.05.13.21.35.35.54.54.21.22.47.44.66.72.21.32.37.68.51,1.04.09.23.11.5.1.72-.01.53-.02,1.07-.09,1.6-.06.28-.24.56-.36.84-.12.28-.26.54-.36.84-.07.18-.1.36-.12.57,0,.12-.03.22-.18.26-.08.02-.17.11-.22.19-.09.22-.29.33-.52.42-.21.07-.42.18-.59.34-.17.15-.38.27-.57.34-.21.09-.44.08-.55.3-.04.06-.23.09-.33.08-.43-.05-.84-.05-1.26.07-.13.05-.29.02-.41,0-.57-.05-1.12-.13-1.67-.2-.16,0-.23.07-.24.21,0,.35-.02.7-.04,1.04,0,.12-.03.24-.06.37,0,.08-.05.16-.03.22-.02.39-.02.78-.03,1.15,0,.35-.18.63-.38.88-.04.06-.13.1-.19.09-.24-.03-.4.1-.59.21-.13.05-.27.11-.42.12-.62,0-1.23.03-1.83,0-.29-.02-.55-.13-.82-.07-.06.02-.14-.03-.2-.05-.24-.16-.49-.34-.73-.49-.14-.07-.17-.17-.08-.31.02-.06.07-.14.07-.22.03-.53.04-1.07.07-1.6.03-.49.08-1,.09-1.49.03-.49.04-.96.04-1.46l.06-1.02c.06-.69.14-1.39.14-2.07-.02-.76.05-1.5.05-2.26,0-.37-.04-.74-.04-1.11.04-.76.05-1.52.44-2.19.09-.18.25-.34.4-.53Zm4.2,3.98s.01.1.01.17c.04.39.06.78.01,1.17-.02.33.04.68.08,1.03,0,.19.11.29.33.29l.61.04c.53.03.97-.11,1.23-.61.11-.2.19-.44.22-.69.05-.22.03-.45.04-.68-.02-.06-.01-.14-.07-.19-.11-.15-.25-.3-.41-.39-.26-.16-.54-.28-.82-.36-.14-.05-.33-.04-.49,0-.25.05-.48.14-.75.22Z"/>
          <path class="cls-2" d="m136.44,138.82c.17.19.34.18.55.07.09-.06.25-.05.37-.06.21-.05.42-.14.63-.17.25-.03.5-.05.76-.04.31,0,.63.04.94.1.45.07.87.17,1.32.26.14.03.3.06.45.07.33.04.67.08,1.02.12.06.02.12.05.18.09.18.09.34.1.51,0,.11-.1.21-.11.35-.02.04.02.1.05.16.03.45,0,.81.21,1.21.38.02,0,.06,0,.08.03.35.41.89.57,1.19,1.05.13.21.35.35.54.54.21.22.47.44.66.72.21.32.37.68.51,1.04.09.23.11.5.1.72-.01.53-.02,1.07-.09,1.6-.06.28-.24.56-.36.84-.12.28-.26.54-.36.84-.07.18-.1.36-.12.57,0,.12-.03.22-.18.26-.08.02-.17.11-.22.19-.09.22-.29.33-.52.42-.21.07-.42.18-.59.34-.17.15-.38.27-.57.34-.21.09-.44.08-.55.3-.04.06-.23.09-.33.08-.43-.05-.84-.05-1.26.07-.13.05-.29.02-.41,0-.57-.05-1.12-.13-1.67-.2-.16,0-.23.07-.24.21,0,.35-.02.7-.04,1.04,0,.12-.03.24-.06.37,0,.08-.05.16-.03.22-.02.39-.02.78-.03,1.15,0,.35-.18.63-.38.88-.04.06-.13.1-.19.09-.24-.03-.4.1-.59.21-.13.05-.27.11-.42.12-.62,0-1.23.03-1.83,0-.29-.02-.55-.13-.82-.07-.06.02-.14-.03-.2-.05-.24-.16-.49-.34-.73-.49-.14-.07-.17-.17-.08-.31.02-.06.07-.14.07-.22.03-.53.04-1.07.07-1.6.03-.49.08-1,.09-1.49.03-.49.04-.96.04-1.46l.06-1.02c.06-.69.14-1.39.14-2.07-.02-.76.05-1.5.05-2.26,0-.37-.04-.74-.04-1.11.04-.76.05-1.52.44-2.19.09-.18.25-.34.4-.53Zm4.2,3.98s.01.1.01.17c.04.39.06.78.01,1.17-.02.33.04.68.08,1.03,0,.19.11.29.33.29l.61.04c.53.03.97-.11,1.23-.61.11-.2.19-.44.22-.69.05-.22.03-.45.04-.68-.02-.06-.01-.14-.07-.19-.11-.15-.25-.3-.41-.39-.26-.16-.54-.28-.82-.36-.14-.05-.33-.04-.49,0-.25.05-.48.14-.75.22Z"/>
          <path class="cls-2" d="m160.68,150.49c.02.43.01.86,0,1.27-.01.23-.05.45-.04.68,0,.12,0,.25.06.33.11.17.11.31.03.47-.14.24-.23.5-.33.76-.03.08,0,.19.05.27-.05.18-.15.11-.26-.04-.03.1-.03.18-.03.24-.03.12-.13.18-.21.11-.57-.44-1.21-.3-1.83-.33-.37-.02-.72-.06-1.08-.08-.04-.02-.08-.03-.12-.03-.46.12-.88-.01-1.33-.08h-.12c-.56.14-1.09-.03-1.64-.08-.47-.05-.96-.08-1.43-.1-.37-.04-.72-.04-1.08-.08-.49-.05-.86-.36-1.3-.57-.1-.05-.17-.19-.27-.3.38-.22.4-.55.4-.92,0-.29.03-.55.05-.84.03-.55.07-1.13.08-1.7,0-.86.02-1.7.03-2.57,0-.7,0-1.4.04-2.09,0-.47.05-.94.08-1.41,0-.08.03-.16.01-.25-.1-.48,0-.92.08-1.39,0-.12.01-.25,0-.35-.02-.29.01-.55.17-.79.11-.2.17-.42.24-.64.03-.08.07-.16.14-.22.17-.15.42-.08.49.13,0,.06.01.1.05.23.11-.12.17-.17.24-.25.16-.2.28-.17.39,0,.31-.04.6-.09.89-.13.08-.02.19-.03.23-.09.18-.2.38-.18.6-.15.1.03.2.03.33.02.31.02.64-.02.96.16.04.02.12.03.2.01.41-.02.82.09,1.22.15.51.09,1.06.1,1.6.11.33.02.68-.02,1.03-.02.08,0,.18.05.26.04.1,0,.21-.03.31-.04.12-.01.23-.03.35,0,.75.11,1.33.82,1.26,1.59-.04.39-.07.8-.15,1.2-.06.39-.19.75-.31,1.13-.1.26-.38.27-.59.21-.26-.08-.47.01-.7.02l-.35-.02c-.45-.05-.92-.11-1.37-.14-.53-.01-1.07.02-1.6.03-.39,0-.78,0-1.17,0-.23.71.2.87.75.86.56-.03,1.08.08,1.63.2.45.09.89.15,1.34.24.06.02.14.07.2.09.06.02.14.07.2.09.26.06.32.14.28.41-.03.2-.08.39-.12.59-.02.04-.05.12-.03.16.13.25-.06.39-.16.57-.12.22-.15.48-.21.73-.03.2-.08.34-.23.46-.06.06-.11.2-.08.3.04.35-.16.57-.35.78-.13.14-.32.13-.48.05-.3-.12-.61-.16-.92-.05-.06.02-.14.01-.21,0-.26-.06-.55-.13-.81-.19-.26-.06-.55-.13-.83-.19-.29-.04-.43.04-.45.36-.04.26-.01.55-.01.88.39-.02.76-.04,1.11-.02.51,0,1,.06,1.51.11.47.03.96.1,1.43.14.08,0,.19,0,.25-.07.28-.23.54-.09.8.03.14.05.3.1.44.13.1,0,.21-.07.38-.14Zm-5.26-8.72v.08c.06.02.12.03.18.05,0-.02.02-.06.03-.08-.06-.02-.12-.03-.2-.05Z"/>
          <path class="cls-2" d="m164.3,140.72c.12.03.24.08.38.12.11-.42.44-.45.78-.43.23.01.47-.03.7-.04.1,0,.18.03.26.04.18.01.37.04.55.05.06,0,.13-.03.14-.01.33.25.71.1,1.06.18.02,0,.06.02.06,0,.28-.15.45.07.67.16.2.11.4.21.62.26.34.08.48.23.48.6.02.08,0,.19.02.31.51.05.61.53.77.87.39.78.69,1.62,1.03,2.42.13.32.31.63.44.97.16.44.3.9.46,1.34.03.12.13.21.2.36.22-.25.15-.5.17-.73.04-.68.06-1.37.08-2.07,0-.47,0-.97.02-1.44,0-.39.05-.78.07-1.19l.04-.7c.03-.51.42-.88.93-.85.16,0,.35.04.51.07.33.06.63.1.94.16.29.04.57.07.85.13.49.11.97.2,1.46.33.3.06.34.12.34.43-.02.33-.06.67-.06,1.02-.03.57-.03,1.17-.06,1.74l-.14,2.48c-.01.57-.03,1.17-.04,1.76-.04.61-.07,1.23-.11,1.84-.05.8-.07,1.62-.14,2.42-.03.59-.15,1.2-.23,1.79-.03.18-.12.32-.33.37-.08.02-.17.05-.25.09-.36.12-.69.27-1.11.08-.18-.09-.45,0-.7-.02-.14.01-.31,0-.45.01-.29,0-.58,0-.86.01-.06,0-.13.03-.19,0-.66-.24-1.4-.29-1.88-.95-.55-.77-1.02-1.56-1.29-2.46-.14-.44-.38-.82-.65-1.21-.23-.34-.35-.74-.51-1.1-.29-.63-.48-1.32-.96-1.86-.15.09-.07.22-.08.34l-.03.49c-.04.26-.05.51-.09.78-.08.67,0,1.34,0,2.01v.16c-.07.39-.07.76-.04,1.15.02.29-.08.59.03.86.13.29.03.49-.14.71-.16.22-.31.37-.6.44-.58.13-1.18.14-1.75.06-.41-.04-.79-.15-1.18-.21-.12-.03-.25-.01-.35,0-.19.05-.31-.02-.45-.11-.18-.11-.38-.23-.56-.32-.16-.07-.15-.19-.15-.32.06-.39.13-.75.17-1.14.01-.18-.02-.37-.03-.56.01-.18.06-.39.05-.57.01-.23-.01-.47-.02-.7,0-.06-.01-.14.01-.2.07-.92.15-1.82.22-2.74.03-.14-.02-.31-.01-.47.04-.37.08-.75.13-1.14v-.16c0-.33-.01-.66,0-1.01,0-.41.05-.84.05-1.25,0-.27.03-.51.08-.75.06-.3.04-.63.08-.94.06-.39.11-.75.21-1.14.06-.24.21-.46.33-.68Zm1.87,5.28s-.02.02-.04.04c.04.02.1.07.14.11,0-.02.02-.04.02-.06-.04-.02-.08-.07-.12-.09Zm.37.68s-.1-.11-.15-.17c-.08.28.09.17.17.17-.05.12-.16.24,0,.39-.01-.14,0-.27-.02-.39Zm.24-2.31s.02.06.04.08c.12.03.24.03.28-.23-.13.07-.23.11-.32.15Zm.11.87c.09-.14.03-.24-.15-.3.05.13.11.21.15.3Zm.44,1.3c-.08-.07-.14-.13-.16-.13-.17.03-.33.08-.52.15.1.05.18.11.26.16.15-.05.25-.11.42-.18Zm-.58-.28c.04-.06.07-.08.07-.1s-.04-.04-.04-.04c-.02.02-.06.02-.06.04s.02.06.04.1Zm.89-1.96c-.16-.09-.27-.02-.35.08-.04.04-.03.14-.01.2.02.02.1.05.12.03.04,0,.11-.08.11-.1-.13-.19.13-.07.14-.22Zm0,.78c-.12-.03-.24-.03-.35-.04.1.07.19.2.35.04Zm-.16.96h-.06c0,.08-.01.18-.02.28h.06c0-.1.01-.18.02-.28Zm.1-.38h.04s-.01-.1-.03-.14t-.04.02s.02.08.03.13Zm.44-.57s-.04-.02-.06-.02c-.05.08-.07.14-.12.22.04.02.06.02.08.03.02-.06.05-.14.09-.22Z"/>
          <path class="cls-2" d="m191.17,152.26c.02.43.01.86,0,1.27-.01.23-.05.45-.04.68,0,.12,0,.25.06.33.11.17.11.31.03.47-.14.24-.23.5-.33.76-.03.08,0,.19.05.27-.05.18-.15.11-.26-.04-.03.1-.03.18-.03.24-.03.12-.13.18-.21.11-.57-.44-1.21-.3-1.83-.33-.37-.02-.72-.06-1.08-.08-.04-.02-.08-.03-.12-.03-.46.12-.88-.01-1.33-.08h-.12c-.56.14-1.09-.03-1.64-.08-.47-.05-.96-.08-1.43-.1-.37-.04-.72-.04-1.08-.08-.49-.05-.86-.36-1.3-.57-.1-.05-.17-.19-.27-.3.38-.22.4-.55.4-.92,0-.29.03-.55.05-.84.03-.55.07-1.13.08-1.7,0-.86.02-1.7.03-2.57,0-.7,0-1.4.04-2.09,0-.47.05-.94.08-1.41,0-.08.03-.16.01-.25-.1-.48,0-.92.08-1.39,0-.12.01-.25,0-.35-.02-.29.01-.55.17-.79.11-.2.17-.42.24-.64.03-.08.07-.16.14-.22.17-.15.42-.08.49.13,0,.06.01.1.05.23.11-.12.17-.17.24-.25.16-.2.28-.17.39,0,.31-.04.6-.09.89-.13.08-.02.19-.03.23-.09.18-.2.38-.18.6-.15.1.03.2.03.33.02.31.02.64-.02.96.16.04.02.12.03.2.01.41-.02.82.09,1.22.15.51.09,1.06.1,1.6.11.33.02.68-.02,1.03-.02.08,0,.18.05.26.04.1,0,.21-.03.31-.04.12-.01.23-.03.35,0,.75.11,1.33.82,1.26,1.59-.04.39-.07.8-.15,1.2-.06.39-.19.75-.31,1.13-.1.26-.38.27-.59.21-.26-.08-.47.01-.7.02l-.35-.02c-.45-.05-.92-.11-1.37-.14-.53-.01-1.07.02-1.6.03-.39,0-.78,0-1.17,0-.23.71.2.87.75.86.56-.03,1.08.08,1.63.2.45.09.89.15,1.34.24.06.02.14.07.2.09.06.02.14.07.2.09.26.06.32.14.28.41-.03.2-.08.39-.12.59-.02.04-.05.12-.03.16.13.25-.06.39-.16.57-.12.22-.15.48-.21.73-.03.2-.08.34-.23.46-.06.06-.11.2-.08.3.04.35-.16.57-.35.78-.13.14-.32.13-.48.05-.3-.12-.61-.16-.92-.05-.06.02-.14.01-.21,0-.26-.06-.55-.13-.81-.19-.26-.06-.55-.13-.83-.19-.29-.04-.43.04-.45.36-.04.26-.01.55-.01.88.39-.02.76-.04,1.11-.02.51,0,1,.06,1.51.11.47.03.96.1,1.43.14.08,0,.19,0,.25-.07.28-.23.54-.09.8.03.14.05.3.1.44.13.1,0,.21-.07.38-.14Zm-5.26-8.72v.08c.06.02.12.03.18.05,0-.02.02-.06.03-.08-.06-.02-.12-.03-.2-.05Z"/>
          <path class="cls-2" d="m194.71,142.49c.23-.13.45-.24.68-.33.04-.04.14,0,.18.05.33.27.71.1,1.06.06.04-.02.11-.06.17-.05.57.07,1.16.13,1.73.2.69.08,1.37.16,2.06.24.39.04.79.11,1.18.13.29.04.57.03.86.05.37.04.71.08,1.08.12h.02c.22.14.44.21.71.23.14,0,.3.06.49.09,0,0,0,.08.03.1.2.07.43.11.63.18.12.05.24.1.32.18.15.19.31.35.51.48.22.14.39.37.54.59.25.3.48.6.67.92.15.23.24.51.32.78.04.06.01.17.05.23.25.65.25,1.33.25,2.03,0,.41.04.8-.09,1.21-.08.26-.19.52-.27.81-.1.3-.16.61-.24.89-.02.04-.03.1-.05.12-.23.11-.18.3-.17.5,0,.19-.04.37-.2.54-.22.21-.46.45-.5.77,0,.14-.12.28-.21.38-.13.18-.33.31-.44.49-.25.42-.69.62-1,.95-.09.08-.15.14-.22.21-.24.29-.54.44-.93.4-.12,0-.29.02-.39.08-.27.11-.55.19-.83.2s-.36.23-.48.44c-.19-.2-.36-.1-.55,0-.06.04-.15.07-.21.07-.59-.01-1.19-.03-1.76-.04-.29,0-.6.03-.88-.01-.47-.09-.95.09-1.41-.08-.1-.05-.23,0-.35.02-.1.01-.19.09-.29.07-.45-.09-.91.09-1.36.02-.3-.06-.59-.16-.87-.24-.2-.07-.38-.19-.56-.26-.1-.05-.23,0-.31-.04-.06-.02-.07-.17-.09-.27-.02-.02-.08-.09-.06-.09.11-.16-.02-.29,0-.45.1-.65.22-1.3.3-1.95.04-.31.02-.64.04-.96,0-.1.01-.23.04-.33.03-.12.07-.22.08-.32,0-.45,0-.9,0-1.36.05-.9.1-1.8.18-2.7,0-.14.04-.29.05-.43,0-.08-.01-.16,0-.25,0-.19-.04-.39.01-.57.05-.16.1-.3.09-.47-.01-.1.03-.2.04-.31.03-.12.02-.27.04-.41l.03-.49c.03-.14,0-.29.02-.43.02-.27.05-.51.08-.75.03-.18.08-.32.11-.51.05-.14.1-.3.13-.44,0-.08-.01-.16,0-.25-.02-.02-.04-.04-.06-.06Zm4.15,9.83c-.06.41-.03.51.3.47.08-.02.16,0,.24.03.58.24,1.13.07,1.6-.3.36-.27.73-.55.96-.97.25-.46.44-.92.43-1.43,0-.64-.07-1.28-.11-1.94-.03-.27-.09-.5-.4-.56-.06,0-.1-.05-.14-.09-.33-.33-.8-.4-1.22-.54-.2-.09-.43-.11-.63-.16-.24-.06-.47.03-.65.17-.09.06-.06.26-.09.41-.03.2-.04.39-.05.57-.04.31-.08.59-.09.88-.03.55-.04,1.11-.07,1.64-.02.37-.06.72-.08,1.08-.02.27-.01.53,0,.74Z"/>
        </g>
        <g>
          <path class="cls-2" d="m87.23,176.34c.46-.44.39-.99.43-1.52.08-.8.1-1.64.14-2.48.04-1.31.16-2.69.1-4-.01-.91.17-1.78.15-2.65.03-.44.02-.87.04-1.31.11-1.81.18-3.63.28-5.44,0-.57.03-1.14.1-1.75.08-.77.13-1.61.67-2.29.11-.13.15-.29.2-.46.08-.2.16-.43.43-.41s.36.26.38.49c.03.07.03.1.05.24.45-.24.81-.05,1.17.2.23.15.43.13.68-.03.46-.31.93-.42,1.49-.12.69.34,1.41.59,2.14.93.46.19.88.49.81,1.16-.12.94-.14,1.91-.2,2.85-.11,1.24-.21,2.48-.32,3.72-.03.44-.12.9-.18,1.34-.09,1.01-.22,1.97-.31,2.98-.07.64-.14,1.24-.21,1.87-.02.37,0,.71-.03,1.08,0,.1-.01.23-.05.33-.27.66-.25,1.33-.19,2.04.01.37-.11.73-.13,1.1-.07.64-.11,1.27-.18,1.94-.06.5-.16,1.03-.23,1.57-.05.33-.72.87-1.09.85-.3.02-.64.03-.92.12-.27.08-.47.04-.7-.04-.33-.15-.66-.27-.99-.33-.77-.15-1.53-.26-2.3-.4-.4-.09-.69-.38-.83-.76-.12-.28-.24-.52-.39-.83Z"/>
          <path class="cls-2" d="m101.65,155.85c.2.05.4.12.63.2.18-.7.72-.73,1.29-.7.37.02.78-.06,1.15-.07.17,0,.3.05.43.06.3.02.6.07.9.09.1,0,.21-.06.24-.02.55.4,1.17.17,1.73.3.03,0,.1.04.1,0,.45-.24.73.11,1.1.27.33.19.65.34,1.02.43.56.13.79.38.78.99.03.14.02.3.04.51.84.08.99.87,1.26,1.42.63,1.28,1.13,2.66,1.69,3.97.21.52.51,1.04.72,1.59.26.72.49,1.48.75,2.2.06.21.22.35.34.59.36-.42.25-.83.27-1.2.06-1.11.1-2.25.13-3.39.01-.77,0-1.58.04-2.36,0-.64.07-1.28.11-1.95l.07-1.14c.05-.84.69-1.44,1.53-1.39.27.02.57.07.84.12.53.1,1.03.16,1.53.26.47.06.94.12,1.4.22.8.18,1.6.33,2.39.54.5.1.56.2.57.71-.03.54-.1,1.11-.1,1.68-.05.94-.04,1.92-.1,2.86-.08,1.34-.16,2.69-.24,4.06-.02.94-.04,1.92-.07,2.89-.06,1.01-.12,2.01-.18,3.02-.08,1.31-.12,2.65-.23,3.96-.06.97-.25,1.97-.37,2.94-.05.3-.2.53-.54.61-.14.03-.27.09-.41.14-.58.2-1.14.44-1.83.13-.29-.15-.74,0-1.14-.03-.24.02-.51,0-.74.02-.47,0-.94.01-1.42.02-.1,0-.21.06-.3.02-1.09-.4-2.3-.47-3.08-1.56-.9-1.27-1.67-2.56-2.12-4.03-.23-.72-.63-1.35-1.06-1.98-.37-.56-.57-1.21-.84-1.8-.48-1.04-.78-2.17-1.57-3.06-.24.15-.12.36-.13.56l-.05.81c-.06.43-.08.84-.14,1.27-.13,1.1,0,2.19.01,3.3l-.02.27c-.1.63-.11,1.24-.04,1.88.04.47-.12.97.05,1.42.21.48.05.81-.24,1.17-.26.36-.51.61-.98.72-.96.21-1.93.22-2.87.1-.67-.07-1.3-.24-1.93-.35-.2-.05-.4-.02-.57,0-.31.08-.5-.03-.73-.18-.29-.19-.62-.37-.91-.52-.26-.12-.25-.32-.24-.52.1-.63.21-1.23.28-1.87.02-.3-.03-.61-.05-.91.02-.3.1-.63.09-.94.02-.37-.02-.78-.03-1.15,0-.1-.02-.24.02-.34.12-1.51.24-2.98.36-4.49.05-.23-.04-.51-.02-.78.07-.6.14-1.24.21-1.87l.02-.27c0-.54-.04-1.08,0-1.65,0-.67.08-1.38.09-2.05,0-.44.05-.84.14-1.24.1-.5.06-1.04.12-1.54.1-.63.17-1.24.34-1.87.09-.4.35-.75.54-1.11Zm3.07,8.67s-.04.03-.07.06c.07.04.16.11.23.18,0-.03.04-.07.04-.1-.07-.04-.13-.11-.19-.15Zm.61,1.11c-.06-.07-.16-.18-.25-.28-.13.46.15.28.29.29-.08.2-.26.39,0,.64-.02-.24,0-.44-.03-.64Zm.39-3.78c.03.07.03.1.06.14.2.05.4.06.46-.38-.21.12-.38.18-.52.24Zm.19,1.43c.15-.23.06-.4-.24-.49.09.21.18.35.24.49Zm.72,2.13c-.13-.11-.22-.22-.26-.22-.27.05-.55.14-.86.25.16.08.29.19.42.26.24-.09.41-.18.69-.3Zm-.95-.46c.07-.1.11-.13.11-.16s-.06-.07-.06-.07c-.04.03-.1.03-.1.06s.03.1.06.17Zm1.47-3.22c-.26-.15-.44-.03-.58.13-.07.06-.05.23-.02.34.03.04.16.08.2.05.07,0,.18-.12.18-.16-.22-.32.21-.12.22-.36Zm0,1.28c-.2-.05-.4-.06-.57-.07.16.11.32.32.57.07Zm-.26,1.57h-.1c0,.13-.02.3-.03.46h.1c0-.16.02-.3.03-.46Zm.17-.63h.07c-.03-.07-.02-.17-.05-.23t-.07.03c.03.07.03.14.06.21Zm.73-.93s-.07-.04-.1-.04c-.08.13-.11.23-.19.36.07.04.1.04.13.04.04-.1.08-.23.16-.36Z"/>
          <path class="cls-2" d="m145.58,181.78c-1.36-.38-4.65-.57-5.27-.31-.35-.39-.66-.85-1.3-.75-.14-.48-.39-.86-.12-1.39.11-.13.02-.4-.03-.61-.11-.44-.18-.89-.02-1.38.08-.23,0-.51-.02-.74.02-.84.03-1.65.04-2.49-.03-.14.05-.27.06-.43.04-.1.11-.23.09-.37-.06-1.79.11-3.56.21-5.31.05-.33.14-.67.19-1,.05-.33.1-.63.09-.94-.01-.37-.14-.48-.48-.36-.48.14-1.01.08-1.44.39-.07.06-.17.09-.27.09-.37-.05-.64.06-.93.32-.11.09-.38.08-.54.04-.17,0-.33-.09-.49-.2-.26-.18-.5-.16-.79.19-.01-.37-.07-.61-.05-.85,0-.74-.02-1.45.03-2.19.03-.44.12-.9.18-1.37.05-.33.11-.7.13-1.04-.02-.81.45-1.46,1.25-1.78.38-.15.73-.33,1.07-.51s.66-.37,1.01-.51c.72-.3,1.5-.35,2.34-.3.64.07,1.32-.09,1.96-.05,1.14.1,2.32.1,3.41.4.43.13.83.28,1.3.21.24-.02.53.1.76.21.26.12.35.29.27.62-.16.43-.19.9.16,1.32.09.11.12.31.11.44-.08.77-.19,1.54-.27,2.31-.15,1.41-.3,2.78-.44,4.15-.04.6-.1,1.17-.17,1.78-.09.97-.18,1.94-.27,2.91-.12,1.58-.25,3.19-.38,4.76-.06.4-.12.84-.14,1.24-.02.34.06.68.04,1.05.02.2-.03.47-.11.67-.09.37-.18.7-.33,1.03-.08.2-.13.46-.43.51-.1.03-.24.12-.38.25Z"/>
          <path class="cls-2" d="m152.83,176.5c0-.64.83.15,1.19.47.32.29.04-.67.06-1.01.02-.3.52-.21.78-.06.29.15.59.3.85.49,1.29.92,2.55.75,3.84-.05.49-.31.95-.65,1.37-1.03.36-.32.58-.74.65-1.28.12-.84-1.58.45-2.39.57-.34.05-.68.13-1.06.21-.68.13-1.38-.05-2.04-.22-.76-.21-1.53-.26-2.18-.73-.39-.29-.81-.52-1.23-.78-.07-.04-.09-.17-.12-.24-.03-.07-.02-.2-.09-.24-.72-.41-.97-1.3-1.44-1.97-.16-.21-.27-.49-.29-.72-.08-.95-.26-1.93-.2-2.87,0-.1-.02-.2.02-.27.6-1.04.84-2.21,1.34-3.29.08-.16.15-.33.26-.46.33-.39.55-.78.75-1.24.23-.53.53-.95,1.01-1.22.1-.06.21-.16.32-.22.42-.25.84-.52,1.29-.73.66-.3,1.38-.63,2.04-.93.45-.21.93-.38,1.44-.35.77.04,1.55.06,2.32.1.1,0,.17-.02.24-.02.84.05,1.62,0,2.3.44.84.55,1.69,1.14,2.53,1.73.42.29.81.59,1.23.88.68.48,1.08,1.11,1.34,1.9.28.93.74,1.79,1.02,2.72.23.75.62,1.48.57,2.32-.01.23.11.44.13.65.05.37.09.71.11,1.05.03.61-.17,1.2-.14,1.78.07,1.12-.16,2.18-.59,3.17-.2.46-.46.92-.62,1.38-.28.79-.72,1.37-1.16,2.05-.15.23-.36.42-.58.64-.29.29-.67.53-.89.89-.74,1.2-1.89,1.88-3.17,2.44-.28.12-.56.3-.83.46-.7.4-1.32.63-2.12.48-.63-.1-1.31,0-1.99.02-.3.02-.57.03-.86-.22-.13-.11-.33-.15-.53-.17-.37-.02-.7-.07-1.07-.1-.27-.02-.47-.09-.66-.31-.06-.07-.13-.11-.19-.15-.49-.26-1.03-.3-1.52-.46-.36-.12-.72-.34-1.05-.53-.29-.19-.62-.41-.9-.66-.32-.25-.28-.96.07-1.17.14-.09.22-.26.29-.39.26-.46.46-1.02.59-1.52.09-.37.01-.81,0-1.25Zm5.45-9.18c0,.1-.01.2.02.3.22.82.3,1.26,1.06,1.54.46.16.93.19,1.4.28.27.05.54-.07.72-.29.29-.35.55-.71.8-1.06.29-.42.26-.93-.02-1.35-.34-.49-.65-1.01-.95-1.54-.21-.38-.64-.51-1.05-.4-.21.06-.44.08-.65.16-.24.12-.49.24-.67.43-.5.54-.61,1.24-.65,1.92Z"/>
          <path class="cls-2" d="m179.88,183.93c-.29-.29-.65-.34-1.13-.33-1.42.02-2.84.14-4.19-.38-.43-.16-.89-.29-1.32-.41-.1-.04-.16-.11-.26-.18.09-.37.45-.24.63-.4,0-.03.04-.07.04-.07q-.27-.66.45-.85c.27-.05.41-.18.43-.51.02-.3.1-.63.25-.86.74-1.07,1.37-2.18,1.88-3.36.04-.13.15-.29.26-.36.35-.18.47-.48.62-.81.05-.2.19-.36.3-.52.04-.06.14-.09.14-.16-.08-.44.31-.62.52-.88.07-.06.11-.16.15-.23.3-1.09,1.02-1.96,1.52-2.94.31-.66.71-1.24.85-1.94.06-.43.22-.83.63-1.04.24-.12.25-.32,0-.47-.2-.08-.43-.13-.67-.11-.27-.02-.54.1-.85.09-1.41-.05-2.86-.13-4.26-.25-.5-.06-1.04-.06-1.53-.39-.19-.18-.6-.1-.9-.12-.27-.02-.47-.06-.59-.34-.03-.07-.09-.24-.02-.27.25-.29.07-.6.05-.91-.05-.34,0-.67.06-1.01.09-.47.19-.97.02-1.45-.03-.07-.06-.21-.05-.31.11-.8.36-1.56.71-2.28.19-.33.6-.47.93-.32.36.16.73.21,1.1.13.1,0,.2.05.33.05.34.02.7.07,1.04.09.64,0,1.28,0,1.89,0,.51,0,.98-.04,1.45-.05.3.02.57,0,.87.02.77.11,1.5.22,2.27.3.81.05,1.65.06,2.45.08.3-.02.57-.03.88-.05.34-.05.65-.13.97.09.1.07.26.08.37.05.58-.1,1.03.26,1.53.39.07.04.13.14.19.21.03.07.06.17.12.18.43.13.61.57.93.79.23.15.38.39.16.68-.04.1-.08.23-.06.37.1.61-.07,1.21-.27,1.8-.04.13-.05.27-.06.43-.02.87-.03,1.72-.05,2.59,0,.17-.02.37-.13.46-.4.48-.54,1.11-.83,1.6-.3.52-.47,1.12-.93,1.56-.35.28-.58.77-.88,1.16-.19.29-.4.58-.63.91-.07.1-.15.19-.19.33-.08.23-.16.5-.28.72-.56.94-1.12,1.89-1.71,2.8-.08.16-.22.29-.33.42-.11.09-.22.22-.29.32-.27.52-.53,1.05-.76,1.57-.47,1.12-1,2.2-1.77,3.16-.25.32-.67.57-1.09.78-.28.15-.62.23-1,.38Z"/>
          <path class="cls-2" d="m203.65,185.14c-1.36-.38-4.65-.57-5.27-.31-.35-.39-.66-.85-1.3-.75-.14-.48-.39-.86-.12-1.39.11-.13.02-.4-.03-.61-.11-.44-.18-.89-.02-1.38.08-.23,0-.51-.02-.74.02-.84.03-1.65.04-2.49-.03-.14.05-.27.06-.43.04-.1.11-.23.09-.37-.06-1.79.11-3.56.21-5.31.05-.33.14-.67.19-1,.05-.33.1-.63.09-.94-.01-.37-.14-.48-.48-.36-.48.14-1.01.08-1.44.39-.07.06-.17.09-.27.09-.37-.05-.64.06-.93.32-.11.09-.38.08-.54.04-.17,0-.33-.09-.49-.2-.26-.18-.5-.16-.79.19-.01-.37-.07-.61-.05-.85,0-.74-.02-1.45.03-2.19.03-.44.12-.9.18-1.37.05-.33.11-.7.13-1.04-.02-.81.45-1.46,1.25-1.78.38-.15.73-.33,1.07-.51s.66-.37,1.01-.51c.72-.3,1.5-.35,2.34-.3.64.07,1.32-.09,1.96-.05,1.14.1,2.32.1,3.41.4.43.13.83.28,1.3.21.24-.02.53.1.76.21.26.12.35.29.27.62-.16.43-.19.9.16,1.32.09.11.12.31.11.44-.08.77-.19,1.54-.27,2.31-.15,1.41-.3,2.78-.44,4.15-.04.6-.1,1.17-.17,1.78-.09.97-.18,1.94-.27,2.91-.13,1.58-.25,3.19-.38,4.76-.06.4-.12.84-.14,1.24-.02.34.06.68.04,1.05.02.2-.03.47-.11.67-.09.37-.18.7-.33,1.03-.08.2-.13.46-.43.51-.1.03-.24.12-.38.25Z"/>
        </g>
      </g>
      <path class="cls-2" d="m87.33,190.98c.67-.47,1.33-.25,2.01-.16,1.02.09,9.83,1.07,10.89,1.21,1.65.26,16.23,1.02,17.86,1.41,1.13.24,34.12,3.12,35.21,3.36.55.07,17.76,1.77,18.31,1.84,2.29.31,13.38,1.18,15.67,1.48.72.14,1.44.24,2.2.3.98.09,2.04.23,3.02-.28.19-.1.4-.12.62-.13.27-.05.57-.1.62-.43s-.23-.51-.53-.59c-.08-.05-.12-.06-.29-.12.41-.51.26-1,.03-1.51-.13-.32-.05-.57.2-.84.5-.49.75-1.06.51-1.83-.26-.94-.39-1.91-.65-2.89-.13-.62-.4-1.22-1.25-1.29-1.2-.07-2.42-.28-3.61-.44-1.57-.17-15.41-1.29-16.98-1.46-.55-.07-14.36-1.21-14.92-1.24-1.28-.13-19.18-1.7-20.46-1.83-.81-.07-19.7-1.14-20.51-1.21-.47-.06-.88-.16-1.35-.22-.13-.02-.3-.04-.43-.01-.89.18-19.4-1.77-20.27-2.01-.46-.1-.94-.04-1.41-.1-.81-.07-1.62-.17-2.47-.25-.64-.04-1.33-.05-2.02-.1-.43-.01-1.26.69-1.32,1.16-.09.38-.19.79-.37,1.12-.17.32-.16.58-.12.89.11.45.18.89.17,1.32,0,.99-.05,1.98-.05,2.97.02.52.3.95.74,1.22.32.21.59.42.94.69Z"/>
      <path class="cls-2" d="m198.22,193.14c-.03.06-.06.11-.1.16-.16.24-.21.24-.47.13-.19-.1-.4-.13-.6,0-.18.13-.37.06-.45-.15-.08-.18-.19-.28-.39-.32-.31-.06-.52-.34-.53-.65-.02-.08-.02-.16,0-.23.02-.15.05-.29.08-.45.06.03.11.06.19.11.03-.11.06-.21.11-.32.03,0,.1,0,.16-.02.08-.03.18-.06.23-.13.06-.1.15-.19.19-.29.11-.21.31-.29.49-.42.03-.03.1-.05.13-.08.18-.31.49-.37.81-.44.32-.06.65-.16.96-.29.13-.05.24-.1.36.06.15-.23.34-.24.55-.24.36.02.7.1,1.02.24.21.1.45.13.66.18.29.08.58.16.86.26.13.05.23.18.34.28.05.05.1.11.16.15.13.05.21.15.16.32.1-.02.18-.03.23-.03.16.28.31.53.44.81.05.08.05.19.08.29.03.11.06.23.1.36.02.06.03.13.03.19,0,.05-.05.11-.05.16.02.52-.24.97-.36,1.46,0,.03,0,.06-.02.08-.15.21-.29.42-.44.63-.08.11-.19.19-.24.34-.03.06-.18.11-.26.18-.06.03-.13.08-.19.15-.23.23-.45.45-.68.68-.08.1-.15.19-.23.31-.13.18-.26.37-.37.58-.06.13-.08.29-.21.37-.1.06-.18.13-.28.16-.29.11-.6.11-.89.13-.06.02-.13,0-.18-.03-.23-.18-.49-.11-.75-.18-.11-.02-.21-.05-.32-.06-.11-.02-.24-.03-.36-.05-.28-.02-.32-.08-.29-.34.02-.1.02-.18.03-.26.03-.1.06-.19.13-.26.16-.19.24-.53.13-.79.05-.02.1-.03.15-.06s.11-.06.13-.11c.16-.4.44-.7.75-.99.05-.03.06-.08.08-.13.05-.13.1-.23.24-.28.03-.02.08-.08.08-.13,0-.23.03-.45-.08-.68-.06-.13-.1-.28-.15-.4-.05-.15-.45-.31-.6-.23-.08.05-.16.11-.24.16-.11.06-.21.1-.32.16,0-.02-.02-.03-.02-.05Zm.47,5.69c.18-.19.4-.18.62-.19.11-.02.23.02.32,0,.26-.05.49.02.7.11.15.08.29.15.45.18.16.03.24.13.24.31v.63c0,.1.02.19.03.29,0,.03.03.1.02.11-.13.18-.06.36-.08.55,0,.16-.03.29-.15.44-.06.08-.13.19-.08.34.05.16-.05.24-.23.24s-.37-.02-.52.06c-.23.11-.44.08-.66.03-.21-.06-.42-.13-.66-.06-.08.03-.21-.05-.31-.11-.15-.1-.26-.21-.45-.19-.13.02-.16-.08-.16-.18-.02-.19-.06-.39-.05-.58,0-.19.06-.4.1-.6.03-.19.03-.37.05-.57.05-.31.1-.6.32-.84.13-.15.37-.15.5.03Z"/>
    </g>
    <g>
      <path class="cls-4" d="m79.56,108.94c1.74-.34,3.48-1.37,3.56-2.55,0-1.39-1.58-2.72-3.94-2.87-6.25-.04-12.37,1.73-17.6,5.51-1.88,1.31-1.9,4.08-.04,5.55,1.86,1.47,4.08,1.9,5.27.59,3.35-3.17,7.67-5.5,12.74-6.24Z"/>
      <path class="cls-4" d="m81.3,119.23c1.73.36,3.61-.25,4.11-1.57.49-1.32-.81-3.2-3.1-3.84-5.89-1.77-12.35-1.75-18.61.3-2.3.75-2.8,3.45-1.49,5.34,1.37,2.09,3.45,2.8,4.85,2.11,4.39-2.12,9.18-3,14.25-2.34Z"/>
      <path class="cls-4" d="m83.02,123.75c1.81-.13,3.61.44,4.08,1.9.41,1.25-1.06,3.12-3.22,3.59-5.98,1.49-12.57,1.1-18.53-1.58-2.15-.92-2.55-3.56-1.08-5.42,1.47-1.86,3.77-2.61,4.94-1.84,4.01,2.39,8.79,3.6,13.79,3.35Z"/>
    </g>
    <g>
      <path class="cls-4" d="m220.44,109.62c-1.74-.34-3.48-1.37-3.56-2.55,0-1.39,1.58-2.72,3.94-2.87,6.25-.04,12.37,1.73,17.6,5.51,1.88,1.31,1.9,4.08.04,5.55-1.86,1.47-4.08,1.9-5.27.59-3.35-3.17-7.67-5.5-12.74-6.24Z"/>
      <path class="cls-4" d="m218.7,119.9c-1.73.36-3.61-.25-4.11-1.57-.49-1.32.81-3.2,3.1-3.84,5.89-1.77,12.35-1.75,18.61.3,2.3.75,2.8,3.45,1.49,5.34-1.37,2.09-3.45,2.8-4.85,2.11-4.39-2.12-9.18-3-14.25-2.34Z"/>
      <path class="cls-4" d="m216.98,124.42c-1.81-.13-3.61.44-4.08,1.9-.41,1.25,1.06,3.12,3.22,3.59,5.98,1.49,12.57,1.1,18.53-1.58,2.15-.92,2.55-3.56,1.08-5.42-1.47-1.86-3.77-2.61-4.94-1.84-4.01,2.39-8.79,3.6-13.79,3.35Z"/>
    </g>
  </g>
  <g>
    <path class="cls-1" d="m149.01,29.41c6.93-.47,14.83-3.74,19.34-5.21,5.28-1.72,7.82-1.93,11.78-2.2,11.99-.81,16.1,5.23,17.28,7.72-9.51-23.77-34.75-25.48-49.52-24.48l-1.22.08c-14.77,1-39.55,6.1-45.77,30.94.83-2.63,4.09-9.17,16.08-9.98,3.96-.27,6.51-.4,11.97.6,4.66.85,12.93,3.02,19.86,2.55h.2Z"/>
    <path class="cls-5" d="m100.94,36.28l-.04-.02c.83-2.63,4.09-9.17,16.08-9.98,3.96-.27,6.51-.4,11.97.6,4.66.85,12.93,3.02,19.86,2.55h.2c6.93-.48,14.83-3.75,19.34-5.22,5.28-1.72,7.82-1.93,11.78-2.2,11.99-.81,16.1,5.23,17.28,7.72l-.04.03c2.7,2.26,4.82,8.53,5.1,16,.36,9.48-2.36,17.28-6.08,17.42-.07,0-.14-.02-.21-.02-7.45,17.92-30.53,27.57-42.93,28.41-12.4.84-36.74-5.59-46.6-22.35-.08.01-.15.04-.23.05-3.7.36-7.45-7-8.37-16.44-.73-7.45.52-13.94,2.89-16.54Z"/>
    <path class="cls-6" d="m152.32,79.03c6.26-.42,19.17-7.13,18.31-19.87-.86-12.74-15.6-12.76-20.54-12.42-4.94.33-19.56,2.34-18.69,15.08.87,12.74,14.66,17.64,20.93,17.21Z"/>
    <path class="cls-4" d="m150.02,50.1c-2.72.19-6.56,3.3-6.81,6.65-.25,3.35,7.62,2.69,7.62,2.69h.22s7.88-.43,7.18-3.71c-.7-3.28-4.91-5.85-7.64-5.66l-.58.04Z"/>
    <g>
      <circle class="cls-4" cx="169.75" cy="39.06" r="2.41" transform="translate(-2.2 11.24) rotate(-3.77)"/>
      <path class="cls-4" d="m127.16,41.95c.09,1.33,1.24,2.33,2.57,2.24,1.33-.09,2.33-1.24,2.24-2.57-.09-1.33-1.24-2.34-2.57-2.25-1.33.09-2.33,1.24-2.24,2.57Z"/>
    </g>
    <path class="cls-4" d="m106.4,41.34c-3.05.32-5.14,6.25-5.53,14.45-.18-1.01-.32-2.07-.43-3.17-.69-7.42.71-13.64,3.12-13.9,1.03-.11,2.07.89,2.98,2.63-.05,0-.1-.01-.14-.01Z"/>
    <path class="cls-4" d="m192.63,35.5c3.06-.09,5.93,5.5,7.44,13.57.04-1.03.04-2.1,0-3.2-.32-7.45-2.55-13.42-4.97-13.35-1.03.03-1.93,1.16-2.6,3.01.04,0,.09-.03.14-.03Z"/>
    <path class="cls-6" d="m134.36,39.39c-.2,0-.4-.1-.52-.28-.43-.63-.97-1.17-1.61-1.6-.53-.36-3.68-1.03-4.44-.88-.79.16-1.52.46-2.17.91-.29.2-.68.12-.88-.17s-.12-.68.17-.88c.79-.54,1.68-.91,2.63-1.1,1.01-.2,4.53.5,5.38,1.07.77.52,1.43,1.17,1.95,1.94.2.29.12.68-.17.88-.11.07-.23.11-.35.11Z"/>
    <path class="cls-6" d="m174.84,30.38c-.18,0-.36-.08-.49-.23-.48-.59-1.07-1.08-1.75-1.45-.56-.31-3.76-.7-4.5-.48-.77.23-1.47.6-2.08,1.1-.27.22-.67.18-.89-.09-.22-.27-.18-.67.09-.89.74-.61,1.59-1.06,2.52-1.33.99-.29,4.56.09,5.46.58.82.45,1.53,1.04,2.12,1.75.22.27.18.67-.09.89-.12.1-.26.14-.4.14Z"/>
    <path class="cls-4" d="m151.3,74.54c-1.47,0-2.79-.32-3.68-.61-1.48-.56-2.64-1.24-3.69-2.16-1.12-.98-2.05-2.18-2.62-3.37-.17-.36-.02-.78.34-.95.36-.17.78-.02.95.34.48,1.01,1.31,2.07,2.28,2.91.92.8,1.94,1.4,3.22,1.88.87.28,2.26.61,3.75.51,1.39-.09,2.55-.41,3.65-1,1.04-.5,2.1-1.33,2.94-2.29.8-.92,1.4-1.94,1.88-3.22.14-.37.55-.56.92-.42.37.14.56.55.42.92-.54,1.45-1.23,2.61-2.15,3.66-.98,1.12-2.18,2.05-3.37,2.62-1.26.68-2.61,1.05-4.2,1.15-.21.01-.43.02-.63.02Z"/>
  </g>
</svg>