<?xml version="1.0" encoding="UTF-8"?>
<svg id="Layer_1" data-name="Layer 1" xmlns="http://www.w3.org/2000/svg" width="300" height="225" viewBox="0 0 300 225">
  <defs>
    <style>
      .cls-1 {
        fill: #fff4c7;
      }

      .cls-2 {
        fill: #fff;
      }

      .cls-3 {
        fill: #23140a;
      }

      .cls-4 {
        isolation: isolate;
        opacity: .35;
      }

      .cls-5 {
        fill: #232323;
      }

      .cls-6 {
        fill: #b0f6fe;
      }

      .cls-7 {
        fill: #c3162e;
      }

      .cls-8 {
        fill: #ff7e1c;
      }

      .cls-9 {
        fill: #444;
      }

      .cls-10 {
        fill: #aa7037;
      }

      .cls-11 {
        fill: #ea651b;
      }

      .cls-12 {
        fill: #7f7f7f;
      }
    </style>
  </defs>
  <g>
    <g>
      <path class="cls-5" d="m284.02,34.66c.55.11,1.02.1,1.36.31.67.41,1.27.94,1.86,1.45.09.07.05.35,0,.51-.28.94-.54,1.89-.88,2.8-.11.3-.42.61-.71.73-.53.2-1.1.29-1.67.37-.41.06-.65.24-.81.63-.97,2.21-1.96,4.41-2.95,6.6-.15.34-.09.55.2.79.41.33.8.7,1.17,1.08.57.56.59,1.17.23,1.9-1.03,2.09-2.05,4.19-3,6.31-1.41,3.14-2.23,6.45-2.72,9.84-.08.56-.33.74-.81.78-.12,0-.25.03-.37.02-.59-.02-.84.26-.83.85.02,1.82,0,3.64.03,5.46,0,.44-.07.72-.52.9-5.16,2.04-10.46,3.31-16.06,2.72-3.37-.35-6.49-1.46-9.45-3.08-.66-.36-1-.9-1.21-1.61-1.02-3.45-1.61-6.97-1.99-10.54-.07-.62-.27-1.09-.84-1.38-.58-.29-.78-.75-.82-1.43-.34-5.86-.18-11.71.19-17.55.05-.86.17-1.71.22-2.57.03-.6.35-.96.88-1.12.51-.16,1.05-.21,1.55-.38.22-.08.5-.3.55-.51.61-2.44,1.2-4.89,1.76-7.34.05-.22-.1-.54-.27-.73-.4-.46-.91-.83-1.29-1.3-.19-.24-.34-.64-.27-.92.22-.97.52-1.93.85-2.88.08-.23.36-.5.59-.56.98-.23,1.97-.39,2.92.16.11.06.48-.1.54-.24.51-1.11.94-2.26,1.46-3.37.11-.24.46-.44.73-.51,1.75-.45,3.5-.2,5.24.05,1.56.23,3.1.56,4.64.89.23.05.48.32.6.56.21.41.48.43.68.1.22-.35.46-.26.73-.19,1.16.32,2.33.62,3.49.97.52.15,2.2.62,2.84.83,1.34.43,2.68.88,4.01,1.36.17.06.32.31.38.5.13.46.36.54.75.24.13-.1.36-.19.49-.14,2.39.96,4.81,1.88,6.77,3.64.41.37.52.69.38,1.27-.3,1.22-.44,2.48-.65,3.73Zm-33.89-.58c-.08.08-.13.1-.14.14-.53,2.31-1.07,4.62-1.57,6.93-.03.15.18.46.35.54,2.05.88,4.1,1.76,6.18,2.57,3.88,1.51,7.84,2.75,11.9,3.62,1.6.34,3.2.68,4.79,1.02,0,.06-.02.12-.03.18-3.41-.45-6.82-.91-10.24-1.36.04.03.09.08.14.09,3,.79,5.99,1.65,9.02,2.35,2.09.48,4.23.74,6.35,1.08.35.06.65.06.83-.4.51-1.27,1.08-2.52,1.63-3.77.58-1.32,1.17-2.64,1.81-4.09-3.69.34-7.14-.25-10.58-1.04,3.12.07,6.23.04,9.3-.69-8.45-.33-16.44-2.52-24.14-5.9,3.51,2.16,7.38,3.43,11.29,4.61-5.97-.95-11.63-2.8-16.88-5.86Zm-2.52,31.71c-.02.22-.05.34-.04.45.31,1.94.67,3.87.92,5.82.19,1.48,1.09,2.17,2.38,2.71,3.59,1.51,7.32,2.15,11.19,2.13,3.42-.02,6.76-.58,10.01-1.63.55-.18.75-.43.73-1.04-.05-1.51-.02-3.03.05-4.54.02-.53-.14-.62-.61-.6-1.7.08-3.39.16-5.09.17-4.87.02-9.61-.77-14.2-2.44-.29-.1-.58-.21-.86-.31-.26-.09-.52-.19-.79-.28l-.05.15c3.47,2.03,7.31,3.06,11.17,4.06-5.22-.59-10.09-2.28-14.81-4.65Zm20.93-3.53c.31,1.31,1.36,1.51,2.51,1.36,1.45-.18,2.6-.94,3.49-2.08.15-.2.23-.45.34-.68-.06-.06-.11-.13-.17-.19-.26.16-.56.29-.77.5-.89.92-1.82,1.71-3.2,1.73-.5,0-.86-.09-.84-.69.02-.63.22-.8.89-.78,1.47.04,2.66-.52,3.56-1.69.28-.36.61-.81.27-1.21-.25-.3-.73-.54-1.12-.56-2.15-.11-3.82.71-4.8,2.71-.58,1.17-2.01,1.97-3.23,1.83-.62-.07-.77-.28-.68-.96.07-.52.33-.66.85-.58,1.35.22,2.95-.67,3.57-1.91.33-.67.12-1.28-.57-1.53-.8-.29-1.61-.26-2.41,0-1.31.42-2.2,1.29-2.7,2.57-.22.57-.71.77-1.27.79-.4.01-.6-.19-.57-.62.05-.6.4-1.01.91-1.21,1.2-.49,2.12-1.3,2.92-2.27.94-1.14,1.68-2.39,1.68-3.92,0-.31-.16-.74-.39-.88-.19-.12-.67.02-.88.2-.63.52-1.21,1.1-1.77,1.69-1.55,1.63-2.76,3.49-3.82,5.46-.25.48-.6.83-1.16.89-.51.06-.79-.17-.8-.67,0-.65.4-1.01.93-1.25,1.89-.83,3.14-2.3,3.88-4.15.31-.78.32-1.71.33-2.58,0-.58-.44-.76-.96-.47-.28.16-.54.38-.76.61-1.97,2-3.5,4.31-4.79,6.79-.23.45-.54.79-1.19.88.13-.24.22-.38.29-.54.23-.48.51-.94.66-1.44.32-1.05.02-1.95-.84-2.62-.87-.68-1.81-.8-2.81-.28-.92.48-1.45,1.29-1.86,2.2-.37.82-1.05,1.18-2.06,1.09-.97-.09-1.73-.72-1.97-1.48-.75-2.39,1.5-5.8,3.6-6.43.42-.13.92-.07,1.37,0,.19.03.44.28.48.47.03.14-.19.4-.36.51-.59.37-1.23.51-1.93.31-.53-.15-.69.04-.54.57.22.77.7,1.31,1.51,1.43.96.14,1.66-.32,2.18-1.08.47-.68.45-1.39,0-2.07-.65-.98-1.67-1.44-2.73-1.74-2.13-.61-3.95.34-4.71,2.42-.67,1.85-.41,3.69.3,5.45.43,1.07,1.11,2,2.31,2.4.81.27,1.59.26,2.36-.13.25,1.8,1.79,2.67,3.36,1.92.59-.29,1.12-.17,1.7-.04-.33.91-.67,1.76-.94,2.64-.13.42-.17.88-.18,1.32,0,.18.19.37.29.55.14-.15.33-.27.42-.44.14-.27.19-.58.32-.86.48-1.02.97-2.04,1.4-2.93.75.31,1.32.54,1.9.78-.17.38-.4.79-.53,1.23-.24.78-.44,1.56-.61,2.36-.04.17.14.39.22.58.17-.15.39-.26.49-.45.53-1.06,1.02-2.14,1.54-3.2.12-.24.32-.45.51-.71.45.54,1,.83,1.57.57.74-.34,1.07-.16,1.21.59.02.11.14.2.22.29.75.85,1.71.83,2.66.54.65-.2,1.24-.58,1.93-.91Zm-12.42-38.55c.16.06.23.07.28.1,2.37,1.66,4.97,2.82,7.68,3.79,5.38,1.93,10.86,3.37,16.64,3.24.28,0,.51,0,.57.38.02.13.28.26.45.3.08.02.28-.18.3-.3.09-.49.37-.69.84-.72.11,0,.28-.15.29-.24,0-.1-.12-.25-.23-.31-.82-.45-1.64-.93-2.48-1.32-3.03-1.41-6.16-2.53-9.36-3.49-.98-.29-1.32-.13-1.8.89.55.2,1.11.38,1.66.59.52.21,1.09.36,1.5.87-1.83.65-7.04-.95-7.41-2.37,1.34.25,2.61.48,3.89.71.1-.3.21-.58.3-.87.03-.11,0-.24,0-.4-4.88-1.35-9.74-2.69-14.87-2.71.21.38.46.66.73.93.2.21.42.39.13.71-.07.08-.02.41.08.48.14.1.39.11.56.06.12-.04.19-.24.26-.34Zm5.04,8.87s.04-.1.06-.15c.12.04.23.07.35.11,4.44,1.56,8.94,2.9,13.63,3.51,2.44.32,4.86.31,7.28-.06.71-.11,1.39-.37,2.08-.56-.02-.07-.03-.14-.05-.22-.23.02-.46.02-.68.06-.85.14-1.69.35-2.54.42-2.86.25-5.68-.05-8.49-.57-5.25-.97-10.32-2.54-15.15-4.83-2.34-1.11-4.54-2.44-6.33-4.36-.17-.18-.38-.3-.58-.45-.04.05-.08.09-.12.14.83.87,1.65,1.75,2.48,2.62-1.26-.66-2.18-1.69-3.09-2.74-.19-.22-.49-.36-.74-.53-.04.05-.08.1-.12.15.1.17.17.38.3.52.97,1.04,1.95,2.08,2.91,3.09-.2-.12-.47-.23-.67-.41-.99-.92-1.96-1.85-2.94-2.78-.14-.13-.31-.22-.47-.33-.04.05-.09.1-.13.15.18.26.33.57.56.77.93.83,1.81,1.74,2.83,2.43,3.23,2.16,6.74,3.77,10.41,5.05,5.05,1.77,10.2,3.14,15.55,3.64,2.86.27,5.72.37,8.53-.47.18-.05.31-.25.46-.38-.21-.14-.4-.3-.63-.4-.11-.05-.28.03-.42.06-3.37.84-6.76.86-10.18.41-3.62-.48-7.15-1.34-10.6-2.54-1.19-.42-2.35-.91-3.52-1.38Zm4.08-2.01c-.1.42-.2.74-.24,1.08-.02.14.1.3.15.45.15-.11.38-.19.43-.33.17-.5.29-1.02.4-1.53.03-.16,0-.47-.06-.49-.19-.06-.44-.06-.62.02-.25.11-.46.31-.78.53-.14-.33-.2-.62-.35-.83-.15-.21-.41-.34-.62-.51-.12.2-.28.38-.35.59-.14.45-.24.91-.31,1.37-.02.14.14.3.22.46.11-.13.27-.24.33-.38.12-.25.18-.52.32-.94.23.47.32.92.51.97.23.06.55-.23.96-.43Zm11.77,4.16c.6,0,1.16-.39,1.5-1.04.22-.42.15-.85-.22-1.17-.57-.49-1.23-.48-1.9-.23-.06.02-.11.05-.16.08-.54.31-.87.98-.73,1.48.14.5.71.87,1.51.87Zm-8.98-3.43c.02-.09.04-.18.06-.27.39.07.78.15,1.18.19.15.01.3-.08.45-.12-.09-.12-.16-.3-.28-.34-.46-.15-.94-.29-1.42-.37-.12-.02-.36.17-.41.31-.17.52-.3,1.06-.42,1.6-.03.14.01.41.08.43.62.19,1.26.34,1.89.5-.06-.73-.57-.58-.92-.73-.17-.07-.31-.2-.46-.31.18-.06.37-.18.55-.17.32,0,.63.09.95.14l.08-.28c-.45-.19-.89-.38-1.34-.58Zm10.9,19.89c.85.19,1.58-.12,1.79-.7.17-.45-.14-.94-.91-1.36-.29.69-.58,1.36-.88,2.06Zm-6.67-19.52c.08.09.15.23.24.24.56.11.54.41.35.84-.13.29-.17.63-.2.95-.01.13.11.26.17.4.11-.09.28-.16.33-.27.14-.34.24-.69.34-1.05.1-.38.2-.71.73-.56.13.04.31-.07.53-.13-.57-.49-1.93-.71-2.48-.43Zm-12.45-3.95c.03-.09.06-.18.1-.28-.64-.33-1.28-.67-1.92-.99-.07-.03-.2.06-.3.1.04.1.06.28.13.3.73.22.48.71.35,1.17-.06.2-.15.4-.14.59,0,.23.1.46.15.69.14-.17.32-.33.4-.52.16-.41.25-.84.36-1.22.32.06.6.11.87.15Zm-13.4,11.96c-.78-.05-1.32.24-1.39.69-.08.48.37,1.03,1.04,1.26.11-.64.23-1.27.35-1.95Zm14.27-9.51c.05.09.12.3.2.31.12.01.34-.1.37-.21.18-.6.33-1.21.46-1.83.02-.09-.15-.23-.24-.34-.1.08-.26.13-.29.23-.18.58-.32,1.17-.5,1.84Z"/>
      <path class="cls-1" d="m277.46,20.96c.43-1.16.81-2.34,1.31-3.47,1.15-2.61,2.91-4.69,5.61-5.81.6-.25,1.31-.4,1.96-.36,1.29.07,1.84,1.34,1.04,2.36-.3.38-.75.7-1.2.9-1.07.47-2.2.79-3.26,1.27-2.2.99-3.84,2.6-4.98,4.73-.08.16-.18.31-.27.47-.07-.02-.14-.05-.21-.07Z"/>
      <path class="cls-1" d="m283.39,48.32c.69-2.94,1.81-5.65,4.11-7.71.99-.88,2.1-1.56,3.38-1.93.31-.09.64-.13.97-.13.79,0,1.44.42,1.61,1,.18.6-.12,1.53-.76,1.86-.88.45-1.83.8-2.76,1.14-2.64.95-4.71,2.58-6.09,5.05-.14.25-.3.48-.46.72Z"/>
      <path class="cls-1" d="m250.03,22.08c-.4-.63-.77-1.28-1.2-1.9-1.56-2.27-3.84-3.47-6.39-4.3-.72-.23-1.41-.63-2.02-1.07-.56-.4-.62-1.07-.36-1.67.27-.62.85-.85,1.5-.88,1.13-.06,2.06.47,2.97,1.03,2.53,1.56,4,3.92,4.97,6.64.24.69.43,1.4.65,2.1-.04.02-.08.03-.12.05Z"/>
      <path class="cls-1" d="m245.39,31.34c-.91-1.67-2.23-2.83-3.97-3.52-.42-.17-.85-.3-1.27-.45-.15-.05-.31-.1-.46-.17-.68-.31-1.04-.94-.85-1.5.17-.51.93-.79,1.64-.57,1.09.33,1.98.97,2.75,1.78,1.19,1.24,1.82,2.78,2.16,4.44Z"/>
      <path class="cls-1" d="m288.44,37.88c.59-2.32,1.56-4.38,3.72-5.61.52-.29,1.12-.49,1.71-.61.47-.1.94.05,1.15.59.22.56-.05.95-.46,1.27-.21.16-.44.32-.69.38-2.33.62-4.22,1.83-5.42,3.98Z"/>
      <path class="cls-1" d="m279.6,23.05c.41-1.71,1.08-3.25,2.29-4.51.71-.74,1.53-1.3,2.5-1.59.32-.1.71-.16,1.02-.06.3.1.68.37.76.65.08.28-.08.71-.28.98-.17.24-.51.43-.81.52-2.3.7-4.31,1.78-5.49,4.02Z"/>
      <path class="cls-1" d="m242.63,62.31c.11.18.38.41.42.69.18,1.17.27,2.35.45,3.52.2,1.33.45,2.66.69,3.98.12.68-.14,1.07-.72.9-.23-.07-.47-.43-.53-.7-.23-.99-.44-2-.58-3.01-.21-1.52-.37-3.04-.54-4.56-.05-.44.09-.77.81-.82Z"/>
      <path class="cls-1" d="m277.55,65.68c.23-.79.39-1.47.63-2.12.66-1.82,1.34-3.64,2.02-5.45.05-.13.12-.26.2-.38.19-.29.41-.51.81-.3.38.2.44.46.29.86-.64,1.63-1.28,3.27-1.88,4.91-.25.69-.42,1.41-.63,2.11-.05.16-.12.31-.15.46-.1.41-.38.63-.76.49-.22-.08-.36-.39-.51-.58Z"/>
      <path class="cls-1" d="m281.33,55.59c.45-.72.85-1.41,1.32-2.07.07-.1.47-.1.6,0,.16.12.32.46.26.6-.29.67-.64,1.32-1.03,1.93-.1.15-.49.22-.69.16-.17-.05-.27-.35-.46-.62Z"/>
      <path class="cls-1" d="m243.53,73.25c.16-.19.34-.55.52-.56.25,0,.64.21.74.43.2.43.28.93.32,1.41.01.17-.22.48-.38.51-.21.04-.59-.07-.67-.23-.23-.44-.34-.95-.54-1.56Z"/>
      <path class="cls-1" d="m250.13,34.08c5.25,3.07,10.91,4.91,16.88,5.86-3.91-1.19-7.77-2.46-11.29-4.61,7.7,3.38,15.69,5.57,24.14,5.9-3.07.73-6.18.77-9.3.69,3.44.79,6.89,1.38,10.58,1.04-.65,1.46-1.23,2.77-1.81,4.09-.55,1.25-1.12,2.5-1.63,3.77-.18.46-.48.45-.83.4-2.12-.35-4.26-.6-6.35-1.08-3.03-.69-6.02-1.55-9.02-2.35-.05-.01-.1-.06-.14-.09,3.41.45,6.83.91,10.24,1.36,0-.06.02-.12.03-.18-1.6-.34-3.2-.67-4.79-1.02-4.07-.87-8.03-2.11-11.9-3.62-2.08-.81-4.13-1.69-6.18-2.57-.17-.07-.38-.38-.35-.54.5-2.32,1.04-4.62,1.57-6.93,0-.03.06-.06.14-.14Z"/>
      <path class="cls-1" d="m247.6,65.79c4.72,2.36,9.6,4.06,14.81,4.65-3.86-1-7.7-2.03-11.17-4.06l.05-.15c.26.09.52.19.79.28.29.1.58.2.86.31,4.59,1.67,9.32,2.46,14.2,2.44,1.7,0,3.39-.09,5.09-.17.47-.02.64.07.61.6-.06,1.51-.09,3.03-.05,4.54.02.61-.19.86-.73,1.04-3.26,1.05-6.59,1.61-10.01,1.63-3.87.02-7.6-.62-11.19-2.13-1.28-.54-2.19-1.22-2.38-2.71-.25-1.95-.61-3.88-.92-5.82-.02-.11.02-.23.04-.45Z"/>
      <path class="cls-1" d="m268.53,62.27c-.69.33-1.29.71-1.93.91-.95.29-1.91.32-2.66-.54-.08-.09-.2-.18-.22-.29-.14-.75-.47-.93-1.21-.59-.57.26-1.11-.03-1.57-.57-.19.26-.39.47-.51.71-.52,1.06-1.01,2.14-1.54,3.2-.09.18-.32.3-.49.45-.08-.19-.26-.41-.22-.58.17-.79.37-1.58.61-2.36.14-.44.37-.85.53-1.23-.58-.24-1.15-.47-1.9-.78-.43.89-.92,1.91-1.4,2.93-.13.28-.18.59-.32.86-.09.17-.28.3-.42.44-.1-.18-.3-.37-.29-.55,0-.44.05-.9.18-1.32.27-.88.61-1.73.94-2.64-.57-.13-1.1-.25-1.7.04-1.56.75-3.11-.12-3.36-1.92-.77.39-1.55.4-2.36.13-1.2-.4-1.88-1.33-2.31-2.4-.71-1.76-.98-3.6-.3-5.45.76-2.08,2.58-3.03,4.71-2.42,1.07.31,2.09.76,2.73,1.74.45.68.47,1.39,0,2.07-.52.76-1.22,1.23-2.18,1.08-.81-.12-1.29-.66-1.51-1.43-.15-.53.02-.72.54-.57.71.21,1.34.06,1.93-.31.17-.11.39-.37.36-.51-.05-.19-.29-.44-.48-.47-.45-.07-.95-.12-1.37,0-2.1.64-4.35,4.04-3.6,6.43.24.76.99,1.39,1.97,1.48,1.01.1,1.7-.26,2.06-1.09.41-.91.94-1.72,1.86-2.2,1-.52,1.95-.4,2.81.28.86.68,1.16,1.58.84,2.62-.15.5-.43.96-.66,1.44-.07.15-.16.3-.29.54.65-.09.95-.43,1.19-.88,1.28-2.48,2.82-4.79,4.79-6.79.23-.23.48-.45.76-.61.51-.29.96-.11.96.47,0,.86-.01,1.8-.33,2.58-.74,1.85-1.99,3.32-3.88,4.15-.53.23-.94.6-.93,1.25,0,.5.29.73.8.67.57-.07.91-.42,1.16-.89,1.05-1.97,2.27-3.84,3.82-5.46.56-.59,1.14-1.17,1.77-1.69.22-.18.7-.32.88-.2.23.14.39.58.39.88,0,1.53-.74,2.78-1.68,3.92-.8.97-1.73,1.79-2.92,2.27-.5.2-.86.62-.91,1.21-.03.42.17.63.57.62.56-.02,1.05-.21,1.27-.79.5-1.28,1.39-2.15,2.7-2.57.8-.26,1.61-.29,2.41,0,.7.25.91.86.57,1.53-.62,1.24-2.22,2.13-3.57,1.91-.52-.08-.79.06-.85.58-.09.68.06.89.68.96,1.22.14,2.65-.66,3.23-1.83.99-2,2.65-2.82,4.8-2.71.39.02.87.26,1.12.56.33.4,0,.85-.27,1.21-.9,1.17-2.09,1.73-3.56,1.69-.67-.02-.87.15-.89.78-.02.6.34.7.84.69,1.37-.02,2.31-.81,3.2-1.73.21-.21.51-.34.77-.5.06.06.11.13.17.19-.11.23-.19.48-.34.68-.89,1.14-2.04,1.9-3.49,2.08-1.15.15-2.2-.05-2.51-1.36Zm-14.47-3.6c.5-.95.95-1.72.99-2.65.02-.4,0-.89-.5-.89-.3,0-.76.3-.87.58-.38.95-.27,1.9.38,2.95Zm-1.39-2.5c-.54.4-.92,1.25-.9,2.09,0,.33.11.69.28.96.24.39.92.4,1.32.09.43-.33-.03-.51-.13-.74-.12-.28-.27-.55-.34-.85-.11-.49-.16-.99-.24-1.55Zm12.84,4.16c.53-.05.88-.03,1.21-.12.76-.2,1.37-.64,1.69-1.38.18-.43,0-.66-.45-.54-1.05.28-1.79.96-2.44,2.05Zm5.33.29c1.15.25,2.36-.33,2.86-1.27.07-.13.13-.34.07-.45-.05-.1-.28-.17-.41-.14-1.11.25-1.83,1.02-2.52,1.86Zm-5.09-5.15l-.22-.2c-.64.74-1.28,1.49-1.93,2.23.06.05.12.11.18.16.66-.73,1.31-1.46,1.97-2.19Zm-3.52-.72c-.07-.06-.14-.12-.21-.19-.6.72-1.19,1.45-1.79,2.17.06.05.13.11.19.16.6-.71,1.21-1.43,1.81-2.14Z"/>
      <path class="cls-1" d="m256.11,23.71c-.07.1-.14.3-.26.34-.17.05-.42.04-.56-.06-.1-.07-.15-.4-.08-.48.29-.32.08-.5-.13-.71-.26-.27-.51-.56-.73-.93,5.13.02,10,1.36,14.87,2.71,0,.17.03.29,0,.4-.08.29-.19.58-.3.87-1.28-.24-2.55-.47-3.89-.71.37,1.42,5.57,3.02,7.41,2.37-.41-.52-.98-.67-1.5-.87-.54-.21-1.1-.4-1.66-.59.48-1.02.82-1.18,1.8-.89,3.2.95,6.34,2.07,9.36,3.49.85.4,1.66.87,2.48,1.32.11.06.23.21.23.31,0,.09-.18.23-.29.24-.47.03-.75.23-.84.72-.02.12-.22.31-.3.3-.17-.04-.43-.17-.45-.3-.06-.38-.29-.38-.57-.38-5.78.14-11.26-1.31-16.64-3.24-2.7-.97-5.31-2.13-7.68-3.79-.05-.03-.11-.04-.28-.1Z"/>
      <path class="cls-1" d="m261.15,32.59c1.17.46,2.33.96,3.52,1.38,3.44,1.2,6.98,2.05,10.6,2.54,3.42.46,6.81.43,10.18-.41.14-.03.31-.11.42-.06.22.09.42.26.63.4-.15.13-.29.32-.46.38-2.8.83-5.66.73-8.53.47-5.35-.5-10.5-1.87-15.55-3.64-3.66-1.28-7.18-2.89-10.41-5.05-1.03-.69-1.91-1.6-2.83-2.43-.23-.21-.37-.51-.56-.77.04-.05.09-.1.13-.15.16.11.33.2.47.33.98.92,1.95,1.86,2.94,2.78.2.18.47.29.67.41-.96-1.02-1.94-2.05-2.91-3.09-.13-.14-.2-.34-.3-.52.04-.05.08-.1.12-.15.25.17.55.31.74.53.91,1.05,1.83,2.08,3.09,2.74-.83-.87-1.65-1.75-2.48-2.62.04-.05.08-.09.12-.14.19.15.41.28.58.45,1.79,1.92,4,3.25,6.33,4.36,4.83,2.29,9.9,3.86,15.15,4.83,2.81.52,5.63.83,8.49.57.85-.08,1.69-.28,2.54-.42.22-.04.46-.04.68-.06.02.07.03.14.05.22-.69.19-1.38.45-2.08.56-2.42.37-4.84.38-7.28.06-4.69-.61-9.19-1.95-13.63-3.51-.11-.04-.23-.07-.35-.11-.02.05-.04.1-.06.15Z"/>
      <path class="cls-1" d="m265.22,30.57c-.41.2-.73.48-.96.43-.19-.04-.28-.5-.51-.97-.14.42-.2.69-.32.94-.07.15-.22.26-.33.38-.08-.15-.24-.32-.22-.46.07-.46.17-.92.31-1.37.06-.21.23-.4.35-.59.21.17.46.3.62.51.16.21.22.5.35.83.32-.22.53-.42.78-.53.18-.08.43-.08.62-.02.07.02.09.33.06.49-.11.52-.23,1.04-.4,1.53-.05.14-.28.22-.43.33-.05-.15-.17-.31-.15-.45.04-.33.14-.66.24-1.08Z"/>
      <path class="cls-1" d="m276.99,34.73c-.8,0-1.37-.37-1.51-.87-.14-.5.19-1.18.73-1.48.05-.03.11-.06.16-.08.67-.25,1.33-.26,1.9.23.37.32.44.75.22,1.17-.34.66-.9,1.04-1.5,1.04Zm-.06-.59c.62,0,1.14-.43.98-.86-.1-.28-.51-.56-.82-.62-.51-.09-.93.35-.92.82,0,.54.34.69.76.66Z"/>
      <path class="cls-1" d="m268.01,31.29c.45.19.89.38,1.34.58l-.08.28c-.32-.05-.63-.13-.95-.14-.18,0-.37.11-.55.17.15.1.29.24.46.31.35.14.86,0,.92.73-.63-.16-1.27-.31-1.89-.5-.07-.02-.11-.29-.08-.43.12-.54.24-1.08.42-1.6.05-.14.29-.33.41-.31.48.08.95.22,1.42.37.12.04.19.22.28.34-.15.04-.31.14-.45.12-.4-.04-.79-.12-1.18-.19-.02.09-.04.18-.06.27Z"/>
      <path class="cls-1" d="m278.9,51.18c.3-.7.59-1.37.88-2.06.77.42,1.08.9.91,1.36-.21.58-.94.89-1.79.7Z"/>
      <path class="cls-1" d="m272.24,31.67c.54-.28,1.91-.06,2.48.43-.22.06-.39.17-.53.13-.53-.15-.63.18-.73.56-.09.35-.2.71-.34,1.05-.05.12-.21.18-.33.27-.06-.13-.18-.27-.17-.4.03-.32.07-.66.2-.95.19-.44.21-.73-.35-.84-.09-.02-.15-.15-.24-.24Z"/>
      <path class="cls-1" d="m259.79,27.71c-.28-.05-.55-.1-.87-.15-.11.38-.21.81-.36,1.22-.08.2-.26.35-.4.52-.06-.23-.15-.46-.15-.69,0-.2.09-.39.14-.59.13-.46.38-.95-.35-1.17-.07-.02-.09-.2-.13-.3.1-.04.23-.13.3-.1.65.32,1.28.66,1.92.99-.03.09-.06.18-.1.28Z"/>
      <path class="cls-1" d="m246.39,39.67c-.12.68-.24,1.31-.35,1.95-.68-.23-1.12-.78-1.04-1.26.07-.45.61-.74,1.39-.69Z"/>
      <path class="cls-1" d="m260.66,30.17c.18-.66.32-1.25.5-1.84.03-.1.19-.15.29-.23.08.12.26.25.24.34-.12.62-.28,1.23-.46,1.83-.03.1-.25.22-.37.21-.09-.01-.15-.22-.2-.31Z"/>
      <path class="cls-5" d="m254.06,58.67c-.64-1.05-.76-2-.38-2.95.11-.28.57-.58.87-.58.5,0,.52.49.5.89-.04.93-.49,1.7-.99,2.65Z"/>
      <path class="cls-5" d="m252.67,56.17c.08.56.13,1.06.24,1.55.06.29.22.57.34.85.1.24.56.41.13.74-.41.31-1.09.3-1.32-.09-.17-.28-.27-.64-.28-.96-.02-.84.36-1.68.9-2.09Z"/>
      <path class="cls-5" d="m265.51,60.33c.65-1.08,1.39-1.76,2.44-2.05.44-.12.64.12.45.54-.32.74-.93,1.18-1.69,1.38-.33.09-.68.07-1.21.12Z"/>
      <path class="cls-5" d="m270.85,60.62c.68-.84,1.4-1.61,2.52-1.86.13-.03.36.05.41.14.06.11,0,.32-.07.45-.5.93-1.71,1.51-2.86,1.27Z"/>
      <path class="cls-5" d="m265.76,55.47c-.66.73-1.31,1.46-1.97,2.19-.06-.05-.12-.11-.18-.16.64-.74,1.28-1.49,1.93-2.23l.22.2Z"/>
      <path class="cls-5" d="m262.24,54.75c-.6.71-1.21,1.43-1.81,2.14-.06-.05-.13-.11-.19-.16.6-.72,1.19-1.45,1.79-2.17.07.06.14.12.21.19Z"/>
      <path class="cls-5" d="m276.93,34.14c-.43.04-.76-.12-.76-.66,0-.47.41-.91.92-.82.31.05.72.34.82.62.16.43-.37.85-.98.86Z"/>
      <path class="cls-5" d="m256.29,25.41l2.94,1.29s7.94,2.92,9.53,3.25c1.59.33,10.02,1.86,10.14,1.84s1.61.66,1.42,1.03-1.04,2.52-1.04,2.52c0,0-.21.67-3.12.11-2.91-.56-15.67-4.43-15.67-4.43l-4.84-2.53.63-3.09Z"/>
    </g>
    <g>
      <path class="cls-1" d="m267.32,26.04l-1.27-8.97c-.04-.28.05-.56.24-.76l3.67-4.88c.28-.35.74-.49,1.17-.36.37.11.81.25,1.13.35.83.27-3.07,4.5-3.96,5.44-.19.2-.28.47-.24.74l1.52,8.94c.08.59-.81.07-1.4,0h0c-.39-.05-.8-.11-.86-.49Z"/>
      <path class="cls-5" d="m269.36,27.2c-.22,0-.47-.08-.72-.16-.17-.05-.35-.11-.51-.13-.41-.06-1.07-.15-1.18-.81h0s-1.27-8.97-1.27-8.97c-.06-.39.07-.79.34-1.08l3.64-4.85c.38-.48,1-.67,1.58-.49.37.11.82.25,1.13.36.18.06.31.2.35.38.24.98-3.13,4.59-4.16,5.68-.11.11-.16.27-.14.43l1.52,8.93c.04.31-.07.49-.18.58-.12.1-.25.14-.41.14Zm-1.67-1.21c.02.09.18.13.52.18.21.03.43.1.65.16.09.03.21.07.31.09l-1.49-8.75c-.06-.4.07-.78.34-1.06,1.75-1.82,3.69-4.16,3.95-4.88-.29-.09-.64-.2-.95-.3-.28-.09-.58,0-.77.24l-3.66,4.87c-.14.15-.2.32-.17.48l1.27,8.97Z"/>
    </g>
  </g>
  <g>
    <path class="cls-3" d="m227.2,52.17l-31.76,19.69c-.29.18-.68.06-.81-.26l-4.84-11.4c-.13-.31.04-.67.37-.76l36.74-10.26.56,2.39c.06.24-.05.48-.25.61Z"/>
    <path class="cls-3" d="m215.9,43.53l9.39,21.82c.18.42.77.46,1,.06l10.91-18.4c.2-.34,0-.78-.39-.84l-20.3-3.42c-.44-.07-.79.37-.61.78Z"/>
  </g>
  <g>
    <path class="cls-3" d="m224.69,125.24l-36.19-9.3c-.33-.09-.51-.45-.38-.77l4.88-11.38c.13-.31.51-.44.8-.26l32.83,19.42-1.33,2.06c-.13.2-.38.3-.61.24Z"/>
    <path class="cls-3" d="m223.11,111.1l-9.25,21.88c-.18.42.2.87.65.77l20.83-4.86c.38-.09.56-.54.34-.86l-11.58-17.02c-.25-.37-.81-.31-.98.1Z"/>
  </g>
  <g>
    <path class="cls-7" d="m187.6,56.24c.33-.19.51-.02.72.09.33.14,3.11,1.44,3.43,1.61.5.29,5.29,1.99,5.76,2.34.33.23,10.91,4.7,11.23,4.92.17.09,5.65,2.52,5.82,2.61.71.37,4.29,1.82,5,2.18.21.14.44.25.68.35.31.13.64.3,1.09.12.09-.04.16-.03.24-.01.1,0,.22,0,.31-.17s.03-.29-.05-.36c-.02-.04-.03-.04-.07-.09.25-.23.31-.51.34-.79.03-.18.11-.31.25-.43.28-.22.49-.5.58-.92.12-.52.29-1.05.42-1.59.09-.34.14-.68-.14-.79-.39-.15-.76-.37-1.13-.56-.5-.23-4.95-2.06-5.45-2.29-.17-.09-4.62-1.92-4.8-1.99-.41-.18-6.15-2.61-6.55-2.79-.26-.11-6.44-2.36-6.71-2.47-.14-.07-.26-.16-.41-.24-.04-.02-.09-.05-.14-.05-.34.02-6.2-2.67-6.45-2.88-.13-.1-.31-.11-.46-.18-.26-.11-.51-.24-.79-.35-.21-.08-.44-.15-.66-.23-.14-.05-.58.26-.71.5-.12.19-.24.4-.37.56-.13.16-.19.29-.24.46-.06.25-.13.49-.24.71-.22.53-.46,1.04-.68,1.57-.11.28-.11.53-.02.71.06.14.11.28.17.45Z"/>
    <path class="cls-7" d="m201.78,78.88c-.21-.32-.04-.51.05-.72.12-.33,1.26-3.18,1.41-3.52.26-.52,1.68-5.4,2-5.89.21-.35,4.06-11.17,4.26-11.5.08-.18,2.19-5.78,2.27-5.96.33-.73,1.57-4.39,1.89-5.12.12-.22.23-.45.31-.7.12-.32.27-.66.06-1.09-.04-.08-.04-.16-.03-.24,0-.1-.01-.22-.19-.3s-.29-.02-.36.07c-.03.02-.04.03-.09.07-.24-.24-.52-.28-.81-.3-.18-.02-.31-.09-.44-.23-.23-.27-.52-.46-.96-.52-.53-.09-1.06-.23-1.61-.33-.35-.07-.69-.1-.79.18-.12.4-.32.78-.49,1.16-.2.51-1.77,5.06-1.97,5.58-.08.18-1.65,4.72-1.71,4.91-.16.42-2.25,6.29-2.41,6.7-.09.27-1.99,6.57-2.08,6.84-.07.15-.15.27-.22.42-.02.04-.04.09-.04.15.04.34-2.3,6.35-2.5,6.6-.09.14-.09.32-.15.47-.09.27-.21.52-.3.8-.07.21-.12.45-.19.68-.04.15.29.57.54.68.2.1.42.22.58.34.16.12.3.17.47.21.25.05.49.11.72.19.54.19,1.07.39,1.6.59.28.09.53.08.71-.02.14-.07.27-.12.44-.19Z"/>
  </g>
  <g>
    <path class="cls-7" d="m251.12,40.62c.38.04.42.28.53.49.18.31,1.68,2.98,1.85,3.31.24.53,3.15,4.7,3.32,5.26.14.38,6.13,10.17,6.27,10.54.09.17,3.12,5.34,3.21,5.51.36.71,2.43,3.98,2.79,4.69.09.24.21.46.35.69.18.29.35.62.82.73.09.02.15.07.2.13.08.06.18.13.35.04s.19-.22.17-.32c0-.04,0-.05,0-.11.34-.04.55-.23.74-.45.13-.13.27-.19.45-.2.35-.01.69-.12,1.01-.41.4-.35.84-.68,1.27-1.05.27-.22.51-.47.35-.73-.23-.35-.41-.74-.59-1.11-.27-.48-2.83-4.56-3.1-5.03-.09-.17-2.63-4.25-2.74-4.41-.22-.38-3.48-5.7-3.7-6.09-.15-.24-3.86-5.67-4.01-5.91-.07-.15-.12-.29-.19-.43-.02-.04-.05-.09-.09-.12-.29-.19-3.49-5.78-3.57-6.09-.05-.16-.19-.27-.27-.41-.15-.24-.28-.49-.43-.74-.12-.19-.27-.38-.4-.58-.09-.12-.62-.13-.86,0-.2.09-.43.19-.63.24-.2.05-.32.13-.46.24-.19.17-.39.32-.61.44-.49.3-.98.58-1.46.88-.25.16-.39.37-.43.57-.03.15-.07.29-.12.46Z"/>
    <path class="cls-7" d="m249.46,67.28c.02-.38.26-.44.46-.56.29-.2,2.88-1.85,3.2-2.04.51-.27,4.51-3.41,5.05-3.62.37-.16,9.8-6.71,10.16-6.87.17-.1,5.15-3.43,5.31-3.52.69-.4,3.83-2.66,4.52-3.06.23-.11.45-.23.66-.39.28-.19.6-.38.68-.86.01-.09.06-.15.12-.21.05-.09.12-.18.02-.35s-.23-.18-.33-.15c-.04,0-.05,0-.11,0-.06-.34-.26-.53-.49-.72-.14-.12-.2-.25-.22-.44-.03-.35-.16-.68-.47-.98-.38-.38-.73-.8-1.12-1.21-.24-.26-.5-.48-.75-.31-.33.25-.72.45-1.07.66-.46.3-4.39,3.09-4.85,3.39-.17.1-4.09,2.88-4.24,2.99-.37.25-5.49,3.8-5.86,4.05-.23.16-5.44,4.19-5.67,4.35-.14.08-.28.14-.42.22-.04.02-.09.05-.12.1-.17.3-5.57,3.82-5.87,3.91-.15.06-.26.21-.4.29-.23.16-.47.31-.72.48-.18.13-.36.3-.55.44-.12.1-.1.63.04.86.1.2.21.42.27.61.06.19.15.31.26.45.18.18.34.37.48.58.33.47.64.94.96,1.41.18.24.39.37.59.4.15.03.29.06.47.1Z"/>
  </g>
  <g>
    <g class="cls-4">
      <ellipse class="cls-5" cx="74.18" cy="205.19" rx="44.98" ry="7.26"/>
    </g>
    <path class="cls-5" d="m41.6,153.73c.18,1.47,5.05,43,12.12,48.82,7.07,5.82,10.79,3.86,12.22,2.32,1.51-1.62,3.41-4.53-.12-7.82-2.83-2.64-4.82-14.34-2-32.6l-22.23-10.71Z"/>
    <path class="cls-5" d="m68.62,151.14c.19,1.47,5.05,43,12.12,48.82,7.08,5.82,10.79,3.86,12.23,2.31,1.51-1.62,3.41-4.53-.12-7.81-2.83-2.65-4.82-14.34-2-32.6l-22.24-10.71Z"/>
    <path class="cls-5" d="m85.99,95.44c-3.24-.35-6.28,1.59-6.73,5.12-.45,3.51,2.92,7.68,7.43,8.2,12.84,1.49,24.8-3.34,33.01-13.31,2.89-3.5,2.43-8.85-.33-11.06-2.78-2.24-6.32-1.52-8.41.98-6.21,7.54-15.27,11.2-24.98,10.07Z"/>
    <path class="cls-2" d="m47.27,91.01c8.18-4.53,18.54-6.97,37.66-7.72-4.56-1.93-10.59-2.83-19.43-2.83h-.01c-15.12,0-22.11,2.58-27.37,8.57-6.21,7.07-9.35,27.3-9.98,43.04,1.01-14.78,7.01-34.33,19.13-41.07Z"/>
    <path class="cls-9" d="m28.14,132.08c-.15,2.17-.18,4.24-.12,6.15,0-1.94.04-4,.12-6.15Z"/>
    <path class="cls-9" d="m14.91,157.44c-2.16,1.53-4.95,2.06-6.42.75-1.46-1.3-1.02-4.61,1.38-6.99,6.5-6.47,15.02-10.83,24.42-12.23,3.5-.51,6.04,2.44,5.61,6.01-.42,3.59-2.61,6.16-5.01,6.13-6.87-.11-13.92,1.99-19.97,6.33Z"/>
    <path class="cls-9" d="m92.87,89.03c-1.92-2.19-4.08-3.92-6.77-5.23-.37-.18-.77-.34-1.17-.51-3.08.12-5.91.29-8.57.5-6.51.23-11.61.96-15.75,2.26-5.34,1.24-9.58,2.87-13.34,4.97-12.12,6.73-18.12,26.28-19.13,41.07-.08,2.15-.12,4.21-.12,6.15.02,5,.33,9.15.93,11.66.03.12.08.23.11.34,3.04,13.74,18.25,24.2,36.56,24.2,20.51,0,37.13-13.1,37.13-29.26,0-.15-.01-.29-.01-.44,1.12-14.82-1.76-46.47-9.87-55.7Z"/>
    <g>
      <path class="cls-2" d="m40.35,57.68c-.29-13.66,10.27-19.94,33.61-17.65,7.41.72,15.55-6.81,21.11-7.55,15.97-2.11,18.01,8.39,18.01,8.39h.03c-4.78-18.36-24.61-31.81-48-31.22-26.54.68-47.61,19.2-47.04,41.36.56,22.17,22.54,39.59,49.08,38.91,2.31-.06,4.58-.26,6.8-.58v-.02c-23.34,2.22-33.22-13.51-33.61-31.63Z"/>
      <path class="cls-9" d="m113.11,40.88h-.03s-2.04-10.51-18.01-8.4c-5.55.74-13.7,8.28-21.11,7.55-16.75-1.64-26.91,1.13-31.21,7.87-.55-.42-1.12-.64-1.71-.61-3.03.11-5.25,6.48-4.95,14.23.3,7.74,3,13.92,6.03,13.8.68-.03,1.32-.38,1.9-.99,4.76,9.92,14.34,16.46,29.94,14.98v.03c23.25-3.36,40.76-20.54,40.24-40.77-.07-2.64-.45-5.21-1.09-7.69Z"/>
      <path class="cls-12" d="m84.28,82.01c-5.09.33-15.14-3.81-13.5-14.42,1.64-10.61,13.69-12.22,17.7-12.48,4.01-.26,15.81-.18,14.17,10.42-1.64,10.61-13.28,16.15-18.37,16.47Z"/>
      <path class="cls-5" d="m88.29,57.88c2.21-.14,5.12,2.01,5.07,4.75-.05,2.74-6.42,3.05-6.42,3.05h-.18s-6.41.52-5.6-2.26c.81-2.79,4.45-5.36,6.66-5.5l.48-.03Z"/>
      <path class="cls-5" d="m84.62,77.11c-1.02,0-1.98-.18-2.87-.53-1.04-.42-1.93-1.04-2.65-1.86-.71-.81-1.23-1.79-1.52-2.89-.09-.33.11-.67.44-.76.33-.09.67.11.76.44.25.92.67,1.72,1.25,2.39.58.67,1.31,1.18,2.17,1.52.88.35,1.87.5,2.92.42,1.07-.07,2.14-.35,3.18-.84,1.02-.48,1.97-1.13,2.82-1.93.85-.8,1.57-1.72,2.12-2.73.17-.3.55-.41.85-.25.3.17.41.55.25.85-.62,1.12-1.41,2.14-2.36,3.04-.95.89-2.01,1.61-3.15,2.15-1.19.56-2.41.88-3.63.95-.2.01-.4.02-.59.02Z"/>
      <circle class="cls-5" cx="67.67" cy="52.77" r="1.97"/>
      <circle class="cls-5" cx="99.41" cy="46.91" r="1.97"/>
      <path class="cls-5" d="m43.45,52.57c-2.5.11-4.49,4.84-5.21,11.51-.09-.84-.16-1.71-.19-2.61-.2-6.08,1.24-11.08,3.22-11.17.84-.04,1.64.82,2.3,2.29-.04,0-.08-.01-.12-.01Z"/>
      <path class="cls-12" d="m61.51,53.73s-.03,0-.05,0c-.38-.03-.67-.36-.64-.74.06-.78.26-1.53.6-2.23.34-.7.81-1.32,1.4-1.84.6-.54,1.29-.94,2.06-1.21.77-.26,1.57-.37,2.37-.31.38.03.67.36.64.74-.03.38-.35.66-.74.64-.62-.05-1.23.04-1.83.24-.6.2-1.13.52-1.59.93-.45.4-.82.88-1.08,1.42-.27.54-.42,1.12-.46,1.72-.03.36-.33.64-.69.64Z"/>
      <path class="cls-12" d="m104.81,45.74c-.28,0-.54-.17-.65-.45-.22-.59-.54-1.12-.97-1.57-.44-.47-.94-.83-1.5-1.07-.55-.25-1.14-.38-1.74-.4-.6-.02-1.2.08-1.76.28-.36.13-.75-.05-.88-.41s.05-.75.41-.88c.72-.26,1.51-.39,2.28-.37.79.03,1.55.2,2.25.52.72.32,1.38.78,1.95,1.39.55.59.98,1.28,1.26,2.04.13.36-.05.75-.41.88-.08.03-.16.04-.24.04Z"/>
    </g>
    <g>
      <path class="cls-5" d="m51.59,99.21c-2.08-2.5-5.62-3.22-8.4-.99-2.77,2.21-3.24,7.55-.35,11.06,8.2,9.98,20.15,14.84,32.99,13.37,4.51-.52,7.9-4.67,7.45-8.18-.44-3.54-3.49-5.49-6.73-5.14-9.71,1.11-18.76-2.56-24.96-10.11Z"/>
      <path class="cls-5" d="m86.52,112c.87-.16,1.63-.71,1.66-1.36.03-.65-.86-1.31-1.99-1.28-3.04.06-6.05,1.09-8.55,3.01-.92.72-.81,2,.15,2.73.95.73,2.07.79,2.62.21,1.56-1.66,3.68-2.87,6.11-3.31Z"/>
      <path class="cls-5" d="m87.55,116.99c.88.08,1.76-.23,1.97-.84.21-.62-.47-1.5-1.55-1.78-2.94-.79-6.11-.63-9.04.52-1.09.43-1.33,1.7-.62,2.66.71.96,1.77,1.34,2.46.93,1.95-1.16,4.33-1.72,6.79-1.48Z"/>
      <path class="cls-5" d="m85.96,121.94c.74.48,1.67.61,2.14.14.46-.45.26-1.54-.57-2.3-2.25-2.04-5.15-3.34-8.29-3.65-1.17-.11-1.96.9-1.76,2.08.2,1.18.97,2,1.76,1.95,2.27-.15,4.64.43,6.72,1.78Z"/>
    </g>
    <path class="cls-5" d="m69.72,200.82c.89.25,1.86.1,2.2-.5.33-.6-.2-1.63-1.26-2.14-2.89-1.38-6.19-1.82-9.44-1.19-1.21.24-1.7,1.51-1.15,2.63.56,1.13,1.57,1.72,2.36,1.44,2.25-.83,4.81-.97,7.3-.24Z"/>
    <path class="cls-5" d="m68.34,205.99c.78.49,1.76.62,2.25.13.49-.48.26-1.62-.62-2.41-2.39-2.12-5.44-3.46-8.74-3.76-1.23-.1-2.05.97-1.83,2.21.22,1.24,1.03,2.09,1.87,2.03,2.39-.18,4.88.41,7.08,1.8Z"/>
    <path class="cls-5" d="m64.52,209.89c.47.79,1.29,1.35,1.94,1.14.65-.21.97-1.33.54-2.43-1.16-2.97-3.27-5.56-6.07-7.32-1.04-.66-2.27-.07-2.63,1.13-.37,1.21-.03,2.33.74,2.66,2.21.93,4.16,2.59,5.48,4.82Z"/>
    <path class="cls-5" d="m97.95,197.75c.88.25,1.87.1,2.2-.5.33-.6-.2-1.63-1.26-2.14-2.89-1.37-6.19-1.82-9.44-1.19-1.21.24-1.7,1.5-1.15,2.63.56,1.13,1.57,1.72,2.36,1.43,2.25-.84,4.81-.97,7.3-.24Z"/>
    <path class="cls-5" d="m96.57,202.92c.78.49,1.76.62,2.24.13.49-.48.27-1.62-.62-2.4-2.39-2.12-5.45-3.46-8.74-3.76-1.23-.11-2.05.97-1.83,2.2.22,1.24,1.03,2.09,1.87,2.03,2.39-.18,4.88.41,7.08,1.8Z"/>
    <path class="cls-5" d="m92.75,206.83c.47.79,1.29,1.35,1.94,1.14.65-.21.97-1.33.54-2.42-1.16-2.98-3.27-5.56-6.07-7.32-1.04-.66-2.27-.07-2.63,1.13-.37,1.2-.03,2.33.74,2.65,2.21.93,4.16,2.59,5.49,4.82Z"/>
    <path class="cls-5" d="m124.4,83.61c.75-.57,1.22-1.45.94-2.09-.28-.64-1.45-.83-2.51-.27-2.88,1.51-5.25,3.93-6.72,6.95-.54,1.13.19,2.3,1.44,2.54,1.26.23,2.36-.23,2.6-1.05.69-2.33,2.15-4.49,4.25-6.07Z"/>
    <path class="cls-5" d="m126.74,88.64c.92-.16,1.75-.73,1.78-1.43.04-.69-.91-1.4-2.11-1.39-3.25.03-6.46,1.1-9.15,3.13-1,.75-.88,2.13.13,2.91,1.01.79,2.2.87,2.79.26,1.67-1.76,3.95-3.02,6.55-3.48Z"/>
  </g>
  <g>
    <g>
      <path class="cls-11" d="m125.5,109.65c2.35,2.9,5.19,5.49,8.5,7.62,16.8,10.84,39.2,6.02,50.05-10.78,5.79-8.96,7.11-19.52,4.53-29.07-.87,5.97-3,11.86-6.49,17.27-12.28,19.02-36.92,25.25-56.59,14.95Z"/>
      <path class="cls-8" d="m123.23,67.23c-8.71,13.49-7.31,30.59,2.28,42.42,19.67,10.29,44.31,4.07,56.59-14.95,3.49-5.4,5.62-11.29,6.49-17.27-2.25-8.35-7.48-15.92-15.31-20.98-16.8-10.84-39.21-6.02-50.05,10.78Z"/>
    </g>
    <path class="cls-2" d="m164.64,87.25c.81,1.01,1.13,2.41.97,4.19-.24,2.15-1.13,3.71-2.67,4.68-1.34.81-3.34,1.3-6.01,1.46v4.13h-2.97v-4.07h-2.31v4.07h-2.98v-4.13h-5.89l.61-3.52h.61c.97.04,1.59.02,1.88-.06.41-.12.65-.42.73-.91v-13.18c-.12-.65-.46-1.05-1.03-1.21-.36-.12-1.13-.16-2.31-.12h-.49v-3.16l1.82.06c2.15,0,3.5-.02,4.06-.06v-4.79h2.98v4.74l2.31-.06v-4.67h2.97v4.79c2.06.2,3.64.65,4.74,1.34,1.34.81,2.06,2.02,2.19,3.64.24,2.35-.58,4.01-2.49,4.98h0c1.5.32,2.59.95,3.28,1.88h0Zm-12.94-2.61h.49c1.7.04,3.02-.06,3.95-.3,1.62-.4,2.43-1.28,2.43-2.61s-.79-2.23-2.37-2.67c-.89-.24-2.2-.34-3.94-.3-.28.04-.47.06-.55.06v5.83h0Zm.55,9.41c2.06.04,3.62-.06,4.67-.31,1.9-.49,2.86-1.46,2.86-2.91s-.93-2.43-2.79-2.91c-1.01-.28-2.55-.38-4.61-.3h-.67v6.43h.55Z"/>
  </g>
  <path class="cls-5" d="m121.28,78.5c.72-.61,1.14-1.51.82-2.14-.32-.61-1.49-.75-2.52-.14-2.79,1.66-5.03,4.21-6.33,7.31-.48,1.16.31,2.29,1.58,2.45,1.27.17,2.34-.35,2.54-1.18.56-2.36,1.9-4.6,3.91-6.3Z"/>
  <g>
    <path class="cls-5" d="m251.42,99.6s.06-.02.09-.03c.83-.47,1.71-.81,2.62-1.1.69-.21,1.37-.44,2.04-.69,1.26-.46,2.54-.85,3.85-1.16,1.09-.25,2.2-.44,3.33-.47.87-.02,1.72.06,2.55.33,1.03.34,1.8.99,2.34,1.93.3.53.49,1.09.63,1.68.08.33.04.3.35.2.21-.07.42-.13.62-.21.88-.34,1.81-.49,2.74-.6,1.21-.13,2.41-.13,3.62.04,1.57.22,3.06.68,4.42,1.52,1.85,1.15,3.11,2.77,3.77,4.85.28.89.44,1.8.49,2.73.02.31,0,.61-.05.91-.12.73-.48,1.3-1.11,1.7-.09.06-.18.11-.28.18.04.05.07.1.11.14,1.07,1.1,1.73,2.42,2.08,3.91.29,1.24.39,2.49.29,3.76,0,.09,0,.17,0,.26-.01.05-.03.1-.04.16-.07.58-.2,1.14-.41,1.68-.32.82-.81,1.52-1.49,2.08-.05.04-.1.08-.15.12-.05.04-.05.09,0,.14.14.16.28.31.41.47.35.42.66.87.88,1.37.12.27.2.55.23.85.04.51-.11.94-.45,1.32-.16.18-.36.32-.56.45-.12.08-.12.09-.04.2.05.07.1.14.15.21.33.48.6.99.75,1.55.15.56.17,1.12.01,1.68-.17.61-.5,1.11-.94,1.54-.36.36-.77.64-1.22.88-.88.45-1.8.72-2.79.69-.05,0-.11-.03-.15.03-.03.1-.06.21-.09.31-.08.31-.18.61-.32.89-.56,1.13-1.47,1.79-2.72,1.95-.55.07-1.09.04-1.63-.07-.74-.15-1.45-.39-2.14-.71-.15-.07-.16-.07-.26.07-.2.28-.4.57-.6.86-1.25,1.74-2.61,3.38-4.13,4.89-1.31,1.3-2.61,2.6-3.88,3.94-1.6,1.69-3.29,3.27-5.1,4.74-.38.31-.76.62-1.13.95-1.58,1.43-3.09,2.92-4.52,4.5-.86.96-1.71,1.92-2.6,2.85-.03.03-.05.07-.08.1-.09.08-.18.16-.26.24-.64.65-1.29,1.3-1.93,1.95-.35.35-.72.66-1.12.95-.39.28-.78.56-1.2.79-.68.35-1.39.56-2.16.54-.63-.01-1.23-.17-1.76-.53-.17-.12-.33-.25-.46-.41-.3-.37-.46-.79-.39-1.27.05-.41.1-.82.16-1.23.12-.74.13-1.47-.03-2.2-.06-.28-.11-.55-.17-.83-.17-.77-.17-1.55-.12-2.34.03-.44.07-.89.1-1.34,0-.08,0-.15,0-.23.02-.03.03-.06,0-.09,0,0,0,0,0,0,.04-.13.04-.26.04-.39.02-1.18.2-2.33.49-3.47.05-.02.05-.05.02-.09.08-.37.16-.75.25-1.12.18-.76.42-1.49.66-2.23.44-1.36.79-2.75,1.13-4.13.1-.4.19-.81.27-1.21.17-.86.33-1.71.48-2.57.08-.46.16-.92.22-1.39.09-.77.16-1.54.24-2.31.17-1.6.3-3.21.31-4.83,0-.15,0-.3,0-.46-.12-.1-.23-.2-.35-.29-.69-.55-1.34-1.16-1.88-1.86-.33-.43-.62-.9-.82-1.41-.19-.48-.29-.98-.29-1.5,0-.13.02-.26.03-.39,0-.06-.01-.11-.07-.13-.06-.02-.12-.04-.19-.06-.72-.26-1.41-.58-2.05-1-.76-.49-1.42-1.09-1.9-1.86-.87-1.38-1.09-2.84-.41-4.36.51-1.15,1.39-1.88,2.64-2.12.07-.01.14,0,.2-.06-.04-.12-.14-.18-.21-.26-.42-.46-.8-.96-1.09-1.51-.22-.41-.38-.84-.43-1.3-.07-.52,0-1.02.25-1.49.16-.29.36-.54.61-.76.64-.56,1.33-1.02,2.1-1.38.66-.31,1.34-.52,2.07-.59.94-.09,1.83.05,2.65.52.56.32,1.02.74,1.41,1.25.07.08.11.19.21.25.02.04.05.09.07.13,0,.02.02.03.03.01,0,0,0-.03,0-.04-.01-.05-.03-.09-.04-.14-.05-.33-.1-.67-.14-1-.18-1.5-.21-3,.13-4.48.14-.61.35-1.19.63-1.75.54-1.05,1.31-1.89,2.3-2.54.11-.07.21-.15.32-.22Zm-2.72,58.98c-.08-.03-.15,0-.22,0-.31.05-.62.1-.93.15-.17.03-.35.01-.51.07,0,.02,0,.03,0,.04.16.31.39.58.63.83.08.08.13.08.22-.02.26-.31.51-.62.77-.93.03-.04.04-.1.06-.15,0,0,.02,0,.03,0,0,0,0-.01,0-.02-.01,0-.02.01-.04.02Zm18.4-18.51s-.08.02-.12.04c-.36.17-.73.34-1.09.52-.36.18-.74.33-1.11.48-.09.04-.1.09-.05.15.19.22.39.44.59.66.03.04.08.04.12.01.05-.03.09-.06.13-.1.48-.52.96-1.04,1.44-1.56.05-.06.1-.12.1-.2,0,0,.02,0,.03,0,0,0,0-.01.01-.02-.01,0-.03.01-.04.02Zm-14.72,14.19c-.11-.06-.21-.02-.32,0-.73.14-1.46.19-2.2.19-.09,0-.17,0-.26.02-.03,0-.06.04-.04.07.02.05.05.1.08.14.3.4.63.78.96,1.16.03.03.06.06.09.09.05.04.1.05.14,0,.04-.04.08-.08.11-.12.44-.48.87-.97,1.34-1.42.04-.04.06-.09.09-.13,0,0,.02,0,.02,0,0,0,0,0,0-.01,0,0-.02.02-.03.02Zm6.04-5.43c-.12-.03-.24.02-.35.04-.55.09-1.1.16-1.65.19-.52.03-1.04.04-1.57.04-.85.01-1.7.02-2.54-.03-.11,0-.22,0-.33,0-.02,0-.04.01-.06.03-.02.03-.01.06,0,.09.18.22.35.45.53.66.62.73,1.29,1.41,2.02,2.05.26.23.22.21.47,0,.48-.41.94-.84,1.42-1.25.6-.52,1.22-1.02,1.82-1.54.09-.08.2-.13.23-.27,0,0,.02,0,.02,0,0,0,0,0,.01-.01-.01,0-.02.01-.03.02Zm24.05-24.54c-.06.01-.11.02-.15.04-.84.32-1.72.5-2.6.62-.42.06-.84.11-1.26.17-.13.02-.26.04-.38.09-.2.09-.27.23-.23.45.03.12.08.23.14.33.12.21.25.41.37.62.11.18.21.36.27.56.13.42.03.72-.35.95-.2.12-.41.2-.63.26-.38.1-.77.16-1.16.19-1.97.17-3.94.15-5.9-.12-.52-.07-1.03-.18-1.53-.34-.17-.05-.33-.12-.48-.21-.06-.04-.12-.09-.17-.15-.1-.11-.06-.23.07-.29.13-.06.27-.07.41-.09.41-.04.83-.07,1.24-.12.74-.08,1.47-.21,2.18-.42.37-.11.72-.24,1.05-.45.43-.27.69-.66.73-1.17.02-.23.03-.46.05-.68.03-.3.07-.61.16-.9.2-.62.59-1.03,1.22-1.21.26-.08.53-.12.8-.15.35-.04.69-.07,1.04-.11.41-.04.82-.11,1.22-.25.7-.23,1.25-.65,1.67-1.25.29-.43.5-.89.66-1.38.26-.82.37-1.66.45-2.51.08-.83-.09-1.6-.48-2.33-.37-.7-.89-1.29-1.46-1.83-.7-.66-1.48-1.22-2.29-1.73-.7-.44-1.42-.86-2.12-1.29-.2-.12-.4-.26-.6-.4-.08-.06-.16-.12-.19-.22-.02-.06-.01-.12.04-.14.06-.04.14-.07.21-.08.18-.02.37-.04.55-.04.52,0,1.05.03,1.57.06,1.17.08,2.32.26,3.43.64.13.04.16.03.19-.09.07-.3.14-.59.2-.89.11-.51.16-1.03.16-1.56,0-.47-.06-.94-.21-1.38-.21-.61-.58-1.09-1.13-1.44-.46-.3-.97-.49-1.51-.6-.73-.15-1.47-.2-2.21-.2-1.11,0-2.22.08-3.33.2-1.71.18-3.42.39-5.13.57-1.76.19-3.52.31-5.29.27-.95-.02-1.89-.1-2.83-.26-.15-.02-.3-.07-.43-.15-.09-.06-.1-.15,0-.21.07-.05.15-.1.23-.13.18-.07.36-.15.55-.21.46-.14.92-.29,1.38-.42,1.79-.52,3.59-1.03,5.37-1.58.07-.02.15-.05.22-.07.07-.02.11-.07.1-.14-.05-.66-.32-1.2-.92-1.53-.18-.1-.37-.18-.57-.23-.34-.09-.69-.12-1.04-.13-.77-.02-1.52.09-2.27.24-1.71.36-3.37.92-4.98,1.59-.94.39-1.83.88-2.66,1.47-.88.62-1.66,1.34-2.29,2.22-.81,1.11-1.27,2.35-1.37,3.73-.06.74,0,1.48.16,2.21.13.61.23,1.22.3,1.84.13,1.19.16,2.37-.06,3.55-.06.3-.13.6-.28.87-.02.04-.04.08-.09.07-.02,0-.05-.04-.06-.07-.08-.24-.16-.48-.24-.71-.38-1.07-.85-2.1-1.5-3.04-.42-.61-.92-1.17-1.51-1.62-.7-.52-1.47-.84-2.35-.9-.73-.04-1.41.11-2.04.49-.17.1-.33.22-.46.36-.22.25-.28.53-.16.85.07.18.17.33.29.47.22.26.47.48.74.69.47.36.97.67,1.48.96.58.33,1.16.65,1.74.97.09.05.19.11.27.18.03.02.07.06.05.1-.01.02-.06.04-.08.04-.17,0-.35,0-.52.01-.72.04-1.43.17-2.09.49-.9.43-1.54,1.1-1.82,2.07-.39,1.33.05,2.87,1.08,3.8.06.06.13.11.2.17.04.03.08.03.12,0,.02-.02.05-.04.07-.07.84-.95,1.88-1.62,3.02-2.13.36-.16.73-.3,1.11-.4.18-.05.36-.07.54-.11.12-.02.24-.02.36.01.11.03.15.13.11.23-.04.1-.12.18-.19.26-.22.26-.45.51-.66.77-.64.81-1.2,1.66-1.55,2.64-.2.56-.31,1.14-.25,1.73.08.84.49,1.48,1.2,1.92.52.33,1.1.47,1.7.52.48.04.96,0,1.43-.07.8-.12,1.6-.24,2.39-.35.73-.1,1.47-.19,2.21-.18.39,0,.78.03,1.16.14.33.1.58.28.74.59.29.54.61,1.06.95,1.57.6.91,1.26,1.78,2.03,2.56.58.58,1.21,1.1,1.93,1.5,1.32.74,2.71.91,4.17.48.55-.16,1.06-.39,1.57-.66.78-.42,1.5-.94,2.21-1.46.33-.24.67-.49,1.01-.73.25-.18.51-.33.79-.46.2-.09.41-.16.63-.15.44.02.72.36.64.8-.02.11-.05.21-.1.31-.06.13-.13.25-.2.38-.19.34-.44.65-.67.97-.06.09-.15.16-.17.27.05.08.13.12.21.16.35.18.69.38,1.04.55.54.26,1.1.49,1.68.63.44.11.88.17,1.33.12.68-.07,1.18-.42,1.51-1.01.1-.19.19-.39.25-.6.13-.45.19-.92.23-1.38.02-.24.04-.48.06-.72.01-.14.04-.28.09-.42.04-.12.12-.14.23-.09.03.01.06.03.09.05.29.15.58.31.87.45.46.23.94.4,1.44.52.24.05.47.07.71.04.41-.06.67-.29.79-.68.04-.13.06-.25.07-.38.04-.51-.06-1-.17-1.49-.11-.47-.27-.92-.42-1.37-.04-.1-.07-.21-.09-.31-.02-.1.02-.17.12-.21.1-.04.21-.05.32-.06.22-.02.43-.04.65-.06.16-.02.32-.06.47-.14.19-.11.3-.27.31-.5,0-.16-.02-.31-.06-.45-.18-.57-.5-1.06-.83-1.55Zm-34.89,17.47c.21.56.41,1.08.67,1.57.64,1.22,1.32,2.41,2.08,3.55.18.26.36.52.53.78.07.1.15.15.27.16.04,0,.09,0,.13,0,.89.04,1.78.04,2.68.02.61-.01,1.22-.04,1.83-.07.83-.04,1.65-.14,2.47-.27.23-.04.45-.08.67-.13.06-.01.08-.08.03-.12-.23-.2-.45-.41-.68-.61-.82-.69-1.58-1.44-2.3-2.22-.39-.42-.77-.86-1.15-1.3-.13-.15-.26-.23-.47-.22-.32.02-.65.01-.98-.02-.63-.06-1.26-.1-1.89-.16-.52-.05-1.04-.1-1.54-.26-.43-.14-.86-.25-1.29-.38-.23-.07-.46-.13-.68-.24-.1-.05-.22-.1-.38-.09Zm7.78-.47c.05,0,.15.01.25,0,.27-.02.54-.04.81-.06.87-.07,1.73-.24,2.59-.38,1.09-.18,2.16-.43,3.23-.7.06-.02.12-.04.19-.06.06-.02.08-.07.05-.13-.02-.05-.06-.09-.09-.14-.19-.29-.39-.58-.57-.88-.32-.52-.62-1.05-.93-1.58-.02-.03-.03-.06-.05-.09-.04-.07-.09-.12-.16-.16-.49-.25-.92-.57-1.33-.94-.13-.11-.26-.14-.42-.12-.34.05-.69.09-1.04.14-1.16.16-2.32.23-3.49.21-.65-.01-1.3-.06-1.95-.14-.11-.01-.22-.02-.33-.02-.06,0-.08.05-.06.09.1.23.19.46.31.68.43.82.91,1.61,1.46,2.36.42.57.84,1.14,1.28,1.7.05.07.11.14.24.17Zm-4.66-9.32c.03.34.12.65.19.95.15.62.35,1.21.55,1.82.03.08.07.12.16.13.42.04.84.09,1.27.12.9.07,1.8.12,2.71.09.71-.02,1.41-.09,2.12-.19.11-.01.21-.04.32-.07.03,0,.05-.05.03-.08-.02-.04-.04-.08-.07-.11-.46-.68-.9-1.37-1.27-2.1-.26-.5-.52-1.01-.81-1.5-.12-.21-.25-.41-.39-.6-.19-.27-.41-.32-.71-.17-.15.07-.28.16-.42.25-.45.3-.89.6-1.37.84-.44.22-.9.4-1.38.49-.3.05-.6.09-.93.13Zm12.97,9.56s-.08,0-.12.01c-.47.12-.95.25-1.42.36-.62.14-1.23.28-1.86.38-1.19.2-2.39.38-3.59.51-.03,0-.07,0-.1.02-.03.01-.04.05-.02.08.02.04.05.07.08.1.51.61,1.05,1.2,1.62,1.74.45.43.91.84,1.38,1.25.23.21.47.42.72.62.38.3.32.28.66-.04.22-.21.43-.43.64-.65.95-1.01,1.9-2.01,2.85-3.02.04-.04.08-.08.11-.12.06-.07.06-.13,0-.21-.02-.03-.04-.05-.06-.08-.27-.3-.54-.6-.81-.9-.02-.02-.05-.04-.08-.07Zm-17.52,6.78s-.01,0-.03,0c-.12-.02-.22-.1-.34-.07-.06.15.05.25.11.36.48.9.96,1.81,1.52,2.67.32.49.63.99.95,1.48.04.06.09.12.13.19.05.08.13.11.22.11.3.01.61.04.91.06,1.2.05,2.39-.06,3.57-.31.04,0,.09-.02.12-.04.04-.02.06-.06.03-.11-.04-.05-.09-.1-.14-.14-.44-.35-.8-.76-1.19-1.17-.67-.7-1.27-1.46-1.84-2.25-.08-.11-.17-.17-.29-.18-.24-.03-.47-.07-.71-.1-.42-.06-.84-.12-1.26-.18-.27-.04-.54-.07-.81-.12-.32-.07-.65-.08-.97-.18Zm7.06-7.08c-.07-.08-.1-.12-.13-.15-.48-.58-.93-1.18-1.34-1.81-.22-.34-.45-.67-.63-1.03-.26-.5-.48-1.02-.72-1.54-.09-.2-.16-.4-.24-.61-.05-.13-.13-.23-.27-.25-.07-.01-.15-.04-.22-.06-.23-.07-.46-.13-.68-.23-.3-.13-.62-.21-.91-.36-.14-.08-.19-.04-.23.12,0,.03-.01.06-.02.1-.06.54-.1,1.08-.17,1.62-.06.51-.12,1.01-.19,1.52-.05.37-.12.73-.16,1.1-.03.29,0,.27.22.35.06.02.12.04.18.07.35.16.7.3,1.07.41.43.13.86.25,1.29.37.46.13.92.25,1.41.28.49.02.97.09,1.46.13.06,0,.13,0,.27-.02Zm-8.26,12.66c-.18-.05-.33-.1-.48-.13-.09-.02-.14.04-.12.13,0,.03.02.06.03.09.12.33.23.66.35.98.16.43.34.85.57,1.25.23.38.45.77.7,1.14.26.39.2.38.69.35,1.05-.07,2.07-.28,3.07-.61.04-.01.08-.03.12-.05.1-.05.12-.13.06-.21-.03-.04-.07-.08-.11-.12-.45-.5-.88-1.03-1.27-1.58-.18-.26-.37-.51-.55-.77-.05-.08-.12-.12-.22-.13-.5-.04-1-.08-1.49-.14-.46-.05-.93-.08-1.34-.22Zm24.81-18.73c-.09-.03-.14,0-.18.03-.28.19-.56.38-.84.57-.4.27-.82.5-1.26.7-.37.18-.76.33-1.14.5-.76.34-1.55.58-2.37.7-.45.07-.91.08-1.37.03-.09,0-.17-.01-.26-.01-.05,0-.08.04-.06.09.01.04.03.08.05.12.24.39.47.79.71,1.17.13.2.28.39.42.59.07.09.15.12.26.09.18-.06.35-.11.53-.18.62-.24,1.23-.5,1.83-.79.71-.35,1.4-.71,2.05-1.15.75-.5,1.44-1.06,2.08-1.69.05-.05.11-.11.16-.17.06-.07.05-.14-.02-.2-.17-.13-.35-.26-.53-.39-.03-.02-.06-.03-.06-.03Zm-25.3,26.92c.12.04.24.04.36.01.26-.05.5-.16.72-.3.57-.37,1.07-.82,1.56-1.29.06-.06.06-.11,0-.17-.38-.39-.69-.84-1.02-1.28-.12-.17-.27-.23-.47-.23-.42,0-.85-.04-1.27-.06-.18-.01-.18-.01-.17.17,0,.04,0,.09.01.13.06.63.07,1.26-.03,1.89-.03.19-.03.39-.03.59,0,.1.02.2.05.29.04.13.13.22.27.25Zm2.14-18.54c-.03.11-.07.2-.08.3-.08.52-.19,1.02-.32,1.53-.12.48-.23.97-.34,1.46-.04.15-.02.18.14.23.3.09.6.19.91.27.45.12.92.15,1.38.22.22.03.45.05.68.07.04,0,.08-.05.06-.09-.02-.04-.04-.08-.06-.11-.19-.29-.39-.57-.58-.87-.18-.27-.35-.55-.52-.83-.41-.64-.79-1.3-1.11-1.99-.03-.07-.04-.15-.15-.19Zm-1.52,6.51s-.03.09-.05.14c-.1.31-.15.64-.21.96-.06.34-.14.68-.21,1.02-.03.14,0,.18.11.24.57.27,1.16.42,1.79.48.11,0,.22.03.32.04.04,0,.09-.05.07-.09-.05-.09-.09-.17-.15-.25-.55-.77-1.07-1.57-1.54-2.39-.03-.05-.04-.12-.14-.14Zm4.03-15.86c.16.03.27.12.34.06.1-.08-.02-.2-.03-.3,0-.06-.03-.13-.05-.19-.15-.58-.29-1.16-.36-1.76-.03-.23-.09-.37-.33-.4-.05,0-.1-.03-.16-.05-.13-.03-.16-.01-.21.13-.07.21-.07.43-.11.64-.07.41-.13.81-.2,1.22-.02.11,0,.16.11.21.35.15.7.3.99.42Zm-5.12,21.67c-.07.13-.04.27-.06.4-.04.39-.08.78,0,1.17.02.14.03.17.18.19.3.04.6.07.9.1.04,0,.07-.05.05-.09-.03-.05-.05-.09-.08-.14-.32-.47-.66-.94-.87-1.48-.02-.05-.03-.1-.12-.13Z"/>
    <path class="cls-6" d="m241.55,154.14s.02.06,0,.09c-.03-.03-.04-.06,0-.09Z"/>
    <path class="cls-1" d="m282.47,124.29c.33.49.65.98.83,1.55.05.15.07.3.06.45,0,.23-.12.39-.31.5-.14.08-.3.12-.47.14-.22.02-.43.04-.65.06-.11,0-.22.02-.32.06-.09.04-.14.11-.12.21.02.11.06.21.09.31.16.45.31.91.42,1.37.12.49.21.98.17,1.49,0,.13-.03.26-.07.38-.12.39-.39.62-.79.68-.24.03-.48.02-.71-.04-.5-.11-.98-.29-1.44-.52-.29-.15-.58-.3-.87-.45-.03-.02-.06-.03-.09-.05-.12-.05-.19-.03-.23.09-.05.13-.08.27-.09.42-.02.24-.03.48-.06.72-.05.47-.1.93-.23,1.38-.06.21-.15.41-.25.6-.33.6-.83.94-1.51,1.01-.45.05-.89-.01-1.33-.12-.59-.14-1.14-.37-1.68-.63-.35-.17-.7-.36-1.04-.55-.08-.04-.16-.08-.21-.16.02-.11.11-.18.17-.27.23-.32.48-.62.67-.97.07-.12.14-.25.2-.38.04-.1.08-.2.1-.31.08-.43-.2-.78-.64-.8-.22,0-.43.06-.63.15-.28.13-.54.28-.79.46-.34.24-.67.48-1.01.73-.71.52-1.43,1.04-2.21,1.46-.5.27-1.02.5-1.57.66-1.46.43-2.85.26-4.17-.48-.72-.4-1.35-.92-1.93-1.5-.77-.78-1.43-1.65-2.03-2.56-.34-.51-.66-1.03-.95-1.57-.17-.31-.41-.49-.74-.59-.38-.11-.77-.14-1.16-.14-.74,0-1.48.08-2.21.18-.8.11-1.6.23-2.39.35-.48.07-.95.11-1.43.07-.61-.05-1.18-.2-1.7-.52-.71-.44-1.12-1.08-1.2-1.92-.06-.6.05-1.17.25-1.73.35-.98.92-1.83,1.55-2.64.21-.26.44-.52.66-.77.07-.08.15-.16.19-.26.04-.1,0-.2-.11-.23-.12-.03-.24-.03-.36-.01-.18.03-.37.06-.54.11-.38.1-.75.24-1.11.4-1.15.52-2.18,1.19-3.02,2.13-.02.02-.05.05-.07.07-.04.03-.08.03-.12,0-.07-.05-.14-.11-.2-.17-1.03-.93-1.47-2.47-1.08-3.8.29-.97.92-1.64,1.82-2.07.66-.32,1.36-.45,2.09-.49.17,0,.35,0,.52-.01.03,0,.07-.02.08-.04.03-.05-.02-.08-.05-.1-.09-.06-.18-.13-.27-.18-.58-.32-1.16-.64-1.74-.97-.51-.29-1.01-.6-1.48-.96-.27-.21-.52-.43-.74-.69-.12-.14-.22-.3-.29-.47-.12-.32-.06-.6.16-.85.13-.15.29-.26.46-.36.63-.38,1.31-.53,2.04-.49.87.05,1.65.37,2.35.9.6.45,1.09,1,1.51,1.62.65.94,1.12,1.97,1.5,3.04.08.24.16.48.24.71,0,.03.03.06.06.07.05.01.07-.03.09-.07.15-.27.22-.57.28-.87.22-1.18.19-2.36.06-3.55-.07-.62-.17-1.23-.3-1.84-.15-.73-.21-1.47-.16-2.21.1-1.37.57-2.61,1.37-3.73.63-.88,1.41-1.6,2.29-2.22.83-.59,1.72-1.08,2.66-1.47,1.61-.68,3.26-1.23,4.98-1.59.75-.16,1.5-.26,2.27-.24.35,0,.7.05,1.04.13.2.05.39.13.57.23.59.34.86.87.92,1.53,0,.08-.03.12-.1.14-.07.02-.15.04-.22.07-1.78.55-3.57,1.07-5.37,1.58-.46.13-.92.27-1.38.42-.19.06-.37.13-.55.21-.08.03-.16.08-.23.13-.09.06-.08.16,0,.21.13.08.28.13.43.15.94.15,1.88.23,2.83.26,1.77.04,3.53-.08,5.29-.27,1.71-.18,3.42-.39,5.13-.57,1.11-.12,2.21-.2,3.33-.2.74,0,1.48.05,2.21.2.54.11,1.05.3,1.51.6.54.35.91.83,1.13,1.44.16.45.21.91.21,1.38,0,.52-.05,1.04-.16,1.56-.06.3-.13.6-.2.89-.03.12-.06.13-.19.09-1.11-.38-2.26-.56-3.43-.64-.52-.04-1.04-.07-1.57-.06-.18,0-.37.02-.55.04-.07,0-.15.04-.21.08-.05.03-.06.09-.04.14.04.09.12.16.19.22.2.14.39.28.6.4.71.43,1.42.85,2.12,1.29.81.51,1.59,1.07,2.29,1.73.58.54,1.09,1.13,1.46,1.83.39.73.56,1.5.48,2.33-.08.85-.19,1.69-.45,2.51-.16.49-.36.96-.66,1.38-.42.6-.97,1.02-1.67,1.25-.4.13-.8.2-1.22.25-.35.04-.69.07-1.04.11-.27.03-.54.08-.8.15-.63.18-1.02.6-1.22,1.21-.09.29-.13.59-.16.9-.02.23-.03.46-.05.68-.05.51-.3.9-.73,1.17-.33.21-.68.34-1.05.45-.71.21-1.44.34-2.18.42-.41.04-.82.08-1.24.12-.14.01-.28.03-.41.09-.14.06-.17.18-.07.29.05.06.11.11.17.15.15.09.31.16.48.21.5.16,1.01.27,1.53.34,1.96.28,3.93.3,5.9.12.39-.03.78-.09,1.16-.19.22-.06.44-.14.63-.26.37-.24.48-.53.35-.95-.06-.2-.16-.38-.27-.56-.12-.21-.25-.41-.37-.62-.06-.1-.11-.21-.14-.33-.05-.21.03-.36.23-.45.12-.05.25-.08.38-.09.42-.05.84-.11,1.26-.17.89-.12,1.76-.3,2.6-.62.04-.02.08-.02.15-.04Zm-30.67-8.51c-.15.54-.2.83-.22,1.29-.04,1.38.56,2.42,1.75,3.1,1.34.77,2.51,1.73,3.47,2.94.1.13.2.26.29.4,1.08,1.73,2.53,3.07,4.33,4.03.65.34,1.32.62,2.03.8.17.05.34.06.52.02.26-.07.47-.31.45-.61-.01-.16-.05-.3-.11-.44-.07-.16-.17-.3-.28-.44-.21-.28-.47-.52-.73-.75-.43-.37-.9-.69-1.37-1-.27-.17-.52-.35-.76-.57-.13-.12-.26-.24-.35-.39-.08-.13-.19-.26-.09-.42.09-.13.25-.12.39-.09.16.03.32.07.48.12.66.21,1.25.56,1.8.97.66.5,1.24,1.1,1.77,1.74.51.61.97,1.27,1.41,1.93.22.33.44.65.66.97.07.1.14.23.29.24.15-.11.09-.26.07-.39-.1-.84-.28-1.66-.57-2.45-.95-2.58-2.77-4.2-5.41-4.91-.53-.14-1.06-.23-1.6-.34-.66-.13-1.28-.34-1.87-.68-1.03-.59-1.88-1.38-2.57-2.33-.59-.81-.92-1.73-1.04-2.72-.05-.43-.02-.85.1-1.26.13-.46.25-.93.38-1.39.08-.28.13-.58.17-.87.02-.15.03-.3,0-.46-.03-.15-.13-.23-.28-.21-.07.01-.15.04-.22.07-.14.06-.27.15-.38.25-.19.17-.37.34-.55.52-.91.95-1.59,2.04-1.97,3.31Zm14-8.7c-.23-.06-.48-.13-.74-.17-.8-.12-1.59-.04-2.38.05-.16.02-.32.07-.47.12-.1.03-.2.09-.29.15-.25.19-.25.4,0,.58.06.04.13.08.2.12.19.09.38.17.57.25.23.1.47.18.7.29.84.41,1.68.83,2.49,1.29,1.27.72,2.36,1.63,3.26,2.78.18.22.35.45.52.67.23.3.48.6.75.87.22.22.44.42.69.6.1.07.2.13.32.16.21.06.37-.04.41-.25.02-.13,0-.26-.03-.39-.05-.17-.1-.33-.17-.49-.43-.98-.87-1.95-1.4-2.88-.5-.9-1.15-1.69-1.93-2.37-.72-.63-1.54-1.1-2.49-1.36Z"/>
    <path class="cls-10" d="m247.58,141.76c.17,0,.28.04.38.09.22.11.45.17.68.24.43.13.86.24,1.29.38.5.16,1.02.21,1.54.26.63.06,1.26.1,1.89.16.33.03.65.04.98.02.21-.01.34.07.47.22.38.44.76.87,1.15,1.3.73.78,1.48,1.54,2.3,2.22.23.2.46.41.68.61.05.04.03.11-.03.12-.22.04-.45.09-.67.13-.82.13-1.64.23-2.47.27-.61.03-1.22.06-1.83.07-.89.02-1.78.02-2.68-.02-.04,0-.09,0-.13,0-.12,0-.2-.05-.27-.16-.17-.26-.36-.52-.53-.78-.76-1.14-1.44-2.34-2.08-3.55-.26-.49-.46-1.01-.67-1.57Z"/>
    <path class="cls-10" d="m255.35,141.29c-.14-.04-.19-.1-.24-.17-.44-.56-.85-1.13-1.28-1.7-.56-.75-1.03-1.54-1.46-2.36-.12-.22-.21-.45-.31-.68-.02-.04,0-.09.06-.09.11,0,.22,0,.33.02.65.07,1.3.13,1.95.14,1.17.02,2.33-.05,3.49-.21.35-.05.69-.09,1.04-.14.16-.03.29,0,.42.12.41.36.84.69,1.33.94.07.04.12.09.16.16.02.03.03.06.05.09.31.53.61,1.06.93,1.58.18.3.38.58.57.88.03.05.06.09.09.14.03.06,0,.11-.05.13-.06.02-.12.05-.19.06-1.07.27-2.14.52-3.23.7-.86.14-1.72.31-2.59.38-.27.02-.54.04-.81.06-.1,0-.2,0-.25,0Z"/>
    <path class="cls-10" d="m250.7,131.97c.33-.05.63-.08.93-.13.49-.09.94-.27,1.38-.49.48-.24.92-.54,1.37-.84.14-.09.27-.18.42-.25.3-.15.52-.1.71.17.14.19.27.4.39.6.28.49.55.99.81,1.5.37.73.81,1.42,1.27,2.1.02.04.05.07.07.11.01.03,0,.07-.03.08-.11.03-.21.05-.32.07-.7.09-1.41.16-2.12.19-.9.03-1.81-.02-2.71-.09-.42-.03-.84-.09-1.27-.12-.09,0-.14-.04-.16-.13-.2-.6-.4-1.2-.55-1.82-.07-.31-.16-.61-.19-.95Z"/>
    <path class="cls-10" d="m263.67,141.53s.06.05.08.07c.27.3.54.6.81.9.02.02.04.05.06.08.06.08.06.13,0,.21-.03.04-.07.08-.11.12-.95,1.01-1.9,2.01-2.85,3.02-.21.22-.42.45-.64.65-.34.31-.28.34-.66.04-.25-.2-.49-.4-.72-.62-.46-.41-.93-.83-1.38-1.25-.58-.55-1.11-1.14-1.62-1.74-.03-.03-.05-.07-.08-.1-.02-.03,0-.07.02-.08.03-.01.06-.01.1-.02,1.2-.13,2.4-.31,3.59-.51.62-.1,1.24-.24,1.86-.38.48-.11.95-.24,1.42-.36.04-.01.08-.01.12-.01Z"/>
    <path class="cls-10" d="m246.14,148.32c.32.1.65.12.97.18.27.05.54.08.81.12.42.06.84.12,1.26.18.24.03.47.07.71.1.13.02.22.08.29.18.56.79,1.17,1.55,1.84,2.25.38.4.75.82,1.19,1.17.05.04.1.09.14.14.03.04.02.08-.03.11-.04.02-.08.03-.12.04-1.18.26-2.37.36-3.57.31-.3-.01-.61-.04-.91-.06-.1,0-.17-.03-.22-.11-.04-.06-.09-.12-.13-.19-.32-.49-.63-.99-.95-1.48-.56-.86-1.04-1.76-1.52-2.67-.06-.11-.16-.21-.11-.36.12-.02.23.05.34.07.01,0,.02,0,.03,0Z"/>
    <path class="cls-10" d="m253.2,141.24c-.14.01-.2.02-.27.02-.49-.04-.97-.11-1.46-.13-.49-.02-.95-.15-1.41-.28-.43-.12-.86-.25-1.29-.37-.37-.11-.72-.25-1.07-.41-.06-.03-.12-.05-.18-.07-.23-.08-.26-.07-.22-.35.04-.37.11-.73.16-1.1.07-.51.13-1.01.19-1.52.06-.54.11-1.08.17-1.62,0-.03.01-.06.02-.1.03-.16.08-.2.23-.12.29.15.61.22.91.36.22.1.45.15.68.23.07.02.15.05.22.06.15.03.22.12.27.25.08.2.15.41.24.61.23.52.46,1.04.72,1.54.18.36.41.69.63,1.03.41.63.86,1.23,1.34,1.81.03.03.06.07.13.15Z"/>
    <path class="cls-10" d="m244.94,153.89c.41.14.88.17,1.34.22.5.06,1,.1,1.49.14.1,0,.16.05.22.13.18.26.37.51.55.77.39.55.82,1.07,1.27,1.58.04.04.07.08.11.12.06.08.04.16-.06.21-.04.02-.08.03-.12.05-1,.33-2.02.54-3.07.61-.49.03-.43.05-.69-.35-.25-.37-.47-.76-.7-1.14-.23-.4-.41-.82-.57-1.25-.12-.33-.24-.66-.35-.98-.01-.03-.02-.06-.03-.09-.02-.09.03-.16.12-.13.15.04.29.08.48.13Z"/>
    <path class="cls-10" d="m269.75,135.16s.03,0,.06.03c.18.13.35.25.53.39.08.06.08.13.02.2-.05.06-.1.11-.16.17-.64.63-1.33,1.19-2.08,1.69-.65.44-1.35.8-2.05,1.15-.6.29-1.21.55-1.83.79-.17.07-.35.12-.53.18-.11.04-.19,0-.26-.09-.14-.2-.29-.38-.42-.59-.24-.39-.48-.78-.71-1.17-.02-.04-.04-.08-.05-.12-.02-.05,0-.09.06-.09.09,0,.17,0,.26.01.46.05.91.04,1.37-.03.83-.12,1.62-.36,2.37-.7.38-.17.76-.33,1.14-.5.43-.2.86-.44,1.26-.7.28-.19.56-.38.84-.57.05-.03.09-.06.18-.03Z"/>
    <path class="cls-10" d="m258.42,148.82c-.02.13-.14.19-.23.27-.61.51-1.22,1.02-1.82,1.54-.48.41-.94.84-1.42,1.25-.25.22-.21.23-.47,0-.72-.63-1.39-1.32-2.02-2.05-.18-.21-.36-.44-.53-.66-.02-.03-.03-.06,0-.09.01-.02.04-.03.06-.03.11,0,.22,0,.33,0,.85.05,1.7.04,2.54.03.52,0,1.04-.01,1.57-.04.55-.04,1.1-.1,1.65-.19.12-.02.23-.07.35-.04h0Z"/>
    <path class="cls-10" d="m244.45,162.08c-.14-.03-.23-.12-.27-.25-.03-.09-.05-.19-.05-.29,0-.2,0-.39.03-.59.09-.63.09-1.26.03-1.89,0-.04,0-.09-.01-.13-.02-.18-.01-.18.17-.17.42.03.85.06,1.27.06.2,0,.35.06.47.23.32.44.64.88,1.02,1.28.06.06.06.11,0,.17-.49.47-.99.92-1.56,1.29-.22.14-.46.25-.72.3-.12.02-.24.03-.36-.01Z"/>
    <path class="cls-10" d="m246.6,143.54c.11.04.12.12.15.19.32.69.7,1.35,1.11,1.99.18.28.35.55.52.83.19.29.39.58.58.87.02.04.04.07.06.11.02.04-.02.09-.06.09-.23-.02-.45-.04-.68-.07-.46-.07-.93-.1-1.38-.22-.31-.08-.61-.17-.91-.27-.16-.05-.18-.08-.14-.23.11-.49.22-.97.34-1.46.13-.51.24-1.02.32-1.53.02-.1.05-.19.08-.3Z"/>
    <path class="cls-10" d="m245.08,150.05c.1.01.11.09.14.14.47.83.99,1.62,1.54,2.39.06.08.1.17.15.25.02.03-.03.09-.07.09-.11-.01-.22-.03-.32-.04-.62-.06-1.22-.2-1.79-.48-.11-.05-.14-.1-.11-.24.07-.34.15-.68.21-1.02.06-.32.11-.65.21-.96.02-.05.03-.1.05-.14Z"/>
    <path class="cls-10" d="m249.11,134.19c-.29-.12-.64-.27-.99-.42-.11-.05-.13-.09-.11-.21.06-.41.13-.81.2-1.22.04-.21.04-.43.11-.64.04-.14.07-.16.21-.13.05.01.1.04.16.05.24.03.3.17.33.4.07.59.21,1.18.36,1.76.02.06.04.13.05.19,0,.1.13.22.03.3-.07.06-.18-.03-.34-.06Z"/>
    <path class="cls-10" d="m252.38,154.25s-.05.1-.09.13c-.47.45-.9.94-1.34,1.42-.04.04-.07.08-.11.12-.05.04-.1.04-.14,0-.03-.03-.06-.06-.09-.09-.32-.38-.66-.75-.96-1.16-.03-.04-.06-.09-.08-.14-.02-.04.01-.07.04-.07.09-.01.17-.02.26-.02.74,0,1.48-.05,2.2-.19.1-.02.21-.06.32,0h0Z"/>
    <path class="cls-10" d="m267.11,140.06c0,.08-.05.14-.1.2-.48.52-.96,1.04-1.44,1.56-.04.04-.08.07-.13.1-.04.03-.09.02-.12-.01-.2-.22-.39-.44-.59-.66-.05-.06-.03-.11.05-.15.37-.15.75-.3,1.11-.48.36-.18.73-.35,1.09-.52.04-.02.08-.03.12-.04h0Z"/>
    <path class="cls-10" d="m243.98,155.86c.08.03.1.08.12.13.21.54.54,1.01.87,1.48.03.04.06.09.08.14.02.04-.01.1-.05.09-.3-.03-.6-.06-.9-.1-.15-.02-.15-.04-.18-.19-.07-.39-.03-.78,0-1.17.01-.13-.01-.26.06-.4Z"/>
    <path class="cls-10" d="m248.7,158.58s-.03.11-.06.15c-.25.31-.51.62-.77.93-.08.1-.14.1-.22.02-.24-.25-.47-.52-.63-.83,0,0,0-.02,0-.04.16-.06.34-.05.51-.07.31-.05.62-.1.93-.15.07-.01.15-.04.22,0h0Z"/>
    <path class="cls-10" d="m242.09,150.28s-.01-.07.02-.09c.03.04.03.07-.02.09Z"/>
    <path class="cls-6" d="m248.19,109.76s-.05-.09-.07-.13c.02-.01.05-.02.07-.03.01.05.03.09.04.14-.03-.01-.04,0-.04.03Z"/>
    <path class="cls-10" d="m248.23,109.73s0,.03,0,.04c-.02.02-.03,0-.03-.01,0-.03.01-.04.04-.03Z"/>
    <path class="cls-10" d="m267.11,140.06s.03-.01.04-.02c0,0,0,.02-.01.02,0,0-.02,0-.03,0,0,0,0,0,0,0Z"/>
    <path class="cls-10" d="m258.42,148.82s.02-.01.03-.02c0,0,0,.01-.01.01,0,0-.02,0-.02,0,0,0,0,0,0,0Z"/>
    <path class="cls-10" d="m252.39,154.25s.02-.02.03-.02c0,0,0,.01,0,.01,0,0-.02,0-.02,0,0,0,0,0,0,0Z"/>
    <path class="cls-10" d="m248.7,158.58s.02-.01.04-.02c0,0,0,.02,0,.02,0,0-.02,0-.03,0,0,0,0,0,0,0Z"/>
    <path class="cls-5" d="m251.81,115.78c.38-1.27,1.06-2.36,1.97-3.31.17-.18.36-.35.55-.52.11-.1.24-.19.38-.25.07-.03.14-.06.22-.07.15-.02.25.06.28.21.03.15.02.3,0,.46-.05.29-.09.58-.17.87-.13.46-.25.93-.38,1.39-.12.42-.15.83-.1,1.26.12,1,.45,1.91,1.04,2.72.69.95,1.54,1.74,2.57,2.33.58.33,1.21.55,1.87.68.53.11,1.07.2,1.6.34,2.64.71,4.46,2.33,5.41,4.91.29.79.47,1.61.57,2.45.02.13.07.28-.07.39-.15-.01-.22-.14-.29-.24-.23-.32-.44-.65-.66-.97-.44-.66-.9-1.32-1.41-1.93-.53-.64-1.11-1.23-1.77-1.74-.55-.42-1.14-.76-1.8-.97-.16-.05-.32-.09-.48-.12-.14-.03-.3-.04-.39.09-.11.15,0,.29.09.42.09.15.22.27.35.39.23.21.49.4.76.57.48.31.94.63,1.37,1,.26.23.52.47.73.75.11.14.2.28.28.44.06.14.1.28.11.44.02.3-.19.54-.45.61-.17.05-.34.03-.52-.02-.71-.19-1.39-.46-2.03-.8-1.8-.96-3.25-2.29-4.33-4.03-.09-.14-.18-.27-.29-.4-.96-1.21-2.13-2.17-3.47-2.94-1.19-.68-1.79-1.71-1.75-3.1.01-.45.06-.75.22-1.29Z"/>
    <path class="cls-5" d="m265.8,107.08c.95.26,1.77.73,2.49,1.36.78.68,1.42,1.47,1.93,2.37.52.93.97,1.9,1.4,2.88.07.16.12.33.17.49.04.13.05.26.03.39-.04.22-.19.31-.41.25-.12-.03-.22-.09-.32-.16-.25-.18-.48-.38-.69-.6-.27-.27-.51-.57-.75-.87-.17-.22-.35-.45-.52-.67-.9-1.14-1.99-2.06-3.26-2.78-.82-.46-1.65-.89-2.49-1.29-.23-.11-.46-.19-.7-.29-.19-.08-.38-.16-.57-.25-.07-.03-.13-.07-.2-.12-.25-.18-.25-.39,0-.58.09-.06.19-.12.29-.15.15-.05.31-.1.47-.12.79-.09,1.58-.17,2.38-.05.26.04.51.11.74.17Z"/>
  </g>
  <path class="cls-1" d="m246.39,106.5c-1.76-2.45-3.83-4.53-6.75-5.56-1.25-.44-2.54-.64-3.86-.49-.32.04-.64.13-.94.25-.73.3-1.17.94-1.11,1.54.06.62.7,1.37,1.42,1.43.99.08,1.99.04,2.99,0,2.8-.13,5.34.58,7.56,2.33.22.18.46.33.7.49Z"/>
  <path class="cls-1" d="m285.43,111.72c1.3-1.48,2.78-2.64,4.82-2.73.49-.02,1,.06,1.48.19.39.1.67.39.62.86-.05.49-.39.68-.81.76-.21.04-.44.07-.65.02-1.94-.41-3.78-.23-5.46.9Z"/>
  <path class="cls-1" d="m246.6,105.88c-.17-.59-.32-1.19-.52-1.77-.73-2.15-2.26-3.61-4.09-4.84-.52-.35-.97-.82-1.36-1.3-.35-.44-.25-.99.09-1.41.35-.43.87-.48,1.39-.36.9.21,1.52.84,2.12,1.48,1.65,1.8,2.29,4,2.44,6.38.04.6.03,1.2.04,1.8-.04,0-.07,0-.11.01Z"/>
  <path class="cls-1" d="m274.46,141.27c-.08.19-.13.55-.33.73-.86.81-1.79,1.56-2.65,2.36-.99.92-1.94,1.87-2.9,2.82-.49.48-.96.49-1.15-.08-.07-.23.09-.63.27-.84.69-.75,1.4-1.49,2.16-2.18,1.13-1.03,2.3-2.02,3.46-3.02.33-.29.69-.36,1.14.2Z"/>
  <path class="cls-1" d="m265.94,148.2c.25.03.65-.03.76.12.15.2.19.64.07.85-.24.41-.61.76-.98,1.06-.13.11-.52.09-.63-.02-.15-.15-.27-.53-.19-.68.24-.44.59-.81.98-1.32Z"/>
  <path class="cls-1" d="m239.25,162.9c-.1-.19-.34-.44-.36-.72-.09-1.18-.08-2.37-.16-3.55-.09-1.34-.23-2.69-.35-4.03-.07-.69.23-1.05.79-.84.23.09.43.47.47.74.15,1.01.27,2.03.33,3.05.09,1.53.12,3.06.16,4.59.01.44-.16.76-.87.76Z"/>
  <path class="cls-1" d="m239.85,152.03c-.24.06-.59.26-.75.16-.21-.14-.41-.53-.37-.77.08-.47.29-.93.53-1.34.08-.15.45-.27.6-.21.2.09.44.39.42.57-.06.49-.26.97-.44,1.59Z"/>
</svg>