<?xml version="1.0" encoding="UTF-8"?>
<svg id="Layer_1" data-name="Layer 1" xmlns="http://www.w3.org/2000/svg" width="300" height="225" viewBox="0 0 300 225">
  <defs>
    <style>
      .cls-1 {
        fill: #fff;
      }

      .cls-2 {
        isolation: isolate;
        opacity: .35;
      }

      .cls-3 {
        fill: #232323;
      }

      .cls-4 {
        fill: #21ce99;
      }

      .cls-5 {
        fill: #444;
      }

      .cls-6 {
        fill: #7f7f7f;
      }
    </style>
  </defs>
  <g>
    <g class="cls-2">
      <ellipse class="cls-3" cx="84.71" cy="205.57" rx="44.98" ry="7.26"/>
    </g>
    <path class="cls-3" d="m52.13,154.11c.18,1.47,5.05,43,12.12,48.82,7.07,5.82,10.79,3.86,12.22,2.32,1.51-1.62,3.41-4.53-.12-7.82-2.83-2.64-4.82-14.34-2-32.6l-22.23-10.71Z"/>
    <path class="cls-3" d="m79.14,151.52c.19,1.47,5.05,43,12.12,48.82,7.08,5.82,10.79,3.86,12.23,2.31,1.51-1.62,3.41-4.53-.12-7.81-2.83-2.65-4.82-14.34-2-32.6l-22.24-10.71Z"/>
    <path class="cls-3" d="m96.52,95.81c-3.24-.35-6.28,1.59-6.73,5.12-.45,3.51,2.92,7.68,7.43,8.2,12.84,1.49,24.8-3.34,33.01-13.31,2.89-3.5,2.43-8.85-.33-11.06-2.78-2.24-6.32-1.52-8.41.98-6.21,7.54-15.27,11.2-24.98,10.07Z"/>
    <path class="cls-1" d="m57.79,91.38c8.18-4.53,18.54-6.97,37.66-7.72-4.56-1.93-10.59-2.83-19.43-2.83h-.01c-15.12,0-22.11,2.58-27.37,8.57-6.21,7.07-9.35,27.3-9.98,43.04,1.01-14.78,7.01-34.33,19.13-41.07Z"/>
    <path class="cls-5" d="m38.67,132.45c-.15,2.17-.18,4.24-.12,6.15,0-1.94.04-4,.12-6.15Z"/>
    <path class="cls-5" d="m25.44,157.82c-2.16,1.53-4.95,2.06-6.42.75-1.46-1.3-1.02-4.61,1.38-6.99,6.5-6.47,15.02-10.83,24.42-12.23,3.5-.51,6.04,2.44,5.61,6.01-.42,3.59-2.61,6.16-5.01,6.13-6.87-.11-13.92,1.99-19.97,6.33Z"/>
    <path class="cls-5" d="m103.4,89.41c-1.92-2.19-4.08-3.92-6.77-5.23-.37-.18-.77-.34-1.17-.51-3.08.12-5.91.29-8.57.5-6.51.23-11.61.96-15.75,2.26-5.34,1.24-9.58,2.87-13.34,4.97-12.12,6.73-18.12,26.28-19.13,41.07-.08,2.15-.12,4.21-.12,6.15.02,5,.33,9.15.93,11.66.03.12.08.23.11.34,3.04,13.74,18.25,24.2,36.56,24.2,20.51,0,37.13-13.1,37.13-29.26,0-.15-.01-.29-.01-.44,1.12-14.82-1.76-46.47-9.87-55.7Z"/>
    <g>
      <path class="cls-1" d="m50.88,58.05c-.29-13.66,10.27-19.94,33.61-17.65,7.41.72,15.55-6.81,21.11-7.55,15.97-2.11,18.01,8.39,18.01,8.39h.03c-4.78-18.36-24.61-31.81-48-31.22-26.54.68-47.61,19.2-47.04,41.36.56,22.17,22.54,39.59,49.08,38.91,2.31-.06,4.58-.26,6.8-.58v-.02c-23.34,2.22-33.22-13.51-33.61-31.63Z"/>
      <path class="cls-5" d="m123.64,41.25h-.03s-2.04-10.51-18.01-8.4c-5.55.74-13.7,8.28-21.11,7.55-16.75-1.64-26.91,1.13-31.21,7.87-.55-.42-1.12-.64-1.71-.61-3.03.11-5.25,6.48-4.95,14.23.3,7.74,3,13.92,6.03,13.8.68-.03,1.32-.38,1.9-.99,4.76,9.92,14.34,16.46,29.94,14.98v.03c23.25-3.36,40.76-20.54,40.24-40.77-.07-2.64-.45-5.21-1.09-7.69Z"/>
      <path class="cls-6" d="m94.8,82.38c-5.09.33-15.14-3.81-13.5-14.42,1.64-10.61,13.69-12.22,17.7-12.48,4.01-.26,15.81-.18,14.17,10.42-1.64,10.61-13.28,16.15-18.37,16.47Z"/>
      <path class="cls-3" d="m98.82,58.25c2.21-.14,5.12,2.01,5.07,4.75-.05,2.74-6.42,3.05-6.42,3.05h-.18s-6.41.52-5.6-2.26c.81-2.79,4.45-5.36,6.66-5.5l.48-.03Z"/>
      <path class="cls-3" d="m95.15,77.48c-1.02,0-1.98-.18-2.87-.53-1.04-.42-1.93-1.04-2.65-1.86-.71-.81-1.23-1.79-1.52-2.89-.09-.33.11-.67.44-.76.33-.09.67.11.76.44.25.92.67,1.72,1.25,2.39.58.67,1.32,1.18,2.17,1.52.88.35,1.87.49,2.92.42,1.07-.07,2.14-.35,3.18-.84,1.02-.48,1.97-1.13,2.82-1.93.85-.8,1.57-1.72,2.12-2.73.17-.3.55-.41.85-.25.3.17.41.55.25.85-.62,1.12-1.41,2.14-2.36,3.04-.95.89-2.01,1.61-3.15,2.15-1.19.56-2.41.88-3.63.95-.2.01-.4.02-.59.02Z"/>
      <circle class="cls-3" cx="78.2" cy="53.15" r="1.97"/>
      <circle class="cls-3" cx="109.94" cy="47.28" r="1.97"/>
      <path class="cls-3" d="m53.98,52.94c-2.5.11-4.49,4.84-5.21,11.51-.09-.84-.16-1.71-.19-2.61-.2-6.08,1.24-11.08,3.22-11.17.84-.04,1.64.82,2.3,2.29-.04,0-.08-.01-.12-.01Z"/>
      <path class="cls-6" d="m72.04,54.1s-.03,0-.05,0c-.38-.03-.67-.36-.64-.73.05-.78.26-1.53.6-2.23.34-.7.81-1.32,1.4-1.84.59-.53,1.29-.94,2.06-1.21.77-.26,1.57-.37,2.37-.31.38.03.67.36.64.74-.03.38-.34.66-.74.64-.62-.05-1.23.04-1.83.24-.6.21-1.13.52-1.59.93-.45.4-.81.88-1.08,1.42-.27.54-.42,1.12-.46,1.72-.03.36-.33.64-.69.64Z"/>
      <path class="cls-6" d="m115.34,46.12c-.28,0-.54-.17-.65-.45-.22-.59-.54-1.12-.97-1.57-.44-.47-.94-.83-1.5-1.07-.55-.25-1.14-.38-1.74-.4-.6-.02-1.2.08-1.76.28-.36.13-.75-.05-.88-.41s.05-.75.41-.88c.72-.26,1.5-.39,2.28-.37.79.03,1.55.2,2.25.52.73.32,1.38.78,1.95,1.39.55.59.98,1.27,1.26,2.04.13.36-.05.75-.41.88-.08.03-.16.04-.24.04Z"/>
    </g>
    <g>
      <path class="cls-3" d="m62.12,99.59c-2.08-2.5-5.62-3.22-8.4-.99-2.77,2.21-3.24,7.55-.35,11.06,8.2,9.98,20.15,14.84,32.99,13.37,4.51-.52,7.9-4.67,7.45-8.18-.44-3.54-3.49-5.49-6.73-5.14-9.71,1.11-18.76-2.56-24.96-10.11Z"/>
      <path class="cls-3" d="m97.05,112.37c.87-.16,1.63-.71,1.66-1.36.03-.65-.86-1.31-1.99-1.28-3.04.06-6.05,1.09-8.55,3.01-.92.72-.81,2,.15,2.73.95.73,2.07.79,2.62.21,1.56-1.66,3.68-2.87,6.11-3.31Z"/>
      <path class="cls-3" d="m98.07,117.36c.88.08,1.76-.23,1.97-.84.21-.62-.47-1.5-1.55-1.78-2.94-.79-6.11-.63-9.04.52-1.09.43-1.33,1.7-.62,2.66.71.96,1.77,1.34,2.46.93,1.95-1.16,4.33-1.72,6.79-1.48Z"/>
      <path class="cls-3" d="m96.49,122.31c.74.48,1.67.61,2.14.14.46-.45.26-1.54-.57-2.3-2.25-2.04-5.15-3.34-8.29-3.65-1.17-.11-1.96.9-1.76,2.08.2,1.18.97,2,1.76,1.95,2.27-.15,4.64.43,6.72,1.78Z"/>
    </g>
    <path class="cls-3" d="m80.25,201.2c.89.25,1.86.1,2.2-.5.33-.6-.2-1.63-1.26-2.14-2.89-1.38-6.19-1.82-9.44-1.19-1.21.24-1.7,1.51-1.15,2.63.56,1.13,1.57,1.72,2.36,1.44,2.25-.83,4.81-.97,7.3-.24Z"/>
    <path class="cls-3" d="m78.87,206.36c.78.49,1.76.62,2.25.13.49-.48.26-1.62-.62-2.41-2.39-2.12-5.44-3.46-8.74-3.76-1.23-.1-2.05.97-1.83,2.21.22,1.24,1.03,2.09,1.87,2.03,2.39-.18,4.88.41,7.08,1.8Z"/>
    <path class="cls-3" d="m75.05,210.27c.47.79,1.29,1.35,1.94,1.14.65-.21.97-1.33.54-2.43-1.16-2.97-3.27-5.56-6.07-7.32-1.04-.66-2.27-.07-2.63,1.13-.37,1.21-.03,2.33.74,2.66,2.21.93,4.16,2.59,5.48,4.82Z"/>
    <path class="cls-3" d="m108.48,198.13c.88.25,1.87.1,2.2-.5.33-.6-.2-1.63-1.26-2.14-2.89-1.37-6.19-1.82-9.44-1.19-1.21.24-1.7,1.5-1.15,2.63.56,1.13,1.57,1.72,2.36,1.43,2.25-.84,4.81-.97,7.3-.24Z"/>
    <path class="cls-3" d="m107.1,203.29c.78.49,1.76.62,2.24.13.49-.48.27-1.62-.62-2.4-2.39-2.12-5.45-3.46-8.74-3.76-1.23-.11-2.05.97-1.83,2.2.22,1.24,1.03,2.09,1.87,2.03,2.39-.18,4.88.41,7.08,1.8Z"/>
    <path class="cls-3" d="m103.28,207.2c.47.79,1.29,1.35,1.94,1.14.65-.21.97-1.33.54-2.42-1.16-2.98-3.27-5.56-6.07-7.32-1.04-.66-2.27-.07-2.63,1.13-.37,1.2-.03,2.33.74,2.65,2.21.93,4.16,2.59,5.49,4.82Z"/>
    <path class="cls-3" d="m134.93,83.99c.75-.57,1.22-1.45.94-2.09-.28-.64-1.45-.83-2.51-.27-2.88,1.51-5.25,3.93-6.72,6.95-.54,1.13.19,2.3,1.44,2.54,1.26.23,2.36-.23,2.6-1.05.69-2.33,2.15-4.49,4.25-6.07Z"/>
    <path class="cls-3" d="m137.27,89.02c.92-.16,1.75-.73,1.78-1.43.04-.69-.91-1.4-2.11-1.39-3.25.03-6.46,1.1-9.15,3.13-1,.75-.88,2.13.13,2.91,1.01.79,2.2.87,2.79.26,1.67-1.76,3.95-3.02,6.55-3.48Z"/>
  </g>
  <g>
    <path class="cls-4" d="m274.3,44.13c2.41,1.78,3.85,4.16,4.31,7.13l12.15,78.85c.46,2.99-.2,5.68-1.96,8.1-1.77,2.41-4.16,3.85-7.13,4.31l-129.71,19.99c-2.99.46-5.69-.21-8.1-1.97-2.41-1.77-3.85-4.14-4.31-7.13l-12.15-78.85c-.46-2.98.19-5.68,1.97-8.1,1.77-2.41,4.15-3.85,7.13-4.31l129.7-19.98c2.99-.46,5.69.21,8.1,1.97Z"/>
    <rect class="cls-3" x="141.26" y="73.53" width="131.22" height="29.01" transform="translate(-10.99 32.53) rotate(-8.76)"/>
    <g>
      <path class="cls-1" d="m167.28,124.26c-.62-.44-1.28-.61-2.03-.49l-16.13,2.49c-.75.11-1.33.48-1.79,1.08-.43.61-.61,1.28-.49,2.02l1.39,8.96c.12.76.48,1.35,1.07,1.79.62.44,1.28.6,2.02.49l16.13-2.49c.75-.12,1.34-.47,1.79-1.07.43-.6.61-1.27.49-2.03l-1.39-8.96c-.11-.74-.48-1.34-1.06-1.79Z"/>
      <path class="cls-1" d="m210.29,117.64c-.61-.44-1.28-.61-2.03-.5l-30.46,4.7c-.75.11-1.34.48-1.79,1.08-.43.6-.59,1.28-.48,2.02l1.38,8.96c.12.76.48,1.35,1.08,1.79.61.44,1.28.6,2.03.49l30.46-4.69c.75-.12,1.33-.47,1.79-1.07.43-.6.59-1.27.49-2.03l-1.39-8.96c-.13-.73-.49-1.34-1.08-1.78Z"/>
    </g>
  </g>
  <path class="cls-3" d="m130.51,80.81c.56-.75.77-1.73.32-2.27-.45-.53-1.62-.4-2.49.43-2.34,2.25-3.95,5.23-4.53,8.55-.21,1.24.82,2.16,2.09,2.03,1.27-.12,2.2-.87,2.21-1.72.02-2.43.81-4.91,2.4-7.02Z"/>
</svg>