<?xml version="1.0" encoding="UTF-8"?>
<svg id="Layer_1" data-name="Layer 1" xmlns="http://www.w3.org/2000/svg" width="300" height="225" viewBox="0 0 300 225">
  <defs>
    <style>
      .cls-1 {
        fill: #fff;
      }

      .cls-2 {
        fill: #1e1e1e;
      }
    </style>
  </defs>
  <g>
    <g>
      <g>
        <path class="cls-1" d="m6.1,89.97c.19.11.31.19.44.27,3.71,2.16,7.41,4.32,11.11,6.49.3.18.51.17.8,0,8.73-5.05,17.47-10.09,26.21-15.14,1.03-.6,2.06-1.19,3.09-1.79-.01-.06-.02-.08-.03-.11-1.52-2.63-3.04-5.27-4.56-7.9-.36-.62-.91-1.03-1.61-1.24-.94-.29-1.78-.04-2.6.44-8.46,4.9-16.93,9.78-25.39,14.67-2.47,1.43-4.94,2.85-7.46,4.31Zm27.61,3.89c.09.15.17.27.24.4,1.13,1.95,2.26,3.9,3.38,5.86.14.25.3.33.57.33,2.34-.01,4.67,0,7.01-.02.38,0,.48.11.47.48-.02,1-.04,2.01.02,3.01.08,1.27.95,2.33,2.1,2.47.99.11,2,.02,3.01.02v-17.05c-1.07,0-2.13-.07-3.17.04-.43.04-.88.42-1.22.75-.56.54-.76,1.27-.76,2.05,0,.88,0,1.77,0,2.65,0,.14-.01.29-.02.45-1.58,0-3.11,0-4.64-.01-.12,0-.28-.14-.35-.26-.54-.9-1.05-1.81-1.58-2.71-.19-.34-.39-.68-.59-1.04,3.08-1.78,6.13-3.54,9.2-5.31-.59-1.02-1.15-1.99-1.72-2.97-.11.06-.19.09-.25.13-2.76,1.59-5.53,3.19-8.29,4.79-6.25,3.61-12.51,7.22-18.76,10.84-.23.13-.4.14-.63,0-1.07-.64-2.15-1.27-3.23-1.89-.19-.11-.39-.22-.58-.32-.01.02-.03.04-.04.05,1.25,2.17,2.51,4.34,3.78,6.54,5.35-3.09,10.69-6.17,16.05-9.27Zm-22.65,10.44c1.01-.58,1.98-1.15,2.98-1.72-1.73-3-3.44-5.96-5.15-8.92-1.02.59-1.99,1.15-2.98,1.72,1.73,2.99,3.43,5.94,5.15,8.92Z"/>
        <path class="cls-2" d="m6.1,89.97c2.52-1.46,4.99-2.88,7.46-4.31,8.47-4.89,16.93-9.77,25.39-14.67.83-.48,1.66-.73,2.6-.44.69.21,1.24.62,1.61,1.24,1.53,2.63,3.04,5.27,4.56,7.9.01.02.01.05.03.11-1.03.59-2.06,1.19-3.09,1.79-8.74,5.04-17.47,10.09-26.21,15.14-.3.17-.5.18-.8,0-3.7-2.17-7.41-4.33-11.11-6.49-.13-.07-.25-.15-.44-.27Z"/>
        <path class="cls-2" d="m33.7,93.86c-5.37,3.1-10.7,6.18-16.05,9.27-1.27-2.2-2.52-4.37-3.78-6.54.01-.02.03-.04.04-.05.19.11.39.21.58.32,1.08.63,2.16,1.25,3.23,1.89.23.14.4.13.63,0,6.25-3.62,12.51-7.23,18.76-10.84,2.76-1.6,5.53-3.19,8.29-4.79.07-.04.14-.07.25-.13.57.98,1.13,1.95,1.72,2.97-3.06,1.77-6.11,3.53-9.2,5.31.21.37.4.7.59,1.04.52.91,1.04,1.81,1.58,2.71.07.12.23.26.35.26,1.53.02,3.07.01,4.64.01,0-.17.02-.31.02-.45,0-.88,0-1.77,0-2.65,0-.77.19-1.51.76-2.05.34-.33.79-.7,1.22-.75,1.04-.11,2.1-.04,3.17-.04v17.05c-1.02,0-2.03.09-3.01-.02-1.16-.13-2.02-1.2-2.1-2.47-.06-1-.04-2.01-.02-3.01,0-.37-.09-.48-.47-.48-2.34.02-4.67,0-7.01.02-.28,0-.43-.08-.57-.33-1.12-1.96-2.25-3.91-3.38-5.86-.07-.13-.15-.25-.24-.4Z"/>
        <path class="cls-2" d="m11.05,104.3c-1.72-2.98-3.42-5.93-5.15-8.92.99-.57,1.96-1.13,2.98-1.72,1.71,2.97,3.42,5.92,5.15,8.92-1,.58-1.97,1.14-2.98,1.72Z"/>
      </g>
      <g>
        <path class="cls-1" d="m286.44,85.67c-8.47-4.89-16.93-9.77-25.39-14.67-.83-.48-1.66-.73-2.6-.44-.69.21-1.24.62-1.61,1.24-1.53,2.63-3.04,5.27-4.56,7.9-.01.02-.01.05-.03.11,1.03.59,2.06,1.19,3.09,1.79,8.74,5.04,17.47,10.09,26.21,15.14.3.17.5.18.8,0,3.7-2.17,7.41-4.33,11.11-6.49.13-.07.25-.15.44-.27-2.52-1.46-4.99-2.88-7.46-4.31Zm-4.09,17.46c1.27-2.2,2.52-4.37,3.78-6.54-.01-.02-.03-.04-.04-.05-.19.11-.39.21-.58.32-1.08.63-2.16,1.25-3.23,1.89-.23.14-.4.13-.63,0-6.25-3.62-12.51-7.23-18.76-10.84-2.76-1.6-5.53-3.19-8.29-4.79-.07-.04-.14-.07-.25-.13-.57.98-1.13,1.95-1.72,2.97,3.06,1.77,6.11,3.53,9.2,5.31-.21.37-.4.7-.59,1.04-.52.91-1.04,1.81-1.58,2.71-.07.12-.23.26-.35.26-1.53.02-3.07.01-4.64.01,0-.17-.02-.31-.02-.45,0-.88,0-1.77,0-2.65,0-.77-.19-1.51-.76-2.05-.34-.33-.79-.7-1.22-.75-1.04-.11-2.1-.04-3.17-.04,0,5.66,0,11.35,0,17.05,1.02,0,2.03.09,3.01-.02,1.16-.13,2.02-1.2,2.1-2.47.06-1,.04-2.01.02-3.01,0-.37.09-.48.47-.48,2.34.02,4.67,0,7.01.02.28,0,.43-.08.57-.33,1.12-1.96,2.25-3.91,3.38-5.86.07-.13.15-.25.24-.4,5.37,3.1,10.7,6.18,16.05,9.27Zm11.75-7.76c-.99-.57-1.96-1.13-2.98-1.72-1.71,2.97-3.42,5.92-5.15,8.92,1,.58,1.97,1.14,2.98,1.72,1.72-2.98,3.42-5.93,5.15-8.92Z"/>
        <path class="cls-2" d="m293.9,89.97c-2.52-1.46-4.99-2.88-7.46-4.31-8.47-4.89-16.93-9.77-25.39-14.67-.83-.48-1.66-.73-2.6-.44-.69.21-1.24.62-1.61,1.24-1.53,2.63-3.04,5.27-4.56,7.9-.01.02-.01.05-.03.11,1.03.59,2.06,1.19,3.09,1.79,8.74,5.04,17.47,10.09,26.21,15.14.3.17.5.18.8,0,3.7-2.17,7.41-4.33,11.11-6.49.13-.07.25-.15.44-.27Z"/>
        <path class="cls-2" d="m266.3,93.86c5.37,3.1,10.7,6.18,16.05,9.27,1.27-2.2,2.52-4.37,3.78-6.54-.01-.02-.03-.04-.04-.05-.19.11-.39.21-.58.32-1.08.63-2.16,1.25-3.23,1.89-.23.14-.4.13-.63,0-6.25-3.62-12.51-7.23-18.76-10.84-2.76-1.6-5.53-3.19-8.29-4.79-.07-.04-.14-.07-.25-.13-.57.98-1.13,1.95-1.72,2.97,3.06,1.77,6.11,3.53,9.2,5.31-.21.37-.4.7-.59,1.04-.52.91-1.04,1.81-1.58,2.71-.07.12-.23.26-.35.26-1.53.02-3.07.01-4.64.01,0-.17-.02-.31-.02-.45,0-.88,0-1.77,0-2.65,0-.77-.19-1.51-.76-2.05-.34-.33-.79-.7-1.22-.75-1.04-.11-2.1-.04-3.17-.04,0,5.66,0,11.35,0,17.05,1.02,0,2.03.09,3.01-.02,1.16-.13,2.02-1.2,2.1-2.47.06-1,.04-2.01.02-3.01,0-.37.09-.48.47-.48,2.34.02,4.67,0,7.01.02.28,0,.43-.08.57-.33,1.12-1.96,2.25-3.91,3.38-5.86.07-.13.15-.25.24-.4Z"/>
        <path class="cls-2" d="m288.95,104.3c1.72-2.98,3.42-5.93,5.15-8.92-.99-.57-1.96-1.13-2.98-1.72-1.71,2.97-3.42,5.92-5.15,8.92,1,.58,1.97,1.14,2.98,1.72Z"/>
      </g>
    </g>
    <g>
      <polyline class="cls-2" points="268.47 220.71 268.47 199.67 31.53 199.67 31.53 220.71"/>
      <rect class="cls-2" x="53.23" y="180.03" width="193.55" height="21.04"/>
      <rect class="cls-2" x="53.23" y="89.38" width="193.55" height="17.04"/>
      <rect class="cls-2" x="63.74" y="106.42" width="27.5" height="81.18"/>
      <rect class="cls-2" x="105.54" y="106.42" width="27.5" height="81.18"/>
      <rect class="cls-2" x="169.34" y="106.42" width="27.5" height="81.18"/>
      <rect class="cls-2" x="211.14" y="106.42" width="27.5" height="81.18"/>
      <polygon class="cls-2" points="58.05 97.6 149.98 5.66 242.18 97.87 58.05 97.6"/>
    </g>
  </g>
  <g>
    <path class="cls-2" d="m139.76,115.18c-.17,0-.33,0-.48,0-.09,0-.17,0-.26,0-.61-.05-1.02-.5-1.15-1.01-.02-.1-.04-.2-.04-.29,0-.28,0-.56,0-.84,0-.03,0-.05,0-.09.04,0,.07-.02.11-.02.06,0,.12,0,.18,0,8.59,0,17.19,0,25.78,0,.09,0,.18,0,.28,0,0,.04.02.06.02.09,0,.3,0,.6,0,.9-.02.56-.4,1.06-.93,1.21-.13.04-.27.05-.41.06-.26,0-.53,0-.8,0-.07,0-.13,0-.21,0,0,.07-.01.14-.02.2,0,.06-.01.12-.02.18-.33,4.5-3.41,8.35-7.69,9.71-.77.24-1.56.4-2.37.47-.71.06-1.42.06-2.12-.02-2.89-.33-5.29-1.59-7.2-3.78-1.25-1.43-2.05-3.08-2.45-4.93-.12-.54-.19-1.08-.22-1.63,0-.06-.01-.12-.02-.2Zm10.87,8.35c2.17,0,3.74-1.74,3.77-3.68.02-1.96-1.54-3.75-3.72-3.77-2.09-.02-3.74,1.64-3.77,3.68-.03,2.05,1.61,3.74,3.71,3.77Zm-4.98-.15c-.06-.05-.08-.07-.11-.09-.45-.36-.87-.74-1.26-1.16-.73-.76-1.36-1.59-1.84-2.54-.6-1.18-.89-2.43-.77-3.77,0-.02,0-.05,0-.07-.02,0-.04-.02-.05-.02-.24,0-.48,0-.72,0-.02,0-.05.02-.08.03.08,1.1.35,2.15.78,3.15.53,1.23,1.27,2.31,2.26,3.21.56.51,1.43,1.13,1.78,1.25Z"/>
    <path class="cls-2" d="m166.98,108.55s.01.05.01.08c0,.77,0,1.54,0,2.31,0,.02-.01.04-.02.06-.02,0-.05.01-.07.01-10.49,0-20.99,0-31.47,0-.07-.06-.05-.12-.05-.18,0-.43,0-.86,0-1.29,0-.26,0-.52,0-.78,0-.07,0-.13,0-.21.05-.01.08-.03.12-.03.06,0,.12,0,.18,0,10.34,0,20.69,0,31.03,0,.09,0,.18-.02.28.02Z"/>
    <path class="cls-2" d="m148.2,119.79c.01-.7.29-1.35.86-1.86.95-.85,2.37-.81,3.28.09,1.05,1.03,1.02,2.76-.07,3.75-1.06.96-2.7.8-3.56-.36-.34-.46-.51-.98-.51-1.62Zm2.91.01c-.36,0-.62.1-.83.3-.44.42-.51,1.12-.15,1.61.45.62,1.34.61,1.78,0,.3-.42.31-1,.01-1.42-.22-.31-.52-.48-.82-.49Z"/>
  </g>
</svg>