<?xml version="1.0" encoding="UTF-8"?>
<svg id="Layer_1" data-name="Layer 1" xmlns="http://www.w3.org/2000/svg" width="300" height="225" viewBox="0 0 300 225">
  <defs>
    <style>
      .cls-1 {
        fill: #bc8c04;
      }

      .cls-2 {
        fill: #966c05;
      }

      .cls-3 {
        fill: #dda905;
      }

      .cls-4 {
        fill: #ffcf15;
      }
    </style>
  </defs>
  <path class="cls-4" d="m156.06,42.45c1.73-4.58,8.88-23.7,8.88-23.7-2.39,6.34-5.49,14.57-9.03,23.96.04-.09.12-.17.15-.26Z"/>
  <path class="cls-4" d="m147.48,83.72l-1.65-14.3c-3.79,10.05-7.74,20.53-11.62,30.83l13.27-16.53Z"/>
  <g>
    <path class="cls-1" d="m152.66,197.89l-14.1-23.15,4.6-15.32-22.03-18.51,14.64-32.31,15.87-12.23s-.21-35.51-.32-36.11,13-34.48,13-34.48l-5.35-14.54-21.45-6.9-44.89,75.95-13.03,85.83,30.74,24.29,42.33,7.47Z"/>
    <path class="cls-2" d="m137.81,185.73l-8.91-14.63,3.67-13.64-21.2-19.63,14.94-31.28,14.01-14.33s4.55-34.01,4.43-34.6,12.94-34.32,12.94-34.32l-5.94-11.45-13.78-3.5-55.02,68.31-13.03,85.83,36.24,8.57,31.64,14.67Z"/>
    <path class="cls-1" d="m129.45,187.94l-14.1-23.15,6.84-7.82-21.14-19.93,18.38-35.32,13.15-14.37s-3.1-34.58-3.21-35.17,10.61-6.67,10.61-6.67l10.37-27.01-5.95-11.55-6.87-2.59-73.15,150.89,22.74,25.23,42.33,7.47Z"/>
    <path class="cls-3" d="m112.48,182.74c-12.23,11-24.42,15.81-34.34,12.07,0,0,35.26,13.29,40.85,15.4,9.92,3.74,22.11-1.06,34.34-12.06l-40.84-15.4h0Z"/>
    <path class="cls-4" d="m73.08,84.48c-19.76,52.43-17.5,101.82,5.06,110.33,0,0,9.47-25.11,20.19-53.55l-6.48-5.8,22.08-35.58c3.89-10.31,7.83-20.78,11.62-30.83l-2.03-17.62s10.08-4.58,12.09-9.08c3.54-9.39,6.64-17.62,9.03-23.96l-7.12-14.02c-21.45,4.56-47.98,36.45-64.44,80.12Z"/>
    <path class="cls-4" d="m112.48,182.74l-10.22-18.92,9.81-10.26-13.74-12.3c-10.72,28.44-20.19,53.55-20.19,53.55,9.92,3.74,22.11-1.06,34.34-12.07Z"/>
    <g>
      <path class="cls-1" d="m124.45,18.13l1.11,2.57-2.45,1.06,4.43,10.27-4.13,1.78-4.43-10.27-2.44,1.06-1.11-2.57,9.03-3.9Z"/>
      <path class="cls-1" d="m132.03,16.8l3.18.18c2.12.12,3.55.26,4.3.44.74.17,1.34.55,1.78,1.11.44.57.63,1.45.57,2.64-.06,1.09-.27,1.81-.62,2.16-.35.36-1.03.54-2.01.56.88.23,1.46.5,1.75.82.29.32.46.6.53.85.06.25.06.94,0,2.07l-.2,3.68-4.17-.23.26-4.64c.04-.75,0-1.21-.14-1.4-.14-.19-.51-.3-1.13-.33l-.35,6.29-4.49-.25.77-13.96Zm4.36,2.64l-.17,3.1c.51.03.86,0,1.07-.11.21-.1.33-.46.36-1.07l.04-.77c.02-.44-.06-.74-.25-.89-.19-.15-.54-.24-1.06-.27Z"/>
      <path class="cls-3" d="m123.56,17.57l1.11,2.57-2.45,1.06,4.43,10.27-4.13,1.78-4.43-10.27-2.44,1.06-1.11-2.57,9.03-3.9Z"/>
      <path class="cls-3" d="m131.76,15.81l3.18.18c2.12.12,3.55.26,4.3.44.74.17,1.34.55,1.78,1.11.44.57.63,1.45.57,2.64-.06,1.09-.27,1.81-.62,2.16-.35.36-1.03.54-2.01.56.88.23,1.46.5,1.75.82.29.32.46.6.53.85.06.25.06.94,0,2.07l-.2,3.68-4.17-.23.26-4.64c.04-.75,0-1.21-.14-1.4-.14-.19-.51-.3-1.13-.33l-.35,6.29-4.49-.25.77-13.96Zm4.36,2.64l-.17,3.1c.51.03.86,0,1.07-.11.21-.1.33-.46.36-1.07l.04-.77c.02-.44-.06-.74-.25-.89-.19-.15-.54-.24-1.06-.27Z"/>
    </g>
  </g>
  <g>
    <g>
      <path class="cls-3" d="m179.66,122.79c-13.14,28.5-30.46,51.4-47.01,64.27h0s39.63,18.28,39.63,18.28c16.54-12.87,33.86-35.76,47.01-64.27,23.46-50.88,24.74-100.31,2.84-110.4-2.79-1.29-39.64-18.28-39.64-18.28,21.89,10.1,20.62,59.53-2.84,110.4Z"/>
      <path class="cls-4" d="m153.81,74.59c4.23-9.17,8.29-17.97,11.95-25.92-2.33,4.35-12.71,8.2-12.71,8.2l.76,17.72Z"/>
      <path class="cls-4" d="m121.5,144.67c6.19-13.43,12.74-27.63,18.52-40.16l-24.57,33.91,6.05,6.25Z"/>
      <path class="cls-4" d="m176.49,25.42c3.74-8.12,6.01-13.03,6.01-13.03-3.66-1.69-7.76-2.07-12.11-1.46l6.1,14.5Z"/>
      <path class="cls-4" d="m165.94,48.43c-.04.08-.13.16-.17.25-3.67,7.95-7.72,16.75-11.95,25.92l.62,14.38-14.42,15.54c-5.78,12.53-12.33,26.73-18.52,40.16l12.83,13.25-10.52,9.53,8.84,19.6c16.54-12.86,33.86-35.76,47.01-64.27,23.46-50.88,24.74-100.31,2.84-110.4,0,0-2.27,4.91-6.01,13.03,0,0-8.5,18.56-10.55,23.01Z"/>
    </g>
    <g>
      <path class="cls-1" d="m186.04,36l-6.68,6.75c-.76.77-1.32,1.27-1.69,1.52-.37.25-.87.39-1.49.41-.63.03-1.27-.12-1.94-.44-.66-.32-1.33-.82-2.01-1.49-.75-.74-1.31-1.49-1.68-2.26-.37-.77-.54-1.45-.51-2.05s.2-1.1.5-1.51c.3-.41,1.01-1.18,2.14-2.32l5.92-5.98,3.25,3.22-7.5,7.58c-.44.44-.69.75-.75.93-.06.18,0,.36.18.54.21.2.41.27.6.19s.54-.37,1.04-.87l7.37-7.45,3.25,3.22Z"/>
      <path class="cls-1" d="m189.82,54.42l-1.44-4,.99-.36c.46-.17.74-.33.83-.47.09-.15.09-.34,0-.58-.09-.26-.25-.42-.47-.5-.22-.07-.5-.04-.85.08-.45.16-.76.36-.93.59-.17.22-.3.73-.38,1.51-.23,2.25-.54,3.73-.95,4.44-.41.71-1.27,1.3-2.58,1.78-.95.34-1.7.46-2.25.35-.55-.11-1.12-.51-1.71-1.19-.59-.68-1.08-1.55-1.46-2.59-.42-1.15-.59-2.2-.54-3.14.06-.94.31-1.64.77-2.09.45-.45,1.18-.85,2.18-1.22l.87-.32,1.44,4-1.63.59c-.5.18-.8.35-.91.52-.1.16-.1.39,0,.68.1.29.27.47.5.54.23.07.53.05.89-.08.79-.28,1.25-.6,1.4-.96.14-.36.31-1.18.49-2.45.19-1.28.35-2.14.48-2.58.13-.44.39-.86.76-1.25.37-.39.92-.72,1.63-.98,1.02-.37,1.83-.48,2.42-.33.59.15,1.15.54,1.68,1.17.53.63.98,1.45,1.35,2.47.4,1.12.6,2.12.59,3.02,0,.89-.19,1.55-.54,1.96-.35.42-1.06.82-2.12,1.2l-.53.19Z"/>
      <path class="cls-1" d="m195.05,67.82l-2.82.34-.33-2.7-11.29,1.36-.55-4.54,11.29-1.36-.32-2.69,2.82-.34,1.2,9.93Z"/>
      <path class="cls-3" d="m185.08,34.27l-6.68,6.75c-.76.77-1.32,1.27-1.69,1.52-.37.25-.87.39-1.49.41-.63.03-1.27-.12-1.94-.44-.66-.32-1.33-.82-2.01-1.49-.75-.74-1.31-1.49-1.68-2.26-.37-.77-.54-1.45-.51-2.05s.2-1.1.5-1.51c.3-.41,1.01-1.18,2.14-2.32l5.92-5.98,3.25,3.22-7.5,7.58c-.44.44-.69.75-.75.93-.06.18,0,.36.18.54.21.2.41.27.6.19s.54-.37,1.04-.87l7.37-7.45,3.25,3.22Z"/>
      <path class="cls-3" d="m188.86,52.68l-1.44-4,.99-.36c.46-.17.74-.33.83-.47.09-.15.09-.34,0-.58-.09-.26-.25-.42-.47-.5-.22-.07-.5-.04-.85.08-.45.16-.76.36-.93.59-.17.22-.3.73-.38,1.51-.23,2.25-.54,3.73-.95,4.44-.41.71-1.27,1.3-2.58,1.78-.95.34-1.7.46-2.25.35-.55-.11-1.12-.51-1.71-1.19-.59-.68-1.08-1.55-1.46-2.59-.42-1.15-.59-2.2-.54-3.14.06-.94.31-1.64.77-2.09.45-.45,1.18-.85,2.18-1.22l.87-.32,1.44,4-1.63.59c-.5.18-.8.35-.91.52-.1.16-.1.39,0,.68.1.29.27.47.5.54.23.07.53.05.89-.08.79-.28,1.25-.6,1.4-.96.14-.36.31-1.18.49-2.45.19-1.28.35-2.14.48-2.58.13-.44.39-.86.76-1.25.37-.39.92-.72,1.63-.98,1.02-.37,1.83-.48,2.42-.33.59.15,1.15.54,1.68,1.17.53.63.98,1.45,1.35,2.47.4,1.12.6,2.12.59,3.02,0,.89-.19,1.55-.54,1.96-.35.42-1.06.82-2.12,1.2l-.53.19Z"/>
      <path class="cls-3" d="m195.34,66.81l-2.82.34-.33-2.7-11.29,1.36-.55-4.54,11.29-1.36-.32-2.69,2.82-.34,1.2,9.93Z"/>
    </g>
  </g>
</svg>