<?xml version="1.0" encoding="UTF-8"?>
<svg id="Layer_1" data-name="Layer 1" xmlns="http://www.w3.org/2000/svg" width="300" height="225" viewBox="0 0 300 225">
  <defs>
    <style>
      .cls-1 {
        fill: #84cd29;
      }

      .cls-2 {
        fill: #fff;
      }

      .cls-3 {
        fill: #cbd8b6;
      }

      .cls-4, .cls-5 {
        isolation: isolate;
      }

      .cls-5 {
        opacity: .35;
      }

      .cls-6 {
        fill: #232323;
      }

      .cls-7 {
        opacity: .54;
      }

      .cls-8 {
        fill: #444;
      }

      .cls-9 {
        fill: #f3ffe1;
      }

      .cls-10 {
        fill: none;
      }
    </style>
  </defs>
  <rect class="cls-6" x="73.56" y="39.23" width="167.46" height="2.58"/>
  <rect class="cls-6" x="79.22" y="37.64" width="156.14" height="5.75"/>
  <rect class="cls-6" x="55.17" y="110.18" width="201.58" height="3.14"/>
  <rect class="cls-6" x="65.13" y="108.36" width="184.33" height="6.79"/>
  <g>
    <path class="cls-9" d="m96.68,13.44c-2.19,0-3.96,12.4-3.96,27.7,0,2.57.05,5.05.15,7.42h3.81V13.44Z"/>
    <path class="cls-9" d="m221.71,48.55c.09-2.36.14-4.85.14-7.42,0-15.3-1.77-27.7-3.96-27.7v35.11h3.81Z"/>
    <path class="cls-9" d="m100.64,41.13c0,2.57-.05,5.05-.14,7.42h113.59c-.09-2.36-.15-4.85-.15-7.42,0-15.3,1.77-27.7,3.96-27.7h-121.22c2.19,0,3.96,12.4,3.96,27.7Z"/>
    <path class="cls-9" d="m100.5,48.55c.09-2.36.14-4.85.14-7.42,0-15.3-1.77-27.7-3.96-27.7v35.11h3.81Z"/>
    <path class="cls-9" d="m213.94,41.13c0,2.57.05,5.05.15,7.42h3.81V13.44c-2.19,0-3.96,12.4-3.96,27.7Z"/>
    <path class="cls-3" d="m92.87,48.55c.46,11.7,1.99,20.28,3.81,20.28v-20.28h-3.81Z"/>
    <path class="cls-3" d="m221.71,48.55h-3.81v20.28c1.82,0,3.35-8.59,3.81-20.28Z"/>
    <path class="cls-3" d="m214.09,48.55h-113.59c-.46,11.7-2,20.28-3.81,20.28h121.22c-1.82,0-3.35-8.59-3.81-20.28Z"/>
    <path class="cls-9" d="m218.57,68.83h-122.56c-.5,12.62-2.15,21.88-4.12,21.88h130.79c-1.96,0-3.62-9.27-4.12-21.88Z"/>
    <path class="cls-3" d="m100.5,48.55h-3.81v20.28c1.82,0,3.35-8.59,3.81-20.28Z"/>
    <path class="cls-3" d="m214.09,48.55c.46,11.7,1.99,20.28,3.81,20.28v-20.28h-3.81Z"/>
  </g>
  <rect class="cls-6" x="72.51" y="90.72" width="169.56" height="64.89" rx="5.22" ry="5.22"/>
  <g>
    <rect class="cls-6" x="97.76" y="78.04" width="57.11" height="47.65" rx="5.22" ry="5.22"/>
    <rect class="cls-6" x="128.74" y="68.65" width="57.11" height="47.65" rx="5.22" ry="5.22"/>
    <rect class="cls-6" x="159.72" y="78.47" width="57.11" height="47.65" rx="5.22" ry="5.22"/>
  </g>
  <rect class="cls-8" x="86.48" y="124.69" width="141.62" height="25.57" rx="5.22" ry="5.22"/>
  <g>
    <g>
      <g class="cls-5">
        <path class="cls-6" d="m111.93,149.29l.02-2.4c-.75-.22-1.29-.55-1.64-.99-.35-.44-.52-.97-.51-1.59,0-.63.21-1.15.61-1.57s.93-.66,1.59-.72v-.57s.84,0,.84,0v.57c.6.08,1.08.29,1.44.64.36.35.58.81.68,1.38l-1.45.18c-.08-.45-.31-.76-.68-.92l-.02,2.24c.92.26,1.54.59,1.87.99.33.4.49.91.48,1.53,0,.69-.22,1.27-.65,1.74-.42.47-1.01.75-1.76.85v1.07s-.84,0-.84,0v-1.04c-.65-.09-1.19-.34-1.59-.76-.41-.42-.67-1-.77-1.76l1.5-.15c.06.31.17.57.34.79.17.22.35.39.56.49Zm.06-6.02c-.23.07-.41.2-.54.38s-.2.38-.21.61c0,.2.06.39.18.57.12.18.3.32.55.43l.02-1.98Zm.77,6.11c.29-.05.52-.18.7-.39.18-.21.27-.46.28-.75,0-.26-.07-.48-.22-.67-.15-.19-.4-.33-.74-.43l-.02,2.24Z"/>
      </g>
      <g class="cls-5">
        <path class="cls-6" d="m133.65,133.1l-41.11-.39c-1.25,0-2.31.96-2.31,2.31l-.19,22.82c0,1.25.96,2.31,2.31,2.31l41.11.39c1.25,0,2.31-.96,2.31-2.31l.19-22.82c0-1.25-1.06-2.31-2.31-2.31Z"/>
      </g>
      <g>
        <g>
          <path class="cls-1" d="m132.63,132.08l-41.11-.39c-1.25,0-2.31.96-2.31,2.31l-.19,22.82c0,1.25.96,2.31,2.31,2.31l41.11.39c1.25,0,2.31-.96,2.31-2.31l.19-22.82c0-1.25-1.06-2.31-2.31-2.31Z"/>
          <path class="cls-2" d="m92.39,155.67v-4.52c2.5,0,4.52,2.12,4.52,4.62l-4.52-.1Z"/>
          <path class="cls-2" d="m92.59,139.69v-4.52h4.52c.1,2.6-2.02,4.62-4.52,4.52Z"/>
          <path class="cls-2" d="m131.28,156.05h-4.52c0-2.5,2.12-4.52,4.62-4.52l-.1,4.52Z"/>
          <path class="cls-2" d="m131.48,140.07c-2.5,0-4.52-2.12-4.52-4.62h4.62l-.1,4.62Z"/>
          <path class="cls-2" d="m111.84,153.65c-8.95-.1-16.17-3.75-16.17-8.18s7.32-7.89,16.27-7.8c8.95.1,16.17,3.75,16.17,8.18s-7.32,7.89-16.27,7.8Z"/>
        </g>
        <rect class="cls-10" x="106.78" y="129.38" width="10.3" height="32.64" transform="translate(-34.84 256.21) rotate(-89.44)"/>
        <g class="cls-4">
          <path class="cls-1" d="m111.42,148.27l.02-2.4c-.75-.22-1.29-.55-1.64-.99s-.52-.97-.51-1.59c0-.63.21-1.15.61-1.57.4-.42.93-.66,1.59-.72v-.57s.84,0,.84,0v.57c.6.08,1.08.29,1.44.64s.58.81.68,1.38l-1.45.18c-.08-.45-.31-.76-.68-.92l-.02,2.24c.92.26,1.54.59,1.87.98s.49.91.48,1.53c0,.69-.22,1.27-.65,1.74-.42.47-1.01.75-1.76.85v1.07s-.84,0-.84,0v-1.04c-.65-.09-1.19-.34-1.59-.76-.41-.42-.67-1-.77-1.76l1.5-.15c.06.31.17.57.34.79.17.22.35.39.56.49Zm.06-6.02c-.23.07-.41.2-.54.39-.14.18-.2.38-.21.61,0,.2.06.39.18.57.12.18.3.32.55.43l.02-1.98Zm.77,6.11c.29-.05.52-.18.7-.39s.27-.46.28-.75c0-.26-.07-.48-.22-.66-.15-.19-.4-.33-.74-.43l-.02,2.24Z"/>
        </g>
      </g>
    </g>
    <g>
      <g class="cls-5">
        <path class="cls-6" d="m157.03,149.29l.02-2.4c-.75-.22-1.29-.55-1.64-.99s-.52-.97-.51-1.59c0-.63.21-1.15.61-1.57.4-.42.93-.66,1.59-.72v-.57s.84,0,.84,0v.57c.6.08,1.08.29,1.44.64s.58.81.68,1.38l-1.45.18c-.08-.45-.31-.76-.68-.92l-.02,2.24c.92.26,1.54.59,1.87.98s.49.91.48,1.53c0,.69-.22,1.27-.65,1.74-.42.47-1.01.75-1.76.85v1.07s-.84,0-.84,0v-1.04c-.65-.09-1.19-.34-1.59-.76-.41-.42-.67-1-.77-1.76l1.5-.15c.06.31.17.57.34.79.17.22.35.39.56.49Zm.06-6.02c-.23.07-.41.2-.54.38-.14.18-.2.38-.21.61,0,.2.06.39.18.57.12.18.3.32.55.43l.02-1.98Zm.77,6.11c.29-.05.52-.18.7-.39.18-.21.27-.46.28-.75,0-.26-.07-.48-.22-.66-.15-.19-.4-.33-.74-.43l-.02,2.24Z"/>
      </g>
      <g class="cls-5">
        <path class="cls-6" d="m178.75,133.1l-41.11-.39c-1.25,0-2.31.96-2.31,2.31l-.19,22.82c0,1.25.96,2.31,2.31,2.31l41.11.39c1.25,0,2.31-.96,2.31-2.31l.19-22.82c0-1.25-1.06-2.31-2.31-2.31Z"/>
      </g>
      <g>
        <g>
          <path class="cls-1" d="m177.73,132.08l-41.11-.39c-1.25,0-2.31.96-2.31,2.31l-.19,22.82c0,1.25.96,2.31,2.31,2.31l41.11.39c1.25,0,2.31-.96,2.31-2.31l.19-22.82c0-1.25-1.06-2.31-2.31-2.31Z"/>
          <path class="cls-2" d="m137.49,155.67v-4.52c2.5,0,4.52,2.12,4.52,4.62l-4.52-.1Z"/>
          <path class="cls-2" d="m137.69,139.69v-4.52h4.52c.1,2.6-2.02,4.62-4.52,4.52Z"/>
          <path class="cls-2" d="m176.38,156.05h-4.52c0-2.5,2.12-4.52,4.62-4.52l-.1,4.52Z"/>
          <path class="cls-2" d="m176.58,140.07c-2.5,0-4.52-2.12-4.52-4.62h4.62l-.1,4.62Z"/>
          <path class="cls-2" d="m156.94,153.65c-8.95-.1-16.17-3.75-16.17-8.18s7.32-7.89,16.27-7.8c8.95.1,16.17,3.75,16.17,8.18s-7.32,7.89-16.27,7.8Z"/>
        </g>
        <rect class="cls-10" x="151.89" y="129.38" width="10.3" height="32.64" transform="translate(9.82 301.31) rotate(-89.44)"/>
        <g class="cls-4">
          <path class="cls-1" d="m156.52,148.27l.02-2.4c-.75-.22-1.29-.55-1.64-.99-.35-.44-.52-.97-.51-1.59,0-.63.21-1.15.61-1.57.4-.42.93-.66,1.59-.72v-.57s.84,0,.84,0v.57c.6.08,1.08.29,1.44.64s.58.81.68,1.38l-1.45.18c-.08-.45-.31-.76-.68-.92l-.02,2.24c.92.26,1.54.59,1.87.98.33.4.49.91.48,1.53,0,.69-.22,1.27-.65,1.74-.42.47-1.01.75-1.75.85v1.07s-.84,0-.84,0v-1.04c-.65-.09-1.19-.34-1.59-.76-.41-.42-.67-1-.77-1.76l1.5-.15c.06.31.17.57.34.79.17.22.35.39.56.49Zm.06-6.02c-.23.07-.41.2-.54.39-.14.18-.2.38-.21.61,0,.2.06.39.18.57.12.18.3.32.55.43l.02-1.98Zm.77,6.11c.29-.05.52-.18.7-.39.18-.21.27-.46.28-.75,0-.26-.07-.48-.22-.66s-.4-.33-.74-.43l-.02,2.24Z"/>
        </g>
      </g>
    </g>
    <g>
      <g class="cls-5">
        <path class="cls-6" d="m202.13,149.29l.02-2.4c-.75-.22-1.29-.55-1.64-.99-.35-.44-.52-.97-.51-1.59,0-.63.21-1.15.61-1.57.4-.42.93-.66,1.59-.72v-.57s.84,0,.84,0v.57c.6.08,1.08.29,1.44.64.36.35.58.81.68,1.38l-1.45.18c-.08-.45-.31-.76-.68-.92l-.02,2.24c.92.26,1.54.59,1.87.98.33.4.49.91.48,1.53,0,.69-.22,1.27-.65,1.74-.42.47-1.01.75-1.76.85v1.07s-.84,0-.84,0v-1.04c-.65-.09-1.19-.34-1.59-.76-.41-.42-.67-1-.77-1.76l1.5-.15c.06.31.17.57.34.79.17.22.35.39.56.49Zm.06-6.02c-.23.07-.41.2-.54.38-.14.18-.2.38-.21.61,0,.2.06.39.18.57.12.18.3.32.55.43l.02-1.98Zm.77,6.11c.29-.05.52-.18.7-.39.18-.21.27-.46.28-.75,0-.26-.07-.48-.22-.66s-.4-.33-.74-.43l-.02,2.24Z"/>
      </g>
      <g class="cls-5">
        <path class="cls-6" d="m223.85,133.1l-41.11-.39c-1.25,0-2.31.96-2.31,2.31l-.19,22.82c0,1.25.96,2.31,2.31,2.31l41.11.39c1.25,0,2.31-.96,2.31-2.31l.19-22.82c0-1.25-1.06-2.31-2.31-2.31Z"/>
      </g>
      <g>
        <g>
          <path class="cls-1" d="m222.83,132.08l-41.11-.39c-1.25,0-2.31.96-2.31,2.31l-.19,22.82c0,1.25.96,2.31,2.31,2.31l41.11.39c1.25,0,2.31-.96,2.31-2.31l.19-22.82c0-1.25-1.06-2.31-2.31-2.31Z"/>
          <path class="cls-2" d="m182.59,155.67v-4.52c2.5,0,4.52,2.12,4.52,4.62l-4.52-.1Z"/>
          <path class="cls-2" d="m182.79,139.69v-4.52h4.52c.1,2.6-2.02,4.62-4.52,4.52Z"/>
          <path class="cls-2" d="m221.49,156.05h-4.52c0-2.5,2.12-4.52,4.62-4.52l-.1,4.52Z"/>
          <path class="cls-2" d="m221.68,140.07c-2.5,0-4.52-2.12-4.52-4.62h4.62l-.1,4.62Z"/>
          <path class="cls-2" d="m202.04,153.65c-8.95-.1-16.17-3.75-16.17-8.18s7.32-7.89,16.27-7.8c8.95.1,16.17,3.75,16.17,8.18s-7.32,7.89-16.27,7.8Z"/>
        </g>
        <rect class="cls-10" x="196.99" y="129.38" width="10.3" height="32.64" transform="translate(54.49 346.41) rotate(-89.44)"/>
        <g class="cls-4">
          <path class="cls-1" d="m201.62,148.27l.02-2.4c-.75-.22-1.29-.55-1.64-.99-.35-.44-.52-.97-.51-1.58,0-.63.21-1.15.61-1.57.4-.42.93-.66,1.59-.72v-.57s.84,0,.84,0v.57c.6.08,1.08.29,1.44.64.36.35.58.81.68,1.38l-1.45.18c-.08-.45-.31-.76-.68-.92l-.02,2.24c.92.26,1.54.59,1.87.98.33.4.49.91.48,1.53,0,.69-.22,1.27-.65,1.74s-1.01.76-1.76.85v1.07s-.84,0-.84,0v-1.04c-.65-.09-1.19-.34-1.59-.76-.41-.42-.67-1-.77-1.76l1.5-.15c.06.31.17.57.34.79.17.22.35.39.56.49Zm.06-6.02c-.23.07-.41.2-.54.39-.14.18-.2.38-.21.61,0,.2.06.39.18.57.12.18.3.32.55.43l.02-1.98Zm.77,6.11c.29-.05.52-.18.7-.39s.27-.46.28-.75c0-.26-.07-.48-.22-.66-.15-.19-.4-.33-.74-.43l-.02,2.24Z"/>
        </g>
      </g>
    </g>
    <g>
      <g class="cls-5">
        <path class="cls-6" d="m111.66,174.64l.02-2.4c-.75-.22-1.29-.55-1.64-.99-.35-.44-.52-.97-.51-1.59,0-.63.21-1.15.61-1.57s.93-.66,1.59-.72v-.57s.84,0,.84,0v.57c.6.08,1.08.29,1.44.64.36.35.58.81.68,1.38l-1.45.18c-.08-.45-.31-.76-.68-.92l-.02,2.24c.92.26,1.54.59,1.87.99.33.4.49.91.48,1.53,0,.69-.22,1.27-.65,1.74-.42.47-1.01.75-1.76.85v1.07s-.84,0-.84,0v-1.04c-.65-.09-1.19-.34-1.59-.76-.41-.42-.67-1-.77-1.76l1.5-.15c.06.31.17.57.34.79.17.22.35.39.56.49Zm.06-6.02c-.23.07-.41.2-.54.38s-.2.38-.21.61c0,.2.06.39.18.57.12.18.3.32.55.43l.02-1.98Zm.77,6.11c.29-.05.52-.18.7-.39.18-.21.27-.46.28-.75,0-.26-.07-.48-.22-.67-.15-.19-.4-.33-.74-.43l-.02,2.24Z"/>
      </g>
      <g class="cls-5">
        <path class="cls-6" d="m133.38,158.46l-41.11-.39c-1.25,0-2.31.96-2.31,2.31l-.19,22.82c0,1.25.96,2.31,2.31,2.31l41.11.39c1.25,0,2.31-.96,2.31-2.31l.19-22.82c0-1.25-1.06-2.31-2.31-2.31Z"/>
      </g>
      <g>
        <g>
          <path class="cls-1" d="m132.36,157.44l-41.11-.39c-1.25,0-2.31.96-2.31,2.31l-.19,22.82c0,1.25.96,2.31,2.31,2.31l41.11.39c1.25,0,2.31-.96,2.31-2.31l.19-22.82c0-1.25-1.06-2.31-2.31-2.31Z"/>
          <path class="cls-2" d="m92.12,181.03v-4.52c2.5,0,4.52,2.12,4.52,4.62l-4.52-.1Z"/>
          <path class="cls-2" d="m92.31,165.05v-4.52h4.52c.1,2.6-2.02,4.62-4.52,4.52Z"/>
          <path class="cls-2" d="m131.01,181.41h-4.52c0-2.5,2.12-4.52,4.62-4.52l-.1,4.52Z"/>
          <path class="cls-2" d="m131.21,165.43c-2.5,0-4.52-2.12-4.52-4.62h4.62l-.1,4.62Z"/>
          <path class="cls-2" d="m111.57,179.01c-8.95-.1-16.17-3.75-16.17-8.18s7.32-7.89,16.27-7.8c8.95.1,16.17,3.75,16.17,8.18s-7.32,7.89-16.27,7.8Z"/>
        </g>
        <rect class="cls-10" x="106.51" y="154.74" width="10.3" height="32.64" transform="translate(-60.46 281.05) rotate(-89.44)"/>
        <g class="cls-4">
          <path class="cls-1" d="m111.15,173.62l.02-2.4c-.75-.22-1.29-.55-1.64-.99s-.52-.97-.51-1.59c0-.63.21-1.15.61-1.57.4-.42.93-.66,1.59-.72v-.57s.84,0,.84,0v.57c.6.08,1.08.29,1.44.64s.58.81.68,1.38l-1.45.18c-.08-.45-.31-.76-.68-.92l-.02,2.24c.92.26,1.54.59,1.87.98s.49.91.48,1.53c0,.69-.22,1.27-.65,1.74-.42.47-1.01.75-1.76.85v1.07s-.84,0-.84,0v-1.04c-.65-.09-1.19-.34-1.59-.76-.41-.42-.67-1-.77-1.76l1.5-.15c.06.31.17.57.34.79.17.22.35.39.56.49Zm.06-6.02c-.23.07-.41.2-.54.39-.14.18-.2.38-.21.61,0,.2.06.39.18.57.12.18.3.32.55.43l.02-1.98Zm.77,6.11c.29-.05.52-.18.7-.39s.27-.46.28-.75c0-.26-.07-.48-.22-.66-.15-.19-.4-.33-.74-.43l-.02,2.24Z"/>
        </g>
      </g>
    </g>
    <g>
      <g class="cls-5">
        <path class="cls-6" d="m156.76,174.64l.02-2.4c-.75-.22-1.29-.55-1.64-.99s-.52-.97-.51-1.59c0-.63.21-1.15.61-1.57.4-.42.93-.66,1.59-.72v-.57s.84,0,.84,0v.57c.6.08,1.08.29,1.44.64s.58.81.68,1.38l-1.45.18c-.08-.45-.31-.76-.68-.92l-.02,2.24c.92.26,1.54.59,1.87.98s.49.91.48,1.53c0,.69-.22,1.27-.65,1.74-.42.47-1.01.75-1.76.85v1.07s-.84,0-.84,0v-1.04c-.65-.09-1.19-.34-1.59-.76-.41-.42-.67-1-.77-1.76l1.5-.15c.06.31.17.57.34.79.17.22.35.39.56.49Zm.06-6.02c-.23.07-.41.2-.54.38-.14.18-.2.38-.21.61,0,.2.06.39.18.57.12.18.3.32.55.43l.02-1.98Zm.77,6.11c.29-.05.52-.18.7-.39.18-.21.27-.46.28-.75,0-.26-.07-.48-.22-.66-.15-.19-.4-.33-.74-.43l-.02,2.24Z"/>
      </g>
      <g class="cls-5">
        <path class="cls-6" d="m178.48,158.46l-41.11-.39c-1.25,0-2.31.96-2.31,2.31l-.19,22.82c0,1.25.96,2.31,2.31,2.31l41.11.39c1.25,0,2.31-.96,2.31-2.31l.19-22.82c0-1.25-1.06-2.31-2.31-2.31Z"/>
      </g>
      <g>
        <g>
          <path class="cls-1" d="m177.46,157.44l-41.11-.39c-1.25,0-2.31.96-2.31,2.31l-.19,22.82c0,1.25.96,2.31,2.31,2.31l41.11.39c1.25,0,2.31-.96,2.31-2.31l.19-22.82c0-1.25-1.06-2.31-2.31-2.31Z"/>
          <path class="cls-2" d="m137.22,181.03v-4.52c2.5,0,4.52,2.12,4.52,4.62l-4.52-.1Z"/>
          <path class="cls-2" d="m137.42,165.05v-4.52h4.52c.1,2.6-2.02,4.62-4.52,4.52Z"/>
          <path class="cls-2" d="m176.11,181.41h-4.52c0-2.5,2.12-4.52,4.62-4.52l-.1,4.52Z"/>
          <path class="cls-2" d="m176.31,165.43c-2.5,0-4.52-2.12-4.52-4.62h4.62l-.1,4.62Z"/>
          <path class="cls-2" d="m156.67,179.01c-8.95-.1-16.17-3.75-16.17-8.18s7.32-7.89,16.27-7.8c8.95.1,16.17,3.75,16.17,8.18s-7.32,7.89-16.27,7.8Z"/>
        </g>
        <rect class="cls-10" x="151.61" y="154.74" width="10.3" height="32.64" transform="translate(-15.8 326.15) rotate(-89.44)"/>
        <g class="cls-4">
          <path class="cls-1" d="m156.25,173.62l.02-2.4c-.75-.22-1.29-.55-1.64-.99-.35-.44-.52-.97-.51-1.59,0-.63.21-1.15.61-1.57.4-.42.93-.66,1.59-.72v-.57s.84,0,.84,0v.57c.6.08,1.08.29,1.44.64s.58.81.68,1.38l-1.45.18c-.08-.45-.31-.76-.68-.92l-.02,2.24c.92.26,1.54.59,1.87.98.33.4.49.91.48,1.53,0,.69-.22,1.27-.65,1.74-.42.47-1.01.75-1.75.85v1.07s-.84,0-.84,0v-1.04c-.65-.09-1.19-.34-1.59-.76-.41-.42-.67-1-.77-1.76l1.5-.15c.06.31.17.57.34.79.17.22.35.39.56.49Zm.06-6.02c-.23.07-.41.2-.54.39-.14.18-.2.38-.21.61,0,.2.06.39.18.57.12.18.3.32.55.43l.02-1.98Zm.77,6.11c.29-.05.52-.18.7-.39.18-.21.27-.46.28-.75,0-.26-.07-.48-.22-.66s-.4-.33-.74-.43l-.02,2.24Z"/>
        </g>
      </g>
    </g>
    <g>
      <g class="cls-5">
        <path class="cls-6" d="m201.19,175.31l.02-2.4c-.75-.22-1.29-.55-1.64-.99-.35-.44-.52-.97-.51-1.59,0-.63.21-1.15.61-1.57.4-.42.93-.66,1.59-.72v-.57s.84,0,.84,0v.57c.6.08,1.08.29,1.44.64.36.35.58.81.68,1.38l-1.45.18c-.08-.45-.31-.76-.68-.92l-.02,2.24c.92.26,1.54.59,1.87.98.33.4.49.91.48,1.53,0,.69-.22,1.27-.65,1.74-.42.47-1.01.75-1.76.85v1.07s-.84,0-.84,0v-1.04c-.65-.09-1.19-.34-1.59-.76-.41-.42-.67-1-.77-1.76l1.5-.15c.06.31.17.57.34.79.17.22.35.39.56.49Zm.06-6.02c-.23.07-.41.2-.54.38-.14.18-.2.38-.21.61,0,.2.06.39.18.57.12.18.3.32.55.43l.02-1.98Zm.77,6.11c.29-.05.52-.18.7-.39.18-.21.27-.46.28-.75,0-.26-.07-.48-.22-.66s-.4-.33-.74-.43l-.02,2.24Z"/>
      </g>
      <g class="cls-5">
        <path class="cls-6" d="m222.91,159.13l-41.11-.39c-1.25,0-2.31.96-2.31,2.31l-.19,22.82c0,1.25.96,2.31,2.31,2.31l41.11.39c1.25,0,2.31-.96,2.31-2.31l.19-22.82c0-1.25-1.06-2.31-2.31-2.31Z"/>
      </g>
      <g>
        <g>
          <path class="cls-1" d="m221.89,158.11l-41.11-.39c-1.25,0-2.31.96-2.31,2.31l-.19,22.82c0,1.25.96,2.31,2.31,2.31l41.11.39c1.25,0,2.31-.96,2.31-2.31l.19-22.82c0-1.25-1.06-2.31-2.31-2.31Z"/>
          <path class="cls-2" d="m181.65,181.7v-4.52c2.5,0,4.52,2.12,4.52,4.62l-4.52-.1Z"/>
          <path class="cls-2" d="m181.85,165.72v-4.52h4.52c.1,2.6-2.02,4.62-4.52,4.52Z"/>
          <path class="cls-2" d="m220.54,182.08h-4.52c0-2.5,2.12-4.52,4.62-4.52l-.1,4.52Z"/>
          <path class="cls-2" d="m220.74,166.1c-2.5,0-4.52-2.12-4.52-4.62h4.62l-.1,4.62Z"/>
          <path class="cls-2" d="m201.1,179.68c-8.95-.1-16.17-3.75-16.17-8.18s7.32-7.89,16.27-7.8c8.95.1,16.17,3.75,16.17,8.18s-7.32,7.89-16.27,7.8Z"/>
        </g>
        <rect class="cls-10" x="196.04" y="155.41" width="10.3" height="32.64" transform="translate(27.53 371.24) rotate(-89.44)"/>
        <g class="cls-4">
          <path class="cls-1" d="m200.68,174.3l.02-2.4c-.75-.22-1.29-.55-1.64-.99-.35-.44-.52-.97-.51-1.58,0-.63.21-1.15.61-1.57.4-.42.93-.66,1.59-.72v-.57s.84,0,.84,0v.57c.6.08,1.08.29,1.44.64.36.35.58.81.68,1.38l-1.45.18c-.08-.45-.31-.76-.68-.92l-.02,2.24c.92.26,1.54.59,1.87.98.33.4.49.91.48,1.53,0,.69-.22,1.27-.65,1.74s-1.01.76-1.76.85v1.07s-.84,0-.84,0v-1.04c-.65-.09-1.19-.34-1.59-.76-.41-.42-.67-1-.77-1.76l1.5-.15c.06.31.17.57.34.79.17.22.35.39.56.49Zm.06-6.02c-.23.07-.41.2-.54.39-.14.18-.2.38-.21.61,0,.2.06.39.18.57.12.18.3.32.55.43l.02-1.98Zm.77,6.11c.29-.05.52-.18.7-.39s.27-.46.28-.75c0-.26-.07-.48-.22-.66-.15-.19-.4-.33-.74-.43l-.02,2.24Z"/>
        </g>
      </g>
    </g>
    <g>
      <g class="cls-5">
        <path class="cls-6" d="m111.32,200.93l.02-2.4c-.75-.22-1.29-.55-1.64-.99-.35-.44-.52-.97-.51-1.59,0-.63.21-1.15.61-1.57s.93-.66,1.59-.72v-.57s.84,0,.84,0v.57c.6.08,1.08.29,1.44.64.36.35.58.81.68,1.38l-1.45.18c-.08-.45-.31-.76-.68-.92l-.02,2.24c.92.26,1.54.59,1.87.99.33.4.49.91.48,1.53,0,.69-.22,1.27-.65,1.74-.42.47-1.01.75-1.76.85v1.07s-.84,0-.84,0v-1.04c-.65-.09-1.19-.34-1.59-.76-.41-.42-.67-1-.77-1.76l1.5-.15c.06.31.17.57.34.79.17.22.35.39.56.49Zm.06-6.02c-.23.07-.41.2-.54.38s-.2.38-.21.61c0,.2.06.39.18.57.12.18.3.32.55.43l.02-1.98Zm.77,6.11c.29-.05.52-.18.7-.39.18-.21.27-.46.28-.75,0-.26-.07-.48-.22-.67-.15-.19-.4-.33-.74-.43l-.02,2.24Z"/>
      </g>
      <g class="cls-5">
        <path class="cls-6" d="m133.05,184.75l-41.11-.39c-1.25,0-2.31.96-2.31,2.31l-.19,22.82c0,1.25.96,2.31,2.31,2.31l41.11.39c1.25,0,2.31-.96,2.31-2.31l.19-22.82c0-1.25-1.06-2.31-2.31-2.31Z"/>
      </g>
      <g>
        <g>
          <path class="cls-1" d="m132.03,183.73l-41.11-.39c-1.25,0-2.31.96-2.31,2.31l-.19,22.82c0,1.25.96,2.31,2.31,2.31l41.11.39c1.25,0,2.31-.96,2.31-2.31l.19-22.82c0-1.25-1.06-2.31-2.31-2.31Z"/>
          <path class="cls-2" d="m91.79,207.32v-4.52c2.5,0,4.52,2.12,4.52,4.62l-4.52-.1Z"/>
          <path class="cls-2" d="m91.98,191.34v-4.52h4.52c.1,2.6-2.02,4.62-4.52,4.52Z"/>
          <path class="cls-2" d="m130.68,207.7h-4.52c0-2.5,2.12-4.52,4.62-4.52l-.1,4.52Z"/>
          <path class="cls-2" d="m130.87,191.72c-2.5,0-4.52-2.12-4.52-4.62h4.62l-.1,4.62Z"/>
          <path class="cls-2" d="m111.23,205.29c-8.95-.1-16.17-3.75-16.17-8.18s7.32-7.89,16.27-7.8c8.95.1,16.17,3.75,16.17,8.18s-7.32,7.89-16.27,7.8Z"/>
        </g>
        <rect class="cls-10" x="106.18" y="181.02" width="10.3" height="32.64" transform="translate(-87.08 306.75) rotate(-89.44)"/>
        <g class="cls-4">
          <path class="cls-1" d="m110.81,199.91l.02-2.4c-.75-.22-1.29-.55-1.64-.99s-.52-.97-.51-1.59c0-.63.21-1.15.61-1.57.4-.42.93-.66,1.59-.72v-.57s.84,0,.84,0v.57c.6.08,1.08.29,1.44.64s.58.81.68,1.38l-1.45.18c-.08-.45-.31-.76-.68-.92l-.02,2.24c.92.26,1.54.59,1.87.98s.49.91.48,1.53c0,.69-.22,1.27-.65,1.74-.42.47-1.01.75-1.76.85v1.07s-.84,0-.84,0v-1.04c-.65-.09-1.19-.34-1.59-.76-.41-.42-.67-1-.77-1.76l1.5-.15c.06.31.17.57.34.79.17.22.35.39.56.49Zm.06-6.02c-.23.07-.41.2-.54.39-.14.18-.2.38-.21.61,0,.2.06.39.18.57.12.18.3.32.55.43l.02-1.98Zm.77,6.11c.29-.05.52-.18.7-.39s.27-.46.28-.75c0-.26-.07-.48-.22-.66-.15-.19-.4-.33-.74-.43l-.02,2.24Z"/>
        </g>
      </g>
    </g>
    <g>
      <g class="cls-5">
        <path class="cls-6" d="m156.43,200.93l.02-2.4c-.75-.22-1.29-.55-1.64-.99s-.52-.97-.51-1.59c0-.63.21-1.15.61-1.57.4-.42.93-.66,1.59-.72v-.57s.84,0,.84,0v.57c.6.08,1.08.29,1.44.64s.58.81.68,1.38l-1.45.18c-.08-.45-.31-.76-.68-.92l-.02,2.24c.92.26,1.54.59,1.87.98s.49.91.48,1.53c0,.69-.22,1.27-.65,1.74-.42.47-1.01.75-1.76.85v1.07s-.84,0-.84,0v-1.04c-.65-.09-1.19-.34-1.59-.76-.41-.42-.67-1-.77-1.76l1.5-.15c.06.31.17.57.34.79.17.22.35.39.56.49Zm.06-6.02c-.23.07-.41.2-.54.38-.14.18-.2.38-.21.61,0,.2.06.39.18.57.12.18.3.32.55.43l.02-1.98Zm.77,6.11c.29-.05.52-.18.7-.39.18-.21.27-.46.28-.75,0-.26-.07-.48-.22-.66-.15-.19-.4-.33-.74-.43l-.02,2.24Z"/>
      </g>
      <g class="cls-5">
        <path class="cls-6" d="m178.15,184.75l-41.11-.39c-1.25,0-2.31.96-2.31,2.31l-.19,22.82c0,1.25.96,2.31,2.31,2.31l41.11.39c1.25,0,2.31-.96,2.31-2.31l.19-22.82c0-1.25-1.06-2.31-2.31-2.31Z"/>
      </g>
      <g>
        <g>
          <path class="cls-1" d="m177.13,183.73l-41.11-.39c-1.25,0-2.31.96-2.31,2.31l-.19,22.82c0,1.25.96,2.31,2.31,2.31l41.11.39c1.25,0,2.31-.96,2.31-2.31l.19-22.82c0-1.25-1.06-2.31-2.31-2.31Z"/>
          <path class="cls-2" d="m136.89,207.32v-4.52c2.5,0,4.52,2.12,4.52,4.62l-4.52-.1Z"/>
          <path class="cls-2" d="m137.08,191.34v-4.52h4.52c.1,2.6-2.02,4.62-4.52,4.52Z"/>
          <path class="cls-2" d="m175.78,207.7h-4.52c0-2.5,2.12-4.52,4.62-4.52l-.1,4.52Z"/>
          <path class="cls-2" d="m175.97,191.72c-2.5,0-4.52-2.12-4.52-4.62h4.62l-.1,4.62Z"/>
          <path class="cls-2" d="m156.33,205.29c-8.95-.1-16.17-3.75-16.17-8.18s7.32-7.89,16.27-7.8c8.95.1,16.17,3.75,16.17,8.18s-7.32,7.89-16.27,7.8Z"/>
        </g>
        <rect class="cls-10" x="151.28" y="181.02" width="10.3" height="32.64" transform="translate(-42.42 351.85) rotate(-89.44)"/>
        <g class="cls-4">
          <path class="cls-1" d="m155.92,199.91l.02-2.4c-.75-.22-1.29-.55-1.64-.99-.35-.44-.52-.97-.51-1.59,0-.63.21-1.15.61-1.57.4-.42.93-.66,1.59-.72v-.57s.84,0,.84,0v.57c.6.08,1.08.29,1.44.64s.58.81.68,1.38l-1.45.18c-.08-.45-.31-.76-.68-.92l-.02,2.24c.92.26,1.54.59,1.87.98.33.4.49.91.48,1.53,0,.69-.22,1.27-.65,1.74-.42.47-1.01.75-1.75.85v1.07s-.84,0-.84,0v-1.04c-.65-.09-1.19-.34-1.59-.76-.41-.42-.67-1-.77-1.76l1.5-.15c.06.31.17.57.34.79.17.22.35.39.56.49Zm.06-6.02c-.23.07-.41.2-.54.39-.14.18-.2.38-.21.61,0,.2.06.39.18.57.12.18.3.32.55.43l.02-1.98Zm.77,6.11c.29-.05.52-.18.7-.39.18-.21.27-.46.28-.75,0-.26-.07-.48-.22-.66s-.4-.33-.74-.43l-.02,2.24Z"/>
        </g>
      </g>
    </g>
    <g>
      <g class="cls-5">
        <path class="cls-6" d="m201.53,200.93l.02-2.4c-.75-.22-1.29-.55-1.64-.99-.35-.44-.52-.97-.51-1.59,0-.63.21-1.15.61-1.57.4-.42.93-.66,1.59-.72v-.57s.84,0,.84,0v.57c.6.08,1.08.29,1.44.64.36.35.58.81.68,1.38l-1.45.18c-.08-.45-.31-.76-.68-.92l-.02,2.24c.92.26,1.54.59,1.87.98.33.4.49.91.48,1.53,0,.69-.22,1.27-.65,1.74-.42.47-1.01.75-1.76.85v1.07s-.84,0-.84,0v-1.04c-.65-.09-1.19-.34-1.59-.76-.41-.42-.67-1-.77-1.76l1.5-.15c.06.31.17.57.34.79.17.22.35.39.56.49Zm.06-6.02c-.23.07-.41.2-.54.38-.14.18-.2.38-.21.61,0,.2.06.39.18.57.12.18.3.32.55.43l.02-1.98Zm.77,6.11c.29-.05.52-.18.7-.39.18-.21.27-.46.28-.75,0-.26-.07-.48-.22-.66s-.4-.33-.74-.43l-.02,2.24Z"/>
      </g>
      <g class="cls-5">
        <path class="cls-6" d="m223.25,184.75l-41.11-.39c-1.25,0-2.31.96-2.31,2.31l-.19,22.82c0,1.25.96,2.31,2.31,2.31l41.11.39c1.25,0,2.31-.96,2.31-2.31l.19-22.82c0-1.25-1.06-2.31-2.31-2.31Z"/>
      </g>
      <g>
        <g>
          <path class="cls-1" d="m222.23,183.73l-41.11-.39c-1.25,0-2.31.96-2.31,2.31l-.19,22.82c0,1.25.96,2.31,2.31,2.31l41.11.39c1.25,0,2.31-.96,2.31-2.31l.19-22.82c0-1.25-1.06-2.31-2.31-2.31Z"/>
          <path class="cls-2" d="m181.99,207.32v-4.52c2.5,0,4.52,2.12,4.52,4.62l-4.52-.1Z"/>
          <path class="cls-2" d="m182.18,191.34v-4.52h4.52c.1,2.6-2.02,4.62-4.52,4.52Z"/>
          <path class="cls-2" d="m220.88,207.7h-4.52c0-2.5,2.12-4.52,4.62-4.52l-.1,4.52Z"/>
          <path class="cls-2" d="m221.07,191.72c-2.5,0-4.52-2.12-4.52-4.62h4.62l-.1,4.62Z"/>
          <path class="cls-2" d="m201.43,205.29c-8.95-.1-16.17-3.75-16.17-8.18s7.32-7.89,16.27-7.8c8.95.1,16.17,3.75,16.17,8.18s-7.32,7.89-16.27,7.8Z"/>
        </g>
        <rect class="cls-10" x="196.38" y="181.02" width="10.3" height="32.64" transform="translate(2.24 396.95) rotate(-89.44)"/>
        <g class="cls-4">
          <path class="cls-1" d="m201.02,199.91l.02-2.4c-.75-.22-1.29-.55-1.64-.99-.35-.44-.52-.97-.51-1.58,0-.63.21-1.15.61-1.57.4-.42.93-.66,1.59-.72v-.57s.84,0,.84,0v.57c.6.08,1.08.29,1.44.64.36.35.58.81.68,1.38l-1.45.18c-.08-.45-.31-.76-.68-.92l-.02,2.24c.92.26,1.54.59,1.87.98.33.4.49.91.48,1.53,0,.69-.22,1.27-.65,1.74s-1.01.76-1.76.85v1.07s-.84,0-.84,0v-1.04c-.65-.09-1.19-.34-1.59-.76-.41-.42-.67-1-.77-1.76l1.5-.15c.06.31.17.57.34.79.17.22.35.39.56.49Zm.06-6.02c-.23.07-.41.2-.54.39-.14.18-.2.38-.21.61,0,.2.06.39.18.57.12.18.3.32.55.43l.02-1.98Zm.77,6.11c.29-.05.52-.18.7-.39s.27-.46.28-.75c0-.26-.07-.48-.22-.66-.15-.19-.4-.33-.74-.43l-.02,2.24Z"/>
        </g>
      </g>
    </g>
  </g>
  <path class="cls-6" d="m52.75,136.26v-32.32c0-.22.03-.44.1-.66l20.2-67.2c.76-2.51,4.46-1.97,4.46.66h0c0,.15-.02.3-.05.45l-20.2,99.52c-.55,2.69-4.51,2.3-4.51-.45Z"/>
  <path class="cls-6" d="m239.03,36.74v32.32c0,.22.03.44.1.66l20.2,67.2c.76,2.51,4.46,1.97,4.46-.66h0c0-.15-.02-.3-.05-.45l-20.2-99.52c-.55-2.69-4.51-2.3-4.51.45Z"/>
  <rect class="cls-1" x="133.05" y="182.58" width="2.65" height="3.31"/>
  <g class="cls-7">
    <path class="cls-8" d="m224.72,144.5l-135.59-.39c-2.88-4.42-2.44,4.1-2.44,1.21v-15.13c0-2.88,2.34-5.22,5.22-5.22h131.18c2.88,0,5.22,2.34,5.22,5.22v15.13c0,2.88-.7-5.25-3.59-.83Z"/>
  </g>
</svg>