<?xml version="1.0" encoding="UTF-8"?>
<svg id="Layer_1" data-name="Layer 1" xmlns="http://www.w3.org/2000/svg" width="300" height="225" viewBox="0 0 300 225">
  <defs>
    <style>
      .cls-1 {
        fill: #fff;
      }

      .cls-2 {
        fill: #bc8c04;
      }

      .cls-3 {
        isolation: isolate;
        opacity: .35;
      }

      .cls-4 {
        fill: #232323;
      }

      .cls-5 {
        fill: #ff7e1c;
      }

      .cls-6 {
        fill: #444;
      }

      .cls-7 {
        fill: #966c05;
      }

      .cls-8 {
        fill: #dda905;
      }

      .cls-9 {
        fill: #ea651b;
      }

      .cls-10 {
        fill: #7f7f7f;
      }

      .cls-11 {
        fill: #1e1e1e;
      }

      .cls-12 {
        fill: #ffcf15;
      }
    </style>
  </defs>
  <g>
    <g>
      <g>
        <path class="cls-9" d="m222.15,83.7c1.32,3.08,3.13,6.01,5.47,8.67,11.83,13.49,32.36,14.83,45.85,2.99,7.2-6.31,10.93-15.1,11.06-23.97-2.22,4.94-5.51,9.5-9.85,13.31-15.27,13.4-38.07,12.72-52.52-1Z"/>
        <path class="cls-5" d="m230.61,46.52c-10.83,9.5-13.83,24.61-8.46,37.18,14.45,13.72,37.25,14.4,52.52,1,4.34-3.81,7.63-8.37,9.85-13.31.11-7.76-2.54-15.58-8.06-21.88-11.84-13.49-32.36-14.83-45.85-2.99Z"/>
      </g>
      <path class="cls-1" d="m261.44,73.98c.45,1.07.39,2.36-.19,3.85-.74,1.79-1.89,2.92-3.46,3.38-1.35.37-3.2.3-5.55-.22l-1.01,3.56-2.57-.73,1-3.51-1.99-.57-1,3.51-2.57-.73,1.01-3.56-5.08-1.45,1.39-2.89.52.15c.83.27,1.37.41,1.64.41.38,0,.66-.2.85-.6l3.24-11.37c.05-.59-.14-1.02-.59-1.3-.28-.19-.94-.42-1.96-.67l-.42-.12.78-2.73,1.56.5c1.85.53,3.03.84,3.52.94l1.18-4.14,2.57.73-1.16,4.09,2.01.51,1.15-4.03,2.57.73-1.18,4.14c1.73.68,2.98,1.45,3.76,2.32.95,1.03,1.28,2.25.99,3.68-.37,2.09-1.49,3.31-3.37,3.69h0c1.21.65,2,1.46,2.37,2.43h0Zm-10.52-5.43l.42.12c1.46.45,2.62.69,3.48.71,1.5.05,2.41-.51,2.74-1.66s-.14-2.12-1.39-2.89c-.71-.43-1.82-.84-3.33-1.23-.25-.03-.42-.07-.49-.09l-1.43,5.03h0Zm-1.84,8.26c1.77.54,3.14.83,4.11.88,1.76.05,2.82-.56,3.18-1.81s-.21-2.32-1.7-3.2c-.8-.49-2.11-.96-3.91-1.39l-.58-.16-1.58,5.55.47.14h0Z"/>
    </g>
    <g>
      <path class="cls-12" d="m59.24,48.09c.6-1.6,3.1-8.28,3.1-8.28-.83,2.21-1.92,5.09-3.15,8.37.01-.03.04-.06.05-.09Z"/>
      <path class="cls-12" d="m56.25,62.5l-.57-4.99c-1.32,3.51-2.7,7.17-4.06,10.76l4.63-5.77Z"/>
      <g>
        <path class="cls-2" d="m58.05,102.36l-4.92-8.08,1.61-5.35-7.69-6.46,5.11-11.28,5.54-4.27s-.07-12.4-.11-12.61,4.54-12.04,4.54-12.04l-1.87-5.08-7.49-2.41-15.67,26.52-4.55,29.97,10.73,8.48,14.78,2.61Z"/>
        <path class="cls-7" d="m52.87,98.11l-3.11-5.11,1.28-4.76-7.4-6.85,5.22-10.92,4.89-5s1.59-11.87,1.55-12.08,4.52-11.98,4.52-11.98l-2.07-4-4.81-1.22-19.21,23.85-4.55,29.97,12.65,2.99,11.05,5.12Z"/>
        <path class="cls-2" d="m49.95,98.89l-4.92-8.08,2.39-2.73-7.38-6.96,6.42-12.33,4.59-5.02s-1.08-12.07-1.12-12.28,3.71-2.33,3.71-2.33l3.62-9.43-2.08-4.03-2.4-.9-25.54,52.68,7.94,8.81,14.78,2.61Z"/>
        <path class="cls-8" d="m44.02,97.07c-4.27,3.84-8.53,5.52-11.99,4.21l14.26,5.38c3.46,1.31,7.72-.37,11.99-4.21l-14.26-5.38h0Z"/>
        <path class="cls-12" d="m30.27,62.76c-6.9,18.3-6.11,35.55,1.77,38.52,0,0,3.3-8.77,7.05-18.7l-2.26-2.02,7.71-12.42c1.36-3.6,2.74-7.26,4.06-10.76l-.71-6.15s3.52-1.6,4.22-3.17c1.24-3.28,2.32-6.15,3.15-8.37l-2.49-4.9c-7.49,1.59-16.75,12.73-22.5,27.97Z"/>
        <path class="cls-12" d="m44.02,97.07l-3.57-6.61,3.42-3.58-4.8-4.29c-3.74,9.93-7.05,18.7-7.05,18.7,3.46,1.31,7.72-.37,11.99-4.21Z"/>
        <g>
          <path class="cls-2" d="m48.2,39.6l.39.9-.86.37,1.55,3.58-1.44.62-1.55-3.58-.85.37-.39-.9,3.15-1.36Z"/>
          <path class="cls-2" d="m50.85,39.14l1.11.06c.74.04,1.24.09,1.5.15.26.06.47.19.62.39.15.2.22.51.2.92-.02.38-.09.63-.22.75-.12.12-.36.19-.7.2.31.08.51.17.61.28.1.11.16.21.18.3.02.09.02.33,0,.72l-.07,1.29-1.46-.08.09-1.62c.01-.26,0-.42-.05-.49-.05-.06-.18-.1-.4-.12l-.12,2.2-1.57-.09.27-4.87Zm1.52.92l-.06,1.08c.18,0,.3,0,.37-.04.07-.04.12-.16.13-.38v-.27c.02-.15,0-.26-.07-.31-.07-.05-.19-.08-.37-.09Z"/>
          <path class="cls-8" d="m47.89,39.4l.39.9-.86.37,1.55,3.58-1.44.62-1.55-3.58-.85.37-.39-.9,3.15-1.36Z"/>
          <path class="cls-8" d="m50.76,38.79l1.11.06c.74.04,1.24.09,1.5.15.26.06.47.19.62.39.15.2.22.51.2.92-.02.38-.09.63-.22.75-.12.12-.36.19-.7.2.31.08.51.17.61.28.1.11.16.21.18.3.02.09.02.33,0,.72l-.07,1.29-1.46-.08.09-1.62c.01-.26,0-.42-.05-.49-.05-.06-.18-.1-.4-.12l-.12,2.2-1.57-.09.27-4.87Zm1.52.92l-.06,1.08c.18,0,.3,0,.37-.04.07-.04.12-.16.13-.38v-.27c.02-.15,0-.26-.07-.31-.07-.05-.19-.08-.37-.09Z"/>
        </g>
      </g>
      <g>
        <g>
          <path class="cls-8" d="m67.48,76.14c-4.59,9.95-10.64,17.95-16.41,22.44h0s13.84,6.38,13.84,6.38c5.78-4.49,11.82-12.49,16.41-22.44,8.19-17.76,8.64-35.02.99-38.55l-13.84-6.38c7.64,3.52,7.2,20.78-.99,38.55Z"/>
          <path class="cls-12" d="m58.46,59.31c1.48-3.2,2.89-6.27,4.17-9.05-.81,1.52-4.44,2.86-4.44,2.86l.27,6.19Z"/>
          <path class="cls-12" d="m47.17,83.78c2.16-4.69,4.45-9.65,6.47-14.02l-8.58,11.84,2.11,2.18Z"/>
          <path class="cls-12" d="m66.37,42.14c1.31-2.83,2.1-4.55,2.1-4.55-1.28-.59-2.71-.72-4.23-.51l2.13,5.06Z"/>
          <path class="cls-12" d="m62.69,50.18s-.04.06-.06.09c-1.28,2.78-2.7,5.85-4.17,9.05l.22,5.02-5.03,5.43c-2.02,4.38-4.3,9.33-6.47,14.02l4.48,4.63-3.67,3.33,3.09,6.84c5.78-4.49,11.82-12.49,16.41-22.44,8.19-17.76,8.64-35.02.99-38.55,0,0-.79,1.72-2.1,4.55,0,0-2.97,6.48-3.68,8.03Z"/>
        </g>
        <g>
          <path class="cls-2" d="m69.71,45.84l-2.33,2.36c-.26.27-.46.44-.59.53-.13.09-.3.14-.52.14-.22,0-.44-.04-.68-.16-.23-.11-.47-.29-.7-.52-.26-.26-.46-.52-.59-.79-.13-.27-.19-.51-.18-.72s.07-.39.17-.53c.1-.14.35-.41.75-.81l2.07-2.09,1.14,1.12-2.62,2.65c-.15.15-.24.26-.26.33-.02.06,0,.13.06.19.07.07.14.09.21.07s.19-.13.36-.3l2.57-2.6,1.14,1.12Z"/>
          <path class="cls-2" d="m71.03,52.27l-.5-1.4.35-.13c.16-.06.26-.11.29-.17.03-.05.03-.12,0-.2-.03-.09-.09-.15-.16-.17-.08-.03-.18-.02-.3.03-.16.06-.26.12-.32.21-.06.08-.1.25-.13.53-.08.79-.19,1.3-.33,1.55-.14.25-.44.45-.9.62-.33.12-.59.16-.79.12-.19-.04-.39-.18-.6-.42-.21-.24-.38-.54-.51-.91-.15-.4-.21-.77-.19-1.1.02-.33.11-.57.27-.73.16-.16.41-.3.76-.42l.31-.11.5,1.4-.57.21c-.18.06-.28.12-.32.18-.04.06-.04.14,0,.24.04.1.09.16.18.19.08.03.18.02.31-.03.27-.1.44-.21.49-.33.05-.13.11-.41.17-.86.06-.45.12-.75.17-.9.05-.15.13-.3.27-.44.13-.14.32-.25.57-.34.36-.13.64-.17.85-.11.21.05.4.19.59.41.18.22.34.51.47.86.14.39.21.74.21,1.05,0,.31-.07.54-.19.69-.12.15-.37.28-.74.42l-.18.07Z"/>
          <path class="cls-2" d="m72.85,56.95l-.99.12-.11-.94-3.94.48-.19-1.59,3.94-.48-.11-.94.99-.12.42,3.47Z"/>
          <path class="cls-8" d="m69.37,45.23l-2.33,2.36c-.26.27-.46.44-.59.53-.13.09-.3.14-.52.14-.22,0-.44-.04-.68-.16-.23-.11-.47-.29-.7-.52-.26-.26-.46-.52-.59-.79-.13-.27-.19-.51-.18-.72s.07-.39.17-.53c.1-.14.35-.41.75-.81l2.07-2.09,1.14,1.12-2.62,2.65c-.15.15-.24.26-.26.33-.02.06,0,.13.06.19.07.07.14.09.21.07s.19-.13.36-.3l2.57-2.6,1.14,1.12Z"/>
          <path class="cls-8" d="m70.69,51.66l-.5-1.4.35-.13c.16-.06.26-.11.29-.17.03-.05.03-.12,0-.2-.03-.09-.09-.15-.16-.17-.08-.03-.18-.02-.3.03-.16.06-.26.12-.32.21-.06.08-.1.25-.13.53-.08.79-.19,1.3-.33,1.55-.14.25-.44.45-.9.62-.33.12-.59.16-.79.12-.19-.04-.39-.18-.6-.42-.21-.24-.38-.54-.51-.91-.15-.4-.21-.77-.19-1.1.02-.33.11-.57.27-.73.16-.16.41-.3.76-.42l.31-.11.5,1.4-.57.21c-.18.06-.28.12-.32.18-.04.06-.04.14,0,.24.04.1.09.16.18.19.08.03.18.02.31-.03.27-.1.44-.21.49-.33.05-.13.11-.41.17-.86.06-.45.12-.75.17-.9.05-.15.13-.3.27-.44.13-.14.32-.25.57-.34.36-.13.64-.17.85-.11.21.05.4.19.59.41.18.22.34.51.47.86.14.39.21.74.21,1.05,0,.31-.07.54-.19.69-.12.15-.37.28-.74.42l-.18.07Z"/>
          <path class="cls-8" d="m72.95,56.6l-.99.12-.11-.94-3.94.48-.19-1.59,3.94-.48-.11-.94.99-.12.42,3.47Z"/>
        </g>
      </g>
    </g>
  </g>
  <g>
    <g>
      <g>
        <g class="cls-3">
          <ellipse class="cls-4" cx="152.33" cy="204.88" rx="51.67" ry="8.36"/>
        </g>
        <g>
          <g>
            <g>
              <path class="cls-4" d="m155.52,154.66c.23,1.51,4.99,43.54,12.19,49.46,7.2,5.92,10.91,3.95,12.42,2.32,1.51-1.63,3.48-4.53-.12-7.9-2.9-2.67-4.88-14.51-1.97-32.98l-22.53-10.91Z"/>
              <g>
                <path class="cls-4" d="m185.13,201.92c.93.23,1.86.12,2.21-.46.35-.58-.23-1.63-1.28-2.21-2.9-1.39-6.27-1.86-9.52-1.28-1.28.23-1.74,1.51-1.16,2.67s1.63,1.74,2.44,1.51c2.21-.81,4.76-.93,7.32-.23Z"/>
                <path class="cls-4" d="m183.74,207.15c.81.46,1.74.58,2.32.12.46-.46.23-1.63-.58-2.44-2.44-2.21-5.46-3.48-8.82-3.83-1.28-.12-2.09.93-1.86,2.21.23,1.28,1.05,2.09,1.86,2.09,2.32-.12,4.88.46,7.08,1.86Z"/>
                <path class="cls-4" d="m179.79,211.09c.46.81,1.28,1.39,1.97,1.16.7-.23,1.05-1.39.58-2.44-1.16-3.02-3.25-5.69-6.15-7.43-1.05-.7-2.32-.12-2.67,1.16-.35,1.16,0,2.32.7,2.67,2.32.93,4.3,2.67,5.57,4.88Z"/>
              </g>
            </g>
            <g>
              <path class="cls-4" d="m151.11,154.31c-.23,1.51-5.23,43.54-12.31,49.35-7.2,5.92-10.91,3.83-12.42,2.32-1.51-1.63-3.48-4.64.12-7.9,2.9-2.67,4.88-14.51,2.09-32.98l22.53-10.8Z"/>
              <g>
                <path class="cls-4" d="m122.55,201.92c-.93.23-1.86.12-2.21-.46s.23-1.63,1.28-2.21c2.9-1.39,6.27-1.86,9.52-1.16,1.28.23,1.74,1.51,1.16,2.67s-1.63,1.74-2.44,1.39c-2.21-.81-4.76-.93-7.32-.23Z"/>
                <path class="cls-4" d="m123.94,207.15c-.81.46-1.74.58-2.32.12-.46-.46-.23-1.63.58-2.44,2.44-2.09,5.57-3.48,8.82-3.83,1.28-.12,2.09,1.05,1.86,2.21-.23,1.28-1.05,2.09-1.86,2.09-2.32-.12-4.88.46-7.08,1.86Z"/>
                <path class="cls-4" d="m127.89,211.09c-.46.81-1.28,1.39-1.97,1.16s-.93-1.39-.58-2.44c1.16-3.02,3.37-5.57,6.15-7.43,1.05-.7,2.32-.12,2.67,1.16.35,1.16,0,2.32-.7,2.67-2.32.93-4.3,2.67-5.57,4.88Z"/>
              </g>
            </g>
          </g>
          <path class="cls-6" d="m191.52,132.49c-1.51-14.51-7.55-32.16-19.04-38.55-4.88-2.79-10.57-4.76-18.46-6.04-1.86.35-3.6.7-5.23,1.05-.23.12-.58.12-.81.23-.46.12-.93.23-1.39.35-.35.12-.58.12-.93.23-.46.12-.93.23-1.39.46-.23.12-.46.12-.7.23-.7.23-1.28.46-1.97.7-.23.12-.35.12-.58.23-.46.23-.93.35-1.39.58-.23.12-.46.23-.58.23-.46.23-.81.35-1.28.58-.23.12-.35.12-.58.23-.58.23-1.16.58-1.74.93-12.31,6.85-18.35,26.59-19.39,41.57-.12,2.21-.12,4.3-.12,6.27,0,5.11.35,9.29.93,11.84,0,.12.12.23.12.35,3.02,13.93,18.46,24.5,36.92,24.5,20.78,0,37.62-13.24,37.62-29.49v-.46c.35-4.41.35-9.99,0-16.02Z"/>
          <path class="cls-1" d="m181.76,91.85c-4.76-5.46-10.91-8.13-23.11-8.59h-6.97c-.81,0-1.51,0-2.21.12h-.23c-12.19.46-18.35,3.14-23.11,8.48-6.27,7.2-9.52,27.64-10.22,43.54,1.05-14.98,7.2-34.72,19.39-41.57,4.88-2.67,10.68-4.64,18.46-5.92,7.9,1.28,13.59,3.37,18.46,6.04,12.31,6.85,18.35,26.59,19.28,41.57-.35-16.02-3.48-36.46-9.75-43.66Z"/>
          <path class="cls-1" d="m153.78,35.3c-6.73,0-14.51-2.67-18.93-3.83-5.23-1.28-7.66-1.39-11.5-1.39-11.61,0-15.21,6.04-16.14,8.59,7.66-23.46,31.82-26.82,46.21-26.71h1.16c14.28,0,38.55,3.37,46.1,26.94-.93-2.44-4.53-8.59-16.14-8.59-3.83,0-6.27,0-11.5,1.28-4.41,1.16-12.31,3.72-18.93,3.72h-.35Z"/>
          <path class="cls-6" d="m200.57,38.9h0c-.93-2.55-4.53-8.59-16.14-8.59-3.83,0-6.27,0-11.5,1.28-4.41,1.16-12.31,3.72-18.93,3.72h-.23c-6.73,0-14.51-2.67-18.93-3.83-5.23-1.28-7.66-1.39-11.5-1.39-11.61,0-15.21,6.04-16.14,8.59h0c-2.44,2.32-4.06,8.48-3.95,15.79.23,9.17,3.37,16.49,6.97,16.37h.23c8.36,16.84,31.23,24.62,43.19,24.62s35.07-7.66,43.54-24.5h.23c3.6.12,6.73-7.2,7.08-16.37.12-7.2-1.51-13.35-3.95-15.68Z"/>
          <path class="cls-10" d="m153.78,83.37c-6.04,0-18.93-5.69-18.93-18s14.28-13.24,19.04-13.24,19.04,1.05,18.93,13.35c0,12.31-13,17.88-19.04,17.88Z"/>
          <path class="cls-4" d="m154.13,55.27c2.67,0,6.5,2.79,6.97,5.92.46,3.25-7.2,3.14-7.2,3.14h-.23s-7.66.12-7.2-3.14c.46-3.25,4.41-5.92,6.97-5.92h.7Z"/>
          <g>
            <circle class="cls-4" cx="134.39" cy="45.86" r="2.32"/>
            <path class="cls-4" d="m175.61,45.98c0,1.28-1.05,2.32-2.32,2.32s-2.32-1.05-2.32-2.32,1.05-2.32,2.32-2.32,2.32,1.05,2.32,2.32Z"/>
          </g>
          <path class="cls-4" d="m195.58,44.12c2.9.12,5.34,5.69,6.27,13.59.12-1.05.23-1.97.23-3.14.23-7.2-1.51-13.12-3.95-13.24-1.05,0-1.97,1.05-2.67,2.67,0,.12.12.12.12.12Z"/>
          <path class="cls-4" d="m112.1,43.89c-2.9.12-5.34,5.69-6.27,13.59-.12-1.05-.12-1.97-.23-3.14-.12-7.2,1.63-13.12,3.95-13.24,1.05,0,1.97,1.05,2.67,2.79,0,.12,0,0-.12,0Z"/>
          <path class="cls-10" d="m139.03,40.27c-.23,0-.45-.1-.61-.28-.46-.55-1.03-.96-1.79-1.29-.81-.35-1.51-.52-2.13-.52-.8-.09-1.34.07-2.04.27l-.18.05c-.7.31-1.28.61-1.75,1.08-.31.31-.81.31-1.12,0-.31-.31-.31-.81,0-1.12.72-.71,1.58-1.12,2.34-1.44l.27-.08c.76-.22,1.55-.45,2.58-.32.72-.02,1.64.2,2.65.64.99.42,1.77.99,2.39,1.73.28.33.23.83-.1,1.11-.15.12-.33.18-.51.18Z"/>
          <path class="cls-10" d="m178.05,40.27c-.23,0-.45-.1-.61-.28-.46-.55-1.03-.96-1.79-1.29-.81-.35-1.51-.52-2.13-.52h-.11c-.65-.1-1.36.1-2.11.32-.7.31-1.28.61-1.75,1.08-.31.31-.81.31-1.12,0-.31-.31-.31-.81,0-1.12.72-.72,1.58-1.12,2.34-1.44l.09-.03c.86-.25,1.75-.5,2.71-.38.82,0,1.7.22,2.69.64.99.42,1.77.99,2.39,1.73.28.33.23.83-.1,1.11-.15.12-.33.18-.51.18Z"/>
          <path class="cls-4" d="m153.78,77.93c-1.7,0-3.23-.47-4.21-.86-1.42-.64-2.52-1.39-3.49-2.36-1.04-1.04-1.88-2.28-2.36-3.49-.15-.37.03-.78.4-.93.37-.15.78.03.93.4.41,1.02,1.15,2.12,2.05,3.01.85.85,1.81,1.5,3.04,2.06.84.33,2.18.75,3.65.75,1.37,0,2.53-.24,3.65-.75,1.05-.42,2.15-1.17,3.04-2.06.85-.85,1.5-1.81,2.06-3.04.16-.36.59-.52.95-.36.36.16.52.59.36.95-.63,1.39-1.38,2.49-2.35,3.46-1.04,1.04-2.28,1.88-3.49,2.36-1.29.59-2.63.86-4.21.86Z"/>
        </g>
      </g>
      <g>
        <path class="cls-11" d="m118.4,45.16c.19-3.3.29-6.6.61-9.89.45-4.67,1.47-9.22,3.61-13.44,1.14-2.24,2.6-4.26,4.69-5.72,1.74-1.22,3.73-1.88,5.78-2.27,2.62-.5,5.27-.89,7.91-1.26,5.08-.72,10.19-.93,15.31-.76,3.2.11,6.41.32,9.59.67,3.01.33,6,.81,8.98,1.37,2.1.39,4.11,1.12,5.85,2.4,2.38,1.75,3.94,4.13,5.14,6.78,1.31,2.88,2.06,5.93,2.58,9.04.76,4.57,1.17,9.17,1.01,13.8-.11,3.41-.37,6.82-.66,10.22-.4,4.56-1.15,9.07-2.27,13.51-.95,3.74-2,7.45-3.82,10.89-1.29,2.43-3.14,4.42-5.06,6.35-3.74,3.77-7.75,7.24-11.86,10.6-.98.8-1.96,1.6-2.97,2.36-2.24,1.67-4.77,2.7-7.49,3.25-1.63.33-3.21-.04-4.78-.51-3.16-.96-5.77-2.79-8.23-4.91-2.64-2.28-5.32-4.53-7.92-6.85-2.78-2.47-5.49-5.03-7.75-8.01-1.82-2.4-2.82-5.17-3.75-7.99-1.56-4.69-2.61-9.5-3.23-14.4-.39-3.05-.75-6.1-.98-9.16-.15-2.01-.03-4.04-.03-6.06-.09,0-.17,0-.26,0Zm36.56,56.97c2.31-.53,4.52-1.23,6.42-2.59,1.95-1.39,3.79-2.93,5.64-4.45,3.6-2.96,7.06-6.09,10.35-9.4,2.31-2.32,4.36-4.83,5.51-7.93.85-2.29,1.63-4.61,2.29-6.96,1.18-4.21,1.96-8.51,2.4-12.86.36-3.58.69-7.17.85-10.77.25-5.41-.18-10.78-1.19-16.1-.59-3.1-1.46-6.1-2.92-8.92-1.9-3.66-4.69-6.21-8.79-7.09-2.24-.48-4.49-.92-6.76-1.25-4.22-.61-8.47-.97-12.74-.99-2.81-.01-5.63-.01-8.44.14-2.48.13-4.96.41-7.43.75-2.62.37-5.24.82-7.83,1.37-3.6.75-6.25,2.84-8.11,5.99-.96,1.63-1.7,3.35-2.29,5.15-1.69,5.1-2.18,10.38-2.33,15.71-.17,6.14.15,12.25,1.07,18.34.71,4.7,1.64,9.33,3.1,13.86,1.07,3.32,2.27,6.58,4.66,9.2,1.78,1.95,3.61,3.87,5.55,5.66,2.79,2.57,5.69,5.01,8.58,7.48,1.77,1.52,3.56,3.03,5.7,4.05,1.43.68,2.9,1.22,4.53,1.53-.84-1.88-1.25-3.8-1.52-5.75-.42-3.06-.61-6.13.32-9.14.42-1.37.06-2.47-.87-3.47-.3-.32-.55-.7-.93-1.18h8.22c-.28.35-.5.6-.7.87-.34.45-.69.9-.98,1.38-.34.56-.47,1.16-.29,1.84.27.98.58,1.97.67,2.97.39,4.28-.14,8.45-1.74,12.58Z"/>
        <path class="cls-1" d="m154.95,102.14c1.6-4.13,2.14-8.3,1.74-12.58-.09-1-.41-1.99-.67-2.97-.18-.67-.05-1.28.29-1.84.29-.48.64-.93.98-1.38.2-.27.42-.52.7-.87h-8.22c.38.49.63.86.93,1.18.93,1,1.29,2.1.87,3.47-.93,3.01-.74,6.07-.32,9.14.27,1.96.67,3.88,1.52,5.75-1.63-.31-3.11-.85-4.53-1.53-2.13-1.02-3.92-2.53-5.7-4.05-2.88-2.47-5.78-4.91-8.58-7.48-1.94-1.79-3.77-3.71-5.55-5.66-2.39-2.62-3.59-5.89-4.66-9.2-1.46-4.53-2.39-9.16-3.1-13.86-.92-6.08-1.24-12.2-1.07-18.34.15-5.33.63-10.61,2.33-15.71.59-1.79,1.33-3.51,2.29-5.15,1.86-3.16,4.51-5.24,8.11-5.99,2.59-.54,5.21-1,7.83-1.37,2.46-.35,4.94-.62,7.43-.75,2.81-.15,5.63-.15,8.44-.14,4.27.02,8.52.38,12.74.99,2.27.33,4.52.77,6.76,1.25,4.11.88,6.9,3.43,8.79,7.09,1.46,2.82,2.33,5.82,2.92,8.92,1.01,5.32,1.44,10.7,1.19,16.1-.16,3.6-.49,7.19-.85,10.77-.44,4.35-1.22,8.65-2.4,12.86-.66,2.35-1.44,4.67-2.29,6.96-1.15,3.1-3.21,5.61-5.51,7.93-3.29,3.31-6.74,6.44-10.35,9.4-1.85,1.52-3.69,3.06-5.64,4.45-1.9,1.35-4.11,2.05-6.42,2.59Zm-31.55-40.99s-.09.07-.14.1c.03.25.03.51.1.75.83,2.99,1.99,5.84,3.5,8.54,3.55,6.37,7.89,12.17,12.83,17.54.09.1.26.13.4.19.03-.05.06-.11.09-.16-2.97-3.86-5.45-8.02-7.9-12.23.38.17.72.39,1,.66,1.95,1.89,4.28,3.11,6.85,3.9.53.16,1.09.21,1.64.31l.05-.21c-.36-.13-.72-.29-1.09-.39-3.73-1.05-6.68-3.28-9.09-6.22-2.23-2.73-3.48-6.02-4.92-9.19-.07-.15-.04-.35-.06-.52.05-.04.1-.09.14-.13.33.18.78.27.96.54,1.02,1.58,1.95,3.22,2.96,4.81,1.2,1.9,2.43,3.77,4.1,5.32.62.57,1.31.85,2.14.86,3.89.03,7.78.07,11.67.13.37,0,.58-.12.8-.4,1.13-1.46,2.27-2.92,3.43-4.36.73-.9,1.23-.93,1.96-.05,1.01,1.22,2.01,2.45,2.91,3.75.57.83,1.3,1.05,2.21,1.04,3.76-.04,7.52-.06,11.28-.1.24,0,.51-.11.72-.24,1.22-.7,2.15-1.73,2.92-2.88,1.7-2.52,3.32-5.08,4.96-7.63.41-.64.85-.84,1.64-.54-.98,2-2,3.97-2.92,5.98-1.31,2.86-3.41,5.04-5.8,6.98-1.76,1.42-3.79,2.29-5.92,2.96-.27.08-.52.22-.78.33.02.05.05.1.07.15,3.73-.41,6.65-2.45,9.38-4.88.07.07.14.14.2.21-1.28,2.02-2.53,4.05-3.84,6.05-1.31,2.01-2.67,3.98-4.01,5.97l.13.11c.16-.15.32-.29.47-.45,2.43-2.57,4.68-5.28,6.74-8.15,3.54-4.92,6.9-9.94,8.81-15.78.3-.91.52-1.85.78-2.77-.06-.03-.12-.06-.18-.09-.24.2-.51.37-.73.59-.99.98-2.1,1.68-3.52,1.89-.61.09-1.16.48-1.77.66-.28.08-.62.04-.91-.03-.49-.12-.95-.38-1.44-.46-3.16-.54-6.1-1.6-8.7-3.53-.58-.43-.97-.32-1.29.32-.25.51-.06.95.32,1.26.42.34.88.65,1.37.88,2.63,1.23,5.31,2.23,8.29,2.04.1,0,.2.04.42.1-.78,1.03-1.49,2-2.23,2.95-.91,1.18-1.84,2.34-2.78,3.5-.36.44-.84.66-1.44.64-1.74-.06-3.47-.1-5.21-.11-1.92-.01-3.47-.76-4.67-2.24-.51-.63-.99-1.28-1.48-1.93-.27-.36-.59-.46-1.03-.28-.45.19-.91.38-1.39.46-2.29.36-4.58.48-6.75-.57-.34-.17-.53-.08-.74.22-.51.73-1.04,1.44-1.59,2.13-.82,1.04-1.85,1.74-3.19,1.98-2.23.4-4.47.35-6.71.34-.54,0-.94-.2-1.27-.61-1.18-1.45-2.37-2.88-3.54-4.34-.52-.65-.99-1.35-1.48-2.03.13-.1.17-.16.21-.16.28-.01.57-.02.85-.02,2.93-.02,5.63-.92,8.19-2.26.47-.25.86-.72,1.18-1.16.27-.37.09-.78-.24-1.11-.35-.34-.69-.22-1.02,0-.55.37-1.06.8-1.63,1.11-1.86,1.01-3.85,1.69-5.91,2.18-.9.21-1.79.52-2.69.74-.39.1-.81.16-1.16-.21-.15-.16-.42-.28-.65-.3-1.68-.18-3.1-.86-4.3-2.05-.17-.17-.41-.28-.61-.41Zm22.14-31.47s.04-.09.06-.13c-.04-.05-.07-.11-.12-.16-.1-.09-.2-.18-.31-.25-2.46-1.52-4.99-2.88-7.81-3.59-2.3-.57-4.58-.65-6.77.49-1.18.61-2.11,1.51-2.93,2.53-.41.51-.75,1.09-1.1,1.65-.55.87-1.1,1.75-1.64,2.64-.11.18-.12.41-.21.72.28-.05.47-.05.62-.12.49-.26.97-.56,1.46-.83.27-.15.55-.37.84-.4.32-.03.65.16.99.18,1.66.08,3.35-.07,4.97.23,3.89.72,7.2,2.67,10.13,5.3,1.67,1.5,3.11,3.19,4.4,5.01.15.21.37.36.56.53.06-.05.13-.09.19-.14-.47-2.26-1.12-4.45-2.38-6.45-.84.38-.37,1.02-.46,1.59-.17-.15-.31-.24-.42-.35-2.1-2.03-4.38-3.79-7.1-4.95-1.91-.82-3.85-1.52-5.94-1.68-.78-.06-1.56,0-2.44,0,.45-.13.8-.33,1.14-.31,1.11.06,2.22.2,3.33.31.13.01.26.05.39.08,1.89.43,3.73.97,5.46,1.9,1.23.66,2.58,1.11,3.68,1.98,1.12.88,2.38,1.21,3.76,1.25.42.01.79-.12.9-.53.08-.31.03-.68-.04-1-.04-.18-.22-.35-.37-.49-1.22-1.07-2.37-2.23-3.68-3.17-1.33-.94-2.81-1.68-4.23-2.47-1.4-.78-3.01-1.08-4.5-1.62-1.52-.55-3.29-.4-4.9.18-.89.32-1.76.69-2.66,1.05.04-.06.06-.11.1-.14,2.21-1.69,4.66-2.63,7.47-2.28.61.08,1.3.23,1.71.86.15.23.36.48.6.56.59.19,1.21.26,1.81.43,1.59.46,3.17.95,4.75,1.43.23.07.47.13.71.19Zm-19.75,16.99s.05.1.07.14c-.3.18-.61.34-.89.54-1.01.72-2.01,1.45-3,2.2-.2.15-.31.42-.46.63l.16.14c.42-.32.86-.63,1.27-.97,1.2-1,2.49-1.84,4.08-2.03.79-.09,1.59-.24,2.36.25,2.17,1.37,4.6,1.85,7.12,1.81,1.39-.02,2.78-.22,4.15-.43,1.68-.25,3.31-.7,4.74-1.68,1.85-1.28,2.05-2.92.42-4.46-.69-.66-1.55-1.22-2.42-1.61-2.61-1.16-5.4-1.4-8.23-1.34-1.63.03-3.13.4-4.3,1.54-.91.89-1.75,1.88-2.48,2.93-1.02,1.45-2.5,1.66-3.68.34-.45-.5-.81-1.09-1.2-1.63-.13-.18-.27-.37-.4-.55-.06.06-.13.11-.19.17.38,1.3,1.12,2.41,1.99,3.48-.93.57-1.87,1.06-2.48,1.99,1.17-.4,2.1-1.37,3.39-1.45Zm59.12-3.84l-.16-.11c-.19.27-.37.54-.57.8-.53.68-1.03,1.4-1.63,2.01-.57.58-1.34.58-2.02.13-.3-.19-.57-.44-.8-.71-.69-.8-1.34-1.63-2.04-2.42-1.25-1.42-2.79-2.3-4.73-2.28-1.3.01-2.61,0-3.9.14-2.01.2-3.97.68-5.75,1.7-.86.49-1.62,1.11-2.1,2-.58,1.07-.49,1.89.33,2.79.77.83,1.72,1.4,2.79,1.77,2.57.87,5.22,1.13,7.91,1.04,2.27-.07,4.45-.5,6.35-1.86.06-.04.14-.07.21-.08,1.23-.14,2.47-.26,3.58.41.96.58,1.87,1.25,2.79,1.9.33.23.64.5.96.75.06-.06.12-.11.18-.17-.23-.3-.4-.67-.7-.89-1.01-.75-2.05-1.46-3.08-2.18-.21-.15-.43-.28-.64-.42.03-.04.05-.09.08-.13,1.31.13,2.27,1.16,3.51,1.51-.11-.22-.24-.41-.41-.53-.54-.4-1.1-.79-1.66-1.18-.4-.28-.48-.51-.1-.92.81-.86,1.25-1.94,1.61-3.05Zm-1.76-9.27c-.05-.21-.05-.3-.09-.38-.7-1.55-1.47-3-2.96-4.01-2.24-1.52-4.65-2.17-7.32-1.92-.41.04-.81.14-1.2.26-.27.08-.49.31-.76.38-4.39,1.21-8.19,3.38-11.26,6.78-.18.2-.35.4-.49.62-.34.55.05,1.41.69,1.39,1.14-.04,2.28-.05,3.31-.73,1.31-.87,2.65-1.74,4.06-2.41,1.49-.7,3.07-1.2,4.64-1.73.65-.22,1.34-.33,2.01-.48.49-.11.98-.25,1.47-.27.57-.01,1.14.1,1.71.16l-.02.17c-2.43.02-4.72.63-6.94,1.56-2.79,1.17-5.25,2.87-7.46,4.93-.19.18-.42.32-.74.56.07-.23.1-.3.12-.37.1-.34.29-.75-.16-.94-.41-.18-.62.21-.75.51-.38.82-.76,1.63-1.06,2.48-.34.99-.6,2.02-.88,3.03-.04.15.02.32.04.62.22-.25.33-.37.43-.5,1.2-1.43,2.3-2.96,3.61-4.28,4.62-4.67,10.06-7.28,16.81-6.46.11.01.27.04.33-.02.4-.44.62-.09.91.16.53.46,1.1.88,1.95.89Zm-29.19,42.51s0-.05,0-.08c-1.61,0-3.21-.01-4.82,0-1.09.01-2.19.05-3.28.12-.21.01-.42.23-.62.36.19.13.37.35.57.39,1.06.18,2.12.41,3.19.43,3.11.06,6.23.06,9.34,0,1.2-.02,2.39-.25,3.58-.43.24-.04.45-.27.67-.41-.25-.13-.51-.26-.76-.38-.03-.01-.07,0-.11,0-2.59,0-5.17,0-7.76,0Zm8.28-46.56c.03.07.06.15.09.22.25-.06.5-.12.74-.19,1.91-.56,3.82-1.11,5.72-1.7.51-.16,1.07-.33,1.47-.67,1.33-1.14,2.92-1.18,4.45-.96,1.82.26,3.42,1.21,4.87,2.36.32.25.67.47,1,.71.03-.04.07-.08.1-.13-.05-.09-.08-.2-.14-.28-2.29-3.02-5.3-4.22-9.04-3.52-2.64.49-5.03,1.62-7.33,2.96-.66.38-1.29.8-1.94,1.2Zm-12.56,35.04c.23.89.97,1.56,1.96,1.63,1.46.09,2.93.1,4.39,0,.73-.06,1.53-.3,1.9-1.11.06-.14.06-.31.08-.46-.17.02-.37,0-.51.06-1.29.67-2.66,1.13-4.11.96-.99-.12-1.94-.55-2.91-.84-.24-.07-.48-.14-.82-.23Zm11.58.09c-.89.1-1.63.42-2.18,1.05-.16.19-.19.56-.14.83.02.11.41.22.62.21.79-.02,1.53-.27,2.08-.84.2-.21.35-.59.32-.87-.01-.15-.46-.26-.71-.38Zm2.11-6.39c-.69.82-.69.87-.05,1.71.08.1.14.22.24.32,1.01.98,1.05,2.18.76,3.45-.04.18-.06.36-.12.65,1.4-1.21.93-4.27-.83-6.12Zm-17.02,6.46c-.12.06-.53.15-.57.33-.06.25.09.62.28.84.49.59,1.21.73,1.92.83.25.03.52-.1.79-.15-.07-.31-.05-.71-.23-.92-.51-.59-1.22-.85-2.18-.92Zm-1.91-6.33c-1.59,1.29-2.24,5.24-.99,5.89.02-.03.07-.06.06-.08,0-.09-.01-.19-.04-.27-.51-1.53.05-2.8.98-3.97.62-.78.64-.76-.01-1.57Zm13.44-13.94s-.1,0-.14,0c-.03.06-.09.12-.09.18-.08,1.57-.17,3.15-.22,4.73,0,.16.21.47.34.48.19.01.47-.13.57-.3.11-.18.1-.47.08-.7-.1-.99-.22-1.97-.34-2.95-.06-.48-.13-.96-.19-1.44Zm-7.59,5.39c.29-1.15.09-4.86-.3-5.29-.02.11-.05.19-.06.28-.16,1.34-.3,2.69-.47,4.03-.1.78-.02.89.83.98Zm-1.71,12.21c-.02.27.03.53-.06.75-.25.66.27,1.43,1.07,1.45-.06-.32-.11-.63-.16-.94-.05-.33-.09-.66-.13-.92-.27-.13-.47-.23-.73-.35Zm9.93,2.27c.81-.38,1.26-1.58.84-2.16-.76.31-1.19,1.38-.84,2.16Z"/>
        <path class="cls-11" d="m123.4,61.15c.21.14.44.24.61.41,1.2,1.18,2.62,1.87,4.3,2.05.23.02.49.14.65.3.35.37.77.3,1.16.21.9-.22,1.79-.53,2.69-.74,2.06-.49,4.05-1.17,5.91-2.18.58-.31,1.08-.75,1.63-1.11.33-.23.67-.34,1.02,0,.34.32.51.73.24,1.11-.32.44-.71.91-1.18,1.16-2.56,1.34-5.26,2.24-8.19,2.26-.28,0-.57,0-.85.02-.05,0-.09.06-.21.16.49.68.96,1.38,1.48,2.03,1.16,1.46,2.36,2.89,3.54,4.34.33.41.73.61,1.27.61,2.24,0,4.49.06,6.71-.34,1.34-.24,2.37-.94,3.19-1.98.55-.7,1.08-1.41,1.59-2.13.21-.3.39-.39.74-.22,2.18,1.04,4.46.93,6.75.57.48-.08.94-.27,1.39-.46.44-.19.76-.09,1.03.28.49.65.97,1.3,1.48,1.93,1.2,1.48,2.75,2.23,4.67,2.24,1.74.01,3.47.05,5.21.11.6.02,1.08-.19,1.44-.64.94-1.15,1.87-2.32,2.78-3.5.74-.95,1.45-1.92,2.23-2.95-.22-.05-.32-.1-.42-.1-2.98.19-5.67-.81-8.29-2.04-.49-.23-.95-.54-1.37-.88-.38-.31-.57-.75-.32-1.26.32-.64.71-.75,1.29-.32,2.6,1.92,5.54,2.98,8.7,3.53.49.08.95.34,1.44.46.29.07.63.11.91.03.6-.18,1.16-.57,1.77-.66,1.42-.21,2.53-.91,3.52-1.89.22-.22.48-.4.73-.59.06.03.12.06.18.09-.26.92-.48,1.86-.78,2.77-1.9,5.83-5.27,10.85-8.81,15.78-2.06,2.87-4.31,5.58-6.74,8.15-.15.16-.31.3-.47.45l-.13-.11c1.34-1.99,2.7-3.96,4.01-5.97,1.31-2,2.56-4.03,3.84-6.05-.07-.07-.14-.14-.2-.21-2.73,2.43-5.65,4.47-9.38,4.88-.02-.05-.05-.1-.07-.15.26-.11.51-.24.78-.33,2.13-.67,4.17-1.53,5.92-2.96,2.4-1.94,4.5-4.12,5.8-6.98.92-2.02,1.94-3.98,2.92-5.98-.79-.3-1.23-.1-1.64.54-1.64,2.55-3.27,5.11-4.96,7.63-.77,1.14-1.7,2.18-2.92,2.88-.22.12-.48.23-.72.24-3.76.04-7.52.06-11.28.1-.92,0-1.64-.21-2.21-1.04-.9-1.3-1.9-2.53-2.91-3.75-.73-.88-1.23-.85-1.96.05-1.16,1.44-2.3,2.9-3.43,4.36-.22.28-.43.4-.8.4-3.89-.06-7.78-.09-11.67-.13-.83,0-1.53-.28-2.14-.86-1.67-1.54-2.9-3.42-4.1-5.32-1-1.59-1.94-3.23-2.96-4.81-.18-.27-.63-.37-.96-.54-.05.04-.1.09-.14.13.02.17,0,.37.06.52,1.44,3.17,2.69,6.47,4.92,9.19,2.4,2.94,5.35,5.17,9.09,6.22.37.1.72.26,1.09.39l-.05.21c-.55-.1-1.11-.15-1.64-.31-2.57-.78-4.9-2.01-6.85-3.9-.28-.27-.62-.49-1-.66,2.45,4.21,4.94,8.38,7.9,12.23-.03.05-.06.11-.09.16-.13-.06-.3-.09-.4-.19-4.94-5.36-9.28-11.17-12.83-17.54-1.51-2.7-2.67-5.56-3.5-8.54-.07-.24-.07-.5-.1-.75.05-.03.09-.07.14-.1Z"/>
        <path class="cls-11" d="m145.55,29.68c-.24-.06-.48-.12-.71-.19-1.58-.48-3.16-.97-4.75-1.43-.59-.17-1.22-.24-1.81-.43-.24-.08-.45-.33-.6-.56-.41-.63-1.1-.79-1.71-.86-2.81-.35-5.27.59-7.47,2.28-.04.03-.06.09-.1.14.9-.36,1.77-.74,2.66-1.05,1.61-.57,3.38-.72,4.9-.18,1.49.54,3.09.84,4.5,1.62,1.43.8,2.91,1.53,4.23,2.47,1.31.94,2.47,2.1,3.68,3.17.15.13.33.31.37.49.07.33.12.69.04,1-.11.41-.48.54-.9.53-1.38-.04-2.64-.37-3.76-1.25-1.1-.87-2.45-1.32-3.68-1.98-1.73-.93-3.57-1.47-5.46-1.9-.13-.03-.26-.07-.39-.08-1.11-.11-2.21-.25-3.33-.31-.34-.02-.69.18-1.14.31.88,0,1.67-.05,2.44,0,2.09.16,4.03.87,5.94,1.68,2.71,1.16,4.99,2.93,7.1,4.95.12.11.25.21.42.35.09-.56-.38-1.21.46-1.59,1.26,2,1.91,4.19,2.38,6.45-.06.05-.13.09-.19.14-.19-.18-.41-.33-.56-.53-1.29-1.82-2.73-3.52-4.4-5.01-2.93-2.63-6.24-4.58-10.13-5.3-1.61-.3-3.31-.15-4.97-.23-.33-.02-.67-.21-.99-.18-.29.03-.56.25-.84.4-.49.27-.96.57-1.46.83-.15.08-.35.07-.62.12.09-.31.1-.54.21-.72.53-.89,1.08-1.76,1.64-2.64.36-.56.69-1.14,1.1-1.65.82-1.02,1.75-1.92,2.93-2.53,2.19-1.14,4.47-1.06,6.77-.49,2.83.7,5.36,2.07,7.81,3.59.11.07.21.16.31.25.05.04.08.11.12.16-.02.04-.04.09-.06.13Z"/>
        <path class="cls-11" d="m125.8,46.67c-1.29.08-2.22,1.05-3.39,1.45.61-.92,1.55-1.42,2.48-1.99-.87-1.07-1.61-2.18-1.99-3.48.06-.06.13-.11.19-.17.13.18.26.37.4.55.4.55.75,1.13,1.2,1.63,1.18,1.31,2.67,1.11,3.68-.34.73-1.04,1.57-2.04,2.48-2.93,1.17-1.15,2.67-1.51,4.3-1.54,2.83-.06,5.62.18,8.23,1.34.88.39,1.73.95,2.42,1.61,1.63,1.55,1.43,3.18-.42,4.46-1.43.99-3.06,1.43-4.74,1.68-1.38.21-2.77.41-4.15.43-2.52.04-4.95-.44-7.12-1.81-.76-.48-1.57-.34-2.36-.25-1.59.19-2.88,1.03-4.08,2.03-.41.34-.85.65-1.27.97l-.16-.14c.15-.21.26-.48.46-.63.99-.75,1.99-1.48,3-2.2.28-.2.6-.36.89-.54-.02-.05-.05-.1-.07-.14Zm20.3-2.37c-.17-.19-.31-.41-.51-.55-.73-.5-1.45-1.03-2.23-1.44-1.94-1.01-4.04-1.35-6.21-1.45-2.05-.1-3.92.39-5.62,1.52-1,.66-1.61,1.61-1.94,2.76-.16.55,0,.96.45,1.2.68.35,1.37.72,2.1.92,2.41.65,4.89.71,7.36.54,1.39-.1,2.78-.44,4.14-.79.76-.19,1.45-.63,2.17-.96-.1-.16-.14-.19-.17-.18-.56.16-1.11.35-1.68.49-3.43.8-6.89.77-10.34.3-.98-.13-1.93-.59-2.86-.99-.48-.2-.5-.63-.15-1.02.22-.25.48-.48.75-.69,2.6-1.98,5.54-2.52,8.71-1.98,2.15.37,4,1.48,6.01,2.32Z"/>
        <path class="cls-11" d="m184.92,42.82c-.35,1.11-.8,2.18-1.61,3.05-.39.41-.31.65.1.92.56.38,1.11.77,1.66,1.18.17.13.3.31.41.53-1.24-.35-2.19-1.37-3.51-1.51-.03.04-.05.09-.08.13.21.14.43.27.64.42,1.03.72,2.08,1.42,3.08,2.18.29.22.47.59.7.89-.06.06-.12.11-.18.17-.32-.25-.63-.52-.96-.75-.92-.64-1.83-1.32-2.79-1.9-1.11-.67-2.36-.55-3.58-.41-.07,0-.15.03-.21.08-1.9,1.36-4.08,1.79-6.35,1.86-2.69.09-5.34-.17-7.91-1.04-1.07-.36-2.02-.93-2.79-1.77-.82-.89-.91-1.72-.33-2.79.49-.89,1.24-1.51,2.1-2,1.78-1.02,3.73-1.5,5.75-1.7,1.29-.13,2.6-.12,3.9-.14,1.94-.02,3.48.86,4.73,2.28.7.79,1.35,1.63,2.04,2.42.23.27.51.51.8.71.68.45,1.45.45,2.02-.13.6-.61,1.1-1.33,1.63-2.01.2-.26.38-.53.57-.8l.16.11Zm-23.14,2.11c1.08-.58,1.98-1.12,2.93-1.55,4.09-1.86,8.06-1.82,11.8.91.41.3.95.8.95,1.21,0,.59-.74.77-1.26.96-1.66.6-3.4.88-5.15.89-1.75,0-3.5-.14-5.24-.34-1.18-.14-2.39-.35-3.43-1.04-.11-.07-.28-.06-.43-.08.07.13.1.33.21.39.68.39,1.35.86,2.08,1.09,3.8,1.19,7.64,1.24,11.47.15.8-.23,1.55-.63,2.3-1.01.29-.15.35-.43.25-.81-.57-2.13-2.07-3.3-4.04-3.99-2.53-.89-5.05-.6-7.56.09-1.58.43-3.02,1.16-4.27,2.23-.24.21-.38.54-.62.91Z"/>
        <path class="cls-11" d="m183.16,33.55c-.85,0-1.42-.42-1.95-.89-.29-.25-.51-.59-.91-.16-.05.06-.22.03-.33.02-6.74-.82-12.19,1.79-16.81,6.46-1.31,1.32-2.41,2.85-3.61,4.28-.11.13-.21.25-.43.5-.02-.3-.08-.48-.04-.62.28-1.01.53-2.04.88-3.03.29-.85.68-1.66,1.06-2.48.14-.3.34-.68.75-.51.45.19.26.6.16.94-.02.07-.04.14-.12.37.33-.24.55-.38.74-.56,2.21-2.06,4.66-3.75,7.46-4.93,2.22-.93,4.51-1.54,6.94-1.56l.02-.17c-.57-.06-1.14-.17-1.71-.16-.49.01-.99.16-1.47.27-.67.15-1.36.25-2.01.48-1.56.54-3.15,1.03-4.64,1.73-1.42.67-2.75,1.54-4.06,2.41-1.03.68-2.17.69-3.31.73-.64.02-1.03-.84-.69-1.39.14-.22.32-.42.49-.62,3.06-3.4,6.87-5.57,11.26-6.78.27-.07.5-.3.76-.38.39-.12.79-.22,1.2-.26,2.67-.25,5.08.4,7.32,1.92,1.49,1.01,2.27,2.46,2.96,4.01.04.08.04.18.09.38Z"/>
        <path class="cls-11" d="m153.97,76.07c2.59,0,5.17,0,7.76,0,.04,0,.08-.01.11,0,.26.12.51.25.76.38-.22.14-.43.37-.67.41-1.19.18-2.39.41-3.58.43-3.11.06-6.23.06-9.34,0-1.07-.02-2.13-.25-3.19-.43-.21-.03-.38-.25-.57-.39.21-.12.41-.34.62-.36,1.09-.07,2.19-.11,3.28-.12,1.61-.02,3.21,0,4.82,0,0,.03,0,.05,0,.08Z"/>
        <path class="cls-11" d="m162.25,29.51c.65-.4,1.28-.82,1.94-1.2,2.3-1.33,4.69-2.46,7.33-2.96,3.74-.7,6.74.51,9.04,3.52.06.08.09.19.14.28-.03.04-.07.08-.1.13-.34-.23-.68-.45-1-.71-1.45-1.15-3.05-2.1-4.87-2.36-1.53-.22-3.12-.18-4.45.96-.39.34-.96.51-1.47.67-1.9.59-3.81,1.14-5.72,1.7-.24.07-.49.13-.74.19-.03-.07-.06-.15-.09-.22Z"/>
        <path class="cls-11" d="m149.69,64.54c.33.09.58.16.82.23.97.29,1.92.72,2.91.84,1.44.17,2.82-.28,4.11-.96.14-.07.34-.05.51-.06-.03.16-.02.33-.08.46-.37.81-1.17,1.05-1.9,1.11-1.46.11-2.93.1-4.39,0-.99-.06-1.73-.74-1.96-1.63Z"/>
        <path class="cls-11" d="m161.26,64.63c.25.13.7.23.71.38.03.28-.12.66-.32.87-.55.58-1.29.82-2.08.84-.22,0-.6-.1-.62-.21-.05-.26-.02-.64.14-.83.55-.64,1.28-.95,2.18-1.05Z"/>
        <path class="cls-11" d="m163.38,58.24c1.76,1.85,2.23,4.91.83,6.12.05-.29.07-.47.12-.65.29-1.27.25-2.46-.76-3.45-.09-.09-.16-.21-.24-.32-.64-.85-.64-.89.05-1.71Z"/>
        <path class="cls-11" d="m146.35,64.7c.96.07,1.67.33,2.18.92.18.22.16.61.23.92-.26.06-.54.19-.79.15-.71-.09-1.43-.24-1.92-.83-.18-.22-.33-.59-.28-.84.04-.18.45-.27.57-.33Z"/>
        <path class="cls-11" d="m144.44,58.38c.65.81.63.79.01,1.57-.93,1.17-1.49,2.44-.98,3.97.03.09.04.18.04.27,0,.03-.04.06-.07.08-1.25-.65-.6-4.61.99-5.89Z"/>
        <path class="cls-11" d="m157.88,44.44c.07.48.14.96.19,1.44.12.98.24,1.97.34,2.95.02.23.03.52-.08.7-.1.17-.38.31-.57.3-.13,0-.34-.31-.34-.48.05-1.58.14-3.15.22-4.73,0-.06.06-.12.09-.18.05,0,.1,0,.14,0Z"/>
        <path class="cls-11" d="m150.29,49.83c-.85-.09-.93-.2-.83-.98.17-1.34.31-2.69.47-4.03.01-.09.04-.17.06-.28.4.43.59,4.14.3,5.29Z"/>
        <path class="cls-11" d="m148.58,62.05c.25.12.46.22.73.35.04.26.08.59.13.92.05.31.11.62.16.94-.8-.02-1.32-.8-1.07-1.45.08-.22.04-.48.06-.75Z"/>
        <path class="cls-11" d="m158.51,64.32c-.35-.77.08-1.85.84-2.16.42.58-.02,1.78-.84,2.16Z"/>
        <path class="cls-1" d="m146.1,44.3c-2.01-.84-3.87-1.95-6.01-2.32-3.17-.55-6.11,0-8.71,1.98-.27.2-.52.43-.75.69-.35.39-.33.82.15,1.02.93.39,1.87.85,2.86.99,3.45.48,6.92.5,10.34-.3.57-.13,1.12-.33,1.68-.49.03,0,.06.02.17.18-.72.33-1.42.77-2.17.96-1.36.35-2.75.69-4.14.79-2.47.18-4.95.11-7.36-.54-.73-.2-1.43-.57-2.1-.92-.46-.24-.61-.65-.45-1.2.33-1.15.94-2.1,1.94-2.76,1.7-1.12,3.57-1.62,5.62-1.52,2.17.1,4.27.44,6.21,1.45.78.41,1.5.94,2.23,1.44.2.14.34.37.51.55Z"/>
        <path class="cls-1" d="m161.78,44.93c.25-.37.38-.7.62-.91,1.25-1.06,2.7-1.8,4.27-2.23,2.5-.69,5.03-.98,7.56-.09,1.97.69,3.47,1.86,4.04,3.99.1.39.04.67-.25.81-.75.37-1.5.78-2.3,1.01-3.83,1.09-7.67,1.04-11.47-.15-.74-.23-1.4-.7-2.08-1.09-.11-.06-.15-.26-.21-.39.14.02.32,0,.43.08,1.04.69,2.24.9,3.43,1.04,1.74.2,3.49.35,5.24.34,1.75,0,3.49-.29,5.15-.89.52-.19,1.27-.37,1.26-.96,0-.41-.54-.9-.95-1.21-3.73-2.73-7.71-2.77-11.8-.91-.95.43-1.85.97-2.93,1.55Z"/>
      </g>
    </g>
    <g>
      <path class="cls-4" d="m182.05,93.4c-2.24-2.42-5.88-2.9-8.52-.53-2.65,2.37-2.9,7.85.21,11.15,8.85,9.7,21.2,13.95,34.1,11.78,4.49-.74,7.72-5.12,7.03-8.69-.68-3.56-3.81-5.35-7.04-4.81-9.68,1.52-19.06-1.64-25.78-8.91Z"/>
      <g>
        <path class="cls-4" d="m217.61,100.77c.69-.63,1.65-1.04,2.25-.67s.62,1.6-.05,2.56c-1.85,2.7-4.65,4.73-7.86,5.81-1.21.34-2.34-.47-2.28-1.8-.1-1.31.56-2.27,1.37-2.5,2.37-.27,4.75-1.44,6.57-3.4Z"/>
        <path class="cls-4" d="m212.84,97.77c.34-.93.94-1.64,1.69-1.61s1.32,1.13,1.09,2.3c-.49,3.25-1.97,6.41-4.42,8.75-.92.9-2.25.67-2.92-.51-.67-1.18-.6-2.34.11-2.81,2.11-1.4,3.67-3.58,4.46-6.12Z"/>
        <path class="cls-4" d="m220.21,105.59c.87-.48,1.85-.56,2.3-.02s.22,1.71-.71,2.44c-2.55,2.09-5.75,3.33-9.2,3.44-1.23.01-2.07-1.16-1.75-2.42s1.16-2.07,1.99-1.97c2.49.3,5.1-.07,7.38-1.49Z"/>
      </g>
    </g>
    <g>
      <path class="cls-4" d="m123.96,94.76c2.24-2.42,5.88-2.9,8.52-.53,2.65,2.37,2.9,7.85-.21,11.15-8.85,9.7-21.2,13.95-34.1,11.78-4.49-.74-7.72-5.12-7.03-8.69.68-3.56,3.81-5.35,7.04-4.81,9.68,1.52,19.06-1.64,25.78-8.91Z"/>
      <g>
        <path class="cls-4" d="m88.4,102.12c-.69-.63-1.65-1.04-2.25-.67s-.62,1.6.05,2.56c1.85,2.7,4.65,4.73,7.86,5.81,1.21.34,2.34-.47,2.28-1.8.1-1.31-.56-2.27-1.37-2.5-2.37-.27-4.75-1.44-6.57-3.4Z"/>
        <path class="cls-4" d="m93.16,99.12c-.34-.93-.94-1.64-1.69-1.61s-1.32,1.13-1.09,2.3c.49,3.25,1.97,6.41,4.42,8.75.92.9,2.25.67,2.92-.51.67-1.18.6-2.34-.11-2.81-2.11-1.4-3.67-3.58-4.46-6.12Z"/>
        <path class="cls-4" d="m85.79,106.94c-.87-.48-1.85-.56-2.3-.02-.45.54-.22,1.71.71,2.44,2.55,2.09,5.75,3.33,9.2,3.44,1.23.01,2.07-1.16,1.75-2.42-.31-1.26-1.16-2.07-1.99-1.97-2.49.3-5.1-.07-7.38-1.49Z"/>
      </g>
    </g>
  </g>
</svg>