<?xml version="1.0" encoding="UTF-8"?>
<svg id="Layer_1" data-name="Layer 1" xmlns="http://www.w3.org/2000/svg" width="300" height="225" viewBox="0 0 300 225">
  <defs>
    <style>
      .cls-1 {
        fill: #fff;
      }

      .cls-2 {
        isolation: isolate;
        opacity: .35;
      }

      .cls-3 {
        fill: #232323;
      }

      .cls-4 {
        fill: #ff7e1c;
      }

      .cls-5 {
        clip-path: url(#clippath);
      }

      .cls-6 {
        fill: none;
      }

      .cls-7 {
        fill: #ea651b;
      }
    </style>
    <clipPath id="clippath">
      <path class="cls-6" d="m84.6,144.68s.11-20.73,3.65-29.43c3.54-8.7,9.57-26.1,25.3-33.51,15.16-7.15,13.37-3.51,31.46-3.7s38.03,16.48,40.45,17.64c2.42,1.16,14.16-.89,14.16-.89,0,0,.21,1.58.21-2.87s74.59-68.62,31.85-72.02c-42.74-3.4-96.42.78-119.94,5.75-23.53,4.97-55.26,21.97-61.61,34.78s.96,44.43,4.91,53.99c3.96,9.56,17.95,28.45,19.78,30.25,1.83,1.8,9.78,0,9.78,0Z"/>
    </clipPath>
  </defs>
  <g>
    <g>
      <path class="cls-7" d="m272.98,117.9c-1.76,0-3.28.96-4.11,2.38h-46.95c.23,1.57.42,3.16.54,4.77h46.41c.82,1.42,2.35,2.38,4.11,2.38,2.63,0,4.77-2.13,4.77-4.77,0-2.63-2.14-4.77-4.77-4.77Z"/>
      <path class="cls-7" d="m231.49,141.1l6.57,17.52c.35.93,1.24,1.55,2.23,1.55h12.58c.82,1.42,2.35,2.38,4.11,2.38,2.63,0,4.77-2.13,4.77-4.77s-2.13-4.77-4.77-4.77c-1.76,0-3.28.97-4.11,2.38h-10.93l-5.36-14.3h6.75c.83,1.42,2.35,2.38,4.11,2.38,2.63,0,4.77-2.13,4.77-4.77s-2.13-4.77-4.77-4.77c-1.76,0-3.28.96-4.11,2.38h-20.88c-.13,1.6-.31,3.2-.55,4.77h9.59Z"/>
      <path class="cls-4" d="m60.39,154.3c-.83-1.42-2.35-2.38-4.11-2.38-2.63,0-4.77,2.13-4.77,4.77s2.13,4.77,4.77,4.77c1.76,0,3.28-.97,4.11-2.38h26.82c-.69-1.56-1.33-3.15-1.91-4.77h-24.91Z"/>
      <path class="cls-4" d="m97.51,159.07v-4.77h-8.97c.6,1.62,1.28,3.21,2,4.77h6.97Z"/>
      <path class="cls-4" d="m93.48,116.8v-4.77h-6.61c-.44,1.57-.83,3.16-1.17,4.77h7.77Z"/>
      <path class="cls-4" d="m62.18,112.03l-6.57-17.52c-.35-.93-1.24-1.55-2.23-1.55h-20.58c-.83-1.42-2.35-2.38-4.11-2.38-2.63,0-4.77,2.13-4.77,4.77s2.13,4.77,4.77,4.77c1.76,0,3.28-.97,4.11-2.38h18.93l5.36,14.3h-6.75c-.83-1.42-2.35-2.38-4.11-2.38-2.64,0-4.77,2.13-4.77,4.77s2.13,4.77,4.77,4.77c1.76,0,3.28-.97,4.11-2.38h20.84l2.73-1.53-1.01-3.24h-10.71Z"/>
      <path class="cls-4" d="m84.36,133.41h4.35v-4.77h-4.38c-.02.65-.04,1.3-.04,1.96,0,.94.03,1.88.07,2.81Z"/>
      <path class="cls-4" d="m76.76,128.64h-12.29c-.63,0-1.24.25-1.68.7l-8.84,8.84h-22.82c-.83-1.42-2.35-2.38-4.11-2.38-2.63,0-4.77,2.13-4.77,4.77s2.13,4.77,4.77,4.77c1.76,0,3.28-.96,4.11-2.38h23.81c.63,0,1.24-.25,1.68-.7l8.84-8.84h11.32c-.01-.28-.03-.84-.03-.84l1.55-1.19-1.59-.78s.02-1.31.04-1.96Z"/>
      <path class="cls-7" d="m239.53,111.52c.64,0,1.24-.25,1.69-.7l8.84-8.84h6.83c.82,1.42,2.35,2.38,4.11,2.38,2.64,0,4.77-2.13,4.77-4.77s-2.13-4.77-4.77-4.77c-1.76,0-3.28.96-4.11,2.38h-7.81c-.63,0-1.24.25-1.68.7l-8.84,8.84h-20.01c.57,1.56,1.06,3.16,1.52,4.77h19.48Z"/>
    </g>
    <g class="cls-2">
      <ellipse class="cls-3" cx="152.29" cy="197.47" rx="54.89" ry="8.86"/>
    </g>
    <g>
      <path class="cls-4" d="m166.77,64.16c.42.1.85.19,1.27.29-.42-.1-.84-.2-1.27-.29Z"/>
      <path class="cls-4" d="m150.01,62.79c-7.87.2-15.39,1.76-22.36,4.4l-27.95,15.33c-11.5,12.54-16.37,31.66-15.89,50.01.78,30.14,21.07,55.19,48.47,63.38,41.42-4.88,73.04-40.63,71.93-83.14-.32-12.08-3.24-23.47-8.22-33.66-12.33-10.56-28.47-16.77-45.98-16.32Z"/>
    </g>
    <path class="cls-7" d="m132.28,195.91c6.72,2.01,13.87,3.01,21.26,2.82,37.54-.98,67.18-32.2,66.2-69.74-.52-20.03-9.65-37.8-23.76-49.88,4.98,10.19,7.91,21.58,8.22,33.66,1.1,42.51-30.51,78.27-71.93,83.15Z"/>
    <g class="cls-5">
      <g>
        <path class="cls-4" d="m166.69,28.81c-.24.67-.48,1.34-.82,2.28,3.3-.94,6.61-.23,9.83-1.31,1.61-.54,4.26-1.97,5.55.85.04.08.34.07.52.09,4.69.49,9.38,1.02,14.08,1.44,1.64.15,3.32.02,5.32.02.23,2.04.5,4.38.76,6.71.18.08.36.15.54.23,1.32-2.01,2.64-4.02,4.26-6.47.42,1.21.73,2.09,1.08,3.08.59-.4,1.26-.85,2.51-1.68-.11,1.82-.19,3.04-.27,4.41,1.41-.64,2.79-1.27,4.16-1.9.16.12.32.25.48.37-1.02,2.31-2.05,4.62-3.07,6.94l.71.39c1.59-1.77,3.17-3.53,4.76-5.3.24.09.48.17.71.26v3.86c2.07-.53,3.95-1.02,5.83-1.5.17.22.35.44.52.66-1.01,1.06-2.01,2.12-3.17,3.35,3.76.67,8.43-1.22,10.69,2.39-5.4,6.03-11.21,11.52-15.65,17.74-5.32,7.46-9.46,15.54-14.15,23.34-.8,1.33-.5,2.26.6,3.42,9.86,10.36,15.45,22.29,17.37,35.54.12.82.49,1.76,1.11,2.37,4.09,4.03,3.84,8.47,1.71,13.04-.89,1.92-2.23,3.67-3.27,5.54-1.2,2.16-2.4,4.32-3.39,6.55-1.2,2.71-1.03,5.38,1.41,7.6,3.96,3.6,3.9,7.47,1.43,11.67-1.59,2.71-2.87,5.55-4.35,8.3-2.95,5.48-2.3,11.44-3.12,17.2-1.08,7.61-2.03,15.24-3.44,22.81-.81,4.33-3.64,6.25-7.88,6.57-1.78.13-2.59-.33-2.62-1.91-.09-4.8-.26-9.59-.37-14.39-.04-1.74,0-3.49,0-5.37-7.96.8-15.58,1.56-23.62,2.36-.75,8.02-1.52,16.27-2.29,24.53h-4.47c-2.09-.63-4.16-1.3-6.27-1.86-1.97-.52-2.91-1.54-3.36-3.34-2.47-9.91-5.06-19.8-7.73-29.68-1.78-6.61-1.87-6.59-9.49-8.14-2.8-.57-5.64-1.03-8.41-1.72-2.83-.7-5.25-1.96-6.73-4.34-.31-.49-1.43-.95-2.1-.88-8.18.9-16.03,2.79-23.21,6.35-.76.37-1.26,1.45-1.46,2.28-1.02,4.2-5.88,7.29-11.19,7-5.89-.33-9.97-3.53-10.16-8.13-.03-.71.47-1.82,1.11-2.1,7.88-3.36,10.5-9.39,11.29-16.29,1.14-9.99-1.24-19.75-2.99-29.54-.37-2.05-.93-4.09-1.12-6.15-.2-2.17-1.05-3.79-3.44-4.76-.67-.27-1.09-.98-1.75-1.6.72-.32,1.16-.52,2.06-.92-1.17-.51-2.02-.88-2.89-1.26q.5-2.3-4.81-8.74c.77-.16,1.44-.31,2.49-.53-1.34-.92-2.37-1.62-3.87-2.64,1.57-.61,2.61-1.01,3.89-1.5-.49-1.16-1.01-2.38-1.67-3.92,1.05.31,1.73.52,2.79.83-1.18-2.14-2.19-3.97-3.41-6.18,1.52.17,2.56.29,3.75.42-.54-1.6-1.03-3.06-1.58-4.69.87.11,1.3.17,1.83.23-.36-2.29-.72-4.54-1.14-7.17,1.04.41,1.58.63,2.13.85.09-.1.24-.2.27-.31.79-3.36,1.48-6.73,2.41-10.06.17-.6,1.27-1.01,1.94-1.5.36.11.73.22,1.09.34-.68-2.2-1.37-4.41-2.14-6.88.75.14,1.7.31,2.52.46.63-1.79,1.3-3.72,2.02-5.79,1,.11,1.78.2,2.83.32-.12-1.77-.24-3.5-.38-5.54,1.14.7,2.18,1.34,3.89,2.39-.63-2.03-1.09-3.47-1.67-5.33,1.36.41,2.25.68,3.12.94,1.66-3.39,3.29-6.73,5.02-10.25.54.34.99.64,1.22.78,1.76-1.2,3.49-2.37,5.22-3.54.23.16.45.32.68.48v-3.97c.2-.12.41-.23.61-.35.78.67,1.56,1.33,2.35,2,1.96-.88,1.93-3.86,4.48-4.34.21.18.43.36.64.54.52-1.08,1.04-2.15,1.33-2.76,1.86-.47,3.39-.65,4.65-1.23,1.92-.89,3.4-2.3,6.07-1.83.72.12,1.95-1.96,3.17-3.27.85.54,1.92,1.22,3.18,2.01,1.27-1.57,2.5-3.1,3.74-4.63.25.08.5.16.75.25.24,1.12.48,2.25.71,3.37.17.06.35.12.52.17.73-1.47,1.45-2.94,1.91-3.86,2.67-.94,4.9-1.8,7.19-2.51,2.16-.67,4.36-1.26,6.58-1.73.39-.08.99.57,1.91,1.13,1.82-.92,4.32-2.19,6.81-3.45.93,0,1.86,0,2.79,0Zm9.01,120.01c-.18.15-.35.3-.53.45-3.32-1.58-6.54-3.33-9.97-4.69-3.44-1.37-7.01-2.59-10.66-3.46-7.19-1.71-14.19-1.49-20.47,2.58-1.23.8-1.69,1.5-1.17,3,.95,2.73,1.44,5.6,1.94,8.43,1.47,8.33,2.36,12.15,14.06,15.04,2.12.52,4.21,1.16,6.58,1.82-2.41,1.47-5.9,1.14-6.72,4.13,1.97,1.06,3.86,2.07,5.75,3.09-.17.32-.34.64-.51.97-2.74-.81-5.6-1.4-8.17-2.5-2.66-1.14-5.04-2.78-7.54-4.21,6.97,8.12,16.32,9.83,27.59,7.08.99,12.47,1.96,24.63,2.93,36.78-2.42-6.99-3.91-14.07-6.3-20.92-2.75-7.89-1.02-7.7-12.79-7.54-1.22.02-2.83-.42-3.61-1.16-3-2.83-5.81-5.83-8.56-8.84-3.38-3.69-6.85-7.25-12.53-9.46,3.44,7.28,8.54,12.97,14.97,18.64-1.7-.2-2.69-.28-3.64-.45-5.82-1.04-8.86-4.82-12.05-8.67-2.49-3.02-5.31-6-8.65-8.29-3.27-2.24-5.26-4.74-5.41-8.19-.18-4.07.04-8.15-.03-12.23-.06-3.49-1.2-6.68-4.52-8.92-2.82-1.91-6.13-2.97-9.64-1.8-3.26,1.09-4.36,3.81-4.26,6.5.16,4.44.51,8.93,1.46,13.29,1.62,7.38,4.06,14.63,3.58,22.25-.28,4.45-1.32,8.73-4.53,12.39-3.48,3.98-7.01,3.86-10.36-.3,1.94-3.35,5.61-5.99,5.66-10.13-1.49,4.22-5,6.97-9.18,9.1.53.85.87,1.43,1.24,1.97,4.36,6.31,9.43,6.56,14.38.55,5.24-6.37,6.5-13.52,4.66-21.04-1.44-5.85-3.6-11.59-4.81-17.47-.75-3.63-.7-7.48-.29-11.16.4-3.65,3.43-5.35,7.18-4.78,2.7.41,4.51,1.92,4.89,4.07.77,4.41,1.22,8.86,1.54,13.32.39,5.36,2.66,10.06,6.98,13.77,4.92,4.22,9.2,8.79,12.73,13.9,1.37,1.98,3.31,2.74,5.85,3.12,4.29.65,8.54,1.52,12.78,2.39,2.13.44,3.34,1.55,3.87,3.55,2.85,10.9,6.03,21.75,8.74,32.67.74,2.97,2.5,4.44,5.57,5.22,1.41.36,2.84.68,4.83,1.15.42-4.48.79-8.68,1.21-12.87.43-4.28.91-8.55,1.4-13.17,11.45,1.86,21.8-.09,31.86-4.55v23.84c2.95-4.4,4.34-9.36,4.96-14.42.97-7.95,1.47-15.94,2.35-23.91.24-2.17.86-4.37,1.77-6.4,1.87-4.14,4.11-8.16,6.06-12.28.28-.58.08-1.56-.34-2.12-2.31-3.11-3.56-6.49-3.71-10.16-.09-2.28-.02-4.56-.02-6.86-6,.49-11.32,2.65-13.02,5.29,3.95-.7,7.79-1.37,12.24-2.16-.41,2.2-.13,4.25-1.16,5.53-2.15,2.67-4.99,4.93-7.53,7.33q2.2,1.49,8.94-3.44c2.61,2.57,3.51,5.51,1.32,8.83-4.8,7.27-6.49,15.03-6.26,23.23,0,.32,0,.65-.09.96-.49,1.66-1,3.31-1.5,4.96-.15-.03-.29-.07-.44-.1-.37-2.16-.74-4.33-1.1-6.49-4.21,8.64-17.52,14.25-26.96,11.23,2.19-.59,4.33-1.36,6.57-1.73,1.98-.33,2.6-1.37,2.72-2.8.3-3.34.7-6.72-2.69-9.92,2.32.31,3.89.51,5.47.72-5.01-3.65-10.93-3.87-17.16-3.42.3-1.65.35-3.03.82-4.29,2.15-5.69,4.5-11.32,6.6-17.01,1.2-3.26,2.06-6.62,3.07-9.94-.28-.08-.56-.16-.83-.23-1.2,3.51-3.56,6.27-6.99,8.37-8.8,5.37-23.37,5.4-32.19.06-7.37-4.46-10.45-12.2-7.51-18.96,15.99-.77,30.45,5.63,46.08,7.78v-3.47c1.02.64,1.69,1.25,2.52,1.55,1.73.61,3.64,1.64,5.28,1.42,1.97-.27,3.53-4.13,2.88-6.27-.47-1.52-1.22-3.04-2.2-4.36-1.19-1.61-2.76-3.01-4.18-4.49-1.35-1.42-2.71-2.84-4.06-4.26.2-.16.4-.32.6-.48,1.91,1.35,3.8,2.71,5.73,4.03,4.12,2.82,8.9,2.18,11.74-1.65.74-.99,1.25-2.14,1.66-3.28,2.31-6.36.9-12.47-1.7-18.51-2.54-5.88-5.95-11.65-3.03-18.52-1.97-.12-3.56-.21-5.75-.34.19,3.58.37,6.76.54,9.97-1.8-.24-4.24-.58-6.26-.85-1.1-3.31,2.78-6.38-.9-9.54-.36,2.06-.73,4.11-1.18,6.66-1.06-1.15-1.75-1.95-2.49-2.71-12.73-13.09-28.19-21.43-48.84-20.79-7.77.24-21.66,5.9-26.67,10.91,4.37-2.06,8.73-4.15,13.11-6.19,7.43-3.45,15.38-4.17,23.57-2.98,14.4,2.09,25.79,8.68,35.35,17.88.68.65,1.27,1.38,1.88,2.08.53.61,1.02,1.25,1.53,1.88-4.85-3.64-10.23-6.05-16.44-7.01-7.64-1.18-14.48.08-19.77,5.34-3.03,3.01-2.93,4.93.42,7.65,1.68,1.36,3.66,2.46,5.48,3.7,6.19,4.21,12.39,8.42,18.55,12.66.57.39.97.97,1.45,1.46-3.78-1.92-7.22-4.12-10.85-6.04-8.22-4.36-16.99-6.38-26.25-2.82-7.29,2.8-13.44,7.16-18.86,12.19-4.34,4.03-4.51,6.56-1.46,11.5,1.34,2.17,2.61,4.37,3.88,6.5-7.05,4.93-7.77,14.51-1.28,17.3-1.07-3.71-1.37-7.18,3.12-9.32,3.74-1.78,6.76-.54,9.78,2.33-.73-3.09-1.31-5.56-1.93-8.17-1.51.3-2.68.52-3.84.77-1.23.27-2.44.57-4.4,1.04,1.07-1.22,1.54-2.05,2.3-2.57,2.94-2.01,3.16-4.49,2.09-7.33-.76-2.05-1.53-4.12-2.01-6.22-.82-3.64,1.71-7.09,5.88-8.27-.28,1.02-.87,2.04-.77,3.01.37,3.46.84,6.93,1.61,10.33.13.58,1.94.88,2.98,1.32.24-.88.72-1.78.64-2.64-.07-.83-.75-1.62-1.1-2.44-2.5-5.77.55-11.93,7.11-14.39,4.02-1.51,8.23-2.03,12.55-1.61,4.4.43,8.12,2.12,11.64,5.28-4.73-1.1-8.83-1.61-12.93-.24-4.47,1.5-5.45,5.18-1.91,7.89,2.13,1.64,4.55,3.06,7.04,4.28,5.33,2.6,10.84,4.93,16.18,7.53,1.87.91,3.42,2.3,5.12,3.47Zm-31.15-81.57c1.72-7.65,2.39-15.5,6.28-22.71-.13,1.59-.64,3.12-.84,4.69-.21,1.66-.14,3.36-.17,5.04-.02,1.48,0,2.96,0,4.45,2.33-11.21,3.72-15.52,6.34-17.61-2.73,7.36-3.28,14.71-2.83,22.4,1.29-3.79,2.49-7.3,3.69-10.81.29,2.03-.06,3.91-.32,5.79-.25,1.83-.49,3.66-.59,5.49-.1,1.83-.02,3.67-.02,5.51.17,0,.35,0,.52,0,1.4-4.31,2.81-8.63,4.21-12.94.17.05.33.09.5.14v10.93c.09,0,.18.01.27.02.47-1.43.94-2.86,1.41-4.29.23.06.47.12.7.17.29,1.02.59,2.03.89,3.09,1.24-3.95,2.44-7.76,3.64-11.57.24.04.48.09.71.13-.65,4.63-3.23,9.13-1.69,14.06,2.47-5.94,4.88-11.74,7.3-17.53-2.37,7.98-4.24,15.92-2.15,24.25.37-1.51.75-3.01,1.06-4.28.61,2.55,1.24,5.21,1.87,7.88.3-.04.59-.09.89-.13.34-1.46.68-2.92,1.06-4.52.96,2.5,1.81,4.71,2.66,6.92-.92-10.92,1.07-21.09,7.63-30.48-4.8,10.7-5.1,21.6-2.26,32.65,2.08-8.25,4.03-16.5,9.07-23.88-.53,1.93-1.3,3.8-1.97,5.7-.65,1.83-1.25,3.67-1.79,5.52-.56,1.94-1.12,3.88-1.49,5.84-.35,1.87-.45,3.77-.67,5.65,3.58-14.35,11.65-27.24,17.37-40.85-.22-.16-.44-.31-.67-.47-.39.63-.79,1.26-1.18,1.89-.05-.07-.09-.14-.14-.21.39-1.18.77-2.37,1.16-3.55-.23-.07-.46-.14-.7-.21-2.13,2.54-4.26,5.08-6.39,7.63.29-3.76,2.17-7.2,1.21-11.23-1.5,1.52-2.69,2.73-3.87,3.93-.14-.1-.27-.2-.41-.3.74-1.74,1.48-3.48,2.25-5.3-3.82-.84-4.83,1.91-7.44,3.72.86-1.61,1.38-2.57,1.89-3.54-.16-.07-.32-.14-.48-.21-1.5,1.07-3,2.15-4.9,3.52.55-1.59.93-2.7,1.31-3.8-.23-.11-.45-.21-.68-.32-2.69,3.27-5.38,6.53-8.08,9.8-.13-.06-.26-.11-.39-.17,2.13-3.54,4.26-7.09,6.68-11.12-1.68.66-2.92.98-3.95,1.58-4.86,2.82-5.65,7.88-8.94,11.67,1.48-4.47,2.96-8.93,4.48-13.53-5.16.24-6.42,4.15-9.52,6.93.58-1.9,1.01-3.32,1.44-4.74-.12-.04-.24-.08-.36-.13-.59.7-1.19,1.4-2.06,2.43.23-1.13.37-1.83.51-2.53-.21-.07-.43-.15-.64-.22-1.92,3.21-3.84,6.42-5.76,9.63-.12-.03-.25-.05-.37-.08,1.03-3.76,2.06-7.52,3.1-11.29-.33-.1-.66-.21-.98-.31-1.71,2-3.42,4.01-5.24,6.15-.42-.66-.71-1.12-1.08-1.71-1.33,1.42-2.47,2.62-3.6,3.82-.12-.05-.24-.11-.36-.16.31-.97.61-1.93.92-2.9-.16-.04-.33-.08-.49-.12-.55.75-1.09,1.5-1.97,2.7-.13-1.21-.2-1.85-.3-2.75-1.04,1.6-1.93,2.96-2.81,4.31-.21-.06-.42-.13-.63-.19.39-1.69.78-3.38,1.17-5.06-.18-.06-.37-.12-.55-.18-1.09,1.85-2.18,3.7-3.38,5.73-.53-.67-.86-1.09-1.13-1.43-1.25,2.34-2.46,4.62-3.68,6.89-.21-.07-.42-.14-.63-.2.26-1.17.52-2.34.77-3.51l-.73-.24c-1.57,3-3.13,6-4.7,9-.25-.08-.5-.16-.76-.24,1.16-3.57,2.32-7.14,3.49-10.72-.24-.07-.49-.14-.73-.21-1.45,2.26-2.9,4.52-4.7,7.33.11-1.95.18-3.27.25-4.59-.18-.01-.37-.02-.55-.04-.58,1.81-1.17,3.63-1.75,5.44-.22-.05-.44-.09-.66-.14.12-1.01.25-2.02.37-3.03l-.38-.06c-.48,1.27-.95,2.54-1.62,4.32-.44-1.11-.65-1.64-1-2.53-.54,2.85-1.01,5.28-1.47,7.7-.13-.01-.26-.03-.39-.04.23-3.55.46-7.11.69-10.66-.29-.02-.58-.04-.87-.06-.32,1.08-.63,2.17-1.04,3.58-.57-.93-.92-1.5-1.32-2.15-4.07,5.22-3.25,19.76,1.1,23.19v-15.23c1.05,4.11,2.24,8.81,3.44,13.51.31-.05.61-.11.92-.16-.24-2.99-.49-5.99-.73-8.98.23-.02.46-.04.69-.06,1.1,3.14,2.19,6.27,3.29,9.41.1-.03.19-.06.29-.09v-10.4c.15,0,.3,0,.45-.01.28,2.15.56,4.29.84,6.44.73-1.29.84-2.53,1.01-3.77.18-1.25.42-2.48.64-3.73.11.03.23.06.34.09.15,2.56.29,5.12.44,7.68.28,0,.55-.02.83-.03.26-.59.53-1.19.88-1.97.53,2.31,1,4.32,1.46,6.33.2.08.41.16.61.24.09-.46.19-.93.28-1.39.21.13.41.26.61.39.16.81.32,1.62.53,2.74v-17.67c.14,0,.27,0,.41,0,.65,3.92,1.3,7.84,1.95,11.76l.67-.08c.02-5.95.46-11.83,3.36-17.36-1.49,6.91-2.91,13.81-.87,20.85Zm-34.54,55.85c3.37-2.61,6.41-4.8,9.23-7.2,2.29-1.95,3.77-4.34,3.84-7.22.1-4.35-2.34-7.49-6.59-9.58-4.56-2.24-9.29-1.85-13.44.6-8.52,5.03-12.41,12.57-14.51,21,3.04-4.74,7.72-6.74,13.76-5.76,4.61.75,6.99,3.64,7.72,8.16Zm83.92-43.32c1-1.79,1.97-3.6,3.03-5.37,1.06-1.78,2.14-3.55,3.35-5.26,1.26-1.77,2.61-3.51,4.06-5.16,1.34-1.52,2.88-2.91,4.34-4.36-6.3,7.88-12.09,15.88-14.39,25.4,2.05-2.76,3.3-6.04,7.11-8.11-.3,1.04-.48,1.64-.84,2.89,1.38-1.57,2.26-2.57,3.14-3.57.1.07.2.14.29.21-1.61,3.68-3.22,7.37-4.83,11.05.3.1.6.2.9.3,5.31-11.76,12.92-22.38,21.45-32.63-2.43,1.76-4.85,3.52-7.28,5.28-.39-.36-.79-.73-1.18-1.09,4.26-3.06,8.52-6.11,12.78-9.17l-.91-.93c-3.3,1.75-6.6,3.5-9.9,5.25l-.35-.4c2.68-2.1,5.37-4.21,8.05-6.31-.17-.23-.35-.46-.52-.69-3.13,1.62-6.26,3.24-9.39,4.85-.12-.13-.24-.26-.36-.39,1.99-2.21,3.99-4.43,5.98-6.64-.12-.13-.24-.25-.36-.38-1.35.81-2.7,1.62-4.57,2.75.6-1.14.95-1.8,1.62-3.06-2.21,1.24-3.77,2.13-5.47,3.08-.41-.83-.73-1.49-1.22-2.48-4.94,8.68-9.89,16.94-13.06,25.85,1.29-1.77,2.32-3.64,3.41-5.48,1.1-1.85,2.22-3.69,3.44-5.48,1.15-1.68,2.44-3.29,3.67-4.94-5,8.06-10.27,15.9-12,25Zm-3.3,92.68c-.09,0-.17,0-.26,0,0,2.88.51,5.84-.11,8.61-1.03,4.62,1.38,7.4,5.49,9.65.23.13.45.28.68.42,4.35,2.56,6.07,2.11,8.07-2.14.14-.29.2-.62.33-.92,1.9-4.49.58-8.83-.9-13.14-1.9-5.49-4.14-10.91-5.77-16.46-.66-2.25-2.23-2.34-4.04-2.28-1.77.07-3.53.47-3.51,2.59.05,4.55.01,9.11.01,13.66Zm10.8-77.8c1.3,2.15,2.66,4.28,3.89,6.46,5.34,9.39,9.22,19.17,10.6,29.62.19,1.45-.2,2.33-1.72,3.12-3.5,1.82-6.92,3.76-10.28,5.77-4.79,2.85-6.77,8.43-4.25,12.39,2.24-.85,4.6-1.57,6.78-2.6,3.1-1.46,4.94-3.79,5.54-6.83.3-1.52-.49-2.16-2.13-1.93-1.46.21-2.88.64-4.32.97,2.15-2,4.44-3.78,7.04-5.1,1.79-.91,4.01-1.19,6.03-1.75.54,2.04,1.11,4.08,1.6,6.13.09.36-.15.78-.26,1.17-.62,2.14-1.24,4.29-1.87,6.43.88-.47,1.56-1.07,1.75-1.76.83-3.01,1.58-6.03,2.22-9.07.47-2.23-.5-4.11-1.92-6.03-1.23-1.67-1.87-3.72-2.45-5.68-1.43-4.78-2.35-9.7-4.09-14.39-2.38-6.44-6.42-12.14-12.16-16.92Zm-100.98-29.52c1.01,4.3,1.03,8.45,4.67,11.52v-18.7c-.41,2.04-.74,3.73-1.08,5.41-.2-.03-.41-.06-.61-.08v-2.91c-.11-.02-.23-.04-.34-.07-.4.91-.79,1.83-1.39,3.2-.42-1.81-.69-3-.97-4.19-.17.01-.34.02-.5.03-.56,2.37-1.13,4.75-1.78,7.48-.38-.81-.57-1.21-.75-1.61-.18,0-.36.02-.53.03v6.43c-1.06-1.09-1.62-1.66-2.34-2.41-.35,1.75-.63,3.15-.93,4.65-.47-.58-.88-1.07-1.57-1.92-.12,4.17.91,7.52,3.62,10.42-.13-1.03-.55-1.99-.76-2.98-.18-.88-.13-1.8-.17-2.7.15,0,.3.01.45.02,1.04,1.94,2.08,3.88,3.11,5.81.2-.07.4-.15.6-.22l-1.38-8.83c.25-.04.49-.09.74-.13.35.96.7,1.92,1.2,3.31.47-4.01-1.69-7.63.72-11.56Zm6.64,112.66c2.27.15,4.14.28,6.54.44-2.78,1.1-5.02,1.99-7.27,2.88.07.26.15.51.22.77h8.62c-4.92,1.55-10.03,2.41-14.01,6.18,7.36-1.92,14.21-3.7,21.13-5.51-4-6.89-10.44-8.92-15.22-4.77Zm9.1-106.86c.38-7.6.78-15.45,1.18-23.29-.13,0-.26,0-.39,0-.94,2.08-1.88,4.17-2.82,6.25-.2-.05-.41-.11-.61-.16v-3.12c-5.13,3.94-3.2,16.05,2.64,20.31Zm35.62,5.06c-.09.22-.17.44-.26.66,2.01.59,4.03,1.14,6.01,1.79,10.35,3.4,18.83,9.25,27.18,15.3.8.58,1.87,1.16,2.86,1.22,2.78.17,5.58.06,8.38.06-2.73-.7-5.49-.84-8.21-1.23-1.06-.15-2.31-.66-2.96-1.36-4.93-5.31-11.03-9.32-18.24-11.96-4.79-1.75-9.83-3-14.77-4.47Zm-37.98-3.26c.23-.06.45-.12.68-.19-4.88-5.52-3.86-12.36-6.15-19.03-1.84,5.87-2.27,11.19-.34,16.51.66,1.82,1.78,3.39,4.43,3.88-.2-1.28-.37-2.35-.65-4.12.95,1.38,1.49,2.16,2.02,2.94Zm71.77,101.6c-.4,0-.8,0-1.2,0-2.35,3.49-4.7,6.98-7.09,10.53,3.04.52,5.96,1.01,9.22,1.57-.32-4.18-.63-8.14-.93-12.1Zm-50.14-99.66c-15.68-.71-32.47,6.01-36.03,14.42,13.07-9.93,15.4-10.86,36.03-14.42Zm-50.47,38.7c-1.54-2.6-2.77-4.68-4.01-6.77.19-.09.39-.17.58-.26.53.4,1.06.79,1.58,1.19l.38-.2c-1.16-2.3-2.31-4.6-3.47-6.89-.22.07-.44.14-.67.2.57,1.58,1.13,3.17,1.72,4.82h-2.23c1.05,1.75,1.97,3.29,2.89,4.84-.16.1-.31.2-.47.3-1.38-.58-2.77-1.16-4.15-1.74l-.47.48c2.28,2.81,4.56,5.63,6.84,8.44.29-.18.59-.35.88-.53-1.22-1.66-2.44-3.32-3.66-4.98l.48-.35c1.05.41,2.11.81,3.75,1.44Zm65.31-41.86c-.69-4.72-1.38-9.44-2.07-14.16-.75,4.89-.41,9.65,2.07,14.16Zm-60.56,4.21l-1.31.33c1.24,2.96,2.49,5.91,3.73,8.87l.98-.3c-1.14-2.97-2.27-5.93-3.41-8.9Zm32.54-1.75c-1.39-2.59-2.62-4.88-4.1-7.64-.05,4.73,1.12,6.96,4.1,7.64Zm-36.86,28.94c-1.23-2.31-2.3-4.33-3.38-6.36.53,2.26-1.02,5.33,3.38,6.36Zm2.89-23.69c-.31.04-.61.09-.92.13.83,2.48,1.67,4.96,2.5,7.44l.86-.21c-.81-2.45-1.63-4.91-2.44-7.36Zm-1.45,18.9l.81-.45c-1.27-2.05-2.53-4.11-3.8-6.16-.24.11-.47.22-.71.33,1.23,2.09,2.46,4.19,3.7,6.28Zm-1.56.09c-1.07-1.93-2.15-3.86-3.42-6.14-1.19,3.3,1.81,4.46,3.42,6.14Zm-.07-8.41c-.21.1-.41.2-.62.3,1.19,1.87,2.38,3.73,3.57,5.6.27-.14.55-.27.82-.41-1.26-1.83-2.52-3.66-3.78-5.5Z"/>
        <path class="cls-1" d="m175.7,148.82c-1.7-1.17-3.25-2.56-5.12-3.47-5.33-2.6-10.84-4.93-16.18-7.53-2.49-1.22-4.91-2.64-7.04-4.28-3.55-2.72-2.57-6.4,1.91-7.89,4.1-1.37,8.2-.86,12.93.24-3.52-3.15-7.24-4.85-11.64-5.28-4.32-.42-8.53.1-12.55,1.61-6.55,2.46-9.61,8.62-7.11,14.39.36.82,1.03,1.61,1.1,2.44.08.86-.4,1.76-.64,2.64-1.04-.43-2.85-.73-2.98-1.32-.77-3.41-1.25-6.87-1.61-10.33-.1-.97.49-1.99.77-3.01-4.17,1.19-6.7,4.64-5.88,8.27.48,2.11,1.24,4.17,2.01,6.22,1.06,2.84.84,5.33-2.09,7.33-.76.52-1.23,1.35-2.3,2.57,1.96-.46,3.17-.77,4.4-1.04,1.16-.25,2.33-.47,3.84-.77.62,2.61,1.2,5.08,1.93,8.17-3.02-2.87-6.04-4.11-9.78-2.33-4.49,2.14-4.19,5.61-3.12,9.32-6.49-2.79-5.77-12.37,1.28-17.3-1.27-2.13-2.54-4.33-3.88-6.5-3.05-4.94-2.88-7.47,1.46-11.5,5.41-5.02,11.57-9.38,18.86-12.19,9.26-3.56,18.03-1.53,26.25,2.82,3.63,1.92,7.07,4.12,10.85,6.04-.48-.49-.88-1.07-1.45-1.46-6.17-4.24-12.36-8.45-18.55-12.66-1.82-1.24-3.8-2.33-5.48-3.7-3.35-2.72-3.45-4.64-.42-7.65,5.28-5.25,12.12-6.52,19.77-5.34,6.21.96,11.59,3.37,16.44,7.01-.51-.63-1.01-1.26-1.53-1.88-.61-.71-1.2-1.43-1.88-2.08-9.56-9.2-20.95-15.79-35.35-17.88-8.19-1.19-16.14-.47-23.57,2.98-4.39,2.04-8.74,4.12-13.11,6.19,5.01-5.02,18.9-10.68,26.67-10.92,20.65-.64,36.11,7.7,48.84,20.79.74.76,1.44,1.56,2.49,2.71.45-2.55.82-4.61,1.18-6.66,3.67,3.16-.2,6.23.9,9.54,2.02.27,4.46.61,6.26.85-.17-3.21-.35-6.39-.54-9.97,2.2.13,3.78.22,5.75.34-2.92,6.88.49,12.64,3.03,18.52,2.6,6.04,4.01,12.15,1.7,18.51-.41,1.13-.92,2.28-1.66,3.28-2.83,3.83-7.61,4.48-11.74,1.65-1.93-1.32-3.82-2.69-5.73-4.03-.2.16-.4.32-.6.48,1.35,1.42,2.71,2.84,4.06,4.26,1.41,1.49,2.98,2.89,4.18,4.49.98,1.32,1.73,2.84,2.2,4.36.66,2.14-.91,6-2.88,6.27-1.64.22-3.56-.81-5.28-1.42-.83-.29-1.5-.9-2.52-1.55v3.47c-15.63-2.15-30.08-8.55-46.08-7.78-2.94,6.76.15,14.5,7.51,18.96,8.83,5.34,23.4,5.31,32.19-.06,3.43-2.09,5.79-4.86,6.99-8.37.28.08.56.16.83.23-1.01,3.32-1.87,6.67-3.07,9.94-2.1,5.7-4.46,11.33-6.6,17.01-.48,1.26-.52,2.65-.82,4.29,6.23-.45,12.15-.23,17.16,3.42-1.57-.21-3.15-.42-5.47-.72,3.39,3.2,2.98,6.58,2.69,9.92-.13,1.43-.75,2.47-2.72,2.8-2.24.37-4.38,1.14-6.57,1.73,9.44,3.02,22.75-2.59,26.96-11.23.37,2.16.74,4.33,1.1,6.49.15.03.29.07.44.1.5-1.65,1.02-3.3,1.5-4.96.09-.31.1-.64.09-.96-.23-8.2,1.46-15.96,6.26-23.23,2.19-3.32,1.3-6.26-1.32-8.83q-6.74,4.93-8.94,3.44c2.54-2.4,5.38-4.66,7.53-7.33,1.03-1.28.76-3.33,1.16-5.53-4.44.78-8.29,1.46-12.24,2.16,1.7-2.64,7.01-4.8,13.02-5.29,0,2.3-.07,4.58.02,6.86.15,3.67,1.4,7.05,3.71,10.16.41.56.61,1.54.34,2.12-1.96,4.12-4.19,8.13-6.06,12.28-.92,2.03-1.53,4.24-1.77,6.4-.88,7.96-1.38,15.95-2.35,23.91-.62,5.07-2,10.03-4.96,14.42v-23.84c-10.07,4.47-20.41,6.42-31.86,4.55-.49,4.62-.97,8.89-1.4,13.17-.42,4.19-.79,8.39-1.21,12.87-2-.48-3.42-.8-4.83-1.15-3.07-.78-4.83-2.25-5.57-5.22-2.71-10.93-5.89-21.77-8.74-32.67-.52-2.01-1.74-3.12-3.87-3.55-4.24-.87-8.49-1.75-12.78-2.39-2.53-.38-4.48-1.14-5.85-3.12-3.53-5.1-7.81-9.68-12.73-13.9-4.32-3.71-6.59-8.41-6.98-13.77-.32-4.45-.77-8.91-1.54-13.32-.37-2.15-2.19-3.66-4.89-4.07-3.75-.57-6.78,1.13-7.18,4.78-.41,3.69-.46,7.53.29,11.16,1.21,5.88,3.37,11.62,4.81,17.47,1.85,7.52.58,14.67-4.66,21.04-4.95,6.02-10.03,5.77-14.38-.55-.38-.55-.71-1.12-1.24-1.97,4.18-2.13,7.69-4.88,9.18-9.1-.05,4.14-3.73,6.78-5.66,10.13,3.35,4.16,6.88,4.28,10.36.3,3.2-3.66,4.24-7.94,4.53-12.39.48-7.61-1.96-14.87-3.58-22.25-.96-4.36-1.3-8.85-1.46-13.29-.1-2.69,1-5.41,4.26-6.5,3.5-1.17,6.81-.11,9.64,1.8,3.31,2.24,4.46,5.44,4.52,8.92.07,4.08-.15,8.16.03,12.23.15,3.46,2.14,5.95,5.41,8.19,3.34,2.29,6.16,5.27,8.65,8.29,3.18,3.85,6.22,7.63,12.05,8.67.96.17,1.94.24,3.64.45-6.44-5.66-11.54-11.36-14.97-18.64,5.69,2.21,9.16,5.77,12.53,9.46,2.76,3.01,5.56,6.01,8.56,8.84.78.74,2.39,1.18,3.61,1.16,11.76-.16,10.04-.34,12.79,7.54,2.39,6.85,3.88,13.94,6.3,20.92-.97-12.16-1.93-24.31-2.93-36.78-11.27,2.75-20.61,1.04-27.59-7.08,2.5,1.42,4.87,3.07,7.54,4.21,2.57,1.1,5.44,1.69,8.17,2.5.17-.32.34-.64.51-.97-1.89-1.02-3.78-2.03-5.75-3.09.81-2.98,4.3-2.65,6.72-4.13-2.38-.66-4.46-1.3-6.58-1.82-11.7-2.89-12.59-6.71-14.06-15.04-.5-2.83-1-5.69-1.94-8.43-.52-1.5-.06-2.2,1.17-3,6.28-4.07,13.28-4.28,20.47-2.58,3.65.87,7.22,2.09,10.66,3.46,3.43,1.36,6.66,3.11,9.97,4.69.18-.15.35-.3.53-.45Zm1.71,18.54c-5.34,1.69-10.49,3.31-16.04,5.07,1.75.19,3.12.4,4.49.46,2.16.1,3.09.9,3.11,2.86.02,3.19.29,6.39.59,9.57.11,1.16.6,2.29.91,3.43-.15-7.85,6.1-14.08,6.95-21.39Zm-11.53,64.19c-4.46-11.38-8.91-22.73-13.37-34.08,2.07,9.6,4.9,19.04,6.91,28.6.82,3.88,3.49,4.71,6.46,5.48Z"/>
        <path class="cls-1" d="m144.55,67.25c-2.04-7.04-.62-13.94.87-20.85-2.9,5.52-3.34,11.41-3.36,17.36l-.67.08c-.65-3.92-1.3-7.84-1.95-11.76-.14,0-.27,0-.41,0v17.67c-.22-1.12-.38-1.93-.53-2.74-.2-.13-.41-.26-.61-.39-.09.46-.19.93-.28,1.39-.2-.08-1.54-4.27-2.08-6.58-.35.78-.61,1.38-.88,1.97-.28,0-.55.02-.83.03-.15-2.56-.29-5.12-.44-7.68-.11-.03-.23-.06-.34-.09-.22,1.24-.46,2.48-.64,3.73-.17,1.24-.28,2.48-1.01,3.77-.28-2.15-.56-4.29-.84-6.44-.15,0-.3,0-.45.01v10.4c-.1.03-.19.06-.29.09-1.1-3.14-2.19-6.27-3.29-9.41-.23.02-.46.04-.69.06.24,2.99.49,5.99.73,8.98-.31.05-.61.11-.92.16-1.2-4.7-2.39-9.4-3.44-13.51v15.23c-4.35-3.43-5.17-17.97-1.1-23.19.4.66.75,1.22,1.32,2.15.41-1.41.73-2.49,1.04-3.58.29.02.58.04.87.06-.23,3.55-.46,7.11-.69,10.66.13.01.26.03.39.04.46-2.43.93-4.85,1.47-7.7.35.89.56,1.42,1,2.53.67-1.78,1.14-3.05,1.62-4.32l.38.06c-.12,1.01-.25,2.02-.37,3.03.22.05.44.09.66.14.58-1.81,1.17-3.63,1.75-5.44.18.01.37.02.55.04-.07,1.32-.14,2.64-.25,4.59,1.8-2.81,3.25-5.07,4.7-7.33.24.07.49.14.73.21-1.16,3.57-2.32,7.14-3.49,10.72.25.08.5.16.76.24,1.57-3,3.13-6,4.7-9l.73.24c-.26,1.17-.52,2.34-.77,3.51.21.07.42.14.63.2,1.21-2.28,2.43-4.55,3.68-6.89.26.33.6.76,1.13,1.43,1.19-2.02,2.28-3.88,3.38-5.73.18.06.37.12.55.18-.39,1.69-.78,3.38-1.17,5.06.21.06.42.13.63.19.88-1.35,1.76-2.71,2.81-4.31.1.9.17,1.54.3,2.75.88-1.2,1.42-1.95,1.97-2.7.16.04.33.08.49.12-.31.97-.61,1.93-.92,2.9.12.05.24.11.36.16,1.13-1.2,2.27-2.41,3.6-3.82.37.58.66,1.04,1.08,1.71,1.83-2.14,3.53-4.15,5.24-6.15.33.1.66.21.98.31-1.03,3.76-2.06,7.52-3.1,11.29.12.03.25.05.37.08,1.92-3.21,3.84-6.42,5.76-9.63.21.07.43.15.64.22-.14.7-.28,1.4-.51,2.53.88-1.03,1.47-1.73,2.06-2.43.12.04.24.08.36.13-.43,1.42-.86,2.84-1.44,4.74,3.11-2.77,4.36-6.69,9.52-6.93-1.52,4.6-3,9.06-4.48,13.53,3.29-3.79,4.08-8.85,8.94-11.67,1.03-.6,2.27-.92,3.95-1.58-2.42,4.03-4.55,7.57-6.68,11.12.13.06.26.11.39.17,2.69-3.27,5.38-6.53,8.08-9.8.23.11.45.21.68.32-.38,1.1-.76,2.21-1.31,3.8,1.9-1.37,3.4-2.44,4.9-3.52.16.07.32.14.48.21-.51.96-1.03,1.93-1.89,3.54,2.61-1.81,3.61-4.56,7.44-3.72-.77,1.82-1.51,3.56-2.25,5.3.14.1.27.2.41.3,1.18-1.2,2.37-2.41,3.87-3.93.96,4.03-.92,7.47-1.21,11.23,2.13-2.54,4.26-5.08,6.39-7.63.23.07.46.14.7.21-.39,1.18-.77,2.37-1.16,3.55.05.07.09.14.14.21.39-.63.79-1.26,1.18-1.89.22.16.44.31.67.47-5.72,13.61-13.79,26.5-17.37,40.85.21-1.89.32-3.79.67-5.65.37-1.97.93-3.91,1.49-5.84.54-1.85,1.14-3.7,1.79-5.52.67-1.89,1.44-3.76,1.97-5.7-5.04,7.38-6.99,15.62-9.07,23.88-2.84-11.05-2.55-21.95,2.26-32.65-6.55,9.39-8.55,19.56-7.63,30.48-.85-2.21-1.7-4.42-2.66-6.92-.37,1.6-.72,3.06-1.06,4.52-.3.04-.59.09-.89.13-.63-2.66-1.27-5.33-1.87-7.88-.31,1.26-.69,2.77-1.06,4.28-2.09-8.33-.22-16.28,2.15-24.25-2.41,5.79-4.82,11.58-7.3,17.53-1.54-4.92,1.04-9.42,1.69-14.06-.24-.04-.48-.09-.71-.13-1.2,3.81-2.39,7.62-3.64,11.57-.31-1.06-.6-2.08-.89-3.09-.23-.06-.47-.12-.7-.17-.47,1.43-.94,2.86-1.41,4.29-.09,0-.18-.01-.27-.02v-10.93c-.17-.05-.33-.09-.5-.14-1.4,4.31-2.81,8.63-4.21,12.94-.17,0-.35,0-.52,0,0-1.84-.08-3.67.02-5.51.1-1.84.34-3.67.59-5.49.26-1.89.61-3.76.32-5.79-1.2,3.51-2.4,7.02-3.69,10.81-.45-7.69.1-15.05,2.83-22.4-2.62,2.09-4.01,6.41-6.34,17.61,0-1.48-.02-2.97,0-4.45.03-1.68-.04-3.37.17-5.04.2-1.56.71-3.1.84-4.69-3.89,7.21-4.56,15.06-6.28,22.71Zm42.2,5.11c2.23-6.98,4.45-13.96,6.68-20.94-3.52,6.68-6.49,13.49-6.68,20.94Z"/>
        <path class="cls-1" d="m110,123.1c-.72-4.51-3.1-7.4-7.72-8.16-6.03-.99-10.71,1.02-13.76,5.76,2.09-8.43,5.98-15.97,14.51-21,4.15-2.45,8.88-2.84,13.44-.6,4.25,2.09,6.68,5.23,6.59,9.58-.06,2.88-1.55,5.27-3.84,7.22-2.82,2.39-5.86,4.59-9.23,7.2Z"/>
        <path class="cls-1" d="m193.92,79.78c1.73-9.09,7-16.94,12-25-1.23,1.64-2.52,3.25-3.67,4.94-1.22,1.79-2.34,3.63-3.44,5.48-1.1,1.84-2.12,3.72-3.41,5.48,3.17-8.92,8.12-17.17,13.06-25.85.49.99.81,1.65,1.22,2.48,1.7-.96,3.26-1.84,5.47-3.08-.67,1.26-1.01,1.92-1.62,3.06,1.87-1.12,3.22-1.94,4.57-2.75.12.13.24.25.36.38-1.99,2.21-3.99,4.43-5.98,6.64.12.13.24.26.36.39,3.13-1.62,6.26-3.24,9.39-4.85.17.23.35.46.52.69-2.68,2.1-5.37,4.21-8.05,6.31l.35.4c3.3-1.75,6.6-3.5,9.9-5.25l.91.93c-4.26,3.06-8.52,6.11-12.78,9.17.39.36.79.73,1.18,1.09,2.43-1.76,4.85-3.52,7.28-5.28-8.53,10.25-16.14,20.87-21.45,32.63-.3-.1-.6-.2-.9-.3,1.61-3.68,3.22-7.37,4.83-11.05-.1-.07-.2-.14-.29-.21-.88,1-1.76,2-3.14,3.57.36-1.25.54-1.86.84-2.89-3.81,2.07-5.06,5.35-7.11,8.11,2.29-9.52,8.09-17.52,14.39-25.4-1.45,1.45-3,2.84-4.34,4.36-1.46,1.65-2.81,3.39-4.06,5.16-1.21,1.7-2.29,3.48-3.35,5.26-1.06,1.77-2.02,3.58-3.03,5.37Z"/>
        <path class="cls-1" d="m190.62,172.45c0-4.55.03-9.11-.01-13.66-.02-2.12,1.74-2.52,3.51-2.59,1.8-.07,3.37.02,4.04,2.28,1.63,5.55,3.87,10.97,5.77,16.46,1.49,4.31,2.8,8.65.9,13.14-.13.3-.19.62-.33.92-2,4.25-3.72,4.7-8.07,2.14-.23-.14-.44-.29-.68-.42-4.12-2.25-6.52-5.03-5.49-9.65.62-2.77.11-5.73.11-8.61.09,0,.17,0,.26,0Z"/>
        <path class="cls-1" d="m201.42,94.65c5.74,4.78,9.78,10.49,12.16,16.92,1.73,4.7,2.65,9.61,4.09,14.39.58,1.95,1.22,4.01,2.45,5.68,1.42,1.92,2.39,3.8,1.92,6.03-.64,3.04-1.4,6.07-2.22,9.07-.19.7-.87,1.29-1.75,1.76.62-2.14,1.25-4.29,1.87-6.43.11-.39.35-.81.26-1.17-.49-2.05-1.06-4.09-1.6-6.13-2.03.56-4.25.84-6.03,1.75-2.6,1.33-4.89,3.11-7.04,5.1,1.44-.33,2.86-.76,4.32-.97,1.64-.23,2.43.41,2.13,1.93-.6,3.04-2.44,5.37-5.54,6.83-2.17,1.02-4.53,1.75-6.78,2.6-2.52-3.96-.54-9.54,4.25-12.39,3.36-2,6.78-3.95,10.28-5.77,1.52-.79,1.92-1.67,1.72-3.12-1.38-10.45-5.26-20.23-10.6-29.62-1.24-2.18-2.59-4.31-3.89-6.46Z"/>
        <path class="cls-1" d="m100.44,65.12c-2.41,3.93-.25,7.56-.72,11.56-.5-1.38-.85-2.34-1.2-3.31-.25.04-.49.09-.74.13l1.38,8.83c-.2.07-.4.15-.6.22-1.04-1.94-2.08-3.88-3.11-5.81-.15,0-.3-.01-.45-.02.05.9,0,1.82.17,2.7.21.99.63,1.96.76,2.98-2.71-2.9-3.73-6.25-3.62-10.42.69.85,1.1,1.34,1.57,1.92.3-1.5.58-2.9.93-4.65.73.75,1.29,1.32,2.34,2.41v-6.43c.18,0,.36-.02.53-.03.19.4.37.8.75,1.61.65-2.73,1.21-5.11,1.78-7.48.17-.01.34-.02.5-.03.28,1.19.55,2.38.97,4.19.6-1.37.99-2.28,1.39-3.2.11.02.23.05.34.07v2.91c.2.03.41.06.61.08.34-1.69.67-3.37,1.08-5.41v18.7c-3.63-3.07-3.66-7.22-4.67-11.52Z"/>
        <path class="cls-1" d="m107.07,177.78c4.79-4.15,11.23-2.13,15.22,4.77-6.92,1.8-13.76,3.59-21.13,5.51,3.98-3.77,9.09-4.63,14.01-6.18h-8.62c-.07-.26-.15-.51-.22-.77,2.25-.89,4.5-1.78,7.27-2.88-2.4-.16-4.27-.29-6.54-.44Z"/>
        <path class="cls-1" d="m116.17,70.92c-5.84-4.26-7.77-16.37-2.64-20.31v3.12c.2.05.41.11.61.16.94-2.08,1.88-4.17,2.82-6.25.13,0,.26,0,.39,0-.4,7.84-.79,15.69-1.18,23.29Z"/>
        <path class="cls-1" d="m151.8,75.98c4.93,1.47,9.97,2.72,14.77,4.47,7.21,2.64,13.31,6.65,18.24,11.96.65.7,1.9,1.21,2.96,1.36,2.72.39,5.49.54,8.21,1.23-2.79,0-5.6.11-8.38-.06-.99-.06-2.06-.64-2.86-1.22-8.34-6.04-16.82-11.9-27.18-15.3-1.98-.65-4.01-1.2-6.01-1.79.09-.22.17-.44.26-.66Z"/>
        <path class="cls-1" d="m113.82,72.72c-.54-.78-1.07-1.56-2.02-2.94.28,1.77.45,2.84.65,4.12-2.65-.49-3.77-2.06-4.43-3.88-1.93-5.32-1.51-10.64.34-16.51,2.29,6.67,1.27,13.51,6.15,19.03-.23.06-.45.12-.68.19Z"/>
        <path class="cls-1" d="m185.59,174.32c.31,3.96.61,7.92.93,12.1-3.27-.56-6.18-1.05-9.22-1.57,2.39-3.56,4.74-7.05,7.09-10.53.4,0,.8,0,1.2,0Z"/>
        <path class="cls-1" d="m135.44,74.66c-20.64,3.56-22.96,4.49-36.03,14.42,3.57-8.41,20.35-15.13,36.03-14.42Z"/>
        <path class="cls-1" d="m84.97,113.36c-1.64-.63-2.7-1.04-3.75-1.44l-.48.35c1.22,1.66,2.44,3.32,3.66,4.98-.29.18-.59.35-.88.53-2.28-2.81-4.56-5.63-6.84-8.44l.47-.48c1.38.58,2.77,1.16,4.15,1.74.16-.1.31-.2.47-.3-.92-1.54-1.85-3.09-2.89-4.84h2.23c-.59-1.66-1.16-3.24-1.72-4.82.22-.07.44-.14.67-.2,1.16,2.3,2.31,4.6,3.47,6.89l-.38.2c-.53-.4-1.06-.79-1.58-1.19-.19.09-.39.17-.58.26,1.23,2.08,2.47,4.17,4.01,6.77Z"/>
        <path class="cls-1" d="m150.28,71.5c-2.48-4.5-2.83-9.26-2.07-14.16.69,4.72,1.38,9.44,2.07,14.16Z"/>
        <path class="cls-1" d="m89.72,75.71c1.14,2.97,2.27,5.93,3.41,8.9l-.98.3c-1.24-2.96-2.49-5.91-3.73-8.87l1.31-.33Z"/>
        <path class="cls-1" d="m122.26,73.96c-2.98-.69-4.15-2.91-4.1-7.64,1.48,2.76,2.71,5.05,4.1,7.64Z"/>
        <path class="cls-1" d="m85.4,102.9c-4.4-1.03-2.84-4.1-3.38-6.36,1.07,2.02,2.15,4.05,3.38,6.36Z"/>
        <path class="cls-1" d="m88.29,79.22c.81,2.45,1.63,4.91,2.44,7.36l-.86.21c-.83-2.48-1.67-4.96-2.5-7.44.31-.04.61-.09.92-.13Z"/>
        <path class="cls-1" d="m86.85,98.12c-1.23-2.09-2.46-4.19-3.7-6.28.24-.11.47-.22.71-.33,1.27,2.05,2.53,4.11,3.8,6.16l-.81.45Z"/>
        <path class="cls-1" d="m85.28,98.21c-1.61-1.68-4.6-2.84-3.42-6.14,1.27,2.28,2.34,4.21,3.42,6.14Z"/>
        <path class="cls-1" d="m85.22,89.79c1.26,1.83,2.52,3.66,3.78,5.5-.27.14-.55.27-.82.41-1.19-1.87-2.38-3.73-3.57-5.6.21-.1.41-.2.62-.3Z"/>
        <path class="cls-4" d="m177.41,167.35c-.84,7.31-7.1,13.54-6.95,21.39-.31-1.14-.8-2.27-.91-3.43-.3-3.18-.57-6.38-.59-9.57-.01-1.96-.94-2.76-3.11-2.86-1.38-.06-2.74-.28-4.49-.46,5.55-1.75,10.7-3.38,16.04-5.07Z"/>
        <path class="cls-4" d="m165.88,231.54c-2.97-.77-5.64-1.61-6.46-5.48-2.01-9.56-4.84-19-6.91-28.6,4.45,11.35,8.9,22.71,13.37,34.08Z"/>
        <path class="cls-4" d="m186.74,72.36c.19-7.45,3.16-14.26,6.68-20.94-2.23,6.98-4.45,13.96-6.68,20.94Z"/>
      </g>
    </g>
  </g>
  <path class="cls-1" d="m179.33,141.25c1.34,2.92,1.28,6.48-.17,10.67-1.88,5.02-4.96,8.25-9.24,9.66-3.71,1.15-8.83,1.11-15.37-.1l-2.48,9.94-7.16-1.78,2.44-9.81-5.56-1.39-2.44,9.81-7.17-1.79,2.48-9.94-14.18-3.53,3.58-8.12,1.46.36c2.32.68,3.83,1,4.56.98,1.05-.05,1.81-.63,2.3-1.75l7.91-31.75c.1-1.63-.48-2.81-1.75-3.54-.8-.51-2.63-1.07-5.48-1.68l-1.17-.29,1.9-7.6,4.35,1.25c5.17,1.29,8.44,2.05,9.83,2.29l2.88-11.55,7.17,1.79-2.84,11.41,5.6,1.23,2.81-11.26,7.16,1.78-2.88,11.55c4.85,1.72,8.39,3.75,10.61,6.06,2.73,2.75,3.76,6.12,3.08,10.09-.82,5.8-3.81,9.3-8.98,10.5h0c3.42,1.68,5.67,3.85,6.77,6.51h0Zm-29.59-14.07l1.17.29c4.07,1.12,7.3,1.67,9.69,1.65,4.14,0,6.62-1.62,7.42-4.84.8-3.22-.57-5.84-4.11-7.86-2-1.12-5.1-2.14-9.32-3.09-.71-.07-1.16-.14-1.36-.19l-3.5,14.04h0Zm-4.33,23.01c4.95,1.34,8.76,2.02,11.44,2.07,4.87-.03,7.76-1.8,8.63-5.31.88-3.51-.79-6.41-4.98-8.7-2.27-1.29-5.91-2.45-10.94-3.49l-1.62-.4-3.86,15.5,1.32.33h0s0,0,0,0Z"/>
</svg>