<?xml version="1.0" encoding="UTF-8"?>
<svg id="Layer_1" data-name="Layer 1" xmlns="http://www.w3.org/2000/svg" width="300" height="225" viewBox="0 0 300 225">
  <defs>
    <style>
      .cls-1 {
        fill: #b7b7b7;
      }

      .cls-2 {
        fill: #4c4c4c;
      }

      .cls-3 {
        fill: #23140a;
      }

      .cls-4 {
        isolation: isolate;
        opacity: .35;
      }

      .cls-5 {
        fill: #232323;
      }

      .cls-6 {
        fill: none;
      }

      .cls-7 {
        fill: #201e1f;
      }

      .cls-8 {
        fill: #7a7a7a;
      }

      .cls-9 {
        fill: #919191;
      }

      .cls-10 {
        fill: #facb00;
      }
    </style>
  </defs>
  <g class="cls-4">
    <ellipse class="cls-5" cx="225.74" cy="209.05" rx="74" ry="11.94"/>
  </g>
  <g>
    <g>
      <g>
        <rect class="cls-9" x="212.99" y="58.64" width="27.1" height="9.37" rx="2.65" ry="2.65"/>
        <path class="cls-3" d="m237.44,68.51h-21.8c-1.74,0-3.15-1.41-3.15-3.15v-4.07c0-1.74,1.41-3.15,3.15-3.15h21.8c1.74,0,3.15,1.41,3.15,3.15v4.07c0,1.74-1.41,3.15-3.15,3.15Zm-21.8-9.37c-1.19,0-2.15.97-2.15,2.15v4.07c0,1.19.97,2.15,2.15,2.15h21.8c1.19,0,2.15-.97,2.15-2.15v-4.07c0-1.19-.97-2.15-2.15-2.15h-21.8Z"/>
      </g>
      <g>
        <rect class="cls-1" x="204.37" y="64.73" width="44.34" height="44.34" rx="6.49" ry="6.49"/>
        <path class="cls-3" d="m242.22,109.57h-31.35c-3.86,0-6.99-3.14-6.99-6.99v-31.35c0-3.86,3.14-6.99,6.99-6.99h31.35c3.86,0,6.99,3.14,6.99,6.99v31.35c0,3.86-3.14,6.99-6.99,6.99Zm-31.35-44.34c-3.31,0-5.99,2.69-5.99,5.99v31.35c0,3.31,2.69,5.99,5.99,5.99h31.35c3.31,0,5.99-2.69,5.99-5.99v-31.35c0-3.31-2.69-5.99-5.99-5.99h-31.35Z"/>
      </g>
      <g>
        <g>
          <circle class="cls-8" cx="226.54" cy="86.9" r="17.16"/>
          <path class="cls-3" d="m226.54,104.55c-9.74,0-17.66-7.92-17.66-17.65s7.92-17.66,17.66-17.66,17.66,7.92,17.66,17.66-7.92,17.65-17.66,17.65Zm0-34.31c-9.18,0-16.66,7.47-16.66,16.66s7.47,16.65,16.66,16.65,16.66-7.47,16.66-16.65-7.47-16.66-16.66-16.66Z"/>
        </g>
        <g>
          <circle class="cls-8" cx="226.54" cy="86.9" r="12.4"/>
          <path class="cls-3" d="m226.54,99.8c-7.12,0-12.9-5.79-12.9-12.9s5.79-12.9,12.9-12.9,12.9,5.79,12.9,12.9-5.79,12.9-12.9,12.9Zm0-24.81c-6.56,0-11.9,5.34-11.9,11.9s5.34,11.9,11.9,11.9,11.9-5.34,11.9-11.9-5.34-11.9-11.9-11.9Z"/>
        </g>
        <g>
          <circle class="cls-8" cx="226.54" cy="86.9" r="7.46"/>
          <path class="cls-3" d="m226.54,94.86c-4.39,0-7.96-3.57-7.96-7.96s3.57-7.96,7.96-7.96,7.96,3.57,7.96,7.96-3.57,7.96-7.96,7.96Zm0-14.92c-3.84,0-6.96,3.12-6.96,6.96s3.12,6.96,6.96,6.96,6.96-3.12,6.96-6.96-3.12-6.96-6.96-6.96Z"/>
        </g>
        <g>
          <line class="cls-1" x1="212.59" y1="72.95" x2="240.49" y2="100.85"/>
          <rect class="cls-3" x="226.04" y="67.17" width="1" height="39.45" transform="translate(4.91 185.64) rotate(-45)"/>
        </g>
        <g>
          <line class="cls-1" x1="240.49" y1="72.95" x2="212.59" y2="100.85"/>
          <rect class="cls-3" x="206.81" y="86.4" width="39.45" height="1" transform="translate(4.91 185.64) rotate(-45)"/>
        </g>
        <g>
          <circle class="cls-2" cx="241.48" cy="71.95" r="1.27"/>
          <path class="cls-3" d="m241.48,73.72c-.98,0-1.77-.79-1.77-1.77s.79-1.77,1.77-1.77,1.77.79,1.77,1.77-.79,1.77-1.77,1.77Zm0-2.54c-.43,0-.77.35-.77.77s.35.77.77.77.77-.35.77-.77-.35-.77-.77-.77Z"/>
        </g>
        <g>
          <circle class="cls-2" cx="211.37" cy="71.95" r="1.27"/>
          <path class="cls-3" d="m211.37,73.72c-.98,0-1.77-.79-1.77-1.77s.79-1.77,1.77-1.77,1.77.79,1.77,1.77-.79,1.77-1.77,1.77Zm0-2.54c-.43,0-.77.35-.77.77s.35.77.77.77.77-.35.77-.77-.35-.77-.77-.77Z"/>
        </g>
        <g>
          <circle class="cls-2" cx="211.51" cy="101.93" r="1.27"/>
          <path class="cls-3" d="m211.51,103.7c-.98,0-1.77-.79-1.77-1.77s.79-1.77,1.77-1.77,1.77.79,1.77,1.77-.79,1.77-1.77,1.77Zm0-2.54c-.43,0-.77.35-.77.77s.35.77.77.77.77-.35.77-.77-.35-.77-.77-.77Z"/>
        </g>
        <g>
          <circle class="cls-2" cx="241.48" cy="101.84" r="1.27"/>
          <path class="cls-3" d="m241.48,103.61c-.98,0-1.77-.79-1.77-1.77s.79-1.77,1.77-1.77,1.77.79,1.77,1.77-.79,1.77-1.77,1.77Zm0-2.54c-.43,0-.77.35-.77.77s.35.77.77.77.77-.35.77-.77-.35-.77-.77-.77Z"/>
        </g>
      </g>
      <g>
        <g>
          <rect class="cls-2" x="223.78" y="60.58" width="5.44" height="2.22"/>
          <path class="cls-3" d="m229.72,63.3h-6.44v-3.22h6.44v3.22Zm-5.44-1h4.44v-1.22h-4.44v1.22Z"/>
        </g>
        <g>
          <circle class="cls-2" cx="218.24" cy="61.69" r="1.05"/>
          <path class="cls-3" d="m218.24,63.25c-.86,0-1.55-.7-1.55-1.55s.7-1.56,1.55-1.56,1.55.7,1.55,1.56-.7,1.55-1.55,1.55Zm0-2.11c-.31,0-.55.25-.55.56s.25.55.55.55.55-.25.55-.55-.25-.56-.55-.56Z"/>
        </g>
        <g>
          <circle class="cls-2" cx="234.75" cy="61.69" r="1.14"/>
          <path class="cls-3" d="m234.75,63.33c-.9,0-1.64-.73-1.64-1.64s.73-1.64,1.64-1.64,1.64.73,1.64,1.64-.73,1.64-1.64,1.64Zm0-2.28c-.35,0-.64.29-.64.64s.29.64.64.64.64-.29.64-.64-.29-.64-.64-.64Z"/>
        </g>
      </g>
    </g>
    <g>
      <g>
        <g>
          <rect class="cls-9" x="165.32" y="160.59" width="27.1" height="9.37" rx="2.65" ry="2.65"/>
          <path class="cls-3" d="m189.77,170.46h-21.8c-1.74,0-3.15-1.41-3.15-3.15v-4.07c0-1.74,1.41-3.15,3.15-3.15h21.8c1.74,0,3.15,1.41,3.15,3.15v4.07c0,1.74-1.41,3.15-3.15,3.15Zm-21.8-9.37c-1.19,0-2.15.97-2.15,2.15v4.07c0,1.19.97,2.15,2.15,2.15h21.8c1.19,0,2.15-.97,2.15-2.15v-4.07c0-1.19-.97-2.15-2.15-2.15h-21.8Z"/>
        </g>
        <g>
          <rect class="cls-1" x="156.7" y="166.68" width="44.34" height="44.34" rx="6.49" ry="6.49"/>
          <path class="cls-3" d="m194.55,211.52h-31.35c-3.86,0-6.99-3.14-6.99-6.99v-31.35c0-3.86,3.14-6.99,6.99-6.99h31.35c3.86,0,6.99,3.14,6.99,6.99v31.35c0,3.86-3.14,6.99-6.99,6.99Zm-31.35-44.34c-3.31,0-5.99,2.69-5.99,5.99v31.35c0,3.31,2.69,5.99,5.99,5.99h31.35c3.31,0,5.99-2.69,5.99-5.99v-31.35c0-3.31-2.69-5.99-5.99-5.99h-31.35Z"/>
        </g>
        <g>
          <g>
            <circle class="cls-8" cx="178.87" cy="188.85" r="17.16"/>
            <path class="cls-3" d="m178.87,206.5c-9.74,0-17.66-7.92-17.66-17.66s7.92-17.65,17.66-17.65,17.66,7.92,17.66,17.65-7.92,17.66-17.66,17.66Zm0-34.31c-9.18,0-16.66,7.47-16.66,16.65s7.47,16.66,16.66,16.66,16.66-7.47,16.66-16.66-7.47-16.65-16.66-16.65Z"/>
          </g>
          <g>
            <circle class="cls-8" cx="178.87" cy="188.85" r="12.4"/>
            <path class="cls-3" d="m178.87,201.75c-7.12,0-12.9-5.79-12.9-12.9s5.79-12.9,12.9-12.9,12.9,5.79,12.9,12.9-5.79,12.9-12.9,12.9Zm0-24.81c-6.56,0-11.9,5.34-11.9,11.9s5.34,11.9,11.9,11.9,11.9-5.34,11.9-11.9-5.34-11.9-11.9-11.9Z"/>
          </g>
          <g>
            <circle class="cls-8" cx="178.87" cy="188.85" r="7.46"/>
            <path class="cls-3" d="m178.87,196.81c-4.39,0-7.96-3.57-7.96-7.96s3.57-7.96,7.96-7.96,7.96,3.57,7.96,7.96-3.57,7.96-7.96,7.96Zm0-14.92c-3.84,0-6.96,3.12-6.96,6.96s3.12,6.96,6.96,6.96,6.96-3.12,6.96-6.96-3.12-6.96-6.96-6.96Z"/>
          </g>
          <g>
            <line class="cls-1" x1="164.92" y1="174.9" x2="192.82" y2="202.8"/>
            <rect class="cls-3" x="178.37" y="169.12" width="1" height="39.45" transform="translate(-81.15 181.79) rotate(-45)"/>
          </g>
          <g>
            <line class="cls-1" x1="192.82" y1="174.9" x2="164.92" y2="202.8"/>
            <rect class="cls-3" x="159.15" y="188.35" width="39.45" height="1" transform="translate(-81.15 181.79) rotate(-45)"/>
          </g>
          <g>
            <circle class="cls-2" cx="193.82" cy="173.9" r="1.27"/>
            <path class="cls-3" d="m193.82,175.67c-.98,0-1.77-.79-1.77-1.77s.79-1.77,1.77-1.77,1.77.79,1.77,1.77-.79,1.77-1.77,1.77Zm0-2.54c-.43,0-.77.35-.77.77s.35.77.77.77.77-.35.77-.77-.35-.77-.77-.77Z"/>
          </g>
          <g>
            <circle class="cls-2" cx="163.7" cy="173.9" r="1.27"/>
            <path class="cls-3" d="m163.7,175.67c-.98,0-1.77-.79-1.77-1.77s.79-1.77,1.77-1.77,1.77.79,1.77,1.77-.79,1.77-1.77,1.77Zm0-2.54c-.43,0-.77.35-.77.77s.35.77.77.77.77-.35.77-.77-.35-.77-.77-.77Z"/>
          </g>
          <g>
            <circle class="cls-2" cx="163.84" cy="203.88" r="1.27"/>
            <path class="cls-3" d="m163.84,205.65c-.98,0-1.77-.79-1.77-1.77s.79-1.77,1.77-1.77,1.77.79,1.77,1.77-.79,1.77-1.77,1.77Zm0-2.54c-.43,0-.77.35-.77.77s.35.77.77.77.77-.35.77-.77-.35-.77-.77-.77Z"/>
          </g>
          <g>
            <circle class="cls-2" cx="193.82" cy="203.79" r="1.27"/>
            <path class="cls-3" d="m193.82,205.57c-.98,0-1.77-.79-1.77-1.77s.79-1.77,1.77-1.77,1.77.79,1.77,1.77-.79,1.77-1.77,1.77Zm0-2.54c-.43,0-.77.35-.77.77s.35.77.77.77.77-.35.77-.77-.35-.77-.77-.77Z"/>
          </g>
        </g>
        <g>
          <g>
            <rect class="cls-2" x="176.11" y="162.53" width="5.44" height="2.22"/>
            <path class="cls-3" d="m182.05,165.25h-6.44v-3.22h6.44v3.22Zm-5.44-1h4.44v-1.22h-4.44v1.22Z"/>
          </g>
          <g>
            <circle class="cls-2" cx="170.57" cy="163.64" r="1.05"/>
            <path class="cls-3" d="m170.57,165.2c-.86,0-1.55-.7-1.55-1.55s.7-1.55,1.55-1.55,1.55.7,1.55,1.55-.7,1.55-1.55,1.55Zm0-2.11c-.31,0-.55.25-.55.55s.25.55.55.55.55-.25.55-.55-.25-.55-.55-.55Z"/>
          </g>
          <g>
            <circle class="cls-2" cx="187.09" cy="163.64" r="1.14"/>
            <path class="cls-3" d="m187.09,165.28c-.9,0-1.64-.73-1.64-1.64s.73-1.64,1.64-1.64,1.64.73,1.64,1.64-.73,1.64-1.64,1.64Zm0-2.28c-.35,0-.64.29-.64.64s.29.64.64.64.64-.29.64-.64-.29-.64-.64-.64Z"/>
          </g>
        </g>
      </g>
      <g>
        <g>
          <rect class="cls-9" x="189.95" y="109.83" width="27.1" height="9.37" rx="2.65" ry="2.65"/>
          <path class="cls-3" d="m214.4,119.71h-21.8c-1.74,0-3.15-1.41-3.15-3.15v-4.07c0-1.74,1.41-3.15,3.15-3.15h21.8c1.74,0,3.15,1.41,3.15,3.15v4.07c0,1.74-1.41,3.15-3.15,3.15Zm-21.8-9.37c-1.19,0-2.15.97-2.15,2.15v4.07c0,1.19.97,2.15,2.15,2.15h21.8c1.19,0,2.15-.97,2.15-2.15v-4.07c0-1.19-.97-2.15-2.15-2.15h-21.8Z"/>
        </g>
        <g>
          <rect class="cls-1" x="181.33" y="115.92" width="44.34" height="44.34" rx="6.49" ry="6.49"/>
          <path class="cls-3" d="m219.17,160.76h-31.35c-3.86,0-6.99-3.14-6.99-6.99v-31.35c0-3.86,3.14-6.99,6.99-6.99h31.35c3.86,0,6.99,3.14,6.99,6.99v31.35c0,3.86-3.14,6.99-6.99,6.99Zm-31.35-44.34c-3.31,0-5.99,2.69-5.99,5.99v31.35c0,3.31,2.69,5.99,5.99,5.99h31.35c3.31,0,5.99-2.69,5.99-5.99v-31.35c0-3.31-2.69-5.99-5.99-5.99h-31.35Z"/>
        </g>
        <g>
          <g>
            <circle class="cls-8" cx="203.5" cy="138.09" r="17.16"/>
            <path class="cls-3" d="m203.5,155.75c-9.74,0-17.66-7.92-17.66-17.66s7.92-17.65,17.66-17.65,17.66,7.92,17.66,17.65-7.92,17.66-17.66,17.66Zm0-34.31c-9.18,0-16.66,7.47-16.66,16.65s7.47,16.66,16.66,16.66,16.66-7.47,16.66-16.66-7.47-16.65-16.66-16.65Z"/>
          </g>
          <g>
            <circle class="cls-8" cx="203.5" cy="138.09" r="12.4"/>
            <path class="cls-3" d="m203.5,151c-7.12,0-12.9-5.79-12.9-12.9s5.79-12.9,12.9-12.9,12.9,5.79,12.9,12.9-5.79,12.9-12.9,12.9Zm0-24.81c-6.56,0-11.9,5.34-11.9,11.9s5.34,11.9,11.9,11.9,11.9-5.34,11.9-11.9-5.34-11.9-11.9-11.9Z"/>
          </g>
          <g>
            <circle class="cls-8" cx="203.5" cy="138.09" r="7.46"/>
            <path class="cls-3" d="m203.5,146.05c-4.39,0-7.96-3.57-7.96-7.96s3.57-7.96,7.96-7.96,7.96,3.57,7.96,7.96-3.57,7.96-7.96,7.96Zm0-14.92c-3.84,0-6.96,3.12-6.96,6.96s3.12,6.96,6.96,6.96,6.96-3.12,6.96-6.96-3.12-6.96-6.96-6.96Z"/>
          </g>
          <g>
            <line class="cls-1" x1="189.55" y1="124.14" x2="217.45" y2="152.04"/>
            <rect class="cls-3" x="203" y="118.37" width="1" height="39.45" transform="translate(-38.04 184.34) rotate(-45)"/>
          </g>
          <g>
            <line class="cls-1" x1="217.45" y1="124.14" x2="189.55" y2="152.04"/>
            <rect class="cls-3" x="183.77" y="137.59" width="39.45" height="1" transform="translate(-38.04 184.34) rotate(-45)"/>
          </g>
          <g>
            <circle class="cls-2" cx="218.44" cy="123.15" r="1.27"/>
            <path class="cls-3" d="m218.44,124.92c-.98,0-1.77-.79-1.77-1.77s.79-1.77,1.77-1.77,1.77.79,1.77,1.77-.79,1.77-1.77,1.77Zm0-2.54c-.43,0-.77.35-.77.77s.35.77.77.77.77-.35.77-.77-.35-.77-.77-.77Z"/>
          </g>
          <g>
            <circle class="cls-2" cx="188.33" cy="123.15" r="1.27"/>
            <path class="cls-3" d="m188.33,124.92c-.98,0-1.77-.79-1.77-1.77s.79-1.77,1.77-1.77,1.77.79,1.77,1.77-.79,1.77-1.77,1.77Zm0-2.54c-.43,0-.77.35-.77.77s.35.77.77.77.77-.35.77-.77-.35-.77-.77-.77Z"/>
          </g>
          <g>
            <circle class="cls-2" cx="188.47" cy="153.12" r="1.27"/>
            <path class="cls-3" d="m188.47,154.9c-.98,0-1.77-.79-1.77-1.77s.79-1.77,1.77-1.77,1.77.79,1.77,1.77-.79,1.77-1.77,1.77Zm0-2.54c-.43,0-.77.35-.77.77s.35.77.77.77.77-.35.77-.77-.35-.77-.77-.77Z"/>
          </g>
          <g>
            <circle class="cls-2" cx="218.44" cy="153.04" r="1.27"/>
            <path class="cls-3" d="m218.44,154.81c-.98,0-1.77-.79-1.77-1.77s.79-1.77,1.77-1.77,1.77.79,1.77,1.77-.79,1.77-1.77,1.77Zm0-2.54c-.43,0-.77.35-.77.77s.35.77.77.77.77-.35.77-.77-.35-.77-.77-.77Z"/>
          </g>
        </g>
        <g>
          <g>
            <rect class="cls-2" x="200.74" y="111.78" width="5.44" height="2.22"/>
            <path class="cls-3" d="m206.68,114.5h-6.44v-3.22h6.44v3.22Zm-5.44-1h4.44v-1.22h-4.44v1.22Z"/>
          </g>
          <g>
            <circle class="cls-2" cx="195.2" cy="112.89" r="1.05"/>
            <path class="cls-3" d="m195.2,114.44c-.86,0-1.55-.7-1.55-1.55s.7-1.55,1.55-1.55,1.55.7,1.55,1.55-.7,1.55-1.55,1.55Zm0-2.11c-.31,0-.55.25-.55.55s.25.55.55.55.55-.25.55-.55-.25-.55-.55-.55Z"/>
          </g>
          <g>
            <circle class="cls-2" cx="211.71" cy="112.89" r="1.14"/>
            <path class="cls-3" d="m211.71,114.52c-.9,0-1.64-.73-1.64-1.64s.73-1.64,1.64-1.64,1.64.73,1.64,1.64-.73,1.64-1.64,1.64Zm0-2.28c-.35,0-.64.29-.64.64s.29.64.64.64.64-.29.64-.64-.29-.64-.64-.64Z"/>
          </g>
        </g>
      </g>
      <g>
        <g>
          <rect class="cls-9" x="236.54" y="109.83" width="27.1" height="9.37" rx="2.65" ry="2.65"/>
          <path class="cls-3" d="m260.99,119.71h-21.8c-1.74,0-3.15-1.41-3.15-3.15v-4.07c0-1.74,1.41-3.15,3.15-3.15h21.8c1.74,0,3.15,1.41,3.15,3.15v4.07c0,1.74-1.41,3.15-3.15,3.15Zm-21.8-9.37c-1.19,0-2.15.97-2.15,2.15v4.07c0,1.19.97,2.15,2.15,2.15h21.8c1.19,0,2.15-.97,2.15-2.15v-4.07c0-1.19-.97-2.15-2.15-2.15h-21.8Z"/>
        </g>
        <g>
          <rect class="cls-1" x="227.92" y="115.92" width="44.34" height="44.34" rx="6.49" ry="6.49"/>
          <path class="cls-3" d="m265.77,160.76h-31.35c-3.86,0-6.99-3.14-6.99-6.99v-31.35c0-3.86,3.14-6.99,6.99-6.99h31.35c3.86,0,6.99,3.14,6.99,6.99v31.35c0,3.86-3.14,6.99-6.99,6.99Zm-31.35-44.34c-3.31,0-5.99,2.69-5.99,5.99v31.35c0,3.31,2.69,5.99,5.99,5.99h31.35c3.31,0,5.99-2.69,5.99-5.99v-31.35c0-3.31-2.69-5.99-5.99-5.99h-31.35Z"/>
        </g>
        <g>
          <g>
            <circle class="cls-8" cx="250.09" cy="138.09" r="17.16"/>
            <path class="cls-3" d="m250.09,155.75c-9.74,0-17.66-7.92-17.66-17.66s7.92-17.65,17.66-17.65,17.66,7.92,17.66,17.65-7.92,17.66-17.66,17.66Zm0-34.31c-9.18,0-16.66,7.47-16.66,16.65s7.47,16.66,16.66,16.66,16.66-7.47,16.66-16.66-7.47-16.65-16.66-16.65Z"/>
          </g>
          <g>
            <circle class="cls-8" cx="250.09" cy="138.09" r="12.4"/>
            <path class="cls-3" d="m250.09,151c-7.12,0-12.9-5.79-12.9-12.9s5.79-12.9,12.9-12.9,12.9,5.79,12.9,12.9-5.79,12.9-12.9,12.9Zm0-24.81c-6.56,0-11.9,5.34-11.9,11.9s5.34,11.9,11.9,11.9,11.9-5.34,11.9-11.9-5.34-11.9-11.9-11.9Z"/>
          </g>
          <g>
            <circle class="cls-8" cx="250.09" cy="138.09" r="7.46"/>
            <path class="cls-3" d="m250.09,146.05c-4.39,0-7.96-3.57-7.96-7.96s3.57-7.96,7.96-7.96,7.96,3.57,7.96,7.96-3.57,7.96-7.96,7.96Zm0-14.92c-3.84,0-6.96,3.12-6.96,6.96s3.12,6.96,6.96,6.96,6.96-3.12,6.96-6.96-3.12-6.96-6.96-6.96Z"/>
          </g>
          <g>
            <line class="cls-1" x1="236.14" y1="124.14" x2="264.04" y2="152.04"/>
            <rect class="cls-3" x="249.59" y="118.37" width="1" height="39.45" transform="translate(-24.4 217.29) rotate(-45)"/>
          </g>
          <g>
            <line class="cls-1" x1="264.04" y1="124.14" x2="236.14" y2="152.04"/>
            <rect class="cls-3" x="230.37" y="137.59" width="39.45" height="1" transform="translate(-24.4 217.29) rotate(-45)"/>
          </g>
          <g>
            <circle class="cls-2" cx="265.04" cy="123.15" r="1.27"/>
            <path class="cls-3" d="m265.04,124.92c-.98,0-1.77-.79-1.77-1.77s.79-1.77,1.77-1.77,1.77.79,1.77,1.77-.79,1.77-1.77,1.77Zm0-2.54c-.43,0-.77.35-.77.77s.35.77.77.77.77-.35.77-.77-.35-.77-.77-.77Z"/>
          </g>
          <g>
            <circle class="cls-2" cx="234.92" cy="123.15" r="1.27"/>
            <path class="cls-3" d="m234.92,124.92c-.98,0-1.77-.79-1.77-1.77s.79-1.77,1.77-1.77,1.77.79,1.77,1.77-.79,1.77-1.77,1.77Zm0-2.54c-.43,0-.77.35-.77.77s.35.77.77.77.77-.35.77-.77-.35-.77-.77-.77Z"/>
          </g>
          <g>
            <circle class="cls-2" cx="235.06" cy="153.12" r="1.27"/>
            <path class="cls-3" d="m235.06,154.9c-.98,0-1.77-.79-1.77-1.77s.79-1.77,1.77-1.77,1.77.79,1.77,1.77-.79,1.77-1.77,1.77Zm0-2.54c-.43,0-.77.35-.77.77s.35.77.77.77.77-.35.77-.77-.35-.77-.77-.77Z"/>
          </g>
          <g>
            <circle class="cls-2" cx="265.04" cy="153.04" r="1.27"/>
            <path class="cls-3" d="m265.04,154.81c-.98,0-1.77-.79-1.77-1.77s.79-1.77,1.77-1.77,1.77.79,1.77,1.77-.79,1.77-1.77,1.77Zm0-2.54c-.43,0-.77.35-.77.77s.35.77.77.77.77-.35.77-.77-.35-.77-.77-.77Z"/>
          </g>
        </g>
        <g>
          <g>
            <rect class="cls-2" x="247.33" y="111.78" width="5.44" height="2.22"/>
            <path class="cls-3" d="m253.27,114.5h-6.44v-3.22h6.44v3.22Zm-5.44-1h4.44v-1.22h-4.44v1.22Z"/>
          </g>
          <g>
            <circle class="cls-2" cx="241.79" cy="112.89" r="1.05"/>
            <path class="cls-3" d="m241.79,114.44c-.86,0-1.55-.7-1.55-1.55s.7-1.55,1.55-1.55,1.55.7,1.55,1.55-.7,1.55-1.55,1.55Zm0-2.11c-.31,0-.55.25-.55.55s.25.55.55.55.55-.25.55-.55-.25-.55-.55-.55Z"/>
          </g>
          <g>
            <circle class="cls-2" cx="258.31" cy="112.89" r="1.14"/>
            <path class="cls-3" d="m258.31,114.52c-.9,0-1.64-.73-1.64-1.64s.73-1.64,1.64-1.64,1.64.73,1.64,1.64-.73,1.64-1.64,1.64Zm0-2.28c-.35,0-.64.29-.64.64s.29.64.64.64.64-.29.64-.64-.29-.64-.64-.64Z"/>
          </g>
        </g>
      </g>
      <g>
        <g>
          <rect class="cls-9" x="213.29" y="160.59" width="27.1" height="9.37" rx="2.65" ry="2.65"/>
          <path class="cls-3" d="m237.73,170.46h-21.8c-1.74,0-3.15-1.41-3.15-3.15v-4.07c0-1.74,1.41-3.15,3.15-3.15h21.8c1.74,0,3.15,1.41,3.15,3.15v4.07c0,1.74-1.41,3.15-3.15,3.15Zm-21.8-9.37c-1.19,0-2.15.97-2.15,2.15v4.07c0,1.19.97,2.15,2.15,2.15h21.8c1.19,0,2.15-.97,2.15-2.15v-4.07c0-1.19-.97-2.15-2.15-2.15h-21.8Z"/>
        </g>
        <g>
          <rect class="cls-1" x="204.66" y="166.68" width="44.34" height="44.34" rx="6.49" ry="6.49"/>
          <path class="cls-3" d="m242.51,211.52h-31.35c-3.86,0-6.99-3.14-6.99-6.99v-31.35c0-3.86,3.14-6.99,6.99-6.99h31.35c3.86,0,6.99,3.14,6.99,6.99v31.35c0,3.86-3.14,6.99-6.99,6.99Zm-31.35-44.34c-3.31,0-5.99,2.69-5.99,5.99v31.35c0,3.31,2.69,5.99,5.99,5.99h31.35c3.31,0,5.99-2.69,5.99-5.99v-31.35c0-3.31-2.69-5.99-5.99-5.99h-31.35Z"/>
        </g>
        <g>
          <g>
            <circle class="cls-8" cx="226.84" cy="188.85" r="17.16"/>
            <path class="cls-3" d="m226.84,206.5c-9.74,0-17.66-7.92-17.66-17.66s7.92-17.65,17.66-17.65,17.66,7.92,17.66,17.65-7.92,17.66-17.66,17.66Zm0-34.31c-9.18,0-16.66,7.47-16.66,16.65s7.47,16.66,16.66,16.66,16.66-7.47,16.66-16.66-7.47-16.65-16.66-16.65Z"/>
          </g>
          <g>
            <circle class="cls-8" cx="226.84" cy="188.85" r="12.4"/>
            <path class="cls-3" d="m226.84,201.75c-7.12,0-12.9-5.79-12.9-12.9s5.79-12.9,12.9-12.9,12.9,5.79,12.9,12.9-5.79,12.9-12.9,12.9Zm0-24.81c-6.56,0-11.9,5.34-11.9,11.9s5.34,11.9,11.9,11.9,11.9-5.34,11.9-11.9-5.34-11.9-11.9-11.9Z"/>
          </g>
          <g>
            <circle class="cls-8" cx="226.84" cy="188.85" r="7.46"/>
            <path class="cls-3" d="m226.84,196.81c-4.39,0-7.96-3.57-7.96-7.96s3.57-7.96,7.96-7.96,7.96,3.57,7.96,7.96-3.57,7.96-7.96,7.96Zm0-14.92c-3.84,0-6.96,3.12-6.96,6.96s3.12,6.96,6.96,6.96,6.96-3.12,6.96-6.96-3.12-6.96-6.96-6.96Z"/>
          </g>
          <g>
            <line class="cls-1" x1="212.89" y1="174.9" x2="240.78" y2="202.8"/>
            <rect class="cls-3" x="226.34" y="169.12" width="1" height="39.45" transform="translate(-67.1 215.71) rotate(-45)"/>
          </g>
          <g>
            <line class="cls-1" x1="240.78" y1="174.9" x2="212.89" y2="202.8"/>
            <rect class="cls-3" x="207.11" y="188.35" width="39.45" height="1" transform="translate(-67.1 215.71) rotate(-45)"/>
          </g>
          <g>
            <circle class="cls-2" cx="241.78" cy="173.9" r="1.27"/>
            <path class="cls-3" d="m241.78,175.67c-.98,0-1.77-.79-1.77-1.77s.79-1.77,1.77-1.77,1.77.79,1.77,1.77-.79,1.77-1.77,1.77Zm0-2.54c-.43,0-.77.35-.77.77s.35.77.77.77.77-.35.77-.77-.35-.77-.77-.77Z"/>
          </g>
          <g>
            <circle class="cls-2" cx="211.67" cy="173.9" r="1.27"/>
            <path class="cls-3" d="m211.67,175.67c-.98,0-1.77-.79-1.77-1.77s.79-1.77,1.77-1.77,1.77.79,1.77,1.77-.79,1.77-1.77,1.77Zm0-2.54c-.43,0-.77.35-.77.77s.35.77.77.77.77-.35.77-.77-.35-.77-.77-.77Z"/>
          </g>
          <g>
            <circle class="cls-2" cx="211.81" cy="203.88" r="1.27"/>
            <path class="cls-3" d="m211.8,205.65c-.98,0-1.77-.79-1.77-1.77s.79-1.77,1.77-1.77,1.77.79,1.77,1.77-.79,1.77-1.77,1.77Zm0-2.54c-.43,0-.77.35-.77.77s.35.77.77.77.77-.35.77-.77-.35-.77-.77-.77Z"/>
          </g>
          <g>
            <circle class="cls-2" cx="241.78" cy="203.79" r="1.27"/>
            <path class="cls-3" d="m241.78,205.57c-.98,0-1.77-.79-1.77-1.77s.79-1.77,1.77-1.77,1.77.79,1.77,1.77-.79,1.77-1.77,1.77Zm0-2.54c-.43,0-.77.35-.77.77s.35.77.77.77.77-.35.77-.77-.35-.77-.77-.77Z"/>
          </g>
        </g>
        <g>
          <g>
            <rect class="cls-2" x="224.07" y="162.53" width="5.44" height="2.22"/>
            <path class="cls-3" d="m230.01,165.25h-6.44v-3.22h6.44v3.22Zm-5.44-1h4.44v-1.22h-4.44v1.22Z"/>
          </g>
          <g>
            <circle class="cls-2" cx="218.54" cy="163.64" r="1.05"/>
            <path class="cls-3" d="m218.54,165.2c-.86,0-1.55-.7-1.55-1.55s.7-1.55,1.55-1.55,1.55.7,1.55,1.55-.7,1.55-1.55,1.55Zm0-2.11c-.31,0-.55.25-.55.55s.25.55.55.55.55-.25.55-.55-.25-.55-.55-.55Z"/>
          </g>
          <g>
            <circle class="cls-2" cx="235.05" cy="163.64" r="1.14"/>
            <path class="cls-3" d="m235.05,165.28c-.9,0-1.64-.73-1.64-1.64s.73-1.64,1.64-1.64,1.64.73,1.64,1.64-.73,1.64-1.64,1.64Zm0-2.28c-.35,0-.64.29-.64.64s.29.64.64.64.64-.29.64-.64-.29-.64-.64-.64Z"/>
          </g>
        </g>
      </g>
      <g>
        <g>
          <rect class="cls-9" x="260.65" y="160.59" width="27.1" height="9.37" rx="2.65" ry="2.65"/>
          <path class="cls-3" d="m285.1,170.46h-21.8c-1.74,0-3.15-1.41-3.15-3.15v-4.07c0-1.74,1.41-3.15,3.15-3.15h21.8c1.74,0,3.15,1.41,3.15,3.15v4.07c0,1.74-1.41,3.15-3.15,3.15Zm-21.8-9.37c-1.19,0-2.15.97-2.15,2.15v4.07c0,1.19.97,2.15,2.15,2.15h21.8c1.19,0,2.15-.97,2.15-2.15v-4.07c0-1.19-.97-2.15-2.15-2.15h-21.8Z"/>
        </g>
        <g>
          <rect class="cls-1" x="252.03" y="166.68" width="44.34" height="44.34" rx="6.49" ry="6.49"/>
          <path class="cls-3" d="m289.88,211.52h-31.35c-3.86,0-6.99-3.14-6.99-6.99v-31.35c0-3.86,3.14-6.99,6.99-6.99h31.35c3.86,0,6.99,3.14,6.99,6.99v31.35c0,3.86-3.14,6.99-6.99,6.99Zm-31.35-44.34c-3.31,0-5.99,2.69-5.99,5.99v31.35c0,3.31,2.69,5.99,5.99,5.99h31.35c3.31,0,5.99-2.69,5.99-5.99v-31.35c0-3.31-2.69-5.99-5.99-5.99h-31.35Z"/>
        </g>
        <g>
          <g>
            <circle class="cls-8" cx="274.2" cy="188.85" r="17.16"/>
            <path class="cls-3" d="m274.2,206.5c-9.74,0-17.66-7.92-17.66-17.66s7.92-17.65,17.66-17.65,17.66,7.92,17.66,17.65-7.92,17.66-17.66,17.66Zm0-34.31c-9.18,0-16.66,7.47-16.66,16.65s7.47,16.66,16.66,16.66,16.66-7.47,16.66-16.66-7.47-16.65-16.66-16.65Z"/>
          </g>
          <g>
            <circle class="cls-8" cx="274.2" cy="188.85" r="12.4"/>
            <path class="cls-3" d="m274.2,201.75c-7.12,0-12.9-5.79-12.9-12.9s5.79-12.9,12.9-12.9,12.9,5.79,12.9,12.9-5.79,12.9-12.9,12.9Zm0-24.81c-6.56,0-11.9,5.34-11.9,11.9s5.34,11.9,11.9,11.9,11.9-5.34,11.9-11.9-5.34-11.9-11.9-11.9Z"/>
          </g>
          <g>
            <circle class="cls-8" cx="274.2" cy="188.85" r="7.46"/>
            <path class="cls-3" d="m274.2,196.81c-4.39,0-7.96-3.57-7.96-7.96s3.57-7.96,7.96-7.96,7.96,3.57,7.96,7.96-3.57,7.96-7.96,7.96Zm0-14.92c-3.84,0-6.96,3.12-6.96,6.96s3.12,6.96,6.96,6.96,6.96-3.12,6.96-6.96-3.12-6.96-6.96-6.96Z"/>
          </g>
          <g>
            <line class="cls-1" x1="260.26" y1="174.9" x2="288.15" y2="202.8"/>
            <rect class="cls-3" x="273.7" y="169.12" width="1" height="39.45" transform="translate(-53.22 249.2) rotate(-45)"/>
          </g>
          <g>
            <line class="cls-1" x1="288.15" y1="174.9" x2="260.26" y2="202.8"/>
            <rect class="cls-3" x="254.48" y="188.35" width="39.45" height="1" transform="translate(-53.22 249.2) rotate(-45)"/>
          </g>
          <g>
            <circle class="cls-2" cx="289.15" cy="173.9" r="1.27"/>
            <path class="cls-3" d="m289.15,175.67c-.98,0-1.77-.79-1.77-1.77s.79-1.77,1.77-1.77,1.77.79,1.77,1.77-.79,1.77-1.77,1.77Zm0-2.54c-.43,0-.77.35-.77.77s.35.77.77.77.77-.35.77-.77-.35-.77-.77-.77Z"/>
          </g>
          <g>
            <circle class="cls-2" cx="259.04" cy="173.9" r="1.27"/>
            <path class="cls-3" d="m259.04,175.67c-.98,0-1.77-.79-1.77-1.77s.79-1.77,1.77-1.77,1.77.79,1.77,1.77-.79,1.77-1.77,1.77Zm0-2.54c-.43,0-.77.35-.77.77s.35.77.77.77.77-.35.77-.77-.35-.77-.77-.77Z"/>
          </g>
          <g>
            <circle class="cls-2" cx="259.17" cy="203.88" r="1.27"/>
            <path class="cls-3" d="m259.17,205.65c-.98,0-1.77-.79-1.77-1.77s.79-1.77,1.77-1.77,1.77.79,1.77,1.77-.79,1.77-1.77,1.77Zm0-2.54c-.43,0-.77.35-.77.77s.35.77.77.77.77-.35.77-.77-.35-.77-.77-.77Z"/>
          </g>
          <g>
            <circle class="cls-2" cx="289.15" cy="203.79" r="1.27"/>
            <path class="cls-3" d="m289.15,205.57c-.98,0-1.77-.79-1.77-1.77s.79-1.77,1.77-1.77,1.77.79,1.77,1.77-.79,1.77-1.77,1.77Zm0-2.54c-.43,0-.77.35-.77.77s.35.77.77.77.77-.35.77-.77-.35-.77-.77-.77Z"/>
          </g>
        </g>
        <g>
          <g>
            <rect class="cls-2" x="271.44" y="162.53" width="5.44" height="2.22"/>
            <path class="cls-3" d="m277.38,165.25h-6.44v-3.22h6.44v3.22Zm-5.44-1h4.44v-1.22h-4.44v1.22Z"/>
          </g>
          <g>
            <circle class="cls-2" cx="265.9" cy="163.64" r="1.05"/>
            <path class="cls-3" d="m265.9,165.2c-.86,0-1.55-.7-1.55-1.55s.7-1.55,1.55-1.55,1.55.7,1.55,1.55-.7,1.55-1.55,1.55Zm0-2.11c-.31,0-.55.25-.55.55s.25.55.55.55.55-.25.55-.55-.25-.55-.55-.55Z"/>
          </g>
          <g>
            <circle class="cls-2" cx="282.42" cy="163.64" r="1.14"/>
            <path class="cls-3" d="m282.42,165.28c-.9,0-1.64-.73-1.64-1.64s.73-1.64,1.64-1.64,1.64.73,1.64,1.64-.73,1.64-1.64,1.64Zm0-2.28c-.35,0-.64.29-.64.64s.29.64.64.64.64-.29.64-.64-.29-.64-.64-.64Z"/>
          </g>
        </g>
      </g>
    </g>
  </g>
  <g>
    <path class="cls-5" d="m47.6,85.42c-.14.03-.28.05-.42.05l-14.7-.26.04-4.32,14.7.26c.46,0,.89.19,1.21.52.32.33.5.76.49,1.22v.89c-.02.8-.58,1.47-1.32,1.65Zm-15.1-2.41h0s0,0,0,0Z"/>
    <path class="cls-5" d="m3.2,83.35h0s0,0,0,0Z"/>
    <path class="cls-5" d="m64.25,91.82h-21.05c-2.35,0-4.26-1.91-4.26-4.26v-8.74c0-2.35,1.91-4.26,4.26-4.26h21.05c2.35,0,4.26,1.91,4.26,4.26v8.74c0,2.35-1.91,4.26-4.26,4.26Zm-21.05-13.6c-.33,0-.6.27-.6.6v8.74c0,.33.27.6.6.6h21.05c.33,0,.6-.27.6-.6v-8.74c0-.33-.27-.6-.6-.6h-21.05Z"/>
    <path class="cls-5" d="m26.55,66.66H8.73c-4.2,0-7.61,3.41-7.61,7.61v17.82c0,4.2,3.41,7.61,7.61,7.61h17.82c4.2,0,7.61-3.41,7.61-7.61v-17.82c0-4.2-3.41-7.61-7.61-7.61Zm-2.11,25.67h-13.6c-1.1,0-2-.9-2-2s.9-2,2-2h13.6c1.1,0,2,.9,2,2s-.9,2-2,2Zm0-7.14h-13.6c-1.1,0-2-.9-2-2s.9-2,2-2h13.6c1.1,0,2,.9,2,2s-.9,2-2,2Zm0-7.14h-13.6c-1.1,0-2-.9-2-2s.9-2,2-2h13.6c1.1,0,2,.9,2,2s-.9,2-2,2Z"/>
    <path class="cls-5" d="m119.69,85.42c-.14.03-.28.05-.42.05l-14.7-.26.04-4.32,14.7.26c.46,0,.89.19,1.21.52.32.33.5.76.49,1.22v.89c-.02.8-.58,1.47-1.32,1.65Zm-15.1-2.41h0s0,0,0,0Z"/>
    <path class="cls-5" d="m60.17,80.94c.14-.03.28-.05.42-.05l14.7.26-.04,4.32-14.7-.26c-.46,0-.89-.19-1.21-.52-.32-.33-.5-.76-.49-1.22v-.89c.02-.8.58-1.47,1.32-1.65Zm15.1,2.41h0s0,0,0,0Z"/>
    <path class="cls-5" d="m136.34,91.82h-21.05c-2.35,0-4.26-1.91-4.26-4.26v-8.74c0-2.35,1.91-4.26,4.26-4.26h21.05c2.35,0,4.26,1.91,4.26,4.26v8.74c0,2.35-1.91,4.26-4.26,4.26Zm-21.05-13.6c-.33,0-.6.27-.6.6v8.74c0,.33.27.6.6.6h21.05c.33,0,.6-.27.6-.6v-8.74c0-.33-.27-.6-.6-.6h-21.05Z"/>
    <g>
      <g>
        <path class="cls-5" d="m96.52,78.04h-13.6c-1.1,0-2-.9-2-2s.9-2,2-2h13.6c1.1,0,2,.9,2,2s-.9,2-2,2Z"/>
        <path class="cls-5" d="m96.52,85.18h-13.6c-1.1,0-2-.9-2-2s.9-2,2-2h13.6c1.1,0,2,.9,2,2s-.9,2-2,2Z"/>
        <path class="cls-5" d="m96.52,92.33h-13.6c-1.1,0-2-.9-2-2s.9-2,2-2h13.6c1.1,0,2,.9,2,2s-.9,2-2,2Z"/>
      </g>
      <path class="cls-5" d="m98.63,99.71h-17.82c-4.2,0-7.61-3.41-7.61-7.61v-17.82c0-4.2,3.41-7.61,7.61-7.61h17.82c4.2,0,7.61,3.41,7.61,7.61v17.82c0,4.2-3.41,7.61-7.61,7.61Zm-17.82-29.05c-1.99,0-3.61,1.62-3.61,3.61v17.82c0,1.99,1.62,3.61,3.61,3.61h17.82c1.99,0,3.61-1.62,3.61-3.61v-17.82c0-1.99-1.62-3.61-3.61-3.61h-17.82Z"/>
    </g>
    <path class="cls-5" d="m132.25,80.94c.14-.03.28-.05.42-.05l19.08.26-.04,4.32-19.08-.26c-.46,0-.89-.19-1.21-.52-.32-.33-.5-.76-.49-1.22v-.89c.02-.8.58-1.47,1.32-1.65Z"/>
    <g>
      <path class="cls-6" d="m177.18,70.66h-17.82c-1,0-1.9.4-2.55,1.06-.6.6-.98,1.42-1.04,2.32h25c-.12-1.88-1.68-3.38-3.59-3.38Z"/>
      <path class="cls-6" d="m155.74,92.09c0,1.99,1.62,3.61,3.61,3.61h17.82c1.99,0,3.61-1.62,3.61-3.61v-14.06h-25.05v14.06Zm5.72-10.91h13.6c1.1,0,2,.9,2,2s-.9,2-2,2h-13.6c-1.1,0-2-.9-2-2s.9-2,2-2Zm0,7.14h13.6c1.1,0,2,.9,2,2s-.9,2-2,2h-13.6c-1.1,0-2-.9-2-2s.9-2,2-2Z"/>
      <path class="cls-5" d="m163.36,65.11l12.2,6.01c.99.49,2.19.08,2.68-.91.49-.99.08-2.19-.91-2.68l-12.2-6.01c-.99-.49-2.19-.08-2.68.91-.49.99-.08,2.19.91,2.68Z"/>
      <path class="cls-5" d="m161.16,80.71l13.43,2.15c1.09.17,2.12-.57,2.29-1.66.17-1.09-.57-2.12-1.66-2.29l-13.43-2.15c-1.09-.17-2.12.57-2.29,1.66-.17,1.09.57,2.12,1.66,2.29Z"/>
      <path class="cls-5" d="m161.47,92.33h13.6c1.1,0,2-.9,2-2s-.9-2-2-2h-13.6c-1.1,0-2,.9-2,2s.9,2,2,2Z"/>
      <path class="cls-5" d="m152.14,68.5c-.26-.89-.18-1.87.3-2.75l8.55-15.64c.92-1.68,2.98-2.32,4.68-1.53l1.92-3.52c-3.65-1.85-8.14-.49-10.12,3.13l-8.55,15.64c-1.04,1.9-1.18,4.05-.57,5.97.55,1.73,1.72,3.26,3.4,4.24l1.93-3.52c-.76-.48-1.3-1.2-1.54-2.02Z"/>
      <path class="cls-5" d="m180.79,92.09c0,1.99-1.62,3.61-3.61,3.61h-17.82c-1.99,0-3.61-1.62-3.61-3.61v-14.06h-4v14.06c0,4.2,3.41,7.61,7.61,7.61h17.82c4.2,0,7.61-3.41,7.61-7.61v-14.06h-4v14.06Z"/>
      <path class="cls-5" d="m155.74,74.27c0-.08.02-.15.02-.23h-4.01c0,.08-.01.15-.01.23v3.77h4v-3.77Z"/>
      <path class="cls-5" d="m184.78,74.04h-4.01c0,.08.02.15.02.23v3.77h4v-3.77c0-.08,0-.16-.01-.23Z"/>
    </g>
  </g>
  <g>
    <path class="cls-3" d="m178.78,41.97l12.15,11.96c.24.23.11.63-.22.69l-15.14,2.51c-.28.05-.52-.2-.46-.48l3-14.47c.06-.31.45-.43.68-.21Z"/>
    <path class="cls-3" d="m182.23,49.91h0c.51.56,1.37.65,1.97.19,7.31-5.53,19.31-3.27,26.11,3.18.56.53,1.44.51,2-.01l4.32-3.96c.62-.57.66-1.56.06-2.14-9.8-9.53-23.76-8.31-34.35.6-.64.54-.68,1.52-.12,2.14Z"/>
  </g>
  <g>
    <path class="cls-3" d="m147.17,152.4l-12.65,11.43c-.24.22-.14.63.19.69l15.02,3.16c.28.06.53-.18.48-.46l-2.37-14.58c-.05-.32-.43-.45-.67-.23Z"/>
    <path class="cls-3" d="m143.38,160.19h0c-.54.54-1.39.59-1.98.11-7.07-5.84-19.15-4.1-26.23,2.05-.58.5-1.46.45-2-.1l-4.14-4.14c-.6-.6-.6-1.58.03-2.14,10.2-9.1,24.1-7.28,34.29,2.08.62.57.62,1.55.02,2.14Z"/>
  </g>
  <g>
    <path class="cls-7" d="m89.7,185.21c-8.2,0-16.4,0-24.6,0-.2,0-.39,0-.59,0-.36-.01-.75-.38-.92-.64-.48-.73,0-1.27.32-1.83.23-.41.46-.83.71-1.23.25-.41.52-.8.75-1.22.22-.42.43-.84.69-1.24.25-.38.46-.78.68-1.17.29-.53.59-1.05.89-1.58.32-.54.65-1.08.96-1.63.3-.51.59-1.03.87-1.55.4-.73.8-1.45,1.24-2.15.54-.88,1.02-1.8,1.56-2.68.31-.51.55-1.06.94-1.53.13-.15.15-.38.26-.57.35-.59.68-1.2,1.04-1.79.84-1.38,1.61-2.81,2.43-4.21.71-1.21,1.41-2.42,2.11-3.63.84-1.46,1.68-2.92,2.52-4.38.7-1.21,1.41-2.42,2.11-3.63.5-.86.98-1.72,1.48-2.58.98-1.69,1.96-3.37,2.93-5.06.19-.33.38-.67.58-1,.58-.95,1.84-.65,2.23.09.79,1.52,1.73,2.95,2.55,4.45.24.44.47.91.74,1.33.32.5.62,1.02.91,1.53.33.59.66,1.19,1.01,1.77.88,1.47,1.73,2.96,2.59,4.44.78,1.34,1.56,2.68,2.34,4.03.7,1.21,1.39,2.42,2.09,3.63.56.98,1.15,1.95,1.7,2.94.37.67.77,1.33,1.14,2,.27.48.56.94.83,1.41.71,1.21,1.41,2.43,2.11,3.64.32.54.66,1.07.94,1.64.31.63.69,1.22,1.04,1.83.53.91,1.06,1.81,1.58,2.72.29.5.56,1.01.85,1.5.3.51.6,1.02.91,1.53.58.97,1.17,1.94,1.69,2.94.45.85-.09,1.88-1.19,1.88-6.08,0-12.15,0-18.23,0-2.26,0-4.52,0-6.77,0Zm.94-40.61c-.05,0-.07-.04-.09-.08-.23-.4-.46-.8-.68-1.21-.09-.17-.15-.2-.26,0-.32.57-.64,1.13-.97,1.69-.52.89-1.06,1.78-1.57,2.68-.5.87-1,1.73-1.47,2.61-.07.14-.19.23-.26.37-.11.23-.21.48-.34.7-.08.13-.17.25-.24.38-.31.58-.65,1.15-.97,1.72-.35.61-.7,1.21-1.07,1.81-.63,1.01-1.19,2.06-1.78,3.09-.66,1.14-1.32,2.29-1.98,3.43-.61,1.04-1.22,2.08-1.83,3.12-.37.63-.73,1.26-1.1,1.9-.67,1.18-1.32,2.37-2.02,3.53-.53.88-1.02,1.79-1.56,2.66-.52.86-.97,1.77-1.48,2.64-.58.99-1.15,1.97-1.72,2.97-.48.83-.92,1.68-1.42,2.49-.32.52-.59,1.06-.93,1.59.07,0,.11,0,.15,0,15.1,0,30.2,0,45.3,0,.23,0,.21-.07.12-.22-.29-.49-.57-.98-.85-1.48-1.47-2.54-2.94-5.09-4.41-7.63-.69-1.19-1.37-2.38-2.06-3.57-1.66-2.87-3.31-5.74-4.97-8.61-.89-1.54-1.79-3.08-2.67-4.63-1.09-1.92-2.21-3.82-3.3-5.75-.46-.82-.95-1.64-1.44-2.45-.53-.87-1.02-1.76-1.52-2.64-.21-.36-.4-.73-.6-1.1,0,0,.02,0,.03,0,0,0-.01,0-.02,0Z"/>
    <path class="cls-10" d="m90.64,144.6c.2.37.39.74.6,1.1.5.88.99,1.78,1.52,2.64.49.81.98,1.63,1.44,2.45,1.08,1.92,2.21,3.83,3.3,5.75.88,1.55,1.78,3.09,2.67,4.63,1.66,2.87,3.31,5.74,4.97,8.61.69,1.19,1.37,2.38,2.06,3.57,1.47,2.54,2.94,5.09,4.41,7.63.28.49.57.99.85,1.48.09.16.11.22-.12.22-15.1,0-30.2,0-45.3,0-.04,0-.07,0-.15,0,.34-.53.61-1.07.93-1.59.5-.81.94-1.66,1.42-2.49.57-.99,1.15-1.98,1.72-2.97.51-.87.95-1.78,1.48-2.64.54-.88,1.02-1.78,1.56-2.66.7-1.16,1.35-2.35,2.02-3.53.36-.63.73-1.26,1.1-1.9.61-1.04,1.22-2.08,1.83-3.12.66-1.14,1.32-2.29,1.98-3.43.59-1.03,1.15-2.08,1.78-3.09.37-.59.72-1.2,1.07-1.81.33-.57.67-1.14.97-1.72.07-.13.17-.25.24-.38.13-.22.24-.46.34-.7.07-.15.19-.24.26-.37.47-.88.98-1.74,1.47-2.61.51-.9,1.04-1.79,1.57-2.68.33-.56.65-1.12.97-1.69.11-.19.16-.16.26,0,.22.41.45.8.68,1.21.02.04.04.08.09.08h0Zm4.15,32.17c-.81-.06-1.54-.12-2.26-.17-.57-.04-1.15-.07-1.73-.11-.12,0-.24-.04-.37-.06-.06,0-.11-.02-.1-.09.03-.12.04-.26.11-.35.22-.28.33-.62.45-.94.3-.79.58-1.59.9-2.37.35-.86.66-1.74,1.02-2.59.41-.98.8-1.98,1.17-2.98.27-.73.57-1.44.83-2.17.33-.93.74-1.84,1.11-2.75.02-.06.1-.13.04-.2-.06-.07-.13,0-.19.03-.7.31-1.4.61-2.1.93-1.34.62-2.71,1.19-4.04,1.83-.56.27-1.13.53-1.71.74-.32.12-.63.28-.97.43.05-.24.21-.37.31-.53.62-1,1.25-1.99,1.88-2.98.2-.3.44-.6.6-.9.25-.47.54-.9.82-1.34.3-.48.63-.94.92-1.42.63-1.03,1.27-2.05,1.93-3.06.07-.1.2-.25,0-.39-.33-.23-.68-.43-1-.68-.52-.4-1.11-.68-1.62-1.1-.36-.29-.76-.52-1.13-.8-.32-.25-.69-.45-1.03-.69-.14-.1-.15-.02-.18.09-.19.63-.39,1.26-.6,1.89-.22.7-.46,1.4-.68,2.09-.17.53-.33,1.05-.49,1.58-.22.71-.44,1.42-.66,2.14-.13.41-.29.82-.4,1.24-.16.58-.38,1.14-.55,1.73-.24.84-.54,1.67-.8,2.5-.2.62-.38,1.24-.57,1.86-.27.85-.55,1.7-.82,2.55-.02.05-.08.11-.03.17.07.08.13,0,.19-.02.87-.32,1.75-.65,2.62-.96,1.7-.61,3.39-1.22,5.09-1.83.09-.03.19-.1.3-.02-1.19,2.84-2.37,5.67-3.56,8.52-1.12-.72-2.23-1.42-3.33-2.12,0,.09.03.14.06.18.25.57.46,1.16.74,1.72.38.77.68,1.58,1.05,2.36.42.89.83,1.78,1.18,2.7.11.3.14.3.41.16.86-.45,1.72-.89,2.57-1.36.29-.16.56-.33.87-.47.59-.26,1.15-.6,1.73-.89.17-.09.3-.23.48-.3.52-.21,1-.5,1.57-.8Z"/>
    <path class="cls-10" d="m90.64,144.6s.01,0,.02,0c0,0-.02,0-.03,0,0,0,0,0,0,0Z"/>
    <path class="cls-7" d="m94.79,176.78c-.57.3-1.05.59-1.57.8-.18.07-.31.21-.48.3-.58.29-1.14.63-1.73.89-.31.14-.58.31-.87.47-.84.47-1.71.91-2.57,1.36-.27.14-.3.14-.41-.16-.35-.92-.76-1.81-1.18-2.7-.37-.78-.67-1.59-1.05-2.36-.28-.56-.49-1.15-.74-1.72-.02-.05-.05-.09-.06-.18,1.1.7,2.21,1.41,3.33,2.12,1.19-2.85,2.38-5.68,3.56-8.52-.11-.07-.21-.01-.3.02-1.7.61-3.39,1.22-5.09,1.83-.88.32-1.75.64-2.62.96-.06.02-.12.1-.19.02-.05-.06.01-.12.03-.17.27-.85.55-1.7.82-2.55.2-.62.38-1.24.57-1.86.27-.83.57-1.66.8-2.5.16-.58.39-1.14.55-1.73.11-.42.27-.82.4-1.24.22-.71.44-1.42.66-2.14.16-.53.32-1.06.49-1.58.22-.7.45-1.4.68-2.09.2-.63.4-1.26.6-1.89.03-.11.04-.19.18-.09.34.24.71.44,1.03.69.37.28.77.51,1.13.8.51.41,1.1.7,1.62,1.1.32.25.67.45,1,.68.2.14.07.28,0,.39-.66,1.01-1.3,2.03-1.93,3.06-.3.48-.62.95-.92,1.42-.28.44-.57.88-.82,1.34-.16.31-.4.6-.6.9-.64.99-1.26,1.98-1.88,2.98-.1.16-.26.29-.31.53.35-.15.65-.31.97-.43.59-.22,1.16-.48,1.71-.74,1.34-.64,2.7-1.21,4.04-1.83.69-.32,1.4-.62,2.1-.93.06-.03.13-.1.19-.03.06.06-.01.13-.04.2-.37.92-.77,1.82-1.11,2.75-.26.73-.56,1.45-.83,2.17-.37,1-.76,1.99-1.17,2.98-.36.86-.66,1.73-1.02,2.59-.32.78-.6,1.58-.9,2.37-.12.32-.23.66-.45.94-.07.09-.08.23-.11.35-.02.07.04.08.1.09.12.02.24.05.37.06.57.04,1.15.07,1.73.11.73.05,1.46.11,2.26.17Z"/>
  </g>
  <g>
    <path class="cls-3" d="m52.66,62.66c0,.28.23.5.5.5h-2.89c.28,0,.5-.23.5-.5v-3.92l.57-.12h-1.54v-1.25c0-.28-.23-.5-.5-.5h3.86c-.28,0-.5.23-.5.5v5.29Z"/>
    <path class="cls-3" d="m53.34,58.88c0-.67.23-2.22,2.41-2.22s2.41,1.56,2.41,2.22v2.29c0,.67-.23,2.22-2.41,2.22s-2.41-1.56-2.41-2.22v-2.29Zm3.07,0c0-.09,0-.32-.09-.37-.05-.04-.2-.1-.57-.1h-1.1l.52.11c-.07.06-.08.27-.08.36v2.29c0,.09,0,.31.09.37.05.04.2.1.57.1s.51-.06.57-.1c.08-.05.09-.28.09-.37v-2.29Z"/>
    <path class="cls-3" d="m41.23,71.17v-2.92l-.65,2.92h-1.11l-.65-2.92v2.92h-1.67v-5.15c0-.25-.2-.45-.45-.45h2.42l.9,3.21.78-2.76c.06-.24-.08-.45-.32-.45h2.42v5.6h-1.67Z"/>
    <path class="cls-3" d="m43.67,66.02c0-.25-.2-.45-.45-.45h2.12v5.6h-1.67v-5.15Z"/>
    <path class="cls-3" d="m49.4,71.17l-1.62-2.75v2.75h-1.67v-5.15c0-.25-.2-.45-.45-.45h2.12l1.62,2.75v-2.3c0-.25-.2-.45-.45-.45h2.12v5.6h-1.67Z"/>
    <path class="cls-3" d="m56.62,68.83c0,1.33-1.08,2.41-2.41,2.41s-2.42-1.09-2.42-2.41v-2.82c0-.24-.2-.44-.43-.44h2.1v3.13c0,.42.33.75.75.75s.74-.34.74-.75v-2.69c0-.24-.19-.44-.44-.44h2.11v3.26Z"/>
    <path class="cls-3" d="m57.27,67.13v-1.11c0-.25-.2-.45-.45-.45h4.74v1.56h-1.31v4.04h-1.67v-4.04h-1.31Z"/>
    <path class="cls-3" d="m62.25,66.02c0-.25-.2-.45-.45-.45h4.24v1.56h-2.12v.51h1.78v1.56h-1.78v.41h2.23v1.56h-3.9v-5.15Z"/>
    <path class="cls-3" d="m69.74,67.43c-.17-.59-1.37-.7-1.37-.2,0,.62,2.3.3,2.3,2.15,0,.94-.85,1.92-1.97,1.92-1.83,0-2.33-.93-2.33-.93l.7-1.34c.57.84,1.93.95,1.93.46,0-.7-2.25-.26-2.25-2.35,0-.92.66-1.71,2.09-1.71,1.02,0,1.61.66,1.61.66l-.7,1.34Z"/>
  </g>
  <g>
    <path class="cls-3" d="m123.23,59.13h-.86v-1.11c0-.25-.2-.45-.44-.45h2.98v5.6h-1.68v-4.04Z"/>
    <path class="cls-3" d="m125.15,59.35c0-.59.21-1.97,2.14-1.97s2.14,1.38,2.14,1.97v2.03c0,.59-.21,1.98-2.14,1.98s-2.14-1.38-2.14-1.98v-2.03Zm2.73,0c0-.08,0-.28-.08-.33-.05-.03-.18-.09-.5-.09s-.46.06-.5.09c-.08.05-.09.25-.09.33v2.03c0,.08,0,.28.09.33.04.03.17.09.5.09s.46-.06.5-.09c.07-.05.08-.25.08-.33v-2.03Z"/>
    <path class="cls-3" d="m113.18,71.17v-2.92l-.65,2.92h-1.11l-.65-2.92v2.92h-1.67v-5.15c0-.25-.2-.45-.45-.45h2.42l.9,3.21.78-2.76c.06-.24-.08-.45-.32-.45h2.42v5.6h-1.67Z"/>
    <path class="cls-3" d="m115.63,66.02c0-.25-.2-.45-.45-.45h2.12v5.6h-1.67v-5.15Z"/>
    <path class="cls-3" d="m121.35,71.17l-1.62-2.75v2.75h-1.67v-5.15c0-.25-.2-.45-.45-.45h2.12l1.62,2.75v-2.3c0-.25-.2-.45-.45-.45h2.12v5.6h-1.67Z"/>
    <path class="cls-3" d="m128.57,68.83c0,1.33-1.08,2.41-2.41,2.41s-2.42-1.09-2.42-2.41v-2.82c0-.24-.2-.44-.43-.44h2.1v3.13c0,.42.33.75.75.75s.74-.34.74-.75v-2.69c0-.24-.19-.44-.44-.44h2.11v3.26Z"/>
    <path class="cls-3" d="m129.22,67.13v-1.11c0-.25-.2-.45-.45-.45h4.74v1.56h-1.31v4.04h-1.67v-4.04h-1.31Z"/>
    <path class="cls-3" d="m134.2,66.02c0-.25-.2-.45-.45-.45h4.24v1.56h-2.12v.51h1.78v1.56h-1.78v.41h2.23v1.56h-3.9v-5.15Z"/>
    <path class="cls-3" d="m141.7,67.43c-.17-.59-1.37-.7-1.37-.2,0,.62,2.3.3,2.3,2.15,0,.94-.85,1.92-1.97,1.92-1.83,0-2.33-.93-2.33-.93l.7-1.34c.57.84,1.93.95,1.93.46,0-.7-2.25-.26-2.25-2.35,0-.92.66-1.71,2.09-1.71,1.02,0,1.61.66,1.61.66l-.7,1.34Z"/>
  </g>
</svg>