<?xml version="1.0" encoding="UTF-8"?>
<svg id="Layer_1" data-name="Layer 1" xmlns="http://www.w3.org/2000/svg" width="300" height="225" viewBox="0 0 300 225">
  <defs>
    <style>
      .cls-1 {
        fill: #b7b7b7;
      }

      .cls-2 {
        fill: #4c4c4c;
      }

      .cls-3 {
        fill: #23140a;
      }

      .cls-4 {
        isolation: isolate;
        opacity: .35;
      }

      .cls-5 {
        fill: #232323;
      }

      .cls-6 {
        fill: none;
      }

      .cls-7 {
        fill: #201e1f;
      }

      .cls-8 {
        fill: #7a7a7a;
      }

      .cls-9 {
        fill: #919191;
      }

      .cls-10 {
        fill: #facb00;
      }
    </style>
  </defs>
  <g>
    <path class="cls-5" d="m47.71,56.03c-.14.03-.28.05-.42.05l-14.7-.26.04-4.32,14.7.26c.46,0,.89.19,1.21.52.32.33.5.76.49,1.22v.89c-.02.8-.58,1.47-1.32,1.65Zm-15.1-2.41h0s0,0,0,0Z"/>
    <path class="cls-5" d="m3.31,53.95h0s0,0,0,0Z"/>
    <path class="cls-5" d="m64.36,62.42h-21.05c-2.35,0-4.26-1.91-4.26-4.26v-8.74c0-2.35,1.91-4.26,4.26-4.26h21.05c2.35,0,4.26,1.91,4.26,4.26v8.74c0,2.35-1.91,4.26-4.26,4.26Zm-21.05-13.6c-.33,0-.6.27-.6.6v8.74c0,.33.27.6.6.6h21.05c.33,0,.6-.27.6-.6v-8.74c0-.33-.27-.6-.6-.6h-21.05Z"/>
    <path class="cls-5" d="m26.66,37.26H8.84c-4.2,0-7.61,3.41-7.61,7.61v17.82c0,4.2,3.41,7.61,7.61,7.61h17.82c4.2,0,7.61-3.41,7.61-7.61v-17.82c0-4.2-3.41-7.61-7.61-7.61Zm-2.11,25.67h-13.6c-1.1,0-2-.9-2-2s.9-2,2-2h13.6c1.1,0,2,.9,2,2s-.9,2-2,2Zm0-7.14h-13.6c-1.1,0-2-.9-2-2s.9-2,2-2h13.6c1.1,0,2,.9,2,2s-.9,2-2,2Zm0-7.14h-13.6c-1.1,0-2-.9-2-2s.9-2,2-2h13.6c1.1,0,2,.9,2,2s-.9,2-2,2Z"/>
    <path class="cls-5" d="m119.79,56.03c-.14.03-.28.05-.42.05l-14.7-.26.04-4.32,14.7.26c.46,0,.89.19,1.21.52.32.33.5.76.49,1.22v.89c-.02.8-.58,1.47-1.32,1.65Zm-15.1-2.41h0s0,0,0,0Z"/>
    <path class="cls-5" d="m60.28,51.54c.14-.03.28-.05.42-.05l14.7.26-.04,4.32-14.7-.26c-.46,0-.89-.19-1.21-.52-.32-.33-.5-.76-.49-1.22v-.89c.02-.8.58-1.47,1.32-1.65Zm15.1,2.41h0s0,0,0,0Z"/>
    <path class="cls-5" d="m136.44,62.42h-21.05c-2.35,0-4.26-1.91-4.26-4.26v-8.74c0-2.35,1.91-4.26,4.26-4.26h21.05c2.35,0,4.26,1.91,4.26,4.26v8.74c0,2.35-1.91,4.26-4.26,4.26Zm-21.05-13.6c-.33,0-.6.27-.6.6v8.74c0,.33.27.6.6.6h21.05c.33,0,.6-.27.6-.6v-8.74c0-.33-.27-.6-.6-.6h-21.05Z"/>
    <g>
      <g>
        <path class="cls-5" d="m96.63,48.64h-13.6c-1.1,0-2-.9-2-2s.9-2,2-2h13.6c1.1,0,2,.9,2,2s-.9,2-2,2Z"/>
        <path class="cls-5" d="m96.63,55.79h-13.6c-1.1,0-2-.9-2-2s.9-2,2-2h13.6c1.1,0,2,.9,2,2s-.9,2-2,2Z"/>
        <path class="cls-5" d="m96.63,62.93h-13.6c-1.1,0-2-.9-2-2s.9-2,2-2h13.6c1.1,0,2,.9,2,2s-.9,2-2,2Z"/>
      </g>
      <path class="cls-5" d="m98.74,70.31h-17.82c-4.2,0-7.61-3.41-7.61-7.61v-17.82c0-4.2,3.41-7.61,7.61-7.61h17.82c4.2,0,7.61,3.41,7.61,7.61v17.82c0,4.2-3.41,7.61-7.61,7.61Zm-17.82-29.05c-1.99,0-3.61,1.62-3.61,3.61v17.82c0,1.99,1.62,3.61,3.61,3.61h17.82c1.99,0,3.61-1.62,3.61-3.61v-17.82c0-1.99-1.62-3.61-3.61-3.61h-17.82Z"/>
    </g>
    <path class="cls-5" d="m132.36,51.54c.14-.03.28-.05.42-.05l19.08.26-.04,4.32-19.08-.26c-.46,0-.89-.19-1.21-.52-.32-.33-.5-.76-.49-1.22v-.89c.02-.8.58-1.47,1.32-1.65Z"/>
    <g>
      <path class="cls-6" d="m177.29,41.26h-17.82c-1,0-1.9.4-2.55,1.06-.6.6-.98,1.42-1.04,2.32h25c-.12-1.88-1.68-3.38-3.59-3.38Z"/>
      <path class="cls-6" d="m155.85,62.7c0,1.99,1.62,3.61,3.61,3.61h17.82c1.99,0,3.61-1.62,3.61-3.61v-14.06h-25.05v14.06Zm5.72-10.91h13.6c1.1,0,2,.9,2,2s-.9,2-2,2h-13.6c-1.1,0-2-.9-2-2s.9-2,2-2Zm0,7.14h13.6c1.1,0,2,.9,2,2s-.9,2-2,2h-13.6c-1.1,0-2-.9-2-2s.9-2,2-2Z"/>
      <path class="cls-5" d="m163.47,35.72l12.2,6.01c.99.49,2.19.08,2.68-.91s.08-2.19-.91-2.68l-12.2-6.01c-.99-.49-2.19-.08-2.68.91-.49.99-.08,2.19.91,2.68Z"/>
      <path class="cls-5" d="m161.27,51.31l13.43,2.15c1.09.17,2.12-.57,2.29-1.66s-.57-2.12-1.66-2.29l-13.43-2.15c-1.09-.17-2.12.57-2.29,1.66s.57,2.12,1.66,2.29Z"/>
      <path class="cls-5" d="m161.58,62.93h13.6c1.1,0,2-.9,2-2s-.9-2-2-2h-13.6c-1.1,0-2,.9-2,2s.9,2,2,2Z"/>
      <path class="cls-5" d="m152.25,39.1c-.26-.89-.18-1.87.3-2.75l8.55-15.64c.92-1.68,2.98-2.32,4.68-1.53l1.92-3.52c-3.65-1.85-8.14-.49-10.12,3.13l-8.55,15.64c-1.04,1.9-1.18,4.05-.57,5.97.55,1.73,1.72,3.26,3.4,4.24l1.93-3.52c-.76-.48-1.3-1.2-1.54-2.02Z"/>
      <path class="cls-5" d="m180.9,62.7c0,1.99-1.62,3.61-3.61,3.61h-17.82c-1.99,0-3.61-1.62-3.61-3.61v-14.06h-4v14.06c0,4.2,3.41,7.61,7.61,7.61h17.82c4.2,0,7.61-3.41,7.61-7.61v-14.06h-4v14.06Z"/>
      <path class="cls-5" d="m155.85,44.87c0-.08.02-.15.02-.23h-4.01c0,.08-.01.15-.01.23v3.77h4v-3.77Z"/>
      <path class="cls-5" d="m184.89,44.64h-4.01c0,.08.02.15.02.23v3.77h4v-3.77c0-.08,0-.16-.01-.23Z"/>
    </g>
  </g>
  <g>
    <path class="cls-3" d="m201.23,45.3l.65,17.03c.01.33-.35.53-.63.35l-12.74-8.56c-.24-.16-.24-.5,0-.67l12.1-8.48c.26-.18.62,0,.63.32Z"/>
    <path class="cls-3" d="m198.3,53.46h0c0,.76.55,1.41,1.3,1.49,9.11.99,16.3,10.86,16.83,20.22.04.77.7,1.36,1.47,1.37l5.86.08c.84.01,1.55-.68,1.51-1.52-.6-13.65-11.6-22.34-25.42-23.11-.84-.05-1.54.64-1.55,1.48Z"/>
  </g>
  <g>
    <path class="cls-3" d="m101.64,131.99l-12.65,11.43c-.24.22-.14.63.19.69l15.02,3.16c.28.06.53-.18.48-.46l-2.37-14.58c-.05-.32-.43-.45-.67-.23Z"/>
    <path class="cls-3" d="m97.84,139.78h0c-.54.54-1.39.59-1.98.11-7.07-5.84-19.15-4.1-26.23,2.05-.58.5-1.46.45-2-.1l-4.14-4.14c-.6-.6-.6-1.58.03-2.14,10.2-9.1,24.1-7.28,34.29,2.08.62.57.62,1.55.02,2.14Z"/>
  </g>
  <g class="cls-4">
    <ellipse class="cls-5" cx="192.38" cy="213.35" rx="107.36" ry="10.65"/>
  </g>
  <g>
    <g>
      <g>
        <rect class="cls-9" x="222.38" y="79.21" width="24.17" height="8.36" rx="2.65" ry="2.65"/>
        <path class="cls-3" d="m243.89,88.07h-18.86c-1.74,0-3.15-1.41-3.15-3.15v-3.06c0-1.74,1.41-3.15,3.15-3.15h18.86c1.74,0,3.15,1.41,3.15,3.15v3.06c0,1.74-1.41,3.15-3.15,3.15Zm-18.86-8.36c-1.19,0-2.15.97-2.15,2.15v3.06c0,1.19.97,2.15,2.15,2.15h18.86c1.19,0,2.15-.97,2.15-2.15v-3.06c0-1.19-.97-2.15-2.15-2.15h-18.86Z"/>
      </g>
      <g>
        <rect class="cls-1" x="214.69" y="84.64" width="39.54" height="39.54" rx="6.49" ry="6.49"/>
        <path class="cls-3" d="m247.74,124.68h-26.56c-3.86,0-6.99-3.14-6.99-6.99v-26.56c0-3.86,3.14-6.99,6.99-6.99h26.56c3.86,0,6.99,3.14,6.99,6.99v26.56c0,3.86-3.14,6.99-6.99,6.99Zm-26.56-39.54c-3.31,0-5.99,2.69-5.99,5.99v26.56c0,3.31,2.69,5.99,5.99,5.99h26.56c3.31,0,5.99-2.69,5.99-5.99v-26.56c0-3.31-2.69-5.99-5.99-5.99h-26.56Z"/>
      </g>
      <g>
        <g>
          <circle class="cls-8" cx="234.46" cy="104.41" r="15.3"/>
          <path class="cls-3" d="m234.46,120.21c-8.71,0-15.8-7.09-15.8-15.8s7.09-15.8,15.8-15.8,15.8,7.09,15.8,15.8-7.09,15.8-15.8,15.8Zm0-30.6c-8.16,0-14.8,6.64-14.8,14.8s6.64,14.8,14.8,14.8,14.8-6.64,14.8-14.8-6.64-14.8-14.8-14.8Z"/>
        </g>
        <g>
          <circle class="cls-8" cx="234.46" cy="104.41" r="11.06"/>
          <path class="cls-3" d="m234.46,115.97c-6.38,0-11.56-5.19-11.56-11.56s5.19-11.56,11.56-11.56,11.56,5.19,11.56,11.56-5.19,11.56-11.56,11.56Zm0-22.12c-5.82,0-10.56,4.74-10.56,10.56s4.74,10.56,10.56,10.56,10.56-4.74,10.56-10.56-4.74-10.56-10.56-10.56Z"/>
        </g>
        <g>
          <circle class="cls-8" cx="234.46" cy="104.41" r="6.65"/>
          <path class="cls-3" d="m234.46,111.56c-3.94,0-7.15-3.21-7.15-7.15s3.21-7.15,7.15-7.15,7.15,3.21,7.15,7.15-3.21,7.15-7.15,7.15Zm0-13.3c-3.39,0-6.15,2.76-6.15,6.15s2.76,6.15,6.15,6.15,6.15-2.76,6.15-6.15-2.76-6.15-6.15-6.15Z"/>
        </g>
        <g>
          <line class="cls-1" x1="222.02" y1="91.97" x2="246.9" y2="116.85"/>
          <rect class="cls-3" x="233.96" y="86.82" width="1" height="35.18" transform="translate(-5.16 196.37) rotate(-45)"/>
        </g>
        <g>
          <line class="cls-1" x1="246.9" y1="91.97" x2="222.02" y2="116.85"/>
          <rect class="cls-3" x="216.87" y="103.91" width="35.18" height="1" transform="translate(-5.16 196.37) rotate(-45)"/>
        </g>
        <g>
          <circle class="cls-2" cx="247.79" cy="91.08" r="1.13"/>
          <path class="cls-3" d="m247.79,92.72c-.9,0-1.63-.73-1.63-1.63s.73-1.63,1.63-1.63,1.63.73,1.63,1.63-.73,1.63-1.63,1.63Zm0-2.27c-.35,0-.63.28-.63.63s.28.63.63.63.63-.28.63-.63-.28-.63-.63-.63Z"/>
        </g>
        <g>
          <circle class="cls-2" cx="220.93" cy="91.08" r="1.13"/>
          <path class="cls-3" d="m220.93,92.72c-.9,0-1.63-.73-1.63-1.63s.73-1.63,1.63-1.63,1.63.73,1.63,1.63-.73,1.63-1.63,1.63Zm0-2.27c-.35,0-.63.28-.63.63s.28.63.63.63.63-.28.63-.63-.28-.63-.63-.63Z"/>
        </g>
        <g>
          <circle class="cls-2" cx="221.06" cy="117.81" r="1.13"/>
          <path class="cls-3" d="m221.06,119.45c-.9,0-1.63-.73-1.63-1.63s.73-1.63,1.63-1.63,1.63.73,1.63,1.63-.73,1.63-1.63,1.63Zm0-2.27c-.35,0-.63.28-.63.63s.28.63.63.63.63-.28.63-.63-.28-.63-.63-.63Z"/>
        </g>
        <g>
          <circle class="cls-2" cx="247.79" cy="117.74" r="1.13"/>
          <path class="cls-3" d="m247.79,119.37c-.9,0-1.63-.73-1.63-1.63s.73-1.63,1.63-1.63,1.63.73,1.63,1.63-.73,1.63-1.63,1.63Zm0-2.27c-.35,0-.63.28-.63.63s.28.63.63.63.63-.28.63-.63-.28-.63-.63-.63Z"/>
        </g>
      </g>
      <g>
        <g>
          <rect class="cls-2" x="232" y="80.94" width="4.85" height="1.98"/>
          <path class="cls-3" d="m237.35,83.42h-5.85v-2.98h5.85v2.98Zm-4.85-1h3.85v-.98h-3.85v.98Z"/>
        </g>
        <g>
          <circle class="cls-2" cx="227.06" cy="81.93" r=".94"/>
          <path class="cls-3" d="m227.06,83.37c-.79,0-1.44-.65-1.44-1.44s.65-1.44,1.44-1.44,1.44.65,1.44,1.44-.65,1.44-1.44,1.44Zm0-1.88c-.24,0-.44.2-.44.44s.2.44.44.44.44-.2.44-.44-.2-.44-.44-.44Z"/>
        </g>
        <g>
          <circle class="cls-2" cx="241.79" cy="81.93" r="1.01"/>
          <path class="cls-3" d="m241.79,83.45c-.84,0-1.51-.68-1.51-1.51s.68-1.52,1.51-1.52,1.52.68,1.52,1.52-.68,1.51-1.52,1.51Zm0-2.03c-.28,0-.51.23-.51.52s.23.51.51.51.52-.23.52-.51-.23-.52-.52-.52Z"/>
        </g>
      </g>
    </g>
    <g>
      <g>
        <rect class="cls-9" x="179.87" y="170.13" width="24.17" height="8.36" rx="2.65" ry="2.65"/>
        <path class="cls-3" d="m201.38,178.99h-18.86c-1.74,0-3.15-1.41-3.15-3.15v-3.06c0-1.74,1.41-3.15,3.15-3.15h18.86c1.74,0,3.15,1.41,3.15,3.15v3.06c0,1.74-1.41,3.15-3.15,3.15Zm-18.86-8.36c-1.19,0-2.15.97-2.15,2.15v3.06c0,1.19.97,2.15,2.15,2.15h18.86c1.19,0,2.15-.97,2.15-2.15v-3.06c0-1.19-.97-2.15-2.15-2.15h-18.86Z"/>
      </g>
      <g>
        <rect class="cls-1" x="172.18" y="175.56" width="39.54" height="39.54" rx="6.49" ry="6.49"/>
        <path class="cls-3" d="m205.23,215.6h-26.56c-3.86,0-6.99-3.14-6.99-6.99v-26.56c0-3.86,3.14-6.99,6.99-6.99h26.56c3.86,0,6.99,3.14,6.99,6.99v26.56c0,3.86-3.14,6.99-6.99,6.99Zm-26.56-39.54c-3.31,0-5.99,2.69-5.99,5.99v26.56c0,3.31,2.69,5.99,5.99,5.99h26.56c3.31,0,5.99-2.69,5.99-5.99v-26.56c0-3.31-2.69-5.99-5.99-5.99h-26.56Z"/>
      </g>
      <g>
        <g>
          <circle class="cls-8" cx="191.95" cy="195.33" r="15.3"/>
          <path class="cls-3" d="m191.95,211.13c-8.71,0-15.8-7.09-15.8-15.8s7.09-15.8,15.8-15.8,15.8,7.09,15.8,15.8-7.09,15.8-15.8,15.8Zm0-30.6c-8.16,0-14.8,6.64-14.8,14.8s6.64,14.8,14.8,14.8,14.8-6.64,14.8-14.8-6.64-14.8-14.8-14.8Z"/>
        </g>
        <g>
          <circle class="cls-8" cx="191.95" cy="195.33" r="11.06"/>
          <path class="cls-3" d="m191.95,206.89c-6.38,0-11.56-5.19-11.56-11.56s5.19-11.56,11.56-11.56,11.56,5.19,11.56,11.56-5.19,11.56-11.56,11.56Zm0-22.12c-5.82,0-10.56,4.74-10.56,10.56s4.74,10.56,10.56,10.56,10.56-4.74,10.56-10.56-4.74-10.56-10.56-10.56Z"/>
        </g>
        <g>
          <circle class="cls-8" cx="191.95" cy="195.33" r="6.65"/>
          <path class="cls-3" d="m191.95,202.48c-3.94,0-7.15-3.21-7.15-7.15s3.21-7.15,7.15-7.15,7.15,3.21,7.15,7.15-3.21,7.15-7.15,7.15Zm0-13.3c-3.39,0-6.15,2.76-6.15,6.15s2.76,6.15,6.15,6.15,6.15-2.76,6.15-6.15-2.76-6.15-6.15-6.15Z"/>
        </g>
        <g>
          <line class="cls-1" x1="179.51" y1="182.89" x2="204.39" y2="207.77"/>
          <rect class="cls-3" x="191.45" y="177.74" width="1" height="35.18" transform="translate(-81.9 192.94) rotate(-45)"/>
        </g>
        <g>
          <line class="cls-1" x1="204.39" y1="182.89" x2="179.51" y2="207.77"/>
          <rect class="cls-3" x="174.36" y="194.83" width="35.18" height="1" transform="translate(-81.9 192.94) rotate(-45)"/>
        </g>
        <g>
          <circle class="cls-2" cx="205.28" cy="182" r="1.13"/>
          <path class="cls-3" d="m205.28,183.63c-.9,0-1.63-.73-1.63-1.63s.73-1.63,1.63-1.63,1.63.73,1.63,1.63-.73,1.63-1.63,1.63Zm0-2.27c-.35,0-.63.28-.63.63s.28.63.63.63.63-.28.63-.63-.28-.63-.63-.63Z"/>
        </g>
        <g>
          <circle class="cls-2" cx="178.43" cy="182" r="1.13"/>
          <path class="cls-3" d="m178.43,183.63c-.9,0-1.63-.73-1.63-1.63s.73-1.63,1.63-1.63,1.63.73,1.63,1.63-.73,1.63-1.63,1.63Zm0-2.27c-.35,0-.63.28-.63.63s.28.63.63.63.63-.28.63-.63-.28-.63-.63-.63Z"/>
        </g>
        <g>
          <circle class="cls-2" cx="178.55" cy="208.73" r="1.13"/>
          <path class="cls-3" d="m178.55,210.37c-.9,0-1.63-.73-1.63-1.63s.73-1.63,1.63-1.63,1.63.73,1.63,1.63-.73,1.63-1.63,1.63Zm0-2.27c-.35,0-.63.28-.63.63s.28.63.63.63.63-.28.63-.63-.28-.63-.63-.63Z"/>
        </g>
        <g>
          <circle class="cls-2" cx="205.28" cy="208.66" r="1.13"/>
          <path class="cls-3" d="m205.28,210.29c-.9,0-1.63-.73-1.63-1.63s.73-1.63,1.63-1.63,1.63.73,1.63,1.63-.73,1.63-1.63,1.63Zm0-2.27c-.35,0-.63.28-.63.63s.28.63.63.63.63-.28.63-.63-.28-.63-.63-.63Z"/>
        </g>
      </g>
      <g>
        <g>
          <rect class="cls-2" x="189.49" y="171.86" width="4.85" height="1.98"/>
          <path class="cls-3" d="m194.84,174.34h-5.85v-2.98h5.85v2.98Zm-4.85-1h3.85v-.98h-3.85v.98Z"/>
        </g>
        <g>
          <circle class="cls-2" cx="184.55" cy="172.85" r=".94"/>
          <path class="cls-3" d="m184.55,174.29c-.79,0-1.44-.65-1.44-1.44s.65-1.44,1.44-1.44,1.44.65,1.44,1.44-.65,1.44-1.44,1.44Zm0-1.88c-.24,0-.44.2-.44.44s.2.44.44.44.44-.2.44-.44-.2-.44-.44-.44Z"/>
        </g>
        <g>
          <circle class="cls-2" cx="199.28" cy="172.85" r="1.01"/>
          <path class="cls-3" d="m199.28,174.36c-.84,0-1.51-.68-1.51-1.52s.68-1.52,1.51-1.52,1.51.68,1.51,1.52-.68,1.52-1.51,1.52Zm0-2.03c-.28,0-.51.23-.51.52s.23.52.51.52.51-.23.51-.52-.23-.52-.51-.52Z"/>
        </g>
      </g>
    </g>
    <g>
      <g>
        <rect class="cls-9" x="201.83" y="124.87" width="24.17" height="8.36" rx="2.65" ry="2.65"/>
        <path class="cls-3" d="m223.34,133.72h-18.86c-1.74,0-3.15-1.41-3.15-3.15v-3.06c0-1.74,1.41-3.15,3.15-3.15h18.86c1.74,0,3.15,1.41,3.15,3.15v3.06c0,1.74-1.41,3.15-3.15,3.15Zm-18.86-8.36c-1.19,0-2.15.97-2.15,2.15v3.06c0,1.19.97,2.15,2.15,2.15h18.86c1.19,0,2.15-.97,2.15-2.15v-3.06c0-1.19-.97-2.15-2.15-2.15h-18.86Z"/>
      </g>
      <g>
        <rect class="cls-1" x="194.14" y="130.29" width="39.54" height="39.54" rx="6.49" ry="6.49"/>
        <path class="cls-3" d="m227.19,170.34h-26.55c-3.86,0-6.99-3.14-6.99-6.99v-26.55c0-3.86,3.14-6.99,6.99-6.99h26.55c3.86,0,6.99,3.14,6.99,6.99v26.55c0,3.86-3.14,6.99-6.99,6.99Zm-26.55-39.54c-3.31,0-5.99,2.69-5.99,5.99v26.55c0,3.31,2.69,5.99,5.99,5.99h26.55c3.31,0,5.99-2.69,5.99-5.99v-26.55c0-3.31-2.69-5.99-5.99-5.99h-26.55Z"/>
      </g>
      <g>
        <g>
          <circle class="cls-8" cx="213.91" cy="150.07" r="15.3"/>
          <path class="cls-3" d="m213.91,165.86c-8.71,0-15.8-7.09-15.8-15.8s7.09-15.8,15.8-15.8,15.8,7.09,15.8,15.8-7.09,15.8-15.8,15.8Zm0-30.6c-8.16,0-14.8,6.64-14.8,14.8s6.64,14.8,14.8,14.8,14.8-6.64,14.8-14.8-6.64-14.8-14.8-14.8Z"/>
        </g>
        <g>
          <circle class="cls-8" cx="213.91" cy="150.07" r="11.06"/>
          <path class="cls-3" d="m213.91,161.63c-6.38,0-11.56-5.19-11.56-11.56s5.19-11.56,11.56-11.56,11.56,5.19,11.56,11.56-5.19,11.56-11.56,11.56Zm0-22.12c-5.82,0-10.56,4.74-10.56,10.56s4.74,10.56,10.56,10.56,10.56-4.74,10.56-10.56-4.74-10.56-10.56-10.56Z"/>
        </g>
        <g>
          <circle class="cls-8" cx="213.91" cy="150.07" r="6.65"/>
          <path class="cls-3" d="m213.91,157.22c-3.94,0-7.15-3.21-7.15-7.15s3.21-7.15,7.15-7.15,7.15,3.21,7.15,7.15-3.21,7.15-7.15,7.15Zm0-13.3c-3.39,0-6.15,2.76-6.15,6.15s2.76,6.15,6.15,6.15,6.15-2.76,6.15-6.15-2.76-6.15-6.15-6.15Z"/>
        </g>
        <g>
          <line class="cls-1" x1="201.47" y1="137.63" x2="226.35" y2="162.5"/>
          <rect class="cls-3" x="213.41" y="132.47" width="1" height="35.18" transform="translate(-43.46 195.21) rotate(-45)"/>
        </g>
        <g>
          <line class="cls-1" x1="226.35" y1="137.63" x2="201.47" y2="162.5"/>
          <rect class="cls-3" x="196.32" y="149.57" width="35.18" height="1" transform="translate(-43.46 195.21) rotate(-45)"/>
        </g>
        <g>
          <circle class="cls-2" cx="227.24" cy="136.74" r="1.13"/>
          <path class="cls-3" d="m227.24,138.37c-.9,0-1.63-.73-1.63-1.63s.73-1.63,1.63-1.63,1.63.73,1.63,1.63-.73,1.63-1.63,1.63Zm0-2.27c-.35,0-.63.28-.63.63s.28.63.63.63.63-.28.63-.63-.28-.63-.63-.63Z"/>
        </g>
        <g>
          <circle class="cls-2" cx="200.39" cy="136.74" r="1.13"/>
          <path class="cls-3" d="m200.39,138.37c-.9,0-1.63-.73-1.63-1.63s.73-1.63,1.63-1.63,1.63.73,1.63,1.63-.73,1.63-1.63,1.63Zm0-2.27c-.35,0-.63.28-.63.63s.28.63.63.63.63-.28.63-.63-.28-.63-.63-.63Z"/>
        </g>
        <g>
          <circle class="cls-2" cx="200.51" cy="163.47" r="1.13"/>
          <path class="cls-3" d="m200.51,165.1c-.9,0-1.63-.73-1.63-1.63s.73-1.63,1.63-1.63,1.63.73,1.63,1.63-.73,1.63-1.63,1.63Zm0-2.27c-.35,0-.63.28-.63.63s.28.63.63.63.63-.28.63-.63-.28-.63-.63-.63Z"/>
        </g>
        <g>
          <circle class="cls-2" cx="227.24" cy="163.39" r="1.13"/>
          <path class="cls-3" d="m227.24,165.03c-.9,0-1.63-.73-1.63-1.63s.73-1.63,1.63-1.63,1.63.73,1.63,1.63-.73,1.63-1.63,1.63Zm0-2.27c-.35,0-.63.28-.63.63s.28.63.63.63.63-.28.63-.63-.28-.63-.63-.63Z"/>
        </g>
      </g>
      <g>
        <g>
          <rect class="cls-2" x="211.45" y="126.6" width="4.85" height="1.98"/>
          <path class="cls-3" d="m216.8,129.08h-5.85v-2.98h5.85v2.98Zm-4.85-1h3.85v-.98h-3.85v.98Z"/>
        </g>
        <g>
          <circle class="cls-2" cx="206.51" cy="127.59" r=".94"/>
          <path class="cls-3" d="m206.51,129.03c-.79,0-1.44-.65-1.44-1.44s.65-1.44,1.44-1.44,1.44.65,1.44,1.44-.65,1.44-1.44,1.44Zm0-1.88c-.24,0-.44.2-.44.44s.2.44.44.44.44-.2.44-.44-.2-.44-.44-.44Z"/>
        </g>
        <g>
          <circle class="cls-2" cx="221.24" cy="127.59" r="1.01"/>
          <path class="cls-3" d="m221.24,129.1c-.84,0-1.51-.68-1.51-1.51s.68-1.52,1.51-1.52,1.51.68,1.51,1.52-.68,1.51-1.51,1.51Zm0-2.03c-.28,0-.51.23-.51.52s.23.51.51.51.51-.23.51-.51-.23-.52-.51-.52Z"/>
        </g>
      </g>
    </g>
    <g>
      <g>
        <rect class="cls-9" x="180.15" y="79.21" width="24.17" height="8.36" rx="2.65" ry="2.65"/>
        <path class="cls-3" d="m201.66,88.07h-18.86c-1.74,0-3.15-1.41-3.15-3.15v-3.06c0-1.74,1.41-3.15,3.15-3.15h18.86c1.74,0,3.15,1.41,3.15,3.15v3.06c0,1.74-1.41,3.15-3.15,3.15Zm-18.86-8.36c-1.19,0-2.15.97-2.15,2.15v3.06c0,1.19.97,2.15,2.15,2.15h18.86c1.19,0,2.15-.97,2.15-2.15v-3.06c0-1.19-.97-2.15-2.15-2.15h-18.86Z"/>
      </g>
      <g>
        <rect class="cls-1" x="172.46" y="84.64" width="39.54" height="39.54" rx="6.49" ry="6.49"/>
        <path class="cls-3" d="m205.51,124.68h-26.56c-3.86,0-6.99-3.14-6.99-6.99v-26.56c0-3.86,3.14-6.99,6.99-6.99h26.56c3.86,0,6.99,3.14,6.99,6.99v26.56c0,3.86-3.14,6.99-6.99,6.99Zm-26.56-39.54c-3.31,0-5.99,2.69-5.99,5.99v26.56c0,3.31,2.69,5.99,5.99,5.99h26.56c3.31,0,5.99-2.69,5.99-5.99v-26.56c0-3.31-2.69-5.99-5.99-5.99h-26.56Z"/>
      </g>
      <g>
        <g>
          <circle class="cls-8" cx="192.23" cy="104.41" r="15.3"/>
          <path class="cls-3" d="m192.23,120.21c-8.71,0-15.8-7.09-15.8-15.8s7.09-15.8,15.8-15.8,15.8,7.09,15.8,15.8-7.09,15.8-15.8,15.8Zm0-30.6c-8.16,0-14.8,6.64-14.8,14.8s6.64,14.8,14.8,14.8,14.8-6.64,14.8-14.8-6.64-14.8-14.8-14.8Z"/>
        </g>
        <g>
          <circle class="cls-8" cx="192.23" cy="104.41" r="11.06"/>
          <path class="cls-3" d="m192.23,115.97c-6.38,0-11.56-5.19-11.56-11.56s5.19-11.56,11.56-11.56,11.56,5.19,11.56,11.56-5.19,11.56-11.56,11.56Zm0-22.12c-5.82,0-10.56,4.74-10.56,10.56s4.74,10.56,10.56,10.56,10.56-4.74,10.56-10.56-4.74-10.56-10.56-10.56Z"/>
        </g>
        <g>
          <circle class="cls-8" cx="192.23" cy="104.41" r="6.65"/>
          <path class="cls-3" d="m192.23,111.56c-3.94,0-7.15-3.21-7.15-7.15s3.21-7.15,7.15-7.15,7.15,3.21,7.15,7.15-3.21,7.15-7.15,7.15Zm0-13.3c-3.39,0-6.15,2.76-6.15,6.15s2.76,6.15,6.15,6.15,6.15-2.76,6.15-6.15-2.76-6.15-6.15-6.15Z"/>
        </g>
        <g>
          <line class="cls-1" x1="179.79" y1="91.97" x2="204.67" y2="116.85"/>
          <rect class="cls-3" x="191.73" y="86.82" width="1" height="35.18" transform="translate(-17.53 166.51) rotate(-45)"/>
        </g>
        <g>
          <line class="cls-1" x1="204.67" y1="91.97" x2="179.79" y2="116.85"/>
          <rect class="cls-3" x="174.64" y="103.91" width="35.18" height="1" transform="translate(-17.53 166.51) rotate(-45)"/>
        </g>
        <g>
          <circle class="cls-2" cx="205.56" cy="91.08" r="1.13"/>
          <path class="cls-3" d="m205.56,92.72c-.9,0-1.63-.73-1.63-1.63s.73-1.63,1.63-1.63,1.63.73,1.63,1.63-.73,1.63-1.63,1.63Zm0-2.27c-.35,0-.63.28-.63.63s.28.63.63.63.63-.28.63-.63-.28-.63-.63-.63Z"/>
        </g>
        <g>
          <circle class="cls-2" cx="178.7" cy="91.08" r="1.13"/>
          <path class="cls-3" d="m178.7,92.72c-.9,0-1.63-.73-1.63-1.63s.73-1.63,1.63-1.63,1.63.73,1.63,1.63-.73,1.63-1.63,1.63Zm0-2.27c-.35,0-.63.28-.63.63s.28.63.63.63.63-.28.63-.63-.28-.63-.63-.63Z"/>
        </g>
        <g>
          <circle class="cls-2" cx="178.83" cy="117.81" r="1.13"/>
          <path class="cls-3" d="m178.83,119.45c-.9,0-1.63-.73-1.63-1.63s.73-1.63,1.63-1.63,1.63.73,1.63,1.63-.73,1.63-1.63,1.63Zm0-2.27c-.35,0-.63.28-.63.63s.28.63.63.63.63-.28.63-.63-.28-.63-.63-.63Z"/>
        </g>
        <g>
          <circle class="cls-2" cx="205.56" cy="117.74" r="1.13"/>
          <path class="cls-3" d="m205.56,119.37c-.9,0-1.63-.73-1.63-1.63s.73-1.63,1.63-1.63,1.63.73,1.63,1.63-.73,1.63-1.63,1.63Zm0-2.27c-.35,0-.63.28-.63.63s.28.63.63.63.63-.28.63-.63-.28-.63-.63-.63Z"/>
        </g>
      </g>
      <g>
        <g>
          <rect class="cls-2" x="189.77" y="80.94" width="4.85" height="1.98"/>
          <path class="cls-3" d="m195.12,83.42h-5.85v-2.98h5.85v2.98Zm-4.85-1h3.85v-.98h-3.85v.98Z"/>
        </g>
        <g>
          <circle class="cls-2" cx="184.83" cy="81.93" r=".94"/>
          <path class="cls-3" d="m184.83,83.37c-.79,0-1.44-.65-1.44-1.44s.65-1.44,1.44-1.44,1.44.65,1.44,1.44-.65,1.44-1.44,1.44Zm0-1.88c-.24,0-.44.2-.44.44s.2.44.44.44.44-.2.44-.44-.2-.44-.44-.44Z"/>
        </g>
        <g>
          <circle class="cls-2" cx="199.56" cy="81.93" r="1.01"/>
          <path class="cls-3" d="m199.56,83.45c-.84,0-1.51-.68-1.51-1.51s.68-1.52,1.51-1.52,1.51.68,1.51,1.52-.68,1.51-1.51,1.51Zm0-2.03c-.28,0-.51.23-.51.52s.23.51.51.51.51-.23.51-.51-.23-.52-.51-.52Z"/>
        </g>
      </g>
    </g>
    <g>
      <g>
        <rect class="cls-9" x="138.01" y="170.13" width="24.17" height="8.36" rx="2.65" ry="2.65"/>
        <path class="cls-3" d="m159.53,178.99h-18.86c-1.74,0-3.15-1.41-3.15-3.15v-3.06c0-1.74,1.41-3.15,3.15-3.15h18.86c1.74,0,3.15,1.41,3.15,3.15v3.06c0,1.74-1.41,3.15-3.15,3.15Zm-18.86-8.36c-1.19,0-2.15.97-2.15,2.15v3.06c0,1.19.97,2.15,2.15,2.15h18.86c1.19,0,2.15-.97,2.15-2.15v-3.06c0-1.19-.97-2.15-2.15-2.15h-18.86Z"/>
      </g>
      <g>
        <rect class="cls-1" x="130.32" y="175.56" width="39.54" height="39.54" rx="6.49" ry="6.49"/>
        <path class="cls-3" d="m163.37,215.6h-26.56c-3.86,0-6.99-3.14-6.99-6.99v-26.56c0-3.86,3.14-6.99,6.99-6.99h26.56c3.86,0,6.99,3.14,6.99,6.99v26.56c0,3.86-3.14,6.99-6.99,6.99Zm-26.56-39.54c-3.31,0-5.99,2.69-5.99,5.99v26.56c0,3.31,2.69,5.99,5.99,5.99h26.56c3.31,0,5.99-2.69,5.99-5.99v-26.56c0-3.31-2.69-5.99-5.99-5.99h-26.56Z"/>
      </g>
      <g>
        <g>
          <circle class="cls-8" cx="150.1" cy="195.33" r="15.3"/>
          <path class="cls-3" d="m150.1,211.13c-8.71,0-15.8-7.09-15.8-15.8s7.09-15.8,15.8-15.8,15.8,7.09,15.8,15.8-7.09,15.8-15.8,15.8Zm0-30.6c-8.16,0-14.8,6.64-14.8,14.8s6.64,14.8,14.8,14.8,14.8-6.64,14.8-14.8-6.64-14.8-14.8-14.8Z"/>
        </g>
        <g>
          <circle class="cls-8" cx="150.1" cy="195.33" r="11.06"/>
          <path class="cls-3" d="m150.1,206.89c-6.38,0-11.56-5.19-11.56-11.56s5.19-11.56,11.56-11.56,11.56,5.19,11.56,11.56-5.19,11.56-11.56,11.56Zm0-22.12c-5.82,0-10.56,4.74-10.56,10.56s4.74,10.56,10.56,10.56,10.56-4.74,10.56-10.56-4.74-10.56-10.56-10.56Z"/>
        </g>
        <g>
          <circle class="cls-8" cx="150.1" cy="195.33" r="6.65"/>
          <path class="cls-3" d="m150.1,202.48c-3.94,0-7.15-3.21-7.15-7.15s3.21-7.15,7.15-7.15,7.15,3.21,7.15,7.15-3.21,7.15-7.15,7.15Zm0-13.3c-3.39,0-6.15,2.76-6.15,6.15s2.76,6.15,6.15,6.15,6.15-2.76,6.15-6.15-2.76-6.15-6.15-6.15Z"/>
        </g>
        <g>
          <line class="cls-1" x1="137.66" y1="182.89" x2="162.53" y2="207.77"/>
          <rect class="cls-3" x="149.6" y="177.74" width="1" height="35.18" transform="translate(-94.16 163.34) rotate(-45)"/>
        </g>
        <g>
          <line class="cls-1" x1="162.53" y1="182.89" x2="137.66" y2="207.77"/>
          <rect class="cls-3" x="132.5" y="194.83" width="35.18" height="1" transform="translate(-94.16 163.34) rotate(-45)"/>
        </g>
        <g>
          <circle class="cls-2" cx="163.42" cy="182" r="1.13"/>
          <path class="cls-3" d="m163.42,183.63c-.9,0-1.63-.73-1.63-1.63s.73-1.63,1.63-1.63,1.63.73,1.63,1.63-.73,1.63-1.63,1.63Zm0-2.27c-.35,0-.63.28-.63.63s.28.63.63.63.63-.28.63-.63-.28-.63-.63-.63Z"/>
        </g>
        <g>
          <circle class="cls-2" cx="136.57" cy="182" r="1.13"/>
          <path class="cls-3" d="m136.57,183.63c-.9,0-1.63-.73-1.63-1.63s.73-1.63,1.63-1.63,1.63.73,1.63,1.63-.73,1.63-1.63,1.63Zm0-2.27c-.35,0-.63.28-.63.63s.28.63.63.63.63-.28.63-.63-.28-.63-.63-.63Z"/>
        </g>
        <g>
          <circle class="cls-2" cx="136.69" cy="208.73" r="1.13"/>
          <path class="cls-3" d="m136.69,210.37c-.9,0-1.63-.73-1.63-1.63s.73-1.63,1.63-1.63,1.63.73,1.63,1.63-.73,1.63-1.63,1.63Zm0-2.27c-.35,0-.63.28-.63.63s.28.63.63.63.63-.28.63-.63-.28-.63-.63-.63Z"/>
        </g>
        <g>
          <circle class="cls-2" cx="163.42" cy="208.66" r="1.13"/>
          <path class="cls-3" d="m163.42,210.29c-.9,0-1.63-.73-1.63-1.63s.73-1.63,1.63-1.63,1.63.73,1.63,1.63-.73,1.63-1.63,1.63Zm0-2.27c-.35,0-.63.28-.63.63s.28.63.63.63.63-.28.63-.63-.28-.63-.63-.63Z"/>
        </g>
      </g>
      <g>
        <g>
          <rect class="cls-2" x="147.63" y="171.86" width="4.85" height="1.98"/>
          <path class="cls-3" d="m152.98,174.34h-5.85v-2.98h5.85v2.98Zm-4.85-1h3.85v-.98h-3.85v.98Z"/>
        </g>
        <g>
          <circle class="cls-2" cx="142.69" cy="172.85" r=".94"/>
          <path class="cls-3" d="m142.69,174.29c-.79,0-1.44-.65-1.44-1.44s.65-1.44,1.44-1.44,1.44.65,1.44,1.44-.65,1.44-1.44,1.44Zm0-1.88c-.24,0-.44.2-.44.44s.2.44.44.44.44-.2.44-.44-.2-.44-.44-.44Z"/>
        </g>
        <g>
          <circle class="cls-2" cx="157.42" cy="172.85" r="1.01"/>
          <path class="cls-3" d="m157.42,174.36c-.84,0-1.51-.68-1.51-1.52s.68-1.52,1.51-1.52,1.51.68,1.51,1.52-.68,1.52-1.51,1.52Zm0-2.03c-.28,0-.51.23-.51.52s.23.52.51.52.51-.23.51-.52-.23-.52-.51-.52Z"/>
        </g>
      </g>
    </g>
    <g>
      <g>
        <rect class="cls-9" x="159.97" y="124.87" width="24.17" height="8.36" rx="2.65" ry="2.65"/>
        <path class="cls-3" d="m181.49,133.72h-18.86c-1.74,0-3.15-1.41-3.15-3.15v-3.06c0-1.74,1.41-3.15,3.15-3.15h18.86c1.74,0,3.15,1.41,3.15,3.15v3.06c0,1.74-1.41,3.15-3.15,3.15Zm-18.86-8.36c-1.19,0-2.15.97-2.15,2.15v3.06c0,1.19.97,2.15,2.15,2.15h18.86c1.19,0,2.15-.97,2.15-2.15v-3.06c0-1.19-.97-2.15-2.15-2.15h-18.86Z"/>
      </g>
      <g>
        <rect class="cls-1" x="152.28" y="130.29" width="39.54" height="39.54" rx="6.49" ry="6.49"/>
        <path class="cls-3" d="m185.33,170.34h-26.56c-3.86,0-6.99-3.14-6.99-6.99v-26.55c0-3.86,3.14-6.99,6.99-6.99h26.56c3.86,0,6.99,3.14,6.99,6.99v26.55c0,3.86-3.14,6.99-6.99,6.99Zm-26.56-39.54c-3.31,0-5.99,2.69-5.99,5.99v26.55c0,3.31,2.69,5.99,5.99,5.99h26.56c3.31,0,5.99-2.69,5.99-5.99v-26.55c0-3.31-2.69-5.99-5.99-5.99h-26.56Z"/>
      </g>
      <g>
        <g>
          <circle class="cls-8" cx="172.06" cy="150.07" r="15.3"/>
          <path class="cls-3" d="m172.06,165.86c-8.71,0-15.8-7.09-15.8-15.8s7.09-15.8,15.8-15.8,15.8,7.09,15.8,15.8-7.09,15.8-15.8,15.8Zm0-30.6c-8.16,0-14.8,6.64-14.8,14.8s6.64,14.8,14.8,14.8,14.8-6.64,14.8-14.8-6.64-14.8-14.8-14.8Z"/>
        </g>
        <g>
          <circle class="cls-8" cx="172.06" cy="150.07" r="11.06"/>
          <path class="cls-3" d="m172.06,161.63c-6.38,0-11.56-5.19-11.56-11.56s5.19-11.56,11.56-11.56,11.56,5.19,11.56,11.56-5.19,11.56-11.56,11.56Zm0-22.12c-5.82,0-10.56,4.74-10.56,10.56s4.74,10.56,10.56,10.56,10.56-4.74,10.56-10.56-4.74-10.56-10.56-10.56Z"/>
        </g>
        <g>
          <circle class="cls-8" cx="172.06" cy="150.07" r="6.65"/>
          <path class="cls-3" d="m172.06,157.22c-3.94,0-7.15-3.21-7.15-7.15s3.21-7.15,7.15-7.15,7.15,3.21,7.15,7.15-3.21,7.15-7.15,7.15Zm0-13.3c-3.39,0-6.15,2.76-6.15,6.15s2.76,6.15,6.15,6.15,6.15-2.76,6.15-6.15-2.76-6.15-6.15-6.15Z"/>
        </g>
        <g>
          <line class="cls-1" x1="159.62" y1="137.63" x2="184.49" y2="162.5"/>
          <rect class="cls-3" x="171.56" y="132.47" width="1" height="35.18" transform="translate(-55.72 165.61) rotate(-45)"/>
        </g>
        <g>
          <line class="cls-1" x1="184.49" y1="137.63" x2="159.62" y2="162.5"/>
          <rect class="cls-3" x="154.46" y="149.57" width="35.18" height="1" transform="translate(-55.72 165.61) rotate(-45)"/>
        </g>
        <g>
          <circle class="cls-2" cx="185.38" cy="136.74" r="1.13"/>
          <path class="cls-3" d="m185.38,138.37c-.9,0-1.63-.73-1.63-1.63s.73-1.63,1.63-1.63,1.63.73,1.63,1.63-.73,1.63-1.63,1.63Zm0-2.27c-.35,0-.63.28-.63.63s.28.63.63.63.63-.28.63-.63-.28-.63-.63-.63Z"/>
        </g>
        <g>
          <circle class="cls-2" cx="158.53" cy="136.74" r="1.13"/>
          <path class="cls-3" d="m158.53,138.37c-.9,0-1.63-.73-1.63-1.63s.73-1.63,1.63-1.63,1.63.73,1.63,1.63-.73,1.63-1.63,1.63Zm0-2.27c-.35,0-.63.28-.63.63s.28.63.63.63.63-.28.63-.63-.28-.63-.63-.63Z"/>
        </g>
        <g>
          <circle class="cls-2" cx="158.65" cy="163.47" r="1.13"/>
          <path class="cls-3" d="m158.65,165.1c-.9,0-1.63-.73-1.63-1.63s.73-1.63,1.63-1.63,1.63.73,1.63,1.63-.73,1.63-1.63,1.63Zm0-2.27c-.35,0-.63.28-.63.63s.28.63.63.63.63-.28.63-.63-.28-.63-.63-.63Z"/>
        </g>
        <g>
          <circle class="cls-2" cx="185.38" cy="163.39" r="1.13"/>
          <path class="cls-3" d="m185.38,165.03c-.9,0-1.63-.73-1.63-1.63s.73-1.63,1.63-1.63,1.63.73,1.63,1.63-.73,1.63-1.63,1.63Zm0-2.27c-.35,0-.63.28-.63.63s.28.63.63.63.63-.28.63-.63-.28-.63-.63-.63Z"/>
        </g>
      </g>
      <g>
        <g>
          <rect class="cls-2" x="169.59" y="126.6" width="4.85" height="1.98"/>
          <path class="cls-3" d="m174.94,129.08h-5.85v-2.98h5.85v2.98Zm-4.85-1h3.85v-.98h-3.85v.98Z"/>
        </g>
        <g>
          <circle class="cls-2" cx="164.65" cy="127.59" r=".94"/>
          <path class="cls-3" d="m164.65,129.03c-.79,0-1.44-.65-1.44-1.44s.65-1.44,1.44-1.44,1.44.65,1.44,1.44-.65,1.44-1.44,1.44Zm0-1.88c-.24,0-.44.2-.44.44s.2.44.44.44.44-.2.44-.44-.2-.44-.44-.44Z"/>
        </g>
        <g>
          <circle class="cls-2" cx="179.38" cy="127.59" r="1.01"/>
          <path class="cls-3" d="m179.38,129.1c-.84,0-1.51-.68-1.51-1.51s.68-1.52,1.51-1.52,1.52.68,1.52,1.52-.68,1.51-1.52,1.51Zm0-2.03c-.28,0-.51.23-.51.52s.23.51.51.51.52-.23.52-.51-.23-.52-.52-.52Z"/>
        </g>
      </g>
    </g>
    <g>
      <g>
        <rect class="cls-9" x="137.92" y="79.44" width="24.17" height="8.36" rx="2.65" ry="2.65"/>
        <path class="cls-3" d="m159.43,88.3h-18.86c-1.74,0-3.15-1.41-3.15-3.15v-3.06c0-1.74,1.41-3.15,3.15-3.15h18.86c1.74,0,3.15,1.41,3.15,3.15v3.06c0,1.74-1.41,3.15-3.15,3.15Zm-18.86-8.36c-1.19,0-2.15.97-2.15,2.15v3.06c0,1.19.97,2.15,2.15,2.15h18.86c1.19,0,2.15-.97,2.15-2.15v-3.06c0-1.19-.97-2.15-2.15-2.15h-18.86Z"/>
      </g>
      <g>
        <rect class="cls-1" x="130.23" y="84.87" width="39.54" height="39.54" rx="6.49" ry="6.49"/>
        <path class="cls-3" d="m163.28,124.91h-26.56c-3.86,0-6.99-3.14-6.99-6.99v-26.56c0-3.86,3.14-6.99,6.99-6.99h26.56c3.86,0,6.99,3.14,6.99,6.99v26.56c0,3.86-3.14,6.99-6.99,6.99Zm-26.56-39.54c-3.31,0-5.99,2.69-5.99,5.99v26.56c0,3.31,2.69,5.99,5.99,5.99h26.56c3.31,0,5.99-2.69,5.99-5.99v-26.56c0-3.31-2.69-5.99-5.99-5.99h-26.56Z"/>
      </g>
      <g>
        <g>
          <circle class="cls-8" cx="150" cy="104.64" r="15.3"/>
          <path class="cls-3" d="m150,120.44c-8.71,0-15.8-7.09-15.8-15.8s7.09-15.8,15.8-15.8,15.8,7.09,15.8,15.8-7.09,15.8-15.8,15.8Zm0-30.6c-8.16,0-14.8,6.64-14.8,14.8s6.64,14.8,14.8,14.8,14.8-6.64,14.8-14.8-6.64-14.8-14.8-14.8Z"/>
        </g>
        <g>
          <circle class="cls-8" cx="150" cy="104.64" r="11.06"/>
          <path class="cls-3" d="m150,116.2c-6.38,0-11.56-5.19-11.56-11.56s5.19-11.56,11.56-11.56,11.56,5.19,11.56,11.56-5.19,11.56-11.56,11.56Zm0-22.12c-5.82,0-10.56,4.74-10.56,10.56s4.74,10.56,10.56,10.56,10.56-4.74,10.56-10.56-4.74-10.56-10.56-10.56Z"/>
        </g>
        <g>
          <circle class="cls-8" cx="150" cy="104.64" r="6.65"/>
          <path class="cls-3" d="m150,111.79c-3.94,0-7.15-3.21-7.15-7.15s3.21-7.15,7.15-7.15,7.15,3.21,7.15,7.15-3.21,7.15-7.15,7.15Zm0-13.3c-3.39,0-6.15,2.76-6.15,6.15s2.76,6.15,6.15,6.15,6.15-2.76,6.15-6.15-2.76-6.15-6.15-6.15Z"/>
        </g>
        <g>
          <line class="cls-1" x1="137.56" y1="92.2" x2="162.44" y2="117.08"/>
          <rect class="cls-3" x="149.5" y="87.05" width="1" height="35.18" transform="translate(-30.06 136.72) rotate(-45)"/>
        </g>
        <g>
          <line class="cls-1" x1="162.44" y1="92.2" x2="137.56" y2="117.08"/>
          <rect class="cls-3" x="132.41" y="104.14" width="35.18" height="1" transform="translate(-30.06 136.72) rotate(-45)"/>
        </g>
        <g>
          <circle class="cls-2" cx="163.33" cy="91.31" r="1.13"/>
          <path class="cls-3" d="m163.33,92.95c-.9,0-1.63-.73-1.63-1.63s.73-1.63,1.63-1.63,1.63.73,1.63,1.63-.73,1.63-1.63,1.63Zm0-2.27c-.35,0-.63.28-.63.63s.28.63.63.63.63-.28.63-.63-.28-.63-.63-.63Z"/>
        </g>
        <g>
          <circle class="cls-2" cx="136.47" cy="91.31" r="1.13"/>
          <path class="cls-3" d="m136.47,92.95c-.9,0-1.63-.73-1.63-1.63s.73-1.63,1.63-1.63,1.63.73,1.63,1.63-.73,1.63-1.63,1.63Zm0-2.27c-.35,0-.63.28-.63.63s.28.63.63.63.63-.28.63-.63-.28-.63-.63-.63Z"/>
        </g>
        <g>
          <circle class="cls-2" cx="136.6" cy="118.05" r="1.13"/>
          <path class="cls-3" d="m136.6,119.68c-.9,0-1.63-.73-1.63-1.63s.73-1.63,1.63-1.63,1.63.73,1.63,1.63-.73,1.63-1.63,1.63Zm0-2.27c-.35,0-.63.28-.63.63s.28.63.63.63.63-.28.63-.63-.28-.63-.63-.63Z"/>
        </g>
        <g>
          <circle class="cls-2" cx="163.33" cy="117.97" r="1.13"/>
          <path class="cls-3" d="m163.33,119.6c-.9,0-1.63-.73-1.63-1.63s.73-1.63,1.63-1.63,1.63.73,1.63,1.63-.73,1.63-1.63,1.63Zm0-2.27c-.35,0-.63.28-.63.63s.28.63.63.63.63-.28.63-.63-.28-.63-.63-.63Z"/>
        </g>
      </g>
      <g>
        <g>
          <rect class="cls-2" x="147.54" y="81.17" width="4.85" height="1.98"/>
          <path class="cls-3" d="m152.89,83.65h-5.85v-2.98h5.85v2.98Zm-4.85-1h3.85v-.98h-3.85v.98Z"/>
        </g>
        <g>
          <circle class="cls-2" cx="142.6" cy="82.16" r=".94"/>
          <path class="cls-3" d="m142.6,83.6c-.79,0-1.44-.65-1.44-1.44s.65-1.44,1.44-1.44,1.44.65,1.44,1.44-.65,1.44-1.44,1.44Zm0-1.88c-.24,0-.44.2-.44.44s.2.44.44.44.44-.2.44-.44-.2-.44-.44-.44Z"/>
        </g>
        <g>
          <circle class="cls-2" cx="157.33" cy="82.16" r="1.01"/>
          <path class="cls-3" d="m157.33,83.68c-.84,0-1.51-.68-1.51-1.51s.68-1.52,1.51-1.52,1.51.68,1.51,1.52-.68,1.51-1.51,1.51Zm0-2.03c-.28,0-.51.23-.51.52s.23.51.51.51.51-.23.51-.51-.23-.52-.51-.52Z"/>
        </g>
      </g>
    </g>
    <g>
      <g>
        <rect class="cls-9" x="95.64" y="170.13" width="24.17" height="8.36" rx="2.65" ry="2.65"/>
        <path class="cls-3" d="m117.15,178.99h-18.86c-1.74,0-3.15-1.41-3.15-3.15v-3.06c0-1.74,1.41-3.15,3.15-3.15h18.86c1.74,0,3.15,1.41,3.15,3.15v3.06c0,1.74-1.41,3.15-3.15,3.15Zm-18.86-8.36c-1.19,0-2.15.97-2.15,2.15v3.06c0,1.19.97,2.15,2.15,2.15h18.86c1.19,0,2.15-.97,2.15-2.15v-3.06c0-1.19-.97-2.15-2.15-2.15h-18.86Z"/>
      </g>
      <g>
        <rect class="cls-1" x="87.95" y="175.56" width="39.54" height="39.54" rx="6.49" ry="6.49"/>
        <path class="cls-3" d="m121,215.6h-26.56c-3.86,0-6.99-3.14-6.99-6.99v-26.56c0-3.86,3.14-6.99,6.99-6.99h26.56c3.86,0,6.99,3.14,6.99,6.99v26.56c0,3.86-3.14,6.99-6.99,6.99Zm-26.56-39.54c-3.31,0-5.99,2.69-5.99,5.99v26.56c0,3.31,2.69,5.99,5.99,5.99h26.56c3.31,0,5.99-2.69,5.99-5.99v-26.56c0-3.31-2.69-5.99-5.99-5.99h-26.56Z"/>
      </g>
      <g>
        <g>
          <circle class="cls-8" cx="107.72" cy="195.33" r="15.3"/>
          <path class="cls-3" d="m107.72,211.13c-8.71,0-15.8-7.09-15.8-15.8s7.09-15.8,15.8-15.8,15.8,7.09,15.8,15.8-7.09,15.8-15.8,15.8Zm0-30.6c-8.16,0-14.8,6.64-14.8,14.8s6.64,14.8,14.8,14.8,14.8-6.64,14.8-14.8-6.64-14.8-14.8-14.8Z"/>
        </g>
        <g>
          <circle class="cls-8" cx="107.72" cy="195.33" r="11.06"/>
          <path class="cls-3" d="m107.72,206.89c-6.38,0-11.56-5.19-11.56-11.56s5.19-11.56,11.56-11.56,11.56,5.19,11.56,11.56-5.19,11.56-11.56,11.56Zm0-22.12c-5.82,0-10.56,4.74-10.56,10.56s4.74,10.56,10.56,10.56,10.56-4.74,10.56-10.56-4.74-10.56-10.56-10.56Z"/>
        </g>
        <g>
          <circle class="cls-8" cx="107.72" cy="195.33" r="6.65"/>
          <path class="cls-3" d="m107.72,202.48c-3.94,0-7.15-3.21-7.15-7.15s3.21-7.15,7.15-7.15,7.15,3.21,7.15,7.15-3.21,7.15-7.15,7.15Zm0-13.3c-3.39,0-6.15,2.76-6.15,6.15s2.76,6.15,6.15,6.15,6.15-2.76,6.15-6.15-2.76-6.15-6.15-6.15Z"/>
        </g>
        <g>
          <line class="cls-1" x1="95.28" y1="182.89" x2="120.16" y2="207.77"/>
          <rect class="cls-3" x="107.22" y="177.74" width="1" height="35.18" transform="translate(-106.57 133.38) rotate(-45)"/>
        </g>
        <g>
          <line class="cls-1" x1="120.16" y1="182.89" x2="95.28" y2="207.77"/>
          <rect class="cls-3" x="90.13" y="194.83" width="35.18" height="1" transform="translate(-106.57 133.38) rotate(-45)"/>
        </g>
        <g>
          <circle class="cls-2" cx="121.05" cy="182" r="1.13"/>
          <path class="cls-3" d="m121.05,183.63c-.9,0-1.63-.73-1.63-1.63s.73-1.63,1.63-1.63,1.63.73,1.63,1.63-.73,1.63-1.63,1.63Zm0-2.27c-.35,0-.63.28-.63.63s.28.63.63.63.63-.28.63-.63-.28-.63-.63-.63Z"/>
        </g>
        <g>
          <circle class="cls-2" cx="94.2" cy="182" r="1.13"/>
          <path class="cls-3" d="m94.2,183.63c-.9,0-1.63-.73-1.63-1.63s.73-1.63,1.63-1.63,1.63.73,1.63,1.63-.73,1.63-1.63,1.63Zm0-2.27c-.35,0-.63.28-.63.63s.28.63.63.63.63-.28.63-.63-.28-.63-.63-.63Z"/>
        </g>
        <g>
          <circle class="cls-2" cx="94.32" cy="208.73" r="1.13"/>
          <path class="cls-3" d="m94.32,210.37c-.9,0-1.63-.73-1.63-1.63s.73-1.63,1.63-1.63,1.63.73,1.63,1.63-.73,1.63-1.63,1.63Zm0-2.27c-.35,0-.63.28-.63.63s.28.63.63.63.63-.28.63-.63-.28-.63-.63-.63Z"/>
        </g>
        <g>
          <circle class="cls-2" cx="121.05" cy="208.66" r="1.13"/>
          <path class="cls-3" d="m121.05,210.29c-.9,0-1.63-.73-1.63-1.63s.73-1.63,1.63-1.63,1.63.73,1.63,1.63-.73,1.63-1.63,1.63Zm0-2.27c-.35,0-.63.28-.63.63s.28.63.63.63.63-.28.63-.63-.28-.63-.63-.63Z"/>
        </g>
      </g>
      <g>
        <g>
          <rect class="cls-2" x="105.26" y="171.86" width="4.85" height="1.98"/>
          <path class="cls-3" d="m110.61,174.34h-5.85v-2.98h5.85v2.98Zm-4.85-1h3.85v-.98h-3.85v.98Z"/>
        </g>
        <g>
          <circle class="cls-2" cx="100.32" cy="172.85" r=".94"/>
          <path class="cls-3" d="m100.32,174.29c-.79,0-1.44-.65-1.44-1.44s.65-1.44,1.44-1.44,1.44.65,1.44,1.44-.65,1.44-1.44,1.44Zm0-1.88c-.24,0-.44.2-.44.44s.2.44.44.44.44-.2.44-.44-.2-.44-.44-.44Z"/>
        </g>
        <g>
          <circle class="cls-2" cx="115.05" cy="172.85" r="1.01"/>
          <path class="cls-3" d="m115.05,174.36c-.84,0-1.52-.68-1.52-1.52s.68-1.52,1.52-1.52,1.51.68,1.51,1.52-.68,1.52-1.51,1.52Zm0-2.03c-.28,0-.52.23-.52.52s.23.52.52.52.51-.23.51-.52-.23-.52-.51-.52Z"/>
        </g>
      </g>
    </g>
    <g>
      <g>
        <rect class="cls-9" x="117.6" y="124.87" width="24.17" height="8.36" rx="2.65" ry="2.65"/>
        <path class="cls-3" d="m139.11,133.72h-18.86c-1.74,0-3.15-1.41-3.15-3.15v-3.06c0-1.74,1.41-3.15,3.15-3.15h18.86c1.74,0,3.15,1.41,3.15,3.15v3.06c0,1.74-1.41,3.15-3.15,3.15Zm-18.86-8.36c-1.19,0-2.15.97-2.15,2.15v3.06c0,1.19.97,2.15,2.15,2.15h18.86c1.19,0,2.15-.97,2.15-2.15v-3.06c0-1.19-.97-2.15-2.15-2.15h-18.86Z"/>
      </g>
      <g>
        <rect class="cls-1" x="109.91" y="130.29" width="39.54" height="39.54" rx="6.49" ry="6.49"/>
        <path class="cls-3" d="m142.96,170.34h-26.56c-3.86,0-6.99-3.14-6.99-6.99v-26.55c0-3.86,3.14-6.99,6.99-6.99h26.56c3.86,0,6.99,3.14,6.99,6.99v26.55c0,3.86-3.14,6.99-6.99,6.99Zm-26.56-39.54c-3.31,0-5.99,2.69-5.99,5.99v26.55c0,3.31,2.69,5.99,5.99,5.99h26.56c3.31,0,5.99-2.69,5.99-5.99v-26.55c0-3.31-2.69-5.99-5.99-5.99h-26.56Z"/>
      </g>
      <g>
        <g>
          <circle class="cls-8" cx="129.68" cy="150.07" r="15.3"/>
          <path class="cls-3" d="m129.68,165.86c-8.71,0-15.8-7.09-15.8-15.8s7.09-15.8,15.8-15.8,15.8,7.09,15.8,15.8-7.09,15.8-15.8,15.8Zm0-30.6c-8.16,0-14.8,6.64-14.8,14.8s6.64,14.8,14.8,14.8,14.8-6.64,14.8-14.8-6.64-14.8-14.8-14.8Z"/>
        </g>
        <g>
          <circle class="cls-8" cx="129.68" cy="150.07" r="11.06"/>
          <path class="cls-3" d="m129.68,161.63c-6.38,0-11.56-5.19-11.56-11.56s5.19-11.56,11.56-11.56,11.56,5.19,11.56,11.56-5.19,11.56-11.56,11.56Zm0-22.12c-5.82,0-10.56,4.74-10.56,10.56s4.74,10.56,10.56,10.56,10.56-4.74,10.56-10.56-4.74-10.56-10.56-10.56Z"/>
        </g>
        <g>
          <circle class="cls-8" cx="129.68" cy="150.07" r="6.65"/>
          <path class="cls-3" d="m129.68,157.22c-3.94,0-7.15-3.21-7.15-7.15s3.21-7.15,7.15-7.15,7.15,3.21,7.15,7.15-3.21,7.15-7.15,7.15Zm0-13.3c-3.39,0-6.15,2.76-6.15,6.15s2.76,6.15,6.15,6.15,6.15-2.76,6.15-6.15-2.76-6.15-6.15-6.15Z"/>
        </g>
        <g>
          <line class="cls-1" x1="117.24" y1="137.63" x2="142.12" y2="162.5"/>
          <rect class="cls-3" x="129.18" y="132.47" width="1" height="35.18" transform="translate(-68.13 135.65) rotate(-45)"/>
        </g>
        <g>
          <line class="cls-1" x1="142.12" y1="137.63" x2="117.24" y2="162.5"/>
          <rect class="cls-3" x="112.09" y="149.57" width="35.18" height="1" transform="translate(-68.13 135.65) rotate(-45)"/>
        </g>
        <g>
          <circle class="cls-2" cx="143.01" cy="136.74" r="1.13"/>
          <path class="cls-3" d="m143.01,138.37c-.9,0-1.63-.73-1.63-1.63s.73-1.63,1.63-1.63,1.63.73,1.63,1.63-.73,1.63-1.63,1.63Zm0-2.27c-.35,0-.63.28-.63.63s.28.63.63.63.63-.28.63-.63-.28-.63-.63-.63Z"/>
        </g>
        <g>
          <circle class="cls-2" cx="116.16" cy="136.74" r="1.13"/>
          <path class="cls-3" d="m116.16,138.37c-.9,0-1.63-.73-1.63-1.63s.73-1.63,1.63-1.63,1.63.73,1.63,1.63-.73,1.63-1.63,1.63Zm0-2.27c-.35,0-.63.28-.63.63s.28.63.63.63.63-.28.63-.63-.28-.63-.63-.63Z"/>
        </g>
        <g>
          <circle class="cls-2" cx="116.28" cy="163.47" r="1.13"/>
          <path class="cls-3" d="m116.28,165.1c-.9,0-1.63-.73-1.63-1.63s.73-1.63,1.63-1.63,1.63.73,1.63,1.63-.73,1.63-1.63,1.63Zm0-2.27c-.35,0-.63.28-.63.63s.28.63.63.63.63-.28.63-.63-.28-.63-.63-.63Z"/>
        </g>
        <g>
          <circle class="cls-2" cx="143.01" cy="163.39" r="1.13"/>
          <path class="cls-3" d="m143.01,165.03c-.9,0-1.63-.73-1.63-1.63s.73-1.63,1.63-1.63,1.63.73,1.63,1.63-.73,1.63-1.63,1.63Zm0-2.27c-.35,0-.63.28-.63.63s.28.63.63.63.63-.28.63-.63-.28-.63-.63-.63Z"/>
        </g>
      </g>
      <g>
        <g>
          <rect class="cls-2" x="127.22" y="126.6" width="4.85" height="1.98"/>
          <path class="cls-3" d="m132.57,129.08h-5.85v-2.98h5.85v2.98Zm-4.85-1h3.85v-.98h-3.85v.98Z"/>
        </g>
        <g>
          <circle class="cls-2" cx="122.28" cy="127.59" r=".94"/>
          <path class="cls-3" d="m122.28,129.03c-.79,0-1.44-.65-1.44-1.44s.65-1.44,1.44-1.44,1.44.65,1.44,1.44-.65,1.44-1.44,1.44Zm0-1.88c-.24,0-.44.2-.44.44s.2.44.44.44.44-.2.44-.44-.2-.44-.44-.44Z"/>
        </g>
        <g>
          <circle class="cls-2" cx="137.01" cy="127.59" r="1.01"/>
          <path class="cls-3" d="m137.01,129.1c-.84,0-1.51-.68-1.51-1.51s.68-1.52,1.51-1.52,1.51.68,1.51,1.52-.68,1.51-1.51,1.51Zm0-2.03c-.28,0-.51.23-.51.52s.23.51.51.51.51-.23.51-.51-.23-.52-.51-.52Z"/>
        </g>
      </g>
    </g>
    <g>
      <g>
        <rect class="cls-9" x="243.38" y="124.87" width="24.17" height="8.36" rx="2.65" ry="2.65"/>
        <path class="cls-3" d="m264.9,133.72h-18.86c-1.74,0-3.15-1.41-3.15-3.15v-3.06c0-1.74,1.41-3.15,3.15-3.15h18.86c1.74,0,3.15,1.41,3.15,3.15v3.06c0,1.74-1.41,3.15-3.15,3.15Zm-18.86-8.36c-1.19,0-2.15.97-2.15,2.15v3.06c0,1.19.97,2.15,2.15,2.15h18.86c1.19,0,2.15-.97,2.15-2.15v-3.06c0-1.19-.97-2.15-2.15-2.15h-18.86Z"/>
      </g>
      <g>
        <rect class="cls-1" x="235.69" y="130.29" width="39.54" height="39.54" rx="6.49" ry="6.49"/>
        <path class="cls-3" d="m268.74,170.34h-26.56c-3.86,0-6.99-3.14-6.99-6.99v-26.55c0-3.86,3.14-6.99,6.99-6.99h26.56c3.86,0,6.99,3.14,6.99,6.99v26.55c0,3.86-3.14,6.99-6.99,6.99Zm-26.56-39.54c-3.31,0-5.99,2.69-5.99,5.99v26.55c0,3.31,2.69,5.99,5.99,5.99h26.56c3.31,0,5.99-2.69,5.99-5.99v-26.55c0-3.31-2.69-5.99-5.99-5.99h-26.56Z"/>
      </g>
      <g>
        <g>
          <circle class="cls-8" cx="255.47" cy="150.07" r="15.3"/>
          <path class="cls-3" d="m255.47,165.86c-8.71,0-15.8-7.09-15.8-15.8s7.09-15.8,15.8-15.8,15.8,7.09,15.8,15.8-7.09,15.8-15.8,15.8Zm0-30.6c-8.16,0-14.8,6.64-14.8,14.8s6.64,14.8,14.8,14.8,14.8-6.64,14.8-14.8-6.64-14.8-14.8-14.8Z"/>
        </g>
        <g>
          <circle class="cls-8" cx="255.47" cy="150.07" r="11.06"/>
          <path class="cls-3" d="m255.47,161.63c-6.38,0-11.56-5.19-11.56-11.56s5.19-11.56,11.56-11.56,11.56,5.19,11.56,11.56-5.19,11.56-11.56,11.56Zm0-22.12c-5.82,0-10.56,4.74-10.56,10.56s4.74,10.56,10.56,10.56,10.56-4.74,10.56-10.56-4.74-10.56-10.56-10.56Z"/>
        </g>
        <g>
          <circle class="cls-8" cx="255.47" cy="150.07" r="6.65"/>
          <path class="cls-3" d="m255.47,157.22c-3.94,0-7.15-3.21-7.15-7.15s3.21-7.15,7.15-7.15,7.15,3.21,7.15,7.15-3.21,7.15-7.15,7.15Zm0-13.3c-3.39,0-6.15,2.76-6.15,6.15s2.76,6.15,6.15,6.15,6.15-2.76,6.15-6.15-2.76-6.15-6.15-6.15Z"/>
        </g>
        <g>
          <line class="cls-1" x1="243.03" y1="137.63" x2="267.9" y2="162.5"/>
          <rect class="cls-3" x="254.97" y="132.47" width="1" height="35.18" transform="translate(-31.29 224.59) rotate(-45)"/>
        </g>
        <g>
          <line class="cls-1" x1="267.9" y1="137.63" x2="243.03" y2="162.5"/>
          <rect class="cls-3" x="237.87" y="149.57" width="35.18" height="1" transform="translate(-31.29 224.59) rotate(-45)"/>
        </g>
        <g>
          <circle class="cls-2" cx="268.79" cy="136.74" r="1.13"/>
          <path class="cls-3" d="m268.79,138.37c-.9,0-1.63-.73-1.63-1.63s.73-1.63,1.63-1.63,1.63.73,1.63,1.63-.73,1.63-1.63,1.63Zm0-2.27c-.35,0-.63.28-.63.63s.28.63.63.63.63-.28.63-.63-.28-.63-.63-.63Z"/>
        </g>
        <g>
          <circle class="cls-2" cx="241.94" cy="136.74" r="1.13"/>
          <path class="cls-3" d="m241.94,138.37c-.9,0-1.63-.73-1.63-1.63s.73-1.63,1.63-1.63,1.63.73,1.63,1.63-.73,1.63-1.63,1.63Zm0-2.27c-.35,0-.63.28-.63.63s.28.63.63.63.63-.28.63-.63-.28-.63-.63-.63Z"/>
        </g>
        <g>
          <circle class="cls-2" cx="242.06" cy="163.47" r="1.13"/>
          <path class="cls-3" d="m242.06,165.1c-.9,0-1.63-.73-1.63-1.63s.73-1.63,1.63-1.63,1.63.73,1.63,1.63-.73,1.63-1.63,1.63Zm0-2.27c-.35,0-.63.28-.63.63s.28.63.63.63.63-.28.63-.63-.28-.63-.63-.63Z"/>
        </g>
        <g>
          <circle class="cls-2" cx="268.79" cy="163.39" r="1.13"/>
          <path class="cls-3" d="m268.79,165.03c-.9,0-1.63-.73-1.63-1.63s.73-1.63,1.63-1.63,1.63.73,1.63,1.63-.73,1.63-1.63,1.63Zm0-2.27c-.35,0-.63.28-.63.63s.28.63.63.63.63-.28.63-.63-.28-.63-.63-.63Z"/>
        </g>
      </g>
      <g>
        <g>
          <rect class="cls-2" x="253" y="126.6" width="4.85" height="1.98"/>
          <path class="cls-3" d="m258.35,129.08h-5.85v-2.98h5.85v2.98Zm-4.85-1h3.85v-.98h-3.85v.98Z"/>
        </g>
        <g>
          <circle class="cls-2" cx="248.06" cy="127.59" r=".94"/>
          <path class="cls-3" d="m248.06,129.03c-.79,0-1.44-.65-1.44-1.44s.65-1.44,1.44-1.44,1.44.65,1.44,1.44-.65,1.44-1.44,1.44Zm0-1.88c-.24,0-.44.2-.44.44s.2.44.44.44.44-.2.44-.44-.2-.44-.44-.44Z"/>
        </g>
        <g>
          <circle class="cls-2" cx="262.79" cy="127.59" r="1.01"/>
          <path class="cls-3" d="m262.79,129.1c-.84,0-1.51-.68-1.51-1.51s.68-1.52,1.51-1.52,1.51.68,1.51,1.52-.68,1.51-1.51,1.51Zm0-2.03c-.28,0-.51.23-.51.52s.23.51.51.51.51-.23.51-.51-.23-.52-.51-.52Z"/>
        </g>
      </g>
    </g>
    <g>
      <g>
        <rect class="cls-9" x="222.64" y="170.13" width="24.17" height="8.36" rx="2.65" ry="2.65"/>
        <path class="cls-3" d="m244.16,178.99h-18.86c-1.74,0-3.15-1.41-3.15-3.15v-3.06c0-1.74,1.41-3.15,3.15-3.15h18.86c1.74,0,3.15,1.41,3.15,3.15v3.06c0,1.74-1.41,3.15-3.15,3.15Zm-18.86-8.36c-1.19,0-2.15.97-2.15,2.15v3.06c0,1.19.97,2.15,2.15,2.15h18.86c1.19,0,2.15-.97,2.15-2.15v-3.06c0-1.19-.97-2.15-2.15-2.15h-18.86Z"/>
      </g>
      <g>
        <rect class="cls-1" x="214.95" y="175.56" width="39.54" height="39.54" rx="6.49" ry="6.49"/>
        <path class="cls-3" d="m248,215.6h-26.55c-3.86,0-6.99-3.14-6.99-6.99v-26.56c0-3.86,3.14-6.99,6.99-6.99h26.55c3.86,0,6.99,3.14,6.99,6.99v26.56c0,3.86-3.14,6.99-6.99,6.99Zm-26.55-39.54c-3.31,0-5.99,2.69-5.99,5.99v26.56c0,3.31,2.69,5.99,5.99,5.99h26.55c3.31,0,5.99-2.69,5.99-5.99v-26.56c0-3.31-2.69-5.99-5.99-5.99h-26.55Z"/>
      </g>
      <g>
        <g>
          <circle class="cls-8" cx="234.73" cy="195.33" r="15.3"/>
          <path class="cls-3" d="m234.73,211.13c-8.71,0-15.8-7.09-15.8-15.8s7.09-15.8,15.8-15.8,15.8,7.09,15.8,15.8-7.09,15.8-15.8,15.8Zm0-30.6c-8.16,0-14.8,6.64-14.8,14.8s6.64,14.8,14.8,14.8,14.8-6.64,14.8-14.8-6.64-14.8-14.8-14.8Z"/>
        </g>
        <g>
          <circle class="cls-8" cx="234.73" cy="195.33" r="11.06"/>
          <path class="cls-3" d="m234.73,206.89c-6.38,0-11.56-5.19-11.56-11.56s5.19-11.56,11.56-11.56,11.56,5.19,11.56,11.56-5.19,11.56-11.56,11.56Zm0-22.12c-5.82,0-10.56,4.74-10.56,10.56s4.74,10.56,10.56,10.56,10.56-4.74,10.56-10.56-4.74-10.56-10.56-10.56Z"/>
        </g>
        <g>
          <circle class="cls-8" cx="234.73" cy="195.33" r="6.65"/>
          <path class="cls-3" d="m234.73,202.48c-3.94,0-7.15-3.21-7.15-7.15s3.21-7.15,7.15-7.15,7.15,3.21,7.15,7.15-3.21,7.15-7.15,7.15Zm0-13.3c-3.39,0-6.15,2.76-6.15,6.15s2.76,6.15,6.15,6.15,6.15-2.76,6.15-6.15-2.76-6.15-6.15-6.15Z"/>
        </g>
        <g>
          <line class="cls-1" x1="222.29" y1="182.89" x2="247.16" y2="207.77"/>
          <rect class="cls-3" x="234.23" y="177.74" width="1" height="35.18" transform="translate(-69.37 223.19) rotate(-45)"/>
        </g>
        <g>
          <line class="cls-1" x1="247.16" y1="182.89" x2="222.29" y2="207.77"/>
          <rect class="cls-3" x="217.14" y="194.83" width="35.18" height="1" transform="translate(-69.37 223.19) rotate(-45)"/>
        </g>
        <g>
          <circle class="cls-2" cx="248.05" cy="182" r="1.13"/>
          <path class="cls-3" d="m248.05,183.63c-.9,0-1.63-.73-1.63-1.63s.73-1.63,1.63-1.63,1.63.73,1.63,1.63-.73,1.63-1.63,1.63Zm0-2.27c-.35,0-.63.28-.63.63s.28.63.63.63.63-.28.63-.63-.28-.63-.63-.63Z"/>
        </g>
        <g>
          <circle class="cls-2" cx="221.2" cy="182" r="1.13"/>
          <path class="cls-3" d="m221.2,183.63c-.9,0-1.63-.73-1.63-1.63s.73-1.63,1.63-1.63,1.63.73,1.63,1.63-.73,1.63-1.63,1.63Zm0-2.27c-.35,0-.63.28-.63.63s.28.63.63.63.63-.28.63-.63-.28-.63-.63-.63Z"/>
        </g>
        <g>
          <circle class="cls-2" cx="221.32" cy="208.73" r="1.13"/>
          <path class="cls-3" d="m221.32,210.37c-.9,0-1.63-.73-1.63-1.63s.73-1.63,1.63-1.63,1.63.73,1.63,1.63-.73,1.63-1.63,1.63Zm0-2.27c-.35,0-.63.28-.63.63s.28.63.63.63.63-.28.63-.63-.28-.63-.63-.63Z"/>
        </g>
        <g>
          <circle class="cls-2" cx="248.05" cy="208.66" r="1.13"/>
          <path class="cls-3" d="m248.05,210.29c-.9,0-1.63-.73-1.63-1.63s.73-1.63,1.63-1.63,1.63.73,1.63,1.63-.73,1.63-1.63,1.63Zm0-2.27c-.35,0-.63.28-.63.63s.28.63.63.63.63-.28.63-.63-.28-.63-.63-.63Z"/>
        </g>
      </g>
      <g>
        <g>
          <rect class="cls-2" x="232.26" y="171.86" width="4.85" height="1.98"/>
          <path class="cls-3" d="m237.61,174.34h-5.85v-2.98h5.85v2.98Zm-4.85-1h3.85v-.98h-3.85v.98Z"/>
        </g>
        <g>
          <circle class="cls-2" cx="227.32" cy="172.85" r=".94"/>
          <path class="cls-3" d="m227.32,174.29c-.79,0-1.44-.65-1.44-1.44s.65-1.44,1.44-1.44,1.44.65,1.44,1.44-.65,1.44-1.44,1.44Zm0-1.88c-.24,0-.44.2-.44.44s.2.44.44.44.44-.2.44-.44-.2-.44-.44-.44Z"/>
        </g>
        <g>
          <circle class="cls-2" cx="242.05" cy="172.85" r="1.01"/>
          <path class="cls-3" d="m242.05,174.36c-.84,0-1.51-.68-1.51-1.52s.68-1.52,1.51-1.52,1.51.68,1.51,1.52-.68,1.52-1.51,1.52Zm0-2.03c-.28,0-.51.23-.51.52s.23.52.51.52.51-.23.51-.52-.23-.52-.51-.52Z"/>
        </g>
      </g>
    </g>
    <g>
      <g>
        <rect class="cls-9" x="264.88" y="170.13" width="24.17" height="8.36" rx="2.65" ry="2.65"/>
        <path class="cls-3" d="m286.4,178.99h-18.86c-1.74,0-3.15-1.41-3.15-3.15v-3.06c0-1.74,1.41-3.15,3.15-3.15h18.86c1.74,0,3.15,1.41,3.15,3.15v3.06c0,1.74-1.41,3.15-3.15,3.15Zm-18.86-8.36c-1.19,0-2.15.97-2.15,2.15v3.06c0,1.19.97,2.15,2.15,2.15h18.86c1.19,0,2.15-.97,2.15-2.15v-3.06c0-1.19-.97-2.15-2.15-2.15h-18.86Z"/>
      </g>
      <g>
        <rect class="cls-1" x="257.2" y="175.56" width="39.54" height="39.54" rx="6.49" ry="6.49"/>
        <path class="cls-3" d="m290.25,215.6h-26.55c-3.86,0-6.99-3.14-6.99-6.99v-26.56c0-3.86,3.14-6.99,6.99-6.99h26.55c3.86,0,6.99,3.14,6.99,6.99v26.56c0,3.86-3.14,6.99-6.99,6.99Zm-26.55-39.54c-3.31,0-5.99,2.69-5.99,5.99v26.56c0,3.31,2.69,5.99,5.99,5.99h26.55c3.31,0,5.99-2.69,5.99-5.99v-26.56c0-3.31-2.69-5.99-5.99-5.99h-26.55Z"/>
      </g>
      <g>
        <g>
          <circle class="cls-8" cx="276.97" cy="195.33" r="15.3"/>
          <path class="cls-3" d="m276.97,211.13c-8.71,0-15.8-7.09-15.8-15.8s7.09-15.8,15.8-15.8,15.8,7.09,15.8,15.8-7.09,15.8-15.8,15.8Zm0-30.6c-8.16,0-14.8,6.64-14.8,14.8s6.64,14.8,14.8,14.8,14.8-6.64,14.8-14.8-6.64-14.8-14.8-14.8Z"/>
        </g>
        <g>
          <circle class="cls-8" cx="276.97" cy="195.33" r="11.06"/>
          <path class="cls-3" d="m276.97,206.89c-6.38,0-11.56-5.19-11.56-11.56s5.19-11.56,11.56-11.56,11.56,5.19,11.56,11.56-5.19,11.56-11.56,11.56Zm0-22.12c-5.82,0-10.56,4.74-10.56,10.56s4.74,10.56,10.56,10.56,10.56-4.74,10.56-10.56-4.74-10.56-10.56-10.56Z"/>
        </g>
        <g>
          <circle class="cls-8" cx="276.97" cy="195.33" r="6.65"/>
          <path class="cls-3" d="m276.97,202.48c-3.94,0-7.15-3.21-7.15-7.15s3.21-7.15,7.15-7.15,7.15,3.21,7.15,7.15-3.21,7.15-7.15,7.15Zm0-13.3c-3.39,0-6.15,2.76-6.15,6.15s2.76,6.15,6.15,6.15,6.15-2.76,6.15-6.15-2.76-6.15-6.15-6.15Z"/>
        </g>
        <g>
          <line class="cls-1" x1="264.53" y1="182.89" x2="289.41" y2="207.77"/>
          <rect class="cls-3" x="276.47" y="177.74" width="1" height="35.18" transform="translate(-57 253.06) rotate(-45)"/>
        </g>
        <g>
          <line class="cls-1" x1="289.41" y1="182.89" x2="264.53" y2="207.77"/>
          <rect class="cls-3" x="259.38" y="194.83" width="35.18" height="1" transform="translate(-57 253.06) rotate(-45)"/>
        </g>
        <g>
          <circle class="cls-2" cx="290.3" cy="182" r="1.13"/>
          <path class="cls-3" d="m290.3,183.63c-.9,0-1.63-.73-1.63-1.63s.73-1.63,1.63-1.63,1.63.73,1.63,1.63-.73,1.63-1.63,1.63Zm0-2.27c-.35,0-.63.28-.63.63s.28.63.63.63.63-.28.63-.63-.28-.63-.63-.63Z"/>
        </g>
        <g>
          <circle class="cls-2" cx="263.44" cy="182" r="1.13"/>
          <path class="cls-3" d="m263.44,183.63c-.9,0-1.63-.73-1.63-1.63s.73-1.63,1.63-1.63,1.63.73,1.63,1.63-.73,1.63-1.63,1.63Zm0-2.27c-.35,0-.63.28-.63.63s.28.63.63.63.63-.28.63-.63-.28-.63-.63-.63Z"/>
        </g>
        <g>
          <circle class="cls-2" cx="263.56" cy="208.73" r="1.13"/>
          <path class="cls-3" d="m263.56,210.37c-.9,0-1.63-.73-1.63-1.63s.73-1.63,1.63-1.63,1.63.73,1.63,1.63-.73,1.63-1.63,1.63Zm0-2.27c-.35,0-.63.28-.63.63s.28.63.63.63.63-.28.63-.63-.28-.63-.63-.63Z"/>
        </g>
        <g>
          <circle class="cls-2" cx="290.3" cy="208.66" r="1.13"/>
          <path class="cls-3" d="m290.3,210.29c-.9,0-1.63-.73-1.63-1.63s.73-1.63,1.63-1.63,1.63.73,1.63,1.63-.73,1.63-1.63,1.63Zm0-2.27c-.35,0-.63.28-.63.63s.28.63.63.63.63-.28.63-.63-.28-.63-.63-.63Z"/>
        </g>
      </g>
      <g>
        <g>
          <rect class="cls-2" x="274.5" y="171.86" width="4.85" height="1.98"/>
          <path class="cls-3" d="m279.86,174.34h-5.85v-2.98h5.85v2.98Zm-4.85-1h3.85v-.98h-3.85v.98Z"/>
        </g>
        <g>
          <circle class="cls-2" cx="269.57" cy="172.85" r=".94"/>
          <path class="cls-3" d="m269.57,174.29c-.79,0-1.44-.65-1.44-1.44s.65-1.44,1.44-1.44,1.44.65,1.44,1.44-.65,1.44-1.44,1.44Zm0-1.88c-.24,0-.44.2-.44.44s.2.44.44.44.44-.2.44-.44-.2-.44-.44-.44Z"/>
        </g>
        <g>
          <circle class="cls-2" cx="284.3" cy="172.85" r="1.01"/>
          <path class="cls-3" d="m284.3,174.36c-.84,0-1.51-.68-1.51-1.52s.68-1.52,1.51-1.52,1.51.68,1.51,1.52-.68,1.52-1.51,1.52Zm0-2.03c-.28,0-.51.23-.51.52s.23.52.51.52.51-.23.51-.52-.23-.52-.51-.52Z"/>
        </g>
      </g>
    </g>
  </g>
  <g>
    <path class="cls-7" d="m44.47,213.1c-8.2,0-16.4,0-24.6,0-.2,0-.39,0-.59,0-.36-.01-.75-.38-.92-.64-.48-.73,0-1.27.32-1.83.23-.41.46-.83.71-1.23.25-.41.52-.8.75-1.22.22-.42.43-.84.69-1.24.25-.38.46-.78.68-1.17.29-.53.59-1.05.89-1.58.32-.54.65-1.08.96-1.63.3-.51.59-1.03.87-1.55.4-.73.8-1.45,1.24-2.15.54-.88,1.02-1.8,1.56-2.68.31-.51.55-1.06.94-1.53.13-.15.15-.38.26-.57.35-.59.68-1.2,1.04-1.79.84-1.38,1.61-2.81,2.43-4.21.71-1.21,1.41-2.42,2.11-3.63.84-1.46,1.68-2.92,2.52-4.38.7-1.21,1.41-2.42,2.11-3.63.5-.86.98-1.72,1.48-2.58.98-1.69,1.96-3.37,2.93-5.06.19-.33.38-.67.58-1,.58-.95,1.84-.65,2.23.09.79,1.52,1.73,2.95,2.55,4.45.24.44.47.91.74,1.33.32.5.62,1.02.91,1.53.33.59.66,1.19,1.01,1.77.88,1.47,1.73,2.96,2.59,4.44.78,1.34,1.56,2.68,2.34,4.03.7,1.21,1.39,2.42,2.09,3.63.56.98,1.15,1.95,1.7,2.94.37.67.77,1.33,1.14,2,.27.48.56.94.83,1.41.71,1.21,1.41,2.43,2.11,3.64.32.54.66,1.07.94,1.64.31.63.69,1.22,1.04,1.83.53.91,1.06,1.81,1.58,2.72.29.5.56,1.01.85,1.5.3.51.6,1.02.91,1.53.58.97,1.17,1.94,1.69,2.94.45.85-.09,1.88-1.19,1.88-6.08,0-12.15,0-18.23,0-2.26,0-4.52,0-6.77,0Zm.94-40.61c-.05,0-.07-.04-.09-.08-.23-.4-.46-.8-.68-1.21-.09-.17-.15-.2-.26,0-.32.57-.64,1.13-.97,1.69-.52.89-1.06,1.78-1.57,2.68-.5.87-1,1.73-1.47,2.61-.07.14-.19.23-.26.37-.11.23-.21.48-.34.7-.08.13-.17.25-.24.38-.31.58-.65,1.15-.97,1.72-.35.61-.7,1.21-1.07,1.81-.63,1.01-1.19,2.06-1.78,3.09-.66,1.14-1.32,2.29-1.98,3.43-.61,1.04-1.22,2.08-1.83,3.12-.37.63-.73,1.26-1.1,1.9-.67,1.18-1.32,2.37-2.02,3.53-.53.88-1.02,1.79-1.56,2.66-.52.86-.97,1.77-1.48,2.64-.58.99-1.15,1.97-1.72,2.97-.48.83-.92,1.68-1.42,2.49-.32.52-.59,1.06-.93,1.59.07,0,.11,0,.15,0,15.1,0,30.2,0,45.3,0,.23,0,.21-.07.12-.22-.29-.49-.57-.98-.85-1.48-1.47-2.54-2.94-5.09-4.41-7.63-.69-1.19-1.37-2.38-2.06-3.57-1.66-2.87-3.31-5.74-4.97-8.61-.89-1.54-1.79-3.08-2.67-4.63-1.09-1.92-2.21-3.82-3.3-5.75-.46-.82-.95-1.64-1.44-2.45-.53-.87-1.02-1.76-1.52-2.64-.21-.36-.4-.73-.6-1.1,0,0,.02,0,.03,0,0,0-.01,0-.02,0Z"/>
    <path class="cls-10" d="m45.41,172.49c.2.37.39.74.6,1.1.5.88.99,1.78,1.52,2.64.49.81.98,1.63,1.44,2.45,1.08,1.92,2.21,3.83,3.3,5.75.88,1.55,1.78,3.09,2.67,4.63,1.66,2.87,3.31,5.74,4.97,8.61.69,1.19,1.37,2.38,2.06,3.57,1.47,2.54,2.94,5.09,4.41,7.63.28.49.57.99.85,1.48.09.16.11.22-.12.22-15.1,0-30.2,0-45.3,0-.04,0-.07,0-.15,0,.34-.53.61-1.07.93-1.59.5-.81.94-1.66,1.42-2.49.57-.99,1.15-1.98,1.72-2.97.51-.87.95-1.78,1.48-2.64.54-.88,1.02-1.78,1.56-2.66.7-1.16,1.35-2.35,2.02-3.53.36-.63.73-1.26,1.1-1.9.61-1.04,1.22-2.08,1.83-3.12.66-1.14,1.32-2.29,1.98-3.43.59-1.03,1.15-2.08,1.78-3.09.37-.59.72-1.2,1.07-1.81.33-.57.67-1.14.97-1.72.07-.13.17-.25.24-.38.13-.22.24-.46.34-.7.07-.15.19-.24.26-.37.47-.88.98-1.74,1.47-2.61.51-.9,1.04-1.79,1.57-2.68.33-.56.65-1.12.97-1.69.11-.19.16-.16.26,0,.22.41.45.8.68,1.21.02.04.04.08.09.08h0Zm4.15,32.17c-.81-.06-1.54-.12-2.26-.17-.57-.04-1.15-.07-1.73-.11-.12,0-.24-.04-.37-.06-.06,0-.11-.02-.1-.09.03-.12.04-.26.11-.35.22-.28.33-.62.45-.94.3-.79.58-1.59.9-2.37.35-.86.66-1.74,1.02-2.59.41-.98.8-1.98,1.17-2.98.27-.73.57-1.44.83-2.17.33-.93.74-1.84,1.11-2.75.02-.06.1-.13.04-.2-.06-.07-.13,0-.19.03-.7.31-1.4.61-2.1.93-1.34.62-2.71,1.19-4.04,1.83-.56.27-1.13.53-1.71.74-.32.12-.63.28-.97.43.05-.24.21-.37.31-.53.62-1,1.25-1.99,1.88-2.98.2-.3.44-.6.6-.9.25-.47.54-.9.82-1.34.3-.48.63-.94.92-1.42.63-1.03,1.27-2.05,1.93-3.06.07-.1.2-.25,0-.39-.33-.23-.68-.43-1-.68-.52-.4-1.11-.68-1.62-1.1-.36-.29-.76-.52-1.13-.8-.32-.25-.69-.45-1.03-.69-.14-.1-.15-.02-.18.09-.19.63-.39,1.26-.6,1.89-.22.7-.46,1.4-.68,2.09-.17.53-.33,1.05-.49,1.58-.22.71-.44,1.42-.66,2.14-.13.41-.29.82-.4,1.24-.16.58-.38,1.14-.55,1.73-.24.84-.54,1.67-.8,2.5-.2.62-.38,1.24-.57,1.86-.27.85-.55,1.7-.82,2.55-.02.05-.08.11-.03.17.07.08.13,0,.19-.02.87-.32,1.75-.65,2.62-.96,1.7-.61,3.39-1.22,5.09-1.83.09-.03.19-.1.3-.02-1.19,2.84-2.37,5.67-3.56,8.52-1.12-.72-2.23-1.42-3.33-2.12,0,.09.03.14.06.18.25.57.46,1.16.74,1.72.38.77.68,1.58,1.05,2.36.42.89.83,1.78,1.18,2.7.11.3.14.3.41.16.86-.45,1.72-.89,2.57-1.36.29-.16.56-.33.87-.47.59-.26,1.15-.6,1.73-.89.17-.09.3-.23.48-.3.52-.21,1-.5,1.57-.8Z"/>
    <path class="cls-10" d="m45.41,172.49s.01,0,.02,0c0,0-.02,0-.03,0,0,0,0,0,0,0Z"/>
    <path class="cls-7" d="m49.56,204.66c-.57.3-1.05.59-1.57.8-.18.07-.31.21-.48.3-.58.29-1.14.63-1.73.89-.31.14-.58.31-.87.47-.84.47-1.71.91-2.57,1.36-.27.14-.3.14-.41-.16-.35-.92-.76-1.81-1.18-2.7-.37-.78-.67-1.59-1.05-2.36-.28-.56-.49-1.15-.74-1.72-.02-.05-.05-.09-.06-.18,1.1.7,2.21,1.41,3.33,2.12,1.19-2.85,2.38-5.68,3.56-8.52-.11-.07-.21-.01-.3.02-1.7.61-3.39,1.22-5.09,1.83-.88.32-1.75.64-2.62.96-.06.02-.12.1-.19.02-.05-.06.01-.12.03-.17.27-.85.55-1.7.82-2.55.2-.62.38-1.24.57-1.86.27-.83.57-1.66.8-2.5.16-.58.39-1.14.55-1.73.11-.42.27-.82.4-1.24.22-.71.44-1.42.66-2.14.16-.53.32-1.06.49-1.58.22-.7.45-1.4.68-2.09.2-.63.4-1.26.6-1.89.03-.11.04-.19.18-.09.34.24.71.44,1.03.69.37.28.77.51,1.13.8.51.41,1.1.7,1.62,1.1.32.25.67.45,1,.68.2.14.07.28,0,.39-.66,1.01-1.3,2.03-1.93,3.06-.3.48-.62.95-.92,1.42-.28.44-.57.88-.82,1.34-.16.31-.4.6-.6.9-.64.99-1.26,1.98-1.88,2.98-.1.16-.26.29-.31.53.35-.15.65-.31.97-.43.59-.22,1.16-.48,1.71-.74,1.34-.64,2.7-1.21,4.04-1.83.69-.32,1.4-.62,2.1-.93.06-.03.13-.1.19-.03.06.06-.01.13-.04.2-.37.92-.77,1.82-1.11,2.75-.26.73-.56,1.45-.83,2.17-.37,1-.76,1.99-1.17,2.98-.36.86-.66,1.73-1.02,2.59-.32.78-.6,1.58-.9,2.37-.12.32-.23.66-.45.94-.07.09-.08.23-.11.35-.02.07.04.08.1.09.12.02.24.05.37.06.57.04,1.15.07,1.73.11.73.05,1.46.11,2.26.17Z"/>
  </g>
  <g>
    <path class="cls-7" d="m44.47,161.38c-8.2,0-16.4,0-24.6,0-.2,0-.39,0-.59,0-.36-.01-.75-.38-.92-.64-.48-.73,0-1.27.32-1.83.23-.41.46-.83.71-1.23.25-.41.52-.8.75-1.22.22-.42.43-.84.69-1.24.25-.38.46-.78.68-1.17.29-.53.59-1.05.89-1.58.32-.54.65-1.08.96-1.63.3-.51.59-1.03.87-1.55.4-.73.8-1.45,1.24-2.15.54-.88,1.02-1.8,1.56-2.68.31-.51.55-1.06.94-1.53.13-.15.15-.38.26-.57.35-.59.68-1.2,1.04-1.79.84-1.38,1.61-2.81,2.43-4.21.71-1.21,1.41-2.42,2.11-3.63.84-1.46,1.68-2.92,2.52-4.38.7-1.21,1.41-2.42,2.11-3.63.5-.86.98-1.72,1.48-2.58.98-1.69,1.96-3.37,2.93-5.06.19-.33.38-.67.58-1,.58-.95,1.84-.65,2.23.09.79,1.52,1.73,2.95,2.55,4.45.24.44.47.91.74,1.33.32.5.62,1.02.91,1.53.33.59.66,1.19,1.01,1.77.88,1.47,1.73,2.96,2.59,4.44.78,1.34,1.56,2.68,2.34,4.03.7,1.21,1.39,2.42,2.09,3.63.56.98,1.15,1.95,1.7,2.94.37.67.77,1.33,1.14,2,.27.48.56.94.83,1.41.71,1.21,1.41,2.43,2.11,3.64.32.54.66,1.07.94,1.64.31.63.69,1.22,1.04,1.83.53.91,1.06,1.81,1.58,2.72.29.5.56,1.01.85,1.5.3.51.6,1.02.91,1.53.58.97,1.17,1.94,1.69,2.94.45.85-.09,1.88-1.19,1.88-6.08,0-12.15,0-18.23,0-2.26,0-4.52,0-6.77,0Zm.94-40.61c-.05,0-.07-.04-.09-.08-.23-.4-.46-.8-.68-1.21-.09-.17-.15-.2-.26,0-.32.57-.64,1.13-.97,1.69-.52.89-1.06,1.78-1.57,2.68-.5.87-1,1.73-1.47,2.61-.07.14-.19.23-.26.37-.11.23-.21.48-.34.7-.08.13-.17.25-.24.38-.31.58-.65,1.15-.97,1.72-.35.61-.7,1.21-1.07,1.81-.63,1.01-1.19,2.06-1.78,3.09-.66,1.14-1.32,2.29-1.98,3.43-.61,1.04-1.22,2.08-1.83,3.12-.37.63-.73,1.26-1.1,1.9-.67,1.18-1.32,2.37-2.02,3.53-.53.88-1.02,1.79-1.56,2.66-.52.86-.97,1.77-1.48,2.64-.58.99-1.15,1.97-1.72,2.97-.48.83-.92,1.68-1.42,2.49-.32.52-.59,1.06-.93,1.59.07,0,.11,0,.15,0,15.1,0,30.2,0,45.3,0,.23,0,.21-.07.12-.22-.29-.49-.57-.98-.85-1.48-1.47-2.54-2.94-5.09-4.41-7.63-.69-1.19-1.37-2.38-2.06-3.57-1.66-2.87-3.31-5.74-4.97-8.61-.89-1.54-1.79-3.08-2.67-4.63-1.09-1.92-2.21-3.82-3.3-5.75-.46-.82-.95-1.64-1.44-2.45-.53-.87-1.02-1.76-1.52-2.64-.21-.36-.4-.73-.6-1.1,0,0,.02,0,.03,0,0,0-.01,0-.02,0Z"/>
    <path class="cls-10" d="m45.41,120.77c.2.37.39.74.6,1.1.5.88.99,1.78,1.52,2.64.49.81.98,1.63,1.44,2.45,1.08,1.92,2.21,3.83,3.3,5.75.88,1.55,1.78,3.09,2.67,4.63,1.66,2.87,3.31,5.74,4.97,8.61.69,1.19,1.37,2.38,2.06,3.57,1.47,2.54,2.94,5.09,4.41,7.63.28.49.57.99.85,1.48.09.16.11.22-.12.22-15.1,0-30.2,0-45.3,0-.04,0-.07,0-.15,0,.34-.53.61-1.07.93-1.59.5-.81.94-1.66,1.42-2.49.57-.99,1.15-1.98,1.72-2.97.51-.87.95-1.78,1.48-2.64.54-.88,1.02-1.78,1.56-2.66.7-1.16,1.35-2.35,2.02-3.53.36-.63.73-1.26,1.1-1.9.61-1.04,1.22-2.08,1.83-3.12.66-1.14,1.32-2.29,1.98-3.43.59-1.03,1.15-2.08,1.78-3.09.37-.59.72-1.2,1.07-1.81.33-.57.67-1.14.97-1.72.07-.13.17-.25.24-.38.13-.22.24-.46.34-.7.07-.15.19-.24.26-.37.47-.88.98-1.74,1.47-2.61.51-.9,1.04-1.79,1.57-2.68.33-.56.65-1.12.97-1.69.11-.19.16-.16.26,0,.22.41.45.8.68,1.21.02.04.04.08.09.08h0Zm4.15,32.17c-.81-.06-1.54-.12-2.26-.17-.57-.04-1.15-.07-1.73-.11-.12,0-.24-.04-.37-.06-.06,0-.11-.02-.1-.09.03-.12.04-.26.11-.35.22-.28.33-.62.45-.94.3-.79.58-1.59.9-2.37.35-.86.66-1.74,1.02-2.59.41-.98.8-1.98,1.17-2.98.27-.73.57-1.44.83-2.17.33-.93.74-1.84,1.11-2.75.02-.06.1-.13.04-.2-.06-.07-.13,0-.19.03-.7.31-1.4.61-2.1.93-1.34.62-2.71,1.19-4.04,1.83-.56.27-1.13.53-1.71.74-.32.12-.63.28-.97.43.05-.24.21-.37.31-.53.62-1,1.25-1.99,1.88-2.98.2-.3.44-.6.6-.9.25-.47.54-.9.82-1.34.3-.48.63-.94.92-1.42.63-1.03,1.27-2.05,1.93-3.06.07-.1.2-.25,0-.39-.33-.23-.68-.43-1-.68-.52-.4-1.11-.68-1.62-1.1-.36-.29-.76-.52-1.13-.8-.32-.25-.69-.45-1.03-.69-.14-.1-.15-.02-.18.09-.19.63-.39,1.26-.6,1.89-.22.7-.46,1.4-.68,2.09-.17.53-.33,1.05-.49,1.58-.22.71-.44,1.42-.66,2.14-.13.41-.29.82-.4,1.24-.16.58-.38,1.14-.55,1.73-.24.84-.54,1.67-.8,2.5-.2.62-.38,1.24-.57,1.86-.27.85-.55,1.7-.82,2.55-.02.05-.08.11-.03.17.07.08.13,0,.19-.02.87-.32,1.75-.65,2.62-.96,1.7-.61,3.39-1.22,5.09-1.83.09-.03.19-.1.3-.02-1.19,2.84-2.37,5.67-3.56,8.52-1.12-.72-2.23-1.42-3.33-2.12,0,.09.03.14.06.18.25.57.46,1.16.74,1.72.38.77.68,1.58,1.05,2.36.42.89.83,1.78,1.18,2.7.11.3.14.3.41.16.86-.45,1.72-.89,2.57-1.36.29-.16.56-.33.87-.47.59-.26,1.15-.6,1.73-.89.17-.09.3-.23.48-.3.52-.21,1-.5,1.57-.8Z"/>
    <path class="cls-10" d="m45.41,120.77s.01,0,.02,0c0,0-.02,0-.03,0,0,0,0,0,0,0Z"/>
    <path class="cls-7" d="m49.56,152.94c-.57.3-1.05.59-1.57.8-.18.07-.31.21-.48.3-.58.29-1.14.63-1.73.89-.31.14-.58.31-.87.47-.84.47-1.71.91-2.57,1.36-.27.14-.3.14-.41-.16-.35-.92-.76-1.81-1.18-2.7-.37-.78-.67-1.59-1.05-2.36-.28-.56-.49-1.15-.74-1.72-.02-.05-.05-.09-.06-.18,1.1.7,2.21,1.41,3.33,2.12,1.19-2.85,2.38-5.68,3.56-8.52-.11-.07-.21-.01-.3.02-1.7.61-3.39,1.22-5.09,1.83-.88.32-1.75.64-2.62.96-.06.02-.12.1-.19.02-.05-.06.01-.12.03-.17.27-.85.55-1.7.82-2.55.2-.62.38-1.24.57-1.86.27-.83.57-1.66.8-2.5.16-.58.39-1.14.55-1.73.11-.42.27-.82.4-1.24.22-.71.44-1.42.66-2.14.16-.53.32-1.06.49-1.58.22-.7.45-1.4.68-2.09.2-.63.4-1.26.6-1.89.03-.11.04-.19.18-.09.34.24.71.44,1.03.69.37.28.77.51,1.13.8.51.41,1.1.7,1.62,1.1.32.25.67.45,1,.68.2.14.07.28,0,.39-.66,1.01-1.3,2.03-1.93,3.06-.3.48-.62.95-.92,1.42-.28.44-.57.88-.82,1.34-.16.31-.4.6-.6.9-.64.99-1.26,1.98-1.88,2.98-.1.16-.26.29-.31.53.35-.15.65-.31.97-.43.59-.22,1.16-.48,1.71-.74,1.34-.64,2.7-1.21,4.04-1.83.69-.32,1.4-.62,2.1-.93.06-.03.13-.1.19-.03.06.06-.01.13-.04.2-.37.92-.77,1.82-1.11,2.75-.26.73-.56,1.45-.83,2.17-.37,1-.76,1.99-1.17,2.98-.36.86-.66,1.73-1.02,2.59-.32.78-.6,1.58-.9,2.37-.12.32-.23.66-.45.94-.07.09-.08.23-.11.35-.02.07.04.08.1.09.12.02.24.05.37.06.57.04,1.15.07,1.73.11.73.05,1.46.11,2.26.17Z"/>
  </g>
  <g>
    <path class="cls-3" d="m52.17,33.29c0,.28.23.5.5.5h-2.89c.28,0,.5-.23.5-.5v-3.92l.57-.12h-1.54v-1.25c0-.28-.23-.5-.5-.5h3.86c-.28,0-.5.23-.5.5v5.29Z"/>
    <path class="cls-3" d="m52.86,29.51c0-.67.23-2.22,2.41-2.22s2.41,1.56,2.41,2.22v2.29c0,.67-.23,2.22-2.41,2.22s-2.41-1.56-2.41-2.22v-2.29Zm3.07,0c0-.09,0-.32-.09-.37-.05-.04-.2-.1-.57-.1h-1.1l.52.11c-.07.06-.08.27-.08.36v2.29c0,.09,0,.31.09.37.05.04.2.1.57.1s.51-.06.57-.1c.08-.05.09-.28.09-.37v-2.29Z"/>
    <path class="cls-3" d="m40.75,41.79v-2.92l-.65,2.92h-1.11l-.65-2.92v2.92h-1.67v-5.15c0-.25-.2-.45-.45-.45h2.42l.9,3.21.78-2.76c.06-.24-.08-.45-.32-.45h2.42v5.6h-1.67Z"/>
    <path class="cls-3" d="m43.19,36.64c0-.25-.2-.45-.45-.45h2.12v5.6h-1.67v-5.15Z"/>
    <path class="cls-3" d="m48.92,41.79l-1.62-2.75v2.75h-1.67v-5.15c0-.25-.2-.45-.45-.45h2.12l1.62,2.75v-2.3c0-.25-.2-.45-.45-.45h2.12v5.6h-1.67Z"/>
    <path class="cls-3" d="m56.13,39.46c0,1.33-1.08,2.41-2.41,2.41s-2.42-1.09-2.42-2.41v-2.82c0-.24-.2-.44-.43-.44h2.1v3.13c0,.42.33.75.75.75s.74-.34.74-.75v-2.69c0-.24-.19-.44-.44-.44h2.11v3.26Z"/>
    <path class="cls-3" d="m56.78,37.76v-1.11c0-.25-.2-.45-.45-.45h4.74v1.56h-1.31v4.04h-1.67v-4.04h-1.31Z"/>
    <path class="cls-3" d="m61.77,36.64c0-.25-.2-.45-.45-.45h4.24v1.56h-2.12v.51h1.78v1.56h-1.78v.41h2.23v1.56h-3.9v-5.15Z"/>
    <path class="cls-3" d="m69.26,38.06c-.17-.59-1.37-.7-1.37-.2,0,.62,2.3.3,2.3,2.15,0,.94-.85,1.92-1.97,1.92-1.83,0-2.33-.93-2.33-.93l.7-1.34c.57.84,1.93.95,1.93.46,0-.7-2.25-.26-2.25-2.35,0-.92.66-1.71,2.09-1.71,1.02,0,1.61.66,1.61.66l-.7,1.34Z"/>
  </g>
  <g>
    <path class="cls-3" d="m123.73,29.76h-.86v-1.11c0-.25-.2-.45-.44-.45h2.98v5.6h-1.68v-4.04Z"/>
    <path class="cls-3" d="m125.65,29.98c0-.59.21-1.97,2.14-1.97s2.14,1.38,2.14,1.97v2.03c0,.59-.21,1.98-2.14,1.98s-2.14-1.38-2.14-1.98v-2.03Zm2.73,0c0-.08,0-.28-.08-.33-.05-.03-.18-.09-.5-.09s-.46.06-.5.09c-.08.05-.09.25-.09.33v2.03c0,.08,0,.28.09.33.04.03.17.09.5.09s.46-.06.5-.09c.07-.05.08-.25.08-.33v-2.03Z"/>
    <path class="cls-3" d="m113.68,41.79v-2.92l-.65,2.92h-1.11l-.65-2.92v2.92h-1.67v-5.15c0-.25-.2-.45-.45-.45h2.42l.9,3.21.78-2.76c.06-.24-.08-.45-.32-.45h2.42v5.6h-1.67Z"/>
    <path class="cls-3" d="m116.12,36.64c0-.25-.2-.45-.45-.45h2.12v5.6h-1.67v-5.15Z"/>
    <path class="cls-3" d="m121.85,41.79l-1.62-2.75v2.75h-1.67v-5.15c0-.25-.2-.45-.45-.45h2.12l1.62,2.75v-2.3c0-.25-.2-.45-.45-.45h2.12v5.6h-1.67Z"/>
    <path class="cls-3" d="m129.06,39.46c0,1.33-1.08,2.41-2.41,2.41s-2.42-1.09-2.42-2.41v-2.82c0-.24-.2-.44-.43-.44h2.1v3.13c0,.42.33.75.75.75s.74-.34.74-.75v-2.69c0-.24-.19-.44-.44-.44h2.11v3.26Z"/>
    <path class="cls-3" d="m129.71,37.76v-1.11c0-.25-.2-.45-.45-.45h4.74v1.56h-1.31v4.04h-1.67v-4.04h-1.31Z"/>
    <path class="cls-3" d="m134.7,36.64c0-.25-.2-.45-.45-.45h4.24v1.56h-2.12v.51h1.78v1.56h-1.78v.41h2.23v1.56h-3.9v-5.15Z"/>
    <path class="cls-3" d="m142.19,38.06c-.17-.59-1.37-.7-1.37-.2,0,.62,2.3.3,2.3,2.15,0,.94-.85,1.92-1.97,1.92-1.83,0-2.33-.93-2.33-.93l.7-1.34c.57.84,1.93.95,1.93.46,0-.7-2.25-.26-2.25-2.35,0-.92.66-1.71,2.09-1.71,1.02,0,1.61.66,1.61.66l-.7,1.34Z"/>
  </g>
</svg>