<?xml version="1.0" encoding="UTF-8"?>
<svg id="Layer_1" data-name="Layer 1" xmlns="http://www.w3.org/2000/svg" width="300" height="225" viewBox="0 0 300 225">
  <defs>
    <style>
      .cls-1 {
        fill: #fff;
      }

      .cls-2 {
        fill: #23140a;
      }

      .cls-3 {
        clip-path: url(#clippath-2);
      }

      .cls-4 {
        isolation: isolate;
        opacity: .35;
      }

      .cls-5 {
        fill: #232323;
      }

      .cls-6 {
        clip-path: url(#clippath-1);
      }

      .cls-7 {
        clip-path: url(#clippath-4);
      }

      .cls-8 {
        fill: #ff7e1c;
      }

      .cls-9 {
        clip-path: url(#clippath);
      }

      .cls-10 {
        fill: none;
      }

      .cls-11 {
        clip-path: url(#clippath-3);
      }

      .cls-12 {
        fill: #ea651b;
      }

      .cls-13 {
        clip-path: url(#clippath-5);
      }

      .cls-14 {
        fill: #ffcf15;
      }
    </style>
    <clipPath id="clippath">
      <path class="cls-10" d="m141.12,177.79c-5.58.06-10.08,2.06-10.05,4.46h0c.01,1.06.9,2.01,2.36,2.75l1.39-1.63,1.31.54.64-1.72h0l.3-.81,4.1.76c1.1-.01,2.21-.03,3.28-.04l1.56-.83s.79.77,1.28.79c1-.01,1.87-.02,2.55-.03l1.04-1.17c-1.2-1.82-5.12-3.13-9.76-3.08Z"/>
    </clipPath>
    <clipPath id="clippath-1">
      <path class="cls-10" d="m236.36,190l-1.66,1.81-1.34.55-1.25,2.72v5.45h13.07s4.41-3.72,4.07-4.07-4.22-3.46-4.22-4.22-8.67-2.24-8.67-2.24Z"/>
    </clipPath>
    <clipPath id="clippath-2">
      <path class="cls-10" d="m234.42,191.17c-5.58.06-10.08,2.06-10.05,4.46h0c.01,1.06.9,2.01,2.36,2.75l1.39-1.63,1.31.54.64-1.72h0l.3-.81,4.1.76c1.1-.01,2.21-.03,3.28-.04l1.56-.83s.79.77,1.28.79c1-.01,1.87-.02,2.55-.03l1.04-1.17c-1.2-1.82-5.12-3.13-9.76-3.08Z"/>
    </clipPath>
    <clipPath id="clippath-3">
      <path class="cls-10" d="m281.22,190.11l1.41-.03,1.42-.97h1.44c.18,0,1.84-.41,1.84-.41l2.69-.28,1.75-2.19,3.15,1.28,1.09,2.06.17,3.65s-1.23,2.3-1.33,2.3-11.4-.93-11.52-.93-2.4-1.34-2.4-1.34l.29-2.99v-.16Z"/>
    </clipPath>
    <clipPath id="clippath-4">
      <path class="cls-10" d="m286.88,185.01l-1.66,1.81-1.34.55-1.25,2.72v5.45h13.07s4.41-3.72,4.07-4.07-4.22-3.46-4.22-4.22-8.67-2.24-8.67-2.24Z"/>
    </clipPath>
    <clipPath id="clippath-5">
      <path class="cls-10" d="m284.94,186.18c-5.58.06-10.08,2.06-10.05,4.46h0c.01,1.06.9,2.01,2.36,2.75l1.39-1.63,1.31.54.64-1.72h0l.3-.81,4.1.76c1.1-.01,2.21-.03,3.28-.04l1.56-.83s.79.77,1.28.79c1-.01,1.87-.02,2.55-.03l1.04-1.17c-1.2-1.82-5.12-3.13-9.76-3.08Z"/>
    </clipPath>
  </defs>
  <g>
    <g class="cls-4">
      <path class="cls-5" d="m25.4,65.99c0,2.68-4.86,4.85-10.86,4.85s-10.86-2.17-10.86-4.85,4.86-4.85,10.86-4.85c6,0,10.86,2.17,10.86,4.85Z"/>
    </g>
    <g>
      <g>
        <path class="cls-12" d="m27.25,69.29c0,2.52-4.74,4.56-10.59,4.56s-10.59-2.04-10.59-4.56v-4.56h21.18v4.56Z"/>
        <ellipse class="cls-8" cx="16.66" cy="64.74" rx="10.59" ry="4.56"/>
      </g>
      <g>
        <path class="cls-12" d="m29.86,64.9c0,2.52-4.74,4.56-10.59,4.56s-10.59-2.04-10.59-4.56v-4.56h21.18v4.56Z"/>
        <ellipse class="cls-8" cx="19.27" cy="60.34" rx="10.59" ry="4.56"/>
      </g>
      <g>
        <path class="cls-12" d="m27.25,58.93c0,2.52-4.74,4.56-10.59,4.56s-10.59-2.04-10.59-4.56v-4.56h21.18v4.56Z"/>
        <ellipse class="cls-8" cx="16.66" cy="54.38" rx="10.59" ry="4.56"/>
      </g>
      <g>
        <path class="cls-12" d="m28.79,54.42c0,2.52-4.74,4.56-10.59,4.56s-10.59-2.04-10.59-4.56v-4.56h21.18v4.56Z"/>
        <ellipse class="cls-8" cx="18.2" cy="49.87" rx="10.59" ry="4.56"/>
      </g>
      <g>
        <path class="cls-12" d="m27.25,47.59c0,2.52-4.74,4.56-10.59,4.56s-10.59-2.04-10.59-4.56v-4.56h21.18v4.56Z"/>
        <ellipse class="cls-8" cx="16.66" cy="43.03" rx="10.59" ry="4.56"/>
      </g>
      <g>
        <path class="cls-12" d="m29.86,41.18c0,2.52-4.74,4.56-10.59,4.56s-10.59-2.04-10.59-4.56v-4.56h21.18v4.56Z"/>
        <ellipse class="cls-8" cx="19.27" cy="36.62" rx="10.59" ry="4.56"/>
      </g>
      <g>
        <path class="cls-12" d="m26.25,36.74c0,2.52-4.74,4.56-10.59,4.56s-10.59-2.04-10.59-4.56v-4.56h21.18v4.56Z"/>
        <ellipse class="cls-8" cx="15.66" cy="32.18" rx="10.59" ry="4.56"/>
      </g>
      <g>
        <path class="cls-12" d="m26.5,30.98c0,2.52-4.74,4.56-10.59,4.56s-10.59-2.04-10.59-4.56v-4.56h21.18v4.56Z"/>
        <ellipse class="cls-8" cx="15.91" cy="26.42" rx="10.59" ry="4.56"/>
      </g>
      <g>
        <path class="cls-12" d="m25.48,24.57c0,2.52-4.74,4.56-10.59,4.56s-10.59-2.04-10.59-4.56v-4.56h21.18v4.56Z"/>
        <ellipse class="cls-8" cx="14.89" cy="20.01" rx="10.59" ry="4.56"/>
      </g>
      <g>
        <g>
          <path class="cls-12" d="m27.25,20.33c0,2.52-4.74,4.56-10.59,4.56s-10.59-2.04-10.59-4.56v-4.56h21.18v4.56Z"/>
          <ellipse class="cls-8" cx="16.66" cy="15.78" rx="10.59" ry="4.56"/>
        </g>
        <path class="cls-1" d="m20.64,16.24c.21.21.2.46-.03.75-.29.35-.76.58-1.41.68-.57.08-1.35.08-2.35,0l-.38.7-1.1-.13.37-.69-.85-.1-.37.69-1.1-.13.38-.7-2.17-.25.55-.57.22.03c.35.05.59.07.7.07.16,0,.28-.04.35-.12l1.21-2.24c.01-.12-.07-.2-.27-.25-.12-.04-.4-.08-.84-.12l-.18-.02.29-.54.67.09c.79.09,1.29.14,1.5.16l.44-.81,1.1.13-.44.8.86.09.43-.79,1.1.13-.44.81c.74.12,1.28.26,1.62.43.42.19.58.43.47.71-.13.41-.58.66-1.37.74h0c.52.12.87.27,1.04.46h0Zm-4.53-.99l.18.02c.62.08,1.12.12,1.48.12.63,0,1.01-.11,1.14-.34s-.09-.41-.63-.55c-.31-.08-.78-.15-1.43-.22-.11,0-.18-.01-.21-.01l-.54.99h0Zm-.66,1.62c.76.09,1.34.14,1.75.15.75,0,1.19-.13,1.32-.37s-.12-.45-.76-.61c-.35-.09-.91-.17-1.67-.25l-.25-.03-.59,1.09.2.02h0s0,0,0,0Z"/>
      </g>
    </g>
    <path class="cls-8" d="m18.78,44.35c.06,0,.13.01.19.02-.06,0-.13-.01-.19-.02Z"/>
    <g class="cls-4">
      <path class="cls-5" d="m51.33,68.8c0,2.68-4.86,4.85-10.86,4.85s-10.86-2.17-10.86-4.85,4.86-4.85,10.86-4.85c6,0,10.86,2.17,10.86,4.85Z"/>
    </g>
    <g>
      <g>
        <path class="cls-12" d="m50.84,63.94c0,2.52-4.74,4.56-10.59,4.56s-10.59-2.04-10.59-4.56v-4.56h21.18v4.56Z"/>
        <ellipse class="cls-8" cx="40.26" cy="59.39" rx="10.59" ry="4.56"/>
      </g>
      <g>
        <path class="cls-12" d="m53.46,59.55c0,2.52-4.74,4.56-10.59,4.56s-10.59-2.04-10.59-4.56v-4.56h21.18v4.56Z"/>
        <ellipse class="cls-8" cx="42.87" cy="54.99" rx="10.59" ry="4.56"/>
      </g>
      <g>
        <path class="cls-12" d="m50.84,53.58c0,2.52-4.74,4.56-10.59,4.56s-10.59-2.04-10.59-4.56v-4.56h21.18v4.56Z"/>
        <ellipse class="cls-8" cx="40.26" cy="49.03" rx="10.59" ry="4.56"/>
      </g>
      <g>
        <path class="cls-12" d="m52.39,49.07c0,2.52-4.74,4.56-10.59,4.56s-10.59-2.04-10.59-4.56v-4.56h21.18v4.56Z"/>
        <ellipse class="cls-8" cx="41.8" cy="44.52" rx="10.59" ry="4.56"/>
      </g>
      <g>
        <path class="cls-12" d="m50.84,42.24c0,2.52-4.74,4.56-10.59,4.56s-10.59-2.04-10.59-4.56v-4.56h21.18v4.56Z"/>
        <ellipse class="cls-8" cx="40.26" cy="37.68" rx="10.59" ry="4.56"/>
      </g>
      <g>
        <path class="cls-12" d="m53.46,35.83c0,2.52-4.74,4.56-10.59,4.56s-10.59-2.04-10.59-4.56v-4.56h21.18v4.56Z"/>
        <ellipse class="cls-8" cx="42.87" cy="31.27" rx="10.59" ry="4.56"/>
      </g>
      <g>
        <path class="cls-12" d="m49.85,31.39c0,2.52-4.74,4.56-10.59,4.56s-10.59-2.04-10.59-4.56v-4.56h21.18v4.56Z"/>
        <ellipse class="cls-8" cx="39.26" cy="26.83" rx="10.59" ry="4.56"/>
      </g>
      <g>
        <path class="cls-12" d="m50.09,25.63c0,2.52-4.74,4.56-10.59,4.56s-10.59-2.04-10.59-4.56v-4.56h21.18v4.56Z"/>
        <ellipse class="cls-8" cx="39.51" cy="21.07" rx="10.59" ry="4.56"/>
      </g>
      <g>
        <path class="cls-12" d="m49.08,19.22c0,2.52-4.74,4.56-10.59,4.56s-10.59-2.04-10.59-4.56v-4.56h21.18v4.56Z"/>
        <ellipse class="cls-8" cx="38.49" cy="14.66" rx="10.59" ry="4.56"/>
      </g>
      <g>
        <g>
          <path class="cls-12" d="m50.84,14.98c0,2.52-4.74,4.56-10.59,4.56s-10.59-2.04-10.59-4.56v-4.56h21.18v4.56Z"/>
          <ellipse class="cls-8" cx="40.26" cy="10.43" rx="10.59" ry="4.56"/>
        </g>
        <path class="cls-1" d="m44.24,10.88c.21.21.2.46-.03.75-.29.35-.76.58-1.41.68-.57.08-1.35.08-2.35,0l-.38.7-1.1-.13.37-.69-.85-.1-.37.69-1.1-.13.38-.7-2.17-.25.55-.57.22.03c.35.05.59.07.7.07.16,0,.28-.04.35-.12l1.21-2.24c.01-.12-.07-.2-.27-.25-.12-.04-.4-.08-.84-.12l-.18-.02.29-.54.67.09c.79.09,1.29.14,1.5.16l.44-.81,1.1.13-.44.8.86.09.43-.79,1.1.13-.44.81c.74.12,1.28.26,1.62.43.42.19.58.43.47.71-.13.41-.58.66-1.37.74h0c.52.12.87.27,1.04.46h0Zm-4.53-.99l.18.02c.62.08,1.12.12,1.48.12.63,0,1.01-.11,1.14-.34s-.09-.41-.63-.55c-.31-.08-.78-.15-1.43-.22-.11,0-.18-.01-.21-.01l-.54.99h0Zm-.66,1.62c.76.09,1.34.14,1.75.15.75,0,1.19-.13,1.32-.37s-.12-.45-.76-.61c-.35-.09-.91-.17-1.67-.25l-.25-.03-.59,1.09.2.02h0s0,0,0,0Z"/>
      </g>
    </g>
    <path class="cls-8" d="m44.51,44.3c.06,0,.13.01.19.02-.06,0-.13-.01-.19-.02Z"/>
    <g class="cls-4">
      <path class="cls-5" d="m74.8,66.12c0,2.68-4.86,4.85-10.86,4.85s-10.86-2.17-10.86-4.85,4.86-4.85,10.86-4.85c6,0,10.86,2.17,10.86,4.85Z"/>
    </g>
    <g>
      <g>
        <path class="cls-12" d="m55.09,64.45c0,2.52,4.74,4.56,10.59,4.56s10.59-2.04,10.59-4.56c0-.62,0-4.56,0-4.56h-10.59c-5.1,0-10.59,0-10.59,0,0,0,0,4.24,0,4.56Z"/>
        <ellipse class="cls-8" cx="65.68" cy="59.9" rx="10.59" ry="4.56"/>
      </g>
      <g>
        <path class="cls-12" d="m52.47,60.06c0,2.52,4.74,4.56,10.59,4.56,5.85,0,10.59-2.04,10.59-4.56v-4.56s-6.19,0-10.59,0h-10.59s0,4.24,0,4.56Z"/>
        <ellipse class="cls-8" cx="63.06" cy="55.5" rx="10.59" ry="4.56"/>
      </g>
      <g>
        <path class="cls-12" d="m55.09,54.09c0,2.52,4.74,4.56,10.59,4.56s10.59-2.04,10.59-4.56v-4.56s-6.19,0-10.59,0c-5.1,0-10.59,0-10.59,0,0,0,0,4.24,0,4.56Z"/>
        <ellipse class="cls-8" cx="65.68" cy="49.54" rx="10.59" ry="4.56"/>
      </g>
      <g>
        <path class="cls-12" d="m53.54,49.58c0,2.52,4.74,4.56,10.59,4.56s10.59-2.04,10.59-4.56c0-.62,0-4.56,0-4.56h-10.59c-5.1,0-10.59,0-10.59,0,0,0,0,4.24,0,4.56Z"/>
        <ellipse class="cls-8" cx="64.13" cy="45.03" rx="10.59" ry="4.56"/>
      </g>
      <g>
        <path class="cls-12" d="m55.09,42.75c0,2.52,4.74,4.56,10.59,4.56s10.59-2.04,10.59-4.56c0-.62,0-4.56,0-4.56h-10.59c-5.1,0-10.59,0-10.59,0,0,0,0,4.24,0,4.56Z"/>
        <ellipse class="cls-8" cx="65.68" cy="38.19" rx="10.59" ry="4.56"/>
      </g>
      <g>
        <path class="cls-12" d="m52.47,36.34c0,2.52,4.74,4.56,10.59,4.56,5.85,0,10.59-2.04,10.59-4.56v-4.56s-6.19,0-10.59,0c-5.1,0-10.59,0-10.59,0,0,0,0,4.24,0,4.56Z"/>
        <ellipse class="cls-8" cx="63.06" cy="31.78" rx="10.59" ry="4.56"/>
      </g>
      <g>
        <path class="cls-12" d="m56.08,31.9c0,2.52,4.74,4.56,10.59,4.56,5.85,0,10.59-2.04,10.59-4.56,0-.62,0-4.56,0-4.56,0,0-6.19,0-10.59,0-5.1,0-10.59,0-10.59,0,0,0,0,4.24,0,4.56Z"/>
        <ellipse class="cls-8" cx="66.67" cy="27.34" rx="10.59" ry="4.56"/>
      </g>
      <g>
        <path class="cls-12" d="m55.84,26.14c0,2.52,4.74,4.56,10.59,4.56,5.85,0,10.59-2.04,10.59-4.56v-4.56s-6.19,0-10.59,0c-5.1,0-10.59,0-10.59,0,0,0,0,4.24,0,4.56Z"/>
        <ellipse class="cls-8" cx="66.43" cy="21.59" rx="10.59" ry="4.56"/>
      </g>
      <g>
        <path class="cls-12" d="m72.88,19.73c0,2.52-4.74,4.56-10.59,4.56s-10.59-2.04-10.59-4.56v-4.56h21.18v4.56Z"/>
        <ellipse class="cls-8" cx="62.29" cy="15.17" rx="10.59" ry="4.56"/>
      </g>
      <g>
        <g>
          <path class="cls-12" d="m74.65,15.49c0,2.52-4.74,4.56-10.59,4.56s-10.59-2.04-10.59-4.56v-4.56h21.18v4.56Z"/>
          <ellipse class="cls-8" cx="64.06" cy="10.94" rx="10.59" ry="4.56"/>
        </g>
        <path class="cls-1" d="m68.04,11.4c.21.21.2.46-.03.75-.29.35-.76.58-1.41.68-.57.08-1.35.08-2.35,0l-.38.7-1.1-.13.37-.69-.85-.1-.37.69-1.1-.13.38-.7-2.17-.25.55-.57.22.03c.35.05.59.07.7.07.16,0,.28-.04.35-.12l1.21-2.24c.01-.12-.07-.2-.27-.25-.12-.04-.4-.08-.84-.12l-.18-.02.29-.54.67.09c.79.09,1.29.14,1.5.16l.44-.81,1.1.13-.44.8.86.09.43-.79,1.1.13-.44.81c.74.12,1.28.26,1.62.43.42.19.58.43.47.71-.13.41-.58.66-1.37.74h0c.52.12.87.27,1.04.46h0Zm-4.53-.99l.18.02c.62.08,1.12.12,1.48.12.63,0,1.01-.11,1.14-.34s-.09-.41-.63-.55c-.31-.08-.78-.15-1.43-.22-.11,0-.18-.01-.21-.01l-.54.99h0Zm-.66,1.62c.76.09,1.34.14,1.75.15.75,0,1.19-.13,1.32-.37s-.12-.45-.76-.61c-.35-.09-.91-.17-1.67-.25l-.25-.03-.59,1.09.2.02h0s0,0,0,0Z"/>
      </g>
    </g>
    <path class="cls-8" d="m71.7,44.3c.06,0,.13.01.19.02-.06,0-.13-.01-.19-.02Z"/>
    <g class="cls-4">
      <path class="cls-5" d="m36.14,78.68c0,2.68-4.86,4.85-10.86,4.85s-10.86-2.17-10.86-4.85,4.86-4.85,10.86-4.85c6,0,10.86,2.17,10.86,4.85Z"/>
    </g>
    <g>
      <g>
        <path class="cls-12" d="m16.09,77.43c0,2.52,4.74,4.56,10.59,4.56s10.59-2.04,10.59-4.56c0-.62,0-4.56,0-4.56h-10.59c-5.1,0-10.59,0-10.59,0,0,0,0,4.24,0,4.56Z"/>
        <ellipse class="cls-8" cx="26.68" cy="72.88" rx="10.59" ry="4.56"/>
      </g>
      <g>
        <path class="cls-12" d="m13.47,73.04c0,2.52,4.74,4.56,10.59,4.56,5.85,0,10.59-2.04,10.59-4.56v-4.56s-6.19,0-10.59,0c-5.1,0-10.59,0-10.59,0,0,0,0,4.24,0,4.56Z"/>
        <ellipse class="cls-8" cx="24.06" cy="68.48" rx="10.59" ry="4.56"/>
      </g>
      <g>
        <path class="cls-12" d="m16.09,67.07c0,2.52,4.74,4.56,10.59,4.56s10.59-2.04,10.59-4.56v-4.56s-6.19,0-10.59,0c-5.1,0-10.59,0-10.59,0,0,0,0,4.24,0,4.56Z"/>
        <ellipse class="cls-8" cx="26.68" cy="62.52" rx="10.59" ry="4.56"/>
      </g>
      <g>
        <path class="cls-12" d="m14.54,62.56c0,2.52,4.74,4.56,10.59,4.56s10.59-2.04,10.59-4.56c0-.62,0-4.56,0-4.56h-10.59c-5.1,0-10.59,0-10.59,0,0,0,0,4.24,0,4.56Z"/>
        <ellipse class="cls-8" cx="25.13" cy="58.01" rx="10.59" ry="4.56"/>
      </g>
      <g>
        <path class="cls-12" d="m16.09,55.73c0,2.52,4.74,4.56,10.59,4.56s10.59-2.04,10.59-4.56v-4.56s-6.19,0-10.59,0c-5.1,0-10.59,0-10.59,0,0,0,0,4.24,0,4.56Z"/>
        <ellipse class="cls-8" cx="26.68" cy="51.17" rx="10.59" ry="4.56"/>
      </g>
      <g>
        <path class="cls-12" d="m13.47,49.32c0,2.52,4.74,4.56,10.59,4.56,5.85,0,10.59-2.04,10.59-4.56,0-.62,0-4.56,0-4.56,0,0-6.19,0-10.59,0-5.1,0-10.59,0-10.59,0,0,0,0,4.24,0,4.56Z"/>
        <ellipse class="cls-8" cx="24.06" cy="44.76" rx="10.59" ry="4.56"/>
      </g>
      <g>
        <path class="cls-12" d="m17.08,44.88c0,2.52,4.74,4.56,10.59,4.56,5.85,0,10.59-2.04,10.59-4.56,0-.62,0-4.56,0-4.56,0,0-6.19,0-10.59,0-5.1,0-10.59,0-10.59,0,0,0,0,4.24,0,4.56Z"/>
        <ellipse class="cls-8" cx="27.67" cy="40.32" rx="10.59" ry="4.56"/>
      </g>
      <g>
        <path class="cls-12" d="m16.84,39.12c0,2.52,4.74,4.56,10.59,4.56,5.85,0,10.59-2.04,10.59-4.56v-4.56s-6.19,0-10.59,0c-5.1,0-10.59,0-10.59,0,0,0,0,4.24,0,4.56Z"/>
        <ellipse class="cls-8" cx="27.43" cy="34.56" rx="10.59" ry="4.56"/>
      </g>
      <g>
        <path class="cls-12" d="m36.83,33.14c0,2.52-4.74,4.56-10.59,4.56s-10.59-2.04-10.59-4.56v-4.56h21.18v4.56Z"/>
        <ellipse class="cls-8" cx="26.24" cy="28.58" rx="10.59" ry="4.56"/>
      </g>
      <g>
        <g>
          <path class="cls-12" d="m38.59,28.91c0,2.52-4.74,4.56-10.59,4.56s-10.59-2.04-10.59-4.56v-4.56h21.18v4.56Z"/>
          <ellipse class="cls-8" cx="28.01" cy="24.35" rx="10.59" ry="4.56"/>
        </g>
        <path class="cls-1" d="m31.99,24.81c.21.21.2.46-.03.75-.29.35-.76.58-1.41.68-.57.08-1.35.08-2.35,0l-.38.7-1.1-.13.37-.69-.85-.1-.37.69-1.1-.13.38-.7-2.17-.25.55-.57.22.03c.35.05.59.07.7.07.16,0,.28-.04.35-.12l1.21-2.24c.01-.12-.07-.2-.27-.25-.12-.04-.4-.08-.84-.12l-.18-.02.29-.54.67.09c.79.09,1.29.14,1.5.16l.44-.81,1.1.13-.44.8.86.09.43-.79,1.1.13-.44.81c.74.12,1.28.26,1.62.43.42.19.58.43.47.71-.13.41-.58.66-1.37.74h0c.52.12.87.27,1.04.46h0Zm-4.53-.99l.18.02c.62.08,1.12.12,1.48.12.63,0,1.01-.11,1.14-.34s-.09-.41-.63-.55c-.31-.08-.78-.15-1.43-.22-.11,0-.18-.01-.21-.01l-.54.99h0Zm-.66,1.62c.76.09,1.34.14,1.75.15.75,0,1.19-.13,1.32-.37s-.12-.45-.76-.61c-.35-.09-.91-.17-1.67-.25l-.25-.03-.59,1.09.2.02h0s0,0,0,0Z"/>
      </g>
    </g>
    <path class="cls-8" d="m34.12,55.58c.06,0,.13.01.19.02-.06,0-.13-.01-.19-.02Z"/>
    <g class="cls-4">
      <path class="cls-5" d="m60.8,77c0,2.68-4.86,4.85-10.86,4.85s-10.86-2.17-10.86-4.85,4.86-4.85,10.86-4.85c6,0,10.86,2.17,10.86,4.85Z"/>
    </g>
    <g>
      <g>
        <path class="cls-12" d="m63.26,76.19c0,2.52-4.74,4.56-10.59,4.56s-10.59-2.04-10.59-4.56v-4.56h21.18v4.56Z"/>
        <ellipse class="cls-8" cx="52.67" cy="71.63" rx="10.59" ry="4.56"/>
      </g>
      <g>
        <path class="cls-12" d="m65.87,71.79c0,2.52-4.74,4.56-10.59,4.56s-10.59-2.04-10.59-4.56v-4.56h21.18v4.56Z"/>
        <ellipse class="cls-8" cx="55.28" cy="67.23" rx="10.59" ry="4.56"/>
      </g>
      <g>
        <path class="cls-12" d="m63.26,65.82c0,2.52-4.74,4.56-10.59,4.56s-10.59-2.04-10.59-4.56v-4.56h21.18v4.56Z"/>
        <ellipse class="cls-8" cx="52.67" cy="61.27" rx="10.59" ry="4.56"/>
      </g>
      <g>
        <path class="cls-12" d="m64.81,61.32c0,2.52-4.74,4.56-10.59,4.56s-10.59-2.04-10.59-4.56v-4.56h21.18v4.56Z"/>
        <ellipse class="cls-8" cx="54.22" cy="56.76" rx="10.59" ry="4.56"/>
      </g>
      <g>
        <path class="cls-12" d="m63.26,54.48c0,2.52-4.74,4.56-10.59,4.56s-10.59-2.04-10.59-4.56v-4.56h21.18v4.56Z"/>
        <ellipse class="cls-8" cx="52.67" cy="49.93" rx="10.59" ry="4.56"/>
      </g>
      <g>
        <path class="cls-12" d="m65.87,48.07c0,2.52-4.74,4.56-10.59,4.56s-10.59-2.04-10.59-4.56v-4.56h21.18v4.56Z"/>
        <ellipse class="cls-8" cx="55.28" cy="43.52" rx="10.59" ry="4.56"/>
      </g>
      <g>
        <path class="cls-12" d="m62.27,43.63c0,2.52-4.74,4.56-10.59,4.56s-10.59-2.04-10.59-4.56v-4.56h21.18v4.56Z"/>
        <ellipse class="cls-8" cx="51.68" cy="39.08" rx="10.59" ry="4.56"/>
      </g>
      <g>
        <path class="cls-12" d="m62.51,37.87c0,2.52-4.74,4.56-10.59,4.56s-10.59-2.04-10.59-4.56v-4.56h21.18v4.56Z"/>
        <ellipse class="cls-8" cx="51.92" cy="33.32" rx="10.59" ry="4.56"/>
      </g>
      <g>
        <path class="cls-12" d="m61.5,31.46c0,2.52-4.74,4.56-10.59,4.56s-10.59-2.04-10.59-4.56v-4.56h21.18v4.56Z"/>
        <ellipse class="cls-8" cx="50.91" cy="26.9" rx="10.59" ry="4.56"/>
      </g>
      <g>
        <g>
          <path class="cls-12" d="m63.26,27.23c0,2.52-4.74,4.56-10.59,4.56s-10.59-2.04-10.59-4.56v-4.56h21.18v4.56Z"/>
          <ellipse class="cls-8" cx="52.67" cy="22.67" rx="10.59" ry="4.56"/>
        </g>
        <path class="cls-1" d="m56.66,23.13c.21.21.2.46-.03.75-.29.35-.76.58-1.41.68-.57.08-1.35.08-2.35,0l-.38.7-1.1-.13.37-.69-.85-.1-.37.69-1.1-.13.38-.7-2.17-.25.55-.57.22.03c.35.05.59.07.7.07.16,0,.28-.04.35-.12l1.21-2.24c.01-.12-.07-.2-.27-.25-.12-.04-.4-.08-.84-.12l-.18-.02.29-.54.67.09c.79.09,1.29.14,1.5.16l.44-.81,1.1.13-.44.8.86.09.43-.79,1.1.13-.44.81c.74.12,1.28.26,1.62.43.42.19.58.43.47.71-.13.41-.58.66-1.37.74h0c.52.12.87.27,1.04.46h0Zm-4.53-.99l.18.02c.62.08,1.12.12,1.48.12.63,0,1.01-.11,1.14-.34s-.09-.41-.63-.55c-.31-.08-.78-.15-1.43-.22-.11,0-.18-.01-.21-.01l-.54.99h0Zm-.66,1.62c.76.09,1.34.14,1.75.15.75,0,1.19-.13,1.32-.37s-.12-.45-.76-.61c-.35-.09-.91-.17-1.67-.25l-.25-.03-.59,1.09.2.02h0s0,0,0,0Z"/>
      </g>
    </g>
    <path class="cls-8" d="m58.3,57.27c.06,0,.13.01.19.02-.06,0-.13-.01-.19-.02Z"/>
  </g>
  <g>
    <g class="cls-4">
      <path class="cls-5" d="m70.93,164.86c0,2.68-4.86,4.85-10.86,4.85s-10.86-2.17-10.86-4.85,4.86-4.85,10.86-4.85c6,0,10.86,2.17,10.86,4.85Z"/>
    </g>
    <g>
      <g>
        <path class="cls-12" d="m73.39,164.04c0,2.52-4.74,4.56-10.59,4.56s-10.59-2.04-10.59-4.56v-4.56h21.18v4.56Z"/>
        <ellipse class="cls-8" cx="62.8" cy="159.49" rx="10.59" ry="4.56"/>
      </g>
      <g>
        <path class="cls-12" d="m76,159.65c0,2.52-4.74,4.56-10.59,4.56s-10.59-2.04-10.59-4.56v-4.56h21.18v4.56Z"/>
        <ellipse class="cls-8" cx="65.41" cy="155.09" rx="10.59" ry="4.56"/>
      </g>
      <g>
        <path class="cls-12" d="m73.39,153.68c0,2.52-4.74,4.56-10.59,4.56s-10.59-2.04-10.59-4.56v-4.56h21.18v4.56Z"/>
        <ellipse class="cls-8" cx="62.8" cy="149.13" rx="10.59" ry="4.56"/>
      </g>
      <g>
        <path class="cls-12" d="m74.93,149.17c0,2.52-4.74,4.56-10.59,4.56s-10.59-2.04-10.59-4.56v-4.56h21.18v4.56Z"/>
        <ellipse class="cls-8" cx="64.34" cy="144.62" rx="10.59" ry="4.56"/>
      </g>
      <g>
        <path class="cls-12" d="m73.39,142.34c0,2.52-4.74,4.56-10.59,4.56s-10.59-2.04-10.59-4.56v-4.56h21.18v4.56Z"/>
        <ellipse class="cls-8" cx="62.8" cy="137.78" rx="10.59" ry="4.56"/>
      </g>
      <g>
        <path class="cls-12" d="m76,135.93c0,2.52-4.74,4.56-10.59,4.56s-10.59-2.04-10.59-4.56v-4.56h21.18v4.56Z"/>
        <ellipse class="cls-8" cx="65.41" cy="131.37" rx="10.59" ry="4.56"/>
      </g>
      <g>
        <path class="cls-12" d="m72.39,131.49c0,2.52-4.74,4.56-10.59,4.56s-10.59-2.04-10.59-4.56v-4.56h21.18v4.56Z"/>
        <ellipse class="cls-8" cx="61.81" cy="126.93" rx="10.59" ry="4.56"/>
      </g>
      <g>
        <path class="cls-12" d="m72.64,125.73c0,2.52-4.74,4.56-10.59,4.56s-10.59-2.04-10.59-4.56v-4.56h21.18v4.56Z"/>
        <ellipse class="cls-8" cx="62.05" cy="121.17" rx="10.59" ry="4.56"/>
      </g>
      <g>
        <path class="cls-12" d="m71.62,119.32c0,2.52-4.74,4.56-10.59,4.56s-10.59-2.04-10.59-4.56v-4.56h21.18v4.56Z"/>
        <ellipse class="cls-8" cx="61.04" cy="114.76" rx="10.59" ry="4.56"/>
      </g>
      <g>
        <g>
          <path class="cls-12" d="m73.39,115.08c0,2.52-4.74,4.56-10.59,4.56s-10.59-2.04-10.59-4.56v-4.56h21.18v4.56Z"/>
          <ellipse class="cls-8" cx="62.8" cy="110.53" rx="10.59" ry="4.56"/>
        </g>
        <path class="cls-1" d="m66.79,110.98c.21.21.2.46-.03.75-.29.35-.76.58-1.41.68-.57.08-1.35.08-2.35,0l-.38.7-1.1-.13.37-.69-.85-.1-.37.69-1.1-.13.38-.7-2.17-.25.55-.57.22.03c.35.05.59.07.7.07.16,0,.28-.04.35-.12l1.21-2.24c.01-.12-.07-.2-.27-.25-.12-.04-.4-.08-.84-.12l-.18-.02.29-.54.67.09c.79.09,1.29.14,1.5.16l.44-.81,1.1.13-.44.8.86.09.43-.79,1.1.13-.44.81c.74.12,1.28.26,1.62.43.42.19.58.43.47.71-.13.41-.58.66-1.37.74h0c.52.12.87.27,1.04.46h0Zm-4.53-.99l.18.02c.62.08,1.12.12,1.48.12.63,0,1.01-.11,1.14-.34s-.09-.41-.63-.55c-.31-.08-.78-.15-1.43-.22-.11,0-.18-.01-.21-.01l-.54.99h0Zm-.66,1.62c.76.09,1.34.14,1.75.15.75,0,1.19-.13,1.32-.37s-.12-.45-.76-.61c-.35-.09-.91-.17-1.67-.25l-.25-.03-.59,1.09.2.02h0s0,0,0,0Z"/>
      </g>
    </g>
    <g class="cls-4">
      <path class="cls-5" d="m98.18,158.24c0,2.68-4.86,4.85-10.86,4.85s-10.86-2.17-10.86-4.85,4.86-4.85,10.86-4.85c6,0,10.86,2.17,10.86,4.85Z"/>
    </g>
    <g>
      <g>
        <path class="cls-12" d="m77.57,156.42c0,2.52,4.74,4.56,10.59,4.56s10.59-2.04,10.59-4.56v-4.56s-6.19,0-10.59,0c-5.1,0-10.59,0-10.59,0,0,0,0,4.24,0,4.56Z"/>
        <ellipse class="cls-8" cx="88.16" cy="151.86" rx="10.59" ry="4.56"/>
      </g>
      <g>
        <path class="cls-12" d="m74.96,152.02c0,2.52,4.74,4.56,10.59,4.56,5.85,0,10.59-2.04,10.59-4.56v-4.56s-6.19,0-10.59,0h-10.59s0,4.24,0,4.56Z"/>
        <ellipse class="cls-8" cx="85.55" cy="147.46" rx="10.59" ry="4.56"/>
      </g>
      <g>
        <path class="cls-12" d="m77.57,146.06c0,2.52,4.74,4.56,10.59,4.56s10.59-2.04,10.59-4.56v-4.56s-6.19,0-10.59,0c-5.1,0-10.59,0-10.59,0,0,0,0,4.24,0,4.56Z"/>
        <ellipse class="cls-8" cx="88.16" cy="141.5" rx="10.59" ry="4.56"/>
      </g>
      <g>
        <path class="cls-12" d="m76.03,141.55c0,2.52,4.74,4.56,10.59,4.56s10.59-2.04,10.59-4.56v-4.56s-6.19,0-10.59,0c-5.1,0-10.59,0-10.59,0,0,0,0,4.24,0,4.56Z"/>
        <ellipse class="cls-8" cx="86.62" cy="136.99" rx="10.59" ry="4.56"/>
      </g>
      <g>
        <path class="cls-12" d="m77.57,134.71c0,2.52,4.74,4.56,10.59,4.56s10.59-2.04,10.59-4.56v-4.56s-6.19,0-10.59,0c-5.1,0-10.59,0-10.59,0,0,0,0,4.24,0,4.56Z"/>
        <ellipse class="cls-8" cx="88.16" cy="130.16" rx="10.59" ry="4.56"/>
      </g>
      <g>
        <path class="cls-12" d="m77.21,128.91c0,2.52,4.74,4.56,10.59,4.56s10.59-2.04,10.59-4.56v-4.56s-6.19,0-10.59,0c-5.1,0-10.59,0-10.59,0,0,0,0,4.24,0,4.56Z"/>
        <ellipse class="cls-8" cx="87.8" cy="124.36" rx="10.59" ry="4.56"/>
      </g>
      <g>
        <path class="cls-12" d="m78.57,123.86c0,2.52,4.74,4.56,10.59,4.56,5.85,0,10.59-2.04,10.59-4.56v-4.56s-6.19,0-10.59,0c-5.1,0-10.59,0-10.59,0,0,0,0,4.24,0,4.56Z"/>
        <ellipse class="cls-8" cx="89.16" cy="119.31" rx="10.59" ry="4.56"/>
      </g>
      <g>
        <path class="cls-12" d="m78.32,118.1c0,2.52,4.74,4.56,10.59,4.56,5.85,0,10.59-2.04,10.59-4.56v-4.56s-6.19,0-10.59,0h-10.59s0,4.24,0,4.56Z"/>
        <ellipse class="cls-8" cx="88.91" cy="113.55" rx="10.59" ry="4.56"/>
      </g>
      <g>
        <path class="cls-12" d="m97.38,112.62c0,2.52-4.74,4.56-10.59,4.56s-10.59-2.04-10.59-4.56v-4.56h21.18v4.56Z"/>
        <ellipse class="cls-8" cx="86.79" cy="108.07" rx="10.59" ry="4.56"/>
      </g>
      <g>
        <g>
          <path class="cls-12" d="m97.13,107.46c0,2.52-4.74,4.56-10.59,4.56s-10.59-2.04-10.59-4.56v-4.56h21.18v4.56Z"/>
          <ellipse class="cls-8" cx="86.55" cy="102.9" rx="10.59" ry="4.56"/>
        </g>
        <path class="cls-1" d="m90.53,103.36c.21.21.2.46-.03.75-.29.35-.76.58-1.41.68-.57.08-1.35.08-2.35,0l-.38.7-1.1-.13.37-.69-.85-.1-.37.69-1.1-.13.38-.7-2.17-.25.55-.57.22.03c.35.05.59.07.7.07.16,0,.28-.04.35-.12l1.21-2.24c.01-.12-.07-.2-.27-.25-.12-.04-.4-.08-.84-.12l-.18-.02.29-.54.67.09c.79.09,1.29.14,1.5.16l.44-.81,1.1.13-.44.8.86.09.43-.79,1.1.13-.44.81c.74.12,1.28.26,1.62.43.42.19.58.43.47.71-.13.41-.58.66-1.37.74h0c.52.12.87.27,1.04.46h0Zm-4.53-.99l.18.02c.62.08,1.12.12,1.48.12.63,0,1.01-.11,1.14-.34s-.09-.41-.63-.55c-.31-.08-.78-.15-1.43-.22-.11,0-.18-.01-.21-.01l-.54.99h0Zm-.66,1.62c.76.09,1.34.14,1.75.15.75,0,1.19-.13,1.32-.37s-.12-.45-.76-.61c-.35-.09-.91-.17-1.67-.25l-.25-.03-.59,1.09.2.02h0s0,0,0,0Z"/>
      </g>
    </g>
    <path class="cls-8" d="m91.64,141c.06,0,.13.01.19.02-.06,0-.13-.01-.19-.02Z"/>
    <g class="cls-4">
      <path class="cls-5" d="m90.95,173.85c0,2.68-4.86,4.85-10.86,4.85s-10.86-2.17-10.86-4.85,4.86-4.85,10.86-4.85c6,0,10.86,2.17,10.86,4.85Z"/>
    </g>
    <g>
      <g>
        <path class="cls-12" d="m93.41,173.03c0,2.52-4.74,4.56-10.59,4.56s-10.59-2.04-10.59-4.56v-4.56h21.18v4.56Z"/>
        <ellipse class="cls-8" cx="82.82" cy="168.48" rx="10.59" ry="4.56"/>
      </g>
      <g>
        <path class="cls-12" d="m96.02,168.64c0,2.52-4.74,4.56-10.59,4.56s-10.59-2.04-10.59-4.56v-4.56h21.18v4.56Z"/>
        <ellipse class="cls-8" cx="85.43" cy="164.08" rx="10.59" ry="4.56"/>
      </g>
      <g>
        <path class="cls-12" d="m93.41,162.67c0,2.52-4.74,4.56-10.59,4.56s-10.59-2.04-10.59-4.56v-4.56h21.18v4.56Z"/>
        <ellipse class="cls-8" cx="82.82" cy="158.12" rx="10.59" ry="4.56"/>
      </g>
      <g>
        <path class="cls-12" d="m94.95,158.16c0,2.52-4.74,4.56-10.59,4.56s-10.59-2.04-10.59-4.56v-4.56h21.18v4.56Z"/>
        <ellipse class="cls-8" cx="84.37" cy="153.61" rx="10.59" ry="4.56"/>
      </g>
      <g>
        <g>
          <path class="cls-12" d="m94.95,152.08c0,2.52-4.74,4.56-10.59,4.56s-10.59-2.04-10.59-4.56v-4.56h21.18v4.56Z"/>
          <ellipse class="cls-8" cx="84.37" cy="147.52" rx="10.59" ry="4.56"/>
        </g>
        <path class="cls-1" d="m88.35,147.98c.21.21.2.46-.03.75-.29.35-.76.58-1.41.68-.57.08-1.35.08-2.35,0l-.38.7-1.1-.13.37-.69-.85-.1-.37.69-1.1-.13.38-.7-2.17-.25.55-.57.22.03c.35.05.59.07.7.07.16,0,.28-.04.35-.12l1.21-2.24c.01-.12-.07-.2-.27-.25-.12-.04-.4-.08-.84-.12l-.18-.02.29-.54.67.09c.79.09,1.29.14,1.5.16l.44-.81,1.1.13-.44.8.86.09.43-.79,1.1.13-.44.81c.74.12,1.28.26,1.62.43.42.19.58.43.47.71-.13.41-.58.66-1.37.74h0c.52.12.87.27,1.04.46h0Zm-4.53-.99l.18.02c.62.08,1.12.12,1.48.12.63,0,1.01-.11,1.14-.34s-.09-.41-.63-.55c-.31-.08-.78-.15-1.43-.22-.11,0-.18-.01-.21-.01l-.54.99h0Zm-.66,1.62c.76.09,1.34.14,1.75.15.75,0,1.19-.13,1.32-.37s-.12-.45-.76-.61c-.35-.09-.91-.17-1.67-.25l-.25-.03-.59,1.09.2.02h0s0,0,0,0Z"/>
      </g>
    </g>
    <path class="cls-8" d="m78.24,153.98c.06,0,.13.01.19.02-.06,0-.13-.01-.19-.02Z"/>
  </g>
  <g>
    <g class="cls-4">
      <path class="cls-5" d="m141.47,184.65c0,2.68-4.86,4.85-10.86,4.85s-10.86-2.17-10.86-4.85,4.86-4.85,10.86-4.85c6,0,10.86,2.17,10.86,4.85Z"/>
    </g>
    <g>
      <g>
        <path class="cls-12" d="m143.93,183.83c0,2.52-4.74,4.56-10.59,4.56s-10.59-2.04-10.59-4.56v-4.56h21.18v4.56Z"/>
        <ellipse class="cls-8" cx="133.34" cy="179.27" rx="10.59" ry="4.56"/>
      </g>
      <g>
        <path class="cls-12" d="m146.54,179.43c0,2.52-4.74,4.56-10.59,4.56s-10.59-2.04-10.59-4.56v-4.56h21.18v4.56Z"/>
        <ellipse class="cls-8" cx="135.95" cy="174.88" rx="10.59" ry="4.56"/>
      </g>
      <g>
        <path class="cls-12" d="m143.93,173.47c0,2.52-4.74,4.56-10.59,4.56s-10.59-2.04-10.59-4.56v-4.56h21.18v4.56Z"/>
        <ellipse class="cls-8" cx="133.34" cy="168.91" rx="10.59" ry="4.56"/>
      </g>
      <g>
        <path class="cls-12" d="m145.47,168.96c0,2.52-4.74,4.56-10.59,4.56s-10.59-2.04-10.59-4.56v-4.56h21.18v4.56Z"/>
        <ellipse class="cls-8" cx="134.88" cy="164.4" rx="10.59" ry="4.56"/>
      </g>
      <g>
        <g>
          <path class="cls-12" d="m145.47,162.87c0,2.52-4.74,4.56-10.59,4.56s-10.59-2.04-10.59-4.56v-4.56h21.18v4.56Z"/>
          <ellipse class="cls-8" cx="134.88" cy="158.32" rx="10.59" ry="4.56"/>
        </g>
        <path class="cls-1" d="m138.87,158.77c.21.21.2.46-.03.75-.29.35-.76.58-1.41.68-.57.08-1.35.08-2.35,0l-.38.7-1.1-.13.37-.69-.85-.1-.37.69-1.1-.13.38-.7-2.17-.25.55-.57.22.03c.35.05.59.07.7.07.16,0,.28-.04.35-.12l1.21-2.24c.01-.12-.07-.2-.27-.25-.12-.04-.4-.08-.84-.12l-.18-.02.29-.54.67.09c.79.09,1.29.14,1.5.16l.44-.81,1.1.13-.44.8.86.09.43-.79,1.1.13-.44.81c.74.12,1.28.26,1.62.43.42.19.58.43.47.71-.13.41-.58.66-1.37.74h0c.52.12.87.27,1.04.46h0Zm-4.53-.99l.18.02c.62.08,1.12.12,1.48.12.63,0,1.01-.11,1.14-.34s-.09-.41-.63-.55c-.31-.08-.78-.15-1.43-.22-.11,0-.18-.01-.21-.01l-.54.99h0Zm-.66,1.62c.76.09,1.34.14,1.75.15.75,0,1.19-.13,1.32-.37s-.12-.45-.76-.61c-.35-.09-.91-.17-1.67-.25l-.25-.03-.59,1.09.2.02h0s0,0,0,0Z"/>
      </g>
    </g>
    <g class="cls-4">
      <path class="cls-5" d="m165.66,188.69c0,2.68-4.86,4.85-10.86,4.85s-10.86-2.17-10.86-4.85,4.86-4.85,10.86-4.85c6,0,10.86,2.17,10.86,4.85Z"/>
    </g>
    <g>
      <g>
        <path class="cls-12" d="m168.11,187.87c0,2.52-4.74,4.56-10.59,4.56s-10.59-2.04-10.59-4.56v-4.56h21.18v4.56Z"/>
        <ellipse class="cls-8" cx="157.52" cy="183.32" rx="10.59" ry="4.56"/>
      </g>
      <g>
        <path class="cls-12" d="m170.72,183.48c0,2.52-4.74,4.56-10.59,4.56s-10.59-2.04-10.59-4.56v-4.56h21.18v4.56Z"/>
        <ellipse class="cls-8" cx="160.14" cy="178.92" rx="10.59" ry="4.56"/>
      </g>
      <g>
        <path class="cls-12" d="m171.56,178.4c0,2.52-4.74,4.56-10.59,4.56s-10.59-2.04-10.59-4.56v-4.56h21.18v4.56Z"/>
        <ellipse class="cls-8" cx="160.97" cy="173.85" rx="10.59" ry="4.56"/>
      </g>
      <g>
        <path class="cls-12" d="m169.66,173c0,2.52-4.74,4.56-10.59,4.56s-10.59-2.04-10.59-4.56v-4.56h21.18v4.56Z"/>
        <ellipse class="cls-8" cx="159.07" cy="168.45" rx="10.59" ry="4.56"/>
      </g>
      <g>
        <g>
          <path class="cls-12" d="m168.11,167.21c0,2.52-4.74,4.56-10.59,4.56s-10.59-2.04-10.59-4.56v-4.56h21.18v4.56Z"/>
          <ellipse class="cls-8" cx="157.52" cy="162.65" rx="10.59" ry="4.56"/>
        </g>
        <path class="cls-1" d="m161.51,163.11c.21.21.2.46-.03.75-.29.35-.76.58-1.41.68-.57.08-1.35.08-2.35,0l-.38.7-1.1-.13.37-.69-.85-.1-.37.69-1.1-.13.38-.7-2.17-.25.55-.57.22.03c.35.05.59.07.7.07.16,0,.28-.04.35-.12l1.21-2.24c.01-.12-.07-.2-.27-.25-.12-.04-.4-.08-.84-.12l-.18-.02.29-.54.67.09c.79.09,1.29.14,1.5.16l.44-.81,1.1.13-.44.8.86.09.43-.79,1.1.13-.44.81c.74.12,1.28.26,1.62.43.42.19.58.43.47.71-.13.41-.58.66-1.37.74h0c.52.12.87.27,1.04.46h0Zm-4.53-.99l.18.02c.62.08,1.12.12,1.48.12.63,0,1.01-.11,1.14-.34s-.09-.41-.63-.55c-.31-.08-.78-.15-1.43-.22-.11,0-.18-.01-.21-.01l-.54.99h0Zm-.66,1.62c.76.09,1.34.14,1.75.15.75,0,1.19-.13,1.32-.37s-.12-.45-.76-.61c-.35-.09-.91-.17-1.67-.25l-.25-.03-.59,1.09.2.02h0s0,0,0,0Z"/>
      </g>
    </g>
    <g class="cls-4">
      <path class="cls-5" d="m148.21,197.73c0,2.68-4.86,4.85-10.86,4.85s-10.86-2.17-10.86-4.85,4.86-4.85,10.86-4.85c6,0,10.86,2.17,10.86,4.85Z"/>
    </g>
    <g>
      <g>
        <path class="cls-12" d="m150.67,196.91c0,2.52-4.74,4.56-10.59,4.56s-10.59-2.04-10.59-4.56v-4.56h21.18v4.56Z"/>
        <ellipse class="cls-8" cx="140.08" cy="192.36" rx="10.59" ry="4.56"/>
      </g>
      <g>
        <g>
          <path class="cls-12" d="m152.57,191.58c0,2.52-4.74,4.56-10.59,4.56s-10.59-2.04-10.59-4.56v-4.56h21.18v4.56Z"/>
          <ellipse class="cls-8" cx="141.98" cy="187.02" rx="10.59" ry="4.56"/>
        </g>
        <path class="cls-1" d="m145.97,187.48c.21.21.2.46-.03.75-.29.35-.76.58-1.41.68-.57.08-1.35.08-2.35,0l-.38.7-1.1-.13.37-.69-.85-.1-.37.69-1.1-.13.38-.7-2.17-.25.55-.57.22.03c.35.05.59.07.7.07.16,0,.28-.04.35-.12l1.21-2.24c.01-.12-.07-.2-.27-.25-.12-.04-.4-.08-.84-.12l-.18-.02.29-.54.67.09c.79.09,1.29.14,1.5.16l.44-.81,1.1.13-.44.8.86.09.43-.79,1.1.13-.44.81c.74.12,1.28.26,1.62.43.42.19.58.43.47.71-.13.41-.58.66-1.37.74h0c.52.12.87.27,1.04.46h0Zm-4.53-.99l.18.02c.62.08,1.12.12,1.48.12.63,0,1.01-.11,1.14-.34s-.09-.41-.63-.55c-.31-.08-.78-.15-1.43-.22-.11,0-.18-.01-.21-.01l-.54.99h0Zm-.66,1.62c.76.09,1.34.14,1.75.15.75,0,1.19-.13,1.32-.37s-.12-.45-.76-.61c-.35-.09-.91-.17-1.67-.25l-.25-.03-.59,1.09.2.02h0s0,0,0,0Z"/>
      </g>
    </g>
    <g>
      <path class="cls-14" d="m143.88,184.66l1.27-.67c-1.07.01-2.18.02-3.28.04l2.01.63Z"/>
      <g>
        <path class="cls-12" d="m133.48,189.28l1.64-2.14,1.59-.13.92-2.71,3.53.19,1.71,1.03s3.29-.85,3.34-.88,3.67-.04,3.67-.04l1.16-1.02-.14-2.69-8.67-1.42-8.43,1.9-1.14,3.73.84,4.2Z"/>
        <path class="cls-12" d="m134.07,187.46l1.03-1.36,1.4-.15,1.05-2.68,3.44.25,1.84.78s3.32-.35,3.37-.39,3.65-.04,3.65-.04l.85-1.42-.17-1.4-8.33-2.63-8.43,1.9.52,3.67-.22,3.46Z"/>
        <path class="cls-12" d="m133.56,186.76l1.64-2.14.97.35,1.08-2.68,3.94.43,1.81.7s3.09-1.54,3.15-1.57,1,.74,1,.74l2.88-.02.86-.97v-.73s-16.65-1.33-16.65-1.33l-1.52,3.02.84,4.2Z"/>
        <path class="cls-12" d="m133.43,185c-1.46-.74-2.35-1.69-2.36-2.75,0,0,.04,3.75.05,4.35.01,1.06.9,2.01,2.36,2.75l-.05-4.34h0Z"/>
        <path class="cls-8" d="m141.12,177.79c-5.58.06-10.08,2.06-10.05,4.46,0,0,2.67-.03,5.7-.07l.3-.81,4.1.76c1.1-.01,2.21-.03,3.28-.04l1.56-.83s.79.77,1.28.79l2.55-.03,1.04-1.17c-1.2-1.82-5.12-3.13-9.76-3.08Z"/>
        <path class="cls-8" d="m133.43,185l1.39-1.63,1.31.54.64-1.72c-3.03.03-5.7.07-5.7.07.01,1.06.9,2.01,2.36,2.75Z"/>
      </g>
    </g>
    <g class="cls-9">
      <path class="cls-1" d="m145.1,182.25c.21.21.2.46-.03.75-.29.35-.76.58-1.41.68-.57.08-1.35.08-2.35,0l-.38.7-1.1-.13.37-.69-.85-.1-.37.69-1.1-.13.38-.7-2.17-.25.55-.57.22.03c.35.05.59.07.7.07.16,0,.28-.04.35-.12l1.21-2.24c.01-.12-.07-.2-.27-.25-.12-.04-.4-.08-.84-.12l-.18-.02.29-.54.67.09c.79.09,1.29.14,1.5.16l.44-.81,1.1.13-.44.8.86.09.43-.79,1.1.13-.44.81c.74.12,1.28.26,1.62.43.42.19.58.43.47.71-.13.41-.58.66-1.37.74h0c.52.12.87.27,1.04.46h0Zm-4.53-.99l.18.02c.62.08,1.12.12,1.48.12.63,0,1.01-.11,1.14-.34s-.09-.41-.63-.55c-.31-.08-.78-.15-1.43-.22-.11,0-.18-.01-.21-.01l-.54.99h0Zm-.66,1.62c.76.09,1.34.14,1.75.15.75,0,1.19-.13,1.32-.37s-.12-.45-.76-.61c-.35-.09-.91-.17-1.67-.25l-.25-.03-.59,1.09.2.02h0s0,0,0,0Z"/>
    </g>
  </g>
  <g>
    <g class="cls-4">
      <path class="cls-5" d="m214.18,202.97c0,2.68-4.86,4.85-10.86,4.85s-10.86-2.17-10.86-4.85,4.86-4.85,10.86-4.85c6,0,10.86,2.17,10.86,4.85Z"/>
    </g>
    <g>
      <g>
        <path class="cls-12" d="m216.64,202.15c0,2.52-4.74,4.56-10.59,4.56s-10.59-2.04-10.59-4.56v-4.56h21.18v4.56Z"/>
        <ellipse class="cls-8" cx="206.05" cy="197.6" rx="10.59" ry="4.56"/>
      </g>
      <g>
        <path class="cls-12" d="m219.25,197.76c0,2.52-4.74,4.56-10.59,4.56s-10.59-2.04-10.59-4.56v-4.56h21.18v4.56Z"/>
        <ellipse class="cls-8" cx="208.66" cy="193.2" rx="10.59" ry="4.56"/>
      </g>
      <g>
        <path class="cls-12" d="m216.64,191.79c0,2.52-4.74,4.56-10.59,4.56s-10.59-2.04-10.59-4.56v-4.56h21.18v4.56Z"/>
        <ellipse class="cls-8" cx="206.05" cy="187.24" rx="10.59" ry="4.56"/>
      </g>
      <g>
        <path class="cls-12" d="m218.18,187.28c0,2.52-4.74,4.56-10.59,4.56s-10.59-2.04-10.59-4.56v-4.56h21.18v4.56Z"/>
        <ellipse class="cls-8" cx="207.59" cy="182.73" rx="10.59" ry="4.56"/>
      </g>
      <g>
        <g>
          <path class="cls-12" d="m218.18,181.2c0,2.52-4.74,4.56-10.59,4.56s-10.59-2.04-10.59-4.56v-4.56h21.18v4.56Z"/>
          <ellipse class="cls-8" cx="207.59" cy="176.64" rx="10.59" ry="4.56"/>
        </g>
        <path class="cls-1" d="m211.58,177.1c.21.21.2.46-.03.75-.29.35-.76.58-1.41.68-.57.08-1.35.08-2.35,0l-.38.7-1.1-.13.37-.69-.85-.1-.37.69-1.1-.13.38-.7-2.17-.25.55-.57.22.03c.35.05.59.07.7.07.16,0,.28-.04.35-.12l1.21-2.24c.01-.12-.07-.2-.27-.25-.12-.04-.4-.08-.84-.12l-.18-.02.29-.54.67.09c.79.09,1.29.14,1.5.16l.44-.81,1.1.13-.44.8.86.09.43-.79,1.1.13-.44.81c.74.12,1.28.26,1.62.43.42.19.58.43.47.71-.13.41-.58.66-1.37.74h0c.52.12.87.27,1.04.46h0Zm-4.53-.99l.18.02c.62.08,1.12.12,1.48.12.63,0,1.01-.11,1.14-.34s-.09-.41-.63-.55c-.31-.08-.78-.15-1.43-.22-.11,0-.18-.01-.21-.01l-.54.99h0Zm-.66,1.62c.76.09,1.34.14,1.75.15.75,0,1.19-.13,1.32-.37s-.12-.45-.76-.61c-.35-.09-.91-.17-1.67-.25l-.25-.03-.59,1.09.2.02h0s0,0,0,0Z"/>
      </g>
    </g>
    <g>
      <g class="cls-4">
        <path class="cls-5" d="m239.92,202.67c0,2.68-4.86,4.85-10.86,4.85s-10.86-2.17-10.86-4.85,4.86-4.85,10.86-4.85c6,0,10.86,2.17,10.86,4.85Z"/>
      </g>
      <g>
        <g>
          <path class="cls-12" d="m242.38,201.85c0,2.52-4.74,4.56-10.59,4.56s-10.59-2.04-10.59-4.56v-4.56h21.18v4.56Z"/>
          <ellipse class="cls-8" cx="231.79" cy="197.3" rx="10.59" ry="4.56"/>
        </g>
        <path class="cls-1" d="m235.26,197.69c.21.21.2.46-.03.75-.29.35-.76.58-1.41.68-.57.08-1.35.08-2.35,0l-.38.7-1.1-.13.37-.69-.85-.1-.37.69-1.1-.13.38-.7-2.17-.25.55-.57.22.03c.35.05.59.07.7.07.16,0,.28-.04.35-.12l1.21-2.24c.01-.12-.07-.2-.27-.25-.12-.04-.4-.08-.84-.12l-.18-.02.29-.54.67.09c.79.09,1.29.14,1.5.16l.44-.81,1.1.13-.44.8.86.09.43-.79,1.1.13-.44.81c.74.12,1.28.26,1.62.43.42.19.58.43.47.71-.13.41-.58.66-1.37.74h0c.52.12.87.27,1.04.46h0Zm-4.53-.99l.18.02c.62.08,1.12.12,1.48.12.63,0,1.01-.11,1.14-.34s-.09-.41-.63-.55c-.31-.08-.78-.15-1.43-.22-.11,0-.18-.01-.21-.01l-.54.99h0Zm-.66,1.62c.76.09,1.34.14,1.75.15.75,0,1.19-.13,1.32-.37s-.12-.45-.76-.61c-.35-.09-.91-.17-1.67-.25l-.25-.03-.59,1.09.2.02h0s0,0,0,0Z"/>
      </g>
      <g class="cls-6">
        <g>
          <g>
            <path class="cls-14" d="m237.18,198.05l1.27-.67c-1.07.01-2.18.02-3.28.04l2.01.63Z"/>
            <g>
              <path class="cls-12" d="m226.78,202.66l1.64-2.14,1.59-.13.92-2.71,3.53.19,1.71,1.03s3.29-.85,3.34-.88,3.67-.04,3.67-.04l1.16-1.02-.14-2.69-8.67-1.42-8.43,1.9-1.14,3.73.84,4.2Z"/>
              <path class="cls-12" d="m227.37,200.84l1.03-1.36,1.4-.15,1.05-2.68,3.44.25,1.84.78s3.32-.35,3.37-.39,3.65-.04,3.65-.04l.85-1.42-.17-1.4-8.33-2.63-8.43,1.9.52,3.67-.22,3.46Z"/>
              <path class="cls-12" d="m226.86,200.15l1.64-2.14.97.35,1.08-2.68,3.94.43,1.81.7s3.09-1.54,3.15-1.57,1,.74,1,.74l2.88-.02.86-.97v-.73s-16.65-1.33-16.65-1.33l-1.52,3.02.84,4.2Z"/>
              <path class="cls-12" d="m226.73,198.38c-1.46-.74-2.35-1.69-2.36-2.75,0,0,.04,3.75.05,4.35.01,1.06.9,2.01,2.36,2.75l-.05-4.34h0Z"/>
              <path class="cls-8" d="m234.42,191.17c-5.58.06-10.08,2.06-10.05,4.46l5.7-.07.3-.81,4.1.76c1.1-.01,2.21-.03,3.28-.04l1.56-.83s.79.77,1.28.79l2.55-.03,1.04-1.17c-1.2-1.82-5.12-3.13-9.76-3.08Z"/>
              <path class="cls-8" d="m226.73,198.38l1.39-1.63,1.31.54.64-1.72c-3.03.03-5.7.07-5.7.07.01,1.06.9,2.01,2.36,2.75Z"/>
            </g>
          </g>
          <g class="cls-3">
            <path class="cls-1" d="m238.4,195.63c.21.21.2.46-.03.75-.29.35-.76.58-1.41.68-.57.08-1.35.08-2.35,0l-.38.7-1.1-.13.37-.69-.85-.1-.37.69-1.1-.13.38-.7-2.17-.25.55-.57.22.03c.35.05.59.07.7.07.16,0,.28-.04.35-.12l1.21-2.24c.01-.12-.07-.2-.27-.25-.12-.04-.4-.08-.84-.12l-.18-.02.29-.54.67.09c.79.09,1.29.14,1.5.16l.44-.81,1.1.13-.44.8.86.09.43-.79,1.1.13-.44.81c.74.12,1.28.26,1.62.43.42.19.58.43.47.71-.13.41-.58.66-1.37.74h0c.52.12.87.27,1.04.46h0Zm-4.53-.99l.18.02c.62.08,1.12.12,1.48.12.63,0,1.01-.11,1.14-.34s-.09-.41-.63-.55c-.31-.08-.78-.15-1.43-.22-.11,0-.18-.01-.21-.01l-.54.99h0Zm-.66,1.62c.76.09,1.34.14,1.75.15.75,0,1.19-.13,1.32-.37s-.12-.45-.76-.61c-.35-.09-.91-.17-1.67-.25l-.25-.03-.59,1.09.2.02h0s0,0,0,0Z"/>
          </g>
        </g>
      </g>
    </g>
  </g>
  <g>
    <g class="cls-4">
      <path class="cls-5" d="m293.16,208.68c0,2.68-4.86,4.85-10.86,4.85s-10.86-2.17-10.86-4.85,4.86-4.85,10.86-4.85c6,0,10.86,2.17,10.86,4.85Z"/>
    </g>
    <g>
      <g>
        <path class="cls-12" d="m295.62,207.86c0,2.52-4.74,4.56-10.59,4.56s-10.59-2.04-10.59-4.56v-4.56h21.18v4.56Z"/>
        <ellipse class="cls-8" cx="285.03" cy="203.31" rx="10.59" ry="4.56"/>
      </g>
      <g>
        <path class="cls-12" d="m298.23,203.47c0,2.52-4.74,4.56-10.59,4.56s-10.59-2.04-10.59-4.56v-4.56h21.18v4.56Z"/>
        <ellipse class="cls-8" cx="287.64" cy="198.91" rx="10.59" ry="4.56"/>
      </g>
      <g>
        <g>
          <path class="cls-12" d="m293.96,198.31c0,2.52-4.74,4.56-10.59,4.56s-10.59-2.04-10.59-4.56v-4.56h21.18v4.56Z"/>
          <ellipse class="cls-8" cx="283.37" cy="193.76" rx="10.59" ry="4.56"/>
        </g>
        <path class="cls-1" d="m287.36,194.21c.21.21.2.46-.03.75-.29.35-.76.58-1.41.68-.57.08-1.35.08-2.35,0l-.38.7-1.1-.13.37-.69-.85-.1-.37.69-1.1-.13.38-.7-2.17-.25.55-.57.22.03c.35.05.59.07.7.07.16,0,.28-.04.35-.12l1.21-2.24c.01-.12-.07-.2-.27-.25-.12-.04-.4-.08-.84-.12l-.18-.02.29-.54.67.09c.79.09,1.29.14,1.5.16l.44-.81,1.1.13-.44.8.86.09.43-.79,1.1.13-.44.81c.74.12,1.28.26,1.62.43.42.19.58.43.47.71-.13.41-.58.66-1.37.74h0c.52.12.87.27,1.04.46h0Zm-4.53-.99l.18.02c.62.08,1.12.12,1.48.12.63,0,1.01-.11,1.14-.34s-.09-.41-.63-.55c-.31-.08-.78-.15-1.43-.22-.11,0-.18-.01-.21-.01l-.54.99h0Zm-.66,1.62c.76.09,1.34.14,1.75.15.75,0,1.19-.13,1.32-.37s-.12-.45-.76-.61c-.35-.09-.91-.17-1.67-.25l-.25-.03-.59,1.09.2.02h0s0,0,0,0Z"/>
      </g>
    </g>
    <g class="cls-11">
      <g class="cls-7">
        <g>
          <g>
            <path class="cls-14" d="m287.7,193.05l1.27-.67c-1.07.01-2.18.02-3.28.04l2.01.63Z"/>
            <g>
              <path class="cls-12" d="m277.3,197.66l1.64-2.14,1.59-.13.92-2.71,3.53.19,1.71,1.03s3.29-.85,3.34-.88,3.67-.04,3.67-.04l1.16-1.02-.14-2.69-8.67-1.42-8.43,1.9-1.14,3.73.84,4.2Z"/>
              <path class="cls-12" d="m277.89,195.84l1.03-1.36,1.4-.15,1.05-2.68,3.44.25,1.84.78s3.32-.35,3.37-.39,3.65-.04,3.65-.04l.85-1.42-.17-1.4-8.33-2.63-8.43,1.9.52,3.67-.22,3.46Z"/>
              <path class="cls-12" d="m277.39,195.15l1.64-2.14.97.35,1.08-2.68,3.94.43,1.81.7s3.09-1.54,3.15-1.57,1,.74,1,.74l2.88-.02.86-.97v-.73s-16.65-1.33-16.65-1.33l-1.52,3.02.84,4.2Z"/>
              <path class="cls-12" d="m277.25,193.39c-1.46-.74-2.35-1.69-2.36-2.75,0,0,.04,3.75.05,4.35.01,1.06.9,2.01,2.36,2.75l-.05-4.34h0Z"/>
              <path class="cls-8" d="m284.94,186.18c-5.58.06-10.08,2.06-10.05,4.46,0,0,2.67-.03,5.7-.07l.3-.81,4.1.76c1.1-.01,2.21-.03,3.28-.04l1.56-.83s.79.77,1.28.79l2.55-.03,1.04-1.17c-1.2-1.82-5.12-3.13-9.76-3.08Z"/>
              <path class="cls-8" d="m277.25,193.39l1.39-1.63,1.31.54.64-1.72c-3.03.03-5.7.07-5.7.07.01,1.06.9,2.01,2.36,2.75Z"/>
            </g>
          </g>
          <g class="cls-13">
            <path class="cls-1" d="m288.92,190.63c.21.21.2.46-.03.75-.29.35-.76.58-1.41.68-.57.08-1.35.08-2.35,0l-.38.7-1.1-.13.37-.69-.85-.1-.37.69-1.1-.13.38-.7-2.17-.25.55-.57.22.03c.35.05.59.07.7.07.16,0,.28-.04.35-.12l1.21-2.24c.01-.12-.07-.2-.27-.25-.12-.04-.4-.08-.84-.12l-.18-.02.29-.54.67.09c.79.09,1.29.14,1.5.16l.44-.81,1.1.13-.44.8.86.09.43-.79,1.1.13-.44.81c.74.12,1.28.26,1.62.43.42.19.58.43.47.71-.13.41-.58.66-1.37.74h0c.52.12.87.27,1.04.46h0Zm-4.53-.99l.18.02c.62.08,1.12.12,1.48.12.63,0,1.01-.11,1.14-.34s-.09-.41-.63-.55c-.31-.08-.78-.15-1.43-.22-.11,0-.18-.01-.21-.01l-.54.99h0Zm-.66,1.62c.76.09,1.34.14,1.75.15.75,0,1.19-.13,1.32-.37s-.12-.45-.76-.61c-.35-.09-.91-.17-1.67-.25l-.25-.03-.59,1.09.2.02h0s0,0,0,0Z"/>
          </g>
        </g>
      </g>
    </g>
  </g>
  <g>
    <path class="cls-2" d="m112.86,175.63l-12.17-6.18c-.11-.06-.15-.2-.07-.3l2.64-3.67c.07-.1.22-.11.31-.03l10.17,9.53-.64.63c-.06.06-.16.08-.24.04Z"/>
    <path class="cls-2" d="m113.41,170.46l-5.03,7.07c-.1.14,0,.33.17.32l7.81-.08c.14,0,.24-.15.19-.28l-2.78-6.99c-.06-.15-.26-.18-.36-.04Z"/>
  </g>
  <g>
    <path class="cls-2" d="m183.66,199.06l-13.59-1.32c-.13-.01-.21-.13-.18-.26l1.12-4.38c.03-.12.16-.19.28-.14l12.94,5.16-.37.82c-.04.08-.12.13-.21.12Z"/>
    <path class="cls-2" d="m182.3,194.05l-2.11,8.42c-.04.16.12.3.28.24l7.24-2.92c.13-.05.17-.23.07-.33l-5.14-5.49c-.11-.12-.31-.07-.35.09Z"/>
  </g>
  <g>
    <path class="cls-2" d="m261.9,204.39l-13.57,1.48c-.13.01-.23-.09-.23-.21l.2-4.52c0-.12.12-.21.24-.19l13.72,2.41-.19.87c-.02.09-.09.15-.18.16Z"/>
    <path class="cls-2" d="m259.54,199.76l-.35,8.67c0,.17.18.27.32.18l6.5-4.34c.12-.08.12-.26,0-.34l-6.15-4.33c-.13-.09-.32,0-.32.16Z"/>
  </g>
  <g>
    <path class="cls-2" d="m63.57,95.61l-7.24-11.57c-.07-.11-.02-.25.09-.3l4.16-1.79c.11-.05.24.01.28.13l3.8,13.4-.87.21c-.09.02-.18-.02-.22-.09Z"/>
    <path class="cls-2" d="m66.71,91.46l-7.95,3.46c-.15.07-.17.28-.02.37l6.74,3.96c.12.07.28,0,.31-.14l1.22-7.42c.03-.16-.14-.29-.28-.22Z"/>
  </g>
</svg>