<?xml version="1.0" encoding="UTF-8"?>
<svg id="Layer_1" data-name="Layer 1" xmlns="http://www.w3.org/2000/svg" width="300" height="225" viewBox="0 0 300 225">
  <defs>
    <style>
      .cls-1 {
        fill: #fff;
      }

      .cls-2 {
        fill: #d0dae3;
      }

      .cls-3 {
        isolation: isolate;
        opacity: .35;
      }

      .cls-4 {
        fill: #232323;
      }

      .cls-5 {
        fill: #444;
      }

      .cls-6 {
        fill: #af0921;
      }

      .cls-7 {
        fill: #7f7f7f;
      }
    </style>
  </defs>
  <g>
    <g class="cls-3">
      <ellipse class="cls-4" cx="145.39" cy="203.16" rx="50.25" ry="8.13"/>
    </g>
    <g>
      <g>
        <g>
          <path class="cls-4" d="m148.49,154.33c.23,1.47,4.86,42.34,11.86,48.1,7,5.76,10.61,3.84,12.08,2.26,1.47-1.58,3.39-4.4-.11-7.68-2.82-2.6-4.74-14.11-1.92-32.07l-21.91-10.61Z"/>
          <g>
            <path class="cls-4" d="m177.28,200.28c.9.23,1.81.11,2.15-.45.34-.56-.23-1.58-1.24-2.15-2.82-1.36-6.1-1.81-9.26-1.24-1.24.23-1.69,1.47-1.13,2.6s1.58,1.69,2.37,1.47c2.15-.79,4.63-.9,7.11-.23Z"/>
            <path class="cls-4" d="m175.93,205.37c.79.45,1.69.56,2.26.11.45-.45.23-1.58-.56-2.37-2.37-2.15-5.31-3.39-8.58-3.73-1.24-.11-2.03.9-1.81,2.15.23,1.24,1.02,2.03,1.81,2.03,2.26-.11,4.74.45,6.89,1.81Z"/>
            <path class="cls-4" d="m172.09,209.21c.45.79,1.24,1.36,1.92,1.13.68-.23,1.02-1.36.56-2.37-1.13-2.94-3.16-5.53-5.98-7.23-1.02-.68-2.26-.11-2.6,1.13-.34,1.13,0,2.26.68,2.6,2.26.9,4.18,2.6,5.42,4.74Z"/>
          </g>
        </g>
        <g>
          <path class="cls-4" d="m144.2,153.99c-.23,1.47-5.08,42.34-11.97,47.99-7,5.76-10.61,3.73-12.08,2.26-1.47-1.58-3.39-4.52.11-7.68,2.82-2.6,4.74-14.11,2.03-32.07l21.91-10.5Z"/>
          <g>
            <path class="cls-4" d="m116.42,200.28c-.9.23-1.81.11-2.15-.45s.23-1.58,1.24-2.15c2.82-1.36,6.1-1.81,9.26-1.13,1.24.23,1.69,1.47,1.13,2.6s-1.58,1.69-2.37,1.36c-2.15-.79-4.63-.9-7.11-.23Z"/>
            <path class="cls-4" d="m117.78,205.37c-.79.45-1.69.56-2.26.11-.45-.45-.23-1.58.56-2.37,2.37-2.03,5.42-3.39,8.58-3.73,1.24-.11,2.03,1.02,1.81,2.15-.23,1.24-1.02,2.03-1.81,2.03-2.26-.11-4.74.45-6.89,1.81Z"/>
            <path class="cls-4" d="m121.62,209.21c-.45.79-1.24,1.36-1.92,1.13s-.9-1.36-.56-2.37c1.13-2.94,3.27-5.42,5.98-7.23,1.02-.68,2.26-.11,2.6,1.13.34,1.13,0,2.26-.68,2.6-2.26.9-4.18,2.6-5.42,4.74Z"/>
          </g>
        </g>
      </g>
      <path class="cls-5" d="m183.49,132.76c-1.47-14.11-7.34-31.28-18.52-37.49-4.74-2.71-10.28-4.63-17.95-5.87-1.81.34-3.5.68-5.08,1.02-.23.11-.56.11-.79.23-.45.11-.9.23-1.36.34-.34.11-.56.11-.9.23-.45.11-.9.23-1.36.45-.23.11-.45.11-.68.23-.68.23-1.24.45-1.92.68-.23.11-.34.11-.56.23-.45.23-.9.34-1.36.56-.23.11-.45.23-.56.23-.45.23-.79.34-1.24.56-.23.11-.34.11-.56.23-.56.23-1.13.56-1.69.9-11.97,6.66-17.84,25.86-18.86,40.42-.11,2.15-.11,4.18-.11,6.1,0,4.97.34,9.03.9,11.52,0,.11.11.23.11.34,2.94,13.55,17.95,23.83,35.91,23.83,20.21,0,36.59-12.87,36.59-28.68v-.45c.34-4.29.34-9.71,0-15.58Z"/>
      <path class="cls-1" d="m174.01,93.24c-4.63-5.31-10.61-7.9-22.47-8.36h-6.78c-.79,0-1.47,0-2.15.11h-.23c-11.86.45-17.84,3.05-22.47,8.24-6.1,7-9.26,26.87-9.94,42.34,1.02-14.57,7-33.76,18.86-40.42,4.74-2.6,10.39-4.52,17.95-5.76,7.68,1.24,13.21,3.27,17.95,5.87,11.97,6.66,17.84,25.86,18.74,40.42-.34-15.58-3.39-35.46-9.49-42.46Z"/>
      <path class="cls-1" d="m146.8,38.25c-6.55,0-14.11-2.6-18.41-3.73-5.08-1.24-7.45-1.36-11.18-1.36-11.29,0-14.79,5.87-15.7,8.36,7.45-22.81,30.94-26.08,44.94-25.97h1.13c13.89,0,37.49,3.27,44.83,26.2-.9-2.37-4.4-8.36-15.7-8.36-3.73,0-6.1,0-11.18,1.24-4.29,1.13-11.97,3.61-18.41,3.61h-.34Z"/>
      <path class="cls-5" d="m192.3,41.75h0c-.9-2.48-4.4-8.36-15.7-8.36-3.73,0-6.1,0-11.18,1.24-4.29,1.13-11.97,3.61-18.41,3.61h-.23c-6.55,0-14.11-2.6-18.41-3.73-5.08-1.24-7.45-1.36-11.18-1.36-11.29,0-14.79,5.87-15.7,8.36h0c-2.37,2.26-3.95,8.24-3.84,15.36.23,8.92,3.27,16.03,6.78,15.92h.23c8.13,16.37,30.37,23.94,42.01,23.94s34.1-7.45,42.34-23.83h.23c3.5.11,6.55-7,6.89-15.92.11-7-1.47-12.99-3.84-15.24Z"/>
      <path class="cls-7" d="m146.8,85c-5.87,0-18.41-5.53-18.41-17.5s13.89-12.87,18.52-12.87,18.52,1.02,18.41,12.99c0,11.97-12.65,17.39-18.52,17.39Z"/>
      <path class="cls-4" d="m147.13,57.67c2.6,0,6.32,2.71,6.78,5.76.45,3.16-7,3.05-7,3.05h-.23s-7.45.11-7-3.05c.45-3.16,4.29-5.76,6.78-5.76h.68Z"/>
      <g>
        <circle class="cls-4" cx="127.94" cy="48.52" r="2.26"/>
        <path class="cls-4" d="m168.02,48.64c0,1.24-1.02,2.26-2.26,2.26s-2.26-1.02-2.26-2.26,1.02-2.26,2.26-2.26,2.26,1.02,2.26,2.26Z"/>
      </g>
      <path class="cls-4" d="m187.45,46.83c2.82.11,5.19,5.53,6.1,13.21.11-1.02.23-1.92.23-3.05.23-7-1.47-12.76-3.84-12.87-1.02,0-1.92,1.02-2.6,2.6,0,.11.11.11.11.11Z"/>
      <path class="cls-4" d="m106.26,46.6c-2.82.11-5.19,5.53-6.1,13.21-.11-1.02-.11-1.92-.23-3.05-.11-7,1.58-12.76,3.84-12.87,1.02,0,1.92,1.02,2.6,2.71,0,.11,0,0-.11,0Z"/>
      <path class="cls-7" d="m132.46,43.1c-.23,0-.45-.1-.61-.28-.44-.53-1-.93-1.74-1.25-.79-.34-1.46-.5-2.06-.5-.77-.09-1.3.06-1.98.26l-.18.05c-.67.3-1.24.59-1.69,1.04-.31.31-.81.31-1.12,0-.31-.31-.31-.81,0-1.12.7-.7,1.54-1.09,2.28-1.41l.27-.08c.75-.22,1.52-.44,2.51-.31h.03c.72,0,1.58.21,2.55.62.96.41,1.73.97,2.33,1.69.28.33.23.83-.1,1.11-.15.12-.33.18-.5.18Z"/>
      <path class="cls-7" d="m170.4,43.1c-.23,0-.45-.1-.61-.28-.45-.53-1-.93-1.74-1.25-.79-.34-1.46-.5-2.06-.5h-.11c-.62-.1-1.31.1-2.04.31-.67.3-1.24.59-1.69,1.04-.31.31-.81.31-1.12,0-.31-.31-.31-.81,0-1.12.63-.63,1.34-1.01,2.28-1.41.93-.27,1.8-.52,2.74-.4.8,0,1.66.21,2.63.63.96.41,1.73.97,2.33,1.69.28.34.23.83-.1,1.11-.15.12-.33.18-.51.18Z"/>
      <path class="cls-4" d="m146.8,79.73c-1.65,0-3.15-.46-4.1-.84-1.38-.63-2.45-1.36-3.4-2.3-1.01-1.01-1.83-2.22-2.3-3.4-.15-.37.03-.78.4-.93.37-.14.78.03.93.4.4.99,1.12,2.05,1.99,2.92.82.82,1.76,1.46,2.95,2,.81.32,2.12.73,3.54.73,1.33,0,2.45-.23,3.54-.73,1.02-.41,2.09-1.13,2.95-2,.82-.82,1.46-1.76,2-2.95.16-.36.59-.52.95-.36.36.16.52.59.36.95-.61,1.35-1.34,2.42-2.29,3.37-1.01,1.01-2.22,1.83-3.4,2.3-1.25.57-2.57.84-4.1.84Z"/>
      <g>
        <path class="cls-4" d="m119.75,95.42c2.03-2.48,5.53-3.16,8.24-1.02,2.71,2.15,3.27,7.45.45,10.84-8.02,9.94-19.76,14.79-32.41,13.44-4.4-.45-7.79-4.52-7.34-8.02.45-3.5,3.39-5.42,6.55-5.08,9.6.9,18.41-2.71,24.5-10.16Z"/>
        <path class="cls-4" d="m84.63,113.72c-.9-.11-1.92.11-2.15.68-.23.68.34,1.58,1.47,2.03,3.05,1.02,6.32,1.13,9.49.11,1.13-.34,1.58-1.69.9-2.71-.68-1.02-1.69-1.58-2.48-1.13-2.15,1.02-4.63,1.47-7.23,1.02Z"/>
        <path class="cls-4" d="m85.42,108.41c-.79-.45-1.81-.45-2.26.11-.45.56-.11,1.69.9,2.37,2.6,1.81,5.76,2.82,9.15,2.82,1.24,0,1.92-1.24,1.58-2.37-.34-1.24-1.24-1.92-2.03-1.81-2.48.34-4.97,0-7.34-1.13Z"/>
      </g>
    </g>
  </g>
  <g>
    <path class="cls-4" d="m173.32,96.04c-2.03-2.48-5.53-3.16-8.24-1.02-2.71,2.15-3.27,7.45-.45,10.84,8.02,9.94,19.76,14.79,32.41,13.44,4.4-.45,7.79-4.52,7.34-8.02-.45-3.5-3.39-5.42-6.55-5.08-9.6.9-18.41-2.71-24.5-10.16Z"/>
    <path class="cls-4" d="m208.44,114.33c.9-.11,1.92.11,2.15.68.23.68-.34,1.58-1.47,2.03-3.05,1.02-6.32,1.13-9.49.11-1.13-.34-1.58-1.69-.9-2.71.68-1.02,1.69-1.58,2.48-1.13,2.15,1.02,4.63,1.47,7.23,1.02Z"/>
    <path class="cls-4" d="m207.65,109.03c.79-.45,1.81-.45,2.26.11.45.56.11,1.69-.9,2.37-2.6,1.81-5.76,2.82-9.15,2.82-1.24,0-1.92-1.24-1.58-2.37.34-1.24,1.24-1.92,2.03-1.81,2.48.34,4.97,0,7.34-1.13Z"/>
  </g>
  <g>
    <g>
      <g>
        <rect class="cls-6" x="68.38" y="135.69" width="24.46" height="9.9" rx="1.22" ry="1.22" transform="translate(-33.24 25.24) rotate(-14.79)"/>
        <rect class="cls-6" x="78.68" y="142.28" width="13.63" height="14.44" rx="1.22" ry="1.22" transform="translate(-35.34 26.79) rotate(-14.79)"/>
        <rect class="cls-6" x="84.68" y="151.75" width="13.63" height="14.44" rx="1.22" ry="1.22" transform="translate(-37.56 28.63) rotate(-14.79)"/>
        <path class="cls-6" d="m80.29,67.25h12.89v109.93c0,.67-.54,1.22-1.22,1.22h-10.46c-.67,0-1.22-.54-1.22-1.22v-109.93h0Z" transform="translate(-28.48 26.22) rotate(-14.79)"/>
        <rect class="cls-6" x="80.25" y="159.59" width="22.42" height="13.73" rx="1.22" ry="1.22" transform="translate(-39.47 28.87) rotate(-14.79)"/>
      </g>
      <circle class="cls-6" cx="69.27" cy="59.97" r="27.74"/>
    </g>
    <g>
      <path class="cls-1" d="m51.15,74.9c-.09-.33.82-1.34.63-2.08l-4.02-15.22c-.2-.74-1.48-1.17-1.57-1.5-.05-.18.03-.28.21-.33l7.59-2.01c1.53-.41,2.52.02,2.91,1.5l1.79,6.78c.16.59-.18,1.2-.52,1.64l-4.42,5.02c-.19.21-.21.46-.13.75l.71,2.69c.2.74,1.48,1.17,1.57,1.5.05.18-.03.28-.21.33l-4.19,1.11c-.18.05-.3,0-.35-.18Zm-.7-17.46l2.2,8.34c.04.15.14.24.25.21.13-.03.24-.14.38-.32l2.15-2.43c.45-.56.6-.93.49-1.36l-1.38-5.22c-.16-.59-.41-.74-1-.58l-2.79.74c-.23.06-.38.32-.3.63Z"/>
      <path class="cls-1" d="m62.04,72.02c-.09-.33.82-1.34.63-2.08l-4.02-15.22c-.2-.74-1.48-1.17-1.57-1.5-.05-.18.03-.28.21-.33l7.85-2.07c1.53-.41,2.52.02,2.91,1.5l1.65,6.26c.16.59-.03,1.02-.38,1.47l-1.38,1.62c1.7,2.61,3.85,5.77,4.24,6.1.82.74,1.47.81,1.56,1.15.05.18-.03.28-.21.33l-4.12,1.09c-.18.05-.3,0-.35-.18-.09-.33.43-.63.32-1.07-.02-.08-.11-.22-.26-.48-.64-1.06-2-3.03-3.26-4.8l-1.35,1.51c-.19.21-.21.46-.13.75l.84,3.2c.2.74,1.48,1.17,1.57,1.5.05.18-.03.28-.21.33l-4.19,1.11c-.18.05-.3,0-.35-.18Zm-.7-17.46l2.06,7.8c.05.18.15.26.25.23.13-.03.32-.25.32-.25l2.43-2.69c.45-.56.6-.93.49-1.36l-1.21-4.58c-.16-.59-.41-.74-1-.58l-3.04.8c-.23.06-.38.32-.3.63Z"/>
      <path class="cls-1" d="m77.57,66.01c.2.74,1.48,1.17,1.57,1.5.05.18-.03.28-.21.33l-4.19,1.11c-.18.05-.3,0-.35-.18-.09-.33.82-1.34.63-2.08l-4.02-15.22c-.2-.74-1.48-1.17-1.57-1.5-.05-.18.03-.28.21-.33l4.19-1.11c.18-.05.3,0,.35.18.09.33-.82,1.34-.63,2.08l4.02,15.22Z"/>
      <path class="cls-1" d="m84.85,47.92c-.01-.05,0-.08,0-.13-.16-.61-1.31-1.32-1.36-1.53-.05-.18.03-.28.21-.33l4.27-1.13c.18-.05.3,0,.35.18.09.33-.75,1.1-.73,2.22l.21,16.11c0,.08.01.16.04.24.17.64.94,1.09,1.03,1.4.05.18-.03.28-.21.33l-4.19,1.11c-.18.05-.3,0-.35-.18-.08-.31.37-1.08.2-1.72-.02-.08-.04-.15-.09-.22l-7.78-14.11c-.53-.98-1.64-1.24-1.73-1.57-.05-.18.03-.28.21-.33l4.24-1.12c.18-.05.3,0,.35.18.05.2-.59,1.39-.43,2,.01.05.05.07.06.12.76,1.41,5.84,11.01,5.84,11.01,0,0,.09.14.17.12s.09-.19.09-.19c0,0-.35-10.85-.39-12.45Z"/>
    </g>
  </g>
  <path class="cls-4" d="m85.19,105.93c-.9-.23-1.69-.79-1.69-1.58,0-.68,1.02-1.36,2.15-1.24,3.16.23,6.32,1.47,8.81,3.73.9.79.68,2.15-.34,2.82-1.02.68-2.26.68-2.71.11-1.58-1.81-3.73-3.16-6.21-3.84Z"/>
  <g>
    <path class="cls-1" d="m262.43,82.18l-47.77-9.65c-1.47-.3-2.87.6-3.14,1.99l-11.96,61.82c-.27,1.4.7,2.77,2.17,3.07l47.77,9.66c1.46.3,2.87-.6,3.14-1.99l11.96-61.82c.27-1.4-.7-2.77-2.17-3.07Z"/>
    <g>
      <g>
        <path class="cls-2" d="m233.57,86.35l-15.79-3.3c-.62-.12-1.22.28-1.35.9l-.32,1.5c-.12.62.28,1.22.9,1.35l15.79,3.3c.62.12,1.22-.28,1.35-.9l.32-1.5c.12-.62-.28-1.23-.9-1.35Z"/>
        <path class="cls-2" d="m231.96,94.94l-15.79-3.3c-.62-.12-1.22.28-1.35.9l-.32,1.5c-.12.62.28,1.22.9,1.35l15.79,3.3c.62.12,1.22-.28,1.35-.9l.32-1.5c.12-.62-.28-1.23-.9-1.35Z"/>
        <path class="cls-2" d="m230.43,103.23l-15.79-3.3c-.62-.12-1.22.28-1.35.9l-.32,1.5c-.12.62.28,1.22.9,1.35l15.79,3.3c.62.12,1.22-.28,1.35-.9l.32-1.5c.12-.62-.28-1.22-.9-1.35Z"/>
      </g>
      <g>
        <path class="cls-2" d="m228.34,112.04l-15.79-3.3c-.62-.12-1.22.28-1.35.9l-.32,1.5c-.12.62.28,1.22.9,1.35l15.79,3.3c.62.12,1.22-.28,1.35-.9l.32-1.5c.12-.62-.28-1.23-.9-1.35Z"/>
        <path class="cls-2" d="m226.73,120.62l-15.79-3.3c-.62-.12-1.22.28-1.35.9l-.32,1.5c-.12.62.28,1.22.9,1.35l15.79,3.3c.62.12,1.22-.28,1.35-.9l.32-1.5c.12-.62-.28-1.23-.9-1.35Z"/>
        <path class="cls-2" d="m225.2,128.92l-15.79-3.3c-.62-.12-1.22.28-1.35.9l-.32,1.5c-.12.62.28,1.22.9,1.35l15.79,3.3c.62.12,1.22-.28,1.35-.9l.32-1.5c.12-.62-.28-1.22-.9-1.35Z"/>
      </g>
    </g>
    <g>
      <g>
        <path class="cls-2" d="m256.17,90.94l-15.79-3.3c-.62-.12-1.22.28-1.35.9l-.32,1.5c-.12.62.28,1.22.9,1.35l15.79,3.3c.62.12,1.22-.28,1.35-.9l.32-1.5c.12-.62-.28-1.23-.9-1.35Z"/>
        <path class="cls-2" d="m254.56,99.53l-15.79-3.3c-.62-.12-1.22.28-1.35.9l-.32,1.5c-.12.62.28,1.22.9,1.35l15.79,3.3c.62.12,1.22-.28,1.35-.9l.32-1.5c.12-.62-.28-1.23-.9-1.35Z"/>
        <path class="cls-2" d="m253.03,107.82l-15.79-3.3c-.62-.12-1.22.28-1.35.9l-.32,1.5c-.12.62.28,1.22.9,1.35l15.79,3.3c.62.12,1.22-.28,1.35-.9l.32-1.5c.12-.62-.28-1.22-.9-1.35Z"/>
      </g>
      <g>
        <path class="cls-2" d="m250.95,116.62l-15.79-3.3c-.62-.12-1.22.28-1.35.9l-.32,1.5c-.12.62.28,1.22.9,1.35l15.79,3.3c.62.12,1.22-.28,1.35-.9l.32-1.5c.12-.62-.28-1.23-.9-1.35Z"/>
        <path class="cls-2" d="m249.33,125.21l-15.79-3.3c-.62-.12-1.22.28-1.35.9l-.32,1.5c-.12.62.28,1.22.9,1.35l15.79,3.3c.62.12,1.22-.28,1.35-.9l.32-1.5c.12-.62-.28-1.23-.9-1.35Z"/>
        <path class="cls-2" d="m247.81,133.5l-15.79-3.3c-.62-.12-1.22.28-1.35.9l-.32,1.5c-.12.62.28,1.22.9,1.35l15.79,3.3c.62.12,1.22-.28,1.35-.9l.32-1.5c.12-.62-.28-1.22-.9-1.35Z"/>
      </g>
    </g>
  </g>
  <path class="cls-4" d="m207.88,106.54c.9-.23,1.69-.79,1.69-1.58,0-.68-1.02-1.36-2.15-1.24-3.16.23-6.32,1.47-8.81,3.73-.9.79-.68,2.15.34,2.82,1.02.68,2.26.68,2.71.11,1.58-1.81,3.73-3.16,6.21-3.84Z"/>
</svg>