<?xml version="1.0" encoding="UTF-8"?>
<svg id="Layer_1" data-name="Layer 1" xmlns="http://www.w3.org/2000/svg" width="300" height="225" viewBox="0 0 300 225">
  <defs>
    <style>
      .cls-1 {
        fill: #b7b7b7;
      }

      .cls-2 {
        fill: #fff;
      }

      .cls-3 {
        fill: #4c4c4c;
      }

      .cls-4 {
        fill: #23140a;
      }

      .cls-5 {
        isolation: isolate;
        opacity: .35;
      }

      .cls-6 {
        fill: #232323;
      }

      .cls-7 {
        fill: #ff7e1c;
      }

      .cls-8 {
        fill: #444;
      }

      .cls-9 {
        fill: #faf8d3;
      }

      .cls-10 {
        fill: #ea651b;
      }

      .cls-11 {
        fill: #54381a;
      }

      .cls-12 {
        fill: #7a7a7a;
      }

      .cls-13 {
        fill: #7f7f7f;
      }

      .cls-14 {
        fill: #919191;
      }

      .cls-15 {
        fill: #595659;
      }
    </style>
  </defs>
  <g>
    <path class="cls-6" d="m129.07,106.97c3.19,0,3.2-4.96,0-4.96s-3.2,4.96,0,4.96h0Z"/>
    <path class="cls-6" d="m122.38,106.02c3.19,0,3.2-4.96,0-4.96s-3.2,4.96,0,4.96h0Z"/>
    <path class="cls-6" d="m91.56,108.55c-2.91-.97-6.11.2-7.24,3.37-1.13,3.15,1.14,7.67,5.2,9.06,11.53,3.96,23.54,1.92,33.12-5.62,3.37-2.65,4.03-7.67,1.93-10.26-2.11-2.62-5.52-2.67-7.95-.79-7.25,5.7-16.33,7.24-25.06,4.25Z"/>
    <path class="cls-6" d="m129.35,105.4c.8-.37,1.42-1.09,1.28-1.74-.13-.65-1.17-1.06-2.26-.76-2.95.81-5.63,2.56-7.6,5.05-.73.93-.29,2.16.81,2.63,1.11.47,2.22.26,2.61-.44,1.11-2.01,2.89-3.7,5.15-4.74Z"/>
    <path class="cls-6" d="m130.5,110.51c.88.04,1.76-.33,1.93-.96.17-.63-.56-1.47-1.67-1.7-3-.62-6.18-.29-9.06,1.04-1.07.49-1.24,1.78-.47,2.71.77.93,1.85,1.25,2.52.8,1.9-1.29,4.25-1.99,6.74-1.88Z"/>
    <g>
      <path class="cls-11" d="m158.38,111.88h0c-.27,1.47-1.69,2.45-3.16,2.17L13.72,87.1c-1.45-.28-2.41-1.67-2.15-3.13h0c.27-1.47,1.69-2.45,3.16-2.17l141.5,26.95c1.45.28,2.41,1.67,2.15,3.13Z"/>
      <path class="cls-15" d="m28.32,41.68l-9.43,42.93-6.03,42.18c-.06.43-.47.72-.9.65l-9.41-1.71c-.42-.08-.7-.48-.62-.9l7.16-36.61c.68-3.46,1.68-6.84,2.99-10.11l14.81-36.86c.13-.33.47-.52.82-.45h0c.41.08.68.48.59.89Z"/>
    </g>
    <g class="cls-5">
      <ellipse class="cls-6" cx="70.82" cy="206.04" rx="42.44" ry="6.85"/>
    </g>
    <g class="cls-5">
      <ellipse class="cls-6" cx="212.69" cy="206.04" rx="82.11" ry="13.25"/>
    </g>
    <path class="cls-6" d="m40.08,157.48c.17,1.39,4.76,40.57,11.44,46.06,6.67,5.49,10.18,3.64,11.53,2.18,1.42-1.53,3.21-4.28-.11-7.38-2.67-2.49-4.55-13.53-1.88-30.76l-20.98-10.11Z"/>
    <path class="cls-6" d="m65.57,155.04c.18,1.39,4.76,40.57,11.44,46.06,6.68,5.49,10.18,3.64,11.54,2.18,1.42-1.53,3.21-4.28-.11-7.38-2.67-2.49-4.55-13.53-1.88-30.76l-20.98-10.11Z"/>
    <path class="cls-2" d="m56.76,96.66c8.45-2.53,18.49-2.69,36.28.48-3.81-2.7-9.2-4.74-17.34-6.52h-.01c-13.94-3.05-20.9-2.08-26.96,2.38-7.15,5.27-14.12,23.28-17.88,37.67,3.91-13.42,13.37-30.23,25.91-34Z"/>
    <path class="cls-8" d="m30.85,130.66c-.57,1.97-1.02,3.87-1.35,5.64.39-1.78.84-3.68,1.35-5.64Z"/>
    <path class="cls-8" d="m13.54,151.38c-2.3.98-4.98.91-6.07-.6-1.09-1.49-.01-4.46,2.68-6.17,7.29-4.66,16.03-6.96,24.97-6.35,3.33.23,5.07,3.47,3.96,6.67-1.11,3.22-3.65,5.15-5.85,4.64-6.31-1.49-13.23-.97-19.69,1.81Z"/>
    <path class="cls-2" d="m57.74,68.5c.47-12.88,10.77-18.22,32.62-14.79,6.94,1.09,15.02-5.57,20.29-5.96,15.16-1.12,16.5,8.89,16.5,8.89h.03c-3.5-17.55-21.45-31.3-43.51-32.02-25.04-.81-45.89,15.49-46.57,36.39-.68,20.91,19.07,38.52,44.11,39.33,2.18.07,4.33,0,6.44-.18v-.03c-22.1.82-30.55-14.54-29.92-31.63Z"/>
    <path class="cls-8" d="m128.07,63.94c.08-2.49-.14-4.93-.61-7.3h-.03s-1.35-10.02-16.51-8.9c-5.27.39-13.35,7.05-20.29,5.96-21.86-3.42-32.15,1.91-32.62,14.79-.62,17.1,7.83,32.45,29.93,31.63v.03c22.08-1.9,39.51-17.13,40.13-36.21Z"/>
    <path class="cls-13" d="m97.79,93.81c-4.81.03-14.05-4.41-11.93-14.32,2.12-9.9,13.56-10.77,17.35-10.79,3.79-.02,14.9.69,12.78,10.59-2.13,9.91-13.39,14.49-18.2,14.52Z"/>
    <path class="cls-6" d="m102.89,71.3c2.09-.01,4.71,2.17,4.52,4.75-.19,2.58-6.22,2.52-6.22,2.52h-.18s-6.07.13-5.15-2.45c.92-2.58,4.48-4.81,6.57-4.82h.45Z"/>
    <path class="cls-6" d="m98.88,88.98c-1.1,0-2.13-.22-3.05-.64-.93-.44-1.7-1.05-2.3-1.82-.6-.77-1.02-1.68-1.23-2.7-.04-.18.08-.36.26-.4.18-.04.36.08.4.26.19.92.56,1.74,1.1,2.43.54.69,1.23,1.24,2.06,1.63.85.39,1.81.6,2.83.58,1.04,0,2.1-.22,3.14-.64,1.01-.4,1.96-.97,2.83-1.7.87-.73,1.61-1.57,2.2-2.51.1-.16.31-.2.46-.11.16.1.2.31.11.46-.63,1-1.41,1.9-2.34,2.67-.92.77-1.93,1.38-3.01,1.81-1.12.45-2.26.68-3.38.69-.02,0-.04,0-.07,0Z"/>
    <circle class="cls-6" cx="83.74" cy="65.41" r="1.86"/>
    <circle class="cls-6" cx="113.71" cy="61.71" r="1.86"/>
    <path class="cls-13" d="m79.04,63.22c-.05,0-.11-.01-.16-.04-.19-.09-.26-.31-.18-.49.3-.63.72-1.19,1.23-1.67.51-.47,1.11-.84,1.77-1.08.68-.25,1.39-.36,2.12-.33.73.03,1.43.21,2.09.52.19.09.26.31.18.49s-.31.26-.49.18c-.56-.27-1.17-.42-1.8-.44-.63-.03-1.24.07-1.83.29-.57.21-1.08.53-1.53.93-.45.41-.81.89-1.07,1.44-.06.13-.2.21-.34.21Z"/>
    <path class="cls-13" d="m118.35,58c-.12,0-.23-.06-.3-.16-.36-.52-.81-.95-1.34-1.28-.54-.34-1.12-.56-1.73-.65-.6-.1-1.2-.08-1.79.06-.59.13-1.14.38-1.64.72-.17.12-.4.08-.52-.09s-.07-.4.09-.52c.58-.4,1.21-.68,1.9-.84.69-.16,1.38-.18,2.08-.07.71.11,1.38.37,2,.76.62.39,1.14.89,1.56,1.49.12.17.08.4-.09.52-.06.04-.14.07-.21.07Z"/>
    <path class="cls-8" d="m99.2,104.04c-1.33-2.4-2.97-4.43-5.19-6.19-.31-.24-.65-.47-.98-.71-2.86-.51-5.51-.92-8-1.27-6.05-1.1-10.9-1.46-14.98-1.1-5.17.06-9.41.72-13.3,1.89-12.53,3.76-22,20.57-25.91,34-.51,1.96-.96,3.86-1.35,5.64-.99,4.61-1.54,8.5-1.49,10.94.05,2.63,1.98,5.29,5.37,7.8,5.41,4,14.57,7.61,26,10.11h.01c1.07.24,2.13.45,3.17.65.32.06.64.11.96.17.73.13,1.44.26,2.15.37.35.06.7.11,1.05.17.69.11,1.37.2,2.04.29.31.04.63.09.95.12.82.11,1.62.19,2.41.27.14,0,.28.03.42.04.93.09,1.84.16,2.73.21.22.01.42.02.64.03.67.03,1.32.06,1.96.07.27,0,.53,0,.8,0,.58,0,1.15,0,1.7-.01.25,0,.51-.01.76-.02.6-.03,1.19-.06,1.76-.11.13,0,.28-.01.41-.02h-.02c3.93-.34,7.11-1.17,9.29-2.5.02-.01.04-.03.06-.04.41-.25.79-.52,1.13-.81.13-.11.23-.24.35-.36.21-.2.42-.4.6-.62.28-.35.5-.71.69-1.09,4.47-9.26,10.23-46.37,3.82-57.94Z"/>
    <ellipse class="cls-8" cx="62.77" cy="150.29" rx="27.6" ry="35.04" transform="translate(-97.46 179.5) rotate(-77.66)"/>
    <g>
      <path class="cls-6" d="m59.09,105.1c-1.42-2.73-4.53-4.1-7.54-2.61-3,1.48-4.5,6.31-2.55,10.12,5.54,10.86,15.59,17.74,27.71,18.98,4.26.44,8.22-2.71,8.52-6.04.3-3.35-2.11-5.76-5.17-6.1-9.17-.93-16.77-6.13-20.97-14.35Z"/>
      <path class="cls-6" d="m88.71,123.93c.83.03,1.65-.32,1.8-.91.16-.6-.54-1.38-1.57-1.58-2.81-.56-5.8-.22-8.48,1.05-1,.48-1.15,1.69-.42,2.55.73.86,1.75,1.15,2.37.73,1.78-1.22,3.98-1.9,6.3-1.82Z"/>
      <path class="cls-6" d="m88.65,128.73c.79.25,1.67.15,1.98-.38.32-.53-.13-1.47-1.07-1.96-2.55-1.32-5.51-1.82-8.44-1.35-1.09.18-1.57,1.3-1.1,2.33.46,1.03,1.36,1.59,2.07,1.35,2.04-.68,4.34-.72,6.56,0Z"/>
      <path class="cls-6" d="m86.19,132.98c.59.59,1.42.9,1.94.56.52-.33.55-1.37-.07-2.23-1.67-2.34-4.08-4.12-6.9-5.04-1.05-.34-1.99.44-2.05,1.57-.05,1.13.49,2.03,1.23,2.15,2.12.32,4.2,1.34,5.84,2.99Z"/>
    </g>
    <path class="cls-6" d="m66.61,201.92c.84.24,1.76.1,2.07-.47.31-.56-.19-1.54-1.19-2.01-2.72-1.3-5.84-1.72-8.91-1.12-1.14.23-1.6,1.42-1.08,2.48.52,1.07,1.48,1.62,2.22,1.35,2.12-.79,4.54-.91,6.89-.23Z"/>
    <path class="cls-6" d="m65.31,206.79c.74.46,1.66.58,2.12.12s.25-1.53-.59-2.27c-2.25-2-5.13-3.27-8.25-3.55-1.16-.1-1.93.92-1.73,2.08.21,1.17.97,1.97,1.76,1.92,2.25-.17,4.6.38,6.68,1.69Z"/>
    <path class="cls-6" d="m61.71,210.48c.45.75,1.22,1.28,1.83,1.08.61-.2.92-1.25.51-2.29-1.1-2.8-3.09-5.24-5.73-6.91-.99-.62-2.14-.07-2.49,1.06-.35,1.14-.03,2.2.7,2.51,2.08.88,3.93,2.44,5.18,4.55Z"/>
    <path class="cls-6" d="m93.25,199.02c.83.24,1.76.1,2.07-.47.31-.57-.19-1.54-1.19-2.02-2.72-1.29-5.84-1.71-8.91-1.12-1.14.22-1.6,1.42-1.08,2.48.52,1.07,1.48,1.62,2.22,1.36,2.12-.79,4.54-.91,6.89-.23Z"/>
    <path class="cls-6" d="m91.94,203.89c.74.46,1.66.58,2.11.12.46-.45.25-1.53-.58-2.27-2.26-2-5.14-3.27-8.25-3.55-1.16-.1-1.93.92-1.72,2.08.2,1.17.97,1.97,1.76,1.92,2.25-.17,4.61.38,6.68,1.7Z"/>
    <path class="cls-6" d="m88.34,207.58c.45.75,1.22,1.28,1.83,1.07.61-.2.92-1.25.51-2.28-1.1-2.81-3.09-5.25-5.73-6.91-.98-.62-2.14-.07-2.48,1.07-.35,1.14-.03,2.2.69,2.51,2.09.88,3.93,2.44,5.18,4.55Z"/>
    <path class="cls-6" d="m122.71,103.76c.5.73,1.31,1.22,1.92.98.61-.24.86-1.33.38-2.35-.4-.87-.92-1.11-1.82-1.25-.93-.15-2.34.49-2.34.49.69.62,1.32,1.33,1.86,2.13Z"/>
    <path class="cls-6" d="m129.41,104.72c.5.73,1.31,1.22,1.92.98.61-.24.86-1.33.38-2.35-.4-.87-.92-1.11-1.82-1.25-.93-.15-2.34.49-2.34.49.69.62,1.32,1.33,1.86,2.13Z"/>
    <g>
      <path class="cls-8" d="m39.66,35.68c-1.36-.79-2.27-1.54-2.89-2.14-2.98,1.1-4.65,2.34-4.65,3.65,0,4.55,20.25,8.25,45.51,8.39-14.37-.13-35.52-2.14-37.97-9.9Z"/>
      <path class="cls-8" d="m126.12,37.19c0-1.15-1.3-2.25-3.65-3.25-.56.51-1.4,1.16-2.68,1.89,0,0,0,0,0,.01,0,4.53-6,6.95-13.92,8.25,12.23-1.52,20.25-4.04,20.25-6.9Z"/>
      <path class="cls-8" d="m79.12,45.59c-.5,0-.99,0-1.48,0,.5,0,1,0,1.48,0Z"/>
      <path class="cls-8" d="m105.87,44.09c-7.59.94-16.81,1.49-26.75,1.49,7.83,0,18.36-.11,26.75-1.49Z"/>
      <path class="cls-8" d="m79.12,11.81c-24.28,0-36.83,10.37-39.25,19.22.66.3,1.43.63,2.3.97,6.28,2.46,18.13,5.72,36.95,5.72s31.9-3.17,38.23-5.41c.6-.21,1.15-.42,1.65-.61-3.22-8.98-16.44-19.89-39.88-19.89Z"/>
      <path class="cls-8" d="m119.78,35.84s0,0,0-.01c-4.7,2.65-15.4,6.17-40.67,6.17s-34.61-3.47-39.46-6.31c2.45,7.76,23.61,9.77,37.97,9.9.49,0,.99,0,1.48,0,9.94,0,19.16-.55,26.75-1.49,7.91-1.3,13.92-3.73,13.92-8.25Z"/>
      <path class="cls-15" d="m119.78,35.83c1.28-.72,2.12-1.38,2.68-1.89-.89-.38-1.93-.74-3.11-1.09.28,1.03.42,2.03.42,2.98Z"/>
      <path class="cls-15" d="m39.42,34.16c0-.49.04-.99.11-1.49-1.01.28-1.94.57-2.76.88.62.6,1.53,1.35,2.89,2.14-.15-.49-.24-.99-.24-1.52Z"/>
      <path class="cls-15" d="m42.17,32c-.88-.34-1.64-.67-2.3-.97-.15.55-.26,1.09-.34,1.63.82-.23,1.7-.45,2.64-.66Z"/>
      <path class="cls-15" d="m119.36,32.85c-.1-.38-.22-.76-.36-1.15-.49.19-1.04.4-1.65.61.71.18,1.38.36,2.01.54Z"/>
      <path class="cls-15" d="m117.35,32.31c-6.33,2.24-18.71,5.41-38.23,5.41s-30.67-3.26-36.95-5.72c-.94.21-1.82.43-2.64.66-.07.51-.11,1.01-.11,1.49,0,.53.09,1.04.24,1.52,4.85,2.84,15.45,6.31,39.46,6.31,25.27,0,35.97-3.51,40.67-6.17,0-.94-.15-1.94-.42-2.98-.63-.19-1.31-.37-2.01-.54Z"/>
    </g>
    <g>
      <rect class="cls-15" x="100.91" y="29.06" width="10.99" height="13.24" rx=".71" ry=".71" transform="translate(-4.12 16.21) rotate(-8.55)"/>
      <rect class="cls-9" x="102.45" y="30.57" width="7.77" height="9.37" rx=".71" ry=".71" transform="translate(-4.06 16.2) rotate(-8.55)"/>
    </g>
  </g>
  <g>
    <g>
      <path class="cls-10" d="m223.55,67.04c.43,1.01,1.03,1.98,1.8,2.85,3.89,4.43,10.64,4.87,15.07.98,2.36-2.08,3.59-4.96,3.63-7.88-.73,1.62-1.81,3.12-3.24,4.37-5.02,4.4-12.51,4.18-17.26-.33Z"/>
      <path class="cls-7" d="m226.33,54.82c-3.56,3.12-4.54,8.09-2.78,12.22,4.75,4.51,12.24,4.73,17.26.33,1.43-1.25,2.51-2.75,3.24-4.37.04-2.55-.84-5.12-2.65-7.19-3.89-4.43-10.64-4.87-15.07-.98Z"/>
    </g>
    <path class="cls-2" d="m236.46,63.84c.15.35.13.77-.06,1.27-.24.59-.62.96-1.14,1.11-.44.12-1.05.1-1.82-.07l-.33,1.17-.84-.24.33-1.15-.65-.19-.33,1.15-.84-.24.33-1.17-1.67-.48.46-.95.17.05c.27.09.45.13.54.13.12,0,.22-.07.28-.2l1.06-3.74c.02-.19-.05-.34-.19-.43-.09-.06-.31-.14-.64-.22l-.14-.04.25-.9.51.16c.61.17.99.28,1.16.31l.39-1.36.84.24-.38,1.34.66.17.38-1.33.84.24-.39,1.36c.57.22.98.48,1.24.76.31.34.42.74.33,1.21-.12.69-.49,1.09-1.11,1.21h0c.4.21.66.48.78.8h0Zm-3.46-1.79l.14.04c.48.15.86.23,1.14.23.49.02.79-.17.9-.55s-.04-.7-.46-.95c-.23-.14-.6-.27-1.09-.4-.08-.01-.14-.02-.16-.03l-.47,1.65h0Zm-.6,2.71c.58.18,1.03.27,1.35.29.58.02.93-.18,1.05-.6s-.07-.76-.56-1.05c-.26-.16-.69-.31-1.28-.46l-.19-.05-.52,1.83.16.04h0Z"/>
  </g>
  <g>
    <g>
      <path class="cls-10" d="m196.36,39.19c.41.95.97,1.86,1.69,2.68,3.65,4.16,9.99,4.58,14.15.92,2.22-1.95,3.37-4.66,3.41-7.4-.68,1.53-1.7,2.93-3.04,4.11-4.71,4.14-11.75,3.93-16.21-.31Z"/>
      <path class="cls-7" d="m198.97,27.71c-3.34,2.93-4.27,7.6-2.61,11.47,4.46,4.23,11.5,4.44,16.21.31,1.34-1.18,2.35-2.58,3.04-4.11.03-2.39-.78-4.81-2.49-6.75-3.65-4.16-9.99-4.58-14.15-.92Z"/>
    </g>
    <path class="cls-2" d="m208.48,36.19c.14.33.12.73-.06,1.19-.23.55-.58.9-1.07,1.04-.42.11-.99.09-1.71-.07l-.31,1.1-.79-.23.31-1.08-.61-.17-.31,1.08-.79-.23.31-1.1-1.57-.45.43-.89.16.05c.26.08.42.13.51.13.12,0,.2-.06.26-.19l1-3.51c.02-.18-.04-.32-.18-.4-.09-.06-.29-.13-.61-.21l-.13-.04.24-.84.48.15c.57.16.93.26,1.09.29l.36-1.28.79.23-.36,1.26.62.16.35-1.24.79.23-.36,1.28c.53.21.92.45,1.16.71.29.32.4.7.31,1.14-.11.64-.46,1.02-1.04,1.14h0c.37.2.62.45.73.75h0Zm-3.25-1.68l.13.04c.45.14.81.21,1.07.22.46.01.74-.16.85-.51s-.04-.65-.43-.89c-.22-.13-.56-.26-1.03-.38-.08-.01-.13-.02-.15-.03l-.44,1.55h0Zm-.57,2.55c.55.17.97.26,1.27.27.54.02.87-.17.98-.56s-.06-.72-.52-.99c-.25-.15-.65-.3-1.21-.43l-.18-.05-.49,1.71.15.04h0Z"/>
  </g>
  <g>
    <g>
      <path class="cls-10" d="m185.55,79.65c.57,1.33,1.35,2.59,2.36,3.74,5.1,5.82,13.96,6.4,19.78,1.29,3.1-2.72,4.72-6.51,4.77-10.34-.96,2.13-2.38,4.1-4.25,5.74-6.59,5.78-16.42,5.49-22.65-.43Z"/>
      <path class="cls-7" d="m189.2,63.62c-4.67,4.1-5.96,10.61-3.65,16.04,6.23,5.92,16.07,6.21,22.65.43,1.87-1.64,3.29-3.61,4.25-5.74.05-3.35-1.1-6.72-3.48-9.44-5.11-5.82-13.96-6.4-19.78-1.29Z"/>
    </g>
    <path class="cls-2" d="m202.5,75.46c.19.46.17,1.02-.08,1.66-.32.77-.82,1.26-1.49,1.46-.58.16-1.38.13-2.39-.09l-.44,1.54-1.11-.32.43-1.52-.86-.24-.43,1.52-1.11-.32.44-1.54-2.19-.62.6-1.25.23.06c.36.12.59.18.71.18.16,0,.29-.09.37-.26l1.4-4.91c.02-.25-.06-.44-.25-.56-.12-.08-.4-.18-.85-.29l-.18-.05.33-1.18.67.22c.8.23,1.3.36,1.52.41l.51-1.79,1.11.32-.5,1.76.87.22.5-1.74,1.11.32-.51,1.79c.75.29,1.29.63,1.62,1,.41.44.55.97.43,1.59-.16.9-.64,1.43-1.45,1.59h0c.52.28.86.63,1.02,1.05h0Zm-4.54-2.34l.18.05c.63.2,1.13.3,1.5.31.65.02,1.04-.22,1.18-.72s-.06-.91-.6-1.25c-.31-.18-.78-.36-1.44-.53-.11-.01-.18-.03-.21-.04l-.62,2.17h0Zm-.79,3.56c.76.23,1.35.36,1.77.38.76.02,1.22-.24,1.37-.78s-.09-1-.73-1.38c-.35-.21-.91-.41-1.69-.6l-.25-.07-.68,2.4.2.06h0Z"/>
  </g>
  <g>
    <g>
      <path class="cls-10" d="m217.12,14.81c.32.74.75,1.44,1.31,2.07,2.83,3.23,7.74,3.55,10.97.72,1.72-1.51,2.62-3.61,2.65-5.74-.53,1.18-1.32,2.27-2.36,3.18-3.65,3.21-9.11,3.04-12.57-.24Z"/>
      <path class="cls-7" d="m219.15,5.91c-2.59,2.27-3.31,5.89-2.02,8.9,3.46,3.28,8.91,3.45,12.57.24,1.04-.91,1.83-2,2.36-3.18.03-1.86-.61-3.73-1.93-5.23-2.83-3.23-7.74-3.55-10.97-.72Z"/>
    </g>
    <path class="cls-2" d="m226.52,12.48c.11.26.09.56-.05.92-.18.43-.45.7-.83.81-.32.09-.77.07-1.33-.05l-.24.85-.61-.17.24-.84-.48-.14-.24.84-.62-.18.24-.85-1.22-.35.33-.69.13.04c.2.07.33.1.39.1.09,0,.16-.05.2-.14l.77-2.72c.01-.14-.03-.24-.14-.31-.07-.05-.22-.1-.47-.16l-.1-.03.19-.65.37.12c.44.13.72.2.84.23l.28-.99.61.18-.28.98.48.12.27-.97.61.17-.28.99c.41.16.71.35.9.55.23.25.31.54.24.88-.09.5-.36.79-.81.88h0c.29.15.48.35.57.58h0Zm-2.52-1.3l.1.03c.35.11.63.17.83.17.36.01.58-.12.66-.4s-.03-.51-.33-.69c-.17-.1-.43-.2-.8-.29-.06,0-.1-.02-.12-.02l-.34,1.2h0Zm-.44,1.98c.42.13.75.2.98.21.42.01.68-.13.76-.43s-.05-.56-.41-.77c-.19-.12-.5-.23-.94-.33l-.14-.04-.38,1.33.11.03h0Z"/>
  </g>
  <g>
    <g>
      <rect class="cls-14" x="146.47" y="154.79" width="29.63" height="10.25" rx="2.65" ry="2.65"/>
      <path class="cls-4" d="m173.45,165.54h-24.33c-1.74,0-3.15-1.41-3.15-3.15v-4.95c0-1.74,1.41-3.15,3.15-3.15h24.33c1.74,0,3.15,1.41,3.15,3.15v4.95c0,1.74-1.41,3.15-3.15,3.15Zm-24.33-10.25c-1.19,0-2.15.97-2.15,2.15v4.95c0,1.19.97,2.15,2.15,2.15h24.33c1.19,0,2.15-.97,2.15-2.15v-4.95c0-1.19-.97-2.15-2.15-2.15h-24.33Z"/>
    </g>
    <g>
      <rect class="cls-1" x="137.05" y="161.45" width="48.49" height="48.49" rx="6.49" ry="6.49"/>
      <path class="cls-4" d="m179.04,210.44h-35.5c-3.86,0-6.99-3.14-6.99-6.99v-35.5c0-3.86,3.14-6.99,6.99-6.99h35.5c3.86,0,6.99,3.14,6.99,6.99v35.5c0,3.86-3.14,6.99-6.99,6.99Zm-35.5-48.49c-3.31,0-5.99,2.69-5.99,5.99v35.5c0,3.31,2.69,5.99,5.99,5.99h35.5c3.31,0,5.99-2.69,5.99-5.99v-35.5c0-3.31-2.69-5.99-5.99-5.99h-35.5Z"/>
    </g>
    <g>
      <g>
        <circle class="cls-12" cx="161.29" cy="185.69" r="18.76"/>
        <path class="cls-4" d="m161.29,204.95c-10.62,0-19.26-8.64-19.26-19.26s8.64-19.26,19.26-19.26,19.26,8.64,19.26,19.26-8.64,19.26-19.26,19.26Zm0-37.52c-10.07,0-18.26,8.19-18.26,18.26s8.19,18.26,18.26,18.26,18.26-8.19,18.26-18.26-8.19-18.26-18.26-18.26Z"/>
      </g>
      <g>
        <circle class="cls-12" cx="161.29" cy="185.69" r="13.56"/>
        <path class="cls-4" d="m161.29,199.76c-7.75,0-14.06-6.31-14.06-14.06s6.31-14.06,14.06-14.06,14.06,6.31,14.06,14.06-6.31,14.06-14.06,14.06Zm0-27.13c-7.2,0-13.06,5.86-13.06,13.06s5.86,13.06,13.06,13.06,13.06-5.86,13.06-13.06-5.86-13.06-13.06-13.06Z"/>
      </g>
      <g>
        <circle class="cls-12" cx="161.29" cy="185.69" r="8.16"/>
        <path class="cls-4" d="m161.29,194.35c-4.77,0-8.66-3.88-8.66-8.66s3.88-8.66,8.66-8.66,8.66,3.88,8.66,8.66-3.88,8.66-8.66,8.66Zm0-16.31c-4.22,0-7.66,3.43-7.66,7.66s3.43,7.66,7.66,7.66,7.66-3.43,7.66-7.66-3.43-7.66-7.66-7.66Z"/>
      </g>
      <g>
        <line class="cls-1" x1="146.04" y1="170.44" x2="176.54" y2="200.94"/>
        <rect class="cls-4" x="160.79" y="164.12" width="1" height="43.14" transform="translate(-84.06 168.44) rotate(-45)"/>
      </g>
      <g>
        <line class="cls-1" x1="176.54" y1="170.44" x2="146.04" y2="200.94"/>
        <rect class="cls-4" x="139.72" y="185.19" width="43.14" height="1" transform="translate(-84.06 168.44) rotate(-45)"/>
      </g>
      <g>
        <circle class="cls-3" cx="177.63" cy="169.35" r="1.39"/>
        <path class="cls-4" d="m177.63,171.24c-1.04,0-1.89-.85-1.89-1.89s.85-1.89,1.89-1.89,1.89.85,1.89,1.89-.85,1.89-1.89,1.89Zm0-2.78c-.49,0-.89.4-.89.89s.4.89.89.89.89-.4.89-.89-.4-.89-.89-.89Z"/>
      </g>
      <g>
        <circle class="cls-3" cx="144.7" cy="169.35" r="1.39"/>
        <path class="cls-4" d="m144.7,171.24c-1.04,0-1.89-.85-1.89-1.89s.85-1.89,1.89-1.89,1.89.85,1.89,1.89-.85,1.89-1.89,1.89Zm0-2.78c-.49,0-.89.4-.89.89s.4.89.89.89.89-.4.89-.89-.4-.89-.89-.89Z"/>
      </g>
      <g>
        <circle class="cls-3" cx="144.85" cy="202.13" r="1.39"/>
        <path class="cls-4" d="m144.85,204.02c-1.04,0-1.89-.85-1.89-1.89s.85-1.89,1.89-1.89,1.89.85,1.89,1.89-.85,1.89-1.89,1.89Zm0-2.78c-.49,0-.89.4-.89.89s.4.89.89.89.89-.4.89-.89-.4-.89-.89-.89Z"/>
      </g>
      <g>
        <circle class="cls-3" cx="177.63" cy="202.04" r="1.39"/>
        <path class="cls-4" d="m177.63,203.93c-1.04,0-1.89-.85-1.89-1.89s.85-1.89,1.89-1.89,1.89.85,1.89,1.89-.85,1.89-1.89,1.89Zm0-2.78c-.49,0-.89.4-.89.89s.4.89.89.89.89-.4.89-.89-.4-.89-.89-.89Z"/>
      </g>
    </g>
    <g>
      <g>
        <rect class="cls-3" x="158.27" y="156.92" width="5.95" height="2.43"/>
        <path class="cls-4" d="m164.72,159.85h-6.95v-3.43h6.95v3.43Zm-5.95-1h4.95v-1.43h-4.95v1.43Z"/>
      </g>
      <g>
        <circle class="cls-3" cx="152.21" cy="158.13" r="1.15"/>
        <path class="cls-4" d="m152.21,159.79c-.91,0-1.65-.74-1.65-1.65s.74-1.65,1.65-1.65,1.65.74,1.65,1.65-.74,1.65-1.65,1.65Zm0-2.31c-.36,0-.65.29-.65.65s.29.65.65.65.65-.29.65-.65-.29-.65-.65-.65Z"/>
      </g>
      <g>
        <circle class="cls-3" cx="170.27" cy="158.13" r="1.24"/>
        <path class="cls-4" d="m170.27,159.88c-.96,0-1.74-.78-1.74-1.74s.78-1.74,1.74-1.74,1.74.78,1.74,1.74-.78,1.74-1.74,1.74Zm0-2.49c-.41,0-.74.33-.74.74s.33.74.74.74.74-.33.74-.74-.33-.74-.74-.74Z"/>
      </g>
    </g>
  </g>
  <g>
    <g>
      <rect class="cls-14" x="173.4" y="99.3" width="29.63" height="10.25" rx="2.65" ry="2.65"/>
      <path class="cls-4" d="m200.38,110.05h-24.33c-1.74,0-3.15-1.41-3.15-3.15v-4.95c0-1.74,1.41-3.15,3.15-3.15h24.33c1.74,0,3.15,1.41,3.15,3.15v4.95c0,1.74-1.41,3.15-3.15,3.15Zm-24.33-10.25c-1.19,0-2.15.97-2.15,2.15v4.95c0,1.19.97,2.15,2.15,2.15h24.33c1.19,0,2.15-.97,2.15-2.15v-4.95c0-1.19-.97-2.15-2.15-2.15h-24.33Z"/>
    </g>
    <g>
      <rect class="cls-1" x="163.97" y="105.95" width="48.49" height="48.49" rx="6.49" ry="6.49"/>
      <path class="cls-4" d="m205.96,154.94h-35.5c-3.86,0-6.99-3.14-6.99-6.99v-35.5c0-3.86,3.14-6.99,6.99-6.99h35.5c3.86,0,6.99,3.14,6.99,6.99v35.5c0,3.86-3.14,6.99-6.99,6.99Zm-35.5-48.49c-3.31,0-5.99,2.69-5.99,5.99v35.5c0,3.31,2.69,5.99,5.99,5.99h35.5c3.31,0,5.99-2.69,5.99-5.99v-35.5c0-3.31-2.69-5.99-5.99-5.99h-35.5Z"/>
    </g>
    <g>
      <g>
        <circle class="cls-12" cx="188.22" cy="130.2" r="18.76"/>
        <path class="cls-4" d="m188.22,149.45c-10.62,0-19.26-8.64-19.26-19.26s8.64-19.26,19.26-19.26,19.26,8.64,19.26,19.26-8.64,19.26-19.26,19.26Zm0-37.52c-10.07,0-18.26,8.19-18.26,18.26s8.19,18.26,18.26,18.26,18.26-8.19,18.26-18.26-8.19-18.26-18.26-18.26Z"/>
      </g>
      <g>
        <circle class="cls-12" cx="188.22" cy="130.2" r="13.56"/>
        <path class="cls-4" d="m188.22,144.26c-7.75,0-14.06-6.31-14.06-14.06s6.31-14.06,14.06-14.06,14.06,6.31,14.06,14.06-6.31,14.06-14.06,14.06Zm0-27.13c-7.2,0-13.06,5.86-13.06,13.06s5.86,13.06,13.06,13.06,13.06-5.86,13.06-13.06-5.86-13.06-13.06-13.06Z"/>
      </g>
      <g>
        <circle class="cls-12" cx="188.22" cy="130.2" r="8.16"/>
        <path class="cls-4" d="m188.22,138.85c-4.77,0-8.66-3.88-8.66-8.66s3.88-8.66,8.66-8.66,8.66,3.88,8.66,8.66-3.88,8.66-8.66,8.66Zm0-16.31c-4.22,0-7.66,3.43-7.66,7.66s3.43,7.66,7.66,7.66,7.66-3.43,7.66-7.66-3.43-7.66-7.66-7.66Z"/>
      </g>
      <g>
        <line class="cls-1" x1="172.96" y1="114.94" x2="203.47" y2="145.45"/>
        <rect class="cls-4" x="187.72" y="108.63" width="1" height="43.14" transform="translate(-36.93 171.22) rotate(-45)"/>
      </g>
      <g>
        <line class="cls-1" x1="203.47" y1="114.94" x2="172.96" y2="145.45"/>
        <rect class="cls-4" x="166.65" y="129.7" width="43.14" height="1" transform="translate(-36.94 171.22) rotate(-45)"/>
      </g>
      <g>
        <circle class="cls-3" cx="204.56" cy="113.85" r="1.39"/>
        <path class="cls-4" d="m204.56,115.74c-1.04,0-1.89-.85-1.89-1.89s.85-1.89,1.89-1.89,1.89.85,1.89,1.89-.85,1.89-1.89,1.89Zm0-2.78c-.49,0-.89.4-.89.89s.4.89.89.89.89-.4.89-.89-.4-.89-.89-.89Z"/>
      </g>
      <g>
        <circle class="cls-3" cx="171.63" cy="113.85" r="1.39"/>
        <path class="cls-4" d="m171.63,115.74c-1.04,0-1.89-.85-1.89-1.89s.85-1.89,1.89-1.89,1.89.85,1.89,1.89-.85,1.89-1.89,1.89Zm0-2.78c-.49,0-.89.4-.89.89s.4.89.89.89.89-.4.89-.89-.4-.89-.89-.89Z"/>
      </g>
      <g>
        <circle class="cls-3" cx="171.78" cy="146.63" r="1.39"/>
        <path class="cls-4" d="m171.78,148.52c-1.04,0-1.89-.85-1.89-1.89s.85-1.89,1.89-1.89,1.89.85,1.89,1.89-.85,1.89-1.89,1.89Zm0-2.78c-.49,0-.89.4-.89.89s.4.89.89.89.89-.4.89-.89-.4-.89-.89-.89Z"/>
      </g>
      <g>
        <circle class="cls-3" cx="204.56" cy="146.54" r="1.39"/>
        <path class="cls-4" d="m204.56,148.43c-1.04,0-1.89-.85-1.89-1.89s.85-1.89,1.89-1.89,1.89.85,1.89,1.89-.85,1.89-1.89,1.89Zm0-2.78c-.49,0-.89.4-.89.89s.4.89.89.89.89-.4.89-.89-.4-.89-.89-.89Z"/>
      </g>
    </g>
    <g>
      <g>
        <rect class="cls-3" x="185.2" y="101.42" width="5.95" height="2.43"/>
        <path class="cls-4" d="m191.65,104.35h-6.95v-3.43h6.95v3.43Zm-5.95-1h4.95v-1.43h-4.95v1.43Z"/>
      </g>
      <g>
        <circle class="cls-3" cx="179.14" cy="102.63" r="1.15"/>
        <path class="cls-4" d="m179.14,104.29c-.91,0-1.65-.74-1.65-1.65s.74-1.65,1.65-1.65,1.65.74,1.65,1.65-.74,1.65-1.65,1.65Zm0-2.31c-.36,0-.65.29-.65.65s.29.65.65.65.65-.29.65-.65-.29-.65-.65-.65Z"/>
      </g>
      <g>
        <circle class="cls-3" cx="197.2" cy="102.63" r="1.24"/>
        <path class="cls-4" d="m197.2,104.38c-.96,0-1.74-.78-1.74-1.74s.78-1.74,1.74-1.74,1.74.78,1.74,1.74-.78,1.74-1.74,1.74Zm0-2.49c-.41,0-.74.33-.74.74s.33.74.74.74.74-.33.74-.74-.33-.74-.74-.74Z"/>
      </g>
    </g>
  </g>
  <g>
    <g>
      <rect class="cls-14" x="224.35" y="99.3" width="29.63" height="10.25" rx="2.65" ry="2.65"/>
      <path class="cls-4" d="m251.33,110.05h-24.33c-1.74,0-3.15-1.41-3.15-3.15v-4.95c0-1.74,1.41-3.15,3.15-3.15h24.33c1.74,0,3.15,1.41,3.15,3.15v4.95c0,1.74-1.41,3.15-3.15,3.15Zm-24.33-10.25c-1.19,0-2.15.97-2.15,2.15v4.95c0,1.19.97,2.15,2.15,2.15h24.33c1.19,0,2.15-.97,2.15-2.15v-4.95c0-1.19-.97-2.15-2.15-2.15h-24.33Z"/>
    </g>
    <g>
      <rect class="cls-1" x="214.92" y="105.95" width="48.49" height="48.49" rx="6.49" ry="6.49"/>
      <path class="cls-4" d="m256.91,154.94h-35.5c-3.86,0-6.99-3.14-6.99-6.99v-35.5c0-3.86,3.14-6.99,6.99-6.99h35.5c3.86,0,6.99,3.14,6.99,6.99v35.5c0,3.86-3.14,6.99-6.99,6.99Zm-35.5-48.49c-3.31,0-5.99,2.69-5.99,5.99v35.5c0,3.31,2.69,5.99,5.99,5.99h35.5c3.31,0,5.99-2.69,5.99-5.99v-35.5c0-3.31-2.69-5.99-5.99-5.99h-35.5Z"/>
    </g>
    <g>
      <g>
        <circle class="cls-12" cx="239.16" cy="130.2" r="18.76"/>
        <path class="cls-4" d="m239.16,149.45c-10.62,0-19.26-8.64-19.26-19.26s8.64-19.26,19.26-19.26,19.26,8.64,19.26,19.26-8.64,19.26-19.26,19.26Zm0-37.52c-10.07,0-18.26,8.19-18.26,18.26s8.19,18.26,18.26,18.26,18.26-8.19,18.26-18.26-8.19-18.26-18.26-18.26Z"/>
      </g>
      <g>
        <circle class="cls-12" cx="239.16" cy="130.2" r="13.56"/>
        <path class="cls-4" d="m239.16,144.26c-7.75,0-14.06-6.31-14.06-14.06s6.31-14.06,14.06-14.06,14.06,6.31,14.06,14.06-6.31,14.06-14.06,14.06Zm0-27.13c-7.2,0-13.06,5.86-13.06,13.06s5.86,13.06,13.06,13.06,13.06-5.86,13.06-13.06-5.86-13.06-13.06-13.06Z"/>
      </g>
      <g>
        <circle class="cls-12" cx="239.16" cy="130.2" r="8.16"/>
        <path class="cls-4" d="m239.16,138.85c-4.77,0-8.66-3.88-8.66-8.66s3.88-8.66,8.66-8.66,8.66,3.88,8.66,8.66-3.88,8.66-8.66,8.66Zm0-16.31c-4.22,0-7.66,3.43-7.66,7.66s3.43,7.66,7.66,7.66,7.66-3.43,7.66-7.66-3.43-7.66-7.66-7.66Z"/>
      </g>
      <g>
        <line class="cls-1" x1="223.91" y1="114.94" x2="254.42" y2="145.45"/>
        <rect class="cls-4" x="238.66" y="108.63" width="1" height="43.14" transform="translate(-22.01 207.25) rotate(-45)"/>
      </g>
      <g>
        <line class="cls-1" x1="254.42" y1="114.94" x2="223.91" y2="145.45"/>
        <rect class="cls-4" x="217.6" y="129.7" width="43.14" height="1" transform="translate(-22.01 207.25) rotate(-45)"/>
      </g>
      <g>
        <circle class="cls-3" cx="255.51" cy="113.85" r="1.39"/>
        <path class="cls-4" d="m255.51,115.74c-1.04,0-1.89-.85-1.89-1.89s.85-1.89,1.89-1.89,1.89.85,1.89,1.89-.85,1.89-1.89,1.89Zm0-2.78c-.49,0-.89.4-.89.89s.4.89.89.89.89-.4.89-.89-.4-.89-.89-.89Z"/>
      </g>
      <g>
        <circle class="cls-3" cx="222.58" cy="113.85" r="1.39"/>
        <path class="cls-4" d="m222.58,115.74c-1.04,0-1.89-.85-1.89-1.89s.85-1.89,1.89-1.89,1.89.85,1.89,1.89-.85,1.89-1.89,1.89Zm0-2.78c-.49,0-.89.4-.89.89s.4.89.89.89.89-.4.89-.89-.4-.89-.89-.89Z"/>
      </g>
      <g>
        <circle class="cls-3" cx="222.73" cy="146.63" r="1.39"/>
        <path class="cls-4" d="m222.73,148.52c-1.04,0-1.89-.85-1.89-1.89s.85-1.89,1.89-1.89,1.89.85,1.89,1.89-.85,1.89-1.89,1.89Zm0-2.78c-.49,0-.89.4-.89.89s.4.89.89.89.89-.4.89-.89-.4-.89-.89-.89Z"/>
      </g>
      <g>
        <circle class="cls-3" cx="255.51" cy="146.54" r="1.39"/>
        <path class="cls-4" d="m255.51,148.43c-1.04,0-1.89-.85-1.89-1.89s.85-1.89,1.89-1.89,1.89.85,1.89,1.89-.85,1.89-1.89,1.89Zm0-2.78c-.49,0-.89.4-.89.89s.4.89.89.89.89-.4.89-.89-.4-.89-.89-.89Z"/>
      </g>
    </g>
    <g>
      <g>
        <rect class="cls-3" x="236.14" y="101.42" width="5.95" height="2.43"/>
        <path class="cls-4" d="m242.59,104.35h-6.95v-3.43h6.95v3.43Zm-5.95-1h4.95v-1.43h-4.95v1.43Z"/>
      </g>
      <g>
        <circle class="cls-3" cx="230.09" cy="102.63" r="1.15"/>
        <path class="cls-4" d="m230.09,104.29c-.91,0-1.65-.74-1.65-1.65s.74-1.65,1.65-1.65,1.65.74,1.65,1.65-.74,1.65-1.65,1.65Zm0-2.31c-.36,0-.65.29-.65.65s.29.65.65.65.65-.29.65-.65-.29-.65-.65-.65Z"/>
      </g>
      <g>
        <circle class="cls-3" cx="248.15" cy="102.63" r="1.24"/>
        <path class="cls-4" d="m248.15,104.38c-.96,0-1.74-.78-1.74-1.74s.78-1.74,1.74-1.74,1.74.78,1.74,1.74-.78,1.74-1.74,1.74Zm0-2.49c-.41,0-.74.33-.74.74s.33.74.74.74.74-.33.74-.74-.33-.74-.74-.74Z"/>
      </g>
    </g>
  </g>
  <g>
    <g>
      <rect class="cls-14" x="198.92" y="154.79" width="29.63" height="10.25" rx="2.65" ry="2.65"/>
      <path class="cls-4" d="m225.9,165.54h-24.33c-1.74,0-3.15-1.41-3.15-3.15v-4.95c0-1.74,1.41-3.15,3.15-3.15h24.33c1.74,0,3.15,1.41,3.15,3.15v4.95c0,1.74-1.41,3.15-3.15,3.15Zm-24.33-10.25c-1.19,0-2.15.97-2.15,2.15v4.95c0,1.19.97,2.15,2.15,2.15h24.33c1.19,0,2.15-.97,2.15-2.15v-4.95c0-1.19-.97-2.15-2.15-2.15h-24.33Z"/>
    </g>
    <g>
      <rect class="cls-1" x="189.49" y="161.45" width="48.49" height="48.49" rx="6.49" ry="6.49"/>
      <path class="cls-4" d="m231.48,210.44h-35.5c-3.86,0-6.99-3.14-6.99-6.99v-35.5c0-3.86,3.14-6.99,6.99-6.99h35.5c3.86,0,6.99,3.14,6.99,6.99v35.5c0,3.86-3.14,6.99-6.99,6.99Zm-35.5-48.49c-3.31,0-5.99,2.69-5.99,5.99v35.5c0,3.31,2.69,5.99,5.99,5.99h35.5c3.31,0,5.99-2.69,5.99-5.99v-35.5c0-3.31-2.69-5.99-5.99-5.99h-35.5Z"/>
    </g>
    <g>
      <g>
        <circle class="cls-12" cx="213.74" cy="185.69" r="18.76"/>
        <path class="cls-4" d="m213.74,204.95c-10.62,0-19.26-8.64-19.26-19.26s8.64-19.26,19.26-19.26,19.26,8.64,19.26,19.26-8.64,19.26-19.26,19.26Zm0-37.52c-10.07,0-18.26,8.19-18.26,18.26s8.19,18.26,18.26,18.26,18.26-8.19,18.26-18.26-8.19-18.26-18.26-18.26Z"/>
      </g>
      <g>
        <circle class="cls-12" cx="213.74" cy="185.69" r="13.56"/>
        <path class="cls-4" d="m213.74,199.76c-7.75,0-14.06-6.31-14.06-14.06s6.31-14.06,14.06-14.06,14.06,6.31,14.06,14.06-6.31,14.06-14.06,14.06Zm0-27.13c-7.2,0-13.06,5.86-13.06,13.06s5.86,13.06,13.06,13.06,13.06-5.86,13.06-13.06-5.86-13.06-13.06-13.06Z"/>
      </g>
      <g>
        <circle class="cls-12" cx="213.74" cy="185.69" r="8.16"/>
        <path class="cls-4" d="m213.74,194.35c-4.77,0-8.66-3.88-8.66-8.66s3.88-8.66,8.66-8.66,8.66,3.88,8.66,8.66-3.88,8.66-8.66,8.66Zm0-16.31c-4.22,0-7.66,3.43-7.66,7.66s3.43,7.66,7.66,7.66,7.66-3.43,7.66-7.66-3.43-7.66-7.66-7.66Z"/>
      </g>
      <g>
        <line class="cls-1" x1="198.48" y1="170.44" x2="228.99" y2="200.94"/>
        <rect class="cls-4" x="213.24" y="164.12" width="1" height="43.14" transform="translate(-68.7 205.52) rotate(-45)"/>
      </g>
      <g>
        <line class="cls-1" x1="228.99" y1="170.44" x2="198.48" y2="200.94"/>
        <rect class="cls-4" x="192.17" y="185.19" width="43.14" height="1" transform="translate(-68.7 205.52) rotate(-45)"/>
      </g>
      <g>
        <circle class="cls-3" cx="230.08" cy="169.35" r="1.39"/>
        <path class="cls-4" d="m230.08,171.24c-1.04,0-1.89-.85-1.89-1.89s.85-1.89,1.89-1.89,1.89.85,1.89,1.89-.85,1.89-1.89,1.89Zm0-2.78c-.49,0-.89.4-.89.89s.4.89.89.89.89-.4.89-.89-.4-.89-.89-.89Z"/>
      </g>
      <g>
        <circle class="cls-3" cx="197.15" cy="169.35" r="1.39"/>
        <path class="cls-4" d="m197.15,171.24c-1.04,0-1.89-.85-1.89-1.89s.85-1.89,1.89-1.89,1.89.85,1.89,1.89-.85,1.89-1.89,1.89Zm0-2.78c-.49,0-.89.4-.89.89s.4.89.89.89.89-.4.89-.89-.4-.89-.89-.89Z"/>
      </g>
      <g>
        <circle class="cls-3" cx="197.3" cy="202.13" r="1.39"/>
        <path class="cls-4" d="m197.3,204.02c-1.04,0-1.89-.85-1.89-1.89s.85-1.89,1.89-1.89,1.89.85,1.89,1.89-.85,1.89-1.89,1.89Zm0-2.78c-.49,0-.89.4-.89.89s.4.89.89.89.89-.4.89-.89-.4-.89-.89-.89Z"/>
      </g>
      <g>
        <circle class="cls-3" cx="230.08" cy="202.04" r="1.39"/>
        <path class="cls-4" d="m230.08,203.93c-1.04,0-1.89-.85-1.89-1.89s.85-1.89,1.89-1.89,1.89.85,1.89,1.89-.85,1.89-1.89,1.89Zm0-2.78c-.49,0-.89.4-.89.89s.4.89.89.89.89-.4.89-.89-.4-.89-.89-.89Z"/>
      </g>
    </g>
    <g>
      <g>
        <rect class="cls-3" x="210.72" y="156.92" width="5.95" height="2.43"/>
        <path class="cls-4" d="m217.17,159.85h-6.95v-3.43h6.95v3.43Zm-5.95-1h4.95v-1.43h-4.95v1.43Z"/>
      </g>
      <g>
        <circle class="cls-3" cx="204.66" cy="158.13" r="1.15"/>
        <path class="cls-4" d="m204.66,159.79c-.91,0-1.65-.74-1.65-1.65s.74-1.65,1.65-1.65,1.65.74,1.65,1.65-.74,1.65-1.65,1.65Zm0-2.31c-.36,0-.65.29-.65.65s.29.65.65.65.65-.29.65-.65-.29-.65-.65-.65Z"/>
      </g>
      <g>
        <circle class="cls-3" cx="222.72" cy="158.13" r="1.24"/>
        <path class="cls-4" d="m222.72,159.88c-.96,0-1.74-.78-1.74-1.74s.78-1.74,1.74-1.74,1.74.78,1.74,1.74-.78,1.74-1.74,1.74Zm0-2.49c-.41,0-.74.33-.74.74s.33.74.74.74.74-.33.74-.74-.33-.74-.74-.74Z"/>
      </g>
    </g>
  </g>
  <g>
    <g>
      <rect class="cls-14" x="250.71" y="154.79" width="29.63" height="10.25" rx="2.65" ry="2.65"/>
      <path class="cls-4" d="m277.69,165.54h-24.33c-1.74,0-3.15-1.41-3.15-3.15v-4.95c0-1.74,1.41-3.15,3.15-3.15h24.33c1.74,0,3.15,1.41,3.15,3.15v4.95c0,1.74-1.41,3.15-3.15,3.15Zm-24.33-10.25c-1.19,0-2.15.97-2.15,2.15v4.95c0,1.19.97,2.15,2.15,2.15h24.33c1.19,0,2.15-.97,2.15-2.15v-4.95c0-1.19-.97-2.15-2.15-2.15h-24.33Z"/>
    </g>
    <g>
      <rect class="cls-1" x="241.29" y="161.45" width="48.49" height="48.49" rx="6.49" ry="6.49"/>
      <path class="cls-4" d="m283.28,210.44h-35.5c-3.86,0-6.99-3.14-6.99-6.99v-35.5c0-3.86,3.14-6.99,6.99-6.99h35.5c3.86,0,6.99,3.14,6.99,6.99v35.5c0,3.86-3.14,6.99-6.99,6.99Zm-35.5-48.49c-3.31,0-5.99,2.69-5.99,5.99v35.5c0,3.31,2.69,5.99,5.99,5.99h35.5c3.31,0,5.99-2.69,5.99-5.99v-35.5c0-3.31-2.69-5.99-5.99-5.99h-35.5Z"/>
    </g>
    <g>
      <g>
        <circle class="cls-12" cx="265.53" cy="185.69" r="18.76"/>
        <path class="cls-4" d="m265.53,204.95c-10.62,0-19.26-8.64-19.26-19.26s8.64-19.26,19.26-19.26,19.26,8.64,19.26,19.26-8.64,19.26-19.26,19.26Zm0-37.52c-10.07,0-18.26,8.19-18.26,18.26s8.19,18.26,18.26,18.26,18.26-8.19,18.26-18.26-8.19-18.26-18.26-18.26Z"/>
      </g>
      <g>
        <circle class="cls-12" cx="265.53" cy="185.69" r="13.56"/>
        <path class="cls-4" d="m265.53,199.76c-7.75,0-14.06-6.31-14.06-14.06s6.31-14.06,14.06-14.06,14.06,6.31,14.06,14.06-6.31,14.06-14.06,14.06Zm0-27.13c-7.2,0-13.06,5.86-13.06,13.06s5.86,13.06,13.06,13.06,13.06-5.86,13.06-13.06-5.86-13.06-13.06-13.06Z"/>
      </g>
      <g>
        <circle class="cls-12" cx="265.53" cy="185.69" r="8.16"/>
        <path class="cls-4" d="m265.53,194.35c-4.77,0-8.66-3.88-8.66-8.66s3.88-8.66,8.66-8.66,8.66,3.88,8.66,8.66-3.88,8.66-8.66,8.66Zm0-16.31c-4.22,0-7.66,3.43-7.66,7.66s3.43,7.66,7.66,7.66,7.66-3.43,7.66-7.66-3.43-7.66-7.66-7.66Z"/>
      </g>
      <g>
        <line class="cls-1" x1="250.28" y1="170.44" x2="280.78" y2="200.94"/>
        <rect class="cls-4" x="265.03" y="164.12" width="1" height="43.14" transform="translate(-53.53 242.15) rotate(-45)"/>
      </g>
      <g>
        <line class="cls-1" x1="280.78" y1="170.44" x2="250.28" y2="200.94"/>
        <rect class="cls-4" x="243.96" y="185.19" width="43.14" height="1" transform="translate(-53.53 242.15) rotate(-45)"/>
      </g>
      <g>
        <circle class="cls-3" cx="281.87" cy="169.35" r="1.39"/>
        <path class="cls-4" d="m281.87,171.24c-1.04,0-1.89-.85-1.89-1.89s.85-1.89,1.89-1.89,1.89.85,1.89,1.89-.85,1.89-1.89,1.89Zm0-2.78c-.49,0-.89.4-.89.89s.4.89.89.89.89-.4.89-.89-.4-.89-.89-.89Z"/>
      </g>
      <g>
        <circle class="cls-3" cx="248.94" cy="169.35" r="1.39"/>
        <path class="cls-4" d="m248.94,171.24c-1.04,0-1.89-.85-1.89-1.89s.85-1.89,1.89-1.89,1.89.85,1.89,1.89-.85,1.89-1.89,1.89Zm0-2.78c-.49,0-.89.4-.89.89s.4.89.89.89.89-.4.89-.89-.4-.89-.89-.89Z"/>
      </g>
      <g>
        <circle class="cls-3" cx="249.09" cy="202.13" r="1.39"/>
        <path class="cls-4" d="m249.09,204.02c-1.04,0-1.89-.85-1.89-1.89s.85-1.89,1.89-1.89,1.89.85,1.89,1.89-.85,1.89-1.89,1.89Zm0-2.78c-.49,0-.89.4-.89.89s.4.89.89.89.89-.4.89-.89-.4-.89-.89-.89Z"/>
      </g>
      <g>
        <circle class="cls-3" cx="281.87" cy="202.04" r="1.39"/>
        <path class="cls-4" d="m281.87,203.93c-1.04,0-1.89-.85-1.89-1.89s.85-1.89,1.89-1.89,1.89.85,1.89,1.89-.85,1.89-1.89,1.89Zm0-2.78c-.49,0-.89.4-.89.89s.4.89.89.89.89-.4.89-.89-.4-.89-.89-.89Z"/>
      </g>
    </g>
    <g>
      <g>
        <rect class="cls-3" x="262.51" y="156.92" width="5.95" height="2.43"/>
        <path class="cls-4" d="m268.96,159.85h-6.95v-3.43h6.95v3.43Zm-5.95-1h4.95v-1.43h-4.95v1.43Z"/>
      </g>
      <g>
        <circle class="cls-3" cx="256.45" cy="158.13" r="1.15"/>
        <path class="cls-4" d="m256.45,159.79c-.91,0-1.65-.74-1.65-1.65s.74-1.65,1.65-1.65,1.65.74,1.65,1.65-.74,1.65-1.65,1.65Zm0-2.31c-.36,0-.65.29-.65.65s.29.65.65.65.65-.29.65-.65-.29-.65-.65-.65Z"/>
      </g>
      <g>
        <circle class="cls-3" cx="274.51" cy="158.13" r="1.24"/>
        <path class="cls-4" d="m274.51,159.88c-.96,0-1.74-.78-1.74-1.74s.78-1.74,1.74-1.74,1.74.78,1.74,1.74-.78,1.74-1.74,1.74Zm0-2.49c-.41,0-.74.33-.74.74s.33.74.74.74.74-.33.74-.74-.33-.74-.74-.74Z"/>
      </g>
    </g>
  </g>
</svg>