<?xml version="1.0" encoding="UTF-8"?>
<svg id="Layer_1" data-name="Layer 1" xmlns="http://www.w3.org/2000/svg" width="300" height="225" viewBox="0 0 300 225">
  <defs>
    <style>
      .cls-1 {
        fill: #232323;
      }

      .cls-2 {
        fill: none;
      }
    </style>
  </defs>
  <path class="cls-1" d="m140.23,124.23c-.15.04-.31.06-.47.05l-16.48-.29.05-4.85,16.48.29c.51,0,1,.21,1.36.58.36.37.56.85.55,1.37v1c-.02.9-.65,1.65-1.48,1.85Zm-16.93-2.7h0s0,0,0,0Z"/>
  <path class="cls-1" d="m73.53,119.2c.15-.04.31-.06.47-.05l16.48.29-.05,4.85-16.48-.29c-.51,0-1-.21-1.36-.58-.36-.37-.56-.85-.55-1.37v-1c.02-.9.65-1.65,1.48-1.85Zm16.93,2.7h0s0,0,0,0Z"/>
  <path class="cls-1" d="m158.89,131.39h-23.59c-2.63,0-4.78-2.14-4.78-4.78v-9.8c0-2.63,2.14-4.78,4.78-4.78h23.59c2.63,0,4.78,2.14,4.78,4.78v9.8c0,2.63-2.14,4.78-4.78,4.78Zm-23.59-15.24c-.37,0-.67.3-.67.67v9.8c0,.37.3.67.67.67h23.59c.37,0,.67-.3.67-.67v-9.8c0-.37-.3-.67-.67-.67h-23.59Z"/>
  <path class="cls-1" d="m116.63,103.2h-19.98c-4.7,0-8.53,3.83-8.53,8.53v19.97c0,4.7,3.83,8.53,8.53,8.53h19.98c4.7,0,8.53-3.83,8.53-8.53v-19.97c0-4.7-3.83-8.53-8.53-8.53Zm-2.37,28.77h-15.24c-1.24,0-2.24-1-2.24-2.24s1-2.24,2.24-2.24h15.24c1.24,0,2.24,1,2.24,2.24s-1,2.24-2.24,2.24Zm0-8.01h-15.24c-1.24,0-2.24-1-2.24-2.24s1-2.24,2.24-2.24h15.24c1.24,0,2.24,1,2.24,2.24s-1,2.24-2.24,2.24Zm0-8.01h-15.24c-1.24,0-2.24-1-2.24-2.24s1-2.24,2.24-2.24h15.24c1.24,0,2.24,1,2.24,2.24s-1,2.24-2.24,2.24Z"/>
  <path class="cls-1" d="m58.12,124.23c-.15.04-.31.06-.47.05l-16.48-.29.05-4.85,16.48.29c.51,0,1,.21,1.36.58.36.37.56.85.55,1.37v1c-.02.9-.65,1.65-1.48,1.85Zm-16.93-2.7h0s0,0,0,0Z"/>
  <path class="cls-1" d="m76.79,131.39h-23.59c-2.63,0-4.78-2.14-4.78-4.78v-9.8c0-2.63,2.14-4.78,4.78-4.78h23.59c2.63,0,4.78,2.14,4.78,4.78v9.8c0,2.63-2.14,4.78-4.78,4.78Zm-23.59-15.24c-.37,0-.67.3-.67.67v9.8c0,.37.3.67.67.67h23.59c.37,0,.67-.3.67-.67v-9.8c0-.37-.3-.67-.67-.67h-23.59Z"/>
  <path class="cls-1" d="m34.53,103.2H14.55c-4.7,0-8.53,3.83-8.53,8.53v19.97c0,4.7,3.83,8.53,8.53,8.53h19.98c4.7,0,8.53-3.83,8.53-8.53v-19.97c0-4.7-3.83-8.53-8.53-8.53Zm-2.37,28.77h-15.24c-1.24,0-2.24-1-2.24-2.24s1-2.24,2.24-2.24h15.24c1.24,0,2.24,1,2.24,2.24s-1,2.24-2.24,2.24Zm0-8.01h-15.24c-1.24,0-2.24-1-2.24-2.24s1-2.24,2.24-2.24h15.24c1.24,0,2.24,1,2.24,2.24s-1,2.24-2.24,2.24Zm0-8.01h-15.24c-1.24,0-2.24-1-2.24-2.24s1-2.24,2.24-2.24h15.24c1.24,0,2.24,1,2.24,2.24s-1,2.24-2.24,2.24Z"/>
  <path class="cls-1" d="m221.01,124.23c-.15.04-.31.06-.47.05l-16.48-.29.05-4.85,16.48.29c.51,0,1,.21,1.36.58.36.37.56.85.55,1.37v1c-.02.9-.65,1.65-1.48,1.85Zm-16.93-2.7h0s0,0,0,0Z"/>
  <path class="cls-1" d="m154.32,119.2c.15-.04.31-.06.47-.05l16.48.29-.05,4.85-16.48-.29c-.51,0-1-.21-1.36-.58-.36-.37-.56-.85-.55-1.37v-1c.02-.9.65-1.65,1.48-1.85Zm16.93,2.7h0s0,0,0,0Z"/>
  <path class="cls-1" d="m239.67,131.39h-23.59c-2.63,0-4.78-2.14-4.78-4.78v-9.8c0-2.63,2.14-4.78,4.78-4.78h23.59c2.63,0,4.78,2.14,4.78,4.78v9.8c0,2.63-2.14,4.78-4.78,4.78Zm-23.59-15.24c-.37,0-.67.3-.67.67v9.8c0,.37.3.67.67.67h23.59c.37,0,.67-.3.67-.67v-9.8c0-.37-.3-.67-.67-.67h-23.59Z"/>
  <g>
    <g>
      <path class="cls-1" d="m195.05,115.95h-15.24c-1.24,0-2.24-1-2.24-2.24s1-2.24,2.24-2.24h15.24c1.24,0,2.24,1,2.24,2.24s-1,2.24-2.24,2.24Z"/>
      <path class="cls-1" d="m195.05,123.96h-15.24c-1.24,0-2.24-1-2.24-2.24s1-2.24,2.24-2.24h15.24c1.24,0,2.24,1,2.24,2.24s-1,2.24-2.24,2.24Z"/>
      <path class="cls-1" d="m195.05,131.96h-15.24c-1.24,0-2.24-1-2.24-2.24s1-2.24,2.24-2.24h15.24c1.24,0,2.24,1,2.24,2.24s-1,2.24-2.24,2.24Z"/>
    </g>
    <path class="cls-1" d="m197.42,140.23h-19.98c-4.7,0-8.53-3.83-8.53-8.53v-19.97c0-4.7,3.83-8.53,8.53-8.53h19.98c4.7,0,8.53,3.83,8.53,8.53v19.97c0,4.7-3.83,8.53-8.53,8.53Zm-19.98-32.55c-2.23,0-4.05,1.82-4.05,4.05v19.97c0,2.23,1.82,4.05,4.05,4.05h19.98c2.23,0,4.05-1.82,4.05-4.05v-19.97c0-2.23-1.82-4.05-4.05-4.05h-19.98Z"/>
  </g>
  <path class="cls-1" d="m235.1,119.2c.15-.04.31-.06.47-.05l16.48.29-.05,4.85-16.48-.29c-.51,0-1-.21-1.36-.58-.36-.37-.56-.85-.55-1.37v-1c.02-.9.65-1.65,1.48-1.85Zm16.93,2.7h0s0,0,0,0Z"/>
  <g>
    <path class="cls-2" d="m285.45,107.68h-19.98c-1.12,0-2.13.45-2.86,1.19-.67.67-1.09,1.59-1.16,2.6h28.02c-.14-2.11-1.88-3.79-4.02-3.79Z"/>
    <path class="cls-2" d="m261.42,131.7c0,2.23,1.82,4.05,4.05,4.05h19.98c2.23,0,4.05-1.82,4.05-4.05v-15.75h-28.07v15.75Zm6.41-12.23h15.24c1.24,0,2.24,1,2.24,2.24s-1,2.24-2.24,2.24h-15.24c-1.24,0-2.24-1-2.24-2.24s1-2.24,2.24-2.24Zm0,8.01h15.24c1.24,0,2.24,1,2.24,2.24s-1,2.24-2.24,2.24h-15.24c-1.24,0-2.24-1-2.24-2.24s1-2.24,2.24-2.24Z"/>
    <path class="cls-1" d="m267.84,106.09h15.24c1.24,0,2.24-1,2.24-2.24s-1-2.24-2.24-2.24h-15.24c-1.24,0-2.24,1-2.24,2.24s1,2.24,2.24,2.24Z"/>
    <path class="cls-1" d="m267.84,121.39h15.24c1.24,0,2.24-1,2.24-2.24s-1-2.24-2.24-2.24h-15.24c-1.24,0-2.24,1-2.24,2.24s1,2.24,2.24,2.24Z"/>
    <path class="cls-1" d="m267.84,131.96h15.24c1.24,0,2.24-1,2.24-2.24s-1-2.24-2.24-2.24h-15.24c-1.24,0-2.24,1-2.24,2.24s1,2.24,2.24,2.24Z"/>
    <path class="cls-1" d="m257.39,105.26c-.29-.99-.2-2.1.33-3.08l9.58-17.53c1.03-1.88,3.33-2.6,5.25-1.71l2.16-3.94c-4.09-2.08-9.13-.54-11.34,3.5l-9.58,17.53c-1.16,2.13-1.32,4.54-.64,6.69.62,1.94,1.93,3.65,3.81,4.75l2.16-3.95c-.85-.54-1.46-1.35-1.72-2.27Z"/>
    <path class="cls-1" d="m289.49,131.7c0,2.23-1.82,4.05-4.05,4.05h-19.98c-2.23,0-4.05-1.82-4.05-4.05v-15.75h-4.48v15.75c0,4.7,3.83,8.53,8.53,8.53h19.98c4.7,0,8.53-3.83,8.53-8.53v-15.75h-4.48v15.75Z"/>
    <path class="cls-1" d="m261.42,111.73c0-.09.02-.17.03-.26h-4.5c0,.09-.01.17-.01.26v4.22h4.48v-4.22Z"/>
    <path class="cls-1" d="m293.96,111.47h-4.5c0,.09.03.17.03.26v4.22h4.48v-4.22c0-.09-.01-.17-.01-.26Z"/>
  </g>
</svg>