<?xml version="1.0" encoding="UTF-8"?>
<svg id="Layer_1" data-name="Layer 1" xmlns="http://www.w3.org/2000/svg" width="300" height="225" viewBox="0 0 300 225">
  <defs>
    <style>
      .cls-1 {
        fill: #fff;
      }

      .cls-2 {
        fill: #23140a;
      }

      .cls-3 {
        fill: #ff7e1c;
      }

      .cls-4 {
        fill: #dda905;
      }

      .cls-5 {
        fill: #ea651b;
      }

      .cls-6 {
        fill: #ffcf15;
      }
    </style>
  </defs>
  <g>
    <g>
      <path class="cls-5" d="m12.2,168.7c1.63,2.01,3.59,3.8,5.9,5.28,11.64,7.51,27.18,4.18,34.7-7.48,4.01-6.22,4.93-13.54,3.14-20.15-.61,4.14-2.08,8.23-4.51,11.97-8.51,13.19-25.59,17.51-39.23,10.38Z"/>
      <path class="cls-3" d="m10.62,139.27c-6.04,9.36-5.08,21.21,1.59,29.42,13.64,7.14,30.71,2.82,39.23-10.37,2.43-3.74,3.89-7.83,4.5-11.97-1.56-5.79-5.19-11.04-10.63-14.55-11.63-7.51-27.18-4.17-34.69,7.48Z"/>
    </g>
    <path class="cls-1" d="m39.33,153.16c.57.7.78,1.67.68,2.9-.17,1.49-.78,2.57-1.86,3.25-.93.56-2.32.9-4.16,1.01v2.86h-2.07v-2.83h-1.59v2.83h-2.08v-2.86h-4.07l.42-2.44h.43c.66.03,1.1.01,1.3-.05.28-.08.45-.29.5-.63v-9.14c-.08-.45-.32-.73-.72-.84-.25-.08-.79-.11-1.61-.08h-.32v-2.19l1.26.05c1.5,0,2.43-.01,2.82-.05v-3.32h2.08v3.28l1.59-.05v-3.23h2.07v3.33c1.43.14,2.52.44,3.28.92.92.56,1.43,1.41,1.51,2.52.17,1.63-.4,2.78-1.73,3.45h0c1.03.23,1.79.67,2.27,1.31h0Zm-8.97-1.82h.33c1.18.03,2.1-.04,2.74-.2,1.12-.28,1.69-.89,1.69-1.82s-.55-1.54-1.65-1.85c-.61-.17-1.52-.23-2.74-.21-.19.03-.32.05-.37.05v4.03h0Zm.37,6.53c1.44.03,2.51-.05,3.25-.22,1.31-.34,1.97-1.01,1.97-2.02s-.64-1.68-1.93-2.02c-.69-.2-1.77-.26-3.2-.21h-.46v4.46h.37Z"/>
  </g>
  <g>
    <g>
      <path class="cls-5" d="m248.78,87.92c1.64,2.02,3.6,3.81,5.9,5.29,11.64,7.52,27.18,4.18,34.7-7.48,4.01-6.21,4.93-13.54,3.14-20.15-.61,4.14-2.08,8.23-4.5,11.97-8.52,13.19-25.6,17.51-39.24,10.37Z"/>
      <path class="cls-3" d="m247.2,58.5c-6.04,9.36-5.08,21.21,1.59,29.42,13.64,7.14,30.71,2.82,39.23-10.37,2.43-3.74,3.9-7.83,4.5-11.97-1.55-5.78-5.18-11.04-10.62-14.55-11.63-7.52-27.19-4.17-34.69,7.47Z"/>
    </g>
    <path class="cls-1" d="m275.91,72.38c.57.7.78,1.67.68,2.91-.17,1.48-.78,2.57-1.85,3.24-.93.56-2.32.9-4.16,1.01v2.86h-2.08v-2.83h-1.59v2.83h-2.07v-2.86h-4.07l.42-2.44h.42c.67.03,1.1.01,1.31-.05.28-.08.45-.29.5-.63v-9.14c-.08-.45-.32-.73-.72-.84-.25-.08-.78-.11-1.6-.08h-.32v-2.19l1.25.05c1.5,0,2.43-.02,2.82-.05v-3.32h2.07v3.28l1.59-.05v-3.24h2.08v3.33c1.43.14,2.52.45,3.28.92.92.56,1.43,1.41,1.51,2.53.17,1.63-.4,2.77-1.73,3.45h0c1.03.23,1.79.67,2.27,1.31h0Zm-8.96-1.82h.33c1.18.03,2.1-.04,2.74-.2,1.12-.28,1.69-.89,1.69-1.81s-.55-1.54-1.66-1.85c-.61-.17-1.52-.24-2.74-.2-.2.02-.32.04-.37.04v4.03h0Zm.37,6.53c1.44.03,2.52-.05,3.26-.22,1.31-.33,1.96-1.01,1.96-2.02s-.64-1.68-1.93-2.02c-.69-.2-1.77-.26-3.2-.21h-.45v4.46h.37Z"/>
  </g>
  <path class="cls-1" d="m64.91,143.48c-.33,0-.64-.2-.75-.53-.15-.42.07-.87.48-1.02l3.01-1.08c.42-.15.87.07,1.02.48.15.42-.07.87-.48,1.02l-3.01,1.08c-.09.03-.18.05-.27.05Zm8.29-2.96c-.33,0-.64-.2-.75-.53-.15-.42.07-.87.48-1.02l3.01-1.08c.42-.15.87.07,1.02.48.15.42-.07.87-.48,1.02l-3.01,1.08c-.09.03-.18.05-.27.05Zm8.29-2.96c-.33,0-.64-.2-.75-.53-.15-.42.07-.87.48-1.02l3.01-1.08c.42-.15.87.07,1.02.48.15.42-.07.87-.48,1.02l-3.01,1.08c-.09.03-.18.05-.27.05Zm8.29-2.96c-.33,0-.64-.2-.75-.53-.15-.42.07-.87.48-1.02l3.01-1.08c.42-.15.87.07,1.02.48.15.42-.07.87-.48,1.02l-3.01,1.08c-.09.03-.18.05-.27.05Zm8.29-2.96c-.33,0-.64-.2-.75-.53-.15-.42.07-.87.48-1.02l3.01-1.08c.42-.15.87.07,1.02.48.15.42-.07.87-.48,1.02l-3.01,1.08c-.09.03-.18.05-.27.05Zm8.29-2.96c-.33,0-.64-.2-.75-.53-.15-.42.07-.87.48-1.02l3.01-1.08c.42-.15.87.07,1.02.48.15.42-.07.87-.48,1.02l-3.01,1.08c-.09.03-.18.05-.27.05Zm8.29-2.96c-.33,0-.64-.2-.75-.53-.15-.42.07-.87.48-1.02l3.01-1.08c.42-.15.87.07,1.02.48.15.42-.07.87-.48,1.02l-3.01,1.08c-.09.03-.18.05-.27.05Zm8.29-2.96c-.33,0-.64-.2-.75-.53-.15-.42.07-.87.48-1.02l3.01-1.08c.42-.15.87.07,1.02.48.15.42-.07.87-.48,1.02l-3.01,1.08c-.09.03-.18.05-.27.05Zm8.29-2.96c-.33,0-.64-.2-.75-.53-.15-.42.07-.87.48-1.02l3.01-1.08c.42-.15.87.07,1.02.48.15.42-.07.87-.48,1.02l-3.01,1.08c-.09.03-.18.05-.27.05Zm8.29-2.96c-.33,0-.64-.2-.75-.53-.15-.42.07-.87.48-1.02l3.01-1.08c.42-.15.87.07,1.02.48.15.42-.07.87-.48,1.02l-3.01,1.08c-.09.03-.18.05-.27.05Zm8.29-2.96c-.33,0-.64-.2-.75-.53-.15-.42.07-.87.48-1.02l3.01-1.08c.42-.15.87.07,1.02.48.15.42-.07.87-.48,1.02l-3.01,1.08c-.09.03-.18.05-.27.05Zm8.29-2.96c-.33,0-.64-.2-.75-.53-.15-.42.07-.87.48-1.02l3.01-1.08c.42-.15.87.07,1.02.48.15.42-.07.87-.48,1.02l-3.01,1.08c-.09.03-.18.05-.27.05Zm8.29-2.96c-.33,0-.64-.2-.75-.53-.15-.42.07-.87.48-1.02l3.01-1.07c.42-.15.87.07,1.02.48.15.42-.07.87-.48,1.02l-3.01,1.07c-.09.03-.18.05-.27.05Zm8.29-2.96c-.33,0-.64-.2-.75-.53-.15-.42.07-.87.48-1.02l3.01-1.08c.42-.15.87.07,1.02.48.15.42-.07.87-.48,1.02l-3.01,1.08c-.09.03-.18.05-.27.05Zm8.29-2.96c-.33,0-.64-.2-.75-.53-.15-.42.07-.87.48-1.02l3.01-1.08c.42-.15.87.07,1.02.48.15.42-.07.87-.48,1.02l-3.01,1.08c-.09.03-.18.05-.27.05Zm8.29-2.96c-.33,0-.64-.2-.75-.53-.15-.42.07-.87.48-1.02l3.01-1.08c.42-.15.87.07,1.02.48.15.42-.07.87-.48,1.02l-3.01,1.08c-.09.03-.18.05-.27.05Zm8.29-2.96c-.33,0-.64-.2-.75-.53-.15-.42.07-.87.48-1.02l3.01-1.08c.42-.15.87.07,1.02.48.15.42-.07.87-.48,1.02l-3.01,1.08c-.09.03-.18.05-.27.05Zm8.29-2.96c-.33,0-.64-.2-.75-.53-.15-.42.07-.87.48-1.02l3.01-1.07c.42-.15.87.07,1.02.48.15.42-.07.87-.48,1.02l-3.01,1.07c-.09.03-.18.05-.27.05Zm8.29-2.96c-.33,0-.64-.2-.75-.53-.15-.42.07-.87.48-1.02l3.01-1.08c.42-.15.87.07,1.02.48.15.42-.07.87-.48,1.02l-3.01,1.08c-.09.03-.18.05-.27.05Zm8.29-2.96c-.33,0-.64-.2-.75-.53-.15-.42.07-.87.48-1.02l3.01-1.08c.42-.15.87.07,1.02.48.15.42-.07.87-.48,1.02l-3.01,1.08c-.09.03-.18.05-.27.05Zm8.29-2.96c-.33,0-.64-.2-.75-.53-.15-.42.07-.87.48-1.02l3.01-1.08c.42-.15.87.07,1.02.48.15.42-.07.87-.48,1.02l-3.01,1.08c-.09.03-.18.05-.27.05Z"/>
  <g>
    <g>
      <g>
        <path class="cls-2" d="m161.66,108.7l-13.28,7.12c-.12.07-.27,0-.32-.12l-1.66-4.71c-.05-.13.03-.27.17-.3l15.04-3.2.17.97c.02.1-.03.19-.12.24Z"/>
        <path class="cls-2" d="m157.33,104.94l3.23,9.02c.06.17.3.2.4.05l4.86-7.13c.09-.13.02-.31-.14-.35l-8.08-1.89c-.17-.04-.33.13-.27.3Z"/>
      </g>
      <g>
        <path class="cls-2" d="m133.21,117.84l13.28-7.12c.12-.07.27,0,.32.12l1.66,4.71c.05.13-.03.27-.17.3l-15.04,3.2-.17-.97c-.02-.1.03-.19.12-.24Z"/>
        <path class="cls-2" d="m137.54,121.6l-3.23-9.02c-.06-.17-.3-.2-.4-.05l-4.86,7.13c-.09.13-.02.31.14.35l8.08,1.89c.17.04.33-.13.27-.3Z"/>
      </g>
    </g>
    <g>
      <path class="cls-2" d="m138.43,121.24c0-.16,3.13-26.24,3.17-26.42.06-.01.11.02.17.03,1.67.45,3.34.91,5.02,1.36.16.04.32.09.49.13.06.02.1.05.11.11.07.26.15.51.23.76.25.84.51,1.68.76,2.53.25.83.5,1.66.75,2.49.21.71.43,1.43.64,2.14,0,.02.01.03.02.05.01.03.03.05.07.03.04-.02.07-.04.1-.06.27-.17.54-.34.81-.51.19-.12.12-.1.32-.05,1.73.47,3.46.94,5.18,1.41.24.06.2.02.17.25-1.04,8.68-2.08,17.35-3.12,26.03,0,.06-.02.13-.02.19-.07,0-.12-.02-.17-.03-1.53-.41-3.05-.83-4.58-1.25-.3-.08-.6-.17-.91-.24-.08-.02-.13-.06-.15-.14-.12-.39-.23-.79-.35-1.18-.25-.84-.5-1.67-.76-2.51-.27-.89-.54-1.78-.81-2.68-.15-.5-.3-1.01-.45-1.51,0-.03-.02-.07-.04-.1,0-.02-.03-.02-.04-.02-.01,0-.02.01-.03.02-.14.09-.27.17-.41.26-.19.12-.37.24-.55.36-.05.04-.1.04-.16.02-.07-.02-.13-.04-.2-.06-1.69-.46-3.38-.92-5.07-1.38-.06-.02-.12-.04-.18-.05Zm9.28,5.63s.02,0,.04,0c0-.06.02-.11.03-.17.06-.47.11-.93.17-1.4.78-6.53,1.56-13.05,2.35-19.58,0-.04,0-.08.01-.12,0-.02-.03-.04-.05-.03-.02,0-.03.02-.04.03-.42.27-.84.53-1.26.8-.16.1-.32.2-.48.31-.4.25-.8.51-1.2.76-.23.15-.46.29-.69.44-.33.21-.65.42-.98.63-.04.02-.08.05-.12.07-.02,0-.03,0-.04-.02-.02-.04-.03-.07-.04-.11-.18-.6-.36-1.2-.54-1.8-.23-.78-.46-1.55-.7-2.33-.3-1.01-.61-2.02-.91-3.02-.28-.93-.56-1.86-.84-2.79-.02-.06-.04-.11-.06-.17-.03.06-.04.12-.05.17-.22,1.87-.45,3.74-.67,5.61-.61,5.11-1.23,10.23-1.84,15.34,0,.05,0,.1-.01.16,0,.03.03.05.06.03.03-.02.06-.04.09-.05.32-.2.64-.4.95-.6.38-.24.76-.47,1.13-.71.16-.1.31-.2.47-.3.38-.24.75-.48,1.13-.72.25-.16.5-.32.75-.48.09-.06.18-.11.28-.17.27.86.52,1.72.77,2.57.26.85.51,1.71.77,2.56.26.85.51,1.71.77,2.56.26.85.51,1.71.77,2.56Zm.91,2.41s.11.05.16.06c.3.08.6.16.91.25.83.23,1.67.45,2.5.68.04.01.08.04.14.01,0-.05.02-.1.02-.15.16-1.33.32-2.66.48-3.99.33-2.8.67-5.59,1-8.39.46-3.81.91-7.62,1.37-11.42,0-.03,0-.07.01-.1,0-.07,0-.07-.07-.1-.02,0-.04-.01-.07-.02-.44-.12-.88-.24-1.33-.36-.67-.18-1.34-.37-2.01-.55-.07-.02-.14-.05-.22-.04-.03.03-.03.07-.03.1-.13.92-2.86,23.83-2.86,24.02Zm-5.68-32.91s0,.07.01.1c.27.9.55,1.81.82,2.71.25.83.5,1.66.75,2.49.26.85.51,1.7.77,2.54.25.82.49,1.64.74,2.46.01.04.03.09.05.13.01.02.03.03.06.02.02,0,.04-.02.06-.03.45-.28.9-.57,1.35-.85.37-.24.74-.47,1.11-.71.03-.02.06-.04.09-.05.04-.02.05-.06.04-.1-.06-.18-.11-.37-.16-.55-.24-.79-.47-1.57-.71-2.36-.25-.84-.5-1.67-.76-2.51-.23-.75-.45-1.51-.68-2.26-.02-.06-.04-.09-.1-.1-.2-.05-.4-.11-.6-.16-.89-.24-1.79-.49-2.68-.73-.05-.01-.1-.04-.15-.02Zm-2.47,24.22c.05.05.1.05.14.07.32.09.64.17.95.26.68.19,1.36.37,2.04.56.2.05.16.05.32-.05.19-.12.38-.24.57-.37.06-.04.12-.07.18-.11.04-.02.05-.05.04-.1-.03-.08-.05-.15-.07-.23-.21-.71-.43-1.42-.64-2.13,0-.02-.01-.04-.03-.06-.01-.02-.03-.03-.06-.02-.02,0-.03.01-.05.02-.31.2-.63.39-.94.59-.7.45-1.41.89-2.11,1.34-.12.07-.23.15-.36.23Z"/>
      <path class="cls-6" d="m147.7,126.86c-.26-.85-.51-1.71-.77-2.56-.26-.85-.51-1.71-.77-2.56-.26-.85-.51-1.71-.77-2.56-.26-.85-.51-1.71-.77-2.57-.1.06-.19.11-.28.17-.25.16-.5.32-.75.48-.38.24-.75.48-1.13.72-.16.1-.31.2-.47.3-.38.24-.76.47-1.13.71-.32.2-.64.4-.95.6-.03.02-.06.04-.09.05-.03.02-.06,0-.06-.03,0-.05,0-.1.01-.16.61-5.11,1.23-10.23,1.84-15.34.22-1.87.45-3.74.67-5.61,0-.06.02-.11.05-.17.02.06.04.11.06.17.28.93.56,1.86.84,2.79.3,1.01.61,2.02.91,3.02.23.78.46,1.55.7,2.33.18.6.36,1.2.54,1.8.01.04.03.08.04.11,0,.02.03.02.04.02.04-.02.08-.04.12-.07.33-.21.65-.42.98-.63.23-.15.46-.29.69-.44.4-.25.8-.51,1.2-.76.16-.1.32-.21.48-.31.42-.27.84-.53,1.26-.8.01,0,.03-.02.04-.03.02-.01.05,0,.05.03,0,.04,0,.08-.01.12-.78,6.53-1.56,13.05-2.35,19.58-.06.47-.11.93-.17,1.4,0,.06-.02.11-.03.17-.01,0-.02,0-.04,0Z"/>
      <path class="cls-4" d="m148.61,129.27c0-.18,2.73-23.1,2.86-24.02,0-.03,0-.07.03-.1.07,0,.14.02.22.04.67.18,1.34.37,2.01.55.44.12.88.24,1.33.36.02,0,.04.01.07.02.07.02.08.03.07.1,0,.03,0,.07-.01.1-.46,3.81-.91,7.62-1.37,11.42-.33,2.8-.67,5.59-1,8.39-.16,1.33-.32,2.66-.48,3.99,0,.05-.01.1-.02.15-.05.03-.1,0-.14-.01-.83-.23-1.67-.45-2.5-.68-.3-.08-.6-.16-.91-.25-.06-.02-.11-.02-.16-.06Z"/>
      <path class="cls-4" d="m142.93,96.36c.05-.02.1.01.15.02.89.24,1.79.49,2.68.73.2.05.4.11.6.16.06.01.08.05.1.1.22.75.45,1.51.68,2.26.25.84.5,1.67.76,2.51.24.79.47,1.57.71,2.36.06.18.11.37.16.55.01.04,0,.08-.04.1-.03.02-.06.04-.09.05-.37.24-.74.47-1.11.71-.45.28-.9.57-1.35.85-.02.01-.04.02-.06.03-.02,0-.05,0-.06-.02-.02-.04-.04-.08-.05-.13-.25-.82-.49-1.64-.74-2.46-.26-.85-.51-1.7-.77-2.54-.25-.83-.5-1.66-.75-2.49-.27-.9-.55-1.81-.82-2.71,0-.03-.03-.07-.01-.1Z"/>
      <path class="cls-4" d="m140.46,120.59c.12-.08.24-.16.36-.23.7-.45,1.41-.89,2.11-1.34.31-.2.63-.39.94-.59.01,0,.03-.02.05-.02.02-.01.05,0,.06.02.01.02.02.04.03.06.21.71.43,1.42.64,2.13.02.08.04.16.07.23.02.05,0,.08-.04.1-.06.04-.12.07-.18.11-.19.12-.38.25-.57.37-.17.1-.13.1-.32.05-.68-.19-1.36-.37-2.04-.56-.32-.09-.64-.17-.95-.26-.04-.01-.09-.01-.14-.07Z"/>
    </g>
  </g>
</svg>