<?xml version="1.0" encoding="UTF-8"?>
<svg id="Layer_1" data-name="Layer 1" xmlns="http://www.w3.org/2000/svg" width="300" height="225" viewBox="0 0 300 225">
  <defs>
    <style>
      .cls-1 {
        fill: #23140a;
      }

      .cls-2 {
        fill: #dda905;
      }

      .cls-3 {
        fill: #ffcf15;
      }
    </style>
  </defs>
  <g>
    <g>
      <path class="cls-1" d="m43.85,189.9c0-.17,3.34-27.99,3.38-28.18.06-.02.12.02.18.03,1.78.48,3.57.97,5.35,1.45.17.05.35.1.52.14.07.02.1.05.12.12.08.27.16.54.25.82.27.9.54,1.8.81,2.7.27.89.53,1.77.8,2.66.23.76.46,1.53.69,2.29,0,.02.01.04.02.05.01.03.03.05.07.03.04-.02.08-.04.11-.07.29-.18.57-.37.86-.55.2-.12.13-.11.34-.05,1.84.5,3.69,1,5.53,1.5.25.07.21.03.18.26-1.11,9.26-2.22,18.51-3.33,27.77,0,.07-.02.13-.03.21-.07,0-.13-.02-.18-.03-1.63-.44-3.26-.89-4.88-1.33-.32-.09-.64-.18-.97-.26-.09-.02-.13-.07-.16-.15-.12-.42-.25-.84-.38-1.26-.27-.89-.54-1.79-.81-2.68-.29-.95-.57-1.9-.86-2.85-.16-.54-.32-1.08-.48-1.61-.01-.04-.03-.07-.04-.1,0-.02-.03-.02-.05-.02-.01,0-.02.01-.03.02-.15.09-.29.18-.44.28-.2.13-.4.25-.59.38-.06.04-.11.04-.17.02-.07-.02-.14-.04-.21-.06-1.8-.49-3.6-.98-5.4-1.47-.06-.02-.13-.04-.19-.06Zm9.9,6s.03,0,.04,0c0-.06.02-.12.03-.18.06-.5.12-.99.18-1.49.83-6.96,1.67-13.93,2.5-20.89,0-.04,0-.09.01-.13,0-.03-.03-.05-.05-.03-.02,0-.03.02-.05.03-.45.28-.9.57-1.35.85-.17.11-.34.22-.52.33-.43.27-.85.54-1.28.82-.25.16-.49.31-.74.47-.35.22-.7.45-1.05.67-.04.03-.09.05-.13.07-.02,0-.04,0-.05-.02-.02-.04-.03-.08-.05-.12-.19-.64-.39-1.28-.58-1.91-.25-.83-.49-1.66-.74-2.48-.32-1.08-.65-2.15-.98-3.23-.3-.99-.6-1.99-.89-2.98-.02-.06-.04-.12-.06-.18-.03.06-.04.12-.05.18-.24,1.99-.48,3.99-.72,5.98-.65,5.45-1.31,10.91-1.96,16.36,0,.06,0,.11-.01.17,0,.03.04.05.07.04.03-.02.06-.04.09-.06.34-.21.68-.43,1.02-.64.4-.25.81-.51,1.21-.76.17-.11.33-.21.5-.32.4-.26.8-.51,1.2-.77.27-.17.53-.34.8-.51.09-.06.19-.11.3-.18.28.92.55,1.83.83,2.74.27.91.55,1.82.82,2.73.27.91.55,1.82.82,2.73.27.91.54,1.82.82,2.73Zm.97,2.57s.11.05.17.06c.32.09.64.18.97.26.89.24,1.78.48,2.67.72.04.01.09.04.15.01,0-.05.02-.11.02-.16.17-1.42.34-2.83.51-4.25.36-2.98.71-5.96,1.07-8.95.49-4.06.97-8.12,1.46-12.19,0-.04,0-.07.01-.11,0-.07,0-.08-.08-.1-.02,0-.05-.01-.07-.02-.47-.13-.94-.25-1.41-.38-.72-.19-1.43-.39-2.15-.59-.08-.02-.15-.05-.23-.05-.03.03-.03.07-.03.11-.14.98-3.06,25.42-3.05,25.62Zm-6.06-35.1s0,.07.01.11c.29.96.58,1.93.87,2.89.27.89.53,1.77.8,2.66.27.9.55,1.81.82,2.71.26.87.53,1.75.79,2.62.01.05.03.09.06.14.01.03.04.03.06.02.02,0,.04-.02.07-.03.48-.3.96-.6,1.44-.91.4-.25.79-.5,1.19-.76.03-.02.06-.04.09-.06.04-.03.05-.06.04-.11-.06-.19-.12-.39-.18-.59-.25-.84-.51-1.68-.76-2.52-.27-.89-.54-1.79-.81-2.68-.24-.8-.48-1.61-.72-2.41-.02-.06-.05-.09-.11-.11-.22-.06-.43-.11-.64-.17-.95-.26-1.91-.52-2.86-.78-.05-.01-.1-.04-.16-.03Zm-2.63,25.84c.05.06.11.06.15.07.34.09.68.18,1.02.28.73.2,1.45.4,2.18.59.21.06.17.06.34-.05.2-.13.41-.26.61-.39.06-.04.12-.08.19-.12.04-.03.06-.06.04-.11-.03-.08-.05-.17-.08-.25-.23-.76-.45-1.51-.68-2.27,0-.02-.02-.05-.03-.07-.01-.02-.04-.03-.06-.02-.02,0-.03.02-.05.03-.33.21-.67.42-1,.63-.75.48-1.5.95-2.25,1.43-.12.08-.25.16-.38.25Z"/>
      <path class="cls-3" d="m53.75,195.9c-.28-.91-.55-1.82-.82-2.73-.28-.91-.55-1.82-.82-2.73-.27-.91-.55-1.82-.82-2.73-.27-.91-.54-1.82-.83-2.74-.11.07-.2.12-.3.18-.27.17-.53.34-.8.51-.4.26-.8.51-1.2.77-.17.11-.33.21-.5.32-.4.25-.81.51-1.21.76-.34.21-.68.43-1.02.64-.03.02-.06.04-.09.06-.03.02-.07,0-.07-.04,0-.06,0-.11.01-.17.65-5.45,1.31-10.91,1.96-16.36.24-1.99.48-3.99.72-5.98,0-.06.02-.12.05-.18.02.06.05.12.06.18.3.99.59,1.99.89,2.98.32,1.08.65,2.15.98,3.23.25.83.5,1.66.74,2.48.19.64.39,1.28.58,1.91.01.04.03.08.05.12,0,.02.03.03.05.02.04-.02.09-.05.13-.07.35-.22.7-.44,1.05-.67.25-.16.49-.31.74-.47.43-.27.86-.54,1.28-.82.17-.11.34-.22.52-.33.45-.28.9-.57,1.35-.85.02,0,.03-.02.05-.03.02-.01.05,0,.05.03,0,.04,0,.09-.01.13-.83,6.96-1.67,13.93-2.5,20.89-.06.5-.12.99-.18,1.49,0,.06-.02.12-.03.18-.01,0-.03,0-.04,0Z"/>
      <path class="cls-2" d="m54.72,198.47c0-.2,2.91-24.64,3.05-25.62,0-.04,0-.07.03-.11.08,0,.15.03.23.05.72.19,1.43.39,2.15.59.47.13.94.26,1.41.38.02,0,.05.01.07.02.07.02.08.03.08.1,0,.04,0,.07-.01.11-.49,4.06-.97,8.12-1.46,12.19-.36,2.98-.71,5.96-1.07,8.95-.17,1.42-.34,2.83-.51,4.25,0,.05-.02.11-.02.16-.06.03-.1,0-.15-.01-.89-.24-1.78-.48-2.67-.72-.32-.09-.64-.17-.97-.26-.06-.02-.12-.02-.17-.06Z"/>
      <path class="cls-2" d="m48.66,163.37c.06-.02.11.01.16.03.95.26,1.91.52,2.86.78.21.06.43.12.64.17.06.02.09.05.11.11.24.8.48,1.61.72,2.41.27.89.54,1.79.81,2.68.25.84.51,1.68.76,2.52.06.2.12.39.18.59.01.05,0,.08-.04.11-.03.02-.06.04-.09.06-.4.25-.79.51-1.19.76-.48.3-.96.61-1.44.91-.02.01-.04.03-.07.03-.03.01-.05,0-.06-.02-.02-.04-.04-.09-.06-.14-.26-.87-.53-1.75-.79-2.62-.27-.9-.55-1.81-.82-2.71-.27-.89-.53-1.77-.8-2.66-.29-.96-.58-1.93-.87-2.89-.01-.04-.03-.07-.01-.11Z"/>
      <path class="cls-2" d="m46.02,189.21c.13-.09.26-.17.38-.25.75-.48,1.5-.95,2.25-1.43.33-.21.67-.42,1-.63.02,0,.03-.02.05-.03.03-.01.05,0,.06.02.01.02.02.04.03.07.23.76.45,1.51.68,2.27.02.08.05.17.08.25.02.05,0,.08-.04.11-.06.04-.13.08-.19.12-.2.13-.4.26-.61.39-.18.11-.13.11-.34.05-.73-.2-1.45-.4-2.18-.59-.34-.09-.68-.18-1.02-.28-.05-.01-.1-.01-.15-.07Z"/>
    </g>
    <g>
      <path class="cls-1" d="m79.67,172.75c0-.28,5.35-44.92,5.42-45.23.1-.02.19.03.29.05,2.86.78,5.72,1.56,8.59,2.33.28.08.55.15.83.22.11.03.16.08.2.19.13.44.26.87.39,1.31.43,1.44.87,2.88,1.3,4.33.43,1.42.86,2.85,1.29,4.27.37,1.22.73,2.45,1.1,3.67,0,.03.02.06.03.08.02.05.05.08.11.05.06-.03.12-.07.18-.11.46-.29.92-.59,1.38-.88.32-.2.2-.18.55-.08,2.96.8,5.92,1.61,8.87,2.41.41.11.34.04.3.42-1.78,14.86-3.56,29.72-5.34,44.57-.01.11-.03.21-.04.33-.11.01-.2-.03-.29-.05-2.61-.71-5.23-1.42-7.84-2.13-.52-.14-1.03-.29-1.55-.42-.14-.04-.22-.11-.26-.25-.2-.68-.4-1.35-.6-2.02-.43-1.43-.86-2.87-1.3-4.3-.46-1.53-.92-3.05-1.38-4.58-.26-.86-.52-1.73-.78-2.59-.02-.06-.04-.11-.06-.17-.01-.03-.04-.04-.07-.03-.02,0-.04.02-.05.03-.23.15-.47.3-.7.45-.32.2-.64.4-.95.61-.09.06-.18.07-.28.04-.11-.04-.23-.06-.34-.09-2.89-.79-5.78-1.57-8.67-2.36-.1-.03-.21-.06-.31-.09Zm15.89,9.63s.04,0,.06-.01c.01-.1.03-.19.04-.29.1-.8.19-1.6.29-2.39,1.34-11.18,2.68-22.35,4.02-33.53,0-.07.02-.14.02-.21,0-.04-.04-.07-.08-.06-.03.01-.05.03-.08.05-.72.46-1.44.91-2.16,1.37-.28.18-.55.35-.83.53-.69.44-1.37.87-2.06,1.31-.39.25-.79.5-1.18.75-.56.36-1.12.71-1.68,1.07-.07.04-.14.08-.21.11-.03.01-.06,0-.07-.03-.03-.06-.05-.13-.07-.19-.31-1.02-.62-2.05-.93-3.07-.4-1.33-.79-2.66-1.19-3.99-.52-1.73-1.05-3.45-1.57-5.18-.48-1.59-.96-3.19-1.43-4.78-.03-.1-.07-.19-.1-.28-.05.1-.07.2-.08.29-.38,3.2-.77,6.4-1.15,9.6-1.05,8.75-2.1,17.51-3.15,26.26-.01.09-.02.18-.02.27,0,.05.06.08.1.06.05-.03.1-.06.15-.09.54-.34,1.09-.69,1.63-1.03.65-.41,1.29-.81,1.94-1.22.27-.17.54-.34.8-.51.64-.41,1.29-.82,1.93-1.23.43-.27.85-.54,1.28-.81.15-.09.3-.18.48-.29.45,1.48.89,2.94,1.33,4.4.44,1.46.88,2.92,1.32,4.38.44,1.46.88,2.92,1.32,4.38.44,1.46.87,2.92,1.32,4.38Zm1.55,4.12c.08.07.18.08.28.1.52.14,1.03.28,1.55.42,1.43.39,2.85.78,4.28,1.16.07.02.14.07.23.02.01-.09.03-.17.04-.26.27-2.27.55-4.55.82-6.82.57-4.79,1.14-9.57,1.72-14.36.78-6.52,1.56-13.04,2.34-19.56,0-.06.02-.12.02-.18,0-.11,0-.13-.12-.17-.04-.01-.08-.02-.11-.03-.76-.2-1.51-.41-2.27-.61-1.15-.31-2.3-.63-3.45-.94-.12-.03-.25-.08-.37-.07-.05.05-.05.11-.05.17-.23,1.57-4.91,40.81-4.9,41.13Zm-9.72-56.34c-.03.06,0,.12.02.17.47,1.55.93,3.09,1.4,4.64.43,1.42.86,2.85,1.28,4.27.44,1.45.88,2.9,1.31,4.35.42,1.4.84,2.81,1.27,4.21.02.08.06.15.09.22.02.04.06.05.1.03.04-.02.07-.03.1-.06.77-.49,1.55-.97,2.32-1.46.64-.4,1.27-.81,1.91-1.21.05-.03.1-.06.15-.09.07-.04.08-.1.06-.18-.1-.31-.19-.63-.28-.94-.41-1.35-.81-2.69-1.22-4.04-.43-1.43-.86-2.87-1.29-4.3-.39-1.29-.78-2.58-1.16-3.87-.03-.1-.07-.15-.17-.18-.35-.09-.69-.18-1.03-.28-1.53-.42-3.06-.84-4.59-1.25-.08-.02-.16-.07-.26-.04Zm-4.23,41.48c.09.09.17.09.25.11.54.15,1.09.3,1.63.45,1.17.32,2.33.64,3.5.95.34.09.27.09.55-.08.33-.2.65-.42.98-.63.1-.06.2-.13.3-.19.07-.04.09-.09.07-.17-.04-.13-.08-.27-.12-.4-.36-1.21-.73-2.43-1.09-3.64-.01-.04-.03-.07-.04-.11-.02-.04-.06-.05-.1-.03-.03.01-.05.03-.08.04-.54.34-1.07.67-1.61,1.01-1.21.76-2.41,1.53-3.61,2.29-.2.13-.4.26-.61.4Z"/>
      <path class="cls-3" d="m95.56,182.38c-.45-1.46-.88-2.92-1.32-4.38-.44-1.46-.88-2.92-1.32-4.38-.44-1.46-.88-2.92-1.32-4.38-.44-1.46-.87-2.92-1.33-4.4-.17.11-.33.19-.48.29-.43.27-.85.54-1.28.81-.64.41-1.29.82-1.93,1.23-.27.17-.53.34-.8.51-.65.41-1.29.81-1.94,1.22-.55.34-1.09.69-1.63,1.03-.05.03-.1.06-.15.09-.05.03-.11,0-.1-.06,0-.09,0-.18.02-.27,1.05-8.75,2.1-17.51,3.15-26.26.38-3.2.77-6.4,1.15-9.6.01-.1.03-.19.08-.29.03.09.07.19.1.28.48,1.59.95,3.19,1.43,4.78.52,1.73,1.05,3.45,1.57,5.18.4,1.33.79,2.66,1.19,3.99.31,1.02.62,2.05.93,3.07.02.07.05.13.07.19.01.03.05.04.07.03.07-.03.14-.07.21-.11.56-.36,1.12-.71,1.68-1.07.39-.25.79-.5,1.18-.75.69-.44,1.37-.87,2.06-1.31.28-.18.55-.35.83-.53.72-.46,1.44-.91,2.16-1.37.03-.02.05-.03.08-.05.03-.02.08.01.08.06,0,.07-.01.14-.02.21-1.34,11.18-2.68,22.35-4.02,33.53-.1.8-.19,1.6-.29,2.39-.01.1-.03.19-.04.29-.02,0-.04,0-.06.01Z"/>
      <path class="cls-2" d="m97.11,186.5c0-.32,4.68-39.55,4.9-41.13,0-.06,0-.12.05-.17.13,0,.25.04.37.07,1.15.31,2.3.63,3.45.94.76.21,1.51.41,2.27.61.04.01.08.02.11.03.12.04.13.05.12.17,0,.06-.01.12-.02.18-.78,6.52-1.56,13.04-2.34,19.56-.57,4.79-1.15,9.57-1.72,14.36-.27,2.27-.55,4.55-.82,6.82-.01.09-.03.17-.04.26-.09.05-.16,0-.23-.02-1.43-.39-2.85-.77-4.28-1.16-.52-.14-1.03-.28-1.55-.42-.09-.03-.2-.04-.28-.1Z"/>
      <path class="cls-2" d="m87.39,130.16c.09-.03.17.02.26.04,1.53.42,3.06.84,4.59,1.25.34.09.69.19,1.03.28.1.03.14.08.17.18.39,1.29.77,2.58,1.16,3.87.43,1.43.86,2.87,1.29,4.3.41,1.35.81,2.69,1.22,4.04.09.31.19.63.28.94.02.08,0,.14-.06.18-.05.03-.1.06-.15.09-.64.4-1.27.81-1.91,1.21-.77.49-1.54.97-2.32,1.46-.03.02-.07.04-.1.06-.04.02-.08,0-.1-.03-.03-.07-.07-.14-.09-.22-.42-1.4-.84-2.81-1.27-4.21-.44-1.45-.88-2.9-1.31-4.35-.43-1.42-.86-2.85-1.28-4.27-.47-1.55-.93-3.09-1.4-4.64-.02-.06-.05-.11-.02-.17Z"/>
      <path class="cls-2" d="m83.16,171.64c.21-.14.41-.27.61-.4,1.2-.76,2.41-1.53,3.61-2.29.54-.34,1.07-.67,1.61-1.01.02-.02.05-.03.08-.04.04-.02.08,0,.1.03.02.03.03.07.04.11.36,1.21.73,2.43,1.09,3.64.04.13.08.27.12.4.03.08,0,.13-.07.17-.1.06-.2.13-.3.19-.32.21-.65.42-.98.63-.28.17-.21.17-.55.08-1.17-.32-2.33-.64-3.5-.95-.54-.15-1.09-.3-1.63-.45-.07-.02-.16-.02-.25-.11Z"/>
    </g>
    <g>
      <path class="cls-1" d="m192,132.7c0-.72,13.75-115.41,13.93-116.19.26-.06.5.07.74.13,7.35,2,14.71,4,22.06,6,.71.19,1.42.39,2.14.57.28.07.42.21.5.49.32,1.12.67,2.24,1.01,3.36,1.12,3.7,2.23,7.41,3.35,11.11,1.1,3.66,2.2,7.31,3.3,10.97.95,3.14,1.89,6.29,2.83,9.43.02.07.05.15.08.22.05.14.14.21.29.13.16-.09.31-.18.46-.27,1.18-.75,2.36-1.52,3.55-2.25.83-.51.53-.45,1.4-.22,7.6,2.06,15.2,4.13,22.8,6.2,1.04.28.88.1.76,1.08-4.57,38.17-9.14,76.33-13.71,114.5-.03.28-.07.55-.11.85-.29.03-.52-.07-.76-.13-6.71-1.82-13.43-3.65-20.14-5.48-1.33-.36-2.65-.74-3.99-1.08-.37-.09-.55-.28-.66-.63-.51-1.73-1.03-3.46-1.55-5.19-1.11-3.68-2.22-7.36-3.33-11.04-1.18-3.92-2.37-7.85-3.55-11.77-.67-2.22-1.33-4.44-2-6.66-.04-.15-.1-.29-.17-.43-.04-.08-.11-.09-.19-.07-.05.01-.09.05-.13.07-.6.38-1.21.76-1.81,1.15-.82.52-1.63,1.04-2.44,1.58-.24.16-.46.18-.72.1-.29-.09-.59-.16-.88-.24-7.43-2.02-14.85-4.04-22.28-6.06-.27-.07-.53-.15-.79-.23Zm40.81,24.75c.05-.01.1-.02.16-.04.04-.25.08-.49.11-.74.25-2.05.49-4.1.73-6.15,3.44-28.71,6.88-57.42,10.32-86.13.02-.18.04-.35.05-.53,0-.11-.11-.19-.2-.14-.07.04-.13.08-.2.12-1.85,1.17-3.7,2.35-5.55,3.52-.71.45-1.42.9-2.13,1.35-1.76,1.12-3.53,2.24-5.29,3.36-1.01.64-2.02,1.28-3.03,1.93-1.44.92-2.88,1.84-4.32,2.75-.17.11-.35.21-.53.3-.07.03-.15,0-.19-.07-.07-.16-.14-.33-.19-.5-.8-2.63-1.59-5.26-2.39-7.9-1.03-3.41-2.04-6.83-3.07-10.24-1.34-4.44-2.69-8.87-4.02-13.3-1.23-4.1-2.46-8.19-3.69-12.29-.07-.25-.17-.49-.26-.73-.13.26-.18.51-.21.75-.98,8.22-1.97,16.44-2.95,24.66-2.7,22.49-5.39,44.98-8.09,67.46-.03.23-.04.46-.05.68,0,.13.15.21.27.15.13-.07.26-.16.39-.24,1.4-.89,2.8-1.78,4.2-2.66,1.66-1.05,3.32-2.09,4.98-3.13.69-.43,1.38-.87,2.06-1.31,1.65-1.05,3.31-2.11,4.96-3.16,1.1-.7,2.19-1.4,3.29-2.09.39-.24.78-.47,1.23-.74,1.17,3.8,2.28,7.55,3.41,11.3,1.13,3.75,2.26,7.51,3.39,11.26,1.13,3.75,2.26,7.51,3.4,11.26,1.13,3.75,2.24,7.5,3.39,11.25Zm3.98,10.59c.2.17.46.2.71.26,1.33.36,2.66.72,3.98,1.08,3.66,1,7.33,1.99,10.99,2.99.18.05.37.18.6.06.03-.22.07-.45.1-.67.7-5.84,1.4-11.69,2.1-17.53,1.47-12.3,2.94-24.59,4.41-36.89,2.01-16.75,4.02-33.5,6.02-50.24.02-.15.04-.3.05-.46.02-.29,0-.33-.31-.42-.1-.03-.2-.06-.29-.08-1.94-.53-3.89-1.05-5.83-1.58-2.95-.8-5.9-1.61-8.85-2.42-.32-.09-.63-.2-.95-.19-.12.14-.12.29-.14.44-.58,4.04-12.6,104.83-12.59,105.65Zm-24.97-144.74c-.07.16,0,.3.04.45,1.2,3.97,2.4,7.94,3.6,11.91,1.1,3.66,2.2,7.31,3.3,10.97,1.12,3.73,2.25,7.46,3.37,11.19,1.09,3.61,2.17,7.22,3.25,10.82.06.19.14.38.23.56.05.11.15.13.26.08.09-.04.18-.09.27-.14,1.98-1.25,3.97-2.49,5.95-3.74,1.64-1.03,3.27-2.08,4.9-3.12.13-.08.26-.16.39-.24.18-.11.22-.26.16-.46-.24-.8-.48-1.61-.72-2.41-1.04-3.46-2.08-6.92-3.13-10.38-1.11-3.68-2.22-7.36-3.32-11.04-1-3.31-2-6.63-2.99-9.95-.07-.25-.19-.39-.44-.45-.89-.23-1.77-.47-2.66-.71-3.93-1.07-7.86-2.15-11.8-3.22-.21-.06-.42-.18-.66-.11Zm-10.86,106.55c.23.23.44.23.63.29,1.4.38,2.8.76,4.2,1.14,3,.82,5.99,1.64,8.99,2.45.86.24.68.24,1.41-.21.84-.52,1.67-1.07,2.51-1.61.26-.17.51-.33.77-.49.17-.11.24-.24.17-.45-.11-.34-.21-.68-.31-1.02-.94-3.12-1.87-6.23-2.81-9.35-.03-.1-.07-.19-.11-.28-.05-.1-.15-.13-.26-.09-.07.03-.14.07-.2.11-1.38.87-2.76,1.73-4.14,2.6-3.1,1.96-6.19,3.93-9.28,5.89-.51.33-1.02.66-1.57,1.01Z"/>
      <path class="cls-3" d="m232.81,157.45c-1.15-3.74-2.26-7.5-3.39-11.25-1.13-3.75-2.26-7.51-3.4-11.26-1.13-3.75-2.26-7.51-3.39-11.26-1.13-3.75-2.24-7.5-3.41-11.3-.45.27-.84.5-1.23.74-1.1.69-2.19,1.39-3.29,2.09-1.65,1.05-3.31,2.11-4.96,3.16-.69.44-1.37.88-2.06,1.31-1.66,1.05-3.32,2.09-4.98,3.13-1.4.88-2.8,1.77-4.2,2.66-.13.08-.26.17-.39.24-.12.07-.27-.02-.27-.15,0-.23.02-.46.05-.68,2.7-22.49,5.39-44.98,8.09-67.46.99-8.22,1.97-16.44,2.95-24.66.03-.25.07-.49.21-.75.09.24.19.48.26.73,1.23,4.1,2.45,8.19,3.69,12.29,1.34,4.44,2.69,8.87,4.02,13.3,1.03,3.41,2.04,6.83,3.07,10.24.79,2.63,1.59,5.26,2.39,7.9.05.17.12.33.19.5.03.08.12.11.19.07.18-.09.36-.19.53-.3,1.44-.92,2.88-1.83,4.32-2.75,1.01-.64,2.02-1.28,3.03-1.93,1.76-1.12,3.53-2.24,5.29-3.36.71-.45,1.42-.9,2.13-1.35,1.85-1.17,3.7-2.35,5.55-3.52.06-.04.13-.08.2-.12.09-.05.21.04.2.14-.01.18-.03.35-.05.53-3.44,28.71-6.88,57.42-10.32,86.13-.25,2.05-.49,4.1-.73,6.15-.03.25-.07.49-.11.74-.05.01-.1.02-.16.04Z"/>
      <path class="cls-2" d="m236.79,168.03c0-.81,12.01-101.6,12.59-105.65.02-.15.02-.3.14-.44.32-.01.64.11.95.19,2.95.8,5.9,1.61,8.85,2.42,1.94.53,3.89,1.05,5.83,1.58.1.03.2.05.29.08.3.1.33.13.31.42-.01.15-.03.3-.05.46-2.01,16.75-4.02,33.5-6.02,50.24-1.47,12.3-2.94,24.59-4.41,36.89-.7,5.84-1.4,11.69-2.1,17.53-.03.22-.07.45-.1.67-.23.12-.42,0-.6-.06-3.67-.99-7.33-1.99-10.99-2.99-1.33-.36-2.66-.72-3.98-1.08-.24-.07-.5-.09-.71-.26Z"/>
      <path class="cls-2" d="m211.82,23.29c.24-.07.44.05.66.11,3.93,1.07,7.87,2.15,11.8,3.22.88.24,1.77.48,2.66.71.25.07.37.2.44.45.99,3.32,1.99,6.63,2.99,9.95,1.11,3.68,2.22,7.36,3.32,11.04,1.04,3.46,2.08,6.92,3.13,10.38.24.8.48,1.61.72,2.41.06.2.02.35-.16.46-.13.08-.26.16-.39.24-1.63,1.04-3.26,2.08-4.9,3.12-1.98,1.25-3.97,2.5-5.95,3.74-.09.05-.18.1-.27.14-.1.04-.21.02-.26-.08-.09-.18-.17-.37-.23-.56-1.09-3.61-2.17-7.21-3.25-10.82-1.12-3.73-2.25-7.46-3.37-11.19-1.1-3.66-2.2-7.31-3.3-10.97-1.2-3.97-2.4-7.94-3.6-11.91-.04-.14-.12-.29-.04-.45Z"/>
      <path class="cls-2" d="m200.95,129.84c.54-.35,1.05-.69,1.57-1.01,3.09-1.96,6.19-3.93,9.28-5.89,1.38-.87,2.76-1.73,4.14-2.6.06-.04.13-.08.2-.11.11-.05.2-.01.26.09.05.09.08.18.11.28.94,3.12,1.87,6.23,2.81,9.35.1.34.2.68.31,1.02.07.21,0,.34-.17.45-.26.16-.52.32-.77.49-.83.54-1.66,1.09-2.51,1.61-.73.45-.55.45-1.41.21-2.99-.82-5.99-1.64-8.99-2.45-1.4-.38-2.8-.76-4.2-1.14-.19-.05-.4-.06-.63-.29Z"/>
    </g>
    <g>
      <path class="cls-1" d="m22,201.17c0-.09,1.69-14.2,1.71-14.3.03,0,.06,0,.09.02.9.25,1.81.49,2.71.74.09.02.18.05.26.07.03,0,.05.03.06.06.04.14.08.28.12.41.14.46.27.91.41,1.37.14.45.27.9.41,1.35.12.39.23.77.35,1.16,0,0,0,.02,0,.03,0,.02.02.03.04.02.02-.01.04-.02.06-.03.15-.09.29-.19.44-.28.1-.06.06-.06.17-.03.94.25,1.87.51,2.81.76.13.03.11.01.09.13-.56,4.7-1.12,9.39-1.69,14.09,0,.03,0,.07-.01.11-.04,0-.06,0-.09-.02-.83-.22-1.65-.45-2.48-.67-.16-.04-.33-.09-.49-.13-.05-.01-.07-.03-.08-.08-.06-.21-.13-.43-.19-.64-.14-.45-.27-.91-.41-1.36-.15-.48-.29-.97-.44-1.45-.08-.27-.16-.55-.25-.82,0-.02-.01-.04-.02-.05,0-.01-.01-.01-.02,0,0,0-.01,0-.02,0-.07.05-.15.09-.22.14-.1.06-.2.13-.3.19-.03.02-.06.02-.09.01-.04-.01-.07-.02-.11-.03-.91-.25-1.83-.5-2.74-.75-.03,0-.07-.02-.1-.03Zm5.02,3.05s.01,0,.02,0c0-.03,0-.06.01-.09.03-.25.06-.5.09-.76.42-3.53.85-7.07,1.27-10.6,0-.02,0-.04,0-.07,0-.01-.01-.02-.03-.02,0,0-.02,0-.02.01-.23.14-.46.29-.68.43-.09.06-.17.11-.26.17-.22.14-.43.28-.65.41-.12.08-.25.16-.37.24-.18.11-.35.23-.53.34-.02.01-.04.03-.07.04,0,0-.02,0-.02,0,0-.02-.02-.04-.02-.06-.1-.32-.2-.65-.29-.97-.13-.42-.25-.84-.38-1.26-.16-.55-.33-1.09-.5-1.64-.15-.5-.3-1.01-.45-1.51,0-.03-.02-.06-.03-.09-.02.03-.02.06-.03.09-.12,1.01-.24,2.02-.36,3.04-.33,2.77-.66,5.53-1,8.3,0,.03,0,.06,0,.08,0,.02.02.03.03.02.02,0,.03-.02.05-.03.17-.11.34-.22.52-.33.2-.13.41-.26.61-.39.08-.05.17-.11.25-.16.2-.13.41-.26.61-.39.13-.09.27-.17.4-.26.05-.03.1-.06.15-.09.14.47.28.93.42,1.39.14.46.28.92.42,1.39.14.46.28.92.42,1.39.14.46.28.92.42,1.38Zm.49,1.3s.06.02.09.03c.16.04.33.09.49.13.45.12.9.25,1.35.37.02,0,.05.02.07,0,0-.03,0-.06.01-.08.09-.72.17-1.44.26-2.16.18-1.51.36-3.03.54-4.54.25-2.06.49-4.12.74-6.18,0-.02,0-.04,0-.06,0-.04,0-.04-.04-.05-.01,0-.02,0-.04-.01-.24-.06-.48-.13-.72-.19-.36-.1-.73-.2-1.09-.3-.04-.01-.08-.03-.12-.02-.02.02-.01.04-.02.05-.07.5-1.55,12.9-1.55,13Zm-3.07-17.81s0,.04,0,.06c.15.49.3.98.44,1.47.14.45.27.9.41,1.35.14.46.28.92.41,1.38.13.44.27.89.4,1.33,0,.02.02.05.03.07,0,.01.02.02.03.01.01,0,.02-.01.03-.02.24-.15.49-.31.73-.46.2-.13.4-.26.6-.38.02-.01.03-.02.05-.03.02-.01.03-.03.02-.06-.03-.1-.06-.2-.09-.3-.13-.43-.26-.85-.38-1.28-.14-.45-.27-.91-.41-1.36-.12-.41-.25-.82-.37-1.22,0-.03-.02-.05-.05-.06-.11-.03-.22-.06-.33-.09-.48-.13-.97-.26-1.45-.4-.03,0-.05-.02-.08-.01Zm-1.34,13.11s.05.03.08.04c.17.05.34.09.52.14.37.1.74.2,1.11.3.11.03.08.03.17-.03.1-.06.21-.13.31-.2.03-.02.06-.04.1-.06.02-.01.03-.03.02-.05-.01-.04-.03-.08-.04-.13-.12-.38-.23-.77-.35-1.15,0-.01,0-.02-.01-.03,0-.01-.02-.02-.03-.01,0,0-.02,0-.02.01-.17.11-.34.21-.51.32-.38.24-.76.48-1.14.72-.06.04-.13.08-.19.12Z"/>
      <path class="cls-3" d="m27.03,204.22c-.14-.46-.28-.92-.42-1.38-.14-.46-.28-.92-.42-1.39-.14-.46-.28-.92-.42-1.39-.14-.46-.28-.92-.42-1.39-.06.03-.1.06-.15.09-.14.09-.27.17-.4.26-.2.13-.41.26-.61.39-.08.05-.17.11-.25.16-.2.13-.41.26-.61.39-.17.11-.34.22-.52.33-.02.01-.03.02-.05.03-.01,0-.03,0-.03-.02,0-.03,0-.06,0-.08.33-2.77.66-5.53,1-8.3.12-1.01.24-2.02.36-3.04,0-.03,0-.06.03-.09.01.03.02.06.03.09.15.5.3,1.01.45,1.51.16.55.33,1.09.5,1.64.13.42.25.84.38,1.26.1.32.2.65.29.97,0,.02.02.04.02.06,0,.01.01.01.02,0,.02-.01.04-.02.07-.04.18-.11.35-.23.53-.34.12-.08.25-.16.37-.24.22-.14.43-.28.65-.41.09-.06.17-.11.26-.17.23-.14.46-.29.68-.43,0,0,.02,0,.02-.01.01,0,.03,0,.03.02,0,.02,0,.04,0,.07-.42,3.53-.85,7.07-1.27,10.6-.03.25-.06.5-.09.76,0,.03,0,.06-.01.09,0,0-.01,0-.02,0Z"/>
      <path class="cls-2" d="m27.52,205.52c0-.1,1.48-12.5,1.55-13,0-.02,0-.04.02-.05.04,0,.08.01.12.02.36.1.73.2,1.09.3.24.07.48.13.72.19.01,0,.02,0,.04.01.04.01.04.02.04.05,0,.02,0,.04,0,.06-.25,2.06-.49,4.12-.74,6.18-.18,1.51-.36,3.03-.54,4.54-.09.72-.17,1.44-.26,2.16,0,.03,0,.06-.01.08-.03.01-.05,0-.07,0-.45-.12-.9-.24-1.35-.37-.16-.04-.33-.09-.49-.13-.03,0-.06-.01-.09-.03Z"/>
      <path class="cls-2" d="m24.44,187.71s.05,0,.08.01c.48.13.97.26,1.45.4.11.03.22.06.33.09.03,0,.05.03.05.06.12.41.24.82.37,1.22.14.45.27.91.41,1.36.13.43.26.85.38,1.28.03.1.06.2.09.3,0,.02,0,.04-.02.06-.02,0-.03.02-.05.03-.2.13-.4.26-.6.38-.24.15-.49.31-.73.46-.01,0-.02.01-.03.02-.01,0-.03,0-.03-.01-.01-.02-.02-.05-.03-.07-.13-.44-.27-.89-.4-1.33-.14-.46-.28-.92-.41-1.38-.14-.45-.27-.9-.41-1.35-.15-.49-.3-.98-.44-1.47,0-.02-.01-.04,0-.06Z"/>
      <path class="cls-2" d="m23.11,200.82c.07-.04.13-.08.19-.12.38-.24.76-.48,1.14-.72.17-.11.34-.21.51-.32,0,0,.02,0,.02-.01.01,0,.02,0,.03.01,0,.01.01.02.01.03.12.38.23.77.35,1.15.01.04.02.08.04.13,0,.03,0,.04-.02.05-.03.02-.06.04-.1.06-.1.07-.2.13-.31.2-.09.06-.07.06-.17.03-.37-.1-.74-.2-1.11-.3-.17-.05-.34-.09-.52-.14-.02,0-.05,0-.08-.04Z"/>
    </g>
    <g>
      <path class="cls-1" d="m125.01,159.35c0-.42,7.95-66.67,8.05-67.13.15-.04.29.04.42.08,4.25,1.15,8.5,2.31,12.74,3.46.41.11.82.23,1.24.33.16.04.24.12.29.28.19.65.39,1.3.58,1.94.65,2.14,1.29,4.28,1.94,6.42.64,2.11,1.27,4.22,1.91,6.34.55,1.82,1.09,3.63,1.64,5.45.01.04.03.08.04.13.03.08.08.12.17.07.09-.05.18-.1.27-.16.68-.43,1.36-.88,2.05-1.3.48-.3.3-.26.81-.13,4.39,1.19,8.78,2.39,13.17,3.58.6.16.51.06.44.63-2.64,22.05-5.28,44.1-7.92,66.15-.02.16-.04.32-.06.49-.17.02-.3-.04-.44-.08-3.88-1.05-7.76-2.11-11.64-3.16-.77-.21-1.53-.43-2.3-.62-.21-.05-.32-.16-.38-.37-.29-1-.6-2-.9-3-.64-2.13-1.28-4.25-1.92-6.38-.68-2.27-1.37-4.53-2.05-6.8-.39-1.28-.77-2.56-1.15-3.84-.03-.08-.06-.17-.1-.25-.02-.05-.07-.05-.11-.04-.03,0-.05.03-.08.04-.35.22-.7.44-1.04.66-.47.3-.94.6-1.41.91-.14.09-.26.1-.41.06-.17-.05-.34-.09-.51-.14-4.29-1.17-8.58-2.33-12.87-3.5-.15-.04-.31-.09-.46-.13Zm23.58,14.3s.06-.01.09-.02c.02-.14.05-.28.06-.43.14-1.18.28-2.37.42-3.55,1.99-16.59,3.98-33.17,5.96-49.76.01-.1.02-.2.03-.31,0-.06-.07-.11-.12-.08-.04.02-.08.04-.11.07-1.07.68-2.14,1.36-3.21,2.04-.41.26-.82.52-1.23.78-1.02.65-2.04,1.3-3.06,1.94-.58.37-1.17.74-1.75,1.11-.83.53-1.66,1.06-2.5,1.59-.1.06-.2.12-.31.17-.04.02-.09,0-.11-.04-.04-.09-.08-.19-.11-.29-.46-1.52-.92-3.04-1.38-4.56-.59-1.97-1.18-3.95-1.77-5.92-.77-2.56-1.55-5.12-2.32-7.69-.71-2.37-1.42-4.73-2.13-7.1-.04-.14-.1-.28-.15-.42-.08.15-.1.29-.12.44-.57,4.75-1.14,9.5-1.71,14.25-1.56,12.99-3.12,25.98-4.67,38.98-.02.13-.02.26-.03.4,0,.07.09.12.16.08.08-.04.15-.09.23-.14.81-.51,1.62-1.03,2.42-1.54.96-.6,1.92-1.21,2.88-1.81.4-.25.79-.51,1.19-.76.96-.61,1.91-1.22,2.87-1.83.63-.4,1.27-.81,1.9-1.21.22-.14.45-.27.71-.43.67,2.19,1.32,4.36,1.97,6.53.65,2.17,1.31,4.34,1.96,6.51.65,2.17,1.31,4.34,1.96,6.51.65,2.17,1.3,4.34,1.96,6.5Zm2.3,6.12c.12.1.27.11.41.15.77.21,1.53.42,2.3.63,2.12.58,4.23,1.15,6.35,1.73.11.03.21.1.35.03.02-.13.04-.26.06-.39.41-3.38.81-6.75,1.21-10.13.85-7.1,1.7-14.21,2.55-21.31,1.16-9.68,2.32-19.35,3.48-29.03.01-.09.02-.18.03-.26.01-.17,0-.19-.18-.25-.06-.02-.11-.03-.17-.05-1.12-.3-2.25-.61-3.37-.91-1.7-.46-3.41-.93-5.11-1.4-.18-.05-.36-.12-.55-.11-.07.08-.07.17-.08.26-.34,2.34-7.28,60.57-7.28,61.04Zm-14.43-83.62c-.04.09,0,.18.03.26.69,2.29,1.39,4.59,2.08,6.88.64,2.11,1.27,4.22,1.91,6.34.65,2.15,1.3,4.31,1.95,6.46.63,2.08,1.25,4.17,1.88,6.25.03.11.08.22.13.33.03.06.09.07.15.05.05-.02.11-.05.16-.08,1.15-.72,2.29-1.44,3.44-2.16.95-.6,1.89-1.2,2.83-1.8.07-.05.15-.09.23-.14.1-.06.12-.15.09-.26-.14-.46-.28-.93-.42-1.39-.6-2-1.2-4-1.81-6-.64-2.13-1.28-4.25-1.92-6.38-.58-1.92-1.15-3.83-1.73-5.75-.04-.14-.11-.22-.26-.26-.51-.13-1.02-.27-1.54-.41-2.27-.62-4.54-1.24-6.82-1.86-.12-.03-.24-.11-.38-.06Zm-6.28,61.56c.13.13.25.14.36.17.81.22,1.62.44,2.43.66,1.73.47,3.46.94,5.19,1.42.5.14.4.14.82-.12.49-.3.97-.62,1.45-.93.15-.1.3-.19.45-.28.1-.06.14-.14.1-.26-.07-.19-.12-.39-.18-.59-.54-1.8-1.08-3.6-1.62-5.4-.02-.06-.04-.11-.07-.16-.03-.06-.08-.08-.15-.05-.04.02-.08.04-.12.06-.8.5-1.6,1-2.39,1.5-1.79,1.13-3.58,2.27-5.36,3.4-.3.19-.59.38-.91.59Z"/>
      <path class="cls-3" d="m148.59,173.65c-.66-2.16-1.31-4.33-1.96-6.5-.66-2.17-1.31-4.34-1.96-6.51-.65-2.17-1.31-4.34-1.96-6.51-.65-2.17-1.3-4.33-1.97-6.53-.26.16-.49.29-.71.43-.63.4-1.27.81-1.9,1.21-.96.61-1.91,1.22-2.87,1.83-.4.25-.79.51-1.19.76-.96.6-1.92,1.21-2.88,1.81-.81.51-1.62,1.02-2.42,1.54-.07.05-.15.1-.23.14-.07.04-.16,0-.16-.08,0-.13.01-.26.03-.4,1.56-12.99,3.12-25.98,4.67-38.98.57-4.75,1.14-9.5,1.71-14.25.02-.14.04-.29.12-.44.05.14.11.28.15.42.71,2.37,1.42,4.73,2.13,7.1.77,2.56,1.55,5.12,2.32,7.69.59,1.97,1.18,3.95,1.77,5.92.46,1.52.92,3.04,1.38,4.56.03.1.07.19.11.29.02.05.07.06.11.04.11-.05.21-.11.31-.17.83-.53,1.66-1.06,2.5-1.59.58-.37,1.17-.74,1.75-1.11,1.02-.65,2.04-1.3,3.06-1.94.41-.26.82-.52,1.23-.78,1.07-.68,2.14-1.36,3.21-2.04.04-.02.08-.05.11-.07.05-.03.12.02.12.08,0,.1-.02.2-.03.31-1.99,16.59-3.98,33.17-5.96,49.76-.14,1.18-.28,2.37-.42,3.55-.02.14-.04.28-.06.43-.03,0-.06.01-.09.02Z"/>
      <path class="cls-2" d="m150.89,179.77c0-.47,6.94-58.7,7.28-61.04.01-.09.01-.18.08-.26.19,0,.37.06.55.11,1.7.46,3.41.93,5.11,1.4,1.12.31,2.25.61,3.37.91.06.02.11.03.17.05.18.06.19.08.18.25,0,.09-.02.18-.03.26-1.16,9.68-2.32,19.35-3.48,29.03-.85,7.1-1.7,14.21-2.55,21.31-.4,3.38-.81,6.75-1.21,10.13-.02.13-.04.26-.06.39-.13.07-.24,0-.35-.03-2.12-.57-4.23-1.15-6.35-1.73-.77-.21-1.53-.42-2.3-.63-.14-.04-.29-.05-.41-.15Z"/>
      <path class="cls-2" d="m136.46,96.14c.14-.04.26.03.38.06,2.27.62,4.54,1.24,6.82,1.86.51.14,1.02.28,1.54.41.15.04.21.12.26.26.57,1.92,1.15,3.83,1.73,5.75.64,2.13,1.28,4.25,1.92,6.38.6,2,1.2,4,1.81,6,.14.46.28.93.42,1.39.03.11.01.2-.09.26-.08.05-.15.09-.23.14-.94.6-1.89,1.2-2.83,1.8-1.14.72-2.29,1.44-3.44,2.16-.05.03-.1.06-.16.08-.06.02-.12.01-.15-.05-.05-.11-.1-.21-.13-.33-.63-2.08-1.25-4.17-1.88-6.25-.65-2.15-1.3-4.31-1.95-6.46-.64-2.11-1.27-4.23-1.91-6.34-.69-2.29-1.39-4.59-2.08-6.88-.03-.08-.07-.17-.03-.26Z"/>
      <path class="cls-2" d="m130.19,157.7c.31-.2.61-.4.91-.59,1.79-1.14,3.57-2.27,5.36-3.4.79-.5,1.59-1,2.39-1.5.04-.02.08-.04.12-.06.06-.03.12,0,.15.05.03.05.05.11.07.16.54,1.8,1.08,3.6,1.62,5.4.06.2.11.4.18.59.04.12,0,.2-.1.26-.15.09-.3.19-.45.28-.48.31-.96.63-1.45.93-.42.26-.32.26-.82.12-1.73-.47-3.46-.95-5.19-1.42-.81-.22-1.62-.44-2.43-.66-.11-.03-.23-.03-.36-.17Z"/>
    </g>
  </g>
  <g>
    <g>
      <path class="cls-1" d="m283.4,172.75l5.43,31.61c.05.29-.17.56-.47.56l-10.63,2.18c-.29,0-.52-.25-.49-.54l3.67-34.53,2.08.32c.21.03.37.19.4.4Z"/>
      <path class="cls-1" d="m272.89,178.95l20.38-.44c.39,0,.61-.46.37-.77l-11.12-14.6c-.21-.27-.62-.25-.79.04l-9.26,15.05c-.2.33.04.74.42.74Z"/>
    </g>
    <g>
      <path class="cls-1" d="m247.66,209.32l40.61-5.43c.29-.05.56.17.56.47l1.18,10.63c0,.29-.25.52-.54.49l-42.53-3.67.32-2.08c.03-.21.19-.37.4-.4Z"/>
      <path class="cls-1" d="m253.87,219.84l-.44-20.38c0-.39-.46-.61-.77-.37l-14.6,11.12c-.27.21-.25.62.04.79l15.05,9.26c.33.2.74-.04.74-.42Z"/>
    </g>
  </g>
</svg>