<?xml version="1.0" encoding="UTF-8"?>
<svg id="Layer_1" data-name="Layer 1" xmlns="http://www.w3.org/2000/svg" width="300" height="225" viewBox="0 0 300 225">
  <defs>
    <style>
      .cls-1 {
        fill: #fff;
      }

      .cls-2 {
        fill: #23140a;
      }

      .cls-3 {
        isolation: isolate;
        opacity: .35;
      }

      .cls-4 {
        fill: #232323;
      }

      .cls-5 {
        fill: #444;
      }

      .cls-6 {
        fill: #7f7f7f;
      }
    </style>
  </defs>
  <g>
    <g>
      <g>
        <path class="cls-4" d="m265.04,39.65h-43.6c-1.1,0-2-.9-2-2s.9-2,2-2h43.6c1.1,0,2,.9,2,2s-.9,2-2,2Z"/>
        <path class="cls-4" d="m265.04,47.71h-43.6c-1.1,0-2-.9-2-2s.9-2,2-2h43.6c1.1,0,2,.9,2,2s-.9,2-2,2Z"/>
        <path class="cls-4" d="m265.04,55.77h-43.6c-1.1,0-2-.9-2-2s.9-2,2-2h43.6c1.1,0,2,.9,2,2s-.9,2-2,2Z"/>
        <path class="cls-4" d="m265.04,63.82h-43.6c-1.1,0-2-.9-2-2s.9-2,2-2h43.6c1.1,0,2,.9,2,2s-.9,2-2,2Z"/>
        <path class="cls-4" d="m265.04,71.88h-43.6c-1.1,0-2-.9-2-2s.9-2,2-2h43.6c1.1,0,2,.9,2,2s-.9,2-2,2Z"/>
        <path class="cls-4" d="m265.04,79.94h-43.6c-1.1,0-2-.9-2-2s.9-2,2-2h43.6c1.1,0,2,.9,2,2s-.9,2-2,2Z"/>
      </g>
      <path class="cls-4" d="m267.15,89.32h-47.82c-4.2,0-7.61-3.41-7.61-7.61v-47.82c0-4.2,3.41-7.61,7.61-7.61h47.82c4.2,0,7.61,3.41,7.61,7.61v47.82c0,4.2-3.41,7.61-7.61,7.61Zm-47.82-59.05c-1.99,0-3.61,1.62-3.61,3.61v47.82c0,1.99,1.62,3.61,3.61,3.61h47.82c1.99,0,3.61-1.62,3.61-3.61v-47.82c0-1.99-1.62-3.61-3.61-3.61h-47.82Z"/>
    </g>
    <g>
      <g>
        <path class="cls-4" d="m65.45,59.09h-13.6c-1.1,0-2-.9-2-2s.9-2,2-2h13.6c1.1,0,2,.9,2,2s-.9,2-2,2Z"/>
        <path class="cls-4" d="m65.45,66.24h-13.6c-1.1,0-2-.9-2-2s.9-2,2-2h13.6c1.1,0,2,.9,2,2s-.9,2-2,2Z"/>
        <path class="cls-4" d="m65.45,73.38h-13.6c-1.1,0-2-.9-2-2s.9-2,2-2h13.6c1.1,0,2,.9,2,2s-.9,2-2,2Z"/>
      </g>
      <path class="cls-4" d="m67.56,80.76h-17.82c-4.2,0-7.61-3.41-7.61-7.61v-17.82c0-4.2,3.41-7.61,7.61-7.61h17.82c4.2,0,7.61,3.41,7.61,7.61v17.82c0,4.2-3.41,7.61-7.61,7.61Zm-17.82-29.05c-1.99,0-3.61,1.62-3.61,3.61v17.82c0,1.99,1.62,3.61,3.61,3.61h17.82c1.99,0,3.61-1.62,3.61-3.61v-17.82c0-1.99-1.62-3.61-3.61-3.61h-17.82Z"/>
    </g>
  </g>
  <g>
    <g>
      <g class="cls-3">
        <ellipse class="cls-4" cx="146.94" cy="204.88" rx="51.67" ry="8.36"/>
      </g>
      <g>
        <g>
          <g>
            <path class="cls-4" d="m150.13,154.66c.23,1.51,4.99,43.54,12.19,49.46,7.2,5.92,10.91,3.95,12.42,2.32,1.51-1.63,3.48-4.53-.12-7.9-2.9-2.67-4.88-14.51-1.97-32.98l-22.53-10.91Z"/>
            <g>
              <path class="cls-4" d="m179.74,201.92c.93.23,1.86.12,2.21-.46.35-.58-.23-1.63-1.28-2.21-2.9-1.39-6.27-1.86-9.52-1.28-1.28.23-1.74,1.51-1.16,2.67s1.63,1.74,2.44,1.51c2.21-.81,4.76-.93,7.32-.23Z"/>
              <path class="cls-4" d="m178.34,207.15c.81.46,1.74.58,2.32.12.46-.46.23-1.63-.58-2.44-2.44-2.21-5.46-3.48-8.82-3.83-1.28-.12-2.09.93-1.86,2.21.23,1.28,1.05,2.09,1.86,2.09,2.32-.12,4.88.46,7.08,1.86Z"/>
              <path class="cls-4" d="m174.4,211.09c.46.81,1.28,1.39,1.97,1.16.7-.23,1.05-1.39.58-2.44-1.16-3.02-3.25-5.69-6.15-7.43-1.05-.7-2.32-.12-2.67,1.16-.35,1.16,0,2.32.7,2.67,2.32.93,4.3,2.67,5.57,4.88Z"/>
            </g>
          </g>
          <g>
            <path class="cls-4" d="m145.72,154.31c-.23,1.51-5.23,43.54-12.31,49.35-7.2,5.92-10.91,3.83-12.42,2.32-1.51-1.63-3.48-4.64.12-7.9,2.9-2.67,4.88-14.51,2.09-32.98l22.53-10.8Z"/>
            <g>
              <path class="cls-4" d="m117.15,201.92c-.93.23-1.86.12-2.21-.46s.23-1.63,1.28-2.21c2.9-1.39,6.27-1.86,9.52-1.16,1.28.23,1.74,1.51,1.16,2.67s-1.63,1.74-2.44,1.39c-2.21-.81-4.76-.93-7.32-.23Z"/>
              <path class="cls-4" d="m118.54,207.15c-.81.46-1.74.58-2.32.12-.46-.46-.23-1.63.58-2.44,2.44-2.09,5.57-3.48,8.82-3.83,1.28-.12,2.09,1.05,1.86,2.21-.23,1.28-1.05,2.09-1.86,2.09-2.32-.12-4.88.46-7.08,1.86Z"/>
              <path class="cls-4" d="m122.49,211.09c-.46.81-1.28,1.39-1.97,1.16s-.93-1.39-.58-2.44c1.16-3.02,3.37-5.57,6.15-7.43,1.05-.7,2.32-.12,2.67,1.16.35,1.16,0,2.32-.7,2.67-2.32.93-4.3,2.67-5.57,4.88Z"/>
            </g>
          </g>
        </g>
        <path class="cls-5" d="m186.12,132.49c-1.51-14.51-7.55-32.16-19.04-38.55-4.88-2.79-10.57-4.76-18.46-6.04-1.86.35-3.6.7-5.23,1.05-.23.12-.58.12-.81.23-.46.12-.93.23-1.39.35-.35.12-.58.12-.93.23-.46.12-.93.23-1.39.46-.23.12-.46.12-.7.23-.7.23-1.28.46-1.97.7-.23.12-.35.12-.58.23-.46.23-.93.35-1.39.58-.23.12-.46.23-.58.23-.46.23-.81.35-1.28.58-.23.12-.35.12-.58.23-.58.23-1.16.58-1.74.93-12.31,6.85-18.35,26.59-19.39,41.57-.12,2.21-.12,4.3-.12,6.27,0,5.11.35,9.29.93,11.84,0,.12.12.23.12.35,3.02,13.93,18.46,24.5,36.92,24.5,20.78,0,37.62-13.24,37.62-29.49v-.46c.35-4.41.35-9.99,0-16.02Z"/>
        <path class="cls-1" d="m176.37,91.85c-4.76-5.46-10.91-8.13-23.11-8.59h-6.97c-.81,0-1.51,0-2.21.12h-.23c-12.19.46-18.35,3.14-23.11,8.48-6.27,7.2-9.52,27.64-10.22,43.54,1.05-14.98,7.2-34.72,19.39-41.57,4.88-2.67,10.68-4.64,18.46-5.92,7.9,1.28,13.59,3.37,18.46,6.04,12.31,6.85,18.35,26.59,19.28,41.57-.35-16.02-3.48-36.46-9.75-43.66Z"/>
      </g>
    </g>
    <g>
      <path class="cls-4" d="m176.65,93.4c-2.24-2.42-5.88-2.9-8.52-.53-2.65,2.37-2.9,7.85.21,11.15,8.85,9.7,21.2,13.95,34.1,11.78,4.49-.74,7.72-5.12,7.03-8.69-.68-3.56-3.81-5.35-7.04-4.81-9.68,1.52-19.06-1.64-25.78-8.91Z"/>
      <g>
        <path class="cls-4" d="m212.21,100.77c.69-.63,1.65-1.04,2.25-.67s.62,1.6-.05,2.56c-1.85,2.7-4.65,4.73-7.86,5.81-1.21.34-2.34-.47-2.28-1.8-.1-1.31.56-2.27,1.37-2.5,2.37-.27,4.75-1.44,6.57-3.4Z"/>
        <path class="cls-4" d="m207.45,97.77c.34-.93.94-1.64,1.69-1.61s1.32,1.13,1.09,2.3c-.49,3.25-1.97,6.41-4.42,8.75-.92.9-2.25.67-2.92-.51-.67-1.18-.6-2.34.11-2.81,2.11-1.4,3.67-3.58,4.46-6.12Z"/>
        <path class="cls-4" d="m214.81,105.59c.87-.48,1.85-.56,2.3-.02s.22,1.71-.71,2.44c-2.55,2.09-5.75,3.33-9.2,3.44-1.23.01-2.07-1.16-1.75-2.42s1.16-2.07,1.99-1.97c2.49.3,5.1-.07,7.38-1.49Z"/>
      </g>
    </g>
    <g>
      <path class="cls-4" d="m125.72,95.57c2.42-2.41,6.2-2.82,8.89-.22,2.68,2.59,2.65,8.22-.71,11.61-9.55,9.65-22.54,13.56-35.84,10.77-4.67-.98-7.81-5.66-7-9.29.81-3.66,4.19-5.4,7.54-4.72,10.05,2.11,19.88-.84,27.11-8.15Z"/>
      <path class="cls-4" d="m96.87,104.07c1.14,0,2.26.52,2.44,1.35.19.83-.8,1.88-2.24,2.11-3.91.64-8,.02-11.65-1.86-1.36-.69-1.51-2.37-.46-3.52,1.05-1.15,2.47-1.51,3.31-.89,2.38,1.77,5.38,2.81,8.6,2.81Z"/>
      <path class="cls-4" d="m94.99,106.28c1.13-.2,2.31.11,2.64.9.33.78-.46,1.99-1.84,2.47-3.73,1.32-7.87,1.43-11.79.23-1.46-.45-1.9-2.08-1.07-3.39.83-1.32,2.16-1.92,3.1-1.46,2.65,1.32,5.79,1.81,8.96,1.24Z"/>
      <path class="cls-4" d="m94.75,110.19c1.13-.2,2.31.11,2.64.9.33.78-.46,1.99-1.84,2.47-3.73,1.32-7.87,1.43-11.79.23-1.46-.45-1.9-2.07-1.07-3.39.83-1.32,2.16-1.92,3.1-1.46,2.65,1.32,5.79,1.81,8.96,1.24Z"/>
      <path class="cls-4" d="m95.21,97.58c.3-1.11,0-2.33-.91-2.76-.9-.42-2.39.22-3.04,1.54-1.79,3.58-2.19,7.7-1,11.77.45,1.52,2.34,2.15,3.96,1.48,1.62-.68,2.41-1.93,1.92-2.92-1.4-2.82-1.79-6.02-.93-9.12Z"/>
    </g>
  </g>
  <g>
    <path class="cls-2" d="m211.02,26.79c.91-.07,1.11.48,1.45.93.56.64,5.2,6.26,5.73,6.96.79,1.13,9.34,9.66,9.99,10.89.48.83,18.65,21.2,19.11,22,.28.36,9.56,11.16,9.84,11.52,1.15,1.51,7.36,8.27,8.52,9.78.32.51.68.99,1.11,1.46.54.61,1.07,1.31,2.22,1.36.23,0,.38.11.53.21.22.1.46.22.84-.06s.36-.59.26-.82c0-.09-.02-.12-.06-.27.78-.24,1.18-.77,1.55-1.36.24-.36.54-.55.98-.66.82-.18,1.56-.57,2.18-1.4.79-1,1.69-1.95,2.52-2.98.55-.64.98-1.32.51-1.85-.69-.71-1.26-1.56-1.86-2.35-.84-1-8.54-9.47-9.38-10.47-.28-.36-7.96-8.83-8.28-9.16-.69-.8-10.54-11.87-11.23-12.67-.45-.5-11.43-11.64-11.89-12.14-.23-.31-.4-.62-.64-.93-.06-.08-.15-.2-.26-.24-.75-.31-10.61-12.04-10.92-12.74-.19-.34-.56-.54-.8-.85-.45-.5-.86-1.03-1.33-1.55-.37-.38-.8-.76-1.19-1.17-.26-.24-1.51-.04-2.02.35-.44.29-.93.62-1.37.82-.44.2-.7.44-.98.75-.38.47-.78.91-1.23,1.29-1.01.9-2.04,1.78-3.05,2.68-.52.48-.77,1.03-.77,1.51-.02.37-.05.7-.1,1.13Z"/>
    <path class="cls-2" d="m218.41,89.86c-.12-.9.42-1.13.85-1.5.6-.59,5.95-5.55,6.62-6.13,1.08-.85,9.1-9.89,10.29-10.6.8-.53,20.09-19.85,20.86-20.35.35-.3,10.59-10.19,10.93-10.49,1.44-1.24,7.83-7.83,9.27-9.07.49-.35.95-.73,1.39-1.19.58-.57,1.24-1.14,1.23-2.29,0-.23.09-.38.18-.54.08-.23.19-.48-.11-.83-.31-.36-.61-.33-.83-.21-.09,0-.12.02-.26.07-.28-.76-.84-1.14-1.44-1.47-.37-.22-.58-.51-.71-.94-.23-.81-.66-1.52-1.52-2.1-1.04-.73-2.04-1.57-3.12-2.35-.67-.51-1.38-.91-1.88-.4-.67.73-1.48,1.35-2.23,1.99-.95.89-8.96,9.08-9.91,9.97-.35.3-8.35,8.46-8.66,8.8-.76.73-11.24,11.21-12,11.95-.47.48-10.96,12.09-11.43,12.57-.29.25-.6.44-.89.69-.08.07-.19.16-.23.27-.27.77-11.41,11.29-12.08,11.64-.33.21-.51.59-.81.85-.47.48-.98.92-1.47,1.42-.36.39-.71.84-1.1,1.26-.23.27.04,1.51.46,2,.32.42.67.89.9,1.32.23.43.48.67.8.94.49.35.95.73,1.36,1.15.96.96,1.89,1.94,2.85,2.89.51.49,1.07.71,1.55.68.37,0,.71.01,1.14.03Z"/>
  </g>
  <g>
    <path class="cls-1" d="m177.48,59.38c-.36-13.66-11.22-19.42-34.42-16.02-7.36,1.08-15.86-6.06-21.44-6.53-16.05-1.35-17.59,9.25-17.59,9.25h-.03c3.89-18.57,23.06-32.95,46.44-33.48,26.55-.59,48.47,16.89,48.97,39.05.5,22.17-20.62,40.62-47.16,41.22-2.31.05-4.59-.04-6.82-.26v-.02c23.42,1.1,32.53-15.08,32.05-33.21Z"/>
    <path class="cls-5" d="m104,46.08h.03s1.54-10.6,17.59-9.26c5.58.47,14.08,7.61,21.44,6.53,16.65-2.44,26.94-.16,31.56,6.37.53-.44,1.09-.69,1.68-.69,3.03-.03,5.55,6.22,5.63,13.97.07,7.74-2.33,14.04-5.36,14.08-.68,0-1.34-.32-1.95-.89-4.28,10.13-13.53,17.13-29.19,16.4v.03c-23.38-2.24-41.69-18.57-42.15-38.8-.06-2.64.2-5.22.72-7.73Z"/>
    <path class="cls-6" d="m134.77,85.79c5.1.09,14.94-4.53,12.79-15.05-2.15-10.52-14.26-11.55-18.27-11.61-4.02-.07-15.8.57-13.65,11.09,2.15,10.52,14.03,15.49,19.13,15.58Z"/>
    <path class="cls-4" d="m129.61,61.88c-2.22-.04-5.01,2.26-4.84,4.99.18,2.73,6.56,2.74,6.56,2.74h.18s6.43.21,5.48-2.54c-.94-2.74-4.7-5.14-6.91-5.18h-.48Z"/>
    <circle class="cls-4" cx="149.96" cy="55.79" r="1.97"/>
    <circle class="cls-4" cx="117.98" cy="51.45" r="1.97"/>
    <path class="cls-4" d="m174.14,54.42c2.5,0,4.72,4.62,5.76,11.24.05-.84.08-1.71.07-2.62-.09-6.08-1.77-11.01-3.75-11-.84,0-1.6.9-2.19,2.4.04,0,.08-.02.12-.02Z"/>
    <path class="cls-6" d="m156.13,56.44c-.34,0-.64-.26-.68-.61-.07-.6-.25-1.17-.55-1.7-.29-.53-.68-.99-1.15-1.37-.48-.39-1.03-.68-1.64-.85-.6-.18-1.22-.23-1.84-.15-.38.04-.72-.22-.77-.6s.22-.72.6-.77c.8-.09,1.6-.03,2.39.2.79.23,1.5.6,2.12,1.11.61.49,1.1,1.09,1.48,1.77.38.69.62,1.43.71,2.2.04.38-.23.72-.6.76-.03,0-.05,0-.08,0Z"/>
    <path class="cls-6" d="m112.49,50.54c-.07,0-.14,0-.21-.03-.36-.11-.56-.5-.45-.86.24-.78.63-1.48,1.16-2.1.53-.63,1.17-1.13,1.88-1.48.69-.35,1.44-.56,2.22-.62.77-.06,1.56.03,2.3.26.36.11.57.5.45.86-.11.36-.5.57-.86.45-.57-.18-1.18-.25-1.78-.2-.6.05-1.18.21-1.71.48-.55.27-1.04.66-1.45,1.14-.41.48-.71,1.02-.89,1.62-.09.29-.36.48-.66.48Z"/>
    <path class="cls-4" d="m130.52,80.61c-.75,0-1.49-.08-2.24-.24-1.4-.3-2.7-.87-3.86-1.68-1.13-.8-2.08-1.79-2.82-2.94-.75-1.17-1.26-2.44-1.52-3.78-.06-.32.15-.63.47-.69.33-.06.63.15.69.47.23,1.19.68,2.32,1.35,3.36.66,1.02,1.5,1.9,2.51,2.61,1.03.72,2.19,1.23,3.43,1.49,1.25.27,2.51.28,3.75.04,1.2-.23,2.33-.68,3.36-1.34,1.03-.67,1.91-1.51,2.61-2.51.19-.27.56-.33.82-.14.27.19.33.56.14.82-.79,1.12-1.77,2.07-2.93,2.82-1.16.75-2.43,1.25-3.78,1.51-.66.13-1.32.19-1.98.19Z"/>
  </g>
</svg>