<?xml version="1.0" encoding="UTF-8"?>
<svg id="Layer_1" data-name="Layer 1" xmlns="http://www.w3.org/2000/svg" width="300" height="225" viewBox="0 0 300 225">
  <defs>
    <style>
      .cls-1 {
        fill: #fff;
      }

      .cls-2 {
        fill: #d0dae3;
      }

      .cls-3 {
        isolation: isolate;
        opacity: .35;
      }

      .cls-4 {
        fill: #232323;
      }

      .cls-5 {
        fill: #ff7e1c;
      }

      .cls-6 {
        fill: #444;
      }

      .cls-7 {
        fill: #dda905;
      }

      .cls-8 {
        fill: #ea651b;
      }

      .cls-9 {
        fill: #7f7f7f;
      }

      .cls-10 {
        fill: #ffcf15;
      }
    </style>
  </defs>
  <g>
    <g>
      <g>
        <path class="cls-4" d="m153.09,157.28c-.18,1.46-4.94,42.74-11.96,48.54-7.02,5.79-10.71,3.86-12.15,2.32-1.5-1.61-3.39-4.5.1-7.77,2.81-2.63,4.77-14.26,1.92-32.4l22.08-10.69Z"/>
        <g>
          <path class="cls-4" d="m124.02,203.65c-.88.25-1.85.1-2.18-.49-.33-.59.19-1.62,1.25-2.13,2.87-1.37,6.15-1.82,9.38-1.2,1.2.23,1.69,1.49,1.14,2.61-.55,1.12-1.56,1.71-2.34,1.43-2.23-.83-4.78-.95-7.25-.22Z"/>
          <path class="cls-4" d="m125.41,208.78c-.78.49-1.75.62-2.23.13-.48-.48-.26-1.62.61-2.39,2.37-2.11,5.4-3.45,8.68-3.75,1.22-.1,2.04.96,1.82,2.19-.21,1.23-1.02,2.08-1.85,2.02-2.37-.17-4.85.41-7.03,1.8Z"/>
          <path class="cls-4" d="m129.21,212.66c-.47.79-1.27,1.34-1.92,1.14-.65-.21-.97-1.32-.54-2.41,1.15-2.96,3.24-5.53,6.02-7.29,1.03-.66,2.25-.08,2.62,1.12.37,1.2.04,2.32-.73,2.64-2.19.93-4.13,2.58-5.44,4.8Z"/>
        </g>
      </g>
      <g>
        <path class="cls-4" d="m157.39,156.89c.19,1.46,5.1,42.72,12.14,48.49,7.04,5.77,10.73,3.82,12.16,2.28,1.49-1.61,3.38-4.51-.13-7.77-2.82-2.62-4.82-14.24-2.04-32.39l-22.12-10.6Z"/>
        <g>
          <path class="cls-4" d="m185.42,203.63c.88.25,1.85.1,2.18-.5.33-.6-.2-1.62-1.26-2.12-2.87-1.36-6.16-1.8-9.38-1.16-1.2.24-1.69,1.5-1.14,2.61.55,1.12,1.57,1.71,2.34,1.42,2.23-.83,4.78-.97,7.25-.25Z"/>
          <path class="cls-4" d="m184.05,208.77c.78.49,1.75.61,2.24.13.48-.48.26-1.62-.62-2.39-2.38-2.1-5.42-3.43-8.69-3.72-1.22-.1-2.04.97-1.81,2.2.22,1.23,1.03,2.07,1.86,2.01,2.37-.19,4.85.4,7.03,1.77Z"/>
          <path class="cls-4" d="m180.27,212.66c.47.78,1.28,1.34,1.93,1.13.65-.21.97-1.32.54-2.41-1.16-2.95-3.26-5.52-6.05-7.27-1.04-.65-2.25-.07-2.61,1.13-.37,1.2-.03,2.31.74,2.64,2.19.93,4.14,2.57,5.46,4.79Z"/>
        </g>
      </g>
    </g>
    <path class="cls-6" d="m117.73,135.43c1.52-14.23,7.43-31.6,18.67-37.88,4.82-2.69,10.43-4.63,18.16-5.94,1.84.3,3.55.64,5.16,1.02.28.06.55.13.83.2.48.12.95.24,1.41.37.29.08.58.16.87.24.46.13.92.27,1.37.42.23.07.47.14.7.22.64.21,1.27.43,1.88.66.18.07.35.14.53.21.46.18.92.36,1.36.55.21.09.41.18.62.27.42.19.84.38,1.25.58.17.08.35.17.52.25.57.29,1.13.57,1.68.88,12.07,6.67,18.06,26.09,19.08,40.77.09,2.14.13,4.18.13,6.11,0,4.97-.32,9.1-.9,11.59-.03.12-.08.23-.11.34-3,13.66-18.09,24.07-36.29,24.11-20.38.04-36.92-12.95-36.95-29,0-.15,0-.29.01-.44-.32-4.14-.33-9.61,0-15.53Z"/>
    <path class="cls-1" d="m127.37,95.6c4.66-5.32,10.71-7.94,22.64-8.46.19-.01.38-.02.57-.02.6-.02,1.21-.04,1.84-.06.63-.01,1.26-.02,1.91-.03.08,0,.14,0,.22,0h.13s.09,0,.13,0c.69,0,1.36,0,2.02.02.75.01,1.47.03,2.19.06.07,0,.14,0,.21,0,11.94.48,18,3.07,22.68,8.38,6.19,7.02,9.34,27.11,10,42.75-1.02-14.69-7.02-34.1-19.08-40.77-4.83-2.67-10.45-4.6-18.18-5.87-7.73,1.31-13.34,3.25-18.16,5.94-12.04,6.72-17.96,26.15-18.93,40.84.59-15.64,3.67-35.75,9.83-42.79Z"/>
    <path class="cls-4" d="m131.65,101.34c2.05-2.5,5.56-3.24,8.34-1.04,2.77,2.18,3.27,7.48.42,10.99-8.08,9.98-19.93,14.88-32.69,13.51-4.49-.48-7.88-4.59-7.46-8.08.42-3.52,3.43-5.47,6.65-5.15,9.66,1.03,18.62-2.67,24.73-10.23Z"/>
    <path class="cls-4" d="m96.19,119.81c-.92-.16-1.89.1-2.15.74-.26.63.38,1.62,1.5,2.01,3.04,1.07,6.41,1.15,9.61.17,1.19-.37,1.55-1.69.87-2.76-.68-1.08-1.77-1.56-2.52-1.18-2.16,1.07-4.72,1.48-7.3,1.02Z"/>
    <path class="cls-4" d="m97.01,114.48c-.84-.41-1.83-.43-2.27.11-.44.54-.09,1.66.88,2.35,2.63,1.87,5.84,2.88,9.18,2.82,1.24-.02,1.95-1.2,1.6-2.41-.36-1.22-1.26-1.98-2.1-1.83-2.38.44-4.95.12-7.3-1.03Z"/>
    <g class="cls-3">
      <ellipse class="cls-4" cx="156.21" cy="207.08" rx="49.71" ry="8.02"/>
    </g>
  </g>
  <g>
    <path class="cls-1" d="m153.16,34.62c6.66-.01,14.43-2.64,18.83-3.76,5.16-1.31,7.61-1.36,11.41-1.36,11.52-.02,15.07,6.01,16.04,8.48-7.6-23.34-31.64-26.57-45.84-26.54h-1.17c-14.2.03-38.23,3.35-45.74,26.72.96-2.47,4.49-8.51,16.01-8.54,3.8,0,6.25.03,11.42,1.32,4.41,1.11,12.18,3.7,18.84,3.69h.19Z"/>
    <path class="cls-6" d="m106.73,38.17l-.04-.02c.96-2.47,4.49-8.51,16.01-8.54,3.8,0,6.26.03,11.42,1.32,4.41,1.11,12.18,3.71,18.84,3.69h.19c6.66-.01,14.43-2.64,18.83-3.76,5.16-1.31,7.61-1.36,11.41-1.37,11.52-.02,15.07,6.01,16.04,8.48l-.04.02c2.44,2.33,4.07,8.46,3.87,15.63-.25,9.09-3.35,16.38-6.92,16.28-.07,0-.13-.02-.2-.03-8.25,16.68-30.95,24.45-42.86,24.47-11.91.02-34.8-7.66-43.18-24.32-.08,0-.15.03-.22.03-3.56.11-6.69-7.17-6.97-16.26-.23-7.17,1.38-13.3,3.81-15.64Z"/>
    <path class="cls-9" d="m153.2,82.31c6.02,0,18.79-5.61,18.77-17.86-.02-12.24-14.12-13.19-18.87-13.18-4.75,0-18.86,1.01-18.84,13.25.02,12.25,12.91,17.8,18.94,17.79Z"/>
    <path class="cls-4" d="m152.81,54.49c-2.61,0-6.48,2.74-6.93,5.93-.45,3.19,7.12,3.06,7.12,3.06h.22s7.57.1,7.11-3.09c-.46-3.18-4.33-5.91-6.95-5.9h-.56Z"/>
    <g>
      <circle class="cls-4" cx="172.39" cy="45.17" r="2.31"/>
      <path class="cls-4" d="m131.46,45.24c0,1.28,1.04,2.31,2.32,2.31,1.27,0,2.31-1.04,2.31-2.32,0-1.28-1.04-2.31-2.32-2.31-1.28,0-2.31,1.04-2.31,2.32Z"/>
    </g>
    <path class="cls-4" d="m111.64,43.36c-2.94.11-5.31,5.65-6.2,13.47-.11-.98-.18-2.01-.21-3.06-.19-7.15,1.54-13.01,3.86-13.1.99-.04,1.92.98,2.69,2.71-.04,0-.09-.02-.14-.02Z"/>
    <path class="cls-4" d="m194.51,43.21c2.93.1,5.33,5.63,6.26,13.45.1-.98.17-2.01.2-3.07.16-7.14-1.59-13-3.91-13.08-.99-.03-1.92.99-2.68,2.72.05,0,.09-.02.14-.02Z"/>
    <path class="cls-9" d="m167.93,39.34c-.16,0-.32-.06-.44-.17-.27-.24-.28-.66-.04-.92.63-.69,1.38-1.23,2.23-1.61.86-.39,1.76-.59,2.68-.61.89-.03,1.78.13,2.61.44.84.31,1.6.78,2.26,1.39.26.25.28.66.03.92s-.66.28-.92.03c-.53-.49-1.15-.87-1.83-1.13-.68-.26-1.4-.37-2.12-.36-.75.02-1.48.19-2.18.5-.69.31-1.3.75-1.81,1.3-.13.14-.3.21-.48.21Z"/>
    <path class="cls-9" d="m129.22,39.34c-.16,0-.32-.06-.44-.17-.26-.24-.28-.66-.04-.92.63-.68,1.38-1.22,2.23-1.61.86-.39,1.76-.59,2.68-.61.9-.03,1.78.13,2.62.44.84.32,1.6.79,2.26,1.39.26.25.28.66.04.92-.25.26-.66.28-.92.04-.53-.49-1.15-.87-1.83-1.13-.68-.26-1.39-.37-2.12-.36-.75.02-1.48.19-2.18.5-.69.31-1.3.75-1.81,1.31-.13.14-.3.21-.48.21Z"/>
    <path class="cls-4" d="m153.12,76.75h-.03c-1.43,0-2.82-.28-4.13-.84-1.28-.55-2.41-1.31-3.37-2.28-.98-.98-1.74-2.12-2.27-3.38-.13-.3.02-.65.32-.77.3-.13.65.02.77.32.47,1.12,1.15,2.13,2.02,3,.86.86,1.86,1.54,3,2.03,1.16.49,2.39.74,3.67.74,1.29,0,2.51-.24,3.68-.74,1.12-.47,2.14-1.15,3.01-2.01.87-.87,1.55-1.88,2.03-3,.13-.3.47-.44.78-.31.3.13.44.48.31.78-.54,1.26-1.3,2.4-2.28,3.37-.98.97-2.12,1.73-3.38,2.27-1.3.55-2.68.83-4.1.83Z"/>
  </g>
  <g>
    <path class="cls-4" d="m176.16,100.49c-1.83-2.71-5.3-3.79-8.3-1.84-2.99,1.94-3.99,7.23-1.46,11.02,7.19,10.81,18.65,16.86,31.64,16.68,4.56-.06,8.36-3.87,8.27-7.43-.09-3.58-2.94-5.83-6.21-5.81-9.82.13-18.5-4.44-23.94-12.62Z"/>
    <path class="cls-4" d="m201.66,113.75c-1.07-.21-2.21.07-2.54.82-.33.74.4,1.91,1.72,2.39,3.55,1.32,7.5,1.49,11.27.4,1.4-.4,1.85-1.95,1.08-3.22-.78-1.27-2.04-1.86-2.94-1.44-2.55,1.22-5.56,1.65-8.58,1.05Z"/>
    <path class="cls-4" d="m203.02,116.17c-1.02-.39-2.19-.32-2.64.36-.45.67.07,1.95,1.27,2.66,3.26,1.92,7.12,2.79,11.02,2.38,1.45-.15,2.17-1.6,1.63-2.98-.54-1.39-1.67-2.2-2.64-1.94-2.73.75-5.77.64-8.63-.48Z"/>
    <path class="cls-4" d="m202.52,119.88c-1.02-.39-2.19-.32-2.64.36-.45.67.06,1.95,1.27,2.66,3.26,1.92,7.12,2.79,11.02,2.38,1.45-.15,2.17-1.6,1.63-2.98-.54-1.39-1.67-2.19-2.64-1.93-2.73.75-5.76.64-8.63-.48Z"/>
    <path class="cls-4" d="m204.41,107.97c-.08-1.1.42-2.19,1.36-2.42.92-.23,2.2.65,2.57,2.01,1.03,3.69.64,7.63-1.22,11.23-.7,1.34-2.59,1.59-3.98.66-1.39-.93-1.9-2.26-1.26-3.09,1.83-2.39,2.79-5.32,2.54-8.38Z"/>
  </g>
  <g>
    <path class="cls-1" d="m61.96,72.08l25.06-4.71c1.5-.28,2.86,0,4.1.85,1.24.86,2,2.02,2.28,3.51l8.74,46.56c.28,1.49,0,2.86-.85,4.1-.85,1.24-2.01,2-3.51,2.28l-25.06,4.71c-1.5.28-2.87,0-4.1-.86-1.25-.85-2.01-2.02-2.29-3.51l-8.74-46.56c-.28-1.49,0-2.85.86-4.1.84-1.24,2.01-2,3.51-2.28Z"/>
    <path class="cls-4" d="m69.78,113.71c.07.38.26.67.56.88.31.21.66.28,1.03.21l22.38-4.2c.37-.07.66-.26.88-.57.21-.31.28-.65.21-1.02l-6.56-34.92c-.07-.37-.26-.66-.57-.88-.32-.21-.66-.29-1.03-.21l-22.38,4.2c-.37.07-.66.26-.88.57-.21.31-.27.65-.2,1.02l6.56,34.92Z"/>
    <path class="cls-2" d="m84.58,123.45c.97-.18,1.74-.69,2.32-1.53.57-.84.78-1.75.59-2.72-.18-.96-.7-1.74-1.54-2.32-.85-.57-1.75-.78-2.72-.59-.97.18-1.74.7-2.32,1.54-.57.84-.77,1.75-.59,2.71.18.97.7,1.75,1.53,2.32.85.58,1.75.77,2.72.59Z"/>
    <g>
      <path class="cls-4" d="m84.38,106.48c0-.07,1.32-11.08,1.34-11.15.03,0,.05,0,.07.01.71.19,1.41.38,2.12.58.07.02.14.04.21.06.03,0,.04.02.05.05.03.11.06.22.1.32.11.36.21.71.32,1.07.11.35.21.7.32,1.05.09.3.18.6.27.91,0,0,0,.01,0,.02,0,.01.01.02.03.01.01,0,.03-.02.04-.03.11-.07.23-.15.34-.22.08-.05.05-.04.13-.02.73.2,1.46.4,2.19.59.1.03.08,0,.07.1-.44,3.66-.88,7.33-1.32,10.99,0,.03,0,.05-.01.08-.03,0-.05,0-.07-.01-.64-.18-1.29-.35-1.93-.53-.13-.03-.25-.07-.38-.1-.04,0-.05-.03-.06-.06-.05-.17-.1-.33-.15-.5-.11-.35-.21-.71-.32-1.06-.11-.38-.23-.75-.34-1.13-.06-.21-.13-.43-.19-.64,0-.01-.01-.03-.02-.04,0,0-.01,0-.02,0,0,0,0,0-.01,0-.06.04-.12.07-.17.11-.08.05-.16.1-.23.15-.02.02-.04.02-.07,0-.03,0-.06-.02-.08-.02-.71-.19-1.43-.39-2.14-.58-.03,0-.05-.01-.08-.02Zm3.92,2.37s.01,0,.02,0c0-.02,0-.05.01-.07.02-.2.05-.39.07-.59.33-2.76.66-5.51.99-8.27,0-.02,0-.03,0-.05,0-.01-.01-.02-.02-.01,0,0-.01,0-.02.01-.18.11-.36.23-.53.34-.07.04-.14.09-.2.13-.17.11-.34.22-.51.32-.1.06-.19.12-.29.18-.14.09-.28.18-.41.26-.02.01-.03.02-.05.03,0,0-.01,0-.02,0,0-.02-.01-.03-.02-.05-.08-.25-.15-.51-.23-.76-.1-.33-.2-.66-.29-.98-.13-.43-.26-.85-.39-1.28-.12-.39-.24-.79-.35-1.18,0-.02-.02-.05-.02-.07-.01.02-.02.05-.02.07-.09.79-.19,1.58-.28,2.37-.26,2.16-.52,4.32-.78,6.47,0,.02,0,.04,0,.07,0,.01.01.02.03.01.01,0,.03-.02.04-.02.13-.09.27-.17.4-.26.16-.1.32-.2.48-.3.07-.04.13-.08.2-.13.16-.1.32-.2.48-.3.11-.07.21-.13.32-.2.04-.02.07-.05.12-.07.11.36.22.72.33,1.08.11.36.22.72.33,1.08.11.36.22.72.33,1.08.11.36.22.72.33,1.08Zm.38,1.02s.04.02.07.03c.13.04.25.07.38.1.35.1.7.19,1.05.29.02,0,.04.02.06,0,0-.02,0-.04,0-.06.07-.56.13-1.12.2-1.68.14-1.18.28-2.36.42-3.54.19-1.61.39-3.21.58-4.82,0-.01,0-.03,0-.04,0-.03,0-.03-.03-.04,0,0-.02,0-.03,0-.19-.05-.37-.1-.56-.15-.28-.08-.57-.15-.85-.23-.03,0-.06-.02-.09-.02-.01.01-.01.03-.01.04-.06.39-1.21,10.06-1.21,10.14Zm-2.4-13.89s0,.03,0,.04c.12.38.23.76.35,1.14.11.35.21.7.32,1.05.11.36.22.72.32,1.07.1.35.21.69.31,1.04,0,.02.01.04.02.05,0,.01.01.01.02,0,0,0,.02,0,.03-.01.19-.12.38-.24.57-.36.16-.1.31-.2.47-.3.01,0,.02-.02.04-.02.02-.01.02-.02.02-.04-.02-.08-.05-.15-.07-.23-.1-.33-.2-.66-.3-1-.11-.35-.21-.71-.32-1.06-.1-.32-.19-.64-.29-.95,0-.02-.02-.04-.04-.04-.09-.02-.17-.05-.26-.07-.38-.1-.75-.21-1.13-.31-.02,0-.04-.02-.06-.01Zm-1.04,10.23s.04.02.06.03c.13.04.27.07.4.11.29.08.57.16.86.24.08.02.07.02.14-.02.08-.05.16-.1.24-.15.02-.02.05-.03.07-.05.02-.01.02-.02.02-.04-.01-.03-.02-.07-.03-.1-.09-.3-.18-.6-.27-.9,0,0,0-.02-.01-.03,0,0-.01-.01-.02,0,0,0-.01,0-.02.01-.13.08-.26.17-.4.25-.3.19-.59.38-.89.57-.05.03-.1.06-.15.1Z"/>
      <path class="cls-10" d="m88.3,108.86c-.11-.36-.22-.72-.33-1.08-.11-.36-.22-.72-.33-1.08-.11-.36-.22-.72-.33-1.08-.11-.36-.22-.72-.33-1.08-.04.03-.08.05-.12.07-.11.07-.21.13-.32.2-.16.1-.32.2-.48.3-.07.04-.13.08-.2.13-.16.1-.32.2-.48.3-.13.08-.27.17-.4.26-.01,0-.02.02-.04.02-.01,0-.03,0-.03-.01,0-.02,0-.04,0-.07.26-2.16.52-4.32.78-6.47.09-.79.19-1.58.28-2.37,0-.02,0-.05.02-.07,0,.02.02.05.02.07.12.39.24.79.35,1.18.13.43.26.85.39,1.28.1.33.2.66.29.98.08.25.15.51.23.76,0,.02.01.03.02.05,0,0,.01.01.02,0,.02,0,.03-.02.05-.03.14-.09.28-.18.41-.26.1-.06.19-.12.29-.18.17-.11.34-.22.51-.32.07-.04.14-.09.2-.13.18-.11.36-.23.53-.34,0,0,.01,0,.02-.01,0,0,.02,0,.02.01,0,.02,0,.03,0,.05-.33,2.76-.66,5.51-.99,8.27-.02.2-.05.39-.07.59,0,.02,0,.05-.01.07,0,0-.01,0-.02,0Z"/>
      <path class="cls-7" d="m88.68,109.87c0-.08,1.15-9.75,1.21-10.14,0-.01,0-.03.01-.04.03,0,.06.01.09.02.28.08.57.15.85.23.19.05.37.1.56.15,0,0,.02,0,.03,0,.03,0,.03.01.03.04,0,.01,0,.03,0,.04-.19,1.61-.39,3.21-.58,4.82-.14,1.18-.28,2.36-.42,3.54-.07.56-.13,1.12-.2,1.68,0,.02,0,.04,0,.06-.02.01-.04,0-.06,0-.35-.1-.7-.19-1.05-.29-.13-.03-.25-.07-.38-.1-.02,0-.05,0-.07-.03Z"/>
      <path class="cls-7" d="m86.29,95.98s.04,0,.06.01c.38.1.75.21,1.13.31.08.02.17.05.26.07.02,0,.04.02.04.04.09.32.19.64.29.95.11.35.21.71.32,1.06.1.33.2.66.3,1,.02.08.05.15.07.23,0,.02,0,.03-.02.04-.01,0-.03.02-.04.02-.16.1-.31.2-.47.3-.19.12-.38.24-.57.36,0,0-.02,0-.03.01,0,0-.02,0-.02,0,0-.02-.02-.04-.02-.05-.1-.35-.21-.69-.31-1.04-.11-.36-.22-.72-.32-1.07-.11-.35-.21-.7-.32-1.05-.11-.38-.23-.76-.35-1.14,0-.01-.01-.03,0-.04Z"/>
      <path class="cls-7" d="m85.24,106.21c.05-.03.1-.07.15-.1.3-.19.59-.38.89-.57.13-.08.26-.17.4-.25,0,0,.01,0,.02-.01.01,0,.02,0,.02,0,0,0,0,.02.01.03.09.3.18.6.27.9,0,.03.02.07.03.1,0,.02,0,.03-.02.04-.02.02-.05.03-.07.05-.08.05-.16.1-.24.15-.07.04-.05.04-.14.02-.29-.08-.57-.16-.86-.24-.13-.04-.27-.07-.4-.11-.02,0-.04,0-.06-.03Z"/>
    </g>
    <g>
      <g>
        <path class="cls-8" d="m71.73,109.97c.36.34.77.63,1.24.86,2.38,1.14,5.23.14,6.37-2.23.61-1.27.61-2.67.12-3.88-.02.8-.2,1.6-.57,2.37-1.29,2.69-4.42,3.91-7.16,2.89Z"/>
        <path class="cls-5" d="m70.74,104.45c-.92,1.91-.45,4.12.99,5.51,2.74,1.02,5.87-.2,7.16-2.89.37-.76.55-1.57.57-2.37-.43-1.06-1.24-1.96-2.35-2.49-2.38-1.14-5.23-.14-6.37,2.23Z"/>
      </g>
      <path class="cls-1" d="m76.49,106.39c.12.12.19.3.2.53,0,.28-.09.5-.27.66-.16.13-.42.22-.76.29l.07.54-.39.05-.07-.53-.3.04.07.53-.39.05-.07-.54-.77.1.02-.47h.08c.13-.02.21-.03.25-.05.05-.02.08-.07.08-.13l-.22-1.72c-.03-.08-.08-.13-.15-.14-.05,0-.15,0-.3.02h-.06s-.05-.41-.05-.41l.24-.02c.28-.04.46-.06.53-.08l-.08-.63.39-.05.08.62.3-.05-.08-.61.39-.05.08.63c.27,0,.49.03.64.1.19.09.3.23.35.44.07.3-.01.53-.24.69h0c.2.02.36.08.46.19h0Zm-1.74-.13h.06c.22-.03.39-.06.51-.11.21-.08.3-.21.28-.38-.02-.17-.14-.28-.35-.31-.12-.02-.29,0-.52.02-.04.01-.06.02-.07.02l.1.77Zm.23,1.22c.27-.03.47-.07.61-.12.24-.09.35-.24.33-.43-.02-.19-.16-.3-.41-.34-.14-.02-.34,0-.61.04h-.09s.11.85.11.85h.07Z"/>
    </g>
    <g>
      <path class="cls-1" d="m78.08,86.07l1.84,4.61s0,.09-.05.1l-1.6.37s-.09-.02-.09-.07l-.49-5.04.33-.02s.06.02.07.05Z"/>
      <path class="cls-1" d="m76.68,87.35l3.07-.72c.06-.01.08-.09.03-.13l-2.15-1.85s-.1-.02-.12.03l-.92,2.58c-.02.06.03.11.09.1Z"/>
    </g>
    <g>
      <path class="cls-1" d="m80.09,94.4l1.84,4.61s0,.09-.05.1l-1.6.37s-.09-.02-.09-.07l-.49-5.04.33-.02s.06.02.07.05Z"/>
      <path class="cls-1" d="m78.69,95.68l3.07-.72c.06-.01.08-.09.03-.13l-2.15-1.85s-.1-.02-.12.03l-.92,2.58c-.02.06.03.11.09.1Z"/>
    </g>
    <g>
      <path class="cls-1" d="m76.19,77.75l1.84,4.61s0,.09-.05.1l-1.6.37s-.09-.02-.09-.07l-.49-5.04.33-.02s.06.02.07.05Z"/>
      <path class="cls-1" d="m74.79,79.02l3.07-.72c.06-.01.08-.09.03-.13l-2.15-1.85s-.1-.02-.12.03l-.92,2.58c-.02.06.03.11.09.1Z"/>
    </g>
    <path class="cls-1" d="m82.75,104.8l.24,1.06c.03.16,0,.22-.14.25l-.41.09c-.13.03-.2-.01-.23-.16l-.24-1.06-1.02.23c-.15.03-.21.03-.24-.1l-.08-.37c-.03-.13.02-.2.17-.23l1.01-.23-.24-1.08c-.03-.16,0-.19.17-.23l.42-.09c.12-.03.16.01.19.15l.24,1.07,1.02-.23c.14-.03.21.02.24.16l.07.32c.03.13,0,.19-.13.22l-1.05.23Z"/>
  </g>
  <path class="cls-4" d="m97.49,111.7c-.92-.15-1.74-.72-1.78-1.41-.04-.69.89-1.4,2.08-1.4,3.23,0,6.43,1.04,9.12,3.04,1,.74.89,2.11-.1,2.89-1,.79-2.18.88-2.77.28-1.68-1.73-3.96-2.97-6.55-3.39Z"/>
</svg>