<?xml version="1.0" encoding="UTF-8"?>
<svg id="Layer_1" data-name="Layer 1" xmlns="http://www.w3.org/2000/svg" width="300" height="225" viewBox="0 0 300 225">
  <defs>
    <style>
      .cls-1 {
        fill: #fff;
      }

      .cls-2 {
        fill: #23140a;
      }

      .cls-3 {
        opacity: .28;
      }

      .cls-4 {
        fill: #d0dae3;
      }

      .cls-5 {
        isolation: isolate;
        opacity: .35;
      }

      .cls-6 {
        opacity: .65;
      }

      .cls-7 {
        fill: #232323;
      }

      .cls-8 {
        fill: #ff7e1c;
      }

      .cls-9 {
        fill: #444;
      }

      .cls-10 {
        fill: #ea651b;
      }

      .cls-11 {
        opacity: .42;
      }

      .cls-12 {
        fill: #7f7f7f;
      }
    </style>
  </defs>
  <g>
    <g>
      <g>
        <path class="cls-7" d="m146.46,157.28c-.18,1.46-4.94,42.74-11.96,48.54-7.02,5.79-10.71,3.86-12.15,2.32-1.5-1.61-3.39-4.5.1-7.77,2.81-2.63,4.77-14.26,1.92-32.4l22.08-10.69Z"/>
        <g>
          <path class="cls-7" d="m117.39,203.65c-.88.25-1.85.1-2.18-.49-.33-.59.19-1.62,1.25-2.13,2.87-1.37,6.15-1.82,9.38-1.2,1.2.23,1.69,1.49,1.14,2.61-.55,1.12-1.56,1.71-2.34,1.43-2.23-.83-4.78-.95-7.25-.22Z"/>
          <path class="cls-7" d="m118.78,208.78c-.78.49-1.75.62-2.23.13-.48-.48-.26-1.62.61-2.39,2.37-2.11,5.4-3.45,8.68-3.75,1.22-.1,2.04.96,1.82,2.19-.21,1.23-1.02,2.08-1.85,2.02-2.37-.17-4.85.41-7.03,1.8Z"/>
          <path class="cls-7" d="m122.58,212.66c-.47.79-1.27,1.34-1.92,1.14-.65-.21-.97-1.32-.54-2.41,1.15-2.96,3.24-5.53,6.02-7.29,1.03-.66,2.25-.08,2.62,1.12.37,1.2.04,2.32-.73,2.64-2.19.93-4.13,2.58-5.44,4.8Z"/>
        </g>
      </g>
      <g>
        <path class="cls-7" d="m150.76,156.89c.19,1.46,5.1,42.72,12.14,48.49,7.04,5.77,10.73,3.82,12.16,2.28,1.49-1.61,3.38-4.51-.13-7.77-2.82-2.62-4.82-14.24-2.04-32.39l-22.12-10.6Z"/>
        <g>
          <path class="cls-7" d="m178.79,203.64c.88.25,1.85.1,2.18-.5.33-.6-.2-1.62-1.26-2.12-2.87-1.36-6.16-1.8-9.38-1.16-1.2.24-1.69,1.5-1.14,2.61.55,1.12,1.57,1.71,2.34,1.42,2.23-.83,4.78-.97,7.25-.25Z"/>
          <path class="cls-7" d="m177.42,208.77c.78.49,1.75.61,2.24.13.48-.48.26-1.62-.62-2.39-2.38-2.1-5.42-3.43-8.69-3.72-1.22-.1-2.04.97-1.81,2.2.22,1.23,1.03,2.07,1.86,2.01,2.37-.19,4.85.4,7.03,1.77Z"/>
          <path class="cls-7" d="m173.64,212.66c.47.78,1.28,1.34,1.93,1.13.65-.21.97-1.32.54-2.41-1.16-2.95-3.26-5.52-6.05-7.27-1.04-.65-2.25-.07-2.61,1.13-.37,1.2-.03,2.31.74,2.64,2.19.93,4.14,2.57,5.46,4.79Z"/>
        </g>
      </g>
    </g>
    <path class="cls-9" d="m111.1,135.43c1.52-14.23,7.43-31.6,18.67-37.88,4.82-2.69,10.43-4.63,18.16-5.94,1.84.3,3.55.64,5.16,1.02.28.06.55.13.83.2.48.12.95.24,1.41.37.29.08.58.16.87.24.46.13.92.27,1.37.42.23.07.47.14.7.22.64.21,1.27.43,1.88.66.18.07.35.14.53.21.46.18.92.36,1.36.55.21.09.41.18.62.27.42.19.84.38,1.25.58.17.08.35.17.52.25.57.29,1.13.57,1.68.88,12.07,6.67,18.06,26.09,19.08,40.77.09,2.14.13,4.18.13,6.11,0,4.97-.32,9.1-.9,11.59-.03.12-.08.23-.11.34-3,13.66-18.09,24.07-36.29,24.11-20.38.04-36.92-12.95-36.95-29,0-.15,0-.29.01-.44-.32-4.14-.33-9.61,0-15.53Z"/>
    <path class="cls-1" d="m120.74,95.6c4.66-5.32,10.71-7.94,22.64-8.46.19-.01.38-.02.57-.02.6-.02,1.21-.04,1.84-.06.63-.01,1.26-.02,1.91-.03.08,0,.14,0,.22,0h.13s.09,0,.13,0c.69,0,1.36,0,2.02.02.75.01,1.47.03,2.19.06.07,0,.14,0,.21,0,11.94.48,18,3.07,22.68,8.38,6.19,7.02,9.34,27.11,10,42.75-1.02-14.69-7.02-34.1-19.08-40.77-4.83-2.67-10.45-4.6-18.18-5.87-7.73,1.31-13.34,3.25-18.16,5.94-12.04,6.72-17.96,26.15-18.93,40.84.59-15.64,3.67-35.75,9.83-42.79Z"/>
    <path class="cls-7" d="m190.94,124.59c1.81,2.68,5.24,3.75,8.21,1.82,2.96-1.92,3.95-7.15,1.45-10.9-7.11-10.69-18.45-16.67-31.29-16.5-4.51.06-8.27,3.83-8.18,7.35.09,3.54,2.9,5.77,6.14,5.75,9.71-.13,18.29,4.39,23.68,12.48Z"/>
    <path class="cls-7" d="m125.02,101.34c2.05-2.5,5.56-3.24,8.34-1.04,2.77,2.18,3.27,7.48.42,10.99-8.08,9.98-19.93,14.88-32.69,13.51-4.49-.48-7.88-4.59-7.46-8.08.42-3.52,3.43-5.47,6.65-5.15,9.66,1.03,18.62-2.67,24.73-10.23Z"/>
    <path class="cls-7" d="m89.56,119.81c-.92-.16-1.89.1-2.15.74-.26.63.38,1.62,1.5,2.01,3.04,1.07,6.41,1.15,9.61.17,1.19-.37,1.55-1.69.87-2.76-.68-1.08-1.77-1.56-2.52-1.18-2.16,1.07-4.72,1.48-7.3,1.02Z"/>
    <path class="cls-7" d="m90.38,114.48c-.84-.41-1.83-.43-2.27.11-.44.54-.09,1.66.88,2.35,2.63,1.87,5.84,2.88,9.18,2.82,1.24-.02,1.95-1.2,1.6-2.41-.36-1.22-1.26-1.98-2.1-1.83-2.38.44-4.95.12-7.3-1.03Z"/>
    <path class="cls-1" d="m55.33,72.08l25.06-4.71c1.5-.28,2.86,0,4.1.85,1.24.86,2,2.02,2.28,3.51l8.74,46.56c.28,1.49,0,2.86-.85,4.1-.85,1.24-2.01,2-3.51,2.28l-25.06,4.71c-1.5.28-2.87,0-4.1-.86-1.25-.85-2.01-2.02-2.29-3.51l-8.74-46.56c-.28-1.49,0-2.85.86-4.1.84-1.24,2.01-2,3.51-2.28Z"/>
    <path class="cls-7" d="m63.15,113.71c.07.38.26.67.56.88.31.21.66.28,1.03.21l22.38-4.2c.37-.07.66-.26.88-.57.21-.31.28-.65.21-1.02l-6.56-34.92c-.07-.37-.26-.66-.57-.88-.32-.21-.66-.29-1.03-.21l-22.38,4.2c-.37.07-.66.26-.88.57-.21.31-.27.65-.2,1.02l6.56,34.92Z"/>
    <path class="cls-4" d="m77.95,123.45c.97-.18,1.74-.69,2.32-1.53.57-.84.78-1.75.59-2.72-.18-.96-.7-1.74-1.54-2.32-.85-.57-1.75-.78-2.72-.59-.97.18-1.74.7-2.32,1.54-.57.84-.77,1.75-.59,2.71.18.97.7,1.75,1.53,2.32.85.58,1.75.77,2.72.59Z"/>
    <g>
      <g>
        <path class="cls-10" d="m72.25,109.39c.36.34.77.63,1.24.86,2.38,1.14,5.23.14,6.37-2.23.61-1.27.61-2.67.12-3.88-.02.8-.2,1.6-.57,2.37-1.29,2.69-4.42,3.91-7.16,2.89Z"/>
        <path class="cls-8" d="m71.26,103.88c-.92,1.91-.45,4.12.99,5.51,2.74,1.02,5.87-.2,7.16-2.89.37-.76.55-1.57.57-2.37-.43-1.06-1.24-1.96-2.35-2.49-2.38-1.14-5.23-.14-6.37,2.23Z"/>
      </g>
      <path class="cls-1" d="m77.01,105.82c.12.12.19.3.2.53,0,.28-.09.5-.27.66-.16.13-.42.22-.76.29l.07.54-.39.05-.07-.53-.3.04.07.53-.39.05-.07-.54-.77.1.02-.47h.08c.13-.02.21-.03.25-.05.05-.02.08-.07.08-.13l-.22-1.72c-.03-.08-.08-.13-.15-.14-.05,0-.15,0-.3.02h-.06s-.05-.41-.05-.41l.24-.02c.28-.04.46-.06.53-.08l-.08-.63.39-.05.08.62.3-.05-.08-.61.39-.05.08.63c.27,0,.49.03.64.1.19.09.3.23.35.44.07.3-.01.53-.24.69h0c.2.02.36.08.46.19h0Zm-1.74-.13h.06c.22-.03.39-.06.51-.11.21-.08.3-.21.28-.38-.02-.17-.14-.28-.35-.31-.12-.02-.29,0-.52.02-.04.01-.06.02-.07.02l.1.77Zm.23,1.22c.27-.03.47-.07.61-.12.24-.09.35-.24.33-.43-.02-.19-.16-.3-.41-.34-.14-.02-.34,0-.61.04h-.09s.11.85.11.85h.07Z"/>
    </g>
    <path class="cls-7" d="m90.86,111.7c-.92-.15-1.74-.72-1.78-1.41-.04-.69.89-1.4,2.08-1.4,3.23,0,6.43,1.04,9.12,3.04,1,.74.89,2.11-.1,2.89-1,.79-2.18.88-2.77.28-1.68-1.73-3.96-2.97-6.55-3.39Z"/>
    <g class="cls-3">
      <path class="cls-1" d="m73.34,94.4l1.84,4.61s0,.09-.05.1l-1.6.37s-.09-.02-.09-.07l-.49-5.04.33-.02s.06.02.07.05Z"/>
      <path class="cls-1" d="m71.95,95.68l3.07-.72c.06-.01.08-.09.03-.13l-2.15-1.85s-.1-.02-.12.03l-.92,2.58c-.02.06.03.11.09.1Z"/>
    </g>
    <g class="cls-11">
      <path class="cls-1" d="m71.45,86.07l1.84,4.61s0,.09-.05.1l-1.6.37s-.09-.02-.09-.07l-.49-5.04.33-.02s.06.02.07.05Z"/>
      <path class="cls-1" d="m70.06,87.35l3.07-.72c.06-.01.08-.09.03-.13l-2.15-1.85s-.1-.02-.12.03l-.92,2.58c-.02.06.03.11.09.1Z"/>
    </g>
    <g class="cls-6">
      <path class="cls-1" d="m69.56,77.75l1.84,4.61s0,.09-.05.1l-1.6.37s-.09-.02-.09-.07l-.49-5.04.33-.02s.06.02.07.05Z"/>
      <path class="cls-1" d="m68.16,79.02l3.07-.72c.06-.01.08-.09.03-.13l-2.15-1.85s-.1-.02-.12.03l-.92,2.58c-.02.06.03.11.09.1Z"/>
    </g>
    <g class="cls-5">
      <ellipse class="cls-7" cx="149.58" cy="207.08" rx="49.71" ry="8.02"/>
    </g>
  </g>
  <g>
    <path class="cls-1" d="m119.63,56.59c4.15-13.02,16.18-15.53,37.51-5.81,6.77,3.08,16.92-1.41,22.41-.31,15.79,3.17,14.32,13.77,14.32,13.77l.03.02c1.43-18.92-12.98-38.07-35.3-45.09-25.33-7.95-51.26,2.74-57.9,23.89-6.65,21.15,8.5,44.75,33.84,52.71,2.21.69,4.42,1.24,6.62,1.65v-.02c-22.79-5.46-27.05-23.54-21.54-40.81Z"/>
    <path class="cls-9" d="m193.9,64.26l-.03-.02s1.47-10.6-14.32-13.77c-5.49-1.1-15.64,3.39-22.41.31-15.31-6.97-25.83-7.65-32.08-2.66-.38-.57-.86-.97-1.42-1.13-2.9-.87-7.07,4.43-9.29,11.86-2.22,7.41-1.67,14.14,1.23,15.01.65.2,1.37.06,2.12-.32,1.29,10.92,8.23,20.22,23.48,23.87v.02c23.07,4.35,45.21-6.24,51.27-25.54.79-2.52,1.26-5.07,1.46-7.62Z"/>
    <path class="cls-12" d="m153.3,93.84c-4.92-1.34-13.09-8.51-8.1-18.01,4.99-9.51,16.91-7.13,20.78-6.07,3.88,1.06,15.02,4.95,10.03,14.45-4.99,9.51-17.79,10.98-22.71,9.64Z"/>
    <path class="cls-7" d="m164.91,72.31c2.14.58,4.19,3.56,3.26,6.14-.93,2.57-7.06.8-7.06.8l-.18-.05s-6.23-1.59-4.56-3.97c1.67-2.37,5.94-3.63,8.08-3.05l.46.13Z"/>
    <circle class="cls-7" cx="147.07" cy="60.8" r="1.97"/>
    <circle class="cls-7" cx="178.99" cy="65.53" r="1.97"/>
    <path class="cls-7" d="m124.22,52.76c-2.4-.7-5.82,3.13-8.66,9.2.18-.82.4-1.67.66-2.53,1.78-5.82,4.76-10.08,6.66-9.53.81.24,1.29,1.31,1.44,2.91-.04-.01-.07-.04-.11-.05Z"/>
    <path class="cls-12" d="m141.15,59.74c-.09,0-.18-.02-.27-.05-.35-.15-.51-.55-.37-.9.3-.72.74-1.36,1.29-1.92.55-.55,1.2-.99,1.92-1.29.74-.31,1.53-.47,2.34-.47h0c.81,0,1.6.16,2.34.47.35.15.51.55.37.9s-.55.51-.9.37c-.57-.24-1.18-.36-1.81-.36-.6,0-1.24.12-1.81.36-.56.24-1.06.57-1.48,1-.43.43-.76.92-1,1.48-.11.26-.37.42-.63.42Z"/>
    <path class="cls-12" d="m184.7,66.21c-.37,0-.68-.3-.69-.67-.01-.63-.15-1.23-.41-1.8-.26-.58-.62-1.09-1.07-1.5-.44-.41-.95-.73-1.52-.95-.55-.21-1.16-.31-1.76-.3-.37,0-.69-.3-.7-.68,0-.38.3-.69.68-.7.77,0,1.56.12,2.27.39.74.28,1.4.69,1.97,1.22.58.53,1.05,1.19,1.39,1.94.33.74.51,1.52.53,2.34,0,.38-.29.69-.67.7h-.01Z"/>
    <path class="cls-7" d="m162.25,89.21c-.11,0-.23-.03-.33-.1l-10.28-6.53c-.29-.18-.38-.57-.19-.86.18-.29.57-.38.86-.19l10.28,6.53c.29.18.38.57.19.86-.12.19-.32.29-.53.29Z"/>
  </g>
  <path class="cls-7" d="m199.79,119.73c-.33-.87-.26-1.87.31-2.25.57-.39,1.66.06,2.26,1.09,1.63,2.79,2.37,6.07,2.01,9.4-.13,1.24-1.36,1.84-2.54,1.38-1.18-.46-1.87-1.43-1.64-2.25.64-2.33.55-4.92-.4-7.36Z"/>
  <path class="cls-7" d="m197.35,122.26c-.33-.87-.26-1.87.31-2.25.57-.39,1.66.06,2.26,1.09,1.63,2.79,2.37,6.07,2.01,9.4-.13,1.24-1.36,1.84-2.54,1.38-1.18-.46-1.87-1.43-1.64-2.25.64-2.33.55-4.92-.4-7.36Z"/>
  <path class="cls-7" d="m193.75,123.7c-.33-.87-.26-1.87.31-2.25.57-.39,1.66.06,2.26,1.09,1.63,2.79,2.37,6.07,2.01,9.4-.13,1.24-1.36,1.84-2.54,1.38-1.18-.46-1.87-1.43-1.64-2.25.64-2.33.55-4.92-.4-7.36Z"/>
  <path class="cls-7" d="m191.32,121.34c-.33-.87-.26-1.87.31-2.25.57-.39,1.66.06,2.26,1.09,1.63,2.79,2.37,6.07,2.01,9.4-.13,1.24-1.36,1.84-2.54,1.38-1.18-.46-1.87-1.43-1.64-2.25.64-2.33.55-4.92-.4-7.36Z"/>
  <g>
    <g>
      <ellipse class="cls-1" cx="190.61" cy="113.19" rx="8.42" ry="6.93" transform="translate(-24.21 167.94) rotate(-45)"/>
      <path class="cls-2" d="m189.12,121.39c-1.82,0-3.54-.62-4.82-1.9-2.9-2.9-2.42-8.08,1.05-11.56,3.48-3.48,8.66-3.95,11.56-1.05,2.9,2.9,2.42,8.08-1.05,11.56h0c-1.95,1.95-4.43,2.95-6.74,2.95Zm2.98-15.41c-2.05,0-4.28.91-6.03,2.66-3.09,3.09-3.56,7.64-1.05,10.14,2.51,2.51,7.06,2.03,10.14-1.05,3.09-3.09,3.56-7.64,1.05-10.14-1.08-1.08-2.55-1.61-4.11-1.61Z"/>
    </g>
    <rect class="cls-2" x="186.94" y="110.85" width="7.77" height="1" transform="translate(60.31 289.62) rotate(-84.06)"/>
    <rect class="cls-2" x="188.17" y="111.9" width="6.47" height="1" transform="translate(-23.42 168.26) rotate(-45)"/>
  </g>
</svg>