<?xml version="1.0" encoding="UTF-8"?>
<svg id="Layer_1" data-name="Layer 1" xmlns="http://www.w3.org/2000/svg" width="300" height="225" viewBox="0 0 300 225">
  <defs>
    <style>
      .cls-1 {
        fill: #fff;
      }

      .cls-2 {
        opacity: .5;
      }

      .cls-3 {
        isolation: isolate;
        opacity: .35;
      }

      .cls-4 {
        fill: #232323;
      }

      .cls-5 {
        fill: #ff7e1c;
      }

      .cls-6 {
        fill: #444;
      }

      .cls-7 {
        opacity: .4;
      }

      .cls-8 {
        fill: #dda905;
      }

      .cls-9 {
        fill: none;
      }

      .cls-10 {
        fill: #ea651b;
      }

      .cls-11 {
        fill: #3ed033;
      }

      .cls-12 {
        fill: #7f7f7f;
      }

      .cls-13 {
        fill: #3050c4;
      }

      .cls-14 {
        fill: #231f20;
      }

      .cls-15 {
        fill: #ffcf15;
      }
    </style>
  </defs>
  <g>
    <g class="cls-3">
      <ellipse class="cls-4" cx="196.51" cy="114.01" rx="48.07" ry="7.76"/>
    </g>
    <g>
      <g>
        <path class="cls-4" d="m194.97,64.53c-.17,1.38-4.68,40.45-11.32,45.94-6.65,5.48-10.14,3.65-11.5,2.19-1.42-1.52-3.21-4.26.1-7.35,2.66-2.49,4.51-13.5,1.82-30.66l20.9-10.12Z"/>
        <g>
          <path class="cls-4" d="m167.46,108.42c-.83.24-1.75.1-2.07-.46-.31-.56.18-1.54,1.18-2.01,2.71-1.3,5.82-1.72,8.88-1.13,1.14.22,1.6,1.41,1.08,2.47-.52,1.07-1.47,1.62-2.21,1.35-2.11-.78-4.52-.9-6.86-.21Z"/>
          <path class="cls-4" d="m168.77,113.27c-.74.46-1.66.59-2.11.13-.46-.45-.25-1.53.58-2.27,2.25-2,5.11-3.26,8.22-3.55,1.15-.1,1.93.91,1.72,2.08-.2,1.16-.97,1.96-1.75,1.91-2.24-.16-4.59.39-6.65,1.7Z"/>
          <path class="cls-4" d="m172.36,116.95c-.44.74-1.21,1.27-1.82,1.08-.61-.2-.92-1.25-.51-2.28,1.09-2.8,3.07-5.24,5.7-6.9.98-.62,2.13-.07,2.48,1.06.35,1.13.04,2.19-.69,2.5-2.07.88-3.91,2.44-5.15,4.54Z"/>
        </g>
      </g>
      <g>
        <path class="cls-4" d="m199.04,64.17c.18,1.38,4.82,40.43,11.49,45.9,6.66,5.46,10.15,3.61,11.5,2.15,1.41-1.53,3.2-4.27-.12-7.35-2.67-2.48-4.56-13.48-1.94-30.66l-20.93-10.04Z"/>
        <g>
          <path class="cls-4" d="m225.57,108.41c.83.24,1.75.09,2.06-.47.31-.56-.19-1.54-1.19-2.01-2.72-1.29-5.83-1.7-8.88-1.1-1.14.23-1.6,1.42-1.07,2.47.52,1.06,1.48,1.61,2.22,1.34,2.11-.78,4.52-.91,6.87-.23Z"/>
          <path class="cls-4" d="m224.27,113.27c.74.46,1.66.58,2.11.12.46-.45.25-1.53-.59-2.26-2.25-1.99-5.13-3.25-8.23-3.52-1.15-.09-1.93.92-1.72,2.08.21,1.16.98,1.96,1.76,1.9,2.24-.17,4.59.38,6.66,1.68Z"/>
          <path class="cls-4" d="m220.69,116.95c.44.74,1.21,1.27,1.83,1.07.61-.2.92-1.25.51-2.28-1.1-2.8-3.08-5.22-5.72-6.88-.98-.62-2.13-.06-2.47,1.07-.35,1.13-.03,2.19.7,2.5,2.07.87,3.91,2.43,5.16,4.52Z"/>
        </g>
      </g>
    </g>
    <g class="cls-3">
      <ellipse class="cls-4" cx="196.85" cy="205.69" rx="74.2" ry="11.97"/>
    </g>
    <g>
      <circle class="cls-13" cx="196.09" cy="106.56" r="97.33"/>
      <path class="cls-9" d="m290.38,90.34c1.49.6,2.61-.56,4.24-2,1.63-1.44-3.45-3.22-6-4.14-2.12-.77-2.36,0-2.99.25.37,1.49.7,2.99.99,4.51,1.36.15,2.61.92,3.77,1.39Z"/>
      <path class="cls-9" d="m288.61,97.19c-.15-.29-.41-.5-.85-.61.19,1.73.33,3.47.42,5.22.97-1.75.7-4.1.43-4.61Z"/>
      <g>
        <path class="cls-13" d="m163.16,174.42c-2.68-2.41-10.58-10.84-11.11-17.59-.41-4.92,2.78-7.94,4.7-9.87.63-.54,1.26-1.09,1.29-1.39.06-.61-3.74-3.43-6.47-5.24-.52-.66-1.35-1.05-2.16-1.75-2.73-1.8-3.68-4.03-4.4-5.63-.23-.63-.46-1.27-.75-1.3-.57-.06-1.38-.75-2.47-1.47-2.18-1.44-5.72-3.94-8.91-3.97-5.17-.53-9.72-7.7-9.92-8.64-.2-.93-2.05-9.05-2.83-10.04-1.03-1.32-8.09-12.72-9.3-15.28-1.47-2.89-.89-15.32,3.27-22.51,1.66-2.87,2.1-6.27,2.07-9.2-7.81,13.54-12.28,29.25-12.28,46,0,38.78,23.94,71.97,57.86,85.59.15-.53.31-1.01.47-1.38,1.37-2.29,3.48-15.48.95-16.35Z"/>
        <path class="cls-13" d="m262.21,161.86c1.68-2.23,0-10.62-2.98-13.97-2.98-3.35,0-6.71-.37-8.38-.37-1.68-2.79,0-4.09-1.82-1.31-1.83,6.7-5.25-6.52-1.53-13.22,3.72-13.22,0-17.88-4.28-4.65-4.28-2.79-5.03-3.17-13.04-.37-8.01,6.33-9.5,9.13-13.84,2.79-4.34,5.77-6.46,16.57-8.14,10.8-1.68,6.89,2.79,6.89,4.44s10.43,4.31,10.43,3.57-1.3-3.91,1.12-3.54c1.31.37,13.97,2.42,13.97,2.42,1.46-.21,2.35-1,2.87-1.95-.09-1.75-.23-3.49-.42-5.22-.76-.18-2.07-.04-4.37.61-3.63,1.02-5.77-2.51-5.96-4.84-.19-2.33,6.19-2.98,8-3.35.4-.08.79-.08,1.17-.04-.29-1.51-.62-3.02-.99-4.51-.13.05-.27.09-.46.08-1.07-.05-1.82-1.35-2.51-2.42-.7-1.07-1.96,1.49-2.33,2.28-.37.79-.79,2.51-.65,3.91.14,1.4-.84,1.86-1.58,2.33-.75.47-.84-.19-1.49-.56s-2.23.23-2.93,1.68c-.7,1.44.23,4.75.09,4.79-.14.05-1.67-.47-2.79-1.86-1.12-1.4-2.42-4.84-2.56-5.87-.14-1.03-2.93-3.68-4.84-4.33-1.91-.65-.23,2.14.09,2.65.32.51,2.84,2.33,2.98,3.59.14,1.25-2.47,5.68-1.82,4.1.65-1.58-1.31-2.33-1.86-3.54-.56-1.21-2.7-2.52-4.56-4.57-1.86-2.05-2.61-.09-3.82-.65-1.21-.56-2.23.74-3.35.47-1.12-.28-.74,1.3-.84,2.79-.09,1.49-.65.74-2.42,2.51-1.77,1.77-1.49,3.07-2.51,3.72-1.02.65-3.07,1.22-6.15,1.31-3.07.09-2.89-1.4-2.79-2.98.09-1.58.56-3.72,1.49-5.68.93-1.96,5.87-1.02,6.89-1.31,1.02-.28.37-1.87.37-3.77s-2.33-2.89-3.3-3.54c-.98-.65.98-.75,3.21-1.3,2.23-.56,3.63-1.68,4.19-2.84.56-1.16,3.26-3.49,4.52-4.38,1.26-.89,2.42-1.21,3.35-1.86.93-.65,2.68,1.12,2.68,1.12l8.24-1.33s1.61-.91,1.89-2.45c.28-1.54.28-1.74,1.33-4.26.63-1.51,2.5-2.44,3.89-3.02-.21-.36-.43-.72-.65-1.07-.73.04-1.61.13-2.6.32-2.93.56-2.37-1.6-2.93-2.86-.5-1.13-.1-1.71,1.15-3.93-.48-.65-.97-1.3-1.47-1.94-.19.04-.39.06-.59.08-2.17.14-1.89,3-2.51,3.77-.63.77-.84,1.47-.35,4.12.49,2.65-2.3,8.59-3.77,8.87-1.47.28-3.56-4.05-3.91-4.61-.35-.56-2.86,1.68-4.61,1.68s-1.75-5.38-.63-7.12c1.12-1.75,5.01-4.4,6.4-7.38,1.11-2.37,1.88-4.39,3.51-6.81-16.76-17.28-40.22-28.02-66.19-28.02-15.7,0-30.48,3.93-43.42,10.85,2.04.46,4.38.77,6.12.75,3.19.02,7.21.44,11.72,1.82,1.41.45,2.56.57,3.42.66,2.01.21,3.45.36,4.37,2.89,1.09.72,4.14,2.25,4.26,4.09-.06.6-.43,1.48-1.35,2-.95.82-6.74,3.87-9.12,4.54-1.49.46-8.84,4.57-9.5,5.42-.03.3-.28,3.02-.51,5.43,1.67.78,5.81,3.04,6.53,4.64.26.33.55.36,1.41.45.58.06,1.18-.18,1.7.48.26.33.52.66.46,1.27l-.06.6c-.37,3.92.09,5.19.35,5.52.34-.57.46-1.78.83-2.66.51-2.38,1-4.47,2.72-4.29.57.06,1.52-.76,2.24-2.2.66-.85.43-1.48.43-1.48-1.06-1.02-.58-3.11,1.4-5.64.03-.3.31-.27.34-.57,1.03-1.72,2.35-3.41,3.81-3.57.57.06,1.15.12,1.67.78,1.07,1.02,2.36,2.68,3.4,4.01.78.99,1.3,1.66,1.55,1.99.54.36.75,1.3.67,2.2-.03.3.2.94.17,1.24,1.21-.48,3.3-1.18,4.39-.46.55.36.81.69,1.04,1.33.23.63.14,1.54.35,2.47.17,1.24.52,3.71,1.04,4.37.78.99,2.1,2.35,2.79,4.25-.03.3.23.63.49.97.49.96.98,1.93.61,2.8-.34.57-.97,1.12-2.18,1.6-1.81.73-3.53.55-5,.7-1.46.16-2.9,0-3.82.52-1.83,1.03-2.52,2.18-1.86,4.38-.03.3.23.63.2.93.17,1.24.66,2.2,0,3.05-.37.87-1.26,1.09-2.73,1.24-.29-.03-.89.21-1.46.15-2.33.06-6.12.28-6.23,1.49-.2,2.11-2.01,2.84-3.21,3.32-.31.27-.92.51-1.23.79-.32.27-.63.54-1.23.79-1.24.79-4.91,2.84-4.99,3.75.38,2.17-2.58,5.83-4.7,6.82-1.52.76-3.87,4.17-4.24,5.04-.03.3-.06.6-.11,1.21-.14,1.51-.34,3.62-1.8,3.77-.86-.09-1.61-1.38-2.62-3.01-.49-.97-1.5-2.59-2.07-2.65-.86-.09-2.3-.24-3.47-.05-1.46.15-2.93.31-4.08.19-3.73-.39-6.69.22-6.75.82-.34.57-.72,1.45-1.12,2.62-1.09,2.33-3.29,7.28-1.94,8.33,2.44,1.78,4.37,2.89,5.52,3.01.29.03,1.52-.76,2.44-1.27,1.86-1.33,3.7-2.36,4.82-1.94.29.03.55.36.81.69.49.97-.23,2.41-1.29,4.44-.31.27-.69,1.15-.71,1.45.26.33,1.12.42,1.67.78,2.53.87,3.91,1.62,4.14,2.26.26.33.46,1.26.32,2.77-.09.9-.02,3.35.24,3.68,1.38.75,6.73,2.52,7.61,2.31.29.03.89-.21,1.49-.46,2.98-.91,5.68-1.85,7.32-.77,1.93,1.11,4.48,1.68,6.2,1.86,2.01.21,8.48,2.4,9.97,4.99,1.24,2.26,4.05,3.16,4.63,3.22,1.15.12,5.32,5.12,5.15,6.93.2.93,4.54,4.12,5.69,4.24.89-.21,6.29.95,7.01,2.55l.26.33c.75,1.3,2.45,4.82-.02,6.39-1.23.79-3.96,5.07-5.73,8.54-.71,1.45-11.64,9.76-13.16,10.52-1.21.48-4.36,3.2-5.36,4.62-.69,1.15-2.21,1.91-3.7,2.36-.6.24-1.21.49-1.52.76-.34.57-1.32,1.69-2.58,2.78l-9.12.23c8.9,2.86,18.39,4.41,28.25,4.41,26.53,0,50.43-11.2,67.25-29.13-.8-3.29-2.33-6.2-1.14-7.78Zm-20.38-99.5c.84-.14,2.41,1.61,2.41,1.61,0,0-.04,1.26.45,2.58.49,1.33,1.89,3.28,3.07,5.66,1.19,2.37-2.03,3.63-4.89,3.91-2.86.28,0-3.84.49-4.68.49-.83-.28-2.79-.49-3.49-.21-.7-2.1-1.67-2.38-2.93-.28-1.26,1.33-2.66,1.33-2.66Zm-2.65,5.87c2.86-.77,1.54,3.21.7,4.12-.84.91-3.7.7-3.7,0s3-4.12,3-4.12Z"/>
      </g>
      <g>
        <path class="cls-11" d="m179.55,191.35c.31-.27.92-.51,1.52-.76,1.49-.45,3.01-1.21,3.7-2.36,1-1.42,4.16-4.14,5.36-4.62,1.52-.76,12.45-9.07,13.16-10.52,1.78-3.47,4.5-7.76,5.73-8.55,2.47-1.57.77-5.1.02-6.39l-.26-.33c-.72-1.6-6.12-2.77-7.01-2.55-1.15-.12-5.49-3.31-5.69-4.24.17-1.81-4-6.81-5.15-6.93-.58-.06-3.39-.96-4.63-3.22-1.5-2.59-7.96-4.78-9.97-4.99-1.72-.18-4.28-.75-6.21-1.86-1.64-1.08-4.34-.14-7.32.77-.6.25-1.21.49-1.49.46-.89.21-6.23-1.56-7.61-2.31-.26-.33-.32-2.78-.24-3.68.14-1.51-.06-2.44-.32-2.77-.23-.63-1.61-1.38-4.14-2.25-.55-.36-1.41-.45-1.67-.78.03-.3.4-1.18.71-1.45,1.06-2.02,1.77-3.47,1.29-4.44-.26-.33-.52-.66-.81-.69-1.12-.42-2.96.61-4.82,1.94-.92.52-2.15,1.3-2.44,1.27-1.15-.12-3.07-1.23-5.52-3.01-1.35-1.05.85-6,1.94-8.33.4-1.17.77-2.05,1.12-2.62.06-.6,3.01-1.21,6.75-.83,1.15.12,2.61-.03,4.08-.19,1.18-.18,2.61-.03,3.47.06.57.06,1.58,1.69,2.07,2.65,1.01,1.63,1.76,2.92,2.62,3.01,1.46-.15,1.66-2.26,1.8-3.77.06-.6.08-.9.11-1.21.37-.87,2.72-4.29,4.24-5.04,2.12-1,5.07-4.65,4.7-6.83.09-.91,3.76-2.96,4.99-3.75.6-.24.92-.52,1.23-.79.31-.27.92-.52,1.23-.79,1.2-.48,3.01-1.21,3.21-3.32.11-1.21,3.9-1.43,6.23-1.49.57.06,1.18-.18,1.46-.15,1.46-.15,2.36-.37,2.73-1.24.66-.85.17-1.81,0-3.05.03-.3-.23-.63-.2-.94-.66-2.2.02-3.35,1.86-4.38.92-.51,2.35-.36,3.82-.52,1.46-.15,3.19.03,4.99-.7,1.21-.48,1.84-1.03,2.18-1.6.37-.88-.12-1.84-.61-2.81-.26-.33-.52-.66-.49-.97-.69-1.9-2.01-3.25-2.79-4.25-.52-.66-.87-3.13-1.04-4.37-.2-.94-.12-1.84-.35-2.48-.23-.63-.49-.96-1.04-1.32-1.09-.72-3.19-.02-4.39.46.03-.3-.2-.93-.17-1.24.08-.9-.12-1.84-.66-2.2-.26-.33-.78-.99-1.55-1.99-1.04-1.32-2.33-2.98-3.4-4.01-.52-.66-1.09-.72-1.67-.78-1.47.15-2.78,1.84-3.81,3.57-.03.3-.32.27-.34.57-1.98,2.54-2.46,4.62-1.4,5.64,0,0,.23.63-.43,1.48-.72,1.45-1.66,2.26-2.24,2.2-1.72-.18-2.21,1.91-2.72,4.29-.37.88-.48,2.08-.83,2.66-.26-.33-.72-1.6-.35-5.52l.06-.6c.06-.6-.2-.93-.46-1.27-.52-.66-1.12-.42-1.7-.48-.86-.09-1.15-.12-1.41-.45-.72-1.6-4.86-3.85-6.53-4.64.23-2.41.48-5.13.51-5.43.66-.84,8-4.96,9.5-5.41,2.38-.67,8.18-3.72,9.12-4.54.92-.52,1.29-1.39,1.35-2-.12-1.84-3.17-3.37-4.26-4.1-.92-2.53-2.36-2.68-4.37-2.89-.86-.09-2.01-.21-3.42-.66-4.51-1.38-8.53-1.8-11.72-1.82-1.74.02-4.08-.29-6.12-.75-15.23,8.14-27.9,20.43-36.51,35.36.03,2.93-.42,6.33-2.07,9.2-4.15,7.18-4.74,19.61-3.27,22.51,1.21,2.56,8.26,13.95,9.3,15.28.78.99,2.63,9.11,2.83,10.04.2.93,4.75,8.11,9.92,8.64,3.19.03,6.73,2.52,8.91,3.97,1.09.72,1.9,1.42,2.47,1.47.29.03.52.66.75,1.3.72,1.6,1.67,3.83,4.4,5.63.81.69,1.64,1.08,2.16,1.75,2.73,1.81,6.53,4.64,6.47,5.24-.03.3-.66.84-1.29,1.39-1.92,1.93-5.11,4.95-4.7,9.87.53,6.75,8.44,15.18,11.11,17.59,2.53.87.42,14.06-.95,16.35-.15.37-.31.85-.47,1.38,2,.81,4.04,1.54,6.11,2.21l9.12-.23c1.26-1.08,2.24-2.2,2.58-2.78Z"/>
        <path class="cls-11" d="m242.88,67.95c.21.7.98,2.65.49,3.49-.49.84-3.35,4.96-.49,4.68,2.86-.28,6.08-1.54,4.89-3.91-1.18-2.37-2.58-4.33-3.07-5.66-.49-1.32-.45-2.58-.45-2.58,0,0-1.58-1.75-2.41-1.61,0,0-1.61,1.4-1.33,2.65.28,1.26,2.17,2.23,2.37,2.93Z"/>
        <path class="cls-11" d="m239.88,72.35c.84-.91,2.17-4.89-.7-4.12,0,0-3,3.42-3,4.12s2.87.91,3.7,0Z"/>
        <path class="cls-11" d="m269.07,55.65c.56,1.26,0,3.42,2.93,2.86,1-.19,1.87-.29,2.6-.32-1.37-2.22-2.83-4.38-4.38-6.47-1.25,2.22-1.65,2.8-1.15,3.93Z"/>
        <path class="cls-11" d="m271.37,62.29c-1.05,2.52-1.05,2.72-1.33,4.26-.28,1.54-1.89,2.45-1.89,2.45l-8.24,1.33s-1.74-1.77-2.68-1.12c-.93.65-2.1.98-3.35,1.86-1.26.88-3.96,3.21-4.52,4.38-.56,1.16-1.96,2.28-4.19,2.84-2.23.56-4.19.65-3.21,1.3.98.65,3.3,1.63,3.3,3.54s.65,3.49-.37,3.77c-1.02.28-5.96-.65-6.89,1.31-.93,1.96-1.4,4.09-1.49,5.68-.09,1.58-.28,3.07,2.79,2.98,3.07-.09,5.12-.66,6.15-1.31,1.02-.65.74-1.95,2.51-3.72,1.77-1.77,2.33-1.02,2.42-2.51.09-1.49-.28-3.07.84-2.79,1.12.28,2.14-1.03,3.35-.47,1.21.56,1.96-1.4,3.82.65,1.86,2.05,4,3.36,4.56,4.56.56,1.21,2.51,1.96,1.87,3.54-.65,1.58,1.95-2.84,1.82-4.1-.14-1.26-2.66-3.07-2.98-3.59-.33-.51-2-3.3-.09-2.65,1.91.65,4.7,3.31,4.84,4.33.14,1.02,1.44,4.47,2.56,5.87,1.12,1.4,2.66,1.91,2.79,1.86.14-.05-.79-3.35-.09-4.79.7-1.44,2.28-2.05,2.93-1.68.65.37.74,1.02,1.49.56.75-.47,1.72-.93,1.58-2.33-.14-1.4.27-3.12.65-3.91.37-.79,1.63-3.35,2.33-2.28.7,1.07,1.44,2.37,2.51,2.42.18,0,.33-.03.46-.08-2.21-8.98-5.74-17.45-10.37-25.18-1.39.58-3.25,1.51-3.88,3.02Z"/>
        <path class="cls-11" d="m252.37,56.56c-1.12,1.75-1.12,7.13.63,7.13s4.26-2.23,4.61-1.68c.35.56,2.45,4.89,3.91,4.61,1.47-.28,4.26-6.22,3.77-8.87-.49-2.65-.28-3.35.35-4.12.63-.77.35-3.63,2.51-3.77.2-.01.39-.04.59-.08-2.02-2.58-4.18-5.05-6.46-7.4-1.62,2.41-2.39,4.44-3.5,6.81-1.4,2.98-5.29,5.63-6.41,7.38Z"/>
        <path class="cls-11" d="m285.44,88.99c-1.82.37-8.19,1.02-8,3.35.18,2.33,2.33,5.87,5.96,4.84,2.3-.65,3.61-.79,4.37-.61-.28-2.58-.66-5.12-1.15-7.63-.38-.04-.77-.04-1.17.04Z"/>
        <path class="cls-11" d="m288.28,108.42c.01-.62.02-1.24.02-1.86,0-1.6-.04-3.18-.12-4.76-.53.96-1.41,1.74-2.87,1.95,0,0-12.66-2.05-13.97-2.42-2.42-.37-1.12,2.79-1.12,3.54s-10.43-1.92-10.43-3.57,3.91-6.11-6.89-4.44c-10.8,1.67-13.78,3.79-16.57,8.14-2.79,4.34-9.5,5.83-9.13,13.84.37,8.01-1.49,8.75,3.17,13.04,4.66,4.28,4.65,8,17.88,4.28,13.22-3.72,5.21-.3,6.52,1.53,1.3,1.82,3.72.15,4.09,1.82.37,1.68-2.61,5.03.37,8.38,2.98,3.35,4.65,11.73,2.98,13.97-1.19,1.59.34,4.49,1.13,7.78,14.65-15.62,23.93-36.34,24.87-59.22l.07-2Z"/>
      </g>
    </g>
    <g class="cls-3">
      <path class="cls-4" d="m137.89,51.66c-.56-2.07-1.85-3.94-3.8-5.2-4.16-2.69-9.71-1.49-12.4,2.67-2.16,3.34-1.81,7.58.57,10.51,0,0,0,0,0,0,.58.72,1.28,1.36,2.11,1.89,4.16,2.69,9.71,1.49,12.4-2.67,1.43-2.22,1.76-4.84,1.12-7.2,0,0,0,0,0,0Zm-14.7,8.41s-.02,0-.03-.01c0,0,.02,0,.03.01Z"/>
      <path class="cls-4" d="m184.49,141.48c-.55-2.07-1.85-3.95-3.8-5.2-4.16-2.69-9.71-1.49-12.4,2.67-2.16,3.34-1.82,7.58.57,10.51,3.65,1.91,8,1.52,11.23-.78-3.23,2.3-7.58,2.69-11.23.78.58.72,1.29,1.36,2.11,1.89,4.16,2.68,9.71,1.49,12.4-2.67,1.43-2.22,1.76-4.83,1.12-7.2,0,0,0,0,0,0Z"/>
      <path class="cls-4" d="m176.64,93.2c1.43-2.22,1.76-4.83,1.12-7.2,0,0,0,0,0,0-.56-2.07-1.85-3.94-3.8-5.2-4.16-2.68-9.71-1.49-12.4,2.67-2.16,3.34-1.81,7.58.57,10.51,3.41,1.78,7.42,1.56,10.56-.35-3.14,1.91-7.15,2.13-10.56.35.58.72,1.28,1.36,2.11,1.89,4.16,2.68,9.71,1.49,12.4-2.67Z"/>
      <path class="cls-4" d="m122.6,89.55c.09-.37.17-.73.22-1.1-.55-2.07-1.85-3.95-3.8-5.2-4.16-2.69-9.71-1.49-12.4,2.67-2.16,3.34-1.81,7.58.57,10.51,4.87,2.55,10.97,1.01,14.02-3.71.13-.19.23-.39.34-.59-.11.2-.21.4-.34.59-3.04,4.71-9.14,6.26-14.02,3.71.58.72,1.29,1.36,2.11,1.89,4.16,2.69,9.71,1.49,12.4-2.67,1.43-2.22,1.76-4.84,1.12-7.2-.05.37-.13.74-.22,1.1Z"/>
      <path class="cls-4" d="m260.69,61.41c.21-.32.4-.65.57-.99-.17.33-.36.67-.56.99-3.04,4.71-9.15,6.25-14.02,3.71.59.72,1.29,1.36,2.11,1.89,4.16,2.69,9.71,1.49,12.4-2.67,1.43-2.22,1.76-4.84,1.12-7.2-.05.33-.12.67-.2,1,.08-.33.15-.66.2-1-.55-2.07-1.85-3.94-3.8-5.2-4.16-2.69-9.71-1.49-12.4,2.67-2.16,3.34-1.82,7.58.57,10.51,4.87,2.55,10.97,1.01,14.02-3.71Z"/>
      <path class="cls-4" d="m261.72,131.5c-.56-2.07-1.85-3.94-3.8-5.2-4.16-2.69-9.71-1.49-12.4,2.67-2.16,3.34-1.82,7.58.57,10.51.99.52,2.03.86,3.09,1.05-1.06-.19-2.1-.53-3.09-1.05.58.72,1.28,1.36,2.11,1.89,4.16,2.69,9.71,1.49,12.4-2.67,1.43-2.22,1.76-4.84,1.12-7.2,0,0,0,0,0,0Z"/>
      <path class="cls-4" d="m256.65,95.17c1.43-2.22,1.76-4.84,1.12-7.2-.08.54-.21,1.07-.38,1.6.16-.53.3-1.06.38-1.6-.55-2.07-1.85-3.95-3.8-5.2-4.16-2.69-9.71-1.49-12.4,2.67-2.16,3.34-1.81,7.58.57,10.51,4.87,2.55,10.97,1.01,14.02-3.71-3.04,4.71-9.14,6.26-14.02,3.71.58.72,1.28,1.36,2.11,1.89,4.16,2.69,9.71,1.49,12.4-2.67Z"/>
      <path class="cls-4" d="m217.46,135.32c-.11-.03-.07-.04-.18.03-.15.1-.31.2-.46.29-.02.01-.04.02-.06.04-.02.01-.03,0-.04-.02,0,0,0-.02,0-.03-.12-.41-.24-.82-.37-1.22l-.43-1.42c-.14-.48-.29-.96-.43-1.44-.04-.15-.09-.29-.13-.44-.01-.04-.03-.05-.07-.06-.09-.02-.19-.05-.28-.07-.95-.26-1.91-.52-2.86-.78-.03,0-.06-.03-.1-.02-.02.1-1.81,14.98-1.81,15.07.03,0,.07.02.1.03.96.26,1.93.52,2.89.79.04.01.08.02.11.03.03.01.06,0,.09-.01.1-.07.21-.14.32-.2.08-.05.16-.1.23-.15,0,0,.01,0,.02,0,0,0,.02,0,.02,0,0,.02.02.04.02.06.09.29.17.58.26.86.15.51.31,1.02.46,1.53.14.48.29.95.43,1.43.07.22.14.45.2.67.01.05.04.07.09.08.17.04.34.09.52.14.87.24,1.74.47,2.61.71.03,0,.06.02.1.02,0-.04,0-.08.01-.11.59-4.95,1.19-9.9,1.78-14.85.02-.13.04-.1-.1-.14-.99-.27-1.97-.54-2.96-.8Z"/>
      <path class="cls-4" d="m193.24,50.48c-.11-.03-.07-.04-.18.03-.15.1-.31.19-.46.29-.02.01-.04.02-.06.04-.02.01-.03,0-.04-.02,0,0,0-.02,0-.03-.12-.41-.24-.82-.37-1.22-.14-.47-.29-.95-.43-1.42l-.43-1.44c-.04-.15-.09-.29-.13-.44-.01-.04-.03-.05-.07-.06-.09-.02-.19-.05-.28-.07-.95-.26-1.91-.52-2.86-.78-.03,0-.06-.03-.1-.02-.02.1-1.81,14.98-1.81,15.07.03,0,.07.02.1.03.96.26,1.93.52,2.89.79.04.01.08.02.11.03.03.01.06,0,.09-.01.1-.07.21-.14.32-.2.08-.05.16-.1.23-.15,0,0,.01,0,.02,0,0,0,.02,0,.02,0,0,.02.02.04.02.06.09.29.17.58.26.86.15.51.31,1.02.46,1.53.14.48.29.95.43,1.43.07.22.14.45.2.67.01.05.04.07.09.08.17.04.34.09.52.14.87.24,1.74.47,2.61.71.03,0,.06.02.1.02,0-.04,0-.07.01-.11.59-4.95,1.19-9.9,1.78-14.85.02-.13.04-.1-.1-.14-.99-.27-1.97-.54-2.96-.8Z"/>
      <path class="cls-4" d="m208.99,69.21c-.11-.03-.07-.04-.18.03-.15.1-.31.19-.46.29-.02.01-.04.02-.06.04-.02.01-.03,0-.04-.02,0,0,0-.02,0-.03-.12-.41-.24-.82-.37-1.22-.14-.47-.29-.95-.43-1.42l-.43-1.44c-.04-.15-.09-.29-.13-.44-.01-.04-.03-.05-.07-.06-.09-.02-.19-.05-.28-.07-.95-.26-1.91-.52-2.86-.78-.03,0-.06-.03-.1-.02-.02.1-1.81,14.98-1.81,15.07.03,0,.07.02.1.03.96.26,1.93.52,2.89.79.04.01.08.02.11.03.03.01.06,0,.09-.01.1-.07.21-.14.32-.2.08-.05.16-.1.23-.15,0,0,.01,0,.02,0,0,0,.02,0,.02,0,0,.02.02.04.02.06.09.29.17.58.26.86.15.51.31,1.02.46,1.53.14.48.29.95.43,1.43.07.22.14.45.2.67.01.05.04.07.09.08.17.04.34.09.52.14.87.24,1.74.47,2.61.71.03,0,.06.02.1.02,0-.04,0-.07.01-.11.59-4.95,1.19-9.9,1.78-14.85.02-.13.04-.1-.1-.14-.99-.27-1.97-.54-2.96-.8Z"/>
      <path class="cls-4" d="m175.85,109.24c-.11-.03-.07-.04-.18.03-.15.1-.31.19-.46.29-.02.01-.04.02-.06.04-.02.01-.03,0-.04-.02,0,0,0-.02,0-.03-.12-.41-.24-.82-.37-1.22-.14-.47-.29-.95-.43-1.42l-.43-1.44c-.04-.15-.09-.29-.13-.44-.01-.04-.03-.05-.07-.06-.09-.02-.19-.05-.28-.07-.95-.26-1.91-.52-2.86-.78-.03,0-.06-.03-.1-.02-.02.1-1.81,14.98-1.81,15.07.03,0,.07.02.1.03.96.26,1.93.52,2.89.79.04.01.08.02.11.03.03.01.06,0,.09-.01.1-.07.21-.14.32-.2.08-.05.16-.1.23-.15,0,0,.01,0,.02,0,0,0,.02,0,.02,0,0,.02.02.04.02.06.09.29.17.58.26.86.15.51.31,1.02.46,1.53.14.48.29.95.43,1.43.07.22.14.45.2.67.01.05.04.07.09.08.17.04.34.09.52.14.87.24,1.74.47,2.61.71.03,0,.06.02.1.02,0-.04,0-.07.01-.11.59-4.95,1.19-9.9,1.78-14.85.02-.13.04-.1-.1-.14-.99-.27-1.97-.54-2.96-.8Z"/>
      <path class="cls-4" d="m151.74,65.71c-.11-.03-.07-.04-.18.03-.15.1-.31.19-.46.29-.02.01-.04.02-.06.04-.02.01-.03,0-.04-.02,0,0,0-.02,0-.03-.12-.41-.24-.82-.37-1.22-.14-.47-.29-.95-.43-1.42l-.43-1.44c-.04-.15-.09-.29-.13-.44-.01-.04-.03-.05-.07-.06-.09-.02-.19-.05-.28-.07-.95-.26-1.91-.52-2.86-.78-.03,0-.06-.03-.1-.02-.02.1-1.81,14.98-1.81,15.07.03,0,.07.02.1.03.96.26,1.93.52,2.89.79.04.01.08.02.11.03.03.01.06,0,.09-.01.1-.07.21-.14.32-.2.08-.05.16-.1.23-.15,0,0,.01,0,.02,0,0,0,.02,0,.02,0,0,.02.02.04.02.06.09.29.17.58.26.86.15.51.31,1.02.46,1.53.14.48.29.95.43,1.43.07.22.14.45.2.67.01.05.04.07.09.08.17.04.34.09.52.14.87.24,1.74.47,2.61.71.03,0,.06.02.1.02,0-.04,0-.07.01-.11.59-4.95,1.19-9.9,1.78-14.85.02-.13.04-.1-.1-.14-.99-.27-1.97-.54-2.96-.8Z"/>
      <path class="cls-4" d="m221.91,105.28c-.11-.03-.07-.04-.18.03-.15.1-.31.19-.46.29-.02.01-.04.02-.06.04-.02.01-.03,0-.04-.02,0,0,0-.02,0-.03-.12-.41-.24-.82-.37-1.22-.14-.47-.29-.95-.43-1.42l-.43-1.44c-.04-.15-.09-.29-.13-.44-.01-.04-.03-.05-.07-.06-.09-.02-.19-.05-.28-.07-.95-.26-1.91-.52-2.86-.78-.03,0-.06-.03-.1-.02-.02.1-1.81,14.98-1.81,15.07.03,0,.07.02.1.03.96.26,1.93.52,2.89.79.04.01.08.02.11.03.03.01.06,0,.09-.01.1-.07.21-.14.32-.2.08-.05.16-.1.23-.15,0,0,.01,0,.02,0,0,0,.02,0,.02,0,0,.02.02.04.02.06.09.29.17.58.26.86.15.51.31,1.02.46,1.53.14.48.29.95.43,1.43.07.22.14.45.2.67.01.05.04.07.09.08.17.04.34.09.52.14.87.24,1.74.47,2.61.71.03,0,.06.02.1.02,0-.04,0-.07.01-.11.59-4.95,1.19-9.9,1.78-14.85.02-.13.04-.1-.1-.14-.99-.27-1.97-.54-2.96-.8Z"/>
      <path class="cls-4" d="m147.84,116.28c-.11-.03-.07-.04-.18.03-.15.1-.31.19-.46.29-.02.01-.04.02-.06.04-.02.01-.03,0-.04-.02,0,0,0-.02,0-.03-.12-.41-.24-.82-.37-1.22-.14-.47-.29-.95-.43-1.42-.14-.48-.29-.96-.43-1.44-.04-.15-.09-.29-.13-.44-.01-.04-.03-.05-.07-.06-.09-.02-.19-.05-.28-.07-.95-.26-1.91-.52-2.86-.78-.03,0-.06-.03-.1-.02-.02.1-1.81,14.98-1.81,15.07.03,0,.07.02.1.03.96.26,1.93.52,2.89.79.04.01.08.02.11.03.03.01.06,0,.09-.01.1-.07.21-.14.32-.2.08-.05.16-.1.23-.15,0,0,.01,0,.02,0,0,0,.02,0,.02,0,0,.02.02.04.02.06.09.29.17.58.26.86.15.51.31,1.02.46,1.53.14.48.29.95.43,1.43.07.22.14.45.2.67.01.05.04.07.09.08.17.04.34.09.52.14.87.24,1.74.47,2.61.71.03,0,.06.02.1.02,0-.04,0-.07.01-.11.59-4.95,1.19-9.9,1.78-14.85.02-.13.04-.1-.1-.14-.99-.27-1.97-.54-2.96-.8Z"/>
    </g>
    <g>
      <g>
        <path class="cls-10" d="m123.61,58.29c.58.72,1.28,1.36,2.11,1.89,4.16,2.69,9.71,1.49,12.4-2.67,1.43-2.22,1.76-4.84,1.12-7.2-.22,1.48-.74,2.94-1.61,4.28-3.04,4.72-9.14,6.26-14.02,3.71Z"/>
        <path class="cls-5" d="m123.04,47.78c-2.16,3.34-1.81,7.58.57,10.51,4.87,2.55,10.97,1.01,14.02-3.71.87-1.34,1.39-2.8,1.61-4.28-.56-2.07-1.85-3.94-3.8-5.2-4.16-2.69-9.71-1.49-12.4,2.67Z"/>
      </g>
      <path class="cls-1" d="m133.3,52.74c.2.25.28.6.24,1.04-.06.53-.28.92-.67,1.16-.33.2-.83.32-1.49.36v1.02h-.74v-1.01h-.57v1.01h-.74v-1.02h-1.46l.15-.87h.15c.24,0,.39,0,.47-.02.1-.03.16-.1.18-.22v-3.27c-.03-.16-.11-.26-.26-.3-.09-.03-.28-.04-.57-.03h-.11v-.78l.45.02c.54,0,.87,0,1.01-.02v-1.19h.74v1.17l.57-.02v-1.16h.74v1.19c.51.05.9.16,1.17.33.33.2.51.5.54.9.06.58-.14.99-.62,1.23h0c.37.08.64.24.81.47h0Zm-3.2-.65h.12c.42.01.75-.01.98-.07.4-.1.6-.32.6-.65s-.2-.55-.59-.66c-.22-.06-.54-.09-.98-.07-.07,0-.11.01-.13.01v1.44h0Zm.13,2.33c.52,0,.9-.02,1.16-.08.47-.12.7-.36.7-.72s-.23-.6-.69-.72c-.25-.07-.63-.09-1.14-.07h-.16v1.6h.13Z"/>
    </g>
    <g>
      <g>
        <path class="cls-10" d="m170.21,148.12c.58.72,1.29,1.36,2.11,1.89,4.16,2.68,9.71,1.49,12.4-2.67,1.43-2.22,1.76-4.84,1.12-7.2-.22,1.48-.74,2.94-1.61,4.28-3.04,4.72-9.15,6.26-14.02,3.71Z"/>
        <path class="cls-5" d="m169.65,137.6c-2.16,3.34-1.82,7.58.57,10.51,4.87,2.55,10.97,1.01,14.02-3.71.87-1.34,1.39-2.8,1.61-4.28-.55-2.07-1.85-3.95-3.8-5.2-4.16-2.69-9.71-1.49-12.4,2.67Z"/>
      </g>
      <path class="cls-1" d="m179.9,142.57c.2.25.28.6.24,1.04-.06.53-.28.92-.66,1.16-.33.2-.83.32-1.49.36v1.02h-.74v-1.01h-.57v1.01h-.74v-1.02h-1.46l.15-.87h.15c.24.01.39,0,.47-.02.1-.03.16-.11.18-.22v-3.27c-.03-.16-.11-.26-.26-.3-.09-.03-.28-.04-.57-.03h-.11v-.78l.45.02c.54,0,.87,0,1.01-.02v-1.19h.74v1.17l.57-.02v-1.16h.74v1.19c.51.05.9.16,1.17.33.33.2.51.5.54.9.06.58-.14.99-.62,1.23h0c.37.08.64.24.81.47h0Zm-3.2-.65h.12c.42.01.75-.01.98-.07.4-.1.6-.32.6-.65s-.2-.55-.59-.66c-.22-.06-.54-.08-.98-.07-.07,0-.11.02-.13.02v1.44h0Zm.13,2.33c.51.01.9-.02,1.16-.08.47-.12.7-.36.7-.72s-.23-.6-.69-.72c-.25-.07-.63-.09-1.14-.07h-.16v1.6h.13s0,0,0,0Z"/>
    </g>
    <g>
      <g>
        <path class="cls-10" d="m163.49,92.63c.58.72,1.28,1.36,2.11,1.89,4.16,2.68,9.71,1.49,12.4-2.67,1.43-2.22,1.76-4.84,1.12-7.2-.22,1.48-.74,2.94-1.61,4.28-3.04,4.71-9.14,6.26-14.02,3.71Z"/>
        <path class="cls-5" d="m162.92,82.12c-2.16,3.34-1.81,7.58.57,10.51,4.87,2.55,10.97,1.01,14.02-3.71.87-1.34,1.39-2.8,1.61-4.28-.56-2.07-1.85-3.94-3.8-5.2-4.16-2.68-9.71-1.49-12.4,2.67Z"/>
      </g>
      <path class="cls-1" d="m173.18,87.08c.2.25.28.6.24,1.04-.06.53-.28.92-.67,1.16-.33.2-.83.32-1.49.36v1.02h-.74v-1.01h-.57v1.01h-.74v-1.02h-1.46l.15-.87h.15c.24,0,.39,0,.47-.02.1-.03.16-.1.18-.22v-3.27c-.03-.16-.11-.26-.26-.3-.09-.03-.28-.04-.57-.03h-.11v-.78l.45.02c.54,0,.87,0,1.01-.02v-1.19h.74v1.17l.57-.02v-1.16h.74v1.19c.51.05.9.16,1.17.33.33.2.51.5.54.9.06.58-.14.99-.62,1.23h0c.37.08.64.24.81.47h0Zm-3.2-.65h.12c.42.01.75-.01.98-.07.4-.1.6-.32.6-.65s-.2-.55-.59-.66c-.22-.06-.54-.08-.98-.07-.07,0-.11.02-.13.02v1.44h0Zm.13,2.33c.52.01.9-.02,1.16-.08.47-.12.7-.36.7-.72s-.23-.6-.69-.72c-.25-.07-.63-.09-1.14-.07h-.16v1.6h.13Z"/>
    </g>
    <g>
      <g>
        <path class="cls-10" d="m108.54,95.08c.58.72,1.29,1.36,2.11,1.89,4.16,2.69,9.71,1.49,12.4-2.67,1.43-2.22,1.76-4.84,1.12-7.2-.22,1.48-.74,2.94-1.61,4.28-3.04,4.71-9.14,6.26-14.02,3.71Z"/>
        <path class="cls-5" d="m107.97,84.57c-2.16,3.34-1.81,7.58.57,10.51,4.87,2.55,10.97,1.01,14.02-3.71.87-1.34,1.39-2.8,1.61-4.28-.55-2.07-1.85-3.95-3.8-5.2-4.16-2.69-9.71-1.49-12.4,2.67Z"/>
      </g>
      <path class="cls-1" d="m118.23,89.53c.2.25.28.6.24,1.04-.06.53-.28.92-.67,1.16-.33.2-.83.32-1.48.36v1.02h-.74v-1.01h-.57v1.01h-.74v-1.02h-1.46l.15-.87h.15c.24.01.39,0,.47-.02.1-.03.16-.1.18-.22v-3.26c-.03-.16-.11-.26-.26-.3-.09-.03-.28-.04-.57-.03h-.11v-.78l.45.02c.54,0,.87,0,1.01-.02v-1.19h.74v1.17l.57-.02v-1.16h.74v1.19c.51.05.9.16,1.17.33.33.2.51.5.54.9.06.58-.14.99-.62,1.23h0c.37.08.64.24.81.47h0Zm-3.2-.65h.12c.42.01.75-.01.98-.07.4-.1.61-.32.61-.65s-.2-.55-.59-.66c-.22-.06-.54-.09-.98-.07-.07,0-.12.01-.13.01,0,0,0,1.44,0,1.44Zm.13,2.33c.51.01.9-.02,1.16-.08.47-.12.7-.36.7-.72s-.23-.6-.69-.72c-.25-.07-.63-.09-1.14-.07h-.16v1.6h.13Z"/>
    </g>
    <g>
      <g>
        <path class="cls-10" d="m248.02,63.76c.59.72,1.29,1.36,2.11,1.89,4.16,2.69,9.71,1.49,12.4-2.67,1.43-2.22,1.76-4.84,1.12-7.2-.22,1.48-.74,2.94-1.61,4.28-3.04,4.71-9.15,6.25-14.02,3.71Z"/>
        <path class="cls-5" d="m247.45,53.25c-2.16,3.34-1.82,7.58.57,10.51,4.87,2.55,10.97,1.01,14.02-3.71.87-1.34,1.39-2.8,1.61-4.28-.55-2.07-1.85-3.94-3.8-5.2-4.16-2.69-9.71-1.49-12.4,2.67Z"/>
      </g>
      <path class="cls-1" d="m257.71,58.21c.2.25.28.6.24,1.04-.06.53-.28.92-.66,1.16-.33.2-.83.32-1.49.36v1.02h-.74v-1.01h-.57v1.01h-.74v-1.02h-1.46l.15-.87h.15c.24,0,.39,0,.47-.02.1-.03.16-.1.18-.23v-3.26c-.03-.16-.11-.26-.26-.3-.09-.03-.28-.04-.57-.03h-.11v-.78l.45.02c.54,0,.87,0,1.01-.02v-1.19h.74v1.17l.57-.02v-1.16h.74v1.19c.51.05.9.16,1.17.33.33.2.51.5.54.9.06.58-.14.99-.62,1.23h0c.37.08.64.24.81.47h0Zm-3.2-.65h.12c.42.01.75-.01.98-.07.4-.1.6-.32.6-.65s-.2-.55-.59-.66c-.22-.06-.54-.09-.98-.07-.07,0-.11.01-.13.01v1.44h0Zm.13,2.33c.52,0,.9-.02,1.16-.08.47-.12.7-.36.7-.72s-.23-.6-.69-.72c-.25-.07-.63-.09-1.14-.07h-.16v1.6h.13Z"/>
    </g>
    <g>
      <g>
        <path class="cls-10" d="m247.45,138.13c.58.72,1.28,1.36,2.11,1.89,4.16,2.69,9.71,1.49,12.4-2.67,1.43-2.22,1.76-4.84,1.12-7.2-.22,1.48-.74,2.94-1.61,4.28-3.04,4.71-9.14,6.26-14.02,3.71Z"/>
        <path class="cls-5" d="m246.88,127.62c-2.16,3.34-1.82,7.58.57,10.51,4.87,2.55,10.97,1.01,14.02-3.71.87-1.34,1.39-2.8,1.61-4.28-.56-2.07-1.85-3.94-3.8-5.2-4.16-2.69-9.71-1.49-12.4,2.67Z"/>
      </g>
      <path class="cls-1" d="m257.14,132.58c.2.25.28.6.24,1.04-.06.53-.28.92-.67,1.16-.33.2-.83.32-1.49.36v1.02h-.74v-1.01h-.57v1.01h-.74v-1.02h-1.46l.15-.87h.15c.24,0,.4,0,.47-.02.1-.03.16-.1.18-.22v-3.27c-.03-.16-.11-.26-.26-.3-.09-.03-.28-.04-.57-.03h-.12v-.78l.45.02c.54,0,.87,0,1.01-.02v-1.19h.74v1.17l.57-.02v-1.16h.74v1.19c.51.05.9.16,1.17.33.33.2.51.5.54.9.06.58-.14.99-.62,1.23h0c.37.08.64.24.81.47h0Zm-3.2-.65h.12c.42.01.75-.01.98-.07.4-.1.6-.32.6-.65s-.2-.55-.59-.66c-.22-.06-.54-.08-.98-.07-.07,0-.11.02-.13.02v1.44h0Zm.13,2.33c.51.01.9-.02,1.16-.08.47-.12.7-.36.7-.72s-.23-.6-.69-.72c-.25-.07-.63-.1-1.14-.07h-.16v1.6h.13Z"/>
    </g>
    <g>
      <g>
        <path class="cls-10" d="m243.49,94.6c.58.72,1.28,1.36,2.11,1.89,4.16,2.69,9.71,1.49,12.4-2.67,1.43-2.22,1.76-4.84,1.12-7.2-.22,1.48-.74,2.94-1.61,4.28-3.04,4.71-9.14,6.26-14.02,3.71Z"/>
        <path class="cls-5" d="m242.93,84.09c-2.16,3.34-1.81,7.58.57,10.51,4.87,2.55,10.97,1.01,14.02-3.71.87-1.34,1.39-2.8,1.61-4.28-.55-2.07-1.85-3.95-3.8-5.2-4.16-2.69-9.71-1.49-12.4,2.67Z"/>
      </g>
      <path class="cls-1" d="m253.19,89.05c.2.25.28.6.24,1.04-.06.53-.28.92-.66,1.16-.33.2-.83.32-1.49.36v1.02h-.74v-1.01h-.57v1.01h-.74v-1.02h-1.46l.15-.87h.15c.24,0,.39,0,.47-.02.1-.03.16-.1.18-.22v-3.27c-.03-.16-.12-.26-.26-.3-.09-.03-.28-.04-.57-.03h-.11v-.78l.45.02c.54,0,.87,0,1.01-.02v-1.19h.74v1.17l.57-.02v-1.16h.74v1.19c.51.05.9.16,1.17.33.33.2.51.5.54.9.06.58-.14.99-.62,1.23h0c.37.08.64.24.81.47h0Zm-3.2-.65h.12c.42.01.75-.01.98-.07.4-.1.6-.32.6-.65s-.2-.55-.59-.66c-.22-.06-.54-.09-.98-.07-.07,0-.11.01-.13.01v1.44h0Zm.13,2.33c.51.01.9-.02,1.16-.07.47-.12.7-.36.7-.72s-.23-.6-.69-.72c-.25-.07-.63-.09-1.14-.07h-.16v1.6h.13Z"/>
    </g>
    <path class="cls-1" d="m187.51,134.41c-.26,0-.51-.12-.66-.35-.25-.37-.15-.86.22-1.11l2.65-1.79c.37-.25.86-.15,1.11.22.25.37.15.86-.22,1.11l-2.65,1.79c-.14.09-.29.14-.45.14Zm7.3-4.92c-.26,0-.51-.12-.66-.35-.25-.37-.15-.86.22-1.11l2.65-1.79c.37-.25.86-.15,1.11.22.25.37.15.86-.22,1.11l-2.65,1.79c-.14.09-.29.14-.45.14Zm7.3-4.92c-.26,0-.51-.12-.66-.35-.25-.37-.15-.86.22-1.11l2.65-1.79c.37-.25.86-.15,1.11.22.25.37.15.86-.22,1.11l-2.65,1.79c-.14.09-.29.14-.45.14Zm7.3-4.92c-.26,0-.51-.12-.66-.35-.25-.37-.15-.86.22-1.11l2.65-1.79c.37-.25.86-.15,1.11.22.25.37.15.86-.22,1.11l-2.65,1.79c-.14.09-.29.14-.45.14Zm7.3-4.92c-.26,0-.51-.12-.66-.35-.25-.37-.15-.86.22-1.11l2.65-1.79c.37-.25.86-.15,1.11.22.25.37.15.86-.22,1.11l-2.65,1.79c-.14.09-.29.14-.45.14Zm7.3-4.92c-.26,0-.51-.12-.66-.35-.25-.37-.15-.86.22-1.11l2.65-1.79c.37-.25.86-.15,1.11.22.25.37.15.86-.22,1.11l-2.65,1.79c-.14.09-.29.14-.45.14Zm7.3-4.92c-.26,0-.51-.12-.66-.35-.25-.37-.15-.86.22-1.11l2.65-1.79c.37-.25.86-.15,1.11.22.25.37.15.86-.22,1.11l-2.65,1.79c-.14.09-.29.14-.45.14Zm7.3-4.92c-.26,0-.51-.12-.66-.35-.25-.37-.15-.86.22-1.11l2.65-1.79c.37-.25.86-.15,1.11.22.25.37.15.86-.22,1.11l-2.65,1.79c-.14.09-.29.14-.45.14Z"/>
    <path class="cls-1" d="m242.63,58.65s-.03,0-.05,0l-3.19-.2c-.44-.03-.78-.41-.75-.85.03-.44.41-.77.85-.75l3.19.2c.44.03.78.41.75.85-.03.42-.38.75-.8.75Zm-8.78-.54s-.03,0-.05,0l-3.19-.2c-.44-.03-.78-.41-.75-.85.03-.44.41-.78.85-.75l3.19.2c.44.03.78.41.75.85-.03.42-.38.75-.8.75Zm-8.78-.54s-.03,0-.05,0l-3.19-.2c-.44-.03-.78-.41-.75-.85.03-.44.4-.78.85-.75l3.19.2c.44.03.78.41.75.85-.03.42-.38.75-.8.75Zm-8.78-.54s-.03,0-.05,0l-3.19-.2c-.44-.03-.78-.41-.75-.85.03-.44.4-.78.85-.75l3.19.2c.44.03.78.41.75.85-.03.42-.38.75-.8.75Zm-8.78-.54s-.03,0-.05,0l-3.19-.2c-.44-.03-.78-.41-.75-.85.03-.44.41-.78.85-.75l3.19.2c.44.03.78.41.75.85-.03.42-.38.75-.8.75Zm-8.78-.54s-.03,0-.05,0l-3.19-.2c-.44-.03-.78-.41-.75-.85.03-.44.41-.78.85-.75l3.19.2c.44.03.78.41.75.85-.03.42-.38.75-.8.75Zm-8.78-.54s-.03,0-.05,0l-3.19-.2c-.44-.03-.78-.41-.75-.85.03-.44.41-.77.85-.75l3.19.2c.44.03.78.41.75.85-.03.42-.38.75-.8.75Zm-8.78-.54s-.03,0-.05,0l-3.19-.2c-.44-.03-.78-.41-.75-.85.03-.44.41-.77.85-.75l3.19.2c.44.03.78.41.75.85-.03.42-.38.75-.8.75Zm-8.78-.54s-.03,0-.05,0l-3.19-.2c-.44-.03-.78-.41-.75-.85.03-.44.4-.77.85-.75l3.19.2c.44.03.78.41.75.85-.03.42-.38.75-.8.75Zm-8.78-.54s-.03,0-.05,0l-3.19-.19c-.44-.03-.78-.41-.75-.85.03-.44.41-.78.85-.75l3.19.19c.44.03.78.41.75.85-.03.42-.38.75-.8.75Zm-8.78-.54s-.03,0-.05,0l-3.19-.2c-.44-.03-.78-.41-.75-.85.03-.44.41-.78.85-.75l3.19.2c.44.03.78.41.75.85-.03.42-.38.75-.8.75Zm-8.78-.54s-.03,0-.05,0l-3.19-.2c-.44-.03-.78-.41-.75-.85.03-.44.41-.78.85-.75l3.19.2c.44.03.78.41.75.85-.03.42-.38.75-.8.75Z"/>
    <path class="cls-1" d="m181.59,84.39c-.33,0-.64-.2-.75-.53-.15-.42.07-.87.48-1.02l3.01-1.07c.42-.15.87.07,1.02.48.15.42-.07.87-.48,1.02l-3.01,1.07c-.09.03-.18.05-.27.05Zm8.29-2.96c-.33,0-.64-.2-.75-.53-.15-.42.07-.87.48-1.02l3.01-1.08c.41-.15.87.07,1.02.48.15.42-.07.87-.48,1.02l-3.01,1.08c-.09.03-.18.05-.27.05Zm8.29-2.96c-.33,0-.64-.2-.75-.53-.15-.42.07-.87.48-1.02l3.01-1.08c.42-.15.87.07,1.02.48.15.42-.07.87-.48,1.02l-3.01,1.08c-.09.03-.18.05-.27.05Zm8.29-2.96c-.33,0-.64-.2-.75-.53-.15-.42.07-.87.48-1.02l3.01-1.08c.41-.15.87.07,1.02.48.15.42-.07.87-.48,1.02l-3.01,1.08c-.09.03-.18.05-.27.05Zm8.29-2.96c-.33,0-.64-.2-.75-.53-.15-.42.07-.87.48-1.02l3.01-1.08c.41-.15.87.07,1.02.48.15.42-.07.87-.48,1.02l-3.01,1.08c-.09.03-.18.05-.27.05Zm8.29-2.96c-.33,0-.64-.2-.75-.53-.15-.42.07-.87.48-1.02l3.01-1.08c.41-.15.87.07,1.02.48.15.42-.07.87-.48,1.02l-3.01,1.08c-.09.03-.18.05-.27.05Zm8.29-2.96c-.33,0-.64-.2-.75-.53-.15-.42.07-.87.48-1.02l3.01-1.08c.42-.15.87.07,1.02.48.15.42-.07.87-.48,1.02l-3.01,1.08c-.09.03-.18.05-.27.05Zm8.29-2.96c-.33,0-.64-.2-.75-.53-.15-.42.07-.87.48-1.02l3.01-1.08c.41-.15.87.07,1.02.48.15.42-.07.87-.48,1.02l-3.01,1.08c-.09.03-.18.05-.27.05Z"/>
    <path class="cls-1" d="m188.45,144.61c-.38,0-.72-.28-.79-.67-.07-.44.22-.85.65-.92l2.12-.36c.44-.07.85.22.92.65.07.44-.22.85-.65.92l-2.12.36s-.09.01-.13.01Zm7.64-1.29c-.38,0-.72-.28-.79-.67-.07-.44.22-.85.65-.92l3.16-.53c.44-.07.85.22.92.65.07.44-.22.85-.65.92l-3.16.53s-.09.01-.13.01Zm8.68-1.47c-.38,0-.72-.28-.79-.67-.07-.44.22-.85.65-.92l3.16-.53c.44-.08.85.22.92.65.07.44-.22.85-.65.92l-3.16.53s-.09.01-.13.01Zm8.68-1.47c-.38,0-.72-.28-.79-.67-.07-.44.22-.85.65-.92l3.15-.53c.44-.07.85.22.92.65.07.44-.22.85-.65.92l-3.15.53s-.09.01-.13.01Zm8.68-1.47c-.38,0-.72-.28-.79-.67-.07-.44.22-.85.65-.92l3.15-.53c.44-.07.85.22.92.65.07.44-.22.85-.65.92l-3.15.53s-.09.01-.13.01Zm8.68-1.47c-.38,0-.72-.28-.79-.67-.07-.44.22-.85.65-.92l3.16-.53c.44-.08.85.22.92.65.07.44-.22.85-.65.92l-3.16.53s-.09.01-.13.01Zm8.68-1.47c-.38,0-.72-.28-.79-.67-.07-.44.22-.85.65-.92l3.16-.53c.44-.07.85.22.92.65.07.44-.22.85-.65.92l-3.16.53s-.09.01-.13.01Z"/>
    <path class="cls-1" d="m167.18,136.32c-.17,0-.33-.05-.47-.16l-2.58-1.9c-.36-.26-.43-.76-.17-1.12.26-.36.76-.43,1.12-.17l2.58,1.9c.36.26.43.76.17,1.12-.16.21-.4.33-.64.33Zm-7.08-5.22c-.17,0-.33-.05-.47-.16l-2.58-1.9c-.36-.26-.43-.76-.17-1.12.26-.36.76-.43,1.12-.17l2.58,1.9c.36.26.43.76.17,1.12-.16.21-.4.33-.64.33Zm-7.08-5.22c-.17,0-.33-.05-.47-.16l-2.58-1.9c-.36-.26-.43-.76-.17-1.12.26-.36.76-.43,1.12-.17l2.58,1.9c.36.26.43.76.17,1.12-.16.21-.4.33-.64.33Zm-7.08-5.22c-.17,0-.33-.05-.47-.16l-2.58-1.9c-.36-.26-.43-.76-.17-1.12.26-.36.76-.43,1.12-.17l2.58,1.9c.36.26.43.76.17,1.12-.16.21-.4.33-.64.33Zm-7.08-5.22c-.17,0-.33-.05-.47-.16l-2.58-1.9c-.36-.26-.43-.76-.17-1.12.26-.36.76-.43,1.12-.17l2.58,1.9c.36.26.43.76.17,1.12-.16.21-.4.33-.64.33Zm-7.08-5.22c-.17,0-.33-.05-.47-.16l-2.58-1.9c-.36-.26-.43-.76-.17-1.12.26-.36.76-.43,1.12-.17l2.58,1.9c.36.26.43.76.17,1.12-.16.21-.4.33-.64.33Zm-7.08-5.22c-.17,0-.33-.05-.47-.16l-2.58-1.9c-.36-.26-.43-.76-.17-1.12.26-.36.76-.43,1.12-.17l2.58,1.9c.36.26.43.76.17,1.12-.16.21-.4.33-.64.33Z"/>
    <path class="cls-1" d="m122.23,79.92c-.08,0-.16-.01-.24-.04-.42-.13-.66-.58-.53-1l.95-3.06c.13-.42.58-.66,1-.53.42.13.66.58.53,1l-.95,3.06c-.11.34-.42.56-.76.56Zm2.6-8.41c-.08,0-.16-.01-.24-.04-.42-.13-.66-.58-.53-1l.95-3.06c.13-.42.58-.66,1-.53.42.13.66.58.53,1l-.95,3.06c-.11.34-.42.56-.76.56Z"/>
    <path class="cls-1" d="m160.44,80.64c-.2,0-.39-.07-.55-.21l-2.34-2.18c-.32-.3-.34-.81-.04-1.13.3-.32.81-.34,1.13-.04l2.34,2.18c.32.3.34.81.04,1.13-.16.17-.37.25-.59.25Zm-6.44-6c-.2,0-.39-.07-.55-.21l-2.34-2.18c-.32-.3-.34-.81-.04-1.13.3-.32.81-.34,1.13-.04l2.34,2.18c.32.3.34.81.04,1.13-.16.17-.37.25-.59.25Zm-6.44-6c-.2,0-.39-.07-.55-.21l-2.34-2.18c-.32-.3-.34-.81-.04-1.13.3-.32.81-.34,1.13-.04l2.34,2.18c.32.3.34.81.04,1.13-.16.17-.37.25-.59.25Zm-6.44-6c-.2,0-.39-.07-.55-.21l-1.59-1.48c-.32-.3-.34-.81-.04-1.13.3-.32.81-.34,1.13-.04l1.59,1.48c.32.3.34.81.04,1.13-.16.17-.37.25-.59.25Z"/>
    <path class="cls-1" d="m175.58,130.39c-.4,0-.75-.3-.79-.71l-.36-3.18c-.05-.44.27-.83.71-.88.44-.05.83.27.88.71l.36,3.18c.05.44-.27.83-.71.88-.03,0-.06,0-.09,0Zm-.98-8.75c-.4,0-.75-.3-.79-.71l-.36-3.18c-.05-.44.27-.83.71-.88.44-.05.83.27.88.71l.36,3.18c.05.44-.27.83-.71.88-.03,0-.06,0-.09,0Zm-.98-8.74c-.4,0-.75-.3-.79-.71l-.36-3.18c-.05-.44.27-.83.71-.88.44-.05.83.27.88.71l.36,3.18c.05.44-.27.83-.71.88-.03,0-.06,0-.09,0Zm-.98-8.75c-.4,0-.75-.3-.79-.71l-.36-3.18c-.05-.44.27-.83.71-.88.44-.05.83.27.88.71l.36,3.18c.05.44-.27.83-.71.88-.03,0-.06,0-.09,0Z"/>
    <path class="cls-1" d="m253.54,118.85c-.4,0-.75-.3-.79-.71l-.36-3.18c-.05-.44.27-.83.71-.88.44-.05.83.27.88.71l.36,3.18c.05.44-.27.83-.71.88-.03,0-.06,0-.09,0Zm-.98-8.75c-.4,0-.75-.3-.79-.71l-.36-3.18c-.05-.44.27-.83.71-.88.44-.05.83.27.88.71l.36,3.18c.05.44-.27.83-.71.88-.03,0-.06,0-.09,0Z"/>
    <path class="cls-1" d="m253.4,77.17s-.09,0-.14-.01c-.44-.07-.73-.49-.65-.92l.54-3.15c.07-.44.49-.73.92-.65.44.07.73.49.65.92l-.54,3.15c-.07.39-.41.67-.79.67Z"/>
    <g>
      <path class="cls-4" d="m211.6,143.9c0-.09,1.78-14.97,1.81-15.07.03,0,.06,0,.1.02.95.26,1.91.52,2.86.78.09.03.18.05.28.07.04,0,.05.03.07.06.04.15.09.29.13.44.14.48.29.96.43,1.44.14.47.29.95.43,1.42.12.41.24.82.37,1.22,0,0,0,.02,0,.03,0,.02.02.03.04.02.02-.01.04-.02.06-.04.15-.1.31-.2.46-.29.11-.07.07-.06.18-.03.99.27,1.97.54,2.96.8.14.04.11.01.1.14-.59,4.95-1.19,9.9-1.78,14.85,0,.04,0,.07-.01.11-.04,0-.07,0-.1-.02-.87-.24-1.74-.47-2.61-.71-.17-.05-.34-.1-.52-.14-.05-.01-.07-.04-.09-.08-.07-.22-.13-.45-.2-.67-.14-.48-.29-.95-.43-1.43-.15-.51-.31-1.02-.46-1.53-.09-.29-.17-.58-.26-.86,0-.02-.01-.04-.02-.06,0-.01-.01-.01-.02,0,0,0-.01,0-.02,0-.08.05-.16.1-.23.15-.11.07-.21.13-.32.2-.03.02-.06.02-.09.01-.04-.01-.08-.02-.11-.03-.96-.26-1.93-.52-2.89-.79-.03,0-.07-.02-.1-.03Zm5.29,3.21s.01,0,.02,0c0-.03.01-.06.01-.1.03-.27.06-.53.1-.8.45-3.72.89-7.45,1.34-11.17,0-.02,0-.05,0-.07,0-.01-.01-.02-.03-.02,0,0-.02,0-.03.02-.24.15-.48.3-.72.46-.09.06-.18.12-.28.18-.23.15-.46.29-.69.44-.13.08-.26.17-.39.25-.19.12-.37.24-.56.36-.02.01-.05.03-.07.04,0,0-.02,0-.02,0,0-.02-.02-.04-.02-.06-.1-.34-.21-.68-.31-1.02-.13-.44-.26-.89-.4-1.33-.17-.58-.35-1.15-.52-1.73-.16-.53-.32-1.06-.48-1.59,0-.03-.02-.06-.03-.09-.02.03-.02.07-.03.1-.13,1.07-.26,2.13-.38,3.2-.35,2.92-.7,5.83-1.05,8.75,0,.03,0,.06,0,.09,0,.02.02.03.03.02.02,0,.03-.02.05-.03.18-.11.36-.23.54-.34.22-.14.43-.27.65-.41.09-.06.18-.11.27-.17.21-.14.43-.27.64-.41.14-.09.28-.18.43-.27.05-.03.1-.06.16-.1.15.49.3.98.44,1.47.15.49.29.97.44,1.46.15.49.29.97.44,1.46.15.49.29.97.44,1.46Zm.52,1.37s.06.03.09.03c.17.05.34.09.52.14.48.13.95.26,1.43.39.02,0,.05.02.08,0,0-.03,0-.06.01-.09.09-.76.18-1.52.27-2.27.19-1.6.38-3.19.57-4.79.26-2.17.52-4.35.78-6.52,0-.02,0-.04,0-.06,0-.04,0-.04-.04-.06-.01,0-.03,0-.04-.01-.25-.07-.5-.14-.76-.2-.38-.1-.77-.21-1.15-.31-.04-.01-.08-.03-.12-.02-.02.02-.02.04-.02.06-.08.52-1.63,13.6-1.63,13.71Zm-3.24-18.78s0,.04,0,.06c.16.52.31,1.03.47,1.55.14.47.29.95.43,1.42.15.48.29.97.44,1.45.14.47.28.94.42,1.4,0,.03.02.05.03.07,0,.01.02.02.03.01.01,0,.02-.01.03-.02.26-.16.52-.32.77-.49.21-.13.42-.27.64-.4.02-.01.03-.02.05-.03.02-.01.03-.03.02-.06-.03-.1-.06-.21-.09-.31-.14-.45-.27-.9-.41-1.35-.14-.48-.29-.95-.43-1.43-.13-.43-.26-.86-.39-1.29,0-.03-.02-.05-.06-.06-.12-.03-.23-.06-.34-.09-.51-.14-1.02-.28-1.53-.42-.03,0-.05-.02-.09-.01Zm-1.41,13.82s.06.03.08.04c.18.05.36.1.54.15.39.11.78.21,1.17.32.11.03.09.03.18-.03.11-.07.22-.14.33-.21.03-.02.07-.04.1-.06.02-.01.03-.03.02-.06-.01-.04-.03-.09-.04-.13-.12-.4-.24-.81-.36-1.21,0-.01,0-.02-.01-.04,0-.01-.02-.02-.03-.01,0,0-.02,0-.03.01-.18.11-.36.22-.54.34-.4.25-.8.51-1.2.76-.07.04-.13.09-.2.13Z"/>
      <path class="cls-15" d="m216.89,147.11c-.15-.49-.29-.97-.44-1.46-.15-.49-.29-.97-.44-1.46-.15-.49-.29-.97-.44-1.46-.15-.49-.29-.97-.44-1.47-.06.04-.11.06-.16.1-.14.09-.28.18-.43.27-.21.14-.43.27-.64.41-.09.06-.18.11-.27.17-.22.14-.43.27-.65.41-.18.11-.36.23-.54.34-.02.01-.03.02-.05.03-.02,0-.04,0-.03-.02,0-.03,0-.06,0-.09.35-2.92.7-5.83,1.05-8.75.13-1.07.26-2.13.38-3.2,0-.03,0-.06.03-.1.01.03.02.06.03.09.16.53.32,1.06.48,1.59.17.58.35,1.15.52,1.73.13.44.26.89.4,1.33.1.34.21.68.31,1.02,0,.02.02.04.02.06,0,.01.02.01.02,0,.02-.01.05-.02.07-.04.19-.12.37-.24.56-.36.13-.08.26-.17.39-.25.23-.15.46-.29.69-.44.09-.06.18-.12.28-.18.24-.15.48-.3.72-.46,0,0,.02-.01.03-.02.01,0,.03,0,.03.02,0,.02,0,.05,0,.07-.45,3.72-.89,7.45-1.34,11.17-.03.27-.06.53-.1.8,0,.03,0,.06-.01.1,0,0-.01,0-.02,0Z"/>
      <path class="cls-8" d="m217.41,148.48c0-.11,1.56-13.18,1.63-13.71,0-.02,0-.04.02-.06.04,0,.08.01.12.02.38.1.77.21,1.15.31.25.07.5.14.76.2.01,0,.03,0,.04.01.04.01.04.02.04.06,0,.02,0,.04,0,.06-.26,2.17-.52,4.35-.78,6.52-.19,1.6-.38,3.19-.57,4.79-.09.76-.18,1.52-.27,2.27,0,.03,0,.06-.01.09-.03.02-.05,0-.08,0-.48-.13-.95-.26-1.43-.39-.17-.05-.34-.09-.52-.14-.03,0-.07-.01-.09-.03Z"/>
      <path class="cls-8" d="m214.17,129.7s.06,0,.09.01c.51.14,1.02.28,1.53.42.11.03.23.06.34.09.03,0,.05.03.06.06.13.43.26.86.39,1.29.14.48.29.95.43,1.43.14.45.27.9.41,1.35.03.1.06.21.09.31,0,.03,0,.05-.02.06-.02.01-.03.02-.05.03-.21.13-.42.27-.64.4-.26.16-.51.32-.77.49-.01,0-.02.01-.03.02-.01,0-.03,0-.03-.01-.01-.02-.02-.05-.03-.07-.14-.47-.28-.94-.42-1.4-.15-.48-.29-.97-.44-1.45-.14-.47-.28-.95-.43-1.42-.16-.52-.31-1.03-.47-1.55,0-.02-.02-.04,0-.06Z"/>
      <path class="cls-8" d="m212.76,143.53c.07-.05.14-.09.2-.13.4-.25.8-.51,1.2-.76.18-.11.36-.22.54-.34,0,0,.02,0,.03-.01.01,0,.03,0,.03.01,0,.01.01.02.01.04.12.4.24.81.36,1.21.01.04.03.09.04.13,0,.03,0,.04-.02.06-.03.02-.07.04-.1.06-.11.07-.22.14-.33.21-.09.06-.07.06-.18.03-.39-.11-.78-.21-1.17-.32-.18-.05-.36-.1-.54-.15-.02,0-.05,0-.08-.04Z"/>
    </g>
    <g>
      <path class="cls-4" d="m187.38,59.05c0-.09,1.78-14.97,1.81-15.07.03,0,.06,0,.1.02.95.26,1.91.52,2.86.78.09.03.18.05.28.07.04,0,.05.03.07.06.04.15.09.29.13.44.14.48.29.96.43,1.44.14.47.29.95.43,1.42.12.41.24.82.37,1.22,0,0,0,.02,0,.03,0,.02.02.03.04.02.02-.01.04-.02.06-.04.15-.1.31-.2.46-.29.11-.07.07-.06.18-.03.99.27,1.97.54,2.96.8.14.04.11.01.1.14-.59,4.95-1.19,9.9-1.78,14.85,0,.04,0,.07-.01.11-.04,0-.07,0-.1-.02-.87-.24-1.74-.47-2.61-.71-.17-.05-.34-.1-.52-.14-.05-.01-.07-.04-.09-.08-.07-.22-.13-.45-.2-.67-.14-.48-.29-.95-.43-1.43-.15-.51-.31-1.02-.46-1.53-.09-.29-.17-.58-.26-.86,0-.02-.01-.04-.02-.06,0-.01-.01-.01-.02,0,0,0-.01,0-.02,0-.08.05-.16.1-.23.15-.11.07-.21.13-.32.2-.03.02-.06.02-.09.01-.04-.01-.08-.02-.11-.03-.96-.26-1.93-.52-2.89-.79-.03,0-.07-.02-.1-.03Zm5.29,3.21s.01,0,.02,0c0-.03.01-.06.01-.1.03-.27.06-.53.1-.8.45-3.72.89-7.45,1.34-11.17,0-.02,0-.05,0-.07,0-.01-.01-.02-.03-.02,0,0-.02,0-.03.02-.24.15-.48.3-.72.46-.09.06-.18.12-.28.18-.23.15-.46.29-.69.44-.13.08-.26.17-.39.25-.19.12-.37.24-.56.36-.02.01-.05.03-.07.04,0,0-.02,0-.02,0,0-.02-.02-.04-.02-.06-.1-.34-.21-.68-.31-1.02-.13-.44-.26-.89-.4-1.33-.17-.58-.35-1.15-.52-1.73-.16-.53-.32-1.06-.48-1.59,0-.03-.02-.06-.03-.09-.02.03-.02.07-.03.1-.13,1.07-.26,2.13-.38,3.2-.35,2.92-.7,5.83-1.05,8.75,0,.03,0,.06,0,.09,0,.02.02.03.03.02.02,0,.03-.02.05-.03.18-.11.36-.23.54-.34.22-.14.43-.27.65-.41.09-.06.18-.11.27-.17.21-.14.43-.27.64-.41.14-.09.28-.18.43-.27.05-.03.1-.06.16-.1.15.49.3.98.44,1.47.15.49.29.97.44,1.46.15.49.29.97.44,1.46.15.49.29.97.44,1.46Zm.52,1.37s.06.03.09.03c.17.05.34.09.52.14.48.13.95.26,1.43.39.02,0,.05.02.08,0,0-.03,0-.06.01-.09.09-.76.18-1.52.27-2.27.19-1.6.38-3.19.57-4.79.26-2.17.52-4.35.78-6.52,0-.02,0-.04,0-.06,0-.04,0-.04-.04-.06-.01,0-.03,0-.04-.01-.25-.07-.5-.14-.76-.2-.38-.1-.77-.21-1.15-.31-.04-.01-.08-.03-.12-.02-.02.02-.02.04-.02.06-.08.52-1.63,13.6-1.63,13.71Zm-3.24-18.78s0,.04,0,.06c.16.52.31,1.03.47,1.55.14.47.29.95.43,1.42.15.48.29.97.44,1.45.14.47.28.94.42,1.4,0,.03.02.05.03.07,0,.01.02.02.03.01.01,0,.02-.01.03-.02.26-.16.52-.32.77-.49.21-.13.42-.27.64-.4.02-.01.03-.02.05-.03.02-.01.03-.03.02-.06-.03-.1-.06-.21-.09-.31-.14-.45-.27-.9-.41-1.35-.14-.48-.29-.95-.43-1.43-.13-.43-.26-.86-.39-1.29,0-.03-.02-.05-.06-.06-.12-.03-.23-.06-.34-.09-.51-.14-1.02-.28-1.53-.42-.03,0-.05-.02-.09-.01Zm-1.41,13.82s.06.03.08.04c.18.05.36.1.54.15.39.11.78.21,1.17.32.11.03.09.03.18-.03.11-.07.22-.14.33-.21.03-.02.07-.04.1-.06.02-.01.03-.03.02-.06-.01-.04-.03-.09-.04-.13-.12-.4-.24-.81-.36-1.21,0-.01,0-.02-.01-.04,0-.01-.02-.02-.03-.01,0,0-.02,0-.03.01-.18.11-.36.22-.54.34-.4.25-.8.51-1.2.76-.07.04-.13.09-.2.13Z"/>
      <path class="cls-15" d="m192.67,62.26c-.15-.49-.29-.97-.44-1.46-.15-.49-.29-.97-.44-1.46-.15-.49-.29-.97-.44-1.46-.15-.49-.29-.97-.44-1.47-.06.04-.11.06-.16.1-.14.09-.28.18-.43.27-.21.14-.43.27-.64.41-.09.06-.18.11-.27.17-.22.14-.43.27-.65.41-.18.11-.36.23-.54.34-.02.01-.03.02-.05.03-.02,0-.04,0-.03-.02,0-.03,0-.06,0-.09.35-2.92.7-5.83,1.05-8.75.13-1.07.26-2.13.38-3.2,0-.03,0-.06.03-.1.01.03.02.06.03.09.16.53.32,1.06.48,1.59.17.58.35,1.15.52,1.73.13.44.26.89.4,1.33.1.34.21.68.31,1.02,0,.02.02.04.02.06,0,.01.02.01.02,0,.02-.01.05-.02.07-.04.19-.12.37-.24.56-.36.13-.08.26-.17.39-.25.23-.15.46-.29.69-.44.09-.06.18-.12.28-.18.24-.15.48-.3.72-.46,0,0,.02-.01.03-.02.01,0,.03,0,.03.02,0,.02,0,.05,0,.07-.45,3.72-.89,7.45-1.34,11.17-.03.27-.06.53-.1.8,0,.03,0,.06-.01.1,0,0-.01,0-.02,0Z"/>
      <path class="cls-8" d="m193.19,63.64c0-.11,1.56-13.18,1.63-13.71,0-.02,0-.04.02-.06.04,0,.08.01.12.02.38.1.77.21,1.15.31.25.07.5.14.76.2.01,0,.03,0,.04.01.04.01.04.02.04.06,0,.02,0,.04,0,.06-.26,2.17-.52,4.35-.78,6.52-.19,1.6-.38,3.19-.57,4.79-.09.76-.18,1.52-.27,2.27,0,.03,0,.06-.01.09-.03.02-.05,0-.08,0-.48-.13-.95-.26-1.43-.39-.17-.05-.34-.09-.52-.14-.03,0-.07-.01-.09-.03Z"/>
      <path class="cls-8" d="m189.95,44.86s.06,0,.09.01c.51.14,1.02.28,1.53.42.11.03.23.06.34.09.03,0,.05.03.06.06.13.43.26.86.39,1.29.14.48.29.95.43,1.43.14.45.27.9.41,1.35.03.1.06.21.09.31,0,.03,0,.05-.02.06-.02.01-.03.02-.05.03-.21.13-.42.27-.64.4-.26.16-.51.32-.77.49-.01,0-.02.01-.03.02-.01,0-.03,0-.03-.01-.01-.02-.02-.05-.03-.07-.14-.47-.28-.94-.42-1.4-.15-.48-.29-.97-.44-1.45-.14-.47-.28-.95-.43-1.42-.16-.52-.31-1.03-.47-1.55,0-.02-.02-.04,0-.06Z"/>
      <path class="cls-8" d="m188.54,58.68c.07-.05.14-.09.2-.13.4-.25.8-.51,1.2-.76.18-.11.36-.22.54-.34,0,0,.02,0,.03-.01.01,0,.03,0,.03.01,0,.01.01.02.01.04.12.4.24.81.36,1.21.01.04.03.09.04.13,0,.03,0,.04-.02.06-.03.02-.07.04-.1.06-.11.07-.22.14-.33.21-.09.06-.07.06-.18.03-.39-.11-.78-.21-1.17-.32-.18-.05-.36-.1-.54-.15-.02,0-.05,0-.08-.04Z"/>
    </g>
    <g>
      <path class="cls-4" d="m202.48,77.88c0-.09,1.78-14.97,1.81-15.07.03,0,.06,0,.1.02.95.26,1.91.52,2.86.78.09.03.18.05.28.07.04,0,.05.03.07.06.04.15.09.29.13.44.14.48.29.96.43,1.44.14.47.29.95.43,1.42.12.41.24.82.37,1.22,0,0,0,.02,0,.03,0,.02.02.03.04.02.02-.01.04-.02.06-.04.15-.1.31-.2.46-.29.11-.07.07-.06.18-.03.99.27,1.97.54,2.96.8.14.04.11.01.1.14-.59,4.95-1.19,9.9-1.78,14.85,0,.04,0,.07-.01.11-.04,0-.07,0-.1-.02-.87-.24-1.74-.47-2.61-.71-.17-.05-.34-.1-.52-.14-.05-.01-.07-.04-.09-.08-.07-.22-.13-.45-.2-.67-.14-.48-.29-.95-.43-1.43-.15-.51-.31-1.02-.46-1.53-.09-.29-.17-.58-.26-.86,0-.02-.01-.04-.02-.06,0-.01-.01-.01-.02,0,0,0-.01,0-.02,0-.08.05-.16.1-.23.15-.11.07-.21.13-.32.2-.03.02-.06.02-.09.01-.04-.01-.08-.02-.11-.03-.96-.26-1.93-.52-2.89-.79-.03,0-.07-.02-.1-.03Zm5.29,3.21s.01,0,.02,0c0-.03.01-.06.01-.1.03-.27.06-.53.1-.8.45-3.72.89-7.45,1.34-11.17,0-.02,0-.05,0-.07,0-.01-.01-.02-.03-.02,0,0-.02,0-.03.02-.24.15-.48.3-.72.46-.09.06-.18.12-.28.18-.23.15-.46.29-.69.44-.13.08-.26.17-.39.25-.19.12-.37.24-.56.36-.02.01-.05.03-.07.04,0,0-.02,0-.02,0,0-.02-.02-.04-.02-.06-.1-.34-.21-.68-.31-1.02-.13-.44-.26-.89-.4-1.33-.17-.58-.35-1.15-.52-1.73-.16-.53-.32-1.06-.48-1.59,0-.03-.02-.06-.03-.09-.02.03-.02.07-.03.1-.13,1.07-.26,2.13-.38,3.2-.35,2.92-.7,5.83-1.05,8.75,0,.03,0,.06,0,.09,0,.02.02.03.03.02.02,0,.03-.02.05-.03.18-.11.36-.23.54-.34.22-.14.43-.27.65-.41.09-.06.18-.11.27-.17.21-.14.43-.27.64-.41.14-.09.28-.18.43-.27.05-.03.1-.06.16-.1.15.49.3.98.44,1.47.15.49.29.97.44,1.46.15.49.29.97.44,1.46.15.49.29.97.44,1.46Zm.52,1.37s.06.03.09.03c.17.05.34.09.52.14.48.13.95.26,1.43.39.02,0,.05.02.08,0,0-.03,0-.06.01-.09.09-.76.18-1.52.27-2.27.19-1.6.38-3.19.57-4.79.26-2.17.52-4.35.78-6.52,0-.02,0-.04,0-.06,0-.04,0-.04-.04-.06-.01,0-.03,0-.04-.01-.25-.07-.5-.14-.76-.2-.38-.1-.77-.21-1.15-.31-.04-.01-.08-.03-.12-.02-.02.02-.02.04-.02.06-.08.52-1.63,13.6-1.63,13.71Zm-3.24-18.78s0,.04,0,.06c.16.52.31,1.03.47,1.55.14.47.29.95.43,1.42.15.48.29.97.44,1.45.14.47.28.94.42,1.4,0,.03.02.05.03.07,0,.01.02.02.03.01.01,0,.02-.01.03-.02.26-.16.52-.32.77-.49.21-.13.42-.27.64-.4.02-.01.03-.02.05-.03.02-.01.03-.03.02-.06-.03-.1-.06-.21-.09-.31-.14-.45-.27-.9-.41-1.35-.14-.48-.29-.95-.43-1.43-.13-.43-.26-.86-.39-1.29,0-.03-.02-.05-.06-.06-.12-.03-.23-.06-.34-.09-.51-.14-1.02-.28-1.53-.42-.03,0-.05-.02-.09-.01Zm-1.41,13.82s.06.03.08.04c.18.05.36.1.54.15.39.11.78.21,1.17.32.11.03.09.03.18-.03.11-.07.22-.14.33-.21.03-.02.07-.04.1-.06.02-.01.03-.03.02-.06-.01-.04-.03-.09-.04-.13-.12-.4-.24-.81-.36-1.21,0-.01,0-.02-.01-.04,0-.01-.02-.02-.03-.01,0,0-.02,0-.03.01-.18.11-.36.22-.54.34-.4.25-.8.51-1.2.76-.07.04-.13.09-.2.13Z"/>
      <path class="cls-15" d="m207.77,81.09c-.15-.49-.29-.97-.44-1.46-.15-.49-.29-.97-.44-1.46-.15-.49-.29-.97-.44-1.46-.15-.49-.29-.97-.44-1.47-.06.04-.11.06-.16.1-.14.09-.28.18-.43.27-.21.14-.43.27-.64.41-.09.06-.18.11-.27.17-.22.14-.43.27-.65.41-.18.11-.36.23-.54.34-.02.01-.03.02-.05.03-.02,0-.04,0-.03-.02,0-.03,0-.06,0-.09.35-2.92.7-5.83,1.05-8.75.13-1.07.26-2.13.38-3.2,0-.03,0-.06.03-.1.01.03.02.06.03.09.16.53.32,1.06.48,1.59.17.58.35,1.15.52,1.73.13.44.26.89.4,1.33.1.34.21.68.31,1.02,0,.02.02.04.02.06,0,.01.02.01.02,0,.02-.01.05-.02.07-.04.19-.12.37-.24.56-.36.13-.08.26-.17.39-.25.23-.15.46-.29.69-.44.09-.06.18-.12.28-.18.24-.15.48-.3.72-.46,0,0,.02-.01.03-.02.01,0,.03,0,.03.02,0,.02,0,.05,0,.07-.45,3.72-.89,7.45-1.34,11.17-.03.27-.06.53-.1.8,0,.03,0,.06-.01.1,0,0-.01,0-.02,0Z"/>
      <path class="cls-8" d="m208.29,82.46c0-.11,1.56-13.18,1.63-13.71,0-.02,0-.04.02-.06.04,0,.08.01.12.02.38.1.77.21,1.15.31.25.07.5.14.76.2.01,0,.03,0,.04.01.04.01.04.02.04.06,0,.02,0,.04,0,.06-.26,2.17-.52,4.35-.78,6.52-.19,1.6-.38,3.19-.57,4.79-.09.76-.18,1.52-.27,2.27,0,.03,0,.06-.01.09-.03.02-.05,0-.08,0-.48-.13-.95-.26-1.43-.39-.17-.05-.34-.09-.52-.14-.03,0-.07-.01-.09-.03Z"/>
      <path class="cls-8" d="m205.05,63.68s.06,0,.09.01c.51.14,1.02.28,1.53.42.11.03.23.06.34.09.03,0,.05.03.06.06.13.43.26.86.39,1.29.14.48.29.95.43,1.43.14.45.27.9.41,1.35.03.1.06.21.09.31,0,.03,0,.05-.02.06-.02.01-.03.02-.05.03-.21.13-.42.27-.64.4-.26.16-.51.32-.77.49-.01,0-.02.01-.03.02-.01,0-.03,0-.03-.01-.01-.02-.02-.05-.03-.07-.14-.47-.28-.94-.42-1.4-.15-.48-.29-.97-.44-1.45-.14-.47-.28-.95-.43-1.42-.16-.52-.31-1.03-.47-1.55,0-.02-.02-.04,0-.06Z"/>
      <path class="cls-8" d="m203.64,77.51c.07-.05.14-.09.2-.13.4-.25.8-.51,1.2-.76.18-.11.36-.22.54-.34,0,0,.02,0,.03-.01.01,0,.03,0,.03.01,0,.01.01.02.01.04.12.4.24.81.36,1.21.01.04.03.09.04.13,0,.03,0,.04-.02.06-.03.02-.07.04-.1.06-.11.07-.22.14-.33.21-.09.06-.07.06-.18.03-.39-.11-.78-.21-1.17-.32-.18-.05-.36-.1-.54-.15-.02,0-.05,0-.08-.04Z"/>
    </g>
    <g>
      <path class="cls-4" d="m169.35,117.87c0-.09,1.78-14.97,1.81-15.07.03,0,.06,0,.1.02.95.26,1.91.52,2.86.78.09.03.18.05.28.07.04,0,.05.03.07.06.04.15.09.29.13.44.14.48.29.96.43,1.44.14.47.29.95.43,1.42.12.41.24.82.37,1.22,0,0,0,.02,0,.03,0,.02.02.03.04.02.02-.01.04-.02.06-.04.15-.1.31-.2.46-.29.11-.07.07-.06.18-.03.99.27,1.97.54,2.96.8.14.04.11.01.1.14-.59,4.95-1.19,9.9-1.78,14.85,0,.04,0,.07-.01.11-.04,0-.07,0-.1-.02-.87-.24-1.74-.47-2.61-.71-.17-.05-.34-.1-.52-.14-.05-.01-.07-.04-.09-.08-.07-.22-.13-.45-.2-.67-.14-.48-.29-.95-.43-1.43-.15-.51-.31-1.02-.46-1.53-.09-.29-.17-.58-.26-.86,0-.02-.01-.04-.02-.06,0-.01-.01-.01-.02,0,0,0-.01,0-.02,0-.08.05-.16.1-.23.15-.11.07-.21.13-.32.2-.03.02-.06.02-.09.01-.04-.01-.08-.02-.11-.03-.96-.26-1.93-.52-2.89-.79-.03,0-.07-.02-.1-.03Zm5.29,3.21s.01,0,.02,0c0-.03.01-.06.01-.1.03-.27.06-.53.1-.8.45-3.72.89-7.45,1.34-11.17,0-.02,0-.05,0-.07,0-.01-.01-.02-.03-.02,0,0-.02,0-.03.02-.24.15-.48.3-.72.46-.09.06-.18.12-.28.18-.23.15-.46.29-.69.44-.13.08-.26.17-.39.25-.19.12-.37.24-.56.36-.02.01-.05.03-.07.04,0,0-.02,0-.02,0,0-.02-.02-.04-.02-.06-.1-.34-.21-.68-.31-1.02-.13-.44-.26-.89-.4-1.33-.17-.58-.35-1.15-.52-1.73-.16-.53-.32-1.06-.48-1.59,0-.03-.02-.06-.03-.09-.02.03-.02.07-.03.1-.13,1.07-.26,2.13-.38,3.2-.35,2.92-.7,5.83-1.05,8.75,0,.03,0,.06,0,.09,0,.02.02.03.03.02.02,0,.03-.02.05-.03.18-.11.36-.23.54-.34.22-.14.43-.27.65-.41.09-.06.18-.11.27-.17.21-.14.43-.27.64-.41.14-.09.28-.18.43-.27.05-.03.1-.06.16-.1.15.49.3.98.44,1.47.15.49.29.97.44,1.46.15.49.29.97.44,1.46.15.49.29.97.44,1.46Zm.52,1.37s.06.03.09.03c.17.05.34.09.52.14.48.13.95.26,1.43.39.02,0,.05.02.08,0,0-.03,0-.06.01-.09.09-.76.18-1.52.27-2.27.19-1.6.38-3.19.57-4.79.26-2.17.52-4.35.78-6.52,0-.02,0-.04,0-.06,0-.04,0-.04-.04-.06-.01,0-.03,0-.04-.01-.25-.07-.5-.14-.76-.2-.38-.1-.77-.21-1.15-.31-.04-.01-.08-.03-.12-.02-.02.02-.02.04-.02.06-.08.52-1.63,13.6-1.63,13.71Zm-3.24-18.78s0,.04,0,.06c.16.52.31,1.03.47,1.55.14.47.29.95.43,1.42.15.48.29.97.44,1.45.14.47.28.94.42,1.4,0,.03.02.05.03.07,0,.01.02.02.03.01.01,0,.02-.01.03-.02.26-.16.52-.32.77-.49.21-.13.42-.27.64-.4.02-.01.03-.02.05-.03.02-.01.03-.03.02-.06-.03-.1-.06-.21-.09-.31-.14-.45-.27-.9-.41-1.35-.14-.48-.29-.95-.43-1.43-.13-.43-.26-.86-.39-1.29,0-.03-.02-.05-.06-.06-.12-.03-.23-.06-.34-.09-.51-.14-1.02-.28-1.53-.42-.03,0-.05-.02-.09-.01Zm-1.41,13.82s.06.03.08.04c.18.05.36.1.54.15.39.11.78.21,1.17.32.11.03.09.03.18-.03.11-.07.22-.14.33-.21.03-.02.07-.04.1-.06.02-.01.03-.03.02-.06-.01-.04-.03-.09-.04-.13-.12-.4-.24-.81-.36-1.21,0-.01,0-.02-.01-.04,0-.01-.02-.02-.03-.01,0,0-.02,0-.03.01-.18.11-.36.22-.54.34-.4.25-.8.51-1.2.76-.07.04-.13.09-.2.13Z"/>
      <path class="cls-15" d="m174.64,121.08c-.15-.49-.29-.97-.44-1.46-.15-.49-.29-.97-.44-1.46-.15-.49-.29-.97-.44-1.46-.15-.49-.29-.97-.44-1.47-.06.04-.11.06-.16.1-.14.09-.28.18-.43.27-.21.14-.43.27-.64.41-.09.06-.18.11-.27.17-.22.14-.43.27-.65.41-.18.11-.36.23-.54.34-.02.01-.03.02-.05.03-.02,0-.04,0-.03-.02,0-.03,0-.06,0-.09.35-2.92.7-5.83,1.05-8.75.13-1.07.26-2.13.38-3.2,0-.03,0-.06.03-.1.01.03.02.06.03.09.16.53.32,1.06.48,1.59.17.58.35,1.15.52,1.73.13.44.26.89.4,1.33.1.34.21.68.31,1.02,0,.02.02.04.02.06,0,.01.02.01.02,0,.02-.01.05-.02.07-.04.19-.12.37-.24.56-.36.13-.08.26-.17.39-.25.23-.15.46-.29.69-.44.09-.06.18-.12.28-.18.24-.15.48-.3.72-.46,0,0,.02-.01.03-.02.01,0,.03,0,.03.02,0,.02,0,.05,0,.07-.45,3.72-.89,7.45-1.34,11.17-.03.27-.06.53-.1.8,0,.03,0,.06-.01.1,0,0-.01,0-.02,0Z"/>
      <path class="cls-8" d="m175.16,122.45c0-.11,1.56-13.18,1.63-13.71,0-.02,0-.04.02-.06.04,0,.08.01.12.02.38.1.77.21,1.15.31.25.07.5.14.76.2.01,0,.03,0,.04.01.04.01.04.02.04.06,0,.02,0,.04,0,.06-.26,2.17-.52,4.35-.78,6.52-.19,1.6-.38,3.19-.57,4.79-.09.76-.18,1.52-.27,2.27,0,.03,0,.06-.01.09-.03.02-.05,0-.08,0-.48-.13-.95-.26-1.43-.39-.17-.05-.34-.09-.52-.14-.03,0-.07-.01-.09-.03Z"/>
      <path class="cls-8" d="m171.92,103.67s.06,0,.09.01c.51.14,1.02.28,1.53.42.11.03.23.06.34.09.03,0,.05.03.06.06.13.43.26.86.39,1.29.14.48.29.95.43,1.43.14.45.27.9.41,1.35.03.1.06.21.09.31,0,.03,0,.05-.02.06-.02.01-.03.02-.05.03-.21.13-.42.27-.64.4-.26.16-.51.32-.77.49-.01,0-.02.01-.03.02-.01,0-.03,0-.03-.01-.01-.02-.02-.05-.03-.07-.14-.47-.28-.94-.42-1.4-.15-.48-.29-.97-.44-1.45-.14-.47-.28-.95-.43-1.42-.16-.52-.31-1.03-.47-1.55,0-.02-.02-.04,0-.06Z"/>
      <path class="cls-8" d="m170.51,117.5c.07-.05.14-.09.2-.13.4-.25.8-.51,1.2-.76.18-.11.36-.22.54-.34,0,0,.02,0,.03-.01.01,0,.03,0,.03.01,0,.01.01.02.01.04.12.4.24.81.36,1.21.01.04.03.09.04.13,0,.03,0,.04-.02.06-.03.02-.07.04-.1.06-.11.07-.22.14-.33.21-.09.06-.07.06-.18.03-.39-.11-.78-.21-1.17-.32-.18-.05-.36-.1-.54-.15-.02,0-.05,0-.08-.04Z"/>
    </g>
    <g>
      <path class="cls-4" d="m145.26,74.66c0-.09,1.78-14.97,1.81-15.07.03,0,.06,0,.1.02.95.26,1.91.52,2.86.78.09.03.18.05.28.07.04,0,.05.03.07.06.04.15.09.29.13.44.14.48.29.96.43,1.44.14.47.29.95.43,1.42.12.41.24.82.37,1.22,0,0,0,.02,0,.03,0,.02.02.03.04.02.02-.01.04-.02.06-.04.15-.1.31-.2.46-.29.11-.07.07-.06.18-.03.99.27,1.97.54,2.96.8.14.04.11.01.1.14-.59,4.95-1.19,9.9-1.78,14.85,0,.04,0,.07-.01.11-.04,0-.07,0-.1-.02-.87-.24-1.74-.47-2.61-.71-.17-.05-.34-.1-.52-.14-.05-.01-.07-.04-.09-.08-.07-.22-.13-.45-.2-.67-.14-.48-.29-.95-.43-1.43-.15-.51-.31-1.02-.46-1.53-.09-.29-.17-.58-.26-.86,0-.02-.01-.04-.02-.06,0-.01-.01-.01-.02,0,0,0-.01,0-.02,0-.08.05-.16.1-.23.15-.11.07-.21.13-.32.2-.03.02-.06.02-.09.01-.04-.01-.08-.02-.11-.03-.96-.26-1.93-.52-2.89-.79-.03,0-.07-.02-.1-.03Zm5.29,3.21s.01,0,.02,0c0-.03.01-.06.01-.1.03-.27.06-.53.1-.8.45-3.72.89-7.45,1.34-11.17,0-.02,0-.05,0-.07,0-.01-.01-.02-.03-.02,0,0-.02,0-.03.02-.24.15-.48.3-.72.46-.09.06-.18.12-.28.18-.23.15-.46.29-.69.44-.13.08-.26.17-.39.25-.19.12-.37.24-.56.36-.02.01-.05.03-.07.04,0,0-.02,0-.02,0,0-.02-.02-.04-.02-.06-.1-.34-.21-.68-.31-1.02-.13-.44-.26-.89-.4-1.33-.17-.58-.35-1.15-.52-1.73-.16-.53-.32-1.06-.48-1.59,0-.03-.02-.06-.03-.09-.02.03-.02.07-.03.1-.13,1.07-.26,2.13-.38,3.2-.35,2.92-.7,5.83-1.05,8.75,0,.03,0,.06,0,.09,0,.02.02.03.03.02.02,0,.03-.02.05-.03.18-.11.36-.23.54-.34.22-.14.43-.27.65-.41.09-.06.18-.11.27-.17.21-.14.43-.27.64-.41.14-.09.28-.18.43-.27.05-.03.1-.06.16-.1.15.49.3.98.44,1.47.15.49.29.97.44,1.46.15.49.29.97.44,1.46.15.49.29.97.44,1.46Zm.52,1.37s.06.03.09.03c.17.05.34.09.52.14.48.13.95.26,1.43.39.02,0,.05.02.08,0,0-.03,0-.06.01-.09.09-.76.18-1.52.27-2.27.19-1.6.38-3.19.57-4.79.26-2.17.52-4.35.78-6.52,0-.02,0-.04,0-.06,0-.04,0-.04-.04-.06-.01,0-.03,0-.04-.01-.25-.07-.5-.14-.76-.2-.38-.1-.77-.21-1.15-.31-.04-.01-.08-.03-.12-.02-.02.02-.02.04-.02.06-.08.52-1.63,13.6-1.63,13.71Zm-3.24-18.78s0,.04,0,.06c.16.52.31,1.03.47,1.55.14.47.29.95.43,1.42.15.48.29.97.44,1.45.14.47.28.94.42,1.4,0,.03.02.05.03.07,0,.01.02.02.03.01.01,0,.02-.01.03-.02.26-.16.52-.32.77-.49.21-.13.42-.27.64-.4.02-.01.03-.02.05-.03.02-.01.03-.03.02-.06-.03-.1-.06-.21-.09-.31-.14-.45-.27-.9-.41-1.35-.14-.48-.29-.95-.43-1.43-.13-.43-.26-.86-.39-1.29,0-.03-.02-.05-.06-.06-.12-.03-.23-.06-.34-.09-.51-.14-1.02-.28-1.53-.42-.03,0-.05-.02-.09-.01Zm-1.41,13.82s.06.03.08.04c.18.05.36.1.54.15.39.11.78.21,1.17.32.11.03.09.03.18-.03.11-.07.22-.14.33-.21.03-.02.07-.04.1-.06.02-.01.03-.03.02-.06-.01-.04-.03-.09-.04-.13-.12-.4-.24-.81-.36-1.21,0-.01,0-.02-.01-.04,0-.01-.02-.02-.03-.01,0,0-.02,0-.03.01-.18.11-.36.22-.54.34-.4.25-.8.51-1.2.76-.07.04-.13.09-.2.13Z"/>
      <path class="cls-15" d="m150.56,77.87c-.15-.49-.29-.97-.44-1.46-.15-.49-.29-.97-.44-1.46-.15-.49-.29-.97-.44-1.46-.15-.49-.29-.97-.44-1.47-.06.04-.11.06-.16.1-.14.09-.28.18-.43.27-.21.14-.43.27-.64.41-.09.06-.18.11-.27.17-.22.14-.43.27-.65.41-.18.11-.36.23-.54.34-.02.01-.03.02-.05.03-.02,0-.04,0-.03-.02,0-.03,0-.06,0-.09.35-2.92.7-5.83,1.05-8.75.13-1.07.26-2.13.38-3.2,0-.03,0-.06.03-.1.01.03.02.06.03.09.16.53.32,1.06.48,1.59.17.58.35,1.15.52,1.73.13.44.26.89.4,1.33.1.34.21.68.31,1.02,0,.02.02.04.02.06,0,.01.02.01.02,0,.02-.01.05-.02.07-.04.19-.12.37-.24.56-.36.13-.08.26-.17.39-.25.23-.15.46-.29.69-.44.09-.06.18-.12.28-.18.24-.15.48-.3.72-.46,0,0,.02-.01.03-.02.01,0,.03,0,.03.02,0,.02,0,.05,0,.07-.45,3.72-.89,7.45-1.34,11.17-.03.27-.06.53-.1.8,0,.03,0,.06-.01.1,0,0-.01,0-.02,0Z"/>
      <path class="cls-8" d="m151.07,79.24c0-.11,1.56-13.18,1.63-13.71,0-.02,0-.04.02-.06.04,0,.08.01.12.02.38.1.77.21,1.15.31.25.07.5.14.76.2.01,0,.03,0,.04.01.04.01.04.02.04.06,0,.02,0,.04,0,.06-.26,2.17-.52,4.35-.78,6.52-.19,1.6-.38,3.19-.57,4.79-.09.76-.18,1.52-.27,2.27,0,.03,0,.06-.01.09-.03.02-.05,0-.08,0-.48-.13-.95-.26-1.43-.39-.17-.05-.34-.09-.52-.14-.03,0-.07-.01-.09-.03Z"/>
      <path class="cls-8" d="m147.83,60.46s.06,0,.09.01c.51.14,1.02.28,1.53.42.11.03.23.06.34.09.03,0,.05.03.06.06.13.43.26.86.39,1.29.14.48.29.95.43,1.43.14.45.27.9.41,1.35.03.1.06.21.09.31,0,.03,0,.05-.02.06-.02.01-.03.02-.05.03-.21.13-.42.27-.64.4-.26.16-.51.32-.77.49-.01,0-.02.01-.03.02-.01,0-.03,0-.03-.01-.01-.02-.02-.05-.03-.07-.14-.47-.28-.94-.42-1.4-.15-.48-.29-.97-.44-1.45-.14-.47-.28-.95-.43-1.42-.16-.52-.31-1.03-.47-1.55,0-.02-.02-.04,0-.06Z"/>
      <path class="cls-8" d="m146.42,74.28c.07-.05.14-.09.2-.13.4-.25.8-.51,1.2-.76.18-.11.36-.22.54-.34,0,0,.02,0,.03-.01.01,0,.03,0,.03.01,0,.01.01.02.01.04.12.4.24.81.36,1.21.01.04.03.09.04.13,0,.03,0,.04-.02.06-.03.02-.07.04-.1.06-.11.07-.22.14-.33.21-.09.06-.07.06-.18.03-.39-.11-.78-.21-1.17-.32-.18-.05-.36-.1-.54-.15-.02,0-.05,0-.08-.04Z"/>
    </g>
    <g>
      <path class="cls-4" d="m215.39,114.47c0-.09,1.78-14.97,1.81-15.07.03,0,.06,0,.1.02.95.26,1.91.52,2.86.78.09.03.18.05.28.07.04,0,.05.03.07.06.04.15.09.29.13.44.14.48.29.96.43,1.44.14.47.29.95.43,1.42.12.41.24.82.37,1.22,0,0,0,.02,0,.03,0,.02.02.03.04.02.02-.01.04-.02.06-.04.15-.1.31-.2.46-.29.11-.07.07-.06.18-.03.99.27,1.97.54,2.96.8.14.04.11.01.1.14-.59,4.95-1.19,9.9-1.78,14.85,0,.04,0,.07-.01.11-.04,0-.07,0-.1-.02-.87-.24-1.74-.47-2.61-.71-.17-.05-.34-.1-.52-.14-.05-.01-.07-.04-.09-.08-.07-.22-.13-.45-.2-.67-.14-.48-.29-.95-.43-1.43-.15-.51-.31-1.02-.46-1.53-.09-.29-.17-.58-.26-.86,0-.02-.01-.04-.02-.06,0-.01-.01-.01-.02,0,0,0-.01,0-.02,0-.08.05-.16.1-.23.15-.11.07-.21.13-.32.2-.03.02-.06.02-.09.01-.04-.01-.08-.02-.11-.03-.96-.26-1.93-.52-2.89-.79-.03,0-.07-.02-.1-.03Zm5.29,3.21s.01,0,.02,0c0-.03.01-.06.01-.1.03-.27.06-.53.1-.8.45-3.72.89-7.45,1.34-11.17,0-.02,0-.05,0-.07,0-.01-.01-.02-.03-.02,0,0-.02,0-.03.02-.24.15-.48.3-.72.46-.09.06-.18.12-.28.18-.23.15-.46.29-.69.44-.13.08-.26.17-.39.25-.19.12-.37.24-.56.36-.02.01-.05.03-.07.04,0,0-.02,0-.02,0,0-.02-.02-.04-.02-.06-.1-.34-.21-.68-.31-1.02-.13-.44-.26-.89-.4-1.33-.17-.58-.35-1.15-.52-1.73-.16-.53-.32-1.06-.48-1.59,0-.03-.02-.06-.03-.09-.02.03-.02.07-.03.1-.13,1.07-.26,2.13-.38,3.2-.35,2.92-.7,5.83-1.05,8.75,0,.03,0,.06,0,.09,0,.02.02.03.03.02.02,0,.03-.02.05-.03.18-.11.36-.23.54-.34.22-.14.43-.27.65-.41.09-.06.18-.11.27-.17.21-.14.43-.27.64-.41.14-.09.28-.18.43-.27.05-.03.1-.06.16-.1.15.49.3.98.44,1.47.15.49.29.97.44,1.46.15.49.29.97.44,1.46.15.49.29.97.44,1.46Zm.52,1.37s.06.03.09.03c.17.05.34.09.52.14.48.13.95.26,1.43.39.02,0,.05.02.08,0,0-.03,0-.06.01-.09.09-.76.18-1.52.27-2.27.19-1.6.38-3.19.57-4.79.26-2.17.52-4.35.78-6.52,0-.02,0-.04,0-.06,0-.04,0-.04-.04-.06-.01,0-.03,0-.04-.01-.25-.07-.5-.14-.76-.2-.38-.1-.77-.21-1.15-.31-.04-.01-.08-.03-.12-.02-.02.02-.02.04-.02.06-.08.52-1.63,13.6-1.63,13.71Zm-3.24-18.78s0,.04,0,.06c.16.52.31,1.03.47,1.55.14.47.29.95.43,1.42.15.48.29.97.44,1.45.14.47.28.94.42,1.4,0,.03.02.05.03.07,0,.01.02.02.03.01.01,0,.02-.01.03-.02.26-.16.52-.32.77-.49.21-.13.42-.27.64-.4.02-.01.03-.02.05-.03.02-.01.03-.03.02-.06-.03-.1-.06-.21-.09-.31-.14-.45-.27-.9-.41-1.35-.14-.48-.29-.95-.43-1.43-.13-.43-.26-.86-.39-1.29,0-.03-.02-.05-.06-.06-.12-.03-.23-.06-.34-.09-.51-.14-1.02-.28-1.53-.42-.03,0-.05-.02-.09-.01Zm-1.41,13.82s.06.03.08.04c.18.05.36.1.54.15.39.11.78.21,1.17.32.11.03.09.03.18-.03.11-.07.22-.14.33-.21.03-.02.07-.04.1-.06.02-.01.03-.03.02-.06-.01-.04-.03-.09-.04-.13-.12-.4-.24-.81-.36-1.21,0-.01,0-.02-.01-.04,0-.01-.02-.02-.03-.01,0,0-.02,0-.03.01-.18.11-.36.22-.54.34-.4.25-.8.51-1.2.76-.07.04-.13.09-.2.13Z"/>
      <path class="cls-15" d="m220.68,117.68c-.15-.49-.29-.97-.44-1.46-.15-.49-.29-.97-.44-1.46-.15-.49-.29-.97-.44-1.46-.15-.49-.29-.97-.44-1.47-.06.04-.11.06-.16.1-.14.09-.28.18-.43.27-.21.14-.43.27-.64.41-.09.06-.18.11-.27.17-.22.14-.43.27-.65.41-.18.11-.36.23-.54.34-.02.01-.03.02-.05.03-.02,0-.04,0-.03-.02,0-.03,0-.06,0-.09.35-2.92.7-5.83,1.05-8.75.13-1.07.26-2.13.38-3.2,0-.03,0-.06.03-.1.01.03.02.06.03.09.16.53.32,1.06.48,1.59.17.58.35,1.15.52,1.73.13.44.26.89.4,1.33.1.34.21.68.31,1.02,0,.02.02.04.02.06,0,.01.02.01.02,0,.02-.01.05-.02.07-.04.19-.12.37-.24.56-.36.13-.08.26-.17.39-.25.23-.15.46-.29.69-.44.09-.06.18-.12.28-.18.24-.15.48-.3.72-.46,0,0,.02-.01.03-.02.01,0,.03,0,.03.02,0,.02,0,.05,0,.07-.45,3.72-.89,7.45-1.34,11.17-.03.27-.06.53-.1.8,0,.03,0,.06-.01.1,0,0-.01,0-.02,0Z"/>
      <path class="cls-8" d="m221.2,119.05c0-.11,1.56-13.18,1.63-13.71,0-.02,0-.04.02-.06.04,0,.08.01.12.02.38.1.77.21,1.15.31.25.07.5.14.76.2.01,0,.03,0,.04.01.04.01.04.02.04.06,0,.02,0,.04,0,.06-.26,2.17-.52,4.35-.78,6.52-.19,1.6-.38,3.19-.57,4.79-.09.76-.18,1.52-.27,2.27,0,.03,0,.06-.01.09-.03.02-.05,0-.08,0-.48-.13-.95-.26-1.43-.39-.17-.05-.34-.09-.52-.14-.03,0-.07-.01-.09-.03Z"/>
      <path class="cls-8" d="m217.96,100.28s.06,0,.09.01c.51.14,1.02.28,1.53.42.11.03.23.06.34.09.03,0,.05.03.06.06.13.43.26.86.39,1.29.14.48.29.95.43,1.43.14.45.27.9.41,1.35.03.1.06.21.09.31,0,.03,0,.05-.02.06-.02.01-.03.02-.05.03-.21.13-.42.27-.64.4-.26.16-.51.32-.77.49-.01,0-.02.01-.03.02-.01,0-.03,0-.03-.01-.01-.02-.02-.05-.03-.07-.14-.47-.28-.94-.42-1.4-.15-.48-.29-.97-.44-1.45-.14-.47-.28-.95-.43-1.42-.16-.52-.31-1.03-.47-1.55,0-.02-.02-.04,0-.06Z"/>
      <path class="cls-8" d="m216.55,114.1c.07-.05.14-.09.2-.13.4-.25.8-.51,1.2-.76.18-.11.36-.22.54-.34,0,0,.02,0,.03-.01.01,0,.03,0,.03.01,0,.01.01.02.01.04.12.4.24.81.36,1.21.01.04.03.09.04.13,0,.03,0,.04-.02.06-.03.02-.07.04-.1.06-.11.07-.22.14-.33.21-.09.06-.07.06-.18.03-.39-.11-.78-.21-1.17-.32-.18-.05-.36-.1-.54-.15-.02,0-.05,0-.08-.04Z"/>
    </g>
    <g>
      <path class="cls-4" d="m141.98,124.85c0-.09,1.78-14.97,1.81-15.07.03,0,.06,0,.1.02.95.26,1.91.52,2.86.78.09.03.18.05.28.07.04,0,.05.03.07.06.04.15.09.29.13.44.14.48.29.96.43,1.44.14.47.29.95.43,1.42.12.41.24.82.37,1.22,0,0,0,.02,0,.03,0,.02.02.03.04.02.02-.01.04-.02.06-.04.15-.1.31-.2.46-.29.11-.07.07-.06.18-.03.99.27,1.97.54,2.96.8.14.04.11.01.1.14-.59,4.95-1.19,9.9-1.78,14.85,0,.04,0,.07-.01.11-.04,0-.07,0-.1-.02-.87-.24-1.74-.47-2.61-.71-.17-.05-.34-.1-.52-.14-.05-.01-.07-.04-.09-.08-.07-.22-.13-.45-.2-.67-.14-.48-.29-.95-.43-1.43-.15-.51-.31-1.02-.46-1.53-.09-.29-.17-.58-.26-.86,0-.02-.01-.04-.02-.06,0-.01-.01-.01-.02,0,0,0-.01,0-.02,0-.08.05-.16.1-.23.15-.11.07-.21.13-.32.2-.03.02-.06.02-.09.01-.04-.01-.08-.02-.11-.03-.96-.26-1.93-.52-2.89-.79-.03,0-.07-.02-.1-.03Zm5.29,3.21s.01,0,.02,0c0-.03.01-.06.01-.1.03-.27.06-.53.1-.8.45-3.72.89-7.45,1.34-11.17,0-.02,0-.05,0-.07,0-.01-.01-.02-.03-.02,0,0-.02,0-.03.02-.24.15-.48.3-.72.46-.09.06-.18.12-.28.18-.23.15-.46.29-.69.44-.13.08-.26.17-.39.25-.19.12-.37.24-.56.36-.02.01-.05.03-.07.04,0,0-.02,0-.02,0,0-.02-.02-.04-.02-.06-.1-.34-.21-.68-.31-1.02-.13-.44-.26-.89-.4-1.33-.17-.58-.35-1.15-.52-1.73-.16-.53-.32-1.06-.48-1.59,0-.03-.02-.06-.03-.09-.02.03-.02.07-.03.1-.13,1.07-.26,2.13-.38,3.2-.35,2.92-.7,5.83-1.05,8.75,0,.03,0,.06,0,.09,0,.02.02.03.03.02.02,0,.03-.02.05-.03.18-.11.36-.23.54-.34.22-.14.43-.27.65-.41.09-.06.18-.11.27-.17.21-.14.43-.27.64-.41.14-.09.28-.18.43-.27.05-.03.1-.06.16-.1.15.49.3.98.44,1.47.15.49.29.97.44,1.46.15.49.29.97.44,1.46.15.49.29.97.44,1.46Zm.52,1.37s.06.03.09.03c.17.05.34.09.52.14.48.13.95.26,1.43.39.02,0,.05.02.08,0,0-.03,0-.06.01-.09.09-.76.18-1.52.27-2.27.19-1.6.38-3.19.57-4.79.26-2.17.52-4.35.78-6.52,0-.02,0-.04,0-.06,0-.04,0-.04-.04-.06-.01,0-.03,0-.04-.01-.25-.07-.5-.14-.76-.2-.38-.1-.77-.21-1.15-.31-.04-.01-.08-.03-.12-.02-.02.02-.02.04-.02.06-.08.52-1.63,13.6-1.63,13.71Zm-3.24-18.78s0,.04,0,.06c.16.52.31,1.03.47,1.55.14.47.29.95.43,1.42.15.48.29.97.44,1.45.14.47.28.94.42,1.4,0,.03.02.05.03.07,0,.01.02.02.03.01.01,0,.02-.01.03-.02.26-.16.52-.32.77-.49.21-.13.42-.27.64-.4.02-.01.03-.02.05-.03.02-.01.03-.03.02-.06-.03-.1-.06-.21-.09-.31-.14-.45-.27-.9-.41-1.35-.14-.48-.29-.95-.43-1.43-.13-.43-.26-.86-.39-1.29,0-.03-.02-.05-.06-.06-.12-.03-.23-.06-.34-.09-.51-.14-1.02-.28-1.53-.42-.03,0-.05-.02-.09-.01Zm-1.41,13.82s.06.03.08.04c.18.05.36.1.54.15.39.11.78.21,1.17.32.11.03.09.03.18-.03.11-.07.22-.14.33-.21.03-.02.07-.04.1-.06.02-.01.03-.03.02-.06-.01-.04-.03-.09-.04-.13-.12-.4-.24-.81-.36-1.21,0-.01,0-.02-.01-.04,0-.01-.02-.02-.03-.01,0,0-.02,0-.03.01-.18.11-.36.22-.54.34-.4.25-.8.51-1.2.76-.07.04-.13.09-.2.13Z"/>
      <path class="cls-15" d="m147.27,128.06c-.15-.49-.29-.97-.44-1.46-.15-.49-.29-.97-.44-1.46-.15-.49-.29-.97-.44-1.46-.15-.49-.29-.97-.44-1.47-.06.04-.11.06-.16.1-.14.09-.28.18-.43.27-.21.14-.43.27-.64.41-.09.06-.18.11-.27.17-.22.14-.43.27-.65.41-.18.11-.36.23-.54.34-.02.01-.03.02-.05.03-.02,0-.04,0-.03-.02,0-.03,0-.06,0-.09.35-2.92.7-5.83,1.05-8.75.13-1.07.26-2.13.38-3.2,0-.03,0-.06.03-.1.01.03.02.06.03.09.16.53.32,1.06.48,1.59.17.58.35,1.15.52,1.73.13.44.26.89.4,1.33.1.34.21.68.31,1.02,0,.02.02.04.02.06,0,.01.02.01.02,0,.02-.01.05-.02.07-.04.19-.12.37-.24.56-.36.13-.08.26-.17.39-.25.23-.15.46-.29.69-.44.09-.06.18-.12.28-.18.24-.15.48-.3.72-.46,0,0,.02-.01.03-.02.01,0,.03,0,.03.02,0,.02,0,.05,0,.07-.45,3.72-.89,7.45-1.34,11.17-.03.27-.06.53-.1.8,0,.03,0,.06-.01.1,0,0-.01,0-.02,0Z"/>
      <path class="cls-8" d="m147.79,129.44c0-.11,1.56-13.18,1.63-13.71,0-.02,0-.04.02-.06.04,0,.08.01.12.02.38.1.77.21,1.15.31.25.07.5.14.76.2.01,0,.03,0,.04.01.04.01.04.02.04.06,0,.02,0,.04,0,.06-.26,2.17-.52,4.35-.78,6.52-.19,1.6-.38,3.19-.57,4.79-.09.76-.18,1.52-.27,2.27,0,.03,0,.06-.01.09-.03.02-.05,0-.08,0-.48-.13-.95-.26-1.43-.39-.17-.05-.34-.09-.52-.14-.03,0-.07-.01-.09-.03Z"/>
      <path class="cls-8" d="m144.55,110.66s.06,0,.09.01c.51.14,1.02.28,1.53.42.11.03.23.06.34.09.03,0,.05.03.06.06.13.43.26.86.39,1.29.14.48.29.95.43,1.43.14.45.27.9.41,1.35.03.1.06.21.09.31,0,.03,0,.05-.02.06-.02.01-.03.02-.05.03-.21.13-.42.27-.64.4-.26.16-.51.32-.77.49-.01,0-.02.01-.03.02-.01,0-.03,0-.03-.01-.01-.02-.02-.05-.03-.07-.14-.47-.28-.94-.42-1.4-.15-.48-.29-.97-.44-1.45-.14-.47-.28-.95-.43-1.42-.16-.52-.31-1.03-.47-1.55,0-.02-.02-.04,0-.06Z"/>
      <path class="cls-8" d="m143.14,124.48c.07-.05.14-.09.2-.13.4-.25.8-.51,1.2-.76.18-.11.36-.22.54-.34,0,0,.02,0,.03-.01.01,0,.03,0,.03.01,0,.01.01.02.01.04.12.4.24.81.36,1.21.01.04.03.09.04.13,0,.03,0,.04-.02.06-.03.02-.07.04-.1.06-.11.07-.22.14-.33.21-.09.06-.07.06-.18.03-.39-.11-.78-.21-1.17-.32-.18-.05-.36-.1-.54-.15-.02,0-.05,0-.08-.04Z"/>
    </g>
  </g>
  <g>
    <g class="cls-3">
      <ellipse class="cls-4" cx="65.43" cy="209.94" rx="40.62" ry="6.56"/>
    </g>
    <path class="cls-4" d="m36,163.45c.16,1.33,4.56,38.84,10.95,44.1,6.39,5.26,9.75,3.49,11.04,2.09,1.36-1.47,3.08-4.1-.1-7.06-2.56-2.39-4.35-12.95-1.8-29.45l-20.08-9.68Z"/>
    <path class="cls-4" d="m60.4,161.11c.17,1.33,4.56,38.84,10.95,44.1,6.39,5.26,9.75,3.49,11.04,2.09,1.36-1.46,3.08-4.09-.1-7.06-2.56-2.39-4.36-12.95-1.8-29.45l-20.09-9.68Z"/>
    <path class="cls-4" d="m76.09,110.79c-2.92-.32-5.68,1.43-6.08,4.63-.41,3.18,2.64,6.94,6.72,7.41,11.59,1.34,22.41-3.02,29.82-12.03,2.61-3.16,2.2-7.99-.3-9.99-2.51-2.02-5.71-1.37-7.59.88-5.62,6.82-13.79,10.12-22.56,9.1Z"/>
    <path class="cls-1" d="m41.11,106.79c7.39-4.1,16.74-6.3,34.02-6.97-4.12-1.74-9.57-2.55-17.55-2.55h-.01c-13.66,0-19.97,2.33-24.73,7.74-5.61,6.39-8.45,24.66-9.01,38.88.91-13.35,6.32-31.01,17.28-37.1Z"/>
    <path class="cls-6" d="m23.84,143.89c-.13,1.96-.16,3.82-.11,5.55,0-1.75.03-3.61.11-5.55Z"/>
    <path class="cls-6" d="m11.89,166.8c-1.95,1.38-4.47,1.87-5.8.68-1.32-1.17-.92-4.16,1.25-6.32,5.87-5.85,13.57-9.79,22.05-11.05,3.16-.46,5.45,2.21,5.07,5.43-.38,3.24-2.36,5.56-4.52,5.54-6.21-.1-12.58,1.8-18.04,5.72Z"/>
    <path class="cls-1" d="m36.28,80.25c-2.19-12.14,6.34-19.24,27.48-20.51,6.71-.4,12.91-8.28,17.76-9.73,13.94-4.15,17.25,4.94,17.25,4.94h.03c-6.87-15.7-26.46-24.9-47.24-21.05-23.59,4.37-39.75,23.87-36.11,43.56,3.64,19.7,25.72,32.12,49.3,27.76,2.05-.38,4.05-.88,5.98-1.48v-.02c-20.51,5.29-31.55-7.35-34.46-23.46Z"/>
    <path class="cls-6" d="m100.86,61.66c-.43-2.35-1.14-4.58-2.06-6.7h-.03s-3.31-9.09-17.26-4.94c-4.85,1.44-11.05,9.32-17.76,9.73-21.14,1.27-29.68,8.36-27.48,20.51,2.92,16.12,13.96,28.75,34.46,23.46v.02c20.27-6.29,33.45-24.1,30.13-42.07Z"/>
    <path class="cls-12" d="m78.91,95.74c-4.49,1.01-14.05-1.25-14.08-10.95-.04-9.7,10.48-12.84,14.02-13.64,3.54-.8,14.08-2.4,14.11,7.29.04,9.7-9.56,16.29-14.05,17.3Z"/>
    <path class="cls-4" d="m79.07,73.64c1.95-.44,4.85,1.07,5.2,3.52.35,2.45-5.3,3.63-5.3,3.63l-.16.04s-5.65,1.37-5.32-1.24c.33-2.6,3.21-5.41,5.16-5.86l.42-.09Z"/>
    <path class="cls-4" d="m77.36,91.18c-.48,0-.96-.05-1.42-.15-.96-.22-1.81-.64-2.53-1.24-.72-.6-1.3-1.37-1.71-2.28-.08-.17,0-.37.17-.44.17-.08.37,0,.44.17.37.82.88,1.51,1.52,2.04.64.53,1.4.9,2.25,1.1.87.19,1.8.18,2.76-.04.97-.22,1.91-.63,2.8-1.24.86-.58,1.63-1.31,2.29-2.16.66-.86,1.18-1.8,1.54-2.8.06-.17.26-.26.43-.2.17.06.27.26.2.43-.38,1.06-.94,2.07-1.64,2.98-.7.91-1.53,1.69-2.45,2.31-.96.65-1.98,1.1-3.03,1.33-.56.13-1.1.19-1.64.19Z"/>
    <circle class="cls-4" cx="59.95" cy="72" r="1.78"/>
    <circle class="cls-4" cx="87.44" cy="62.28" r="1.78"/>
    <path class="cls-6" d="m42.75,82.34c1.36,6.86.28,12.86-2.41,13.4-2.69.53-5.97-4.6-7.33-11.46-1.36-6.87-.28-12.86,2.4-13.39,2.69-.54,5.97,4.59,7.34,11.46Z"/>
    <path class="cls-4" d="m38.32,75.25c-2.21.46-3.32,4.95-3.02,11-.2-.73-.39-1.5-.54-2.3-1.04-5.39-.46-10.06,1.29-10.42.74-.15,1.58.5,2.38,1.72-.04,0-.08,0-.11,0Z"/>
    <path class="cls-12" d="m54.49,73.49c-.19,0-.35-.15-.37-.34-.06-.67.01-1.34.21-1.98.2-.64.51-1.23.94-1.76.44-.54.97-.98,1.59-1.31.62-.33,1.29-.53,1.98-.59.2-.02.38.13.4.34.02.2-.13.38-.34.4-.59.05-1.16.22-1.7.5-.53.28-.99.66-1.36,1.12-.37.45-.64.96-.81,1.51-.17.55-.23,1.12-.18,1.7.02.2-.13.38-.34.4-.01,0-.02,0-.03,0Z"/>
    <path class="cls-12" d="m91.99,60.23c-.13,0-.26-.07-.32-.19-.29-.52-.68-.98-1.15-1.34-.48-.37-1.01-.64-1.58-.79-.56-.15-1.13-.19-1.71-.12-.57.07-1.12.25-1.62.53-.18.1-.4.04-.5-.14s-.04-.41.14-.5c.59-.33,1.22-.53,1.89-.62.67-.08,1.34-.04,1.99.13.67.17,1.29.48,1.84.92.55.43,1,.96,1.35,1.57.1.18.04.41-.14.5-.06.03-.12.05-.18.05Z"/>
    <path class="cls-6" d="m82.31,105.01c-1.73-1.98-3.68-3.54-6.12-4.73-.34-.16-.7-.31-1.06-.46-2.78.11-5.34.26-7.74.45-5.88.21-10.49.87-14.23,2.04-4.82,1.12-8.65,2.6-12.05,4.49-10.95,6.08-16.37,23.74-17.28,37.09-.08,1.94-.11,3.8-.11,5.55.02,4.52.3,8.27.84,10.53.59,2.45,2.93,4.55,6.62,6.2,5.88,2.63,15.18,4.13,26.38,4.13h.01c1.05,0,2.08-.02,3.09-.04.32,0,.62-.02.93-.03.71-.03,1.4-.05,2.09-.09.34-.02.68-.04,1.02-.06.66-.04,1.32-.09,1.96-.14.3-.03.61-.05.91-.08.79-.07,1.55-.15,2.31-.24.13-.02.27-.03.4-.05.89-.11,1.75-.23,2.6-.37.21-.03.4-.07.6-.1.63-.11,1.25-.22,1.85-.34.25-.05.5-.1.75-.15.54-.12,1.07-.24,1.59-.36.24-.06.47-.12.71-.17.56-.15,1.1-.3,1.63-.46.12-.04.25-.07.38-.11h-.02c3.61-1.12,6.41-2.54,8.18-4.23.02-.02.03-.04.05-.05.33-.32.63-.65.89-.99.1-.13.16-.28.25-.41.15-.23.32-.46.43-.7.19-.38.32-.77.42-1.16,2.29-9.58.08-45.45-8.28-54.97Z"/>
    <ellipse class="cls-6" cx="57.7" cy="155.71" rx="33.54" ry="26.43"/>
    <g>
      <path class="cls-4" d="m45.02,114.2c-1.88-2.26-5.08-2.91-7.59-.9-2.5,2-2.92,6.82-.32,9.99,7.4,9.02,18.2,13.4,29.8,12.08,4.08-.46,7.13-4.22,6.73-7.39-.4-3.19-3.15-4.96-6.08-4.65-8.77,1-16.94-2.31-22.54-9.13Z"/>
      <path class="cls-4" d="m76.57,125.75c.78-.15,1.48-.64,1.5-1.22.03-.59-.78-1.18-1.79-1.16-2.75.05-5.46.98-7.72,2.71-.83.65-.73,1.81.13,2.47.86.66,1.87.72,2.36.19,1.41-1.51,3.33-2.59,5.52-2.99Z"/>
      <path class="cls-4" d="m77.5,130.26c.79.08,1.59-.2,1.78-.76.19-.56-.42-1.35-1.4-1.61-2.65-.71-5.52-.57-8.17.47-.98.39-1.2,1.54-.56,2.4.64.87,1.6,1.21,2.22.84,1.77-1.05,3.91-1.56,6.13-1.34Z"/>
      <path class="cls-4" d="m76.07,134.73c.67.43,1.51.55,1.93.13.42-.41.24-1.39-.52-2.08-2.04-1.84-4.65-3.02-7.48-3.3-1.05-.1-1.77.82-1.59,1.89.18,1.06.87,1.8,1.59,1.76,2.05-.13,4.2.39,6.07,1.61Z"/>
    </g>
    <path class="cls-4" d="m61.4,205.99c.8.23,1.68.09,1.98-.45.3-.54-.18-1.47-1.14-1.93-2.61-1.24-5.59-1.65-8.53-1.07-1.09.22-1.54,1.36-1.04,2.37.5,1.02,1.42,1.55,2.13,1.3,2.03-.76,4.34-.88,6.59-.22Z"/>
    <path class="cls-4" d="m60.15,210.66c.71.44,1.59.55,2.03.12s.24-1.46-.56-2.17c-2.16-1.92-4.92-3.13-7.89-3.4-1.11-.09-1.85.88-1.65,1.99.2,1.12.93,1.89,1.69,1.84,2.15-.16,4.41.37,6.39,1.62Z"/>
    <path class="cls-4" d="m56.7,214.19c.43.72,1.16,1.22,1.75,1.03.59-.19.88-1.2.49-2.19-1.05-2.69-2.95-5.02-5.49-6.61-.94-.6-2.05-.07-2.38,1.02-.33,1.09-.03,2.11.67,2.4,1.99.84,3.76,2.33,4.96,4.35Z"/>
    <path class="cls-4" d="m86.9,203.22c.8.23,1.68.09,1.98-.45.3-.54-.18-1.48-1.14-1.93-2.61-1.24-5.59-1.64-8.53-1.07-1.09.22-1.54,1.36-1.04,2.37.5,1.02,1.42,1.55,2.13,1.3,2.03-.75,4.34-.88,6.59-.22Z"/>
    <path class="cls-4" d="m85.65,207.88c.7.44,1.59.56,2.02.12.44-.43.24-1.47-.56-2.17-2.16-1.92-4.92-3.13-7.9-3.4-1.11-.1-1.85.88-1.65,1.99.2,1.12.93,1.89,1.69,1.83,2.16-.16,4.41.37,6.39,1.62Z"/>
    <path class="cls-4" d="m82.2,211.41c.43.72,1.16,1.22,1.75,1.03.59-.19.88-1.2.49-2.19-1.05-2.69-2.95-5.02-5.49-6.62-.94-.59-2.05-.06-2.38,1.02-.34,1.09-.03,2.1.66,2.4,2,.84,3.76,2.34,4.96,4.35Z"/>
    <path class="cls-4" d="m106.8,97.24c.51-.68.7-1.56.29-2.05-.41-.48-1.47-.36-2.25.39-2.12,2.03-3.57,4.73-4.09,7.72-.19,1.12.74,1.95,1.89,1.83,1.15-.11,1.99-.79,1.99-1.55.02-2.2.74-4.43,2.17-6.34Z"/>
    <path class="cls-4" d="m110.79,100.11c.68-.51,1.1-1.31.85-1.89-.26-.58-1.31-.75-2.27-.25-2.6,1.36-4.74,3.55-6.07,6.28-.49,1.02.17,2.08,1.3,2.29,1.14.21,2.13-.21,2.35-.95.63-2.1,1.94-4.05,3.85-5.49Z"/>
    <path class="cls-4" d="m112.9,104.66c.83-.15,1.58-.66,1.61-1.29.03-.62-.82-1.26-1.91-1.25-2.93.03-5.83,1-8.26,2.83-.9.68-.79,1.92.12,2.63.91.71,1.99.79,2.52.23,1.52-1.59,3.57-2.73,5.92-3.14Z"/>
    <path class="cls-14" d="m107.41,106.04c-.18,0-.36-.02-.54-.05-1.54-.3-2.55-1.79-2.25-3.33l3.48-17.99c.3-1.54,1.8-2.55,3.33-2.25,1.54.3,2.55,1.79,2.25,3.33l-3.48,17.99c-.26,1.36-1.45,2.3-2.79,2.3Z"/>
    <circle class="cls-13" cx="114.51" cy="74.55" r="16.04"/>
    <path class="cls-11" d="m116.27,72.99c8.86,0,14.28-7.3,14.28,1.56s-7.18,16.04-16.04,16.04-16.04-7.18-16.04-16.04,8.93-1.56,17.79-1.56Z"/>
    <g>
      <path class="cls-1" d="m119.79,69.59c-.5,0-1-.15-1.44-.46-1.13-.8-1.39-2.36-.59-3.49l2.89-4.08c.8-1.13,2.36-1.39,3.49-.59,1.13.8,1.39,2.36.59,3.49l-2.89,4.08c-.49.69-1.26,1.05-2.04,1.05Z"/>
      <path class="cls-1" d="m106.09,88.93c-.5,0-1-.15-1.44-.46-1.13-.8-1.39-2.36-.59-3.49l2.89-4.08c.8-1.13,2.36-1.39,3.49-.59,1.13.8,1.39,2.36.59,3.49l-2.89,4.08c-.49.69-1.26,1.05-2.04,1.05Z"/>
    </g>
    <path class="cls-14" d="m114.51,92.48c-9.89,0-17.93-8.04-17.93-17.93s8.04-17.93,17.93-17.93,17.93,8.04,17.93,17.93-8.04,17.93-17.93,17.93Zm0-32.08c-7.8,0-14.14,6.35-14.14,14.14s6.35,14.14,14.14,14.14,14.14-6.35,14.14-14.14-6.35-14.14-14.14-14.14Z"/>
  </g>
  <g class="cls-7">
    <path class="cls-4" d="m118.12,72.13c-.75-.2-1.5-.41-2.25-.61-.09-.02-.06-.03-.14.02-.12.07-.23.15-.35.22-.01,0-.03.02-.05.03-.01,0-.02,0-.03-.01,0,0,0-.01,0-.02-.09-.31-.19-.62-.28-.93-.11-.36-.22-.72-.33-1.08-.11-.37-.22-.73-.33-1.1-.03-.11-.07-.22-.1-.33,0-.03-.02-.04-.05-.05-.07-.02-.14-.04-.21-.06-.72-.2-1.45-.39-2.17-.59-.02,0-.05-.02-.07-.01-.02.08-1.37,11.38-1.37,11.45.03,0,.05.02.08.02.73.2,1.46.4,2.2.6.03,0,.06.01.09.02.03,0,.05,0,.07,0,.08-.05.16-.1.24-.16.06-.04.12-.08.18-.11,0,0,0,0,.01,0,0,0,.02,0,.02,0,0,.01.01.03.02.04.07.22.13.44.2.66.12.39.23.77.35,1.16.11.36.22.73.33,1.09.05.17.1.34.15.51.01.03.03.05.06.06.13.03.26.07.39.11.66.18,1.32.36,1.98.54.02,0,.05.02.07.01,0-.03,0-.06.01-.08.45-3.76.9-7.52,1.35-11.28.01-.1.03-.08-.07-.11Z"/>
  </g>
  <g>
    <path class="cls-4" d="m111.45,78c0-.07,1.36-11.37,1.37-11.45.03,0,.05,0,.07.01.72.2,1.45.39,2.17.59.07.02.14.04.21.06.03,0,.04.02.05.05.03.11.07.22.1.33.11.36.22.73.33,1.1.11.36.22.72.33,1.08.09.31.19.62.28.93,0,0,0,.01,0,.02,0,.01.01.02.03.01.02,0,.03-.02.05-.03.12-.07.23-.15.35-.22.08-.05.05-.04.14-.02.75.2,1.5.41,2.25.61.1.03.09.01.07.11-.45,3.76-.9,7.52-1.35,11.28,0,.03,0,.05-.01.08-.03,0-.05,0-.07-.01-.66-.18-1.32-.36-1.98-.54-.13-.04-.26-.07-.39-.11-.04,0-.05-.03-.06-.06-.05-.17-.1-.34-.15-.51-.11-.36-.22-.73-.33-1.09-.12-.39-.23-.77-.35-1.16-.07-.22-.13-.44-.2-.66,0-.01-.01-.03-.02-.04,0,0-.01,0-.02,0,0,0,0,0-.01,0-.06.04-.12.07-.18.11-.08.05-.16.1-.24.16-.02.02-.05.02-.07,0-.03,0-.06-.02-.09-.02-.73-.2-1.46-.4-2.2-.6-.03,0-.05-.02-.08-.02Zm4.02,2.44s.01,0,.02,0c0-.02,0-.05.01-.07.02-.2.05-.4.07-.61.34-2.83.68-5.66,1.02-8.49,0-.02,0-.03,0-.05,0-.01-.01-.02-.02-.01,0,0-.01,0-.02.01-.18.12-.36.23-.55.35-.07.04-.14.09-.21.13-.17.11-.35.22-.52.33-.1.06-.2.13-.3.19-.14.09-.28.18-.43.27-.02.01-.03.02-.05.03,0,0-.01,0-.02,0,0-.02-.01-.03-.02-.05-.08-.26-.16-.52-.24-.78-.1-.34-.2-.67-.3-1.01-.13-.44-.26-.87-.4-1.31-.12-.4-.24-.81-.36-1.21,0-.02-.02-.05-.03-.07-.01.03-.02.05-.02.07-.1.81-.19,1.62-.29,2.43-.27,2.22-.53,4.43-.8,6.65,0,.02,0,.04,0,.07,0,.01.01.02.03.01.01,0,.03-.02.04-.02.14-.09.28-.17.41-.26.16-.1.33-.21.49-.31.07-.04.14-.09.2-.13.16-.1.33-.21.49-.31.11-.07.22-.14.32-.21.04-.02.08-.05.12-.07.11.37.22.74.34,1.11.11.37.22.74.33,1.11.11.37.22.74.33,1.11.11.37.22.74.33,1.11Zm.39,1.04s.05.02.07.03c.13.04.26.07.39.11.36.1.72.2,1.08.29.02,0,.04.02.06,0,0-.02,0-.04,0-.07.07-.58.14-1.15.21-1.73.15-1.21.29-2.42.43-3.63.2-1.65.4-3.3.59-4.95,0-.01,0-.03,0-.04,0-.03,0-.03-.03-.04,0,0-.02,0-.03,0-.19-.05-.38-.1-.57-.16-.29-.08-.58-.16-.87-.24-.03,0-.06-.02-.09-.02-.01.01-.01.03-.01.04-.06.4-1.24,10.33-1.24,10.41Zm-2.46-14.26s0,.03,0,.04c.12.39.24.78.35,1.17.11.36.22.72.33,1.08.11.37.22.73.33,1.1.11.36.21.71.32,1.07,0,.02.01.04.02.06,0,.01.02.01.03,0,0,0,.02,0,.03-.01.2-.12.39-.25.59-.37.16-.1.32-.2.48-.31.01,0,.03-.02.04-.02.02-.01.02-.03.02-.04-.02-.08-.05-.16-.07-.24-.1-.34-.21-.68-.31-1.02-.11-.36-.22-.73-.33-1.09-.1-.33-.2-.65-.29-.98,0-.02-.02-.04-.04-.04-.09-.02-.17-.05-.26-.07-.39-.11-.78-.21-1.16-.32-.02,0-.04-.02-.06-.01Zm-1.07,10.5s.04.02.06.03c.14.04.28.08.41.11.3.08.59.16.89.24.08.02.07.02.14-.02.08-.05.16-.11.25-.16.03-.02.05-.03.08-.05.02-.01.02-.02.02-.04-.01-.03-.02-.07-.03-.1-.09-.31-.18-.61-.28-.92,0,0,0-.02-.01-.03,0,0-.01-.01-.03,0,0,0-.01,0-.02.01-.14.09-.27.17-.41.26-.31.19-.61.39-.91.58-.05.03-.1.07-.15.1Z"/>
    <path class="cls-15" d="m115.47,80.44c-.11-.37-.22-.74-.33-1.11-.11-.37-.22-.74-.33-1.11-.11-.37-.22-.74-.33-1.11-.11-.37-.22-.74-.34-1.11-.04.03-.08.05-.12.07-.11.07-.22.14-.32.21-.16.1-.33.21-.49.31-.07.04-.14.09-.2.13-.16.1-.33.21-.49.31-.14.09-.28.17-.41.26-.01,0-.03.02-.04.02-.01,0-.03,0-.03-.01,0-.02,0-.05,0-.07.27-2.22.53-4.43.8-6.65.1-.81.19-1.62.29-2.43,0-.02,0-.05.02-.07,0,.02.02.05.03.07.12.4.24.81.36,1.21.13.44.26.87.4,1.31.1.34.2.67.3,1.01.08.26.16.52.24.78,0,.02.01.03.02.05,0,0,.01.01.02,0,.02,0,.04-.02.05-.03.14-.09.28-.18.43-.27.1-.06.2-.13.3-.19.17-.11.35-.22.52-.33.07-.04.14-.09.21-.13.18-.12.36-.23.55-.35,0,0,.01,0,.02-.01,0,0,.02,0,.02.01,0,.02,0,.03,0,.05-.34,2.83-.68,5.66-1.02,8.49-.02.2-.05.4-.07.61,0,.02,0,.05-.01.07,0,0-.01,0-.02,0Z"/>
    <path class="cls-8" d="m115.86,81.48c0-.08,1.18-10.01,1.24-10.41,0-.01,0-.03.01-.04.03,0,.06.01.09.02.29.08.58.16.87.24.19.05.38.1.57.16,0,0,.02,0,.03,0,.03,0,.03.01.03.04,0,.02,0,.03,0,.04-.2,1.65-.4,3.3-.59,4.95-.15,1.21-.29,2.42-.43,3.63-.07.58-.14,1.15-.21,1.73,0,.02,0,.04,0,.07-.02.01-.04,0-.06,0-.36-.1-.72-.2-1.08-.29-.13-.04-.26-.07-.39-.11-.02,0-.05,0-.07-.03Z"/>
    <path class="cls-8" d="m113.4,67.22s.04,0,.06.01c.39.11.78.21,1.16.32.09.02.17.05.26.07.02,0,.04.02.04.04.1.33.2.65.29.98.11.36.22.73.33,1.09.1.34.21.68.31,1.02.02.08.05.16.07.24,0,.02,0,.03-.02.04-.01,0-.03.02-.04.02-.16.1-.32.21-.48.31-.2.12-.39.25-.59.37,0,0-.02.01-.03.01-.01,0-.02,0-.03,0,0-.02-.02-.04-.02-.06-.11-.36-.21-.71-.32-1.07-.11-.37-.22-.73-.33-1.1-.11-.36-.22-.72-.33-1.08-.12-.39-.24-.78-.35-1.17,0-.01-.01-.03,0-.04Z"/>
    <path class="cls-8" d="m112.33,77.72c.05-.03.1-.07.15-.1.3-.19.61-.39.91-.58.14-.09.27-.17.41-.26,0,0,.01,0,.02-.01.01,0,.02,0,.03,0,0,0,0,.02.01.03.09.31.18.61.28.92.01.03.02.07.03.1,0,.02,0,.03-.02.04-.03.02-.05.03-.08.05-.08.05-.16.11-.25.16-.07.04-.05.04-.14.02-.3-.08-.59-.16-.89-.24-.14-.04-.28-.07-.41-.11-.02,0-.04,0-.06-.03Z"/>
    <g class="cls-2">
      <path class="cls-1" d="m122.04,74.25c0,1.04-.85,1.89-1.89,1.89h-3.99c-1.04,0-1.9-.85-1.9-1.89v-3.99c0-1.04.85-1.89,1.9-1.89h3.99c1.04,0,1.89.85,1.89,1.89v3.99Z"/>
    </g>
  </g>
</svg>