<?xml version="1.0" encoding="UTF-8"?>
<svg id="Layer_1" data-name="Layer 1" xmlns="http://www.w3.org/2000/svg" width="300" height="225" viewBox="0 0 300 225">
  <defs>
    <style>
      .cls-1 {
        fill: #84cd29;
      }

      .cls-2 {
        fill: #fff;
      }

      .cls-3 {
        opacity: .2;
      }

      .cls-4, .cls-5 {
        isolation: isolate;
      }

      .cls-6 {
        fill: #d0dae3;
      }

      .cls-5 {
        opacity: .35;
      }

      .cls-7 {
        fill: #232323;
      }

      .cls-8 {
        fill: #ff7e1c;
      }

      .cls-9 {
        fill: #444;
      }

      .cls-10 {
        fill: #dda905;
      }

      .cls-11 {
        fill: none;
      }

      .cls-12 {
        fill: #ea651b;
      }

      .cls-13 {
        fill: #7f7f7f;
      }

      .cls-14 {
        fill: #e7ecf0;
      }

      .cls-15 {
        fill: #ffcf15;
      }
    </style>
  </defs>
  <g class="cls-5">
    <ellipse class="cls-7" cx="104.09" cy="193.09" rx="18.94" ry="3.06"/>
  </g>
  <g class="cls-5">
    <ellipse class="cls-7" cx="123.03" cy="199.26" rx="18.94" ry="3.06"/>
  </g>
  <g>
    <g>
      <path class="cls-15" d="m93.93,190.48l6.92,1.08c.19.03.41.04.63.04.81,0,1.72-.18,2.33-.46l11.05-5.09c.7-.32.8-.7.76-.96-.04-.26-.24-.6-1-.71l-4.34-.62c-.85-.12-2.19.02-2.97.3l-13.53,4.82c-.59.21-.87.51-.84.88.04.37.37.61.99.71Z"/>
      <path class="cls-15" d="m101.37,192.4l-9.24-1.45c-.93-.15-1.91.46-2.22,1.32l-1.35,3.8c-.16.44-.13.91.08,1.33.21.41.57.72,1.02.86l11.9,3.63c.16.05.32.07.47.07.36,0,.68-.14.91-.38.25-.27.37-.65.33-1.07l-.5-6.6c-.05-.72-.69-1.41-1.4-1.52Z"/>
      <path class="cls-15" d="m119.82,189.15l-.94-2.43c-.27-.7-1.07-1.03-1.75-.71l-12.51,5.76c-.68.31-1.19,1.18-1.13,1.93l.47,6.27c.06.79.57,1.15,1.05,1.15.26,0,.54-.1.8-.29l13.39-9.6c.61-.44.89-1.37.62-2.07Z"/>
    </g>
    <path class="cls-2" d="m114.39,183.85l1.19.47.49,1.13c.04.08.13.11.21.07.03-.01.06-.04.07-.07l.49-1.13,1.19-.47c.08-.04.11-.13.07-.2-.02-.03-.04-.05-.07-.07l-1.19-.47-.49-1.13c-.04-.08-.14-.11-.21-.07-.03.02-.06.04-.07.07l-.49,1.13-1.19.47c-.08.04-.11.13-.07.2.02.03.04.05.07.07h0Z"/>
  </g>
  <g>
    <g>
      <g class="cls-5">
        <ellipse class="cls-7" cx="27.14" cy="202.39" rx="13.75" ry="2.22"/>
      </g>
      <g>
        <path class="cls-6" d="m39.19,192.76c-.32-.34-.74-.62-1.3-.85-.09-.04-.19-.08-.28-.11-.08-.03-.16-.06-.24-.09l-.25-.11c-.09-.04-.18-.08-.27-.12-.09-.04-.17-.08-.26-.13-.07-.04-.14-.07-.21-.1l-.08-.05s-.04-.02-.06-.03c-.16-.08-.36-.25-.51-.38-.02-.01-.03-.03-.05-.04l-.12-.08c-.07-.06-.14-.1-.2-.14l-.07-.05s-.06-.05-.1-.07l-.12-.08c-.11-.09-.23-.17-.35-.22l-.03-.02s-.09-.06-.13-.09l-.33-.22s-.04-.02-.06-.03c-.12-.06-.23-.12-.34-.19-.14-.08-.29-.16-.44-.23l-.22-.1c-.15-.07-.3-.14-.46-.21-.29-.12-.59-.23-.87-.33l-.21-.07c-.07-.02-.14-.04-.21-.06-.04,0-.08-.02-.11-.03-.2-.07-.4-.12-.58-.16l-.12-.03c-.2-.04-.4-.09-.6-.13-.2-.04-.4-.06-.6-.08-.08,0-.17-.02-.25-.03-.21-.03-.42-.03-.62-.03-.12,0-.24,0-.36-.01-.12,0-.23,0-.32.02-.05,0-.1.01-.14.01-.36-.01-.76.06-1.16.13l-1.02.18s-.06.01-.09.02c0,0,0,0,0,0-.05,0-.09.02-.13.04-.01,0-.03.01-.04.01-.05.02-.1.03-.15.05-.1.04-.21.08-.33.11-.13.04-.27.08-.43.15-.06.01-.12.03-.18.06-.22.1-.42.2-.61.3l-.18.09c-.31.16-.6.31-.89.5-.33.21-.64.44-.91.67-.02.01-.03.02-.05.03-.04.03-.09.06-.13.1l-.15.12c-.15.12-.29.24-.43.37-.13.13-.26.26-.39.39l-.2.2c-.11.11-.21.23-.31.35-.08.09-.16.19-.24.27-.05.05-.08.1-.12.15-.01.02-.03.04-.04.05s-.03.03-.04.05l-.59.81c-.04.05-.09.12-.14.19h0l-.1.14s-.03.04-.04.06c-.13.24-.29.47-.43.65l-.07.09c-.05.07-.09.13-.13.17l-.03.03c-.16.17-.33.33-.5.49-.07.07-.15.14-.23.21-.09.08-.18.16-.27.24-.05.05-.09.09-.14.14-.03.03-.05.06-.08.08-.37.37-.77.81-.92,1.45-.05.21-.1.79.07,1.17.14.3.27.52.44.7.1.11.21.19.3.28l.11.09s.09.07.15.1c.11.09.29.23.45.3l.11.05c.23.11.47.22.72.32l.24.09c.2.07.39.14.59.23.23.1.44.21.67.32.17.09.34.17.52.25.01,0,.02.02.04.02.05.03.1.06.15.09.06.03.11.06.16.08.07.03.13.07.2.1.02.01.05.03.07.04.07.04.13.09.2.12.06.03.12.06.18.09.07.04.15.07.22.11.07.03.13.07.19.11.09.06.19.11.29.16.2.09.39.19.58.28.32.16.66.32,1,.47.33.14.67.26,1,.37.16.05.33.11.49.17.08.03.17.05.26.07h.06c.09.03.17.05.26.07.11.03.22.05.32.07.08.02.16.03.24.04.05,0,.09,0,.14.02.32.06.66.08.99.09.11,0,.21,0,.32.02.02,0,.04,0,.05,0h.18c.09,0,.19-.01.29-.02.07,0,.14,0,.22,0,.03,0,.06,0,.09,0l1.25-.22c.05-.01.11-.02.15-.04l.18-.04s.05-.01.08-.03c.12-.05.24-.09.37-.13.18-.06.37-.12.56-.21l.1-.05c.13-.06.27-.12.39-.19.02,0,.03-.01.05-.02.06-.02.11-.05.17-.08.1-.06.2-.12.3-.18.16-.1.33-.19.48-.29.83-.53,1.5-1.18,2.14-1.8l.14-.13c.08-.08.16-.16.23-.24.05-.06.11-.12.17-.18.05-.05.1-.11.15-.17.03-.03.05-.07.08-.1.12-.13.24-.26.36-.39.1-.11.2-.23.31-.33.06-.06.11-.12.16-.19.03-.04.05-.07.08-.1.17-.17.32-.35.47-.52.16-.19.32-.37.49-.53.29-.29.64-.62,1.01-.95.14-.12.28-.24.41-.37.06-.06.11-.12.16-.19.03-.03.05-.07.08-.1.5-.51.77-1.09.83-1.8.01-.14-.01-.26-.03-.39-.08-.42-.24-.75-.52-1.05Z"/>
        <path class="cls-7" d="m38.81,194.12c0,.09-.03.17-.04.26-.05-.02-.1-.04-.16-.05-.62-.06-1.21.15-1.64.55-.37-.45-.93-.74-1.55-.75-.61-.02-1.19.24-1.58.68-.4-.42-.98-.66-1.6-.63-.61.03-1.16.34-1.51.8-.44-.39-1.03-.58-1.64-.49s-1.13.43-1.44.92c-.47-.35-1.08-.49-1.67-.36-.6.13-1.09.52-1.36,1.04-.49-.31-1.11-.41-1.7-.23-.59.18-1.05.61-1.28,1.14-.52-.27-1.14-.32-1.72-.09-.57.23-1,.69-1.19,1.25-.54-.23-1.17-.22-1.72.05-.05.03-.1.06-.14.11-.04-.07-.09-.15-.13-.25-.03-.07-.04-.28-.03-.44.09.05.2.07.31.05.04,0,.08-.02.12-.04.55-.27.95-.73,1.13-1.28.53.23,1.15.25,1.72.03.57-.22,1-.65,1.23-1.18.51.27,1.12.34,1.71.16.58-.18,1.05-.57,1.32-1.08.49.31,1.09.43,1.68.3.6-.13,1.09-.49,1.4-.98.46.35,1.05.51,1.65.43.6-.08,1.13-.4,1.47-.86.43.39,1,.59,1.61.56.61-.04,1.16-.31,1.54-.75.39.42.95.67,1.56.68.61.01,1.18-.22,1.6-.63.36.45.9.74,1.51.8.16.02.31-.05.41-.17.04.09.08.19.1.34,0,.04.02.1.02.11Z"/>
        <path class="cls-14" d="m18.63,195.3c.1-.1.17-.2.23-.29l.05-.07c.15-.21.33-.45.48-.73l.1-.14s.02-.03.04-.05c.02-.03.04-.06.07-.09l.6-.81s.06-.08.09-.12c.01-.02.03-.04.04-.05.1-.1.19-.21.29-.32.09-.1.17-.2.26-.29l.2-.21c.12-.12.25-.25.37-.37.12-.12.25-.22.38-.33l.16-.13s.03-.02.05-.03c.04-.03.09-.06.13-.09.24-.21.52-.41.82-.6.26-.16.53-.31.82-.46l.18-.09c.19-.1.36-.19.57-.28.06-.01.11-.03.17-.05.1-.04.21-.07.32-.11.14-.04.28-.09.43-.15.02,0,.04-.01.05-.02.03,0,.06-.02.09-.03.01,0,.02,0,.03,0,.04,0,.08-.02.11-.03l.98-.18c.33-.06.68-.12.94-.11.11,0,.22,0,.3-.02.05,0,.11-.01.14-.01.14,0,.27.01.41.01.18,0,.35,0,.51.02.09.01.18.02.27.03.18.02.35.04.51.07.19.04.39.08.58.12l.12.03c.16.04.33.07.47.12.07.02.14.04.21.06.04,0,.07.02.11.03l.21.07c.29.1.56.2.81.31.15.06.29.13.43.2l.22.1c.13.06.25.13.37.2.12.07.25.14.38.2l.33.21s.03.02.05.03c.01,0,.02.01.03.02.05.04.11.07.16.1.06.03.12.07.17.11.02.02.04.03.06.05l.16.1s.06.05.09.07l.08.05s.07.04.1.07c.02.01.03.03.05.04l.12.08c.18.16.41.36.67.49l.08.05s.04.02.06.03c.07.03.13.07.2.1.02.01.04.02.07.03-.24.31-.62.5-1.03.49-.52-.01-.97-.33-1.14-.81-.07-.19-.25-.32-.46-.32-.2,0-.39.14-.45.33-.16.49-.61.83-1.13.86-.52.03-1-.25-1.21-.72-.08-.19-.28-.3-.48-.28-.2.02-.37.17-.42.37-.12.5-.53.87-1.05.95-.52.07-1.01-.17-1.26-.62-.1-.18-.3-.27-.5-.24h0c-.2.04-.36.2-.39.4-.08.51-.46.91-.97,1.02-.51.11-1.03-.09-1.32-.52-.11-.17-.32-.25-.52-.2-.2.05-.34.23-.35.43-.04.51-.38.94-.88,1.09-.5.15-1.04-.01-1.36-.42-.13-.16-.34-.22-.53-.15-.19.07-.32.25-.32.46,0,.51-.3.96-.79,1.16-.38.15-.79.11-1.13-.09.03-.03.06-.05.08-.08l.03-.03Z"/>
        <path class="cls-14" d="m38.1,195.51s-.06.07-.09.1c-.12.11-.24.22-.36.33-.39.34-.75.69-1.06.98-.2.19-.37.39-.54.59-.14.16-.28.32-.43.47-.06.06-.11.12-.16.19-.03.03-.05.07-.08.1-.12.12-.23.24-.34.37-.11.12-.21.24-.32.35-.05.05-.1.11-.15.17-.03.03-.05.07-.08.1-.07.07-.13.14-.19.21-.06.07-.13.14-.19.2l-.14.13c-.61.59-1.25,1.2-2,1.69-.15.09-.3.18-.45.27-.11.06-.21.12-.32.19-.01,0-.03.01-.04.02-.04.02-.08.03-.12.06-.11.06-.23.11-.35.17l-.1.05c-.13.06-.29.11-.45.17-.13.04-.26.09-.39.14l-.17.04s-.04,0-.07.02c0,0-.02,0-.03,0l-.14.02-.5.09-.56.1c-.08,0-.17,0-.25,0-.07,0-.15.01-.22,0-.01,0-.03,0-.05,0h-.17c-.1,0-.21,0-.31,0-.3-.01-.59-.03-.85-.08-.07-.01-.14-.02-.21-.03-.05,0-.1-.01-.15-.02-.1-.02-.2-.05-.3-.07-.09-.02-.19-.04-.28-.06l-.08-.02s-.08-.01-.12-.03c-.17-.06-.34-.12-.51-.17-.33-.11-.63-.21-.93-.34-.32-.14-.65-.29-.96-.45-.2-.1-.4-.19-.6-.29-.07-.03-.13-.07-.19-.11-.09-.06-.19-.11-.29-.16-.06-.03-.13-.06-.19-.09-.07-.03-.13-.07-.2-.1-.02-.01-.05-.03-.07-.04-.07-.05-.13-.09-.2-.12-.05-.03-.11-.05-.16-.08-.07-.04-.13-.07-.2-.1-.01,0-.02-.02-.04-.02-.05-.03-.1-.07-.16-.09-.17-.08-.33-.16-.49-.24-.23-.12-.47-.24-.73-.35-.21-.09-.42-.17-.64-.25l-.24-.09c-.22-.08-.43-.18-.65-.29l-.11-.05s-.08-.05-.13-.08c.41-.13.86-.01,1.15.32.14.15.36.2.55.12.19-.08.3-.28.28-.48-.06-.5.22-.96.7-1.15.47-.19.99-.05,1.29.35.12.16.34.23.53.16.19-.07.32-.25.31-.46-.02-.5.3-.94.78-1.09.48-.15.99.03,1.26.46.11.17.32.26.52.2s.34-.23.35-.43c.02-.5.37-.91.86-1.02.49-.11.98.11,1.21.56.1.18.3.28.5.25.2-.04.36-.2.38-.4.06-.5.44-.88.94-.95.5-.07.97.19,1.17.65.08.19.27.3.48.28.21-.02.37-.17.42-.37.1-.49.51-.84,1.02-.87.51-.03.95.27,1.11.75.06.19.25.33.45.32.21,0,.39-.14.44-.34.14-.48.58-.8,1.09-.78.51.01.93.35,1.05.84.05.2.22.34.43.36.04,0,.08,0,.11,0,.16-.03.3-.14.36-.29.16-.41.53-.67.96-.7-.02.02-.04.05-.06.07-.05.05-.1.11-.15.17Z"/>
      </g>
    </g>
    <g>
      <g class="cls-5">
        <ellipse class="cls-7" cx="52.64" cy="199.67" rx="10.5" ry="1.69"/>
      </g>
      <path class="cls-6" d="m63.4,187.15c-1.96-3.18-12.78-5.91-18.21-3.36-5.44,2.54-3.43,9.39-1.47,12.56,1.96,3.18,7.95,3.69,13.39,1.15,5.44-2.54,8.25-7.18,6.29-10.35Z"/>
      <g class="cls-3">
        <path class="cls-7" d="m63.4,187.15c-.16-.26-.38-.51-.65-.76.46,3-2.27,6.65-6.86,8.8-5.28,2.47-11.09,2.04-13.21-.9.32.78.67,1.48,1.03,2.06,1.96,3.18,7.95,3.69,13.39,1.15,5.44-2.54,8.25-7.18,6.29-10.35Z"/>
      </g>
      <g class="cls-5">
        <ellipse class="cls-7" cx="47.99" cy="184.81" rx=".91" ry=".79"/>
      </g>
      <g class="cls-5">
        <ellipse class="cls-7" cx="51.46" cy="186.02" rx=".91" ry=".79"/>
      </g>
      <g class="cls-5">
        <ellipse class="cls-7" cx="47.38" cy="188.09" rx="1.54" ry="1.34"/>
      </g>
      <g class="cls-5">
        <ellipse class="cls-7" cx="56.78" cy="187.3" rx="1.33" ry="1.15"/>
      </g>
      <g class="cls-5">
        <ellipse class="cls-7" cx="52.17" cy="190.41" rx=".98" ry=".85"/>
      </g>
      <g class="cls-5">
        <ellipse class="cls-7" cx="60.83" cy="188.52" rx=".98" ry=".85"/>
      </g>
      <g class="cls-5">
        <ellipse class="cls-7" cx="46.83" cy="192.41" rx=".86" ry=".74"/>
      </g>
      <g class="cls-5">
        <ellipse class="cls-7" cx="55.47" cy="191.56" rx=".86" ry=".74"/>
      </g>
      <g class="cls-5">
        <ellipse class="cls-7" cx="53.04" cy="194.36" rx=".64" ry=".56"/>
      </g>
      <g class="cls-5">
        <ellipse class="cls-7" cx="49.38" cy="192.66" rx=".64" ry=".56"/>
      </g>
      <g class="cls-5">
        <ellipse class="cls-7" cx="43.66" cy="189.86" rx=".64" ry=".56"/>
      </g>
      <g class="cls-5">
        <ellipse class="cls-7" cx="48.65" cy="195.09" rx=".44" ry=".38"/>
      </g>
      <g class="cls-5">
        <ellipse class="cls-7" cx="54.85" cy="184.81" rx=".44" ry=".38"/>
      </g>
      <g class="cls-5">
        <ellipse class="cls-7" cx="43.84" cy="186.69" rx=".44" ry=".38"/>
      </g>
      <g class="cls-5">
        <ellipse class="cls-7" cx="44.9" cy="188.48" rx=".44" ry=".38"/>
      </g>
      <g class="cls-5">
        <ellipse class="cls-7" cx="56.48" cy="185.22" rx=".44" ry=".38"/>
      </g>
    </g>
  </g>
  <g>
    <g>
      <path class="cls-1" d="m131.5,182.4l-24.81,1.99c-.76.06-1.08.75-.72,1.53l6.56,14.21c.36.78,1.27,1.37,2.03,1.31l24.81-1.99c.76-.06,1.08-.75.72-1.53l-6.56-14.21c-.36-.79-1.27-1.37-2.03-1.31Z"/>
      <path class="cls-2" d="m114.26,199.26l-1.31-2.84c1.52-.12,3.34,1.05,4.07,2.62l-2.76.22Z"/>
      <path class="cls-2" d="m109.67,189.31l-1.31-2.84,2.76-.22c.72,1.57.08,2.94-1.44,3.06Z"/>
      <path class="cls-2" d="m137.7,197.38l-2.76.22c-.72-1.57-.08-2.94,1.45-3.06l1.31,2.84Z"/>
      <path class="cls-2" d="m133.1,187.43c-1.52.12-3.35-1.05-4.07-2.62l2.76-.22,1.31,2.84Z"/>
      <path class="cls-2" d="m125.32,196.9c-5.4.43-10.81-1.44-12.08-4.19-1.27-2.75,2.08-5.33,7.48-5.76,5.4-.43,10.81,1.44,12.08,4.19,1.27,2.75-2.08,5.32-7.49,5.76Z"/>
    </g>
    <polygon class="cls-11" points="134.18 194.08 114.52 195.65 112.15 190.51 131.8 188.93 134.18 194.08"/>
    <g class="cls-4">
      <path class="cls-1" d="m117.16,194.34l-.18-.4c-.34-.01-.66-.11-.96-.29-.3-.18-.52-.44-.68-.77l.68-.05c.07.14.17.26.29.35s.26.16.41.19l-.51-1.1s-.07-.02-.11-.02c-.04,0-.07-.02-.11-.02-.32-.08-.58-.18-.8-.32-.21-.14-.38-.34-.5-.59-.14-.3-.16-.54-.05-.74.11-.2.31-.32.6-.37l-.19-.42.34-.03.2.43c.32,0,.61.1.88.27.27.17.48.4.62.69l-.69.06c-.05-.1-.12-.19-.22-.27-.1-.08-.21-.13-.33-.16l.45.97s.06.02.09.02c.03,0,.06.01.09.02.2.05.4.11.58.18.18.07.35.17.5.3.15.13.28.3.37.52.08.18.12.35.1.51s-.08.3-.2.42c-.12.12-.3.19-.53.22l.18.4-.34.03Zm-1.81-3.13c.05.11.12.2.22.26.09.06.21.11.34.15l-.4-.86c-.09.03-.16.08-.19.16-.03.08-.02.17.03.29Zm1.93,1.66c-.06-.14-.15-.24-.27-.32-.12-.07-.25-.13-.41-.18l.46.99c.12-.03.21-.09.25-.18s.03-.19-.03-.32Z"/>
      <path class="cls-1" d="m119.36,193.7l-1.33-2.88-.51.19-.23-.51.67-.46.4-.03,1.68,3.64-.67.05Z"/>
      <path class="cls-1" d="m122.19,193.53c-.33.03-.64-.03-.95-.17-.3-.14-.59-.34-.84-.62s-.47-.6-.64-.97c-.17-.37-.26-.7-.26-1,0-.29.07-.53.23-.71.16-.18.4-.28.73-.3.33-.03.64.03.95.17.3.14.59.35.84.62.26.27.47.6.64.97.17.37.26.71.27,1,0,.29-.07.53-.23.7-.16.18-.4.28-.73.3Zm-.28-.6c.27-.02.43-.15.49-.4s0-.56-.18-.96c-.18-.4-.41-.71-.69-.92-.27-.22-.54-.31-.81-.29-.27.02-.43.15-.49.4s0,.56.18.96c.18.4.41.71.68.92.27.22.54.31.81.29Z"/>
      <path class="cls-1" d="m125.77,193.25c-.33.03-.64-.03-.95-.17-.3-.14-.59-.34-.84-.62-.26-.27-.47-.6-.64-.97-.17-.37-.26-.7-.26-1s.07-.53.23-.71c.16-.18.4-.28.73-.3.33-.03.64.03.95.17.3.14.59.35.84.62.26.27.47.6.64.97.17.37.26.71.27,1,0,.29-.07.53-.23.7-.16.18-.4.28-.73.3Zm-.28-.6c.27-.02.43-.15.49-.4s0-.56-.18-.96c-.18-.4-.41-.71-.69-.92-.27-.22-.54-.31-.81-.29-.27.02-.43.15-.49.4s0,.56.19.96c.18.4.41.71.68.92.27.22.54.31.81.29Z"/>
      <path class="cls-1" d="m129.35,192.96c-.33.03-.64-.03-.95-.17-.3-.14-.58-.34-.84-.62-.26-.27-.47-.6-.64-.97-.17-.37-.26-.7-.26-1s.07-.53.23-.71c.16-.18.4-.28.73-.3.33-.03.64.03.95.17.3.14.59.35.84.62s.47.6.64.97c.17.37.26.71.27,1,0,.29-.07.53-.23.7-.16.18-.4.28-.73.3Zm-.28-.6c.27-.02.43-.15.49-.4.06-.24,0-.56-.18-.96-.18-.4-.41-.71-.69-.92-.27-.22-.54-.31-.81-.29-.27.02-.43.15-.49.4-.06.24,0,.56.19.96s.41.71.68.92.54.31.81.29Z"/>
    </g>
  </g>
  <g>
    <g class="cls-5">
      <path class="cls-7" d="m84.29,209.72c0,1.26-4.21,2.28-9.41,2.28s-9.4-1.02-9.4-2.28,4.21-2.28,9.4-2.28c5.19,0,9.41,1.02,9.41,2.28Z"/>
    </g>
    <g>
      <path class="cls-10" d="m84.99,208.65c0,1.19-4.1,2.15-9.17,2.15s-9.17-.96-9.17-2.15v-2.15h18.33v2.15Z"/>
      <ellipse class="cls-15" cx="75.82" cy="206.5" rx="9.17" ry="2.15"/>
    </g>
    <g>
      <path class="cls-10" d="m87.64,205.19c0,1.19-4.1,2.15-9.17,2.15s-9.17-.96-9.17-2.15v-2.15h18.33v2.15Z"/>
      <ellipse class="cls-15" cx="78.47" cy="203.04" rx="9.17" ry="2.15"/>
    </g>
    <g>
      <path class="cls-10" d="m85.2,201.51c0,1.19-4.1,2.15-9.17,2.15s-9.17-.96-9.17-2.15v-2.15h18.33v2.15Z"/>
      <ellipse class="cls-15" cx="76.03" cy="199.37" rx="9.17" ry="2.15"/>
    </g>
  </g>
  <g>
    <g>
      <g class="cls-5">
        <ellipse class="cls-7" cx="185.98" cy="195.33" rx="39.95" ry="6.45"/>
      </g>
      <path class="cls-7" d="m157.03,149.61c.16,1.31,4.49,38.2,10.77,43.37,6.28,5.17,9.58,3.43,10.86,2.06,1.34-1.44,3.02-4.03-.1-6.95-2.52-2.35-4.28-12.74-1.77-28.96l-19.75-9.52Z"/>
      <path class="cls-7" d="m181.03,147.31c.17,1.3,4.49,38.2,10.77,43.37,6.29,5.17,9.59,3.43,10.86,2.05,1.34-1.44,3.03-4.03-.1-6.94-2.52-2.35-4.29-12.74-1.77-28.96l-19.75-9.52Z"/>
      <path class="cls-7" d="m196.46,97.82c-2.88-.31-5.58,1.41-5.98,4.55-.4,3.12,2.59,6.82,6.6,7.29,11.4,1.32,22.03-2.97,29.33-11.83,2.57-3.11,2.16-7.86-.29-9.83-2.47-1.99-5.62-1.35-7.47.87-5.52,6.7-13.56,9.95-22.19,8.95Z"/>
      <path class="cls-2" d="m162.06,93.89c7.26-4.03,16.47-6.19,33.46-6.86-4.05-1.71-9.41-2.51-17.26-2.51h-.01c-13.43,0-19.64,2.29-24.32,7.61-5.52,6.28-8.31,24.25-8.87,38.24.89-13.13,6.22-30.49,16.99-36.48Z"/>
      <path class="cls-9" d="m145.07,130.37c-.13,1.93-.16,3.76-.11,5.46,0-1.72.03-3.55.11-5.46Z"/>
      <path class="cls-9" d="m133.32,152.91c-1.92,1.36-4.4,1.83-5.7.67-1.3-1.15-.91-4.1,1.22-6.21,5.77-5.75,13.35-9.62,21.69-10.86,3.11-.45,5.36,2.17,4.98,5.34-.38,3.19-2.32,5.47-4.45,5.44-6.1-.1-12.36,1.77-17.74,5.62Z"/>
      <path class="cls-9" d="m202.58,92.14c-1.7-1.94-3.62-3.48-6.02-4.65-.33-.16-.69-.3-1.04-.45-2.74.11-5.25.26-7.61.44-5.78.2-10.31.85-13.99,2-4.74,1.1-8.51,2.55-11.85,4.41-10.77,5.98-16.1,23.35-16.99,36.48-.07,1.91-.11,3.74-.11,5.46.02,4.44.3,8.13.83,10.36.02.1.07.2.1.3,2.7,12.21,16.21,21.5,32.48,21.5,18.22,0,32.98-11.64,32.98-25.99,0-.13-.01-.26-.01-.39.99-13.17-1.57-41.28-8.77-49.48Z"/>
      <g>
        <path class="cls-2" d="m202.78,57.39c-3.24-11.69-13.84-14.33-33.11-6.43-6.12,2.51-14.97-1.82-19.89-1.03-14.12,2.28-13.18,11.74-13.18,11.74h-.03c-.63-16.83,12.8-33.35,32.85-38.82,22.76-6.21,45.41,4.16,50.59,23.16,5.19,19-9.06,39.44-31.81,45.65-1.98.54-3.96.95-5.94,1.24v-.02c20.42-4.08,24.8-19.98,20.5-35.5Z"/>
        <path class="cls-9" d="m136.59,61.7h.02s-.95-9.48,13.18-11.76c4.91-.79,13.77,3.54,19.89,1.03,13.83-5.68,23.19-5.92,28.57-1.28.36-.49.79-.83,1.3-.96,2.61-.68,6.12,4.17,7.85,10.84,1.72,6.66,1.01,12.61-1.6,13.29-.59.15-1.22.01-1.87-.35-1.51,9.65-7.99,17.67-21.65,20.4v.02c-20.63,3.08-39.92-7.06-44.65-24.4-.62-2.26-.95-4.54-1.04-6.82Z"/>
        <path class="cls-13" d="m171.63,89.32c4.41-1.02,11.91-7.11,7.8-15.72-4.11-8.61-14.77-6.9-18.24-6.09-3.48.81-13.5,3.89-9.39,12.49,4.11,8.61,15.42,10.34,19.84,9.32Z"/>
        <path class="cls-7" d="m162.05,69.82c-1.92.44-3.84,3.02-3.1,5.34.74,2.32,6.24.95,6.24.95l.16-.04s5.59-1.2,4.18-3.37c-1.4-2.16-5.15-3.43-7.07-2.98l-.41.1Z"/>
        <path class="cls-7" d="m167.62,85.67c-.46,0-.92-.03-1.4-.1-1.11-.16-2.2-.51-3.25-1.03-1.05-.52-1.99-1.19-2.8-1.99-.25-.24-.25-.64,0-.88.24-.25.64-.25.88,0,.72.71,1.56,1.3,2.49,1.77.92.46,1.89.77,2.87.91,1,.15,1.98.11,2.89-.1.9-.21,1.69-.58,2.35-1.09.63-.5,1.11-1.12,1.44-1.82.32-.71.47-1.49.45-2.33-.01-.34.26-.63.6-.64.36,0,.63.26.64.6.03,1.03-.16,2-.56,2.88-.4.89-1.01,1.65-1.79,2.28-.8.64-1.76,1.08-2.84,1.33-.63.15-1.29.22-1.96.22Z"/>
        <circle class="cls-7" cx="178.28" cy="60.2" r="1.75"/>
        <circle class="cls-7" cx="149.78" cy="63.33" r="1.75"/>
        <path class="cls-7" d="m198.83,53.84c2.16-.54,5.06,2.97,7.37,8.46-.13-.74-.3-1.5-.5-2.27-1.38-5.22-3.89-9.11-5.59-8.68-.73.18-1.19,1.12-1.38,2.54.03-.01.06-.03.1-.04Z"/>
        <path class="cls-13" d="m183.6,59.54c-.28,0-.54-.17-.64-.44-.19-.49-.46-.94-.82-1.32-.36-.39-.78-.69-1.26-.92-.49-.23-1.01-.36-1.56-.38-.55-.02-1.08.06-1.59.26-.35.13-.75-.04-.89-.4-.13-.36.04-.75.4-.89.68-.26,1.39-.37,2.13-.34.74.03,1.44.2,2.1.51.64.3,1.2.71,1.68,1.23.48.52.85,1.11,1.1,1.77.13.36-.04.75-.4.89-.08.03-.16.04-.24.04Z"/>
        <path class="cls-13" d="m144.71,63.82s-.03,0-.04,0c-.38-.02-.67-.35-.65-.73.04-.73.23-1.44.56-2.09.33-.66.78-1.24,1.32-1.7.53-.45,1.14-.8,1.81-1.03.66-.22,1.37-.32,2.06-.28.38.02.67.35.65.73-.02.38-.34.66-.73.65-.52-.03-1.05.04-1.54.21-.5.17-.95.43-1.35.77-.41.35-.74.77-.99,1.27-.24.49-.38,1.01-.42,1.56-.02.37-.33.65-.69.65Z"/>
      </g>
      <g>
        <path class="cls-7" d="m165.9,101.18c-1.85-2.22-4.99-2.86-7.46-.88-2.46,1.96-2.88,6.71-.31,9.83,7.28,8.87,17.9,13.18,29.31,11.88,4.01-.46,7.02-4.15,6.62-7.27-.4-3.14-3.1-4.87-5.98-4.57-8.63.99-16.66-2.27-22.17-8.99Z"/>
        <path class="cls-7" d="m196.94,112.54c.77-.15,1.45-.63,1.48-1.21.02-.58-.77-1.16-1.77-1.14-2.7.05-5.37.97-7.59,2.67-.82.64-.72,1.78.13,2.42.85.65,1.84.7,2.32.19,1.39-1.48,3.27-2.55,5.43-2.94Z"/>
        <path class="cls-7" d="m197.85,116.97c.78.07,1.57-.2,1.75-.75.19-.55-.42-1.33-1.38-1.59-2.61-.7-5.43-.56-8.04.46-.97.38-1.18,1.51-.55,2.36.63.85,1.57,1.19,2.18.83,1.73-1.03,3.85-1.53,6.03-1.31Z"/>
        <path class="cls-7" d="m196.44,121.37c.66.42,1.48.54,1.9.13.41-.4.23-1.37-.51-2.04-2-1.81-4.58-2.97-7.36-3.24-1.04-.1-1.74.8-1.57,1.85.18,1.05.86,1.77,1.57,1.73,2.02-.13,4.13.39,5.97,1.58Z"/>
      </g>
      <path class="cls-7" d="m182.01,191.45c.79.22,1.66.09,1.95-.44.29-.53-.18-1.45-1.12-1.9-2.56-1.22-5.5-1.62-8.38-1.06-1.07.21-1.51,1.34-1.02,2.33.49,1.01,1.4,1.53,2.09,1.27,2-.74,4.27-.86,6.48-.21Z"/>
      <path class="cls-7" d="m180.78,196.03c.7.43,1.56.55,1.99.12.43-.43.23-1.44-.55-2.14-2.12-1.88-4.84-3.08-7.76-3.34-1.09-.09-1.82.87-1.62,1.96.2,1.1.92,1.86,1.66,1.8,2.12-.16,4.34.36,6.29,1.6Z"/>
      <path class="cls-7" d="m177.39,199.5c.42.7,1.14,1.2,1.73,1.02.58-.18.86-1.18.48-2.15-1.03-2.64-2.91-4.94-5.4-6.5-.93-.58-2.02-.07-2.34,1-.33,1.07-.03,2.07.66,2.36,1.96.83,3.7,2.3,4.87,4.28Z"/>
      <path class="cls-7" d="m207.09,188.72c.79.22,1.66.09,1.95-.44.29-.53-.18-1.45-1.12-1.9-2.56-1.22-5.5-1.61-8.38-1.05-1.07.21-1.51,1.34-1.02,2.33.49,1.01,1.4,1.52,2.09,1.27,2-.74,4.27-.86,6.48-.21Z"/>
      <path class="cls-7" d="m205.86,193.3c.69.44,1.56.55,1.99.12.43-.43.24-1.44-.55-2.13-2.12-1.88-4.84-3.08-7.77-3.34-1.09-.1-1.82.86-1.62,1.96.19,1.1.92,1.86,1.66,1.8,2.12-.16,4.34.36,6.29,1.6Z"/>
      <path class="cls-7" d="m202.47,196.78c.42.7,1.14,1.2,1.73,1.01.58-.19.87-1.18.48-2.15-1.03-2.64-2.91-4.94-5.4-6.51-.93-.58-2.01-.06-2.34,1.01-.33,1.07-.03,2.07.65,2.36,1.96.83,3.7,2.3,4.87,4.28Z"/>
      <path class="cls-7" d="m230.58,87.32c.67-.5,1.09-1.29.83-1.86-.25-.57-1.29-.74-2.23-.24-2.55,1.34-4.66,3.49-5.97,6.18-.48,1,.17,2.04,1.28,2.25,1.12.21,2.09-.21,2.31-.93.61-2.07,1.91-3.99,3.78-5.4Z"/>
      <path class="cls-7" d="m232.66,91.79c.82-.14,1.55-.65,1.58-1.27.03-.62-.81-1.24-1.87-1.23-2.88.03-5.74.98-8.12,2.78-.88.67-.78,1.89.12,2.58.9.7,1.96.77,2.48.23,1.49-1.57,3.51-2.68,5.82-3.09Z"/>
    </g>
    <g>
      <g>
        <path class="cls-12" d="m233.75,100.75c2.35,2.9,5.19,5.49,8.5,7.62,16.8,10.84,39.2,6.02,50.05-10.78,5.79-8.96,7.11-19.52,4.53-29.07-.87,5.97-3,11.86-6.49,17.27-12.28,19.02-36.92,25.25-56.59,14.95Z"/>
        <path class="cls-8" d="m231.48,58.33c-8.71,13.49-7.31,30.59,2.28,42.42,19.67,10.29,44.31,4.07,56.59-14.95,3.49-5.4,5.62-11.29,6.49-17.27-2.25-8.35-7.48-15.92-15.31-20.98-16.8-10.84-39.21-6.02-50.05,10.78Z"/>
      </g>
      <path class="cls-2" d="m272.89,78.35c.81,1.01,1.13,2.41.97,4.19-.24,2.15-1.13,3.71-2.67,4.68-1.34.81-3.34,1.3-6.01,1.46v4.13h-2.97v-4.07h-2.31v4.07h-2.98v-4.13h-5.89l.61-3.52h.61c.97.04,1.59.02,1.88-.06.41-.12.65-.42.73-.91v-13.18c-.12-.65-.46-1.05-1.03-1.21-.36-.12-1.13-.16-2.31-.12h-.49v-3.16l1.82.06c2.15,0,3.5-.02,4.06-.06v-4.79h2.98v4.74l2.31-.06v-4.67h2.97v4.79c2.06.2,3.64.65,4.74,1.34,1.34.81,2.06,2.02,2.19,3.64.24,2.35-.58,4.01-2.49,4.98h0c1.5.32,2.59.95,3.28,1.88h0Zm-12.94-2.61h.49c1.7.04,3.02-.06,3.95-.3,1.62-.4,2.43-1.28,2.43-2.61s-.79-2.23-2.37-2.67c-.89-.24-2.2-.34-3.94-.3-.28.04-.47.06-.55.06v5.83h0Zm.55,9.41c2.06.04,3.62-.06,4.67-.31,1.9-.49,2.86-1.46,2.86-2.91s-.93-2.43-2.79-2.91c-1.01-.28-2.55-.38-4.61-.3h-.67v6.43h.55Z"/>
    </g>
    <path class="cls-7" d="m226.66,84.5c.5-.67.69-1.54.29-2.01-.4-.47-1.44-.35-2.21.38-2.08,2-3.51,4.65-4.02,7.59-.19,1.1.73,1.92,1.85,1.8,1.13-.1,1.95-.77,1.96-1.53.01-2.16.72-4.36,2.13-6.23Z"/>
  </g>
</svg>