<?xml version="1.0" encoding="UTF-8"?>
<svg id="Layer_1" data-name="Layer 1" xmlns="http://www.w3.org/2000/svg" width="300" height="225" viewBox="0 0 300 225">
  <defs>
    <style>
      .cls-1 {
        fill: #fff;
      }

      .cls-2 {
        isolation: isolate;
        opacity: .35;
      }

      .cls-3 {
        fill: #232323;
      }

      .cls-4 {
        fill: #ff7e1c;
      }

      .cls-5 {
        fill: #444;
      }

      .cls-6 {
        fill: #dda905;
      }

      .cls-7 {
        fill: none;
      }

      .cls-8 {
        fill: #ea651b;
      }

      .cls-9 {
        fill: #3ed033;
      }

      .cls-10 {
        fill: #201e1f;
      }

      .cls-11 {
        fill: #7f7f7f;
      }

      .cls-12 {
        fill: #3050c4;
      }

      .cls-13 {
        fill: #ffcf15;
      }

      .cls-14 {
        fill: #facb00;
      }
    </style>
  </defs>
  <path class="cls-5" d="m123.78,89.81c1.07-9.97,5.2-22.13,13.08-26.52,3.38-1.88,7.3-3.24,12.72-4.16,1.29.21,2.48.45,3.61.72.2.05.39.1.58.14.34.08.67.17.99.26.21.06.41.11.61.17.32.09.64.19.96.29.16.05.33.1.49.15.45.15.89.31,1.32.47.13.05.25.1.37.15.32.12.64.25.95.38.15.06.29.12.43.19.3.13.59.27.87.4.12.06.25.12.37.18.4.2.79.4,1.18.61,8.45,4.67,12.65,18.26,13.36,28.55.06,1.5.09,2.93.09,4.28,0,3.48-.22,6.37-.63,8.12-.02.08-.06.16-.08.24-2.1,9.57-12.66,16.86-25.41,16.88-14.27.03-25.85-9.06-25.87-20.31,0-.1,0-.21,0-.31-.22-2.9-.23-6.73,0-10.87Z"/>
  <path class="cls-1" d="m130.54,61.92c3.26-3.73,7.5-5.56,15.85-5.92.13,0,.27,0,.4-.01.42-.02.85-.03,1.29-.04.44,0,.88-.01,1.34-.02.05,0,.1,0,.15,0h.09s.06,0,.09,0c.48,0,.95,0,1.41.01.52,0,1.03.02,1.53.04.05,0,.1,0,.15,0,8.36.33,12.6,2.15,15.88,5.87,4.33,4.91,6.54,18.98,7,29.94-.72-10.28-4.92-23.88-13.36-28.55-3.38-1.87-7.32-3.22-12.73-4.11-5.41.92-9.34,2.28-12.72,4.16-8.43,4.7-12.58,18.31-13.25,28.6.41-10.96,2.57-25.03,6.88-29.96Z"/>
  <g>
    <path class="cls-3" d="m164.79,64.18c-2.19-.59-4.49.42-5.18,2.8-.69,2.37,1.18,5.59,4.23,6.44,8.66,2.4,17.41.37,24.12-5.61,2.36-2.1,2.62-5.82.96-7.64-1.67-1.84-4.18-1.72-5.89-.23-5.08,4.52-11.7,6.06-18.25,4.24Z"/>
    <path class="cls-3" d="m192.51,60.28c.46-.47,1.11-.71,1.53-.46.41.25.44,1.08-.04,1.75-1.3,1.85-3.18,3.27-5.4,4-.83.27-1.57-.33-1.62-1.22-.05-.89.37-1.6.96-1.7,1.67-.26,3.29-1.07,4.57-2.38Z"/>
    <path class="cls-3" d="m189.87,57.57c.31-.57.87-.99,1.34-.86.47.13.73.91.45,1.7-.74,2.13-2.15,4.02-4.08,5.35-.72.49-1.6.11-1.89-.73-.29-.84-.09-1.64.45-1.9,1.53-.72,2.87-1.94,3.74-3.56Z"/>
  </g>
  <path class="cls-5" d="m117.58,25.48h-.03c.67-1.72,3.11-5.91,11.09-5.93,2.63,0,4.33.02,7.91.92,3.05.77,8.44,2.57,13.05,2.56h.13c4.61,0,9.99-1.83,13.04-2.6,3.57-.91,5.27-.94,7.9-.94,7.98-.01,10.44,4.17,11.11,5.87h-.03c1.69,1.63,2.82,5.88,2.68,10.84-.18,6.3-2.32,11.35-4.79,11.28-.05,0-.09-.02-.14-.02-5.72,11.55-21.43,16.93-29.69,16.95-8.25.01-24.1-5.31-29.9-16.84-.05,0-.1.02-.15.03-2.47.08-4.63-4.97-4.83-11.26-.16-4.97.95-9.22,2.64-10.84Z"/>
  <path class="cls-11" d="m149.76,56.05c4.17,0,13.01-3.89,13-12.37-.02-8.48-9.78-9.13-13.07-9.13-3.29,0-13.06.7-13.04,9.18.02,8.48,8.94,12.33,13.12,12.32Z"/>
  <path class="cls-3" d="m149.49,36.78c-1.81,0-4.49,1.9-4.8,4.11-.31,2.21,4.93,2.12,4.93,2.12h.15s5.24.07,4.92-2.14c-.32-2.2-3-4.09-4.82-4.09h-.39Z"/>
  <path class="cls-3" d="m178.37,28.97c2.03.07,3.69,3.9,4.33,9.31.07-.68.12-1.39.13-2.12.11-4.95-1.1-9-2.71-9.06-.68-.02-1.33.69-1.85,1.88.03,0,.06-.01.09-.01Z"/>
  <path class="cls-3" d="m149.69,52.36h0c-1.02,0-2-.2-2.92-.6-.9-.39-1.71-.93-2.39-1.62-.69-.69-1.23-1.5-1.6-2.39-.12-.29.01-.63.31-.75.29-.12.63.01.75.31.32.76.78,1.44,1.36,2.03.58.58,1.26,1.04,2.03,1.37.78.33,1.62.5,2.48.5h0c.86,0,1.7-.17,2.48-.5.76-.32,1.44-.78,2.03-1.36.59-.58,1.05-1.26,1.37-2.02.12-.29.46-.43.75-.3.29.12.43.46.3.75-.38.9-.92,1.7-1.62,2.39-.69.69-1.49,1.23-2.39,1.6-.92.39-1.91.59-2.92.59Z"/>
  <g>
    <path class="cls-3" d="m134.21,64.37c1.86-1.43,4.46-1.38,6.06.62,1.6,1.99,1.09,5.82-1.49,7.83-7.33,5.73-16.5,7.26-25.3,4.21-3.09-1.07-4.82-4.53-3.95-6.92.87-2.42,3.32-3.31,5.54-2.56,6.65,2.3,13.59,1.15,19.14-3.18Z"/>
    <path class="cls-3" d="m106.14,71.63c-.62-.26-1.35-.24-1.64.17-.29.4,0,1.21.73,1.66,1.98,1.25,4.34,1.86,6.76,1.69.9-.07,1.37-.94,1.06-1.81-.31-.87-.99-1.39-1.59-1.25-1.7.41-3.57.28-5.32-.47Z"/>
    <path class="cls-3" d="m107.6,67.99c-.53-.43-1.23-.6-1.62-.29-.4.31-.33,1.16.24,1.8,1.55,1.75,3.66,2.99,6.03,3.49.88.19,1.58-.53,1.52-1.44-.05-.92-.57-1.61-1.18-1.64-1.75-.08-3.51-.72-4.99-1.92Z"/>
  </g>
  <g class="cls-2">
    <ellipse class="cls-3" cx="149.68" cy="141.71" rx="35.56" ry="5.74"/>
  </g>
  <g>
    <g>
      <path class="cls-3" d="m148.55,105.1c-.13,1.02-3.46,29.92-8.37,33.98-4.92,4.06-7.5,2.7-8.51,1.62-1.05-1.12-2.38-3.15.07-5.44,1.97-1.84,3.34-9.98,1.35-22.68l15.46-7.48Z"/>
      <g>
        <path class="cls-3" d="m128.19,137.57c-.62.18-1.3.07-1.53-.34-.23-.42.14-1.14.88-1.49,2.01-.96,4.31-1.27,6.57-.84.84.16,1.18,1.04.8,1.83-.39.79-1.09,1.2-1.64,1-1.56-.57-3.34-.66-5.08-.15Z"/>
        <path class="cls-3" d="m129.16,141.16c-.54.34-1.23.43-1.56.1-.34-.34-.18-1.13.43-1.68,1.66-1.48,3.78-2.41,6.08-2.63.85-.07,1.43.68,1.27,1.54-.15.86-.71,1.45-1.3,1.41-1.66-.12-3.39.29-4.92,1.26Z"/>
        <path class="cls-3" d="m131.82,143.88c-.33.55-.89.94-1.35.8-.45-.15-.68-.92-.38-1.69.8-2.07,2.27-3.87,4.21-5.1.72-.46,1.58-.05,1.83.78.26.84.03,1.62-.51,1.85-1.53.65-2.89,1.81-3.81,3.36Z"/>
      </g>
    </g>
    <g>
      <path class="cls-3" d="m151.56,104.84c.13,1.02,3.57,29.91,8.5,33.95,4.93,4.04,7.51,2.67,8.51,1.59,1.04-1.13,2.36-3.16-.09-5.44-1.97-1.84-3.37-9.97-1.43-22.68l-15.48-7.43Z"/>
      <g>
        <path class="cls-3" d="m171.18,137.56c.62.18,1.3.07,1.52-.35.23-.42-.14-1.14-.88-1.49-2.01-.95-4.31-1.26-6.57-.82-.84.17-1.18,1.05-.79,1.83.39.79,1.1,1.19,1.64.99,1.56-.58,3.34-.68,5.08-.17Z"/>
        <path class="cls-3" d="m170.22,141.16c.54.34,1.23.43,1.56.09.34-.34.18-1.13-.43-1.67-1.67-1.47-3.79-2.4-6.09-2.6-.85-.07-1.43.68-1.27,1.54.16.86.72,1.45,1.3,1.41,1.66-.12,3.4.28,4.92,1.24Z"/>
        <path class="cls-3" d="m167.57,143.88c.33.55.9.94,1.35.79.45-.15.68-.93.38-1.69-.81-2.07-2.28-3.87-4.23-5.09-.73-.46-1.58-.05-1.83.79-.26.84-.02,1.62.52,1.85,1.53.65,2.89,1.79,3.82,3.35Z"/>
      </g>
    </g>
  </g>
  <path class="cls-1" d="m149.73,23.02c4.61,0,9.99-1.83,13.04-2.6,3.57-.91,5.27-.94,7.9-.94,7.98-.01,10.44,4.17,11.11,5.87-5.26-16.16-21.91-18.4-31.74-18.38h-.81c-9.83.02-26.47,2.32-31.68,18.5.67-1.71,3.11-5.9,11.09-5.91,2.63,0,4.33.02,7.91.92,3.05.77,8.44,2.57,13.05,2.56h.13Z"/>
  <g>
    <circle class="cls-3" cx="163.05" cy="30.33" r="1.6"/>
    <path class="cls-3" d="m134.7,30.38c0,.89.72,1.6,1.6,1.6.88,0,1.6-.72,1.6-1.6,0-.89-.72-1.6-1.6-1.6-.89,0-1.6.72-1.6,1.61Z"/>
  </g>
  <path class="cls-3" d="m120.98,29.07c-2.03.08-3.68,3.92-4.3,9.33-.07-.68-.12-1.39-.14-2.12-.13-4.95,1.07-9.01,2.68-9.07.69-.03,1.33.68,1.86,1.88-.03,0-.06-.01-.1-.01Z"/>
  <path class="cls-11" d="m159.96,26.47c-.15,0-.31-.05-.43-.17-.26-.24-.27-.63-.04-.89.45-.49.99-.88,1.6-1.16.61-.28,1.26-.42,1.93-.44.64-.02,1.28.09,1.88.32.6.23,1.15.57,1.62,1,.26.24.27.63.04.89s-.64.27-.89.04c-.35-.33-.76-.58-1.21-.75-.45-.17-.92-.26-1.4-.24-.5.01-.98.12-1.44.33-.46.21-.86.5-1.2.86-.12.14-.29.2-.46.2Z"/>
  <path class="cls-11" d="m133.15,26.47c-.15,0-.31-.06-.43-.17-.26-.24-.27-.63-.04-.89.45-.49.99-.88,1.6-1.16.61-.28,1.26-.43,1.93-.44.63-.02,1.28.09,1.88.32.6.23,1.15.57,1.62,1,.26.24.27.63.04.89s-.64.27-.89.04c-.35-.33-.76-.58-1.21-.75-.45-.17-.93-.25-1.4-.24-.5.01-.98.12-1.44.33-.46.21-.86.5-1.2.86-.12.14-.29.2-.46.2Z"/>
  <g class="cls-2">
    <ellipse class="cls-3" cx="149.93" cy="209.53" rx="54.89" ry="8.86"/>
  </g>
  <g>
    <circle class="cls-12" cx="149.37" cy="136.2" r="72"/>
    <path class="cls-7" d="m219.12,124.2c1.1.45,1.93-.42,3.13-1.48,1.21-1.07-2.55-2.38-4.44-3.07-1.57-.57-1.75,0-2.21.18.27,1.1.52,2.21.73,3.33,1,.11,1.93.68,2.79,1.03Z"/>
    <path class="cls-7" d="m217.82,129.26c-.11-.22-.3-.37-.63-.45.14,1.28.24,2.57.31,3.86.72-1.3.52-3.03.32-3.41Z"/>
    <g>
      <path class="cls-12" d="m125.01,186.4c-1.98-1.78-7.83-8.02-8.22-13.01-.3-3.64,2.05-5.87,3.47-7.3.47-.4.93-.81.95-1.03.04-.45-2.77-2.54-4.79-3.88-.38-.49-1-.78-1.6-1.29-2.02-1.33-2.72-2.98-3.26-4.16-.17-.47-.34-.94-.55-.96-.42-.04-1.02-.56-1.83-1.09-1.62-1.07-4.23-2.91-6.59-2.93-3.82-.4-7.19-5.7-7.34-6.39-.15-.69-1.52-6.69-2.1-7.43-.76-.98-5.98-9.41-6.88-11.3-1.09-2.14-.65-11.33,2.42-16.65,1.22-2.12,1.55-4.64,1.53-6.8-5.78,10.02-9.08,21.64-9.08,34.03,0,28.69,17.71,53.24,42.8,63.32.11-.39.23-.75.35-1.02,1.02-1.7,2.57-11.45.7-12.09Z"/>
      <path class="cls-12" d="m198.29,177.1c1.24-1.65,0-7.85-2.2-10.33-2.21-2.48,0-4.96-.28-6.2-.27-1.24-2.07,0-3.03-1.35-.97-1.35,4.96-3.88-4.82-1.13-9.78,2.75-9.78,0-13.23-3.17-3.44-3.17-2.07-3.72-2.34-9.64-.27-5.92,4.68-7.02,6.75-10.24,2.07-3.21,4.27-4.78,12.26-6.02,7.99-1.24,5.1,2.06,5.1,3.28s7.71,3.19,7.71,2.64-.96-2.89.83-2.62c.97.28,10.33,1.79,10.33,1.79,1.08-.16,1.74-.74,2.12-1.45-.07-1.3-.17-2.58-.31-3.86-.56-.13-1.53-.03-3.23.45-2.69.76-4.27-1.86-4.41-3.58-.14-1.72,4.58-2.2,5.92-2.48.29-.06.58-.06.87-.03-.22-1.12-.46-2.23-.73-3.33-.1.04-.2.06-.34.06-.79-.03-1.34-1-1.86-1.79-.51-.79-1.45,1.1-1.72,1.69-.28.58-.59,1.86-.48,2.89.1,1.03-.62,1.38-1.17,1.72-.55.34-.62-.14-1.1-.41s-1.65.17-2.17,1.24c-.52,1.07.17,3.51.07,3.55-.1.04-1.24-.34-2.07-1.38-.83-1.03-1.79-3.58-1.89-4.34-.1-.76-2.17-2.72-3.58-3.2-1.41-.48-.17,1.58.07,1.96.24.38,2.1,1.72,2.21,2.65.1.93-1.83,4.2-1.35,3.03.48-1.17-.97-1.72-1.38-2.62-.41-.9-2-1.86-3.37-3.38-1.38-1.52-1.93-.07-2.83-.48-.89-.41-1.65.55-2.48.35-.82-.21-.55.96-.62,2.07-.07,1.1-.48.55-1.79,1.86-1.31,1.31-1.1,2.27-1.86,2.75-.76.48-2.27.9-4.55.97-2.27.07-2.14-1.03-2.07-2.21.07-1.17.41-2.75,1.1-4.2.69-1.45,4.34-.76,5.1-.97.76-.21.27-1.38.27-2.79s-1.72-2.14-2.44-2.62c-.72-.48.72-.55,2.38-.96,1.65-.41,2.69-1.24,3.1-2.1.41-.86,2.41-2.58,3.34-3.24.93-.66,1.79-.89,2.48-1.38.69-.48,1.98.83,1.98.83l6.1-.98s1.19-.67,1.4-1.81c.21-1.14.21-1.29.98-3.15.47-1.12,1.85-1.81,2.87-2.24-.16-.27-.32-.53-.48-.79-.54.03-1.19.1-1.93.24-2.17.41-1.76-1.19-2.17-2.12-.37-.84-.07-1.26.85-2.91-.36-.48-.72-.96-1.09-1.44-.14.03-.29.05-.43.06-1.6.1-1.4,2.22-1.86,2.79-.46.57-.62,1.08-.26,3.05.36,1.96-1.7,6.35-2.79,6.56-1.09.21-2.63-3-2.89-3.41-.26-.41-2.12,1.24-3.41,1.24s-1.29-3.98-.47-5.27c.83-1.29,3.7-3.26,4.74-5.46.82-1.75,1.39-3.25,2.59-5.03-12.4-12.78-29.75-20.73-48.97-20.73-11.61,0-22.54,2.9-32.12,8.02,1.51.34,3.24.57,4.53.55,2.36.02,5.33.33,8.67,1.35,1.04.33,1.89.42,2.53.49,1.49.15,2.55.26,3.23,2.14.81.54,3.06,1.67,3.15,3.03-.04.45-.32,1.09-1,1.48-.7.6-4.99,2.86-6.75,3.36-1.1.34-6.54,3.38-7.03,4.01-.02.22-.21,2.23-.38,4.02,1.23.58,4.29,2.25,4.83,3.43.19.24.4.27,1.04.33.43.04.87-.14,1.25.35.19.25.38.49.34.94l-.04.45c-.27,2.9.07,3.84.26,4.08.25-.42.34-1.32.61-1.96.38-1.76.74-3.3,2.01-3.17.42.04,1.12-.56,1.65-1.63.49-.63.32-1.09.32-1.09-.79-.76-.43-2.3,1.04-4.17.02-.22.23-.2.25-.42.76-1.27,1.74-2.53,2.82-2.64.42.04.85.09,1.23.58.79.76,1.75,1.98,2.51,2.96.57.74.96,1.23,1.15,1.47.4.27.55.96.49,1.63-.02.22.15.69.13.92.89-.36,2.44-.88,3.25-.34.4.27.6.51.77.98.17.47.11,1.14.26,1.83.13.92.39,2.74.77,3.23.57.74,1.55,1.74,2.07,3.14-.02.22.17.47.36.71.36.71.72,1.43.45,2.07-.25.42-.72.83-1.61,1.18-1.34.54-2.61.4-3.7.52-1.08.11-2.15,0-2.82.38-1.36.76-1.87,1.61-1.38,3.24-.02.22.17.47.15.69.13.91.49,1.63,0,2.25-.27.65-.93.81-2.02.92-.21-.02-.66.16-1.08.11-1.72.05-4.52.21-4.61,1.1-.15,1.56-1.48,2.1-2.38,2.46-.23.2-.68.38-.91.58-.24.2-.47.4-.91.58-.91.58-3.63,2.1-3.69,2.77.28,1.6-1.9,4.31-3.47,5.05-1.12.56-2.86,3.08-3.14,3.73-.02.22-.04.45-.08.89-.1,1.12-.25,2.68-1.33,2.79-.64-.07-1.19-1.02-1.94-2.23-.36-.71-1.11-1.92-1.53-1.96-.64-.07-1.7-.18-2.57-.04-1.08.11-2.17.23-3.02.14-2.76-.29-4.95.16-4.99.61-.25.42-.53,1.07-.82,1.94-.81,1.72-2.43,5.38-1.44,6.16,1.81,1.31,3.23,2.14,4.08,2.23.21.02,1.12-.56,1.8-.94,1.38-.98,2.74-1.75,3.57-1.43.21.02.4.27.6.51.36.71-.17,1.79-.95,3.28-.23.2-.51.85-.53,1.07.19.25.83.31,1.23.58,1.87.64,2.89,1.2,3.06,1.67.19.24.34.93.24,2.05-.06.67-.02,2.48.17,2.72,1.02.56,4.97,1.86,5.63,1.71.21.02.66-.16,1.1-.34,2.21-.67,4.2-1.37,5.42-.57,1.43.82,3.32,1.24,4.59,1.38,1.49.15,6.27,1.77,7.38,3.69.92,1.67,3,2.34,3.42,2.38.85.09,3.94,3.79,3.81,5.12.15.69,3.36,3.05,4.21,3.14.66-.16,4.65.71,5.19,1.89l.19.24c.55.96,1.81,3.57-.01,4.73-.91.58-2.93,3.75-4.24,6.32-.53,1.07-8.61,7.22-9.74,7.78-.89.36-3.23,2.37-3.97,3.42-.51.85-1.63,1.41-2.74,1.75-.45.18-.89.36-1.12.56-.25.42-.98,1.25-1.91,2.05l-6.75.17c6.59,2.12,13.6,3.26,20.89,3.26,19.62,0,37.31-8.29,49.75-21.55-.59-2.43-1.72-4.58-.84-5.76Zm-15.08-73.6c.62-.1,1.79,1.19,1.79,1.19,0,0-.03.93.33,1.91.36.98,1.4,2.43,2.27,4.18.88,1.76-1.5,2.69-3.62,2.89-2.12.21,0-2.84.36-3.46.36-.62-.21-2.07-.36-2.58-.15-.52-1.55-1.24-1.76-2.17-.21-.93.98-1.97.98-1.97Zm-1.96,4.34c2.12-.57,1.14,2.38.52,3.05-.62.67-2.74.52-2.74,0s2.22-3.05,2.22-3.05Z"/>
    </g>
    <g>
      <path class="cls-9" d="m137.14,198.92c.23-.2.68-.38,1.12-.56,1.1-.34,2.23-.9,2.74-1.74.74-1.05,3.07-3.06,3.97-3.42,1.12-.56,9.21-6.71,9.74-7.78,1.31-2.57,3.33-5.74,4.24-6.32,1.82-1.16.57-3.77.01-4.73l-.19-.25c-.53-1.18-4.53-2.05-5.19-1.89-.85-.09-4.06-2.45-4.21-3.14.12-1.34-2.96-5.04-3.81-5.12-.43-.04-2.51-.71-3.42-2.38-1.11-1.92-5.89-3.54-7.38-3.69-1.27-.13-3.17-.55-4.59-1.38-1.21-.8-3.21-.1-5.42.57-.44.18-.89.36-1.1.34-.66.15-4.61-1.15-5.63-1.71-.19-.24-.24-2.05-.17-2.72.11-1.12-.04-1.81-.24-2.05-.17-.47-1.19-1.02-3.06-1.67-.4-.27-1.04-.33-1.23-.58.02-.22.29-.87.53-1.07.79-1.49,1.31-2.57.95-3.28-.19-.24-.38-.49-.6-.51-.83-.31-2.19.45-3.57,1.43-.68.38-1.59.96-1.8.94-.85-.09-2.27-.91-4.08-2.22-1-.78.63-4.44,1.44-6.16.3-.87.57-1.52.82-1.94.04-.45,2.23-.9,4.99-.61.85.09,1.93-.02,3.02-.14.87-.14,1.93-.02,2.57.04.43.04,1.17,1.25,1.53,1.96.75,1.2,1.3,2.16,1.94,2.23,1.08-.11,1.23-1.67,1.33-2.79.04-.45.06-.67.08-.89.28-.65,2.01-3.17,3.14-3.73,1.57-.74,3.75-3.44,3.48-5.05.06-.67,2.78-2.19,3.69-2.77.45-.18.68-.38.91-.58.23-.2.68-.38.91-.58.89-.36,2.23-.9,2.38-2.46.08-.89,2.89-1.06,4.61-1.1.43.04.87-.14,1.08-.11,1.08-.11,1.74-.27,2.02-.92.49-.63.12-1.34,0-2.25.02-.22-.17-.47-.15-.69-.49-1.63.02-2.48,1.38-3.24.68-.38,1.74-.27,2.82-.38,1.08-.11,2.36.02,3.7-.52.89-.36,1.36-.76,1.61-1.18.27-.65-.09-1.36-.45-2.07-.19-.25-.38-.49-.36-.71-.51-1.4-1.49-2.41-2.07-3.14-.38-.49-.64-2.32-.77-3.23-.15-.69-.09-1.36-.26-1.83-.17-.47-.36-.71-.77-.98-.81-.54-2.36-.02-3.25.34.02-.22-.15-.69-.13-.91.06-.67-.09-1.36-.49-1.63-.19-.25-.58-.74-1.15-1.47-.77-.98-1.72-2.21-2.51-2.96-.38-.49-.81-.53-1.23-.58-1.08.11-2.06,1.36-2.82,2.64-.02.22-.23.2-.25.42-1.46,1.88-1.82,3.42-1.04,4.18,0,0,.17.47-.32,1.09-.53,1.07-1.23,1.68-1.65,1.63-1.27-.13-1.63,1.41-2.01,3.17-.27.65-.36,1.54-.61,1.96-.19-.25-.53-1.18-.26-4.08l.04-.45c.04-.45-.15-.69-.34-.94-.38-.49-.83-.31-1.25-.35-.64-.07-.85-.09-1.04-.33-.53-1.18-3.59-2.85-4.83-3.43.17-1.78.36-3.79.38-4.02.49-.62,5.92-3.67,7.03-4,1.76-.49,6.05-2.75,6.75-3.36.68-.38.96-1.03,1-1.48-.09-1.36-2.34-2.5-3.15-3.03-.68-1.87-1.74-1.98-3.23-2.14-.64-.07-1.49-.15-2.53-.49-3.34-1.02-6.31-1.33-8.67-1.35-1.29.02-3.02-.21-4.53-.55-11.26,6.02-20.64,15.11-27.01,26.16.02,2.17-.31,4.68-1.53,6.81-3.07,5.32-3.5,14.51-2.42,16.65.89,1.89,6.11,10.32,6.88,11.3.58.73,1.94,6.74,2.1,7.43.15.69,3.51,6,7.34,6.39,2.36.02,4.98,1.87,6.59,2.93.81.53,1.4,1.05,1.83,1.09.21.02.38.49.55.96.53,1.18,1.24,2.83,3.26,4.17.6.51,1.21.8,1.6,1.29,2.02,1.34,4.83,3.43,4.79,3.88-.02.22-.49.62-.95,1.03-1.42,1.43-3.78,3.66-3.47,7.3.39,4.99,6.24,11.23,8.22,13.01,1.87.65.31,10.4-.7,12.1-.11.27-.23.63-.35,1.02,1.48.6,2.99,1.14,4.52,1.63l6.75-.17c.93-.8,1.65-1.63,1.91-2.06Z"/>
      <path class="cls-9" d="m183.98,107.63c.15.52.73,1.96.36,2.58-.36.62-2.48,3.67-.36,3.46,2.12-.21,4.5-1.14,3.62-2.89-.88-1.75-1.91-3.2-2.27-4.18-.36-.98-.33-1.91-.33-1.91,0,0-1.17-1.29-1.79-1.19,0,0-1.19,1.03-.98,1.96.21.93,1.6,1.65,1.75,2.17Z"/>
      <path class="cls-9" d="m181.77,110.89c.62-.67,1.6-3.62-.52-3.05,0,0-2.22,2.53-2.22,3.05s2.12.67,2.74,0Z"/>
      <path class="cls-9" d="m203.36,98.54c.41.93,0,2.53,2.17,2.12.74-.14,1.38-.21,1.93-.24-1.01-1.64-2.1-3.24-3.24-4.79-.92,1.65-1.22,2.07-.85,2.91Z"/>
      <path class="cls-9" d="m205.06,103.45c-.78,1.86-.78,2.01-.98,3.15-.21,1.14-1.4,1.81-1.4,1.81l-6.1.98s-1.29-1.31-1.98-.83c-.69.48-1.55.72-2.48,1.38-.93.65-2.93,2.38-3.34,3.24-.41.86-1.45,1.69-3.1,2.1-1.65.41-3.1.48-2.38.96.72.48,2.44,1.21,2.44,2.62s.48,2.58-.28,2.79c-.76.21-4.41-.48-5.1.97-.69,1.45-1.03,3.03-1.1,4.2-.07,1.17-.21,2.27,2.07,2.2,2.27-.07,3.79-.49,4.55-.97.76-.48.55-1.44,1.86-2.75,1.31-1.31,1.72-.76,1.79-1.86.07-1.1-.21-2.27.62-2.07.83.21,1.59-.76,2.48-.35.9.41,1.45-1.03,2.83.48,1.38,1.52,2.96,2.48,3.37,3.38.41.89,1.86,1.45,1.38,2.62-.48,1.17,1.45-2.1,1.34-3.03-.11-.93-1.97-2.27-2.21-2.65-.24-.38-1.48-2.44-.07-1.96,1.41.48,3.48,2.44,3.58,3.2.1.76,1.07,3.31,1.89,4.34.83,1.03,1.97,1.41,2.07,1.38.1-.03-.59-2.48-.07-3.55.52-1.07,1.69-1.52,2.17-1.24.48.28.55.76,1.1.41.55-.35,1.27-.69,1.17-1.72-.1-1.03.2-2.31.48-2.89.27-.59,1.21-2.48,1.72-1.69.52.79,1.07,1.75,1.86,1.79.13,0,.24-.02.34-.06-1.64-6.65-4.24-12.91-7.67-18.62-1.03.43-2.41,1.11-2.87,2.23Z"/>
      <path class="cls-9" d="m191.01,99.21c-.83,1.29-.83,5.27.46,5.27s3.15-1.65,3.41-1.24c.26.41,1.81,3.62,2.9,3.41,1.08-.21,3.15-4.6,2.79-6.56-.36-1.96-.21-2.48.26-3.05.46-.57.26-2.69,1.86-2.79.15,0,.29-.03.43-.06-1.49-1.91-3.09-3.74-4.78-5.47-1.2,1.79-1.77,3.28-2.59,5.04-1.04,2.2-3.91,4.17-4.74,5.46Z"/>
      <path class="cls-9" d="m215.47,123.2c-1.34.28-6.06.76-5.92,2.48.14,1.72,1.72,4.34,4.41,3.58,1.7-.48,2.67-.58,3.23-.45-.21-1.91-.49-3.79-.85-5.64-.28-.03-.57-.03-.86.03Z"/>
      <path class="cls-9" d="m217.57,137.57c0-.46.02-.92.02-1.38,0-1.18-.03-2.35-.09-3.52-.39.71-1.04,1.29-2.12,1.45,0,0-9.37-1.51-10.33-1.79-1.79-.27-.82,2.07-.82,2.62s-7.71-1.42-7.71-2.64,2.89-4.52-5.1-3.28c-7.99,1.24-10.19,2.81-12.26,6.02-2.07,3.21-7.03,4.31-6.75,10.24.28,5.92-1.1,6.48,2.34,9.64,3.44,3.17,3.44,5.92,13.23,3.17,9.78-2.75,3.86-.22,4.82,1.13.96,1.35,2.75.11,3.03,1.35.28,1.24-1.93,3.72.28,6.2,2.2,2.48,3.44,8.68,2.2,10.33-.88,1.18.25,3.32.84,5.76,10.84-11.55,17.7-26.88,18.4-43.8l.05-1.48Z"/>
    </g>
  </g>
  <g class="cls-2">
    <path class="cls-3" d="m106.32,95.59c-.41-1.53-1.37-2.92-2.81-3.85-3.08-1.99-7.19-1.1-9.17,1.98-1.6,2.47-1.34,5.61.42,7.77,0,0,0,0,0,0,.43.53.95,1.01,1.56,1.4,3.08,1.99,7.18,1.1,9.17-1.98,1.06-1.64,1.3-3.58.83-5.32,0,0,0,0,0,0Zm-10.88,6.22s-.01,0-.02-.01c0,0,.01,0,.02.01Z"/>
    <path class="cls-3" d="m140.79,162.03c-.41-1.53-1.37-2.92-2.81-3.84-3.07-1.99-7.19-1.1-9.17,1.97-1.6,2.47-1.34,5.61.42,7.78,2.7,1.42,5.92,1.13,8.31-.58-2.39,1.7-5.6,1.99-8.31.58.43.53.95,1.01,1.56,1.4,3.08,1.99,7.18,1.1,9.17-1.98,1.06-1.64,1.3-3.58.83-5.32,0,0,0,0,0,0Z"/>
    <path class="cls-3" d="m134.99,126.31c1.06-1.64,1.3-3.58.83-5.32,0,0,0,0,0,0-.41-1.53-1.37-2.92-2.81-3.85-3.07-1.99-7.18-1.1-9.17,1.98-1.6,2.47-1.34,5.61.42,7.78,2.52,1.32,5.49,1.15,7.81-.26-2.33,1.41-5.29,1.58-7.81.26.43.53.95,1,1.56,1.4,3.08,1.99,7.18,1.1,9.17-1.98Z"/>
    <path class="cls-3" d="m95.01,123.61c.07-.27.12-.54.16-.82-.41-1.53-1.37-2.92-2.81-3.84-3.07-1.99-7.18-1.1-9.17,1.97-1.59,2.47-1.34,5.61.42,7.78,3.6,1.89,8.12.74,10.37-2.74.09-.14.17-.29.25-.44-.08.15-.16.29-.25.44-2.25,3.49-6.76,4.63-10.37,2.74.43.53.95,1.01,1.56,1.4,3.08,1.99,7.18,1.1,9.17-1.98,1.06-1.64,1.3-3.58.83-5.33-.04.27-.09.55-.16.82Z"/>
    <path class="cls-3" d="m197.16,102.8c.15-.24.29-.48.42-.73-.13.25-.26.49-.42.73-2.25,3.49-6.77,4.63-10.37,2.74.43.53.95,1.01,1.56,1.4,3.08,1.99,7.18,1.1,9.17-1.98,1.06-1.64,1.3-3.58.83-5.33-.04.25-.09.49-.15.74.06-.24.11-.49.15-.74-.41-1.53-1.37-2.92-2.81-3.84-3.07-1.99-7.19-1.1-9.17,1.98-1.6,2.47-1.34,5.61.42,7.77,3.6,1.89,8.12.75,10.37-2.74Z"/>
    <path class="cls-3" d="m197.93,154.64c-.41-1.53-1.37-2.92-2.81-3.84-3.07-1.99-7.19-1.1-9.17,1.98-1.6,2.47-1.34,5.61.42,7.77.73.38,1.5.64,2.29.77-.78-.14-1.55-.39-2.29-.77.43.53.95,1.01,1.56,1.4,3.08,1.99,7.18,1.1,9.17-1.97,1.06-1.64,1.3-3.58.83-5.33,0,0,0,0,0,0Z"/>
    <path class="cls-3" d="m194.17,127.77c1.06-1.64,1.3-3.58.83-5.33-.06.4-.16.79-.28,1.18.12-.39.22-.78.28-1.18-.41-1.53-1.37-2.92-2.81-3.85-3.07-1.99-7.18-1.1-9.17,1.98-1.6,2.47-1.34,5.61.42,7.77,3.61,1.89,8.12.75,10.37-2.74-2.25,3.49-6.76,4.63-10.37,2.74.43.53.95,1.01,1.56,1.4,3.08,1.99,7.18,1.1,9.17-1.98Z"/>
    <path class="cls-3" d="m165.18,157.47c-.08-.02-.05-.03-.13.02-.11.07-.23.14-.34.22-.01,0-.03.02-.04.03-.01,0-.02,0-.03-.01,0,0,0-.01,0-.02-.09-.3-.18-.6-.27-.91l-.32-1.05-.32-1.07c-.03-.11-.07-.21-.1-.32,0-.03-.02-.04-.05-.05-.07-.02-.14-.04-.21-.06-.71-.19-1.41-.38-2.12-.58-.02,0-.05-.02-.07-.01-.02.08-1.34,11.08-1.34,11.15.02,0,.05.01.08.02.71.19,1.43.39,2.14.58.03,0,.06.01.08.02.02,0,.05,0,.07,0,.08-.05.16-.1.23-.15.06-.04.12-.07.17-.11,0,0,0,0,.01,0,0,0,.01,0,.02,0,0,.01.01.03.02.04.06.21.13.43.19.64.11.38.23.75.34,1.13.11.35.21.71.32,1.06.05.17.1.33.15.5.01.03.03.05.06.06.13.03.25.07.38.1.64.18,1.29.35,1.93.53.02,0,.04.02.07.01,0-.03,0-.06.01-.08.44-3.66.88-7.33,1.32-10.99.01-.09.03-.08-.07-.1-.73-.2-1.46-.4-2.19-.59Z"/>
    <path class="cls-3" d="m147.27,94.71c-.08-.02-.05-.03-.13.02-.11.07-.23.14-.34.22-.01,0-.03.02-.04.03-.01,0-.02,0-.03-.01,0,0,0-.01,0-.02-.09-.3-.18-.6-.27-.91-.11-.35-.21-.7-.32-1.05l-.32-1.07c-.03-.11-.07-.21-.1-.32,0-.03-.02-.04-.05-.05-.07-.02-.14-.04-.21-.05-.71-.19-1.41-.38-2.12-.58-.02,0-.05-.02-.07-.01-.02.08-1.34,11.08-1.34,11.15.02,0,.05.02.08.02.71.19,1.43.39,2.14.58.03,0,.06.01.08.02.02,0,.05,0,.07,0,.08-.05.16-.1.23-.15.06-.04.12-.07.17-.11,0,0,0,0,.01,0,0,0,.01,0,.02,0,0,.01.01.03.02.04.06.21.13.43.19.64.11.38.23.75.34,1.13.11.35.21.71.32,1.06.05.17.1.33.15.5.01.03.03.05.06.06.13.03.25.07.38.1.64.18,1.29.35,1.93.53.02,0,.04.02.07.01,0-.03,0-.06.01-.08.44-3.66.88-7.33,1.32-10.99.01-.09.03-.08-.07-.1-.73-.2-1.46-.4-2.19-.59Z"/>
    <path class="cls-3" d="m158.92,108.57c-.08-.02-.05-.03-.13.02-.11.07-.23.14-.34.22-.01,0-.03.02-.04.03-.01,0-.02,0-.03-.01,0,0,0-.01,0-.02-.09-.3-.18-.6-.27-.91-.11-.35-.21-.7-.32-1.05l-.32-1.07c-.03-.11-.07-.21-.1-.32,0-.03-.02-.04-.05-.05-.07-.02-.14-.04-.21-.05-.71-.19-1.41-.38-2.12-.58-.02,0-.05-.02-.07-.01-.02.08-1.34,11.08-1.34,11.15.02,0,.05.02.08.02.71.19,1.43.39,2.14.58.03,0,.06.01.08.02.02,0,.05,0,.07,0,.08-.05.16-.1.23-.15.06-.04.12-.07.17-.11,0,0,0,0,.01,0,0,0,.01,0,.02,0,0,.01.01.03.02.04.06.21.13.43.19.64.11.38.23.75.34,1.13.11.35.21.71.32,1.06.05.17.1.33.15.5.01.03.03.05.06.06.13.03.25.07.38.1.64.18,1.29.35,1.93.53.02,0,.04.02.07.01,0-.03,0-.06.01-.08.44-3.66.88-7.33,1.32-10.99.01-.09.03-.08-.07-.1-.73-.2-1.46-.4-2.19-.59Z"/>
    <path class="cls-3" d="m134.4,138.18c-.08-.02-.05-.03-.13.02-.11.07-.23.14-.34.22-.01,0-.03.02-.04.03-.01,0-.02,0-.03-.01,0,0,0-.01,0-.02-.09-.3-.18-.6-.27-.91-.11-.35-.21-.7-.32-1.05l-.32-1.07c-.03-.11-.07-.21-.1-.32,0-.03-.02-.04-.05-.05-.07-.02-.14-.04-.21-.05-.71-.19-1.41-.38-2.12-.58-.02,0-.05-.02-.07-.01-.02.08-1.34,11.08-1.34,11.15.02,0,.05.02.08.02.71.19,1.43.39,2.14.58.03,0,.06.01.08.02.02,0,.05,0,.07,0,.08-.05.16-.1.23-.15.06-.04.12-.07.17-.11,0,0,0,0,.01,0,0,0,.01,0,.02,0,0,.01.01.03.02.04.06.21.13.43.19.64.11.38.23.75.34,1.13.11.35.21.71.32,1.06.05.17.1.33.15.5.01.03.03.05.06.06.13.03.25.07.38.1.64.18,1.29.35,1.93.53.02,0,.04.02.07.01,0-.03,0-.06.01-.08.44-3.66.88-7.33,1.32-10.99.01-.09.03-.08-.07-.1-.73-.2-1.46-.4-2.19-.59Z"/>
    <path class="cls-3" d="m116.57,105.98c-.08-.02-.05-.03-.13.02-.11.07-.23.14-.34.22-.01,0-.03.02-.04.03-.01,0-.02,0-.03-.01,0,0,0-.01,0-.02-.09-.3-.18-.6-.27-.91-.11-.35-.21-.7-.32-1.05l-.32-1.07c-.03-.11-.07-.21-.1-.32,0-.03-.02-.04-.05-.05-.07-.02-.14-.04-.21-.05-.71-.19-1.41-.38-2.12-.58-.02,0-.05-.02-.07-.01-.02.08-1.34,11.08-1.34,11.15.02,0,.05.02.08.02.71.19,1.43.39,2.14.58.03,0,.06.01.08.02.02,0,.05,0,.07,0,.08-.05.16-.1.23-.15.06-.04.12-.07.17-.11,0,0,0,0,.01,0,0,0,.01,0,.02,0,0,.01.01.03.02.04.06.21.13.43.19.64.11.38.23.75.34,1.13.11.35.21.71.32,1.06.05.17.1.33.15.5.01.03.03.05.06.06.13.03.25.07.38.1.64.18,1.29.35,1.93.53.02,0,.04.02.07.01,0-.03,0-.06.01-.08.44-3.66.88-7.33,1.32-10.99.01-.09.03-.08-.07-.1-.73-.2-1.46-.4-2.19-.59Z"/>
    <path class="cls-3" d="m168.47,135.25c-.08-.02-.05-.03-.13.02-.11.07-.23.14-.34.22-.01,0-.03.02-.04.03-.01,0-.02,0-.03-.01,0,0,0-.01,0-.02-.09-.3-.18-.6-.27-.91-.11-.35-.21-.7-.32-1.05l-.32-1.07c-.03-.11-.07-.21-.1-.32,0-.03-.02-.04-.05-.05-.07-.02-.14-.04-.21-.05-.71-.19-1.41-.38-2.12-.58-.02,0-.05-.02-.07-.01-.02.08-1.34,11.08-1.34,11.15.02,0,.05.02.08.02.71.19,1.43.39,2.14.58.03,0,.06.01.08.02.02,0,.05,0,.07,0,.08-.05.16-.1.23-.15.06-.04.12-.07.17-.11,0,0,0,0,.01,0,0,0,.01,0,.02,0,0,.01.01.03.02.04.06.21.13.43.19.64.11.38.23.75.34,1.13.11.35.21.71.32,1.06.05.17.1.33.15.5.01.03.03.05.06.06.13.03.25.07.38.1.64.18,1.29.35,1.93.53.02,0,.04.02.07.01,0-.03,0-.06.01-.08.44-3.66.88-7.33,1.32-10.99.01-.09.03-.08-.07-.1-.73-.2-1.46-.4-2.19-.59Z"/>
    <path class="cls-3" d="m113.68,143.39c-.08-.02-.05-.03-.13.02-.11.07-.23.14-.34.22-.01,0-.03.02-.04.03-.01,0-.02,0-.03-.01,0,0,0-.01,0-.02-.09-.3-.18-.6-.27-.91-.11-.35-.21-.7-.32-1.05l-.32-1.07c-.03-.11-.07-.21-.1-.32,0-.03-.02-.04-.05-.05-.07-.02-.14-.04-.21-.05-.71-.19-1.41-.38-2.12-.58-.02,0-.05-.02-.07-.01-.02.08-1.34,11.08-1.34,11.15.02,0,.05.02.08.02.71.19,1.43.39,2.14.58.03,0,.06.01.08.02.03,0,.05,0,.07,0,.08-.05.16-.1.23-.15.06-.04.12-.07.17-.11,0,0,0,0,.01,0,0,0,.01,0,.02,0,0,.01.01.03.02.04.06.21.13.43.19.64.11.38.23.75.34,1.13.11.35.21.71.32,1.06.05.17.1.33.15.5.01.03.03.05.06.06.13.03.25.07.38.1.64.18,1.29.35,1.93.53.02,0,.04.02.07.01,0-.03,0-.06.01-.08.44-3.66.88-7.33,1.32-10.99.01-.09.03-.08-.07-.1-.73-.2-1.46-.4-2.19-.59Z"/>
  </g>
  <g>
    <g>
      <path class="cls-8" d="m95.76,100.49c.43.53.95,1.01,1.56,1.4,3.08,1.99,7.18,1.11,9.17-1.97,1.06-1.64,1.3-3.58.83-5.33-.16,1.09-.55,2.18-1.19,3.16-2.25,3.49-6.76,4.63-10.37,2.74Z"/>
      <path class="cls-4" d="m95.34,92.72c-1.6,2.47-1.34,5.61.42,7.78,3.61,1.89,8.12.75,10.37-2.74.64-.99,1.03-2.07,1.19-3.16-.41-1.53-1.37-2.92-2.81-3.85-3.08-1.99-7.19-1.1-9.17,1.98Z"/>
    </g>
    <path class="cls-1" d="m102.93,96.39c.15.18.21.44.18.77-.04.39-.21.68-.49.86-.25.15-.61.24-1.1.27v.76h-.55v-.75h-.42v.75h-.55v-.76h-1.08l.11-.65h.11c.18,0,.29,0,.34-.01.07-.02.12-.08.13-.17v-2.42c-.02-.12-.08-.19-.19-.22-.07-.02-.21-.03-.43-.02h-.08v-.58h.33c.4.01.64,0,.75,0v-.88h.55v.87h.42v-.87h.55v.88c.38.04.67.12.87.24.24.15.38.37.4.67.04.43-.11.73-.46.91h0c.27.06.47.18.6.35h0Zm-2.37-.48h.09c.31,0,.55-.01.72-.05.3-.07.45-.23.45-.48s-.15-.41-.44-.49c-.16-.04-.4-.06-.72-.05-.05,0-.08.01-.1.01v1.06h0Zm.1,1.73c.38,0,.66-.01.86-.06.35-.09.52-.27.52-.53s-.17-.44-.51-.53c-.18-.05-.47-.07-.85-.06h-.12v1.18h.1Z"/>
  </g>
  <g>
    <g>
      <path class="cls-8" d="m130.23,166.94c.43.53.95,1.01,1.56,1.4,3.08,1.99,7.18,1.1,9.17-1.98,1.06-1.64,1.3-3.58.83-5.33-.16,1.09-.55,2.18-1.19,3.16-2.25,3.49-6.77,4.63-10.37,2.74Z"/>
      <path class="cls-4" d="m129.81,159.16c-1.6,2.47-1.34,5.61.42,7.77,3.6,1.89,8.12.75,10.37-2.74.64-.99,1.03-2.07,1.19-3.16-.41-1.53-1.37-2.92-2.81-3.85-3.08-1.99-7.19-1.1-9.17,1.98Z"/>
    </g>
    <path class="cls-1" d="m137.4,162.83c.15.18.21.44.18.77-.04.39-.21.68-.49.86-.24.15-.61.24-1.1.27v.76h-.55v-.75h-.42v.75h-.55v-.76h-1.08l.11-.65h.11c.18,0,.29,0,.34-.01.07-.02.12-.08.13-.17v-2.42c-.02-.12-.08-.19-.19-.22-.07-.02-.21-.03-.42-.02h-.09v-.58h.33c.4.01.64,0,.75,0v-.88h.55v.87h.42v-.87h.55v.88c.38.04.67.12.87.25.24.15.38.37.4.67.04.43-.11.73-.46.91h0c.27.06.47.17.6.35h0Zm-2.37-.48h.09c.31,0,.55-.01.73-.05.29-.07.45-.23.45-.48s-.15-.41-.44-.49c-.16-.04-.4-.06-.72-.05-.05,0-.09.01-.1.01v1.07h0Zm.1,1.73c.38,0,.66-.01.86-.06.35-.09.52-.27.52-.53s-.17-.45-.51-.53c-.18-.05-.47-.07-.85-.05h-.12v1.18h.1s0,0,0,0Z"/>
  </g>
  <g>
    <g>
      <path class="cls-8" d="m125.25,125.89c.43.53.95,1,1.56,1.4,3.08,1.99,7.18,1.1,9.17-1.98,1.06-1.64,1.3-3.58.83-5.33-.16,1.09-.55,2.18-1.19,3.16-2.25,3.49-6.76,4.63-10.37,2.74Z"/>
      <path class="cls-4" d="m124.84,118.11c-1.6,2.47-1.34,5.61.42,7.78,3.6,1.89,8.12.75,10.37-2.74.64-.99,1.03-2.07,1.19-3.16-.41-1.53-1.37-2.92-2.81-3.85-3.07-1.99-7.18-1.1-9.17,1.98Z"/>
    </g>
    <path class="cls-1" d="m132.43,121.78c.15.18.21.44.18.77-.04.39-.21.68-.49.86-.24.15-.61.24-1.1.27v.76h-.55v-.75h-.42v.75h-.55v-.76h-1.08l.11-.64h.11c.18,0,.29,0,.34-.01.07-.02.12-.08.13-.17v-2.42c-.02-.12-.08-.19-.19-.22-.07-.02-.21-.03-.43-.02h-.09v-.58h.33c.4.01.64.01.75,0v-.88h.55v.87h.42v-.87h.55v.88c.38.04.67.12.87.24.24.15.38.37.4.67.04.43-.11.73-.46.91h0c.27.06.47.18.6.35h0Zm-2.37-.48h.09c.31,0,.55-.01.72-.05.3-.07.45-.24.45-.48s-.15-.41-.44-.49c-.16-.05-.4-.06-.72-.06-.05,0-.09.01-.1.01v1.07h0Zm.1,1.72c.38,0,.66-.01.86-.06.35-.09.52-.27.52-.53s-.17-.44-.51-.53c-.18-.05-.47-.07-.85-.06h-.12v1.18h.1Z"/>
  </g>
  <g>
    <g>
      <path class="cls-8" d="m84.61,127.7c.43.53.95,1.01,1.56,1.4,3.08,1.99,7.18,1.1,9.17-1.97,1.06-1.64,1.3-3.58.83-5.33-.16,1.09-.55,2.18-1.19,3.16-2.25,3.49-6.76,4.63-10.37,2.74Z"/>
      <path class="cls-4" d="m84.19,119.93c-1.6,2.47-1.34,5.61.42,7.78,3.61,1.89,8.12.74,10.37-2.74.64-.99,1.03-2.07,1.19-3.16-.41-1.53-1.37-2.92-2.81-3.85-3.07-1.99-7.18-1.11-9.17,1.97Z"/>
    </g>
    <path class="cls-1" d="m91.78,123.6c.15.18.21.44.18.77-.04.39-.21.68-.49.86-.25.15-.61.24-1.1.27v.76h-.55v-.75h-.42v.75h-.55v-.76h-1.08l.11-.64h.11c.18,0,.29,0,.34-.01.07-.02.12-.08.13-.17v-2.42c-.02-.12-.08-.19-.19-.22-.07-.02-.21-.03-.43-.02h-.08v-.58h.33c.4.01.64,0,.75,0v-.88h.55v.87h.42v-.87h.55v.88c.38.04.67.12.87.25.24.15.38.37.4.67.04.43-.11.73-.46.91h0c.27.06.47.18.6.35h0Zm-2.37-.48h.09c.31,0,.55-.01.72-.05.3-.07.45-.24.45-.48s-.15-.41-.44-.49c-.16-.04-.4-.06-.72-.05-.05,0-.09.01-.1.01v1.07Zm.1,1.73c.38,0,.66-.01.86-.06.34-.09.52-.27.52-.53s-.17-.44-.51-.53c-.18-.05-.47-.07-.85-.06h-.12v1.18h.1Z"/>
  </g>
  <g>
    <g>
      <path class="cls-8" d="m187.79,104.54c.43.53.95,1.01,1.56,1.4,3.08,1.99,7.18,1.1,9.17-1.98,1.06-1.64,1.3-3.58.83-5.33-.16,1.09-.55,2.18-1.19,3.16-2.25,3.49-6.77,4.63-10.37,2.74Z"/>
      <path class="cls-4" d="m187.37,96.76c-1.6,2.47-1.34,5.61.42,7.78,3.6,1.89,8.12.75,10.37-2.74.64-.99,1.03-2.07,1.19-3.16-.41-1.53-1.37-2.92-2.81-3.85-3.08-1.99-7.19-1.1-9.17,1.97Z"/>
    </g>
    <path class="cls-1" d="m194.96,100.43c.15.18.21.44.18.77-.04.39-.21.68-.49.86-.25.15-.61.24-1.1.27v.76h-.55v-.75h-.42v.75h-.55v-.76h-1.08l.11-.65h.11c.18,0,.29,0,.35-.01.07-.02.12-.08.13-.17v-2.42c-.02-.12-.08-.19-.19-.22-.07-.02-.21-.03-.42-.02h-.09v-.58h.33c.4.01.64,0,.75,0v-.88h.55v.87h.42v-.87h.55v.88c.38.04.67.12.87.24.24.15.38.37.4.67.04.43-.1.73-.46.91h0c.27.06.47.18.6.35h0Zm-2.37-.48h.09c.31,0,.55-.01.73-.05.3-.07.45-.24.45-.48s-.15-.41-.44-.49c-.16-.04-.4-.06-.72-.05-.05,0-.09.01-.1.01v1.07h0Zm.1,1.73c.38,0,.67-.01.86-.06.35-.09.52-.27.52-.53s-.17-.44-.51-.53c-.18-.05-.47-.07-.85-.06h-.12v1.18h.1Z"/>
  </g>
  <g>
    <g>
      <path class="cls-8" d="m187.36,159.55c.43.53.95,1.01,1.56,1.4,3.08,1.99,7.18,1.1,9.17-1.98,1.06-1.64,1.3-3.58.83-5.33-.16,1.1-.55,2.18-1.19,3.16-2.25,3.49-6.76,4.63-10.37,2.74Z"/>
      <path class="cls-4" d="m186.95,151.78c-1.6,2.47-1.34,5.61.42,7.77,3.6,1.89,8.12.75,10.37-2.74.64-.99,1.03-2.07,1.19-3.16-.41-1.53-1.37-2.92-2.81-3.85-3.08-1.99-7.19-1.1-9.17,1.98Z"/>
    </g>
    <path class="cls-1" d="m194.54,155.45c.15.18.21.44.18.77-.04.39-.21.68-.49.86-.24.15-.61.24-1.1.27v.76h-.55v-.75h-.42v.75h-.55v-.76h-1.08l.11-.65h.11c.18,0,.29,0,.35-.01.07-.02.12-.08.13-.17v-2.42c-.02-.12-.08-.19-.19-.22-.07-.02-.21-.03-.43-.02h-.09v-.58h.33c.4.01.64,0,.75,0v-.88h.55v.87h.42v-.87h.55v.88c.38.04.67.12.87.24.24.15.38.37.4.67.04.43-.11.73-.46.91h0c.27.06.47.18.6.35h0Zm-2.37-.48h.09c.31,0,.55,0,.73-.05.29-.07.45-.23.45-.48s-.15-.41-.44-.49c-.16-.04-.4-.06-.72-.05-.05,0-.09.01-.1.01v1.07h0Zm.1,1.73c.38,0,.66-.01.86-.06.35-.09.52-.27.52-.53s-.17-.45-.51-.53c-.18-.05-.47-.07-.85-.05h-.12v1.18h.1Z"/>
  </g>
  <g>
    <g>
      <path class="cls-8" d="m184.44,127.35c.43.53.95,1.01,1.56,1.4,3.08,1.99,7.18,1.1,9.17-1.98,1.06-1.64,1.3-3.58.83-5.33-.16,1.1-.55,2.18-1.19,3.16-2.25,3.49-6.76,4.63-10.37,2.74Z"/>
      <path class="cls-4" d="m184.02,119.57c-1.6,2.47-1.34,5.61.42,7.77,3.61,1.89,8.12.75,10.37-2.74.64-.99,1.03-2.07,1.19-3.16-.41-1.53-1.37-2.92-2.81-3.85-3.07-1.99-7.18-1.1-9.17,1.98Z"/>
    </g>
    <path class="cls-1" d="m191.61,123.24c.15.18.21.44.18.77-.04.39-.21.68-.49.86-.25.15-.61.24-1.1.27v.76h-.55v-.75h-.42v.75h-.55v-.76h-1.08l.11-.65h.11c.18,0,.29,0,.34-.01.07-.02.12-.08.13-.17v-2.42c-.02-.12-.09-.19-.19-.22-.07-.02-.21-.03-.42-.02h-.09v-.58h.33c.4.01.64,0,.74,0v-.88h.55v.87h.42v-.87h.55v.88c.38.04.67.12.87.24.24.15.38.37.4.67.05.43-.11.73-.46.91h0c.27.06.47.18.6.35h0Zm-2.37-.48h.09c.31,0,.55,0,.72-.05.3-.07.45-.23.45-.48s-.15-.41-.44-.49c-.16-.04-.4-.06-.72-.06-.05,0-.09.01-.1.01v1.07h0Zm.1,1.73c.38,0,.66-.01.86-.06.35-.09.52-.27.52-.53s-.17-.44-.51-.53c-.18-.05-.47-.07-.85-.06h-.12v1.18h.1Z"/>
  </g>
  <path class="cls-1" d="m143.63,156.6c-.26,0-.51-.12-.66-.35-.25-.37-.15-.86.22-1.11l2.65-1.79c.37-.25.86-.15,1.11.22.25.37.15.86-.22,1.11l-2.65,1.79c-.14.09-.29.14-.45.14Zm7.3-4.92c-.26,0-.51-.12-.66-.35-.25-.37-.15-.86.22-1.11l2.65-1.79c.37-.25.86-.15,1.11.22.25.37.15.86-.22,1.11l-2.65,1.79c-.14.09-.29.14-.45.14Zm7.3-4.92c-.26,0-.51-.12-.66-.35-.25-.37-.15-.86.22-1.11l2.65-1.79c.37-.25.86-.15,1.11.22.25.37.15.86-.22,1.11l-2.65,1.79c-.14.09-.29.14-.45.14Zm7.3-4.92c-.26,0-.51-.12-.66-.35-.25-.37-.15-.86.22-1.11l2.65-1.79c.37-.25.86-.15,1.11.22.25.37.15.86-.22,1.11l-2.65,1.79c-.14.09-.29.14-.45.14Zm7.3-4.92c-.26,0-.51-.12-.66-.35-.25-.37-.15-.86.22-1.11l2.65-1.79c.37-.25.86-.15,1.11.22.25.37.15.86-.22,1.11l-2.65,1.79c-.14.09-.29.14-.45.14Zm7.3-4.92c-.26,0-.51-.12-.66-.35-.25-.37-.15-.86.22-1.11l2.65-1.79c.37-.25.86-.15,1.11.22.25.37.15.86-.22,1.11l-2.65,1.79c-.14.09-.29.14-.45.14Z"/>
  <path class="cls-1" d="m183.8,100.96s-.03,0-.05,0l-3.19-.2c-.44-.03-.78-.41-.75-.85.03-.44.41-.77.85-.75l3.19.2c.44.03.78.41.75.85-.03.42-.38.75-.8.75Zm-8.78-.54s-.03,0-.05,0l-3.19-.2c-.44-.03-.78-.41-.75-.85.03-.44.41-.78.85-.75l3.19.2c.44.03.78.41.75.85-.03.42-.38.75-.8.75Zm-8.78-.54s-.03,0-.05,0l-3.19-.19c-.44-.03-.78-.41-.75-.85.03-.44.41-.78.85-.75l3.19.19c.44.03.78.41.75.85-.03.42-.38.75-.8.75Zm-8.78-.54s-.03,0-.05,0l-3.19-.2c-.44-.03-.78-.41-.75-.85.03-.44.41-.78.85-.75l3.19.2c.44.03.78.41.75.85-.03.42-.38.75-.8.75Zm-8.78-.54s-.03,0-.05,0l-3.19-.2c-.44-.03-.78-.41-.75-.85.03-.44.41-.78.85-.75l3.19.2c.44.03.78.41.75.85-.03.42-.38.75-.8.75Zm-8.78-.54s-.03,0-.05,0l-3.19-.2c-.44-.03-.78-.41-.75-.85.03-.44.41-.78.85-.75l3.19.2c.44.03.78.41.75.85-.03.42-.38.75-.8.75Zm-8.78-.54s-.03,0-.05,0l-3.19-.2c-.44-.03-.78-.41-.75-.85.03-.44.41-.78.85-.75l3.19.2c.44.03.78.41.75.85-.03.42-.38.75-.8.75Zm-8.78-.54s-.03,0-.05,0l-3.19-.2c-.44-.03-.78-.41-.75-.85.03-.44.4-.77.85-.75l3.19.2c.44.03.78.41.75.85-.03.42-.38.75-.8.75Zm-8.78-.54s-.03,0-.05,0l-3.19-.2c-.44-.03-.78-.41-.75-.85.03-.44.4-.77.85-.75l3.19.2c.44.03.78.41.75.85-.03.42-.38.75-.8.75Z"/>
  <path class="cls-1" d="m139.34,119.76c-.33,0-.64-.2-.75-.53-.15-.42.07-.87.48-1.02l3.01-1.08c.42-.15.87.07,1.02.48.15.42-.07.87-.48,1.02l-3.01,1.08c-.09.03-.18.05-.27.05Zm8.29-2.96c-.33,0-.64-.2-.75-.53-.15-.42.07-.87.48-1.02l3.01-1.08c.41-.15.87.07,1.02.48.15.42-.07.87-.48,1.02l-3.01,1.08c-.09.03-.18.05-.27.05Zm8.29-2.96c-.33,0-.64-.2-.75-.53-.15-.42.07-.87.48-1.02l3.01-1.08c.41-.15.87.07,1.02.48.15.42-.07.87-.48,1.02l-3.01,1.08c-.09.03-.18.05-.27.05Zm8.29-2.96c-.33,0-.64-.2-.75-.53-.15-.42.07-.87.48-1.02l3.01-1.08c.41-.15.87.07,1.02.48.15.42-.07.87-.48,1.02l-3.01,1.08c-.09.03-.18.05-.27.05Zm8.29-2.96c-.33,0-.64-.2-.75-.53-.15-.42.07-.87.48-1.02l3.01-1.08c.42-.15.87.07,1.02.48.15.42-.07.87-.48,1.02l-3.01,1.08c-.09.03-.18.05-.27.05Zm8.29-2.96c-.33,0-.64-.2-.75-.53-.15-.42.07-.87.48-1.02l3.01-1.08c.41-.15.87.07,1.02.48.15.42-.07.87-.48,1.02l-3.01,1.08c-.09.03-.18.05-.27.05Z"/>
  <path class="cls-1" d="m145.94,164.18c-.38,0-.72-.28-.79-.67-.07-.44.22-.85.65-.92l3.16-.53c.44-.08.85.22.92.65.07.44-.22.85-.65.92l-3.16.53s-.09.01-.13.01Zm8.68-1.47c-.38,0-.72-.28-.79-.67-.07-.44.22-.85.65-.92l3.15-.53c.44-.07.85.22.92.65.07.44-.22.85-.65.92l-3.15.53s-.09.01-.13.01Zm8.68-1.47c-.38,0-.72-.28-.79-.67-.07-.44.22-.85.65-.92l3.16-.53c.44-.07.85.22.92.65.07.44-.22.85-.65.92l-3.16.53s-.09.01-.13.01Zm8.68-1.47c-.38,0-.72-.28-.79-.67-.07-.44.22-.85.65-.92l3.16-.53c.44-.08.85.22.92.65.07.44-.22.85-.65.92l-3.16.53s-.09.01-.13.01Zm8.68-1.47c-.38,0-.72-.28-.79-.67-.07-.44.22-.85.65-.92l3.16-.53c.44-.07.85.22.92.65.07.44-.22.85-.65.92l-3.16.53s-.09.01-.13.01Z"/>
  <path class="cls-1" d="m127.99,158.42c-.17,0-.33-.05-.47-.16l-2.58-1.9c-.36-.26-.43-.76-.17-1.12.26-.36.76-.43,1.12-.17l2.58,1.9c.36.26.43.76.17,1.12-.16.21-.4.33-.64.33Zm-7.08-5.22c-.17,0-.33-.05-.47-.16l-2.58-1.9c-.36-.26-.43-.76-.17-1.12.26-.36.76-.43,1.12-.17l2.58,1.9c.36.26.43.76.17,1.12-.16.21-.4.33-.64.33Zm-7.08-5.22c-.17,0-.33-.05-.47-.16l-2.58-1.9c-.36-.26-.43-.76-.17-1.12.26-.36.76-.43,1.12-.17l2.58,1.9c.36.26.43.76.17,1.12-.16.21-.4.33-.64.33Zm-7.08-5.22c-.17,0-.33-.05-.47-.16l-2.58-1.9c-.36-.26-.43-.76-.17-1.12.26-.36.76-.43,1.12-.17l2.58,1.9c.36.26.43.76.17,1.12-.16.21-.4.33-.64.33Zm-7.08-5.22c-.17,0-.33-.05-.47-.16l-2.58-1.9c-.36-.26-.43-.76-.17-1.12.26-.36.76-.43,1.12-.17l2.58,1.9c.36.26.43.76.17,1.12-.16.21-.4.33-.64.33Zm-7.12-5.23c-.15,0-.3-.05-.44-.15l-.07-.05c-.36-.26-.43-.76-.17-1.12.26-.36.76-.43,1.12-.17.36.26.47.79.21,1.15-.16.22-.4.34-.65.34Z"/>
  <path class="cls-1" d="m94.73,116.7c-.08,0-.16-.01-.24-.04-.42-.13-.66-.58-.53-1l.95-3.06c.13-.42.58-.66,1-.53.42.13.66.58.53,1l-.95,3.06c-.11.34-.42.56-.76.56Zm2.6-8.41c-.08,0-.16-.01-.24-.04-.42-.13-.66-.58-.53-1l.86-2.79c.13-.42.58-.66,1-.53.42.13.66.58.53,1l-.86,2.79c-.11.34-.42.56-.76.56Z"/>
  <path class="cls-1" d="m123,117.23c-.2,0-.39-.07-.55-.21l-2.34-2.18c-.32-.3-.34-.81-.04-1.13.3-.32.81-.34,1.13-.04l2.34,2.18c.32.3.34.81.04,1.13-.16.17-.37.25-.59.25Zm-6.44-6c-.2,0-.39-.07-.55-.21l-2.34-2.18c-.32-.3-.34-.81-.04-1.13.3-.32.81-.34,1.13-.04l2.34,2.18c.32.3.34.81.04,1.13-.16.17-.37.25-.59.25Zm-6.44-6c-.2,0-.39-.07-.55-.21l-2.34-2.18c-.32-.3-.34-.81-.04-1.13.3-.32.81-.34,1.13-.04l2.34,2.18c.32.3.34.81.04,1.13-.16.17-.37.25-.59.25Z"/>
  <path class="cls-1" d="m134.2,154.03c-.4,0-.75-.3-.79-.71l-.36-3.18c-.05-.44.27-.83.71-.88.44-.05.84.27.88.71l.36,3.18c.05.44-.27.83-.71.88-.03,0-.06,0-.09,0Zm-.98-8.75c-.4,0-.75-.3-.79-.71l-.36-3.18c-.05-.44.27-.83.71-.88.44-.05.83.27.88.71l.36,3.18c.05.44-.27.83-.71.88-.03,0-.06,0-.09,0Zm-.98-8.74c-.4,0-.75-.3-.79-.71l-.36-3.18c-.05-.44.27-.83.71-.88.44-.05.83.27.88.71l.36,3.18c.05.44-.27.83-.71.88-.03,0-.06,0-.09,0Z"/>
  <path class="cls-1" d="m191.87,145.5c-.4,0-.75-.3-.79-.71l-.36-3.18c-.05-.44.27-.83.71-.88.44-.05.83.27.88.71l.36,3.18c.05.44-.27.83-.71.88-.03,0-.06,0-.09,0Zm-.98-8.75c-.4,0-.75-.3-.79-.71l-.36-3.18c-.05-.44.27-.83.71-.88.44-.05.83.27.88.71l.36,3.18c.05.44-.27.83-.71.88-.03,0-.06,0-.09,0Z"/>
  <path class="cls-1" d="m191.77,114.66s-.09,0-.14-.01c-.44-.07-.73-.49-.65-.92l.54-3.15c.07-.44.49-.73.92-.65.44.07.73.49.65.92l-.54,3.15c-.07.39-.41.67-.79.67Z"/>
  <g>
    <path class="cls-3" d="m160.85,163.82c0-.07,1.32-11.08,1.34-11.15.03,0,.05,0,.07.01.71.19,1.41.38,2.12.58.07.02.14.04.21.06.03,0,.04.02.05.05.03.11.06.22.1.32.11.36.21.71.32,1.07.11.35.21.7.32,1.05.09.3.18.6.27.91,0,0,0,.01,0,.02,0,.01.01.02.03.01.01,0,.03-.02.04-.03.11-.07.23-.15.34-.22.08-.05.05-.04.13-.02.73.2,1.46.4,2.19.59.1.03.08,0,.07.1-.44,3.66-.88,7.33-1.32,10.99,0,.03,0,.05-.01.08-.03,0-.05,0-.07-.01-.64-.18-1.29-.35-1.93-.53-.13-.03-.25-.07-.38-.1-.04,0-.05-.03-.06-.06-.05-.17-.1-.33-.15-.5-.11-.35-.21-.71-.32-1.06-.11-.38-.23-.75-.34-1.13-.06-.21-.13-.43-.19-.64,0-.01-.01-.03-.02-.04,0,0-.01,0-.02,0,0,0,0,0-.01,0-.06.04-.12.07-.17.11-.08.05-.16.1-.23.15-.02.02-.04.02-.07,0-.03,0-.06-.02-.08-.02-.71-.19-1.43-.39-2.14-.58-.03,0-.05-.01-.08-.02Zm3.92,2.37s.01,0,.02,0c0-.02,0-.05.01-.07.02-.2.05-.39.07-.59.33-2.76.66-5.51.99-8.27,0-.02,0-.03,0-.05,0-.01-.01-.02-.02-.01,0,0-.01,0-.02.01-.18.11-.36.23-.53.34-.07.04-.14.09-.2.13-.17.11-.34.22-.51.32-.1.06-.19.12-.29.18-.14.09-.28.18-.41.26-.02.01-.03.02-.05.03,0,0-.01,0-.02,0,0-.02-.01-.03-.02-.05-.08-.25-.15-.51-.23-.76-.1-.33-.2-.66-.29-.98-.13-.43-.26-.85-.39-1.28-.12-.39-.24-.79-.35-1.18,0-.02-.02-.05-.02-.07-.01.02-.02.05-.02.07-.09.79-.19,1.58-.28,2.37-.26,2.16-.52,4.32-.78,6.47,0,.02,0,.04,0,.07,0,.01.01.02.03.01.01,0,.03-.02.04-.02.13-.09.27-.17.4-.26.16-.1.32-.2.48-.3.07-.04.13-.08.2-.13.16-.1.32-.2.48-.3.11-.07.21-.13.32-.2.04-.02.07-.05.12-.07.11.36.22.72.33,1.08.11.36.22.72.33,1.08.11.36.22.72.33,1.08.11.36.22.72.33,1.08Zm.38,1.02s.04.02.07.03c.13.04.25.07.38.1.35.1.7.19,1.05.29.02,0,.04.02.06,0,0-.02,0-.04,0-.06.07-.56.13-1.12.2-1.68.14-1.18.28-2.36.42-3.54.19-1.61.39-3.21.58-4.82,0-.01,0-.03,0-.04,0-.03,0-.03-.03-.04,0,0-.02,0-.03,0-.19-.05-.37-.1-.56-.15-.28-.08-.57-.15-.85-.23-.03,0-.06-.02-.09-.02-.01.01-.01.03-.01.04-.06.39-1.21,10.06-1.21,10.14Zm-2.4-13.89s0,.03,0,.04c.12.38.23.76.35,1.14.11.35.21.7.32,1.05.11.36.22.72.32,1.07.1.35.21.69.31,1.04,0,.02.01.04.02.05,0,.01.01.01.02,0,0,0,.02,0,.03-.01.19-.12.38-.24.57-.36.16-.1.31-.2.47-.3.01,0,.02-.02.04-.02.02-.01.02-.02.02-.04-.02-.08-.05-.15-.07-.23-.1-.33-.2-.66-.3-1-.11-.35-.21-.71-.32-1.06-.1-.32-.19-.64-.29-.95,0-.02-.02-.04-.04-.04-.09-.02-.17-.05-.26-.07-.38-.1-.75-.21-1.13-.31-.02,0-.04-.02-.06-.01Zm-1.04,10.23s.04.02.06.03c.13.04.27.07.4.11.29.08.57.16.86.24.08.02.07.02.14-.02.08-.05.16-.1.24-.15.02-.02.05-.03.07-.05.02-.01.02-.02.02-.04-.01-.03-.02-.07-.03-.1-.09-.3-.18-.6-.27-.9,0,0,0-.02-.01-.03,0,0-.01-.01-.02,0,0,0-.01,0-.02.01-.13.08-.26.17-.4.25-.3.19-.59.38-.89.57-.05.03-.1.06-.15.1Z"/>
    <path class="cls-13" d="m164.76,166.19c-.11-.36-.22-.72-.33-1.08-.11-.36-.22-.72-.33-1.08-.11-.36-.22-.72-.33-1.08-.11-.36-.22-.72-.33-1.08-.04.03-.08.05-.12.07-.11.07-.21.13-.32.2-.16.1-.32.2-.48.3-.07.04-.13.08-.2.13-.16.1-.32.2-.48.3-.13.08-.27.17-.4.26-.01,0-.02.02-.04.02-.01,0-.03,0-.03-.01,0-.02,0-.04,0-.07.26-2.16.52-4.32.78-6.47.09-.79.19-1.58.28-2.37,0-.02,0-.05.02-.07,0,.02.02.05.02.07.12.39.24.79.35,1.18.13.43.26.85.39,1.28.1.33.2.66.29.98.08.25.15.51.23.76,0,.02.01.03.02.05,0,0,.01.01.02,0,.02,0,.03-.02.05-.03.14-.09.28-.18.41-.26.1-.06.19-.12.29-.18.17-.11.34-.22.51-.32.07-.04.14-.09.2-.13.18-.11.36-.23.53-.34,0,0,.01,0,.02-.01,0,0,.02,0,.02.01,0,.02,0,.03,0,.05-.33,2.76-.66,5.51-.99,8.27-.02.2-.05.39-.07.59,0,.02,0,.05-.01.07,0,0-.01,0-.02,0Z"/>
    <path class="cls-6" d="m165.14,167.21c0-.08,1.15-9.75,1.21-10.14,0-.01,0-.03.01-.04.03,0,.06.01.09.02.28.08.57.15.85.23.19.05.37.1.56.15,0,0,.02,0,.03,0,.03,0,.03.01.03.04,0,.01,0,.03,0,.04-.19,1.61-.39,3.21-.58,4.82-.14,1.18-.28,2.36-.42,3.54-.07.56-.13,1.12-.2,1.68,0,.02,0,.04,0,.06-.02.01-.04,0-.06,0-.35-.1-.7-.19-1.05-.29-.13-.03-.25-.07-.38-.1-.02,0-.05,0-.07-.03Z"/>
    <path class="cls-6" d="m162.75,153.32s.04,0,.06.01c.38.1.75.21,1.13.31.08.02.17.05.26.07.02,0,.04.02.04.04.09.32.19.64.29.95.11.35.21.71.32,1.06.1.33.2.66.3,1,.02.08.05.15.07.23,0,.02,0,.03-.02.04-.01,0-.03.02-.04.02-.16.1-.31.2-.47.3-.19.12-.38.24-.57.36,0,0-.02,0-.03.01,0,0-.02,0-.02,0,0-.02-.02-.04-.02-.05-.1-.35-.21-.69-.31-1.04-.11-.36-.22-.72-.32-1.07-.11-.35-.21-.7-.32-1.05-.11-.38-.23-.76-.35-1.14,0-.01-.01-.03,0-.04Z"/>
    <path class="cls-6" d="m161.7,163.54c.05-.03.1-.07.15-.1.3-.19.59-.38.89-.57.13-.08.26-.17.4-.25,0,0,.01,0,.02-.01.01,0,.02,0,.02,0,0,0,0,.02.01.03.09.3.18.6.27.9,0,.03.02.07.03.1,0,.02,0,.03-.02.04-.02.02-.05.03-.07.05-.08.05-.16.1-.24.15-.07.04-.05.04-.14.02-.29-.08-.57-.16-.86-.24-.13-.04-.27-.07-.4-.11-.02,0-.04,0-.06-.03Z"/>
  </g>
  <g>
    <path class="cls-3" d="m142.93,101.05c0-.07,1.32-11.08,1.34-11.15.03,0,.05,0,.07.01.71.19,1.41.38,2.12.58.07.02.14.04.21.06.03,0,.04.02.05.05.03.11.06.22.1.32.11.36.21.71.32,1.07.11.35.21.7.32,1.05.09.3.18.6.27.91,0,0,0,.01,0,.02,0,.01.01.02.03.01.01,0,.03-.02.04-.03.11-.07.23-.15.34-.22.08-.05.05-.04.13-.02.73.2,1.46.4,2.19.59.1.03.08,0,.07.1-.44,3.66-.88,7.33-1.32,10.99,0,.03,0,.05-.01.08-.03,0-.05,0-.07-.01-.64-.18-1.29-.35-1.93-.53-.13-.03-.25-.07-.38-.1-.04,0-.05-.03-.06-.06-.05-.17-.1-.33-.15-.5-.11-.35-.21-.71-.32-1.06-.11-.38-.23-.75-.34-1.13-.06-.21-.13-.43-.19-.64,0-.01-.01-.03-.02-.04,0,0-.01,0-.02,0,0,0,0,0-.01,0-.06.04-.12.07-.17.11-.08.05-.16.1-.23.15-.02.02-.04.02-.07,0-.03,0-.06-.02-.08-.02-.71-.19-1.43-.39-2.14-.58-.03,0-.05-.01-.08-.02Zm3.92,2.37s.01,0,.02,0c0-.02,0-.05.01-.07.02-.2.05-.39.07-.59.33-2.76.66-5.51.99-8.27,0-.02,0-.03,0-.05,0-.01-.01-.02-.02-.01,0,0-.01,0-.02.01-.18.11-.36.23-.53.34-.07.04-.14.09-.2.13-.17.11-.34.22-.51.32-.1.06-.19.12-.29.18-.14.09-.28.18-.41.26-.02.01-.03.02-.05.03,0,0-.01,0-.02,0,0-.02-.01-.03-.02-.05-.08-.25-.15-.51-.23-.76-.1-.33-.2-.66-.29-.98-.13-.43-.26-.85-.39-1.28-.12-.39-.24-.79-.35-1.18,0-.02-.02-.05-.02-.07-.01.02-.02.05-.02.07-.09.79-.19,1.58-.28,2.37-.26,2.16-.52,4.32-.78,6.47,0,.02,0,.04,0,.07,0,.01.01.02.03.01.01,0,.03-.02.04-.02.13-.09.27-.17.4-.26.16-.1.32-.2.48-.3.07-.04.13-.08.2-.13.16-.1.32-.2.48-.3.11-.07.21-.13.32-.2.04-.02.07-.05.12-.07.11.36.22.72.33,1.08.11.36.22.72.33,1.08.11.36.22.72.33,1.08.11.36.22.72.33,1.08Zm.38,1.02s.04.02.07.03c.13.04.25.07.38.1.35.1.7.19,1.05.29.02,0,.04.02.06,0,0-.02,0-.04,0-.06.07-.56.13-1.12.2-1.68.14-1.18.28-2.36.42-3.54.19-1.61.39-3.21.58-4.82,0-.01,0-.03,0-.04,0-.03,0-.03-.03-.04,0,0-.02,0-.03,0-.19-.05-.37-.1-.56-.15-.28-.08-.57-.15-.85-.23-.03,0-.06-.02-.09-.02-.01.01-.01.03-.01.04-.06.39-1.21,10.06-1.21,10.14Zm-2.4-13.89s0,.03,0,.04c.12.38.23.76.35,1.14.11.35.21.7.32,1.05.11.36.22.72.32,1.07.1.35.21.69.31,1.04,0,.02.01.04.02.05,0,.01.01.01.02,0,0,0,.02,0,.03-.01.19-.12.38-.24.57-.36.16-.1.31-.2.47-.3.01,0,.02-.02.04-.02.02-.01.02-.02.02-.04-.02-.08-.05-.15-.07-.23-.1-.33-.2-.66-.3-1-.11-.35-.21-.71-.32-1.06-.1-.32-.19-.64-.29-.95,0-.02-.02-.04-.04-.04-.09-.02-.17-.05-.26-.07-.38-.1-.75-.21-1.13-.31-.02,0-.04-.02-.06-.01Zm-1.04,10.23s.04.02.06.03c.13.04.27.07.4.11.29.08.57.16.86.24.08.02.07.02.14-.02.08-.05.16-.1.24-.15.02-.02.05-.03.07-.05.02-.01.02-.02.02-.04-.01-.03-.02-.07-.03-.1-.09-.3-.18-.6-.27-.9,0,0,0-.02-.01-.03,0,0-.01-.01-.02,0,0,0-.01,0-.02.01-.13.08-.26.17-.4.25-.3.19-.59.38-.89.57-.05.03-.1.06-.15.1Z"/>
    <path class="cls-13" d="m146.85,103.43c-.11-.36-.22-.72-.33-1.08-.11-.36-.22-.72-.33-1.08-.11-.36-.22-.72-.33-1.08-.11-.36-.22-.72-.33-1.08-.04.03-.08.05-.12.07-.11.07-.21.13-.32.2-.16.1-.32.2-.48.3-.07.04-.13.08-.2.13-.16.1-.32.2-.48.3-.13.08-.27.17-.4.26-.01,0-.02.02-.04.02-.01,0-.03,0-.03-.01,0-.02,0-.04,0-.07.26-2.16.52-4.32.78-6.47.09-.79.19-1.58.28-2.37,0-.02,0-.05.02-.07,0,.02.02.05.02.07.12.39.24.79.35,1.18.13.43.26.85.39,1.28.1.33.2.66.29.98.08.25.15.51.23.76,0,.02.01.03.02.05,0,0,.01.01.02,0,.02,0,.03-.02.05-.03.14-.09.28-.18.41-.26.1-.06.19-.12.29-.18.17-.11.34-.22.51-.32.07-.04.14-.09.2-.13.18-.11.36-.23.53-.34,0,0,.01,0,.02-.01,0,0,.02,0,.02.01,0,.02,0,.03,0,.05-.33,2.76-.66,5.51-.99,8.27-.02.2-.05.39-.07.59,0,.02,0,.05-.01.07,0,0-.01,0-.02,0Z"/>
    <path class="cls-6" d="m147.23,104.44c0-.08,1.15-9.75,1.21-10.14,0-.01,0-.03.01-.04.03,0,.06.01.09.02.28.08.57.15.85.23.19.05.37.1.56.15,0,0,.02,0,.03,0,.03,0,.03.01.03.04,0,.01,0,.03,0,.04-.19,1.61-.39,3.21-.58,4.82-.14,1.18-.28,2.36-.42,3.54-.07.56-.13,1.12-.2,1.68,0,.02,0,.04,0,.06-.02.01-.04,0-.06,0-.35-.1-.7-.19-1.05-.29-.13-.03-.25-.07-.38-.1-.02,0-.05,0-.07-.03Z"/>
    <path class="cls-6" d="m144.83,90.55s.04,0,.06.01c.38.1.75.21,1.13.31.08.02.17.05.26.07.02,0,.04.02.04.04.09.32.19.64.29.95.11.35.21.71.32,1.06.1.33.2.66.3,1,.02.08.05.15.07.23,0,.02,0,.03-.02.04-.01,0-.03.02-.04.02-.16.1-.31.2-.47.3-.19.12-.38.24-.57.36,0,0-.02,0-.03.01,0,0-.02,0-.02,0,0-.02-.02-.04-.02-.05-.1-.35-.21-.69-.31-1.04-.11-.36-.22-.72-.32-1.07-.11-.35-.21-.7-.32-1.05-.11-.38-.23-.76-.35-1.14,0-.01-.01-.03,0-.04Z"/>
    <path class="cls-6" d="m143.79,100.78c.05-.03.1-.07.15-.1.3-.19.59-.38.89-.57.13-.08.26-.17.4-.25,0,0,.01,0,.02-.01.01,0,.02,0,.02,0,0,0,0,.02.01.03.09.3.18.6.27.9,0,.03.02.07.03.1,0,.02,0,.03-.02.04-.02.02-.05.03-.07.05-.08.05-.16.1-.24.15-.07.04-.05.04-.14.02-.29-.08-.57-.16-.86-.24-.13-.04-.27-.07-.4-.11-.02,0-.04,0-.06-.03Z"/>
  </g>
  <g>
    <path class="cls-3" d="m154.1,114.98c0-.07,1.32-11.08,1.34-11.15.03,0,.05,0,.07.01.71.19,1.41.38,2.12.58.07.02.14.04.21.06.03,0,.04.02.05.05.03.11.06.22.1.32.11.36.21.71.32,1.07.11.35.21.7.32,1.05.09.3.18.6.27.91,0,0,0,.01,0,.02,0,.01.01.02.03.01.01,0,.03-.02.04-.03.11-.07.23-.15.34-.22.08-.05.05-.04.13-.02.73.2,1.46.4,2.19.59.1.03.08,0,.07.1-.44,3.66-.88,7.33-1.32,10.99,0,.03,0,.05-.01.08-.03,0-.05,0-.07-.01-.64-.18-1.29-.35-1.93-.53-.13-.03-.25-.07-.38-.1-.04,0-.05-.03-.06-.06-.05-.17-.1-.33-.15-.5-.11-.35-.21-.71-.32-1.06-.11-.38-.23-.75-.34-1.13-.06-.21-.13-.43-.19-.64,0-.01-.01-.03-.02-.04,0,0-.01,0-.02,0,0,0,0,0-.01,0-.06.04-.12.07-.17.11-.08.05-.16.1-.23.15-.02.02-.04.02-.07,0-.03,0-.06-.02-.08-.02-.71-.19-1.43-.39-2.14-.58-.03,0-.05-.01-.08-.02Zm3.92,2.37s.01,0,.02,0c0-.02,0-.05.01-.07.02-.2.05-.39.07-.59.33-2.76.66-5.51.99-8.27,0-.02,0-.03,0-.05,0-.01-.01-.02-.02-.01,0,0-.01,0-.02.01-.18.11-.36.23-.53.34-.07.04-.14.09-.2.13-.17.11-.34.22-.51.32-.1.06-.19.12-.29.18-.14.09-.28.18-.41.26-.02.01-.03.02-.05.03,0,0-.01,0-.02,0,0-.02-.01-.03-.02-.05-.08-.25-.15-.51-.23-.76-.1-.33-.2-.66-.29-.98-.13-.43-.26-.85-.39-1.28-.12-.39-.24-.79-.35-1.18,0-.02-.02-.05-.02-.07-.01.02-.02.05-.02.07-.09.79-.19,1.58-.28,2.37-.26,2.16-.52,4.32-.78,6.47,0,.02,0,.04,0,.07,0,.01.01.02.03.01.01,0,.03-.02.04-.02.13-.09.27-.17.4-.26.16-.1.32-.2.48-.3.07-.04.13-.08.2-.13.16-.1.32-.2.48-.3.11-.07.21-.13.32-.2.04-.02.07-.05.12-.07.11.36.22.72.33,1.08.11.36.22.72.33,1.08.11.36.22.72.33,1.08.11.36.22.72.33,1.08Zm.38,1.02s.04.02.07.03c.13.04.25.07.38.1.35.1.7.19,1.05.29.02,0,.04.02.06,0,0-.02,0-.04,0-.06.07-.56.13-1.12.2-1.68.14-1.18.28-2.36.42-3.54.19-1.61.39-3.21.58-4.82,0-.01,0-.03,0-.04,0-.03,0-.03-.03-.04,0,0-.02,0-.03,0-.19-.05-.37-.1-.56-.15-.28-.08-.57-.15-.85-.23-.03,0-.06-.02-.09-.02-.01.01-.01.03-.01.04-.06.39-1.21,10.06-1.21,10.14Zm-2.4-13.89s0,.03,0,.04c.12.38.23.76.35,1.14.11.35.21.7.32,1.05.11.36.22.72.32,1.07.1.35.21.69.31,1.04,0,.02.01.04.02.05,0,.01.01.01.02,0,0,0,.02,0,.03-.01.19-.12.38-.24.57-.36.16-.1.31-.2.47-.3.01,0,.02-.02.04-.02.02-.01.02-.02.02-.04-.02-.08-.05-.15-.07-.23-.1-.33-.2-.66-.3-1-.11-.35-.21-.71-.32-1.06-.1-.32-.19-.64-.29-.95,0-.02-.02-.04-.04-.04-.09-.02-.17-.05-.26-.07-.38-.1-.75-.21-1.13-.31-.02,0-.04-.02-.06-.01Zm-1.04,10.23s.04.02.06.03c.13.04.27.07.4.11.29.08.57.16.86.24.08.02.07.02.14-.02.08-.05.16-.1.24-.15.02-.02.05-.03.07-.05.02-.01.02-.02.02-.04-.01-.03-.02-.07-.03-.1-.09-.3-.18-.6-.27-.9,0,0,0-.02-.01-.03,0,0-.01-.01-.02,0,0,0-.01,0-.02.01-.13.08-.26.17-.4.25-.3.19-.59.38-.89.57-.05.03-.1.06-.15.1Z"/>
    <path class="cls-13" d="m158.01,117.35c-.11-.36-.22-.72-.33-1.08-.11-.36-.22-.72-.33-1.08-.11-.36-.22-.72-.33-1.08-.11-.36-.22-.72-.33-1.08-.04.03-.08.05-.12.07-.11.07-.21.13-.32.2-.16.1-.32.2-.48.3-.07.04-.13.08-.2.13-.16.1-.32.2-.48.3-.13.08-.27.17-.4.26-.01,0-.02.02-.04.02-.01,0-.03,0-.03-.01,0-.02,0-.04,0-.07.26-2.16.52-4.32.78-6.47.09-.79.19-1.58.28-2.37,0-.02,0-.05.02-.07,0,.02.02.05.02.07.12.39.24.79.35,1.18.13.43.26.85.39,1.28.1.33.2.66.29.98.08.25.15.51.23.76,0,.02.01.03.02.05,0,0,.01.01.02,0,.02,0,.03-.02.05-.03.14-.09.28-.18.41-.26.1-.06.19-.12.29-.18.17-.11.34-.22.51-.32.07-.04.14-.09.2-.13.18-.11.36-.23.53-.34,0,0,.01,0,.02-.01,0,0,.02,0,.02.01,0,.02,0,.03,0,.05-.33,2.76-.66,5.51-.99,8.27-.02.2-.05.39-.07.59,0,.02,0,.05-.01.07,0,0-.01,0-.02,0Z"/>
    <path class="cls-6" d="m158.4,118.37c0-.08,1.15-9.75,1.21-10.14,0-.01,0-.03.01-.04.03,0,.06.01.09.02.28.08.57.15.85.23.19.05.37.1.56.15,0,0,.02,0,.03,0,.03,0,.03.01.03.04,0,.01,0,.03,0,.04-.19,1.61-.39,3.21-.58,4.82-.14,1.18-.28,2.36-.42,3.54-.07.56-.13,1.12-.2,1.68,0,.02,0,.04,0,.06-.02.01-.04,0-.06,0-.35-.1-.7-.19-1.05-.29-.13-.03-.25-.07-.38-.1-.02,0-.05,0-.07-.03Z"/>
    <path class="cls-6" d="m156,104.48s.04,0,.06.01c.38.1.75.21,1.13.31.08.02.17.05.26.07.02,0,.04.02.04.04.09.32.19.64.29.95.11.35.21.71.32,1.06.1.33.2.66.3,1,.02.08.05.15.07.23,0,.02,0,.03-.02.04-.01,0-.03.02-.04.02-.16.1-.31.2-.47.3-.19.12-.38.24-.57.36,0,0-.02,0-.03.01,0,0-.02,0-.02,0,0-.02-.02-.04-.02-.05-.1-.35-.21-.69-.31-1.04-.11-.36-.22-.72-.32-1.07-.11-.35-.21-.7-.32-1.05-.11-.38-.23-.76-.35-1.14,0-.01-.01-.03,0-.04Z"/>
    <path class="cls-6" d="m154.96,114.7c.05-.03.1-.07.15-.1.3-.19.59-.38.89-.57.13-.08.26-.17.4-.25,0,0,.01,0,.02-.01.01,0,.02,0,.02,0,0,0,0,.02.01.03.09.3.18.6.27.9,0,.03.02.07.03.1,0,.02,0,.03-.02.04-.02.02-.05.03-.07.05-.08.05-.16.1-.24.15-.07.04-.05.04-.14.02-.29-.08-.57-.16-.86-.24-.13-.04-.27-.07-.4-.11-.02,0-.04,0-.06-.03Z"/>
  </g>
  <g>
    <path class="cls-3" d="m129.59,144.56c0-.07,1.32-11.08,1.34-11.15.03,0,.05,0,.07.01.71.19,1.41.38,2.12.58.07.02.14.04.21.06.03,0,.04.02.05.05.03.11.06.22.1.32.11.36.21.71.32,1.07.11.35.21.7.32,1.05.09.3.18.6.27.91,0,0,0,.01,0,.02,0,.01.01.02.03.01.01,0,.03-.02.04-.03.11-.07.23-.15.34-.22.08-.05.05-.04.13-.02.73.2,1.46.4,2.19.59.1.03.08,0,.07.1-.44,3.66-.88,7.33-1.32,10.99,0,.03,0,.05-.01.08-.03,0-.05,0-.07-.01-.64-.18-1.29-.35-1.93-.53-.13-.03-.25-.07-.38-.1-.04,0-.05-.03-.06-.06-.05-.17-.1-.33-.15-.5-.11-.35-.21-.71-.32-1.06-.11-.38-.23-.75-.34-1.13-.06-.21-.13-.43-.19-.64,0-.01-.01-.03-.02-.04,0,0-.01,0-.02,0,0,0,0,0-.01,0-.06.04-.12.07-.17.11-.08.05-.16.1-.23.15-.02.02-.04.02-.07,0-.03,0-.06-.02-.08-.02-.71-.19-1.43-.39-2.14-.58-.03,0-.05-.01-.08-.02Zm3.92,2.37s.01,0,.02,0c0-.02,0-.05.01-.07.02-.2.05-.39.07-.59.33-2.76.66-5.51.99-8.27,0-.02,0-.03,0-.05,0-.01-.01-.02-.02-.01,0,0-.01,0-.02.01-.18.11-.36.23-.53.34-.07.04-.14.09-.2.13-.17.11-.34.22-.51.32-.1.06-.19.12-.29.18-.14.09-.28.18-.41.26-.02.01-.03.02-.05.03,0,0-.01,0-.02,0,0-.02-.01-.03-.02-.05-.08-.25-.15-.51-.23-.76-.1-.33-.2-.66-.29-.98-.13-.43-.26-.85-.39-1.28-.12-.39-.24-.79-.35-1.18,0-.02-.02-.05-.02-.07-.01.02-.02.05-.02.07-.09.79-.19,1.58-.28,2.37-.26,2.16-.52,4.32-.78,6.47,0,.02,0,.04,0,.07,0,.01.01.02.03.01.01,0,.03-.02.04-.02.13-.09.27-.17.4-.26.16-.1.32-.2.48-.3.07-.04.13-.08.2-.13.16-.1.32-.2.48-.3.11-.07.21-.13.32-.2.04-.02.07-.05.12-.07.11.36.22.72.33,1.08.11.36.22.72.33,1.08.11.36.22.72.33,1.08.11.36.22.72.33,1.08Zm.38,1.02s.04.02.07.03c.13.04.25.07.38.1.35.1.7.19,1.05.29.02,0,.04.02.06,0,0-.02,0-.04,0-.06.07-.56.13-1.12.2-1.68.14-1.18.28-2.36.42-3.54.19-1.61.39-3.21.58-4.82,0-.01,0-.03,0-.04,0-.03,0-.03-.03-.04,0,0-.02,0-.03,0-.19-.05-.37-.1-.56-.15-.28-.08-.57-.15-.85-.23-.03,0-.06-.02-.09-.02-.01.01-.01.03-.01.04-.06.39-1.21,10.06-1.21,10.14Zm-2.4-13.89s0,.03,0,.04c.12.38.23.76.35,1.14.11.35.21.7.32,1.05.11.36.22.72.32,1.07.1.35.21.69.31,1.04,0,.02.01.04.02.05,0,.01.01.01.02,0,0,0,.02,0,.03-.01.19-.12.38-.24.57-.36.16-.1.31-.2.47-.3.01,0,.02-.02.04-.02.02-.01.02-.02.02-.04-.02-.08-.05-.15-.07-.23-.1-.33-.2-.66-.3-1-.11-.35-.21-.71-.32-1.06-.1-.32-.19-.64-.29-.95,0-.02-.02-.04-.04-.04-.09-.02-.17-.05-.26-.07-.38-.1-.75-.21-1.13-.31-.02,0-.04-.02-.06-.01Zm-1.04,10.23s.04.02.06.03c.13.04.27.07.4.11.29.08.57.16.86.24.08.02.07.02.14-.02.08-.05.16-.1.24-.15.02-.02.05-.03.07-.05.02-.01.02-.02.02-.04-.01-.03-.02-.07-.03-.1-.09-.3-.18-.6-.27-.9,0,0,0-.02-.01-.03,0,0-.01-.01-.02,0,0,0-.01,0-.02.01-.13.08-.26.17-.4.25-.3.19-.59.38-.89.57-.05.03-.1.06-.15.1Z"/>
    <path class="cls-13" d="m133.51,146.94c-.11-.36-.22-.72-.33-1.08-.11-.36-.22-.72-.33-1.08-.11-.36-.22-.72-.33-1.08-.11-.36-.22-.72-.33-1.08-.04.03-.08.05-.12.07-.11.07-.21.13-.32.2-.16.1-.32.2-.48.3-.07.04-.13.08-.2.13-.16.1-.32.2-.48.3-.13.08-.27.17-.4.26-.01,0-.02.02-.04.02-.01,0-.03,0-.03-.01,0-.02,0-.04,0-.07.26-2.16.52-4.32.78-6.47.09-.79.19-1.58.28-2.37,0-.02,0-.05.02-.07,0,.02.02.05.02.07.12.39.24.79.35,1.18.13.43.26.85.39,1.28.1.33.2.66.29.98.08.25.15.51.23.76,0,.02.01.03.02.05,0,0,.01.01.02,0,.02,0,.03-.02.05-.03.14-.09.28-.18.41-.26.1-.06.19-.12.29-.18.17-.11.34-.22.51-.32.07-.04.14-.09.2-.13.18-.11.36-.23.53-.34,0,0,.01,0,.02-.01,0,0,.02,0,.02.01,0,.02,0,.03,0,.05-.33,2.76-.66,5.51-.99,8.27-.02.2-.05.39-.07.59,0,.02,0,.05-.01.07,0,0-.01,0-.02,0Z"/>
    <path class="cls-6" d="m133.89,147.95c0-.08,1.15-9.75,1.21-10.14,0-.01,0-.03.01-.04.03,0,.06.01.09.02.28.08.57.15.85.23.19.05.37.1.56.15,0,0,.02,0,.03,0,.03,0,.03.01.03.04,0,.01,0,.03,0,.04-.19,1.61-.39,3.21-.58,4.82-.14,1.18-.28,2.36-.42,3.54-.07.56-.13,1.12-.2,1.68,0,.02,0,.04,0,.06-.02.01-.04,0-.06,0-.35-.1-.7-.19-1.05-.29-.13-.03-.25-.07-.38-.1-.02,0-.05,0-.07-.03Z"/>
    <path class="cls-6" d="m131.49,134.06s.04,0,.06.01c.38.1.75.21,1.13.31.08.02.17.05.26.07.02,0,.04.02.04.04.09.32.19.64.29.95.11.35.21.71.32,1.06.1.33.2.66.3,1,.02.08.05.15.07.23,0,.02,0,.03-.02.04-.01,0-.03.02-.04.02-.16.1-.31.2-.47.3-.19.12-.38.24-.57.36,0,0-.02,0-.03.01,0,0-.02,0-.02,0,0-.02-.02-.04-.02-.05-.1-.35-.21-.69-.31-1.04-.11-.36-.22-.72-.32-1.07-.11-.35-.21-.7-.32-1.05-.11-.38-.23-.76-.35-1.14,0-.01-.01-.03,0-.04Z"/>
    <path class="cls-6" d="m130.45,144.29c.05-.03.1-.07.15-.1.3-.19.59-.38.89-.57.13-.08.26-.17.4-.25,0,0,.01,0,.02-.01.01,0,.02,0,.02,0,0,0,0,.02.01.03.09.3.18.6.27.9,0,.03.02.07.03.1,0,.02,0,.03-.02.04-.02.02-.05.03-.07.05-.08.05-.16.1-.24.15-.07.04-.05.04-.14.02-.29-.08-.57-.16-.86-.24-.13-.04-.27-.07-.4-.11-.02,0-.04,0-.06-.03Z"/>
  </g>
  <g>
    <path class="cls-3" d="m111.77,112.6c0-.07,1.32-11.08,1.34-11.15.03,0,.05,0,.07.01.71.19,1.41.38,2.12.58.07.02.14.04.21.06.03,0,.04.02.05.05.03.11.06.22.1.32.11.36.21.71.32,1.07.11.35.21.7.32,1.05.09.3.18.6.27.91,0,0,0,.01,0,.02,0,.01.01.02.03.01.01,0,.03-.02.04-.03.11-.07.23-.15.34-.22.08-.05.05-.04.13-.02.73.2,1.46.4,2.19.59.1.03.08,0,.07.1-.44,3.66-.88,7.33-1.32,10.99,0,.03,0,.05-.01.08-.03,0-.05,0-.07-.01-.64-.18-1.29-.35-1.93-.53-.13-.03-.25-.07-.38-.1-.04,0-.05-.03-.06-.06-.05-.17-.1-.33-.15-.5-.11-.35-.21-.71-.32-1.06-.11-.38-.23-.75-.34-1.13-.06-.21-.13-.43-.19-.64,0-.01-.01-.03-.02-.04,0,0-.01,0-.02,0,0,0,0,0-.01,0-.06.04-.12.07-.17.11-.08.05-.16.1-.23.15-.02.02-.04.02-.07,0-.03,0-.06-.02-.08-.02-.71-.19-1.43-.39-2.14-.58-.03,0-.05-.01-.08-.02Zm3.92,2.37s.01,0,.02,0c0-.02,0-.05.01-.07.02-.2.05-.39.07-.59.33-2.76.66-5.51.99-8.27,0-.02,0-.03,0-.05,0-.01-.01-.02-.02-.01,0,0-.01,0-.02.01-.18.11-.36.23-.53.34-.07.04-.14.09-.2.13-.17.11-.34.22-.51.32-.1.06-.19.12-.29.18-.14.09-.28.18-.41.26-.02.01-.03.02-.05.03,0,0-.01,0-.02,0,0-.02-.01-.03-.02-.05-.08-.25-.15-.51-.23-.76-.1-.33-.2-.66-.29-.98-.13-.43-.26-.85-.39-1.28-.12-.39-.24-.79-.35-1.18,0-.02-.02-.05-.02-.07-.01.02-.02.05-.02.07-.09.79-.19,1.58-.28,2.37-.26,2.16-.52,4.32-.78,6.47,0,.02,0,.04,0,.07,0,.01.01.02.03.01.01,0,.03-.02.04-.02.13-.09.27-.17.4-.26.16-.1.32-.2.48-.3.07-.04.13-.08.2-.13.16-.1.32-.2.48-.3.11-.07.21-.13.32-.2.04-.02.07-.05.12-.07.11.36.22.72.33,1.08.11.36.22.72.33,1.08.11.36.22.72.33,1.08.11.36.22.72.33,1.08Zm.38,1.02s.04.02.07.03c.13.04.25.07.38.1.35.1.7.19,1.05.29.02,0,.04.02.06,0,0-.02,0-.04,0-.06.07-.56.13-1.12.2-1.68.14-1.18.28-2.36.42-3.54.19-1.61.39-3.21.58-4.82,0-.01,0-.03,0-.04,0-.03,0-.03-.03-.04,0,0-.02,0-.03,0-.19-.05-.37-.1-.56-.15-.28-.08-.57-.15-.85-.23-.03,0-.06-.02-.09-.02-.01.01-.01.03-.01.04-.06.39-1.21,10.06-1.21,10.14Zm-2.4-13.89s0,.03,0,.04c.12.38.23.76.35,1.14.11.35.21.7.32,1.05.11.36.22.72.32,1.07.1.35.21.69.31,1.04,0,.02.01.04.02.05,0,.01.01.01.02,0,0,0,.02,0,.03-.01.19-.12.38-.24.57-.36.16-.1.31-.2.47-.3.01,0,.02-.02.04-.02.02-.01.02-.02.02-.04-.02-.08-.05-.15-.07-.23-.1-.33-.2-.66-.3-1-.11-.35-.21-.71-.32-1.06-.1-.32-.19-.64-.29-.95,0-.02-.02-.04-.04-.04-.09-.02-.17-.05-.26-.07-.38-.1-.75-.21-1.13-.31-.02,0-.04-.02-.06-.01Zm-1.04,10.23s.04.02.06.03c.13.04.27.07.4.11.29.08.57.16.86.24.08.02.07.02.14-.02.08-.05.16-.1.24-.15.02-.02.05-.03.07-.05.02-.01.02-.02.02-.04-.01-.03-.02-.07-.03-.1-.09-.3-.18-.6-.27-.9,0,0,0-.02-.01-.03,0,0-.01-.01-.02,0,0,0-.01,0-.02.01-.13.08-.26.17-.4.25-.3.19-.59.38-.89.57-.05.03-.1.06-.15.1Z"/>
    <path class="cls-13" d="m115.69,114.97c-.11-.36-.22-.72-.33-1.08-.11-.36-.22-.72-.33-1.08-.11-.36-.22-.72-.33-1.08-.11-.36-.22-.72-.33-1.08-.04.03-.08.05-.12.07-.11.07-.21.13-.32.2-.16.1-.32.2-.48.3-.07.04-.13.08-.2.13-.16.1-.32.2-.48.3-.13.08-.27.17-.4.26-.01,0-.02.02-.04.02-.01,0-.03,0-.03-.01,0-.02,0-.04,0-.07.26-2.16.52-4.32.78-6.47.09-.79.19-1.58.28-2.37,0-.02,0-.05.02-.07,0,.02.02.05.02.07.12.39.24.79.35,1.18.13.43.26.85.39,1.28.1.33.2.66.29.98.08.25.15.51.23.76,0,.02.01.03.02.05,0,0,.01.01.02,0,.02,0,.03-.02.05-.03.14-.09.28-.18.41-.26.1-.06.19-.12.29-.18.17-.11.34-.22.51-.32.07-.04.14-.09.2-.13.18-.11.36-.23.53-.34,0,0,.01,0,.02-.01,0,0,.02,0,.02.01,0,.02,0,.03,0,.05-.33,2.76-.66,5.51-.99,8.27-.02.2-.05.39-.07.59,0,.02,0,.05-.01.07,0,0-.01,0-.02,0Z"/>
    <path class="cls-6" d="m116.07,115.99c0-.08,1.15-9.75,1.21-10.14,0-.01,0-.03.01-.04.03,0,.06.01.09.02.28.08.57.15.85.23.19.05.37.1.56.15,0,0,.02,0,.03,0,.03,0,.03.01.03.04,0,.01,0,.03,0,.04-.19,1.61-.39,3.21-.58,4.82-.14,1.18-.28,2.36-.42,3.54-.07.56-.13,1.12-.2,1.68,0,.02,0,.04,0,.06-.02.01-.04,0-.06,0-.35-.1-.7-.19-1.05-.29-.13-.03-.25-.07-.38-.1-.02,0-.05,0-.07-.03Z"/>
    <path class="cls-6" d="m113.68,102.1s.04,0,.06.01c.38.1.75.21,1.13.31.08.02.17.05.26.07.02,0,.04.02.04.04.09.32.19.64.29.95.11.35.21.71.32,1.06.1.33.2.66.3,1,.02.08.05.15.07.23,0,.02,0,.03-.02.04-.01,0-.03.02-.04.02-.16.1-.31.2-.47.3-.19.12-.38.24-.57.36,0,0-.02,0-.03.01,0,0-.02,0-.02,0,0-.02-.02-.04-.02-.05-.1-.35-.21-.69-.31-1.04-.11-.36-.22-.72-.32-1.07-.11-.35-.21-.7-.32-1.05-.11-.38-.23-.76-.35-1.14,0-.01-.01-.03,0-.04Z"/>
    <path class="cls-6" d="m112.63,112.32c.05-.03.1-.07.15-.1.3-.19.59-.38.89-.57.13-.08.26-.17.4-.25,0,0,.01,0,.02-.01.01,0,.02,0,.02,0,0,0,0,.02.01.03.09.3.18.6.27.9,0,.03.02.07.03.1,0,.02,0,.03-.02.04-.02.02-.05.03-.07.05-.08.05-.16.1-.24.15-.07.04-.05.04-.14.02-.29-.08-.57-.16-.86-.24-.13-.04-.27-.07-.4-.11-.02,0-.04,0-.06-.03Z"/>
  </g>
  <g>
    <path class="cls-3" d="m163.65,142.05c0-.07,1.32-11.08,1.34-11.15.03,0,.05,0,.07.01.71.19,1.41.38,2.12.58.07.02.14.04.21.06.03,0,.04.02.05.05.03.11.06.22.1.32.11.36.21.71.32,1.07.11.35.21.7.32,1.05.09.3.18.6.27.91,0,0,0,.01,0,.02,0,.01.01.02.03.01.01,0,.03-.02.04-.03.11-.07.23-.15.34-.22.08-.05.05-.04.13-.02.73.2,1.46.4,2.19.59.1.03.08,0,.07.1-.44,3.66-.88,7.33-1.32,10.99,0,.03,0,.05-.01.08-.03,0-.05,0-.07-.01-.64-.18-1.29-.35-1.93-.53-.13-.03-.25-.07-.38-.1-.04,0-.05-.03-.06-.06-.05-.17-.1-.33-.15-.5-.11-.35-.21-.71-.32-1.06-.11-.38-.23-.75-.34-1.13-.06-.21-.13-.43-.19-.64,0-.01-.01-.03-.02-.04,0,0-.01,0-.02,0,0,0,0,0-.01,0-.06.04-.12.07-.17.11-.08.05-.16.1-.23.15-.02.02-.04.02-.07,0-.03,0-.06-.02-.08-.02-.71-.19-1.43-.39-2.14-.58-.03,0-.05-.01-.08-.02Zm3.92,2.37s.01,0,.02,0c0-.02,0-.05.01-.07.02-.2.05-.39.07-.59.33-2.76.66-5.51.99-8.27,0-.02,0-.03,0-.05,0-.01-.01-.02-.02-.01,0,0-.01,0-.02.01-.18.11-.36.23-.53.34-.07.04-.14.09-.2.13-.17.11-.34.22-.51.32-.1.06-.19.12-.29.18-.14.09-.28.18-.41.26-.02.01-.03.02-.05.03,0,0-.01,0-.02,0,0-.02-.01-.03-.02-.05-.08-.25-.15-.51-.23-.76-.1-.33-.2-.66-.29-.98-.13-.43-.26-.85-.39-1.28-.12-.39-.24-.79-.35-1.18,0-.02-.02-.05-.02-.07-.01.02-.02.05-.02.07-.09.79-.19,1.58-.28,2.37-.26,2.16-.52,4.32-.78,6.47,0,.02,0,.04,0,.07,0,.01.01.02.03.01.01,0,.03-.02.04-.02.13-.09.27-.17.4-.26.16-.1.32-.2.48-.3.07-.04.13-.08.2-.13.16-.1.32-.2.48-.3.11-.07.21-.13.32-.2.04-.02.07-.05.12-.07.11.36.22.72.33,1.08.11.36.22.72.33,1.08.11.36.22.72.33,1.08.11.36.22.72.33,1.08Zm.38,1.02s.04.02.07.03c.13.04.25.07.38.1.35.1.7.19,1.05.29.02,0,.04.02.06,0,0-.02,0-.04,0-.06.07-.56.13-1.12.2-1.68.14-1.18.28-2.36.42-3.54.19-1.61.39-3.21.58-4.82,0-.01,0-.03,0-.04,0-.03,0-.03-.03-.04,0,0-.02,0-.03,0-.19-.05-.37-.1-.56-.15-.28-.08-.57-.15-.85-.23-.03,0-.06-.02-.09-.02-.01.01-.01.03-.01.04-.06.39-1.21,10.06-1.21,10.14Zm-2.4-13.89s0,.03,0,.04c.12.38.23.76.35,1.14.11.35.21.7.32,1.05.11.36.22.72.32,1.07.1.35.21.69.31,1.04,0,.02.01.04.02.05,0,.01.01.01.02,0,0,0,.02,0,.03-.01.19-.12.38-.24.57-.36.16-.1.31-.2.47-.3.01,0,.02-.02.04-.02.02-.01.02-.02.02-.04-.02-.08-.05-.15-.07-.23-.1-.33-.2-.66-.3-1-.11-.35-.21-.71-.32-1.06-.1-.32-.19-.64-.29-.95,0-.02-.02-.04-.04-.04-.09-.02-.17-.05-.26-.07-.38-.1-.75-.21-1.13-.31-.02,0-.04-.02-.06-.01Zm-1.04,10.23s.04.02.06.03c.13.04.27.07.4.11.29.08.57.16.86.24.08.02.07.02.14-.02.08-.05.16-.1.24-.15.02-.02.05-.03.07-.05.02-.01.02-.02.02-.04-.01-.03-.02-.07-.03-.1-.09-.3-.18-.6-.27-.9,0,0,0-.02-.01-.03,0,0-.01-.01-.02,0,0,0-.01,0-.02.01-.13.08-.26.17-.4.25-.3.19-.59.38-.89.57-.05.03-.1.06-.15.1Z"/>
    <path class="cls-13" d="m167.57,144.42c-.11-.36-.22-.72-.33-1.08-.11-.36-.22-.72-.33-1.08-.11-.36-.22-.72-.33-1.08-.11-.36-.22-.72-.33-1.08-.04.03-.08.05-.12.07-.11.07-.21.13-.32.2-.16.1-.32.2-.48.3-.07.04-.13.08-.2.13-.16.1-.32.2-.48.3-.13.08-.27.17-.4.26-.01,0-.02.02-.04.02-.01,0-.03,0-.03-.01,0-.02,0-.04,0-.07.26-2.16.52-4.32.78-6.47.09-.79.19-1.58.28-2.37,0-.02,0-.05.02-.07,0,.02.02.05.02.07.12.39.24.79.35,1.18.13.43.26.85.39,1.28.1.33.2.66.29.98.08.25.15.51.23.76,0,.02.01.03.02.05,0,0,.01.01.02,0,.02,0,.03-.02.05-.03.14-.09.28-.18.41-.26.1-.06.19-.12.29-.18.17-.11.34-.22.51-.32.07-.04.14-.09.2-.13.18-.11.36-.23.53-.34,0,0,.01,0,.02-.01,0,0,.02,0,.02.01,0,.02,0,.03,0,.05-.33,2.76-.66,5.51-.99,8.27-.02.2-.05.39-.07.59,0,.02,0,.05-.01.07,0,0-.01,0-.02,0Z"/>
    <path class="cls-6" d="m167.95,145.44c0-.08,1.15-9.75,1.21-10.14,0-.01,0-.03.01-.04.03,0,.06.01.09.02.28.08.57.15.85.23.19.05.37.1.56.15,0,0,.02,0,.03,0,.03,0,.03.01.03.04,0,.01,0,.03,0,.04-.19,1.61-.39,3.21-.58,4.82-.14,1.18-.28,2.36-.42,3.54-.07.56-.13,1.12-.2,1.68,0,.02,0,.04,0,.06-.02.01-.04,0-.06,0-.35-.1-.7-.19-1.05-.29-.13-.03-.25-.07-.38-.1-.02,0-.05,0-.07-.03Z"/>
    <path class="cls-6" d="m165.55,131.55s.04,0,.06.01c.38.1.75.21,1.13.31.08.02.17.05.26.07.02,0,.04.02.04.04.09.32.19.64.29.95.11.35.21.71.32,1.06.1.33.2.66.3,1,.02.08.05.15.07.23,0,.02,0,.03-.02.04-.01,0-.03.02-.04.02-.16.1-.31.2-.47.3-.19.12-.38.24-.57.36,0,0-.02,0-.03.01,0,0-.02,0-.02,0,0-.02-.02-.04-.02-.05-.1-.35-.21-.69-.31-1.04-.11-.36-.22-.72-.32-1.07-.11-.35-.21-.7-.32-1.05-.11-.38-.23-.76-.35-1.14,0-.01-.01-.03,0-.04Z"/>
    <path class="cls-6" d="m164.51,141.77c.05-.03.1-.07.15-.1.3-.19.59-.38.89-.57.13-.08.26-.17.4-.25,0,0,.01,0,.02-.01.01,0,.02,0,.02,0,0,0,0,.02.01.03.09.3.18.6.27.9,0,.03.02.07.03.1,0,.02,0,.03-.02.04-.02.02-.05.03-.07.05-.08.05-.16.1-.24.15-.07.04-.05.04-.14.02-.29-.08-.57-.16-.86-.24-.13-.04-.27-.07-.4-.11-.02,0-.04,0-.06-.03Z"/>
  </g>
  <g>
    <path class="cls-3" d="m109.34,149.73c0-.07,1.32-11.08,1.34-11.15.03,0,.05,0,.07.01.71.19,1.41.38,2.12.58.07.02.14.04.21.06.03,0,.04.02.05.05.03.11.06.22.1.32.11.36.21.71.32,1.07.11.35.21.7.32,1.05.09.3.18.6.27.91,0,0,0,.01,0,.02,0,.01.01.02.03.01.01,0,.03-.02.04-.03.11-.07.23-.15.34-.22.08-.05.05-.04.13-.02.73.2,1.46.4,2.19.59.1.03.08,0,.07.1-.44,3.66-.88,7.33-1.32,10.99,0,.03,0,.05-.01.08-.03,0-.05,0-.07-.01-.64-.18-1.29-.35-1.93-.53-.13-.03-.25-.07-.38-.1-.04,0-.05-.03-.06-.06-.05-.17-.1-.33-.15-.5-.11-.35-.21-.71-.32-1.06-.11-.38-.23-.75-.34-1.13-.06-.21-.13-.43-.19-.64,0-.01-.01-.03-.02-.04,0,0-.01,0-.02,0,0,0,0,0-.01,0-.06.04-.12.07-.17.11-.08.05-.16.1-.23.15-.02.02-.04.02-.07,0-.03,0-.06-.02-.08-.02-.71-.19-1.43-.39-2.14-.58-.03,0-.05-.01-.08-.02Zm3.92,2.37s.01,0,.02,0c0-.02,0-.05.01-.07.02-.2.05-.39.07-.59.33-2.76.66-5.51.99-8.27,0-.02,0-.03,0-.05,0-.01-.01-.02-.02-.01,0,0-.01,0-.02.01-.18.11-.36.23-.53.34-.07.04-.14.09-.2.13-.17.11-.34.22-.51.32-.1.06-.19.12-.29.18-.14.09-.28.18-.41.26-.02.01-.03.02-.05.03,0,0-.01,0-.02,0,0-.02-.01-.03-.02-.05-.08-.25-.15-.51-.23-.76-.1-.33-.2-.66-.29-.98-.13-.43-.26-.85-.39-1.28-.12-.39-.24-.79-.35-1.18,0-.02-.02-.05-.02-.07-.01.02-.02.05-.02.07-.09.79-.19,1.58-.28,2.37-.26,2.16-.52,4.32-.78,6.47,0,.02,0,.04,0,.07,0,.01.01.02.03.01.01,0,.03-.02.04-.02.13-.09.27-.17.4-.26.16-.1.32-.2.48-.3.07-.04.13-.08.2-.13.16-.1.32-.2.48-.3.11-.07.21-.13.32-.2.04-.02.07-.05.12-.07.11.36.22.72.33,1.08.11.36.22.72.33,1.08.11.36.22.72.33,1.08.11.36.22.72.33,1.08Zm.38,1.02s.04.02.07.03c.13.04.25.07.38.1.35.1.7.19,1.05.29.02,0,.04.02.06,0,0-.02,0-.04,0-.06.07-.56.13-1.12.2-1.68.14-1.18.28-2.36.42-3.54.19-1.61.39-3.21.58-4.82,0-.01,0-.03,0-.04,0-.03,0-.03-.03-.04,0,0-.02,0-.03,0-.19-.05-.37-.1-.56-.15-.28-.08-.57-.15-.85-.23-.03,0-.06-.02-.09-.02-.01.01-.01.03-.01.04-.06.39-1.21,10.06-1.21,10.14Zm-2.4-13.89s0,.03,0,.04c.12.38.23.76.35,1.14.11.35.21.7.32,1.05.11.36.22.72.32,1.07.1.35.21.69.31,1.04,0,.02.01.04.02.05,0,.01.01.01.02,0,0,0,.02,0,.03-.01.19-.12.38-.24.57-.36.16-.1.31-.2.47-.3.01,0,.02-.02.04-.02.02-.01.02-.02.02-.04-.02-.08-.05-.15-.07-.23-.1-.33-.2-.66-.3-1-.11-.35-.21-.71-.32-1.06-.1-.32-.19-.64-.29-.95,0-.02-.02-.04-.04-.04-.09-.02-.17-.05-.26-.07-.38-.1-.75-.21-1.13-.31-.02,0-.04-.02-.06-.01Zm-1.04,10.23s.04.02.06.03c.13.04.27.07.4.11.29.08.57.16.86.24.08.02.07.02.14-.02.08-.05.16-.1.24-.15.02-.02.05-.03.07-.05.02-.01.02-.02.02-.04-.01-.03-.02-.07-.03-.1-.09-.3-.18-.6-.27-.9,0,0,0-.02-.01-.03,0,0-.01-.01-.02,0,0,0-.01,0-.02.01-.13.08-.26.17-.4.25-.3.19-.59.38-.89.57-.05.03-.1.06-.15.1Z"/>
    <path class="cls-13" d="m113.26,152.1c-.11-.36-.22-.72-.33-1.08-.11-.36-.22-.72-.33-1.08-.11-.36-.22-.72-.33-1.08-.11-.36-.22-.72-.33-1.08-.04.03-.08.05-.12.07-.11.07-.21.13-.32.2-.16.1-.32.2-.48.3-.07.04-.13.08-.2.13-.16.1-.32.2-.48.3-.13.08-.27.17-.4.26-.01,0-.02.02-.04.02-.01,0-.03,0-.03-.01,0-.02,0-.04,0-.07.26-2.16.52-4.32.78-6.47.09-.79.19-1.58.28-2.37,0-.02,0-.05.02-.07,0,.02.02.05.02.07.12.39.24.79.35,1.18.13.43.26.85.39,1.28.1.33.2.66.29.98.08.25.15.51.23.76,0,.02.01.03.02.05,0,0,.01.01.02,0,.02,0,.03-.02.05-.03.14-.09.28-.18.41-.26.1-.06.19-.12.29-.18.17-.11.34-.22.51-.32.07-.04.14-.09.2-.13.18-.11.36-.23.53-.34,0,0,.01,0,.02-.01,0,0,.02,0,.02.01,0,.02,0,.03,0,.05-.33,2.76-.66,5.51-.99,8.27-.02.2-.05.39-.07.59,0,.02,0,.05-.01.07,0,0-.01,0-.02,0Z"/>
    <path class="cls-6" d="m113.64,153.12c0-.08,1.15-9.75,1.21-10.14,0-.01,0-.03.01-.04.03,0,.06.01.09.02.28.08.57.15.85.23.19.05.37.1.56.15,0,0,.02,0,.03,0,.03,0,.03.01.03.04,0,.01,0,.03,0,.04-.19,1.61-.39,3.21-.58,4.82-.14,1.18-.28,2.36-.42,3.54-.07.56-.13,1.12-.2,1.68,0,.02,0,.04,0,.06-.02.01-.04,0-.06,0-.35-.1-.7-.19-1.05-.29-.13-.03-.25-.07-.38-.1-.02,0-.05,0-.07-.03Z"/>
    <path class="cls-6" d="m111.25,139.23s.04,0,.06.01c.38.1.75.21,1.13.31.08.02.17.05.26.07.02,0,.04.02.04.04.09.32.19.64.29.95.11.35.21.71.32,1.06.1.33.2.66.3,1,.02.08.05.15.07.23,0,.02,0,.03-.02.04-.01,0-.03.02-.04.02-.16.1-.31.2-.47.3-.19.12-.38.24-.57.36,0,0-.02,0-.03.01,0,0-.02,0-.02,0,0-.02-.02-.04-.02-.05-.1-.35-.21-.69-.31-1.04-.11-.36-.22-.72-.32-1.07-.11-.35-.21-.7-.32-1.05-.11-.38-.23-.76-.35-1.14,0-.01-.01-.03,0-.04Z"/>
    <path class="cls-6" d="m110.2,149.46c.05-.03.1-.07.15-.1.3-.19.59-.38.89-.57.13-.08.26-.17.4-.25,0,0,.01,0,.02-.01.01,0,.02,0,.02,0,0,0,0,.02.01.03.09.3.18.6.27.9,0,.03.02.07.03.1,0,.02,0,.03-.02.04-.02.02-.05.03-.07.05-.08.05-.16.1-.24.15-.07.04-.05.04-.14.02-.29-.08-.57-.16-.86-.24-.13-.04-.27-.07-.4-.11-.02,0-.04,0-.06-.03Z"/>
  </g>
  <g>
    <path class="cls-10" d="m105.16,74.23c-5.89,5.71-11.78,11.41-17.66,17.12-.14.14-.28.27-.43.41-.27.24-.8.25-1.11.18-.85-.19-.88-.91-1.04-1.53-.12-.46-.25-.92-.35-1.38-.1-.47-.18-.94-.31-1.4-.13-.45-.28-.9-.36-1.37-.08-.44-.21-.88-.33-1.32-.16-.58-.31-1.17-.46-1.75-.15-.61-.29-1.23-.44-1.84-.14-.57-.3-1.15-.46-1.72-.22-.8-.43-1.6-.61-2.41-.22-1.01-.52-2-.75-3.01-.13-.58-.34-1.15-.39-1.75-.02-.2-.16-.38-.21-.59-.16-.67-.35-1.34-.5-2.01-.36-1.58-.8-3.14-1.18-4.71-.33-1.36-.67-2.72-1.01-4.08-.41-1.63-.83-3.26-1.24-4.9-.34-1.36-.68-2.72-1.02-4.08-.24-.96-.49-1.92-.74-2.88-.47-1.89-.94-3.78-1.41-5.68-.09-.37-.19-.75-.28-1.12-.24-1.09.87-1.75,1.67-1.48,1.62.54,3.3.92,4.93,1.42.48.15.97.32,1.46.44.58.14,1.15.3,1.72.47.65.2,1.31.39,1.96.57,1.66.44,3.3.92,4.95,1.39,1.49.42,2.99.84,4.48,1.26,1.34.38,2.68.77,4.02,1.16,1.09.31,2.18.6,3.26.93.73.23,1.48.42,2.21.65.52.16,1.05.29,1.58.43,1.35.38,2.7.76,4.05,1.15.61.17,1.22.31,1.81.52.66.24,1.35.4,2.02.59,1.01.29,2.02.57,3.03.85.55.16,1.1.34,1.65.49.57.16,1.14.31,1.72.47,1.09.29,2.19.58,3.26.93.91.3,1.24,1.42.46,2.18-4.37,4.23-8.73,8.45-13.09,12.68-1.62,1.57-3.24,3.14-4.86,4.71Zm-27.59-29.82s-.08.02-.12.01c-.44-.13-.89-.26-1.33-.39-.18-.06-.24-.04-.19.17.17.63.32,1.26.48,1.89.24,1.01.48,2.01.74,3.01.25.97.48,1.94.76,2.9.04.15.02.29.07.45.09.24.18.49.24.74.03.14.05.3.09.44.19.63.33,1.28.5,1.91.17.68.34,1.36.49,2.04.25,1.16.58,2.31.87,3.46.32,1.28.65,2.56.97,3.84.29,1.17.57,2.34.86,3.51.17.71.35,1.42.53,2.12.34,1.31.7,2.62,1,3.94.23,1,.51,1.99.74,3,.22.98.53,1.94.77,2.92.27,1.11.55,2.22.83,3.33.24.93.51,1.84.72,2.78.13.6.31,1.17.44,1.79.05-.05.08-.08.1-.1,10.84-10.51,21.69-21.02,32.53-31.52.17-.16.11-.2-.07-.25-.55-.15-1.09-.31-1.64-.47-2.83-.8-5.65-1.61-8.48-2.41-1.32-.38-2.64-.75-3.97-1.13-3.19-.91-6.37-1.81-9.56-2.72-1.71-.49-3.43-.96-5.14-1.47-2.12-.62-4.25-1.2-6.37-1.83-.91-.27-1.82-.52-2.74-.75-.98-.25-1.96-.55-2.93-.84-.4-.12-.8-.25-1.19-.37,0,0,.01-.01.02-.02,0,0,0,.01-.01.02Z"/>
    <path class="cls-14" d="m77.57,44.41c.4.12.79.25,1.2.37.98.29,1.95.59,2.93.84.92.24,1.84.49,2.74.75,2.12.63,4.25,1.21,6.37,1.83,1.71.5,3.43.98,5.14,1.47,3.19.91,6.37,1.81,9.56,2.72,1.32.38,2.64.75,3.97,1.13,2.83.8,5.65,1.61,8.48,2.41.55.16,1.09.31,1.64.47.17.05.23.08.07.25-10.85,10.5-21.69,21.01-32.53,31.52-.03.02-.05.05-.1.1-.13-.62-.31-1.2-.44-1.79-.21-.93-.48-1.85-.72-2.78-.28-1.11-.56-2.22-.83-3.33-.24-.98-.55-1.94-.77-2.92-.23-1-.51-1.99-.74-3-.3-1.32-.67-2.63-1-3.94-.18-.71-.36-1.42-.53-2.12-.29-1.17-.57-2.34-.86-3.51-.32-1.28-.64-2.56-.97-3.84-.29-1.15-.62-2.3-.87-3.46-.15-.68-.32-1.36-.49-2.04-.16-.64-.31-1.28-.5-1.91-.04-.14-.06-.3-.09-.44-.06-.25-.15-.5-.24-.74-.05-.15-.03-.3-.07-.45-.28-.96-.51-1.93-.76-2.9-.26-1-.49-2.01-.74-3.01-.15-.63-.31-1.26-.48-1.89-.06-.21,0-.23.19-.17.44.14.89.26,1.33.39.04.01.08.03.12-.01h0Zm25.37,20.22c-.62.52-1.19.98-1.74,1.45-.44.37-.88.75-1.32,1.12-.09.08-.2.14-.3.22-.05.04-.1.07-.13,0-.06-.1-.15-.21-.16-.32-.04-.36-.19-.68-.33-.99-.34-.77-.69-1.54-1.01-2.32-.35-.86-.74-1.7-1.07-2.57-.39-.99-.8-1.98-1.23-2.95-.31-.71-.6-1.43-.92-2.14-.41-.9-.75-1.83-1.12-2.75-.02-.06-.02-.16-.11-.17-.09,0-.09.1-.11.16-.29.71-.58,1.41-.86,2.13-.53,1.38-1.11,2.74-1.63,4.13-.22.58-.44,1.16-.71,1.73-.15.31-.26.63-.4.99-.13-.21-.11-.41-.15-.6-.25-1.15-.49-2.3-.72-3.45-.07-.35-.1-.73-.2-1.07-.15-.51-.24-1.03-.35-1.54-.11-.55-.21-1.12-.33-1.66-.26-1.18-.51-2.36-.74-3.54-.02-.12-.03-.32-.27-.28-.4.07-.79.16-1.19.21-.65.08-1.27.28-1.93.34-.46.04-.91.16-1.37.21-.41.05-.81.16-1.22.22-.17.03-.12.09-.07.19.3.59.59,1.18.89,1.77.33.66.64,1.32.97,1.98.25.49.5.99.75,1.48.34.66.68,1.33,1.01,2,.19.39.36.79.57,1.17.29.53.52,1.09.81,1.62.42.77.77,1.57,1.16,2.35.29.58.6,1.15.88,1.74.4.8.79,1.6,1.18,2.4.02.05.02.14.1.14.1.01.09-.09.12-.15.41-.84.8-1.68,1.21-2.52.79-1.62,1.59-3.24,2.38-4.86.04-.09.07-.2.2-.22,1.12,2.87,2.24,5.72,3.37,8.6-1.31.27-2.59.53-3.87.79.07.07.12.07.17.09.58.24,1.14.51,1.73.72.81.29,1.59.66,2.39.96.92.35,1.84.71,2.73,1.12.29.13.31.12.41-.17.3-.92.62-1.84.89-2.76.09-.32.17-.63.3-.94.24-.6.41-1.23.62-1.85.06-.18.06-.37.14-.55.23-.51.38-1.05.57-1.66Z"/>
    <path class="cls-14" d="m77.58,44.41s0-.01.01-.02c0,0-.01.01-.02.02,0,0,0,0,0,0Z"/>
    <path class="cls-10" d="m102.95,64.63c-.2.61-.35,1.15-.57,1.66-.08.18-.07.37-.14.55-.21.61-.38,1.25-.62,1.85-.12.31-.2.62-.3.94-.28.93-.59,1.84-.89,2.76-.09.29-.12.3-.41.17-.89-.41-1.81-.77-2.73-1.12-.8-.3-1.58-.67-2.39-.96-.59-.21-1.15-.48-1.73-.72-.05-.02-.1-.03-.17-.09,1.28-.26,2.57-.53,3.87-.79-1.13-2.87-2.25-5.73-3.37-8.6-.13.02-.16.13-.2.22-.79,1.62-1.59,3.24-2.38,4.86-.41.84-.81,1.68-1.21,2.52-.03.06-.02.16-.12.15-.08,0-.07-.1-.1-.14-.4-.8-.79-1.6-1.18-2.4-.29-.58-.6-1.15-.88-1.74-.39-.78-.75-1.58-1.16-2.35-.29-.53-.51-1.09-.81-1.62-.21-.38-.38-.78-.57-1.17-.33-.67-.67-1.33-1.01-2-.25-.49-.5-.98-.75-1.48-.33-.66-.64-1.32-.97-1.98-.29-.59-.59-1.18-.89-1.77-.05-.11-.1-.16.07-.19.41-.07.82-.18,1.22-.22.46-.05.91-.17,1.37-.21.65-.06,1.28-.26,1.93-.34.4-.05.79-.14,1.19-.21.24-.04.24.16.27.28.23,1.18.48,2.36.74,3.54.12.55.21,1.11.33,1.66.11.51.2,1.03.35,1.54.1.33.13.71.2,1.07.23,1.15.47,2.3.72,3.45.04.19.02.39.15.6.14-.35.25-.68.4-.99.27-.56.5-1.15.71-1.73.52-1.39,1.1-2.75,1.63-4.13.27-.71.57-1.42.86-2.13.03-.06.02-.16.11-.16.09,0,.08.11.11.17.37.92.71,1.85,1.12,2.75.32.71.61,1.43.92,2.14.43.98.84,1.96,1.23,2.95.34.86.73,1.71,1.07,2.57.31.78.67,1.55,1.01,2.32.14.31.29.63.33.99.01.11.1.22.16.32.04.06.09.03.13,0,.1-.07.21-.14.3-.22.44-.37.88-.75,1.32-1.12.56-.47,1.12-.93,1.74-1.45Z"/>
  </g>
  <g>
    <path class="cls-10" d="m199.04,71.63c-5.86-5.73-11.73-11.46-17.59-17.19-.14-.14-.28-.28-.42-.42-.25-.26-.28-.79-.21-1.1.17-.86.89-.9,1.51-1.08.46-.13.91-.27,1.37-.39.46-.12.93-.21,1.39-.35.45-.14.89-.3,1.36-.4.44-.1.88-.24,1.31-.36.58-.17,1.16-.34,1.74-.5.61-.17,1.22-.32,1.83-.49.57-.16,1.14-.33,1.71-.5.79-.24,1.59-.48,2.39-.68,1-.25,1.99-.57,2.99-.83.58-.15,1.14-.38,1.74-.44.2-.02.37-.17.58-.23.67-.18,1.33-.38,1.99-.55,1.57-.4,3.11-.89,4.68-1.31,1.35-.37,2.7-.75,4.05-1.12,1.62-.45,3.24-.92,4.86-1.37,1.35-.38,2.7-.75,4.05-1.13.95-.27,1.91-.55,2.86-.81,1.88-.53,3.76-1.05,5.63-1.57.37-.1.74-.22,1.12-.31,1.08-.27,1.77.82,1.53,1.63-.49,1.64-.82,3.32-1.29,4.97-.14.49-.3.98-.4,1.47-.12.58-.27,1.16-.42,1.73-.18.66-.36,1.32-.52,1.98-.4,1.67-.83,3.33-1.26,4.99-.38,1.5-.76,3.01-1.14,4.51-.34,1.35-.7,2.7-1.05,4.05-.28,1.09-.54,2.2-.84,3.28-.21.74-.38,1.49-.58,2.23-.14.53-.26,1.06-.39,1.59-.34,1.36-.69,2.72-1.04,4.08-.16.61-.28,1.23-.47,1.83-.22.67-.36,1.36-.53,2.03-.26,1.02-.51,2.04-.77,3.05-.14.56-.31,1.11-.45,1.67-.15.57-.28,1.15-.42,1.73-.26,1.1-.52,2.2-.84,3.28-.28.92-1.38,1.28-2.16.52-4.34-4.25-8.69-8.49-13.04-12.74-1.62-1.58-3.23-3.16-4.85-4.73Zm29.05-28.39s-.02-.08-.01-.12c.12-.45.23-.89.36-1.34.05-.18.03-.25-.18-.18-.62.18-1.25.36-1.87.53-1,.27-2,.54-2.99.82-.96.27-1.93.53-2.88.84-.15.05-.29.03-.45.09-.24.09-.48.19-.73.26-.14.04-.3.06-.44.1-.63.2-1.27.37-1.9.55-.67.19-1.35.38-2.03.55-1.15.28-2.29.64-3.43.96-1.27.36-2.54.72-3.81,1.07-1.16.32-2.32.64-3.49.96-.7.19-1.41.39-2.11.59-1.3.37-2.6.78-3.91,1.11-1,.26-1.98.56-2.98.82-.97.25-1.93.59-2.9.85-1.1.3-2.21.61-3.31.92-.92.26-1.83.56-2.75.79-.59.15-1.17.34-1.78.49.05.05.08.08.1.1,10.8,10.55,21.6,21.1,32.4,31.66.17.16.2.1.24-.07.14-.55.28-1.1.42-1.65.73-2.85,1.45-5.69,2.18-8.54.34-1.33.68-2.66,1.02-4,.82-3.21,1.64-6.42,2.46-9.63.44-1.73.87-3.46,1.33-5.18.56-2.14,1.09-4.28,1.66-6.42.24-.91.47-1.84.68-2.76.23-.99.5-1.97.76-2.95.11-.4.23-.8.34-1.2,0,0,.01.01.02.02,0,0-.01,0-.02-.01Z"/>
    <path class="cls-14" d="m228.09,43.23c-.11.4-.23.8-.34,1.21-.26.98-.53,1.96-.76,2.95-.21.92-.44,1.85-.68,2.76-.57,2.13-1.09,4.28-1.66,6.42-.45,1.72-.88,3.45-1.33,5.18-.82,3.21-1.64,6.42-2.46,9.63-.34,1.33-.68,2.66-1.02,4-.73,2.85-1.45,5.69-2.18,8.54-.14.55-.28,1.1-.42,1.65-.04.17-.08.23-.24.07-10.8-10.56-21.6-21.11-32.4-31.66-.03-.02-.05-.05-.1-.1.61-.14,1.19-.34,1.78-.49.93-.23,1.84-.53,2.75-.79,1.1-.31,2.2-.62,3.31-.92.97-.27,1.92-.6,2.9-.85,1-.25,1.98-.56,2.98-.82,1.31-.34,2.61-.74,3.91-1.11.7-.2,1.4-.4,2.11-.59,1.16-.32,2.33-.63,3.49-.96,1.27-.35,2.54-.71,3.81-1.07,1.14-.32,2.28-.68,3.43-.96.68-.17,1.35-.36,2.03-.55.63-.18,1.27-.35,1.9-.55.14-.05.3-.07.44-.1.25-.06.49-.17.73-.26.15-.06.3-.04.45-.09.95-.3,1.92-.56,2.88-.84.99-.28,1.99-.55,2.99-.82.63-.17,1.25-.34,1.87-.53.21-.06.23,0,.18.18-.13.44-.24.89-.36,1.34-.01.04-.03.09.01.12h0Zm-19.52,25.91c-.54-.61-1.02-1.16-1.5-1.7-.38-.43-.77-.85-1.16-1.29-.08-.09-.15-.2-.22-.3-.04-.05-.07-.09,0-.13.1-.07.21-.16.32-.17.36-.05.67-.21.98-.36.76-.36,1.52-.73,2.3-1.07.85-.37,1.68-.78,2.54-1.14.98-.42,1.95-.86,2.92-1.31.7-.33,1.41-.64,2.11-.98.89-.43,1.81-.8,2.72-1.19.06-.03.16-.03.16-.11,0-.09-.1-.09-.16-.11-.72-.27-1.43-.55-2.15-.8-1.4-.49-2.77-1.04-4.17-1.52-.58-.2-1.18-.41-1.75-.66-.31-.14-.64-.24-1-.37.21-.14.41-.12.6-.16,1.14-.28,2.28-.55,3.43-.82.35-.08.73-.12,1.06-.23.5-.16,1.02-.27,1.53-.39.55-.13,1.11-.24,1.65-.37,1.17-.29,2.34-.57,3.52-.84.12-.03.32-.04.27-.28-.08-.39-.18-.78-.24-1.19-.09-.65-.32-1.27-.39-1.92-.05-.46-.18-.9-.25-1.36-.06-.41-.18-.81-.26-1.22-.03-.17-.09-.12-.19-.06-.58.32-1.16.63-1.74.93-.65.34-1.3.68-1.95,1.02-.49.26-.97.53-1.46.79-.66.35-1.31.71-1.97,1.06-.38.2-.78.38-1.15.6-.52.31-1.07.55-1.6.85-.76.44-1.55.82-2.32,1.23-.57.31-1.14.63-1.71.93-.79.42-1.58.83-2.36,1.25-.05.03-.14.03-.14.1,0,.1.1.09.15.12.85.38,1.7.76,2.55,1.14,1.64.75,3.28,1.5,4.92,2.25.09.04.2.06.23.19-2.83,1.2-5.66,2.4-8.5,3.6-.3-1.3-.6-2.57-.9-3.85-.06.07-.07.12-.09.17-.23.58-.48,1.16-.67,1.75-.27.82-.61,1.61-.9,2.42-.32.93-.66,1.85-1.05,2.76-.13.29-.11.32.18.4.93.28,1.85.57,2.79.82.32.09.63.16.95.27.61.23,1.24.37,1.86.57.18.06.37.05.55.12.52.22,1.06.35,1.68.53Z"/>
    <path class="cls-14" d="m228.09,43.24s.01,0,.02.01c0,0-.01-.01-.02-.02,0,0,0,0,0,0Z"/>
    <path class="cls-10" d="m208.57,69.15c-.61-.18-1.16-.31-1.68-.53-.18-.08-.37-.06-.55-.12-.62-.2-1.26-.35-1.86-.57-.31-.12-.63-.19-.95-.27-.94-.25-1.86-.54-2.79-.82-.29-.09-.31-.11-.18-.4.39-.9.72-1.83,1.05-2.76.28-.81.63-1.6.9-2.42.19-.59.45-1.17.67-1.75.02-.05.02-.1.09-.17.3,1.28.6,2.55.9,3.85,2.84-1.2,5.67-2.4,8.5-3.6-.03-.13-.14-.15-.23-.19-1.64-.75-3.28-1.5-4.92-2.25-.85-.39-1.7-.76-2.55-1.14-.06-.03-.16-.01-.15-.12,0-.08.09-.08.14-.1.79-.42,1.58-.83,2.36-1.25.57-.31,1.14-.63,1.71-.93.77-.41,1.56-.79,2.32-1.23.52-.3,1.08-.54,1.6-.85.37-.22.77-.4,1.15-.6.66-.35,1.31-.71,1.97-1.06.49-.26.97-.53,1.46-.79.65-.34,1.3-.68,1.95-1.02.58-.31,1.16-.62,1.74-.93.1-.06.16-.11.19.06.08.41.2.81.26,1.22.06.46.19.9.25,1.36.07.65.3,1.27.39,1.92.06.4.16.79.24,1.19.05.24-.15.25-.27.28-1.18.26-2.35.55-3.52.84-.54.14-1.11.24-1.65.37-.51.12-1.02.23-1.53.39-.33.11-.71.15-1.06.23-1.14.26-2.29.54-3.43.82-.18.05-.39.03-.6.16.36.13.68.23,1,.37.57.26,1.16.46,1.75.66,1.4.48,2.78,1.02,4.17,1.52.72.25,1.43.53,2.15.8.06.02.16.02.16.11,0,.09-.1.09-.16.11-.91.4-1.83.76-2.72,1.19-.7.34-1.41.65-2.11.98-.96.45-1.94.9-2.92,1.31-.86.36-1.69.78-2.54,1.14-.78.34-1.53.71-2.3,1.07-.31.14-.63.31-.98.36-.11.01-.22.11-.32.17-.06.04-.03.09,0,.13.08.1.14.2.22.3.38.43.77.85,1.16,1.29.48.55.96,1.1,1.5,1.7Z"/>
  </g>
  <path class="cls-3" d="m108.39,66.11c-.62-.26-1.11-.79-1.03-1.29.08-.49.86-.84,1.7-.65,2.28.53,4.37,1.79,5.94,3.63.58.69.29,1.63-.54,2.02-.83.39-1.68.27-2-.26-.91-1.5-2.31-2.74-4.07-3.47Z"/>
  <path class="cls-3" d="m188.46,56.18c.46-.46.7-1.12.44-1.53-.26-.41-1.08-.44-1.76.05-1.84,1.32-3.24,3.21-3.96,5.44-.27.83.35,1.56,1.23,1.6.89.04,1.6-.38,1.69-.97.25-1.67,1.05-3.3,2.35-4.6Z"/>
</svg>