<?xml version="1.0" encoding="UTF-8"?>
<svg id="Layer_1" data-name="Layer 1" xmlns="http://www.w3.org/2000/svg" width="300" height="225" viewBox="0 0 300 225">
  <defs>
    <style>
      .cls-1 {
        fill: #b7b7b7;
      }

      .cls-2 {
        fill: #4c4c4c;
      }

      .cls-3 {
        fill: #23140a;
      }

      .cls-4 {
        isolation: isolate;
        opacity: .35;
      }

      .cls-5 {
        fill: #232323;
      }

      .cls-6 {
        fill: none;
      }

      .cls-7 {
        fill: #3ed033;
      }

      .cls-8 {
        fill: #201e1f;
      }

      .cls-9 {
        fill: #7a7a7a;
      }

      .cls-10 {
        fill: #eae8e8;
      }

      .cls-11 {
        fill: #3050c4;
      }

      .cls-12 {
        fill: #919191;
      }
    </style>
  </defs>
  <g class="cls-4">
    <ellipse class="cls-5" cx="157.39" cy="210.36" rx="78.31" ry="12.64"/>
  </g>
  <g>
    <circle class="cls-11" cx="156.59" cy="105.72" r="102.73"/>
    <path class="cls-6" d="m256.12,88.6c1.58.64,2.76-.59,4.47-2.11,1.72-1.52-3.64-3.39-6.34-4.37-2.24-.81-2.49,0-3.16.26.39,1.57.74,3.16,1.04,4.76,1.43.15,2.75.97,3.98,1.47Z"/>
    <path class="cls-6" d="m254.25,95.83c-.16-.31-.44-.53-.9-.64.2,1.82.35,3.66.44,5.51,1.02-1.85.74-4.33.46-4.87Z"/>
    <g>
      <path class="cls-11" d="m121.83,177.35c-2.82-2.54-11.17-11.44-11.73-18.57-.43-5.19,2.93-8.38,4.96-10.42.66-.57,1.33-1.15,1.36-1.46.06-.64-3.95-3.62-6.83-5.53-.55-.7-1.43-1.11-2.28-1.84-2.88-1.9-3.89-4.26-4.65-5.94-.24-.67-.49-1.34-.79-1.37-.6-.06-1.46-.79-2.61-1.56-2.31-1.52-6.04-4.16-9.4-4.19-5.46-.56-10.25-8.13-10.47-9.12-.21-.98-2.17-9.55-2.99-10.6-1.09-1.4-8.54-13.42-9.82-16.12-1.55-3.05-.93-16.17,3.45-23.75,1.75-3.03,2.22-6.62,2.19-9.71-8.24,14.29-12.96,30.87-12.96,48.55,0,40.93,25.27,75.96,61.07,90.34.16-.56.33-1.07.49-1.46,1.45-2.42,3.67-16.33,1-17.25Z"/>
      <path class="cls-11" d="m226.39,164.09c1.77-2.36,0-11.2-3.14-14.74-3.15-3.54,0-7.08-.4-8.85-.39-1.77-2.95,0-4.32-1.93-1.38-1.93,7.08-5.54-6.88-1.62-13.96,3.93-13.96,0-18.87-4.52-4.91-4.52-2.95-5.31-3.34-13.76-.39-8.45,6.68-10.02,9.63-14.61,2.95-4.58,6.09-6.82,17.49-8.59,11.4-1.77,7.28,2.94,7.28,4.68s11.01,4.55,11.01,3.77-1.38-4.13,1.18-3.73c1.38.39,14.74,2.55,14.74,2.55,1.54-.22,2.48-1.05,3.03-2.06-.09-1.85-.25-3.69-.44-5.51-.8-.19-2.18-.04-4.61.64-3.83,1.08-6.09-2.65-6.29-5.11-.2-2.46,6.53-3.14,8.45-3.54.42-.09.83-.09,1.23-.04-.31-1.6-.66-3.18-1.04-4.76-.14.06-.29.09-.48.08-1.13-.05-1.92-1.42-2.65-2.55-.73-1.13-2.06,1.58-2.46,2.41-.4.83-.84,2.65-.68,4.13.15,1.47-.88,1.97-1.67,2.46-.79.49-.89-.2-1.57-.59s-2.36.25-3.09,1.77c-.74,1.52.24,5.01.1,5.06-.14.05-1.77-.49-2.95-1.96-1.18-1.47-2.56-5.11-2.7-6.19-.15-1.08-3.09-3.88-5.11-4.57-2.02-.69-.25,2.26.1,2.8.34.54,3,2.46,3.15,3.78.15,1.32-2.61,5.99-1.92,4.32.69-1.67-1.38-2.46-1.97-3.73-.59-1.28-2.85-2.66-4.81-4.82-1.97-2.16-2.75-.1-4.03-.69-1.28-.59-2.36.79-3.54.49-1.18-.3-.79,1.38-.88,2.95-.1,1.58-.68.79-2.56,2.65-1.87,1.87-1.57,3.24-2.65,3.92-1.08.68-3.24,1.28-6.49,1.39-3.24.1-3.05-1.47-2.95-3.15.1-1.67.59-3.93,1.58-5.99.98-2.07,6.19-1.08,7.27-1.38,1.08-.3.39-1.97.39-3.98s-2.46-3.05-3.49-3.73c-1.03-.69,1.03-.79,3.39-1.38,2.36-.59,3.83-1.77,4.42-3,.59-1.23,3.44-3.69,4.77-4.62,1.33-.94,2.56-1.28,3.54-1.97.99-.69,2.82,1.18,2.82,1.18l8.7-1.4s1.7-.96,1.99-2.58c.29-1.62.29-1.84,1.4-4.49.66-1.6,2.64-2.58,4.1-3.19-.23-.38-.46-.76-.69-1.13-.77.04-1.7.14-2.75.34-3.09.59-2.51-1.69-3.09-3.02-.53-1.19-.1-1.8,1.22-4.15-.51-.69-1.03-1.37-1.56-2.05-.2.04-.41.07-.62.08-2.29.15-1.99,3.17-2.65,3.98-.66.81-.88,1.55-.37,4.35.52,2.8-2.43,9.07-3.98,9.36-1.55.3-3.76-4.27-4.13-4.86-.37-.59-3.02,1.77-4.86,1.77s-1.84-5.68-.66-7.52c1.18-1.84,5.28-4.65,6.76-7.79,1.17-2.5,1.99-4.64,3.7-7.18-17.69-18.24-42.45-29.58-69.87-29.58-16.57,0-32.17,4.14-45.83,11.45,2.15.48,4.62.81,6.46.79,3.36.03,7.61.47,12.37,1.92,1.49.48,2.7.6,3.61.69,2.12.22,3.64.38,4.61,3.05,1.15.76,4.37,2.38,4.49,4.32-.06.64-.45,1.56-1.42,2.11-1,.86-7.12,4.09-9.63,4.79-1.58.48-9.33,4.82-10.02,5.72-.03.32-.3,3.18-.54,5.73,1.76.83,6.13,3.21,6.89,4.89.27.35.58.38,1.49.47.61.06,1.24-.19,1.79.51.27.35.55.7.49,1.34l-.06.64c-.39,4.14.1,5.48.37,5.83.36-.6.48-1.88.87-2.8.54-2.51,1.05-4.71,2.87-4.53.6.06,1.61-.8,2.36-2.33.69-.89.45-1.56.45-1.56-1.12-1.08-.61-3.28,1.48-5.96.03-.32.33-.29.36-.6,1.09-1.82,2.48-3.6,4.03-3.76.6.06,1.21.12,1.76.82,1.13,1.08,2.49,2.83,3.58,4.23.82,1.05,1.37,1.75,1.64,2.1.58.38.79,1.37.7,2.32-.03.32.21.99.18,1.31,1.27-.51,3.49-1.25,4.64-.49.58.38.85.73,1.1,1.4.24.67.15,1.62.37,2.61.18,1.31.55,3.91,1.1,4.61.82,1.05,2.22,2.48,2.95,4.48-.03.32.24.67.52,1.02.52,1.02,1.03,2.03.64,2.96-.36.6-1.03,1.18-2.3,1.69-1.91.77-3.73.58-5.27.74-1.55.16-3.06,0-4.03.55-1.94,1.09-2.66,2.3-1.96,4.62-.03.32.24.67.21.99.18,1.3.7,2.32,0,3.22-.39.92-1.33,1.15-2.88,1.31-.3-.03-.94.22-1.55.16-2.45.07-6.45.3-6.57,1.57-.21,2.23-2.12,3-3.39,3.51-.33.29-.97.54-1.3.83-.34.29-.67.57-1.3.83-1.3.83-5.18,3-5.27,3.96.4,2.29-2.72,6.15-4.96,7.2-1.61.8-4.09,4.4-4.48,5.32-.03.32-.06.64-.12,1.27-.15,1.59-.36,3.82-1.9,3.98-.91-.09-1.7-1.46-2.76-3.17-.52-1.02-1.58-2.74-2.19-2.8-.91-.09-2.43-.25-3.67-.06-1.55.16-3.09.32-4.3.2-3.94-.41-7.06.23-7.12.87-.36.6-.75,1.53-1.18,2.77-1.15,2.46-3.47,7.68-2.05,8.79,2.58,1.87,4.61,3.05,5.83,3.17.3.03,1.61-.8,2.57-1.34,1.97-1.4,3.91-2.49,5.09-2.05.3.03.58.38.85.73.51,1.02-.24,2.55-1.36,4.68-.33.29-.72,1.21-.75,1.53.27.35,1.18.45,1.76.83,2.67.92,4.13,1.71,4.37,2.38.27.35.49,1.33.34,2.93-.09.95-.03,3.54.25,3.88,1.46.79,7.1,2.66,8.03,2.44.3.03.94-.22,1.58-.48,3.15-.96,6-1.95,7.73-.81,2.03,1.17,4.73,1.77,6.55,1.96,2.12.22,8.95,2.53,10.53,5.26,1.31,2.39,4.28,3.34,4.89,3.4,1.21.13,5.62,5.4,5.44,7.31.21.98,4.79,4.35,6.01,4.48.94-.23,6.64,1.01,7.4,2.69l.27.35c.79,1.37,2.58,5.09-.02,6.75-1.3.83-4.17,5.35-6.05,9.02-.75,1.53-12.29,10.3-13.89,11.1-1.27.51-4.6,3.38-5.66,4.88-.72,1.21-2.33,2.01-3.91,2.49-.63.26-1.27.51-1.61.8-.36.6-1.39,1.79-2.72,2.93l-9.63.25c9.4,3.02,19.41,4.66,29.81,4.66,28,0,53.23-11.82,70.98-30.75-.84-3.47-2.46-6.54-1.2-8.22Zm-21.51-105.02c.88-.15,2.55,1.7,2.55,1.7,0,0-.04,1.33.47,2.73.52,1.4,1.99,3.47,3.24,5.97,1.25,2.51-2.14,3.83-5.16,4.13-3.02.29,0-4.06.52-4.94.52-.88-.3-2.95-.52-3.68-.22-.74-2.21-1.77-2.51-3.09-.3-1.33,1.4-2.8,1.4-2.8Zm-2.8,6.19c3.02-.81,1.62,3.39.74,4.35-.88.96-3.91.74-3.91,0s3.17-4.35,3.17-4.35Z"/>
    </g>
    <g>
      <path class="cls-7" d="m139.14,195.21c.33-.29.97-.54,1.61-.8,1.58-.48,3.18-1.28,3.91-2.49,1.06-1.5,4.39-4.37,5.66-4.88,1.61-.8,13.14-9.57,13.89-11.1,1.87-3.67,4.75-8.19,6.05-9.02,2.6-1.66.81-5.38.02-6.75l-.27-.35c-.76-1.69-6.46-2.92-7.4-2.69-1.21-.12-5.8-3.49-6.01-4.48.18-1.91-4.22-7.19-5.44-7.31-.61-.06-3.58-1.01-4.89-3.4-1.58-2.74-8.4-5.05-10.53-5.26-1.82-.19-4.52-.79-6.55-1.96-1.73-1.14-4.58-.15-7.73.81-.63.26-1.27.51-1.58.48-.94.22-6.58-1.65-8.03-2.44-.27-.35-.34-2.93-.25-3.89.15-1.59-.06-2.58-.34-2.93-.24-.67-1.7-1.46-4.37-2.38-.58-.38-1.49-.48-1.76-.83.03-.32.42-1.24.75-1.53,1.12-2.13,1.87-3.66,1.36-4.68-.27-.35-.55-.7-.85-.73-1.18-.45-3.12.64-5.09,2.04-.97.55-2.27,1.37-2.57,1.34-1.21-.12-3.24-1.3-5.83-3.17-1.43-1.11.9-6.34,2.05-8.79.42-1.24.81-2.16,1.18-2.77.06-.64,3.18-1.28,7.12-.87,1.21.13,2.76-.04,4.3-.2,1.24-.19,2.76-.03,3.67.06.61.06,1.67,1.78,2.19,2.8,1.06,1.72,1.85,3.08,2.76,3.18,1.55-.16,1.75-2.39,1.9-3.98.06-.63.09-.95.12-1.27.39-.92,2.87-4.53,4.48-5.32,2.24-1.05,5.36-4.91,4.96-7.2.09-.96,3.97-3.12,5.27-3.96.64-.26.97-.54,1.3-.83.33-.29.97-.55,1.3-.83,1.27-.51,3.18-1.28,3.39-3.51.12-1.27,4.12-1.51,6.57-1.57.61.06,1.24-.19,1.55-.16,1.55-.16,2.49-.39,2.88-1.31.7-.89.18-1.91,0-3.21.03-.32-.24-.67-.21-.99-.7-2.32.03-3.53,1.96-4.62.97-.54,2.49-.39,4.03-.55,1.55-.16,3.37.03,5.27-.74,1.27-.51,1.94-1.09,2.3-1.69.39-.93-.12-1.94-.64-2.96-.27-.35-.55-.7-.52-1.02-.73-2-2.13-3.43-2.95-4.48-.55-.7-.92-3.31-1.1-4.61-.21-.99-.13-1.94-.37-2.61-.25-.67-.52-1.02-1.09-1.4-1.15-.76-3.36-.02-4.64.49.03-.32-.21-.98-.18-1.3.09-.95-.13-1.94-.7-2.32-.27-.35-.82-1.05-1.64-2.1-1.09-1.4-2.46-3.15-3.58-4.23-.55-.7-1.15-.76-1.76-.82-1.55.16-2.94,1.95-4.03,3.76-.03.32-.33.29-.36.6-2.09,2.68-2.6,4.87-1.48,5.96,0,0,.24.67-.45,1.56-.75,1.53-1.75,2.39-2.36,2.33-1.82-.19-2.33,2.01-2.87,4.53-.39.93-.51,2.2-.87,2.8-.27-.35-.76-1.69-.37-5.83l.06-.64c.06-.64-.21-.99-.49-1.34-.55-.7-1.18-.45-1.79-.51-.91-.09-1.21-.13-1.49-.47-.76-1.69-5.13-4.07-6.89-4.89.24-2.55.51-5.41.54-5.73.7-.89,8.45-5.24,10.02-5.71,2.51-.7,8.63-3.93,9.63-4.79.97-.55,1.36-1.47,1.42-2.11-.12-1.94-3.34-3.56-4.49-4.32-.97-2.67-2.49-2.83-4.61-3.05-.91-.09-2.12-.22-3.61-.69-4.76-1.46-9.01-1.89-12.37-1.92-1.83.02-4.31-.31-6.46-.79-16.07,8.59-29.45,21.56-38.54,37.32.03,3.09-.44,6.68-2.19,9.71-4.38,7.58-5,20.7-3.45,23.75,1.28,2.7,8.72,14.72,9.82,16.12.82,1.05,2.78,9.61,2.99,10.6.21.98,5.01,8.56,10.47,9.12,3.36.03,7.1,2.66,9.4,4.19,1.15.76,2,1.49,2.61,1.56.3.03.55.7.79,1.37.76,1.69,1.76,4.04,4.65,5.94.85.73,1.73,1.14,2.28,1.84,2.88,1.91,6.89,4.89,6.83,5.53-.03.32-.7.89-1.36,1.47-2.03,2.04-5.39,5.23-4.96,10.42.56,7.13,8.91,16.02,11.73,18.57,2.67.92.45,14.84-1,17.26-.16.39-.33.9-.49,1.46,2.11.85,4.26,1.63,6.45,2.33l9.63-.25c1.33-1.14,2.36-2.33,2.72-2.93Z"/>
      <path class="cls-7" d="m205.98,64.97c.22.74,1.03,2.8.52,3.68-.52.88-3.54,5.23-.52,4.94,3.02-.3,6.42-1.62,5.16-4.13-1.25-2.5-2.72-4.57-3.24-5.97-.52-1.4-.47-2.73-.47-2.73,0,0-1.66-1.84-2.55-1.7,0,0-1.7,1.48-1.4,2.8.29,1.33,2.29,2.36,2.5,3.1Z"/>
      <path class="cls-7" d="m202.81,69.61c.88-.96,2.29-5.16-.74-4.35,0,0-3.17,3.61-3.17,4.35s3.02.96,3.91,0Z"/>
      <path class="cls-7" d="m233.62,51.99c.59,1.33,0,3.61,3.09,3.02,1.05-.2,1.98-.3,2.75-.34-1.45-2.35-2.99-4.63-4.63-6.83-1.32,2.35-1.75,2.96-1.22,4.15Z"/>
      <path class="cls-7" d="m236.05,58.99c-1.11,2.66-1.11,2.88-1.4,4.49-.3,1.62-1.99,2.58-1.99,2.58l-8.7,1.4s-1.84-1.87-2.82-1.18c-.98.69-2.21,1.03-3.54,1.97-1.33.93-4.18,3.39-4.77,4.62-.59,1.23-2.06,2.41-4.42,3-2.36.59-4.42.69-3.39,1.38,1.03.69,3.49,1.72,3.49,3.74s.69,3.68-.39,3.98c-1.08.3-6.29-.68-7.27,1.38-.98,2.07-1.47,4.32-1.58,6-.1,1.67-.29,3.24,2.95,3.14,3.24-.1,5.41-.7,6.49-1.38,1.08-.68.79-2.06,2.65-3.93,1.87-1.87,2.46-1.08,2.55-2.65.1-1.57-.29-3.24.88-2.95,1.18.3,2.26-1.08,3.54-.49,1.28.59,2.07-1.47,4.03.69,1.96,2.16,4.22,3.54,4.81,4.82.59,1.28,2.65,2.06,1.97,3.73-.69,1.67,2.06-3,1.92-4.32-.15-1.33-2.81-3.24-3.15-3.78-.35-.54-2.11-3.49-.1-2.8,2.01.69,4.96,3.49,5.11,4.57.15,1.08,1.52,4.72,2.7,6.19,1.18,1.47,2.81,2.02,2.95,1.96.15-.05-.83-3.54-.1-5.06.74-1.52,2.41-2.16,3.1-1.77.68.39.78,1.08,1.57.59.79-.49,1.82-.98,1.67-2.46-.15-1.47.29-3.29.69-4.13.39-.84,1.72-3.54,2.46-2.41.74,1.13,1.52,2.5,2.65,2.56.19,0,.35-.03.48-.08-2.33-9.48-6.06-18.42-10.94-26.57-1.46.61-3.43,1.59-4.1,3.19Z"/>
      <path class="cls-7" d="m216,52.95c-1.18,1.84-1.18,7.52.66,7.52s4.5-2.36,4.87-1.77c.37.59,2.58,5.16,4.13,4.86,1.55-.3,4.49-6.56,3.98-9.36-.51-2.8-.3-3.54.37-4.35.66-.81.37-3.83,2.65-3.98.21-.01.42-.04.62-.08-2.13-2.73-4.41-5.33-6.82-7.81-1.71,2.55-2.53,4.68-3.7,7.18-1.48,3.14-5.58,5.95-6.76,7.79Z"/>
      <path class="cls-7" d="m250.9,87.18c-1.92.39-8.65,1.08-8.45,3.54.19,2.46,2.46,6.19,6.29,5.11,2.43-.68,3.81-.83,4.61-.64-.29-2.72-.7-5.4-1.21-8.05-.4-.04-.81-.04-1.23.04Z"/>
      <path class="cls-7" d="m253.9,107.69c.01-.65.03-1.31.03-1.96,0-1.69-.04-3.36-.13-5.03-.56,1.01-1.49,1.84-3.03,2.06,0,0-13.37-2.16-14.74-2.55-2.55-.39-1.18,2.95-1.18,3.73s-11.01-2.03-11.01-3.77,4.13-6.45-7.28-4.68c-11.4,1.77-14.54,4.01-17.49,8.59-2.95,4.58-10.02,6.16-9.64,14.61.4,8.45-1.57,9.24,3.34,13.76,4.91,4.52,4.91,8.45,18.87,4.52,13.96-3.93,5.5-.31,6.88,1.62,1.37,1.93,3.93.16,4.32,1.93.4,1.77-2.75,5.31.4,8.85,3.14,3.54,4.91,12.38,3.14,14.74-1.26,1.68.36,4.74,1.19,8.21,15.47-16.49,25.25-38.36,26.25-62.5l.07-2.11Z"/>
    </g>
  </g>
  <g>
    <g>
      <g>
        <path class="cls-10" d="m177.3,33c1.42-.16,2.84-.23,4.27-.27.02,0,.04,0,.07,0,0-.11.02-.22.03-.33.05-1.22.1-2.44.16-3.66.07-1.65.15-3.3.22-4.95.04-1,.09-2.01.13-3.01.07-1.67.15-3.35.22-5.02,0-.1,0-.2.01-.29,0-.14.08-.22.2-.23.13,0,.22.07.23.21.01.2.02.39.02.59.06,1.44.12,2.89.19,4.33.1,2.27.2,4.54.3,6.82.08,1.74.15,3.48.23,5.22,0,.11.01.21.02.33.31.01.6.02.9.03,1.72.06-8.19.35-7.21.24Z"/>
        <path class="cls-3" d="m177.68,33.16c-.56,0-.56-.04-.57-.13,0-.13.12-.14.18-.15h0c1.25-.14,2.59-.23,4.24-.27,0-.07.01-.15.02-.22l.16-3.66c.04-.88.08-1.76.12-2.64l.46-10.46c0-.06,0-.12,0-.18.01-.2.14-.33.32-.34.21,0,.35.12.36.33,0,.13.01.26.02.4l.05,1.3.67,15.26c0,.07,0,.14.01.21h0s.79.04.79.04c.21,0,.32.01.32.14q0,.15-1.69.22c-1.05.04-2.53.09-3.78.12-.84.02-1.36.03-1.69.03Zm4.95-17.8s0,0,0,0c-.02,0-.08,0-.09.11,0,.06,0,.11,0,.17l-.08,1.74-.38,8.72c-.04.88-.08,1.76-.12,2.64l-.16,3.66c0,.08-.01.16-.02.24v.17c.62-.02,1.22-.04,1.71-.06v-.12c-.01-.07-.02-.14-.02-.21l-.73-16.56c0-.13,0-.26-.02-.39,0-.07-.04-.1-.09-.1Z"/>
      </g>
      <g>
        <path class="cls-10" d="m182.36,13.35c-.07-.34-.16-.67-.2-1.01-.09-.73-.18-1.46-.23-2.19-.09-1.3-.07-2.61.02-3.91.06-.88.15-1.77.4-2.63.05-.17.12-.34.19-.51.03-.06.11-.12.17-.12.11,0,.11.1.11.19,0,1.08,0,2.17,0,3.25,0,2.25,0,4.5,0,6.75,0,.12.02.19.14.25.16.08.26.23.32.4.01.04.05.1.09.11,1.17.36,2.27.89,3.34,1.47,1.43.77,2.82,1.61,4.08,2.64.34.28.64.6.95.91.05.05.1.11.12.18.02.06.03.16,0,.19-.03.03-.14.04-.19,0-.31-.17-.61-.35-.92-.52-2.47-1.43-4.95-2.86-7.42-4.29-.05-.03-.09-.05-.14-.08-.33.39-.82.44-1.22.04-.08.07-.16.14-.24.21-1.1.94-2.31,1.72-3.56,2.44-1.1.64-2.23,1.22-3.43,1.66-.41.15-.83.24-1.25.36-.06.02-.14.03-.2.01-.06-.01-.15-.05-.16-.09,0-.05.04-.14.08-.17.3-.18.6-.35.9-.53,2.53-1.46,5.07-2.92,7.6-4.39.08-.05.14-.1.17-.2.07-.24.25-.38.47-.47Z"/>
        <path class="cls-3" d="m191.78,19.5c-.06,0-.12-.01-.16-.03-.23-.13-.46-.26-.7-.4l-7.65-4.42s-.03-.02-.05-.03c-.18.18-.39.28-.61.29-.21,0-.44-.07-.63-.23l-.16.14c-.96.82-2.06,1.57-3.58,2.45-.91.52-2.12,1.19-3.45,1.67-.3.11-.61.19-.92.27-.12.03-.23.06-.35.09-.07.02-.17.04-.26.02,0,0-.24-.05-.26-.2-.01-.1.05-.24.14-.3.22-.14.45-.27.68-.4l.22-.13c2.53-1.46,5.07-2.92,7.6-4.39.07-.04.1-.07.11-.13.07-.22.21-.39.44-.5-.02-.07-.03-.15-.05-.22-.05-.23-.1-.47-.13-.7-.09-.75-.18-1.48-.23-2.2-.08-1.25-.08-2.54.02-3.93.06-.81.14-1.74.4-2.65.05-.17.12-.35.2-.53.04-.09.17-.19.28-.19h0c.23,0,.23.24.23.31v4.48c0,1.84,0,3.68,0,5.52,0,.1.01.11.07.14.18.09.3.25.38.47,0,.01.02.03.02.04,1.24.37,2.39.96,3.35,1.47,1.68.9,2.98,1.75,4.1,2.66.25.21.48.44.71.66.09.09.17.17.26.26.05.05.12.13.15.23,0,.02.07.21-.03.32-.04.05-.12.07-.19.07Zm-8.6-5.19l.13.07s.07.03.1.05l7.65,4.42c.23.13.46.27.69.39,0,0,.02,0,.03,0,0-.02,0-.04-.01-.05-.01-.04-.05-.09-.09-.13-.09-.09-.17-.17-.26-.26-.22-.22-.44-.45-.69-.65-1.1-.9-2.39-1.74-4.06-2.63-.95-.51-2.09-1.09-3.32-1.46-.09-.03-.15-.11-.18-.19-.06-.17-.14-.27-.26-.33-.18-.09-.21-.23-.21-.36,0-1.84,0-3.68,0-5.52V3.18s0-.04,0-.06c-.02.01-.04.03-.04.04-.08.16-.14.33-.19.48-.25.88-.34,1.81-.39,2.6-.1,1.38-.11,2.65-.02,3.89.05.72.13,1.41.23,2.18.03.23.08.45.13.68.02.11.05.21.07.32l.02.1-.1.04c-.21.08-.34.21-.39.39-.04.15-.14.22-.23.27-2.53,1.46-5.07,2.92-7.6,4.39l-.22.13c-.23.13-.45.26-.68.4,0,0,0,.01-.01.02.01,0,.03.01.05.01.04,0,.09,0,.15-.01.12-.03.23-.06.35-.09.3-.08.6-.16.89-.26,1.31-.48,2.51-1.14,3.41-1.65,1.51-.87,2.6-1.61,3.55-2.42l.33-.28.08.08c.17.16.35.24.54.24.18,0,.35-.1.5-.27l.07-.08Z"/>
      </g>
    </g>
    <g>
      <g>
        <path class="cls-12" d="m185.26,31.17h-5.47c-.8,0-1.45.25-1.45-1.45s0,0,0,0c0-.8-.02-1.45,1.45-1.45h5.47c1.59,0,1.45.65,1.45,1.45,0,0,0-1.68,0,0s-.65,1.45-1.45,1.45Z"/>
        <path class="cls-3" d="m185.96,31.31h-6.87c-.49,0-.89-.4-.89-.89v-1.4c0-.49.4-.89.89-.89h6.87c.49,0,.89.4.89.89v1.4c0,.49-.4.89-.89.89Zm-6.87-2.89c-.33,0-.61.27-.61.61v1.4c0,.34.27.61.61.61h6.87c.33,0,.61-.27.61-.61v-1.4c0-.33-.27-.61-.61-.61h-6.87Z"/>
      </g>
      <g>
        <rect class="cls-1" x="175.68" y="30.16" width="13.69" height="13.69" rx="1.78" ry="1.78"/>
        <path class="cls-3" d="m187.54,43.99h-10.02c-1.09,0-1.98-.89-1.98-1.98v-10.02c0-1.09.89-1.98,1.98-1.98h10.02c1.09,0,1.98.89,1.98,1.98v10.02c0,1.09-.89,1.98-1.98,1.98Zm-10.02-13.69c-.93,0-1.69.76-1.69,1.69v10.02c0,.93.76,1.69,1.69,1.69h10.02c.93,0,1.69-.76,1.69-1.69v-10.02c0-.93-.76-1.69-1.69-1.69h-10.02Z"/>
      </g>
      <g>
        <g>
          <circle class="cls-9" cx="182.52" cy="37" r="5.3"/>
          <path class="cls-3" d="m182.52,42.44c-3,0-5.44-2.44-5.44-5.44s2.44-5.44,5.44-5.44,5.44,2.44,5.44,5.44-2.44,5.44-5.44,5.44Zm0-10.59c-2.84,0-5.16,2.31-5.16,5.16s2.31,5.16,5.16,5.16,5.16-2.31,5.16-5.16-2.31-5.16-5.16-5.16Z"/>
        </g>
        <g>
          <circle class="cls-9" cx="182.52" cy="37" r="3.83"/>
          <path class="cls-3" d="m182.52,40.97c-2.19,0-3.97-1.78-3.97-3.97s1.78-3.97,3.97-3.97,3.97,1.78,3.97,3.97-1.78,3.97-3.97,3.97Zm0-7.66c-2.03,0-3.69,1.65-3.69,3.69s1.65,3.69,3.69,3.69,3.69-1.65,3.69-3.69-1.65-3.69-3.69-3.69Z"/>
        </g>
        <g>
          <circle class="cls-9" cx="182.52" cy="37" r="2.3"/>
          <path class="cls-3" d="m182.52,39.45c-1.35,0-2.44-1.1-2.44-2.44s1.1-2.44,2.44-2.44,2.44,1.1,2.44,2.44-1.1,2.44-2.44,2.44Zm0-4.61c-1.19,0-2.16.97-2.16,2.16s.97,2.16,2.16,2.16,2.16-.97,2.16-2.16-.97-2.16-2.16-2.16Z"/>
        </g>
        <g>
          <line class="cls-1" x1="178.22" y1="32.7" x2="186.83" y2="41.31"/>
          <rect class="cls-3" x="182.38" y="30.91" width=".28" height="12.18" transform="translate(27.29 139.9) rotate(-45)"/>
        </g>
        <g>
          <line class="cls-1" x1="186.83" y1="32.7" x2="178.22" y2="41.31"/>
          <rect class="cls-3" x="176.43" y="36.86" width="12.18" height=".28" transform="translate(27.3 139.9) rotate(-45)"/>
        </g>
        <g>
          <circle class="cls-2" cx="187.14" cy="32.39" r=".39"/>
          <path class="cls-3" d="m187.14,32.92c-.29,0-.53-.24-.53-.53s.24-.53.53-.53.53.24.53.53-.24.53-.53.53Zm0-.79c-.14,0-.25.11-.25.25s.11.25.25.25.25-.11.25-.25-.11-.25-.25-.25Z"/>
        </g>
        <g>
          <circle class="cls-2" cx="177.84" cy="32.39" r=".39"/>
          <path class="cls-3" d="m177.84,32.92c-.29,0-.53-.24-.53-.53s.24-.53.53-.53.53.24.53.53-.24.53-.53.53Zm0-.79c-.14,0-.25.11-.25.25s.11.25.25.25.25-.11.25-.25-.11-.25-.25-.25Z"/>
        </g>
        <g>
          <circle class="cls-2" cx="177.88" cy="41.64" r=".39"/>
          <path class="cls-3" d="m177.88,42.18c-.29,0-.53-.24-.53-.53s.24-.53.53-.53.53.24.53.53-.24.53-.53.53Zm0-.79c-.14,0-.25.11-.25.25s.11.25.25.25.25-.11.25-.25-.11-.25-.25-.25Z"/>
        </g>
        <g>
          <circle class="cls-2" cx="187.14" cy="41.62" r=".39"/>
          <path class="cls-3" d="m187.14,42.15c-.29,0-.53-.24-.53-.53s.24-.53.53-.53.53.24.53.53-.24.53-.53.53Zm0-.79c-.14,0-.25.11-.25.25s.11.25.25.25.25-.11.25-.25-.11-.25-.25-.25Z"/>
        </g>
      </g>
      <g>
        <g>
          <rect class="cls-2" x="181.67" y="28.88" width="1.68" height=".69"/>
          <path class="cls-3" d="m183.49,29.7h-1.96v-.97h1.96v.97Zm-1.68-.28h1.4v-.4h-1.4v.4Z"/>
        </g>
        <g>
          <circle class="cls-2" cx="179.96" cy="29.22" r=".33"/>
          <path class="cls-3" d="m179.96,29.69c-.26,0-.47-.21-.47-.47s.21-.47.47-.47.47.21.47.47-.21.47-.47.47Zm0-.65c-.1,0-.18.08-.18.18s.08.18.18.18.18-.08.18-.18-.08-.18-.18-.18Z"/>
        </g>
        <g>
          <circle class="cls-2" cx="185.06" cy="29.22" r=".35"/>
          <path class="cls-3" d="m185.06,29.71c-.27,0-.49-.22-.49-.49s.22-.49.49-.49.49.22.49.49-.22.49-.49.49Zm0-.7c-.12,0-.21.09-.21.21s.09.21.21.21.21-.09.21-.21-.09-.21-.21-.21Z"/>
        </g>
      </g>
    </g>
  </g>
  <g>
    <g>
      <g>
        <path class="cls-10" d="m160.12,112.62c1.42-.16,2.84-.23,4.27-.27.02,0,.04,0,.07,0,0-.11.02-.22.03-.33.05-1.22.1-2.44.16-3.66.07-1.65.15-3.3.22-4.95.04-1,.09-2.01.13-3.01.07-1.67.15-3.35.22-5.02,0-.1,0-.2.01-.29,0-.14.08-.22.2-.23.13,0,.22.07.23.21.01.2.02.39.02.59.06,1.44.12,2.89.19,4.33.1,2.27.2,4.54.3,6.82.08,1.74.15,3.48.23,5.22,0,.11.01.21.02.33.31.01.6.02.9.03,1.72.06-8.19.35-7.21.24Z"/>
        <path class="cls-3" d="m160.49,112.78c-.56,0-.56-.04-.57-.13,0-.13.12-.14.18-.15h0c1.24-.14,2.59-.23,4.24-.27,0-.07.01-.15.02-.22l.73-16.76c0-.06,0-.12,0-.18.01-.2.14-.33.32-.34.19,0,.35.12.36.33,0,.13.01.26.02.4l.05,1.25.67,15.31c0,.07,0,.14.01.22h0s.79.03.79.03c.21,0,.32.01.32.14q0,.15-1.7.22c-1.05.04-2.53.09-3.77.12-.84.02-1.36.03-1.69.03Zm4.96-17.8s-.09,0-.09.11c0,.06,0,.12,0,.17l-.08,1.82-.65,14.95c0,.08-.01.16-.02.23v.17c.62-.02,1.22-.04,1.71-.06v-.11c-.01-.08-.02-.15-.02-.22l-.73-16.56c0-.13,0-.26-.02-.39,0-.07-.04-.1-.09-.1Z"/>
      </g>
      <g>
        <path class="cls-10" d="m165.17,92.97c-.07-.34-.16-.67-.2-1.01-.09-.73-.18-1.46-.23-2.19-.09-1.3-.07-2.61.02-3.91.06-.88.15-1.77.4-2.63.05-.17.12-.34.19-.51.03-.06.11-.12.17-.12.11,0,.11.1.11.19,0,1.08,0,2.17,0,3.25,0,2.25,0,4.5,0,6.75,0,.12.02.19.14.25.16.08.26.23.32.4.01.04.05.1.09.11,1.17.36,2.27.89,3.34,1.47,1.43.77,2.82,1.61,4.08,2.64.34.28.64.6.95.91.05.05.1.11.12.18.02.06.03.16,0,.19-.03.03-.14.04-.19,0-.31-.17-.61-.35-.92-.52-2.47-1.43-4.95-2.86-7.42-4.29-.05-.03-.09-.05-.14-.08-.33.39-.82.44-1.22.04-.08.07-.16.14-.24.21-1.1.94-2.31,1.72-3.56,2.44-1.1.64-2.23,1.22-3.43,1.66-.41.15-.83.24-1.25.36-.06.02-.14.03-.2.01-.06-.01-.15-.05-.16-.09,0-.05.04-.14.08-.17.3-.18.6-.35.9-.53,2.53-1.46,5.07-2.92,7.6-4.39.08-.05.14-.1.17-.2.07-.24.25-.38.47-.47Z"/>
        <path class="cls-3" d="m174.59,99.12c-.06,0-.12-.01-.16-.03-.24-.13-.47-.26-.7-.4l-7.64-4.41s-.03-.02-.05-.03c-.18.18-.39.28-.61.29-.21.02-.44-.07-.64-.23-.05.05-.1.09-.16.14-.96.82-2.06,1.57-3.58,2.45-1.35.78-2.41,1.29-3.45,1.67-.3.11-.61.19-.92.27-.12.03-.23.06-.35.09-.07.02-.16.04-.26.02,0,0-.24-.05-.26-.2-.01-.1.05-.24.14-.3.23-.14.46-.28.7-.41l.21-.12c2.53-1.46,5.07-2.92,7.6-4.39.07-.04.1-.07.11-.13.07-.22.21-.39.44-.5-.02-.07-.03-.14-.05-.22-.05-.23-.1-.47-.13-.71-.09-.74-.18-1.47-.23-2.2-.08-1.25-.08-2.54.02-3.93.06-.81.14-1.74.4-2.65.05-.17.12-.35.2-.53.04-.09.17-.19.29-.19.23,0,.23.24.23.31v4c0,2,0,4,0,6,0,.1.01.11.07.14.18.09.31.25.38.47,0,.01.02.03.02.04,1.24.37,2.39.96,3.35,1.47,1.68.9,2.98,1.75,4.1,2.66.25.21.48.44.71.67.08.08.17.17.25.25.05.05.12.13.15.23,0,.02.07.22-.03.32-.04.05-.12.07-.19.07Zm-8.6-5.19l.13.07s.07.04.11.06l7.64,4.41c.23.13.46.27.7.4,0,0,.02,0,.03,0,0-.02,0-.04-.01-.05-.01-.04-.05-.09-.09-.13-.09-.08-.17-.17-.26-.26-.22-.22-.45-.45-.69-.65-1.1-.9-2.39-1.73-4.06-2.63-.95-.51-2.09-1.09-3.32-1.46-.1-.03-.16-.13-.18-.19-.06-.17-.14-.27-.26-.33-.18-.09-.21-.23-.21-.36,0-2,0-4,0-6v-4s0-.04,0-.06c-.02.01-.04.03-.04.04-.08.16-.14.33-.19.48-.25.88-.34,1.81-.39,2.6-.1,1.38-.11,2.65-.02,3.89.05.72.14,1.45.23,2.18.03.23.08.45.13.68.02.11.05.21.07.32l.02.1-.1.04c-.21.08-.34.21-.39.39-.04.15-.14.22-.23.27-2.53,1.46-5.07,2.92-7.6,4.39l-.21.12c-.23.13-.46.27-.69.41,0,0,0,.01-.01.02.01,0,.03.01.05.01.04,0,.09,0,.15-.01.12-.03.24-.06.35-.09.3-.08.6-.16.89-.26,1.03-.38,2.08-.89,3.41-1.66,1.51-.87,2.6-1.61,3.55-2.42.06-.05.11-.1.17-.15l.16-.14.08.08c.17.16.35.24.54.24.18,0,.35-.1.5-.27l.06-.08Z"/>
      </g>
    </g>
    <g>
      <g>
        <path class="cls-12" d="m168.08,110.79h-5.47c-.8,0-1.45.25-1.45-1.45s0,0,0,0c0-.8-.02-1.45,1.45-1.45h5.47c1.59,0,1.45.65,1.45,1.45,0,0,0-1.68,0,0s-.65,1.45-1.45,1.45Z"/>
        <path class="cls-3" d="m168.78,110.93h-6.87c-.49,0-.89-.4-.89-.89v-1.4c0-.49.4-.89.89-.89h6.87c.49,0,.89.4.89.89v1.4c0,.49-.4.89-.89.89Zm-6.87-2.89c-.33,0-.61.27-.61.61v1.4c0,.34.27.61.61.61h6.87c.33,0,.61-.27.61-.61v-1.4c0-.33-.27-.61-.61-.61h-6.87Z"/>
      </g>
      <g>
        <rect class="cls-1" x="158.49" y="109.78" width="13.69" height="13.69" rx="1.78" ry="1.78"/>
        <path class="cls-3" d="m170.35,123.61h-10.02c-1.09,0-1.98-.89-1.98-1.98v-10.02c0-1.09.89-1.98,1.98-1.98h10.02c1.09,0,1.98.89,1.98,1.98v10.02c0,1.09-.89,1.98-1.98,1.98Zm-10.02-13.69c-.93,0-1.69.76-1.69,1.69v10.02c0,.93.76,1.69,1.69,1.69h10.02c.93,0,1.69-.76,1.69-1.69v-10.02c0-.93-.76-1.69-1.69-1.69h-10.02Z"/>
      </g>
      <g>
        <g>
          <circle class="cls-9" cx="165.34" cy="116.62" r="5.3"/>
          <path class="cls-3" d="m165.34,122.06c-3,0-5.44-2.44-5.44-5.44s2.44-5.44,5.44-5.44,5.44,2.44,5.44,5.44-2.44,5.44-5.44,5.44Zm0-10.59c-2.84,0-5.16,2.31-5.16,5.16s2.31,5.16,5.16,5.16,5.16-2.31,5.16-5.16-2.31-5.16-5.16-5.16Z"/>
        </g>
        <g>
          <circle class="cls-9" cx="165.34" cy="116.62" r="3.83"/>
          <path class="cls-3" d="m165.34,120.59c-2.19,0-3.97-1.78-3.97-3.97s1.78-3.97,3.97-3.97,3.97,1.78,3.97,3.97-1.78,3.97-3.97,3.97Zm0-7.66c-2.03,0-3.69,1.65-3.69,3.69s1.65,3.69,3.69,3.69,3.69-1.65,3.69-3.69-1.65-3.69-3.69-3.69Z"/>
        </g>
        <g>
          <circle class="cls-9" cx="165.34" cy="116.62" r="2.3"/>
          <path class="cls-3" d="m165.34,119.07c-1.35,0-2.44-1.1-2.44-2.44s1.1-2.44,2.44-2.44,2.44,1.1,2.44,2.44-1.1,2.44-2.44,2.44Zm0-4.61c-1.19,0-2.16.97-2.16,2.16s.97,2.16,2.16,2.16,2.16-.97,2.16-2.16-.97-2.16-2.16-2.16Z"/>
        </g>
        <g>
          <line class="cls-1" x1="161.03" y1="112.31" x2="169.65" y2="120.93"/>
          <rect class="cls-3" x="165.2" y="110.53" width=".28" height="12.18" transform="translate(-34.04 151.07) rotate(-45)"/>
        </g>
        <g>
          <line class="cls-1" x1="169.65" y1="112.31" x2="161.03" y2="120.93"/>
          <rect class="cls-3" x="159.25" y="116.48" width="12.18" height=".28" transform="translate(-34.04 151.07) rotate(-45)"/>
        </g>
        <g>
          <circle class="cls-2" cx="169.96" cy="112.01" r=".39"/>
          <path class="cls-3" d="m169.96,112.54c-.29,0-.53-.24-.53-.53s.24-.53.53-.53.53.24.53.53-.24.53-.53.53Zm0-.79c-.14,0-.25.11-.25.25s.11.25.25.25.25-.11.25-.25-.11-.25-.25-.25Z"/>
        </g>
        <g>
          <circle class="cls-2" cx="160.66" cy="112.01" r=".39"/>
          <path class="cls-3" d="m160.66,112.54c-.29,0-.53-.24-.53-.53s.24-.53.53-.53.53.24.53.53-.24.53-.53.53Zm0-.79c-.14,0-.25.11-.25.25s.11.25.25.25.25-.11.25-.25-.11-.25-.25-.25Z"/>
        </g>
        <g>
          <circle class="cls-2" cx="160.7" cy="121.26" r=".39"/>
          <path class="cls-3" d="m160.7,121.8c-.29,0-.53-.24-.53-.53s.24-.53.53-.53.53.24.53.53-.24.53-.53.53Zm0-.79c-.14,0-.25.11-.25.25s.11.25.25.25.25-.11.25-.25-.11-.25-.25-.25Z"/>
        </g>
        <g>
          <circle class="cls-2" cx="169.96" cy="121.24" r=".39"/>
          <path class="cls-3" d="m169.96,121.77c-.29,0-.53-.24-.53-.53s.24-.53.53-.53.53.24.53.53-.24.53-.53.53Zm0-.79c-.14,0-.25.11-.25.25s.11.25.25.25.25-.11.25-.25-.11-.25-.25-.25Z"/>
        </g>
      </g>
      <g>
        <g>
          <rect class="cls-2" x="164.49" y="108.5" width="1.68" height=".69"/>
          <path class="cls-3" d="m166.31,109.32h-1.96v-.97h1.96v.97Zm-1.68-.28h1.4v-.4h-1.4v.4Z"/>
        </g>
        <g>
          <circle class="cls-2" cx="162.78" cy="108.84" r=".33"/>
          <path class="cls-3" d="m162.78,109.31c-.26,0-.47-.21-.47-.47s.21-.47.47-.47.47.21.47.47-.21.47-.47.47Zm0-.65c-.1,0-.18.08-.18.18s.08.18.18.18.18-.08.18-.18-.08-.18-.18-.18Z"/>
        </g>
        <g>
          <circle class="cls-2" cx="167.88" cy="108.84" r=".35"/>
          <path class="cls-3" d="m167.88,109.33c-.27,0-.49-.22-.49-.49s.22-.49.49-.49.49.22.49.49-.22.49-.49.49Zm0-.7c-.12,0-.21.09-.21.21s.09.21.21.21.21-.09.21-.21-.09-.21-.21-.21Z"/>
        </g>
      </g>
    </g>
  </g>
  <g>
    <g>
      <g>
        <path class="cls-10" d="m191.85,171.46c1.42-.16,2.84-.23,4.27-.27.02,0,.04,0,.07,0,0-.11.02-.22.03-.33.05-1.22.1-2.44.16-3.66.07-1.65.15-3.3.22-4.95.04-1,.09-2.01.13-3.01.07-1.67.15-3.35.22-5.02,0-.1,0-.2.01-.29,0-.14.08-.22.2-.23.13,0,.22.07.23.21.01.2.02.39.02.59.06,1.44.12,2.89.19,4.33.1,2.27.2,4.54.3,6.82.08,1.74.15,3.48.23,5.22,0,.11.01.21.02.33.31.01.6.02.9.03,1.72.06-8.19.35-7.21.24Z"/>
        <path class="cls-3" d="m192.22,171.61c-.56,0-.56-.04-.57-.13,0-.13.12-.14.18-.15h0c1.25-.14,2.59-.23,4.24-.27h0c0-.08.01-.15.02-.22l.06-1.41c.03-.75.06-1.5.1-2.25.04-.96.09-1.92.13-2.89l.45-10.21c0-.06,0-.12,0-.18.01-.2.14-.33.32-.34.19-.01.35.12.36.33,0,.13.01.25.02.38v.27c.07,1.42.13,2.85.2,4.27l.53,12.03c0,.07,0,.14.01.22l.79.03c.21,0,.32.01.32.14q0,.15-1.69.22c-1.05.04-2.53.09-3.78.12-.84.02-1.36.03-1.7.03Zm4.96-17.8s-.09,0-.09.11c0,.06,0,.12,0,.18l-.06,1.33-.39,8.89c-.04.96-.09,1.92-.13,2.88-.03.75-.06,1.5-.1,2.25l-.06,1.41c0,.08-.01.15-.02.23l-.02.17c.63-.02,1.23-.04,1.72-.06v-.09c-.01-.08-.02-.16-.02-.24l-.53-12.03c-.06-1.42-.12-2.85-.18-4.27v-.27c-.01-.12-.02-.25-.03-.37,0-.07-.04-.1-.09-.1Z"/>
      </g>
      <g>
        <path class="cls-10" d="m196.9,151.81c-.07-.34-.16-.67-.2-1.01-.09-.73-.18-1.46-.23-2.19-.09-1.3-.07-2.61.02-3.91.06-.88.15-1.77.4-2.63.05-.17.12-.34.19-.51.03-.06.11-.12.17-.12.11,0,.11.1.11.19,0,1.08,0,2.17,0,3.25,0,2.25,0,4.5,0,6.75,0,.12.02.19.14.25.16.08.26.23.32.4.01.04.05.1.09.11,1.17.36,2.27.89,3.34,1.47,1.43.77,2.82,1.61,4.08,2.64.34.28.64.6.95.91.05.05.1.11.12.18.02.06.03.16,0,.19-.03.03-.14.04-.19,0-.31-.17-.61-.35-.92-.52-2.47-1.43-4.95-2.86-7.42-4.29-.05-.03-.09-.05-.14-.08-.33.39-.82.44-1.22.04-.08.07-.16.14-.24.21-1.1.94-2.31,1.72-3.56,2.44-1.1.64-2.23,1.22-3.43,1.66-.41.15-.83.24-1.25.36-.06.02-.14.03-.2.01-.06-.01-.15-.05-.16-.09,0-.05.04-.14.08-.17.3-.18.6-.35.9-.53,2.53-1.46,5.07-2.92,7.6-4.39.08-.05.14-.1.17-.2.07-.24.25-.38.47-.47Z"/>
        <path class="cls-3" d="m206.32,157.96c-.06,0-.12-.01-.16-.04-.24-.13-.48-.27-.71-.4l-.21-.12-7.42-4.29s-.03-.02-.05-.03c-.18.18-.39.28-.61.29-.23,0-.44-.07-.63-.23-.05.05-.1.09-.16.14-.96.82-2.06,1.57-3.58,2.45-.91.52-2.12,1.19-3.45,1.67-.3.11-.61.19-.92.27-.12.03-.23.06-.35.09-.07.02-.17.04-.26.02,0,0-.24-.05-.26-.2-.01-.1.05-.24.14-.3.23-.14.46-.27.7-.41l.21-.12c2.53-1.46,5.07-2.92,7.6-4.39.07-.04.1-.07.11-.13.06-.22.21-.39.44-.5-.02-.07-.03-.15-.05-.22-.05-.23-.1-.46-.13-.7-.1-.78-.18-1.48-.23-2.2-.08-1.25-.08-2.54.02-3.93.06-.81.14-1.74.4-2.65.05-.17.12-.35.2-.53.04-.09.17-.19.29-.19h0c.23,0,.23.24.23.31v4.48c0,1.84,0,3.68,0,5.52,0,.1.01.11.07.14.18.09.31.25.38.47,0,.01.02.03.02.04,1.24.38,2.39.96,3.35,1.47,1.68.9,2.98,1.75,4.1,2.66.25.2.48.44.7.66.09.09.17.18.26.26.05.05.12.13.15.23.01.04.07.22-.03.32-.04.05-.12.07-.19.07Zm-8.61-5.19l.14.07s.06.03.1.05l7.63,4.41c.23.14.47.27.71.4,0,0,.01,0,.02,0,0-.02,0-.04-.01-.05-.01-.04-.05-.09-.09-.13-.09-.09-.18-.17-.26-.26-.22-.22-.44-.45-.68-.64-1.1-.9-2.39-1.74-4.06-2.63-.95-.51-2.09-1.09-3.32-1.46-.09-.03-.15-.11-.18-.19-.06-.17-.14-.27-.26-.33-.18-.09-.21-.23-.21-.37,0-1.84,0-3.68,0-5.52v-4.48s0-.04,0-.06c-.02.01-.04.03-.04.04-.08.16-.14.33-.19.49-.25.88-.34,1.81-.39,2.6-.1,1.38-.11,2.65-.02,3.89.05.71.13,1.41.23,2.18.03.22.08.44.13.68.02.11.05.22.07.33l.02.1-.1.04c-.21.08-.34.21-.39.39-.05.15-.14.22-.23.27-2.53,1.46-5.07,2.92-7.6,4.39l-.21.12c-.23.13-.46.27-.69.41,0,0,0,.01-.01.02.01,0,.03.01.04.01.04,0,.09,0,.15-.01.12-.03.23-.06.35-.09.3-.08.6-.16.89-.26,1.31-.48,2.51-1.14,3.41-1.65,1.51-.87,2.6-1.62,3.55-2.42.06-.05.12-.1.17-.15l.15-.13.08.08c.17.16.35.24.54.24.18,0,.35-.1.5-.27l.07-.08Z"/>
      </g>
    </g>
    <g>
      <g>
        <path class="cls-12" d="m199.81,169.63h-5.47c-.8,0-1.45.25-1.45-1.45s0,0,0,0c0-.8-.02-1.45,1.45-1.45h5.47c1.59,0,1.45.65,1.45,1.45,0,0,0-1.68,0,0s-.65,1.45-1.45,1.45Z"/>
        <path class="cls-3" d="m200.51,169.77h-6.87c-.49,0-.89-.4-.89-.89v-1.4c0-.49.4-.89.89-.89h6.87c.49,0,.89.4.89.89v1.4c0,.49-.4.89-.89.89Zm-6.87-2.89c-.33,0-.61.27-.61.61v1.4c0,.34.27.61.61.61h6.87c.33,0,.61-.27.61-.61v-1.4c0-.33-.27-.61-.61-.61h-6.87Z"/>
      </g>
      <g>
        <rect class="cls-1" x="190.22" y="168.61" width="13.69" height="13.69" rx="1.78" ry="1.78"/>
        <path class="cls-3" d="m202.08,182.44h-10.02c-1.09,0-1.98-.89-1.98-1.98v-10.02c0-1.09.89-1.98,1.98-1.98h10.02c1.09,0,1.98.89,1.98,1.98v10.02c0,1.09-.89,1.98-1.98,1.98Zm-10.02-13.69c-.93,0-1.69.76-1.69,1.69v10.02c0,.93.76,1.69,1.69,1.69h10.02c.93,0,1.69-.76,1.69-1.69v-10.02c0-.93-.76-1.69-1.69-1.69h-10.02Z"/>
      </g>
      <g>
        <g>
          <circle class="cls-9" cx="197.07" cy="175.46" r="5.3"/>
          <path class="cls-3" d="m197.07,180.9c-3,0-5.44-2.44-5.44-5.44s2.44-5.44,5.44-5.44,5.44,2.44,5.44,5.44-2.44,5.44-5.44,5.44Zm0-10.59c-2.84,0-5.16,2.31-5.16,5.16s2.31,5.16,5.16,5.16,5.16-2.31,5.16-5.16-2.31-5.16-5.16-5.16Z"/>
        </g>
        <g>
          <circle class="cls-9" cx="197.07" cy="175.46" r="3.83"/>
          <path class="cls-3" d="m197.07,179.43c-2.19,0-3.97-1.78-3.97-3.97s1.78-3.97,3.97-3.97,3.97,1.78,3.97,3.97-1.78,3.97-3.97,3.97Zm0-7.66c-2.03,0-3.69,1.65-3.69,3.69s1.65,3.69,3.69,3.69,3.69-1.65,3.69-3.69-1.65-3.69-3.69-3.69Z"/>
        </g>
        <g>
          <circle class="cls-9" cx="197.07" cy="175.46" r="2.3"/>
          <path class="cls-3" d="m197.07,177.9c-1.35,0-2.44-1.1-2.44-2.44s1.1-2.44,2.44-2.44,2.44,1.1,2.44,2.44-1.1,2.44-2.44,2.44Zm0-4.61c-1.19,0-2.16.97-2.16,2.16s.97,2.16,2.16,2.16,2.16-.97,2.16-2.16-.97-2.16-2.16-2.16Z"/>
        </g>
        <g>
          <line class="cls-1" x1="192.76" y1="171.15" x2="201.38" y2="179.76"/>
          <rect class="cls-3" x="196.93" y="169.37" width=".28" height="12.18" transform="translate(-66.35 190.74) rotate(-45)"/>
        </g>
        <g>
          <line class="cls-1" x1="201.38" y1="171.15" x2="192.76" y2="179.76"/>
          <rect class="cls-3" x="190.98" y="175.32" width="12.18" height=".28" transform="translate(-66.35 190.74) rotate(-45)"/>
        </g>
        <g>
          <circle class="cls-2" cx="201.69" cy="170.84" r=".39"/>
          <path class="cls-3" d="m201.69,171.38c-.29,0-.53-.24-.53-.53s.24-.53.53-.53.53.24.53.53-.24.53-.53.53Zm0-.79c-.14,0-.25.11-.25.25s.11.25.25.25.25-.11.25-.25-.11-.25-.25-.25Z"/>
        </g>
        <g>
          <circle class="cls-2" cx="192.39" cy="170.84" r=".39"/>
          <path class="cls-3" d="m192.39,171.38c-.29,0-.53-.24-.53-.53s.24-.53.53-.53.53.24.53.53-.24.53-.53.53Zm0-.79c-.14,0-.25.11-.25.25s.11.25.25.25.25-.11.25-.25-.11-.25-.25-.25Z"/>
        </g>
        <g>
          <circle class="cls-2" cx="192.43" cy="180.1" r=".39"/>
          <path class="cls-3" d="m192.43,180.63c-.29,0-.53-.24-.53-.53s.24-.53.53-.53.53.24.53.53-.24.53-.53.53Zm0-.79c-.14,0-.25.11-.25.25s.11.25.25.25.25-.11.25-.25-.11-.25-.25-.25Z"/>
        </g>
        <g>
          <circle class="cls-2" cx="201.69" cy="180.07" r=".39"/>
          <path class="cls-3" d="m201.69,180.61c-.29,0-.53-.24-.53-.53s.24-.53.53-.53.53.24.53.53-.24.53-.53.53Zm0-.79c-.14,0-.25.11-.25.25s.11.25.25.25.25-.11.25-.25-.11-.25-.25-.25Z"/>
        </g>
      </g>
      <g>
        <g>
          <rect class="cls-2" x="196.22" y="167.33" width="1.68" height=".69"/>
          <path class="cls-3" d="m198.04,168.16h-1.96v-.97h1.96v.97Zm-1.68-.28h1.4v-.4h-1.4v.4Z"/>
        </g>
        <g>
          <circle class="cls-2" cx="194.51" cy="167.67" r=".33"/>
          <path class="cls-3" d="m194.51,168.14c-.26,0-.47-.21-.47-.47s.21-.47.47-.47.47.21.47.47-.21.47-.47.47Zm0-.65c-.1,0-.18.08-.18.18s.08.18.18.18.18-.08.18-.18-.08-.18-.18-.18Z"/>
        </g>
        <g>
          <circle class="cls-2" cx="199.61" cy="167.67" r=".35"/>
          <path class="cls-3" d="m199.61,168.17c-.27,0-.49-.22-.49-.49s.22-.49.49-.49.49.22.49.49-.22.49-.49.49Zm0-.7c-.12,0-.21.09-.21.21s.09.21.21.21.21-.09.21-.21-.09-.21-.21-.21Z"/>
        </g>
      </g>
    </g>
  </g>
  <g>
    <g>
      <g>
        <path class="cls-10" d="m80.33,141.67c1.42-.16,2.84-.23,4.27-.27.02,0,.04,0,.07,0,0-.11.02-.22.03-.33.05-1.22.1-2.44.16-3.66.07-1.65.15-3.3.22-4.95.04-1,.09-2.01.13-3.01.07-1.67.15-3.35.22-5.02,0-.1,0-.2.01-.29,0-.14.08-.22.2-.23.13,0,.22.07.23.21.01.2.02.39.02.59.06,1.44.12,2.89.19,4.33.1,2.27.2,4.54.3,6.82.08,1.74.15,3.48.23,5.22,0,.11.01.21.02.33.31.01.6.02.9.03,1.72.06-8.19.35-7.21.24Z"/>
        <path class="cls-3" d="m80.7,141.83c-.55,0-.56-.04-.56-.13,0-.13.12-.14.18-.15h0c1.25-.14,2.59-.23,4.24-.27,0-.07.01-.15.02-.22l.16-3.66c.04-.88.08-1.76.12-2.64l.46-10.46c0-.06,0-.12,0-.18.01-.2.14-.33.32-.34.2,0,.35.12.36.33,0,.13.01.26.02.4l.05,1.3.67,15.26c0,.07,0,.14.01.21h0s.79.04.79.04c.21,0,.32.01.32.14q0,.15-1.73.22c-1.05.04-2.53.09-3.76.12-.83.02-1.35.03-1.68.03Zm4.96-17.8s0,0,0,0c-.02,0-.08,0-.09.11,0,.06,0,.11,0,.17l-.08,1.74-.38,8.72c-.04.88-.08,1.76-.12,2.64l-.16,3.66c0,.08-.01.16-.02.24v.17c.62-.02,1.22-.04,1.71-.06v-.12c-.01-.07-.02-.14-.02-.21l-.73-16.56c0-.13,0-.26-.02-.39,0-.07-.04-.1-.09-.1Z"/>
      </g>
      <g>
        <path class="cls-10" d="m85.38,122.02c-.07-.34-.16-.67-.2-1.01-.09-.73-.18-1.46-.23-2.19-.09-1.3-.07-2.61.02-3.91.06-.88.15-1.77.4-2.63.05-.17.12-.34.19-.51.03-.06.11-.12.17-.12.11,0,.11.1.11.19,0,1.08,0,2.17,0,3.25,0,2.25,0,4.5,0,6.75,0,.12.02.19.14.25.16.08.26.23.32.4.01.04.05.1.09.11,1.17.36,2.27.89,3.34,1.47,1.43.77,2.82,1.61,4.08,2.64.34.28.64.6.95.91.05.05.1.11.12.18.02.06.03.16,0,.19-.03.03-.14.04-.19,0-.31-.17-.61-.35-.92-.52-2.47-1.43-4.95-2.86-7.42-4.29-.05-.03-.09-.05-.14-.08-.33.39-.82.44-1.22.04-.08.07-.16.14-.24.21-1.1.94-2.31,1.72-3.56,2.44-1.1.64-2.23,1.22-3.43,1.66-.41.15-.83.24-1.25.36-.06.02-.14.03-.2.01-.06-.01-.15-.05-.16-.09,0-.05.04-.14.08-.17.3-.18.6-.35.9-.53,2.53-1.46,5.07-2.92,7.6-4.39.08-.05.14-.1.17-.2.07-.24.25-.38.47-.47Z"/>
        <path class="cls-3" d="m94.8,128.17c-.06,0-.12-.01-.16-.03-.23-.13-.46-.26-.7-.4l-7.65-4.42s-.03-.02-.05-.03c-.18.18-.39.28-.61.29-.23.01-.44-.07-.64-.23l-.16.14c-.96.82-2.06,1.57-3.58,2.45-.91.52-2.12,1.19-3.45,1.67-.3.11-.61.19-.92.27-.12.03-.23.06-.35.09-.07.02-.17.04-.26.02,0,0-.24-.05-.26-.2-.01-.1.05-.24.14-.3.22-.14.45-.27.68-.4l.22-.13c2.53-1.46,5.07-2.92,7.6-4.39.07-.04.1-.07.11-.13.07-.22.21-.39.44-.5-.02-.07-.03-.15-.05-.22-.05-.23-.1-.47-.13-.7-.1-.78-.18-1.48-.23-2.2-.08-1.25-.08-2.54.02-3.93.06-.81.14-1.74.4-2.65.05-.17.12-.35.2-.53.04-.09.17-.19.28-.19h0c.23,0,.23.24.23.31v4.48c0,1.84,0,3.68,0,5.52,0,.1.01.11.07.14.18.09.31.25.38.47,0,.01.02.03.02.04,1.24.37,2.39.96,3.35,1.47,1.68.9,2.98,1.75,4.1,2.66.25.21.48.44.71.67.08.08.17.17.25.25.05.05.12.13.15.23,0,.02.07.21-.03.32-.04.05-.12.07-.19.07Zm-8.6-5.19l.13.07s.07.03.1.05l7.65,4.42c.23.13.46.27.69.39,0,0,.01,0,.03,0,0-.02,0-.04-.01-.05-.02-.04-.05-.09-.09-.13-.09-.09-.17-.17-.26-.26-.22-.22-.45-.45-.69-.65-1.1-.9-2.39-1.74-4.06-2.63-.95-.51-2.09-1.09-3.32-1.46-.09-.03-.15-.11-.18-.19-.06-.16-.14-.27-.26-.33-.18-.09-.21-.23-.21-.36,0-1.84,0-3.68,0-5.52v-4.48s0-.04,0-.06c-.02.01-.04.03-.04.04-.08.16-.14.33-.19.48-.25.88-.34,1.81-.39,2.6-.1,1.38-.11,2.65-.02,3.89.05.71.13,1.41.23,2.18.03.23.08.45.13.68.02.11.05.21.07.32l.02.1-.1.04c-.21.08-.34.21-.39.39-.04.15-.14.22-.23.27-2.53,1.46-5.07,2.92-7.6,4.39l-.22.13c-.23.13-.45.26-.68.4,0,0,0,.01-.01.02.01,0,.03.01.05.01.04,0,.09,0,.15-.01.12-.03.23-.06.35-.09.3-.08.6-.16.89-.26,1.31-.48,2.51-1.14,3.41-1.65,1.51-.87,2.6-1.61,3.55-2.42l.33-.28.08.08c.17.16.35.25.54.24.18,0,.35-.1.5-.27l.07-.08Z"/>
      </g>
    </g>
    <g>
      <g>
        <path class="cls-12" d="m88.28,139.84h-5.47c-.8,0-1.45.25-1.45-1.45s0,0,0,0c0-.8-.02-1.45,1.45-1.45h5.47c1.59,0,1.45.65,1.45,1.45,0,0,0-1.68,0,0s-.65,1.45-1.45,1.45Z"/>
        <path class="cls-3" d="m88.98,139.98h-6.87c-.49,0-.89-.4-.89-.89v-1.4c0-.49.4-.89.89-.89h6.87c.49,0,.89.4.89.89v1.4c0,.49-.4.89-.89.89Zm-6.87-2.89c-.33,0-.61.27-.61.61v1.4c0,.34.27.61.61.61h6.87c.33,0,.61-.27.61-.61v-1.4c0-.33-.27-.61-.61-.61h-6.87Z"/>
      </g>
      <g>
        <rect class="cls-1" x="78.7" y="138.82" width="13.69" height="13.69" rx="1.78" ry="1.78"/>
        <path class="cls-3" d="m90.56,152.66h-10.02c-1.09,0-1.98-.89-1.98-1.98v-10.02c0-1.09.89-1.98,1.98-1.98h10.02c1.09,0,1.98.89,1.98,1.98v10.02c0,1.09-.89,1.98-1.98,1.98Zm-10.02-13.69c-.93,0-1.69.76-1.69,1.69v10.02c0,.93.76,1.69,1.69,1.69h10.02c.93,0,1.69-.76,1.69-1.69v-10.02c0-.93-.76-1.69-1.69-1.69h-10.02Z"/>
      </g>
      <g>
        <g>
          <circle class="cls-9" cx="85.55" cy="145.67" r="5.3"/>
          <path class="cls-3" d="m85.55,151.11c-3,0-5.44-2.44-5.44-5.44s2.44-5.44,5.44-5.44,5.44,2.44,5.44,5.44-2.44,5.44-5.44,5.44Zm0-10.59c-2.84,0-5.16,2.31-5.16,5.16s2.31,5.16,5.16,5.16,5.16-2.31,5.16-5.16-2.31-5.16-5.16-5.16Z"/>
        </g>
        <g>
          <circle class="cls-9" cx="85.55" cy="145.67" r="3.83"/>
          <path class="cls-3" d="m85.55,149.64c-2.19,0-3.97-1.78-3.97-3.97s1.78-3.97,3.97-3.97,3.97,1.78,3.97,3.97-1.78,3.97-3.97,3.97Zm0-7.66c-2.03,0-3.69,1.65-3.69,3.69s1.65,3.69,3.69,3.69,3.69-1.65,3.69-3.69-1.65-3.69-3.69-3.69Z"/>
        </g>
        <g>
          <circle class="cls-9" cx="85.55" cy="145.67" r="2.3"/>
          <path class="cls-3" d="m85.55,148.11c-1.35,0-2.44-1.1-2.44-2.44s1.1-2.44,2.44-2.44,2.44,1.1,2.44,2.44-1.1,2.44-2.44,2.44Zm0-4.61c-1.19,0-2.16.97-2.16,2.16s.97,2.16,2.16,2.16,2.16-.97,2.16-2.16-.97-2.16-2.16-2.16Z"/>
        </g>
        <g>
          <line class="cls-1" x1="81.24" y1="141.36" x2="89.85" y2="149.98"/>
          <rect class="cls-3" x="85.4" y="139.58" width=".28" height="12.18" transform="translate(-77.95 103.15) rotate(-45)"/>
        </g>
        <g>
          <line class="cls-1" x1="89.85" y1="141.36" x2="81.24" y2="149.98"/>
          <rect class="cls-3" x="79.45" y="145.53" width="12.18" height=".28" transform="translate(-77.95 103.16) rotate(-45)"/>
        </g>
        <g>
          <circle class="cls-2" cx="90.16" cy="141.06" r=".39"/>
          <path class="cls-3" d="m90.16,141.59c-.29,0-.53-.24-.53-.53s.24-.53.53-.53.53.24.53.53-.24.53-.53.53Zm0-.79c-.14,0-.25.11-.25.25s.11.25.25.25.25-.11.25-.25-.11-.25-.25-.25Z"/>
        </g>
        <g>
          <circle class="cls-2" cx="80.86" cy="141.06" r=".39"/>
          <path class="cls-3" d="m80.86,141.59c-.29,0-.53-.24-.53-.53s.24-.53.53-.53.53.24.53.53-.24.53-.53.53Zm0-.79c-.14,0-.25.11-.25.25s.11.25.25.25.25-.11.25-.25-.11-.25-.25-.25Z"/>
        </g>
        <g>
          <circle class="cls-2" cx="80.9" cy="150.31" r=".39"/>
          <path class="cls-3" d="m80.9,150.85c-.29,0-.53-.24-.53-.53s.24-.53.53-.53.53.24.53.53-.24.53-.53.53Zm0-.79c-.14,0-.25.11-.25.25s.11.25.25.25.25-.11.25-.25-.11-.25-.25-.25Z"/>
        </g>
        <g>
          <circle class="cls-2" cx="90.16" cy="150.29" r=".39"/>
          <path class="cls-3" d="m90.16,150.82c-.29,0-.53-.24-.53-.53s.24-.53.53-.53.53.24.53.53-.24.53-.53.53Zm0-.79c-.14,0-.25.11-.25.25s.11.25.25.25.25-.11.25-.25-.11-.25-.25-.25Z"/>
        </g>
      </g>
      <g>
        <g>
          <rect class="cls-2" x="84.69" y="137.54" width="1.68" height=".69"/>
          <path class="cls-3" d="m86.51,138.37h-1.96v-.97h1.96v.97Zm-1.68-.28h1.4v-.4h-1.4v.4Z"/>
        </g>
        <g>
          <circle class="cls-2" cx="82.98" cy="137.89" r=".33"/>
          <path class="cls-3" d="m82.98,138.35c-.26,0-.47-.21-.47-.47s.21-.47.47-.47.47.21.47.47-.21.47-.47.47Zm0-.65c-.1,0-.18.08-.18.18s.08.18.18.18.18-.08.18-.18-.08-.18-.18-.18Z"/>
        </g>
        <g>
          <circle class="cls-2" cx="88.08" cy="137.89" r=".35"/>
          <path class="cls-3" d="m88.08,138.38c-.27,0-.49-.22-.49-.49s.22-.49.49-.49.49.22.49.49-.22.49-.49.49Zm0-.7c-.12,0-.21.09-.21.21s.09.21.21.21.21-.09.21-.21-.09-.21-.21-.21Z"/>
        </g>
      </g>
    </g>
  </g>
  <g>
    <g>
      <g>
        <g>
          <rect class="cls-10" x="121.67" y="146.13" width="16.3" height="11.38" rx="1.42" ry="1.42"/>
          <path class="cls-3" d="m136.56,157.64h-13.47c-.85,0-1.54-.69-1.54-1.54v-8.55c0-.85.69-1.54,1.54-1.54h13.47c.85,0,1.54.69,1.54,1.54v8.55c0,.85-.69,1.54-1.54,1.54Zm-13.47-11.38c-.71,0-1.29.58-1.29,1.29v8.55c0,.71.58,1.29,1.29,1.29h13.47c.71,0,1.29-.58,1.29-1.29v-8.55c0-.71-.58-1.29-1.29-1.29h-13.47Z"/>
        </g>
        <path class="cls-3" d="m136.36,157.82h-13.07c-1.06,0-1.92-.86-1.92-1.92v-8.15c0-1.06.86-1.92,1.92-1.92h13.07c1.06,0,1.92.86,1.92,1.92v8.15c0,1.06-.86,1.92-1.92,1.92Zm-13.07-11.38c-.73,0-1.32.59-1.32,1.32v8.15c0,.73.59,1.32,1.32,1.32h13.07c.73,0,1.32-.59,1.32-1.32v-8.15c0-.73-.59-1.32-1.32-1.32h-13.07Z"/>
      </g>
      <rect class="cls-3" x="122.61" y="147.15" width="14.33" height="9.36" rx="1.21" ry="1.21"/>
      <rect class="cls-10" x="125.77" y="147.01" width=".6" height="9.62"/>
      <rect class="cls-10" x="129.47" y="147.01" width=".6" height="9.62"/>
      <rect class="cls-10" x="133.18" y="147.01" width=".6" height="9.62"/>
      <rect class="cls-10" x="122.53" y="150.22" width="14.49" height=".6"/>
      <rect class="cls-10" x="122.53" y="153.29" width="14.49" height=".6"/>
    </g>
    <g>
      <rect class="cls-3" x="129.23" y="157.52" width=".97" height="2.95"/>
      <rect class="cls-3" x="126.77" y="160.07" width="5.91" height=".94"/>
    </g>
  </g>
  <g>
    <g>
      <path class="cls-12" d="m132.57,162.64h-5.47c-.8,0-1.45.25-1.45-1.45s0,0,0,0c0-.8-.02-1.45,1.45-1.45h5.47c1.59,0,1.45.65,1.45,1.45,0,0,0-1.68,0,0s-.65,1.45-1.45,1.45Z"/>
      <path class="cls-3" d="m133.27,162.78h-6.87c-.49,0-.89-.4-.89-.89v-1.4c0-.49.4-.89.89-.89h6.87c.49,0,.89.4.89.89v1.4c0,.49-.4.89-.89.89Zm-6.87-2.89c-.33,0-.61.27-.61.61v1.4c0,.34.27.61.61.61h6.87c.33,0,.61-.27.61-.61v-1.4c0-.33-.27-.61-.61-.61h-6.87Z"/>
    </g>
    <g>
      <rect class="cls-1" x="122.99" y="161.62" width="13.69" height="13.69" rx="1.78" ry="1.78"/>
      <path class="cls-3" d="m134.85,175.46h-10.02c-1.09,0-1.98-.89-1.98-1.98v-10.02c0-1.09.89-1.98,1.98-1.98h10.02c1.09,0,1.98.89,1.98,1.98v10.02c0,1.09-.89,1.98-1.98,1.98Zm-10.02-13.69c-.93,0-1.69.76-1.69,1.69v10.02c0,.93.76,1.69,1.69,1.69h10.02c.93,0,1.69-.76,1.69-1.69v-10.02c0-.93-.76-1.69-1.69-1.69h-10.02Z"/>
    </g>
    <g>
      <g>
        <circle class="cls-9" cx="129.84" cy="168.47" r="5.3"/>
        <path class="cls-3" d="m129.84,173.91c-3,0-5.44-2.44-5.44-5.44s2.44-5.44,5.44-5.44,5.44,2.44,5.44,5.44-2.44,5.44-5.44,5.44Zm0-10.59c-2.84,0-5.16,2.31-5.16,5.16s2.31,5.16,5.16,5.16,5.16-2.31,5.16-5.16-2.31-5.16-5.16-5.16Z"/>
      </g>
      <g>
        <circle class="cls-9" cx="129.84" cy="168.47" r="3.83"/>
        <path class="cls-3" d="m129.84,172.44c-2.19,0-3.97-1.78-3.97-3.97s1.78-3.97,3.97-3.97,3.97,1.78,3.97,3.97-1.78,3.97-3.97,3.97Zm0-7.66c-2.03,0-3.69,1.65-3.69,3.69s1.65,3.69,3.69,3.69,3.69-1.65,3.69-3.69-1.65-3.69-3.69-3.69Z"/>
      </g>
      <g>
        <circle class="cls-9" cx="129.84" cy="168.47" r="2.3"/>
        <path class="cls-3" d="m129.84,170.91c-1.35,0-2.44-1.1-2.44-2.44s1.1-2.44,2.44-2.44,2.44,1.1,2.44,2.44-1.1,2.44-2.44,2.44Zm0-4.61c-1.19,0-2.16.97-2.16,2.16s.97,2.16,2.16,2.16,2.16-.97,2.16-2.16-.97-2.16-2.16-2.16Z"/>
      </g>
      <g>
        <line class="cls-1" x1="125.53" y1="164.16" x2="134.14" y2="172.78"/>
        <rect class="cls-3" x="129.7" y="162.38" width=".28" height="12.18" transform="translate(-81.1 141.15) rotate(-45)"/>
      </g>
      <g>
        <line class="cls-1" x1="134.14" y1="164.16" x2="125.53" y2="172.78"/>
        <rect class="cls-3" x="123.75" y="168.33" width="12.18" height=".28" transform="translate(-81.1 141.15) rotate(-45)"/>
      </g>
      <g>
        <circle class="cls-2" cx="134.45" cy="163.86" r=".39"/>
        <path class="cls-3" d="m134.45,164.39c-.29,0-.53-.24-.53-.53s.24-.53.53-.53.53.24.53.53-.24.53-.53.53Zm0-.79c-.14,0-.25.11-.25.25s.11.25.25.25.25-.11.25-.25-.11-.25-.25-.25Z"/>
      </g>
      <g>
        <circle class="cls-2" cx="125.15" cy="163.86" r=".39"/>
        <path class="cls-3" d="m125.15,164.39c-.29,0-.53-.24-.53-.53s.24-.53.53-.53.53.24.53.53-.24.53-.53.53Zm0-.79c-.14,0-.25.11-.25.25s.11.25.25.25.25-.11.25-.25-.11-.25-.25-.25Z"/>
      </g>
      <g>
        <circle class="cls-2" cx="125.2" cy="173.11" r=".39"/>
        <path class="cls-3" d="m125.2,173.65c-.29,0-.53-.24-.53-.53s.24-.53.53-.53.53.24.53.53-.24.53-.53.53Zm0-.79c-.14,0-.25.11-.25.25s.11.25.25.25.25-.11.25-.25-.11-.25-.25-.25Z"/>
      </g>
      <g>
        <circle class="cls-2" cx="134.45" cy="173.09" r=".39"/>
        <path class="cls-3" d="m134.45,173.62c-.29,0-.53-.24-.53-.53s.24-.53.53-.53.53.24.53.53-.24.53-.53.53Zm0-.79c-.14,0-.25.11-.25.25s.11.25.25.25.25-.11.25-.25-.11-.25-.25-.25Z"/>
      </g>
    </g>
    <g>
      <g>
        <rect class="cls-2" x="128.98" y="160.34" width="1.68" height=".69"/>
        <path class="cls-3" d="m130.81,161.17h-1.96v-.97h1.96v.97Zm-1.68-.28h1.4v-.4h-1.4v.4Z"/>
      </g>
      <g>
        <circle class="cls-2" cx="127.27" cy="160.69" r=".33"/>
        <path class="cls-3" d="m127.27,161.15c-.26,0-.47-.21-.47-.47s.21-.47.47-.47.47.21.47.47-.21.47-.47.47Zm0-.65c-.1,0-.18.08-.18.18s.08.18.18.18.18-.08.18-.18-.08-.18-.18-.18Z"/>
      </g>
      <g>
        <circle class="cls-2" cx="132.37" cy="160.69" r=".35"/>
        <path class="cls-3" d="m132.37,161.18c-.27,0-.49-.22-.49-.49s.22-.49.49-.49.49.22.49.49-.22.49-.49.49Zm0-.7c-.12,0-.21.09-.21.21s.09.21.21.21.21-.09.21-.21-.09-.21-.21-.21Z"/>
      </g>
    </g>
  </g>
  <path class="cls-8" d="m173.46,31.65c-.23.1-.42.2-.63.27-.07.02-.13.08-.19.11-.23.1-.46.22-.7.31-.12.05-.23.11-.35.16-.34.16-.69.32-1.03.47-.11.05-.12.05-.16-.07-.12-.37-.26-.72-.4-1.08-.12-.31-.22-.63-.35-.94-.09-.22-.17-.46-.25-.69,0-.02-.02-.04-.02-.07.41.3.83.6,1.25.9.53-1.08,1.06-2.16,1.59-3.24-.04-.03-.08,0-.12,0-.68.2-1.35.4-2.03.6-.35.1-.7.21-1.04.31-.02,0-.05.04-.07,0-.02-.02,0-.05.02-.07.12-.33.25-.65.38-.97.09-.24.18-.48.27-.71.12-.32.26-.63.37-.96.08-.22.18-.44.25-.66.05-.16.13-.31.19-.47.1-.27.21-.54.31-.82.08-.2.15-.4.23-.61.1-.27.21-.53.31-.8.09-.24.19-.48.28-.72.02-.04.02-.07.07-.03.13.1.27.19.39.29.14.12.29.22.42.34.19.17.41.3.61.47.12.1.25.19.37.29.08.06.02.11,0,.15-.28.38-.55.76-.82,1.15-.13.18-.26.35-.39.53-.12.16-.24.33-.35.5-.07.12-.17.22-.25.34-.27.37-.54.74-.8,1.12-.04.06-.11.11-.13.2.14-.05.26-.11.39-.15.23-.07.46-.16.68-.25.54-.22,1.08-.41,1.62-.62.28-.11.56-.21.84-.31.02,0,.05-.04.08,0,.02.03,0,.05-.02.08-.17.35-.34.69-.5,1.05-.12.28-.25.55-.37.83-.17.38-.34.76-.52,1.13-.16.33-.3.66-.46.99-.14.3-.27.6-.4.9-.05.12-.11.25-.2.36-.03.03-.04.09-.05.13,0,.03.01.03.04.04.05,0,.09.02.14.03.22.03.45.05.67.08.28.04.56.08.88.12Z"/>
  <path class="cls-8" d="m77.76,139.7c-.23.1-.42.2-.63.27-.07.02-.13.08-.19.11-.23.1-.46.22-.7.31-.12.05-.23.11-.35.16-.34.16-.69.32-1.03.47-.11.05-.12.05-.16-.07-.12-.37-.26-.72-.4-1.08-.12-.31-.22-.63-.35-.94-.09-.22-.17-.46-.25-.69,0-.02-.02-.04-.02-.07.41.3.83.6,1.25.9.53-1.08,1.06-2.16,1.59-3.24-.04-.03-.08,0-.12,0-.68.2-1.35.4-2.03.6-.35.1-.7.21-1.04.31-.02,0-.05.04-.07,0-.02-.02,0-.05.02-.07.12-.33.25-.65.38-.97.09-.24.18-.48.27-.71.12-.32.26-.63.37-.96.08-.22.18-.44.25-.66.05-.16.13-.31.19-.47.1-.27.21-.54.31-.82.08-.2.15-.4.23-.61.1-.27.21-.53.31-.8.09-.24.19-.48.28-.72.02-.04.02-.07.07-.03.13.1.27.19.39.29.14.12.29.22.42.34.19.17.41.3.61.47.12.1.25.19.37.29.08.06.02.11,0,.15-.28.38-.55.76-.82,1.15-.13.18-.26.35-.39.53-.12.16-.24.33-.35.5-.07.12-.17.22-.25.34-.27.37-.54.74-.8,1.12-.04.06-.11.11-.13.2.14-.05.26-.11.39-.15.23-.07.46-.16.68-.25.54-.22,1.08-.41,1.62-.62.28-.11.56-.21.84-.31.02,0,.05-.04.08,0,.02.03,0,.05-.02.08-.17.35-.34.69-.5,1.05-.12.28-.25.55-.37.83-.17.38-.34.76-.52,1.13-.16.33-.3.66-.46.99-.14.3-.27.6-.4.9-.05.12-.11.25-.2.36-.03.03-.04.09-.05.13,0,.03.01.03.04.04.05,0,.09.02.14.03.22.03.45.05.67.08.28.04.56.08.88.12Z"/>
  <path class="cls-8" d="m143.75,163.83c-.23.1-.42.2-.63.27-.07.02-.13.08-.19.11-.23.1-.46.22-.7.31-.12.05-.23.11-.35.16-.34.16-.69.32-1.03.47-.11.05-.12.05-.16-.07-.12-.37-.26-.72-.4-1.08-.12-.31-.22-.63-.35-.94-.09-.22-.17-.46-.25-.69,0-.02-.02-.04-.02-.07.41.3.83.6,1.25.9.53-1.08,1.06-2.16,1.59-3.24-.04-.03-.08,0-.12,0-.68.2-1.35.4-2.03.6-.35.1-.7.21-1.04.31-.02,0-.05.04-.07,0-.02-.02,0-.05.02-.07.12-.33.25-.65.38-.97.09-.24.18-.48.27-.71.12-.32.26-.63.37-.96.08-.22.18-.44.25-.66.05-.16.13-.31.19-.47.1-.27.21-.54.31-.82.08-.2.15-.4.23-.61.1-.27.21-.53.31-.8.09-.24.19-.48.28-.72.02-.04.02-.07.07-.03.13.1.27.19.39.29.14.12.29.22.42.34.19.17.41.3.61.47.12.1.25.19.37.29.08.06.02.11,0,.15-.28.38-.55.76-.82,1.15-.13.18-.26.35-.39.53-.12.16-.24.33-.35.5-.07.12-.17.22-.25.34-.27.37-.54.74-.8,1.12-.04.06-.11.11-.13.2.14-.05.26-.11.39-.15.23-.07.46-.16.68-.25.54-.22,1.08-.41,1.62-.62.28-.11.56-.21.84-.31.02,0,.05-.04.08,0,.02.03,0,.05-.02.08-.17.35-.34.69-.5,1.05-.12.28-.25.55-.37.83-.17.38-.34.76-.52,1.13-.16.33-.3.66-.46.99-.14.3-.27.6-.4.9-.05.12-.11.25-.2.36-.03.03-.04.09-.05.13,0,.03.01.03.04.04.05,0,.09.02.14.03.22.03.45.05.67.08.28.04.56.08.88.12Z"/>
  <g>
    <g>
      <g>
        <g>
          <rect class="cls-10" x="206.74" y="93.52" width="16.3" height="11.38" rx="1.42" ry="1.42"/>
          <path class="cls-3" d="m221.63,105.03h-13.47c-.85,0-1.54-.69-1.54-1.54v-8.55c0-.85.69-1.54,1.54-1.54h13.47c.85,0,1.54.69,1.54,1.54v8.55c0,.85-.69,1.54-1.54,1.54Zm-13.47-11.38c-.71,0-1.29.58-1.29,1.29v8.55c0,.71.58,1.29,1.29,1.29h13.47c.71,0,1.29-.58,1.29-1.29v-8.55c0-.71-.58-1.29-1.29-1.29h-13.47Z"/>
        </g>
        <path class="cls-3" d="m221.43,105.21h-13.07c-1.06,0-1.92-.86-1.92-1.92v-8.15c0-1.06.86-1.92,1.92-1.92h13.07c1.06,0,1.92.86,1.92,1.92v8.15c0,1.06-.86,1.92-1.92,1.92Zm-13.07-11.38c-.73,0-1.32.59-1.32,1.32v8.15c0,.73.59,1.32,1.32,1.32h13.07c.73,0,1.32-.59,1.32-1.32v-8.15c0-.73-.59-1.32-1.32-1.32h-13.07Z"/>
      </g>
      <rect class="cls-3" x="207.67" y="94.54" width="14.33" height="9.36" rx="1.21" ry="1.21"/>
      <rect class="cls-10" x="210.84" y="94.41" width=".6" height="9.62"/>
      <rect class="cls-10" x="214.54" y="94.41" width=".6" height="9.62"/>
      <rect class="cls-10" x="218.25" y="94.41" width=".6" height="9.62"/>
      <rect class="cls-10" x="207.6" y="97.61" width="14.49" height=".6"/>
      <rect class="cls-10" x="207.6" y="100.68" width="14.49" height=".6"/>
    </g>
    <g>
      <rect class="cls-3" x="214.29" y="104.91" width=".97" height="2.95"/>
      <rect class="cls-3" x="211.84" y="107.46" width="5.91" height=".94"/>
    </g>
  </g>
  <g>
    <g>
      <path class="cls-12" d="m217.64,110.03h-5.47c-.8,0-1.45.25-1.45-1.45s0,0,0,0c0-.8-.02-1.45,1.45-1.45h5.47c1.59,0,1.45.65,1.45,1.45,0,0,0-1.68,0,0s-.65,1.45-1.45,1.45Z"/>
      <path class="cls-3" d="m218.34,110.17h-6.87c-.49,0-.89-.4-.89-.89v-1.4c0-.49.4-.89.89-.89h6.87c.49,0,.89.4.89.89v1.4c0,.49-.4.89-.89.89Zm-6.87-2.89c-.33,0-.61.27-.61.61v1.4c0,.34.27.61.61.61h6.87c.33,0,.61-.27.61-.61v-1.4c0-.33-.27-.61-.61-.61h-6.87Z"/>
    </g>
    <g>
      <rect class="cls-1" x="208.06" y="109.02" width="13.69" height="13.69" rx="1.78" ry="1.78"/>
      <path class="cls-3" d="m219.92,122.85h-10.02c-1.09,0-1.98-.89-1.98-1.98v-10.02c0-1.09.89-1.98,1.98-1.98h10.02c1.09,0,1.98.89,1.98,1.98v10.02c0,1.09-.89,1.98-1.98,1.98Zm-10.02-13.69c-.93,0-1.69.76-1.69,1.69v10.02c0,.93.76,1.69,1.69,1.69h10.02c.93,0,1.69-.76,1.69-1.69v-10.02c0-.93-.76-1.69-1.69-1.69h-10.02Z"/>
    </g>
    <g>
      <g>
        <circle class="cls-9" cx="214.9" cy="115.86" r="5.3"/>
        <path class="cls-3" d="m214.9,121.3c-3,0-5.44-2.44-5.44-5.44s2.44-5.44,5.44-5.44,5.44,2.44,5.44,5.44-2.44,5.44-5.44,5.44Zm0-10.59c-2.84,0-5.16,2.31-5.16,5.16s2.31,5.16,5.16,5.16,5.16-2.31,5.16-5.16-2.31-5.16-5.16-5.16Z"/>
      </g>
      <g>
        <circle class="cls-9" cx="214.9" cy="115.86" r="3.83"/>
        <path class="cls-3" d="m214.9,119.83c-2.19,0-3.97-1.78-3.97-3.97s1.78-3.97,3.97-3.97,3.97,1.78,3.97,3.97-1.78,3.97-3.97,3.97Zm0-7.66c-2.03,0-3.69,1.65-3.69,3.69s1.65,3.69,3.69,3.69,3.69-1.65,3.69-3.69-1.65-3.69-3.69-3.69Z"/>
      </g>
      <g>
        <circle class="cls-9" cx="214.9" cy="115.86" r="2.3"/>
        <path class="cls-3" d="m214.9,118.31c-1.35,0-2.44-1.1-2.44-2.44s1.1-2.44,2.44-2.44,2.44,1.1,2.44,2.44-1.1,2.44-2.44,2.44Zm0-4.61c-1.19,0-2.16.97-2.16,2.16s.97,2.16,2.16,2.16,2.16-.97,2.16-2.16-.97-2.16-2.16-2.16Z"/>
      </g>
      <g>
        <line class="cls-1" x1="210.6" y1="111.56" x2="219.21" y2="120.17"/>
        <rect class="cls-3" x="214.76" y="109.77" width=".28" height="12.18" transform="translate(-18.98 185.89) rotate(-45)"/>
      </g>
      <g>
        <line class="cls-1" x1="219.21" y1="111.56" x2="210.6" y2="120.17"/>
        <rect class="cls-3" x="208.81" y="115.72" width="12.18" height=".28" transform="translate(-18.98 185.9) rotate(-45)"/>
      </g>
      <g>
        <circle class="cls-2" cx="219.52" cy="111.25" r=".39"/>
        <path class="cls-3" d="m219.52,111.78c-.29,0-.53-.24-.53-.53s.24-.53.53-.53.53.24.53.53-.24.53-.53.53Zm0-.79c-.14,0-.25.11-.25.25s.11.25.25.25.25-.11.25-.25-.11-.25-.25-.25Z"/>
      </g>
      <g>
        <circle class="cls-2" cx="210.22" cy="111.25" r=".39"/>
        <path class="cls-3" d="m210.22,111.78c-.29,0-.53-.24-.53-.53s.24-.53.53-.53.53.24.53.53-.24.53-.53.53Zm0-.79c-.14,0-.25.11-.25.25s.11.25.25.25.25-.11.25-.25-.11-.25-.25-.25Z"/>
      </g>
      <g>
        <circle class="cls-2" cx="210.26" cy="120.5" r=".39"/>
        <path class="cls-3" d="m210.26,121.04c-.29,0-.53-.24-.53-.53s.24-.53.53-.53.53.24.53.53-.24.53-.53.53Zm0-.79c-.14,0-.25.11-.25.25s.11.25.25.25.25-.11.25-.25-.11-.25-.25-.25Z"/>
      </g>
      <g>
        <circle class="cls-2" cx="219.52" cy="120.48" r=".39"/>
        <path class="cls-3" d="m219.52,121.01c-.29,0-.53-.24-.53-.53s.24-.53.53-.53.53.24.53.53-.24.53-.53.53Zm0-.79c-.14,0-.25.11-.25.25s.11.25.25.25.25-.11.25-.25-.11-.25-.25-.25Z"/>
      </g>
    </g>
    <g>
      <g>
        <rect class="cls-2" x="214.05" y="107.74" width="1.68" height=".69"/>
        <path class="cls-3" d="m215.87,108.56h-1.96v-.97h1.96v.97Zm-1.68-.28h1.4v-.4h-1.4v.4Z"/>
      </g>
      <g>
        <circle class="cls-2" cx="212.34" cy="108.08" r=".33"/>
        <path class="cls-3" d="m212.34,108.55c-.26,0-.47-.21-.47-.47s.21-.47.47-.47.47.21.47.47-.21.47-.47.47Zm0-.65c-.1,0-.18.08-.18.18s.08.18.18.18.18-.08.18-.18-.08-.18-.18-.18Z"/>
      </g>
      <g>
        <circle class="cls-2" cx="217.44" cy="108.08" r=".35"/>
        <path class="cls-3" d="m217.44,108.57c-.27,0-.49-.22-.49-.49s.22-.49.49-.49.49.22.49.49-.22.49-.49.49Zm0-.7c-.12,0-.21.09-.21.21s.09.21.21.21.21-.09.21-.21-.09-.21-.21-.21Z"/>
      </g>
    </g>
  </g>
  <path class="cls-8" d="m228.82,111.22c-.23.1-.42.2-.63.27-.07.02-.13.08-.19.11-.23.1-.46.22-.7.31-.12.05-.23.11-.35.16-.34.16-.69.32-1.03.47-.11.05-.12.05-.16-.07-.12-.37-.26-.72-.4-1.08-.12-.31-.22-.63-.35-.94-.09-.22-.17-.46-.25-.69,0-.02-.02-.04-.02-.07.41.3.83.6,1.25.9.53-1.08,1.06-2.16,1.59-3.24-.04-.03-.08,0-.12,0-.68.2-1.35.4-2.03.6-.35.1-.7.21-1.04.31-.02,0-.05.04-.07,0-.02-.02,0-.05.02-.07.12-.33.25-.65.38-.97.09-.24.18-.48.27-.71.12-.32.26-.63.37-.96.08-.22.18-.44.25-.66.05-.16.13-.31.19-.47.1-.27.21-.54.31-.82.08-.2.15-.4.23-.61.1-.27.21-.53.31-.8.09-.24.19-.48.28-.72.02-.04.02-.07.07-.03.13.1.27.19.39.29.14.12.29.22.42.34.19.17.41.3.61.47.12.1.25.19.37.29.08.06.02.11,0,.15-.28.38-.55.76-.82,1.15-.13.18-.26.35-.39.53-.12.16-.24.33-.35.5-.07.12-.17.22-.25.34-.27.37-.54.74-.8,1.12-.04.06-.11.11-.13.2.14-.05.26-.11.39-.15.23-.07.46-.16.68-.25.54-.22,1.08-.41,1.62-.62.28-.11.56-.21.84-.31.02,0,.05-.04.08,0,.02.03,0,.05-.02.08-.17.35-.34.69-.5,1.05-.12.28-.25.55-.37.83-.17.38-.34.76-.52,1.13-.16.33-.3.66-.46.99-.14.3-.27.6-.4.9-.05.12-.11.25-.2.36-.03.03-.04.09-.05.13,0,.03.01.03.04.04.05,0,.09.02.14.03.22.03.45.05.67.08.28.04.56.08.88.12Z"/>
  <g>
    <g>
      <g>
        <g>
          <rect class="cls-10" x="99.09" y="67.25" width="16.3" height="11.38" rx="1.42" ry="1.42"/>
          <path class="cls-3" d="m113.98,78.76h-13.47c-.85,0-1.54-.69-1.54-1.54v-8.55c0-.85.69-1.54,1.54-1.54h13.47c.85,0,1.54.69,1.54,1.54v8.55c0,.85-.69,1.54-1.54,1.54Zm-13.47-11.38c-.71,0-1.29.58-1.29,1.29v8.55c0,.71.58,1.29,1.29,1.29h13.47c.71,0,1.29-.58,1.29-1.29v-8.55c0-.71-.58-1.29-1.29-1.29h-13.47Z"/>
        </g>
        <path class="cls-3" d="m113.78,78.94h-13.07c-1.06,0-1.92-.86-1.92-1.92v-8.15c0-1.06.86-1.92,1.92-1.92h13.07c1.06,0,1.92.86,1.92,1.92v8.15c0,1.06-.86,1.92-1.92,1.92Zm-13.07-11.38c-.73,0-1.32.59-1.32,1.32v8.15c0,.73.59,1.32,1.32,1.32h13.07c.73,0,1.32-.59,1.32-1.32v-8.15c0-.73-.59-1.32-1.32-1.32h-13.07Z"/>
      </g>
      <rect class="cls-3" x="100.02" y="68.26" width="14.33" height="9.36" rx="1.21" ry="1.21"/>
      <rect class="cls-10" x="103.19" y="68.13" width=".6" height="9.62"/>
      <rect class="cls-10" x="106.89" y="68.13" width=".6" height="9.62"/>
      <rect class="cls-10" x="110.59" y="68.13" width=".6" height="9.62"/>
      <rect class="cls-10" x="99.95" y="71.34" width="14.49" height=".6"/>
      <rect class="cls-10" x="99.95" y="74.41" width="14.49" height=".6"/>
    </g>
    <g>
      <rect class="cls-3" x="106.64" y="78.64" width=".97" height="2.95"/>
      <rect class="cls-3" x="104.19" y="81.19" width="5.91" height=".94"/>
    </g>
  </g>
  <g>
    <g>
      <path class="cls-12" d="m109.99,83.76h-5.47c-.8,0-1.45.25-1.45-1.45s0,0,0,0c0-.8-.02-1.45,1.45-1.45h5.47c1.59,0,1.45.65,1.45,1.45,0,0,0-1.68,0,0s-.65,1.45-1.45,1.45Z"/>
      <path class="cls-3" d="m110.69,83.9h-6.87c-.49,0-.89-.4-.89-.89v-1.4c0-.49.4-.89.89-.89h6.87c.49,0,.89.4.89.89v1.4c0,.49-.4.89-.89.89Zm-6.87-2.89c-.33,0-.61.27-.61.61v1.4c0,.34.27.61.61.61h6.87c.33,0,.61-.27.61-.61v-1.4c0-.33-.27-.61-.61-.61h-6.87Z"/>
    </g>
    <g>
      <rect class="cls-1" x="100.41" y="82.74" width="13.69" height="13.69" rx="1.78" ry="1.78"/>
      <path class="cls-3" d="m112.27,96.58h-10.02c-1.09,0-1.98-.89-1.98-1.98v-10.02c0-1.09.89-1.98,1.98-1.98h10.02c1.09,0,1.98.89,1.98,1.98v10.02c0,1.09-.89,1.98-1.98,1.98Zm-10.02-13.69c-.93,0-1.69.76-1.69,1.69v10.02c0,.93.76,1.69,1.69,1.69h10.02c.93,0,1.69-.76,1.69-1.69v-10.02c0-.93-.76-1.69-1.69-1.69h-10.02Z"/>
    </g>
    <g>
      <g>
        <circle class="cls-9" cx="107.25" cy="89.59" r="5.3"/>
        <path class="cls-3" d="m107.25,95.03c-3,0-5.44-2.44-5.44-5.44s2.44-5.44,5.44-5.44,5.44,2.44,5.44,5.44-2.44,5.44-5.44,5.44Zm0-10.59c-2.84,0-5.16,2.31-5.16,5.16s2.31,5.16,5.16,5.16,5.16-2.31,5.16-5.16-2.31-5.16-5.16-5.16Z"/>
      </g>
      <g>
        <circle class="cls-9" cx="107.25" cy="89.59" r="3.83"/>
        <path class="cls-3" d="m107.25,93.56c-2.19,0-3.97-1.78-3.97-3.97s1.78-3.97,3.97-3.97,3.97,1.78,3.97,3.97-1.78,3.97-3.97,3.97Zm0-7.66c-2.03,0-3.69,1.65-3.69,3.69s1.65,3.69,3.69,3.69,3.69-1.65,3.69-3.69-1.65-3.69-3.69-3.69Z"/>
      </g>
      <g>
        <circle class="cls-9" cx="107.25" cy="89.59" r="2.3"/>
        <path class="cls-3" d="m107.25,92.03c-1.35,0-2.44-1.1-2.44-2.44s1.1-2.44,2.44-2.44,2.44,1.1,2.44,2.44-1.1,2.44-2.44,2.44Zm0-4.61c-1.19,0-2.16.97-2.16,2.16s.97,2.16,2.16,2.16,2.16-.97,2.16-2.16-.97-2.16-2.16-2.16Z"/>
      </g>
      <g>
        <line class="cls-1" x1="102.95" y1="85.28" x2="111.56" y2="93.9"/>
        <rect class="cls-3" x="107.11" y="83.5" width=".28" height="12.18" transform="translate(-31.93 102.08) rotate(-45)"/>
      </g>
      <g>
        <line class="cls-1" x1="111.56" y1="85.28" x2="102.95" y2="93.9"/>
        <rect class="cls-3" x="101.16" y="89.45" width="12.18" height=".28" transform="translate(-31.93 102.08) rotate(-45)"/>
      </g>
      <g>
        <circle class="cls-2" cx="111.87" cy="84.97" r=".39"/>
        <path class="cls-3" d="m111.87,85.51c-.29,0-.53-.24-.53-.53s.24-.53.53-.53.53.24.53.53-.24.53-.53.53Zm0-.79c-.14,0-.25.11-.25.25s.11.25.25.25.25-.11.25-.25-.11-.25-.25-.25Z"/>
      </g>
      <g>
        <circle class="cls-2" cx="102.57" cy="84.97" r=".39"/>
        <path class="cls-3" d="m102.57,85.51c-.29,0-.53-.24-.53-.53s.24-.53.53-.53.53.24.53.53-.24.53-.53.53Zm0-.79c-.14,0-.25.11-.25.25s.11.25.25.25.25-.11.25-.25-.11-.25-.25-.25Z"/>
      </g>
      <g>
        <circle class="cls-2" cx="102.61" cy="94.23" r=".39"/>
        <path class="cls-3" d="m102.61,94.76c-.29,0-.53-.24-.53-.53s.24-.53.53-.53.53.24.53.53-.24.53-.53.53Zm0-.79c-.14,0-.25.11-.25.25s.11.25.25.25.25-.11.25-.25-.11-.25-.25-.25Z"/>
      </g>
      <g>
        <circle class="cls-2" cx="111.87" cy="94.2" r=".39"/>
        <path class="cls-3" d="m111.87,94.74c-.29,0-.53-.24-.53-.53s.24-.53.53-.53.53.24.53.53-.24.53-.53.53Zm0-.79c-.14,0-.25.11-.25.25s.11.25.25.25.25-.11.25-.25-.11-.25-.25-.25Z"/>
      </g>
    </g>
    <g>
      <g>
        <rect class="cls-2" x="106.4" y="81.46" width="1.68" height=".69"/>
        <path class="cls-3" d="m108.22,82.29h-1.96v-.97h1.96v.97Zm-1.68-.28h1.4v-.4h-1.4v.4Z"/>
      </g>
      <g>
        <circle class="cls-2" cx="104.69" cy="81.81" r=".33"/>
        <path class="cls-3" d="m104.69,82.27c-.26,0-.47-.21-.47-.47s.21-.47.47-.47.47.21.47.47-.21.47-.47.47Zm0-.65c-.1,0-.18.08-.18.18s.08.18.18.18.18-.08.18-.18-.08-.18-.18-.18Z"/>
      </g>
      <g>
        <circle class="cls-2" cx="109.79" cy="81.81" r=".35"/>
        <path class="cls-3" d="m109.79,82.3c-.27,0-.49-.22-.49-.49s.22-.49.49-.49.49.22.49.49-.22.49-.49.49Zm0-.7c-.12,0-.21.09-.21.21s.09.21.21.21.21-.09.21-.21-.09-.21-.21-.21Z"/>
      </g>
    </g>
  </g>
  <path class="cls-8" d="m121.17,84.95c-.23.1-.42.2-.63.27-.07.02-.13.08-.19.11-.23.1-.46.22-.7.31-.12.05-.23.11-.35.16-.34.16-.69.32-1.03.47-.11.05-.12.05-.16-.07-.12-.37-.26-.72-.4-1.08-.12-.31-.22-.63-.35-.94-.09-.22-.17-.46-.25-.69,0-.02-.02-.04-.02-.07.41.3.83.6,1.25.9.53-1.08,1.06-2.16,1.59-3.24-.04-.03-.08,0-.12,0-.68.2-1.35.4-2.03.6-.35.1-.7.21-1.04.31-.02,0-.05.04-.07,0-.02-.02,0-.05.02-.07.12-.33.25-.65.38-.97.09-.24.18-.48.27-.71.12-.32.26-.63.37-.96.08-.22.18-.44.25-.66.05-.16.13-.31.19-.47.1-.27.21-.54.31-.82.08-.2.15-.4.23-.61.1-.27.21-.53.31-.8.09-.24.19-.48.28-.72.02-.04.02-.07.07-.03.13.1.27.19.39.29.14.12.29.22.42.34.19.17.41.3.61.47.12.1.25.19.37.29.08.06.02.11,0,.15-.28.38-.55.76-.82,1.15-.13.18-.26.35-.39.53-.12.16-.24.33-.35.5-.07.12-.17.22-.25.34-.27.37-.54.74-.8,1.12-.04.06-.11.11-.13.2.14-.05.26-.11.39-.15.23-.07.46-.16.68-.25.54-.22,1.08-.41,1.62-.62.28-.11.56-.21.84-.31.02,0,.05-.04.08,0,.02.03,0,.05-.02.08-.17.35-.34.69-.5,1.05-.12.28-.25.55-.37.83-.17.38-.34.76-.52,1.13-.16.33-.3.66-.46.99-.14.3-.27.6-.4.9-.05.12-.11.25-.2.36-.03.03-.04.09-.05.13,0,.03.01.03.04.04.05,0,.09.02.14.03.22.03.45.05.67.08.28.04.56.08.88.12Z"/>
  <g>
    <g>
      <g>
        <g>
          <rect class="cls-10" x="225.14" y="115.4" width="16.3" height="11.38" rx="1.42" ry="1.42"/>
          <path class="cls-3" d="m240.03,126.91h-13.47c-.85,0-1.54-.69-1.54-1.54v-8.55c0-.85.69-1.54,1.54-1.54h13.47c.85,0,1.54.69,1.54,1.54v8.55c0,.85-.69,1.54-1.54,1.54Zm-13.47-11.38c-.71,0-1.29.58-1.29,1.29v8.55c0,.71.58,1.29,1.29,1.29h13.47c.71,0,1.29-.58,1.29-1.29v-8.55c0-.71-.58-1.29-1.29-1.29h-13.47Z"/>
        </g>
        <path class="cls-3" d="m239.83,127.09h-13.07c-1.06,0-1.92-.86-1.92-1.92v-8.15c0-1.06.86-1.92,1.92-1.92h13.07c1.06,0,1.92.86,1.92,1.92v8.15c0,1.06-.86,1.92-1.92,1.92Zm-13.07-11.38c-.73,0-1.32.59-1.32,1.32v8.15c0,.73.59,1.32,1.32,1.32h13.07c.73,0,1.32-.59,1.32-1.32v-8.15c0-.73-.59-1.32-1.32-1.32h-13.07Z"/>
      </g>
      <rect class="cls-3" x="226.07" y="116.42" width="14.33" height="9.36" rx="1.21" ry="1.21"/>
      <rect class="cls-10" x="229.24" y="116.29" width=".6" height="9.62"/>
      <rect class="cls-10" x="232.94" y="116.29" width=".6" height="9.62"/>
      <rect class="cls-10" x="236.64" y="116.29" width=".6" height="9.62"/>
      <rect class="cls-10" x="226" y="119.49" width="14.49" height=".6"/>
      <rect class="cls-10" x="226" y="122.56" width="14.49" height=".6"/>
    </g>
    <g>
      <rect class="cls-3" x="232.69" y="126.79" width=".97" height="2.95"/>
      <rect class="cls-3" x="230.24" y="129.34" width="5.91" height=".94"/>
    </g>
  </g>
  <g>
    <g>
      <path class="cls-12" d="m236.04,131.91h-5.47c-.8,0-1.45.25-1.45-1.45s0,0,0,0c0-.8-.02-1.45,1.45-1.45h5.47c1.59,0,1.45.65,1.45,1.45,0,0,0-1.68,0,0s-.65,1.45-1.45,1.45Z"/>
      <path class="cls-3" d="m236.74,132.05h-6.87c-.49,0-.89-.4-.89-.89v-1.4c0-.49.4-.89.89-.89h6.87c.49,0,.89.4.89.89v1.4c0,.49-.4.89-.89.89Zm-6.87-2.89c-.33,0-.61.27-.61.61v1.4c0,.34.27.61.61.61h6.87c.33,0,.61-.27.61-.61v-1.4c0-.33-.27-.61-.61-.61h-6.87Z"/>
    </g>
    <g>
      <rect class="cls-1" x="226.46" y="130.9" width="13.69" height="13.69" rx="1.78" ry="1.78"/>
      <path class="cls-3" d="m238.32,144.73h-10.02c-1.09,0-1.98-.89-1.98-1.98v-10.02c0-1.09.89-1.98,1.98-1.98h10.02c1.09,0,1.98.89,1.98,1.98v10.02c0,1.09-.89,1.98-1.98,1.98Zm-10.02-13.69c-.93,0-1.69.76-1.69,1.69v10.02c0,.93.76,1.69,1.69,1.69h10.02c.93,0,1.69-.76,1.69-1.69v-10.02c0-.93-.76-1.69-1.69-1.69h-10.02Z"/>
    </g>
    <g>
      <g>
        <circle class="cls-9" cx="233.3" cy="137.74" r="5.3"/>
        <path class="cls-3" d="m233.3,143.18c-3,0-5.44-2.44-5.44-5.44s2.44-5.44,5.44-5.44,5.44,2.44,5.44,5.44-2.44,5.44-5.44,5.44Zm0-10.59c-2.84,0-5.16,2.31-5.16,5.16s2.31,5.16,5.16,5.16,5.16-2.31,5.16-5.16-2.31-5.16-5.16-5.16Z"/>
      </g>
      <g>
        <circle class="cls-9" cx="233.3" cy="137.74" r="3.83"/>
        <path class="cls-3" d="m233.3,141.71c-2.19,0-3.97-1.78-3.97-3.97s1.78-3.97,3.97-3.97,3.97,1.78,3.97,3.97-1.78,3.97-3.97,3.97Zm0-7.66c-2.03,0-3.69,1.65-3.69,3.69s1.65,3.69,3.69,3.69,3.69-1.65,3.69-3.69-1.65-3.69-3.69-3.69Z"/>
      </g>
      <g>
        <circle class="cls-9" cx="233.3" cy="137.74" r="2.3"/>
        <path class="cls-3" d="m233.3,140.19c-1.35,0-2.44-1.1-2.44-2.44s1.1-2.44,2.44-2.44,2.44,1.1,2.44,2.44-1.1,2.44-2.44,2.44Zm0-4.61c-1.19,0-2.16.97-2.16,2.16s.97,2.16,2.16,2.16,2.16-.97,2.16-2.16-.97-2.16-2.16-2.16Z"/>
      </g>
      <g>
        <line class="cls-1" x1="229" y1="133.44" x2="237.61" y2="142.05"/>
        <rect class="cls-3" x="233.16" y="131.65" width=".28" height="12.18" transform="translate(-29.07 205.31) rotate(-45)"/>
      </g>
      <g>
        <line class="cls-1" x1="237.61" y1="133.44" x2="229" y2="142.05"/>
        <rect class="cls-3" x="227.21" y="137.6" width="12.18" height=".28" transform="translate(-29.07 205.31) rotate(-45)"/>
      </g>
      <g>
        <circle class="cls-2" cx="237.92" cy="133.13" r=".39"/>
        <path class="cls-3" d="m237.92,133.66c-.29,0-.53-.24-.53-.53s.24-.53.53-.53.53.24.53.53-.24.53-.53.53Zm0-.79c-.14,0-.25.11-.25.25s.11.25.25.25.25-.11.25-.25-.11-.25-.25-.25Z"/>
      </g>
      <g>
        <circle class="cls-2" cx="228.62" cy="133.13" r=".39"/>
        <path class="cls-3" d="m228.62,133.66c-.29,0-.53-.24-.53-.53s.24-.53.53-.53.53.24.53.53-.24.53-.53.53Zm0-.79c-.14,0-.25.11-.25.25s.11.25.25.25.25-.11.25-.25-.11-.25-.25-.25Z"/>
      </g>
      <g>
        <circle class="cls-2" cx="228.66" cy="142.38" r=".39"/>
        <path class="cls-3" d="m228.66,142.92c-.29,0-.53-.24-.53-.53s.24-.53.53-.53.53.24.53.53-.24.53-.53.53Zm0-.79c-.14,0-.25.11-.25.25s.11.25.25.25.25-.11.25-.25-.11-.25-.25-.25Z"/>
      </g>
      <g>
        <circle class="cls-2" cx="237.92" cy="142.36" r=".39"/>
        <path class="cls-3" d="m237.92,142.89c-.29,0-.53-.24-.53-.53s.24-.53.53-.53.53.24.53.53-.24.53-.53.53Zm0-.79c-.14,0-.25.11-.25.25s.11.25.25.25.25-.11.25-.25-.11-.25-.25-.25Z"/>
      </g>
    </g>
    <g>
      <g>
        <rect class="cls-2" x="232.45" y="129.62" width="1.68" height=".69"/>
        <path class="cls-3" d="m234.27,130.44h-1.96v-.97h1.96v.97Zm-1.68-.28h1.4v-.4h-1.4v.4Z"/>
      </g>
      <g>
        <circle class="cls-2" cx="230.74" cy="129.96" r=".33"/>
        <path class="cls-3" d="m230.74,130.43c-.26,0-.47-.21-.47-.47s.21-.47.47-.47.47.21.47.47-.21.47-.47.47Zm0-.65c-.1,0-.18.08-.18.18s.08.18.18.18.18-.08.18-.18-.08-.18-.18-.18Z"/>
      </g>
      <g>
        <circle class="cls-2" cx="235.84" cy="129.96" r=".35"/>
        <path class="cls-3" d="m235.84,130.45c-.27,0-.49-.22-.49-.49s.22-.49.49-.49.49.22.49.49-.22.49-.49.49Zm0-.7c-.12,0-.21.09-.21.21s.09.21.21.21.21-.09.21-.21-.09-.21-.21-.21Z"/>
      </g>
    </g>
  </g>
  <path class="cls-8" d="m247.22,133.1c-.23.1-.42.2-.63.27-.07.02-.13.08-.19.11-.23.1-.46.22-.7.31-.12.05-.23.11-.35.16-.34.16-.69.32-1.03.47-.11.05-.12.05-.16-.07-.12-.37-.26-.72-.4-1.08-.12-.31-.22-.63-.35-.94-.09-.22-.17-.46-.25-.69,0-.02-.02-.04-.02-.07.41.3.83.6,1.25.9.53-1.08,1.06-2.16,1.59-3.24-.04-.03-.08,0-.12,0-.68.2-1.35.4-2.03.6-.35.1-.7.21-1.04.31-.02,0-.05.04-.07,0-.02-.02,0-.05.02-.07.12-.33.25-.65.38-.97.09-.24.18-.48.27-.71.12-.32.26-.63.37-.96.08-.22.18-.44.25-.66.05-.16.13-.31.19-.47.1-.27.21-.54.31-.82.08-.2.15-.4.23-.61.1-.27.21-.53.31-.8.09-.24.19-.48.28-.72.02-.04.02-.07.07-.03.13.1.27.19.39.29.14.12.29.22.42.34.19.17.41.3.61.47.12.1.25.19.37.29.08.06.02.11,0,.15-.28.38-.55.76-.82,1.15-.13.18-.26.35-.39.53-.12.16-.24.33-.35.5-.07.12-.17.22-.25.34-.27.37-.54.74-.8,1.12-.04.06-.11.11-.13.2.14-.05.26-.11.39-.15.23-.07.46-.16.68-.25.54-.22,1.08-.41,1.62-.62.28-.11.56-.21.84-.31.02,0,.05-.04.08,0,.02.03,0,.05-.02.08-.17.35-.34.69-.5,1.05-.12.28-.25.55-.37.83-.17.38-.34.76-.52,1.13-.16.33-.3.66-.46.99-.14.3-.27.6-.4.9-.05.12-.11.25-.2.36-.03.03-.04.09-.05.13,0,.03.01.03.04.04.05,0,.09.02.14.03.22.03.45.05.67.08.28.04.56.08.88.12Z"/>
  <path class="cls-8" d="m189.53,170.81c-.23.1-.42.2-.63.27-.07.02-.13.08-.19.11-.23.1-.46.22-.7.31-.12.05-.23.11-.35.16-.34.16-.69.32-1.03.47-.11.05-.12.05-.16-.07-.12-.37-.26-.72-.4-1.08-.12-.31-.22-.63-.35-.94-.09-.22-.17-.46-.25-.69,0-.02-.02-.04-.02-.07.41.3.83.6,1.25.9.53-1.08,1.06-2.16,1.59-3.24-.04-.03-.08,0-.12,0-.68.2-1.35.4-2.03.6-.35.1-.7.21-1.04.31-.02,0-.05.04-.07,0-.02-.02,0-.05.02-.07.12-.33.25-.65.38-.97.09-.24.18-.48.27-.71.12-.32.26-.63.37-.96.08-.22.18-.44.25-.66.05-.16.13-.31.19-.47.1-.27.21-.54.31-.82.08-.2.15-.4.23-.61.1-.27.21-.53.31-.8.09-.24.19-.48.28-.72.02-.04.02-.07.07-.03.13.1.27.19.39.29.14.12.29.22.42.34.19.17.41.3.61.47.12.1.25.19.37.29.08.06.02.11,0,.15-.28.38-.55.76-.82,1.15-.13.18-.26.35-.39.53-.12.16-.24.33-.35.5-.07.12-.17.22-.25.34-.27.37-.54.74-.8,1.12-.04.06-.11.11-.13.2.14-.05.26-.11.39-.15.23-.07.46-.16.68-.25.54-.22,1.08-.41,1.62-.62.28-.11.56-.21.84-.31.02,0,.05-.04.08,0,.02.03,0,.05-.02.08-.17.35-.34.69-.5,1.05-.12.28-.25.55-.37.83-.17.38-.34.76-.52,1.13-.16.33-.3.66-.46.99-.14.3-.27.6-.4.9-.05.12-.11.25-.2.36-.03.03-.04.09-.05.13,0,.03.01.03.04.04.05,0,.09.02.14.03.22.03.45.05.67.08.28.04.56.08.88.12Z"/>
  <path class="cls-8" d="m157.8,111.45c-.23.1-.42.2-.63.27-.07.02-.13.08-.19.11-.23.1-.46.22-.7.31-.12.05-.23.11-.35.16-.34.16-.69.32-1.03.47-.11.05-.12.05-.16-.07-.12-.37-.26-.72-.4-1.08-.12-.31-.22-.63-.35-.94-.09-.22-.17-.46-.25-.69,0-.02-.02-.04-.02-.07.41.3.83.6,1.25.9.53-1.08,1.06-2.16,1.59-3.24-.04-.03-.08,0-.12,0-.68.2-1.35.4-2.03.6-.35.1-.7.21-1.04.31-.02,0-.05.04-.07,0-.02-.02,0-.05.02-.07.12-.33.25-.65.38-.97.09-.24.18-.48.27-.71.12-.32.26-.63.37-.96.08-.22.18-.44.25-.66.05-.16.13-.31.19-.47.1-.27.21-.54.31-.82.08-.2.15-.4.23-.61.1-.27.21-.53.31-.8.09-.24.19-.48.28-.72.02-.04.02-.07.07-.03.13.1.27.19.39.29.14.12.29.22.42.34.19.17.41.3.61.47.12.1.25.19.37.29.08.06.02.11,0,.15-.28.38-.55.76-.82,1.15-.13.18-.26.35-.39.53-.12.16-.24.33-.35.5-.07.12-.17.22-.25.34-.27.37-.54.74-.8,1.12-.04.06-.11.11-.13.2.14-.05.26-.11.39-.15.23-.07.46-.16.68-.25.54-.22,1.08-.41,1.62-.62.28-.11.56-.21.84-.31.02,0,.05-.04.08,0,.02.03,0,.05-.02.08-.17.35-.34.69-.5,1.05-.12.28-.25.55-.37.83-.17.38-.34.76-.52,1.13-.16.33-.3.66-.46.99-.14.3-.27.6-.4.9-.05.12-.11.25-.2.36-.03.03-.04.09-.05.13,0,.03.01.03.04.04.05,0,.09.02.14.03.22.03.45.05.67.08.28.04.56.08.88.12Z"/>
</svg>