<?xml version="1.0" encoding="UTF-8"?>
<svg id="Layer_1" data-name="Layer 1" xmlns="http://www.w3.org/2000/svg" width="300" height="225" viewBox="0 0 300 225">
  <defs>
    <style>
      .cls-1 {
        fill: #fff;
      }

      .cls-2 {
        fill: #23140a;
      }

      .cls-3 {
        isolation: isolate;
        opacity: .35;
      }

      .cls-4 {
        fill: #232323;
      }

      .cls-5 {
        fill: #444;
      }

      .cls-6 {
        fill: #ea651b;
      }

      .cls-7 {
        fill: #7f7f7f;
      }
    </style>
  </defs>
  <g>
    <g>
      <g class="cls-3">
        <ellipse class="cls-4" cx="147.48" cy="211.41" rx="58.29" ry="9.43"/>
      </g>
      <g>
        <g>
          <g>
            <path class="cls-4" d="m151.08,154.77c.26,1.7,5.63,49.12,13.75,55.8,8.12,6.68,12.31,4.45,14.02,2.62,1.7-1.83,3.93-5.11-.13-8.91-3.27-3.01-5.5-16.37-2.23-37.2l-25.41-12.31Z"/>
            <g>
              <path class="cls-4" d="m184.48,208.08c1.05.26,2.1.13,2.49-.52.39-.65-.26-1.83-1.44-2.49-3.27-1.57-7.07-2.1-10.74-1.44-1.44.26-1.96,1.7-1.31,3.01s1.83,1.96,2.75,1.7c2.49-.92,5.37-1.05,8.25-.26Z"/>
              <path class="cls-4" d="m182.91,213.97c.92.52,1.96.65,2.62.13.52-.52.26-1.83-.65-2.75-2.75-2.49-6.16-3.93-9.96-4.32-1.44-.13-2.36,1.05-2.1,2.49.26,1.44,1.18,2.36,2.1,2.36,2.62-.13,5.5.52,7.99,2.1Z"/>
              <path class="cls-4" d="m178.45,218.43c.52.92,1.44,1.57,2.23,1.31.79-.26,1.18-1.57.65-2.75-1.31-3.41-3.67-6.42-6.94-8.38-1.18-.79-2.62-.13-3.01,1.31-.39,1.31,0,2.62.79,3.01,2.62,1.05,4.85,3.01,6.29,5.5Z"/>
            </g>
          </g>
          <g>
            <path class="cls-4" d="m146.1,154.37c-.26,1.7-5.89,49.12-13.88,55.67-8.12,6.68-12.31,4.32-14.02,2.62-1.7-1.83-3.93-5.24.13-8.91,3.27-3.01,5.5-16.37,2.36-37.2l25.41-12.18Z"/>
            <g>
              <path class="cls-4" d="m113.88,208.08c-1.05.26-2.1.13-2.49-.52s.26-1.83,1.44-2.49c3.27-1.57,7.07-2.1,10.74-1.31,1.44.26,1.96,1.7,1.31,3.01s-1.83,1.96-2.75,1.57c-2.49-.92-5.37-1.05-8.25-.26Z"/>
              <path class="cls-4" d="m115.45,213.97c-.92.52-1.96.65-2.62.13-.52-.52-.26-1.83.65-2.75,2.75-2.36,6.29-3.93,9.96-4.32,1.44-.13,2.36,1.18,2.1,2.49-.26,1.44-1.18,2.36-2.1,2.36-2.62-.13-5.5.52-7.99,2.1Z"/>
              <path class="cls-4" d="m119.9,218.43c-.52.92-1.44,1.57-2.23,1.31s-1.05-1.57-.65-2.75c1.31-3.41,3.8-6.29,6.94-8.38,1.18-.79,2.62-.13,3.01,1.31.39,1.31,0,2.62-.79,3.01-2.62,1.05-4.85,3.01-6.29,5.5Z"/>
            </g>
          </g>
        </g>
        <path class="cls-5" d="m191.68,129.75c-1.7-16.37-8.51-36.28-21.48-43.49-5.5-3.14-11.92-5.37-20.83-6.81-2.1.39-4.06.79-5.89,1.18-.26.13-.65.13-.92.26-.52.13-1.05.26-1.57.39-.39.13-.65.13-1.05.26-.52.13-1.05.26-1.57.52-.26.13-.52.13-.79.26-.79.26-1.44.52-2.23.79-.26.13-.39.13-.65.26-.52.26-1.05.39-1.57.65-.26.13-.52.26-.65.26-.52.26-.92.39-1.44.65-.26.13-.39.13-.65.26-.65.26-1.31.65-1.96,1.05-13.88,7.73-20.7,30-21.88,46.89-.13,2.49-.13,4.85-.13,7.07,0,5.76.39,10.48,1.05,13.36,0,.13.13.26.13.39,3.41,15.72,20.83,27.64,41.65,27.64,23.45,0,42.44-14.93,42.44-33.27v-.52c.39-4.98.39-11.27,0-18.08Z"/>
        <path class="cls-1" d="m180.68,83.9c-5.37-6.16-12.31-9.17-26.07-9.69h-7.86c-.92,0-1.7,0-2.49.13h-.26c-13.75.52-20.7,3.54-26.07,9.56-7.07,8.12-10.74,31.18-11.53,49.12,1.18-16.9,8.12-39.17,21.88-46.89,5.5-3.01,12.05-5.24,20.83-6.68,8.91,1.44,15.33,3.8,20.83,6.81,13.88,7.73,20.7,30,21.74,46.89-.39-18.08-3.93-41.13-11-49.25Z"/>
      </g>
    </g>
    <g>
      <path class="cls-4" d="m177.92,98.4c-4.83-3.95-11.76-3.88-16.1,1.25-4.33,5.14-3.36,15.47,3.33,20.83,19.12,15.83,43.37,20.54,66.94,13.07,8.22-2.56,13.1-11.62,10.88-18.11-2.21-6.49-8.55-9.02-14.44-7.15-17.94,5.43-36.12,1.95-50.61-9.89Z"/>
      <path class="cls-4" d="m122.08,97.72c4.83-3.95,11.76-3.88,16.1,1.25,4.33,5.14,3.36,15.47-3.33,20.83-19.12,15.83-43.37,20.54-66.94,13.07-8.22-2.56-13.1-11.62-10.88-18.11,2.21-6.49,8.55-9.02,14.44-7.15,17.94,5.43,36.12,1.95,50.61-9.89Z"/>
      <path class="cls-1" d="m78.82,90.09l-7.23,83.3c-.22,3.24,2.1,6.01,5.18,6.2l136.51,8.2c3.09.18,5.77-2.3,5.99-5.54l7.23-83.3c.22-3.24-2.1-6.01-5.18-6.2l-136.51-8.2c-3.09-.18-5.77,2.3-5.99,5.54Z"/>
      <g>
        <path class="cls-4" d="m79.56,108.94c1.74-.34,3.48-1.37,3.56-2.55,0-1.39-1.58-2.72-3.94-2.87-6.25-.04-12.37,1.73-17.6,5.51-1.88,1.31-1.9,4.08-.04,5.55,1.86,1.47,4.08,1.9,5.27.59,3.35-3.17,7.67-5.5,12.74-6.24Z"/>
        <path class="cls-4" d="m81.3,119.23c1.73.36,3.61-.25,4.11-1.57.49-1.32-.81-3.2-3.1-3.84-5.89-1.77-12.35-1.75-18.61.3-2.3.75-2.8,3.45-1.49,5.34,1.37,2.09,3.45,2.8,4.85,2.11,4.39-2.12,9.18-3,14.25-2.34Z"/>
        <path class="cls-4" d="m83.02,123.75c1.81-.13,3.61.44,4.08,1.9.41,1.25-1.06,3.12-3.22,3.59-5.98,1.49-12.57,1.1-18.53-1.58-2.15-.92-2.55-3.56-1.08-5.42,1.47-1.86,3.77-2.61,4.94-1.84,4.01,2.39,8.79,3.6,13.79,3.35Z"/>
      </g>
      <g>
        <path class="cls-4" d="m220.44,109.62c-1.74-.34-3.48-1.37-3.56-2.55,0-1.39,1.58-2.72,3.94-2.87,6.25-.04,12.37,1.73,17.6,5.51,1.88,1.31,1.9,4.08.04,5.55-1.86,1.47-4.08,1.9-5.27.59-3.35-3.17-7.67-5.5-12.74-6.24Z"/>
        <path class="cls-4" d="m218.7,119.9c-1.73.36-3.61-.25-4.11-1.57-.49-1.32.81-3.2,3.1-3.84,5.89-1.77,12.35-1.75,18.61.3,2.3.75,2.8,3.45,1.49,5.34-1.37,2.09-3.45,2.8-4.85,2.11-4.39-2.12-9.18-3-14.25-2.34Z"/>
        <path class="cls-4" d="m216.98,124.42c-1.81-.13-3.61.44-4.08,1.9-.41,1.25,1.06,3.12,3.22,3.59,5.98,1.49,12.57,1.1,18.53-1.58,2.15-.92,2.55-3.56,1.08-5.42-1.47-1.86-3.77-2.61-4.94-1.84-4.01,2.39-8.79,3.6-13.79,3.35Z"/>
      </g>
    </g>
    <g>
      <path class="cls-1" d="m149.01,29.41c6.93-.47,14.83-3.74,19.34-5.21,5.28-1.72,7.82-1.93,11.78-2.2,11.99-.81,16.1,5.23,17.28,7.72-9.51-23.77-34.75-25.48-49.52-24.48l-1.22.08c-14.77,1-39.55,6.1-45.77,30.94.83-2.63,4.09-9.17,16.08-9.98,3.96-.27,6.51-.4,11.97.6,4.66.85,12.93,3.02,19.86,2.55h.2Z"/>
      <path class="cls-5" d="m100.94,36.28l-.04-.02c.83-2.63,4.09-9.17,16.08-9.98,3.96-.27,6.51-.4,11.97.6,4.66.85,12.93,3.02,19.86,2.55h.2c6.93-.48,14.83-3.75,19.34-5.22,5.28-1.72,7.82-1.93,11.78-2.2,11.99-.81,16.1,5.23,17.28,7.72l-.04.03c2.7,2.26,4.82,8.53,5.1,16,.36,9.48-2.36,17.28-6.08,17.42-.07,0-.14-.02-.21-.02-7.45,17.92-30.53,27.57-42.93,28.41-12.4.84-36.74-5.59-46.6-22.35-.08.01-.15.04-.23.05-3.7.36-7.45-7-8.37-16.44-.73-7.45.52-13.94,2.89-16.54Z"/>
      <path class="cls-7" d="m152.32,79.03c6.26-.42,19.17-7.13,18.31-19.87-.86-12.74-15.6-12.76-20.54-12.42-4.94.33-19.56,2.34-18.69,15.08.87,12.74,14.66,17.64,20.93,17.21Z"/>
      <path class="cls-4" d="m150.02,50.1c-2.72.19-6.56,3.3-6.81,6.65-.25,3.35,7.62,2.69,7.62,2.69h.22s7.88-.43,7.18-3.71c-.7-3.28-4.91-5.85-7.64-5.66l-.58.04Z"/>
      <g>
        <circle class="cls-4" cx="169.75" cy="39.06" r="2.41" transform="translate(-2.2 11.24) rotate(-3.77)"/>
        <path class="cls-4" d="m127.16,41.95c.09,1.33,1.24,2.33,2.57,2.24,1.33-.09,2.33-1.24,2.24-2.57-.09-1.33-1.24-2.34-2.57-2.25-1.33.09-2.33,1.24-2.24,2.57Z"/>
      </g>
      <path class="cls-4" d="m106.4,41.34c-3.05.32-5.14,6.25-5.53,14.45-.18-1.01-.32-2.07-.43-3.17-.69-7.42.71-13.64,3.12-13.9,1.03-.11,2.07.89,2.98,2.63-.05,0-.1-.01-.14-.01Z"/>
      <path class="cls-4" d="m192.63,35.5c3.06-.09,5.93,5.5,7.44,13.57.04-1.03.04-2.1,0-3.2-.32-7.45-2.55-13.42-4.97-13.35-1.03.03-1.93,1.16-2.6,3.01.04,0,.09-.03.14-.03Z"/>
      <path class="cls-7" d="m134.36,39.39c-.2,0-.4-.1-.52-.28-.43-.63-.97-1.17-1.61-1.6-.53-.36-3.68-1.03-4.44-.88-.79.16-1.52.46-2.17.91-.29.2-.68.12-.88-.17-.2-.29-.12-.68.17-.88.79-.54,1.68-.91,2.63-1.1,1.01-.2,4.53.5,5.38,1.07.77.52,1.43,1.17,1.95,1.94.2.29.12.68-.17.88-.11.07-.23.11-.35.11Z"/>
      <path class="cls-7" d="m174.84,30.38c-.18,0-.36-.08-.49-.23-.48-.59-1.07-1.08-1.75-1.45-.57-.31-3.76-.7-4.5-.48-.77.23-1.47.6-2.08,1.1-.27.22-.67.18-.89-.09-.22-.27-.18-.67.09-.89.74-.61,1.59-1.06,2.52-1.33.99-.29,4.56.09,5.46.58.82.45,1.53,1.04,2.12,1.75.22.27.18.67-.09.89-.12.1-.26.14-.4.14Z"/>
      <path class="cls-4" d="m151.3,74.54c-1.47,0-2.79-.32-3.68-.61-1.48-.56-2.64-1.24-3.69-2.16-1.12-.98-2.05-2.18-2.62-3.37-.17-.36-.02-.78.34-.95.36-.17.78-.02.95.34.48,1.01,1.31,2.07,2.28,2.91.92.8,1.94,1.4,3.22,1.88.87.28,2.26.61,3.75.51,1.39-.09,2.55-.41,3.65-1,1.04-.5,2.1-1.33,2.94-2.29.8-.92,1.4-1.94,1.88-3.22.14-.37.55-.56.92-.42.37.14.56.55.42.92-.54,1.45-1.23,2.61-2.15,3.66-.98,1.12-2.18,2.05-3.37,2.62-1.26.68-2.61,1.05-4.2,1.15-.21.01-.43.02-.63.02Z"/>
    </g>
  </g>
  <g>
    <g>
      <path class="cls-6" d="m97.11,100.99c.31.4.59.73.52,1.87-.1,1.63-1.24,2.62-2.81,2.52l-3.89-.24.55-9.01,4.24.26c1.34.21,2.16,1.18,2.07,2.79-.08,1.24-.39,1.45-.67,1.81Zm-1.38-1.89c.03-.54-.31-.84-.76-.86l-1.3-.08-.1,1.62,1.32.08c.44.03.82-.21.85-.75Zm-.25,3.59c.03-.53-.31-.84-.75-.86l-1.28-.08-.1,1.63,1.27.08c.45.03.83-.24.86-.76Z"/>
      <path class="cls-6" d="m99.46,96.61l2.37.14-.55,9.04-2.37-.14.55-9.04Z"/>
      <path class="cls-6" d="m110.96,97.31l-.14,2.37-2.66-.16-.4,6.66-2.37-.14.4-6.66-2.67-.16.14-2.37,7.7.47Z"/>
      <path class="cls-6" d="m119.94,100.68l-.04.71-2.33-.14v-.06c.04-.61-.43-1.14-1.04-1.18l-.81-.05c-.62-.04-1.16.43-1.19,1.05l-.12,2.05c-.04.61.44,1.14,1.06,1.18l.81.05c.61.04,1.14-.44,1.18-1.08l2.33.14-.04.72c-.09,1.56-1.44,2.74-3,2.64l-2.06-.12c-1.56-.09-2.75-1.43-2.65-2.98l.2-3.38c.09-1.56,1.44-2.75,3-2.65l2.06.12c1.56.09,2.75,1.44,2.65,3Z"/>
      <path class="cls-6" d="m129.08,101.25l-.2,3.36c-.09,1.56-1.43,2.75-2.98,2.65l-2.06-.12c-1.57-.1-2.75-1.44-2.65-3l.2-3.36c.09-1.56,1.43-2.75,3-2.65l2.06.12c1.56.09,2.74,1.44,2.64,3Zm-2.36.51c.04-.61-.44-1.14-1.05-1.18l-.81-.05c-.62-.04-1.16.43-1.19,1.04l-.12,2.04c-.04.62.43,1.16,1.06,1.19l.81.05c.61.04,1.14-.44,1.18-1.06l.12-2.04Z"/>
      <path class="cls-6" d="m130.7,98.51l2.37.14-.55,9.04-2.37-.14.55-9.04Z"/>
      <path class="cls-6" d="m139.83,99.06l2.37.14-.55,9.03-2.6-.16-2.44-5-.29,4.84-2.37-.14.55-9.03,2.6.16,2.44,5,.29-4.84Z"/>
      <path class="cls-2" d="m147.24,99.51l2.37.14-.55,9.04-2.37-.14.55-9.04Z"/>
      <path class="cls-2" d="m157.13,106.75c-.03.58-.33,1.16-.81,1.6-.51.47-1.14.71-1.76.67l-1.65-.1c-1.34-.08-2.35-1.24-2.27-2.57l.04-.72,2.17.13v.19c-.04.42.28.77.68.8l.66.04c.37.02.54-.27.56-.54.03-.49-1.02-.87-1.72-1.11-.54-.19-1.05-.4-1.49-.81s-.71-1.14-.67-1.81v-.07c.07-.68.32-1.43.83-1.91.5-.46,1.12-.7,1.76-.66l1.65.1c1.33.08,2.35,1.24,2.27,2.57l-.04.72-2.17-.13v-.19c.04-.42-.28-.77-.7-.8l-.66-.04c-.36-.02-.54.26-.56.53s.24.62.91.8c.47.14.84.25,1.05.34,1.32.58,2,1.57,1.91,2.98Z"/>
      <path class="cls-2" d="m168.2,105.3c.31.4.59.73.52,1.87-.1,1.63-1.24,2.62-2.81,2.52l-3.89-.24.55-9.01,4.24.26c1.34.21,2.16,1.18,2.07,2.79-.08,1.24-.39,1.45-.67,1.81Zm-1.38-1.89c.03-.54-.31-.84-.76-.86l-1.3-.08-.1,1.62,1.32.08c.44.03.82-.21.85-.75Zm-.25,3.59c.03-.53-.31-.84-.75-.86l-1.28-.08-.1,1.63,1.27.08c.45.03.83-.24.86-.76Z"/>
      <path class="cls-2" d="m175.42,101.21l2.46,9.21-2.44-.15-.36-1.36-2.83-.17-.5,1.3-2.47-.15,3.54-8.85,2.6.16Zm-.88,5.71l-.63-2.32-.89,2.23,1.52.09Z"/>
      <path class="cls-2" d="m187.03,104.75l-.04.71-2.33-.14v-.06c.04-.61-.43-1.14-1.04-1.18l-.81-.05c-.62-.04-1.16.43-1.19,1.05l-.12,2.05c-.04.61.44,1.14,1.06,1.18l.81.05c.61.04,1.14-.44,1.18-1.08l2.33.14-.04.72c-.09,1.56-1.44,2.74-3,2.64l-2.06-.12c-1.56-.09-2.75-1.43-2.65-2.98l.2-3.38c.09-1.56,1.44-2.75,3-2.65l2.06.12c1.56.09,2.75,1.44,2.65,3Z"/>
      <path class="cls-2" d="m193.12,106.33l2.53,5.19-2.6-.16-2.31-4.66-.27,4.5-2.37-.14.55-9.04,2.37.14-.22,3.58,2.24-3.46,2.6.16-2.52,3.88Z"/>
      <path class="cls-2" d="m204.13,102.95l-.14,2.37-4.12-.25-.07,1.09,3.18.19-.12,1.95-3.18-.19-.08,1.24,4.12.25-.14,2.38-6.49-.39.55-9.04,6.49.39Z"/>
      <path class="cls-2" d="m213.08,106.34l-.2,3.36c-.09,1.56-1.43,2.74-2.98,2.64l-4.87-.3.55-9,4.87.3c1.56.09,2.74,1.44,2.64,3Zm-2.36.51c.04-.61-.42-1.14-1.05-1.18l-1.88-.11-.26,4.26,1.88.11c.62.04,1.14-.42,1.18-1.05l.12-2.04Z"/>
    </g>
    <g>
      <path class="cls-2" d="m98.84,119.89c.46.6.88,1.09.78,2.78-.15,2.42-1.85,3.89-4.18,3.75l-5.79-.35.81-13.41,6.31.38c2,.32,3.22,1.75,3.07,4.16-.11,1.85-.58,2.16-1,2.69Zm-2.05-2.81c.05-.8-.46-1.24-1.14-1.29l-1.94-.12-.15,2.4,1.96.12c.66.04,1.22-.32,1.27-1.12Zm-.38,5.34c.05-.78-.46-1.24-1.12-1.28l-1.91-.12-.15,2.42,1.89.11c.68.04,1.24-.35,1.29-1.14Z"/>
      <path class="cls-2" d="m114.04,114.11l-5.05,7.79-.33,5.36-3.53-.21.33-5.36-4.07-8.35,3.87.23,2.19,4.51,2.74-4.21,3.85.23Z"/>
      <path class="cls-6" d="m132.97,115.24l-.21,3.53-3.95-.24-.6,9.9-3.53-.21.6-9.9-3.97-.24.21-3.53,11.45.7Z"/>
      <path class="cls-6" d="m143.05,115.83l3.53.21-.82,13.45-3.53-.21.31-5.04-4.42-.27-.31,5.04-3.53-.21.82-13.45,3.53.21-.31,5.04,4.42.27.31-5.04Z"/>
      <path class="cls-6" d="m158.37,116.76l-.21,3.53-6.13-.37-.1,1.62,4.74.29-.18,2.9-4.74-.29-.11,1.85,6.13.37-.22,3.54-9.65-.59.82-13.45,9.65.59Z"/>
      <path class="cls-6" d="m174.22,124.46c.46.6.88,1.09.78,2.78-.15,2.42-1.85,3.89-4.18,3.75l-5.79-.35.81-13.41,6.31.38c2,.32,3.22,1.75,3.07,4.16-.11,1.85-.58,2.16-1,2.69Zm-2.05-2.81c.05-.8-.46-1.24-1.14-1.29l-1.94-.12-.15,2.4,1.96.12c.66.04,1.22-.32,1.27-1.12Zm-.38,5.34c.05-.78-.46-1.24-1.12-1.28l-1.91-.12-.15,2.42,1.89.11c.68.04,1.24-.35,1.28-1.14Z"/>
      <path class="cls-6" d="m187.36,118.52l-.21,3.53-6.13-.37-.1,1.62,4.74.29-.18,2.9-4.74-.29-.11,1.85,6.13.37-.22,3.54-9.65-.59.82-13.45,9.65.59Z"/>
      <path class="cls-6" d="m198.55,129.09c-.05.86-.5,1.72-1.2,2.38-.76.71-1.69,1.06-2.62,1l-2.46-.15c-2-.12-3.5-1.84-3.38-3.82l.06-1.07,3.22.2-.02.29c-.04.62.43,1.15,1.04,1.19l.98.06c.55.03.81-.4.84-.81.04-.73-1.51-1.29-2.56-1.66-.81-.28-1.56-.59-2.22-1.21-.66-.61-1.06-1.69-1-2.69v-.11c.1-1.01.48-2.13,1.23-2.84.74-.69,1.67-1.04,2.62-.99l2.46.15c1.98.12,3.5,1.84,3.38,3.82l-.06,1.07-3.22-.2.02-.29c.04-.62-.43-1.15-1.05-1.19l-.98-.06c-.53-.03-.81.38-.83.79s.36.92,1.36,1.19c.7.2,1.25.38,1.56.51,1.97.87,2.97,2.34,2.84,4.43Z"/>
      <path class="cls-6" d="m212.73,120.08l-.21,3.53-3.95-.24-.6,9.9-3.53-.21.6-9.9-3.97-.24.21-3.53,11.45.7Z"/>
    </g>
    <g>
      <path class="cls-6" d="m104.12,133.39l.24,15.01-3.91-.24-.1-5.58-2.46,5.42-4.36-.26-1.77-5.66-.75,5.51-3.93-.24,2.06-14.87,3.93.24,2.98,9.6,4.14-9.17,3.93.24Z"/>
      <path class="cls-6" d="m120.12,139.06l-.34,5.57c-.16,2.58-2.37,4.55-4.95,4.4l-3.41-.21c-2.6-.16-4.55-2.39-4.4-4.97l.34-5.57c.16-2.58,2.37-4.55,4.97-4.4l3.41.21c2.58.16,4.53,2.39,4.38,4.96Zm-3.91.84c.06-1.01-.72-1.9-1.73-1.96l-1.35-.08c-1.03-.06-1.91.72-1.98,1.73l-.2,3.37c-.06,1.03.72,1.91,1.75,1.98l1.35.08c1.01.06,1.9-.72,1.96-1.75l.2-3.37Z"/>
      <path class="cls-6" d="m131.6,135.06l3.93.24-.91,14.96-4.3-.26-4.04-8.29-.49,8.01-3.93-.24.91-14.96,4.3.26,4.04,8.29.49-8.01Z"/>
      <path class="cls-6" d="m148.66,136.08l-.24,3.93-6.82-.41-.11,1.81,5.28.32-.2,3.23-5.28-.32-.13,2.06,6.82.41-.24,3.95-10.75-.65.91-14.98,10.75.65Z"/>
      <path class="cls-6" d="m163.79,137.02l-.24,3.93-4.4-.27-.67,11.03-3.93-.24.67-11.03-4.42-.27.24-3.93,12.75.77Z"/>
      <path class="cls-6" d="m172.95,137.55l4.07,15.26-4.05-.25-.6-2.25-4.68-.28-.83,2.16-4.09-.25,5.87-14.65,4.3.26Zm-1.45,9.47l-1.04-3.85-1.48,3.69,2.52.15Z"/>
      <path class="cls-6" d="m189.23,148.31l2.68,5.44-4.3-.26-2.41-4.92-1.59-.1-.29,4.76-3.93-.24.91-14.96,7.6.46c2.2.13,3.88,2.03,3.74,4.23l-.13,2.22c-.09,1.51-1,2.75-2.27,3.37Zm-5.42-3.14l2.72.16c.87.05,1.61-.6,1.66-1.47l.03-.48c.05-.87-.6-1.63-1.47-1.68l-2.72-.16-.22,3.63Z"/>
      <path class="cls-6" d="m208.24,139.73l-5.62,8.68-.36,5.97-3.93-.24.36-5.97-4.53-9.29,4.3.26,2.44,5.03,3.05-4.69,4.28.26Z"/>
    </g>
    <g>
      <path class="cls-6" d="m97.34,158.8l-.12,2.02c-.12,2-1.85,3.53-3.85,3.41l-3.34-.2-.26,4.33-3.57-.22.83-13.61,6.91.42c2,.12,3.53,1.85,3.41,3.85Zm-3.12.61c.05-.79-.54-1.48-1.34-1.53l-2.47-.15-.2,3.3,2.47.15c.79.05,1.46-.55,1.51-1.34l.03-.43Z"/>
      <path class="cls-6" d="m107.85,164.7l2.44,4.95-3.92-.24-2.19-4.48-1.44-.09-.26,4.33-3.57-.22.83-13.61,6.91.42c2,.12,3.53,1.85,3.41,3.85l-.12,2.02c-.08,1.37-.91,2.5-2.07,3.06Zm-4.94-2.86l2.47.15c.79.05,1.46-.55,1.51-1.34l.03-.43c.05-.79-.54-1.48-1.34-1.53l-2.47-.15-.2,3.3Z"/>
      <path class="cls-6" d="m123.55,161.04l-.31,5.07c-.14,2.35-2.15,4.15-4.5,4l-3.11-.19c-2.37-.14-4.14-2.17-4-4.52l.31-5.07c.14-2.35,2.15-4.15,4.52-4l3.11.19c2.35.14,4.13,2.17,3.98,4.52Zm-3.56.76c.06-.92-.66-1.73-1.58-1.78l-1.23-.07c-.94-.06-1.74.66-1.8,1.58l-.19,3.07c-.06.94.66,1.74,1.59,1.8l1.23.07c.92.06,1.73-.66,1.78-1.6l.19-3.07Z"/>
      <path class="cls-6" d="m136.29,161.17l-.12,2.02c-.12,2-1.85,3.53-3.85,3.41l-3.34-.2-.26,4.33-3.57-.22.83-13.61,6.91.42c2,.12,3.53,1.85,3.41,3.85Zm-3.12.61c.05-.79-.54-1.48-1.34-1.53l-2.47-.15-.2,3.3,2.47.15c.79.05,1.46-.55,1.51-1.34l.03-.43Z"/>
      <path class="cls-6" d="m148.46,158.26l-.22,3.57-6.21-.38-.1,1.64,4.8.29-.18,2.94-4.8-.29-.11,1.88,6.21.38-.22,3.59-9.79-.59.83-13.63,9.79.59Z"/>
      <path class="cls-6" d="m158.75,167.78l2.44,4.95-3.92-.24-2.19-4.48-1.44-.09-.26,4.33-3.57-.22.83-13.61,6.91.42c2,.12,3.53,1.85,3.41,3.85l-.12,2.02c-.08,1.37-.91,2.5-2.07,3.06Zm-4.94-2.86l2.47.15c.79.05,1.46-.55,1.51-1.34l.03-.43c.05-.79-.54-1.48-1.34-1.53l-2.47-.15-.2,3.3Z"/>
      <path class="cls-6" d="m175.79,159.94l-.22,3.57-4.01-.24-.61,10.04-3.57-.22.61-10.04-4.03-.24.22-3.57,11.61.7Z"/>
      <path class="cls-6" d="m177.95,160.07l3.57.22-.83,13.63-3.57-.22.83-13.63Z"/>
      <path class="cls-6" d="m193.48,160.99l-.22,3.57-6.21-.38-.1,1.64,4.8.29-.18,2.94-4.8-.29-.11,1.88,6.21.38-.22,3.59-9.79-.59.83-13.63,9.79.59Z"/>
      <path class="cls-6" d="m204.82,171.7c-.05.87-.5,1.75-1.22,2.41-.77.71-1.71,1.07-2.65,1.02l-2.49-.15c-2.02-.12-3.55-1.86-3.43-3.87l.07-1.08,3.27.2-.02.29c-.04.63.44,1.17,1.05,1.21l.99.06c.56.03.82-.4.85-.82.04-.74-1.53-1.31-2.6-1.68-.82-.28-1.58-.6-2.25-1.22-.67-.62-1.07-1.71-1.01-2.73v-.11c.11-1.03.48-2.16,1.25-2.88.75-.7,1.7-1.06,2.65-1l2.49.15c2,.12,3.55,1.86,3.43,3.87l-.07,1.08-3.27-.2.02-.29c.04-.63-.44-1.17-1.07-1.21l-.99-.06c-.54-.03-.82.39-.85.8s.36.93,1.38,1.21c.71.21,1.26.38,1.58.51,1.99.88,3.01,2.38,2.88,4.49Z"/>
    </g>
  </g>
</svg>