<?xml version="1.0" encoding="UTF-8"?>
<svg id="Layer_1" data-name="Layer 1" xmlns="http://www.w3.org/2000/svg" width="300" height="225" viewBox="0 0 300 225">
  <defs>
    <style>
      .cls-1 {
        fill: #fff;
      }

      .cls-2 {
        opacity: .5;
      }

      .cls-3 {
        isolation: isolate;
        opacity: .35;
      }

      .cls-4 {
        fill: #232323;
      }

      .cls-5 {
        fill: #444;
      }

      .cls-6 {
        fill: #ea651b;
      }

      .cls-7 {
        fill: #606060;
      }

      .cls-8 {
        fill: #7f7f7f;
      }

      .cls-9 {
        fill: #231f20;
      }
    </style>
  </defs>
  <g>
    <g>
      <g class="cls-3">
        <ellipse class="cls-4" cx="77" cy="197.86" rx="41.58" ry="6.71"/>
      </g>
      <path class="cls-4" d="m46.88,150.29c.17,1.36,4.67,39.75,11.21,45.13,6.54,5.38,9.97,3.57,11.3,2.14,1.39-1.5,3.15-4.19-.11-7.23-2.62-2.44-4.46-13.26-1.85-30.14l-20.55-9.9Z"/>
      <path class="cls-4" d="m71.85,147.9c.17,1.36,4.67,39.75,11.21,45.13,6.54,5.38,9.98,3.57,11.3,2.14,1.39-1.5,3.15-4.19-.11-7.23-2.62-2.44-4.46-13.26-1.85-30.14l-20.56-9.9Z"/>
      <path class="cls-4" d="m111.43,117.99c-2.23-2.02-5.56-2.24-7.82.16-2.25,2.38-2,7.33,1.09,10.18,8.78,8.1,20.35,11.01,31.91,8.03,4.07-1.04,6.64-5.28,5.78-8.44-.86-3.18-3.9-4.58-6.81-3.85-8.75,2.25-17.5.05-24.15-6.08Z"/>
      <path class="cls-1" d="m84.91,93.6c8.58,1.07,17.64,4.89,32.34,14.75-2.36-3.92-6.38-7.88-12.97-12.69h0c-11.29-8.24-17.92-10.12-25.11-8.51-8.49,1.9-21.85,15.3-30.89,26.72,8.8-10.5,23.93-21.83,36.65-20.26Z"/>
      <path class="cls-5" d="m48.26,113.86c-1.29,1.54-2.44,3.07-3.43,4.52,1.05-1.45,2.2-2.97,3.43-4.52Z"/>
      <path class="cls-5" d="m24.57,125.61c-2.45-.03-4.82-1.15-5.2-2.93-.39-1.77,1.75-4,4.84-4.47,8.38-1.3,17.12.09,24.9,4.16,2.89,1.52,3.18,5.11.91,7.55-2.27,2.45-5.3,3.18-7.08,1.85-5.07-3.82-11.48-6.1-18.37-6.15Z"/>
      <path class="cls-1" d="m96.91,68.73c5.51-11.36,16.84-12.09,35.09-.39,5.79,3.71,15.67.93,20.55,2.66,14.03,4.98,11.29,14.49,11.29,14.49l.02.02c3.79-17.13-6.87-36.54-26.38-45.89-22.14-10.61-47.26-4.22-56.12,14.26-8.86,18.48,1.9,42.07,24.04,52.68,1.93.92,3.88,1.71,5.84,2.38v-.02c-20.13-7.99-21.65-25.09-14.34-40.18Z"/>
      <path class="cls-5" d="m161.54,92.29c1.06-2.2,1.82-4.47,2.34-6.79l-.02-.02s2.74-9.51-11.29-14.49c-4.88-1.73-14.76,1.05-20.55-2.66-18.25-11.7-29.59-10.97-35.09.39-7.31,15.09-5.79,32.19,14.36,40.18v.02c13.95,4.77,28.41,3.16,38.79-3.64,1.56-1.02,1.73-3.56,3.09-4.81s3.91-1.23,5.03-2.71c1.28-1.68,2.41-3.51,3.35-5.47Z"/>
      <path class="cls-8" d="m122.84,107.23c-4.32-1.87-10.86-9.5-5.04-17.55,5.81-8.04,16.41-4.3,19.82-2.83,3.41,1.48,13.09,6.5,7.28,14.54-5.82,8.05-17.72,7.71-22.05,5.84Z"/>
      <path class="cls-4" d="m136.29,89.06c1.88.81,3.36,3.81,2.18,6.04-1.19,2.23-6.57-.19-6.57-.19l-.16-.07s-5.49-2.27-3.65-4.23c1.84-1.95,5.92-2.54,7.8-1.73l.41.18Z"/>
      <path class="cls-4" d="m129.45,104.08c-.12,0-.24,0-.37,0-1.18-.04-2.29-.28-3.31-.72-1.02-.44-1.87-1.05-2.55-1.81-.66-.76-1.11-1.61-1.35-2.54-.24-.93-.25-1.91-.03-2.91.04-.18.22-.3.4-.26.18.04.3.22.26.4-.19.9-.18,1.78.03,2.61.21.83.61,1.59,1.2,2.27.61.69,1.38,1.24,2.31,1.64.93.41,1.96.63,3.06.67,1.06.03,2.14-.1,3.2-.41,1.07-.31,2.07-.78,2.96-1.38.15-.1.36-.06.47.09.1.15.06.36-.09.47-.96.65-2.02,1.14-3.15,1.47-1.01.29-2.03.44-3.05.44Z"/>
      <circle class="cls-4" cx="121.47" cy="76.18" r="1.82"/>
      <circle class="cls-4" cx="150.06" cy="84.71" r="1.82"/>
      <path class="cls-5" d="m101.01,74.36c-3.01,6.5-7.52,10.81-10.07,9.63-2.54-1.19-2.17-7.41.84-13.9,3.01-6.5,7.52-10.81,10.06-9.63,2.55,1.17,2.17,7.4-.84,13.9Z"/>
      <path class="cls-4" d="m101.62,65.83c-2.11-.96-5.73,2.1-9.13,7.28.27-.73.58-1.47.94-2.23,2.39-5.09,5.68-8.6,7.35-7.84.71.32,1.01,1.37.93,2.85-.03-.02-.06-.05-.09-.06Z"/>
      <path class="cls-8" d="m116.28,74.18c-.07,0-.13-.02-.19-.05-.18-.11-.23-.33-.13-.51.35-.59.81-1.09,1.37-1.51.55-.41,1.16-.71,1.83-.89.69-.18,1.39-.22,2.1-.12.71.1,1.38.34,1.99.71.18.11.23.33.13.51-.11.18-.33.23-.51.13-.52-.31-1.1-.52-1.71-.61-.61-.09-1.22-.05-1.81.1-.58.15-1.11.41-1.58.76-.48.36-.87.79-1.18,1.3-.07.12-.19.18-.32.18Z"/>
      <path class="cls-8" d="m155.29,85.82s-.03,0-.05,0c-.2-.02-.35-.21-.32-.41.07-.61.03-1.22-.14-1.81-.17-.6-.45-1.14-.83-1.6-.37-.46-.82-.84-1.34-1.13-.52-.29-1.08-.47-1.67-.54-.2-.02-.35-.21-.32-.41.03-.2.21-.35.41-.32.68.08,1.33.3,1.93.63.6.33,1.13.77,1.56,1.31.44.55.77,1.17.97,1.87.2.69.25,1.39.17,2.1-.02.19-.18.33-.37.33Z"/>
      <path class="cls-5" d="m120.06,116.96c-.24-2.68-.91-5.15-2.21-7.6-.18-.34-.39-.68-.6-1.02-2.37-1.59-4.58-3-6.67-4.29-4.99-3.38-9.2-5.61-13-6.89-4.66-1.98-8.72-3.07-12.67-3.55-12.72-1.57-27.85,9.76-36.65,20.26-1.23,1.55-2.39,3.08-3.44,4.53-2.71,3.75-4.73,7.02-5.65,9.22-.99,2.38-.32,5.53,1.74,9.12,3.27,5.72,10.06,12.57,19.33,19.33h0c.87.64,1.73,1.24,2.58,1.84.27.18.53.35.79.53.6.4,1.19.8,1.78,1.18.29.19.59.38.87.57.57.37,1.15.72,1.71,1.07.27.16.53.33.8.48.69.42,1.37.81,2.05,1.19.12.06.24.14.36.2.8.45,1.59.87,2.37,1.26.19.1.37.18.56.28.58.29,1.16.57,1.73.83.24.11.48.22.71.32.52.23,1.03.45,1.53.66.23.09.46.19.69.28.55.21,1.09.42,1.62.6.12.04.25.1.38.14h-.01c3.66,1.24,6.83,1.75,9.31,1.42.03,0,.05-.01.07-.01.47-.07.92-.16,1.33-.28.16-.05.3-.13.45-.19.27-.1.54-.19.78-.32.38-.2.73-.44,1.05-.71,7.67-6.54,27.47-37.54,26.29-50.45Z"/>
      <ellipse class="cls-5" cx="69.14" cy="144.05" rx="27.05" ry="34.33" transform="translate(-88 115.07) rotate(-53.91)"/>
      <g>
        <path class="cls-4" d="m83.68,102.08c-.2-3-2.44-5.47-5.73-5.32-3.28.14-6.53,3.88-6.29,8.07.68,11.92,6.97,22.06,17.36,27.95,3.65,2.07,8.44.81,10.02-2.06,1.59-2.88.38-6-2.23-7.51-7.86-4.46-12.62-12.12-13.14-21.15Z"/>
        <path class="cls-4" d="m102.81,130.65c.74.35,1.61.36,1.98-.11.38-.47.06-1.45-.79-2.04-2.3-1.62-5.11-2.48-8.02-2.41-1.08.04-1.7,1.06-1.38,2.12.31,1.06,1.11,1.72,1.84,1.58,2.08-.39,4.32-.14,6.37.85Z"/>
        <path class="cls-4" d="m100.86,134.94c.61.54,1.44.79,1.93.44.49-.35.46-1.37-.19-2.18-1.76-2.19-4.22-3.8-7.04-4.54-1.05-.27-1.92.54-1.91,1.65,0,1.11.59,1.96,1.33,2.03,2.1.19,4.18,1.07,5.88,2.59Z"/>
        <path class="cls-4" d="m96.98,137.78c.29.76.92,1.36,1.52,1.27.59-.09,1.03-1.01.82-2.03-.57-2.75-2.03-5.3-4.2-7.24-.81-.72-1.96-.39-2.45.6-.49.99-.37,2.02.26,2.41,1.78,1.13,3.23,2.86,4.06,4.99Z"/>
      </g>
      <path class="cls-4" d="m72.87,193.82c.82.23,1.72.09,2.03-.46.31-.55-.18-1.51-1.17-1.97-2.67-1.27-5.72-1.68-8.73-1.1-1.12.22-1.57,1.39-1.06,2.43.51,1.04,1.45,1.59,2.18,1.33,2.08-.77,4.45-.9,6.75-.22Z"/>
      <path class="cls-4" d="m71.6,198.6c.72.45,1.63.57,2.08.12s.24-1.5-.57-2.22c-2.21-1.96-5.03-3.2-8.08-3.48-1.13-.1-1.89.9-1.69,2.04.2,1.15.95,1.93,1.73,1.88,2.21-.17,4.51.37,6.54,1.66Z"/>
      <path class="cls-4" d="m68.07,202.21c.44.73,1.19,1.25,1.79,1.06.6-.19.9-1.23.5-2.24-1.07-2.75-3.02-5.14-5.62-6.77-.97-.61-2.1-.07-2.44,1.04-.34,1.12-.03,2.16.68,2.45,2.04.86,3.85,2.39,5.07,4.46Z"/>
      <path class="cls-4" d="m98.97,190.98c.82.23,1.72.1,2.03-.46.3-.56-.18-1.51-1.17-1.98-2.67-1.27-5.72-1.68-8.73-1.09-1.12.22-1.57,1.39-1.06,2.43.51,1.05,1.45,1.59,2.18,1.33,2.08-.77,4.45-.9,6.75-.22Z"/>
      <path class="cls-4" d="m97.69,195.76c.72.45,1.63.57,2.07.12.45-.44.25-1.5-.57-2.22-2.21-1.96-5.03-3.2-8.08-3.48-1.13-.1-1.89.9-1.69,2.04.2,1.15.95,1.93,1.73,1.88,2.21-.17,4.52.38,6.54,1.66Z"/>
      <path class="cls-4" d="m94.17,199.37c.44.73,1.19,1.25,1.8,1.05.6-.19.9-1.22.5-2.24-1.07-2.75-3.02-5.14-5.61-6.77-.96-.61-2.1-.06-2.43,1.04-.34,1.11-.03,2.15.68,2.45,2.05.86,3.85,2.39,5.07,4.46Z"/>
      <path class="cls-4" d="m144.99,125.3c.83-.25,1.52-.87,1.47-1.52-.05-.64-1-1.18-2.09-1.03-2.97.4-5.8,1.76-8.04,3.92-.83.81-.56,2.06.45,2.65,1.02.6,2.12.55,2.59-.08,1.34-1.81,3.28-3.22,5.61-3.94Z"/>
      <path class="cls-4" d="m146.56,130.08c.87-.02,1.7-.42,1.84-1.05.14-.63-.63-1.41-1.73-1.57-2.97-.44-6.06.08-8.8,1.53-1.02.55-1.11,1.82-.31,2.68.81.86,1.89,1.11,2.51.63,1.79-1.36,4.05-2.18,6.49-2.22Z"/>
      <path class="cls-4" d="m145.57,135.11c.78.38,1.7.4,2.11-.1.4-.5.08-1.54-.82-2.19-2.44-1.74-5.43-2.69-8.54-2.64-1.15.02-1.81,1.11-1.49,2.24.32,1.14,1.17,1.85,1.94,1.71,2.21-.4,4.6-.1,6.79.97Z"/>
      <path class="cls-9" d="m140.2,132.94c-.15-.11-.29-.23-.42-.37-1.09-1.18-1.03-3.02.15-4.11l13.72-12.78c1.18-1.09,3.02-1.02,4.11.15,1.09,1.18,1.03,3.02-.15,4.11l-13.72,12.78c-1.04.96-2.59,1.03-3.69.22Z"/>
    </g>
    <path class="cls-6" d="m179.6,112.62c-.03-.52.34-.93.3-1.45-.08-1.23-.3-2.77-.37-4-.16-.02-.57.13-.72.13-.14,0-.27-.04-.4-.08-.06-.02-.1-.02-.14.02-.04.03-.11.08-.14.04-.1-.11-.24-.14-.35-.22-.08-.06-.16-.13-.25-.19-.06-.03-.09-.03-.13.02-.03.04-.06.07-.11.06-.12-.04-.27.02-.37-.09,0,0-.02,0-.03,0-.06,0-.1-.03-.15-.07-.15-.14-.29-.11-.39.07-.02.05-.05.07-.1.06-.16-.03-.29,0-.36.17-.03.07-.07.07-.12.02-.03-.03-.06-.08-.1-.07-.13.05-.17-.05-.22-.12-.05-.08-.12-.11-.21-.09-.18.03-.35.09-.41.28,0,.03-.02.06-.05.06-.14,0-.18.11-.22.22-.02.06-.05.12-.1.16-.09.06-.14.15-.19.23-.1.16-.21.19-.4.14-.08-.02-.15-.02-.19.06-.04.06-.1.09-.17.09-.09,0-.18,0-.27,0-.06,0-.09.01-.12.06-.1.18-.17.19-.32.05-.09-.1-.17-.09-.28-.01-.07.05-.15.09-.23.13-.06.03-.13.03-.17-.03-.05-.06-.11-.07-.18-.05-.09.02-.16,0-.25-.04-.09-.04-.18-.15-.3-.05-.02.02-.04,0-.06,0-.09-.07-.16-.02-.21.06-.04.06-.08.1-.15.12-.06.02-.12.06-.12.14,0,.06-.04.12-.09.16-.11.11-.23.2-.39.24-.1.02-.19,0-.28.02-.12.03-.17-.03-.21-.11-.09-.18-.24-.22-.42-.21-.09,0-.19.02-.28-.01-.1-.04-.18-.03-.27.03-.04.02-.08.03-.12,0-.07-.05-.14-.08-.2-.14-.07-.06-.11-.05-.17.02-.08.1-.11.09-.19-.02-.02-.03-.04-.05-.06-.07-.05-.06-.12-.06-.17-.01-.07.08-.11.04-.15-.02-.02-.03-.05-.06-.06-.1-.04-.06-.07-.15-.15-.15-.08,0-.07.11-.1.17-.04.1-.05.23-.13.31-.1.1-.18.21-.22.34-.02.06-.06.09-.12.07-.08-.03-.13,0-.18.06-.03.03-.05.07-.08.1-.08.09-.14.19-.28.14-.05-.02-.1.02-.14.06-.06.07-.09.15-.13.23-.04.11-.11.21-.21.28-.03.02-.05.03-.08,0-.05-.05-.11-.03-.17,0-.09.03-.15.12-.24.14-.17.04-.32.15-.48.22-.15.07-.31.11-.47.08-.12-.02-.23-.03-.34-.02-.04,0-.08.01-.11.06-.12.21-.32.24-.53.25-.03,0-.07-.01-.09,0-.08.06-.16.04-.25.02-.08-.02-.19-.09-.24,0-.09.15-.25.21-.36.33-.06.07-.16.12-.25.06-.17-.11-.33-.05-.49.02-.14.07-.29.05-.44.02-.09-.02-.17-.07-.26-.01-.2.14-.2.14-.35-.05-.02-.02-.04-.05-.06-.07-.04-.03-.08-.08-.13-.06-.1.03-.19.02-.29.03-.08,0-.12-.01-.17-.06-.15-.14-.32-.25-.55-.2-.02,0-.04,0-.05,0-.1-.06-.14,0-.19.08-.02.04-.05.09-.11.08-.09-.01-.18,0-.26-.08-.07-.07-.13-.04-.15.06-.01.04,0,.09-.04.13-.02,0-.02-.03-.03-.04-.03-.12-.07-.24-.13-.34-.05-.09-.13-.11-.2-.03-.04.05-.06.03-.08,0-.06-.09-.09-.08-.15,0-.06.1-.06.22-.07.33-.02.24-.05.47-.13.7-.02.06-.05.13-.11.12-.14-.02-.21.06-.29.15-.12.14-.28.13-.4,0-.03-.04-.06-.07-.11-.03-.04.03-.06.01-.09-.02-.06-.08-.09-.03-.11.03-.02.07-.02.16-.1.2-.05.03-.07.07-.07.12-.03.21-.08.41-.17.61-.06.12-.12.23-.17.35-.03.07-.09.11-.17.13-.17.06-.33.14-.53.09-.08-.02-.19.07-.3.07-.08,0-.14.1-.19.19-.1.2-.24.33-.47.33-.05,0-.09.02-.13.02-.13,0-.28.1-.37-.08,0-.01-.02-.02-.03-.02-.15-.09-.2-.07-.23.1-.02.14-.07.27-.14.39-.02.03-.03.07-.07.04-.06-.04-.12-.07-.16-.12-.12-.19-.27-.36-.36-.57-.02-.04-.03-.11-.08-.12-.06-.01-.04.08-.09.09-.03-.03-.04-.08-.05-.12-.01-.05-.03-.1-.09-.12-.1-.04-.15-.12-.19-.21-.03-.07-.04-.14-.1-.2-.04.06-.03.12-.04.18-.02.21,0,.43-.06.64-.05.17-.07.34-.08.51-.02.25-.02.5-.06.74-.01.09-.05.11-.13.08-.06-.02-.11-.06-.16-.09-.09-.05-.13-.03-.14.07-.01.12-.03.23-.03.35,0,.17-.09.28-.18.4-.03.05-.07.07-.12.02-.03-.03-.06-.03-.09,0-.05.08-.13.15-.15.24-.03.1-.04.19-.05.29l-.26.02.18,2.95,1.17.79c4.91,9.18,19.65,10.49,27.09-1.49.07-.01.3-3.98.29-4.05-.1-.63-.2-1.27-.3-1.9Zm-26.82.48s.03.05.04.07c-.01-.02-.03-.05-.04-.07h0Z"/>
    <g class="cls-2">
      <path class="cls-1" d="m171.78,113.12c-.63.86-1.85,1.05-2.71.42l-3.3-2.41c-.86-.63-1.06-1.85-.43-2.71l2.41-3.3c.63-.86,1.85-1.05,2.71-.42l3.3,2.41c.86.63,1.05,1.85.43,2.71l-2.41,3.3Z"/>
    </g>
    <path class="cls-9" d="m154.25,126.01c-8.18-5.96-9.98-17.46-4.02-25.64s17.46-9.98,25.64-4.02c8.18,5.96,9.98,17.46,4.02,25.64-5.96,8.18-17.46,9.98-25.64,4.02Zm19.34-26.53c-6.45-4.7-15.52-3.28-20.22,3.17-4.7,6.45-3.28,15.52,3.17,20.22,6.45,4.7,15.52,3.28,20.22-3.17,4.7-6.45,3.28-15.52-3.17-20.22Z"/>
  </g>
  <g>
    <polygon class="cls-7" points="211.42 142.96 211.35 142.99 211.41 143.03 211.42 142.96"/>
    <path class="cls-6" d="m291.73,127.84c-.87-.02-.67.99-.85,1.3-.38.65-.77,1.31-.67,2.06.41,3.31.09,4.54-1.58,3.83-.33-.14-.59-.2-.83.06-.58.63-.81.26-1-.33-.17-.52-.36-1.04-.61-1.53-.51-1.03-1.29-1.32-2.26-.8-.53.28-.72.18-.84-.37-.12-.56-.29-1.1-.46-1.65-.12-.38-.18-.84-.72-.89-.51-.05-.64-.36-.71-.83-.06-.47-.29-.91-.52-1.58-.62,1.55-.72,3.15-1.86,4.26-1.29-.87-1.39-2.27-1.48-3.6-.15-2.1-.42-4.19-.62-6.28-.05-.48-.34-.55-.66-.64-1.11-.3-1.4-1.07-1.44-2.14-.14-3.53-.44-7.06-.8-10.58-.01-.14.04-.33-.03-.4-1.75-1.8-.78-4.23-1.65-6.54-.23,3.01-.45,5.76-.67,8.65-1.26-1.2-1.49-2.75-1.94-4.22-.6,1.72-.53,3.54-1.08,5.25-.77-4.19-.8-8.47-1.95-12.6-.45-.02-.51.61-1.05.65-.52-6.81-.97-13.63-1.92-20.42-2.21,8.65-1.64,17.57-2.42,26.49-.82-.75-.44-1.73-.69-2.5-.3-.92-.54-1.86-.43-2.82.13-1.1-.34-1.07-.88-1.1-.53-.04-.91.13-.93.67-.11,2.55-.7,5.05-.88,7.6-.15,2.16-.34,4.34-.52,6.5-.12,1.41-.44,2.83-.3,4.27-1.93-2.84-1.4-6.22-2.13-9.51-.56,1.14-.39,2.31-.84,3.32-.57-.82-.39-1.81-.47-2.68-.46-4.61-1.22-9.19-.82-13.89.13-1.55-.08-3.09-.42-4.61-.46-2.03-.17-4.33-1.08-6.38-.07-.17.08-.44-.21-.51-.25-.06-.37.14-.48.31-.5.78-1.03,1.56-1.14,2.5-.24,2.09-.38,4.19-.64,6.28-.09.76,0,1.63-.5,2.25-.67.84-.74,1.76-.76,2.78-.09,3.38-.17,6.77-.43,10.14-.2,2.5-.09,5.03-.49,7.52-.58-.15-.15-.82-.56-1.03-.23-.12.23-.54-.23-.52-.31.02-.47.22-.53.53-.31,1.54-.48,3.09-.63,4.65-.4,4.26-.52,8.56-1.54,12.75l-.03.09c-1.32,2.5-1.48,5.34-2.36,7.96-.29.86-.39,1.81-1.07,2.51-.07.07-.13.16-.18.25-.44.89-1.11-.39-1.6.17-.73.83-.99.15-1.28-.42-.17-.34-.33-.69-.83-.6-.42.07-.52.38-.6.72-.05.2-.13.38-.2.57-.52,1.59-1.05,1.91-2.69,1.51-.34-.08-.74-.27-.99-.07-.63.51-.98.04-1.39-.28-.24-.01-.33.09-.22.32-.09.32-.27.64-.27.97,0,1.55-1.29,1.84-2.3,2.38-.38.2-.52-.19-.65-.46-.43-.9-.87-1.79-1.3-2.69-.14-.29-.27-.55-.64-.59-.43-.05-.49.32-.64.56-.83,1.28-1.87,2.25-3.48,2.42-.19.02-.39.13-.56.24-.49.33-.74.11-.91-.36-.6-1.71-.71-1.8-2.44-1.43-.57.12-1.19-.19-1.32-.76-.29-1.23-1.69-1.42-2.22-2.53-.56.71-.48,1.57-.98,2.26-.47-.54-.49-1.25-.76-1.84-.12-.26-.08-.72-.45-.71-.37,0-.54.39-.64.73-.26.94-.51,1.89-.72,2.84-.09.42-.23.56-.61.29-.96-.68-1.09.32-1.45.76-.16.19-.14.52-.21.79-.31,1.13-.78,2.01-1.84,2.79-.99.73-1.9,1.17-3.09,1.28-1.08.1-2.15.53-3.23.03-.03-.01-.07-.01-.1-.01-.44,0-.72.81-1.14.41-.58-.56-1.08-1.25-1.46-1.96-.98-1.8-1.64-2.17-3.68-1.82-.32.05-.51-.06-.72-.26-.23-.21-.53-.42-.8-.08-.64.82-1.07.28-1.33-.27-.41-.88-.86-.66-1.39-.19-.18.16-.33.39-.54.47-.65.27-1.3.67-1.76-.36-.49-1.1-1.78-1.59-2.16-3.05-.56.93-.8,1.73-1.49,2.23-.41.3-.58.34-1.04-.36-.55-.84-.94-1.8-1.07-2.8-.11-.84-.35-1.06-1.07-.96-.15.4-.5,2.28-.95,2.48-.3.14-.34-.25-.42-.45-.85-2.02-1.32-4.15-1.66-6.3-.11-.7-.32-1.35-.52-2.01-.45.03-.29.49-.4.75-.04,2.76-1.13,6.49-1.63,8.99-.1.5-.56.81-1.03,1.06-.31,1.15-1.08,2.1-1.52,3.2-.18.44-.8.98-1.44.54-.74-.52-1.24-.15-1.7.34-.62.66-1.39,1.05-2.2,1.38-.28.12-.6.16-.89.05-1.02-.38-1.83.05-2.6.67-1.28,1.02-2.71,1.5-4.36,1.1-.32-.08-.6.11-.89.13-4.2.33-8.39,1.69-12.61,1.52-1.75-.07-3.46.1-5.18.31-.33.04-.68-.06-1.02-.06-3.19.02-6.39-.1-9.56.11-4.94.32-9.87.99-14.8,1.1-1.13.03-2.26.09-3.4.08-3.15-.04-6.31-.15-9.46-.26-2.16-.08-5.68-.15-7.84-.04-.84.04-1.67.02-2.53-.05-1.37-.11-2.73.02-4.09-.44-.86-.29-1.85.33-2.77-.16-.19-.1-.63.06-.86.24-1,.79-2.16.74-3.32.76-18.45.33-36.9,1.1-55.35,1.16-5.06.02-10.11,0-15.17,0v54.02c0,3.62,2.93,6.55,6.55,6.55h270.28c3.62,0,6.55-2.93,6.55-6.55v-84.86c-.02.08-.14.18-.15.26Z"/>
    <path class="cls-4" d="m291.88,127.57h0s0,0,0,0Z"/>
  </g>
</svg>