<?xml version="1.0" encoding="UTF-8"?>
<svg id="Layer_1" data-name="Layer 1" xmlns="http://www.w3.org/2000/svg" width="300" height="225" viewBox="0 0 300 225">
  <defs>
    <style>
      .cls-1 {
        fill: #fff;
      }

      .cls-2 {
        isolation: isolate;
        opacity: .35;
      }

      .cls-3 {
        fill: #232323;
      }

      .cls-4 {
        fill: #ff7e1c;
      }

      .cls-5 {
        fill: #444;
      }

      .cls-6 {
        fill: #ea651b;
      }

      .cls-7 {
        fill: #7f7f7f;
      }

      .cls-8 {
        fill: #231f20;
      }
    </style>
  </defs>
  <g>
    <path class="cls-4" d="m171.12,113.19c.09-.78-1.62-2.75-3.94-3.03s-4.37,1.24-4.46,2.01,1.71,1.63,4.03,1.92c2.32.28,4.28-.12,4.37-.9Z"/>
    <polygon class="cls-4" points="162.72 112.17 171.12 113.19 171.45 110.11 163.05 109.1 162.72 112.17"/>
    <ellipse class="cls-4" cx="167.25" cy="109.61" rx="1.42" ry="4.23" transform="translate(38.32 262.45) rotate(-83.09)"/>
    <ellipse class="cls-6" cx="167.25" cy="109.61" rx=".94" ry="3.38" transform="translate(38.32 262.45) rotate(-83.09)"/>
  </g>
  <g>
    <g>
      <path class="cls-6" d="m192.72,65.35c1,1.23-16.47,22.6-23.65,19.29.45.16.2-.98-1.03-.11-3.38,2.4-3.67,6.58,1.41,6.23,6.5-.45,11.56-9.58,16.65-12.88,7.33-4.75,14.55-5.29,15.12-4.93,16.76,10.82,39.13,6.01,49.97-10.76,5.77-8.94,7.09-19.49,4.52-29.01-.88,5.96-3,11.85-6.48,17.24-12.27,18.99-36.86,25.21-56.51,14.93Z"/>
      <path class="cls-4" d="m190.45,22.99c-8.69,13.47-7.32,30.54,2.28,42.35,19.64,10.27,44.22,4.06,56.48-14.93,3.5-5.39,5.62-11.27,6.48-17.24-2.23-8.33-7.46-15.9-15.3-20.95-16.75-10.83-39.15-6.01-49.95,10.76Z"/>
    </g>
    <path class="cls-1" d="m231.78,42.98c.82,1.01,1.12,2.41.98,4.18-.24,2.14-1.13,3.7-2.67,4.67-1.34.81-3.34,1.29-5.99,1.45v4.12h-3v-4.07h-2.29v4.07h-2.99v-4.12h-5.87l.6-3.52h.6c.96.04,1.59.02,1.88-.07.4-.12.65-.42.72-.91v-13.16c-.11-.64-.46-1.05-1.03-1.21-.35-.12-1.13-.16-2.31-.12h-.46v-3.15l1.8.07c2.16,0,3.5-.02,4.06-.07v-4.78h2.99v4.72l2.29-.07v-4.66h2.99v4.79c2.06.2,3.63.64,4.72,1.33,1.32.81,2.06,2.03,2.17,3.64.25,2.34-.57,3.99-2.48,4.97h0c1.48.34,2.58.96,3.26,1.89h0Zm-12.9-2.61h.48c1.7.04,3.02-.06,3.95-.29,1.61-.4,2.44-1.28,2.44-2.61s-.8-2.22-2.39-2.67c-.88-.25-2.18-.34-3.94-.29-.28.03-.46.06-.54.06v5.81h0Zm.54,9.4c2.08.04,3.63-.07,4.69-.31,1.88-.48,2.83-1.45,2.83-2.91s-.92-2.42-2.78-2.9c-1-.28-2.55-.38-4.61-.3h-.65v6.43h.53Z"/>
  </g>
  <g>
    <g>
      <g class="cls-2">
        <ellipse class="cls-3" cx="117.28" cy="213.09" rx="44.98" ry="7.26"/>
      </g>
      <path class="cls-3" d="m84.7,161.63c.18,1.47,5.05,43,12.12,48.82,7.07,5.82,10.79,3.86,12.22,2.32,1.51-1.62,3.41-4.53-.12-7.82-2.83-2.64-4.82-14.34-2-32.6l-22.23-10.71Z"/>
      <path class="cls-3" d="m111.71,159.04c.19,1.47,5.05,43,12.12,48.82,7.08,5.82,10.79,3.86,12.23,2.31,1.51-1.62,3.41-4.53-.12-7.81-2.83-2.65-4.82-14.34-2-32.6l-22.24-10.71Z"/>
      <path class="cls-3" d="m130.22,96.59c-2.87-1.54-6.42-.89-8.16,2.22-1.74,3.09-.18,8.22,3.81,10.39,11.34,6.2,24.24,6.22,35.6.05,3.99-2.16,5.58-7.29,3.85-10.38-1.74-3.12-5.29-3.78-8.16-2.25-8.59,4.66-18.35,4.65-26.93-.04Z"/>
      <path class="cls-1" d="m90.36,98.91c8.18-4.53,18.54-6.97,37.66-7.72-4.56-1.93-10.59-2.83-19.43-2.83h-.01c-15.12,0-22.11,2.58-27.37,8.57-6.21,7.07-9.35,27.3-9.98,43.04,1.01-14.78,7.01-34.33,19.13-41.07Z"/>
      <path class="cls-5" d="m71.23,139.97c-.15,2.17-.18,4.24-.12,6.15,0-1.94.04-4,.12-6.15Z"/>
      <path class="cls-5" d="m58.01,165.34c-2.16,1.53-4.95,2.06-6.42.75-1.46-1.3-1.02-4.61,1.38-6.99,6.5-6.47,15.02-10.83,24.42-12.23,3.5-.51,6.04,2.44,5.61,6.01-.42,3.59-2.61,6.16-5.01,6.13-6.87-.11-13.92,1.99-19.97,6.33Z"/>
      <path class="cls-5" d="m135.97,96.93c-1.92-2.19-4.08-3.92-6.77-5.23-.37-.18-.77-.34-1.17-.51-3.08.12-5.91.29-8.57.5-6.51.23-11.61.96-15.75,2.26-5.34,1.24-9.58,2.87-13.34,4.97-12.12,6.73-18.12,26.28-19.13,41.07-.08,2.15-.12,4.21-.12,6.15.02,5,.33,9.15.93,11.66.03.12.08.23.11.34,3.04,13.74,18.25,24.2,36.56,24.2,20.51,0,37.13-13.1,37.13-29.26,0-.15-.01-.29-.01-.44,1.12-14.82-1.76-46.47-9.87-55.7Z"/>
      <g>
        <path class="cls-1" d="m83.45,65.58c-.29-13.66,10.27-19.94,33.61-17.65,7.41.72,15.55-6.81,21.11-7.55,15.97-2.11,18.01,8.39,18.01,8.39h.03c-4.78-18.36-24.61-31.81-48-31.22-26.54.68-47.61,19.2-47.04,41.36.56,22.17,22.54,39.59,49.08,38.91,2.31-.06,4.58-.26,6.8-.58v-.02c-23.34,2.22-33.22-13.51-33.61-31.63Z"/>
        <path class="cls-5" d="m156.2,48.78h-.03s-2.04-10.51-18.01-8.4c-5.55.74-13.7,8.28-21.11,7.55-16.75-1.64-26.91,1.13-31.21,7.87-.55-.42-1.12-.64-1.71-.61-3.03.11-5.25,6.48-4.95,14.23.3,7.74,3,13.92,6.03,13.8.68-.03,1.32-.38,1.9-.99,4.76,9.92,14.34,16.46,29.94,14.98v.03c23.25-3.36,40.76-20.54,40.24-40.77-.07-2.64-.45-5.21-1.09-7.69Z"/>
        <path class="cls-7" d="m127.37,89.91c-5.09.33-15.14-3.81-13.5-14.42,1.64-10.61,13.69-12.22,17.7-12.48,4.01-.26,15.81-.18,14.17,10.42-1.64,10.61-13.28,16.15-18.37,16.47Z"/>
        <path class="cls-3" d="m131.38,65.78c2.21-.14,5.12,2.01,5.07,4.75-.05,2.74-6.42,3.05-6.42,3.05h-.18s-6.41.52-5.6-2.26c.81-2.79,4.45-5.36,6.66-5.5l.48-.03Z"/>
        <circle class="cls-3" cx="110.77" cy="60.67" r="1.97"/>
        <circle class="cls-3" cx="142.51" cy="54.81" r="1.97"/>
        <path class="cls-3" d="m86.55,60.46c-2.5.11-4.49,4.84-5.21,11.51-.09-.84-.16-1.71-.19-2.61-.2-6.08,1.24-11.08,3.22-11.17.84-.04,1.64.82,2.3,2.29-.04,0-.08-.01-.12-.01Z"/>
        <path class="cls-7" d="m104.6,61.62s-.03,0-.05,0c-.38-.03-.67-.36-.64-.73.05-.78.26-1.53.6-2.23.34-.7.81-1.32,1.4-1.84.59-.54,1.29-.94,2.06-1.21.77-.26,1.57-.37,2.37-.31.38.03.67.36.64.74s-.36.66-.73.64c-.62-.04-1.23.04-1.83.24-.6.2-1.13.52-1.59.93-.45.4-.82.88-1.08,1.42-.27.54-.42,1.12-.46,1.72-.03.36-.33.64-.69.64Z"/>
        <path class="cls-7" d="m147.91,53.64c-.28,0-.54-.17-.65-.45-.22-.59-.54-1.12-.97-1.57-.44-.47-.94-.83-1.5-1.07-.55-.25-1.14-.38-1.74-.4-.59-.02-1.2.08-1.76.28-.36.13-.75-.05-.88-.41-.13-.36.05-.75.41-.88.72-.26,1.51-.39,2.28-.37.79.03,1.55.2,2.25.52.73.32,1.38.78,1.95,1.39.55.59.98,1.28,1.26,2.04.13.36-.05.75-.41.88-.08.03-.16.04-.24.04Z"/>
        <circle class="cls-3" cx="132.59" cy="81.9" r="2.63"/>
      </g>
      <path class="cls-3" d="m112.82,208.72c.89.25,1.86.1,2.2-.5.33-.6-.2-1.63-1.26-2.14-2.89-1.38-6.19-1.82-9.44-1.19-1.21.24-1.7,1.51-1.15,2.63.56,1.13,1.57,1.72,2.36,1.44,2.25-.83,4.81-.97,7.3-.24Z"/>
      <path class="cls-3" d="m111.43,213.89c.78.49,1.76.62,2.25.13.49-.48.26-1.62-.62-2.41-2.39-2.12-5.44-3.46-8.74-3.76-1.23-.1-2.05.97-1.83,2.21.22,1.24,1.03,2.09,1.87,2.03,2.39-.18,4.88.41,7.08,1.8Z"/>
      <path class="cls-3" d="m107.62,217.79c.47.79,1.29,1.35,1.94,1.14.65-.21.97-1.33.54-2.43-1.16-2.97-3.27-5.56-6.07-7.32-1.04-.66-2.27-.07-2.63,1.13-.37,1.21-.03,2.33.74,2.66,2.21.93,4.16,2.59,5.48,4.82Z"/>
      <path class="cls-3" d="m141.05,205.65c.88.25,1.87.1,2.2-.5.33-.6-.2-1.63-1.26-2.14-2.89-1.37-6.19-1.82-9.44-1.19-1.21.24-1.7,1.5-1.15,2.63.56,1.13,1.57,1.72,2.36,1.43,2.25-.84,4.81-.97,7.3-.24Z"/>
      <path class="cls-3" d="m139.67,210.82c.78.49,1.76.62,2.24.13.49-.48.27-1.62-.62-2.4-2.39-2.12-5.45-3.46-8.74-3.76-1.23-.11-2.05.97-1.83,2.2.22,1.24,1.03,2.09,1.87,2.03,2.39-.18,4.88.41,7.08,1.8Z"/>
      <path class="cls-3" d="m135.85,214.72c.47.79,1.29,1.35,1.94,1.14.65-.21.97-1.33.54-2.42-1.16-2.98-3.27-5.56-6.07-7.32-1.04-.66-2.27-.07-2.63,1.13-.37,1.2-.03,2.33.74,2.65,2.21.93,4.16,2.59,5.49,4.82Z"/>
      <path class="cls-3" d="m170.26,100.05c.91-.24,1.68-.89,1.65-1.59-.02-.7-1.03-1.31-2.22-1.2-3.23.32-6.34,1.67-8.84,3.92-.92.84-.69,2.2.38,2.89,1.08.69,2.27.67,2.8,0,1.51-1.9,3.67-3.35,6.22-4.03Z"/>
      <path class="cls-3" d="m170.54,105.59c.91.2,1.89-.02,2.19-.66.29-.63-.32-1.64-1.43-2.08-3.02-1.19-6.4-1.4-9.65-.53-1.21.32-1.61,1.64-.97,2.74.64,1.11,1.72,1.63,2.49,1.28,2.21-1,4.8-1.32,7.38-.76Z"/>
    </g>
    <path class="cls-3" d="m169,96.31c.94-.06,1.82-.54,1.93-1.23.11-.68-.75-1.49-1.94-1.61-3.23-.33-6.55.38-9.44,2.1-1.08.64-1.11,2.02-.19,2.91.92.89,2.09,1.11,2.74.56,1.86-1.56,4.26-2.56,6.9-2.73Z"/>
  </g>
  <g>
    <path class="cls-8" d="m167.01,110.53c-.6-.08-.98-.17-.98-.17l1.45-19.43c-.01-.63.49-1.15,1.12-1.16.63-.01,1.15.49,1.16,1.12l-1.47,19.74s-.67-.02-1.27-.1Z"/>
    <path class="cls-8" d="m169.61,91.1c-2.12.45-4.2-.91-4.65-3.02s.91-4.2,3.02-4.65c2.12-.45,4.2.91,4.65,3.02s-.91,4.2-3.02,4.65Zm-1.28-6.04c-1.22.26-2,1.46-1.74,2.68s1.46,2,2.68,1.74,2-1.46,1.74-2.68-1.46-2-2.68-1.74Z"/>
  </g>
  <g>
    <ellipse class="cls-4" cx="130.69" cy="134.12" rx="4.23" ry="1.42"/>
    <rect class="cls-4" x="126.45" y="113.06" width="8.47" height="21.06"/>
    <ellipse class="cls-4" cx="130.69" cy="113.06" rx="4.23" ry="1.42"/>
    <ellipse class="cls-6" cx="130.69" cy="113.06" rx="3.38" ry=".94"/>
  </g>
  <g>
    <path class="cls-3" d="m94.69,107.11c-2.08-2.5-5.62-3.22-8.4-.99-2.77,2.21-3.24,7.55-.35,11.06,8.2,9.98,20.15,14.84,32.99,13.37,4.51-.52,7.9-4.67,7.45-8.18-.44-3.54-3.49-5.49-6.73-5.14-9.71,1.11-18.76-2.56-24.96-10.11Z"/>
    <path class="cls-3" d="m129.62,119.9c.87-.16,1.63-.71,1.66-1.36.03-.65-.86-1.31-1.99-1.28-3.04.06-6.05,1.09-8.55,3.01-.92.72-.81,2,.15,2.73.95.73,2.07.79,2.62.21,1.56-1.66,3.68-2.87,6.11-3.31Z"/>
    <path class="cls-3" d="m130.64,124.88c.88.08,1.76-.23,1.97-.84.21-.62-.47-1.5-1.55-1.78-2.94-.79-6.11-.63-9.04.52-1.09.43-1.33,1.7-.62,2.66.71.96,1.77,1.34,2.46.93,1.95-1.16,4.33-1.72,6.79-1.48Z"/>
    <path class="cls-3" d="m129.06,129.84c.74.48,1.67.61,2.14.14.46-.45.26-1.54-.57-2.3-2.25-2.04-5.15-3.34-8.29-3.65-1.17-.11-1.96.9-1.76,2.08.2,1.18.97,2,1.76,1.95,2.27-.15,4.64.43,6.72,1.78Z"/>
  </g>
</svg>