<?xml version="1.0" encoding="UTF-8"?>
<svg id="Layer_1" data-name="Layer 1" xmlns="http://www.w3.org/2000/svg" width="300" height="225" viewBox="0 0 300 225">
  <defs>
    <style>
      .cls-1 {
        fill: #040614;
      }

      .cls-2 {
        fill: #84cd29;
      }

      .cls-3 {
        fill: #fff;
      }

      .cls-4 {
        fill: #23140a;
      }

      .cls-5 {
        clip-path: url(#clippath-2);
      }

      .cls-6, .cls-7 {
        isolation: isolate;
      }

      .cls-7 {
        opacity: .35;
      }

      .cls-8 {
        clip-path: url(#clippath-6);
      }

      .cls-9 {
        fill: #232323;
      }

      .cls-10 {
        clip-path: url(#clippath-7);
      }

      .cls-11 {
        clip-path: url(#clippath-1);
      }

      .cls-12 {
        clip-path: url(#clippath-4);
      }

      .cls-13 {
        opacity: .54;
      }

      .cls-14 {
        fill: #ff7e1c;
      }

      .cls-15 {
        fill: #444;
      }

      .cls-16 {
        fill: #dda905;
      }

      .cls-17 {
        fill: #725d3f;
      }

      .cls-18 {
        clip-path: url(#clippath);
      }

      .cls-19 {
        fill: none;
      }

      .cls-20 {
        clip-path: url(#clippath-3);
      }

      .cls-21 {
        fill: #ea651b;
      }

      .cls-22 {
        clip-path: url(#clippath-8);
      }

      .cls-23 {
        clip-path: url(#clippath-5);
      }

      .cls-24 {
        fill: #7f7f7f;
      }

      .cls-25 {
        fill: #ffcf15;
      }
    </style>
    <clipPath id="clippath">
      <path class="cls-19" d="m151.55,160.56c-.23,1.51-5.23,43.54-12.31,49.35-7.2,5.92-10.91,3.83-12.42,2.32-1.51-1.63-3.48-4.64.12-7.9,2.9-2.67,4.88-14.51,2.09-32.98l22.53-10.8Z"/>
    </clipPath>
    <clipPath id="clippath-1">
      <path class="cls-19" d="m114.87,178.24c.1,8.83,2.75,19.8,9.32,24.29,2.78,1.95,6.1,3.46,10.79,4.67,1.14-.11,2.21-.22,3.21-.34.15-.06.36-.04.5-.09.29-.04.57-.09.86-.13.22-.05.36-.04.57-.09.29-.04.57-.09.87-.2.15-.06.29-.04.43-.1.43-.1.8-.21,1.23-.31.15-.06.22-.05.36-.11.29-.11.58-.16.87-.27.15-.06.29-.11.36-.11.29-.11.51-.16.8-.28.15-.06.22-.05.36-.11.36-.11.73-.28,1.1-.46,7.8-3.44,12.54-15,14.01-23.96.19-1.32.31-2.58.42-3.77.29-3.08.31-5.62.1-7.19,0-.07-.06-.15-.05-.22-1.04-8.56-9.75-15.79-20.88-16.83-12.52-1.16-23.41,5.87-24.32,15.67l-.03.28c-.46,2.64-.77,6-.9,9.65Z"/>
    </clipPath>
    <clipPath id="clippath-2">
      <path class="cls-19" d="m155.96,160.91c.23,1.51,4.99,43.54,12.19,49.46,7.2,5.92,10.91,3.95,12.42,2.32,1.51-1.63,3.48-4.53-.12-7.9-2.9-2.67-4.88-14.51-1.97-32.98l-22.53-10.91Z"/>
    </clipPath>
    <clipPath id="clippath-3">
      <path class="cls-19" d="m148.43,183.41c1.67,8.67,6.23,19,13.5,22.24,3.09,1.43,6.62,2.32,11.45,2.67,1.1-.31,2.13-.61,3.1-.9.13-.08.34-.1.48-.18.27-.09.55-.19.82-.28.2-.09.34-.1.55-.19.27-.09.55-.19.82-.35.13-.08.27-.09.41-.18.41-.18.75-.35,1.15-.52.13-.08.2-.09.34-.17.27-.16.54-.26.81-.42.13-.08.27-.16.34-.17.27-.16.47-.25.74-.42.13-.08.2-.09.34-.17.34-.17.67-.41,1-.65,7.06-4.77,9.67-16.99,9.52-26.07-.05-1.34-.15-2.6-.26-3.79-.27-3.08-.7-5.58-1.18-7.09,0-.07-.08-.13-.09-.2-2.55-8.24-12.41-13.8-23.54-12.84-12.53,1.09-21.99,9.95-21.14,19.75l.02.28c.02,2.68.31,6.04.84,9.66Z"/>
    </clipPath>
    <clipPath id="clippath-4">
      <path class="cls-19" d="m195.04,142.37c-1.63-15.7-8.16-34.79-20.6-41.7-5.28-3.01-11.43-5.15-19.97-6.53-2.01.38-3.89.75-5.65,1.13-.25.13-.63.13-.88.25-.5.13-1,.25-1.51.38-.38.13-.63.13-1,.25-.5.13-1,.25-1.51.5-.25.13-.5.13-.75.25-.75.25-1.38.5-2.14.75-.25.13-.38.13-.63.25-.5.25-1,.38-1.51.63-.25.13-.5.25-.63.25-.5.25-.88.38-1.38.63-.25.13-.38.13-.63.25-.63.25-1.26.63-1.88,1-13.31,7.41-19.85,28.76-20.98,44.97-.13,2.39-.13,4.65-.13,6.78,0,5.53.38,10.05,1,12.81,0,.13.13.25.13.38,3.27,15.07,19.97,26.5,39.94,26.5,22.48,0,40.7-14.32,40.7-31.9v-.5c.38-4.77.38-10.8,0-17.33Z"/>
    </clipPath>
    <clipPath id="clippath-5">
      <path class="cls-19" d="m129.17,103.33c1.75-2.8,5.23-3.94,8.28-2.11,3.04,1.84,4.31,7.18,1.87,11-6.89,11.18-18.23,17.66-31.31,17.92-4.55.11-8.53-3.59-8.53-7.22,0-3.63,2.75-5.97,6.02-6.03,9.79-.31,18.42-5.16,23.67-13.55Z"/>
    </clipPath>
    <clipPath id="clippath-6">
      <path class="cls-19" d="m137.98,128.5c-10.92,3.02-24.76,5.02-31.02,2.04-2.71-1.24-4.93-3.01-6.94-5.83,0-.83.03-1.6.07-2.34.05-.12,0-.26.06-.38.02-.21.05-.43.07-.64.04-.17,0-.26.05-.43.02-.21.05-.43.16-.67.05-.12.02-.21.08-.33.08-.33.17-.62.25-.96.05-.12.04-.17.09-.29.11-.24.13-.46.24-.7.05-.12.11-.24.09-.29.11-.24.15-.41.26-.65.05-.12.04-.17.09-.29.09-.29.27-.61.45-.92,3.4-6.6,17.17-13.93,28.08-18.08,1.61-.6,3.16-1.12,4.61-1.61,3.77-1.27,6.9-2.18,8.87-2.58.09-.03.19-.01.27-.04,10.69-2.27,20.57,1.23,23.05,8.57,2.79,8.26-4.72,18.26-16.72,22.31l-.34.12c-3.21,1.24-7.32,2.63-11.83,4Z"/>
    </clipPath>
    <clipPath id="clippath-7">
      <path class="cls-19" d="m181.88,104.84c-1.64-2.86-5.08-4.14-8.19-2.42-3.11,1.72-4.57,7.01-2.28,10.92,6.46,11.43,17.56,18.33,30.62,19.08,4.54.28,8.66-3.27,8.79-6.9.13-3.63-2.53-6.07-5.79-6.26-9.77-.68-18.22-5.84-23.15-14.43Z"/>
    </clipPath>
    <clipPath id="clippath-8">
      <path class="cls-19" d="m172.14,129.66c10.8,3.43,24.55,5.94,30.92,3.2,2.76-1.14,5.04-2.83,7.15-5.57.02-.83.03-1.6.02-2.34-.05-.12,0-.26-.05-.38-.02-.21-.03-.43-.05-.64-.03-.17,0-.26-.03-.43-.02-.21-.03-.43-.13-.68-.05-.12-.02-.21-.07-.34-.07-.34-.15-.63-.21-.97-.05-.12-.03-.17-.08-.29-.1-.25-.12-.46-.22-.71-.05-.12-.1-.25-.08-.29-.1-.25-.13-.42-.23-.66-.05-.12-.03-.17-.08-.29-.08-.29-.25-.62-.42-.94-3.15-6.72-16.63-14.56-27.39-19.11-1.59-.66-3.11-1.23-4.55-1.78-3.72-1.41-6.82-2.43-8.77-2.91-.08-.03-.19-.02-.27-.05-10.6-2.67-20.6.46-23.35,7.7-3.1,8.15,4.03,18.42,15.87,22.92l.34.13c3.16,1.36,7.22,2.9,11.67,4.44Z"/>
    </clipPath>
  </defs>
  <path class="cls-9" d="m94.3,130.52c-.81.57-1.71.81-2.31.36s-.44-1.69.43-2.51c2.26-2.39,5.28-4.14,8.63-4.65,1.27-.21,2.23.74,2.11,2.09-.13,1.35-.85,2.26-1.7,2.24"/>
  <path class="cls-9" d="m92.6,127.48c-.88.32-1.92.32-2.34-.25s.04-1.72,1.03-2.35c2.75-1.79,6.13-2.59,9.51-2.35,1.25.15,1.99,1.34,1.42,2.54-.41,1.25-1.39,1.88-2.23,1.78-2.29-.66-4.95-.49-7.39.62Z"/>
  <path class="cls-9" d="m101.46,128.05c-2.54-.06-5.06.84-7.16,2.47"/>
  <g class="cls-7">
    <path class="cls-9" d="m76.52,205.43c0,1.14-4.29,2.07-9.59,2.07s-9.59-.93-9.59-2.07,4.29-2.07,9.59-2.07c5.29,0,9.59.93,9.59,2.07Z"/>
  </g>
  <g>
    <g class="cls-7">
      <path class="cls-9" d="m101.86,208.86c0,1.12-4.21,2.03-9.41,2.03s-9.4-.91-9.4-2.03,4.21-2.03,9.4-2.03c5.19,0,9.41.91,9.41,2.03Z"/>
    </g>
    <g>
      <path class="cls-16" d="m102.57,207.9c0,1.05-4.1,1.91-9.17,1.91s-9.17-.85-9.17-1.91v-1.91h18.33v1.91Z"/>
      <ellipse class="cls-25" cx="93.4" cy="205.99" rx="9.17" ry="1.91"/>
    </g>
    <g>
      <path class="cls-16" d="m105.22,204.83c0,1.05-4.1,1.91-9.17,1.91s-9.17-.85-9.17-1.91v-1.91h18.33v1.91Z"/>
      <ellipse class="cls-25" cx="96.05" cy="202.92" rx="9.17" ry="1.91"/>
    </g>
    <g>
      <path class="cls-16" d="m102.77,201.56c0,1.05-4.1,1.91-9.17,1.91s-9.17-.85-9.17-1.91v-1.91h18.33v1.91Z"/>
      <ellipse class="cls-25" cx="93.61" cy="199.65" rx="9.17" ry="1.91"/>
    </g>
  </g>
  <g>
    <path class="cls-16" d="m76.88,204.34c0,1.07-4.18,1.95-9.34,1.95s-9.34-.87-9.34-1.95v-1.95h18.69v1.95Z"/>
    <ellipse class="cls-25" cx="67.53" cy="202.39" rx="9.34" ry="1.95"/>
  </g>
  <g>
    <g class="cls-7">
      <path class="cls-9" d="m31.86,206.66c0,1.27-4.78,2.31-10.68,2.31s-10.68-1.03-10.68-2.31,4.78-2.31,10.68-2.31c5.9,0,10.68,1.03,10.68,2.31Z"/>
    </g>
    <g>
      <path class="cls-16" d="m33.12,205.58c0,1.2-4.66,2.17-10.41,2.17s-10.41-.97-10.41-2.17v-2.17h20.81v2.17Z"/>
      <ellipse class="cls-25" cx="22.72" cy="203.41" rx="10.41" ry="2.17"/>
    </g>
  </g>
  <g>
    <g class="cls-7">
      <path class="cls-9" d="m69.45,216.42c0,1.27-4.78,2.31-10.68,2.31s-10.68-1.03-10.68-2.31,4.78-2.31,10.68-2.31c5.9,0,10.68,1.03,10.68,2.31Z"/>
    </g>
    <g>
      <path class="cls-16" d="m69.84,215.2c0,1.2-4.66,2.17-10.41,2.17s-10.41-.97-10.41-2.17v-2.17s6.08,0,10.41,0c5.02,0,10.41,0,10.41,0v2.17Z"/>
      <ellipse class="cls-25" cx="59.44" cy="213.03" rx="10.41" ry="2.17"/>
    </g>
  </g>
  <path class="cls-3" d="m182.2,98.09c-4.76-5.46-10.91-8.13-23.11-8.59h-6.97c-.81,0-1.51,0-2.21.12h-.23c-12.19.46-18.35,3.14-23.11,8.48-6.27,7.2-9.52,27.64-10.22,43.54,1.05-14.98,7.2-34.72,19.39-41.57,4.88-2.67,10.68-4.64,18.46-5.92,7.9,1.28,13.59,3.37,18.46,6.04,12.31,6.85,18.35,26.59,19.28,41.57-.35-16.02-3.48-36.46-9.75-43.66Z"/>
  <path class="cls-9" d="m151.55,160.56c-.23,1.51-5.23,43.54-12.31,49.35-7.2,5.92-10.91,3.83-12.42,2.32-1.51-1.63-3.48-4.64.12-7.9,2.9-2.67,4.88-14.51,2.09-32.98l22.53-10.8Z"/>
  <g class="cls-18">
    <g class="cls-11">
      <g>
        <path class="cls-1" d="m119.18,195.95c10.75-3.17,22.03-1.85,33.73,3.13l-.53,5.66c-11.31-6-22.56-7.39-33.73-3.13l.53-5.66Z"/>
        <path class="cls-1" d="m111.17,186.47c16.65-2.63,34.35-.71,52.91,4.91l-.53,5.66c-18-6.62-35.66-8.61-52.91-4.91l.53-5.66Z"/>
        <path class="cls-3" d="m115.6,191.25c13.68-2.9,28.14-1.28,43.24,4.01l-.53,5.66c-14.62-6.31-29.05-8-43.24-4.01l.53-5.66Z"/>
        <path class="cls-3" d="m109.58,181.95c17.4-2.56,35.92-.56,55.35,5.14l-.53,5.66c-18.85-6.7-37.33-8.76-55.35-5.14l.53-5.66Z"/>
        <path class="cls-1" d="m106.71,177.35c19.33-2.38,39.95-.19,61.63,5.72l-.53,5.66c-21.04-6.9-41.61-9.16-61.63-5.72l.53-5.66Z"/>
        <path class="cls-3" d="m104.11,172.2c20.76-2.24,42.95.09,66.3,6.15l-.53,5.66c-22.66-7.05-44.8-9.46-66.3-6.15l.53-5.66Z"/>
        <path class="cls-1" d="m100.59,167.54c23.07-2.03,47.78.54,73.82,6.85l-.53,5.66c-25.28-7.3-49.94-9.93-73.82-6.85l.53-5.66Z"/>
        <path class="cls-3" d="m94.34,162.59c27.29-1.64,56.59,1.36,87.53,8.12l-.53,5.66c-30.07-7.74-59.3-10.8-87.53-8.12l.53-5.66Z"/>
        <path class="cls-1" d="m89.57,157.81c30.34-1.36,62.97,1.95,97.45,9.04l-.53,5.66c-33.53-8.06-66.09-11.43-97.45-9.04l.53-5.66Z"/>
        <path class="cls-3" d="m85.61,153.07c32.46-1.16,67.39,2.36,104.33,9.68l-.53,5.66c-35.93-8.28-70.78-11.87-104.33-9.68l.53-5.66Z"/>
        <path class="cls-1" d="m79.85,148.2c36.09-.82,74.99,3.06,116.16,10.78l-.53,5.66c-40.05-8.67-78.87-12.62-116.16-10.78l.53-5.66Z"/>
      </g>
    </g>
  </g>
  <path class="cls-9" d="m155.96,160.91c.23,1.51,4.99,43.54,12.19,49.46,7.2,5.92,10.91,3.95,12.42,2.32,1.51-1.63,3.48-4.53-.12-7.9-2.9-2.67-4.88-14.51-1.97-32.98l-22.53-10.91Z"/>
  <g class="cls-5">
    <g class="cls-20">
      <g>
        <path class="cls-1" d="m155.82,200.07c10.02-5.04,21.35-5.74,33.75-2.93l.49,5.67c-12.2-3.89-23.51-3.26-33.75,2.93l-.49-5.67Z"/>
        <path class="cls-1" d="m146.25,192.17c15.92-5.55,33.68-6.81,52.94-4.59l.49,5.67c-18.89-3.31-36.62-2.12-52.94,4.59l-.49-5.67Z"/>
        <path class="cls-3" d="m151.46,196.09c12.94-5.29,27.46-6.27,43.26-3.75l.49,5.67c-15.51-3.6-30.01-2.7-43.26,3.75l-.49-5.67Z"/>
        <path class="cls-3" d="m143.87,188.01c16.67-5.61,35.25-6.95,55.38-4.8l.49,5.67c-19.74-3.24-38.29-1.98-55.38,4.8l-.49-5.67Z"/>
        <path class="cls-1" d="m140.23,183.99c18.6-5.78,39.28-7.3,61.66-5.35l.49,5.67c-21.93-3.05-42.58-1.61-61.66,5.35l-.49-5.67Z"/>
        <path class="cls-3" d="m136.76,179.39c20.03-5.91,42.28-7.56,66.33-5.75l.49,5.67c-23.56-2.9-45.77-1.33-66.33,5.75l-.49-5.67Z"/>
        <path class="cls-1" d="m132.47,175.43c22.34-6.11,47.11-7.98,73.86-6.4l.49,5.67c-26.18-2.68-50.91-.88-73.86,6.4l-.49-5.67Z"/>
        <path class="cls-3" d="m125.44,171.67c26.56-6.47,55.93-8.74,87.57-7.59l.49,5.67c-30.96-2.26-60.28-.07-87.57,7.59l-.49-5.67Z"/>
        <path class="cls-1" d="m119.89,167.82c29.61-6.74,62.31-9.3,97.51-8.46l.49,5.67c-34.43-1.96-67.07.52-97.51,8.46l-.49-5.67Z"/>
        <path class="cls-3" d="m115.15,163.86c31.73-6.92,66.73-9.68,104.39-9.05l.49,5.67c-36.83-1.75-71.77.93-104.39,9.05l-.49-5.67Z"/>
        <path class="cls-1" d="m108.61,160.1c35.37-7.24,74.34-10.34,116.23-10.08l.49,5.67c-40.95-1.4-79.85,1.63-116.23,10.08l-.49-5.67Z"/>
      </g>
    </g>
  </g>
  <g>
    <g class="cls-7">
      <ellipse class="cls-9" cx="152.77" cy="211.12" rx="51.67" ry="8.36"/>
    </g>
    <g>
      <g>
        <g>
          <path class="cls-9" d="m185.57,208.17c.93.23,1.86.12,2.21-.46.35-.58-.23-1.63-1.28-2.21-2.9-1.39-6.27-1.86-9.52-1.28-1.28.23-1.74,1.51-1.16,2.67s1.63,1.74,2.44,1.51c2.21-.81,4.76-.93,7.32-.23Z"/>
          <path class="cls-9" d="m184.18,213.39c.81.46,1.74.58,2.32.12.46-.46.23-1.63-.58-2.44-2.44-2.21-5.46-3.48-8.82-3.83-1.28-.12-2.09.93-1.86,2.21.23,1.28,1.05,2.09,1.86,2.09,2.32-.12,4.88.46,7.08,1.86Z"/>
          <path class="cls-9" d="m180.23,217.34c.46.81,1.28,1.39,1.97,1.16.7-.23,1.05-1.39.58-2.44-1.16-3.02-3.25-5.69-6.15-7.43-1.05-.7-2.32-.12-2.67,1.16-.35,1.16,0,2.32.7,2.67,2.32.93,4.3,2.67,5.57,4.88Z"/>
        </g>
        <g>
          <path class="cls-9" d="m122.99,208.17c-.93.23-1.86.12-2.21-.46s.23-1.63,1.28-2.21c2.9-1.39,6.27-1.86,9.52-1.16,1.28.23,1.74,1.51,1.16,2.67s-1.63,1.74-2.44,1.39c-2.21-.81-4.76-.93-7.32-.23Z"/>
          <path class="cls-9" d="m124.38,213.39c-.81.46-1.74.58-2.32.12-.46-.46-.23-1.63.58-2.44,2.44-2.09,5.57-3.48,8.82-3.83,1.28-.12,2.09,1.05,1.86,2.21-.23,1.28-1.05,2.09-1.86,2.09-2.32-.12-4.88.46-7.08,1.86Z"/>
          <path class="cls-9" d="m128.33,217.34c-.46.81-1.28,1.39-1.97,1.16s-.93-1.39-.58-2.44c1.16-3.02,3.37-5.57,6.15-7.43,1.05-.7,2.32-.12,2.67,1.16.35,1.16,0,2.32-.7,2.67-2.32.93-4.3,2.67-5.57,4.88Z"/>
        </g>
      </g>
      <path class="cls-15" d="m191.96,138.73c-1.51-14.51-7.55-32.16-19.04-38.55-4.88-2.79-10.57-4.76-18.46-6.04-1.86.35-3.6.7-5.23,1.05-.23.12-.58.12-.81.23-.46.12-.93.23-1.39.35-.35.12-.58.12-.93.23-.46.12-.93.23-1.39.46-.23.12-.46.12-.7.23-.7.23-1.28.46-1.97.7-.23.12-.35.12-.58.23-.46.23-.93.35-1.39.58-.23.12-.46.23-.58.23-.46.23-.81.35-1.28.58-.23.12-.35.12-.58.23-.58.23-1.16.58-1.74.93-12.31,6.85-18.35,26.59-19.39,41.57-.12,2.21-.12,4.3-.12,6.27,0,5.11.35,9.29.93,11.84,0,.12.12.23.12.35,3.02,13.93,18.46,24.5,36.92,24.5,20.78,0,37.62-13.24,37.62-29.49v-.46c.35-4.41.35-9.99,0-16.02Z"/>
    </g>
  </g>
  <g class="cls-12">
    <g>
      <path class="cls-1" d="m184.44,111.56c-18.62,7.42-38.91,6.93-60.56,0v-10.17c21.12,8.81,41.37,9.44,60.56,0v10.17Z"/>
      <path class="cls-1" d="m200.27,127.11c-29.2,7.42-61.03,6.93-94.99,0v-10.17c33.12,8.81,64.89,9.44,94.99,0v10.17Z"/>
      <path class="cls-3" d="m191.59,119.34c-23.86,7.42-49.87,6.93-77.63,0v-10.17c27.07,8.81,53.03,9.44,77.63,0v10.17Z"/>
      <path class="cls-3" d="m203.85,134.89c-30.55,7.42-63.84,6.93-99.38,0v-10.17c34.65,8.81,67.89,9.44,99.38,0v10.17Z"/>
      <path class="cls-1" d="m209.72,142.61c-34.01,7.42-71.09,6.93-110.65,0v-10.17c38.58,8.81,75.59,9.44,110.65,0v10.17Z"/>
      <path class="cls-3" d="m215.2,151.34c-36.59,7.42-76.47,6.93-119.02,0v-10.17c41.5,8.81,81.31,9.44,119.02,0v10.17Z"/>
      <path class="cls-1" d="m222.22,159.06c-40.74,7.42-85.14,6.93-132.52,0v-10.17c46.21,8.81,90.53,9.44,132.52,0v10.17Z"/>
      <path class="cls-3" d="m234.16,166.83c-48.3,7.42-100.95,6.93-157.14,0v-10.17c54.79,8.81,107.34,9.44,157.14,0v10.17Z"/>
      <path class="cls-1" d="m243.44,174.55c-53.78,7.42-112.4,6.93-174.96,0v-10.17c61.01,8.81,119.52,9.44,174.96,0v10.17Z"/>
      <path class="cls-3" d="m251.28,182.33c-57.58,7.42-120.34,6.93-187.31,0v-10.17c65.31,8.81,127.96,9.44,187.31,0v10.17Z"/>
      <path class="cls-1" d="m262.34,190.05c-64.11,7.42-133.98,6.93-208.55,0v-10.17c72.72,8.81,142.47,9.44,208.55,0v10.17Z"/>
    </g>
  </g>
  <path class="cls-3" d="m154.22,41.54c-6.73,0-14.51-2.67-18.93-3.83-5.23-1.28-7.66-1.39-11.5-1.39-11.61,0-15.21,6.04-16.14,8.59,7.66-23.46,31.82-26.82,46.21-26.71h1.16c14.28,0,38.55,3.37,46.1,26.94-.93-2.44-4.53-8.59-16.14-8.59-3.83,0-6.27,0-11.5,1.28-4.41,1.16-12.31,3.72-18.93,3.72h-.35Z"/>
  <path class="cls-15" d="m201.01,45.14h0c-.93-2.55-4.53-8.59-16.14-8.59-3.83,0-6.27,0-11.5,1.28-4.41,1.16-12.31,3.72-18.93,3.72h-.23c-6.73,0-14.51-2.67-18.93-3.83-5.23-1.28-7.66-1.39-11.5-1.39-11.61,0-15.21,6.04-16.14,8.59h0c-2.44,2.32-4.06,8.48-3.95,15.79.23,9.17,3.37,16.49,6.97,16.37h.23c8.36,16.84,31.23,24.62,43.19,24.62s35.07-7.66,43.54-24.5h.23c3.6.12,6.73-7.2,7.08-16.37.12-7.2-1.51-13.35-3.95-15.68Z"/>
  <path class="cls-24" d="m154.22,89.61c-6.04,0-18.93-5.69-18.93-18s14.28-13.24,19.04-13.24,19.04,1.05,18.93,13.35c0,12.31-13,17.88-19.04,17.88Z"/>
  <path class="cls-9" d="m154.57,61.51c2.67,0,6.5,2.79,6.97,5.92.46,3.25-7.2,3.14-7.2,3.14h-.23s-7.66.12-7.2-3.14c.46-3.25,4.41-5.92,6.97-5.92h.7Z"/>
  <g>
    <circle class="cls-9" cx="134.83" cy="52.11" r="2.32"/>
    <path class="cls-9" d="m176.05,52.22c0,1.28-1.05,2.32-2.32,2.32s-2.32-1.05-2.32-2.32,1.05-2.32,2.32-2.32,2.32,1.05,2.32,2.32Z"/>
  </g>
  <path class="cls-9" d="m196.02,50.37c2.9.12,5.34,5.69,6.27,13.59.12-1.05.23-1.97.23-3.14.23-7.2-1.51-13.12-3.95-13.24-1.05,0-1.97,1.05-2.67,2.67,0,.12.12.12.12.12Z"/>
  <path class="cls-9" d="m112.54,50.13c-2.9.12-5.34,5.69-6.27,13.59-.12-1.05-.12-1.97-.23-3.14-.12-7.2,1.63-13.12,3.95-13.24,1.05,0,1.97,1.05,2.67,2.79,0,.12,0,0-.12,0Z"/>
  <path class="cls-24" d="m139.47,46.51c-.23,0-.45-.1-.61-.28-.46-.55-1.03-.96-1.79-1.29-.81-.35-1.51-.52-2.13-.52-.8-.09-1.35.07-2.04.27l-.18.05c-.7.31-1.28.61-1.75,1.08-.31.31-.81.31-1.12,0-.31-.31-.31-.81,0-1.12.72-.72,1.58-1.12,2.34-1.44l.27-.08c.77-.22,1.56-.45,2.58-.32.74,0,1.64.21,2.65.64.99.42,1.77.99,2.39,1.73.28.33.23.83-.1,1.11-.15.12-.33.18-.51.18Z"/>
  <path class="cls-24" d="m178.49,46.51c-.23,0-.45-.1-.61-.28-.46-.55-1.03-.96-1.79-1.29-.81-.35-1.51-.52-2.13-.52h-.11c-.65-.1-1.36.1-2.11.32-.7.31-1.28.61-1.75,1.08-.31.31-.81.31-1.12,0-.31-.31-.31-.81,0-1.12.72-.72,1.58-1.12,2.34-1.44.95-.28,1.84-.53,2.8-.41.82,0,1.7.22,2.69.64.99.42,1.77.99,2.39,1.73.28.33.23.83-.1,1.11-.15.12-.33.18-.51.18Z"/>
  <g>
    <path class="cls-1" d="m197.77,37.99c-18.27-6.87-36.9-12.54-55.89-17.02l.8-2.98c19.04,2.88,37.98,8.58,55.99,17.05l-.9,2.95Z"/>
    <path class="cls-3" d="m198.67,35.04c-17.91-7.91-36.52-13.74-55.99-17.05l1.06-3.48c18.77,1.72,37.77,6.97,55.99,17.05l-1.06,3.48Z"/>
    <path class="cls-1" d="m199.73,31.55c-17.79-8.44-36.47-14.07-55.99-17.05l.68-2.11c18.4,2.3,37.3,7.8,55.99,17.05l-.68,2.11Z"/>
    <path class="cls-3" d="m200.41,29.44c-17.25-8.43-35.77-14.33-55.99-17.05l1.06-3.48c18.61,1.7,37.5,7.32,55.99,17.05l-1.06,3.48Z"/>
    <path class="cls-1" d="m201.47,25.96c-17.86-8.17-36.55-13.75-55.99-17.05l1.03-3.38c18.4,2.3,37.29,7.83,55.98,17.09l-1.02,3.35Z"/>
  </g>
  <g>
    <path class="cls-16" d="m100.93,171.64c-.38.85-3.99.04-8.05-1.81s-7.04-4.02-6.66-4.87c.1-.21.7-1.53.7-1.53l7.35,3.34c3.54,1.61,7.35,3.34,7.35,3.34,0,0-.65,1.42-.7,1.53Z"/>
    <ellipse class="cls-25" cx="94.27" cy="166.77" rx="1.68" ry="8.08" transform="translate(-96.56 183.66) rotate(-65.58)"/>
  </g>
  <g>
    <path class="cls-17" d="m93.31,126.31l6.59-1.09,1.03-9c.19-.45,0-.98-.43-1.19-.15-.07-.32-.1-.48-.07l-10.1,1.66c-.45.07-.76.53-.68,1.02.03.18.1.34.22.47l3.85,8.19Zm6.88.68l-6.59,1.09c-9.37,8.1-7.44,16.49-7.26,17.56.48,2.93,4.01,9.4,7.62,11.04s11.02,1.77,15.06-2.48c4.04-4.25,4.16-9.97,3.68-12.9-.17-1.05-1.1-9.66-12.51-14.3Z"/>
    <path class="cls-4" d="m89.89,144.18c-.15.93,2.81,4.9,2.81,4.9,0,0-1.27,4.02-.75,4.55s5.31,3.14,5.31,3.14c0,0-3.88-4.17-2.82-3.89s8.79,1.02,8.57.5-7.6-2.97-7.6-2.97l5.27-3.89-4.37.44-6.42-2.77Z"/>
    <g>
      <path class="cls-16" d="m94.67,144.24c.54.42-.66,2.86-2.67,5.45-2.01,2.59-4.08,4.35-4.62,3.93l-.98-.76,3.65-4.69,3.65-4.69.98.76Z"/>
      <ellipse class="cls-25" cx="90.04" cy="148.17" rx="5.94" ry="1.24" transform="translate(-82.2 128.31) rotate(-52.14)"/>
    </g>
    <g class="cls-13">
      <path class="cls-4" d="m89.89,144.18c-.15.93,2.6,4.5,2.97,5.23s1.1-.62,1.11.25c0,.88.06,1.14-.26,3.11s1.55-1.82,9.31.6c.54.17-7.6-2.97-7.6-2.97l5.27-3.89-4.37.44-6.42-2.77Z"/>
    </g>
    <polygon class="cls-17" points="88.93 142.98 91.71 145.03 96.32 146.95 102.66 146.28 96.31 142.4 88.93 142.98"/>
  </g>
  <g>
    <g>
      <path class="cls-9" d="m129.17,103.33c1.75-2.8,5.23-3.94,8.28-2.11,3.04,1.84,4.31,7.18,1.87,11-6.89,11.18-18.23,17.66-31.31,17.92-4.55.11-8.53-3.59-8.53-7.22,0-3.63,2.75-5.97,6.02-6.03,9.79-.31,18.42-5.16,23.67-13.55Z"/>
      <path class="cls-9" d="m92.75,119.84c-.99-.12-1.83-.63-1.89-1.34-.05-.71.83-1.52,2.01-1.57,3.3-.21,6.63.65,9.5,2.58,1.01.71,1.01,2.15.02,2.99-.99.84-2.15,1.01-2.77.44-1.86-1.7-4.19-2.93-6.88-3.11Z"/>
    </g>
    <g class="cls-23">
      <g class="cls-8">
        <g>
          <path class="cls-1" d="m115.64,131.71c2.75-8.55-.1-15.9-7.52-22.26l-6.94,2.34c8.63,5.73,11.58,13.03,7.52,22.26l6.94-2.34Z"/>
          <path class="cls-1" d="m128.22,133.94c1.44-12.44-2.85-24.03-11.79-34.91l-6.94,2.34c10.13,10.14,14.5,21.68,11.79,34.91l6.94-2.34Z"/>
          <path class="cls-3" d="m121.83,132.54c2.1-10.48-1.46-19.93-9.64-28.53l-6.94,2.34c9.37,7.92,13.02,17.32,9.64,28.53l6.94-2.34Z"/>
          <path class="cls-3" d="m133.97,133.46c1.27-12.94-3.2-25.06-12.34-36.52l-6.94,2.34c10.32,10.71,14.87,22.78,12.34,36.52l6.94-2.34Z"/>
          <path class="cls-1" d="m139.97,133.84c.84-14.21-4.1-27.73-13.74-40.67l-6.94,2.34c10.8,12.15,15.82,25.61,13.74,40.67l6.94-2.34Z"/>
          <path class="cls-3" d="m146.61,133.84c.52-15.16-4.76-29.7-14.78-43.75l-6.94,2.34c11.17,13.22,16.53,27.71,14.78,43.75l6.94-2.34Z"/>
          <path class="cls-1" d="m152.75,134.64c0-16.68-5.84-32.89-16.45-48.71l-6.94,2.34c11.75,14.95,17.68,31.1,16.45,48.71l6.94-2.34Z"/>
          <path class="cls-3" d="m159.54,137.24c-.93-19.47-7.8-38.7-19.51-57.75l-6.94,2.34c12.82,18.11,19.77,37.28,19.51,57.75l6.94-2.34Z"/>
          <path class="cls-1" d="m165.96,138.87c-1.61-21.48-9.23-42.91-21.72-64.3l-6.94,2.34c13.59,20.39,21.28,41.75,21.72,64.3l6.94-2.34Z"/>
          <path class="cls-3" d="m172.23,139.96c-2.08-22.87-10.21-45.83-23.26-68.84l-6.94,2.34c14.12,21.97,22.33,44.85,23.26,68.84l6.94-2.34Z"/>
          <path class="cls-1" d="m178.88,142.24c-2.89-25.27-11.91-50.84-25.89-76.65l-6.94,2.34c15.04,24.7,24.13,50.19,25.89,76.65l6.94-2.34Z"/>
        </g>
      </g>
    </g>
  </g>
  <g>
    <g class="cls-7">
      <path class="cls-9" d="m112.45,218.73c0,1.12-4.21,2.03-9.41,2.03s-9.4-.91-9.4-2.03,4.21-2.03,9.4-2.03c5.19,0,9.41.91,9.41,2.03Z"/>
    </g>
    <g>
      <path class="cls-16" d="m112.64,217.97c0,1.05-4.1,1.91-9.17,1.91s-9.17-.85-9.17-1.91v-1.91h18.33v1.91Z"/>
      <ellipse class="cls-25" cx="103.47" cy="216.06" rx="9.17" ry="1.91"/>
    </g>
  </g>
  <g>
    <g>
      <path class="cls-9" d="m181.88,104.84c-1.64-2.86-5.08-4.14-8.19-2.42-3.11,1.72-4.57,7.01-2.28,10.92,6.46,11.43,17.56,18.33,30.62,19.08,4.54.28,8.66-3.27,8.79-6.9.13-3.63-2.53-6.07-5.79-6.26-9.77-.68-18.22-5.84-23.15-14.43Z"/>
      <path class="cls-9" d="m218.14,124.75c.93-.06,1.93.22,2.18.88s-.51,1.64-1.63,1.97c-3.13.96-6.59.8-9.77-.36-1.16-.49-1.54-1.83-.67-2.83.74-1.09,1.85-1.42,2.63-1.1,2.02,1.26,4.61,1.83,7.26,1.43Z"/>
      <path class="cls-9" d="m216.29,119.44c.85-.52,1.76-.7,2.32-.21s.33,1.71-.58,2.48c-2.4,2.24-5.53,3.79-8.91,4.09-1.28.13-2.18-.88-1.97-2.22.21-1.34.99-2.2,1.83-2.13,2.53.22,5.1-.52,7.3-2Z"/>
      <path class="cls-9" d="m217.18,130.15c.98.17,1.79.72,1.81,1.42s-.9,1.47-2.08,1.47c-3.3.05-6.58-.97-9.34-3.04-.97-.76-.9-2.19.13-2.98,1.03-.79,2.19-.9,2.78-.3,1.77,1.79,4.03,3.12,6.7,3.43Z"/>
    </g>
    <g class="cls-10">
      <g class="cls-22">
        <g>
          <path class="cls-1" d="m194.34,133.7c-2.43-8.65.69-15.88,8.35-21.96l6.85,2.6c-8.84,5.4-12.06,12.59-8.35,21.96l-6.85-2.6Z"/>
          <path class="cls-1" d="m181.69,135.46c-.97-12.49,3.74-23.91,13.09-34.45l6.85,2.6c-10.5,9.76-15.3,21.12-13.09,34.45l-6.85-2.6Z"/>
          <path class="cls-3" d="m188.12,134.3c-1.71-10.55,2.21-19.86,10.7-28.15l6.85,2.6c-9.66,7.56-13.66,16.82-10.7,28.15l-6.85-2.6Z"/>
          <path class="cls-3" d="m175.96,134.77c-.79-12.98,4.13-24.93,13.7-36.04l6.85,2.6c-10.71,10.31-15.71,22.2-13.7,36.04l-6.85-2.6Z"/>
          <path class="cls-1" d="m169.96,134.92c-.31-14.23,5.13-27.55,15.25-40.13l6.85,2.6c-11.25,11.74-16.77,25-15.25,40.13l-6.85-2.6Z"/>
          <path class="cls-3" d="m163.32,134.68c.04-15.17,5.87-29.5,16.4-43.16l6.85,2.6c-11.65,12.8-17.56,27.07-16.4,43.16l-6.85-2.6Z"/>
          <path class="cls-1" d="m157.15,135.25c.62-16.67,7.07-32.65,18.26-48.06l6.85,2.6c-12.3,14.5-18.83,30.42-18.26,48.06l-6.85-2.6Z"/>
          <path class="cls-3" d="m150.27,137.59c1.66-19.42,9.25-38.38,21.66-56.98l6.85,2.6c-13.48,17.62-21.15,36.51-21.66,56.98l-6.85-2.6Z"/>
          <path class="cls-1" d="m143.8,138.98c2.41-21.4,10.82-42.54,24.11-63.45l6.85,2.6c-14.34,19.87-22.83,40.93-24.11,63.45l-6.85-2.6Z"/>
          <path class="cls-3" d="m137.48,139.83c2.94-22.78,11.92-45.41,25.81-67.93l6.85,2.6c-14.93,21.43-23.99,43.99-25.81,67.93l-6.85-2.6Z"/>
          <path class="cls-1" d="m130.76,141.87c3.84-25.15,13.8-50.36,28.74-75.63l6.85,2.6c-15.96,24.12-25.99,49.25-28.74,75.63l-6.85-2.6Z"/>
        </g>
      </g>
    </g>
  </g>
  <path class="cls-9" d="m161.97,82.06l-15.18-2.11c-.39-.05-.66-.42-.61-.81.05-.39.42-.67.81-.61l14.16,1.96,1.19-2.39c.18-.35.6-.5.96-.32.35.18.5.6.32.96l-1.64,3.32Z"/>
  <g>
    <g>
      <g class="cls-7">
        <path class="cls-9" d="m238.08,125.62l-.97-3.06c-1.04.03-1.87-.16-2.49-.57-.62-.41-1.05-1.01-1.3-1.8-.25-.8-.21-1.55.12-2.25.33-.7.9-1.23,1.71-1.57l-.23-.72,1.06-.33.23.72c.8-.15,1.5-.08,2.1.21s1.07.78,1.43,1.47l-1.77.82c-.29-.54-.71-.83-1.24-.89l.9,2.85c1.27-.05,2.19.11,2.77.48s1,.95,1.25,1.74c.28.88.25,1.71-.1,2.48-.34.77-.97,1.37-1.87,1.81l.43,1.36-1.06.33-.42-1.33c-.87.16-1.66.07-2.35-.29-.69-.36-1.26-.99-1.71-1.91l1.84-.81c.2.36.45.65.76.87s.61.34.91.39Zm-2.42-7.66c-.26.19-.43.43-.53.71-.1.29-.1.57-.01.85.08.26.23.47.46.64.23.17.52.28.88.31l-.8-2.52Zm3.51,7.43c.34-.18.59-.45.73-.79.14-.34.16-.7.04-1.06-.1-.33-.29-.58-.55-.75-.27-.18-.64-.26-1.12-.25l.9,2.84Z"/>
      </g>
      <g class="cls-7">
        <path class="cls-9" d="m258.29,96.34l-52.26,16.53c-1.59.52-2.53,2.18-1.97,3.88l9.2,29c.52,1.59,2.18,2.53,3.88,1.97l52.26-16.53c1.59-.52,2.53-2.18,1.97-3.88l-9.2-29c-.52-1.59-2.3-2.49-3.88-1.97Z"/>
      </g>
      <g>
        <g>
          <path class="cls-2" d="m259.25,92.87l-52.26,16.53c-1.59.52-2.53,2.18-1.97,3.88l9.2,29c.52,1.59,2.18,2.53,3.88,1.97l52.26-16.53c1.59-.52,2.53-2.18,1.97-3.88l-9.2-29c-.52-1.59-2.3-2.49-3.88-1.97Z"/>
          <path class="cls-3" d="m218.02,139.42l-1.87-5.73c3.17-1.04,6.61.81,7.65,3.98l-5.77,1.75Z"/>
          <path class="cls-3" d="m211.65,119.08l-1.87-5.73,5.73-1.87c1.2,3.25-.65,6.69-3.86,7.61Z"/>
          <path class="cls-3" d="m267.47,123.8l-5.73,1.87c-1.04-3.17.81-6.61,3.98-7.65l1.75,5.77Z"/>
          <path class="cls-3" d="m261.1,103.47c-3.17,1.04-6.61-.81-7.65-3.98l5.86-1.91,1.79,5.9Z"/>
          <path class="cls-3" d="m241.83,128.8c-11.39,3.58-22.05,1.94-23.88-3.68s6-13.03,17.39-16.62c11.39-3.58,22.05-1.94,23.88,3.68s-6,13.03-17.39,16.62Z"/>
        </g>
        <rect class="cls-19" x="216.9" y="111.82" width="43.51" height="13.73" transform="translate(-24.67 77.41) rotate(-17.53)"/>
        <g class="cls-6">
          <path class="cls-2" d="m239.05,122.15l-.97-3.06c-1.04.03-1.87-.16-2.49-.57-.62-.41-1.05-1.01-1.3-1.8-.25-.8-.21-1.55.12-2.25.33-.7.9-1.23,1.71-1.57l-.23-.72,1.06-.33.23.72c.8-.15,1.5-.08,2.1.21s1.07.78,1.43,1.47l-1.77.82c-.29-.54-.71-.83-1.24-.89l.9,2.85c1.27-.05,2.19.11,2.77.48s1,.95,1.25,1.74c.28.88.25,1.71-.1,2.48-.34.77-.97,1.37-1.87,1.81l.43,1.36-1.06.33-.42-1.33c-.87.16-1.66.07-2.35-.29-.69-.36-1.26-.99-1.71-1.91l1.84-.81c.2.36.45.65.76.87s.61.34.91.39Zm-2.42-7.66c-.26.19-.43.43-.53.71-.1.29-.1.57-.01.85.08.26.23.47.46.64.23.17.52.28.88.31l-.8-2.52Zm3.51,7.43c.34-.18.59-.45.73-.79.14-.34.16-.7.04-1.06-.1-.33-.29-.58-.55-.75-.27-.18-.64-.26-1.12-.25l.9,2.84Z"/>
        </g>
      </g>
    </g>
    <g>
      <g class="cls-7">
        <path class="cls-9" d="m240.41,118.42l-.97-3.06c-1.04.03-1.87-.16-2.49-.57-.62-.41-1.05-1.01-1.3-1.8-.25-.8-.21-1.55.12-2.25.33-.7.9-1.22,1.71-1.57l-.23-.72,1.06-.33.23.72c.8-.15,1.5-.08,2.1.21s1.07.78,1.43,1.47l-1.77.82c-.29-.54-.71-.83-1.24-.89l.9,2.85c1.27-.05,2.19.11,2.77.48.58.37,1,.95,1.25,1.74.28.88.25,1.71-.1,2.48-.34.77-.97,1.38-1.87,1.81l.43,1.36-1.06.33-.42-1.33c-.87.16-1.66.07-2.35-.29-.69-.36-1.26-.99-1.71-1.91l1.84-.81c.2.36.45.65.76.87.3.21.61.34.91.39Zm-2.42-7.66c-.26.19-.43.42-.53.71-.1.29-.1.57-.01.85.08.26.23.47.46.64.23.17.52.28.88.31l-.8-2.52Zm3.51,7.43c.34-.18.59-.45.73-.79.14-.34.16-.7.04-1.06-.1-.33-.29-.58-.55-.75-.27-.18-.64-.26-1.12-.25l.9,2.84Z"/>
      </g>
      <g class="cls-7">
        <path class="cls-9" d="m260.61,89.14l-52.26,16.53c-1.59.52-2.53,2.18-1.97,3.88l9.2,29c.52,1.59,2.18,2.53,3.88,1.97l52.26-16.53c1.59-.52,2.53-2.18,1.97-3.88l-9.2-29c-.52-1.59-2.3-2.49-3.88-1.97Z"/>
      </g>
      <g>
        <g>
          <path class="cls-2" d="m261.58,85.67l-52.26,16.53c-1.59.52-2.53,2.18-1.97,3.88l9.2,29c.52,1.59,2.18,2.53,3.88,1.97l52.26-16.53c1.59-.52,2.53-2.18,1.97-3.88l-9.2-29c-.52-1.59-2.3-2.49-3.88-1.97Z"/>
          <path class="cls-3" d="m220.34,132.22l-1.87-5.73c3.17-1.04,6.61.81,7.65,3.98l-5.77,1.75Z"/>
          <path class="cls-3" d="m213.97,111.88l-1.87-5.73,5.73-1.87c1.2,3.25-.65,6.69-3.86,7.61Z"/>
          <path class="cls-3" d="m269.79,116.61l-5.73,1.87c-1.04-3.17.81-6.61,3.98-7.65l1.75,5.77Z"/>
          <path class="cls-3" d="m263.42,96.27c-3.17,1.04-6.61-.81-7.65-3.98l5.86-1.91,1.79,5.9Z"/>
          <path class="cls-3" d="m244.15,121.61c-11.39,3.58-22.05,1.94-23.88-3.68s6-13.03,17.39-16.62c11.39-3.58,22.05-1.94,23.88,3.68s-6,13.03-17.39,16.62Z"/>
        </g>
        <rect class="cls-19" x="219.22" y="104.62" width="43.51" height="13.73" transform="translate(-22.39 77.77) rotate(-17.53)"/>
        <g class="cls-6">
          <path class="cls-2" d="m241.38,114.95l-.97-3.06c-1.04.03-1.87-.16-2.49-.57-.62-.41-1.05-1.01-1.3-1.8-.25-.8-.21-1.55.12-2.25.33-.7.9-1.22,1.71-1.57l-.23-.72,1.06-.33.23.72c.8-.15,1.5-.08,2.1.21s1.07.78,1.43,1.47l-1.77.82c-.29-.54-.71-.83-1.24-.89l.9,2.85c1.27-.05,2.19.11,2.77.48.58.37,1,.95,1.25,1.74.28.88.25,1.71-.1,2.48-.34.77-.97,1.38-1.87,1.81l.43,1.36-1.06.33-.42-1.33c-.87.16-1.66.07-2.35-.29-.69-.36-1.26-.99-1.71-1.91l1.84-.81c.2.36.45.65.76.87.3.21.61.34.91.39Zm-2.42-7.66c-.26.19-.43.42-.53.71-.1.29-.1.57-.01.85.08.26.23.47.46.64.23.17.52.28.88.31l-.8-2.52Zm3.51,7.43c.34-.18.59-.45.73-.79.14-.34.16-.7.04-1.06-.1-.33-.29-.58-.55-.75-.27-.18-.64-.26-1.12-.25l.9,2.84Z"/>
        </g>
      </g>
    </g>
    <g>
      <g class="cls-7">
        <path class="cls-9" d="m241.33,112.14l-.97-3.06c-1.04.03-1.87-.16-2.49-.57-.62-.41-1.05-1.01-1.3-1.8-.25-.8-.21-1.55.12-2.25.33-.7.9-1.23,1.71-1.57l-.23-.72,1.06-.33.23.72c.8-.15,1.5-.08,2.1.21s1.07.78,1.43,1.47l-1.77.82c-.29-.54-.71-.83-1.24-.89l.9,2.85c1.27-.05,2.19.11,2.77.48s1,.95,1.25,1.74c.28.88.25,1.71-.1,2.48-.34.77-.97,1.37-1.87,1.81l.43,1.36-1.06.33-.42-1.33c-.87.16-1.66.07-2.35-.29-.69-.36-1.26-.99-1.71-1.91l1.84-.81c.2.36.45.65.76.87s.61.34.91.39Zm-2.42-7.66c-.26.19-.43.43-.53.71-.1.29-.1.57-.01.85.08.26.23.47.46.64.23.17.52.28.88.31l-.8-2.52Zm3.51,7.43c.34-.18.59-.45.73-.79.14-.34.16-.7.04-1.06-.1-.33-.29-.58-.55-.75-.27-.18-.64-.26-1.12-.25l.9,2.84Z"/>
      </g>
      <g class="cls-7">
        <path class="cls-9" d="m261.53,82.85l-52.26,16.53c-1.59.52-2.53,2.18-1.97,3.88l9.2,29c.52,1.59,2.18,2.53,3.88,1.97l52.26-16.53c1.59-.52,2.53-2.18,1.97-3.88l-9.2-29c-.52-1.59-2.3-2.49-3.88-1.97Z"/>
      </g>
      <g>
        <g>
          <path class="cls-2" d="m262.5,79.38l-52.26,16.53c-1.59.52-2.53,2.18-1.97,3.88l9.2,29c.52,1.59,2.18,2.53,3.88,1.97l52.26-16.53c1.59-.52,2.53-2.18,1.97-3.88l-9.2-29c-.52-1.59-2.3-2.49-3.88-1.97Z"/>
          <path class="cls-3" d="m221.27,125.93l-1.87-5.73c3.17-1.04,6.61.81,7.65,3.98l-5.77,1.75Z"/>
          <path class="cls-3" d="m214.89,105.6l-1.87-5.73,5.73-1.87c1.2,3.25-.65,6.69-3.86,7.61Z"/>
          <path class="cls-3" d="m270.72,110.32l-5.73,1.87c-1.04-3.17.81-6.61,3.98-7.65l1.75,5.77Z"/>
          <path class="cls-3" d="m264.34,89.99c-3.17,1.04-6.61-.81-7.65-3.98l5.86-1.91,1.79,5.9Z"/>
          <path class="cls-3" d="m245.07,115.32c-11.39,3.58-22.05,1.94-23.88-3.68s6-13.03,17.39-16.62c11.39-3.58,22.05-1.94,23.88,3.68s-6,13.03-17.39,16.62Z"/>
        </g>
        <rect class="cls-19" x="220.15" y="98.33" width="43.51" height="13.73" transform="translate(-20.45 77.76) rotate(-17.53)"/>
        <g class="cls-6">
          <path class="cls-2" d="m242.3,108.66l-.97-3.06c-1.04.03-1.87-.16-2.49-.57-.62-.41-1.05-1.01-1.3-1.8-.25-.8-.21-1.55.12-2.25.33-.7.9-1.22,1.71-1.57l-.23-.72,1.06-.33.23.72c.8-.15,1.5-.08,2.1.21s1.07.78,1.43,1.47l-1.77.82c-.29-.54-.71-.83-1.24-.89l.9,2.85c1.27-.05,2.19.11,2.77.48.58.37,1,.95,1.25,1.74.28.88.25,1.71-.1,2.48-.34.77-.97,1.38-1.87,1.81l.43,1.36-1.06.33-.42-1.33c-.87.16-1.66.07-2.35-.29-.69-.36-1.26-.99-1.71-1.91l1.84-.81c.2.36.45.65.76.87.3.21.61.34.91.39Zm-2.42-7.66c-.26.19-.43.42-.53.71-.1.29-.1.57-.01.85.08.26.23.47.46.64.23.17.52.28.88.31l-.8-2.52Zm3.51,7.43c.34-.18.59-.45.73-.79.14-.34.16-.7.04-1.06-.1-.33-.29-.58-.55-.75-.27-.18-.64-.26-1.12-.25l.9,2.84Z"/>
        </g>
      </g>
    </g>
  </g>
  <g>
    <g class="cls-7">
      <path class="cls-9" d="m241.12,87.94c1.1,2,2.51,3.86,4.28,5.5,8.9,8.34,22.88,7.9,31.24-1,4.45-4.75,6.4-10.94,5.89-16.95,0,0,0,0,0,0-.44-5.26-2.75-10.38-6.91-14.28-8.89-8.34-22.88-7.9-31.23,1.01-6.7,7.15-7.74,17.57-3.26,25.73"/>
    </g>
    <g>
      <g>
        <path class="cls-21" d="m241.15,85.94c1.1,2,2.51,3.86,4.28,5.5,8.9,8.34,22.88,7.9,31.24-1,4.45-4.75,6.4-10.95,5.89-16.96-1.18,3.49-3.1,6.8-5.79,9.66-9.45,10.08-24.92,11.13-35.62,2.8Z"/>
        <path class="cls-14" d="m244.42,60.2c-6.7,7.15-7.74,17.57-3.26,25.73,10.69,8.33,26.15,7.28,35.61-2.8,2.69-2.86,4.61-6.17,5.79-9.66-.44-5.26-2.75-10.38-6.91-14.28-8.89-8.34-22.88-7.9-31.23,1.01Z"/>
      </g>
      <path class="cls-3" d="m267.1,76.76c.38.7.41,1.57.13,2.62-.38,1.26-1.08,2.1-2.12,2.52-.89.34-2.15.41-3.76.22l-.45,2.48-1.8-.33.45-2.45-1.38-.25-.45,2.45-1.8-.33.45-2.48-3.53-.64.75-2.05.37.07c.57.13.96.18,1.13.16.25-.03.43-.18.53-.46l1.44-7.92c0-.4-.16-.68-.49-.84-.2-.11-.66-.22-1.38-.32l-.28-.05.35-1.9,1.08.24c1.3.24,2.11.37,2.45.4l.52-2.88,1.8.33-.52,2.84,1.38.21.51-2.8,1.8.33-.52,2.88c1.21.34,2.12.78,2.7,1.32.71.63,1.02,1.44.91,2.42-.11,1.44-.79,2.34-2.04,2.72h0c.85.36,1.44.86,1.76,1.49h0Zm-7.48-2.99l.29.05c1.02.21,1.82.29,2.4.25,1.01-.07,1.6-.5,1.75-1.31s-.24-1.42-1.14-1.86c-.5-.25-1.28-.44-2.34-.61-.17,0-.29-.01-.33-.02l-.64,3.49h0Zm-.7,5.71c1.24.25,2.18.35,2.85.33,1.18-.09,1.86-.56,2.02-1.44s-.29-1.56-1.35-2.05c-.57-.28-1.49-.51-2.74-.68l-.4-.07-.7,3.87.32.06h0Z"/>
    </g>
  </g>
</svg>