<?xml version="1.0" encoding="UTF-8"?>
<svg id="Layer_1" data-name="Layer 1" xmlns="http://www.w3.org/2000/svg" width="300" height="225" viewBox="0 0 300 225">
  <defs>
    <style>
      .cls-1 {
        fill: #fff;
      }

      .cls-2 {
        fill: #23140a;
      }

      .cls-3 {
        isolation: isolate;
        opacity: .35;
      }

      .cls-4 {
        fill: #232323;
      }

      .cls-5 {
        fill: #444;
      }

      .cls-6 {
        fill: #dda905;
      }

      .cls-7 {
        fill: #7f7f7f;
      }

      .cls-8 {
        fill: #ffcf15;
      }
    </style>
  </defs>
  <g>
    <g class="cls-3">
      <path class="cls-4" d="m27.82,207.11c0,1.12-4.21,2.03-9.41,2.03s-9.4-.91-9.4-2.03,4.21-2.03,9.4-2.03c5.19,0,9.41.91,9.41,2.03Z"/>
    </g>
    <g>
      <path class="cls-6" d="m28.01,206.35c0,1.05-4.1,1.91-9.17,1.91s-9.17-.85-9.17-1.91v-1.91h18.33v1.91Z"/>
      <ellipse class="cls-8" cx="18.84" cy="204.45" rx="9.17" ry="1.91"/>
    </g>
  </g>
  <g>
    <g class="cls-3">
      <path class="cls-4" d="m27.91,165.15c0,1.12-4.21,2.03-9.41,2.03s-9.4-.91-9.4-2.03,4.21-2.03,9.4-2.03c5.19,0,9.41.91,9.41,2.03Z"/>
    </g>
    <g>
      <path class="cls-6" d="m28.1,164.39c0,1.05-4.1,1.91-9.17,1.91s-9.17-.85-9.17-1.91v-1.91h18.33v1.91Z"/>
      <ellipse class="cls-8" cx="18.94" cy="162.48" rx="9.17" ry="1.91"/>
    </g>
  </g>
  <g>
    <path class="cls-1" d="m164.91,58.94c-2.96,0-6.38-1.17-8.32-1.68-2.3-.56-3.37-.61-5.05-.61-5.1,0-6.68,2.65-7.09,3.78,3.37-10.31,13.98-11.79,20.31-11.74h.51c6.28,0,16.94,1.48,20.26,11.84-.41-1.07-1.99-3.78-7.09-3.78-1.68,0-2.76,0-5.05.56-1.94.51-5.41,1.63-8.32,1.63h-.15Z"/>
    <path class="cls-5" d="m185.48,60.53h0c-.41-1.12-1.99-3.78-7.09-3.78-1.68,0-2.76,0-5.05.56-1.94.51-5.41,1.63-8.32,1.63h-.1c-2.96,0-6.38-1.17-8.32-1.68-2.3-.56-3.37-.61-5.05-.61-5.1,0-6.68,2.65-7.09,3.78h0c-1.07,1.02-1.79,3.73-1.74,6.94.1,4.03,1.48,7.25,3.06,7.2h.1c3.67,7.4,13.73,10.82,18.98,10.82s15.41-3.37,19.14-10.77h.1c1.58.05,2.96-3.16,3.11-7.2.05-3.16-.66-5.87-1.74-6.89Z"/>
    <path class="cls-7" d="m164.91,80.07c-2.65,0-8.32-2.5-8.32-7.91s6.28-5.82,8.37-5.82,8.37.46,8.32,5.87c0,5.41-5.72,7.86-8.37,7.86Z"/>
    <path class="cls-4" d="m165.07,67.72c1.17,0,2.86,1.22,3.06,2.6.2,1.43-3.16,1.38-3.16,1.38h-.1s-3.37.05-3.16-1.38c.2-1.43,1.94-2.6,3.06-2.6h.31Z"/>
    <g>
      <circle class="cls-4" cx="156.39" cy="63.59" r="1.02"/>
      <path class="cls-4" d="m174.51,63.64c0,.56-.46,1.02-1.02,1.02s-1.02-.46-1.02-1.02.46-1.02,1.02-1.02,1.02.46,1.02,1.02Z"/>
    </g>
    <path class="cls-4" d="m183.28,62.82c1.28.05,2.35,2.5,2.76,5.97.05-.46.1-.87.1-1.38.1-3.16-.66-5.77-1.73-5.82-.46,0-.87.46-1.17,1.17,0,.05.05.05.05.05Z"/>
    <path class="cls-4" d="m146.59,62.72c-1.28.05-2.35,2.5-2.76,5.97-.05-.46-.05-.87-.1-1.38-.05-3.16.71-5.77,1.74-5.82.46,0,.87.46,1.17,1.22,0,.05,0,0-.05,0Z"/>
    <path class="cls-7" d="m158.43,61.13c-.1,0-.2-.04-.27-.12-.2-.24-.45-.42-.79-.57-.36-.15-.66-.23-.93-.23-.35-.04-.59.03-.9.12l-.08.02c-.31.13-.56.27-.77.47-.14.14-.36.14-.49,0-.14-.14-.14-.36,0-.49.31-.31.7-.49,1.03-.63l.12-.04c.34-.1.68-.2,1.13-.14.32,0,.72.09,1.17.28.43.19.78.43,1.05.76.12.15.1.37-.04.49-.06.05-.14.08-.22.08Z"/>
    <path class="cls-7" d="m175.58,61.13c-.1,0-.2-.04-.27-.12-.2-.24-.45-.42-.79-.57-.36-.15-.66-.23-.93-.23h-.05c-.28-.04-.6.05-.93.14-.31.13-.56.27-.77.47-.14.14-.36.14-.49,0-.14-.14-.14-.36,0-.49.31-.31.7-.49,1.03-.63.42-.12.81-.23,1.23-.18.36,0,.75.1,1.18.28.43.19.78.43,1.05.76.12.15.1.37-.04.49-.06.05-.14.08-.22.08Z"/>
    <path class="cls-4" d="m164.99,78.04c-.64,0-1.23-.14-1.62-.27-.65-.24-1.16-.54-1.62-.95-.49-.43-.9-.96-1.15-1.48-.07-.16,0-.34.15-.42.16-.07.34,0,.42.15.21.44.58.91,1,1.28.4.35.85.62,1.41.83.38.12.99.27,1.65.23.61-.04,1.12-.18,1.6-.44.46-.22.92-.58,1.29-1.01.35-.4.62-.85.83-1.41.06-.16.24-.24.41-.18.16.06.24.24.18.41-.24.64-.54,1.15-.94,1.61-.43.49-.96.9-1.48,1.15-.55.3-1.14.46-1.85.51-.09,0-.19,0-.28,0Z"/>
  </g>
  <g>
    <g>
      <path class="cls-1" d="m165.91,140.6c-2.96,0-6.38-1.17-8.32-1.68-2.3-.56-3.37-.61-5.05-.61-5.1,0-6.68,2.65-7.09,3.78,3.37-10.31,13.98-11.79,20.31-11.74h.51c6.28,0,16.94,1.48,20.26,11.84-.41-1.07-1.99-3.78-7.09-3.78-1.68,0-2.76,0-5.05.56-1.94.51-5.41,1.63-8.32,1.63h-.15Z"/>
      <path class="cls-5" d="m186.48,142.19h0c-.41-1.12-1.99-3.78-7.09-3.78-1.68,0-2.76,0-5.05.56-1.94.51-5.41,1.63-8.32,1.63h-.1c-2.96,0-6.38-1.17-8.32-1.68-2.3-.56-3.37-.61-5.05-.61-5.1,0-6.68,2.65-7.09,3.78h0c-1.07,1.02-1.79,3.73-1.74,6.94.1,4.03,1.48,7.25,3.06,7.2h.1c3.67,7.4,13.73,10.82,18.98,10.82s15.41-3.37,19.14-10.77h.1c1.58.05,2.96-3.16,3.11-7.2.05-3.16-.66-5.87-1.74-6.89Z"/>
      <path class="cls-7" d="m165.91,161.73c-2.65,0-8.32-2.5-8.32-7.91s6.28-5.82,8.37-5.82,8.37.46,8.32,5.87c0,5.41-5.72,7.86-8.37,7.86Z"/>
      <path class="cls-4" d="m166.07,149.38c1.17,0,2.86,1.22,3.06,2.6.2,1.43-3.16,1.38-3.16,1.38h-.1s-3.37.05-3.16-1.38c.2-1.43,1.94-2.6,3.06-2.6h.31Z"/>
      <g>
        <circle class="cls-4" cx="157.39" cy="145.25" r="1.02"/>
        <path class="cls-4" d="m175.51,145.3c0,.56-.46,1.02-1.02,1.02s-1.02-.46-1.02-1.02.46-1.02,1.02-1.02,1.02.46,1.02,1.02Z"/>
      </g>
      <path class="cls-4" d="m184.28,144.48c1.28.05,2.35,2.5,2.76,5.97.05-.46.1-.87.1-1.38.1-3.16-.66-5.77-1.73-5.82-.46,0-.87.46-1.17,1.17,0,.05.05.05.05.05Z"/>
      <path class="cls-4" d="m147.59,144.38c-1.28.05-2.35,2.5-2.76,5.97-.05-.46-.05-.87-.1-1.38-.05-3.16.71-5.77,1.74-5.82.46,0,.87.46,1.17,1.22,0,.05,0,0-.05,0Z"/>
      <path class="cls-7" d="m159.43,142.79c-.1,0-.2-.04-.27-.12-.2-.24-.45-.42-.79-.57-.36-.15-.66-.23-.93-.23-.35-.04-.59.03-.9.12l-.08.02c-.31.13-.56.27-.77.47-.14.14-.36.14-.49,0-.14-.14-.14-.36,0-.49.31-.31.7-.49,1.03-.63l.12-.04c.34-.1.68-.2,1.13-.14.32,0,.72.09,1.17.28.43.19.78.44,1.05.76.12.15.1.37-.04.49-.06.05-.14.08-.22.08Z"/>
      <path class="cls-7" d="m176.58,142.79c-.1,0-.2-.04-.27-.12-.2-.24-.45-.42-.79-.57-.36-.15-.66-.23-.93-.23h-.05c-.28-.04-.6.05-.93.14-.31.13-.56.27-.77.47-.14.14-.36.14-.49,0-.14-.14-.14-.36,0-.49.31-.31.7-.49,1.03-.63.42-.12.81-.23,1.23-.18.36,0,.75.1,1.18.28.43.19.78.44,1.05.76.12.15.1.37-.04.49-.06.05-.14.08-.22.08Z"/>
      <path class="cls-4" d="m169.32,158.41l-6.67-.93c-.17-.02-.29-.18-.27-.35.02-.17.18-.29.35-.27l6.22.86.52-1.05c.08-.16.27-.22.42-.14.16.08.22.27.14.42l-.72,1.46Z"/>
    </g>
    <g>
      <path class="cls-1" d="m98.57,140.6c-2.96,0-6.38-1.17-8.32-1.68-2.3-.56-3.37-.61-5.05-.61-5.1,0-6.68,2.65-7.09,3.78,3.37-10.31,13.98-11.79,20.31-11.74h.51c6.28,0,16.94,1.48,20.26,11.84-.41-1.07-1.99-3.78-7.09-3.78-1.68,0-2.76,0-5.05.56-1.94.51-5.41,1.63-8.32,1.63h-.15Z"/>
      <path class="cls-5" d="m119.13,142.19h0c-.41-1.12-1.99-3.78-7.09-3.78-1.68,0-2.76,0-5.05.56-1.94.51-5.41,1.63-8.32,1.63h-.1c-2.96,0-6.38-1.17-8.32-1.68-2.3-.56-3.37-.61-5.05-.61-5.1,0-6.68,2.65-7.09,3.78h0c-1.07,1.02-1.79,3.73-1.74,6.94.1,4.03,1.48,7.25,3.06,7.2h.1c3.67,7.4,13.73,10.82,18.98,10.82s15.41-3.37,19.14-10.77h.1c1.58.05,2.96-3.16,3.11-7.2.05-3.16-.66-5.87-1.74-6.89Z"/>
      <path class="cls-7" d="m98.57,161.73c-2.65,0-8.32-2.5-8.32-7.91s6.28-5.82,8.37-5.82,8.37.46,8.32,5.87c0,5.41-5.72,7.86-8.37,7.86Z"/>
      <path class="cls-4" d="m98.72,149.38c1.17,0,2.86,1.22,3.06,2.6.2,1.43-3.16,1.38-3.16,1.38h-.1s-3.37.05-3.16-1.38c.2-1.43,1.94-2.6,3.06-2.6h.31Z"/>
      <g>
        <circle class="cls-4" cx="90.05" cy="145.25" r="1.02"/>
        <path class="cls-4" d="m108.16,145.3c0,.56-.46,1.02-1.02,1.02s-1.02-.46-1.02-1.02.46-1.02,1.02-1.02,1.02.46,1.02,1.02Z"/>
      </g>
      <path class="cls-4" d="m116.94,144.48c1.28.05,2.35,2.5,2.76,5.97.05-.46.1-.87.1-1.38.1-3.16-.66-5.77-1.73-5.82-.46,0-.87.46-1.17,1.17,0,.05.05.05.05.05Z"/>
      <path class="cls-4" d="m80.25,144.38c-1.28.05-2.35,2.5-2.76,5.97-.05-.46-.05-.87-.1-1.38-.05-3.16.71-5.77,1.74-5.82.46,0,.87.46,1.17,1.22,0,.05,0,0-.05,0Z"/>
      <path class="cls-7" d="m92.09,142.79c-.1,0-.2-.04-.27-.12-.2-.24-.45-.42-.79-.57-.36-.15-.66-.23-.93-.23-.35-.04-.59.03-.9.12l-.08.02c-.31.13-.56.27-.77.47-.14.14-.36.14-.49,0-.14-.14-.14-.36,0-.49.31-.31.7-.49,1.03-.63l.12-.04c.34-.1.68-.2,1.13-.14.32,0,.72.09,1.17.28.43.19.78.44,1.05.76.12.15.1.37-.04.49-.06.05-.14.08-.22.08Z"/>
      <path class="cls-7" d="m109.23,142.79c-.1,0-.2-.04-.27-.12-.2-.24-.45-.42-.79-.57-.36-.15-.66-.23-.93-.23h-.05c-.28-.04-.6.05-.93.14-.31.13-.56.27-.77.47-.14.14-.36.14-.49,0-.14-.14-.14-.36,0-.49.31-.31.7-.49,1.03-.63.42-.12.81-.23,1.23-.18.36,0,.75.1,1.18.28.43.19.78.44,1.05.76.12.15.1.37-.04.49-.06.05-.14.08-.22.08Z"/>
      <path class="cls-4" d="m101.97,158.41l-6.67-.93c-.17-.02-.29-.18-.27-.35.02-.17.18-.29.35-.27l6.22.86.52-1.05c.08-.16.27-.22.42-.14.16.08.22.27.14.42l-.72,1.46Z"/>
    </g>
    <g>
      <path class="cls-1" d="m233.26,140.6c-2.96,0-6.38-1.17-8.32-1.68-2.3-.56-3.37-.61-5.05-.61-5.1,0-6.68,2.65-7.09,3.78,3.37-10.31,13.98-11.79,20.31-11.74h.51c6.28,0,16.94,1.48,20.26,11.84-.41-1.07-1.99-3.78-7.09-3.78-1.68,0-2.76,0-5.05.56-1.94.51-5.41,1.63-8.32,1.63h-.15Z"/>
      <path class="cls-5" d="m253.82,142.19h0c-.41-1.12-1.99-3.78-7.09-3.78-1.68,0-2.76,0-5.05.56-1.94.51-5.41,1.63-8.32,1.63h-.1c-2.96,0-6.38-1.17-8.32-1.68-2.3-.56-3.37-.61-5.05-.61-5.1,0-6.68,2.65-7.09,3.78h0c-1.07,1.02-1.79,3.73-1.74,6.94.1,4.03,1.48,7.25,3.06,7.2h.1c3.67,7.4,13.73,10.82,18.98,10.82s15.41-3.37,19.14-10.77h.1c1.58.05,2.96-3.16,3.11-7.2.05-3.16-.66-5.87-1.74-6.89Z"/>
      <path class="cls-7" d="m233.26,161.73c-2.65,0-8.32-2.5-8.32-7.91s6.28-5.82,8.37-5.82,8.37.46,8.32,5.87c0,5.41-5.72,7.86-8.37,7.86Z"/>
      <path class="cls-4" d="m233.41,149.38c1.17,0,2.86,1.22,3.06,2.6.2,1.43-3.16,1.38-3.16,1.38h-.1s-3.37.05-3.16-1.38c.2-1.43,1.94-2.6,3.06-2.6h.31Z"/>
      <g>
        <circle class="cls-4" cx="224.73" cy="145.25" r="1.02"/>
        <path class="cls-4" d="m242.85,145.3c0,.56-.46,1.02-1.02,1.02s-1.02-.46-1.02-1.02.46-1.02,1.02-1.02,1.02.46,1.02,1.02Z"/>
      </g>
      <path class="cls-4" d="m251.63,144.48c1.28.05,2.35,2.5,2.76,5.97.05-.46.1-.87.1-1.38.1-3.16-.66-5.77-1.73-5.82-.46,0-.87.46-1.17,1.17,0,.05.05.05.05.05Z"/>
      <path class="cls-4" d="m214.94,144.38c-1.28.05-2.35,2.5-2.76,5.97-.05-.46-.05-.87-.1-1.38-.05-3.16.71-5.77,1.74-5.82.46,0,.87.46,1.17,1.22,0,.05,0,0-.05,0Z"/>
      <path class="cls-7" d="m226.78,142.79c-.1,0-.2-.04-.27-.12-.2-.24-.45-.42-.79-.57-.36-.15-.66-.23-.93-.23-.35-.04-.59.03-.9.12l-.08.02c-.31.13-.56.27-.77.47-.14.14-.36.14-.49,0-.14-.14-.14-.36,0-.49.31-.31.7-.49,1.03-.63l.12-.04c.34-.1.68-.2,1.13-.14.32,0,.72.09,1.17.28.43.19.78.44,1.05.76.12.15.1.37-.04.49-.06.05-.14.08-.22.08Z"/>
      <path class="cls-7" d="m243.92,142.79c-.1,0-.2-.04-.27-.12-.2-.24-.45-.42-.79-.57-.36-.15-.66-.23-.93-.23h-.05c-.28-.04-.6.05-.93.14-.31.13-.56.27-.77.47-.14.14-.36.14-.49,0-.14-.14-.14-.36,0-.49.31-.31.7-.49,1.03-.63.42-.12.81-.23,1.23-.18.36,0,.75.1,1.18.28.43.19.78.44,1.05.76.12.15.1.37-.04.49-.06.05-.14.08-.22.08Z"/>
      <path class="cls-4" d="m236.66,158.41l-6.67-.93c-.17-.02-.29-.18-.27-.35.02-.17.18-.29.35-.27l6.22.86.52-1.05c.08-.16.27-.22.42-.14.16.08.22.27.14.42l-.72,1.46Z"/>
    </g>
  </g>
  <g>
    <g>
      <g>
        <path class="cls-1" d="m132.15,99.32c-2.96,0-6.38-1.17-8.32-1.68-2.3-.56-3.37-.61-5.05-.61-5.1,0-6.68,2.65-7.09,3.78,3.37-10.31,13.98-11.79,20.31-11.74h.51c6.28,0,16.94,1.48,20.26,11.84-.41-1.07-1.99-3.78-7.09-3.78-1.68,0-2.76,0-5.05.56-1.94.51-5.41,1.63-8.32,1.63h-.15Z"/>
        <path class="cls-5" d="m152.72,100.9h0c-.41-1.12-1.99-3.78-7.09-3.78-1.68,0-2.76,0-5.05.56-1.94.51-5.41,1.63-8.32,1.63h-.1c-2.96,0-6.38-1.17-8.32-1.68-2.3-.56-3.37-.61-5.05-.61-5.1,0-6.68,2.65-7.09,3.78h0c-1.07,1.02-1.79,3.73-1.74,6.94.1,4.03,1.48,7.25,3.06,7.2h.1c3.67,7.4,13.73,10.82,18.98,10.82s15.41-3.37,19.14-10.77h.1c1.58.05,2.96-3.16,3.11-7.2.05-3.16-.66-5.87-1.74-6.89Z"/>
        <path class="cls-7" d="m132.15,120.44c-2.65,0-8.32-2.5-8.32-7.91s6.28-5.82,8.37-5.82,8.37.46,8.32,5.87c0,5.41-5.72,7.86-8.37,7.86Z"/>
        <path class="cls-4" d="m132.3,108.09c1.17,0,2.86,1.22,3.06,2.6.2,1.43-3.16,1.38-3.16,1.38h-.1s-3.37.05-3.16-1.38c.2-1.43,1.94-2.6,3.06-2.6h.31Z"/>
        <g>
          <circle class="cls-4" cx="123.63" cy="103.96" r="1.02"/>
          <path class="cls-4" d="m141.74,104.01c0,.56-.46,1.02-1.02,1.02s-1.02-.46-1.02-1.02.46-1.02,1.02-1.02,1.02.46,1.02,1.02Z"/>
        </g>
        <path class="cls-4" d="m150.52,103.19c1.28.05,2.35,2.5,2.76,5.97.05-.46.1-.87.1-1.38.1-3.16-.66-5.77-1.73-5.82-.46,0-.87.46-1.17,1.17,0,.05.05.05.05.05Z"/>
        <path class="cls-4" d="m113.83,103.09c-1.28.05-2.35,2.5-2.76,5.97-.05-.46-.05-.87-.1-1.38-.05-3.16.71-5.77,1.74-5.82.46,0,.87.46,1.17,1.22,0,.05,0,0-.05,0Z"/>
        <path class="cls-7" d="m125.67,101.5c-.1,0-.2-.04-.27-.12-.2-.24-.45-.42-.79-.57-.36-.15-.66-.23-.93-.23-.35-.04-.59.03-.9.12l-.06.02c-.34.15-.59.28-.79.48-.14.14-.36.14-.49,0-.14-.14-.14-.36,0-.49.31-.31.69-.49,1.03-.63l.12-.04c.34-.1.68-.2,1.13-.14.32,0,.72.09,1.17.28.43.19.78.43,1.05.76.12.15.1.37-.04.49-.06.05-.14.08-.22.08Z"/>
        <path class="cls-7" d="m142.82,101.5c-.1,0-.2-.04-.27-.12-.2-.24-.45-.42-.79-.57-.36-.15-.66-.23-.93-.23h-.05c-.28-.04-.6.05-.93.14-.31.13-.57.27-.77.47-.14.14-.36.14-.49,0-.14-.14-.14-.36,0-.49.31-.31.69-.49,1.03-.63h.04c.38-.12.77-.24,1.19-.18.36,0,.75.1,1.18.28.43.19.78.43,1.05.76.12.15.1.37-.04.49-.06.05-.14.08-.22.08Z"/>
      </g>
      <g>
        <path class="cls-1" d="m197.78,99.32c-2.96,0-6.38-1.17-8.32-1.68-2.3-.56-3.37-.61-5.05-.61-5.1,0-6.68,2.65-7.09,3.78,3.37-10.31,13.98-11.79,20.31-11.74h.51c6.28,0,16.94,1.48,20.26,11.84-.41-1.07-1.99-3.78-7.09-3.78-1.68,0-2.76,0-5.05.56-1.94.51-5.41,1.63-8.32,1.63h-.15Z"/>
        <path class="cls-5" d="m218.34,100.9h0c-.41-1.12-1.99-3.78-7.09-3.78-1.68,0-2.76,0-5.05.56-1.94.51-5.41,1.63-8.32,1.63h-.1c-2.96,0-6.38-1.17-8.32-1.68-2.3-.56-3.37-.61-5.05-.61-5.1,0-6.68,2.65-7.09,3.78h0c-1.07,1.02-1.79,3.73-1.74,6.94.1,4.03,1.48,7.25,3.06,7.2h.1c3.67,7.4,13.73,10.82,18.98,10.82s15.41-3.37,19.14-10.77h.1c1.58.05,2.96-3.16,3.11-7.2.05-3.16-.66-5.87-1.74-6.89Z"/>
        <path class="cls-7" d="m197.78,120.44c-2.65,0-8.32-2.5-8.32-7.91s6.28-5.82,8.37-5.82,8.37.46,8.32,5.87c0,5.41-5.72,7.86-8.37,7.86Z"/>
        <path class="cls-4" d="m197.93,108.09c1.17,0,2.86,1.22,3.06,2.6.2,1.43-3.16,1.38-3.16,1.38h-.1s-3.37.05-3.16-1.38c.2-1.43,1.94-2.6,3.06-2.6h.31Z"/>
        <g>
          <circle class="cls-4" cx="189.26" cy="103.96" r="1.02"/>
          <path class="cls-4" d="m207.37,104.01c0,.56-.46,1.02-1.02,1.02s-1.02-.46-1.02-1.02.46-1.02,1.02-1.02,1.02.46,1.02,1.02Z"/>
        </g>
        <path class="cls-4" d="m216.15,103.19c1.28.05,2.35,2.5,2.76,5.97.05-.46.1-.87.1-1.38.1-3.16-.66-5.77-1.73-5.82-.46,0-.87.46-1.17,1.17,0,.05.05.05.05.05Z"/>
        <path class="cls-4" d="m179.46,103.09c-1.28.05-2.35,2.5-2.76,5.97-.05-.46-.05-.87-.1-1.38-.05-3.16.71-5.77,1.74-5.82.46,0,.87.46,1.17,1.22,0,.05,0,0-.05,0Z"/>
        <path class="cls-7" d="m191.3,101.5c-.1,0-.2-.04-.27-.12-.2-.24-.45-.42-.79-.57-.36-.15-.66-.23-.93-.23-.35-.04-.59.03-.9.12l-.06.02c-.34.15-.59.28-.79.48-.14.14-.36.14-.49,0-.14-.14-.14-.36,0-.49.31-.31.69-.49,1.03-.63l.12-.04c.34-.1.68-.2,1.13-.14.32,0,.72.09,1.17.28.43.19.78.43,1.05.76.12.15.1.37-.04.49-.06.05-.14.08-.22.08Z"/>
        <path class="cls-7" d="m208.45,101.5c-.1,0-.2-.04-.27-.12-.2-.24-.45-.42-.79-.57-.36-.15-.66-.23-.93-.23h-.05c-.28-.04-.6.05-.93.14-.31.14-.57.27-.77.47-.14.14-.36.14-.49,0-.14-.14-.14-.36,0-.49.31-.31.69-.49,1.03-.63h.04c.38-.12.77-.24,1.19-.18.36,0,.75.1,1.18.28.43.19.78.43,1.05.76.12.15.1.37-.04.49-.06.05-.14.08-.22.08Z"/>
      </g>
    </g>
    <path class="cls-4" d="m132.27,118.24s-.07,0-.11,0c-.42-.01-.79-.14-1.03-.25-.35-.17-.61-.37-.85-.62-.25-.27-.45-.58-.56-.89-.06-.16.03-.34.19-.4.16-.06.34.03.4.19.08.22.24.47.42.67.18.19.39.34.65.48.18.08.47.18.79.19.3,0,.55-.03.8-.14.24-.09.48-.24.68-.43.19-.18.34-.39.48-.65.08-.16.27-.22.42-.14.16.08.22.27.14.42-.17.34-.36.6-.61.83-.27.25-.58.45-.89.56-.29.12-.59.18-.94.18Z"/>
    <path class="cls-4" d="m197.83,118.24s-.07,0-.11,0c-.42-.01-.79-.14-1.03-.25-.35-.17-.61-.37-.85-.62-.25-.27-.45-.58-.56-.89-.06-.16.03-.34.19-.4.16-.06.34.03.4.19.08.22.24.47.42.67.18.19.39.34.65.48.18.08.47.18.79.19.3,0,.55-.03.8-.14.24-.09.48-.24.68-.43.19-.18.34-.39.48-.65.08-.16.27-.22.42-.14.16.08.22.27.14.42-.17.34-.36.6-.61.83-.27.25-.58.45-.89.56-.29.12-.59.18-.94.18Z"/>
  </g>
  <g>
    <g>
      <path class="cls-1" d="m134.56,180.98c-2.96,0-6.38-1.17-8.32-1.68-2.3-.56-3.37-.61-5.05-.61-5.1,0-6.68,2.65-7.09,3.78,3.37-10.31,13.98-11.79,20.31-11.74h.51c6.28,0,16.94,1.48,20.26,11.84-.41-1.07-1.99-3.78-7.09-3.78-1.68,0-2.76,0-5.05.56-1.94.51-5.41,1.63-8.32,1.63h-.15Z"/>
      <path class="cls-5" d="m155.12,182.56h0c-.41-1.12-1.99-3.78-7.09-3.78-1.68,0-2.76,0-5.05.56-1.94.51-5.41,1.63-8.32,1.63h-.1c-2.96,0-6.38-1.17-8.32-1.68-2.3-.56-3.37-.61-5.05-.61-5.1,0-6.68,2.65-7.09,3.78h0c-1.07,1.02-1.79,3.73-1.74,6.94.1,4.03,1.48,7.25,3.06,7.2h.1c3.67,7.4,13.73,10.82,18.98,10.82s15.41-3.37,19.14-10.77h.1c1.58.05,2.96-3.16,3.11-7.2.05-3.16-.66-5.87-1.74-6.89Z"/>
      <path class="cls-7" d="m134.56,202.1c-2.65,0-8.32-2.5-8.32-7.91s6.28-5.82,8.37-5.82,8.37.46,8.32,5.87c0,5.41-5.72,7.86-8.37,7.86Z"/>
      <path class="cls-4" d="m134.71,189.75c1.17,0,2.86,1.22,3.06,2.6.2,1.43-3.16,1.38-3.16,1.38h-.1s-3.37.05-3.16-1.38c.2-1.43,1.94-2.6,3.06-2.6h.31Z"/>
      <g>
        <circle class="cls-4" cx="126.04" cy="185.62" r="1.02"/>
        <path class="cls-4" d="m144.15,185.67c0,.56-.46,1.02-1.02,1.02s-1.02-.46-1.02-1.02.46-1.02,1.02-1.02,1.02.46,1.02,1.02Z"/>
      </g>
      <path class="cls-4" d="m152.93,184.85c1.28.05,2.35,2.5,2.76,5.97.05-.46.1-.87.1-1.38.1-3.16-.66-5.77-1.73-5.82-.46,0-.87.46-1.17,1.17,0,.05.05.05.05.05Z"/>
      <path class="cls-4" d="m116.24,184.75c-1.28.05-2.35,2.5-2.76,5.97-.05-.46-.05-.87-.1-1.38-.05-3.16.71-5.77,1.74-5.82.46,0,.87.46,1.17,1.22,0,.05,0,0-.05,0Z"/>
      <path class="cls-7" d="m128.08,183.16c-.1,0-.2-.04-.27-.12-.2-.24-.45-.42-.79-.57-.36-.15-.66-.23-.93-.23-.35-.04-.59.03-.9.12l-.08.02c-.31.13-.56.27-.77.47-.14.14-.36.14-.49,0-.14-.14-.14-.36,0-.49.31-.31.7-.49,1.03-.63l.12-.04c.34-.1.68-.2,1.13-.14.33,0,.72.09,1.17.28.43.19.78.44,1.05.76.12.15.1.37-.04.49-.06.05-.14.08-.22.08Z"/>
      <path class="cls-7" d="m145.22,183.16c-.1,0-.2-.04-.27-.12-.2-.24-.45-.42-.79-.57-.36-.15-.66-.23-.93-.23h-.05c-.28-.04-.6.05-.93.14-.31.13-.56.27-.77.47-.14.14-.36.14-.49,0-.14-.14-.14-.36,0-.49.31-.31.7-.49,1.03-.63.42-.12.81-.23,1.23-.18.36,0,.75.1,1.18.28.43.19.78.44,1.05.76.12.15.1.37-.04.49-.06.05-.14.08-.22.08Z"/>
    </g>
    <g>
      <path class="cls-1" d="m65.07,180.98c-2.96,0-6.38-1.17-8.32-1.68-2.3-.56-3.37-.61-5.05-.61-5.1,0-6.68,2.65-7.09,3.78,3.37-10.31,13.98-11.79,20.31-11.74h.51c6.28,0,16.94,1.48,20.26,11.84-.41-1.07-1.99-3.78-7.09-3.78-1.68,0-2.76,0-5.05.56-1.94.51-5.41,1.63-8.32,1.63h-.15Z"/>
      <path class="cls-5" d="m85.63,182.56h0c-.41-1.12-1.99-3.78-7.09-3.78-1.68,0-2.76,0-5.05.56-1.94.51-5.41,1.63-8.32,1.63h-.1c-2.96,0-6.38-1.17-8.32-1.68-2.3-.56-3.37-.61-5.05-.61-5.1,0-6.68,2.65-7.09,3.78h0c-1.07,1.02-1.79,3.73-1.74,6.94.1,4.03,1.48,7.25,3.06,7.2h.1c3.67,7.4,13.73,10.82,18.98,10.82s15.41-3.37,19.14-10.77h.1c1.58.05,2.96-3.16,3.11-7.2.05-3.16-.66-5.87-1.74-6.89Z"/>
      <path class="cls-7" d="m65.07,202.1c-2.65,0-8.32-2.5-8.32-7.91s6.28-5.82,8.37-5.82,8.37.46,8.32,5.87c0,5.41-5.72,7.86-8.37,7.86Z"/>
      <path class="cls-4" d="m65.22,189.75c1.17,0,2.86,1.22,3.06,2.6.2,1.43-3.16,1.38-3.16,1.38h-.1s-3.37.05-3.16-1.38c.2-1.43,1.94-2.6,3.06-2.6h.31Z"/>
      <g>
        <circle class="cls-4" cx="56.55" cy="185.62" r="1.02"/>
        <path class="cls-4" d="m74.66,185.67c0,.56-.46,1.02-1.02,1.02s-1.02-.46-1.02-1.02.46-1.02,1.02-1.02,1.02.46,1.02,1.02Z"/>
      </g>
      <path class="cls-4" d="m83.44,184.85c1.28.05,2.35,2.5,2.76,5.97.05-.46.1-.87.1-1.38.1-3.16-.66-5.77-1.73-5.82-.46,0-.87.46-1.17,1.17,0,.05.05.05.05.05Z"/>
      <path class="cls-4" d="m46.75,184.75c-1.28.05-2.35,2.5-2.76,5.97-.05-.46-.05-.87-.1-1.38-.05-3.16.71-5.77,1.74-5.82.46,0,.87.46,1.17,1.22,0,.05,0,0-.05,0Z"/>
      <path class="cls-7" d="m58.59,183.16c-.1,0-.2-.04-.27-.12-.2-.24-.45-.42-.79-.57-.36-.15-.66-.23-.93-.23-.35-.04-.59.03-.9.12l-.08.02c-.31.13-.56.27-.77.47-.14.14-.36.14-.49,0-.14-.14-.14-.36,0-.49.31-.31.7-.49,1.03-.63l.12-.04c.34-.1.68-.2,1.13-.14.32,0,.72.09,1.17.28.43.19.78.44,1.05.76.12.15.1.37-.04.49-.06.05-.14.08-.22.08Z"/>
      <path class="cls-7" d="m75.73,183.16c-.1,0-.2-.04-.27-.12-.2-.24-.45-.42-.79-.57-.36-.15-.66-.23-.93-.23h-.05c-.28-.04-.6.05-.93.14-.31.13-.56.27-.77.47-.14.14-.36.14-.49,0-.14-.14-.14-.36,0-.49.31-.31.7-.49,1.03-.63.42-.12.81-.23,1.23-.18.36,0,.75.1,1.18.28.43.19.78.44,1.05.76.12.15.1.37-.04.49-.06.05-.14.08-.22.08Z"/>
    </g>
    <g>
      <path class="cls-1" d="m204.05,180.98c-2.96,0-6.38-1.17-8.32-1.68-2.3-.56-3.37-.61-5.05-.61-5.1,0-6.68,2.65-7.09,3.78,3.37-10.31,13.98-11.79,20.31-11.74h.51c6.28,0,16.94,1.48,20.26,11.84-.41-1.07-1.99-3.78-7.09-3.78-1.68,0-2.76,0-5.05.56-1.94.51-5.41,1.63-8.32,1.63h-.15Z"/>
      <path class="cls-5" d="m224.61,182.56h0c-.41-1.12-1.99-3.78-7.09-3.78-1.68,0-2.76,0-5.05.56-1.94.51-5.41,1.63-8.32,1.63h-.1c-2.96,0-6.38-1.17-8.32-1.68-2.3-.56-3.37-.61-5.05-.61-5.1,0-6.68,2.65-7.09,3.78h0c-1.07,1.02-1.79,3.73-1.74,6.94.1,4.03,1.48,7.25,3.06,7.2h.1c3.67,7.4,13.73,10.82,18.98,10.82s15.41-3.37,19.14-10.77h.1c1.58.05,2.96-3.16,3.11-7.2.05-3.16-.66-5.87-1.74-6.89Z"/>
      <path class="cls-7" d="m204.05,202.1c-2.65,0-8.32-2.5-8.32-7.91s6.28-5.82,8.37-5.82,8.37.46,8.32,5.87c0,5.41-5.72,7.86-8.37,7.86Z"/>
      <path class="cls-4" d="m204.2,189.75c1.17,0,2.86,1.22,3.06,2.6.2,1.43-3.16,1.38-3.16,1.38h-.1s-3.37.05-3.16-1.38c.2-1.43,1.94-2.6,3.06-2.6h.31Z"/>
      <g>
        <circle class="cls-4" cx="195.52" cy="185.62" r="1.02"/>
        <path class="cls-4" d="m213.64,185.67c0,.56-.46,1.02-1.02,1.02s-1.02-.46-1.02-1.02.46-1.02,1.02-1.02,1.02.46,1.02,1.02Z"/>
      </g>
      <path class="cls-4" d="m222.42,184.85c1.28.05,2.35,2.5,2.76,5.97.05-.46.1-.87.1-1.38.1-3.16-.66-5.77-1.73-5.82-.46,0-.87.46-1.17,1.17,0,.05.05.05.05.05Z"/>
      <path class="cls-4" d="m185.73,184.75c-1.28.05-2.35,2.5-2.76,5.97-.05-.46-.05-.87-.1-1.38-.05-3.16.71-5.77,1.74-5.82.46,0,.87.46,1.17,1.22,0,.05,0,0-.05,0Z"/>
      <path class="cls-7" d="m197.57,183.16c-.1,0-.2-.04-.27-.12-.2-.24-.45-.42-.79-.57-.36-.15-.66-.23-.93-.23-.35-.04-.59.03-.9.12l-.08.02c-.31.13-.56.27-.77.47-.14.14-.36.14-.49,0-.14-.14-.14-.36,0-.49.31-.31.7-.49,1.03-.63l.12-.04c.34-.1.68-.2,1.13-.14.33,0,.72.09,1.17.28.43.19.78.44,1.05.76.12.15.1.37-.04.49-.06.05-.14.08-.22.08Z"/>
      <path class="cls-7" d="m214.71,183.16c-.1,0-.2-.04-.27-.12-.2-.24-.45-.42-.79-.57-.36-.15-.66-.23-.93-.23h-.05c-.29-.04-.6.05-.93.14-.31.13-.56.27-.77.47-.14.14-.36.14-.49,0-.14-.14-.14-.36,0-.49.31-.31.7-.49,1.03-.63.42-.12.81-.23,1.23-.18.36,0,.75.1,1.18.28.43.19.78.44,1.05.76.12.15.1.37-.04.49-.06.05-.14.08-.22.08Z"/>
    </g>
    <g>
      <path class="cls-1" d="m273.54,180.98c-2.96,0-6.38-1.17-8.32-1.68-2.3-.56-3.37-.61-5.05-.61-5.1,0-6.68,2.65-7.09,3.78,3.37-10.31,13.98-11.79,20.31-11.74h.51c6.28,0,16.94,1.48,20.26,11.84-.41-1.07-1.99-3.78-7.09-3.78-1.68,0-2.76,0-5.05.56-1.94.51-5.41,1.63-8.32,1.63h-.15Z"/>
      <path class="cls-5" d="m294.1,182.56h0c-.41-1.12-1.99-3.78-7.09-3.78-1.68,0-2.76,0-5.05.56-1.94.51-5.41,1.63-8.32,1.63h-.1c-2.96,0-6.38-1.17-8.32-1.68-2.3-.56-3.37-.61-5.05-.61-5.1,0-6.68,2.65-7.09,3.78h0c-1.07,1.02-1.79,3.73-1.74,6.94.1,4.03,1.48,7.25,3.06,7.2h.1c3.67,7.4,13.73,10.82,18.98,10.82s15.41-3.37,19.14-10.77h.1c1.58.05,2.96-3.16,3.11-7.2.05-3.16-.66-5.87-1.74-6.89Z"/>
      <path class="cls-7" d="m273.54,202.1c-2.65,0-8.32-2.5-8.32-7.91s6.28-5.82,8.37-5.82,8.37.46,8.32,5.87c0,5.41-5.72,7.86-8.37,7.86Z"/>
      <path class="cls-4" d="m273.69,189.75c1.17,0,2.86,1.22,3.06,2.6.2,1.43-3.16,1.38-3.16,1.38h-.1s-3.37.05-3.16-1.38c.2-1.43,1.94-2.6,3.06-2.6h.31Z"/>
      <g>
        <circle class="cls-4" cx="265.01" cy="185.62" r="1.02"/>
        <path class="cls-4" d="m283.13,185.67c0,.56-.46,1.02-1.02,1.02s-1.02-.46-1.02-1.02.46-1.02,1.02-1.02,1.02.46,1.02,1.02Z"/>
      </g>
      <path class="cls-4" d="m291.91,184.85c1.28.05,2.35,2.5,2.76,5.97.05-.46.1-.87.1-1.38.1-3.16-.66-5.77-1.73-5.82-.46,0-.87.46-1.17,1.17,0,.05.05.05.05.05Z"/>
      <path class="cls-4" d="m255.22,184.75c-1.28.05-2.35,2.5-2.76,5.97-.05-.46-.05-.87-.1-1.38-.05-3.16.71-5.77,1.74-5.82.46,0,.87.46,1.17,1.22,0,.05,0,0-.05,0Z"/>
      <path class="cls-7" d="m267.05,183.16c-.1,0-.2-.04-.27-.12-.2-.24-.45-.42-.79-.57-.36-.15-.66-.23-.93-.23-.35-.04-.59.03-.9.12l-.08.02c-.31.13-.56.27-.77.47-.14.14-.36.14-.49,0-.14-.14-.14-.36,0-.49.31-.31.7-.49,1.03-.63l.12-.04c.34-.1.68-.2,1.13-.14.33,0,.72.09,1.17.28.43.19.78.44,1.05.76.12.15.1.37-.04.49-.06.05-.14.08-.22.08Z"/>
      <path class="cls-7" d="m284.2,183.16c-.1,0-.2-.04-.27-.12-.2-.24-.45-.42-.79-.57-.36-.15-.66-.23-.93-.23h-.05c-.28-.04-.6.05-.93.14-.31.13-.56.27-.77.47-.14.14-.36.14-.49,0-.14-.14-.14-.36,0-.49.31-.31.7-.49,1.03-.63.42-.12.81-.23,1.23-.18.36,0,.75.1,1.18.28.43.19.78.44,1.05.76.12.15.1.37-.04.49-.06.05-.14.08-.22.08Z"/>
    </g>
    <path class="cls-4" d="m61.69,199.86s-.07,0-.11-.02c-.16-.06-.25-.24-.19-.4.24-.64.53-1.15.93-1.61.43-.5.95-.91,1.48-1.16.55-.3,1.14-.47,1.84-.52.75-.05,1.45.11,1.9.25.65.24,1.16.54,1.63.94.5.43.91.95,1.16,1.48.08.16.01.34-.15.42-.16.08-.34.01-.42-.15-.21-.44-.58-.91-1.01-1.28-.4-.35-.86-.61-1.42-.82-.38-.12-1-.26-1.65-.22-.61.04-1.12.19-1.6.45-.45.22-.92.59-1.29,1.01-.35.4-.61.86-.82,1.42-.05.13-.17.21-.29.21Z"/>
    <path class="cls-4" d="m131.19,199.86s-.07,0-.11-.02c-.16-.06-.25-.24-.19-.4.24-.64.53-1.15.93-1.61.43-.5.95-.91,1.48-1.16.55-.3,1.14-.47,1.84-.52.75-.05,1.45.11,1.9.25.65.24,1.16.54,1.63.94.5.43.91.95,1.16,1.48.08.16.01.34-.15.42-.16.08-.34.01-.42-.15-.21-.44-.58-.91-1.01-1.28-.4-.35-.86-.61-1.42-.82-.38-.12-1-.26-1.65-.22-.61.04-1.12.19-1.6.45-.45.22-.92.59-1.29,1.01-.35.4-.61.86-.82,1.42-.05.13-.17.21-.29.21Z"/>
    <path class="cls-4" d="m199.94,199.86s-.07,0-.11-.02c-.16-.06-.25-.24-.19-.4.24-.64.53-1.15.93-1.61.43-.5.95-.91,1.48-1.16.55-.3,1.14-.47,1.84-.52.75-.05,1.45.11,1.9.25.65.24,1.16.54,1.63.94.5.43.91.95,1.16,1.48.08.16.01.34-.15.42-.16.08-.34.01-.42-.15-.21-.44-.58-.91-1.01-1.28-.4-.35-.86-.61-1.42-.82-.38-.12-1-.27-1.65-.22-.61.04-1.12.19-1.6.45-.45.22-.92.59-1.29,1.01-.35.4-.61.86-.82,1.42-.05.13-.17.21-.29.21Z"/>
    <path class="cls-4" d="m270.31,199.86s-.07,0-.11-.02c-.16-.06-.25-.24-.19-.4.24-.64.53-1.15.93-1.61.43-.5.95-.91,1.48-1.16.55-.3,1.14-.47,1.84-.52.75-.05,1.45.11,1.9.25.65.24,1.16.54,1.63.94.5.43.91.95,1.16,1.48.08.16.01.34-.15.42-.16.08-.34.01-.42-.15-.21-.44-.58-.91-1.01-1.28-.4-.35-.86-.61-1.42-.82-.38-.12-1-.26-1.65-.22-.61.04-1.12.19-1.6.45-.45.22-.92.59-1.29,1.01-.35.4-.61.86-.82,1.42-.05.13-.17.21-.29.21Z"/>
  </g>
  <g>
    <path class="cls-6" d="m30.64,161.54c0,1.07-4.18,1.95-9.34,1.95s-9.34-.87-9.34-1.95v-1.95h18.69v1.95Z"/>
    <ellipse class="cls-8" cx="21.29" cy="159.6" rx="9.34" ry="1.95"/>
  </g>
  <g>
    <g class="cls-3">
      <path class="cls-4" d="m27.77,124.4c0,1.12-4.21,2.03-9.41,2.03s-9.4-.91-9.4-2.03,4.21-2.03,9.4-2.03c5.19,0,9.41.91,9.41,2.03Z"/>
    </g>
    <g>
      <path class="cls-6" d="m27.96,123.64c0,1.05-4.1,1.91-9.17,1.91s-9.17-.85-9.17-1.91v-1.91h18.33v1.91Z"/>
      <ellipse class="cls-8" cx="18.79" cy="121.73" rx="9.17" ry="1.91"/>
    </g>
  </g>
  <g>
    <path class="cls-6" d="m30.49,120.79c0,1.07-4.18,1.95-9.34,1.95s-9.34-.87-9.34-1.95v-1.95h18.69v1.95Z"/>
    <ellipse class="cls-8" cx="21.15" cy="118.85" rx="9.34" ry="1.95"/>
  </g>
  <g>
    <path class="cls-6" d="m28.13,118.2c0,1.07-4.18,1.95-9.34,1.95s-9.34-.87-9.34-1.95v-1.95h18.69v1.95Z"/>
    <ellipse class="cls-8" cx="18.79" cy="116.26" rx="9.34" ry="1.95"/>
  </g>
  <g>
    <path class="cls-6" d="m30.49,115.28c0,1.07-4.18,1.95-9.34,1.95s-9.34-.87-9.34-1.95v-1.95h18.69v1.95Z"/>
    <ellipse class="cls-8" cx="21.15" cy="113.34" rx="9.34" ry="1.95"/>
  </g>
  <g>
    <g class="cls-3">
      <path class="cls-4" d="m39.42,78.71c0,1.12-4.21,2.03-9.41,2.03s-9.4-.91-9.4-2.03,4.21-2.03,9.4-2.03c5.19,0,9.41.91,9.41,2.03Z"/>
    </g>
    <g>
      <path class="cls-6" d="m39.61,77.95c0,1.05-4.1,1.91-9.17,1.91s-9.17-.85-9.17-1.91v-1.91h18.33v1.91Z"/>
      <ellipse class="cls-8" cx="30.44" cy="76.04" rx="9.17" ry="1.91"/>
    </g>
  </g>
  <g>
    <path class="cls-6" d="m37.62,75.95c0,1.07-4.18,1.95-9.34,1.95s-9.34-.87-9.34-1.95v-1.95h18.69v1.95Z"/>
    <ellipse class="cls-8" cx="28.28" cy="74" rx="9.34" ry="1.95"/>
  </g>
  <g>
    <path class="cls-6" d="m37.9,73.03c0,1.07-4.18,1.95-9.34,1.95s-9.34-.87-9.34-1.95v-1.95h18.69v1.95Z"/>
    <ellipse class="cls-8" cx="28.56" cy="71.08" rx="9.34" ry="1.95"/>
  </g>
  <g>
    <path class="cls-6" d="m38.41,70.11c0,1.07-4.18,1.95-9.34,1.95s-9.34-.87-9.34-1.95v-1.95h18.69v1.95Z"/>
    <ellipse class="cls-8" cx="29.07" cy="68.16" rx="9.34" ry="1.95"/>
  </g>
  <g>
    <path class="cls-6" d="m39.45,66.9c0,1.07-4.18,1.95-9.34,1.95s-9.34-.87-9.34-1.95v-1.95h18.69v1.95Z"/>
    <ellipse class="cls-8" cx="30.11" cy="64.95" rx="9.34" ry="1.95"/>
  </g>
  <g>
    <g class="cls-3">
      <path class="cls-4" d="m28.19,81.75c0,1.12-4.21,2.03-9.41,2.03s-9.4-.91-9.4-2.03,4.21-2.03,9.4-2.03c5.19,0,9.41.91,9.41,2.03Z"/>
    </g>
    <g>
      <path class="cls-6" d="m28.38,80.99c0,1.05-4.1,1.91-9.17,1.91s-9.17-.85-9.17-1.91v-1.91h18.33v1.91Z"/>
      <ellipse class="cls-8" cx="19.21" cy="79.08" rx="9.17" ry="1.91"/>
    </g>
  </g>
  <g>
    <path class="cls-6" d="m28.13,78.28c0,1.07-4.18,1.95-9.34,1.95s-9.34-.87-9.34-1.95v-1.95h18.69v1.95Z"/>
    <ellipse class="cls-8" cx="18.79" cy="76.33" rx="9.34" ry="1.95"/>
  </g>
  <g>
    <path class="cls-6" d="m28.56,75.36c0,1.07-4.18,1.95-9.34,1.95s-9.34-.87-9.34-1.95v-1.95h18.69v1.95Z"/>
    <ellipse class="cls-8" cx="19.21" cy="73.41" rx="9.34" ry="1.95"/>
  </g>
  <g>
    <path class="cls-6" d="m29.21,72.72c0,1.07-4.18,1.95-9.34,1.95s-9.34-.87-9.34-1.95v-1.95h18.69v1.95Z"/>
    <ellipse class="cls-8" cx="19.87" cy="70.77" rx="9.34" ry="1.95"/>
  </g>
  <path class="cls-2" d="m149.22,82.27H29.22c-.14,0-.25-.11-.25-.25s.11-.25.25-.25h120c.14,0,.25.11.25.25s-.11.25-.25.25Z"/>
  <path class="cls-2" d="m118.35,124.02H29.22c-.14,0-.25-.11-.25-.25s.11-.25.25-.25h89.13c.14,0,.25.11.25.25s-.11.25-.25.25Z"/>
  <path class="cls-2" d="m85.84,165.78H29.22c-.14,0-.25-.11-.25-.25s.11-.25.25-.25h56.62c.14,0,.25.11.25.25s-.11.25-.25.25Z"/>
  <path class="cls-2" d="m55.53,207.53h-26.31c-.14,0-.25-.11-.25-.25s.11-.25.25-.25h26.31c.14,0,.25.11.25.25s-.11.25-.25.25Z"/>
</svg>