<?xml version="1.0" encoding="UTF-8"?>
<svg id="Layer_1" data-name="Layer 1" xmlns="http://www.w3.org/2000/svg" width="300" height="225" viewBox="0 0 300 225">
  <defs>
    <style>
      .cls-1 {
        fill: #fff;
      }

      .cls-2 {
        fill: #23140a;
      }

      .cls-3 {
        isolation: isolate;
        opacity: .35;
      }

      .cls-4 {
        fill: #232323;
      }

      .cls-5 {
        fill: #ff7e1c;
      }

      .cls-6 {
        fill: #444;
      }

      .cls-7 {
        fill: #fff5ee;
      }

      .cls-8 {
        fill: #ea651b;
      }

      .cls-9 {
        fill: #d3ac83;
      }

      .cls-10 {
        fill: #1c191a;
      }

      .cls-11 {
        fill: #7f7f7f;
      }

      .cls-12 {
        fill: #1e1e1e;
      }
    </style>
  </defs>
  <g>
    <g class="cls-3">
      <path class="cls-4" d="m149.81,203.99c25.66-6.3,74.26,3.37,74.26,8.99s-54.3,13.56-93.54,7.33-106.06-1.72-106.06-7.33,99.67-2.69,125.34-8.99Z"/>
    </g>
    <g>
      <path class="cls-12" d="m222.75,154.68c6.47-6.81,12.01-14.38,17.57-21.93,4.88-6.63,9.9-13.12,16.34-18.36.3-.24.41-.81.47-1.25.21-1.61,1.49-2.75,3.06-2.65,1.63.1,2.81,1.47,2.69,3.11-.11,1.55-1.45,2.66-3.06,2.67-.5,0-1.13.16-1.46.49-2.47,2.48-5.08,4.86-7.28,7.57-4.27,5.26-7.62,11.15-10.93,17.04-.07.12-.06.27-.14.62.43-.47.71-.77.98-1.07,5.15-5.71,10.3-11.43,16.07-16.54.6-.53,1.1-1.18,1.55-1.85.86-1.28,2.5-1.76,3.84-1.03,1.37.74,1.91,2.49,1.21,3.87-.69,1.35-2.31,1.93-3.74,1.31-.27-.12-.52-.27-.83-.43-4.85,4.05-8.8,8.87-12.6,14.29.57-.24.83-.35,1.09-.46,1.75-.74,3.42-.57,4.81.71,4.32,3.98,8.43,8.17,11.66,13.1,2.4,3.67,1.81,6.54-1.79,9.05-2.08,1.45-4.28,2.72-6.51,3.94-4.56,2.49-8.72,5.48-12.32,9.23-5.67,5.89-11.23,11.9-16.98,17.7-4.67,4.72-9.48,9.31-14.4,13.77-4.5,4.08-9.9,5.77-16.03,5.75-31.18-.08-62.37-.02-93.55,0-.28,0-.56-.02-.95-.04,6.65-8.24,15.56-13.14,24.73-17.77-1.24-1.49-2.42-2.84-3.51-4.24-5.81-7.52-9.49-15.9-9.76-25.5-.33-11.79,3.77-22.04,11.51-30.82,8.28-9.39,19.04-13.9,31.3-14.73,12.49-.84,24.02,2.17,34.01,10.03,8.31,6.53,14.67,14.62,19.03,24.26.44.97.84,1.68,2.1,1.3.47-.14,1.04,0,1.55.07,2.21.29,3.67,1.71,5.19,3.66,1.76-1.68,3.49-3.2,5.07-4.87Zm-69.83,11.81c-3.41-4.7-1.04-11.7,4.64-13.66,8.09-2.79,15.92,2.56,16.31,11.09.27,6.02-2.68,10.24-7.43,13.43-6.33,4.26-15.93,4.01-22.07-.51-7.16-5.27-9.33-15.37-5.02-23.54,3.53-6.69,9.37-10.14,16.58-11.53,11.79-2.27,23.6,2.9,29.73,12.94,2.25,3.68,3.28,7.74,3.67,11.99.08.85.16,1.7.26,2.77,1.4-.61,2.72-1.11,3.96-1.74,2.68-1.37,5.02-3.2,7.14-5.34,1.85-1.88,3.8-3.66,5.73-5.5-4.09-9-10.2-16.54-18.18-22.6-8.9-6.76-18.99-9.98-30.08-9.86-12.75.14-23.07,5.51-31.35,15.12-4.75,5.51-8.21,11.61-9.14,18.86-1.61,12.52,2.08,23.41,10.44,32.83,4.77,5.37,10.72,8.41,17.74,9.33,10.2,1.34,19.35-1.35,27.59-7.46,11.42-8.47,13.66-22.55,11.41-32.27-.81-3.5-2.68-6.46-5.1-9.08-6.84-7.45-18.83-9.97-27.9-5.86-7.61,3.44-11.56,10.4-10.5,18.44.99,7.44,7.53,12.64,15.07,11.96,3.26-.29,6.3-1.23,9-3.11,4.64-3.24,6.24-8.78,3.96-13.61-2.15-4.57-7.8-6.34-12.18-3.8-3.34,1.93-4.41,7.3-2.02,10.33,1.27,1.61,3.01,2.12,5,1.91.32-.03.63-.09,1.05-.15-2.33,1.98-6.37,1.27-8.29-1.37Zm-40.18,42.9c24.83.02,49.66.08,74.49.04,3.91,0,7.84-.23,11.72-.7,5.31-.65,9.56-3.61,13.57-6.94,6.88-5.72,12.96-12.26,19.06-18.77,2.5-2.67,5.03-5.31,7.51-8.01,4.27-4.64,9.28-8.29,14.86-11.2,2.05-1.07,4.03-2.28,5.96-3.56,2.12-1.4,2.37-2.72,1.16-4.96-.34-.62-.68-1.27-1.15-1.78-2.74-3-5.49-5.99-8.3-8.93-1.37-1.43-3.04-1.69-4.94-1.04-5.46,1.86-10.46,4.61-15.03,8.07-3.83,2.91-7.44,6.11-11.14,9.18-.6.5-1.22.99-1.84,1.46-1.07.82-2.12,1.32-3.64,1.17-2.99-.28-5.43,1.27-7.74,3.01-2.11,1.6-4.27,3.14-6.41,4.7-3.2,2.33-6.77,3.78-10.68,4.33-.99.14-1.51.55-1.87,1.53-1.52,4.18-3.21,8.29-5.96,11.86-5.95,7.71-13.88,12.21-23.33,14.11-6.94,1.4-13.91,1.49-20.71-.66-2.83-.89-5.47-2.34-8.22-3.5-.39-.16-.97-.25-1.32-.09-6.07,2.83-11.81,6.22-17.24,10.6.55.03.87.06,1.2.06Zm86.27-40.51c2.29-1.47,4.5-3.07,6.63-4.76,2.63-2.09,5.37-3.79,8.89-3.71-.47-1.47-1.85-2.41-3.51-2.07-1.43.29-2.88.82-4.13,1.55-1.37.8-2.6,1.88-3.77,2.97-3.74,3.5-8.07,6-12.83,7.8-.85.32-1.07.77-.9,1.66,3.45-.55,6.71-1.57,9.63-3.44Z"/>
      <path class="cls-5" d="m161.21,167.86c-2.33,1.98-6.37,1.27-8.29-1.37-3.41-4.7-1.04-11.7,4.64-13.66,8.09-2.79,15.92,2.56,16.31,11.09.27,6.02-2.68,10.24-7.43,13.43-6.33,4.26-15.93,4.01-22.07-.51-7.16-5.27-9.33-15.37-5.02-23.54,3.53-6.69,9.37-10.14,16.58-11.53,11.79-2.27,23.6,2.9,29.73,12.94,2.25,3.68,3.28,7.74,3.67,11.99.08.85.16,1.7.26,2.77,1.4-.61,2.72-1.11,3.96-1.74,2.68-1.37,5.02-3.2,7.14-5.34,1.85-1.88,3.8-3.66,5.73-5.5-4.09-9-10.2-16.54-18.18-22.6-8.9-6.76-18.99-9.98-30.08-9.86-12.75.14-23.07,5.51-31.35,15.12-4.75,5.51-8.21,11.61-9.14,18.86-1.61,12.52,2.08,23.41,10.44,32.83,4.77,5.37,10.72,8.41,17.74,9.33,10.2,1.34,19.35-1.35,27.59-7.46,11.42-8.47,13.66-22.55,11.41-32.27-.81-3.5-2.68-6.46-5.1-9.08-6.84-7.45-18.83-9.97-27.9-5.86-7.61,3.44-11.56,10.4-10.5,18.44.99,7.44,7.53,12.64,15.07,11.96,3.26-.29,6.3-1.23,9-3.11,4.64-3.24,6.24-8.78,3.96-13.61-2.15-4.57-7.8-6.34-12.18-3.8-3.34,1.93-4.41,7.3-2.02,10.33,1.27,1.61,3.01,2.12,5,1.91.32-.03.63-.09,1.05-.15Z"/>
      <path class="cls-7" d="m111.54,209.34c.55.03.87.06,1.2.06,24.83.02,49.66.08,74.49.04,3.91,0,7.84-.23,11.72-.7,5.31-.65,9.56-3.61,13.57-6.94,6.88-5.72,12.96-12.26,19.06-18.77,2.5-2.67,5.03-5.31,7.51-8.01,4.27-4.64,9.28-8.29,14.86-11.2,2.05-1.07,4.03-2.28,5.96-3.56,2.12-1.4,2.37-2.72,1.16-4.96-.34-.62-.68-1.27-1.15-1.78-2.74-3-5.49-5.99-8.3-8.93-1.37-1.43-3.04-1.69-4.94-1.04-5.46,1.86-10.46,4.61-15.03,8.07-3.83,2.91-7.44,6.11-11.14,9.18-.6.5-1.22.99-1.84,1.46-1.07.82-2.12,1.32-3.64,1.17-2.99-.28-5.43,1.27-7.74,3.01-2.11,1.6-4.27,3.14-6.41,4.7-3.2,2.33-6.77,3.78-10.68,4.33-.99.14-1.51.55-1.87,1.53-1.52,4.18-3.21,8.29-5.96,11.86-5.95,7.71-13.88,12.21-23.33,14.11-6.94,1.4-13.91,1.49-20.71-.66-2.83-.89-5.47-2.34-8.22-3.5-.39-.16-.97-.25-1.32-.09-6.07,2.83-11.81,6.22-17.24,10.6Z"/>
      <path class="cls-8" d="m189.38,172.33c3.45-.55,6.71-1.57,9.63-3.44,2.29-1.47,4.5-3.07,6.63-4.76,2.63-2.09,5.37-3.79,8.89-3.71-.47-1.47-1.85-2.41-3.51-2.07-1.43.29-2.88.82-4.13,1.55-1.37.8-2.6,1.88-3.77,2.97-3.74,3.5-8.07,6-12.83,7.8-.85.32-1.07.77-.9,1.66Z"/>
    </g>
    <g>
      <path class="cls-4" d="m146.17,77.53c-2.32-.42-4.62.83-5.12,3.36-.5,2.52,1.72,5.7,4.96,6.3,9.2,1.72,18.08-1.16,24.52-7.95,2.26-2.38,2.2-6.27.32-8.01-1.89-1.76-4.49-1.42-6.12.28-4.87,5.14-11.59,7.32-18.55,6.01Z"/>
      <path class="cls-4" d="m176.15,69.34c.64-.24,1.15-.75,1.09-1.25-.06-.5-.83-.88-1.68-.72-2.31.44-4.46,1.62-6.12,3.4-.61.67-.35,1.63.46,2.06.82.43,1.68.33,2.02-.18.97-1.47,2.43-2.66,4.23-3.31Z"/>
      <path class="cls-4" d="m172.95,67.33c.57-.37.96-.99.78-1.46-.17-.48-1-.67-1.8-.32-2.15.94-3.99,2.57-5.2,4.68-.45.79.02,1.67.91,1.9.9.23,1.72-.05,1.93-.63.62-1.65,1.78-3.13,3.38-4.17Z"/>
      <path class="cls-4" d="m177.19,73.63c.68.01,1.34-.28,1.46-.77.12-.49-.45-1.12-1.31-1.28-2.31-.43-4.74-.12-6.93.95-.81.4-.92,1.39-.31,2.08.61.7,1.44.93,1.95.57,1.44-1.02,3.23-1.59,5.14-1.55Z"/>
      <path class="cls-4" d="m112.53,120.41c.28,1.03,8.13,30.27,13.81,33.7,5.68,3.43,8.13,1.63,9,.37.91-1.32,1.96-3.61-.9-5.59-2.31-1.59-4.96-9.77-4.85-23.14l-17.05-5.34Z"/>
      <path class="cls-1" d="m118.42,72.38c6.14-2.86,13.74-4.1,27.59-3.67-3.2-1.62-7.51-2.58-13.89-3.02h0c-10.92-.76-16.1.75-20.2,4.81-4.84,4.8-8.13,19.25-9.38,30.59,1.47-10.63,6.79-24.44,15.89-28.7Z"/>
      <path class="cls-6" d="m102.53,101.07c-.22,1.56-.34,3.05-.4,4.43.1-1.4.23-2.89.4-4.43Z"/>
      <path class="cls-6" d="m91.7,118.73c-1.64,1-3.68,1.24-4.67.22-.99-1.01-.51-3.38,1.35-4.98,5.02-4.35,11.4-7.07,18.25-7.6,2.55-.19,4.24,2.07,3.75,4.63-.49,2.57-2.2,4.31-3.93,4.17-4.96-.43-10.16.73-14.75,3.56Z"/>
      <path class="cls-1" d="m116.04,50.88c-1.08-9.83,6.15-15.03,23.12-14.86,5.39.05,10.79-5.9,14.74-6.78,11.38-2.54,13.52,4.91,13.52,4.91h.02c-4.61-12.94-19.77-21.38-36.6-19.47-19.1,2.17-33.12,16.87-31.31,32.81,1.81,15.95,18.77,27.12,37.87,24.95,1.66-.19,3.29-.48,4.87-.85v-.02c-16.69,3.08-24.82-7.64-26.24-20.69Z"/>
      <path class="cls-6" d="m168.92,39.6c-.21-1.9-.65-3.73-1.27-5.47h-.02s-2.14-7.45-13.52-4.92c-3.96.88-9.35,6.84-14.74,6.78-16.98-.17-24.2,5.03-23.12,14.86,1.43,13.05,9.55,23.77,26.24,20.68v.02c16.55-3.9,28.09-17.4,26.44-31.96Z"/>
      <path class="cls-11" d="m149.26,65.65c-3.65.56-11.16-1.79-10.65-9.55.51-7.76,9.1-9.68,11.97-10.12,2.88-.44,11.39-1.14,10.88,6.62-.51,7.76-8.55,12.49-12.2,13.05Z"/>
      <path class="cls-4" d="m150.62,47.99c1.58-.24,3.82,1.13,3.96,3.1.14,1.98-4.44,2.61-4.44,2.61l-.13.02s-4.59.78-4.18-1.29c.41-2.06,2.87-4.15,4.45-4.39l.34-.05Z"/>
      <path class="cls-4" d="m148.67,62c-.53,0-1.04-.07-1.53-.22-.76-.23-1.43-.62-1.98-1.15-.55-.53-.97-1.18-1.25-1.95-.06-.17.03-.37.2-.43.17-.06.37.03.43.2.24.67.61,1.24,1.09,1.69.48.45,1.05.79,1.71.99.68.2,1.41.24,2.18.12.78-.12,1.55-.4,2.28-.82.72-.42,1.37-.95,1.94-1.59.57-.64,1.04-1.36,1.38-2.13.07-.17.27-.25.44-.17.17.07.25.27.17.44-.37.84-.87,1.61-1.49,2.31-.62.69-1.32,1.27-2.1,1.72-.81.47-1.66.77-2.52.91-.32.05-.63.07-.94.07Z"/>
      <circle class="cls-4" cx="135.43" cy="45.64" r="1.43"/>
      <circle class="cls-4" cx="157.77" cy="39.5" r="1.43"/>
      <path class="cls-11" d="m131.58,44.59s-.07,0-.11-.02c-.2-.06-.31-.27-.25-.46.16-.52.42-1.01.77-1.43.34-.42.76-.77,1.25-1.04.5-.27,1.04-.44,1.61-.5.57-.06,1.13,0,1.67.16.2.06.31.27.25.46-.06.2-.27.3-.46.25-.45-.14-.91-.18-1.38-.13-.47.05-.91.19-1.32.41-.4.22-.75.51-1.03.86-.29.35-.5.75-.63,1.18-.05.16-.2.26-.35.26Z"/>
      <path class="cls-11" d="m160.84,36.25c-.1,0-.2-.04-.27-.12-.32-.34-.7-.61-1.13-.8-.44-.19-.89-.29-1.35-.3-.45-.02-.9.07-1.32.24-.42.16-.81.41-1.14.71-.15.14-.38.13-.52-.02-.14-.15-.13-.38.02-.52.4-.37.86-.66,1.37-.86.51-.2,1.06-.3,1.6-.29.56,0,1.11.13,1.64.36.52.23.98.56,1.38.97.14.15.13.38-.02.52-.07.07-.16.1-.25.1Z"/>
      <path class="cls-6" d="m151.46,73.25c-1.27-1.68-2.75-3.03-4.63-4.12-.26-.15-.54-.29-.82-.43-2.23-.07-4.28-.09-6.21-.07-4.71-.16-8.44.11-11.49.83-3.92.62-7.06,1.59-9.89,2.92-9.1,4.25-14.42,18.07-15.89,28.69-.17,1.54-.3,3.04-.4,4.43-.24,3.61-.22,6.63.09,8.47.33,1.99,2.09,3.8,4.94,5.33,4.55,2.43,11.91,4.15,20.87,4.78h0c.84.06,1.66.1,2.48.14.25.01.5.02.75.03.57.02,1.12.04,1.67.04.28,0,.55,0,.81.01.53,0,1.06,0,1.58,0,.24,0,.49,0,.73-.01.63-.01,1.25-.03,1.86-.06.1,0,.22,0,.32-.01.72-.04,1.41-.09,2.1-.15.17-.02.32-.03.49-.05.51-.05,1.01-.1,1.5-.17.2-.03.41-.05.61-.08.44-.06.87-.13,1.29-.2.19-.03.38-.07.57-.1.45-.09.9-.18,1.33-.28.1-.02.21-.04.31-.06h-.01c2.95-.69,5.27-1.68,6.77-2.93.02-.01.03-.03.04-.04.28-.24.54-.49.77-.74.09-.1.15-.21.22-.31.14-.18.28-.35.38-.53.17-.29.3-.59.4-.91,2.37-7.53,2.6-36.34-3.55-44.41Z"/>
      <ellipse class="cls-6" cx="128.95" cy="112.42" rx="21.18" ry="26.88" transform="translate(7.81 233.22) rotate(-86)"/>
      <path class="cls-4" d="m137.61,151.19c.66.09,1.35-.12,1.52-.59.17-.46-.31-1.15-1.13-1.4-2.21-.68-4.63-.65-6.89.14-.84.3-1.06,1.26-.55,2,.52.75,1.31,1.07,1.84.78,1.52-.84,3.34-1.2,5.2-.94Z"/>
      <path class="cls-4" d="m137.17,155.04c.61.27,1.32.26,1.62-.14s.02-1.19-.7-1.66c-1.93-1.27-4.26-1.91-6.66-1.78-.89.05-1.37.91-1.08,1.77.29.87.96,1.39,1.55,1.26,1.69-.38,3.54-.22,5.26.54Z"/>
      <path class="cls-4" d="m134.84,158.24c.42.52,1.07.83,1.51.61.44-.22.56-1.05.13-1.79-1.14-2.01-2.93-3.64-5.12-4.61-.82-.36-1.63.18-1.77,1.08-.14.9.22,1.68.81,1.82,1.68.43,3.25,1.41,4.44,2.88Z"/>
    </g>
    <path class="cls-2" d="m238.8,182.55c-.07,0-.16,0-.25-.03-2.69-.59-17-13.88-19.05-25.06-1.1-6.01-.49-6.75.16-6.97,1.15-.39,2.75,2.24,3.9,4.51l-.89.45c-.97-1.92-2.16-3.69-2.67-3.97-.12.29-.31,1.44.49,5.8,1.92,10.53,14.9,22.51,17.84,24.09-.06-.12-.15-.27-.26-.44l.85-.53c.6.95.73,1.49.47,1.86-.08.12-.26.29-.59.29Z"/>
    <path class="cls-2" d="m219.97,153.2c-.42,0-.91-.06-1.46-.17-14.76-3.07-71.38-43.38-74.96-55.56-2.67-9.07.57-10.56,8.39-14.14,4.37-2,10.35-4.74,17.84-9.88,5.43-3.72,12.04-1.36,19.65,7.01,18.32,20.15,35.91,67.75,32.29,72.09-.36.43-.94.64-1.75.64Zm-44.88-80.44c-1.69,0-3.27.5-4.75,1.52-7.56,5.19-13.59,7.95-17.99,9.96-7.89,3.62-10.27,4.71-7.85,12.95,3.44,11.7,60.3,51.97,74.21,54.86,1.15.24,1.96.19,2.23-.13,3.27-3.92-14.42-51.16-32.26-70.78-5.07-5.58-9.63-8.38-13.6-8.38Z"/>
    <g>
      <path class="cls-4" d="m121.13,78.52c-1.38-1.91-3.9-2.61-6.02-1.14-2.11,1.46-2.72,5.29-.81,7.97,5.42,7.63,13.81,11.74,23.15,11.32,3.28-.14,5.94-2.97,5.79-5.53-.14-2.58-2.24-4.14-4.6-4.05-7.07.31-13.42-2.79-17.52-8.56Z"/>
      <path class="cls-4" d="m145.72,89.52c.64-.07,1.22-.43,1.27-.9.05-.47-.56-.99-1.37-1.03-2.2-.11-4.42.48-6.33,1.74-.7.47-.69,1.41-.03,1.98.65.57,1.46.68,1.88.29,1.21-1.13,2.81-1.89,4.58-2.08Z"/>
      <path class="cls-4" d="m146.2,93.17c.63.1,1.29-.07,1.46-.51.18-.44-.26-1.1-1.03-1.37-2.08-.72-4.38-.77-6.56-.08-.81.26-1.05,1.16-.58,1.89.47.73,1.21,1.06,1.73.8,1.47-.74,3.21-1.03,4.98-.73Z"/>
      <path class="cls-4" d="m144.81,96.67c.51.38,1.18.52,1.54.21.36-.31.27-1.1-.3-1.69-1.52-1.59-3.55-2.68-5.8-3.06-.84-.14-1.46.56-1.38,1.42.08.86.6,1.49,1.17,1.49,1.65,0,3.34.55,4.77,1.62Z"/>
    </g>
    <g>
      <path class="cls-10" d="m143.71,10.32c.31.66.82,1.2,1.11,1.88.49,1.16.77,2.34.9,3.62.2,1.94-.14,3.79-.55,5.64-.27,1.22-.83,2.33-1.59,3.36-.42.57-.84,1.15-1.25,1.73-.2.27-.47.43-.67.68-.1.13-.33.17-.3.4l-1.29,1.15c-.16-.09-.21.08-.31.14-.59.39-1.16.8-1.75,1.17-.94.59-2.01.92-3.01,1.39-1.04.49-2.08.96-3.14,1.39-1.77.72-3.53,1.47-5.32,2.13-.78.29-1.57.68-2.35.95-1.25.43-2.44,1-3.69,1.42-1.07.36-2.13.85-3.21,1.24-2.84,1.03-5.69,2.02-8.58,2.92-2.36.74-4.74,1.32-7.18,1.72-1.87.3-3.74.53-5.64.6-1.51.06-3.02.2-4.54.2-.7,0-1.39-.05-2.09-.03-1.23.02-2.44,0-3.66-.28-1.31-.3-1.32-1.08-1.15-1.93.29-1.41.97-2.67,1.73-3.86.97-1.51,2.05-2.96,3.11-4.4.82-1.11,1.71-2.17,2.53-3.28.83-1.13,1.7-2.23,2.59-3.31.12-.15.16-.26.05-.43-.95-1.47-1.63-3.1-2.44-4.65-.94-1.79-1.89-3.58-2.74-5.41-.39-.84-.52-1.82-.03-2.69.53-.93,1.11-1.84,1.71-2.72.72-1.04,1.46-2.05,2.33-2.98.63-.66,1.26-1.29,2.02-1.79.61-.41,1.23-.81,1.85-1.21,1.34-.88,2.7-1.71,4.23-2.17,1.96-.59,4-.62,6.02-.79,1.83-.16,3.67-.28,5.5,0,1.23.2,2.43.54,3.56,1.06,1.01.47,1.81,1.27,2.63,2.01.35.31.74.6,1.01,1.05.37.63.76.65,1.47.42.95-.3,1.89-.63,2.86-.82,1.64-.32,3.29-.59,4.98-.68,2.29-.12,4.55-.07,6.79.48,1.55.39,2.98,1.02,4.33,1.9.67.44,1.29.93,1.93,1.4l1.22,1.37Zm-37.44,21.38c.45-.02.73-.08.96-.28.42.03.8-.14,1.17-.31.72-.07,1.38-.35,2.06-.54.52-.14,1.05-.18,1.57-.25.17.16.36.3.49.48.15.21.27.13.42.05-.23-.32-.54-.49-.92-.53-.18-.17-.14-.32.03-.47.12.09.14.34.32.28.21-.07.22-.29.2-.51-.18.08-.35.16-.52.24-1.22.41-2.44.83-3.66,1.24-.39.1-.78.21-1.17.31-.27.08-.54.15-.96.27Zm-4.98.69c-.03.35.15.65.27.96.21.26.44.07.61-.01.21-.11,0-.29-.05-.41-.14-.38-.14-.56.36-.6.58-.05,1.16-.23,1.77-.37-.17-.37-.33-.51-.74-.32-.54.26-1.14.35-1.74.19-.12-.03-.16,0-.21.09-.06.05-.12.1-.18.15-.16.07-.15.19-.1.33Zm.76,1.84c.22.23.43.47.64.71.55.15.76-.41,1.22-.5-.21-.19-.38-.04-.54-.04-.39.01-.72-.09-.83-.49-.09-.35-.28-.21-.47-.16-.22.15-.2.3-.03.47Zm3.19-1.17c.22.22.25.56.51.74.02.07.06.05.1.02.21.04.37-.16.6-.13.12.01.24-.16.04-.29-.03-.29-.23-.51-.35-.75-.14-.29-.27-.57-.08-.9q-.9.19-1.03.62v.04c-.11.27.1.44.2.65Zm6.85-2.28c-.56-.23-1.1-.08-1.63.12-.07.03-.17.15-.15.2.14.41.22.85.49,1.2.02.02.13-.02.19-.04.37-.3.88-.41,1.16-.84.28-.23.26-.51-.05-.64Zm10.8-4.34c-.76.51-1.64.79-2.37,1.36-.39.31-.96.4-1.41.66-1.61.95-3.41,1.47-5.09,2.26-.98.47-1.79,1.17-2.7,1.74-.36.23-.84.28-1.26.42-.79.25-1.57.56-2.36.78-.69.19-1.38.54-2.14.47-.07,0-.17-.02-.21.02-.58.65-1.55.41-2.18,1.01-.41.39-.82.04-1.14-.29-.19-.2-.37-.27-.67-.32-.91-.15-1.85-.11-2.72-.41-.49-.17-.85-.62-1.01-1.1-.29-.86-.74-1.62-1.18-2.4-.47-.84-.87-1.73-1.31-2.59-.26-.51-.46-.59-.73-.17-.32.51-.79.86-1.16,1.3-.49.57-.69,1.3-1.23,1.83-.94.93-1.69,2.04-2.47,3.1-.64.87-1.3,1.73-1.85,2.67-.11.2-.3.3-.42.48-.87,1.3-1.63,2.65-2.11,4.15-.13.42-.13.83-.11,1.24.01.27.2.43.44.55.47.24.98.3,1.5.3,2,0,3.99.03,5.99-.03,1.91-.05,3.81-.19,5.71-.38,1.85-.18,3.68-.51,5.49-.91,1.83-.41,3.65-.88,5.42-1.55,1.67-.63,3.4-1.1,5.09-1.7.79-.28,1.64-.41,2.39-.77,1.37-.67,2.83-1.11,4.24-1.67,1.73-.69,3.44-1.42,5.18-2.06,1.89-.69,3.71-1.53,5.57-2.28.89-.36,1.78-.71,2.65-1.12,1.36-.66,2.82-1.17,4.05-2.05.92-.66,1.8-1.42,2.55-2.3.46-.54,1.04-.98,1.39-1.59.53-.92,1.23-1.75,1.55-2.8.63-2.05,1.02-4.13.87-6.28-.06-.9-.14-1.85-.47-2.67-.27-.68-.53-1.41-1.06-2-.5-.56-.89-1.21-1.43-1.73-.6-.58-1.19-1.15-1.97-1.55-.45-.24-.93-.6-1.4-.82-.9-.44-1.85-.81-2.83-1.06-1.19-.3-2.42-.36-3.63-.47-.57-.05-1.18-.13-1.8.07-.32.11-.81-.08-1.21-.01-1.41.22-2.82.35-4.22.63-1.14.23-2.24.57-3.32.97-.39.15-.33.31-.09.57,1.18,1.31,2.11,2.8,3.12,4.23.86,1.23,1.55,2.6,2.56,3.72,1.23,1.37,1.1,2.93.76,4.52-.38,1.73-1.5,3.01-2.99,4.31-.6.49-1.39,1.15-2.26,1.73Zm.66-15.04c-.25-.43-.57-.81-.86-1.21-.65-.92-1.44-1.74-2.15-2.62-.97-1.2-2.11-2.19-3.28-3.16-.76-.63-1.66-.96-2.61-1.21-.65-.18-1.29-.44-1.96-.53-1.71-.21-3.41-.07-5.12,0-1.03.05-2.03.34-3.06.34-.73,0-1.45.06-2.13.25-1.2.34-2.37.71-3.43,1.44-.44.3-.91.67-1.48.82-.4.1-.71.41-1.02.65-.98.76-1.93,1.55-2.85,2.38-.63.56-.96,1.37-1.53,1.99-.38.41-.73.87-1,1.32-.78,1.33-2.12,2.56-1.31,4.37.27.62.6,1.21.91,1.81.47.9.96,1.78,1.41,2.68.72,1.42,1.41,2.86,2.13,4.28.43.84.88,1.67,1.32,2.51.75,1.42,1.52,2.82,2.25,4.25.14.28.34.39.58.5.77.34,1.58.3,2.39.28.1,0,.2-.02.23-.23.11-.69.33-.79,1.02-.69.41.06.8-.04,1.19-.19.48-.17,1.02-.44,1.31.33.07.19.27.04.38,0,.75-.27,1.51-.55,2.27-.72,1.32-.29,2.58-.74,3.83-1.19,1.33-.48,2.64-1,3.92-1.62,1.08-.52,2.19-.99,3.23-1.57,1.4-.78,2.84-1.49,4.15-2.44,1.2-.87,2.37-1.79,3.19-3.04.51-.78,1.03-1.57,1.11-2.57.04-.54.22-1.08.26-1.63.04-.54-.04-1.04-.38-1.43-.69-.8-1.14-1.76-1.83-2.56-.06-.07-.12-.13-.25-.28-.47-.23-.58-.85-.86-1.33Zm2.19,12.2l-1.43,1.28c.64-.23,1.2-.74,1.43-1.28Zm1.48-7.14c-.1.25.06.26.2.34.13.07.22.21.33.32.01-.01.02-.02.03-.03l-.56-.63Z"/>
      <path class="cls-9" d="m125.16,24.7c-.6.49-1.39,1.15-2.26,1.73-.76.51-1.64.79-2.37,1.36-.39.31-.96.4-1.41.66-1.61.95-3.41,1.47-5.09,2.26-.98.47-1.79,1.17-2.7,1.74-.36.23-.84.28-1.26.42-.79.25-1.57.56-2.36.78-.69.19-1.38.54-2.14.47-.07,0-.17-.02-.21.02-.58.65-1.55.41-2.18,1.01-.41.39-.82.04-1.14-.29-.19-.2-.37-.27-.67-.32-.91-.15-1.85-.11-2.72-.41-.49-.17-.85-.62-1.01-1.1-.29-.86-.74-1.62-1.18-2.4-.47-.84-.87-1.73-1.31-2.59-.26-.51-.46-.59-.73-.17-.32.51-.79.86-1.16,1.3-.49.57-.69,1.3-1.23,1.83-.94.93-1.69,2.04-2.47,3.1-.64.87-1.3,1.73-1.85,2.67-.11.2-.3.3-.42.48-.87,1.3-1.63,2.65-2.11,4.15-.13.42-.13.83-.11,1.24.01.27.2.43.44.55.47.24.98.3,1.5.3,2,0,3.99.03,5.99-.03,1.91-.05,3.81-.19,5.71-.38,1.85-.18,3.68-.51,5.49-.91,1.83-.41,3.65-.88,5.42-1.55,1.67-.63,3.4-1.1,5.09-1.7.79-.28,1.64-.41,2.39-.77,1.37-.67,2.83-1.11,4.24-1.67,1.73-.69,3.44-1.42,5.18-2.06,1.89-.69,3.71-1.53,5.57-2.28.89-.36,1.78-.71,2.65-1.12,1.36-.66,2.82-1.17,4.05-2.05.92-.66,1.8-1.42,2.55-2.3.46-.54,1.04-.98,1.39-1.59.53-.92,1.23-1.75,1.55-2.8.63-2.05,1.02-4.13.87-6.28-.06-.9-.14-1.85-.47-2.67-.27-.68-.53-1.41-1.06-2-.5-.56-.89-1.21-1.43-1.73-.6-.58-1.19-1.15-1.97-1.55-.45-.24-.93-.6-1.4-.82-.9-.44-1.85-.81-2.83-1.06-1.19-.3-2.42-.36-3.63-.47-.57-.05-1.18-.13-1.8.07-.32.11-.81-.08-1.21-.01-1.41.22-2.82.35-4.22.63-1.14.23-2.24.57-3.32.97-.39.15-.33.31-.09.57,1.18,1.31,2.11,2.8,3.12,4.23.86,1.23,1.55,2.6,2.56,3.72,1.23,1.37,1.1,2.93.76,4.52-.38,1.73-1.5,3.01-2.99,4.31Z"/>
      <path class="cls-9" d="m124.67,12.99c.68.8,1.14,1.76,1.83,2.56.33.39.42.89.38,1.43-.05.56-.22,1.09-.26,1.63-.08,1-.6,1.79-1.11,2.57-.82,1.25-1.99,2.17-3.19,3.04-1.31.95-2.75,1.66-4.15,2.44-1.05.58-2.15,1.05-3.23,1.57-1.28.62-2.59,1.15-3.92,1.62-1.26.45-2.52.89-3.83,1.19-.76.17-1.52.45-2.27.72-.11.04-.31.19-.38,0-.28-.76-.83-.5-1.31-.33-.4.15-.78.25-1.19.19-.69-.1-.91,0-1.02.69-.04.21-.14.23-.23.23-.81.02-1.62.06-2.39-.28-.24-.11-.44-.22-.58-.5-.73-1.43-1.49-2.84-2.25-4.25-.44-.83-.89-1.67-1.32-2.51-.72-1.42-1.41-2.86-2.13-4.28-.46-.9-.95-1.78-1.41-2.68-.31-.6-.64-1.19-.91-1.81-.8-1.82.53-3.04,1.31-4.37.27-.45.62-.91,1-1.32.57-.62.91-1.42,1.53-1.99.92-.82,1.87-1.62,2.85-2.38.31-.24.62-.55,1.02-.65.57-.14,1.03-.51,1.48-.82,1.06-.73,2.23-1.1,3.43-1.44.69-.19,1.41-.25,2.13-.25,1.03,0,2.03-.3,3.06-.34,1.71-.08,3.41-.22,5.12,0,.68.08,1.31.35,1.96.53.94.25,1.84.59,2.61,1.21,1.18.97,2.32,1.96,3.28,3.16.71.88,1.5,1.7,2.15,2.62.28.4.6.78.86,1.21.28.48.38,1.09.86,1.33.13.14.19.21.25.28Zm-17.89-5.21c1.28-.17,2.58-.11,3.87,0,1.38.11,2.76.2,4.14.28,1.25.07,2.18-.87,2.56-1.88.02-.06,0-.14-.05-.24-.19.6-.81.73-1.19,1.15-.37.41-.99.48-1.56.39-1.91-.29-3.85-.33-5.77-.37-1.54-.03-3.09.09-4.61.52-1.72.49-3.46.92-5.14,1.55-.2.07-.34.17-.5.34,2.73-.77,5.46-1.37,8.24-1.73Z"/>
      <path class="cls-9" d="m101.56,33.34c.21.26.44.07.61-.01.21-.11,0-.29-.05-.41-.14-.38-.14-.56.36-.6.58-.05,1.16-.23,1.77-.37-.17-.37-.33-.51-.74-.32-.54.26-1.14.35-1.74.19-.12-.03-.16,0-.21.09.08.48.24.96-.02,1.44Z"/>
      <path class="cls-9" d="m112.15,31.41c.28-.23.26-.51-.05-.64-.56-.23-1.1-.08-1.63.12-.07.03-.17.15-.15.2.14.41.22.85.49,1.2.02.02.13-.02.19-.04-.23-.35-.38-.73-.46-1.19.11.05.18.05.19.09.34.66.76.53,1.21.14.15-.13.16.05.21.12Z"/>
      <path class="cls-9" d="m106.5,33.4c-.03-.29-.23-.51-.35-.75-.14-.29-.27-.57-.08-.9q-.9.19-1.03.62c.27-.3.47-.44.56.13.02.15.06.31.1.46.12.42.36.6.79.44Z"/>
      <path class="cls-9" d="m112.07,29.87c-1.22.41-2.44.83-3.66,1.24h0c.72-.08,1.38-.36,2.06-.55.52-.14,1.05-.18,1.57-.25h0c-.18-.16-.14-.31.03-.46h0Z"/>
      <path class="cls-1" d="m106.5,33.4c-.43.16-.68-.02-.79-.44-.04-.15-.08-.32-.1-.46-.09-.57-.29-.43-.56-.13,0,0,0,.04,0,.04.11.2.31.38.21.65.22.22.25.56.51.74.03,0,.07.02.1.02.21.04.37-.16.6-.13.12.01.24-.16.04-.29Z"/>
      <path class="cls-1" d="m112.15,31.41c-.05-.07-.05-.25-.21-.12-.46.39-.88.53-1.21-.14-.02-.03-.09-.04-.19-.09.08.46.23.84.46,1.19.37-.3.88-.41,1.16-.84Z"/>
      <path class="cls-9" d="m102.7,34.93c.55.15.76-.41,1.22-.5-.21-.19-.38-.04-.54-.04-.39.01-.72-.09-.83-.49-.09-.35-.28-.21-.47-.16.12.15.28.28.37.45.12.23.43.4.25.73Z"/>
      <path class="cls-1" d="m101.56,33.34c.26-.48.1-.96.02-1.44-.06.05-.12.1-.18.15.12.16.02.25-.1.33-.03.35.15.65.27.96Z"/>
      <path class="cls-9" d="m124.33,24.87c.64-.23,1.2-.74,1.43-1.28l-1.43,1.28Z"/>
      <path class="cls-1" d="m102.7,34.93c.18-.33-.13-.51-.25-.73-.09-.17-.24-.3-.37-.45-.22.15-.2.29-.03.47.22.23.43.47.64.71Z"/>
      <path class="cls-9" d="m112.04,30.32c.17.16.36.3.49.48.15.21.27.13.42.05-.23-.32-.54-.49-.92-.53,0,0,0,0,0,0Z"/>
      <path class="cls-9" d="m112.07,29.86c.12.09.14.34.32.28.21-.07.22-.29.2-.51-.18.08-.35.16-.52.24,0,0,0-.01,0-.01Z"/>
      <path class="cls-9" d="m108.41,31.11c-.39.1-.78.21-1.17.31h0c.42.02.79-.15,1.17-.32,0,0,0,.01,0,.01Z"/>
      <path class="cls-9" d="m127.8,17.08l-.56-.63c-.1.25.06.26.2.34.13.07.22.21.33.32.01-.01.02-.02.03-.03Z"/>
      <path class="cls-9" d="m107.24,31.42c-.27.08-.54.15-.96.27.45-.02.73-.08.96-.28,0,0,0,0,0,0Z"/>
      <path class="cls-9" d="m105.25,33.05c.1-.27-.1-.44-.21-.65-.11.27.1.44.21.65Z"/>
      <path class="cls-9" d="m101.3,32.38c.12-.08.23-.17.1-.33-.16.07-.15.19-.1.33Z"/>
      <path class="cls-9" d="m105.86,33.82s-.07-.02-.1-.02c.02.07.06.06.1.02Z"/>
      <path class="cls-10" d="m98.55,9.52c2.73-.77,5.46-1.37,8.24-1.73,1.28-.17,2.58-.11,3.87,0,1.38.11,2.76.2,4.14.28,1.25.07,2.18-.87,2.56-1.88.02-.06,0-.14-.05-.24-.19.6-.81.73-1.19,1.15-.37.41-.99.48-1.56.39-1.91-.29-3.85-.33-5.77-.37-1.54-.03-3.09.09-4.61.52-1.72.49-3.46.92-5.14,1.55-.2.07-.34.17-.5.34Z"/>
    </g>
    <path class="cls-12" d="m165.54,163.94c.15.43.08.93-.17,1.5-.33.68-.82,1.09-1.44,1.23-.54.11-1.26.03-2.16-.23l-.49,1.37-.99-.36.48-1.35-.76-.27-.48,1.35-.99-.36.49-1.37-1.95-.7.62-1.1.2.07c.31.13.53.19.63.2.15,0,.26-.06.35-.22l1.57-4.36c.04-.23-.03-.4-.2-.52-.1-.08-.36-.19-.75-.31l-.15-.06.38-1.05.59.24c.72.26,1.16.41,1.36.46l.57-1.58.99.36-.56,1.56.77.25.56-1.55.99.36-.57,1.59c.66.31,1.13.65,1.41,1,.34.43.44.92.29,1.47-.2.81-.67,1.26-1.42,1.35h0c.45.29.74.63.86,1.02h0Zm-3.97-2.4l.16.06c.56.22,1.01.34,1.34.37.58.06.96-.13,1.12-.58s0-.83-.47-1.17c-.26-.19-.68-.37-1.27-.57-.1-.02-.16-.04-.19-.04l-.69,1.93h0Zm-.94,3.18c.68.26,1.21.41,1.59.46.68.06,1.11-.14,1.28-.63s-.02-.91-.58-1.29c-.3-.21-.8-.43-1.49-.65l-.22-.08-.77,2.13.18.06h0Z"/>
  </g>
  <path class="cls-12" d="m159.12,168.05c1.04,0,1.17-.6,1.17-.6,0,0,1.31-.51.99.36s-1.63,1.19-3.23,1.19,1.43-.5,1.43-.5l-.36-.44Z"/>
</svg>