<?xml version="1.0" encoding="UTF-8"?>
<svg id="Layer_1" data-name="Layer 1" xmlns="http://www.w3.org/2000/svg" width="300" height="225" viewBox="0 0 300 225">
  <defs>
    <style>
      .cls-1 {
        fill: #fff;
      }

      .cls-2 {
        isolation: isolate;
        opacity: .35;
      }

      .cls-3 {
        fill: #551c12;
      }

      .cls-4 {
        fill: #232323;
      }

      .cls-5 {
        fill: #ff7e1c;
      }

      .cls-6 {
        fill: #444;
      }

      .cls-7 {
        fill: #7f7f7f;
      }

      .cls-8 {
        opacity: .3;
      }
    </style>
  </defs>
  <path class="cls-5" d="m98.33,18.41c-2.22-.27-1.42,1.19-1.19,2.19,1.18,5.05-.49,9.32-3.37,13.36-1.42,1.98-3.55,1.61-5.24,1.46-3.57-.31-7.09-1.24-10.81-1.95,1.89-1.7,4.07-.92,5.92-.76,2.31.2,4.63.08,6.94.27,2.04.17,3.36-2.01,2.96-4.21-.06-.33-.05-.85.15-1.04,1.71-1.56.48-2.47-.67-3.45-.38-.32-.76-.74-.93-1.19-1.62-4.29-5.34-4.52-9.13-5.25-3.42-.65-6.66-.28-10.46.31,1.61-.87,3.78-1.32,5.45-1.41,1.66-.09,3.32-.3,4.99-.44.95-.08,1.08-.86,1.35-1.51.75-1.77,1.88-3.3,3.32-4.52,2.89-2.43,5.9-1.86,8.87-.05,1.05.64,2.09,1.36,2.92,2.24.84.9,1.9,1.48,3.28,2.42-1.2,0-1.93-.1-2.62.02-1.03.19-1.48.77-.71,1.76.07.09.15.17.22.25-.21.07-.45.08-.62.21-.42.32-1.18.51-.6,1.29,0,0-.02.02-.02.02Z"/>
  <path class="cls-5" d="m142.84,150.83c.85-1.98.64-4.17,1.47-6.13,1.72-4.07,2.52-8.41,3.12-12.71,1.09-7.84.98-15.71-1.04-23.45-1.79-6.86-4.29-13.44-7.84-19.59-.74-1.28-7.5-11.11-10.99-13.98-3.35-2.76-14.93-1.41-18.12-4.36-7.82-7.25-10.83-12.05-20.79-13.64-.52-.08-1-.18-1.47-.62,2.31-.63,4.37-1.21,6.86-.21,2.5,1,5.41.8,8.07,1.71,6.88,2.36,13.4,5.23,19.35,9.61,5.64,4.16,10.67,8.78,15.01,14.24,3.9,4.9,6.37,10.55,8.74,16.26,2.82,6.79,3.96,13.84,4.49,21.18.62,8.68-.92,16.92-3.44,25.06-.72,2.31-1.51,4.78-3.42,6.63Z"/>
  <path class="cls-5" d="m115.04,108.43c-.69-2.01-2.42-2.48-3.9-2.99-2.34-.79-4.12-2.01-5.8-3.93-4.95-5.64-10.64-5.47-15.8-.53-.39.38-.85.87-.93,1.36-.66,3.92-3.68,4.13-6.69,4.31-1.17.07-2.35.09-3.51-.02-1.78-.16-1.57.83-1.07,1.83.55,1.1,1.28,2.12,1.96,3.15.86,1.32.76,2.78.32,4.11-.7,2.15-1.07,2.08-2.73.65-2.08-1.79-4.35-3.37-6.54-5.03-.3-.23-.85-.4-.98-.07-.89,2.25-3.97,1.81-4.26,1.23-1.76-3.5-11.77-3.96-14.85-5.37-1.15-.53-2.35.15-2.42,1.7-.05,1.02,8.67.45,8.98,1.39.69,2.09-.37,2.2-1.95,2.09-4.64-.31-9.29-.59-13.93-.83-.66-.03-1.44-.31-2.33.67,6.48.52,12.4,2.24,18.55,4.14-1.58,1.18-3.36.67-4.67,1.66-.1.7.6.83.97.93,3.57.97,6.21,3.91,9.9,4.64.44.09.87.54,1.19.92,2.55,3.04,6,4.82,9.38,6.66,1.48.81,2.25,1.75,2.19,3.55-.12,3.95-.03,7.9-.02,11.85,0,3.43-.44,4.11-3.6,5.35-.5.2-1.37.05-1.07.96.24.73,1.01.53,1.53.39,3.72-.97,7.76-.82,11.17-.06,4.26.96,8.36,1.2,12.61,1.09.74-.02,1.57.26,1.92.9,1.28,2.27,3.72,3.72,4.46,6.37.15.53.52,1.1.96,1.43,1.52,1.15,1.07,3.18.3,3.62-1.77,1.01-2.52,2.85-4.09,3.95-2.07,1.45-4.57,1.52-6.8,1.86-5.61.85-11.28,1.44-17.01,1.06-3.66-.24-7.07-.81-10.44-2.48-2.56-1.27-5.48-1.84-8.03-3.3-3.69-2.1-7.07-4.55-10.31-7.33-5.1-4.39-9.37-9.42-12.35-15.36-1.72-3.43-3.12-7.08-3.84-11.03-.82-4.53-1.64-9.02-1.57-13.63.15-9.96,3.19-18.98,8.78-27.22,1.27-1.87,2.57-3.7,3.94-5.48,2.64-3.44,6.7-5.21,9.81-8.13.93-.88,1.95-1.07,3.25-.04-1.33-2.19.21-2.96,1.52-3.51,5.75-2.39,11.6-4.27,17.89-4.99,4.93-.57,9.78-1.12,14.68-.28,3.93.67,7.73,1.88,11.44,3.32.88.34,18,1.43,26.24,10.6,6.48,7.21,8.5,23.81,8.85,24.71,1.56,4.02-1.63,7.3-1.5,11.57.11,3.92-.34,7.79-1.5,11.63-1.46,4.86-2.81,9.74-5.05,14.29-1.1,2.24-3.17,3.79-4.22,6.26-.93,2.19-3.19,3.89-4.85,5.83-1.83,2.14-4.4,1.58-6.25-1.74-2.77-4.99-6.81-9.04-9.82-13.8-2.21-3.48-5.31-6.2-7.4-9.74-.91-1.55-1.08-2.63.58-3.88,6.13-4.61,7.84-11.02,6.76-18.28-.32-2.15.13-3.15,2.21-3.58,1.88-.39,3.75-.67,5.54.19,1.35.65,2.69.31,4.22.35Z"/>
  <g>
    <g>
      <path class="cls-4" d="m179.81,84.53c-.36-.75-.36-1.65.13-2.03.48-.38,1.48-.06,2.09.82,1.64,2.37,2.51,5.26,2.41,8.24-.04,1.11-1.1,1.73-2.18,1.4-1.09-.33-1.76-1.15-1.61-1.89.42-2.12.17-4.42-.83-6.54Z"/>
      <path class="cls-4" d="m207.28,107.33c3.05.29,5.49,2.65,5.23,5.99-.25,3.32-4.14,6.52-8.39,6.15-12.1-1.06-22.21-7.76-27.88-18.5-2-3.77-.57-8.61,2.39-10.12,2.98-1.53,6.11-.21,7.56,2.49,4.3,8.12,11.94,13.19,21.1,13.99Z"/>
      <path class="cls-4" d="m174.14,89.19c-.58-.66-.85-1.57-.47-2.1.38-.53,1.49-.49,2.36.22,2.36,1.93,4.09,4.61,4.87,7.67.28,1.14-.61,2.08-1.81,2.06-1.2-.02-2.13-.66-2.2-1.46-.19-2.27-1.13-4.54-2.77-6.4Z"/>
      <path class="cls-4" d="m171.04,93.38c-.82-.32-1.47-1-1.37-1.65.1-.65,1.1-1.12,2.2-.88,2.98.65,5.74,2.24,7.83,4.61.77.88.41,2.12-.67,2.65-1.08.53-2.19.38-2.62-.29-1.21-1.94-3.07-3.53-5.38-4.44Z"/>
    </g>
    <g class="cls-2">
      <ellipse class="cls-4" cx="217.56" cy="211.02" rx="42.28" ry="6.82"/>
    </g>
    <path class="cls-4" d="m248.19,162.65c-.17,1.38-4.75,40.42-11.39,45.89-6.65,5.47-10.14,3.63-11.49,2.18-1.41-1.53-3.2-4.26.11-7.35,2.66-2.48,4.53-13.48,1.88-30.64l20.9-10.07Z"/>
    <path class="cls-4" d="m222.8,160.22c-.18,1.38-4.75,40.41-11.39,45.89-6.65,5.47-10.14,3.63-11.49,2.17-1.41-1.52-3.2-4.26.11-7.35,2.66-2.49,4.53-13.48,1.88-30.65l20.9-10.07Z"/>
    <path class="cls-1" d="m242.87,103.69c-7.68-4.26-17.42-6.55-35.4-7.26,4.29-1.81,9.96-2.66,18.26-2.66h.01c14.21,0,20.78,2.42,25.73,8.06,5.84,6.65,8.79,25.66,9.38,40.46-.95-13.89-6.59-32.27-17.98-38.6Z"/>
    <path class="cls-6" d="m260.85,142.3c.14,2.04.17,3.98.11,5.78,0-1.82-.03-3.76-.11-5.78Z"/>
    <path class="cls-6" d="m273.28,166.14c2.03,1.44,4.65,1.94,6.03.71,1.38-1.22.96-4.33-1.3-6.57-6.11-6.08-14.12-10.18-22.95-11.5-3.29-.48-5.67,2.3-5.27,5.65.4,3.37,2.45,5.79,4.71,5.76,6.45-.1,13.08,1.87,18.77,5.95Z"/>
    <path class="cls-6" d="m200,101.84c1.8-2.05,3.83-3.68,6.37-4.92.35-.17.73-.32,1.1-.48,2.9.11,5.56.27,8.05.47,6.12.22,10.91.9,14.81,2.12,5.02,1.16,9,2.7,12.54,4.67,11.4,6.33,17.04,24.7,17.98,38.6.08,2.02.12,3.96.11,5.78-.02,4.7-.31,8.6-.88,10.96-.03.11-.07.21-.11.32-2.86,12.92-17.15,22.74-34.37,22.74-19.27,0-34.9-12.31-34.9-27.5,0-.14.01-.27.01-.41-1.05-13.93,1.66-43.68,9.28-52.35Z"/>
    <g>
      <path class="cls-1" d="m246.82,78.05c3.39-12.38-4.8-20.53-26.6-23.79-6.92-1.04-12.62-9.77-17.51-11.72-14.07-5.58-18.34,3.53-18.34,3.53h-.03c8.56-15.65,29.72-23.37,50.91-17.47,24.04,6.7,39,28.4,33.41,48.48-5.59,20.08-29.62,30.92-53.66,24.23-2.09-.59-4.12-1.29-6.07-2.09v-.02c20.77,7.37,33.38-4.7,37.89-21.14Z"/>
      <path class="cls-6" d="m184.34,46.07h.03s4.27-9.11,18.34-3.53c4.89,1.94,10.59,10.68,17.51,11.72,15.64,2.34,24.27,7.2,26.65,14.33.6-.25,1.17-.32,1.7-.17,2.73.8,3.3,7.11,1.26,14.1-2.04,6.98-5.92,12-8.66,11.2-.62-.18-1.12-.65-1.51-1.34-6.61,7.95-16.84,11.72-30.73,6.8v.02c-20.43-8.39-32.45-28.06-27.35-46.39.66-2.39,1.6-4.64,2.75-6.76Z"/>
      <path class="cls-7" d="m201.2,90.17c4.56,1.47,14.67,0,15.61-10.06.94-10.05-9.68-14.28-13.27-15.43-3.6-1.15-14.37-3.79-15.3,6.26-.93,10.05,8.4,17.76,12.97,19.23Z"/>
      <path class="cls-4" d="m203.08,67.25c-1.98-.64-5.12.66-5.71,3.17-.59,2.5,5.16,4.25,5.16,4.25l.17.05s5.73,1.94,5.63-.79c-.1-2.73-2.83-5.91-4.81-6.54l-.43-.14Z"/>
      <path class="cls-4" d="m203.85,85.89c-.78,0-1.58-.13-2.38-.39-1.1-.35-2.15-.93-3.1-1.71-.92-.75-1.72-1.65-2.38-2.69-.66-1.04-1.16-2.15-1.46-3.32-.09-.33.11-.67.44-.76.33-.09.67.11.76.44.27,1.04.71,2.04,1.31,2.96.59.92,1.31,1.73,2.12,2.39.84.68,1.74,1.18,2.7,1.48.94.3,1.86.4,2.74.28.85-.12,1.63-.41,2.31-.88.68-.47,1.25-1.11,1.68-1.88.17-.3.55-.41.85-.24.3.17.41.55.24.85-.52.95-1.22,1.72-2.06,2.3-.84.58-1.8.95-2.85,1.09-.3.04-.6.06-.91.06Z"/>
      <circle class="cls-4" cx="223.04" cy="67.32" r="1.85"/>
      <circle class="cls-4" cx="195.45" cy="54.7" r="1.85"/>
      <path class="cls-4" d="m245.16,72.68c2.25.68,2.98,5.44,2.11,11.68.28-.74.54-1.52.78-2.34,1.58-5.5,1.41-10.39-.38-10.92-.76-.23-1.69.37-2.63,1.56.04,0,.08,0,.11.02Z"/>
      <path class="cls-7" d="m228.6,69.66s-.08,0-.12-.01c-.37-.07-.62-.42-.56-.8.1-.55.09-1.11-.03-1.66-.12-.55-.34-1.06-.65-1.53-.32-.48-.73-.88-1.23-1.2-.49-.32-1.03-.53-1.6-.63-.37-.07-.62-.42-.56-.8.07-.37.42-.62.8-.56.75.13,1.46.41,2.11.84.65.42,1.19.96,1.62,1.59.41.61.7,1.29.86,2.01.15.73.17,1.46.04,2.19-.06.33-.35.57-.68.57Z"/>
      <path class="cls-7" d="m190.95,52.46c-.13,0-.27-.04-.39-.12-.31-.21-.4-.64-.18-.96.43-.64.98-1.17,1.63-1.58.66-.42,1.37-.7,2.11-.82.72-.13,1.46-.11,2.18.04.71.16,1.41.45,2.01.86.31.21.4.64.18.96-.21.31-.64.4-.96.18-.46-.31-.99-.54-1.53-.66-.55-.12-1.11-.13-1.66-.03-.56.09-1.1.3-1.6.63-.49.31-.9.72-1.23,1.2-.13.2-.35.3-.57.3Z"/>
    </g>
    <g>
      <path class="cls-4" d="m238.8,111.41c1.96-2.35,5.28-3.03,7.9-.93,2.61,2.08,3.04,7.1.33,10.4-7.7,9.38-18.94,13.95-31.01,12.57-4.24-.48-7.42-4.39-7-7.69.42-3.33,3.28-5.16,6.32-4.83,9.13,1.04,17.63-2.4,23.46-9.51Z"/>
      <path class="cls-4" d="m205.97,123.43c-.81-.15-1.54-.67-1.56-1.28-.03-.61.81-1.23,1.87-1.21,2.86.05,5.69,1.02,8.04,2.83.87.68.76,1.88-.14,2.56-.9.68-1.94.74-2.46.2-1.47-1.56-3.46-2.69-5.75-3.11Z"/>
      <path class="cls-4" d="m205.01,128.11c-.82.08-1.66-.21-1.85-.79-.2-.58.44-1.41,1.46-1.68,2.76-.74,5.75-.59,8.5.49,1.02.41,1.25,1.6.58,2.5-.67.9-1.66,1.26-2.31.88-1.83-1.09-4.07-1.62-6.38-1.39Z"/>
      <path class="cls-4" d="m206.49,132.77c-.7.45-1.57.57-2.01.13-.44-.43-.25-1.45.54-2.16,2.12-1.92,4.85-3.14,7.79-3.43,1.1-.11,1.85.85,1.66,1.96-.19,1.11-.91,1.88-1.66,1.83-2.13-.14-4.37.41-6.32,1.67Z"/>
    </g>
    <path class="cls-4" d="m221.76,206.92c-.83.23-1.75.09-2.06-.47-.31-.56.19-1.54,1.19-2.01,2.71-1.29,5.82-1.71,8.87-1.12,1.14.23,1.6,1.42,1.08,2.47-.52,1.06-1.48,1.62-2.21,1.35-2.11-.78-4.52-.91-6.86-.22Z"/>
    <path class="cls-4" d="m223.06,211.77c-.74.46-1.65.58-2.11.12-.46-.45-.25-1.53.58-2.26,2.25-1.99,5.12-3.25,8.22-3.54,1.15-.1,1.93.92,1.72,2.07-.21,1.16-.97,1.96-1.75,1.91-2.24-.17-4.59.38-6.65,1.69Z"/>
    <path class="cls-4" d="m226.65,215.44c-.44.74-1.21,1.27-1.83,1.08-.61-.2-.91-1.25-.51-2.28,1.09-2.8,3.08-5.22,5.71-6.88.98-.62,2.13-.07,2.48,1.06.35,1.13.03,2.19-.7,2.5-2.08.87-3.91,2.43-5.16,4.53Z"/>
    <path class="cls-4" d="m195.22,204.03c-.83.24-1.75.1-2.06-.47-.31-.56.19-1.54,1.19-2.01,2.71-1.29,5.82-1.71,8.87-1.12,1.14.22,1.6,1.41,1.08,2.47-.52,1.06-1.48,1.61-2.22,1.35-2.11-.79-4.52-.91-6.86-.22Z"/>
    <path class="cls-4" d="m196.52,208.88c-.73.46-1.65.58-2.11.12-.46-.45-.25-1.53.58-2.26,2.25-1.99,5.12-3.26,8.22-3.53,1.15-.1,1.93.91,1.72,2.07-.21,1.16-.97,1.96-1.76,1.91-2.24-.17-4.59.39-6.65,1.69Z"/>
    <path class="cls-4" d="m200.11,212.56c-.44.75-1.21,1.27-1.83,1.07-.61-.2-.92-1.25-.51-2.28,1.09-2.8,3.08-5.23,5.71-6.88.98-.62,2.13-.07,2.47,1.06.35,1.13.03,2.19-.69,2.49-2.08.88-3.91,2.43-5.16,4.53Z"/>
  </g>
  <g>
    <path class="cls-5" d="m17.9,142.51c-2.41-3.42-3.74-7.18-4.3-11.21-.58-4.13.04-8.28-.15-12.42-.4-8.84,2.41-16.93,5.75-24.91,2.45-5.83,5.93-11.12,10.07-15.69,6.43-7.11,14.05-12.91,22.93-16.91,4.74-2.14,9.56-3.91,14.67-4.95,2.31-.47,4.91-1.37,6.88-1.23,3.29.24,6.58-1.16,9.79.09.17.07.29.26.78.73-22.84.07-40.85,9.16-55,26.63-14.59,18.01-15.89,38.27-11.42,59.86Z"/>
    <path class="cls-5" d="m77.16,144.44c-.45-2.89.61-6.07.12-9.36-.37-2.45.94-3.24,3.38-2.72,2.22.47,3.68,1.63,4.72,3.76,1.79,3.66,3.04,7.21,2.09,11.45-.72,3.23-.57,3.46-3.82,3.03-.64-.09-1.25,0-1.89.33-2.36,1.19-4.33.04-4.58-2.65-.11-1.16-.02-2.33-.02-3.84Z"/>
    <path class="cls-5" d="m89.05,142.61c2.85,2.43,4.01,5.48,6,7.91.54.65.25,1.08-.57,1.43-2.9,1.23-5.37-.26-5.42-3.37-.03-1.86,0-3.72,0-5.97Z"/>
  </g>
  <circle class="cls-3" cx="95.06" cy="12.55" r="1.18"/>
  <g class="cls-8">
    <path class="cls-1" d="m107.01,135.35c1.05,3.39.47,7.25-1.73,11.61-2.77,5.21-6.6,8.29-11.48,9.21-4.21.72-9.79-.06-16.74-2.32l-4.14,10.49-7.55-2.98,4.08-10.34-5.86-2.31-4.08,10.34-7.57-2.98,4.14-10.49-14.96-5.9,5.07-8.34,1.54.61c2.43,1.08,4.04,1.64,4.84,1.72,1.15.1,2.07-.42,2.76-1.58l13.21-33.48c.34-1.77-.12-3.14-1.4-4.12-.8-.67-2.72-1.55-5.74-2.62l-1.24-.49,3.16-8.02,4.57,1.99c5.45,2.15,8.91,3.45,10.39,3.91l4.81-12.18,7.57,2.98-4.75,12.03,5.93,2.15,4.68-11.87,7.55,2.98-4.81,12.18c5.04,2.58,8.61,5.3,10.7,8.14,2.58,3.4,3.22,7.21,1.9,11.45-1.74,6.21-5.5,9.59-11.31,10.15h0c3.48,2.32,5.63,5.02,6.45,8.08h0Zm-30.25-19.61l1.23.49c4.28,1.81,7.73,2.88,10.33,3.2,4.52.59,7.45-.81,8.79-4.21s.22-6.45-3.35-9.17c-2.02-1.51-5.25-3.07-9.72-4.72-.76-.18-1.25-.32-1.45-.4l-5.84,14.81h0Zm-8.04,24.47c5.2,2.17,9.26,3.47,12.18,3.9,5.32.67,8.72-.84,10.18-4.54s.07-7.1-4.18-10.2c-2.29-1.73-6.1-3.53-11.42-5.39l-1.71-.67-6.45,16.35,1.4.55h0Z"/>
  </g>
  <path class="cls-3" d="m98.33,18.41c-.18,1.74.41,3.41.46,5.16.17,5.66-2.55,9.91-6.42,13.55-1.25,1.18-3.27,1.33-4.38,3.05-.62.97-.93,1.88-.67,2.81.67,2.38.33,4.77.4,7.15.06,2.02.93,3.19,2.84,2.89,2.3-.36,3.89,1.22,5.91,1.61,8.36,1.62,16.23,4.76,23.28,9.48,4.38,2.94,8.45,6.38,12.22,10.24,3.19,3.27,5.85,6.79,8.29,10.54,4.7,7.21,7.95,15.31,9.56,23.77,1.15,6.01,1.79,12.11,1.15,18.25-.8,7.67-2.25,15.21-5.25,22.36-2.66,6.32-6.08,12.36-10.47,17.47-3.86,4.5-8.25,8.7-13.27,12.23-5.94,4.17-12.24,7.39-19,9.73-3.38,1.17-6.95,1.89-10.53,2.4-1.36.2-2.18.58-2.14,2.38.1,6.04.08,19.23.05,25.27-.01,2.98-2.43,5.39-5.4,5.39h-4.16c-2.98,0-5.39-2.41-5.4-5.38-.02-5.75-.06-18.64.09-24.39.06-2.21-1-2.7-2.61-2.82-6.25-.43-12.18-2.26-17.92-4.49-5.96-2.32-11.34-5.76-16.44-9.71-7.58-5.88-13.47-13.11-18.19-21.37-3.8-6.65-6.21-13.76-7.4-21.35-.71-4.53-1.31-9.04-1.07-13.6.55-10.3,1.88-20.45,6.88-29.71,3.15-5.83,6.8-11.26,11.37-16.17,5.45-5.85,11.56-10.71,18.57-14.38,6.03-3.15,12.36-5.58,19.22-6.49,1.5-.2,3.07-.53,4.53-.92,1.96-.53,2.88-2.37,2.48-4.38-.56-2.75-.35-5.5-.37-8.25,0-.93-.29-1.72-1.06-1.95-1.8-.54-3.08-2.1-4.98-2.37-1.03-.14-1.43-1.04-2.08-1.66-3.72-3.55-8.47-4.94-13.25-6.17-1.22-.31-1.5-.74-1.55-1.85-.06-1.2.44-1.6,1.66-1.39-3.72-1.02-7.37-1.59-11.07-1.68-1.14-.03-1.57-.47-1.55-1.57.02-1.12.53-1.5,1.62-1.56,3.95-.22,7.84.79,11.79.47.71-.06,1.43-.02,2.13.09,1.15.17,1.24-.36,1.12-1.08-.63-4.06,1.59-5.98,5.26-3.98,3.36,1.83,6.23,2.55,9.76.63,2.75-1.5,6.05-.7,9.05-1.35,1.04-.22,1.57-.59,1.97-1.63,1.73-4.49,7.01-7.63,11.8-5.87,1.23.45,2.05,1.34,2.91,2.19,2.52,2.53,5.55,4.1,8.96,5.05.89.25,1.43.75,1.42,1.87,0,1.37-.37,2.06-1.86,1.95-2.74-.2-5.49-.31-8.23-.46-.58-.79.18-.98.6-1.29.16-.12.41-.14.62-.21-.08-.08-.16-.16-.22-.25-.77-.99-.32-1.57.71-1.76.68-.13,1.41-.02,2.62-.02-1.38-.95-2.44-1.53-3.28-2.42-.83-.89-1.87-1.61-2.92-2.24-2.97-1.81-5.98-2.37-8.87.05-1.44,1.21-2.57,2.74-3.32,4.52-.27.65-.4,1.44-1.35,1.51-1.66.14-3.32.35-4.99.44-1.66.09-3.83.54-5.45,1.41,3.8-.58,7.04-.96,10.46-.31,3.78.72,7.51.96,9.13,5.25.17.45.55.87.93,1.19,1.15.99,2.38,1.89.67,3.45-.2.18-.21.7-.15,1.04.4,2.2-.93,4.38-2.96,4.21-2.31-.19-4.62-.07-6.94-.27-1.85-.16-4.03-.93-5.92.76,3.72.71,7.24,1.64,10.81,1.95,1.7.15,3.83.52,5.24-1.46,2.89-4.04,4.55-8.31,3.37-13.36-.23-.99-1.03-2.46,1.19-2.19Zm16.51,90.02c-1.53-.04-2.87.3-4.22-.35-1.8-.87-3.66-.58-5.54-.19-2.08.43-2.53,1.43-2.21,3.58,1.08,7.26-.63,13.66-6.76,18.28-1.66,1.25-1.49,2.33-.58,3.88,2.09,3.54,5.2,6.26,7.4,9.74,3.02,4.76,7.05,8.81,9.82,13.8,1.85,3.32,4.42,3.88,6.25,1.74,1.65-1.94,3.91-3.64,4.85-5.83,1.06-2.47,3.12-4.02,4.22-6.26,2.23-4.56,3.59-9.44,5.05-14.29,1.15-3.84,1.61-7.71,1.5-11.63-.12-4.28-.02-7.78-1.45-13.31s-8.18-15.23-12.74-20.24-17.82-12.72-19.4-13.33c-3.7-1.44-7.51-2.65-11.44-3.32-4.9-.84-9.75-.28-14.68.28-6.29.72-12.14,2.6-17.89,4.99-1.31.54-2.85,1.31-1.52,3.51-1.3-1.03-2.32-.84-3.25.04-3.1,2.92-7.16,4.69-9.81,8.13-1.37,1.78-2.68,3.61-3.94,5.48-5.58,8.24-8.63,17.26-8.78,27.22-.07,4.6.75,9.09,1.57,13.63.72,3.95,2.12,7.61,3.84,11.03,2.97,5.93,7.24,10.97,12.35,15.36,3.24,2.78,6.62,5.23,10.31,7.33,2.55,1.46,5.47,2.02,8.03,3.3,3.37,1.67,6.78,2.24,10.44,2.48,5.73.38,11.4-.2,17.01-1.06,2.23-.34,4.73-.41,6.8-1.86,1.57-1.1,2.32-2.94,4.09-3.95.82-.47,1.28-2.76-.66-3.85-.29-.16-.44-.47-.51-.79-.62-3.06-3.46-4.53-4.73-7.12-.17-.35-.65-.61-1.04-.59-4.5.15-8.82-.05-13.32-1.07-3.41-.77-7.45-.91-11.17.06-.52.14-1.29.33-1.53-.39-.3-.91.57-.76,1.07-.96,3.15-1.24,3.6-1.92,3.6-5.35,0-3.95-.1-7.91.02-11.85.06-1.81-.71-2.74-2.19-3.55-3.38-1.85-6.83-3.62-9.38-6.66-.32-.38-.74-.83-1.19-.92-3.69-.73-6.33-3.67-9.9-4.64-.37-.1-1.07-.23-.97-.93,1.31-.98,3.09-.47,4.67-1.66-6.14-1.9-12.07-3.62-18.55-4.14.89-.98,1.66-.71,2.33-.67,4.65.24,9.29.52,13.93.83,1.57.1,2.64,0,1.95-2.09-.31-.94-9.48-.37-9.43-1.39.07-1.55,1.26-2.23,2.42-1.7,3.08,1.41,15.12-.47,16.88,3.03.29.59,1.8,3.36,2.69,1.11.13-.32.68-.16.98.07,2.19,1.66,4.46,3.24,6.54,5.03,1.66,1.43,2.03,1.5,2.73-.65.46-1.41.55-2.95-.47-4.33-.59-.79-1.09-1.63-1.57-2.49-.62-1.11-1.21-2.46.8-2.28.94.08,1.89.13,2.83.07,3.24-.22,6.69-.12,7.4-4.35.08-.5.54-.99.93-1.36,5.16-4.95,10.86-5.11,15.8.53,1.69,1.92,3.46,3.14,5.8,3.93,1.48.5,3.21.98,3.9,2.99Zm28,42.41c1.91-1.85,2.7-4.32,3.42-6.63,2.52-8.13,4.06-16.37,3.44-25.06-.52-7.34-1.67-14.39-4.49-21.18-2.37-5.72-4.84-11.37-8.74-16.26-4.34-5.45-9.37-10.08-15.01-14.24-5.95-4.38-12.47-7.26-19.35-9.61-2.66-.91-5.56-.71-8.07-1.71-2.5-.99-4.55-.41-6.86.21.47.44.95.53,1.47.62,9.96,1.59,23.22,5.8,28.07,9.54s8.3,5.88,10.83,8.46,4.12,4.91,7.07,8.33c.95,1.1,3.17,4.37,3.91,5.65,3.55,6.15,6.05,12.73,7.84,19.59,2.02,7.75,2.13,15.62,1.04,23.45-.6,4.3-1.4,8.64-3.12,12.71-.83,1.96-.61,4.15-1.47,6.13Zm-124.94-8.32c-4.47-21.59-3.17-41.85,11.42-59.86,14.15-17.47,32.16-26.57,55-26.63-.49-.47-.61-.66-.78-.73-3.21-1.25-6.5.15-9.79-.09-1.97-.14-4.58.76-6.88,1.23-5.11,1.04-9.92,2.81-14.67,4.95-8.88,4-16.5,9.81-22.93,16.91-4.14,4.57-7.62,9.86-10.07,15.69-3.35,7.98-6.15,16.07-5.75,24.91.19,4.14-.43,8.29.15,12.42.57,4.02,1.89,7.79,4.3,11.21Zm59.26,1.92c0,1.51-.09,2.68.02,3.84.25,2.69,2.21,3.84,4.58,2.65.64-.32,1.24-.41,1.89-.33,3.26.43,3.1.2,3.82-3.03.95-4.24-.3-7.79-2.09-11.45-1.04-2.12-2.5-3.28-4.72-3.76-2.44-.52-3.75.27-3.38,2.72.5,3.28-.57,6.46-.12,9.36Zm.5-99.1c0,1.09,0,2.18,0,3.28,0,3.99.2,4.16,4.06,3.59.28-.04.58,0,.87,0,1.46.02,1.98-.7,2.06-2.14.14-2.69-.54-5.32-.48-8,.02-1.02-.61-1.59-1.61-1.68-.64-.05-1.17-.15-1.79-.52-2.09-1.28-3.12-.64-3.12,1.77,0,1.24,0,2.48,0,3.71Zm11.39,97.27c0,2.25-.02,4.11,0,5.97.05,3.1,2.52,4.59,5.42,3.37.82-.35,1.11-.77.57-1.43-1.99-2.43-3.14-5.48-6-7.91Zm-15.56-117.14c-4.1-1.12-7.38-4.84-12.32-2.02,4.07,1.61,7.6,4.09,12.32,2.02Zm14.54,12.62c-.24-.66-.67-.82-1.22-.8-1.67.08-1.2,1.58-1.59,2.48-.24.56.24,1.13.81.92,1.15-.44,1.18-1.83,2-2.6Zm-17.16-16.79c1.37.3,1.97-.86,2.99-.93.22-.02.58-.7.56-1.05-.05-.71-.73-.5-1.19-.54-1.83-.19-1.41,1.69-2.35,2.52Zm36.32-4.14c-.81-1.6-2.14-2.16-4.2-2.14,1.27,1.54,3.28.76,4.2,2.14Z"/>
  <rect class="cls-3" x="75.51" y="66.42" width="11.03" height="108.09" transform="translate(-54.26 67.78) rotate(-34.8)"/>
  <circle class="cls-1" cx="99.35" cy="103.22" r="1.18"/>
  <path class="cls-5" d="m60.37,26.27c2.97.58,5.96,1.13,8.92,1.76,3.1.65,6.16,1.42,9.06,3.1-1.58.37-2.53.27-6.46-1.13-2.9-1.04-5.98-.84-8.95-1.44-1.87-.38-3.49-.91-5.04-1.9.73-.71,1.63-.31,2.46-.39Z"/>
  <path class="cls-5" d="m73.49,25.47c-4.72,2.07-8.25-.41-12.32-2.02,4.93-2.82,8.21.9,12.32,2.02Z"/>
  <path class="cls-5" d="m88.03,38.09c-.82.77-.85,2.15-2,2.6-.56.22-1.05-.36-.81-.92.39-.89-.08-2.4,1.59-2.48.55-.03.98.14,1.22.8Z"/>
  <path class="cls-5" d="m70.86,21.3c.94-.83.52-2.71,2.35-2.52.46.05,1.14-.16,1.19.54.03.35-.33,1.03-.56,1.05-1.01.08-1.62,1.23-2.99.93Z"/>
  <path class="cls-5" d="m107.18,17.17c-.93-1.37-2.93-.6-4.2-2.14,2.06-.03,3.39.54,4.2,2.14Z"/>
</svg>