<?xml version="1.0" encoding="UTF-8"?>
<svg id="Layer_1" data-name="Layer 1" xmlns="http://www.w3.org/2000/svg" width="300" height="225" viewBox="0 0 300 225">
  <defs>
    <style>
      .cls-1 {
        fill: #fff;
      }

      .cls-2 {
        isolation: isolate;
        opacity: .35;
      }

      .cls-3 {
        fill: #232323;
      }

      .cls-4 {
        fill: #ff7e1c;
      }

      .cls-5 {
        fill: #444;
      }

      .cls-6 {
        fill: #ea651b;
      }

      .cls-7 {
        fill: #042c38;
      }

      .cls-8 {
        fill: #7f7f7f;
      }
    </style>
  </defs>
  <g>
    <g>
      <g class="cls-2">
        <ellipse class="cls-3" cx="141.94" cy="209.44" rx="58.29" ry="9.43"/>
      </g>
      <g>
        <g>
          <g>
            <path class="cls-3" d="m145.53,152.79c.26,1.7,5.63,49.12,13.75,55.8,8.12,6.68,12.31,4.45,14.02,2.62,1.7-1.83,3.93-5.11-.13-8.91-3.27-3.01-5.5-16.37-2.23-37.2l-25.41-12.31Z"/>
            <g>
              <path class="cls-3" d="m178.94,206.11c1.05.26,2.1.13,2.49-.52.39-.65-.26-1.83-1.44-2.49-3.27-1.57-7.07-2.1-10.74-1.44-1.44.26-1.96,1.7-1.31,3.01s1.83,1.96,2.75,1.7c2.49-.92,5.37-1.05,8.25-.26Z"/>
              <path class="cls-3" d="m177.36,212c.92.52,1.96.65,2.62.13.52-.52.26-1.83-.65-2.75-2.75-2.49-6.16-3.93-9.96-4.32-1.44-.13-2.36,1.05-2.1,2.49.26,1.44,1.18,2.36,2.1,2.36,2.62-.13,5.5.52,7.99,2.1Z"/>
              <path class="cls-3" d="m172.91,216.46c.52.92,1.44,1.57,2.23,1.31.79-.26,1.18-1.57.65-2.75-1.31-3.41-3.67-6.42-6.94-8.38-1.18-.79-2.62-.13-3.01,1.31-.39,1.31,0,2.62.79,3.01,2.62,1.05,4.85,3.01,6.29,5.5Z"/>
            </g>
          </g>
          <g>
            <path class="cls-3" d="m140.56,152.4c-.26,1.7-5.89,49.12-13.88,55.67-8.12,6.68-12.31,4.32-14.02,2.62-1.7-1.83-3.93-5.24.13-8.91,3.27-3.01,5.5-16.37,2.36-37.2l25.41-12.18Z"/>
            <g>
              <path class="cls-3" d="m108.33,206.11c-1.05.26-2.1.13-2.49-.52s.26-1.83,1.44-2.49c3.27-1.57,7.07-2.1,10.74-1.31,1.44.26,1.96,1.7,1.31,3.01s-1.83,1.96-2.75,1.57c-2.49-.92-5.37-1.05-8.25-.26Z"/>
              <path class="cls-3" d="m109.91,212c-.92.52-1.96.65-2.62.13-.52-.52-.26-1.83.65-2.75,2.75-2.36,6.29-3.93,9.96-4.32,1.44-.13,2.36,1.18,2.1,2.49-.26,1.44-1.18,2.36-2.1,2.36-2.62-.13-5.5.52-7.99,2.1Z"/>
              <path class="cls-3" d="m114.36,216.46c-.52.92-1.44,1.57-2.23,1.31s-1.05-1.57-.65-2.75c1.31-3.41,3.8-6.29,6.94-8.38,1.18-.79,2.62-.13,3.01,1.31.39,1.31,0,2.62-.79,3.01-2.62,1.05-4.85,3.01-6.29,5.5Z"/>
            </g>
          </g>
        </g>
        <path class="cls-5" d="m186.14,127.78c-1.7-16.37-8.51-36.28-21.48-43.49-5.5-3.14-11.92-5.37-20.83-6.81-2.1.39-4.06.79-5.89,1.18-.26.13-.65.13-.92.26-.52.13-1.05.26-1.57.39-.39.13-.65.13-1.05.26-.52.13-1.05.26-1.57.52-.26.13-.52.13-.79.26-.79.26-1.44.52-2.23.79-.26.13-.39.13-.65.26-.52.26-1.05.39-1.57.65-.26.13-.52.26-.65.26-.52.26-.92.39-1.44.65-.26.13-.39.13-.65.26-.65.26-1.31.65-1.96,1.05-13.88,7.73-20.7,30-21.88,46.89-.13,2.49-.13,4.85-.13,7.07,0,5.76.39,10.48,1.05,13.36,0,.13.13.26.13.39,3.41,15.72,20.83,27.64,41.65,27.64,23.45,0,42.44-14.93,42.44-33.27v-.52c.39-4.98.39-11.27,0-18.08Z"/>
        <path class="cls-1" d="m175.14,81.93c-5.37-6.16-12.31-9.17-26.07-9.69h-7.86c-.92,0-1.7,0-2.49.13h-.26c-13.75.52-20.7,3.54-26.07,9.56-7.07,8.12-10.74,31.18-11.53,49.12,1.18-16.9,8.12-39.17,21.88-46.89,5.5-3.01,12.05-5.24,20.83-6.68,8.91,1.44,15.33,3.8,20.83,6.81,13.88,7.73,20.7,30,21.74,46.89-.39-18.08-3.93-41.13-11-49.25Z"/>
      </g>
    </g>
    <path class="cls-3" d="m116.54,95.75c4.83-3.95,11.76-3.88,16.1,1.25,4.33,5.14,3.36,15.47-3.33,20.83-19.12,15.83-43.37,20.54-66.94,13.07-8.22-2.56-13.1-11.62-10.88-18.11,2.21-6.49,8.55-9.02,14.44-7.15,17.94,5.43,36.12,1.95,50.61-9.89Z"/>
    <g>
      <path class="cls-1" d="m143.46,27.43c6.93-.47,14.83-3.74,19.34-5.21,5.28-1.72,7.82-1.93,11.78-2.2,11.99-.81,16.1,5.23,17.28,7.72C182.35,3.98,157.11,2.26,142.34,3.26l-1.22.08c-14.77,1-39.55,6.1-45.77,30.94.83-2.63,4.09-9.17,16.08-9.98,3.96-.27,6.51-.4,11.97.6,4.66.85,12.93,3.02,19.86,2.55h.2Z"/>
      <path class="cls-5" d="m95.39,34.3l-.04-.02c.83-2.63,4.09-9.17,16.08-9.98,3.96-.27,6.51-.4,11.97.6,4.66.85,12.93,3.02,19.86,2.55h.2c6.93-.48,14.83-3.75,19.34-5.22,5.28-1.72,7.82-1.93,11.78-2.2,11.99-.81,16.1,5.23,17.28,7.72l-.04.03c2.7,2.26,4.82,8.53,5.1,16,.36,9.48-2.36,17.28-6.08,17.42-.07,0-.14-.02-.21-.02-7.45,17.92-30.53,27.57-42.93,28.41-12.4.84-36.74-5.59-46.6-22.35-.08.01-.15.04-.23.05-3.7.36-7.45-7-8.37-16.44-.73-7.45.52-13.94,2.89-16.54Z"/>
      <path class="cls-8" d="m146.78,77.06c6.26-.42,19.17-7.13,18.31-19.87-.86-12.74-15.6-12.76-20.54-12.42-4.94.33-19.56,2.34-18.69,15.08.87,12.74,14.66,17.64,20.93,17.21Z"/>
      <path class="cls-3" d="m144.47,48.13c-2.72.19-6.56,3.3-6.81,6.65-.25,3.35,7.62,2.69,7.62,2.69h.22s7.88-.43,7.18-3.71c-.7-3.28-4.91-5.85-7.64-5.66l-.58.04Z"/>
      <g>
        <circle class="cls-3" cx="164.2" cy="37.09" r="2.41" transform="translate(-2.08 10.88) rotate(-3.77)"/>
        <path class="cls-3" d="m121.61,39.97c.09,1.33,1.24,2.33,2.57,2.24,1.33-.09,2.33-1.24,2.24-2.57-.09-1.33-1.24-2.34-2.57-2.25-1.33.09-2.33,1.24-2.24,2.57Z"/>
      </g>
      <path class="cls-3" d="m100.86,39.37c-3.05.32-5.14,6.25-5.53,14.45-.18-1.01-.32-2.07-.43-3.17-.69-7.42.71-13.64,3.12-13.9,1.03-.11,2.07.89,2.98,2.63-.05,0-.1-.01-.14-.01Z"/>
      <path class="cls-3" d="m187.09,33.53c3.06-.09,5.93,5.5,7.44,13.57.04-1.03.04-2.1,0-3.2-.32-7.45-2.55-13.42-4.97-13.35-1.03.03-1.93,1.16-2.6,3.01.04,0,.09-.03.14-.03Z"/>
      <path class="cls-8" d="m128.82,37.42c-.2,0-.4-.1-.52-.28-.43-.63-.97-1.17-1.61-1.6-.54-.36-3.67-1.03-4.44-.88-.79.16-1.52.46-2.17.91-.29.2-.68.12-.88-.17-.2-.29-.12-.68.17-.88.79-.54,1.68-.91,2.63-1.1,1.01-.2,4.53.5,5.38,1.07.77.52,1.43,1.17,1.95,1.94.2.29.12.68-.17.88-.11.07-.23.11-.35.11Z"/>
      <path class="cls-8" d="m169.3,28.41c-.18,0-.36-.08-.49-.23-.48-.59-1.07-1.08-1.75-1.45-.56-.31-3.76-.7-4.5-.48-.77.23-1.47.6-2.08,1.1-.27.22-.67.18-.89-.09-.22-.27-.18-.67.09-.89.74-.61,1.59-1.06,2.52-1.33.99-.29,4.56.09,5.46.58.82.45,1.53,1.04,2.12,1.75.22.27.18.67-.09.89-.12.1-.26.14-.4.14Z"/>
      <path class="cls-3" d="m145.76,72.56c-1.47,0-2.79-.32-3.68-.61-1.48-.56-2.64-1.24-3.69-2.16-1.12-.98-2.05-2.18-2.62-3.37-.17-.36-.02-.78.34-.95.36-.17.78-.02.95.34.48,1.01,1.31,2.07,2.28,2.91.92.8,1.94,1.4,3.22,1.88.87.28,2.26.61,3.75.52,1.39-.09,2.55-.41,3.65-1,1.04-.5,2.1-1.33,2.94-2.29.8-.92,1.4-1.94,1.88-3.22.14-.37.55-.55.92-.42.37.14.56.55.42.92-.54,1.44-1.23,2.61-2.15,3.66-.98,1.12-2.18,2.05-3.37,2.62-1.26.68-2.6,1.05-4.2,1.15-.21.01-.43.02-.63.02Z"/>
    </g>
  </g>
  <g>
    <path class="cls-7" d="m108.98,151.25h-22.42c-7.9,0-14.76-5.42-16.59-13.1h0c-2.57-10.81-3.88-21.89-3.88-33.01h0v-3.3l1.4-46.98c.34-11.26,9.56-20.21,20.82-20.21h19.1c11.26,0,20.49,8.95,20.82,20.21l1.4,46.98v3.49c0,10.99-1.29,21.94-3.84,32.64h0c-1.85,7.79-8.81,13.29-16.82,13.29Z"/>
    <path class="cls-1" d="m110.77,113.14h-25.81c-10.12,0-18.26-8.34-18-18.46l.99-39c.28-11.15,9.41-20.05,20.56-20.05h18.69c11.16,0,20.28,8.89,20.56,20.05l.99,39c.26,10.12-7.88,18.46-18,18.46Z"/>
    <path class="cls-7" d="m107.33,36.65c10.29,0,18.56,8.19,18.82,18.65l1.01,40.08c.11,4.54-1.56,8.82-4.7,12.04-3.07,3.15-7.16,4.88-11.53,4.88h-26.14c-4.36,0-8.46-1.73-11.53-4.88-3.15-3.23-4.81-7.5-4.7-12.04l1.01-40.08c.26-10.46,8.53-18.65,18.82-18.65h18.93m0-2h-18.93c-11.3,0-20.54,9.14-20.82,20.6l-1.01,40.08c-.26,10.4,7.98,18.97,18.23,18.97h26.14c10.25,0,18.49-8.57,18.23-18.97l-1.01-40.08c-.29-11.46-9.53-20.6-20.82-20.6h0Z"/>
    <g>
      <g>
        <rect class="cls-1" x="77.38" y="115.75" width="11.86" height="5.89" rx="2.95" ry="2.95"/>
        <rect class="cls-1" x="91.93" y="115.75" width="11.86" height="5.89" rx="2.95" ry="2.95"/>
        <rect class="cls-1" x="106.49" y="115.75" width="11.86" height="5.89" rx="2.95" ry="2.95"/>
      </g>
      <g>
        <rect class="cls-1" x="77.38" y="124.11" width="11.86" height="5.89" rx="2.95" ry="2.95"/>
        <rect class="cls-1" x="91.93" y="124.11" width="11.86" height="5.89" rx="2.95" ry="2.95"/>
        <rect class="cls-1" x="106.49" y="124.11" width="11.86" height="5.89" rx="2.95" ry="2.95"/>
      </g>
      <g>
        <rect class="cls-1" x="77.38" y="132.47" width="11.86" height="5.89" rx="2.95" ry="2.95"/>
        <rect class="cls-1" x="91.93" y="132.47" width="11.86" height="5.89" rx="2.95" ry="2.95"/>
        <rect class="cls-1" x="106.49" y="132.47" width="11.86" height="5.89" rx="2.95" ry="2.95"/>
      </g>
      <g>
        <rect class="cls-1" x="77.38" y="140.83" width="11.86" height="5.89" rx="2.95" ry="2.95"/>
        <rect class="cls-1" x="91.93" y="140.83" width="11.86" height="5.89" rx="2.95" ry="2.95"/>
        <rect class="cls-1" x="106.49" y="140.83" width="11.86" height="5.89" rx="2.95" ry="2.95"/>
      </g>
    </g>
    <path class="cls-7" d="m108.34,103.04h-20.94c-8.29,0-14.94-7.83-14.69-17.29l.68-25.98c.27-10.37,7.71-18.61,16.79-18.61h15.4c9.08,0,16.52,8.25,16.79,18.61l.68,25.98c.25,9.47-6.4,17.29-14.69,17.29Z"/>
  </g>
  <g>
    <path class="cls-3" d="m74.02,106.97c1.74-.34,3.48-1.37,3.56-2.55,0-1.39-1.58-2.72-3.94-2.87-6.25-.04-12.37,1.73-17.6,5.51-1.88,1.31-1.9,4.08-.04,5.55,1.86,1.47,4.08,1.9,5.27.59,3.35-3.17,7.67-5.5,12.74-6.24Z"/>
    <path class="cls-3" d="m75.75,117.26c1.73.36,3.61-.25,4.11-1.57.49-1.32-.81-3.2-3.1-3.84-5.89-1.77-12.35-1.75-18.61.3-2.3.75-2.8,3.45-1.49,5.34,1.37,2.09,3.45,2.8,4.85,2.11,4.39-2.12,9.18-3,14.25-2.34Z"/>
    <path class="cls-3" d="m77.48,121.77c1.81-.13,3.61.44,4.08,1.9.41,1.25-1.06,3.12-3.22,3.59-5.98,1.49-12.57,1.1-18.53-1.58-2.15-.92-2.55-3.56-1.08-5.42,1.47-1.86,3.77-2.61,4.94-1.84,4.01,2.39,8.79,3.6,13.79,3.35Z"/>
  </g>
  <g>
    <path class="cls-3" d="m174.98,94.79c-2.09-3.09-6.05-4.32-9.47-2.1-3.42,2.21-4.56,8.25-1.67,12.58,8.2,12.34,21.29,19.24,36.11,19.04,5.21-.07,9.55-4.42,9.44-8.48-.1-4.09-3.35-6.65-7.08-6.64-11.2.15-21.11-5.07-27.32-14.4Z"/>
    <path class="cls-3" d="m204.08,109.93c-1.23-.24-2.52.08-2.9.93-.37.85.46,2.18,1.96,2.73,4.05,1.5,8.56,1.7,12.86.45,1.6-.46,2.11-2.23,1.23-3.68-.89-1.45-2.32-2.13-3.35-1.64-2.92,1.39-6.35,1.88-9.8,1.2Z"/>
    <path class="cls-3" d="m205.63,112.69c-1.17-.45-2.5-.36-3.02.41-.52.77.07,2.22,1.45,3.03,3.72,2.19,8.13,3.18,12.58,2.71,1.66-.17,2.47-1.82,1.86-3.4-.61-1.59-1.91-2.51-3.01-2.21-3.12.86-6.58.73-9.85-.54Z"/>
    <path class="cls-3" d="m205.06,116.92c-1.17-.45-2.5-.36-3.02.41-.52.77.07,2.22,1.45,3.03,3.72,2.19,8.13,3.18,12.57,2.72,1.66-.17,2.47-1.82,1.86-3.4-.62-1.58-1.91-2.5-3.01-2.21-3.11.86-6.58.73-9.85-.55Z"/>
    <path class="cls-3" d="m207.21,103.33c-.09-1.25.48-2.49,1.55-2.76,1.05-.26,2.51.74,2.93,2.29,1.17,4.21.73,8.7-1.39,12.81-.8,1.53-2.96,1.82-4.54.75-1.59-1.07-2.17-2.57-1.44-3.53,2.09-2.72,3.18-6.07,2.9-9.57Z"/>
  </g>
  <g>
    <g>
      <path class="cls-6" d="m83.94,81.77c1.16,1.43,2.55,2.7,4.18,3.74,8.24,5.32,19.25,2.96,24.58-5.29,2.84-4.4,3.49-9.59,2.22-14.27-.43,2.93-1.48,5.83-3.19,8.48-6.03,9.34-18.13,12.4-27.8,7.34Z"/>
      <path class="cls-4" d="m82.82,60.94c-4.28,6.63-3.6,15.02,1.12,20.83,9.66,5.05,21.75,2,27.79-7.34,1.72-2.65,2.76-5.54,3.19-8.48-1.1-4.1-3.67-7.82-7.52-10.3-8.24-5.33-19.26-2.96-24.57,5.29Z"/>
    </g>
    <path class="cls-1" d="m103.15,70.77c.4.5.55,1.18.48,2.06-.12,1.05-.55,1.82-1.31,2.3-.66.4-1.64.64-2.94.72v2.03h-1.47v-2h-1.13v2h-1.47v-2.03h-2.89l.3-1.73h.3c.47.02.78,0,.92-.03.2-.06.32-.21.36-.45v-6.47c-.06-.32-.23-.52-.51-.59-.17-.06-.55-.08-1.14-.06h-.23v-1.55l.89.03c1.06,0,1.72-.01,2-.03v-2.35h1.47v2.32l1.13-.03v-2.29h1.47v2.36c1.01.1,1.78.32,2.32.65.65.4,1.02,1,1.07,1.79.12,1.15-.28,1.96-1.22,2.44h0c.73.17,1.27.47,1.61.93h0Zm-6.35-1.29h.24c.84.02,1.49-.03,1.94-.14.79-.2,1.2-.63,1.2-1.28s-.39-1.09-1.17-1.31c-.43-.12-1.07-.17-1.94-.14-.14.02-.23.03-.27.03v2.86h0Zm.27,4.63c1.02.02,1.78-.03,2.31-.15.92-.24,1.39-.71,1.39-1.43s-.45-1.19-1.37-1.43c-.49-.14-1.25-.19-2.27-.15h-.32v3.16h.26Z"/>
  </g>
</svg>