<?xml version="1.0" encoding="UTF-8"?>
<svg id="Layer_1" data-name="Layer 1" xmlns="http://www.w3.org/2000/svg" width="300" height="225" viewBox="0 0 300 225">
  <defs>
    <style>
      .cls-1 {
        fill: #fff;
      }

      .cls-2 {
        isolation: isolate;
        opacity: .35;
      }

      .cls-3 {
        fill: #232323;
      }

      .cls-4 {
        fill: #444;
      }

      .cls-5 {
        fill: #3b3b3b;
      }

      .cls-6 {
        fill: #7f7f7f;
      }

      .cls-7 {
        fill: #976b42;
      }

      .cls-8 {
        fill: #704420;
      }
    </style>
  </defs>
  <g>
    <g class="cls-2">
      <ellipse class="cls-3" cx="191.96" cy="207.26" rx="84.64" ry="7.18"/>
    </g>
    <g>
      <rect class="cls-7" x="91.29" y="9.76" width="202.94" height="125"/>
      <rect class="cls-5" x="99.78" y="17.33" width="185.96" height="110.56"/>
      <rect class="cls-7" x="189.34" y="130.63" width="6.85" height="78.56"/>
      <g>
        <polygon class="cls-7" points="128.35 209.19 173.43 128.62 178.75 132.93 137.41 209.19 128.35 209.19"/>
        <polygon class="cls-7" points="257.17 209.19 212.09 128.62 206.77 132.93 248.11 209.19 257.17 209.19"/>
      </g>
    </g>
    <g>
      <path class="cls-3" d="m73.77,111.1c-2.38-1.43-5.44-1.02-7.05,1.56-1.61,2.56-.49,7,2.82,9.02,9.41,5.75,20.41,6.3,30.34,1.52,3.49-1.68,5.06-5.98,3.71-8.69-1.35-2.73-4.35-3.44-6.86-2.26-7.52,3.62-15.84,3.2-22.96-1.15Z"/>
      <path class="cls-3" d="m107.76,115.72c.78-.17,1.47-.69,1.47-1.28,0-.6-.82-1.16-1.85-1.11-2.76.13-5.47,1.16-7.7,2.97-.82.68-.68,1.85.2,2.48.89.63,1.91.67,2.39.12,1.37-1.56,3.27-2.71,5.47-3.18Z"/>
      <path class="cls-3" d="m107.83,117.81c.74-.31,1.59-.27,1.94.21.34.48,0,1.42-.88,1.97-2.35,1.47-5.15,2.18-8.02,1.96-1.06-.08-1.61-1.12-1.24-2.15.36-1.03,1.18-1.64,1.89-1.47,2.02.5,4.23.35,6.31-.52Z"/>
    </g>
    <g>
      <g class="cls-2">
        <ellipse class="cls-3" cx="61.92" cy="211.35" rx="38.38" ry="6.2"/>
      </g>
      <path class="cls-3" d="m34.12,167.43c.16,1.25,4.31,36.7,10.35,41.67,6.04,4.97,9.21,3.29,10.43,1.98,1.29-1.39,2.91-3.87-.1-6.67-2.42-2.25-4.11-12.24-1.7-27.82l-18.98-9.14Z"/>
      <path class="cls-3" d="m57.17,165.22c.16,1.25,4.31,36.7,10.35,41.67,6.04,4.97,9.21,3.3,10.43,1.97,1.29-1.38,2.91-3.87-.1-6.67-2.42-2.26-4.12-12.24-1.7-27.82l-18.98-9.14Z"/>
      <path class="cls-1" d="m38.95,113.89c6.98-3.87,15.82-5.95,32.15-6.59-3.89-1.65-9.04-2.41-16.58-2.41h-.01c-12.9,0-18.87,2.2-23.36,7.31-5.3,6.04-7.98,23.3-8.52,36.74.86-12.62,5.98-29.3,16.32-35.05Z"/>
      <path class="cls-4" d="m22.62,148.94c-.12,1.85-.15,3.61-.1,5.24,0-1.65.03-3.41.1-5.24Z"/>
      <path class="cls-1" d="m34.38,88.81c-2.07-11.47,5.99-18.18,25.97-19.38,6.34-.38,12.2-7.82,16.78-9.19,13.18-3.92,16.3,4.67,16.3,4.67h.03c-6.49-14.84-25-23.52-44.64-19.89-22.29,4.13-37.56,22.55-34.11,41.16,3.44,18.61,24.3,30.35,46.58,26.23,1.94-.36,3.83-.83,5.65-1.4v-.02c-19.38,4.99-29.81-6.94-32.56-22.17Z"/>
      <path class="cls-4" d="m95.4,71.25c-.41-2.22-1.07-4.33-1.95-6.33h-.03s-3.13-8.59-16.3-4.67c-4.58,1.36-10.44,8.81-16.78,9.19-19.97,1.2-28.04,7.9-25.97,19.38,2.75,15.23,13.19,27.16,32.56,22.17v.02c19.15-5.94,31.61-22.77,28.46-39.75Z"/>
      <path class="cls-6" d="m74.66,103.44c-4.24.96-13.27-1.18-13.31-10.35-.04-9.16,9.9-12.13,13.25-12.89,3.35-.75,13.3-2.27,13.34,6.89.04,9.17-9.03,15.39-13.28,16.35Z"/>
      <path class="cls-3" d="m74.81,82.57c1.84-.42,4.58,1.01,4.91,3.32.33,2.31-5.01,3.43-5.01,3.43l-.16.03s-5.34,1.29-5.02-1.17c.31-2.46,3.03-5.11,4.87-5.53l.4-.09Z"/>
      <path class="cls-3" d="m73.19,99.16c-.46,0-.91-.05-1.34-.15-.91-.21-1.71-.6-2.4-1.17-.69-.57-1.23-1.3-1.62-2.16-.08-.17,0-.37.17-.44.17-.08.37,0,.44.17.34.77.83,1.42,1.43,1.92.6.5,1.32.85,2.12,1.03.82.18,1.7.17,2.6-.03.91-.21,1.8-.6,2.64-1.16.81-.55,1.54-1.24,2.16-2.04.63-.81,1.12-1.7,1.45-2.64.06-.17.25-.26.43-.2.17.06.27.26.2.43-.36,1.01-.89,1.96-1.56,2.82-.67.86-1.45,1.6-2.32,2.19-.91.61-1.87,1.04-2.87,1.26-.53.12-1.05.18-1.55.18Z"/>
      <circle class="cls-3" cx="56.75" cy="81.02" r="1.68"/>
      <circle class="cls-3" cx="82.72" cy="71.83" r="1.68"/>
      <path class="cls-4" d="m40.49,90.79c1.29,6.49.27,12.15-2.27,12.66-2.54.5-5.64-4.35-6.93-10.83-1.29-6.49-.27-12.15,2.27-12.65,2.54-.51,5.64,4.34,6.93,10.82Z"/>
      <path class="cls-3" d="m36.31,84.09c-2.09.43-3.13,4.68-2.85,10.4-.19-.69-.37-1.42-.51-2.18-.98-5.1-.44-9.51,1.22-9.85.7-.15,1.5.48,2.25,1.62-.03,0-.07,0-.1,0Z"/>
      <path class="cls-6" d="m51.58,82.44c-.19,0-.35-.15-.37-.34-.06-.63.01-1.27.2-1.88.19-.61.49-1.17.89-1.67.42-.51.92-.93,1.51-1.24.59-.31,1.22-.5,1.88-.56.21-.02.38.13.4.34.02.2-.13.38-.34.4-.56.05-1.09.21-1.59.47-.5.26-.93.62-1.28,1.05-.34.42-.6.9-.76,1.42-.16.52-.22,1.06-.17,1.6.02.2-.13.38-.34.4-.01,0-.02,0-.03,0Z"/>
      <path class="cls-6" d="m87.02,69.91c-.13,0-.26-.07-.32-.19-.27-.49-.64-.92-1.08-1.26-.45-.35-.95-.6-1.48-.74-.52-.14-1.06-.18-1.6-.11-.54.07-1.05.24-1.53.5-.18.1-.41.04-.5-.14-.1-.18-.04-.41.14-.5.56-.31,1.16-.51,1.8-.59.64-.08,1.27-.04,1.89.13.63.17,1.22.46,1.75.87.52.41.95.91,1.28,1.49.1.18.04.4-.14.5-.06.03-.12.05-.18.05Z"/>
      <path class="cls-4" d="m77.87,112.21c-1.64-1.87-3.48-3.34-5.78-4.47-.32-.15-.66-.29-1-.44-2.63.1-5.05.25-7.31.43-5.56.19-9.91.82-13.44,1.93-4.56,1.06-8.17,2.45-11.39,4.24-10.35,5.75-15.47,22.43-16.32,35.05-.07,1.83-.11,3.59-.1,5.25.02,4.27.29,7.81.8,9.95.55,2.32,2.77,4.29,6.25,5.86,5.55,2.49,14.35,3.91,24.93,3.91h.01c.99,0,1.96-.02,2.92-.04.3,0,.59-.02.88-.03.67-.03,1.32-.05,1.97-.09.32-.02.64-.04.96-.05.63-.04,1.25-.09,1.86-.13.29-.03.58-.04.86-.08.74-.06,1.47-.14,2.18-.23.12-.02.25-.03.38-.04.84-.1,1.66-.22,2.45-.35.19-.03.38-.07.57-.1.59-.1,1.18-.21,1.75-.32.24-.05.47-.09.71-.15.51-.11,1.01-.22,1.5-.34.22-.06.45-.11.67-.16.53-.14,1.04-.28,1.54-.44.12-.03.24-.06.36-.1h-.02c3.41-1.06,6.05-2.4,7.73-4,.02-.02.03-.04.05-.05.31-.3.6-.62.84-.93.09-.12.15-.26.24-.39.14-.22.3-.44.41-.66.18-.36.31-.72.4-1.1,2.16-9.05.08-42.95-7.82-51.93Z"/>
      <ellipse class="cls-4" cx="54.62" cy="160.12" rx="31.69" ry="24.97"/>
      <path class="cls-3" d="m58.11,207.62c.76.22,1.59.09,1.87-.42.28-.51-.17-1.39-1.08-1.82-2.46-1.17-5.28-1.55-8.06-1.01-1.03.21-1.45,1.29-.98,2.24.47.96,1.34,1.47,2.01,1.22,1.92-.71,4.1-.83,6.23-.21Z"/>
      <path class="cls-3" d="m56.93,212.03c.67.42,1.5.52,1.92.11s.22-1.38-.53-2.05c-2.04-1.81-4.64-2.95-7.46-3.21-1.05-.09-1.75.83-1.56,1.88.19,1.06.88,1.79,1.59,1.74,2.04-.16,4.16.35,6.04,1.53Z"/>
      <path class="cls-3" d="m53.68,215.36c.4.68,1.1,1.16,1.66.98.55-.18.83-1.13.46-2.07-.99-2.54-2.79-4.74-5.18-6.25-.89-.56-1.94-.07-2.25.96-.31,1.03-.03,1.99.63,2.27,1.88.79,3.55,2.21,4.68,4.11Z"/>
      <path class="cls-3" d="m82.21,205c.75.21,1.59.09,1.87-.42.28-.51-.17-1.4-1.08-1.83-2.46-1.17-5.28-1.55-8.06-1.01-1.03.2-1.45,1.28-.98,2.24.47.97,1.34,1.47,2.01,1.23,1.92-.71,4.1-.83,6.23-.21Z"/>
      <path class="cls-3" d="m81.03,209.41c.67.42,1.5.53,1.91.11.42-.41.23-1.39-.53-2.05-2.04-1.81-4.65-2.96-7.46-3.21-1.05-.09-1.75.83-1.56,1.88.19,1.06.88,1.78,1.59,1.73,2.04-.15,4.17.35,6.04,1.54Z"/>
      <path class="cls-3" d="m77.77,212.74c.4.68,1.1,1.16,1.66.97.55-.18.83-1.13.46-2.07-.99-2.54-2.79-4.75-5.18-6.25-.89-.56-1.93-.06-2.24.96-.32,1.03-.03,1.99.63,2.27,1.89.8,3.55,2.21,4.68,4.11Z"/>
      <path class="cls-1" d="m71.05,140.46c-.17,0-.34-.02-.51-.05-1.46-.28-2.41-1.69-2.13-3.15l3.29-17c.28-1.46,1.7-2.41,3.15-2.13,1.46.28,2.41,1.69,2.13,3.15l-3.29,17c-.25,1.28-1.37,2.18-2.63,2.18Z"/>
      <path class="cls-8" d="m103.3,119.04c-.21-.26-.38-.56-.5-.91-.4-1.25.23-2.6,1.37-3.23l90-44.78c.7-.35,1.6-.85,2.33-.55,1.4.58-.69,1.47-2.4,2.41l-87.45,47.67c-1.15.63-2.55.34-3.36-.63Z"/>
    </g>
    <g>
      <path class="cls-3" d="m42.64,120.89c-1.78-2.13-4.8-2.75-7.17-.85-2.37,1.89-2.76,6.44-.3,9.44,6.99,8.52,17.2,12.67,28.16,11.41,3.85-.44,6.74-3.98,6.36-6.98-.38-3.02-2.98-4.68-5.74-4.39-8.29.95-16.01-2.18-21.3-8.63Z"/>
      <path class="cls-3" d="m72.45,131.81c.74-.14,1.4-.6,1.42-1.16.02-.56-.74-1.12-1.7-1.09-2.6.05-5.16.93-7.3,2.56-.79.62-.69,1.71.12,2.33.81.62,1.77.68,2.23.18,1.33-1.42,3.15-2.45,5.22-2.83Z"/>
      <path class="cls-3" d="m73.33,136.06c.75.07,1.51-.19,1.68-.72.18-.53-.4-1.28-1.32-1.52-2.51-.67-5.22-.54-7.72.44-.93.37-1.14,1.45-.53,2.27.61.82,1.51,1.14,2.09.8,1.67-.99,3.7-1.47,5.79-1.26Z"/>
      <path class="cls-3" d="m71.97,140.29c.63.41,1.43.52,1.82.12.39-.39.22-1.32-.49-1.96-1.92-1.74-4.4-2.85-7.07-3.12-.99-.1-1.67.77-1.5,1.78.17,1.01.82,1.7,1.5,1.66,1.94-.12,3.97.37,5.74,1.52Z"/>
    </g>
    <path class="cls-3" d="m107.31,114.45c.78.16,1.62-.03,1.87-.57.24-.54-.28-1.4-1.23-1.77-2.58-1-5.48-1.16-8.24-.41-1.03.29-1.37,1.41-.82,2.35.55.94,1.47,1.39,2.13,1.08,1.89-.87,4.09-1.15,6.29-.68Z"/>
  </g>
  <g>
    <path class="cls-1" d="m109.62,54.27h.06c.1.04.23.18.4.4.35.15.52.39.52.71h.03l-.09.85.02.03v.03c-.42,3.08-.78,5.19-1.07,6.35-.12.45-.2,1.06-.25,1.83-.05,0-.12.07-.22.22-.18,0-.27.08-.27.25l-.06.33c-.12.15-.22.23-.3.25-.08-.05-.23-.09-.46-.12l-.22-.46c0-.4.08-.95.25-1.65l-.03-.03v-.03c.2-.83.36-1.9.46-3.19h-.03l.03-.03v-.03l.09-1.4h-.03l.03-.03v-.03c.16-2.83.54-4.24,1.13-4.24Z"/>
    <path class="cls-1" d="m119.26,53.88c.96,0,1.96.28,3.02.85.59.36.96.64,1.1.85l.1.33c-.14.47-.3,1.11-.46,1.9-.24.58-.57,1.21-.97,1.89v.1l1.4.27c.63.12,1.29.33,1.98.64.4.19.72.44.97.77l.06.28c-.14.92-.36,1.57-.65,1.94-.14.31-.45.61-.94.92-.36.25-.79.45-1.28.58-.28.07-.68.13-1.19.18l-.15-.03h-.03l-.77.03-.79-.22c-.2-.12-.33-.18-.4-.18h-.06l-.4.03-.12-.03-.15.03c-.75,0-1.18-.17-1.28-.52h.03l.06-.06-.1-.09.18-.18-.09-.4.02-.03v-.03c-.04-.06-.08-.3-.12-.72l.03-.03-.06-.58.06-.7-.06-.4.03-.09c-.28-.17-.42-.35-.42-.55,0-.14.13-.28.39-.43l.03-.09c-.14-1.24-.26-1.98-.33-2.2l.03-.03v-.02c-.22-1.12-.41-1.68-.58-1.68l-.55-.15c-.22.14-.36.22-.42.22h-.37c-.18,0-.31-.14-.4-.43,0-.38.59-.87,1.77-1.47l.61-.2c.51-.17.92-.25,1.24-.25Zm.86,7.93l.15,1.25c-.09.45-.24.67-.46.67l-.09.03h-.03l-.27-.09-.1.27.12.06.95-.06.03.03h.03l.3-.06.1.03c1.18-.2,1.96-.4,2.34-.58.68-.26,1.19-.63,1.53-1.12.05,0,.09-.08.12-.25v-.03c0-.25-.88-.59-2.65-1h-.18s-.19-.07-.45-.09c-.42,0-.74.14-.98.42-.3.24-.45.39-.45.43v.09Zm-.73-6.01c.17.57.29,1.23.37,1.98l.03.03-.03.09.09.83v.18l.06.05c.75-.63,1.23-1.14,1.43-1.55.37-.6.55-1.09.55-1.47v-.05c0-.06-.22-.12-.65-.16l-.03.03c-.2-.04-.52-.05-.97-.05h-.37c-.32,0-.49.03-.49.09Z"/>
    <path class="cls-1" d="m136.8,54l.59.03h.47l.19.08.5-.08.33.11.04-.03h.03c.32,0,.88.1,1.69.29v.03l-.06.08c.01.09.09.13.24.13v.03c0,.15-.08.31-.24.46l.03.03c.01.09.07.14.17.14l.1.56c0,.08-.13.18-.4.3l-1.37-.16-.03.03h-.03l-.17-.03-1.43.1-.16-.03c-.09.04-.67.11-1.74.2l-.06.1.03.03-.03.03h.03l-.03.03v.03c.04.17.09.68.13,1.53l.03.04-.03.03v.03l.03.23-.03.44.03.03v.03l-.03.03.03.37-.1,4.3c0,.21.04.46.13.77v.27c-.14.22-.32.33-.53.33-.42-.1-.71-.22-.86-.37l-.04.03.08.19v.24c0,.12-.08.23-.24.33-.24,0-.55-.18-.94-.53-.29-.55-.43-1.06-.43-1.51l.03-.13v-.03l-.03-.03.03-.03v-.3l-.03-.8.03-.04v-.03l-.06-.1.06-.19v-.04l-.03-.1.03-.16v-.37c-.13-1.87-.24-2.8-.33-2.8l.03-.14c-.05,0-.13-.41-.23-1.23-.35,0-1.19.18-2.5.54l-2.28,1.13-.16.03c-.71-.17-1.07-.46-1.07-.87,0-.27.15-.44.46-.53.72-.36,1.2-.57,1.43-.64.18-.22.33-.33.44-.33.14-.08.51-.2,1.13-.37.92-.42,2-.8,3.23-1.13l.06-.06h.13c.21,0,.51-.08.91-.24l.1.03c.42-.03.64-.08.64-.16l.24.03.4-.1.03.03h.03l1.34-.17Zm-3.23,2.64c.02.64.05.96.1.96l-.03.03v.03l.19,1.24-.03.03.17,1.43-.03.13.03.37-.03.14.03.13h.06l.06-1.1-.03-.67v-.1l-.03-.03.03-.03v-.11h-.03l.03-.23v-.06c0-.16-.02-.28-.06-.37l.03-.11-.06-.37.03-.1c-.07-.89-.15-1.34-.24-1.34h-.1l-.1.11Zm.4,4.59l-.08.33v.24l.08.06.06-.06v-.3l-.03-.13.03-.14h-.06Zm-.08,1.27v.06l.08.06h.03v-.13h-.11Zm.04-.27v.11h.03l.03-.11h-.06Zm0,.64v.2h.03s.06-.04.06-.11l-.03-.1h-.06Z"/>
    <path class="cls-1" d="m146.12,54.04c.6.06,1.19.26,1.77.61.13.14.3.43.51.86l-.04.03v.04l.04.14c-.15.34-.4.51-.75.51-.42-.1-.79-.32-1.09-.65-.22-.07-.58-.13-1.08-.18-.42.07-1.04.58-1.83,1.51-.17.75-.27,1.37-.32,1.84.24,1.19.54,2.35.89,3.48.19.53.39.8.58.8.42.31.86.57,1.29.79,1.19-.42,2.1-1.04,2.74-1.87.08,0,.23-.17.46-.51.14-.19.38-.29.72-.29l.06.08.15-.03c.14,0,.24.14.29.43v.17c-.06.4-.38.9-.94,1.51-.15.39-.32.62-.51.69-.92.87-1.83,1.36-2.74,1.48l-.28.03-1.08-.11-.18.03c-.93-.24-1.5-.43-1.69-.57-.81-.37-1.49-1.25-2.05-2.66,0-.24-.07-.55-.22-.94l.03-.11c-.07-.34-.11-.74-.11-1.22v-.4c.21-1.47.52-2.57.94-3.28l-.04-.11c.19-.08.29-.2.29-.36.74-.8,1.46-1.28,2.16-1.44l1.66-.28.03.03h.04l.28-.08Z"/>
    <path class="cls-1" d="m156.55,56.97l.24.04.08-.02.33.02h.24l.1.02.02-.02.29.02h.12l.18-.02.53.05.45-.05.17.02.02-.02h.02l.03.02h.02l.02-.02.08.02.5-.02h.17l.14-.02.02.02.37-.02h.14c.27,0,.41.02.41.04l.22-.04.09.02.27-.02h.04l.12.02v-.02l.03.02h.22l.22-.02.02.02.12-.02.71.02.15-.02.12.02v-.02l.36.04v-.02l.02.02.12-.02h.17l.19.05.26-.03h.1l.14.03.08-.05.12.02.31-.02.22.02.53-.02h.04c.6,0,.91.14.91.43l-.02.12.05.15c-.07.17-.14.26-.22.26-.04.05-.08.08-.12.08l-.96-.15-.51.03h-.04v-.03l-.12.03h-.39l-.1-.03-.1.03h-.14l-.1-.03-.14.05h-.1l-.02-.02-.02.02-.25-.02h-.06l-.02.02-.03-.02h-.28c-.12,0-.17.01-.17.04l-.02-.02h-.12v.02c.05,0,.08.03.08.08l.09.04c.06-.03.15-.04.27-.04h.04v.04h.31c.69,0,1.04.14,1.04.43h0l.02.24c-.08,0-.22.09-.41.26l-.02.03h-.02l-.19-.05-.02.02c-.15-.08-.28-.12-.38-.12h-.43l-.03.03-.06-.03-.65.03-.22-.03-.02.03-.1-.03c-.99.02-1.49.05-1.49.08l-.1-.02h-.02l-.22.02-.1-.02-.12.04-.02-.02-.12.02-1.77.12-.03-.02-.16.02h-.47c-.47-.08-.7-.2-.7-.38-.06,0-.09.18-.15-.08,0-.13.03-.26.1-.38l-.06-.05h-.12c-.34,0-.57-.18-.7-.55l-.02-.24c.09-.32.22-.47.41-.47Zm9.64,2.65c.25,0,.43.18.53.55v.39c0,.16-.18.28-.55.36-.1-.06-.25-.1-.45-.12-.09.02-.13.04-.13.06v.17l.03.14c-.09.18-.22.32-.39.41h-.04c-.11,0-.26-.05-.45-.14-.62-.06-1.32-.1-2.11-.12v.02l-.02-.02h-.04l-.74-.03-.29.03-.12-.03-.47.05-.15-.02-.42.02h-.22l-.15.02-.12-.02h-.1l-.06.02-.12-.02h-.27l-.1.02-.02-.02-1.89.12c-.34,0-.57-.22-.7-.65v-.14c.08-.39.26-.58.55-.58l.41.05c.82-.13,1.66-.23,2.53-.29l.08.02c.68-.02,1.02-.04,1.02-.06l.08.02c.51-.01.77-.04.77-.08l.02.03h.15l.02-.03.02.03h.12c.12,0,.17-.02.17-.05l.1.02.5-.02.19.05.36-.05.1.02c.14,0,.22-.02.22-.04l.08.02.5-.02.1.02c.13,0,.19-.02.19-.04l.16.02h.27l.22-.02.02.02c.43-.04.65-.07.65-.1Z"/>
    <path class="cls-1" d="m175.5,54.27h.06c.1.04.23.18.4.4.35.15.52.39.52.71h.03l-.09.85.02.03v.03c-.42,3.08-.78,5.19-1.07,6.35-.12.45-.2,1.06-.25,1.83-.05,0-.12.07-.22.22-.18,0-.27.08-.27.25l-.06.33c-.12.15-.22.23-.3.25-.08-.05-.23-.09-.46-.12l-.22-.46c0-.4.08-.95.25-1.65l-.03-.03v-.03c.2-.83.36-1.9.46-3.19h-.03l.03-.03v-.03l.09-1.4h-.03l.03-.03v-.03c.16-2.83.54-4.24,1.13-4.24Z"/>
    <path class="cls-1" d="m179.54,54.27c.32.02.47.09.47.19l.02.03-.11.53.11.09.17-.03.09.03c.02-.12.05-.17.08-.17h.05c.14,0,.33.06.59.17.03-.15.06-.23.11-.23h.05l.14.09.05-.17h.03c.35.37.53.88.53,1.53l-.03.03v.02l.09.51v.22l.03.03-.03.02c.22,1.03.33,1.8.33,2.32h.03l-.03.02v.03l.03.44-.03.23h.03l-.03.02v.23c-.04.42-.07.68-.11.75l.02.02h-.02l.11.14-.03.09-.08-.05h-.03l-.05.22.02.03v.03c-.33,1.57-.82,2.66-1.47,3.28-.36.22-.72.33-1.09.33h-.25c-.24,0-.51-.08-.81-.23-.47-.22-.84-.56-1.11-1.02-.34-.65-.51-1.24-.51-1.76-.05-.19-.08-.41-.08-.67v-.3l-.03-.25.03-.19v-.03l-.03-.02.19-1.48-.03-.03v-.02c.5-1.78.95-3.01,1.37-3.68.47-.65.79-1.05.95-1.2l.25-.14Zm-1.7,5.95v.23l-.02.14c.02.45.05.69.09.72l-.03.11c.2,1.14.41,1.7.64,1.7v.05h-.05v.05s.05.05.14.05c.22.41.43.61.61.61h.36c.3-.08.47-.17.51-.28.23-.19.51-.65.83-1.39.21-.38.31-1.01.31-1.89l.02-.03-.02-.14v-.3l-.05-2.37c-.15-.8-.4-1.42-.73-1.85l-.13-.12h-.03l-.7.56c-.5.58-.96,1.39-1.39,2.45-.22.7-.33,1.27-.33,1.69Z"/>
    <path class="cls-1" d="m185.44,54.27c.32.02.47.09.47.19l.02.03-.11.53.11.09.17-.03.09.03c.02-.12.05-.17.08-.17h.05c.14,0,.33.06.59.17.03-.15.06-.23.11-.23h.05l.14.09.05-.17h.03c.35.37.53.88.53,1.53l-.03.03v.02l.09.51v.22l.03.03-.03.02c.22,1.03.33,1.8.33,2.32h.03l-.03.02v.03l.03.44-.03.23h.03l-.03.02v.23c-.04.42-.07.68-.11.75l.02.02h-.02l.11.14-.03.09-.08-.05h-.03l-.05.22.02.03v.03c-.33,1.57-.82,2.66-1.47,3.28-.36.22-.72.33-1.09.33h-.25c-.24,0-.51-.08-.81-.23-.47-.22-.84-.56-1.11-1.02-.34-.65-.51-1.24-.51-1.76-.05-.19-.08-.41-.08-.67v-.3l-.03-.25.03-.19v-.03l-.03-.02.19-1.48-.03-.03v-.02c.5-1.78.95-3.01,1.37-3.68.47-.65.79-1.05.95-1.2l.25-.14Zm-1.7,5.95v.23l-.02.14c.02.45.05.69.09.72l-.03.11c.2,1.14.41,1.7.64,1.7v.05h-.05v.05s.05.05.14.05c.22.41.43.61.61.61h.36c.3-.08.47-.17.51-.28.23-.19.51-.65.83-1.39.21-.38.31-1.01.31-1.89l.02-.03-.02-.14v-.3l-.05-2.37c-.15-.8-.4-1.42-.73-1.85l-.13-.12h-.03l-.7.56c-.5.58-.96,1.39-1.39,2.45-.22.7-.33,1.27-.33,1.69Z"/>
    <path class="cls-1" d="m195.05,54.27c.32.02.47.09.47.19l.02.03-.11.53.11.09.17-.03.09.03c.02-.12.05-.17.08-.17h.05c.14,0,.33.06.59.17.03-.15.06-.23.11-.23h.05l.14.09.05-.17h.03c.35.37.53.88.53,1.53l-.03.03v.02l.09.51v.22l.03.03-.03.02c.22,1.03.33,1.8.33,2.32h.03l-.03.02v.03l.03.44-.03.23h.03l-.03.02v.23c-.04.42-.07.68-.11.75l.02.02h-.02l.11.14-.03.09-.08-.05h-.03l-.05.22.02.03v.03c-.33,1.57-.82,2.66-1.47,3.28-.36.22-.72.33-1.09.33h-.25c-.24,0-.51-.08-.81-.23-.47-.22-.84-.56-1.11-1.02-.34-.65-.51-1.24-.51-1.76-.05-.19-.08-.41-.08-.67v-.3l-.03-.25.03-.19v-.03l-.03-.02.19-1.48-.03-.03v-.02c.5-1.78.95-3.01,1.37-3.68.47-.65.79-1.05.95-1.2l.25-.14Zm-1.7,5.95v.23l-.02.14c.02.45.05.69.09.72l-.03.11c.2,1.14.41,1.7.64,1.7v.05h-.05v.05s.05.05.14.05c.22.41.43.61.61.61h.36c.3-.08.47-.17.51-.28.23-.19.51-.65.83-1.39.21-.38.31-1.01.31-1.89l.02-.03-.02-.14v-.3l-.05-2.37c-.15-.8-.4-1.42-.73-1.85l-.13-.12h-.03l-.7.56c-.5.58-.96,1.39-1.39,2.45-.22.7-.33,1.27-.33,1.69Z"/>
    <path class="cls-1" d="m200.95,54.27c.32.02.47.09.47.19l.02.03-.11.53.11.09.17-.03.09.03c.02-.12.05-.17.08-.17h.05c.14,0,.33.06.59.17.03-.15.06-.23.11-.23h.05l.14.09.05-.17h.03c.35.37.53.88.53,1.53l-.03.03v.02l.09.51v.22l.03.03-.03.02c.22,1.03.33,1.8.33,2.32h.03l-.03.02v.03l.03.44-.03.23h.03l-.03.02v.23c-.04.42-.07.68-.11.75l.02.02h-.02l.11.14-.03.09-.08-.05h-.03l-.05.22.02.03v.03c-.33,1.57-.82,2.66-1.47,3.28-.36.22-.72.33-1.09.33h-.25c-.24,0-.51-.08-.81-.23-.47-.22-.84-.56-1.11-1.02-.34-.65-.51-1.24-.51-1.76-.05-.19-.08-.41-.08-.67v-.3l-.03-.25.03-.19v-.03l-.03-.02.19-1.48-.03-.03v-.02c.5-1.78.95-3.01,1.37-3.68.47-.65.79-1.05.95-1.2l.25-.14Zm-1.7,5.95v.23l-.02.14c.02.45.05.69.09.72l-.03.11c.2,1.14.41,1.7.64,1.7v.05h-.05v.05s.05.05.14.05c.22.41.43.61.61.61h.36c.3-.08.47-.17.51-.28.23-.19.51-.65.83-1.39.21-.38.31-1.01.31-1.89l.02-.03-.02-.14v-.3l-.05-2.37c-.15-.8-.4-1.42-.73-1.85l-.13-.12h-.03l-.7.56c-.5.58-.96,1.39-1.39,2.45-.22.7-.33,1.27-.33,1.69Z"/>
    <path class="cls-1" d="m206.85,54.27c.32.02.47.09.47.19l.02.03-.11.53.11.09.17-.03.09.03c.02-.12.05-.17.08-.17h.05c.14,0,.33.06.59.17.03-.15.06-.23.11-.23h.05l.14.09.05-.17h.03c.35.37.53.88.53,1.53l-.03.03v.02l.09.51v.22l.03.03-.03.02c.22,1.03.33,1.8.33,2.32h.03l-.03.02v.03l.03.44-.03.23h.03l-.03.02v.23c-.04.42-.07.68-.11.75l.02.02h-.02l.11.14-.03.09-.08-.05h-.03l-.05.22.02.03v.03c-.33,1.57-.82,2.66-1.47,3.28-.36.22-.72.33-1.09.33h-.25c-.24,0-.51-.08-.81-.23-.47-.22-.84-.56-1.11-1.02-.34-.65-.51-1.24-.51-1.76-.05-.19-.08-.41-.08-.67v-.3l-.03-.25.03-.19v-.03l-.03-.02.19-1.48-.03-.03v-.02c.5-1.78.95-3.01,1.37-3.68.47-.65.79-1.05.95-1.2l.25-.14Zm-1.7,5.95v.23l-.02.14c.02.45.05.69.09.72l-.03.11c.2,1.14.41,1.7.64,1.7v.05h-.05v.05s.05.05.14.05c.22.41.43.61.61.61h.36c.3-.08.47-.17.51-.28.23-.19.51-.65.83-1.39.21-.38.31-1.01.31-1.89l.02-.03-.02-.14v-.3l-.05-2.37c-.15-.8-.4-1.42-.73-1.85l-.13-.12h-.03l-.7.56c-.5.58-.96,1.39-1.39,2.45-.22.7-.33,1.27-.33,1.69Z"/>
    <path class="cls-1" d="m216.46,54.27c.32.02.47.09.47.19l.02.03-.11.53.11.09.17-.03.09.03c.02-.12.05-.17.08-.17h.05c.14,0,.33.06.59.17.03-.15.06-.23.11-.23h.05l.14.09.05-.17h.03c.35.37.53.88.53,1.53l-.03.03v.02l.09.51v.22l.03.03-.03.02c.22,1.03.33,1.8.33,2.32h.03l-.03.02v.03l.03.44-.03.23h.03l-.03.02v.23c-.04.42-.07.68-.11.75l.02.02h-.02l.11.14-.03.09-.08-.05h-.03l-.05.22.02.03v.03c-.33,1.57-.82,2.66-1.47,3.28-.36.22-.72.33-1.09.33h-.25c-.24,0-.51-.08-.81-.23-.47-.22-.84-.56-1.11-1.02-.34-.65-.51-1.24-.51-1.76-.05-.19-.08-.41-.08-.67v-.3l-.03-.25.03-.19v-.03l-.03-.02.19-1.48-.03-.03v-.02c.5-1.78.95-3.01,1.37-3.68.47-.65.79-1.05.95-1.2l.25-.14Zm-1.7,5.95v.23l-.02.14c.02.45.05.69.09.72l-.03.11c.2,1.14.41,1.7.64,1.7v.05h-.05v.05s.05.05.14.05c.22.41.43.61.61.61h.36c.3-.08.47-.17.51-.28.23-.19.51-.65.83-1.39.21-.38.31-1.01.31-1.89l.02-.03-.02-.14v-.3l-.05-2.37c-.15-.8-.4-1.42-.73-1.85l-.13-.12h-.03l-.7.56c-.5.58-.96,1.39-1.39,2.45-.22.7-.33,1.27-.33,1.69Z"/>
    <path class="cls-1" d="m222.35,54.27c.32.02.47.09.47.19l.02.03-.11.53.11.09.17-.03.09.03c.02-.12.05-.17.08-.17h.05c.14,0,.33.06.59.17.03-.15.06-.23.11-.23h.05l.14.09.05-.17h.03c.35.37.53.88.53,1.53l-.03.03v.02l.09.51v.22l.03.03-.03.02c.22,1.03.33,1.8.33,2.32h.03l-.03.02v.03l.03.44-.03.23h.03l-.03.02v.23c-.04.42-.07.68-.11.75l.02.02h-.02l.11.14-.03.09-.08-.05h-.03l-.05.22.02.03v.03c-.33,1.57-.82,2.66-1.47,3.28-.36.22-.72.33-1.09.33h-.25c-.24,0-.51-.08-.81-.23-.47-.22-.84-.56-1.11-1.02-.34-.65-.51-1.24-.51-1.76-.05-.19-.08-.41-.08-.67v-.3l-.03-.25.03-.19v-.03l-.03-.02.19-1.48-.03-.03v-.02c.5-1.78.95-3.01,1.37-3.68.47-.65.79-1.05.95-1.2l.25-.14Zm-1.7,5.95v.23l-.02.14c.02.45.05.69.09.72l-.03.11c.2,1.14.41,1.7.64,1.7v.05h-.05v.05s.05.05.14.05c.22.41.43.61.61.61h.36c.3-.08.47-.17.51-.28.23-.19.51-.65.83-1.39.21-.38.31-1.01.31-1.89l.02-.03-.02-.14v-.3l-.05-2.37c-.15-.8-.4-1.42-.73-1.85l-.13-.12h-.03l-.7.56c-.5.58-.96,1.39-1.39,2.45-.22.7-.33,1.27-.33,1.69Z"/>
    <path class="cls-1" d="m228.25,54.27c.32.02.47.09.47.19l.02.03-.11.53.11.09.17-.03.09.03c.02-.12.05-.17.08-.17h.05c.14,0,.33.06.59.17.03-.15.06-.23.11-.23h.05l.14.09.05-.17h.03c.35.37.53.88.53,1.53l-.03.03v.02l.09.51v.22l.03.03-.03.02c.22,1.03.33,1.8.33,2.32h.03l-.03.02v.03l.03.44-.03.23h.03l-.03.02v.23c-.04.42-.07.68-.11.75l.02.02h-.02l.11.14-.03.09-.08-.05h-.03l-.05.22.02.03v.03c-.33,1.57-.82,2.66-1.47,3.28-.36.22-.72.33-1.09.33h-.25c-.24,0-.51-.08-.81-.23-.47-.22-.84-.56-1.11-1.02-.34-.65-.51-1.24-.51-1.76-.05-.19-.08-.41-.08-.67v-.3l-.03-.25.03-.19v-.03l-.03-.02.19-1.48-.03-.03v-.02c.5-1.78.95-3.01,1.37-3.68.47-.65.79-1.05.95-1.2l.25-.14Zm-1.7,5.95v.23l-.02.14c.02.45.05.69.09.72l-.03.11c.2,1.14.41,1.7.64,1.7v.05h-.05v.05s.05.05.14.05c.22.41.43.61.61.61h.36c.3-.08.47-.17.51-.28.23-.19.51-.65.83-1.39.21-.38.31-1.01.31-1.89l.02-.03-.02-.14v-.3l-.05-2.37c-.15-.8-.4-1.42-.73-1.85l-.13-.12h-.03l-.7.56c-.5.58-.96,1.39-1.39,2.45-.22.7-.33,1.27-.33,1.69Z"/>
    <path class="cls-1" d="m241.23,54.03l.13.03h.08v-.03c.93,0,1.77.48,2.51,1.44.04.22.09.37.17.45,0,.29-.18.49-.55.61l-.2.03c-.52-.27-1.06-.41-1.62-.41-.88,0-1.64.49-2.28,1.48.01.07.15.15.41.25.09.09.69.29,1.82.58,1.49.24,2.44.49,2.87.72.52.19,1.06.59,1.62,1.18.27.41.41.89.41,1.44v.11c0,.31-.17.78-.52,1.41-.65.73-1.21,1.19-1.68,1.37-1.07.4-1.98.59-2.73.59l-.03.03h-.03l-.03-.03h-.04l-.38.03h-.27l-.03.03-.04-.03h-.41c-1.69,0-2.84-.66-3.44-1.99-.05,0-.09-.1-.11-.31l.06-.08.28.17h.11v-.06h.06c.1,0,.34.16.72.49h.11v-.2l-.04-.14c.06-.18.15-.32.28-.42,0-.22.09-.37.27-.47l.17-.45h.08l.03.17h.03l.28-.06h.1c.21.07.31.24.31.52,0,.2.06.35.17.44l-.03.42c.2.15.74.28,1.62.38l.03-.04.25.04c.78,0,1.54-.2,2.26-.59.51-.43.77-.82.77-1.16,0-.44-.5-.96-1.49-1.55l-.52-.2c0-.14-.45-.29-1.34-.45-1.15-.09-1.99-.23-2.51-.44-.83-.47-1.24-1.01-1.24-1.62l-.22-.8c0-1.42,1.2-2.36,3.59-2.83l.17-.03Z"/>
    <path class="cls-1" d="m250.79,54.04c.44.03.66.14.66.35.47,1.07.91,2.4,1.32,3.98.05.38.1.57.16.57l.22-.02c.09,0,.13.02.13.05l.02-.03h.03c.22,0,.36.16.42.47,0,.22-.21.43-.64.64h-.02c.27,1.92.58,3.38.92,4.37l.03.13c-.09.27-.26.4-.51.4,0,.02-.06.04-.18.05,0,.14-.07.2-.2.2l-.29-.02-.03.02h-.02c-.06,0-.22-.26-.47-.79-.27-.63-.46-1.34-.58-2.13l.03-.18c-.06-.09-.13-.39-.22-.89l-.02-.02h-.03l-1,.44c-.54.18-.81.33-.81.45-.22.88-.39,1.32-.51,1.32-.24.07-.37.3-.37.68l-.31,1.71c-.11.11-.19.16-.24.16l-.03-.03h-.02l-.18.05-.03-.08h-.1l-.03.02h-.02l-.11-.28c0-.65.18-1.73.53-3.25l-.03-.02h-.02l-.71.11h-.18c-.3-.13-.45-.27-.45-.43l-.02-.08c.12-.26.27-.39.45-.39.02-.06.22-.12.6-.16l.02-.03v-.02l-.05-.16v-.02c0-.27.28-.52.84-.77.1-.09.17-.27.22-.53.04-.04.12-.43.24-1.15.27-.79.5-2.13.71-4.03.17-.24.32-.37.47-.37.04-.08.19-.18.44-.29Zm-.02,3.29c-.14.37-.3,1.16-.47,2.35h.05c.46-.12.76-.23.89-.32-.24-1.31-.4-1.98-.45-2.03h-.02Z"/>
    <path class="cls-1" d="m264.55,54l.59.03h.47l.19.08.5-.08.33.11.04-.03h.03c.32,0,.88.1,1.69.29v.03l-.06.08c.01.09.09.13.24.13v.03c0,.15-.08.31-.24.46l.03.03c.01.09.07.14.17.14l.1.56c0,.08-.13.18-.4.3l-1.37-.16-.03.03h-.03l-.17-.03-1.43.1-.16-.03c-.09.04-.67.11-1.74.2l-.06.1.03.03-.03.03h.03l-.03.03v.03c.04.17.09.68.13,1.53l.03.04-.03.03v.03l.03.23-.03.44.03.03v.03l-.03.03.03.37-.1,4.3c0,.21.04.46.13.77v.27c-.14.22-.32.33-.53.33-.42-.1-.71-.22-.86-.37l-.04.03.08.19v.24c0,.12-.08.23-.24.33-.24,0-.55-.18-.94-.53-.29-.55-.43-1.06-.43-1.51l.03-.13v-.03l-.03-.03.03-.03v-.3l-.03-.8.03-.04v-.03l-.06-.1.06-.19v-.04l-.03-.1.03-.16v-.37c-.13-1.87-.24-2.8-.33-2.8l.03-.14c-.05,0-.13-.41-.23-1.23-.35,0-1.19.18-2.5.54l-2.28,1.13-.16.03c-.71-.17-1.07-.46-1.07-.87,0-.27.15-.44.46-.53.72-.36,1.2-.57,1.43-.64.18-.22.33-.33.44-.33.14-.08.51-.2,1.13-.37.92-.42,2-.8,3.23-1.13l.06-.06h.13c.21,0,.51-.08.91-.24l.1.03c.42-.03.64-.08.64-.16l.24.03.4-.1.03.03h.03l1.34-.17Zm-3.23,2.64c.02.64.05.96.1.96l-.03.03v.03l.19,1.24-.03.03.17,1.43-.03.13.03.37-.03.14.03.13h.06l.06-1.1-.03-.67v-.1l-.03-.03.03-.03v-.11h-.03l.03-.23v-.06c0-.16-.02-.28-.06-.37l.03-.11-.06-.37.03-.1c-.07-.89-.15-1.34-.24-1.34h-.1l-.1.11Zm.4,4.59l-.08.33v.24l.08.06.06-.06v-.3l-.03-.13.03-.14h-.06Zm-.08,1.27v.06l.08.06h.03v-.13h-.11Zm.04-.27v.11h.03l.03-.11h-.06Zm0,.64v.2h.03s.06-.04.06-.11l-.03-.1h-.06Z"/>
    <path class="cls-1" d="m272.63,54.03l.13.03h.08v-.03c.93,0,1.77.48,2.51,1.44.04.22.09.37.17.45,0,.29-.18.49-.55.61l-.2.03c-.52-.27-1.06-.41-1.62-.41-.88,0-1.64.49-2.28,1.48.01.07.15.15.41.25.09.09.69.29,1.82.58,1.49.24,2.44.49,2.87.72.52.19,1.06.59,1.62,1.18.27.41.41.89.41,1.44v.11c0,.31-.17.78-.52,1.41-.65.73-1.21,1.19-1.68,1.37-1.07.4-1.98.59-2.73.59l-.03.03h-.03l-.03-.03h-.04l-.38.03h-.27l-.03.03-.04-.03h-.41c-1.69,0-2.84-.66-3.44-1.99-.05,0-.09-.1-.11-.31l.06-.08.28.17h.11v-.06h.06c.1,0,.34.16.72.49h.11v-.2l-.04-.14c.06-.18.15-.32.28-.42,0-.22.09-.37.27-.47l.17-.45h.08l.03.17h.03l.28-.06h.1c.21.07.31.24.31.52,0,.2.06.35.17.44l-.03.42c.2.15.74.28,1.62.38l.03-.04.25.04c.78,0,1.54-.2,2.26-.59.51-.43.77-.82.77-1.16,0-.44-.5-.96-1.49-1.55l-.52-.2c0-.14-.45-.29-1.34-.45-1.15-.09-1.99-.23-2.51-.44-.83-.47-1.24-1.01-1.24-1.62l-.22-.8c0-1.42,1.2-2.36,3.59-2.83l.17-.03Z"/>
  </g>
</svg>