<?xml version="1.0" encoding="UTF-8"?>
<svg id="Layer_1" data-name="Layer 1" xmlns="http://www.w3.org/2000/svg" width="300" height="225" viewBox="0 0 300 225">
  <defs>
    <style>
      .cls-1 {
        fill: #fff;
      }

      .cls-2 {
        fill: #23140a;
      }

      .cls-3 {
        fill: #07aa22;
      }

      .cls-4 {
        fill: #c3162e;
      }

      .cls-5 {
        fill: #ff7e1c;
      }

      .cls-6 {
        fill: #06ce30;
      }

      .cls-7 {
        fill: #ea651b;
      }
    </style>
  </defs>
  <g>
    <path class="cls-2" d="m161.63,73.91l-35.03,21.71c-.32.2-.75.07-.9-.28l-5.34-12.58c-.15-.34.04-.74.4-.84l40.52-11.31.62,2.63c.06.26-.05.53-.28.67Z"/>
    <path class="cls-2" d="m149.17,64.38l10.36,24.06c.2.47.84.51,1.1.07l12.03-20.29c.22-.37,0-.86-.43-.93l-22.39-3.77c-.48-.08-.87.41-.67.86Z"/>
  </g>
  <g>
    <path class="cls-2" d="m158.87,154.5l-39.92-10.26c-.37-.09-.57-.5-.42-.84l5.38-12.56c.15-.34.56-.48.89-.29l36.21,21.41-1.47,2.27c-.14.22-.42.33-.67.26Z"/>
    <path class="cls-2" d="m157.12,138.91l-10.2,24.13c-.2.47.22.96.71.85l22.97-5.36c.42-.1.62-.59.37-.95l-12.77-18.77c-.28-.41-.89-.34-1.08.11Z"/>
  </g>
  <g>
    <g>
      <path class="cls-7" d="m49.47,137.31c2.59,3.2,5.73,6.05,9.38,8.41,18.53,11.96,43.24,6.64,55.2-11.89,6.38-9.88,7.84-21.53,5-32.06-.96,6.59-3.31,13.08-7.16,19.04-13.54,20.98-40.72,27.85-62.42,16.49Z"/>
      <path class="cls-5" d="m46.96,90.52c-9.6,14.88-8.06,33.74,2.51,46.79,21.7,11.35,48.87,4.49,62.42-16.49,3.85-5.96,6.2-12.46,7.16-19.05-2.48-9.21-8.25-17.56-16.89-23.14-18.53-11.96-43.24-6.64-55.2,11.89Z"/>
    </g>
    <path class="cls-1" d="m92.63,112.6c.89,1.12,1.25,2.65,1.07,4.62-.27,2.37-1.25,4.09-2.95,5.16-1.47.89-3.69,1.43-6.63,1.61v4.55s-3.28,0-3.28,0v-4.49h-2.54v4.49s-3.28,0-3.28,0v-4.55h-6.49s.67-3.88.67-3.88h.67c1.07.04,1.76.02,2.07-.07.45-.13.72-.47.8-1v-14.53c-.13-.71-.51-1.16-1.14-1.34-.4-.13-1.25-.18-2.54-.13h-.54s0-3.48,0-3.48l2.01.07c2.37,0,3.86-.03,4.48-.07v-5.29s3.28,0,3.28,0v5.22s2.54-.07,2.54-.07v-5.15s3.28,0,3.28,0v5.29c2.28.22,4.02.71,5.22,1.47,1.47.89,2.28,2.23,2.41,4.02.27,2.59-.64,4.42-2.74,5.49h0c1.65.36,2.86,1.05,3.62,2.08h0Zm-14.27-2.88h.54c1.88.05,3.33-.06,4.36-.33,1.79-.45,2.68-1.41,2.68-2.88s-.87-2.46-2.62-2.95c-.98-.27-2.43-.38-4.35-.33-.31.04-.52.06-.61.06v6.43h0Zm.61,10.38c2.28.04,3.99-.07,5.15-.34,2.1-.54,3.15-1.61,3.15-3.21s-1.03-2.68-3.08-3.21c-1.12-.31-2.81-.42-5.09-.33h-.74v7.1h.61Z"/>
  </g>
  <g>
    <g>
      <path class="cls-7" d="m181.58,67.74c1.81,3.7,4.22,7.19,7.24,10.31,15.36,15.83,40.63,16.21,56.46.85,8.44-8.19,12.49-19.21,12.09-30.11-2.42,6.2-6.18,12-11.27,16.94-17.92,17.39-45.94,17.96-64.53,2.01Z"/>
      <path class="cls-5" d="m189.68,21.58c-12.71,12.33-15.46,31.06-8.09,46.15,18.58,15.95,46.6,15.38,64.53-2.01,5.09-4.94,8.85-10.74,11.27-16.94-.34-9.53-4.08-18.97-11.24-26.35-15.36-15.83-40.64-16.21-56.46-.85Z"/>
    </g>
    <path class="cls-1" d="m229.2,53.39c.62,1.29.62,2.87,0,4.74-.8,2.25-2.14,3.7-4.03,4.36-1.64.54-3.91.56-6.83.07l-1.03,4.43-3.19-.74,1.01-4.37-2.48-.57-1.01,4.37-3.2-.74,1.03-4.43-6.33-1.46,1.53-3.63.65.15c1.03.29,1.71.41,2.04.4.47-.03.8-.29,1.01-.79l3.27-14.16c.03-.73-.24-1.25-.8-1.56-.36-.22-1.18-.46-2.45-.7l-.52-.12.78-3.39,1.94.52c2.31.53,3.76.84,4.38.94l1.19-5.15,3.2.74-1.18,5.09,2.49.5,1.16-5.02,3.19.74-1.19,5.15c2.17.73,3.75,1.6,4.76,2.61,1.23,1.2,1.71,2.69,1.44,4.46-.32,2.58-1.62,4.16-3.91,4.73h0c1.53.72,2.55,1.67,3.06,2.84h0Zm-13.25-6.02l.52.12c1.82.47,3.26.69,4.32.66,1.84-.03,2.93-.77,3.26-2.2s-.3-2.59-1.88-3.46c-.9-.48-2.28-.91-4.16-1.3-.32-.03-.52-.05-.6-.07l-1.45,6.26h0Zm-1.75,10.25c2.21.56,3.9.83,5.1.83,2.17-.05,3.43-.86,3.79-2.42s-.4-2.84-2.28-3.82c-1.02-.56-2.65-1.04-4.88-1.47l-.72-.17-1.6,6.91.59.14h0Z"/>
  </g>
  <g>
    <g>
      <path class="cls-3" d="m200.77,210.03c3.64,1.93,7.64,3.33,11.92,4.07,21.73,3.76,42.39-10.81,46.14-32.54,2-11.59-1.21-22.88-7.94-31.46,1.7,6.44,2.07,13.34.86,20.33-4.25,24.61-26.57,41.56-50.98,39.6Z"/>
      <path class="cls-6" d="m180.15,167.96c-3.02,17.45,5.79,34.2,20.62,42.07,24.41,1.96,46.73-15,50.98-39.6,1.21-6.99.83-13.89-.86-20.33-5.89-7.5-14.46-12.93-24.6-14.69-21.73-3.75-42.39,10.82-46.14,32.55Z"/>
    </g>
    <path class="cls-1" d="m230.83,170.4c1.26.68,2.19,1.95,2.79,3.83.68,2.28.45,4.25-.69,5.9-1.01,1.4-2.83,2.76-5.47,4.08l1.78,4.19-3.02,1.28-1.76-4.13-2.34,1,1.76,4.13-3.02,1.29-1.78-4.19-5.98,2.54-.9-3.84.62-.26c1-.38,1.63-.67,1.88-.87.36-.3.48-.71.35-1.24l-5.69-13.37c-.4-.6-.92-.87-1.57-.79-.42.03-1.22.32-2.39.87l-.49.21-1.36-3.2,1.88-.72c2.18-.93,3.54-1.53,4.1-1.82l-2.07-4.87,3.02-1.29,2.04,4.81,2.31-1.06-2.02-4.74,3.02-1.28,2.07,4.87c2.18-.69,3.98-.92,5.38-.69,1.71.25,2.97,1.16,3.79,2.75,1.26,2.28,1.14,4.32-.38,6.13h0c1.66-.32,3.04-.15,4.14.5h0Zm-14.26,2.93l.49-.21c1.74-.69,3.04-1.36,3.88-2.01,1.47-1.11,1.91-2.35,1.34-3.7s-1.76-1.92-3.56-1.69c-1.01.14-2.38.61-4.13,1.4-.27.16-.45.26-.53.3l2.52,5.92h0Zm4.62,9.32c2.11-.85,3.65-1.63,4.61-2.33,1.72-1.31,2.27-2.71,1.64-4.19s-1.99-2.06-4.09-1.75c-1.15.15-2.75.71-4.81,1.69l-.68.29,2.78,6.53.56-.24h0Z"/>
  </g>
  <g>
    <path class="cls-4" d="m206.4,161.39c.37.01.43.25.54.44.2.28,1.82,2.77,2,3.08.27.49,3.34,4.34,3.54,4.87.16.36,6.57,9.44,6.72,9.78.1.16,3.36,4.96,3.45,5.12.4.66,2.6,3.69,2.99,4.35.1.22.23.43.38.64.19.27.37.58.83.65.09.01.15.06.21.11.09.05.18.11.34.01s.17-.22.14-.32c0-.04,0-.05-.01-.11.33-.06.51-.26.69-.48.11-.13.24-.2.43-.22.34-.04.66-.16.95-.46.37-.37.77-.71,1.16-1.09.25-.23.46-.49.29-.72-.25-.32-.44-.69-.64-1.03-.29-.44-3.02-4.22-3.31-4.67-.1-.16-2.81-3.94-2.93-4.09-.24-.36-3.72-5.29-3.96-5.64-.16-.22-4.09-5.24-4.25-5.46-.08-.14-.13-.27-.21-.41-.02-.04-.05-.09-.09-.11-.29-.16-3.74-5.36-3.83-5.66-.06-.15-.2-.25-.28-.38-.16-.22-.3-.46-.47-.69-.13-.17-.29-.35-.43-.53-.09-.11-.61-.09-.83.05-.19.1-.4.21-.59.27-.19.06-.3.15-.43.26-.18.17-.36.33-.56.47-.45.32-.91.62-1.36.94-.23.17-.36.38-.38.58-.02.15-.05.28-.09.45Z"/>
    <path class="cls-4" d="m206.49,187.25c0-.37.22-.44.41-.57.27-.21,2.66-1.97,2.96-2.17.48-.29,4.14-3.58,4.65-3.82.35-.18,9.04-7.11,9.38-7.28.15-.1,4.75-3.64,4.91-3.74.64-.43,3.53-2.81,4.17-3.24.22-.12.42-.25.62-.42.26-.2.56-.41.6-.87,0-.09.05-.15.1-.21.04-.09.1-.18,0-.34s-.23-.16-.33-.12c-.04,0-.05,0-.11.02-.08-.32-.29-.5-.52-.66-.14-.11-.21-.23-.24-.41-.06-.34-.2-.65-.52-.92-.39-.34-.75-.73-1.16-1.09-.25-.24-.52-.43-.74-.25-.31.26-.66.48-1,.7-.43.32-4.04,3.26-4.47,3.58-.15.1-3.77,3.04-3.91,3.16-.34.26-5.06,4.02-5.4,4.28-.21.17-4.99,4.39-5.2,4.56-.13.09-.26.15-.39.24-.04.02-.08.06-.11.1-.14.3-5.14,4.04-5.43,4.15-.14.07-.23.22-.36.31-.21.17-.44.33-.66.51-.16.14-.33.31-.5.46-.11.1-.05.61.1.83.11.19.23.39.3.57.07.18.16.29.28.42.18.17.35.34.5.53.34.43.68.87,1.02,1.3.18.22.4.34.6.35.15.01.29.04.46.06Z"/>
  </g>
  <g>
    <path class="cls-4" d="m136.76,137.09c.37.01.43.25.54.44.2.28,1.82,2.77,2,3.08.27.49,3.34,4.34,3.54,4.87.16.36,6.57,9.44,6.72,9.78.1.16,3.36,4.96,3.45,5.12.4.66,2.6,3.69,2.99,4.35.1.22.23.43.38.64.19.27.37.58.83.65.09.01.15.06.21.11.09.05.18.11.34.01s.17-.22.14-.32c0-.04,0-.05-.01-.11.33-.06.51-.26.69-.48.11-.13.24-.2.43-.22.34-.04.66-.16.95-.46.37-.37.77-.71,1.16-1.09.25-.23.46-.49.29-.72-.25-.32-.44-.69-.64-1.03-.29-.44-3.02-4.22-3.31-4.67-.1-.16-2.81-3.94-2.93-4.09-.24-.36-3.72-5.29-3.96-5.64-.16-.22-4.09-5.24-4.25-5.46-.08-.14-.13-.27-.21-.41-.02-.04-.05-.09-.09-.11-.29-.16-3.74-5.36-3.83-5.66-.06-.15-.2-.25-.28-.38-.16-.22-.3-.46-.47-.69-.13-.17-.29-.35-.43-.53-.09-.11-.61-.09-.83.05-.19.1-.4.21-.59.27-.19.06-.3.15-.43.26-.18.17-.36.33-.56.47-.45.32-.91.62-1.36.94-.23.17-.36.38-.38.58-.02.15-.05.28-.09.45Z"/>
    <path class="cls-4" d="m136.85,162.94c0-.37.22-.44.41-.57.27-.21,2.66-1.97,2.96-2.17.48-.29,4.14-3.58,4.65-3.82.35-.18,9.04-7.11,9.38-7.28.15-.1,4.75-3.64,4.91-3.74.64-.43,3.53-2.81,4.17-3.24.22-.12.42-.25.62-.42.26-.2.56-.41.6-.87,0-.09.05-.15.1-.21.04-.09.1-.18,0-.34s-.23-.16-.33-.12c-.04,0-.05,0-.11.02-.08-.32-.29-.5-.52-.66-.14-.11-.21-.23-.24-.41-.06-.34-.2-.65-.52-.92-.39-.34-.75-.73-1.16-1.09-.25-.24-.52-.43-.74-.25-.31.26-.66.48-1,.7-.43.32-4.04,3.26-4.47,3.58-.15.1-3.77,3.04-3.91,3.16-.34.26-5.06,4.02-5.4,4.28-.21.17-4.99,4.39-5.2,4.56-.13.09-.26.15-.39.24-.04.02-.08.06-.11.1-.14.3-5.14,4.04-5.43,4.15-.14.07-.23.22-.36.31-.21.17-.44.33-.66.51-.16.14-.33.31-.5.46-.11.1-.05.61.1.83.11.19.23.39.3.57.07.18.16.29.28.42.18.17.35.34.5.53.34.43.68.87,1.02,1.3.18.22.4.34.6.35.15.01.29.04.46.06Z"/>
  </g>
</svg>