<?xml version="1.0" encoding="UTF-8"?>
<svg id="Layer_1" data-name="Layer 1" xmlns="http://www.w3.org/2000/svg" width="300" height="225" viewBox="0 0 300 225">
  <defs>
    <style>
      .cls-1 {
        fill: #84cd29;
      }

      .cls-2 {
        fill: #fff;
      }

      .cls-3 {
        fill: #23140a;
      }

      .cls-4, .cls-5 {
        isolation: isolate;
      }

      .cls-6 {
        fill: #d0dae3;
      }

      .cls-5 {
        opacity: .35;
      }

      .cls-7 {
        fill: #232323;
      }

      .cls-8 {
        fill: #ff7e1c;
      }

      .cls-9 {
        fill: #dda905;
      }

      .cls-10 {
        fill: none;
      }

      .cls-11 {
        fill: #ea651b;
      }

      .cls-12 {
        fill: #e7ecf0;
      }

      .cls-13 {
        fill: #ffcf15;
      }
    </style>
  </defs>
  <g>
    <g>
      <path class="cls-11" d="m131.49,148.79c.63,1.4,1.5,2.72,2.59,3.91,5.55,6.05,14.95,6.45,21,.9,3.23-2.96,4.84-7.02,4.81-11.08-.96,2.28-2.42,4.4-4.37,6.19-6.85,6.29-17.28,6.21-24.03.08Z"/>
      <path class="cls-8" d="m134.98,131.7c-4.85,4.46-6.07,11.4-3.48,17.09,6.75,6.12,17.18,6.2,24.03-.08,1.94-1.79,3.4-3.9,4.37-6.19-.03-3.55-1.32-7.1-3.91-9.92-5.55-6.05-14.95-6.45-21-.9Z"/>
    </g>
    <path class="cls-2" d="m149.36,143.94c.22.49.2,1.07-.05,1.76-.32.83-.83,1.36-1.55,1.58-.62.18-1.46.17-2.54-.04l-.43,1.64-1.18-.31.42-1.62-.92-.24-.42,1.62-1.18-.31.43-1.64-2.34-.61.61-1.34.24.06c.38.12.63.17.75.17.17,0,.3-.1.38-.29l1.36-5.23c.02-.27-.07-.47-.28-.59-.13-.09-.43-.18-.9-.29l-.19-.05.33-1.25.72.21c.85.22,1.39.35,1.62.4l.5-1.9,1.18.31-.49,1.88.92.21.48-1.86,1.18.31-.5,1.9c.8.29,1.38.63,1.74,1.02.45.46.61,1.02.49,1.67-.15.96-.65,1.53-1.5,1.72h0c.56.28.93.65,1.11,1.09h0Zm-4.87-2.38l.19.05c.67.19,1.2.29,1.6.29.68,0,1.1-.26,1.24-.79s-.08-.97-.67-1.31c-.33-.19-.84-.36-1.54-.53-.12-.01-.19-.03-.22-.03l-.6,2.32h0Zm-.76,3.8c.82.23,1.44.35,1.89.36.81,0,1.29-.28,1.44-.86s-.12-1.06-.81-1.45c-.37-.22-.97-.42-1.8-.6l-.27-.07-.67,2.56.22.06h0Z"/>
  </g>
  <path class="cls-3" d="m145.06,161.58c-1.66,0-3.34-.21-5.01-.65-.43-.11-.86-.24-1.28-.38-4.26-1.41-8.03-4.44-10.6-8.51l-33.63-53.29c-1.39-2.2-3.39-3.84-5.63-4.61-4.28-1.46-9.06-.31-12.2,2.94l-3.91,4.06c-4.38,4.54-10.26,7.04-16.56,7.04s-12.19-2.5-16.56-7.04l-11.49-11.93c-2.22-2.3-5.2-3.57-8.4-3.57s-6.18,1.27-8.4,3.57l-5.22,5.42c-.38.4-1.02.41-1.41.03-.4-.38-.41-1.02-.03-1.41l5.22-5.42c2.6-2.7,6.09-4.19,9.84-4.19s7.24,1.49,9.84,4.19l11.49,11.93c3.99,4.15,9.37,6.43,15.12,6.43s11.13-2.28,15.12-6.43l3.91-4.06c3.67-3.81,9.28-5.16,14.29-3.44,2.67.92,5.04,2.85,6.68,5.43l33.63,53.29c2.32,3.68,5.71,6.41,9.54,7.68.38.13.77.24,1.16.35,8.9,2.34,18.27-2.57,21.8-11.43l11.52-28.98c2.57-6.46,9.59-10,15.99-8.06,1.74.53,3.34,1.39,4.76,2.57l5.36,4.46c4.5,3.74,10.17,5.38,15.97,4.61,5.8-.77,10.85-3.83,14.22-8.62l19.01-27.03c2.17-3.08,5.41-5.09,9.14-5.65,3.72-.56,7.42.4,10.4,2.7,2.5,1.93,5.6,2.76,8.73,2.33,3.13-.43,5.89-2.07,7.77-4.61l10-13.48c.33-.44.95-.54,1.4-.21.44.33.54.96.21,1.4l-10,13.48c-2.2,2.97-5.44,4.89-9.1,5.4-3.67.51-7.3-.46-10.23-2.72-2.54-1.97-5.7-2.78-8.88-2.3-3.18.48-5.95,2.19-7.8,4.82l-19.01,27.03c-3.64,5.17-9.32,8.62-15.59,9.45-6.27.83-12.65-1.01-17.52-5.05l-5.36-4.46c-1.21-1-2.57-1.74-4.06-2.19-5.42-1.65-11.37,1.38-13.55,6.88l-11.52,28.98c-3.24,8.15-10.97,13.27-19.16,13.27Z"/>
  <g>
    <g class="cls-5">
      <path class="cls-7" d="m207.99,110.8l-.34-.32c-.34.13-.69.16-1.06.1-.36-.06-.69-.22-.98-.48l.65-.33c.12.11.27.18.43.23.16.05.32.05.48.02l-.94-.87s-.08.01-.12.02c-.04,0-.08.02-.12.02-.34.05-.64.05-.91,0-.26-.05-.51-.18-.72-.38-.26-.23-.37-.47-.35-.71.03-.24.17-.44.44-.61l-.36-.33.32-.16.36.34c.31-.12.64-.15.97-.09.33.06.63.2.89.43l-.66.33c-.09-.08-.2-.14-.33-.18-.13-.04-.26-.05-.38-.02l.83.77s.07,0,.1-.02c.03,0,.07-.01.1-.02.22-.03.43-.05.64-.06.21,0,.41.03.61.1s.39.19.57.36c.15.14.26.3.31.46s.04.33-.03.49c-.07.16-.22.3-.43.43l.34.31-.32.16Zm-3.03-2.34c.09.09.2.14.32.17.12.02.25.03.39.01l-.74-.69c-.08.07-.12.14-.12.23s.05.18.15.27Zm2.56.85c-.12-.11-.25-.18-.39-.2s-.3-.03-.47-.01l.84.79c.11-.08.17-.17.17-.27,0-.1-.05-.2-.15-.3Z"/>
      <path class="cls-7" d="m209.88,109.29l-2.46-2.29-.43.39-.43-.4.47-.72.38-.19,3.11,2.89-.64.32Z"/>
      <path class="cls-7" d="m212.59,107.99c-.31.16-.64.23-1,.21-.35-.01-.71-.1-1.07-.27-.36-.16-.7-.39-1.02-.69-.32-.29-.54-.59-.66-.87-.12-.29-.14-.55-.06-.78s.28-.43.59-.59c.31-.16.64-.23,1-.21.35.01.71.1,1.08.27.36.17.7.4,1.02.69.32.3.54.59.66.87.12.29.14.55.05.78-.08.24-.28.43-.59.59Zm-.51-.48c.25-.13.36-.32.32-.58s-.22-.55-.56-.87c-.34-.32-.69-.53-1.04-.63-.35-.1-.66-.09-.91.04-.25.13-.36.32-.33.59.04.26.23.55.57.87.34.32.69.53,1.04.63.35.1.66.09.91-.04Z"/>
      <path class="cls-7" d="m215.98,106.27c-.31.16-.64.23-1,.21-.35-.01-.71-.1-1.07-.27-.36-.16-.7-.39-1.02-.69-.32-.29-.54-.59-.66-.87-.12-.29-.14-.55-.06-.78.09-.24.28-.43.59-.59.31-.16.64-.23,1-.21.35.01.71.1,1.08.27.36.17.7.4,1.02.69.32.3.54.59.66.87.12.29.14.55.05.78-.08.24-.28.43-.59.59Zm-.51-.48c.25-.13.36-.32.32-.58s-.22-.55-.56-.87c-.34-.32-.69-.53-1.04-.63-.35-.1-.66-.09-.91.04-.25.13-.36.32-.33.59.04.26.23.55.57.87.34.32.69.53,1.04.63.35.1.66.09.91-.04Z"/>
      <path class="cls-7" d="m219.38,104.56c-.31.16-.64.23-1,.21-.35-.01-.71-.1-1.07-.27-.36-.16-.7-.39-1.02-.69-.32-.29-.54-.58-.66-.87-.12-.29-.14-.55-.06-.78.09-.24.28-.43.59-.59.31-.16.64-.23,1-.21.35.01.71.1,1.08.27.36.17.7.4,1.02.69.32.3.54.59.66.87.12.29.14.55.05.78-.09.24-.28.43-.59.59Zm-.51-.48c.25-.13.36-.32.32-.58-.04-.26-.22-.55-.56-.87-.34-.32-.69-.53-1.04-.63-.35-.1-.66-.09-.91.04-.26.13-.36.32-.33.59.04.26.23.55.57.87.34.32.69.53,1.04.63.35.1.66.09.91-.04Z"/>
    </g>
    <g class="cls-5">
      <path class="cls-7" d="m231.9,105.12l-12.13-11.3c-.67-.62-1.8-.83-2.52-.47l-23.53,11.9c-.72.36-.76,1.17-.09,1.79l12.13,11.3c.67.62,1.8.83,2.52.47l23.53-11.9c.72-.37.76-1.17.09-1.79Z"/>
    </g>
    <g>
      <g>
        <path class="cls-1" d="m217.43,90.99l-23.53,11.9c-.72.36-.76,1.17-.09,1.79l12.13,11.3c.67.62,1.8.83,2.52.47l23.53-11.9c.72-.37.76-1.17.09-1.79l-12.13-11.3c-.67-.62-1.8-.83-2.52-.47Z"/>
        <path class="cls-2" d="m207.29,114.42l-2.43-2.26c1.44-.73,3.7-.31,5.04.94l-2.61,1.32Z"/>
        <path class="cls-2" d="m198.8,106.51l-2.43-2.26,2.61-1.32c1.34,1.25,1.26,2.85-.19,3.58Z"/>
        <path class="cls-2" d="m229.51,103.18l-2.62,1.32c-1.34-1.25-1.26-2.85.19-3.58l2.43,2.26Z"/>
        <path class="cls-2" d="m221.02,95.27c-1.45.73-3.7.31-5.04-.94l2.62-1.32,2.43,2.26Z"/>
        <path class="cls-2" d="m217.18,107.67c-5.12,2.59-11.18,2.92-13.52.74-2.34-2.18-.09-6.06,5.03-8.65,5.12-2.59,11.18-2.92,13.52-.74,2.35,2.18.09,6.06-5.03,8.65Z"/>
      </g>
      <polygon class="cls-10" points="224.74 101.36 206.1 110.79 201.71 106.69 220.34 97.26 224.74 101.36"/>
      <g class="cls-4">
        <path class="cls-1" d="m212.28,106.35l-.34-.32c-.34.13-.69.16-1.06.1-.36-.06-.69-.22-.98-.48l.65-.33c.12.11.27.18.43.23.16.05.32.05.48.02l-.94-.87s-.08.01-.12.02c-.04,0-.08.02-.12.02-.34.05-.64.05-.91,0s-.51-.18-.72-.38c-.26-.23-.37-.47-.35-.71s.17-.44.44-.61l-.36-.33.32-.16.36.34c.31-.12.64-.15.97-.09.34.06.63.2.89.43l-.65.33c-.09-.08-.2-.14-.33-.18-.13-.04-.26-.05-.38-.03l.83.77s.07,0,.1-.02c.03,0,.07-.01.1-.02.22-.03.43-.05.64-.06.21,0,.41.03.61.1.2.07.39.19.58.36.15.14.26.3.31.46.05.16.04.33-.03.49-.07.16-.21.31-.43.43l.34.31-.32.16Zm-3.03-2.34c.09.09.2.14.32.17.12.02.25.03.39.02l-.74-.69c-.08.07-.12.14-.12.23,0,.09.05.18.15.27Zm2.56.85c-.12-.11-.25-.18-.39-.2-.14-.02-.3-.03-.47-.01l.84.79c.11-.08.17-.17.17-.27,0-.1-.04-.2-.15-.3Z"/>
        <path class="cls-1" d="m214.17,104.83l-2.46-2.29-.43.39-.43-.4.48-.72.38-.19,3.11,2.89-.64.32Z"/>
        <path class="cls-1" d="m216.88,103.54c-.31.16-.64.23-1,.21-.35-.01-.71-.1-1.07-.27-.36-.16-.7-.39-1.02-.69-.32-.29-.54-.59-.66-.87-.12-.29-.14-.55-.06-.78.09-.24.28-.43.59-.59.31-.16.64-.23,1-.21s.71.1,1.07.27.7.4,1.02.69c.32.3.54.59.66.87.12.29.14.55.05.78-.09.24-.28.43-.59.59Zm-.51-.48c.25-.13.36-.32.32-.58-.04-.26-.22-.55-.56-.87-.34-.32-.69-.53-1.04-.63-.35-.1-.66-.09-.91.04-.26.13-.36.32-.33.59.04.26.23.55.57.87.34.32.69.53,1.04.63s.66.09.91-.04Z"/>
      </g>
    </g>
  </g>
  <g>
    <g class="cls-5">
      <path class="cls-7" d="m66.98,100.25c0,1.54-5.14,2.79-11.48,2.79s-11.48-1.25-11.48-2.79,5.14-2.79,11.48-2.79c6.34,0,11.48,1.25,11.48,2.79Z"/>
    </g>
    <g>
      <path class="cls-9" d="m67.84,98.94c0,1.45-5.01,2.62-11.19,2.62s-11.19-1.17-11.19-2.62v-2.62h22.38v2.62Z"/>
      <ellipse class="cls-13" cx="56.64" cy="96.32" rx="11.19" ry="2.62"/>
    </g>
    <g>
      <path class="cls-9" d="m71.07,94.72c0,1.45-5.01,2.62-11.19,2.62s-11.19-1.17-11.19-2.62v-2.62h22.38v2.62Z"/>
      <ellipse class="cls-13" cx="59.88" cy="92.1" rx="11.19" ry="2.62"/>
    </g>
    <g>
      <path class="cls-9" d="m68.09,90.23c0,1.45-5.01,2.62-11.19,2.62s-11.19-1.17-11.19-2.62v-2.62h22.38v2.62Z"/>
      <ellipse class="cls-13" cx="56.9" cy="87.61" rx="11.19" ry="2.62"/>
    </g>
  </g>
  <g>
    <path class="cls-6" d="m287.75,71.4c-.32-.34-.74-.62-1.3-.85-.09-.04-.19-.08-.28-.11-.08-.03-.16-.06-.24-.09l-.25-.11c-.09-.04-.18-.08-.27-.12-.09-.04-.17-.08-.26-.13-.07-.04-.14-.07-.21-.1l-.08-.05s-.04-.02-.06-.03c-.16-.08-.36-.25-.51-.38-.02-.01-.03-.03-.05-.04l-.12-.08c-.07-.06-.14-.1-.2-.14l-.07-.05s-.06-.05-.1-.07l-.12-.08c-.11-.09-.23-.17-.35-.22l-.03-.02s-.09-.06-.13-.09l-.33-.22s-.04-.02-.06-.03c-.12-.06-.23-.12-.34-.19-.14-.08-.29-.16-.44-.23l-.22-.1c-.15-.07-.3-.14-.46-.21-.29-.12-.59-.23-.87-.33l-.21-.07c-.07-.02-.14-.04-.21-.06-.04,0-.08-.02-.11-.03-.2-.07-.4-.12-.58-.16l-.12-.03c-.2-.04-.4-.09-.6-.13-.2-.04-.4-.06-.6-.08-.08,0-.17-.02-.25-.03-.21-.03-.42-.03-.62-.03-.12,0-.24,0-.36-.01-.12,0-.23,0-.32.02-.05,0-.1.01-.14.01-.36-.01-.76.06-1.16.13l-1.02.18s-.06.01-.09.02c0,0,0,0,0,0-.05,0-.09.02-.13.04-.01,0-.03.01-.04.01-.05.02-.1.03-.15.05-.1.04-.21.08-.33.11-.13.04-.27.08-.43.15-.06.01-.12.03-.18.06-.22.1-.42.2-.61.3l-.18.09c-.31.16-.6.31-.89.5-.33.21-.64.44-.91.67-.02.01-.03.02-.05.03-.04.03-.09.06-.13.1l-.15.12c-.15.12-.29.24-.43.37-.13.13-.26.26-.39.39l-.2.2c-.11.11-.21.23-.31.35-.08.09-.16.19-.24.27-.05.05-.08.1-.12.15-.01.02-.03.04-.04.05s-.03.03-.04.05l-.59.81c-.04.05-.09.12-.14.19h0l-.1.14s-.03.04-.04.06c-.13.24-.29.47-.43.65l-.07.09c-.05.07-.09.13-.13.17l-.03.03c-.16.17-.33.33-.5.49-.07.07-.15.14-.23.21-.09.08-.18.16-.27.24-.05.05-.09.09-.14.14-.03.03-.05.06-.08.08-.37.37-.77.81-.92,1.45-.05.21-.1.79.07,1.17.14.3.27.52.44.7.1.11.21.19.3.28l.11.09s.09.07.15.1c.11.09.29.23.45.3l.11.05c.23.11.47.22.72.32l.24.09c.2.07.39.14.59.23.23.1.44.21.67.32.17.09.34.17.52.25.01,0,.02.02.04.02.05.03.1.06.15.09.06.03.11.06.16.08.07.03.13.07.2.1.02.01.05.03.07.04.07.04.13.09.2.12.06.03.12.06.18.09.07.04.15.07.22.11.07.03.13.07.19.11.09.06.19.11.29.16.2.09.39.19.58.28.32.16.66.32,1,.47.33.14.67.26,1,.37.16.05.33.11.49.17.08.03.17.05.26.07h.06c.09.03.17.05.26.07.11.03.22.05.32.07.08.02.16.03.24.04.05,0,.09,0,.14.02.32.06.66.08.99.09.11,0,.21,0,.32.02.02,0,.04,0,.05,0h.18c.09,0,.19-.01.29-.02.07,0,.14,0,.22,0,.03,0,.06,0,.09,0l1.25-.22c.05-.01.11-.02.15-.04l.18-.04s.05-.01.08-.03c.12-.05.24-.09.37-.13.18-.06.37-.12.56-.21l.1-.05c.13-.06.27-.12.39-.19.02,0,.03-.01.05-.02.06-.02.11-.05.17-.08.1-.06.2-.12.3-.18.16-.1.33-.19.48-.29.83-.53,1.5-1.18,2.14-1.8l.14-.13c.08-.08.16-.16.23-.24.05-.06.11-.12.17-.18.05-.05.1-.11.15-.17.03-.03.05-.07.08-.1.12-.13.24-.26.36-.39.1-.11.2-.23.31-.33.06-.06.11-.12.16-.19.03-.04.05-.07.08-.1.17-.17.32-.35.47-.52.16-.19.32-.37.49-.53.29-.29.64-.62,1.01-.95.14-.12.28-.24.41-.37.06-.06.11-.12.16-.19.03-.03.05-.07.08-.1.5-.51.77-1.09.83-1.8.01-.14-.01-.26-.03-.39-.08-.42-.24-.75-.52-1.05Z"/>
    <path class="cls-7" d="m287.37,72.76c0,.09-.03.17-.04.26-.05-.02-.1-.04-.16-.05-.62-.06-1.21.15-1.64.55-.37-.45-.93-.74-1.55-.75-.61-.02-1.19.24-1.58.68-.4-.42-.98-.66-1.6-.63-.61.03-1.16.34-1.51.8-.44-.39-1.03-.58-1.64-.49s-1.13.43-1.44.92c-.47-.35-1.08-.49-1.67-.36-.6.13-1.09.52-1.36,1.04-.49-.31-1.11-.41-1.7-.23-.59.18-1.05.61-1.28,1.14-.52-.27-1.14-.32-1.72-.09-.57.23-1,.69-1.19,1.25-.54-.23-1.17-.22-1.72.05-.05.03-.1.06-.14.11-.04-.07-.09-.15-.13-.25-.03-.07-.04-.28-.03-.44.09.05.2.07.31.05.04,0,.08-.02.12-.04.55-.27.95-.73,1.13-1.28.53.23,1.15.25,1.72.03.57-.22,1-.65,1.23-1.18.51.27,1.12.34,1.71.16.58-.18,1.05-.57,1.32-1.08.49.31,1.09.43,1.68.3.6-.13,1.09-.49,1.4-.98.46.35,1.05.51,1.65.43.6-.08,1.13-.4,1.47-.86.43.39,1,.59,1.61.56.61-.04,1.16-.31,1.54-.75.39.42.95.67,1.56.68.61.01,1.18-.22,1.6-.63.36.45.9.74,1.51.8.16.02.31-.05.41-.17.04.09.08.19.1.34,0,.04.02.1.02.11Z"/>
    <path class="cls-12" d="m267.19,73.94c.1-.1.17-.2.23-.29l.05-.07c.15-.21.33-.45.48-.73l.1-.14s.02-.03.04-.05c.02-.03.04-.06.07-.09l.6-.81s.06-.08.09-.12c.01-.02.03-.04.04-.05.1-.1.19-.21.29-.32.09-.1.17-.2.26-.29l.2-.21c.12-.12.25-.25.37-.37.12-.12.25-.22.38-.33l.16-.13s.03-.02.05-.03c.04-.03.09-.06.13-.09.24-.21.52-.41.82-.6.26-.16.53-.31.82-.46l.18-.09c.19-.1.36-.19.57-.28.06-.01.11-.03.17-.05.1-.04.21-.07.32-.11.14-.04.28-.09.43-.15.02,0,.04-.01.05-.02.03,0,.06-.02.09-.03.01,0,.02,0,.03,0,.04,0,.08-.02.11-.03l.98-.18c.33-.06.68-.12.94-.11.11,0,.22,0,.3-.02.05,0,.11-.01.14-.01.14,0,.27.01.41.01.18,0,.35,0,.51.02.09.01.18.02.27.03.18.02.35.04.51.07.19.04.39.08.58.12l.12.03c.16.04.33.07.47.12.07.02.14.04.21.06.04,0,.07.02.11.03l.21.07c.29.1.56.2.81.31.15.06.29.13.43.2l.22.1c.13.06.25.13.37.2.12.07.25.14.38.2l.33.21s.03.02.05.03c.01,0,.02.01.03.02.05.04.11.07.16.1.06.03.12.07.17.11.02.02.04.03.06.05l.16.1s.06.05.09.07l.08.05s.07.04.1.07c.02.01.03.03.05.04l.12.08c.18.16.41.36.67.49l.08.05s.04.02.06.03c.07.03.13.07.2.1.02.01.04.02.07.03-.24.31-.62.5-1.03.49-.52-.01-.97-.33-1.14-.81-.07-.19-.25-.32-.46-.32-.2,0-.39.14-.45.33-.16.49-.61.83-1.13.86-.52.03-1-.25-1.21-.72-.08-.19-.28-.3-.48-.28-.2.02-.37.17-.42.37-.12.5-.53.87-1.05.95-.52.07-1.01-.17-1.26-.62-.1-.18-.3-.27-.5-.24h0c-.2.04-.36.2-.39.4-.08.51-.46.91-.97,1.02-.51.11-1.03-.09-1.32-.52-.11-.17-.32-.25-.52-.2-.2.05-.34.23-.35.43-.04.51-.38.94-.88,1.09-.5.15-1.04-.01-1.36-.42-.13-.16-.34-.22-.53-.15-.19.07-.32.25-.32.46,0,.51-.3.96-.79,1.16-.38.15-.79.11-1.13-.09.03-.03.06-.05.08-.08l.03-.03Z"/>
    <path class="cls-12" d="m286.66,74.15s-.06.07-.09.1c-.12.11-.24.22-.36.33-.39.34-.75.69-1.06.98-.2.19-.37.39-.54.59-.14.16-.28.32-.43.47-.06.06-.11.12-.16.19-.03.03-.05.07-.08.1-.12.12-.23.24-.34.37-.11.12-.21.24-.32.35-.05.05-.1.11-.15.17-.03.03-.05.07-.08.1-.07.07-.13.14-.19.21-.06.07-.13.14-.19.2l-.14.13c-.61.59-1.25,1.2-2,1.69-.15.09-.3.18-.45.27-.11.06-.21.12-.32.19-.01,0-.03.01-.04.02-.04.02-.08.03-.12.06-.11.06-.23.11-.35.17l-.1.05c-.13.06-.29.11-.45.17-.13.04-.26.09-.39.14l-.17.04s-.04,0-.07.02c0,0-.02,0-.03,0l-.14.02-.5.09-.56.1c-.08,0-.17,0-.25,0-.07,0-.15.01-.22,0-.01,0-.03,0-.05,0h-.17c-.1,0-.21,0-.31,0-.3-.01-.59-.03-.85-.08-.07-.01-.14-.02-.21-.03-.05,0-.1-.01-.15-.02-.1-.02-.2-.05-.3-.07-.09-.02-.19-.04-.28-.06l-.08-.02s-.08-.01-.12-.03c-.17-.06-.34-.12-.51-.17-.33-.11-.63-.21-.93-.34-.32-.14-.65-.29-.96-.45-.2-.1-.4-.19-.6-.29-.07-.03-.13-.07-.19-.11-.09-.06-.19-.11-.29-.16-.06-.03-.13-.06-.19-.09-.07-.03-.13-.07-.2-.1-.02-.01-.05-.03-.07-.04-.07-.05-.13-.09-.2-.12-.05-.03-.11-.05-.16-.08-.07-.04-.13-.07-.2-.1-.01,0-.02-.02-.04-.02-.05-.03-.1-.07-.16-.09-.17-.08-.33-.16-.49-.24-.23-.12-.47-.24-.73-.35-.21-.09-.42-.17-.64-.25l-.24-.09c-.22-.08-.43-.18-.65-.29l-.11-.05s-.08-.05-.13-.08c.41-.13.86-.01,1.15.32.14.15.36.2.55.12.19-.08.3-.28.28-.48-.06-.5.22-.96.7-1.15.47-.19.99-.05,1.29.35.12.16.34.23.53.16.19-.07.32-.25.31-.46-.02-.5.3-.94.78-1.09.48-.15.99.03,1.26.46.11.17.32.26.52.2s.34-.23.35-.43c.02-.5.37-.91.86-1.02.49-.11.98.11,1.21.56.1.18.3.28.5.25.2-.04.36-.2.38-.4.06-.5.44-.88.94-.95.5-.07.97.19,1.17.65.08.19.27.3.48.28.21-.02.37-.17.42-.37.1-.49.51-.84,1.02-.87.51-.03.95.27,1.11.75.06.19.25.33.45.32.21,0,.39-.14.44-.34.14-.48.58-.8,1.09-.78.51.01.93.35,1.05.84.05.2.22.34.43.36.04,0,.08,0,.11,0,.16-.03.3-.14.36-.29.16-.41.53-.67.96-.7-.02.02-.04.05-.06.07-.05.05-.1.11-.15.17Z"/>
  </g>
</svg>