<?xml version="1.0" encoding="UTF-8"?>
<svg id="Layer_1" data-name="Layer 1" xmlns="http://www.w3.org/2000/svg" width="300" height="225" viewBox="0 0 300 225">
  <defs>
    <style>
      .cls-1 {
        fill: #84cd29;
      }

      .cls-2 {
        fill: #fff;
      }

      .cls-3, .cls-4 {
        isolation: isolate;
      }

      .cls-4 {
        opacity: .35;
      }

      .cls-5 {
        fill: #232323;
      }

      .cls-6 {
        fill: #ff7e1c;
      }

      .cls-7 {
        fill: #444;
      }

      .cls-8 {
        fill: #dda905;
      }

      .cls-9 {
        fill: none;
      }

      .cls-10 {
        fill: #ea651b;
      }

      .cls-11 {
        fill: #7f7f7f;
      }

      .cls-12 {
        fill: #ffcf15;
      }
    </style>
  </defs>
  <g>
    <g>
      <path class="cls-10" d="m161.98,112.16c1.07,2.37,2.53,4.61,4.39,6.63,9.41,10.25,25.35,10.93,35.6,1.52,5.47-5.02,8.21-11.9,8.15-18.78-1.63,3.87-4.1,7.46-7.4,10.49-11.61,10.66-29.29,10.53-40.74.14Z"/>
      <path class="cls-6" d="m167.89,83.19c-8.23,7.56-10.29,19.32-5.91,28.97,11.45,10.39,29.13,10.51,40.74-.14,3.3-3.03,5.77-6.62,7.4-10.49-.05-6.02-2.24-12.04-6.63-16.82-9.41-10.25-25.35-10.93-35.6-1.52Z"/>
    </g>
    <path class="cls-2" d="m192.27,103.94c.37.82.34,1.82-.08,2.99-.54,1.4-1.41,2.3-2.62,2.68-1.04.31-2.48.29-4.31-.07l-.72,2.78-2-.52.71-2.74-1.55-.4-.71,2.74-2.01-.52.72-2.78-3.97-1.03,1.03-2.27.41.11c.65.2,1.07.29,1.28.29.29-.01.51-.17.65-.48l2.31-8.87c.03-.46-.13-.79-.48-1-.22-.15-.73-.31-1.53-.49l-.33-.09.55-2.13,1.22.36c1.45.38,2.36.6,2.75.67l.84-3.23,2.01.52-.83,3.19,1.56.36.82-3.15,2,.52-.84,3.23c1.35.5,2.34,1.07,2.96,1.73.76.78,1.03,1.73.83,2.84-.25,1.62-1.1,2.6-2.55,2.92h0c.95.48,1.58,1.1,1.88,1.84h0Zm-8.25-4.03l.33.09c1.14.33,2.04.49,2.71.49,1.16.01,1.86-.43,2.09-1.33s-.14-1.64-1.13-2.22c-.56-.32-1.42-.62-2.6-.89-.2-.02-.33-.04-.38-.06l-1.02,3.93h0Zm-1.28,6.44c1.38.39,2.45.59,3.2.61,1.37,0,2.18-.48,2.44-1.46s-.2-1.8-1.37-2.45c-.63-.37-1.65-.7-3.05-1.01l-.45-.12-1.13,4.33.37.1h0Z"/>
  </g>
  <g>
    <g>
      <g class="cls-4">
        <ellipse class="cls-5" cx="151.81" cy="205.94" rx="51.67" ry="8.36"/>
      </g>
      <g>
        <g>
          <g>
            <path class="cls-5" d="m155,155.73c.23,1.51,4.99,43.54,12.19,49.46,7.2,5.92,10.91,3.95,12.42,2.32,1.51-1.63,3.48-4.53-.12-7.9-2.9-2.67-4.88-14.51-1.97-32.98l-22.53-10.91Z"/>
            <g>
              <path class="cls-5" d="m184.61,202.98c.93.23,1.86.12,2.21-.46.35-.58-.23-1.63-1.28-2.21-2.9-1.39-6.27-1.86-9.52-1.28-1.28.23-1.74,1.51-1.16,2.67s1.63,1.74,2.44,1.51c2.21-.81,4.76-.93,7.32-.23Z"/>
              <path class="cls-5" d="m183.22,208.21c.81.46,1.74.58,2.32.12.46-.46.23-1.63-.58-2.44-2.44-2.21-5.46-3.48-8.82-3.83-1.28-.12-2.09.93-1.86,2.21.23,1.28,1.05,2.09,1.86,2.09,2.32-.12,4.88.46,7.08,1.86Z"/>
              <path class="cls-5" d="m179.27,212.16c.46.81,1.28,1.39,1.97,1.16.7-.23,1.05-1.39.58-2.44-1.16-3.02-3.25-5.69-6.15-7.43-1.05-.7-2.32-.12-2.67,1.16-.35,1.16,0,2.32.7,2.67,2.32.93,4.3,2.67,5.57,4.88Z"/>
            </g>
          </g>
          <g>
            <path class="cls-5" d="m150.59,155.38c-.23,1.51-5.23,43.54-12.31,49.35-7.2,5.92-10.91,3.83-12.42,2.32-1.51-1.63-3.48-4.64.12-7.9,2.9-2.67,4.88-14.51,2.09-32.98l22.53-10.8Z"/>
            <g>
              <path class="cls-5" d="m122.02,202.98c-.93.23-1.86.12-2.21-.46s.23-1.63,1.28-2.21c2.9-1.39,6.27-1.86,9.52-1.16,1.28.23,1.74,1.51,1.16,2.67s-1.63,1.74-2.44,1.39c-2.21-.81-4.76-.93-7.32-.23Z"/>
              <path class="cls-5" d="m123.42,208.21c-.81.46-1.74.58-2.32.12-.46-.46-.23-1.63.58-2.44,2.44-2.09,5.57-3.48,8.82-3.83,1.28-.12,2.09,1.05,1.86,2.21-.23,1.28-1.05,2.09-1.86,2.09-2.32-.12-4.88.46-7.08,1.86Z"/>
              <path class="cls-5" d="m127.37,212.16c-.46.81-1.28,1.39-1.97,1.16s-.93-1.39-.58-2.44c1.16-3.02,3.37-5.57,6.15-7.43,1.05-.7,2.32-.12,2.67,1.16.35,1.16,0,2.32-.7,2.67-2.32.93-4.3,2.67-5.57,4.88Z"/>
            </g>
          </g>
        </g>
        <path class="cls-7" d="m191,133.55c-1.51-14.51-7.55-32.16-19.04-38.55-4.88-2.79-10.57-4.76-18.46-6.04-1.86.35-3.6.7-5.23,1.05-.23.12-.58.12-.81.23-.46.12-.93.23-1.39.35-.35.12-.58.12-.93.23-.46.12-.93.23-1.39.46-.23.12-.46.12-.7.23-.7.23-1.28.46-1.97.7-.23.12-.35.12-.58.23-.46.23-.93.35-1.39.58-.23.12-.46.23-.58.23-.46.23-.81.35-1.28.58-.23.12-.35.12-.58.23-.58.23-1.16.58-1.74.93-12.31,6.85-18.35,26.59-19.39,41.57-.12,2.21-.12,4.3-.12,6.27,0,5.11.35,9.29.93,11.84,0,.12.12.23.12.35,3.02,13.93,18.46,24.5,36.92,24.5,20.78,0,37.62-13.24,37.62-29.49v-.46c.35-4.41.35-9.99,0-16.02Z"/>
        <path class="cls-2" d="m181.24,92.91c-4.76-5.46-10.91-8.13-23.11-8.59h-6.97c-.81,0-1.51,0-2.21.12h-.23c-12.19.46-18.35,3.14-23.11,8.48-6.27,7.2-9.4,27.65-10.09,43.56,1.05-14.98,7.08-34.74,19.27-41.59,4.88-2.67,10.68-4.64,18.46-5.92,7.9,1.28,13.59,3.37,18.46,6.04,12.31,6.85,18.49,26.59,19.42,41.57-.35-16.02-3.63-36.46-9.9-43.66Z"/>
      </g>
    </g>
    <g>
      <path class="cls-5" d="m134,96.67c2.24-2.42,5.88-2.9,8.52-.53,2.65,2.37,2.9,7.85-.21,11.15-8.85,9.7-21.2,13.95-34.1,11.78-4.49-.74-7.72-5.12-7.03-8.69.68-3.56,3.81-5.35,7.04-4.81,9.68,1.52,19.06-1.64,25.78-8.91Z"/>
      <g>
        <path class="cls-5" d="m98.44,104.04c-.69-.63-1.65-1.04-2.25-.67s-.62,1.6.05,2.56c1.85,2.7,4.65,4.73,7.86,5.81,1.21.34,2.34-.47,2.28-1.8.1-1.31-.56-2.27-1.37-2.5-2.37-.27-4.75-1.44-6.57-3.4Z"/>
        <path class="cls-5" d="m103.21,101.03c-.34-.93-.94-1.64-1.69-1.61s-1.32,1.13-1.09,2.3c.49,3.25,1.97,6.41,4.42,8.75.92.9,2.25.67,2.92-.51.67-1.18.6-2.34-.11-2.81-2.11-1.4-3.67-3.58-4.46-6.12Z"/>
        <path class="cls-5" d="m95.84,108.86c-.87-.48-1.85-.56-2.3-.02s-.22,1.71.71,2.44c2.55,2.09,5.75,3.33,9.2,3.44,1.23.01,2.07-1.16,1.75-2.42s-1.16-2.07-1.99-1.97c-2.49.3-5.1-.07-7.38-1.49Z"/>
      </g>
    </g>
    <path class="cls-5" d="m168.86,105.68c-3.22-.7-5.48-3.59-4.78-7.08.7-3.48,5.3-6.48,9.72-5.47,12.85,2.71,22.78,11.2,27.44,23.43,1.64,4.25-7.19,11.1-10.61,12.32,0,0-.45-5.15-.84-8.47-3.6-9.11-11.26-12.62-20.93-14.73Z"/>
  </g>
  <g>
    <path class="cls-2" d="m182.35,60.44c-.36-13.66-11.22-19.42-34.42-16.02-7.36,1.08-15.86-6.06-21.44-6.53-16.05-1.35-17.59,9.25-17.59,9.25h-.03c3.89-18.57,23.06-32.95,46.44-33.48,26.55-.59,48.47,16.89,48.97,39.05.5,22.17-20.62,40.62-47.16,41.22-2.31.05-4.59-.04-6.82-.26v-.02c23.42,1.1,32.53-15.08,32.05-33.21Z"/>
    <path class="cls-7" d="m108.88,47.15h.03s1.54-10.6,17.59-9.26c5.58.47,14.08,7.61,21.44,6.53,16.65-2.44,26.94-.16,31.56,6.37.53-.44,1.09-.69,1.68-.69,3.03-.03,5.55,6.22,5.63,13.97.07,7.74-2.33,14.04-5.36,14.08-.68,0-1.34-.32-1.95-.89-4.28,10.13-13.53,17.13-29.19,16.4v.03c-23.38-2.24-41.69-18.57-42.15-38.8-.06-2.64.2-5.22.72-7.73Z"/>
    <path class="cls-11" d="m139.65,86.85c5.1.09,14.94-4.53,12.79-15.05-2.15-10.52-14.26-11.55-18.27-11.61-4.02-.07-15.8.57-13.65,11.09,2.15,10.52,14.03,15.49,19.13,15.58Z"/>
    <path class="cls-5" d="m134.48,62.94c-2.22-.04-5.01,2.26-4.84,4.99.18,2.73,6.56,2.74,6.56,2.74h.18s6.43.21,5.48-2.54c-.94-2.74-4.7-5.14-6.91-5.18h-.48Z"/>
    <circle class="cls-5" cx="154.83" cy="56.85" r="1.97"/>
    <circle class="cls-5" cx="122.85" cy="52.51" r="1.97"/>
    <path class="cls-5" d="m179.01,55.48c2.5,0,4.72,4.62,5.76,11.24.05-.84.08-1.71.07-2.62-.09-6.08-1.77-11.01-3.75-11-.84,0-1.6.9-2.19,2.4.04,0,.08-.02.12-.02Z"/>
    <path class="cls-11" d="m161,57.51c-.34,0-.64-.26-.68-.61-.07-.6-.25-1.17-.55-1.7-.29-.53-.68-.99-1.15-1.37-.48-.39-1.03-.68-1.64-.85-.6-.18-1.22-.23-1.84-.15-.38.05-.72-.22-.76-.6-.04-.38.22-.72.6-.76.8-.09,1.6-.03,2.39.2.79.23,1.5.6,2.12,1.11.61.49,1.11,1.09,1.48,1.77.38.69.62,1.43.71,2.2.04.38-.23.72-.6.76-.03,0-.05,0-.08,0Z"/>
    <path class="cls-11" d="m117.36,51.61c-.07,0-.14,0-.21-.03-.36-.11-.56-.5-.45-.86.24-.78.63-1.48,1.16-2.1.53-.63,1.17-1.12,1.88-1.48.69-.35,1.44-.56,2.22-.62.77-.06,1.56.03,2.3.25.36.11.57.5.45.86-.11.36-.5.57-.86.45-.57-.18-1.19-.25-1.78-.2-.6.05-1.18.21-1.72.48-.55.27-1.04.66-1.45,1.14-.41.47-.71,1.02-.89,1.62-.09.29-.36.48-.66.48Z"/>
    <path class="cls-5" d="m135.39,81.67c-.75,0-1.49-.08-2.24-.24-1.4-.3-2.7-.87-3.86-1.68-1.13-.8-2.08-1.79-2.82-2.94-.75-1.17-1.26-2.44-1.52-3.78-.06-.32.15-.63.47-.69.32-.06.63.15.69.47.23,1.19.68,2.32,1.35,3.36.66,1.02,1.5,1.9,2.51,2.61,1.03.72,2.18,1.23,3.43,1.49,1.25.27,2.51.29,3.75.04,1.2-.23,2.33-.68,3.36-1.34,1.03-.67,1.91-1.51,2.61-2.51.19-.27.56-.33.82-.14.27.19.33.56.14.82-.79,1.12-1.77,2.07-2.93,2.82-1.16.75-2.43,1.25-3.78,1.51-.66.13-1.32.19-1.98.19Z"/>
  </g>
  <g>
    <g>
      <path class="cls-1" d="m101.22,94.61l-24.81,1.99c-.76.06-1.08.75-.72,1.53l6.56,14.21c.36.78,1.27,1.37,2.03,1.31l24.81-1.99c.76-.06,1.08-.75.72-1.53l-6.56-14.21c-.36-.79-1.27-1.37-2.03-1.31Z"/>
      <path class="cls-2" d="m83.99,111.47l-1.31-2.84c1.52-.12,3.34,1.05,4.07,2.62l-2.76.22Z"/>
      <path class="cls-2" d="m79.39,101.52l-1.31-2.84,2.76-.22c.72,1.57.08,2.94-1.44,3.06Z"/>
      <path class="cls-2" d="m107.42,109.59l-2.76.22c-.72-1.57-.08-2.94,1.45-3.06l1.31,2.84Z"/>
      <path class="cls-2" d="m102.83,99.64c-1.52.12-3.35-1.05-4.07-2.62l2.76-.22,1.31,2.84Z"/>
      <path class="cls-2" d="m95.05,109.11c-5.4.43-10.81-1.44-12.08-4.19-1.27-2.75,2.08-5.33,7.48-5.76,5.4-.43,10.81,1.44,12.08,4.19,1.27,2.75-2.08,5.32-7.49,5.76Z"/>
    </g>
    <polygon class="cls-9" points="103.91 106.29 84.25 107.87 81.87 102.72 101.53 101.14 103.91 106.29"/>
    <g class="cls-3">
      <path class="cls-1" d="m86.89,106.55l-.18-.4c-.34-.01-.66-.11-.96-.29-.3-.18-.52-.44-.68-.77l.68-.05c.07.14.17.26.29.35s.26.16.41.19l-.51-1.1s-.07-.02-.11-.02c-.04,0-.07-.02-.11-.02-.32-.08-.58-.18-.8-.32-.21-.14-.38-.34-.5-.59-.14-.3-.16-.54-.05-.74.11-.2.31-.32.6-.37l-.19-.42.34-.03.2.43c.32,0,.61.1.88.27.27.17.48.4.62.69l-.69.06c-.05-.1-.12-.19-.22-.27-.1-.08-.21-.13-.33-.16l.45.97s.06.02.09.02c.03,0,.06.01.09.02.2.05.4.11.58.18.18.07.35.17.5.3.15.13.28.3.37.52.08.18.12.35.1.51s-.08.3-.2.42c-.12.12-.3.19-.53.22l.18.4-.34.03Zm-1.81-3.13c.05.11.12.2.22.26.09.06.21.11.34.15l-.4-.86c-.09.03-.16.08-.19.16-.03.08-.02.17.03.29Zm1.93,1.66c-.06-.14-.15-.24-.27-.32-.12-.07-.25-.13-.41-.18l.46.99c.12-.03.21-.09.25-.18s.03-.19-.03-.32Z"/>
      <path class="cls-1" d="m89.08,105.91l-1.33-2.88-.52.19-.23-.51.67-.46.4-.03,1.68,3.64-.67.05Z"/>
      <path class="cls-1" d="m91.91,105.75c-.33.03-.64-.03-.95-.17-.3-.14-.59-.34-.84-.62s-.47-.6-.64-.97c-.17-.37-.26-.7-.26-1,0-.29.07-.53.23-.71.16-.18.4-.28.73-.3.33-.03.64.03.95.17.3.14.59.35.84.62.26.27.47.6.64.97.17.37.26.71.27,1,0,.29-.07.53-.23.7-.16.18-.4.28-.73.3Zm-.28-.6c.27-.02.43-.15.49-.4s0-.56-.18-.96c-.18-.4-.41-.71-.69-.92-.27-.22-.54-.31-.81-.29-.27.02-.43.15-.49.4-.06.24,0,.56.18.96.18.4.41.71.68.92s.54.31.81.29Z"/>
      <path class="cls-1" d="m95.49,105.46c-.33.03-.64-.03-.95-.17-.3-.14-.58-.34-.84-.62s-.47-.6-.64-.97c-.17-.37-.26-.7-.26-1,0-.29.07-.53.23-.71.16-.18.4-.28.73-.3.33-.03.64.03.95.17.3.14.59.35.84.62s.47.6.64.97c.17.37.26.71.27,1,0,.29-.07.53-.23.7-.16.18-.4.28-.73.3Zm-.28-.6c.27-.02.43-.15.49-.4s0-.56-.18-.96c-.18-.4-.41-.71-.69-.92-.27-.22-.54-.31-.81-.29-.27.02-.43.15-.49.4-.06.24,0,.56.19.96.18.4.41.71.68.92s.54.31.81.29Z"/>
      <path class="cls-1" d="m99.07,105.17c-.33.03-.64-.03-.95-.17-.3-.14-.58-.34-.84-.62s-.47-.6-.64-.97c-.17-.37-.26-.7-.26-1,0-.29.07-.53.23-.71.16-.18.4-.28.73-.3.33-.03.64.03.95.17.3.14.59.35.84.62.26.27.47.6.64.97.17.37.26.71.27,1,0,.29-.07.53-.23.7-.16.18-.4.28-.73.3Zm-.28-.6c.27-.02.43-.15.49-.4.06-.24,0-.56-.18-.96-.18-.4-.41-.71-.69-.92-.27-.22-.54-.31-.81-.29-.27.02-.43.15-.49.4-.06.24,0,.56.18.96s.41.71.68.92.54.31.81.29Z"/>
    </g>
  </g>
  <g>
    <g class="cls-4">
      <path class="cls-5" d="m108.79,109.21c0,1.26-4.21,2.28-9.41,2.28s-9.4-1.02-9.4-2.28,4.21-2.28,9.4-2.28c5.19,0,9.41,1.02,9.41,2.28Z"/>
    </g>
    <g>
      <path class="cls-8" d="m109.5,108.14c0,1.19-4.1,2.15-9.17,2.15s-9.17-.96-9.17-2.15v-2.15h18.33v2.15Z"/>
      <ellipse class="cls-12" cx="100.33" cy="105.99" rx="9.17" ry="2.15"/>
    </g>
    <g>
      <path class="cls-8" d="m112.15,104.68c0,1.19-4.1,2.15-9.17,2.15s-9.17-.96-9.17-2.15v-2.15h18.33v2.15Z"/>
      <ellipse class="cls-12" cx="102.98" cy="102.53" rx="9.17" ry="2.15"/>
    </g>
    <g>
      <path class="cls-8" d="m109.7,101c0,1.19-4.1,2.15-9.17,2.15s-9.17-.96-9.17-2.15v-2.15h18.33v2.15Z"/>
      <ellipse class="cls-12" cx="100.54" cy="98.86" rx="9.17" ry="2.15"/>
    </g>
  </g>
</svg>