<?xml version="1.0" encoding="UTF-8"?>
<svg id="Layer_1" data-name="Layer 1" xmlns="http://www.w3.org/2000/svg" width="300" height="225" viewBox="0 0 300 225">
  <defs>
    <style>
      .cls-1 {
        fill: #c90000;
      }

      .cls-2 {
        fill: #fff;
      }

      .cls-3 {
        isolation: isolate;
        opacity: .35;
      }

      .cls-4 {
        fill: #34d805;
      }

      .cls-5 {
        fill: #232323;
      }

      .cls-6 {
        fill: #444;
      }

      .cls-7 {
        fill: #7f7f7f;
      }
    </style>
  </defs>
  <g class="cls-3">
    <ellipse class="cls-5" cx="157.35" cy="202.74" rx="54.29" ry="12.06"/>
  </g>
  <g>
    <g>
      <path class="cls-5" d="m156.77,147.86c.23,1.51,4.99,43.54,12.19,49.46,7.2,5.92,10.91,3.95,12.42,2.32,1.51-1.63,3.48-4.53-.12-7.9-2.9-2.67-4.88-14.51-1.97-32.98l-22.53-10.91Z"/>
      <g>
        <path class="cls-5" d="m186.38,195.11c.93.23,1.86.12,2.21-.46.35-.58-.23-1.63-1.28-2.21-2.9-1.39-6.27-1.86-9.52-1.28-1.28.23-1.74,1.51-1.16,2.67s1.63,1.74,2.44,1.51c2.21-.81,4.76-.93,7.32-.23Z"/>
        <path class="cls-5" d="m184.99,200.34c.81.46,1.74.58,2.32.12.46-.46.23-1.63-.58-2.44-2.44-2.21-5.46-3.48-8.82-3.83-1.28-.12-2.09.93-1.86,2.21.23,1.28,1.05,2.09,1.86,2.09,2.32-.12,4.88.46,7.08,1.86Z"/>
        <path class="cls-5" d="m181.04,204.29c.46.81,1.28,1.39,1.97,1.16.7-.23,1.05-1.39.58-2.44-1.16-3.02-3.25-5.69-6.15-7.43-1.05-.7-2.32-.12-2.67,1.16-.35,1.16,0,2.32.7,2.67,2.32.93,4.3,2.67,5.57,4.88Z"/>
      </g>
    </g>
    <g>
      <path class="cls-5" d="m151.08,153.09c-.23,1.51-5.23,43.54-12.31,49.35-7.2,5.92-10.91,3.83-12.42,2.32-1.51-1.63-3.48-4.64.12-7.9,2.9-2.67,4.88-14.51,2.09-32.98l22.53-10.8Z"/>
      <g>
        <path class="cls-5" d="m122.52,200.69c-.93.23-1.86.12-2.21-.46s.23-1.63,1.28-2.21c2.9-1.39,6.27-1.86,9.52-1.16,1.28.23,1.74,1.51,1.16,2.67s-1.63,1.74-2.44,1.39c-2.21-.81-4.76-.93-7.32-.23Z"/>
        <path class="cls-5" d="m123.91,205.92c-.81.46-1.74.58-2.32.12-.46-.46-.23-1.63.58-2.44,2.44-2.09,5.57-3.48,8.82-3.83,1.28-.12,2.09,1.05,1.86,2.21-.23,1.28-1.05,2.09-1.86,2.09-2.32-.12-4.88.46-7.08,1.86Z"/>
        <path class="cls-5" d="m127.86,209.87c-.46.81-1.28,1.39-1.97,1.16s-.93-1.39-.58-2.44c1.16-3.02,3.37-5.57,6.15-7.43,1.05-.7,2.32-.12,2.67,1.16.35,1.16,0,2.32-.7,2.67-2.32.93-4.3,2.67-5.57,4.88Z"/>
      </g>
    </g>
  </g>
  <path class="cls-6" d="m186.26,126.3c-3.48-14.17-11.87-30.83-24.13-35.59-5.21-2.09-11.12-3.27-19.11-3.46-1.79.6-3.47,1.18-5.03,1.75-.21.15-.56.19-.77.34-.44.18-.89.36-1.33.54-.33.16-.56.19-.89.36-.44.18-.89.36-1.32.65-.21.15-.44.18-.66.33-.66.33-1.2.63-1.86.96-.21.15-.33.16-.54.31-.43.29-.87.47-1.3.77-.21.15-.43.29-.54.31-.43.29-.76.46-1.19.75-.21.15-.33.16-.54.31-.54.31-1.07.73-1.6,1.16-11.26,8.47-14.54,28.85-13.53,43.83.19,2.2.47,4.27.74,6.23.7,5.06,1.61,9.15,2.54,11.61.02.12.15.21.16.33,4.89,13.39,21.64,21.75,39.93,19.23,20.59-2.84,35.46-18.25,33.24-34.36l-.06-.46c-.26-4.42-1.02-9.94-2.19-15.87Z"/>
  <path class="cls-2" d="m171.05,87.37c-5.46-4.76-11.92-6.56-24.06-5.36l-.58.08-1.84.25-1.96.27-.23.03h0l-.12.02h0l-.12.02-2.07.29c-.81.11-1.5.21-2.17.42l-.23.03c-12.01,2.13-17.75,5.61-21.73,11.55-5.23,7.99-5.66,28.68-4.17,44.53-1.01-14.98,2.39-35.38,13.53-43.83,4.47-3.31,9.95-6.06,17.48-8.39,8,.19,13.92,1.48,19.11,3.46,13.13,5.11,21.81,23.83,24.77,38.55-2.53-15.83-8.43-35.64-15.63-41.92Z"/>
  <path class="cls-5" d="m120.71,99.61c1.43-3.11,4.82-4.81,8.25-3.32,3.42,1.49,5.36,6.78,3.4,11.13-5.57,12.39-16.38,20.59-29.81,22.62-4.72.72-9.3-2.57-9.81-6.26-.52-3.71,2.03-6.52,5.41-7.06,10.16-1.54,18.33-7.74,22.55-17.12Z"/>
  <path class="cls-5" d="m90.06,131.22c-.9.71-2.09,1-2.75.46-.66-.53-.54-1.97.44-3.05,2.66-2.93,6.25-4.99,10.27-5.79,1.5-.3,2.66.92,2.55,2.47-.11,1.56-.99,2.71-2.03,2.75-2.96.1-5.96,1.15-8.48,3.15Z"/>
  <path class="cls-5" d="m90.16,128.32c-.76.86-1.88,1.35-2.63.94-.74-.41-.88-1.84-.1-3.08,2.1-3.35,5.27-6.02,9.09-7.52,1.42-.56,2.78.44,2.95,1.99.17,1.55-.5,2.85-1.52,3.07-2.9.62-5.66,2.19-7.79,4.6Z"/>
  <path class="cls-5" d="m89.94,125.62c-.9.7-2.09.99-2.76.45-.66-.53-.53-1.97.46-3.05,2.68-2.92,6.28-4.96,10.3-5.74,1.5-.29,2.65.94,2.54,2.49-.12,1.55-1.01,2.7-2.05,2.74-2.96.08-5.96,1.12-8.5,3.11Z"/>
  <path class="cls-5" d="m191.98,87.62c3.39.48,6.66-1.46,7.25-5.16.59-3.68-2.81-8.17-7.54-8.87-13.43-1.99-26.17,2.68-35.13,12.89-3.15,3.58-2.85,9.21-.02,11.63,2.84,2.44,6.59,1.81,8.87-.75,6.78-7.72,16.41-11.26,26.58-9.75Z"/>
  <path class="cls-5" d="m205.12,82.03c1.13-.19,2.14-.89,2.18-1.73.05-.85-1.1-1.72-2.56-1.71-3.96.02-7.89,1.31-11.18,3.76-1.22.91-1.09,2.59.13,3.55,1.23.96,2.68,1.08,3.41.33,2.05-2.14,4.84-3.66,8.02-4.19Z"/>
  <path class="cls-5" d="m202.9,80.17c1.14,0,2.26-.5,2.46-1.33.2-.83-.78-1.88-2.22-2.14-3.9-.68-8-.1-11.67,1.73-1.36.68-1.53,2.36-.49,3.52,1.04,1.16,2.45,1.53,3.29.92,2.4-1.74,5.41-2.75,8.63-2.71Z"/>
  <path class="cls-5" d="m201.05,78.19c1.13-.2,2.13-.9,2.17-1.75.05-.85-1.11-1.71-2.57-1.7-3.96.04-7.89,1.35-11.16,3.82-1.22.92-1.08,2.6.15,3.55,1.23.95,2.68,1.06,3.41.31,2.04-2.15,4.82-3.68,7.99-4.23Z"/>
  <path class="cls-2" d="m114.18,55.52c1.99-13.52,13.45-17.94,36.08-11.8,7.18,1.95,16.47-4.13,22.07-3.93,16.09.58,16.36,11.28,16.36,11.28h.03c-1.65-18.89-18.96-35.46-42.12-38.77-26.29-3.75-50.14,10.99-53.27,32.94-3.14,21.95,15.63,42.79,41.91,46.55,2.29.33,4.56.5,6.8.56v-.02c-23.38-1.7-30.5-18.86-27.86-36.79Z"/>
  <path class="cls-6" d="m188.72,51.09h-.03s-.26-10.71-16.36-11.29c-5.6-.2-14.88,5.88-22.07,3.93-16.24-4.41-26.72-3.37-32.09,2.56-.47-.5-1-.81-1.59-.89-3-.39-6.26,5.52-7.25,13.2-1,7.68.64,14.22,3.64,14.62.68.09,1.37-.16,2.04-.66,3.04,10.57,11.39,18.62,27.03,19.76v.03c23.48.56,43.61-13.46,46.47-33.5.38-2.61.43-5.21.21-7.76Z"/>
  <path class="cls-7" d="m153.44,86.84c-5.07-.52-14.29-6.28-10.9-16.47,3.38-10.19,15.53-9.77,19.53-9.35,4,.41,15.62,2.45,12.23,12.64-3.39,10.19-15.78,13.71-20.85,13.18Z"/>
  <path class="cls-5" d="m161.41,63.71c2.2.23,4.71,2.84,4.21,5.53-.5,2.69-6.84,1.94-6.84,1.94l-.18-.02s-6.41-.56-5.14-3.18c1.26-2.61,5.28-4.55,7.48-4.32l.48.05Z"/>
  <circle class="cls-5" cx="141.94" cy="55.24" r="1.97"/>
  <circle class="cls-5" cx="174.21" cy="54.75" r="1.97"/>
  <path class="cls-5" d="m118.09,51c-2.49-.3-5.23,4.02-7.05,10.48.05-.84.12-1.71.24-2.61.81-6.03,3.07-10.72,5.04-10.48.84.1,1.48,1.09,1.89,2.64-.04,0-.08-.03-.12-.03Z"/>
  <path class="cls-7" d="m135.82,55.16c-.05,0-.11,0-.16-.02-.37-.09-.6-.46-.51-.83.18-.76.51-1.46.96-2.1.46-.64,1.02-1.17,1.69-1.58.68-.43,1.43-.71,2.23-.85.81-.13,1.61-.1,2.39.09.37.09.6.46.51.83-.09.37-.46.6-.83.51-.6-.15-1.22-.17-1.84-.07-.62.1-1.2.32-1.72.65-.51.32-.95.73-1.3,1.22s-.6,1.04-.74,1.62c-.08.32-.36.53-.67.53Z"/>
  <path class="cls-7" d="m179.85,54.51c-.33,0-.61-.23-.68-.56-.11-.62-.35-1.19-.69-1.71-.35-.53-.79-.97-1.3-1.3-.5-.33-1.06-.56-1.65-.69-.58-.12-1.2-.12-1.78-.01-.37.07-.73-.18-.8-.55s.18-.73.55-.8c.76-.14,1.55-.13,2.31.02.77.16,1.49.46,2.14.89.66.43,1.23,1,1.69,1.69.45.67.75,1.42.9,2.22.07.37-.18.73-.55.8-.04,0-.08.01-.13.01Z"/>
  <path class="cls-5" d="m159.53,82.28c-1.09,0-2.16-.17-3.2-.5-1.31-.41-2.51-1.07-3.57-1.95-1.06-.89-1.93-1.95-2.58-3.15-.15-.29-.05-.65.24-.8.29-.15.65-.05.8.24.58,1.07,1.35,2.02,2.29,2.8.94.78,2.01,1.36,3.17,1.73,1.2.39,2.46.52,3.73.4,1.27-.12,2.48-.48,3.59-1.07,1.08-.59,2.03-1.36,2.8-2.29.79-.95,1.37-2.02,1.74-3.17.1-.31.43-.48.74-.38.31.1.48.43.39.74-.41,1.3-1.07,2.5-1.96,3.57-.87,1.05-1.93,1.92-3.15,2.58-1.25.67-2.61,1.08-4.04,1.21-.33.03-.67.05-1,.05Z"/>
  <rect class="cls-1" x="80.46" y="156.75" width="28.43" height="13.75"/>
  <g>
    <path class="cls-2" d="m88.99,167.89h-6.02v-2.35s3.39-2.6,3.39-3.56c0-.62-1.2-.64-1.8-.14-.22.19-.28.5-.14.77l-1.25-2.4s.89-1.01,2.47-1.01c2.21,0,3.23,1.22,3.23,2.64,0,1.88-2.64,3.71-2.64,3.71h2.76v2.35Zm-4.57-5.29v.02s0-.02,0-.02Z"/>
    <path class="cls-2" d="m89.83,162.17c0-.89.31-2.96,3.21-2.96s3.21,2.07,3.21,2.96v3.05c0,.89-.31,2.96-3.21,2.96s-3.21-2.08-3.21-2.96v-3.05Zm4.09,0c0-.12-.01-.42-.12-.49-.07-.05-.26-.13-.76-.13s-.68.08-.74.13c-.12.07-.13.37-.13.49v3.05c0,.12.01.42.13.49.06.05.25.13.74.13s.68-.08.76-.13c.11-.07.12-.37.12-.49v-3.05Z"/>
    <path class="cls-2" d="m99.67,168.64h-2.57l6.69-9.92h2.57l-6.69,9.92Zm-.46-5.61c1.16,0,2.11-.96,2.11-2.12s-.95-2.11-2.11-2.11-2.11.95-2.11,2.11.95,2.12,2.11,2.12Zm0-2.77c.36,0,.66.29.66.65s-.3.66-.66.66-.65-.3-.65-.66.29-.65.65-.65Zm5.04,8.31c1.16,0,2.11-.96,2.11-2.12s-.95-2.11-2.11-2.11-2.11.95-2.11,2.11.95,2.12,2.11,2.12Zm0-2.77c.36,0,.66.29.66.65s-.3.66-.66.66-.65-.3-.65-.66.29-.65.65-.65Z"/>
  </g>
  <rect class="cls-4" x="196.55" y="97.13" width="28.43" height="58.91"/>
  <g>
    <path class="cls-2" d="m205.47,105.61c0,.88-.32,2.9-3.27,2.9s-3.27-2.03-3.27-2.9c0-.44.08-1.18.55-1.8-.32-.54-.38-1.14-.38-1.51,0-.83.3-2.76,3.11-2.76s3.11,1.93,3.11,2.76c0,.37-.06.97-.38,1.51.47.62.55,1.36.55,1.8Zm-3.05.59c.31,0,.58-.26.58-.59s-.26-.59-.58-.59h-.44c-.32,0-.59.26-.59.59s.26.59.59.59h.44Zm-.44-4.46c-.3,0-.55.25-.55.56s.25.55.55.55h.43c.3,0,.55-.25.55-.55s-.25-.56-.55-.56h-.43Z"/>
    <path class="cls-2" d="m206.02,102.5c0-.89.31-2.96,3.21-2.96s3.21,2.07,3.21,2.96v3.05c0,.89-.31,2.96-3.21,2.96s-3.21-2.08-3.21-2.96v-3.05Zm4.09,0c0-.12-.01-.42-.12-.49-.07-.05-.26-.13-.76-.13s-.68.08-.74.13c-.12.07-.13.37-.13.49v3.05c0,.12.01.42.13.49.06.05.25.13.74.13s.68-.08.76-.13c.11-.07.12-.37.12-.49v-3.05Z"/>
    <path class="cls-2" d="m215.86,108.98h-2.57l6.69-9.92h2.57l-6.69,9.92Zm-.46-5.61c1.16,0,2.11-.96,2.11-2.12s-.95-2.11-2.11-2.11-2.11.95-2.11,2.11.95,2.12,2.11,2.12Zm0-2.77c.36,0,.66.29.66.65s-.3.66-.66.66-.65-.3-.65-.66.29-.65.65-.65Zm5.04,8.31c1.16,0,2.11-.96,2.11-2.12s-.95-2.11-2.11-2.11-2.11.95-2.11,2.11.95,2.12,2.11,2.12Zm0-2.77c.36,0,.66.29.66.65s-.3.66-.66.66-.65-.3-.65-.66.29-.65.65-.65Z"/>
  </g>
</svg>