<?xml version="1.0" encoding="UTF-8"?>
<svg id="Layer_1" data-name="Layer 1" xmlns="http://www.w3.org/2000/svg" width="300" height="225" viewBox="0 0 300 225">
  <defs>
    <style>
      .cls-1 {
        fill: #bc703c;
      }

      .cls-2 {
        fill: #fff;
      }

      .cls-3 {
        isolation: isolate;
        opacity: .35;
      }

      .cls-4 {
        fill: #232323;
      }

      .cls-5 {
        fill: #663b1b;
      }

      .cls-6 {
        fill: #444;
      }

      .cls-7 {
        fill: #faf8d3;
      }

      .cls-8 {
        fill: #af713e;
      }

      .cls-9 {
        fill: #0a0a08;
      }

      .cls-10 {
        fill: #54381a;
      }

      .cls-11 {
        fill: #d98a4f;
      }

      .cls-12 {
        fill: #7f7f7f;
      }

      .cls-13 {
        fill: #595659;
      }
    </style>
  </defs>
  <g>
    <path class="cls-4" d="m129.19,99.59c3.19,0,3.2-4.96,0-4.96s-3.2,4.96,0,4.96h0Z"/>
    <path class="cls-4" d="m122.5,98.63c3.19,0,3.2-4.96,0-4.96s-3.2,4.96,0,4.96h0Z"/>
    <path class="cls-4" d="m91.68,101.17c-2.91-.97-6.11.2-7.24,3.37-1.13,3.15,1.14,7.67,5.2,9.06,11.53,3.96,23.54,1.92,33.12-5.62,3.37-2.65,4.03-7.67,1.93-10.26-2.11-2.62-5.52-2.67-7.95-.79-7.25,5.7-16.33,7.24-25.06,4.25Z"/>
    <path class="cls-4" d="m129.47,98.01c.8-.37,1.42-1.09,1.28-1.74-.13-.65-1.17-1.06-2.26-.76-2.95.81-5.63,2.56-7.6,5.05-.73.93-.29,2.16.81,2.63,1.11.47,2.22.26,2.61-.44,1.11-2.01,2.89-3.7,5.15-4.74Z"/>
    <path class="cls-4" d="m130.62,103.12c.88.04,1.76-.33,1.93-.96.17-.63-.56-1.47-1.67-1.7-3-.62-6.18-.29-9.06,1.04-1.07.49-1.24,1.78-.47,2.71.77.93,1.85,1.25,2.52.8,1.9-1.29,4.25-1.99,6.74-1.88Z"/>
    <g>
      <path class="cls-10" d="m158.5,104.5h0c-.27,1.47-1.69,2.45-3.16,2.17L13.85,79.72c-1.45-.28-2.41-1.67-2.15-3.13h0c.27-1.47,1.69-2.45,3.16-2.17l141.5,26.95c1.45.28,2.41,1.67,2.15,3.13Z"/>
      <path class="cls-13" d="m28.44,34.3l-9.43,42.93-6.03,42.18c-.06.43-.47.72-.9.65l-9.41-1.71c-.42-.08-.7-.48-.62-.9l7.16-36.61c.68-3.46,1.68-6.84,2.99-10.11l14.81-36.86c.13-.33.47-.52.82-.45h0c.41.08.68.48.59.89Z"/>
    </g>
    <g class="cls-3">
      <ellipse class="cls-4" cx="70.94" cy="198.65" rx="42.44" ry="6.85"/>
    </g>
    <path class="cls-4" d="m40.2,150.1c.17,1.39,4.76,40.57,11.44,46.06,6.67,5.49,10.18,3.64,11.53,2.18,1.42-1.53,3.21-4.28-.11-7.38-2.67-2.49-4.55-13.53-1.88-30.76l-20.98-10.11Z"/>
    <path class="cls-4" d="m65.69,147.66c.18,1.39,4.76,40.57,11.44,46.06,6.68,5.49,10.18,3.64,11.54,2.18,1.42-1.53,3.21-4.28-.11-7.38-2.67-2.49-4.55-13.53-1.88-30.76l-20.98-10.11Z"/>
    <path class="cls-2" d="m56.88,89.28c8.45-2.53,18.49-2.69,36.28.48-3.81-2.7-9.2-4.74-17.34-6.52h-.01c-13.94-3.05-20.9-2.08-26.96,2.38-7.15,5.27-14.12,23.28-17.88,37.67,3.91-13.42,13.37-30.23,25.91-34Z"/>
    <path class="cls-6" d="m30.97,123.28c-.57,1.97-1.02,3.87-1.35,5.64.39-1.78.84-3.68,1.35-5.64Z"/>
    <path class="cls-6" d="m13.66,144c-2.3.98-4.98.91-6.07-.6-1.09-1.49-.01-4.46,2.68-6.17,7.29-4.66,16.03-6.96,24.97-6.35,3.33.23,5.07,3.47,3.96,6.67-1.11,3.22-3.65,5.15-5.85,4.64-6.31-1.49-13.23-.97-19.69,1.81Z"/>
    <path class="cls-2" d="m57.87,61.11c.47-12.88,10.77-18.22,32.62-14.79,6.94,1.09,15.02-5.57,20.29-5.96,15.16-1.12,16.5,8.89,16.5,8.89h.03c-3.5-17.55-21.45-31.3-43.51-32.02-25.04-.81-45.89,15.49-46.57,36.39-.68,20.91,19.07,38.52,44.11,39.33,2.18.07,4.33,0,6.44-.18v-.03c-22.1.82-30.55-14.54-29.92-31.63Z"/>
    <path class="cls-6" d="m128.19,56.56c.08-2.49-.14-4.93-.61-7.3h-.03s-1.35-10.02-16.51-8.9c-5.27.39-13.35,7.05-20.29,5.96-21.86-3.42-32.15,1.91-32.62,14.79-.62,17.1,7.83,32.45,29.93,31.63v.03c22.08-1.9,39.51-17.13,40.13-36.21Z"/>
    <path class="cls-12" d="m97.91,86.43c-4.81.03-14.05-4.41-11.93-14.32,2.12-9.9,13.56-10.77,17.35-10.79,3.79-.02,14.9.69,12.78,10.59-2.13,9.91-13.39,14.49-18.2,14.52Z"/>
    <path class="cls-4" d="m103.01,63.92c2.09-.01,4.71,2.17,4.52,4.75-.19,2.58-6.22,2.52-6.22,2.52h-.18s-6.07.13-5.15-2.45c.92-2.58,4.48-4.81,6.57-4.82h.45Z"/>
    <path class="cls-4" d="m99,81.59c-1.1,0-2.13-.22-3.05-.64-.93-.44-1.7-1.05-2.3-1.82-.6-.77-1.02-1.68-1.23-2.71-.04-.18.08-.36.26-.4.18-.04.36.08.4.26.19.92.56,1.74,1.1,2.43.54.69,1.23,1.23,2.06,1.63.85.39,1.8.57,2.83.58,1.04,0,2.1-.22,3.14-.64,1.01-.4,1.96-.97,2.83-1.7.87-.73,1.61-1.57,2.2-2.51.1-.16.31-.2.46-.11.16.1.2.31.11.46-.63,1-1.41,1.9-2.34,2.67-.92.77-1.93,1.38-3.01,1.81-1.12.45-2.26.68-3.38.68-.02,0-.05,0-.07,0Z"/>
    <circle class="cls-4" cx="83.86" cy="58.02" r="1.86"/>
    <circle class="cls-4" cx="113.83" cy="54.32" r="1.86"/>
    <path class="cls-12" d="m79.16,55.83c-.05,0-.11-.01-.16-.04-.19-.09-.26-.31-.18-.49.3-.63.72-1.19,1.23-1.67.51-.47,1.11-.84,1.77-1.08.68-.25,1.39-.36,2.12-.33.73.03,1.43.21,2.09.52.19.09.26.31.18.49-.09.19-.31.26-.49.18-.56-.27-1.17-.42-1.8-.44-.63-.02-1.24.07-1.83.29-.57.21-1.08.53-1.53.93-.45.41-.81.89-1.07,1.44-.06.13-.2.21-.34.21Z"/>
    <path class="cls-12" d="m118.48,50.61c-.12,0-.23-.06-.3-.16-.36-.52-.81-.95-1.34-1.28-.54-.34-1.12-.56-1.73-.66-.6-.1-1.2-.08-1.79.06-.59.13-1.14.38-1.64.72-.17.12-.4.08-.52-.09s-.07-.4.09-.52c.58-.4,1.21-.68,1.9-.84.69-.16,1.39-.18,2.08-.07.71.11,1.38.37,2,.76.62.39,1.14.89,1.56,1.48.12.17.08.4-.09.52-.06.04-.14.07-.21.07Z"/>
    <path class="cls-6" d="m99.32,96.65c-1.33-2.4-2.97-4.43-5.19-6.19-.31-.24-.65-.47-.98-.71-2.86-.51-5.51-.92-8-1.27-6.05-1.1-10.9-1.46-14.98-1.1-5.17.06-9.41.72-13.3,1.89-12.53,3.76-22,20.57-25.91,34-.51,1.96-.96,3.86-1.35,5.64-.99,4.61-1.54,8.5-1.49,10.94.05,2.63,1.98,5.29,5.37,7.8,5.41,4,14.57,7.61,26,10.11h.01c1.07.24,2.13.45,3.17.65.32.06.64.11.96.17.73.13,1.44.26,2.15.37.35.06.7.11,1.05.17.69.11,1.37.2,2.04.29.31.04.63.09.95.12.82.11,1.62.19,2.41.27.14,0,.28.03.42.04.93.09,1.84.16,2.73.21.22.01.42.02.64.03.67.03,1.32.06,1.96.07.27,0,.53,0,.8,0,.58,0,1.15,0,1.7-.01.25,0,.51-.01.76-.02.6-.03,1.19-.06,1.76-.11.13,0,.28-.01.41-.02h-.02c3.93-.34,7.11-1.17,9.29-2.5.02-.01.04-.03.06-.04.41-.25.79-.52,1.13-.81.13-.11.23-.24.35-.36.21-.2.42-.4.6-.62.28-.35.5-.71.69-1.09,4.47-9.26,10.23-46.37,3.82-57.94Z"/>
    <ellipse class="cls-6" cx="62.89" cy="142.9" rx="27.6" ry="35.04" transform="translate(-90.15 173.81) rotate(-77.66)"/>
    <g>
      <path class="cls-4" d="m59.21,97.71c-1.42-2.73-4.53-4.1-7.54-2.61-3,1.48-4.5,6.31-2.55,10.12,5.54,10.86,15.59,17.74,27.71,18.98,4.26.44,8.22-2.71,8.52-6.04.3-3.35-2.11-5.76-5.17-6.1-9.17-.93-16.77-6.13-20.97-14.35Z"/>
      <path class="cls-4" d="m88.83,116.54c.83.03,1.65-.32,1.8-.91.16-.6-.54-1.38-1.57-1.58-2.81-.56-5.8-.22-8.48,1.05-1,.48-1.15,1.69-.42,2.55.73.86,1.75,1.15,2.37.73,1.78-1.22,3.98-1.9,6.3-1.82Z"/>
      <path class="cls-4" d="m88.77,121.35c.79.25,1.67.15,1.98-.38.32-.53-.13-1.47-1.07-1.96-2.55-1.32-5.51-1.82-8.44-1.35-1.09.18-1.57,1.3-1.1,2.33.46,1.03,1.36,1.59,2.07,1.35,2.04-.68,4.34-.72,6.56,0Z"/>
      <path class="cls-4" d="m86.31,125.59c.59.59,1.42.9,1.94.56.52-.33.55-1.37-.07-2.23-1.67-2.34-4.08-4.12-6.9-5.04-1.05-.34-1.99.44-2.05,1.57-.05,1.13.49,2.03,1.23,2.15,2.12.32,4.2,1.34,5.84,2.99Z"/>
    </g>
    <path class="cls-4" d="m66.73,194.53c.84.24,1.76.1,2.07-.47.31-.56-.19-1.54-1.19-2.01-2.72-1.3-5.84-1.72-8.91-1.12-1.14.23-1.6,1.42-1.08,2.48.52,1.07,1.48,1.62,2.22,1.35,2.12-.79,4.54-.91,6.89-.23Z"/>
    <path class="cls-4" d="m65.43,199.41c.74.46,1.66.58,2.12.12.46-.46.25-1.53-.59-2.27-2.25-2-5.13-3.27-8.25-3.55-1.16-.1-1.93.92-1.73,2.08.21,1.17.97,1.97,1.76,1.92,2.25-.17,4.6.38,6.68,1.69Z"/>
    <path class="cls-4" d="m61.83,203.09c.45.75,1.22,1.28,1.83,1.08.61-.2.92-1.25.51-2.29-1.1-2.8-3.09-5.24-5.73-6.91-.99-.62-2.14-.07-2.49,1.06-.35,1.14-.03,2.2.7,2.51,2.08.88,3.93,2.44,5.18,4.55Z"/>
    <path class="cls-4" d="m93.37,191.63c.83.24,1.76.1,2.07-.47.31-.57-.19-1.54-1.19-2.02-2.72-1.29-5.84-1.71-8.91-1.12-1.14.22-1.6,1.42-1.08,2.48.52,1.07,1.48,1.62,2.22,1.36,2.12-.79,4.54-.91,6.89-.23Z"/>
    <path class="cls-4" d="m92.07,196.51c.74.46,1.66.58,2.11.12.46-.45.25-1.53-.58-2.27-2.26-2-5.14-3.27-8.25-3.55-1.16-.1-1.93.92-1.72,2.08.2,1.17.97,1.97,1.76,1.92,2.25-.17,4.61.38,6.68,1.7Z"/>
    <path class="cls-4" d="m88.47,200.2c.45.75,1.22,1.28,1.83,1.07.61-.2.92-1.25.51-2.28-1.1-2.81-3.09-5.25-5.73-6.91-.98-.62-2.14-.07-2.48,1.07-.35,1.14-.03,2.2.69,2.51,2.09.88,3.93,2.44,5.18,4.55Z"/>
    <path class="cls-4" d="m122.84,96.38c.5.73,1.31,1.22,1.92.98.61-.24.86-1.33.38-2.35-.4-.87-.92-1.11-1.82-1.25s-2.34.49-2.34.49c.69.62,1.32,1.33,1.86,2.13Z"/>
    <path class="cls-4" d="m129.53,97.33c.5.73,1.31,1.22,1.92.98.61-.24.86-1.33.38-2.35-.4-.87-.92-1.11-1.82-1.25s-2.34.49-2.34.49c.69.62,1.32,1.33,1.86,2.13Z"/>
    <g>
      <path class="cls-6" d="m39.78,28.3c-1.36-.79-2.27-1.54-2.89-2.14-2.98,1.1-4.65,2.34-4.65,3.65,0,4.55,20.25,8.25,45.51,8.39-14.37-.13-35.52-2.14-37.97-9.9Z"/>
      <path class="cls-6" d="m126.24,29.8c0-1.15-1.3-2.25-3.65-3.25-.56.51-1.4,1.16-2.68,1.89,0,0,0,0,0,.01,0,4.53-6,6.95-13.92,8.25,12.23-1.52,20.25-4.04,20.25-6.9Z"/>
      <path class="cls-6" d="m79.24,38.2c-.5,0-.99,0-1.48,0,.5,0,1,0,1.48,0Z"/>
      <path class="cls-6" d="m105.99,36.71c-7.59.94-16.81,1.49-26.75,1.49,7.83,0,18.36-.11,26.75-1.49Z"/>
      <path class="cls-6" d="m79.24,4.43c-24.28,0-36.83,10.37-39.25,19.22.66.3,1.43.63,2.3.97,6.28,2.46,18.13,5.72,36.95,5.72s31.9-3.17,38.23-5.41c.6-.21,1.15-.42,1.65-.61-3.22-8.98-16.44-19.89-39.88-19.89Z"/>
      <path class="cls-6" d="m119.91,28.45s0,0,0-.01c-4.7,2.65-15.4,6.17-40.67,6.17s-34.61-3.47-39.46-6.31c2.45,7.76,23.61,9.77,37.97,9.9.49,0,.99,0,1.48,0,9.94,0,19.16-.55,26.75-1.49,7.91-1.3,13.92-3.73,13.92-8.25Z"/>
      <path class="cls-13" d="m119.91,28.44c1.28-.72,2.12-1.38,2.68-1.89-.89-.38-1.93-.74-3.11-1.09.28,1.03.42,2.03.42,2.98Z"/>
      <path class="cls-13" d="m39.54,26.77c0-.49.04-.99.11-1.49-1.01.28-1.94.57-2.76.88.62.6,1.53,1.35,2.89,2.14-.15-.49-.24-.99-.24-1.52Z"/>
      <path class="cls-13" d="m42.29,24.62c-.88-.34-1.64-.67-2.3-.97-.15.55-.26,1.09-.34,1.63.82-.23,1.7-.45,2.64-.66Z"/>
      <path class="cls-13" d="m119.48,25.46c-.1-.38-.22-.76-.36-1.15-.49.19-1.04.4-1.65.61.71.18,1.38.36,2.01.54Z"/>
      <path class="cls-13" d="m117.47,24.92c-6.33,2.24-18.71,5.41-38.23,5.41s-30.67-3.26-36.95-5.72c-.94.21-1.82.43-2.64.66-.07.51-.11,1.01-.11,1.49,0,.53.09,1.04.24,1.52,4.85,2.84,15.45,6.31,39.46,6.31,25.27,0,35.97-3.51,40.67-6.17,0-.94-.15-1.94-.42-2.98-.63-.19-1.31-.37-2.01-.54Z"/>
    </g>
    <g>
      <rect class="cls-13" x="101.03" y="21.68" width="10.99" height="13.24" rx=".71" ry=".71" transform="translate(-3.02 16.15) rotate(-8.55)"/>
      <rect class="cls-7" x="102.57" y="23.18" width="7.77" height="9.37" rx=".71" ry=".71" transform="translate(-2.96 16.13) rotate(-8.55)"/>
    </g>
  </g>
  <g>
    <g>
      <path class="cls-2" d="m126.25,185.39l-.02-.02c-.28.24-.39.58-.49.91-.49,1.72-1.28,3.31-2.25,4.81-2.12.79-2.92,2.69-3.77,4.52-.29.62-.35,1.34.04,2,.54,1.63,1.62,2.84,3.03,3.76,2.45,1.6,5.3,1.8,8.09,2.13,3.12.37,6.26.63,9.37,1.04,1.76.23,3.1-.3,4.02-1.79.53-.86,1.09-1.7,1.76-2.46.58-.65,1.09-1.39,1.11-2.29.01-.86.34-.83.96-.55,1.55.72,3.11,1.45,4.79,1.84.16.04.36.09.45.21.19.25-.36,2.32-.64,2.58-1.45,1.3-1.27,2.98.45,3.91.61.33,1.27.6,1.92.84.7.26,1.4.69,2.2.3.23,0,.45-.03.59-.25,1.21-.72,2.52-.95,3.93-.9.64.02,1.53.08,1.87-.38.9-1.22,2.1-2.39,1.83-4.13-.06-.42.15-.45.44-.52.78-.2,1.55-.42,2.33-.65,2.45-.73,4.81-1.33,7.51-.65,3.19.8,6.52.27,9.76-.29.7-.12,1.14.04,1.66.54,1.74,1.7,3.16,3.66,4.72,5.5,2.3,2.71,5.11,4.41,8.66,4.88,2.01.27,4.02.46,6.03.71,4.41.53,8.69,1.73,13,2.75,1.98.47,3.96.96,6,.62,3.34-.56,6.68-1.22,9.93-2.19,5.8-1.72,11.55-3.62,17.33-5.42.31-.1.68-.61,1.01.11,1.1,2.41,3.24,3.8,5.31,5.25,1.06.74,2.3.94,3.58,1.08,2.87.3,5.54-.64,8.25-1.24,3.57-.78,7.09-1.64,10.78-1.29.8.07,1.61.09,2.42.05,1.71-.09,3.43.07,5.12-.41,1.33-.37,2.14-1.15,2.29-2.53.1-.94.29-1.87.19-2.82.04-.05.04-.09,0-.14,0-.16,0-.33,0-.49.04-.05.04-.09,0-.14.03-.46.08-.92-.1-1.36.09-.11.06-.22-.04-.31-.19-.85-.76-1.38-1.48-1.8-.78-.46-1.59-.88-2.25-1.53-.53-.52-.74-.83.16-1.21,1.1-.47,2.08-1.18,2.84-2.12.69-.85,1.48-1.59,2.29-2.31,3.47-3.13,5.1-7.01,4.72-11.69-.39-2-.94-3.94-2.18-5.59-2.38-3.16-4.94-6.14-8.51-8.05-.06-.02-.13-.05-.19-.07h.03c-2.32-1.82-4.49-3.76-6.43-5.98-1.35-1.55-2.8-3.03-4.71-3.92-1.49-1.01-3.25-1.36-4.88-2.05-.14-4.43-.49-8.84-.9-13.25.06-1.22-.45-2.19-1.42-2.89-.98-.71-1.75-1.59-2.45-2.56-.62-.87-1.19-1.83-2.17-2.38-1.35-1.81-2.7-3.61-4.05-5.42-1.8-2.41-4.01-4.43-6.36-6.28-.82-.64-1.73-1.17-2.8-1.32-.75-4.66-1.76-9.28-2.73-13.9-.11-.53-.33-.86-.78-1.14-2.14-1.37-3.96-3.11-5.68-4.97-3.34-3.61-7.2-6.64-11.07-9.65-.23-.33-.5-.11-.75-.04-1.01.28-2,.66-2.91,1.18-6.79,3.88-13.07,8.5-19.11,13.45-1.02.84-1.62,1.95-1.88,3.29-.63,3.22-1,6.47-1.23,9.74-.15,2.23-.42,4.46-.19,6.7,0,3.17-.02,6.33-.03,9.5,0,.69.1,1.4-.31,2.03-1.57,0-3.04.33-4.39,1.19-1.44.93-2.92,1.81-4.41,2.66-4.85,2.74-7.4,6.91-7.68,12.45-.03.65-.36.88-.82.71-1.85-.69-3.83-.76-5.71-1.29-1.57-.45-3.2-.55-4.79-.3-2.06.31-4.15.39-6.22.56-3.04.24-6.06.61-9.05,1.13-1.77.31-3.6.51-5.21,1.43-1.1.32-1.83,1.12-2.54,1.95-1.39,1.63-2.4,3.52-3.38,5.41-2.32,1.25-4.16,3.01-5.5,5.28-.15.26-.23.59-.27.9-.46,3.32-.91,6.64-1.34,9.96-.25,1.93-.26,3.91-1,5.76-.15.37-.18.81-.73.4-.15-.13-.29-.32-.46-.4-2.06-.86-3.98-2-5.96-3.03-1.05-.55-2.18-.53-3.25-.17-1.48.5-2.92,1.13-4.37,1.74-.37.15-.79.32-.89.8Z"/>
      <path class="cls-5" d="m204.22,138.26c.41-.63.31-1.33.31-2.03,0-3.17.02-6.33.03-9.5.46-.06.35-.42.41-.72.5-2.29,1.06-4.53,2.4-6.53.78-1.16,1.61-2.32,1.78-3.84.25-2.26,1.38-4.31,1.87-6.52.13-.61.37-.71.89-.71,2.41,0,4.82.22,7.17.72,1.79.38,2.81.98,2.73,3.29-.04,1.17.3,2.35.32,3.53.03,2.15.37,4.31-.52,6.42-.72,1.69-1.45,3.41-1.65,5.28-.18,1.69.31,3.23.82,4.89.35-.38.35-.69.38-1.01.18-2.02.48-4.01,1.29-5.9.51-1.19,1.06-2.37,1.43-3.6.91-3.05.16-6.26.82-9.36.36-1.69-.04-3.59,1.66-4.85.36-.27.53-.81.75-1.25.53-1.03,1.1-2.04,1.55-3.1,1.51-3.53,2.98-7.09,1.96-11.07,3.87,3.01,7.73,6.04,11.07,9.65,1.72,1.86,3.54,3.59,5.68,4.97.44.29.67.61.78,1.14.97,4.62,1.98,9.23,2.73,13.9-1.86-.17-3.5.52-5.12,1.29-3.74,1.79-6.73,4.59-9.83,7.25-.32.28-.33.6-.14.94.25.44.63.72,1.09.94,1.71.83,3.64,1.35,4.68,3.18.05.09.14.16.23.21,1.53.92,2.69,2.18,3.68,3.65.56.83,1.26,1.62,2.04,2.23,2.05,1.6,3.94,3.29,4.86,5.88.18-.37.27-.7.47-.92,1.43-1.59,1.77-3.5,2.03-5.55.25-1.97.76-3.98,2.62-5.27.82-.56,1.06-1.45.79-2.43-.21-.76-.26-1.51.5-1.96.73-.43,1.01-1.1,1.24-1.83,1.35,1.81,2.7,3.61,4.05,5.42.07.37.13.75.22,1.12.47,1.97.31,2.21-1.32,3.38-1.11.8-2.1,1.78-2.81,3.08,3.38.16,6.67-.15,9.94.25.41,4.41.76,8.82.9,13.25-.44-.11-.88-.2-1.32-.33-2.61-.75-5.28-1.28-7.96-.85-3.94.64-7.77,1.81-11.25,3.81-1.47.85-2.78.9-4.33.44-2.12-.62-4.11-1.58-6.22-2.21-4.11-1.23-8.35-1.12-12.58-1.07-.37,0-.74.09-.91.42-.76,1.43-2.14,2.22-3.37,3.09-3.19,2.27-5.17,5.24-5.75,9.11-.15,1.01-.47,1.73-1.71,1.49-.24-.05-.54.11-.8.2-4.19,1.45-7.95,3.69-11.6,6.17-2.53,1.72-5.49,2.58-8.31,3.71-2.44.98-4.64,2.3-6.41,4.25-2.51,2.76-3.32,6.21-3.76,9.79-.15,1.23.03,2.21,1.43,2.56.19.05.34.24.51.36,2.19,1.56,4.32,3.21,6.58,4.64,1.27.8,2.56,1.83,4.12,1.91,2.23.11,4.46.36,6.71.26.62-.03,1.24.04,1.87.13,2.53.36,4.98,1,7.44,1.68,4.33,1.2,8.92,1.05,13.22,2.53.84.29,1.88.2,2.79-.49,2.08-1.59,3.21-3.73,3.93-6.16.66-2.24,1.84-4.11,3.69-5.59,1.11-.89,2.06-1.99,3.08-3-.06-.07-.12-.14-.17-.21-.68.2-1.38.13-2.07.16-2.34.08-4.68-.05-7.02.16-3.53.32-6.86,1.16-10.03,2.73-1.63.81-3.31,1.5-5.07,1.95-5.04,1.27-9.98,2.85-14.91,4.46-.3.1-.64.32-.85-.02-.21-.34.16-.55.35-.79.9-1.15,1.91-2.23,2.57-3.56,1.31-2.61,3.21-4.6,5.91-5.85,1.61-.74,3.24-1.53,4.69-2.55,2.43-1.71,4.89-3.06,7.97-3.36,4.09-.39,8.18-.78,12.29-.97,1.86-.09,3.64-.59,5.47-.8.58-.07.58-.3.51-.84-.34-2.39-1.92-3.92-3.66-5.3-2.25-1.78-4.93-2.89-7.35-4.43-1.98-1.27-4.06-2.33-6.33-2.99-1.51-.44-1.51-.46-1.46-2.05.01-.31.08-.62.13-.93.05-.35.25-.52.6-.63,1.63-.51,3.26-.93,5-1.01,1.84-.08,3.7-.22,5.46-.85,2.14-.78,4.29-1.52,6.63-1.22,1.17.15,2.36.24,3.52.44.65.11,1.15.17,1.3-.67.05-.31.33-.4.65-.41,1.54-.03,3.08-.01,4.58.37,2.6.66,5.26,1.12,7.68,2.34.74.37,1.32.23,1.83-.43.56-.71,1.06-1.5,1.84-1.99,3.64-2.29,7.55-3.75,11.9-3.87,1.49-.04,2.92-.36,3.83-1.73,1.92.89,3.36,2.37,4.71,3.92,1.94,2.22,4.12,4.16,6.43,5.97-2.07-.01-4.11.2-6.02,1.1-2.41,1.14-4.94,1.04-7.48.65-1.99-.31-3.96-.74-5.96-1-1.13-.15-2.31-.17-3.43.18-1.03.32-1.28,1.07-.8,1.9,1.31,2.26,3.05,4.12,4.98,5.87,1.33,1.2,2.72,2.29,4.25,3.19.59.34,1.07.78,1.49,1.3,1.41,1.77,2.31,3.83,3.19,5.88.47,1.08,1.11,2.1,1.32,3.29l-.03.03c-.14,0-.28-.03-.42,0-.58.11-1.37-.37-1.72.36-1.26,2.61-2.63,5.18-2.49,8.22.03.79.41,1.13,1.09,1.29,1.88.45,3.85-.06,5.72.54.37.12.37-.24.43-.45.47-1.57,1.09-3.12,1.33-4.73.28-1.92.36-3.19-1.52-4.17-1.06-.55-1.25-1.37-1.34-2.35-.18-1.99-.26-4.01-2.09-5.37-.27-.2-.42-.55-.6-.85-.75-1.23-.33-2.14,1.12-2.38,2.22-.36,4.45-.12,6.68-.05,3.24.09,6.37.65,9.48,1.46,1.25.33,2.47.45,3.67-.15.38,4.69-1.25,8.56-4.72,11.69-.81.73-1.6,1.46-2.29,2.31-.76.94-1.74,1.65-2.84,2.12-.9.38-.69.69-.16,1.21.66.65,1.47,1.07,2.25,1.53.72.42,1.29.95,1.48,1.8.01.1.02.21.04.31.18.44.12.9.1,1.36-.02.01-.05.03-.05.04.02.04.04.07.06.1,0,.16,0,.33,0,.49-.02.01-.06.03-.05.03.01.04.03.07.05.1.1.95-.08,1.89-.19,2.82-.15,1.38-.96,2.16-2.29,2.53-1.69.47-3.41.32-5.12.41-.8.04-1.62.02-2.42-.05-3.69-.34-7.22.51-10.78,1.29-2.71.59-5.38,1.54-8.25,1.24-1.28-.14-2.52-.34-3.58-1.08-2.07-1.44-4.21-2.84-5.31-5.25-.33-.72-.71-.21-1.01-.11-5.78,1.8-11.53,3.69-17.33,5.42-3.25.97-6.58,1.62-9.93,2.19-2.05.35-4.02-.15-6-.62-4.31-1.02-8.59-2.22-13-2.75-2.01-.24-4.02-.44-6.03-.71-3.55-.47-6.36-2.17-8.66-4.88-1.56-1.84-2.98-3.81-4.72-5.5-.51-.5-.96-.66-1.66-.54-3.24.56-6.57,1.1-9.76.29-2.7-.68-5.05-.08-7.51.65-.77.23-1.55.45-2.33.65-.29.08-.5.1-.44.52.27,1.75-.94,2.91-1.83,4.13-.34.47-1.23.4-1.87.38-1.4-.05-2.71.18-3.93.9-.47-.45-.01-.85.1-1.24.18-.61.15-1.13-.43-1.45-1.3-.72-2.78-.77-4.37-1.4.35.66.72.63,1.05.74,1.46.46,2.72,1.12,2.84,2.9.02.24.14.47.21.7-.8.39-1.49-.04-2.2-.3-.65-.24-1.31-.51-1.92-.84-1.72-.93-1.9-2.61-.45-3.91.29-.26.83-2.33.64-2.58-.09-.12-.29-.17-.45-.21-1.68-.39-3.24-1.12-4.79-1.84-.61-.29-.95-.32-.96.55-.01.9-.53,1.64-1.11,2.29-.68.76-1.23,1.6-1.76,2.46-.91,1.49-2.26,2.02-4.02,1.79-3.12-.41-6.25-.67-9.37-1.04-2.79-.33-5.64-.53-8.09-2.13-1.41-.92-2.49-2.13-3.03-3.76,5.01,2.73,10.49,3.42,16.06,3.76.65.04,1.62.41,1.92-.34.29-.75-.4-1.45-1.01-1.92-2.41-1.86-4.65-3.92-6.75-6.12-.16-.17-.4-.29-.63-.36-1.93-.6-3.8-1.39-5.84-1.55.97-1.5,1.76-3.08,2.25-4.81.09-.33.21-.67.49-.91,1.23.53,2.23,1.35,3.25,2.2.98.82,2.15,1.28,3.55,1.26,1.8-.02,3.53-.41,5.3-.57,1.16-.1,2.44-.17,3.29-1.32.28.47.52.87.77,1.29.95-1.47,1.43-3.05,1.98-4.59.41-1.16,1.2-2.14,1.5-3.34.42-1.71.42-3.46.42-5.2,0-1.26-.08-2.51.2-3.76.23-1.03.74-1.5,1.8-1.5,2.55.02,4.87.74,6.5,2.78.99,1.24,2.28,1.79,3.66,2.27.69.24,1.41.41,2.12.58.44.11.66.34.66.8,0,2.58,0,5.16-.32,7.74-.22,1.73-.26,3.49.09,5.22.41,2.02.8,4.04.66,6.12-.02.3.16.84-.48.63-.97-.32-1.54.25-2.03.9-.33.44-.72.72-1.17,1-1.01.64-2.22.72-3.28,1.31,1.24-.06,2.34.35,3.4.85.8.38,1.58.37,2.32.02.88-.42,1.73-.92,2.54-1.47.48-.33.86-1.07.39-1.41-.99-.72-.7-1.59-.65-2.49.06-1.08.3-2.14.23-3.23-.05-.8-.05-1.62.02-2.41.33-3.67,1.1-7.31,1.03-11.02-.02-1.19.38-2.25,1.4-3.01,2.41-1.77,4.04-4.21,5.61-6.68.13-.2.32-.41.22-.67-.08-.2-.29-.12-.46-.08-1.97.39-3.9-.01-5.79-.44-3.26-.74-6.27-2.38-9.65-2.69-1.75-.16-3.49-.6-5.27-.32.98-1.9,1.98-3.78,3.38-5.41.71-.83,1.44-1.63,2.54-1.95,1.12.55,2.36.49,3.56.62,3.48.39,6.69,1.53,9.5,3.56,1.92,1.38,3.87,2.28,6.27,2.17,1.14-.05,2.3.1,3.44.25,3.42.44,6.83.98,10.29.99,2.1,0,4.18.21,6.27.38,1.88.16,3.78.04,5.62-.42,1.52-.38,2.18-1.69,1.48-2.95-.38-.69-.86-1.37-1.55-1.82-1.18-.76-2.42-1.37-3.78-1.74-1.28-.35-2.55-.74-3.81-1.13-.33-.1-.75-.27-.77-.64-.03-.48.5-.43.79-.48,2.07-.38,4.06-1.01,6.02-1.75.44-.17.88-.25,1.34-.12,2.92.82,5.82,1.73,8.64,2.85.57.23.93.24,1.37-.22,1.3-1.36,2.93-2.34,4.25-3.7,1.47-1.51,3.43-2.38,5.26-3.41,1.28-.72,2.58-1.39,3.73-2.31.28-.22.61-.5.57-.82-.04-.39-.52-.38-.84-.49-1.12-.39-2.33-.43-3.39-1.01-3.25-1.77-6.5-3.53-10.05-4.67-1.96-.62-3.81-1.6-5.92-1.67Zm-10.62,29.27c-1.23.51-2.24,1.39-3.4,2.01-2.77,1.49-5.11,3.53-7.46,5.66,1.23-.58,2.38-.25,3.55.07.67.19,1.08-.23,1.47-.74,1.6-2.06,3.06-4.24,5.16-5.87.34-.26.63-.65.68-1.14.01-.03.03-.06.04-.09-.01.03-.03.06-.04.09Zm69.04,33.95c.49-.84.67-1.72,1.27-2.31,1.86-1.85,3.71-3.72,5.69-5.43,1.44-1.24,2.25-2.58,2.06-4.52-.18-1.83-1.43-2.47-2.97-2.27-.57.07-1.18.33-1.63.69-2.78,2.22-5.72,4.23-8.29,6.71-2.29,2.2-1.74,2.36.72,3.34,1.83.73,3.22,1.55,3.14,3.8Zm-31.19-47.66c.01-1.3-.04-2.69.88-3.72,1.08-1.22.89-2.57.73-3.95-.17-1.46-.18-2.91.02-4.37.19-1.4.57-2.78.56-4.52-.29.59-.42.9-.59,1.19-1.49,2.49-2.84,5.04-3.94,7.73-.22.54-.53,1.08-.31,1.71.73,2.04,1.19,4.21,2.65,5.94Zm-87.1,43.93c-.15-.37.37-1.15-.32-1.54-.93-.53-1.82-1.12-2.89-1.41-.96-.26-1.22.07-1.19.95.06,1.66.64,3.2,1.01,4.78.28,1.21,1.11,1.77,2.22,2.06.44.12.73-.06.73-.48.01-1.4.56-2.73.44-4.35Zm108.66,5.56c.02.19,0,.31.04.37,1.05,1.35,2.17,2.65,3.5,3.72,1.4,1.14,2.83,2.27,4.52,3,.65.28.96.07,1.07-.58.15-.89.29-1.78.47-2.67.19-.98.34-1.95.04-3.08-.32.55-.57.97-.81,1.38-.94,1.61-2.64,1.9-4.04.7-1.41-1.2-3.07-1.98-4.77-2.84Zm-88.4-1.47c-1.05-.24-2.02.33-3.07.2-.28-.03-.76-.18-.83.19-.09.45.42.56.74.74.29.16.55.02.8-.09.79-.34,1.57-.7,2.36-1.05Z"/>
      <path class="cls-1" d="m275.91,158.21c-.92,1.37-2.34,1.69-3.83,1.73-4.35.12-8.26,1.58-11.9,3.87-.78.49-1.29,1.28-1.84,1.99-.51.66-1.1.8-1.83.43-2.43-1.22-5.09-1.68-7.68-2.34-1.49-.38-3.04-.4-4.58-.37-.32,0-.6.1-.65.41-.15.83-.65.78-1.3.67-1.17-.2-2.35-.29-3.52-.44-2.34-.3-4.48.44-6.63,1.22-1.76.64-3.62.78-5.46.85-1.74.07-3.37.5-5,1.01-.35.11-.54.28-.6.63-.05.31-.12.62-.13.93-.05,1.59-.05,1.61,1.46,2.05,2.27.66,4.35,1.72,6.33,2.99,2.41,1.54,5.09,2.64,7.35,4.43,1.74,1.38,3.32,2.9,3.66,5.3.08.54.07.77-.51.84-1.83.21-3.61.71-5.47.8-4.11.19-8.2.58-12.29.97-3.08.29-5.53,1.65-7.97,3.36-1.45,1.02-3.07,1.8-4.69,2.55-2.7,1.24-4.6,3.23-5.91,5.85-.66,1.33-1.67,2.4-2.57,3.56-.19.24-.56.45-.35.79.21.34.55.12.85.02,4.93-1.61,9.87-3.19,14.91-4.46,1.76-.44,3.44-1.14,5.07-1.95,3.17-1.57,6.5-2.41,10.03-2.73,2.35-.21,4.68-.09,7.02-.16.69-.02,1.39.05,2.07-.16.06.07.12.14.17.21-1.02,1.01-1.97,2.11-3.08,3-1.85,1.48-3.03,3.35-3.69,5.59-.72,2.43-1.85,4.57-3.93,6.16-.91.69-1.94.78-2.79.49-4.3-1.48-8.9-1.34-13.22-2.53-2.46-.68-4.91-1.33-7.44-1.68-.63-.09-1.25-.16-1.87-.13-2.24.1-4.47-.15-6.71-.26-1.57-.08-2.85-1.11-4.12-1.91-2.27-1.43-4.4-3.08-6.58-4.64-.17-.12-.32-.31-.51-.36-1.4-.35-1.58-1.34-1.43-2.56.44-3.58,1.26-7.03,3.76-9.79,1.76-1.94,3.97-3.27,6.41-4.25,2.82-1.13,5.78-1.99,8.31-3.71,3.65-2.48,7.41-4.72,11.6-6.17.26-.09.55-.25.8-.2,1.24.24,1.55-.47,1.71-1.49.58-3.87,2.56-6.84,5.75-9.11,1.23-.87,2.61-1.66,3.37-3.09.18-.33.55-.42.91-.42,4.23-.05,8.47-.16,12.58,1.07,2.11.63,4.09,1.59,6.22,2.21,1.55.45,2.86.4,4.33-.44,3.48-2,7.31-3.16,11.25-3.81,2.68-.44,5.36.1,7.96.85.43.12.88.22,1.32.33,1.63.68,3.39,1.03,4.88,2.05Z"/>
      <path class="cls-1" d="m204.22,138.26c2.11.07,3.96,1.04,5.92,1.67,3.55,1.13,6.8,2.9,10.05,4.67,1.07.58,2.28.63,3.39,1.01.32.11.79.1.84.49.04.33-.3.6-.57.82-1.15.92-2.45,1.59-3.73,2.31-1.83,1.02-3.79,1.89-5.26,3.41-1.32,1.36-2.95,2.34-4.25,3.7-.44.46-.8.45-1.37.22-2.82-1.13-5.72-2.03-8.64-2.85-.45-.13-.9-.04-1.34.12-1.96.74-3.95,1.37-6.02,1.75-.29.05-.82,0-.79.48.02.37.43.54.77.64,1.27.39,2.54.78,3.81,1.13,1.36.37,2.61.98,3.78,1.74.69.45,1.17,1.13,1.55,1.82.7,1.25.04,2.57-1.48,2.95-1.84.46-3.74.58-5.62.42-2.09-.18-4.17-.38-6.27-.38-3.46,0-6.87-.55-10.29-.99-1.14-.15-2.3-.3-3.44-.25-2.41.11-4.35-.79-6.27-2.17-2.82-2.02-6.03-3.17-9.5-3.56-1.19-.13-2.43-.08-3.56-.62,1.62-.92,3.44-1.12,5.21-1.43,3-.52,6.01-.88,9.05-1.13,2.07-.17,4.15-.24,6.22-.56,1.59-.24,3.22-.14,4.79.3,1.88.53,3.86.6,5.71,1.29.47.17.79-.06.82-.71.28-5.54,2.82-9.71,7.68-12.45,1.49-.84,2.97-1.73,4.41-2.66,1.35-.87,2.82-1.2,4.39-1.19Z"/>
      <path class="cls-1" d="m278.6,190.44c-.21-1.18-.86-2.21-1.32-3.29-.88-2.05-1.78-4.11-3.19-5.88-.42-.52-.89-.96-1.49-1.3-1.54-.9-2.92-1.99-4.25-3.19-1.93-1.74-3.67-3.61-4.98-5.87-.48-.83-.22-1.58.8-1.9,1.12-.35,2.3-.33,3.43-.18,2,.26,3.97.69,5.96,1,2.54.39,5.07.49,7.48-.65,1.91-.9,3.94-1.11,6.02-1.1,0,0-.03.01-.03.01.02.15.07.22.19.07,3.57,1.91,6.13,4.89,8.51,8.05,1.24,1.65,1.79,3.6,2.18,5.59-1.2.6-2.42.48-3.67.15-3.11-.81-6.24-1.37-9.48-1.46-2.23-.06-4.46-.31-6.68.05-1.46.24-1.88,1.15-1.12,2.38.18.3.34.65.6.85,1.83,1.36,1.91,3.38,2.09,5.37.09.99.28,1.8,1.34,2.35,1.88.98,1.8,2.25,1.52,4.17-.24,1.61-.87,3.16-1.33,4.73-.06.21-.06.57-.43.45-1.87-.59-3.84-.09-5.72-.54-.67-.16-1.05-.5-1.09-1.29-.13-3.04,1.24-5.62,2.49-8.22.36-.74,1.14-.25,1.72-.36.13-.03.28,0,.42,0,.03.03.07.05.1.08-.03-.03-.05-.07-.08-.1Z"/>
      <path class="cls-1" d="m150.02,164.15c1.78-.28,3.52.16,5.27.32,3.38.31,6.39,1.95,9.65,2.69,1.89.43,3.82.83,5.79.44.17-.03.38-.12.46.08.1.25-.09.47-.22.67-1.58,2.47-3.21,4.91-5.61,6.68-1.03.76-1.43,1.81-1.4,3.01.07,3.72-.7,7.35-1.03,11.02-.07.8-.07,1.61-.02,2.41.07,1.09-.17,2.16-.23,3.23-.05.9-.34,1.77.65,2.49.47.34.09,1.09-.39,1.41-.81.54-1.66,1.04-2.54,1.47-.75.36-1.52.36-2.32-.02-1.06-.5-2.16-.91-3.4-.85,1.06-.59,2.27-.67,3.28-1.31.45-.28.85-.57,1.17-1,.49-.66,1.06-1.22,2.03-.9.64.21.46-.33.48-.63.14-2.08-.25-4.1-.66-6.12-.35-1.73-.31-3.49-.09-5.22.33-2.58.32-5.16.32-7.74,0-.46-.22-.7-.66-.8-.71-.17-1.43-.34-2.12-.58-1.38-.48-2.67-1.03-3.66-2.27-1.63-2.04-3.94-2.77-6.5-2.78-1.06,0-1.57.47-1.8,1.5-.27,1.25-.2,2.51-.2,3.76,0,1.75,0,3.49-.42,5.2-.3,1.2-1.09,2.19-1.5,3.34-.55,1.54-1.02,3.12-1.98,4.59-.25-.43-.49-.82-.77-1.29-.85,1.15-2.13,1.22-3.29,1.32-1.77.16-3.5.55-5.3.57-1.4.02-2.57-.44-3.55-1.26-1.02-.86-2.02-1.68-3.25-2.2,0,0,.02.02.02.02.61-.12,1.2-.29,1.79-.53,1.25-.51,2.57-.98,3.92-.9,2.82.16,5.54.85,8.06,2.18.4.21.74.31,1.16.31.55.41.58-.04.73-.4.75-1.85.76-3.82,1-5.76.43-3.32.88-6.64,1.34-9.96.04-.31.12-.63.27-.9,1.33-2.28,3.17-4.03,5.5-5.28Z"/>
      <path class="cls-1" d="m260.04,129.67c-.24.73-.51,1.4-1.24,1.83-.76.45-.71,1.21-.5,1.96.27.98.03,1.87-.79,2.43-1.86,1.29-2.37,3.3-2.62,5.27-.26,2.06-.61,3.97-2.03,5.55-.2.22-.29.55-.47.92-.92-2.58-2.81-4.28-4.86-5.88-.79-.61-1.48-1.41-2.04-2.23-1-1.47-2.16-2.74-3.68-3.65-.09-.05-.18-.12-.23-.21-1.04-1.83-2.96-2.35-4.68-3.18-.46-.22-.84-.5-1.09-.94-.2-.34-.19-.66.14-.94,3.1-2.66,6.1-5.46,9.83-7.25,1.62-.78,3.26-1.46,5.12-1.29,1.07.15,1.98.68,2.8,1.32,2.36,1.85,4.56,3.86,6.36,6.28Z"/>
      <path class="cls-1" d="m230.62,92.41c1.02,3.99-.45,7.54-1.96,11.07-.45,1.06-1.02,2.07-1.55,3.1-.22.43-.39.98-.75,1.25-1.69,1.26-1.3,3.15-1.66,4.85-.66,3.1.09,6.31-.82,9.36-.37,1.23-.92,2.41-1.43,3.6-.81,1.88-1.11,3.88-1.29,5.9-.03.32-.03.63-.38,1.01-.51-1.65-1-3.2-.82-4.89.2-1.87.93-3.58,1.65-5.28.89-2.11.55-4.27.52-6.42-.02-1.18-.36-2.36-.32-3.53.08-2.31-.94-2.91-2.73-3.29-2.35-.5-4.75-.71-7.17-.72-.53,0-.76.1-.89.71-.49,2.21-1.62,4.26-1.87,6.52-.17,1.52-1.01,2.68-1.78,3.84-1.34,2-1.9,4.24-2.4,6.53-.06.3.04.66-.41.72-.23-2.24.03-4.47.19-6.7.23-3.27.6-6.52,1.23-9.74.26-1.34.86-2.46,1.88-3.29,6.04-4.95,12.31-9.57,19.11-13.45.91-.52,1.9-.9,2.91-1.18.25-.07.52-.29.75.04Z"/>
      <path class="cls-1" d="m123.48,191.08c2.04.16,3.92.95,5.84,1.55.23.07.47.2.63.36,2.11,2.2,4.34,4.25,6.75,6.12.61.47,1.3,1.17,1.01,1.92-.3.75-1.27.38-1.92.34-5.56-.35-11.05-1.04-16.06-3.76-.38-.66-.32-1.38-.04-2,.84-1.84,1.65-3.73,3.77-4.52Z"/>
      <path class="cls-1" d="m270.13,142.92c-3.27-.4-6.56-.09-9.94-.25.7-1.3,1.7-2.28,2.81-3.08,1.63-1.17,1.79-1.41,1.32-3.38-.09-.37-.15-.75-.22-1.12.98.56,1.54,1.51,2.17,2.38.7.98,1.46,1.86,2.45,2.56.96.69,1.47,1.66,1.42,2.89Z"/>
      <path class="cls-5" d="m141.17,186.45c-.41,0-.76-.1-1.16-.31-2.51-1.34-5.23-2.02-8.06-2.18-1.35-.08-2.67.39-3.92.9-.58.24-1.18.41-1.79.53.1-.48.52-.65.89-.8,1.44-.61,2.88-1.24,4.37-1.74,1.07-.36,2.2-.38,3.25.17,1.97,1.03,3.9,2.17,5.96,3.03.18.07.31.26.46.4Z"/>
      <path class="cls-1" d="m157.25,207.13c-.07-.23-.2-.46-.21-.7-.12-1.79-1.39-2.44-2.84-2.9-.32-.1-.69-.08-1.05-.74,1.58.63,3.07.68,4.37,1.4.59.33.61.84.43,1.45-.11.39-.57.79-.1,1.24-.14.21-.36.24-.59.25Z"/>
      <path class="cls-1" d="m291.66,202.8c-.01-.1-.02-.21-.04-.31.09.09.12.2.04.31Z"/>
      <path class="cls-5" d="m287.22,168.19c-.13.14-.18.08-.19-.07.06.02.13.05.19.07Z"/>
      <path class="cls-1" d="m291.77,204.3s-.04-.07-.06-.1c0,0,.03-.03.05-.04.05.04.05.09,0,.14Z"/>
      <path class="cls-1" d="m291.77,204.93s-.04-.07-.05-.1c0,0,.03-.02.05-.03.04.05.04.09,0,.14Z"/>
      <path class="cls-1" d="m262.64,201.48c.08-2.25-1.3-3.07-3.14-3.8-2.47-.98-3.01-1.13-.72-3.34,2.57-2.48,5.51-4.49,8.29-6.71.45-.36,1.06-.61,1.63-.69,1.54-.2,2.79.45,2.97,2.27.19,1.94-.62,3.28-2.06,4.52-1.99,1.71-3.83,3.58-5.69,5.43-.6.59-.78,1.47-1.27,2.31Z"/>
      <path class="cls-1" d="m231.45,153.82c-1.46-1.73-1.92-3.9-2.65-5.94-.22-.62.08-1.16.31-1.71,1.1-2.68,2.45-5.24,3.94-7.73.17-.29.3-.6.59-1.19,0,1.74-.38,3.12-.56,4.52-.19,1.46-.18,2.91-.02,4.37.16,1.38.35,2.73-.73,3.95-.92,1.03-.87,2.43-.88,3.72Z"/>
      <path class="cls-1" d="m144.35,197.75c.13,1.61-.42,2.95-.44,4.35,0,.42-.29.6-.73.48-1.11-.29-1.94-.85-2.22-2.06-.37-1.59-.95-3.13-1.01-4.78-.03-.87.23-1.21,1.19-.95,1.07.29,1.97.88,2.89,1.41.69.4.17,1.17.32,1.54Z"/>
      <path class="cls-1" d="m253.01,203.31c1.7.87,3.36,1.64,4.77,2.84,1.41,1.2,3.1.91,4.04-.7.24-.41.48-.83.81-1.38.31,1.14.16,2.11-.04,3.08-.18.89-.32,1.78-.47,2.67-.11.65-.41.86-1.07.58-1.69-.73-3.12-1.86-4.52-3-1.32-1.07-2.45-2.37-3.5-3.72-.05-.06-.02-.18-.04-.37Z"/>
      <path class="cls-1" d="m193.6,167.53c-.05.48-.34.87-.68,1.14-2.1,1.63-3.56,3.81-5.16,5.87-.39.51-.8.93-1.47.74-1.17-.33-2.32-.66-3.55-.07,2.35-2.13,4.69-4.17,7.46-5.66,1.16-.62,2.17-1.5,3.4-2.01h0Z"/>
      <path class="cls-1" d="m164.61,201.84c-.79.35-1.57.7-2.36,1.05-.25.11-.51.25-.8.09-.32-.18-.83-.3-.74-.74.07-.37.55-.22.83-.19,1.05.12,2.02-.44,3.07-.2Z"/>
      <path class="cls-1" d="m193.6,167.53s.03-.06.04-.09c-.01.03-.03.06-.04.09,0,0,0,0,0,0Z"/>
      <path class="cls-5" d="m278.6,190.44s.05.07.08.1c-.03-.03-.07-.05-.1-.08,0,0,.03-.03.03-.03Z"/>
    </g>
    <g>
      <path class="cls-2" d="m203.25,169.92s.04.08.06.12v.03c.2,1.17.61,2.23,1.61,2.98.22.16.43.34.63.53,1.01.92,2.24,1.19,3.53,1.06,1.1-.11,2.18-.42,3.27-.67,1.27-.3,2.53-.66,3.85-.6.54.02,1.09.03,1.64.05.32.04.64.04.95,0,.39-.02.78-.03,1.17-.05l.03.02.03-.02c.32,0,.62-.08.92-.16.67-.17,1.01-.61,1.06-1.29.04-.64.1-1.27.09-1.91,0-.69-.27-1.19-.89-1.48-.69-.33-1.2-.85-1.65-1.44-.36-.48-.71-.97-1.06-1.45-.3-.41-.59-.82-1.01-1.11-.09-.12-.23-.18-.36-.26-.74-.47-1.57-.62-2.42-.72.01-.12-.07-.2-.14-.28-.82-.97-1.83-1.51-3.14-1.34-.56,0-1.07.13-1.51.48-.82.65-1.67,1.28-2.48,1.95-.77.63-1.55,1.25-2.15,2.06-.86.95-1.5,2.04-2.03,3.21-.03.07-.02.16-.02.23,0,.03,0,.06,0,.09Z"/>
      <path class="cls-9" d="m217.49,164.5c.42.3.71.71,1.01,1.11.35.49.7.97,1.06,1.45.45.6.96,1.12,1.65,1.44.62.29.89.79.89,1.48,0,.64-.05,1.27-.09,1.91-.04.68-.39,1.12-1.06,1.29-.3.08-.61.17-.92.16-.02,0-.04,0-.06,0-.39.02-.78.03-1.17.05-.32-.08-.64-.08-.95,0-.55-.02-1.09-.02-1.64-.05-1.33-.06-2.58.31-3.85.6-1.08.25-2.17.56-3.27.67-1.29.13-2.52-.14-3.53-1.06-.2-.18-.41-.36-.63-.53-1-.74-1.41-1.8-1.61-2.98.52.53,1.02,1.09,1.56,1.6.71.66,1.5,1.21,2.39,1.61.26.12.42.08.47-.22.11-.6.24-1.2.32-1.8.04-.32.08-.66-.08-1.05-.12.22-.19.36-.26.5-.51.96-1.47,1.13-2.26.39-.63-.6-1.43-.91-2.2-1.27,0-.08,0-.17.02-.23.53-1.16,1.17-2.25,2.03-3.21.24.22.47.45.79.57.44.18.87.39,1.32.55.22.08.33.19.37.42.06.34.16.67.26,1.12.24-.85.67-1.44,1.24-1.95.94-.83,1.86-1.68,2.74-2.58.61-.63.56-2.46-.59-2.63,1.31-.17,2.32.37,3.14,1.34.07.08.15.16.14.28-.1.52-.39.95-.6,1.42-.37.81-.59,1.66-.71,2.54-.08.63.22.97.85.96.61-.01,1.22.06,1.83.08.28,0,.59.29.79.07.18-.2.2-.55.28-.84.31-1.06.76-2.11.33-3.25Z"/>
      <path class="cls-6" d="m211.43,161.9c1.14.17,1.2,2,.59,2.63-.88.9-1.79,1.75-2.74,2.58-.58.5-1,1.1-1.24,1.95-.11-.45-.2-.78-.26-1.12-.04-.23-.15-.34-.37-.42-.45-.16-.87-.38-1.32-.55-.32-.12-.54-.35-.79-.57.6-.81,1.38-1.43,2.15-2.06.81-.67,1.65-1.3,2.48-1.95.45-.35.96-.49,1.51-.48Z"/>
      <path class="cls-6" d="m217.49,164.5c.43,1.14-.01,2.19-.33,3.25-.08.29-.1.64-.28.84-.2.22-.52-.06-.79-.07-.61-.02-1.22-.09-1.83-.08-.63.01-.93-.33-.85-.96.12-.88.34-1.72.71-2.54.21-.47.5-.9.6-1.42.85.1,1.68.25,2.42.72.12.08.26.14.36.26Z"/>
      <path class="cls-6" d="m203.24,169.83c.77.36,1.57.67,2.2,1.27.78.74,1.75.57,2.26-.39.07-.14.15-.28.26-.5.15.4.12.74.08,1.05-.08.6-.21,1.2-.32,1.8-.05.3-.21.33-.47.22-.89-.4-1.68-.96-2.39-1.61-.55-.51-1.04-1.06-1.56-1.6,0,0,0-.03,0-.03-.02-.04-.04-.08-.06-.12,0-.03,0-.06,0-.09Z"/>
      <path class="cls-6" d="m217.84,173.41c.32-.08.64-.08.95,0-.32.04-.64.04-.95,0Z"/>
      <path class="cls-8" d="m203.25,169.92s.04.08.06.12c-.02-.04-.04-.08-.06-.12Z"/>
      <path class="cls-6" d="m219.96,173.36s.04,0,.06,0c0,0-.03.02-.03.02l-.03-.02Z"/>
    </g>
    <g>
      <path class="cls-2" d="m216.51,194.87s.03.06.04.09v.02c.14.82.43,1.57,1.13,2.09.15.11.3.24.44.37.71.65,1.58.84,2.48.75.77-.08,1.53-.29,2.3-.47.89-.21,1.78-.47,2.71-.42.38.02.77.02,1.15.03.22.03.45.03.67,0,.27-.01.55-.02.82-.03h.02s.02,0,.02,0c.22,0,.44-.06.65-.11.47-.12.71-.43.74-.9.03-.45.07-.89.07-1.34,0-.49-.19-.84-.62-1.04-.48-.23-.84-.59-1.16-1.01-.25-.34-.5-.68-.75-1.02-.21-.29-.42-.57-.71-.78-.07-.08-.16-.13-.25-.18-.52-.33-1.1-.44-1.7-.51,0-.09-.05-.14-.1-.2-.58-.68-1.28-1.06-2.21-.94-.39,0-.75.09-1.06.34-.58.46-1.17.9-1.74,1.37-.54.44-1.09.88-1.51,1.45-.61.67-1.05,1.44-1.43,2.25-.02.05-.01.11-.02.17,0,.02,0,.04,0,.06Z"/>
      <path class="cls-9" d="m226.51,191.06c.3.21.5.5.71.78.25.34.49.68.75,1.02.31.42.67.78,1.16,1.01.43.21.62.55.62,1.04,0,.45-.04.9-.07,1.34-.03.47-.27.79-.74.9-.21.05-.43.12-.65.11-.01,0-.03,0-.04,0-.27.01-.55.02-.82.03-.22-.06-.45-.06-.67,0-.38-.01-.77-.02-1.15-.03-.93-.04-1.81.21-2.71.42-.76.18-1.52.39-2.3.47-.9.09-1.77-.1-2.48-.75-.14-.13-.29-.26-.44-.37-.7-.52-.99-1.27-1.13-2.09.37.38.72.77,1.1,1.12.5.46,1.05.85,1.68,1.13.18.08.29.06.33-.15.08-.42.17-.84.22-1.27.03-.22.05-.46-.05-.74-.08.15-.13.25-.19.35-.36.67-1.04.79-1.59.27-.45-.42-1.01-.64-1.55-.89,0-.06,0-.12.02-.17.37-.82.82-1.58,1.43-2.25.17.15.33.31.55.4.31.12.61.28.93.39.16.06.23.13.26.29.04.24.11.47.18.78.17-.59.47-1.01.87-1.37.66-.58,1.31-1.18,1.92-1.81.43-.44.39-1.73-.41-1.85.92-.12,1.63.26,2.21.94.05.06.11.11.1.2-.07.36-.27.67-.42,1-.26.57-.42,1.17-.5,1.78-.06.44.16.68.6.67.43,0,.86.04,1.29.06.19,0,.42.2.56.05.13-.14.14-.39.2-.59.22-.75.53-1.48.23-2.28Z"/>
      <path class="cls-6" d="m222.26,189.23c.8.12.84,1.41.41,1.85-.62.63-1.26,1.23-1.92,1.81-.4.35-.7.77-.87,1.37-.08-.31-.14-.55-.18-.78-.03-.16-.1-.24-.26-.29-.31-.11-.61-.27-.93-.39-.22-.09-.38-.25-.55-.4.42-.57.97-1.01,1.51-1.45.57-.47,1.16-.91,1.74-1.37.31-.25.67-.34,1.06-.34Z"/>
      <path class="cls-6" d="m226.51,191.06c.3.8,0,1.54-.23,2.28-.06.2-.07.45-.2.59-.14.15-.36-.05-.56-.05-.43-.01-.86-.06-1.29-.06-.44,0-.66-.23-.6-.67.08-.62.24-1.21.5-1.78.15-.33.35-.64.42-1,.6.07,1.18.17,1.7.51.09.06.18.1.25.18Z"/>
      <path class="cls-6" d="m216.51,194.81c.54.25,1.1.47,1.55.89.55.52,1.23.4,1.59-.27.05-.1.1-.2.19-.35.11.28.08.52.05.74-.05.42-.15.84-.22,1.27-.04.21-.15.23-.33.15-.63-.28-1.18-.67-1.68-1.13-.38-.36-.73-.75-1.1-1.12,0,0,0-.02,0-.02-.01-.03-.03-.06-.04-.09,0-.02,0-.04,0-.06Z"/>
      <path class="cls-6" d="m226.76,197.32c.22-.06.45-.06.67,0-.22.03-.45.03-.67,0Z"/>
      <path class="cls-8" d="m216.51,194.87s.03.06.04.09c-.01-.03-.03-.06-.04-.09Z"/>
      <path class="cls-6" d="m228.25,197.28s.03,0,.04,0c0,0-.02.01-.02.01h-.02Z"/>
    </g>
    <g>
      <path class="cls-2" d="m249.76,195.37c-.69-.45-1.46-.66-2.26-.69-1.36-.04-2.74-.09-4.09.13-1.29.21-2.3.74-2.58,2.19-.12.62-.11,1.23-.16,1.84-.09,1.22-.38,2.4-.59,3.6-.18.96-.6,1.82-1.04,2.68-.18.35-.32.73-.44,1.11-.22.71-.06,1.32.47,1.85,1.06,1.06,2.32,1.88,3.68,2.4,2.01.78,4.12,1.29,6.28,1.51.34.07.69.14,1.04.08.33.1.67.05,1,0,.11.06.21.04.32-.02.26,0,.5-.1.72-.22,1.55-.77,3.1-1.53,4.64-2.31.85-.42,1.72-.83,2.39-1.51.89-.91,1.44-1.98.98-3.26-.49-1.37-1.06-2.71-1.72-4.01-.39-.76-.98-1.28-1.82-1.55-1.04-.34-2.12-.49-3.19-.69-.84-.15-1.52-.48-1.87-1.37-.32-.82-.97-1.39-1.78-1.77Z"/>
      <path class="cls-9" d="m249.04,212c-2.16-.22-4.27-.74-6.28-1.51-1.36-.53-2.62-1.35-3.68-2.4-.53-.53-.69-1.15-.47-1.85.12-.38.26-.76.44-1.11.44-.86.85-1.73,1.04-2.68.05-.02.12-.03.14-.07.78-1.68,1.57-3.36,2.34-5.04.04-.1.05-.2.17-.25.42-.15,1.12.31,1.26.75.42,1.31.97,2.58,2.09,3.43.89.67,1.7,1.42,2.48,2.2.46.46.76.99.92,1.63.2.83.15,1.66.19,2.49.03.63.06,1.27.42,2,0-1.82.11-3.46.43-5.08.06-.32.16-.72-.16-.98-1.05-.85-1.56-2.09-2.31-3.15-.39-.55-.69-1.15-.86-1.81-.09-.34-.07-.57.37-.67.4-.08.81-.23,1.18-.43.89-.47,1.3-.81,1.11-1.67-.03-.14-.06-.28-.09-.42.8.38,1.46.95,1.78,1.77.35.89,1.03,1.22,1.87,1.37,1.07.2,2.15.34,3.19.69.83.27,1.43.79,1.82,1.55.66,1.3,1.23,2.64,1.72,4.01.46,1.28-.09,2.35-.98,3.26-.67.69-1.54,1.09-2.39,1.51-1.55.77-3.09,1.54-4.64,2.31-.23.11-.46.21-.72.22-.11,0-.21.01-.32.02-.33.06-.67.11-1,0-.35.01-.68-.23-1.04-.08Zm-1.41-.52c.23-.52.27-1.02.16-1.46-.19-.83.04-1.58.27-2.35.07-.25.07-.49.04-.75-.11-1.16-.62-1.96-1.8-2.31-1.01-.3-1.57-1.27-2.42-1.82-.61-.4-1.54-.56-2.05-.28-1.01.55-1.64,1.4-2.02,2.47-.09.24,0,.28.2.3.36.02.68.18.93.42,1.18,1.18,2.71,1.67,4.25,2.09.89.24,1.36.67,1.55,1.57.15.73.38,1.47.89,2.13Zm7.91-7.19c.91,0,1.07-.15,1.13-.95.03-.53.09-1.06.32-1.53.28-.56.27-1.11.1-1.69-.15-.51-.34-.58-.7-.18-.57.64-1.31,1.02-1.98,1.51-.87.63-1.72,1.27-2.37,2.15-.17.23-.24.46-.14.71.11.29.4.21.62.2,1.07-.04,2.11-.63,3.02-.21Z"/>
      <path class="cls-6" d="m249.76,195.37c.03.14.06.28.09.42.19.87-.22,1.21-1.11,1.67-.37.19-.77.34-1.18.43-.43.09-.46.32-.37.67.17.66.47,1.27.86,1.81.76,1.06,1.27,2.3,2.31,3.15.32.26.22.66.16.98-.32,1.63-.43,3.27-.43,5.08-.36-.73-.39-1.37-.42-2-.04-.83,0-1.66-.19-2.49-.16-.64-.46-1.17-.92-1.63-.79-.78-1.59-1.53-2.48-2.2-1.12-.85-1.67-2.12-2.09-3.43-.14-.44-.85-.9-1.26-.75-.13.05-.13.15-.17.25-.77,1.68-1.56,3.36-2.34,5.04-.02.04-.09.05-.14.07.21-1.2.5-2.38.59-3.6.05-.61.04-1.23.16-1.84.28-1.45,1.29-1.98,2.58-2.19,1.35-.22,2.72-.17,4.09-.13.8.02,1.58.24,2.26.69Z"/>
      <path class="cls-11" d="m249.04,212c.36-.15.69.09,1.04.08-.35.06-.7,0-1.04-.08Z"/>
      <path class="cls-11" d="m251.08,212.08c.11,0,.21-.01.32-.02-.1.06-.21.08-.32.02Z"/>
      <path class="cls-6" d="m247.63,211.48c-.51-.66-.74-1.4-.89-2.13-.19-.9-.66-1.33-1.55-1.57-1.54-.42-3.07-.91-4.25-2.09-.24-.24-.57-.4-.93-.42-.21-.01-.29-.06-.2-.3.38-1.07,1.01-1.91,2.02-2.47.51-.28,1.44-.11,2.05.28.85.55,1.41,1.52,2.42,1.82,1.18.35,1.69,1.15,1.8,2.31.02.26.03.5-.04.75-.23.76-.46,1.52-.27,2.35.11.45.07.94-.16,1.46Z"/>
      <path class="cls-6" d="m255.54,204.3c-.91-.42-1.95.17-3.02.21-.22,0-.51.09-.62-.2-.1-.25-.02-.49.14-.71.65-.88,1.5-1.52,2.37-2.15.67-.49,1.42-.87,1.98-1.51.35-.4.54-.32.7.18.17.58.18,1.13-.1,1.69-.24.48-.29,1-.32,1.53-.05.8-.22.95-1.13.95Z"/>
    </g>
    <g>
      <path class="cls-2" d="m182.94,192.86c-.39-.25-.83-.38-1.29-.39-.77-.02-1.56-.05-2.32.07-.74.12-1.31.42-1.47,1.24-.07.35-.06.7-.09,1.05-.05.69-.22,1.36-.34,2.04-.1.54-.34,1.04-.59,1.52-.1.2-.18.42-.25.63-.13.4-.04.75.27,1.05.6.6,1.32,1.07,2.09,1.37,1.14.44,2.34.73,3.57.86.19.04.39.08.59.04.19.06.38.03.57,0,.06.03.12.02.18-.01.15,0,.28-.06.41-.12.88-.44,1.76-.87,2.64-1.31.48-.24.98-.47,1.36-.86.5-.52.82-1.12.56-1.85-.28-.78-.6-1.54-.98-2.28-.22-.43-.56-.72-1.03-.88-.59-.2-1.21-.28-1.82-.39-.48-.09-.86-.27-1.06-.78-.18-.47-.55-.79-1.01-1.01Z"/>
      <path class="cls-9" d="m182.53,202.31c-1.23-.13-2.43-.42-3.57-.86-.77-.3-1.49-.77-2.09-1.37-.3-.3-.39-.65-.27-1.05.07-.22.15-.43.25-.63.25-.49.48-.98.59-1.52.03-.01.07-.02.08-.04.45-.95.89-1.91,1.33-2.86.03-.06.03-.11.1-.14.24-.08.64.17.72.42.24.74.55,1.47,1.19,1.95.51.38.97.81,1.41,1.25.26.26.43.56.52.93.11.47.09.94.11,1.41.02.36.03.72.24,1.14,0-1.03.06-1.96.24-2.89.03-.18.09-.41-.09-.56-.6-.48-.88-1.19-1.31-1.79-.22-.31-.39-.66-.49-1.03-.05-.2-.04-.33.21-.38.23-.05.46-.13.67-.24.51-.27.74-.46.63-.95-.02-.08-.03-.16-.05-.24.46.22.83.54,1.01,1.01.2.51.58.69,1.06.78.61.11,1.22.19,1.82.39.47.16.81.45,1.03.88.37.74.7,1.5.98,2.28.26.73-.05,1.34-.56,1.85-.38.39-.88.62-1.36.86-.88.44-1.76.87-2.64,1.31-.13.06-.26.12-.41.12-.06,0-.12,0-.18.01-.19.03-.38.06-.57,0-.2,0-.39-.13-.59-.04Zm-.8-.3c.13-.3.15-.58.09-.83-.11-.47.02-.9.15-1.33.04-.14.04-.28.02-.43-.06-.66-.35-1.11-1.02-1.31-.57-.17-.89-.72-1.38-1.03-.35-.23-.87-.32-1.16-.16-.57.31-.93.79-1.15,1.4-.05.14,0,.16.12.17.2.01.39.1.53.24.67.67,1.54.95,2.42,1.19.5.14.77.38.88.89.09.42.21.83.51,1.21Zm4.5-4.08c.52,0,.61-.09.64-.54.02-.3.05-.6.18-.87.16-.32.15-.63.06-.96-.09-.29-.2-.33-.4-.1-.32.36-.74.58-1.13.86-.49.36-.98.72-1.35,1.22-.1.13-.14.26-.08.41.06.17.23.12.35.11.61-.02,1.2-.36,1.72-.12Z"/>
      <path class="cls-6" d="m182.94,192.86c.02.08.03.16.05.24.11.49-.12.69-.63.95-.21.11-.44.19-.67.24-.25.05-.26.18-.21.38.1.38.27.72.49,1.03.43.6.72,1.31,1.31,1.79.18.15.13.38.09.56-.18.92-.24,1.86-.24,2.89-.21-.41-.22-.78-.24-1.14-.02-.47,0-.95-.11-1.41-.09-.37-.26-.67-.52-.93-.45-.44-.91-.87-1.41-1.25-.64-.48-.95-1.21-1.19-1.95-.08-.25-.48-.51-.72-.42-.07.03-.07.08-.1.14-.44.96-.88,1.91-1.33,2.86-.01.02-.05.03-.08.04.12-.68.28-1.35.34-2.04.03-.35.02-.7.09-1.05.16-.82.73-1.12,1.47-1.24.77-.13,1.55-.1,2.32-.07.46.01.9.14,1.29.39Z"/>
      <path class="cls-11" d="m182.53,202.31c.2-.09.39.05.59.04-.2.04-.4,0-.59-.04Z"/>
      <path class="cls-11" d="m183.69,202.35c.06,0,.12,0,.18-.01-.06.04-.12.04-.18.01Z"/>
      <path class="cls-6" d="m181.73,202.02c-.29-.37-.42-.79-.51-1.21-.11-.51-.38-.75-.88-.89-.87-.24-1.74-.52-2.42-1.19-.14-.14-.32-.22-.53-.24-.12,0-.16-.03-.12-.17.21-.61.57-1.09,1.15-1.4.29-.16.82-.06,1.16.16.48.31.8.86,1.38,1.03.67.2.96.65,1.02,1.31.01.15.02.28-.02.43-.13.43-.26.86-.15,1.33.06.25.04.54-.09.83Z"/>
      <path class="cls-6" d="m186.22,197.93c-.52-.24-1.11.1-1.72.12-.13,0-.29.05-.35-.11-.05-.14-.01-.28.08-.41.37-.5.86-.87,1.35-1.22.38-.28.81-.49,1.13-.86.2-.23.31-.18.4.1.1.33.1.64-.06.96-.13.27-.17.57-.18.87-.03.45-.12.54-.64.54Z"/>
    </g>
    <g>
      <path class="cls-2" d="m209.06,132.7c-.39-.25-.83-.38-1.29-.39-.77-.02-1.56-.05-2.32.07-.74.12-1.31.42-1.47,1.24-.07.35-.06.7-.09,1.05-.05.69-.22,1.36-.34,2.04-.1.54-.34,1.04-.59,1.52-.1.2-.18.42-.25.63-.13.4-.04.75.27,1.05.6.6,1.32,1.07,2.09,1.37,1.14.44,2.34.73,3.57.86.19.04.39.08.59.04.19.06.38.03.57,0,.06.03.12.02.18-.01.15,0,.28-.06.41-.12.88-.44,1.76-.87,2.64-1.31.48-.24.98-.47,1.36-.86.5-.52.82-1.12.56-1.85-.28-.78-.6-1.54-.98-2.28-.22-.43-.56-.72-1.03-.88-.59-.2-1.21-.28-1.82-.39-.48-.09-.86-.27-1.06-.78-.18-.47-.55-.79-1.01-1.01Z"/>
      <path class="cls-9" d="m208.65,142.15c-1.23-.13-2.43-.42-3.57-.86-.77-.3-1.49-.77-2.09-1.37-.3-.3-.39-.65-.27-1.05.07-.22.15-.43.25-.63.25-.49.48-.98.59-1.52.03-.01.07-.02.08-.04.45-.95.89-1.91,1.33-2.86.03-.06.03-.11.1-.14.24-.08.64.17.72.42.24.74.55,1.47,1.19,1.95.51.38.97.81,1.41,1.25.26.26.43.56.52.93.11.47.09.94.11,1.41.02.36.03.72.24,1.14,0-1.03.06-1.96.24-2.89.03-.18.09-.41-.09-.56-.6-.48-.88-1.19-1.31-1.79-.22-.31-.39-.66-.49-1.03-.05-.2-.04-.33.21-.38.23-.05.46-.13.67-.24.51-.27.74-.46.63-.95-.02-.08-.03-.16-.05-.24.46.22.83.54,1.01,1.01.2.51.58.69,1.06.78.61.11,1.22.19,1.82.39.47.16.81.45,1.03.88.37.74.7,1.5.98,2.28.26.73-.05,1.34-.56,1.85-.38.39-.88.62-1.36.86-.88.44-1.76.87-2.64,1.31-.13.06-.26.12-.41.12-.06,0-.12,0-.18.01-.19.03-.38.06-.57,0-.2,0-.39-.13-.59-.04Zm-.8-.3c.13-.3.15-.58.09-.83-.11-.47.02-.9.15-1.33.04-.14.04-.28.02-.43-.06-.66-.35-1.11-1.02-1.31-.57-.17-.89-.72-1.38-1.03-.35-.23-.87-.32-1.16-.16-.57.31-.93.79-1.15,1.4-.05.14,0,.16.12.17.2.01.39.1.53.24.67.67,1.54.95,2.42,1.19.5.14.77.38.88.89.09.42.21.83.51,1.21Zm4.5-4.08c.52,0,.61-.09.64-.54.02-.3.05-.6.18-.87.16-.32.15-.63.06-.96-.09-.29-.2-.33-.4-.1-.32.36-.74.58-1.13.86-.49.36-.98.72-1.35,1.22-.1.13-.14.26-.08.41.06.17.23.12.35.11.61-.02,1.2-.36,1.72-.12Z"/>
      <path class="cls-6" d="m209.06,132.7c.02.08.03.16.05.24.11.49-.12.69-.63.95-.21.11-.44.19-.67.24-.25.05-.26.18-.21.38.1.38.27.72.49,1.03.43.6.72,1.31,1.31,1.79.18.15.13.38.09.56-.18.92-.24,1.86-.24,2.89-.21-.41-.22-.78-.24-1.14-.02-.47,0-.95-.11-1.41-.09-.37-.26-.67-.52-.93-.45-.44-.91-.87-1.41-1.25-.64-.48-.95-1.21-1.19-1.95-.08-.25-.48-.51-.72-.42-.07.03-.07.08-.1.14-.44.96-.88,1.91-1.33,2.86-.01.02-.05.03-.08.04.12-.68.28-1.35.34-2.04.03-.35.02-.7.09-1.05.16-.82.73-1.12,1.47-1.24.77-.13,1.55-.1,2.32-.07.46.01.9.14,1.29.39Z"/>
      <path class="cls-11" d="m208.65,142.15c.2-.09.39.05.59.04-.2.04-.4,0-.59-.04Z"/>
      <path class="cls-11" d="m209.81,142.19c.06,0,.12,0,.18-.01-.06.04-.12.04-.18.01Z"/>
      <path class="cls-6" d="m207.85,141.85c-.29-.37-.42-.79-.51-1.21-.11-.51-.38-.75-.88-.89-.87-.24-1.74-.52-2.42-1.19-.14-.14-.32-.22-.53-.24-.12,0-.16-.03-.12-.17.21-.61.57-1.09,1.15-1.4.29-.16.82-.06,1.16.16.48.31.8.86,1.38,1.03.67.2.96.65,1.02,1.31.01.15.02.28-.02.43-.13.43-.26.86-.15,1.33.06.25.04.54-.09.83Z"/>
      <path class="cls-6" d="m212.34,137.77c-.52-.24-1.11.1-1.72.12-.13,0-.29.05-.35-.11-.05-.14-.01-.28.08-.41.37-.5.86-.87,1.35-1.22.38-.28.81-.49,1.13-.86.2-.23.31-.18.4.1.1.33.1.64-.06.96-.13.27-.17.57-.18.87-.03.45-.12.54-.64.54Z"/>
    </g>
    <g>
      <path class="cls-2" d="m149.22,197.16c-.19-.12-.4-.18-.62-.19-.38-.01-.75-.03-1.13.03-.36.06-.63.21-.71.6-.03.17-.03.34-.04.51-.03.34-.11.66-.16.99-.05.26-.17.5-.29.74-.05.1-.09.2-.12.31-.06.19-.02.37.13.51.29.29.64.52,1.01.66.55.21,1.14.36,1.73.42.09.02.19.04.29.02.09.03.18.01.28,0,.03.02.06.01.09,0,.07,0,.14-.03.2-.06.43-.21.85-.42,1.28-.64.23-.12.47-.23.66-.42.24-.25.4-.55.27-.9-.13-.38-.29-.75-.47-1.1-.11-.21-.27-.35-.5-.43-.29-.09-.59-.14-.88-.19-.23-.04-.42-.13-.51-.38-.09-.23-.27-.38-.49-.49Z"/>
      <path class="cls-9" d="m149.02,201.74c-.6-.06-1.18-.2-1.73-.42-.37-.14-.72-.37-1.01-.66-.15-.14-.19-.32-.13-.51.03-.1.07-.21.12-.31.12-.24.23-.48.29-.74.01,0,.03,0,.04-.02.22-.46.43-.93.65-1.39.01-.03.01-.06.05-.07.12-.04.31.08.35.21.12.36.27.71.58.95.25.19.47.39.68.61.13.13.21.27.25.45.06.23.04.46.05.69,0,.17.02.35.12.55,0-.5.03-.95.12-1.4.02-.09.04-.2-.04-.27-.29-.23-.43-.58-.64-.87-.11-.15-.19-.32-.24-.5-.02-.1-.02-.16.1-.18.11-.02.22-.06.32-.12.25-.13.36-.22.31-.46,0-.04-.02-.08-.02-.12.22.11.4.26.49.49.1.25.28.34.51.38.3.05.59.09.88.19.23.08.39.22.5.43.18.36.34.73.47,1.1.13.35-.03.65-.27.9-.19.19-.42.3-.66.42-.43.21-.85.42-1.28.64-.06.03-.13.06-.2.06-.03,0-.06,0-.09,0-.09.02-.18.03-.28,0-.1,0-.19-.06-.29-.02Zm-.39-.14c.06-.14.07-.28.04-.4-.05-.23.01-.44.07-.65.02-.07.02-.13.01-.21-.03-.32-.17-.54-.5-.64-.28-.08-.43-.35-.67-.5-.17-.11-.42-.15-.56-.08-.28.15-.45.39-.56.68-.02.07,0,.08.06.08.1,0,.19.05.26.12.33.33.75.46,1.17.58.24.07.38.18.43.43.04.2.1.4.25.59Zm2.18-1.98c.25,0,.3-.04.31-.26,0-.15.02-.29.09-.42.08-.15.07-.31.03-.47-.04-.14-.09-.16-.19-.05-.16.18-.36.28-.55.42-.24.17-.47.35-.65.59-.05.06-.07.13-.04.2.03.08.11.06.17.06.3-.01.58-.17.83-.06Z"/>
      <path class="cls-6" d="m149.22,197.16s.02.08.02.12c.05.24-.06.33-.31.46-.1.05-.21.09-.32.12-.12.02-.13.09-.1.18.05.18.13.35.24.5.21.29.35.63.64.87.09.07.06.18.04.27-.09.45-.12.9-.12,1.4-.1-.2-.11-.38-.12-.55-.01-.23,0-.46-.05-.69-.04-.18-.13-.32-.25-.45-.22-.22-.44-.42-.68-.61-.31-.23-.46-.58-.58-.95-.04-.12-.23-.25-.35-.21-.04.01-.04.04-.05.07-.21.46-.43.93-.65,1.39,0,.01-.03.01-.04.02.06-.33.14-.66.16-.99.01-.17.01-.34.04-.51.08-.4.35-.55.71-.6.37-.06.75-.05,1.13-.03.22,0,.43.07.62.19Z"/>
      <path class="cls-11" d="m149.02,201.74c.1-.04.19.02.29.02-.1.02-.19,0-.29-.02Z"/>
      <path class="cls-11" d="m149.58,201.76s.06,0,.09,0c-.03.02-.06.02-.09,0Z"/>
      <path class="cls-6" d="m148.63,201.6c-.14-.18-.2-.39-.25-.59-.05-.25-.18-.37-.43-.43-.42-.12-.85-.25-1.17-.58-.07-.07-.16-.11-.26-.12-.06,0-.08-.02-.06-.08.1-.29.28-.53.56-.68.14-.08.4-.03.56.08.24.15.39.42.67.5.33.1.47.32.5.64,0,.07,0,.14-.01.21-.06.21-.13.42-.07.65.03.12.02.26-.04.4Z"/>
      <path class="cls-6" d="m150.81,199.62c-.25-.12-.54.05-.83.06-.06,0-.14.03-.17-.06-.03-.07,0-.13.04-.2.18-.24.41-.42.65-.59.19-.13.39-.24.55-.42.1-.11.15-.09.19.05.05.16.05.31-.03.47-.06.13-.08.28-.09.42-.01.22-.06.26-.31.26Z"/>
    </g>
    <g>
      <path class="cls-2" d="m193.55,154.47c-.19-.12-.4-.18-.62-.19-.38-.01-.75-.03-1.13.03-.36.06-.63.21-.71.6-.03.17-.03.34-.04.51-.03.34-.11.66-.16.99-.05.26-.17.5-.29.74-.05.1-.09.2-.12.31-.06.19-.02.37.13.51.29.29.64.52,1.01.66.55.21,1.14.36,1.73.42.09.02.19.04.29.02.09.03.18.01.28,0,.03.02.06.01.09,0,.07,0,.14-.03.2-.06.43-.21.85-.42,1.28-.64.23-.12.47-.23.66-.42.24-.25.4-.55.27-.9-.13-.38-.29-.75-.47-1.1-.11-.21-.27-.35-.5-.43-.29-.09-.59-.14-.88-.19-.23-.04-.42-.13-.51-.38-.09-.23-.27-.38-.49-.49Z"/>
      <path class="cls-9" d="m193.35,159.05c-.6-.06-1.18-.2-1.73-.42-.37-.14-.72-.37-1.01-.66-.15-.14-.19-.32-.13-.51.03-.1.07-.21.12-.31.12-.24.23-.48.29-.74.01,0,.03,0,.04-.02.22-.46.43-.93.65-1.39.01-.03.01-.06.05-.07.12-.04.31.08.35.21.12.36.27.71.58.95.25.19.47.39.68.61.13.13.21.27.25.45.06.23.04.46.05.69,0,.17.02.35.12.55,0-.5.03-.95.12-1.4.02-.09.04-.2-.04-.27-.29-.23-.43-.58-.64-.87-.11-.15-.19-.32-.24-.5-.02-.1-.02-.16.1-.18.11-.02.22-.06.32-.12.25-.13.36-.22.31-.46,0-.04-.02-.08-.02-.12.22.11.4.26.49.49.1.25.28.34.51.38.3.05.59.09.88.19.23.08.39.22.5.43.18.36.34.73.47,1.1.13.35-.03.65-.27.9-.19.19-.42.3-.66.42-.43.21-.85.42-1.28.64-.06.03-.13.06-.2.06-.03,0-.06,0-.09,0-.09.02-.18.03-.28,0-.1,0-.19-.06-.29-.02Zm-.39-.14c.06-.14.07-.28.04-.4-.05-.23.01-.44.07-.65.02-.07.02-.13.01-.21-.03-.32-.17-.54-.5-.64-.28-.08-.43-.35-.67-.5-.17-.11-.42-.15-.56-.08-.28.15-.45.39-.56.68-.02.07,0,.08.06.08.1,0,.19.05.26.12.33.33.75.46,1.17.58.24.07.38.18.43.43.04.2.1.4.25.59Zm2.18-1.98c.25,0,.3-.04.31-.26,0-.15.02-.29.09-.42.08-.15.07-.31.03-.47-.04-.14-.09-.16-.19-.05-.16.18-.36.28-.55.42-.24.17-.47.35-.65.59-.05.06-.07.13-.04.2.03.08.11.06.17.06.3-.01.58-.17.83-.06Z"/>
      <path class="cls-6" d="m193.55,154.47s.02.08.02.12c.05.24-.06.33-.31.46-.1.05-.21.09-.32.12-.12.02-.13.09-.1.18.05.18.13.35.24.5.21.29.35.63.64.87.09.07.06.18.04.27-.09.45-.12.9-.12,1.4-.1-.2-.11-.38-.12-.55-.01-.23,0-.46-.05-.69-.04-.18-.13-.32-.25-.45-.22-.22-.44-.42-.68-.61-.31-.23-.46-.58-.58-.95-.04-.12-.23-.25-.35-.21-.04.01-.04.04-.05.07-.21.46-.43.93-.65,1.39,0,.01-.03.01-.04.02.06-.33.14-.66.16-.99.01-.17.01-.34.04-.51.08-.4.35-.55.71-.6.37-.06.75-.05,1.13-.03.22,0,.43.07.62.19Z"/>
      <path class="cls-11" d="m193.35,159.05c.1-.04.19.02.29.02-.1.02-.19,0-.29-.02Z"/>
      <path class="cls-11" d="m193.91,159.07s.06,0,.09,0c-.03.02-.06.02-.09,0Z"/>
      <path class="cls-6" d="m192.96,158.91c-.14-.18-.2-.39-.25-.59-.05-.25-.18-.37-.43-.43-.42-.12-.85-.25-1.17-.58-.07-.07-.16-.11-.26-.12-.06,0-.08-.02-.06-.08.1-.29.28-.53.56-.68.14-.08.4-.03.56.08.24.15.39.42.67.5.33.1.47.32.5.64,0,.07,0,.14-.01.21-.06.21-.13.42-.07.65.03.12.02.26-.04.4Z"/>
      <path class="cls-6" d="m195.14,156.93c-.25-.12-.54.05-.83.06-.06,0-.14.03-.17-.06-.03-.07,0-.13.04-.2.18-.24.41-.42.65-.59.19-.13.39-.24.55-.42.1-.11.15-.09.19.05.05.16.05.31-.03.47-.06.13-.08.28-.09.42-.01.22-.06.26-.31.26Z"/>
    </g>
    <g>
      <path class="cls-2" d="m228.49,151.18c-.25-.16-.53-.24-.82-.25-.49-.02-.99-.03-1.48.05-.47.08-.83.27-.93.79-.04.22-.04.45-.06.67-.03.44-.14.87-.21,1.3-.07.35-.22.66-.37.97-.07.13-.11.27-.16.4-.08.26-.02.48.17.67.38.38.84.68,1.33.87.73.28,1.49.47,2.28.55.12.02.25.05.38.03.12.04.24.02.36,0,.04.02.08.01.11,0,.09,0,.18-.04.26-.08.56-.28,1.12-.56,1.68-.83.31-.15.62-.3.86-.55.32-.33.52-.72.36-1.18-.18-.5-.38-.98-.62-1.45-.14-.27-.36-.46-.66-.56-.38-.12-.77-.18-1.16-.25-.3-.06-.55-.17-.68-.5-.12-.3-.35-.5-.64-.64Z"/>
      <path class="cls-9" d="m228.24,157.2c-.78-.08-1.55-.27-2.28-.55-.49-.19-.95-.49-1.33-.87-.19-.19-.25-.41-.17-.67.04-.14.09-.28.16-.4.16-.31.31-.62.37-.97.02,0,.04-.01.05-.03.28-.61.57-1.22.85-1.82.02-.04.02-.07.06-.09.15-.05.41.11.46.27.15.47.35.93.76,1.24.32.24.62.51.9.8.17.17.28.36.33.59.07.3.05.6.07.9.01.23.02.46.15.72,0-.66.04-1.25.15-1.84.02-.11.06-.26-.06-.35-.38-.31-.56-.76-.84-1.14-.14-.2-.25-.42-.31-.66-.03-.12-.02-.21.13-.24.15-.03.29-.08.43-.15.32-.17.47-.29.4-.61-.01-.05-.02-.1-.03-.15.29.14.53.35.64.64.13.32.37.44.68.5.39.07.78.12,1.16.25.3.1.52.29.66.56.24.47.45.96.62,1.45.17.46-.03.85-.36,1.18-.24.25-.56.39-.86.55-.56.28-1.12.56-1.68.83-.08.04-.17.08-.26.08-.04,0-.08,0-.11,0-.12.02-.24.04-.36,0-.13,0-.25-.08-.38-.03Zm-.51-.19c.08-.19.1-.37.06-.53-.07-.3.01-.57.1-.85.03-.09.02-.18.02-.27-.04-.42-.22-.71-.65-.84-.37-.11-.57-.46-.88-.66-.22-.14-.56-.2-.74-.1-.36.2-.59.51-.73.89-.03.09,0,.1.07.11.13,0,.25.06.34.15.43.43.98.6,1.54.76.32.09.49.24.56.57.06.26.14.53.32.77Zm2.86-2.6c.33,0,.39-.05.41-.34.01-.19.03-.38.12-.55.1-.2.1-.4.04-.61-.06-.18-.12-.21-.25-.07-.21.23-.47.37-.72.55-.31.23-.62.46-.86.78-.06.08-.09.17-.05.26.04.11.14.08.23.07.39-.01.76-.23,1.09-.08Z"/>
      <path class="cls-6" d="m228.49,151.18c.01.05.02.1.03.15.07.31-.08.44-.4.61-.13.07-.28.12-.43.15-.16.03-.17.12-.13.24.06.24.17.46.31.66.27.38.46.83.84,1.14.12.09.08.24.06.35-.11.59-.15,1.18-.15,1.84-.13-.26-.14-.5-.15-.72-.02-.3,0-.6-.07-.9-.06-.23-.16-.42-.33-.59-.28-.28-.58-.55-.9-.8-.41-.31-.6-.77-.76-1.24-.05-.16-.31-.32-.46-.27-.05.02-.05.05-.06.09-.28.61-.56,1.22-.85,1.82,0,.01-.03.02-.05.03.08-.43.18-.86.21-1.3.02-.22.01-.44.06-.67.1-.52.47-.72.93-.79.49-.08.99-.06,1.48-.05.29,0,.57.09.82.25Z"/>
      <path class="cls-11" d="m228.24,157.2c.13-.05.25.03.38.03-.13.02-.25,0-.38-.03Z"/>
      <path class="cls-11" d="m228.97,157.22s.08,0,.11,0c-.04.02-.07.03-.11,0Z"/>
      <path class="cls-6" d="m227.72,157.01c-.19-.24-.27-.51-.32-.77-.07-.32-.24-.48-.56-.57-.56-.15-1.11-.33-1.54-.76-.09-.09-.21-.14-.34-.15-.08,0-.1-.02-.07-.11.14-.39.37-.69.73-.89.18-.1.52-.04.74.1.31.2.51.55.88.66.43.13.61.42.65.84,0,.09.01.18-.02.27-.08.28-.17.55-.1.85.04.16.02.34-.06.53Z"/>
      <path class="cls-6" d="m230.59,154.41c-.33-.15-.71.06-1.09.08-.08,0-.19.03-.23-.07-.03-.09,0-.18.05-.26.23-.32.54-.55.86-.78.24-.18.51-.32.72-.55.13-.14.2-.12.25.07.06.21.07.41-.04.61-.09.17-.11.36-.12.55-.02.29-.08.35-.41.34Z"/>
    </g>
    <g>
      <path class="cls-2" d="m248.2,156.49c-.16-.1-.34-.16-.53-.16-.32,0-.64-.02-.96.03-.3.05-.54.17-.6.51-.03.14-.03.29-.04.43-.02.28-.09.56-.14.84-.04.22-.14.43-.24.63-.04.08-.07.17-.1.26-.05.17-.01.31.11.43.25.25.54.44.86.56.47.18.96.3,1.47.35.08.02.16.03.24.02.08.02.16.01.23,0,.03.01.05,0,.07,0,.06,0,.12-.02.17-.05.36-.18.72-.36,1.09-.54.2-.1.4-.19.56-.35.21-.21.34-.46.23-.76-.11-.32-.25-.63-.4-.94-.09-.18-.23-.3-.42-.36-.24-.08-.5-.11-.75-.16-.2-.04-.36-.11-.44-.32-.07-.19-.23-.33-.42-.42Z"/>
      <path class="cls-9" d="m248.03,160.38c-.51-.05-1-.17-1.47-.35-.32-.12-.61-.32-.86-.56-.12-.12-.16-.27-.11-.43.03-.09.06-.18.1-.26.1-.2.2-.4.24-.63.01,0,.03,0,.03-.02.18-.39.37-.79.55-1.18.01-.02.01-.05.04-.06.1-.03.26.07.3.17.1.31.23.6.49.8.21.16.4.33.58.51.11.11.18.23.21.38.05.19.04.39.05.58,0,.15.01.3.1.47,0-.42.03-.81.1-1.19.01-.07.04-.17-.04-.23-.24-.2-.36-.49-.54-.74-.09-.13-.16-.27-.2-.42-.02-.08-.02-.13.09-.16.09-.02.19-.05.27-.1.21-.11.31-.19.26-.39,0-.03-.01-.07-.02-.1.19.09.34.22.42.42.08.21.24.28.44.32.25.05.5.08.75.16.19.06.33.19.42.36.15.3.29.62.4.94.11.3-.02.55-.23.76-.16.16-.36.26-.56.35-.36.18-.72.36-1.09.54-.05.03-.11.05-.17.05-.02,0-.05,0-.07,0-.08.01-.16.03-.23,0-.08,0-.16-.05-.24-.02Zm-.33-.12c.05-.12.06-.24.04-.34-.05-.19,0-.37.06-.55.02-.06.02-.11,0-.17-.03-.27-.15-.46-.42-.54-.24-.07-.37-.3-.57-.43-.14-.09-.36-.13-.48-.07-.24.13-.38.33-.47.58-.02.06,0,.07.05.07.08,0,.16.04.22.1.28.28.63.39.99.49.21.06.32.16.36.37.04.17.09.34.21.5Zm1.85-1.68c.21,0,.25-.04.26-.22,0-.12.02-.25.08-.36.06-.13.06-.26.02-.4-.04-.12-.08-.14-.16-.04-.13.15-.31.24-.46.35-.2.15-.4.3-.55.5-.04.05-.06.11-.03.17.03.07.09.05.15.05.25,0,.49-.15.71-.05Z"/>
      <path class="cls-6" d="m248.2,156.49s.01.07.02.1c.04.2-.05.28-.26.39-.09.04-.18.08-.27.1-.1.02-.11.07-.09.16.04.15.11.3.2.42.18.25.3.54.54.74.07.06.05.16.04.23-.07.38-.1.76-.1,1.19-.08-.17-.09-.32-.1-.47,0-.19,0-.39-.05-.58-.04-.15-.11-.27-.21-.38-.18-.18-.37-.36-.58-.51-.26-.2-.39-.5-.49-.8-.03-.1-.2-.21-.3-.17-.03.01-.03.03-.04.06-.18.39-.36.79-.55,1.18,0,0-.02.01-.03.02.05-.28.12-.56.14-.84.01-.14,0-.29.04-.43.07-.34.3-.46.6-.51.32-.05.64-.04.96-.03.19,0,.37.06.53.16Z"/>
      <path class="cls-11" d="m248.03,160.38c.08-.04.16.02.24.02-.08.01-.16,0-.24-.02Z"/>
      <path class="cls-11" d="m248.51,160.4s.05,0,.07,0c-.02.01-.05.02-.07,0Z"/>
      <path class="cls-6" d="m247.7,160.26c-.12-.15-.17-.33-.21-.5-.04-.21-.15-.31-.36-.37-.36-.1-.72-.21-.99-.49-.06-.06-.13-.09-.22-.1-.05,0-.07-.01-.05-.07.09-.25.24-.45.47-.58.12-.07.34-.03.48.07.2.13.33.35.57.43.28.08.4.27.42.54,0,.06,0,.12,0,.17-.05.18-.11.35-.06.55.02.1.02.22-.04.34Z"/>
      <path class="cls-6" d="m249.55,158.58c-.21-.1-.46.04-.71.05-.05,0-.12.02-.15-.05-.02-.06,0-.11.03-.17.15-.2.35-.36.55-.5.16-.11.33-.2.46-.35.08-.09.13-.08.16.04.04.14.04.26-.02.4-.06.11-.07.23-.08.36-.01.19-.05.22-.26.22Z"/>
    </g>
    <g>
      <path class="cls-2" d="m278.05,207.56c-.16-.1-.34-.16-.53-.16-.32,0-.64-.02-.96.03-.3.05-.54.17-.6.51-.03.14-.03.29-.04.43-.02.28-.09.56-.14.84-.04.22-.14.43-.24.63-.04.08-.07.17-.1.26-.05.17-.01.31.11.43.25.25.54.44.86.56.47.18.96.3,1.47.35.08.02.16.03.24.02.08.02.16.01.23,0,.03.01.05,0,.07,0,.06,0,.12-.02.17-.05.36-.18.72-.36,1.09-.54.2-.1.4-.19.56-.35.21-.21.34-.46.23-.76-.11-.32-.25-.63-.4-.94-.09-.18-.23-.3-.42-.36-.24-.08-.5-.11-.75-.16-.2-.04-.36-.11-.44-.32-.07-.19-.23-.33-.42-.42Z"/>
      <path class="cls-9" d="m277.89,211.45c-.51-.05-1-.17-1.47-.35-.32-.12-.61-.32-.86-.56-.12-.12-.16-.27-.11-.43.03-.09.06-.18.1-.26.1-.2.2-.4.24-.63.01,0,.03,0,.03-.02.18-.39.37-.79.55-1.18.01-.02.01-.05.04-.06.1-.03.26.07.3.17.1.31.23.6.49.8.21.16.4.33.58.51.11.11.18.23.21.38.05.19.04.39.05.58,0,.15.01.3.1.47,0-.42.03-.81.1-1.19.01-.07.04-.17-.04-.23-.24-.2-.36-.49-.54-.74-.09-.13-.16-.27-.2-.42-.02-.08-.02-.13.09-.16.09-.02.19-.05.27-.1.21-.11.31-.19.26-.39,0-.03-.01-.07-.02-.1.19.09.34.22.42.42.08.21.24.28.44.32.25.05.5.08.75.16.19.06.33.19.42.36.15.3.29.62.4.94.11.3-.02.55-.23.76-.16.16-.36.26-.56.35-.36.18-.72.36-1.09.54-.05.03-.11.05-.17.05-.02,0-.05,0-.07,0-.08.01-.16.03-.23,0-.08,0-.16-.05-.24-.02Zm-.33-.12c.05-.12.06-.24.04-.34-.05-.19,0-.37.06-.55.02-.06.02-.11,0-.17-.03-.27-.15-.46-.42-.54-.24-.07-.37-.3-.57-.43-.14-.09-.36-.13-.48-.07-.24.13-.38.33-.47.58-.02.06,0,.07.05.07.08,0,.16.04.22.1.28.28.63.39.99.49.21.06.32.16.36.37.04.17.09.34.21.5Zm1.85-1.68c.21,0,.25-.04.26-.22,0-.12.02-.25.08-.36.06-.13.06-.26.02-.4-.04-.12-.08-.14-.16-.04-.13.15-.31.24-.46.35-.2.15-.4.3-.55.5-.04.05-.06.11-.03.17.03.07.09.05.15.05.25,0,.49-.15.71-.05Z"/>
      <path class="cls-6" d="m278.05,207.56s.01.07.02.1c.04.2-.05.28-.26.39-.09.04-.18.08-.27.1-.1.02-.11.07-.09.16.04.15.11.3.2.42.18.25.3.54.54.74.07.06.05.16.04.23-.07.38-.1.76-.1,1.19-.08-.17-.09-.32-.1-.47,0-.19,0-.39-.05-.58-.04-.15-.11-.27-.21-.38-.18-.18-.37-.36-.58-.51-.26-.2-.39-.5-.49-.8-.03-.1-.2-.21-.3-.17-.03.01-.03.03-.04.06-.18.39-.36.79-.55,1.18,0,0-.02.01-.03.02.05-.28.12-.56.14-.84.01-.14,0-.29.04-.43.07-.34.3-.46.6-.51.32-.05.64-.04.96-.03.19,0,.37.06.53.16Z"/>
      <path class="cls-11" d="m277.89,211.45c.08-.04.16.02.24.02-.08.01-.16,0-.24-.02Z"/>
      <path class="cls-11" d="m278.36,211.47s.05,0,.07,0c-.02.01-.05.02-.07,0Z"/>
      <path class="cls-6" d="m277.56,211.33c-.12-.15-.17-.33-.21-.5-.04-.21-.15-.31-.36-.37-.36-.1-.72-.21-.99-.49-.06-.06-.13-.09-.22-.1-.05,0-.07-.01-.05-.07.09-.25.24-.45.47-.58.12-.07.34-.03.48.07.2.13.33.35.57.43.28.08.4.27.42.54,0,.06,0,.12,0,.17-.05.18-.11.35-.06.55.02.1.02.22-.04.34Z"/>
      <path class="cls-6" d="m279.41,209.65c-.21-.1-.46.04-.71.05-.05,0-.12.02-.15-.05-.02-.06,0-.11.03-.17.15-.2.35-.36.55-.5.16-.11.33-.2.46-.35.08-.09.13-.08.16.04.04.14.04.26-.02.4-.06.11-.07.23-.08.36-.01.19-.05.22-.26.22Z"/>
    </g>
  </g>
</svg>