<?xml version="1.0" encoding="UTF-8"?>
<svg id="Layer_1" data-name="Layer 1" xmlns="http://www.w3.org/2000/svg" width="300" height="225" viewBox="0 0 300 225">
  <defs>
    <style>
      .cls-1 {
        fill: #84cd29;
      }

      .cls-2 {
        fill: #fff;
      }

      .cls-3, .cls-4 {
        isolation: isolate;
      }

      .cls-4 {
        opacity: .35;
      }

      .cls-5 {
        fill: #3a2416;
      }

      .cls-6 {
        fill: #232323;
      }

      .cls-7 {
        fill: #ff7e1c;
      }

      .cls-8 {
        fill: #444;
      }

      .cls-9 {
        fill: none;
      }

      .cls-10 {
        fill: #ea651b;
      }
    </style>
  </defs>
  <path class="cls-5" d="m58.73,43.96c9.52,3.85,47.08,18.64,45.5,30.5-.55,2.84-3.33,4.51-5.71,5.64,0,0-9.77,4.52-9.77,4.52-2.4,1.15-4.9,2.2-7.13,3.64-.35.24-.71.52-.86.8-.48.72,2.31,1.33,2.81,1.52,1.57.44,6.14,1.5,7.83,1.93,10.45,2.65,20.75,6.09,30.45,10.84,17.1,8.81,3.08,19.56,21.03,20.66,3.54.26,7.12.07,10.73.13,7.18.07,14.35.99,21.49,1.52,7.4.63,14.33-.3,18.56-7.1,3.8-5.95,6.14-12.95,7.26-19.91.51-3.52.55-7.1.12-10.64-.19-1.78-.56-3.52-.66-5.37-.03-.95.06-2.05.78-2.76,2.2-1.84,5.41-1.3,8.04-1.43,5.39.08,10.77.68,16.12,1.19,8.57.68,21.26,2.54,17.97-10.48-1.43-5.15-3.39-10.32-3.16-15.78-.01-7.16,3.65-14.52,10.16-17.84-6.45,3.38-10.01,10.72-9.92,17.84-.17,5.45,1.85,10.52,3.33,15.68,3.49,13.39-9.46,11.92-18.44,11.16-5.36-.49-10.7-1.06-16.07-1.13-2.43.12-5.57-.34-7.54,1.25-.54.55-.63,1.41-.59,2.28.1,1.74.48,3.52.68,5.31.45,3.59.43,7.24-.08,10.82-1.12,7.13-3.43,14.14-7.31,20.27-4.41,7.09-11.6,8.18-19.31,7.54-7.17-.5-14.27-1.38-21.45-1.43-3.56-.07-7.17.1-10.79-.18-18.79-1.33-4.83-12.49-21.35-20.88-9.61-4.75-19.86-8.21-30.23-10.89-2.94-.84-7.65-1.6-10.44-2.93-1.33-.78-.64-1.87.47-2.55,2.29-1.47,4.8-2.51,7.24-3.67,0,0,9.79-4.48,9.79-4.48,2.29-1.08,4.87-2.57,5.42-5.21,1.31-11.34-35.47-26.46-44.97-30.4h0Z"/>
  <path class="cls-5" d="m208.57,209.29c-.67-14.99-1.25-30.34,2.4-45.03,1.99-8.28,8.68-12.11,14.76-16.95,6.25-4.86,8-11.72,6.81-19.32-1.06-7.57-.5-15.65,3.15-22.53,3.53-6.9,10.69-12.3,18.65-12.32,0,0,2.79.08,2.79.08,2.81-.08,3.23-3.12,3.25-5.6-.04-3.64-.88-7.32-1.83-10.91-2-7.19-4.59-14.26-7.51-21.17-1.69-2.95.27-6.29,2.92-8.03-2.39,1.75-4.29,5.03-2.53,7.85,3.18,6.82,6.1,13.78,8.25,21.03,1.23,4.53,2.67,9.36,1.92,14.18-.6,3.2-2.69,4.58-5.88,4.28,0,0-1.35-.01-1.35-.01-11.49.19-19.13,11.25-20.11,21.9-1.2,9.54,3.44,19.31-3.3,27.79-4.61,6.07-12.37,8.77-16.39,15.21-2.83,4.76-3.6,10.43-4.4,15.87-1.4,11.16-1.67,22.44-1.6,33.69h0Z"/>
  <g class="cls-4">
    <ellipse class="cls-6" cx="147.06" cy="197.03" rx="51.67" ry="8.36"/>
  </g>
  <path class="cls-8" d="m156.03,181.95c.84,2.1.73,4.52-.66,5.48-1.37.96-4.03-.07-5.53-2.54-4.08-6.68-6-14.63-5.28-22.7.27-3.01,3.23-4.52,6.11-3.46,2.9,1.07,4.59,3.39,4.09,5.38-1.46,5.68-1.12,11.95,1.27,17.84Z"/>
  <g>
    <g>
      <path class="cls-10" d="m254.43,34.7c.93,2.05,2.19,3.99,3.8,5.74,8.15,8.87,21.95,9.46,30.82,1.32,4.73-4.35,7.11-10.3,7.06-16.26-1.41,3.35-3.55,6.46-6.41,9.08-10.05,9.23-25.36,9.11-35.27.12Z"/>
      <path class="cls-7" d="m259.54,9.61c-7.13,6.54-8.91,16.73-5.12,25.08,9.91,8.99,25.22,9.1,35.27-.12,2.85-2.62,4.99-5.73,6.41-9.08-.04-5.21-1.94-10.42-5.74-14.56-8.15-8.87-21.95-9.46-30.82-1.31Z"/>
    </g>
    <path class="cls-2" d="m280.65,27.58c.32.71.3,1.58-.07,2.59-.47,1.21-1.22,1.99-2.27,2.32-.9.27-2.15.25-3.73-.06l-.63,2.41-1.73-.45.62-2.37-1.34-.35-.62,2.37-1.74-.45.63-2.41-3.43-.89.89-1.96.35.09c.56.17.93.25,1.11.25.25,0,.44-.15.56-.42l2-7.68c.03-.4-.11-.68-.42-.86-.19-.13-.64-.27-1.33-.42l-.28-.07.48-1.84,1.05.31c1.25.33,2.04.52,2.38.58l.73-2.8,1.74.45-.72,2.76,1.35.31.71-2.72,1.73.45-.73,2.8c1.17.43,2.03.93,2.56,1.5.66.68.9,1.49.72,2.46-.22,1.41-.95,2.25-2.21,2.52h0c.82.42,1.37.95,1.63,1.6h0Zm-7.15-3.49l.28.07c.99.28,1.77.43,2.35.42,1.01,0,1.61-.38,1.81-1.15s-.12-1.42-.98-1.92c-.48-.28-1.23-.53-2.25-.77-.17-.02-.28-.04-.33-.05l-.89,3.4h0Zm-1.11,5.57c1.2.34,2.12.51,2.77.53,1.18,0,1.89-.42,2.11-1.27s-.17-1.56-1.19-2.12c-.55-.32-1.43-.61-2.64-.88l-.39-.1-.98,3.75.32.08h0Z"/>
  </g>
  <g>
    <g class="cls-4">
      <path class="cls-6" d="m40.88,35.12l-.52-.48c-.52.19-1.05.24-1.6.15s-1.04-.33-1.48-.73l.98-.49c.19.16.4.28.65.35.24.07.48.08.72.03l-1.42-1.32c-.06,0-.11.02-.17.03-.06.01-.12.02-.18.03-.52.08-.97.08-1.38,0s-.77-.27-1.09-.58c-.39-.36-.56-.71-.52-1.07.04-.36.26-.66.66-.92l-.54-.51.48-.25.55.51c.47-.18.96-.23,1.47-.14s.96.3,1.35.65l-.99.5c-.13-.12-.3-.21-.49-.27-.19-.06-.39-.07-.58-.04l1.25,1.16c.05,0,.1-.02.15-.02.05,0,.1-.02.15-.02.33-.05.65-.08.97-.08s.62.04.92.14.59.28.87.54c.23.22.39.45.47.7.08.25.06.5-.04.74-.11.24-.32.46-.65.65l.51.48-.48.25Zm-4.59-3.54c.14.13.3.22.48.25.18.03.38.04.59.02l-1.11-1.04c-.12.1-.18.22-.18.35s.07.27.22.41Zm3.87,1.28c-.18-.17-.38-.27-.6-.31s-.46-.04-.71-.02l1.27,1.19c.17-.12.25-.26.26-.41,0-.15-.07-.3-.23-.45Z"/>
      <path class="cls-6" d="m43.74,32.83l-3.72-3.46-.65.59-.66-.61.72-1.09.57-.29,4.7,4.38-.96.49Z"/>
      <path class="cls-6" d="m47.84,30.87c-.47.24-.97.34-1.51.32-.54-.02-1.08-.16-1.62-.4-.55-.25-1.06-.6-1.54-1.05-.48-.45-.81-.89-1-1.32-.19-.43-.21-.83-.08-1.19.13-.36.43-.65.89-.89.47-.24.97-.34,1.51-.32.54.02,1.08.16,1.62.41.55.25,1.06.6,1.54,1.04.48.45.82.89,1,1.32.18.43.21.83.08,1.18s-.43.65-.89.89Zm-.77-.72c.38-.19.54-.49.49-.88-.05-.4-.34-.83-.85-1.31-.51-.48-1.04-.8-1.58-.95-.54-.15-1-.13-1.38.06-.39.2-.55.49-.49.89.06.4.34.83.86,1.31.51.48,1.04.8,1.57.95.53.15.99.13,1.38-.06Z"/>
      <path class="cls-6" d="m52.98,28.27c-.47.24-.97.34-1.51.32s-1.08-.16-1.62-.4c-.54-.25-1.06-.6-1.54-1.05-.48-.45-.81-.89-1-1.32-.19-.43-.21-.83-.08-1.19.13-.36.43-.65.9-.89.47-.24.97-.34,1.51-.32.54.02,1.08.16,1.62.41s1.06.6,1.54,1.04c.48.45.82.89,1,1.32.18.43.21.83.08,1.18-.13.36-.43.65-.9.89Zm-.77-.72c.38-.19.54-.49.49-.88s-.34-.84-.85-1.31c-.51-.48-1.04-.8-1.58-.95-.54-.15-1-.13-1.38.06-.39.2-.55.49-.49.89.06.4.34.83.86,1.31.51.48,1.04.8,1.57.95s.99.13,1.38-.06Z"/>
      <path class="cls-6" d="m58.11,25.68c-.47.24-.97.34-1.51.32-.54-.02-1.08-.16-1.62-.4-.55-.25-1.06-.6-1.54-1.05-.48-.45-.81-.89-1-1.32-.19-.43-.21-.83-.09-1.19.13-.36.43-.65.9-.89.47-.24.97-.34,1.51-.32.54.02,1.08.16,1.62.41.55.25,1.06.6,1.54,1.04.48.45.82.89,1,1.32.18.43.21.83.08,1.18s-.43.65-.9.89Zm-.77-.72c.38-.19.54-.49.49-.88-.05-.4-.34-.83-.85-1.31-.51-.48-1.04-.8-1.58-.95s-1-.13-1.38.06c-.39.19-.55.49-.49.89.06.4.34.83.86,1.31.51.48,1.04.8,1.57.95.53.15.99.13,1.38-.06Z"/>
    </g>
    <g class="cls-4">
      <path class="cls-6" d="m77.05,26.53l-18.35-17.09c-1.01-.94-2.72-1.26-3.81-.71L19.3,26.73c-1.09.55-1.15,1.77-.14,2.71l18.35,17.09c1.01.94,2.72,1.26,3.81.71l35.59-18c1.09-.55,1.16-1.77.14-2.71Z"/>
    </g>
    <g>
      <g>
        <path class="cls-1" d="m55.15,5.15L19.57,23.15c-1.09.55-1.15,1.77-.14,2.71l18.35,17.09c1.01.94,2.72,1.26,3.81.71l35.59-18c1.09-.55,1.16-1.77.14-2.71L58.97,5.86c-1.01-.94-2.72-1.26-3.81-.71Z"/>
        <path class="cls-2" d="m39.82,40.6l-3.67-3.42c2.18-1.1,5.6-.47,7.62,1.42l-3.95,2Z"/>
        <path class="cls-2" d="m26.98,28.64l-3.67-3.42,3.95-2c2.03,1.89,1.9,4.31-.28,5.42Z"/>
        <path class="cls-2" d="m73.43,23.6l-3.96,2c-2.03-1.89-1.9-4.31.29-5.42l3.67,3.42Z"/>
        <path class="cls-2" d="m60.59,11.63c-2.19,1.11-5.6.47-7.63-1.42l3.96-2,3.67,3.42Z"/>
        <path class="cls-2" d="m54.79,30.39c-7.75,3.92-16.9,4.42-20.45,1.11-3.55-3.3-.14-9.16,7.61-13.08,7.75-3.92,16.91-4.42,20.45-1.12,3.55,3.3.14,9.16-7.61,13.08Z"/>
      </g>
      <polygon class="cls-9" points="66.22 20.84 38.02 35.1 31.38 28.9 59.57 14.64 66.22 20.84"/>
      <g class="cls-3">
        <path class="cls-1" d="m47.37,28.38l-.52-.48c-.52.19-1.05.24-1.6.15s-1.04-.33-1.48-.73l.98-.49c.19.16.4.28.65.35.24.07.48.08.72.03l-1.42-1.32c-.06,0-.11.02-.17.03s-.12.02-.18.03c-.52.08-.97.08-1.38,0s-.77-.27-1.09-.58c-.39-.36-.56-.71-.52-1.07.04-.36.26-.66.66-.92l-.54-.51.48-.25.55.51c.47-.18.96-.23,1.47-.14.51.09.96.3,1.35.65l-.99.5c-.13-.12-.3-.21-.49-.27s-.39-.07-.58-.04l1.25,1.16c.05,0,.1-.01.15-.02s.1-.02.15-.02c.33-.05.65-.08.97-.08s.62.04.92.14.59.28.87.54c.23.22.39.45.47.7.08.25.06.5-.04.74-.11.24-.32.46-.65.65l.51.48-.48.25Zm-4.59-3.54c.14.13.3.22.48.25.18.03.38.04.59.02l-1.11-1.04c-.12.1-.18.22-.18.35s.07.27.22.41Zm3.87,1.28c-.18-.17-.38-.27-.6-.31-.22-.04-.46-.04-.71-.02l1.27,1.19c.17-.12.25-.26.26-.41,0-.15-.07-.3-.23-.45Z"/>
        <path class="cls-1" d="m50.23,26.1l-3.72-3.46-.65.59-.66-.61.72-1.09.57-.29,4.7,4.38-.96.49Z"/>
        <path class="cls-1" d="m54.33,24.14c-.47.24-.97.34-1.51.32-.54-.02-1.08-.16-1.62-.4-.55-.25-1.06-.6-1.54-1.05-.48-.45-.81-.89-1-1.32-.19-.43-.21-.83-.08-1.19.13-.36.43-.65.89-.89.47-.24.97-.34,1.51-.32.54.02,1.08.16,1.62.41.55.25,1.06.6,1.54,1.04.48.45.82.89,1,1.32.18.43.21.83.08,1.18s-.43.65-.89.89Zm-.77-.72c.38-.19.54-.49.49-.88-.05-.4-.34-.83-.85-1.31-.51-.48-1.04-.8-1.58-.95-.54-.15-1-.13-1.38.06-.39.2-.55.49-.49.89.06.4.34.83.86,1.31.51.48,1.04.8,1.57.95.53.15.99.13,1.38-.06Z"/>
      </g>
    </g>
  </g>
  <g>
    <g>
      <g>
        <path class="cls-6" d="m130.56,94.72c2.79-1.77,3.91-5.26,2.05-8.29-1.86-3.03-7.2-4.26-11.01-1.8-11.13,6.96-17.54,18.35-17.71,31.43-.08,4.55,3.65,8.51,7.28,8.48,3.63-.03,5.95-2.79,5.99-6.06.25-9.79,5.03-18.46,13.39-23.76Z"/>
        <g>
          <path class="cls-6" d="m116.93,128.38c.5.79.72,1.81.26,2.34s-1.68.32-2.51-.5c-2.32-2.3-3.82-5.43-4.3-8.78-.12-1.25.89-2.22,2.18-1.92,1.31.13,2.13.96,2.21,1.79-.16,2.38.57,4.93,2.16,7.07Z"/>
          <path class="cls-6" d="m120.74,124.23c.86.5,1.44,1.22,1.29,1.95s-1.35,1.1-2.46.66c-3.11-1.06-5.96-3.09-7.81-5.92-.72-1.06-.26-2.34,1.03-2.78,1.28-.45,2.41-.17,2.74.61,1,2.33,2.86,4.26,5.21,5.49Z"/>
          <path class="cls-6" d="m111.72,130.08c.32.94.22,1.92-.4,2.27s-1.72-.09-2.28-1.14c-1.6-2.89-2.25-6.26-1.73-9.67.21-1.22,1.51-1.83,2.69-1.29s1.83,1.51,1.58,2.31c-.74,2.4-.85,5.03.14,7.52Z"/>
        </g>
      </g>
      <g>
        <path class="cls-6" d="m175.43,86.15c-2.37-2.47-6.13-2.97-8.88-.42-2.74,2.53-2.84,8.16.44,11.63,9.33,9.87,22.22,14.07,35.58,11.59,4.69-.87,7.94-5.48,7.21-9.13-.73-3.68-4.06-5.49-7.43-4.9-10.1,1.88-19.86-1.3-26.92-8.77Z"/>
        <path class="cls-6" d="m204.07,95.31c-1.14-.02-2.27.47-2.47,1.29-.21.82.76,1.9,2.19,2.16,3.89.73,8,.2,11.69-1.59,1.37-.66,1.56-2.34.54-3.51-1.03-1.18-2.43-1.56-3.28-.96-2.42,1.71-5.45,2.68-8.66,2.61Z"/>
        <path class="cls-6" d="m205.91,97.56c-1.12-.22-2.32.06-2.66.84-.35.77.41,2,1.78,2.52,3.7,1.4,7.84,1.61,11.78.5,1.47-.41,1.95-2.03,1.15-3.36-.8-1.34-2.12-1.97-3.06-1.53-2.68,1.26-5.83,1.68-8.99,1.04Z"/>
        <path class="cls-6" d="m206.05,101.48c-1.12-.22-2.31.06-2.66.84-.35.77.41,2,1.78,2.51,3.7,1.41,7.84,1.61,11.78.5,1.47-.41,1.95-2.03,1.15-3.36-.8-1.34-2.11-1.96-3.06-1.53-2.68,1.26-5.83,1.68-8.99,1.04Z"/>
        <path class="cls-6" d="m205.89,88.86c-.28-1.12.05-2.33.97-2.74.91-.4,2.39.28,3,1.61,1.71,3.62,2.01,7.75.73,11.79-.48,1.51-2.39,2.1-3.99,1.39-1.6-.72-2.36-1.99-1.85-2.96,1.46-2.79,1.93-5.98,1.13-9.1Z"/>
      </g>
      <g>
        <g>
          <g>
            <path class="cls-6" d="m152,144.71c.2,1.51,3.99,43.65,11.05,49.73,7.06,6.09,10.82,4.2,12.37,2.61,1.55-1.59,3.59-4.45.07-7.9-2.84-2.74-4.54-14.62-1.22-33.01l-22.27-11.43Z"/>
            <g>
              <path class="cls-6" d="m180.51,192.64c.92.25,1.85.16,2.22-.41.36-.57-.19-1.63-1.23-2.23-2.87-1.46-6.23-2-9.49-1.5-1.28.2-1.78,1.47-1.22,2.64s1.59,1.78,2.4,1.57c2.22-.76,4.78-.82,7.32-.06Z"/>
              <path class="cls-6" d="m179,197.83c.8.48,1.73.62,2.32.17.47-.45.27-1.62-.52-2.45-2.39-2.26-5.38-3.61-8.73-4.03-1.27-.15-2.11.88-1.91,2.16.2,1.28,1,2.11,1.81,2.13,2.32-.06,4.86.58,7.04,2.02Z"/>
              <path class="cls-6" d="m174.96,201.69c.45.82,1.24,1.42,1.95,1.21.7-.22,1.08-1.37.64-2.42-1.09-3.04-3.12-5.76-5.98-7.57-1.03-.72-2.32-.17-2.7,1.1-.37,1.15-.05,2.32.64,2.69,2.3.98,4.23,2.77,5.46,5Z"/>
            </g>
          </g>
          <g>
            <path class="cls-6" d="m145.69,144.22c-.27,1.5-6.22,43.41-13.44,49.05-7.33,5.75-11,3.58-12.47,2.04-1.47-1.66-3.38-4.72.3-7.89,2.96-2.6,5.21-14.4,2.85-32.92l22.77-10.28Z"/>
            <g>
              <path class="cls-6" d="m116.04,191.16c-.93.21-1.86.07-2.19-.52s.27-1.62,1.33-2.18c2.93-1.33,6.31-1.71,9.55-.94,1.27.26,1.71,1.55,1.1,2.7s-1.67,1.7-2.47,1.34c-2.19-.86-4.74-1.04-7.31-.4Z"/>
              <path class="cls-6" d="m117.31,196.41c-.82.45-1.75.54-2.32.06-.45-.47-.19-1.63.64-2.42,2.49-2.03,5.65-3.35,8.91-3.63,1.28-.09,2.07,1.09,1.81,2.25-.26,1.27-1.09,2.07-1.91,2.05-2.32-.17-4.89.35-7.12,1.69Z"/>
              <path class="cls-6" d="m121.17,200.45c-.48.8-1.31,1.36-2,1.12-.69-.25-.9-1.41-.52-2.45,1.23-2.99,3.49-5.49,6.32-7.29,1.06-.67,2.32-.06,2.64,1.22.32,1.17-.05,2.32-.76,2.65-2.34.88-4.36,2.57-5.68,4.75Z"/>
            </g>
          </g>
        </g>
        <path class="cls-8" d="m186.59,123.32c-1.18-14.55-6.81-32.33-18.15-38.98-4.81-2.9-10.45-5-18.32-6.46-1.87.31-3.61.61-5.25.92-.23.11-.58.1-.82.21-.47.11-.93.21-1.4.32-.35.11-.58.1-.93.21-.47.11-.93.21-1.4.43-.23.11-.47.11-.7.22-.7.22-1.29.43-1.99.65-.23.11-.35.11-.59.22-.47.22-.94.33-1.41.55-.23.11-.47.22-.59.22-.47.22-.82.33-1.29.55-.23.11-.35.11-.59.22-.59.22-1.17.55-1.76.89-12.46,6.57-18.95,26.16-20.34,41.11-.17,2.2-.21,4.29-.26,6.27-.12,5.11.13,9.29.66,11.86,0,.12.11.23.11.35,2.7,14,17.89,24.92,36.35,25.34,20.78.48,37.92-12.37,38.29-28.62v-.46c.46-4.4.59-9.98.38-16.02Z"/>
        <path class="cls-2" d="m177.77,82.47c-4.63-5.57-10.73-8.38-22.9-9.12h-.58c-.58-.03-1.28-.04-1.86-.06l-1.97-.05h-.23s0,0-.12,0h-.12c-.7-.02-1.39-.03-2.09-.05-.81-.02-1.51-.03-2.21.07h-.23c-12.2.18-18.41,2.71-23.3,7.94-6.43,7.05-10.15,27.41-11.22,43.3,1.39-14.95,7.99-34.54,20.34-41.11,4.35-2.25,8.7,70.96,15.01,87.72.81,2.15,3.82,2.22,4.74.11,7.7-17.55,12.73-89.42,17.16-86.86,12.15,7.13,17.73,27,18.31,42,.02-16.03-2.64-36.53-8.75-43.87Z"/>
      </g>
    </g>
    <ellipse class="cls-2" cx="147.06" cy="55.45" rx="44.23" ry="32.97" transform="translate(-6.52 22.09) rotate(-8.4)"/>
  </g>
  <path class="cls-5" d="m30.14,46.27c6.27,2.2,53.71,18.06,45.35,27.07-1.19,1.16-2.62,1.66-4.01,2.12-2.76.81-5.5,1.48-8.26,2.15-6.9,2.07-37.08,6.72-38.67,12.6-.19.83.61,1.88,1.59,2.7,2.1,1.71,4.66,2.83,7.18,3.96,3.88,1.77,7.69,3.7,11.44,5.73,9.95,5.48,19.55,11.59,28.59,18.49,6.73,5.24,13.39,10.83,18.42,17.82,2.81,4.02,5.65,9.92,2.5,14.59,0,0-1.16,1.74-1.16,1.74-4.14,7.31-5.58,15.84-6.93,24.08-1.7,11.16-2.44,22.46-2.76,33.77-.13-11.32.4-22.66,1.79-33.9,1.36-9.05,2.69-18.66,7.86-26.47,2.65-4.22-.1-9.17-2.67-12.83-4.96-6.77-11.51-12.23-18.15-17.34-8.98-6.78-18.55-12.8-28.44-18.18-3.7-2.03-7.46-3.95-11.29-5.73-2.62-1.2-5.31-2.39-7.59-4.28-10.02-8.97,16.11-13.16,21.37-14.64,5.53-1.26,11.07-2.36,16.58-3.58,2.83-.91,12.16-1.79,12.34-5.12-1.46-8.36-36.49-21.27-45.08-24.72h0Z"/>
</svg>