<?xml version="1.0" encoding="UTF-8"?>
<svg id="Layer_1" data-name="Layer 1" xmlns="http://www.w3.org/2000/svg" width="300" height="225" viewBox="0 0 300 225">
  <defs>
    <style>
      .cls-1 {
        fill: #fff;
      }

      .cls-2 {
        fill: #23140a;
      }

      .cls-3 {
        fill: #232323;
      }

      .cls-4 {
        fill: #ff7e1c;
      }

      .cls-5 {
        fill: #444;
      }

      .cls-6 {
        fill: #ea651b;
      }

      .cls-7 {
        fill: #7f7f7f;
      }
    </style>
  </defs>
  <g>
    <path class="cls-3" d="m146.83,111.61c.17,1.13,3.73,32.56,9.12,36.99,5.38,4.43,8.16,2.95,9.29,1.74,1.13-1.22,2.6-3.39-.09-5.9-2.17-2-3.65-10.85-1.48-24.66l-16.84-8.16Z"/>
    <g>
      <path class="cls-3" d="m168.97,146.95c.69.17,1.39.09,1.65-.35.26-.43-.17-1.22-.96-1.65-2.17-1.04-4.69-1.39-7.12-.96-.96.17-1.3,1.13-.87,2s1.22,1.3,1.82,1.13c1.65-.61,3.56-.69,5.47-.17Z"/>
      <path class="cls-3" d="m167.93,150.86c.61.35,1.3.43,1.74.09.35-.35.17-1.22-.43-1.82-1.82-1.65-4.08-2.6-6.6-2.87-.96-.09-1.56.69-1.39,1.65.17.96.78,1.56,1.39,1.56,1.74-.09,3.65.35,5.3,1.39Z"/>
      <path class="cls-3" d="m164.97,153.81c.35.61.96,1.04,1.48.87.52-.17.78-1.04.43-1.82-.87-2.26-2.43-4.25-4.6-5.56-.78-.52-1.74-.09-2,.87-.26.87,0,1.74.52,2,1.74.69,3.21,2,4.17,3.65Z"/>
    </g>
  </g>
  <g>
    <path class="cls-3" d="m143.53,111.35c-.17,1.13-3.91,32.56-9.2,36.9-5.38,4.43-8.16,2.87-9.29,1.74-1.13-1.22-2.6-3.47.09-5.9,2.17-2,3.65-10.85,1.56-24.66l16.84-8.07Z"/>
    <g>
      <path class="cls-3" d="m122.17,146.95c-.69.17-1.39.09-1.65-.35s.17-1.22.96-1.65c2.17-1.04,4.69-1.39,7.12-.87.96.17,1.3,1.13.87,2-.43.87-1.22,1.3-1.82,1.04-1.65-.61-3.56-.69-5.47-.17Z"/>
      <path class="cls-3" d="m123.21,150.86c-.61.35-1.3.43-1.74.09-.35-.35-.17-1.22.43-1.82,1.82-1.56,4.17-2.6,6.6-2.87.96-.09,1.56.78,1.39,1.65-.17.96-.78,1.56-1.39,1.56-1.74-.09-3.65.35-5.3,1.39Z"/>
      <path class="cls-3" d="m126.16,153.81c-.35.61-.96,1.04-1.48.87s-.69-1.04-.43-1.82c.87-2.26,2.52-4.17,4.6-5.56.78-.52,1.74-.09,2,.87.26.87,0,1.74-.52,2-1.74.69-3.21,2-4.17,3.65Z"/>
    </g>
  </g>
  <path class="cls-5" d="m173.74,95.03c-1.13-10.85-5.64-24.05-14.24-28.83-3.65-2.08-7.9-3.56-13.81-4.52-1.39.26-2.69.52-3.91.78-.17.09-.43.09-.61.17-.35.09-.69.17-1.04.26-.26.09-.43.09-.69.17-.35.09-.69.17-1.04.35-.17.09-.35.09-.52.17-.52.17-.96.35-1.48.52-.17.09-.26.09-.43.17-.35.17-.69.26-1.04.43-.17.09-.35.17-.43.17-.35.17-.61.26-.96.43-.17.09-.26.09-.43.17-.43.17-.87.43-1.3.69-9.2,5.12-13.72,19.88-14.5,31.08-.09,1.65-.09,3.21-.09,4.69,0,3.82.26,6.95.69,8.86,0,.09.09.17.09.26,2.26,10.42,13.81,18.32,27.61,18.32,15.54,0,28.13-9.9,28.13-22.05v-.35c.26-3.3.26-7.47,0-11.98Z"/>
  <path class="cls-1" d="m166.45,64.64c-3.56-4.08-8.16-6.08-17.28-6.43h-5.21c-.61,0-1.13,0-1.65.09h-.17c-9.12.35-13.72,2.34-17.28,6.34-4.69,5.38-7.12,20.66-7.64,32.56.78-11.2,5.38-25.96,14.5-31.08,3.65-2,7.99-3.47,13.81-4.43,5.9.96,10.16,2.52,13.81,4.52,9.2,5.12,13.72,19.88,14.41,31.08-.26-11.98-2.6-27.26-7.29-32.65Z"/>
  <path class="cls-1" d="m145.52,22.35c-5.04,0-10.85-2-14.15-2.87-3.91-.96-5.73-1.04-8.6-1.04-8.68,0-11.37,4.52-12.07,6.43,5.73-17.54,23.79-20.06,34.56-19.97h.87c10.68,0,28.83,2.52,34.47,20.14-.69-1.82-3.39-6.43-12.07-6.43-2.87,0-4.69,0-8.6.96-3.3.87-9.2,2.78-14.15,2.78h-.26Z"/>
  <path class="cls-5" d="m180.52,25.05h0c-.69-1.91-3.39-6.43-12.07-6.43-2.87,0-4.69,0-8.6.96-3.3.87-9.2,2.78-14.15,2.78h-.17c-5.04,0-10.85-2-14.15-2.87-3.91-.96-5.73-1.04-8.6-1.04-8.68,0-11.37,4.52-12.07,6.43h0c-1.82,1.74-3.04,6.34-2.95,11.81.17,6.86,2.52,12.33,5.21,12.24h.17c6.25,12.59,23.36,18.41,32.3,18.41s26.22-5.73,32.56-18.32h.17c2.69.09,5.04-5.38,5.3-12.24.09-5.38-1.13-9.99-2.95-11.72Z"/>
  <path class="cls-7" d="m145.52,58.3c-4.52,0-14.15-4.25-14.15-13.46s10.68-9.9,14.24-9.9,14.24.78,14.15,9.99c0,9.2-9.72,13.37-14.24,13.37Z"/>
  <path class="cls-3" d="m145.78,37.29c2,0,4.86,2.08,5.21,4.43.35,2.43-5.38,2.34-5.38,2.34h-.17s-5.73.09-5.38-2.34c.35-2.43,3.3-4.43,5.21-4.43h.52Z"/>
  <circle class="cls-3" cx="131.02" cy="30.26" r="1.74"/>
  <path class="cls-3" d="m161.85,30.34c0,.96-.78,1.74-1.74,1.74s-1.74-.78-1.74-1.74.78-1.74,1.74-1.74,1.74.78,1.74,1.74Z"/>
  <path class="cls-3" d="m176.78,28.95c2.17.09,3.99,4.25,4.69,10.16.09-.78.17-1.48.17-2.34.17-5.38-1.13-9.81-2.95-9.9-.78,0-1.48.78-2,2,0,.09.09.09.09.09Z"/>
  <path class="cls-3" d="m114.35,28.78c-2.17.09-3.99,4.25-4.69,10.16-.09-.78-.09-1.48-.17-2.34-.09-5.38,1.22-9.81,2.95-9.9.78,0,1.48.78,2,2.08,0,.09,0,0-.09,0Z"/>
  <path class="cls-7" d="m134.5,26.27c-.23,0-.45-.1-.61-.28-.32-.39-.73-.68-1.27-.91-.58-.25-1.08-.37-1.51-.37-.58-.06-.95.04-1.47.19l-.14.04c-.48.21-.89.43-1.22.75-.31.31-.81.31-1.12,0-.31-.31-.31-.81,0-1.12.56-.56,1.23-.87,1.81-1.12l.23-.07c.59-.17,1.2-.35,2.01-.25.56,0,1.25.16,2.04.49.77.33,1.38.77,1.86,1.35.28.33.23.83-.1,1.11-.15.12-.33.18-.51.18Z"/>
  <path class="cls-7" d="m163.67,26.27c-.23,0-.45-.1-.61-.28-.32-.39-.73-.68-1.27-.91-.58-.25-1.08-.37-1.51-.37h-.11c-.44-.07-.95.08-1.49.23-.48.21-.89.43-1.22.75-.31.31-.81.31-1.12,0-.31-.31-.31-.81,0-1.12.56-.56,1.23-.87,1.81-1.12.72-.21,1.43-.42,2.19-.32.64,0,1.32.17,2.08.5.77.33,1.38.77,1.86,1.35.28.33.23.83-.1,1.11-.15.12-.33.18-.51.18Z"/>
  <path class="cls-3" d="m145.52,54.41c-1.3,0-2.47-.36-3.22-.66-1.09-.49-1.93-1.06-2.67-1.81-.79-.79-1.44-1.74-1.81-2.67-.15-.37.03-.78.4-.93.37-.15.78.03.93.4.3.74.84,1.54,1.49,2.19.62.62,1.32,1.1,2.22,1.5.6.24,1.59.54,2.66.54,1,0,1.84-.17,2.66-.54.77-.31,1.57-.85,2.22-1.5.62-.62,1.1-1.32,1.5-2.22.16-.36.59-.52.95-.36.36.16.52.59.36.95-.48,1.06-1.05,1.9-1.8,2.64-.79.79-1.74,1.44-2.67,1.81-.98.45-2.01.66-3.22.66Z"/>
  <path class="cls-3" d="m160.41,72.77c-2.2-1.11-3.3-3.62-2.14-6.02,1.16-2.39,5.05-3.7,8.06-2.15,8.8,4.36,14.4,12.36,15.5,22.08.4,3.38-2.09,6.6-4.79,6.85-2.7.25-4.63-1.64-4.91-4.07-.91-7.27-5.11-13.36-11.72-16.69Z"/>
  <path class="cls-3" d="m177.26,97.3c.07.7-.12,1.45-.61,1.65s-1.23-.35-1.51-1.18c-.78-2.32-.74-4.91.06-7.31.34-.88,1.34-1.19,2.1-.56.83.53,1.1,1.36.88,1.94-.9,1.54-1.27,3.49-.92,5.45Z"/>
  <path class="cls-3" d="m181.2,95.8c.41.62.56,1.3.21,1.73s-1.27.28-1.86-.39c-1.72-1.75-2.95-4.06-3.24-6.57-.12-.95.61-1.65,1.62-1.52,1.01.13,1.67.7,1.63,1.33-.11,1.89.49,3.8,1.65,5.41Z"/>
  <path class="cls-3" d="m173.21,96.69c-.1.73-.5,1.36-1.03,1.38s-1.12-.64-1.14-1.53c-.1-2.47.59-4.94,2.08-7.05.55-.74,1.62-.72,2.23.04.61.75.72,1.62.28,2.07-1.3,1.36-2.25,3.08-2.43,5.08Z"/>
  <path class="cls-3" d="m128.27,63.75c2.4.56,4.06,2.75,3.5,5.34-.56,2.6-4.03,4.79-7.33,3.99-9.58-2.16-16.91-8.62-20.26-17.81-1.18-3.19.48-6.91,3.05-7.78,2.57-.87,4.89.5,5.73,2.8,2.63,6.93,8.11,11.78,15.32,13.47Z"/>
  <path class="cls-3" d="m103.74,45.71c-.23-.66-.73-1.29-1.19-1.25-.54.07-.98.77-.91,1.7.33,2.45,1.36,4.75,3.14,6.58.62.66,1.7.52,2.18-.3.47-.81.52-1.7-.06-2.1-1.43-1.14-2.58-2.7-3.15-4.64Z"/>
  <path class="cls-3" d="m107.67,44.46c.04-.7-.3-1.4-.84-1.52-.54-.12-1.21.5-1.33,1.43-.37,2.4,0,4.93,1.15,7.27.42.86,1.51.9,2.17.29.74-.65.9-1.51.56-2.02-1.08-1.6-1.68-3.43-1.71-5.45Z"/>
  <path class="cls-6" d="m81.66,39.55c1.45,1.79,3.2,3.38,5.24,4.7,10.35,6.68,24.15,3.71,30.83-6.64,3.56-5.52,4.38-12.02,2.79-17.9-.54,3.68-1.85,7.31-4,10.64-7.56,11.72-22.74,15.55-34.86,9.21Z"/>
  <path class="cls-4" d="m80.26,13.42c-5.36,8.31-4.5,18.84,1.4,26.13,12.12,6.34,27.29,2.51,34.86-9.21,2.15-3.33,3.46-6.96,4-10.64-1.39-5.14-4.61-9.81-9.43-12.93-10.35-6.68-24.15-3.71-30.83,6.64Z"/>
  <path class="cls-1" d="m105.77,25.75c.5.62.7,1.48.6,2.58-.15,1.32-.7,2.28-1.65,2.88-.82.5-2.06.8-3.7.9v2.54h-1.83v-2.51h-1.42v2.51h-1.83v-2.54h-3.63l.37-2.17h.37c.6.03.98.01,1.16-.04.25-.08.4-.26.45-.56v-8.12c-.07-.4-.28-.65-.63-.75-.22-.07-.7-.1-1.42-.07h-.3v-1.94l1.12.04c1.32,0,2.15-.01,2.5-.04v-2.95h1.83v2.92l1.42-.04v-2.88h1.83v2.95c1.27.12,2.24.4,2.92.82.82.5,1.27,1.25,1.35,2.24.15,1.45-.36,2.47-1.53,3.07h0c.92.2,1.6.59,2.02,1.16h0Zm-7.97-1.61h.3c1.05.03,1.86-.03,2.43-.18,1-.25,1.5-.79,1.5-1.61s-.49-1.37-1.46-1.65c-.55-.15-1.36-.21-2.43-.19-.17.03-.29.04-.34.04v3.59h0Zm.34,5.8c1.27.02,2.23-.04,2.88-.19,1.17-.3,1.76-.9,1.76-1.8s-.57-1.5-1.72-1.79c-.62-.17-1.57-.24-2.84-.19h-.41v3.96h.34Z"/>
  <path class="cls-3" d="m109.3,43.46c-.15-.7-.03-1.44.52-1.7.47-.23,1.28.24,1.58,1.06.92,2.26,1.13,4.86.41,7.34-.24.89-1.25,1.19-2.06.72-.81-.47-1.23-1.33-1-1.83.71-1.7.92-3.64.54-5.59Z"/>
  <g>
    <path class="cls-3" d="m89.72,192.98c.35.09.7.04.83-.17.13-.22-.09-.61-.48-.83-1.09-.52-2.36-.7-3.58-.48-.48.09-.66.57-.44,1.01s.61.66.92.57c.83-.31,1.79-.35,2.75-.09Z"/>
    <path class="cls-3" d="m89.2,194.94c.31.17.66.22.87.04.17-.17.09-.61-.22-.92-.92-.83-2.05-1.31-3.32-1.44-.48-.04-.79.35-.7.83.09.48.39.79.7.79.87-.04,1.84.17,2.67.7Z"/>
    <path class="cls-3" d="m87.71,196.43c.17.31.48.52.74.44.26-.09.39-.52.22-.92-.44-1.14-1.22-2.14-2.32-2.8-.39-.26-.87-.04-1.01.44-.13.44,0,.87.26,1.01.87.35,1.62,1.01,2.1,1.84Z"/>
  </g>
  <g>
    <path class="cls-3" d="m66.16,192.98c-.35.09-.7.04-.83-.17s.09-.61.48-.83c1.09-.52,2.36-.7,3.58-.44.48.09.66.57.44,1.01s-.61.66-.92.52c-.83-.31-1.79-.35-2.75-.09Z"/>
    <path class="cls-3" d="m66.68,194.94c-.31.17-.66.22-.87.04-.17-.17-.09-.61.22-.92.92-.79,2.1-1.31,3.32-1.44.48-.04.79.39.7.83-.09.48-.39.79-.7.79-.87-.04-1.84.17-2.67.7Z"/>
    <path class="cls-3" d="m68.17,196.43c-.17.31-.48.52-.74.44s-.35-.52-.22-.92c.44-1.14,1.27-2.1,2.32-2.8.39-.26.87-.04,1.01.44.13.44,0,.87-.26,1.01-.87.35-1.62,1.01-2.1,1.84Z"/>
  </g>
  <g>
    <path class="cls-1" d="m188.26,224.2v-20.4h44.44c1.98,0,3.6,1.61,3.6,3.6v16.81h-48.03Z"/>
    <path class="cls-2" d="m232.7,204.29c1.71,0,3.1,1.39,3.1,3.1v16.31h-47.03v-19.4h43.94m0-1h-44.94v21.4h49.03v-17.31c0-2.26-1.83-4.1-4.1-4.1h0Z"/>
  </g>
  <g>
    <path class="cls-1" d="m56.3,224.2v-30.07c0-1.98,1.61-3.6,3.6-3.6h44.93v33.67h-48.53Z"/>
    <path class="cls-2" d="m104.32,191.03v32.67h-47.53v-29.57c0-1.71,1.39-3.1,3.1-3.1h44.43m1-1h-45.43c-2.26,0-4.1,1.83-4.1,4.1v30.57h49.53v-34.67h0Z"/>
  </g>
  <g>
    <path class="cls-1" d="m105.99,223.7v-76.57c0-1.71,1.39-3.1,3.1-3.1h75.39c1.71,0,3.1,1.39,3.1,3.1v76.57h-81.58Z"/>
    <path class="cls-2" d="m184.47,145.03c1.16,0,2.1.94,2.1,2.1v75.57h-79.58v-75.57c0-1.16.94-2.1,2.1-2.1h75.39m0-2h-75.39c-2.26,0-4.1,1.83-4.1,4.1v77.57h83.58v-77.57c0-2.26-1.83-4.1-4.1-4.1h0Z"/>
  </g>
  <path class="cls-3" d="m153.53,159.88v23.98h-6.63v-15.71c-1.07.81-2.11,1.47-3.11,1.98-1,.5-2.26.99-3.77,1.45v-5.37c2.23-.72,3.96-1.58,5.2-2.59,1.23-1.01,2.2-2.25,2.9-3.73h5.42Z"/>
  <path class="cls-3" d="m89.14,212.69h-11.65c.13-1.15.54-2.23,1.22-3.25.68-1.01,1.95-2.21,3.81-3.59,1.14-.85,1.86-1.49,2.18-1.93.32-.44.48-.85.48-1.25,0-.43-.16-.79-.47-1.09-.31-.3-.71-.45-1.19-.45s-.9.16-1.22.47c-.31.31-.53.86-.63,1.65l-3.89-.31c.15-1.09.43-1.95.84-2.56.41-.61.98-1.08,1.72-1.41.74-.33,1.76-.49,3.07-.49s2.43.16,3.19.47c.76.31,1.36.79,1.79,1.43.44.65.65,1.37.65,2.17,0,.85-.25,1.66-.75,2.44-.5.78-1.41,1.63-2.72,2.55-.78.54-1.3.92-1.57,1.13-.26.22-.57.5-.93.85h6.06v3.16Z"/>
  <path class="cls-3" d="m211.18,209.9l-3.63-.65c.3-1.16.88-2.04,1.74-2.66.86-.62,2.07-.92,3.65-.92,1.81,0,3.11.34,3.92,1.01.81.67,1.21,1.52,1.21,2.54,0,.6-.16,1.14-.49,1.62-.33.48-.82.91-1.48,1.27.53.13.94.29,1.23.46.46.28.82.66,1.07,1.12.25.46.38,1.01.38,1.66,0,.81-.21,1.58-.63,2.32-.42.74-1.03,1.31-1.82,1.71s-1.83.6-3.12.6-2.25-.15-2.98-.44c-.73-.3-1.32-.73-1.79-1.3-.47-.57-.83-1.28-1.08-2.15l3.84-.51c.15.77.39,1.31.7,1.61.32.3.72.45,1.21.45.52,0,.95-.19,1.29-.57.34-.38.51-.88.51-1.51s-.17-1.14-.5-1.49c-.33-.35-.78-.53-1.34-.53-.3,0-.72.08-1.25.23l.2-2.75c.21.03.38.05.5.05.5,0,.92-.16,1.26-.48.34-.32.5-.7.5-1.14s-.13-.76-.38-1.01c-.25-.25-.6-.38-1.04-.38s-.82.14-1.1.41c-.28.27-.48.75-.58,1.44Z"/>
</svg>