<?xml version="1.0" encoding="UTF-8"?>
<svg id="Layer_1" data-name="Layer 1" xmlns="http://www.w3.org/2000/svg" width="300" height="225" viewBox="0 0 300 225">
  <defs>
    <style>
      .cls-1 {
        fill: #fff;
      }

      .cls-2 {
        fill: #23140a;
      }

      .cls-3 {
        isolation: isolate;
        opacity: .35;
      }

      .cls-4 {
        fill: #232323;
      }

      .cls-5 {
        fill: #444;
      }

      .cls-6 {
        fill: #7f7f7f;
      }

      .cls-7 {
        fill: #1e1e1e;
      }
    </style>
  </defs>
  <g>
    <g>
      <path class="cls-1" d="m66.92,85.73c.57,3.47,1.12,6.95,1.71,10.42.3,1.74-.04,3.35-.91,4.85-.73,1.26-1.83,2.14-3.05,2.88-1.35.82-2.87,1.26-4.34,1.81-2.3.86-4.71,1.27-7.11,1.68-3.05.52-6.12.89-9.22.81-1.95-.05-3.87-.26-5.7-1.02-2.3-.95-3.75-2.7-4.61-4.98-.12-.32-.18-.66-.23-1-1.1-6.68-2.18-13.37-3.29-20.04-.26-1.55-.01-2.99.65-4.39.91-1.92,2.46-3.19,4.27-4.18,1.32-.72,2.75-1.18,4.17-1.64.82-.27,1.64-.54,2.47-.77.88-.24,1.77-.44,2.65-.65.63-.16,5.26-.76,6.25-.85,2.47-.23,4.94-.21,7.4.09,1.44.18,2.8.62,4.03,1.41.94.61,1.63,1.45,2.21,2.4.5.82.8,1.71.96,2.66.57,3.5,1.14,7,1.72,10.51,0,0,0,0,0,0Zm-24.15,8.43c-.22-1.3-1.46-2.19-2.76-1.97-1.3.22-2.19,1.45-1.98,2.76.22,1.32,1.46,2.2,2.78,1.98,1.3-.22,2.18-1.46,1.96-2.77Zm16.88-5.18c-1.31.21-2.2,1.45-1.99,2.75.21,1.31,1.44,2.2,2.75,1.99,1.32-.21,2.22-1.45,2-2.77-.22-1.3-1.45-2.19-2.76-1.98Zm-25.97-12.38c.09.04.15.07.21.08.56.11,1.11.25,1.67.32,3.03.37,6.06.17,9.08-.18,2.44-.28,4.85-.72,7.23-1.3,2.06-.5,4.08-1.1,6.03-1.94.97-.42,1.91-.88,2.74-1.54.22-.18.42-.39.63-.59-.07-.04-.09-.04-.12-.02-2.87,1.62-5.97,2.63-9.15,3.45-2.65.68-5.33,1.17-8.04,1.49-2.56.3-5.14.47-7.72.38-.84-.03-1.69-.09-2.57-.14Zm15.16,23.03c.21.93.76,1.58,1.68,1.86.96.29,1.8.04,2.5-.67.46-.46.83-1.42.59-2.11-.5,2.04-3.51,2.6-4.78.92Z"/>
      <path class="cls-2" d="m44.8,108.69c-.28,0-.55,0-.82,0-1.65-.04-3.8-.2-5.88-1.05-2.31-.96-3.91-2.68-4.89-5.27-.14-.38-.21-.78-.26-1.1l-1.11-6.78c-.72-4.42-1.45-8.84-2.18-13.26-.27-1.6-.04-3.14.69-4.69.85-1.8,2.28-3.2,4.49-4.4,1.35-.74,2.82-1.21,4.23-1.67l.3-.1c.74-.24,1.48-.48,2.23-.69.59-.16,1.19-.31,1.79-.45l.87-.21c.7-.17,5.37-.78,6.32-.86,2.58-.24,5.11-.2,7.5.1,1.59.2,3.02.7,4.24,1.49.9.58,1.67,1.42,2.36,2.57.51.85.85,1.8,1.02,2.84l1.8,11h0s.42,2.61.42,2.61c.4,2.44.79,4.88,1.21,7.31.31,1.8-.02,3.55-.97,5.19-.88,1.52-2.26,2.47-3.22,3.05-1.11.67-2.31,1.1-3.48,1.51-.32.11-.63.22-.95.34-2.34.87-4.79,1.29-7.16,1.7-3.31.57-6.04.84-8.54.84Zm-13.16-32.43c-.14.23-.26.46-.38.7-.64,1.36-.84,2.7-.61,4.09.74,4.42,1.46,8.84,2.18,13.27l1.11,6.78c.05.29.1.62.21.91.87,2.31,2.29,3.85,4.33,4.7,1.92.8,3.96.94,5.52.98,2.69.07,5.5-.18,9.13-.81,2.36-.41,4.77-.82,7.02-1.65.32-.12.64-.23.96-.35,1.17-.41,2.27-.8,3.29-1.42,1.4-.85,2.29-1.68,2.88-2.7.85-1.46,1.12-2.94.85-4.52-.42-2.44-.81-4.88-1.21-7.32l-.59-3.59h0s-1.64-10.02-1.64-10.02c-.15-.92-.44-1.74-.89-2.48-.62-1.02-1.27-1.74-2.05-2.24-1.09-.7-2.37-1.15-3.82-1.33-2.33-.29-4.78-.32-7.29-.09-1.01.09-5.59.7-6.17.84l-.88.21c-.59.14-1.18.28-1.76.44-.73.2-1.46.44-2.18.68l-.27.09c-1.4.45-2.82.92-4.09,1.61-1.6.87-2.74,1.84-3.52,3.01l2.75.13c.58.04,1.15.07,1.72.09,2.32.08,4.82-.04,7.64-.37,2.74-.32,5.42-.82,7.98-1.48,2.57-.66,5.93-1.65,9.03-3.4.13-.07.34-.13.61.02l.58.34-.68.64c-.15.15-.31.3-.48.44-.91.73-1.96,1.22-2.86,1.61-1.74.75-3.68,1.38-6.11,1.97-2.42.59-4.88,1.03-7.29,1.31-2.71.31-5.92.57-9.2.18-.41-.05-.82-.14-1.23-.22l-.48-.1c-.09-.02-.16-.05-.23-.08l-1.93-.83Zm19.64,25.83c-.29,0-.59-.05-.9-.14-1.07-.32-1.77-1.09-2.03-2.22l-.52-2.28,1.41,1.86c.57.76,1.52.88,2.22.74.67-.14,1.46-.6,1.67-1.48l.4-1.61.56,1.56c.32.89-.11,2.04-.71,2.63s-1.33.93-2.1.93Zm.63-1.12c-.08.02-.17.04-.26.06-.12.02-.24.04-.36.06.22,0,.42-.04.62-.12Zm-11.51-3.51c-.6,0-1.18-.19-1.68-.54-.63-.45-1.05-1.12-1.18-1.89-.26-1.58.81-3.07,2.39-3.33,1.58-.26,3.07.81,3.34,2.38h0c.27,1.58-.8,3.08-2.37,3.35-.17.03-.33.04-.5.04Zm0-4.81c-.1,0-.21,0-.31.03-1.03.17-1.73,1.15-1.56,2.18.08.5.36.94.77,1.24.42.3.92.41,1.43.33,1.03-.18,1.73-1.16,1.55-2.19h0c-.16-.93-.96-1.58-1.88-1.58Zm19.63,1.59c-1.4,0-2.63-1.02-2.86-2.44-.25-1.58.82-3.07,2.4-3.32h0c1.58-.26,3.07.82,3.33,2.39.13.77-.05,1.54-.51,2.17-.46.63-1.13,1.05-1.9,1.17-.15.02-.3.04-.45.04Zm-.3-4.78c-1.03.17-1.74,1.15-1.57,2.18.17,1.04,1.14,1.74,2.17,1.58.51-.08.95-.35,1.25-.77.3-.41.42-.92.33-1.42-.17-1.03-1.15-1.74-2.18-1.57h0Z"/>
    </g>
    <path class="cls-7" d="m42.77,94.16c.22,1.31-.66,2.55-1.96,2.77-1.32.22-2.56-.66-2.78-1.98-.21-1.31.67-2.54,1.98-2.76,1.31-.22,2.54.67,2.76,1.97Zm-2.89-.35c-.06-.34-.4-.58-.74-.52-.34.06-.58.39-.52.73.06.35.4.6.76.53.34-.07.57-.4.51-.75Z"/>
    <path class="cls-7" d="m59.65,88.98c1.31-.21,2.54.67,2.76,1.98.22,1.32-.68,2.56-2,2.77-1.3.21-2.54-.69-2.75-1.99-.21-1.31.68-2.54,1.99-2.75Zm-.87,1.11c-.34.06-.58.39-.53.73.05.34.38.59.72.54.36-.05.6-.39.54-.75-.06-.34-.39-.58-.74-.52Z"/>
    <path class="cls-7" d="m33.68,76.6c.88.05,1.72.11,2.57.14,2.58.09,5.16-.08,7.72-.38,2.71-.32,5.4-.81,8.04-1.49,3.17-.82,6.27-1.83,9.15-3.45.02-.01.05-.02.12.02-.21.2-.41.41-.63.59-.83.66-1.77,1.13-2.74,1.54-1.95.84-3.97,1.44-6.03,1.94-2.38.58-4.79,1.02-7.23,1.3-3.02.35-6.05.54-9.08.18-.56-.07-1.12-.21-1.67-.32-.06-.01-.12-.04-.21-.08Z"/>
    <path class="cls-7" d="m48.84,99.63c1.27,1.68,4.27,1.12,4.78-.92.25.69-.13,1.65-.59,2.11-.71.71-1.55.95-2.5.67-.92-.28-1.47-.93-1.68-1.86Z"/>
    <path class="cls-1" d="m39.89,93.82c.06.34-.17.68-.51.75-.35.07-.7-.17-.76-.53-.06-.34.18-.68.52-.73.34-.06.68.17.74.52Z"/>
    <path class="cls-1" d="m58.78,90.09c.34-.06.68.18.74.52.06.35-.19.7-.54.75-.35.05-.67-.19-.72-.54-.05-.34.19-.67.53-.73Z"/>
  </g>
  <g>
    <g>
      <path class="cls-1" d="m223.9,85.73c.57,3.47,1.12,6.95,1.71,10.42.3,1.74-.04,3.35-.91,4.85-.73,1.26-1.83,2.14-3.05,2.88-1.35.82-2.87,1.26-4.34,1.81-2.3.86-4.71,1.27-7.11,1.68-3.05.52-6.12.89-9.22.81-1.95-.05-3.87-.26-5.7-1.02-2.3-.95-3.75-2.7-4.61-4.98-.12-.32-.18-.66-.23-1-1.1-6.68-2.18-13.37-3.29-20.04-.26-1.55-.01-2.99.65-4.39.91-1.92,2.46-3.19,4.27-4.18,1.32-.72,2.75-1.18,4.17-1.64.82-.27,1.64-.54,2.47-.77.88-.24,1.77-.44,2.65-.65.63-.16,5.26-.76,6.25-.85,2.47-.23,4.94-.21,7.4.09,1.44.18,2.8.62,4.03,1.41.94.61,1.63,1.45,2.21,2.4.5.82.8,1.71.96,2.66.57,3.5,1.14,7,1.72,10.51,0,0,0,0,0,0Zm-24.15,8.43c-.22-1.3-1.46-2.19-2.76-1.97-1.3.22-2.19,1.45-1.98,2.76.22,1.32,1.46,2.2,2.78,1.98,1.3-.22,2.18-1.46,1.96-2.77Zm16.88-5.18c-1.31.21-2.2,1.45-1.99,2.75.21,1.31,1.44,2.2,2.75,1.99,1.32-.21,2.22-1.45,2-2.77-.22-1.3-1.45-2.19-2.76-1.98Zm-25.97-12.38c.09.04.15.07.21.08.56.11,1.11.25,1.67.32,3.03.37,6.06.17,9.08-.18,2.44-.28,4.85-.72,7.23-1.3,2.06-.5,4.08-1.1,6.03-1.94.97-.42,1.91-.88,2.74-1.54.22-.18.42-.39.63-.59-.07-.04-.09-.04-.12-.02-2.87,1.62-5.97,2.63-9.15,3.45-2.65.68-5.33,1.17-8.04,1.49-2.56.3-5.14.47-7.72.38-.84-.03-1.69-.09-2.57-.14Zm15.16,23.03c.21.93.76,1.58,1.68,1.86.96.29,1.8.04,2.5-.67.46-.46.83-1.42.59-2.11-.5,2.04-3.51,2.6-4.78.92Z"/>
      <path class="cls-2" d="m201.78,108.69c-.28,0-.55,0-.82,0-1.65-.04-3.8-.2-5.88-1.05-2.31-.96-3.91-2.68-4.89-5.27-.14-.37-.2-.76-.26-1.1l-1.12-6.85c-.72-4.4-1.44-8.79-2.17-13.19-.27-1.6-.04-3.14.69-4.68.85-1.8,2.28-3.2,4.49-4.41,1.35-.74,2.81-1.21,4.23-1.67l.29-.09c.74-.24,1.49-.48,2.24-.69.6-.16,1.2-.31,1.8-.45l.87-.21c.7-.17,5.37-.78,6.32-.86,2.58-.24,5.11-.2,7.5.1,1.59.2,3.02.7,4.24,1.49.9.58,1.67,1.42,2.36,2.57.51.85.85,1.8,1.02,2.84l1.8,11h0s.41,2.53.41,2.53c.4,2.47.8,4.93,1.22,7.4.31,1.8-.02,3.55-.97,5.19-.88,1.52-2.26,2.47-3.22,3.05-1.11.67-2.31,1.1-3.48,1.51-.32.11-.64.23-.95.34-2.34.87-4.79,1.29-7.16,1.7-3.31.57-6.05.84-8.54.84Zm-13.16-32.43c-.14.23-.26.46-.38.7-.64,1.36-.84,2.7-.61,4.09.73,4.4,1.45,8.79,2.17,13.19l1.12,6.85c.05.31.1.63.21.91.87,2.31,2.29,3.85,4.33,4.7,1.92.8,3.96.94,5.52.98,2.69.07,5.5-.18,9.13-.81,2.36-.41,4.77-.82,7.02-1.65.32-.12.64-.23.97-.35,1.17-.41,2.27-.8,3.29-1.42,1.4-.85,2.29-1.68,2.88-2.7.84-1.46,1.12-2.94.85-4.52-.42-2.47-.82-4.94-1.22-7.41l-.57-3.51h0s-1.64-10.02-1.64-10.02c-.15-.92-.44-1.74-.89-2.48-.62-1.02-1.27-1.74-2.05-2.24-1.09-.7-2.37-1.15-3.82-1.33-2.33-.29-4.78-.32-7.29-.09-1.01.09-5.59.7-6.17.84l-.88.21c-.59.14-1.18.28-1.76.44-.74.2-1.47.44-2.2.68l-.26.08c-1.4.46-2.82.92-4.09,1.61-1.6.87-2.74,1.84-3.52,3.01l2.75.13c.58.04,1.15.07,1.72.09,2.32.08,4.82-.04,7.64-.37,2.74-.32,5.42-.82,7.98-1.48,2.57-.66,5.93-1.65,9.03-3.4.13-.07.34-.13.61.02l.58.34-.68.64c-.15.15-.31.3-.48.44-.91.73-1.95,1.22-2.86,1.61-1.74.75-3.68,1.38-6.11,1.97-2.42.59-4.88,1.03-7.29,1.31-2.71.31-5.92.57-9.2.18-.41-.05-.82-.14-1.23-.22l-.48-.1c-.09-.02-.17-.05-.23-.08l-1.93-.83Zm19.64,25.83c-.29,0-.59-.04-.9-.14-1.07-.32-1.77-1.09-2.03-2.22l-.52-2.28,1.41,1.86c.57.76,1.52.88,2.22.74.67-.14,1.46-.6,1.67-1.48l.4-1.61.56,1.56c.32.89-.11,2.04-.7,2.63-.62.62-1.33.93-2.1.93Zm.63-1.12c-.08.02-.17.04-.26.06-.12.02-.24.04-.36.06.21,0,.42-.04.62-.12Zm-11.51-3.51c-.6,0-1.18-.19-1.68-.54-.63-.45-1.05-1.12-1.18-1.89-.26-1.58.81-3.07,2.39-3.33,1.58-.27,3.07.81,3.34,2.38h0c.27,1.58-.8,3.08-2.37,3.35-.17.03-.33.04-.5.04Zm0-4.81c-.1,0-.21,0-.31.03-1.03.17-1.73,1.15-1.56,2.18.08.5.36.94.77,1.24.42.3.92.42,1.43.33,1.03-.18,1.73-1.16,1.55-2.19h0c-.16-.93-.96-1.58-1.88-1.58Zm19.63,1.59c-1.4,0-2.63-1.02-2.86-2.44-.25-1.58.82-3.07,2.4-3.32h0c1.58-.26,3.07.82,3.33,2.39.13.77-.05,1.54-.51,2.17s-1.13,1.05-1.9,1.17c-.15.02-.3.04-.45.04Zm-.3-4.78c-1.03.17-1.74,1.15-1.57,2.18.17,1.03,1.14,1.74,2.17,1.58.51-.08.95-.35,1.25-.77.3-.41.42-.92.33-1.42-.17-1.03-1.15-1.74-2.18-1.57h0Z"/>
    </g>
    <path class="cls-7" d="m199.75,94.16c.22,1.31-.66,2.55-1.96,2.77-1.32.22-2.56-.66-2.78-1.98-.21-1.31.67-2.54,1.98-2.76,1.31-.22,2.54.67,2.76,1.97Zm-2.89-.35c-.06-.34-.4-.58-.74-.52-.34.06-.58.39-.52.73.06.35.4.6.76.53.34-.07.57-.4.51-.75Z"/>
    <path class="cls-7" d="m216.63,88.98c1.31-.21,2.54.67,2.76,1.98.22,1.32-.68,2.56-2,2.77-1.3.21-2.54-.69-2.75-1.99-.21-1.31.68-2.54,1.99-2.75Zm-.87,1.11c-.34.06-.58.39-.53.73.05.34.38.59.72.54.36-.05.6-.39.54-.75-.06-.34-.39-.58-.74-.52Z"/>
    <path class="cls-7" d="m190.66,76.6c.88.05,1.72.11,2.57.14,2.58.09,5.16-.08,7.72-.38,2.71-.32,5.4-.81,8.04-1.49,3.17-.82,6.27-1.83,9.15-3.45.02-.01.05-.02.12.02-.21.2-.41.41-.63.59-.83.66-1.77,1.13-2.74,1.54-1.95.84-3.97,1.44-6.03,1.94-2.38.58-4.79,1.02-7.23,1.3-3.02.35-6.05.54-9.08.18-.56-.07-1.12-.21-1.67-.32-.06-.01-.12-.04-.21-.08Z"/>
    <path class="cls-7" d="m205.82,99.63c1.27,1.68,4.27,1.12,4.78-.92.25.69-.13,1.65-.59,2.11-.71.71-1.55.95-2.5.67-.92-.28-1.47-.93-1.68-1.86Z"/>
    <path class="cls-1" d="m196.86,93.82c.06.34-.17.68-.51.75-.35.07-.7-.17-.76-.53-.06-.34.18-.68.52-.73.34-.06.68.17.74.52Z"/>
    <path class="cls-1" d="m215.76,90.09c.34-.06.68.18.74.52.06.35-.19.7-.54.75-.35.05-.67-.19-.72-.54-.05-.34.19-.67.53-.73Z"/>
  </g>
  <g>
    <g>
      <path class="cls-1" d="m267.11,94.95c-1.29,3.27-2.6,6.54-3.87,9.83-.64,1.65-1.75,2.85-3.27,3.7-1.27.71-2.67.9-4.09.91-1.58.01-3.11-.39-4.66-.67-2.42-.45-4.69-1.33-6.97-2.2-2.89-1.11-5.71-2.37-8.34-4.03-1.65-1.04-3.19-2.21-4.37-3.8-1.49-2-1.84-4.24-1.41-6.64.06-.33.19-.66.31-.98,2.48-6.3,4.98-12.59,7.45-18.9.57-1.46,1.52-2.57,2.81-3.44,1.77-1.18,3.75-1.48,5.81-1.4,1.5.06,2.97.4,4.43.73.84.19,1.69.38,2.52.61.88.24,1.74.53,2.61.8.62.19,4.9,2.04,5.8,2.47,2.24,1.07,4.35,2.35,6.3,3.87,1.14.89,2.09,1.96,2.73,3.27.5,1,.66,2.08.66,3.19,0,.96-.19,1.88-.54,2.77-1.31,3.3-2.61,6.6-3.91,9.9,0,0,0,0,0,0Zm-25.06-5.14c.48-1.23-.13-2.62-1.36-3.11-1.23-.48-2.62.12-3.11,1.35-.49,1.24.13,2.64,1.37,3.12,1.23.48,2.62-.14,3.1-1.37Zm17.15,4.2c-1.23-.49-2.63.12-3.12,1.34-.49,1.23.11,2.63,1.34,3.12,1.24.5,2.65-.11,3.13-1.35.48-1.23-.12-2.62-1.35-3.11Zm-15.95-23.94c.06.08.09.14.14.18.42.38.83.78,1.27,1.13,2.42,1.87,5.12,3.25,7.89,4.5,2.23,1.01,4.53,1.87,6.87,2.59,2.02.62,4.07,1.14,6.17,1.42,1.05.14,2.09.22,3.15.08.28-.04.56-.12.84-.18-.04-.07-.06-.08-.09-.08-3.3-.08-6.48-.8-9.62-1.73-2.62-.77-5.18-1.73-7.67-2.84-2.36-1.06-4.65-2.23-6.82-3.63-.71-.46-1.4-.94-2.13-1.44Zm1.21,27.54c-.29.91-.16,1.75.5,2.46.68.74,1.52.95,2.49.71.63-.16,1.45-.79,1.59-1.51-1.48,1.49-4.34.43-4.57-1.66Z"/>
      <path class="cls-2" d="m255.8,109.88c-1.27,0-2.5-.25-3.69-.49-.33-.07-.66-.13-1-.19-2.46-.45-4.78-1.35-7.03-2.22-3.52-1.36-6.12-2.61-8.44-4.08-1.39-.88-3.17-2.12-4.51-3.92-1.5-2.01-1.98-4.31-1.5-7.03.07-.39.21-.75.34-1.07l2.52-6.39c1.65-4.17,3.29-8.33,4.93-12.51.59-1.51,1.57-2.71,3-3.67,1.66-1.11,3.59-1.58,6.11-1.48,1.53.06,3.02.4,4.46.73l.35.08c.75.17,1.5.34,2.25.55.59.16,1.18.35,1.76.53l.86.27c.68.21,5.01,2.08,5.87,2.5,2.34,1.12,4.49,2.44,6.39,3.93,1.27.99,2.23,2.15,2.88,3.45.47.96.71,2.08.71,3.41,0,.99-.19,1.98-.58,2.96l-4.08,10.34h0s-.96,2.42-.96,2.42c-.92,2.32-1.84,4.63-2.74,6.96-.66,1.7-1.83,3.03-3.5,3.96-1.53.85-3.21.96-4.33.97h-.07Zm-14.14-41.14c-.23.12-.46.26-.68.41-1.25.84-2.11,1.89-2.62,3.2-1.63,4.17-3.28,8.34-4.93,12.51l-2.52,6.39c-.12.29-.23.59-.29.89-.44,2.43,0,4.48,1.31,6.25,1.24,1.67,2.92,2.84,4.24,3.67,2.27,1.43,4.81,2.66,8.25,3.99,2.23.86,4.51,1.74,6.88,2.18.34.06.67.13,1.01.2,1.19.24,2.32.47,3.49.47h.06c1.64-.01,2.83-.27,3.86-.84,1.47-.82,2.47-1.94,3.05-3.44.9-2.33,1.82-4.65,2.74-6.97l1.33-3.37h0s3.71-9.39,3.71-9.39c.34-.87.51-1.72.51-2.59,0-1.2-.2-2.14-.61-2.97-.57-1.16-1.45-2.21-2.59-3.1-1.85-1.44-3.94-2.73-6.21-3.82-.91-.44-5.16-2.27-5.73-2.44l-.87-.27c-.57-.18-1.15-.36-1.73-.52-.73-.2-1.47-.37-2.2-.54l-.29-.07c-1.45-.33-2.9-.66-4.34-.72-1.82-.07-3.3.18-4.57.78l2.28,1.52c.48.33.96.65,1.44.97,1.95,1.26,4.16,2.44,6.76,3.6,2.52,1.13,5.08,2.08,7.61,2.82,2.55.75,5.93,1.62,9.49,1.71.15,0,.36.06.51.34l.33.59-.91.2c-.21.05-.42.1-.63.13-1.15.16-2.3.05-3.28-.08-1.88-.25-3.86-.7-6.25-1.44-2.39-.73-4.72-1.61-6.93-2.61-2.49-1.12-5.38-2.54-7.99-4.56-.33-.25-.63-.54-.94-.82l-.37-.33c-.07-.06-.12-.13-.16-.18l-1.23-1.7Zm27.82,11.48h0,0Zm-22.76,21.16c-.82,0-1.54-.33-2.13-.97-.75-.82-.96-1.84-.6-2.95l.72-2.22.25,2.32c.1.95.86,1.54,1.53,1.77.64.22,1.56.23,2.19-.41l1.16-1.17-.32,1.62c-.18.93-1.14,1.69-1.95,1.9-.29.07-.58.11-.85.11Zm-.91-1.24c.19.11.38.18.59.22-.08-.02-.17-.05-.25-.08-.12-.04-.23-.09-.34-.14Zm12.51-.98c-.37,0-.73-.07-1.08-.21-1.48-.59-2.21-2.28-1.61-3.77.59-1.48,2.28-2.21,3.76-1.62h0c1.48.59,2.22,2.27,1.63,3.76-.28.73-.84,1.3-1.55,1.6-.37.16-.76.24-1.15.24Zm0-4.81c-.76,0-1.47.45-1.77,1.2-.39.97.09,2.08,1.06,2.47.47.19.99.18,1.46-.02.47-.2.83-.58,1.02-1.05.38-.97-.1-2.08-1.07-2.46h0c-.23-.09-.46-.13-.7-.13Zm-18.51-2.5c-.35,0-.7-.06-1.04-.19-.73-.28-1.3-.83-1.62-1.55-.31-.71-.33-1.5-.04-2.23.59-1.49,2.27-2.22,3.76-1.64,1.49.58,2.23,2.27,1.65,3.75h0c-.45,1.15-1.55,1.85-2.71,1.85Zm0-4.81c-.76,0-1.48.46-1.77,1.2-.19.47-.18.99.03,1.46.21.47.58.83,1.06,1.01.97.38,2.08-.11,2.46-1.09h0c.38-.97-.11-2.08-1.08-2.46-.23-.09-.46-.13-.69-.13Z"/>
    </g>
    <path class="cls-7" d="m242.05,89.81c-.48,1.23-1.87,1.85-3.1,1.37-1.25-.48-1.86-1.88-1.37-3.12.49-1.23,1.88-1.84,3.11-1.35,1.23.48,1.84,1.88,1.36,3.11Zm-2.3-1.78c.12-.33-.05-.7-.37-.82-.32-.13-.7.04-.83.36-.13.33.04.72.38.84.33.12.7-.05.82-.38Z"/>
    <path class="cls-7" d="m259.19,94.01c1.23.49,1.84,1.88,1.35,3.11-.49,1.24-1.89,1.85-3.13,1.35-1.23-.49-1.83-1.89-1.34-3.12.49-1.23,1.88-1.83,3.12-1.34Zm-1.31.5c-.32-.13-.7.03-.83.35-.13.32.02.7.35.83.33.14.72-.03.85-.36.12-.33-.04-.7-.36-.83Z"/>
    <path class="cls-7" d="m243.24,70.07c.73.49,1.42.98,2.13,1.44,2.17,1.4,4.47,2.58,6.82,3.63,2.49,1.12,5.05,2.07,7.67,2.84,3.14.92,6.33,1.65,9.62,1.73.03,0,.05.01.09.08-.28.06-.56.14-.84.18-1.05.14-2.1.06-3.15-.08-2.1-.28-4.15-.8-6.17-1.42-2.34-.72-4.64-1.58-6.87-2.59-2.77-1.25-5.47-2.63-7.89-4.5-.45-.35-.85-.75-1.27-1.13-.05-.04-.08-.1-.14-.18Z"/>
    <path class="cls-7" d="m244.45,97.61c.23,2.09,3.09,3.15,4.57,1.66-.14.72-.95,1.35-1.59,1.51-.97.24-1.82.03-2.49-.71-.65-.71-.79-1.55-.5-2.46Z"/>
    <path class="cls-1" d="m239.74,88.03c-.12.33-.49.5-.82.38-.34-.12-.51-.51-.38-.84.13-.32.5-.49.83-.36.32.13.49.5.37.82Z"/>
    <path class="cls-1" d="m257.88,94.51c.32.13.49.5.36.83-.13.34-.52.5-.85.36-.32-.14-.48-.51-.35-.83.13-.32.51-.48.83-.35Z"/>
  </g>
  <g>
    <g>
      <g>
        <g>
          <path class="cls-4" d="m130.83,156.09c-.18,1.46-4.94,42.74-11.96,48.54-7.02,5.79-10.71,3.86-12.15,2.32-1.5-1.61-3.39-4.5.1-7.77,2.81-2.63,4.77-14.26,1.92-32.4l22.08-10.69Z"/>
          <g>
            <path class="cls-4" d="m101.75,202.46c-.88.25-1.85.1-2.18-.49-.33-.59.19-1.62,1.25-2.13,2.87-1.37,6.15-1.82,9.38-1.2,1.2.23,1.69,1.49,1.14,2.61-.55,1.12-1.56,1.71-2.34,1.43-2.23-.83-4.78-.95-7.25-.22Z"/>
            <path class="cls-4" d="m103.14,207.59c-.78.49-1.75.62-2.23.13-.48-.48-.26-1.62.61-2.39,2.37-2.11,5.4-3.45,8.68-3.75,1.22-.1,2.04.96,1.82,2.19-.21,1.23-1.02,2.08-1.85,2.02-2.37-.17-4.85.41-7.03,1.8Z"/>
            <path class="cls-4" d="m106.94,211.47c-.47.79-1.27,1.34-1.92,1.14-.65-.21-.97-1.32-.54-2.41,1.15-2.96,3.24-5.53,6.02-7.29,1.03-.66,2.25-.08,2.62,1.12.37,1.2.04,2.32-.73,2.64-2.19.93-4.13,2.58-5.44,4.8Z"/>
          </g>
        </g>
        <g>
          <path class="cls-4" d="m135.12,155.71c.19,1.46,5.1,42.72,12.14,48.49,7.04,5.77,10.73,3.82,12.16,2.28,1.49-1.61,3.38-4.51-.13-7.77-2.82-2.62-4.82-14.24-2.04-32.39l-22.12-10.6Z"/>
          <g>
            <path class="cls-4" d="m163.15,202.45c.88.25,1.85.1,2.18-.5.33-.6-.2-1.62-1.26-2.12-2.87-1.36-6.16-1.8-9.38-1.16-1.2.24-1.69,1.5-1.14,2.61.55,1.12,1.57,1.71,2.34,1.42,2.23-.83,4.78-.97,7.25-.25Z"/>
            <path class="cls-4" d="m161.78,207.58c.78.49,1.75.61,2.24.13.48-.48.26-1.62-.62-2.39-2.38-2.1-5.42-3.43-8.69-3.72-1.22-.1-2.04.97-1.81,2.2.22,1.23,1.03,2.07,1.86,2.01,2.37-.19,4.85.4,7.03,1.77Z"/>
            <path class="cls-4" d="m158,211.47c.47.78,1.28,1.34,1.93,1.13.65-.21.97-1.32.54-2.41-1.16-2.95-3.26-5.52-6.05-7.27-1.04-.65-2.25-.07-2.61,1.13-.37,1.2-.03,2.31.74,2.64,2.19.93,4.14,2.57,5.46,4.79Z"/>
          </g>
        </g>
      </g>
      <path class="cls-5" d="m95.46,134.24c1.52-14.23,7.43-31.6,18.67-37.88,4.82-2.69,10.43-4.63,18.16-5.94,1.84.3,3.55.64,5.16,1.02.28.06.55.13.83.2.48.12.95.24,1.41.37.29.08.58.16.87.24.46.13.92.27,1.37.42.23.07.47.14.7.22.64.21,1.27.43,1.88.66.18.07.35.14.53.21.46.18.92.36,1.36.55.21.09.41.18.62.27.42.19.84.38,1.25.58.17.08.35.17.52.25.57.29,1.13.57,1.68.88,12.07,6.67,18.06,26.09,19.08,40.77.09,2.14.13,4.18.13,6.11,0,4.97-.32,9.1-.9,11.59-.03.12-.08.23-.11.34-3,13.66-18.09,24.07-36.29,24.11-20.38.04-36.92-12.95-36.95-29,0-.15,0-.29.01-.44-.32-4.14-.33-9.61,0-15.53Z"/>
      <path class="cls-1" d="m105.11,94.42c4.66-5.32,10.71-7.94,22.64-8.46.19-.01.38-.02.57-.02.6-.02,1.21-.04,1.84-.06.63-.01,1.26-.02,1.91-.03.08,0,.14,0,.22,0h.13s.09,0,.13,0c.69,0,1.36,0,2.02.02.75.01,1.47.03,2.19.06.07,0,.14,0,.21,0,11.94.48,18,3.07,22.68,8.38,6.19,7.02,9.34,27.11,10,42.75-1.02-14.69-7.02-34.1-19.08-40.77-4.83-2.67-10.45-4.6-18.18-5.87-7.73,1.31-13.34,3.25-18.16,5.94-12.04,6.72-17.96,26.15-18.93,40.84.59-15.64,3.67-35.75,9.83-42.79Z"/>
      <path class="cls-4" d="m175.3,123.4c1.81,2.68,5.24,3.75,8.21,1.82,2.96-1.92,3.95-7.15,1.45-10.9-7.11-10.69-18.45-16.67-31.29-16.5-4.51.06-8.27,3.83-8.18,7.35.09,3.54,2.9,5.77,6.14,5.75,9.71-.13,18.29,4.39,23.68,12.48Z"/>
      <path class="cls-4" d="m109.38,100.15c2.05-2.5,5.56-3.24,8.34-1.04,2.77,2.18,3.27,7.48.42,10.99-8.08,9.98-19.93,14.88-32.69,13.51-4.49-.48-7.88-4.59-7.46-8.08.42-3.52,3.43-5.47,6.65-5.15,9.66,1.03,18.62-2.67,24.73-10.23Z"/>
      <path class="cls-4" d="m73.92,118.63c-.92-.16-1.89.1-2.15.74-.26.63.38,1.62,1.5,2.01,3.04,1.07,6.41,1.15,9.61.17,1.19-.37,1.55-1.69.87-2.76-.68-1.08-1.77-1.56-2.52-1.18-2.16,1.07-4.72,1.48-7.3,1.02Z"/>
      <path class="cls-4" d="m74.75,113.29c-.84-.41-1.83-.43-2.27.11-.44.54-.09,1.66.88,2.35,2.63,1.87,5.84,2.88,9.18,2.82,1.24-.02,1.95-1.2,1.6-2.41-.36-1.22-1.26-1.98-2.1-1.83-2.38.44-4.95.12-7.3-1.03Z"/>
      <path class="cls-4" d="m75.22,110.51c-.92-.15-1.74-.72-1.78-1.41-.04-.69.89-1.4,2.08-1.4,3.23,0,6.43,1.04,9.12,3.04,1,.74.89,2.11-.1,2.89-1,.79-2.18.88-2.77.28-1.68-1.73-3.96-2.97-6.55-3.39Z"/>
      <g class="cls-3">
        <ellipse class="cls-4" cx="133.94" cy="205.89" rx="49.71" ry="8.02"/>
      </g>
    </g>
    <g>
      <path class="cls-1" d="m104.06,58.37c2.69-13.39,14.37-17.22,36.65-9.9,7.07,2.32,16.67-3.26,22.24-2.77,16.04,1.42,15.75,12.12,15.75,12.12h.03c-.66-18.95-17.08-36.41-40.03-40.92-26.05-5.12-50.65,8.35-54.92,30.11-4.28,21.76,13.37,43.55,39.42,48.68,2.27.45,4.53.74,6.77.91v-.02c-23.26-2.92-29.47-20.43-25.89-38.2Z"/>
      <path class="cls-5" d="m178.73,57.84h-.03s.3-10.71-15.75-12.13c-5.58-.49-15.17,5.09-22.24,2.77-15.98-5.25-26.51-4.76-32.18.88-.44-.53-.96-.87-1.54-.97-2.98-.55-6.54,5.18-7.94,12.8-1.4,7.61-.11,14.23,2.87,14.79.67.12,1.37-.09,2.07-.55,2.48,10.72,10.4,19.19,25.96,21.15v.02c23.42,1.79,44.25-11.16,48.16-31.02.51-2.59.7-5.18.61-7.74Z"/>
      <path class="cls-6" d="m141.62,91.69c-5.04-.79-13.95-7.02-10.03-17.02,3.91-10,16.02-8.94,19.99-8.32,3.97.62,15.47,3.27,11.55,13.26-3.92,10-16.48,12.86-21.52,12.07Z"/>
      <path class="cls-4" d="m150.8,69.02c2.19.34,4.55,3.08,3.92,5.74-.64,2.66-6.93,1.58-6.93,1.58l-.18-.03s-6.37-.9-4.97-3.44c1.4-2.54,5.51-4.26,7.7-3.92l.47.07Z"/>
      <circle class="cls-4" cx="131.79" cy="59.54" r="1.97"/>
      <circle class="cls-4" cx="164.04" cy="60.73" r="1.97"/>
      <path class="cls-4" d="m108.2,54.05c-2.47-.43-5.44,3.75-7.59,10.09.09-.84.21-1.7.38-2.59,1.13-5.98,3.63-10.54,5.58-10.2.83.14,1.42,1.16,1.75,2.74-.04,0-.07-.03-.11-.04Z"/>
      <path class="cls-6" d="m125.72,59.14c-.07,0-.13,0-.2-.03-.36-.11-.57-.49-.46-.86.22-.75.58-1.44,1.07-2.05.49-.61,1.08-1.11,1.77-1.49.7-.39,1.46-.64,2.28-.73.81-.09,1.61-.02,2.39.21.36.11.57.49.46.86-.11.36-.49.57-.86.46-.59-.18-1.21-.23-1.84-.16-.63.07-1.22.26-1.76.56-.53.29-.99.68-1.36,1.15-.38.47-.66,1-.83,1.58-.09.3-.36.49-.66.49Z"/>
      <path class="cls-6" d="m169.72,60.79c-.34,0-.64-.25-.68-.6-.08-.62-.29-1.21-.6-1.75-.33-.55-.74-1.01-1.23-1.37-.49-.36-1.03-.62-1.61-.77-.57-.15-1.19-.18-1.78-.11-.38.05-.72-.22-.77-.59-.05-.38.22-.72.59-.77.76-.1,1.56-.05,2.3.14.76.2,1.46.53,2.09,1,.64.47,1.18,1.06,1.6,1.78.41.69.68,1.46.78,2.27.05.38-.21.72-.59.77-.03,0-.06,0-.09,0Z"/>
    </g>
    <path class="cls-4" d="m184.15,118.54c-.33-.87-.26-1.87.31-2.25.57-.39,1.66.06,2.26,1.09,1.63,2.79,2.37,6.07,2.01,9.4-.13,1.24-1.36,1.84-2.54,1.38-1.18-.46-1.87-1.43-1.64-2.25.64-2.33.55-4.92-.4-7.36Z"/>
    <path class="cls-4" d="m181.72,121.07c-.33-.87-.26-1.87.31-2.25.57-.39,1.66.06,2.26,1.09,1.63,2.79,2.37,6.07,2.01,9.4-.13,1.24-1.36,1.84-2.54,1.38-1.18-.46-1.87-1.43-1.64-2.25.64-2.33.55-4.92-.4-7.36Z"/>
    <path class="cls-4" d="m178.11,122.51c-.33-.87-.26-1.87.31-2.25.57-.39,1.66.06,2.26,1.09,1.63,2.79,2.37,6.07,2.01,9.4-.13,1.24-1.36,1.84-2.54,1.38-1.18-.46-1.87-1.43-1.64-2.25.64-2.33.55-4.92-.4-7.36Z"/>
    <path class="cls-4" d="m175.68,120.15c-.33-.87-.26-1.87.31-2.25.57-.39,1.66.06,2.26,1.09,1.63,2.79,2.37,6.07,2.01,9.4-.13,1.24-1.36,1.84-2.54,1.38-1.18-.46-1.87-1.43-1.64-2.25.64-2.33.55-4.92-.4-7.36Z"/>
    <g>
      <g>
        <ellipse class="cls-1" cx="174.97" cy="112.01" rx="8.42" ry="6.93" transform="translate(-27.95 156.53) rotate(-45)"/>
        <path class="cls-2" d="m173.48,120.21c-1.82,0-3.54-.62-4.82-1.9-2.9-2.9-2.42-8.08,1.05-11.56s8.66-3.95,11.56-1.05c2.9,2.9,2.42,8.08-1.05,11.56-1.95,1.95-4.43,2.95-6.74,2.95Zm2.98-15.41c-2.05,0-4.28.91-6.03,2.66-3.09,3.09-3.56,7.64-1.05,10.14s7.05,2.03,10.14-1.05c3.09-3.09,3.56-7.64,1.05-10.14-1.08-1.08-2.55-1.61-4.11-1.61Z"/>
      </g>
      <rect class="cls-2" x="171.3" y="109.67" width="7.77" height="1" transform="translate(47.46 273) rotate(-84.06)"/>
      <rect class="cls-2" x="172.53" y="110.72" width="6.47" height="1" transform="translate(-27.16 156.86) rotate(-45)"/>
    </g>
    <path class="cls-4" d="m148.64,88.11c-1.38,0-2.91-.22-4.53-.73-5.64-1.76-5.12-6.51-5.11-6.56.04-.34.35-.58.7-.54.34.04.58.35.54.69-.02.17-.36,3.78,4.25,5.22,5.13,1.61,8.82.05,9.8-1.57.18-.29.56-.39.86-.21.29.18.39.56.21.86-.98,1.61-3.44,2.84-6.71,2.84Z"/>
  </g>
</svg>