<?xml version="1.0" encoding="UTF-8"?>
<svg id="Layer_1" data-name="Layer 1" xmlns="http://www.w3.org/2000/svg" width="300" height="225" viewBox="0 0 300 225">
  <defs>
    <style>
      .cls-1 {
        fill: #fff;
      }

      .cls-2 {
        isolation: isolate;
        opacity: .35;
      }

      .cls-3 {
        fill: #232323;
      }

      .cls-4 {
        fill: #ff7e1c;
      }

      .cls-5 {
        fill: #444;
      }

      .cls-6 {
        fill: #3b3b3b;
      }

      .cls-7 {
        fill: #7f7f7f;
      }

      .cls-8 {
        fill: #976b42;
      }

      .cls-9 {
        fill: #704420;
      }
    </style>
  </defs>
  <g>
    <g class="cls-2">
      <ellipse class="cls-3" cx="191.77" cy="204.38" rx="84.64" ry="7.18"/>
    </g>
    <g>
      <rect class="cls-8" x="91.1" y="6.88" width="202.94" height="125"/>
      <rect class="cls-6" x="99.59" y="14.45" width="185.96" height="110.56"/>
      <rect class="cls-8" x="189.14" y="127.75" width="6.85" height="78.56"/>
      <g>
        <polygon class="cls-8" points="128.16 206.31 173.24 125.74 178.56 130.05 137.22 206.31 128.16 206.31"/>
        <polygon class="cls-8" points="256.97 206.31 211.9 125.74 206.58 130.05 247.92 206.31 256.97 206.31"/>
      </g>
    </g>
  </g>
  <g>
    <g>
      <path class="cls-3" d="m57.85,112.85c-2.77.24-5,2.37-4.79,5.4.2,3.02,3.71,5.95,7.58,5.64,10.99-.87,20.22-6.89,25.44-16.6,1.84-3.41.58-7.81-2.1-9.21-2.7-1.41-5.54-.23-6.88,2.21-3.96,7.34-10.93,11.9-19.25,12.56Z"/>
      <path class="cls-3" d="m88.07,96.61c.53-.6.78-1.42.44-1.91-.34-.49-1.35-.46-2.15.19-2.16,1.73-3.75,4.16-4.48,6.93-.27,1.03.54,1.89,1.62,1.89,1.09-.01,1.94-.58,2-1.31.2-2.06,1.06-4.11,2.56-5.79Z"/>
      <path class="cls-3" d="m89.35,98.26c.42-.68,1.13-1.16,1.69-.97.56.19.83,1.16.45,2.11-1.04,2.57-2.89,4.79-5.34,6.29-.91.56-1.96.04-2.27-1.01-.31-1.05,0-2.02.67-2.3,1.92-.78,3.63-2.2,4.8-4.13Z"/>
    </g>
    <path class="cls-9" d="m86.41,101.92c-.32-.08-.64-.21-.95-.39-1.09-.64-1.47-1.74-1-2.57l39.78-62.54c.31-.49.68-1.14,1.42-1.23,1.42-.16.41,1.2-.29,2.44l-36.01,63.42c-.47.83-1.71,1.18-2.94.87Z"/>
    <path class="cls-3" d="m86.96,95.85c.73-.33,1.29-.97,1.17-1.56-.12-.58-1.05-.97-2.03-.71-2.68.71-5.11,2.28-6.91,4.51-.67.84-.28,1.95.72,2.38,1,.44,2,.26,2.36-.37,1.02-1.81,2.64-3.33,4.69-4.25Z"/>
  </g>
  <g>
    <g>
      <path class="cls-1" d="m109.56,20.93l.25-.05.34-.02.15-.03c.51,0,.97.08,1.36.24.22.08.53.31.92.69.36.15.61.38.74.68l.04.14c.08.42-.01,1.04-.28,1.85-.02,0-.15.28-.39.83-.43.76-.82,1.37-1.17,1.83-.37.45-.91,1.05-1.62,1.82.05.19.11.35.19.48h-.02s.75,1.96.75,1.96v.03s0,.02,0,.02l.68,1.88c.37.94.6,1.41.69,1.39.13.11.19.2.21.26v.17s.16.34.16.34c-.01.19-.05.3-.13.31,0,.04-.05.07-.12.08l-.19.03c-.35-.03-.55-.16-.6-.39l-.32-.29c-.28-.32-.52-.7-.75-1.15l-1.12-2.28c-.24-.59-.41-.87-.53-.85-.26-.02-.44-.1-.54-.25l-.1-.22.19-.72c-.7-1.51-1.23-2.83-1.59-3.96-.05-.1-.24-.77-.58-2l-.08.02-.88.62-.31.21c-.28.05-.54-.08-.76-.4l-.03-.14c.07-.26.57-.69,1.49-1.27.03-.05.67-.43,1.92-1.14.08-.02.18-.06.3-.14h.03s.04,0,.04,0c.57-.26.96-.42,1.19-.46.07-.04.23-.09.47-.13Zm-1.73,5.05l.02.08h.06s0-.05,0-.05l-.05-.03h-.02Zm.08.19l.02.1h.04s-.01-.08-.01-.08l-.05-.03Zm.15.46v.07s.05,0,.05,0v-.03s-.05-.03-.05-.03Zm.07.16v.07s.04,0,.04,0v-.07s-.04,0-.04,0Zm.02.11l.16.48h.06s-.02-.11-.02-.11c-.03-.19-.09-.31-.18-.38h-.03Zm.24.58v.03s.03.05.03.05v.03s0,.02,0,.02c.06.18.1.27.14.26v-.03c-.05-.19-.09-.29-.13-.28l.02-.02v-.03s-.05-.03-.05-.03Zm-.84-4.57c.5,1.19,1.01,2.44,1.51,3.76v.07c.06.12.16.39.32.82l.03.02h.02c.32-.65.59-1.16.82-1.54,0-.04.16-.39.49-1.04l.07-.12c.05-.06.08-.16.1-.28.35-.7.58-1.28.7-1.73l.13-.57c-.01-.07-.34-.14-.97-.21-.4-.04-.84,0-1.32.08s-.9.21-1.28.36c-.38.21-.58.33-.6.37Zm1.06,5.2v.03s.05.03.05.03v-.07s-.05,0-.05,0Z"/>
      <path class="cls-1" d="m113.85,23.79c.37-.07.56-.05.58.06.15.06.29.26.44.59h.06c.12-.09.31-.16.57-.23.3-.06.57.12.82.52l-.02.03.03.02-.02.04.03.02h-.03s.03.03.03.03v.03s.16.62.16.62h.03s-.02.03-.02.03v.03s.29,1.1.29,1.1l.04.35.04.08v.16s.03.13.03.13l.05.1-.02.03v.03s.06.16.06.16l.09.63v.05s.08.24.08.24l.02.22.28,1.62h.03s-.02.03-.02.03c.09.47.26.93.51,1.39.03.16-.06.31-.28.45-.49.09-.84,0-1.06-.28l-.24.39-.03-.02h-.03s-.13.06-.13.06c-.3-.22-.52-.66-.64-1.31v-.16s-.04-.07-.04-.07l-.02-.25v-.06s-.06-.13-.06-.13l-.02-.39c-.11-.57-.62-2.18-1.54-4.82l-.23-.77c-.07-.35,0-.58.2-.71Z"/>
      <path class="cls-1" d="m120.97,22.46c.47-.04.97.03,1.47.22.12.09.3.29.52.6l-.03.03v.03s.06.1.06.1c-.07.29-.24.46-.52.51-.35-.02-.66-.13-.95-.35-.18-.02-.47-.02-.87.01-.32.12-.72.6-1.21,1.45-.02.61-.01,1.11.02,1.49.36.89.76,1.76,1.21,2.59.23.39.42.57.57.54.38.18.75.32,1.13.43.87-.5,1.49-1.12,1.87-1.86.06-.01.16-.17.29-.46.08-.17.25-.28.52-.33l.06.05.11-.05c.11-.02.21.08.29.29l.03.13c0,.32-.16.76-.51,1.32-.06.33-.16.53-.29.61-.59.81-1.23,1.33-1.92,1.56l-.21.07-.86.07-.14.05c-.77-.05-1.23-.11-1.41-.2-.68-.17-1.35-.76-1.99-1.78-.03-.19-.14-.42-.31-.7v-.09c-.1-.25-.18-.57-.25-.94l-.06-.31c-.05-1.18.03-2.08.25-2.7l-.05-.08c.14-.09.2-.2.18-.32.46-.73.95-1.21,1.47-1.45l1.26-.46.03.02h.03s.21-.11.21-.11Z"/>
      <path class="cls-1" d="m124.92,21.72l.44.28h.03s.15-.22.15-.22c.08-.09.22-.16.42-.21.22-.04.51.07.86.33.11.11.26.44.44.99l-.03.03v.03s.34.9.34.9h.03c1.32-1.54,2.09-2.37,2.31-2.47l.48-.36c0,.05.1.11.28.17,0,.03.04.05.09.03l.02.08.04.1c.03.15-.2.54-.69,1.15v.05s.03,0,.03,0c.48-.4.8-.61.95-.64.51.07.79.24.84.52.04.2-.11.41-.43.63-.07.03-.12.09-.16.17-.15.03-.43.27-.82.73-.5.45-.89.92-1.19,1.4.92.26,1.99.61,3.22,1.05.71.3,1.11.45,1.21.43l1.61.52c.54.19.83.3.86.34l.09.23c.04.22-.06.41-.31.55h-.03c-.43.08-1.56-.22-3.41-.92-1.53-.32-2.54-.43-3.03-.34l-.02.03h-.03s-.46.04-.46.04l-.69.13-.07.07.21,1.25.03.16.02.27.19.73c-.01.22-.09.35-.23.37l-.07.07c-.62,0-.95-.14-1-.41s-.13-.41-.24-.39c-.23-.07-.45-.3-.65-.68l-.46-1.17c-.28-.11-.43-.23-.45-.35v-.03c-.02-.08.03-.32.16-.71v-.03c-.05-.16-.08-.24-.1-.23l.02-.03-1.01-3.21-.02-.1v-.22s-.06-.13-.06-.13c-.05-.58.06-.89.32-.94Zm.62.69v.11c.04.14.08.2.11.2l-.02.03v.03c.5,1.79.78,2.67.84,2.66l.12-.1-.07-.26v-.06s0-.03,0-.03l-.03-.02v-.03c-.15-.77-.45-1.62-.9-2.55h-.05Z"/>
      <path class="cls-1" d="m142.09,18.7c.19-.04.41.06.67.3l.16.45v.1s.02.01.02.01v.03s0,.02,0,.02l.06.22v.02s-.01.02-.01.02l.02.02c.05.64.02,1.25-.09,1.81-.12.68-.29,1.29-.49,1.82-.45,1.59-.7,2.5-.74,2.73v.02s.02,0,.02,0c.53-.19.92-.32,1.18-.39,1.04-.16,1.57-.18,1.6-.05l.03.08-.02.2.03.09c.03.14-.25.31-.83.5-.55.25-1.03.5-1.45.76-.32.12-.78.35-1.37.67l-.1.02c-.34-.02-.55-.22-.62-.61-.03-.15.25-.7.84-1.66l.7-2.23c.16-.71.3-1.44.42-2.19l.02-1.09c-.08-.35-.15-.52-.2-.51-.27.14-.49.42-.67.86l-.09.72s-.03.09-.05.25l-.07.03-.39-.13h-.04s-.01.03-.01.03c-.14-.03-.23-.14-.26-.33-.11-.57.24-1.28,1.03-2.14.32-.28.56-.43.71-.46Zm-1.07,8.46l.02.02.1-.02.12-.13-.12-.06h-.02s-.11.18-.11.18Z"/>
    </g>
    <g>
      <path class="cls-1" d="m169.59,20.69l.24.12s.08.05.13.16c0,.19-.18.33-.55.4l-1.08.21c-.29.06-.43.12-.43.18.04.45.08.67.11.67h0c.36-.09.8-.16,1.32-.22.05.02.12.06.19.12h.04s.24-.03.24-.03c.3.02.45.11.45.26h.01c0,.15-.18.26-.54.33-.62.14-1.09.3-1.42.47-.13.06-.2.11-.2.15l.23,1.96c.06.63.13,1.16.2,1.57,0,.02-.04.06-.12.11h-.01s-.13-.01-.13-.01h-.01c-.07.01-.15-.02-.24-.08-.03,0-.06-.03-.09-.08l-.06.02c-.21-.07-.36-.2-.45-.39-.09-.16-.16-.39-.21-.69h.02s-.07-.65-.12-1.94v-.02s0-.04,0-.04l-.04-.46h-.04c-.11.06-.23.09-.35.09-.2-.12-.3-.22-.32-.31.09-.16.18-.25.28-.29.19-.07.3-.12.32-.15-.06-.37-.1-.57-.13-.6-.03,0-.13.04-.31.12l-.2.02s-.09-.04-.16-.13c-.08-.06-.12-.13-.12-.22,0-.14.12-.24.36-.29.05-.05.18-.11.4-.19,0-.11.06-.17.18-.21h.03l.05.02s.07-.04.09-.07l-.04-.21c.05-.07.13-.11.26-.13.19.02.34.08.45.18.16,0,.48-.08.96-.25l.83-.15Zm-1.96,3.89v.15h.01s.03-.02.04-.07c-.01-.05-.03-.08-.04-.08h-.01Zm0,.19v.13s0,.01,0,.01c0,.34.05.77.15,1.29h.02l.02-.07-.02-.11h.02v-.03l-.03-.12v-.12c-.02-.06-.03-.12-.03-.19v-.06l.02-.02-.07-.33.03-.08-.04-.04v-.09s0-.01,0-.01h-.01.01v-.02l-.04-.13h-.02Z"/>
      <path class="cls-1" d="m172.45,20.69l.21.02h.23c.45.13.8.25,1.03.36.14.06.33.23.59.52,0,.07.02.14.06.21l-.02.09v.04l.02.08c-.05.29-.23.63-.56,1.01-.16.24-.44.5-.82.76-.2.09-.3.15-.3.19,0,.04.14.11.42.19.31.17.74.3,1.28.4,1.1.31,1.82.76,2.14,1.34l-.02.08.02.11c-.05.21-.1.32-.16.33l-.15-.02-.05.06h-.06c-.17,0-.48-.14-.92-.42-.35-.19-.77-.41-1.28-.64-.21-.16-.46-.23-.75-.23v.02c-.16-.07-.38-.1-.69-.1v.02l-.27-.04-.06.04c0,.39.04.79.12,1.2l-.02.02v.02l.15.57c0,.11-.16.19-.48.25-.09,0-.24-.15-.47-.46-.07.07-.14.11-.21.11l-.02.02-.08.02c-.14-.06-.25-.15-.3-.29-.18-.47-.34-1.09-.5-1.86-.14-.06-.23-.12-.29-.17-.06-.02-.12-.13-.17-.33,0-.12.09-.23.27-.3-.07-.32-.12-.66-.15-1.03.02-.51.07-.77.15-.77l.08.06s.04-.04.06-.11l-.06-.1v-.04c0-.2.18-.45.53-.73.33-.2.6-.32.8-.36,0-.04.23-.09.69-.15Zm-1.13,4.61v.08s.06.1.06.19h.02l-.02.02v.02c.04.19.07.29.09.29h.02l-.04-.46.02-.08-.04-.12v-.05c-.08,0-.12.04-.12.11Zm.15.62l-.02.02v.02l.06.06v-.06l-.04-.04Zm.46-3.81c.11.28.2.71.26,1.28l.02.02h.02c.15,0,.4-.25.76-.76.23-.22.4-.42.5-.6l.02-.15s-.18-.08-.55-.09v.02l-.02-.02h-.08c-.29,0-.59.08-.9.25l-.04.06Z"/>
      <path class="cls-1" d="m179.83,20.68l.02.02h.15l.02-.02.05.02.09-.02c.28.03.45.08.51.16h.04v-.02l.15.04v.02l-.02.02c-.11.04-.16.07-.16.11l.13.02v.04c0,.06-.15.12-.46.18-.11.05-.33.11-.66.16-.66.17-.99.27-.99.31l.02.02h.02c1.45-.27,2.41-.4,2.88-.4h.09c.3.07.46.18.46.35l.02.09v.02c0,.05-.04.12-.13.18,0,.06-.36.12-1.08.18-.55.09-1.21.21-2,.37,0,.02-.07.04-.2.04l-.16.06c-.04.31-.06.62-.06.93v.06l.06.05,1.63-.37.02.02.61-.08.18.02h.05s.08.04.15.04c.21.17.33.26.37.26l.05.09c.02.09.04.13.06.13-.05.15-.18.27-.37.35-.68.2-1.37.35-2.09.46-.52.12-.79.25-.79.37v.09c0,.23-.01.41-.04.53l.04.08-.02.02v.08l.04.04h.04c.34-.06.74-.15,1.2-.28l.02.02h.02c.11-.01.2-.04.28-.07.22,0,.4-.02.53-.06l.11.06h.04s.08-.06.12-.06h.04s.04.02.04.06c.22-.04.5-.11.84-.22l.22-.02c.3.05.46.14.46.29l.04.15c-.09.18-.19.28-.31.28-.11.04-.37.09-.77.15-1.15.23-1.81.38-1.98.46-.06,0-.31.1-.75.31-.21.11-.36.17-.44.17l-.31-.11-.39.16c-.36-.07-.53-.18-.53-.33-.02,0-.04-.05-.05-.15l.02-.11-.02-.08.16-.28c.05-.86.1-1.42.15-1.66l-.02-.08.13-1.51s-.12-.12-.35-.27c-.07-.1-.11-.18-.11-.26,0-.06.05-.14.13-.22,0-.02-.09-.05-.28-.09-.16-.11-.24-.21-.24-.3v-.07c0-.22.09-.35.28-.39l.05-.02.02.02h.02c.4-.06,1.06-.21,2-.44l.95-.16Zm-1.22,1.04l-.02.02v.04h.02l.04-.04-.02-.02h-.02Z"/>
      <path class="cls-1" d="m185.68,20.68l.02.02h.15l.02-.02.05.02.09-.02c.28.03.45.08.51.16h.04v-.02l.15.04v.02l-.02.02c-.11.04-.16.07-.16.11l.13.02v.04c0,.06-.15.12-.46.18-.11.05-.33.11-.66.16-.66.17-.99.27-.99.31l.02.02h.02c1.45-.27,2.41-.4,2.88-.4h.09c.3.07.46.18.46.35l.02.09v.02c0,.05-.04.12-.13.18,0,.06-.36.12-1.08.18-.55.09-1.21.21-2,.37,0,.02-.07.04-.2.04l-.16.06c-.04.31-.06.62-.06.93v.06l.06.05,1.63-.37.02.02.61-.08.18.02h.05s.08.04.15.04c.21.17.33.26.37.26l.05.09c.02.09.04.13.06.13-.05.15-.18.27-.37.35-.68.2-1.37.35-2.09.46-.52.12-.79.25-.79.37v.09c0,.23-.01.41-.04.53l.04.08-.02.02v.08l.04.04h.04c.34-.06.74-.15,1.2-.28l.02.02h.02c.11-.01.2-.04.28-.07.22,0,.4-.02.53-.06l.11.06h.04s.08-.06.12-.06h.04s.04.02.04.06c.22-.04.5-.11.84-.22l.22-.02c.3.05.46.14.46.29l.04.15c-.09.18-.19.28-.31.28-.11.04-.37.09-.77.15-1.15.23-1.81.38-1.98.46-.06,0-.31.1-.75.31-.21.11-.36.17-.44.17l-.31-.11-.39.16c-.36-.07-.53-.18-.53-.33-.02,0-.04-.05-.05-.15l.02-.11-.02-.08.16-.28c.05-.86.1-1.42.15-1.66l-.02-.08.13-1.51s-.12-.12-.35-.27c-.07-.1-.11-.18-.11-.26,0-.06.05-.14.13-.22,0-.02-.09-.05-.28-.09-.16-.11-.24-.21-.24-.3v-.07c0-.22.09-.35.28-.39l.05-.02.02.02h.02c.4-.06,1.06-.21,2-.44l.95-.16Zm-1.22,1.04l-.02.02v.04h.02l.04-.04-.02-.02h-.02Z"/>
      <path class="cls-1" d="m194.21,20.69c.32.03.64.14.96.33.07.08.16.23.28.47l-.02.02v.02l.02.08c-.08.18-.22.28-.41.28-.23-.05-.43-.17-.59-.35-.12-.04-.31-.07-.59-.1-.23.04-.56.31-1,.82-.09.41-.15.74-.18,1,.13.64.29,1.28.49,1.89.11.29.21.43.32.43.23.17.46.31.7.43.64-.23,1.14-.56,1.49-1.01.04,0,.13-.09.25-.28.07-.11.21-.16.39-.16l.04.04.08-.02c.08,0,.13.08.16.23v.09c-.04.21-.21.49-.51.82-.08.21-.17.34-.28.38-.5.47-1,.74-1.49.8l-.15.02-.59-.06-.1.02c-.51-.13-.81-.23-.92-.31-.44-.2-.81-.68-1.11-1.45,0-.13-.04-.3-.12-.51l.02-.06c-.04-.18-.06-.4-.06-.66v-.22c.11-.8.28-1.39.51-1.78l-.02-.06c.11-.04.16-.11.16-.19.4-.43.79-.7,1.17-.79l.9-.15.02.02h.02l.15-.04Z"/>
      <path class="cls-1" d="m198.61,20.69c.24.02.36.08.36.19.26.58.5,1.3.71,2.16.03.21.06.31.09.31h.12s.07,0,.07.02v-.02h.03c.12,0,.2.09.23.26,0,.12-.12.24-.35.35h-.01c.15,1.04.31,1.83.5,2.37l.02.07c-.05.14-.14.22-.28.22,0,.01-.03.02-.1.03,0,.07-.04.11-.11.11h-.16s-.02,0-.02,0h-.01s-.12-.14-.26-.43c-.14-.34-.25-.73-.32-1.16l.02-.1c-.03-.05-.07-.21-.12-.49h-.01s-.02-.01-.02-.01l-.54.24c-.29.1-.44.18-.44.25-.12.48-.21.71-.28.71-.13.04-.2.16-.2.37l-.17.93c-.06.06-.1.09-.13.09l-.02-.02h-.01l-.1.03-.02-.04h-.07s-.01.01-.01.01l-.06-.15c0-.35.1-.94.29-1.76h-.02s-.01-.01-.01-.01l-.39.06h-.1c-.16-.07-.25-.15-.25-.23v-.04c.05-.14.14-.21.23-.21.01-.04.12-.06.33-.09v-.02s.01-.01.01-.01l-.03-.09h0c0-.16.15-.29.46-.43.05-.05.09-.15.12-.29.02-.02.07-.23.13-.63.14-.43.27-1.16.39-2.19.09-.13.18-.2.26-.2.02-.04.1-.1.24-.16Zm-.01,1.79c-.08.2-.16.63-.26,1.28h.03c.25-.07.41-.12.49-.18-.13-.71-.21-1.08-.25-1.1h-.01Z"/>
      <path class="cls-1" d="m201.27,20.67c.08,0,.17.03.28.1h.04l.19-.05.41.06h.08s.1,0,.1,0h.04c.7.04,1.14.12,1.33.23.14.03.28.13.43.32.06.08.09.18.09.3.1.1.15.18.15.25-.05.25-.3.51-.73.79l-1.21.53c0,.12.04.56.13,1.3.03.21.07.74.12,1.59v.13c0,.06.04.28.07.66.02,0,.03.05.03.15,0,.04-.05.11-.16.21h-.06c-.08.01-.14.04-.18.07-.19,0-.31-.09-.36-.28-.12-.41-.23-1-.33-1.77-.1-.5-.21-1.15-.35-1.96h-.02s-.45.21-.45.21c-.14,0-.24-.04-.31-.13h-.01v-.06c0-.08.16-.21.49-.38l.22-.13v-.08c0-.09-.01-.13-.04-.13v-.09s.01-.05.01-.05l-.06-.39h.01s-.02-.33-.02-.33h-.01.01c-.01-.22-.03-.33-.06-.33h-.04c-.25-.04-.38-.15-.38-.31,0-.08.05-.15.15-.22h.01s.01.01.01.01c.09,0,.14-.02.16-.04l.05.02s.05-.03.05-.09c.04-.06.08-.09.13-.09Zm.41,1.55v.04h.02v-.04h-.02Zm.01.08v.08h.02v-.08h-.02Zm.01.1v.09s0,.05,0,.05h.01s.02.01.02.01v-.05s0,0,0,0v-.02s.01-.02.01-.02c0-.04-.01-.07-.04-.07h-.01Zm.59-1.02l-.02.04c0,.18.03.47.08.87h.04l.58-.28c.12-.08.26-.17.4-.29h0c-.21-.13-.49-.23-.84-.3l-.24-.04Z"/>
      <path class="cls-1" d="m204.77,20.68c.25,0,.38.04.38.11.09.06.16.21.22.45h.04c.09-.04.23-.06.41-.08.21,0,.37.15.49.45l-.02.02.02.02-.02.02.02.02h-.02l.02.02v.02l.02.43h.02l-.02.02v.02l.05.77-.02.24.02.06-.02.11v.09l.02.08-.02.02v.02l.02.11-.02.43v.04l.02.17-.02.15-.02,1.12h.02l-.02.02c0,.33.06.66.17,1,0,.11-.08.2-.25.26-.34,0-.56-.11-.67-.32l-.21.23-.02-.02h-.02l-.09.02c-.18-.19-.26-.51-.26-.96l.02-.11-.02-.05.02-.17v-.04l-.02-.09.04-.26c0-.39-.14-1.54-.43-3.43l-.06-.54c0-.24.07-.39.22-.45Z"/>
      <path class="cls-1" d="m212.26,20.67l.32.02h.26l.11.04.27-.04.18.06.02-.02h.02c.17,0,.48.05.92.16v.02l-.04.04s.05.07.13.07v.02c0,.08-.04.17-.13.25l.02.02c0,.05.04.08.09.08l.05.3s-.07.1-.22.16l-.74-.09-.02.02h-.02l-.09-.02-.78.05-.09-.02c-.05.02-.37.06-.94.11l-.04.05.02.02-.02.02h.02l-.02.02v.02c.02.09.05.37.07.83l.02.02-.02.02v.02l.02.12-.02.24.02.02v.02l-.02.02.02.2-.05,2.34c0,.11.02.25.07.42v.15c-.08.12-.17.18-.29.18-.23-.05-.39-.12-.47-.2l-.02.02.04.11v.13c0,.06-.04.12-.13.18-.13,0-.3-.1-.51-.29-.16-.3-.23-.57-.23-.82l.02-.07v-.02l-.02-.02.02-.02v-.16l-.02-.43.02-.02v-.02l-.04-.05.04-.11v-.02l-.02-.05.02-.09v-.2c-.07-1.02-.13-1.52-.18-1.52l.02-.08s-.07-.22-.12-.67c-.19,0-.64.1-1.36.29l-1.24.62-.09.02c-.39-.09-.58-.25-.58-.47,0-.14.08-.24.25-.29.39-.2.65-.31.78-.35.1-.12.18-.18.24-.18.07-.04.28-.11.62-.2.5-.23,1.09-.44,1.76-.62l.04-.04h.07c.11,0,.28-.04.49-.13l.05.02c.23-.02.35-.04.35-.09l.13.02.22-.05.02.02h.02l.73-.09Zm-1.76,1.44c.01.35.03.52.05.52l-.02.02v.02l.11.67-.02.02.09.78-.02.07.02.2-.02.08.02.07h.04l.04-.6-.02-.36v-.05l-.02-.02.02-.02v-.06h-.02l.02-.12v-.04c0-.09-.01-.15-.04-.2l.02-.06-.04-.2.02-.05c-.04-.48-.08-.73-.13-.73h-.05l-.05.06Zm.22,2.5l-.04.18v.13l.04.04.04-.04v-.16l-.02-.07.02-.08h-.04Zm-.04.69v.04l.04.04h.02v-.07h-.06Zm.02-.15v.06h.02l.02-.06h-.04Zm0,.35v.11h.02s.04-.02.04-.06l-.02-.05h-.04Z"/>
      <path class="cls-1" d="m216.45,20.69c.24.02.36.08.36.19.26.58.5,1.3.71,2.16.03.21.06.31.09.31h.12s.07,0,.07.02v-.02h.03c.12,0,.2.09.23.26,0,.12-.12.24-.35.35h-.01c.15,1.04.31,1.83.5,2.37l.02.07c-.05.14-.14.22-.28.22,0,.01-.03.02-.1.03,0,.07-.04.11-.11.11h-.16s-.02,0-.02,0h-.01s-.12-.14-.26-.43c-.14-.34-.25-.73-.32-1.16l.02-.1c-.03-.05-.07-.21-.12-.49h-.01s-.02-.01-.02-.01l-.54.24c-.29.1-.44.18-.44.25-.12.48-.21.71-.28.71-.13.04-.2.16-.2.37l-.17.93c-.06.06-.1.09-.13.09l-.02-.02h-.01l-.1.03-.02-.04h-.07s-.01.01-.01.01l-.06-.15c0-.35.1-.94.29-1.76h-.02s-.01-.01-.01-.01l-.39.06h-.1c-.16-.07-.25-.15-.25-.23v-.04c.05-.14.14-.21.23-.21.01-.04.12-.06.33-.09v-.02s.01-.01.01-.01l-.03-.09h0c0-.16.15-.29.46-.43.05-.05.09-.15.12-.29.02-.02.07-.23.13-.63.14-.43.27-1.16.39-2.19.09-.13.18-.2.26-.2.02-.04.1-.1.24-.16Zm-.01,1.79c-.08.2-.16.63-.26,1.28h.03c.25-.07.41-.12.49-.18-.13-.71-.21-1.08-.25-1.1h-.01Z"/>
      <path class="cls-1" d="m218.77,20.7l.14.04v-.02l.14.05.21-.04c.33.1.5.22.5.37.03,0,.06.14.09.42h.02l-.02.07.05.41-.02.02v.02l.04.11.02.79-.02.37.02.53v.19l-.02.3h.02l-.02.02.02.3v.26l.02.02-.02.02v.02l.02.56.05.04c1.55-.56,2.47-.84,2.78-.84h.07c.26,0,.43.13.51.39l-.05.19c.21.1.32.21.32.35l.02.12c-.11.2-.24.3-.39.3l-.14-.02c-1.41.2-2.42.42-3.01.67-.23.12-.38.18-.46.18-.07,0-.24-.06-.5-.19h-.02l-.11.04c-.26,0-.42-.09-.47-.28l-.02-.11v-.02c.1-.14.2-.23.32-.26v-.04h.02l-.04-.23.02-.02-.02-.39v-.18l-.02-.11.05-.72-.02-.09.02-.28c0-.48-.13-1.51-.39-3.11,0-.1.09-.17.28-.23Z"/>
    </g>
    <g>
      <path class="cls-1" d="m190.39,29.82l.24.12s.08.05.13.16c0,.19-.18.33-.55.4l-1.08.21c-.29.06-.43.12-.43.18.04.45.08.67.11.67h0c.36-.09.8-.16,1.32-.22.05.02.12.06.19.12h.04s.24-.03.24-.03c.3.02.45.11.45.26h.01c0,.15-.18.26-.54.33-.62.14-1.09.3-1.42.47-.13.06-.2.11-.2.15l.23,1.96c.06.63.13,1.16.2,1.57,0,.02-.04.06-.12.11h-.01s-.13-.01-.13-.01h-.01c-.07.01-.15-.02-.24-.08-.03,0-.06-.03-.09-.08l-.06.02c-.21-.07-.36-.2-.45-.39-.09-.16-.16-.39-.21-.69h.02s-.07-.65-.12-1.94v-.02s0-.04,0-.04l-.04-.46h-.04c-.11.06-.23.09-.35.09-.2-.12-.3-.22-.32-.31.09-.16.18-.25.28-.29.19-.07.3-.12.32-.15-.06-.37-.1-.57-.13-.6-.03,0-.13.04-.31.12l-.2.02s-.09-.04-.16-.13c-.08-.06-.12-.13-.12-.22,0-.14.12-.24.36-.29.05-.05.18-.11.4-.19,0-.11.06-.17.18-.21h.03l.05.02s.07-.04.09-.07l-.04-.21c.05-.07.13-.11.26-.13.19.02.34.08.45.18.16,0,.48-.08.96-.25l.83-.15Zm-1.96,3.89v.15h.01s.03-.02.04-.07c-.01-.05-.03-.08-.04-.08h-.01Zm0,.19v.13s0,.01,0,.01c0,.34.05.77.15,1.29h.02l.02-.07-.02-.11h.02v-.03l-.03-.12v-.12c-.02-.06-.03-.12-.03-.19v-.06l.02-.02-.07-.33.03-.08-.04-.04v-.09s0-.01,0-.01h-.01.01v-.02l-.04-.13h-.02Z"/>
      <path class="cls-1" d="m191.28,29.83l.14.04v-.02l.14.05.21-.04c.33.1.5.22.5.37.03,0,.06.14.09.42h.02l-.02.07.05.41-.02.02v.02l.04.11.02.79-.02.37.02.53v.19l-.02.3h.02l-.02.02.02.3v.26l.02.02-.02.02v.02l.02.56.05.04c1.55-.56,2.47-.84,2.78-.84h.07c.26,0,.43.13.51.39l-.05.19c.21.1.32.21.32.35l.02.12c-.11.2-.24.3-.39.3l-.14-.02c-1.41.2-2.42.42-3.01.67-.23.12-.38.18-.46.18-.07,0-.24-.06-.5-.19h-.02l-.11.04c-.26,0-.42-.09-.47-.28l-.02-.11v-.02c.1-.14.2-.23.32-.26v-.04h.02l-.04-.23.02-.02-.02-.39v-.18l-.02-.11.05-.72-.02-.09.02-.28c0-.48-.13-1.51-.39-3.11,0-.1.09-.17.28-.23Z"/>
      <path class="cls-1" d="m198.65,29.78c.44.09.76.24.96.45.02,0,.04.09.04.28l-.02.09c.24,0,.51.26.81.77.11.16.18.33.21.52.13.23.19.43.19.58l-.02.08.13.54-.04.12.02.24v.06l-.06.56.02.02v.02c-.11.5-.38.97-.81,1.41-.38.27-.76.4-1.15.4l-.02.02c-.3,0-.69-.1-1.16-.3-.66-.41-1.13-1.01-1.43-1.82l-.15-.66.02-.02-.02-.11v-.17c0-.17.13-.6.4-1.31h-.02c.11-.31.22-.52.32-.62.16-.41.48-.74.96-1,.2-.1.47-.15.81-.15Zm-1.2,3.04c0,1.12.31,1.86.94,2.2l.13.02c.64,0,1.05-.6,1.24-1.8v-.09c0-.26-.19-.71-.58-1.35-.03,0-.19-.22-.47-.66h-.05c-.49.15-.8.32-.94.51-.19.39-.28.78-.28,1.16Z"/>
      <path class="cls-1" d="m205.23,29.8s.12.05.23.15h.02l-.02.09.07.16-.08.18s.07.07.2.15l.06.09v.06s.03.09.03.09c-.04.06-.1.35-.19.87h.01c-.1.47-.17.97-.22,1.49l-.03.16.02.04-.06.59h.01-.01v.1l-.02.13.03.08-.03.43.02.05-.02.11.03.66v.16c0,.16-.12.26-.38.28-.27-.07-.41-.15-.41-.23-.23-.32-.44-.65-.63-.99l-.06-.06c-.07.27-.12.54-.16.83.06.06.09.12.09.19h.01v.02s-.01.02-.01.02l.03.12s-.03.04-.04.12c-.12,0-.21.05-.26.15-.12.02-.19.04-.22.06-.32-.09-.48-.21-.48-.35-.35-1-.62-1.83-.81-2.47-.14-.48-.27-.81-.41-.99-.25-.51-.38-.86-.38-1.04-.02,0-.04-.06-.07-.18v-.08c0-.06.09-.11.28-.16l.18.03.12-.02c.17.12.27.24.3.38.21.57.49,1.38.81,2.44.04.04.14.24.3.62h.02s.04-.04.04-.09v-.13l.02-.28h-.02s.02-.12.02-.12v-.91s0,0,0,0c.04-.21.11-.32.23-.32.05,0,.16.06.35.18.14.04.26.13.33.26,0,.06.09.24.26.55h.01l.02-.06-.03-.1-.06-.87v-.06s-.02-.19-.02-.19h.02v-.07l-.02-.06.02-.1v-.29c0-.27.06-.61.19-1.02.31-.54.56-.81.76-.81Zm-.49,1.86v.1s0,.19,0,.19h.01l.03-.03v-.02s-.01-.01-.01-.01v-.06s0,0,0,0l.04-.15h0s-.01-.03-.01-.03l.06-.35-.02-.04s-.06.13-.1.39Zm.1-.46v.04h.02v-.04h-.02Zm.02-.05h.03v-.03l-.03.03Z"/>
      <path class="cls-1" d="m208.24,29.81l.07.02h.04v-.02c.51,0,.96.26,1.37.79.02.12.05.2.09.25,0,.16-.1.27-.3.33l-.11.02c-.29-.15-.58-.22-.88-.22-.48,0-.89.27-1.24.8,0,.04.08.08.22.13.05.05.38.16.99.32.81.13,1.33.26,1.56.39.28.11.57.32.88.64.15.22.22.48.22.79v.06c0,.17-.09.42-.28.77-.36.4-.66.65-.91.74-.58.21-1.08.32-1.48.32l-.02.02h-.02l-.02-.02h-.02l-.21.02h-.15l-.02.02-.02-.02h-.22c-.92,0-1.54-.36-1.87-1.08-.03,0-.05-.06-.06-.17l.04-.04.15.09h.06v-.04h.04c.05,0,.19.09.39.26h.06v-.11l-.02-.08c.03-.1.08-.17.15-.23,0-.12.05-.2.15-.26l.09-.25h.04l.02.09h.02l.15-.04h.05c.11.04.17.13.17.28,0,.11.03.19.09.24l-.02.23c.11.08.4.15.88.21l.02-.02.13.02c.43,0,.84-.11,1.23-.32.28-.23.42-.45.42-.63,0-.24-.27-.52-.81-.84l-.28-.11c0-.07-.24-.16-.73-.25-.62-.05-1.08-.13-1.37-.24-.45-.26-.67-.55-.67-.88l-.12-.43c0-.77.65-1.28,1.95-1.54l.09-.02Z"/>
    </g>
    <g>
      <path class="cls-1" d="m242.16,93.02l.24.12s.08.05.13.16c0,.19-.18.33-.55.4l-1.08.21c-.29.06-.43.12-.43.18.04.45.08.67.11.67h0c.36-.09.8-.16,1.32-.22.05.02.12.06.19.12h.04s.24-.03.24-.03c.3.02.45.11.45.26h.01c0,.15-.18.26-.54.33-.62.14-1.09.3-1.42.47-.13.06-.2.11-.2.15l.23,1.96c.06.63.13,1.16.2,1.57,0,.02-.04.06-.12.11h-.01s-.13-.01-.13-.01h-.01c-.07.01-.15-.02-.24-.08-.03,0-.06-.03-.09-.08l-.06.02c-.21-.07-.36-.2-.45-.39-.09-.16-.16-.39-.21-.69h.02s-.07-.65-.12-1.94v-.02s0-.04,0-.04l-.04-.46h-.04c-.11.06-.23.09-.35.09-.2-.12-.3-.22-.32-.31.09-.16.18-.25.28-.29.19-.07.3-.12.32-.15-.06-.37-.1-.57-.13-.6-.03,0-.13.04-.31.12l-.2.02s-.09-.04-.16-.13c-.08-.06-.12-.13-.12-.22,0-.14.12-.24.36-.29.05-.05.18-.11.4-.19,0-.11.06-.17.18-.21h.03l.05.02s.07-.04.09-.07l-.04-.21c.05-.07.13-.11.26-.13.19.02.34.08.45.18.16,0,.48-.08.96-.25l.83-.15Zm-1.96,3.89v.15h.01s.03-.02.04-.07c-.01-.05-.03-.08-.04-.08h-.01Zm0,.19v.13s0,.01,0,.01c0,.34.05.77.15,1.29h.02l.02-.07-.02-.11h.02v-.03l-.03-.12v-.12c-.02-.06-.03-.12-.03-.19v-.06l.02-.02-.07-.33.03-.08-.04-.04v-.09s0-.01,0-.01h-.01.01v-.02l-.04-.13h-.02Z"/>
      <path class="cls-1" d="m242.9,93.02c.25,0,.38.04.38.11.09.06.16.21.22.45h.04c.09-.04.23-.06.41-.08.21,0,.37.15.49.45l-.02.02.02.02-.02.02.02.02h-.02l.02.02v.02l.02.43h.02l-.02.02v.02l.05.77-.02.24.02.06-.02.11v.09l.02.08-.02.02v.02l.02.11-.02.43v.04l.02.17-.02.15-.02,1.12h.02l-.02.02c0,.33.06.66.17,1,0,.11-.08.2-.25.26-.34,0-.56-.11-.67-.32l-.21.23-.02-.02h-.02l-.09.02c-.18-.19-.26-.51-.26-.96l.02-.11-.02-.05.02-.17v-.04l-.02-.09.04-.26c0-.39-.14-1.54-.43-3.43l-.06-.54c0-.24.07-.39.22-.45Z"/>
      <path class="cls-1" d="m249.7,93.14c.2,0,.36.13.47.4l.02.16c0,.12-.15.38-.44.78-.54.92-.8,1.44-.8,1.55.03,0,.18.16.46.47.37.3.73.64,1.08,1.04l.29.22.04.24c-.04.18-.13.28-.29.28l-.18.02c-.39-.12-.59-.22-.59-.31l-.94-.95s-.07-.05-.13-.16l-.16-.13c-.1.09-.27.33-.51.71-.04,0-.09.07-.15.2-.14.13-.31.34-.51.62-.07.04-.15.13-.22.27-.11.09-.19.19-.25.31-.2.18-.39.45-.57.82-.1.17-.16.26-.2.28l-.11-.02-.12.04c-.14-.11-.23-.2-.26-.26.05-.37.13-.6.22-.71l.22-.35v-.04c-.33-.12-.49-.29-.49-.51.05-.26.11-.39.2-.39v-.02l-.02-.09.11-.11.04.04c.09-.12.15-.24.18-.35.38-.48.56-.74.56-.77.39-.5.59-.78.59-.84-.71-.62-1.39-1.08-2.04-1.37-.25-.14-.38-.32-.38-.55.03-.16.11-.23.23-.23h.04l.07.02c.07-.05.18-.1.33-.15.36,0,.59.08.69.24.41.34.62.52.62.54.08.05.34.27.79.66l.15.11.77-1.06c.16-.16.28-.33.38-.51.1-.07.17-.11.22-.11h.13l.02-.02c.05.03.15.04.29.04h.04l.15-.08Zm-3.02,4.63l-.02.08h.02l.05-.05v-.02h-.05Zm.09-.11l-.02.05h.05v-.05h-.04Zm.13-.15v.02h.04v-.05l-.04.04Zm.07-1.42v.04h.02l.04-.04v-.04h-.02l-.04.04Zm.13,1.13l-.02.05h.05v-.05h-.04Zm.08-.09v.05l.11-.08v-.09h-.02l-.09.11Zm.16-.22v.04h.04v-.04h-.04Z"/>
      <path class="cls-1" d="m254.39,93.01l.02.02h.15l.02-.02.05.02.09-.02c.28.03.45.08.51.16h.04v-.02l.15.04v.02l-.02.02c-.11.04-.16.07-.16.11l.13.02v.04c0,.06-.15.12-.46.18-.11.05-.33.11-.66.16-.66.17-.99.27-.99.31l.02.02h.02c1.45-.27,2.41-.4,2.88-.4h.09c.3.07.46.18.46.35l.02.09v.02c0,.05-.04.12-.13.18,0,.06-.36.12-1.08.18-.55.09-1.21.21-2,.37,0,.02-.07.04-.2.04l-.16.06c-.04.31-.06.62-.06.93v.06l.06.05,1.63-.37.02.02.61-.08.18.02h.05s.08.04.15.04c.21.17.33.26.37.26l.05.09c.02.09.04.13.06.13-.05.15-.18.27-.37.35-.68.2-1.37.35-2.09.46-.52.12-.79.25-.79.37v.09c0,.23-.01.41-.04.53l.04.08-.02.02v.08l.04.04h.04c.34-.06.74-.15,1.2-.28l.02.02h.02c.11-.01.2-.04.28-.07.22,0,.4-.02.53-.06l.11.06h.04s.08-.06.12-.06h.04s.04.02.04.06c.22-.04.5-.11.84-.22l.22-.02c.3.05.46.14.46.29l.04.15c-.09.18-.19.28-.31.28-.11.04-.37.09-.77.15-1.15.23-1.81.38-1.98.46-.06,0-.31.1-.75.31-.21.11-.36.17-.44.17l-.31-.11-.39.16c-.36-.07-.53-.18-.53-.33-.02,0-.04-.05-.05-.15l.02-.11-.02-.08.16-.28c.05-.86.1-1.42.15-1.66l-.02-.08.13-1.51s-.12-.12-.35-.27c-.07-.1-.11-.18-.11-.26,0-.06.05-.14.13-.22,0-.02-.09-.05-.28-.09-.16-.11-.24-.21-.24-.3v-.07c0-.22.09-.35.28-.39l.05-.02.02.02h.02c.4-.06,1.06-.21,2-.44l.95-.16Zm-1.22,1.04l-.02.02v.04h.02l.04-.04-.02-.02h-.02Z"/>
      <path class="cls-1" d="m257.04,93.01l.8.18c.25.12.68.23,1.29.34l.43.14c.21.09.71.25,1.5.47.04.03.12.07.27.11.3.21.45.37.45.48.39.37.59.71.59,1.02v.13c0,.5-.39,1.25-1.18,2.25-.37.47-.87.98-1.51,1.54-.15.07-.26.11-.34.11l-.07-.02-.05.02c-.09-.03-.15-.06-.16-.11v-.09h-.06l-.02.02h-.02l-.04-.05c0-.07.03-.15.09-.22v-.04c-.15,0-.3-.08-.45-.25h-.05v.06l.02.12c-.05.08-.13.12-.23.12,0,.04-.06.05-.15.05l-.09-.05h-.04c-.05,0-.2.1-.45.29l-.25.05c-.07,0-.16-.04-.29-.11v-.05c.15-.21.41-.45.79-.71l.02-.05-.02-.11.13-1.62h-.02l.02-.02v-.54l.02-.53h-.02l.02-.02v-.05h-.02l.02-.13v-.02l-.02-.14.02-.09-.02-.05.02-.18v-.23l-.02-.11.02-.07-.02-.05.02-.09c-.02-.4-.07-.6-.13-.6-.1-.03-.28-.13-.53-.32-.42,0-.63-.13-.63-.39,0-.15.08-.26.23-.32l.11-.04Zm2.5,5.07h.02s-.06.09-.18.19l-.02.05.04.54h.04c.54-.52.96-.99,1.27-1.41.26-.29.49-.7.7-1.21l.02-.25h-.02s-.19.17-.45.5c-.63.78-1.05,1.25-1.25,1.43,0,.02-.03.04-.09.04-.05.05-.07.1-.07.13Zm-.16-3.7v.08c.05.32.07.96.07,1.93h.02l-.02.02v.07l.02.02-.02.02v.04l-.02.84.02.02s.08-.06.16-.18c.12-.11.23-.25.34-.41.25-.25.42-.5.52-.75.09,0,.26-.33.53-.98-.4-.22-.91-.45-1.52-.7h-.11Z"/>
    </g>
    <g>
      <path class="cls-1" d="m236.28,102.97l.02.02h.15l.02-.02.05.02.09-.02c.28.03.45.08.51.16h.04v-.02l.15.04v.02l-.02.02c-.11.04-.16.07-.16.11l.13.02v.04c0,.06-.15.12-.46.18-.11.05-.33.11-.66.16-.66.17-.99.27-.99.31l.02.02h.02c1.45-.27,2.41-.4,2.88-.4h.09c.3.07.46.18.46.35l.02.09v.02c0,.05-.04.12-.13.18,0,.06-.36.12-1.08.18-.55.09-1.21.21-2,.37,0,.02-.07.04-.2.04l-.16.06c-.04.31-.06.62-.06.93v.06l.06.05,1.63-.37.02.02.61-.08.18.02h.05s.08.04.15.04c.21.17.33.26.37.26l.05.09c.02.09.04.13.06.13-.05.15-.18.27-.37.35-.68.2-1.37.35-2.09.46-.52.12-.79.25-.79.37v.09c0,.23-.01.41-.04.53l.04.08-.02.02v.08l.04.04h.04c.34-.06.74-.15,1.2-.28l.02.02h.02c.11-.01.2-.04.28-.07.22,0,.4-.02.53-.06l.11.06h.04s.08-.06.12-.06h.04s.04.02.04.06c.22-.04.5-.11.84-.22l.22-.02c.3.05.46.14.46.29l.04.15c-.09.18-.19.28-.31.28-.11.04-.37.09-.77.15-1.15.23-1.81.38-1.98.46-.06,0-.31.1-.75.31-.21.11-.36.17-.44.17l-.31-.11-.39.16c-.36-.07-.53-.18-.53-.33-.02,0-.04-.05-.05-.15l.02-.11-.02-.08.16-.28c.05-.86.1-1.42.15-1.66l-.02-.08.13-1.51s-.12-.12-.35-.27c-.07-.1-.11-.18-.11-.26,0-.06.05-.14.13-.22,0-.02-.09-.05-.28-.09-.16-.11-.24-.21-.24-.3v-.07c0-.22.09-.35.28-.39l.05-.02.02.02h.02c.4-.06,1.06-.21,2-.44l.95-.16Zm-1.22,1.04l-.02.02v.04h.02l.04-.04-.02-.02h-.02Z"/>
      <path class="cls-1" d="m243.69,103.1c.2,0,.36.13.47.4l.02.16c0,.12-.15.38-.44.78-.54.92-.8,1.44-.8,1.55.03,0,.18.16.46.47.37.3.73.64,1.08,1.04l.29.22.04.24c-.04.18-.13.28-.29.28l-.18.02c-.39-.12-.59-.22-.59-.31l-.94-.95s-.07-.05-.13-.16l-.16-.13c-.1.09-.27.33-.51.71-.04,0-.09.07-.15.2-.14.13-.31.34-.51.62-.07.04-.15.13-.22.27-.11.09-.19.19-.25.31-.2.18-.39.45-.57.82-.1.17-.16.26-.2.28l-.11-.02-.12.04c-.14-.11-.23-.2-.26-.26.05-.37.13-.6.22-.71l.22-.35v-.04c-.33-.12-.49-.29-.49-.51.05-.26.11-.39.2-.39v-.02l-.02-.09.11-.11.04.04c.09-.12.15-.24.18-.35.38-.48.56-.74.56-.77.39-.5.59-.78.59-.84-.71-.62-1.39-1.08-2.04-1.37-.25-.14-.38-.32-.38-.55.03-.16.11-.23.23-.23h.04l.07.02c.07-.05.18-.1.33-.15.36,0,.59.08.69.24.41.34.62.52.62.54.08.05.34.27.79.66l.15.11.77-1.06c.16-.16.28-.33.38-.51.1-.07.17-.11.22-.11h.13l.02-.02c.05.03.15.04.29.04h.04l.15-.08Zm-3.02,4.63l-.02.08h.02l.05-.05v-.02h-.05Zm.09-.11l-.02.05h.05v-.05h-.04Zm.13-.15v.02h.04v-.05l-.04.04Zm.07-1.42v.04h.02l.04-.04v-.04h-.02l-.04.04Zm.13,1.13l-.02.05h.05v-.05h-.04Zm.08-.09v.05l.11-.08v-.09h-.02l-.09.11Zm.16-.22v.04h.04v-.04h-.04Z"/>
      <path class="cls-1" d="m248.09,102.98c.32.03.64.14.96.33.07.08.16.23.28.47l-.02.02v.02l.02.08c-.08.18-.22.28-.41.28-.23-.05-.43-.17-.59-.35-.12-.04-.31-.07-.59-.1-.23.04-.56.31-1,.82-.09.41-.15.74-.18,1,.13.64.29,1.28.49,1.89.11.29.21.43.32.43.23.17.46.31.7.43.64-.23,1.14-.56,1.49-1.01.04,0,.13-.09.25-.28.07-.11.21-.16.39-.16l.04.04.08-.02c.08,0,.13.08.16.23v.09c-.04.21-.21.49-.51.82-.08.21-.17.34-.28.38-.5.47-1,.74-1.49.8l-.15.02-.59-.06-.1.02c-.51-.13-.81-.23-.92-.31-.44-.2-.81-.68-1.11-1.45,0-.13-.04-.3-.12-.51l.02-.06c-.04-.18-.06-.4-.06-.66v-.22c.11-.8.28-1.39.51-1.78l-.02-.06c.11-.04.16-.11.16-.19.4-.43.79-.7,1.17-.79l.9-.15.02.02h.02l.15-.04Z"/>
      <path class="cls-1" d="m254.23,102.96h.19c.27.19.4.4.4.64.31,0,.49.29.53.87,0,.17.01.26.04.26l-.02.02v.02c.12.8.21,1.53.28,2.19l-.02.02v.02l.06.34-.02.02v.02l.06.42-.02.16.02.08-.02.08.14,1.09-.02.06.02.02v.02c-.02.07-.06.13-.12.2l.08.32-.18.16-.2.02c-.32-.05-.61-.64-.87-1.76l.02-.02v-.02c-.06-.17-.1-.34-.12-.52h-.02l.02-.02v-.02c-.09-.58-.14-.87-.18-.87l-1.51.23-.08.06c.04.57.06.86.08.86l-.02.06.16.71-.23.2-.12-.04c0,.21-.04.32-.12.32h-.1s-.01.06-.04.06c-.24,0-.53-.51-.87-1.52l-.04-.04-.16.04h-.16c-.16,0-.32-.11-.5-.32-.05-.1-.08-.18-.08-.24h-.02c0-.18.18-.32.53-.42l.02.02h.02c.08-.02.12-.06.12-.1-.2-.94-.33-1.69-.42-2.24-.04-.05-.07-.23-.12-.53h-.02l.02-.02v-.04l-.02-.12c0-.1.11-.19.33-.28.29.13.44.25.44.36.03,0,.05.09.08.26l.02.02h.06l.1-.08.02.02h.24c.37.06.55.21.55.46.05,0,.11.55.18,1.65l.93-.22.49-.06.06.02s.07-.04.08-.08c-.14-.78-.24-1.42-.3-1.92l-.02-.02.02-.16-.02-.13c0-.27.11-.45.34-.54Z"/>
      <path class="cls-1" d="m258.15,102.98c.24.02.36.08.36.19.26.58.5,1.3.71,2.16.03.21.06.31.09.31h.12s.07,0,.07.02v-.02h.03c.12,0,.2.09.23.26,0,.12-.12.24-.35.35h-.01c.15,1.04.31,1.83.5,2.37l.02.07c-.05.14-.14.22-.28.22,0,.01-.03.02-.1.03,0,.07-.04.11-.11.11h-.16s-.02,0-.02,0h-.01s-.12-.14-.26-.43c-.14-.34-.25-.73-.32-1.16l.02-.1c-.03-.05-.07-.21-.12-.49h-.01s-.02-.01-.02-.01l-.54.24c-.29.1-.44.18-.44.25-.12.48-.21.71-.28.71-.13.04-.2.16-.2.37l-.17.93c-.06.06-.1.09-.13.09l-.02-.02h-.01l-.1.03-.02-.04h-.07s-.01.01-.01.01l-.06-.15c0-.35.1-.94.29-1.76h-.02s-.01-.01-.01-.01l-.39.06h-.1c-.16-.07-.25-.15-.25-.23v-.04c.05-.14.14-.21.23-.21.01-.04.12-.06.33-.09v-.02s.01-.01.01-.01l-.03-.09h0c0-.16.15-.29.46-.43.05-.05.09-.15.12-.29.02-.02.07-.23.13-.63.14-.43.27-1.16.39-2.19.09-.13.18-.2.26-.2.02-.04.1-.1.24-.16Zm-.01,1.79c-.08.2-.16.63-.26,1.28h.03c.25-.07.41-.12.49-.18-.13-.71-.21-1.08-.25-1.1h-.01Z"/>
      <path class="cls-1" d="m262.82,102.89c.28.1.42.26.42.46,0,.2.03.3.06.3.06,0,.11.07.16.21.03,0,.05.07.06.22l-.04.12c.02.61.04.91.07.91v.02c.12.69.24,1.21.36,1.56l.21.8c.21.88.34,1.39.4,1.55.05.08.09.16.11.23,0,.1-.05.17-.15.21,0,.05-.05.08-.16.1l-.02.02c-.18,0-.39-.14-.64-.42-.6-.6-.92-.96-.98-1.08l-.66-.8c-.19-.25-.31-.4-.36-.43l-.03.03.02.29-.02.18c.04.93.09,1.45.15,1.56v.02s0,.06,0,.06c0,.12-.06.22-.18.3-.21-.04-.36-.11-.45-.21l-.16-.33-.15-.15c-.2-.45-.37-1.11-.52-1.99-.02,0-.06-.25-.13-.76l-.03-.22.02-.02-.02-.09.02-.49v-.16c-.03-.11-.05-.2-.05-.27,0-.07.08-.14.24-.21h.06c.08,0,.19.05.31.15,0,.03.04.08.13.13v-.02c.22,0,.36.05.43.15.06,0,.14.17.22.51l.64.61c.48.55.81.94.98,1.17v-.02s.01-.01.01-.01c-.07-.61-.21-1.56-.42-2.85l-.16-.98c.04-.23.12-.35.24-.35Z"/>
      <path class="cls-1" d="m269.27,102.99h.11c.8,0,1.39.32,1.79.95.02.07.05.11.09.11-.04.46-.12.69-.26.69h-.15c-.16,0-.31-.15-.45-.45-.32-.29-.63-.43-.93-.43,0-.03-.05-.04-.15-.04-.4,0-.68.05-.84.15-.63.24-1.15.75-1.58,1.53-.06.06-.19.44-.39,1.14v.11c0,.43.09.75.26.95.89.37,1.64.56,2.24.56s.97-.12,1.17-.36c.32-.25.55-.51.71-.78.07-.11.11-.19.11-.23-.29-.12-.59-.22-.91-.28-.11.04-.44.06-.99.06h-.05l-.13.04-.32-.02-.19.02c-.17-.15-.26-.27-.26-.35v-.06c.15-.27.39-.41.73-.41l1.01-.06h.41l.02-.02.02.02h.18l.06-.02.11.02h.39c.75.07,1.12.27,1.12.6,0,.12-.07.31-.22.54.07.17.12.38.15.62-.07.31-.19.53-.37.65-.44.33-.96.58-1.58.73-.19,0-.48.1-.88.28-.38.09-.62.13-.75.13h-.22c-.6,0-1.23-.25-1.9-.76-.25-.28-.54-.5-.87-.64-.62-.48-.93-.99-.93-1.51v-.06l.24-.59c.16-.31.41-.65.73-1.03.79-.77,1.45-1.25,1.99-1.43.12-.06.39-.15.8-.26l.02.02h.02c.14-.09.41-.13.82-.13Z"/>
      <path class="cls-1" d="m275.66,102.97l.02.02h.15l.02-.02.05.02.09-.02c.28.03.45.08.51.16h.04v-.02l.15.04v.02l-.02.02c-.11.04-.16.07-.16.11l.13.02v.04c0,.06-.15.12-.46.18-.11.05-.33.11-.66.16-.66.17-.99.27-.99.31l.02.02h.02c1.45-.27,2.41-.4,2.88-.4h.09c.3.07.46.18.46.35l.02.09v.02c0,.05-.04.12-.13.18,0,.06-.36.12-1.08.18-.55.09-1.21.21-2,.37,0,.02-.07.04-.2.04l-.16.06c-.04.31-.06.62-.06.93v.06l.06.05,1.63-.37.02.02.61-.08.18.02h.05s.08.04.15.04c.21.17.33.26.37.26l.05.09c.02.09.04.13.06.13-.05.15-.18.27-.37.35-.68.2-1.37.35-2.09.46-.52.12-.79.25-.79.37v.09c0,.23-.01.41-.04.53l.04.08-.02.02v.08l.04.04h.04c.34-.06.74-.15,1.2-.28l.02.02h.02c.11-.01.2-.04.28-.07.22,0,.4-.02.53-.06l.11.06h.04s.08-.06.12-.06h.04s.04.02.04.06c.22-.04.5-.11.84-.22l.22-.02c.3.05.46.14.46.29l.04.15c-.09.18-.19.28-.31.28-.11.04-.37.09-.77.15-1.15.23-1.81.38-1.98.46-.06,0-.31.1-.75.31-.21.11-.36.17-.44.17l-.31-.11-.39.16c-.36-.07-.53-.18-.53-.33-.02,0-.04-.05-.05-.15l.02-.11-.02-.08.16-.28c.05-.86.1-1.42.15-1.66l-.02-.08.13-1.51s-.12-.12-.35-.27c-.07-.1-.11-.18-.11-.26,0-.06.05-.14.13-.22,0-.02-.09-.05-.28-.09-.16-.11-.24-.21-.24-.3v-.07c0-.22.09-.35.28-.39l.05-.02.02.02h.02c.4-.06,1.06-.21,2-.44l.95-.16Zm-1.22,1.04l-.02.02v.04h.02l.04-.04-.02-.02h-.02Z"/>
    </g>
    <g>
      <path class="cls-1" d="m256.59,112.47l.21.02h.23c.45.13.8.25,1.03.36.14.06.33.23.59.52,0,.07.02.14.06.21l-.02.09v.04l.02.08c-.05.29-.23.63-.56,1.01-.16.24-.44.5-.82.76-.2.09-.3.15-.3.19,0,.04.14.11.42.19.31.17.74.3,1.28.4,1.1.31,1.82.76,2.14,1.34l-.02.08.02.11c-.05.21-.1.32-.16.33l-.15-.02-.05.06h-.06c-.17,0-.48-.14-.92-.42-.35-.19-.77-.41-1.28-.64-.21-.16-.46-.23-.75-.23v.02c-.16-.07-.38-.1-.69-.1v.02l-.27-.04-.06.04c0,.39.04.79.12,1.2l-.02.02v.02l.15.57c0,.11-.16.19-.48.25-.09,0-.24-.15-.47-.46-.07.07-.14.11-.21.11l-.02.02-.08.02c-.14-.06-.25-.15-.3-.29-.18-.47-.34-1.09-.5-1.86-.14-.06-.23-.12-.29-.17-.06-.02-.12-.13-.17-.33,0-.12.09-.23.27-.3-.07-.32-.12-.66-.15-1.03.02-.51.07-.77.15-.77l.08.06s.04-.04.06-.11l-.06-.1v-.04c0-.2.18-.45.53-.73.33-.2.6-.32.8-.36,0-.04.23-.09.69-.15Zm-1.13,4.61v.08s.06.1.06.19h.02l-.02.02v.02c.04.19.07.29.09.29h.02l-.04-.46.02-.08-.04-.12v-.05c-.08,0-.12.04-.12.11Zm.15.62l-.02.02v.02l.06.06v-.06l-.04-.04Zm.46-3.81c.11.28.2.71.26,1.28l.02.02h.02c.15,0,.4-.25.76-.76.23-.22.4-.42.5-.6l.02-.15s-.18-.08-.55-.09v.02l-.02-.02h-.08c-.29,0-.59.08-.9.25l-.04.06Z"/>
      <path class="cls-1" d="m262.79,112.47c.24.02.36.08.36.19.26.58.5,1.3.71,2.16.03.21.06.31.09.31h.12s.07,0,.07.02v-.02h.03c.12,0,.2.09.23.26,0,.12-.12.24-.35.35h-.01c.15,1.04.31,1.83.5,2.37l.02.07c-.05.14-.14.22-.28.22,0,.01-.03.02-.1.03,0,.07-.04.11-.11.11h-.16s-.02,0-.02,0h-.01s-.12-.14-.26-.43c-.14-.34-.25-.73-.32-1.16l.02-.1c-.03-.05-.07-.21-.12-.49h-.01s-.02-.01-.02-.01l-.54.24c-.29.1-.44.18-.44.25-.12.48-.21.71-.28.71-.13.04-.2.16-.2.37l-.17.93c-.06.06-.1.09-.13.09l-.02-.02h-.01l-.1.03-.02-.04h-.07s-.01.01-.01.01l-.06-.15c0-.35.1-.94.29-1.76h-.02s-.01-.01-.01-.01l-.39.06h-.1c-.16-.07-.25-.15-.25-.23v-.04c.05-.14.14-.21.23-.21.01-.04.12-.06.33-.09v-.02s.01-.01.01-.01l-.03-.09h0c0-.16.15-.29.46-.43.05-.05.09-.15.12-.29.02-.02.07-.23.13-.63.14-.43.27-1.16.39-2.19.09-.13.18-.2.26-.2.02-.04.1-.1.24-.16Zm-.01,1.79c-.08.2-.16.63-.26,1.28h.03c.25-.07.41-.12.49-.18-.13-.71-.21-1.08-.25-1.1h-.01Z"/>
      <path class="cls-1" d="m270.27,112.45l.32.02h.26l.11.04.27-.04.18.06.02-.02h.02c.17,0,.48.05.92.16v.02l-.04.04s.05.07.13.07v.02c0,.08-.04.17-.13.25l.02.02c0,.05.04.08.09.08l.05.3s-.07.1-.22.16l-.74-.09-.02.02h-.02l-.09-.02-.78.05-.09-.02c-.05.02-.37.06-.94.11l-.04.05.02.02-.02.02h.02l-.02.02v.02c.02.09.05.37.07.83l.02.02-.02.02v.02l.02.12-.02.24.02.02v.02l-.02.02.02.2-.05,2.34c0,.11.02.25.07.42v.15c-.08.12-.17.18-.29.18-.23-.05-.39-.12-.47-.2l-.02.02.04.11v.13c0,.06-.04.12-.13.18-.13,0-.3-.1-.51-.29-.16-.3-.23-.57-.23-.82l.02-.07v-.02l-.02-.02.02-.02v-.16l-.02-.43.02-.02v-.02l-.04-.05.04-.11v-.02l-.02-.05.02-.09v-.2c-.07-1.02-.13-1.52-.18-1.52l.02-.08s-.07-.22-.12-.67c-.19,0-.64.1-1.36.29l-1.24.62-.09.02c-.39-.09-.58-.25-.58-.47,0-.14.08-.24.25-.29.39-.2.65-.31.78-.35.1-.12.18-.18.24-.18.07-.04.28-.11.62-.2.5-.23,1.09-.44,1.76-.62l.04-.04h.07c.11,0,.28-.04.49-.13l.05.02c.23-.02.35-.04.35-.09l.13.02.22-.05.02.02h.02l.73-.09Zm-1.76,1.44c.01.35.03.52.05.52l-.02.02v.02l.11.67-.02.02.09.78-.02.07.02.2-.02.08.02.07h.04l.04-.6-.02-.36v-.05l-.02-.02.02-.02v-.06h-.02l.02-.12v-.04c0-.09-.01-.15-.04-.2l.02-.06-.04-.2.02-.05c-.04-.48-.08-.73-.13-.73h-.05l-.05.06Zm.22,2.5l-.04.18v.13l.04.04.04-.04v-.16l-.02-.07.02-.08h-.04Zm-.04.69v.04l.04.04h.02v-.07h-.06Zm.02-.15v.06h.02l.02-.06h-.04Zm0,.35v.11h.02s.04-.02.04-.06l-.02-.05h-.04Z"/>
      <path class="cls-1" d="m275.63,112.46l.02.02h.15l.02-.02.05.02.09-.02c.28.03.45.08.51.16h.04v-.02l.15.04v.02l-.02.02c-.11.04-.16.07-.16.11l.13.02v.04c0,.06-.15.12-.46.18-.11.05-.33.11-.66.16-.66.17-.99.27-.99.31l.02.02h.02c1.45-.27,2.41-.4,2.88-.4h.09c.3.07.46.18.46.35l.02.09v.02c0,.05-.04.12-.13.18,0,.06-.36.12-1.08.18-.55.09-1.21.21-2,.37,0,.02-.07.04-.2.04l-.16.06c-.04.31-.06.62-.06.93v.06l.06.05,1.63-.37.02.02.61-.08.18.02h.05s.08.04.15.04c.21.17.33.26.37.26l.05.09c.02.09.04.13.06.13-.05.15-.18.27-.37.35-.68.2-1.37.35-2.09.46-.52.12-.79.25-.79.37v.09c0,.23-.01.41-.04.53l.04.08-.02.02v.08l.04.04h.04c.34-.06.74-.15,1.2-.28l.02.02h.02c.11-.01.2-.04.28-.07.22,0,.4-.02.53-.06l.11.06h.04s.08-.06.12-.06h.04s.04.02.04.06c.22-.04.5-.11.84-.22l.22-.02c.3.05.46.14.46.29l.04.15c-.09.18-.19.28-.31.28-.11.04-.37.09-.77.15-1.15.23-1.81.38-1.98.46-.06,0-.31.1-.75.31-.21.11-.36.17-.44.17l-.31-.11-.39.16c-.36-.07-.53-.18-.53-.33-.02,0-.04-.05-.05-.15l.02-.11-.02-.08.16-.28c.05-.86.1-1.42.15-1.66l-.02-.08.13-1.51s-.12-.12-.35-.27c-.07-.1-.11-.18-.11-.26,0-.06.05-.14.13-.22,0-.02-.09-.05-.28-.09-.16-.11-.24-.21-.24-.3v-.07c0-.22.09-.35.28-.39l.05-.02.02.02h.02c.4-.06,1.06-.21,2-.44l.95-.16Zm-1.22,1.04l-.02.02v.04h.02l.04-.04-.02-.02h-.02Z"/>
    </g>
    <g>
      <path class="cls-1" d="m104.35,94.15c.25,0,.38.04.38.11.09.06.16.21.22.45h.04c.09-.04.23-.06.41-.08.21,0,.37.15.49.45l-.02.02.02.02-.02.02.02.02h-.02l.02.02v.02l.02.43h.02l-.02.02v.02l.05.77-.02.24.02.06-.02.11v.09l.02.08-.02.02v.02l.02.11-.02.43v.04l.02.17-.02.15-.02,1.12h.02l-.02.02c0,.33.06.66.17,1,0,.11-.08.2-.25.26-.34,0-.56-.11-.67-.32l-.21.23-.02-.02h-.02l-.09.02c-.18-.19-.26-.51-.26-.96l.02-.11-.02-.05.02-.17v-.04l-.02-.09.04-.26c0-.39-.14-1.54-.43-3.43l-.06-.54c0-.24.07-.39.22-.45Z"/>
      <path class="cls-1" d="m109.03,94.07c.28.1.42.26.42.46,0,.2.03.3.06.3.06,0,.11.07.16.21.03,0,.05.07.06.22l-.04.12c.02.61.04.91.07.91v.02c.12.69.24,1.21.36,1.56l.21.8c.21.88.34,1.39.4,1.55.05.08.09.16.11.23,0,.1-.05.17-.15.21,0,.05-.05.08-.16.1l-.02.02c-.18,0-.39-.14-.64-.42-.6-.6-.92-.96-.98-1.08l-.66-.8c-.19-.25-.31-.4-.36-.43l-.03.03.02.29-.02.18c.04.93.09,1.45.15,1.56v.02s0,.06,0,.06c0,.12-.06.22-.18.3-.21-.04-.36-.11-.45-.21l-.16-.33-.15-.15c-.2-.45-.37-1.11-.52-1.99-.02,0-.06-.25-.13-.76l-.03-.22.02-.02-.02-.09.02-.49v-.16c-.03-.11-.05-.2-.05-.27,0-.07.08-.14.24-.21h.06c.08,0,.19.05.31.15,0,.03.04.08.13.13v-.02c.22,0,.36.05.43.15.06,0,.14.17.22.51l.64.61c.48.55.81.94.98,1.17v-.02s.01-.01.01-.01c-.07-.61-.21-1.56-.42-2.85l-.16-.98c.04-.23.12-.35.24-.35Z"/>
      <path class="cls-1" d="m110.94,94.14l.8.18c.25.12.68.23,1.29.34l.43.14c.21.09.71.25,1.5.47.04.03.12.07.27.11.3.21.45.37.45.48.39.37.59.71.59,1.02v.13c0,.5-.39,1.25-1.18,2.25-.37.47-.87.98-1.51,1.54-.15.07-.26.11-.34.11l-.07-.02-.05.02c-.09-.03-.15-.06-.16-.11v-.09h-.06l-.02.02h-.02l-.04-.05c0-.07.03-.15.09-.22v-.04c-.15,0-.3-.08-.45-.25h-.05v.06l.02.12c-.05.08-.13.12-.23.12,0,.04-.06.05-.15.05l-.09-.05h-.04c-.05,0-.2.1-.45.29l-.25.05c-.07,0-.16-.04-.29-.11v-.05c.15-.21.41-.45.79-.71l.02-.05-.02-.11.13-1.62h-.02l.02-.02v-.54l.02-.53h-.02l.02-.02v-.05h-.02l.02-.13v-.02l-.02-.14.02-.09-.02-.05.02-.18v-.23l-.02-.11.02-.07-.02-.05.02-.09c-.02-.4-.07-.6-.13-.6-.1-.03-.28-.13-.53-.32-.42,0-.63-.13-.63-.39,0-.15.08-.26.23-.32l.11-.04Zm2.5,5.07h.02s-.06.09-.18.19l-.02.05.04.54h.04c.54-.52.96-.99,1.27-1.41.26-.29.49-.7.7-1.21l.02-.25h-.02s-.19.17-.45.5c-.63.78-1.05,1.25-1.25,1.43,0,.02-.03.04-.09.04-.05.05-.07.1-.07.13Zm-.16-3.7v.08c.05.32.07.96.07,1.93h.02l-.02.02v.07l.02.02-.02.02v.04l-.02.84.02.02s.08-.06.16-.18c.12-.11.23-.25.34-.41.25-.25.42-.5.52-.75.09,0,.26-.33.53-.98-.4-.22-.91-.45-1.52-.7h-.11Z"/>
      <path class="cls-1" d="m119.74,94.14l.02.02h.15l.02-.02.05.02.09-.02c.28.03.45.08.51.16h.04v-.02l.15.04v.02l-.02.02c-.11.04-.16.07-.16.11l.13.02v.04c0,.06-.15.12-.46.18-.11.05-.33.11-.66.16-.66.17-.99.27-.99.31l.02.02h.02c1.45-.27,2.41-.4,2.88-.4h.09c.3.07.46.18.46.35l.02.09v.02c0,.05-.04.12-.13.18,0,.06-.36.12-1.08.18-.55.09-1.21.21-2,.37,0,.02-.07.04-.2.04l-.16.06c-.04.31-.06.62-.06.93v.06l.06.05,1.63-.37.02.02.61-.08.18.02h.05s.08.04.15.04c.21.17.33.26.37.26l.05.09c.02.09.04.13.06.13-.05.15-.18.27-.37.35-.68.2-1.37.35-2.09.46-.52.12-.79.25-.79.37v.09c0,.23-.01.41-.04.53l.04.08-.02.02v.08l.04.04h.04c.34-.06.74-.15,1.2-.28l.02.02h.02c.11-.01.2-.04.28-.07.22,0,.4-.02.53-.06l.11.06h.04s.08-.06.12-.06h.04s.04.02.04.06c.22-.04.5-.11.84-.22l.22-.02c.3.05.46.14.46.29l.04.15c-.09.18-.19.28-.31.28-.11.04-.37.09-.77.15-1.15.23-1.81.38-1.98.46-.06,0-.31.1-.75.31-.21.11-.36.17-.44.17l-.31-.11-.39.16c-.36-.07-.53-.18-.53-.33-.02,0-.04-.05-.05-.15l.02-.11-.02-.08.16-.28c.05-.86.1-1.42.15-1.66l-.02-.08.13-1.51s-.12-.12-.35-.27c-.07-.1-.11-.18-.11-.26,0-.06.05-.14.13-.22,0-.02-.09-.05-.28-.09-.16-.11-.24-.21-.24-.3v-.07c0-.22.09-.35.28-.39l.05-.02.02.02h.02c.4-.06,1.06-.21,2-.44l.95-.16Zm-1.22,1.04l-.02.02v.04h.02l.04-.04-.02-.02h-.02Z"/>
      <path class="cls-1" d="m123.02,94.14c.08,0,.17.03.28.1h.04l.19-.05.41.06h.08s.1,0,.1,0h.04c.7.04,1.14.12,1.33.23.14.03.28.13.43.32.06.08.09.18.09.3.1.1.15.18.15.25-.05.25-.3.51-.73.79l-1.21.53c0,.12.04.56.13,1.3.03.21.07.74.12,1.59v.13c0,.06.04.28.07.66.02,0,.03.05.03.15,0,.04-.05.11-.16.21h-.06c-.08.01-.14.04-.18.07-.19,0-.31-.09-.36-.28-.12-.41-.23-1-.33-1.77-.1-.5-.21-1.15-.35-1.96h-.02s-.45.21-.45.21c-.14,0-.24-.04-.31-.13h-.01v-.06c0-.08.16-.21.49-.38l.22-.13v-.08c0-.09-.01-.13-.04-.13v-.09s.01-.05.01-.05l-.06-.39h.01s-.02-.33-.02-.33h-.01.01c-.01-.22-.03-.33-.06-.33h-.04c-.25-.04-.38-.15-.38-.31,0-.08.05-.15.15-.22h.01s.01.01.01.01c.09,0,.14-.02.16-.04l.05.02s.05-.03.05-.09c.04-.06.08-.09.13-.09Zm.41,1.55v.04h.02v-.04h-.02Zm.01.08v.08h.02v-.08h-.02Zm.01.1v.09s0,.05,0,.05h.01s.02.01.02.01v-.05s0,0,0,0v-.02s.01-.02.01-.02c0-.04-.01-.07-.04-.07h-.01Zm.59-1.02l-.02.04c0,.18.03.47.08.87h.04l.58-.28c.12-.08.26-.17.4-.29h0c-.21-.13-.49-.23-.84-.3l-.24-.04Z"/>
      <path class="cls-1" d="m129.6,94.14l.02.02h.15l.02-.02.05.02.09-.02c.28.03.45.08.51.16h.04v-.02l.15.04v.02l-.02.02c-.11.04-.16.07-.16.11l.13.02v.04c0,.06-.15.12-.46.18-.11.05-.33.11-.66.16-.66.17-.99.27-.99.31l.02.02h.02c1.45-.27,2.41-.4,2.88-.4h.09c.3.07.46.18.46.35l.02.09v.02c0,.05-.04.12-.13.18,0,.06-.36.12-1.08.18-.55.09-1.21.21-2,.37,0,.02-.07.04-.2.04l-.16.06c-.04.31-.06.62-.06.93v.06l.06.05,1.63-.37.02.02.61-.08.18.02h.05s.08.04.15.04c.21.17.33.26.37.26l.05.09c.02.09.04.13.06.13-.05.15-.18.27-.37.35-.68.2-1.37.35-2.09.46-.52.12-.79.25-.79.37v.09c0,.23-.01.41-.04.53l.04.08-.02.02v.08l.04.04h.04c.34-.06.74-.15,1.2-.28l.02.02h.02c.11-.01.2-.04.28-.07.22,0,.4-.02.53-.06l.11.06h.04s.08-.06.12-.06h.04s.04.02.04.06c.22-.04.5-.11.84-.22l.22-.02c.3.05.46.14.46.29l.04.15c-.09.18-.19.28-.31.28-.11.04-.37.09-.77.15-1.15.23-1.81.38-1.98.46-.06,0-.31.1-.75.31-.21.11-.36.17-.44.17l-.31-.11-.39.16c-.36-.07-.53-.18-.53-.33-.02,0-.04-.05-.05-.15l.02-.11-.02-.08.16-.28c.05-.86.1-1.42.15-1.66l-.02-.08.13-1.51s-.12-.12-.35-.27c-.07-.1-.11-.18-.11-.26,0-.06.05-.14.13-.22,0-.02-.09-.05-.28-.09-.16-.11-.24-.21-.24-.3v-.07c0-.22.09-.35.28-.39l.05-.02.02.02h.02c.4-.06,1.06-.21,2-.44l.95-.16Zm-1.22,1.04l-.02.02v.04h.02l.04-.04-.02-.02h-.02Z"/>
      <path class="cls-1" d="m134.89,94.07c.28.1.42.26.42.46,0,.2.03.3.06.3.06,0,.11.07.16.21.03,0,.05.07.06.22l-.04.12c.02.61.04.91.07.91v.02c.12.69.24,1.21.36,1.56l.21.8c.21.88.34,1.39.4,1.55.05.08.09.16.11.23,0,.1-.05.17-.15.21,0,.05-.05.08-.16.1l-.02.02c-.18,0-.39-.14-.64-.42-.6-.6-.92-.96-.98-1.08l-.66-.8c-.19-.25-.31-.4-.36-.43l-.03.03.02.29-.02.18c.04.93.09,1.45.15,1.56v.02s0,.06,0,.06c0,.12-.06.22-.18.3-.21-.04-.36-.11-.45-.21l-.16-.33-.15-.15c-.2-.45-.37-1.11-.52-1.99-.02,0-.06-.25-.13-.76l-.03-.22.02-.02-.02-.09.02-.49v-.16c-.03-.11-.05-.2-.05-.27,0-.07.08-.14.24-.21h.06c.08,0,.19.05.31.15,0,.03.04.08.13.13v-.02c.22,0,.36.05.43.15.06,0,.14.17.22.51l.64.61c.48.55.81.94.98,1.17v-.02s.01-.01.01-.01c-.07-.61-.21-1.56-.42-2.85l-.16-.98c.04-.23.12-.35.24-.35Z"/>
      <path class="cls-1" d="m136.8,94.14l.8.18c.25.12.68.23,1.29.34l.43.14c.21.09.71.25,1.5.47.04.03.12.07.27.11.3.21.45.37.45.48.39.37.59.71.59,1.02v.13c0,.5-.39,1.25-1.18,2.25-.37.47-.87.98-1.51,1.54-.15.07-.26.11-.34.11l-.07-.02-.05.02c-.09-.03-.15-.06-.16-.11v-.09h-.06l-.02.02h-.02l-.04-.05c0-.07.03-.15.09-.22v-.04c-.15,0-.3-.08-.45-.25h-.05v.06l.02.12c-.05.08-.13.12-.23.12,0,.04-.06.05-.15.05l-.09-.05h-.04c-.05,0-.2.1-.45.29l-.25.05c-.07,0-.16-.04-.29-.11v-.05c.15-.21.41-.45.79-.71l.02-.05-.02-.11.13-1.62h-.02l.02-.02v-.54l.02-.53h-.02l.02-.02v-.05h-.02l.02-.13v-.02l-.02-.14.02-.09-.02-.05.02-.18v-.23l-.02-.11.02-.07-.02-.05.02-.09c-.02-.4-.07-.6-.13-.6-.1-.03-.28-.13-.53-.32-.42,0-.63-.13-.63-.39,0-.15.08-.26.23-.32l.11-.04Zm2.5,5.07h.02s-.06.09-.18.19l-.02.05.04.54h.04c.54-.52.96-.99,1.27-1.41.26-.29.49-.7.7-1.21l.02-.25h-.02s-.19.17-.45.5c-.63.78-1.05,1.25-1.25,1.43,0,.02-.03.04-.09.04-.05.05-.07.1-.07.13Zm-.16-3.7v.08c.05.32.07.96.07,1.93h.02l-.02.02v.07l.02.02-.02.02v.04l-.02.84.02.02s.08-.06.16-.18c.12-.11.23-.25.34-.41.25-.25.42-.5.52-.75.09,0,.26-.33.53-.98-.4-.22-.91-.45-1.52-.7h-.11Z"/>
      <path class="cls-1" d="m145.6,94.14l.02.02h.15l.02-.02.05.02.09-.02c.28.03.45.08.51.16h.04v-.02l.15.04v.02l-.02.02c-.11.04-.16.07-.16.11l.13.02v.04c0,.06-.15.12-.46.18-.11.05-.33.11-.66.16-.66.17-.99.27-.99.31l.02.02h.02c1.45-.27,2.41-.4,2.88-.4h.09c.3.07.46.18.46.35l.02.09v.02c0,.05-.04.12-.13.18,0,.06-.36.12-1.08.18-.55.09-1.21.21-2,.37,0,.02-.07.04-.2.04l-.16.06c-.04.31-.06.62-.06.93v.06l.06.05,1.63-.37.02.02.61-.08.18.02h.05s.08.04.15.04c.21.17.33.26.37.26l.05.09c.02.09.04.13.06.13-.05.15-.18.27-.37.35-.68.2-1.37.35-2.09.46-.52.12-.79.25-.79.37v.09c0,.23-.01.41-.04.53l.04.08-.02.02v.08l.04.04h.04c.34-.06.74-.15,1.2-.28l.02.02h.02c.11-.01.2-.04.28-.07.22,0,.4-.02.53-.06l.11.06h.04s.08-.06.12-.06h.04s.04.02.04.06c.22-.04.5-.11.84-.22l.22-.02c.3.05.46.14.46.29l.04.15c-.09.18-.19.28-.31.28-.11.04-.37.09-.77.15-1.15.23-1.81.38-1.98.46-.06,0-.31.1-.75.31-.21.11-.36.17-.44.17l-.31-.11-.39.16c-.36-.07-.53-.18-.53-.33-.02,0-.04-.05-.05-.15l.02-.11-.02-.08.16-.28c.05-.86.1-1.42.15-1.66l-.02-.08.13-1.51s-.12-.12-.35-.27c-.07-.1-.11-.18-.11-.26,0-.06.05-.14.13-.22,0-.02-.09-.05-.28-.09-.16-.11-.24-.21-.24-.3v-.07c0-.22.09-.35.28-.39l.05-.02.02.02h.02c.4-.06,1.06-.21,2-.44l.95-.16Zm-1.22,1.04l-.02.02v.04h.02l.04-.04-.02-.02h-.02Z"/>
      <path class="cls-1" d="m150.89,94.07c.28.1.42.26.42.46,0,.2.03.3.06.3.06,0,.11.07.16.21.03,0,.05.07.06.22l-.04.12c.02.61.04.91.07.91v.02c.12.69.24,1.21.36,1.56l.21.8c.21.88.34,1.39.4,1.55.05.08.09.16.11.23,0,.1-.05.17-.15.21,0,.05-.05.08-.16.1l-.02.02c-.18,0-.39-.14-.64-.42-.6-.6-.92-.96-.98-1.08l-.66-.8c-.19-.25-.31-.4-.36-.43l-.03.03.02.29-.02.18c.04.93.09,1.45.15,1.56v.02s0,.06,0,.06c0,.12-.06.22-.18.3-.21-.04-.36-.11-.45-.21l-.16-.33-.15-.15c-.2-.45-.37-1.11-.52-1.99-.02,0-.06-.25-.13-.76l-.03-.22.02-.02-.02-.09.02-.49v-.16c-.03-.11-.05-.2-.05-.27,0-.07.08-.14.24-.21h.06c.08,0,.19.05.31.15,0,.03.04.08.13.13v-.02c.22,0,.36.05.43.15.06,0,.14.17.22.51l.64.61c.48.55.81.94.98,1.17v-.02s.01-.01.01-.01c-.07-.61-.21-1.56-.42-2.85l-.16-.98c.04-.23.12-.35.24-.35Z"/>
      <path class="cls-1" d="m158.25,94.13l.32.02h.26l.11.04.27-.04.18.06.02-.02h.02c.17,0,.48.05.92.16v.02l-.04.04s.05.07.13.07v.02c0,.08-.04.17-.13.25l.02.02c0,.05.04.08.09.08l.05.3s-.07.1-.22.16l-.74-.09-.02.02h-.02l-.09-.02-.78.05-.09-.02c-.05.02-.37.06-.94.11l-.04.05.02.02-.02.02h.02l-.02.02v.02c.02.09.05.37.07.83l.02.02-.02.02v.02l.02.12-.02.24.02.02v.02l-.02.02.02.2-.05,2.34c0,.11.02.25.07.42v.15c-.08.12-.17.18-.29.18-.23-.05-.39-.12-.47-.2l-.02.02.04.11v.13c0,.06-.04.12-.13.18-.13,0-.3-.1-.51-.29-.16-.3-.23-.57-.23-.82l.02-.07v-.02l-.02-.02.02-.02v-.16l-.02-.43.02-.02v-.02l-.04-.05.04-.11v-.02l-.02-.05.02-.09v-.2c-.07-1.02-.13-1.52-.18-1.52l.02-.08s-.07-.22-.12-.67c-.19,0-.64.1-1.36.29l-1.24.62-.09.02c-.39-.09-.58-.25-.58-.47,0-.14.08-.24.25-.29.39-.2.65-.31.78-.35.1-.12.18-.18.24-.18.07-.04.28-.11.62-.2.5-.23,1.09-.44,1.76-.62l.04-.04h.07c.11,0,.28-.04.49-.13l.05.02c.23-.02.35-.04.35-.09l.13.02.22-.05.02.02h.02l.73-.09Zm-1.76,1.44c.01.35.03.52.05.52l-.02.02v.02l.11.67-.02.02.09.78-.02.07.02.2-.02.08.02.07h.04l.04-.6-.02-.36v-.05l-.02-.02.02-.02v-.06h-.02l.02-.12v-.04c0-.09-.01-.15-.04-.2l.02-.06-.04-.2.02-.05c-.04-.48-.08-.73-.13-.73h-.05l-.05.06Zm.22,2.5l-.04.18v.13l.04.04.04-.04v-.16l-.02-.07.02-.08h-.04Zm-.04.69v.04l.04.04h.02v-.07h-.06Zm.02-.15v.06h.02l.02-.06h-.04Zm0,.35v.11h.02s.04-.02.04-.06l-.02-.05h-.04Z"/>
    </g>
    <g>
      <path class="cls-1" d="m112.03,103.26c.19,0,.33.14.43.43.13.16.28.52.45,1.08l.35,1.3c0,.14.19.68.58,1.62.59,1.21.88,1.86.88,1.96v.02h-.03l.02.15c0,.05-.05.11-.14.15h-.01c-.14-.09-.22-.17-.22-.22h-.06c-.08.2-.21.29-.37.29-.24-.08-.4-.19-.47-.33-.2-.43-.38-1.07-.55-1.9-.27-.95-.51-1.7-.7-2.26-.02,0-.04-.04-.05-.11h-.01c-.05.05-.14.45-.29,1.19v.02h.02l-.08.43v.13s0,0,0,0v.02s.01.06.01.06c0,.15-.04.26-.12.32,0,.03.05.14.16.34l.02.06v.11c0,.08-.06.12-.18.12-.25,0-.64-.39-1.15-1.16-.11-.12-.18-.22-.22-.29h-.04v.02l-.02.99-.02.11h.02s-.02.09-.02.09v.39s0,.01,0,.01v.4l.02.15c-.02.28-.1.42-.22.42h-.11c-.23-.09-.35-.17-.35-.22,0-.07-.04-.17-.13-.3-.09-.34-.21-1.2-.35-2.57v-.02s.01-.02.01-.02c-.09-.82-.18-1.24-.26-1.24-.18-.12-.28-.24-.28-.33s.04-.17.12-.23h.01s.02.01.02.01l.33-.06c.21.04.35.1.42.18l.15-.02c.25,0,.44.14.58.42.39.41.68.79.87,1.14h.05l.29-.9c.08-.29.21-.88.4-1.76,0-.08.08-.14.23-.2Z"/>
      <path class="cls-1" d="m117.13,103.23c.44.09.76.24.96.45.02,0,.04.09.04.28l-.02.09c.24,0,.51.26.81.77.11.16.18.33.21.52.13.23.19.43.19.58l-.02.08.13.54-.04.12.02.24v.06l-.06.56.02.02v.02c-.11.5-.38.97-.81,1.41-.38.27-.76.4-1.15.4l-.02.02c-.3,0-.69-.1-1.16-.3-.66-.41-1.13-1.01-1.43-1.82l-.15-.66.02-.02-.02-.11v-.17c0-.17.13-.6.4-1.31h-.02c.11-.31.22-.52.32-.62.16-.41.48-.74.96-1,.2-.1.47-.15.81-.15Zm-1.2,3.04c0,1.12.31,1.86.94,2.2l.13.02c.64,0,1.05-.6,1.24-1.8v-.09c0-.26-.19-.71-.58-1.35-.03,0-.19-.22-.47-.66h-.05c-.49.15-.8.32-.94.51-.19.39-.28.78-.28,1.16Z"/>
      <path class="cls-1" d="m122.39,103.18c.28.1.42.26.42.46,0,.2.03.3.06.3.06,0,.11.07.16.21.03,0,.05.07.06.22l-.04.12c.02.61.04.91.07.91v.02c.12.69.24,1.21.36,1.56l.21.8c.21.88.34,1.39.4,1.55.05.08.09.16.11.23,0,.1-.05.17-.15.21,0,.05-.05.08-.16.1l-.02.02c-.18,0-.39-.14-.64-.42-.6-.6-.92-.96-.98-1.08l-.66-.8c-.19-.25-.31-.4-.36-.43l-.03.03.02.29-.02.18c.04.93.09,1.45.15,1.56v.02s0,.06,0,.06c0,.12-.06.22-.18.3-.21-.04-.36-.11-.45-.21l-.16-.33-.15-.15c-.2-.45-.37-1.11-.52-1.99-.02,0-.06-.25-.13-.76l-.03-.22.02-.02-.02-.09.02-.49v-.16c-.03-.11-.05-.2-.05-.27,0-.07.08-.14.24-.21h.06c.08,0,.19.05.31.15,0,.03.04.08.13.13v-.02c.22,0,.36.05.43.15.06,0,.14.17.22.51l.64.61c.48.55.81.94.98,1.17v-.02s.01-.01.01-.01c-.07-.61-.21-1.56-.42-2.85l-.16-.98c.04-.23.12-.35.24-.35Z"/>
      <path class="cls-1" d="m127.51,103.26l.02.02h.15l.02-.02.05.02.09-.02c.28.03.45.08.51.16h.04v-.02l.15.04v.02l-.02.02c-.11.04-.16.07-.16.11l.13.02v.04c0,.06-.15.12-.46.18-.11.05-.33.11-.66.16-.66.17-.99.27-.99.31l.02.02h.02c1.45-.27,2.41-.4,2.88-.4h.09c.3.07.46.18.46.35l.02.09v.02c0,.05-.04.12-.13.18,0,.06-.36.12-1.08.18-.55.09-1.21.21-2,.37,0,.02-.07.04-.2.04l-.16.06c-.04.31-.06.62-.06.93v.06l.06.05,1.63-.37.02.02.61-.08.18.02h.05s.08.04.15.04c.21.17.33.26.37.26l.05.09c.02.09.04.13.06.13-.05.15-.18.27-.37.35-.68.2-1.37.35-2.09.46-.52.12-.79.25-.79.37v.09c0,.23-.01.41-.04.53l.04.08-.02.02v.08l.04.04h.04c.34-.06.74-.15,1.2-.28l.02.02h.02c.11-.01.2-.04.28-.07.22,0,.4-.02.53-.06l.11.06h.04s.08-.06.12-.06h.04s.04.02.04.06c.22-.04.5-.11.84-.22l.22-.02c.3.05.46.14.46.29l.04.15c-.09.18-.19.28-.31.28-.11.04-.37.09-.77.15-1.15.23-1.81.38-1.98.46-.06,0-.31.1-.75.31-.21.11-.36.17-.44.17l-.31-.11-.39.16c-.36-.07-.53-.18-.53-.33-.02,0-.04-.05-.05-.15l.02-.11-.02-.08.16-.28c.05-.86.1-1.42.15-1.66l-.02-.08.13-1.51s-.12-.12-.35-.27c-.07-.1-.11-.18-.11-.26,0-.06.05-.14.13-.22,0-.02-.09-.05-.28-.09-.16-.11-.24-.21-.24-.3v-.07c0-.22.09-.35.28-.39l.05-.02.02.02h.02c.4-.06,1.06-.21,2-.44l.95-.16Zm-1.22,1.04l-.02.02v.04h.02l.04-.04-.02-.02h-.02Z"/>
      <path class="cls-1" d="m135.61,103.25l.32.02h.26l.11.04.27-.04.18.06.02-.02h.02c.17,0,.48.05.92.16v.02l-.04.04s.05.07.13.07v.02c0,.08-.04.17-.13.25l.02.02c0,.05.04.08.09.08l.05.3s-.07.1-.22.16l-.74-.09-.02.02h-.02l-.09-.02-.78.05-.09-.02c-.05.02-.37.06-.94.11l-.04.05.02.02-.02.02h.02l-.02.02v.02c.02.09.05.37.07.83l.02.02-.02.02v.02l.02.12-.02.24.02.02v.02l-.02.02.02.2-.05,2.34c0,.11.02.25.07.42v.15c-.08.12-.17.18-.29.18-.23-.05-.39-.12-.47-.2l-.02.02.04.11v.13c0,.06-.04.12-.13.18-.13,0-.3-.1-.51-.29-.16-.3-.23-.57-.23-.82l.02-.07v-.02l-.02-.02.02-.02v-.16l-.02-.43.02-.02v-.02l-.04-.05.04-.11v-.02l-.02-.05.02-.09v-.2c-.07-1.02-.13-1.52-.18-1.52l.02-.08s-.07-.22-.12-.67c-.19,0-.64.1-1.36.29l-1.24.62-.09.02c-.39-.09-.58-.25-.58-.47,0-.14.08-.24.25-.29.39-.2.65-.31.78-.35.1-.12.18-.18.24-.18.07-.04.28-.11.62-.2.5-.23,1.09-.44,1.76-.62l.04-.04h.07c.11,0,.28-.04.49-.13l.05.02c.23-.02.35-.04.35-.09l.13.02.22-.05.02.02h.02l.73-.09Zm-1.76,1.44c.01.35.03.52.05.52l-.02.02v.02l.11.67-.02.02.09.78-.02.07.02.2-.02.08.02.07h.04l.04-.6-.02-.36v-.05l-.02-.02.02-.02v-.06h-.02l.02-.12v-.04c0-.09-.01-.15-.04-.2l.02-.06-.04-.2.02-.05c-.04-.48-.08-.73-.13-.73h-.05l-.05.06Zm.22,2.5l-.04.18v.13l.04.04.04-.04v-.16l-.02-.07.02-.08h-.04Zm-.04.69v.04l.04.04h.02v-.07h-.06Zm.02-.15v.06h.02l.02-.06h-.04Zm0,.35v.11h.02s.04-.02.04-.06l-.02-.05h-.04Z"/>
      <path class="cls-1" d="m139.79,103.27c.24.02.36.08.36.19.26.58.5,1.3.71,2.16.03.21.06.31.09.31h.12s.07,0,.07.02v-.02h.03c.12,0,.2.09.23.26,0,.12-.12.24-.35.35h-.01c.15,1.04.31,1.83.5,2.37l.02.07c-.05.14-.14.22-.28.22,0,.01-.03.02-.1.03,0,.07-.04.11-.11.11h-.16s-.02,0-.02,0h-.01s-.12-.14-.26-.43c-.14-.34-.25-.73-.32-1.16l.02-.1c-.03-.05-.07-.21-.12-.49h-.01s-.02-.01-.02-.01l-.54.24c-.29.1-.44.18-.44.25-.12.48-.21.71-.28.71-.13.04-.2.16-.2.37l-.17.93c-.06.06-.1.09-.13.09l-.02-.02h-.01l-.1.03-.02-.04h-.07s-.01.01-.01.01l-.06-.15c0-.35.1-.94.29-1.76h-.02s-.01-.01-.01-.01l-.39.06h-.1c-.16-.07-.25-.15-.25-.23v-.04c.05-.14.14-.21.23-.21.01-.04.12-.06.33-.09v-.02s.01-.01.01-.01l-.03-.09h0c0-.16.15-.29.46-.43.05-.05.09-.15.12-.29.02-.02.07-.23.13-.63.14-.43.27-1.16.39-2.19.09-.13.18-.2.26-.2.02-.04.1-.1.24-.16Zm-.01,1.79c-.08.2-.16.63-.26,1.28h.03c.25-.07.41-.12.49-.18-.13-.71-.21-1.08-.25-1.1h-.01Z"/>
      <path class="cls-1" d="m144.09,103.27l.21.02h.23c.45.13.8.25,1.03.36.14.06.33.23.59.52,0,.07.02.14.06.21l-.02.09v.04l.02.08c-.05.29-.23.63-.56,1.01-.16.24-.44.5-.82.76-.2.09-.3.15-.3.19,0,.04.14.11.42.19.31.17.74.3,1.28.4,1.1.31,1.82.76,2.14,1.34l-.02.08.02.11c-.05.21-.1.32-.16.33l-.15-.02-.05.06h-.06c-.17,0-.48-.14-.92-.42-.35-.19-.77-.41-1.28-.64-.21-.16-.46-.23-.75-.23v.02c-.16-.07-.38-.1-.69-.1v.02l-.27-.04-.06.04c0,.39.04.79.12,1.2l-.02.02v.02l.15.57c0,.11-.16.19-.48.25-.09,0-.24-.15-.47-.46-.07.07-.14.11-.21.11l-.02.02-.08.02c-.14-.06-.25-.15-.3-.29-.18-.47-.34-1.09-.5-1.86-.14-.06-.23-.12-.29-.17-.06-.02-.12-.13-.17-.33,0-.12.09-.23.27-.3-.07-.32-.12-.66-.15-1.03.02-.51.07-.77.15-.77l.08.06s.04-.04.06-.11l-.06-.1v-.04c0-.2.18-.45.53-.73.33-.2.6-.32.8-.36,0-.04.23-.09.69-.15Zm-1.13,4.61v.08s.06.1.06.19h.02l-.02.02v.02c.04.19.07.29.09.29h.02l-.04-.46.02-.08-.04-.12v-.05c-.08,0-.12.04-.12.11Zm.15.62l-.02.02v.02l.06.06v-.06l-.04-.04Zm.46-3.81c.11.28.2.71.26,1.28l.02.02h.02c.15,0,.4-.25.76-.76.23-.22.4-.42.5-.6l.02-.15s-.18-.08-.55-.09v.02l-.02-.02h-.08c-.29,0-.59.08-.9.25l-.04.06Z"/>
      <path class="cls-1" d="m150.28,103h.06s.08.04.14.12h.01l.13-.05c.12,0,.19.11.22.34-.09.59-.16,1-.22,1.24v.06c-.09.34-.2.98-.32,1.93-.02,0-.02.03-.02.08v.04c-.12,1.13-.21,2.05-.25,2.76h.01s-.01.08-.01.08v.35s0,.01,0,.01h0s.01.06.01.06v.05c0,.07,0,.1.01.1h-.01v.02l.02.29v.09s.05.51.05.51c0,.04-.02.07-.07.08v.04h-.06s-.05.04-.11.04c0-.01-.06-.04-.18-.09,0-.02-.01-.02-.04-.02l-.07.02c-.18-.07-.27-.18-.27-.34-.02,0-.02-.05-.02-.16h-.01s-.01-.05-.01-.05h.01s-.02-.41-.02-.41v-.09s0,0,0,0v-.04c.03-.37.05-.65.07-.84h-.01l.06-.51v-.04s.05-.51.05-.51h0s-.01-.02-.01-.02l.04-.23h-.01c.04-.41.06-.63.08-.65v-.04h.02l-.02-.13.02-.26c-.09-.2-.2-.4-.31-.6s-.33-.74-.64-1.62c-.27-.59-.4-.97-.4-1.14v-.09c.05-.07.11-.11.18-.11l.12.04h.01c0-.11.06-.17.19-.21h.01c.15.12.23.24.23.35.24.74.46,1.36.66,1.85.03.14.06.22.08.22h.01l.22-1.8c.09-.45.18-.67.29-.67l.07-.02Z"/>
    </g>
    <g>
      <path class="cls-1" d="m118.6,112.27c.08,0,.17.03.28.1h.04l.19-.05.41.06h.08s.1,0,.1,0h.04c.7.04,1.14.12,1.33.23.14.03.28.13.43.32.06.08.09.18.09.3.1.1.15.18.15.25-.05.25-.3.51-.73.79l-1.21.53c0,.12.04.56.13,1.3.03.21.07.74.12,1.59v.13c0,.06.04.28.07.66.02,0,.03.05.03.15,0,.04-.05.11-.16.21h-.06c-.08.01-.14.04-.18.07-.19,0-.31-.09-.36-.28-.12-.41-.23-1-.33-1.77-.1-.5-.21-1.15-.35-1.96h-.02s-.45.21-.45.21c-.14,0-.24-.04-.31-.13h-.01v-.06c0-.08.16-.21.49-.38l.22-.13v-.08c0-.09-.01-.13-.04-.13v-.09s.01-.05.01-.05l-.06-.39h.01s-.02-.33-.02-.33h-.01.01c-.01-.22-.03-.33-.06-.33h-.04c-.25-.04-.38-.15-.38-.31,0-.08.05-.15.15-.22h.01s.01.01.01.01c.09,0,.14-.02.16-.04l.05.02s.05-.03.05-.09c.04-.06.08-.09.13-.09Zm.41,1.55v.04h.02v-.04h-.02Zm.01.08v.08h.02v-.08h-.02Zm.01.1v.09s0,.05,0,.05h.01s.02.01.02.01v-.05s0,0,0,0v-.02s.01-.02.01-.02c0-.04-.01-.07-.04-.07h-.01Zm.59-1.02l-.02.04c0,.18.03.47.08.87h.04l.58-.28c.12-.08.26-.17.4-.29h0c-.21-.13-.49-.23-.84-.3l-.24-.04Z"/>
      <path class="cls-1" d="m124.36,112.25c.44.09.76.24.96.45.02,0,.04.09.04.28l-.02.09c.24,0,.51.26.81.77.11.16.18.33.21.52.13.23.19.43.19.58l-.02.08.13.54-.04.12.02.24v.06l-.06.56.02.02v.02c-.11.5-.38.97-.81,1.41-.38.27-.76.4-1.15.4l-.02.02c-.3,0-.69-.1-1.16-.3-.66-.41-1.13-1.01-1.43-1.82l-.15-.66.02-.02-.02-.11v-.17c0-.17.13-.6.4-1.31h-.02c.11-.31.22-.52.32-.62.16-.41.48-.74.96-1,.2-.1.47-.15.81-.15Zm-1.2,3.04c0,1.12.31,1.86.94,2.2l.13.02c.64,0,1.05-.6,1.24-1.8v-.09c0-.26-.19-.71-.58-1.35-.03,0-.19-.22-.47-.66h-.05c-.49.15-.8.32-.94.51-.19.39-.28.78-.28,1.16Z"/>
      <path class="cls-1" d="m127.28,112.3l.14.04v-.02l.14.05.21-.04c.33.1.5.22.5.37.03,0,.06.14.09.42h.02l-.02.07.05.41-.02.02v.02l.04.11.02.79-.02.37.02.53v.19l-.02.3h.02l-.02.02.02.3v.26l.02.02-.02.02v.02l.02.56.05.04c1.55-.56,2.47-.84,2.78-.84h.07c.26,0,.43.13.51.39l-.05.19c.21.1.32.21.32.35l.02.12c-.11.2-.24.3-.39.3l-.14-.02c-1.41.2-2.42.42-3.01.67-.23.12-.38.18-.46.18-.07,0-.24-.06-.5-.19h-.02l-.11.04c-.26,0-.42-.09-.47-.28l-.02-.11v-.02c.1-.14.2-.23.32-.26v-.04h.02l-.04-.23.02-.02-.02-.39v-.18l-.02-.11.05-.72-.02-.09.02-.28c0-.48-.13-1.51-.39-3.11,0-.1.09-.17.28-.23Z"/>
      <path class="cls-1" d="m132.39,112.28c.25,0,.38.04.38.11.09.06.16.21.22.45h.04c.09-.04.23-.06.41-.08.21,0,.37.15.49.45l-.02.02.02.02-.02.02.02.02h-.02l.02.02v.02l.02.43h.02l-.02.02v.02l.05.77-.02.24.02.06-.02.11v.09l.02.08-.02.02v.02l.02.11-.02.43v.04l.02.17-.02.15-.02,1.12h.02l-.02.02c0,.33.06.66.17,1,0,.11-.08.2-.25.26-.34,0-.56-.11-.67-.32l-.21.23-.02-.02h-.02l-.09.02c-.18-.19-.26-.51-.26-.96l.02-.11-.02-.05.02-.17v-.04l-.02-.09.04-.26c0-.39-.14-1.54-.43-3.43l-.06-.54c0-.24.07-.39.22-.45Z"/>
      <path class="cls-1" d="m137.34,112.28c.32.03.64.14.96.33.07.08.16.23.28.47l-.02.02v.02l.02.08c-.08.18-.22.28-.41.28-.23-.05-.43-.17-.59-.35-.12-.04-.31-.07-.59-.1-.23.04-.56.31-1,.82-.09.41-.15.74-.18,1,.13.64.29,1.28.49,1.89.11.29.21.43.32.43.23.17.46.31.7.43.64-.23,1.14-.56,1.49-1.01.04,0,.13-.09.25-.28.07-.11.21-.16.39-.16l.04.04.08-.02c.08,0,.13.08.16.23v.09c-.04.21-.21.49-.51.82-.08.21-.17.34-.28.38-.5.47-1,.74-1.49.8l-.15.02-.59-.06-.1.02c-.51-.13-.81-.23-.92-.31-.44-.2-.81-.68-1.11-1.45,0-.13-.04-.3-.12-.51l.02-.06c-.04-.18-.06-.4-.06-.66v-.22c.11-.8.28-1.39.51-1.78l-.02-.06c.11-.04.16-.11.16-.19.4-.43.79-.7,1.17-.79l.9-.15.02.02h.02l.15-.04Z"/>
      <path class="cls-1" d="m141.73,112.02h.06s.08.04.14.12h.01l.13-.05c.12,0,.19.11.22.34-.09.59-.16,1-.22,1.24v.06c-.09.34-.2.98-.32,1.93-.02,0-.02.03-.02.08v.04c-.12,1.13-.21,2.05-.25,2.76h.01s-.01.08-.01.08v.35s0,.01,0,.01h0s.01.06.01.06v.05c0,.07,0,.1.01.1h-.01v.02l.02.29v.09s.05.51.05.51c0,.04-.02.07-.07.08v.04h-.06s-.05.04-.11.04c0-.01-.06-.04-.18-.09,0-.02-.01-.02-.04-.02l-.07.02c-.18-.07-.27-.18-.27-.34-.02,0-.02-.05-.02-.16h-.01s-.01-.05-.01-.05h.01s-.02-.41-.02-.41v-.09s0,0,0,0v-.04c.03-.37.05-.65.07-.84h-.01l.06-.51v-.04s.05-.51.05-.51h0s-.01-.02-.01-.02l.04-.23h-.01c.04-.41.06-.63.08-.65v-.04h.02l-.02-.13.02-.26c-.09-.2-.2-.4-.31-.6s-.33-.74-.64-1.62c-.27-.59-.4-.97-.4-1.14v-.09c.05-.07.11-.11.18-.11l.12.04h.01c0-.11.06-.17.19-.21h.01c.15.12.23.24.23.35.24.74.46,1.36.66,1.85.03.14.06.22.08.22h.01l.22-1.8c.09-.45.18-.67.29-.67l.07-.02Z"/>
    </g>
    <g>
      <path class="cls-4" d="m172.26,64.75c.05-.07.17-.13.38-.16.04.02.19,0,.46-.08.24.04.52.17.83.37l.73.41.08.07h.02s.05.05.05.05l.26.13v.03c.83.44,1.36.66,1.59.67l.61.16.06.12h.01s.84.14.84.14l.11.05c.05.07.05.14.02.19l-.05.07c-.09.14-.4.2-.93.19-.41-.02-.86-.1-1.38-.24l-.08-.04v.02c.14.36.23.64.26.84,0,.33-.04.55-.1.65-.18.19-.29.29-.32.3-.04.11-.1.24-.19.4-.2.2-.43.34-.69.42-.43.07-.77.04-1.01-.1-.34-.15-.63-.3-.88-.45l-.08-.07-.16-.1h-.02s0-.02,0-.02l-.17-.12-.06-.02-.05-.05-.07-.03c-.59-.44-1.04-.82-1.33-1.12-.17-.17-.21-.32-.13-.45.12-.07.21-.11.3-.13l.06-.08c.12-.15.24-.25.38-.3.16-.02.31.02.45.12l.03.05h.05s.09.1.09.1l.1.04.06.06.07.02.07.07.07.02.25.21.07.03.08.07.5.29v.03s.01,0,.01,0c.58.33,1.01.53,1.31.59.14.02.23.02.27,0,.05-.2.02-.5-.09-.9-.1-.31-.23-.52-.4-.63l-.33-.39-.57-.28-.11-.08c-.38-.17-.75-.38-1.09-.61-.19-.13-.27-.31-.24-.53h0Zm1.1,3.73l.08.03.07.07s.07,0,.08,0l.06.06h.02s.08.04.08.04l.08.07c.56.25.89.3.98.16v-.02s-.02-.01-.02-.01c-.32-.03-.65-.11-.99-.23h-.03s-.18-.12-.18-.12l-.21-.1-.03.04Z"/>
      <path class="cls-4" d="m176.93,64.16l.02-.03c.07-.1.2-.13.38-.08.08.05.08.14.02.27v.05s.07.02.07.02v.03s.01,0,.01,0l.07.03.16.17.04.03c.12,0,.21.02.26.06.26.18.4.41.41.69l-.11.32c-.12.12-.28.2-.49.23l-.02.03c0,.05-.01.1-.04.14-.16.14-.37.13-.62-.04-.05-.03-.16-.16-.34-.38l-.06-.02c-.19-.19-.24-.34-.17-.45.03-.05.04-.13,0-.23l.04-.22.03-.04s.1-.1.21-.15c0-.17.02-.31.1-.42Zm.68,1.18l.04.03h.04c-.03-.15-.1-.26-.23-.35l-.06.02c.05.14.12.24.21.3Z"/>
      <path class="cls-4" d="m175.42,60.03l.05-.04.02-.03h-.01c.25-.37.65-.58,1.23-.61.09.04.17.06.22.05.11.08.14.2.1.38l-.04.09c-.25.13-.44.31-.59.53-.23.35-.24.77-.02,1.28.03.01.1-.02.2-.1.06,0,.3-.2.71-.56.49-.52.83-.83,1.04-.93.21-.15.51-.26.89-.32.23,0,.46.07.67.22l.04.03c.12.08.26.27.42.57.12.45.15.79.09,1.02-.13.52-.29.93-.48,1.23v.02s0,.01,0,.01h-.02s-.01.02-.01.02l-.09.16-.07.11v.02s-.02,0-.02,0l-.11.16c-.44.66-1.01.94-1.69.82-.01.02-.06,0-.15-.04v-.05s.13-.06.13-.06l.03-.04-.03-.02.02-.03s.15-.09.38-.16l.03-.04-.08-.05-.07-.02c-.06-.07-.09-.14-.09-.22-.08-.06-.12-.13-.12-.23l-.13-.19.02-.03.08.03h0s.05-.14.05-.14l.03-.04c.08-.06.18-.06.29.01.08.05.15.07.22.05l.16.12c.11-.04.3-.22.57-.53v-.02s.07-.09.07-.09c.21-.31.33-.65.36-1.04-.03-.31-.12-.52-.26-.61-.17-.12-.51-.06-1,.17l-.22.15c-.05-.04-.23.1-.53.4-.34.43-.61.72-.83.87-.4.2-.72.22-.96.06l-.37-.13c-.56-.37-.61-1.09-.16-2.15l.03-.08Z"/>
      <path class="cls-4" d="m180.69,58.56l.02-.03c.07-.1.2-.13.38-.08.08.05.08.14.02.27v.05s.07.02.07.02v.03s.01,0,.01,0l.07.03.16.17.04.03c.12,0,.21.02.26.06.26.18.4.41.41.69l-.11.32c-.12.12-.28.2-.49.23l-.02.03c0,.05-.01.1-.04.14-.16.14-.37.13-.62-.04-.05-.03-.16-.16-.34-.38l-.06-.02c-.19-.19-.24-.34-.17-.45.03-.05.04-.13,0-.23l.04-.22.03-.04s.1-.1.21-.15c0-.17.02-.31.1-.42Zm.68,1.18l.04.03h.04c-.03-.15-.1-.26-.23-.35l-.06.02c.05.14.12.24.21.3Z"/>
    </g>
    <g>
      <path class="cls-4" d="m217.69,47.39c.05.1.04.25-.02.45l.19.23c.06.15.08.29.04.41h-.01s-.05.03-.05.03l-.09.09c-.15.04-.3-.06-.45-.28-.1-.14-.68-.64-1.76-1.49l-.3.29-.08.03-.21.16h0s-.02,0-.02,0l-.13.09-.1.08-.07.04-.59.41-.2.13v.04c.18.12.54.42,1.1.91.07.1.06.25-.04.44l-.03.02.03.05h.05c.12.16.15.32.1.46.03.04.01.09-.06.14-.18.1-.32.08-.41-.06-.24-.27-.54-.57-.89-.88l-.58-.44c-.09-.06-.15-.08-.18-.06l-.3.18h0s-.02,0-.02,0l-.13.11-.17.1h0s-.02,0-.02,0l-.53.36h-.02s0,.01,0,.01l-.24.16-.19.15h0s1.01.79,1.01.79l.7.58.05.02c.05.15.05.29-.02.42-.02.05-.08.11-.18.19v.04s.08.07.14.15c.08.12.09.26.03.42-.18.12-.31.12-.39,0-.01,0-.05-.03-.1-.1v-.04s-1.72-1.46-1.72-1.46c-.43-.43-.78-.72-1.02-.87-.05-.1-.09-.23-.12-.4l-.54-.37c-.05-.12-.07-.2-.05-.23,0-.13.09-.28.26-.44l.05-.03c.17-.04.3.01.39.16l.52.45.2-.09.05-.05.43-.26.11-.11h.02s.03-.02.03-.02l.11-.09.17-.07.12-.12.1-.05.16-.14h.04s.07-.08.07-.08l.04-.02h0s.01-.02.01-.02l.04-.02s.03-.06.02-.11l-.02-.03c-.18-.1-.29-.18-.35-.26-.06-.26.02-.45.22-.59.16-.07.28-.05.35.07.35.26.53.39.55.37.03,0,.07,0,.11-.02l.06-.04v-.02s.02,0,.02,0h.01s.2-.16.2-.16l.08-.03v-.02s.02,0,.02,0l.1-.03.33-.26.1-.05.03-.02.06-.06.14-.06c.36-.28.53-.43.51-.45l-.33-.29c-.03-.11.03-.25.16-.42l.07-.07.03-.02c.16-.11.3-.09.4.07.01,0,.07.04.19.13.02-.01.04,0,.08.06.06.02.12,0,.18-.04l.15.1.03.07.05.05.06.12c.36.3.65.52.85.66.32.21.65.46.97.75l.15.1Z"/>
      <path class="cls-4" d="m218.57,52.81c.05.07.05.21,0,.41-.04.02-.07.18-.1.46-.13.21-.35.42-.66.63l-.66.53-.09.04v.02s-.07.03-.07.03l-.22.19h-.02c-.72.59-1.13,1-1.22,1.21l-.38.5h-.14s-.01.02-.01.02l-.44.73-.09.08c-.09.02-.15,0-.19-.06l-.05-.07c-.09-.13-.03-.45.17-.94.17-.37.41-.77.74-1.18l.06-.06v-.02c-.4,0-.7-.02-.89-.06-.31-.13-.49-.24-.56-.34-.11-.24-.16-.38-.16-.41-.09-.08-.19-.19-.3-.33-.11-.26-.16-.53-.13-.8.1-.43.26-.73.48-.9.26-.26.51-.47.74-.64l.09-.04.16-.11v-.02s.03,0,.03,0l.17-.12.05-.05.06-.02.05-.05c.63-.38,1.15-.65,1.53-.81.22-.09.38-.08.47.05.02.13.02.24.01.32l.06.08c.09.16.14.32.13.47-.04.15-.14.28-.28.37h-.05s-.03.06-.03.06l-.11.05-.07.07-.08.03-.05.06-.1.04-.04.05-.29.15-.05.05-.09.04-.46.35h-.02s-.01,0-.01,0c-.52.41-.87.74-1.04.99-.07.12-.11.2-.09.25.16.12.45.2.87.25.32.03.57-.02.74-.13l.49-.16.47-.43.11-.08c.3-.29.63-.55.98-.78.19-.13.39-.14.58-.02h0Zm-3.88-.37l-.06.07-.1.04s-.04.07-.03.08l-.08.04h-.02s-.06.07-.06.07l-.09.04c-.44.43-.61.71-.52.85h.02s.02,0,.02,0c.15-.29.34-.56.59-.83v-.03s.19-.12.19-.12l.17-.15-.03-.04Z"/>
      <path class="cls-4" d="m220.61,55.84l.09.16.11.16c.13.39.21.69.24.92.02.13,0,.35-.08.68-.05.04-.09.09-.12.14l-.08.03-.03.02-.05.05c-.23.11-.56.14-1,.09-.25,0-.57-.07-.95-.22-.16-.1-.26-.14-.29-.13-.03.02,0,.15.06.39.03.3.14.68.34,1.12.31.94.34,1.68.08,2.2l-.07.02-.07.07c-.17.07-.28.08-.31.05l-.06-.12h-.07s-.03-.05-.03-.05c-.08-.12-.13-.41-.14-.87-.03-.34-.08-.75-.16-1.23,0-.23-.06-.45-.2-.65h-.02c-.03-.13-.12-.31-.26-.53h-.02s-.1-.2-.1-.2l-.06-.02c-.28.19-.55.42-.81.67h-.02s-.02,0-.02,0l-.34.39c-.08.05-.21-.02-.41-.23-.04-.06,0-.25.1-.56-.09-.01-.15-.04-.18-.1h-.03s-.05-.05-.05-.05c-.03-.13,0-.25.06-.36.25-.35.62-.78,1.09-1.26-.02-.13-.03-.22-.02-.29-.02-.05.03-.15.15-.28.09-.06.21-.05.35.05.2-.2.42-.41.67-.61.38-.23.59-.32.63-.26v.08s.04.01.1-.01l.04-.09.03-.02c.15-.1.41-.09.78.03.3.14.52.27.65.4.03-.02.18.12.45.42Zm-3.86,1.43l-.05.04s-.05.09-.11.14h0s-.02,0-.02,0h-.01c-.12.13-.17.2-.16.22h0s.31-.23.31-.23l.06-.02.07-.08.04-.03c-.04-.06-.08-.07-.14-.03Zm-.37.41h-.02s-.01,0-.01,0v.07s.03-.03.03-.03v-.05Zm2.97-1.52c-.14.22-.41.49-.79.81v.02s0,.02,0,.02c.07.11.38.17.92.18.27.06.49.08.67.07l.12-.06s-.03-.17-.2-.44h-.01s0-.02,0-.02l-.04-.05c-.14-.21-.35-.39-.61-.53h-.06Z"/>
      <path class="cls-4" d="m223.83,60.54c.15.36.2.66.14.91.01.02-.05.07-.18.16l-.07.03c.12.17.06.49-.16.96-.06.16-.15.29-.27.4-.11.21-.21.35-.32.42l-.07.02-.33.35-.11.03-.16.13-.05.03-.43.22v.02s-.02.01-.02.01c-.41.16-.88.19-1.41.1-.38-.14-.66-.35-.85-.63h-.03c-.15-.22-.26-.54-.35-.98-.03-.67.18-1.31.62-1.92l.4-.43h.03s.06-.06.06-.06l.12-.08c.12-.08.5-.2,1.14-.34h0c.28-.08.48-.11.6-.08.37-.09.76-.02,1.19.2.17.1.34.27.51.51Zm-2.77.62c-.81.55-1.18,1.13-1.13,1.75l.05.1c.31.46.94.46,1.9.02l.06-.04c.19-.13.41-.48.69-1.07-.02-.02.07-.24.25-.66l-.02-.03c-.35-.28-.62-.42-.82-.43-.37.06-.7.18-.97.36Z"/>
      <path class="cls-4" d="m227.5,66.24c.06.22.04.4-.05.56.03.05-.05.15-.26.29-.09.06-.27,0-.52-.17-.49-.13-1.06-.24-1.68-.34-.92-.13-1.49-.21-1.71-.22h-.03s-.01,0-.01,0v.05c.38.55.75.94,1.12,1.19v.02c.52.48.9.89,1.13,1.23l.21.31h.02s0,.03,0,.03l.11.16.05.05c.07.1.1.24.11.42l.58.74c.06.09.06.21,0,.36l-.05.12c-.19.13-.31.15-.36.07-.12-.06-.31-.24-.57-.55h-.02s0-.03,0-.03v-.02c-.1-.09-.31-.38-.65-.85h-.02s0-.01,0-.01c-.64-.86-1.04-1.35-1.2-1.49l-.03-.07c-1.02-.86-1.63-1.43-1.83-1.71l-.12-.18h-.03c-.11-.25-.16-.44-.15-.58.04-.04.02-.2-.09-.48-.01-.06,0-.15.02-.26-.02-.09.03-.18.15-.26.14-.1.4-.07.79.08l.63.23s.14.01.32.11c.15.07.32.12.5.16.3.16.94.34,1.93.51.03-.02.06,0,.08.03h.03s.04-.03.04-.03l-.12-.18c-.37-.41-.82-.79-1.33-1.14l-.13-.13-.12-.24c-.1-.05-.17-.1-.19-.13l-.06-.09c-.07-.24-.06-.4.05-.47l.11-.07c.06-.04.18-.02.37.07.13-.09.35.04.67.38l.53.51.07-.03h0c.05-.03.1-.02.14,0l-.06.13v.05s.78.91.78.91v.03s0,.01,0,.01l.07.04v.03s.11.16.11.16l.35.32h-.01c.11.09.22.2.31.32Z"/>
      <path class="cls-4" d="m230.55,70.48c.15.36.2.66.14.91.01.02-.05.07-.18.16l-.07.03c.12.17.06.49-.16.96-.06.16-.15.29-.27.4-.11.21-.21.35-.32.42l-.07.02-.33.35-.11.03-.16.13-.05.03-.43.22v.02s-.02.01-.02.01c-.41.16-.88.19-1.41.1-.38-.14-.66-.35-.85-.63h-.03c-.15-.22-.26-.54-.35-.98-.03-.67.18-1.31.62-1.92l.4-.43h.03s.06-.06.06-.06l.12-.08c.12-.08.5-.2,1.14-.34h0c.28-.08.48-.11.6-.08.37-.09.76-.02,1.19.2.17.1.34.27.51.51Zm-2.77.62c-.81.55-1.18,1.13-1.13,1.75l.05.1c.31.46.94.46,1.9.02l.06-.04c.19-.13.41-.48.69-1.07-.02-.02.07-.24.25-.66l-.02-.03c-.35-.28-.62-.42-.82-.43-.37.06-.7.18-.97.36Z"/>
      <path class="cls-4" d="m233.15,74.23c.06.25.02.42-.13.52-.14.1-.2.17-.19.19.03.04,0,.11-.07.22.02.02-.03.07-.13.15l-.1.03c-.43.31-.63.47-.62.49h-.02c-.43.43-.75.77-.94,1.02l-.47.54c-.53.58-.84.92-.92,1.04-.03.07-.07.14-.12.19-.07.05-.15.05-.22,0-.04.02-.09,0-.15-.07h-.02c-.09-.13-.09-.35-.01-.67.14-.72.24-1.13.3-1.23l.26-.86c.09-.26.14-.41.14-.47h-.04s-.2.15-.2.15l-.14.07c-.65.48-1,.77-1.05.86h-.02s-.04.04-.04.04c-.09.06-.19.07-.3.02-.07-.18-.1-.32-.06-.42l.16-.28.03-.18c.23-.36.62-.81,1.18-1.34,0-.01.15-.17.48-.46l.15-.13h.02s.05-.05.05-.05l.36-.23h.02s.1-.07.1-.07c.06-.08.11-.14.17-.17.05-.04.14-.01.27.07l.03.04c.04.06.05.16.04.3-.02.02-.03.07-.03.16h.02c.1.15.13.27.1.37.03.04-.06.18-.26.41l-.13.76c-.16.61-.28,1.04-.36,1.28h.02s0,0,0,0c.41-.35,1.03-.91,1.85-1.69l.62-.59c.18-.09.3-.09.37,0Z"/>
      <path class="cls-4" d="m235.58,77.96v.03s.07.11.07.11h.02s.01.05.01.05l.06.06c.12.21.16.36.13.45l.02.03h.01s.05.11.05.11h-.01s-.03,0-.03,0c-.08-.06-.13-.08-.16-.07l.05.1-.03.02s-.16-.05-.35-.24c-.09-.05-.23-.18-.44-.4-.44-.39-.68-.58-.71-.56v.03s0,.01,0,.01c.9.91,1.46,1.54,1.69,1.88l.05.07c.1.25.09.42-.03.5l-.06.06h-.01s-.1.03-.19,0c-.04.03-.26-.2-.66-.69-.33-.35-.74-.77-1.24-1.26-.02.01-.06-.03-.12-.13l-.12-.09c-.24.12-.48.26-.7.41l-.04.03v.07s1.05.99,1.05.99v.02s.34.4.34.4l.08.14.03.04s.01.07.05.12c-.02.23-.02.36,0,.39l-.04.08c-.05.06-.07.09-.06.1-.14.03-.28,0-.43-.1-.47-.39-.92-.82-1.35-1.28-.34-.32-.56-.44-.65-.39l-.07.05c-.17.11-.3.19-.4.23l-.04.06h-.02s-.05.03-.05.03v.04s0,.03,0,.03c.21.21.47.46.78.73v.02s0,.01,0,.01c.06.07.12.13.18.16.11.16.21.28.3.36v.1s.03.03.03.03c.05.01.08.03.1.06l.02.03s0,.03-.03.05c.14.14.33.31.57.5l.12.15c.11.24.12.4.01.47l-.09.1c-.18.02-.29,0-.35-.09-.09-.06-.25-.22-.48-.49-.73-.72-1.16-1.12-1.29-1.2-.03-.04-.23-.17-.59-.39-.19-.1-.3-.18-.34-.23l-.07-.28-.31-.2c-.13-.29-.13-.47-.02-.54,0-.01.02-.05.08-.11l.09-.04.05-.05.28-.02c.65-.38,1.07-.62,1.27-.7l.05-.05,1.15-.64s.03-.15.02-.38c.04-.1.08-.17.13-.2.05-.02.12-.03.22-.02.01,0,0-.09-.07-.24,0-.17.04-.28.1-.32l.05-.03c.16-.11.29-.1.41,0l.04.03v.02s0,.02,0,.02c.24.26.67.67,1.29,1.22l.58.6Zm-1.35-.37h-.02s-.03.02-.03.02h0s.05.02.05.02v-.02s0-.01,0-.01Z"/>
    </g>
    <g>
      <path class="cls-4" d="m192.43,95.31h.1c.35,0,.69.22,1.03.67.19.18.28.34.28.5.16.27.24.52.24.73-.08.14-.15.21-.22.21-.15-.03-.26-.08-.31-.16-.11-.14-.16-.3-.18-.48l-.02-.02s-.12-.26-.36-.67c-.09-.09-.21-.13-.36-.13-.28.08-.42.17-.42.27-.17.17-.39.74-.66,1.7-.15.49-.26,1.13-.33,1.92,0,.45.29,1.21.88,2.26.02,0,.06.06.11.18l.02.02h.02c.26-.09.53-.33.79-.71l.52-1.03s.07-.04.07-.07l-.03-.06.25-.3h.02v.03h.05v-.05h-.05s.05-.06.09-.06v-.02h-.03v-.02s.1-.05.18-.15h.02l.02.06.1-.02h.08v.02l-.02.06.05.08c0,.07-.08.32-.24.74-.14.42-.31.83-.51,1.23-.1.2-.22.49-.36.88-.23.46-.39.7-.49.7l-.1.03c-.19-.04-.34-.14-.45-.3-.02,0-.1-.13-.24-.39-.03-.08-.11-.12-.24-.12-.38-.14-.61-.28-.7-.43-.22-.2-.37-.44-.45-.7l-.15-.4.02-.02v-.02c-.07-.17-.12-.59-.16-1.25l.02-.24-.02-.02v-.02l.02-.06-.02-.07.03-.3-.02-.02.06-.53h-.02l.05-.36-.02-.07.07-.22-.02-.11.08-.24-.02-.04c.07-.13.11-.21.11-.25l-.02-.02v-.02c.06-.1.12-.24.18-.43.07-.13.12-.19.16-.19v-.08c.03-.06.07-.11.13-.15,0-.08.16-.28.49-.58.24-.48.53-.72.88-.72Zm-1.21,6.46v.02l.15.22v-.03l-.11-.21h-.04Z"/>
      <path class="cls-4" d="m198.07,97.47h.17c.23.16.35.35.35.55.27,0,.42.25.46.76,0,.15.01.22.04.22l-.02.02v.02c.1.7.18,1.33.24,1.9l-.02.02v.02l.05.3-.02.02v.02l.05.36-.02.14.02.07-.02.07.12.95-.02.05.02.02v.02c-.02.06-.05.12-.1.17l.07.27-.15.14-.17.02c-.27-.05-.53-.56-.76-1.53l.02-.02v-.02c-.05-.15-.09-.3-.1-.45h-.02l.02-.02v-.02c-.07-.51-.13-.76-.15-.76l-1.31.2-.07.05c.03.5.05.74.07.74l-.02.05.14.62-.2.17-.11-.04c0,.18-.03.27-.1.27h-.09s-.01.05-.04.05c-.21,0-.46-.44-.76-1.32l-.03-.04-.14.04h-.14c-.14,0-.28-.09-.43-.27-.05-.08-.07-.15-.07-.21h-.02c0-.16.15-.28.46-.36l.02.02h.02c.07-.02.1-.05.1-.09-.17-.82-.29-1.47-.36-1.94-.03-.05-.06-.2-.1-.46h-.02l.02-.02v-.04l-.02-.1c0-.08.1-.16.29-.24.25.11.38.22.38.31.02,0,.05.07.07.22l.02.02h.05l.09-.07.02.02h.21c.32.05.48.18.48.4.04,0,.1.48.16,1.43l.81-.19.43-.05.06.02s.06-.04.07-.07c-.13-.68-.21-1.23-.26-1.67l-.02-.02.02-.14-.02-.12c0-.23.1-.39.3-.47Z"/>
      <path class="cls-4" d="m199.84,97.49c.22,0,.33.03.33.1.08.05.14.18.19.39h.04c.08-.03.2-.06.36-.07.18,0,.32.13.42.39l-.02.02.02.02-.02.02.02.02h-.02l.02.02v.02l.02.38h.02l-.02.02v.02l.05.67-.02.21.02.05-.02.1v.08l.02.07-.02.02v.02l.02.1-.02.38v.03l.02.15-.02.13-.02.98h.02l-.02.02c0,.28.05.57.15.87,0,.1-.07.17-.21.23-.3,0-.49-.09-.59-.28l-.18.2-.02-.02h-.02l-.08.02c-.15-.16-.23-.44-.23-.83l.02-.1-.02-.05.02-.15v-.04l-.02-.08.03-.23c0-.34-.12-1.34-.37-2.98l-.05-.47c0-.21.06-.34.19-.39Z"/>
      <path class="cls-4" d="m203.9,97.42c.24.09.36.22.36.4,0,.17.02.26.05.26.05,0,.1.06.14.18.03,0,.04.06.05.19l-.04.1c.02.53.04.79.06.79v.02c.1.6.21,1.05.31,1.35l.18.7c.18.76.3,1.21.35,1.34.04.07.07.14.09.2,0,.09-.04.15-.13.18,0,.04-.05.07-.14.09l-.02.02c-.15,0-.34-.12-.55-.36-.52-.52-.8-.84-.85-.94l-.57-.7c-.16-.22-.27-.35-.31-.38l-.03.03.02.25-.02.15c.04.81.08,1.26.13,1.35v.02s0,.05,0,.05c0,.11-.05.2-.15.26-.19-.04-.32-.1-.39-.18l-.14-.28-.13-.13c-.17-.39-.32-.97-.45-1.73-.01,0-.05-.22-.12-.66l-.03-.19.02-.02-.02-.08.02-.43v-.14c-.02-.09-.04-.17-.04-.23,0-.06.07-.13.21-.18h.05c.07,0,.16.04.27.13,0,.03.04.07.12.12v-.02c.19,0,.31.04.37.13.05,0,.12.15.19.44l.55.53c.42.47.7.81.85,1.02v-.02s.01-.01.01-.01c-.06-.53-.18-1.36-.36-2.48l-.14-.85c.03-.2.1-.3.21-.3Z"/>
      <path class="cls-4" d="m207.33,97.49c.21.01.31.07.31.16.22.51.43,1.13.62,1.88.02.18.05.27.08.27h.1s.06,0,.06.02v-.02h.03c.11,0,.17.07.2.22,0,.11-.1.21-.3.3h-.01c.13.91.27,1.59.43,2.06l.02.06c-.04.13-.12.19-.24.19,0,.01-.03.02-.09.03,0,.06-.03.1-.1.1h-.14s-.02,0-.02,0h-.01s-.11-.12-.22-.37c-.13-.3-.22-.63-.27-1.01l.02-.09s-.06-.18-.1-.42h-.01s-.02-.01-.02-.01l-.47.21c-.25.08-.38.16-.38.21-.11.41-.18.62-.24.62-.12.03-.17.14-.17.32l-.15.81c-.05.05-.09.08-.11.08l-.02-.02h-.01l-.09.03-.02-.04h-.06s-.01.01-.01.01l-.05-.13c0-.31.08-.82.25-1.53h-.02s-.01-.01-.01-.01l-.34.05h-.09c-.14-.06-.21-.13-.21-.2v-.04c.05-.12.12-.18.2-.18.01-.03.11-.06.28-.08v-.02s.01-.01.01-.01l-.03-.08h0c0-.14.13-.26.4-.37.05-.04.08-.13.1-.25.02-.02.06-.2.11-.54.13-.37.24-1.01.34-1.9.08-.12.15-.17.22-.17.02-.04.09-.08.21-.14Zm-.01,1.55c-.07.18-.14.55-.22,1.11h.03c.22-.06.36-.11.42-.15-.12-.62-.19-.94-.21-.96h-.01Z"/>
    </g>
  </g>
  <g class="cls-2">
    <ellipse class="cls-3" cx="48.98" cy="214.93" rx="38.38" ry="6.2"/>
  </g>
  <path class="cls-3" d="m21.18,169.95c.16,1.25,4.31,36.7,10.35,41.67,6.04,4.97,9.21,3.29,10.43,1.98,1.29-1.39,2.91-3.87-.1-6.67-2.42-2.25-4.11-12.24-1.7-27.82l-18.98-9.14Z"/>
  <path class="cls-3" d="m44.23,167.74c.16,1.25,4.31,36.7,10.35,41.67,6.04,4.97,9.21,3.3,10.43,1.97,1.29-1.38,2.91-3.87-.1-6.67-2.42-2.26-4.12-12.24-1.7-27.82l-18.98-9.14Z"/>
  <path class="cls-1" d="m26.01,116.42c6.98-3.87,15.82-5.95,32.15-6.59-3.89-1.65-9.04-2.41-16.58-2.41h-.01c-12.9,0-18.87,2.2-23.36,7.31-5.3,6.04-7.98,23.3-8.52,36.74.86-12.62,5.98-29.3,16.32-35.05Z"/>
  <path class="cls-5" d="m9.68,151.47c-.12,1.85-.15,3.61-.1,5.24,0-1.65.03-3.41.1-5.24Z"/>
  <path class="cls-1" d="m21.44,91.34c-2.07-11.47,5.99-18.18,25.97-19.38,6.34-.38,12.2-7.82,16.78-9.19,13.18-3.92,16.3,4.67,16.3,4.67h.03c-6.49-14.84-25-23.52-44.64-19.89C13.59,51.67-1.68,70.1,1.76,88.7c3.44,18.61,24.3,30.35,46.58,26.23,1.94-.36,3.83-.83,5.65-1.4v-.02c-19.38,4.99-29.81-6.94-32.56-22.17Z"/>
  <path class="cls-5" d="m82.46,73.78c-.41-2.22-1.07-4.33-1.95-6.33h-.03s-3.13-8.59-16.3-4.67c-4.58,1.36-10.44,8.81-16.78,9.19-19.97,1.2-28.04,7.9-25.97,19.38,2.75,15.23,13.19,27.16,32.56,22.17v.02c19.15-5.94,31.61-22.77,28.46-39.75Z"/>
  <path class="cls-7" d="m61.72,105.97c-4.24.96-13.27-1.18-13.31-10.35-.04-9.16,9.9-12.13,13.25-12.89,3.35-.75,13.3-2.27,13.34,6.89.04,9.17-9.03,15.39-13.28,16.35Z"/>
  <path class="cls-3" d="m61.87,85.1c1.84-.42,4.58,1.01,4.91,3.32.33,2.31-5.01,3.43-5.01,3.43l-.16.03s-5.34,1.29-5.02-1.17c.31-2.46,3.03-5.11,4.87-5.53l.4-.09Z"/>
  <path class="cls-3" d="m60.25,101.68c-.46,0-.91-.05-1.34-.15-.91-.21-1.71-.6-2.4-1.17-.69-.57-1.23-1.3-1.62-2.16-.08-.17,0-.37.17-.44.17-.08.37,0,.44.17.34.77.83,1.42,1.43,1.92.6.5,1.32.85,2.12,1.03.82.18,1.7.17,2.6-.03.91-.21,1.8-.6,2.64-1.16.81-.55,1.54-1.24,2.16-2.04.63-.81,1.12-1.7,1.45-2.64.06-.17.26-.26.43-.2.17.06.27.26.2.43-.36,1.01-.89,1.96-1.56,2.82-.67.86-1.44,1.6-2.32,2.19-.91.61-1.87,1.04-2.87,1.26-.53.12-1.05.18-1.55.18Z"/>
  <circle class="cls-3" cx="43.81" cy="83.55" r="1.68"/>
  <circle class="cls-3" cx="69.78" cy="74.36" r="1.68"/>
  <path class="cls-5" d="m27.55,93.32c1.29,6.49.27,12.15-2.27,12.66-2.54.5-5.64-4.35-6.93-10.83-1.29-6.49-.27-12.15,2.27-12.65,2.54-.51,5.64,4.34,6.93,10.82Z"/>
  <path class="cls-3" d="m23.37,86.62c-2.09.43-3.13,4.68-2.85,10.4-.19-.69-.37-1.42-.51-2.18-.98-5.1-.44-9.51,1.22-9.85.7-.15,1.5.48,2.25,1.62-.03,0-.07,0-.1,0Z"/>
  <path class="cls-7" d="m38.64,84.97c-.19,0-.35-.15-.37-.34-.06-.64.01-1.27.2-1.88.19-.61.49-1.17.89-1.67.42-.51.92-.93,1.51-1.24.59-.31,1.22-.5,1.88-.56.21-.02.38.13.4.34.02.2-.13.38-.34.4-.56.05-1.09.21-1.59.47-.5.26-.93.62-1.28,1.05-.34.42-.6.9-.76,1.42-.16.52-.22,1.06-.17,1.6.02.2-.13.38-.34.4-.01,0-.02,0-.03,0Z"/>
  <path class="cls-7" d="m74.08,72.44c-.13,0-.26-.07-.32-.19-.27-.49-.64-.92-1.08-1.26-.45-.35-.95-.6-1.48-.74-.53-.14-1.07-.18-1.6-.11-.53.07-1.06.24-1.53.5-.18.1-.41.03-.5-.14-.1-.18-.04-.41.14-.5.56-.31,1.16-.51,1.79-.59.63-.08,1.27-.04,1.89.13.63.17,1.22.46,1.75.87.52.41.95.91,1.28,1.49.1.18.04.41-.14.5-.06.03-.12.05-.18.05Z"/>
  <path class="cls-5" d="m64.93,114.73c-1.64-1.87-3.48-3.34-5.78-4.47-.32-.15-.66-.29-1-.44-2.63.1-5.05.25-7.31.43-5.56.19-9.91.82-13.44,1.93-4.56,1.06-8.17,2.45-11.39,4.24-10.35,5.75-15.47,22.43-16.32,35.05-.07,1.83-.11,3.59-.1,5.25.02,4.27.29,7.81.8,9.95.55,2.32,2.77,4.29,6.25,5.86,5.55,2.49,14.35,3.91,24.93,3.91h.01c.99,0,1.96-.02,2.92-.04.3,0,.59-.02.88-.03.67-.03,1.32-.05,1.97-.09.32-.02.64-.04.96-.05.63-.04,1.25-.09,1.86-.13.29-.03.58-.04.86-.08.74-.06,1.47-.14,2.18-.23.12-.02.25-.03.38-.04.84-.1,1.66-.22,2.45-.35.19-.03.38-.07.57-.1.59-.1,1.18-.21,1.75-.32.24-.05.47-.09.71-.15.51-.11,1.01-.22,1.5-.34.22-.06.45-.11.67-.16.53-.14,1.04-.28,1.54-.44.12-.03.24-.06.36-.1h-.02c3.41-1.06,6.05-2.4,7.73-4,.02-.02.03-.04.05-.05.31-.3.6-.62.84-.93.09-.12.15-.26.24-.39.14-.22.3-.44.41-.66.18-.36.31-.72.4-1.1,2.16-9.05.08-42.95-7.82-51.93Z"/>
  <ellipse class="cls-5" cx="41.68" cy="162.64" rx="31.69" ry="24.97"/>
  <path class="cls-3" d="m45.17,210.14c.76.22,1.59.09,1.87-.42.28-.51-.17-1.39-1.08-1.82-2.46-1.17-5.28-1.55-8.06-1.01-1.03.21-1.45,1.29-.98,2.24.47.96,1.34,1.47,2.01,1.22,1.92-.71,4.1-.83,6.23-.21Z"/>
  <path class="cls-3" d="m43.99,214.55c.67.42,1.5.52,1.92.11s.22-1.38-.53-2.05c-2.04-1.81-4.64-2.95-7.46-3.21-1.05-.09-1.75.83-1.56,1.88.19,1.06.88,1.79,1.59,1.74,2.04-.16,4.16.35,6.04,1.53Z"/>
  <path class="cls-3" d="m40.74,217.89c.4.68,1.1,1.16,1.66.98.55-.18.83-1.13.46-2.07-.99-2.54-2.79-4.74-5.18-6.25-.89-.56-1.94-.07-2.25.96-.31,1.03-.03,1.99.63,2.27,1.88.79,3.55,2.21,4.68,4.11Z"/>
  <path class="cls-3" d="m69.27,207.52c.75.21,1.59.09,1.87-.42.28-.51-.17-1.4-1.08-1.83-2.46-1.17-5.28-1.55-8.06-1.01-1.03.2-1.45,1.28-.98,2.24.47.97,1.34,1.47,2.01,1.23,1.92-.71,4.1-.83,6.23-.21Z"/>
  <path class="cls-3" d="m68.09,211.93c.67.42,1.5.53,1.91.11.42-.41.23-1.39-.53-2.05-2.04-1.81-4.65-2.96-7.46-3.21-1.05-.09-1.75.83-1.56,1.88.19,1.06.88,1.78,1.59,1.73,2.04-.15,4.17.35,6.04,1.54Z"/>
  <path class="cls-3" d="m64.83,215.27c.4.68,1.1,1.16,1.66.97.55-.18.83-1.13.46-2.07-.99-2.54-2.79-4.75-5.18-6.25-.89-.56-1.93-.06-2.24.96-.32,1.03-.03,1.99.63,2.27,1.89.8,3.55,2.21,4.68,4.11Z"/>
  <path class="cls-1" d="m58.11,142.98c-.17,0-.34-.02-.51-.05-1.46-.28-2.41-1.69-2.13-3.15l3.29-17c.28-1.46,1.7-2.41,3.15-2.13,1.46.28,2.41,1.69,2.13,3.15l-3.29,17c-.25,1.28-1.37,2.18-2.63,2.18Z"/>
  <g>
    <path class="cls-3" d="m29.7,123.42c-1.78-2.13-4.8-2.75-7.17-.85-2.37,1.89-2.76,6.44-.3,9.44,6.99,8.52,17.2,12.67,28.16,11.41,3.85-.44,6.74-3.98,6.36-6.98-.38-3.02-2.98-4.68-5.74-4.39-8.29.95-16.01-2.18-21.3-8.63Z"/>
    <path class="cls-3" d="m59.51,134.33c.74-.14,1.4-.6,1.42-1.16.02-.56-.74-1.12-1.7-1.09-2.6.05-5.16.93-7.3,2.56-.79.62-.69,1.71.12,2.33.81.62,1.77.68,2.23.18,1.33-1.42,3.15-2.45,5.22-2.83Z"/>
    <path class="cls-3" d="m60.39,138.59c.75.07,1.51-.19,1.68-.72.18-.53-.4-1.28-1.32-1.52-2.51-.67-5.22-.54-7.72.44-.93.37-1.14,1.45-.53,2.27.61.82,1.51,1.14,2.09.8,1.67-.99,3.7-1.47,5.79-1.26Z"/>
    <path class="cls-3" d="m59.03,142.82c.63.41,1.43.52,1.82.12.39-.39.22-1.32-.49-1.96-1.92-1.74-4.4-2.85-7.07-3.12-.99-.1-1.67.77-1.5,1.78.17,1.01.82,1.7,1.5,1.66,1.94-.12,3.97.37,5.74,1.52Z"/>
  </g>
  <path class="cls-1" d="m235.37,92.72h-70.24l32.28-53.08,37.96,53.08Zm-68.46-1h66.52l-35.95-50.27-30.57,50.27Z"/>
</svg>