<?xml version="1.0" encoding="UTF-8"?>
<svg id="Layer_1" data-name="Layer 1" xmlns="http://www.w3.org/2000/svg" width="300" height="225" viewBox="0 0 300 225">
  <defs>
    <style>
      .cls-1 {
        fill: #fff;
      }

      .cls-2 {
        fill: #ff7e1c;
      }

      .cls-3 {
        fill: #ea651b;
      }
    </style>
  </defs>
  <g>
    <path class="cls-2" d="m214.79,33.58l-42.48,32.41c-.82.63-.59,1.92.41,2.22l46.1,13.76c.85.25,1.69-.43,1.62-1.31l-3.62-46.17c-.08-1-1.23-1.51-2.03-.91Z"/>
    <path class="cls-2" d="m200.92,56.93h0c-1.81,1.53-4.51,1.49-6.21-.17-20.57-20.07-58.77-17.77-82.46-.39-1.94,1.42-4.67,1.02-6.23-.82l-11.87-14.02c-1.7-2.01-1.45-5.1.65-6.69,34.21-25.78,77.17-16.5,106.59,15.38,1.78,1.93,1.53,5.01-.48,6.71Z"/>
  </g>
  <g>
    <path class="cls-2" d="m183.76,212.79l-7.35-52.93c-.14-1.02-1.39-1.45-2.13-.74l-34.64,33.39c-.64.62-.46,1.68.34,2.06l41.99,19.54c.91.42,1.92-.33,1.79-1.32Z"/>
    <path class="cls-2" d="m170.24,189.24h0c-.45-2.33.92-4.65,3.2-5.32,27.59-8.05,44.36-42.44,40.87-71.62-.29-2.39,1.41-4.57,3.78-5.02l18.04-3.45c2.59-.49,5.16,1.24,5.5,3.85,5.63,42.46-23.56,75.32-65.78,85.26-2.56.6-5.11-1.13-5.6-3.71Z"/>
  </g>
  <g>
    <path class="cls-2" d="m44.53,96.34l49.67,19.69c.96.38,1.95-.49,1.69-1.49l-11.98-46.6c-.22-.86-1.24-1.23-1.96-.71l-37.69,26.91c-.82.58-.66,1.84.27,2.2Z"/>
    <path class="cls-2" d="m71.69,96.18h0c2.25.76,3.6,3.09,3.05,5.4-6.59,27.97,15.07,59.51,42.18,70.85,2.22.93,3.28,3.48,2.51,5.76l-5.89,17.4c-.85,2.5-3.62,3.88-6.07,2.89-39.72-16.02-53.93-57.62-41.77-99.26.74-2.53,3.5-3.89,5.99-3.05Z"/>
  </g>
  <g>
    <path class="cls-3" d="m195.68,102.93l3.86,24.53c.04.23-.14.43-.37.43l-8.23.02c-.23,0-.4-.2-.37-.42l3.2-25.15,1.61.27c.16.03.28.15.31.31Z"/>
    <path class="cls-3" d="m187.47,107.62l15.78-.12c.31,0,.48-.35.3-.6l-8.45-11.43c-.16-.21-.48-.2-.62.02l-7.33,11.55c-.16.25.02.58.32.57Z"/>
  </g>
  <g>
    <path class="cls-3" d="m114.37,138.62c2.5,3.09,5.53,5.84,9.05,8.12,17.88,11.54,41.74,6.41,53.28-11.48,6.16-9.54,7.57-20.78,4.83-30.94-.93,6.36-3.2,12.63-6.91,18.38-13.07,20.25-39.3,26.88-60.25,15.92Z"/>
    <path class="cls-2" d="m111.95,93.46c-9.27,14.36-7.78,32.57,2.42,45.16,20.95,10.96,47.17,4.33,60.25-15.92,3.71-5.75,5.99-12.02,6.91-18.38-2.4-8.89-7.96-16.95-16.3-22.34-17.88-11.54-41.74-6.41-53.28,11.48Z"/>
    <path class="cls-1" d="m156.04,114.77c.86,1.08,1.21,2.56,1.03,4.46-.26,2.29-1.21,3.95-2.84,4.98-1.42.86-3.56,1.38-6.4,1.55v4.39h-3.17v-4.33h-2.46v4.33h-3.17v-4.39h-6.27l.65-3.75h.65c1.03.04,1.7.02,2-.07.43-.13.69-.45.78-.97v-14.03c-.13-.69-.49-1.12-1.1-1.29-.39-.13-1.21-.17-2.45-.13h-.52v-3.36l1.94.07c2.28,0,3.72-.02,4.33-.07v-5.1h3.17v5.04l2.46-.07v-4.97h3.16v5.1c2.2.21,3.88.69,5.04,1.42,1.42.86,2.2,2.15,2.33,3.88.26,2.5-.62,4.27-2.65,5.3h0c1.6.34,2.76,1.02,3.49,2.01h0Zm-13.77-2.78h.52c1.81.04,3.21-.06,4.2-.32,1.72-.43,2.59-1.36,2.59-2.78s-.84-2.37-2.52-2.85c-.95-.26-2.34-.36-4.2-.32-.3.04-.5.06-.58.06v6.2h0Zm.58,10.02c2.2.04,3.85-.07,4.97-.33,2.03-.52,3.04-1.55,3.04-3.1s-.99-2.58-2.97-3.1c-1.08-.3-2.71-.41-4.91-.32h-.71v6.85h.59Z"/>
  </g>
</svg>