<?xml version="1.0" encoding="UTF-8"?>
<svg id="Layer_1" data-name="Layer 1" xmlns="http://www.w3.org/2000/svg" width="300" height="225" viewBox="0 0 300 225">
  <defs>
    <style>
      .cls-1 {
        fill: #fff;
      }

      .cls-2 {
        isolation: isolate;
        opacity: .35;
      }

      .cls-3 {
        fill: #232323;
      }

      .cls-4 {
        fill: #ff7e1c;
      }

      .cls-5 {
        fill: #444;
      }

      .cls-6 {
        fill: #3b3b3b;
      }

      .cls-7 {
        fill: #7f7f7f;
      }

      .cls-8 {
        fill: #976b42;
      }

      .cls-9 {
        fill: #704420;
      }

      .cls-10 {
        fill: #ffcf15;
      }
    </style>
  </defs>
  <g>
    <g class="cls-2">
      <ellipse class="cls-3" cx="193.49" cy="204.28" rx="84.64" ry="7.18"/>
    </g>
    <g>
      <rect class="cls-8" x="92.82" y="6.78" width="202.94" height="125"/>
      <rect class="cls-6" x="101.31" y="14.35" width="185.96" height="110.56"/>
      <rect class="cls-8" x="190.87" y="127.65" width="6.85" height="78.56"/>
      <g>
        <polygon class="cls-8" points="129.89 206.21 174.96 125.63 180.28 129.94 138.94 206.21 129.89 206.21"/>
        <polygon class="cls-8" points="258.7 206.21 213.62 125.63 208.3 129.94 249.64 206.21 258.7 206.21"/>
      </g>
    </g>
  </g>
  <g>
    <g>
      <path class="cls-3" d="m62.81,112.02c-2.5-1.21-5.51-.53-6.88,2.19-1.37,2.7.14,7.01,3.62,8.73,9.89,4.88,20.9,4.43,30.36-1.24,3.33-1.99,4.49-6.41,2.91-8.99-1.59-2.6-4.65-3.03-7.04-1.62-7.16,4.28-15.48,4.62-22.97.93Z"/>
      <path class="cls-3" d="m97.08,113.53c.76-.24,1.4-.82,1.35-1.41-.05-.6-.93-1.08-1.94-.94-2.74.38-5.35,1.65-7.4,3.66-.76.75-.51,1.9.43,2.45.94.55,1.96.49,2.39-.1,1.23-1.67,3.02-2.99,5.16-3.66Z"/>
      <path class="cls-3" d="m97.34,115.61c.7-.37,1.56-.42,1.95.03.39.45.12,1.42-.7,2.04-2.21,1.67-4.93,2.64-7.81,2.67-1.07.01-1.71-.97-1.43-2.03.27-1.06,1.03-1.74,1.75-1.63,2.05.31,4.25-.03,6.24-1.09Z"/>
    </g>
    <path class="cls-9" d="m92.94,117.25c-.24-.24-.45-.51-.62-.82-.61-1.11-.37-2.24.45-2.72l66.19-33.36c.52-.26,1.17-.64,1.85-.33,1.31.59-.26,1.24-1.5,1.95l-63.4,36.04c-.83.48-2.08.14-2.97-.75Z"/>
    <path class="cls-3" d="m96.51,112.31c.79.09,1.61-.18,1.81-.74.19-.56-.41-1.37-1.39-1.65-2.66-.76-5.56-.66-8.25.34-1,.38-1.24,1.53-.6,2.41.64.89,1.59,1.25,2.22.89,1.8-1.03,3.97-1.51,6.21-1.25Z"/>
  </g>
  <g class="cls-2">
    <ellipse class="cls-3" cx="50.7" cy="213.77" rx="38.38" ry="6.2"/>
  </g>
  <path class="cls-3" d="m22.9,169.85c.16,1.25,4.31,36.7,10.35,41.67,6.04,4.97,9.21,3.29,10.43,1.98,1.29-1.39,2.91-3.87-.1-6.67-2.42-2.25-4.11-12.24-1.7-27.82l-18.98-9.14Z"/>
  <path class="cls-3" d="m45.95,167.64c.16,1.25,4.31,36.7,10.35,41.67,6.04,4.97,9.21,3.3,10.43,1.97,1.29-1.38,2.91-3.87-.1-6.67-2.42-2.26-4.12-12.24-1.7-27.82l-18.98-9.14Z"/>
  <path class="cls-1" d="m27.73,116.32c6.98-3.87,15.82-5.95,32.15-6.59-3.89-1.65-9.04-2.41-16.58-2.41h-.01c-12.9,0-18.87,2.2-23.36,7.31-5.3,6.04-7.98,23.3-8.52,36.74.86-12.62,5.98-29.3,16.32-35.05Z"/>
  <path class="cls-1" d="m23.16,91.24c-2.07-11.47,5.99-18.18,25.97-19.38,6.34-.38,12.2-7.82,16.78-9.19,13.18-3.92,16.3,4.67,16.3,4.67h.03c-6.49-14.84-25-23.52-44.64-19.89C15.31,51.57.04,70,3.48,88.6c3.44,18.61,24.3,30.35,46.58,26.23,1.94-.36,3.83-.83,5.65-1.4v-.02c-19.38,4.99-29.81-6.94-32.56-22.17Z"/>
  <path class="cls-5" d="m84.18,73.67c-.41-2.22-1.07-4.33-1.95-6.33h-.03s-3.13-8.59-16.3-4.67c-4.58,1.36-10.44,8.81-16.78,9.19-19.97,1.2-28.04,7.9-25.97,19.38,2.75,15.23,13.19,27.16,32.56,22.17v.02c19.15-5.94,31.61-22.77,28.46-39.75Z"/>
  <path class="cls-7" d="m63.44,105.87c-4.24.96-13.27-1.18-13.31-10.35-.04-9.16,9.9-12.13,13.25-12.89,3.35-.75,13.3-2.27,13.34,6.89.04,9.17-9.03,15.39-13.28,16.35Z"/>
  <path class="cls-3" d="m63.59,84.99c1.84-.42,4.58,1.01,4.91,3.32.33,2.31-5.01,3.43-5.01,3.43l-.16.03s-5.34,1.29-5.02-1.17c.31-2.46,3.03-5.11,4.87-5.53l.4-.09Z"/>
  <path class="cls-3" d="m61.97,101.58c-.46,0-.91-.05-1.34-.15-.91-.21-1.71-.6-2.4-1.17-.69-.57-1.23-1.3-1.62-2.16-.08-.17,0-.37.17-.44.17-.08.37,0,.44.17.34.77.83,1.42,1.43,1.92.6.5,1.32.85,2.12,1.03.82.18,1.7.17,2.6-.03.91-.21,1.8-.6,2.64-1.16.81-.55,1.54-1.24,2.16-2.04.63-.81,1.12-1.7,1.45-2.64.06-.17.26-.26.43-.2.17.06.27.26.2.43-.36,1.01-.89,1.96-1.56,2.82-.67.86-1.45,1.6-2.32,2.19-.91.61-1.87,1.04-2.87,1.26-.53.12-1.05.18-1.55.18Z"/>
  <circle class="cls-3" cx="45.53" cy="83.44" r="1.68"/>
  <circle class="cls-3" cx="71.5" cy="74.25" r="1.68"/>
  <path class="cls-5" d="m29.28,93.21c1.29,6.49.27,12.15-2.27,12.66-2.54.5-5.64-4.35-6.93-10.83-1.29-6.49-.27-12.15,2.27-12.65,2.54-.51,5.64,4.34,6.93,10.82Z"/>
  <path class="cls-7" d="m40.37,84.86c-.19,0-.35-.15-.37-.34-.06-.64.01-1.27.2-1.88.19-.61.49-1.17.89-1.67.42-.51.92-.93,1.51-1.24.59-.31,1.22-.5,1.88-.56.21-.02.38.13.4.34s-.13.38-.34.4c-.56.05-1.09.21-1.59.47-.5.26-.93.62-1.28,1.05-.34.42-.6.9-.76,1.42-.16.52-.22,1.06-.17,1.6.02.2-.13.38-.34.4-.01,0-.02,0-.03,0Z"/>
  <path class="cls-7" d="m75.8,72.34c-.13,0-.26-.07-.32-.19-.27-.49-.64-.92-1.08-1.26-.45-.35-.95-.6-1.48-.74-.53-.14-1.07-.18-1.6-.11-.54.07-1.05.24-1.53.5-.18.1-.4.04-.5-.14-.1-.18-.03-.4.14-.5.56-.31,1.16-.51,1.8-.59.63-.08,1.27-.04,1.89.13.63.17,1.22.46,1.75.87.52.41.95.91,1.28,1.49.1.18.04.41-.14.5-.06.03-.12.05-.18.05Z"/>
  <path class="cls-5" d="m66.65,114.63c-1.64-1.87-3.48-3.34-5.78-4.47-.32-.15-.66-.29-1-.44-2.63.1-5.05.25-7.31.43-5.56.19-9.91.82-13.44,1.93-4.56,1.06-8.17,2.45-11.39,4.24-10.35,5.75-15.47,22.43-16.32,35.05-.07,1.83-.11,3.59-.1,5.25.02,4.27.29,7.81.8,9.95.55,2.32,2.77,4.29,6.25,5.86,5.55,2.49,14.35,3.91,24.93,3.91h.01c.99,0,1.96-.02,2.92-.04.3,0,.59-.02.88-.03.67-.03,1.32-.05,1.97-.09.32-.02.64-.04.96-.05.63-.04,1.25-.09,1.86-.13.29-.03.58-.04.86-.08.74-.06,1.47-.14,2.18-.23.12-.02.25-.03.38-.04.84-.1,1.66-.22,2.45-.35.19-.03.38-.07.57-.1.59-.1,1.18-.21,1.75-.32.24-.05.47-.09.71-.15.51-.11,1.01-.22,1.5-.34.22-.06.45-.11.67-.16.53-.14,1.04-.28,1.54-.44.12-.03.24-.06.36-.1h-.02c3.41-1.06,6.05-2.4,7.73-4,.02-.02.03-.04.05-.05.31-.3.6-.62.84-.93.09-.12.15-.26.24-.39.14-.22.3-.44.41-.66.18-.36.31-.72.4-1.1,2.16-9.05.08-42.95-7.82-51.93Z"/>
  <ellipse class="cls-5" cx="43.4" cy="162.54" rx="31.69" ry="24.97"/>
  <path class="cls-3" d="m46.89,210.04c.76.22,1.59.09,1.87-.42.28-.51-.17-1.39-1.08-1.82-2.46-1.17-5.28-1.55-8.06-1.01-1.03.21-1.45,1.29-.98,2.24.47.96,1.34,1.47,2.01,1.22,1.92-.71,4.1-.83,6.23-.21Z"/>
  <path class="cls-3" d="m45.72,214.45c.67.42,1.5.52,1.92.11s.22-1.38-.53-2.05c-2.04-1.81-4.64-2.95-7.46-3.21-1.05-.09-1.75.83-1.56,1.88.19,1.06.88,1.79,1.59,1.74,2.04-.16,4.16.35,6.04,1.53Z"/>
  <path class="cls-3" d="m42.46,217.78c.4.68,1.1,1.16,1.66.98.55-.18.83-1.13.46-2.07-.99-2.54-2.79-4.74-5.18-6.25-.89-.56-1.94-.07-2.25.96-.31,1.03-.03,1.99.63,2.27,1.88.79,3.55,2.21,4.68,4.11Z"/>
  <path class="cls-3" d="m70.99,207.42c.75.21,1.59.09,1.87-.42.28-.51-.17-1.4-1.08-1.83-2.46-1.17-5.28-1.55-8.06-1.01-1.03.2-1.45,1.28-.98,2.24.47.97,1.34,1.47,2.01,1.23,1.92-.71,4.1-.83,6.23-.21Z"/>
  <path class="cls-3" d="m69.81,211.83c.67.42,1.5.53,1.91.11.42-.41.23-1.39-.53-2.05-2.04-1.81-4.65-2.96-7.46-3.21-1.05-.09-1.75.83-1.56,1.88.19,1.06.88,1.78,1.59,1.73,2.04-.15,4.17.35,6.04,1.54Z"/>
  <path class="cls-3" d="m66.55,215.16c.4.68,1.1,1.16,1.66.97.55-.18.83-1.13.46-2.07-.99-2.54-2.79-4.75-5.18-6.25-.89-.56-1.93-.06-2.24.96-.32,1.03-.03,1.99.63,2.27,1.89.8,3.55,2.21,4.68,4.11Z"/>
  <path class="cls-1" d="m59.84,142.88c-.17,0-.34-.02-.51-.05-1.46-.28-2.41-1.69-2.13-3.15l3.29-17c.28-1.46,1.7-2.41,3.15-2.13,1.46.28,2.41,1.69,2.13,3.15l-3.29,17c-.25,1.28-1.37,2.18-2.63,2.18Z"/>
  <g>
    <path class="cls-3" d="m31.42,123.32c-1.78-2.13-4.8-2.75-7.17-.85-2.37,1.89-2.76,6.44-.3,9.44,6.99,8.52,17.2,12.67,28.16,11.41,3.85-.44,6.74-3.98,6.36-6.98-.38-3.02-2.98-4.68-5.74-4.39-8.29.95-16.01-2.18-21.3-8.63Z"/>
    <path class="cls-3" d="m61.23,134.23c.74-.14,1.4-.6,1.42-1.16.02-.56-.74-1.12-1.7-1.09-2.6.05-5.16.93-7.3,2.56-.79.62-.69,1.71.12,2.33.81.62,1.77.68,2.23.18,1.33-1.42,3.15-2.45,5.22-2.83Z"/>
    <path class="cls-3" d="m62.11,138.49c.75.07,1.51-.19,1.68-.72.18-.53-.4-1.28-1.32-1.52-2.51-.67-5.22-.54-7.72.44-.93.37-1.14,1.45-.53,2.27.61.82,1.51,1.14,2.09.8,1.67-.99,3.7-1.47,5.79-1.26Z"/>
    <path class="cls-3" d="m60.76,142.71c.63.41,1.43.52,1.82.12.39-.39.22-1.32-.49-1.96-1.92-1.74-4.4-2.85-7.07-3.12-.99-.1-1.67.77-1.5,1.78.17,1.01.82,1.7,1.5,1.66,1.94-.12,3.97.37,5.74,1.52Z"/>
  </g>
  <g>
    <path class="cls-1" d="m156.65,20.83h.07c.1.04.24.18.41.41.35.15.53.4.53.73h.03l-.09.87.02.03v.03c-.43,3.14-.8,5.3-1.09,6.48-.12.46-.21,1.08-.25,1.87-.05,0-.12.07-.22.22-.18,0-.27.08-.27.25l-.07.34c-.12.15-.23.24-.31.25-.08-.05-.24-.09-.47-.12l-.22-.47c0-.41.08-.97.25-1.68l-.03-.03v-.03c.21-.85.36-1.94.47-3.25h-.03l.03-.03v-.03l.09-1.43h-.03l.03-.03v-.03c.16-2.88.55-4.32,1.15-4.32Z"/>
    <path class="cls-4" d="m168.74,20.43c.97,0,2,.29,3.08.87.6.37.97.66,1.12.87l.1.34c-.15.48-.3,1.13-.47,1.94-.25.59-.58,1.24-.99,1.92v.1l1.43.27c.65.12,1.32.34,2.02.65.4.19.73.45.99.78l.07.29c-.15.94-.37,1.6-.66,1.98-.14.32-.46.63-.96.93-.37.26-.8.45-1.31.59-.29.07-.69.14-1.21.19l-.15-.03h-.03l-.78.03-.8-.22c-.21-.12-.34-.19-.41-.19h-.07l-.41.03-.12-.03-.15.03c-.76,0-1.2-.18-1.31-.53h.03l.07-.07-.1-.09.19-.19-.09-.41.02-.03v-.03c-.04-.06-.08-.3-.12-.74l.03-.03-.07-.59.07-.71-.07-.41.03-.09c-.29-.17-.43-.36-.43-.56,0-.14.13-.29.4-.44l.03-.09c-.15-1.27-.26-2.02-.34-2.24l.03-.03v-.02c-.22-1.14-.42-1.72-.59-1.72l-.56-.15c-.23.15-.37.22-.43.22h-.37c-.18,0-.32-.15-.41-.44,0-.39.6-.89,1.8-1.5l.63-.21c.52-.17.94-.25,1.26-.25Zm.88,8.08l.15,1.28c-.09.45-.25.68-.47.68l-.09.03h-.03l-.27-.09-.1.27.12.07.97-.07.03.03h.03l.31-.07.1.03c1.2-.21,2-.4,2.39-.59.69-.26,1.21-.65,1.56-1.14.05,0,.09-.08.12-.25v-.03c0-.26-.9-.6-2.7-1.02h-.19s-.19-.07-.46-.09c-.43,0-.76.14-1,.43-.31.25-.46.4-.46.44v.09Zm-.75-6.12c.18.58.3,1.25.37,2.02l.03.03-.03.09.09.85v.19l.07.06c.76-.64,1.25-1.17,1.46-1.58.37-.61.56-1.11.56-1.5v-.06c0-.07-.22-.12-.66-.17l-.03.03c-.21-.04-.54-.06-.99-.06h-.37c-.33,0-.49.03-.49.09Z"/>
    <path class="cls-4" d="m177.78,20.59c.48,0,.71.07.71.21.17.11.31.39.42.85h.08c.17-.07.43-.12.77-.14.39,0,.69.28.91.85l-.03.03.03.03-.03.04.03.03h-.03l.03.03v.03l.04.81h.03l-.03.03v.03l.1,1.45-.03.45.03.11-.03.21v.18l.03.14-.03.03v.04l.03.21-.03.81v.07l.03.32-.03.29-.03,2.11h.03l-.03.03c0,.62.11,1.24.32,1.87,0,.21-.15.38-.46.5-.64,0-1.06-.2-1.26-.6l-.4.43-.03-.03h-.03l-.18.03c-.33-.35-.49-.95-.49-1.8l.03-.21-.03-.1.03-.32v-.08l-.03-.18.07-.5c0-.74-.27-2.89-.8-6.44l-.11-1.02c0-.45.14-.74.42-.85Z"/>
    <path class="cls-4" d="m192.96,20.55l.6.03h.48l.2.08.51-.08.34.11.04-.03h.03c.32,0,.9.1,1.73.3v.03l-.07.08c.01.09.09.13.24.13v.03c0,.15-.08.31-.24.47l.03.03c.01.1.07.14.18.14l.1.57c0,.08-.14.18-.41.31l-1.4-.17-.03.03h-.03l-.18-.03-1.46.1-.17-.03c-.1.04-.69.11-1.77.21l-.07.1.03.03-.03.03h.03l-.03.03v.03c.04.18.09.7.13,1.56l.03.04-.03.03v.03l.03.23-.03.45.03.03v.03l-.03.03.03.37-.1,4.39c0,.21.04.47.13.78v.27c-.15.23-.33.34-.54.34-.43-.1-.73-.23-.88-.37l-.04.03.08.2v.24c0,.12-.08.23-.24.34-.24,0-.56-.18-.96-.54-.29-.56-.44-1.08-.44-1.54l.03-.13v-.03l-.03-.03.03-.03v-.31l-.03-.81.03-.04v-.03l-.07-.1.07-.2v-.04l-.03-.1.03-.17v-.37c-.13-1.91-.25-2.86-.34-2.86l.03-.14c-.05,0-.13-.42-.23-1.25-.36,0-1.21.18-2.55.55l-2.32,1.15-.17.03c-.73-.18-1.09-.47-1.09-.89,0-.27.16-.45.47-.54.73-.37,1.22-.58,1.46-.65.18-.23.33-.34.45-.34.14-.08.52-.21,1.15-.37.94-.43,2.04-.82,3.3-1.15l.07-.07h.13c.21,0,.52-.08.92-.24l.1.03c.43-.03.65-.08.65-.16l.24.03.41-.1.03.03h.03l1.36-.18Zm-3.3,2.69c.02.65.05.98.1.98l-.03.03v.03l.2,1.26-.03.03.18,1.46-.03.13.03.37-.03.14.03.13h.07l.07-1.12-.03-.68v-.1l-.03-.03.03-.03v-.11h-.03l.03-.23v-.07c0-.16-.02-.29-.07-.37l.03-.11-.07-.37.03-.1c-.07-.91-.15-1.36-.24-1.36h-.1l-.1.11Zm.41,4.68l-.08.34v.24l.08.07.07-.07v-.31l-.03-.13.03-.14h-.07Zm-.08,1.3v.07l.08.07h.03v-.13h-.11Zm.04-.27v.11h.03l.03-.11h-.07Zm0,.65v.21h.03s.07-.04.07-.11l-.03-.1h-.07Z"/>
    <path class="cls-4" d="m203.58,20.6c.61.06,1.21.27,1.8.63.13.15.3.44.52.88l-.04.03v.04l.04.14c-.15.34-.41.52-.77.52-.43-.1-.8-.32-1.11-.66-.22-.07-.59-.14-1.1-.19-.43.07-1.06.59-1.87,1.54-.17.77-.28,1.4-.33,1.88.24,1.21.55,2.39.91,3.55.2.54.4.81.59.81.43.32.87.58,1.32.8,1.21-.43,2.14-1.06,2.79-1.9.08,0,.24-.17.47-.52.14-.2.38-.3.74-.3l.07.08.15-.03c.15,0,.25.15.3.44v.18c-.07.4-.38.92-.96,1.54-.15.4-.33.63-.52.7-.94.89-1.87,1.39-2.79,1.51l-.29.03-1.1-.11-.19.03c-.95-.24-1.53-.44-1.73-.58-.82-.37-1.52-1.28-2.09-2.72,0-.24-.07-.56-.22-.96l.03-.11c-.07-.34-.11-.76-.11-1.24v-.41c.21-1.5.53-2.62.96-3.34l-.04-.11c.2-.08.3-.2.3-.36.75-.81,1.49-1.3,2.2-1.47l1.69-.29.03.03h.04l.29-.08Z"/>
    <path class="cls-4" d="m213.64,20.53c.83.16,1.43.44,1.8.85.04,0,.07.17.08.52l-.03.17c.45,0,.96.48,1.53,1.44.21.3.34.62.4.97.24.44.36.8.36,1.09l-.04.15.24,1.01-.08.23.04.45v.12l-.12,1.04.03.03v.04c-.21.93-.72,1.81-1.53,2.65-.7.51-1.43.76-2.17.76l-.03.04c-.56,0-1.29-.19-2.18-.56-1.23-.76-2.13-1.9-2.68-3.42l-.29-1.24.04-.04-.04-.2v-.32c0-.32.25-1.13.76-2.45h-.03c.21-.59.41-.98.6-1.17.29-.76.89-1.39,1.8-1.88.38-.19.89-.29,1.53-.29Zm-2.25,5.71c0,2.1.59,3.48,1.77,4.13l.24.04c1.19,0,1.97-1.12,2.33-3.38v-.17c0-.48-.36-1.33-1.09-2.53-.06,0-.35-.41-.88-1.24h-.09c-.92.29-1.51.6-1.76.96-.35.73-.53,1.46-.53,2.18Z"/>
    <path class="cls-4" d="m219.93,20.59c.48,0,.71.07.71.21.17.11.31.39.42.85h.08c.17-.07.43-.12.77-.14.39,0,.69.28.91.85l-.03.03.03.03-.03.04.03.03h-.03l.03.03v.03l.04.81h.03l-.03.03v.03l.1,1.45-.03.45.03.11-.03.21v.18l.03.14-.03.03v.04l.03.21-.03.81v.07l.03.32-.03.29-.03,2.11h.03l-.03.03c0,.62.11,1.24.32,1.87,0,.21-.15.38-.46.5-.64,0-1.06-.2-1.26-.6l-.4.43-.03-.03h-.03l-.18.03c-.33-.35-.49-.95-.49-1.8l.03-.21-.03-.1.03-.32v-.08l-.03-.18.07-.5c0-.74-.27-2.89-.8-6.44l-.11-1.02c0-.45.14-.74.42-.85Z"/>
    <path class="cls-4" d="m229.84,20.43c.52.19.78.48.78.87.01.37.05.56.11.56.11,0,.21.13.31.39.06,0,.1.14.11.42l-.08.22c.04,1.14.08,1.7.13,1.7l-.02.03c.24,1.3.47,2.27.69,2.92l.4,1.51c.39,1.65.64,2.62.75,2.9.1.15.16.29.2.44,0,.19-.09.32-.27.4,0,.1-.1.16-.31.19l-.03.03c-.33,0-.73-.26-1.2-.78-1.12-1.13-1.73-1.81-1.84-2.03l-1.23-1.51c-.35-.48-.58-.75-.67-.81l-.05.06.03.54-.03.33c.08,1.74.17,2.72.27,2.92l-.02.03.02.11c0,.23-.11.42-.33.56-.4-.08-.68-.21-.84-.4l-.31-.62-.27-.27c-.37-.84-.69-2.09-.98-3.74-.03,0-.11-.47-.25-1.42l-.05-.42.03-.03-.03-.17.03-.92v-.05l.02-.24c-.07-.21-.11-.37-.11-.51,0-.14.15-.27.45-.4h.11c.15,0,.35.1.58.29,0,.06.08.14.25.25l.02-.03c.39,0,.65.09.78.27.12,0,.26.32.42.96l1.2,1.14c.9,1.03,1.52,1.76,1.85,2.2l.02-.03v-.02c-.12-1.15-.38-2.94-.78-5.35l-.31-1.84c.07-.43.22-.65.45-.65Z"/>
    <path class="cls-10" d="m188.49,38.16l.24.04.08-.02.34.02h.24l.1.02.02-.02.3.02h.12l.19-.02.54.06.46-.06.18.02.02-.02h.02l.03.02h.02l.02-.02.08.02.51-.02h.18l.14-.02.02.02.37-.02h.14c.28,0,.42.02.42.04l.22-.04.09.02.27-.02h.04l.12.02v-.02l.03.02h.22l.22-.02.02.02.12-.02.73.02.15-.02.12.02v-.02l.36.04v-.02l.02.02.12-.02h.18l.2.06.26-.03h.1l.14.03.08-.06.12.02.32-.02.22.02.54-.02h.04c.62,0,.92.15.92.44l-.02.12.05.15c-.07.18-.15.26-.22.26-.04.05-.08.08-.12.08l-.98-.15-.52.03h-.04v-.03l-.12.03h-.4l-.1-.03-.1.03h-.14l-.1-.03-.14.05h-.1l-.02-.02-.02.02-.25-.02h-.07l-.02.02-.03-.02h-.29c-.12,0-.18.01-.18.04l-.02-.02h-.12v.02c.05,0,.08.03.08.08l.09.04c.07-.03.16-.04.27-.04h.04v.04h.32c.7,0,1.06.15,1.06.44l.09.22v.02l-.04.08.02.22v.02c-.08,0-.22.09-.42.26l-.02.03h-.02l-.2-.06-.02.02c-.15-.08-.28-.12-.39-.12h-.44l-.03.03-.07-.03-.66.03-.22-.03-.02.03-.1-.03c-1.01.02-1.52.05-1.52.08l-.1-.02h-.02l-.22.02-.1-.02-.12.04-.02-.02-.12.02-1.8.12-.03-.02-.16.02h-.48c-.48-.08-.71-.21-.71-.38-.07,0-.13-.13-.2-.4,0-.13.03-.26.1-.38l-.07-.05h-.12c-.34,0-.58-.19-.71-.56l-.02-.24c.09-.32.23-.48.42-.48Zm9.83,2.71c.26,0,.44.19.54.56v.4c0,.16-.19.28-.56.36-.1-.07-.26-.11-.46-.12-.09.02-.13.04-.13.07v.18l.03.14c-.1.18-.23.32-.4.42h-.04c-.11,0-.26-.05-.46-.14-.63-.07-1.35-.11-2.16-.12v.02l-.02-.02h-.04l-.76-.03-.3.03-.12-.03-.48.06-.15-.02-.43.02h-.22l-.15.02-.12-.02h-.1l-.07.02-.12-.02h-.27l-.1.02-.02-.02-1.92.12c-.34,0-.58-.22-.71-.66v-.14c.08-.4.27-.59.56-.59l.42.06c.84-.13,1.7-.23,2.58-.3l.08.02c.7-.02,1.04-.04,1.04-.07l.08.02c.52-.01.78-.04.78-.08l.02.03h.15l.02-.03.02.03h.12c.12,0,.18-.02.18-.06l.1.02.51-.02.2.06.36-.06.1.02c.15,0,.22-.02.22-.04l.08.02.51-.02.1.02c.13,0,.2-.02.2-.04l.16.02h.27l.22-.02.02.02c.44-.04.66-.07.66-.1Zm-7.51-1.46l.04.04v-.04h-.04Zm.46,0h.12v-.06h-.08l-.04.06Zm.82-.08v.05h.05l-.05-.05Zm.44.02v.03h.18v-.03l-.05-.04h-.08l-.04.04Zm1.83-.09v.04h.1v-.04h-.1Zm.2-.1v.04h.05v-.04h-.05Zm.12.1v.04h.1l.05-.04h-.15Z"/>
    <path class="cls-1" d="m163,49.97h.07c.1.04.24.18.41.41.35.15.53.4.53.73h.03l-.09.87.02.03v.03c-.43,3.14-.8,5.3-1.09,6.48-.12.46-.21,1.08-.25,1.87-.05,0-.12.07-.22.22-.18,0-.27.08-.27.25l-.07.34c-.12.15-.23.24-.31.25-.08-.05-.24-.09-.47-.12l-.22-.47c0-.41.08-.97.25-1.68l-.03-.03v-.03c.21-.85.36-1.94.47-3.25h-.03l.03-.03v-.03l.09-1.43h-.03l.03-.03v-.03c.16-2.88.55-4.32,1.15-4.32Z"/>
    <path class="cls-1" d="m168.25,49.97c.32.02.48.09.48.2l.02.03-.11.54.11.09.18-.03.09.03c.02-.12.05-.18.08-.18h.05c.14,0,.34.06.6.18.03-.15.07-.23.11-.23h.05l.14.09.05-.18h.03c.36.38.54.9.54,1.56l-.03.03v.02l.09.52v.22l.03.03-.03.02c.23,1.05.34,1.84.34,2.36h.03l-.03.02v.03l.03.45-.03.23h.03l-.03.02v.23c-.04.43-.07.69-.11.77l.02.02h-.02l.11.14-.03.09-.08-.05h-.03l-.05.22.02.03v.03c-.34,1.6-.84,2.71-1.5,3.34-.37.23-.74.34-1.11.34h-.25c-.24,0-.52-.08-.82-.23-.48-.23-.85-.58-1.13-1.04-.34-.67-.52-1.26-.52-1.79-.05-.19-.08-.42-.08-.68v-.31l-.03-.25.03-.2v-.03l-.03-.02.2-1.51-.03-.03v-.02c.51-1.82.97-3.07,1.4-3.75.48-.66.81-1.07.97-1.22l.25-.14Zm-1.74,6.07v.23l-.02.14c.02.46.05.71.09.74l-.03.11c.21,1.16.42,1.74.65,1.74v.05h-.05v.06s.05.05.14.05c.23.42.44.63.63.63h.36c.31-.08.48-.18.52-.29.23-.19.52-.66.85-1.42.21-.39.32-1.03.32-1.92l.02-.03-.02-.14v-.31l-.05-2.42c-.15-.81-.4-1.44-.75-1.89l-.13-.12h-.03l-.71.57c-.51.59-.98,1.42-1.42,2.5-.23.72-.34,1.29-.34,1.73Z"/>
    <path class="cls-1" d="m175.39,49.97c.32.02.48.09.48.2l.02.03-.11.54.11.09.18-.03.09.03c.02-.12.05-.18.08-.18h.05c.14,0,.34.06.6.18.03-.15.07-.23.11-.23h.05l.14.09.05-.18h.03c.36.38.54.9.54,1.56l-.03.03v.02l.09.52v.22l.03.03-.03.02c.23,1.05.34,1.84.34,2.36h.03l-.03.02v.03l.03.45-.03.23h.03l-.03.02v.23c-.04.43-.07.69-.11.77l.02.02h-.02l.11.14-.03.09-.08-.05h-.03l-.05.22.02.03v.03c-.34,1.6-.84,2.71-1.5,3.34-.37.23-.74.34-1.11.34h-.25c-.24,0-.52-.08-.82-.23-.48-.23-.85-.58-1.13-1.04-.34-.67-.52-1.26-.52-1.79-.05-.19-.08-.42-.08-.68v-.31l-.03-.25.03-.2v-.03l-.03-.02.2-1.51-.03-.03v-.02c.51-1.82.97-3.07,1.4-3.75.48-.66.81-1.07.97-1.22l.25-.14Zm-1.74,6.07v.23l-.02.14c.02.46.05.71.09.74l-.03.11c.21,1.16.42,1.74.65,1.74v.05h-.05v.06s.05.05.14.05c.23.42.44.63.63.63h.36c.31-.08.48-.18.52-.29.23-.19.52-.66.85-1.42.21-.39.32-1.03.32-1.92l.02-.03-.02-.14v-.31l-.05-2.42c-.15-.81-.4-1.44-.75-1.89l-.13-.12h-.03l-.71.57c-.51.59-.98,1.42-1.42,2.5-.23.72-.34,1.29-.34,1.73Z"/>
    <path class="cls-1" d="m185.23,49.97c.32.02.48.09.48.2l.02.03-.11.54.11.09.18-.03.09.03c.02-.12.05-.18.08-.18h.05c.14,0,.34.06.6.18.03-.15.07-.23.11-.23h.05l.14.09.05-.18h.03c.36.38.54.9.54,1.56l-.03.03v.02l.09.52v.22l.03.03-.03.02c.23,1.05.34,1.84.34,2.36h.03l-.03.02v.03l.03.45-.03.23h.03l-.03.02v.23c-.04.43-.07.69-.11.77l.02.02h-.02l.11.14-.03.09-.08-.05h-.03l-.05.22.02.03v.03c-.34,1.6-.84,2.71-1.5,3.34-.37.23-.74.34-1.11.34h-.25c-.24,0-.52-.08-.82-.23-.48-.23-.85-.58-1.13-1.04-.34-.67-.52-1.26-.52-1.79-.05-.19-.08-.42-.08-.68v-.31l-.03-.25.03-.2v-.03l-.03-.02.2-1.51-.03-.03v-.02c.51-1.82.97-3.07,1.4-3.75.48-.66.81-1.07.97-1.22l.25-.14Zm-1.74,6.07v.23l-.02.14c.02.46.05.71.09.74l-.03.11c.21,1.16.42,1.74.65,1.74v.05h-.05v.06s.05.05.14.05c.23.42.44.63.63.63h.36c.31-.08.48-.18.52-.29.23-.19.52-.66.85-1.42.21-.39.32-1.03.32-1.92l.02-.03-.02-.14v-.31l-.05-2.42c-.15-.81-.4-1.44-.75-1.89l-.13-.12h-.03l-.71.57c-.51.59-.98,1.42-1.42,2.5-.23.72-.34,1.29-.34,1.73Z"/>
    <path class="cls-1" d="m192.37,49.97c.32.02.48.09.48.2l.02.03-.11.54.11.09.18-.03.09.03c.02-.12.05-.18.08-.18h.05c.14,0,.34.06.6.18.03-.15.07-.23.11-.23h.05l.14.09.05-.18h.03c.36.38.54.9.54,1.56l-.03.03v.02l.09.52v.22l.03.03-.03.02c.23,1.05.34,1.84.34,2.36h.03l-.03.02v.03l.03.45-.03.23h.03l-.03.02v.23c-.04.43-.07.69-.11.77l.02.02h-.02l.11.14-.03.09-.08-.05h-.03l-.05.22.02.03v.03c-.34,1.6-.84,2.71-1.5,3.34-.37.23-.74.34-1.11.34h-.25c-.24,0-.52-.08-.82-.23-.48-.23-.85-.58-1.13-1.04-.34-.67-.52-1.26-.52-1.79-.05-.19-.08-.42-.08-.68v-.31l-.03-.25.03-.2v-.03l-.03-.02.2-1.51-.03-.03v-.02c.51-1.82.97-3.07,1.4-3.75.48-.66.81-1.07.97-1.22l.25-.14Zm-1.74,6.07v.23l-.02.14c.02.46.05.71.09.74l-.03.11c.21,1.16.42,1.74.65,1.74v.05h-.05v.06s.05.05.14.05c.23.42.44.63.63.63h.36c.31-.08.48-.18.52-.29.23-.19.52-.66.85-1.42.21-.39.32-1.03.32-1.92l.02-.03-.02-.14v-.31l-.05-2.42c-.15-.81-.4-1.44-.75-1.89l-.13-.12h-.03l-.71.57c-.51.59-.98,1.42-1.42,2.5-.23.72-.34,1.29-.34,1.73Z"/>
    <path class="cls-1" d="m199.51,49.97c.32.02.48.09.48.2l.02.03-.11.54.11.09.18-.03.09.03c.02-.12.05-.18.08-.18h.05c.14,0,.34.06.6.18.03-.15.07-.23.11-.23h.05l.14.09.05-.18h.03c.36.38.54.9.54,1.56l-.03.03v.02l.09.52v.22l.03.03-.03.02c.23,1.05.34,1.84.34,2.36h.03l-.03.02v.03l.03.45-.03.23h.03l-.03.02v.23c-.04.43-.07.69-.11.77l.02.02h-.02l.11.14-.03.09-.08-.05h-.03l-.05.22.02.03v.03c-.34,1.6-.84,2.71-1.5,3.34-.37.23-.74.34-1.11.34h-.25c-.24,0-.52-.08-.82-.23-.48-.23-.85-.58-1.13-1.04-.34-.67-.52-1.26-.52-1.79-.05-.19-.08-.42-.08-.68v-.31l-.03-.25.03-.2v-.03l-.03-.02.2-1.51-.03-.03v-.02c.51-1.82.97-3.07,1.4-3.75.48-.66.81-1.07.97-1.22l.25-.14Zm-1.74,6.07v.23l-.02.14c.02.46.05.71.09.74l-.03.11c.21,1.16.42,1.74.65,1.74v.05h-.05v.06s.05.05.14.05c.23.42.44.63.63.63h.36c.31-.08.48-.18.52-.29.23-.19.52-.66.85-1.42.21-.39.32-1.03.32-1.92l.02-.03-.02-.14v-.31l-.05-2.42c-.15-.81-.4-1.44-.75-1.89l-.13-.12h-.03l-.71.57c-.51.59-.98,1.42-1.42,2.5-.23.72-.34,1.29-.34,1.73Z"/>
    <path class="cls-1" d="m209.36,49.97c.32.02.48.09.48.2l.02.03-.11.54.11.09.18-.03.09.03c.02-.12.05-.18.08-.18h.05c.14,0,.34.06.6.18.03-.15.07-.23.11-.23h.05l.14.09.05-.18h.03c.36.38.54.9.54,1.56l-.03.03v.02l.09.52v.22l.03.03-.03.02c.23,1.05.34,1.84.34,2.36h.03l-.03.02v.03l.03.45-.03.23h.03l-.03.02v.23c-.04.43-.07.69-.11.77l.02.02h-.02l.11.14-.03.09-.08-.05h-.03l-.05.22.02.03v.03c-.34,1.6-.84,2.71-1.5,3.34-.37.23-.74.34-1.11.34h-.25c-.24,0-.52-.08-.82-.23-.48-.23-.85-.58-1.13-1.04-.34-.67-.52-1.26-.52-1.79-.05-.19-.08-.42-.08-.68v-.31l-.03-.25.03-.2v-.03l-.03-.02.2-1.51-.03-.03v-.02c.51-1.82.97-3.07,1.4-3.75.48-.66.81-1.07.97-1.22l.25-.14Zm-1.74,6.07v.23l-.02.14c.02.46.05.71.09.74l-.03.11c.21,1.16.42,1.74.65,1.74v.05h-.05v.06s.05.05.14.05c.23.42.44.63.63.63h.36c.31-.08.48-.18.52-.29.23-.19.52-.66.85-1.42.21-.39.32-1.03.32-1.92l.02-.03-.02-.14v-.31l-.05-2.42c-.15-.81-.4-1.44-.75-1.89l-.13-.12h-.03l-.71.57c-.51.59-.98,1.42-1.42,2.5-.23.72-.34,1.29-.34,1.73Z"/>
    <path class="cls-1" d="m216.5,49.97c.32.02.48.09.48.2l.02.03-.11.54.11.09.18-.03.09.03c.02-.12.05-.18.08-.18h.05c.14,0,.34.06.6.18.03-.15.07-.23.11-.23h.05l.14.09.05-.18h.03c.36.38.54.9.54,1.56l-.03.03v.02l.09.52v.22l.03.03-.03.02c.23,1.05.34,1.84.34,2.36h.03l-.03.02v.03l.03.45-.03.23h.03l-.03.02v.23c-.04.43-.07.69-.11.77l.02.02h-.02l.11.14-.03.09-.08-.05h-.03l-.05.22.02.03v.03c-.34,1.6-.84,2.71-1.5,3.34-.37.23-.74.34-1.11.34h-.25c-.24,0-.52-.08-.82-.23-.48-.23-.85-.58-1.13-1.04-.34-.67-.52-1.26-.52-1.79-.05-.19-.08-.42-.08-.68v-.31l-.03-.25.03-.2v-.03l-.03-.02.2-1.51-.03-.03v-.02c.51-1.82.97-3.07,1.4-3.75.48-.66.81-1.07.97-1.22l.25-.14Zm-1.74,6.07v.23l-.02.14c.02.46.05.71.09.74l-.03.11c.21,1.16.42,1.74.65,1.74v.05h-.05v.06s.05.05.14.05c.23.42.44.63.63.63h.36c.31-.08.48-.18.52-.29.23-.19.52-.66.85-1.42.21-.39.32-1.03.32-1.92l.02-.03-.02-.14v-.31l-.05-2.42c-.15-.81-.4-1.44-.75-1.89l-.13-.12h-.03l-.71.57c-.51.59-.98,1.42-1.42,2.5-.23.72-.34,1.29-.34,1.73Z"/>
    <path class="cls-1" d="m223.64,49.97c.32.02.48.09.48.2l.02.03-.11.54.11.09.18-.03.09.03c.02-.12.05-.18.08-.18h.05c.14,0,.34.06.6.18.03-.15.07-.23.11-.23h.05l.14.09.05-.18h.03c.36.38.54.9.54,1.56l-.03.03v.02l.09.52v.22l.03.03-.03.02c.23,1.05.34,1.84.34,2.36h.03l-.03.02v.03l.03.45-.03.23h.03l-.03.02v.23c-.04.43-.07.69-.11.77l.02.02h-.02l.11.14-.03.09-.08-.05h-.03l-.05.22.02.03v.03c-.34,1.6-.84,2.71-1.5,3.34-.37.23-.74.34-1.11.34h-.25c-.24,0-.52-.08-.82-.23-.48-.23-.85-.58-1.13-1.04-.34-.67-.52-1.26-.52-1.79-.05-.19-.08-.42-.08-.68v-.31l-.03-.25.03-.2v-.03l-.03-.02.2-1.51-.03-.03v-.02c.51-1.82.97-3.07,1.4-3.75.48-.66.81-1.07.97-1.22l.25-.14Zm-1.74,6.07v.23l-.02.14c.02.46.05.71.09.74l-.03.11c.21,1.16.42,1.74.65,1.74v.05h-.05v.06s.05.05.14.05c.23.42.44.63.63.63h.36c.31-.08.48-.18.52-.29.23-.19.52-.66.85-1.42.21-.39.32-1.03.32-1.92l.02-.03-.02-.14v-.31l-.05-2.42c-.15-.81-.4-1.44-.75-1.89l-.13-.12h-.03l-.71.57c-.51.59-.98,1.42-1.42,2.5-.23.72-.34,1.29-.34,1.73Z"/>
    <path class="cls-4" d="m156.06,64.3l.13.03h.08v-.03c.95,0,1.81.49,2.56,1.47.04.22.1.37.18.46,0,.29-.19.5-.56.63l-.21.03c-.54-.28-1.08-.42-1.65-.42-.9,0-1.68.5-2.32,1.51.01.07.15.16.42.25.09.1.71.29,1.86.59,1.52.25,2.49.49,2.92.74.53.2,1.08.6,1.65,1.2.28.42.42.91.42,1.47v.11c0,.32-.18.8-.53,1.44-.67.75-1.24,1.21-1.72,1.4-1.09.4-2.02.6-2.78.6l-.03.03h-.03l-.03-.03h-.04l-.39.03h-.27l-.03.03-.04-.03h-.42c-1.72,0-2.89-.68-3.51-2.03-.05,0-.09-.11-.11-.32l.07-.08.29.18h.11v-.07h.07c.1,0,.35.16.74.49h.11v-.21l-.04-.14c.06-.18.15-.33.29-.43,0-.22.09-.38.27-.48l.18-.46h.08l.03.18h.03l.29-.07h.1c.21.07.32.25.32.53,0,.21.06.36.18.45l-.03.43c.21.15.75.28,1.65.38l.03-.04.25.04c.8,0,1.57-.2,2.31-.6.52-.44.78-.84.78-1.19,0-.45-.51-.98-1.52-1.58l-.53-.21c0-.14-.45-.29-1.36-.46-1.17-.09-2.03-.24-2.56-.45-.84-.48-1.26-1.03-1.26-1.65l-.22-.81c0-1.44,1.22-2.4,3.66-2.88l.18-.03Z"/>
    <path class="cls-4" d="m166.93,64.31c.45.03.67.15.67.35.48,1.09.93,2.44,1.34,4.06.05.39.11.58.17.58l.22-.02c.09,0,.13.02.13.06l.02-.03h.03c.23,0,.37.16.43.48,0,.23-.22.44-.65.65h-.02c.28,1.96.59,3.44.93,4.45l.03.13c-.09.27-.26.41-.52.41,0,.02-.06.04-.19.06,0,.14-.07.21-.21.21l-.3-.02-.03.02h-.02c-.07,0-.23-.27-.48-.8-.27-.64-.47-1.36-.59-2.18l.03-.19c-.06-.1-.13-.4-.22-.91l-.02-.02h-.03l-1.02.45c-.55.18-.82.34-.82.46-.23.89-.4,1.34-.52,1.34-.25.07-.37.3-.37.69l-.32,1.75c-.11.11-.19.17-.24.17l-.03-.03h-.02l-.19.06-.03-.08h-.1l-.03.02h-.02l-.11-.29c0-.66.18-1.76.54-3.31l-.03-.02h-.02l-.73.11h-.19c-.31-.13-.46-.28-.46-.44l-.02-.08c.12-.26.28-.4.46-.4.02-.07.23-.12.62-.16l.02-.03v-.02l-.05-.17v-.02c0-.27.29-.53.86-.78.1-.1.18-.27.22-.54.04-.04.12-.44.24-1.18.27-.81.51-2.18.73-4.11.17-.25.33-.37.48-.37.04-.08.19-.18.45-.3Zm-.02,3.35c-.15.38-.31,1.18-.48,2.4h.05c.47-.12.77-.23.91-.33-.25-1.33-.4-2.02-.46-2.07h-.02Z"/>
    <path class="cls-4" d="m182.09,64.27l.6.03h.48l.2.08.51-.08.34.11.04-.03h.03c.32,0,.9.1,1.73.3v.03l-.07.08c.01.09.09.13.24.13v.03c0,.15-.08.31-.24.47l.03.03c.01.1.07.14.18.14l.1.57c0,.08-.14.18-.41.31l-1.4-.17-.03.03h-.03l-.18-.03-1.46.1-.17-.03c-.1.04-.69.11-1.77.21l-.07.1.03.03-.03.03h.03l-.03.03v.03c.04.18.09.7.13,1.56l.03.04-.03.03v.03l.03.23-.03.45.03.03v.03l-.03.03.03.37-.1,4.39c0,.21.04.47.13.78v.27c-.15.23-.33.34-.54.34-.43-.1-.73-.23-.88-.37l-.04.03.08.2v.24c0,.12-.08.23-.24.34-.24,0-.56-.18-.96-.54-.29-.56-.44-1.08-.44-1.54l.03-.13v-.03l-.03-.03.03-.03v-.31l-.03-.81.03-.04v-.03l-.07-.1.07-.2v-.04l-.03-.1.03-.17v-.37c-.13-1.91-.25-2.86-.34-2.86l.03-.14c-.05,0-.13-.42-.23-1.25-.36,0-1.21.18-2.55.55l-2.32,1.15-.17.03c-.73-.18-1.09-.47-1.09-.89,0-.27.16-.45.47-.54.73-.37,1.22-.58,1.46-.65.18-.23.33-.34.45-.34.14-.08.52-.21,1.15-.37.94-.43,2.04-.82,3.3-1.15l.07-.07h.13c.21,0,.52-.08.92-.24l.1.03c.43-.03.65-.08.65-.16l.24.03.41-.1.03.03h.03l1.36-.18Zm-3.3,2.69c.02.65.05.98.1.98l-.03.03v.03l.2,1.26-.03.03.18,1.46-.03.13.03.37-.03.14.03.13h.07l.07-1.12-.03-.68v-.1l-.03-.03.03-.03v-.11h-.03l.03-.23v-.07c0-.16-.02-.29-.07-.37l.03-.11-.07-.37.03-.1c-.07-.91-.15-1.36-.24-1.36h-.1l-.1.11Zm.41,4.68l-.08.34v.24l.08.07.07-.07v-.31l-.03-.13.03-.14h-.07Zm-.08,1.3v.07l.08.07h.03v-.13h-.11Zm.04-.27v.11h.03l.03-.11h-.07Zm0,.65v.21h.03s.07-.04.07-.11l-.03-.1h-.07Z"/>
    <path class="cls-4" d="m191.74,64.24c.83.16,1.43.44,1.8.85.04,0,.07.17.08.52l-.03.17c.45,0,.96.48,1.53,1.44.21.3.34.62.4.97.24.44.36.8.36,1.09l-.04.15.24,1.01-.08.23.04.45v.12l-.12,1.04.03.03v.04c-.21.93-.72,1.81-1.53,2.65-.7.51-1.43.76-2.17.76l-.03.04c-.56,0-1.29-.19-2.18-.56-1.23-.76-2.13-1.9-2.68-3.42l-.29-1.24.04-.04-.04-.2v-.32c0-.32.25-1.13.76-2.45h-.03c.21-.59.41-.98.6-1.17.29-.76.89-1.39,1.8-1.88.38-.19.89-.29,1.53-.29Zm-2.25,5.71c0,2.1.59,3.48,1.77,4.13l.24.04c1.19,0,1.97-1.12,2.33-3.38v-.17c0-.48-.36-1.33-1.09-2.53-.06,0-.35-.41-.88-1.24h-.09c-.92.29-1.51.6-1.76.96-.35.73-.53,1.46-.53,2.18Z"/>
    <path class="cls-4" d="m201.99,64.3l.13.03h.08v-.03c.95,0,1.81.49,2.56,1.47.04.22.1.37.18.46,0,.29-.19.5-.56.63l-.21.03c-.54-.28-1.08-.42-1.65-.42-.9,0-1.68.5-2.32,1.51.01.07.15.16.42.25.09.1.71.29,1.86.59,1.52.25,2.49.49,2.92.74.53.2,1.08.6,1.65,1.2.28.42.42.91.42,1.47v.11c0,.32-.18.8-.53,1.44-.67.75-1.24,1.21-1.72,1.4-1.09.4-2.02.6-2.78.6l-.03.03h-.03l-.03-.03h-.04l-.39.03h-.27l-.03.03-.04-.03h-.42c-1.72,0-2.89-.68-3.51-2.03-.05,0-.09-.11-.11-.32l.07-.08.29.18h.11v-.07h.07c.1,0,.35.16.74.49h.11v-.21l-.04-.14c.06-.18.15-.33.29-.43,0-.22.09-.38.27-.48l.18-.46h.08l.03.18h.03l.29-.07h.1c.21.07.32.25.32.53,0,.21.06.36.18.45l-.03.43c.21.15.75.28,1.65.38l.03-.04.25.04c.8,0,1.57-.2,2.31-.6.52-.44.78-.84.78-1.19,0-.45-.51-.98-1.52-1.58l-.53-.21c0-.14-.45-.29-1.36-.46-1.17-.09-2.03-.24-2.56-.45-.84-.48-1.26-1.03-1.26-1.65l-.22-.81c0-1.44,1.22-2.4,3.66-2.88l.18-.03Z"/>
    <path class="cls-4" d="m216.13,64.27h.36c.5.35.75.75.75,1.2.58,0,.91.55,1,1.64,0,.32.03.48.08.48l-.03.03v.03c.22,1.51.39,2.88.52,4.1l-.03.03v.03l.11.64-.03.03v.04l.11.78-.04.3.04.14-.04.15.26,2.04-.03.11.03.03v.04c-.04.12-.11.25-.22.37l.14.59-.33.3-.37.03c-.59-.1-1.14-1.21-1.64-3.31l.03-.03v-.04c-.12-.32-.19-.64-.22-.97h-.03l.03-.03v-.03c-.16-1.09-.27-1.64-.33-1.64l-2.83.44-.15.11c.07,1.07.12,1.61.15,1.61l-.04.11.3,1.34-.44.37-.23-.08c0,.4-.07.59-.22.59h-.19c0,.07-.03.11-.08.11-.45,0-1-.95-1.64-2.86l-.07-.08-.3.08h-.3c-.29,0-.6-.2-.93-.59-.1-.18-.15-.33-.15-.45h-.03c0-.34.33-.6,1-.78l.04.03h.03c.15-.04.22-.11.22-.19-.37-1.77-.63-3.17-.78-4.2-.07-.1-.14-.44-.22-1h-.03l.03-.04v-.08l-.03-.22c0-.18.21-.36.63-.52.55.24.82.47.82.67.05,0,.1.16.14.48l.04.03h.11l.19-.14.03.03h.45c.69.11,1.03.4,1.03.86.1,0,.21,1.03.34,3.09l1.75-.42.92-.11.12.04c.08-.03.13-.08.14-.15-.27-1.47-.46-2.67-.56-3.61l-.03-.04.03-.3-.03-.25c0-.5.21-.84.64-1.01Z"/>
    <path class="cls-4" d="m221.07,64.3c.48,0,.71.07.71.21.17.11.31.39.42.85h.08c.17-.07.43-.12.77-.14.39,0,.69.28.91.85l-.03.03.03.03-.03.04.03.03h-.03l.03.03v.03l.04.81h.03l-.03.03v.03l.1,1.45-.03.45.03.11-.03.21v.18l.03.14-.03.03v.04l.03.21-.03.81v.07l.03.32-.03.29-.03,2.11h.03l-.03.03c0,.62.11,1.24.32,1.87,0,.21-.15.38-.46.5-.64,0-1.06-.2-1.26-.6l-.4.43-.03-.03h-.03l-.18.03c-.33-.35-.49-.95-.49-1.8l.03-.21-.03-.1.03-.32v-.08l-.03-.18.07-.5c0-.74-.27-2.89-.8-6.44l-.11-1.02c0-.45.14-.74.42-.85Z"/>
    <path class="cls-4" d="m230.22,64.3l.13.03h.08v-.03c.95,0,1.81.49,2.56,1.47.04.22.1.37.18.46,0,.29-.19.5-.56.63l-.21.03c-.54-.28-1.08-.42-1.65-.42-.9,0-1.68.5-2.32,1.51.01.07.15.16.42.25.09.1.71.29,1.86.59,1.52.25,2.49.49,2.92.74.53.2,1.08.6,1.65,1.2.28.42.42.91.42,1.47v.11c0,.32-.18.8-.53,1.44-.67.75-1.24,1.21-1.72,1.4-1.09.4-2.02.6-2.78.6l-.03.03h-.03l-.03-.03h-.04l-.39.03h-.27l-.03.03-.04-.03h-.42c-1.72,0-2.89-.68-3.51-2.03-.05,0-.09-.11-.11-.32l.07-.08.29.18h.11v-.07h.07c.1,0,.35.16.74.49h.11v-.21l-.04-.14c.06-.18.15-.33.29-.43,0-.22.09-.38.27-.48l.18-.46h.08l.03.18h.03l.29-.07h.1c.21.07.32.25.32.53,0,.21.06.36.18.45l-.03.43c.21.15.75.28,1.65.38l.03-.04.25.04c.8,0,1.57-.2,2.31-.6.52-.44.78-.84.78-1.19,0-.45-.51-.98-1.52-1.58l-.53-.21c0-.14-.45-.29-1.36-.46-1.17-.09-2.03-.24-2.56-.45-.84-.48-1.26-1.03-1.26-1.65l-.22-.81c0-1.44,1.22-2.4,3.66-2.88l.18-.03Z"/>
    <path class="cls-10" d="m188.49,81.87l.24.04.08-.02.34.02h.24l.1.02.02-.02.3.02h.12l.19-.02.54.06.46-.06.18.02.02-.02h.02l.03.02h.02l.02-.02.08.02.51-.02h.18l.14-.02.02.02.37-.02h.14c.28,0,.42.02.42.04l.22-.04.09.02.27-.02h.04l.12.02v-.02l.03.02h.22l.22-.02.02.02.12-.02.73.02.15-.02.12.02v-.02l.36.04v-.02l.02.02.12-.02h.18l.2.06.26-.03h.1l.14.03.08-.06.12.02.32-.02.22.02.54-.02h.04c.62,0,.92.15.92.44l-.02.12.05.15c-.07.18-.15.26-.22.26-.04.05-.08.08-.12.08l-.98-.15-.52.03h-.04v-.03l-.12.03h-.4l-.1-.03-.1.03h-.14l-.1-.03-.14.05h-.1l-.02-.02-.02.02-.25-.02h-.07l-.02.02-.03-.02h-.29c-.12,0-.18.01-.18.04l-.02-.02h-.12v.02c.05,0,.08.03.08.08l.09.04c.07-.03.16-.04.27-.04h.04v.04h.32c.7,0,1.06.15,1.06.44l.09.22v.02l-.04.08.02.22v.02c-.08,0-.22.09-.42.26l-.02.03h-.02l-.2-.06-.02.02c-.15-.08-.28-.12-.39-.12h-.44l-.03.03-.07-.03-.66.03-.22-.03-.02.03-.1-.03c-1.01.02-1.52.05-1.52.08l-.1-.02h-.02l-.22.02-.1-.02-.12.04-.02-.02-.12.02-1.8.12-.03-.02-.16.02h-.48c-.48-.08-.71-.21-.71-.38-.07,0-.13-.13-.2-.4,0-.13.03-.26.1-.38l-.07-.05h-.12c-.34,0-.58-.19-.71-.56l-.02-.24c.09-.32.23-.48.42-.48Zm9.83,2.71c.26,0,.44.19.54.56v.4c0,.16-.19.28-.56.36-.1-.07-.26-.11-.46-.12-.09.02-.13.04-.13.07v.18l.03.14c-.1.18-.23.32-.4.42h-.04c-.11,0-.26-.05-.46-.14-.63-.07-1.35-.11-2.16-.12v.02l-.02-.02h-.04l-.76-.03-.3.03-.12-.03-.48.06-.15-.02-.43.02h-.22l-.15.02-.12-.02h-.1l-.07.02-.12-.02h-.27l-.1.02-.02-.02-1.92.12c-.34,0-.58-.22-.71-.66v-.14c.08-.4.27-.59.56-.59l.42.06c.84-.13,1.7-.23,2.58-.3l.08.02c.7-.02,1.04-.04,1.04-.07l.08.02c.52-.01.78-.04.78-.08l.02.03h.15l.02-.03.02.03h.12c.12,0,.18-.02.18-.06l.1.02.51-.02.2.06.36-.06.1.02c.15,0,.22-.02.22-.04l.08.02.51-.02.1.02c.13,0,.2-.02.2-.04l.16.02h.27l.22-.02.02.02c.44-.04.66-.07.66-.1Zm-7.51-1.46l.04.04v-.04h-.04Zm.46,0h.12v-.06h-.08l-.04.06Zm.82-.08v.05h.05l-.05-.05Zm.44.02v.03h.18v-.03l-.05-.04h-.08l-.04.04Zm1.83-.09v.04h.1v-.04h-.1Zm.2-.1v.04h.05v-.04h-.05Zm.12.1v.04h.1l.05-.04h-.15Z"/>
    <path class="cls-1" d="m150.94,93.68h.07c.1.04.24.18.41.41.35.15.53.4.53.73h.03l-.09.87.02.03v.03c-.43,3.14-.8,5.3-1.09,6.48-.12.46-.21,1.08-.25,1.87-.05,0-.12.07-.22.22-.18,0-.27.08-.27.25l-.07.34c-.12.15-.23.24-.31.25-.08-.05-.24-.09-.47-.12l-.22-.47c0-.41.08-.97.25-1.68l-.03-.03v-.03c.21-.85.36-1.94.47-3.25h-.03l.03-.03v-.03l.09-1.43h-.03l.03-.03v-.03c.16-2.88.55-4.32,1.15-4.32Z"/>
    <path class="cls-1" d="m156.19,93.68c.32.02.48.09.48.2l.02.03-.11.54.11.09.18-.03.09.03c.02-.12.05-.18.08-.18h.05c.14,0,.34.06.6.18.03-.15.07-.23.11-.23h.05l.14.09.05-.18h.03c.36.38.54.9.54,1.56l-.03.03v.02l.09.52v.22l.03.03-.03.02c.23,1.05.34,1.84.34,2.36h.03l-.03.02v.03l.03.45-.03.23h.03l-.03.02v.23c-.04.43-.07.69-.11.77l.02.02h-.02l.11.14-.03.09-.08-.05h-.03l-.05.22.02.03v.03c-.34,1.6-.84,2.71-1.5,3.34-.37.23-.74.34-1.11.34h-.25c-.24,0-.52-.08-.82-.23-.48-.23-.85-.58-1.13-1.04-.34-.67-.52-1.26-.52-1.79-.05-.19-.08-.42-.08-.68v-.31l-.03-.25.03-.2v-.03l-.03-.02.2-1.51-.03-.03v-.02c.51-1.82.97-3.07,1.4-3.75.48-.66.81-1.07.97-1.22l.25-.14Zm-1.74,6.07v.23l-.02.14c.02.46.05.71.09.74l-.03.11c.21,1.16.42,1.74.65,1.74v.05h-.05v.06s.05.05.14.05c.23.42.44.63.63.63h.36c.31-.08.48-.18.52-.29.23-.19.52-.66.85-1.42.21-.39.32-1.03.32-1.92l.02-.03-.02-.14v-.31l-.05-2.42c-.15-.81-.4-1.44-.75-1.89l-.13-.12h-.03l-.71.57c-.51.59-.98,1.42-1.42,2.5-.23.72-.34,1.29-.34,1.73Z"/>
    <path class="cls-1" d="m163.33,93.68c.32.02.48.09.48.2l.02.03-.11.54.11.09.18-.03.09.03c.02-.12.05-.18.08-.18h.05c.14,0,.34.06.6.18.03-.15.07-.23.11-.23h.05l.14.09.05-.18h.03c.36.38.54.9.54,1.56l-.03.03v.02l.09.52v.22l.03.03-.03.02c.23,1.05.34,1.84.34,2.36h.03l-.03.02v.03l.03.45-.03.23h.03l-.03.02v.23c-.04.43-.07.69-.11.77l.02.02h-.02l.11.14-.03.09-.08-.05h-.03l-.05.22.02.03v.03c-.34,1.6-.84,2.71-1.5,3.34-.37.23-.74.34-1.11.34h-.25c-.24,0-.52-.08-.82-.23-.48-.23-.85-.58-1.13-1.04-.34-.67-.52-1.26-.52-1.79-.05-.19-.08-.42-.08-.68v-.31l-.03-.25.03-.2v-.03l-.03-.02.2-1.51-.03-.03v-.02c.51-1.82.97-3.07,1.4-3.75.48-.66.81-1.07.97-1.22l.25-.14Zm-1.74,6.07v.23l-.02.14c.02.46.05.71.09.74l-.03.11c.21,1.16.42,1.74.65,1.74v.05h-.05v.06s.05.05.14.05c.23.42.44.63.63.63h.36c.31-.08.48-.18.52-.29.23-.19.52-.66.85-1.42.21-.39.32-1.03.32-1.92l.02-.03-.02-.14v-.31l-.05-2.42c-.15-.81-.4-1.44-.75-1.89l-.13-.12h-.03l-.71.57c-.51.59-.98,1.42-1.42,2.5-.23.72-.34,1.29-.34,1.73Z"/>
    <path class="cls-1" d="m173.17,93.68c.32.02.48.09.48.2l.02.03-.11.54.11.09.18-.03.09.03c.02-.12.05-.18.08-.18h.05c.14,0,.34.06.6.18.03-.15.07-.23.11-.23h.05l.14.09.05-.18h.03c.36.38.54.9.54,1.56l-.03.03v.02l.09.52v.22l.03.03-.03.02c.23,1.05.34,1.84.34,2.36h.03l-.03.02v.03l.03.45-.03.23h.03l-.03.02v.23c-.04.43-.07.69-.11.77l.02.02h-.02l.11.14-.03.09-.08-.05h-.03l-.05.22.02.03v.03c-.34,1.6-.84,2.71-1.5,3.34-.37.23-.74.34-1.11.34h-.25c-.24,0-.52-.08-.82-.23-.48-.23-.85-.58-1.13-1.04-.34-.67-.52-1.26-.52-1.79-.05-.19-.08-.42-.08-.68v-.31l-.03-.25.03-.2v-.03l-.03-.02.2-1.51-.03-.03v-.02c.51-1.82.97-3.07,1.4-3.75.48-.66.81-1.07.97-1.22l.25-.14Zm-1.74,6.07v.23l-.02.14c.02.46.05.71.09.74l-.03.11c.21,1.16.42,1.74.65,1.74v.05h-.05v.06s.05.05.14.05c.23.42.44.63.63.63h.36c.31-.08.48-.18.52-.29.23-.19.52-.66.85-1.42.21-.39.32-1.03.32-1.92l.02-.03-.02-.14v-.31l-.05-2.42c-.15-.81-.4-1.44-.75-1.89l-.13-.12h-.03l-.71.57c-.51.59-.98,1.42-1.42,2.5-.23.72-.34,1.29-.34,1.73Z"/>
    <path class="cls-1" d="m180.31,93.68c.32.02.48.09.48.2l.02.03-.11.54.11.09.18-.03.09.03c.02-.12.05-.18.08-.18h.05c.14,0,.34.06.6.18.03-.15.07-.23.11-.23h.05l.14.09.05-.18h.03c.36.38.54.9.54,1.56l-.03.03v.02l.09.52v.22l.03.03-.03.02c.23,1.05.34,1.84.34,2.36h.03l-.03.02v.03l.03.45-.03.23h.03l-.03.02v.23c-.04.43-.07.69-.11.77l.02.02h-.02l.11.14-.03.09-.08-.05h-.03l-.05.22.02.03v.03c-.34,1.6-.84,2.71-1.5,3.34-.37.23-.74.34-1.11.34h-.25c-.24,0-.52-.08-.82-.23-.48-.23-.85-.58-1.13-1.04-.34-.67-.52-1.26-.52-1.79-.05-.19-.08-.42-.08-.68v-.31l-.03-.25.03-.2v-.03l-.03-.02.2-1.51-.03-.03v-.02c.51-1.82.97-3.07,1.4-3.75.48-.66.81-1.07.97-1.22l.25-.14Zm-1.74,6.07v.23l-.02.14c.02.46.05.71.09.74l-.03.11c.21,1.16.42,1.74.65,1.74v.05h-.05v.06s.05.05.14.05c.23.42.44.63.63.63h.36c.31-.08.48-.18.52-.29.23-.19.52-.66.85-1.42.21-.39.32-1.03.32-1.92l.02-.03-.02-.14v-.31l-.05-2.42c-.15-.81-.4-1.44-.75-1.89l-.13-.12h-.03l-.71.57c-.51.59-.98,1.42-1.42,2.5-.23.72-.34,1.29-.34,1.73Z"/>
    <path class="cls-1" d="m187.45,93.68c.32.02.48.09.48.2l.02.03-.11.54.11.09.18-.03.09.03c.02-.12.05-.18.08-.18h.05c.14,0,.34.06.6.18.03-.15.07-.23.11-.23h.05l.14.09.05-.18h.03c.36.38.54.9.54,1.56l-.03.03v.02l.09.52v.22l.03.03-.03.02c.23,1.05.34,1.84.34,2.36h.03l-.03.02v.03l.03.45-.03.23h.03l-.03.02v.23c-.04.43-.07.69-.11.77l.02.02h-.02l.11.14-.03.09-.08-.05h-.03l-.05.22.02.03v.03c-.34,1.6-.84,2.71-1.5,3.34-.37.23-.74.34-1.11.34h-.25c-.24,0-.52-.08-.82-.23-.48-.23-.85-.58-1.13-1.04-.34-.67-.52-1.26-.52-1.79-.05-.19-.08-.42-.08-.68v-.31l-.03-.25.03-.2v-.03l-.03-.02.2-1.51-.03-.03v-.02c.51-1.82.97-3.07,1.4-3.75.48-.66.81-1.07.97-1.22l.25-.14Zm-1.74,6.07v.23l-.02.14c.02.46.05.71.09.74l-.03.11c.21,1.16.42,1.74.65,1.74v.05h-.05v.06s.05.05.14.05c.23.42.44.63.63.63h.36c.31-.08.48-.18.52-.29.23-.19.52-.66.85-1.42.21-.39.32-1.03.32-1.92l.02-.03-.02-.14v-.31l-.05-2.42c-.15-.81-.4-1.44-.75-1.89l-.13-.12h-.03l-.71.57c-.51.59-.98,1.42-1.42,2.5-.23.72-.34,1.29-.34,1.73Z"/>
    <path class="cls-1" d="m197.29,93.68c.32.02.48.09.48.2l.02.03-.11.54.11.09.18-.03.09.03c.02-.12.05-.18.08-.18h.05c.14,0,.34.06.6.18.03-.15.07-.23.11-.23h.05l.14.09.05-.18h.03c.36.38.54.9.54,1.56l-.03.03v.02l.09.52v.22l.03.03-.03.02c.23,1.05.34,1.84.34,2.36h.03l-.03.02v.03l.03.45-.03.23h.03l-.03.02v.23c-.04.43-.07.69-.11.77l.02.02h-.02l.11.14-.03.09-.08-.05h-.03l-.05.22.02.03v.03c-.34,1.6-.84,2.71-1.5,3.34-.37.23-.74.34-1.11.34h-.25c-.24,0-.52-.08-.82-.23-.48-.23-.85-.58-1.13-1.04-.34-.67-.52-1.26-.52-1.79-.05-.19-.08-.42-.08-.68v-.31l-.03-.25.03-.2v-.03l-.03-.02.2-1.51-.03-.03v-.02c.51-1.82.97-3.07,1.4-3.75.48-.66.81-1.07.97-1.22l.25-.14Zm-1.74,6.07v.23l-.02.14c.02.46.05.71.09.74l-.03.11c.21,1.16.42,1.74.65,1.74v.05h-.05v.06s.05.05.14.05c.23.42.44.63.63.63h.36c.31-.08.48-.18.52-.29.23-.19.52-.66.85-1.42.21-.39.32-1.03.32-1.92l.02-.03-.02-.14v-.31l-.05-2.42c-.15-.81-.4-1.44-.75-1.89l-.13-.12h-.03l-.71.57c-.51.59-.98,1.42-1.42,2.5-.23.72-.34,1.29-.34,1.73Z"/>
    <path class="cls-1" d="m204.44,93.68c.32.02.48.09.48.2l.02.03-.11.54.11.09.18-.03.09.03c.02-.12.05-.18.08-.18h.05c.14,0,.34.06.6.18.03-.15.07-.23.11-.23h.05l.14.09.05-.18h.03c.36.38.54.9.54,1.56l-.03.03v.02l.09.52v.22l.03.03-.03.02c.23,1.05.34,1.84.34,2.36h.03l-.03.02v.03l.03.45-.03.23h.03l-.03.02v.23c-.04.43-.07.69-.11.77l.02.02h-.02l.11.14-.03.09-.08-.05h-.03l-.05.22.02.03v.03c-.34,1.6-.84,2.71-1.5,3.34-.37.23-.74.34-1.11.34h-.25c-.24,0-.52-.08-.82-.23-.48-.23-.85-.58-1.13-1.04-.34-.67-.52-1.26-.52-1.79-.05-.19-.08-.42-.08-.68v-.31l-.03-.25.03-.2v-.03l-.03-.02.2-1.51-.03-.03v-.02c.51-1.82.97-3.07,1.4-3.75.48-.66.81-1.07.97-1.22l.25-.14Zm-1.74,6.07v.23l-.02.14c.02.46.05.71.09.74l-.03.11c.21,1.16.42,1.74.65,1.74v.05h-.05v.06s.05.05.14.05c.23.42.44.63.63.63h.36c.31-.08.48-.18.52-.29.23-.19.52-.66.85-1.42.21-.39.32-1.03.32-1.92l.02-.03-.02-.14v-.31l-.05-2.42c-.15-.81-.4-1.44-.75-1.89l-.13-.12h-.03l-.71.57c-.51.59-.98,1.42-1.42,2.5-.23.72-.34,1.29-.34,1.73Z"/>
    <path class="cls-1" d="m211.58,93.68c.32.02.48.09.48.2l.02.03-.11.54.11.09.18-.03.09.03c.02-.12.05-.18.08-.18h.05c.14,0,.34.06.6.18.03-.15.07-.23.11-.23h.05l.14.09.05-.18h.03c.36.38.54.9.54,1.56l-.03.03v.02l.09.52v.22l.03.03-.03.02c.23,1.05.34,1.84.34,2.36h.03l-.03.02v.03l.03.45-.03.23h.03l-.03.02v.23c-.04.43-.07.69-.11.77l.02.02h-.02l.11.14-.03.09-.08-.05h-.03l-.05.22.02.03v.03c-.34,1.6-.84,2.71-1.5,3.34-.37.23-.74.34-1.11.34h-.25c-.24,0-.52-.08-.82-.23-.48-.23-.85-.58-1.13-1.04-.34-.67-.52-1.26-.52-1.79-.05-.19-.08-.42-.08-.68v-.31l-.03-.25.03-.2v-.03l-.03-.02.2-1.51-.03-.03v-.02c.51-1.82.97-3.07,1.4-3.75.48-.66.81-1.07.97-1.22l.25-.14Zm-1.74,6.07v.23l-.02.14c.02.46.05.71.09.74l-.03.11c.21,1.16.42,1.74.65,1.74v.05h-.05v.06s.05.05.14.05c.23.42.44.63.63.63h.36c.31-.08.48-.18.52-.29.23-.19.52-.66.85-1.42.21-.39.32-1.03.32-1.92l.02-.03-.02-.14v-.31l-.05-2.42c-.15-.81-.4-1.44-.75-1.89l-.13-.12h-.03l-.71.57c-.51.59-.98,1.42-1.42,2.5-.23.72-.34,1.29-.34,1.73Z"/>
    <path class="cls-1" d="m221.42,93.68c.32.02.48.09.48.2l.02.03-.11.54.11.09.18-.03.09.03c.02-.12.05-.18.08-.18h.05c.14,0,.34.06.6.18.03-.15.07-.23.11-.23h.05l.14.09.05-.18h.03c.36.38.54.9.54,1.56l-.03.03v.02l.09.52v.22l.03.03-.03.02c.23,1.05.34,1.84.34,2.36h.03l-.03.02v.03l.03.45-.03.23h.03l-.03.02v.23c-.04.43-.07.69-.11.77l.02.02h-.02l.11.14-.03.09-.08-.05h-.03l-.05.22.02.03v.03c-.34,1.6-.84,2.71-1.5,3.34-.37.23-.74.34-1.11.34h-.25c-.24,0-.52-.08-.82-.23-.48-.23-.85-.58-1.13-1.04-.34-.67-.52-1.26-.52-1.79-.05-.19-.08-.42-.08-.68v-.31l-.03-.25.03-.2v-.03l-.03-.02.2-1.51-.03-.03v-.02c.51-1.82.97-3.07,1.4-3.75.48-.66.81-1.07.97-1.22l.25-.14Zm-1.74,6.07v.23l-.02.14c.02.46.05.71.09.74l-.03.11c.21,1.16.42,1.74.65,1.74v.05h-.05v.06s.05.05.14.05c.23.42.44.63.63.63h.36c.31-.08.48-.18.52-.29.23-.19.52-.66.85-1.42.21-.39.32-1.03.32-1.92l.02-.03-.02-.14v-.31l-.05-2.42c-.15-.81-.4-1.44-.75-1.89l-.13-.12h-.03l-.71.57c-.51.59-.98,1.42-1.42,2.5-.23.72-.34,1.29-.34,1.73Z"/>
    <path class="cls-1" d="m228.56,93.68c.32.02.48.09.48.2l.02.03-.11.54.11.09.18-.03.09.03c.02-.12.05-.18.08-.18h.05c.14,0,.34.06.6.18.03-.15.07-.23.11-.23h.05l.14.09.05-.18h.03c.36.38.54.9.54,1.56l-.03.03v.02l.09.52v.22l.03.03-.03.02c.23,1.05.34,1.84.34,2.36h.03l-.03.02v.03l.03.45-.03.23h.03l-.03.02v.23c-.04.43-.07.69-.11.77l.02.02h-.02l.11.14-.03.09-.08-.05h-.03l-.05.22.02.03v.03c-.34,1.6-.84,2.71-1.5,3.34-.37.23-.74.34-1.11.34h-.25c-.24,0-.52-.08-.82-.23-.48-.23-.85-.58-1.13-1.04-.34-.67-.52-1.26-.52-1.79-.05-.19-.08-.42-.08-.68v-.31l-.03-.25.03-.2v-.03l-.03-.02.2-1.51-.03-.03v-.02c.51-1.82.97-3.07,1.4-3.75.48-.66.81-1.07.97-1.22l.25-.14Zm-1.74,6.07v.23l-.02.14c.02.46.05.71.09.74l-.03.11c.21,1.16.42,1.74.65,1.74v.05h-.05v.06s.05.05.14.05c.23.42.44.63.63.63h.36c.31-.08.48-.18.52-.29.23-.19.52-.66.85-1.42.21-.39.32-1.03.32-1.92l.02-.03-.02-.14v-.31l-.05-2.42c-.15-.81-.4-1.44-.75-1.89l-.13-.12h-.03l-.71.57c-.51.59-.98,1.42-1.42,2.5-.23.72-.34,1.29-.34,1.73Z"/>
    <path class="cls-1" d="m235.7,93.68c.32.02.48.09.48.2l.02.03-.11.54.11.09.18-.03.09.03c.02-.12.05-.18.08-.18h.05c.14,0,.34.06.6.18.03-.15.07-.23.11-.23h.05l.14.09.05-.18h.03c.36.38.54.9.54,1.56l-.03.03v.02l.09.52v.22l.03.03-.03.02c.23,1.05.34,1.84.34,2.36h.03l-.03.02v.03l.03.45-.03.23h.03l-.03.02v.23c-.04.43-.07.69-.11.77l.02.02h-.02l.11.14-.03.09-.08-.05h-.03l-.05.22.02.03v.03c-.34,1.6-.84,2.71-1.5,3.34-.37.23-.74.34-1.11.34h-.25c-.24,0-.52-.08-.82-.23-.48-.23-.85-.58-1.13-1.04-.34-.67-.52-1.26-.52-1.79-.05-.19-.08-.42-.08-.68v-.31l-.03-.25.03-.2v-.03l-.03-.02.2-1.51-.03-.03v-.02c.51-1.82.97-3.07,1.4-3.75.48-.66.81-1.07.97-1.22l.25-.14Zm-1.74,6.07v.23l-.02.14c.02.46.05.71.09.74l-.03.11c.21,1.16.42,1.74.65,1.74v.05h-.05v.06s.05.05.14.05c.23.42.44.63.63.63h.36c.31-.08.48-.18.52-.29.23-.19.52-.66.85-1.42.21-.39.32-1.03.32-1.92l.02-.03-.02-.14v-.31l-.05-2.42c-.15-.81-.4-1.44-.75-1.89l-.13-.12h-.03l-.71.57c-.51.59-.98,1.42-1.42,2.5-.23.72-.34,1.29-.34,1.73Z"/>
    <path class="cls-4" d="m135.73,108c.36,0,.63.27.8.8.25.3.53.98.84,2.03l.66,2.44c0,.27.36,1.28,1.09,3.03,1.11,2.27,1.66,3.5,1.66,3.67l-.02.03h-.03l.03.29c0,.1-.09.2-.26.29h-.02c-.27-.18-.41-.31-.41-.41h-.11c-.15.37-.39.55-.69.55-.45-.15-.74-.36-.89-.63-.37-.81-.72-2-1.03-3.56-.51-1.78-.95-3.2-1.32-4.24-.04,0-.07-.07-.09-.2h-.02c-.09.1-.27.84-.55,2.23v.03h.03l-.14.8.02.25h-.02l.02.03v.11c0,.29-.07.49-.22.6,0,.05.1.26.31.64l.03.11v.2c0,.15-.11.23-.34.23-.48,0-1.19-.73-2.16-2.18-.21-.23-.34-.41-.41-.55h-.08v.03l-.03,1.86-.03.21.03.02-.03.14v.69l-.02.03.02.02v.75l.03.29c-.04.52-.18.78-.41.78h-.2c-.44-.18-.66-.31-.66-.41,0-.13-.08-.32-.25-.57-.18-.64-.4-2.24-.66-4.82l.02-.03v-.03c-.17-1.55-.33-2.32-.48-2.32-.34-.23-.52-.44-.52-.63s.08-.33.23-.43l.02.02h.03l.63-.11c.4.07.66.19.78.34l.29-.03c.46,0,.82.26,1.09.78.73.76,1.27,1.48,1.64,2.14h.09l.54-1.68c.15-.55.4-1.65.75-3.3,0-.15.14-.27.43-.37Z"/>
    <path class="cls-4" d="m142.2,108.01c.48,0,.71.07.71.21.17.11.31.39.42.85h.08c.17-.07.43-.12.77-.14.39,0,.69.28.91.85l-.03.03.03.03-.03.04.03.03h-.03l.03.03v.03l.04.81h.03l-.03.03v.03l.1,1.45-.03.45.03.11-.03.21v.18l.03.14-.03.03v.04l.03.21-.03.81v.07l.03.32-.03.29-.03,2.11h.03l-.03.03c0,.62.11,1.24.32,1.87,0,.21-.15.38-.46.5-.64,0-1.06-.2-1.26-.6l-.4.43-.03-.03h-.03l-.18.03c-.33-.35-.49-.95-.49-1.8l.03-.21-.03-.1.03-.32v-.08l-.03-.18.07-.5c0-.74-.27-2.89-.8-6.44l-.11-1.02c0-.45.14-.74.42-.85Z"/>
    <path class="cls-4" d="m147.71,108.05l.26.07v-.03l.26.1.4-.07c.62.19.93.42.93.69.05,0,.11.26.16.79h.03l-.03.13.1.77-.03.03v.03l.07.2.03,1.48-.03.69.03,1v.36l-.03.56h.03l-.03.03.03.56v.49l.03.03-.03.03v.03l.03,1.06.1.07c2.9-1.06,4.64-1.58,5.22-1.58h.13c.48,0,.8.24.96.73l-.1.36c.4.18.59.4.59.66l.03.23c-.21.38-.45.57-.73.57l-.26-.03c-2.65.37-4.54.79-5.65,1.25-.43.22-.72.33-.86.33s-.44-.12-.93-.36h-.03l-.2.07c-.48,0-.78-.18-.89-.53l-.03-.2v-.03c.18-.26.38-.43.59-.49v-.07h.03l-.07-.44.03-.03-.03-.73v-.33l-.03-.2.1-1.35-.03-.17.03-.53c0-.89-.24-2.84-.73-5.83,0-.18.18-.33.53-.43Z"/>
    <path class="cls-4" d="m158.73,108.05l.26.07v-.03l.26.1.4-.07c.62.19.93.42.93.69.05,0,.11.26.16.79h.03l-.03.13.1.77-.03.03v.03l.07.2.03,1.48-.03.69.03,1v.36l-.03.56h.03l-.03.03.03.56v.49l.03.03-.03.03v.03l.03,1.06.1.07c2.9-1.06,4.64-1.58,5.22-1.58h.13c.48,0,.8.24.96.73l-.1.36c.4.18.59.4.59.66l.03.23c-.21.38-.45.57-.73.57l-.26-.03c-2.65.37-4.54.79-5.65,1.25-.43.22-.72.33-.86.33s-.44-.12-.93-.36h-.03l-.2.07c-.48,0-.78-.18-.89-.53l-.03-.2v-.03c.18-.26.38-.43.59-.49v-.07h.03l-.07-.44.03-.03-.03-.73v-.33l-.03-.2.1-1.35-.03-.17.03-.53c0-.89-.24-2.84-.73-5.83,0-.18.18-.33.53-.43Z"/>
    <path class="cls-4" d="m169.44,108.01c.48,0,.71.07.71.21.17.11.31.39.42.85h.08c.17-.07.43-.12.77-.14.39,0,.69.28.91.85l-.03.03.03.03-.03.04.03.03h-.03l.03.03v.03l.04.81h.03l-.03.03v.03l.1,1.45-.03.45.03.11-.03.21v.18l.03.14-.03.03v.04l.03.21-.03.81v.07l.03.32-.03.29-.03,2.11h.03l-.03.03c0,.62.11,1.24.32,1.87,0,.21-.15.38-.46.5-.64,0-1.06-.2-1.26-.6l-.4.43-.03-.03h-.03l-.18.03c-.33-.35-.49-.95-.49-1.8l.03-.21-.03-.1.03-.32v-.08l-.03-.18.07-.5c0-.74-.27-2.89-.8-6.44l-.11-1.02c0-.45.14-.74.42-.85Z"/>
    <path class="cls-4" d="m178.6,108.01l.13.03h.08v-.03c.95,0,1.81.49,2.56,1.47.04.22.1.37.18.46,0,.29-.19.5-.56.63l-.21.03c-.54-.28-1.08-.42-1.65-.42-.9,0-1.68.5-2.32,1.51.01.07.15.16.42.25.09.1.71.29,1.86.59,1.52.25,2.49.49,2.92.74.53.2,1.08.6,1.65,1.2.28.42.42.91.42,1.47v.11c0,.32-.18.8-.53,1.44-.67.75-1.24,1.21-1.72,1.4-1.09.4-2.02.6-2.78.6l-.03.03h-.03l-.03-.03h-.04l-.39.03h-.27l-.03.03-.04-.03h-.42c-1.72,0-2.89-.68-3.51-2.03-.05,0-.09-.11-.11-.32l.07-.08.29.18h.11v-.07h.07c.1,0,.35.16.74.49h.11v-.21l-.04-.14c.06-.18.15-.33.29-.43,0-.22.09-.38.27-.48l.18-.46h.08l.03.18h.03l.29-.07h.1c.21.07.32.25.32.53,0,.21.06.36.18.45l-.03.43c.21.15.75.28,1.65.38l.03-.04.25.04c.8,0,1.57-.2,2.31-.6.52-.44.78-.84.78-1.19,0-.45-.51-.98-1.52-1.58l-.53-.21c0-.14-.45-.29-1.36-.46-1.17-.09-2.03-.24-2.56-.45-.84-.48-1.26-1.03-1.26-1.65l-.22-.81c0-1.44,1.22-2.4,3.66-2.88l.18-.03Z"/>
    <path class="cls-4" d="m189.47,108.02c.45.03.67.15.67.35.48,1.09.93,2.44,1.34,4.06.05.39.11.58.17.58l.22-.02c.09,0,.13.02.13.06l.02-.03h.03c.23,0,.37.16.43.48,0,.23-.22.44-.65.65h-.02c.28,1.96.59,3.44.93,4.45l.03.13c-.09.27-.26.41-.52.41,0,.02-.06.04-.19.06,0,.14-.07.21-.21.21l-.3-.02-.03.02h-.02c-.07,0-.23-.27-.48-.8-.27-.64-.47-1.36-.59-2.18l.03-.19c-.06-.1-.13-.4-.22-.91l-.02-.02h-.03l-1.02.45c-.55.18-.82.34-.82.46-.23.89-.4,1.34-.52,1.34-.25.07-.37.3-.37.69l-.32,1.75c-.11.11-.19.17-.24.17l-.03-.03h-.02l-.19.06-.03-.08h-.1l-.03.02h-.02l-.11-.29c0-.66.18-1.76.54-3.31l-.03-.02h-.02l-.73.11h-.19c-.31-.13-.46-.28-.46-.44l-.02-.08c.12-.26.28-.4.46-.4.02-.07.23-.12.62-.16l.02-.03v-.02l-.05-.17v-.02c0-.27.29-.53.86-.78.1-.1.18-.27.22-.54.04-.04.12-.44.24-1.18.27-.81.51-2.18.73-4.11.17-.25.33-.37.48-.37.04-.08.19-.18.45-.3Zm-.02,3.35c-.15.38-.31,1.18-.48,2.4h.05c.47-.12.77-.23.91-.33-.25-1.33-.4-2.02-.46-2.07h-.02Z"/>
    <path class="cls-4" d="m204.62,107.98l.6.03h.48l.2.08.51-.08.34.11.04-.03h.03c.32,0,.9.1,1.73.3v.03l-.07.08c.01.09.09.13.24.13v.03c0,.15-.08.31-.24.47l.03.03c.01.1.07.14.18.14l.1.57c0,.08-.14.18-.41.31l-1.4-.17-.03.03h-.03l-.18-.03-1.46.1-.17-.03c-.1.04-.69.11-1.77.21l-.07.1.03.03-.03.03h.03l-.03.03v.03c.04.18.09.7.13,1.56l.03.04-.03.03v.03l.03.23-.03.45.03.03v.03l-.03.03.03.37-.1,4.39c0,.21.04.47.13.78v.27c-.15.23-.33.34-.54.34-.43-.1-.73-.23-.88-.37l-.04.03.08.2v.24c0,.12-.08.23-.24.34-.24,0-.56-.18-.96-.54-.29-.56-.44-1.08-.44-1.54l.03-.13v-.03l-.03-.03.03-.03v-.31l-.03-.81.03-.04v-.03l-.07-.1.07-.2v-.04l-.03-.1.03-.17v-.37c-.13-1.91-.25-2.86-.34-2.86l.03-.14c-.05,0-.13-.42-.23-1.25-.36,0-1.21.18-2.55.55l-2.32,1.15-.17.03c-.73-.18-1.09-.47-1.09-.89,0-.27.16-.45.47-.54.73-.37,1.22-.58,1.46-.65.18-.23.33-.34.45-.34.14-.08.52-.21,1.15-.37.94-.43,2.04-.82,3.3-1.15l.07-.07h.13c.21,0,.52-.08.92-.24l.1.03c.43-.03.65-.08.65-.16l.24.03.41-.1.03.03h.03l1.36-.18Zm-3.3,2.69c.02.65.05.98.1.98l-.03.03v.03l.2,1.26-.03.03.18,1.46-.03.13.03.37-.03.14.03.13h.07l.07-1.12-.03-.68v-.1l-.03-.03.03-.03v-.11h-.03l.03-.23v-.07c0-.16-.02-.29-.07-.37l.03-.11-.07-.37.03-.1c-.07-.91-.15-1.36-.24-1.36h-.1l-.1.11Zm.41,4.68l-.08.34v.24l.08.07.07-.07v-.31l-.03-.13.03-.14h-.07Zm-.08,1.3v.07l.08.07h.03v-.13h-.11Zm.04-.27v.11h.03l.03-.11h-.07Zm0,.65v.21h.03s.07-.04.07-.11l-.03-.1h-.07Z"/>
    <path class="cls-4" d="m214.28,107.96c.83.16,1.43.44,1.8.85.04,0,.07.17.08.52l-.03.17c.45,0,.96.48,1.53,1.44.21.3.34.62.4.97.24.44.36.8.36,1.09l-.04.15.24,1.01-.08.23.04.45v.12l-.12,1.04.03.03v.04c-.21.93-.72,1.81-1.53,2.65-.7.51-1.43.76-2.17.76l-.03.04c-.56,0-1.29-.19-2.18-.56-1.23-.76-2.13-1.9-2.68-3.42l-.29-1.24.04-.04-.04-.2v-.32c0-.32.25-1.13.76-2.45h-.03c.21-.59.41-.98.6-1.17.29-.76.89-1.39,1.8-1.88.38-.19.89-.29,1.53-.29Zm-2.25,5.71c0,2.1.59,3.48,1.77,4.13l.24.04c1.19,0,1.97-1.12,2.33-3.38v-.17c0-.48-.36-1.33-1.09-2.53-.06,0-.35-.41-.88-1.24h-.09c-.92.29-1.51.6-1.76.96-.35.73-.53,1.46-.53,2.18Z"/>
    <path class="cls-4" d="m224.52,108.01l.13.03h.08v-.03c.95,0,1.81.49,2.56,1.47.04.22.1.37.18.46,0,.29-.19.5-.56.63l-.21.03c-.54-.28-1.08-.42-1.65-.42-.9,0-1.68.5-2.32,1.51.01.07.15.16.42.25.09.1.71.29,1.86.59,1.52.25,2.49.49,2.92.74.53.2,1.08.6,1.65,1.2.28.42.42.91.42,1.47v.11c0,.32-.18.8-.53,1.44-.67.75-1.24,1.21-1.72,1.4-1.09.4-2.02.6-2.78.6l-.03.03h-.03l-.03-.03h-.04l-.39.03h-.27l-.03.03-.04-.03h-.42c-1.72,0-2.89-.68-3.51-2.03-.05,0-.09-.11-.11-.32l.07-.08.29.18h.11v-.07h.07c.1,0,.35.16.74.49h.11v-.21l-.04-.14c.06-.18.15-.33.29-.43,0-.22.09-.38.27-.48l.18-.46h.08l.03.18h.03l.29-.07h.1c.21.07.32.25.32.53,0,.21.06.36.18.45l-.03.43c.21.15.75.28,1.65.38l.03-.04.25.04c.8,0,1.57-.2,2.31-.6.52-.44.78-.84.78-1.19,0-.45-.51-.98-1.52-1.58l-.53-.21c0-.14-.45-.29-1.36-.46-1.17-.09-2.03-.24-2.56-.45-.84-.48-1.26-1.03-1.26-1.65l-.22-.81c0-1.44,1.22-2.4,3.66-2.88l.18-.03Z"/>
    <path class="cls-4" d="m238.67,107.98h.36c.5.35.75.75.75,1.2.58,0,.91.55,1,1.64,0,.32.03.48.08.48l-.03.03v.03c.22,1.51.39,2.88.52,4.1l-.03.03v.03l.11.64-.03.03v.04l.11.78-.04.3.04.14-.04.15.26,2.04-.03.11.03.03v.04c-.04.12-.11.25-.22.37l.14.59-.33.3-.37.03c-.59-.1-1.14-1.21-1.64-3.31l.03-.03v-.04c-.12-.32-.19-.64-.22-.97h-.03l.03-.03v-.03c-.16-1.09-.27-1.64-.33-1.64l-2.83.44-.15.11c.07,1.07.12,1.61.15,1.61l-.04.11.3,1.34-.44.37-.23-.08c0,.4-.07.59-.22.59h-.19c0,.07-.03.11-.08.11-.45,0-1-.95-1.64-2.86l-.07-.08-.3.08h-.3c-.29,0-.6-.2-.93-.59-.1-.18-.15-.33-.15-.45h-.03c0-.34.33-.6,1-.78l.04.03h.03c.15-.04.22-.11.22-.19-.37-1.77-.63-3.17-.78-4.2-.07-.1-.14-.44-.22-1h-.03l.03-.04v-.08l-.03-.22c0-.18.21-.36.63-.52.55.24.82.47.82.67.05,0,.1.16.14.48l.04.03h.11l.19-.14.03.03h.45c.69.11,1.03.4,1.03.86.1,0,.21,1.03.34,3.09l1.75-.42.92-.11.12.04c.08-.03.13-.08.14-.15-.27-1.47-.46-2.67-.56-3.61l-.03-.04.03-.3-.03-.25c0-.5.21-.84.64-1.01Z"/>
    <path class="cls-4" d="m243.61,108.01c.48,0,.71.07.71.21.17.11.31.39.42.85h.08c.17-.07.43-.12.77-.14.39,0,.69.28.91.85l-.03.03.03.03-.03.04.03.03h-.03l.03.03v.03l.04.81h.03l-.03.03v.03l.1,1.45-.03.45.03.11-.03.21v.18l.03.14-.03.03v.04l.03.21-.03.81v.07l.03.32-.03.29-.03,2.11h.03l-.03.03c0,.62.11,1.24.32,1.87,0,.21-.15.38-.46.5-.64,0-1.06-.2-1.26-.6l-.4.43-.03-.03h-.03l-.18.03c-.33-.35-.49-.95-.49-1.8l.03-.21-.03-.1.03-.32v-.08l-.03-.18.07-.5c0-.74-.27-2.89-.8-6.44l-.11-1.02c0-.45.14-.74.42-.85Z"/>
    <path class="cls-4" d="m252.76,108.01l.13.03h.08v-.03c.95,0,1.81.49,2.56,1.47.04.22.1.37.18.46,0,.29-.19.5-.56.63l-.21.03c-.54-.28-1.08-.42-1.65-.42-.9,0-1.68.5-2.32,1.51.01.07.15.16.42.25.09.1.71.29,1.86.59,1.52.25,2.49.49,2.92.74.53.2,1.08.6,1.65,1.2.28.42.42.91.42,1.47v.11c0,.32-.18.8-.53,1.44-.67.75-1.24,1.21-1.72,1.4-1.09.4-2.02.6-2.78.6l-.03.03h-.03l-.03-.03h-.04l-.39.03h-.27l-.03.03-.04-.03h-.42c-1.72,0-2.89-.68-3.51-2.03-.05,0-.09-.11-.11-.32l.07-.08.29.18h.11v-.07h.07c.1,0,.35.16.74.49h.11v-.21l-.04-.14c.06-.18.15-.33.29-.43,0-.22.09-.38.27-.48l.18-.46h.08l.03.18h.03l.29-.07h.1c.21.07.32.25.32.53,0,.21.06.36.18.45l-.03.43c.21.15.75.28,1.65.38l.03-.04.25.04c.8,0,1.57-.2,2.31-.6.52-.44.78-.84.78-1.19,0-.45-.51-.98-1.52-1.58l-.53-.21c0-.14-.45-.29-1.36-.46-1.17-.09-2.03-.24-2.56-.45-.84-.48-1.26-1.03-1.26-1.65l-.22-.81c0-1.44,1.22-2.4,3.66-2.88l.18-.03Z"/>
  </g>
</svg>