<?xml version="1.0" encoding="UTF-8"?>
<svg id="Layer_1" data-name="Layer 1" xmlns="http://www.w3.org/2000/svg" width="300" height="225" viewBox="0 0 300 225">
  <defs>
    <style>
      .cls-1 {
        fill: #84cd29;
      }

      .cls-2 {
        fill: #fff;
      }

      .cls-3 {
        fill: #23140a;
      }

      .cls-4, .cls-5 {
        isolation: isolate;
      }

      .cls-5 {
        opacity: .35;
      }

      .cls-6 {
        fill: #232323;
      }

      .cls-7 {
        clip-path: url(#clippath-1);
      }

      .cls-8 {
        fill: #ff7e1c;
      }

      .cls-9 {
        clip-path: url(#clippath);
      }

      .cls-10 {
        fill: none;
      }

      .cls-11 {
        fill: #ea651b;
      }
    </style>
    <clipPath id="clippath">
      <rect class="cls-10" x="62.73" y="7.49" width="90.76" height="207.94" transform="translate(216.23 222.93) rotate(180)"/>
    </clipPath>
    <clipPath id="clippath-1">
      <rect class="cls-10" x="153.49" y="7.49" width="110.8" height="207.94" transform="translate(417.78 222.93) rotate(180)"/>
    </clipPath>
  </defs>
  <g class="cls-9">
    <g>
      <g class="cls-5">
        <path class="cls-6" d="m118.72,117.96l-.48-1.31c-1.08-.13-2.06-.51-2.94-1.16-.88-.65-1.54-1.51-1.95-2.6h2.15c.19.46.46.85.83,1.19.36.34.78.57,1.24.7l-1.31-3.58c-.11-.03-.22-.07-.33-.1-.11-.03-.23-.07-.35-.1-.98-.32-1.78-.73-2.42-1.22s-1.1-1.16-1.4-1.99c-.37-.97-.36-1.75.03-2.35s1.05-.93,1.99-1.02l-.5-1.37h1.07s.51,1.39.51,1.39c.99.1,1.9.46,2.71,1.06.81.61,1.41,1.38,1.79,2.33h-2.19c-.13-.33-.34-.63-.63-.91-.29-.28-.62-.47-.99-.59l1.15,3.15c.1.03.19.07.29.09.1.03.19.06.29.09.63.2,1.22.44,1.78.71.56.27,1.05.63,1.49,1.08.44.45.79,1.02,1.04,1.72.21.59.28,1.14.19,1.64-.08.51-.33.93-.73,1.26-.4.33-.98.52-1.73.56l.47,1.29h-1.07Zm-4.89-10.31c.13.36.34.65.62.87.28.22.62.41,1.02.57l-1.03-2.81c-.31.07-.52.22-.64.46-.12.24-.11.54.02.92Zm5.64,5.7c-.17-.45-.42-.81-.77-1.07-.35-.26-.76-.48-1.23-.66l1.18,3.22c.4-.07.68-.23.83-.49.15-.26.15-.59,0-1Z"/>
        <path class="cls-6" d="m125.79,116.5l-3.44-9.39-1.67.46-.61-1.66,2.23-1.27h1.26s4.34,11.87,4.34,11.87h-2.12Z"/>
        <path class="cls-6" d="m134.74,116.72c-1.03,0-2.01-.26-2.93-.78-.92-.52-1.75-1.23-2.49-2.16-.74-.92-1.33-1.99-1.77-3.21-.44-1.21-.63-2.28-.57-3.2.06-.93.36-1.65.91-2.16.55-.51,1.33-.77,2.37-.77,1.03,0,2.01.26,2.93.78s1.75,1.24,2.49,2.17c.74.93,1.33,2,1.77,3.21.45,1.22.64,2.29.58,3.21-.06.92-.37,1.64-.91,2.15-.55.51-1.33.77-2.37.77Zm-.71-1.95c.84,0,1.39-.37,1.65-1.12.26-.74.15-1.77-.33-3.07s-1.12-2.32-1.92-3.07c-.81-.75-1.63-1.12-2.47-1.12-.85,0-1.4.37-1.66,1.12s-.14,1.77.33,3.07,1.11,2.32,1.91,3.07c.8.75,1.62,1.12,2.48,1.12Z"/>
        <path class="cls-6" d="m146.07,116.74c-1.03,0-2.01-.26-2.93-.78-.92-.52-1.75-1.23-2.49-2.16-.74-.92-1.33-1.99-1.77-3.21-.44-1.21-.63-2.28-.57-3.2s.36-1.65.91-2.16c.55-.51,1.33-.77,2.37-.77,1.03,0,2.01.26,2.93.78s1.75,1.24,2.49,2.16c.74.93,1.33,2,1.77,3.21.45,1.22.64,2.29.58,3.21-.06.92-.37,1.64-.91,2.15-.55.51-1.33.77-2.37.77Zm-.71-1.95c.84,0,1.39-.37,1.65-1.12s.15-1.77-.33-3.07-1.12-2.32-1.92-3.07c-.81-.75-1.63-1.12-2.47-1.12-.85,0-1.4.37-1.66,1.12-.25.75-.14,1.77.33,3.07s1.11,2.32,1.91,3.07,1.62,1.12,2.48,1.12Z"/>
        <path class="cls-6" d="m157.39,116.75c-1.03,0-2.01-.26-2.93-.78-.92-.51-1.75-1.23-2.49-2.16-.74-.92-1.33-1.99-1.77-3.21-.44-1.21-.63-2.28-.57-3.2.06-.93.36-1.65.91-2.16.55-.51,1.33-.77,2.37-.77,1.03,0,2.01.26,2.93.78.92.52,1.75,1.24,2.49,2.17.74.93,1.33,2,1.77,3.21.45,1.22.64,2.29.58,3.21-.06.92-.37,1.64-.91,2.15-.54.51-1.33.77-2.37.77Zm-.71-1.95c.84,0,1.39-.37,1.65-1.12.26-.74.15-1.77-.33-3.07s-1.12-2.32-1.92-3.07c-.8-.75-1.63-1.12-2.47-1.12-.85,0-1.4.37-1.66,1.12-.25.75-.14,1.77.33,3.07.48,1.3,1.11,2.32,1.91,3.07.8.75,1.62,1.12,2.48,1.12Z"/>
      </g>
      <g class="cls-5">
        <path class="cls-6" d="m189.89,135.13l-16.97-46.37c-.94-2.56-3.65-4.64-6.06-4.65l-78.54-.13c-2.41,0-3.6,2.07-2.67,4.63l16.97,46.37c.94,2.56,3.65,4.64,6.06,4.64l78.54.13c2.41,0,3.6-2.07,2.67-4.63Z"/>
      </g>
      <g>
        <g>
          <path class="cls-1" d="m170.52,78.08l-78.54-.13c-2.41,0-3.6,2.07-2.67,4.63l16.97,46.37c.94,2.56,3.65,4.64,6.06,4.64l78.54.13c2.41,0,3.6-2.07,2.67-4.63l-16.97-46.37c-.94-2.56-3.65-4.64-6.06-4.65Z"/>
          <path class="cls-2" d="m111.98,126.64l-3.39-9.27c4.82,0,10.24,4.17,12.12,9.29h-8.73Z"/>
          <path class="cls-2" d="m100.11,94.18l-3.39-9.28,8.73.02c1.87,5.12-.51,9.27-5.33,9.26Z"/>
          <path class="cls-2" d="m186.16,126.77h-8.73c-1.87-5.14.51-9.28,5.34-9.27l3.39,9.27Z"/>
          <path class="cls-2" d="m174.28,94.31c-4.82,0-10.25-4.17-12.12-9.29h8.73s3.4,9.29,3.4,9.29Z"/>
          <path class="cls-2" d="m147.37,122.07c-17.1-.03-33.62-7.32-36.9-16.28-3.28-8.96,7.92-16.21,25.02-16.18,17.1.03,33.62,7.32,36.9,16.28,3.28,8.96-7.93,16.21-25.02,16.18Z"/>
        </g>
        <polygon class="cls-10" points="175.95 115.48 113.74 115.38 107.59 98.58 169.81 98.69 175.95 115.48"/>
        <g class="cls-4">
          <path class="cls-1" d="m136.13,111.93l-.48-1.31c-1.08-.13-2.06-.51-2.94-1.16-.88-.65-1.54-1.51-1.95-2.6h2.15c.19.46.46.85.83,1.19.36.34.78.57,1.24.7l-1.31-3.58c-.11-.03-.22-.07-.33-.1-.11-.03-.23-.07-.35-.1-.98-.32-1.78-.73-2.42-1.22-.63-.5-1.1-1.16-1.4-1.99-.37-.97-.36-1.75.03-2.35.39-.59,1.05-.93,1.99-1.02l-.5-1.37h1.07s.51,1.39.51,1.39c.99.1,1.9.46,2.71,1.06s1.41,1.38,1.79,2.33h-2.19c-.13-.33-.34-.63-.63-.91-.29-.28-.62-.47-.99-.59l1.15,3.15c.1.03.19.07.29.09.1.03.19.06.29.09.63.2,1.22.44,1.78.71.56.27,1.05.63,1.5,1.08.44.45.79,1.02,1.04,1.72.22.59.28,1.14.19,1.64-.08.51-.33.93-.73,1.26s-.98.52-1.73.56l.47,1.29h-1.07Zm-4.89-10.31c.13.36.34.65.62.87.28.22.62.41,1.02.57l-1.03-2.81c-.31.07-.52.22-.64.46s-.11.54.02.92Zm5.64,5.7c-.17-.45-.42-.81-.77-1.07-.35-.26-.76-.48-1.23-.66l1.18,3.22c.4-.07.68-.23.83-.49s.15-.59,0-1Z"/>
          <path class="cls-1" d="m143.2,110.47l-3.44-9.39-1.67.45-.61-1.66,2.23-1.27h1.26s4.34,11.87,4.34,11.87h-2.12Z"/>
          <path class="cls-1" d="m152.14,110.69c-1.03,0-2.01-.26-2.93-.78-.92-.52-1.75-1.23-2.49-2.16-.74-.92-1.33-1.99-1.77-3.21-.44-1.21-.63-2.28-.57-3.2.06-.93.36-1.65.91-2.16.55-.51,1.33-.77,2.37-.77s2.01.26,2.93.78c.92.52,1.75,1.24,2.49,2.17.74.93,1.33,2,1.77,3.21.45,1.22.64,2.29.58,3.21-.06.92-.37,1.64-.91,2.15-.55.51-1.33.77-2.37.77Zm-.71-1.95c.84,0,1.39-.37,1.65-1.12.26-.75.15-1.77-.33-3.07-.48-1.3-1.12-2.32-1.92-3.07s-1.63-1.12-2.47-1.12c-.85,0-1.4.37-1.66,1.12s-.14,1.77.33,3.07c.48,1.3,1.11,2.32,1.91,3.07.8.75,1.62,1.12,2.48,1.12Z"/>
        </g>
      </g>
    </g>
  </g>
  <g class="cls-7">
    <g>
      <g>
        <path class="cls-11" d="m75.5,142.07c3.65,8.04,8.62,15.66,14.92,22.52,31.99,34.84,86.15,37.15,120.99,5.16,18.59-17.07,27.91-40.44,27.71-63.83-5.55,13.16-13.95,25.36-25.16,35.65-39.45,36.22-99.56,35.78-138.46.49Z"/>
        <path class="cls-8" d="m95.58,43.61c-27.97,25.68-34.97,65.67-20.08,98.47,38.9,35.29,99,35.73,138.46-.49,11.21-10.29,19.6-22.5,25.16-35.66-.17-20.45-7.63-40.91-22.55-57.16-31.99-34.84-86.16-37.15-120.99-5.16Z"/>
      </g>
      <path class="cls-2" d="m178.44,114.13c1.25,2.8,1.16,6.18-.27,10.16-1.84,4.77-4.81,7.81-8.9,9.11-3.54,1.06-8.42.97-14.64-.25l-2.46,9.45-6.81-1.77,2.43-9.32-5.28-1.38-2.43,9.32-6.82-1.78,2.46-9.45-13.48-3.51,3.49-7.7,1.39.36c2.2.67,3.64.99,4.34.98,1-.04,1.74-.58,2.21-1.64l7.86-30.16c.11-1.55-.43-2.68-1.63-3.39-.76-.5-2.5-1.05-5.21-1.65l-1.11-.29,1.88-7.23,4.13,1.23c4.91,1.28,8.02,2.03,9.34,2.28l2.86-10.97,6.82,1.77-2.82,10.84,5.32,1.23,2.79-10.69,6.8,1.77-2.86,10.97c4.6,1.69,7.95,3.65,10.04,5.88,2.58,2.65,3.52,5.86,2.83,9.64-.85,5.52-3.73,8.82-8.66,9.91h0c3.24,1.63,5.37,3.73,6.39,6.27h0Zm-28.05-13.69l1.11.29c3.87,1.11,6.94,1.67,9.22,1.67,3.95.04,6.32-1.48,7.12-4.53.8-3.06-.48-5.57-3.83-7.53-1.89-1.09-4.84-2.09-8.85-3.04-.67-.08-1.11-.15-1.29-.2l-3.47,13.34h0Zm-4.35,21.88c4.7,1.32,8.32,2.01,10.88,2.08,4.65.02,7.41-1.63,8.28-4.97.87-3.34-.68-6.11-4.66-8.33-2.15-1.25-5.61-2.4-10.38-3.44l-1.54-.4-3.84,14.73,1.26.33h0Z"/>
    </g>
  </g>
  <path class="cls-3" d="m153.49,213.62c-.55,0-1-.45-1-1V10.31c0-.55.45-1,1-1s1,.45,1,1v202.3c0,.55-.45,1-1,1Z"/>
</svg>