<?xml version="1.0" encoding="utf-8"?>
<!-- Generator: Adobe Illustrator 16.0.4, SVG Export Plug-In . SVG Version: 6.00 Build 0)  -->
<!DOCTYPE svg PUBLIC "-//W3C//DTD SVG 1.1//EN" "http://www.w3.org/Graphics/SVG/1.1/DTD/svg11.dtd">
<svg version="1.1" id="Layer_1" xmlns="http://www.w3.org/2000/svg" xmlns:xlink="http://www.w3.org/1999/xlink" x="0px" y="0px"
	 width="213px" height="60px" viewBox="0 0 213 60" enable-background="new 0 0 213 60" xml:space="preserve">
<path opacity="0.5" fill="#FFFFFF" d="M212.882,21.858l-1.596-0.666l-0.666-1.596c-0.053-0.106-0.181-0.149-0.287-0.097
	c-0.042,0.021-0.076,0.055-0.097,0.097l-0.665,1.596l-1.596,0.666c-0.106,0.053-0.149,0.182-0.097,0.288
	c0.021,0.042,0.055,0.075,0.097,0.096l1.596,0.666l0.665,1.596c0.053,0.106,0.182,0.149,0.287,0.097
	c0.042-0.021,0.076-0.055,0.097-0.097l0.666-1.596l1.596-0.666c0.105-0.053,0.148-0.182,0.096-0.288
	C212.957,21.912,212.923,21.878,212.882,21.858L212.882,21.858z"/>
<path opacity="0.5" fill="#FFFFFF" d="M157.392,53.033l-4.023-1.677l-1.679-4.023c-0.133-0.267-0.455-0.375-0.722-0.243
	c-0.105,0.052-0.192,0.137-0.245,0.243l-1.677,4.023l-4.022,1.677c-0.268,0.134-0.376,0.458-0.243,0.725
	c0.053,0.105,0.139,0.189,0.243,0.242l4.022,1.678l1.677,4.022c0.134,0.267,0.457,0.376,0.726,0.244
	c0.105-0.052,0.19-0.137,0.241-0.244l1.679-4.022L157.392,54c0.267-0.133,0.375-0.458,0.241-0.726
	C157.582,53.17,157.496,53.085,157.392,53.033L157.392,53.033z"/>
<path opacity="0.5" fill="#FFFFFF" d="M29.34,4.761L26.148,3.43l-1.332-3.192c-0.104-0.211-0.361-0.298-0.573-0.193
	c-0.083,0.042-0.152,0.109-0.193,0.193L22.718,3.43l-3.191,1.331c-0.213,0.106-0.298,0.363-0.193,0.575
	c0.043,0.083,0.11,0.15,0.193,0.192l3.191,1.331l1.331,3.192c0.105,0.211,0.362,0.298,0.574,0.193
	c0.084-0.042,0.152-0.109,0.192-0.193l1.332-3.192l3.192-1.331c0.211-0.106,0.298-0.364,0.191-0.576
	C29.491,4.87,29.422,4.802,29.34,4.761L29.34,4.761z"/>
<path opacity="0.5" fill="#FFFFFF" d="M190.675,10.36l1.996,0.832l0.832,1.996c0.065,0.132,0.227,0.186,0.358,0.121
	c0.053-0.026,0.095-0.069,0.12-0.121l0.833-1.996l1.995-0.832c0.132-0.066,0.187-0.227,0.12-0.359
	c-0.026-0.052-0.068-0.094-0.12-0.12l-1.995-0.832l-0.833-1.995c-0.065-0.132-0.226-0.187-0.358-0.12
	c-0.052,0.025-0.094,0.068-0.12,0.12l-0.832,1.995l-1.996,0.832c-0.132,0.066-0.186,0.227-0.119,0.359
	C190.581,10.292,190.623,10.334,190.675,10.36L190.675,10.36z"/>
<path opacity="0.5" fill="#FFFFFF" d="M0.148,44.859l1.995,0.832l0.833,1.996c0.065,0.132,0.226,0.187,0.358,0.121
	c0.053-0.026,0.095-0.068,0.121-0.121l0.833-1.996l1.995-0.832c0.132-0.066,0.186-0.227,0.12-0.359
	c-0.026-0.052-0.068-0.094-0.12-0.12l-1.995-0.832l-0.833-1.995c-0.066-0.133-0.226-0.187-0.358-0.121
	c-0.053,0.026-0.095,0.068-0.121,0.121l-0.833,1.995L0.148,44.38c-0.132,0.066-0.186,0.227-0.12,0.359
	C0.055,44.791,0.096,44.833,0.148,44.859L0.148,44.859z"/>
</svg>
