<?xml version="1.0" encoding="utf-8"?>
<!-- Generator: Adobe Illustrator 23.0.6, SVG Export Plug-In . SVG Version: 6.00 Build 0)  -->
<svg version="1.1" id="Layer_1" xmlns="http://www.w3.org/2000/svg" xmlns:xlink="http://www.w3.org/1999/xlink" x="0px" y="0px"
	 viewBox="0 0 1002.48 418.42" style="enable-background:new 0 0 1002.48 418.42;" xml:space="preserve">
<style type="text/css">
	.st0{fill:url(#SVGID_1_);}
	.st1{fill:#010101;}
	.st2{fill:#EC8623;}
	.st3{fill:#FFFFFF;}
	.st4{fill:url(#SVGID_2_);}
	.st5{fill:url(#SVGID_3_);}
	.st6{fill:url(#SVGID_4_);}
	.st7{fill:url(#SVGID_5_);}
	.st8{fill:#1D1D1B;}
	.st9{fill:url(#SVGID_6_);}
</style>
<g>
	<linearGradient id="SVGID_1_" gradientUnits="userSpaceOnUse" x1="157.3764" y1="302.3371" x2="301.3369" y2="118.5719">
		<stop  offset="0" style="stop-color:#FEBE13"/>
		<stop  offset="0.5" style="stop-color:#EF8B22"/>
		<stop  offset="1" style="stop-color:#F15822"/>
	</linearGradient>
	<path class="st0" d="M257.76,97.27c-0.1-0.03-0.21-0.06-0.32-0.08c-9.43-2.34-18.87-3.46-28.17-3.46v0h-0.04v0
		c-52.35,0.02-99.96,35.52-113.13,88.63c-15.51,62.55,22.62,125.84,85.17,141.35c9.43,2.34,18.88,3.46,28.18,3.46
		c52.37,0,100-35.51,113.17-88.63C358.1,176.11,320.15,112.93,257.76,97.27z M333.46,236.27c-11.89,47.96-54.67,81.46-104.01,81.46
		c-8.68,0-17.4-1.07-25.91-3.18c-27.81-6.89-51.26-24.2-66.05-48.74s-19.13-53.37-12.23-81.17c11.89-47.95,54.71-81.44,104.04-81.47
		c8.67,0,17.37,1.07,25.95,3.2l0.11,0.03l0.11,0.03C312.67,120.78,347.65,179.03,333.46,236.27z"/>
	<path class="st3" d="M253.68,194.83c-3.35,13.41-23.79,6.53-30.43,4.89l5.86-23.46c6.53,1.61,27.92,4.69,24.46,18.56H253.68z
		 M250.03,232.73c-3.62,14.61-28.22,6.7-36.19,4.72l6.47-25.9C228.28,213.56,253.82,217.48,250.03,232.73z M276.84,195.03
		c2.11-14.28-8.75-21.95-23.46-27.04l4.83-19.34l-11.9-2.95l-4.69,18.83c-3.08-0.77-6.27-1.51-9.42-2.21l4.69-19.03l-11.76-2.95
		l-4.83,19.34L212.8,158l-16.25-4.06l-3.12,12.57c0,0,8.12,1.98,8.55,2.14c2.63,0.53,5.75,3.36,5.5,6.7l-13.21,52.95
		c-0.72,2.26-3.13,3.5-5.39,2.78h0c-0.25-0.07-8.58-2.11-8.58-2.11l-5.83,13.41l15.31,3.79l8.38,2.18l-4.86,19.54l11.76,2.95
		l4.83-19.34c3.17,0.87,6.29,1.67,9.35,2.41l-4.76,19.4l11.76,2.91l4.86-19.5c20.11,3.79,35.15,2.28,41.52-15.88
		c5.13-14.61-0.27-23.02-10.82-28.52C269.5,210.55,275.2,205.63,276.84,195.03L276.84,195.03z"/>
	<g>
		<path class="st3" d="M450.06,175.01c7.3,0,13.61,1.29,18.93,3.88c5.32,2.59,9.73,6.08,13.23,10.49c3.5,4.41,6.08,9.58,7.76,15.51
			c1.67,5.93,2.51,12.32,2.51,19.16c0,10.49-1.94,20.42-5.82,29.77c-3.88,9.35-9.16,17.49-15.85,24.41
			c-6.69,6.92-14.6,12.4-23.73,16.42c-9.12,4.03-19.01,6.05-29.66,6.05c-1.37,0-3.76-0.04-7.19-0.11
			c-3.42-0.08-7.34-0.42-11.75-1.03c-4.41-0.61-9.09-1.52-14.03-2.74c-4.94-1.21-9.62-2.89-14.03-5.02l39.46-165.84l35.36-5.47
			l-14.15,58.86c3.04-1.37,6.08-2.43,9.13-3.19C443.29,175.39,446.56,175.01,450.06,175.01z M420.41,272.64
			c5.32,0,10.34-1.29,15.06-3.88c4.71-2.58,8.78-6.04,12.2-10.38c3.42-4.33,6.12-9.24,8.1-14.71c1.98-5.48,2.97-11.18,2.97-17.11
			c0-7.3-1.22-13-3.65-17.11c-2.43-4.1-6.92-6.16-13.46-6.16c-2.13,0-4.9,0.38-8.33,1.14c-3.42,0.76-6.5,2.36-9.24,4.79L409,271.73
			c0.91,0.15,1.71,0.3,2.39,0.46c0.68,0.15,1.4,0.27,2.17,0.34c0.76,0.08,1.67,0.11,2.74,0.11
			C417.36,272.64,418.73,272.64,420.41,272.64z"/>
		<path class="st3" d="M546.78,299.79c-10.8,0-19.28-1.41-25.43-4.22c-6.16-2.81-10.57-6.65-13.23-11.52
			c-2.66-4.87-3.96-10.45-3.88-16.77c0.08-6.31,0.95-13.04,2.62-20.19l28.97-121.13l35.36-5.47l-31.71,131.39
			c-0.61,2.74-0.95,5.25-1.03,7.53c-0.08,2.28,0.34,4.3,1.26,6.04c0.91,1.75,2.47,3.16,4.68,4.22c2.2,1.06,5.28,1.75,9.24,2.05
			L546.78,299.79z"/>
		<path class="st3" d="M598.11,297.51h-33.76l28.51-119.99h33.99L598.11,297.51z"/>
		<path class="st3" d="M651.94,182.99c2.58-0.76,5.44-1.63,8.55-2.62c3.12-0.99,6.62-1.9,10.49-2.74c3.88-0.83,8.21-1.52,13.01-2.05
			c4.79-0.53,10.23-0.8,16.31-0.8c17.94,0,30.26,5.17,36.96,15.51c6.69,10.34,7.83,24.49,3.42,42.43l-15.51,64.79h-33.99
			l15.06-63.42c0.91-3.95,1.63-7.79,2.17-11.52c0.53-3.73,0.49-7-0.11-9.81c-0.61-2.81-2.02-5.09-4.22-6.84
			c-2.21-1.75-5.59-2.62-10.15-2.62c-4.41,0-8.9,0.46-13.46,1.37l-22.13,92.84h-33.99L651.94,182.99z"/>
		<path class="st3" d="M796.79,220.86c9.12-7.3,17.71-14.75,25.78-22.36c8.06-7.6,14.98-14.6,20.76-20.99h38.32
			c-8.52,9.43-17.38,18.67-26.58,27.72c-9.2,9.05-19.73,18.67-31.6,28.86c3.19,3.96,6.42,8.52,9.7,13.69
			c3.27,5.17,6.39,10.57,9.35,16.2c2.97,5.63,5.7,11.33,8.21,17.11c2.51,5.78,4.6,11.26,6.27,16.43h-37.87
			c-1.37-3.95-3.08-8.29-5.13-13c-2.05-4.71-4.33-9.39-6.84-14.03c-2.51-4.64-5.13-9.16-7.87-13.57c-2.74-4.41-5.47-8.36-8.21-11.86
			l-12.77,52.47h-33.76l41.06-171.55l35.36-5.47L796.79,220.86z"/>
		<path class="st3" d="M638.82,141.28c0,3.16-0.6,6.1-1.81,8.84c-1.2,2.74-2.85,5.13-4.92,7.16c-2.08,2.03-4.51,3.65-7.29,4.86
			c-2.78,1.2-5.75,1.81-8.9,1.81c-3.16,0-6.12-0.6-8.9-1.81c-2.78-1.2-5.19-2.82-7.22-4.86c-2.03-2.03-3.65-4.42-4.86-7.16
			c-1.2-2.74-1.8-5.68-1.8-8.84c0-3.07,0.6-6,1.8-8.78c1.2-2.78,2.82-5.19,4.86-7.22s4.44-3.65,7.22-4.86
			c2.78-1.2,5.75-1.81,8.9-1.81c3.15,0,6.12,0.6,8.9,1.81c2.78,1.21,5.21,2.82,7.29,4.86c2.07,2.03,3.71,4.44,4.92,7.22
			C638.22,135.28,638.82,138.21,638.82,141.28z"/>
	</g>
</g>
</svg>
