<svg viewBox="0 0 1003 419" fill="none" xmlns="http://www.w3.org/2000/svg">
<path
    d="M257.76 97.27C257.66 97.24 257.55 97.21 257.44 97.19C248.01 94.85 238.57 93.73 229.27 93.73H229.23C176.88 93.75 129.27 129.25 116.1 182.36C100.59 244.91 138.72 308.2 201.27 323.71C210.7 326.05 220.15 327.17 229.45 327.17C281.82 327.17 329.45 291.66 342.62 238.54C358.1 176.11 320.15 112.93 257.76 97.27ZM333.46 236.27C321.57 284.23 278.79 317.73 229.45 317.73C220.77 317.73 212.05 316.66 203.54 314.55C175.73 307.66 152.28 290.35 137.49 265.81C122.7 241.27 118.36 212.44 125.26 184.64C137.15 136.69 179.97 103.2 229.3 103.17C237.97 103.17 246.67 104.24 255.25 106.37L255.36 106.4L255.47 106.43C312.67 120.78 347.65 179.03 333.46 236.27Z"
    fill="url(#paint0_linear_741_321)"
  />
<path
    d="M253.68 194.83C250.33 208.24 229.89 201.36 223.25 199.72L229.11 176.26C235.64 177.87 257.03 180.95 253.57 194.82H253.68V194.83ZM250.03 232.73C246.41 247.34 221.81 239.43 213.84 237.45L220.31 211.55C228.28 213.56 253.82 217.48 250.03 232.73ZM276.84 195.03C278.95 180.75 268.09 173.08 253.38 167.99L258.21 148.65L246.31 145.7L241.62 164.53C238.54 163.76 235.35 163.02 232.2 162.32L236.89 143.29L225.13 140.34L220.3 159.68L212.8 158L196.55 153.94L193.43 166.51C193.43 166.51 201.55 168.49 201.98 168.65C204.61 169.18 207.73 172.01 207.48 175.35L194.27 228.3C193.55 230.56 191.14 231.8 188.88 231.08C188.63 231.01 180.3 228.97 180.3 228.97L174.47 242.38L189.78 246.17L198.16 248.35L193.3 267.89L205.06 270.84L209.89 251.5C213.06 252.37 216.18 253.17 219.24 253.91L214.48 273.31L226.24 276.22L231.1 256.72C251.21 260.51 266.25 259 272.62 240.84C277.75 226.23 272.35 217.82 261.8 212.32C269.5 210.55 275.2 205.63 276.84 195.03Z"
    fill="#010101"
  />
<path
    d="M450.06 175.01C457.36 175.01 463.67 176.3 468.99 178.89C474.31 181.48 478.72 184.97 482.22 189.38C485.72 193.79 488.3 198.96 489.98 204.89C491.65 210.82 492.49 217.21 492.49 224.05C492.49 234.54 490.55 244.47 486.67 253.82C482.79 263.17 477.51 271.31 470.82 278.23C464.13 285.15 456.22 290.63 447.09 294.65C437.97 298.68 428.08 300.7 417.43 300.7C416.06 300.7 413.67 300.66 410.24 300.59C406.82 300.51 402.9 300.17 398.49 299.56C394.08 298.95 389.4 298.04 384.46 296.82C379.52 295.61 374.84 293.93 370.43 291.8L409.89 125.96L445.25 120.49L431.1 179.35C434.14 177.98 437.18 176.92 440.23 176.16C443.29 175.39 446.56 175.01 450.06 175.01ZM420.41 272.64C425.73 272.64 430.75 271.35 435.47 268.76C440.18 266.18 444.25 262.72 447.67 258.38C451.09 254.05 453.79 249.14 455.77 243.67C457.75 238.19 458.74 232.49 458.74 226.56C458.74 219.26 457.52 213.56 455.09 209.45C452.66 205.35 448.17 203.29 441.63 203.29C439.5 203.29 436.73 203.67 433.3 204.43C429.88 205.19 426.8 206.79 424.06 209.22L409 271.73C409.91 271.88 410.71 272.03 411.39 272.19C412.07 272.34 412.79 272.46 413.56 272.53C414.32 272.61 415.23 272.64 416.3 272.64C417.36 272.64 418.73 272.64 420.41 272.64Z"
    fill="#010101"
  />
<path
    d="M546.78 299.79C535.98 299.79 527.5 298.38 521.35 295.57C515.19 292.76 510.78 288.92 508.12 284.05C505.46 279.18 504.16 273.6 504.24 267.28C504.32 260.97 505.19 254.24 506.86 247.09L535.83 125.96L571.19 120.49L539.48 251.88C538.87 254.62 538.53 257.13 538.45 259.41C538.37 261.69 538.79 263.71 539.71 265.45C540.62 267.2 542.18 268.61 544.39 269.67C546.59 270.73 549.67 271.42 553.63 271.72L546.78 299.79Z"
    fill="#010101"
  />
<path d="M598.11 297.51H564.35L592.86 177.52H626.85L598.11 297.51Z" fill="#010101" />
<path
    d="M651.94 182.99C654.52 182.23 657.38 181.36 660.49 180.37C663.61 179.38 667.11 178.47 670.98 177.63C674.86 176.8 679.19 176.11 683.99 175.58C688.78 175.05 694.22 174.78 700.3 174.78C718.24 174.78 730.56 179.95 737.26 190.29C743.95 200.63 745.09 214.78 740.68 232.72L725.17 297.51H691.18L706.24 234.09C707.15 230.14 707.87 226.3 708.41 222.57C708.94 218.84 708.9 215.57 708.3 212.76C707.69 209.95 706.28 207.67 704.08 205.92C701.87 204.17 698.49 203.3 693.93 203.3C689.52 203.3 685.03 203.76 680.47 204.67L658.34 297.51H624.35L651.94 182.99Z"
    fill="#010101"
  />
<path
    d="M796.79 220.86C805.91 213.56 814.5 206.11 822.57 198.5C830.63 190.9 837.55 183.9 843.33 177.51H881.65C873.13 186.94 864.27 196.18 855.07 205.23C845.87 214.28 835.34 223.9 823.47 234.09C826.66 238.05 829.89 242.61 833.17 247.78C836.44 252.95 839.56 258.35 842.52 263.98C845.49 269.61 848.22 275.31 850.73 281.09C853.24 286.87 855.33 292.35 857 297.52H819.13C817.76 293.57 816.05 289.23 814 284.52C811.95 279.81 809.67 275.13 807.16 270.49C804.65 265.85 802.03 261.33 799.29 256.92C796.55 252.51 793.82 248.56 791.08 245.06L778.31 297.53H744.55L785.61 125.98L820.97 120.51L796.79 220.86Z"
    fill="#010101"
  />
<path
    d="M638.82 141.28C638.82 144.44 638.22 147.38 637.01 150.12C635.81 152.86 634.16 155.25 632.09 157.28C630.01 159.31 627.58 160.93 624.8 162.14C622.02 163.34 619.05 163.95 615.9 163.95C612.74 163.95 609.78 163.35 607 162.14C604.22 160.94 601.81 159.32 599.78 157.28C597.75 155.25 596.13 152.86 594.92 150.12C593.72 147.38 593.12 144.44 593.12 141.28C593.12 138.21 593.72 135.28 594.92 132.5C596.12 129.72 597.74 127.31 599.78 125.28C601.82 123.25 604.22 121.63 607 120.42C609.78 119.22 612.75 118.61 615.9 118.61C619.05 118.61 622.02 119.21 624.8 120.42C627.58 121.63 630.01 123.24 632.09 125.28C634.16 127.31 635.8 129.72 637.01 132.5C638.22 135.28 638.82 138.21 638.82 141.28Z"
    fill="#010101"
  />
<defs>
<linearGradient
      id="paint0_linear_741_321"
      x1="157.376"
      y1="302.337"
      x2="301.337"
      y2="118.572"
      gradientUnits="userSpaceOnUse"
    >
<stop stop-color="#FEBE13" />
<stop offset="0.5" stop-color="#EF8B22" />
<stop offset="1" stop-color="#F15822" />
</linearGradient>
</defs>
</svg>
