<?xml version="1.0" encoding="utf-8"?>
<!-- Generator: Adobe Illustrator 16.0.4, SVG Export Plug-In . SVG Version: 6.00 Build 0)  -->
<!DOCTYPE svg PUBLIC "-//W3C//DTD SVG 1.1//EN" "http://www.w3.org/Graphics/SVG/1.1/DTD/svg11.dtd">
<svg version="1.1" id="Layer_1" xmlns="http://www.w3.org/2000/svg" xmlns:xlink="http://www.w3.org/1999/xlink" x="0px" y="0px"
	 width="375px" height="194px" viewBox="0 0 375 194" enable-background="new 0 0 375 194" xml:space="preserve">
<path fill="#FFFFFF" d="M139.363,76.513c-0.491,0-0.919-0.361-0.989-0.861c-0.077-0.547,0.305-1.052,0.852-1.129l4.952-0.694
	c0.542-0.081,1.052,0.304,1.129,0.852c0.077,0.547-0.305,1.052-0.852,1.129l-4.952,0.694
	C139.457,76.51,139.41,76.513,139.363,76.513z M152.238,74.709c-0.491,0-0.919-0.361-0.989-0.861
	c-0.077-0.547,0.305-1.052,0.852-1.129l4.952-0.693c0.542-0.082,1.052,0.304,1.129,0.852c0.077,0.547-0.305,1.052-0.852,1.129
	l-4.952,0.693C152.331,74.707,152.284,74.709,152.238,74.709z M165.112,72.906c-0.491,0-0.919-0.361-0.989-0.861
	c-0.077-0.547,0.305-1.052,0.852-1.129l4.952-0.694c0.541-0.082,1.052,0.304,1.129,0.852c0.077,0.547-0.305,1.052-0.852,1.129
	l-4.952,0.694C165.206,72.903,165.159,72.906,165.112,72.906z M177.986,71.103c-0.491,0-0.919-0.361-0.989-0.861
	c-0.077-0.547,0.305-1.052,0.852-1.129l4.952-0.693c0.541-0.082,1.052,0.304,1.129,0.852c0.077,0.547-0.305,1.052-0.852,1.129
	l-4.952,0.693C178.08,71.1,178.033,71.103,177.986,71.103z M190.861,69.299c-0.491,0-0.919-0.361-0.989-0.861
	c-0.077-0.547,0.305-1.052,0.852-1.129l4.952-0.693c0.54-0.082,1.052,0.304,1.129,0.852c0.077,0.547-0.305,1.052-0.852,1.129
	l-4.952,0.693C190.954,69.296,190.907,69.299,190.861,69.299z M203.735,67.496c-0.491,0-0.919-0.361-0.989-0.861
	c-0.077-0.547,0.305-1.052,0.852-1.129l4.952-0.694c0.539-0.082,1.052,0.304,1.129,0.852c0.077,0.547-0.305,1.052-0.852,1.129
	l-4.952,0.694C203.828,67.493,203.781,67.496,203.735,67.496z M216.609,65.692c-0.491,0-0.919-0.361-0.989-0.861
	c-0.077-0.547,0.305-1.052,0.852-1.129l4.952-0.693c0.538-0.082,1.053,0.304,1.129,0.852c0.077,0.547-0.305,1.052-0.852,1.129
	l-4.952,0.693C216.703,65.689,216.656,65.692,216.609,65.692z M229.483,63.889c-0.491,0-0.919-0.361-0.989-0.861
	c-0.077-0.547,0.305-1.052,0.852-1.129l4.952-0.694c0.538-0.082,1.052,0.304,1.129,0.852c0.077,0.547-0.305,1.052-0.852,1.129
	l-4.952,0.694C229.577,63.886,229.53,63.889,229.483,63.889z M242.358,62.086c-0.491,0-0.919-0.361-0.989-0.861
	c-0.077-0.547,0.305-1.052,0.852-1.129l4.952-0.694c0.542-0.083,1.052,0.304,1.129,0.852c0.077,0.547-0.305,1.052-0.852,1.129
	l-4.952,0.694C242.451,62.083,242.404,62.086,242.358,62.086z"/>
<path fill="#232323" d="M65.308,133.31c1.831-1.39,2.996-3.549,2.295-5.11c-0.696-1.555-3.542-2.048-6.144-0.685
	c-7.043,3.676-12.871,9.599-16.478,16.996c-1.335,2.76,0.45,5.627,3.512,6.208c3.076,0.578,5.768-0.554,6.373-2.552
	C56.564,142.463,60.138,137.181,65.308,133.31z"/>
<path fill="#232323" d="M71.016,145.636c2.26-0.397,4.285-1.794,4.365-3.499c0.095-1.695-2.216-3.438-5.151-3.408
	c-7.95,0.067-15.831,2.679-22.409,7.629c-2.443,1.843-2.165,5.207,0.301,7.125c2.469,1.923,5.388,2.139,6.824,0.631
	C59.066,149.809,64.651,146.737,71.016,145.636z"/>
<path fill="#FFFFFF" d="M136.359,37.123c1.759,2.574,2.35,5.384,1.771,8.465l-18.046,96.106c-0.579,3.08-2.151,5.495-4.721,7.245
	c-2.551,1.753-5.372,2.339-8.463,1.759l-51.739-9.715c-3.09-0.581-5.495-2.148-7.247-4.71c-1.75-2.561-2.337-5.382-1.76-8.462
	L64.2,31.705c0.58-3.081,2.147-5.485,4.71-7.248c2.562-1.751,5.371-2.34,8.463-1.759l51.738,9.715
	C132.203,32.994,134.618,34.563,136.359,37.123z"/>
<path fill="#232323" d="M126.508,46.274c0.144-0.77,0.002-1.468-0.425-2.106c-0.449-0.643-1.045-1.039-1.815-1.184l-46.205-8.676
	c-0.771-0.145-1.473,0.008-2.122,0.444c-0.63,0.439-1.027,1.037-1.171,1.807l-13.535,72.08c-0.147,0.782,0.005,1.482,0.435,2.12
	c0.446,0.642,1.045,1.028,1.817,1.173l46.205,8.676c0.77,0.145,1.47,0.003,2.121-0.433c0.629-0.44,1.015-1.04,1.161-1.821
	L126.508,46.274z"/>
<path fill="#E2E2E2" d="M88.04,137.236c1.726-1.19,2.788-2.79,3.166-4.792c0.373-1.991-0.038-3.868-1.214-5.604
	c-1.199-1.74-2.788-2.802-4.789-3.178c-2.004-0.376-3.869,0.037-5.618,1.224c-1.727,1.19-2.802,2.788-3.176,4.779
	c-0.376,2.002,0.047,3.881,1.224,5.617c1.201,1.74,2.79,2.791,4.793,3.167C84.427,138.825,86.292,138.423,88.04,137.236z"/>
<path fill="#232323" d="M54.516,125.524c1.377-1.844,1.896-4.244,0.79-5.551c-1.091-1.295-3.978-0.983-6.087,1.044
	c-5.748,5.49-9.71,12.789-11.12,20.897c-0.518,3.026,1.986,5.285,5.095,4.99c3.12-0.289,5.387-2.129,5.413-4.21
	C48.661,136.745,50.625,130.674,54.516,125.524z"/>
<g>
	<g>
		<path fill="#EA651B" d="M79.605,90.675c1.375,1.319,2.977,2.447,4.786,3.318c9.188,4.419,20.22,0.555,24.64-8.634
			c2.358-4.902,2.357-10.328,0.449-14.995c-0.061,3.079-0.767,6.193-2.189,9.15C102.285,89.919,90.215,94.634,79.605,90.675z"/>
		<path fill="#FF7E1C" d="M75.759,69.353c-3.55,7.378-1.756,15.944,3.846,21.322c10.61,3.959,22.68-0.755,27.686-11.16
			c1.422-2.957,2.128-6.071,2.189-9.15c-1.668-4.082-4.795-7.583-9.082-9.645C91.209,56.3,80.179,60.165,75.759,69.353z"/>
	</g>
	<g>
		<g>
			<g>
				<path fill="#FFFFFF" d="M97.985,76.854c0.474,0.461,0.727,1.146,0.757,2.057c0.014,1.101-0.337,1.948-1.054,2.537
					c-0.625,0.495-1.609,0.868-2.951,1.12L95,84.655l-1.504,0.189l-0.258-2.06l-1.167,0.147l0.258,2.06l-1.507,0.189l-0.263-2.089
					l-2.978,0.374l0.083-1.82l0.308-0.039c0.494-0.042,0.808-0.093,0.947-0.151c0.197-0.087,0.3-0.255,0.311-0.506l-0.837-6.668
					c-0.103-0.32-0.301-0.503-0.598-0.549c-0.192-0.038-0.583-0.01-1.175,0.085l-0.246,0.031l-0.201-1.597l0.926-0.084
					c1.085-0.136,1.769-0.233,2.053-0.29l-0.305-2.426l1.506-0.189l0.301,2.396l1.163-0.179l-0.296-2.364l1.504-0.189l0.305,2.426
					c1.057-0.029,1.885,0.096,2.481,0.375c0.728,0.325,1.173,0.893,1.337,1.704c0.272,1.173-0.041,2.065-0.942,2.677l0,0
					C96.984,76.177,97.578,76.427,97.985,76.854L97.985,76.854z M91.274,76.353l0.246-0.031c0.863-0.087,1.523-0.221,1.979-0.403
					c0.793-0.308,1.147-0.801,1.063-1.477c-0.085-0.676-0.542-1.077-1.37-1.201c-0.466-0.067-1.136-0.033-2.014,0.098
					c-0.141,0.039-0.233,0.059-0.275,0.064L91.274,76.353z M92.15,81.082c1.047-0.111,1.828-0.262,2.344-0.452
					c0.932-0.366,1.353-0.918,1.261-1.656c-0.093-0.738-0.626-1.169-1.599-1.297c-0.53-0.08-1.314-0.031-2.354,0.14l-0.339,0.043
					l0.408,3.256L92.15,81.082z"/>
			</g>
		</g>
	</g>
</g>
<path fill="#232323" d="M320.637,110.828c-1.831-1.39-2.995-3.549-2.295-5.11c0.696-1.555,3.542-2.048,6.144-0.685
	c7.043,3.676,12.871,9.599,16.478,16.996c1.335,2.76-0.45,5.627-3.512,6.208c-3.076,0.578-5.768-0.554-6.374-2.552
	C329.38,119.981,325.807,114.699,320.637,110.828z"/>
<path fill="#232323" d="M314.929,123.154c-2.261-0.397-4.285-1.794-4.366-3.499c-0.095-1.695,2.216-3.438,5.15-3.408
	c7.95,0.067,15.832,2.679,22.409,7.629c2.443,1.843,2.165,5.207-0.301,7.125c-2.469,1.923-5.388,2.139-6.824,0.631
	C326.878,127.327,321.293,124.255,314.929,123.154z"/>
<path fill="#FFFFFF" d="M256.833,9.932l51.738-9.715c3.092-0.581,5.901,0.008,8.463,1.759c2.563,1.763,4.131,4.167,4.71,7.248
	l18.046,96.106c0.577,3.08-0.01,5.901-1.76,8.462c-1.752,2.562-4.157,4.129-7.247,4.71l-51.739,9.715
	c-3.091,0.581-5.912-0.006-8.463-1.759c-2.57-1.75-4.142-4.166-4.721-7.245l-18.046-96.106c-0.58-3.081,0.012-5.891,1.771-8.465
	C251.326,12.082,253.741,10.512,256.833,9.932z"/>
<path fill="#232323" d="M272.972,95.873c0.146,0.781,0.532,1.381,1.161,1.821c0.65,0.436,1.351,0.578,2.121,0.433l46.205-8.676
	c0.771-0.145,1.371-0.531,1.817-1.173c0.429-0.638,0.581-1.338,0.434-2.12l-13.535-72.08c-0.144-0.77-0.541-1.367-1.171-1.807
	c-0.65-0.437-1.351-0.589-2.122-0.444l-46.205,8.676c-0.77,0.145-1.367,0.541-1.816,1.184c-0.427,0.638-0.568,1.336-0.424,2.106
	L272.972,95.873z"/>
<path fill="#E2E2E2" d="M303.52,115.967c2.003-0.376,3.592-1.427,4.793-3.167c1.177-1.736,1.601-3.615,1.224-5.617
	c-0.374-1.991-1.449-3.589-3.177-4.779c-1.749-1.187-3.614-1.6-5.618-1.224c-2.001,0.376-3.59,1.438-4.789,3.178
	c-1.176,1.736-1.587,3.612-1.214,5.604c0.377,2.002,1.439,3.602,3.166,4.792C299.653,115.941,301.517,116.343,303.52,115.967z"/>
<path fill="#232323" d="M331.428,103.042c-1.377-1.844-1.896-4.244-0.79-5.551c1.091-1.295,3.978-0.983,6.087,1.044
	c5.748,5.49,9.71,12.789,11.12,20.897c0.518,3.026-1.986,5.285-5.095,4.99c-3.12-0.289-5.387-2.129-5.413-4.21
	C337.283,114.263,335.319,108.192,331.428,103.042z"/>
<g>
	<g>
		<path fill="#EA651B" d="M280.759,68.193c1.375,1.319,2.977,2.447,4.786,3.318c9.188,4.419,20.221,0.555,24.64-8.634
			c2.358-4.902,2.357-10.328,0.449-14.995c-0.061,3.079-0.767,6.193-2.189,9.15C303.439,67.438,291.369,72.152,280.759,68.193z"/>
		<path fill="#FF7E1C" d="M276.913,46.871c-3.55,7.378-1.755,15.944,3.846,21.322c10.609,3.959,22.68-0.755,27.686-11.16
			c1.422-2.957,2.128-6.071,2.189-9.15c-1.668-4.082-4.795-7.583-9.082-9.645C292.363,33.818,281.333,37.683,276.913,46.871z"/>
	</g>
	<g>
		<g>
			<g>
				<path fill="#FFFFFF" d="M299.139,54.372c0.474,0.461,0.727,1.146,0.757,2.057c0.014,1.101-0.337,1.948-1.054,2.537
					c-0.625,0.495-1.609,0.868-2.951,1.12l0.262,2.088l-1.504,0.189l-0.258-2.06l-1.167,0.147l0.258,2.06l-1.507,0.189l-0.263-2.089
					l-2.978,0.374l0.083-1.82l0.308-0.039c0.494-0.042,0.808-0.093,0.947-0.151c0.196-0.087,0.3-0.255,0.31-0.506l-0.837-6.668
					c-0.103-0.32-0.301-0.503-0.598-0.549c-0.192-0.038-0.583-0.01-1.175,0.085l-0.246,0.031l-0.201-1.597l0.926-0.084
					c1.085-0.136,1.769-0.233,2.053-0.29l-0.305-2.426l1.506-0.189l0.301,2.396l1.163-0.179l-0.296-2.364l1.504-0.189l0.305,2.426
					c1.057-0.029,1.885,0.096,2.481,0.375c0.728,0.325,1.173,0.893,1.337,1.704c0.272,1.173-0.041,2.065-0.942,2.677l0,0
					C298.139,53.695,298.732,53.945,299.139,54.372L299.139,54.372z M292.428,53.871l0.246-0.031
					c0.863-0.087,1.523-0.221,1.979-0.403c0.793-0.308,1.147-0.801,1.063-1.477c-0.085-0.676-0.542-1.077-1.37-1.201
					c-0.466-0.067-1.136-0.033-2.014,0.098c-0.141,0.039-0.233,0.059-0.274,0.064L292.428,53.871z M293.304,58.6
					c1.047-0.111,1.828-0.262,2.344-0.452c0.932-0.366,1.353-0.918,1.261-1.656c-0.093-0.738-0.626-1.169-1.599-1.297
					c-0.53-0.08-1.314-0.031-2.354,0.14l-0.338,0.043l0.408,3.256L293.304,58.6z"/>
			</g>
		</g>
	</g>
</g>
<path fill="#232323" d="M52.995,135.18c-6.792-5.486-15.463-3.747-20.592,2.356C23.582,148.21,12.432,155.681,0,159.545V194
	c20.818-3.658,39.564-14.559,53.758-31.735C60.843,153.697,59.759,140.612,52.995,135.18z"/>
<path fill="#232323" d="M375,132.559c-8.046-4.193-15.316-10.072-21.458-17.504c-5.128-6.104-13.8-7.843-20.591-2.356
	c-6.764,5.432-7.848,18.517-0.764,27.085c11.658,14.107,26.388,23.978,42.813,29.085V132.559z"/>
</svg>
