<?xml version="1.0" encoding="utf-8"?>
<!-- Generator: Adobe Illustrator 16.0.4, SVG Export Plug-In . SVG Version: 6.00 Build 0)  -->
<!DOCTYPE svg PUBLIC "-//W3C//DTD SVG 1.1//EN" "http://www.w3.org/Graphics/SVG/1.1/DTD/svg11.dtd">
<svg version="1.1" id="Layer_1" xmlns="http://www.w3.org/2000/svg" xmlns:xlink="http://www.w3.org/1999/xlink" x="0px" y="0px"
	 width="350px" height="255px" viewBox="0 0 350 255" enable-background="new 0 0 350 255" xml:space="preserve">
<g>
	<path fill="#232323" d="M72.705,193.32c1.831-1.39,2.996-3.549,2.295-5.11c-0.696-1.555-3.542-2.048-6.144-0.685
		c-7.044,3.676-12.871,9.599-16.478,16.996c-1.335,2.76,0.45,5.627,3.512,6.208c3.076,0.577,5.768-0.555,6.373-2.552
		C63.961,202.474,67.535,197.191,72.705,193.32z"/>
	<path fill="#232323" d="M78.413,205.646c2.261-0.396,4.285-1.794,4.366-3.499c0.095-1.695-2.216-3.438-5.151-3.408
		c-7.95,0.067-15.831,2.68-22.409,7.629c-2.444,1.843-2.165,5.207,0.301,7.125c2.469,1.923,5.388,2.139,6.824,0.631
		C66.463,209.819,72.048,206.747,78.413,205.646z"/>
	<g>
		<ellipse opacity="0.2" fill="#232323" cx="188" cy="82.299" rx="54.84" ry="8.852"/>
		<path fill="#E2E2E2" d="M225.06,31.102c0.616,0,1.135-0.211,1.564-0.65c0.431-0.422,0.65-0.949,0.65-1.564v-2.215h3.692
			c0.617,0,1.135-0.211,1.563-0.65c0.431-0.422,0.651-0.949,0.651-1.564v-5.169c0-0.984-0.491-1.66-1.476-2.03L191.644,0.462
			c-1.847-0.615-3.692-0.615-5.537,0l-40.045,16.796c-0.985,0.37-1.476,1.046-1.476,2.03v5.169c0,0.615,0.209,1.143,0.64,1.564
			c0.432,0.439,0.958,0.65,1.574,0.65h3.692v2.215c0,0.615,0.209,1.143,0.641,1.564c0.431,0.439,0.957,0.65,1.573,0.65h5.169V58.11
			h-2.955c-1.23,0-2.284,0.439-3.146,1.292c-0.861,0.87-1.282,1.907-1.282,3.138v10.336h-1.478c-1.231,0-2.285,0.439-3.146,1.292
			c-0.861,0.862-1.283,1.907-1.283,3.138v2.953c0,0.37,0.148,0.703,0.457,1.021c0.308,0.299,0.65,0.457,1.02,0.457h85.643
			c0.369,0,0.704-0.158,1.011-0.457c0.307-0.317,0.465-0.65,0.465-1.021v-2.953c0-1.23-0.439-2.275-1.301-3.138
			c-0.859-0.853-1.897-1.292-3.127-1.292h-1.478V62.54c0-1.23-0.439-2.268-1.3-3.138c-0.86-0.853-1.897-1.292-3.128-1.292h-2.954
			V31.102H225.06z"/>
		<g>
			<rect x="166.733" y="31.102" fill="#232323" width="8.86" height="27.009"/>
			<rect x="184.453" y="31.102" fill="#232323" width="8.86" height="27.009"/>
			<rect x="202.172" y="31.102" fill="#232323" width="8.86" height="27.009"/>
			<polygon fill="#232323" points="224.322,22.241 188.883,8.952 153.444,22.241 			"/>
			<rect x="159.351" y="66.97" fill="#232323" width="59.064" height="5.906"/>
		</g>
	</g>
	<g>
		<path fill="#21CE99" d="M146.15,143.35c1.226,1.231,1.838,2.719,1.838,4.463v46.199c0,1.756-0.612,3.237-1.838,4.462
			c-1.224,1.225-2.712,1.838-4.462,1.838H65.69c-1.75,0-3.238-0.613-4.462-1.838c-1.226-1.225-1.837-2.706-1.837-4.462v-46.199
			c0-1.744,0.612-3.231,1.837-4.463c1.224-1.219,2.712-1.837,4.462-1.837h75.998C143.438,141.513,144.926,142.131,146.15,143.35z"/>
		<rect x="65.69" y="154.112" width="75.998" height="16.8"/>
		<g>
			<path fill="#FFFFFF" d="M77.833,179.774c-0.312-0.307-0.681-0.463-1.119-0.463h-9.45c-0.437,0-0.806,0.156-1.118,0.463
				c-0.3,0.306-0.457,0.681-0.457,1.112v5.25c0,0.443,0.156,0.812,0.457,1.118c0.312,0.307,0.681,0.456,1.118,0.456h9.45
				c0.438,0,0.807-0.149,1.119-0.456c0.3-0.306,0.457-0.675,0.457-1.118v-5.25C78.29,180.455,78.133,180.08,77.833,179.774z"/>
			<path fill="#FFFFFF" d="M103.032,179.774c-0.312-0.307-0.681-0.463-1.118-0.463h-17.85c-0.437,0-0.806,0.156-1.118,0.463
				c-0.3,0.306-0.457,0.681-0.457,1.112v5.25c0,0.443,0.157,0.812,0.457,1.118c0.312,0.307,0.682,0.456,1.118,0.456h17.85
				c0.438,0,0.807-0.149,1.118-0.456c0.3-0.306,0.457-0.675,0.457-1.118v-5.25C103.489,180.455,103.332,180.08,103.032,179.774z"/>
		</g>
	</g>
	<path fill="#232323" d="M61.914,185.534c1.377-1.844,1.896-4.244,0.79-5.551c-1.09-1.295-3.978-0.983-6.087,1.045
		c-5.748,5.489-9.71,12.789-11.119,20.897c-0.518,3.025,1.986,5.284,5.095,4.989c3.12-0.289,5.388-2.129,5.414-4.21
		C56.058,196.755,58.023,190.685,61.914,185.534z"/>
	<path fill="#FFFFFF" d="M103.876,134.781c-0.256,0-0.512-0.098-0.707-0.293c-0.391-0.391-0.391-1.023,0-1.414l3.536-3.536
		c0.391-0.391,1.023-0.391,1.414,0s0.391,1.023,0,1.414l-3.536,3.536C104.388,134.684,104.132,134.781,103.876,134.781z
		 M113.068,125.589c-0.256,0-0.512-0.098-0.707-0.293c-0.391-0.391-0.391-1.023,0-1.414l3.536-3.536
		c0.391-0.391,1.023-0.391,1.414,0s0.391,1.023,0,1.414l-3.536,3.536C113.58,125.491,113.324,125.589,113.068,125.589z
		 M122.261,116.396c-0.256,0-0.512-0.098-0.707-0.293c-0.391-0.391-0.391-1.023,0-1.414l3.536-3.536
		c0.391-0.391,1.023-0.391,1.414,0s0.391,1.023,0,1.414l-3.536,3.536C122.772,116.299,122.517,116.396,122.261,116.396z
		 M131.453,107.204c-0.256,0-0.512-0.098-0.707-0.293c-0.391-0.391-0.391-1.024,0-1.414l3.536-3.535
		c0.391-0.391,1.023-0.391,1.414,0s0.391,1.023,0,1.414l-3.536,3.535C131.965,107.106,131.709,107.204,131.453,107.204z
		 M140.646,98.012c-0.256,0-0.512-0.098-0.707-0.293c-0.391-0.391-0.391-1.024,0-1.414l3.536-3.535c0.391-0.391,1.023-0.391,1.414,0
		s0.391,1.023,0,1.414l-3.536,3.535C141.157,97.914,140.901,98.012,140.646,98.012z"/>
	<path fill="#FFFFFF" d="M273.176,134.781c-0.256,0-0.512-0.098-0.707-0.293l-3.535-3.536c-0.391-0.391-0.391-1.023,0-1.414
		s1.023-0.391,1.414,0l3.535,3.536c0.391,0.391,0.391,1.023,0,1.414C273.688,134.684,273.432,134.781,273.176,134.781z
		 M263.984,125.589c-0.256,0-0.512-0.098-0.707-0.293l-3.535-3.536c-0.391-0.391-0.391-1.023,0-1.414s1.023-0.391,1.414,0
		l3.535,3.536c0.391,0.391,0.391,1.023,0,1.414C264.496,125.491,264.24,125.589,263.984,125.589z M254.792,116.396
		c-0.256,0-0.512-0.098-0.707-0.293l-3.536-3.536c-0.391-0.39-0.391-1.023,0-1.414s1.023-0.391,1.414,0l3.536,3.536
		c0.391,0.39,0.391,1.023,0,1.414C255.303,116.299,255.047,116.396,254.792,116.396z M245.599,107.204
		c-0.256,0-0.512-0.098-0.707-0.293l-3.536-3.535c-0.391-0.391-0.391-1.023,0-1.414s1.023-0.391,1.414,0l3.536,3.535
		c0.391,0.39,0.391,1.023,0,1.414C246.111,107.106,245.855,107.204,245.599,107.204z M236.407,98.012
		c-0.256,0-0.512-0.098-0.707-0.293l-3.536-3.535c-0.391-0.391-0.391-1.023,0-1.414s1.023-0.391,1.414,0l3.536,3.535
		c0.391,0.39,0.391,1.023,0,1.414C236.918,97.914,236.663,98.012,236.407,98.012z"/>
	<g>
		<path fill="#232323" d="M349.877,220.11l-5.23-36.565c-0.697-4.84-4.84-8.449-9.74-8.449h-47.25v-6.562h19.688
			c1.805,0,3.281-1.477,3.281-3.281v-19.688c0-1.805-1.477-3.281-3.281-3.281h-52.5c-1.805,0-3.281,1.477-3.281,3.281v19.688
			c0,1.805,1.477,3.281,3.281,3.281h19.688v6.562h-14.438c-4.902,0-9.045,3.609-9.742,8.449l-5.229,36.565
			c-0.082,0.615-0.123,1.23-0.123,1.866v15.463c0,5.435,4.408,9.844,9.844,9.844h85.312c5.434,0,9.844-4.409,9.844-9.844v-15.483
			C350,221.341,349.959,220.726,349.877,220.11z"/>
		<polygon fill="#E2E2E2" points="260.094,184.939 334.885,184.939 339.583,217.752 255.417,217.752 		"/>
		<rect x="254.844" y="227.596" fill="#E2E2E2" width="85.312" height="9.844"/>
		<path fill="#232323" d="M279.454,202.986h-3.281c-1.806,0-3.281,1.477-3.281,3.281v3.281c0,1.805,1.476,3.281,3.281,3.281h3.281
			c1.805,0,3.281-1.477,3.281-3.281v-3.281C282.735,204.463,281.258,202.986,279.454,202.986z"/>
		<path fill="#232323" d="M272.891,193.143c0-1.805-1.477-3.281-3.281-3.281h-3.281c-1.805,0-3.281,1.477-3.281,3.281v3.281
			c0,1.805,1.477,3.281,3.281,3.281h3.281c1.805,0,3.281-1.477,3.281-3.281V193.143z"/>
		<path fill="#232323" d="M292.579,193.143c0-1.805-1.478-3.281-3.281-3.281h-3.281c-1.805,0-3.281,1.477-3.281,3.281v3.281
			c0,1.805,1.477,3.281,3.281,3.281h3.281c1.804,0,3.281-1.477,3.281-3.281V193.143z"/>
		<path fill="#232323" d="M318.829,202.986h-3.281c-1.805,0-3.281,1.477-3.281,3.281v3.281c0,1.805,1.477,3.281,3.281,3.281h3.281
			c1.805,0,3.281-1.477,3.281-3.281v-3.281C322.11,204.463,320.633,202.986,318.829,202.986z"/>
		<path fill="#232323" d="M328.672,189.861h-3.281c-1.806,0-3.281,1.477-3.281,3.281v3.281c0,1.805,1.476,3.281,3.281,3.281h3.281
			c1.805,0,3.281-1.477,3.281-3.281v-3.281C331.954,191.338,330.477,189.861,328.672,189.861z"/>
		<rect x="261.407" y="152.127" fill="#21CE99" width="39.375" height="6.562"/>
		<path fill="#232323" d="M312.266,193.143c0-1.805-1.477-3.281-3.281-3.281h-3.281c-1.805,0-3.281,1.477-3.281,3.281v3.281
			c0,1.805,1.477,3.281,3.281,3.281h3.281c1.805,0,3.281-1.477,3.281-3.281V193.143z"/>
		<path fill="#232323" d="M299.141,202.986h-3.281c-1.805,0-3.281,1.477-3.281,3.281v3.281c0,1.805,1.477,3.281,3.281,3.281h3.281
			c1.805,0,3.281-1.477,3.281-3.281v-3.281C302.422,204.463,300.946,202.986,299.141,202.986z"/>
	</g>
	<path fill="#232323" d="M60.392,195.19c-6.792-5.486-15.463-3.747-20.591,2.356C29.263,210.298,15.404,218.486,0,221.404V255
		c23.763-2.173,45.299-13.536,61.155-32.725C68.24,213.708,67.156,200.623,60.392,195.19z"/>
</g>
</svg>
