<svg width="24" height="24" viewBox="0 0 24 24" fill="none" xmlns="http://www.w3.org/2000/svg">
<path d="M4.5 3.75L19.5 20.25" stroke="black" stroke-width="1.5" stroke-linecap="round" stroke-linejoin="round"/>
<path d="M14.5215 14.775C13.8333 15.4054 12.9329 15.7535 11.9996 15.75C11.2427 15.7499 10.5036 15.5208 9.87935 15.0928C9.25512 14.6647 8.77502 14.0579 8.50216 13.3519C8.2293 12.6459 8.17646 11.8739 8.35058 11.1373C8.5247 10.4007 8.91764 9.73406 9.47773 9.22498" stroke="black" stroke-width="1.5" stroke-linecap="round" stroke-linejoin="round"/>
<path d="M6.9375 6.43127C3.1125 8.36252 1.5 12 1.5 12C1.5 12 4.5 18.75 12 18.75C13.7574 18.7643 15.4929 18.3594 17.0625 17.5688" stroke="black" stroke-width="1.5" stroke-linecap="round" stroke-linejoin="round"/>
<path d="M19.5563 15.8531C21.6001 14.025 22.5001 12 22.5001 12C22.5001 12 19.5001 5.25002 12.0001 5.25002C11.3499 5.24874 10.7007 5.30205 10.0594 5.4094" stroke="black" stroke-width="1.5" stroke-linecap="round" stroke-linejoin="round"/>
<path d="M12.7031 8.31564C13.5006 8.46675 14.2273 8.87314 14.7735 9.4735C15.3198 10.0739 15.6559 10.8356 15.7313 11.6438" stroke="black" stroke-width="1.5" stroke-linecap="round" stroke-linejoin="round"/>
</svg>
