<svg width="32" height="32" viewBox="0 0 32 32" fill="none" xmlns="http://www.w3.org/2000/svg">
<path d="M16 28C22.6274 28 28 22.6274 28 16C28 9.37257 22.6274 3.99998 16 3.99998C9.37258 3.99998 4 9.37257 4 16C4 22.6274 9.37258 28 16 28Z" stroke="black" stroke-width="2" stroke-miterlimit="10"/>
<path d="M4.6875 12H27.3125" stroke="black" stroke-width="2" stroke-linecap="round" stroke-linejoin="round"/>
<path d="M4.6875 20H27.3125" stroke="black" stroke-width="2" stroke-linecap="round" stroke-linejoin="round"/>
<path d="M16 27.675C18.7614 27.675 21 22.4479 21 16C21 9.55207 18.7614 4.325 16 4.325C13.2386 4.325 11 9.55207 11 16C11 22.4479 13.2386 27.675 16 27.675Z" stroke="black" stroke-width="2" stroke-miterlimit="10"/>
</svg>
