<svg width="24" height="24" viewBox="0 0 24 24" fill="none" xmlns="http://www.w3.org/2000/svg">
<path d="M19.5 3.75H4.5C4.08579 3.75 3.75 4.08579 3.75 4.5V19.5C3.75 19.9142 4.08579 20.25 4.5 20.25H19.5C19.9142 20.25 20.25 19.9142 20.25 19.5V4.5C20.25 4.08579 19.9142 3.75 19.5 3.75Z" stroke="black" stroke-width="1.5" stroke-linecap="round" stroke-linejoin="round"/>
<path d="M20.25 15L16.2844 11.0344C16.2146 10.9635 16.1314 10.9072 16.0397 10.8688C15.9479 10.8304 15.8495 10.8106 15.75 10.8106C15.6505 10.8106 15.5521 10.8304 15.4603 10.8688C15.3686 10.9072 15.2854 10.9635 15.2156 11.0344L11.0344 15.2156C10.9646 15.2865 10.8814 15.3428 10.7897 15.3812C10.6979 15.4196 10.5995 15.4394 10.5 15.4394C10.4005 15.4394 10.3021 15.4196 10.2103 15.3812C10.1186 15.3428 10.0354 15.2865 9.96563 15.2156L8.03437 13.2844C7.96459 13.2135 7.8814 13.1572 7.78966 13.1188C7.69792 13.0804 7.59946 13.0606 7.5 13.0606C7.40054 13.0606 7.30208 13.0804 7.21034 13.1188C7.1186 13.1572 7.03541 13.2135 6.96563 13.2844L3.75 16.5" stroke="black" stroke-width="1.5" stroke-linecap="round" stroke-linejoin="round"/>
<path d="M9.375 9.75C9.99632 9.75 10.5 9.24632 10.5 8.625C10.5 8.00368 9.99632 7.5 9.375 7.5C8.75368 7.5 8.25 8.00368 8.25 8.625C8.25 9.24632 8.75368 9.75 9.375 9.75Z" fill="black"/>
</svg>
