<svg width="108" height="108" viewBox="0 0 108 108" fill="none" xmlns="http://www.w3.org/2000/svg">
<rect width="108" height="108" rx="50" fill="#C6EBC6"/>
<path d="M28.7344 79.2656C25.5719 76.1031 27.6688 69.4687 26.0531 65.5844C24.4375 61.7 18.25 58.2969 18.25 54C18.25 49.7031 24.3688 46.4375 26.0531 42.4156C27.7375 38.3938 25.5719 31.8969 28.7344 28.7344C31.8969 25.5719 38.5313 27.6688 42.4156 26.0531C46.3 24.4375 49.7031 18.25 54 18.25C58.2969 18.25 61.5625 24.3688 65.5844 26.0531C69.6062 27.7375 76.1031 25.5719 79.2656 28.7344C82.4281 31.8969 80.3313 38.5313 81.9469 42.4156C83.5625 46.3 89.75 49.7031 89.75 54C89.75 58.2969 83.6313 61.5625 81.9469 65.5844C80.2625 69.6062 82.4281 76.1031 79.2656 79.2656C76.1031 82.4281 69.4687 80.3313 65.5844 81.9469C61.7 83.5625 58.2969 89.75 54 89.75C49.7031 89.75 46.4375 83.6313 42.4156 81.9469C38.3938 80.2625 31.8969 82.4281 28.7344 79.2656Z" stroke="#00A700" stroke-width="5.5" stroke-linecap="round" stroke-linejoin="round"/>
<path d="M69.125 45.75L48.9469 65L38.875 55.375" stroke="#00A700" stroke-width="5.5" stroke-linecap="round" stroke-linejoin="round"/>
</svg>
