<svg width="24" height="24" viewBox="0 0 24 24" fill="none" xmlns="http://www.w3.org/2000/svg">
<path d="M12 16.5C14.4853 16.5 16.5 14.4853 16.5 12C16.5 9.51472 14.4853 7.5 12 7.5C9.51472 7.5 7.5 9.51472 7.5 12C7.5 14.4853 9.51472 16.5 12 16.5Z" stroke="black" stroke-width="1.5" stroke-linecap="round" stroke-linejoin="round"/>
<path d="M18.5062 7.56572C18.7319 7.88885 18.9295 8.23073 19.0968 8.5876L21.5249 9.9376C21.8281 11.2955 21.8313 12.7033 21.5343 14.0626L19.0968 15.4126C18.9295 15.7695 18.7319 16.1113 18.5062 16.4345L18.553 19.2188C17.524 20.1566 16.306 20.863 14.9812 21.2907L12.5905 19.8563C12.1973 19.8845 11.8025 19.8845 11.4093 19.8563L9.02803 21.2813C7.69894 20.8614 6.47699 20.1577 5.44678 19.2188L5.49366 16.4438C5.26985 16.1162 5.07235 15.7714 4.90303 15.4126L2.47491 14.0626C2.17172 12.7047 2.16852 11.2969 2.46553 9.9376L4.90303 8.5876C5.07036 8.23073 5.26796 7.88885 5.49366 7.56572L5.44678 4.78135C6.47583 3.84363 7.69376 3.13716 9.01865 2.70947L11.4093 4.14385C11.8025 4.11572 12.1973 4.11572 12.5905 4.14385L14.9718 2.71885C16.3009 3.13875 17.5228 3.84249 18.553 4.78135L18.5062 7.56572Z" stroke="black" stroke-width="1.5" stroke-linecap="round" stroke-linejoin="round"/>
</svg>
