<?xml version="1.0" encoding="UTF-8"?><svg id="a" xmlns="http://www.w3.org/2000/svg" width="330" height="86" viewBox="0 0 330 86"><g opacity=".2"><path d="m105.39,0C95.92,0,89.29,8.5,90.15,16.9c-5.58,1.09-9.79,6.03-9.79,11.92,0,6.7,5.43,12.14,12.14,12.14h37.17c7.71,0,12.9-5.06,12.9-11.38,0-5.28-3.72-10.47-9.1-11.38,0-9.1-8.34-12.9-14.41-9.86C116.76,3.79,111.87,0,105.39,0h0Z" fill="#fff"/></g><g opacity=".2"><path d="m314.75,2c-3.95,0-6.93,2.31-8.32,5.08-3.7-1.85-8.78.46-8.78,6.01-3.28.55-5.55,3.71-5.55,6.93,0,3.85,3.16,6.93,7.86,6.93h22.65c4.08,0,7.4-3.31,7.4-7.4,0-3.59-2.57-6.6-5.97-7.27.52-5.12-3.52-10.3-9.29-10.3h0Z" fill="#fff"/></g><path d="m34.99,75.63l-9.55-16.54c-2.72-4.71-7.18-4.71-9.9,0L0,86h29l5.99-10.38Z" fill="#007a00"/><path d="m296.94,86l-26.29-45.53c-4.34-7.51-11.44-7.51-15.78,0l-22.31,38.63,3.98,6.89h60.39Z" fill="#007a00"/><path d="m94.47,86l-25.67-44.45c-3.89-6.74-10.25-6.74-14.14,0l-19.67,34.08,5.99,10.38h53.49Z" fill="#41ad49"/><polygon points="40.98 86 34.99 75.63 29 86 40.98 86" fill="#41ad49"/><path d="m232.57,79.11L194.13,12.52c-6.2-10.74-16.34-10.74-22.54,0l-42.42,73.48h99.43l3.98-6.89Z" fill="#41ad49"/><polygon points="236.55 86 232.57 79.11 228.6 86 236.55 86" fill="#41ad49"/></svg>