<?xml version="1.0" encoding="utf-8"?>
<!-- Generator: Adobe Illustrator 16.0.4, SVG Export Plug-In . SVG Version: 6.00 Build 0)  -->
<!DOCTYPE svg PUBLIC "-//W3C//DTD SVG 1.1//EN" "http://www.w3.org/Graphics/SVG/1.1/DTD/svg11.dtd">
<svg version="1.1" id="Layer_1" xmlns="http://www.w3.org/2000/svg" xmlns:xlink="http://www.w3.org/1999/xlink" x="0px" y="0px"
	 width="330px" height="86px" viewBox="0 0 330 86" enable-background="new 0 0 330 86" xml:space="preserve">
<g transform="translate(0,-952.36218)" opacity="0.2">
	<path fill="#FFFFFF" d="M105.388,952.362c-9.471,0-16.095,8.501-15.241,16.9c-5.578,1.095-9.79,6.025-9.79,11.923
		c0,6.703,5.434,12.136,12.137,12.136h37.167c7.713,0,12.895-5.06,12.895-11.378c0-5.283-3.722-10.475-9.103-11.377
		c0-9.102-8.344-12.895-14.411-9.861C116.765,956.155,111.87,952.362,105.388,952.362L105.388,952.362z"/>
</g>
<g transform="translate(0,-952.36218)" opacity="0.2">
	<path fill="#FFFFFF" d="M314.747,954.362c-3.95,0-6.934,2.311-8.32,5.084c-3.697-1.849-8.782,0.462-8.782,6.008
		c-3.278,0.55-5.546,3.714-5.546,6.934c0,3.85,3.157,6.933,7.857,6.933h22.648c4.084,0,7.396-3.311,7.396-7.396
		c0-3.594-2.566-6.598-5.966-7.265C324.555,959.542,320.518,954.362,314.747,954.362L314.747,954.362z"/>
</g>
<g>
	<path fill="#243DA8" d="M34.99,75.625l-9.552-16.543c-2.722-4.714-7.176-4.714-9.898,0L0,86h29L34.99,75.625z"/>
	<path fill="#243DA8" d="M296.943,86l-26.286-45.526c-4.339-7.515-11.439-7.515-15.778,0l-22.305,38.634L236.554,86H296.943z"/>
	<path fill="#3654FF" d="M94.472,86L68.805,41.546c-3.888-6.735-10.251-6.735-14.14,0L34.99,75.625L40.98,86H94.472z"/>
	<polygon fill="#3654FF" points="40.98,86 34.99,75.625 29,86 	"/>
	<path fill="#3654FF" d="M232.574,79.108L194.129,12.52c-6.198-10.736-16.342-10.736-22.54,0L129.166,86h99.43L232.574,79.108z"/>
	<polygon fill="#3654FF" points="236.554,86 232.574,79.108 228.596,86 	"/>
</g>
</svg>
