<?xml version="1.0" encoding="UTF-8"?><svg id="Layer_1" xmlns="http://www.w3.org/2000/svg" viewBox="0 0 375 195"><rect y="60" width="375" height="135" style="fill:#fff200;"/><rect x="196.22" y="91.72" width="147.57" height="74.28" style="fill:none;"/><g style="isolation:isolate;"><text transform="translate(220.35 103.24)" style="fill:#fff; font-family:ArialMT, Arial; font-size:16px; isolation:isolate;"><tspan x="0" y="0">Dig your way </tspan></text><text transform="translate(215.57 122.24)" style="fill:#fff; font-family:ArialMT, Arial; font-size:16px; isolation:isolate;"><tspan x="0" y="0">through these </tspan></text><text transform="translate(204.9 141.24)" style="fill:#fff; font-family:ArialMT, Arial; font-size:16px; isolation:isolate;"><tspan x="0" y="0">lessons and earn </tspan></text><text transform="translate(223.38 160.24)" style="fill:#fff; font-family:ArialMT, Arial; font-size:16px; isolation:isolate;"><tspan x="0" y="0">as you learn</tspan></text></g><ellipse cx="107.03" cy="153.04" rx="36.69" ry="5.92" style="fill:#232323; isolation:isolate; opacity:.2;"/><path d="m115.29,80.85c-2.39.25-4.28,2.11-4.06,4.73.21,2.6,3.29,5.08,6.62,4.76,9.48-.91,17.36-6.23,21.74-14.69,1.54-2.97.39-6.75-1.95-7.92-2.35-1.18-4.79-.12-5.91,2-3.31,6.39-9.27,10.43-16.44,11.11Z" style="fill:#232323;"/><path d="m141.15,66.4c.45-.53.66-1.24.35-1.65-.3-.41-1.17-.38-1.85.19-1.84,1.53-3.18,3.64-3.77,6.05-.22.9.49,1.63,1.43,1.6.94-.03,1.66-.53,1.71-1.16.14-1.79.85-3.57,2.13-5.04Z" style="fill:#232323;"/><path d="m143.61,69.67c.64-.26,1.15-.8,1.06-1.31-.08-.5-.87-.87-1.73-.67-2.34.53-4.49,1.79-6.11,3.67-.6.7-.31,1.67.54,2.08.85.41,1.72.29,2.05-.25.94-1.53,2.38-2.79,4.19-3.51Z" style="fill:#232323;"/><path d="m84.34,115.61c.14,1.08,3.72,31.69,8.93,35.98,5.21,4.29,7.95,2.85,9.01,1.71,1.11-1.19,2.51-3.34-.09-5.76-2.09-1.95-3.55-10.57-1.47-24.03l-16.39-7.9Z" style="fill:#232323;"/><path d="m104.25,113.71c.14,1.08,3.72,31.69,8.94,35.98,5.22,4.29,7.95,2.84,9.01,1.7,1.11-1.19,2.51-3.34-.08-5.76-2.09-1.95-3.56-10.57-1.47-24.03l-16.39-7.9Z" style="fill:#232323;"/><path d="m88.51,69.38c6.02-3.34,13.66-5.14,27.76-5.69-3.36-1.42-7.81-2.08-14.32-2.08h-.01c-11.14,0-16.29,1.9-20.17,6.32-4.58,5.21-6.89,20.12-7.36,31.72.74-10.89,5.16-25.3,14.1-30.27Z" style="fill:#fff;"/><path d="m74.42,99.65c-.11,1.6-.14,3.12-.09,4.53,0-1.43.02-2.94.09-4.53Z" style="fill:#444;"/><path d="m64.67,118.35c-1.59,1.13-3.65,1.52-4.73.56-1.08-.96-.75-3.4,1.02-5.15,4.79-4.77,11.07-7.98,17.99-9.02,2.58-.38,4.45,1.8,4.13,4.43-.31,2.64-1.92,4.54-3.69,4.52-5.06-.08-10.26,1.46-14.72,4.67Z" style="fill:#444;"/><path d="m122.13,67.93c-1.42-1.61-3.01-2.89-4.99-3.86-.28-.13-.57-.25-.86-.38-2.27.09-4.36.21-6.31.37-4.8.17-8.56.71-11.61,1.66-3.93.91-7.06,2.12-9.83,3.66-8.94,4.96-13.36,19.37-14.1,30.27-.06,1.58-.09,3.1-.09,4.53.01,3.69.25,6.75.69,8.6.48,2,2.39,3.71,5.4,5.06,4.79,2.15,12.39,3.38,21.53,3.38h.01c.86,0,1.69-.01,2.52-.04.26,0,.51-.02.76-.03.57-.02,1.14-.04,1.7-.07.28-.01.56-.03.83-.05.54-.03,1.07-.07,1.6-.12.25-.02.5-.04.74-.06.64-.06,1.27-.12,1.89-.2.11-.01.22-.02.33-.04.73-.09,1.43-.19,2.12-.3.17-.03.33-.06.49-.09.51-.09,1.02-.18,1.51-.28.21-.04.41-.08.61-.12.44-.09.88-.19,1.3-.29.19-.05.39-.09.57-.14.46-.12.9-.24,1.33-.37.1-.03.21-.06.31-.08h-.01c2.94-.91,5.23-2.07,6.67-3.45.01-.01.02-.03.04-.04.27-.26.52-.53.73-.81.08-.11.13-.22.21-.33.12-.19.26-.38.35-.57.15-.31.27-.62.34-.95,1.87-7.82.06-37.09-6.76-44.85Z" style="fill:#444;"/><ellipse cx="102.05" cy="109.3" rx="27.37" ry="21.56" style="fill:#444;"/><path d="m105.06,150.32c.65.19,1.38.08,1.62-.37s-.15-1.21-.93-1.58c-2.13-1.01-4.56-1.34-6.96-.88-.89.18-1.25,1.11-.84,1.94.41.83,1.16,1.27,1.74,1.06,1.66-.61,3.54-.71,5.38-.18Z" style="fill:#232323;"/><path d="m104.04,154.13c.58.36,1.3.46,1.65.1.36-.35.19-1.2-.46-1.77-1.76-1.56-4.01-2.55-6.44-2.77-.9-.08-1.51.72-1.35,1.63.16.91.76,1.54,1.38,1.49,1.76-.13,3.6.3,5.22,1.32Z" style="fill:#232323;"/><path d="m101.23,157.01c.35.58.95,1,1.43.84.48-.15.72-.98.4-1.79-.86-2.19-2.41-4.1-4.47-5.4-.77-.48-1.67-.05-1.94.83-.27.89-.02,1.72.54,1.96,1.62.68,3.07,1.9,4.04,3.55Z" style="fill:#232323;"/><path d="m125.87,148.06c.65.19,1.38.08,1.62-.37s-.15-1.21-.93-1.58c-2.13-1.01-4.56-1.34-6.96-.88-.89.18-1.25,1.11-.84,1.94.41.84,1.16,1.27,1.74,1.06,1.66-.62,3.54-.71,5.38-.18Z" style="fill:#232323;"/><path d="m124.85,151.87c.58.36,1.3.46,1.65.1.36-.35.19-1.2-.46-1.77-1.76-1.56-4.01-2.55-6.44-2.77-.9-.08-1.51.72-1.35,1.63.16.91.76,1.54,1.38,1.5,1.76-.13,3.6.3,5.22,1.32Z" style="fill:#232323;"/><path d="m122.04,154.74c.35.58.95,1,1.43.84.48-.15.72-.98.4-1.79-.86-2.19-2.41-4.1-4.47-5.4-.77-.48-1.67-.05-1.94.83-.27.88-.02,1.72.54,1.96,1.63.69,3.07,1.91,4.04,3.55Z" style="fill:#232323;"/><path d="m94.32,78.76c-1.54-1.84-4.14-2.38-6.19-.73-2.04,1.63-2.39,5.57-.26,8.15,6.04,7.36,14.85,10.94,24.32,9.85,3.32-.38,5.82-3.44,5.49-6.03-.33-2.61-2.57-4.04-4.96-3.79-7.16.82-13.82-1.88-18.4-7.45Z" style="fill:#232323;"/><path d="m120.07,88.19c.64-.12,1.2-.52,1.22-1,.02-.48-.64-.96-1.46-.94-2.24.04-4.46.8-6.3,2.22-.68.53-.6,1.47.1,2.01.7.54,1.53.59,1.93.16,1.15-1.23,2.71-2.11,4.51-2.44Z" style="fill:#232323;"/><path d="m120.82,91.86c.65.06,1.3-.16,1.45-.62.15-.46-.35-1.1-1.14-1.31-2.17-.58-4.5-.46-6.67.39-.81.32-.98,1.25-.46,1.96.53.71,1.3.99,1.81.69,1.44-.86,3.19-1.28,5-1.09Z" style="fill:#232323;"/><path d="m119.66,95.51c.54.35,1.23.44,1.57.11s.19-1.14-.42-1.69c-1.66-1.5-3.8-2.46-6.11-2.69-.86-.08-1.44.67-1.3,1.54.15.87.71,1.47,1.3,1.44,1.68-.11,3.42.32,4.96,1.31Z" style="fill:#232323;"/><path d="m41.37,35.99l14.16,5.33c1.78.67,3.81-.24,4.48-2.03l3.03-8.25-.13-.05c-3.32-1.25-4.95-4.85-3.7-8.16.62-1.66,1.75-2.91,3.33-3.62,1.49-.68,3.26-.74,4.92-.11l.04.09,3.03-8.25c.34-.89.33-1.84-.03-2.63-.36-.79-1.11-1.51-1.96-1.76l-14.16-5.33c-4.68-1.69-9.64-1.66-14.2.41s-7.98,5.73-9.67,10.41c-3.56,9.65,1.29,20.36,10.86,23.96Z" style="fill:#7f7f7f;"/><path d="m61.59,19.97c-.89-.34-1.84-.33-2.63.03-.79.36-1.42,1.07-1.76,1.96-.67,1.78.24,3.8,2.03,4.48l76.84,28.32c-.47,2.22-.69,4.54-.39,6.84l.32,3.03c.17,1.3.99,2.41,2.22,2.8l12.24,4.61c1.79.67,3.8-.24,4.48-2.03l7.74-20.75c.67-1.79-.24-3.81-2.03-4.48l-12.24-4.61c-.89-.34-1.84-.33-2.63.03-.35.16-.57.37-.89.61l-2.32,2.11c-1.74,1.53-3.02,3.38-4.22,5.4L61.59,19.97Zm85.64,28.14l.76-.66,7.14,2.69-5.38,14.29-7.1-2.6-.13-1c-.68-4.77,1.18-9.53,4.71-12.72Z" style="fill:#444;"/><path d="m84.56,47.73c-1.79-9.91,5.18-15.7,22.43-16.73,5.48-.33,10.54-6.76,14.49-7.93,11.38-3.39,14.08,4.02,14.08,4.02h.02c-5.6-12.81-21.59-20.31-38.55-17.18-19.25,3.56-32.44,19.48-29.46,35.54,2.97,16.07,20.98,26.21,40.23,22.65,1.68-.31,3.31-.72,4.88-1.21v-.02c-16.73,4.31-25.74-5.99-28.12-19.14Z" style="fill:#fff;"/><path d="m137.26,32.55c-.35-1.91-.93-3.74-1.68-5.47h-.02s-2.7-7.41-14.08-4.03c-3.95,1.18-9.01,7.6-14.49,7.93-17.25,1.03-24.22,6.83-22.43,16.73,2.38,13.15,11.39,23.45,28.12,19.14v.02c16.54-5.13,27.3-19.66,24.58-34.33Z" style="fill:#444;"/><path d="m119.35,60.36c-3.67.83-11.46-1.02-11.49-8.94s8.55-10.48,11.44-11.13c2.89-.65,11.49-1.96,11.52,5.95.03,7.92-7.8,13.29-11.46,14.12Z" style="fill:#7f7f7f;"/><path d="m119.48,42.33c1.59-.36,3.96.88,4.24,2.87.28,2-4.32,2.96-4.32,2.96l-.13.03s-4.61,1.12-4.34-1.01c.27-2.12,2.62-4.42,4.21-4.78l.34-.08Z" style="fill:#232323;"/><path d="m124.97,50.99c-.31.85-.75,1.65-1.3,2.35-.55.71-1.21,1.33-1.93,1.83-.73.5-1.53.85-2.38,1.05-.84.19-1.65.19-2.38.03-.73-.16-1.39-.49-1.95-.95-.56-.46-1-1.06-1.32-1.77" style="fill:none; stroke:#232323; stroke-linecap:round; stroke-miterlimit:10; stroke-width:1.03px;"/><circle cx="103.88" cy="41" r="1.45" style="fill:#232323;"/><circle cx="126.31" cy="33.06" r="1.45" style="fill:#232323;"/><ellipse cx="85.88" cy="50.22" rx="4.05" ry="10.34" transform="translate(-8.13 17.68) rotate(-11.23)" style="fill:#444;"/><path d="m86.23,43.65c-1.81.37-2.71,4.04-2.46,8.98-.17-.6-.32-1.22-.44-1.88-.85-4.4-.38-8.21,1.05-8.5.61-.13,1.29.41,1.94,1.4-.03,0-.06,0-.09,0Z" style="fill:#232323;"/><path d="m99.43,41.9c-.04-.51.01-1.02.16-1.5.15-.48.39-.94.71-1.33.32-.4.73-.74,1.21-.99.48-.26.99-.4,1.5-.44" style="fill:none; stroke:#7f7f7f; stroke-linecap:round; stroke-miterlimit:10; stroke-width:1.14px;"/><path d="m124.67,29.57c.45-.25.94-.41,1.43-.47.5-.06,1.01-.03,1.51.1.49.13.97.36,1.4.69.43.33.77.74,1.02,1.19" style="fill:none; stroke:#7f7f7f; stroke-linecap:round; stroke-miterlimit:10; stroke-width:1.14px;"/><path d="m137.48,64.8c.29-.63.29-1.37-.12-1.68-.4-.31-1.23-.03-1.73.69-1.34,1.98-2.04,4.38-1.94,6.86.04.92.92,1.43,1.82,1.14.9-.28,1.45-.97,1.33-1.58-.36-1.75-.17-3.66.65-5.43Z" style="fill:#232323;"/></svg>