<svg version="1.1" id="Layer_1" xmlns="http://www.w3.org/2000/svg" xmlns:xlink="http://www.w3.org/1999/xlink" xml:space="preserve" viewBox="29.35 0 133.54 158.97">     
    <g> 	
        <g> 		
            <ellipse opacity="0.2" fill="#232323" cx="107.027" cy="153.044" rx="36.693" ry="5.922"></ellipse> 		
            <path fill="#232323" d="M115.292,80.851c-2.386,0.248-4.285,2.115-4.062,4.734c0.215,2.604,3.291,5.084,6.622,4.762 			c9.48-0.91,17.362-6.234,21.741-14.691c1.54-2.973,0.387-6.752-1.947-7.922c-2.347-1.182-4.788-0.119-5.909,2.004 			C128.425,76.132,122.464,80.163,115.292,80.851z">
            </path> 		
            <path fill="#232323" d="M141.149,66.401c0.451-0.525,0.656-1.236,0.351-1.65c-0.304-0.412-1.173-0.377-1.851,0.189 			c-1.839,1.529-3.177,3.643-3.768,6.049c-0.218,0.896,0.489,1.627,1.428,1.604c0.942-0.025,1.662-0.529,1.713-1.156 			C139.159,69.649,139.875,67.868,141.149,66.401z">
            </path> 		
            <path fill="#232323" d="M143.614,69.665c0.639-0.26,1.146-0.801,1.062-1.309c-0.081-0.504-0.871-0.869-1.733-0.674 			c-2.335,0.525-4.487,1.795-6.108,3.67c-0.603,0.697-0.306,1.67,0.542,2.076c0.849,0.41,1.722,0.287,2.049-0.248 			C140.363,71.651,141.81,70.394,143.614,69.665z">
            </path> 		
            <path fill="#232323" d="M84.341,115.614c0.135,1.084,3.721,31.691,8.935,35.982c5.214,4.289,7.951,2.846,9.011,1.705 			c1.109-1.193,2.512-3.34-0.086-5.762c-2.086-1.947-3.554-10.57-1.472-24.027L84.341,115.614z">
            </path> 		
            <path fill="#232323" d="M104.248,113.706c0.138,1.082,3.722,31.691,8.936,35.982c5.215,4.289,7.952,2.844,9.012,1.703 			c1.109-1.191,2.511-3.34-0.085-5.76c-2.087-1.949-3.556-10.57-1.473-24.029L104.248,113.706z">
            </path> 		
            <path fill="#FFFFFF" d="M88.513,69.384c6.024-3.344,13.662-5.139,27.76-5.689c-3.362-1.422-7.81-2.084-14.318-2.084h-0.011 			c-11.14,0-16.295,1.902-20.172,6.316c-4.581,5.213-6.894,20.123-7.356,31.725C75.155,88.757,79.576,74.349,88.513,69.384z">
            </path> 		
            <path fill="#444444" d="M74.415,99.651c-0.109,1.602-0.135,3.123-0.087,4.529C74.323,102.755,74.353,101.235,74.415,99.651z">
            </path> 		
            <path fill="#444444" d="M64.665,118.349c-1.591,1.131-3.646,1.521-4.73,0.555c-1.081-0.957-0.754-3.4,1.016-5.154 			c4.786-4.771,11.073-7.984,17.995-9.016c2.579-0.377,4.449,1.799,4.134,4.434c-0.312,2.645-1.923,4.537-3.691,4.516 			C74.326,113.603,69.127,115.147,64.665,118.349z">
            </path> 		
            <path fill="#444444" d="M122.126,67.927c-1.415-1.611-3.006-2.885-4.991-3.857c-0.275-0.135-0.571-0.254-0.862-0.375 			c-2.271,0.088-4.357,0.213-6.313,0.367c-4.799,0.17-8.56,0.707-11.611,1.662c-3.933,0.914-7.061,2.121-9.835,3.66 			c-8.937,4.965-13.357,19.373-14.098,30.268c-0.062,1.584-0.092,3.104-0.087,4.529c0.012,3.686,0.246,6.748,0.688,8.598 			c0.478,2,2.392,3.707,5.399,5.057c4.795,2.148,12.39,3.375,21.528,3.375h0.011c0.856,0,1.695-0.014,2.524-0.035 			c0.257-0.006,0.507-0.018,0.761-0.025c0.573-0.02,1.142-0.043,1.699-0.074c0.28-0.014,0.557-0.029,0.831-0.047 			c0.542-0.033,1.074-0.074,1.602-0.117c0.247-0.02,0.497-0.039,0.741-0.062c0.641-0.059,1.268-0.125,1.885-0.199 			c0.106-0.014,0.22-0.023,0.327-0.037c0.726-0.09,1.432-0.189,2.118-0.299c0.166-0.027,0.326-0.059,0.489-0.086 			c0.514-0.086,1.018-0.176,1.508-0.275c0.208-0.039,0.41-0.082,0.613-0.125c0.442-0.094,0.875-0.193,1.296-0.295 			c0.192-0.049,0.386-0.094,0.573-0.143c0.457-0.119,0.898-0.242,1.328-0.373c0.1-0.029,0.208-0.055,0.305-0.084 			c-0.004,0-0.007,0-0.011,0c2.94-0.912,5.227-2.074,6.672-3.453c0.015-0.014,0.024-0.029,0.039-0.045 			c0.271-0.262,0.517-0.529,0.726-0.807c0.082-0.107,0.134-0.223,0.206-0.33c0.124-0.189,0.257-0.377,0.352-0.57 			c0.152-0.309,0.267-0.625,0.344-0.949C130.748,104.96,128.946,75.69,122.126,67.927z">
            </path> 		
            <ellipse fill="#444444" cx="102.048" cy="109.3" rx="27.366" ry="21.562">
            </ellipse> 		
            <g> 			
                <path fill="#232323" d="M105.062,150.321c0.654,0.186,1.375,0.076,1.619-0.365s-0.146-1.205-0.932-1.578 				c-2.126-1.012-4.564-1.338-6.958-0.875c-0.892,0.176-1.253,1.107-0.844,1.936c0.409,0.834,1.157,1.27,1.735,1.057 				C101.339,149.882,103.227,149.786,105.062,150.321z"></path> 			
                <path fill="#232323" d="M104.044,154.128c0.576,0.361,1.299,0.457,1.655,0.098c0.358-0.355,0.194-1.197-0.456-1.773 				c-1.763-1.561-4.014-2.551-6.442-2.77c-0.905-0.078-1.512,0.717-1.349,1.627c0.161,0.912,0.76,1.539,1.376,1.494 				C100.587,152.675,102.427,153.106,104.044,154.128z">
                </path> 			
                <path fill="#232323" d="M101.232,157.009c0.348,0.584,0.949,0.998,1.43,0.842c0.479-0.154,0.717-0.979,0.4-1.787 				c-0.857-2.193-2.411-4.1-4.475-5.4c-0.769-0.482-1.672-0.051-1.94,0.834c-0.272,0.887-0.024,1.719,0.544,1.959 				C98.816,154.142,100.257,155.362,101.232,157.009z">
                </path> 		
            </g> 		
            <g> 			
                <path fill="#232323" d="M125.87,148.058c0.654,0.186,1.375,0.076,1.619-0.365s-0.146-1.205-0.932-1.576 				c-2.127-1.014-4.564-1.34-6.958-0.877c-0.892,0.178-1.253,1.109-0.844,1.936c0.409,0.836,1.157,1.27,1.735,1.059 				C122.146,147.62,124.033,147.522,125.87,148.058z">
                </path> 			
                <path fill="#232323" d="M124.852,151.866c0.576,0.359,1.299,0.455,1.655,0.096c0.358-0.354,0.194-1.197-0.457-1.771 				c-1.763-1.562-4.014-2.553-6.442-2.771c-0.904-0.078-1.511,0.719-1.349,1.627c0.162,0.914,0.761,1.539,1.377,1.496 				C121.395,150.411,123.234,150.843,124.852,151.866z">
                </path> 			
                <path fill="#232323" d="M122.039,154.745c0.348,0.584,0.949,0.998,1.431,0.842c0.479-0.154,0.717-0.979,0.4-1.787 				c-0.857-2.193-2.412-4.1-4.475-5.398c-0.77-0.484-1.672-0.053-1.94,0.834c-0.272,0.885-0.024,1.717,0.543,1.957 				C119.624,151.878,121.064,153.099,122.039,154.745z">
                </path> 		
            </g> 		
            <g> 			
                <path fill="#232323" d="M94.324,78.765c-1.535-1.842-4.144-2.377-6.192-0.732c-2.042,1.631-2.387,5.566-0.26,8.154 				c6.04,7.361,14.854,10.936,24.316,9.855c3.325-0.379,5.821-3.443,5.489-6.033c-0.326-2.607-2.572-4.043-4.956-3.789 				C105.563,87.036,98.896,84.335,94.324,78.765z">
                </path> 			
            <g> 				
            <path fill="#232323" d="M120.07,88.187c0.637-0.119,1.204-0.52,1.224-1c0.02-0.479-0.638-0.965-1.464-0.945 					c-2.242,0.041-4.457,0.803-6.299,2.217c-0.684,0.527-0.596,1.475,0.104,2.008c0.704,0.535,1.526,0.586,1.929,0.16 					C116.713,89.399,118.279,88.515,120.07,88.187z">
            </path> 				
            <path fill="#232323" d="M120.824,91.864c0.646,0.062,1.3-0.164,1.452-0.623c0.152-0.455-0.346-1.102-1.145-1.314 					c-2.165-0.58-4.505-0.465-6.665,0.385c-0.805,0.316-0.982,1.252-0.457,1.957c0.528,0.709,1.304,0.986,1.81,0.689 					C117.261,92.097,119.011,91.681,120.824,91.864z">
            </path> 				
            <path fill="#232323" d="M119.656,95.515c0.545,0.348,1.232,0.443,1.575,0.107s0.194-1.139-0.42-1.693 					c-1.663-1.502-3.8-2.465-6.108-2.693c-0.86-0.084-1.445,0.668-1.298,1.535c0.146,0.871,0.71,1.475,1.296,1.438 					C116.377,94.099,118.124,94.526,119.656,95.515z">
            </path> 			
        </g> 		
    </g> 		
    <g> 			
    
    <g> 				
        <path fill="#7F7F7F" d="M41.374,35.989l14.158,5.328c1.785,0.674,3.805-0.242,4.476-2.027l3.033-8.25l-0.128-0.049 					c-3.316-1.248-4.946-4.846-3.699-8.162c0.625-1.658,1.751-2.91,3.331-3.625c1.492-0.676,3.263-0.738,4.921-0.113l0.04,0.088 					l3.032-8.252c0.336-0.893,0.329-1.842-0.028-2.631c-0.358-0.791-1.107-1.508-1.96-1.758L54.392,1.21 					c-4.679-1.688-9.639-1.662-14.203,0.406s-7.981,5.732-9.671,10.41C26.957,21.681,31.809,32.39,41.374,35.989z">
        </path> 				
        <path fill="#444444" d="M61.591,19.97c-0.893-0.338-1.841-0.33-2.632,0.027c-0.789,0.359-1.421,1.066-1.757,1.961 					c-0.671,1.785,0.243,3.803,2.028,4.477l76.84,28.324c-0.474,2.223-0.692,4.545-0.392,6.842l0.315,3.031 					c0.166,1.299,0.986,2.408,2.222,2.801l12.244,4.609c1.785,0.672,3.804-0.244,4.477-2.029l7.737-20.748 					c0.672-1.787-0.243-3.805-2.028-4.477l-12.244-4.609c-0.893-0.336-1.842-0.33-2.632,0.029c-0.352,0.158-0.574,0.365-0.886,0.611 					l-2.323,2.111c-1.741,1.529-3.02,3.379-4.218,5.402L61.591,19.97z M147.235,48.112l0.758-0.66l7.143,2.688l-5.376,14.285 					l-7.103-2.602l-0.135-0.996C141.842,56.058,143.706,51.298,147.235,48.112z">
        </path> 			
    </g> 		
    </g> 		
    <g> 			
        <path fill="#FFFFFF" d="M84.563,47.726c-1.79-9.908,5.176-15.699,22.426-16.734c5.476-0.328,10.536-6.758,14.49-7.934 				c11.377-3.387,14.08,4.025,14.08,4.025l0.022,0.002c-5.603-12.816-21.592-20.314-38.546-17.18 				c-19.245,3.562-32.436,19.477-29.462,35.543c2.972,16.07,20.983,26.209,40.227,22.646c1.677-0.309,3.305-0.719,4.883-1.209 				l-0.002-0.02C95.949,71.179,86.94,60.874,84.563,47.726z">
        </path> 			
        <path fill="#444444" d="M137.265,32.554c-0.354-1.912-0.927-3.736-1.683-5.469l-0.022-0.002c0,0-2.703-7.412-14.08-4.025 				c-3.954,1.176-9.015,7.605-14.49,7.934c-17.25,1.035-24.216,6.826-22.426,16.734c2.377,13.148,11.386,23.453,28.118,19.141 				l0.002,0.02C129.22,61.755,139.979,47.224,137.265,32.554z">
        </path> 			
        <path fill="#7F7F7F" d="M119.349,60.36c-3.665,0.826-11.461-1.023-11.492-8.938s8.551-10.479,11.439-11.129 				c2.892-0.652,11.486-1.961,11.517,5.951C130.845,54.161,123.016,59.534,119.349,60.36z">
        </path> 			
        <path fill="#232323" d="M119.479,42.331c1.594-0.359,3.956,0.875,4.242,2.871c0.284,1.996-4.322,2.961-4.322,2.961l-0.134,0.029 				c0,0-4.606,1.115-4.337-1.008c0.268-2.121,2.617-4.418,4.21-4.777L119.479,42.331z">
        </path> 			
        <path fill="none" stroke="#232323" stroke-width="1.035" stroke-linecap="round" stroke-miterlimit="10" d="M124.975,50.991 				c-0.306,0.846-0.75,1.646-1.3,2.355c-0.552,0.713-1.207,1.334-1.935,1.826c-0.731,0.496-1.532,0.855-2.376,1.047 				c-0.842,0.189-1.647,0.191-2.379,0.025c-0.73-0.164-1.392-0.488-1.946-0.951c-0.555-0.461-1.004-1.059-1.316-1.766">
        </path> 			
        <circle fill="#232323" cx="103.884" cy="40.997" r="1.452">
        </circle> 			
        <circle fill="#232323" cx="126.309" cy="33.062" r="1.452">
        </circle> 			 				
        <ellipse transform="matrix(0.9809 -0.1947 0.1947 0.9809 -8.1341 17.6788)" fill="#444444" cx="85.874" cy="50.222" rx="4.053" ry="10.338">
        </ellipse> 			
        <path fill="#232323" d="M86.23,43.646c-1.805,0.369-2.709,4.043-2.462,8.977c-0.166-0.598-0.315-1.225-0.442-1.877 				c-0.85-4.404-0.378-8.211,1.051-8.504c0.606-0.127,1.292,0.41,1.94,1.4C86.289,43.646,86.259,43.638,86.23,43.646z">
        </path> 			
        <path fill="none" stroke="#7F7F7F" stroke-width="1.1425" stroke-linecap="round" stroke-miterlimit="10" d="M99.426,41.903 				c-0.044-0.51,0.011-1.02,0.16-1.5c0.147-0.482,0.387-0.936,0.71-1.33c0.321-0.396,0.729-0.736,1.208-0.99 				c0.48-0.256,0.99-0.4,1.499-0.443">
        </path> 			
        <path fill="none" stroke="#7F7F7F" stroke-width="1.1425" stroke-linecap="round" stroke-miterlimit="10" d="M124.669,29.571 				c0.447-0.25,0.937-0.408,1.434-0.471c0.501-0.062,1.013-0.029,1.506,0.104c0.493,0.131,0.969,0.361,1.397,0.695 				c0.431,0.334,0.77,0.738,1.021,1.186">
        </path> 		
    </g> 		
    <path fill="#232323" d="M137.479,64.796c0.288-0.629,0.287-1.369-0.12-1.684c-0.403-0.312-1.233-0.035-1.727,0.695 			c-1.341,1.98-2.042,4.381-1.942,6.855c0.041,0.924,0.921,1.43,1.816,1.145c0.9-0.283,1.45-0.969,1.326-1.584 			C136.47,68.47,136.662,66.56,137.479,64.796z">
    </path> 	
    </g> 
    </g> 
</svg>