<?xml version="1.0" encoding="utf-8"?>
<!-- Generator: Adobe Illustrator 27.5.0, SVG Export Plug-In . SVG Version: 6.00 Build 0)  -->
<svg version="1.1" id="Layer_1" xmlns="http://www.w3.org/2000/svg" xmlns:xlink="http://www.w3.org/1999/xlink" x="0px" y="0px"
	 viewBox="0 0 375 195" style="enable-background:new 0 0 375 195;" xml:space="preserve">
<style type="text/css">
	.st0{fill:#FFF200;}
	.st1{fill:none;}
	.st2{opacity:0.2;fill:#232323;enable-background:new    ;}
	.st3{fill:#232323;}
	.st4{fill:#FFFFFF;}
	.st5{fill:#444444;}
	.st6{fill:#7F7F7F;}
	.st7{fill:none;stroke:#232323;stroke-width:1.035;stroke-linecap:round;stroke-miterlimit:10;}
	.st8{fill:none;stroke:#7F7F7F;stroke-width:1.1425;stroke-linecap:round;stroke-miterlimit:10;}
</style>
<g>
	<rect y="60" class="st0" width="375" height="135"/>
	<g>
		<rect x="196.2" y="91.7" class="st1" width="147.6" height="74.3"/>
	</g>
	<g>
		<ellipse class="st2" cx="107" cy="153" rx="36.7" ry="5.9"/>
		<path class="st3" d="M115.3,80.9c-2.4,0.2-4.3,2.1-4.1,4.7c0.2,2.6,3.3,5.1,6.6,4.8c9.5-0.9,17.4-6.2,21.7-14.7
			c1.5-3,0.4-6.8-1.9-7.9c-2.3-1.2-4.8-0.1-5.9,2C128.4,76.1,122.5,80.2,115.3,80.9z"/>
		<path class="st3" d="M141.1,66.4c0.5-0.5,0.7-1.2,0.4-1.7c-0.3-0.4-1.2-0.4-1.9,0.2c-1.8,1.5-3.2,3.6-3.8,6
			c-0.2,0.9,0.5,1.6,1.4,1.6c0.9,0,1.7-0.5,1.7-1.2C139.2,69.6,139.9,67.9,141.1,66.4z"/>
		<path class="st3" d="M143.6,69.7c0.6-0.3,1.1-0.8,1.1-1.3c-0.1-0.5-0.9-0.9-1.7-0.7c-2.3,0.5-4.5,1.8-6.1,3.7
			c-0.6,0.7-0.3,1.7,0.5,2.1c0.8,0.4,1.7,0.3,2-0.2C140.4,71.7,141.8,70.4,143.6,69.7z"/>
		<path class="st3" d="M84.3,115.6c0.1,1.1,3.7,31.7,8.9,36c5.2,4.3,8,2.8,9,1.7c1.1-1.2,2.5-3.3-0.1-5.8c-2.1-1.9-3.6-10.6-1.5-24
			L84.3,115.6z"/>
		<path class="st3" d="M104.2,113.7c0.1,1.1,3.7,31.7,8.9,36c5.2,4.3,8,2.8,9,1.7c1.1-1.2,2.5-3.3-0.1-5.8c-2.1-1.9-3.6-10.6-1.5-24
			L104.2,113.7z"/>
		<path class="st4" d="M88.5,69.4c6-3.3,13.7-5.1,27.8-5.7c-3.4-1.4-7.8-2.1-14.3-2.1h0c-11.1,0-16.3,1.9-20.2,6.3
			c-4.6,5.2-6.9,20.1-7.4,31.7C75.2,88.8,79.6,74.3,88.5,69.4z"/>
		<path class="st5" d="M74.4,99.7c-0.1,1.6-0.1,3.1-0.1,4.5C74.3,102.8,74.4,101.2,74.4,99.7z"/>
		<path class="st5" d="M64.7,118.3c-1.6,1.1-3.6,1.5-4.7,0.6c-1.1-1-0.8-3.4,1-5.2c4.8-4.8,11.1-8,18-9c2.6-0.4,4.4,1.8,4.1,4.4
			c-0.3,2.6-1.9,4.5-3.7,4.5C74.3,113.6,69.1,115.1,64.7,118.3z"/>
		<path class="st5" d="M122.1,67.9c-1.4-1.6-3-2.9-5-3.9c-0.3-0.1-0.6-0.3-0.9-0.4c-2.3,0.1-4.4,0.2-6.3,0.4
			c-4.8,0.2-8.6,0.7-11.6,1.7c-3.9,0.9-7.1,2.1-9.8,3.7c-8.9,5-13.4,19.4-14.1,30.3c-0.1,1.6-0.1,3.1-0.1,4.5c0,3.7,0.2,6.7,0.7,8.6
			c0.5,2,2.4,3.7,5.4,5.1c4.8,2.1,12.4,3.4,21.5,3.4h0c0.9,0,1.7,0,2.5,0c0.3,0,0.5,0,0.8,0c0.6,0,1.1,0,1.7-0.1c0.3,0,0.6,0,0.8,0
			c0.5,0,1.1-0.1,1.6-0.1c0.2,0,0.5,0,0.7-0.1c0.6-0.1,1.3-0.1,1.9-0.2c0.1,0,0.2,0,0.3,0c0.7-0.1,1.4-0.2,2.1-0.3
			c0.2,0,0.3-0.1,0.5-0.1c0.5-0.1,1-0.2,1.5-0.3c0.2,0,0.4-0.1,0.6-0.1c0.4-0.1,0.9-0.2,1.3-0.3c0.2,0,0.4-0.1,0.6-0.1
			c0.5-0.1,0.9-0.2,1.3-0.4c0.1,0,0.2-0.1,0.3-0.1c0,0,0,0,0,0c2.9-0.9,5.2-2.1,6.7-3.5c0,0,0,0,0,0c0.3-0.3,0.5-0.5,0.7-0.8
			c0.1-0.1,0.1-0.2,0.2-0.3c0.1-0.2,0.3-0.4,0.4-0.6c0.2-0.3,0.3-0.6,0.3-0.9C130.7,105,128.9,75.7,122.1,67.9z"/>
		<ellipse class="st5" cx="102" cy="109.3" rx="27.4" ry="21.6"/>
		<g>
			<path class="st3" d="M105.1,150.3c0.7,0.2,1.4,0.1,1.6-0.4s-0.1-1.2-0.9-1.6c-2.1-1-4.6-1.3-7-0.9c-0.9,0.2-1.3,1.1-0.8,1.9
				c0.4,0.8,1.2,1.3,1.7,1.1C101.3,149.9,103.2,149.8,105.1,150.3z"/>
			<path class="st3" d="M104,154.1c0.6,0.4,1.3,0.5,1.7,0.1c0.4-0.4,0.2-1.2-0.5-1.8c-1.8-1.6-4-2.6-6.4-2.8
				c-0.9-0.1-1.5,0.7-1.3,1.6c0.2,0.9,0.8,1.5,1.4,1.5C100.6,152.7,102.4,153.1,104,154.1z"/>
			<path class="st3" d="M101.2,157c0.3,0.6,0.9,1,1.4,0.8c0.5-0.2,0.7-1,0.4-1.8c-0.9-2.2-2.4-4.1-4.5-5.4c-0.8-0.5-1.7-0.1-1.9,0.8
				c-0.3,0.9,0,1.7,0.5,2C98.8,154.1,100.3,155.4,101.2,157z"/>
		</g>
		<g>
			<path class="st3" d="M125.9,148.1c0.7,0.2,1.4,0.1,1.6-0.4s-0.1-1.2-0.9-1.6c-2.1-1-4.6-1.3-7-0.9c-0.9,0.2-1.3,1.1-0.8,1.9
				c0.4,0.8,1.2,1.3,1.7,1.1C122.1,147.6,124,147.5,125.9,148.1z"/>
			<path class="st3" d="M124.9,151.9c0.6,0.4,1.3,0.5,1.7,0.1c0.4-0.4,0.2-1.2-0.5-1.8c-1.8-1.6-4-2.6-6.4-2.8
				c-0.9-0.1-1.5,0.7-1.3,1.6c0.2,0.9,0.8,1.5,1.4,1.5C121.4,150.4,123.2,150.8,124.9,151.9z"/>
			<path class="st3" d="M122,154.7c0.3,0.6,0.9,1,1.4,0.8c0.5-0.2,0.7-1,0.4-1.8c-0.9-2.2-2.4-4.1-4.5-5.4c-0.8-0.5-1.7-0.1-1.9,0.8
				c-0.3,0.9,0,1.7,0.5,2C119.6,151.9,121.1,153.1,122,154.7z"/>
		</g>
		<g>
			<path class="st3" d="M94.3,78.8c-1.5-1.8-4.1-2.4-6.2-0.7c-2,1.6-2.4,5.6-0.3,8.2c6,7.4,14.9,10.9,24.3,9.9
				c3.3-0.4,5.8-3.4,5.5-6c-0.3-2.6-2.6-4-5-3.8C105.6,87,98.9,84.3,94.3,78.8z"/>
			<g>
				<path class="st3" d="M120.1,88.2c0.6-0.1,1.2-0.5,1.2-1c0-0.5-0.6-1-1.5-0.9c-2.2,0-4.5,0.8-6.3,2.2c-0.7,0.5-0.6,1.5,0.1,2
					c0.7,0.5,1.5,0.6,1.9,0.2C116.7,89.4,118.3,88.5,120.1,88.2z"/>
				<path class="st3" d="M120.8,91.9c0.6,0.1,1.3-0.2,1.5-0.6c0.2-0.5-0.3-1.1-1.1-1.3c-2.2-0.6-4.5-0.5-6.7,0.4
					c-0.8,0.3-1,1.3-0.5,2c0.5,0.7,1.3,1,1.8,0.7C117.3,92.1,119,91.7,120.8,91.9z"/>
				<path class="st3" d="M119.7,95.5c0.5,0.3,1.2,0.4,1.6,0.1s0.2-1.1-0.4-1.7c-1.7-1.5-3.8-2.5-6.1-2.7c-0.9-0.1-1.4,0.7-1.3,1.5
					c0.1,0.9,0.7,1.5,1.3,1.4C116.4,94.1,118.1,94.5,119.7,95.5z"/>
			</g>
		</g>
		<g>
			<g>
				<path class="st6" d="M41.4,36l14.2,5.3c1.8,0.7,3.8-0.2,4.5-2l3-8.2l-0.1,0c-3.3-1.2-4.9-4.8-3.7-8.2c0.6-1.7,1.8-2.9,3.3-3.6
					c1.5-0.7,3.3-0.7,4.9-0.1l0,0.1l3-8.3c0.3-0.9,0.3-1.8,0-2.6c-0.4-0.8-1.1-1.5-2-1.8L54.4,1.2c-4.7-1.7-9.6-1.7-14.2,0.4
					s-8,5.7-9.7,10.4C27,21.7,31.8,32.4,41.4,36z"/>
				<path class="st5" d="M61.6,20c-0.9-0.3-1.8-0.3-2.6,0c-0.8,0.4-1.4,1.1-1.8,2c-0.7,1.8,0.2,3.8,2,4.5l76.8,28.3
					c-0.5,2.2-0.7,4.5-0.4,6.8l0.3,3c0.2,1.3,1,2.4,2.2,2.8l12.2,4.6c1.8,0.7,3.8-0.2,4.5-2l7.7-20.7c0.7-1.8-0.2-3.8-2-4.5
					l-12.2-4.6c-0.9-0.3-1.8-0.3-2.6,0c-0.4,0.2-0.6,0.4-0.9,0.6l-2.3,2.1c-1.7,1.5-3,3.4-4.2,5.4L61.6,20z M147.2,48.1l0.8-0.7
					l7.1,2.7l-5.4,14.3l-7.1-2.6l-0.1-1C141.8,56.1,143.7,51.3,147.2,48.1z"/>
			</g>
		</g>
		<g>
			<path class="st4" d="M84.6,47.7C82.8,37.8,89.7,32,107,31c5.5-0.3,10.5-6.8,14.5-7.9c11.4-3.4,14.1,4,14.1,4l0,0
				C130,14.3,114,6.8,97,9.9c-19.2,3.6-32.4,19.5-29.5,35.5c3,16.1,21,26.2,40.2,22.6c1.7-0.3,3.3-0.7,4.9-1.2l0,0
				C95.9,71.2,86.9,60.9,84.6,47.7z"/>
			<path class="st5" d="M137.3,32.6c-0.4-1.9-0.9-3.7-1.7-5.5l0,0c0,0-2.7-7.4-14.1-4c-4,1.2-9,7.6-14.5,7.9
				c-17.2,1-24.2,6.8-22.4,16.7c2.4,13.1,11.4,23.5,28.1,19.1l0,0C129.2,61.8,140,47.2,137.3,32.6z"/>
			<path class="st6" d="M119.3,60.4c-3.7,0.8-11.5-1-11.5-8.9s8.6-10.5,11.4-11.1c2.9-0.7,11.5-2,11.5,6
				C130.8,54.2,123,59.5,119.3,60.4z"/>
			<path class="st3" d="M119.5,42.3c1.6-0.4,4,0.9,4.2,2.9c0.3,2-4.3,3-4.3,3l-0.1,0c0,0-4.6,1.1-4.3-1c0.3-2.1,2.6-4.4,4.2-4.8
				L119.5,42.3z"/>
			<path class="st7" d="M125,51c-0.3,0.8-0.8,1.6-1.3,2.4c-0.6,0.7-1.2,1.3-1.9,1.8c-0.7,0.5-1.5,0.9-2.4,1c-0.8,0.2-1.6,0.2-2.4,0
				c-0.7-0.2-1.4-0.5-1.9-1c-0.6-0.5-1-1.1-1.3-1.8"/>
			<circle class="st3" cx="103.9" cy="41" r="1.5"/>
			<circle class="st3" cx="126.3" cy="33.1" r="1.5"/>
			
				<ellipse transform="matrix(0.9809 -0.1947 0.1947 0.9809 -8.1345 17.6809)" class="st5" cx="85.9" cy="50.2" rx="4.1" ry="10.3"/>
			<path class="st3" d="M86.2,43.6c-1.8,0.4-2.7,4-2.5,9c-0.2-0.6-0.3-1.2-0.4-1.9c-0.8-4.4-0.4-8.2,1.1-8.5
				C85,42.1,85.7,42.7,86.2,43.6C86.3,43.6,86.3,43.6,86.2,43.6z"/>
			<path class="st8" d="M99.4,41.9c0-0.5,0-1,0.2-1.5c0.1-0.5,0.4-0.9,0.7-1.3c0.3-0.4,0.7-0.7,1.2-1c0.5-0.3,1-0.4,1.5-0.4"/>
			<path class="st8" d="M124.7,29.6c0.4-0.2,0.9-0.4,1.4-0.5c0.5-0.1,1,0,1.5,0.1c0.5,0.1,1,0.4,1.4,0.7c0.4,0.3,0.8,0.7,1,1.2"/>
		</g>
		<path class="st3" d="M137.5,64.8c0.3-0.6,0.3-1.4-0.1-1.7c-0.4-0.3-1.2,0-1.7,0.7c-1.3,2-2,4.4-1.9,6.9c0,0.9,0.9,1.4,1.8,1.1
			c0.9-0.3,1.4-1,1.3-1.6C136.5,68.5,136.7,66.6,137.5,64.8z"/>
	</g>
</g>
</svg>
