<?xml version="1.0" encoding="utf-8"?>
<!-- Generator: Adobe Illustrator 16.0.4, SVG Export Plug-In . SVG Version: 6.00 Build 0)  -->
<!DOCTYPE svg PUBLIC "-//W3C//DTD SVG 1.1//EN" "http://www.w3.org/Graphics/SVG/1.1/DTD/svg11.dtd">
<svg version="1.1" id="Layer_1" xmlns="http://www.w3.org/2000/svg" xmlns:xlink="http://www.w3.org/1999/xlink" x="0px" y="0px"
	 width="375px" height="170px" viewBox="0 0 375 170" enable-background="new 0 0 375 170" xml:space="preserve">
<g>
	<g>
		<g>
			<path fill="#232323" d="M27,164c-3.3,0-4.65-2.338-3-5.195l11.32-19.607c1.65-2.858,4.35-2.858,6,0l11.32,19.607
				c1.65,2.857,0.3,5.195-3,5.195H27z"/>
		</g>
		<g>
			<path fill="#232323" d="M42.966,164c-2.31,0-3.255-1.637-2.1-3.637l7.924-13.727c1.155-2,3.045-2,4.2,0l7.925,13.727
				c1.155,2,0.21,3.637-2.1,3.637H42.966z"/>
		</g>
	</g>
	<ellipse fill="#232323" cx="105" cy="163.854" rx="38.078" ry="6.146"/>
	
		<path opacity="0.3" fill="none" stroke="#FFFFFF" stroke-width="2" stroke-linecap="round" stroke-miterlimit="10" stroke-dasharray="4,6" enable-background="new    " d="
		M269.999,5v69c0,5.523-4.478,10-10,10H198c-5.521,0-10,4.479-10,10v59c0,5.523-4.477,10-10,10h-28"/>
	<g opacity="0.2">
		<path stroke="#000000" stroke-width="2" stroke-linejoin="round" stroke-miterlimit="10" d="M311.246,80.406
			c4.555,6.514,7.504,16.943,7.504,28.699h6.473C325.223,95.281,319.279,83.67,311.246,80.406z"/>
		<path stroke="#000000" stroke-width="2" stroke-linejoin="round" stroke-miterlimit="10" d="M310.189,92.584
			c2.621,3.75,4.319,9.754,4.319,16.521h3.726C318.234,101.148,314.814,94.465,310.189,92.584z"/>
		<path stroke="#000000" stroke-width="2" stroke-linejoin="round" stroke-miterlimit="10" d="M324.961,109.105h4.57
			c0-7.347,1.631-13.959,4.234-18.57C328.641,93.209,324.961,100.512,324.961,109.105z"/>
		<path stroke="#000000" stroke-width="2" stroke-linejoin="round" stroke-miterlimit="10" d="M329.736,108.941
			c3.24-5.338,7.338-9.799,11.264-12.607c-4.148,0.736-9,4.104-12.691,8.902c0.547,1.133,1.008,2.369,1.383,3.69L329.736,108.941z"
			/>
		<path stroke="#000000" stroke-width="2" stroke-linejoin="round" stroke-miterlimit="10" d="M314.215,109.09
			c0.375-1.322,0.836-2.559,1.383-3.691c-3.69-4.799-8.543-8.164-12.69-8.899c3.926,2.808,8.022,7.269,11.262,12.604L314.215,109.09
			z"/>
	</g>
</g>
</svg>
