<?xml version="1.0" encoding="utf-8"?>
<!-- Generator: Adobe Illustrator 16.0.4, SVG Export Plug-In . SVG Version: 6.00 Build 0)  -->
<!DOCTYPE svg PUBLIC "-//W3C//DTD SVG 1.1//EN" "http://www.w3.org/Graphics/SVG/1.1/DTD/svg11.dtd">
<svg version="1.1" id="Layer_1" xmlns="http://www.w3.org/2000/svg" xmlns:xlink="http://www.w3.org/1999/xlink" x="0px" y="0px"
	 width="375px" height="170px" viewBox="0 0 375 170" enable-background="new 0 0 375 170" xml:space="preserve">
<ellipse fill="#232323" cx="105" cy="163.854" rx="38.078" ry="6.146"/>
<path opacity="0.3" fill="none" stroke="#FFFFFF" stroke-width="2" stroke-linecap="round" stroke-miterlimit="10" stroke-dasharray="4,6" enable-background="new    " d="
	M269.999,5v69c0,5.523-4.478,10-10,10H198c-5.521,0-10,4.479-10,10v59c0,5.523-4.478,10-10,10h-28"/>
<g>
	<g>
		<g>
			<defs>
				<path id="SVGID_1_" d="M143.078,93.658c0,3.395-17.049,6.146-38.079,6.146c-21.028,0-38.077-2.754-38.077-6.146v70.195
					c0,3.395,17.049,6.146,38.077,6.146c21.03,0,38.079-2.752,38.079-6.146V93.658z"/>
			</defs>
			<clipPath id="SVGID_2_">
				<use xlink:href="#SVGID_1_"  overflow="visible"/>
			</clipPath>
			<path clip-path="url(#SVGID_2_)" fill="#444444" d="M130.914,191.236c-1.062-9.939-5.187-22.066-13.037-26.445
				c-3.366-1.877-7.282-3.234-12.681-4.146c-1.283,0.213-2.477,0.451-3.605,0.715c-0.196,0.045-0.386,0.096-0.577,0.145
				c-0.335,0.082-0.665,0.166-0.987,0.254c-0.204,0.059-0.407,0.111-0.606,0.17c-0.324,0.096-0.642,0.189-0.954,0.289
				c-0.163,0.055-0.33,0.104-0.49,0.154c-0.45,0.148-0.89,0.305-1.317,0.465c-0.125,0.047-0.246,0.1-0.369,0.146
				c-0.321,0.125-0.639,0.252-0.948,0.386c-0.146,0.062-0.288,0.125-0.431,0.188c-0.296,0.131-0.586,0.266-0.872,0.402
				c-0.122,0.061-0.246,0.117-0.366,0.176c-0.397,0.199-0.789,0.4-1.171,0.611c-8.422,4.656-12.608,18.211-13.322,28.463
				c-0.063,1.492-0.093,2.922-0.09,4.268c0.006,3.467,0.219,6.35,0.632,8.092c0.02,0.082,0.056,0.158,0.079,0.238
				c2.095,9.537,12.63,16.807,25.333,16.828c14.226,0.025,25.773-9.039,25.795-20.248c0-0.104-0.008-0.203-0.01-0.309
				C131.141,199.184,131.146,195.369,130.914,191.236z"/>
		</g>
	</g>
	<g>
		<g>
			<defs>
				<path id="SVGID_3_" d="M143.078,93.658c0,3.395-17.049,6.146-38.079,6.146c-21.028,0-38.077-2.754-38.077-6.146v70.195
					c0,3.395,17.049,6.146,38.077,6.146c21.03,0,38.079-2.752,38.079-6.146V93.658z"/>
			</defs>
			<clipPath id="SVGID_4_">
				<use xlink:href="#SVGID_3_"  overflow="visible"/>
			</clipPath>
			<path clip-path="url(#SVGID_4_)" fill="#FFFFFF" d="M124.226,163.43c-3.252-3.715-7.477-5.541-15.803-5.906
				c-0.13-0.006-0.267-0.01-0.399-0.014c-0.419-0.018-0.845-0.031-1.285-0.039c-0.436-0.01-0.879-0.016-1.336-0.018
				c-0.053,0-0.1-0.002-0.153-0.002h-0.01c-0.017,0-0.032,0-0.049,0c-0.009,0-0.018,0-0.027,0h-0.008c-0.03,0-0.058,0-0.089,0
				c-0.482,0-0.95,0.006-1.409,0.014c-0.523,0.008-1.029,0.023-1.523,0.041c-0.048,0.002-0.098,0.004-0.146,0.006
				c-8.333,0.334-12.566,2.146-15.832,5.85c-4.319,4.898-6.522,18.93-6.978,29.848c0.714-10.252,4.9-23.807,13.322-28.463
				c3.372-1.863,7.293-3.209,12.695-4.102c5.398,0.912,9.314,2.271,12.681,4.146c8.404,4.689,12.539,18.256,13.217,28.512
				C130.678,182.383,128.525,168.346,124.226,163.43z"/>
		</g>
	</g>
	<g>
		<g>
			<defs>
				<path id="SVGID_5_" d="M143.078,93.658c0,3.395-17.049,6.146-38.079,6.146c-21.028,0-38.077-2.754-38.077-6.146v70.195
					c0,3.395,17.049,6.146,38.077,6.146c21.03,0,38.079-2.752,38.079-6.146V93.658z"/>
			</defs>
			<clipPath id="SVGID_6_">
				<use xlink:href="#SVGID_5_"  overflow="visible"/>
			</clipPath>
			<g clip-path="url(#SVGID_6_)">
				<path fill="#E6E7E8" d="M137.132,127.078c-5.189-16.135-21.779-18.428-31.584-18.445l-0.809-0.002
					c-9.806-0.02-26.403,2.213-31.652,18.328l32.083,16.635L137.132,127.078"/>
				<path fill="#444444" d="M123.75,120.93c-2.33-0.004-3.83,0.021-6.989,0.914c-2.698,0.766-7.457,2.562-11.532,2.555h-0.141
					c-4.075-0.008-8.83-1.82-11.524-2.596c-3.157-0.906-4.656-0.936-6.986-0.941c-8.85-0.016-10.026,6.57-10.026,6.57h-0.014
					c-4.465,16.293,3.17,16.137,3.17,16.137l50.81,0.096c0,0,7.622-0.293,3.098-16.625c-0.021-0.074-0.045-0.145-0.065-0.215
					C132.96,125.121,130.801,120.943,123.75,120.93z"/>
				<path fill="#444444" d="M104.953,165.891c-10.182-0.02-31.777-8.229-31.744-26.162c0.034-17.932,23.873-19.309,31.9-19.293
					c8.028,0.016,31.887,1.479,31.854,19.41C136.931,157.779,115.134,165.908,104.953,165.891z"/>
				<path fill="#7F7F7F" d="M105.018,157.576c-4.156-0.008-12.977-3.875-12.96-12.332c0.016-8.455,9.752-9.107,13.03-9.102
					c3.278,0.004,13.021,0.693,13.007,9.146C118.079,153.75,109.177,157.584,105.018,157.576z"/>
				<path fill="#232323" d="M105.282,138.361c1.807,0.004,4.475,1.895,4.785,4.096c0.31,2.199-4.915,2.111-4.915,2.111h-0.15
					c0,0-5.225,0.066-4.907-2.131c0.318-2.199,2.993-4.08,4.801-4.076H105.282z"/>
				<path fill="none" stroke="#7F7F7F" stroke-width="1.2571" stroke-linecap="round" stroke-miterlimit="10" d="M87.811,130.57
					c0.22-0.521,0.537-0.984,0.93-1.375c0.392-0.395,0.858-0.707,1.377-0.924c0.518-0.221,1.088-0.34,1.687-0.338
					c0.598,0,1.168,0.123,1.686,0.344"/>
				<path fill="none" stroke="#7F7F7F" stroke-width="1.2571" stroke-linecap="round" stroke-miterlimit="10" d="M122.396,130.822
					c-0.219-0.518-0.535-0.986-0.925-1.377c-0.392-0.395-0.858-0.711-1.375-0.93c-0.518-0.223-1.087-0.344-1.685-0.346
					c-0.598,0-1.168,0.119-1.686,0.336"/>
				<g>
					<circle fill="#232323" cx="91.768" cy="131.927" r="1.597"/>
					<circle fill="#232323" cx="118.433" cy="131.978" r="1.597"/>
				</g>
				<path fill="#444444" d="M79.356,137.518c0.177,6.279-1.677,11.426-4.139,11.496c-2.462,0.068-4.601-4.969-4.775-11.244
					c-0.178-6.279,1.678-11.426,4.135-11.496C77.04,126.203,79.179,131.238,79.356,137.518z"/>
				
					<ellipse transform="matrix(0.9995 0.032 -0.032 0.9995 4.4748 -4.2561)" fill="#444444" cx="135.281" cy="137.752" rx="4.458" ry="11.375"/>
				<path fill="#232323" d="M133.712,130.678c2.026,0.078,3.667,3.902,4.286,9.303c0.072-0.678,0.124-1.385,0.143-2.113
					c0.132-4.936-1.063-8.982-2.668-9.047c-0.683-0.023-1.327,0.68-1.856,1.869C133.647,130.689,133.68,130.676,133.712,130.678z"/>
				<path fill="#232323" d="M76.494,130.572c-2.026,0.072-3.682,3.891-4.32,9.287c-0.07-0.68-0.118-1.385-0.136-2.117
					c-0.112-4.934,1.099-8.979,2.702-9.033c0.681-0.023,1.325,0.684,1.85,1.875C76.558,130.584,76.526,130.572,76.494,130.572z"/>
				<path fill="#FFFFFF" d="M105.048,124.645c-4.598-0.008-9.961-1.818-13.001-2.596c-3.562-0.908-5.253-0.938-7.882-0.943
					c-7.954-0.014-10.406,4.154-11.078,5.854c5.249-16.114,21.847-18.349,31.652-18.328l0.809,0.002
					c9.805,0.019,26.395,2.312,31.584,18.445c-0.664-1.703-3.102-5.881-11.056-5.896c-2.628-0.005-4.321,0.02-7.885,0.914
					c-3.044,0.764-8.413,2.559-13.012,2.549h-0.131V124.645z"/>
				<path fill="none" stroke="#232323" stroke-width="1.1389" stroke-linecap="round" stroke-miterlimit="10" d="M111.45,148.941
					c-0.352,0.828-0.86,1.574-1.487,2.199c-0.628,0.627-1.374,1.131-2.204,1.479c-0.83,0.352-1.74,0.543-2.697,0.541
					c-0.956-0.002-1.868-0.197-2.694-0.549c-0.827-0.354-1.574-0.859-2.199-1.488s-1.131-1.377-1.479-2.205"/>
			</g>
		</g>
	</g>
</g>
<path opacity="0.2" enable-background="new    " d="M342.421,95.945c-0.182-0.432-0.644-0.68-1.097-0.596
	c-3.046,0.539-6.42,2.403-9.468,5.133c0.693-3.574,1.8-6.836,3.276-9.457c0.218-0.385,0.155-0.867-0.151-1.187
	c-0.31-0.317-0.789-0.396-1.183-0.19c-3.559,1.857-6.368,5.709-7.941,10.513c-1.943-9.978-7.048-17.964-13.736-20.681
	c-0.407-0.167-0.881-0.043-1.158,0.303c-0.275,0.347-0.291,0.833-0.037,1.197c3.02,4.317,5.229,10.353,6.395,17.122
	c-1.529-3.086-3.699-5.403-6.255-6.443c-0.411-0.162-0.883-0.044-1.158,0.303c-0.276,0.348-0.292,0.834-0.038,1.197
	c1.363,1.949,2.427,4.533,3.14,7.447c-3.036-2.705-6.393-4.553-9.424-5.09c-0.462-0.082-0.915,0.166-1.097,0.598
	c-0.182,0.431-0.04,0.929,0.34,1.201c3.95,2.826,7.955,7.312,10.989,12.31c0.183,0.301,0.532,0.469,0.883,0.469
	c0.047,0,0.093-0.015,0.14-0.021c0.058,0.01,0.109,0.033,0.169,0.033h3.727c0.091,0,0.175-0.027,0.261-0.051
	c0.084,0.021,0.166,0.051,0.257,0.051h6.209h0.264h4.307c0.283,0,0.536-0.119,0.718-0.308c0.137-0.082,0.258-0.194,0.345-0.338
	c3.028-4.994,7.034-9.481,10.989-12.312C342.461,96.875,342.602,96.377,342.421,95.945z"/>
</svg>
