<?xml version="1.0" encoding="utf-8"?>
<!-- Generator: Adobe Illustrator 16.0.4, SVG Export Plug-In . SVG Version: 6.00 Build 0)  -->
<!DOCTYPE svg PUBLIC "-//W3C//DTD SVG 1.1//EN" "http://www.w3.org/Graphics/SVG/1.1/DTD/svg11.dtd">
<svg version="1.1" id="Layer_1" xmlns="http://www.w3.org/2000/svg" xmlns:xlink="http://www.w3.org/1999/xlink" x="0px" y="0px"
	 width="375px" height="170px" viewBox="0 0 375 170" enable-background="new 0 0 375 170" xml:space="preserve">
<g>
	<g>
		<path fill="#232323" d="M34.377,164c-3.3,0-4.649-2.338-3-5.195L42.696,139.2c1.649-2.858,4.351-2.858,6,0l11.319,19.604
			c1.649,2.857,0.3,5.195-3,5.195H34.377z"/>
	</g>
	<g>
		<path fill="#232323" d="M25.204,164c-2.313,0-3.255-1.637-2.103-3.637l7.925-13.729c1.155-2,3.048-2,4.2,0l7.925,13.729
			c1.153,2,0.209,3.637-2.103,3.637H25.204z"/>
	</g>
</g>
<path opacity="0.2" d="M335.691,41.994c-0.122-0.291-0.428-0.455-0.74-0.403c-2.059,0.366-4.332,1.641-6.391,3.485
	c0.468-2.42,1.215-4.63,2.215-6.403c0.146-0.26,0.104-0.586-0.103-0.801c-0.208-0.215-0.531-0.267-0.798-0.129
	c-2.403,1.253-4.3,3.855-5.362,7.099c-1.31-6.734-4.753-12.125-9.267-13.96c-0.274-0.112-0.595-0.029-0.781,0.204
	c-0.187,0.234-0.197,0.562-0.025,0.808c2.036,2.913,3.527,6.984,4.312,11.552c-1.032-2.081-2.496-3.644-4.221-4.344
	c-0.275-0.113-0.595-0.029-0.781,0.205s-0.197,0.562-0.025,0.807c0.924,1.321,1.645,3.073,2.125,5.051
	c-2.054-1.834-4.318-3.1-6.368-3.462c-0.305-0.052-0.617,0.112-0.739,0.403c-0.122,0.291-0.026,0.627,0.229,0.811
	c2.663,1.902,5.366,4.93,7.416,8.307c0.124,0.204,0.357,0.316,0.594,0.316c0.029,0,0.058-0.011,0.087-0.015
	c0.042,0.008,0.08,0.025,0.125,0.025h2.514c0.062,0,0.117-0.02,0.174-0.035c0.058,0.016,0.113,0.035,0.175,0.035h4.191h0.174h2.91
	c0.2,0,0.375-0.091,0.499-0.23c0.082-0.054,0.16-0.117,0.214-0.206c2.048-3.374,4.751-6.402,7.418-8.31
	C335.719,42.621,335.813,42.285,335.691,41.994z"/>
<ellipse fill="#232323" cx="105.001" cy="163.854" rx="38.078" ry="6.146"/>
<g>
	<g>
		<g>
			<g>
				<g>
					<defs>
						<path id="SVGID_1_" d="M66.923,163.854c0,3.395,17.05,6.146,38.078,6.146s38.078-2.751,38.078-6.146V93.656
							c0,3.394-17.05,6.146-38.078,6.146s-38.078-2.751-38.078-6.146V163.854z"/>
					</defs>
					<clipPath id="SVGID_2_">
						<use xlink:href="#SVGID_1_"  overflow="visible"/>
					</clipPath>
					<path clip-path="url(#SVGID_2_)" fill="#444444" d="M79.077,202.078c-0.002,0.105-0.011,0.205-0.011,0.309
						c0.022,11.209,11.57,20.273,25.795,20.248c12.703-0.021,23.238-7.291,25.332-16.828c0.024-0.08,0.059-0.158,0.08-0.238
						c0.414-1.74,0.627-4.625,0.631-8.094c0.005-1.344-0.026-2.772-0.088-4.266c-0.715-10.254-4.901-23.807-13.323-28.463
						c-0.382-0.211-0.772-0.414-1.17-0.611c-0.121-0.061-0.244-0.115-0.365-0.176c-0.287-0.136-0.578-0.271-0.873-0.402
						c-0.144-0.062-0.284-0.127-0.43-0.188c-0.31-0.133-0.628-0.262-0.949-0.387c-0.123-0.045-0.244-0.099-0.369-0.146
						c-0.425-0.162-0.866-0.319-1.315-0.465c-0.158-0.05-0.328-0.101-0.488-0.154c-0.312-0.1-0.633-0.194-0.955-0.288
						c-0.199-0.06-0.4-0.113-0.604-0.171c-0.322-0.088-0.651-0.172-0.988-0.256c-0.19-0.047-0.381-0.099-0.575-0.144
						c-1.126-0.264-2.324-0.504-3.604-0.715c-5.399,0.91-9.315,2.27-12.683,4.146c-7.849,4.379-11.976,16.506-13.037,26.444
						C78.854,195.369,78.859,199.184,79.077,202.078z"/>
				</g>
			</g>
		</g>
	</g>
	<g>
		<g>
			<g>
				<g>
					<defs>
						<path id="SVGID_3_" d="M66.923,163.854c0,3.395,17.05,6.146,38.078,6.146s38.078-2.751,38.078-6.146V93.656
							c0,3.394-17.05,6.146-38.078,6.146s-38.078-2.751-38.078-6.146V163.854z"/>
					</defs>
					<clipPath id="SVGID_4_">
						<use xlink:href="#SVGID_3_"  overflow="visible"/>
					</clipPath>
					<path clip-path="url(#SVGID_4_)" fill="#FFFFFF" d="M78.904,193.303c0.679-10.256,4.813-23.824,13.218-28.512
						c3.37-1.875,7.286-3.236,12.683-4.146c5.399,0.895,9.321,2.239,12.692,4.104c8.422,4.654,12.608,18.209,13.323,28.463
						c-0.457-10.918-2.659-24.95-6.979-29.852c-3.266-3.7-7.498-5.516-15.832-5.848c-0.045-0.002-0.096-0.004-0.146-0.006
						c-0.494-0.018-0.998-0.033-1.521-0.041c-0.459-0.008-0.928-0.014-1.408-0.014c-0.031,0-0.061,0-0.092,0h-0.008
						c-0.005,0-0.016,0-0.025,0c-0.018,0-0.031,0-0.049,0h-0.01c-0.052,0-0.1,0.002-0.152,0.002c-0.457,0.002-0.9,0.008-1.338,0.016
						c-0.438,0.01-0.863,0.023-1.283,0.039c-0.131,0.006-0.269,0.01-0.399,0.016c-8.324,0.365-12.552,2.191-15.802,5.906
						C81.477,168.346,79.323,182.383,78.904,193.303z"/>
				</g>
			</g>
		</g>
	</g>
	<g>
		<g>
			<g>
				<g>
					<defs>
						<path id="SVGID_5_" d="M66.923,163.854c0,3.395,17.05,6.146,38.078,6.146s38.078-2.751,38.078-6.146V93.656
							c0,3.394-17.05,6.146-38.078,6.146s-38.078-2.751-38.078-6.146V163.854z"/>
					</defs>
					<clipPath id="SVGID_6_">
						<use xlink:href="#SVGID_5_"  overflow="visible"/>
					</clipPath>
					<g clip-path="url(#SVGID_6_)">
						<path fill="#E6E7E8" d="M72.868,127.078l31.963,16.516l32.084-16.635c-5.25-16.115-21.847-18.348-31.651-18.328l-0.81,0.002
							C94.648,108.65,78.059,110.943,72.868,127.078"/>
						<path fill="#444444" d="M76.445,126.825c-0.018,0.069-0.043,0.141-0.063,0.215c-4.524,16.332,3.097,16.625,3.097,16.625
							l50.812-0.097c0,0,7.635,0.156,3.17-16.137h-0.016c0,0-1.172-6.587-10.025-6.57c-2.328,0.004-3.828,0.035-6.982,0.94
							c-2.694,0.776-7.449,2.589-11.524,2.595h-0.142c-4.073,0.009-8.834-1.787-11.53-2.554c-3.16-0.893-4.66-0.918-6.99-0.913
							C79.2,120.943,77.042,125.121,76.445,126.825z"/>
						<path fill="#444444" d="M73.039,139.846c-0.034-17.931,23.828-19.394,31.854-19.41c8.026-0.016,31.866,1.361,31.899,19.293
							c0.033,17.935-21.562,26.144-31.744,26.162C94.868,165.908,73.07,157.779,73.039,139.846z"/>
						<path fill="#7F7F7F" d="M91.907,145.288c-0.015-8.453,9.729-9.142,13.006-9.146c3.278-0.007,13.011,0.646,13.03,9.102
							c0.017,8.457-8.805,12.324-12.961,12.332C100.825,157.584,91.923,153.748,91.907,145.288z"/>
						<path fill="#232323" d="M105.105,138.361c1.808-0.004,4.483,1.877,4.799,4.074c0.32,2.197-4.905,2.133-4.905,2.133h-0.149
							c0,0-5.226,0.088-4.914-2.113c0.31-2.199,2.976-4.09,4.785-4.094H105.105z"/>
						<path fill="none" stroke="#7F7F7F" stroke-width="1.2571" stroke-linecap="round" stroke-miterlimit="10" d="M116.508,128.277
							c0.518-0.221,1.086-0.344,1.686-0.346c0.6,0,1.168,0.115,1.688,0.338c0.52,0.217,0.984,0.529,1.377,0.924
							c0.395,0.391,0.713,0.854,0.932,1.377"/>
						<path fill="none" stroke="#7F7F7F" stroke-width="1.2571" stroke-linecap="round" stroke-miterlimit="10" d="M93.279,128.505
							c-0.521-0.217-1.088-0.336-1.688-0.336c-0.598,0.002-1.168,0.123-1.688,0.347c-0.516,0.219-0.979,0.534-1.373,0.93
							c-0.391,0.392-0.704,0.859-0.926,1.378"/>
						<g>
							<circle fill="#232323" cx="118.232" cy="131.927" r="1.598"/>
							<circle fill="#232323" cx="91.568" cy="131.977" r="1.597"/>
						</g>
						<path fill="#444444" d="M135.423,126.271c2.457,0.071,4.312,5.22,4.138,11.496c-0.176,6.276-2.314,11.312-4.775,11.246
							c-2.463-0.07-4.319-5.218-4.139-11.498C130.82,131.238,132.962,126.203,135.423,126.271z"/>
						<path fill="#444444" d="M74.359,126.382c-2.461,0.08-4.295,5.233-4.094,11.515c0.196,6.275,2.354,11.304,4.813,11.228
							c2.465-0.078,4.297-5.231,4.098-11.513C78.979,131.334,76.82,126.305,74.359,126.382z"/>
						<path fill="#232323" d="M76.381,130.689c-0.525-1.188-1.171-1.895-1.854-1.869c-1.605,0.064-2.799,4.111-2.668,9.048
							c0.021,0.728,0.072,1.435,0.144,2.112c0.619-5.4,2.261-9.226,4.285-9.304C76.32,130.676,76.354,130.689,76.381,130.689z"/>
						<path fill="#232323" d="M133.411,130.584c0.526-1.191,1.168-1.898,1.851-1.877c1.602,0.057,2.813,4.102,2.7,9.035
							c-0.017,0.732-0.065,1.438-0.135,2.117c-0.638-5.396-2.293-9.215-4.32-9.287C133.475,130.572,133.443,130.584,133.411,130.584
							z"/>
						<path fill="#FFFFFF" d="M104.954,124.645l0.002,0.002h-0.132c-4.602,0.009-9.969-1.785-13.014-2.549
							c-3.563-0.895-5.258-0.918-7.886-0.914c-7.952,0.016-10.391,4.192-11.057,5.896c5.19-16.135,21.78-18.428,31.586-18.445
							l0.81-0.002c9.803-0.021,26.401,2.215,31.651,18.328c-0.672-1.702-3.125-5.87-11.078-5.854
							c-2.629,0.006-4.321,0.035-7.883,0.94C114.915,122.825,109.552,124.637,104.954,124.645L104.954,124.645z"/>
						<path fill="none" stroke="#232323" stroke-width="1.1389" stroke-linecap="round" stroke-miterlimit="10" d="M111.309,148.918
							c-0.348,0.828-0.854,1.576-1.479,2.205s-1.373,1.132-2.199,1.486c-0.824,0.354-1.736,0.547-2.691,0.549
							c-0.957,0.002-1.867-0.189-2.696-0.539c-0.83-0.35-1.576-0.854-2.205-1.479c-0.627-0.625-1.134-1.371-1.486-2.199"/>
					</g>
				</g>
			</g>
		</g>
	</g>
</g>
</svg>
