<?xml version="1.0" encoding="utf-8"?>
<!-- Generator: Adobe Illustrator 16.0.4, SVG Export Plug-In . SVG Version: 6.00 Build 0)  -->
<!DOCTYPE svg PUBLIC "-//W3C//DTD SVG 1.1//EN" "http://www.w3.org/Graphics/SVG/1.1/DTD/svg11.dtd">
<svg version="1.1" id="Layer_1" xmlns="http://www.w3.org/2000/svg" xmlns:xlink="http://www.w3.org/1999/xlink" x="0px" y="0px"
	 width="375px" height="170px" viewBox="0 0 375 170" enable-background="new 0 0 375 170" xml:space="preserve">
<g>
	<g>
		<path fill="#232323" d="M27,164c-3.3,0-4.65-2.338-3-5.195l11.32-19.606c1.65-2.858,4.35-2.858,6,0l11.32,19.606
			c1.65,2.857,0.3,5.195-3,5.195H27z"/>
	</g>
	<g>
		<path fill="#232323" d="M42.966,164c-2.31,0-3.255-1.637-2.1-3.637l7.924-13.728c1.155-2,3.045-2,4.2,0l7.925,13.728
			c1.155,2,0.21,3.637-2.1,3.637H42.966z"/>
	</g>
</g>
<ellipse fill="#232323" cx="105" cy="163.854" rx="38.078" ry="6.146"/>
<path opacity="0.3" fill="none" stroke="#FFFFFF" stroke-width="2" stroke-linecap="round" stroke-miterlimit="10" stroke-dasharray="4,6" enable-background="new    " d="
	M269.999,5v69c0,5.523-4.478,10-10,10H198c-5.521,0-10,4.479-10,10v59c0,5.523-4.477,10-10,10h-28"/>
<path opacity="0.2" enable-background="new    " d="M342.421,95.945c-0.182-0.432-0.644-0.68-1.097-0.596
	c-3.046,0.539-6.42,2.403-9.468,5.133c0.693-3.574,1.8-6.836,3.276-9.457c0.218-0.385,0.155-0.867-0.151-1.187
	c-0.31-0.317-0.789-0.396-1.183-0.19c-3.559,1.857-6.368,5.709-7.941,10.513c-1.943-9.978-7.048-17.964-13.736-20.681
	c-0.407-0.167-0.881-0.043-1.158,0.303c-0.275,0.347-0.291,0.833-0.037,1.197c3.02,4.317,5.229,10.353,6.395,17.122
	c-1.529-3.086-3.699-5.403-6.255-6.443c-0.411-0.162-0.883-0.044-1.158,0.303c-0.276,0.348-0.292,0.834-0.038,1.197
	c1.363,1.949,2.427,4.533,3.14,7.447c-3.036-2.705-6.393-4.553-9.424-5.09c-0.462-0.082-0.915,0.166-1.097,0.598
	c-0.182,0.431-0.04,0.929,0.34,1.201c3.95,2.826,7.955,7.312,10.989,12.31c0.183,0.301,0.532,0.469,0.883,0.469
	c0.047,0,0.093-0.015,0.14-0.021c0.058,0.01,0.109,0.033,0.169,0.033h3.727c0.091,0,0.175-0.027,0.261-0.051
	c0.084,0.021,0.166,0.051,0.257,0.051h6.209h0.264h4.307c0.283,0,0.536-0.119,0.718-0.308c0.137-0.082,0.258-0.194,0.345-0.338
	c3.028-4.994,7.034-9.481,10.989-12.312C342.461,96.875,342.602,96.377,342.421,95.945z"/>
</svg>
