<?xml version="1.0" encoding="utf-8"?>
<!-- Generator: Adobe Illustrator 16.0.4, SVG Export Plug-In . SVG Version: 6.00 Build 0)  -->
<!DOCTYPE svg PUBLIC "-//W3C//DTD SVG 1.1//EN" "http://www.w3.org/Graphics/SVG/1.1/DTD/svg11.dtd">
<svg version="1.1" id="Layer_1" xmlns="http://www.w3.org/2000/svg" xmlns:xlink="http://www.w3.org/1999/xlink" x="0px" y="0px"
	 width="375px" height="170px" viewBox="0 0 375 170" enable-background="new 0 0 375 170" xml:space="preserve">
<ellipse fill="#232323" cx="105.5" cy="163.854" rx="38.078" ry="6.146"/>
<path opacity="0.3" fill="none" stroke="#FFFFFF" stroke-width="2" stroke-linecap="round" stroke-miterlimit="10" stroke-dasharray="4,6" enable-background="new    " d="
	M270.499,5v69c0,5.523-4.478,10-10,10H198.5c-5.521,0-10,4.479-10,10v59c0,5.523-4.478,10-10,10h-28"/>
<path opacity="0.2" d="M342.421,95.946c-0.182-0.432-0.644-0.68-1.097-0.597c-3.046,0.54-6.42,2.404-9.468,5.133
	c0.694-3.574,1.8-6.836,3.277-9.456c0.218-0.386,0.155-0.868-0.152-1.187c-0.309-0.318-0.789-0.396-1.182-0.191
	c-3.559,1.858-6.368,5.71-7.942,10.513c-1.943-9.978-7.047-17.964-13.736-20.681c-0.407-0.167-0.881-0.043-1.158,0.303
	c-0.276,0.347-0.291,0.833-0.037,1.197c3.019,4.317,5.229,10.353,6.394,17.122c-1.529-3.086-3.699-5.404-6.255-6.444
	c-0.411-0.162-0.882-0.044-1.158,0.303s-0.292,0.834-0.038,1.197c1.363,1.95,2.427,4.533,3.14,7.448
	c-3.036-2.706-6.393-4.553-9.424-5.09c-0.462-0.083-0.915,0.166-1.097,0.597c-0.181,0.431-0.04,0.929,0.34,1.201
	c3.95,2.827,7.955,7.313,10.989,12.31c0.183,0.301,0.532,0.469,0.883,0.469c0.047,0,0.093-0.015,0.14-0.021
	c0.057,0.01,0.109,0.034,0.169,0.034h3.726c0.091,0,0.175-0.028,0.261-0.052c0.084,0.022,0.166,0.052,0.257,0.052h6.209h0.263h4.307
	c0.283,0,0.536-0.119,0.718-0.308c0.137-0.082,0.258-0.194,0.345-0.338c3.028-4.994,7.034-9.481,10.989-12.312
	C342.461,96.875,342.602,96.377,342.421,95.946z"/>
</svg>
