<?xml version="1.0" encoding="utf-8"?>
<!-- Generator: Adobe Illustrator 16.0.4, SVG Export Plug-In . SVG Version: 6.00 Build 0)  -->
<!DOCTYPE svg PUBLIC "-//W3C//DTD SVG 1.1//EN" "http://www.w3.org/Graphics/SVG/1.1/DTD/svg11.dtd">
<svg version="1.1" id="Layer_1" xmlns="http://www.w3.org/2000/svg" xmlns:xlink="http://www.w3.org/1999/xlink" x="0px" y="0px"
	 width="375px" height="235px" viewBox="0 0 375 235" enable-background="new 0 0 375 235" xml:space="preserve">
<g>
	<ellipse opacity="0.2" fill="#232323" enable-background="new    " cx="280.904" cy="169.077" rx="36.693" ry="5.923"/>
	<path fill="#232323" d="M289.171,96.885c-2.387,0.248-4.286,2.115-4.062,4.733c0.215,2.604,3.291,5.085,6.621,4.762
		c9.48-0.91,17.362-6.234,21.742-14.691c1.538-2.972,0.387-6.752-1.947-7.921c-2.349-1.183-4.789-0.12-5.91,2.003
		C302.302,92.166,296.341,96.197,289.171,96.885z"/>
	<path fill="#232323" d="M315.027,82.435c0.449-0.525,0.656-1.235,0.351-1.649c-0.304-0.414-1.174-0.377-1.853,0.188
		c-1.838,1.53-3.176,3.643-3.768,6.049c-0.217,0.897,0.49,1.628,1.428,1.604c0.943-0.025,1.662-0.53,1.715-1.156
		C313.036,85.684,313.753,83.902,315.027,82.435z"/>
	<path fill="#232323" d="M317.491,85.698c0.64-0.26,1.147-0.8,1.062-1.308c-0.082-0.504-0.871-0.87-1.732-0.675
		c-2.336,0.526-4.487,1.795-6.108,3.67c-0.603,0.698-0.308,1.67,0.541,2.077c0.851,0.41,1.724,0.287,2.05-0.248
		C314.241,87.686,315.688,86.427,317.491,85.698z"/>
	<path fill="#232323" d="M258.218,131.648c0.138,1.082,3.722,31.69,8.937,35.981c5.213,4.29,7.951,2.845,9.011,1.705
		c1.108-1.192,2.512-3.34-0.086-5.761c-2.086-1.947-3.554-10.57-1.472-24.028L258.218,131.648z"/>
	<path fill="#232323" d="M278.126,129.739c0.138,1.083,3.722,31.69,8.937,35.981c5.215,4.289,7.951,2.844,9.012,1.704
		c1.109-1.192,2.51-3.34-0.086-5.761c-2.086-1.948-3.555-10.57-1.473-24.028L278.126,129.739z"/>
	<path fill="#FFFFFF" d="M262.391,85.418c6.024-3.344,13.662-5.139,27.76-5.69c-3.361-1.421-7.81-2.083-14.318-2.083h-0.01
		c-11.141,0-16.295,1.901-20.172,6.315c-4.582,5.214-6.895,20.124-7.357,31.726C249.032,104.79,253.454,90.383,262.391,85.418z"/>
	<path fill="#444444" d="M248.292,115.685c-0.108,1.602-0.134,3.122-0.086,4.53C248.2,118.788,248.229,117.269,248.292,115.685z"/>
	<path fill="#444444" d="M238.543,134.381c-1.591,1.131-3.646,1.521-4.73,0.555c-1.08-0.957-0.754-3.398,1.016-5.154
		c4.787-4.771,11.074-7.983,17.996-9.016c2.578-0.377,4.449,1.799,4.134,4.434c-0.312,2.646-1.923,4.537-3.69,4.516
		C248.204,129.636,243.005,131.182,238.543,134.381z"/>
	<path fill="#444444" d="M296.004,83.959c-1.415-1.611-3.006-2.885-4.99-3.856c-0.275-0.135-0.572-0.254-0.863-0.376
		c-2.271,0.089-4.357,0.213-6.312,0.368c-4.799,0.169-8.561,0.707-11.611,1.663c-3.934,0.913-7.061,2.12-9.834,3.66
		c-8.938,4.965-13.358,19.372-14.1,30.267c-0.062,1.583-0.092,3.103-0.086,4.53c0.012,3.686,0.246,6.747,0.688,8.598
		c0.479,2,2.392,3.707,5.398,5.056c4.795,2.147,12.391,3.375,21.529,3.375h0.01c0.857,0,1.697-0.013,2.525-0.034
		c0.256-0.007,0.506-0.018,0.76-0.025c0.574-0.02,1.143-0.043,1.701-0.074c0.279-0.014,0.555-0.029,0.83-0.047
		c0.541-0.033,1.074-0.073,1.602-0.117c0.247-0.02,0.496-0.039,0.741-0.062c0.642-0.059,1.268-0.125,1.884-0.198
		c0.107-0.014,0.221-0.023,0.328-0.037c0.727-0.09,1.432-0.191,2.117-0.301c0.166-0.027,0.326-0.058,0.49-0.084
		c0.514-0.088,1.018-0.178,1.508-0.275c0.207-0.04,0.41-0.084,0.613-0.127c0.441-0.094,0.875-0.192,1.297-0.295
		c0.19-0.047,0.385-0.092,0.571-0.141c0.457-0.119,0.898-0.244,1.328-0.373c0.101-0.029,0.207-0.055,0.306-0.085
		c-0.004,0-0.009,0-0.013,0c2.94-0.911,5.228-2.073,6.672-3.452c0.017-0.016,0.025-0.031,0.04-0.045
		c0.271-0.262,0.518-0.529,0.727-0.807c0.082-0.107,0.133-0.223,0.205-0.331c0.125-0.188,0.258-0.375,0.353-0.569
		c0.151-0.308,0.267-0.625,0.344-0.949C304.626,120.994,302.823,91.724,296.004,83.959z"/>
	<ellipse fill="#444444" cx="275.926" cy="125.333" rx="27.366" ry="21.563"/>
	<g>
		<path fill="#232323" d="M278.939,166.354c0.654,0.187,1.375,0.076,1.619-0.365s-0.146-1.205-0.932-1.577
			c-2.127-1.013-4.564-1.339-6.958-0.875c-0.892,0.176-1.253,1.106-0.844,1.937c0.409,0.834,1.157,1.269,1.735,1.057
			C275.217,165.916,277.104,165.82,278.939,166.354z"/>
		<path fill="#232323" d="M277.922,170.162c0.576,0.361,1.299,0.456,1.655,0.097c0.358-0.354,0.194-1.198-0.457-1.772
			c-1.763-1.562-4.015-2.551-6.44-2.771c-0.906-0.077-1.513,0.718-1.351,1.627c0.162,0.913,0.761,1.54,1.377,1.495
			C274.465,168.708,276.305,169.139,277.922,170.162z"/>
		<path fill="#232323" d="M275.109,173.042c0.349,0.583,0.949,0.998,1.431,0.841c0.479-0.154,0.717-0.979,0.399-1.787
			c-0.856-2.193-2.412-4.1-4.475-5.398c-0.77-0.483-1.672-0.053-1.939,0.832c-0.272,0.888-0.024,1.719,0.543,1.959
			C272.693,170.174,274.135,171.396,275.109,173.042z"/>
	</g>
	<g>
		<path fill="#232323" d="M299.748,164.091c0.652,0.187,1.374,0.076,1.619-0.366c0.242-0.44-0.146-1.205-0.932-1.576
			c-2.127-1.014-4.565-1.34-6.959-0.875c-0.892,0.176-1.254,1.107-0.844,1.936c0.408,0.835,1.156,1.27,1.734,1.057
			C296.023,163.652,297.911,163.557,299.748,164.091z"/>
		<path fill="#232323" d="M298.729,167.898c0.576,0.361,1.299,0.457,1.655,0.098c0.358-0.355,0.194-1.198-0.457-1.773
			c-1.763-1.562-4.014-2.552-6.442-2.771c-0.903-0.078-1.51,0.718-1.348,1.627c0.161,0.913,0.76,1.539,1.377,1.495
			C295.271,166.443,297.111,166.876,298.729,167.898z"/>
		<path fill="#232323" d="M295.917,170.779c0.349,0.582,0.949,0.998,1.431,0.841c0.479-0.154,0.717-0.979,0.399-1.787
			c-0.856-2.192-2.411-4.101-4.476-5.399c-0.769-0.482-1.672-0.052-1.938,0.834c-0.272,0.887-0.024,1.717,0.543,1.959
			C293.501,167.911,294.941,169.133,295.917,170.779z"/>
	</g>
	<g>
		<path fill="#232323" d="M268.202,94.799c-1.535-1.843-4.146-2.377-6.192-0.733c-2.042,1.63-2.387,5.567-0.26,8.154
			c6.04,7.361,14.854,10.935,24.316,9.855c3.324-0.379,5.82-3.442,5.488-6.033c-0.326-2.608-2.572-4.042-4.957-3.789
			C279.439,103.07,272.773,100.369,268.202,94.799z"/>
		<g>
			<path fill="#232323" d="M293.948,104.221c0.637-0.119,1.202-0.521,1.223-1s-0.637-0.964-1.463-0.946
				c-2.242,0.042-4.457,0.802-6.299,2.216c-0.685,0.528-0.597,1.476,0.104,2.008c0.703,0.536,1.525,0.586,1.928,0.16
				C290.591,105.433,292.157,104.547,293.948,104.221z"/>
			<path fill="#232323" d="M294.702,107.898c0.646,0.062,1.3-0.165,1.45-0.623c0.154-0.456-0.346-1.103-1.145-1.315
				c-2.164-0.581-4.504-0.465-6.664,0.384c-0.805,0.318-0.982,1.252-0.457,1.958c0.527,0.708,1.305,0.986,1.809,0.688
				C291.139,108.129,292.891,107.715,294.702,107.898z"/>
			<path fill="#232323" d="M293.534,111.548c0.545,0.349,1.231,0.444,1.575,0.107c0.343-0.335,0.193-1.138-0.422-1.693
				c-1.662-1.502-3.799-2.464-6.106-2.693c-0.86-0.084-1.445,0.668-1.298,1.536c0.146,0.871,0.71,1.474,1.296,1.436
				C290.255,110.132,292.001,110.56,293.534,111.548z"/>
		</g>
	</g>
	<g>
		<g>
			<path fill="#7F7F7F" d="M215.252,52.023l14.158,5.328c1.783,0.673,3.804-0.242,4.477-2.028l3.032-8.25l-0.128-0.048
				c-3.316-1.249-4.945-4.847-3.698-8.164c0.624-1.658,1.75-2.909,3.33-3.625c1.492-0.676,3.263-0.738,4.92-0.114l0.041,0.088
				l3.032-8.251c0.335-0.893,0.329-1.842-0.027-2.631c-0.359-0.791-1.107-1.509-1.961-1.757l-14.158-5.329
				c-4.679-1.688-9.639-1.662-14.203,0.406c-4.563,2.068-7.98,5.732-9.67,10.411C200.835,37.714,205.688,48.423,215.252,52.023z"/>
			<path fill="#444444" d="M235.469,36.002c-0.894-0.336-1.841-0.329-2.632,0.029c-0.789,0.358-1.42,1.066-1.757,1.959
				c-0.671,1.786,0.242,3.804,2.027,4.477l76.841,28.324c-0.474,2.224-0.691,4.545-0.392,6.842l0.314,3.031
				c0.166,1.3,0.986,2.41,2.222,2.802l12.243,4.609c1.786,0.672,3.805-0.243,4.479-2.028l7.736-20.75
				c0.672-1.786-0.242-3.805-2.029-4.477l-12.244-4.609c-0.893-0.335-1.84-0.329-2.631,0.029c-0.352,0.159-0.573,0.366-0.887,0.613
				l-2.322,2.111c-1.74,1.529-3.02,3.378-4.219,5.402L235.469,36.002z M321.111,64.146l0.761-0.661l7.142,2.688l-5.375,14.285
				l-7.104-2.601l-0.136-0.997C315.721,72.091,317.584,67.332,321.111,64.146z"/>
		</g>
	</g>
	<g>
		<path fill="#FFFFFF" d="M258.441,63.759c-1.791-9.908,5.175-15.699,22.426-16.734c5.476-0.328,10.535-6.758,14.49-7.934
			c11.377-3.385,14.078,4.027,14.078,4.027l0.023,0.002c-5.604-12.816-21.592-20.316-38.547-17.18
			c-19.244,3.562-32.436,19.475-29.461,35.543c2.972,16.069,20.982,26.208,40.227,22.646c1.678-0.31,3.305-0.719,4.883-1.209
			l-0.002-0.02C269.827,87.212,260.816,76.908,258.441,63.759z"/>
		<path fill="#444444" d="M311.143,48.588c-0.354-1.912-0.927-3.737-1.683-5.469l-0.022-0.002c0,0-2.703-7.412-14.08-4.027
			c-3.953,1.176-9.015,7.606-14.489,7.934c-17.251,1.035-24.216,6.827-22.425,16.734c2.375,13.149,11.385,23.453,28.117,19.141
			l0.002,0.02C303.098,77.789,313.855,63.256,311.143,48.588z"/>
		<path fill="#7F7F7F" d="M293.227,76.394c-3.664,0.827-11.461-1.023-11.492-8.938c-0.03-7.913,8.552-10.479,11.44-11.129
			c2.892-0.652,11.485-1.961,11.517,5.951C304.725,70.194,296.895,75.567,293.227,76.394z"/>
		<path fill="#232323" d="M293.355,58.365c1.596-0.36,3.957,0.875,4.242,2.871c0.285,1.996-4.32,2.961-4.32,2.961l-0.135,0.029
			c0,0-4.606,1.114-4.336-1.009c0.269-2.121,2.615-4.417,4.209-4.777L293.355,58.365z"/>
		<path fill="none" stroke="#232323" stroke-width="1.035" stroke-linecap="round" stroke-miterlimit="10" d="M298.854,67.024
			c-0.306,0.846-0.75,1.646-1.301,2.356c-0.552,0.712-1.207,1.333-1.935,1.827c-0.731,0.495-1.532,0.854-2.377,1.046
			c-0.843,0.19-1.646,0.191-2.378,0.026c-0.73-0.164-1.393-0.488-1.946-0.951c-0.556-0.461-1.004-1.06-1.315-1.766"/>
		<circle fill="#232323" cx="277.762" cy="57.03" r="1.452"/>
		<circle fill="#232323" cx="300.188" cy="49.095" r="1.451"/>
		<path fill="#444444" d="M263.729,65.466c1.108,5.601,0.231,10.493-1.967,10.93c-2.195,0.433-4.873-3.754-5.984-9.352
			c-1.109-5.601-0.229-10.494,1.963-10.928C259.936,55.68,262.615,59.867,263.729,65.466z"/>
		<path fill="#232323" d="M260.107,59.678c-1.805,0.371-2.709,4.043-2.461,8.979c-0.166-0.598-0.315-1.224-0.442-1.878
			c-0.851-4.403-0.379-8.21,1.051-8.503c0.606-0.126,1.291,0.41,1.94,1.4C260.167,59.678,260.137,59.672,260.107,59.678z"/>
		<path fill="none" stroke="#7F7F7F" stroke-width="1.1425" stroke-linecap="round" stroke-miterlimit="10" d="M273.305,57.937
			c-0.046-0.509,0.012-1.02,0.159-1.5c0.146-0.482,0.388-0.935,0.71-1.33c0.321-0.396,0.729-0.736,1.208-0.99
			c0.479-0.255,0.99-0.399,1.499-0.444"/>
		<path fill="none" stroke="#7F7F7F" stroke-width="1.1425" stroke-linecap="round" stroke-miterlimit="10" d="M298.548,45.604
			c0.446-0.25,0.937-0.409,1.433-0.47c0.502-0.062,1.014-0.029,1.506,0.103c0.494,0.131,0.969,0.362,1.397,0.696
			s0.771,0.739,1.021,1.186"/>
	</g>
	<path fill="#232323" d="M311.357,80.83c0.287-0.63,0.285-1.369-0.121-1.684c-0.403-0.312-1.232-0.035-1.727,0.695
		c-1.341,1.98-2.043,4.38-1.941,6.856c0.039,0.923,0.921,1.429,1.815,1.144c0.9-0.284,1.45-0.969,1.326-1.583
		C310.348,84.503,310.54,82.592,311.357,80.83z"/>
</g>
<line opacity="0.3" fill="none" stroke="#FFFFFF" stroke-width="2" stroke-linecap="round" stroke-miterlimit="10" stroke-dasharray="4,6" enable-background="new    " x1="105" y1="150" x2="105" y2="235"/>
</svg>
