<?xml version="1.0" encoding="utf-8"?>
<!-- Generator: Adobe Illustrator 16.0.4, SVG Export Plug-In . SVG Version: 6.00 Build 0)  -->
<!DOCTYPE svg PUBLIC "-//W3C//DTD SVG 1.1//EN" "http://www.w3.org/Graphics/SVG/1.1/DTD/svg11.dtd">
<svg version="1.1" id="Layer_1" xmlns="http://www.w3.org/2000/svg" xmlns:xlink="http://www.w3.org/1999/xlink" x="0px" y="0px"
	 width="375px" height="170px" viewBox="0 0 375 170" enable-background="new 0 0 375 170" xml:space="preserve">
<ellipse opacity="0.3" fill="#232323" enable-background="new    " cx="105" cy="163.854" rx="38.078" ry="6.146"/>
<path opacity="0.2" d="M335.691,41.994c-0.122-0.291-0.428-0.455-0.74-0.403c-2.059,0.366-4.332,1.641-6.391,3.485
	c0.468-2.42,1.215-4.63,2.215-6.403c0.146-0.26,0.104-0.586-0.103-0.801c-0.208-0.215-0.531-0.267-0.798-0.129
	c-2.403,1.253-4.3,3.855-5.362,7.099c-1.31-6.734-4.753-12.125-9.267-13.96c-0.274-0.112-0.595-0.029-0.781,0.204
	c-0.187,0.234-0.197,0.562-0.025,0.808c2.036,2.913,3.527,6.984,4.312,11.552c-1.032-2.081-2.496-3.644-4.221-4.344
	c-0.275-0.113-0.595-0.029-0.781,0.205s-0.197,0.562-0.025,0.807c0.924,1.321,1.645,3.073,2.125,5.051
	c-2.054-1.834-4.318-3.1-6.368-3.462c-0.305-0.052-0.617,0.112-0.739,0.403c-0.122,0.291-0.026,0.627,0.229,0.811
	c2.663,1.902,5.366,4.93,7.416,8.307c0.124,0.204,0.357,0.316,0.594,0.316c0.029,0,0.058-0.011,0.087-0.015
	c0.042,0.008,0.08,0.025,0.125,0.025h2.514c0.062,0,0.117-0.02,0.174-0.035c0.058,0.016,0.113,0.035,0.175,0.035h4.191h0.174h2.91
	c0.2,0,0.375-0.091,0.499-0.23c0.082-0.054,0.16-0.117,0.214-0.206c2.048-3.374,4.751-6.402,7.418-8.31
	C335.719,42.621,335.813,42.285,335.691,41.994z"/>
</svg>
