<?xml version="1.0" encoding="utf-8"?>
<!-- Generator: Adobe Illustrator 16.0.4, SVG Export Plug-In . SVG Version: 6.00 Build 0)  -->
<!DOCTYPE svg PUBLIC "-//W3C//DTD SVG 1.1//EN" "http://www.w3.org/Graphics/SVG/1.1/DTD/svg11.dtd">
<svg version="1.1" id="Layer_1" xmlns="http://www.w3.org/2000/svg" xmlns:xlink="http://www.w3.org/1999/xlink" x="0px" y="0px"
	 width="375px" height="170px" viewBox="0 0 375 170" enable-background="new 0 0 375 170" xml:space="preserve">
<ellipse fill="#232323" cx="269.999" cy="163.854" rx="38.078" ry="6.146"/>
<path opacity="0.3" fill="none" stroke="#FFFFFF" stroke-width="2" stroke-linecap="round" stroke-miterlimit="10" stroke-dasharray="4,6" enable-background="new    " d="
	M105,5v69c0,5.523,4.478,10,10,10h62c5.522,0,10,4.477,10,10v59c0,5.523,4.479,10,10,10h28"/>
<g>
	<g>
		<g>
			<defs>
				<path id="SVGID_1_" d="M308.077,93.658c0,3.395-17.05,6.146-38.079,6.146c-21.027,0-38.077-2.754-38.077-6.146v70.195
					c0,3.395,17.05,6.146,38.077,6.146c21.029,0,38.079-2.752,38.079-6.146V93.658z"/>
			</defs>
			<clipPath id="SVGID_2_">
				<use xlink:href="#SVGID_1_"  overflow="visible"/>
			</clipPath>
			<path clip-path="url(#SVGID_2_)" fill="#444444" d="M295.913,191.236c-1.062-9.939-5.187-22.066-13.037-26.445
				c-3.366-1.877-7.282-3.234-12.681-4.146c-1.283,0.213-2.479,0.451-3.605,0.715c-0.195,0.045-0.386,0.096-0.576,0.145
				c-0.336,0.082-0.666,0.166-0.988,0.254c-0.202,0.059-0.405,0.111-0.604,0.17c-0.323,0.096-0.644,0.189-0.954,0.289
				c-0.162,0.055-0.328,0.104-0.488,0.154c-0.451,0.148-0.892,0.305-1.317,0.465c-0.125,0.047-0.246,0.1-0.369,0.146
				c-0.321,0.125-0.64,0.252-0.948,0.386c-0.146,0.062-0.287,0.125-0.431,0.188c-0.296,0.131-0.586,0.266-0.872,0.402
				c-0.122,0.061-0.246,0.117-0.366,0.176c-0.397,0.199-0.789,0.4-1.171,0.611c-8.422,4.656-12.607,18.211-13.322,28.463
				c-0.062,1.492-0.093,2.922-0.09,4.268c0.006,3.467,0.219,6.35,0.633,8.092c0.021,0.082,0.055,0.158,0.078,0.238
				c2.096,9.537,12.631,16.807,25.333,16.828c14.226,0.025,25.773-9.039,25.796-20.248c0-0.104-0.009-0.203-0.011-0.309
				C296.141,199.184,296.146,195.369,295.913,191.236z"/>
		</g>
	</g>
	<g>
		<g>
			<defs>
				<path id="SVGID_3_" d="M308.077,93.658c0,3.395-17.05,6.146-38.079,6.146c-21.027,0-38.077-2.754-38.077-6.146v70.195
					c0,3.395,17.05,6.146,38.077,6.146c21.029,0,38.079-2.752,38.079-6.146V93.658z"/>
			</defs>
			<clipPath id="SVGID_4_">
				<use xlink:href="#SVGID_3_"  overflow="visible"/>
			</clipPath>
			<path clip-path="url(#SVGID_4_)" fill="#FFFFFF" d="M289.225,163.43c-3.252-3.715-7.477-5.541-15.803-5.906
				c-0.13-0.006-0.268-0.01-0.398-0.014c-0.42-0.018-0.846-0.031-1.285-0.039c-0.437-0.01-0.879-0.016-1.336-0.018
				c-0.053,0-0.101-0.002-0.152-0.002h-0.012c-0.016,0-0.03,0-0.049,0c-0.008,0-0.018,0-0.025,0h-0.01c-0.028,0-0.057,0-0.088,0
				c-0.481,0-0.949,0.006-1.408,0.014c-0.523,0.008-1.029,0.023-1.523,0.041c-0.048,0.002-0.098,0.004-0.146,0.006
				c-8.334,0.334-12.565,2.146-15.832,5.85c-4.318,4.898-6.521,18.93-6.979,29.848c0.715-10.252,4.9-23.807,13.322-28.463
				c3.372-1.863,7.293-3.209,12.695-4.102c5.396,0.912,9.312,2.271,12.681,4.146c8.403,4.689,12.539,18.256,13.217,28.512
				C295.677,182.383,293.523,168.346,289.225,163.43z"/>
		</g>
	</g>
	<g>
		<g>
			<defs>
				<path id="SVGID_5_" d="M308.077,93.658c0,3.395-17.05,6.146-38.079,6.146c-21.027,0-38.077-2.754-38.077-6.146v70.195
					c0,3.395,17.05,6.146,38.077,6.146c21.029,0,38.079-2.752,38.079-6.146V93.658z"/>
			</defs>
			<clipPath id="SVGID_6_">
				<use xlink:href="#SVGID_5_"  overflow="visible"/>
			</clipPath>
			<g clip-path="url(#SVGID_6_)">
				<path fill="#E6E7E8" d="M302.131,127.078c-5.189-16.135-21.779-18.428-31.584-18.445l-0.809-0.002
					c-9.807-0.02-26.403,2.213-31.652,18.328l32.083,16.635L302.131,127.078"/>
				<path fill="#444444" d="M288.749,120.93c-2.33-0.004-3.83,0.021-6.989,0.914c-2.697,0.766-7.457,2.562-11.531,2.555h-0.142
					c-4.075-0.008-8.83-1.82-11.524-2.596c-3.155-0.906-4.654-0.936-6.984-0.941c-8.852-0.016-10.026,6.57-10.026,6.57h-0.014
					c-4.466,16.293,3.17,16.137,3.17,16.137l50.812,0.096c0,0,7.621-0.293,3.098-16.625c-0.021-0.074-0.045-0.145-0.065-0.215
					C297.959,125.121,295.8,120.943,288.749,120.93z"/>
				<path fill="#444444" d="M269.952,165.891c-10.183-0.02-31.777-8.229-31.744-26.162c0.034-17.932,23.873-19.309,31.899-19.293
					c8.027,0.016,31.888,1.479,31.854,19.41C301.93,157.779,280.133,165.908,269.952,165.891z"/>
				<path fill="#7F7F7F" d="M270.018,157.576c-4.156-0.008-12.978-3.875-12.961-12.332c0.018-8.455,9.752-9.107,13.03-9.102
					c3.278,0.004,13.021,0.693,13.007,9.146C283.078,153.75,274.176,157.584,270.018,157.576z"/>
				<path fill="#232323" d="M270.281,138.361c1.807,0.004,4.475,1.895,4.785,4.096c0.31,2.199-4.916,2.111-4.916,2.111h-0.149
					c0,0-5.226,0.066-4.907-2.131c0.318-2.199,2.993-4.08,4.801-4.076H270.281z"/>
				<path fill="none" stroke="#7F7F7F" stroke-width="1.2571" stroke-linecap="round" stroke-miterlimit="10" d="M252.811,130.57
					c0.219-0.521,0.537-0.984,0.931-1.375c0.392-0.395,0.856-0.707,1.377-0.924c0.519-0.221,1.088-0.34,1.688-0.338
					c0.598,0,1.168,0.123,1.686,0.344"/>
				<path fill="none" stroke="#7F7F7F" stroke-width="1.2571" stroke-linecap="round" stroke-miterlimit="10" d="M287.396,130.822
					c-0.221-0.518-0.535-0.986-0.926-1.377c-0.393-0.395-0.857-0.711-1.375-0.93c-0.519-0.223-1.088-0.344-1.686-0.346
					c-0.6,0-1.168,0.119-1.688,0.336"/>
				<g>
					<circle fill="#232323" cx="256.768" cy="131.927" r="1.597"/>
					<circle fill="#232323" cx="283.432" cy="131.978" r="1.597"/>
				</g>
				<path fill="#444444" d="M244.355,137.518c0.177,6.279-1.679,11.426-4.141,11.496c-2.462,0.068-4.602-4.969-4.773-11.244
					c-0.178-6.279,1.678-11.426,4.135-11.496C242.039,126.203,244.178,131.238,244.355,137.518z"/>
				
					<ellipse transform="matrix(0.9995 0.032 -0.032 0.9995 4.5595 -9.5338)" fill="#444444" cx="300.286" cy="137.753" rx="4.458" ry="11.375"/>
				<path fill="#232323" d="M298.711,130.678c2.025,0.078,3.667,3.902,4.286,9.303c0.071-0.678,0.124-1.385,0.144-2.113
					c0.131-4.936-1.062-8.982-2.668-9.047c-0.684-0.023-1.328,0.68-1.855,1.869C298.646,130.689,298.68,130.676,298.711,130.678z"/>
				<path fill="#232323" d="M241.493,130.572c-2.026,0.072-3.683,3.891-4.32,9.287c-0.069-0.68-0.118-1.385-0.136-2.117
					c-0.112-4.934,1.099-8.979,2.701-9.033c0.682-0.023,1.326,0.684,1.851,1.875C241.557,130.584,241.525,130.572,241.493,130.572z"
					/>
				<path fill="#FFFFFF" d="M270.047,124.645c-4.598-0.008-9.961-1.818-13.001-2.596c-3.562-0.908-5.253-0.938-7.882-0.943
					c-7.954-0.014-10.406,4.154-11.078,5.854c5.249-16.114,21.848-18.349,31.652-18.328l0.809,0.002
					c9.805,0.019,26.395,2.312,31.584,18.445c-0.664-1.703-3.102-5.881-11.056-5.896c-2.628-0.005-4.321,0.02-7.886,0.914
					c-3.043,0.764-8.412,2.559-13.013,2.549h-0.131L270.047,124.645L270.047,124.645z"/>
				<path fill="none" stroke="#232323" stroke-width="1.1389" stroke-linecap="round" stroke-miterlimit="10" d="M276.449,148.941
					c-0.352,0.828-0.86,1.574-1.487,2.199c-0.628,0.627-1.374,1.131-2.204,1.479c-0.83,0.352-1.74,0.543-2.697,0.541
					c-0.955-0.002-1.867-0.197-2.692-0.549c-0.827-0.354-1.574-0.859-2.199-1.488s-1.131-1.377-1.479-2.205"/>
			</g>
		</g>
	</g>
</g>
<path opacity="0.2" d="M66.258,42.106c-0.122-0.291-0.428-0.456-0.74-0.403c-2.05,0.363-4.315,1.629-6.369,3.463
	c0.48-1.978,1.201-3.73,2.125-5.052c0.171-0.245,0.161-0.574-0.025-0.807c-0.187-0.235-0.505-0.316-0.782-0.205
	c-1.725,0.7-3.189,2.264-4.221,4.345c0.785-4.569,2.277-8.641,4.313-11.553c0.172-0.245,0.161-0.574-0.025-0.808
	c-0.186-0.233-0.504-0.316-0.781-0.204c-4.513,1.834-7.957,7.224-9.268,13.958c-1.062-3.243-2.959-5.843-5.362-7.097
	c-0.264-0.138-0.589-0.086-0.797,0.129c-0.208,0.215-0.25,0.541-0.103,0.801c1,1.772,1.748,3.982,2.216,6.403
	c-2.059-1.844-4.333-3.119-6.39-3.485c-0.303-0.053-0.617,0.112-0.74,0.403c-0.122,0.291-0.027,0.627,0.229,0.811
	c2.666,1.908,5.369,4.937,7.416,8.31c0.048,0.08,0.124,0.134,0.2,0.184c0.124,0.15,0.304,0.251,0.513,0.251h2.908h0.176h4.191
	c0.062,0,0.118-0.02,0.174-0.035c0.057,0.016,0.113,0.035,0.175,0.035h2.513c0.039,0,0.072-0.016,0.109-0.022
	c0.04,0.007,0.081,0.02,0.121,0.02c0.23,0,0.452-0.119,0.577-0.325c2.049-3.376,4.752-6.404,7.416-8.307
	C66.285,42.733,66.38,42.396,66.258,42.106z"/>
</svg>
