<?xml version="1.0" encoding="utf-8"?>
<!-- Generator: Adobe Illustrator 16.0.4, SVG Export Plug-In . SVG Version: 6.00 Build 0)  -->
<!DOCTYPE svg PUBLIC "-//W3C//DTD SVG 1.1//EN" "http://www.w3.org/Graphics/SVG/1.1/DTD/svg11.dtd">
<svg version="1.1" id="Layer_1" xmlns="http://www.w3.org/2000/svg" xmlns:xlink="http://www.w3.org/1999/xlink" x="0px" y="0px"
	 width="375px" height="170px" viewBox="0 0 375 170" enable-background="new 0 0 375 170" xml:space="preserve">
<path opacity="0.2" d="M66.258,42.106c-0.122-0.291-0.428-0.456-0.74-0.403c-2.05,0.363-4.315,1.629-6.369,3.463
	c0.48-1.978,1.201-3.73,2.125-5.052c0.171-0.245,0.161-0.574-0.025-0.807c-0.187-0.235-0.505-0.316-0.782-0.205
	c-1.725,0.7-3.189,2.264-4.221,4.345c0.785-4.569,2.277-8.641,4.313-11.553c0.172-0.245,0.161-0.574-0.025-0.808
	c-0.186-0.233-0.504-0.316-0.781-0.204c-4.513,1.834-7.957,7.224-9.268,13.958c-1.062-3.243-2.959-5.843-5.362-7.097
	c-0.264-0.138-0.589-0.086-0.797,0.129c-0.208,0.215-0.25,0.541-0.103,0.801c1,1.772,1.748,3.982,2.216,6.403
	c-2.059-1.844-4.333-3.119-6.39-3.485c-0.303-0.053-0.617,0.112-0.74,0.403c-0.122,0.291-0.027,0.627,0.229,0.811
	c2.666,1.908,5.369,4.937,7.416,8.31c0.048,0.08,0.124,0.134,0.2,0.184c0.124,0.15,0.304,0.251,0.513,0.251h2.908h0.176h4.191
	c0.062,0,0.118-0.02,0.174-0.035c0.057,0.016,0.113,0.035,0.175,0.035h2.513c0.039,0,0.072-0.016,0.109-0.022
	c0.04,0.007,0.081,0.02,0.121,0.02c0.23,0,0.452-0.119,0.577-0.325c2.049-3.376,4.752-6.404,7.416-8.307
	C66.285,42.733,66.38,42.396,66.258,42.106z"/>
<ellipse fill="#232323" cx="269.999" cy="163.854" rx="38.078" ry="6.146"/>
<path opacity="0.3" fill="none" stroke="#FFFFFF" stroke-width="2" stroke-linecap="round" stroke-miterlimit="10" stroke-dasharray="4,6" enable-background="new    " d="
	M105,5v69c0,5.523,4.478,10,10,10h62c5.522,0,10,4.477,10,10v59c0,5.523,4.479,10,10,10h28"/>
</svg>
