<?xml version="1.0" encoding="utf-8"?>
<!-- Generator: Adobe Illustrator 16.0.4, SVG Export Plug-In . SVG Version: 6.00 Build 0)  -->
<!DOCTYPE svg PUBLIC "-//W3C//DTD SVG 1.1//EN" "http://www.w3.org/Graphics/SVG/1.1/DTD/svg11.dtd">
<svg version="1.1" id="Layer_1" xmlns="http://www.w3.org/2000/svg" xmlns:xlink="http://www.w3.org/1999/xlink" x="0px" y="0px"
	 width="375px" height="170px" viewBox="0 0 375 170" enable-background="new 0 0 375 170" xml:space="preserve">
<g>
	<g opacity="0.2">
		<path stroke="#000000" stroke-width="1.3496" stroke-linejoin="round" stroke-miterlimit="10" d="M50.577,50.875h4.367
			c0-7.934,1.99-14.971,5.064-19.367C54.587,33.711,50.577,41.547,50.577,50.875z"/>
		<path stroke="#000000" stroke-width="1.3496" stroke-linejoin="round" stroke-miterlimit="10" d="M55.293,50.875h2.513
			c0-4.566,1.147-8.617,2.916-11.148C57.601,40.996,55.293,45.506,55.293,50.875z"/>
		<path stroke="#000000" stroke-width="1.3496" stroke-linejoin="round" stroke-miterlimit="10" d="M44.812,38.344
			c1.757,3.111,2.857,7.574,2.857,12.531h3.084C50.754,45.076,48.271,40.148,44.812,38.344z"/>
		<path stroke="#000000" stroke-width="1.3496" stroke-linejoin="round" stroke-miterlimit="10" d="M47.562,50.754
			c0.253-0.891,0.564-1.727,0.933-2.49c-2.491-3.238-5.765-5.51-8.563-6.006c2.648,1.895,5.414,4.904,7.6,8.506L47.562,50.754z"/>
		<path stroke="#000000" stroke-width="1.3496" stroke-linejoin="round" stroke-miterlimit="10" d="M58.036,50.873
			c2.186-3.602,4.951-6.611,7.6-8.506c-2.799,0.496-6.072,2.77-8.563,6.006c0.369,0.766,0.68,1.6,0.933,2.49L58.036,50.873z"/>
	</g>
	<ellipse opacity="0.3" fill="#232323" enable-background="new    " cx="269.999" cy="163.854" rx="38.078" ry="6.146"/>
</g>
</svg>
