<?xml version="1.0" encoding="utf-8"?>
<!-- Generator: Adobe Illustrator 16.0.4, SVG Export Plug-In . SVG Version: 6.00 Build 0)  -->
<!DOCTYPE svg PUBLIC "-//W3C//DTD SVG 1.1//EN" "http://www.w3.org/Graphics/SVG/1.1/DTD/svg11.dtd">
<svg version="1.1" id="Layer_1" xmlns="http://www.w3.org/2000/svg" xmlns:xlink="http://www.w3.org/1999/xlink" x="0px" y="0px"
	 width="375px" height="170px" viewBox="0 0 375 170" enable-background="new 0 0 375 170" xml:space="preserve">
<g>
	<g>
		<path fill="#232323" d="M317.984,164c-3.3,0-4.649-2.338-3-5.195l11.319-19.606c1.65-2.858,4.351-2.858,6,0l11.32,19.606
			c1.65,2.857,0.3,5.195-3,5.195H317.984z"/>
	</g>
	<g>
		<path fill="#232323" d="M333.951,164c-2.312,0-3.256-1.637-2.103-3.637l7.925-13.728c1.153-2,3.045-2,4.2,0l7.925,13.728
			c1.153,2,0.211,3.637-2.102,3.637H333.951z"/>
	</g>
</g>
<ellipse fill="#232323" cx="269.999" cy="163.854" rx="38.078" ry="6.146"/>
<path opacity="0.3" fill="none" stroke="#FFFFFF" stroke-width="2" stroke-linecap="round" stroke-miterlimit="10" stroke-dasharray="4,6" enable-background="new    " d="
	M105,5v69c0,5.523,4.477,10,10,10h62c5.522,0,10,4.477,10,10v59c0,5.523,4.477,10,10,10h28"/>
<g>
	<g>
		<g>
			<defs>
				<path id="SVGID_1_" d="M308.077,93.656c0,3.395-17.05,6.146-38.078,6.146s-38.078-2.752-38.078-6.146v70.197
					c0,3.395,17.05,6.146,38.078,6.146s38.078-2.752,38.078-6.146V93.656z"/>
			</defs>
			<clipPath id="SVGID_2_">
				<use xlink:href="#SVGID_1_"  overflow="visible"/>
			</clipPath>
			<path clip-path="url(#SVGID_2_)" fill="#444444" d="M295.913,191.236c-1.062-9.939-5.188-22.066-13.037-26.445
				c-3.367-1.877-7.283-3.236-12.683-4.146c-1.28,0.211-2.478,0.451-3.604,0.715c-0.194,0.045-0.385,0.096-0.575,0.143
				c-0.337,0.084-0.666,0.168-0.988,0.256c-0.203,0.057-0.405,0.111-0.604,0.17c-0.323,0.094-0.642,0.189-0.955,0.289
				c-0.161,0.053-0.33,0.104-0.489,0.154c-0.449,0.146-0.89,0.303-1.315,0.465c-0.125,0.047-0.246,0.1-0.369,0.146
				c-0.321,0.125-0.64,0.254-0.949,0.385c-0.146,0.062-0.286,0.125-0.43,0.189c-0.295,0.131-0.586,0.266-0.873,0.402
				c-0.121,0.061-0.244,0.115-0.365,0.176c-0.397,0.197-0.788,0.4-1.17,0.611c-8.422,4.656-12.608,18.209-13.323,28.463
				c-0.062,1.492-0.093,2.922-0.089,4.266c0.005,3.469,0.218,6.352,0.632,8.094c0.021,0.08,0.055,0.158,0.08,0.238
				c2.094,9.537,12.629,16.807,25.332,16.828c14.225,0.025,25.772-9.039,25.795-20.248c0-0.104-0.009-0.203-0.011-0.309
				C296.141,199.184,296.146,195.369,295.913,191.236z"/>
		</g>
	</g>
	<g>
		<g>
			<defs>
				<path id="SVGID_3_" d="M308.077,93.656c0,3.395-17.05,6.146-38.078,6.146s-38.078-2.752-38.078-6.146v70.197
					c0,3.395,17.05,6.146,38.078,6.146s38.078-2.752,38.078-6.146V93.656z"/>
			</defs>
			<clipPath id="SVGID_4_">
				<use xlink:href="#SVGID_3_"  overflow="visible"/>
			</clipPath>
			<path clip-path="url(#SVGID_4_)" fill="#FFFFFF" d="M289.225,163.43c-3.25-3.715-7.478-5.541-15.802-5.906
				c-0.131-0.006-0.269-0.01-0.399-0.016c-0.42-0.016-0.846-0.029-1.284-0.039c-0.438-0.008-0.88-0.014-1.337-0.016
				c-0.053,0-0.101-0.002-0.153-0.002h-0.01c-0.017,0-0.031,0-0.048,0c-0.01,0-0.021,0-0.026,0h-0.008c-0.031,0-0.06,0-0.091,0
				c-0.481,0-0.95,0.006-1.409,0.014c-0.523,0.008-1.027,0.023-1.521,0.041c-0.05,0.002-0.101,0.004-0.146,0.006
				c-8.334,0.332-12.566,2.146-15.832,5.848c-4.32,4.9-6.523,18.932-6.979,29.85c0.715-10.254,4.901-23.807,13.323-28.463
				c3.371-1.863,7.293-3.209,12.692-4.102c5.397,0.91,9.313,2.271,12.683,4.146c8.404,4.688,12.539,18.256,13.218,28.512
				C295.677,182.383,293.523,168.346,289.225,163.43z"/>
		</g>
	</g>
	<g>
		<g>
			<defs>
				<path id="SVGID_5_" d="M308.077,93.656c0,3.395-17.05,6.146-38.078,6.146s-38.078-2.752-38.078-6.146v70.197
					c0,3.395,17.05,6.146,38.078,6.146s38.078-2.752,38.078-6.146V93.656z"/>
			</defs>
			<clipPath id="SVGID_6_">
				<use xlink:href="#SVGID_5_"  overflow="visible"/>
			</clipPath>
			<g clip-path="url(#SVGID_6_)">
				<path fill="#E6E7E8" d="M302.132,127.078c-5.19-16.135-21.78-18.428-31.586-18.445l-0.81-0.002
					c-9.805-0.02-26.401,2.213-31.651,18.328l32.084,16.635L302.132,127.078"/>
				<path fill="#444444" d="M288.749,120.93c-2.33-0.004-3.83,0.021-6.99,0.914c-2.696,0.766-7.457,2.562-11.53,2.553h-0.142
					c-4.075-0.006-8.83-1.818-11.524-2.594c-3.155-0.906-4.655-0.938-6.983-0.941c-8.853-0.016-10.026,6.57-10.026,6.57h-0.015
					c-4.465,16.293,3.17,16.137,3.17,16.137l50.812,0.096c0,0,7.621-0.293,3.097-16.625c-0.021-0.074-0.046-0.145-0.064-0.215
					C297.958,125.121,295.8,120.943,288.749,120.93z"/>
				<path fill="#444444" d="M269.952,165.891c-10.183-0.02-31.777-8.229-31.744-26.162c0.033-17.932,23.873-19.309,31.899-19.293
					s31.888,1.479,31.854,19.41C301.93,157.779,280.132,165.908,269.952,165.891z"/>
				<path fill="#7F7F7F" d="M270.018,157.576c-4.156-0.008-12.978-3.875-12.961-12.332c0.019-8.455,9.752-9.107,13.03-9.102
					c3.277,0.004,13.021,0.693,13.006,9.146C283.077,153.748,274.175,157.584,270.018,157.576z"/>
				<path fill="#232323" d="M270.279,138.361c1.81,0.004,4.476,1.895,4.785,4.094c0.312,2.201-4.914,2.113-4.914,2.113h-0.149
					c0,0-5.226,0.066-4.905-2.133c0.315-2.197,2.991-4.078,4.799-4.074H270.279z"/>
				<path fill="none" stroke="#7F7F7F" stroke-width="1.2571" stroke-linecap="round" stroke-miterlimit="10" d="M252.811,130.57
					c0.219-0.521,0.537-0.986,0.931-1.377c0.393-0.393,0.858-0.707,1.377-0.924c0.519-0.221,1.088-0.338,1.687-0.338
					c0.6,0.002,1.168,0.125,1.686,0.346"/>
				<path fill="none" stroke="#7F7F7F" stroke-width="1.2571" stroke-linecap="round" stroke-miterlimit="10" d="M287.396,130.822
					c-0.221-0.518-0.535-0.986-0.926-1.377c-0.393-0.395-0.857-0.711-1.373-0.93c-0.52-0.223-1.09-0.344-1.688-0.346
					c-0.6,0-1.168,0.119-1.688,0.336"/>
				<g>
					<circle fill="#232323" cx="256.768" cy="131.927" r="1.598"/>
					<circle fill="#232323" cx="283.432" cy="131.977" r="1.597"/>
				</g>
				<path fill="#444444" d="M244.354,137.516c0.18,6.281-1.676,11.428-4.139,11.498c-2.461,0.066-4.6-4.969-4.775-11.246
					s1.68-11.424,4.137-11.496C242.038,126.203,244.18,131.238,244.354,137.516z"/>
				<path fill="#444444" d="M295.823,137.611c-0.199,6.279,1.633,11.434,4.098,11.512c2.459,0.076,4.617-4.951,4.813-11.227
					c0.201-6.281-1.633-11.434-4.094-11.514C298.18,126.305,296.021,131.334,295.823,137.611z"/>
				<path fill="#232323" d="M298.712,130.678c2.024,0.078,3.666,3.902,4.285,9.303c0.071-0.678,0.123-1.385,0.144-2.113
					c0.131-4.936-1.063-8.982-2.668-9.047c-0.683-0.025-1.328,0.68-1.854,1.869C298.646,130.689,298.68,130.676,298.712,130.678z"/>
				<path fill="#232323" d="M241.493,130.572c-2.027,0.072-3.683,3.891-4.32,9.287c-0.069-0.68-0.118-1.385-0.135-2.117
					c-0.113-4.934,1.099-8.979,2.7-9.035c0.683-0.021,1.324,0.686,1.851,1.877C241.557,130.584,241.525,130.572,241.493,130.572z"/>
				<path fill="#FFFFFF" d="M270.046,124.645c-4.598-0.008-9.961-1.82-13-2.598c-3.562-0.906-5.254-0.936-7.883-0.941
					c-7.953-0.016-10.406,4.152-11.078,5.854c5.25-16.114,21.849-18.349,31.651-18.328l0.81,0.002
					c9.806,0.019,26.396,2.312,31.586,18.445c-0.666-1.703-3.104-5.881-11.057-5.896c-2.628-0.005-4.322,0.02-7.886,0.914
					c-3.045,0.764-8.412,2.557-13.013,2.549h-0.132L270.046,124.645L270.046,124.645z"/>
				<path fill="none" stroke="#232323" stroke-width="1.1389" stroke-linecap="round" stroke-miterlimit="10" d="M276.448,148.941
					c-0.353,0.828-0.859,1.574-1.486,2.199c-0.629,0.625-1.375,1.129-2.205,1.479c-0.829,0.35-1.739,0.541-2.696,0.539
					c-0.955-0.002-1.867-0.195-2.692-0.549c-0.826-0.354-1.574-0.857-2.199-1.486s-1.131-1.377-1.479-2.205"/>
			</g>
		</g>
	</g>
</g>
<path opacity="0.2" d="M66.258,42.106c-0.122-0.291-0.428-0.456-0.74-0.403c-2.05,0.363-4.315,1.629-6.369,3.463
	c0.48-1.978,1.201-3.73,2.125-5.052c0.171-0.245,0.161-0.574-0.025-0.807c-0.187-0.235-0.505-0.316-0.782-0.205
	c-1.725,0.7-3.189,2.264-4.221,4.345c0.785-4.569,2.277-8.641,4.313-11.553c0.172-0.245,0.161-0.574-0.025-0.808
	c-0.186-0.233-0.504-0.316-0.781-0.204c-4.513,1.834-7.957,7.224-9.268,13.958c-1.062-3.243-2.959-5.843-5.362-7.097
	c-0.264-0.138-0.589-0.086-0.797,0.129c-0.208,0.215-0.25,0.541-0.103,0.801c1,1.772,1.748,3.982,2.216,6.403
	c-2.059-1.844-4.333-3.119-6.39-3.485c-0.303-0.053-0.617,0.112-0.74,0.403c-0.122,0.291-0.027,0.627,0.229,0.811
	c2.666,1.908,5.369,4.937,7.416,8.31c0.048,0.08,0.124,0.134,0.2,0.184c0.124,0.15,0.304,0.251,0.513,0.251h2.908h0.176h4.191
	c0.062,0,0.118-0.02,0.174-0.035c0.057,0.016,0.113,0.035,0.175,0.035h2.513c0.039,0,0.072-0.016,0.109-0.022
	c0.04,0.007,0.081,0.02,0.121,0.02c0.23,0,0.452-0.119,0.577-0.325c2.049-3.376,4.752-6.404,7.416-8.307
	C66.285,42.733,66.38,42.396,66.258,42.106z"/>
</svg>
