<?xml version="1.0" encoding="utf-8"?>
<!-- Generator: Adobe Illustrator 16.0.4, SVG Export Plug-In . SVG Version: 6.00 Build 0)  -->
<!DOCTYPE svg PUBLIC "-//W3C//DTD SVG 1.1//EN" "http://www.w3.org/Graphics/SVG/1.1/DTD/svg11.dtd">
<svg version="1.1" id="Layer_1" xmlns="http://www.w3.org/2000/svg" xmlns:xlink="http://www.w3.org/1999/xlink" x="0px" y="0px"
	 width="375px" height="100px" viewBox="0 0 375 100" enable-background="new 0 0 375 100" xml:space="preserve">
<path fill="#C3CCFF" d="M0,0v100h23.445l15.541-26.918c2.722-4.714,7.176-4.714,9.898,0l9.551,16.543l19.676-34.079
	c3.888-6.735,10.251-6.735,14.14,0L117.917,100h34.694l42.423-73.48c6.198-10.736,16.341-10.736,22.54,0l38.445,66.588
	l22.305-38.634c4.339-7.515,11.438-7.515,15.778,0L320.388,100h54.611V0H0z"/>
<path fill="#8698FF" d="M48.884,73.082c-2.722-4.714-7.176-4.714-9.898,0L23.445,100h29l5.99-10.375L48.884,73.082z"/>
<path fill="#5E76FF" d="M278.324,54.474L256.02,93.108l3.979,6.892h60.39l-26.285-45.526
	C289.763,46.959,282.663,46.959,278.324,54.474z"/>
<path fill="#3654FF" d="M92.251,55.546c-3.889-6.735-10.252-6.735-14.14,0L58.435,89.625L52.445,100h11.981h53.491L92.251,55.546z"
	/>
<path fill="#3654FF" d="M256.02,93.108L217.574,26.52c-6.199-10.736-16.342-10.736-22.54,0L152.611,100h99.429h7.958L256.02,93.108z
	"/>
<g transform="translate(0,-952.36218)" opacity="0.5">
	<path fill="#FFFFFF" d="M128.833,966.403c-9.47,0-16.095,8.501-15.241,16.9c-5.577,1.095-9.79,6.025-9.79,11.923
		c0,6.703,5.434,12.136,12.137,12.136h37.167c7.713,0,12.895-5.059,12.895-11.377c0-5.283-3.722-10.475-9.103-11.378
		c0-9.102-8.344-12.895-14.411-9.86C140.211,970.195,135.315,966.403,128.833,966.403L128.833,966.403z"/>
</g>
<g transform="translate(0,-952.36218)" opacity="0.5">
	<path fill="#FFFFFF" d="M337.647,968.403c-3.949,0-6.933,2.311-8.319,5.084c-3.698-1.849-8.782,0.462-8.782,6.009
		c-3.279,0.551-5.547,3.714-5.547,6.934c0,3.85,3.158,6.933,7.857,6.933h22.648c4.085,0,7.396-3.311,7.396-7.396
		c0-3.594-2.566-6.598-5.966-7.265C347.456,973.583,343.419,968.403,337.647,968.403L337.647,968.403z"/>
</g>
</svg>
