<?xml version="1.0" encoding="utf-8"?>
<!-- Generator: Adobe Illustrator 16.0.4, SVG Export Plug-In . SVG Version: 6.00 Build 0)  -->
<!DOCTYPE svg PUBLIC "-//W3C//DTD SVG 1.1//EN" "http://www.w3.org/Graphics/SVG/1.1/DTD/svg11.dtd">
<svg version="1.1" id="Layer_1" xmlns="http://www.w3.org/2000/svg" xmlns:xlink="http://www.w3.org/1999/xlink" x="0px" y="0px"
	 width="36px" height="48px" viewBox="29 31.5 36 48" enable-background="new 29 31.5 36 48" xml:space="preserve">
<g>
	<ellipse fill="#D0DAE3" cx="45.246" cy="76.878" rx="16.246" ry="2.622"/>
	<g>
		<path fill="#232323" d="M64.281,36.798c0.637,0.931,0.852,1.948,0.641,3.062L58.391,74.64c-0.209,1.114-0.777,1.989-1.707,2.622
			c-0.924,0.635-1.943,0.847-3.062,0.637l-18.724-3.516c-1.118-0.21-1.989-0.777-2.622-1.704c-0.633-0.927-0.846-1.948-0.637-3.062
			l6.53-34.779c0.208-1.115,0.776-1.984,1.704-2.622c0.928-0.634,1.945-0.847,3.063-0.637l18.722,3.516
			C62.777,35.304,63.652,35.872,64.281,36.798z"/>
		<path fill="#FF7E1C" d="M60.717,40.11c0.053-0.278,0-0.531-0.152-0.762c-0.162-0.232-0.379-0.376-0.658-0.428l-16.721-3.14
			c-0.279-0.053-0.533,0.003-0.768,0.161c-0.228,0.159-0.372,0.375-0.423,0.654l-4.898,26.084c-0.053,0.282,0.002,0.536,0.158,0.767
			c0.162,0.232,0.378,0.373,0.657,0.425l16.721,3.14c0.279,0.053,0.533,0.001,0.768-0.156c0.227-0.16,0.367-0.377,0.422-0.659
			L60.717,40.11z"/>
		<path fill="#3F3F3F" d="M46.796,73.027c0.625-0.432,1.009-1.01,1.146-1.734c0.135-0.721-0.014-1.4-0.439-2.027
			c-0.433-0.63-1.01-1.015-1.733-1.15c-0.725-0.137-1.399,0.014-2.033,0.442c-0.625,0.431-1.014,1.009-1.149,1.729
			c-0.137,0.725,0.016,1.404,0.442,2.033c0.435,0.629,1.01,1.01,1.734,1.146S46.163,73.457,46.796,73.027z"/>
		<g>
			<g>
				<g>
					<path fill="#FFFFFF" d="M53.82,51.267c0.363,0.455,0.508,1.081,0.438,1.881c-0.109,0.964-0.51,1.665-1.201,2.101
						c-0.6,0.364-1.5,0.582-2.701,0.655v1.854H49.02v-1.829h-1.035v1.829h-1.338v-1.854h-2.645l0.272-1.582h0.272
						c0.438,0.019,0.717,0.008,0.844-0.028c0.183-0.055,0.291-0.19,0.328-0.408v-5.919c-0.055-0.291-0.208-0.473-0.462-0.546
						c-0.164-0.055-0.509-0.072-1.037-0.055h-0.218v-1.418l0.817,0.028c0.965,0,1.571-0.01,1.827-0.028v-2.153h1.338v2.127
						l1.035-0.029v-2.099h1.336v2.153c0.928,0.091,1.637,0.291,2.127,0.6c0.6,0.364,0.926,0.909,0.982,1.637
						c0.109,1.055-0.264,1.8-1.117,2.236l0,0C53.02,50.565,53.51,50.849,53.82,51.267L53.82,51.267z M48.009,50.092h0.219
						c0.765,0.019,1.356-0.026,1.775-0.135c0.727-0.182,1.09-0.574,1.09-1.174s-0.357-1-1.065-1.2
						c-0.399-0.11-0.988-0.153-1.771-0.136c-0.128,0.019-0.211,0.026-0.248,0.026V50.092z M48.257,54.321
						c0.927,0.019,1.625-0.028,2.099-0.138c0.854-0.218,1.283-0.654,1.283-1.31c0-0.654-0.419-1.09-1.255-1.309
						c-0.454-0.128-1.146-0.172-2.073-0.136h-0.302v2.892H48.257z"/>
				</g>
			</g>
		</g>
	</g>
</g>
</svg>
