<?xml version="1.0" encoding="utf-8"?>
<!-- Generator: Adobe Illustrator 16.0.4, SVG Export Plug-In . SVG Version: 6.00 Build 0)  -->
<!DOCTYPE svg PUBLIC "-//W3C//DTD SVG 1.1//EN" "http://www.w3.org/Graphics/SVG/1.1/DTD/svg11.dtd">
<svg version="1.1" id="Layer_1" xmlns="http://www.w3.org/2000/svg" xmlns:xlink="http://www.w3.org/1999/xlink" x="0px" y="0px"
	 width="42px" height="37px" viewBox="29 31.5 42 37" enable-background="new 29 31.5 42 37" xml:space="preserve">
<path fill="#D0DAE3" d="M62.485,35.853c0.617,0.399,1.023,0.971,1.219,1.714l5.188,19.701c0.197,0.748,0.124,1.443-0.218,2.092
	c-0.34,0.646-0.852,1.061-1.535,1.24l-29.677,7.816c-0.683,0.18-1.334,0.072-1.949-0.324c-0.616-0.396-1.022-0.965-1.219-1.715
	l-5.188-19.699c-0.196-0.744-0.123-1.441,0.217-2.092c0.341-0.646,0.854-1.062,1.537-1.242l29.677-7.815
	C61.221,35.349,61.871,35.459,62.485,35.853z"/>
<g>
	<path fill="#3654FF" d="M64.485,31.908c0.618,0.399,1.023,0.97,1.22,1.713l5.187,19.701c0.198,0.748,0.125,1.443-0.217,2.092
		c-0.339,0.646-0.852,1.062-1.533,1.242l-29.679,7.814c-0.683,0.18-1.333,0.072-1.948-0.324c-0.617-0.396-1.022-0.965-1.219-1.715
		l-5.188-19.699c-0.196-0.744-0.124-1.44,0.217-2.092c0.34-0.646,0.853-1.062,1.535-1.242l29.678-7.815
		C63.221,31.404,63.871,31.514,64.485,31.908z"/>
	<rect x="34.711" y="40.742" transform="matrix(-0.967 0.2546 -0.2546 -0.967 109.7806 74.6791)" width="30.691" height="7.408"/>
	<g>
		<path fill="#FFFFFF" d="M41.899,54.465c-0.156-0.098-0.319-0.127-0.489-0.082l-3.689,0.973c-0.171,0.045-0.298,0.148-0.385,0.311
			c-0.083,0.162-0.103,0.338-0.055,0.521l0.589,2.24c0.051,0.189,0.153,0.33,0.305,0.43c0.157,0.098,0.316,0.123,0.489,0.078
			l3.689-0.971c0.17-0.045,0.297-0.146,0.386-0.311c0.083-0.16,0.102-0.334,0.051-0.523l-0.588-2.238
			C42.153,54.709,42.049,54.564,41.899,54.465z"/>
		<path fill="#FFFFFF" d="M51.737,51.873c-0.155-0.098-0.316-0.127-0.487-0.082l-6.97,1.836c-0.17,0.045-0.298,0.15-0.385,0.312
			c-0.083,0.162-0.102,0.338-0.054,0.521l0.591,2.238c0.05,0.189,0.152,0.33,0.304,0.43c0.156,0.1,0.316,0.125,0.489,0.08
			l6.968-1.836c0.172-0.045,0.299-0.146,0.386-0.309c0.084-0.162,0.104-0.336,0.054-0.525l-0.59-2.238
			C51.993,52.117,51.89,51.973,51.737,51.873z"/>
	</g>
</g>
</svg>
