<svg width="13" height="11" viewBox="0 0 13 11" fill="white" xmlns="http://www.w3.org/2000/svg">
    <path fill-rule="evenodd" clip-rule="evenodd" d="M0.0226182 5.78298C0.219059 4.55056 1.51911 3.86438 2.54493 4.53208C2.63796 4.59215 2.72673 4.66344 2.80939 4.74529L2.81732 4.75354C3.27762 5.2308 3.79343 5.72753 4.30466 6.21998L4.7433 6.64608L9.94806 0.738766C10.2589 0.386599 10.4861 0.158861 10.9525 0.0453221C12.5494 -0.33589 13.6722 1.77613 12.5405 3.06697L6.05372 10.4331C5.44274 11.1384 4.35072 11.2028 3.69399 10.5292C3.31758 10.1509 2.90822 9.76608 2.49429 9.3776C1.77747 8.70363 1.04631 8.01613 0.450273 7.33556C0.0924706 6.94873 -0.0618758 6.31536 0.0226182 5.78298Z" />
    </svg>
    