<svg width="20" height="20" viewBox="0 0 20 20" fill="none" xmlns="http://www.w3.org/2000/svg">
    <g clip-path="url(#clip0_3_2568)">
    <path d="M11.7667 11.7667C11.5378 12.0123 11.2618 12.2093 10.9551 12.3459C10.6485 12.4826 10.3174 12.556 9.98175 12.562C9.64608 12.5679 9.31264 12.5061 9.00135 12.3804C8.69006 12.2547 8.40728 12.0675 8.16988 11.8301C7.93249 11.5927 7.74534 11.31 7.6196 10.9987C7.49386 10.6874 7.43211 10.3539 7.43804 10.0183C7.44396 9.68258 7.51743 9.35154 7.65407 9.04487C7.79071 8.73821 7.98772 8.46221 8.23334 8.23333M14.95 14.95C13.5255 16.0358 11.7909 16.6374 10 16.6667C4.16668 16.6667 0.833344 10 0.833344 10C1.86992 8.06825 3.30762 6.38051 5.05001 5.05L14.95 14.95ZM8.25001 3.53333C8.82362 3.39907 9.4109 3.33195 10 3.33333C15.8333 3.33333 19.1667 10 19.1667 10C18.6608 10.9463 18.0576 11.8373 17.3667 12.6583L8.25001 3.53333Z" stroke="#2D3143" stroke-width="1.5" stroke-linecap="round" stroke-linejoin="round"/>
    <path d="M0.833344 0.833332L19.1667 19.1667" stroke="#2D3143" stroke-width="1.5" stroke-linecap="round" stroke-linejoin="round"/>
    </g>
    <defs>
    <clipPath id="clip0_3_2568">
    <rect width="20" height="20" fill="white"/>
    </clipPath>
    </defs>
    </svg>
    