<svg width="10" height="10" viewBox="0 0 10 10" fill="#3653FE" xmlns="http://www.w3.org/2000/svg">
    <path d="M9.56706 0.350078L0.255063 3.49908C0.23717 3.50504 0.220645 3.51451 0.206451 3.52693C0.192257 3.53935 0.18068 3.55447 0.172395 3.57141C0.164109 3.58836 0.159282 3.60678 0.158195 3.62561C0.157108 3.64444 0.159783 3.66329 0.166063 3.68108C0.173292 3.70273 0.185741 3.72226 0.202309 3.73796C0.218877 3.75365 0.239056 3.76503 0.261063 3.77108L4.91906 5.19108L6.33606 9.85608C6.34211 9.87809 6.35349 9.89826 6.36918 9.91483C6.38488 9.9314 6.40441 9.94385 6.42606 9.95108C6.44417 9.95708 6.46331 9.95938 6.48232 9.95782C6.50134 9.95627 6.51985 9.95089 6.53674 9.94203C6.55364 9.93316 6.56857 9.92098 6.58065 9.90621C6.59274 9.89145 6.60172 9.87439 6.60706 9.85608L9.75506 0.541078C9.76677 0.514352 9.77015 0.484716 9.76474 0.456042C9.75934 0.427369 9.74541 0.400992 9.72478 0.38036C9.70415 0.359728 9.67777 0.345801 9.6491 0.340398C9.62043 0.334995 9.59079 0.338369 9.56406 0.350078H9.56706Z" />
    </svg>
    