<svg width="16" height="10" viewBox="0 0 16 10" fill="none" xmlns="http://www.w3.org/2000/svg">
    <path d="M4 0.25C3.58579 0.25 3.25 0.585786 3.25 1C3.25 1.41421 3.58579 1.75 4 1.75V0.25ZM15 1.75C15.4142 1.75 15.75 1.41421 15.75 1C15.75 0.585786 15.4142 0.25 15 0.25V1.75ZM4 4.25C3.58579 4.25 3.25 4.58579 3.25 5C3.25 5.41421 3.58579 5.75 4 5.75V4.25ZM15 5.75C15.4142 5.75 15.75 5.41421 15.75 5C15.75 4.58579 15.4142 4.25 15 4.25V5.75ZM4 8.25C3.58579 8.25 3.25 8.58579 3.25 9C3.25 9.41421 3.58579 9.75 4 9.75V8.25ZM15 9.75C15.4142 9.75 15.75 9.41421 15.75 9C15.75 8.58579 15.4142 8.25 15 8.25V9.75ZM1.75 1C1.75 0.585786 1.41421 0.25 1 0.25C0.585786 0.25 0.25 0.585786 0.25 1H1.75ZM0.25 1.00999C0.25 1.42421 0.585786 1.75999 1 1.75999C1.41421 1.75999 1.75 1.42421 1.75 1.00999H0.25ZM1.75 5C1.75 4.58579 1.41421 4.25 1 4.25C0.585786 4.25 0.25 4.58579 0.25 5H1.75ZM0.25 5.00999C0.25 5.42421 0.585786 5.75999 1 5.75999C1.41421 5.75999 1.75 5.42421 1.75 5.00999H0.25ZM1.75 9C1.75 8.58579 1.41421 8.25 1 8.25C0.585786 8.25 0.25 8.58579 0.25 9H1.75ZM0.25 9.00999C0.25 9.42421 0.585786 9.75999 1 9.75999C1.41421 9.75999 1.75 9.42421 1.75 9.00999H0.25ZM4 1.75H15V0.25H4V1.75ZM4 5.75H15V4.25H4V5.75ZM4 9.75H15V8.25H4V9.75ZM0.25 1V1.00999H1.75V1H0.25ZM0.25 5V5.00999H1.75V5H0.25ZM0.25 9V9.00999H1.75V9H0.25Z" fill="#899AFF"/>
    </svg>
    