<svg width="20" height="27" viewBox="0 0 20 27" fill="none" xmlns="http://www.w3.org/2000/svg">
    <path d="M6.30508 12.1022C7.51711 11.2433 8.12728 10.1224 8.02351 7.55855V0.966404C8.02351 0.0473692 6.3964 -0.0642893 6.31753 0.966404L6.25527 6.31312C6.25527 6.51245 6.17874 6.70361 6.04251 6.84455C5.90629 6.98549 5.72153 7.06467 5.52888 7.06467C5.33623 7.06467 5.15146 6.98549 5.01524 6.84455C4.87901 6.70361 4.80248 6.51245 4.80248 6.31312L4.86475 0.781738C4.86475 -0.20601 3.29989 -0.304784 3.28329 0.781738C3.28329 2.31919 3.22103 4.77997 3.22103 6.31312C3.23582 6.40653 3.2308 6.50215 3.20632 6.59335C3.18184 6.68455 3.13848 6.76915 3.07925 6.84129C3.02002 6.91343 2.94634 6.97137 2.86331 7.01112C2.78028 7.05086 2.68989 7.07144 2.59841 7.07144C2.50692 7.07144 2.41653 7.05086 2.3335 7.01112C2.25047 6.97137 2.17679 6.91343 2.11756 6.84129C2.05833 6.76915 2.01497 6.68455 1.99049 6.59335C1.96601 6.50215 1.96099 6.40653 1.97578 6.31312L2.03805 0.820389C2.02499 0.663816 1.97242 0.513534 1.88561 0.384576C1.79879 0.255617 1.68078 0.152502 1.54336 0.0855438C1.40594 0.0185856 1.25394 -0.00986842 1.10256 0.00302715C0.951172 0.0159227 0.805715 0.0697163 0.680732 0.159027C0.107921 0.536948 0.224143 1.29708 0.199239 1.94127L0 8.24997C0.0290557 10.0837 0.493947 11.574 1.88447 12.2095C2.15121 12.3192 2.43005 12.3942 2.71463 12.4329L2.24559 25.3423C2.24007 25.5561 2.27568 25.769 2.35034 25.9685C2.425 26.168 2.53723 26.3501 2.6805 26.5043C2.82378 26.6586 2.99525 26.7818 3.18495 26.8669C3.37465 26.952 3.57879 26.9972 3.78554 27H3.97647C4.20867 26.9961 4.43783 26.9447 4.65073 26.8487C4.86364 26.7528 5.05609 26.6142 5.21699 26.4409C5.37789 26.2677 5.50405 26.0632 5.58821 25.8393C5.67237 25.6153 5.71287 25.3764 5.70736 25.1362L5.29228 12.4286C5.64861 12.3895 5.9941 12.2786 6.30923 12.1022H6.30508ZM13.7765 24.8785L13.7558 13.5366C9.06951 10.7365 10.5638 -0.0514062 15.2501 0.00871759C20.945 0.0774305 21.6216 12.1666 16.7236 13.4936L17.0847 24.9343C17.1553 27.5669 13.7641 27.8117 13.7641 24.8785H13.7765Z" fill="white"/>
    </svg>
    