<svg width="38" height="38" viewBox="0 0 38 38" fill="#707C89" xmlns="http://www.w3.org/2000/svg">
    <mask id="path-1-inside-1_1884_110110" fill="white">
    <path fill-rule="evenodd" clip-rule="evenodd" d="M19.0224 1.75015C9.4952 1.75015 1.77185 9.4735 1.77185 19.0007C1.77185 28.528 9.4952 36.2513 19.0224 36.2513C28.5497 36.2513 36.273 28.528 36.273 19.0007C36.273 9.4735 28.5497 1.75015 19.0224 1.75015ZM0.271851 19.0007C0.271851 8.64507 8.66677 0.250153 19.0224 0.250153C29.3781 0.250153 37.773 8.64507 37.773 19.0007C37.773 29.3564 29.3781 37.7513 19.0224 37.7513C8.66677 37.7513 0.271851 29.3564 0.271851 19.0007ZM19.0225 9.25052C19.4367 9.25052 19.7725 9.58631 19.7725 10.0005V20.5009C19.7725 20.9151 19.4367 21.2509 19.0225 21.2509C18.6083 21.2509 18.2725 20.9151 18.2725 20.5009V10.0005C18.2725 9.58631 18.6083 9.25052 19.0225 9.25052ZM20.5225 26.2484C20.5225 27.0768 19.8509 27.7484 19.0225 27.7484C18.1941 27.7484 17.5225 27.0768 17.5225 26.2484C17.5225 25.42 18.1941 24.7484 19.0225 24.7484C19.8509 24.7484 20.5225 25.42 20.5225 26.2484Z"/>
    </mask>
    <path fill-rule="evenodd" clip-rule="evenodd" d="M19.0224 1.75015C9.4952 1.75015 1.77185 9.4735 1.77185 19.0007C1.77185 28.528 9.4952 36.2513 19.0224 36.2513C28.5497 36.2513 36.273 28.528 36.273 19.0007C36.273 9.4735 28.5497 1.75015 19.0224 1.75015ZM0.271851 19.0007C0.271851 8.64507 8.66677 0.250153 19.0224 0.250153C29.3781 0.250153 37.773 8.64507 37.773 19.0007C37.773 29.3564 29.3781 37.7513 19.0224 37.7513C8.66677 37.7513 0.271851 29.3564 0.271851 19.0007ZM19.0225 9.25052C19.4367 9.25052 19.7725 9.58631 19.7725 10.0005V20.5009C19.7725 20.9151 19.4367 21.2509 19.0225 21.2509C18.6083 21.2509 18.2725 20.9151 18.2725 20.5009V10.0005C18.2725 9.58631 18.6083 9.25052 19.0225 9.25052ZM20.5225 26.2484C20.5225 27.0768 19.8509 27.7484 19.0225 27.7484C18.1941 27.7484 17.5225 27.0768 17.5225 26.2484C17.5225 25.42 18.1941 24.7484 19.0225 24.7484C19.8509 24.7484 20.5225 25.42 20.5225 26.2484Z" />
    <path d="M3.27185 19.0007C3.27185 10.3019 10.3236 3.25015 19.0224 3.25015V0.250153C8.66677 0.250153 0.271851 8.64507 0.271851 19.0007H3.27185ZM19.0224 34.7513C10.3236 34.7513 3.27185 27.6995 3.27185 19.0007H0.271851C0.271851 29.3564 8.66677 37.7513 19.0224 37.7513V34.7513ZM34.773 19.0007C34.773 27.6995 27.7212 34.7513 19.0224 34.7513V37.7513C29.3781 37.7513 37.773 29.3564 37.773 19.0007H34.773ZM19.0224 3.25015C27.7212 3.25015 34.773 10.3019 34.773 19.0007H37.773C37.773 8.64507 29.3781 0.250153 19.0224 0.250153V3.25015ZM19.0224 -1.24985C7.83835 -1.24985 -1.22815 7.81665 -1.22815 19.0007H1.77185C1.77185 9.4735 9.4952 1.75015 19.0224 1.75015V-1.24985ZM39.273 19.0007C39.273 7.81665 30.2065 -1.24985 19.0224 -1.24985V1.75015C28.5497 1.75015 36.273 9.4735 36.273 19.0007H39.273ZM19.0224 39.2513C30.2065 39.2513 39.273 30.1848 39.273 19.0007H36.273C36.273 28.528 28.5497 36.2513 19.0224 36.2513V39.2513ZM-1.22815 19.0007C-1.22815 30.1848 7.83835 39.2513 19.0224 39.2513V36.2513C9.4952 36.2513 1.77185 28.528 1.77185 19.0007H-1.22815ZM21.2725 10.0005C21.2725 8.75788 20.2652 7.75052 19.0225 7.75052V10.7505C18.6083 10.7505 18.2725 10.4147 18.2725 10.0005H21.2725ZM21.2725 20.5009V10.0005H18.2725V20.5009H21.2725ZM19.0225 22.7509C20.2652 22.7509 21.2725 21.7435 21.2725 20.5009H18.2725C18.2725 20.0866 18.6083 19.7509 19.0225 19.7509V22.7509ZM16.7725 20.5009C16.7725 21.7435 17.7799 22.7509 19.0225 22.7509V19.7509C19.4367 19.7509 19.7725 20.0866 19.7725 20.5009H16.7725ZM16.7725 10.0005V20.5009H19.7725V10.0005H16.7725ZM19.0225 7.75052C17.7799 7.75052 16.7725 8.75788 16.7725 10.0005H19.7725C19.7725 10.4147 19.4367 10.7505 19.0225 10.7505V7.75052ZM19.0225 29.2484C20.6794 29.2484 22.0225 27.9053 22.0225 26.2484H19.0225V29.2484ZM16.0225 26.2484C16.0225 27.9053 17.3657 29.2484 19.0225 29.2484V26.2484H16.0225ZM19.0225 23.2484C17.3657 23.2484 16.0225 24.5916 16.0225 26.2484H19.0225V23.2484ZM22.0225 26.2484C22.0225 24.5916 20.6794 23.2484 19.0225 23.2484V26.2484H22.0225Z"  mask="url(#path-1-inside-1_1884_110110)"/>
    </svg>
