<?xml version="1.0" encoding="utf-8"?>
<!-- Generator: Adobe Illustrator 16.0.4, SVG Export Plug-In . SVG Version: 6.00 Build 0)  -->
<!DOCTYPE svg PUBLIC "-//W3C//DTD SVG 1.1//EN" "http://www.w3.org/Graphics/SVG/1.1/DTD/svg11.dtd">
<svg version="1.1" id="Layer_1" xmlns="http://www.w3.org/2000/svg" xmlns:xlink="http://www.w3.org/1999/xlink" x="0px" y="0px"
	 width="100px" height="100px" viewBox="17 0 100 100" enable-background="new 17 0 100 100" xml:space="preserve">
<path fill="#EA651B" d="M28.142,81.472c3.248,4.007,7.173,7.579,11.743,10.53c23.199,14.975,54.143,8.311,69.119-14.887
	c7.989-12.375,9.818-26.954,6.265-40.139c-1.203,8.251-4.151,16.383-8.97,23.847C89.338,87.091,55.314,95.688,28.142,81.472z"/>
<path fill="#FF7E1C" d="M24.998,22.885c-12.026,18.628-10.095,42.248,3.144,58.586c27.173,14.216,61.196,5.619,78.156-20.649
	c4.818-7.464,7.767-15.596,8.97-23.847c-3.106-11.529-10.329-21.991-21.151-28.978C70.917-6.978,39.973-0.312,24.998,22.885z"/>
<g>
	<g>
		<g>
			<path fill="#FFFFFF" d="M82.19,50.536c1.118,1.397,1.564,3.322,1.342,5.781c-0.336,2.963-1.565,5.119-3.689,6.46
				c-1.845,1.118-4.616,1.788-8.305,2.013v5.701h-4.104v-5.622h-3.187v5.622h-4.112V64.79h-8.13l0.839-4.863h0.838
				c1.341,0.056,2.204,0.023,2.595-0.088c0.559-0.168,0.894-0.583,1.006-1.254V40.387c-0.167-0.895-0.638-1.454-1.421-1.677
				c-0.503-0.167-1.565-0.224-3.186-0.167h-0.671v-4.36l2.516,0.088c2.963,0,4.831-0.032,5.614-0.088v-6.62h4.112v6.541l3.187-0.088
				v-6.453h4.104v6.62c2.851,0.279,5.031,0.895,6.54,1.845c1.845,1.118,2.851,2.795,3.019,5.03c0.335,3.242-0.807,5.534-3.434,6.875
				l0,0C79.73,48.379,81.239,49.25,82.19,50.536L82.19,50.536z M64.327,46.926h0.671c2.348,0.057,4.168-0.08,5.455-0.416
				c2.235-0.559,3.354-1.765,3.354-3.609c0-1.845-1.094-3.074-3.274-3.689c-1.229-0.336-3.042-0.471-5.445-0.416
				c-0.392,0.056-0.647,0.079-0.759,0.079V46.926z M65.086,59.926c2.851,0.056,4.998-0.088,6.452-0.423
				c2.627-0.671,3.944-2.013,3.944-4.024c0-2.014-1.286-3.354-3.856-4.024c-1.397-0.393-3.522-0.527-6.373-0.417h-0.927v8.889
				H65.086z"/>
		</g>
	</g>
</g>
</svg>
