<?xml version="1.0" encoding="utf-8"?>
<!-- Generator: Adobe Illustrator 16.0.4, SVG Export Plug-In . SVG Version: 6.00 Build 0)  -->
<!DOCTYPE svg PUBLIC "-//W3C//DTD SVG 1.1//EN" "http://www.w3.org/Graphics/SVG/1.1/DTD/svg11.dtd">
<svg version="1.1" id="Layer_1" xmlns="http://www.w3.org/2000/svg" xmlns:xlink="http://www.w3.org/1999/xlink" x="0px" y="0px"
	 width="375px" height="235px" viewBox="0 0 375 235" enable-background="new 0 0 375 235" xml:space="preserve">
<g>
	<rect fill="#3654FF" width="374.999" height="235"/>
	<g>
		<rect x="31.216" y="69" fill="none" width="147.567" height="74.275"/>
		<text transform="matrix(1 0 0 1 37.7769 80.5195)"><tspan x="0" y="0" fill="#FFFFFF"  font-size="16">That’s all for now, </tspan><tspan x="-1.328" y="19" fill="#FFFFFF"  font-size="16">we’ll let you know </tspan><tspan x="-5.088" y="38" fill="#FFFFFF"  font-size="16">when there’s more </tspan><tspan x="26.576" y="57" fill="#FFFFFF"  font-size="16">to unearth</tspan></text>
	</g>
	<g>
		<ellipse opacity="0.2" fill="#232323" cx="280.905" cy="169.077" rx="36.693" ry="5.923"/>
		<path fill="#232323" d="M289.171,96.885c-2.387,0.248-4.286,2.115-4.062,4.733c0.215,2.604,3.291,5.085,6.622,4.762
			c9.48-0.91,17.362-6.234,21.741-14.691c1.539-2.972,0.387-6.752-1.947-7.921c-2.348-1.183-4.789-0.12-5.91,2.003
			C302.302,92.166,296.341,96.197,289.171,96.885z"/>
		<path fill="#232323" d="M315.027,82.435c0.45-0.525,0.656-1.235,0.351-1.649c-0.304-0.414-1.174-0.377-1.852,0.188
			c-1.838,1.53-3.176,3.643-3.768,6.049c-0.217,0.897,0.49,1.628,1.428,1.604c0.943-0.025,1.662-0.53,1.714-1.156
			C313.036,85.684,313.753,83.902,315.027,82.435z"/>
		<path fill="#232323" d="M317.491,85.698c0.64-0.26,1.147-0.8,1.062-1.308c-0.082-0.504-0.871-0.87-1.733-0.675
			c-2.335,0.526-4.487,1.795-6.108,3.67c-0.602,0.698-0.307,1.67,0.541,2.077c0.85,0.41,1.723,0.287,2.05-0.248
			C314.241,87.686,315.687,86.427,317.491,85.698z"/>
		<path fill="#232323" d="M258.218,131.648c0.137,1.083,3.721,31.691,8.936,35.982c5.213,4.29,7.951,2.845,9.011,1.705
			c1.108-1.193,2.512-3.34-0.086-5.761c-2.086-1.947-3.554-10.57-1.472-24.028L258.218,131.648z"/>
		<path fill="#232323" d="M278.126,129.739c0.138,1.083,3.722,31.691,8.936,35.982c5.215,4.289,7.952,2.844,9.012,1.704
			c1.109-1.192,2.51-3.34-0.086-5.761c-2.086-1.948-3.555-10.57-1.473-24.028L278.126,129.739z"/>
		<path fill="#FFFFFF" d="M262.391,85.418c6.024-3.344,13.662-5.139,27.759-5.69c-3.361-1.421-7.809-2.083-14.318-2.083h-0.01
			c-11.141,0-16.295,1.901-20.172,6.315c-4.581,5.214-6.894,20.124-7.357,31.726C249.032,104.79,253.454,90.383,262.391,85.418z"/>
		<path fill="#444444" d="M248.292,115.685c-0.108,1.602-0.134,3.122-0.086,4.53C248.2,118.788,248.229,117.269,248.292,115.685z"/>
		<path fill="#444444" d="M238.543,134.381c-1.591,1.131-3.646,1.522-4.73,0.555c-1.081-0.957-0.754-3.399,1.015-5.155
			c4.787-4.771,11.074-7.983,17.996-9.015c2.579-0.377,4.449,1.799,4.134,4.433c-0.312,2.646-1.923,4.538-3.691,4.516
			C248.204,129.636,243.005,131.181,238.543,134.381z"/>
		<path fill="#444444" d="M296.004,83.959c-1.415-1.611-3.006-2.885-4.991-3.856c-0.275-0.135-0.572-0.254-0.863-0.376
			c-2.27,0.089-4.357,0.213-6.312,0.368c-4.799,0.169-8.561,0.707-11.611,1.663c-3.934,0.913-7.061,2.12-9.835,3.66
			c-8.937,4.965-13.358,19.372-14.099,30.267c-0.062,1.583-0.092,3.103-0.086,4.53c0.012,3.685,0.246,6.747,0.688,8.597
			c0.478,2,2.391,3.708,5.398,5.056c4.795,2.148,12.391,3.375,21.529,3.375h0.01c0.857,0,1.697-0.013,2.525-0.034
			c0.257-0.007,0.506-0.018,0.76-0.026c0.574-0.019,1.143-0.042,1.701-0.073c0.279-0.014,0.555-0.03,0.83-0.048
			c0.542-0.033,1.074-0.073,1.602-0.116c0.247-0.02,0.496-0.04,0.741-0.062c0.642-0.059,1.268-0.125,1.884-0.199
			c0.107-0.013,0.221-0.023,0.328-0.037c0.726-0.09,1.432-0.191,2.118-0.3c0.166-0.028,0.325-0.058,0.489-0.085
			c0.514-0.087,1.018-0.177,1.508-0.275c0.207-0.04,0.41-0.083,0.613-0.126c0.442-0.094,0.875-0.193,1.297-0.295
			c0.191-0.047,0.385-0.093,0.572-0.141c0.457-0.12,0.898-0.244,1.328-0.373c0.1-0.029,0.207-0.055,0.305-0.085
			c-0.004,0-0.008,0-0.012,0c2.941-0.912,5.227-2.074,6.672-3.453c0.016-0.015,0.025-0.03,0.04-0.044
			c0.271-0.262,0.517-0.53,0.726-0.807c0.082-0.107,0.133-0.222,0.206-0.331c0.124-0.189,0.257-0.375,0.352-0.569
			c0.151-0.308,0.267-0.625,0.344-0.949C304.626,120.994,302.823,91.724,296.004,83.959z"/>
		<ellipse fill="#444444" cx="275.926" cy="125.333" rx="27.366" ry="21.563"/>
		<g>
			<path fill="#232323" d="M278.94,166.354c0.654,0.186,1.375,0.076,1.619-0.366c0.244-0.441-0.146-1.205-0.932-1.577
				c-2.127-1.013-4.564-1.339-6.958-0.875c-0.892,0.176-1.253,1.107-0.844,1.936c0.409,0.834,1.157,1.269,1.735,1.057
				C275.217,165.916,277.104,165.82,278.94,166.354z"/>
			<path fill="#232323" d="M277.922,170.162c0.576,0.361,1.299,0.456,1.655,0.097c0.358-0.354,0.194-1.198-0.457-1.772
				c-1.762-1.562-4.014-2.552-6.441-2.771c-0.905-0.078-1.512,0.717-1.35,1.627c0.162,0.913,0.761,1.54,1.377,1.495
				C274.465,168.708,276.305,169.139,277.922,170.162z"/>
			<path fill="#232323" d="M275.11,173.042c0.348,0.583,0.949,0.998,1.43,0.841c0.479-0.154,0.717-0.979,0.4-1.787
				c-0.857-2.193-2.412-4.1-4.475-5.399c-0.77-0.483-1.672-0.052-1.94,0.833c-0.272,0.887-0.024,1.718,0.544,1.958
				C272.694,170.174,274.135,171.396,275.11,173.042z"/>
		</g>
		<g>
			<path fill="#232323" d="M299.748,164.091c0.653,0.186,1.374,0.076,1.619-0.366c0.243-0.441-0.146-1.205-0.932-1.577
				c-2.127-1.013-4.565-1.339-6.958-0.875c-0.892,0.176-1.254,1.108-0.844,1.936c0.408,0.835,1.156,1.269,1.734,1.057
				C296.024,163.653,297.911,163.557,299.748,164.091z"/>
			<path fill="#232323" d="M298.729,167.899c0.576,0.361,1.299,0.456,1.655,0.097c0.358-0.355,0.194-1.198-0.457-1.773
				c-1.763-1.562-4.014-2.552-6.442-2.771c-0.904-0.078-1.511,0.718-1.348,1.627c0.161,0.913,0.76,1.539,1.376,1.495
				C295.272,166.444,297.112,166.876,298.729,167.899z"/>
			<path fill="#232323" d="M295.917,170.779c0.348,0.583,0.949,0.998,1.43,0.841c0.48-0.154,0.717-0.979,0.4-1.787
				c-0.856-2.193-2.411-4.1-4.475-5.399c-0.769-0.483-1.672-0.052-1.939,0.834c-0.272,0.886-0.025,1.717,0.543,1.958
				C293.501,167.911,294.942,169.133,295.917,170.779z"/>
		</g>
		<g>
			<path fill="#232323" d="M268.202,94.799c-1.535-1.843-4.145-2.377-6.192-0.733c-2.042,1.63-2.387,5.567-0.26,8.154
				c6.04,7.361,14.854,10.935,24.316,9.855c3.325-0.379,5.821-3.442,5.489-6.033c-0.326-2.608-2.572-4.042-4.957-3.789
				C279.44,103.07,272.773,100.369,268.202,94.799z"/>
			<g>
				<path fill="#232323" d="M293.948,104.221c0.637-0.119,1.203-0.521,1.223-1c0.021-0.479-0.637-0.964-1.463-0.946
					c-2.242,0.042-4.457,0.802-6.299,2.216c-0.684,0.528-0.596,1.476,0.104,2.008c0.704,0.536,1.526,0.586,1.929,0.16
					C290.591,105.433,292.157,104.547,293.948,104.221z"/>
				<path fill="#232323" d="M294.702,107.898c0.645,0.062,1.3-0.165,1.451-0.623c0.153-0.456-0.346-1.103-1.145-1.315
					c-2.164-0.581-4.504-0.465-6.664,0.384c-0.805,0.318-0.982,1.252-0.457,1.958c0.527,0.708,1.305,0.986,1.809,0.688
					C291.138,108.129,292.89,107.715,294.702,107.898z"/>
				<path fill="#232323" d="M293.534,111.548c0.545,0.349,1.232,0.444,1.576,0.107c0.342-0.335,0.193-1.138-0.422-1.693
					c-1.662-1.502-3.799-2.464-6.107-2.693c-0.861-0.084-1.445,0.668-1.298,1.536c0.146,0.871,0.71,1.474,1.296,1.436
					C290.255,110.132,292.001,110.56,293.534,111.548z"/>
			</g>
		</g>
		<g>
			<g>
				<path fill="#7F7F7F" d="M215.252,52.023l14.158,5.328c1.784,0.673,3.804-0.242,4.476-2.028l3.033-8.25l-0.128-0.048
					c-3.316-1.249-4.946-4.847-3.698-8.164c0.624-1.658,1.75-2.909,3.33-3.625c1.492-0.676,3.263-0.738,4.92-0.114l0.041,0.088
					l3.032-8.251c0.335-0.893,0.329-1.842-0.028-2.631c-0.358-0.791-1.107-1.509-1.96-1.757l-14.158-5.329
					c-4.679-1.688-9.639-1.662-14.203,0.406s-7.981,5.732-9.671,10.411C200.835,37.714,205.687,48.423,215.252,52.023z"/>
				<path fill="#444444" d="M235.469,36.002c-0.894-0.336-1.841-0.329-2.632,0.029c-0.789,0.358-1.42,1.066-1.757,1.959
					c-0.671,1.786,0.243,3.804,2.028,4.477l76.84,28.324c-0.474,2.224-0.691,4.545-0.392,6.842l0.315,3.031
					c0.166,1.3,0.986,2.41,2.222,2.802l12.243,4.609c1.786,0.672,3.805-0.243,4.478-2.028l7.737-20.75
					c0.672-1.786-0.243-3.805-2.029-4.477l-12.244-4.609c-0.893-0.335-1.841-0.329-2.631,0.029
					c-0.352,0.159-0.574,0.366-0.887,0.613l-2.322,2.111c-1.741,1.529-3.02,3.378-4.219,5.402L235.469,36.002z M321.112,64.146
					l0.76-0.661l7.142,2.688l-5.376,14.285l-7.104-2.601l-0.135-0.997C315.72,72.091,317.584,67.332,321.112,64.146z"/>
			</g>
		</g>
		<g>
			<path fill="#FFFFFF" d="M258.442,63.759c-1.791-9.908,5.174-15.699,22.425-16.734c5.476-0.328,10.536-6.758,14.49-7.934
				c11.377-3.385,14.079,4.027,14.079,4.027l0.023,0.002c-5.603-12.816-21.592-20.316-38.547-17.18
				c-19.244,3.562-32.435,19.475-29.461,35.543c2.972,16.069,20.982,26.208,40.227,22.646c1.677-0.31,3.305-0.719,4.883-1.209
				l-0.002-0.02C269.827,87.212,260.817,76.908,258.442,63.759z"/>
			<path fill="#444444" d="M311.142,48.588c-0.354-1.912-0.926-3.737-1.682-5.469l-0.023-0.002c0,0-2.702-7.412-14.079-4.027
				c-3.954,1.176-9.015,7.606-14.49,7.934c-17.251,1.035-24.216,6.827-22.425,16.734c2.375,13.149,11.385,23.453,28.117,19.141
				l0.002,0.02C303.098,77.789,313.856,63.256,311.142,48.588z"/>
			<path fill="#7F7F7F" d="M293.227,76.394c-3.665,0.827-11.461-1.023-11.492-8.938c-0.031-7.913,8.551-10.479,11.44-11.129
				c2.891-0.652,11.485-1.961,11.516,5.951C304.724,70.194,296.894,75.567,293.227,76.394z"/>
			<path fill="#232323" d="M293.356,58.365c1.595-0.36,3.957,0.875,4.242,2.871s-4.321,2.961-4.321,2.961l-0.134,0.029
				c0,0-4.607,1.114-4.337-1.009c0.269-2.121,2.616-4.417,4.21-4.777L293.356,58.365z"/>
			<path fill="none" stroke="#232323" stroke-width="1.035" stroke-linecap="round" stroke-miterlimit="10" d="M298.853,67.024
				c-0.305,0.846-0.75,1.646-1.3,2.356c-0.552,0.712-1.207,1.333-1.935,1.827c-0.732,0.495-1.532,0.854-2.377,1.046
				c-0.842,0.19-1.646,0.191-2.378,0.026c-0.73-0.164-1.392-0.488-1.946-0.951c-0.555-0.461-1.004-1.06-1.316-1.766"/>
			<circle fill="#232323" cx="277.762" cy="57.03" r="1.452"/>
			<circle fill="#232323" cx="300.187" cy="49.095" r="1.451"/>
			<path fill="#444444" d="M263.728,65.466c1.109,5.601,0.232,10.493-1.966,10.93c-2.195,0.433-4.874-3.754-5.985-9.352
				c-1.109-5.601-0.229-10.494,1.963-10.928C259.935,55.68,262.615,59.867,263.728,65.466z"/>
			<path fill="#232323" d="M260.108,59.678c-1.805,0.371-2.709,4.043-2.462,8.978c-0.166-0.598-0.315-1.224-0.442-1.878
				c-0.85-4.403-0.379-8.21,1.051-8.503c0.606-0.126,1.291,0.41,1.94,1.4C260.167,59.678,260.137,59.672,260.108,59.678z"/>
			<path fill="none" stroke="#7F7F7F" stroke-width="1.1425" stroke-linecap="round" stroke-miterlimit="10" d="M273.304,57.937
				c-0.045-0.509,0.012-1.02,0.16-1.5c0.146-0.482,0.387-0.935,0.71-1.33c0.321-0.396,0.728-0.736,1.208-0.99
				c0.48-0.255,0.99-0.399,1.499-0.444"/>
			<path fill="none" stroke="#7F7F7F" stroke-width="1.1425" stroke-linecap="round" stroke-miterlimit="10" d="M298.548,45.604
				c0.446-0.25,0.936-0.409,1.433-0.47c0.501-0.062,1.013-0.029,1.506,0.103c0.493,0.131,0.968,0.362,1.397,0.696
				s0.77,0.739,1.021,1.186"/>
		</g>
		<path fill="#232323" d="M311.357,80.83c0.288-0.63,0.286-1.369-0.12-1.684c-0.404-0.312-1.233-0.035-1.727,0.695
			c-1.341,1.98-2.043,4.38-1.942,6.856c0.04,0.923,0.921,1.429,1.816,1.144c0.9-0.284,1.45-0.969,1.326-1.583
			C310.348,84.503,310.54,82.592,311.357,80.83z"/>
	</g>
	
		<line opacity="0.3" fill="none" stroke="#FFFFFF" stroke-width="2" stroke-linecap="round" stroke-miterlimit="10" stroke-dasharray="4,6" x1="105" y1="150" x2="105" y2="235"/>
</g>
</svg>
