<?xml version="1.0" encoding="utf-8"?>
<!-- Generator: Adobe Illustrator 16.0.4, SVG Export Plug-In . SVG Version: 6.00 Build 0)  -->
<!DOCTYPE svg PUBLIC "-//W3C//DTD SVG 1.1//EN" "http://www.w3.org/Graphics/SVG/1.1/DTD/svg11.dtd">
<svg version="1.1" id="Layer_1" xmlns="http://www.w3.org/2000/svg" xmlns:xlink="http://www.w3.org/1999/xlink" x="0px" y="0px"
	 width="375px" height="170px" viewBox="0 0 375 170" enable-background="new 0 0 375 170" xml:space="preserve">
<g>
	<rect fill="#3654FF" width="374.999" height="170"/>
	<g opacity="0.2">
		<path stroke="#000000" stroke-width="1.3496" stroke-linejoin="round" stroke-miterlimit="10" d="M314.99,31.508
			c3.074,4.396,5.064,11.434,5.064,19.367h4.367C324.422,41.547,320.412,33.711,314.99,31.508z"/>
		<path stroke="#000000" stroke-width="1.3496" stroke-linejoin="round" stroke-miterlimit="10" d="M314.277,39.727
			c1.769,2.531,2.916,6.582,2.916,11.148h2.513C319.706,45.506,317.398,40.996,314.277,39.727z"/>
		<path stroke="#000000" stroke-width="1.3496" stroke-linejoin="round" stroke-miterlimit="10" d="M324.245,50.875h3.084
			c0-4.957,1.101-9.42,2.857-12.531C326.729,40.148,324.245,45.076,324.245,50.875z"/>
		<path stroke="#000000" stroke-width="1.3496" stroke-linejoin="round" stroke-miterlimit="10" d="M327.469,50.764
			c2.186-3.602,4.951-6.611,7.6-8.506c-2.799,0.496-6.072,2.768-8.563,6.006c0.368,0.764,0.68,1.6,0.933,2.49L327.469,50.764z"/>
		<path stroke="#000000" stroke-width="1.3496" stroke-linejoin="round" stroke-miterlimit="10" d="M316.994,50.863
			c0.253-0.891,0.563-1.725,0.933-2.49c-2.491-3.236-5.765-5.51-8.563-6.006c2.648,1.895,5.414,4.904,7.6,8.506L316.994,50.863z"/>
	</g>
	<ellipse opacity="0.3" fill="#232323" cx="105" cy="163.854" rx="38.078" ry="6.146"/>
</g>
</svg>
