<?xml version="1.0" encoding="utf-8"?>
<!-- Generator: Adobe Illustrator 16.0.4, SVG Export Plug-In . SVG Version: 6.00 Build 0)  -->
<!DOCTYPE svg PUBLIC "-//W3C//DTD SVG 1.1//EN" "http://www.w3.org/Graphics/SVG/1.1/DTD/svg11.dtd">
<svg version="1.1" id="Layer_1" xmlns="http://www.w3.org/2000/svg" xmlns:xlink="http://www.w3.org/1999/xlink" x="0px" y="0px"
	 width="375px" height="170px" viewBox="0 0 375 170" enable-background="new 0 0 375 170" xml:space="preserve">
<g>
	<g opacity="0.2">
		<path stroke="#000000" stroke-width="1.3496" stroke-linejoin="round" stroke-miterlimit="10" d="M50.577,50.875h4.367
			c0-7.934,1.99-14.973,5.064-19.367C54.587,33.711,50.577,41.545,50.577,50.875z"/>
		<path stroke="#000000" stroke-width="1.3496" stroke-linejoin="round" stroke-miterlimit="10" d="M55.293,50.875h2.513
			c0-4.566,1.147-8.619,2.916-11.148C57.601,40.994,55.293,45.504,55.293,50.875z"/>
		<path stroke="#000000" stroke-width="1.3496" stroke-linejoin="round" stroke-miterlimit="10" d="M44.812,38.342
			c1.757,3.113,2.857,7.574,2.857,12.533h3.084C50.754,45.076,48.271,40.146,44.812,38.342z"/>
		<path stroke="#000000" stroke-width="1.3496" stroke-linejoin="round" stroke-miterlimit="10" d="M47.562,50.754
			c0.253-0.891,0.564-1.727,0.933-2.49c-2.491-3.238-5.765-5.51-8.563-6.008c2.648,1.895,5.414,4.906,7.6,8.508L47.562,50.754z"/>
		<path stroke="#000000" stroke-width="1.3496" stroke-linejoin="round" stroke-miterlimit="10" d="M58.036,50.873
			c2.186-3.602,4.951-6.613,7.6-8.506c-2.799,0.496-6.072,2.768-8.563,6.006c0.369,0.764,0.68,1.6,0.933,2.49L58.036,50.873z"/>
	</g>
	<ellipse fill="#232323" cx="269.999" cy="163.854" rx="38.078" ry="6.146"/>
	
		<path opacity="0.3" fill="none" stroke="#FFFFFF" stroke-width="2" stroke-linecap="round" stroke-miterlimit="10" stroke-dasharray="4,6" enable-background="new    " d="
		M105,5v69c0,5.523,4.478,10,10,10h62c5.522,0,10,4.477,10,10v59c0,5.523,4.479,10,10,10h28"/>
</g>
</svg>
