<?xml version="1.0" encoding="utf-8"?>
<!-- Generator: Adobe Illustrator 16.0.4, SVG Export Plug-In . SVG Version: 6.00 Build 0)  -->
<!DOCTYPE svg PUBLIC "-//W3C//DTD SVG 1.1//EN" "http://www.w3.org/Graphics/SVG/1.1/DTD/svg11.dtd">
<svg version="1.1" id="Layer_1" xmlns="http://www.w3.org/2000/svg" xmlns:xlink="http://www.w3.org/1999/xlink" x="0px" y="0px"
	 width="375px" height="170px" viewBox="0 0 375 170" enable-background="new 0 0 375 170" xml:space="preserve">
<g>
	<rect fill="#3654FF" width="374.999" height="170"/>
	<g>
		<g>
			<path fill="#232323" d="M317.985,164c-3.3,0-4.65-2.338-3-5.196l11.32-19.607c1.65-2.858,4.35-2.858,6,0l11.32,19.607
				c1.65,2.858,0.3,5.196-3,5.196H317.985z"/>
		</g>
		<g>
			<path fill="#232323" d="M333.951,164c-2.311,0-3.255-1.637-2.101-3.637l7.924-13.726c1.154-2,3.045-2,4.2,0l7.924,13.726
				c1.155,2,0.211,3.637-2.1,3.637H333.951z"/>
		</g>
	</g>
	<g opacity="0.2">
		<path stroke="#000000" stroke-width="1.3496" stroke-linejoin="round" stroke-miterlimit="10" d="M50.578,50.875h4.366
			c0-7.934,1.991-14.973,5.064-19.367C54.588,33.711,50.578,41.545,50.578,50.875z"/>
		<path stroke="#000000" stroke-width="1.3496" stroke-linejoin="round" stroke-miterlimit="10" d="M55.293,50.875h2.514
			c0-4.566,1.146-8.619,2.915-11.148C57.602,40.994,55.293,45.504,55.293,50.875z"/>
		<path stroke="#000000" stroke-width="1.3496" stroke-linejoin="round" stroke-miterlimit="10" d="M44.812,38.342
			c1.757,3.113,2.857,7.574,2.857,12.533h3.084C50.754,45.076,48.271,40.146,44.812,38.342z"/>
		<path stroke="#000000" stroke-width="1.3496" stroke-linejoin="round" stroke-miterlimit="10" d="M47.562,50.754
			c0.253-0.891,0.564-1.727,0.933-2.49c-2.49-3.238-5.764-5.51-8.563-6.008c2.648,1.895,5.415,4.906,7.601,8.508L47.562,50.754z"/>
		<path stroke="#000000" stroke-width="1.3496" stroke-linejoin="round" stroke-miterlimit="10" d="M58.036,50.873
			c2.186-3.602,4.951-6.613,7.6-8.506c-2.799,0.496-6.072,2.768-8.563,6.006c0.369,0.764,0.68,1.6,0.933,2.49L58.036,50.873z"/>
	</g>
	<ellipse fill="#232323" cx="269.999" cy="163.854" rx="38.078" ry="6.146"/>
	
		<path opacity="0.3" fill="none" stroke="#FFFFFF" stroke-width="2" stroke-linecap="round" stroke-miterlimit="10" stroke-dasharray="4,6" d="
		M105,5v69c0,5.523,4.477,10,10,10h62c5.522,0,10,4.477,10,10v59c0,5.523,4.477,10,10,10h28"/>
	<g>
		<defs>
			<path id="SVGID_1_" d="M308.077,93.656c0,3.395-17.049,6.146-38.078,6.146s-38.078-2.752-38.078-6.146v70.197
				c0,3.395,17.049,6.146,38.078,6.146s38.078-2.752,38.078-6.146V93.656z"/>
		</defs>
		<clipPath id="SVGID_2_">
			<use xlink:href="#SVGID_1_"  overflow="visible"/>
		</clipPath>
		<path clip-path="url(#SVGID_2_)" fill="#444444" d="M295.913,191.236c-1.062-9.939-5.188-22.066-13.037-26.445
			c-3.367-1.877-7.283-3.236-12.682-4.146c-1.281,0.211-2.477,0.451-3.605,0.715c-0.195,0.045-0.385,0.094-0.576,0.141
			c-0.336,0.084-0.666,0.168-0.988,0.256c-0.203,0.055-0.406,0.111-0.605,0.17c-0.324,0.092-0.641,0.189-0.955,0.289
			c-0.162,0.051-0.33,0.102-0.49,0.154c-0.449,0.148-0.889,0.303-1.316,0.465c-0.125,0.047-0.246,0.098-0.369,0.145
			c-0.322,0.125-0.639,0.254-0.949,0.385c-0.145,0.062-0.287,0.125-0.43,0.189c-0.295,0.131-0.586,0.266-0.873,0.404
			c-0.121,0.059-0.244,0.115-0.365,0.176c-0.398,0.197-0.789,0.4-1.17,0.611c-8.422,4.658-12.609,18.209-13.324,28.463
			c-0.062,1.492-0.092,2.922-0.088,4.264c0.004,3.469,0.217,6.352,0.631,8.094c0.02,0.08,0.055,0.158,0.08,0.238
			c2.094,9.539,12.629,16.807,25.332,16.83c14.225,0.025,25.773-9.039,25.795-20.248c0-0.104-0.008-0.205-0.01-0.309
			C296.14,199.184,296.146,195.369,295.913,191.236z"/>
		<path clip-path="url(#SVGID_2_)" fill="#FFFFFF" d="M289.224,163.43c-3.25-3.715-7.477-5.541-15.801-5.906
			c-0.131-0.006-0.268-0.01-0.4-0.016c-0.42-0.016-0.846-0.029-1.285-0.039c-0.436-0.008-0.879-0.014-1.336-0.016
			c-0.053,0-0.1-0.002-0.154-0.002h-0.01c-0.016,0-0.031,0-0.047,0c-0.01,0-0.02,0-0.027,0h-0.008c-0.031,0-0.059,0-0.09,0
			c-0.482,0-0.951,0.006-1.41,0.014c-0.523,0.008-1.027,0.023-1.521,0.041c-0.049,0.002-0.1,0.004-0.146,0.006
			c-8.334,0.332-12.566,2.145-15.832,5.848c-4.32,4.9-6.523,18.93-6.979,29.848c0.715-10.254,4.902-23.805,13.324-28.463
			c3.371-1.863,7.293-3.209,12.693-4.1c5.398,0.91,9.314,2.27,12.682,4.146c8.404,4.688,12.539,18.256,13.217,28.512
			C295.677,182.383,293.524,168.346,289.224,163.43z"/>
		<g clip-path="url(#SVGID_2_)">
			<path fill="#E6E7E8" d="M302.132,127.078c-5.191-16.135-21.781-18.428-31.586-18.445l-0.809-0.002
				c-9.805-0.02-26.402,2.213-31.652,18.328l32.084,16.635L302.132,127.078"/>
			<path fill="#444444" d="M288.749,120.93c-2.33-0.004-3.83,0.02-6.99,0.914c-2.697,0.766-7.457,2.561-11.531,2.553h-0.141
				c-4.076-0.006-8.83-1.82-11.525-2.594c-3.156-0.906-4.656-0.938-6.984-0.941c-8.852-0.016-10.027,6.57-10.027,6.57h-0.014
				c-4.465,16.293,3.17,16.137,3.17,16.137l50.811,0.094c0,0,7.621-0.293,3.096-16.625c-0.02-0.074-0.045-0.143-0.064-0.215
				C297.958,125.121,295.8,120.943,288.749,120.93z"/>
			<path fill="#444444" d="M269.952,165.891c-10.182-0.02-31.777-8.229-31.744-26.162c0.033-17.932,23.873-19.309,31.9-19.293
				c8.027,0.014,31.887,1.479,31.854,19.41C301.929,157.779,280.132,165.908,269.952,165.891z"/>
			<path fill="#7F7F7F" d="M270.017,157.576c-4.156-0.008-12.977-3.875-12.961-12.332c0.018-8.455,9.752-9.107,13.031-9.102
				c3.277,0.004,13.021,0.695,13.006,9.148C283.077,153.748,274.175,157.584,270.017,157.576z"/>
			<path fill="#232323" d="M270.28,138.361c1.809,0.004,4.475,1.895,4.785,4.094c0.311,2.201-4.914,2.113-4.914,2.113h-0.15
				c0,0-5.225,0.068-4.906-2.133c0.316-2.197,2.992-4.078,4.799-4.074H270.28z"/>
			<path fill="none" stroke="#7F7F7F" stroke-width="1.2571" stroke-linecap="round" stroke-miterlimit="10" d="M252.81,130.57
				c0.219-0.52,0.537-0.986,0.93-1.377s0.859-0.707,1.377-0.924c0.518-0.219,1.088-0.338,1.686-0.338
				c0.6,0.002,1.168,0.125,1.686,0.346"/>
			<path fill="none" stroke="#7F7F7F" stroke-width="1.2571" stroke-linecap="round" stroke-miterlimit="10" d="M287.396,130.822
				c-0.219-0.518-0.535-0.986-0.926-1.377c-0.391-0.393-0.857-0.711-1.373-0.93c-0.518-0.221-1.088-0.342-1.686-0.344
				c-0.598,0-1.168,0.119-1.686,0.336"/>
			<g>
				<circle fill="#232323" cx="256.767" cy="131.927" r="1.598"/>
				<circle fill="#232323" cx="283.432" cy="131.977" r="1.597"/>
			</g>
			<path fill="#444444" d="M244.354,137.516c0.178,6.281-1.676,11.428-4.139,11.498c-2.461,0.066-4.6-4.969-4.775-11.246
				c-0.176-6.279,1.678-11.424,4.135-11.496C242.038,126.203,244.179,131.238,244.354,137.516z"/>
			<path fill="#444444" d="M295.823,137.611c-0.199,6.279,1.633,11.434,4.098,11.512c2.459,0.076,4.617-4.951,4.814-11.227
				c0.201-6.281-1.633-11.432-4.094-11.512C298.179,126.305,296.022,131.334,295.823,137.611z"/>
			<path fill="#232323" d="M298.712,130.678c2.025,0.078,3.666,3.902,4.285,9.303c0.072-0.678,0.123-1.385,0.143-2.115
				c0.131-4.934-1.064-8.982-2.668-9.045c-0.682-0.027-1.328,0.678-1.855,1.869C298.647,130.689,298.679,130.676,298.712,130.678z"
				/>
			<path fill="#232323" d="M241.493,130.572c-2.027,0.072-3.682,3.891-4.32,9.287c-0.07-0.68-0.119-1.385-0.135-2.117
				c-0.113-4.934,1.098-8.979,2.701-9.035c0.682-0.021,1.324,0.686,1.85,1.877C241.556,130.584,241.526,130.572,241.493,130.572z"/>
			<path fill="#FFFFFF" d="M270.046,124.645c-4.598-0.008-9.961-1.822-13-2.598c-3.561-0.906-5.254-0.936-7.883-0.941
				c-7.953-0.016-10.406,4.152-11.078,5.854c5.25-16.115,21.848-18.348,31.652-18.328l0.809,0.002
				c9.805,0.018,26.395,2.311,31.586,18.445c-0.666-1.703-3.104-5.881-11.057-5.896c-2.627-0.004-4.322,0.02-7.885,0.914
				c-3.045,0.764-8.412,2.557-13.012,2.549H270.046z"/>
			<path fill="none" stroke="#232323" stroke-width="1.1389" stroke-linecap="round" stroke-miterlimit="10" d="M276.448,148.941
				c-0.352,0.828-0.859,1.574-1.486,2.199c-0.629,0.625-1.375,1.129-2.205,1.479s-1.74,0.541-2.697,0.539
				c-0.955-0.002-1.867-0.195-2.693-0.549c-0.826-0.352-1.574-0.857-2.199-1.486s-1.131-1.377-1.48-2.205"/>
		</g>
	</g>
</g>
</svg>
