<?xml version="1.0" encoding="utf-8"?>
<!-- Generator: Adobe Illustrator 16.0.4, SVG Export Plug-In . SVG Version: 6.00 Build 0)  -->
<!DOCTYPE svg PUBLIC "-//W3C//DTD SVG 1.1//EN" "http://www.w3.org/Graphics/SVG/1.1/DTD/svg11.dtd">
<svg version="1.1" id="Layer_1" xmlns="http://www.w3.org/2000/svg" xmlns:xlink="http://www.w3.org/1999/xlink" x="0px" y="0px"
	 width="375px" height="170px" viewBox="0 0 375 170" enable-background="new 0 0 375 170" xml:space="preserve">
<g>
	<g>
		<g>
			<path fill="#232323" d="M317.984,164c-3.301,0-4.65-2.338-3-5.195l11.32-19.607c1.649-2.858,4.35-2.858,6,0l11.319,19.607
				c1.649,2.857,0.3,5.195-3,5.195H317.984z"/>
		</g>
		<g>
			<path fill="#232323" d="M333.95,164c-2.312,0-3.255-1.637-2.101-3.637l7.926-13.727c1.154-2,3.045-2,4.199,0l7.926,13.727
				c1.154,2,0.209,3.637-2.102,3.637H333.95z"/>
		</g>
	</g>
	<g opacity="0.2">
		<path stroke="#000000" stroke-width="1.3496" stroke-linejoin="round" stroke-miterlimit="10" d="M50.578,50.875h4.366
			c0-7.934,1.991-14.973,5.064-19.367C54.588,33.711,50.578,41.545,50.578,50.875z"/>
		<path stroke="#000000" stroke-width="1.3496" stroke-linejoin="round" stroke-miterlimit="10" d="M55.293,50.875h2.514
			c0-4.566,1.146-8.619,2.915-11.148C57.602,40.994,55.293,45.504,55.293,50.875z"/>
		<path stroke="#000000" stroke-width="1.3496" stroke-linejoin="round" stroke-miterlimit="10" d="M44.812,38.342
			c1.757,3.113,2.857,7.574,2.857,12.533h3.084C50.754,45.076,48.271,40.146,44.812,38.342z"/>
		<path stroke="#000000" stroke-width="1.3496" stroke-linejoin="round" stroke-miterlimit="10" d="M47.562,50.754
			c0.253-0.891,0.564-1.727,0.933-2.49c-2.49-3.238-5.764-5.51-8.563-6.008c2.648,1.895,5.415,4.906,7.601,8.508L47.562,50.754z"/>
		<path stroke="#000000" stroke-width="1.3496" stroke-linejoin="round" stroke-miterlimit="10" d="M58.036,50.873
			c2.186-3.602,4.951-6.613,7.6-8.506c-2.799,0.496-6.072,2.768-8.563,6.006c0.369,0.764,0.68,1.6,0.933,2.49L58.036,50.873z"/>
	</g>
	<ellipse fill="#232323" cx="270" cy="163.854" rx="38.079" ry="6.146"/>
	
		<path opacity="0.3" fill="none" stroke="#FFFFFF" stroke-width="2" stroke-linecap="round" stroke-miterlimit="10" stroke-dasharray="4,6" enable-background="new    " d="
		M105,5v69c0,5.523,4.477,10,10,10h62c5.522,0,10,4.477,10,10v59c0,5.523,4.477,10,10,10h28"/>
</g>
</svg>
