<?xml version="1.0" encoding="utf-8"?>
<!-- Generator: Adobe Illustrator 16.0.4, SVG Export Plug-In . SVG Version: 6.00 Build 0)  -->
<!DOCTYPE svg PUBLIC "-//W3C//DTD SVG 1.1//EN" "http://www.w3.org/Graphics/SVG/1.1/DTD/svg11.dtd">
<svg version="1.1" id="Layer_1" xmlns="http://www.w3.org/2000/svg" xmlns:xlink="http://www.w3.org/1999/xlink" x="0px" y="0px"
	 width="375px" height="235px" viewBox="0 0 375 235" enable-background="new 0 0 375 235" xml:space="preserve">
<rect fill="#3654FF" width="374.999" height="235"/>
<g>
	<rect x="196.217" y="68.577" fill="none" width="147.567" height="74.275"/>
	<text transform="matrix(1 0 0 1 202.7773 80.0962)"><tspan x="0" y="0" fill="#FFFFFF"  font-size="16">That’s all for now, </tspan><tspan x="-1.327" y="19" fill="#FFFFFF"  font-size="16">we’ll let you know </tspan><tspan x="-5.088" y="38" fill="#FFFFFF"  font-size="16">when there’s more </tspan><tspan x="26.576" y="57" fill="#FFFFFF"  font-size="16">to unearth</tspan></text>
</g>
<g>
	<ellipse opacity="0.2" fill="#232323" cx="115.904" cy="168.653" rx="36.693" ry="5.924"/>
	<path fill="#232323" d="M124.17,96.462c-2.387,0.247-4.286,2.114-4.062,4.732c0.215,2.604,3.291,5.085,6.622,4.762
		c9.48-0.91,17.362-6.234,21.741-14.691c1.539-2.972,0.387-6.752-1.947-7.92c-2.348-1.184-4.789-0.12-5.91,2.002
		C137.301,91.743,131.34,95.773,124.17,96.462z"/>
	<path fill="#232323" d="M150.026,82.011c0.45-0.525,0.656-1.234,0.351-1.648c-0.304-0.414-1.174-0.377-1.852,0.188
		c-1.838,1.531-3.176,3.644-3.768,6.049c-0.217,0.898,0.49,1.629,1.428,1.604c0.943-0.025,1.662-0.529,1.714-1.155
		C148.035,85.261,148.752,83.479,150.026,82.011z"/>
	<path fill="#232323" d="M152.49,85.274c0.64-0.26,1.147-0.799,1.062-1.307c-0.082-0.505-0.871-0.87-1.733-0.676
		c-2.335,0.526-4.487,1.795-6.108,3.67c-0.602,0.698-0.307,1.67,0.541,2.077c0.85,0.409,1.723,0.286,2.05-0.247
		C149.24,87.263,150.686,86.003,152.49,85.274z"/>
	<path fill="#232323" d="M93.217,131.226c0.137,1.082,3.721,31.69,8.936,35.981c5.213,4.29,7.951,2.845,9.011,1.704
		c1.108-1.193,2.512-3.34-0.086-5.761c-2.086-1.947-3.554-10.57-1.472-24.028L93.217,131.226z"/>
	<path fill="#232323" d="M113.125,129.315c0.138,1.083,3.722,31.691,8.936,35.982c5.215,4.289,7.952,2.845,9.012,1.705
		c1.109-1.193,2.51-3.341-0.086-5.762c-2.086-1.947-3.555-10.57-1.473-24.028L113.125,129.315z"/>
	<path fill="#FFFFFF" d="M97.39,84.995c6.024-3.344,13.662-5.139,27.759-5.691c-3.361-1.421-7.809-2.083-14.318-2.083h-0.01
		c-11.141,0-16.295,1.901-20.172,6.315c-4.581,5.215-6.894,20.124-7.357,31.726C84.031,104.366,88.453,89.96,97.39,84.995z"/>
	<path fill="#444444" d="M83.291,115.262c-0.108,1.602-0.134,3.122-0.086,4.53C83.199,118.364,83.229,116.845,83.291,115.262z"/>
	<path fill="#444444" d="M73.542,133.958c-1.591,1.131-3.646,1.522-4.73,0.555c-1.081-0.957-0.754-3.398,1.015-5.154
		c4.787-4.771,11.074-7.982,17.996-9.016c2.579-0.377,4.449,1.8,4.134,4.434c-0.312,2.646-1.923,4.537-3.691,4.516
		C83.203,129.212,78.004,130.757,73.542,133.958z"/>
	<path fill="#444444" d="M131.003,83.536c-1.415-1.611-3.006-2.885-4.991-3.855c-0.275-0.135-0.572-0.254-0.863-0.377
		c-2.27,0.09-4.357,0.214-6.312,0.368c-4.799,0.169-8.561,0.706-11.611,1.663c-3.934,0.912-7.061,2.119-9.835,3.66
		c-8.937,4.965-13.358,19.371-14.099,30.267c-0.062,1.583-0.092,3.103-0.086,4.53c0.012,3.685,0.246,6.746,0.688,8.597
		c0.478,2.001,2.391,3.708,5.398,5.056c4.795,2.148,12.391,3.375,21.529,3.375h0.01c0.857,0,1.697-0.013,2.525-0.034
		c0.257-0.007,0.506-0.019,0.76-0.026c0.574-0.02,1.143-0.042,1.701-0.072c0.279-0.014,0.555-0.031,0.83-0.049
		c0.542-0.033,1.074-0.072,1.602-0.116c0.247-0.021,0.496-0.04,0.741-0.062c0.642-0.059,1.268-0.126,1.884-0.199
		c0.107-0.013,0.221-0.023,0.328-0.036c0.726-0.09,1.432-0.191,2.118-0.301c0.166-0.027,0.325-0.057,0.489-0.084
		c0.514-0.088,1.018-0.178,1.508-0.275c0.207-0.041,0.41-0.084,0.613-0.127c0.442-0.094,0.875-0.193,1.297-0.295
		c0.191-0.047,0.385-0.093,0.572-0.141c0.457-0.12,0.898-0.244,1.328-0.373c0.1-0.029,0.207-0.055,0.305-0.086
		c-0.004,0-0.008,0-0.012,0c2.941-0.911,5.227-2.074,6.672-3.452c0.016-0.015,0.025-0.03,0.04-0.044
		c0.271-0.263,0.517-0.53,0.726-0.808c0.082-0.106,0.133-0.222,0.206-0.331c0.124-0.189,0.257-0.375,0.352-0.569
		c0.151-0.308,0.267-0.624,0.344-0.949C139.625,120.571,137.822,91.301,131.003,83.536z"/>
	<ellipse fill="#444444" cx="110.925" cy="124.91" rx="27.366" ry="21.563"/>
	<g>
		<path fill="#232323" d="M113.939,165.931c0.654,0.187,1.375,0.076,1.619-0.365s-0.146-1.205-0.932-1.577
			c-2.127-1.013-4.564-1.339-6.958-0.875c-0.892,0.176-1.253,1.107-0.844,1.936c0.409,0.835,1.157,1.269,1.735,1.058
			C110.216,165.492,112.104,165.396,113.939,165.931z"/>
		<path fill="#232323" d="M112.921,169.738c0.576,0.361,1.299,0.456,1.655,0.097c0.358-0.354,0.194-1.197-0.457-1.771
			c-1.762-1.562-4.014-2.553-6.441-2.771c-0.905-0.078-1.512,0.718-1.35,1.627c0.162,0.914,0.761,1.54,1.377,1.496
			C109.464,168.284,111.304,168.716,112.921,169.738z"/>
		<path fill="#232323" d="M110.109,172.619c0.348,0.583,0.949,0.997,1.43,0.841c0.479-0.153,0.717-0.979,0.4-1.787
			c-0.857-2.193-2.412-4.1-4.475-5.398c-0.77-0.484-1.672-0.053-1.94,0.833c-0.272,0.887-0.024,1.718,0.544,1.958
			C107.693,169.751,109.134,170.973,110.109,172.619z"/>
	</g>
	<g>
		<path fill="#232323" d="M134.747,163.668c0.653,0.187,1.374,0.076,1.619-0.366c0.243-0.44-0.146-1.204-0.932-1.576
			c-2.127-1.013-4.565-1.34-6.958-0.875c-0.892,0.176-1.254,1.107-0.844,1.936c0.408,0.834,1.156,1.268,1.734,1.057
			C131.023,163.229,132.91,163.134,134.747,163.668z"/>
		<path fill="#232323" d="M133.729,167.476c0.576,0.361,1.299,0.456,1.655,0.098c0.358-0.355,0.194-1.199-0.457-1.773
			c-1.763-1.562-4.014-2.553-6.442-2.771c-0.904-0.077-1.511,0.718-1.348,1.628c0.161,0.912,0.76,1.539,1.376,1.494
			C130.271,166.021,132.111,166.452,133.729,167.476z"/>
		<path fill="#232323" d="M130.916,170.356c0.348,0.583,0.949,0.998,1.43,0.841c0.48-0.153,0.717-0.979,0.4-1.787
			c-0.856-2.193-2.411-4.1-4.475-5.399c-0.769-0.482-1.672-0.052-1.939,0.834c-0.272,0.887-0.025,1.717,0.543,1.957
			C128.5,167.487,129.941,168.71,130.916,170.356z"/>
	</g>
	<g>
		<path fill="#232323" d="M103.201,94.376c-1.535-1.844-4.145-2.378-6.192-0.733c-2.042,1.63-2.387,5.567-0.26,8.153
			c6.04,7.361,14.854,10.936,24.316,9.855c3.325-0.379,5.821-3.441,5.489-6.032c-0.326-2.608-2.572-4.042-4.957-3.788
			C114.439,102.646,107.772,99.945,103.201,94.376z"/>
		<g>
			<path fill="#232323" d="M128.947,103.798c0.637-0.119,1.203-0.521,1.223-1.001c0.021-0.479-0.637-0.964-1.463-0.946
				c-2.242,0.043-4.457,0.803-6.299,2.217c-0.684,0.528-0.596,1.476,0.104,2.008c0.704,0.536,1.526,0.587,1.929,0.16
				C125.59,105.009,127.156,104.124,128.947,103.798z"/>
			<path fill="#232323" d="M129.701,107.475c0.645,0.062,1.3-0.165,1.451-0.622c0.153-0.457-0.346-1.104-1.145-1.315
				c-2.164-0.581-4.504-0.465-6.664,0.384c-0.805,0.318-0.982,1.252-0.457,1.958c0.527,0.708,1.305,0.986,1.809,0.688
				C126.137,107.706,127.889,107.292,129.701,107.475z"/>
			<path fill="#232323" d="M128.533,111.124c0.545,0.35,1.232,0.445,1.576,0.107c0.342-0.336,0.193-1.139-0.422-1.693
				c-1.662-1.502-3.799-2.464-6.107-2.692c-0.861-0.084-1.445,0.669-1.298,1.536c0.146,0.871,0.71,1.473,1.296,1.436
				C125.254,109.708,127,110.137,128.533,111.124z"/>
		</g>
	</g>
	<g>
		<g>
			<path fill="#7F7F7F" d="M50.251,51.601l14.158,5.328c1.784,0.672,3.804-0.242,4.476-2.029l3.033-8.249l-0.128-0.049
				c-3.316-1.248-4.946-4.847-3.698-8.163c0.624-1.658,1.75-2.909,3.33-3.624c1.492-0.677,3.263-0.738,4.92-0.114l0.041,0.089
				l3.032-8.252c0.335-0.892,0.329-1.841-0.028-2.631c-0.358-0.791-1.107-1.509-1.96-1.757L63.269,16.82
				c-4.679-1.688-9.639-1.662-14.203,0.406s-7.981,5.732-9.671,10.411C35.834,37.291,40.686,48,50.251,51.601z"/>
			<path fill="#444444" d="M70.468,35.579c-0.894-0.337-1.841-0.329-2.632,0.028c-0.789,0.358-1.42,1.066-1.757,1.96
				c-0.671,1.786,0.243,3.804,2.028,4.478l76.84,28.323c-0.474,2.225-0.691,4.545-0.392,6.842l0.315,3.031
				c0.166,1.301,0.986,2.41,2.222,2.802l12.243,4.608c1.786,0.672,3.805-0.242,4.478-2.027l7.737-20.75
				c0.672-1.785-0.243-3.805-2.029-4.477l-12.244-4.609c-0.893-0.335-1.841-0.328-2.631,0.029c-0.352,0.159-0.574,0.366-0.887,0.613
				l-2.322,2.11c-1.741,1.529-3.02,3.378-4.219,5.401L70.468,35.579z M156.111,63.723l0.76-0.661l7.142,2.688l-5.376,14.284
				l-7.104-2.6l-0.135-0.998C150.719,71.667,152.583,66.908,156.111,63.723z"/>
		</g>
	</g>
	<g>
		<path fill="#FFFFFF" d="M93.441,63.335c-1.791-9.907,5.174-15.698,22.425-16.733c5.476-0.328,10.536-6.758,14.49-7.935
			c11.377-3.386,14.079,4.026,14.079,4.026l0.023,0.002c-5.603-12.816-21.592-20.315-38.547-17.179
			C86.668,29.078,73.478,44.991,76.451,61.06c2.972,16.068,20.982,26.208,40.227,22.646c1.677-0.311,3.305-0.72,4.883-1.21
			l-0.002-0.02C104.826,86.788,95.816,76.485,93.441,63.335z"/>
		<path fill="#444444" d="M146.141,48.164c-0.354-1.912-0.926-3.736-1.682-5.469l-0.023-0.002c0,0-2.702-7.412-14.079-4.026
			c-3.954,1.177-9.015,7.606-14.49,7.935c-17.251,1.035-24.216,6.826-22.425,16.733c2.375,13.15,11.385,23.453,28.117,19.142
			l0.002,0.02C138.097,77.365,148.855,62.833,146.141,48.164z"/>
		<path fill="#7F7F7F" d="M128.226,75.971c-3.665,0.827-11.461-1.022-11.492-8.938c-0.031-7.912,8.551-10.479,11.44-11.129
			c2.891-0.652,11.485-1.961,11.516,5.951C139.723,69.771,131.893,75.144,128.226,75.971z"/>
		<path fill="#232323" d="M128.355,57.942c1.595-0.36,3.957,0.874,4.242,2.87s-4.321,2.962-4.321,2.962l-0.134,0.029
			c0,0-4.607,1.113-4.337-1.01c0.269-2.12,2.616-4.416,4.21-4.776L128.355,57.942z"/>
		<path fill="none" stroke="#232323" stroke-width="1.035" stroke-linecap="round" stroke-miterlimit="10" d="M133.852,66.601
			c-0.305,0.846-0.75,1.646-1.3,2.356c-0.552,0.712-1.207,1.333-1.935,1.827c-0.732,0.494-1.532,0.854-2.377,1.045
			c-0.842,0.19-1.646,0.191-2.378,0.027c-0.73-0.164-1.392-0.488-1.946-0.951c-0.555-0.461-1.004-1.061-1.316-1.767"/>
		<circle fill="#232323" cx="112.761" cy="56.606" r="1.452"/>
		<circle fill="#232323" cx="135.186" cy="48.672" r="1.451"/>
		<path fill="#444444" d="M98.727,65.042c1.109,5.602,0.232,10.494-1.966,10.931c-2.195,0.433-4.874-3.754-5.985-9.352
			c-1.109-5.601-0.229-10.493,1.963-10.929C94.934,55.257,97.614,59.444,98.727,65.042z"/>
		<path fill="#232323" d="M95.107,59.255c-1.805,0.371-2.709,4.043-2.462,8.978c-0.166-0.599-0.315-1.224-0.442-1.878
			c-0.85-4.402-0.379-8.211,1.051-8.504c0.606-0.126,1.291,0.41,1.94,1.4C95.166,59.255,95.136,59.249,95.107,59.255z"/>
		<path fill="none" stroke="#7F7F7F" stroke-width="1.1425" stroke-linecap="round" stroke-miterlimit="10" d="M108.303,57.513
			c-0.045-0.509,0.012-1.02,0.16-1.5c0.146-0.481,0.387-0.934,0.71-1.33c0.321-0.396,0.728-0.735,1.208-0.99
			c0.48-0.254,0.99-0.398,1.499-0.443"/>
		<path fill="none" stroke="#7F7F7F" stroke-width="1.1425" stroke-linecap="round" stroke-miterlimit="10" d="M133.547,45.182
			c0.446-0.25,0.936-0.409,1.433-0.471c0.501-0.062,1.013-0.029,1.506,0.104c0.493,0.131,0.968,0.361,1.397,0.695
			s0.77,0.738,1.021,1.186"/>
	</g>
	<path fill="#232323" d="M146.356,80.406c0.288-0.63,0.286-1.368-0.12-1.685c-0.404-0.311-1.233-0.035-1.727,0.695
		c-1.341,1.98-2.043,4.381-1.942,6.856c0.04,0.923,0.921,1.429,1.816,1.144c0.9-0.283,1.45-0.969,1.326-1.583
		C145.347,84.08,145.539,82.169,146.356,80.406z"/>
</g>
<line opacity="0.3" fill="none" stroke="#FFFFFF" stroke-width="2" stroke-linecap="round" stroke-miterlimit="10" stroke-dasharray="4,6" x1="269.999" y1="149.577" x2="269.999" y2="234.577"/>
</svg>
