<?xml version="1.0" encoding="utf-8"?>
<!-- Generator: Adobe Illustrator 16.0.4, SVG Export Plug-In . SVG Version: 6.00 Build 0)  -->
<!DOCTYPE svg PUBLIC "-//W3C//DTD SVG 1.1//EN" "http://www.w3.org/Graphics/SVG/1.1/DTD/svg11.dtd">
<svg version="1.1" id="Layer_1" xmlns="http://www.w3.org/2000/svg" xmlns:xlink="http://www.w3.org/1999/xlink" x="0px" y="0px"
	 width="375px" height="375px" viewBox="0 0 375 375" enable-background="new 0 0 375 375" xml:space="preserve">
<ellipse opacity="0.3" fill="#232323" enable-background="new    " cx="141.868" cy="292.547" rx="49.943" ry="8.061"/>
<ellipse opacity="0.3" fill="#232323" enable-background="new    " cx="232.242" cy="296.051" rx="28.235" ry="4.557"/>
<ellipse opacity="0.3" fill="#232323" enable-background="new    " cx="284.615" cy="290.469" rx="21.574" ry="3.464"/>
<path fill="#232323" d="M105.691,235.405c0.204,1.631,5.607,47.746,13.461,54.209c7.854,6.461,11.98,4.287,13.574,2.571
	c1.671-1.803,3.782-5.035-0.129-8.684c-3.146-2.934-5.354-15.926-2.217-36.2L105.691,235.405z"/>
<path fill="#232323" d="M135.685,232.528c0.208,1.63,5.606,47.745,13.459,54.211c7.859,6.462,11.983,4.287,13.578,2.568
	c1.672-1.8,3.783-5.033-0.129-8.679c-3.145-2.936-5.356-15.927-2.217-36.204L135.685,232.528z"/>
<path fill="#232323" d="M154.975,170.667c-3.593-0.389-6.978,1.762-7.475,5.69c-0.505,3.903,3.243,8.53,8.255,9.107
	c14.253,1.65,27.542-3.707,36.66-14.785c3.209-3.891,2.702-9.825-0.366-12.284c-3.085-2.484-7.02-1.687-9.336,1.087
	C175.811,167.858,165.761,171.917,154.975,170.667z"/>
<path fill="#FFFFFF" d="M111.977,165.75c9.079-5.035,20.583-7.742,41.823-8.572c-5.065-2.141-11.766-3.139-21.574-3.139h-0.015
	c-16.785,0-24.549,2.863-30.394,9.516c-6.899,7.855-10.382,30.316-11.082,47.796C91.854,194.94,98.514,173.234,111.977,165.75z"/>
<path fill="#444444" d="M90.737,211.353c-0.163,2.415-0.2,4.704-0.133,6.826C90.602,216.029,90.644,213.739,90.737,211.353z"/>
<path fill="#444444" d="M76.049,239.523c-2.396,1.702-5.495,2.293-7.128,0.835c-1.627-1.442-1.135-5.119,1.53-7.766
	c7.212-7.188,16.682-12.027,27.112-13.581c3.885-0.566,6.704,2.711,6.229,6.678c-0.468,3.987-2.896,6.836-5.562,6.805
	C90.604,232.373,82.773,234.703,76.049,239.523z"/>
<g>
	<path fill="#FFFFFF" d="M104.301,128.74c-0.323-15.166,11.408-22.138,37.321-19.6c8.225,0.804,17.271-7.566,23.436-8.384
		c17.729-2.348,19.997,9.321,19.997,9.321l0.035,0.008c-5.308-20.395-27.327-35.332-53.296-34.672
		c-29.476,0.755-52.862,21.316-52.234,45.924c0.626,24.615,25.029,43.957,54.503,43.206c2.569-0.067,5.088-0.292,7.552-0.648
		l0.002-0.028C115.701,166.329,104.729,148.868,104.301,128.74z"/>
	<path fill="#444444" d="M186.301,118.62c-0.073-2.93-0.495-5.781-1.21-8.534l-0.035-0.008c0,0-2.27-11.669-19.997-9.321
		c-6.163,0.817-15.209,9.188-23.436,8.384c-25.913-2.537-37.643,4.434-37.322,19.599c0.431,20.129,11.401,37.59,37.315,35.126
		l-0.001,0.029C167.431,160.167,186.873,141.084,186.301,118.62z"/>
	<path fill="#7F7F7F" d="M153.074,155.759c-5.647,0.366-16.812-4.23-14.986-16.014c1.82-11.781,15.198-13.57,19.65-13.855
		c4.457-0.287,17.556-0.204,15.73,11.575C171.645,149.25,158.726,155.394,153.074,155.759z"/>
	<path fill="#232323" d="M157.529,128.965c2.455-0.159,5.68,2.235,5.634,5.274c-0.05,3.039-7.132,3.387-7.132,3.387l-0.205,0.012
		c0,0-7.12,0.568-6.218-2.526c0.901-3.094,4.939-5.955,7.391-6.113L157.529,128.965z"/>
	<path fill="none" stroke="#232323" stroke-width="1.5593" stroke-linecap="round" stroke-miterlimit="10" d="M163.657,143.146
		c-0.655,1.189-1.506,2.274-2.49,3.199c-0.992,0.932-2.11,1.698-3.312,2.261c-1.206,0.565-2.483,0.913-3.784,0.994
		c-1.297,0.085-2.494-0.104-3.542-0.518c-1.049-0.421-1.957-1.059-2.674-1.878c-0.717-0.816-1.242-1.815-1.542-2.936"/>
	<circle fill="#232323" cx="134.637" cy="123.292" r="2.187"/>
	<circle fill="#232323" cx="169.88" cy="116.782" r="2.187"/>
	<path fill="#444444" d="M111.76,132.527c0.332,8.596-2.133,15.672-5.505,15.802c-3.368,0.123-6.365-6.738-6.695-15.329
		c-0.33-8.599,2.138-15.67,5.5-15.797C108.431,117.07,111.429,123.937,111.76,132.527z"/>
	<path fill="#232323" d="M107.745,123.064c-2.777,0.126-4.985,5.375-5.785,12.777c-0.105-0.931-0.18-1.897-0.216-2.902
		c-0.223-6.751,1.378-12.305,3.574-12.404c0.934-0.043,1.825,0.916,2.559,2.543C107.832,123.078,107.788,123.061,107.745,123.064z"
		/>
	<path fill="none" stroke="#7F7F7F" stroke-width="1.7213" stroke-linecap="round" stroke-miterlimit="10" d="M127.791,123.588
		c0.054-0.77,0.258-1.514,0.592-2.195c0.333-0.681,0.796-1.296,1.375-1.812c0.569-0.512,1.253-0.922,2.029-1.188
		c0.773-0.265,1.569-0.362,2.334-0.309"/>
	<path fill="none" stroke="#7F7F7F" stroke-width="1.7213" stroke-linecap="round" stroke-miterlimit="10" d="M168.266,111.201
		c0.722-0.263,1.49-0.383,2.245-0.359c0.76,0.025,1.512,0.195,2.216,0.509c0.704,0.308,1.354,0.765,1.915,1.364
		c0.563,0.598,0.972,1.28,1.238,2.006"/>
</g>
<path fill="#444444" d="M162.62,163.557c-2.13-2.426-4.527-4.347-7.519-5.812c-0.416-0.201-0.861-0.381-1.299-0.567
	c-3.422,0.136-6.565,0.324-9.514,0.556c-7.23,0.255-12.894,1.065-17.493,2.506c-5.926,1.374-10.637,3.191-14.817,5.517
	c-13.462,7.478-20.125,29.184-21.239,45.6c-0.093,2.385-0.138,4.676-0.133,6.825c0.02,5.554,0.371,10.161,1.037,12.95
	c0.72,3.017,3.605,5.588,8.135,7.62c7.226,3.235,18.667,5.084,32.436,5.084h0.015c1.289,0,2.556-0.02,3.806-0.053
	c0.384-0.01,0.762-0.029,1.143-0.039c0.866-0.034,1.721-0.063,2.563-0.11c0.421-0.022,0.836-0.049,1.25-0.073
	c0.817-0.05,1.621-0.111,2.414-0.174c0.372-0.034,0.75-0.059,1.119-0.097c0.966-0.084,1.908-0.187,2.836-0.297
	c0.16-0.022,0.331-0.037,0.491-0.056c1.095-0.136,2.155-0.286,3.192-0.452c0.253-0.041,0.491-0.087,0.738-0.128
	c0.775-0.131,1.533-0.267,2.273-0.416c0.312-0.061,0.617-0.125,0.921-0.188c0.667-0.146,1.318-0.292,1.954-0.444
	c0.29-0.073,0.58-0.143,0.867-0.213c0.686-0.183,1.351-0.367,1.999-0.565c0.152-0.043,0.314-0.082,0.463-0.13
	c-0.01,0-0.011,0-0.02,0c4.434-1.373,7.875-3.122,10.051-5.202c0.025-0.02,0.039-0.046,0.059-0.065
	c0.408-0.392,0.777-0.798,1.093-1.214c0.124-0.161,0.201-0.338,0.309-0.5c0.187-0.284,0.386-0.567,0.529-0.857
	c0.23-0.467,0.401-0.942,0.52-1.43C175.61,219.354,172.896,175.251,162.62,163.557z"/>
<ellipse fill="#444444" cx="132.37" cy="225.89" rx="41.229" ry="32.487"/>
<g>
	<path fill="#232323" d="M116.78,174.862c-2.313-2.778-6.243-3.581-9.33-1.104c-3.078,2.457-3.594,8.386-0.391,12.284
		c9.1,11.087,22.379,16.477,36.636,14.848c5.008-0.571,8.77-5.187,8.272-9.088c-0.494-3.929-3.875-6.092-7.471-5.709
		C133.714,187.325,123.669,183.253,116.78,174.862z"/>
	<path fill="#232323" d="M155.57,189.06c0.962-0.18,1.813-0.788,1.843-1.508c0.032-0.726-0.959-1.454-2.207-1.425
		c-3.377,0.062-6.716,1.207-9.492,3.339c-1.026,0.797-0.896,2.225,0.161,3.03c1.059,0.807,2.298,0.879,2.905,0.238
		C150.513,190.884,152.872,189.551,155.57,189.06z"/>
	<path fill="#232323" d="M156.706,194.598c0.973,0.092,1.959-0.251,2.186-0.938c0.233-0.688-0.52-1.662-1.721-1.98
		c-3.261-0.878-6.787-0.702-10.044,0.574c-1.209,0.479-1.479,1.889-0.685,2.95c0.792,1.07,1.962,1.485,2.726,1.036
		C151.337,194.946,153.977,194.323,156.706,194.598z"/>
	<path fill="#232323" d="M154.947,200.097c0.821,0.527,1.855,0.673,2.374,0.159c0.515-0.504,0.292-1.71-0.637-2.549
		c-2.502-2.264-5.723-3.714-9.2-4.057c-1.296-0.126-2.18,1.005-1.958,2.315c0.221,1.309,1.072,2.218,1.956,2.159
		C150.005,197.961,152.641,198.609,154.947,200.097z"/>
</g>
<path fill="#232323" d="M136.913,287.696c0.983,0.277,2.07,0.111,2.437-0.554c0.367-0.664-0.22-1.814-1.403-2.374
	c-3.204-1.528-6.875-2.021-10.48-1.32c-1.343,0.266-1.891,1.672-1.275,2.918c0.619,1.257,1.745,1.91,2.616,1.594
	C131.303,287.034,134.146,286.888,136.913,287.696z"/>
<path fill="#232323" d="M135.378,293.43c0.869,0.543,1.955,0.684,2.494,0.146c0.54-0.535,0.292-1.802-0.688-2.672
	c-2.653-2.354-6.044-3.844-9.706-4.176c-1.363-0.115-2.276,1.082-2.031,2.452c0.244,1.375,1.145,2.32,2.072,2.256
	C130.17,291.239,132.941,291.887,135.378,293.43z"/>
<path fill="#232323" d="M131.14,297.768c0.524,0.878,1.43,1.502,2.156,1.27c0.722-0.232,1.08-1.477,0.603-2.694
	c-1.291-3.302-3.634-6.173-6.744-8.13c-1.159-0.732-2.521-0.083-2.926,1.251c-0.408,1.339-0.038,2.591,0.821,2.95
	C127.504,293.447,129.672,295.288,131.14,297.768z"/>
<path fill="#232323" d="M168.261,284.284c0.982,0.281,2.071,0.117,2.438-0.551c0.366-0.667-0.222-1.816-1.403-2.377
	c-3.205-1.525-6.876-2.016-10.481-1.317c-1.343,0.264-1.888,1.67-1.275,2.917c0.617,1.256,1.745,1.908,2.617,1.594
	C162.652,283.622,165.495,283.477,168.261,284.284z"/>
<path fill="#232323" d="M166.728,290.02c0.868,0.544,1.954,0.687,2.491,0.146c0.541-0.534,0.295-1.803-0.684-2.667
	c-2.656-2.354-6.049-3.847-9.71-4.176c-1.361-0.118-2.276,1.082-2.028,2.449c0.243,1.375,1.145,2.32,2.073,2.252
	C161.519,287.826,164.29,288.478,166.728,290.02z"/>
<path fill="#232323" d="M162.489,294.36c0.524,0.88,1.429,1.503,2.155,1.266c0.72-0.231,1.081-1.473,0.602-2.691
	c-1.29-3.303-3.633-6.176-6.743-8.133c-1.157-0.729-2.519-0.077-2.922,1.256c-0.411,1.334-0.039,2.586,0.816,2.948
	C158.852,290.04,161.022,291.88,162.489,294.36z"/>
<path fill="#232323" d="M197.628,157.538c0.833-0.631,1.358-1.612,1.039-2.322c-0.316-0.707-1.609-0.923-2.788-0.305
	c-3.193,1.671-5.827,4.363-7.461,7.72c-0.6,1.254,0.21,2.552,1.599,2.815c1.396,0.259,2.618-0.259,2.887-1.163
	C193.669,161.696,195.288,159.299,197.628,157.538z"/>
<path fill="#232323" d="M200.229,163.122c1.023-0.179,1.94-0.813,1.978-1.59c0.04-0.771-1.011-1.556-2.341-1.541
	c-3.605,0.039-7.175,1.227-10.156,3.479c-1.104,0.836-0.978,2.36,0.145,3.229c1.122,0.874,2.447,0.966,3.098,0.284
	C194.812,165.026,197.341,163.627,200.229,163.122z"/>
<g>
	<g>
		<g>
			<path fill="#FFCF15" d="M196.104,145.833l9.583,1.499c0.265,0.041,0.562,0.062,0.878,0.062c1.123,0,2.388-0.248,3.221-0.632
				l15.308-7.045c0.968-0.446,1.108-0.972,1.055-1.335c-0.053-0.363-0.337-0.828-1.392-0.979l-6.013-0.86
				c-1.182-0.169-3.032,0.029-4.109,0.414l-18.738,6.679c-0.818,0.292-1.207,0.702-1.16,1.218
				C194.787,145.37,195.247,145.699,196.104,145.833z"/>
		</g>
		<g>
			<path fill="#FFCF15" d="M204.668,148.852l-13.275-2.076c-1.384-0.217-2.848,0.679-3.306,1.968l-2.014,5.662
				c-0.234,0.659-0.192,1.363,0.119,1.98s0.85,1.07,1.519,1.274l17.735,5.416c0.239,0.073,0.477,0.11,0.707,0.11
				c0.533,0,1.014-0.202,1.354-0.567c0.369-0.398,0.546-0.962,0.497-1.59l-0.704-9.327
				C207.196,150.319,206.04,149.066,204.668,148.852z"/>
		</g>
		<g>
			<path fill="#FFCF15" d="M233.257,143.885l-1.034-2.687c-0.506-1.315-2.072-1.958-3.359-1.365l-17.771,8.18
				c-1.229,0.566-2.112,2.065-2.011,3.415l0.678,8.97c0.089,1.185,0.849,1.716,1.562,1.716c0.391,0,0.804-0.148,1.195-0.429
				l19.622-14.066C233.262,146.814,233.752,145.174,233.257,143.885z"/>
		</g>
	</g>
	<g>
		<path fill="#FFFFFF" d="M225.812,136.188l1.77,0.704l0.737,1.688c0.059,0.112,0.201,0.158,0.317,0.103
			c0.048-0.021,0.085-0.058,0.108-0.103l0.737-1.688l1.771-0.704c0.116-0.056,0.163-0.192,0.105-0.304
			c-0.023-0.044-0.061-0.08-0.105-0.102l-1.771-0.704l-0.737-1.688c-0.059-0.112-0.202-0.158-0.317-0.102
			c-0.047,0.022-0.084,0.058-0.108,0.102l-0.737,1.688l-1.77,0.704c-0.118,0.056-0.164,0.192-0.106,0.304
			C225.729,136.13,225.766,136.165,225.812,136.188L225.812,136.188z"/>
	</g>
</g>
<path fill="#232323" d="M192.727,154.012c0.624-0.835,0.857-1.923,0.356-2.518c-0.497-0.584-1.803-0.442-2.761,0.479
	c-2.603,2.496-4.391,5.809-5.025,9.489c-0.232,1.372,0.907,2.395,2.316,2.256c1.415-0.132,2.442-0.968,2.452-1.913
	C190.083,159.109,190.968,156.357,192.727,154.012z"/>
<g>
	<path fill="#D0DAE3" d="M257.009,276.266c-0.653-0.69-1.524-1.265-2.665-1.755c-0.192-0.083-0.386-0.155-0.581-0.229
		c-0.166-0.062-0.332-0.124-0.494-0.194l-0.52-0.221c-0.188-0.078-0.375-0.157-0.562-0.238c-0.181-0.078-0.355-0.171-0.53-0.263
		c-0.139-0.073-0.279-0.146-0.42-0.214l-0.157-0.103c-0.038-0.024-0.076-0.046-0.115-0.065c-0.338-0.158-0.734-0.504-1.052-0.782
		c-0.035-0.029-0.07-0.058-0.108-0.082l-0.253-0.165c-0.144-0.117-0.286-0.205-0.403-0.277l-0.149-0.1
		c-0.059-0.047-0.119-0.094-0.203-0.148l-0.255-0.157c-0.218-0.181-0.473-0.343-0.714-0.457l-0.063-0.043
		c-0.087-0.062-0.176-0.122-0.271-0.173l-0.683-0.446c-0.037-0.024-0.076-0.046-0.116-0.064c-0.242-0.115-0.474-0.248-0.707-0.38
		c-0.288-0.164-0.586-0.334-0.914-0.482l-0.446-0.207c-0.312-0.145-0.624-0.289-0.938-0.425c-0.593-0.255-1.204-0.472-1.794-0.681
		l-0.422-0.149c-0.143-0.051-0.286-0.087-0.431-0.122c-0.077-0.018-0.154-0.035-0.229-0.062c-0.408-0.146-0.828-0.237-1.197-0.319
		l-0.252-0.055c-0.407-0.09-0.827-0.183-1.238-0.264c-0.415-0.082-0.83-0.126-1.23-0.168c-0.173-0.018-0.346-0.036-0.518-0.058
		c-0.432-0.053-0.855-0.058-1.264-0.062c-0.247-0.003-0.497-0.005-0.745-0.021c-0.245-0.014-0.47,0.015-0.65,0.038
		c-0.098,0.013-0.197,0.03-0.296,0.026c-0.744-0.027-1.558,0.119-2.389,0.269l-2.093,0.377c-0.062,0.011-0.125,0.028-0.183,0.052
		c-0.007,0.001-0.012,0.002-0.014,0.002c-0.096,0.018-0.183,0.043-0.266,0.076c-0.029,0.012-0.061,0.021-0.092,0.03
		c-0.104,0.031-0.209,0.065-0.313,0.11c-0.199,0.085-0.432,0.157-0.679,0.232c-0.274,0.084-0.557,0.172-0.884,0.301
		c-0.123,0.029-0.243,0.062-0.369,0.117c-0.455,0.2-0.863,0.415-1.259,0.623l-0.364,0.189c-0.635,0.332-1.235,0.645-1.834,1.028
		c-0.681,0.438-1.314,0.901-1.879,1.377c-0.033,0.027-0.067,0.049-0.101,0.071c-0.091,0.062-0.182,0.125-0.269,0.199l-0.306,0.256
		c-0.3,0.25-0.601,0.502-0.881,0.77c-0.273,0.262-0.538,0.53-0.804,0.8l-0.409,0.412c-0.227,0.227-0.435,0.468-0.643,0.711
		c-0.162,0.189-0.324,0.38-0.498,0.559c-0.093,0.094-0.173,0.197-0.252,0.304c-0.029,0.038-0.055,0.077-0.088,0.111
		s-0.063,0.07-0.091,0.107l-1.219,1.663c-0.084,0.106-0.186,0.237-0.278,0.396h0l-0.208,0.283c-0.027,0.036-0.052,0.074-0.074,0.114
		c-0.27,0.498-0.596,0.958-0.879,1.342l-0.133,0.185c-0.097,0.138-0.189,0.268-0.275,0.354l-0.06,0.061
		c-0.334,0.339-0.672,0.681-1.018,1.012c-0.153,0.146-0.313,0.283-0.473,0.421c-0.187,0.162-0.374,0.323-0.553,0.494
		c-0.096,0.094-0.188,0.195-0.28,0.297c-0.052,0.059-0.104,0.117-0.158,0.171c-0.752,0.749-1.581,1.659-1.888,2.974
		c-0.1,0.424-0.199,1.617,0.153,2.4c0.279,0.624,0.56,1.066,0.911,1.438c0.212,0.224,0.421,0.397,0.624,0.566l0.217,0.185
		c0.085,0.075,0.184,0.142,0.307,0.212c0.219,0.191,0.594,0.471,0.927,0.627l0.228,0.106c0.473,0.223,0.961,0.453,1.48,0.647
		l0.502,0.186c0.405,0.148,0.809,0.295,1.202,0.466c0.463,0.199,0.908,0.426,1.379,0.666c0.353,0.179,0.707,0.359,1.059,0.523
		c0.027,0.014,0.052,0.032,0.078,0.05c0.102,0.068,0.207,0.133,0.316,0.185c0.114,0.055,0.226,0.113,0.335,0.172
		c0.136,0.071,0.272,0.144,0.412,0.21c0.05,0.023,0.095,0.06,0.141,0.091c0.134,0.093,0.271,0.182,0.414,0.249
		c0.124,0.059,0.246,0.121,0.367,0.184c0.151,0.076,0.302,0.153,0.457,0.226c0.136,0.063,0.262,0.144,0.39,0.224
		c0.193,0.118,0.387,0.235,0.591,0.33c0.402,0.188,0.8,0.382,1.199,0.576c0.662,0.323,1.346,0.657,2.049,0.96
		c0.677,0.291,1.379,0.524,2.057,0.75c0.336,0.112,0.673,0.224,1.008,0.344c0.172,0.061,0.349,0.099,0.529,0.135l0.133,0.027
		c0.175,0.038,0.354,0.081,0.535,0.124c0.222,0.053,0.446,0.105,0.667,0.152c0.164,0.035,0.326,0.057,0.489,0.076
		c0.098,0.012,0.195,0.021,0.297,0.042c0.667,0.129,1.358,0.16,2.026,0.189c0.218,0.011,0.438,0.02,0.658,0.033
		c0.038,0.002,0.076,0.003,0.113,0l0.367-0.021c0.194,0.005,0.391-0.006,0.588-0.017c0.148-0.009,0.297-0.02,0.446-0.015
		c0.064,0.002,0.128-0.002,0.191-0.013l2.573-0.445c0.111-0.021,0.219-0.046,0.313-0.077l0.377-0.078
		c0.057-0.012,0.113-0.029,0.167-0.051c0.246-0.101,0.501-0.184,0.754-0.266c0.375-0.123,0.764-0.25,1.144-0.428l0.207-0.096
		c0.273-0.127,0.551-0.256,0.802-0.388c0.033-0.018,0.065-0.029,0.096-0.043c0.12-0.049,0.236-0.102,0.354-0.173
		c0.205-0.125,0.412-0.246,0.618-0.366c0.336-0.196,0.669-0.393,0.991-0.6c1.702-1.095,3.074-2.417,4.401-3.695l0.284-0.272
		c0.167-0.161,0.324-0.332,0.48-0.503c0.111-0.122,0.223-0.244,0.341-0.362c0.11-0.11,0.211-0.234,0.311-0.357
		c0.055-0.068,0.107-0.138,0.166-0.197c0.256-0.258,0.495-0.526,0.734-0.795c0.206-0.232,0.412-0.464,0.63-0.687
		c0.116-0.118,0.22-0.25,0.323-0.383c0.055-0.071,0.108-0.146,0.169-0.208c0.344-0.349,0.659-0.711,0.965-1.062
		c0.339-0.39,0.658-0.757,1.006-1.097c0.604-0.591,1.323-1.283,2.083-1.943c0.292-0.254,0.572-0.5,0.838-0.767
		c0.119-0.118,0.227-0.25,0.333-0.383c0.056-0.071,0.111-0.144,0.172-0.205c1.023-1.044,1.582-2.249,1.705-3.69
		c0.024-0.283-0.023-0.536-0.07-0.795C257.921,277.558,257.582,276.873,257.009,276.266z"/>
	<path fill="#232323" d="M256.22,279.057c-0.017,0.186-0.052,0.357-0.089,0.529c-0.103-0.052-0.215-0.089-0.337-0.102
		c-1.263-0.133-2.482,0.305-3.358,1.13c-0.761-0.931-1.912-1.521-3.178-1.55c-1.263-0.031-2.438,0.503-3.242,1.396
		c-0.832-0.865-2.022-1.358-3.28-1.286c-1.257,0.07-2.382,0.697-3.109,1.649c-0.897-0.794-2.122-1.189-3.368-1.017
		c-1.245,0.174-2.315,0.887-2.962,1.895c-0.958-0.719-2.211-1.015-3.436-0.742c-1.229,0.271-2.237,1.069-2.802,2.127
		c-1.013-0.641-2.286-0.835-3.49-0.464c-1.205,0.371-2.148,1.249-2.627,2.35c-1.063-0.556-2.35-0.647-3.523-0.179
		c-1.176,0.469-2.049,1.423-2.438,2.562c-1.109-0.469-2.405-0.454-3.542,0.111c-0.11,0.055-0.204,0.13-0.283,0.216
		c-0.088-0.145-0.175-0.315-0.269-0.523c-0.069-0.153-0.09-0.573-0.07-0.893c0.195,0.107,0.42,0.152,0.645,0.112
		c0.087-0.017,0.174-0.044,0.257-0.084c1.136-0.553,1.955-1.506,2.327-2.628c1.095,0.479,2.359,0.52,3.533,0.061
		c1.171-0.46,2.061-1.343,2.521-2.432c1.049,0.564,2.302,0.703,3.504,0.339c1.201-0.366,2.157-1.176,2.705-2.225
		c0.997,0.644,2.234,0.88,3.455,0.611c1.224-0.271,2.241-1.003,2.871-2.006c0.94,0.721,2.149,1.053,3.393,0.879
		c1.24-0.173,2.316-0.826,3.026-1.777c0.878,0.792,2.057,1.218,3.31,1.142c1.253-0.077,2.379-0.644,3.165-1.538
		c0.811,0.859,1.954,1.377,3.212,1.399c1.258,0.021,2.43-0.457,3.29-1.289c0.741,0.923,1.84,1.53,3.097,1.652
		c0.335,0.033,0.646-0.107,0.847-0.346c0.084,0.181,0.16,0.396,0.212,0.689C256.2,278.911,256.221,279.026,256.22,279.057z"/>
	<path fill="#E7ECF0" d="M214.772,281.48c0.196-0.199,0.346-0.409,0.477-0.596l0.111-0.153c0.312-0.423,0.672-0.932,0.991-1.509
		l0.208-0.282c0.026-0.035,0.05-0.072,0.071-0.111c0.038-0.07,0.09-0.13,0.138-0.192l1.226-1.669c0.07-0.078,0.132-0.16,0.194-0.242
		c0.028-0.037,0.054-0.076,0.088-0.11c0.205-0.21,0.396-0.433,0.586-0.655c0.174-0.203,0.348-0.408,0.539-0.599l0.42-0.423
		c0.252-0.256,0.506-0.513,0.764-0.761c0.248-0.236,0.515-0.458,0.782-0.68l0.32-0.269c0.032-0.027,0.066-0.049,0.1-0.071
		c0.089-0.06,0.177-0.122,0.263-0.193c0.501-0.423,1.067-0.836,1.679-1.229c0.525-0.337,1.088-0.631,1.684-0.941l0.368-0.192
		c0.383-0.201,0.745-0.392,1.176-0.571c0.118-0.027,0.235-0.06,0.355-0.111c0.204-0.087,0.426-0.153,0.649-0.222
		c0.285-0.088,0.58-0.179,0.875-0.306c0.036-0.016,0.074-0.024,0.11-0.036c0.062-0.019,0.123-0.038,0.181-0.059
		c0.021-0.004,0.046-0.008,0.053-0.009c0.083-0.015,0.159-0.035,0.231-0.062l2.009-0.361c0.686-0.123,1.394-0.251,1.931-0.231
		c0.232,0.008,0.444-0.019,0.615-0.041c0.109-0.015,0.223-0.029,0.284-0.025c0.28,0.017,0.562,0.021,0.84,0.023
		c0.372,0.005,0.724,0.008,1.047,0.049c0.185,0.022,0.369,0.042,0.555,0.062c0.374,0.039,0.728,0.076,1.057,0.142
		c0.396,0.078,0.803,0.168,1.195,0.254l0.255,0.057c0.328,0.072,0.669,0.146,0.96,0.251c0.143,0.051,0.287,0.087,0.432,0.122
		c0.076,0.018,0.153,0.033,0.227,0.061l0.43,0.152c0.586,0.207,1.14,0.403,1.674,0.634c0.298,0.128,0.593,0.265,0.888,0.402
		l0.459,0.212c0.262,0.119,0.511,0.263,0.76,0.404c0.254,0.145,0.511,0.289,0.774,0.418l0.672,0.438
		c0.037,0.024,0.062,0.038,0.102,0.058c0.022,0.014,0.043,0.029,0.065,0.045c0.109,0.077,0.219,0.15,0.339,0.206
		c0.122,0.058,0.253,0.144,0.352,0.229c0.04,0.034,0.082,0.065,0.126,0.093l0.326,0.208c0.061,0.049,0.124,0.098,0.187,0.139
		l0.16,0.1c0.07,0.043,0.142,0.083,0.204,0.138c0.033,0.028,0.069,0.056,0.105,0.08l0.248,0.161c0.366,0.32,0.851,0.734,1.381,1
		l0.164,0.106c0.037,0.023,0.074,0.045,0.114,0.063c0.138,0.065,0.274,0.137,0.411,0.208c0.044,0.023,0.09,0.043,0.135,0.066
		c-0.5,0.638-1.276,1.021-2.124,1.007c-1.075-0.02-1.996-0.671-2.35-1.658c-0.141-0.396-0.519-0.657-0.938-0.652
		c-0.42,0.006-0.79,0.277-0.921,0.676c-0.333,1.013-1.246,1.709-2.322,1.776c-1.07,0.064-2.043-0.513-2.478-1.471
		c-0.173-0.383-0.571-0.612-0.988-0.572c-0.42,0.04-0.766,0.341-0.863,0.75c-0.246,1.031-1.087,1.794-2.159,1.944
		c-1.064,0.148-2.082-0.352-2.595-1.274c-0.204-0.367-0.619-0.563-1.033-0.489l0,0c-0.414,0.074-0.734,0.402-0.797,0.817
		c-0.161,1.044-0.942,1.869-1.988,2.101c-1.045,0.23-2.11-0.189-2.702-1.07c-0.233-0.348-0.66-0.511-1.069-0.402
		c-0.406,0.109-0.698,0.463-0.728,0.882c-0.073,1.05-0.785,1.93-1.81,2.242c-1.034,0.313-2.131-0.022-2.795-0.854
		c-0.263-0.328-0.704-0.454-1.099-0.312c-0.396,0.141-0.658,0.518-0.653,0.938c0.013,1.049-0.625,1.98-1.623,2.373
		c-0.781,0.305-1.63,0.224-2.317-0.188c0.057-0.057,0.115-0.113,0.171-0.17L214.772,281.48z"/>
	<path fill="#E7ECF0" d="M254.754,281.913c-0.058,0.073-0.115,0.148-0.182,0.215c-0.237,0.236-0.485,0.453-0.741,0.676
		c-0.798,0.693-1.543,1.411-2.167,2.021c-0.402,0.394-0.764,0.809-1.113,1.209c-0.288,0.33-0.575,0.66-0.883,0.974
		c-0.118,0.119-0.223,0.253-0.327,0.388c-0.055,0.071-0.107,0.144-0.17,0.208c-0.24,0.245-0.467,0.499-0.693,0.754
		c-0.216,0.243-0.434,0.487-0.666,0.723c-0.106,0.107-0.203,0.226-0.299,0.345c-0.055,0.07-0.109,0.141-0.169,0.201
		c-0.138,0.137-0.268,0.28-0.399,0.423c-0.129,0.142-0.258,0.282-0.395,0.415l-0.285,0.273c-1.26,1.214-2.563,2.47-4.105,3.462
		c-0.3,0.192-0.61,0.374-0.922,0.557c-0.216,0.126-0.433,0.254-0.646,0.383c-0.029,0.018-0.061,0.028-0.09,0.04
		c-0.083,0.034-0.166,0.07-0.251,0.114c-0.226,0.119-0.474,0.233-0.718,0.347l-0.212,0.099c-0.274,0.128-0.591,0.231-0.928,0.342
		c-0.266,0.087-0.535,0.176-0.796,0.278l-0.355,0.074c-0.054,0.012-0.085,0.02-0.136,0.04c-0.02,0.006-0.042,0.009-0.064,0.013
		l-0.288,0.047l-1.025,0.185l-1.154,0.196c-0.172-0.001-0.344,0.009-0.515,0.019c-0.15,0.009-0.3,0.02-0.446,0.013
		c-0.032-0.001-0.064,0-0.095,0.002l-0.354,0.02c-0.211-0.012-0.422-0.021-0.631-0.031c-0.626-0.027-1.217-0.055-1.744-0.156
		c-0.149-0.029-0.293-0.047-0.437-0.064c-0.105-0.012-0.208-0.023-0.313-0.046c-0.206-0.044-0.416-0.095-0.625-0.144
		c-0.191-0.046-0.382-0.091-0.568-0.131l-0.172-0.035c-0.087-0.018-0.172-0.031-0.253-0.06c-0.349-0.124-0.699-0.241-1.049-0.358
		c-0.669-0.222-1.301-0.432-1.902-0.691c-0.662-0.284-1.325-0.607-1.967-0.921c-0.409-0.198-0.817-0.397-1.229-0.591
		c-0.136-0.062-0.263-0.145-0.391-0.223c-0.192-0.119-0.386-0.236-0.589-0.331c-0.134-0.062-0.266-0.129-0.396-0.196
		c-0.139-0.07-0.277-0.141-0.42-0.208c-0.049-0.023-0.094-0.06-0.14-0.092c-0.134-0.093-0.271-0.181-0.416-0.249
		c-0.113-0.054-0.223-0.112-0.333-0.171c-0.137-0.072-0.274-0.145-0.408-0.207c-0.026-0.015-0.051-0.032-0.077-0.05
		c-0.104-0.069-0.211-0.136-0.322-0.188c-0.34-0.159-0.674-0.33-1.008-0.5c-0.478-0.242-0.971-0.493-1.49-0.717
		c-0.427-0.186-0.865-0.346-1.304-0.507l-0.487-0.179c-0.445-0.168-0.878-0.372-1.336-0.587l-0.232-0.109
		c-0.063-0.03-0.165-0.096-0.267-0.169c0.85-0.266,1.763-0.024,2.362,0.65c0.281,0.316,0.733,0.414,1.119,0.242
		c0.385-0.173,0.614-0.574,0.566-0.994c-0.118-1.025,0.456-1.975,1.43-2.363c0.972-0.388,2.039-0.094,2.656,0.73
		c0.253,0.338,0.698,0.473,1.096,0.332c0.399-0.141,0.66-0.523,0.646-0.945c-0.035-1.031,0.609-1.929,1.606-2.235
		c0.994-0.308,2.032,0.071,2.582,0.944c0.225,0.357,0.658,0.527,1.065,0.419c0.409-0.107,0.7-0.469,0.718-0.892
		c0.048-1.029,0.76-1.871,1.775-2.096c1.007-0.225,2.015,0.236,2.492,1.149c0.196,0.374,0.612,0.579,1.029,0.504
		c0.416-0.075,0.735-0.412,0.788-0.831c0.129-1.021,0.909-1.805,1.936-1.946c1.03-0.144,1.992,0.397,2.394,1.346
		c0.166,0.39,0.564,0.626,0.985,0.585c0.422-0.041,0.767-0.351,0.853-0.765c0.211-1.009,1.052-1.727,2.09-1.784
		c1.04-0.061,1.957,0.557,2.283,1.535c0.133,0.4,0.512,0.669,0.934,0.661c0.422-0.007,0.792-0.288,0.912-0.692
		c0.292-0.989,1.191-1.637,2.236-1.611c1.049,0.024,1.918,0.714,2.164,1.716c0.102,0.41,0.456,0.707,0.877,0.734
		c0.08,0.005,0.158,0.001,0.233-0.014c0.327-0.059,0.607-0.283,0.731-0.603c0.324-0.838,1.089-1.379,1.972-1.432
		c-0.045,0.051-0.081,0.104-0.13,0.154C254.951,281.667,254.853,281.789,254.754,281.913z"/>
</g>
<g>
	<path fill="#D0DAE3" d="M306.732,264.737c-4.026-6.525-26.243-12.13-37.407-6.912c-11.164,5.217-7.046,19.28-3.021,25.806
		c4.027,6.526,16.339,7.587,27.504,2.369C304.972,280.782,310.758,271.262,306.732,264.737z"/>
</g>
<g opacity="0.2">
	<path fill="#232323" d="M306.732,264.737c-0.325-0.526-0.779-1.045-1.325-1.554c0.943,6.155-4.651,13.651-14.099,18.066
		c-10.853,5.072-22.768,4.195-27.125-1.852c0.648,1.596,1.385,3.041,2.121,4.232c4.027,6.526,16.339,7.587,27.504,2.369
		C304.972,280.782,310.758,271.262,306.732,264.737z"/>
</g>
<ellipse opacity="0.2" fill="#232323" cx="275.064" cy="259.934" rx="1.875" ry="1.625"/>
<ellipse opacity="0.2" fill="#232323" cx="282.206" cy="262.421" rx="1.875" ry="1.625"/>
<ellipse opacity="0.2" fill="#232323" cx="273.814" cy="266.684" rx="3.164" ry="2.742"/>
<ellipse opacity="0.2" fill="#232323" cx="293.131" cy="265.059" rx="2.731" ry="2.367"/>
<ellipse opacity="0.2" fill="#232323" cx="283.66" cy="271.434" rx="2.01" ry="1.742"/>
<ellipse opacity="0.2" fill="#232323" cx="301.439" cy="267.559" rx="2.01" ry="1.742"/>
<ellipse opacity="0.2" fill="#232323" cx="272.688" cy="275.559" rx="1.759" ry="1.524"/>
<ellipse opacity="0.2" fill="#232323" cx="290.439" cy="273.809" rx="1.759" ry="1.524"/>
<ellipse opacity="0.2" fill="#232323" cx="285.439" cy="279.559" rx="1.319" ry="1.144"/>
<ellipse opacity="0.2" fill="#232323" cx="277.939" cy="276.059" rx="1.319" ry="1.144"/>
<ellipse opacity="0.2" fill="#232323" cx="266.189" cy="270.309" rx="1.319" ry="1.144"/>
<ellipse opacity="0.2" fill="#232323" cx="276.433" cy="281.055" rx="0.907" ry="0.786"/>
<ellipse opacity="0.2" fill="#232323" cx="289.168" cy="259.941" rx="0.907" ry="0.786"/>
<ellipse opacity="0.2" fill="#232323" cx="266.546" cy="263.794" rx="0.907" ry="0.786"/>
<ellipse opacity="0.2" fill="#232323" cx="268.724" cy="267.481" rx="0.907" ry="0.786"/>
<ellipse opacity="0.2" fill="#232323" cx="292.52" cy="260.779" rx="0.907" ry="0.786"/>
</svg>
