<?xml version="1.0" encoding="utf-8"?>
<!-- Generator: Adobe Illustrator 16.0.4, SVG Export Plug-In . SVG Version: 6.00 Build 0)  -->
<!DOCTYPE svg PUBLIC "-//W3C//DTD SVG 1.1//EN" "http://www.w3.org/Graphics/SVG/1.1/DTD/svg11.dtd">
<svg version="1.1" id="Layer_1" xmlns="http://www.w3.org/2000/svg" xmlns:xlink="http://www.w3.org/1999/xlink" x="0px" y="0px"
	 width="65px" height="68px" viewBox="0 0 65 68" enable-background="new 0 0 65 68" xml:space="preserve">
<g>
	<ellipse fill="#D0DAE3" cx="32.464" cy="63.739" rx="26.4" ry="4.261"/>
	<g>
		<path fill="#EA651B" d="M7.242,52.959c2.11,2.604,4.662,4.927,7.633,6.845c15.079,9.734,35.192,5.402,44.927-9.678
			c5.193-8.043,6.382-17.521,4.072-26.09c-0.782,5.363-2.698,10.648-5.83,15.501C47.02,56.612,24.904,62.2,7.242,52.959z"/>
		<path fill="#FF7E1C" d="M5.198,14.875c-7.816,12.11-6.561,27.463,2.044,38.083C24.904,62.2,47.02,56.612,58.044,39.537
			c3.132-4.853,5.048-10.138,5.83-15.501c-2.02-7.496-6.714-14.295-13.748-18.837C35.046-4.536,14.933-0.203,5.198,14.875z"/>
	</g>
	<g>
		<g>
			<path fill="#FFFFFF" d="M42.374,32.85c0.727,0.908,1.017,2.159,0.871,3.759c-0.218,1.925-1.017,3.327-2.397,4.198
				c-1.199,0.727-3,1.163-5.397,1.309v3.706h-2.669v-3.654H30.71v3.654h-2.672v-3.706h-5.285l0.546-3.161h0.544
				c0.873,0.036,1.434,0.016,1.688-0.057c0.363-0.109,0.581-0.38,0.654-0.816V26.253c-0.109-0.582-0.415-0.945-0.924-1.091
				c-0.327-0.108-1.018-0.145-2.071-0.108h-0.437V22.22l1.636,0.057c1.925,0,3.14-0.021,3.649-0.057v-4.304h2.672v4.252l2.071-0.058
				v-4.195h2.669v4.304c1.853,0.182,3.27,0.581,4.25,1.199c1.199,0.727,1.854,1.816,1.963,3.27c0.218,2.107-0.524,3.598-2.232,4.469
				l0,0C40.775,31.448,41.755,32.015,42.374,32.85L42.374,32.85z M30.763,30.503h0.436c1.526,0.037,2.71-0.051,3.545-0.27
				c1.453-0.363,2.181-1.146,2.181-2.346s-0.711-1.998-2.128-2.398c-0.8-0.219-1.979-0.306-3.541-0.27
				c-0.254,0.036-0.42,0.051-0.492,0.051V30.503z M31.255,38.954c1.854,0.036,3.25-0.057,4.195-0.275
				c1.707-0.436,2.563-1.308,2.563-2.616s-0.837-2.18-2.507-2.615c-0.908-0.255-2.289-0.343-4.143-0.271h-0.602v5.777H31.255z"/>
		</g>
	</g>
</g>
</svg>
