<?xml version="1.0" encoding="utf-8"?>
<!-- Generator: Adobe Illustrator 16.0.4, SVG Export Plug-In . SVG Version: 6.00 Build 0)  -->
<!DOCTYPE svg PUBLIC "-//W3C//DTD SVG 1.1//EN" "http://www.w3.org/Graphics/SVG/1.1/DTD/svg11.dtd">
<svg version="1.1" id="Layer_1" xmlns="http://www.w3.org/2000/svg" xmlns:xlink="http://www.w3.org/1999/xlink" x="0px" y="0px"
	 width="65px" height="68px" viewBox="0 0 65 68" enable-background="new 0 0 65 68" xml:space="preserve">
<ellipse fill="#D0DAE3" cx="32.464" cy="63.739" rx="26.4" ry="4.261"/>
<g>
	<path fill="#A473C6" d="M7.241,52.957c2.108,2.604,4.662,4.926,7.635,6.845c15.075,9.732,35.191,5.401,44.923-9.679
		c5.193-8.041,6.382-17.519,4.071-26.089c-0.779,5.363-2.697,10.647-5.83,15.501C47.018,56.608,24.903,62.197,7.241,52.957z"/>
	<path fill="#D391FC" d="M5.197,14.876c-7.815,12.107-6.561,27.46,2.044,38.081c17.662,9.24,39.776,3.651,50.799-13.422
		c3.133-4.854,5.05-10.138,5.83-15.501C61.852,16.542,57.157,9.74,50.124,5.198C35.046-4.535,14.93-0.203,5.197,14.876z"/>
	<g>
		<g>
			<path fill="#FFFFFF" d="M30.707,45.018V42.57c-2.057-0.234-3.729-0.955-5.021-2.159c-1.291-1.208-1.958-2.828-1.999-4.861h4.288
				c0.041,0.848,0.301,1.591,0.777,2.226c0.479,0.635,1.13,1.066,1.955,1.301v-6.703c-0.19-0.063-0.386-0.127-0.587-0.19
				c-0.2-0.063-0.408-0.127-0.619-0.19c-1.717-0.594-3.023-1.355-3.926-2.288c-0.898-0.932-1.35-2.171-1.35-3.717
				c-0.021-1.822,0.571-3.29,1.779-4.4c1.206-1.112,2.772-1.752,4.702-1.925v-2.571h2.13v2.605c1.905,0.188,3.446,0.851,4.622,1.985
				s1.795,2.592,1.858,4.369h-4.352c-0.021-0.616-0.219-1.181-0.587-1.701c-0.373-0.518-0.886-0.883-1.541-1.095v5.909
				c0.17,0.063,0.34,0.121,0.507,0.175c0.168,0.051,0.339,0.109,0.509,0.173c1.104,0.379,2.107,0.825,3.017,1.335
				c0.911,0.506,1.643,1.181,2.193,2.015c0.551,0.838,0.825,1.914,0.825,3.225c0,1.102-0.27,2.13-0.81,3.082
				c-0.539,0.949-1.333,1.741-2.382,2.368c-1.049,0.622-2.337,0.979-3.86,1.062v2.415h-2.13V45.018z M28.482,25.701
				c0,0.677,0.199,1.223,0.603,1.637c0.4,0.412,0.939,0.768,1.619,1.064v-5.274c-0.656,0.127-1.19,0.412-1.604,0.856
				C28.686,24.431,28.482,25.002,28.482,25.701z M35.566,36.375c0-0.846-0.254-1.514-0.762-1.999
				c-0.512-0.489-1.168-0.901-1.972-1.238v6.034c0.848-0.127,1.515-0.434,2.003-0.921C35.321,37.764,35.566,37.137,35.566,36.375z"
				/>
		</g>
	</g>
</g>
</svg>
